v 0.115283 0.116171 0.106987
v 0.115283 -0.116171 0.106987
v -0.115283 -0.116171 0.106987
v -0.115283 0.116171 0.106987
v 0.078611 0.079217 0.120091
v 0.078611 -0.079217 0.120091
v -0.078611 -0.079217 0.120091
v -0.078611 0.079217 0.120091
v 0.115283 0.116171 0.009030
v 0.106253 0.116171 0.000000
v 0.106253 -0.116171 0.000000
v 0.115283 -0.116171 0.009030
v -0.115283 -0.116171 0.009030
v -0.106253 -0.116171 0.000000
v -0.106253 0.116171 0.000000
v -0.115283 0.116171 0.009030
vn 0.717300 -0.630200 -0.297100
vn 0.717300 0.630200 -0.297100
vn 0.609200 0.609400 0.507500
vn -0.609200 -0.609400 0.507500
vn -0.129500 -0.128200 0.983200
vn -0.129500 0.128200 0.983200
vn 0.297100 0.630200 -0.717300
vn -0.297100 -0.630200 -0.717300
vn -0.717300 -0.630200 -0.297100
vn -0.717300 0.630200 -0.297100
vn 0.129500 -0.128200 0.983200
vn 0.609200 -0.609400 0.507500
vn -0.609200 0.609400 0.507500
vn 0.297100 -0.630200 -0.717300
vn -0.297100 0.630200 -0.717300
vn 0.129500 0.128200 0.983200
s 1
f 12//1 9//2 1//3
f 3//4 7//5 8//6
f 10//7 9//2 12//1
f 14//8 13//9 16//10
f 6//11 7//5 3//4
f 16//10 13//9 3//4
f 2//12 12//1 1//3
f 4//13 3//4 8//6
f 11//14 10//7 12//1
f 15//15 14//8 16//10
f 12//1 2//12 11//14
f 2//12 6//11 3//4
f 4//13 16//10 3//4
f 1//3 9//2 10//7
f 2//12 14//8 11//14
f 8//6 7//5 6//11
f 8//6 6//11 5//16
f 10//7 15//15 16//10
f 10//7 16//10 4//13
f 10//7 4//13 1//3
f 11//14 14//8 15//15
f 11//14 15//15 10//7
f 4//13 8//6 5//16
f 4//13 5//16 1//3
f 5//16 6//11 2//12
f 5//16 2//12 1//3
f 2//12 3//4 13//9
f 2//12 13//9 14//8
