v -0.739170 -2.344198 -0.000582
v -0.739169 -0.000972 -0.000582
v 0.738857 -0.000973 -0.000582
v 0.738856 -2.344198 -0.000582
v -0.705299 -2.267376 0.193962
v -0.652644 -0.000972 0.585061
v 0.652332 -0.000973 0.585061
v 0.702832 -2.267376 0.193962
v -0.706454 -0.571704 0.193962
v -0.739169 -0.571704 -0.000582
v 0.703983 -0.571705 0.193962
v 0.738857 -0.571705 -0.000582
v -0.652644 -0.076827 0.585061
v 0.738857 -0.076827 -0.000582
v -0.739169 -0.076827 -0.000582
v 0.652332 -0.076827 0.585061
v -0.739169 -0.500225 -0.000582
v 0.680250 -0.500225 0.312857
v -0.680563 -0.500225 0.312857
v 0.738857 -0.500225 -0.000582
v -0.627954 -0.000972 1.395794
v 0.627641 -0.000973 1.395794
v -0.627954 -0.076827 1.395794
v 0.627641 -0.076827 1.395794
v -0.627954 -0.316331 1.162962
v -0.628457 -0.316331 0.882039
v 0.628144 -0.316331 0.882039
v 0.627641 -0.316331 1.162962
v 0.629596 -0.000973 0.882039
v 0.627641 -0.000973 1.162962
v -0.629909 -0.000972 0.882039
v -0.627954 -0.000972 1.162962
v 0.703983 -0.076827 0.193962
v 0.703983 -0.000973 0.193962
v 0.703983 -0.500225 0.193962
v -0.706454 -0.076827 0.193962
v -0.706454 -0.500225 0.193962
v -0.706454 -0.000972 0.193962
v -0.739170 -2.344198 -0.000582
v -0.739170 -2.344198 -0.000582
v -0.705299 -2.267376 0.193962
v -0.705299 -2.267376 0.193962
v -0.706454 -0.000972 0.193962
v -0.739169 -0.000972 -0.000582
v -0.739169 -0.000972 -0.000582
v -0.739169 -0.571704 -0.000582
v 0.703983 -0.000973 0.193962
v 0.738857 -0.000973 -0.000582
v 0.738857 -0.000973 -0.000582
v 0.703983 -0.571705 0.193962
v 0.703983 -0.571705 0.193962
v 0.702832 -2.267376 0.193962
v 0.702832 -2.267376 0.193962
v 0.738856 -2.344198 -0.000582
v 0.738856 -2.344198 -0.000582
v 0.738857 -0.076827 -0.000582
v -0.706454 -0.571704 0.193962
v -0.706454 -0.571704 0.193962
v -0.739169 -0.500225 -0.000582
v 0.680250 -0.500225 0.312857
v 0.738857 -0.571705 -0.000582
v -0.680563 -0.500225 0.312857
v -0.652644 -0.076827 0.585061
v -0.652644 -0.076827 0.585061
v 0.738857 -0.500225 -0.000582
v -0.739169 -0.076827 -0.000582
v 0.652332 -0.076827 0.585061
v 0.652332 -0.076827 0.585061
v -0.627954 -0.076827 1.395794
v -0.627954 -0.076827 1.395794
v -0.627954 -0.000972 1.395794
v -0.627954 -0.000972 1.395794
v 0.627641 -0.000973 1.395794
v 0.627641 -0.000973 1.395794
v 0.627641 -0.076827 1.395794
v 0.627641 -0.076827 1.395794
v -0.628457 -0.316331 0.882039
v -0.628457 -0.316331 0.882039
v 0.627641 -0.316331 1.162962
v 0.627641 -0.316331 1.162962
v 0.627641 -0.000973 1.162962
v -0.627954 -0.000972 1.162962
v -0.627954 -0.316331 1.162962
v -0.627954 -0.316331 1.162962
v 0.628144 -0.316331 0.882039
v 0.628144 -0.316331 0.882039
v 0.652332 -0.000973 0.585061
v 0.629596 -0.000973 0.882039
v -0.652644 -0.000972 0.585061
v -0.629909 -0.000972 0.882039
vt 0.480949 0.122194
vt 0.480949 0.055239
vt 0.477448 0.055239
vt 0.378500 0.078331
vt 0.471125 0.058462
vt 0.470031 0.078331
vt 0.363975 0.055239
vt 0.360429 0.021933
vt 0.454605 0.021933
vt 0.510147 0.052109
vt 0.987879 0.052109
vt 0.993586 0.003835
vt 0.397180 0.207657
vt 0.449368 0.207657
vt 0.449368 0.202919
vt 0.873184 0.966971
vt 0.987399 0.966971
vt 0.987399 -0.008641
vt 0.454605 0.055239
vt 0.457905 0.021933
vt 0.457905 0.055239
vt 0.397180 0.172005
vt 0.449368 0.172005
vt 0.449368 0.044552
vt 0.382106 0.443101
vt 0.208477 0.790359
vt -0.000745 0.371914
vt 0.457905 0.097735
vt 0.477448 0.122194
vt 0.397180 0.202919
vt 0.449368 0.176470
vt 0.483761 0.657059
vt 0.315720 0.993143
vt 0.247941 0.863409
vt 0.477448 0.021933
vt 0.480949 0.021933
vt 0.397180 0.176470
vt 0.417749 0.523794
vt 0.358953 0.003309
vt 0.480949 0.234148
vt 0.480949 0.274008
vt 0.477448 0.274008
vt 0.468489 0.185064
vt 0.468489 0.208844
vt 0.379903 0.208844
vt 0.470254 0.234148
vt 0.552391 0.966971
vt 0.735378 0.966971
vt 0.735378 -0.008641
vt 0.873184 -0.008641
vt 0.480949 0.186055
vt 0.470254 0.186055
vt 0.468489 0.118275
vt 0.468489 0.156373
vt 0.379903 0.156373
vt 0.379903 0.185064
vt 0.377267 0.058462
vt 0.379903 0.118275
vt 0.503715 0.003835
vt 0.397180 0.044552
vt 0.172884 0.024656
vt 0.552391 -0.008641
vn -0.994300 0.000000 0.106400
vn -0.988500 0.000000 0.151100
vn -0.988000 -0.004600 0.154500
vn 0.000000 1.000000 0.000000
vn 0.983300 -0.000000 0.181700
vn 0.983300 0.000000 0.182100
vn 0.984300 -0.000300 0.176600
vn 0.000000 -0.930100 0.367300
vn 0.000000 0.000000 -1.000000
vn 0.000000 -0.697000 0.717000
vn -0.985200 -0.000000 0.171200
vn -0.984100 -0.000200 0.177500
vn -0.986100 -0.000300 0.166000
vn 0.984300 0.000000 0.176400
vn 0.982500 0.000000 0.186100
vn 0.000000 0.000000 1.000000
vn -0.982000 -0.007100 0.188500
vn -0.994000 -0.005500 0.108600
vn 0.000000 -0.540800 0.841200
vn 0.000000 -0.729500 0.684000
vn 0.987600 -0.003800 0.156600
vn -0.981900 0.000000 0.189300
vn 0.000000 -0.857000 0.515200
vn 0.000000 -0.728800 0.684700
vn 1.000000 -0.001200 0.002300
vn 1.000000 0.000000 0.000000
vn -1.000000 -0.001200 0.002300
vn -1.000000 0.000000 0.001200
vn -1.000000 0.000000 0.000000
vn 0.000000 -0.778400 -0.627700
vn 0.000000 -1.000000 0.000000
vn 0.994400 -0.004800 0.105700
vn 0.994600 0.000000 0.103600
vn 0.999100 -0.004200 0.042100
vn 0.999500 -0.003000 0.030800
vn -0.999500 -0.003000 0.030800
vn -0.999100 -0.004200 0.042100
vn 0.988100 0.000000 0.153700
vn 0.984500 -0.006000 0.175200
vn 0.983400 -0.000200 0.181200
vn -0.986100 0.000000 0.165800
vn -0.985200 0.000000 0.171500
vn 1.000000 0.000000 0.001200
s 1
f 89/1/1 38/2/2 36/3/3
f 47/4/4 44/5/4 43/6/4
f 52/7/5 54/8/6 61/9/7
f 53/10/8 41/11/8 39/12/8
f 45/13/9 49/14/9 56/15/9
f 79/16/10 76/17/10 70/18/10
f 42/7/11 57/19/12 46/9/13
f 61/9/7 20/20/14 35/21/15
f 10/22/9 12/23/9 4/24/9
f 11/25/16 58/26/16 5/27/16
f 62/28/17 63/29/18 36/3/3
f 66/30/9 56/15/9 65/31/9
f 68/32/19 64/33/19 19/34/20
f 33/3/21 14/35/14 3/36/14
f 35/21/15 20/20/14 14/35/14
f 57/19/12 62/28/17 37/21/22
f 59/37/9 65/31/9 12/23/9
f 51/25/23 60/38/24 19/34/20
f 73/39/16 71/39/16 69/39/16
f 81/40/25 74/41/26 24/42/26
f 82/43/4 72/44/4 22/45/4
f 32/40/27 25/46/28 23/42/29
f 16/47/30 85/48/30 77/49/30
f 86/48/31 80/16/31 84/50/31
f 67/29/32 7/1/33 88/51/34
f 27/52/35 88/51/34 81/40/25
f 6/53/4 90/54/4 29/55/4
f 90/54/4 82/43/4 30/56/4
f 63/29/18 26/52/36 31/51/37
f 26/52/36 25/46/28 32/40/27
f 67/29/32 33/3/21 34/2/38
f 18/28/39 50/19/40 35/21/15
f 18/28/39 35/21/15 33/3/21
f 36/3/3 15/35/41 17/20/41
f 38/2/2 2/36/41 15/35/41
f 57/19/12 37/21/22 17/20/41
f 63/29/18 89/1/1 36/3/3
f 43/6/4 6/53/4 47/4/4
f 47/4/4 48/57/4 44/5/4
f 6/53/4 87/58/4 47/4/4
f 50/19/40 52/7/5 61/9/7
f 55/59/8 53/10/8 39/12/8
f 66/30/9 45/13/9 56/15/9
f 83/50/10 79/16/10 70/18/10
f 40/8/42 42/7/11 46/9/13
f 50/19/40 61/9/7 35/21/15
f 1/60/9 10/22/9 4/24/9
f 8/61/16 11/25/16 5/27/16
f 37/21/22 62/28/17 36/3/3
f 59/37/9 66/30/9 65/31/9
f 60/38/24 68/32/19 19/34/20
f 34/2/38 33/3/21 3/36/14
f 33/3/21 35/21/15 14/35/14
f 10/22/9 59/37/9 12/23/9
f 9/26/23 51/25/23 19/34/20
f 75/39/16 73/39/16 69/39/16
f 28/46/43 81/40/25 24/42/26
f 30/56/4 82/43/4 22/45/4
f 21/41/29 32/40/27 23/42/29
f 13/62/30 16/47/30 77/49/30
f 78/49/31 86/48/31 84/50/31
f 27/52/35 67/29/32 88/51/34
f 28/46/43 27/52/35 81/40/25
f 87/58/4 6/53/4 29/55/4
f 29/55/4 90/54/4 30/56/4
f 89/1/1 63/29/18 31/51/37
f 31/51/37 26/52/36 32/40/27
f 7/1/33 67/29/32 34/2/38
f 67/29/32 18/28/39 33/3/21
f 37/21/22 36/3/3 17/20/41
f 36/3/3 38/2/2 15/35/41
f 46/9/13 57/19/12 17/20/41
