# Blender v2.76 (sub 0) OBJ File: 'bridg2_7.blend'
# www.blender.org
v 1.280000 -1.280000 -1.280000
v -1.280000 -1.280000 -1.280000
v 1.280000 -1.280000 1.280000
v -1.280000 -1.280000 1.280000
v -0.980609 -1.340000 0.560152
v 0.426667 -1.340000 0.560152
v 0.140085 -1.300000 0.560152
v -1.120268 -1.340000 0.560152
v -0.142222 -1.340000 0.560152
v -0.426667 -1.340000 0.560152
v 1.039523 -1.340000 0.560152
v -0.638775 -1.340001 0.722158
v 0.140085 -1.340000 0.741220
v -1.120268 -1.340000 0.638577
v -0.426667 -1.340000 0.733568
v -0.284444 -1.340000 0.741220
v -0.142222 -1.340000 0.741220
v 0.711111 -1.340000 0.707494
v 0.426667 -1.340000 0.729489
v -0.980609 -1.340000 0.681100
v -0.855790 -1.340000 0.703095
v 1.039523 -1.340000 0.662038
v 1.159761 -1.340000 0.601919
v -0.142222 -1.340000 -0.679924
v 0.140085 -1.340000 -0.679924
v 1.039523 -1.340000 -0.679924
v -0.980609 -1.340000 -0.679924
v -0.980609 -1.146554 -0.359763
v 0.426667 -1.051804 -0.679924
v -0.980609 -1.142521 -0.679924
v 1.039523 -1.157164 -0.679924
v 0.140085 -1.017891 -0.679924
v -0.855790 -1.116690 0.703095
v -0.638775 -1.080734 0.722158
v 1.039523 -1.157520 0.662038
v -0.711111 -1.091859 0.715804
v -0.284444 -1.034084 0.741220
v -0.426667 -1.051544 0.733568
v -0.142222 -1.017891 0.741220
v -1.120268 -1.181181 0.638577
v 0.140085 -1.017891 0.741220
v 0.426667 -1.051835 0.729489
v -0.980609 -1.142415 0.681100
v 0.711111 -1.092265 0.707494
v 1.159761 -1.198554 0.601919
v 1.159761 -1.198831 -0.400482
v 1.159761 -1.194576 0.920076
v 1.159761 -1.201432 0.560152
v 1.159761 -1.194576 -1.280000
v 1.159761 -1.194576 -0.729930
v 1.159761 -1.194576 -0.779936
v 1.159761 -1.194576 -1.179987
v 1.159761 -1.194576 -1.229994
v 1.159761 -1.194576 -0.829943
v 1.159761 -1.194576 -1.129981
v 1.159761 -1.194576 -0.679924
v 1.159761 -1.194576 1.280000
v -1.120268 -1.182946 -0.400482
v -1.120268 -1.179386 0.920076
v -1.120268 -1.185079 0.560152
v -1.120420 -1.179436 -0.729902
v -1.120268 -1.179385 -0.779936
v -1.120268 -1.179386 -1.179987
v -1.120420 -1.179436 -1.229965
v -1.120268 -1.179385 -0.829943
v -1.120268 -1.179386 -1.129981
v -1.120268 -1.179385 -0.679924
v -1.120268 -1.179386 1.280000
v -1.120268 -1.179386 -1.280000
v 1.280000 -1.260000 -1.280000
v -0.980609 -1.141929 -1.280000
v -1.280000 -1.260000 -1.280000
v -1.280000 -1.260000 1.280000
v 1.039523 -1.156620 1.280000
v 1.280000 -1.260000 1.280000
v 1.280000 -1.260000 -0.400482
v 1.039523 -1.156619 -0.679924
v 1.039523 -1.156620 -1.129981
v 1.039523 -1.156619 -0.829943
v 1.039523 -1.136620 -1.229994
v 1.039523 -1.136620 -1.179987
v 1.039523 -1.136619 -0.779936
v 1.039523 -1.136619 -0.729930
v 1.039523 -1.156620 -1.280000
v 0.711111 -1.092108 -1.280000
v 0.426667 -1.051805 -1.280000
v 0.140085 -1.017891 -1.280000
v -0.142222 -1.017891 -1.280000
v -0.426667 -1.051531 -1.280000
v -0.711111 -1.091769 -1.280000
v -0.980609 -1.141929 1.280000
v -0.711111 -1.091769 1.280000
v -0.426667 -1.051531 1.280000
v -0.142222 -1.017891 1.280000
v 0.140085 -1.017891 1.280000
v 0.426667 -1.051805 1.280000
v 0.711111 -1.092108 1.280000
v -0.980609 -1.141928 -0.679924
v -0.711111 -1.091769 -0.679924
v -0.426667 -1.051531 -0.679924
v -0.142222 -1.017891 -0.679924
v 0.711111 -1.092107 -0.679924
v -0.980609 -1.141929 -1.129981
v -0.711111 -1.091769 -1.129981
v -0.426667 -1.051531 -1.129981
v -0.142222 -1.017891 -1.129981
v 0.140085 -1.017891 -1.129981
v 0.426667 -1.051805 -1.129981
v 0.711111 -1.092108 -1.129981
v -0.980609 -1.141928 -0.829943
v -0.711111 -1.091769 -0.829943
v -0.426667 -1.051531 -0.829943
v -0.142222 -1.017891 -0.829943
v 0.140085 -1.017891 -0.829943
v 0.426667 -1.051804 -0.829943
v 0.711111 -1.092107 -0.829943
v -0.980893 -1.121993 -1.229941
v -0.711111 -1.051769 -1.229994
v -0.426667 -1.011531 -1.229994
v -0.142222 -0.977891 -1.229994
v 0.140085 -0.977891 -1.229994
v 0.426667 -1.011805 -1.229994
v 0.711111 -1.052108 -1.229994
v -0.980609 -1.121929 -1.179987
v -0.711111 -1.051769 -1.179987
v -0.426667 -1.011531 -1.179987
v -0.142222 -0.977891 -1.179987
v 0.140085 -0.977891 -1.179987
v 0.426667 -1.011805 -1.179987
v 0.711111 -1.052108 -1.179987
v -0.980609 -1.121928 -0.779936
v -0.711111 -1.051769 -0.779936
v -0.426667 -1.011531 -0.779936
v -0.142222 -0.977891 -0.779936
v 0.140085 -0.977891 -0.779936
v 0.426667 -1.011804 -0.779936
v 0.711111 -1.052107 -0.779936
v -0.980893 -1.121993 -0.729877
v -0.711111 -1.051769 -0.729930
v -0.426667 -1.011531 -0.729930
v -0.142222 -0.977891 -0.729930
v 0.140085 -0.977891 -0.729930
v 0.426667 -1.011804 -0.729930
v 0.711111 -1.052107 -0.729930
v 1.039523 -1.156620 0.920076
v 0.711111 -1.092108 0.920076
v 0.426667 -1.051805 0.920076
v 0.140085 -1.017891 0.920076
v -0.142222 -1.017891 0.920076
v -0.426667 -1.051531 0.920076
v -0.711111 -1.091769 0.920076
v -0.980609 -1.141929 0.920076
v -1.280000 -1.260000 -0.400482
v -1.280000 -1.260000 0.560152
v 1.280000 -1.260000 0.920076
v 1.280000 -1.260000 0.560152
v 1.039523 -1.161380 0.560152
v -0.980609 -1.141929 1.175622
v -0.711111 -1.091769 1.175622
v -0.426667 -1.051531 1.175622
v -0.142222 -1.017891 1.175622
v 0.140085 -1.017891 1.175622
v 0.426667 -1.051805 1.175622
v 0.711111 -1.092108 1.175622
v 1.039523 -1.156620 1.175622
v -0.980609 -1.144730 -0.400482
v -0.980609 -1.146374 0.560152
v -1.120268 -1.179386 1.175622
v 1.159761 -1.340000 0.560152
v 0.271181 -1.280000 -0.679924
v -0.142222 -1.290000 -0.400482
v -0.980609 -1.121982 1.005258
v -0.980609 -1.121982 1.090440
v -0.711111 -1.061894 1.005258
v -0.711111 -1.061894 1.090440
v -0.426667 -1.051531 1.005258
v -0.426667 -1.051531 1.090440
v 0.426667 -1.051805 1.005258
v 0.426667 -1.051805 1.090440
v 1.039523 -1.156620 1.005258
v 1.039523 -1.156620 1.090440
v -1.120268 -1.179386 1.005258
v -1.120268 -1.179386 1.090440
v 0.875317 -1.120581 1.175622
v 0.875317 -1.120995 0.684766
v 0.875317 -1.120581 -1.280000
v 0.875317 -1.120581 1.280000
v 0.875317 -1.120581 -0.679924
v 0.875317 -1.120581 -1.129981
v 0.875317 -1.120581 -0.829943
v 0.875317 -1.090581 -1.229994
v 0.875317 -1.090581 -1.179987
v 0.875317 -1.090581 -0.779936
v 0.875317 -1.090581 -0.729930
v 0.875317 -1.120581 0.920076
v 0.875317 -1.100633 1.005258
v 0.875317 -1.100633 1.090440
v 0.568889 -1.070879 1.175622
v 0.568889 -1.070879 0.920076
v 0.568889 -1.050945 1.005258
v 0.568889 -1.050945 1.090440
v -0.845860 -1.114668 1.175622
v -0.845860 -1.114668 1.280000
v -0.845860 -1.114668 0.920076
v -0.845860 -1.084785 1.005258
v -0.845860 -1.084785 1.090440
v -0.612649 -1.076837 1.175622
v -0.612649 -1.076837 0.920076
v -0.612649 -1.056899 1.005258
v -0.612649 -1.056899 1.090440
v 0.793214 -1.105686 -1.280000
v 0.793214 -1.105686 1.175622
v 0.793214 -1.105686 -0.679924
v 0.793214 -1.105686 -1.129981
v 0.793214 -1.105686 -0.829943
v 0.793214 -1.065686 -1.229994
v 0.793214 -1.065686 -1.179987
v 0.793214 -1.065686 -0.779936
v 0.793214 -1.065686 -0.729930
v 0.793214 -1.105686 0.920076
v 0.793214 -1.075805 1.005258
v 0.793214 -1.075805 1.090440
v 0.640000 -1.081178 1.175622
v 0.640000 -1.081178 0.920076
v 0.640000 -1.051312 1.005258
v 0.640000 -1.051312 1.090440
v -0.198621 -1.280000 -0.400482
v 0.271181 -1.280000 -0.400482
v -0.048120 -0.977891 1.005258
v 0.045982 -0.977891 1.005258
v -0.048120 -0.977891 1.090440
v 0.045982 -0.977891 1.090440
v -0.378413 -1.300000 0.560152
v -0.378413 -1.340000 0.736164
v -0.378413 -1.340000 -0.679924
v 0.339206 -1.300000 0.560152
v 0.339206 -1.340000 0.733069
v 0.339206 -1.340000 -0.679924
v 0.061666 -1.340000 0.560152
v 0.061666 -1.320000 -0.679924
v 0.061666 -1.340000 0.741220
v 0.140085 -1.280000 -0.400482
v 0.061666 -1.300000 -0.400482
v -0.284444 -1.280000 -0.400482
v -0.378413 -1.300000 -0.400482
v -0.198621 -1.300000 0.560152
v -0.198621 -1.340000 0.741220
v 0.441905 -1.053848 1.175622
v 0.441905 -1.053848 0.920076
v 0.441905 -1.051713 1.005258
v 0.441905 -1.051713 1.090440
v 0.339206 -1.340000 -0.441506
v 0.441905 -1.340000 -0.498987
v -0.378413 -1.340000 -0.462454
v -0.480000 -1.340000 -0.500117
v -0.449803 -1.339999 -0.462453
v -0.378413 -1.340000 0.195928
v -0.378413 -1.300000 0.235498
v -0.480000 -1.340000 0.195928
v -0.198621 -1.300000 0.354226
v -0.100399 -1.340000 0.408359
v -0.142222 -1.340000 0.385309
v -0.426667 -1.340000 0.195928
v -0.262891 -1.299998 0.318805
v -0.100399 -1.340000 0.477087
v 0.061666 -1.340000 0.477087
v 0.271181 -1.300000 0.285482
v 0.140085 -1.300000 0.350045
v 0.339206 -1.300000 0.247994
v 0.061666 -1.340000 0.402111
v 0.184881 -1.299999 0.343797
v 0.339206 -1.340000 0.200093
v 0.426667 -1.340000 0.200093
v 0.441905 -1.340000 0.200093
v -0.100399 -1.320000 -0.679924
v -0.378413 -1.380000 -0.462454
v 0.339206 -1.380000 -0.441506
v -0.378413 -1.380000 0.139875
v 0.339206 -1.380000 0.139875
v 0.061666 -1.380000 0.139875
v -0.100399 -1.380000 0.139875
v -0.480000 -1.380000 -0.500117
v 0.441905 -1.380000 -0.498987
v -0.449803 -1.379999 -0.462453
v -0.378413 -1.380000 0.195928
v -0.378413 -1.380000 0.235498
v -0.480000 -1.380000 0.195928
v -0.100399 -1.380000 0.408359
v -0.262891 -1.379998 0.318805
v -0.100399 -1.380000 0.477087
v 0.061666 -1.380000 0.402111
v 0.061666 -1.380000 0.477087
v 0.271181 -1.380000 0.285482
v 0.140085 -1.380000 0.350045
v 0.339206 -1.380000 0.200093
v 0.339206 -1.380000 0.247994
v 0.184881 -1.379999 0.343797
v 0.441905 -1.380000 0.200093
v -0.284444 -1.280000 -0.679924
v -0.142222 -1.290000 -0.679924
v 0.140085 -1.280000 -0.679924
v 0.061666 -1.300000 -0.679924
v -0.198621 -1.280000 -0.679924
v -0.378413 -1.300000 -0.679924
v 0.339206 -1.300000 -0.400482
v 0.339206 -1.300000 -0.679924
v -0.100399 -1.300000 -0.400482
v -0.100399 -1.300000 -0.679924
v 0.271181 -1.300000 0.139875
v -0.284444 -1.300000 0.139875
v -0.142222 -1.310000 0.139875
v 0.140085 -1.300000 0.139875
v -0.378413 -1.320000 0.139875
v 0.339206 -1.320000 0.139875
v 0.061666 -1.320000 0.139875
v -0.100399 -1.320000 0.139875
v -0.198621 -1.300000 0.139875
vn 0.029600 0.723500 -0.689700
vn 0.052200 0.709700 -0.702500
vn 0.041200 0.718200 -0.694600
vn 0.055000 0.758900 -0.648800
vn -0.110200 0.747400 -0.655200
vn 0.145600 0.933000 -0.329000
vn 0.121900 0.936100 -0.329800
vn 0.121500 0.936700 -0.328300
vn 0.143100 0.933900 -0.327600
vn 0.032900 0.994100 -0.102900
vn 0.030700 0.998900 -0.035200
vn 0.074300 0.997200 -0.003100
vn 0.074300 0.997200 0.003100
vn 0.030700 0.998900 0.035200
vn 0.032900 0.994100 0.102900
vn 0.095000 0.983800 0.151900
vn 0.095000 0.983800 -0.151900
vn 0.079900 0.894300 -0.440200
vn 0.385100 0.693700 -0.608600
vn 0.700200 0.617500 -0.358300
vn 0.102300 0.994000 -0.037000
vn 0.109900 0.993900 -0.004000
vn -0.064900 0.993000 -0.099200
vn -0.119400 0.981100 -0.152300
vn -0.119400 0.981100 0.152300
vn -0.064900 0.993000 0.099200
vn -0.115500 0.988100 -0.100900
vn -0.147200 0.977000 -0.154400
vn -0.205800 0.966700 -0.151900
vn -0.298900 0.949200 -0.098300
vn -0.298900 0.949200 0.098300
vn -0.205800 0.966700 0.151900
vn -0.190600 0.969700 -0.152900
vn -0.250300 0.963300 -0.096800
vn -0.399600 0.916300 0.025800
vn -0.370100 0.928600 0.025900
vn -0.252900 0.962800 0.095500
vn 0.154700 0.973900 -0.166000
vn 0.127600 0.979600 -0.155500
vn 0.207700 0.966400 -0.151200
vn 0.182500 0.971300 -0.152800
vn 0.109800 0.993900 0.004600
vn 0.102200 0.994000 0.038200
vn -0.142900 0.977500 0.155200
vn -0.115400 0.987900 0.103000
vn -0.189900 0.970000 0.151600
vn -0.374100 0.697000 -0.611700
vn -0.269300 0.659600 -0.701700
vn -0.343300 0.677300 -0.650700
vn -0.176900 0.980700 0.083300
vn 0.157100 0.985000 0.071400
vn -0.182200 0.895700 -0.405600
vn 0.452600 0.712600 -0.536000
vn -0.259200 0.963100 0.072200
vn 0.233600 0.968800 0.082800
vn -0.823400 0.426700 -0.374000
vn -0.266200 0.660400 -0.702100
vn -0.695200 0.614600 -0.372900
vn -0.104700 0.746000 -0.657600
vn 0.019200 0.773500 -0.633500
vn 0.128300 0.745400 -0.654100
vn -0.055000 0.943500 0.326800
vn -0.121400 0.936700 0.328300
vn -0.056600 0.433900 0.899100
vn -0.026900 0.445800 0.894700
vn -0.238300 0.524300 0.817500
vn -0.577300 0.577300 0.577300
vn -0.482700 0.670100 0.563900
vn -0.113700 0.992000 0.053600
vn -0.149100 0.974300 0.168600
vn -0.149100 0.974300 -0.168600
vn -0.113700 0.992100 -0.053000
vn -0.260500 0.965300 0.016100
vn -0.106800 0.707900 -0.698100
vn 0.561800 0.497900 -0.660600
vn 0.577300 0.577300 -0.577300
vn -0.133500 0.904800 -0.404400
vn 0.064600 0.914400 0.399700
vn -0.676800 0.605700 -0.418300
vn -0.012800 0.725000 -0.688600
vn -0.039900 0.696300 -0.716600
vn 0.093600 0.697400 -0.710500
vn 0.167700 0.693700 -0.700400
vn 0.024600 0.750500 -0.660500
vn -0.219200 0.672300 -0.707100
vn 0.138300 0.676500 -0.723300
vn -0.577300 0.577300 -0.577300
vn -0.601400 0.525700 -0.601600
vn 0.121500 0.936700 0.328300
vn 0.143100 0.933900 0.327600
vn -0.054600 0.704200 -0.707900
vn 0.066800 0.433200 0.898800
vn 0.056700 0.433900 0.899100
vn 0.026900 0.445800 0.894700
vn -0.086700 0.464900 0.881000
vn -0.225400 0.800300 0.555600
vn 0.313000 0.414000 0.854700
vn 0.577300 0.577300 0.577300
vn -0.577400 0.577400 0.577300
vn 1.000000 0.000000 0.000000
vn 0.683400 0.651300 0.329800
vn -0.641700 0.611500 0.462900
vn 0.858200 0.000000 0.513200
vn 0.577400 0.577400 0.577300
vn 0.258900 0.797400 0.545000
vn 0.120900 0.490700 0.862900
vn 0.092200 0.445100 0.890700
vn 0.075400 0.912400 -0.402100
vn -0.370800 0.928200 -0.030500
vn -0.121800 0.936200 -0.329800
vn -0.163900 0.941500 -0.294300
vn -0.179700 0.938500 -0.294700
vn -0.121400 0.936700 -0.328300
vn -0.053900 0.705200 -0.706900
vn -0.050100 0.700900 -0.711400
vn -0.114400 0.993000 -0.028800
vn -0.420600 0.555100 0.717500
vn 0.405900 0.912700 0.047000
vn 0.281900 0.946900 0.154500
vn 0.281900 0.946900 -0.154500
vn 0.406000 0.912800 -0.044900
vn 0.852900 0.522000 -0.002100
vn 0.389800 0.920900 -0.003900
vn 0.857600 0.514200 -0.002400
vn 0.176000 0.933900 -0.311200
vn 0.207200 0.943800 -0.257500
vn 0.207200 0.943800 0.257500
vn 0.176000 0.933900 0.311200
vn 0.145600 0.933000 0.329000
vn -0.258900 0.682000 0.684000
vn -0.163300 0.695100 0.700100
vn -0.289800 0.939600 0.182000
vn -0.400200 0.915200 0.047600
vn -0.370300 0.927600 0.049000
vn -0.289500 0.939600 0.182500
vn -0.400100 0.915200 0.047800
vn -0.370400 0.927600 0.047700
vn -0.244100 0.954100 0.173600
vn -0.159600 0.555700 -0.815900
vn -0.267900 0.639800 -0.720300
vn -0.400200 0.915300 -0.045700
vn -0.289900 0.939600 -0.181800
vn -0.244100 0.954100 -0.173600
vn -0.370500 0.927700 -0.045900
vn -0.400100 0.915300 -0.046000
vn -0.289500 0.939600 -0.182500
vn -0.707100 0.000000 -0.707100
vn -0.677000 0.418000 -0.605800
vn -0.086800 0.465000 -0.881000
vn -0.056600 0.433900 -0.899100
vn -0.026900 0.445800 -0.894700
vn 0.026900 0.445800 -0.894700
vn 0.056700 0.433900 -0.899100
vn 0.066800 0.433200 -0.898800
vn 0.092200 0.445100 -0.890700
vn 0.120900 0.490700 -0.862900
vn 0.187600 0.567500 -0.801700
vn 0.293600 0.628100 -0.720600
vn 0.681600 0.407100 -0.608100
vn 0.707100 0.000000 -0.707100
vn -0.121800 0.936200 0.329800
vn -0.163900 0.941500 0.294300
vn -0.056000 0.940700 0.334500
vn 0.056100 0.940700 0.334500
vn 0.055100 0.943500 0.326800
vn 0.286900 0.901900 0.322900
vn -0.286900 0.901900 0.322900
vn 0.438600 0.897600 -0.044800
vn 0.325700 0.931500 -0.162000
vn 0.325700 0.931500 0.162000
vn 0.438500 0.897500 0.046900
vn 0.203500 0.929000 -0.309000
vn 0.203500 0.929000 0.309000
vn 0.056100 0.940700 -0.334500
vn 0.121900 0.936100 0.329800
vn -0.848200 0.529700 0.000800
vn -0.351100 0.936300 0.002700
vn -0.179700 0.938500 0.294700
vn 0.040300 0.713100 -0.699900
vn 0.043400 0.706800 -0.706000
vn -0.076500 0.700400 -0.709600
vn 0.389200 0.921100 0.003200
vn -0.636600 0.494600 -0.591600
vn -0.091300 0.727400 -0.680100
vn 0.104900 0.729000 -0.676400
vn 0.644100 0.482000 -0.593900
vn -0.221500 0.641900 -0.734100
vn -0.179800 0.938500 -0.294600
vn 0.104800 0.988900 -0.105500
vn 0.055100 0.943500 -0.326800
vn -0.628900 0.497100 0.597700
vn -0.773600 0.633500 0.011700
vn -0.628000 0.508400 -0.589200
vn -0.055000 0.943500 -0.326800
vn 0.404600 0.913000 0.051200
vn 0.154500 0.973800 0.166700
vn 0.127500 0.979400 0.156700
vn 0.104600 0.988800 0.106700
vn 0.091300 0.702700 0.705600
vn 0.110300 0.700300 0.705200
vn -0.114300 0.993000 0.030500
vn -0.109100 0.700900 0.704800
vn -0.091300 0.702800 0.705500
vn -0.056000 0.940700 -0.334500
vn 0.222200 0.970100 -0.097300
vn 0.113800 0.992100 0.053300
vn -0.042300 0.718500 0.694200
vn 0.042400 0.718600 0.694100
vn -0.542500 0.790500 -0.284200
vn 0.854400 0.519600 0.001000
vn -0.130000 0.698600 0.703600
vn -0.042300 0.718200 -0.694500
vn -0.089700 0.716900 -0.691400
vn 0.121700 0.709300 -0.694300
vn -0.064900 0.698400 -0.712700
vn 0.646100 0.594500 -0.478700
vn -0.848000 0.529900 -0.000700
vn -0.036800 0.920400 0.389200
vn 0.502200 0.655200 0.564400
vn -0.677000 0.418400 0.605400
vn -0.399600 0.916200 -0.029400
vn 0.182200 0.971300 0.153000
vn 0.207700 0.966400 0.151200
vn 0.803300 0.364400 0.471000
vn 0.156500 0.987500 0.015800
vn 0.221700 0.970300 0.096800
vn 0.137100 0.698100 0.702700
vn 0.608400 0.793600 0.003200
vn 0.149100 0.974300 0.168600
vn 0.113800 0.992100 -0.053300
vn 0.149100 0.974300 -0.168600
vn 0.050200 0.703300 -0.709100
vn -0.707100 0.000000 0.707100
vn 0.273700 0.961400 0.026200
vn 0.186600 0.692800 0.696500
vn 0.251800 0.931400 0.262600
vn 0.251800 0.931400 -0.262600
vn 0.274000 0.961200 -0.030500
vn 0.300700 0.953300 0.026200
vn 0.278100 0.955400 0.098700
vn 0.278100 0.955400 -0.098700
vn 0.300700 0.953200 -0.029800
vn 0.235800 0.971400 0.026800
vn -0.178600 0.983500 0.027100
vn 0.683200 0.608500 -0.403500
vn 0.563700 0.632200 -0.531600
vn -0.086500 0.995800 -0.028700
vn -0.086500 0.995800 0.029300
vn 0.707100 0.000000 0.707100
vn 0.682400 0.405500 0.608200
vn 0.286400 0.669500 0.685300
vn 0.684200 0.609000 0.401100
vn 0.797200 0.603500 0.011200
vn 0.644700 0.471000 0.602000
vn 0.278100 0.544300 0.791400
vn -0.339000 0.621400 0.706300
vn -0.076300 0.725200 -0.684300
vn 0.063600 0.723000 -0.687900
vn 0.145300 0.698700 -0.700500
vn 0.633400 0.499800 -0.590700
vn -0.683200 0.608500 -0.403600
vn -0.637300 0.483500 0.600000
vn -0.786200 0.617900 0.011400
vn 0.103500 0.716600 0.689700
vn -0.090000 0.714900 0.693400
vn 0.142800 0.686100 0.713300
vn 0.062600 0.710300 0.701100
vn -0.075200 0.712500 0.697600
vn 0.634200 0.488600 0.599100
vn 0.781500 0.623800 0.011600
vn 0.142200 0.989700 0.018300
vn 0.203500 0.978900 0.018100
vn -0.104500 0.994300 0.018400
vn 0.087500 0.996000 0.018400
vn -0.124300 0.992100 0.018300
s 1
f 41//1 42//2 19//3 237//4 13//5
f 116//6 115//7 136//8 137//9
f 200//10 250//11 178//12 179//13 251//14 201//15 226//16 225//17
f 258//18 264//19 289//19 286//20
f 249//21 147//22 178//12 250//11
f 209//23 174//24 175//25 210//26
f 208//27 151//28 174//24 209//23
f 205//29 172//30 173//31 206//32
f 204//33 152//34 172//30 205//29
f 173//31 183//35 168//36 158//37
f 146//38 224//39 225//17 221//40 220//41
f 251//14 179//13 163//42 248//43
f 210//26 175//25 159//44 207//45
f 206//32 173//31 158//37 202//46
f 267//47 271//48 268//49 7//50 236//51 269//52
f 260//53 264//19 258//18 233//54 246//55
f 270//56 268//49 294//57 291//58
f 233//54 234//59 16//60 247//61 246//55
f 141//62 140//63 100//64 101//65
f 31//66 26//67 11//67 157//68
f 161//69 231//70 229//71 149//72
f 233//54 10//73 15//74 234//59
f 271//48 267//47 293//47 297//48
f 257//75 258//18 286//20 285//76
f 45//77 48//78 169//67 23//79
f 7//50 13//5 237//4 236//51
f 43//80 33//81 21//82 20//83
f 35//84 45//77 23//79 22//85
f 273//86 274//87 298//87 295//87 272//88
f 123//9 122//8 129//89 130//90
f 36//91 33//81 43//80 152//34 204//33 151//28
f 102//92 29//93 32//94 101//65 100//64 99//95 98//96 30//97 27//98 235//99 24//100 275//101 240//102 25//103 238//104 26//67 31//66 77//105 188//106 213//107
f 43//80 40//108 59//109 152//34
f 112//110 111//111 132//112 133//113
f 38//114 34//115 36//91 151//28 208//27 150//116
f 274//87 253//117 283//117 298//87
f 55//118 78//119 79//120 54//121
f 156//122 48//78 45//77 47//123 155//124
f 215//125 190//126 189//127 214//128 109//129 116//6
f 158//37 168//36 68//130 91//131
f 138//132 61//133 67//134 98//96
f 124//135 63//136 66//137 103//138
f 71//139 69//140 64//141 117//142
f 117//142 64//141 63//136 124//135
f 110//143 65//144 62//145 131//146
f 131//146 62//145 61//133 138//132
f 2//147 72//148 69//140 71//139 90//149 89//150 88//151 87//152 86//153 85//154 211//155 186//156 84//157 49//158 70//159 1//160
f 112//110 105//161 104//162 111//111
f 127//62 106//163 107//164 128//165
f 275//101 281//166 280//167 240//102
f 51//168 82//169 83//170 50//171
f 218//172 137//9 144//90 219//173
f 114//174 115//7 108//175 107//164
f 72//148 153//176 58//177 67//134 61//133 62//145 65//144 66//137 63//136 64//141 69//140
f 132//112 131//146 138//132 139//178
f 54//121 79//120 82//169 51//168
f 215//125 116//6 137//9 218//172
f 44//179 185//180 35//84 22//85 18//181
f 31//66 157//68 48//78 46//182
f 25//103 240//102 302//183 301//184 170//185 306//186 238//104
f 259//76 263//187 257//75 285//76 287//76
f 119//113 118//188 125//178 126//63
f 111//111 110//143 131//146 132//112
f 53//168 80//169 81//170 52//171
f 216//172 123//9 130//90 217//173
f 44//179 42//2 147//22 249//21 199//189 224//39 146//38
f 136//8 135//190 142//165 143//89
f 118//188 117//142 124//135 125//178
f 49//158 84//157 80//169 53//168
f 211//155 85//154 123//9 216//172
f 115//7 114//174 135//190 136//8
f 254//67 276//67 278//67 313//191 245//192 304//193 235//99
f 90//149 71//139 117//142 118//188
f 189//127 190//126 79//120 78//119
f 85//154 86//153 122//8 123//9
f 134//194 141//62 142//165 135//190
f 52//171 81//170 78//119 55//118
f 217//173 130//90 109//129 214//128
f 143//89 142//165 32//94 29//93
f 130//90 129//89 108//175 109//129
f 125//178 124//135 103//138 104//162
f 50//171 83//170 77//105 56//195
f 219//173 144//90 102//92 213//107
f 164//196 223//197 198//198 248//43 163//42 96//199 97//200
f 86//153 87//152 121//190 122//8
f 160//201 207//45 159//44 92//202 93//203
f 139//178 138//132 98//96 99//95
f 106//163 105//161 112//110 113//204
f 185//180 44//179 146//38 220//41 195//205
f 162//206 161//69 94//207 95//208
f 265//76 266//209 292//87 290//76
f 54//121 51//168 50//171 56//195 46//182 76//210 70//159 49//158 53//168 52//171 55//118
f 202//46 158//37 91//131 203//211
f 39//212 41//1 13//5 241//213 17//214 247//61 16//60 37//215
f 89//150 119//113 120//194 88//151
f 66//137 65//144 110//143 103//138
f 40//108 43//80 20//83 14//216
f 76//210 46//182 48//78 156//122
f 58//177 153//176 154//217 60//218
f 60//218 40//108 14//216 8//98
f 167//219 60//218 8//98 5//98
f 154//217 73//220 68//130 168//36 183//35 182//221 59//109 40//108 60//218
f 48//78 157//68 11//67 169//67
f 226//16 223//197 164//196 212//222 222//223
f 127//62 126//63 105//161 106//163
f 113//204 112//110 133//113 134//194
f 26//67 238//104 252//224 253//117 274//87 273//86 6//225 19//3 18//181 22//85 23//79 169//67 11//67
f 120//194 127//62 128//165 121//190
f 87//152 88//151 120//194 121//190
f 134//194 133//113 140//63 141//62
f 184//226 212//222 164//196 97//200 187//227
f 98//96 67//134 58//177 60//218 167//219 28//228 166//228 30//97
f 56//195 77//105 31//66 46//182
f 231//70 161//69 162//206 232//229
f 126//63 125//178 104//162 105//161
f 42//2 41//1 148//230 162//206 95//208 96//199 163//42 179//13 178//12 147//22
f 149//72 229//71 230//231 148//230
f 36//91 34//115 12//232 21//82 33//81
f 2//147 4//233 73//220 154//217 153//176 72//148
f 152//34 59//109 182//221 172//30
f 172//30 182//221 183//35 173//31
f 137//9 136//8 143//89 144//90
f 165//234 184//226 187//227 74//235
f 83//170 194//236 188//106 77//105
f 81//170 192//236 189//127 78//119
f 38//114 37//215 16//60 234//59 15//74 12//232 34//115
f 84//157 186//156 191//237 80//169
f 80//169 191//237 192//236 81//170
f 79//120 190//126 193//237 82//169
f 82//169 193//237 194//236 83//170
f 35//84 185//180 195//205 145//238
f 181//239 197//240 184//226 165//234
f 145//238 195//205 196//241 180//242
f 180//242 196//241 197//240 181//239
f 9//243 17//214 241//213 239//244 266//209 265//76 261//245 262//246
f 120//194 119//113 126//63 127//62
f 129//89 128//165 107//164 108//175
f 37//215 38//114 150//116 176//247 177//248 160//201 93//203 94//207 161//69 149//72 39//212
f 113//204 114//174 107//164 106//163
f 226//16 201//15 198//198 223//197
f 224//39 199//189 200//10 225//17
f 225//17 226//16 222//223 221//40
f 3//249 75//250 57//251 74//235 187//227 97//200 96//199 95//208 94//207 93//203 92//202 203//211 91//131 68//130 73//220 4//233
f 159//44 202//46 203//211 92//202
f 175//25 206//32 202//46 159//44
f 151//28 204//33 205//29 174//24
f 174//24 205//29 206//32 175//25
f 177//248 210//26 207//45 160//201
f 150//116 208//27 209//23 176//247
f 176//247 209//23 210//26 177//248
f 194//236 219//173 213//107 188//106
f 192//236 217//173 214//128 189//127
f 186//156 211//155 216//172 191//237
f 191//237 216//172 217//173 192//236
f 190//126 215//125 218//172 193//237
f 193//237 218//172 219//173 194//236
f 197//240 222//223 212//222 184//226
f 195//205 220//41 221//40 196//241
f 196//241 221//40 222//223 197//240
f 279//98 277//252 252//224 238//104 306//186 305//253 314//254
f 42//2 44//179 18//181 19//3
f 142//165 141//62 101//65 32//94
f 268//49 271//48 297//48 294//57
f 27//98 5//98 8//98 14//216 20//83 21//82 12//232 15//74 10//73 263//187 259//76 255//255 256//256 254//67 235//99
f 89//150 90//149 118//188 119//113
f 235//99 304//193 299//257 303//258 300//259 308//260 275//101 24//100
f 181//239 165//234 74//235 57//251 47//123 45//77 35//84 145//238 180//242
f 230//231 229//71 231//70 232//229
f 267//47 269//52 296//261 293//47
f 39//212 149//72 148//230 41//1
f 255//255 259//76 287//76 282//255
f 6//225 236//51 237//4 19//3
f 256//256 255//255 282//255 284//256
f 27//98 30//97 166//228 28//228 167//219 5//98
f 7//50 239//244 241//213 13//5
f 254//67 256//256 284//256 276//67
f 269//52 272//88 295//87 296//261
f 109//129 108//175 115//7 116//6
f 104//162 103//138 110//143 111//111
f 315//262 243//263 302//183 240//102 280//167
f 144//90 143//89 29//93 102//92
f 280//167 279//98 314//254 309//264 312//265 315//262
f 9//243 246//55 247//61 17//214
f 162//206 148//230 230//231 232//229
f 3//249 1//160 70//159 76//210 156//122 155//124 75//250
f 253//117 252//224 277//252 283//117
f 133//113 132//112 139//178 140//63
f 201//15 251//14 248//43 198//198
f 199//189 249//21 250//11 200//10
f 262//246 260//53 246//55 9//243
f 257//75 263//187 10//73 233//54 258//18
f 268//49 270//56 266//209 239//244 7//50
f 273//86 272//88 269//52 236//51 6//225
f 277//252 279//98 280//167 281//166 278//67 276//67 284//256 282//255 287//76 285//76 286//20 289//19 288//245 290//76 292//87 291//58 294//57 297//48 293//47 296//261 295//87 298//87 283//117
f 311//266 317//267 310//268 313//191 278//67 281//166 316//269
f 122//8 121//190 128//165 129//89
f 307//270 316//269 281//166 275//101 308//260
f 261//245 265//76 290//76 288//245
f 266//209 270//56 291//58 292//87
f 47//123 57//251 75//250 155//124
f 140//63 139//178 99//95 100//64
f 260//53 262//246 261//245 288//245 289//19 264//19
f 306//186 170//185 228//271 305//253
f 308//260 300//259 171//272 307//270
f 303//258 299//257 244//273 227//274
f 170//185 301//184 242//275 228//271
f 299//257 304//193 245//192 244//273
f 301//184 302//183 243//263 242//275
f 242//275 243//263 315//262 312//265
f 244//273 245//192 313//191 310//268
f 307//270 171//272 311//266 316//269
f 228//271 242//275 312//265 309//264
f 227//274 244//273 310//268 317//267
f 305//253 228//271 309//264 314//254
f 171//272 227//274 317//267 311//266
f 300//259 303//258 227//274 171//272
f 113//204 134//194 135//190 114//174
v -1.280000 1.280000 -1.280000
v 1.280000 1.280000 -1.280000
v -1.280000 1.280000 1.280000
v 1.280000 1.280000 1.280000
v 0.980609 1.340000 0.560152
v -0.426666 1.340000 0.560152
v -0.140085 1.300000 0.560152
v 1.120268 1.340000 0.560152
v 0.142222 1.340000 0.560152
v 0.426667 1.340000 0.560152
v -1.039522 1.340000 0.560152
v -0.140085 1.340000 0.741220
v 1.120268 1.340000 0.638577
v 0.426667 1.340000 0.733568
v 0.284444 1.340000 0.741220
v -0.711111 1.340000 0.707494
v -0.426666 1.340000 0.729489
v 0.980609 1.340000 0.681100
v 0.855790 1.340000 0.703095
v -1.039522 1.340000 0.662038
v -1.159761 1.340000 0.601919
v 0.142222 1.340000 -0.679924
v -0.140085 1.340000 -0.679924
v -1.039523 1.340000 -0.679924
v 0.980609 1.339999 -0.679924
v 0.980609 1.142521 -0.679924
v -1.039523 1.157164 -0.679924
v -0.140085 1.017891 -0.679924
v 0.855790 1.116689 0.703095
v -1.039522 1.157520 0.662038
v 0.284444 1.034084 0.741220
v 0.142222 1.017891 0.741220
v 1.120268 1.181181 0.638577
v -0.140085 1.017891 0.741220
v 0.980609 1.142415 0.681100
v -0.711111 1.092265 0.707494
v -1.159761 1.198554 0.601919
v -1.159761 1.201432 0.560152
v -1.159761 1.194576 -1.280000
v -1.159761 1.194576 -0.729930
v -1.159761 1.194576 -0.779936
v -1.159761 1.194576 -1.179987
v -1.159761 1.194576 -1.229994
v -1.159761 1.194576 -0.679924
v -1.159761 1.194576 1.280000
v 1.120268 1.179385 0.920076
v 1.120268 1.185079 0.560152
v 1.120420 1.179435 -0.729902
v 1.120268 1.179385 -0.779936
v 1.120268 1.179386 -1.179987
v 1.120420 1.179436 -1.229965
v 1.120268 1.179385 -0.679924
v 1.120268 1.179386 1.280000
v 1.120268 1.179386 -1.280000
v -1.280000 1.260000 -1.280000
v 0.980609 1.141929 -1.280000
v 1.280000 1.260000 -1.280000
v 1.280000 1.260000 1.280000
v -1.039523 1.156620 1.280000
v -1.280000 1.260000 1.280000
v -1.039523 1.156620 -0.679924
v -1.039523 1.156620 -1.129981
v -1.039523 1.156620 -0.829943
v -1.039523 1.136620 -1.229994
v -1.039523 1.136620 -1.179987
v -1.039523 1.136620 -0.779936
v -1.039523 1.136620 -0.729930
v -1.039523 1.156620 -1.280000
v -0.140085 1.017891 -1.280000
v 0.142222 1.017891 -1.280000
v 0.711111 1.091769 -1.280000
v 0.980609 1.141929 1.280000
v 0.142222 1.017891 1.280000
v -0.140085 1.017891 1.280000
v 0.980609 1.141928 -0.679924
v 0.711111 1.091769 -0.679924
v 0.142222 1.017891 -0.679924
v 0.980609 1.141929 -1.129981
v 0.711111 1.091769 -1.129981
v 0.142222 1.017891 -1.129981
v -0.140085 1.017891 -1.129981
v 0.980609 1.141928 -0.829943
v 0.711111 1.091769 -0.829943
v 0.142222 1.017891 -0.829943
v -0.140085 1.017891 -0.829943
v 0.980893 1.121993 -1.229941
v 0.711111 1.051769 -1.229994
v 0.142222 0.977891 -1.229994
v -0.140085 0.977891 -1.229994
v 0.980609 1.121929 -1.179987
v 0.711111 1.051769 -1.179987
v 0.142222 0.977891 -1.179987
v -0.140085 0.977891 -1.179987
v 0.980609 1.121928 -0.779936
v 0.711111 1.051769 -0.779936
v 0.142222 0.977891 -0.779936
v -0.140085 0.977891 -0.779936
v 0.980893 1.121993 -0.729877
v 0.711111 1.051769 -0.729930
v 0.142222 0.977891 -0.729930
v -0.140085 0.977891 -0.729930
v -1.039523 1.156620 0.920076
v -0.140085 1.017891 0.920076
v 0.142222 1.017891 0.920076
v 0.426667 1.051531 0.920076
v 0.980609 1.141928 0.920076
v -1.039522 1.161380 0.560152
v 0.980609 1.141928 1.175622
v 0.426667 1.051531 1.175622
v 0.142222 1.017891 1.175622
v -0.140085 1.017891 1.175622
v 0.980609 1.146374 0.560152
v -1.159761 1.340000 0.560152
v -0.271181 1.280000 -0.679924
v 0.980609 1.121982 1.005258
v 0.980609 1.121982 1.090440
v 0.711111 1.061894 1.005258
v 0.711111 1.061894 1.090440
v -0.426666 1.051805 1.005258
v -0.426666 1.051805 1.090440
v -1.039523 1.156620 1.005258
v -1.039523 1.156620 1.090440
v 1.120268 1.179385 1.005258
v 1.120268 1.179386 1.090440
v -0.875317 1.120581 1.175622
v -0.875317 1.120581 -1.280000
v -0.875317 1.120581 -0.679924
v -0.875317 1.120581 -1.129981
v -0.875317 1.120581 -0.829943
v -0.875317 1.090581 -1.229994
v -0.875317 1.090581 -1.179987
v -0.875317 1.090581 -0.779936
v -0.875317 1.090581 -0.729930
v -0.875317 1.120581 0.920076
v -0.875317 1.100633 1.005258
v -0.875317 1.100633 1.090440
v -0.568889 1.070879 1.175622
v -0.568889 1.070879 0.920076
v -0.568889 1.050945 1.005258
v -0.568889 1.050945 1.090440
v 0.845860 1.114668 1.175622
v 0.845860 1.114668 0.920076
v 0.845860 1.084785 1.005258
v 0.845860 1.084785 1.090440
v 0.612650 1.076837 1.175622
v 0.612650 1.076837 0.920076
v 0.612650 1.056899 1.005258
v 0.612650 1.056899 1.090440
v -0.793214 1.105686 -1.280000
v -0.793214 1.105686 1.175622
v -0.793214 1.105686 -0.679924
v -0.793214 1.105686 -1.129981
v -0.793214 1.105686 -0.829943
v -0.793214 1.065686 -1.229994
v -0.793214 1.065686 -1.179987
v -0.793214 1.065686 -0.779936
v -0.793214 1.065686 -0.729930
v -0.793214 1.105686 0.920076
v -0.793214 1.075805 1.005258
v -0.793214 1.075805 1.090440
v -0.640000 1.081178 1.175622
v -0.640000 1.081178 0.920076
v -0.640000 1.051312 1.005258
v -0.640000 1.051312 1.090440
v 0.048120 0.977891 1.005258
v -0.045982 0.977891 1.005258
v 0.048120 0.977891 1.090440
v -0.045982 0.977891 1.090440
v 0.378413 1.300000 0.560152
v 0.378413 1.340000 0.736164
v 0.378413 1.340000 -0.679924
v -0.339206 1.300000 0.560152
v -0.339206 1.340000 0.733069
v -0.339206 1.340000 -0.679924
v -0.061666 1.340000 0.560152
v -0.061666 1.320000 -0.679924
v 0.198621 1.300000 0.560152
v 0.198621 1.340000 0.741220
v -0.441905 1.053848 1.175622
v -0.441905 1.053848 0.920076
v -0.339206 1.340000 -0.441506
v -0.441905 1.340000 -0.498987
v 0.378413 1.340000 -0.462454
v 0.480000 1.340000 -0.500117
v 0.449803 1.339999 -0.462453
v 0.378413 1.340000 0.195928
v 0.378413 1.300000 0.235498
v 0.480000 1.340000 0.195928
v 0.198621 1.300000 0.354226
v 0.100399 1.340000 0.408359
v 0.142222 1.340000 0.385309
v 0.426667 1.340000 0.195928
v 0.262891 1.299998 0.318805
v 0.100399 1.340000 0.477087
v -0.061666 1.340000 0.477087
v -0.271181 1.300000 0.285482
v -0.140085 1.300000 0.350045
v -0.339206 1.300000 0.247994
v -0.061666 1.340000 0.402111
v -0.184881 1.299999 0.343797
v -0.339206 1.340000 0.200093
v -0.426666 1.340000 0.200093
v -0.441905 1.340000 0.200093
v 0.100399 1.320000 -0.679924
v 0.378413 1.380000 -0.462454
v -0.339206 1.380000 -0.441506
v 0.378413 1.380000 0.139875
v -0.339206 1.380000 0.139875
v -0.061666 1.380000 0.139875
v 0.100399 1.380000 0.139875
v 0.480000 1.380000 -0.500117
v -0.441905 1.380000 -0.498987
v 0.449803 1.379999 -0.462453
v 0.378413 1.380000 0.195928
v 0.378413 1.380000 0.235498
v 0.480000 1.380000 0.195928
v 0.100399 1.380000 0.408359
v 0.262891 1.379998 0.318805
v 0.100399 1.380000 0.477087
v -0.061666 1.380000 0.402111
v -0.061666 1.380000 0.477087
v -0.271181 1.380000 0.285482
v -0.140085 1.380000 0.350045
v -0.339206 1.380000 0.200093
v -0.339206 1.380000 0.247994
v -0.184881 1.379999 0.343797
v -0.441905 1.380000 0.200093
v 0.284444 1.280000 -0.679924
v -0.140085 1.280000 -0.679924
v -0.061666 1.300000 -0.679924
v 0.198621 1.280000 -0.679924
v 0.378413 1.300000 -0.679924
v -0.339206 1.300000 -0.679924
v 0.100399 1.300000 -0.679924
v -0.271181 1.300000 0.139875
v 0.284444 1.300000 0.139875
v -0.140085 1.300000 0.139875
v 0.378413 1.320000 0.139875
v -0.339206 1.320000 0.139875
v -0.061666 1.320000 0.139875
v 0.100399 1.320000 0.139875
v 0.198621 1.300000 0.139875
vt 0.830414 0.925953
vt 0.883050 0.925953
vt 0.830414 0.959227
vt 0.666667 0.959227
vt 0.555555 0.859405
vt 0.666667 0.859405
vt 0.093936 0.758609
vt 0.046968 0.735125
vt 0.093936 0.718809
vt 0.777778 0.892679
vt 0.830414 0.892679
vt 0.739316 0.925953
vt 0.777778 0.925953
vt 0.739316 0.959227
vt 0.577586 0.638370
vt 0.602692 0.624533
vt 0.647817 0.718809
vt 0.445279 0.726890
vt 0.427781 0.726712
vt 0.830414 0.859405
vt 0.883050 0.859405
vt 0.883050 0.892679
vt 0.093936 0.039067
vt 0.046968 0.039067
vt 0.046968 0.019534
vt 0.250000 0.959227
vt 0.190151 0.959227
vt 0.190151 0.925953
vt 1.000000 1.000000
vt 0.997083 1.000000
vt 0.997083 0.000000
vt 0.883050 0.959227
vt 0.555555 0.039068
vt 0.777778 0.039067
vt 0.555555 0.058601
vt 0.951593 0.768807
vt 0.953190 0.768807
vt 0.093936 0.234405
vt 0.158079 0.234405
vt 0.445279 0.058601
vt 0.445279 0.175804
vt 0.190151 0.175804
vt 0.093936 0.925953
vt 0.093936 1.000000
vt 0.046968 1.000000
vt 0.475912 0.686362
vt 0.475912 0.718809
vt 0.445279 0.718809
vt 0.950544 0.768807
vt 0.945293 0.768807
vt 0.445279 0.789539
vt 0.445279 0.859405
vt 0.327381 0.859405
vt 0.777778 0.058601
vt 0.687500 0.576534
vt 0.687500 0.304642
vt 0.883050 0.234405
vt 0.647817 0.723635
vt 0.602692 0.726002
vt 0.367498 0.786355
vt 0.577586 0.718809
vt 0.611111 0.789539
vt 0.483197 0.047636
vt 0.546621 0.047636
vt 0.500815 0.067678
vt 0.367498 0.596873
vt 0.367498 0.578161
vt 0.046968 0.234405
vt 0.000000 0.000000
vt 0.046968 0.214871
vt 0.190151 0.039067
vt 0.158079 0.039067
vt 0.190151 0.019534
vt 0.555555 0.214871
vt 0.445279 0.214871
vt 0.445279 0.195337
vt 0.250000 0.925953
vt 0.250000 0.892679
vt 0.277778 0.892679
vt 0.367498 0.234405
vt 0.327381 0.305083
vt 0.158079 0.019534
vt 0.445279 0.234405
vt 0.475912 0.234405
vt 0.445279 0.554639
vt 0.333333 0.925953
vt 0.445279 0.959227
vt 0.937605 0.892679
vt 0.937664 0.214882
vt 0.937605 0.234405
vt 0.937605 0.039067
vt 0.937605 0.195337
vt 0.883050 0.175804
vt 0.883050 0.000000
vt 0.937605 0.000000
vt 0.937664 0.019545
vt 0.555555 1.000000
vt 0.555555 0.959227
vt 0.093936 0.058601
vt 0.158079 0.058601
vt 0.158079 0.175804
vt 0.739316 0.892679
vt 0.941589 0.768655
vt 0.954938 0.768713
vt 0.955835 0.768665
vt 0.277778 0.859405
vt 0.222222 0.776365
vt 0.190151 0.058601
vt 0.777778 0.019534
vt 0.883161 0.019554
vt 0.883050 0.039067
vt 0.093936 0.175804
vt 0.093936 0.195337
vt 0.046968 0.195337
vt 0.674430 0.052537
vt 0.599685 0.069004
vt 0.333333 0.892679
vt 0.945293 0.742372
vt 0.942854 0.742372
vt 0.394070 0.554638
vt 0.367498 0.554639
vt 0.666667 0.576534
vt 0.647817 0.576534
vt 0.046968 0.000000
vt 0.777778 0.175804
vt 0.883050 0.195337
vt 0.046968 0.718809
vt 0.647817 0.234405
vt 0.968737 0.766898
vt 0.966139 0.767689
vt 0.093936 0.000000
vt 0.093936 0.019534
vt 0.445279 1.000000
vt 0.834293 0.774647
vt 0.739316 0.859405
vt 0.963817 0.768098
vt 0.777778 0.000000
vt 0.394070 0.725055
vt 0.367498 0.723990
vt 0.475912 0.554639
vt 0.539218 0.686362
vt 0.367498 0.327537
vt 0.883050 0.058601
vt 0.093936 0.214871
vt 0.518797 0.925953
vt 0.518797 0.892679
vt 0.647817 0.319354
vt 0.675704 0.319354
vt 0.883161 0.214892
vt 0.777778 0.234405
vt 0.883050 1.000000
vt 0.555555 0.175804
vt 0.777778 0.195337
vt 0.445279 0.039068
vt 0.883050 0.718809
vt 0.666667 0.718809
vt 0.333333 0.718809
vt 0.333333 0.578161
vt 0.734976 0.069004
vt 0.647817 0.566691
vt 0.602692 0.614690
vt 0.539218 0.554638
vt 0.482038 0.925953
vt 0.968737 0.765439
vt 0.966139 0.765439
vt 0.808339 0.209771
vt 0.837263 0.206921
vt 0.979829 0.176423
vt 0.926326 0.765439
vt 0.928562 0.765439
vt 0.928562 0.767334
vt 0.934671 0.768180
vt 0.445279 0.019534
vt 0.777778 0.214871
vt 0.937605 0.859405
vt 0.482038 0.892679
vt 0.093936 0.859405
vt 0.093936 0.892679
vt 0.281127 0.056875
vt 0.318018 0.054448
vt 0.281127 0.069004
vt 0.394070 0.601673
vt 0.577586 0.554638
vt 0.539218 0.234405
vt 0.077968 0.176423
vt 0.578249 0.226567
vt 0.183440 0.202837
vt 0.478795 0.226567
vt 0.611111 0.554638
vt 0.611111 0.234405
vt 0.327381 0.578161
vt 0.367498 0.587030
vt 0.367498 0.568318
vt 0.928562 0.742372
vt 0.158079 0.214871
vt 0.475912 0.728369
vt 0.158079 0.000000
vt 0.647817 0.591992
vt 0.158079 0.195337
vt 0.250000 0.859405
vt 0.190151 0.892679
vt 0.158079 0.925953
vt 0.158079 0.959227
vt 0.158079 0.859405
vt 0.158079 0.892679
vt 0.555555 0.234405
vt 0.539218 0.728547
vt 0.555555 0.727892
vt 0.190151 0.195337
vt 0.367498 0.718809
vt 0.277778 0.925953
vt 0.277778 0.959227
vt 1.000000 0.000000
vt 0.190151 0.214871
vt 0.647817 0.554638
vt 0.555555 0.718809
vt 0.555555 0.650511
vt 0.190151 0.234405
vt 0.190151 0.000000
vt 0.333333 0.784957
vt 0.190151 0.859405
vt 0.883050 0.766055
vt 0.647817 0.787564
vt 0.555555 0.195337
vt 0.475912 0.730500
vt 0.950544 0.742372
vt 0.953190 0.742372
vt 0.951593 0.742372
vt 0.327381 0.959227
vt 0.577586 0.789539
vt 0.926326 0.766216
vt 0.539218 0.730500
vt 0.394070 0.611516
vt 0.687500 0.566691
vt 0.483197 0.069004
vt 0.937605 0.925953
vt 0.445279 0.626893
vt 0.427781 0.624453
vt 0.531719 0.676519
vt 0.475912 0.647232
vt 0.539218 0.649672
vt 0.555556 0.019534
vt 0.555556 0.000000
vt 0.966139 0.742372
vt 0.546621 0.069004
vt 0.537225 0.067678
vt 0.336463 0.053460
vt 0.555555 0.789539
vt 0.937605 0.749444
vt 0.946752 0.742372
vt 0.937605 0.718809
vt 0.577586 0.727009
vt 0.445279 0.636736
vt 0.278381 0.212434
vt 0.445279 0.000000
vt 0.941589 0.742372
vt 0.666667 0.786550
vt 0.734976 0.055904
vt 0.000000 1.000000
vt 0.394070 0.234405
vt 0.949766 0.742372
vt 0.475912 0.657075
vt 0.134240 0.195671
vt 0.937605 1.000000
vt 0.438462 0.069004
vt 0.895111 0.200027
vt 0.954938 0.742372
vt 0.077968 0.180249
vt 0.427781 0.634296
vt 0.327381 0.568318
vt 0.937470 0.192765
vt 0.939962 0.768589
vt 0.979829 0.180249
vt 0.577586 0.234405
vt 0.539218 0.676519
vt 0.647817 0.582148
vt 0.539218 0.659515
vn 0.252100 -0.913100 0.320300
vn 0.117400 -0.993100 0.000000
vn 0.000000 -1.000000 0.000000
vn 0.167500 -0.985900 0.000000
vn 0.049300 -0.972500 0.227600
vn 0.150700 -0.929300 0.337300
vn 0.138100 0.000000 -0.990400
vn 0.193300 -0.955300 -0.223700
vn -0.434200 -0.900800 0.000000
vn -0.149300 -0.933100 0.327300
vn 1.000000 0.000000 0.000000
vn 0.193300 -0.955300 0.223700
vn 0.100900 -0.776900 0.621500
vn 0.000000 0.000000 -1.000000
vn 0.000000 0.000000 1.000000
vn -0.133200 -0.991100 -0.000000
vn -0.301000 -0.953600 0.000000
vn 0.454400 -0.890800 -0.000000
vn -0.118300 -0.993000 0.000000
vn -0.584900 0.000000 -0.811100
vn -0.008800 -0.976400 0.215700
vn 0.000000 -0.976500 0.215700
vn -0.477900 -0.878400 0.000000
vn -0.290200 -0.957000 0.000000
vn 0.117400 -0.993100 0.003500
vn -0.005200 -1.000000 0.000000
vn 0.247100 -0.968700 0.023600
vn -0.117500 -0.993100 0.000000
vn 0.380200 -0.924900 0.000000
vn 0.259000 -0.965900 -0.000200
vn 0.259000 -0.965900 -0.000000
vn 0.259000 -0.965900 0.000200
vn -0.214400 -0.976800 -0.000000
vn 0.158300 -0.931700 0.326900
vn 0.050700 -0.998700 0.000000
vn 0.040900 0.000000 -0.999200
vn -0.053700 -0.000000 -0.998600
vn -0.132900 -0.991100 -0.010800
vn -0.104400 -0.776600 0.621200
vn -0.178500 -0.983900 -0.000000
vn 0.251900 -0.967800 0.000200
vn -0.408500 -0.847500 -0.339000
vn 0.006000 -0.999700 -0.025100
vn -0.282000 -0.959100 0.023400
vn 0.170300 -0.914900 -0.365900
vn -0.496300 -0.868100 0.004800
vn -0.291300 0.000000 -0.956600
vn 0.160100 -0.987100 -0.001900
vn -0.173500 0.000000 -0.984800
vn 0.170300 -0.915100 -0.365400
vn 0.049300 -0.972500 -0.227600
vn 0.482700 0.000000 -0.875800
vn -0.408500 -0.847500 0.339000
vn -1.000000 0.000000 0.000000
vn 0.170300 -0.914900 0.365900
vn -0.408500 -0.847500 0.338900
vn 0.391200 -0.920300 0.000000
vn -0.297100 -0.954800 0.003200
vn 0.198300 -0.980100 -0.000100
vn 0.170300 -0.914900 0.366100
vn 0.198300 -0.980100 0.000000
vn 0.100900 -0.776900 -0.621500
vn 0.128800 -0.991700 -0.000000
vn -0.415900 -0.909400 0.000000
vn 0.000000 -0.905200 0.425100
vn 0.252100 -0.913100 -0.320300
vn 0.137100 0.000000 -0.990600
vn 0.145600 -0.984200 0.100400
vn 0.251900 -0.967800 -0.000200
vn 0.000000 -0.905200 -0.425100
vn 0.255200 -0.966900 0.003000
vn -0.199500 -0.979600 0.023900
vn 0.208100 -0.977800 0.023900
vn -0.233800 -0.833800 0.500200
vn 0.553100 0.000000 -0.833100
vn -0.233800 -0.833800 -0.500200
vn 0.638200 -0.769900 0.000000
vn -0.149200 -0.933100 -0.327200
vn -0.315100 -0.924100 0.216400
vn -0.315100 -0.924100 -0.216400
vn -0.482700 0.000000 -0.875800
vn -0.488400 0.000000 0.872600
vn -0.005000 -0.973700 0.227900
vn -0.005000 -0.973700 -0.227900
vn 0.450600 -0.892700 -0.000000
vn -0.322700 -0.946500 0.000000
vn 0.131300 -0.965200 0.225900
vn 0.131300 -0.965200 -0.225900
vn -0.578500 -0.815700 0.000000
vn -0.230400 -0.759900 0.607800
vn -0.230400 -0.759900 -0.607800
vn -0.316100 -0.948700 -0.005600
vn -0.274400 -0.907400 0.318300
vn -0.274400 -0.907400 -0.318300
vn 0.201500 -0.979500 -0.002000
vn 0.628600 -0.758400 0.172300
vn 0.000000 -0.780900 -0.624600
vn 0.134700 -0.989700 0.048000
vn -0.118300 -0.993000 0.002700
vn 0.266100 -0.963900 0.000000
vn -0.407000 -0.889900 0.205900
vn 0.447200 0.000000 -0.894400
vn 0.183000 -0.983100 -0.000000
vn 0.141500 -0.989700 -0.023200
vn -0.569300 -0.802700 0.177300
vn 0.559900 0.000000 -0.828600
vn 0.159900 -0.985800 0.051000
vn 0.006000 -1.000000 0.000000
vn 0.006000 -0.999700 0.025100
vn 0.134800 -0.990800 -0.010600
vn -0.104400 -0.776600 -0.621200
vn 0.449400 -0.893300 -0.000500
vn 0.000000 -0.997300 0.073000
vn 0.371600 -0.904000 0.211700
vn 0.011900 -0.975100 0.221600
vn 0.000000 -0.974300 0.225400
vn 0.259000 -0.965900 -0.002000
vn -0.192500 -0.981100 -0.018000
vn -0.178500 -0.983900 -0.006800
vn -0.141400 -0.976200 0.164400
vn -0.158000 -0.987400 0.001300
vn -0.157000 -0.981600 0.108500
vn -0.143300 -0.989700 -0.003700
vn -0.178200 -0.982200 0.058800
vn 0.113100 -0.993600 0.000000
vn -0.151300 -0.980700 0.123600
vn -0.132800 -0.990200 0.042900
vn 0.265700 -0.964000 -0.006100
vn 0.357000 -0.866900 0.348000
vn 0.356800 -0.867400 0.346900
vn 0.356900 -0.867100 -0.347400
vn 0.380500 -0.924800 -0.001000
vn 0.000000 -0.780900 0.624600
vn 0.462700 -0.886500 0.004100
vn 0.460700 -0.887500 -0.005700
vn 0.569200 -0.821200 -0.040800
vn 0.380700 -0.924700 0.000200
vn 0.424600 -0.905400 0.000000
vn 0.450800 -0.892600 0.000500
vn 0.356800 -0.867400 -0.346900
vn -0.157900 -0.987500 0.000000
vn -0.118300 -0.993000 -0.002700
vn -0.391200 -0.920300 0.000000
vn -0.289500 -0.957200 0.000000
vn -0.149300 -0.933100 -0.327300
vn 0.251900 -0.967700 0.000000
vn -0.270000 -0.962900 0.000000
vn 0.199200 -0.765300 -0.612100
vn -0.667900 -0.742500 -0.051200
vn -0.477900 -0.878400 -0.005200
vn 0.000000 -0.999700 0.024400
vn -0.437900 -0.899000 0.000000
vn -0.149200 -0.933100 0.327200
vn 0.199300 -0.765200 -0.612100
vn 0.150700 -0.929300 -0.337300
vn 0.158300 -0.931700 -0.326900
vn 0.199200 -0.765300 0.612100
vn 0.028900 -0.999600 0.000000
vn -0.316000 -0.948700 0.005200
vn 0.199100 -0.765300 0.612100
vn 0.267100 -0.963700 0.004400
vn -0.321500 -0.946900 -0.003300
vn 0.371500 -0.904000 -0.211700
vn -0.199700 -0.909800 0.363900
vn -0.199700 -0.909800 -0.363900
vn -0.067500 0.006400 -0.997700
vn -0.070800 0.000000 -0.997500
vn -0.135400 -0.935000 0.327800
vn -0.135400 -0.935000 -0.327800
vn -0.128200 -0.991600 -0.016900
vn 0.380700 -0.924700 -0.000200
vn -0.153700 -0.847300 0.508300
vn -0.153700 -0.847300 -0.508300
vn -0.173900 -0.958800 0.224500
vn -0.173900 -0.958800 -0.224500
vn 0.452000 -0.892000 0.000500
vn 0.450600 -0.892700 -0.000500
vn 0.445800 -0.874000 0.193100
vn 0.259100 -0.965900 -0.000000
vn 0.077100 0.000000 -0.997000
vn 0.061300 0.018200 -0.998000
vn -0.129500 -0.965500 0.225900
vn -0.129500 -0.965500 -0.225900
vn 0.000000 -0.703300 -0.710900
vn 0.000000 -0.767600 -0.641000
vn 0.780200 0.000000 0.625500
vn 0.380500 -0.924800 0.001000
vn -0.214400 -0.976700 -0.003400
s off
f 461/1/276 433/2/276 458/3/276
f 426/4/277 421/5/277 422/6/277
f 337/7/278 338/8/278 328/9/278
f 434/10/279 460/11/279 461/1/279
f 465/12/280 435/13/280 462/14/280
f 506/15/278 510/16/278 486/17/278
f 458/3/281 462/14/281 435/13/281
f 514/18/282 517/19/282 543/19/282
f 459/20/283 423/21/283 432/22/283
f 382/23/284 359/24/284 360/25/284
f 478/26/285 467/27/285 477/28/285
f 321/29/286 375/30/286 374/31/286
f 433/2/287 425/32/287 458/3/287
f 409/33/288 408/34/288 397/35/288
f 495/36/289 332/37/289 348/37/289
f 378/38/290 444/39/290 344/38/290
f 398/40/291 402/41/291 470/42/291
f 439/43/292 376/44/292 362/45/292
f 512/46/293 492/47/293 324/48/293
f 495/36/289 349/49/289 329/50/289
f 351/51/294 420/52/294 497/53/294
f 408/34/288 396/54/288 397/35/288
f 505/55/278 501/56/278 342/57/278
f 504/58/295 510/59/295 535/59/295
f 324/48/296 329/51/296 490/60/296
f 494/61/297 486/17/297 332/62/297
f 345/63/290 394/64/290 493/65/290
f 515/66/286 518/67/286 542/66/286
f 361/68/298 372/69/298 357/70/298
f 472/71/299 448/72/299 471/73/299
f 417/74/278 418/75/278 414/76/278
f 348/62/300 422/6/300 421/5/300
f 481/77/301 480/78/301 456/79/301
f 341/38/278 491/80/278 499/81/278
f 448/72/299 447/82/299 471/73/299
f 546/83/302 547/84/302 554/85/302
f 437/86/303 420/52/303 428/87/303
f 433/2/304 432/22/304 440/88/304
f 365/89/305 369/90/305 392/57/305
f 367/91/306 366/92/306 399/93/306
f 373/94/307 371/95/307 368/96/307
f 426/4/277 390/97/277 427/98/277
f 379/99/308 445/100/308 446/101/308
f 461/1/309 458/3/309 435/13/309
f 465/12/310 464/102/310 434/10/310
f 490/103/311 329/50/311 351/50/311
f 487/104/312 331/105/312 348/37/312
f 497/53/313 455/106/313 353/107/313
f 398/40/314 469/108/314 472/71/314
f 446/101/315 445/100/315 469/108/315
f 470/42/315 446/101/315 469/108/315
f 404/109/316 403/110/316 407/111/316
f 380/112/317 383/113/317 358/114/317
f 394/64/290 393/115/290 488/116/290
f 436/117/318 456/79/318 497/53/318
f 546/118/289 431/119/289 340/118/289
f 552/120/319 556/121/319 550/80/319
f 509/122/289 503/123/289 531/123/289
f 356/124/298 360/25/298 372/69/298
f 400/125/320 399/93/320 411/126/320
f 372/69/321 361/68/321 355/127/321
f 501/56/278 488/128/278 342/57/278
f 469/108/291 398/40/291 470/42/291
f 330/129/322 350/129/322 335/130/322
f 540/18/282 514/18/282 543/19/282
f 385/131/317 381/132/317 360/25/317
f 427/98/278 390/97/278 391/133/278
f 346/134/323 459/20/323 463/135/323
f 335/130/324 352/130/324 336/136/324
f 388/137/325 373/94/325 403/110/325
f 434/10/326 464/102/326 463/135/326
f 513/138/327 515/139/327 539/138/327
f 526/140/286 557/140/286 493/84/286
f 359/24/328 382/23/328 379/99/328
f 501/56/329 505/55/329 528/56/329
f 512/46/289 538/46/289 536/141/289
f 529/81/278 523/142/278 525/121/278
f 407/111/330 395/143/330 396/54/330
f 357/70/331 384/144/331 378/38/331
f 427/98/332 484/145/332 482/146/332
f 361/68/333 344/38/333 424/9/333
f 459/20/334 346/134/334 423/21/334
f 500/147/290 502/148/290 530/148/290
f 415/149/335 392/57/335 393/150/335
f 425/32/336 389/151/336 458/3/336
f 401/152/337 400/125/337 412/153/337
f 397/35/338 396/54/338 400/125/338
f 410/154/314 398/40/314 472/71/314
f 322/155/278 336/134/278 327/156/278
f 323/157/339 519/158/339 515/66/339
f 342/159/290 488/116/290 393/115/290
f 531/160/278 535/161/278 527/162/278
f 427/98/340 428/87/340 485/163/340
f 364/164/290 325/164/290 322/165/290
f 466/166/289 443/167/289 318/168/289
f 460/11/341 459/20/341 432/22/341
f 430/169/290 355/169/290 328/170/290
f 347/171/342 337/171/342 333/172/342
f 462/14/343 389/151/343 390/97/343
f 409/33/278 410/154/278 406/173/278
f 411/126/344 415/149/344 416/174/344
f 355/169/290 424/170/290 328/170/290
f 440/88/306 423/21/306 363/175/306
f 482/146/345 483/176/345 420/52/345
f 419/177/292 438/178/292 362/45/292
f 554/85/290 525/121/290 552/120/290
f 344/179/290 444/180/290 341/181/290
f 369/90/346 429/155/346 343/57/346
f 526/140/278 539/182/278 525/121/278
f 559/183/347 558/162/347 551/184/347
f 318/168/289 319/185/289 386/186/289
f 389/187/290 321/185/290 390/188/290
f 556/121/290 552/120/290 525/121/290
f 553/189/348 545/190/348 549/128/348
f 328/9/278 341/38/278 520/191/278
f 539/182/278 542/192/278 541/193/278
f 333/107/278 337/7/278 328/9/278
f 344/194/286 341/194/286 424/170/286
f 384/144/349 450/195/349 444/39/349
f 382/23/349 448/72/349 445/100/349
f 537/196/350 516/196/350 540/18/350
f 443/197/351 447/82/351 381/132/351
f 327/156/352 486/17/352 504/198/352
f 446/101/351 449/199/351 383/113/351
f 435/13/310 465/12/310 434/10/310
f 479/200/353 480/78/353 476/201/353
f 439/43/354 453/202/354 442/203/354
f 451/204/355 452/205/355 438/178/355
f 416/174/288 393/150/288 394/206/288
f 507/207/356 534/207/356 508/208/356
f 449/199/299 473/209/299 450/195/299
f 489/210/339 323/157/339 515/66/339
f 498/142/357 523/142/357 529/81/357
f 352/130/324 346/136/324 336/136/324
f 481/77/358 457/211/358 454/212/358
f 455/106/359 456/79/359 480/78/359
f 366/92/360 367/91/360 374/213/360
f 320/168/290 391/186/290 321/185/290
f 474/214/314 418/75/314 345/83/314
f 453/202/361 439/43/361 438/178/361
f 553/189/290 555/215/290 524/215/290
f 387/188/289 386/186/289 319/185/289
f 465/12/362 462/14/362 426/4/362
f 422/6/363 463/135/363 464/102/363
f 326/216/364 508/217/364 494/61/364
f 450/195/365 474/214/365 468/218/365
f 448/72/365 472/71/365 469/108/365
f 466/219/366 471/73/366 447/82/366
f 419/177/367 362/45/367 354/8/367
f 470/42/366 473/209/366 449/199/366
f 323/157/278 490/60/278 334/220/278
f 453/202/368 477/28/368 467/27/368
f 475/221/369 476/201/369 452/205/369
f 346/134/370 352/222/370 423/21/370
f 498/142/329 550/80/329 556/121/329
f 486/17/371 327/156/371 487/223/371
f 413/224/372 414/76/372 402/41/372
f 512/225/286 516/196/286 538/225/286
f 339/226/289 545/227/289 548/228/289
f 335/222/278 336/134/278 322/155/278
f 518/67/286 541/67/286 542/66/286
f 426/4/373 462/14/373 390/97/373
f 428/87/374 496/229/374 437/86/374
f 461/1/375 460/11/375 433/2/375
f 439/43/308 442/203/308 376/44/308
f 495/230/278 329/51/278 492/47/278
f 323/157/376 489/210/376 490/60/376
f 421/5/332 427/98/332 482/146/332
f 347/171/377 354/231/377 337/171/377
f 400/125/378 396/54/378 395/143/378
f 516/196/350 514/18/350 540/18/350
f 505/55/329 533/55/329 528/56/329
f 406/173/291 410/154/291 471/73/291
f 492/47/278 512/46/278 511/141/278
f 350/129/322 352/130/322 335/130/322
f 346/134/379 463/135/379 348/62/379
f 558/162/329 527/162/329 521/184/329
f 326/216/380 494/61/380 495/230/380
f 500/147/286 524/215/286 555/215/286
f 511/232/329 536/232/329 534/207/329
f 513/138/381 539/138/381 543/19/381
f 462/14/382 458/3/382 389/151/382
f 436/117/383 437/86/383 457/211/383
f 457/211/384 437/86/384 496/229/384
f 354/231/377 338/231/377 337/171/377
f 554/85/290 557/140/290 526/140/290
f 555/215/286 549/128/286 500/147/286
f 549/128/286 488/128/286 500/147/286
f 489/210/278 515/66/278 513/233/278
f 456/79/383 436/117/383 457/211/383
f 528/56/278 533/234/278 530/148/278
f 557/140/286 547/84/286 493/84/286
f 503/123/329 504/198/329 532/198/329
f 413/224/338 412/153/338 417/74/338
f 483/176/278 482/146/278 485/163/278
f 348/62/385 463/135/385 422/6/385
f 358/114/298 372/69/298 359/24/298
f 402/41/386 414/76/386 473/209/386
f 365/89/387 366/92/387 374/213/387
f 341/38/278 499/81/278 520/191/278
f 521/184/388 527/162/388 493/84/388
f 493/65/290 340/235/290 345/63/290
f 433/2/389 441/236/389 425/32/389
f 540/237/278 543/238/278 526/140/278
f 530/148/278 533/234/278 524/215/278
f 538/239/278 537/240/278 534/241/278
f 487/223/390 332/62/390 486/17/390
f 405/242/337 387/243/337 404/109/337
f 489/210/391 324/48/391 490/60/391
f 401/152/338 397/35/338 400/125/338
f 401/152/372 413/224/372 402/41/372
f 522/147/290 500/147/290 530/148/290
f 393/150/290 392/57/290 343/244/290
f 352/222/392 363/175/392 423/21/392
f 491/80/278 498/142/278 499/81/278
f 394/64/290 339/245/290 521/246/290
f 451/204/393 347/7/393 353/107/393
f 444/180/290 468/247/290 341/181/290
f 475/221/394 451/204/394 353/107/394
f 478/26/395 454/212/395 376/44/395
f 479/200/396 475/221/396 353/107/396
f 467/27/397 478/26/397 376/44/397
f 455/106/398 479/200/398 353/107/398
f 442/203/399 467/27/399 376/44/399
f 421/5/400 349/248/400 348/62/400
f 499/81/357 498/142/357 529/81/357
f 451/204/308 438/178/308 419/177/308
f 376/44/401 454/212/401 391/133/401
f 323/157/278 334/220/278 333/107/278
f 391/133/402 454/212/402 496/229/402
f 470/42/386 402/41/386 473/209/386
f 338/8/278 430/127/278 328/9/278
f 352/222/403 350/249/403 363/175/403
f 428/87/278 427/98/278 391/133/278
f 415/149/404 365/89/404 392/57/404
f 407/111/405 367/91/405 395/143/405
f 403/110/406 373/94/406 368/96/406
f 415/149/407 411/126/407 366/92/407
f 417/74/408 394/206/408 345/83/408
f 428/87/294 391/133/294 496/229/294
f 342/57/278 322/155/278 505/55/278
f 435/13/279 434/10/279 461/1/279
f 328/9/278 520/191/278 333/107/278
f 359/24/292 379/99/292 380/112/292
f 504/198/278 486/17/278 510/16/278
f 340/118/289 493/250/289 547/250/289
f 413/224/337 401/152/337 412/153/337
f 440/88/360 375/29/360 441/236/360
f 381/132/284 382/23/284 360/25/284
f 364/251/409 369/90/409 374/213/409
f 363/175/410 350/249/410 375/29/410
f 413/224/278 417/74/278 414/76/278
f 375/29/411 350/249/411 364/251/411
f 403/110/412 368/96/412 367/91/412
f 375/29/413 364/251/413 374/213/413
f 368/96/414 374/213/414 367/91/414
f 494/61/278 506/15/278 486/17/278
f 411/126/415 399/93/415 366/92/415
f 480/78/416 481/77/416 476/201/416
f 535/59/356 506/252/356 508/208/356
f 436/117/417 497/53/417 420/52/417
f 512/46/293 324/48/293 514/253/293
f 373/187/289 388/254/289 319/185/289
f 485/163/418 428/87/418 483/176/418
f 318/168/289 386/186/289 466/166/289
f 452/205/419 476/201/419 453/202/419
f 325/164/329 364/164/329 330/129/329
f 386/255/372 387/243/372 406/173/372
f 491/256/289 340/118/289 431/119/289
f 410/154/408 409/33/408 398/40/408
f 475/221/420 479/200/420 476/201/420
f 358/114/284 383/113/284 357/70/284
f 331/257/278 487/223/278 327/156/278
f 358/114/298 357/70/298 372/69/298
f 426/4/277 427/98/277 421/5/277
f 343/258/290 342/159/290 393/115/290
f 327/156/278 509/122/278 505/55/278
f 439/43/292 362/45/292 438/178/292
f 353/172/342 347/171/342 333/172/342
f 421/5/345 482/146/345 420/52/345
f 319/213/286 321/29/286 374/31/286
f 412/153/421 411/126/421 416/174/421
f 331/257/278 327/156/278 336/134/278
f 418/75/408 417/74/408 345/83/408
f 322/155/278 327/156/278 505/55/278
f 387/243/337 388/137/337 404/109/337
f 384/144/422 383/113/422 449/199/422
f 322/165/329 342/244/329 429/165/329
f 531/123/289 533/55/289 509/122/289
f 409/33/408 397/35/408 398/40/408
f 412/153/423 400/125/423 411/126/423
f 355/127/424 354/8/424 377/259/424
f 362/45/425 377/259/425 354/8/425
f 380/112/308 379/99/308 446/101/308
f 431/260/319 552/120/319 550/80/319
f 547/250/289 546/118/289 340/118/289
f 505/55/289 509/122/289 533/55/289
f 511/141/289 512/46/289 536/141/289
f 508/217/364 506/15/364 494/61/364
f 325/251/278 330/249/278 322/155/278
f 507/207/329 511/232/329 534/207/329
f 554/85/426 552/120/426 431/260/426
f 383/113/284 384/144/284 357/70/284
f 388/254/289 387/188/289 319/185/289
f 355/127/427 377/259/427 372/69/427
f 417/74/288 416/174/288 394/206/288
f 481/77/428 478/26/428 477/28/428
f 356/124/292 385/131/292 360/25/292
f 535/59/356 510/59/356 506/252/356
f 410/154/291 472/71/291 471/73/291
f 546/83/426 554/85/426 431/260/426
f 404/109/429 388/137/429 403/110/429
f 463/135/430 459/20/430 434/10/430
f 460/11/431 434/10/431 459/20/431
f 525/121/278 539/182/278 541/193/278
f 502/148/278 500/147/278 501/56/278
f 408/34/432 407/111/432 396/54/432
f 361/68/292 357/70/292 378/38/292
f 551/261/289 521/261/289 339/226/289
f 422/6/433 464/102/433 426/4/433
f 424/9/434 355/127/434 361/68/434
f 416/174/435 415/149/435 393/150/435
f 402/41/278 398/40/278 397/35/278
f 514/253/293 516/262/293 512/46/293
f 537/240/278 526/140/278 527/162/278
f 524/215/278 522/147/278 530/148/278
f 319/185/289 371/263/289 373/187/289
f 370/264/360 441/236/360 375/29/360
f 351/51/278 349/248/278 420/52/278
f 358/114/292 359/24/292 380/112/292
f 361/68/290 378/38/290 344/38/290
f 381/132/422 447/82/422 448/72/422
f 340/235/290 491/265/290 345/63/290
f 320/168/290 376/266/290 391/186/290
f 524/215/290 559/183/290 553/189/290
f 405/242/338 404/109/338 408/34/338
f 452/205/361 453/202/361 438/178/361
f 549/267/289 545/227/289 488/267/289
f 498/142/329 491/80/329 550/80/329
f 355/169/286 430/169/286 338/231/286
f 374/268/289 371/263/289 319/185/289
f 382/23/422 381/132/422 448/72/422
f 522/147/286 524/215/286 500/147/286
f 548/228/289 551/261/289 339/226/289
f 387/243/372 405/242/372 406/173/372
f 499/81/286 529/81/286 544/191/286
f 409/33/338 405/242/338 408/34/338
f 399/93/378 400/125/378 395/143/378
f 391/186/290 390/188/290 321/185/290
f 428/87/418 420/52/418 483/176/418
f 527/162/278 524/215/278 531/160/278
f 517/269/278 324/48/278 489/210/278
f 495/230/297 494/61/297 332/62/297
f 332/37/312 487/104/312 348/37/312
f 488/116/290 339/245/290 394/64/290
f 543/238/278 539/182/278 526/140/278
f 491/265/290 341/181/290 468/247/290
f 318/213/329 372/31/329 377/30/329
f 532/58/295 504/58/295 535/59/295
f 544/270/278 529/81/278 525/121/278
f 468/247/290 345/63/290 491/265/290
f 360/25/298 359/24/298 372/69/298
f 408/34/421 404/109/421 407/111/421
f 343/57/290 392/57/290 369/90/290
f 369/90/436 364/251/436 429/155/436
f 385/266/289 356/271/289 318/168/289
f 468/218/314 474/214/314 345/83/314
f 347/7/437 419/177/437 354/8/437
f 320/29/329 318/213/329 377/30/329
f 432/22/438 423/21/438 440/88/438
f 378/38/439 384/144/439 444/39/439
f 379/99/439 382/23/439 445/100/439
f 385/131/440 443/197/440 381/132/440
f 401/152/278 402/41/278 397/35/278
f 527/162/388 526/140/388 493/84/388
f 354/231/286 355/169/286 338/231/286
f 380/112/440 446/101/440 383/113/440
f 473/209/299 474/214/299 450/195/299
f 526/140/290 525/121/290 554/85/290
f 405/242/278 409/33/278 406/173/278
f 389/187/290 370/263/290 321/185/290
f 520/191/278 323/157/278 333/107/278
f 364/164/329 350/129/329 330/129/329
f 349/248/278 421/5/278 420/52/278
f 519/158/289 520/191/289 544/191/289
f 346/136/441 348/37/441 331/105/441
f 476/201/419 477/28/419 453/202/419
f 334/272/311 490/103/311 351/50/311
f 558/162/290 559/183/290 527/162/290
f 520/191/278 519/158/278 323/157/278
f 336/136/442 346/136/442 331/105/442
f 547/84/302 557/140/302 554/85/302
f 375/268/290 321/185/290 370/263/290
f 481/77/416 477/28/416 476/201/416
f 466/219/386 386/255/386 471/73/386
f 508/208/356 534/207/356 535/59/356
f 478/26/443 481/77/443 454/212/443
f 479/200/444 455/106/444 480/78/444
f 524/215/278 533/234/278 531/160/278
f 482/146/278 484/145/278 485/163/278
f 342/244/329 343/244/329 429/165/329
f 351/51/445 497/53/445 353/107/445
f 437/86/303 436/117/303 420/52/303
f 540/237/278 526/140/278 537/240/278
f 541/193/278 544/270/278 525/121/278
f 464/102/433 465/12/433 426/4/433
f 365/89/446 415/149/446 366/92/446
f 444/39/447 450/195/447 468/218/447
f 445/100/447 448/72/447 469/108/447
f 443/197/448 466/219/448 447/82/448
f 446/101/448 470/42/448 449/199/448
f 442/203/449 453/202/449 467/27/449
f 451/204/450 475/221/450 452/205/450
f 341/194/286 328/170/286 424/170/286
f 414/76/291 418/75/291 474/214/291
f 450/195/422 384/144/422 449/199/422
f 501/56/278 500/147/278 488/128/278
f 460/11/375 432/22/375 433/2/375
f 351/50/289 329/50/289 349/49/289
f 555/215/348 553/189/348 549/128/348
f 484/145/340 427/98/340 485/163/340
f 386/255/386 406/173/386 471/73/386
f 320/168/290 377/273/290 362/271/290
f 339/226/289 488/267/289 545/227/289
f 348/37/289 349/49/289 495/36/289
f 441/236/304 433/2/304 440/88/304
f 395/143/306 367/91/306 399/93/306
f 515/139/327 542/139/327 539/138/327
f 429/165/290 364/164/290 322/165/290
f 374/213/451 369/90/451 365/89/451
f 389/151/306 425/32/306 370/264/306
f 541/67/289 518/67/289 519/158/289
f 545/190/426 553/189/426 548/274/426
f 536/275/278 538/239/278 534/241/278
f 517/19/381 513/138/381 543/19/381
f 368/96/452 371/95/452 374/213/452
f 324/48/453 492/47/453 329/51/453
f 473/209/291 414/76/291 474/214/291
f 425/32/454 441/236/454 370/264/454
f 333/172/455 334/272/455 353/172/455
f 431/119/289 550/256/289 491/256/289
f 511/141/278 508/217/278 326/216/278
f 525/121/329 523/142/329 498/142/329
f 353/172/456 334/272/456 351/50/456
f 516/196/286 537/196/286 538/225/286
f 519/158/289 544/191/289 541/67/289
f 326/216/278 495/230/278 492/47/278
f 440/88/360 363/175/360 375/29/360
f 524/215/290 527/162/290 559/183/290
f 521/246/290 493/65/290 394/64/290
f 517/269/278 514/253/278 324/48/278
f 443/167/289 385/266/289 318/168/289
f 531/123/329 503/123/329 532/198/329
f 534/241/278 537/240/278 527/162/278
f 535/161/278 534/241/278 527/162/278
f 454/212/457 457/211/457 496/229/457
f 455/106/458 497/53/458 456/79/458
f 551/184/329 558/162/329 521/184/329
f 504/198/459 503/123/459 509/122/459
f 362/271/290 376/266/290 320/168/290
f 412/153/338 416/174/338 417/74/338
f 520/191/286 499/81/286 544/191/286
f 556/121/329 525/121/329 498/142/329
f 518/67/460 515/66/460 519/158/460
f 501/56/461 528/56/461 530/148/461
f 502/148/461 501/56/461 530/148/461
f 326/216/278 492/47/278 511/141/278
f 407/111/462 403/110/462 367/91/462
f 532/276/278 535/161/278 531/160/278
f 507/277/278 508/217/278 511/141/278
f 457/211/301 481/77/301 456/79/301
f 548/274/347 559/183/347 551/184/347
f 509/122/352 327/156/352 504/198/352
f 356/271/289 372/273/289 318/168/289
f 489/210/278 513/233/278 517/269/278
f 347/7/463 451/204/463 419/177/463
f 322/155/278 330/249/278 335/222/278
f 553/189/426 559/183/426 548/274/426
