v -0.226923 -0.346409 0.048209
v -0.226923 -0.346409 0.077411
v -0.226923 0.346409 0.077411
v -0.226923 0.346409 0.048209
v 0.226923 0.346409 0.077411
v 0.226923 0.346409 0.048209
v 0.226923 -0.346409 0.077411
v 0.226923 -0.346409 0.048209
v 0.226923 -0.125545 0.077411
v 0.226923 0.126231 0.077411
v 0.226923 -0.125545 0.048209
v 0.226923 0.126231 0.048209
v 0.226923 -0.081261 0.077411
v 0.226923 0.081261 0.077411
v 0.226923 -0.081261 0.048209
v 0.226923 0.081261 0.048209
v 0.237214 -0.122539 0.075429
v 0.237214 0.123179 0.075429
v 0.237214 -0.122539 0.050191
v 0.237214 0.123179 0.050191
v 0.237214 -0.084267 0.075429
v 0.237214 0.084313 0.075429
v 0.237214 -0.084267 0.050191
v 0.237214 0.084313 0.050191
v 0.271967 -0.099007 0.071721
v 0.271967 0.099528 0.071721
v 0.271967 -0.099007 0.053899
v 0.271967 0.099528 0.053899
v 0.271967 -0.076113 0.071721
v 0.271967 0.076279 0.071721
v 0.271967 -0.076113 0.053899
v 0.271967 0.076279 0.053899
v 0.316436 -0.055063 0.068420
v 0.316612 0.055406 0.068420
v 0.316436 -0.055063 0.057200
v 0.316612 0.055406 0.057200
v 0.293684 -0.055063 0.068420
v 0.293507 0.055406 0.068420
v 0.293684 -0.055063 0.057200
v 0.293507 0.055406 0.057200
v 0.226923 0.103746 0.087059
v 0.226923 0.103746 0.038561
v 0.226923 -0.103403 0.087059
v 0.226923 -0.103403 0.038561
v 0.237214 0.103746 0.083767
v 0.237214 0.103746 0.041853
v 0.237214 -0.103403 0.083767
v 0.237214 -0.103403 0.041853
v 0.271967 0.087903 0.077610
v 0.271967 0.087903 0.048010
v 0.271967 -0.087560 0.077610
v 0.271967 -0.087560 0.048010
v 0.305060 0.055406 0.072128
v 0.305060 0.055406 0.053492
v 0.305060 -0.055063 0.072128
v 0.305060 -0.055063 0.053492
v -0.209350 -0.346409 0.009521
v -0.181252 -0.309885 0.002233
v -0.209350 0.346409 0.009521
v -0.181252 0.309885 0.002233
v 0.219672 0.346409 0.009521
v 0.190456 0.309885 0.002233
v 0.219672 -0.346409 0.009521
v 0.190456 -0.309885 0.002233
v -0.220188 -0.346409 0.116099
v -0.202195 -0.309885 0.123387
v -0.220188 0.346409 0.116099
v -0.202194 0.309885 0.123387
v 0.219672 0.346409 0.116099
v 0.190456 0.309885 0.123387
v 0.219672 -0.346409 0.116099
v 0.190456 -0.309885 0.123387
v 0.219672 0.126231 0.116099
v 0.219672 -0.125545 0.116099
v 0.219672 -0.125545 0.009521
v 0.219672 0.126231 0.009521
v 0.219672 0.081261 0.116099
v 0.219672 -0.081261 0.116099
v 0.219672 -0.081261 0.009521
v 0.219672 0.081261 0.009521
v 0.219672 -0.103403 0.116099
v 0.219672 0.103746 0.009521
v 0.219672 0.103746 0.116099
v 0.219672 -0.103403 0.009521
v -0.126498 0.346409 0.117928
v -0.126498 0.309885 0.125085
v 0.126498 0.309885 0.125085
v 0.126498 0.346409 0.117928
v 0.126498 0.346409 0.007692
v 0.126498 0.309885 0.000535
v -0.126498 0.309885 0.000535
v -0.126498 0.346409 0.007692
v 0.126498 -0.346409 0.117928
v 0.126498 -0.309885 0.125085
v -0.126498 -0.309885 0.125085
v -0.126498 -0.346409 0.117928
v -0.126498 -0.346409 0.007692
v -0.126498 -0.309885 0.000535
v 0.126498 -0.309885 0.000535
v 0.126498 -0.346409 0.007692
v 0.226282 0.200274 0.050997
v 0.226282 0.277817 0.050997
v 0.235979 0.271254 0.052981
v 0.235979 0.206837 0.052981
v 0.226282 0.200274 0.074432
v 0.226282 0.277817 0.074432
v 0.235979 0.271254 0.072449
v 0.235979 0.206837 0.072449
v 0.226282 -0.269656 0.050997
v 0.226282 -0.192113 0.050997
v 0.235979 -0.198676 0.052981
v 0.235979 -0.263093 0.052981
v 0.226282 -0.269656 0.074432
v 0.226282 -0.192113 0.074432
v 0.235979 -0.198676 0.072449
v 0.235979 -0.263093 0.072449
vt 0.353438 0.521023
vt 0.353438 0.494315
vt 0.521358 0.494315
vt 0.023944 0.516567
vt 0.023944 0.492001
vt 0.296880 0.516567
vt 0.967101 0.948191
vt 0.967101 0.966990
vt 0.918780 0.953999
vt 0.554084 0.016615
vt 0.554084 0.111520
vt 0.039666 0.016616
vt 0.521358 0.541181
vt 0.521358 0.567888
vt 0.353438 0.541181
vt 0.774744 0.950517
vt 0.774744 0.966215
vt 0.797798 0.953999
vt 0.918780 0.965834
vt 0.954370 0.976131
vt 0.941640 0.966990
vt 0.918780 0.972674
vt 0.353437 0.567888
vt 0.381899 0.566960
vt 0.400864 0.566960
vt 0.555764 0.601442
vt 0.990267 0.407575
vt 0.804738 0.407575
vt 0.922076 0.522470
vt 0.042468 0.541181
vt 0.042468 0.521023
vt 0.192372 0.521023
vt 0.769106 0.944516
vt 0.769106 0.972216
vt 0.765814 0.946607
vt 0.749671 0.966215
vt 0.749671 0.950517
vt 0.797798 0.965834
vt 0.762207 0.944306
vt 0.797798 0.950088
vt 0.797798 0.967791
vt 0.765814 0.970126
vt 0.720608 0.964078
vt 0.720608 0.944516
vt 0.723900 0.961987
vt 0.042468 0.494315
vt 0.192372 0.494315
vt 0.339053 0.514362
vt 0.339053 0.494315
vt 0.039666 0.111520
vt 0.807816 0.522470
vt 0.872929 0.522470
vt 0.950439 0.970901
vt 0.950439 0.944281
vt 0.941640 0.948191
vt 0.872930 0.003233
vt 0.804738 0.118128
vt 0.990267 0.118128
vt 0.987190 0.522470
vt 0.954370 0.943958
vt 0.971721 0.940199
vt 0.967101 0.947553
vt 0.339053 0.567888
vt 0.324669 0.567888
vt 0.339053 0.547841
vt 0.521358 0.521023
vt 0.947096 0.972991
vt 0.947096 0.942191
vt 0.296880 0.492001
vt 0.744857 0.982393
vt 0.206536 0.514362
vt 0.206536 0.494315
vt 0.220701 0.494315
vt 0.220701 0.521023
vt 0.324669 0.494315
vt 0.762207 0.968764
vt 0.744857 0.978921
vt 0.555764 0.901138
vt 0.555764 0.989330
vt 0.033028 0.989330
vt 0.033028 0.901138
vt 0.296880 0.535109
vt 0.922076 0.003233
vt 0.229427 0.471134
vt 0.211049 0.471134
vt 0.039666 0.434028
vt 0.324669 0.541181
vt 0.220701 0.541181
vt 0.324669 0.521023
vt 0.744857 0.934339
vt 0.731459 0.963690
vt 0.734751 0.961600
vt 0.723900 0.946607
vt 0.982006 0.944516
vt 0.980456 0.967178
vt 0.977114 0.965088
vt 0.971721 0.938189
vt 0.996346 0.944080
vt 0.993003 0.945290
vt 0.971721 0.983168
vt 0.954370 0.973202
vt 0.918780 0.950088
vt 0.918780 0.979998
vt 0.797798 0.979998
vt 0.797798 0.973158
vt 0.033028 0.601442
vt 0.002222 0.566961
vt 0.188507 0.566961
vt 0.918780 0.969709
vt 0.967101 0.970866
vt 0.192372 0.541181
vt 0.554084 0.368949
vt 0.978664 0.946607
vt 0.947096 0.944080
vt 0.950439 0.945290
vt 0.192671 0.471134
vt 0.744857 0.937811
vt 0.971721 0.979696
vt 0.993003 0.970901
vt 0.761908 0.967196
vt 0.967489 0.972029
vt 0.954370 0.941980
vt 0.023944 0.559675
vt 0.023944 0.535109
vt 0.009350 0.471134
vt 0.362934 0.566960
vt 0.918780 0.973158
vt 0.207182 0.566961
vt 0.987190 0.003233
vt 0.807816 0.003233
vt 0.555764 0.661918
vt 0.586570 0.566960
vt 0.977501 0.970126
vt 0.192372 0.567888
vt 0.042468 0.567888
vt 0.296880 0.559675
vt 0.033028 0.661918
vt 0.039666 0.368949
vt 0.225857 0.566961
vt 0.220701 0.567888
vt 0.206536 0.567888
vt 0.206536 0.547841
vt 0.586570 0.996095
vt 0.002222 0.996096
vt 0.996346 0.972991
vt 0.586570 0.661918
vt 0.584400 0.009335
vt 0.584400 0.111520
vt 0.554084 0.434027
vt 0.401649 0.471134
vt 0.382986 0.471134
vt 0.002222 0.901138
vt 0.009350 0.368949
vt 0.364323 0.471134
vt 0.941640 0.947553
vt 0.009351 0.009335
vt 0.584400 0.471134
vt 0.586570 0.901138
vt 0.584400 0.368949
vt 0.002222 0.661918
vt 0.009350 0.111520
vt 0.925759 0.849384
vt 0.917579 0.845914
vt 0.917579 0.811856
vt 0.837289 0.845914
vt 0.837289 0.811856
vt 0.829108 0.849384
vt 0.829108 0.808386
vt 0.925759 0.808386
vt 0.996071 0.849384
vt 0.987891 0.845914
vt 0.987891 0.811856
vt 0.907601 0.845914
vt 0.907601 0.811856
vt 0.899421 0.849384
vt 0.899421 0.808386
vt 0.996071 0.808386
vn 0.888900 0.342800 -0.303800
vn 0.721600 0.009600 -0.692300
vn 0.542400 0.608500 -0.579100
vn -0.732100 0.662400 -0.158500
vn -0.462400 0.624000 -0.629800
vn -0.732100 -0.662400 -0.158500
vn 0.582000 0.672200 -0.457600
vn 0.582000 0.672200 0.457600
vn 0.795900 0.310300 -0.519800
vn -0.116500 0.065600 -0.991000
vn -0.015400 0.096500 -0.995200
vn -0.116500 -0.065600 -0.991000
vn 0.723700 0.686800 0.067200
vn 0.542400 0.608500 0.579100
vn 0.888900 0.342800 0.303800
vn -0.364600 0.751900 -0.549300
vn -0.364600 0.751900 0.549300
vn -0.688000 0.386000 -0.614500
vn -0.686100 -0.386800 -0.616100
vn -0.686100 -0.386800 0.616100
vn 0.236500 0.026600 0.971300
vn -0.361500 -0.750500 0.553100
vn 0.084500 0.034500 0.995800
vn 0.721600 0.009600 0.692300
vn 0.707000 0.000000 0.707200
vn 0.109900 0.066300 0.991700
vn -0.006900 0.769900 0.638100
vn -0.008800 0.769100 -0.639000
vn -0.722800 0.688200 0.062400
vn 0.723700 -0.686800 0.067200
vn 0.723700 -0.686800 -0.067200
vn 0.887900 -0.345100 -0.304200
vn 0.887900 0.345100 -0.304200
vn 0.887900 0.345100 0.304200
vn 0.110300 0.811700 -0.573500
vn 0.581800 -0.674200 0.454800
vn 0.581800 -0.674200 -0.454800
vn 0.796300 -0.311700 0.518400
vn 0.237000 -0.026400 -0.971100
vn 0.085400 -0.035700 -0.995700
vn -0.688000 0.386000 0.614500
vn 0.085400 -0.035700 0.995700
vn 0.110300 0.811700 0.573500
vn 0.887900 -0.345100 0.304200
vn 0.422900 -0.770700 0.476700
vn 0.542400 -0.608500 -0.579100
vn 0.721500 -0.009600 -0.692300
vn 0.811500 0.000000 -0.584400
vn 0.707000 0.000000 -0.707200
vn -0.015400 -0.096500 -0.995200
vn 0.114000 -0.809400 0.576000
vn 0.114000 -0.809400 -0.576000
vn -0.361500 -0.750500 -0.553100
vn 0.723700 0.686800 -0.067200
vn 0.007700 0.769500 -0.638500
vn 0.007700 0.769500 0.638500
vn -0.546900 -0.615200 0.567800
vn -0.722800 -0.688200 0.062400
vn -0.006900 -0.769900 0.638100
vn 0.236500 0.026600 -0.971300
vn 0.270600 0.047500 -0.961500
vn 0.721600 -0.009600 0.692300
vn 0.811500 0.000000 0.584400
vn 0.888900 -0.342800 0.303800
vn 0.888900 -0.342800 -0.303800
vn -0.462400 -0.624000 -0.629800
vn 0.812600 0.000000 0.582900
vn 0.812600 0.000000 -0.582900
vn 0.721500 0.009600 -0.692300
vn 0.721600 -0.009600 -0.692300
vn 0.237000 -0.026400 0.971100
vn 0.270900 -0.048000 0.961400
vn -0.011100 0.096500 0.995200
vn -0.174900 0.062100 0.982600
vn -0.174900 -0.062100 0.982600
vn -0.011100 -0.096500 0.995200
vn 0.007700 -0.769500 -0.638500
vn 0.109900 -0.066300 -0.991700
vn 0.422900 -0.770700 -0.476700
vn 0.425200 0.768200 0.478600
vn 0.425200 0.768200 -0.478600
vn 0.084500 0.034500 -0.995800
vn 0.796300 -0.311700 -0.518400
vn 0.795900 0.310300 0.519800
vn -0.008800 -0.769100 -0.639000
vn 0.007700 -0.769500 0.638500
vn 0.109900 -0.066300 0.991700
vn 0.542400 -0.608500 0.579100
vn 0.721500 -0.009600 0.692300
vn 0.013200 0.096500 -0.995200
vn 0.270900 -0.048000 -0.961400
vn 0.270600 0.047500 0.961500
vn -0.546900 0.615200 0.567800
vn 0.013200 0.096500 0.995200
vn 0.013200 -0.096500 0.995200
vn 0.013200 -0.096500 -0.995200
vn 0.721500 0.009600 0.692300
vn 0.109900 0.066300 -0.991700
vn 0.545700 0.644500 0.535400
vn 0.758700 0.366900 0.538300
vn 0.758700 0.366900 -0.538300
vn 0.758700 -0.366900 0.538300
vn 0.758700 -0.366900 -0.538300
vn 0.545700 -0.644500 0.535400
vn 0.545700 -0.644500 -0.535400
vn 0.545700 0.644500 -0.535400
s 1
f 12/1/1 76/2/2 61/3/3
f 4/4/4 59/5/5 1/6/6
f 28/7/7 26/8/8 36/9/9
f 60/10/10 91/11/11 58/12/12
f 5/13/13 69/14/14 10/15/15
f 31/16/16 29/17/17 39/18/18
f 40/9/19 39/18/18 38/19/20
f 49/20/21 30/21/22 53/22/23
f 69/14/14 73/23/24 10/15/15
f 83/24/25 73/25/24 70/26/26
f 85/27/27 92/28/28 3/29/29
f 7/30/30 8/31/31 11/32/32
f 15/33/33 13/34/34 23/35/35
f 25/36/36 27/37/37 33/38/38
f 52/39/39 31/16/16 56/40/40
f 37/38/41 29/17/17 55/41/42
f 23/35/35 21/42/43 31/16/16
f 9/43/44 11/44/32 17/45/45
f 8/31/31 63/46/46 75/47/47
f 42/48/48 82/49/49 76/2/2
f 91/11/11 98/50/50 58/12/12
f 59/51/5 4/52/4 92/28/28
f 22/53/51 24/54/52 30/21/22
f 30/21/22 32/55/53 38/19/20
f 6/56/54 89/57/55 88/58/56
f 65/59/57 2/29/58 96/27/59
f 50/60/60 46/61/61 28/62/7
f 83/63/25 77/64/62 41/65/63
f 10/15/15 12/1/1 6/66/54
f 14/67/64 16/68/65 24/54/52
f 59/5/5 57/69/66 1/6/6
f 5/13/13 10/15/15 6/66/54
f 13/34/34 43/70/67 21/42/43
f 44/71/68 84/72/49 79/73/69
f 15/74/33 79/73/69 80/75/70
f 2/29/58 1/52/6 96/27/59
f 85/27/27 88/58/56 89/57/55
f 51/76/71 47/77/72 25/36/36
f 86/78/73 68/79/74 66/80/75
f 95/81/76 86/78/73 66/80/75
f 4/4/4 1/6/6 2/82/58
f 100/57/77 8/56/31 7/83/30
f 79/84/69 84/85/49 64/86/78
f 77/64/62 14/87/64 41/65/63
f 13/34/34 21/42/43 23/35/35
f 13/88/34 15/74/33 16/89/65
f 24/54/52 32/55/53 30/21/22
f 21/42/43 29/17/17 31/16/16
f 44/90/68 15/33/33 23/35/35
f 43/70/67 9/91/44 17/92/45
f 11/44/32 19/93/79 17/45/45
f 12/94/1 10/95/15 18/96/80
f 42/97/48 12/98/1 20/99/81
f 41/100/63 14/67/64 22/53/51
f 32/55/53 40/9/19 38/19/20
f 29/17/17 37/38/41 39/18/18
f 23/35/35 31/16/16 52/39/39
f 47/77/72 17/92/45 25/36/36
f 19/93/79 27/37/37 25/36/36
f 18/96/80 26/8/8 28/7/7
f 46/61/61 20/99/81 28/62/7
f 22/53/51 30/21/22 49/101/21
f 54/102/82 56/40/40 39/18/18
f 33/38/38 35/18/83 36/9/9
f 31/16/16 39/18/18 56/40/40
f 25/36/36 33/38/38 55/41/42
f 27/37/37 35/18/83 33/38/38
f 26/8/8 34/19/84 36/9/9
f 28/7/7 36/9/9 54/102/82
f 30/21/22 38/19/20 53/22/23
f 39/18/18 37/38/41 38/19/20
f 53/103/23 55/104/42 33/105/38
f 97/28/85 100/57/77 93/58/86
f 7/83/30 93/58/86 100/57/77
f 42/48/48 16/89/65 80/75/70
f 72/106/87 71/107/88 74/108/89
f 34/109/84 26/110/8 53/22/23
f 9/111/44 7/30/30 11/32/32
f 91/11/11 90/112/90 98/50/50
f 73/23/24 83/63/25 41/65/63
f 51/76/71 25/36/36 55/41/42
f 44/71/68 11/32/32 75/47/47
f 20/113/81 18/96/80 28/7/7
f 16/114/65 42/97/48 24/115/52
f 84/85/49 75/116/47 64/86/78
f 46/61/61 42/97/48 20/99/81
f 44/90/68 48/117/91 19/93/79
f 43/70/67 47/77/72 21/42/43
f 42/97/48 46/61/61 24/115/52
f 41/100/63 45/118/92 18/119/80
f 48/117/91 52/39/39 27/37/37
f 21/120/43 47/77/72 51/76/71
f 24/115/52 46/61/61 50/60/60
f 45/118/92 49/101/21 26/121/8
f 35/18/83 56/40/40 54/102/82
f 27/37/37 52/39/39 56/40/40
f 29/17/17 51/76/71 55/41/42
f 32/55/53 50/122/60 54/102/82
f 26/110/8 49/20/21 53/22/23
f 37/105/41 55/104/42 53/103/23
f 67/123/93 3/124/29 2/82/58
f 4/52/4 3/29/29 92/28/28
f 75/116/47 63/125/46 64/86/78
f 83/24/25 70/26/26 77/126/62
f 38/127/20 37/105/41 53/103/23
f 74/108/89 81/128/25 72/106/87
f 17/45/45 19/93/79 25/36/36
f 7/83/30 71/129/88 93/58/86
f 63/130/46 8/56/31 100/57/77
f 40/9/19 54/102/82 39/18/18
f 40/9/19 32/55/53 54/102/82
f 50/122/60 28/7/7 54/102/82
f 70/26/26 87/131/94 72/106/87
f 6/66/54 12/1/1 61/3/3
f 69/132/14 70/26/26 73/25/24
f 10/15/15 73/23/24 41/65/63
f 11/32/32 8/31/31 75/47/47
f 88/58/56 5/83/13 6/56/54
f 18/133/80 45/118/92 26/121/8
f 74/134/89 71/135/88 7/30/30
f 16/89/65 15/74/33 80/75/70
f 34/127/84 53/103/23 33/105/38
f 65/136/57 67/123/93 2/82/58
f 87/131/94 94/137/95 72/106/87
f 90/112/90 99/138/96 98/50/50
f 72/106/87 78/139/97 70/26/26
f 97/28/85 96/27/59 1/52/6
f 45/118/92 41/100/63 22/53/51
f 87/131/94 86/78/73 95/81/76
f 78/140/97 81/141/25 43/142/67
f 67/143/93 65/144/57 66/80/75
f 29/17/17 21/120/43 51/76/71
f 78/139/97 77/126/62 70/26/26
f 77/64/62 78/140/97 13/88/34
f 35/18/83 27/37/37 56/40/40
f 45/118/92 22/53/51 49/101/21
f 1/52/6 57/51/66 97/28/85
f 74/134/89 9/111/44 43/142/67
f 72/106/87 81/128/25 78/139/97
f 10/145/15 41/100/63 18/119/80
f 48/117/91 44/90/68 23/35/35
f 70/26/26 69/132/14 88/146/56
f 60/10/10 59/147/5 92/148/28
f 62/149/98 76/150/2 82/151/49
f 82/49/49 42/48/48 80/75/70
f 66/80/75 65/144/57 96/152/59
f 64/86/78 63/125/46 100/153/77
f 12/1/1 42/48/48 76/2/2
f 36/9/9 35/18/83 54/102/82
f 22/53/51 14/67/64 24/54/52
f 64/86/78 62/149/98 79/84/69
f 47/77/72 43/70/67 17/92/45
f 11/44/32 44/90/68 19/93/79
f 90/112/90 62/149/98 64/86/78
f 84/72/49 44/71/68 75/47/47
f 6/56/54 61/130/3 89/57/55
f 82/151/49 80/154/70 62/149/98
f 34/19/84 33/38/38 36/9/9
f 19/93/79 48/117/91 27/37/37
f 3/29/29 67/59/93 85/27/27
f 9/111/44 74/134/89 7/30/30
f 14/87/64 13/88/34 16/89/65
f 69/129/14 5/83/13 88/58/56
f 32/155/53 24/115/52 50/60/60
f 58/12/12 57/156/66 59/147/5
f 3/124/29 4/4/4 2/82/58
f 93/58/86 96/27/59 97/28/85
f 61/157/3 76/150/2 62/149/98
f 15/74/33 44/71/68 79/73/69
f 20/113/81 12/94/1 18/96/80
f 80/154/70 79/84/69 62/149/98
f 68/79/74 86/78/73 85/158/27
f 87/131/94 88/146/56 85/158/27
f 62/149/98 90/112/90 89/159/55
f 91/11/11 92/148/28 89/159/55
f 72/106/87 94/137/95 93/160/86
f 95/81/76 96/152/59 93/160/86
f 58/12/12 98/50/50 97/161/85
f 99/138/96 100/153/77 97/161/85
f 89/57/55 92/28/28 85/27/27
f 106/162/99 107/163/100 103/164/101
f 108/165/102 104/166/103 103/164/101
f 105/167/104 101/168/105 104/166/103
f 102/169/106 103/164/101 104/166/103
f 107/163/100 106/162/99 105/167/104
f 114/170/99 115/171/100 111/172/101
f 116/173/102 112/174/103 111/172/101
f 113/175/104 109/176/105 112/174/103
f 110/177/106 111/172/101 112/174/103
f 116/173/102 115/171/100 114/170/99
f 48/117/91 23/35/35 52/39/39
f 94/137/95 87/131/94 95/81/76
f 13/88/34 78/140/97 43/142/67
f 68/79/74 67/143/93 66/80/75
f 14/87/64 77/64/62 13/88/34
f 81/141/25 74/134/89 43/142/67
f 87/131/94 70/26/26 88/146/56
f 91/11/11 60/10/10 92/148/28
f 95/81/76 66/80/75 96/152/59
f 99/138/96 64/86/78 100/153/77
f 99/138/96 90/112/90 64/86/78
f 60/10/10 58/12/12 59/147/5
f 67/143/93 68/79/74 85/158/27
f 86/78/73 87/131/94 85/158/27
f 61/157/3 62/149/98 89/159/55
f 90/112/90 91/11/11 89/159/55
f 71/107/88 72/106/87 93/160/86
f 94/137/95 95/81/76 93/160/86
f 57/156/66 58/12/12 97/161/85
f 98/50/50 99/138/96 97/161/85
f 102/169/106 106/162/99 103/164/101
f 107/163/100 108/165/102 103/164/101
f 108/165/102 105/167/104 104/166/103
f 101/168/105 102/169/106 104/166/103
f 108/165/102 107/163/100 105/167/104
f 110/177/106 114/170/99 111/172/101
f 115/171/100 116/173/102 111/172/101
f 116/173/102 113/175/104 112/174/103
f 109/176/105 110/177/106 112/174/103
f 113/175/104 116/173/102 114/170/99
