# Blender v2.76 (sub 0) OBJ File: 'chair01.blend'
# www.blender.org
v -0.263854 -0.251647 0.000000
v -0.054791 -0.088695 0.576533
v -0.263854 0.251647 0.000000
v -0.054791 0.088695 0.576533
v 0.239441 -0.000000 0.000000
v 0.063524 0.000000 0.499735
v 0.450702 0.031081 0.632066
v 0.450702 -0.031081 0.632066
v 0.440294 -0.000000 0.583744
v -0.070087 -0.349335 0.568282
v -0.036673 -0.349335 0.619382
v -0.070087 0.349335 0.568282
v -0.036673 0.349335 0.619382
v 0.489357 -0.275481 0.636137
v 0.489357 -0.275481 0.682675
v 0.489357 0.275481 0.636137
v 0.489357 0.275481 0.682675
v -0.267710 0.367289 0.785246
v -0.267710 -0.367289 0.785246
v -0.212550 -0.367289 0.811421
v -0.212550 0.367289 0.811421
v -0.444979 0.181964 1.660162
v -0.444979 -0.181965 1.660162
v -0.404151 -0.181965 1.666072
v -0.404151 0.181964 1.666072
vt 0.839160 0.994965
vt 0.668746 0.994965
vt 0.512203 0.511464
vt 0.608929 0.021891
vt 0.712766 0.182476
vt 0.771530 0.161085
vt 0.958663 0.184485
vt 0.963832 0.197944
vt 0.414637 0.061216
vt 0.250697 0.143186
vt 0.414637 0.225157
vt 0.634411 0.247901
vt 0.607014 0.240611
vt 0.518969 0.484306
vt 0.004682 0.337164
vt 0.001744 0.267357
vt 0.121971 0.267357
vt 0.721765 0.194411
vt 0.983031 0.212041
vt 0.983031 0.199078
vt 0.705169 0.180178
vt 0.119033 0.337164
vt 0.106945 0.498069
vt 0.023184 0.516442
vt 0.478262 0.516442
vt 0.489956 0.611517
vt 0.539247 0.485952
vt 0.032076 0.001536
vt 0.091640 0.001536
vt 0.369245 0.994909
vt 0.132200 0.994909
vt 0.995703 0.511464
vt 0.858904 0.021891
vt 0.016770 0.498069
vt 0.011489 0.611517
vn -0.940100 0.000000 0.340900
vn 0.602700 0.797900 0.007000
vn 0.977600 0.000000 -0.210600
vn 0.602700 -0.797900 0.007000
vn 0.000000 0.000000 -1.000000
vn 0.156000 0.757200 -0.634200
vn 0.123900 -0.822200 -0.555500
vn -0.089700 0.977900 0.189000
vn 0.737500 0.000000 0.675400
vn 0.139000 0.990300 0.000000
vn 1.000000 0.000000 0.000000
vn 0.139000 -0.990300 0.000000
vn 0.120400 0.000000 -0.992700
vn -0.119500 0.000000 0.992800
vn -0.739300 0.000000 -0.673400
vn 0.027400 0.998000 -0.057700
vn 0.059400 -0.997500 -0.038800
vn -0.143300 0.000000 0.989700
vn -0.029700 -0.978200 0.205500
vn 0.975800 0.000000 0.218800
vn -0.980100 0.000000 -0.198600
vn 0.441800 0.883500 0.155500
vn 0.441800 -0.883500 0.155500
vn 0.123900 0.822200 -0.555500
vn 0.156000 -0.757200 -0.634200
vn -0.029700 0.978200 0.205500
vn 0.141300 0.985600 -0.092400
vn 0.141300 -0.985600 -0.092400
vn 0.059400 0.997500 -0.038800
vn 0.027400 -0.998000 -0.057700
vn -0.089700 -0.977900 0.189000
s off
f 2/1/1 4/2/1 3/3/1
f 3/4/2 4/5/2 6/6/2
f 9/7/3 7/8/3 8/8/3
f 6/6/4 2/5/4 1/4/4
f 3/9/5 5/10/5 1/11/5
f 6/6/6 4/5/6 7/8/6
f 6/6/7 9/7/7 8/8/7
f 21/12/8 18/13/8 22/14/8
f 13/15/9 21/16/9 20/17/9
f 13/18/10 17/19/10 16/20/10
f 17/19/11 15/19/11 14/20/11
f 14/20/12 15/19/12 11/18/12
f 16/20/13 14/20/13 10/21/13
f 13/15/14 11/22/14 15/23/14
f 12/24/15 10/25/15 19/26/15
f 12/21/16 18/13/16 21/12/16
f 10/21/17 11/18/17 20/12/17
f 24/27/18 25/27/18 22/14/18
f 20/12/19 24/27/19 23/14/19
f 21/16/20 25/28/20 24/29/20
f 19/26/21 23/30/21 22/31/21
f 1/32/1 2/1/1 3/3/1
f 5/33/22 3/4/22 6/6/22
f 5/33/23 6/6/23 1/4/23
f 9/7/24 6/6/24 7/8/24
f 2/5/25 6/6/25 8/8/25
f 25/27/26 21/12/26 22/14/26
f 11/22/9 13/15/9 20/17/9
f 12/21/27 13/18/27 16/20/27
f 16/20/11 17/19/11 14/20/11
f 10/21/28 14/20/28 11/18/28
f 12/21/13 16/20/13 10/21/13
f 17/34/14 13/15/14 15/23/14
f 18/35/15 12/24/15 19/26/15
f 13/18/29 12/21/29 21/12/29
f 19/13/30 10/21/30 20/12/30
f 23/14/18 24/27/18 22/14/18
f 19/13/31 20/12/31 23/14/31
f 20/17/20 21/16/20 24/29/20
f 18/35/21 19/26/21 22/31/21
