v 0.360226 0.459982 -0.001714
v -0.360226 0.459982 -0.001714
v -0.372432 0.099756 -0.001714
v -0.297945 -0.548651 -0.001714
v -0.238314 -0.764787 -0.001714
v 0.238314 -0.764787 -0.001714
v 0.297945 -0.548651 -0.001714
v 0.372432 0.099756 -0.001714
v -0.288181 0.240037 1.439190
v 0.288181 0.240037 1.439190
v -0.324203 0.207824 0.862828
v 0.324203 0.207824 0.862828
v 0.360226 0.207824 0.574647
v -0.360226 0.207824 0.574647
v -0.360226 0.207824 0.502602
v 0.360226 0.207824 0.502602
v -0.360226 0.207824 -0.001714
v 0.360226 0.207824 -0.001714
v 0.360226 0.207824 0.442896
v -0.288181 -0.523648 0.532333
v -0.360226 0.099756 0.501955
v 0.288181 -0.523648 0.532333
v 0.268802 -0.571228 0.546702
v -0.268803 -0.571228 0.546702
v 0.360226 0.099756 0.501955
v -0.360226 0.207824 0.442896
v -0.297945 -0.548651 0.178028
v 0.360226 0.207824 0.178028
v 0.297945 -0.548651 0.178028
v 0.372432 0.099756 0.178028
v -0.372432 0.099756 0.178028
v -0.360226 0.207824 0.178028
v 0.289350 -0.598531 0.179641
v 0.275672 -0.623704 0.215602
v 0.275672 -0.598701 0.312195
v -0.289350 -0.598532 0.179641
v -0.275672 -0.623704 0.215602
v -0.275672 -0.598701 0.312195
v 0.279581 0.207824 0.178028
v 0.279581 0.207824 0.442896
v -0.279581 0.099756 0.178028
v -0.279581 0.099756 0.501955
v 0.223664 -0.548651 0.178028
v 0.223664 -0.523648 0.532334
v -0.279581 0.207824 0.442896
v 0.279581 0.099756 0.501955
v -0.223665 -0.523648 0.532333
v -0.223665 -0.548651 0.178028
v 0.279581 0.099756 0.178028
v -0.279581 0.207824 0.178028
v 0.217212 -0.598531 0.179641
v 0.213956 -0.623704 0.215602
v 0.213956 -0.598701 0.312195
v -0.217212 -0.598532 0.179641
v -0.213956 -0.623704 0.215602
v -0.213956 -0.598701 0.312195
v 0.268317 0.164100 1.418429
v 0.288181 0.189294 1.439190
v -0.268317 0.164100 1.418429
v -0.288181 0.189294 1.439190
v -0.336388 0.094633 0.595139
v -0.360226 0.126716 0.551988
v -0.336631 0.078666 0.575819
v 0.336388 0.094633 0.595139
v 0.336631 0.078666 0.575819
v 0.360226 0.126716 0.551988
v -0.301744 0.031603 0.883588
v -0.324203 0.049013 0.862828
v -0.305488 0.032833 0.842337
v 0.324203 0.049013 0.862828
v 0.301744 0.031603 0.883588
v 0.305488 0.032833 0.842337
v -0.271232 -0.555805 0.589974
v -0.254489 -0.527562 0.609498
v 0.254489 -0.527562 0.609498
v 0.271614 -0.555853 0.590264
v 0.208127 -0.764787 -0.001714
v -0.212780 -0.764787 -0.001714
v 0.251678 0.240037 1.439190
v -0.257304 0.240037 1.439190
v 0.283138 0.214970 0.862828
v -0.289467 0.214970 0.862828
v 0.234754 -0.571228 0.546702
v -0.240002 -0.571228 0.546702
v -0.239568 0.164100 1.418429
v 0.234330 0.164100 1.418429
v 0.251678 0.189294 1.439190
v -0.257304 0.189294 1.439190
v 0.263523 0.031603 0.883588
v -0.269414 0.031603 0.883588
v -0.272757 0.032833 0.842337
v 0.266793 0.032833 0.842337
v -0.300564 0.078666 0.575819
v 0.293991 0.078666 0.575819
v 0.293779 0.094633 0.595139
v -0.300346 0.094633 0.595139
v 0.222253 -0.527562 0.621161
v -0.227222 -0.527562 0.621161
v -0.242151 -0.555807 0.589989
v 0.237234 -0.555850 0.590245
v 0.318603 0.214970 0.502602
v 0.318603 0.467128 -0.001714
v 0.318603 0.214970 0.575405
v -0.322092 0.214970 0.502602
v -0.322093 0.467128 -0.001714
v -0.322093 0.214970 0.570036
v 0.318603 0.428225 0.076092
v -0.322093 0.428225 0.076092
v 0.254367 0.240037 1.389929
v -0.260053 0.240037 1.389929
v 0.259327 0.177629 0.845632
v -0.265504 0.177629 0.845632
v -0.238544 0.209843 1.342467
v 0.232956 0.209843 1.342467
v 0.291833 0.177629 0.574713
v 0.291833 0.177629 0.506091
v -0.295407 0.177629 0.506091
v -0.295407 0.177629 0.569653
v 0.291833 0.390885 0.104071
v -0.295407 0.390885 0.104071
v -0.306192 0.207824 1.151009
v 0.306192 0.207824 1.151009
v -0.285030 0.081745 1.151009
v -0.306192 0.103047 1.151009
v 0.285030 0.081744 1.151009
v 0.306192 0.103047 1.151009
v 0.248926 0.081745 1.151009
v -0.254491 0.081745 1.151009
v 0.267408 0.213759 1.151009
v -0.273386 0.213759 1.151008
v 0.243118 0.197429 1.151009
v -0.248933 0.197429 1.151008
v 0.067825 -0.764787 -0.001714
v -0.072478 -0.764787 -0.001714
v 0.082017 0.240037 1.439190
v -0.087644 0.240037 1.439190
v 0.076502 -0.571228 0.546702
v -0.081750 -0.571228 0.546702
v -0.081602 0.142242 1.418429
v 0.076364 0.142242 1.418429
v 0.082017 0.189294 1.439190
v -0.087644 0.189294 1.439190
v 0.085877 0.026876 0.883588
v -0.091769 0.026876 0.883588
v -0.092907 0.028107 0.842337
v 0.086943 0.028107 0.842337
v -0.102379 0.056809 0.575819
v 0.095806 0.056809 0.575819
v 0.095737 0.072775 0.595139
v -0.102305 0.072775 0.595139
v 0.072428 -0.527562 0.621161
v -0.077397 -0.527562 0.621161
v -0.082356 -0.555822 0.590075
v 0.077439 -0.555836 0.590160
v -0.088580 0.240037 1.389929
v 0.082893 0.240037 1.389929
v 0.084383 0.177629 0.845632
v -0.090560 0.177629 0.845632
v -0.081377 0.209843 1.342467
v 0.075790 0.209843 1.342467
v -0.086685 0.059887 1.151009
v 0.081121 0.059887 1.151009
v 0.079101 0.197429 1.151009
v -0.084916 0.197429 1.151008
v 0.347603 -0.116380 -0.001714
v 0.322774 -0.332515 -0.001714
v -0.322774 -0.332515 -0.001714
v -0.347603 -0.116380 -0.001714
v 0.312196 -0.315847 0.522207
v 0.336211 -0.108045 0.512081
v -0.312196 -0.315846 0.522207
v -0.336211 -0.108045 0.512081
v 0.347603 -0.116380 0.178028
v 0.322774 -0.332515 0.178028
v -0.347603 -0.116380 0.178028
v -0.322774 -0.332515 0.178028
v 0.242303 -0.315847 0.522207
v 0.260942 -0.108045 0.512081
v -0.242303 -0.315846 0.522207
v -0.260942 -0.108045 0.512081
v 0.260942 -0.116380 0.178028
v 0.242303 -0.332515 0.178028
v -0.260942 -0.116380 0.178028
v -0.242303 -0.332515 0.178028
v -0.281869 -0.325486 0.598272
v -0.309250 -0.123410 0.587045
v -0.330561 -0.100791 0.564650
v -0.300897 -0.328298 0.577312
v 0.309250 -0.123410 0.587045
v 0.281869 -0.325486 0.598272
v 0.301151 -0.328330 0.577505
v 0.330689 -0.100807 0.564746
v 0.270079 -0.123410 0.598708
v 0.246166 -0.325486 0.609934
v -0.276116 -0.123410 0.598708
v -0.251669 -0.325486 0.609934
v 0.088014 -0.145267 0.614607
v 0.080221 -0.347343 0.625833
v -0.094051 -0.145267 0.614607
v -0.085724 -0.347343 0.625833
vt 2.233368 -4.367188
vt 2.187500 -4.320312
vt 2.265564 -4.367188
vt 0.245419 0.756191
vt 0.230770 0.678061
vt 0.273826 0.678061
vt 11.832031 -10.187501
vt 11.789974 -10.187501
vt 11.775832 -10.014779
vt 11.845488 -10.603619
vt 11.851562 -10.395834
vt 11.890625 -10.604168
vt 0.342190 0.443671
vt 0.273826 0.443671
vt 0.273826 0.580399
vt 11.890625 -11.020834
vt 11.845490 -10.964586
vt 11.890625 -10.656251
vt 0.128475 0.600654
vt 0.131851 0.585714
vt 0.075513 0.588459
vt 2.194432 -3.121663
vt 2.187759 -3.121666
vt 2.188316 -3.131061
vt 11.217550 -20.461128
vt 11.183657 -20.461130
vt 11.208005 -20.680258
vt 0.273826 0.564212
vt 0.244527 0.580223
vt 0.251836 0.593788
vt 0.273826 0.756191
vt 0.190152 0.597247
vt 0.188189 0.582969
vt 2.312500 -4.136005
vt 2.312500 -4.125000
vt 2.304583 -4.125000
vt 11.168732 -5.664814
vt 11.135224 -5.934544
vt 11.174307 -5.934544
vt 0.062613 0.592355
vt 0.055165 0.528777
vt 0.010137 0.443671
vt 0.273826 0.599931
vt 0.068734 0.443671
vt 0.068734 0.492402
vt 0.055211 0.492839
vt 0.066795 0.604086
vt 0.902477 0.494149
vt 0.917924 0.258497
vt 0.835187 0.253074
vt 0.551977 0.413829
vt 0.558416 0.413114
vt 0.558416 0.415516
vt 0.539843 0.415260
vt 0.539843 0.417182
vt 0.546034 0.416627
vt 0.561636 0.434578
vt 0.558416 0.434578
vt 0.558416 0.432176
vt 0.066782 0.604165
vt 2.194925 -3.131061
vt 2.195312 -3.250000
vt 0.537607 0.415633
vt 0.537607 0.417471
vt 0.561636 0.432176
vt 0.121429 0.234803
vt 0.121429 0.080127
vt 0.342423 0.080127
vt 0.784410 0.234803
vt 0.784410 0.080127
vt 0.563417 0.080127
vt 0.894907 0.234803
vt 0.537607 0.432059
vt 0.539843 0.432432
vt 0.539843 0.430510
vt 0.894907 0.080127
vt 0.337244 0.537013
vt 0.338764 0.220534
vt 0.504238 0.231380
vt 0.816296 0.541270
vt 0.669713 0.242227
vt 0.279112 0.250197
vt 0.300482 0.219466
vt 0.292621 0.337390
vt 0.561636 0.415516
vt 0.539098 0.432432
vt 0.539098 0.430510
vt 0.545538 0.431065
vt 0.561636 0.413114
vt 0.537612 0.432184
vt 0.537612 0.430317
vt 0.537612 0.415508
vt 0.539098 0.415260
vt 0.539098 0.417182
vt 0.552225 0.433863
vt 0.536862 0.432059
vt 0.536862 0.430220
vt 0.536862 0.415633
vt 0.537612 0.417374
vt 0.537607 0.430220
vt 0.536862 0.417471
vt 11.109375 -5.956903
vt 11.134961 -5.956903
vt 11.864775 -5.934544
vt 11.865039 -5.956903
vt 11.890625 -5.956903
vt 0.958868 0.499845
vt 0.962751 0.491931
vt 0.956045 0.486718
vt 11.790958 -15.022511
vt 11.812500 -15.000000
vt 11.772916 -15.000000
vt 0.956320 0.403821
vt 11.172792 -15.602488
vt 11.168732 -15.625000
vt 11.204225 -15.624999
vt 0.963095 0.387692
vt 11.818801 -20.022869
vt 11.865040 -20.022871
vt 11.864776 -20.000000
vt 11.209042 -15.022512
vt 11.187500 -15.000000
vt 11.168098 -15.310415
vt 11.827208 -15.602488
vt 11.851302 -15.620832
vt 11.831902 -15.310415
vt 11.134961 -20.022871
vt 11.109375 -20.000000
vt 11.135416 -20.234375
vt 11.791996 -20.680256
vt 11.812500 -20.703125
vt 11.838541 -20.468750
vt 11.188792 -20.703125
vt 11.222159 -20.703125
vt 11.190918 -15.312501
vt 11.207851 -15.602489
vt 0.048386 0.502589
vt 11.809082 -15.312500
vt 11.769932 -15.312498
vt 11.785761 -15.602488
vt 11.224034 -15.312502
vt 11.400487 -15.602487
vt 11.755012 -20.680256
vt 11.772198 -20.703125
vt 11.239290 -20.680258
vt 11.405505 -20.703125
vt 11.174073 -20.022873
vt 11.174308 -20.000000
vt 11.135225 -20.000000
vt 11.818571 -20.000000
vt 11.603815 -20.000000
vt 11.789308 -15.625000
vt 11.399252 -15.624998
vt 11.240217 -15.022514
vt 11.220980 -15.000000
vt 11.754105 -15.022512
vt 11.588937 -14.999998
vt 2.303871 -3.131061
vt 2.297760 -3.250000
vt 2.304688 -3.250000
vt 2.231240 -3.131060
vt 2.201172 -3.250000
vt 11.831267 -5.664814
vt 11.789307 -5.664814
vt 11.818569 -5.934544
vt 11.204225 -5.664814
vt 11.389061 -5.934544
vt 2.194196 -4.136005
vt 2.194196 -4.125000
vt 2.187500 -4.125000
vt 2.304584 -4.136005
vt 2.267787 -4.125000
vt 11.776274 -20.461126
vt 11.403791 -20.461126
vt 2.304440 -3.121616
vt 2.311684 -3.131061
vt 2.231101 -3.121647
vt 11.218001 -10.014779
vt 11.203543 -10.187500
vt 11.167969 -10.187501
vt 11.772916 -9.979167
vt 11.589888 -10.014779
vt 11.845489 -10.656251
vt 11.150727 -10.964585
vt 11.109375 -11.020834
vt 11.109375 -10.656251
vt 11.150726 -10.607501
vt 11.109375 -10.604168
vt 11.148438 -10.395834
vt 11.845490 -11.020834
vt 11.150726 -11.020833
vt 11.807032 -10.395834
vt 11.393080 -10.395833
vt 11.600056 -10.395833
vt 11.787855 -10.161621
vt 11.593806 -10.161621
vt 11.150727 -10.656252
vt 11.186104 -10.395833
vt 11.205709 -10.161621
vt 11.411512 -15.022512
vt 0.260069 0.834321
vt 0.273826 0.834321
vt 11.399757 -10.161621
vt 11.582809 -15.022513
vt 11.587967 -15.312501
vt 11.406000 -15.312500
vt 11.403945 -10.014778
vt 11.220983 -9.979168
vt 11.404961 -9.979168
vt 11.588938 -9.979167
vt 2.267770 -3.121632
vt 2.267556 -3.131061
vt 11.590032 -20.461128
vt 11.583105 -20.680258
vt 11.411198 -20.680256
vt 2.230992 -4.136005
vt 2.230992 -4.125000
vt 2.267788 -4.136005
vt 11.594278 -5.664814
vt 11.603815 -5.934544
vt 11.399252 -5.664814
vt 2.265564 -3.250000
vt 2.233368 -3.250000
vt 11.404959 -14.999999
vt 11.593124 -15.602488
vt 11.594280 -15.624998
vt 11.388983 -20.022873
vt 11.389062 -20.000000
vt 11.603889 -20.022867
vt 11.588853 -20.703125
vt 11.396387 -20.241999
vt 11.596961 -20.241997
vt 11.797537 -20.241997
vt 11.195812 -20.242001
vt 11.840693 -20.242001
vt 11.816342 -20.461126
vt 11.864584 -20.234375
vt 11.161459 -20.468750
vt 11.159308 -20.242001
vt 0.546034 0.433147
vt 0.546034 0.431065
vt 0.552225 0.431620
vt 0.551977 0.433863
vt 0.551977 0.431620
vt 0.545538 0.433147
vt 0.496928 0.538432
vt 0.656612 0.539851
vt 0.342423 0.234803
vt 0.563417 0.234803
vt 0.552225 0.413829
vt 0.552225 0.416072
vt 0.546034 0.414545
vt 0.545538 0.414545
vt 0.545538 0.416627
vt 0.551977 0.416072
vt 2.171875 -4.179688
vt 2.319098 -4.101562
vt 2.328125 -4.179688
vt 2.317708 -4.273438
vt 2.182292 -4.273438
vt 2.177083 -4.226562
vt 2.312500 -4.320312
vt 2.304688 -4.367188
vt 2.297760 -4.367188
vt 2.201172 -4.367188
vt 2.195312 -4.367188
vt 11.812500 -9.979168
vt 11.811646 -20.703125
vt 11.831268 -15.625000
vt 2.187500 -4.136005
vt 2.312329 -3.121613
vt 11.187500 -9.979168
vt 11.148698 -15.620832
vt 11.890625 -20.000000
vt 11.187500 -20.703125
vt 2.328125 -4.101562
vt 2.322917 -4.226562
vt 2.171875 -4.101562
vt 2.180145 -4.101562
vn 0.000000 0.000000 -1.000000
vn 0.998100 0.000000 0.062400
vn 0.150500 0.983500 -0.100000
vn 0.169500 0.985300 0.021200
vn -1.000000 0.000000 0.000000
vn 1.000000 -0.000000 0.000000
vn 0.151800 0.884100 0.442000
vn -0.978600 -0.104500 0.177100
vn -0.000300 -0.942000 0.335700
vn -0.360200 0.003000 0.932900
vn -0.998100 0.000000 0.062400
vn 0.987000 -0.108300 0.118400
vn 0.000000 0.000000 1.000000
vn 0.000000 -0.970100 -0.242500
vn -0.938800 -0.338000 0.067100
vn -0.992300 0.000000 0.124000
vn 0.985500 -0.169800 0.000000
vn -0.931200 -0.356700 0.074800
vn 0.993700 -0.030100 0.107600
vn -0.000000 -0.048700 -0.998800
vn 0.930900 -0.359000 0.066600
vn 0.000000 -0.943000 0.332800
vn -0.000000 0.946500 -0.322700
vn 0.000000 -0.479600 -0.877500
vn 0.993500 -0.114100 0.000000
vn -0.993500 -0.114100 0.000000
vn 0.993700 0.112200 0.000000
vn -0.993700 0.112200 0.000000
vn 0.996300 -0.085900 0.006100
vn -0.996300 -0.085900 0.000000
vn 0.991700 -0.128300 -0.000000
vn -0.993100 -0.113700 0.029400
vn -0.000000 -1.000000 0.000000
vn 0.000000 0.032300 0.999500
vn 0.000000 0.819200 0.573500
vn 0.000000 0.968100 -0.250600
vn -0.910500 -0.313100 0.270200
vn 0.910500 -0.313100 0.270200
vn -0.631900 -0.774300 0.034300
vn 0.631900 -0.774300 0.034300
vn 0.000000 -0.635900 0.771800
vn 0.704800 -0.703900 -0.087900
vn -0.000000 -0.999600 -0.029800
vn -0.746700 -0.660500 -0.078600
vn 0.000000 -0.770800 0.637000
vn -0.645500 -0.719700 0.255700
vn 0.698600 -0.694000 0.173800
vn -0.771900 -0.065500 0.632300
vn 0.706500 -0.052100 0.705800
vn -0.000500 -0.568500 0.822700
vn -0.000000 -0.982900 0.184300
vn -0.922000 -0.377400 0.086500
vn -0.963600 -0.265900 -0.027500
vn 0.922000 -0.377400 0.086500
vn 0.938800 -0.338000 0.067100
vn -0.026100 -0.982300 0.185600
vn 0.259500 -0.646500 0.717400
vn -0.000400 -0.740900 0.671600
vn 0.084700 -0.767600 0.635300
vn -0.026300 -0.999300 -0.027700
vn -0.106800 -0.967300 -0.229900
vn 0.340200 0.012000 0.940300
vn -0.089500 0.044500 0.995000
vn 0.000000 -0.942900 0.333000
vn -0.000300 -0.942000 0.335600
vn -0.177200 0.979300 -0.097800
vn 0.000000 1.000000 0.000000
vn 0.000000 0.883400 0.468600
vn -0.812700 0.582600 0.000000
vn -0.615100 0.705200 0.352600
vn -0.165300 0.882100 0.441100
vn -0.181500 0.983100 0.022700
vn 0.000000 0.894400 0.447200
vn -0.808000 0.581100 -0.097000
vn 0.000000 0.997900 -0.064700
vn 0.761500 0.572600 0.303700
vn 0.818500 0.567300 -0.091200
vn 0.000000 0.843700 -0.536800
vn 0.555100 0.831300 -0.027500
vn 0.000000 0.599600 0.800300
vn 0.813600 0.581400 0.000000
vn -0.556000 0.827000 -0.083100
vn -0.130800 -0.945400 0.298500
vn 0.000000 -0.955700 0.294300
vn 0.686400 -0.681900 0.252900
vn -0.698600 -0.694000 0.173800
vn 0.171400 0.985100 0.010700
vn -0.178000 0.983900 0.014100
vn 0.713900 0.690600 -0.115800
vn -0.557700 0.829600 -0.027000
vn 0.123500 -0.947800 0.294100
vn 0.000000 -0.942600 0.333900
vn -0.000000 -0.942300 0.334700
vn -0.000000 -0.025900 0.999700
vn 0.025900 -0.983900 -0.176900
vn -0.000000 -0.984100 -0.177800
vn -0.056600 -0.409100 0.910700
vn 0.000000 -0.403700 0.914900
vn 0.026600 -0.999200 -0.029100
vn -0.084700 -0.767900 0.634900
vn -0.000000 -0.738900 0.673900
vn 0.000000 -0.739900 0.672700
vn 0.128200 -0.984000 0.123700
vn 0.000000 -0.992500 0.122500
vn -0.000000 0.188500 0.982100
vn 0.000000 0.055500 0.998500
vn 0.063300 0.185800 0.980600
vn 0.088500 0.051900 0.994700
vn 0.012600 0.114000 0.993400
vn -0.081500 0.045500 0.995600
vn 0.284600 0.074600 0.955800
vn 0.310500 0.016100 0.950400
vn 0.751600 -0.065400 0.656300
vn 0.727300 -0.060600 0.683600
vn -0.734800 -0.062000 0.675400
vn -0.753500 -0.061800 0.654600
vn -0.996000 -0.089100 0.004300
vn -0.996000 -0.089200 0.002200
vn 0.996000 -0.089200 0.002200
vn 0.996300 -0.085900 0.004200
vn 0.979500 -0.104800 0.172000
vn -0.332000 0.007400 0.943200
vn -0.986700 -0.108100 0.121000
vn 0.146900 0.984000 -0.100800
vn 0.169200 0.985600 0.000000
vn 0.171400 0.985000 0.021100
vn -0.968500 -0.114000 0.221200
vn 0.000000 -0.942000 0.335600
vn -0.393300 0.003500 0.919400
vn 0.989900 -0.124700 0.067200
vn -0.910200 -0.400900 0.103800
vn -0.931000 -0.358300 0.069200
vn -0.993700 -0.030100 0.107600
vn 0.963600 -0.265900 -0.027500
vn 0.992300 0.000000 0.124000
vn 0.996000 -0.089100 0.004300
vn 0.986900 -0.161000 0.011400
vn 0.993100 -0.113700 0.029400
vn -0.986900 -0.161000 0.011400
vn -0.991700 -0.128300 0.000000
vn 0.746700 -0.660500 -0.078600
vn -0.704800 -0.703900 -0.087900
vn -0.686400 -0.681900 0.252900
vn -0.755300 -0.066100 0.652000
vn -0.306100 -0.627900 0.715600
vn -0.985500 -0.169800 0.000000
vn 0.931000 -0.358300 0.069200
vn 0.910200 -0.400900 0.103800
vn -0.128200 -0.984000 0.123900
vn -0.000500 -0.562400 0.826800
vn 0.084700 -0.767900 0.634900
vn -0.026600 -0.999200 -0.029100
vn 0.056600 -0.408700 0.910900
vn -0.025900 -0.983900 -0.176800
vn 0.310500 0.010700 0.950500
vn -0.000300 -0.943000 0.332800
vn -0.172900 0.980000 -0.098700
vn -0.760500 0.573600 0.304300
vn -0.201500 0.979200 0.022400
vn -0.184200 0.982900 0.000000
vn -0.817200 0.567500 -0.100800
vn 0.616300 0.704400 0.352200
vn 0.810000 0.579800 -0.087800
vn 0.821400 0.564500 -0.081200
vn -0.716200 0.688300 -0.114800
vn -0.123400 -0.947700 0.294200
vn 0.645500 -0.719700 0.255700
vn 0.151300 0.988400 0.012400
vn -0.201500 0.979400 0.012600
vn 0.553400 0.828700 -0.083800
vn -0.823300 0.561900 -0.080100
vn 0.130800 -0.945500 0.298300
vn -0.000300 -0.942900 0.333000
vn -0.000300 -0.942600 0.333900
vn 0.089400 0.044700 0.995000
vn 0.106800 -0.967300 -0.230200
vn 0.026300 -0.999300 -0.027700
vn -0.084700 -0.767600 0.635300
vn -0.000400 -0.737900 0.675000
vn -0.000400 -0.738900 0.673800
vn 0.026100 -0.982300 0.185600
vn -0.012600 0.114000 0.993400
vn 0.081500 0.045700 0.995600
vn -0.063300 0.185600 0.980600
vn -0.088500 0.051600 0.994700
vn 0.285300 0.014600 0.958300
vn 0.771200 -0.064600 0.633300
vn 0.749400 -0.060300 0.659400
vn -0.717400 -0.054900 0.694500
vn -0.996300 -0.085900 0.006100
vn -0.996300 -0.085900 0.004200
vn 0.996300 -0.085900 0.000000
vn 0.970100 -0.113900 0.214100
vn 0.978600 -0.117600 0.168900
vn -0.331300 0.066500 0.941200
vn -0.360200 0.008200 0.932800
vn -0.989800 -0.125300 0.067500
vn -0.977700 -0.117800 0.173900
s off
f 134/1/1 4/2/1 133/3/1
f 126/4/2 70/5/2 12/6/2
f 122/7/3 129/8/3 109/9/3
f 103/10/4 12/11/4 13/12/4
f 2/13/5 17/14/5 15/15/5
f 16/15/6 18/14/6 1/13/6
f 1/16/7 107/17/7 16/18/7
f 188/19/8 171/20/8 20/21/8
f 99/22/9 73/23/9 24/24/9
f 196/25/10 185/26/10 74/27/10
f 26/28/5 21/29/5 62/30/5
f 124/4/11 121/31/11 11/6/11
f 192/32/12 170/33/12 25/29/12
f 58/34/13 10/35/13 79/36/13
f 69/37/14 61/38/14 96/39/14
f 24/40/15 38/41/15 5/42/15
f 68/5/16 11/6/16 14/43/16
f 7/44/17 29/45/17 33/46/17
f 66/30/6 25/29/6 19/28/6
f 20/21/18 24/40/18 73/47/18
f 70/5/19 66/30/19 13/43/19
f 45/48/5 50/49/5 41/50/5
f 173/51/13 30/52/13 49/53/13
f 22/54/20 44/55/20 177/56/20
f 32/57/13 31/58/13 41/59/13
f 23/40/21 22/21/21 76/60/21
f 84/61/22 24/24/22 5/62/22
f 35/63/23 53/64/23 44/55/23
f 26/57/24 45/65/24 42/59/24
f 29/66/25 7/67/25 166/68/25
f 31/69/26 3/70/26 168/71/26
f 28/72/27 30/69/27 8/70/27
f 38/73/23 20/74/23 47/75/23
f 32/72/28 17/76/28 3/70/28
f 44/77/29 43/78/29 182/79/29
f 40/48/6 46/80/6 49/50/6
f 42/80/30 41/50/30 183/81/30
f 52/82/31 51/83/31 43/78/31
f 55/82/32 56/84/32 48/78/32
f 25/52/24 46/53/24 40/85/24
f 27/86/13 48/87/13 184/88/13
f 28/89/13 39/85/13 49/53/13
f 26/57/33 32/57/33 50/65/33
f 36/90/34 54/91/34 48/87/34
f 33/92/34 29/93/34 43/94/34
f 172/95/20 21/58/20 42/59/20
f 37/96/35 55/97/35 54/91/35
f 34/98/35 33/92/35 51/99/35
f 19/89/33 40/85/33 39/85/33
f 38/73/36 56/100/36 55/97/36
f 35/63/36 34/98/36 52/101/36
f 61/38/37 62/102/37 63/103/37
f 64/104/38 65/105/38 66/106/38
f 67/107/39 68/108/39 69/109/39
f 70/108/40 71/107/40 72/109/40
f 57/110/41 58/111/41 87/112/41
f 70/108/42 72/109/42 64/113/42
f 67/114/43 69/115/43 91/116/43
f 68/108/44 62/117/44 61/113/44
f 94/118/45 65/119/45 64/120/45
f 59/121/46 60/122/46 124/123/46
f 71/124/47 70/125/47 126/126/47
f 63/127/48 62/128/48 187/129/48
f 75/130/49 76/131/49 191/132/49
f 74/27/50 73/133/50 99/134/50
f 123/135/51 67/114/51 90/136/51
f 5/42/52 37/137/52 36/46/52
f 4/44/53 5/42/53 36/46/53
f 6/42/54 33/46/54 34/137/54
f 6/42/55 35/41/55 23/40/55
f 125/138/51 127/139/51 89/140/51
f 128/141/56 90/136/56 144/142/56
f 75/130/57 97/143/57 100/144/57
f 98/145/58 99/134/58 153/146/58
f 93/147/45 96/148/45 61/149/45
f 94/118/59 95/150/59 149/151/59
f 71/124/43 89/140/43 92/152/43
f 90/136/60 91/116/60 145/153/60
f 59/121/41 85/154/41 88/155/41
f 86/156/41 87/112/41 141/157/41
f 83/158/22 77/159/22 6/160/22
f 138/161/22 84/61/22 78/162/22
f 72/163/14 92/164/14 95/165/14
f 91/166/61 96/39/61 150/167/61
f 88/168/13 80/169/13 9/170/13
f 87/171/13 79/36/13 135/172/13
f 194/173/62 97/143/62 75/130/62
f 200/174/63 196/25/63 98/145/63
f 100/175/64 83/158/64 23/176/64
f 153/177/65 99/22/65 84/61/65
f 110/178/66 130/179/66 121/180/66
f 79/181/67 109/9/67 156/182/67
f 116/183/68 119/17/68 120/184/68
f 103/10/69 101/183/69 116/183/69
f 101/183/70 107/17/70 119/17/70
f 108/184/71 2/185/71 15/186/71
f 106/187/72 14/188/72 11/189/72
f 107/17/73 102/190/73 105/191/73
f 103/10/74 115/10/74 111/192/74
f 118/187/67 158/193/67 157/194/67
f 114/9/75 131/195/75 163/196/75
f 104/197/76 117/197/76 120/184/76
f 106/187/77 82/198/77 112/198/77
f 156/182/78 109/9/78 114/9/78
f 82/198/79 130/179/79 132/199/79
f 108/184/80 120/184/80 119/17/80
f 106/187/81 118/187/81 117/197/81
f 129/8/82 131/195/82 114/9/82
f 139/200/83 85/154/83 128/141/83
f 57/110/84 86/156/84 127/139/84
f 59/121/84 123/135/84 128/141/84
f 57/110/85 125/138/85 126/126/85
f 67/114/86 123/135/86 124/123/86
f 60/201/11 9/202/11 121/31/11
f 58/201/2 126/4/2 122/31/2
f 122/7/87 12/11/87 81/192/87
f 131/195/75 111/192/75 157/194/75
f 121/180/88 130/179/88 82/198/88
f 130/179/89 110/178/89 113/178/89
f 131/195/90 129/8/90 81/192/90
f 132/199/75 164/203/75 158/193/75
f 164/203/75 163/196/75 157/194/75
f 140/204/91 162/205/91 127/139/91
f 139/200/84 161/206/84 162/205/84
f 155/207/78 159/207/78 113/178/78
f 156/182/78 160/182/78 159/207/78
f 113/178/75 159/207/75 164/203/75
f 159/207/75 160/182/75 163/196/75
f 80/208/67 136/209/67 155/207/67
f 136/209/67 135/210/67 156/182/67
f 154/211/92 137/212/92 83/158/92
f 153/177/93 138/161/93 137/212/93
f 198/213/94 151/214/94 97/143/94
f 198/213/94 200/174/94 152/215/94
f 142/216/13 136/217/13 80/169/13
f 141/218/13 135/172/13 136/217/13
f 92/164/95 146/219/95 149/220/95
f 145/221/96 150/167/96 149/220/96
f 137/212/22 133/222/22 77/159/22
f 137/212/22 138/161/22 134/223/22
f 85/154/97 139/200/97 142/224/97
f 139/200/98 140/204/98 141/157/98
f 89/140/99 143/225/99 146/226/99
f 144/142/43 145/153/43 146/226/43
f 93/147/100 147/227/100 150/228/100
f 148/229/45 149/151/45 150/228/45
f 97/143/101 151/214/101 154/230/101
f 151/214/102 152/215/102 153/146/102
f 127/139/103 162/205/103 143/225/103
f 161/206/104 144/142/104 143/225/104
f 148/229/105 147/227/105 199/231/105
f 197/232/106 199/231/106 200/174/106
f 148/229/107 197/232/107 193/233/107
f 197/232/108 198/213/108 194/173/108
f 147/227/109 93/147/109 195/234/109
f 199/231/110 195/234/110 196/25/110
f 94/118/111 193/233/111 189/235/111
f 193/233/112 194/173/112 190/236/112
f 65/119/113 189/235/113 192/237/113
f 189/235/114 190/236/114 191/132/114
f 74/27/115 185/26/115 188/238/115
f 186/239/116 187/129/116 188/238/116
f 20/74/20 171/240/20 179/241/20
f 171/240/20 172/95/20 180/242/20
f 175/243/13 183/244/13 41/59/13
f 176/245/13 184/88/13 183/244/13
f 47/77/117 179/246/117 184/79/117
f 179/246/118 180/247/118 183/81/118
f 46/80/119 178/247/119 181/81/119
f 177/246/120 182/79/120 181/81/120
f 176/248/26 167/68/26 4/67/26
f 175/249/26 168/71/26 167/68/26
f 173/249/25 165/71/25 8/70/25
f 174/248/25 166/68/25 165/71/25
f 170/250/20 178/251/20 46/53/20
f 169/252/20 177/56/20 178/251/20
f 29/93/13 174/253/13 182/254/13
f 174/253/13 173/51/13 181/255/13
f 22/21/121 169/20/121 191/19/121
f 169/20/12 170/33/12 192/32/12
f 93/147/106 63/127/106 186/239/106
f 195/234/122 186/239/122 185/26/122
f 21/29/123 172/33/123 187/32/123
f 187/32/123 172/33/123 171/20/123
f 3/256/1 102/257/1 8/258/1
f 166/259/1 167/260/1 168/261/1
f 167/260/1 166/259/1 7/262/1
f 7/262/1 6/263/1 77/264/1
f 77/264/1 133/3/1 7/262/1
f 134/1/1 78/265/1 4/2/1
f 5/266/1 4/2/1 78/265/1
f 167/260/1 7/262/1 4/2/1
f 133/3/1 4/2/1 7/262/1
f 122/31/2 126/4/2 12/6/2
f 109/9/67 79/181/67 10/267/67
f 10/267/124 122/7/124 109/9/124
f 13/12/125 16/18/125 101/183/125
f 103/10/126 81/192/126 12/11/126
f 13/12/125 101/183/125 103/10/125
f 101/183/7 16/18/7 107/17/7
f 1/16/7 102/190/7 107/17/7
f 73/47/127 188/19/127 20/21/127
f 84/61/128 99/22/128 24/24/128
f 98/145/129 196/25/129 74/27/129
f 14/43/5 26/28/5 62/30/5
f 68/5/11 124/4/11 11/6/11
f 66/30/130 192/32/130 25/29/130
f 87/171/13 58/34/13 79/36/13
f 91/166/14 69/37/14 96/39/14
f 37/137/131 5/42/131 38/41/131
f 24/40/132 20/21/132 38/41/132
f 62/30/133 68/5/133 14/43/133
f 6/42/134 7/44/134 33/46/134
f 13/43/6 66/30/6 19/28/6
f 12/6/135 70/5/135 13/43/135
f 42/80/5 45/48/5 41/50/5
f 181/255/13 173/51/13 49/53/13
f 169/252/20 22/54/20 177/56/20
f 50/65/13 32/57/13 41/59/13
f 78/162/22 84/61/22 5/62/22
f 22/54/23 35/63/23 44/55/23
f 21/58/24 26/57/24 42/59/24
f 174/248/25 29/66/25 166/68/25
f 175/249/26 31/69/26 168/71/26
f 18/76/27 28/72/27 8/70/27
f 56/100/23 38/73/23 47/75/23
f 31/69/28 32/72/28 3/70/28
f 177/246/136 44/77/136 182/79/136
f 39/49/6 40/48/6 49/50/6
f 180/247/118 42/80/118 183/81/118
f 43/78/137 44/77/137 53/84/137
f 53/84/138 52/82/138 43/78/138
f 47/77/139 48/78/139 56/84/139
f 54/83/140 55/82/140 48/78/140
f 19/89/24 25/52/24 40/85/24
f 176/245/13 27/86/13 184/88/13
f 30/52/13 28/89/13 49/53/13
f 45/65/33 26/57/33 50/65/33
f 27/86/34 36/90/34 48/87/34
f 51/99/34 33/92/34 43/94/34
f 180/242/20 172/95/20 42/59/20
f 36/90/35 37/96/35 54/91/35
f 52/101/35 34/98/35 51/99/35
f 28/89/33 19/89/33 39/85/33
f 37/96/36 38/73/36 55/97/36
f 53/64/36 35/63/36 52/101/36
f 86/156/41 57/110/41 87/112/41
f 66/117/141 70/108/141 64/113/141
f 90/136/43 67/114/43 91/116/43
f 69/109/142 68/108/142 61/113/142
f 95/150/45 94/118/45 64/120/45
f 123/135/143 59/121/143 124/123/143
f 125/138/47 71/124/47 126/126/47
f 186/239/144 63/127/144 187/129/144
f 190/236/114 75/130/114 191/132/114
f 98/145/145 74/27/145 99/134/145
f 128/141/51 123/135/51 90/136/51
f 27/45/146 4/44/146 36/46/146
f 22/21/147 23/40/147 35/41/147
f 6/42/148 34/137/148 35/41/148
f 71/124/51 125/138/51 89/140/51
f 161/206/149 128/141/149 144/142/149
f 76/268/150 75/130/150 100/144/150
f 152/215/102 98/145/102 153/146/102
f 63/127/45 93/147/45 61/149/45
f 148/229/151 94/118/151 149/151/151
f 72/269/43 71/124/43 92/152/43
f 144/142/152 90/136/152 145/153/152
f 60/122/41 59/121/41 88/155/41
f 140/204/153 86/156/153 141/157/153
f 23/176/22 83/158/22 6/160/22
f 134/223/22 138/161/22 78/162/22
f 64/104/14 72/163/14 95/165/14
f 145/221/154 91/166/154 150/167/154
f 60/270/13 88/168/13 9/170/13
f 141/218/13 87/171/13 135/172/13
f 190/236/155 194/173/155 75/130/155
f 152/215/94 200/174/94 98/145/94
f 76/271/156 100/175/156 23/176/156
f 138/161/93 153/177/93 84/61/93
f 121/180/157 9/272/157 110/178/157
f 80/208/67 110/178/67 9/272/67
f 135/210/67 79/181/67 156/182/67
f 117/197/68 116/183/68 120/184/68
f 115/10/69 103/10/69 116/183/69
f 116/183/158 101/183/158 119/17/158
f 15/186/71 104/197/71 108/184/71
f 108/184/71 105/191/71 2/185/71
f 11/189/159 82/198/159 106/187/159
f 106/187/160 104/197/160 15/186/160
f 15/186/160 14/188/160 106/187/160
f 108/184/73 107/17/73 105/191/73
f 81/192/161 103/10/161 111/192/161
f 157/194/67 111/192/67 115/10/67
f 115/10/67 116/183/67 118/187/67
f 117/197/67 118/187/67 116/183/67
f 112/198/67 158/193/67 118/187/67
f 157/194/67 115/10/67 118/187/67
f 160/182/75 114/9/75 163/196/75
f 108/184/162 104/197/162 120/184/162
f 118/187/163 106/187/163 112/198/163
f 160/182/78 156/182/78 114/9/78
f 112/198/164 82/198/164 132/199/164
f 107/17/80 108/184/80 119/17/80
f 104/197/81 106/187/81 117/197/81
f 109/9/165 129/8/165 114/9/165
f 161/206/166 139/200/166 128/141/166
f 125/138/84 57/110/84 127/139/84
f 85/154/84 59/121/84 128/141/84
f 58/111/167 57/110/167 126/126/167
f 68/273/86 67/114/86 124/123/86
f 124/4/11 60/201/11 121/31/11
f 10/202/2 58/201/2 122/31/2
f 129/8/168 122/7/168 81/192/168
f 163/196/75 131/195/75 157/194/75
f 11/189/169 121/180/169 82/198/169
f 132/199/170 130/179/170 113/178/170
f 111/192/171 131/195/171 81/192/171
f 112/198/75 132/199/75 158/193/75
f 158/193/75 164/203/75 157/194/75
f 86/156/172 140/204/172 127/139/172
f 140/204/84 139/200/84 162/205/84
f 110/178/78 155/207/78 113/178/78
f 155/207/78 156/182/78 159/207/78
f 132/199/75 113/178/75 164/203/75
f 164/203/75 159/207/75 163/196/75
f 110/178/67 80/208/67 155/207/67
f 155/207/67 136/209/67 156/182/67
f 100/175/173 154/211/173 83/158/173
f 154/211/174 153/177/174 137/212/174
f 194/173/175 198/213/175 97/143/175
f 151/214/94 198/213/94 152/215/94
f 88/168/13 142/216/13 80/169/13
f 142/216/13 141/218/13 136/217/13
f 95/165/176 92/164/176 149/220/176
f 146/219/96 145/221/96 149/220/96
f 83/158/22 137/212/22 77/159/22
f 133/222/22 137/212/22 134/223/22
f 88/155/41 85/154/41 142/224/41
f 142/224/98 139/200/98 141/157/98
f 92/152/177 89/140/177 146/226/177
f 143/225/43 144/142/43 146/226/43
f 96/148/178 93/147/178 150/228/178
f 147/227/45 148/229/45 150/228/45
f 100/144/179 97/143/179 154/230/179
f 154/230/180 151/214/180 153/146/180
f 89/140/181 127/139/181 143/225/181
f 162/205/104 161/206/104 143/225/104
f 197/232/105 148/229/105 199/231/105
f 198/213/106 197/232/106 200/174/106
f 94/118/182 148/229/182 193/233/182
f 193/233/183 197/232/183 194/173/183
f 199/231/184 147/227/184 195/234/184
f 200/174/185 199/231/185 196/25/185
f 65/119/106 94/118/106 189/235/106
f 189/235/186 193/233/186 190/236/186
f 66/274/187 65/119/187 192/237/187
f 192/237/188 189/235/188 191/132/188
f 73/275/189 74/27/189 188/238/189
f 185/26/115 186/239/115 188/238/115
f 47/75/20 20/74/20 179/241/20
f 179/241/20 171/240/20 180/242/20
f 31/58/13 175/243/13 41/59/13
f 175/243/13 176/245/13 183/244/13
f 48/78/190 47/77/190 184/79/190
f 184/79/191 179/246/191 183/81/191
f 49/50/192 46/80/192 181/81/192
f 178/247/119 177/246/119 181/81/119
f 27/66/26 176/248/26 4/67/26
f 176/248/26 175/249/26 167/68/26
f 30/69/25 173/249/25 8/70/25
f 173/249/25 174/248/25 165/71/25
f 25/52/20 170/250/20 46/53/20
f 170/250/20 169/252/20 178/251/20
f 43/94/13 29/93/13 182/254/13
f 182/254/13 174/253/13 181/255/13
f 76/60/193 22/21/193 191/19/193
f 191/19/194 169/20/194 192/32/194
f 195/234/195 93/147/195 186/239/195
f 196/25/196 195/234/196 185/26/196
f 62/30/197 21/29/197 187/32/197
f 188/19/198 187/32/198 171/20/198
f 1/276/1 8/258/1 102/257/1
f 165/277/1 168/261/1 3/256/1
f 3/256/1 2/278/1 105/279/1
f 105/279/1 102/257/1 3/256/1
f 8/258/1 165/277/1 3/256/1
f 165/277/1 166/259/1 168/261/1
