v 0.689437 -0.036777 -0.058646
v 0.275080 0.625950 0.112395
v 0.247894 -0.448377 0.466500
v -0.166463 0.214350 0.637542
v 0.166463 -0.214350 -0.637542
v -0.247894 0.448377 -0.466500
v -0.275080 -0.625950 -0.112395
v -0.689437 0.036777 0.058646
vn 0.653600 0.221900 0.723500
vn -0.551900 -0.514400 0.656400
vn -0.653600 -0.221900 -0.723500
vn 0.551900 0.514400 -0.656400
vn 0.517900 -0.828300 -0.213800
vn -0.517900 0.828300 0.213800
s off
f 1//1 2//1 4//1
f 4//2 8//2 7//2
f 8//3 6//3 5//3
f 5//4 6//4 2//4
f 3//5 7//5 5//5
f 4//6 2//6 6//6
f 3//1 1//1 4//1
f 3//2 4//2 7//2
f 7//3 8//3 5//3
f 1//4 5//4 2//4
f 1//5 3//5 5//5
f 8//6 4//6 6//6
