v 0.594997 -0.127680 0.003936
v 0.194949 0.522336 0.243925
v 0.370207 -0.376569 0.303345
v -0.029841 0.273447 0.543334
v 0.029244 -0.274108 -0.542540
v -0.370804 0.375908 -0.302551
v -0.195546 -0.522997 -0.243130
v -0.595594 0.127019 -0.003141
vn 0.707100 0.183000 0.683000
vn -0.500000 -0.553600 0.666000
vn -0.707100 -0.183000 -0.683000
vn 0.500000 0.553600 -0.666000
vn 0.500000 -0.812400 -0.300000
vn -0.500000 0.812400 0.300000
s off
f 2//1 4//1 3//1
f 4//2 8//2 7//2
f 8//3 6//3 5//3
f 6//4 2//4 1//4
f 7//5 5//5 1//5
f 8//6 4//6 2//6
f 1//1 2//1 3//1
f 3//2 4//2 7//2
f 7//3 8//3 5//3
f 5//4 6//4 1//4
f 3//5 7//5 1//5
f 6//6 8//6 2//6
