v -0.432934 0.230742 0.489328
v -0.002215 -0.442072 0.533557
v 0.208880 0.623761 0.217731
v 0.639598 -0.049053 0.261960
v -0.639598 0.049053 -0.261960
v -0.208880 -0.623761 -0.217731
v 0.002215 0.442072 -0.533557
v 0.432934 -0.230742 -0.489328
vn 0.258300 0.227100 0.939000
vn 0.802200 0.491200 -0.339500
vn -0.258300 -0.227100 -0.939000
vn -0.802200 -0.491200 0.339500
vn -0.538300 0.840900 -0.055300
vn 0.538300 -0.840900 0.055300
s off
f 1//1 2//1 4//1
f 4//2 8//2 7//2
f 8//3 6//3 5//3
f 5//4 6//4 2//4
f 3//5 7//5 5//5
f 4//6 2//6 6//6
f 3//1 1//1 4//1
f 3//2 4//2 7//2
f 7//3 8//3 5//3
f 1//4 5//4 2//4
f 1//5 3//5 5//5
f 8//6 4//6 6//6
