v -0.089956 0.120697 -0.676355
v -0.396704 -0.498327 -0.272785
v -0.309033 0.614193 -0.085913
v -0.615781 -0.004831 0.317657
v 0.615781 0.004831 -0.317657
v 0.309033 -0.614193 0.085913
v 0.396704 0.498327 0.272785
v 0.089956 -0.120697 0.676355
vn -0.882100 0.144800 -0.448300
vn -0.273800 0.616800 0.738000
vn 0.882100 -0.144800 0.448300
vn 0.273800 -0.616800 -0.738000
vn 0.383400 0.773700 -0.504400
vn -0.383400 -0.773700 0.504400
s off
f 1//1 2//1 4//1
f 4//2 8//2 7//2
f 8//3 6//3 5//3
f 5//4 6//4 2//4
f 3//5 7//5 5//5
f 4//6 2//6 6//6
f 3//1 1//1 4//1
f 3//2 4//2 7//2
f 7//3 8//3 5//3
f 1//4 5//4 2//4
f 1//5 3//5 5//5
f 8//6 4//6 6//6
