# Blender v2.76 (sub 0) OBJ File: 'cyber_item.blend'
# www.blender.org
v 0.498336 0.106808 -0.332555
v 0.203183 -0.572815 -0.030644
v 0.123110 0.162580 -0.573836
v -0.172044 -0.517043 -0.271925
v 0.171047 0.517192 0.271284
v -0.124106 -0.162432 0.573196
v -0.204179 0.572963 0.030003
v -0.499332 -0.106660 0.331914
vn 0.409100 -0.512900 -0.754700
vn -0.834600 0.124100 -0.536700
vn -0.409100 0.512900 0.754700
vn 0.834600 -0.124100 0.536700
vn 0.368900 0.849400 -0.377300
vn -0.368900 -0.849400 0.377300
s off
f 2//1 4//1 3//1
f 4//2 8//2 7//2
f 8//3 6//3 5//3
f 6//4 2//4 1//4
f 7//5 5//5 1//5
f 8//6 4//6 2//6
f 1//1 2//1 3//1
f 3//2 4//2 7//2
f 7//3 8//3 5//3
f 5//4 6//4 1//4
f 3//5 7//5 1//5
f 6//6 8//6 2//6
