# Blender v2.76 (sub 0) OBJ File: 'cyber_data.blend'
# www.blender.org
v 0.132649 -0.481570 -0.480219
v 0.283875 0.300430 -0.556123
v 0.439430 -0.469182 0.258622
v 0.590656 0.312818 0.182718
v -0.590656 -0.312818 -0.182718
v -0.439430 0.469182 -0.258622
v -0.283875 -0.300430 0.556123
v -0.132649 0.481570 0.480219
vn 0.904000 -0.210900 -0.371800
vn 0.383400 0.015500 0.923400
vn -0.904000 0.210900 0.371800
vn -0.383400 -0.015500 -0.923400
vn -0.189000 -0.977400 0.094900
vn 0.189000 0.977400 -0.094900
s off
f 1//1 2//1 4//1
f 4//2 8//2 7//2
f 8//3 6//3 5//3
f 5//4 6//4 2//4
f 3//5 7//5 5//5
f 4//6 2//6 6//6
f 3//1 1//1 4//1
f 3//2 4//2 7//2
f 7//3 8//3 5//3
f 1//4 5//4 2//4
f 1//5 3//5 5//5
f 8//6 4//6 6//6
