v -0.182110 -0.373317 -0.554604
v 0.164339 0.347549 -0.576470
v 0.336662 -0.605559 0.008506
v 0.683111 0.115308 -0.013360
v -0.683111 -0.115308 0.013360
v -0.336662 0.605559 -0.008506
v -0.164339 -0.347549 0.576470
v 0.182110 0.373317 0.554604
vn 0.626200 -0.322500 -0.709900
vn 0.648400 -0.290300 0.703800
vn -0.626200 0.322500 0.709900
vn -0.648400 0.290300 -0.703800
vn -0.433000 -0.901000 0.027300
vn 0.433000 0.901000 -0.027300
s off
f 1//1 2//1 4//1
f 4//2 8//2 7//2
f 8//3 6//3 5//3
f 5//4 6//4 2//4
f 3//5 7//5 5//5
f 4//6 2//6 6//6
f 3//1 1//1 4//1
f 3//2 4//2 7//2
f 7//3 8//3 5//3
f 1//4 5//4 2//4
f 1//5 3//5 5//5
f 8//6 4//6 6//6
