v -0.375142 -0.281066 0.046550
v 0.156331 -0.077532 -0.431094
v -0.105025 0.470741 0.089597
v 0.320327 -0.177550 0.286635
v 0.372895 0.250665 -0.050273
v -0.158578 0.047131 0.427371
v 0.102778 -0.501142 -0.093320
v -0.322574 0.147149 -0.290358
v -0.028432 -0.083591 -0.090936
v -0.030673 -0.096287 -0.079769
v -0.040307 -0.099976 -0.071111
v -0.055605 -0.093998 -0.066515
v -0.062870 -0.082923 -0.070893
v -0.061256 -0.068714 -0.081693
v -0.052168 -0.065234 -0.089861
v -0.036629 -0.072874 -0.094476
v 0.022287 0.060710 -0.082746
v 0.010394 0.058940 -0.086852
v -0.005144 0.066580 -0.082237
v -0.010397 0.075501 -0.072887
v -0.002857 0.084965 -0.060866
v 0.009749 0.086842 -0.056514
v 0.025162 0.080794 -0.060612
v 0.029193 0.071691 -0.070383
v 0.034383 0.042474 0.090753
v 0.049921 0.034833 0.086138
v 0.059010 0.038314 0.077970
v 0.060623 0.052523 0.067170
v 0.053359 0.063597 0.062791
v 0.038060 0.069575 0.067387
v 0.028426 0.065886 0.076046
v 0.026185 0.053191 0.087213
v -0.012641 -0.089340 0.083129
v -0.024534 -0.091111 0.079023
v -0.031440 -0.102092 0.066660
v -0.027409 -0.111194 0.056888
v -0.011996 -0.117242 0.052791
v 0.000611 -0.115366 0.057143
v 0.008150 -0.105902 0.069164
v 0.002898 -0.096981 0.078514
v -0.107001 0.027573 0.009304
v -0.108615 0.013364 0.020104
v -0.105810 0.011653 0.032377
v -0.098904 0.022635 0.044741
v -0.093391 0.035392 0.045934
v -0.091633 0.048016 0.034600
v -0.094606 0.049829 0.021590
v -0.101776 0.040506 0.009237
v 0.089386 -0.078417 -0.038323
v 0.091144 -0.065793 -0.049657
v 0.096658 -0.053035 -0.048464
v 0.103564 -0.042054 -0.036100
v 0.106368 -0.043764 -0.023827
v 0.104755 -0.057974 -0.013027
v 0.099529 -0.070907 -0.012960
v 0.092359 -0.080230 -0.025313
vn -0.820000 0.320000 -0.474500
vn 0.129200 -0.990200 0.052600
vn 0.734900 0.616400 -0.282700
vn -0.155800 0.190300 0.969300
vn 0.155800 -0.190300 -0.969300
vn 0.685900 -0.099500 0.720800
vn -0.129200 0.990200 -0.052600
vn 0.820000 -0.320000 0.474500
vn -0.734900 -0.616400 0.282700
vn -0.035400 0.933000 0.358200
vn -0.433400 0.873700 0.220800
vn 0.305800 0.132400 -0.942900
vn 0.518800 -0.136300 -0.844000
vn -0.926200 -0.339400 0.164300
vn -0.820500 -0.564200 -0.091800
vn 0.542700 -0.426200 0.723800
vn -0.685900 0.099500 -0.720800
vn -0.542700 0.426200 -0.723800
vn 0.926200 0.339400 -0.164300
vn 0.035400 -0.933000 -0.358200
vn -0.518800 0.136300 0.844000
vn 0.820500 0.564200 0.091800
vn -0.305800 -0.132400 0.942900
vn -0.463700 -0.502100 -0.729900
vn 0.114900 0.746900 -0.654900
vn 0.427400 0.556400 0.712600
vn -0.114900 -0.746900 0.654900
vn -0.897700 0.359100 0.255200
vn 0.921400 -0.296000 -0.251800
vn -0.671800 -0.638100 -0.376200
vn -0.009700 0.928200 -0.372100
vn 0.671800 0.638100 0.376200
vn 0.009700 -0.928200 0.372100
vn -0.716900 0.292900 0.632600
vn 0.974900 0.058800 -0.214600
vn -0.080300 -0.411600 -0.907800
vn 0.243200 0.407700 -0.880200
vn 0.080300 0.411600 0.907800
vn -0.243200 -0.407700 0.880200
vn -0.899400 0.404300 -0.166200
vn 0.705700 -0.661600 -0.253400
vn -0.331800 0.655400 0.678500
vn -0.715300 -0.273900 0.642900
vn 0.549800 -0.788400 0.275900
vn 0.936000 0.139300 0.323100
vn 0.220700 -0.134600 0.966000
vn -0.220700 0.134600 -0.966000
vn 0.205100 0.797200 0.567900
vn 0.716900 -0.292900 -0.632600
vn -0.974900 -0.058800 0.214600
vn 0.290200 -0.637600 0.713600
vn -0.205100 -0.797200 -0.567900
vn -0.290200 0.637600 -0.713600
vn 0.619000 0.178400 0.764800
vn 0.899400 -0.404300 0.166200
vn -0.705700 0.661600 0.253400
vn -0.483800 -0.752800 0.446400
vn -0.619000 -0.178400 -0.764800
vn 0.483800 0.752800 -0.446400
vn 0.374900 0.926000 0.043400
vn -0.549800 0.788400 -0.275900
vn 0.331800 -0.655400 -0.678500
vn 0.715300 0.273900 -0.642900
vn -0.374900 -0.926000 -0.043400
vn -0.936000 -0.139300 -0.323100
vn 0.433400 -0.873700 -0.220800
vn -0.418500 -0.557100 -0.717300
vn -0.427400 -0.556400 -0.712600
vn -0.431600 -0.562100 -0.705500
vn 0.137100 0.701300 -0.699500
vn 0.105000 0.748300 -0.655000
vn 0.122100 0.750900 -0.649100
vn 0.418500 0.557100 0.717300
vn 0.463700 0.502100 0.729900
vn 0.431600 0.562100 0.705500
vn -0.137100 -0.701300 0.699500
vn -0.122100 -0.750900 0.649100
vn -0.105000 -0.748300 0.655000
vn -0.898100 0.364200 0.246500
vn -0.921400 0.296000 0.251800
vn -0.894100 0.361700 0.264200
vn 0.897700 -0.359100 -0.255200
vn 0.894100 -0.361700 -0.264200
vn 0.898100 -0.364200 -0.246500
s off
f 16//1 18//1 2//1
f 9//2 2//2 50//2
f 54//3 27//3 4//3
f 35//4 43//4 1//4
f 24//5 5//5 52//5
f 56//6 38//6 7//6
f 32//7 45//7 6//7
f 25//8 6//8 33//8
f 41//9 8//9 14//9
f 20//10 8//10 48//10
f 5//11 23//11 29//11
f 10//12 49//12 7//12
f 8//13 19//13 15//13
f 37//14 11//14 7//14
f 6//15 44//15 34//15
f 5//16 28//16 53//16
f 47//17 3//17 21//17
f 1//18 42//18 13//18
f 22//19 3//19 30//19
f 39//20 55//20 4//20
f 4//21 26//21 40//21
f 2//22 17//22 51//22
f 31//23 3//23 46//23
f 13//24 14//24 16//24
f 21//25 22//25 19//25
f 28//26 30//26 25//26
f 37//27 38//27 35//27
f 44//28 46//28 41//28
f 52//29 54//29 51//29
f 16//30 2//30 9//30
f 17//31 2//31 18//31
f 32//32 6//32 25//32
f 33//33 6//33 34//33
f 48//34 8//34 41//34
f 56//35 7//35 49//35
f 1//36 13//36 12//36
f 3//37 22//37 21//37
f 5//38 29//38 28//38
f 7//39 38//39 37//39
f 6//40 45//40 44//40
f 5//41 53//41 52//41
f 46//42 45//42 32//42
f 34//43 44//43 43//43
f 39//44 38//44 56//44
f 53//45 28//45 27//45
f 26//46 25//46 33//46
f 15//47 19//47 18//47
f 26//48 4//48 27//48
f 54//49 4//49 55//49
f 46//50 3//50 47//50
f 35//51 1//51 36//51
f 14//52 8//52 15//52
f 23//53 5//53 24//53
f 3//54 31//54 30//54
f 2//55 51//55 50//55
f 1//56 43//56 42//56
f 4//57 40//57 39//57
f 7//58 11//58 10//58
f 8//59 20//59 19//59
f 23//60 22//60 30//60
f 21//61 20//61 48//61
f 50//62 49//62 10//62
f 17//63 24//63 52//63
f 12//64 11//64 37//64
f 42//65 41//65 14//65
f 1//66 12//66 36//66
f 16//67 9//67 10//67
f 10//68 11//68 13//68
f 12//69 13//69 11//69
f 14//24 15//24 16//24
f 16//68 10//68 13//68
f 24//70 17//70 18//70
f 18//70 19//70 24//70
f 20//71 21//71 19//71
f 22//72 23//72 24//72
f 24//25 19//25 22//25
f 32//73 25//73 31//73
f 26//74 27//74 28//74
f 28//75 29//75 30//75
f 30//26 31//26 25//26
f 25//74 26//74 28//74
f 40//76 33//76 34//76
f 34//76 35//76 40//76
f 36//77 37//77 35//77
f 38//78 39//78 40//78
f 40//27 35//27 38//27
f 48//79 41//79 47//79
f 42//80 43//80 44//80
f 44//81 45//81 46//81
f 46//28 47//28 41//28
f 41//80 42//80 44//80
f 56//82 49//82 51//82
f 50//83 51//83 49//83
f 52//29 53//29 54//29
f 54//84 55//84 56//84
f 56//82 51//82 54//82
f 31//42 46//42 32//42
f 35//43 34//43 43//43
f 55//44 39//44 56//44
f 54//45 53//45 27//45
f 40//46 26//46 33//46
f 16//47 15//47 18//47
f 29//60 23//60 30//60
f 47//61 21//61 48//61
f 9//62 50//62 10//62
f 51//63 17//63 52//63
f 36//64 12//64 37//64
f 13//65 42//65 14//65
