# Blender v2.76 (sub 0) OBJ File: 'cyber_ice.blend'
# www.blender.org
v -0.375860 -0.272086 0.081205
v 0.160440 -0.136203 -0.414730
v -0.105417 0.478564 0.022776
v 0.317344 -0.136203 0.311503
v 0.373619 0.241462 -0.080721
v -0.162681 0.105579 0.415214
v 0.103176 -0.509188 -0.022291
v -0.319585 0.105579 -0.311019
v -0.027630 -0.095346 -0.078810
v -0.029992 -0.106380 -0.066021
v -0.039714 -0.108843 -0.057031
v -0.055050 -0.102293 -0.053453
v -0.062261 -0.091931 -0.059388
v -0.060528 -0.079347 -0.072028
v -0.051357 -0.077024 -0.080509
v -0.035782 -0.085222 -0.083874
v 0.023153 0.048723 -0.090108
v 0.011298 0.046399 -0.094046
v -0.004277 0.054598 -0.090681
v -0.009611 0.064721 -0.082703
v -0.002179 0.075756 -0.072030
v 0.010386 0.078219 -0.067855
v 0.025832 0.071669 -0.070928
v 0.029949 0.061307 -0.079310
v 0.033541 0.054598 0.084358
v 0.049116 0.046399 0.080993
v 0.058287 0.048723 0.072513
v 0.060020 0.061307 0.059873
v 0.052809 0.071669 0.053937
v 0.037473 0.078219 0.057515
v 0.027751 0.075756 0.066505
v 0.025389 0.064721 0.079294
v -0.013539 -0.077024 0.094530
v -0.025393 -0.079347 0.090592
v -0.032190 -0.091931 0.079795
v -0.028073 -0.102293 0.071412
v -0.012627 -0.108843 0.068339
v -0.000062 -0.106380 0.072514
v 0.007370 -0.095346 0.083187
v 0.002036 -0.085222 0.091165
v -0.107059 0.028556 0.004365
v -0.108792 0.015972 0.017005
v -0.106108 0.015972 0.029424
v -0.099312 0.028556 0.040222
v -0.093798 0.041358 0.039698
v -0.091917 0.052298 0.026748
v -0.094761 0.052298 0.013584
v -0.101820 0.041358 0.002566
v 0.089676 -0.082923 -0.026264
v 0.091557 -0.071983 -0.039214
v 0.097071 -0.059180 -0.039738
v 0.103868 -0.046596 -0.028940
v 0.106551 -0.046596 -0.016521
v 0.104818 -0.059180 -0.003881
v 0.099579 -0.071983 -0.002082
v 0.092520 -0.082923 -0.013100
vn -0.815100 0.251200 -0.522100
vn 0.127700 -0.973500 0.189900
vn 0.738300 0.571700 -0.357900
vn -0.165000 0.322100 0.932200
vn 0.165000 -0.322100 -0.932200
vn 0.678800 0.001100 0.734300
vn -0.127700 0.973500 -0.189900
vn 0.815100 -0.251200 0.522100
vn -0.738300 -0.571700 0.357900
vn -0.037900 0.973500 0.225700
vn -0.434600 0.895700 0.093900
vn 0.315100 0.001100 -0.949100
vn 0.526800 -0.251200 -0.812000
vn -0.928100 -0.313800 0.200500
vn -0.820200 -0.571700 -0.021200
vn 0.535200 -0.322100 0.780900
vn -0.678800 -0.001100 -0.734300
vn -0.535200 0.322100 -0.780900
vn 0.928100 0.313800 -0.200500
vn 0.037900 -0.973500 -0.225700
vn -0.526800 0.251200 0.812000
vn 0.820200 0.571700 0.021200
vn -0.315100 -0.001100 0.949100
vn -0.457100 -0.598200 -0.658200
vn 0.122000 0.649500 -0.750500
vn 0.421000 0.649500 0.633200
vn -0.122000 -0.649500 0.750500
vn -0.899800 0.390600 0.194400
vn 0.923500 -0.327600 -0.199500
vn -0.668700 -0.684100 -0.291200
vn -0.005100 0.868000 -0.496600
vn 0.668700 0.684100 0.291200
vn 0.005100 -0.868000 0.496600
vn -0.722700 0.377200 0.579100
vn 0.977000 0.029000 -0.211100
vn -0.071800 -0.532900 -0.843100
vn 0.252100 0.282500 -0.925600
vn 0.071800 0.532900 0.843100
vn -0.252100 -0.282500 0.925600
vn -0.897400 0.377200 -0.229100
vn 0.707500 -0.690000 -0.152900
vn -0.337700 0.742600 0.578300
vn -0.721800 -0.182900 0.667500
vn 0.546300 -0.742600 0.387300
vn 0.933000 0.182900 0.310000
vn 0.211200 0.000000 0.977400
vn -0.211200 -0.000000 -0.977400
vn 0.200300 0.868000 0.454500
vn 0.722700 -0.377200 -0.579100
vn -0.977000 -0.029000 0.211100
vn 0.282600 -0.532900 0.797600
vn -0.200300 -0.868000 -0.454500
vn -0.282600 0.532900 -0.797600
vn 0.611700 0.282500 0.738900
vn 0.897400 -0.377200 0.229100
vn -0.707500 0.690000 0.152900
vn -0.488900 -0.684100 0.541300
vn -0.611700 -0.282500 -0.738900
vn 0.488900 0.684100 -0.541300
vn 0.375400 0.923300 -0.081100
vn -0.546300 0.742600 -0.387300
vn 0.337700 -0.742600 -0.578300
vn 0.721800 0.182900 -0.667500
vn -0.375400 -0.923300 0.081100
vn -0.933000 -0.182900 -0.310000
vn 0.434600 -0.895700 -0.093900
vn -0.412100 -0.650800 -0.637700
vn -0.421000 -0.649500 -0.633200
vn -0.425300 -0.654200 -0.625400
vn 0.144600 0.598200 -0.788200
vn 0.112100 0.650800 -0.750900
vn 0.129200 0.654200 -0.745200
vn 0.412100 0.650800 0.637700
vn 0.457100 0.598200 0.658200
vn 0.425300 0.654200 0.625400
vn -0.144600 -0.598200 0.788200
vn -0.129200 -0.654200 0.745200
vn -0.112100 -0.650800 0.750900
vn -0.900100 0.394400 0.185100
vn -0.923500 0.327600 0.199500
vn -0.896200 0.394400 0.203000
vn 0.899800 -0.390600 -0.194400
vn 0.896200 -0.394400 -0.203000
vn 0.900100 -0.394400 -0.185100
s off
f 16//1 18//1 2//1
f 9//2 2//2 50//2
f 54//3 27//3 4//3
f 35//4 43//4 1//4
f 24//5 5//5 52//5
f 56//6 38//6 7//6
f 32//7 45//7 6//7
f 25//8 6//8 33//8
f 41//9 8//9 14//9
f 20//10 8//10 48//10
f 5//11 23//11 29//11
f 10//12 49//12 7//12
f 8//13 19//13 15//13
f 37//14 11//14 7//14
f 6//15 44//15 34//15
f 5//16 28//16 53//16
f 47//17 3//17 21//17
f 1//18 42//18 13//18
f 22//19 3//19 30//19
f 39//20 55//20 4//20
f 4//21 26//21 40//21
f 2//22 17//22 51//22
f 31//23 3//23 46//23
f 13//24 14//24 16//24
f 21//25 22//25 19//25
f 28//26 30//26 25//26
f 37//27 38//27 35//27
f 44//28 46//28 41//28
f 52//29 54//29 51//29
f 16//30 2//30 9//30
f 17//31 2//31 18//31
f 32//32 6//32 25//32
f 33//33 6//33 34//33
f 48//34 8//34 41//34
f 56//35 7//35 49//35
f 1//36 13//36 12//36
f 3//37 22//37 21//37
f 5//38 29//38 28//38
f 7//39 38//39 37//39
f 6//40 45//40 44//40
f 5//41 53//41 52//41
f 46//42 45//42 32//42
f 34//43 44//43 43//43
f 39//44 38//44 56//44
f 53//45 28//45 27//45
f 26//46 25//46 33//46
f 15//47 19//47 18//47
f 26//48 4//48 27//48
f 54//49 4//49 55//49
f 46//50 3//50 47//50
f 35//51 1//51 36//51
f 14//52 8//52 15//52
f 23//53 5//53 24//53
f 3//54 31//54 30//54
f 2//55 51//55 50//55
f 1//56 43//56 42//56
f 4//57 40//57 39//57
f 7//58 11//58 10//58
f 8//59 20//59 19//59
f 23//60 22//60 30//60
f 21//61 20//61 48//61
f 50//62 49//62 10//62
f 17//63 24//63 52//63
f 12//64 11//64 37//64
f 42//65 41//65 14//65
f 1//66 12//66 36//66
f 16//67 9//67 10//67
f 10//68 11//68 13//68
f 12//69 13//69 11//69
f 14//24 15//24 16//24
f 16//68 10//68 13//68
f 24//70 17//70 18//70
f 18//70 19//70 24//70
f 20//71 21//71 19//71
f 22//72 23//72 24//72
f 24//25 19//25 22//25
f 32//73 25//73 31//73
f 26//74 27//74 28//74
f 28//75 29//75 30//75
f 30//26 31//26 25//26
f 25//74 26//74 28//74
f 40//76 33//76 34//76
f 34//76 35//76 40//76
f 36//77 37//77 35//77
f 38//78 39//78 40//78
f 40//27 35//27 38//27
f 48//79 41//79 47//79
f 42//80 43//80 44//80
f 44//81 45//81 46//81
f 46//28 47//28 41//28
f 41//80 42//80 44//80
f 56//82 49//82 51//82
f 50//83 51//83 49//83
f 52//29 53//29 54//29
f 54//84 55//84 56//84
f 56//82 51//82 54//82
f 31//42 46//42 32//42
f 35//43 34//43 43//43
f 55//44 39//44 56//44
f 54//45 53//45 27//45
f 40//46 26//46 33//46
f 16//47 15//47 18//47
f 29//60 23//60 30//60
f 47//61 21//61 48//61
f 9//62 50//62 10//62
f 51//63 17//63 52//63
f 36//64 12//64 37//64
f 13//65 42//65 14//65
