v -0.376785 -0.111192 -0.570776
v 0.117745 0.507387 -0.456957
v 0.178202 -0.608479 -0.279487
v 0.672731 0.010100 -0.165668
v -0.672731 -0.010100 0.165668
v -0.178202 0.608479 0.279487
v -0.117745 -0.507387 0.456957
v 0.376785 0.111192 0.570776
vn 0.369900 -0.126300 -0.920400
vn 0.693700 -0.621500 0.364100
vn -0.369900 0.126300 0.920400
vn -0.693700 0.621500 -0.364100
vn -0.618100 -0.773100 -0.142300
vn 0.618100 0.773100 0.142300
s off
f 1//1 2//1 4//1
f 4//2 8//2 7//2
f 8//3 6//3 5//3
f 5//4 6//4 2//4
f 3//5 7//5 5//5
f 4//6 2//6 6//6
f 3//1 1//1 4//1
f 3//2 4//2 7//2
f 7//3 8//3 5//3
f 1//4 5//4 2//4
f 1//5 3//5 5//5
f 8//6 4//6 6//6
