# Blender v2.76 (sub 0) OBJ File: 'cyber_item.blend'
# www.blender.org
v 0.459048 -0.365452 -0.161429
v 0.407407 0.432426 -0.131783
v 0.377505 -0.387137 0.280162
v 0.325864 0.410740 0.309808
v -0.326081 -0.410798 -0.308636
v -0.377722 0.387079 -0.278990
v -0.407624 -0.432483 0.132955
v -0.459265 0.365394 0.162601
vn 0.981300 0.056700 0.184000
vn -0.181400 -0.048200 0.982200
vn -0.981300 -0.056700 -0.184000
vn 0.181400 0.048200 -0.982200
vn 0.064500 -0.997200 -0.037100
vn -0.064500 0.997200 0.037100
s off
f 2//1 4//1 3//1
f 4//2 8//2 7//2
f 8//3 6//3 5//3
f 6//4 2//4 1//4
f 7//5 5//5 1//5
f 8//6 4//6 2//6
f 1//1 2//1 3//1
f 3//2 4//2 7//2
f 7//3 8//3 5//3
f 5//4 6//4 1//4
f 3//5 7//5 1//5
f 6//6 8//6 2//6
