# Blender v2.76 (sub 0) OBJ File: 'cyber_data.blend'
# www.blender.org
v -0.047743 -0.426675 0.543861
v -0.293692 -0.595338 -0.198578
v 0.633550 -0.127154 0.250124
v 0.387600 -0.295817 -0.492315
v -0.387600 0.295817 0.492315
v -0.633550 0.127154 -0.250124
v 0.293692 0.595338 0.198578
v 0.047743 0.426675 -0.543861
vn 0.424800 -0.903000 0.064400
vn 0.851500 0.374400 -0.367100
vn -0.424800 0.903000 -0.064400
vn -0.851500 -0.374400 0.367100
vn 0.307400 0.210800 0.927900
vn -0.307400 -0.210800 -0.927900
s off
f 1//1 2//1 4//1
f 4//2 8//2 7//2
f 8//3 6//3 5//3
f 5//4 6//4 2//4
f 3//5 7//5 5//5
f 4//6 2//6 6//6
f 3//1 1//1 4//1
f 3//2 4//2 7//2
f 7//3 8//3 5//3
f 1//4 5//4 2//4
f 1//5 3//5 5//5
f 8//6 4//6 6//6
