# Blender v2.76 (sub 0) OBJ File: 'cyber_item.blend'
# www.blender.org
v 0.551622 -0.247717 -0.068478
v 0.328163 0.506800 0.076175
v 0.357717 -0.378738 0.315392
v 0.134258 0.375778 0.460045
v -0.134773 -0.376126 -0.459026
v -0.358232 0.378390 -0.314373
v -0.328678 -0.507148 -0.075156
v -0.552137 0.247369 0.069497
vn 0.857900 0.160500 0.488100
vn -0.431300 -0.291400 0.853800
vn -0.857900 -0.160500 -0.488100
vn 0.431300 0.291400 -0.853800
vn 0.279300 -0.943000 -0.180800
vn -0.279300 0.943000 0.180800
s off
f 2//1 4//1 3//1
f 4//2 8//2 7//2
f 8//3 6//3 5//3
f 6//4 2//4 1//4
f 7//5 5//5 1//5
f 8//6 4//6 2//6
f 1//1 2//1 3//1
f 3//2 4//2 7//2
f 7//3 8//3 5//3
f 5//4 6//4 1//4
f 3//5 7//5 1//5
f 6//6 8//6 2//6
