v 0.131747 -0.321357 0.499712
v -0.186987 -0.543596 -0.199697
v 0.503936 -0.185836 0.287036
v 0.185203 -0.408074 -0.412373
v -0.184215 0.408434 0.411808
v -0.502948 0.186195 -0.287601
v 0.187975 0.543956 0.199133
v -0.130759 0.321717 -0.500276
vn 0.394900 -0.912100 0.109900
vn 0.827900 0.301400 -0.473100
vn -0.394900 0.912100 -0.109900
vn -0.827900 -0.301400 0.473100
vn 0.398400 0.277800 0.874200
vn -0.398400 -0.277800 -0.874200
s off
f 2//1 4//1 3//1
f 4//2 8//2 7//2
f 8//3 6//3 5//3
f 6//4 2//4 1//4
f 7//5 5//5 1//5
f 8//6 4//6 2//6
f 1//1 2//1 3//1
f 3//2 4//2 7//2
f 7//3 8//3 5//3
f 5//4 6//4 1//4
f 3//5 7//5 1//5
f 6//6 8//6 2//6
