v -0.488944 0.225483 0.436127
v -0.019712 -0.411122 0.557410
v 0.146573 0.648194 0.196153
v 0.615805 0.011589 0.317436
v -0.615805 -0.011589 -0.317436
v -0.146573 -0.648194 -0.196153
v 0.019712 0.411122 -0.557410
v 0.488944 -0.225483 -0.436127
vn 0.158600 0.296300 0.941800
vn 0.794300 0.528300 -0.299900
vn -0.158600 -0.296300 -0.941800
vn -0.794300 -0.528300 0.299900
vn -0.586500 0.795700 -0.151600
vn 0.586500 -0.795700 0.151600
s off
f 1//1 2//1 4//1
f 4//2 8//2 7//2
f 8//3 6//3 5//3
f 5//4 6//4 2//4
f 3//5 7//5 5//5
f 4//6 2//6 6//6
f 3//1 1//1 4//1
f 3//2 4//2 7//2
f 7//3 8//3 5//3
f 1//4 5//4 2//4
f 1//5 3//5 5//5
f 8//6 4//6 6//6
