v -0.443417 0.079561 -0.137649
v 0.225577 -0.126809 -0.386429
v 0.199319 0.386954 0.226260
v -0.022584 -0.380631 0.266275
v 0.423855 -0.098146 0.122984
v -0.245139 0.108224 0.371764
v -0.218881 -0.405539 -0.240924
v 0.003022 0.362047 -0.280940
v -0.035614 -0.027384 -0.118520
v -0.049769 -0.035370 -0.113345
v -0.061896 -0.031629 -0.108835
v -0.069820 -0.016833 -0.105800
v -0.065619 -0.003628 -0.107405
v -0.051043 0.005806 -0.111842
v -0.039603 0.002277 -0.116096
v -0.032588 -0.013817 -0.119688
v 0.087050 0.032446 -0.048978
v 0.079854 0.040316 -0.055886
v 0.072839 0.056410 -0.052294
v 0.071408 0.065419 -0.041740
v 0.077546 0.065204 -0.025828
v 0.085174 0.056862 -0.018506
v 0.092925 0.041889 -0.021088
v 0.093617 0.033689 -0.032351
v 0.013026 -0.004767 0.105023
v 0.020041 -0.020861 0.101432
v 0.031481 -0.024390 0.097177
v 0.046057 -0.014956 0.092740
v 0.050258 -0.001752 0.091135
v 0.042334 0.013044 0.094170
v 0.030207 0.016785 0.098680
v 0.016052 0.008800 0.103855
v -0.099416 -0.058900 0.041221
v -0.106612 -0.051031 0.034314
v -0.113179 -0.052274 0.017686
v -0.112487 -0.060474 0.006423
v -0.104736 -0.075446 0.003842
v -0.097108 -0.083788 0.011164
v -0.090970 -0.084003 0.027076
v -0.092401 -0.074995 0.037629
v -0.055374 0.095961 -0.004615
v -0.069950 0.086527 -0.000178
v -0.074193 0.082186 0.010983
v -0.067627 0.083429 0.027611
v -0.056304 0.087923 0.034406
v -0.042441 0.096228 0.028950
v -0.037943 0.100829 0.017119
v -0.043615 0.100901 0.001034
v 0.022879 -0.114813 -0.043615
v 0.036742 -0.106508 -0.049071
v 0.048065 -0.102014 -0.042275
v 0.054631 -0.100771 -0.025648
v 0.050388 -0.105112 -0.014486
v 0.035812 -0.114546 -0.010049
v 0.024053 -0.119486 -0.015699
v 0.018381 -0.119414 -0.031783
vn -0.133700 0.859400 -0.493500
vn -0.576100 -0.769300 -0.276200
vn 0.988500 -0.093700 0.118700
vn -0.370000 0.153000 0.916400
vn 0.370000 -0.153000 -0.916400
vn 0.089400 -0.635000 0.767300
vn 0.576100 0.769300 0.276200
vn 0.133700 -0.859400 0.493500
vn -0.988500 0.093700 -0.118700
vn 0.434100 0.624000 0.649700
vn 0.193300 0.887400 0.418600
vn 0.664700 -0.046700 -0.745700
vn 0.589600 -0.393100 -0.705500
vn -0.886000 0.431700 -0.169000
vn -0.859000 0.226200 -0.459400
vn -0.215400 -0.751700 0.623300
vn -0.089400 0.635000 -0.767300
vn 0.215400 0.751700 -0.623300
vn 0.886000 -0.431700 0.169000
vn -0.434100 -0.624000 -0.649700
vn -0.589600 0.393100 0.705500
vn 0.859000 -0.226200 0.459400
vn -0.664700 0.046700 0.745700
vn -0.329700 0.066500 -0.941700
vn 0.820900 0.482000 -0.306200
vn 0.348100 -0.001600 0.937500
vn -0.820900 -0.482000 0.306200
vn -0.453700 0.875200 0.167800
vn 0.508400 -0.850100 -0.137300
vn -0.695300 0.093700 -0.712600
vn 0.742700 0.669500 -0.011100
vn 0.695300 -0.093700 0.712600
vn -0.742700 -0.669500 0.011100
vn -0.531700 0.663400 0.526500
vn 0.757000 -0.652600 0.034000
vn 0.049300 -0.135900 -0.989500
vn 0.776300 0.179600 -0.604200
vn -0.049300 0.135900 0.989500
vn -0.776300 -0.179600 0.604200
vn -0.255500 0.945900 -0.199900
vn 0.133400 -0.939800 -0.314700
vn -0.066600 0.623100 0.779300
vn -0.900400 0.277800 0.334800
vn -0.263400 -0.960600 0.088600
vn 0.566400 -0.619400 0.543600
vn -0.334000 -0.341600 0.878500
vn 0.334000 0.341600 -0.878500
vn 0.417700 0.337100 0.843700
vn 0.531700 -0.663400 -0.526500
vn -0.757000 0.652600 -0.034000
vn -0.511400 -0.709400 0.485100
vn -0.417700 -0.337100 -0.843700
vn 0.511400 0.709400 -0.485100
vn 0.207600 -0.402200 0.891700
vn 0.255500 -0.945900 0.199900
vn -0.133400 0.939800 0.314700
vn -0.979700 -0.197200 0.035500
vn -0.207600 0.402200 -0.891700
vn 0.979700 0.197200 -0.035500
vn 0.823000 0.348700 0.448500
vn 0.263400 0.960600 -0.088600
vn 0.066600 -0.623100 -0.779300
vn 0.900400 -0.277800 -0.334800
vn -0.823000 -0.348700 -0.448500
vn -0.566400 0.619400 -0.543600
vn -0.193300 -0.887400 -0.418600
vn -0.340900 -0.004900 -0.940100
vn -0.348100 0.001600 -0.937500
vn -0.357400 0.000200 -0.933900
vn 0.824000 0.439100 -0.358200
vn 0.815400 0.490200 -0.307900
vn 0.825800 0.478900 -0.297900
vn 0.340900 0.004900 0.940100
vn 0.329700 -0.066500 0.941700
vn 0.357400 -0.000200 0.933900
vn -0.824000 -0.439100 0.358200
vn -0.825800 -0.478900 0.297900
vn -0.815400 -0.490200 0.307900
vn -0.447200 0.879700 0.161600
vn -0.508400 0.850100 0.137300
vn -0.453300 0.873400 0.177700
vn 0.453700 -0.875200 -0.167800
vn 0.453300 -0.873400 -0.177700
vn 0.447200 -0.879700 -0.161600
s off
f 16//1 18//1 2//1
f 9//2 2//2 50//2
f 54//3 27//3 4//3
f 35//4 43//4 1//4
f 24//5 5//5 52//5
f 56//6 38//6 7//6
f 32//7 45//7 6//7
f 25//8 6//8 33//8
f 41//9 8//9 14//9
f 20//10 8//10 48//10
f 5//11 23//11 29//11
f 10//12 49//12 7//12
f 8//13 19//13 15//13
f 37//14 11//14 7//14
f 6//15 44//15 34//15
f 5//16 28//16 53//16
f 47//17 3//17 21//17
f 1//18 42//18 13//18
f 22//19 3//19 30//19
f 39//20 55//20 4//20
f 4//21 26//21 40//21
f 2//22 17//22 51//22
f 31//23 3//23 46//23
f 13//24 14//24 16//24
f 21//25 22//25 19//25
f 28//26 30//26 25//26
f 37//27 38//27 35//27
f 44//28 46//28 41//28
f 52//29 54//29 51//29
f 16//30 2//30 9//30
f 17//31 2//31 18//31
f 32//32 6//32 25//32
f 33//33 6//33 34//33
f 48//34 8//34 41//34
f 56//35 7//35 49//35
f 1//36 13//36 12//36
f 3//37 22//37 21//37
f 5//38 29//38 28//38
f 7//39 38//39 37//39
f 6//40 45//40 44//40
f 5//41 53//41 52//41
f 46//42 45//42 32//42
f 34//43 44//43 43//43
f 39//44 38//44 56//44
f 53//45 28//45 27//45
f 26//46 25//46 33//46
f 15//47 19//47 18//47
f 26//48 4//48 27//48
f 54//49 4//49 55//49
f 46//50 3//50 47//50
f 35//51 1//51 36//51
f 14//52 8//52 15//52
f 23//53 5//53 24//53
f 3//54 31//54 30//54
f 2//55 51//55 50//55
f 1//56 43//56 42//56
f 4//57 40//57 39//57
f 7//58 11//58 10//58
f 8//59 20//59 19//59
f 23//60 22//60 30//60
f 21//61 20//61 48//61
f 50//62 49//62 10//62
f 17//63 24//63 52//63
f 12//64 11//64 37//64
f 42//65 41//65 14//65
f 1//66 12//66 36//66
f 16//67 9//67 10//67
f 10//68 11//68 13//68
f 12//69 13//69 11//69
f 14//24 15//24 16//24
f 16//68 10//68 13//68
f 24//70 17//70 18//70
f 18//70 19//70 24//70
f 20//71 21//71 19//71
f 22//72 23//72 24//72
f 24//25 19//25 22//25
f 32//73 25//73 31//73
f 26//74 27//74 28//74
f 28//75 29//75 30//75
f 30//26 31//26 25//26
f 25//74 26//74 28//74
f 40//76 33//76 34//76
f 34//76 35//76 40//76
f 36//77 37//77 35//77
f 38//78 39//78 40//78
f 40//27 35//27 38//27
f 48//79 41//79 47//79
f 42//80 43//80 44//80
f 44//81 45//81 46//81
f 46//28 47//28 41//28
f 41//80 42//80 44//80
f 56//82 49//82 51//82
f 50//83 51//83 49//83
f 52//29 53//29 54//29
f 54//84 55//84 56//84
f 56//82 51//82 54//82
f 31//42 46//42 32//42
f 35//43 34//43 43//43
f 55//44 39//44 56//44
f 54//45 53//45 27//45
f 40//46 26//46 33//46
f 16//47 15//47 18//47
f 29//60 23//60 30//60
f 47//61 21//61 48//61
f 9//62 50//62 10//62
f 51//63 17//63 52//63
f 36//64 12//64 37//64
f 13//65 42//65 14//65
