# Blender v2.76 (sub 0) OBJ File: 'cyber_data.blend'
# www.blender.org
v 0.682263 -0.055317 0.107574
v 0.275041 0.632283 0.068452
v 0.113867 -0.365191 0.577742
v -0.293355 0.322409 0.538619
v 0.293355 -0.322409 -0.538619
v -0.113867 0.365191 -0.577742
v -0.275041 -0.632283 -0.068452
v -0.682263 0.055317 -0.107574
vn 0.486100 0.333800 0.807600
vn -0.710400 -0.387300 0.587600
vn -0.486100 -0.333800 -0.807600
vn 0.710400 0.387300 -0.587600
vn 0.509000 -0.859400 0.048900
vn -0.509000 0.859400 -0.048900
s off
f 1//1 2//1 4//1
f 4//2 8//2 7//2
f 8//3 6//3 5//3
f 5//4 6//4 2//4
f 3//5 7//5 5//5
f 4//6 2//6 6//6
f 3//1 1//1 4//1
f 3//2 4//2 7//2
f 7//3 8//3 5//3
f 1//4 5//4 2//4
f 1//5 3//5 5//5
f 8//6 4//6 6//6
