# Blender v2.76 (sub 0) OBJ File: 'cyber_item.blend'
# www.blender.org
v -0.131550 -0.361376 -0.471637
v 0.277901 0.324929 -0.433049
v 0.164461 -0.553633 -0.193182
v 0.573912 0.132672 -0.154595
v -0.573126 -0.133183 0.155334
v -0.163675 0.553122 0.193922
v -0.277115 -0.325440 0.433789
v 0.132336 0.360866 0.472376
vn 0.551900 -0.285200 -0.783600
vn 0.658400 -0.427600 0.619400
vn -0.551900 0.285200 0.783600
vn -0.658400 0.427600 -0.619400
vn -0.511800 -0.857800 -0.048200
vn 0.511800 0.857800 0.048200
s off
f 2//1 4//1 3//1
f 4//2 8//2 7//2
f 8//3 6//3 5//3
f 6//4 2//4 1//4
f 7//5 5//5 1//5
f 8//6 4//6 2//6
f 1//1 2//1 3//1
f 3//2 4//2 7//2
f 7//3 8//3 5//3
f 5//4 6//4 1//4
f 3//5 7//5 1//5
f 6//6 8//6 2//6
