# Blender v2.76 (sub 0) OBJ File: 'cyber_ice.blend'
# www.blender.org
v -0.278927 -0.354867 0.134777
v 0.081099 -0.074923 -0.451777
v -0.195694 0.439792 0.094559
v 0.404351 -0.074923 0.217208
v 0.283404 0.324562 -0.136940
v -0.076623 0.044618 0.449614
v 0.200171 -0.470097 -0.096722
v -0.399875 0.044618 -0.219371
v -0.024939 -0.095110 -0.079984
v -0.021766 -0.107013 -0.068187
v -0.028292 -0.112087 -0.057555
v -0.043346 -0.109423 -0.049994
v -0.053797 -0.100714 -0.053078
v -0.057859 -0.087457 -0.064431
v -0.051703 -0.082670 -0.074461
v -0.036022 -0.086892 -0.082038
v -0.010048 0.057152 -0.087533
v -0.021732 0.052364 -0.088943
v -0.037413 0.056587 -0.081366
v -0.042691 0.064805 -0.071406
v -0.035420 0.076708 -0.061590
v -0.023035 0.081782 -0.060095
v -0.007755 0.079118 -0.067191
v -0.003677 0.070409 -0.077296
v 0.040498 0.056587 0.079875
v 0.056179 0.052364 0.072298
v 0.062336 0.057152 0.062268
v 0.058274 0.070409 0.050915
v 0.047823 0.079118 0.047831
v 0.032768 0.081782 0.055392
v 0.026242 0.076708 0.066024
v 0.029415 0.064805 0.077821
v 0.026209 -0.082670 0.086780
v 0.014524 -0.087457 0.085370
v 0.008154 -0.100714 0.075133
v 0.012232 -0.109423 0.065028
v 0.027511 -0.112087 0.057932
v 0.039897 -0.107013 0.059426
v 0.047168 -0.095110 0.069243
v 0.041890 -0.086892 0.079203
v -0.106412 0.002936 0.031047
v -0.102350 -0.010322 0.042400
v -0.096823 -0.010322 0.053840
v -0.090452 0.002936 0.064077
v -0.088065 0.016672 0.063648
v -0.091712 0.028381 0.051794
v -0.097572 0.028381 0.039668
v -0.104592 0.016672 0.029443
v 0.096189 -0.058686 -0.053957
v 0.092541 -0.046977 -0.065811
v 0.094929 -0.033241 -0.066240
v 0.101299 -0.019983 -0.056003
v 0.106827 -0.019983 -0.044563
v 0.110889 -0.033241 -0.033210
v 0.109069 -0.046977 -0.031606
v 0.102048 -0.058686 -0.041831
vn -0.950800 0.082800 -0.298500
vn 0.372700 -0.926200 0.056000
vn 0.492300 0.743100 -0.453200
vn -0.000400 0.228900 0.973500
vn 0.000400 -0.228900 -0.973500
vn 0.819300 0.120600 0.560500
vn -0.372700 0.926200 -0.056000
vn 0.950800 -0.082800 0.298500
vn -0.492300 -0.743100 0.453200
vn -0.187700 0.926200 0.326800
vn -0.578800 0.766000 0.279700
vn 0.070000 0.120600 -0.990200
vn 0.357000 -0.082800 -0.930400
vn -0.764500 -0.528300 0.369400
vn -0.661000 -0.743100 0.104100
vn 0.762900 -0.228900 0.604600
vn -0.819300 -0.120600 -0.560500
vn -0.762900 0.228900 -0.604600
vn 0.764500 0.528300 -0.369400
vn 0.187700 -0.926200 -0.326800
vn -0.357000 0.082800 0.930400
vn 0.661000 0.743100 -0.104100
vn -0.070000 -0.120600 0.990200
vn -0.464600 -0.653800 -0.597200
vn -0.202400 0.696600 -0.688300
vn 0.413500 0.696600 0.586300
vn 0.202400 -0.696600 0.688300
vn -0.888300 0.163200 0.429200
vn 0.896200 -0.096200 -0.433100
vn -0.558600 -0.804200 -0.203000
vn -0.308000 0.867100 -0.391500
vn 0.558600 0.804200 0.203000
vn 0.308000 -0.867100 0.391500
vn -0.625200 0.171700 0.761300
vn 0.868700 0.263200 -0.419700
vn -0.158000 -0.492600 -0.855800
vn -0.043500 0.378400 -0.924600
vn 0.158000 0.492600 0.855800
vn 0.043500 -0.378400 0.924600
vn -0.985000 0.171700 0.016800
vn 0.779500 -0.500500 -0.376700
vn -0.338100 0.615500 0.712000
vn -0.484600 -0.376800 0.789500
vn 0.767900 -0.615500 0.177600
vn 0.919600 0.376800 0.110900
vn 0.435100 -0.000000 0.900400
vn -0.435100 -0.000000 -0.900400
vn 0.115300 0.867100 0.484600
vn 0.625200 -0.171700 -0.761300
vn -0.868700 -0.263200 0.419700
vn 0.572300 -0.492600 0.655600
vn -0.115300 -0.867100 -0.484600
vn -0.572300 0.492600 -0.655600
vn 0.697400 0.378400 0.608700
vn 0.985000 -0.171700 -0.016800
vn -0.779500 0.500500 0.376700
vn -0.188100 -0.804200 0.563800
vn -0.697400 -0.378400 -0.608700
vn 0.188100 0.804200 -0.563800
vn 0.140700 0.987700 -0.068000
vn -0.767900 0.615500 -0.177600
vn 0.338100 -0.615500 -0.712000
vn 0.484600 0.376800 -0.789500
vn -0.140700 -0.987700 0.068000
vn -0.919600 -0.376800 -0.110900
vn 0.578800 -0.766000 -0.279700
vn -0.405900 -0.695600 -0.592700
vn -0.413500 -0.696600 -0.586300
vn -0.414800 -0.702500 -0.578300
vn -0.179200 0.653800 -0.735200
vn -0.212200 0.695600 -0.686400
vn -0.195300 0.702500 -0.684300
vn 0.405900 0.695600 0.592700
vn 0.464600 0.653800 0.597200
vn 0.414800 0.702500 0.578300
vn 0.179200 -0.653800 0.735200
vn 0.195300 -0.702500 0.684300
vn 0.212200 -0.695600 0.686400
vn -0.891700 0.167300 0.420700
vn -0.896200 0.096200 0.433000
vn -0.883700 0.167300 0.437200
vn 0.888300 -0.163200 -0.429200
vn 0.883700 -0.167300 -0.437200
vn 0.896200 -0.096200 -0.433000
vn 0.891700 -0.167300 -0.420700
s off
f 16//1 18//1 2//1
f 9//2 2//2 50//2
f 54//3 27//3 4//3
f 35//4 43//4 1//4
f 24//5 5//5 52//5
f 56//6 38//6 7//6
f 32//7 45//7 6//7
f 25//8 6//8 33//8
f 41//9 8//9 14//9
f 20//10 8//10 48//10
f 5//11 23//11 29//11
f 10//12 49//12 7//12
f 8//13 19//13 15//13
f 37//14 11//14 7//14
f 6//15 44//15 34//15
f 5//16 28//16 53//16
f 47//17 3//17 21//17
f 1//18 42//18 13//18
f 22//19 3//19 30//19
f 39//20 55//20 4//20
f 4//21 26//21 40//21
f 2//22 17//22 51//22
f 31//23 3//23 46//23
f 13//24 14//24 16//24
f 21//25 22//25 19//25
f 28//26 30//26 25//26
f 37//27 38//27 35//27
f 44//28 46//28 41//28
f 52//29 54//29 51//29
f 16//30 2//30 9//30
f 17//31 2//31 18//31
f 32//32 6//32 25//32
f 33//33 6//33 34//33
f 48//34 8//34 41//34
f 56//35 7//35 49//35
f 1//36 13//36 12//36
f 3//37 22//37 21//37
f 5//38 29//38 28//38
f 7//39 38//39 37//39
f 6//40 45//40 44//40
f 5//41 53//41 52//41
f 46//42 45//42 32//42
f 34//43 44//43 43//43
f 39//44 38//44 56//44
f 53//45 28//45 27//45
f 26//46 25//46 33//46
f 15//47 19//47 18//47
f 26//48 4//48 27//48
f 54//49 4//49 55//49
f 46//50 3//50 47//50
f 35//51 1//51 36//51
f 14//52 8//52 15//52
f 23//53 5//53 24//53
f 3//54 31//54 30//54
f 2//55 51//55 50//55
f 1//56 43//56 42//56
f 4//57 40//57 39//57
f 7//58 11//58 10//58
f 8//59 20//59 19//59
f 23//60 22//60 30//60
f 21//61 20//61 48//61
f 50//62 49//62 10//62
f 17//63 24//63 52//63
f 12//64 11//64 37//64
f 42//65 41//65 14//65
f 1//66 12//66 36//66
f 16//67 9//67 10//67
f 10//68 11//68 13//68
f 12//69 13//69 11//69
f 14//24 15//24 16//24
f 16//68 10//68 13//68
f 24//70 17//70 18//70
f 18//70 19//70 24//70
f 20//71 21//71 19//71
f 22//72 23//72 24//72
f 24//25 19//25 22//25
f 32//73 25//73 31//73
f 26//74 27//74 28//74
f 28//75 29//75 30//75
f 30//26 31//26 25//26
f 25//74 26//74 28//74
f 40//76 33//76 34//76
f 34//76 35//76 40//76
f 36//77 37//77 35//77
f 38//78 39//78 40//78
f 40//27 35//27 38//27
f 48//79 41//79 47//79
f 42//80 43//80 44//80
f 44//81 45//81 46//81
f 46//28 47//28 41//28
f 41//80 42//80 44//80
f 56//82 49//82 51//82
f 50//83 51//83 49//83
f 52//84 53//84 54//84
f 54//85 55//85 56//85
f 56//82 51//82 54//82
f 31//42 46//42 32//42
f 35//43 34//43 43//43
f 55//44 39//44 56//44
f 54//45 53//45 27//45
f 40//46 26//46 33//46
f 16//47 15//47 18//47
f 29//60 23//60 30//60
f 47//61 21//61 48//61
f 9//62 50//62 10//62
f 51//63 17//63 52//63
f 36//64 12//64 37//64
f 13//65 42//65 14//65
