v 0.037073 0.259830 0.549048
v -0.222356 -0.463379 0.325848
v 0.443918 0.165201 0.382781
v 0.184489 -0.558009 0.159582
v -0.183409 0.557757 -0.160023
v -0.442838 -0.165452 -0.383223
v 0.223436 0.463128 -0.326289
v -0.035993 -0.260082 -0.549489
vn 0.275600 -0.372400 0.886200
vn 0.904900 -0.210500 -0.369800
vn -0.275600 0.372400 -0.886200
vn -0.904900 0.210500 0.369800
vn 0.324200 0.903900 0.279000
vn -0.324200 -0.903900 -0.279000
s off
f 2//1 4//1 3//1
f 4//2 8//2 7//2
f 8//3 6//3 5//3
f 6//4 2//4 1//4
f 7//5 5//5 1//5
f 8//6 4//6 2//6
f 1//1 2//1 3//1
f 3//2 4//2 7//2
f 7//3 8//3 5//3
f 5//4 6//4 1//4
f 3//5 7//5 1//5
f 6//6 8//6 2//6
