# Blender v2.76 (sub 0) OBJ File: 'cyber_item.blend'
# www.blender.org
v 0.111798 -0.379817 0.462147
v -0.225573 -0.505754 -0.252328
v 0.491340 -0.248876 0.259849
v 0.153969 -0.374813 -0.454626
v -0.152962 0.375161 0.454089
v -0.490333 0.249224 -0.260386
v 0.226580 0.506102 0.251791
v -0.110790 0.380164 -0.462684
vn 0.330900 -0.943600 0.010100
vn 0.844200 0.291300 -0.450000
vn -0.330900 0.943600 -0.010100
vn -0.844200 -0.291300 0.450000
vn 0.421700 0.157400 0.893000
vn -0.421700 -0.157400 -0.893000
s off
f 2//1 4//1 3//1
f 4//2 8//2 7//2
f 8//3 6//3 5//3
f 6//4 2//4 1//4
f 7//5 5//5 1//5
f 8//6 4//6 2//6
f 1//1 2//1 3//1
f 3//2 4//2 7//2
f 7//3 8//3 5//3
f 5//4 6//4 1//4
f 3//5 7//5 1//5
f 6//6 8//6 2//6
