# Blender v2.76 (sub 0) OBJ File: 'cyber_item.blend'
# www.blender.org
v 0.372693 -0.377241 0.298543
v 0.525528 0.205902 -0.227517
v 0.183481 -0.077843 0.575457
v 0.336316 0.505300 0.049397
v -0.336818 -0.504505 -0.048662
v -0.183983 0.078638 -0.574722
v -0.526031 -0.205107 0.228253
v -0.373196 0.378036 -0.297808
vn 0.886800 0.159100 0.434000
vn -0.420900 0.666000 0.615900
vn -0.886800 -0.159100 -0.434000
vn 0.420900 -0.666000 -0.615900
vn -0.191000 -0.728800 0.657500
vn 0.191000 0.728800 -0.657500
s off
f 2//1 4//1 3//1
f 4//2 8//2 7//2
f 8//3 6//3 5//3
f 6//4 2//4 1//4
f 7//5 5//5 1//5
f 8//6 4//6 2//6
f 1//1 2//1 3//1
f 3//2 4//2 7//2
f 7//3 8//3 5//3
f 5//4 6//4 1//4
f 3//5 7//5 1//5
f 6//6 8//6 2//6
