v -0.250499 -0.373291 0.140713
v 0.056673 -0.058161 -0.457928
v -0.212771 0.425557 0.119520
v 0.420553 -0.058161 0.189856
v 0.256455 0.343350 -0.144059
v -0.050717 0.028220 0.454583
v 0.218726 -0.455497 -0.122865
v -0.414598 0.028220 -0.193201
v -0.024730 -0.094168 -0.081155
v -0.020193 -0.106189 -0.069938
v -0.025761 -0.111901 -0.059086
v -0.040436 -0.110280 -0.050546
v -0.051512 -0.102085 -0.052725
v -0.056981 -0.088774 -0.063404
v -0.051728 -0.083385 -0.073642
v -0.036346 -0.086526 -0.082282
v -0.018545 0.058833 -0.084995
v -0.030021 0.053444 -0.085835
v -0.045403 0.056585 -0.077195
v -0.050483 0.064227 -0.066689
v -0.043265 0.076248 -0.056977
v -0.031101 0.081960 -0.056087
v -0.016173 0.080339 -0.064176
v -0.012271 0.072144 -0.074768
v 0.042301 0.056585 0.078937
v 0.057683 0.053444 0.070296
v 0.062936 0.058833 0.060059
v 0.057467 0.072144 0.049380
v 0.046391 0.080339 0.047201
v 0.031716 0.081960 0.055741
v 0.026148 0.076248 0.066592
v 0.030686 0.064227 0.077809
v 0.035976 -0.083385 0.082490
v 0.024500 -0.088774 0.081650
v 0.018226 -0.102085 0.071423
v 0.022128 -0.110280 0.060831
v 0.037056 -0.111901 0.052741
v 0.049220 -0.106189 0.053632
v 0.056438 -0.094168 0.063343
v 0.051358 -0.086526 0.073849
v -0.104272 -0.003810 0.037535
v -0.098804 -0.017121 0.048215
v -0.092581 -0.017121 0.059292
v -0.086306 -0.003810 0.069519
v -0.084692 0.010045 0.069360
v -0.089696 0.021847 0.058109
v -0.096292 0.021847 0.046366
v -0.103297 0.010045 0.036239
v 0.095651 -0.051788 -0.061454
v 0.090647 -0.039986 -0.072705
v 0.092262 -0.026131 -0.072864
v 0.098536 -0.012820 -0.062637
v 0.104759 -0.012820 -0.051560
v 0.110228 -0.026131 -0.040881
v 0.109252 -0.039986 -0.039584
v 0.102247 -0.051788 -0.049712
vn -0.970700 0.037800 -0.237500
vn 0.424700 -0.905300 0.005300
vn 0.422400 0.781200 -0.459700
vn 0.048000 0.202300 0.978100
vn -0.048000 -0.202300 -0.978100
vn 0.845000 0.150900 0.513000
vn -0.424700 0.905300 -0.005300
vn 0.970700 -0.037800 0.237500
vn -0.422400 -0.781200 0.459700
vn -0.216500 0.905300 0.365500
vn -0.600500 0.725000 0.337300
vn 0.001600 0.150900 -0.988600
vn 0.302200 -0.037800 -0.952500
vn -0.710500 -0.579600 0.399100
vn -0.612300 -0.781200 0.121600
vn 0.810300 -0.202300 0.549900
vn -0.845000 -0.150900 -0.513000
vn -0.810300 0.202300 -0.549900
vn 0.710500 0.579600 -0.399100
vn 0.216500 -0.905300 -0.365500
vn -0.302200 0.037800 0.952500
vn 0.612300 0.781200 -0.121600
vn -0.001600 -0.150900 0.988600
vn -0.465200 -0.662300 -0.587300
vn -0.282000 0.702500 -0.653400
vn 0.411300 0.702500 0.580800
vn 0.282000 -0.702500 0.653400
vn -0.867300 0.102100 0.487200
vn 0.871300 -0.034700 -0.489500
vn -0.526200 -0.828200 -0.192800
vn -0.378000 0.858800 -0.345700
vn 0.526200 0.828200 0.192800
vn 0.378000 -0.858800 0.345700
vn -0.584900 0.116300 0.802700
vn 0.825400 0.322200 -0.463600
vn -0.184300 -0.477500 -0.859100
vn -0.121400 0.400100 -0.908400
vn 0.184300 0.477500 0.859100
vn 0.121400 -0.400100 0.908400
vn -0.989800 0.116300 0.081800
vn 0.780300 -0.446200 -0.438300
vn -0.325600 0.576400 0.749500
vn -0.413400 -0.424100 0.805700
vn 0.809400 -0.576400 0.111900
vn 0.903200 0.424100 0.066100
vn 0.489800 -0.000000 0.871900
vn -0.489800 -0.000000 -0.871900
vn 0.098500 0.858800 0.502700
vn 0.584900 -0.116300 -0.802700
vn -0.825400 -0.322200 0.463600
vn 0.637700 -0.477500 0.604400
vn -0.098500 -0.858800 -0.502700
vn -0.637700 0.477500 -0.604400
vn 0.712600 0.400100 0.576300
vn 0.989800 -0.116300 -0.081800
vn -0.780300 0.446200 0.438300
vn -0.109100 -0.828200 0.549700
vn -0.712600 -0.400100 -0.576300
vn 0.109100 0.828200 -0.549700
vn 0.082900 0.995500 -0.046500
vn -0.809400 0.576400 -0.111900
vn 0.325600 -0.576400 -0.749500
vn 0.413400 0.424100 -0.805700
vn -0.082900 -0.995500 0.046500
vn -0.903200 -0.424100 -0.066100
vn 0.600500 -0.725000 -0.337300
vn -0.404100 -0.700900 -0.587700
vn -0.411300 -0.702500 -0.580800
vn -0.411700 -0.708700 -0.572900
vn -0.259600 0.662300 -0.702800
vn -0.291600 0.700900 -0.650900
vn -0.275100 0.708700 -0.649700
vn 0.404100 0.700900 0.587700
vn 0.465200 0.662300 0.587300
vn 0.411700 0.708700 0.572900
vn 0.259600 -0.662300 0.702800
vn 0.275100 -0.708700 0.649700
vn 0.291600 -0.700900 0.650900
vn -0.871400 0.106200 0.479000
vn -0.871300 0.034700 0.489500
vn -0.862400 0.106200 0.494900
vn 0.867300 -0.102100 -0.487200
vn 0.862400 -0.106200 -0.494900
vn 0.871400 -0.106200 -0.479000
s off
f 16//1 18//1 2//1
f 9//2 2//2 50//2
f 54//3 27//3 4//3
f 35//4 43//4 1//4
f 24//5 5//5 52//5
f 56//6 38//6 7//6
f 32//7 45//7 6//7
f 25//8 6//8 33//8
f 41//9 8//9 14//9
f 20//10 8//10 48//10
f 5//11 23//11 29//11
f 10//12 49//12 7//12
f 8//13 19//13 15//13
f 37//14 11//14 7//14
f 6//15 44//15 34//15
f 5//16 28//16 53//16
f 47//17 3//17 21//17
f 1//18 42//18 13//18
f 22//19 3//19 30//19
f 39//20 55//20 4//20
f 4//21 26//21 40//21
f 2//22 17//22 51//22
f 31//23 3//23 46//23
f 13//24 14//24 16//24
f 21//25 22//25 19//25
f 28//26 30//26 25//26
f 37//27 38//27 35//27
f 44//28 46//28 41//28
f 52//29 54//29 51//29
f 16//30 2//30 9//30
f 17//31 2//31 18//31
f 32//32 6//32 25//32
f 33//33 6//33 34//33
f 48//34 8//34 41//34
f 56//35 7//35 49//35
f 1//36 13//36 12//36
f 3//37 22//37 21//37
f 5//38 29//38 28//38
f 7//39 38//39 37//39
f 6//40 45//40 44//40
f 5//41 53//41 52//41
f 46//42 45//42 32//42
f 34//43 44//43 43//43
f 39//44 38//44 56//44
f 53//45 28//45 27//45
f 26//46 25//46 33//46
f 15//47 19//47 18//47
f 26//48 4//48 27//48
f 54//49 4//49 55//49
f 46//50 3//50 47//50
f 35//51 1//51 36//51
f 14//52 8//52 15//52
f 23//53 5//53 24//53
f 3//54 31//54 30//54
f 2//55 51//55 50//55
f 1//56 43//56 42//56
f 4//57 40//57 39//57
f 7//58 11//58 10//58
f 8//59 20//59 19//59
f 23//60 22//60 30//60
f 21//61 20//61 48//61
f 50//62 49//62 10//62
f 17//63 24//63 52//63
f 12//64 11//64 37//64
f 42//65 41//65 14//65
f 1//66 12//66 36//66
f 16//67 9//67 10//67
f 10//68 11//68 13//68
f 12//69 13//69 11//69
f 14//24 15//24 16//24
f 16//68 10//68 13//68
f 24//70 17//70 18//70
f 18//70 19//70 24//70
f 20//71 21//71 19//71
f 22//72 23//72 24//72
f 24//25 19//25 22//25
f 32//73 25//73 31//73
f 26//74 27//74 28//74
f 28//75 29//75 30//75
f 30//26 31//26 25//26
f 25//74 26//74 28//74
f 40//76 33//76 34//76
f 34//76 35//76 40//76
f 36//77 37//77 35//77
f 38//78 39//78 40//78
f 40//27 35//27 38//27
f 48//79 41//79 47//79
f 42//80 43//80 44//80
f 44//81 45//81 46//81
f 46//28 47//28 41//28
f 41//80 42//80 44//80
f 56//82 49//82 51//82
f 50//83 51//83 49//83
f 52//29 53//29 54//29
f 54//84 55//84 56//84
f 56//82 51//82 54//82
f 31//42 46//42 32//42
f 35//43 34//43 43//43
f 55//44 39//44 56//44
f 54//45 53//45 27//45
f 40//46 26//46 33//46
f 16//47 15//47 18//47
f 29//60 23//60 30//60
f 47//61 21//61 48//61
f 9//62 50//62 10//62
f 51//63 17//63 52//63
f 36//64 12//64 37//64
f 13//65 42//65 14//65
