# Blender v2.76 (sub 0) OBJ File: 'cyber_item.blend'
# www.blender.org
v -0.137907 -0.144836 -0.574755
v 0.395381 0.371343 -0.275895
v 0.071241 -0.482689 -0.364435
v 0.604528 0.033490 -0.065574
v -0.603973 -0.034387 0.066132
v -0.070685 0.481792 0.364993
v -0.394826 -0.372240 0.276453
v 0.138462 0.143939 0.575314
vn 0.582500 -0.138000 -0.801000
vn 0.465200 -0.751500 0.467800
vn -0.582500 0.138000 0.801000
vn -0.465200 0.751500 -0.467800
vn -0.666500 -0.645100 -0.373500
vn 0.666500 0.645100 0.373500
s off
f 2//1 4//1 3//1
f 4//2 8//2 7//2
f 8//3 6//3 5//3
f 6//4 2//4 1//4
f 7//5 5//5 1//5
f 8//6 4//6 2//6
f 1//1 2//1 3//1
f 3//2 4//2 7//2
f 7//3 8//3 5//3
f 5//4 6//4 1//4
f 3//5 7//5 1//5
f 6//6 8//6 2//6
