v 0.212620 -0.386580 0.419151
v 0.383677 -0.307645 -0.358449
v 0.355674 0.033146 0.493227
v 0.526731 0.112081 -0.284373
v -0.526351 -0.110967 0.284570
v -0.355294 -0.032032 -0.493031
v -0.383298 0.308759 0.358646
v -0.212240 0.387695 -0.418955
vn 0.923600 -0.344500 0.168200
vn 0.318200 0.933600 0.164800
vn -0.923600 0.344500 -0.168200
vn -0.318200 -0.933600 -0.164800
vn -0.213800 -0.098700 0.971900
vn 0.213800 0.098700 -0.971900
s off
f 2//1 4//1 3//1
f 4//2 8//2 7//2
f 8//3 6//3 5//3
f 6//4 2//4 1//4
f 7//5 5//5 1//5
f 8//6 4//6 2//6
f 1//1 2//1 3//1
f 3//2 4//2 7//2
f 7//3 8//3 5//3
f 5//4 6//4 1//4
f 3//5 7//5 1//5
f 6//6 8//6 2//6
