# Blender v2.76 (sub 0) OBJ File: 'cyber_item.blend'
# www.blender.org
v 0.389116 -0.413533 -0.218904
v 0.404505 0.386137 -0.240029
v 0.395382 -0.401781 0.230479
v 0.410771 0.397888 0.209353
v -0.410754 -0.397856 -0.208160
v -0.395366 0.401813 -0.229286
v -0.404488 -0.386105 0.241222
v -0.389100 0.413564 0.220097
vn 0.999700 -0.019600 -0.013400
vn 0.013900 0.026100 0.999600
vn -0.999700 0.019600 0.013400
vn -0.013900 -0.026100 -0.999600
vn -0.019200 -0.999500 0.026400
vn 0.019200 0.999500 -0.026400
s off
f 2//1 4//1 3//1
f 4//2 8//2 7//2
f 8//3 6//3 5//3
f 6//4 2//4 1//4
f 7//5 5//5 1//5
f 8//6 4//6 2//6
f 1//1 2//1 3//1
f 3//2 4//2 7//2
f 7//3 8//3 5//3
f 5//4 6//4 1//4
f 3//5 7//5 1//5
f 6//6 8//6 2//6
