# Blender v2.76 (sub 0) OBJ File: 'cyber_data.blend'
# www.blender.org
v -0.347058 0.572216 0.179541
v -0.564140 -0.175993 0.361784
v 0.406776 0.404442 0.388683
v 0.189693 -0.343766 0.570926
v -0.189693 0.343766 -0.570926
v -0.406776 -0.404442 -0.388683
v 0.564140 0.175993 -0.361784
v 0.347058 -0.572216 -0.179541
vn -0.196700 0.285500 0.938000
vn 0.942200 -0.209700 0.261400
vn 0.196700 -0.285500 -0.938000
vn -0.942200 0.209700 -0.261400
vn 0.271300 0.935100 -0.227800
vn -0.271300 -0.935100 0.227800
s off
f 1//1 2//1 4//1
f 4//2 8//2 7//2
f 8//3 6//3 5//3
f 5//4 6//4 2//4
f 3//5 7//5 5//5
f 4//6 2//6 6//6
f 3//1 1//1 4//1
f 3//2 4//2 7//2
f 7//3 8//3 5//3
f 1//4 5//4 2//4
f 1//5 3//5 5//5
f 8//6 4//6 6//6
