# Blender v2.76 (sub 0) OBJ File: 'cyber_data.blend'
# www.blender.org
v 0.664072 -0.195179 -0.032085
v 0.404604 0.561675 -0.030528
v 0.159705 -0.369314 0.564107
v -0.099763 0.387540 0.565664
v 0.099763 -0.387540 -0.565664
v -0.159705 0.369314 -0.564107
v -0.404604 -0.561675 0.030528
v -0.664072 0.195179 0.032085
vn 0.705300 0.240400 0.666900
vn -0.630400 -0.217600 0.745200
vn -0.705300 -0.240400 -0.666900
vn 0.630400 0.217600 -0.745200
vn 0.324300 -0.946000 -0.001900
vn -0.324300 0.946000 0.001900
s off
f 1//1 2//1 4//1
f 4//2 8//2 7//2
f 8//3 6//3 5//3
f 5//4 6//4 2//4
f 3//5 7//5 5//5
f 4//6 2//6 6//6
f 3//1 1//1 4//1
f 3//2 4//2 7//2
f 7//3 8//3 5//3
f 1//4 5//4 2//4
f 1//5 3//5 5//5
f 8//6 4//6 6//6
