v 0.161171 0.125492 -0.573250
v -0.091176 -0.554063 -0.234607
v -0.226572 0.324479 -0.462877
v -0.478918 -0.355077 -0.124234
v 0.477889 0.355605 0.124527
v 0.225542 -0.323951 0.463170
v 0.090146 0.554592 0.234900
v -0.162200 -0.124964 0.573543
vn -0.395800 -0.287600 -0.872100
vn -0.862500 0.442600 0.245500
vn 0.395800 0.287600 0.872100
vn 0.862500 -0.442600 -0.245500
vn 0.315400 0.849300 -0.423300
vn -0.315400 -0.849300 0.423300
s off
f 2//1 4//1 3//1
f 4//2 8//2 7//2
f 8//3 6//3 5//3
f 6//4 2//4 1//4
f 7//5 5//5 1//5
f 8//6 4//6 2//6
f 1//1 2//1 3//1
f 3//2 4//2 7//2
f 7//3 8//3 5//3
f 5//4 6//4 1//4
f 3//5 7//5 1//5
f 6//6 8//6 2//6
