v -0.299483 0.480049 -0.224059
v -0.562710 -0.175985 0.150753
v -0.057660 0.590209 0.138583
v -0.320887 -0.065826 0.513395
v 0.321529 0.066118 -0.512432
v 0.058302 -0.589916 -0.137620
v 0.563352 0.176278 -0.149790
v 0.300125 -0.479757 0.225022
vn -0.776200 0.517400 0.360400
vn 0.537900 0.245000 0.806600
vn 0.776200 -0.517400 -0.360400
vn -0.537900 -0.245000 -0.806600
vn 0.329000 0.819900 -0.468500
vn -0.329000 -0.819900 0.468500
s off
f 2//1 4//1 3//1
f 4//2 8//2 7//2
f 8//3 6//3 5//3
f 6//4 2//4 1//4
f 7//5 5//5 1//5
f 8//6 4//6 2//6
f 1//1 2//1 3//1
f 3//2 4//2 7//2
f 7//3 8//3 5//3
f 5//4 6//4 1//4
f 3//5 7//5 1//5
f 6//6 8//6 2//6
