# Blender v2.76 (sub 0) OBJ File: 'cyber_data.blend'
# www.blender.org
v 0.689181 -0.049293 0.052105
v 0.271193 0.632257 0.082586
v 0.162732 -0.394252 0.546076
v -0.255257 0.287298 0.576558
v 0.255257 -0.287298 -0.576558
v -0.162732 0.394252 -0.546076
v -0.271193 -0.632257 -0.082586
v -0.689181 0.049293 -0.052105
vn 0.542300 0.297500 0.785700
vn -0.658000 -0.431100 0.617400
vn -0.542300 -0.297500 -0.785700
vn 0.658000 0.431100 -0.617400
vn 0.522400 -0.851800 -0.038100
vn -0.522400 0.851800 0.038100
s off
f 1//1 2//1 4//1
f 4//2 8//2 7//2
f 8//3 6//3 5//3
f 5//4 6//4 2//4
f 3//5 7//5 5//5
f 4//6 2//6 6//6
f 3//1 1//1 4//1
f 3//2 4//2 7//2
f 7//3 8//3 5//3
f 1//4 5//4 2//4
f 1//5 3//5 5//5
f 8//6 4//6 6//6
