v 0.672287 0.091059 -0.140906
v 0.349887 -0.575877 0.161433
v 0.078154 0.136203 -0.674875
v -0.244245 -0.530732 -0.372536
v 0.244245 0.530732 0.372536
v -0.078154 -0.136203 0.674875
v -0.349887 0.575877 -0.161433
v -0.672287 -0.091059 0.140906
vn 0.535000 -0.549500 -0.641700
vn -0.742600 0.056400 -0.667400
vn -0.535000 0.549500 0.641700
vn 0.742600 -0.056400 0.667400
vn 0.403000 0.833600 -0.377900
vn -0.403000 -0.833600 0.377900
s off
f 1//1 2//1 4//1
f 4//2 8//2 7//2
f 8//3 6//3 5//3
f 5//4 6//4 2//4
f 3//5 7//5 5//5
f 4//6 2//6 6//6
f 3//1 1//1 4//1
f 3//2 4//2 7//2
f 7//3 8//3 5//3
f 1//4 5//4 2//4
f 1//5 3//5 5//5
f 8//6 4//6 6//6
