# Blender v2.76 (sub 0) OBJ File: 'cyber_data.blend'
# www.blender.org
v 0.566770 -0.284964 -0.278716
v 0.438229 0.500237 -0.194510
v 0.307806 -0.407473 0.468334
v 0.179266 0.377728 0.552540
v -0.179266 -0.377728 -0.552540
v -0.307806 0.407473 -0.468334
v -0.438229 -0.500237 0.194510
v -0.566770 0.284964 0.278716
vn 0.932400 0.115900 0.342200
vn -0.323700 -0.153100 0.933700
vn -0.932400 -0.115900 -0.342200
vn 0.323700 0.153100 -0.933700
vn 0.160700 -0.981400 -0.105200
vn -0.160700 0.981400 0.105200
s off
f 1//1 2//1 4//1
f 4//2 8//2 7//2
f 8//3 6//3 5//3
f 5//4 6//4 2//4
f 3//5 7//5 5//5
f 4//6 2//6 6//6
f 3//1 1//1 4//1
f 3//2 4//2 7//2
f 7//3 8//3 5//3
f 1//4 5//4 2//4
f 1//5 3//5 5//5
f 8//6 4//6 6//6
