# Blender v2.76 (sub 0) OBJ File: 'cyber_data.blend'
# www.blender.org
v 0.641119 -0.080538 0.250189
v 0.336078 0.605356 -0.026673
v -0.034088 -0.216483 0.657334
v -0.339130 0.469411 0.380472
v 0.339130 -0.469411 -0.380472
v 0.034088 0.216483 -0.657334
v -0.336078 -0.605356 0.026673
v -0.641119 0.080538 -0.250189
vn 0.377400 0.486000 0.788200
vn -0.843900 -0.169900 0.508900
vn -0.377400 -0.486000 -0.788200
vn 0.843900 0.169900 -0.508900
vn 0.381300 -0.857300 0.346000
vn -0.381300 0.857300 -0.346000
s off
f 1//1 2//1 4//1
f 4//2 8//2 7//2
f 8//3 6//3 5//3
f 5//4 6//4 2//4
f 3//5 7//5 5//5
f 4//6 2//6 6//6
f 3//1 1//1 4//1
f 3//2 4//2 7//2
f 7//3 8//3 5//3
f 1//4 5//4 2//4
f 1//5 3//5 5//5
f 8//6 4//6 6//6
