# Blender v2.76 (sub 0) OBJ File: 'cyber_data.blend'
# www.blender.org
v -0.397277 0.567642 -0.008262
v -0.622912 -0.150186 0.263705
v 0.298357 0.496286 0.380525
v 0.072722 -0.221542 0.652492
v -0.072722 0.221542 -0.652492
v -0.298357 -0.496286 -0.380525
v 0.622912 0.150186 -0.263705
v 0.397277 -0.567642 0.008262
vn -0.405600 0.432600 0.805200
vn 0.869400 -0.089200 0.485900
vn 0.405600 -0.432600 -0.805200
vn -0.869400 0.089200 -0.485900
vn 0.282000 0.897200 -0.339900
vn -0.282000 -0.897200 0.339900
s off
f 1//1 2//1 4//1
f 4//2 8//2 7//2
f 8//3 6//3 5//3
f 5//4 6//4 2//4
f 3//5 7//5 5//5
f 4//6 2//6 6//6
f 3//1 1//1 4//1
f 3//2 4//2 7//2
f 7//3 8//3 5//3
f 1//4 5//4 2//4
f 1//5 3//5 5//5
f 8//6 4//6 6//6
