# Blender v2.76 (sub 0) OBJ File: 'cyber_data.blend'
# www.blender.org
v -0.003448 -0.469854 -0.509255
v 0.226942 0.292531 -0.585695
v 0.414946 -0.528163 0.170231
v 0.645336 0.234222 0.093791
v -0.645336 -0.234222 -0.093791
v -0.414946 0.528163 -0.170231
v -0.226942 -0.292531 0.585695
v 0.003448 0.469854 0.509255
vn 0.802300 -0.294500 -0.519300
vn 0.522900 -0.072900 0.849300
vn -0.802300 0.294500 0.519300
vn -0.522900 0.072900 -0.849300
vn -0.288000 -0.952900 0.095500
vn 0.288000 0.952900 -0.095500
s off
f 1//1 2//1 4//1
f 4//2 8//2 7//2
f 8//3 6//3 5//3
f 5//4 6//4 2//4
f 3//5 7//5 5//5
f 4//6 2//6 6//6
f 3//1 1//1 4//1
f 3//2 4//2 7//2
f 7//3 8//3 5//3
f 1//4 5//4 2//4
f 1//5 3//5 5//5
f 8//6 4//6 6//6
