v 0.377224 -0.091271 0.468733
v 0.261484 0.549501 0.003794
v -0.051520 -0.071600 0.602574
v -0.167261 0.569172 0.137634
v 0.166123 -0.569120 -0.137279
v 0.050382 0.071653 -0.602218
v -0.262622 -0.549449 -0.003439
v -0.378362 0.091324 -0.468378
vn 0.263800 0.597200 0.757400
vn -0.953700 0.043800 0.297700
vn -0.263800 -0.597200 -0.757400
vn 0.953700 -0.043800 -0.297700
vn 0.144700 -0.800900 0.581100
vn -0.144700 0.800900 -0.581100
s off
f 2//1 4//1 3//1
f 4//2 8//2 7//2
f 8//3 6//3 5//3
f 6//4 2//4 1//4
f 7//5 5//5 1//5
f 8//6 4//6 2//6
f 1//1 2//1 3//1
f 3//2 4//2 7//2
f 7//3 8//3 5//3
f 5//4 6//4 1//4
f 3//5 7//5 1//5
f 6//6 8//6 2//6
