# Blender v2.76 (sub 0) OBJ File: 'cyber_item.blend'
# www.blender.org
v -0.166514 -0.196873 -0.551229
v 0.348864 0.373760 -0.330056
v 0.079466 -0.503560 -0.333149
v 0.594843 0.067073 -0.111976
v -0.594190 -0.067887 0.112555
v -0.078813 0.502746 0.333728
v -0.348211 -0.374574 0.330635
v 0.167167 0.196059 0.551808
vn 0.534500 -0.161200 -0.829600
vn 0.547100 -0.682200 0.485100
vn -0.534500 0.161200 0.829600
vn -0.547100 0.682200 -0.485100
vn -0.644100 -0.713200 -0.276400
vn 0.644100 0.713200 0.276400
s off
f 2//1 4//1 3//1
f 4//2 8//2 7//2
f 8//3 6//3 5//3
f 6//4 2//4 1//4
f 7//5 5//5 1//5
f 8//6 4//6 2//6
f 1//1 2//1 3//1
f 3//2 4//2 7//2
f 7//3 8//3 5//3
f 5//4 6//4 1//4
f 3//5 7//5 1//5
f 6//6 8//6 2//6
