v 0.480325 -0.345407 -0.142555
v 0.400234 0.449072 -0.092124
v 0.371748 -0.383937 0.292013
v 0.291658 0.410541 0.342444
v -0.291946 -0.410643 -0.341290
v -0.372037 0.383835 -0.290859
v -0.400522 -0.449174 0.093277
v -0.480613 0.345305 0.143708
vn 0.965200 0.081500 0.248400
vn -0.241500 -0.085700 0.966600
vn -0.965200 -0.081500 -0.248400
vn 0.241500 0.085700 -0.966600
vn 0.100100 -0.993000 -0.063000
vn -0.100100 0.993000 0.063000
s off
f 2//1 4//1 3//1
f 4//2 8//2 7//2
f 8//3 6//3 5//3
f 6//4 2//4 1//4
f 7//5 5//5 1//5
f 8//6 4//6 2//6
f 1//1 2//1 3//1
f 3//2 4//2 7//2
f 7//3 8//3 5//3
f 5//4 6//4 1//4
f 3//5 7//5 1//5
f 6//6 8//6 2//6
