v -0.387605 -0.258779 0.068498
v 0.169427 -0.142105 -0.409137
v -0.089419 0.481961 0.019313
v 0.301789 -0.146844 0.321951
v 0.384286 0.228251 -0.068095
v -0.172747 0.111578 0.409540
v 0.086100 -0.512488 -0.018910
v -0.305109 0.116316 -0.321548
v -0.028269 -0.094406 -0.079710
v -0.031442 -0.105339 -0.067009
v -0.041539 -0.107454 -0.058351
v -0.056750 -0.100371 -0.055289
v -0.063392 -0.089770 -0.061461
v -0.060800 -0.077267 -0.074033
v -0.051275 -0.075271 -0.082201
v -0.035890 -0.084010 -0.085043
v 0.027842 0.047800 -0.089271
v 0.016053 0.045886 -0.093605
v 0.000668 0.054624 -0.090763
v -0.004576 0.064935 -0.082967
v 0.002873 0.075715 -0.072048
v 0.015370 0.077744 -0.067454
v 0.030673 0.070658 -0.070008
v 0.034706 0.060151 -0.078250
v 0.032570 0.053482 0.085446
v 0.047955 0.044744 0.082604
v 0.057481 0.046739 0.074436
v 0.060073 0.059243 0.061864
v 0.053430 0.069843 0.055692
v 0.038220 0.076926 0.058754
v 0.028122 0.074811 0.067412
v 0.024950 0.063878 0.080113
v -0.019372 -0.076414 0.094009
v -0.031161 -0.078328 0.089674
v -0.038025 -0.090679 0.078653
v -0.033992 -0.101186 0.070411
v -0.018689 -0.108272 0.067857
v -0.006193 -0.106243 0.072451
v 0.001256 -0.095463 0.083370
v -0.003987 -0.085152 0.091166
v -0.106088 0.032264 0.000776
v -0.108680 0.019760 0.013348
v -0.106416 0.019679 0.025850
v -0.099553 0.032030 0.036872
v -0.093582 0.044632 0.036535
v -0.090888 0.055488 0.023658
v -0.093288 0.055574 0.010406
v -0.100349 0.044875 -0.000845
v 0.087569 -0.086015 -0.023255
v 0.090262 -0.075160 -0.036132
v 0.096233 -0.062557 -0.036469
v 0.103097 -0.050207 -0.025447
v 0.105360 -0.050288 -0.012945
v 0.102768 -0.062791 -0.000373
v 0.097030 -0.075402 0.001248
v 0.089968 -0.086101 -0.010003
vn -0.787900 0.278900 -0.549100
vn 0.087400 -0.977100 0.193900
vn 0.769300 0.545400 -0.332800
vn -0.184900 0.328600 0.926200
vn 0.184900 -0.328600 -0.926200
vn 0.653400 -0.021700 0.756700
vn -0.087400 0.977100 -0.193900
vn 0.787900 -0.278900 0.549100
vn -0.769300 -0.545400 0.332800
vn -0.011600 0.974400 0.224500
vn -0.406100 0.910400 0.079400
vn 0.346600 -0.010800 -0.938000
vn 0.544700 -0.270100 -0.793900
vn -0.944600 -0.281200 0.169200
vn -0.838400 -0.542900 -0.048800
vn 0.497100 -0.339700 0.798400
vn -0.653400 0.021700 -0.756700
vn -0.497100 0.339700 -0.798400
vn 0.944600 0.281200 -0.169200
vn 0.011600 -0.974400 -0.224500
vn -0.544700 0.270100 0.793900
vn 0.838400 0.542900 0.048800
vn -0.346600 0.010800 0.938000
vn -0.455300 -0.582600 -0.673300
vn 0.169600 0.644100 -0.745900
vn 0.421800 0.635100 0.647100
vn -0.169600 -0.644100 0.745900
vn -0.891700 0.421800 0.164200
vn 0.917700 -0.359700 -0.168500
vn -0.681900 -0.660800 -0.313600
vn 0.041700 0.867100 -0.496400
vn 0.681900 0.660800 0.313600
vn -0.041700 -0.867100 0.496400
vn -0.728200 0.402600 0.554600
vn 0.984000 -0.005200 -0.178200
vn -0.062000 -0.530900 -0.845100
vn 0.292700 0.272600 -0.916500
vn 0.062000 0.530900 0.845100
vn -0.292700 -0.272600 0.916500
vn -0.875500 0.407900 -0.259000
vn 0.687800 -0.714300 -0.129200
vn -0.330900 0.754500 0.566800
vn -0.749700 -0.157000 0.642900
vn 0.506900 -0.760800 0.405300
vn 0.927900 0.150700 0.341100
vn 0.178100 -0.006400 0.984000
vn -0.178100 0.006400 -0.984000
vn 0.215000 0.860900 0.461100
vn 0.728200 -0.402600 -0.554600
vn -0.984000 0.005200 0.178200
vn 0.237000 -0.541600 0.806500
vn -0.215000 -0.860900 -0.461100
vn -0.237000 0.541600 -0.806500
vn 0.596100 0.261800 0.759100
vn 0.875500 -0.407900 0.259000
vn -0.687800 0.714300 0.129200
vn -0.530200 -0.666200 0.524400
vn -0.596100 -0.261800 -0.759100
vn 0.530200 0.666200 -0.524400
vn 0.409800 0.909600 -0.068300
vn -0.506900 0.760800 -0.405300
vn 0.330900 -0.754500 -0.566800
vn 0.749700 0.157000 -0.642900
vn -0.409800 -0.909600 0.068300
vn -0.927900 -0.150700 -0.341100
vn 0.406100 -0.910400 -0.079400
vn -0.412800 -0.636700 -0.651200
vn -0.421800 -0.635100 -0.647100
vn -0.426600 -0.639600 -0.639500
vn 0.191700 0.592000 -0.782800
vn 0.159800 0.645800 -0.746600
vn 0.176700 0.648600 -0.740400
vn 0.412800 0.636700 0.651200
vn 0.455300 0.582600 0.673300
vn 0.426600 0.639600 0.639500
vn -0.191700 -0.592000 0.782800
vn -0.176700 -0.648600 0.740400
vn -0.159800 -0.645800 0.746600
vn -0.891600 0.425600 0.154900
vn -0.917700 0.359700 0.168500
vn -0.888300 0.425500 0.172900
vn 0.891700 -0.421800 -0.164200
vn 0.888300 -0.425500 -0.172900
vn 0.891600 -0.425600 -0.154900
s off
f 16//1 18//1 2//1
f 9//2 2//2 50//2
f 54//3 27//3 4//3
f 35//4 43//4 1//4
f 24//5 5//5 52//5
f 56//6 38//6 7//6
f 32//7 45//7 6//7
f 25//8 6//8 33//8
f 41//9 8//9 14//9
f 20//10 8//10 48//10
f 5//11 23//11 29//11
f 10//12 49//12 7//12
f 8//13 19//13 15//13
f 37//14 11//14 7//14
f 6//15 44//15 34//15
f 5//16 28//16 53//16
f 47//17 3//17 21//17
f 1//18 42//18 13//18
f 22//19 3//19 30//19
f 39//20 55//20 4//20
f 4//21 26//21 40//21
f 2//22 17//22 51//22
f 31//23 3//23 46//23
f 13//24 14//24 16//24
f 21//25 22//25 19//25
f 28//26 30//26 25//26
f 37//27 38//27 35//27
f 44//28 46//28 41//28
f 52//29 54//29 51//29
f 16//30 2//30 9//30
f 17//31 2//31 18//31
f 32//32 6//32 25//32
f 33//33 6//33 34//33
f 48//34 8//34 41//34
f 56//35 7//35 49//35
f 1//36 13//36 12//36
f 3//37 22//37 21//37
f 5//38 29//38 28//38
f 7//39 38//39 37//39
f 6//40 45//40 44//40
f 5//41 53//41 52//41
f 46//42 45//42 32//42
f 34//43 44//43 43//43
f 39//44 38//44 56//44
f 53//45 28//45 27//45
f 26//46 25//46 33//46
f 15//47 19//47 18//47
f 26//48 4//48 27//48
f 54//49 4//49 55//49
f 46//50 3//50 47//50
f 35//51 1//51 36//51
f 14//52 8//52 15//52
f 23//53 5//53 24//53
f 3//54 31//54 30//54
f 2//55 51//55 50//55
f 1//56 43//56 42//56
f 4//57 40//57 39//57
f 7//58 11//58 10//58
f 8//59 20//59 19//59
f 23//60 22//60 30//60
f 21//61 20//61 48//61
f 50//62 49//62 10//62
f 17//63 24//63 52//63
f 12//64 11//64 37//64
f 42//65 41//65 14//65
f 1//66 12//66 36//66
f 16//67 9//67 10//67
f 10//68 11//68 13//68
f 12//69 13//69 11//69
f 14//24 15//24 16//24
f 16//68 10//68 13//68
f 24//70 17//70 18//70
f 18//70 19//70 24//70
f 20//71 21//71 19//71
f 22//72 23//72 24//72
f 24//25 19//25 22//25
f 32//73 25//73 31//73
f 26//74 27//74 28//74
f 28//75 29//75 30//75
f 30//26 31//26 25//26
f 25//74 26//74 28//74
f 40//76 33//76 34//76
f 34//76 35//76 40//76
f 36//77 37//77 35//77
f 38//78 39//78 40//78
f 40//27 35//27 38//27
f 48//79 41//79 47//79
f 42//80 43//80 44//80
f 44//81 45//81 46//81
f 46//28 47//28 41//28
f 41//80 42//80 44//80
f 56//82 49//82 51//82
f 50//83 51//83 49//83
f 52//29 53//29 54//29
f 54//84 55//84 56//84
f 56//82 51//82 54//82
f 31//42 46//42 32//42
f 35//43 34//43 43//43
f 55//44 39//44 56//44
f 54//45 53//45 27//45
f 40//46 26//46 33//46
f 16//47 15//47 18//47
f 29//60 23//60 30//60
f 47//61 21//61 48//61
f 9//62 50//62 10//62
f 51//63 17//63 52//63
f 36//64 12//64 37//64
f 13//65 42//65 14//65
