v -0.025390 0.147857 -0.589774
v -0.336068 -0.470902 -0.188811
v -0.265471 0.432006 -0.337301
v -0.576148 -0.186753 0.063662
v 0.575511 0.187507 -0.062991
v 0.264834 -0.431252 0.337971
v 0.335430 0.471656 0.189481
v 0.024753 -0.147103 0.590444
vn -0.751000 -0.049600 -0.658400
vn -0.534000 0.632000 0.561600
vn 0.751000 0.049600 0.658400
vn 0.534000 -0.632000 -0.561600
vn 0.388300 0.773400 -0.501100
vn -0.388300 -0.773400 0.501100
s off
f 2//1 4//1 3//1
f 4//2 8//2 7//2
f 8//3 6//3 5//3
f 6//4 2//4 1//4
f 7//5 5//5 1//5
f 8//6 4//6 2//6
f 1//1 2//1 3//1
f 3//2 4//2 7//2
f 7//3 8//3 5//3
f 5//4 6//4 1//4
f 3//5 7//5 1//5
f 6//6 8//6 2//6
