v -0.547181 0.061473 0.259140
v 0.180932 -0.019797 0.580699
v -0.415773 0.441242 0.057571
v 0.312340 0.359972 0.379131
v -0.311991 -0.358964 -0.379666
v 0.416122 -0.440233 -0.058107
v -0.180583 0.020805 -0.581234
v 0.547530 -0.060465 -0.259675
vn -0.294000 0.525500 0.798400
vn 0.292300 0.844700 -0.448300
vn 0.294000 -0.525500 -0.798400
vn -0.292300 -0.844700 0.448300
vn -0.910000 0.101600 -0.401900
vn 0.910000 -0.101600 0.401900
s off
f 2//1 4//1 3//1
f 4//2 8//2 7//2
f 8//3 6//3 5//3
f 6//4 2//4 1//4
f 7//5 5//5 1//5
f 8//6 4//6 2//6
f 1//1 2//1 3//1
f 3//2 4//2 7//2
f 7//3 8//3 5//3
f 5//4 6//4 1//4
f 3//5 7//5 1//5
f 6//6 8//6 2//6
