v -0.453321 -0.113723 -0.058850
v 0.219294 -0.183914 -0.366577
v 0.068248 0.483417 0.048011
v 0.139241 -0.245717 0.369497
v 0.440405 0.086110 0.055127
v -0.232209 0.156302 0.362854
v -0.081163 -0.511030 -0.051734
v -0.152156 0.218104 -0.373220
v -0.034281 -0.077910 -0.093916
v -0.044118 -0.087345 -0.083663
v -0.056311 -0.086073 -0.078085
v -0.068672 -0.074321 -0.078182
v -0.069621 -0.061994 -0.084643
v -0.059841 -0.050887 -0.094748
v -0.048339 -0.052087 -0.100011
v -0.036411 -0.065460 -0.099836
v 0.064852 0.037113 -0.073799
v 0.054718 0.039371 -0.081124
v 0.042791 0.052743 -0.081298
v 0.039223 0.064083 -0.074000
v 0.046473 0.071522 -0.060472
v 0.057215 0.069129 -0.052707
v 0.069520 0.057334 -0.052098
v 0.072047 0.046226 -0.060149
v 0.023496 0.037847 0.096113
v 0.035424 0.024475 0.096288
v 0.046926 0.023274 0.091025
v 0.056705 0.034382 0.080920
v 0.055756 0.046708 0.074459
v 0.043395 0.058460 0.074362
v 0.031203 0.059733 0.079940
v 0.021366 0.050297 0.090193
v -0.067634 -0.066983 0.077401
v -0.077767 -0.064726 0.070076
v -0.084963 -0.073839 0.056426
v -0.082435 -0.084947 0.048375
v -0.070130 -0.096742 0.048984
v -0.059389 -0.099134 0.056749
v -0.052138 -0.091695 0.070277
v -0.055706 -0.080356 0.077575
v -0.086116 0.066196 -0.022322
v -0.095896 0.055088 -0.012216
v -0.097265 0.054031 0.000371
v -0.090069 0.063144 0.014020
v -0.080517 0.072992 0.016545
v -0.071092 0.082519 0.005994
v -0.069640 0.083639 -0.007349
v -0.076423 0.076151 -0.021090
v 0.058176 -0.110131 -0.009717
v 0.067601 -0.100604 -0.020268
v 0.077153 -0.090757 -0.017743
v 0.084349 -0.081644 -0.004094
v 0.082980 -0.082700 0.008493
v 0.073201 -0.093808 0.018599
v 0.063508 -0.103764 0.017367
v 0.056725 -0.111251 0.003626
vn -0.476200 0.538100 -0.695500
vn -0.286900 -0.952400 0.103400
vn 0.963400 0.259000 -0.069200
vn -0.314000 0.355700 0.880300
vn 0.314000 -0.355700 -0.880300
vn 0.380300 -0.254300 0.889200
vn 0.286900 0.952400 -0.103400
vn 0.476200 -0.538100 0.695500
vn -0.963400 -0.259000 0.069200
vn 0.241100 0.917000 0.317800
vn -0.098000 0.992500 0.072700
vn 0.565800 -0.111000 -0.817000
vn 0.623300 -0.424600 -0.656700
vn -0.993300 0.051700 -0.103700
vn -0.921600 -0.226700 -0.315000
vn 0.125200 -0.501500 0.856100
vn -0.380300 0.254300 -0.889200
vn -0.125200 0.501500 -0.856100
vn 0.993300 -0.051700 0.103700
vn -0.241100 -0.917000 -0.317800
vn -0.623300 0.424600 0.656700
vn 0.921600 0.226700 0.315000
vn -0.565800 0.111000 0.817000
vn -0.417100 -0.382800 -0.824300
vn 0.563200 0.561700 -0.606000
vn 0.410700 0.443900 0.796400
vn -0.563200 -0.561700 0.606000
vn -0.718300 0.695400 -0.019700
vn 0.763100 -0.645700 0.028800
vn -0.745600 -0.386000 -0.543300
vn 0.450900 0.810500 -0.374000
vn 0.745600 0.386000 0.543300
vn -0.450900 -0.810500 0.374000
vn -0.682200 0.615400 0.394800
vn 0.939500 -0.334300 0.074100
vn 0.003000 -0.464100 -0.885800
vn 0.602000 0.173400 -0.779400
vn -0.003000 0.464100 0.885800
vn -0.602000 -0.173400 0.779400
vn -0.593100 0.684200 -0.424400
vn 0.430000 -0.902400 -0.029000
vn -0.212200 0.812000 0.543700
vn -0.905300 0.094500 0.414200
vn 0.105700 -0.894200 0.435000
vn 0.797500 -0.177700 0.576500
vn -0.107700 -0.083200 0.990700
vn 0.107700 0.083200 -0.990700
vn 0.346000 0.729500 0.590000
vn 0.682200 -0.615400 -0.394800
vn -0.939500 0.334300 -0.074100
vn -0.177800 -0.603700 0.777100
vn -0.346000 -0.729500 -0.590000
vn 0.177800 0.603700 -0.777100
vn 0.418600 0.031800 0.907600
vn 0.593100 -0.684200 0.424400
vn -0.430000 0.902400 0.029000
vn -0.837300 -0.456800 0.300400
vn -0.418600 -0.031800 -0.907600
vn 0.837300 0.456800 -0.300400
vn 0.682200 0.718700 0.134500
vn -0.105700 0.894200 -0.435000
vn 0.212200 -0.812000 -0.543700
vn 0.905300 -0.094500 -0.414200
vn -0.682200 -0.718700 -0.134500
vn -0.797500 0.177700 -0.576500
vn 0.098000 -0.992500 -0.072700
vn -0.401900 -0.448400 -0.798300
vn -0.410700 -0.443900 -0.796400
vn -0.418500 -0.446700 -0.790800
vn 0.576500 0.505900 -0.641700
vn 0.555000 0.566600 -0.609000
vn 0.569600 0.563400 -0.598500
vn 0.401900 0.448400 0.798300
vn 0.417100 0.382800 0.824300
vn 0.418500 0.446700 0.790800
vn -0.576500 -0.505900 0.641700
vn -0.569600 -0.563400 0.598500
vn -0.555000 -0.566600 0.609000
vn -0.714500 0.699100 -0.028200
vn -0.763100 0.645700 -0.028800
vn -0.716400 0.697600 -0.010100
vn 0.718300 -0.695400 0.019700
vn 0.716400 -0.697600 0.010100
vn 0.714500 -0.699100 0.028200
s off
f 16//1 18//1 2//1
f 9//2 2//2 50//2
f 54//3 27//3 4//3
f 35//4 43//4 1//4
f 24//5 5//5 52//5
f 56//6 38//6 7//6
f 32//7 45//7 6//7
f 25//8 6//8 33//8
f 41//9 8//9 14//9
f 20//10 8//10 48//10
f 5//11 23//11 29//11
f 10//12 49//12 7//12
f 8//13 19//13 15//13
f 37//14 11//14 7//14
f 6//15 44//15 34//15
f 5//16 28//16 53//16
f 47//17 3//17 21//17
f 1//18 42//18 13//18
f 22//19 3//19 30//19
f 39//20 55//20 4//20
f 4//21 26//21 40//21
f 2//22 17//22 51//22
f 31//23 3//23 46//23
f 13//24 14//24 16//24
f 21//25 22//25 19//25
f 28//26 30//26 25//26
f 37//27 38//27 35//27
f 44//28 46//28 41//28
f 52//29 54//29 51//29
f 16//30 2//30 9//30
f 17//31 2//31 18//31
f 32//32 6//32 25//32
f 33//33 6//33 34//33
f 48//34 8//34 41//34
f 56//35 7//35 49//35
f 1//36 13//36 12//36
f 3//37 22//37 21//37
f 5//38 29//38 28//38
f 7//39 38//39 37//39
f 6//40 45//40 44//40
f 5//41 53//41 52//41
f 46//42 45//42 32//42
f 34//43 44//43 43//43
f 39//44 38//44 56//44
f 53//45 28//45 27//45
f 26//46 25//46 33//46
f 15//47 19//47 18//47
f 26//48 4//48 27//48
f 54//49 4//49 55//49
f 46//50 3//50 47//50
f 35//51 1//51 36//51
f 14//52 8//52 15//52
f 23//53 5//53 24//53
f 3//54 31//54 30//54
f 2//55 51//55 50//55
f 1//56 43//56 42//56
f 4//57 40//57 39//57
f 7//58 11//58 10//58
f 8//59 20//59 19//59
f 23//60 22//60 30//60
f 21//61 20//61 48//61
f 50//62 49//62 10//62
f 17//63 24//63 52//63
f 12//64 11//64 37//64
f 42//65 41//65 14//65
f 1//66 12//66 36//66
f 16//67 9//67 10//67
f 10//68 11//68 13//68
f 12//69 13//69 11//69
f 14//24 15//24 16//24
f 16//68 10//68 13//68
f 24//70 17//70 18//70
f 18//70 19//70 24//70
f 20//71 21//71 19//71
f 22//72 23//72 24//72
f 24//25 19//25 22//25
f 32//73 25//73 31//73
f 26//74 27//74 28//74
f 28//75 29//75 30//75
f 30//26 31//26 25//26
f 25//74 26//74 28//74
f 40//76 33//76 34//76
f 34//76 35//76 40//76
f 36//77 37//77 35//77
f 38//78 39//78 40//78
f 40//27 35//27 38//27
f 48//79 41//79 47//79
f 42//80 43//80 44//80
f 44//81 45//81 46//81
f 46//28 47//28 41//28
f 41//80 42//80 44//80
f 56//82 49//82 51//82
f 50//83 51//83 49//83
f 52//29 53//29 54//29
f 54//84 55//84 56//84
f 56//82 51//82 54//82
f 31//42 46//42 32//42
f 35//43 34//43 43//43
f 55//44 39//44 56//44
f 54//45 53//45 27//45
f 40//46 26//46 33//46
f 16//47 15//47 18//47
f 29//60 23//60 30//60
f 47//61 21//61 48//61
f 9//62 50//62 10//62
f 51//63 17//63 52//63
f 36//64 12//64 37//64
f 13//65 42//65 14//65
