# Blender v2.76 (sub 0) OBJ File: 'cyber_data.blend'
# www.blender.org
v -0.031346 -0.244632 0.647524
v -0.342665 -0.602235 0.003044
v 0.642122 -0.098401 0.241064
v 0.330804 -0.456003 -0.403417
v -0.330804 0.456003 0.403417
v -0.642122 0.098401 -0.241064
v 0.342665 0.602235 -0.003044
v 0.031346 0.244632 -0.647524
vn 0.374300 -0.875700 0.305100
vn 0.841700 0.182800 -0.508000
vn -0.374300 0.875700 -0.305100
vn -0.841700 -0.182800 0.508000
vn 0.389100 0.446900 0.805500
vn -0.389100 -0.446900 -0.805500
s off
f 1//1 2//1 4//1
f 4//2 8//2 7//2
f 8//3 6//3 5//3
f 5//4 6//4 2//4
f 3//5 7//5 5//5
f 4//6 2//6 6//6
f 3//1 1//1 4//1
f 3//2 4//2 7//2
f 7//3 8//3 5//3
f 1//4 5//4 2//4
f 1//5 3//5 5//5
f 8//6 4//6 6//6
