v 0.065682 -0.520149 0.453041
v 0.117464 -0.590926 -0.342234
v 0.531200 0.129995 0.425492
v 0.582982 0.059218 -0.369784
v -0.582982 -0.059218 0.369784
v -0.531200 -0.129995 -0.425492
v -0.117464 0.590926 0.342234
v -0.065682 0.520149 -0.453041
vn 0.810700 -0.576100 0.104100
vn 0.581800 0.812600 -0.034400
vn -0.810700 0.576100 -0.104100
vn -0.581800 -0.812600 0.034400
vn -0.064700 0.088500 0.994000
vn 0.064700 -0.088500 -0.994000
s off
f 1//1 2//1 4//1
f 4//2 8//2 7//2
f 8//3 6//3 5//3
f 5//4 6//4 2//4
f 3//5 7//5 5//5
f 4//6 2//6 6//6
f 3//1 1//1 4//1
f 3//2 4//2 7//2
f 7//3 8//3 5//3
f 1//4 5//4 2//4
f 1//5 3//5 5//5
f 8//6 4//6 6//6
