v -0.414752 0.038446 0.443669
v 0.383237 0.092984 0.463490
v -0.432249 0.394172 0.169307
v 0.365740 0.448710 0.189128
v -0.365786 -0.447766 -0.189856
v 0.432203 -0.393228 -0.170035
v -0.383284 -0.092040 -0.464218
v 0.414706 -0.037502 -0.444397
vn -0.061200 0.607700 0.791800
vn -0.038900 0.791200 -0.610300
vn 0.061200 -0.607700 -0.791800
vn 0.038900 -0.791200 0.610300
vn -0.997400 -0.068200 -0.024800
vn 0.997400 0.068200 0.024800
s off
f 2//1 4//1 3//1
f 4//2 8//2 7//2
f 8//3 6//3 5//3
f 6//4 2//4 1//4
f 7//5 5//5 1//5
f 8//6 4//6 2//6
f 1//1 2//1 3//1
f 3//2 4//2 7//2
f 7//3 8//3 5//3
f 5//4 6//4 1//4
f 3//5 7//5 1//5
f 6//6 8//6 2//6
