v -0.446622 -0.109760 0.518263
v 0.328734 0.066966 0.606271
v -0.514225 0.463002 -0.036288
v 0.261130 0.639728 0.051720
v -0.261130 -0.639728 -0.051720
v 0.514225 -0.463002 0.036288
v -0.328734 -0.066966 -0.606271
v 0.446622 0.109760 -0.518263
vn -0.231800 0.662400 0.712400
vn -0.084500 0.715900 -0.693100
vn 0.231800 -0.662400 -0.712400
vn 0.084500 -0.715900 0.693100
vn -0.969100 -0.220900 -0.110000
vn 0.969100 0.220900 0.110000
s off
f 1//1 2//1 4//1
f 4//2 8//2 7//2
f 8//3 6//3 5//3
f 5//4 6//4 2//4
f 3//5 7//5 5//5
f 4//6 2//6 6//6
f 3//1 1//1 4//1
f 3//2 4//2 7//2
f 7//3 8//3 5//3
f 1//4 5//4 2//4
f 1//5 3//5 5//5
f 8//6 4//6 6//6
