v 0.275953 -0.457965 -0.290617
v 0.367055 0.334581 -0.351661
v 0.397941 -0.438691 0.141668
v 0.489043 0.353854 0.080623
v -0.488719 -0.353803 -0.079475
v -0.397617 0.438742 -0.140520
v -0.366731 -0.334529 0.352809
v -0.275629 0.458016 0.291764
vn 0.955700 -0.130200 -0.263900
vn 0.271300 0.042900 0.961500
vn -0.955700 0.130200 0.263900
vn -0.271300 -0.042900 -0.961500
vn -0.113900 -0.990600 0.076300
vn 0.113900 0.990600 -0.076300
s off
f 2//1 4//1 3//1
f 4//2 8//2 7//2
f 8//3 6//3 5//3
f 6//4 2//4 1//4
f 7//5 5//5 1//5
f 8//6 4//6 2//6
f 1//1 2//1 3//1
f 3//2 4//2 7//2
f 7//3 8//3 5//3
f 5//4 6//4 1//4
f 3//5 7//5 1//5
f 6//6 8//6 2//6
