v 0.654842 -0.136960 -0.180385
v 0.367548 0.587386 0.001106
v 0.275887 -0.445944 0.452920
v -0.011407 0.278402 0.634411
v 0.011407 -0.278402 -0.634411
v -0.275887 0.445944 -0.452920
v -0.367548 -0.587386 -0.001106
v -0.654842 0.136960 0.180385
vn 0.804200 0.176800 0.567500
vn -0.473600 -0.386200 0.791500
vn -0.804200 -0.176800 -0.567500
vn 0.473600 0.386200 -0.791500
vn 0.359100 -0.905300 -0.226800
vn -0.359100 0.905300 0.226800
s off
f 1//1 2//1 4//1
f 4//2 8//2 7//2
f 8//3 6//3 5//3
f 5//4 6//4 2//4
f 3//5 7//5 5//5
f 4//6 2//6 6//6
f 3//1 1//1 4//1
f 3//2 4//2 7//2
f 7//3 8//3 5//3
f 1//4 5//4 2//4
f 1//5 3//5 5//5
f 8//6 4//6 6//6
