v 0.035547 0.126085 0.594288
v 0.093180 -0.567368 0.199376
v 0.391979 0.283449 0.369980
v 0.449613 -0.410003 -0.024933
v -0.448667 0.410421 0.024337
v -0.391033 -0.283032 -0.370575
v -0.092234 0.567786 -0.199971
v -0.034600 -0.125667 -0.594884
vn 0.605200 -0.355400 0.712400
vn 0.792800 0.350000 -0.498900
vn -0.605200 0.355400 -0.712400
vn -0.792800 -0.350000 0.498900
vn -0.072000 0.866700 0.493600
vn 0.072000 -0.866700 -0.493600
s off
f 2//1 4//1 3//1
f 4//2 8//2 7//2
f 8//3 6//3 5//3
f 6//4 2//4 1//4
f 7//5 5//5 1//5
f 8//6 4//6 2//6
f 1//1 2//1 3//1
f 3//2 4//2 7//2
f 7//3 8//3 5//3
f 5//4 6//4 1//4
f 3//5 7//5 1//5
f 6//6 8//6 2//6
