# Blender v2.76 (sub 0) OBJ File: 'cyber_data.blend'
# www.blender.org
v 0.546506 -0.086975 0.416991
v 0.363588 0.589076 0.030145
v -0.218830 -0.169123 0.635316
v -0.401749 0.506928 0.248470
v 0.401749 -0.506928 -0.248470
v 0.218830 0.169123 -0.635316
v -0.363588 -0.589076 -0.030145
v -0.546506 0.086975 -0.416991
vn 0.180900 0.524900 0.831700
vn -0.956600 -0.102700 0.272900
vn -0.180900 -0.524900 -0.831700
vn 0.956600 0.102700 -0.272900
vn 0.228600 -0.845000 0.483500
vn -0.228600 0.845000 -0.483500
s off
f 1//1 2//1 4//1
f 4//2 8//2 7//2
f 8//3 6//3 5//3
f 5//4 6//4 2//4
f 3//5 7//5 5//5
f 4//6 2//6 6//6
f 3//1 1//1 4//1
f 3//2 4//2 7//2
f 7//3 8//3 5//3
f 1//4 5//4 2//4
f 1//5 3//5 5//5
f 8//6 4//6 6//6
