# Blender v2.76 (sub 0) OBJ File: 'cyber_item.blend'
# www.blender.org
v 0.248175 -0.091001 0.548149
v 0.253670 0.548971 0.067983
v -0.200350 -0.070154 0.570802
v -0.194855 0.569818 0.090635
v 0.193664 -0.569763 -0.090575
v 0.199159 0.070209 -0.570741
v -0.254860 -0.548916 -0.067923
v -0.249365 0.091056 -0.548089
vn 0.068100 0.598400 0.798300
vn -0.997700 0.046400 0.050400
vn -0.068100 -0.598400 -0.798300
vn 0.997700 -0.046400 -0.050400
vn -0.006900 -0.799900 0.600100
vn 0.006900 0.799900 -0.600100
s off
f 2//1 4//1 3//1
f 4//2 8//2 7//2
f 8//3 6//3 5//3
f 6//4 2//4 1//4
f 7//5 5//5 1//5
f 8//6 4//6 2//6
f 1//1 2//1 3//1
f 3//2 4//2 7//2
f 7//3 8//3 5//3
f 5//4 6//4 1//4
f 3//5 7//5 1//5
f 6//6 8//6 2//6
