v 0.527754 -0.287398 -0.096008
v 0.363230 0.488119 0.011969
v 0.360654 -0.379526 0.311070
v 0.196130 0.395991 0.419047
v -0.196574 -0.396235 -0.417966
v -0.361098 0.379282 -0.309989
v -0.363674 -0.488364 -0.010888
v -0.528198 0.287154 0.097089
vn 0.905300 0.136000 0.402400
vn -0.371700 -0.204900 0.905500
vn -0.905300 -0.136000 -0.402400
vn 0.371700 0.204900 -0.905500
vn 0.205600 -0.969300 -0.135000
vn -0.205600 0.969300 0.135000
s off
f 2//1 4//1 3//1
f 4//2 8//2 7//2
f 8//3 6//3 5//3
f 6//4 2//4 1//4
f 7//5 5//5 1//5
f 8//6 4//6 2//6
f 1//1 2//1 3//1
f 3//2 4//2 7//2
f 7//3 8//3 5//3
f 5//4 6//4 1//4
f 3//5 7//5 1//5
f 6//6 8//6 2//6
