# Blender v2.76 (sub 0) OBJ File: 'cyber_item.blend'
# www.blender.org
v 0.142134 -0.125707 0.578217
v -0.058029 -0.605022 -0.030344
v 0.499992 0.018149 0.347209
v 0.299830 -0.461165 -0.261352
v -0.298880 0.461547 0.260738
v -0.499042 -0.017767 -0.347823
v 0.058979 0.605404 0.029731
v -0.141184 0.126089 -0.578830
vn 0.551200 -0.734000 0.396800
vn 0.796000 0.320000 -0.513800
vn -0.551200 0.734000 -0.396800
vn -0.796000 -0.320000 0.513800
vn 0.250200 0.599100 0.760600
vn -0.250200 -0.599100 -0.760600
s off
f 2//1 4//1 3//1
f 4//2 8//2 7//2
f 8//3 6//3 5//3
f 6//4 2//4 1//4
f 7//5 5//5 1//5
f 8//6 4//6 2//6
f 1//1 2//1 3//1
f 3//2 4//2 7//2
f 7//3 8//3 5//3
f 5//4 6//4 1//4
f 3//5 7//5 1//5
f 6//6 8//6 2//6
