# Blender v2.76 (sub 0) OBJ File: 'cyber_item.blend'
# www.blender.org
v 0.500350 -0.323506 -0.123829
v 0.388716 0.465426 -0.051173
v 0.366594 -0.381597 0.301444
v 0.254960 0.407334 0.374099
v -0.255315 -0.407488 -0.372970
v -0.366949 0.381443 -0.300315
v -0.389071 -0.465580 0.052302
v -0.500705 0.323352 0.124958
vn 0.944500 0.105000 0.311400
vn -0.297500 -0.129200 0.945900
vn -0.944500 -0.105000 -0.311400
vn 0.297500 0.129200 -0.945900
vn 0.139500 -0.986000 -0.090800
vn -0.139500 0.986000 0.090800
s off
f 2//1 4//1 3//1
f 4//2 8//2 7//2
f 8//3 6//3 5//3
f 6//4 2//4 1//4
f 7//5 5//5 1//5
f 8//6 4//6 2//6
f 1//1 2//1 3//1
f 3//2 4//2 7//2
f 7//3 8//3 5//3
f 5//4 6//4 1//4
f 3//5 7//5 1//5
f 6//6 8//6 2//6
