v -0.615697 -0.041990 -0.315070
v -0.413292 -0.426802 0.356574
v -0.287987 0.629550 -0.029076
v -0.085582 0.244738 0.642568
v 0.085582 -0.244738 -0.642568
v 0.287987 -0.629550 0.029076
v 0.413292 0.426802 -0.356574
v 0.615697 0.041990 0.315070
vn -0.876500 0.253400 0.409300
vn 0.409600 0.839300 0.357500
vn 0.876500 -0.253400 -0.409300
vn -0.409600 -0.839300 -0.357500
vn -0.253000 0.481000 -0.839500
vn 0.253000 -0.481000 0.839500
s off
f 1//1 2//1 4//1
f 4//2 8//2 7//2
f 8//3 6//3 5//3
f 5//4 6//4 2//4
f 3//5 7//5 5//5
f 4//6 2//6 6//6
f 3//1 1//1 4//1
f 3//2 4//2 7//2
f 7//3 8//3 5//3
f 1//4 5//4 2//4
f 1//5 3//5 5//5
f 8//6 4//6 6//6
