v 0.215924 0.039113 -0.657239
v -0.032589 -0.627729 -0.291564
v -0.405644 0.438876 -0.350651
v -0.654157 -0.227965 0.015024
v 0.654157 0.227965 -0.015024
v 0.405644 -0.438876 0.350651
v 0.032589 0.627729 0.291564
v -0.215924 -0.039113 0.657239
vn -0.547700 -0.236000 -0.802700
vn -0.776900 0.499600 0.383200
vn 0.547700 0.236000 0.802700
vn 0.776900 -0.499600 -0.383200
vn 0.310600 0.833500 -0.457000
vn -0.310600 -0.833500 0.457000
s off
f 1//1 2//1 4//1
f 4//2 8//2 7//2
f 8//3 6//3 5//3
f 5//4 6//4 2//4
f 3//5 7//5 5//5
f 4//6 2//6 6//6
f 3//1 1//1 4//1
f 3//2 4//2 7//2
f 7//3 8//3 5//3
f 1//4 5//4 2//4
f 1//5 3//5 5//5
f 8//6 4//6 6//6
