# Blender v2.76 (sub 0) OBJ File: 'cyber_data.blend'
# www.blender.org
v -0.103873 0.064531 0.682027
v -0.046240 -0.628921 0.287115
v 0.530453 0.344585 0.282836
v 0.588087 -0.348867 -0.112076
v -0.588087 0.348867 0.112076
v -0.530453 -0.344585 -0.282836
v 0.046240 0.628921 -0.287115
v 0.103873 -0.064531 -0.682027
vn 0.605200 -0.355400 0.712400
vn 0.792800 0.350000 -0.498900
vn -0.605200 0.355400 -0.712400
vn -0.792800 -0.350000 0.498900
vn -0.072000 0.866700 0.493600
vn 0.072000 -0.866700 -0.493600
s off
f 1//1 2//1 4//1
f 4//2 8//2 7//2
f 8//3 6//3 5//3
f 5//4 6//4 2//4
f 3//5 7//5 5//5
f 4//6 2//6 6//6
f 3//1 1//1 4//1
f 3//2 4//2 7//2
f 7//3 8//3 5//3
f 1//4 5//4 2//4
f 1//5 3//5 5//5
f 8//6 4//6 6//6
