v -0.674891 1.260152 -0.000832
v -0.505744 1.260152 -0.000832
v -0.505744 1.260152 0.954376
v -0.674891 1.260152 0.954376
v 0.678321 1.260152 -0.000832
v 0.678321 1.260152 0.954376
v 0.678321 -1.287070 1.073777
v 0.678321 -1.287070 0.954376
v -0.674891 -1.287070 0.954376
v -0.674891 -1.287070 1.073777
v 0.678321 1.021350 1.073777
v 0.678321 1.021350 0.954376
v 0.678321 1.021350 -0.000832
v 0.678321 1.140751 1.073777
v -0.674891 1.021350 0.954376
v -0.674891 1.021350 1.073777
v -0.674891 1.021350 -0.000832
v -0.674891 1.140751 1.073777
v -0.674891 0.837271 1.073777
v -0.505744 1.140751 1.073777
v -0.505744 0.837271 1.073777
v -0.505744 -1.287070 1.073777
v 0.678321 0.837271 1.073777
v -0.505744 1.021350 -0.000832
v -0.505744 1.021350 0.954376
vt 17.874935 -30.958334
vt 17.874935 -32.000000
vt 17.999931 -32.000000
vt 16.999935 -30.958334
vt 16.999935 -32.000000
vt 38.125000 -45.062500
vt 36.000000 -45.062500
vt 36.000000 -44.875000
vt -32.375000 -45.062500
vt -36.000000 -45.062500
vt -36.000000 -44.875000
vt -36.625000 -47.000000
vt -37.000000 -47.000000
vt -37.000000 -45.500000
vt -32.375000 -44.875000
vt -36.625000 -45.312500
vt -36.000000 38.875008
vt -36.000000 36.750008
vt -32.375000 36.750008
vt 17.874935 -10.000010
vt 17.999931 -10.000010
vt 17.999931 -9.875009
vt 17.999931 -9.000009
vt 17.874935 -9.000009
vt 16.999935 -10.000010
vt 17.874935 -9.875009
vt 16.999935 -9.000009
vt 17.874935 -10.945312
vt 17.874935 -10.992188
vt 17.999931 -10.992188
vt 16.999935 -10.945312
vt 16.999935 -10.992188
vt 17.999931 -30.958334
vt 36.000000 -37.000000
vt 36.000000 -36.625000
vt 38.125000 -36.625000
vt 38.125000 -44.875000
vt -36.812500 -45.312500
vt -32.375000 38.875008
vt 16.999935 -9.875009
vt 17.999931 -10.945312
vt 38.125000 -37.000000
vn 0.000000 1.000000 0.000000
vn 0.000000 -1.000000 0.000000
vn 1.000000 0.000000 0.000000
vn -1.000000 0.000000 0.000000
vn 0.000000 0.000000 -1.000000
vn 0.000000 0.000000 1.000000
vn 0.000000 0.707100 0.707100
s off
f 3/1/1 2/2/1 1/3/1
f 6/4/1 5/5/1 2/2/1
f 9/6/2 8/7/2 7/8/2
f 8/9/3 12/10/3 11/11/3
f 13/12/3 5/13/3 6/14/3
f 15/10/4 9/9/4 10/15/4
f 4/14/4 17/12/4 16/16/4
f 15/17/5 12/18/5 8/19/5
f 20/20/6 18/21/6 19/22/6
f 19/22/6 10/23/6 22/24/6
f 14/25/6 20/20/6 21/26/6
f 21/26/6 22/24/6 7/27/6
f 20/28/7 3/29/7 4/30/7
f 14/31/7 6/32/7 3/29/7
f 15/33/2 17/3/2 24/2/2
f 24/2/2 13/5/2 12/4/2
f 5/34/5 13/35/5 17/36/5
f 4/33/1 3/1/1 1/3/1
f 3/1/1 6/4/1 2/2/1
f 10/37/2 9/6/2 7/8/2
f 7/15/3 8/9/3 11/11/3
f 6/14/3 14/38/3 11/16/3
f 11/16/3 13/12/3 6/14/3
f 16/11/4 15/10/4 10/15/4
f 16/16/4 18/38/4 4/14/4
f 4/14/4 1/13/4 17/12/4
f 9/39/5 15/17/5 8/19/5
f 21/26/6 20/20/6 19/22/6
f 21/26/6 19/22/6 22/24/6
f 23/40/6 14/25/6 21/26/6
f 23/40/6 21/26/6 7/27/6
f 18/41/7 20/28/7 4/30/7
f 20/28/7 14/31/7 3/29/7
f 25/1/2 15/33/2 24/2/2
f 25/1/2 24/2/2 12/4/2
f 1/42/5 5/34/5 17/36/5
