# Blender v2.76 (sub 0) OBJ File: 'dexmissile.blend'
# www.blender.org
v -0.300122 -0.790598 1.742602
v -0.269248 -0.677287 1.368767
v -0.690752 -0.781643 1.713055
v -0.269248 -0.781643 1.713055
v -0.690752 -0.677287 1.368767
v -0.659878 -0.668332 1.339220
v -0.659878 -0.790598 1.742602
v -0.300122 -0.668332 1.339220
v -0.622548 1.094489 2.268276
v -0.647015 1.101586 2.244861
v -0.647015 1.184284 1.972023
v -0.622548 1.191381 1.948608
v -0.666476 -0.817242 1.680614
v -0.639158 -0.825166 1.706757
v -0.639158 -0.716983 1.349841
v -0.666476 -0.724908 1.375984
v -0.659878 0.025302 1.549463
v -0.690752 0.016347 1.579009
v -0.659878 -0.096964 1.952845
v -0.690752 -0.088008 1.923298
v -0.300122 0.025302 1.549463
v -0.269248 0.016347 1.579009
v -0.300122 -0.096964 1.952845
v -0.269248 -0.088008 1.923298
v -0.320842 -0.716983 1.349841
v -0.293525 -0.724908 1.375984
v -0.293525 -0.817242 1.680614
v -0.320842 -0.825166 1.706757
v -0.312985 1.184284 1.972023
v -0.337452 1.191381 1.948608
v -0.337452 1.094489 2.268276
v -0.312985 1.101586 2.244861
v -0.318917 -0.005832 1.957457
v -0.291269 0.095639 1.622683
v -0.641083 0.103659 1.596223
v -0.668731 0.002188 1.930997
v -0.668731 0.095639 1.622683
v -0.641083 -0.005832 1.957457
v -0.318917 0.103659 1.596223
v -0.291269 0.002188 1.930997
v -0.668731 1.136990 1.938320
v -0.641083 1.035518 2.273094
v -0.318917 1.145010 1.911860
v -0.291269 1.043538 2.246634
v -0.318917 1.035518 2.273094
v -0.291269 1.136990 1.938320
v -0.641083 1.145010 1.911860
v -0.668731 1.043539 2.246634
v 0.179878 -0.790598 1.742602
v 0.210752 -0.677287 1.368767
v -0.210752 -0.781643 1.713055
v 0.210752 -0.781643 1.713055
v -0.210752 -0.677287 1.368767
v -0.179878 -0.668332 1.339220
v -0.179878 -0.790598 1.742602
v 0.179878 -0.668332 1.339220
v -0.142548 1.094489 2.268276
v -0.167015 1.101586 2.244861
v -0.167015 1.184284 1.972023
v -0.142548 1.191381 1.948608
v -0.186476 -0.817242 1.680614
v -0.159158 -0.825166 1.706757
v -0.159158 -0.716983 1.349841
v -0.186476 -0.724908 1.375984
v -0.179878 0.025302 1.549463
v -0.210752 0.016347 1.579009
v -0.179878 -0.096964 1.952845
v -0.210752 -0.088008 1.923298
v 0.179878 0.025302 1.549463
v 0.210752 0.016347 1.579009
v 0.179878 -0.096964 1.952845
v 0.210752 -0.088008 1.923298
v 0.159158 -0.716983 1.349841
v 0.186476 -0.724908 1.375984
v 0.186476 -0.817242 1.680614
v 0.159158 -0.825166 1.706757
v 0.167015 1.184284 1.972023
v 0.142548 1.191381 1.948608
v 0.142548 1.094489 2.268276
v 0.167015 1.101586 2.244861
v 0.161083 -0.005832 1.957457
v 0.188731 0.095639 1.622683
v -0.161083 0.103659 1.596223
v -0.188731 0.002188 1.930997
v -0.188731 0.095639 1.622683
v -0.161083 -0.005832 1.957457
v 0.161083 0.103659 1.596223
v 0.188731 0.002188 1.930997
v -0.188731 1.136990 1.938320
v -0.161083 1.035518 2.273094
v 0.161083 1.145010 1.911860
v 0.188731 1.043538 2.246634
v 0.161083 1.035518 2.273094
v 0.188731 1.136990 1.938320
v -0.161083 1.145010 1.911860
v -0.188731 1.043538 2.246634
v 0.659878 -0.790598 1.742602
v 0.690752 -0.677287 1.368767
v 0.269247 -0.781643 1.713055
v 0.690752 -0.781643 1.713055
v 0.269247 -0.677287 1.368767
v 0.300122 -0.668332 1.339220
v 0.300122 -0.790598 1.742602
v 0.659878 -0.668332 1.339220
v 0.337452 1.094489 2.268276
v 0.312985 1.101586 2.244861
v 0.312985 1.184284 1.972023
v 0.337452 1.191381 1.948608
v 0.293524 -0.817242 1.680614
v 0.320842 -0.825166 1.706757
v 0.320842 -0.716983 1.349841
v 0.293524 -0.724908 1.375984
v 0.300122 0.025302 1.549463
v 0.269248 0.016347 1.579009
v 0.300122 -0.096964 1.952845
v 0.269248 -0.088008 1.923298
v 0.659878 0.025302 1.549463
v 0.690752 0.016347 1.579009
v 0.659878 -0.096964 1.952845
v 0.690752 -0.088008 1.923298
v 0.639158 -0.716983 1.349841
v 0.666475 -0.724908 1.375984
v 0.666475 -0.817242 1.680614
v 0.639158 -0.825166 1.706757
v 0.647015 1.184284 1.972023
v 0.622548 1.191381 1.948608
v 0.622548 1.094489 2.268276
v 0.647015 1.101586 2.244861
v 0.641083 -0.005832 1.957457
v 0.668731 0.095639 1.622683
v 0.318917 0.103659 1.596223
v 0.291269 0.002188 1.930997
v 0.291269 0.095639 1.622683
v 0.318917 -0.005832 1.957457
v 0.641083 0.103659 1.596223
v 0.668731 0.002188 1.930997
v 0.291269 1.136990 1.938320
v 0.318917 1.035518 2.273094
v 0.641083 1.145010 1.911860
v 0.668731 1.043538 2.246634
v 0.641083 1.035518 2.273094
v 0.668731 1.136990 1.938320
v 0.318917 1.145010 1.911860
v 0.291269 1.043538 2.246634
v -0.300122 -0.651364 1.283239
v -0.269248 -0.538053 0.909404
v -0.690752 -0.642408 1.253693
v -0.269248 -0.642408 1.253693
v -0.690752 -0.538053 0.909404
v -0.659878 -0.529097 0.879857
v -0.659878 -0.651364 1.283239
v -0.300122 -0.529097 0.879857
v -0.622548 1.233723 1.808914
v -0.647015 1.240820 1.785499
v -0.647015 1.323519 1.512660
v -0.622548 1.330616 1.489245
v -0.666476 -0.678007 1.221251
v -0.639158 -0.685932 1.247394
v -0.639158 -0.577749 0.890478
v -0.666476 -0.585673 0.916622
v -0.659878 0.164537 1.090100
v -0.690752 0.155581 1.119647
v -0.659878 0.042270 1.493482
v -0.690752 0.051226 1.463936
v -0.300122 0.164537 1.090100
v -0.269248 0.155581 1.119647
v -0.300122 0.042270 1.493482
v -0.269248 0.051226 1.463936
v -0.320842 -0.577749 0.890478
v -0.293524 -0.585673 0.916622
v -0.293525 -0.678007 1.221251
v -0.320842 -0.685932 1.247394
v -0.312985 1.323519 1.512660
v -0.337452 1.330616 1.489245
v -0.337452 1.233723 1.808914
v -0.312985 1.240820 1.785499
v -0.318917 0.133402 1.498095
v -0.291269 0.234874 1.163321
v -0.641083 0.242894 1.136861
v -0.668731 0.141423 1.471635
v -0.668731 0.234874 1.163321
v -0.641083 0.133403 1.498095
v -0.318917 0.242894 1.136861
v -0.291269 0.141423 1.471635
v -0.668731 1.276224 1.478958
v -0.641083 1.174753 1.813732
v -0.318917 1.284244 1.452498
v -0.291269 1.182773 1.787272
v -0.318917 1.174753 1.813732
v -0.291269 1.276224 1.478958
v -0.641083 1.284244 1.452498
v -0.668731 1.182773 1.787272
v 0.179878 -0.651364 1.283239
v 0.210752 -0.538053 0.909404
v -0.210752 -0.642408 1.253693
v 0.210752 -0.642408 1.253693
v -0.210752 -0.538053 0.909404
v -0.179878 -0.529097 0.879857
v -0.179878 -0.651364 1.283239
v 0.179878 -0.529097 0.879857
v -0.142548 1.233723 1.808914
v -0.167015 1.240820 1.785499
v -0.167015 1.323519 1.512660
v -0.142548 1.330616 1.489245
v -0.186476 -0.678007 1.221251
v -0.159158 -0.685932 1.247394
v -0.159158 -0.577749 0.890478
v -0.186476 -0.585673 0.916622
v -0.179878 0.164537 1.090100
v -0.210752 0.155581 1.119647
v -0.179878 0.042270 1.493482
v -0.210752 0.051226 1.463936
v 0.179878 0.164537 1.090100
v 0.210752 0.155581 1.119647
v 0.179878 0.042270 1.493482
v 0.210752 0.051226 1.463936
v 0.159158 -0.577749 0.890478
v 0.186476 -0.585673 0.916622
v 0.186476 -0.678007 1.221251
v 0.159158 -0.685932 1.247394
v 0.167015 1.323519 1.512660
v 0.142548 1.330616 1.489245
v 0.142548 1.233723 1.808914
v 0.167015 1.240820 1.785499
v 0.161083 0.133402 1.498095
v 0.188731 0.234874 1.163321
v -0.161083 0.242894 1.136861
v -0.188731 0.141422 1.471635
v -0.188731 0.234874 1.163321
v -0.161083 0.133402 1.498095
v 0.161083 0.242894 1.136861
v 0.188731 0.141422 1.471635
v -0.188731 1.276224 1.478958
v -0.161083 1.174753 1.813732
v 0.161083 1.284244 1.452498
v 0.188731 1.182773 1.787272
v 0.161083 1.174753 1.813732
v 0.188731 1.276224 1.478958
v -0.161083 1.284244 1.452498
v -0.188731 1.182773 1.787272
v 0.659878 -0.651364 1.283239
v 0.690752 -0.538053 0.909404
v 0.269248 -0.642408 1.253693
v 0.690752 -0.642408 1.253693
v 0.269248 -0.538053 0.909404
v 0.300122 -0.529097 0.879857
v 0.300122 -0.651364 1.283239
v 0.659878 -0.529097 0.879857
v 0.337452 1.233723 1.808914
v 0.312985 1.240820 1.785499
v 0.312985 1.323519 1.512660
v 0.337452 1.330616 1.489245
v 0.293524 -0.678007 1.221251
v 0.320842 -0.685932 1.247394
v 0.320842 -0.577749 0.890478
v 0.293524 -0.585673 0.916622
v 0.300122 0.164537 1.090100
v 0.269248 0.155581 1.119647
v 0.300122 0.042270 1.493482
v 0.269248 0.051226 1.463936
v 0.659878 0.164537 1.090100
v 0.690752 0.155581 1.119647
v 0.659878 0.042270 1.493482
v 0.690752 0.051226 1.463936
v 0.639158 -0.577749 0.890478
v 0.666475 -0.585673 0.916622
v 0.666475 -0.678007 1.221251
v 0.639158 -0.685932 1.247394
v 0.647015 1.323519 1.512660
v 0.622548 1.330616 1.489245
v 0.622548 1.233723 1.808914
v 0.647015 1.240820 1.785499
v 0.641083 0.133402 1.498095
v 0.668731 0.234874 1.163321
v 0.318917 0.242894 1.136861
v 0.291269 0.141422 1.471635
v 0.291269 0.234874 1.163321
v 0.318917 0.133402 1.498095
v 0.641083 0.242894 1.136861
v 0.668731 0.141422 1.471635
v 0.291269 1.276224 1.478958
v 0.318917 1.174753 1.813732
v 0.641083 1.284244 1.452498
v 0.668731 1.182773 1.787272
v 0.641083 1.174753 1.813732
v 0.668731 1.276224 1.478958
v 0.318917 1.284244 1.452498
v 0.291269 1.182773 1.787272
v -0.367135 0.047471 1.821480
v 0.367135 0.047471 1.821480
v -0.367135 0.307362 1.900254
v 0.367135 0.307362 1.900254
v 0.367135 0.405363 0.640722
v 0.367135 0.500643 0.589766
v -0.367135 0.500643 0.589766
v -0.367135 0.405363 0.640722
v -0.367135 0.665254 0.719496
v -0.367135 0.614298 0.624215
v 0.367135 0.614298 0.624215
v 0.367135 0.665254 0.719496
v 0.000000 1.208922 0.317335
v -0.195090 1.189707 0.317335
v -0.382683 1.132801 0.317335
v -0.555570 1.040391 0.317335
v -0.707107 0.916029 0.317335
v -0.831470 0.764492 0.317335
v -0.923880 0.591605 0.317335
v -0.980785 0.404012 0.317335
v -1.000000 0.208922 0.317335
v -0.980785 0.013832 0.317335
v -0.923880 -0.173761 0.317335
v -0.831470 -0.346648 0.317335
v -0.707107 -0.498185 0.317335
v -0.555570 -0.622548 0.317335
v -0.382683 -0.714958 0.317335
v -0.195090 -0.771864 0.317335
v 0.000000 -0.791078 0.317335
v 0.195091 -0.771864 0.317335
v 0.382684 -0.714958 0.317335
v 0.555571 -0.622548 0.317335
v 0.707107 -0.498185 0.317335
v 0.831470 -0.346648 0.317335
v 0.923880 -0.173761 0.317335
v 0.980785 0.013832 0.317335
v 1.000000 0.208923 0.317335
v 0.980785 0.404013 0.317335
v 0.923879 0.591606 0.317335
v 0.831469 0.764493 0.317335
v 0.707106 0.916029 0.317335
v 0.555569 1.040392 0.317335
v 0.382682 1.132802 0.317335
v 0.195089 1.189707 0.317335
v -0.155375 0.990047 0.424798
v 0.000000 1.005350 0.424798
v -0.304780 0.944725 0.424798
v -0.442472 0.871127 0.424798
v -0.563160 0.772081 0.424798
v -0.662206 0.651393 0.424798
v -0.735803 0.513702 0.424798
v -0.781125 0.364297 0.424798
v -0.796428 0.208922 0.424798
v -0.781125 0.053546 0.424798
v -0.735803 -0.095858 0.424798
v -0.662206 -0.233550 0.424798
v -0.563160 -0.354238 0.424798
v -0.442472 -0.453284 0.424798
v -0.304780 -0.526882 0.424798
v -0.155375 -0.572203 0.424798
v 0.000000 -0.587506 0.424798
v 0.155376 -0.572203 0.424798
v 0.304780 -0.526882 0.424798
v 0.442472 -0.453284 0.424798
v 0.563160 -0.354238 0.424798
v 0.662206 -0.233550 0.424798
v 0.735804 -0.095858 0.424798
v 0.781125 0.053547 0.424798
v 0.796428 0.208922 0.424798
v 0.781125 0.364298 0.424798
v 0.735803 0.513702 0.424798
v 0.662205 0.651394 0.424798
v 0.563159 0.772082 0.424798
v 0.442471 0.871128 0.424798
v 0.304779 0.944726 0.424798
v 0.155374 0.990047 0.424798
v -0.195090 1.189707 -0.002665
v 0.000000 1.208922 -0.002665
v -0.382683 1.132801 -0.002665
v -0.555570 1.040391 -0.002665
v -0.707107 0.916029 -0.002665
v -0.831470 0.764492 -0.002665
v -0.923880 0.591605 -0.002665
v -0.980785 0.404012 -0.002665
v -1.000000 0.208922 -0.002665
v -0.980785 0.013832 -0.002665
v -0.923880 -0.173761 -0.002665
v -0.831470 -0.346648 -0.002665
v -0.707107 -0.498185 -0.002665
v -0.555570 -0.622548 -0.002665
v -0.382683 -0.714958 -0.002665
v -0.195090 -0.771864 -0.002665
v 0.000000 -0.791078 -0.002665
v 0.195091 -0.771864 -0.002665
v 0.382684 -0.714958 -0.002665
v 0.555571 -0.622548 -0.002665
v 0.707107 -0.498185 -0.002665
v 0.831470 -0.346648 -0.002665
v 0.923880 -0.173761 -0.002665
v 0.980785 0.013832 -0.002665
v 1.000000 0.208923 -0.002665
v 0.980785 0.404013 -0.002665
v 0.923879 0.591606 -0.002665
v 0.831469 0.764493 -0.002665
v 0.707106 0.916029 -0.002665
v 0.555569 1.040392 -0.002665
v 0.382682 1.132802 -0.002665
v 0.195089 1.189707 -0.002665
v 0.814472 0.046914 0.416863
v 0.767216 -0.108869 0.416863
v -0.767216 -0.108869 0.416863
v -0.814472 0.046913 0.416863
v 0.830428 0.208922 0.416863
v -0.690476 -0.252439 0.416863
v 0.814471 0.370931 0.416863
v -0.587201 -0.378280 0.416863
v 0.767215 0.526714 0.416863
v -0.461361 -0.481554 0.416863
v 0.690475 0.670284 0.416863
v -0.317791 -0.558294 0.416863
v -0.162008 1.023393 0.416863
v 0.000000 1.039350 0.416863
v 0.587201 0.796124 0.416863
v -0.162008 -0.605550 0.416863
v -0.317791 0.976137 0.416863
v 0.461360 0.899398 0.416863
v 0.000000 -0.621506 0.416863
v -0.461361 0.899398 0.416863
v 0.317790 0.976138 0.416863
v 0.162009 -0.605550 0.416863
v -0.587201 0.796123 0.416863
v 0.162007 1.023394 0.416863
v 0.317791 -0.558294 0.416863
v -0.690476 0.670283 0.416863
v 0.461361 -0.481554 0.416863
v -0.767215 0.526713 0.416863
v 0.587202 -0.378279 0.416863
v -0.814472 0.370930 0.416863
v 0.690476 -0.252439 0.416863
v -0.830428 0.208922 0.416863
v 0.390491 -0.330063 0.424798
v 0.367135 -0.306706 0.424798
v 0.367135 0.724549 0.424798
v 0.390491 0.747906 0.424798
v 0.367135 -0.306706 0.650830
v 0.390491 -0.330063 0.665444
v 0.390491 -0.146693 0.754609
v 0.367135 -0.138472 0.732635
v 0.367135 0.562182 0.921652
v 0.390491 0.564537 0.946479
v 0.390492 0.747906 0.857314
v 0.367135 0.724549 0.842700
v 0.544293 -0.306706 0.424798
v 0.520936 -0.330063 0.424798
v 0.520936 0.747906 0.424798
v 0.544293 0.724549 0.424798
v 0.544293 -0.138472 0.732635
v 0.520936 -0.146694 0.754609
v 0.520936 -0.330063 0.665444
v 0.544293 -0.306706 0.650830
v 0.544293 0.724549 0.842700
v 0.520936 0.747906 0.857314
v 0.520936 0.564537 0.946479
v 0.544293 0.562182 0.921652
v -0.520936 -0.330062 0.424798
v -0.544293 -0.306706 0.424798
v -0.544293 0.724549 0.424798
v -0.520936 0.747906 0.424798
v -0.544293 -0.306706 0.650830
v -0.520936 -0.330062 0.665444
v -0.520936 -0.146693 0.754609
v -0.544293 -0.138472 0.732635
v -0.544293 0.562182 0.921652
v -0.520936 0.564537 0.946479
v -0.520936 0.747906 0.857314
v -0.544293 0.724549 0.842700
v -0.367135 -0.306706 0.424798
v -0.390491 -0.330062 0.424798
v -0.390491 0.747906 0.424798
v -0.367135 0.724549 0.424798
v -0.367135 -0.138472 0.732635
v -0.390491 -0.146693 0.754609
v -0.390491 -0.330062 0.665444
v -0.367135 -0.306706 0.650830
v -0.367134 0.724549 0.842700
v -0.390491 0.747906 0.857314
v -0.390491 0.564537 0.946479
v -0.367134 0.562182 0.921652
v 0.708974 -0.336101 -0.004282
v 0.708974 -0.336101 0.134424
v 0.808247 -0.174752 -0.004282
v 0.808247 -0.174752 0.134424
v 0.819928 -0.377323 0.018752
v 0.819928 -0.377323 0.111389
v 0.895060 -0.255211 0.018752
v 0.895060 -0.255211 0.111389
v 0.924165 -0.246073 0.134424
v 0.924165 -0.246073 -0.004282
v 0.824891 -0.407422 -0.004282
v 0.824891 -0.407422 0.134424
v 0.915509 -0.260141 0.117906
v 0.915509 -0.260141 0.012235
v 0.833547 -0.393354 0.012235
v 0.833547 -0.393354 0.117906
v -0.893440 0.170714 -0.004282
v -0.893440 0.170714 0.134424
v -0.865774 -0.016698 -0.004282
v -0.865774 -0.016698 0.134424
v -1.004932 0.130972 0.018752
v -1.004932 0.130972 0.111389
v -0.983994 -0.010866 0.018752
v -0.983994 -0.010866 0.111389
v -1.000416 -0.036574 0.134424
v -1.000416 -0.036574 -0.004282
v -1.028082 0.150838 -0.004282
v -1.028082 0.150838 0.134424
v -1.002828 -0.020234 0.117906
v -1.002828 -0.020234 0.012235
v -1.025669 0.134498 0.012235
v -1.025669 0.134498 0.117906
v -0.659878 -0.668332 1.339220
v -0.659878 -0.668332 1.339220
v -0.690752 -0.677287 1.368767
v -0.690752 -0.677287 1.368767
v -0.300122 -0.790598 1.742602
v -0.300122 -0.790598 1.742602
v -0.269248 -0.781643 1.713055
v -0.269248 -0.781643 1.713055
v -0.300122 -0.668332 1.339220
v -0.300122 -0.668332 1.339220
v -0.269248 -0.677287 1.368767
v -0.269248 -0.677287 1.368767
v -0.659878 -0.790598 1.742602
v -0.659878 -0.790598 1.742602
v -0.690752 -0.781643 1.713055
v -0.690752 -0.781643 1.713055
v -0.300122 -0.096964 1.952845
v -0.269248 0.016347 1.579009
v -0.690752 -0.088008 1.923298
v -0.293525 -0.817242 1.680614
v -0.293525 -0.817242 1.680614
v -0.666476 -0.724908 1.375984
v -0.666476 -0.724908 1.375984
v -0.659878 0.025302 1.549463
v -0.639158 -0.825166 1.706757
v -0.639158 -0.825166 1.706757
v -0.320842 -0.716983 1.349841
v -0.320842 -0.716983 1.349841
v -0.668731 1.136990 1.938320
v -0.647015 1.184284 1.972023
v -0.647015 1.184284 1.972023
v -0.622548 1.191381 1.948608
v -0.622548 1.191381 1.948608
v -0.668731 0.002188 1.930997
v -0.300122 0.025302 1.549463
v -0.318917 -0.005832 1.957457
v -0.659878 -0.096964 1.952845
v -0.639158 -0.716983 1.349841
v -0.639158 -0.716983 1.349841
v -0.690752 0.016347 1.579009
v -0.291269 0.095639 1.622683
v -0.269248 -0.088008 1.923298
v -0.641083 0.103659 1.596223
v -0.666476 -0.817242 1.680614
v -0.666476 -0.817242 1.680614
v -0.641083 1.035518 2.273094
v -0.622548 1.094489 2.268276
v -0.622548 1.094489 2.268276
v -0.647015 1.101586 2.244861
v -0.647015 1.101586 2.244861
v -0.293525 -0.724908 1.375984
v -0.293525 -0.724908 1.375984
v -0.318917 1.145010 1.911860
v -0.337452 1.191381 1.948608
v -0.337452 1.191381 1.948608
v -0.312985 1.184284 1.972023
v -0.312985 1.184284 1.972023
v -0.312985 1.101586 2.244861
v -0.312985 1.101586 2.244861
v -0.337452 1.094489 2.268276
v -0.337452 1.094489 2.268276
v -0.320842 -0.825166 1.706757
v -0.320842 -0.825166 1.706757
v -0.291269 1.043538 2.246634
v -0.318917 1.035518 2.273094
v -0.291269 1.136990 1.938320
v -0.641083 1.145010 1.911860
v -0.668731 1.043539 2.246634
v -0.668731 0.095639 1.622683
v -0.641083 -0.005832 1.957457
v -0.318917 0.103659 1.596223
v -0.291269 0.002188 1.930997
v -0.179878 -0.668332 1.339220
v -0.179878 -0.668332 1.339220
v -0.210752 -0.677287 1.368767
v -0.210752 -0.677287 1.368767
v 0.179878 -0.790598 1.742602
v 0.179878 -0.790598 1.742602
v 0.210752 -0.781643 1.713055
v 0.210752 -0.781643 1.713055
v 0.179878 -0.668332 1.339220
v 0.179878 -0.668332 1.339220
v 0.210752 -0.677287 1.368767
v 0.210752 -0.677287 1.368767
v -0.179878 -0.790598 1.742602
v -0.179878 -0.790598 1.742602
v -0.210752 -0.781643 1.713055
v -0.210752 -0.781643 1.713055
v 0.179878 -0.096964 1.952845
v 0.210752 0.016347 1.579009
v -0.210752 -0.088008 1.923298
v 0.186476 -0.817242 1.680614
v 0.186476 -0.817242 1.680614
v -0.186476 -0.724908 1.375984
v -0.186476 -0.724908 1.375984
v -0.179878 0.025302 1.549463
v -0.159158 -0.825166 1.706757
v -0.159158 -0.825166 1.706757
v 0.159158 -0.716983 1.349841
v 0.159158 -0.716983 1.349841
v -0.188731 1.136990 1.938320
v -0.167015 1.184284 1.972023
v -0.167015 1.184284 1.972023
v -0.142548 1.191381 1.948608
v -0.142548 1.191381 1.948608
v -0.188731 0.002188 1.930997
v 0.179878 0.025302 1.549463
v 0.161083 -0.005832 1.957457
v -0.179878 -0.096964 1.952845
v -0.159158 -0.716983 1.349841
v -0.159158 -0.716983 1.349841
v -0.210752 0.016347 1.579009
v 0.188731 0.095639 1.622683
v 0.210752 -0.088008 1.923298
v -0.161083 0.103659 1.596223
v -0.186476 -0.817242 1.680614
v -0.186476 -0.817242 1.680614
v -0.161083 1.035518 2.273094
v -0.142548 1.094489 2.268276
v -0.142548 1.094489 2.268276
v -0.167015 1.101586 2.244861
v -0.167015 1.101586 2.244861
v 0.186476 -0.724908 1.375984
v 0.186476 -0.724908 1.375984
v 0.161083 1.145010 1.911860
v 0.142548 1.191381 1.948608
v 0.142548 1.191381 1.948608
v 0.167015 1.184284 1.972023
v 0.167015 1.184284 1.972023
v 0.167015 1.101586 2.244861
v 0.167015 1.101586 2.244861
v 0.142548 1.094489 2.268276
v 0.142548 1.094489 2.268276
v 0.159158 -0.825166 1.706757
v 0.159158 -0.825166 1.706757
v 0.188731 1.043538 2.246634
v 0.161083 1.035518 2.273094
v 0.188731 1.136990 1.938320
v -0.161083 1.145010 1.911860
v -0.188731 1.043538 2.246634
v -0.188731 0.095639 1.622683
v -0.161083 -0.005832 1.957457
v 0.161083 0.103659 1.596223
v 0.188731 0.002188 1.930997
v 0.300122 -0.668332 1.339220
v 0.300122 -0.668332 1.339220
v 0.269247 -0.677287 1.368767
v 0.269247 -0.677287 1.368767
v 0.659878 -0.790598 1.742602
v 0.659878 -0.790598 1.742602
v 0.690752 -0.781643 1.713055
v 0.690752 -0.781643 1.713055
v 0.659878 -0.668332 1.339220
v 0.659878 -0.668332 1.339220
v 0.690752 -0.677287 1.368767
v 0.690752 -0.677287 1.368767
v 0.300122 -0.790598 1.742602
v 0.300122 -0.790598 1.742602
v 0.269247 -0.781643 1.713055
v 0.269247 -0.781643 1.713055
v 0.659878 -0.096964 1.952845
v 0.690752 0.016347 1.579009
v 0.269248 -0.088008 1.923298
v 0.666475 -0.817242 1.680614
v 0.666475 -0.817242 1.680614
v 0.293524 -0.724908 1.375984
v 0.293524 -0.724908 1.375984
v 0.300122 0.025302 1.549463
v 0.320842 -0.825166 1.706757
v 0.320842 -0.825166 1.706757
v 0.639158 -0.716983 1.349841
v 0.639158 -0.716983 1.349841
v 0.291269 1.136990 1.938320
v 0.312985 1.184284 1.972023
v 0.312985 1.184284 1.972023
v 0.337452 1.191381 1.948608
v 0.337452 1.191381 1.948608
v 0.291269 0.002188 1.930997
v 0.659878 0.025302 1.549463
v 0.641083 -0.005832 1.957457
v 0.300122 -0.096964 1.952845
v 0.320842 -0.716983 1.349841
v 0.320842 -0.716983 1.349841
v 0.269248 0.016347 1.579009
v 0.668731 0.095639 1.622683
v 0.690752 -0.088008 1.923298
v 0.318917 0.103659 1.596223
v 0.293524 -0.817242 1.680614
v 0.293524 -0.817242 1.680614
v 0.318917 1.035518 2.273094
v 0.337452 1.094489 2.268276
v 0.337452 1.094489 2.268276
v 0.312985 1.101586 2.244861
v 0.312985 1.101586 2.244861
v 0.666475 -0.724908 1.375984
v 0.666475 -0.724908 1.375984
v 0.641083 1.145010 1.911860
v 0.622548 1.191381 1.948608
v 0.622548 1.191381 1.948608
v 0.647015 1.184284 1.972023
v 0.647015 1.184284 1.972023
v 0.647015 1.101586 2.244861
v 0.647015 1.101586 2.244861
v 0.622548 1.094489 2.268276
v 0.622548 1.094489 2.268276
v 0.639158 -0.825166 1.706757
v 0.639158 -0.825166 1.706757
v 0.668731 1.043538 2.246634
v 0.641083 1.035518 2.273094
v 0.668731 1.136990 1.938320
v 0.318917 1.145010 1.911860
v 0.291269 1.043538 2.246634
v 0.291269 0.095639 1.622683
v 0.318917 -0.005832 1.957457
v 0.641083 0.103659 1.596223
v 0.668731 0.002188 1.930997
v -0.659878 -0.529097 0.879857
v -0.659878 -0.529097 0.879857
v -0.690752 -0.538053 0.909404
v -0.690752 -0.538053 0.909404
v -0.300122 -0.651364 1.283239
v -0.300122 -0.651364 1.283239
v -0.269248 -0.642408 1.253693
v -0.269248 -0.642408 1.253693
v -0.300122 -0.529097 0.879857
v -0.300122 -0.529097 0.879857
v -0.269248 -0.538053 0.909404
v -0.269248 -0.538053 0.909404
v -0.659878 -0.651364 1.283239
v -0.659878 -0.651364 1.283239
v -0.690752 -0.642408 1.253693
v -0.690752 -0.642408 1.253693
v -0.300122 0.042270 1.493482
v -0.269248 0.155581 1.119647
v -0.690752 0.051226 1.463936
v -0.293525 -0.678007 1.221251
v -0.293525 -0.678007 1.221251
v -0.666476 -0.585673 0.916622
v -0.666476 -0.585673 0.916622
v -0.659878 0.164537 1.090100
v -0.639158 -0.685932 1.247394
v -0.639158 -0.685932 1.247394
v -0.320842 -0.577749 0.890478
v -0.320842 -0.577749 0.890478
v -0.668731 1.276224 1.478958
v -0.647015 1.323519 1.512660
v -0.647015 1.323519 1.512660
v -0.622548 1.330616 1.489245
v -0.622548 1.330616 1.489245
v -0.668731 0.141423 1.471635
v -0.300122 0.164537 1.090100
v -0.318917 0.133402 1.498095
v -0.659878 0.042270 1.493482
v -0.639158 -0.577749 0.890478
v -0.639158 -0.577749 0.890478
v -0.690752 0.155581 1.119647
v -0.291269 0.234874 1.163321
v -0.269248 0.051226 1.463936
v -0.641083 0.242894 1.136861
v -0.666476 -0.678007 1.221251
v -0.666476 -0.678007 1.221251
v -0.641083 1.174753 1.813732
v -0.622548 1.233723 1.808914
v -0.622548 1.233723 1.808914
v -0.647015 1.240820 1.785499
v -0.647015 1.240820 1.785499
v -0.293524 -0.585673 0.916622
v -0.293524 -0.585673 0.916622
v -0.318917 1.284244 1.452498
v -0.337452 1.330616 1.489245
v -0.337452 1.330616 1.489245
v -0.312985 1.323519 1.512660
v -0.312985 1.323519 1.512660
v -0.312985 1.240820 1.785499
v -0.312985 1.240820 1.785499
v -0.337452 1.233723 1.808914
v -0.337452 1.233723 1.808914
v -0.320842 -0.685932 1.247394
v -0.320842 -0.685932 1.247394
v -0.291269 1.182773 1.787272
v -0.318917 1.174753 1.813732
v -0.291269 1.276224 1.478958
v -0.641083 1.284244 1.452498
v -0.668731 1.182773 1.787272
v -0.668731 0.234874 1.163321
v -0.641083 0.133403 1.498095
v -0.318917 0.242894 1.136861
v -0.291269 0.141423 1.471635
v -0.179878 -0.529097 0.879857
v -0.179878 -0.529097 0.879857
v -0.210752 -0.538053 0.909404
v -0.210752 -0.538053 0.909404
v 0.179878 -0.651364 1.283239
v 0.179878 -0.651364 1.283239
v 0.210752 -0.642408 1.253693
v 0.210752 -0.642408 1.253693
v 0.179878 -0.529097 0.879857
v 0.179878 -0.529097 0.879857
v 0.210752 -0.538053 0.909404
v 0.210752 -0.538053 0.909404
v -0.179878 -0.651364 1.283239
v -0.179878 -0.651364 1.283239
v -0.210752 -0.642408 1.253693
v -0.210752 -0.642408 1.253693
v 0.179878 0.042270 1.493482
v 0.210752 0.155581 1.119647
v -0.210752 0.051226 1.463936
v 0.186476 -0.678007 1.221251
v 0.186476 -0.678007 1.221251
v -0.186476 -0.585673 0.916622
v -0.186476 -0.585673 0.916622
v -0.179878 0.164537 1.090100
v -0.159158 -0.685932 1.247394
v -0.159158 -0.685932 1.247394
v 0.159158 -0.577749 0.890478
v 0.159158 -0.577749 0.890478
v -0.188731 1.276224 1.478958
v -0.167015 1.323519 1.512660
v -0.167015 1.323519 1.512660
v -0.142548 1.330616 1.489245
v -0.142548 1.330616 1.489245
v -0.188731 0.141422 1.471635
v 0.179878 0.164537 1.090100
v 0.161083 0.133402 1.498095
v -0.179878 0.042270 1.493482
v -0.159158 -0.577749 0.890478
v -0.159158 -0.577749 0.890478
v -0.210752 0.155581 1.119647
v 0.188731 0.234874 1.163321
v 0.210752 0.051226 1.463936
v -0.161083 0.242894 1.136861
v -0.186476 -0.678007 1.221251
v -0.186476 -0.678007 1.221251
v -0.161083 1.174753 1.813732
v -0.142548 1.233723 1.808914
v -0.142548 1.233723 1.808914
v -0.167015 1.240820 1.785499
v -0.167015 1.240820 1.785499
v 0.186476 -0.585673 0.916622
v 0.186476 -0.585673 0.916622
v 0.161083 1.284244 1.452498
v 0.142548 1.330616 1.489245
v 0.142548 1.330616 1.489245
v 0.167015 1.323519 1.512660
v 0.167015 1.323519 1.512660
v 0.167015 1.240820 1.785499
v 0.167015 1.240820 1.785499
v 0.142548 1.233723 1.808914
v 0.142548 1.233723 1.808914
v 0.159158 -0.685932 1.247394
v 0.159158 -0.685932 1.247394
v 0.188731 1.182773 1.787272
v 0.161083 1.174753 1.813732
v 0.188731 1.276224 1.478958
v -0.161083 1.284244 1.452498
v -0.188731 1.182773 1.787272
v -0.188731 0.234874 1.163321
v -0.161083 0.133402 1.498095
v 0.161083 0.242894 1.136861
v 0.188731 0.141422 1.471635
v 0.300122 -0.529097 0.879857
v 0.300122 -0.529097 0.879857
v 0.269248 -0.538053 0.909404
v 0.269248 -0.538053 0.909404
v 0.659878 -0.651364 1.283239
v 0.659878 -0.651364 1.283239
v 0.690752 -0.642408 1.253693
v 0.690752 -0.642408 1.253693
v 0.659878 -0.529097 0.879857
v 0.659878 -0.529097 0.879857
v 0.690752 -0.538053 0.909404
v 0.690752 -0.538053 0.909404
v 0.300122 -0.651364 1.283239
v 0.300122 -0.651364 1.283239
v 0.269248 -0.642408 1.253693
v 0.269248 -0.642408 1.253693
v 0.659878 0.042270 1.493482
v 0.690752 0.155581 1.119647
v 0.269248 0.051226 1.463936
v 0.666475 -0.678007 1.221251
v 0.666475 -0.678007 1.221251
v 0.293524 -0.585673 0.916622
v 0.293524 -0.585673 0.916622
v 0.300122 0.164537 1.090100
v 0.320842 -0.685932 1.247394
v 0.320842 -0.685932 1.247394
v 0.639158 -0.577749 0.890478
v 0.639158 -0.577749 0.890478
v 0.291269 1.276224 1.478958
v 0.312985 1.323519 1.512660
v 0.312985 1.323519 1.512660
v 0.337452 1.330616 1.489245
v 0.337452 1.330616 1.489245
v 0.291269 0.141422 1.471635
v 0.659878 0.164537 1.090100
v 0.641083 0.133402 1.498095
v 0.300122 0.042270 1.493482
v 0.320842 -0.577749 0.890478
v 0.320842 -0.577749 0.890478
v 0.269248 0.155581 1.119647
v 0.668731 0.234874 1.163321
v 0.690752 0.051226 1.463936
v 0.318917 0.242894 1.136861
v 0.293524 -0.678007 1.221251
v 0.293524 -0.678007 1.221251
v 0.318917 1.174753 1.813732
v 0.337452 1.233723 1.808914
v 0.337452 1.233723 1.808914
v 0.312985 1.240820 1.785499
v 0.312985 1.240820 1.785499
v 0.666475 -0.585673 0.916622
v 0.666475 -0.585673 0.916622
v 0.641083 1.284244 1.452498
v 0.622548 1.330616 1.489245
v 0.622548 1.330616 1.489245
v 0.647015 1.323519 1.512660
v 0.647015 1.323519 1.512660
v 0.647015 1.240820 1.785499
v 0.647015 1.240820 1.785499
v 0.622548 1.233723 1.808914
v 0.622548 1.233723 1.808914
v 0.639158 -0.685932 1.247394
v 0.639158 -0.685932 1.247394
v 0.668731 1.182773 1.787272
v 0.641083 1.174753 1.813732
v 0.668731 1.276224 1.478958
v 0.318917 1.284244 1.452498
v 0.291269 1.182773 1.787272
v 0.291269 0.234874 1.163321
v 0.318917 0.133402 1.498095
v 0.641083 0.242894 1.136861
v 0.668731 0.141422 1.471635
v 0.367135 0.047471 1.821480
v 0.367135 0.047471 1.821480
v -0.367135 0.047471 1.821480
v -0.367135 0.047471 1.821480
v -0.367135 0.307362 1.900254
v -0.367135 0.307362 1.900254
v 0.367135 0.307362 1.900254
v 0.367135 0.307362 1.900254
v 0.367135 0.500643 0.589766
v 0.367135 0.500643 0.589766
v 0.367135 0.405363 0.640722
v 0.367135 0.405363 0.640722
v -0.367135 0.405363 0.640722
v -0.367135 0.405363 0.640722
v -0.367135 0.500643 0.589766
v -0.367135 0.500643 0.589766
v 0.367135 0.665254 0.719496
v 0.367135 0.665254 0.719496
v 0.367135 0.614298 0.624215
v 0.367135 0.614298 0.624215
v -0.367135 0.614298 0.624215
v -0.367135 0.614298 0.624215
v -0.367135 0.665254 0.719496
v -0.367135 0.665254 0.719496
v -0.195090 1.189707 0.317335
v 0.000000 1.208922 0.317335
v -0.382683 1.132801 0.317335
v -0.555570 1.040391 0.317335
v -0.707107 0.916029 0.317335
v -0.831470 0.764492 0.317335
v -0.923880 0.591605 0.317335
v -0.980785 0.404012 0.317335
v -1.000000 0.208922 0.317335
v -0.980785 0.013832 0.317335
v -0.923880 -0.173761 0.317335
v -0.831470 -0.346648 0.317335
v -0.707107 -0.498185 0.317335
v -0.555570 -0.622548 0.317335
v -0.382683 -0.714958 0.317335
v -0.195090 -0.771864 0.317335
v 0.000000 -0.791078 0.317335
v 0.195091 -0.771864 0.317335
v 0.382684 -0.714958 0.317335
v 0.555571 -0.622548 0.317335
v 0.707107 -0.498185 0.317335
v 0.831470 -0.346648 0.317335
v 0.923880 -0.173761 0.317335
v 0.980785 0.013832 0.317335
v 1.000000 0.208923 0.317335
v 0.980785 0.404013 0.317335
v 0.923879 0.591606 0.317335
v 0.831469 0.764493 0.317335
v 0.707106 0.916029 0.317335
v 0.555569 1.040392 0.317335
v 0.382682 1.132802 0.317335
v 0.195089 1.189707 0.317335
v -0.195090 1.189707 -0.002665
v 0.000000 1.208922 -0.002665
v -0.382683 1.132801 -0.002665
v -0.555570 1.040391 -0.002665
v -0.707107 0.916029 -0.002665
v -0.831470 0.764492 -0.002665
v -0.923880 0.591605 -0.002665
v -0.980785 0.404012 -0.002665
v -1.000000 0.208922 -0.002665
v -0.980785 0.013832 -0.002665
v -0.923880 -0.173761 -0.002665
v -0.831470 -0.346648 -0.002665
v -0.707107 -0.498185 -0.002665
v -0.555570 -0.622548 -0.002665
v -0.382683 -0.714958 -0.002665
v -0.195090 -0.771864 -0.002665
v 0.000000 -0.791078 -0.002665
v 0.195091 -0.771864 -0.002665
v 0.382684 -0.714958 -0.002665
v 0.555571 -0.622548 -0.002665
v 0.707107 -0.498185 -0.002665
v 0.831470 -0.346648 -0.002665
v 0.923880 -0.173761 -0.002665
v 0.980785 0.013832 -0.002665
v 1.000000 0.208923 -0.002665
v 0.980785 0.404013 -0.002665
v 0.923879 0.591606 -0.002665
v 0.831469 0.764493 -0.002665
v 0.707106 0.916029 -0.002665
v 0.555569 1.040392 -0.002665
v 0.382682 1.132802 -0.002665
v 0.195089 1.189707 -0.002665
v 0.367135 -0.138472 0.732635
v 0.367135 -0.306706 0.650830
v 0.367135 -0.306706 0.650830
v 0.390491 -0.330063 0.665444
v 0.390491 -0.330063 0.665444
v 0.390491 -0.330063 0.665444
v 0.390491 -0.146693 0.754609
v 0.390492 0.747906 0.857314
v 0.390492 0.747906 0.857314
v 0.390492 0.747906 0.857314
v 0.367135 0.724549 0.842700
v 0.367135 0.724549 0.842700
v 0.367135 0.562182 0.921652
v 0.390491 0.564537 0.946479
v 0.390491 0.564537 0.946479
v 0.390491 0.747906 0.424798
v 0.367135 0.724549 0.424798
v 0.390491 -0.330063 0.424798
v 0.367135 -0.306706 0.424798
v 0.520936 -0.146694 0.754609
v 0.520936 -0.330063 0.665444
v 0.520936 -0.330063 0.665444
v 0.520936 -0.330063 0.665444
v 0.544293 -0.306706 0.650830
v 0.544293 -0.306706 0.650830
v 0.544293 -0.138472 0.732635
v 0.544293 0.724549 0.842700
v 0.544293 0.724549 0.842700
v 0.520936 0.747906 0.857314
v 0.520936 0.747906 0.857314
v 0.520936 0.747906 0.857314
v 0.520936 0.564537 0.946479
v 0.520936 0.564537 0.946479
v 0.544293 0.562182 0.921652
v 0.544293 0.724549 0.424798
v 0.520936 0.747906 0.424798
v 0.544293 -0.306706 0.424798
v 0.520936 -0.330063 0.424798
v -0.544293 -0.138472 0.732635
v -0.544293 -0.306706 0.650830
v -0.544293 -0.306706 0.650830
v -0.520936 -0.330062 0.665444
v -0.520936 -0.330062 0.665444
v -0.520936 -0.330062 0.665444
v -0.520936 -0.146693 0.754609
v -0.520936 0.747906 0.857314
v -0.520936 0.747906 0.857314
v -0.520936 0.747906 0.857314
v -0.544293 0.724549 0.842700
v -0.544293 0.724549 0.842700
v -0.544293 0.562182 0.921652
v -0.520936 0.564537 0.946479
v -0.520936 0.564537 0.946479
v -0.520936 0.747906 0.424798
v -0.544293 0.724549 0.424798
v -0.520936 -0.330062 0.424798
v -0.544293 -0.306706 0.424798
v -0.390491 -0.146693 0.754609
v -0.390491 -0.330062 0.665444
v -0.390491 -0.330062 0.665444
v -0.390491 -0.330062 0.665444
v -0.367135 -0.306706 0.650830
v -0.367135 -0.306706 0.650830
v -0.367135 -0.138472 0.732635
v -0.367134 0.724549 0.842700
v -0.367134 0.724549 0.842700
v -0.390491 0.747906 0.857314
v -0.390491 0.747906 0.857314
v -0.390491 0.747906 0.857314
v -0.390491 0.564537 0.946479
v -0.390491 0.564537 0.946479
v -0.367134 0.562182 0.921652
v -0.367135 0.724549 0.424798
v -0.390491 0.747906 0.424798
v -0.367135 -0.306706 0.424798
v -0.390491 -0.330062 0.424798
v 0.924165 -0.246073 -0.004282
v 0.924165 -0.246073 -0.004282
v 0.808247 -0.174752 -0.004282
v 0.808247 -0.174752 0.134424
v 0.924165 -0.246073 0.134424
v 0.924165 -0.246073 0.134424
v 0.824891 -0.407422 -0.004282
v 0.824891 -0.407422 -0.004282
v 0.824891 -0.407422 0.134424
v 0.824891 -0.407422 0.134424
v 0.708974 -0.336101 -0.004282
v 0.708974 -0.336101 0.134424
v 0.895060 -0.255211 0.111389
v 0.895060 -0.255211 0.111389
v 0.895060 -0.255211 0.018752
v 0.895060 -0.255211 0.018752
v 0.819928 -0.377323 0.018752
v 0.819928 -0.377323 0.018752
v 0.819928 -0.377323 0.111389
v 0.819928 -0.377323 0.111389
v 0.915509 -0.260141 0.117906
v 0.915509 -0.260141 0.117906
v 0.833547 -0.393354 0.117906
v 0.833547 -0.393354 0.117906
v 0.915509 -0.260141 0.012235
v 0.915509 -0.260141 0.012235
v 0.833547 -0.393354 0.012235
v 0.833547 -0.393354 0.012235
v -1.000416 -0.036574 -0.004282
v -1.000416 -0.036574 -0.004282
v -0.865774 -0.016698 -0.004282
v -0.865774 -0.016698 0.134424
v -1.000416 -0.036574 0.134424
v -1.000416 -0.036574 0.134424
v -1.028082 0.150838 -0.004282
v -1.028082 0.150838 -0.004282
v -1.028082 0.150838 0.134424
v -1.028082 0.150838 0.134424
v -0.893440 0.170714 -0.004282
v -0.893440 0.170714 0.134424
v -0.983994 -0.010866 0.111389
v -0.983994 -0.010866 0.111389
v -0.983994 -0.010866 0.018752
v -0.983994 -0.010866 0.018752
v -1.004932 0.130972 0.018752
v -1.004932 0.130972 0.018752
v -1.004932 0.130972 0.111389
v -1.004932 0.130972 0.111389
v -1.002828 -0.020234 0.117906
v -1.002828 -0.020234 0.117906
v -1.025669 0.134498 0.117906
v -1.025669 0.134498 0.117906
v -1.002828 -0.020234 0.012235
v -1.002828 -0.020234 0.012235
v -1.025669 0.134498 0.012235
v -1.025669 0.134498 0.012235
v -0.538337 0.678876 1.915756
v -0.529791 0.681355 1.907577
v -0.535593 -0.273678 1.611001
v -0.545135 -0.276446 1.620132
v -0.529791 0.647511 2.019235
v -0.538337 0.649990 2.011056
v -0.430209 0.681355 1.907577
v -0.421663 0.678876 1.915756
v -0.421663 0.649990 2.011056
v -0.430209 0.647511 2.019235
v -0.424407 -0.311466 1.735669
v -0.414865 -0.308698 1.726537
v -0.424407 -0.273679 1.611001
v -0.535593 -0.311466 1.735669
v -0.058337 0.678876 1.915756
v -0.049791 0.681355 1.907577
v -0.055593 -0.273679 1.611001
v -0.065135 -0.276446 1.620132
v -0.049791 0.647511 2.019235
v -0.058337 0.649990 2.011056
v 0.049791 0.681355 1.907577
v 0.058337 0.678876 1.915756
v 0.058337 0.649990 2.011056
v 0.049791 0.647511 2.019235
v 0.055593 -0.311466 1.735669
v 0.065135 -0.308698 1.726537
v 0.055593 -0.273679 1.611001
v -0.055593 -0.311466 1.735669
v 0.421663 0.678876 1.915756
v 0.430209 0.681355 1.907577
v 0.424407 -0.273679 1.611001
v 0.414865 -0.276446 1.620132
v 0.430209 0.647511 2.019235
v 0.421663 0.649990 2.011056
v 0.529791 0.681355 1.907577
v 0.538337 0.678876 1.915756
v 0.538337 0.649990 2.011056
v 0.529791 0.647511 2.019235
v 0.535593 -0.311466 1.735669
v 0.545135 -0.308698 1.726537
v 0.535593 -0.273679 1.611001
v 0.424407 -0.311466 1.735669
v -0.538337 0.818110 1.456393
v -0.529791 0.820589 1.448215
v -0.535593 -0.134444 1.151638
v -0.545135 -0.137212 1.160770
v -0.529791 0.786745 1.559873
v -0.538337 0.789224 1.551694
v -0.430209 0.820589 1.448215
v -0.421663 0.818110 1.456393
v -0.421663 0.789224 1.551694
v -0.430209 0.786745 1.559873
v -0.424407 -0.172231 1.276306
v -0.414865 -0.169464 1.267175
v -0.424407 -0.134444 1.151638
v -0.535593 -0.172231 1.276306
v -0.058337 0.818110 1.456393
v -0.049791 0.820589 1.448215
v -0.055593 -0.134444 1.151638
v -0.065135 -0.137212 1.160770
v -0.049791 0.786745 1.559873
v -0.058337 0.789224 1.551694
v 0.049791 0.820589 1.448215
v 0.058337 0.818110 1.456393
v 0.058337 0.789224 1.551694
v 0.049791 0.786745 1.559873
v 0.055593 -0.172231 1.276306
v 0.065135 -0.169464 1.267175
v 0.055593 -0.134444 1.151638
v -0.055593 -0.172231 1.276306
v 0.421663 0.818110 1.456393
v 0.430209 0.820589 1.448215
v 0.424407 -0.134444 1.151638
v 0.414865 -0.137212 1.160770
v 0.430209 0.786745 1.559873
v 0.421663 0.789224 1.551694
v 0.529791 0.820589 1.448215
v 0.538337 0.818110 1.456393
v 0.538337 0.789224 1.551694
v 0.529791 0.786745 1.559873
v 0.535593 -0.172232 1.276306
v 0.545135 -0.169464 1.267175
v 0.535593 -0.134444 1.151638
v 0.424407 -0.172231 1.276306
v -0.414865 -0.276446 1.620132
v -0.545135 -0.308698 1.726537
v 0.065135 -0.276446 1.620132
v -0.065135 -0.308698 1.726537
v 0.545135 -0.276446 1.620132
v 0.414865 -0.308698 1.726537
v -0.414865 -0.137212 1.160770
v -0.545135 -0.169464 1.267175
v 0.065135 -0.137212 1.160770
v -0.065135 -0.169464 1.267175
v 0.545135 -0.137212 1.160770
v 0.414865 -0.169464 1.267175
vt 0.500000 0.564851
vt 0.274130 0.564851
vt 0.274130 0.435149
vt 0.500000 0.575982
vt 0.274130 0.575982
vt 0.084090 0.921875
vt 0.084090 0.950592
vt 0.085505 0.950592
vt 0.103410 0.921875
vt 0.103410 0.950592
vt 0.101995 0.950592
vt 0.500000 0.424018
vt 0.274130 0.424018
vt 0.084090 0.979310
vt 0.103410 0.979310
vt 0.035104 0.946115
vt 0.035104 0.905316
vt 0.011677 0.905316
vt 0.005558 0.878749
vt 0.005558 0.957918
vt 0.037115 0.905316
vt 0.037115 0.946115
vt 0.007773 0.931201
vt 0.046799 0.931201
vt 0.046799 0.897220
vt 0.085505 0.979310
vt 0.103410 0.864440
vt 0.101995 0.864440
vt 0.101995 0.878799
vt 0.084090 0.864440
vt 0.085505 0.864440
vt 0.085505 0.878799
vt 0.101995 0.979310
vt 0.009666 0.905316
vt 0.009666 0.946115
vt 0.103410 0.893157
vt 0.101995 0.921875
vt 0.085505 0.921875
vt 0.084090 0.893157
vt 0.500000 0.435149
vt 0.058822 0.878749
vt 0.058822 0.957918
vt 0.054921 0.878749
vt 0.054921 0.957918
vt 0.009460 0.957918
vt 0.838806 0.435149
vt 0.838806 0.564851
vt 0.725870 0.564851
vt 0.838806 0.575982
vt 0.725870 0.575982
vt 0.085505 0.893157
vt 0.103410 0.878799
vt 0.101995 0.893157
vt 0.009460 0.878749
vt 0.838806 0.424018
vt 0.725870 0.424018
vt 0.004424 0.897220
vt 0.004424 0.931201
vt 0.084090 0.878799
vt 0.050148 0.897220
vt 0.050148 0.931201
vt 0.725870 0.435149
vt 0.011677 0.946115
vt 0.007773 0.897220
vt 0.012246 0.979940
vt 0.040890 0.979940
vt 0.032831 0.848845
vt 0.012246 0.856904
vt 0.040890 0.856904
vt 0.019628 0.776929
vt 0.027687 0.768870
vt 0.040213 0.768870
vt 0.048272 0.776929
vt 0.020305 0.848845
vt 0.012246 0.770995
vt 0.012246 0.731904
vt 0.012867 0.770995
vt 0.020020 0.727184
vt 0.040269 0.770995
vt 0.076226 0.891855
vt 0.084285 0.883796
vt 0.033198 0.725790
vt 0.040890 0.731904
vt 0.040890 0.770995
vt 0.096811 0.883796
vt 0.104870 0.891855
vt 0.799779 0.788718
vt 0.810269 0.788718
vt 0.031968 0.864824
vt 0.018790 0.866218
vt 0.039039 0.910029
vt 0.809523 0.788329
vt 0.809722 0.788985
vt 0.649696 0.722415
vt 0.771674 0.844393
vt 0.649696 0.966370
vt 0.838522 0.807193
vt 0.838383 0.806735
vt 0.833869 0.806735
vt 0.833730 0.807193
vt 0.838569 0.807670
vt 0.834095 0.806313
vt 0.838522 0.808147
vt 0.834398 0.805942
vt 0.838383 0.808605
vt 0.834769 0.805639
vt 0.838157 0.809027
vt 0.835191 0.805413
vt 0.836126 0.810113
vt 0.835649 0.810066
vt 0.837854 0.809398
vt 0.835649 0.805274
vt 0.835191 0.809927
vt 0.837483 0.809701
vt 0.836126 0.805227
vt 0.834769 0.809701
vt 0.837061 0.809927
vt 0.836603 0.805274
vt 0.834398 0.809398
vt 0.836603 0.810066
vt 0.837061 0.805413
vt 0.834095 0.809027
vt 0.837483 0.805639
vt 0.833869 0.808605
vt 0.837854 0.805942
vt 0.833730 0.808147
vt 0.838157 0.806313
vt 0.833683 0.807670
vt 0.696375 0.731700
vt 0.537003 0.891071
vt 0.603017 0.957085
vt 0.802859 0.788985
vt 0.803058 0.788329
vt 0.809789 0.789668
vt 0.803381 0.787724
vt 0.809722 0.790351
vt 0.803816 0.787194
vt 0.809523 0.791007
vt 0.804346 0.786759
vt 0.809199 0.791612
vt 0.804951 0.786436
vt 0.806290 0.793167
vt 0.805608 0.793099
vt 0.808764 0.792142
vt 0.805608 0.786236
vt 0.804951 0.792900
vt 0.808234 0.792577
vt 0.806290 0.786169
vt 0.804346 0.792577
vt 0.807629 0.792900
vt 0.806973 0.786236
vt 0.803816 0.792142
vt 0.806973 0.793099
vt 0.807629 0.786436
vt 0.803381 0.791612
vt 0.808234 0.786759
vt 0.803058 0.791007
vt 0.808764 0.787194
vt 0.802859 0.790351
vt 0.809199 0.787724
vt 0.802791 0.789668
vt 0.086584 0.929311
vt 0.086318 0.932004
vt 0.111595 0.924336
vt 0.112871 0.926722
vt 0.086584 0.934696
vt 0.109879 0.922245
vt 0.087369 0.937286
vt 0.107788 0.920528
vt 0.088644 0.939672
vt 0.105401 0.919253
vt 0.100120 0.945805
vt 0.102812 0.945540
vt 0.090361 0.941763
vt 0.102812 0.918468
vt 0.105401 0.944755
vt 0.092452 0.943479
vt 0.100120 0.918202
vt 0.107788 0.943479
vt 0.094838 0.944755
vt 0.097427 0.918468
vt 0.109879 0.941763
vt 0.097427 0.945540
vt 0.094838 0.919253
vt 0.111595 0.939672
vt 0.092452 0.920528
vt 0.112871 0.937286
vt 0.090361 0.922245
vt 0.113656 0.934696
vt 0.088644 0.924336
vt 0.113921 0.932004
vt 0.087369 0.926722
vt 0.113656 0.929311
vt 0.083090 0.918108
vt 0.082850 0.917262
vt 0.085195 0.914916
vt 0.090940 0.917625
vt 0.088948 0.915482
vt 0.088841 0.914916
vt 0.085113 0.915888
vt 0.091544 0.888175
vt 0.091544 0.877183
vt 0.083208 0.888175
vt 0.083208 0.876799
vt 0.083208 0.877490
vt 0.104173 0.921004
vt 0.101828 0.923349
vt 0.101996 0.923181
vt 0.107819 0.921004
vt 0.107920 0.921104
vt 0.109996 0.923181
vt 0.085553 0.874454
vt 0.085471 0.875425
vt 0.089306 0.875020
vt 0.091298 0.877162
vt 0.091364 0.888175
vt 0.083448 0.877645
vt 0.089199 0.874454
vt 0.091006 0.928638
vt 0.091186 0.928638
vt 0.082850 0.928638
vt 0.011636 0.910029
vt 0.398203 0.121527
vt 0.398203 0.082911
vt 0.233523 0.123889
vt 0.094446 0.123889
vt 0.094446 0.032116
vt 0.343082 0.121527
vt 0.343082 0.082911
vt 0.212293 0.002252
vt 0.212293 -0.001414
vt 0.212506 -0.001641
vt 0.207195 0.002252
vt 0.206982 0.002478
vt 0.206982 -0.001641
vt 0.209253 0.020343
vt 0.209253 0.023557
vt 0.209040 0.023783
vt 0.213927 0.023557
vt 0.214139 0.023783
vt 0.213927 0.020343
vt 0.209040 0.020117
vt 0.214139 0.020117
vt 0.212506 0.002478
vt 0.207195 -0.001414
vt 0.861872 0.935663
vt 0.856518 0.930313
vt 0.861872 0.862616
vt 0.865126 0.928083
vt 0.925791 0.923291
vt 0.920996 0.862658
vt 0.860563 0.935663
vt 0.855209 0.930313
vt 0.860563 0.862616
vt 0.863818 0.928083
vt 0.924481 0.923291
vt 0.919687 0.862658
vt 0.923833 0.935663
vt 0.856100 0.867967
vt 0.861453 0.862616
vt 0.920578 0.928083
vt 0.925372 0.923291
vt 0.920578 0.862658
vt 0.861872 0.937115
vt 0.856518 0.931764
vt 0.861872 0.864067
vt 0.865126 0.929534
vt 0.925791 0.924742
vt 0.860332 0.868902
vt 0.922942 0.937115
vt 0.855209 0.931764
vt 0.860563 0.864067
vt 0.919687 0.929534
vt 0.924481 0.924742
vt 0.919687 0.864110
vt 0.861453 0.937115
vt 0.856100 0.931764
vt 0.861453 0.864067
vt 0.920578 0.931734
vt 0.925372 0.926942
vt 0.920578 0.866310
vt 0.787133 0.979270
vt 0.787133 0.800778
vt 0.855209 0.867967
vt 0.982129 0.785610
vt 0.925372 0.867451
vt 0.996372 0.802229
vt 0.928295 0.869418
vt 0.922942 0.864067
vt 0.789461 0.979730
vt 0.860332 0.923291
vt 0.860332 0.867451
vt 0.802459 0.994588
vt 0.922942 0.935663
vt 0.995855 0.802981
vt 0.982129 0.789261
vt 0.996764 0.979209
vt 0.997263 0.802229
vt 0.997263 0.980721
vt 0.929186 0.931764
vt 0.981105 0.994492
vt 0.919687 0.928083
vt 0.803188 0.993450
vt 0.802459 0.996039
vt 0.860563 0.937115
vt 0.995874 0.979209
vt 0.994965 0.799330
vt 0.924481 0.867451
vt 0.996372 0.800778
vt 0.928295 0.867967
vt 0.922942 0.862616
vt 0.996764 0.982860
vt 0.997263 0.979270
vt 0.981936 0.994588
vt 0.788024 0.802229
vt 0.856100 0.869418
vt 0.981105 0.995943
vt 0.863818 0.929534
vt 0.802459 0.785460
vt 0.789461 0.981181
vt 0.803188 0.994901
vt 0.788152 0.981181
vt 0.859023 0.924742
vt 0.859023 0.868902
vt 0.929186 0.930313
vt 0.929186 0.867967
vt 0.994965 0.800781
vt 0.924481 0.868902
vt 0.981936 0.996039
vt 0.923833 0.937115
vt 0.803158 0.785610
vt 0.864708 0.862658
vt 0.803350 0.996039
vt 0.788024 0.980721
vt 0.789431 0.799330
vt 0.859914 0.867451
vt 0.787133 0.802229
vt 0.802459 0.786911
vt 0.803350 0.785460
vt 0.981936 0.785460
vt 0.923833 0.862616
vt 0.982547 0.785610
vt 0.925791 0.867451
vt 0.788024 0.979270
vt 0.788024 0.800778
vt 0.803158 0.789261
vt 0.864708 0.866310
vt 0.929186 0.869418
vt 0.923833 0.864067
vt 0.789431 0.802981
vt 0.859914 0.871102
vt 0.788152 0.979730
vt 0.859023 0.923291
vt 0.859023 0.867451
vt 0.803350 0.786911
vt 0.981936 0.786911
vt 0.996273 0.800781
vt 0.982547 0.787061
vt 0.920996 0.864110
vt 0.997182 0.979209
vt 0.920996 0.928083
vt 0.856100 0.930313
vt 0.861453 0.935663
vt 0.803350 0.994588
vt 0.997182 0.980660
vt 0.920996 0.929534
vt 0.997681 0.979270
vt 0.982354 0.994588
vt 0.924251 0.935663
vt 0.997263 0.800778
vt 0.981996 0.994492
vt 0.864708 0.928083
vt 0.801879 0.993450
vt 0.995855 0.799330
vt 0.789043 0.983381
vt 0.859914 0.926942
vt 0.997681 0.802229
vt 0.997681 0.980721
vt 0.929604 0.931764
vt 0.982354 0.996039
vt 0.924251 0.937115
vt 0.803576 0.785610
vt 0.865126 0.862658
vt 0.789849 0.799330
vt 0.981996 0.998143
vt 0.864708 0.931734
vt 0.803768 0.785460
vt 0.982354 0.785460
vt 0.924251 0.862616
vt 0.801879 0.994901
vt 0.925372 0.871102
vt 0.788442 0.802229
vt 0.856518 0.869418
vt 0.803576 0.787061
vt 0.865126 0.864110
vt 0.789849 0.800781
vt 0.982354 0.786911
vt 0.924251 0.864067
vt 0.789043 0.979730
vt 0.859914 0.923291
vt 0.929604 0.930313
vt 0.929604 0.867967
vt 0.981238 0.785610
vt 0.803768 0.996039
vt 0.788442 0.980721
vt 0.803768 0.994588
vt 0.788442 0.800778
vt 0.856518 0.867967
vt 0.981238 0.787061
vt 0.929604 0.869418
vt 0.982414 0.994492
vt 0.996273 0.799330
vt 0.788442 0.979270
vt 0.996372 0.980721
vt 0.928295 0.931764
vt 0.996372 0.979270
vt 0.981045 0.994588
vt 0.995874 0.980660
vt 0.982414 0.995943
vt 0.802769 0.993450
vt 0.925791 0.868902
vt 0.997681 0.800778
vt 0.855209 0.869418
vt 0.802267 0.785610
vt 0.863818 0.862658
vt 0.981045 0.996039
vt 0.788540 0.799330
vt 0.803768 0.786911
vt 0.981045 0.785460
vt 0.860332 0.924742
vt 0.928295 0.930313
vt 0.802769 0.997101
vt 0.787133 0.980721
vt 0.802267 0.787061
vt 0.863818 0.864110
vt 0.788540 0.800781
vt 0.981045 0.786911
vt 0.040043 0.733152
vt 0.013069 0.734811
vt 0.038812 0.872187
vt 0.011839 0.873845
vt 0.625899 0.964026
vt 0.581929 0.945813
vt 0.563445 0.930644
vt 0.548275 0.912160
vt 0.527718 0.844392
vt 0.530062 0.868189
vt 0.530062 0.820596
vt 0.537003 0.797714
vt 0.548275 0.776625
vt 0.563445 0.758141
vt 0.581929 0.742972
vt 0.603017 0.731700
vt 0.625899 0.724759
vt 0.673493 0.724759
vt 0.717463 0.742972
vt 0.735947 0.758141
vt 0.751117 0.776625
vt 0.762389 0.797714
vt 0.769330 0.820596
vt 0.769330 0.868189
vt 0.762389 0.891071
vt 0.751117 0.912160
vt 0.735947 0.930644
vt 0.717463 0.945813
vt 0.696375 0.957085
vt 0.673493 0.964026
vt 0.091186 0.917262
vt 0.091544 0.876799
vt 0.104148 0.921029
vt 0.110164 0.923349
vt 0.083389 0.888175
vt 0.083031 0.928638
vt 0.233523 0.032116
vn 0.993600 0.108300 0.032800
vn 0.976500 -0.206300 -0.062500
vn 0.000000 -0.179900 0.983700
vn 0.000000 -0.489500 0.871900
vn -0.698500 0.351500 -0.623300
vn -0.707100 0.205100 -0.676700
vn 0.698500 -0.053700 0.713600
vn 0.707100 -0.205100 0.676700
vn 0.000000 0.396500 -0.918000
vn 0.000000 0.076900 -0.997000
vn 0.570600 -0.399600 -0.717400
vn -0.570600 -0.730700 0.374800
vn -0.873100 -0.466500 -0.141400
vn -0.976500 -0.206300 -0.062500
vn 0.873100 -0.466500 -0.141400
vn 0.000000 0.411000 -0.911600
vn 0.000000 -0.719800 0.694100
vn -0.986000 0.159600 0.048400
vn -0.930200 0.351200 0.106400
vn -0.570600 -0.399600 -0.717400
vn -0.628100 0.257400 0.734300
vn -0.687500 0.024100 0.725700
vn 0.628100 0.621800 -0.467800
vn 0.687500 0.423000 -0.590200
vn 0.570600 -0.730700 0.374800
vn 0.000000 -0.213300 -0.977000
vn 0.698200 -0.051200 0.714000
vn 0.698500 0.351500 -0.623300
vn 0.707100 0.205100 -0.676700
vn -0.707100 -0.205100 0.676700
vn -0.698500 -0.053700 0.713600
vn -0.698200 0.353800 -0.622300
vn -0.993600 0.108300 0.032800
vn 0.000000 -0.164200 0.986400
vn 0.991600 0.123400 0.037400
vn 0.986000 0.159600 0.048400
vn 0.000000 -0.126400 0.992000
vn -0.687500 0.423000 -0.590200
vn 0.687500 0.024100 0.725700
vn 0.698200 0.353800 -0.622300
vn -0.698200 -0.051200 0.714000
vn -0.991600 0.123400 0.037400
vn 0.000000 0.445600 -0.895200
vn 0.000000 0.621100 -0.783700
vn 0.628100 0.257400 0.734300
vn -0.628100 0.621800 -0.467800
vn 0.000000 0.081400 0.996700
vn 0.930200 0.351200 0.106400
vn 0.000000 -0.290000 0.957000
vn -1.000000 0.000000 0.000000
vn 0.000000 0.957000 0.290000
vn 1.000000 0.000000 0.000000
vn 0.000000 -0.471600 -0.881800
vn 0.000000 0.881800 -0.471600
vn 0.000000 0.290000 -0.957000
vn 0.000000 -1.000000 0.000000
vn 0.000000 -0.437300 0.899300
vn 0.000000 -0.350400 0.936600
vn 0.000000 1.000000 0.000000
vn 0.000000 0.437300 0.899300
vn 0.000000 -0.260400 0.965500
vn 0.923900 -0.382700 0.000000
vn 0.980800 -0.195100 0.000000
vn 0.000000 -0.121400 0.992600
vn 0.121400 0.000000 0.992600
vn 0.000000 0.121400 0.992600
vn 0.371700 -0.073900 0.925400
vn 0.119100 -0.023700 0.992600
vn 0.112200 -0.046400 0.992600
vn -0.350100 -0.145000 0.925400
vn -0.112200 -0.046400 0.992600
vn -0.119100 -0.023700 0.992600
vn 0.378900 0.000000 0.925400
vn -0.315100 -0.210500 0.925400
vn -0.101000 -0.067400 0.992600
vn 0.371700 0.073900 0.925400
vn 0.119100 0.023700 0.992600
vn -0.268000 -0.268000 0.925400
vn -0.085800 -0.085800 0.992600
vn 0.350100 0.145000 0.925400
vn 0.112200 0.046400 0.992600
vn -0.210500 -0.315100 0.925400
vn -0.067400 -0.101000 0.992600
vn 0.315100 0.210500 0.925400
vn 0.101000 0.067400 0.992600
vn -0.145000 -0.350100 0.925400
vn -0.046400 -0.112200 0.992600
vn 0.000000 0.378900 0.925400
vn -0.073900 0.371700 0.925400
vn -0.023700 0.119100 0.992600
vn 0.268000 0.268000 0.925400
vn 0.085800 0.085800 0.992600
vn -0.073900 -0.371700 0.925400
vn -0.023700 -0.119100 0.992600
vn -0.145000 0.350100 0.925400
vn -0.046400 0.112200 0.992600
vn 0.210500 0.315100 0.925400
vn 0.067400 0.101000 0.992600
vn 0.000000 -0.378900 0.925400
vn -0.210500 0.315100 0.925400
vn -0.067400 0.101000 0.992600
vn 0.145000 0.350100 0.925400
vn 0.046400 0.112200 0.992600
vn 0.073900 -0.371700 0.925400
vn 0.023700 -0.119100 0.992600
vn -0.268000 0.268000 0.925400
vn -0.085800 0.085800 0.992600
vn 0.073900 0.371700 0.925400
vn 0.023700 0.119100 0.992600
vn 0.145000 -0.350100 0.925400
vn 0.046400 -0.112200 0.992600
vn -0.315100 0.210500 0.925400
vn -0.101000 0.067400 0.992600
vn 0.210500 -0.315100 0.925400
vn 0.067400 -0.101000 0.992600
vn -0.350100 0.145000 0.925400
vn -0.112200 0.046400 0.992600
vn 0.268000 -0.268000 0.925400
vn 0.085800 -0.085800 0.992600
vn -0.371700 0.073900 0.925400
vn -0.119100 0.023700 0.992600
vn 0.315100 -0.210500 0.925400
vn 0.101000 -0.067400 0.992600
vn -0.378900 0.000000 0.925400
vn -0.121400 0.000000 0.992600
vn 0.350100 -0.145000 0.925400
vn -0.371700 -0.073900 0.925400
vn 0.000000 0.000000 -1.000000
vn -0.980800 -0.195100 0.000000
vn -0.923900 -0.382700 0.000000
vn -0.831400 -0.555600 0.000000
vn 0.980800 0.195100 0.000000
vn -0.707100 -0.707100 0.000000
vn 0.923900 0.382700 0.000000
vn -0.555600 -0.831400 0.000000
vn 0.831400 0.555600 0.000000
vn -0.382700 -0.923900 0.000000
vn -0.195100 0.980800 0.000000
vn 0.707100 0.707100 0.000000
vn -0.195100 -0.980800 0.000000
vn -0.382700 0.923900 0.000000
vn 0.555600 0.831400 0.000000
vn -0.555600 0.831400 0.000000
vn 0.382700 0.923900 0.000000
vn 0.195100 -0.980800 0.000000
vn -0.707100 0.707100 0.000000
vn 0.195100 0.980800 0.000000
vn 0.382700 -0.923900 0.000000
vn -0.831400 0.555600 0.000000
vn 0.555600 -0.831400 0.000000
vn -0.923900 0.382700 0.000000
vn 0.707100 -0.707100 0.000000
vn -0.980800 0.195100 0.000000
vn 0.831400 -0.555600 0.000000
vn -0.496400 -0.098700 0.862400
vn 0.420900 -0.281200 0.862400
vn 0.467600 -0.193700 0.862400
vn -0.496400 0.098700 0.862400
vn -0.506200 0.000000 0.862400
vn -0.467600 0.193700 0.862400
vn 0.357900 -0.357900 0.862400
vn -0.420900 0.281200 0.862400
vn 0.193700 -0.467600 0.862400
vn 0.281200 -0.420900 0.862400
vn 0.000000 0.506200 0.862400
vn 0.098700 0.496400 0.862400
vn -0.357900 0.357900 0.862400
vn 0.000000 -0.506200 0.862400
vn 0.098700 -0.496400 0.862400
vn 0.193700 0.467600 0.862400
vn -0.193700 0.467600 0.862400
vn -0.281200 0.420900 0.862400
vn 0.357900 0.357900 0.862400
vn 0.281200 0.420900 0.862400
vn -0.193700 -0.467600 0.862400
vn -0.098700 -0.496400 0.862400
vn -0.098700 0.496400 0.862400
vn 0.420900 0.281200 0.862400
vn -0.357900 -0.357900 0.862400
vn -0.281200 -0.420900 0.862400
vn 0.467600 0.193700 0.862400
vn 0.496400 0.098700 0.862400
vn -0.467600 -0.193700 0.862400
vn -0.420900 -0.281200 0.862400
vn 0.506200 0.000000 0.862400
vn 0.496400 -0.098700 0.862400
vn -0.707100 -0.309200 0.635900
vn -0.708700 -0.247200 0.660800
vn -0.707100 0.309200 0.635900
vn -0.729900 0.064500 0.680500
vn 0.708700 -0.247200 0.660800
vn 0.707100 -0.309200 0.635900
vn 0.729900 0.064500 0.680500
vn 0.707100 0.309200 0.635900
vn 0.524000 0.851700 0.000000
vn 0.851700 -0.524000 0.000000
vn -0.524000 -0.851700 0.000000
vn -0.000000 0.000000 1.000000
vn 0.762100 0.647400 0.000000
vn 0.263900 -0.162400 -0.950800
vn 0.263900 -0.162400 0.950800
vn -0.234400 -0.972100 0.000000
vn 0.146000 -0.989300 0.000000
vn -0.989300 -0.146000 0.000000
vn -0.146000 0.989300 0.000000
vn -0.167700 -0.985800 0.000000
vn -0.306500 -0.045200 -0.950800
vn -0.306500 -0.045200 0.950800
vn -0.445400 0.895400 0.000000
vn 0.242900 -0.521300 -0.818000
vn 0.631600 -0.634100 -0.446000
vn 0.242900 -0.887800 0.390900
vn 0.248500 0.880900 -0.402800
vn -0.641000 0.767000 -0.027200
vn -0.248500 0.509000 0.824100
vn -0.242900 -0.521300 -0.818000
vn 0.631600 -0.775000 0.018900
vn -0.248500 0.880900 -0.402800
vn 0.641000 0.622900 0.448500
vn 0.875800 -0.168100 -0.452400
vn 0.875800 -0.391000 0.283000
vn -0.385900 -0.004000 0.922500
vn -0.641000 0.622900 0.448500
vn -0.875800 -0.391000 0.283000
vn -0.631600 -0.775000 0.018900
vn -0.242900 -0.887800 0.390900
vn 0.884000 0.364300 -0.292800
vn 0.641000 0.767000 -0.027200
vn 0.384200 -0.025500 -0.922900
vn -0.884000 0.140400 0.445800
vn -0.884000 0.364300 -0.292800
vn -0.875800 -0.168100 -0.452400
vn -0.631600 -0.634100 -0.446000
vn -0.385900 0.508800 -0.769500
vn 0.385900 0.508800 -0.769500
vn -0.384200 -0.025500 -0.922900
vn 0.384200 -0.533600 0.753400
vn 0.385900 -0.004000 0.922500
vn 0.248500 0.509000 0.824100
vn 0.884000 0.140400 0.445800
vn -0.384200 -0.533600 0.753400
vn 0.000000 -0.957000 -0.290000
s 1
f 24/1/1 515/2/2 519/3/2
f 19/4/3 521/5/4 513/5/4
f 532/6/5 509/7/6 511/8/6
f 23/9/7 514/10/8 516/11/8
f 543/12/9 517/13/10 510/13/10
f 535/14/11 518/7/11 520/8/11
f 533/15/12 522/10/12 523/11/12
f 553/16/13 524/17/14 512/18/14
f 519/18/2 515/17/2 528/16/15
f 579/19/16 543/20/9 17/20/9
f 521/21/4 14/22/17 570/22/17
f 537/23/18 48/24/18 558/25/19
f 6/7/20 546/14/20 16/26/20
f 555/27/21 10/28/21 576/29/22
f 562/30/23 565/31/23 46/32/24
f 1/10/25 28/15/25 27/33/25
f 517/34/10 25/35/26 15/35/26
f 544/36/27 23/9/7 550/37/7
f 21/6/28 22/38/28 2/8/29
f 7/10/30 545/9/31 527/37/31
f 35/39/32 532/6/5 548/38/5
f 524/2/14 20/1/33 18/40/33
f 578/41/34 19/42/3 525/42/3
f 40/43/35 24/44/1 526/45/1
f 574/46/36 44/47/36 40/48/35
f 42/49/37 578/50/34 33/50/34
f 35/39/32 577/51/32 41/32/38
f 45/52/39 544/36/27 580/53/27
f 21/6/28 39/39/40 34/51/40
f 38/36/41 542/53/41 527/37/31
f 20/44/33 36/43/42 37/54/42
f 43/55/43 579/56/16 551/56/16
f 541/57/44 30/57/44 43/58/43
f 569/27/45 45/52/39 572/29/39
f 575/59/38 41/32/38 11/31/46
f 31/60/47 9/60/47 42/61/37
f 32/25/48 44/24/36 574/23/36
f 561/59/24 46/32/24 34/51/40
f 554/52/22 576/29/22 542/53/41
f 36/48/42 48/47/18 537/46/18
f 72/1/1 587/2/2 591/3/2
f 67/4/3 593/5/4 585/5/4
f 581/7/6 583/8/6 620/38/5
f 71/9/7 586/10/8 588/11/8
f 615/12/9 589/13/10 582/13/10
f 590/7/11 592/8/11 631/26/11
f 605/15/12 594/10/12 595/11/12
f 625/16/13 596/17/14 584/18/14
f 591/18/2 587/17/2 600/16/15
f 623/19/16 651/19/16 615/20/9
f 593/21/4 62/22/17 642/22/17
f 609/23/18 96/24/18 630/25/19
f 54/7/20 618/14/20 64/26/20
f 627/27/21 58/28/21 648/29/22
f 634/30/23 637/31/23 94/32/24
f 49/10/25 76/15/25 75/33/25
f 589/34/10 73/35/26 63/35/26
f 616/36/27 71/9/7 622/37/7
f 69/6/28 70/38/28 50/8/29
f 617/9/31 599/37/31 51/11/30
f 604/6/5 620/38/5 649/51/32
f 584/3/14 596/2/14 68/1/33
f 650/41/34 67/42/3 597/42/3
f 621/54/35 88/43/35 72/44/1
f 646/46/36 92/47/36 88/48/35
f 90/49/37 650/50/34 81/50/34
f 83/39/32 649/51/32 89/32/38
f 93/52/39 616/36/27 652/53/27
f 69/6/28 87/39/40 82/51/40
f 86/36/41 614/53/41 599/37/31
f 68/44/33 84/43/42 85/54/42
f 91/55/43 651/56/16 623/56/16
f 613/57/44 78/57/44 91/58/43
f 641/27/45 93/52/39 644/29/39
f 647/59/38 89/32/38 59/31/46
f 57/60/47 90/61/37 645/61/37
f 80/25/48 92/24/36 646/23/36
f 633/59/24 94/32/24 82/51/40
f 86/36/41 626/52/22 648/29/22
f 84/48/42 96/47/18 609/46/18
f 120/1/1 659/2/2 663/3/2
f 115/4/3 665/5/4 657/5/4
f 676/6/5 653/7/6 655/8/6
f 658/10/8 660/11/8 694/37/7
f 687/12/9 661/13/10 654/13/10
f 679/14/11 662/7/11 664/8/11
f 666/10/12 667/11/12 696/33/12
f 697/16/13 668/17/14 656/18/14
f 663/18/2 659/17/2 672/16/15
f 723/19/16 687/20/9 113/20/9
f 665/21/4 110/22/17 714/22/17
f 681/23/18 144/24/18 702/25/19
f 102/7/20 690/14/20 112/26/20
f 699/27/21 106/28/21 720/29/22
f 705/59/24 706/30/23 709/31/23
f 97/10/25 124/15/25 123/33/25
f 661/34/10 121/35/26 111/35/26
f 688/36/27 119/9/7 694/37/7
f 117/6/28 118/38/28 98/8/29
f 689/9/31 671/37/31 99/11/30
f 676/6/5 692/38/5 721/51/32
f 656/3/14 668/2/14 116/1/33
f 129/41/34 722/41/34 115/42/3
f 693/54/35 136/43/35 120/44/1
f 140/47/36 136/48/35 693/62/35
f 138/49/37 722/50/34 129/50/34
f 131/39/32 721/51/32 137/32/38
f 688/36/27 724/53/27 716/29/39
f 117/6/28 135/39/40 130/51/40
f 134/36/41 686/53/41 671/37/31
f 116/44/33 132/43/42 133/54/42
f 139/55/43 723/56/16 695/56/16
f 126/57/44 139/58/43 143/58/43
f 141/52/39 716/29/39 711/28/45
f 108/30/46 719/59/38 137/32/38
f 105/60/47 138/61/37 717/61/37
f 128/25/48 140/24/36 718/23/36
f 705/59/24 142/32/24 130/51/40
f 134/36/41 698/52/22 720/29/22
f 132/48/42 144/47/18 681/46/18
f 742/40/1 168/1/1 731/2/2
f 163/4/3 737/5/4 729/5/4
f 748/6/5 725/7/6 727/8/6
f 730/10/8 732/11/8 766/37/7
f 759/12/9 733/13/10 726/13/10
f 751/14/11 734/7/11 736/8/11
f 749/15/12 738/10/12 739/11/12
f 769/16/13 740/17/14 728/18/14
f 731/17/2 744/16/15 776/63/15
f 795/19/16 759/20/9 161/20/9
f 737/21/4 158/22/17 786/22/17
f 753/23/18 192/24/18 774/25/19
f 762/14/20 160/26/20 149/8/20
f 770/52/22 771/27/21 154/28/21
f 778/30/23 781/31/23 190/32/24
f 145/10/25 172/15/25 171/33/25
f 733/34/10 169/35/26 159/35/26
f 167/9/7 766/37/7 796/53/27
f 165/6/28 166/38/28 146/8/29
f 761/9/31 743/37/31 147/11/30
f 179/39/32 748/6/5 764/38/5
f 740/2/14 164/1/33 162/40/33
f 794/41/34 163/42/3 741/42/3
f 765/54/35 184/43/35 168/44/1
f 188/47/36 184/48/35 765/62/35
f 186/49/37 794/50/34 177/50/34
f 791/59/38 179/39/32 793/51/32
f 760/36/27 796/53/27 788/29/39
f 183/39/40 178/51/40 166/38/28
f 182/36/41 758/53/41 743/37/31
f 164/44/33 180/43/42 181/54/42
f 187/55/43 795/56/16 767/56/16
f 174/57/44 187/58/43 191/58/43
f 189/52/39 788/29/39 783/28/45
f 791/59/38 185/32/38 155/31/46
f 153/60/47 186/61/37 789/61/37
f 176/25/48 188/24/36 790/23/36
f 777/59/24 190/32/24 178/51/40
f 770/52/22 792/29/22 758/53/41
f 181/62/42 180/48/42 192/47/18
f 814/40/1 216/1/1 803/2/2
f 211/4/3 809/5/4 801/5/4
f 820/6/5 797/7/6 799/8/6
f 802/10/8 804/11/8 838/37/7
f 831/12/9 805/13/10 798/13/10
f 806/7/11 808/8/11 847/26/11
f 821/15/12 810/10/12 811/11/12
f 841/16/13 812/17/14 800/18/14
f 807/18/2 803/17/2 816/16/15
f 867/19/16 831/20/9 209/20/9
f 809/21/4 206/22/17 858/22/17
f 825/23/18 240/24/18 846/25/19
f 834/14/20 208/26/20 197/8/20
f 842/52/22 843/27/21 202/28/21
f 849/59/24 850/30/23 853/31/23
f 220/15/25 219/33/25 196/11/25
f 805/34/10 217/35/26 207/35/26
f 832/36/27 215/9/7 838/37/7
f 213/6/28 214/38/28 194/8/29
f 833/9/31 815/37/31 195/11/30
f 820/6/5 836/38/5 865/51/32
f 812/2/14 212/1/33 210/40/33
f 866/41/34 211/42/3 813/42/3
f 837/54/35 232/43/35 216/44/1
f 236/47/36 232/48/35 837/62/35
f 234/49/37 866/50/34 225/50/34
f 863/59/38 227/39/32 865/51/32
f 832/36/27 868/53/27 860/29/39
f 231/39/40 226/51/40 214/38/28
f 230/36/41 830/53/41 815/37/31
f 212/44/33 228/43/42 229/54/42
f 235/55/43 867/56/16 839/56/16
f 829/57/44 222/57/44 235/58/43
f 237/52/39 860/29/39 855/28/45
f 863/59/38 233/32/38 203/31/46
f 201/60/47 234/61/37 861/61/37
f 221/64/48 224/25/48 236/24/36
f 231/39/40 849/59/24 238/32/24
f 230/36/41 842/52/22 864/29/22
f 229/62/42 228/48/42 240/47/18
f 264/1/1 875/2/2 879/3/2
f 259/4/3 881/5/4 873/5/4
f 869/7/6 871/8/6 908/38/5
f 263/9/7 874/10/8 876/11/8
f 903/12/9 877/13/10 870/13/10
f 878/7/11 880/8/11 919/26/11
f 893/15/12 882/10/12 883/11/12
f 913/16/13 884/17/14 872/18/14
f 879/18/2 875/17/2 888/16/15
f 939/19/16 903/20/9 257/20/9
f 881/21/4 254/22/17 930/22/17
f 897/23/18 288/24/18 918/25/19
f 246/7/20 906/14/20 256/26/20
f 915/27/21 250/28/21 936/29/22
f 921/59/24 922/30/23 925/31/23
f 268/15/25 267/33/25 244/11/25
f 877/34/10 265/35/26 255/35/26
f 904/36/27 263/9/7 910/37/7
f 261/6/28 262/38/28 242/8/29
f 247/10/30 905/9/31 887/37/31
f 275/39/32 892/6/5 908/38/5
f 884/2/14 260/1/33 258/40/33
f 938/41/34 259/42/3 885/42/3
f 909/54/35 280/43/35 264/44/1
f 284/47/36 280/48/35 909/62/35
f 282/49/37 938/50/34 273/50/34
f 935/59/38 275/39/32 937/51/32
f 285/52/39 904/36/27 940/53/27
f 279/39/40 274/51/40 262/38/28
f 905/9/31 278/36/41 902/53/41
f 260/44/33 276/43/42 277/54/42
f 283/55/43 939/56/16 911/56/16
f 270/57/44 283/58/43 287/58/43
f 929/27/45 285/52/39 932/29/39
f 252/30/46 935/59/38 281/32/38
f 249/60/47 282/61/37 933/61/37
f 269/64/48 272/25/48 284/24/36
f 921/59/24 286/32/24 274/51/40
f 914/52/22 936/29/22 902/53/41
f 277/62/42 276/48/42 288/47/18
f 943/65/49 941/65/49 947/66/49
f 962/67/50 954/68/50 963/69/50
f 958/69/51 964/69/51 946/66/51
f 560/63/15 519/18/2 528/16/15
f 550/37/7 23/9/7 516/11/8
f 951/68/52 957/69/52 948/66/52
f 552/33/12 533/15/12 523/11/12
f 530/63/13 553/16/13 512/18/14
f 559/26/11 535/14/11 520/8/11
f 296/70/53 956/71/53 950/71/53
f 961/72/54 297/73/54 300/73/54
f 299/67/55 294/74/55 295/74/55
f 429/75/56 442/75/56 1051/76/56
f 454/77/50 460/78/50 455/79/50
f 1033/80/57 1049/80/57 446/81/58
f 452/82/52 445/78/52 1063/79/52
f 1038/83/59 1059/83/59 443/84/59
f 1043/85/60 1060/85/60 1058/86/60
f 435/87/58 446/87/58 451/88/61
f 1072/76/56 453/75/56 466/75/56
f 1071/80/57 1087/80/57 470/81/58
f 476/89/52 469/90/52 1101/91/52
f 1076/83/59 1097/83/59 467/84/59
f 1081/85/60 1098/85/60 1096/86/60
f 459/87/58 470/87/58 475/88/61
f 987/92/62 387/92/62 1020/93/63
f 349/94/64 357/95/65 334/96/66
f 397/97/67 356/97/68 355/98/69
f 399/99/70 343/99/71 342/100/72
f 401/101/73 357/101/65 356/97/68
f 399/99/70 402/102/74 344/102/75
f 403/103/76 358/103/77 357/101/65
f 404/104/78 345/104/79 344/102/75
f 403/103/76 405/105/80 359/105/81
f 404/104/78 406/106/82 346/106/83
f 405/105/80 407/107/84 360/107/85
f 406/106/82 408/108/86 347/108/87
f 410/109/88 409/110/89 333/110/90
f 411/111/91 361/111/92 360/107/85
f 408/108/86 412/112/93 348/112/94
f 413/113/95 335/113/96 333/110/90
f 411/111/91 414/114/97 362/114/98
f 415/115/99 349/115/64 348/112/94
f 416/116/100 336/116/101 335/113/96
f 417/117/102 363/117/103 362/114/98
f 415/115/99 418/118/104 350/118/105
f 416/116/100 419/119/106 337/119/107
f 420/120/108 364/120/109 363/117/103
f 421/121/110 351/121/111 350/118/105
f 419/119/106 422/122/112 338/122/113
f 410/109/88 334/109/66 364/120/109
f 421/121/110 423/123/114 352/123/115
f 422/122/112 424/124/116 339/124/117
f 425/125/118 353/125/119 352/123/115
f 426/126/120 340/126/121 339/124/117
f 427/127/122 354/127/123 353/125/119
f 426/126/120 428/128/124 341/128/125
f 427/127/122 398/98/126 355/98/69
f 428/128/124 400/100/127 342/100/72
f 1015/129/128 1003/130/128 999/131/128
f 974/132/129 374/132/129 375/133/130
f 988/93/63 1020/93/63 389/134/52
f 975/133/130 375/133/130 376/135/131
f 989/134/52 389/134/52 390/136/132
f 976/135/131 376/135/131 377/137/133
f 990/136/132 390/136/132 391/138/134
f 977/137/133 377/137/133 378/139/135
f 991/138/134 391/138/134 392/140/136
f 978/139/135 378/139/135 379/141/137
f 966/142/59 366/142/59 365/143/138
f 992/140/136 392/140/136 393/144/139
f 979/141/137 379/141/137 380/145/140
f 965/143/138 365/143/138 367/146/141
f 993/144/139 393/144/139 394/147/142
f 980/145/140 380/145/140 381/148/56
f 967/146/141 367/146/141 368/149/143
f 994/147/142 394/147/142 395/150/144
f 981/148/56 381/148/56 382/151/145
f 968/149/143 368/149/143 369/152/146
f 995/150/144 395/150/144 396/153/147
f 982/151/145 382/151/145 383/154/148
f 969/152/146 369/152/146 370/155/149
f 996/153/147 396/153/147 366/142/59
f 983/154/148 383/154/148 384/156/150
f 970/155/149 370/155/149 371/157/151
f 984/156/150 384/156/150 385/158/152
f 971/157/151 371/157/151 372/159/153
f 985/158/152 385/158/152 386/160/154
f 972/159/153 372/159/153 373/161/50
f 986/160/154 386/160/154 387/92/62
f 973/161/50 373/161/50 374/132/129
f 310/162/155 400/162/127 428/163/124
f 322/164/156 323/165/157 398/165/126
f 308/166/158 309/163/159 428/163/124
f 322/164/156 427/164/122 425/167/118
f 307/168/160 308/166/158 426/166/120
f 321/167/161 425/167/118 423/169/114
f 306/170/162 307/168/160 424/168/116
f 319/171/163 320/169/164 423/169/114
f 301/172/165 410/172/88 420/173/108
f 306/170/162 422/170/112 419/174/106
f 319/171/163 421/171/110 418/175/104
f 332/173/166 420/173/108 417/176/102
f 305/174/167 419/174/106 416/177/100
f 317/178/168 318/175/169 418/175/104
f 331/176/170 417/176/102 414/179/97
f 303/180/171 304/177/172 416/177/100
f 317/178/168 415/178/99 412/181/93
f 329/182/173 330/179/174 414/179/97
f 303/180/171 413/180/95 409/183/89
f 315/184/175 316/181/176 412/181/93
f 329/182/173 411/182/91 407/185/84
f 301/172/165 302/183/177 409/183/89
f 315/184/175 408/184/86 406/186/82
f 328/185/178 407/185/84 405/187/80
f 313/188/179 314/186/180 406/186/82
f 327/187/181 405/187/80 403/189/76
f 313/188/179 404/188/78 402/190/74
f 326/189/182 403/189/76 401/191/73
f 311/192/183 312/190/184 402/190/74
f 325/191/185 401/191/73 397/193/67
f 311/192/183 399/192/70 400/162/127
f 324/193/186 397/193/67 398/165/126
f 1030/194/187 1032/195/187 1035/196/188
f 1039/197/189 1041/198/190 1042/199/190
f 1041/198/190 1029/200/188 1035/196/188
f 432/201/146 1045/201/146 1040/202/146
f 1046/203/133 434/204/133 1031/205/133
f 1048/206/191 1050/207/192 1052/208/192
f 1061/209/193 1062/210/193 1055/211/194
f 1048/212/191 1054/213/191 1062/214/193
f 449/215/139 444/216/139 1064/201/139
f 448/217/152 447/204/152 1066/203/152
f 1069/217/187 1070/204/187 1073/212/188
f 1077/215/189 461/214/190 1080/218/190
f 461/214/190 1067/213/188 1073/212/188
f 456/201/146 1083/216/146 464/215/146
f 1084/203/133 458/204/133 457/217/133
f 1086/206/191 1088/207/192 1090/208/192
f 1099/209/193 1100/210/193 1093/211/194
f 1086/212/191 1092/212/191 1100/218/193
f 473/197/139 468/219/139 1102/220/139
f 472/194/152 471/195/152 1104/221/152
f 430/222/50 436/90/50 431/91/50
s off
f 480/223/195 1109/223/195 1105/224/195
f 1117/225/196 1123/226/196 1121/227/196
f 1114/228/197 1116/228/197 477/229/197
f 1106/224/128 1111/229/128 1115/229/128
f 1108/223/198 478/228/198 1113/228/198
f 1126/230/196 1129/231/196 486/232/196
f 1128/233/196 488/234/196 487/235/196
s 1
f 526/40/1 24/1/1 519/3/2
f 548/38/5 532/6/5 511/8/6
s off
f 1122/236/199 1124/237/199 1127/238/199
f 1118/239/200 1125/240/200 492/238/200
f 1120/241/201 481/236/201 491/242/201
f 483/241/202 490/243/202 489/240/202
f 496/223/203 1137/223/203 1133/224/203
f 1145/225/204 1151/226/204 1149/227/204
f 1142/228/205 1144/228/205 493/229/205
f 1134/224/128 1139/229/128 1143/229/128
f 1136/223/198 494/228/198 1141/228/198
f 1157/231/204 502/232/204 501/244/204
f 1159/245/204 504/234/204 503/235/204
s 1
f 525/4/3 19/4/3 513/5/4
f 17/12/9 543/12/9 510/13/10
s off
f 1150/236/206 1152/237/206 1155/238/206
f 1146/239/207 1153/240/207 508/238/207
f 1148/241/208 497/236/208 507/242/208
f 499/241/209 506/243/209 505/240/209
s 1
f 1174/246/210 1246/247/211 1163/248/212
f 1165/249/213 1169/250/214 1167/251/215
f 1188/252/210 1248/253/211 1177/254/212
f 1179/255/213 1183/256/214 1181/257/215
f 1199/258/216 1192/259/217 1191/260/212
f 1198/261/218 1197/262/214 1195/263/215
f 1216/264/210 1252/265/211 1205/266/212
f 1207/267/213 1211/268/214 1203/269/219
f 1227/270/216 1254/271/211 1219/272/212
f 1226/273/218 1225/274/214 1223/275/215
f 1244/276/210 1256/277/211 1233/278/212
f 1240/279/218 1239/280/214 1237/281/215
f 61/282/220 603/283/221 1178/284/217
f 707/285/222 1195/263/215 1196/286/223
f 218/287/224 1253/288/225 1229/289/226
f 557/290/227 1166/291/228 1161/292/219
f 606/293/229 1188/252/210 1185/294/216
f 61/282/220 1248/253/211 1188/252/210
f 924/295/230 923/296/222 1237/281/215
f 710/297/231 1197/262/214 1198/261/218
f 266/298/224 889/299/232 1242/300/233
f 640/301/234 1184/302/218 1179/255/213
f 556/303/235 1165/249/213 1166/291/228
f 822/304/229 1230/305/210 1227/270/216
f 638/306/231 636/307/230 1182/308/223
f 74/309/224 1247/310/225 1187/311/226
f 926/312/231 1239/280/214 1240/279/218
f 673/313/232 715/314/236 1199/258/216
f 891/315/221 1234/316/217 1256/277/211
f 856/317/234 1226/273/218 1221/318/213
f 619/319/237 1177/254/212 1178/284/217
f 773/320/227 772/321/235 1207/267/213
f 845/322/227 1222/323/228 1217/324/219
f 673/313/232 1200/325/233 1249/326/225
f 852/327/230 1224/328/223 1225/274/214
f 931/329/236 1241/330/216 1242/300/233
f 684/331/238 1190/332/239 1195/263/215
f 894/333/229 253/334/220 1256/277/211
f 683/335/240 1189/336/219 1190/332/239
f 819/337/221 835/338/237 1219/272/212
f 691/339/237 680/340/241 1201/341/226
f 563/342/222 1167/251/215 1168/343/223
f 109/344/220 675/345/221 1192/259/217
f 900/346/238 1232/347/239 1237/281/215
f 266/298/224 1255/348/225 1243/349/226
f 899/350/240 1231/351/219 1232/347/239
f 629/352/227 1180/353/228 1175/354/219
f 907/355/237 896/356/241 1243/349/226
f 780/357/230 779/358/222 1209/359/215
f 566/360/231 1169/250/214 1170/361/218
f 109/344/220 1250/362/211 1202/363/210
f 715/314/236 678/364/229 1202/363/210
f 782/365/231 1211/268/214 1212/366/218
f 529/367/232 571/368/236 1171/369/216
f 122/370/224 1249/326/225 1201/341/226
f 712/371/234 1198/261/218 1193/372/213
f 629/352/227 628/373/235 1179/255/213
f 894/333/229 1244/276/210 1241/330/216
f 708/374/230 1196/286/223 1197/262/214
f 899/350/240 917/375/227 1236/376/228
f 170/377/224 745/378/232 1214/379/233
f 787/380/236 1213/381/216 1214/379/233
f 540/382/238 1162/383/239 1167/251/215
f 540/382/238 539/384/240 1161/292/219
f 928/385/234 1240/279/218 1235/386/213
f 691/339/237 1191/260/212 1192/259/217
f 547/387/237 536/388/241 1173/389/226
f 844/390/235 1221/318/213 1222/323/228
f 924/295/230 1238/391/223 1239/280/214
f 747/392/221 1206/393/217 1252/265/211
f 756/394/238 1204/395/239 1209/359/215
f 755/396/240 1203/269/219 1204/395/239
f 891/315/221 907/355/237 1233/278/212
f 752/397/241 1215/398/226 1205/266/212
f 701/399/227 1194/400/228 1189/336/219
f 529/367/232 1172/401/233 1245/402/225
f 635/403/222 1181/257/215 1182/308/223
f 750/404/229 157/405/220 1252/265/211
f 571/368/236 534/406/229 1174/246/210
f 531/407/221 1164/408/217 1246/247/211
f 640/301/234 638/306/231 1183/256/214
f 852/327/230 851/409/222 1223/275/215
f 752/397/241 170/377/224 1251/410/225
f 568/411/234 1170/361/218 1165/249/213
f 566/360/231 564/412/230 1168/343/223
f 750/404/229 1216/264/210 1213/381/216
f 13/413/220 1246/247/211 1174/246/210
f 218/287/224 817/414/232 1228/415/233
f 601/416/232 643/417/236 1185/294/216
f 856/317/234 854/418/231 1225/274/214
f 784/419/234 1212/366/218 1207/267/213
f 531/407/221 547/387/237 1163/248/212
f 700/420/235 1193/372/213 1194/400/228
f 780/357/230 1210/421/223 1211/268/214
f 26/422/224 1245/402/225 1173/389/226
f 819/337/221 1220/423/217 1254/271/211
f 612/424/238 1176/425/239 1181/257/215
f 859/426/236 1227/270/216 1228/415/233
f 611/427/240 1175/354/219 1176/425/239
f 763/428/237 1205/266/212 1206/393/217
f 608/429/241 1187/311/226 1177/254/212
f 773/320/227 1208/430/228 1203/269/219
f 601/416/232 1186/431/233 1247/310/225
f 916/432/235 1235/386/213 1236/376/228
f 822/304/229 205/433/220 1254/271/211
f 828/434/238 1218/435/239 1223/275/215
f 828/434/238 827/436/240 1217/324/219
f 824/437/241 1229/289/226 1219/272/212
f 953/68/242 952/68/242 290/65/242
f 551/19/16 579/19/16 17/20/9
f 513/21/4 521/21/4 570/22/17
f 538/64/19 537/23/18 558/25/19
f 5/8/20 6/7/20 16/26/20
f 554/52/22 555/27/21 576/29/22
f 561/59/24 562/30/23 46/32/24
f 4/11/25 1/10/25 27/33/25
f 510/34/10 517/34/10 15/35/26
f 580/53/27 544/36/27 550/37/7
f 8/7/29 21/6/28 2/8/29
f 3/11/30 7/10/30 527/37/31
f 577/51/32 35/39/32 548/38/5
f 512/3/14 524/2/14 18/40/33
f 33/41/34 578/41/34 525/42/3
f 549/54/35 40/43/35 526/45/1
f 549/62/35 574/46/36 40/48/35
f 573/49/37 42/49/37 33/50/34
f 575/59/38 35/39/32 41/32/38
f 572/29/39 45/52/39 580/53/27
f 22/38/28 21/6/28 34/51/40
f 545/9/31 38/36/41 527/37/31
f 18/45/33 20/44/33 37/54/42
f 47/55/43 43/55/43 551/56/16
f 47/58/43 541/57/44 43/58/43
f 567/28/45 569/27/45 572/29/39
f 12/30/46 575/59/38 11/31/46
f 573/61/37 31/60/47 42/61/37
f 29/64/48 32/25/48 574/23/36
f 39/39/40 561/59/24 34/51/40
f 38/36/41 554/52/22 542/53/41
f 37/62/42 36/48/42 537/46/18
f 598/40/1 72/1/1 591/3/2
f 597/4/3 67/4/3 585/5/4
f 604/6/5 581/7/6 620/38/5
f 622/37/7 71/9/7 588/11/8
f 65/12/9 615/12/9 582/13/10
f 607/14/11 590/7/11 631/26/11
f 624/33/12 605/15/12 595/11/12
f 602/63/13 625/16/13 584/18/14
f 632/63/15 591/18/2 600/16/15
f 65/20/9 623/19/16 615/20/9
f 585/21/4 593/21/4 642/22/17
f 610/64/19 609/23/18 630/25/19
f 53/8/20 54/7/20 64/26/20
f 626/52/22 627/27/21 648/29/22
f 633/59/24 634/30/23 94/32/24
f 52/11/25 49/10/25 75/33/25
f 582/34/10 589/34/10 63/35/26
f 652/53/27 616/36/27 622/37/7
f 56/7/29 69/6/28 50/8/29
f 55/10/30 617/9/31 51/11/30
f 83/39/32 604/6/5 649/51/32
f 66/40/33 584/3/14 68/1/33
f 81/41/34 650/41/34 597/42/3
f 598/45/1 621/54/35 72/44/1
f 621/62/35 646/46/36 88/48/35
f 645/49/37 90/49/37 81/50/34
f 647/59/38 83/39/32 89/32/38
f 644/29/39 93/52/39 652/53/27
f 70/38/28 69/6/28 82/51/40
f 617/9/31 86/36/41 599/37/31
f 66/45/33 68/44/33 85/54/42
f 95/55/43 91/55/43 623/56/16
f 95/58/43 613/57/44 91/58/43
f 639/28/45 641/27/45 644/29/39
f 60/30/46 647/59/38 59/31/46
f 79/60/47 57/60/47 645/61/37
f 77/64/48 80/25/48 646/23/36
f 87/39/40 633/59/24 82/51/40
f 614/53/41 86/36/41 648/29/22
f 85/62/42 84/48/42 609/46/18
f 670/40/1 120/1/1 663/3/2
f 669/4/3 115/4/3 657/5/4
f 692/38/5 676/6/5 655/8/6
f 119/9/7 658/10/8 694/37/7
f 113/12/9 687/12/9 654/13/10
f 703/26/11 679/14/11 664/8/11
f 677/15/12 666/10/12 696/33/12
f 674/63/13 697/16/13 656/18/14
f 704/63/15 663/18/2 672/16/15
f 695/19/16 723/19/16 113/20/9
f 657/21/4 665/21/4 714/22/17
f 682/64/19 681/23/18 702/25/19
f 101/8/20 102/7/20 112/26/20
f 698/52/22 699/27/21 720/29/22
f 142/32/24 705/59/24 709/31/23
f 100/11/25 97/10/25 123/33/25
f 654/34/10 661/34/10 111/35/26
f 724/53/27 688/36/27 694/37/7
f 104/7/29 117/6/28 98/8/29
f 103/10/30 689/9/31 99/11/30
f 131/39/32 676/6/5 721/51/32
f 114/40/33 656/3/14 116/1/33
f 669/42/3 129/41/34 115/42/3
f 670/45/1 693/54/35 120/44/1
f 718/46/36 140/47/36 693/62/35
f 717/49/37 138/49/37 129/50/34
f 719/59/38 131/39/32 137/32/38
f 141/52/39 688/36/27 716/29/39
f 118/38/28 117/6/28 130/51/40
f 689/9/31 134/36/41 671/37/31
f 114/45/33 116/44/33 133/54/42
f 143/55/43 139/55/43 695/56/16
f 685/57/44 126/57/44 143/58/43
f 713/27/45 141/52/39 711/28/45
f 107/31/46 108/30/46 137/32/38
f 127/60/47 105/60/47 717/61/37
f 125/64/48 128/25/48 718/23/36
f 135/39/40 705/59/24 130/51/40
f 686/53/41 134/36/41 720/29/22
f 133/62/42 132/48/42 681/46/18
f 735/3/2 742/40/1 731/2/2
f 741/4/3 163/4/3 729/5/4
f 764/38/5 748/6/5 727/8/6
f 167/9/7 730/10/8 766/37/7
f 161/12/9 759/12/9 726/13/10
f 775/26/11 751/14/11 736/8/11
f 768/33/12 749/15/12 739/11/12
f 746/63/13 769/16/13 728/18/14
f 735/18/2 731/17/2 776/63/15
f 767/19/16 795/19/16 161/20/9
f 729/21/4 737/21/4 786/22/17
f 754/64/19 753/23/18 774/25/19
f 150/7/20 762/14/20 149/8/20
f 792/29/22 770/52/22 154/28/21
f 777/59/24 778/30/23 190/32/24
f 148/11/25 145/10/25 171/33/25
f 726/34/10 733/34/10 159/35/26
f 760/36/27 167/9/7 796/53/27
f 152/7/29 165/6/28 146/8/29
f 151/10/30 761/9/31 147/11/30
f 793/51/32 179/39/32 764/38/5
f 728/3/14 740/2/14 162/40/33
f 177/41/34 794/41/34 741/42/3
f 742/45/1 765/54/35 168/44/1
f 790/46/36 188/47/36 765/62/35
f 789/49/37 186/49/37 177/50/34
f 185/32/38 791/59/38 793/51/32
f 189/52/39 760/36/27 788/29/39
f 165/6/28 183/39/40 166/38/28
f 761/9/31 182/36/41 743/37/31
f 162/45/33 164/44/33 181/54/42
f 191/55/43 187/55/43 767/56/16
f 757/57/44 174/57/44 191/58/43
f 785/27/45 189/52/39 783/28/45
f 156/30/46 791/59/38 155/31/46
f 175/60/47 153/60/47 789/61/37
f 173/64/48 176/25/48 790/23/36
f 183/39/40 777/59/24 178/51/40
f 182/36/41 770/52/22 758/53/41
f 753/46/18 181/62/42 192/47/18
f 807/3/2 814/40/1 803/2/2
f 813/4/3 211/4/3 801/5/4
f 836/38/5 820/6/5 799/8/6
f 215/9/7 802/10/8 838/37/7
f 209/12/9 831/12/9 798/13/10
f 823/14/11 806/7/11 847/26/11
f 840/33/12 821/15/12 811/11/12
f 818/63/13 841/16/13 800/18/14
f 848/63/15 807/18/2 816/16/15
f 839/19/16 867/19/16 209/20/9
f 801/21/4 809/21/4 858/22/17
f 826/64/19 825/23/18 846/25/19
f 198/7/20 834/14/20 197/8/20
f 864/29/22 842/52/22 202/28/21
f 238/32/24 849/59/24 853/31/23
f 193/10/25 220/15/25 196/11/25
f 798/34/10 805/34/10 207/35/26
f 868/53/27 832/36/27 838/37/7
f 200/7/29 213/6/28 194/8/29
f 199/10/30 833/9/31 195/11/30
f 227/39/32 820/6/5 865/51/32
f 800/3/14 812/2/14 210/40/33
f 225/41/34 866/41/34 813/42/3
f 814/45/1 837/54/35 216/44/1
f 862/46/36 236/47/36 837/62/35
f 861/49/37 234/49/37 225/50/34
f 233/32/38 863/59/38 865/51/32
f 237/52/39 832/36/27 860/29/39
f 213/6/28 231/39/40 214/38/28
f 833/9/31 230/36/41 815/37/31
f 210/45/33 212/44/33 229/54/42
f 239/55/43 235/55/43 839/56/16
f 239/58/43 829/57/44 235/58/43
f 857/27/45 237/52/39 855/28/45
f 204/30/46 863/59/38 203/31/46
f 223/60/47 201/60/47 861/61/37
f 862/23/36 221/64/48 236/24/36
f 226/51/40 231/39/40 238/32/24
f 830/53/41 230/36/41 864/29/22
f 825/46/18 229/62/42 240/47/18
f 886/40/1 264/1/1 879/3/2
f 885/4/3 259/4/3 873/5/4
f 892/6/5 869/7/6 908/38/5
f 910/37/7 263/9/7 876/11/8
f 257/12/9 903/12/9 870/13/10
f 895/14/11 878/7/11 919/26/11
f 912/33/12 893/15/12 883/11/12
f 890/63/13 913/16/13 872/18/14
f 920/63/15 879/18/2 888/16/15
f 911/19/16 939/19/16 257/20/9
f 873/21/4 881/21/4 930/22/17
f 898/64/19 897/23/18 918/25/19
f 245/8/20 246/7/20 256/26/20
f 914/52/22 915/27/21 936/29/22
f 286/32/24 921/59/24 925/31/23
f 241/10/25 268/15/25 244/11/25
f 870/34/10 877/34/10 255/35/26
f 940/53/27 904/36/27 910/37/7
f 248/7/29 261/6/28 242/8/29
f 243/11/30 247/10/30 887/37/31
f 937/51/32 275/39/32 908/38/5
f 872/3/14 884/2/14 258/40/33
f 273/41/34 938/41/34 885/42/3
f 886/45/1 909/54/35 264/44/1
f 934/46/36 284/47/36 909/62/35
f 933/49/37 282/49/37 273/50/34
f 281/32/38 935/59/38 937/51/32
f 932/29/39 285/52/39 940/53/27
f 261/6/28 279/39/40 262/38/28
f 887/37/31 905/9/31 902/53/41
f 258/45/33 260/44/33 277/54/42
f 287/55/43 283/55/43 911/56/16
f 901/57/44 270/57/44 287/58/43
f 927/28/45 929/27/45 932/29/39
f 251/31/46 252/30/46 281/32/38
f 271/60/47 249/60/47 933/61/37
f 934/23/36 269/64/48 284/24/36
f 279/39/40 921/59/24 274/51/40
f 278/36/41 914/52/22 902/53/41
f 897/46/18 277/62/42 288/47/18
f 945/66/49 943/65/49 947/66/49
f 291/66/50 963/69/50 954/68/50
f 962/67/50 955/74/50 954/68/50
f 954/68/50 289/65/50 291/66/50
f 292/66/51 958/69/51 946/66/51
f 948/66/52 942/65/52 951/68/52
f 951/68/52 949/74/52 959/67/52
f 959/67/52 957/69/52 951/68/52
f 293/70/53 296/70/53 950/71/53
f 960/72/54 961/72/54 300/73/54
f 298/67/55 299/67/55 295/74/55
f 1034/76/56 429/75/56 1051/76/56
f 1078/438/50 455/79/50 1079/82/50
f 454/77/50 1068/439/50 460/78/50
f 460/78/50 1079/82/50 455/79/50
f 435/81/58 1033/80/57 446/81/58
f 441/77/52 1063/79/52 445/78/52
f 1056/438/52 452/82/52 1063/79/52
f 445/78/52 1053/439/52 441/77/52
f 1044/84/59 1038/83/59 443/84/59
f 1037/86/60 1043/85/60 1058/86/60
f 438/88/61 435/87/58 451/88/61
f 1089/76/56 1072/76/56 466/75/56
f 459/81/58 1071/80/57 470/81/58
f 465/222/52 1101/91/52 469/90/52
f 1094/440/52 476/89/52 1101/91/52
f 469/90/52 1091/441/52 465/222/52
f 1082/84/59 1076/83/59 467/84/59
f 1075/86/60 1081/85/60 1096/86/60
f 462/88/61 459/87/58 475/88/61
f 988/93/63 987/92/62 1020/93/63
f 334/96/66 333/442/90 335/131/96
f 335/131/96 336/443/101 337/444/107
f 337/444/107 338/445/113 341/446/125
f 339/130/117 340/447/121 341/446/125
f 341/446/125 342/448/72 343/449/71
f 343/449/71 344/450/75 345/451/79
f 345/451/79 346/452/83 347/453/87
f 347/453/87 348/454/94 349/94/64
f 349/94/64 350/455/105 351/129/111
f 351/129/111 352/456/115 353/457/119
f 353/457/119 354/458/123 357/95/65
f 355/459/69 356/460/68 357/95/65
f 357/95/65 358/461/77 359/462/81
f 359/462/81 360/463/85 361/464/92
f 361/464/92 362/465/98 363/466/103
f 363/466/103 364/467/109 361/464/92
f 334/96/66 335/131/96 341/446/125
f 338/445/113 339/130/117 341/446/125
f 341/446/125 343/449/71 345/451/79
f 345/451/79 347/453/87 349/94/64
f 349/94/64 351/129/111 353/457/119
f 354/458/123 355/459/69 357/95/65
f 357/95/65 359/462/81 334/96/66
f 361/464/92 364/467/109 334/96/66
f 335/131/96 337/444/107 341/446/125
f 341/446/125 345/451/79 334/96/66
f 349/94/64 353/457/119 357/95/65
f 359/462/81 361/464/92 334/96/66
f 334/96/66 345/451/79 349/94/64
f 398/98/126 397/97/67 355/98/69
f 400/100/127 399/99/70 342/100/72
f 397/97/67 401/101/73 356/97/68
f 343/99/71 399/99/70 344/102/75
f 401/101/73 403/103/76 357/101/65
f 402/102/74 404/104/78 344/102/75
f 358/103/77 403/103/76 359/105/81
f 345/104/79 404/104/78 346/106/83
f 359/105/81 405/105/80 360/107/85
f 346/106/83 406/106/82 347/108/87
f 334/109/66 410/109/88 333/110/90
f 407/107/84 411/111/91 360/107/85
f 347/108/87 408/108/86 348/112/94
f 409/110/89 413/113/95 333/110/90
f 361/111/92 411/111/91 362/114/98
f 412/112/93 415/115/99 348/112/94
f 413/113/95 416/116/100 335/113/96
f 414/114/97 417/117/102 362/114/98
f 349/115/64 415/115/99 350/118/105
f 336/116/101 416/116/100 337/119/107
f 417/117/102 420/120/108 363/117/103
f 418/118/104 421/121/110 350/118/105
f 337/119/107 419/119/106 338/122/113
f 420/120/108 410/109/88 364/120/109
f 351/121/111 421/121/110 352/123/115
f 338/122/113 422/122/112 339/124/117
f 423/123/114 425/125/118 352/123/115
f 424/124/116 426/126/120 339/124/117
f 425/125/118 427/127/122 353/125/119
f 340/126/121 426/126/120 341/128/125
f 354/127/123 427/127/122 355/98/69
f 341/128/125 428/128/124 342/100/72
f 999/131/128 997/442/128 998/96/128
f 998/96/128 1028/467/128 1027/466/128
f 1027/466/128 1026/465/128 1025/464/128
f 1025/464/128 1024/463/128 1027/466/128
f 1023/462/128 1022/461/128 1021/95/128
f 1021/95/128 388/460/128 1019/459/128
f 1019/459/128 1018/458/128 1017/457/128
f 1017/457/128 1016/456/128 1015/129/128
f 1015/129/128 1014/455/128 1013/94/128
f 1013/94/128 1012/454/128 1011/453/128
f 1011/453/128 1010/452/128 1009/451/128
f 1009/451/128 1008/450/128 1007/449/128
f 1007/449/128 1006/448/128 1003/130/128
f 1005/446/128 1004/447/128 1003/130/128
f 1003/130/128 1002/445/128 1001/444/128
f 1001/444/128 1000/443/128 999/131/128
f 999/131/128 998/96/128 1023/462/128
f 1027/466/128 1024/463/128 1023/462/128
f 1023/462/128 1021/95/128 1015/129/128
f 1019/459/128 1017/457/128 1015/129/128
f 1015/129/128 1013/94/128 1011/453/128
f 1011/453/128 1009/451/128 1015/129/128
f 1006/448/128 1005/446/128 1003/130/128
f 1003/130/128 1001/444/128 999/131/128
f 998/96/128 1027/466/128 1023/462/128
f 1021/95/128 1019/459/128 1015/129/128
f 1015/129/128 1009/451/128 1007/449/128
f 1007/449/128 1003/130/128 1015/129/128
f 999/131/128 1023/462/128 1015/129/128
f 975/133/130 974/132/129 375/133/130
f 989/134/52 988/93/63 389/134/52
f 976/135/131 975/133/130 376/135/131
f 990/136/132 989/134/52 390/136/132
f 977/137/133 976/135/131 377/137/133
f 991/138/134 990/136/132 391/138/134
f 978/139/135 977/137/133 378/139/135
f 992/140/136 991/138/134 392/140/136
f 979/141/137 978/139/135 379/141/137
f 965/143/138 966/142/59 365/143/138
f 993/144/139 992/140/136 393/144/139
f 980/145/140 979/141/137 380/145/140
f 967/146/141 965/143/138 367/146/141
f 994/147/142 993/144/139 394/147/142
f 981/148/56 980/145/140 381/148/56
f 968/149/143 967/146/141 368/149/143
f 995/150/144 994/147/142 395/150/144
f 982/151/145 981/148/56 382/151/145
f 969/152/146 968/149/143 369/152/146
f 996/153/147 995/150/144 396/153/147
f 983/154/148 982/151/145 383/154/148
f 970/155/149 969/152/146 370/155/149
f 966/142/59 996/153/147 366/142/59
f 984/156/150 983/154/148 384/156/150
f 971/157/151 970/155/149 371/157/151
f 985/158/152 984/156/150 385/158/152
f 972/159/153 971/157/151 372/159/153
f 986/160/154 985/158/152 386/160/154
f 973/161/50 972/159/153 373/161/50
f 987/92/62 986/160/154 387/92/62
f 974/132/129 973/161/50 374/132/129
f 309/163/159 310/162/155 428/163/124
f 427/164/122 322/164/156 398/165/126
f 426/166/120 308/166/158 428/163/124
f 321/167/161 322/164/156 425/167/118
f 424/168/116 307/168/160 426/166/120
f 320/169/164 321/167/161 423/169/114
f 422/170/112 306/170/162 424/168/116
f 421/171/110 319/171/163 423/169/114
f 332/173/166 301/172/165 420/173/108
f 305/174/167 306/170/162 419/174/106
f 318/175/169 319/171/163 418/175/104
f 331/176/170 332/173/166 417/176/102
f 304/177/172 305/174/167 416/177/100
f 415/178/99 317/178/168 418/175/104
f 330/179/174 331/176/170 414/179/97
f 413/180/95 303/180/171 416/177/100
f 316/181/176 317/178/168 412/181/93
f 411/182/91 329/182/173 414/179/97
f 302/183/177 303/180/171 409/183/89
f 408/184/86 315/184/175 412/181/93
f 328/185/178 329/182/173 407/185/84
f 410/172/88 301/172/165 409/183/89
f 314/186/180 315/184/175 406/186/82
f 327/187/181 328/185/178 405/187/80
f 404/188/78 313/188/179 406/186/82
f 326/189/182 327/187/181 403/189/76
f 312/190/184 313/188/179 402/190/74
f 325/191/185 326/189/182 401/191/73
f 399/192/70 311/192/183 402/190/74
f 324/193/186 325/191/185 397/193/67
f 310/162/155 311/192/183 400/162/127
f 323/165/157 324/193/186 398/165/126
f 1029/200/188 1030/194/187 1035/196/188
f 1036/468/189 1039/197/189 1042/199/190
f 1042/199/190 1041/198/190 1035/196/188
f 439/469/146 432/201/146 1040/202/146
f 1047/203/133 1046/203/133 1031/205/133
f 1054/470/191 1048/206/191 1052/208/192
f 1057/471/194 1061/209/193 1055/211/194
f 1061/218/193 1048/212/191 1062/214/193
f 450/469/139 449/215/139 1064/201/139
f 1065/472/152 448/217/152 1066/203/152
f 1067/213/188 1069/217/187 1073/212/188
f 1074/469/189 1077/215/189 1080/218/190
f 1080/218/190 461/214/190 1073/212/188
f 463/469/146 456/201/146 464/215/146
f 1085/472/133 1084/203/133 457/217/133
f 1092/470/191 1086/206/191 1090/208/192
f 1095/471/194 1099/209/193 1093/211/194
f 1099/218/193 1086/212/191 1100/218/193
f 474/468/139 473/197/139 1102/220/139
f 1103/473/152 472/194/152 1104/221/152
f 440/440/50 431/91/50 437/89/50
f 430/222/50 433/441/50 436/90/50
f 436/90/50 437/89/50 431/91/50
s off
f 479/224/195 480/223/195 1105/224/195
f 1119/474/196 1117/225/196 1121/227/196
f 1112/229/197 1114/228/197 477/229/197
f 1107/224/128 1106/224/128 1115/229/128
f 1110/223/198 1108/223/198 1113/228/198
f 485/244/196 1126/230/196 486/232/196
f 1128/233/196 1126/230/196 488/234/196
f 486/232/196 1129/231/196 487/235/196
f 1126/230/196 485/244/196 488/234/196
f 487/235/196 1129/231/196 1131/245/196
f 1131/245/196 1128/233/196 487/235/196
f 1132/242/199 1122/236/199 1127/238/199
f 482/237/200 1118/239/200 492/238/200
f 1130/243/201 1120/241/201 491/242/201
f 484/239/202 483/241/202 489/240/202
f 495/224/203 496/223/203 1133/224/203
f 1147/474/204 1145/225/204 1149/227/204
f 1140/229/205 1142/228/205 493/229/205
f 1135/224/128 1134/224/128 1143/229/128
f 1138/223/198 1136/223/198 1141/228/198
f 1154/230/204 1157/231/204 501/244/204
f 1156/233/204 1154/230/204 501/244/204
f 502/232/204 1157/231/204 1159/245/204
f 1156/233/204 501/244/204 504/234/204
f 503/235/204 502/232/204 1159/245/204
f 1159/245/204 1156/233/204 504/234/204
f 1160/242/206 1150/236/206 1155/238/206
f 498/237/207 1146/239/207 508/238/207
f 1158/243/208 1148/241/208 507/242/208
f 500/239/209 499/241/209 505/240/209
s 1
f 1163/248/212 1173/389/226 1171/369/216
f 1245/402/225 1172/401/233 1171/369/216
f 1171/369/216 1174/246/210 1163/248/212
f 1246/247/211 1164/408/217 1163/248/212
f 1173/389/226 1245/402/225 1171/369/216
f 1167/251/215 1162/383/239 1161/292/219
f 1161/292/219 1166/291/228 1167/251/215
f 1165/249/213 1170/361/218 1169/250/214
f 1169/250/214 1168/343/223 1167/251/215
f 1167/251/215 1166/291/228 1165/249/213
f 1177/254/212 1187/311/226 1185/294/216
f 1247/310/225 1186/431/233 1185/294/216
f 1185/294/216 1188/252/210 1177/254/212
f 1248/253/211 1178/284/217 1177/254/212
f 1187/311/226 1247/310/225 1185/294/216
f 1181/257/215 1176/425/239 1175/354/219
f 1175/354/219 1180/353/228 1181/257/215
f 1179/255/213 1184/302/218 1183/256/214
f 1183/256/214 1182/308/223 1181/257/215
f 1181/257/215 1180/353/228 1179/255/213
f 1191/260/212 1201/341/226 1249/326/225
f 1249/326/225 1200/325/233 1191/260/212
f 1199/258/216 1202/363/210 1250/362/211
f 1250/362/211 1192/259/217 1199/258/216
f 1191/260/212 1200/325/233 1199/258/216
f 1195/263/215 1190/332/239 1193/372/213
f 1189/336/219 1194/400/228 1193/372/213
f 1193/372/213 1198/261/218 1195/263/215
f 1197/262/214 1196/286/223 1195/263/215
f 1190/332/239 1189/336/219 1193/372/213
f 1205/266/212 1215/398/226 1251/410/225
f 1251/410/225 1214/379/233 1213/381/216
f 1213/381/216 1216/264/210 1205/266/212
f 1252/265/211 1206/393/217 1205/266/212
f 1205/266/212 1251/410/225 1213/381/216
f 1209/359/215 1204/395/239 1203/269/219
f 1203/269/219 1208/430/228 1207/267/213
f 1207/267/213 1212/366/218 1211/268/214
f 1211/268/214 1210/421/223 1209/359/215
f 1209/359/215 1203/269/219 1211/268/214
f 1219/272/212 1229/289/226 1227/270/216
f 1253/288/225 1228/415/233 1227/270/216
f 1227/270/216 1230/305/210 1254/271/211
f 1254/271/211 1220/423/217 1219/272/212
f 1229/289/226 1253/288/225 1227/270/216
f 1223/275/215 1218/435/239 1221/318/213
f 1217/324/219 1222/323/228 1221/318/213
f 1221/318/213 1226/273/218 1223/275/215
f 1225/274/214 1224/328/223 1223/275/215
f 1218/435/239 1217/324/219 1221/318/213
f 1233/278/212 1243/349/226 1255/348/225
f 1255/348/225 1242/300/233 1241/330/216
f 1241/330/216 1244/276/210 1233/278/212
f 1256/277/211 1234/316/217 1233/278/212
f 1233/278/212 1255/348/225 1241/330/216
f 1237/281/215 1232/347/239 1231/351/219
f 1231/351/219 1236/376/228 1237/281/215
f 1235/386/213 1240/279/218 1237/281/215
f 1239/280/214 1238/391/223 1237/281/215
f 1237/281/215 1236/376/228 1235/386/213
f 1248/253/211 61/282/220 1178/284/217
f 708/374/230 707/285/222 1196/286/223
f 824/437/241 218/287/224 1229/289/226
f 539/384/240 557/290/227 1161/292/219
f 643/417/236 606/293/229 1185/294/216
f 606/293/229 61/282/220 1188/252/210
f 1238/391/223 924/295/230 1237/281/215
f 712/371/234 710/297/231 1198/261/218
f 1255/348/225 266/298/224 1242/300/233
f 628/373/235 640/301/234 1179/255/213
f 557/290/227 556/303/235 1166/291/228
f 859/426/236 822/304/229 1227/270/216
f 1183/256/214 638/306/231 1182/308/223
f 608/429/241 74/309/224 1187/311/226
f 928/385/234 926/312/231 1240/279/218
f 1200/325/233 673/313/232 1199/258/216
f 253/334/220 891/315/221 1256/277/211
f 844/390/235 856/317/234 1221/318/213
f 603/283/221 619/319/237 1178/284/217
f 1208/430/228 773/320/227 1207/267/213
f 827/436/240 845/322/227 1217/324/219
f 122/370/224 673/313/232 1249/326/225
f 854/418/231 852/327/230 1225/274/214
f 889/299/232 931/329/236 1242/300/233
f 707/285/222 684/331/238 1195/263/215
f 1244/276/210 894/333/229 1256/277/211
f 684/331/238 683/335/240 1190/332/239
f 1220/423/217 819/337/221 1219/272/212
f 1191/260/212 691/339/237 1201/341/226
f 564/412/230 563/342/222 1168/343/223
f 1250/362/211 109/344/220 1192/259/217
f 923/296/222 900/346/238 1237/281/215
f 896/356/241 266/298/224 1243/349/226
f 900/346/238 899/350/240 1232/347/239
f 611/427/240 629/352/227 1175/354/219
f 1233/278/212 907/355/237 1243/349/226
f 1210/421/223 780/357/230 1209/359/215
f 568/411/234 566/360/231 1170/361/218
f 678/364/229 109/344/220 1202/363/210
f 1199/258/216 715/314/236 1202/363/210
f 784/419/234 782/365/231 1212/366/218
f 1172/401/233 529/367/232 1171/369/216
f 680/340/241 122/370/224 1201/341/226
f 700/420/235 712/371/234 1193/372/213
f 1180/353/228 629/352/227 1179/255/213
f 931/329/236 894/333/229 1241/330/216
f 710/297/231 708/374/230 1197/262/214
f 1231/351/219 899/350/240 1236/376/228
f 1251/410/225 170/377/224 1214/379/233
f 745/378/232 787/380/236 1214/379/233
f 563/342/222 540/382/238 1167/251/215
f 1162/383/239 540/382/238 1161/292/219
f 916/432/235 928/385/234 1235/386/213
f 675/345/221 691/339/237 1192/259/217
f 1163/248/212 547/387/237 1173/389/226
f 845/322/227 844/390/235 1222/323/228
f 926/312/231 924/295/230 1239/280/214
f 157/405/220 747/392/221 1252/265/211
f 779/358/222 756/394/238 1209/359/215
f 756/394/238 755/396/240 1204/395/239
f 1234/316/217 891/315/221 1233/278/212
f 763/428/237 752/397/241 1205/266/212
f 683/335/240 701/399/227 1189/336/219
f 26/422/224 529/367/232 1245/402/225
f 636/307/230 635/403/222 1182/308/223
f 1216/264/210 750/404/229 1252/265/211
f 1171/369/216 571/368/236 1174/246/210
f 13/413/220 531/407/221 1246/247/211
f 1184/302/218 640/301/234 1183/256/214
f 1224/328/223 852/327/230 1223/275/215
f 1215/398/226 752/397/241 1251/410/225
f 556/303/235 568/411/234 1165/249/213
f 1169/250/214 566/360/231 1168/343/223
f 787/380/236 750/404/229 1213/381/216
f 534/406/229 13/413/220 1174/246/210
f 1253/288/225 218/287/224 1228/415/233
f 1186/431/233 601/416/232 1185/294/216
f 1226/273/218 856/317/234 1225/274/214
f 772/321/235 784/419/234 1207/267/213
f 1164/408/217 531/407/221 1163/248/212
f 701/399/227 700/420/235 1194/400/228
f 782/365/231 780/357/230 1211/268/214
f 536/388/241 26/422/224 1173/389/226
f 205/433/220 819/337/221 1254/271/211
f 635/403/222 612/424/238 1181/257/215
f 817/414/232 859/426/236 1228/415/233
f 612/424/238 611/427/240 1176/425/239
f 747/392/221 763/428/237 1206/393/217
f 619/319/237 608/429/241 1177/254/212
f 755/396/240 773/320/227 1203/269/219
f 74/309/224 601/416/232 1247/310/225
f 917/375/227 916/432/235 1236/376/228
f 1230/305/210 822/304/229 1254/271/211
f 851/409/222 828/434/238 1223/275/215
f 1218/435/239 828/434/238 1217/324/219
f 835/338/237 824/437/241 1219/272/212
f 944/65/242 953/68/242 290/65/242
