# Blender v2.76 (sub 0) OBJ File: 'eng1_8.blend'
# www.blender.org
v -1.053734 1.260000 1.155264
v -1.008855 1.260001 1.110417
v -1.143477 1.260000 0.975794
v -1.188300 1.260000 1.020632
v -1.023781 1.260001 1.095490
v -1.018352 1.238227 1.090061
v -1.128532 1.260000 0.990740
v -1.123101 1.238226 0.985310
v -1.053734 1.250000 1.155264
v -1.008855 1.250001 1.110417
v -1.126422 1.230000 0.988632
v -1.143477 1.250000 0.975794
v -1.188300 1.250000 1.020632
v -1.021672 1.230001 1.093382
v -1.046253 1.230000 1.117894
v -1.150961 1.230001 1.013151
v 1.187710 1.260000 1.020785
v 1.142863 1.260001 0.975906
v 1.008241 1.260000 1.110529
v 1.053077 1.260000 1.155351
v 1.127936 1.260001 0.990833
v 1.122507 1.238227 0.985403
v 1.023186 1.260000 1.095583
v 1.017756 1.238226 1.090153
v 1.187710 1.250000 1.020785
v 1.142863 1.250001 0.975906
v 1.021077 1.230000 1.093474
v 1.008241 1.250000 1.110529
v 1.053077 1.250000 1.155351
v 1.125828 1.230001 0.988724
v 1.150340 1.229999 1.013304
v 1.045596 1.230001 1.118012
v -1.280000 1.260000 0.059999
v -1.280000 1.260000 -1.200000
v 1.280000 1.260000 -1.200000
v -1.280000 1.280000 -1.280000
v 1.280000 1.280000 -1.280000
v -1.280000 1.280000 1.280000
v 1.280000 1.280000 1.280000
v -1.280000 1.280000 0.000000
v 1.280000 1.280000 0.000000
v 1.280000 1.280000 0.019999
v -1.280000 1.280000 0.019999
v 1.280000 1.280000 1.260000
v -1.280000 1.280000 1.260000
v -1.280000 1.280000 0.039999
v 1.280000 1.260000 0.059999
v -1.280000 1.260000 -0.040001
v 1.280000 1.260000 -0.040001
v -1.280000 1.280000 -1.240000
v 1.280000 1.280000 -1.240000
v -0.900000 1.280000 1.260000
v -0.620000 1.280000 0.979999
v -0.660000 1.260000 0.979999
v -0.880000 1.280000 0.000000
v -0.880000 1.280000 0.019999
v -0.880000 1.260000 0.059999
v -0.880000 1.260000 -0.040001
v -0.880000 1.280000 -1.240000
v 1.280000 1.260000 1.220000
v -0.900000 1.260000 1.220000
v -1.280000 1.260000 1.220000
v -0.620000 1.280000 0.279999
v 0.660000 1.280000 0.999999
v 0.700000 1.260000 0.999999
v 0.900000 1.280000 0.000000
v 0.900000 1.280000 0.019999
v 0.900000 1.260000 0.059999
v 0.900000 1.260000 -0.040001
v 0.900000 1.280000 -1.240000
v 0.920000 1.280000 1.260000
v 0.920000 1.260000 1.220000
v -0.620000 1.280000 -0.980000
v -0.660000 1.260000 -0.980000
v 0.660000 1.280000 -1.000000
v 0.700000 1.260000 -1.000000
v -0.660000 1.260000 0.279999
v 0.700000 1.260000 0.259999
v 0.660000 1.280000 0.259999
v -0.620000 1.280000 -0.260000
v -0.660000 1.260000 -0.260000
v 0.660000 1.280000 -0.240000
v 0.700000 1.260000 -0.240000
v 0.900000 1.260000 -1.200000
v -0.880000 1.260000 -1.200000
v -0.329381 1.280000 0.928561
v 0.349379 1.280000 0.928561
v -0.329436 1.280000 -0.931512
v 0.349360 1.280000 -0.931512
v -0.299995 1.280000 -1.240000
v -0.300038 1.280000 1.260000
v 0.019947 1.266000 0.719948
v 0.019965 1.266000 0.860142
v -0.000035 1.266000 0.719948
v -0.259795 1.266000 0.719948
v 0.280166 1.266000 0.719948
v 0.280192 1.266000 0.860142
v -0.259816 1.266000 0.419884
v -0.259798 1.266000 0.680079
v 0.280112 1.266000 0.419884
v 0.280159 1.266000 0.680079
v -0.259785 1.266000 0.860141
v -0.000017 1.266000 0.860142
v -0.320017 1.266000 0.920032
v 0.339997 1.266000 -0.920010
v 0.280039 1.226000 -0.239896
v 0.280104 1.226000 0.379988
v 0.280192 1.256000 0.860142
v 0.340015 1.266000 0.920032
v 0.300135 1.236000 0.880105
v -0.299939 1.236000 0.900068
v 0.320076 1.236000 0.900069
v 0.300071 1.236000 0.379988
v -0.000017 1.256000 0.860142
v -0.259785 1.256000 0.860141
v -0.259819 1.226000 0.379988
v -0.259845 1.226000 -0.239896
v -0.279862 1.236000 0.880105
v -0.320070 1.266000 -0.920010
v -0.279896 1.236000 0.379988
v 0.280159 1.256000 0.680079
v 0.280112 1.256000 0.419884
v -0.259798 1.256000 0.680079
v -0.259816 1.256000 0.419884
v 0.280166 1.256000 0.719948
v -0.259795 1.256000 0.719948
v -0.000035 1.256000 0.719948
v 0.019965 1.256000 0.860142
v 0.019947 1.256000 0.719948
v 0.280038 1.236000 -0.880030
v 0.300024 1.236000 -0.880030
v 0.320011 1.236000 -0.880030
v -0.259845 1.236000 -0.880030
v -0.299995 1.236000 -0.880030
v -0.279920 1.236000 -0.880030
v 0.300025 1.236000 -0.279933
v -0.279920 1.236000 -0.279933
v 0.280039 1.246000 -0.320026
v 0.300025 1.236000 -0.320026
v -0.259845 1.246000 -0.320026
v -0.279920 1.236000 -0.320026
vt 0.505760 0.965240
vt 0.505766 0.965012
vt 0.486428 0.965011
vt 0.531233 0.968746
vt 0.531242 0.945321
vt 0.460949 0.945321
vt 0.460952 0.968729
vt 0.508521 0.965354
vt 0.505766 0.965354
vt 0.468747 0.960934
vt 0.523430 0.960943
vt 0.468753 0.945321
vt 0.523448 0.945321
vt 0.483669 0.965354
vt 0.486434 0.965240
vt 0.486428 0.965354
vt 0.074630 0.901589
vt 0.074634 0.901507
vt 0.072654 0.901589
vt 0.085001 0.911678
vt 0.079447 0.911744
vt 0.072772 0.902395
vt 0.074577 0.902395
vt 0.926964 0.901540
vt 0.926942 0.901518
vt 0.926450 0.902104
vt 0.915661 0.912327
vt 0.920187 0.907364
vt 0.922719 0.903048
vt 0.928394 0.903048
vt 0.000000 0.031250
vt 0.000000 0.015625
vt 0.156250 0.015625
vt 0.156250 0.484375
vt 0.156250 0.500000
vt 0.000000 0.500000
vt 0.851562 0.015625
vt 1.000000 0.015625
vt 1.000000 0.031250
vt 1.000000 0.507812
vt 1.000000 0.523437
vt 0.851562 0.523437
vt 0.609419 0.664017
vt 0.617215 0.648433
vt 0.609437 0.765656
vt 1.000000 0.500000
vt 0.851562 0.500000
vt 0.851562 0.484375
vt 0.000000 1.000000
vt 0.000000 0.992188
vt 0.148437 0.992188
vt 0.000000 0.515625
vt 0.000000 0.507812
vt 0.156250 0.507812
vt 0.382836 0.851589
vt 0.625030 0.851589
vt 0.632818 0.859387
vt 0.398498 0.406291
vt 0.609390 0.406291
vt 0.398508 0.648433
vt 0.398509 0.664017
vt 0.609416 0.648433
vt 0.148437 0.976562
vt 0.242187 0.882812
vt 0.257812 0.882812
vt 0.257812 0.398437
vt 0.636476 0.862719
vt 0.371336 0.862719
vt 0.374993 0.859388
vt 0.242187 0.609375
vt 0.156250 0.523437
vt 0.000000 0.484375
vt 0.242187 0.398437
vt 0.242187 0.117188
vt 0.773437 0.601562
vt 0.000000 0.976562
vt 0.773437 0.406250
vt 0.773437 0.109375
vt 1.000000 0.484375
vt 0.757812 0.109375
vt 0.757812 0.406250
vt 0.636469 0.136128
vt 0.773437 0.890624
vt 0.757812 0.890624
vt 0.859375 0.976562
vt 0.257812 0.609375
vt 0.000000 0.523437
vt 0.257812 0.117188
vt 0.156250 0.031250
vt 0.851562 0.031250
vt 0.398517 0.765656
vt 0.507792 0.781230
vt 0.757812 0.601562
vt 0.374972 0.140621
vt 0.632811 0.140621
vt 0.398498 0.156238
vt 0.382814 0.156238
vt 0.390656 0.374990
vt 0.390656 0.390651
vt 0.390656 0.156238
vt 0.398522 0.835993
vt 0.390679 0.843791
vt 0.398518 0.781230
vt 0.390666 0.648433
vt 0.371314 0.136128
vt 0.397077 0.766349
vt 0.397070 0.663324
vt 0.501507 0.780409
vt 0.501514 0.836814
vt 0.859375 0.992188
vt 0.922707 0.902813
vt 0.609390 0.374990
vt 0.617197 0.390651
vt 0.506945 0.780773
vt 0.610287 0.780773
vt 1.000000 0.976562
vt 1.000000 0.992188
vt 0.610877 0.766349
vt 0.396997 0.780409
vt 0.397001 0.836814
vt 0.610858 0.663324
vt 0.610297 0.836449
vt 0.506952 0.836449
vt 0.609440 0.781230
vt 0.609450 0.835993
vt 0.507799 0.835993
vt 0.625004 0.156238
vt 0.499986 0.781230
vt 0.499993 0.835993
vt 1.000000 1.000000
vt 0.617240 0.843791
vt 0.617197 0.156238
vt 0.617197 0.374990
vt 0.915721 0.912379
vt 0.398498 0.374990
vt 0.000000 0.000000
vt 0.609390 0.156238
vt 0.851562 0.507812
vt 0.072769 0.902321
vt 1.000000 0.000000
vn 0.614100 -0.495800 -0.614100
vn 0.706900 0.000000 0.707400
vn -0.707200 -0.000000 -0.707000
vn 0.888700 -0.426600 -0.167900
vn -0.377400 -0.845700 0.377300
vn -0.000000 -1.000000 0.000000
vn 0.485600 -0.726000 0.486900
vn -0.486300 -0.726100 -0.486100
vn -0.707300 -0.000000 0.706900
vn 0.168400 -0.426700 -0.888600
vn 0.548800 0.328600 -0.768700
vn 0.666900 0.332600 -0.666900
vn 0.707100 0.000000 -0.707100
vn -0.614100 -0.495800 -0.614100
vn 0.707400 0.000000 -0.706900
vn -0.707000 -0.000000 0.707200
vn -0.167900 -0.426600 -0.888700
vn 0.377200 -0.845700 0.377400
vn 0.486900 -0.726000 -0.485600
vn -0.486100 -0.726100 0.486300
vn 0.706900 -0.000000 0.707300
vn -0.888600 -0.426700 -0.168400
vn -0.768700 0.328600 -0.548800
vn -0.666900 0.332600 -0.666900
vn -0.707100 -0.000000 -0.707100
vn 0.000000 -0.894400 -0.447200
vn 0.000000 -0.894400 0.447200
vn -0.707700 -0.706500 0.000100
vn -0.000000 -0.554000 0.832500
vn -0.000000 -0.799200 0.601000
vn 1.000000 0.000000 0.000000
vn 0.408200 -0.816500 0.408200
vn 0.000000 -0.520300 0.854000
vn 0.408200 -0.816500 -0.408200
vn -1.000000 0.000000 0.000000
vn 0.447200 -0.894400 0.000000
vn -0.447200 -0.894400 0.000000
vn -0.408300 -0.816500 0.408200
vn -0.408200 -0.816500 0.408200
vn -0.408200 -0.816500 -0.408200
vn 0.000000 -0.799900 -0.600200
vn 0.705700 -0.708500 -0.000100
vn -0.831300 -0.555800 0.000300
vn -0.831100 -0.556100 0.000000
vn 1.000000 0.000000 -0.000100
vn -1.000000 -0.000000 0.000100
vn -0.548700 0.328500 -0.768800
vn 0.000300 -0.970200 -0.242200
vn 0.408200 -0.816500 -0.408300
vn 0.705800 -0.708500 -0.000100
vn -0.000000 0.000000 1.000000
vn 0.000000 0.000000 -1.000000
vn -1.000000 0.000000 0.000200
vn -0.445800 -0.895100 0.000000
vn 0.371600 -0.742000 0.557900
vn 0.705700 -0.708500 -0.000000
vn -0.369900 -0.742600 0.558400
vn 0.000000 -0.634800 -0.772700
vn 0.408300 -0.816500 0.408200
vn 0.000000 -0.706500 -0.707800
vn 0.666800 0.332600 -0.666800
vn 0.000000 -0.706500 -0.707700
vn -0.708200 -0.706000 0.000100
vn 0.486100 -0.726500 -0.485700
vn 0.832300 -0.554300 -0.000000
vn -0.486200 -0.726400 0.485800
vn -0.022400 -0.894200 -0.447100
vn -0.445900 -0.895100 0.000000
vn -0.408300 -0.816500 0.408300
vn 0.377100 -0.845800 0.377300
vn 0.000000 -0.707100 -0.707100
vn 0.485700 -0.726500 0.486100
vn -0.666800 0.332600 -0.666900
vn -0.000000 -0.970200 -0.242200
vn -0.447400 -0.894200 0.016000
vn 0.447400 -0.894300 -0.000000
vn 0.614100 -0.495900 -0.614000
vn 0.831900 -0.554900 -0.000000
vn -0.377300 -0.845800 0.377100
vn -0.708000 -0.706200 0.000100
vn 0.768800 0.328500 -0.548700
vn 0.447800 -0.894100 -0.000000
vn 0.812200 -0.580200 0.060600
vn -0.408300 -0.816500 -0.408300
vn -0.832800 -0.553500 -0.005600
vn 0.829600 -0.558300 -0.004200
vn -0.000300 -0.970200 -0.242200
vn 0.000000 -0.999800 0.017900
vn 0.445800 -0.895000 0.016000
vn -0.485800 -0.726400 -0.486200
vn -0.447500 -0.894300 0.000000
vn 0.445900 -0.895100 0.000000
s off
f 6/1/1 14/2/1 11/3/1
f 1/4/2 9/4/2 10/5/2
f 3/6/3 12/6/3 13/7/3
f 6/1/4 10/8/4 14/9/4
f 13/7/5 16/10/5 15/11/5
f 15/11/6 16/10/6 11/12/6
f 15/11/7 14/13/7 10/5/7
f 16/10/8 13/7/8 12/6/8
f 1/4/9 4/7/9 13/7/9
f 12/14/10 8/15/10 11/16/10
f 7/17/11 8/18/11 12/19/11
f 5/20/12 6/20/12 8/21/12
f 5/22/13 2/23/13 10/23/13
f 24/15/14 22/1/14 30/2/14
f 17/4/15 25/4/15 26/5/15
f 19/6/16 28/6/16 29/7/16
f 22/1/17 26/8/17 30/9/17
f 29/7/18 32/10/18 31/11/18
f 31/11/6 32/10/6 27/12/6
f 31/11/19 30/13/19 26/5/19
f 32/10/20 29/7/20 28/6/20
f 17/4/21 20/7/21 29/7/21
f 28/14/22 24/15/22 27/16/22
f 23/24/23 24/25/23 28/26/23
f 23/27/24 21/28/24 22/28/24
f 21/29/25 18/30/25 26/30/25
f 34/31/26 50/32/26 59/33/26
f 58/34/27 55/35/27 40/36/27
f 70/37/26 51/38/26 35/39/26
f 42/40/26 47/41/26 68/42/26
f 122/43/28 113/44/28 121/45/28
f 41/46/27 66/47/27 69/48/27
f 38/49/6 45/50/6 52/51/6
f 46/52/6 43/53/6 56/54/6
f 111/55/29 112/56/29 109/57/29
f 117/58/6 106/59/6 116/60/6
f 124/61/30 116/60/30 107/62/30
f 35/39/31 51/38/31 41/46/31
f 61/63/32 54/64/32 53/65/32
f 80/66/32 55/35/32 58/34/32
f 87/67/33 86/68/33 104/69/33
f 77/70/34 57/71/34 56/54/34
f 48/72/35 40/36/35 50/32/35
f 80/66/36 81/73/36 74/74/36
f 78/75/6 68/42/6 47/41/6
f 62/76/35 45/50/35 46/52/35
f 83/77/6 76/78/6 49/79/6
f 75/80/6 82/81/6 89/82/6
f 78/75/37 65/83/37 64/84/37
f 64/84/38 65/83/38 72/85/38
f 63/86/36 53/65/36 54/64/36
f 77/70/6 54/64/6 33/87/6
f 65/83/6 78/75/6 47/41/6
f 18/5/15 17/4/15 26/5/15
f 83/77/39 69/48/39 66/47/39
f 82/81/37 75/80/37 76/78/37
f 73/88/34 74/74/34 85/89/34
f 70/37/40 84/90/40 76/78/40
f 48/72/6 34/31/6 74/74/6
f 123/91/6 121/45/6 129/92/6
f 79/93/37 78/75/37 64/84/37
f 79/93/6 64/84/6 87/67/6
f 119/94/41 105/95/41 133/96/41
f 56/54/6 43/53/6 55/35/6
f 134/97/6 141/98/6 137/99/6
f 134/97/6 135/100/6 141/98/6
f 115/101/42 118/102/42 126/103/42
f 111/55/6 120/104/6 118/102/6
f 119/94/43 134/97/43 88/105/43
f 86/68/44 88/105/44 134/97/44
f 86/68/6 52/51/6 53/65/6
f 86/68/6 53/65/6 63/86/6
f 123/106/45 124/107/45 99/106/45
f 127/108/46 114/109/46 94/108/46
f 111/55/6 118/102/6 112/56/6
f 71/110/39 64/84/39 72/85/39
f 22/111/47 21/29/47 26/30/47
f 138/112/48 136/113/48 106/59/48
f 63/86/49 77/70/49 56/54/49
f 120/104/50 124/61/50 123/91/50
f 101/45/6 99/91/6 100/43/6
f 61/63/27 52/51/27 45/50/27
f 77/70/36 63/86/36 54/64/36
f 129/114/51 125/115/51 92/114/51
f 71/110/27 72/85/27 60/116/27
f 42/40/31 44/117/31 60/116/31
f 123/106/52 99/106/52 101/118/52
f 126/119/45 95/119/45 102/120/45
f 100/121/51 98/107/51 124/107/51
f 124/107/45 98/107/45 99/106/45
f 108/122/52 128/123/52 93/123/52
f 125/115/51 96/115/51 92/114/51
f 127/108/51 94/108/51 95/119/51
f 79/93/6 87/67/6 82/81/6
f 114/109/46 103/109/46 94/108/46
f 108/122/53 97/122/53 96/115/53
f 99/91/6 98/61/6 100/43/6
f 113/44/6 136/113/6 112/56/6
f 96/124/6 97/125/6 93/126/6
f 136/113/6 132/127/6 112/56/6
f 94/128/6 103/129/6 102/101/6
f 104/69/29 111/55/29 109/57/29
f 117/58/54 116/60/54 120/104/54
f 107/62/55 113/44/55 122/43/55
f 27/3/14 24/15/14 30/2/14
f 123/91/56 118/102/56 120/104/56
f 116/60/57 124/61/57 120/104/57
f 92/92/6 96/124/6 93/126/6
f 69/48/6 83/77/6 49/79/6
f 74/74/6 81/73/6 48/72/6
f 47/41/6 60/116/6 65/83/6
f 19/26/25 23/24/25 28/26/25
f 44/117/27 71/110/27 60/116/27
f 4/7/3 3/6/3 13/7/3
f 71/110/6 39/130/6 52/51/6
f 73/88/36 80/66/36 74/74/36
f 88/105/6 86/68/6 80/66/6
f 84/90/26 70/37/26 35/39/26
f 33/87/35 62/76/35 46/52/35
f 89/82/58 105/95/58 119/94/58
f 81/73/59 80/66/59 58/34/59
f 14/13/6 15/11/6 11/12/6
f 108/125/60 110/131/60 128/126/60
f 7/21/61 5/20/61 8/21/61
f 110/131/6 113/44/6 112/56/6
f 114/129/62 128/126/62 118/102/62
f 110/131/6 112/56/6 118/102/6
f 131/132/6 132/127/6 139/133/6
f 62/76/6 33/87/6 54/64/6
f 95/103/6 94/128/6 102/101/6
f 125/124/63 121/45/63 110/131/63
f 76/78/6 84/90/6 35/39/6
f 121/45/6 125/124/6 129/92/6
f 115/120/45 126/119/45 102/120/45
f 25/4/64 31/11/64 26/5/64
f 121/118/52 123/106/52 101/118/52
f 112/56/65 132/127/65 87/67/65
f 82/81/6 66/47/6 79/93/6
f 27/12/66 32/10/66 28/6/66
f 56/54/67 57/71/67 46/52/67
f 128/123/45 129/114/45 93/123/45
f 137/99/68 117/58/68 120/104/68
f 47/41/31 42/40/31 60/116/31
f 82/81/69 83/77/69 66/47/69
f 135/100/41 134/97/41 119/94/41
f 139/133/6 132/127/6 136/113/6
f 35/39/6 49/79/6 76/78/6
f 52/51/6 87/67/6 71/110/6
f 25/4/70 29/7/70 31/11/70
f 33/87/71 46/52/71 57/71/71
f 75/80/40 70/37/40 76/78/40
f 133/96/41 135/100/41 119/94/41
f 52/51/32 61/63/32 53/65/32
f 62/76/27 61/63/27 45/50/27
f 9/4/72 15/11/72 10/5/72
f 24/134/73 23/27/73 22/28/73
f 126/119/51 127/108/51 95/119/51
f 138/112/74 117/58/74 140/135/74
f 97/122/52 108/122/52 93/123/52
f 64/84/6 71/110/6 87/67/6
f 59/33/6 50/32/6 36/136/6
f 59/33/34 73/88/34 85/89/34
f 114/109/52 115/120/52 103/109/52
f 34/31/35 48/72/35 50/32/35
f 80/66/6 73/88/6 88/105/6
f 25/4/21 17/4/21 29/7/21
f 86/68/6 87/67/6 52/51/6
f 72/85/6 65/83/6 60/116/6
f 130/137/41 133/96/41 105/95/41
f 106/59/6 107/62/6 116/60/6
f 111/55/6 134/97/6 137/99/6
f 88/105/58 89/82/58 119/94/58
f 118/102/62 128/126/62 110/131/62
f 83/77/37 82/81/37 76/78/37
f 109/57/33 87/67/33 104/69/33
f 138/112/75 130/137/75 139/133/75
f 63/86/6 80/66/6 86/68/6
f 85/89/26 34/31/26 59/33/26
f 122/43/30 124/61/30 107/62/30
f 9/4/9 1/4/9 13/7/9
f 106/59/76 136/113/76 113/44/76
f 8/15/77 6/1/77 11/3/77
f 111/55/44 86/68/44 134/97/44
f 132/127/78 89/82/78 87/67/78
f 9/4/79 13/7/79 15/11/79
f 110/131/80 121/45/80 113/44/80
f 66/47/6 42/40/6 67/138/6
f 30/13/6 31/11/6 27/12/6
f 49/79/27 41/46/27 69/48/27
f 129/114/45 92/114/45 93/123/45
f 3/19/13 7/17/13 12/19/13
f 67/138/26 42/40/26 68/42/26
f 6/139/81 5/22/81 10/23/81
f 48/72/27 58/34/27 40/36/27
f 129/92/6 114/129/6 127/128/6
f 107/62/82 106/59/82 113/44/82
f 20/7/16 19/6/16 29/7/16
f 49/79/31 35/39/31 41/46/31
f 2/5/2 1/4/2 10/5/2
f 34/31/6 85/89/6 74/74/6
f 115/120/52 102/120/52 103/109/52
f 87/67/83 109/57/83 112/56/83
f 59/33/6 70/37/6 89/82/6
f 121/118/53 101/118/53 100/121/53
f 58/34/6 48/72/6 81/73/6
f 57/71/6 77/70/6 33/87/6
f 67/138/84 68/42/84 78/75/84
f 111/55/85 104/69/85 86/68/85
f 39/130/6 38/49/6 52/51/6
f 105/95/86 89/82/86 132/127/86
f 110/131/63 108/125/63 125/124/63
f 128/126/6 114/129/6 129/92/6
f 137/99/87 140/135/87 117/58/87
f 130/137/88 138/112/88 140/135/88
f 118/102/60 115/101/60 114/129/60
f 123/91/56 126/103/56 118/102/56
f 37/140/6 51/38/6 70/37/6
f 141/98/6 135/100/6 133/96/6
f 66/47/6 41/46/6 42/40/6
f 130/137/6 131/132/6 139/133/6
f 127/128/6 123/91/6 129/92/6
f 105/95/41 132/127/41 131/132/41
f 56/54/6 55/35/6 80/66/6
f 59/33/6 89/82/6 88/105/6
f 122/121/53 121/118/53 100/121/53
f 111/55/6 137/99/6 120/104/6
f 59/33/6 37/140/6 70/37/6
f 133/96/88 130/137/88 140/135/88
f 79/93/84 67/138/84 78/75/84
f 70/37/6 75/80/6 89/82/6
f 140/135/89 141/98/89 133/96/89
f 63/86/6 56/54/6 80/66/6
f 11/12/90 16/10/90 12/6/90
f 122/121/51 100/121/51 124/107/51
f 71/110/6 44/117/6 39/130/6
f 82/81/6 87/67/6 89/82/6
f 138/112/91 139/133/91 136/113/91
f 137/99/92 141/98/92 140/135/92
f 36/136/6 37/140/6 59/33/6
f 127/128/6 126/103/6 123/91/6
f 125/115/53 108/122/53 96/115/53
f 73/88/6 59/33/6 88/105/6
f 54/64/6 61/63/6 62/76/6
f 105/95/41 131/132/41 130/137/41
f 106/59/74 117/58/74 138/112/74
f 43/53/6 40/36/6 55/35/6
f 66/47/6 67/138/6 79/93/6
