v -1.280000 1.280000 -1.280000
v 1.280000 1.280000 -1.280000
v -1.280000 1.280000 1.280000
v 1.280000 1.280000 1.280000
v -1.280000 1.280000 1.159907
v 1.280000 1.280000 1.159907
v 0.660198 1.280000 1.159907
v 0.580312 1.280000 1.159907
v 0.999659 1.280000 1.159907
v 0.920077 1.280000 1.159907
v 0.960087 1.260000 1.159907
v 0.620255 1.260000 1.159907
v 1.280000 1.260000 1.199847
v 0.920077 1.260000 1.199847
v 0.620255 1.260000 1.199847
v -1.280000 1.260000 1.199847
v -1.280000 1.280000 -1.160006
v 1.280000 1.280000 -1.160006
v 0.660198 1.280000 -1.160006
v 0.580312 1.280000 -1.160006
v 0.999659 1.280000 -1.160006
v 0.920077 1.280000 -1.160006
v 0.960087 1.260000 -1.160006
v 0.620255 1.260000 -1.160006
v -1.280000 1.260000 -1.199808
v 1.280000 1.260000 -1.199808
v 0.660198 1.260000 -1.199808
v -0.160032 1.280000 1.159907
v -0.160032 1.280000 -1.160006
v -0.079977 1.280000 1.159907
v -0.079977 1.280000 -1.160006
v -0.120004 1.260000 1.159907
v -0.120004 1.260000 -1.160006
v 0.220169 1.280000 1.159907
v 0.220169 1.260000 1.199847
v 0.220169 1.280000 -1.160006
v 0.300147 1.280000 1.159907
v 0.300147 1.280000 -1.160006
v 0.300147 1.260000 -1.199808
v 0.260158 1.260000 1.159907
v 0.260158 1.260000 -1.160006
v -1.220077 1.260000 1.159907
v -1.220077 1.260000 1.199847
v -1.220077 1.260000 -1.160006
v -1.220077 1.260000 -1.199808
v -1.240052 1.260000 1.159907
v -0.860000 1.280000 -1.160006
v -1.240052 1.260000 -1.160006
v -0.860000 1.280000 1.159907
v -0.939442 1.280000 1.159907
v -0.939442 1.280000 -1.160006
v -0.899828 1.260000 1.159907
v -0.899828 1.260000 -1.160006
v -0.480074 1.280000 -1.160006
v -0.480074 1.280000 1.159907
v -0.560580 1.280000 -1.160006
v -0.560580 1.280000 1.159907
v -0.520327 1.260000 -1.160006
v -0.520327 1.260000 1.159907
v 1.280000 1.280000 -0.000049
v 0.660198 1.280000 -0.000049
v 0.580312 1.280000 -0.000049
v 0.999659 1.280000 -0.000049
v 0.920077 1.280000 -0.000049
v 0.960087 1.260000 -0.000049
v 0.620255 1.260000 -0.000049
v -1.280000 1.280000 -0.000049
v -0.160032 1.280000 -0.000049
v -0.079977 1.280000 -0.000049
v -0.120004 1.260000 -0.000049
v 0.220169 1.280000 -0.000049
v 0.300147 1.280000 -0.000049
v 0.260158 1.260000 -0.000049
v -1.220077 1.260000 -0.000049
v -0.860000 1.280000 -0.000049
v -1.240052 1.260000 -0.000049
v -0.939442 1.280000 -0.000049
v -0.899828 1.260000 -0.000049
v -0.480074 1.280000 -0.000049
v -0.560580 1.280000 -0.000049
v -0.520327 1.260000 -0.000049
v -1.280000 1.280000 -0.060039
v 1.280000 1.280000 -0.060039
v 0.660198 1.280000 -0.060039
v 0.580312 1.280000 -0.060039
v 0.999659 1.280000 -0.060039
v 0.920077 1.280000 -0.060039
v 0.960087 1.260000 -0.060039
v 0.620255 1.260000 -0.060039
v -0.160032 1.280000 -0.060039
v -0.079977 1.280000 -0.060039
v -0.120004 1.260000 -0.060039
v 0.220169 1.280000 -0.060039
v 0.300147 1.280000 -0.060039
v 0.260158 1.260000 -0.060039
v -1.220077 1.260000 -0.060039
v -0.860000 1.280000 -0.060039
v -1.240052 1.260000 -0.060039
v -0.939442 1.280000 -0.060039
v -0.899828 1.260000 -0.060039
v -0.480074 1.280000 -0.060039
v -0.560580 1.280000 -0.060039
v -0.520327 1.260000 -0.060039
v 1.280000 1.260000 -0.040042
v 1.280000 1.260000 -0.020046
v 0.660198 1.260000 -0.040042
v 0.660198 1.260000 -0.020046
v 0.580312 1.260000 -0.040042
v 0.580312 1.260000 -0.020046
v 0.999659 1.260000 -0.040042
v 0.999659 1.260000 -0.020046
v 0.920077 1.260000 -0.040042
v 0.920077 1.260000 -0.020046
v 0.960087 1.260000 -0.040042
v 0.960087 1.260000 -0.020046
v 0.620255 1.260000 -0.040042
v 0.620255 1.260000 -0.020046
v -0.160032 1.260000 -0.040042
v -0.160032 1.260000 -0.020046
v -0.079977 1.260000 -0.040042
v -0.079977 1.260000 -0.020046
v -0.120004 1.260000 -0.040042
v -0.120004 1.260000 -0.020046
v 0.220169 1.260000 -0.040042
v 0.220169 1.260000 -0.020046
v 0.300147 1.260000 -0.040042
v 0.300147 1.260000 -0.020046
v 0.260158 1.260000 -0.040042
v 0.260158 1.260000 -0.020046
v -1.220077 1.260000 -0.040042
v -1.220077 1.260000 -0.020046
v -0.860000 1.260000 -0.040042
v -0.860000 1.260000 -0.020046
v -1.240052 1.260000 -0.040042
v -1.240052 1.260000 -0.020046
v -0.939442 1.260000 -0.040042
v -0.939442 1.260000 -0.020046
v -0.899828 1.260000 -0.040042
v -0.899828 1.260000 -0.020046
v -0.480074 1.260000 -0.040042
v -0.480074 1.260000 -0.020046
v -0.560580 1.260000 -0.040042
v -0.560580 1.260000 -0.020046
v -0.520327 1.260000 -0.040042
v -0.520327 1.260000 -0.020046
v -1.280000 1.260000 -0.020046
v -1.280000 1.260000 -0.040042
v -0.879914 1.260000 1.159907
v -0.879914 1.260000 -1.160006
v -0.879914 1.260000 -1.199808
v -0.879914 1.260000 -0.000049
v -0.879914 1.260000 -0.060039
v -0.879914 1.260000 -0.040042
v -0.879914 1.260000 -0.020046
v -0.500201 1.260000 -1.199808
v -0.500201 1.260000 -1.160006
v -0.500201 1.260000 1.159907
v -0.500201 1.260000 -0.000049
v -0.500201 1.260000 -0.060039
v -0.500201 1.260000 -0.040042
v -0.500201 1.260000 -0.020046
v -0.099990 1.260000 1.159907
v -0.099990 1.260000 -1.160006
v -0.099990 1.260000 -1.199808
v -0.099990 1.260000 -0.000049
v -0.099990 1.260000 -0.060039
v -0.099990 1.260000 -0.040042
v -0.099990 1.260000 -0.020046
v 0.240164 1.260000 1.159907
v 0.240164 1.260000 -1.160006
v 0.240164 1.260000 -1.199808
v 0.240164 1.260000 -0.000049
v 0.240164 1.260000 -0.060039
v 0.240164 1.260000 -0.040042
v 0.240164 1.260000 -0.020046
v 0.600283 1.260000 1.159907
v 0.600283 1.260000 -1.160006
v 0.600283 1.260000 -0.000049
v 0.600283 1.260000 -0.060039
v 0.600283 1.260000 -0.040042
v 0.600283 1.260000 -0.020046
v 0.940082 1.260000 1.159907
v 0.940082 1.260000 -1.160006
v 0.940082 1.260000 -1.199808
v 0.940082 1.260000 -0.000049
v 0.940082 1.260000 -0.060039
v 0.940082 1.260000 -0.040042
v 0.940082 1.260000 -0.020046
v -1.280000 1.260000 1.179877
v 1.280000 1.260000 1.179877
v 0.660198 1.260000 1.179877
v 0.580312 1.260000 1.179877
v 0.999659 1.260000 1.179877
v 0.920077 1.260000 1.179877
v 0.960087 1.260000 1.179877
v 0.620255 1.260000 1.179877
v -0.160032 1.260000 1.179877
v -0.079977 1.260000 1.179877
v -0.120004 1.260000 1.179877
v 0.220169 1.260000 1.179877
v 0.300147 1.260000 1.179877
v 0.260158 1.260000 1.179877
v -1.220077 1.260000 1.179877
v -0.860000 1.260000 1.179877
v -1.240052 1.260000 1.179877
v -0.939442 1.260000 1.179877
v -0.899828 1.260000 1.179877
v -0.480074 1.260000 1.179877
v -0.560580 1.260000 1.179877
v -0.520327 1.260000 1.179877
v -0.879914 1.260000 1.179877
v -0.500201 1.260000 1.179877
v -0.099990 1.260000 1.179877
v 0.240164 1.260000 1.179877
v 0.600283 1.260000 1.179877
v 0.940082 1.260000 1.179877
v 1.280000 1.260000 -1.179907
v 0.660198 1.260000 -1.179907
v 0.580312 1.260000 -1.179907
v 0.999659 1.260000 -1.179907
v 0.920077 1.260000 -1.179907
v 0.960087 1.260000 -1.179907
v 0.620255 1.260000 -1.179907
v -1.280000 1.260000 -1.179907
v -0.160032 1.260000 -1.179907
v -0.079977 1.260000 -1.179907
v -0.120004 1.260000 -1.179907
v 0.220169 1.260000 -1.179907
v 0.300147 1.260000 -1.179907
v 0.260158 1.260000 -1.179907
v -1.220077 1.260000 -1.179907
v -0.860000 1.260000 -1.179907
v -1.240052 1.260000 -1.179907
v -0.939442 1.260000 -1.179907
v -0.899828 1.260000 -1.179907
v -0.480074 1.260000 -1.179907
v -0.560580 1.260000 -1.179907
v -0.520327 1.260000 -1.179907
v -0.879914 1.260000 -1.179907
v -0.500201 1.260000 -1.179907
v -0.099990 1.260000 -1.179907
v 0.240164 1.260000 -1.179907
v 0.600283 1.260000 -1.179907
v 0.940082 1.260000 -1.179907
v -1.200012 1.280000 1.159907
v -1.200012 1.260000 1.199847
v -1.200012 1.280000 -1.160006
v -1.200012 1.260000 -1.199808
v -1.200012 1.280000 -0.000049
v -1.200012 1.280000 -0.060039
v -1.200012 1.260000 -0.040042
v -1.200012 1.260000 -0.020046
v -1.200012 1.260000 1.179877
v -1.200012 1.260000 -1.179907
v -1.260026 1.280000 1.159907
v -1.260026 1.280000 -1.160006
v -1.260026 1.280000 -0.000049
v -1.260026 1.280000 -0.060039
v -1.260026 1.260000 -0.040042
v -1.260026 1.260000 -0.020046
v -1.260026 1.260000 1.179877
v -1.260026 1.260000 -1.179907
vt 0.156284 0.499981
vt 0.164062 0.499981
vt 0.156283 0.953089
vt 0.296747 0.499981
vt 0.296747 0.953089
vt 0.281023 0.953089
vt 0.164062 0.953089
vt 0.312471 0.046873
vt 0.437488 0.046873
vt 0.312471 0.476547
vt 0.007802 0.499981
vt 0.015605 0.499981
vt 0.007802 0.953089
vt 1.000000 0.968690
vt 0.859405 0.968690
vt 0.890492 0.960889
vt 0.601624 0.039099
vt 0.617245 0.039099
vt 0.601624 0.046873
vt 0.007802 0.476547
vt -0.000000 0.476547
vt -0.000000 0.046873
vt 0.468759 0.492170
vt 0.586004 0.492170
vt 0.468759 0.499981
vt 1.000000 0.499981
vt 1.000000 0.953089
vt 0.890492 0.953089
vt 0.617245 0.046873
vt 0.617245 0.476547
vt 0.601624 0.476547
vt 0.304609 0.039099
vt 0.312471 0.039099
vt 0.304609 0.046873
vt 0.015605 0.046873
vt 0.015605 0.476547
vt 0.742287 0.499981
vt 0.757890 0.499981
vt 0.742287 0.953089
vt 0.437488 0.499981
vt 0.437488 0.953089
vt 0.312471 0.953089
vt 0.757890 0.960889
vt 0.742287 0.968690
vt 0.726684 0.046873
vt 0.726684 0.039099
vt 0.734486 0.046873
vt 0.023407 0.968690
vt 0.000000 0.968690
vt 0.007802 0.960889
vt 0.734486 0.484358
vt 0.742287 0.476547
vt 0.742287 0.484358
vt 0.859405 0.046873
vt 0.859405 0.039099
vt 0.867219 0.046873
vt 0.281023 0.046873
vt 0.296747 0.046873
vt 0.281023 0.476547
vt 1.000000 0.039099
vt 1.000000 0.046873
vt 0.890492 0.046873
vt 0.757890 0.039099
vt 0.757890 0.046873
vt 0.742287 0.046873
vt 0.890492 0.039099
vt 0.875034 0.046873
vt 0.304609 0.476547
vt 0.312471 0.960889
vt 0.734486 0.039099
vt 0.742287 0.039099
vt 0.164063 0.039099
vt 0.281023 0.039099
vt 0.164062 0.046873
vt 0.437488 0.492170
vt 0.453123 0.499981
vt 0.734486 0.492170
vt 0.742287 0.492170
vt 0.007802 0.046873
vt 0.007802 0.039099
vt 0.757890 0.484358
vt 0.859405 0.484358
vt 0.757890 0.492170
vt 0.867219 0.031325
vt 0.875034 0.039099
vt 0.867219 0.039099
vt 0.031245 0.046873
vt 0.133031 0.046873
vt 0.031245 0.476547
vt 0.437488 0.039099
vt 0.593814 0.031325
vt 0.593814 0.039099
vt 0.586004 0.039099
vt 0.734486 0.476547
vt 0.437488 0.476547
vt 0.726684 0.499981
vt 0.726684 0.953089
vt 0.617245 0.953089
vt 0.468759 0.039099
vt 0.468759 0.046873
vt 0.460941 0.046873
vt 0.304609 0.492170
vt 0.312471 0.492170
vt 0.304609 0.499981
vt 0.734486 0.960889
vt 0.734486 0.953089
vt 0.031245 0.492170
vt 0.133031 0.492170
vt 0.031245 0.499981
vt 0.593814 0.046873
vt 0.593814 0.476547
vt 0.586004 0.476547
vt 0.156284 0.492170
vt 0.164062 0.492170
vt 0.453124 0.039099
vt 0.453123 0.046873
vt 0.742287 0.960889
vt 0.617245 0.499981
vt 0.586004 0.046873
vt 0.757890 0.953089
vt 0.859405 0.953089
vt 0.617245 0.492170
vt 0.617245 0.484358
vt 0.726684 0.484358
vt 0.015605 0.953089
vt 0.890492 0.476547
vt 0.875034 0.476547
vt 0.726684 0.476547
vt 0.601624 0.960889
vt 0.617245 0.960889
vt 0.586003 0.968690
vt 0.312471 0.499981
vt 0.304609 0.953089
vt 0.586003 0.960889
vt 0.593814 0.960889
vt 0.867219 0.484358
vt 0.867219 0.476547
vt 0.875034 0.484358
vt 0.875034 0.960889
vt 0.148505 0.046873
vt 0.148505 0.476547
vt 0.133031 0.476547
vt 0.757890 0.031325
vt 0.593814 0.953089
vt 0.593814 0.499981
vt 0.601624 0.953089
vt 0.757890 0.476547
vt 0.859405 0.476547
vt 0.015605 0.039099
vt 0.468759 0.953089
vt 0.460941 0.953089
vt 0.156284 0.046873
vt 0.726684 0.960889
vt 0.312471 0.484358
vt 1.000000 0.960889
vt 0.133031 0.039099
vt 0.460941 0.492170
vt 0.460941 0.499981
vt 0.304609 0.960889
vt 0.148505 0.039099
vt 0.890492 0.492170
vt 1.000000 0.492170
vt 0.890492 0.499981
vt 0.734486 0.499981
vt 0.617245 0.031325
vt 0.890492 0.484358
vt 0.867219 0.492170
vt 0.859405 0.492170
vt 0.601624 0.484358
vt 0.296747 0.476547
vt 0.281023 0.484358
vt 0.296747 0.039099
vt 0.031245 0.968690
vt 0.164062 0.476547
vt 0.164062 0.484358
vt 0.281023 0.492170
vt 0.296747 0.492170
vt 0.281023 0.499981
vt 0.148505 0.492170
vt 0.148505 0.499981
vt 0.133031 0.499981
vt 0.007802 0.492170
vt 0.015605 0.492170
vt 0.156284 0.476547
vt 0.601624 0.499981
vt 0.586004 0.499981
vt 0.453123 0.492170
vt 0.726684 0.492170
vt 0.875034 0.499981
vt 0.859405 0.499981
vt 0.586003 0.953089
vt 0.023407 0.960889
vt 0.023407 0.953089
vt 0.031245 0.960889
vt 0.875034 0.492170
vt 0.000000 0.953089
vt -0.000000 0.499981
vt 0.031245 0.953089
vt 0.023407 0.499981
vt 0.875034 0.953089
vt 0.133031 0.953089
vt 0.453123 0.953089
vt 0.468759 0.476547
vt 0.460941 0.476547
vt 0.015605 0.960889
vt 0.023407 0.476547
vt 0.023407 0.046873
vt 0.281023 0.960889
vt 1.000000 0.476547
vt 1.000000 0.484358
vt 0.437488 0.484358
vt 0.296747 0.484358
vt 0.468759 0.484358
vt 0.453123 0.476547
vt 0.453123 0.484358
vt 0.859405 0.960889
vt 0.586004 0.484358
vt 0.304609 0.484358
vt 0.867219 0.499981
vt 0.867219 0.953089
vt 0.015605 0.484358
vt 0.007802 0.484358
vt 0.304609 0.031325
vt 0.133031 0.484358
vt 0.031245 0.484358
vt 0.148505 0.484358
vt 0.468759 0.960890
vt 0.156284 0.031325
vt 0.460941 0.960889
vt 0.148505 0.953089
vt 0.133031 0.960889
vt 0.156283 0.960889
vt 0.164062 0.960889
vt 1.000000 0.031325
vt 0.156284 0.039099
vt 0.593814 0.484358
vt 0.593814 0.492170
vt 0.867219 0.960889
vt 0.460941 0.039099
vt 0.000000 0.960889
vt 0.148505 0.960889
vt 0.023407 0.492170
vt 0.460941 0.484358
vt 0.156284 0.484359
vt 0.601624 0.492170
vt 0.031245 0.039099
vt 0.296747 0.960889
vt 0.453123 0.960889
vt 0.437488 0.960889
vt 0.460941 0.031325
vt 0.023407 0.031325
vt 0.031245 0.031325
vt 0.023407 0.039099
vt 0.000000 0.000000
vt 1.000000 1.000000
vt -0.000000 0.492170
vt 0.003100 0.968690
vt 0.003100 1.000000
vt 0.003100 0.953089
vt 0.003100 0.492170
vt 0.003100 0.499981
vt 0.003100 0.476547
vt 0.003100 0.031325
vt 0.003100 0.039099
vt 0.003100 0.046873
vt 0.992188 0.031325
vt 0.992188 0.000000
vt 0.992188 0.046873
vt 0.992188 0.484358
vt 0.992188 0.476547
vt 0.992188 0.499981
vt 0.992188 0.968690
vt 0.992188 0.960889
vt 0.992188 0.953089
vt -0.000000 0.484358
vt 0.000000 0.031325
vt -0.000000 0.039099
vt 0.023407 0.484358
vt 1.000000 0.000000
vt 0.000000 1.000000
vt 0.003100 0.960889
vt 0.003100 0.484358
vt 0.003100 0.000000
vt 0.992188 0.039099
vt 0.992188 0.492170
vt 0.992188 1.000000
vn 0.708600 -0.705600 0.000000
vn -0.445000 -0.895600 0.000000
vn 0.000000 -1.000000 0.000000
vn -0.707600 -0.706600 0.000000
vn 0.000000 -0.707000 0.707200
vn 0.447300 -0.894400 0.000000
vn 0.447700 -0.894200 0.000000
vn -0.576900 -0.576100 0.579000
vn -0.576300 -0.576400 0.579300
vn 0.000000 -0.705400 0.708900
vn 0.333000 -0.665100 0.668400
vn 0.335800 -0.664400 0.667700
vn 0.704900 -0.709300 0.000000
vn 0.000000 -0.706600 -0.707600
vn -0.333100 -0.666700 0.666800
vn -0.576900 -0.576200 0.579000
vn 0.576100 -0.576500 0.579400
vn -0.707200 -0.707000 0.000000
vn -0.707600 -0.706700 0.000000
vn 0.451100 -0.892500 0.000000
vn 0.332700 -0.665200 0.668500
vn -0.450700 -0.892700 0.000000
vn 0.000000 -0.707000 -0.707200
vn 0.706900 -0.707400 0.000000
vn 0.578100 -0.575600 0.578400
vn -0.707000 -0.707200 -0.000000
vn -0.447000 -0.894600 0.000000
vn 0.574000 -0.577600 0.580500
vn -0.331400 -0.667100 -0.667200
vn 0.574900 -0.578500 0.578600
vn 0.579000 -0.576500 0.576600
vn 0.333400 -0.666600 0.666700
vn 0.577100 -0.577400 0.577600
vn 0.333700 -0.666500 0.666600
vn 0.336500 -0.665800 0.665900
vn -0.577200 -0.577000 -0.577900
vn 0.706000 -0.708300 0.000000
vn -0.332400 -0.665200 0.668600
vn 0.706900 -0.707300 0.000000
vn 0.336500 -0.665800 -0.665900
vn 0.333700 -0.666500 -0.666600
vn -0.331200 -0.666700 -0.667700
vn 0.577100 -0.577400 -0.577600
vn 0.333400 -0.666600 -0.666700
vn -0.577400 -0.577300 0.577400
vn -0.577200 -0.577400 0.577500
vn 0.579000 -0.576500 -0.576600
vn 0.574900 -0.578500 -0.578600
vn -0.336000 -0.665500 -0.666500
vn -0.577800 -0.577100 0.577200
vn -0.330700 -0.665700 0.669000
vn -0.333100 -0.666700 -0.666800
vn -0.336200 -0.665900 -0.666000
vn -0.577000 -0.577100 -0.578000
vn -0.577800 -0.577100 -0.577200
vn -0.577600 -0.576800 -0.577700
vn -0.331400 -0.667100 0.667200
vn -0.577400 -0.577300 -0.577400
vn 0.574600 -0.578300 -0.579100
vn 0.578700 -0.576200 -0.577100
vn 0.333200 -0.666200 -0.667200
vn 0.576800 -0.577200 -0.578100
vn 0.333500 -0.666100 -0.667100
vn 0.336300 -0.665400 -0.666400
vn -0.332900 -0.666300 -0.667300
vn -0.577200 -0.577400 -0.577500
vn -0.336200 -0.665900 0.666000
vn -0.577900 -0.577000 -0.577100
vn 0.575800 -0.577700 -0.578600
vn -0.576500 -0.576300 0.579200
vn 0.576100 -0.577900 -0.578000
vn 0.576100 -0.577900 0.578000
vn -0.000000 -0.970300 -0.242000
vn 0.575100 -0.577000 0.579900
vn -0.577900 -0.577000 0.577100
vn 0.000000 -0.970300 0.242100
vn -0.335500 -0.664500 0.667800
vn -1.000000 0.000000 0.000000
vn 1.000000 0.000000 0.000000
vn 0.000000 -1.000000 0.000100
vn 0.000000 -0.970200 0.242100
s off
f 151/1/1 75/2/1 148/3/1
f 81/4/2 59/5/2 57/6/2
f 75/2/1 49/7/1 148/3/1
f 54/8/3 29/9/3 101/10/3
f 257/11/4 76/12/4 255/13/4
f 13/14/3 14/15/3 193/16/3
f 230/17/3 229/18/3 41/19/3
f 258/20/3 82/21/3 17/22/3
f 121/23/5 125/24/5 69/25/5
f 60/26/3 6/27/3 9/28/3
f 38/29/6 94/30/6 95/31/6
f 240/32/3 236/33/3 156/34/3
f 48/35/4 98/36/4 258/20/4
f 66/37/7 61/38/7 12/39/7
f 68/40/3 28/41/3 55/42/3
f 191/43/3 14/15/3 15/44/3
f 20/45/8 219/46/8 177/47/8
f 43/48/3 16/49/3 261/50/3
f 180/51/3 89/52/3 116/53/3
f 22/54/9 221/55/9 183/56/9
f 56/57/2 58/58/2 102/59/2
f 217/60/10 18/61/10 21/62/10
f 218/63/11 19/64/11 24/65/11
f 219/46/10 20/45/10 38/29/10
f 220/66/12 21/62/12 23/67/12
f 221/55/10 22/54/10 19/64/10
f 54/8/13 101/10/13 159/68/13
f 55/42/14 28/41/14 208/69/14
f 243/70/3 223/71/3 24/65/3
f 232/72/10 237/73/10 47/74/10
f 68/40/15 119/75/15 70/76/15
f 181/77/3 116/53/3 117/78/3
f 256/79/16 262/80/16 48/35/16
f 106/81/3 112/82/3 107/83/3
f 184/84/3 222/85/3 244/86/3
f 247/87/3 51/88/3 250/89/3
f 225/90/10 29/9/10 54/8/10
f 171/91/3 242/92/3 228/93/3
f 179/94/3 24/65/3 89/52/3
f 29/9/3 90/95/3 101/10/3
f 62/96/3 8/97/3 37/98/3
f 226/99/17 31/100/17 163/101/17
f 161/102/3 141/103/3 158/104/3
f 12/39/3 215/105/3 176/106/3
f 252/107/5 137/108/5 249/109/5
f 170/110/18 173/111/18 93/112/18
f 154/113/3 133/114/3 151/1/3
f 228/93/3 226/99/3 171/91/3
f 225/90/3 227/115/3 33/116/3
f 12/39/3 196/117/3 215/105/3
f 72/118/3 62/96/3 37/98/3
f 228/93/10 36/119/10 31/100/10
f 7/120/14 10/121/14 191/43/14
f 127/122/3 126/123/3 108/124/3
f 76/12/19 46/125/19 255/13/19
f 21/62/20 86/126/20 88/127/20
f 229/18/21 38/29/21 41/19/21
f 20/45/3 85/128/3 94/30/3
f 202/129/3 201/130/3 35/131/3
f 79/132/13 55/42/13 157/133/13
f 35/131/3 200/134/3 214/135/3
f 187/136/3 186/137/3 114/138/3
f 195/139/3 193/16/3 14/15/3
f 53/140/22 100/141/22 99/142/22
f 27/143/3 218/63/3 223/71/3
f 94/30/23 85/128/23 126/123/23
f 169/144/3 172/145/3 40/146/3
f 19/64/7 84/147/7 89/52/7
f 22/54/3 87/148/3 84/147/3
f 156/34/13 54/8/13 159/68/13
f 23/67/20 21/62/20 88/127/20
f 262/80/3 233/149/3 48/35/3
f 38/29/3 20/45/3 94/30/3
f 69/25/24 30/150/24 162/151/24
f 232/72/25 47/74/25 149/152/25
f 183/56/26 186/137/26 87/148/26
f 236/33/10 225/90/10 54/8/10
f 29/9/27 33/116/27 90/95/27
f 51/88/22 53/140/22 99/142/22
f 15/44/3 201/130/3 192/153/3
f 101/10/23 90/95/23 140/154/23
f 193/16/3 190/155/3 13/14/3
f 256/79/19 48/35/19 258/20/19
f 234/156/10 51/88/10 247/87/10
f 168/157/3 121/23/3 165/158/3
f 117/78/3 107/83/3 66/37/3
f 220/66/10 217/60/10 21/62/10
f 212/159/3 157/133/3 208/69/3
f 234/156/3 235/160/3 53/140/3
f 111/161/5 105/162/5 63/163/5
f 222/85/3 23/67/3 183/56/3
f 178/164/4 176/106/4 8/97/4
f 219/46/3 229/18/3 39/165/3
f 236/33/28 54/8/28 156/34/28
f 219/46/3 39/165/3 27/143/3
f 114/138/3 88/127/3 110/166/3
f 237/73/10 56/57/10 47/74/10
f 188/167/3 113/168/3 187/136/3
f 20/45/4 177/47/4 85/128/4
f 128/169/3 95/31/3 126/123/3
f 102/59/29 103/170/29 142/171/29
f 237/73/3 238/172/3 58/58/3
f 35/131/3 246/173/3 208/69/3
f 58/58/2 103/170/2 102/59/2
f 97/174/23 102/59/23 132/175/23
f 143/176/3 145/177/3 81/4/3
f 143/176/5 80/178/5 75/2/5
f 141/103/30 79/132/30 158/104/30
f 137/108/3 139/179/3 78/180/3
f 137/108/5 77/181/5 249/109/5
f 133/114/31 75/2/31 151/1/31
f 260/182/3 135/183/3 76/12/3
f 149/152/1 47/74/1 152/184/1
f 133/114/5 143/176/5 75/2/5
f 127/122/32 72/118/32 73/185/32
f 125/24/5 71/186/5 69/25/5
f 119/75/3 123/187/3 70/76/3
f 121/23/33 69/25/33 165/158/33
f 119/75/5 68/40/5 79/132/5
f 105/162/5 60/26/5 63/163/5
f 107/83/34 61/38/34 66/37/34
f 109/188/5 62/96/5 72/118/5
f 111/161/35 63/163/35 65/189/35
f 113/168/5 64/190/5 61/38/5
f 56/57/3 102/59/3 97/174/3
f 34/191/36 169/144/36 200/134/36
f 15/44/3 196/117/3 191/43/3
f 203/192/3 42/193/3 253/194/3
f 84/147/23 87/148/23 106/81/23
f 62/96/4 178/164/4 8/97/4
f 111/161/3 115/195/3 114/138/3
f 255/13/3 5/196/3 67/197/3
f 249/109/37 245/198/37 74/199/37
f 256/79/3 258/20/3 17/22/3
f 61/38/7 7/120/7 12/39/7
f 158/104/13 79/132/13 157/133/13
f 71/186/3 34/191/3 30/150/3
f 79/132/3 68/40/3 55/42/3
f 172/145/18 169/144/18 34/191/18
f 65/189/20 63/163/20 11/200/20
f 29/9/38 225/90/38 33/116/38
f 249/109/3 77/181/3 245/198/3
f 77/181/3 50/201/3 245/198/3
f 70/76/27 32/202/27 28/41/27
f 15/44/3 192/153/3 215/105/3
f 64/190/3 10/121/3 7/120/3
f 31/100/39 91/203/39 166/204/39
f 66/37/3 12/39/3 176/106/3
f 245/198/14 50/201/14 253/194/14
f 22/54/26 183/56/26 87/148/26
f 42/193/3 205/205/3 46/125/3
f 87/148/23 112/82/23 106/81/23
f 257/11/3 255/13/3 67/197/3
f 88/127/40 86/126/40 110/166/40
f 250/89/37 96/206/37 44/207/37
f 85/128/23 108/124/23 126/123/23
f 36/119/3 93/112/3 91/203/3
f 89/52/41 84/147/41 106/81/41
f 57/6/42 59/5/42 209/208/42
f 83/209/23 104/210/23 110/166/23
f 214/135/3 40/146/3 202/129/3
f 90/95/23 118/211/23 140/154/23
f 145/177/3 142/171/3 144/212/3
f 166/204/43 91/203/43 120/213/43
f 144/212/3 103/170/3 159/68/3
f 92/214/3 122/215/3 118/211/3
f 191/43/3 194/216/3 14/15/3
f 93/112/23 124/217/23 120/213/23
f 145/177/3 144/212/3 160/218/3
f 95/31/44 94/30/44 126/123/44
f 185/219/26 182/220/26 10/121/26
f 160/218/3 161/102/3 145/177/3
f 159/68/3 160/218/3 144/212/3
f 71/186/45 125/24/45 172/145/45
f 64/190/46 113/168/46 185/219/46
f 98/36/3 134/221/3 259/222/3
f 127/122/5 109/188/5 72/118/5
f 152/184/47 97/174/47 132/175/47
f 238/172/3 237/73/3 155/223/3
f 99/142/23 136/224/23 251/225/23
f 218/63/10 221/55/10 19/64/10
f 100/141/3 138/226/3 136/224/3
f 30/150/14 34/191/14 198/227/14
f 159/68/48 101/10/48 140/154/48
f 159/68/3 58/58/3 156/34/3
f 102/59/23 142/171/23 132/175/23
f 237/73/3 232/72/3 150/228/3
f 103/170/3 144/212/3 142/171/3
f 42/193/3 203/192/3 205/205/3
f 213/229/3 162/151/3 198/227/3
f 71/186/18 172/145/18 34/191/18
f 50/201/49 52/230/49 206/231/49
f 196/117/3 12/39/3 191/43/3
f 109/188/3 108/124/3 180/51/3
f 33/116/27 92/214/27 90/95/27
f 211/232/3 148/3/3 204/233/3
f 257/11/50 260/182/50 76/12/50
f 115/195/3 188/167/3 114/138/3
f 198/227/3 200/134/3 35/131/3
f 36/119/18 170/110/18 93/112/18
f 21/62/3 18/61/3 86/126/3
f 80/178/3 57/6/3 49/7/3
f 11/200/3 185/219/3 65/189/3
f 51/88/3 99/142/3 250/89/3
f 180/51/3 179/94/3 89/52/3
f 183/56/3 88/127/3 186/137/3
f 184/84/3 26/234/3 220/66/3
f 232/72/3 239/235/3 150/228/3
f 155/223/3 240/32/3 238/172/3
f 158/104/3 81/4/3 145/177/3
f 158/104/3 157/133/3 59/5/3
f 114/138/3 186/137/3 88/127/3
f 202/129/3 40/146/3 201/130/3
f 218/63/3 27/143/3 221/55/3
f 158/104/3 59/5/3 81/4/3
f 243/70/3 27/143/3 223/71/3
f 161/102/3 158/104/3 145/177/3
f 173/111/3 174/236/3 124/217/3
f 63/163/20 9/28/20 11/200/20
f 125/24/3 175/237/3 172/145/3
f 14/15/3 194/216/3 216/238/3
f 228/93/3 242/92/3 170/110/3
f 114/138/3 110/166/3 111/161/3
f 182/220/3 185/219/3 11/200/3
f 86/126/23 83/209/23 110/166/23
f 49/7/14 57/6/14 204/233/14
f 179/94/3 180/51/3 108/124/3
f 241/239/3 226/99/3 163/101/3
f 109/188/3 181/77/3 178/164/3
f 214/135/3 169/144/3 40/146/3
f 219/46/3 243/70/3 177/47/3
f 217/60/3 220/66/3 26/234/3
f 47/74/1 97/174/1 152/184/1
f 115/195/3 65/189/3 188/167/3
f 137/108/3 252/107/3 251/225/3
f 186/137/3 187/136/3 112/82/3
f 226/99/10 228/93/10 31/100/10
f 113/168/3 188/167/3 185/219/3
f 75/2/3 80/178/3 49/7/3
f 221/55/3 244/86/3 183/56/3
f 24/65/7 19/64/7 89/52/7
f 41/19/6 38/29/6 95/31/6
f 181/77/3 180/51/3 116/53/3
f 56/57/51 237/73/51 58/58/51
f 90/95/52 92/214/52 118/211/52
f 183/56/3 244/86/3 222/85/3
f 16/49/3 189/240/3 261/50/3
f 43/48/3 261/50/3 205/205/3
f 105/162/3 111/161/3 110/166/3
f 99/142/53 100/141/53 136/224/53
f 207/241/3 52/230/3 148/3/3
f 91/203/23 93/112/23 120/213/23
f 216/238/3 182/220/3 195/139/3
f 179/94/3 177/47/3 24/65/3
f 19/64/3 22/54/3 84/147/3
f 116/53/3 89/52/3 106/81/3
f 245/198/37 42/193/37 74/199/37
f 117/78/3 116/53/3 107/83/3
f 15/44/3 35/131/3 201/130/3
f 10/121/54 182/220/54 194/216/54
f 107/83/3 112/82/3 113/168/3
f 66/37/3 176/106/3 178/164/3
f 114/138/3 188/167/3 187/136/3
f 253/194/3 206/231/3 246/173/3
f 258/20/55 98/36/55 259/222/55
f 65/189/3 185/219/3 188/167/3
f 61/38/3 64/190/3 7/120/3
f 74/199/3 42/193/3 46/125/3
f 131/242/3 74/199/3 76/12/3
f 203/192/3 43/48/3 205/205/3
f 31/100/3 36/119/3 91/203/3
f 73/185/3 40/146/3 172/145/3
f 163/101/24 31/100/24 166/204/24
f 145/177/3 143/176/3 142/171/3
f 243/70/3 219/46/3 27/143/3
f 139/179/3 137/108/3 136/224/3
f 250/89/23 99/142/23 251/225/23
f 246/173/3 206/231/3 207/241/3
f 110/166/3 104/210/3 105/162/3
f 181/77/3 109/188/3 180/51/3
f 127/122/3 108/124/3 109/188/3
f 167/243/3 166/204/3 120/213/3
f 64/190/26 185/219/26 10/121/26
f 107/83/5 113/168/5 61/38/5
f 184/84/3 220/66/3 222/85/3
f 68/40/27 70/76/27 28/41/27
f 8/97/56 176/106/56 192/153/56
f 247/87/37 250/89/37 44/207/37
f 153/244/3 152/184/3 132/175/3
f 117/78/3 178/164/3 181/77/3
f 77/181/22 78/180/22 50/201/22
f 129/245/3 73/185/3 172/145/3
f 116/53/3 106/81/3 107/83/3
f 80/178/57 143/176/57 81/4/57
f 93/112/58 173/111/58 124/217/58
f 23/67/3 88/127/3 183/56/3
f 254/246/10 234/156/10 247/87/10
f 182/220/3 216/238/3 194/216/3
f 176/106/3 215/105/3 192/153/3
f 169/144/3 214/135/3 200/134/3
f 184/84/3 244/86/3 221/55/3
f 129/245/3 127/122/3 73/185/3
f 78/180/22 52/230/22 50/201/22
f 59/5/3 210/247/3 209/208/3
f 57/6/14 209/208/14 204/233/14
f 157/133/59 55/42/59 208/69/59
f 52/230/3 207/241/3 206/231/3
f 50/201/14 206/231/14 253/194/14
f 148/3/60 49/7/60 204/233/60
f 46/125/3 205/205/3 261/50/3
f 195/139/3 14/15/3 216/238/3
f 115/195/3 111/161/3 65/189/3
f 40/146/61 37/98/61 201/130/61
f 34/191/14 200/134/14 198/227/14
f 32/202/3 199/248/3 197/249/3
f 162/151/62 30/150/62 198/227/62
f 28/41/14 197/249/14 208/69/14
f 6/27/14 190/155/14 193/16/14
f 12/39/63 7/120/63 191/43/63
f 8/97/14 192/153/14 201/130/14
f 11/200/64 9/28/64 193/16/64
f 10/121/14 194/216/14 191/43/14
f 222/85/3 220/66/3 23/67/3
f 141/103/5 119/75/5 79/132/5
f 35/131/3 214/135/3 202/129/3
f 37/98/14 8/97/14 201/130/14
f 171/91/3 226/99/3 164/250/3
f 240/32/3 156/34/3 238/172/3
f 9/28/14 6/27/14 193/16/14
f 239/235/3 232/72/3 149/152/3
f 195/139/3 11/200/3 193/16/3
f 255/13/56 46/125/56 261/50/56
f 184/84/3 221/55/3 27/143/3
f 159/68/3 103/170/3 58/58/3
f 80/178/2 81/4/2 57/6/2
f 28/41/65 32/202/65 197/249/65
f 223/71/3 218/63/3 24/65/3
f 177/47/4 179/94/4 85/128/4
f 63/163/3 60/26/3 9/28/3
f 237/73/3 150/228/3 155/223/3
f 87/148/66 186/137/66 112/82/66
f 77/181/67 137/108/67 78/180/67
f 85/128/68 179/94/68 108/124/68
f 73/185/6 72/118/6 40/146/6
f 241/239/3 164/250/3 226/99/3
f 165/158/24 69/25/24 162/151/24
f 45/251/3 248/252/3 231/253/3
f 160/218/3 159/68/3 140/154/3
f 238/172/3 156/34/3 58/58/3
f 18/61/3 83/209/3 86/126/3
f 177/47/3 243/70/3 24/65/3
f 248/252/3 254/246/3 231/253/3
f 42/193/69 245/198/69 253/194/69
f 72/118/6 37/98/6 40/146/6
f 36/119/70 228/93/70 170/110/70
f 210/247/3 212/159/3 246/173/3
f 96/206/71 250/89/71 251/225/71
f 117/78/3 66/37/3 178/164/3
f 252/107/72 249/109/72 74/199/72
f 150/228/73 248/252/73 1/254/73
f 254/246/74 247/87/74 44/207/74
f 253/194/3 246/173/3 43/48/3
f 62/96/75 109/188/75 178/164/75
f 15/44/76 4/255/76 35/131/76
f 74/199/3 46/125/3 76/12/3
f 255/13/14 261/50/14 189/240/14
f 113/168/3 112/82/3 187/136/3
f 47/74/3 56/57/3 97/174/3
f 196/117/3 15/44/3 215/105/3
f 82/21/23 258/20/23 259/222/23
f 52/230/3 78/180/3 151/1/3
f 146/256/5 260/182/5 257/11/5
f 69/25/3 71/186/3 30/150/3
f 51/88/77 234/156/77 53/140/77
f 172/145/3 175/237/3 129/245/3
f 195/139/3 182/220/3 11/200/3
f 262/80/10 256/79/10 17/22/10
f 16/257/78 3/258/78 5/259/78
f 146/260/78 67/261/78 82/262/78
f 25/263/78 224/264/78 17/265/78
f 26/266/79 2/267/79 18/268/79
f 104/269/79 83/270/79 60/271/79
f 13/272/79 190/273/79 6/274/79
f 229/18/10 219/46/10 38/29/10
f 213/229/3 198/227/3 35/131/3
f 131/242/3 76/12/3 135/183/3
f 165/158/3 162/151/3 70/76/3
f 252/107/3 131/242/3 251/225/3
f 168/157/3 165/158/3 123/187/3
f 260/182/3 146/256/3 147/275/3
f 125/24/3 121/23/3 124/217/3
f 135/183/3 260/182/3 259/222/3
f 175/237/3 125/24/3 174/236/3
f 131/242/3 135/183/3 134/221/3
f 129/245/3 175/237/3 128/169/3
f 260/182/3 147/275/3 259/222/3
f 127/122/3 129/245/3 126/123/3
f 135/183/3 259/222/3 134/221/3
f 126/123/3 129/245/3 128/169/3
f 134/221/3 98/36/3 96/206/3
f 128/169/3 175/237/3 174/236/3
f 98/36/3 48/35/3 44/207/3
f 41/19/3 95/31/3 170/110/3
f 233/149/3 262/80/3 25/276/3
f 230/17/3 41/19/3 242/92/3
f 262/80/3 224/277/3 25/276/3
f 39/165/3 229/18/3 230/17/3
f 233/149/3 25/276/3 45/251/3
f 171/91/3 39/165/3 230/17/3
f 48/35/3 233/149/3 231/253/3
f 171/91/3 230/17/3 242/92/3
f 233/149/3 45/251/3 231/253/3
f 242/92/3 41/19/3 170/110/3
f 48/35/3 231/253/3 44/207/3
f 170/110/3 95/31/3 173/111/3
f 98/36/3 44/207/3 96/206/3
f 173/111/3 95/31/3 128/169/3
f 134/221/3 96/206/3 130/278/3
f 174/236/3 173/111/3 128/169/3
f 131/242/3 134/221/3 130/278/3
f 174/236/3 125/24/3 124/217/3
f 131/242/3 130/278/3 251/225/3
f 124/217/3 121/23/3 120/213/3
f 137/108/3 251/225/3 136/224/3
f 120/213/3 121/23/3 168/157/3
f 139/179/3 136/224/3 138/226/3
f 167/243/3 120/213/3 168/157/3
f 78/180/3 139/179/3 154/113/3
f 166/204/3 167/243/3 92/214/3
f 138/226/3 100/141/3 152/184/3
f 241/239/3 163/101/3 227/115/3
f 235/160/3 234/156/3 150/228/3
f 164/250/3 241/239/3 227/115/3
f 234/156/3 254/246/3 248/252/3
f 240/32/3 155/223/3 236/33/3
f 234/156/3 248/252/3 150/228/3
f 236/33/3 155/223/3 225/90/3
f 53/140/3 235/160/3 239/235/3
f 225/90/3 155/223/3 164/250/3
f 100/141/3 53/140/3 149/152/3
f 227/115/3 225/90/3 164/250/3
f 139/179/3 138/226/3 153/244/3
f 227/115/3 163/101/3 33/116/3
f 235/160/3 150/228/3 239/235/3
f 163/101/3 166/204/3 33/116/3
f 53/140/3 239/235/3 149/152/3
f 166/204/3 92/214/3 33/116/3
f 100/141/3 149/152/3 152/184/3
f 167/243/3 122/215/3 92/214/3
f 138/226/3 152/184/3 153/244/3
f 167/243/3 168/157/3 122/215/3
f 132/175/3 142/171/3 143/176/3
f 122/215/3 168/157/3 123/187/3
f 153/244/3 132/175/3 133/114/3
f 140/154/3 118/211/3 141/103/3
f 132/175/3 143/176/3 133/114/3
f 160/218/3 140/154/3 161/102/3
f 153/244/3 133/114/3 154/113/3
f 161/102/3 140/154/3 141/103/3
f 139/179/3 153/244/3 154/113/3
f 141/103/3 118/211/3 119/75/3
f 78/180/3 154/113/3 151/1/3
f 119/75/3 118/211/3 122/215/3
f 52/230/3 151/1/3 148/3/3
f 123/187/3 119/75/3 122/215/3
f 207/241/3 148/3/3 211/232/3
f 123/187/3 165/158/3 70/76/3
f 246/173/3 207/241/3 211/232/3
f 70/76/3 162/151/3 32/202/3
f 246/173/80 211/232/80 204/233/80
f 32/202/3 162/151/3 213/229/3
f 246/173/3 204/233/3 209/208/3
f 199/248/3 32/202/3 213/229/3
f 246/173/80 209/208/80 210/247/80
f 199/248/3 213/229/3 35/131/3
f 208/69/3 197/249/3 35/131/3
f 59/5/3 157/133/3 212/159/3
f 197/249/3 199/248/3 35/131/3
f 210/247/3 59/5/3 212/159/3
f 212/159/3 208/69/3 246/173/3
f 130/278/3 96/206/3 251/225/3
f 131/242/3 252/107/3 74/199/3
f 1/254/73 2/279/73 164/250/73
f 26/234/73 184/84/73 2/279/73
f 27/143/73 39/165/73 2/279/73
f 171/91/73 164/250/73 2/279/73
f 155/223/73 150/228/73 1/254/73
f 248/252/73 45/251/73 1/254/73
f 2/279/73 184/84/73 27/143/73
f 45/251/73 25/276/73 1/254/73
f 164/250/73 155/223/73 1/254/73
f 2/279/73 39/165/73 171/91/73
f 231/253/3 254/246/3 44/207/3
f 203/192/3 253/194/3 43/48/3
f 3/280/76 16/49/76 43/48/76
f 246/173/76 35/131/76 3/280/76
f 3/280/81 43/48/81 246/173/81
f 13/14/76 4/255/76 14/15/76
f 15/44/76 14/15/76 4/255/76
f 3/280/76 35/131/76 4/255/76
f 5/196/14 255/13/14 189/240/14
f 147/275/23 82/21/23 259/222/23
f 67/197/5 146/256/5 257/11/5
f 224/277/10 262/80/10 17/22/10
f 189/281/78 16/257/78 5/259/78
f 147/282/78 146/260/78 82/262/78
f 1/283/78 25/263/78 17/265/78
f 217/284/79 26/266/79 18/268/79
f 105/285/79 104/269/79 60/271/79
f 4/286/79 13/272/79 6/274/79
