# Blender v2.76 (sub 0) OBJ File: 'g_emp.blend'
# www.blender.org
v -0.000000 -0.000000 0.133481
v -0.047298 0.000000 -0.001274
v -0.089751 0.000000 -0.027305
v -0.097146 0.000000 -0.050450
v -0.089751 0.000000 -0.063419
v -0.068692 0.000000 -0.079841
v -0.016113 0.009303 0.131863
v -0.040961 0.023649 -0.001274
v -0.077726 0.044875 -0.027305
v -0.084130 0.048573 -0.050450
v -0.077726 0.044875 -0.063419
v -0.059489 0.034346 -0.079841
v -0.029773 0.017189 0.127255
v -0.023649 0.040961 -0.001274
v -0.044875 0.077726 -0.027305
v -0.048573 0.084131 -0.050450
v -0.044875 0.077726 -0.063419
v -0.034346 0.059489 -0.079841
v -0.067890 0.039196 0.104439
v -0.000000 0.047298 -0.001274
v 0.000000 0.089751 -0.027305
v -0.000000 0.097146 -0.050450
v 0.000000 0.089751 -0.063419
v -0.000000 0.068692 -0.079841
v -0.072911 0.042095 0.090243
v 0.023649 0.040961 -0.001274
v 0.044875 0.077726 -0.027305
v 0.048573 0.084130 -0.050450
v 0.044875 0.077726 -0.063419
v 0.034346 0.059489 -0.079841
v -0.067890 0.039196 0.076047
v -0.039116 0.022584 0.041378
v 0.040961 0.023649 -0.001274
v 0.077726 0.044875 -0.027305
v 0.084131 0.048573 -0.050450
v 0.077726 0.044875 -0.063419
v 0.059489 0.034346 -0.079841
v -0.018606 0.000000 0.131863
v 0.047298 -0.000000 -0.001274
v 0.089751 -0.000000 -0.027305
v 0.097146 -0.000000 -0.050450
v 0.089751 -0.000000 -0.063419
v 0.068692 -0.000000 -0.079841
v -0.034379 0.000000 0.127255
v 0.040961 -0.023649 -0.001274
v 0.077726 -0.044875 -0.027305
v 0.084130 -0.048573 -0.050450
v 0.077726 -0.044875 -0.063419
v 0.059489 -0.034346 -0.079841
v -0.078392 0.000000 0.104439
v 0.023649 -0.040961 -0.001274
v 0.044875 -0.077726 -0.027305
v 0.048573 -0.084131 -0.050450
v 0.044875 -0.077726 -0.063419
v 0.034346 -0.059489 -0.079841
v -0.084190 0.000000 0.090243
v -0.000000 -0.047298 -0.001274
v -0.000000 -0.089751 -0.027305
v -0.000000 -0.097146 -0.050450
v -0.000000 -0.089751 -0.063419
v -0.000000 -0.068692 -0.079841
v -0.078392 0.000000 0.076047
v -0.023649 -0.040961 -0.001274
v -0.044875 -0.077726 -0.027305
v -0.048573 -0.084130 -0.050450
v -0.044875 -0.077726 -0.063419
v -0.034346 -0.059489 -0.079841
v -0.045167 0.000000 0.041378
v -0.040961 -0.023649 -0.001274
v -0.077726 -0.044875 -0.027305
v -0.084131 -0.048573 -0.050450
v -0.077726 -0.044875 -0.063419
v -0.059489 -0.034346 -0.079841
v -0.022584 0.039116 0.041378
v -0.039196 0.067890 0.076047
v -0.042095 0.072911 0.090243
v -0.039196 0.067890 0.104439
v -0.017189 0.029773 0.127255
v -0.009303 0.016113 0.131863
v -0.000000 0.045167 0.041378
v -0.000000 0.078392 0.076047
v -0.000000 0.084190 0.090243
v -0.000000 0.078392 0.104439
v -0.000000 0.034379 0.127255
v -0.000000 0.018606 0.131863
v 0.022584 0.039116 0.041378
v 0.039196 0.067890 0.076047
v 0.042095 0.072911 0.090243
v 0.039196 0.067890 0.104439
v 0.017189 0.029773 0.127255
v 0.009303 0.016113 0.131863
v 0.039116 0.022584 0.041378
v 0.067890 0.039196 0.076047
v 0.072911 0.042095 0.090243
v 0.067890 0.039196 0.104439
v 0.029773 0.017189 0.127255
v 0.016113 0.009303 0.131863
v 0.045167 -0.000000 0.041378
v 0.078392 -0.000000 0.076047
v 0.084190 -0.000000 0.090243
v 0.078392 -0.000000 0.104439
v 0.034378 -0.000000 0.127255
v 0.018606 -0.000000 0.131863
v 0.039116 -0.022584 0.041378
v 0.067890 -0.039196 0.076047
v 0.072911 -0.042095 0.090243
v 0.067890 -0.039196 0.104439
v 0.029773 -0.017189 0.127255
v 0.016113 -0.009303 0.131863
v 0.022584 -0.039116 0.041378
v 0.039196 -0.067890 0.076047
v 0.042095 -0.072911 0.090243
v 0.039196 -0.067890 0.104439
v 0.017189 -0.029773 0.127255
v 0.009303 -0.016113 0.131863
v -0.000000 -0.045167 0.041378
v -0.000000 -0.078392 0.076047
v -0.000000 -0.084190 0.090243
v -0.000000 -0.078392 0.104439
v -0.000000 -0.034379 0.127255
v -0.000000 -0.018606 0.131863
v -0.022584 -0.039116 0.041378
v -0.039196 -0.067890 0.076047
v -0.042095 -0.072911 0.090243
v -0.039196 -0.067890 0.104439
v -0.017189 -0.029773 0.127255
v -0.009303 -0.016113 0.131863
v -0.039116 -0.022584 0.041378
v -0.067890 -0.039196 0.076047
v -0.072911 -0.042095 0.090243
v -0.067890 -0.039196 0.104439
v -0.029773 -0.017189 0.127255
v -0.016113 -0.009303 0.131863
v -0.000000 -0.000000 -0.079841
v -0.047298 0.000000 -0.001274
v -0.040961 0.023649 -0.001274
v -0.023649 0.040961 -0.001274
v -0.000000 0.047298 -0.001274
v 0.023649 0.040961 -0.001274
v 0.040961 0.023649 -0.001274
v 0.047298 -0.000000 -0.001274
v 0.040961 -0.023649 -0.001274
v 0.023649 -0.040961 -0.001274
v -0.000000 -0.047298 -0.001274
v -0.023649 -0.040961 -0.001274
v -0.040961 -0.023649 -0.001274
v -0.039116 0.022584 0.041378
v -0.022584 0.039116 0.041378
v -0.045167 0.000000 0.041378
v -0.000000 0.045167 0.041378
v 0.022584 0.039116 0.041378
v 0.039116 0.022584 0.041378
v 0.045167 -0.000000 0.041378
v 0.039116 -0.022584 0.041378
v 0.022584 -0.039116 0.041378
v -0.000000 -0.045167 0.041378
v -0.022584 -0.039116 0.041378
v -0.039116 -0.022584 0.041378
vt 0.501612 0.164553
vt 0.501612 0.233568
vt 0.721767 0.233568
vt 0.501612 0.288070
vt 0.739906 0.288070
vt 0.501612 0.385337
vt 0.721767 0.385337
vt 0.501612 0.494735
vt 0.617631 0.494735
vt 0.693905 0.939006
vt 0.708127 0.879345
vt 0.859307 0.879345
vt 0.882932 0.233568
vt 0.793462 0.164553
vt 0.914350 0.288070
vt 0.882932 0.385337
vt 0.702563 0.494735
vt 0.886199 0.819683
vt 0.834674 0.819683
vt 0.693511 0.673984
vt 0.941923 0.233568
vt 0.838611 0.164553
vt 0.978201 0.288070
vt 0.941923 0.385337
vt 0.733651 0.494735
vt 0.886199 0.939006
vt 0.834674 0.939006
vt 0.565287 0.103655
vt 0.619268 0.087177
vt 0.637469 0.087177
vt 0.670111 0.164553
vt 0.914642 0.879345
vt 0.569540 0.087177
vt 0.281456 0.233568
vt 0.333112 0.164553
vt 0.263317 0.288070
vt 0.281456 0.385337
vt 0.385592 0.494735
vt 0.693905 0.819683
vt 0.612405 0.673984
vt 0.501612 0.673984
vt 0.120291 0.233568
vt 0.088873 0.288070
vt 0.120291 0.385337
vt 0.300660 0.494735
vt 0.501612 0.819683
vt 0.209761 0.164553
vt 0.061300 0.233568
vt 0.025022 0.288070
vt 0.061300 0.385337
vt 0.269572 0.494735
vt 0.501612 0.939006
vt 0.164612 0.164553
vt 0.501612 0.087177
vt 0.656508 0.005583
vt 0.501612 0.103655
vt 0.538374 0.103655
vt 0.769899 0.005583
vt 0.723198 0.673984
vt 0.811404 0.005583
vt 0.575137 0.103655
vt 0.501612 0.005583
vt 0.501612 0.879345
vt 0.464849 0.103655
vt 0.433683 0.087177
vt 0.346715 0.005583
vt 0.309318 0.939006
vt 0.295096 0.879345
vt 0.309318 0.819683
vt 0.390818 0.673984
vt 0.437936 0.103655
vt 0.383955 0.087177
vt 0.233324 0.005583
vt 0.168549 0.939006
vt 0.143917 0.879345
vt 0.168549 0.819683
vt 0.309712 0.673984
vt 0.428086 0.103655
vt 0.365754 0.087177
vt 0.191819 0.005583
vt 0.117024 0.939006
vt 0.088581 0.879345
vt 0.117024 0.819683
vt 0.280025 0.673984
vt 0.501612 0.109442
vt 0.194991 0.670802
vt 0.140768 0.683768
vt 0.140768 0.586991
vt 0.234684 0.635379
vt 0.249213 0.586991
vt 0.234684 0.538603
vt 0.194990 0.503180
vt 0.140768 0.490214
vt 0.086546 0.503180
vt 0.046852 0.538603
vt 0.032323 0.586991
vt 0.046852 0.635379
vt 0.086546 0.670802
vn -0.371800 0.000000 -0.928300
vn -0.769300 0.000000 -0.638900
vn -0.666200 0.384600 -0.638900
vn -0.995200 0.000000 -0.098000
vn -0.861800 0.497600 -0.098000
vn -0.807000 0.000000 0.590500
vn -0.698900 0.403500 0.590500
vn -0.522700 0.000000 0.852500
vn -0.452700 0.261400 0.852500
vn 0.660200 0.381100 0.647200
vn 0.866000 0.500000 0.000000
vn 0.500000 0.866000 0.000000
vn -0.384600 0.666200 -0.638900
vn -0.185900 0.322000 -0.928300
vn -0.497600 0.861800 -0.098000
vn -0.403500 0.698900 0.590500
vn -0.261400 0.452700 0.852500
vn 0.000000 0.847400 -0.530900
vn 0.423700 0.733800 -0.530900
vn 0.361000 0.625200 -0.691900
vn 0.000000 0.769300 -0.638900
vn 0.000000 0.371800 -0.928300
vn 0.000000 0.995200 -0.098000
vn 0.000000 0.807000 0.590500
vn 0.000000 0.522700 0.852500
vn 0.000000 0.762300 0.647200
vn 0.381100 0.660200 0.647200
vn 0.384600 0.666200 -0.638900
vn 0.185900 0.322000 -0.928300
vn 0.497600 0.861800 -0.098000
vn 0.403500 0.698900 0.590500
vn 0.261400 0.452700 0.852500
vn 0.100100 0.173300 0.979700
vn 0.192900 0.334100 0.922600
vn 0.000000 0.385800 0.922600
vn 0.666200 0.384600 -0.638900
vn 0.322000 0.185900 -0.928300
vn 0.861800 0.497600 -0.098000
vn 0.698900 0.403500 0.590500
vn 0.452700 0.261400 0.852500
vn -0.500000 0.866000 0.000000
vn 0.000000 1.000000 0.000000
vn 0.769300 0.000000 -0.638900
vn 0.995200 0.000000 -0.098000
vn 0.807000 0.000000 0.590500
vn 0.522700 0.000000 0.852500
vn -0.100100 0.173300 0.979700
vn -0.192900 0.334100 0.922600
vn -0.334100 0.192900 0.922600
vn 0.666200 -0.384600 -0.638900
vn 0.322000 -0.185900 -0.928300
vn 0.861800 -0.497600 -0.098000
vn 0.698900 -0.403500 0.590500
vn 0.452700 -0.261400 0.852500
vn -0.733800 0.423700 -0.530900
vn -0.625200 0.361000 -0.691900
vn -0.722000 0.000000 -0.691900
vn 0.384600 -0.666200 -0.638900
vn 0.497600 -0.861800 -0.098000
vn 0.403500 -0.698900 0.590500
vn 0.261400 -0.452700 0.852500
vn -0.866000 0.500000 0.000000
vn -0.847400 0.000000 -0.530900
vn 0.185900 -0.322000 -0.928300
vn 0.000000 -0.769300 -0.638900
vn 0.000000 -0.995200 -0.098000
vn 0.000000 -0.807000 0.590500
vn 0.000000 -0.522700 0.852500
vn -0.762300 0.000000 0.647200
vn -0.660200 0.381100 0.647200
vn 0.000000 -0.371800 -0.928300
vn -0.384600 -0.666200 -0.638900
vn -0.497600 -0.861800 -0.098000
vn -0.403500 -0.698900 0.590500
vn -0.261400 -0.452700 0.852500
vn -0.385800 0.000000 0.922600
vn -0.666200 -0.384600 -0.638900
vn -0.322000 -0.185900 -0.928300
vn -0.861800 -0.497600 -0.098000
vn -0.698900 -0.403500 0.590500
vn -0.452700 -0.261400 0.852500
vn -0.200200 0.000000 0.979700
vn -0.173300 0.100100 0.979700
vn 0.334100 0.192900 0.922600
vn -0.423700 0.733800 -0.530900
vn 0.000000 0.722000 -0.691900
vn -0.381100 0.660200 0.647200
vn 0.000000 0.200200 0.979700
vn -0.361000 0.625200 -0.691900
vn 0.733800 0.423700 -0.530900
vn 0.173300 0.100100 0.979700
vn 0.625200 0.361000 -0.691900
vn 0.200200 0.000000 0.979700
vn 0.385800 0.000000 0.922600
vn 0.762300 0.000000 0.647200
vn 1.000000 0.000000 0.000000
vn 0.847400 0.000000 -0.530900
vn 0.722000 0.000000 -0.691900
vn 0.173300 -0.100100 0.979700
vn 0.334100 -0.192900 0.922600
vn 0.660200 -0.381100 0.647200
vn 0.866000 -0.500000 0.000000
vn 0.733800 -0.423700 -0.530900
vn 0.625200 -0.361000 -0.691900
vn 0.100100 -0.173300 0.979700
vn 0.192900 -0.334100 0.922600
vn 0.381100 -0.660200 0.647200
vn 0.500000 -0.866000 0.000000
vn 0.423700 -0.733800 -0.530900
vn 0.361000 -0.625200 -0.691900
vn 0.000000 -0.200200 0.979700
vn 0.000000 -0.385800 0.922600
vn 0.000000 -0.762300 0.647200
vn 0.000000 -1.000000 0.000000
vn 0.000000 -0.847400 -0.530900
vn 0.000000 -0.722000 -0.691900
vn -0.100100 -0.173300 0.979700
vn -0.192900 -0.334100 0.922600
vn -0.381100 -0.660200 0.647200
vn -0.500000 -0.866000 0.000000
vn -0.423700 -0.733800 -0.530900
vn -0.361000 -0.625200 -0.691900
vn -0.173300 -0.100100 0.979700
vn -0.334100 -0.192900 0.922600
vn -0.660200 -0.381100 0.647200
vn -0.866000 -0.500000 0.000000
vn -0.733800 -0.423700 -0.530900
vn -0.625200 -0.361000 -0.691900
vn 0.000000 0.000000 1.000000
vn -1.000000 0.000000 0.000000
vn -0.864900 0.499400 0.049900
vn -0.499400 0.864900 0.049900
vn 0.000000 0.998700 0.049900
vn 0.499400 0.864900 0.049900
vn 0.864900 0.499400 0.049900
vn 0.998700 0.000000 0.049900
vn 0.864900 -0.499400 0.049900
vn 0.499400 -0.864900 0.049900
vn 0.000000 -0.998700 0.049900
vn -0.499400 -0.864900 0.049900
vn -0.864900 -0.499400 0.049900
vn -0.998700 0.000000 0.049900
vn 0.000000 0.000000 -1.000000
vn -0.185900 -0.322000 -0.928300
vn 0.371800 0.000000 -0.928300
vn -0.322000 0.185900 -0.928300
s 1
f 6/1/1 5/2/2 11/3/3
f 5/2/2 4/4/4 10/5/5
f 3/6/6 9/7/7 10/5/5
f 135/8/8 136/9/9 9/7/7
f 95/10/10 94/11/11 88/12/12
f 11/3/3 17/13/13 18/14/14
f 10/5/5 16/15/15 17/13/13
f 10/5/5 9/7/7 15/16/16
f 9/7/7 136/9/9 137/17/17
f 81/18/18 87/19/19 151/20/20
f 17/13/13 23/21/21 24/22/22
f 16/15/15 22/23/23 23/21/21
f 16/15/15 15/16/16 21/24/24
f 15/16/16 137/17/17 138/25/25
f 83/26/26 89/27/27 88/12/12
f 23/21/21 29/13/28 30/14/29
f 23/21/21 22/23/23 28/15/30
f 21/24/24 27/16/31 28/15/30
f 138/25/25 139/17/32 27/16/31
f 91/28/33 90/29/34 84/30/35
f 29/13/28 36/3/36 37/31/37
f 28/15/30 35/5/38 36/3/36
f 28/15/30 27/16/31 34/7/39
f 27/16/31 139/17/32 140/9/40
f 76/12/41 82/32/42 81/18/18
f 37/31/37 36/3/36 42/2/43
f 35/5/38 41/4/44 42/2/43
f 35/5/38 34/7/39 40/6/45
f 34/7/39 140/9/40 141/8/46
f 79/28/47 78/29/48 13/33/49
f 42/2/43 48/34/50 49/35/51
f 42/2/43 41/4/44 47/36/52
f 40/6/45 46/37/53 47/36/52
f 141/8/46 142/38/54 46/37/53
f 31/39/55 147/40/56 149/41/57
f 49/35/51 48/34/50 54/42/58
f 47/36/52 53/43/59 54/42/58
f 47/36/52 46/37/53 52/44/60
f 46/37/53 142/38/54 143/45/61
f 25/11/62 31/39/55 62/46/63
f 55/47/64 54/42/58 60/48/65
f 53/43/59 59/49/66 60/48/65
f 53/43/59 52/44/60 58/50/67
f 52/44/60 143/45/61 144/51/68
f 50/52/69 19/10/70 25/11/62
f 61/53/71 60/48/65 66/42/72
f 60/48/65 59/49/66 65/43/73
f 58/50/67 64/44/74 65/43/73
f 144/51/68 145/45/75 64/44/74
f 44/54/76 13/33/49 19/55/70
f 66/42/72 72/34/77 73/35/78
f 65/43/73 71/36/79 72/34/77
f 65/43/73 64/44/74 70/37/80
f 64/44/74 145/45/75 146/38/81
f 38/56/82 7/57/83 13/33/49
f 96/33/84 95/55/10 89/58/27
f 88/12/12 87/19/19 81/18/18
f 84/30/35 90/29/34 89/58/27
f 75/19/85 81/18/18 150/59/86
f 83/26/26 82/32/42 76/12/41
f 84/30/35 83/60/26 77/58/87
f 85/61/88 84/30/35 78/29/48
f 75/19/85 148/20/89 147/40/56
f 76/12/41 75/19/85 31/39/55
f 77/27/87 76/12/41 25/11/62
f 78/29/48 77/58/87 19/55/70
f 72/34/77 5/2/2 6/1/1
f 71/36/79 4/4/4 5/2/2
f 71/36/79 70/37/80 3/6/6
f 70/37/80 146/38/81 135/8/8
f 94/11/11 93/39/90 87/19/19
f 91/28/33 97/57/91 96/33/84
f 87/19/19 93/39/90 152/40/92
f 103/56/93 102/54/94 96/33/84
f 96/33/84 102/54/94 101/62/95
f 101/52/95 100/63/96 94/11/11
f 94/11/11 100/63/96 99/46/97
f 93/39/90 99/46/97 153/41/98
f 109/64/99 108/65/100 102/54/94
f 108/65/100 107/66/101 101/62/95
f 101/52/95 107/67/101 106/68/102
f 106/68/102 105/69/103 99/46/97
f 105/69/103 154/70/104 153/41/98
f 115/71/105 114/72/106 108/65/100
f 108/65/100 114/72/106 113/73/107
f 113/74/107 112/75/108 106/68/102
f 112/75/108 111/76/109 105/69/103
f 111/76/109 155/77/110 154/70/104
f 121/78/111 120/79/112 114/72/106
f 120/79/112 119/80/113 113/73/107
f 119/81/113 118/82/114 112/75/108
f 112/75/108 118/82/114 117/83/115
f 117/83/115 156/84/116 155/77/110
f 127/71/117 126/72/118 120/79/112
f 120/79/112 126/72/118 125/73/119
f 125/74/119 124/75/120 118/82/114
f 118/82/114 124/75/120 123/76/121
f 123/76/121 157/77/122 156/84/116
f 127/71/117 133/64/123 132/65/124
f 132/65/124 131/66/125 125/73/119
f 131/67/125 130/68/126 124/75/120
f 124/75/120 130/68/126 129/69/127
f 129/69/127 158/70/128 157/77/122
f 1/85/129 7/57/83 38/56/82
f 1/85/129 79/28/47 7/57/83
f 1/85/129 85/61/88 79/28/47
f 1/85/129 91/28/33 85/61/88
f 1/85/129 97/57/91 91/28/33
f 1/85/129 103/56/93 97/57/91
f 1/85/129 109/64/99 103/56/93
f 1/85/129 115/71/105 109/64/99
f 1/85/129 121/78/111 115/71/105
f 1/85/129 127/71/117 121/78/111
f 1/85/129 133/64/123 127/71/117
f 1/85/129 38/56/82 133/64/123
f 38/56/82 44/54/76 132/65/124
f 44/54/76 50/62/69 131/66/125
f 50/52/69 56/63/130 130/68/126
f 130/68/126 56/63/130 62/46/63
f 129/69/127 62/46/63 149/41/57
f 32/40/131 74/20/132 14/17/132
f 74/20/132 80/59/133 20/25/133
f 20/25/133 80/59/133 86/20/134
f 26/17/134 86/20/134 92/40/135
f 33/9/135 92/40/135 98/41/136
f 98/41/136 104/70/137 45/38/137
f 104/70/137 110/77/138 51/45/138
f 110/77/138 116/84/139 57/51/139
f 116/84/139 122/77/140 63/45/140
f 122/77/140 128/70/141 69/38/141
f 128/70/141 68/41/142 2/8/142
f 68/41/142 32/40/131 8/9/131
f 73/86/78 6/87/1 134/88/143
f 67/89/144 73/86/78 134/88/143
f 61/90/71 67/89/144 134/88/143
f 55/91/64 61/90/71 134/88/143
f 49/92/51 55/91/64 134/88/143
f 43/93/145 49/92/51 134/88/143
f 37/94/37 43/93/145 134/88/143
f 30/95/29 37/94/37 134/88/143
f 24/96/22 30/95/29 134/88/143
f 18/97/14 24/96/22 134/88/143
f 12/98/146 18/97/14 134/88/143
f 6/87/1 12/98/146 134/88/143
f 12/31/146 6/1/1 11/3/3
f 11/3/3 5/2/2 10/5/5
f 4/4/4 3/6/6 10/5/5
f 3/6/6 135/8/8 9/7/7
f 89/27/27 95/10/10 88/12/12
f 12/31/146 11/3/3 18/14/14
f 11/3/3 10/5/5 17/13/13
f 16/15/15 10/5/5 15/16/16
f 15/16/16 9/7/7 137/17/17
f 150/59/86 81/18/18 151/20/20
f 18/14/14 17/13/13 24/22/22
f 17/13/13 16/15/15 23/21/21
f 22/23/23 16/15/15 21/24/24
f 21/24/24 15/16/16 138/25/25
f 82/32/42 83/26/26 88/12/12
f 24/22/22 23/21/21 30/14/29
f 29/13/28 23/21/21 28/15/30
f 22/23/23 21/24/24 28/15/30
f 21/24/24 138/25/25 27/16/31
f 85/61/88 91/28/33 84/30/35
f 30/14/29 29/13/28 37/31/37
f 29/13/28 28/15/30 36/3/36
f 35/5/38 28/15/30 34/7/39
f 34/7/39 27/16/31 140/9/40
f 75/19/85 76/12/41 81/18/18
f 43/1/145 37/31/37 42/2/43
f 36/3/36 35/5/38 42/2/43
f 41/4/44 35/5/38 40/6/45
f 40/6/45 34/7/39 141/8/46
f 7/57/83 79/28/47 13/33/49
f 43/1/145 42/2/43 49/35/51
f 48/34/50 42/2/43 47/36/52
f 41/4/44 40/6/45 47/36/52
f 40/6/45 141/8/46 46/37/53
f 62/46/63 31/39/55 149/41/57
f 55/47/64 49/35/51 54/42/58
f 48/34/50 47/36/52 54/42/58
f 53/43/59 47/36/52 52/44/60
f 52/44/60 46/37/53 143/45/61
f 56/63/130 25/11/62 62/46/63
f 61/53/71 55/47/64 60/48/65
f 54/42/58 53/43/59 60/48/65
f 59/49/66 53/43/59 58/50/67
f 58/50/67 52/44/60 144/51/68
f 56/63/130 50/52/69 25/11/62
f 67/47/144 61/53/71 66/42/72
f 66/42/72 60/48/65 65/43/73
f 59/49/66 58/50/67 65/43/73
f 58/50/67 144/51/68 64/44/74
f 50/62/69 44/54/76 19/55/70
f 67/47/144 66/42/72 73/35/78
f 66/42/72 65/43/73 72/34/77
f 71/36/79 65/43/73 70/37/80
f 70/37/80 64/44/74 146/38/81
f 44/54/76 38/56/82 13/33/49
f 90/29/34 96/33/84 89/58/27
f 82/32/42 88/12/12 81/18/18
f 83/60/26 84/30/35 89/58/27
f 148/20/89 75/19/85 150/59/86
f 77/27/87 83/26/26 76/12/41
f 78/29/48 84/30/35 77/58/87
f 79/28/47 85/61/88 78/29/48
f 31/39/55 75/19/85 147/40/56
f 25/11/62 76/12/41 31/39/55
f 19/10/70 77/27/87 25/11/62
f 13/33/49 78/29/48 19/55/70
f 73/35/78 72/34/77 6/1/1
f 72/34/77 71/36/79 5/2/2
f 4/4/4 71/36/79 3/6/6
f 3/6/6 70/37/80 135/8/8
f 88/12/12 94/11/11 87/19/19
f 90/29/34 91/28/33 96/33/84
f 151/20/20 87/19/19 152/40/92
f 97/57/91 103/56/93 96/33/84
f 95/55/10 96/33/84 101/62/95
f 95/10/10 101/52/95 94/11/11
f 93/39/90 94/11/11 99/46/97
f 152/40/92 93/39/90 153/41/98
f 103/56/93 109/64/99 102/54/94
f 102/54/94 108/65/100 101/62/95
f 100/63/96 101/52/95 106/68/102
f 100/63/96 106/68/102 99/46/97
f 99/46/97 105/69/103 153/41/98
f 109/64/99 115/71/105 108/65/100
f 107/66/101 108/65/100 113/73/107
f 107/67/101 113/74/107 106/68/102
f 106/68/102 112/75/108 105/69/103
f 105/69/103 111/76/109 154/70/104
f 115/71/105 121/78/111 114/72/106
f 114/72/106 120/79/112 113/73/107
f 113/74/107 119/81/113 112/75/108
f 111/76/109 112/75/108 117/83/115
f 111/76/109 117/83/115 155/77/110
f 121/78/111 127/71/117 120/79/112
f 119/80/113 120/79/112 125/73/119
f 119/81/113 125/74/119 118/82/114
f 117/83/115 118/82/114 123/76/121
f 117/83/115 123/76/121 156/84/116
f 126/72/118 127/71/117 132/65/124
f 126/72/118 132/65/124 125/73/119
f 125/74/119 131/67/125 124/75/120
f 123/76/121 124/75/120 129/69/127
f 123/76/121 129/69/127 157/77/122
f 133/64/123 38/56/82 132/65/124
f 132/65/124 44/54/76 131/66/125
f 131/67/125 50/52/69 130/68/126
f 129/69/127 130/68/126 62/46/63
f 158/70/128 129/69/127 149/41/57
f 8/9/131 32/40/131 14/17/132
f 14/17/132 74/20/132 20/25/133
f 26/17/134 20/25/133 86/20/134
f 33/9/135 26/17/134 92/40/135
f 39/8/136 33/9/135 98/41/136
f 39/8/136 98/41/136 45/38/137
f 45/38/137 104/70/137 51/45/138
f 51/45/138 110/77/138 57/51/139
f 57/51/139 116/84/139 63/45/140
f 63/45/140 122/77/140 69/38/141
f 69/38/141 128/70/141 2/8/142
f 2/8/142 68/41/142 8/9/131
