# Blender v2.76 (sub 0) OBJ File: 'g_energmine.blend'
# www.blender.org
v 0.040113 0.124923 -0.040113
v 0.074120 0.095612 -0.074120
v 0.096842 0.051745 -0.096842
v 0.104821 -0.000000 -0.104821
v 0.096842 -0.051745 -0.096842
v 0.074120 -0.095612 -0.074120
v 0.040113 -0.124923 -0.040113
v 0.052412 0.124923 -0.021708
v 0.096845 0.095612 -0.040111
v 0.126533 0.051745 -0.052407
v 0.136959 -0.000000 -0.056725
v 0.126533 -0.051745 -0.052407
v 0.096845 -0.095612 -0.040111
v 0.052412 -0.124923 -0.021708
v 0.056731 0.124923 0.000003
v 0.104826 0.095612 0.000005
v 0.136962 0.051745 0.000006
v 0.148246 -0.000000 0.000007
v 0.136962 -0.051745 0.000006
v 0.104826 -0.095612 0.000005
v 0.056731 -0.124923 0.000003
v 0.000000 -0.135216 -0.000000
v 0.052414 0.124923 0.021713
v 0.096848 0.095612 0.040120
v 0.126538 0.051745 0.052419
v 0.136964 -0.000000 0.056738
v 0.126538 -0.051745 0.052419
v 0.096848 -0.095612 0.040120
v 0.052414 -0.124923 0.021713
v 0.040117 0.124923 0.040117
v 0.074126 0.095612 0.074127
v 0.096851 0.051745 0.096851
v 0.104831 -0.000000 0.104831
v 0.096851 -0.051745 0.096851
v 0.074126 -0.095612 0.074127
v 0.040117 -0.124923 0.040117
v 0.021713 0.124923 0.052414
v 0.040120 0.095612 0.096848
v 0.052419 0.051745 0.126538
v 0.056738 -0.000000 0.136964
v 0.052419 -0.051745 0.126538
v 0.040120 -0.095612 0.096848
v 0.021713 -0.124923 0.052414
v 0.000000 0.135216 -0.000000
v 0.000003 0.124923 0.056731
v 0.000005 0.095612 0.104826
v 0.000006 0.051745 0.136961
v 0.000007 -0.000000 0.148246
v 0.000006 -0.051745 0.136961
v 0.000005 -0.095612 0.104826
v 0.000003 -0.124923 0.056731
v -0.021708 0.124923 0.052412
v -0.040111 0.095612 0.096844
v -0.052407 0.051745 0.126533
v -0.056725 -0.000000 0.136959
v -0.052407 -0.051745 0.126533
v -0.040111 -0.095612 0.096844
v -0.021708 -0.124923 0.052412
v -0.040113 0.124923 0.040113
v -0.074120 0.095612 0.074119
v -0.096842 0.051745 0.096842
v -0.104821 -0.000000 0.104821
v -0.096842 -0.051745 0.096842
v -0.074120 -0.095612 0.074119
v -0.040113 -0.124923 0.040113
v -0.052412 0.124923 0.021708
v -0.096844 0.095612 0.040110
v -0.126533 0.051745 0.052407
v -0.136959 -0.000000 0.056725
v -0.126533 -0.051745 0.052407
v -0.096844 -0.095612 0.040110
v -0.052412 -0.124923 0.021708
v -0.056731 0.124923 -0.000003
v -0.104826 0.095612 -0.000005
v -0.136961 0.051745 -0.000007
v -0.148246 -0.000000 -0.000007
v -0.136961 -0.051745 -0.000007
v -0.104826 -0.095612 -0.000005
v -0.056731 -0.124923 -0.000003
v -0.052414 0.124923 -0.021713
v -0.096848 0.095612 -0.040120
v -0.126538 0.051745 -0.052419
v -0.136964 -0.000000 -0.056738
v -0.126538 -0.051745 -0.052419
v -0.096848 -0.095612 -0.040120
v -0.052414 -0.124923 -0.021713
v -0.040117 0.124923 -0.040117
v -0.074126 0.095612 -0.074127
v -0.096851 0.051745 -0.096851
v -0.104831 -0.000000 -0.104831
v -0.096851 -0.051745 -0.096851
v -0.074126 -0.095612 -0.074127
v -0.040117 -0.124923 -0.040117
v -0.021713 0.124923 -0.052414
v -0.040120 0.095612 -0.096848
v -0.052419 0.051745 -0.126538
v -0.056738 -0.000000 -0.136964
v -0.052419 -0.051745 -0.126538
v -0.040120 -0.095612 -0.096848
v -0.021713 -0.124923 -0.052414
v -0.000003 0.124923 -0.056731
v -0.000005 0.095612 -0.104826
v -0.000006 0.051745 -0.136961
v -0.000007 -0.000000 -0.148246
v -0.000006 -0.051745 -0.136961
v -0.000005 -0.095612 -0.104826
v -0.000003 -0.124923 -0.056731
v 0.021708 0.124923 -0.052412
v 0.040111 0.095612 -0.096844
v 0.052407 0.051745 -0.126533
v 0.056725 -0.000000 -0.136959
v 0.052407 -0.051745 -0.126533
v 0.040111 -0.095612 -0.096844
v 0.021708 -0.124923 -0.052412
vt 0.406250 0.779050
vt 0.406250 0.827953
vt 0.446282 0.827953
vt 0.406250 0.460012
vt 0.480219 0.460012
vt 0.446282 0.411110
vt 0.406250 0.619531
vt 0.510857 0.619531
vt 0.502895 0.533200
vt 0.406250 0.705862
vt 0.480219 0.779050
vt 0.406250 0.533200
vt 0.502895 0.705862
vt 0.599539 0.619531
vt 0.584826 0.533200
vt 0.542926 0.779050
vt 0.542926 0.460012
vt 0.584826 0.705862
vt 0.480219 0.827953
vt 0.480219 0.411110
vt 0.639571 0.533200
vt 0.584826 0.460012
vt 0.639571 0.705862
vt 0.502895 0.827953
vt 0.502895 0.411110
vt 0.658795 0.619531
vt 0.584826 0.779050
vt 0.658795 0.705862
vt 0.510857 0.827953
vt 0.599539 0.460012
vt 0.510857 0.411110
vt 0.679603 0.619531
vt 0.658795 0.533200
vt 0.599539 0.779050
vt 0.332281 0.460012
vt 0.366218 0.411110
vt 0.301642 0.619531
vt 0.309605 0.533200
vt 0.332281 0.779050
vt 0.309605 0.705862
vt 0.366218 0.827953
vt 0.227674 0.533200
vt 0.269574 0.460012
vt 0.227674 0.705862
vt 0.332281 0.827953
vt 0.332281 0.411110
vt 0.212960 0.619531
vt 0.269574 0.779050
vt 0.172929 0.533200
vt 0.227674 0.460012
vt 0.172929 0.705862
vt 0.309605 0.827953
vt 0.309605 0.411110
vt 0.153705 0.619531
vt 0.227674 0.779050
vt 0.212961 0.460012
vt 0.301643 0.411110
vt 0.132898 0.619531
vt 0.153705 0.533200
vt 0.212961 0.779050
vt 0.153705 0.705862
vt 0.301643 0.827953
vt 0.406250 0.845125
vt 0.406250 0.393937
vt 0.406250 0.411110
vn 0.487300 0.724600 -0.487300
vn 0.265200 0.927000 -0.265200
vn 0.346500 0.927000 -0.143500
vn 0.487300 -0.724600 -0.487300
vn 0.636700 -0.724600 -0.263700
vn 0.346500 -0.927000 -0.143500
vn 0.707100 0.000000 -0.707100
vn 0.923900 0.000000 -0.382700
vn 0.846100 -0.401600 -0.350500
vn 0.647600 0.401600 -0.647600
vn 0.636700 0.724600 -0.263700
vn 0.647600 -0.401600 -0.647600
vn 0.846100 0.401600 -0.350500
vn 1.000000 0.000000 -0.000000
vn 0.915800 -0.401600 -0.000000
vn 0.689200 0.724600 -0.000000
vn 0.689200 -0.724600 -0.000000
vn 0.915800 0.401600 -0.000000
vn 0.375100 0.927000 0.000000
vn 0.375100 -0.927000 0.000000
vn 0.846100 -0.401600 0.350400
vn 0.636700 -0.724600 0.263700
vn 0.846100 0.401600 0.350400
vn 0.346500 0.927000 0.143500
vn 0.346500 -0.927000 0.143500
vn 0.923900 0.000000 0.382600
vn 0.636700 0.724600 0.263700
vn 0.647600 0.401600 0.647600
vn 0.265200 0.927000 0.265200
vn 0.487300 -0.724600 0.487300
vn 0.265200 -0.927000 0.265200
vn 0.707100 0.000000 0.707100
vn 0.647600 -0.401600 0.647600
vn 0.487300 0.724600 0.487300
vn 0.263700 -0.724600 0.636700
vn 0.382600 0.000000 0.923900
vn 0.263700 0.724600 0.636700
vn 0.350400 0.401600 0.846100
vn 0.350400 -0.401600 0.846100
vn 0.143500 0.927000 0.346500
vn -0.000000 0.724600 0.689200
vn -0.000000 0.401600 0.915800
vn -0.000000 -0.401600 0.915800
vn -0.000000 0.000000 1.000000
vn 0.000000 0.927000 0.375100
vn 0.143500 -0.927000 0.346500
vn -0.000000 -0.724600 0.689200
vn -0.350500 -0.401600 0.846100
vn -0.350500 0.401600 0.846100
vn -0.382700 0.000000 0.923900
vn -0.143500 0.927000 0.346500
vn -0.263700 0.724600 0.636700
vn 0.000000 -0.927000 0.375100
vn -0.263700 -0.724600 0.636700
vn -0.265200 0.927000 0.265200
vn -0.487300 0.724600 0.487300
vn -0.143500 -0.927000 0.346500
vn -0.487300 -0.724600 0.487300
vn -0.707100 0.000000 0.707100
vn -0.647600 0.401600 0.647600
vn -0.647600 -0.401600 0.647600
vn -0.636700 -0.724600 0.263700
vn -0.346500 -0.927000 0.143500
vn -0.923900 0.000000 0.382700
vn -0.846100 -0.401600 0.350500
vn -0.636700 0.724600 0.263700
vn -0.846100 0.401600 0.350500
vn -0.346500 0.927000 0.143500
vn -0.915800 -0.401600 0.000000
vn -0.689200 -0.724600 0.000000
vn -0.915800 0.401600 0.000000
vn -0.375100 0.927000 0.000000
vn -0.375100 -0.927000 0.000000
vn -1.000000 0.000000 0.000000
vn -0.689200 0.724600 0.000000
vn -0.846100 -0.401600 -0.350400
vn -0.636700 -0.724600 -0.263700
vn -0.846100 0.401600 -0.350400
vn -0.346500 0.927000 -0.143500
vn -0.346500 -0.927000 -0.143500
vn -0.923900 0.000000 -0.382600
vn -0.636700 0.724600 -0.263700
vn -0.487300 -0.724600 -0.487300
vn -0.265200 -0.927000 -0.265200
vn -0.707100 0.000000 -0.707100
vn -0.647600 -0.401600 -0.647600
vn -0.487300 0.724600 -0.487300
vn -0.647600 0.401600 -0.647600
vn -0.265200 0.927000 -0.265200
vn -0.382600 0.000000 -0.923900
vn -0.263700 0.724600 -0.636700
vn -0.350400 0.401600 -0.846100
vn -0.350400 -0.401600 -0.846100
vn -0.143500 0.927000 -0.346500
vn -0.263700 -0.724600 -0.636700
vn 0.000000 -0.401600 -0.915800
vn 0.000000 0.401600 -0.915800
vn 0.000000 0.000000 -1.000000
vn 0.000000 0.927000 -0.375100
vn 0.000000 0.724600 -0.689200
vn -0.143500 -0.927000 -0.346500
vn 0.000000 -0.724600 -0.689200
vn 0.350500 0.401600 -0.846100
vn 0.382700 0.000000 -0.923900
vn 0.143500 0.927000 -0.346500
vn 0.263700 0.724600 -0.636700
vn 0.000000 -0.927000 -0.375100
vn 0.263700 -0.724600 -0.636700
vn 0.350500 -0.401600 -0.846100
vn 0.000000 1.000000 0.000000
vn 0.000000 -1.000000 0.000000
vn 0.265200 -0.927000 -0.265200
vn -0.265200 -0.927000 0.265200
vn 0.143500 -0.927000 -0.346500
s 1
f 2/1/1 1/2/2 8/3/3
f 6/4/4 13/5/5 14/6/6
f 4/7/7 11/8/8 12/9/9
f 3/10/10 2/1/1 9/11/11
f 5/12/12 12/9/9 13/5/5
f 4/7/7 3/10/10 10/13/13
f 11/8/8 18/14/14 19/15/15
f 10/13/13 9/11/11 16/16/16
f 12/9/9 19/15/15 20/17/17
f 11/8/8 10/13/13 17/18/18
f 9/11/11 8/3/3 15/19/19
f 13/5/5 20/17/17 21/20/20
f 19/15/15 27/21/21 28/22/22
f 18/14/14 17/18/18 25/23/23
f 16/16/16 15/19/19 23/24/24
f 20/17/17 28/22/22 29/25/25
f 18/14/14 26/26/26 27/21/21
f 17/18/18 16/16/16 24/27/27
f 26/26/26 25/23/23 32/28/28
f 24/27/27 23/24/24 30/29/29
f 28/22/22 35/30/30 36/31/31
f 26/26/26 33/32/32 34/33/33
f 25/23/23 24/27/27 31/34/34
f 27/21/21 34/33/33 35/30/30
f 36/31/31 35/30/30 42/22/35
f 34/33/33 33/32/32 40/26/36
f 31/34/34 38/27/37 39/23/38
f 35/30/30 34/33/33 41/21/39
f 32/28/28 39/23/38 40/26/36
f 30/29/29 37/24/40 38/27/37
f 38/27/37 46/16/41 47/18/42
f 42/22/35 41/21/39 49/15/43
f 39/23/38 47/18/42 48/14/44
f 37/24/40 45/19/45 46/16/41
f 43/25/46 42/22/35 50/17/47
f 41/21/39 40/26/36 48/14/44
f 50/17/47 49/15/43 56/9/48
f 47/18/42 54/13/49 55/8/50
f 45/19/45 52/3/51 53/11/52
f 51/20/53 50/17/47 57/5/54
f 49/15/43 48/14/44 55/8/50
f 46/16/41 53/11/52 54/13/49
f 52/3/51 59/2/55 60/1/56
f 58/6/57 57/5/54 64/4/58
f 56/9/48 55/8/50 62/7/59
f 53/11/52 60/1/56 61/10/60
f 57/5/54 56/9/48 63/12/61
f 54/13/49 61/10/60 62/7/59
f 64/4/58 71/35/62 72/36/63
f 62/7/59 69/37/64 70/38/65
f 61/10/60 60/1/56 67/39/66
f 63/12/61 70/38/65 71/35/62
f 62/7/59 61/10/60 68/40/67
f 60/1/56 59/2/55 66/41/68
f 70/38/65 77/42/69 78/43/70
f 69/37/64 68/40/67 75/44/71
f 67/39/66 66/41/68 73/45/72
f 71/35/62 78/43/70 79/46/73
f 69/37/64 76/47/74 77/42/69
f 68/40/67 67/39/66 74/48/75
f 77/42/69 84/49/76 85/50/77
f 76/47/74 75/44/71 82/51/78
f 74/48/75 73/45/72 80/52/79
f 78/43/70 85/50/77 86/53/80
f 76/47/74 83/54/81 84/49/76
f 75/44/71 74/48/75 81/55/82
f 85/50/77 92/56/83 93/57/84
f 83/54/81 90/58/85 91/59/86
f 82/51/78 81/55/82 88/60/87
f 84/49/76 91/59/86 92/56/83
f 83/54/81 82/51/78 89/61/88
f 81/55/82 80/52/79 87/62/89
f 91/59/86 90/58/85 97/54/90
f 88/60/87 95/55/91 96/51/92
f 92/56/83 91/59/86 98/49/93
f 89/61/88 96/51/92 97/54/90
f 87/62/89 94/52/94 95/55/91
f 93/57/84 92/56/83 99/50/95
f 99/50/95 98/49/93 105/42/96
f 96/51/92 103/44/97 104/47/98
f 94/52/94 101/45/99 102/48/100
f 100/53/101 99/50/95 106/43/102
f 98/49/93 97/54/90 104/47/98
f 95/55/91 102/48/100 103/44/97
f 103/44/97 110/40/103 111/37/104
f 101/45/99 108/41/105 109/39/106
f 107/46/107 106/43/102 113/35/108
f 105/42/96 104/47/98 111/37/104
f 102/48/100 109/39/106 110/40/103
f 106/43/102 105/42/96 112/38/109
f 1/2/2 44/63/110 8/3/3
f 22/64/111 7/65/112 14/6/6
f 8/3/3 44/63/110 15/19/19
f 22/64/111 14/6/6 21/20/20
f 22/64/111 21/20/20 29/25/25
f 15/19/19 44/63/110 23/24/24
f 23/24/24 44/63/110 30/29/29
f 22/64/111 29/25/25 36/31/31
f 30/29/29 44/63/110 37/24/40
f 22/64/111 36/31/31 43/25/46
f 37/24/40 44/63/110 45/19/45
f 22/64/111 43/25/46 51/20/53
f 22/64/111 51/20/53 58/6/57
f 45/19/45 44/63/110 52/3/51
f 52/3/51 44/63/110 59/2/55
f 22/64/111 58/6/57 65/65/113
f 59/2/55 44/63/110 66/41/68
f 22/64/111 65/65/113 72/36/63
f 66/41/68 44/63/110 73/45/72
f 22/64/111 72/36/63 79/46/73
f 73/45/72 44/63/110 80/52/79
f 22/64/111 79/46/73 86/53/80
f 80/52/79 44/63/110 87/62/89
f 22/64/111 86/53/80 93/57/84
f 87/62/89 44/63/110 94/52/94
f 22/64/111 93/57/84 100/53/101
f 22/64/111 100/53/101 107/46/107
f 94/52/94 44/63/110 101/45/99
f 101/45/99 44/63/110 108/41/105
f 22/64/111 107/46/107 114/36/114
f 114/36/114 113/35/108 6/4/4
f 112/38/109 111/37/104 4/7/7
f 109/39/106 2/1/1 3/10/10
f 108/41/105 44/63/110 1/2/2
f 22/64/111 114/36/114 7/65/112
f 113/35/108 112/38/109 5/12/12
f 110/40/103 3/10/10 4/7/7
f 108/41/105 1/2/2 2/1/1
f 9/11/11 2/1/1 8/3/3
f 7/65/112 6/4/4 14/6/6
f 5/12/12 4/7/7 12/9/9
f 10/13/13 3/10/10 9/11/11
f 6/4/4 5/12/12 13/5/5
f 11/8/8 4/7/7 10/13/13
f 12/9/9 11/8/8 19/15/15
f 17/18/18 10/13/13 16/16/16
f 13/5/5 12/9/9 20/17/17
f 18/14/14 11/8/8 17/18/18
f 16/16/16 9/11/11 15/19/19
f 14/6/6 13/5/5 21/20/20
f 20/17/17 19/15/15 28/22/22
f 26/26/26 18/14/14 25/23/23
f 24/27/27 16/16/16 23/24/24
f 21/20/20 20/17/17 29/25/25
f 19/15/15 18/14/14 27/21/21
f 25/23/23 17/18/18 24/27/27
f 33/32/32 26/26/26 32/28/28
f 31/34/34 24/27/27 30/29/29
f 29/25/25 28/22/22 36/31/31
f 27/21/21 26/26/26 34/33/33
f 32/28/28 25/23/23 31/34/34
f 28/22/22 27/21/21 35/30/30
f 43/25/46 36/31/31 42/22/35
f 41/21/39 34/33/33 40/26/36
f 32/28/28 31/34/34 39/23/38
f 42/22/35 35/30/30 41/21/39
f 33/32/32 32/28/28 40/26/36
f 31/34/34 30/29/29 38/27/37
f 39/23/38 38/27/37 47/18/42
f 50/17/47 42/22/35 49/15/43
f 40/26/36 39/23/38 48/14/44
f 38/27/37 37/24/40 46/16/41
f 51/20/53 43/25/46 50/17/47
f 49/15/43 41/21/39 48/14/44
f 57/5/54 50/17/47 56/9/48
f 48/14/44 47/18/42 55/8/50
f 46/16/41 45/19/45 53/11/52
f 58/6/57 51/20/53 57/5/54
f 56/9/48 49/15/43 55/8/50
f 47/18/42 46/16/41 54/13/49
f 53/11/52 52/3/51 60/1/56
f 65/65/113 58/6/57 64/4/58
f 63/12/61 56/9/48 62/7/59
f 54/13/49 53/11/52 61/10/60
f 64/4/58 57/5/54 63/12/61
f 55/8/50 54/13/49 62/7/59
f 65/65/113 64/4/58 72/36/63
f 63/12/61 62/7/59 70/38/65
f 68/40/67 61/10/60 67/39/66
f 64/4/58 63/12/61 71/35/62
f 69/37/64 62/7/59 68/40/67
f 67/39/66 60/1/56 66/41/68
f 71/35/62 70/38/65 78/43/70
f 76/47/74 69/37/64 75/44/71
f 74/48/75 67/39/66 73/45/72
f 72/36/63 71/35/62 79/46/73
f 70/38/65 69/37/64 77/42/69
f 75/44/71 68/40/67 74/48/75
f 78/43/70 77/42/69 85/50/77
f 83/54/81 76/47/74 82/51/78
f 81/55/82 74/48/75 80/52/79
f 79/46/73 78/43/70 86/53/80
f 77/42/69 76/47/74 84/49/76
f 82/51/78 75/44/71 81/55/82
f 86/53/80 85/50/77 93/57/84
f 84/49/76 83/54/81 91/59/86
f 89/61/88 82/51/78 88/60/87
f 85/50/77 84/49/76 92/56/83
f 90/58/85 83/54/81 89/61/88
f 88/60/87 81/55/82 87/62/89
f 98/49/93 91/59/86 97/54/90
f 89/61/88 88/60/87 96/51/92
f 99/50/95 92/56/83 98/49/93
f 90/58/85 89/61/88 97/54/90
f 88/60/87 87/62/89 95/55/91
f 100/53/101 93/57/84 99/50/95
f 106/43/102 99/50/95 105/42/96
f 97/54/90 96/51/92 104/47/98
f 95/55/91 94/52/94 102/48/100
f 107/46/107 100/53/101 106/43/102
f 105/42/96 98/49/93 104/47/98
f 96/51/92 95/55/91 103/44/97
f 104/47/98 103/44/97 111/37/104
f 102/48/100 101/45/99 109/39/106
f 114/36/114 107/46/107 113/35/108
f 112/38/109 105/42/96 111/37/104
f 103/44/97 102/48/100 110/40/103
f 113/35/108 106/43/102 112/38/109
f 7/65/112 114/36/114 6/4/4
f 5/12/12 112/38/109 4/7/7
f 110/40/103 109/39/106 3/10/10
f 6/4/4 113/35/108 5/12/12
f 111/37/104 110/40/103 4/7/7
f 109/39/106 108/41/105 2/1/1
v 0.159473 0.000000 0.013699
v 0.147822 0.052350 0.013699
v 0.112868 0.104699 0.013699
v 0.147822 0.052350 -0.013699
v 0.159473 0.000000 -0.013699
v 0.147822 -0.052350 0.013699
v 0.147857 0.000000 0.014400
v 0.137221 0.045198 0.014400
v 0.054937 0.133487 0.013336
v 0.112868 0.104699 -0.013699
v 0.104439 0.091637 0.014400
v 0.147857 0.000000 -0.014400
v 0.137221 0.045198 -0.014400
v 0.147822 -0.052350 -0.013699
v 0.112868 -0.104699 0.013699
v 0.137221 -0.045198 0.014400
v 0.013303 0.141248 0.013303
v 0.054937 0.133487 -0.013336
v 0.051512 0.120401 0.014400
v 0.104439 0.091637 -0.014400
v 0.137221 -0.045198 -0.014400
v 0.112868 -0.104699 -0.013699
v 0.054937 -0.133487 0.013336
v 0.104439 -0.091637 0.014400
v 0.013303 0.141248 -0.013303
v 0.014400 0.127124 0.014400
v -0.000000 0.129733 0.014400
v 0.051512 0.120401 -0.014400
v 0.104439 -0.091637 -0.014400
v 0.054937 -0.133487 -0.013336
v 0.013303 -0.141248 0.013303
v 0.051512 -0.120401 0.014400
v 0.014400 0.127124 -0.014400
v -0.000000 0.129733 -0.014400
v -0.000000 0.129733 0.000000
v -0.051512 0.120401 0.014400
v -0.054937 0.133487 0.013336
v -0.013303 0.141248 0.013303
v 0.051512 -0.120401 -0.014400
v 0.013303 -0.141248 -0.013303
v -0.014400 0.127124 0.014400
v -0.014400 0.127124 -0.014400
v -0.051512 0.120401 -0.014400
v -0.104439 0.091637 0.014400
v -0.112868 0.104699 0.013699
v 0.014400 -0.127124 -0.014400
v -0.000000 -0.129733 0.000000
v -0.013303 0.141248 -0.013303
v -0.054937 0.133487 -0.013336
v -0.104439 0.091637 -0.014400
v -0.137221 0.045198 0.014400
v -0.147822 0.052350 0.013699
v -0.112868 0.104699 -0.013699
v -0.137221 0.045198 -0.014400
v -0.147857 0.000000 0.014400
v -0.159473 0.000000 0.013699
v -0.147822 0.052350 -0.013699
v -0.147857 0.000000 -0.014400
v -0.137221 -0.045198 0.014400
v -0.147822 -0.052350 0.013699
v -0.013303 -0.141248 -0.013303
v -0.014400 -0.127124 -0.014400
v -0.051512 -0.120401 0.014400
v -0.051512 -0.120401 -0.014400
v -0.159473 0.000000 -0.013699
v -0.137221 -0.045198 -0.014400
v -0.104439 -0.091637 0.014400
v -0.112868 -0.104699 0.013699
v -0.013303 -0.141248 0.013303
v -0.054937 -0.133487 0.013336
v -0.104439 -0.091637 -0.014400
v -0.054937 -0.133487 -0.013336
v -0.147822 -0.052350 -0.013699
v -0.112868 -0.104699 -0.013699
v -0.014400 -0.127124 0.014400
v 0.014400 -0.127124 0.014400
v 0.014400 0.120401 0.051512
v 0.014400 0.091637 0.104439
v 0.014400 0.045198 0.137221
v 0.014400 0.000000 0.147857
v 0.014400 -0.091637 0.104439
v 0.014400 -0.120401 0.051512
v 0.014400 -0.120401 -0.051512
v 0.014400 -0.045198 -0.137221
v 0.014400 0.000000 -0.147857
v -0.014400 0.000000 0.147857
v -0.014400 -0.045198 0.137221
v -0.014400 -0.091637 0.104439
v -0.014400 -0.120401 0.051512
v -0.014400 -0.120401 -0.051512
v -0.014400 -0.091637 -0.104439
v -0.014400 -0.045198 -0.137221
v -0.014400 0.000000 -0.147857
v -0.014400 0.045198 -0.137221
v -0.014400 0.091637 -0.104439
v -0.014400 0.120401 -0.051512
v 0.013303 0.000000 -0.159834
v 0.013303 0.050837 -0.148156
v 0.013303 0.101674 -0.113123
v -0.013303 0.050837 -0.148156
v -0.013303 0.000000 -0.159834
v 0.013303 -0.050837 -0.148156
v 0.014400 0.045198 -0.137221
v 0.013303 0.133162 -0.057939
v -0.013303 0.101674 -0.113123
v 0.014400 0.091637 -0.104439
v -0.013303 -0.050837 -0.148156
v 0.013303 -0.101674 -0.113123
v -0.013303 0.133162 -0.057939
v 0.014400 0.120401 -0.051512
v -0.013303 -0.101674 -0.113123
v 0.013303 -0.133162 -0.057939
v 0.014400 -0.091637 -0.104439
v -0.013303 -0.133162 -0.057939
v 0.013303 -0.133162 0.057939
v -0.013303 -0.133162 0.057939
v 0.013303 -0.101674 0.113123
v -0.013303 -0.101674 0.113123
v 0.013303 -0.050837 0.148156
v -0.013303 -0.050837 0.148156
v 0.013303 0.000000 0.159834
v 0.014400 -0.045198 0.137221
v -0.013303 0.000000 0.159834
v 0.013303 0.050837 0.148156
v -0.013303 0.050837 0.148156
v 0.013303 0.101674 0.113123
v -0.014400 0.045198 0.137221
v -0.013303 0.101674 0.113123
v 0.013303 0.133162 0.057939
v -0.014400 0.091637 0.104439
v -0.013303 0.133162 0.057939
v -0.014400 0.120401 0.051512
v -0.014400 0.129733 0.000000
v 0.147822 0.052350 0.013699
v 0.159473 0.000000 0.013699
v 0.112868 0.104699 -0.013699
v 0.147822 0.052350 -0.013699
v 0.137221 0.045198 0.014400
v 0.104439 0.091637 0.014400
v 0.112868 0.104699 0.013699
v 0.159473 0.000000 -0.013699
v 0.137221 0.045198 -0.014400
v 0.147857 0.000000 -0.014400
v 0.147822 -0.052350 0.013699
v 0.147857 0.000000 0.014400
v 0.054937 0.133487 0.013336
v 0.013303 0.141248 0.013303
v 0.013303 0.141248 0.013303
v 0.104439 0.091637 -0.014400
v 0.147822 -0.052350 -0.013699
v 0.112868 -0.104699 -0.013699
v 0.112868 -0.104699 0.013699
v 0.137221 -0.045198 -0.014400
v 0.137221 -0.045198 0.014400
v 0.013303 0.141248 -0.013303
v 0.013303 0.141248 -0.013303
v 0.054937 0.133487 -0.013336
v 0.051512 0.120401 -0.014400
v 0.051512 0.120401 0.014400
v 0.104439 -0.091637 -0.014400
v 0.054937 -0.133487 -0.013336
v 0.013303 -0.141248 0.013303
v 0.013303 -0.141248 0.013303
v 0.054937 -0.133487 0.013336
v 0.051512 -0.120401 0.014400
v 0.104439 -0.091637 0.014400
v 0.051512 -0.120401 -0.014400
v -0.014400 0.127124 -0.014400
v -0.014400 0.127124 -0.014400
v -0.051512 0.120401 -0.014400
v -0.051512 0.120401 0.014400
v -0.104439 0.091637 0.014400
v 0.013303 -0.141248 -0.013303
v 0.013303 -0.141248 -0.013303
v 0.014400 -0.127124 -0.014400
v 0.014400 -0.127124 -0.014400
v -0.137221 0.045198 0.014400
v -0.054937 0.133487 0.013336
v -0.112868 0.104699 0.013699
v -0.054937 0.133487 -0.013336
v -0.013303 0.141248 -0.013303
v -0.013303 0.141248 -0.013303
v -0.104439 0.091637 -0.014400
v -0.137221 0.045198 -0.014400
v -0.147857 0.000000 0.014400
v -0.159473 0.000000 0.013699
v -0.147822 0.052350 0.013699
v -0.112868 0.104699 -0.013699
v -0.147822 0.052350 -0.013699
v -0.159473 0.000000 -0.013699
v -0.147857 0.000000 -0.014400
v -0.137221 -0.045198 0.014400
v -0.112868 -0.104699 0.013699
v -0.147822 -0.052350 0.013699
v -0.104439 -0.091637 -0.014400
v -0.051512 -0.120401 -0.014400
v -0.051512 -0.120401 0.014400
v -0.104439 -0.091637 0.014400
v -0.054937 -0.133487 -0.013336
v -0.013303 -0.141248 -0.013303
v -0.013303 -0.141248 -0.013303
v -0.147822 -0.052350 -0.013699
v -0.137221 -0.045198 -0.014400
v -0.054937 -0.133487 0.013336
v -0.013303 -0.141248 0.013303
v -0.013303 -0.141248 0.013303
v -0.112868 -0.104699 -0.013699
v 0.013303 -0.133162 0.057939
v -0.013303 -0.133162 0.057939
v 0.013303 -0.101674 0.113123
v -0.013303 -0.101674 0.113123
v 0.013303 -0.050837 0.148156
v -0.013303 -0.050837 0.148156
v 0.013303 0.000000 0.159834
v -0.013303 0.000000 0.159834
v 0.013303 0.050837 0.148156
v -0.013303 0.050837 0.148156
v 0.013303 0.101674 0.113123
v -0.013303 0.101674 0.113123
v 0.013303 0.133162 0.057939
v -0.014400 0.045198 0.137221
v -0.014400 0.091637 0.104439
v -0.013303 0.133162 0.057939
v -0.014400 0.120401 0.051512
v -0.013303 0.141248 0.013303
v -0.013303 0.141248 0.013303
v -0.014400 -0.127124 -0.014400
v -0.014400 -0.127124 -0.014400
v 0.014400 -0.120401 0.051512
v 0.014400 -0.127124 0.014400
v 0.014400 -0.127124 0.014400
v 0.014400 -0.045198 -0.137221
v 0.014400 0.000000 -0.147857
v -0.014400 -0.045198 0.137221
v -0.014400 0.000000 0.147857
v -0.014400 -0.091637 0.104439
v -0.014400 -0.120401 0.051512
v -0.014400 -0.127124 0.014400
v -0.014400 -0.127124 0.014400
v -0.014400 0.000000 -0.147857
v -0.014400 -0.045198 -0.137221
v -0.014400 0.120401 -0.051512
v -0.014400 0.091637 -0.104439
v 0.013303 0.000000 -0.159834
v 0.013303 0.050837 -0.148156
v 0.013303 0.101674 -0.113123
v -0.013303 0.000000 -0.159834
v -0.013303 0.050837 -0.148156
v 0.013303 -0.101674 -0.113123
v 0.013303 -0.050837 -0.148156
v 0.013303 0.133162 -0.057939
v -0.013303 0.133162 -0.057939
v -0.013303 0.101674 -0.113123
v 0.014400 0.091637 -0.104439
v 0.014400 0.120401 -0.051512
v 0.014400 0.045198 -0.137221
v -0.013303 -0.050837 -0.148156
v -0.013303 -0.101674 -0.113123
v 0.013303 -0.133162 -0.057939
v -0.013303 -0.133162 -0.057939
v -0.014400 0.127124 0.014400
v -0.014400 0.127124 0.014400
v 0.014400 0.127124 0.014400
v 0.014400 0.127124 0.014400
v 0.014400 0.127124 -0.014400
v 0.014400 0.127124 -0.014400
v 0.014400 -0.091637 0.104439
v 0.014400 -0.045198 0.137221
v 0.014400 0.000000 0.147857
v 0.014400 0.045198 0.137221
v 0.014400 0.091637 0.104439
v 0.014400 0.120401 0.051512
v 0.014400 -0.120401 -0.051512
v 0.014400 -0.091637 -0.104439
v -0.014400 -0.120401 -0.051512
v -0.014400 -0.091637 -0.104439
v -0.014400 0.045198 -0.137221
vt 0.886510 0.459374
vt 0.886510 0.323062
vt 0.931155 0.323062
vt 0.881895 0.146823
vt 0.881895 0.035965
vt 0.930605 0.035965
vt 0.889377 0.459374
vt 0.889377 0.323062
vt 0.909206 0.106134
vt 0.902425 0.113031
vt 0.889878 0.092427
vt 0.931155 0.540626
vt 0.931155 0.676938
vt 0.886510 0.676938
vt 0.906856 0.101067
vt 0.896502 0.084066
vt 0.887957 0.087665
vt 0.883868 0.067520
vt 0.887957 0.047374
vt 0.896502 0.050973
vt 0.881895 1.000000
vt 0.930605 1.000000
vt 0.930605 0.964035
vt 0.895182 0.071824
vt 0.885696 0.071824
vt 0.898617 0.054901
vt 0.979455 0.107810
vt 0.959648 0.120288
vt 0.956109 0.111597
vt 0.900226 0.107810
vt 0.938290 0.024227
vt 0.926302 0.026744
vt 0.938290 0.014578
vt 0.983179 0.084066
vt 0.991724 0.087665
vt 0.995813 0.067520
vt 0.951385 0.540626
vt 0.951385 0.676938
vt 0.987265 0.088747
vt 0.996004 0.092427
vt 0.976676 0.106134
vt 0.972825 0.101067
vt 0.932669 0.000000
vt 0.884311 0.000000
vt 0.884311 0.035965
vt 0.881895 -0.000000
vt 0.930605 0.000000
vt 0.930605 0.146823
vt 0.930605 0.325803
vt 0.906856 0.033972
vt 0.900226 0.027229
vt 0.996004 0.051220
vt 0.987265 0.054901
vt 1.000186 0.071824
vt 0.956109 0.023442
vt 0.959648 0.014751
vt 0.979455 0.027229
vt 0.932669 0.146823
vt 0.884311 0.146823
vt 0.884311 0.325803
vt 0.972825 0.033972
vt 0.881895 0.674197
vt 0.930605 0.674197
vt 0.930605 0.853177
vt 0.923572 0.111597
vt 0.920033 0.120288
vt 0.948030 0.963469
vt 0.948030 1.000000
vt 0.992674 1.000000
vt 0.886510 0.146124
vt 0.931155 0.146124
vt 0.932669 0.035965
vt 0.893143 0.067520
vt 0.889377 0.146124
vt 0.951385 0.459374
vt 0.951385 0.323062
vt 0.983456 0.113031
vt 0.963199 0.125792
vt 0.947592 0.014578
vt 0.963199 0.017855
vt 0.959580 0.026744
vt 0.983179 0.050973
vt 0.986538 0.067520
vt 0.886510 1.000000
vt 0.886510 0.963469
vt 0.931155 0.963469
vt 0.932669 0.964035
vt 0.932669 1.000000
vt 0.884311 0.964035
vt 0.991724 0.047374
vt 0.881895 0.964035
vt 0.881895 0.853177
vt 0.920033 0.014751
vt 0.923572 0.023442
vt 0.909206 0.037513
vt 0.922683 0.017855
vt 0.992675 0.323062
vt 0.992675 0.146124
vt 0.948030 0.146124
vt 0.898617 0.088747
vt 0.948030 0.323062
vt 0.992675 0.459374
vt 0.951385 0.853876
vt 0.884311 1.000000
vt 0.951385 0.963469
vt 0.884311 0.451304
vt 0.932669 0.325803
vt 0.932669 0.451304
vt 0.889377 0.036531
vt 0.951385 0.000000
vt 0.951385 0.036531
vt 0.931155 0.036531
vt 0.886510 0.036531
vt 0.931155 0.000000
vt 0.889377 0.853876
vt 0.889377 0.963469
vt 0.886510 0.853876
vt 0.931155 0.853876
vt 0.889878 0.051220
vt 0.902425 0.030617
vt 0.922683 0.125792
vt 0.932669 0.548696
vt 0.908490 0.500000
vt 0.889377 0.000000
vt 0.959580 0.116904
vt 0.947592 0.129069
vt 0.889377 1.000000
vt 0.947592 0.119421
vt 0.976676 0.037513
vt 0.935293 0.020981
vt 0.935293 0.011547
vt 0.983456 0.030617
vt 0.948030 0.676938
vt 0.992675 0.676938
vt 0.992675 0.540626
vt 0.951385 0.146124
vt 0.931155 0.459374
vt 0.886510 0.540626
vt 0.908490 0.451304
vt 0.906250 0.548696
vt 0.881895 0.548696
vt 0.930605 0.548696
vt 0.884311 0.853177
vt 0.944388 0.114059
vt 0.944388 0.123492
vt 0.886510 0.000000
vt 0.932669 0.853177
vt 0.935293 0.114059
vt 0.938290 0.129069
vt 0.926302 0.116904
vt 0.881895 0.325803
vt 0.930605 0.451304
vt 0.935293 0.123492
vt 0.944388 0.020981
vt 0.944388 0.011547
vt 0.948030 0.036531
vt 0.992675 0.036531
vt 0.948030 0.000000
vt 0.948030 0.853876
vt 0.992675 0.853876
vt 0.990700 0.071824
vt 0.938290 0.119421
vt 0.884311 0.548696
vt 0.908490 0.548696
vt 0.884311 0.500000
vt 0.951385 1.000000
vt 0.889377 0.676938
vt 0.932669 0.674197
vt 0.884311 0.674197
vt 0.889377 0.540626
vt 0.948030 0.459374
vt 0.948030 0.540626
vt 0.992675 0.000000
vt 0.992674 0.963469
vt 0.931155 1.000000
vt 0.881895 0.451304
vt 0.947592 0.024227
vt 0.948518 0.540626
vt 0.993163 0.540626
vt 0.993163 0.459374
vt 0.948518 0.459374
vn 0.061600 0.996300 0.059800
vn 0.317400 0.948300 0.000000
vn -0.664600 0.747200 0.000000
vn -0.911900 0.410400 0.000000
vn 0.061600 0.996300 -0.059800
vn 0.000000 0.939800 -0.341800
vn 0.996600 0.060300 0.055800
vn 0.996600 0.060900 0.055500
vn 0.996100 0.036500 0.080700
vn -0.061600 0.996300 -0.059800
vn -0.317400 0.948300 0.000000
vn -0.032300 0.033200 -0.998900
vn -0.051900 0.021300 -0.998400
vn -0.049800 0.023100 -0.998500
vn -0.051900 0.021300 0.998400
vn -0.049800 0.023100 0.998500
vn -0.059700 0.000000 0.998200
vn -0.049800 -0.023100 0.998500
vn -0.051900 -0.021300 0.998400
vn 1.000000 0.000000 0.000000
vn 0.911900 -0.410400 0.000000
vn 0.995800 0.000000 0.091200
vn 0.995800 0.000000 0.090900
vn 0.996000 -0.035700 0.081600
vn 0.030800 0.036900 0.998800
vn 0.021700 0.075500 0.996900
vn 0.021800 0.072800 0.997100
vn -0.032300 0.033200 0.998900
vn -0.030800 0.036900 0.998800
vn 0.996800 -0.078500 0.014200
vn 0.997000 -0.073300 0.024600
vn 0.051900 0.021300 -0.998400
vn 0.049800 0.023100 -0.998500
vn 0.059700 0.000000 -0.998200
vn -0.061600 -0.996300 0.059800
vn 0.061600 -0.996300 0.059800
vn 0.000000 -0.939800 0.341800
vn 0.996000 0.035700 -0.081600
vn 0.996100 0.036500 -0.080700
vn 0.996600 0.060300 -0.055800
vn 0.032300 0.033200 -0.998900
vn 0.030800 0.036900 -0.998800
vn 0.000000 0.000000 -1.000000
vn 0.000000 -0.410400 -0.911900
vn -1.000000 0.000000 0.000000
vn 0.021800 0.072800 -0.997100
vn 0.021700 0.075500 -0.996900
vn -0.332100 0.943200 0.000000
vn -0.032300 -0.033200 -0.998900
vn -0.030800 -0.036900 -0.998800
vn -0.049800 -0.023100 -0.998500
vn -0.996100 -0.036500 -0.080700
vn -0.996000 -0.035700 -0.081600
vn -0.995800 0.000000 -0.090900
vn 0.021800 -0.072800 0.997100
vn 0.021700 -0.075500 0.996900
vn 0.030800 -0.036900 0.998800
vn 0.000000 -0.747200 -0.664600
vn 0.020600 -0.934100 -0.356300
vn 0.021800 -0.072800 -0.997100
vn 0.032300 -0.033200 -0.998900
vn 0.030800 -0.036900 -0.998800
vn 0.332100 0.943200 0.000000
vn 0.664600 0.747200 0.000000
vn -0.021800 0.072800 0.997100
vn -0.021700 0.075500 0.996900
vn -0.919500 -0.393000 0.000000
vn 0.049800 0.023100 0.998500
vn 0.032300 0.033200 0.998900
vn 0.660900 0.750400 0.000000
vn -0.021800 0.072800 -0.997100
vn -0.030800 0.036900 -0.998800
vn 0.000000 0.410400 -0.911900
vn 0.000000 0.747200 -0.664600
vn -0.060200 0.000000 -0.998200
vn -0.059700 0.000000 -0.998200
vn 0.000000 0.736400 -0.676500
vn 0.061600 -0.996300 -0.059800
vn -0.061600 -0.996300 -0.059800
vn 0.000000 -0.939800 -0.341800
vn 0.996600 0.060900 -0.055500
vn 0.997000 0.072800 -0.026700
vn 0.996800 -0.078500 -0.014200
vn 0.997000 -0.072800 -0.026700
vn 0.997000 -0.073300 -0.024600
vn 0.051900 -0.021300 -0.998400
vn 0.060200 0.000000 -0.998200
vn -0.919500 0.393000 0.000000
vn 0.000000 0.410400 0.911900
vn 0.000000 0.000000 1.000000
vn 0.059700 0.000000 0.998200
vn 0.051900 0.021300 0.998400
vn 0.049800 -0.023100 -0.998500
vn 0.911900 0.410400 0.000000
vn 0.664600 -0.747200 0.000000
vn 0.356300 -0.934100 0.020600
vn 0.051900 -0.021300 0.998400
vn 0.049800 -0.023100 0.998500
vn -0.030800 -0.036900 0.998800
vn -0.021700 -0.075500 0.996900
vn -0.021800 -0.072800 0.997100
vn 0.996600 -0.060300 0.055800
vn 0.997000 -0.072800 0.026700
vn -0.021800 -0.072800 -0.997100
vn -0.021700 -0.075500 -0.996900
vn 0.032300 -0.033200 0.998900
vn -0.911900 -0.410400 0.000000
vn -0.032300 -0.033200 0.998900
vn 0.317400 -0.948300 0.000000
vn 0.660900 -0.750400 0.000000
vn -0.996100 0.036500 0.080700
vn -0.996000 0.035700 0.081600
vn -0.995800 0.000000 0.090900
vn 0.000000 -0.736400 0.676500
vn 0.000000 -0.410400 0.911900
vn 0.000000 -0.402800 0.915300
vn 0.089800 0.991900 -0.089800
vn 0.000000 0.943200 -0.332100
vn -0.089800 0.991900 -0.089800
vn 0.000000 0.402800 -0.915300
vn 0.000000 -0.402800 -0.915300
vn 0.919500 0.393000 0.000000
vn 0.000000 0.736400 0.676500
vn 0.000000 0.402800 0.915300
vn -0.660900 0.750400 0.000000
vn 0.996100 -0.036500 0.080700
vn 0.996600 -0.060900 0.055500
vn 0.997000 0.072800 0.026700
vn -0.089800 0.991900 0.089800
vn 0.000000 1.000000 0.000000
vn -0.997000 0.072800 -0.026700
vn -0.997000 0.073300 -0.024600
vn -0.996800 0.078500 -0.014200
vn -0.996600 0.060900 -0.055500
vn -0.996600 0.060300 -0.055800
vn -0.996600 -0.060300 -0.055800
vn -0.013900 -0.078300 -0.996800
vn -0.013800 -0.078500 -0.996800
vn -0.996600 -0.060900 -0.055500
vn -0.317400 -0.948300 0.000000
vn 0.000000 -0.736400 -0.676500
vn 0.997000 0.073300 -0.024600
vn 0.996800 0.078500 -0.014200
vn -0.061600 0.996300 0.059800
vn -0.177900 -0.982200 -0.059500
vn 0.000000 -0.995300 -0.096400
vn -0.044500 -0.999000 0.000000
vn 0.147900 -0.977900 -0.147900
vn 0.096400 -0.995300 0.000000
vn 0.356300 -0.934100 -0.020600
vn 0.147900 -0.977900 0.147900
vn 0.000000 -0.747200 0.664600
vn 0.013900 0.078300 -0.996800
vn 0.013800 0.078500 -0.996800
vn -0.996000 -0.035700 0.081600
vn -0.996100 -0.036500 0.080700
vn 0.000000 0.747200 0.664600
vn -0.013900 0.078300 -0.996800
vn -0.021700 0.075500 -0.996900
vn 0.996800 0.078500 0.014200
vn 0.997000 0.073300 0.024600
vn -0.013800 -0.078500 0.996800
vn -0.013900 -0.078300 0.996800
vn -0.013900 0.078300 0.996800
vn -0.013800 0.078500 0.996800
vn 0.013900 -0.078300 0.996800
vn 0.013800 -0.078500 0.996800
vn 0.013900 -0.078300 -0.996800
vn 0.021700 -0.075500 -0.996900
vn 0.919500 -0.393000 0.000000
vn -0.332100 -0.943200 0.000000
vn -0.664600 -0.747200 0.000000
vn -0.660900 -0.750400 0.000000
vn -0.996100 0.036500 -0.080700
vn -0.995800 0.000000 -0.091200
vn -0.051900 -0.021300 -0.998400
vn -0.177900 -0.982200 0.059500
vn 0.996000 0.035700 0.081600
vn -0.996600 0.060300 0.055800
vn -0.996600 -0.060300 0.055800
vn -0.997000 -0.073300 0.024600
vn -0.997000 -0.072800 0.026700
vn -0.996800 0.078500 0.014200
vn -0.997000 0.073300 0.024600
vn 0.000000 -0.995300 0.096400
vn 0.089800 0.991900 0.089800
vn 0.013900 0.078300 0.996800
vn -0.996000 0.035700 -0.081600
vn -0.995800 0.000000 0.091200
vn 0.995800 0.000000 -0.090900
vn -0.996600 -0.060900 0.055500
vn 0.996000 -0.035700 -0.081600
vn 0.996100 -0.036500 -0.080700
vn -0.997000 0.072800 0.026700
vn -0.997000 -0.072800 -0.026700
vn -0.996800 -0.078500 0.014200
vn 0.996600 -0.060300 -0.055800
vn 0.996600 -0.060900 -0.055500
vn -0.996600 0.060900 0.055500
vn 0.995800 0.000000 -0.091200
vn 0.000000 0.939800 0.341800
vn -0.020600 -0.934100 0.356300
vn 0.020600 -0.934100 0.356300
vn -0.020600 -0.934100 -0.356300
vn -0.996800 -0.078500 -0.014200
vn -0.997000 -0.073300 -0.024600
vn 0.060200 0.000000 0.998200
vn 0.000000 0.943200 0.332100
vn -0.013800 0.078500 -0.996800
vn 0.013800 -0.078500 -0.996800
vn 0.013800 0.078500 0.996800
vn -0.060200 0.000000 0.998200
s 1
f 261/66/115 260/67/116 271/68/116
f 138/69/117 130/70/118 135/71/118
f 269/72/119 365/73/120 366/73/120
f 385/74/121 240/75/122 238/76/123
f 296/77/124 294/78/125 292/79/125
f 164/80/126 168/81/127 303/82/128
f 291/81/129 301/82/130 300/83/131
f 300/83/131 308/84/132 306/85/133
f 169/86/134 305/87/134 298/88/135
f 383/89/136 235/90/137 382/91/138
f 117/92/139 123/93/140 273/94/141
f 286/80/142 293/95/143 301/82/130
f 345/96/144 343/97/145 145/98/144
f 256/99/146 118/100/147 255/101/148
f 320/102/149 276/102/150 323/103/151
f 370/104/152 212/105/153 368/106/154
f 263/107/155 124/92/156 118/100/147
f 194/108/157 200/109/157 241/110/158
f 130/70/118 121/111/159 126/112/159
f 272/94/160 132/93/161 124/92/156
f 138/69/117 143/113/117 153/114/162
f 185/115/163 321/116/164 316/84/165
f 221/117/166 355/118/167 215/119/168
f 279/120/169 137/121/170 129/122/171
f 192/123/172 244/124/172 246/125/173
f 281/120/174 274/126/175 136/122/176
f 177/127/177 310/128/177 309/129/178
f 150/130/179 151/131/180 293/95/143
f 174/132/181 170/133/159 179/134/159
f 116/100/182 117/92/139 253/107/183
f 260/67/116 254/135/184 250/136/184
f 157/130/185 164/80/126 167/95/186
f 236/137/187 195/123/188 202/124/188
f 168/81/127 172/138/189 304/83/190
f 360/139/191 367/139/191 365/73/120
f 287/140/192 315/140/193 373/141/194
f 368/106/154 213/142/195 218/143/196
f 154/144/197 226/145/198 387/146/199
f 267/147/200 257/148/201 255/101/148
f 170/149/159 166/150/202 171/151/202
f 198/152/203 199/153/204 206/154/203
f 115/101/205 116/100/182 252/99/206
f 274/126/175 267/147/200 264/155/207
f 173/156/208 312/157/178 180/88/208
f 236/137/187 201/110/187 200/109/157
f 158/157/209 297/129/209 284/128/210
f 268/147/211 120/155/212 115/101/205
f 193/137/158 241/110/158 244/124/172
f 307/116/213 318/158/214 311/159/215
f 343/97/145 381/160/216 229/161/217
f 178/159/218 313/158/219 321/116/164
f 280/126/220 129/122/171 120/155/212
f 122/70/221 127/71/221 126/112/159
f 306/85/133 308/84/132 181/115/222
f 275/162/223 265/163/224 266/164/224
f 239/76/225 335/165/226 237/90/227
f 275/162/223 278/166/223 287/167/192
f 324/168/228 325/168/228 323/103/151
f 217/152/229 208/154/229 207/169/204
f 327/170/230 325/168/228 324/168/228
f 352/171/231 196/172/232 344/173/233
f 360/139/191 359/174/234 362/174/234
f 358/175/157 364/176/235 371/176/235
f 251/177/236 248/178/236 119/179/134
f 333/180/237 331/181/238 330/181/238
f 166/150/202 159/182/239 302/183/239
f 233/184/240 231/185/241 381/160/216
f 196/172/232 203/125/232 202/124/188
f 243/186/242 240/75/122 385/74/121
f 290/187/243 161/188/244 344/173/233
f 358/189/157 361/189/157 362/174/234
f 223/143/245 356/190/246 162/191/247
f 219/142/248 357/106/249 223/143/245
f 329/192/204 328/192/204 331/181/238
f 356/190/246 156/193/247 162/191/247
f 328/192/204 330/181/238 331/181/238
f 390/194/250 355/118/167 221/117/166
f 341/195/251 314/196/252 313/158/219
f 225/197/253 390/194/250 221/117/166
f 184/198/254 186/199/254 315/200/193
f 357/106/249 356/190/246 223/143/245
f 372/201/255 371/176/235 364/176/235
f 369/190/256 218/143/196 139/191/257
f 261/66/115 269/202/119 339/203/258
f 363/201/255 373/141/194 374/141/194
f 372/201/255 363/201/255 374/141/194
f 377/173/259 141/204/260 149/188/261
f 141/204/260 246/125/173 375/171/262
f 247/205/263 375/206/262 285/127/264
f 247/205/263 284/128/210 282/207/265
f 285/127/264 284/128/210 247/205/263
f 208/154/229 217/152/229 209/208/266
f 379/209/267 270/210/268 132/93/161
f 248/178/236 249/211/134 119/179/134
f 348/91/269 234/184/270 237/90/227
f 227/212/271 198/152/203 205/208/271
f 283/213/272 157/130/185 163/131/273
f 131/214/274 243/186/242 386/215/275
f 318/158/214 319/196/276 189/195/277
f 146/216/162 153/114/162 290/217/243
f 155/213/278 152/218/279 151/131/180
f 150/130/179 155/213/278 151/131/180
f 190/219/280 277/220/281 137/121/170
f 289/219/282 281/120/174 144/121/283
f 258/221/284 128/222/284 249/223/134
f 133/216/285 142/114/285 134/113/286
f 184/198/254 182/224/287 188/225/287
f 343/97/145 229/161/217 145/98/144
f 269/202/119 261/66/115 271/68/116
f 381/160/216 231/185/241 229/161/217
f 357/106/249 219/142/248 214/105/288
f 125/69/286 133/216/285 134/113/286
f 212/105/153 213/142/195 368/106/154
f 355/118/167 354/226/289 215/119/168
f 254/135/184 248/178/236 251/177/236
f 235/90/137 233/184/240 382/91/138
f 317/85/290 316/84/165 304/83/190
f 380/217/291 142/114/285 133/216/285
f 384/165/292 238/76/123 235/90/137
f 336/74/293 335/165/226 239/76/225
f 199/153/204 207/169/204 206/154/203
f 350/160/294 351/97/295 230/161/296
f 165/156/135 298/88/135 297/129/209
f 340/214/297 376/227/297 338/215/298
f 258/221/284 266/164/224 265/163/224
f 250/136/184 254/135/184 251/177/236
f 149/188/261 282/228/265 148/229/299
f 141/204/260 375/171/262 149/188/261
f 149/188/261 375/171/262 247/230/263
f 282/228/265 149/188/261 247/230/263
f 342/228/300 352/171/231 161/188/244
f 378/209/301 273/94/141 123/93/140
f 125/69/286 134/113/286 127/71/221
f 158/157/209 165/156/135 297/129/209
f 182/224/287 174/132/181 188/225/287
f 391/104/302 214/105/288 215/119/168
f 335/165/226 349/89/303 237/90/227
f 211/119/304 212/105/153 370/104/152
f 350/160/294 232/185/305 234/184/270
f 327/170/230 326/170/230 328/231/204
f 346/118/306 216/117/307 211/119/304
f 308/84/132 307/116/213 181/115/222
f 169/86/134 173/156/208 180/88/208
f 245/186/308 340/214/297 338/215/298
f 390/194/250 225/197/253 228/145/309
f 351/97/295 353/96/310 183/98/310
f 388/194/311 222/197/312 216/117/307
f 336/74/293 242/75/313 245/186/308
f 347/226/314 346/118/306 211/119/304
f 367/139/191 366/73/120 365/73/120
f 226/145/198 222/197/312 388/194/311
f 332/180/237 334/232/315 337/232/315
f 140/227/274 131/214/274 386/215/275
f 220/212/266 224/233/316 210/234/317
f 261/235/115 339/235/258 337/232/315
f 141/204/260 377/173/259 191/172/318
f 246/125/173 141/204/260 191/172/318
f 338/215/298 336/74/293 245/186/308
f 380/187/291 148/229/299 224/233/316
f 224/233/316 148/229/299 210/234/317
f 282/228/265 210/234/317 148/229/299
f 217/152/229 220/212/266 209/208/266
f 269/202/119 296/77/124 339/203/258
f 292/79/125 294/78/125 159/182/239
f 315/140/193 374/141/194 373/141/194
f 305/87/134 169/86/134 180/88/208
f 377/173/259 149/188/261 380/187/291
f 278/166/223 276/236/150 287/167/192
f 320/237/149 184/198/254 315/200/193
f 279/120/169 190/219/280 137/121/170
f 354/226/289 391/104/302 215/119/168
f 128/222/284 119/238/134 249/223/134
f 264/155/207 267/147/200 255/101/148
f 257/148/201 256/99/146 255/101/148
f 136/122/176 274/126/175 264/155/207
f 228/145/309 175/144/319 389/146/320
f 259/148/321 268/147/211 115/101/205
f 329/231/204 327/170/230 328/231/204
f 253/107/183 117/92/139 273/94/141
f 193/137/158 194/108/157 241/110/158
f 194/108/157 236/137/187 200/109/157
f 135/71/118 130/70/118 126/112/159
f 342/228/300 161/188/244 290/187/243
f 263/107/155 272/94/160 124/92/156
f 317/85/290 185/115/163 316/84/165
f 294/78/125 302/183/239 159/182/239
f 280/126/220 279/120/169 129/122/171
f 197/233/322 227/212/271 204/234/322
f 144/121/283 281/120/174 136/122/176
f 286/80/142 150/130/179 293/95/143
f 256/99/146 263/107/155 118/100/147
f 163/131/273 157/130/185 167/95/186
f 333/180/237 332/180/237 337/232/315
f 259/148/321 115/101/205 252/99/206
f 198/152/203 206/154/203 205/208/271
f 174/132/181 187/239/181 188/225/287
f 291/81/129 286/80/142 301/82/130
f 348/91/269 350/160/294 234/184/270
f 285/127/264 158/157/209 284/128/210
f 177/127/177 352/206/231 342/207/300
f 179/240/159 170/149/159 171/151/202
f 191/172/318 192/123/172 246/125/173
f 192/123/172 193/137/158 244/124/172
f 334/232/315 261/235/115 337/232/315
f 181/115/222 307/116/213 311/159/215
f 185/115/163 178/159/218 321/116/164
f 146/216/162 138/69/117 153/114/162
f 290/187/243 197/233/322 204/234/322
f 276/102/150 322/103/151 323/103/151
f 312/157/178 309/129/178 180/88/208
f 295/218/323 283/213/272 163/131/273
f 272/94/160 379/209/267 132/93/161
f 369/190/256 368/106/154 218/143/196
f 339/203/258 296/77/124 292/79/125
f 363/201/255 372/201/255 364/176/235
f 389/146/320 390/194/250 228/145/309
f 147/193/257 369/190/256 139/191/257
f 178/159/218 341/195/251 313/158/219
f 252/99/206 116/100/182 253/107/183
f 311/159/215 318/158/214 189/195/277
f 344/241/233 146/216/162 290/217/243
f 175/144/319 176/242/319 389/146/320
f 165/156/135 169/86/134 298/88/135
f 349/89/303 348/91/269 237/90/227
f 122/70/221 125/69/286 127/71/221
f 128/222/284 258/221/284 265/163/224
f 186/199/254 184/198/254 188/225/287
f 361/175/157 358/175/157 371/176/235
f 320/243/149 315/244/193 287/245/192
f 367/139/191 360/139/191 362/174/234
f 382/91/138 233/184/240 381/160/216
f 386/215/275 243/186/242 385/74/121
f 171/151/202 166/150/202 302/183/239
f 288/220/324 289/219/282 144/121/283
f 195/123/188 196/172/232 202/124/188
f 359/174/234 358/189/157 362/174/234
f 204/234/322 342/228/300 290/187/243
f 172/138/189 317/85/290 304/83/190
f 377/241/259 380/217/291 133/216/285
f 143/113/117 138/69/117 135/71/118
f 296/72/124 269/72/119 366/73/120
f 303/82/128 168/81/127 304/83/190
f 148/229/299 380/187/291 149/188/261
f 271/68/116 260/67/116 250/136/184
f 344/173/233 161/188/244 352/171/231
f 387/146/199 226/145/198 388/194/311
f 352/171/231 203/125/232 196/172/232
f 268/147/211 280/126/220 120/155/212
f 310/128/177 177/127/177 342/207/300
f 121/111/159 122/70/221 126/112/159
f 160/242/197 154/144/197 387/146/199
f 384/165/292 385/74/121 238/76/123
f 209/208/266 220/212/266 210/234/317
f 346/118/306 388/194/311 216/117/307
f 276/246/150 320/243/149 287/245/192
f 230/161/296 351/97/295 183/98/310
f 332/180/237 333/180/237 330/181/238
f 322/103/151 324/168/228 323/103/151
f 278/166/223 275/162/223 266/164/224
f 199/153/204 217/152/229 207/169/204
f 201/110/187 236/137/187 202/124/188
f 391/104/302 357/106/249 214/105/288
f 326/170/230 327/170/230 324/168/228
f 312/157/178 177/127/177 309/129/178
f 262/210/325 378/209/301 123/93/140
f 299/138/326 300/83/131 306/85/133
f 383/89/136 384/165/292 235/90/137
f 187/239/181 174/132/181 179/134/159
f 167/95/186 164/80/126 303/82/128
f 232/185/305 350/160/294 230/161/296
f 299/138/326 291/81/129 300/83/131
f 347/226/314 211/119/304 370/104/152
f 242/75/313 336/74/293 239/76/225
f 227/212/271 205/208/271 204/234/322
