# Blender v2.76 (sub 0) OBJ File: 'g_frag_collider.blend'
# www.blender.org
v 0.072877 0.000000 0.073398
v 0.095218 0.000000 0.039962
v 0.103064 0.000000 0.000521
v 0.095218 0.000000 -0.038920
v 0.072877 0.000000 -0.072356
v 0.039441 0.000000 -0.094697
v 0.067330 -0.067330 0.039962
v 0.072877 -0.072877 0.000521
v 0.067330 -0.067330 -0.038920
v 0.051532 -0.051532 -0.072356
v 0.027889 -0.027889 -0.094697
v 0.000000 -0.095218 0.039962
v 0.000000 -0.103064 0.000521
v 0.000000 -0.095218 -0.038920
v 0.000000 -0.072877 -0.072356
v 0.000000 -0.039441 -0.094697
v -0.067330 -0.067330 0.039962
v -0.072877 -0.072877 0.000521
v -0.067330 -0.067330 -0.038920
v -0.051532 -0.051532 -0.072356
v -0.027889 -0.027889 -0.094697
v -0.072877 -0.000000 0.073398
v -0.095218 -0.000000 0.039962
v -0.103064 -0.000000 0.000521
v -0.095218 -0.000000 -0.038920
v -0.072877 -0.000000 -0.072356
v -0.039441 -0.000000 -0.094697
v 0.000000 0.000000 -0.095195
v -0.067330 0.067330 0.039962
v -0.072877 0.072877 0.000521
v -0.067330 0.067330 -0.038920
v -0.051532 0.051532 -0.072356
v -0.027889 0.027889 -0.094697
v 0.000000 0.039441 -0.094697
v 0.067330 0.067330 0.039962
v 0.072877 0.072877 0.000521
v 0.067330 0.067330 -0.038920
v 0.051532 0.051532 -0.072356
v 0.027889 0.027889 -0.094697
v 0.016521 0.031898 0.149869
v 0.016521 -0.031898 0.149869
v -0.016521 -0.031898 0.149869
v -0.016521 0.031898 0.149869
v 0.016521 0.085427 0.139272
v -0.016521 0.085427 0.139272
v 0.016521 0.126787 0.110048
v -0.016521 0.126787 0.110048
v 0.016521 0.152073 0.056351
v -0.016521 0.152073 0.056351
v 0.016521 0.155775 -0.025480
v -0.016521 0.155775 -0.025480
vt 0.481246 0.188923
vt 0.651940 0.188923
vt 0.573625 0.122878
vt 0.481246 0.302497
vt 0.704269 0.302497
vt 0.481246 0.436466
vt 0.722644 0.436466
vt 0.481246 0.570436
vt 0.704269 0.570436
vt 0.722644 0.188923
vt 0.611890 0.122878
vt 0.796647 0.570436
vt 0.822634 0.436466
vt 0.796647 0.302497
vt 0.310552 0.188923
vt 0.388867 0.122878
vt 0.239849 0.436466
vt 0.258224 0.302497
vt 0.258224 0.570436
vt 0.481246 0.002720
vt 0.481246 0.122878
vt 0.350603 0.122878
vt 0.780373 0.996970
vt 0.586703 0.996970
vt 0.586703 0.913488
vt 0.365722 0.996970
vt 0.365722 0.913488
vt 0.250876 0.996970
vt 0.250876 0.913488
vt 0.029561 0.996970
vt 0.029561 0.913488
vt 0.780373 0.913488
vt 0.842903 0.913488
vt 0.842903 0.996970
vt 0.000000 0.000000
vt 0.481246 0.684010
vt 0.022723 0.430569
vt 0.021208 0.722942
vt 0.374356 0.900131
vt 0.209059 0.893448
vt 0.082158 0.836898
vn 0.729600 0.000000 -0.683800
vn 0.515900 -0.515900 -0.683800
vn 0.253200 -0.253200 -0.933700
vn 0.930300 0.000000 -0.366800
vn 0.657800 -0.657800 -0.366800
vn 1.000000 0.000000 0.000000
vn 0.707100 -0.707100 0.000000
vn 0.941600 -0.013700 0.336400
vn 0.671800 -0.661500 0.333200
vn 0.000000 -0.729600 -0.683800
vn 0.000000 -0.358100 -0.933700
vn 0.000000 -0.947000 0.321200
vn 0.000000 -1.000000 0.000000
vn -0.515900 -0.515900 -0.683800
vn 0.000000 -0.930300 -0.366800
vn -0.657800 -0.657800 -0.366800
vn -0.253200 -0.253200 -0.933700
vn -0.729600 0.000000 -0.683800
vn -0.707100 -0.707100 0.000000
vn -1.000000 0.000000 0.000000
vn -0.671800 -0.661500 0.333200
vn -0.941600 -0.013700 0.336400
vn -0.573300 0.395500 -0.717600
vn -0.257100 0.231100 -0.938300
vn -0.890100 0.455700 -0.005300
vn -0.819000 0.434600 -0.374500
vn -0.880100 0.408400 0.242000
vn 0.000000 0.000000 -1.000000
vn 0.358100 0.000000 -0.933700
vn -0.358100 0.000000 -0.933700
vn 0.000000 0.315800 -0.948800
vn 0.257100 0.231100 -0.938300
vn 0.819000 0.434600 -0.374500
vn 0.890100 0.455700 -0.005300
vn 0.448000 0.091700 0.889300
vn 0.459300 0.358300 0.812800
vn -0.459300 0.358300 0.812800
vn 0.466400 0.677500 0.568700
vn -0.466400 0.677500 0.568700
vn 0.460400 0.859700 0.221100
vn -0.460400 0.859700 0.221100
vn 0.394200 0.825500 -0.403900
vn -0.394200 0.825500 -0.403900
vn -0.930300 0.000000 -0.366800
vn -0.448000 0.091700 0.889300
vn -0.389500 -0.435800 0.811400
vn 0.389500 -0.435800 0.811400
vn 0.880100 0.408400 0.242000
vn 0.828400 -0.008100 0.560000
vn -0.828400 -0.008100 0.560000
vn 0.573300 0.395500 -0.717600
s 1
f 5/1/1 10/2/2 11/3/3
f 4/4/4 9/5/5 10/2/2
f 3/6/6 8/7/7 9/5/5
f 3/6/6 2/8/8 7/9/9
f 10/2/2 15/10/10 16/11/11
f 7/9/9 12/12/12 13/13/13
f 16/11/11 15/10/10 20/2/14
f 14/14/15 19/5/16 20/2/14
f 21/3/17 20/2/14 26/1/18
f 19/5/16 18/7/19 24/6/20
f 17/9/21 23/8/22 24/6/20
f 26/1/18 32/15/23 33/16/24
f 24/6/20 30/17/25 31/18/26
f 24/6/20 23/8/22 29/19/27
f 28/20/28 6/21/29 11/3/3
f 28/20/28 11/3/3 16/11/11
f 28/20/28 16/11/11 21/3/17
f 28/20/28 21/3/17 27/21/30
f 28/20/28 27/21/30 33/16/24
f 28/20/28 33/16/24 34/22/31
f 28/20/28 34/22/31 39/16/32
f 28/20/28 39/16/32 6/21/29
f 37/18/33 36/17/34 3/6/6
f 40/23/35 44/24/36 45/25/37
f 44/24/36 46/26/38 47/27/39
f 46/26/38 48/28/40 49/29/41
f 48/28/40 50/30/42 51/31/43
f 6/21/29 5/1/1 11/3/3
f 5/1/1 4/4/4 10/2/2
f 4/4/4 3/6/6 9/5/5
f 8/7/7 3/6/6 7/9/9
f 11/3/3 10/2/2 16/11/11
f 8/7/7 7/9/9 13/13/13
f 21/3/17 16/11/11 20/2/14
f 15/10/10 14/14/15 20/2/14
f 27/21/30 21/3/17 26/1/18
f 25/4/44 19/5/16 24/6/20
f 18/7/19 17/9/21 24/6/20
f 27/21/30 26/1/18 33/16/24
f 25/4/44 24/6/20 31/18/26
f 30/17/25 24/6/20 29/19/27
f 4/4/4 37/18/33 3/6/6
f 43/32/45 40/23/35 45/25/37
f 45/25/37 44/24/36 47/27/39
f 47/27/39 46/26/38 49/29/41
f 49/29/41 48/28/40 51/31/43
f 42/33/46 41/34/47 40/23/35
f 35/19/48 2/8/8 3/6/6
f 17/9/21 12/12/12 42/35/46
f 19/5/16 25/4/44 26/1/18
f 19/5/16 14/14/15 18/7/19
f 8/7/7 13/13/13 14/14/15
f 35/19/48 46/35/38 2/8/8
f 34/22/31 33/16/24 51/35/43
f 46/26/38 44/24/36 2/8/8
f 9/5/5 8/7/7 14/14/15
f 44/24/36 1/36/49 2/8/8
f 44/24/36 40/23/35 1/36/49
f 35/19/48 48/28/40 46/26/38
f 36/17/34 50/30/42 48/28/40
f 51/37/43 31/18/26 30/17/25
f 9/5/5 14/14/15 15/10/10
f 51/37/43 32/15/23 31/18/26
f 22/36/50 23/8/22 42/35/46
f 38/15/51 37/18/33 5/1/1
f 23/8/22 17/9/21 42/35/46
f 37/18/33 4/4/4 5/1/1
f 43/32/45 42/33/46 40/23/35
f 51/37/43 30/35/25 49/38/41
f 36/17/34 35/19/48 3/6/6
f 12/12/12 17/9/21 18/7/19
f 30/35/25 29/19/27 49/38/41
f 43/32/45 22/36/50 42/35/46
f 10/2/2 9/5/5 15/10/10
f 43/39/45 45/40/37 22/36/50
f 45/40/37 23/8/22 22/36/50
f 45/40/37 47/41/39 23/8/22
f 47/41/39 29/19/27 23/8/22
f 39/16/32 38/15/51 6/21/29
f 14/14/15 13/13/13 18/7/19
f 38/15/51 5/1/1 6/21/29
f 32/15/23 26/1/18 31/18/26
f 50/30/42 34/22/31 51/35/43
f 12/12/12 41/34/47 42/35/46
f 33/16/24 32/15/23 51/37/43
f 7/9/9 41/34/47 12/12/12
f 20/2/14 19/5/16 26/1/18
f 7/9/9 2/8/8 41/34/47
f 2/8/8 1/36/49 41/34/47
f 1/36/49 40/23/35 41/34/47
f 49/38/41 29/19/27 47/41/39
f 35/19/48 36/17/34 48/28/40
f 26/1/18 25/4/44 31/18/26
f 13/13/13 12/12/12 18/7/19
f 38/15/51 50/35/42 37/18/33
f 50/30/42 36/17/34 37/18/33
f 38/15/51 39/16/32 50/35/42
f 39/16/32 34/22/31 50/30/42
