# Blender v2.76 (sub 0) OBJ File: 'g_nitro_inactive.blend'
# www.blender.org
v 0.076049 -0.000900 0.095027
v 0.065740 -0.039374 0.095027
v 0.037574 -0.067540 0.095027
v -0.000900 -0.077849 0.095027
v -0.039374 -0.067540 0.095027
v -0.067540 -0.039374 0.095027
v -0.077849 -0.000900 0.095027
v -0.067540 0.037574 0.095027
v -0.039374 0.065740 0.095027
v -0.000900 0.076049 0.095027
v 0.037574 0.065740 0.095027
v 0.065740 0.037574 0.095027
v 0.089100 -0.000900 0.028704
v 0.077042 -0.045900 0.028704
v 0.044100 -0.078842 0.028704
v -0.000900 -0.090900 0.028704
v -0.045900 -0.078842 0.028704
v -0.078842 -0.045900 0.028704
v -0.090900 -0.000900 0.028704
v -0.078842 0.044100 0.028704
v -0.045900 0.077042 0.028704
v -0.000900 0.089100 0.028704
v 0.044100 0.077042 0.028704
v 0.077042 0.044100 0.028704
v 0.059100 -0.000900 0.028704
v 0.051062 -0.030900 0.028704
v 0.029100 -0.052862 0.028704
v -0.030900 -0.052862 0.028704
v -0.030900 0.051062 0.028704
v 0.029100 0.051062 0.028704
v 0.051062 0.029100 0.028704
v 0.089100 -0.000900 -0.001296
v 0.077042 -0.045900 -0.001296
v 0.059100 -0.000900 -0.001296
v 0.044100 -0.078842 -0.001296
v -0.000900 -0.090900 -0.001296
v -0.000900 -0.060900 -0.001296
v 0.029100 -0.052862 -0.001296
v -0.045900 -0.078842 -0.001296
v -0.078842 -0.045900 -0.001296
v -0.030900 -0.052862 -0.001296
v -0.090900 -0.000900 -0.001296
v -0.078842 0.044100 -0.001296
v -0.045900 0.077042 -0.001296
v -0.000900 0.089100 -0.001296
v 0.044100 0.077042 -0.001296
v 0.077042 0.044100 -0.001296
v 0.051062 0.029100 -0.001296
v 0.029100 0.051062 -0.001296
v -0.060900 -0.000900 -0.001296
v 0.039626 -0.024297 0.118616
v 0.045895 -0.000900 0.118616
v 0.039626 0.022497 0.118616
v 0.022497 0.039626 0.118616
v -0.000900 0.045895 0.118616
v -0.024297 0.039626 0.118616
v -0.041426 0.022497 0.118616
v -0.047695 -0.000900 0.118616
v -0.041426 -0.024297 0.118616
v -0.024297 -0.041426 0.118616
v -0.000900 -0.047695 0.118616
v 0.022497 -0.041426 0.118616
v 0.024916 -0.015805 0.120715
v 0.028909 -0.000900 0.120715
v 0.024916 0.014005 0.120715
v 0.014005 0.024916 0.120715
v -0.000900 0.028909 0.120715
v -0.015805 0.024916 0.120715
v -0.026716 0.014005 0.120715
v -0.030709 -0.000900 0.120715
v -0.026716 -0.015805 0.120715
v -0.015805 -0.026716 0.120715
v -0.000900 -0.030709 0.120715
v 0.014005 -0.026716 0.120715
v -0.000900 -0.095565 0.059862
v 0.094154 -0.000511 0.059862
v 0.081419 -0.048038 0.059862
v -0.095954 -0.000511 0.059862
v -0.000900 0.094543 0.059862
v -0.083219 0.047016 0.059862
v 0.046627 0.081808 0.059862
v 0.081419 0.047016 0.059862
v -0.048427 0.081808 0.059862
v -0.083219 -0.048038 0.059862
v -0.048427 -0.082830 0.059862
v 0.046627 -0.082830 0.059862
v 0.044100 0.077042 0.028704
v 0.044100 0.077042 0.028704
v 0.044100 0.077042 -0.001296
v 0.051062 -0.030900 0.028704
v 0.051062 -0.030900 0.028704
v 0.029100 -0.052862 0.028704
v 0.029100 -0.052862 0.028704
v 0.051062 0.029100 0.028704
v 0.051062 0.029100 0.028704
v -0.078842 0.044100 -0.001296
v -0.052862 0.029100 -0.001296
v -0.052862 0.029100 -0.001296
v -0.045900 0.077042 -0.001296
v -0.030900 0.051062 -0.001296
v -0.030900 0.051062 -0.001296
v 0.059100 -0.000900 0.028704
v 0.059100 -0.000900 0.028704
v 0.089100 -0.000900 -0.001296
v 0.077042 -0.045900 -0.001296
v 0.029100 0.051062 0.028704
v 0.029100 0.051062 0.028704
v 0.089100 -0.000900 0.028704
v 0.089100 -0.000900 0.028704
v 0.077042 0.044100 0.028704
v 0.077042 0.044100 0.028704
v 0.059100 -0.000900 -0.001296
v -0.000900 0.089100 -0.001296
v -0.000900 0.059100 -0.001296
v -0.000900 0.059100 -0.001296
v 0.077042 -0.045900 0.028704
v 0.077042 -0.045900 0.028704
v -0.078842 -0.045900 0.028704
v -0.078842 -0.045900 0.028704
v -0.078842 -0.045900 -0.001296
v -0.000900 -0.095565 0.059862
v 0.046627 -0.082830 0.059862
v 0.029100 -0.052862 -0.001296
v -0.052862 0.029100 0.028704
v -0.052862 0.029100 0.028704
v -0.052862 0.029100 0.028704
v -0.060900 -0.000900 -0.001296
v -0.060900 -0.000900 0.028704
v -0.060900 -0.000900 0.028704
v -0.060900 -0.000900 0.028704
v -0.052862 -0.030900 0.028704
v -0.052862 -0.030900 0.028704
v -0.052862 -0.030900 0.028704
v 0.029100 0.051062 -0.001296
v 0.051062 -0.030900 -0.001296
v 0.051062 -0.030900 -0.001296
v 0.081419 -0.048038 0.059862
v 0.044100 -0.078842 -0.001296
v -0.000900 -0.090900 -0.001296
v -0.000900 0.089100 0.028704
v -0.000900 0.089100 0.028704
v -0.030900 0.051062 0.028704
v -0.030900 0.051062 0.028704
v 0.077042 0.044100 -0.001296
v 0.051062 0.029100 -0.001296
v -0.000900 0.059100 0.028704
v -0.000900 0.059100 0.028704
v -0.000900 0.059100 0.028704
v -0.052862 -0.030900 -0.001296
v -0.052862 -0.030900 -0.001296
v -0.030900 -0.052862 -0.001296
v -0.000900 -0.060900 -0.001296
v -0.000900 -0.060900 0.028704
v -0.000900 -0.060900 0.028704
v -0.000900 -0.060900 0.028704
v -0.045900 -0.078842 -0.001296
v -0.090900 -0.000900 0.028704
v -0.090900 -0.000900 0.028704
v -0.000900 -0.090900 0.028704
v -0.000900 -0.090900 0.028704
v -0.030900 -0.052862 0.028704
v -0.030900 -0.052862 0.028704
v -0.078842 0.044100 0.028704
v -0.078842 0.044100 0.028704
v -0.045900 0.077042 0.028704
v -0.045900 0.077042 0.028704
v -0.090900 -0.000900 -0.001296
v 0.044100 -0.078842 0.028704
v 0.044100 -0.078842 0.028704
v -0.045900 -0.078842 0.028704
v -0.045900 -0.078842 0.028704
v -0.083219 -0.048038 0.059862
v -0.048427 -0.082830 0.059862
v -0.095954 -0.000511 0.059862
v -0.000900 0.094543 0.059862
v -0.048427 0.081808 0.059862
v -0.083219 0.047016 0.059862
v 0.046627 0.081808 0.059862
v 0.081419 0.047016 0.059862
v 0.094154 -0.000511 0.059862
v 0.094317 -0.001003 -0.001094
v 0.081560 -0.048612 -0.001094
v 0.046708 -0.083463 -0.001094
v -0.000900 -0.096220 -0.001094
v -0.048508 -0.083463 -0.001094
v -0.083360 -0.048612 -0.001094
v -0.096117 -0.001003 -0.001094
v -0.083360 0.046605 -0.001094
v -0.048508 0.081457 -0.001094
v -0.000900 0.092137 -0.001974
v 0.046708 0.081457 -0.001094
v 0.081560 0.046605 -0.001094
v 0.094109 -0.000999 -0.080813
v 0.081381 -0.048504 -0.080813
v 0.046605 -0.083280 -0.080813
v -0.000900 -0.096009 -0.080813
v -0.048405 -0.083280 -0.080813
v -0.083181 -0.048504 -0.080813
v -0.095909 -0.000999 -0.080813
v -0.083181 0.046506 -0.080813
v -0.048405 0.081282 -0.080813
v -0.000900 0.091987 -0.079941
v 0.046605 0.081282 -0.080813
v 0.081381 0.046506 -0.080813
v -0.031425 -0.053801 -0.002608
v -0.053770 0.029593 -0.002608
v 0.044100 -0.078842 0.026738
v 0.077042 -0.045900 0.026738
v -0.045900 -0.078842 0.026738
v -0.000900 -0.090900 0.026738
v -0.000900 -0.060900 0.026738
v -0.090900 -0.000900 0.026738
v -0.078842 -0.045900 0.026738
v -0.045900 0.077042 0.026738
v -0.078842 0.044100 0.026738
v -0.030900 0.051062 0.026738
v 0.044100 0.077042 0.026738
v -0.000900 0.089100 0.026738
v 0.089100 -0.000900 0.026738
v 0.077042 0.044100 0.026738
v 0.051062 -0.030900 0.026738
v -0.052862 -0.030900 0.026738
v -0.030900 -0.052862 0.026738
v 0.053832 -0.000900 -0.108696
v 0.046499 -0.028266 -0.108696
v 0.026466 -0.048299 -0.108696
v -0.000900 -0.055632 -0.108696
v -0.028266 -0.048299 -0.108696
v -0.048299 -0.028266 -0.108696
v -0.055632 -0.000900 -0.108696
v -0.048299 0.026466 -0.108696
v -0.028266 0.046499 -0.108696
v -0.000900 0.053832 -0.108696
v 0.026466 0.046499 -0.108696
v 0.046499 0.026466 -0.108696
v 0.028909 -0.000900 -0.109081
v 0.024916 -0.015805 -0.109081
v 0.014005 -0.026716 -0.109081
v -0.000900 -0.030709 -0.109081
v -0.015805 -0.026716 -0.109081
v -0.026716 -0.015805 -0.109081
v -0.030709 -0.000900 -0.109081
v -0.026716 0.014005 -0.109081
v -0.015805 0.024916 -0.109081
v -0.000900 0.028909 -0.109081
v 0.014005 0.024916 -0.109081
v 0.024916 0.014005 -0.109081
v 0.028909 -0.000900 -0.129081
v 0.024916 -0.015805 -0.129081
v 0.014005 -0.026716 -0.129081
v -0.000900 -0.030709 -0.129081
v -0.015805 -0.026716 -0.129081
v -0.026716 -0.015805 -0.129081
v -0.030709 -0.000900 -0.129081
v -0.026716 0.014005 -0.129081
v -0.015805 0.024916 -0.129081
v -0.000900 0.028909 -0.129081
v 0.014005 0.024916 -0.129081
v 0.024916 0.014005 -0.129081
v 0.049500 0.086181 -0.018340
v -0.000900 0.096244 -0.018354
v -0.051300 0.086181 -0.018340
v 0.049687 0.086498 -0.061677
v -0.000900 0.096517 -0.061676
v -0.051487 0.086498 -0.061677
v 0.045855 0.076150 -0.018335
v 0.046028 0.076150 -0.061682
v -0.000900 0.076150 -0.061682
v -0.047828 0.076150 -0.061682
v -0.047655 0.076150 -0.018335
v -0.000900 0.076150 -0.018335
v 0.049399 0.076150 -0.040649
v -0.091335 -0.053398 -0.040665
v -0.053113 -0.091621 -0.040665
v 0.051313 0.089250 -0.040649
v -0.053113 0.089250 -0.040649
v -0.000900 0.076150 -0.040649
v -0.051199 0.076150 -0.040649
v -0.000900 -0.105611 -0.040665
v -0.091335 0.051028 -0.040665
v -0.105326 -0.001185 -0.040665
v 0.089535 0.051027 -0.040665
v 0.051313 -0.091621 -0.040665
v 0.103526 -0.001185 -0.040665
v 0.089535 -0.053398 -0.040665
v 0.049500 0.086181 -0.018340
v 0.049500 0.086181 -0.018340
v 0.045855 0.076150 -0.018335
v 0.045855 0.076150 -0.018335
v -0.000900 0.076150 -0.018335
v -0.015805 0.024916 -0.129081
v -0.000900 0.028909 -0.129081
v 0.049687 0.086498 -0.061677
v 0.049687 0.086498 -0.061677
v -0.000900 0.096517 -0.061676
v -0.000900 0.062206 -0.001266
v -0.000900 0.062206 -0.001266
v 0.029625 -0.053801 -0.002608
v 0.029625 -0.053801 -0.002608
v 0.046708 -0.083463 -0.001094
v 0.046708 -0.083463 -0.001094
v -0.061949 -0.000931 -0.002608
v -0.061949 -0.000931 -0.002608
v -0.096117 -0.001003 -0.001094
v -0.096117 -0.001003 -0.001094
v 0.014005 0.024916 -0.109081
v 0.024916 0.014005 -0.109081
v -0.000900 -0.030709 -0.109081
v -0.015805 -0.026716 -0.109081
v -0.000900 -0.030709 -0.129081
v -0.015805 -0.026716 -0.129081
v 0.094317 -0.001003 -0.001094
v 0.094317 -0.001003 -0.001094
v 0.081560 -0.048612 -0.001094
v 0.081560 -0.048612 -0.001094
v -0.047828 0.076150 -0.061682
v -0.047828 0.076150 -0.061682
v -0.051199 0.076150 -0.040649
v -0.026716 -0.015805 -0.109081
v 0.059100 -0.000900 0.026738
v 0.059100 -0.000900 0.026738
v -0.000900 0.059100 0.026738
v -0.000900 0.059100 0.026738
v -0.052862 0.029100 0.026738
v -0.052862 0.029100 0.026738
v -0.030900 0.051062 0.026738
v -0.052862 -0.030900 0.026738
v -0.060900 -0.000900 0.026738
v -0.060900 -0.000900 0.026738
v 0.044100 -0.078842 0.026738
v 0.044100 -0.078842 0.026738
v 0.029100 -0.052862 0.026738
v 0.029100 -0.052862 0.026738
v 0.051970 0.029593 -0.002608
v 0.051970 0.029593 -0.002608
v -0.030900 -0.052862 0.026738
v 0.051970 -0.031456 -0.002608
v 0.051970 -0.031456 -0.002608
v 0.051062 -0.030900 0.026738
v 0.051062 0.029100 0.026738
v 0.051062 0.029100 0.026738
v 0.029100 0.051062 0.026738
v 0.029100 0.051062 0.026738
v 0.014005 0.024916 -0.129081
v -0.000900 0.076150 -0.061682
v 0.077042 0.044100 0.026738
v 0.077042 0.044100 0.026738
v -0.000900 0.028909 -0.109081
v 0.089100 -0.000900 0.026738
v 0.089100 -0.000900 0.026738
v -0.000900 -0.061980 -0.002608
v -0.000900 -0.061980 -0.002608
v 0.028909 -0.000900 -0.109081
v -0.030709 -0.000900 -0.109081
v -0.026716 0.014005 -0.109081
v -0.090900 -0.000900 0.026738
v -0.090900 -0.000900 0.026738
v -0.078842 -0.045900 0.026738
v -0.078842 -0.045900 0.026738
v -0.053770 -0.031456 -0.002608
v -0.053770 -0.031456 -0.002608
v -0.026716 -0.015805 -0.129081
v 0.049399 0.076150 -0.040649
v 0.046028 0.076150 -0.061682
v 0.046028 0.076150 -0.061682
v -0.083360 -0.048612 -0.001094
v -0.083360 -0.048612 -0.001094
v 0.060149 -0.000931 -0.002608
v 0.060149 -0.000931 -0.002608
v -0.031425 -0.053801 -0.002608
v -0.015805 0.024916 -0.109081
v -0.053770 0.029593 -0.002608
v -0.083360 0.046605 -0.001094
v -0.083360 0.046605 -0.001094
v -0.078842 0.044100 0.026738
v -0.078842 0.044100 0.026738
v 0.030048 0.052647 -0.002080
v 0.030048 0.052647 -0.002080
v -0.000900 -0.060900 0.026738
v 0.081560 0.046605 -0.001094
v 0.081560 0.046605 -0.001094
v -0.031848 0.052647 -0.002080
v -0.031848 0.052647 -0.002080
v -0.047655 0.076150 -0.018335
v -0.047655 0.076150 -0.018335
v 0.028909 -0.000900 -0.129081
v 0.024916 -0.015805 -0.129081
v 0.046708 0.081457 -0.001094
v 0.046708 0.081457 -0.001094
v 0.044100 0.077042 0.026738
v 0.044100 0.077042 0.026738
v -0.048508 0.081457 -0.001094
v -0.048508 0.081457 -0.001094
v -0.045900 0.077042 0.026738
v -0.045900 0.077042 0.026738
v -0.000900 -0.096220 -0.001094
v -0.000900 -0.096220 -0.001094
v 0.051313 0.089250 -0.040649
v -0.030709 -0.000900 -0.129081
v -0.048508 -0.083463 -0.001094
v -0.048508 -0.083463 -0.001094
v -0.045900 -0.078842 0.026738
v -0.045900 -0.078842 0.026738
v -0.051487 0.086498 -0.061677
v -0.051487 0.086498 -0.061677
v -0.000900 0.092137 -0.001974
v -0.000900 0.092137 -0.001974
v -0.051300 0.086181 -0.018340
v -0.051300 0.086181 -0.018340
v 0.014005 -0.026716 -0.129081
v -0.000900 -0.090900 0.026738
v -0.000900 -0.090900 0.026738
v 0.014005 -0.026716 -0.109081
v -0.026716 0.014005 -0.129081
v -0.000900 0.089100 0.026738
v -0.000900 0.089100 0.026738
v -0.053113 0.089250 -0.040649
v 0.024916 -0.015805 -0.109081
v -0.000900 0.096244 -0.018354
v 0.077042 -0.045900 0.026738
v 0.077042 -0.045900 0.026738
v 0.024916 0.014005 -0.129081
vt 0.341644 0.962066
vt 0.347769 0.971732
vt 0.432092 0.887409
vt 0.421484 0.882227
vt 0.325828 0.611655
vt 0.232581 0.586669
vt 0.232581 0.541847
vt 0.347769 0.572711
vt 0.740123 0.061629
vt 0.740123 0.071416
vt 0.822906 0.093598
vt 0.827705 0.085097
vt 0.394090 0.866411
vt 0.419076 0.773164
vt 0.462956 0.772221
vt 0.232581 0.991290
vt 0.232581 1.002596
vt 0.289288 0.871382
vt 0.330800 0.829870
vt 0.325829 0.934673
vt 0.394090 0.679916
vt 0.432092 0.657034
vt 0.002206 0.772221
vt 0.046087 0.773164
vt 0.071072 0.866411
vt 0.033071 0.887409
vt 0.536977 0.481159
vt 0.621300 0.565482
vt 0.627424 0.555816
vt 0.547585 0.475977
vt 0.139334 0.934673
vt 0.117394 0.971732
vt 0.232581 0.959658
vt 0.117394 0.572711
vt 0.033071 0.657034
vt 0.043679 0.664101
vt 0.123518 0.584261
vt 0.139334 0.611655
vt 0.071072 0.679916
vt 0.537363 0.385503
vt 0.568227 0.500690
vt 0.578835 0.495508
vt 0.549612 0.386445
vt 0.822113 0.287386
vt 0.828237 0.275836
vt 0.713050 0.244972
vt 0.713050 0.258163
vt 0.232310 0.490978
vt 0.232310 0.556761
vt 0.232310 0.563419
vt 0.232310 0.497790
vt 0.421484 0.664101
vt 0.341644 0.584261
vt 0.595238 0.433320
vt 0.607487 0.432378
vt 0.576623 0.317190
vt 0.566015 0.324257
vt 0.566015 0.542383
vt 0.576623 0.547565
vt 0.061402 0.260740
vt 0.118372 0.293631
vt 0.166528 0.245475
vt 0.133636 0.188505
vt 0.159873 0.647229
vt 0.232581 0.627746
vt 0.232581 0.555038
vt 0.377999 0.773164
vt 0.358516 0.845872
vt 0.450707 0.773164
vt 0.118372 0.425196
vt 0.100745 0.359413
vt 0.034963 0.359413
vt 0.061402 0.458087
vt 0.305290 0.647229
vt 0.358516 0.700455
vt 0.232310 0.227848
vt 0.298093 0.245475
vt 0.330984 0.188505
vt 0.232310 0.162066
vt 0.305290 0.899099
vt 0.232581 0.918581
vt 0.232581 0.845410
vt 0.170014 0.809287
vt 0.170014 0.737041
vt 0.232581 0.886577
vt 0.175703 0.392095
vt 0.199628 0.416020
vt 0.166946 0.359413
vt 0.175703 0.326731
vt 0.159873 0.899099
vt 0.123518 0.962066
vt 0.106646 0.845872
vt 0.297674 0.359413
vt 0.288917 0.326731
vt 0.199628 0.302806
vt 0.264992 0.302806
vt 0.119168 0.773164
vt 0.134363 0.829870
vt 0.345994 0.773164
vt 0.330800 0.716457
vt 0.129789 0.528365
vt 0.121796 0.550360
vt 0.117820 0.557090
vt 0.122017 0.528365
vt 0.175875 0.871382
vt 0.196458 0.835731
vt 0.134363 0.716457
vt 0.289288 0.674945
vt 0.232581 0.659751
vt 0.175875 0.674945
vt 0.873078 0.704533
vt 0.819928 0.690292
vt 0.839001 0.657176
vt 0.873078 0.666308
vt 0.160335 0.773164
vt 0.295148 0.737040
vt 0.268704 0.710597
vt 0.304828 0.773164
vt 0.268704 0.835731
vt 0.295148 0.809287
vt 0.196458 0.710597
vt 0.232581 0.700917
vt 0.579946 0.336722
vt 0.549081 0.451909
vt 0.561330 0.452851
vt 0.590554 0.343788
vt 0.192118 0.697717
vt 0.235000 0.697717
vt 0.235000 0.713427
vt 0.195140 0.713427
vt 0.588426 0.324376
vt 0.564959 0.236794
vt 0.548018 0.236458
vt 0.573755 0.332511
vt 0.932228 0.236458
vt 0.906490 0.332511
vt 0.891489 0.324192
vt 0.914905 0.236801
vt 0.740123 0.044353
vt 0.836175 0.070091
vt 0.891819 0.149211
vt 0.883508 0.154200
vt 0.905690 0.236983
vt 0.915287 0.236794
vt 0.827514 0.085435
vt 0.740123 0.062019
vt 0.413125 0.463580
vt 0.336704 0.540002
vt 0.342824 0.550360
vt 0.051889 0.255030
vt 0.034008 0.244298
vt 0.117820 0.160485
vt 0.128144 0.178775
vt 0.128144 0.539617
vt 0.172304 0.463348
vt 0.232310 0.479426
vt 0.232310 0.563092
vt 0.565340 0.236801
vt 0.573755 0.140406
vt 0.588757 0.149410
vt 0.336704 0.178372
vt 0.299243 0.243414
vt 0.588757 0.324192
vt 0.832839 0.397181
vt 0.827705 0.388490
vt 0.740123 0.408137
vt 0.740123 0.415692
vt 0.343234 0.551054
vt 0.232310 0.573025
vt 0.336476 0.539617
vt 0.652731 0.085435
vt 0.644070 0.070091
vt 0.277883 0.697717
vt 0.274861 0.713427
vt 0.588426 0.149211
vt 0.051495 0.254794
vt 0.127917 0.178372
vt 0.647062 0.397763
vt 0.652731 0.388167
vt 0.891819 0.324376
vt 0.346800 0.160485
vt 0.413125 0.254794
vt 0.430612 0.244298
vt 0.346249 0.425196
vt 0.298093 0.473352
vt 0.330984 0.530321
vt 0.403218 0.458087
vt 0.403218 0.260739
vt 0.346249 0.293631
vt 0.363875 0.359413
vt 0.429658 0.359413
vt 0.441097 0.359187
vt 0.366176 0.359345
vt 0.232310 0.424778
vt 0.166528 0.473352
vt 0.133636 0.530321
vt 0.932103 0.564074
vt 0.965138 0.545082
vt 0.979379 0.598232
vt 0.941234 0.598152
vt 0.128376 0.419420
vt 0.112297 0.359413
vt 0.926229 0.506173
vt 0.907629 0.538337
vt 0.873078 0.527665
vt 0.873078 0.494250
vt 0.819928 0.506173
vt 0.838528 0.538337
vt 0.814054 0.564074
vt 0.781019 0.545082
vt 0.232310 0.294049
vt 0.288917 0.392095
vt 0.264992 0.416020
vt 0.596738 0.319767
vt 0.574556 0.236983
vt 0.335212 0.528365
vt 0.232310 0.528365
vt 0.647406 0.397181
vt 0.652541 0.388490
vt 0.412731 0.255030
vt 0.336476 0.178775
vt 0.906490 0.140406
vt 0.891489 0.149410
vt 0.121386 0.551054
vt 0.432811 0.483267
vt 0.422904 0.477773
vt 0.350670 0.550008
vt 0.356390 0.559688
vt 0.165377 0.243414
vt 0.232310 0.150400
vt 0.232310 0.225480
vt 0.644070 0.402826
vt 0.300171 0.476829
vt 0.051495 0.463580
vt 0.116379 0.426278
vt 0.232310 0.150864
vt 0.232310 0.239400
vt 0.172304 0.255479
vt 0.129409 0.528365
vt 0.348241 0.292412
vt 0.087164 0.773164
vt 0.106646 0.700455
vt 0.043679 0.882227
vt 0.652541 0.085097
vt 0.597863 0.275836
vt 0.603987 0.287386
vt 0.348241 0.426278
vt 0.051637 0.245115
vt 0.123871 0.172880
vt 0.118151 0.162747
vt 0.041730 0.239169
vt 0.336245 0.419420
vt 0.352323 0.359413
vt 0.440642 0.359196
vt 0.412731 0.463362
vt 0.336245 0.299407
vt 0.128376 0.299407
vt 0.804923 0.598152
vt 0.814054 0.632230
vt 0.781019 0.651383
vt 0.766777 0.598232
vt 0.023978 0.359196
vt 0.051889 0.463362
vt 0.292317 0.463348
vt 0.346800 0.557090
vt 0.430612 0.473277
vt 0.926229 0.690292
vt 0.907156 0.657176
vt 0.932103 0.632230
vt 0.965138 0.651383
vt 0.014455 0.773164
vt 0.292317 0.255479
vt 0.127917 0.540002
vt 0.164449 0.476829
vt 0.194992 0.682908
vt 0.235000 0.682908
vt 0.740123 0.402550
vt 0.657339 0.380369
vt 0.232310 0.572425
vt 0.334831 0.528365
vt 0.275009 0.682909
vt 0.342604 0.528365
vt 0.116379 0.292412
vt 0.023523 0.359187
vt 0.098445 0.359345
vn -0.570900 -0.814800 -0.100500
vn -0.495200 -0.855800 -0.149700
vn -0.856500 -0.492600 -0.154100
vn -0.813500 -0.572300 -0.103500
vn -0.391200 0.676700 0.623700
vn 0.000000 0.781200 0.624200
vn 0.000000 0.885000 0.465500
vn -0.442200 0.767300 0.464400
vn -0.083400 -0.972700 0.216500
vn -0.254500 -0.949900 0.181600
vn -0.414300 -0.884100 0.216000
vn -0.679900 -0.393500 0.618700
vn -0.784100 -0.000900 0.620600
vn -0.889100 0.001300 0.457700
vn -0.772200 -0.444500 0.453800
vn 0.087700 -0.991100 -0.099400
vn 0.000000 -0.989000 -0.148100
vn -0.210000 -0.363700 0.907500
vn -0.363700 -0.210000 0.907500
vn -0.392900 -0.681500 0.617400
vn -0.678200 0.390600 0.622400
vn -0.767700 0.444500 0.461600
vn 0.889100 0.001300 0.457700
vn 0.784100 -0.000900 0.620600
vn 0.679900 -0.393500 0.618700
vn 0.772200 -0.444500 0.453800
vn 0.856500 -0.492600 -0.154100
vn 0.495200 -0.855800 -0.149700
vn 0.418900 -0.902400 -0.100500
vn 0.901300 -0.420500 -0.103500
vn 0.392900 -0.681500 0.617400
vn 0.446800 -0.772600 0.451000
vn 0.000000 -0.787000 0.616900
vn 0.000000 -0.893000 0.449900
vn -0.446800 -0.772600 0.451000
vn 0.491800 0.853800 -0.170500
vn 0.853100 0.494500 -0.166100
vn 0.814100 0.569800 -0.111700
vn 0.571200 0.812800 -0.114600
vn 0.442200 0.767300 0.464400
vn 0.391200 0.676700 0.623700
vn 0.678200 0.390600 0.622400
vn 0.767700 0.444500 0.461600
vn 0.987100 0.001900 -0.160100
vn 0.990200 -0.089000 -0.107500
vn -0.419600 0.900400 -0.114700
vn -0.491800 0.853800 -0.170500
vn 0.000000 0.985100 -0.172100
vn -0.087500 0.989400 -0.115700
vn -1.000000 0.000000 0.000000
vn -0.901500 0.418000 -0.111600
vn -0.853100 0.494500 -0.166100
vn -0.990400 0.086200 -0.107600
vn -0.987100 0.001900 -0.160100
vn 0.000000 0.000000 1.000000
vn 0.000000 0.000000 -1.000000
vn 0.000000 -0.071600 0.997400
vn 0.062000 -0.035800 0.997400
vn 0.062000 0.035800 0.997400
vn 0.000000 -0.419900 0.907500
vn -0.707100 -0.707100 0.000000
vn 0.866000 0.500000 0.000000
vn 0.500000 0.866000 0.000000
vn 1.000000 0.000000 0.000000
vn -0.707100 0.707100 0.000000
vn 0.866000 -0.500000 0.000000
vn -0.500000 0.866000 0.000000
vn 0.258800 0.965900 0.000000
vn -0.965900 0.258800 0.000000
vn 0.000000 -1.000000 0.000000
vn 0.707100 -0.707100 0.000000
vn -0.258800 -0.965900 0.000000
vn -0.866000 -0.500000 0.000000
vn 0.965900 -0.258800 0.000000
vn -0.965900 -0.258800 0.000000
vn 0.258800 -0.965900 0.000000
vn -0.258800 0.965900 0.000000
vn -0.866000 0.500000 0.000000
vn 0.500000 -0.866000 0.000000
vn -0.500000 -0.866000 0.000000
vn 0.419900 0.000000 0.907500
vn 0.363700 -0.210000 0.907500
vn -0.419900 0.000000 0.907500
vn -0.363700 0.210000 0.907500
vn -0.967400 0.232500 -0.100200
vn -0.972600 0.232400 0.000100
vn -0.972600 0.232400 -0.000100
vn 0.210000 -0.363700 0.907500
vn 0.035800 -0.062000 0.997400
vn 0.363700 0.210000 0.907500
vn -0.210000 0.363700 0.907500
vn 0.000000 0.419900 0.907500
vn 0.210000 0.363700 0.907500
vn -0.011800 0.044200 0.998900
vn 0.071600 0.000000 0.997400
vn -0.062000 0.035800 0.997400
vn -0.035800 0.062000 0.997400
vn -0.071600 0.000000 0.997400
vn -0.035800 -0.062000 0.997400
vn -0.062000 -0.035800 0.997400
vn 0.035800 0.062000 0.997400
vn 0.000000 0.071600 0.997400
vn 0.000000 1.000000 0.000000
vn 0.887200 0.410700 0.210000
vn 0.973600 0.084000 0.212200
vn 1.000000 -0.000700 -0.000800
vn 0.870700 0.491800 -0.000300
vn -1.000000 -0.000700 -0.000800
vn -0.870700 0.491800 -0.000300
vn -0.733700 0.418900 -0.534900
vn -0.843700 0.000300 -0.536800
vn 0.000000 -1.000000 -0.000800
vn -0.499700 -0.866200 -0.000800
vn -0.884700 -0.414000 0.214200
vn -0.950300 -0.254600 0.179100
vn -0.973500 -0.083200 0.212700
vn -0.421300 -0.729500 -0.538800
vn 0.000000 -0.842200 -0.539100
vn -0.804400 0.555800 0.209700
vn -0.538200 0.803000 0.255800
vn -0.555000 0.793000 0.251100
vn 0.730200 -0.421200 -0.538000
vn 0.865700 -0.500500 -0.000800
vn 0.499700 -0.866200 -0.000800
vn 0.421300 -0.729500 -0.538800
vn 0.394700 0.728100 -0.560300
vn 0.168800 0.309200 -0.935900
vn 0.000000 0.361900 -0.932200
vn 0.000000 0.837800 -0.545900
vn 0.843700 0.000300 -0.536800
vn -0.866300 0.499500 -0.001100
vn 0.733700 0.418900 -0.534900
vn 0.076300 0.970400 0.228900
vn 0.000000 0.963000 0.269600
vn -0.555800 0.793000 -0.249400
vn 0.000000 0.963500 -0.267600
vn -0.394700 0.728100 -0.560300
vn 0.801200 -0.558600 0.214700
vn 0.558900 -0.800700 0.215800
vn 0.555800 0.793000 -0.249400
vn -0.865700 -0.500500 -0.000800
vn -0.001200 1.000000 -0.002200
vn 0.007700 0.013400 -0.999900
vn 0.000000 0.015400 -0.999900
vn 0.044300 -0.011800 0.998900
vn 0.015400 0.000000 -0.999900
vn 0.013400 0.007700 -0.999900
vn 0.301600 0.174300 -0.937300
vn 0.348100 0.000100 -0.937400
vn 0.001900 -0.004200 1.000000
vn -0.022800 -0.031500 0.999200
vn 0.950600 0.254700 0.177200
vn 0.000000 -0.000300 1.000000
vn 0.555000 0.793000 0.251100
vn 0.386200 0.889800 0.243000
vn -0.730200 -0.421200 -0.538000
vn -0.696100 0.696100 0.175600
vn -0.866300 -0.499500 0.001100
vn 0.720400 0.693500 0.000000
vn 0.865800 0.500300 -0.001300
vn -0.499100 0.866500 -0.001900
vn 0.000000 -0.347500 -0.937700
vn 0.173800 -0.300900 -0.937700
vn 0.500900 -0.865500 0.001900
vn 0.965900 0.258800 0.000000
vn 0.707100 0.707100 0.000000
vn -0.499100 -0.866500 0.001900
vn 0.695500 -0.695500 0.180600
vn -0.301600 0.174300 -0.937300
vn -0.348100 0.000100 -0.937400
vn -0.301200 -0.173800 -0.937600
vn 0.301200 -0.173800 -0.937600
vn -0.044200 0.011800 0.998900
vn -0.168800 0.309200 -0.935900
vn -0.720400 0.693500 0.000000
vn 0.032300 0.032300 0.998900
vn 0.013400 -0.007700 -0.999900
vn 0.007700 -0.013400 -0.999900
vn -0.013400 -0.007700 -0.999900
vn -0.007700 -0.013400 -0.999900
vn -0.173800 -0.300900 -0.937700
vn -0.007700 0.013400 -0.999900
vn -0.013400 0.007700 -0.999900
vn -0.015400 0.000000 -0.999900
vn 0.000000 -0.015400 -0.999900
vn -0.968000 0.230000 0.099900
vn 0.865800 -0.500300 0.001300
vn 0.234900 0.962200 0.137600
vn 0.000100 -0.000800 -1.000000
vn 0.000000 -0.000800 -1.000000
vn -0.000100 -0.000800 -1.000000
vn 0.972600 0.232400 0.000100
vn 0.967400 0.232500 -0.100200
vn 0.972600 0.232400 -0.000100
vn 0.968000 0.230000 0.099900
vn 0.500900 0.865500 -0.001900
vn -0.001200 -1.000000 0.002200
s 1
f 170/1/1 173/2/2 84/3/3 118/4/4
f 9/5/5 10/6/6 79/7/7 176/8/8
f 396/9/9 210/10/10 209/11/10 401/12/11
f 6/13/12 7/14/13 78/15/14 172/3/15
f 159/16/16 121/17/17 173/2/2 170/1/1
f 60/18/18 59/19/19 6/13/12 5/20/20
f 8/21/21 9/5/5 176/8/8 80/22/22
f 180/23/23 1/24/24 2/25/25 77/26/26
f 137/27/27 122/28/28 168/29/29 116/30/30
f 77/26/26 2/25/25 3/31/31 86/32/32
f 86/32/32 3/31/31 4/33/33 75/17/34
f 4/33/33 5/20/20 85/2/35 75/17/34
f 81/34/36 82/35/37 110/36/38 87/37/39
f 178/34/40 11/38/41 12/39/42 179/35/43
f 76/40/44 137/41/27 116/42/30 108/43/45
f 165/44/46 83/45/47 175/46/48 140/47/49
f 323/48/50 416/49/50 190/50/50 297/51/50
f 163/52/51 177/22/52 83/8/47 165/53/46
f 5/20/20 6/13/12 172/3/15 85/2/35
f 157/54/53 174/55/54 177/56/52 163/57/51
f 7/14/13 8/21/21 80/22/22 78/15/14
f 118/58/4 84/59/3 174/55/54 157/54/53
f 179/35/43 12/39/42 1/24/24 180/23/23
f 421/60/55 339/61/55 333/62/55 207/63/55
f 106/64/56 147/65/56 141/66/56 88/37/56
f 129/67/56 131/68/56 119/4/56 158/69/56
f 340/70/55 320/71/55 349/72/55 346/73/55
f 166/53/56 142/74/56 125/75/56 164/52/56
f 379/76/55 336/77/55 403/78/55 411/79/55
f 171/1/56 161/80/56 154/81/56 16/16/56
f 73/82/57 63/83/58 65/84/59
f 4/33/33 61/85/60 60/18/18 5/20/20
f 120/4/61 156/1/61 170/1/1 118/4/4
f 307/86/62 422/86/62 258/87/63 306/87/63
f 248/88/64 422/86/62 307/86/62 353/88/64
f 100/74/65 98/75/65 126/75/65 29/74/65
f 37/81/50 139/16/50 160/16/50 155/81/50
f 249/89/66 248/88/64 353/88/64 237/89/66
f 150/68/67 40/4/67 18/4/67 133/68/67
f 49/64/68 115/65/68 148/65/68 30/64/68
f 96/57/69 167/54/69 157/54/53 163/57/51
f 42/69/70 127/67/70 128/67/70 19/69/70
f 124/75/63 97/75/63 43/52/63 20/52/63
f 27/90/62 169/91/62 138/91/62 123/90/62
f 38/90/71 135/92/71 91/92/71 93/90/71
f 41/80/72 152/81/72 153/81/72 28/80/72
f 254/93/50 253/94/73 319/94/73 242/93/50
f 33/42/74 104/43/74 108/43/45 116/42/30
f 130/67/75 50/67/75 149/68/75 132/68/75
f 114/65/64 45/66/64 22/66/64 146/65/64
f 143/74/73 21/53/73 44/53/73 101/74/73
f 159/16/16 36/16/76 35/91/76 168/91/29
f 113/47/77 99/44/77 165/44/46 140/47/49
f 162/80/66 17/1/66 39/1/66 151/80/66
f 107/64/78 23/37/78 46/37/78 134/64/78
f 413/95/79 410/95/79 249/89/66 237/89/66
f 253/94/73 252/96/80 240/96/80 319/94/73
f 52/97/81 51/98/82 2/25/25 1/24/24
f 7/14/13 58/99/83 57/100/84 8/21/21
f 288/101/85 286/102/85 398/103/86 363/104/87
f 62/105/88 74/106/89 73/82/57 61/85/60
f 12/39/42 53/107/90 52/97/81 1/24/24
f 57/100/84 56/108/91 9/5/5 8/21/21
f 55/109/92 54/110/93 11/38/41 10/6/6
f 51/98/82 62/105/88 3/31/31 2/25/25
f 9/5/5 56/108/91 55/109/92 10/6/6
f 122/32/28 121/17/17 159/16/16 168/91/29
f 6/13/12 59/19/19 58/99/83 7/14/13
f 11/38/41 54/110/93 53/107/90 12/39/42
f 184/111/94 183/112/94 299/113/94 352/114/94
f 65/84/59 64/115/95 52/97/81 53/107/90
f 69/116/96 68/117/97 56/108/91 57/100/84
f 70/118/98 69/116/96 57/100/84 58/99/83
f 60/18/18 72/119/99 71/120/100 59/19/19
f 52/97/81 64/115/95 63/83/58 51/98/82
f 51/98/82 63/83/58 74/106/89 62/105/88
f 66/121/101 65/84/59 53/107/90 54/110/93
f 71/120/100 70/118/98 58/99/83 59/19/19
f 68/117/97 67/122/102 55/109/92 56/108/91
f 67/122/102 66/121/101 54/110/93 55/109/92
f 71/120/100 68/117/97 70/118/98
f 68/117/97 69/116/96 70/118/98
f 71/120/100 72/119/99 73/82/57
f 65/84/59 66/121/101 67/122/102
f 73/82/57 74/106/89 63/83/58
f 71/120/100 67/122/102 68/117/97
f 63/83/58 64/115/95 65/84/59
f 82/123/37 76/124/44 108/125/45 110/126/38
f 272/127/103 277/128/103 290/129/103 289/130/103
f 381/131/104 312/132/105 284/133/106 282/134/107
f 281/135/108 280/136/109 200/137/110 199/138/111
f 279/139/112 396/9/9 401/12/11 274/140/113
f 367/141/114 359/142/115 357/143/115 305/144/116
f 279/139/112 274/140/113 197/145/117 196/146/118
f 373/147/119 392/148/120 409/149/121
f 194/150/122 285/151/123 283/152/124 195/153/125
f 203/154/126 234/155/127 233/156/128 202/157/129
f 193/158/130 284/133/106 285/159/123 194/160/122
f 400/161/131 402/78/131 223/77/131 370/162/131
f 204/163/132 282/134/107 284/133/106 193/158/130
f 409/164/121 392/165/120 407/166/133 261/167/134
f 404/168/135 295/169/136 202/157/129 201/170/137
f 195/171/125 283/172/124 279/139/112 196/146/118
f 290/129/103 277/128/103 278/173/103 385/174/103
f 312/132/105 314/175/138 285/159/123 284/133/106
f 314/176/138 301/177/139 283/152/124 285/151/123
f 293/178/140 204/163/132 203/179/126
f 281/135/108 305/144/116 373/180/119 280/136/109
f 274/181/113 401/161/11 367/182/114 273/183/141
f 325/184/55 326/185/55 395/186/55 215/187/55
f 358/188/55 327/189/55 328/190/55 356/191/55
f 187/192/142 212/191/142 329/190/142 303/193/142
f 234/155/127 246/87/143 245/194/144 233/156/128
f 322/48/55 342/195/55 391/196/55 415/49/55
f 372/197/145 374/198/145 304/199/145 302/200/145
f 236/88/146 247/86/147 235/201/148 224/202/149
f 393/203/150 382/204/150 296/205/150 406/206/150
f 191/207/151 378/208/151 334/209/151 192/210/151
f 250/95/56 310/211/56 311/96/56
f 311/96/56 362/94/56 399/93/56
f 399/93/56 255/212/56 291/213/56
f 311/96/56 399/93/56 291/213/56
f 291/213/56 292/194/56 344/87/56
f 344/87/56 259/86/56 386/88/56
f 311/96/56 291/213/56 344/87/56 386/88/56
f 250/95/56 311/96/56 386/88/56
f 387/89/56 250/95/56 386/88/56
f 244/213/67 256/213/67 414/212/78 355/212/78
f 258/87/63 257/194/103 348/194/103 306/87/63
f 239/211/70 251/211/70 410/95/79 413/95/79
f 355/212/78 414/212/78 254/93/50 242/93/50
f 220/214/152 350/215/152 312/132/105 381/131/104
f 405/168/153 317/216/153 345/217/153 264/169/153
f 287/218/154 261/167/134 407/166/133 389/219/155
f 274/181/113 273/183/141 198/220/156 197/221/117
f 273/222/141 281/135/108 199/138/111 198/223/156
f 202/157/129 295/169/136 293/224/140 203/154/126
f 373/225/119 376/226/157 394/227/157 392/228/120
f 300/177/158 330/63/158 332/62/158 298/229/158
f 211/76/64 412/79/64 397/230/64 351/231/64
f 381/131/104 282/134/107 275/232/159 287/218/154
f 189/148/160 214/186/160 216/185/160 383/233/160
f 341/70/161 347/73/161 380/234/161 335/235/161
f 196/236/118 227/237/162 226/238/163 195/153/125
f 345/217/153 364/239/153 263/224/153 264/169/153
f 389/219/155 381/131/104 287/218/154
f 222/189/164 213/188/164 186/182/164 361/240/164
f 112/241/165 48/242/165 94/242/165 102/241/165
f 144/36/166 89/37/166 87/37/39 110/36/38
f 136/92/80 105/243/80 117/243/80 26/92/80
f 301/244/139 396/9/9 279/139/112 283/172/124
f 175/46/48 81/245/36 87/246/39 140/47/49
f 324/184/167 375/187/167 188/147/167 206/247/167
f 420/248/168 331/249/168 301/250/139 314/251/138
f 231/252/169 230/253/170 199/254/111 200/255/110
f 230/253/170 229/256/171 198/220/156 199/254/111
f 195/153/125 226/238/163 225/257/172 194/150/122
f 368/258/173 337/259/173 315/260/173 313/261/173
f 194/150/122 225/257/172 224/202/149 193/262/130
f 193/262/130 224/202/149 235/201/148 204/263/132
f 232/264/174 231/252/169 200/255/110 201/170/137
f 276/265/175 280/266/109 373/147/119 409/149/121
f 233/156/128 232/264/174 201/170/137 202/157/129
f 185/267/176 205/268/176 360/269/176 366/270/176
f 275/232/159 282/134/107 204/163/132 293/178/140
f 204/263/132 235/201/148 234/155/127 203/154/126
f 225/257/172 418/89/177 236/88/146 224/202/149
f 226/238/163 238/95/178 418/89/177 225/257/172
f 13/271/56 25/241/56 31/242/56 24/36/56
f 241/94/179 309/96/180 228/272/181 229/256/171
f 371/213/182 243/212/183 231/252/169 232/264/174
f 354/93/184 241/94/179 229/256/171 230/253/170
f 243/212/183 354/93/184 230/253/170 231/252/169
f 233/156/128 245/194/144 371/213/182 232/264/174
f 92/90/56 90/92/56 14/243/56 15/91/56
f 228/272/181 309/96/180 308/211/185 227/237/162
f 308/211/185 238/95/178 226/238/163 227/237/162
f 247/86/147 246/87/143 234/155/127 235/201/148
f 34/241/103 103/241/103 109/271/103 32/271/103
f 67/122/102 71/120/100 73/82/57 65/84/59
f 145/242/79 47/36/79 111/36/79 95/242/79
f 252/96/80 251/211/70 239/211/70 240/96/80
f 257/194/103 256/213/67 244/213/67 348/194/103
f 62/105/88 61/85/60 4/33/33 3/31/31
f 273/222/141 367/141/114 305/144/116 281/135/108
f 228/272/181 227/237/162 196/236/118 197/221/117
f 398/103/86 294/224/186 365/239/186 363/104/87
f 388/273/187 390/196/187 343/195/187 377/274/187
f 79/7/7 10/6/6 11/38/41 178/34/40
f 272/127/103 267/275/103 268/276/103 277/128/103
f 218/277/188 217/278/188 389/219/155 407/166/133
f 260/102/189 266/101/189 271/217/190 419/279/190
f 271/217/190 270/280/191 262/149/191 419/279/190
f 268/276/103 269/281/103 278/173/103 277/128/103
f 417/265/192 408/149/193 384/280/193 318/282/194
f 316/216/195 265/168/195 417/265/192 318/282/194
f 229/256/171 228/272/181 197/221/117 198/220/156
f 200/255/110 404/168/135 201/170/137
f 61/85/60 73/82/57 72/119/99 60/18/18
f 200/255/110 280/266/109 276/265/175 404/168/135
f 221/61/196 208/60/196 182/176/196 338/283/196
f 181/284/197 219/72/197 321/71/197 369/285/197
