v -1.280000 1.280000 -1.280000
v 1.280000 1.280000 -1.280000
v 0.899382 1.280000 0.719991
v -0.740001 1.280000 0.719991
v 1.280000 1.280000 1.279974
v -1.280000 1.280000 1.279974
v -0.740001 1.220000 0.719991
v 0.899382 1.220000 0.719991
v -1.280000 1.280000 -1.220038
v 1.280000 1.280000 -1.220038
v 1.280009 1.260040 0.658705
v 0.760012 1.180040 1.118734
v 0.760012 1.200040 1.058830
v 0.760012 1.180040 1.078775
v 0.899391 1.260040 0.658705
v 0.899391 1.260040 0.718728
v -1.279991 1.260040 0.658705
v 1.280009 1.260040 -1.221301
v -0.739992 1.260040 0.658705
v -0.739992 1.260040 0.718728
v 1.280009 1.260040 1.278711
v -0.039993 1.180040 1.118734
v -1.279991 1.260040 1.278711
v -0.039993 1.180040 1.078775
v -0.519987 1.180040 1.118734
v -0.519987 1.200040 1.058830
v -0.519987 1.180040 1.078775
v 1.239997 1.180040 1.078775
v -1.279990 1.180040 1.118734
v 1.239996 1.180040 1.118734
v -1.279991 1.180040 1.218711
v 1.239997 1.200040 1.058830
v 1.280009 1.180040 1.118734
v 1.280009 1.180040 1.218711
v 0.899391 1.240040 0.718728
v 0.899391 1.200040 0.718728
v -0.739992 1.240040 0.718728
v -0.739992 1.200040 0.718728
v -0.739992 1.200040 0.798743
v 0.899391 1.200040 0.798743
v -1.279991 1.200040 0.718728
v -1.279991 1.200040 1.218711
v -1.279990 1.200040 1.118734
v 0.899391 1.240040 0.658705
v -1.279991 1.240040 0.658705
v -0.739992 1.240040 0.658705
v 1.280009 1.240040 0.658705
v 1.280009 1.200040 0.718728
v 1.280009 1.200040 1.118734
v 1.280009 1.200040 1.218711
v -0.739992 1.200040 0.958752
v 1.239996 1.200040 1.118734
v -0.519987 1.200040 1.118734
v -0.039993 1.200040 1.118734
v 0.760012 1.200040 1.118734
v -0.039993 1.200040 1.058830
v 0.899392 1.200040 0.958752
v 0.899392 1.190040 0.958752
v -0.739992 1.190040 0.798743
v 0.899391 1.190040 0.798743
v -0.739992 1.180040 0.878748
v -0.739992 1.190040 0.958752
v 0.899391 1.180040 0.878748
v -1.279991 1.260040 -1.221301
vt 0.343628 0.794445
vt 0.349040 0.792059
vt 1.000000 0.023423
vt 1.000000 0.757800
vt 0.851321 0.757800
vt 0.851321 0.843754
vt 0.851321 0.875006
vt 0.210937 0.875006
vt 0.210937 0.781247
vt 0.851321 0.781247
vt 0.210937 0.812503
vt 0.656784 0.888834
vt 0.656784 0.887085
vt 0.210937 0.757800
vt 0.000000 0.023423
vt 0.296876 0.914099
vt 0.296876 0.937499
vt 0.296876 0.921890
vt 0.484374 0.937499
vt 0.000000 0.975809
vt 0.000004 0.971541
vt 0.999996 0.975809
vt 0.984370 0.914099
vt 0.984370 0.921890
vt 0.796876 0.921890
vt 1.000000 0.971541
vt 0.036380 0.991186
vt 0.963620 0.991186
vt 0.000000 0.000000
vt 0.648433 0.856404
vt 0.609150 0.856404
vt 0.000000 0.964934
vt 0.000000 0.954786
vt 1.000000 0.964934
vt 0.000000 0.781247
vt 0.851321 0.812503
vt 1.000000 0.781247
vt 0.852871 0.875006
vt 0.484374 0.914099
vt 0.796876 0.937499
vt 1.000000 0.976552
vt 0.000000 0.937499
vt 0.210937 0.843754
vt 0.984370 0.937499
vt 1.000000 0.937499
vt 0.036380 0.983408
vt 0.484374 0.921890
vt 0.655449 0.888834
vt 0.655449 0.886212
vt 0.655449 0.887085
vt 0.963620 0.983408
vt 0.218749 0.781247
vt 0.218749 0.812503
vt 0.664535 0.894811
vt 0.664535 0.887935
vt -0.000000 0.976552
vt 0.796876 0.914099
vt 0.664535 0.881059
vt 0.000000 0.757800
vt 0.669782 0.881059
vt 0.669782 0.887935
vt 0.847448 0.783436
vt 0.214810 0.783436
vt 0.669782 0.894811
vt 0.677792 0.888834
vt 0.677792 0.887085
vt 0.836673 0.780270
vt 0.676458 0.886212
vt 0.676458 0.888834
vt 0.676458 0.887085
vt 0.656784 0.886212
vt 1.000000 0.954786
vt 0.677792 0.886212
vn 1.000000 -0.000000 -0.000000
vn 0.000000 -1.000000 0.000000
vn -0.000000 -0.992300 0.124000
vn -0.000000 -0.894500 -0.447100
vn -1.000000 0.000000 0.000000
vn 0.000000 -0.063200 0.998000
vn -0.000000 -0.706100 -0.708100
vn 0.000000 0.063200 -0.998000
vn 1.000000 0.000000 0.007300
vn 0.000000 0.000000 1.000000
vn -1.000000 -0.000100 -0.000000
vn -0.000000 -0.707100 0.707100
vn -1.000000 -0.000400 -0.000300
vn 1.000000 0.000400 0.000000
vn 1.000000 -0.000200 0.000100
vn -0.000000 -0.992300 -0.124000
vn 0.000000 0.000000 -1.000000
vn 1.000000 0.000400 0.000300
vn -1.000000 0.000000 -0.007300
vn -1.000000 -0.000500 0.000000
vn -1.000000 -0.000400 0.000000
vn 0.000000 -0.832200 -0.554500
vn 1.000000 0.000100 0.000000
vn 1.000000 0.000500 -0.000000
vn 0.000000 -0.832200 -0.554600
vn -1.000000 -0.000500 0.000500
vn 1.000000 0.000500 -0.000500
vn -1.000000 0.000200 -0.000100
s off
f 49/1/1 48/1/1 11/2/1
f 18/3/2 11/4/2 15/5/2
f 50/1/1 34/1/1 49/1/1
f 63/6/3 58/7/3 62/8/3
f 37/9/4 35/10/4 39/11/4
f 12/12/5 55/12/5 14/13/5
f 19/14/2 64/15/2 18/3/2
f 26/16/2 53/17/2 51/8/2
f 25/17/2 27/18/2 22/19/2
f 6/20/6 23/21/6 5/22/6
f 32/23/7 28/24/7 14/25/7
f 23/21/6 21/26/6 5/22/6
f 9/27/8 10/28/8 64/27/8
f 36/29/9 35/29/9 8/29/9
f 57/30/10 51/31/10 58/30/10
f 17/1/11 43/1/11 6/1/11
f 23/32/12 42/33/12 21/34/12
f 46/14/1 19/14/1 20/29/1
f 44/5/13 36/29/13 8/29/13
f 3/29/9 35/29/9 16/29/9
f 10/28/8 18/28/8 64/27/8
f 11/2/14 10/2/14 5/1/14
f 41/35/2 39/11/2 51/8/2
f 40/36/2 48/37/2 32/23/2
f 51/8/2 57/38/2 56/39/2
f 20/29/15 7/29/15 46/14/15
f 22/19/2 12/40/2 34/41/2
f 53/17/2 43/42/2 51/8/2
f 59/11/16 60/36/16 61/43/16
f 52/44/17 49/45/17 30/44/17
f 10/28/2 9/27/2 1/46/2
f 35/10/4 40/36/4 39/11/4
f 7/29/18 38/9/18 46/14/18
f 35/29/9 3/29/9 8/29/9
f 4/29/19 37/29/19 7/29/19
f 6/1/20 9/2/20 17/1/20
f 56/39/7 24/47/7 27/18/7
f 43/42/17 53/17/17 29/42/17
f 53/48/5 26/49/5 27/50/5
f 48/37/2 49/45/2 32/23/2
f 2/51/2 10/28/2 1/46/2
f 57/38/2 40/36/2 32/23/2
f 43/42/2 41/35/2 51/8/2
f 4/29/19 20/29/19 37/29/19
f 36/10/5 40/36/5 35/10/5
f 38/52/1 37/52/1 39/53/1
f 62/54/5 51/54/5 61/55/5
f 25/17/2 22/19/2 31/56/2
f 38/29/19 7/29/19 37/29/19
f 9/2/21 64/2/21 17/1/21
f 34/41/2 31/56/2 22/19/2
f 17/1/5 45/1/5 41/1/5
f 57/38/2 32/23/2 13/57/2
f 39/58/5 59/58/5 61/55/5
f 53/17/17 25/17/17 29/42/17
f 45/59/22 46/14/22 41/35/22
f 60/60/1 40/60/1 63/61/1
f 5/1/23 49/1/23 11/2/23
f 18/2/24 10/2/24 11/2/24
f 39/58/5 61/55/5 51/54/5
f 18/3/2 15/5/2 19/14/2
f 40/62/17 60/62/17 59/63/17
f 15/5/17 11/4/17 44/5/17
f 57/64/1 63/61/1 40/60/1
f 19/14/17 46/14/17 45/59/17
f 5/1/23 50/1/23 49/1/23
f 43/1/5 31/1/5 42/1/5
f 52/65/1 30/65/1 28/66/1
f 38/9/2 39/11/2 41/35/2
f 51/31/10 62/31/10 58/30/10
f 46/14/22 38/9/22 41/35/22
f 17/1/5 41/1/5 43/1/5
f 20/9/17 16/67/17 37/9/17
f 15/5/2 16/10/2 20/9/2
f 56/68/1 54/69/1 24/70/1
f 13/57/7 32/23/7 14/25/7
f 48/1/1 47/1/1 11/2/1
f 43/1/5 29/1/5 31/1/5
f 25/48/5 53/48/5 27/50/5
f 34/1/1 33/1/1 49/1/1
f 16/67/17 35/67/17 37/9/17
f 27/18/2 24/47/2 22/19/2
f 12/40/2 30/44/2 34/41/2
f 49/45/17 33/45/17 30/44/17
f 55/40/17 12/40/17 22/19/17
f 30/44/2 33/45/2 34/41/2
f 36/10/25 44/5/25 48/37/25
f 20/29/9 4/29/9 7/29/9
f 8/29/19 3/29/19 16/10/19
f 11/4/17 47/4/17 44/5/17
f 31/56/10 34/41/10 50/41/10
f 15/5/2 20/9/2 19/14/2
f 49/45/2 52/44/2 32/23/2
f 17/59/2 64/15/2 19/14/2
f 39/63/17 40/62/17 59/63/17
f 44/5/22 47/4/22 48/37/22
f 13/57/2 56/39/2 57/38/2
f 14/25/2 28/24/2 30/44/2
f 56/39/2 26/16/2 51/8/2
f 57/64/1 58/64/1 63/61/1
f 40/36/2 36/10/2 48/37/2
f 54/69/1 22/69/1 24/70/1
f 42/56/10 31/56/10 50/41/10
f 61/43/3 63/6/3 62/8/3
f 54/19/17 55/40/17 22/19/17
f 23/1/26 6/1/26 42/1/26
f 13/57/2 54/19/2 56/39/2
f 16/10/5 15/5/5 44/5/5
f 13/57/2 55/40/2 54/19/2
f 60/36/16 63/6/16 61/43/16
f 31/56/2 29/42/2 25/17/2
f 5/1/27 21/1/27 50/1/27
f 17/59/17 19/14/17 45/59/17
f 55/12/5 13/71/5 14/13/5
f 42/33/12 50/72/12 21/34/12
f 16/10/28 44/5/28 8/29/28
f 42/1/11 6/1/11 43/1/11
f 12/40/2 14/25/2 30/44/2
f 26/16/7 56/39/7 27/18/7
f 32/73/1 52/65/1 28/66/1
