v -1.280000 1.280000 -1.280000
v 1.280000 1.280000 -1.280000
v 0.899382 1.280000 0.719991
v -0.740001 1.280000 0.719991
v 1.280000 1.280000 1.279974
v -1.280000 1.280000 1.279974
v -0.740001 1.220000 0.719991
v 0.899382 1.220000 0.719991
v -1.280000 1.280000 -1.220038
v 1.280000 1.280000 -1.220038
v 1.280009 1.260040 0.658705
v 0.760012 1.180040 1.118734
v 0.760012 1.200040 1.058830
v 0.760012 1.180040 1.078775
v 0.899391 1.260040 0.658705
v 0.899391 1.260040 0.718728
v -1.279991 1.260040 0.658705
v 1.280009 1.260040 -1.221301
v -0.739992 1.260040 0.658705
v -0.739992 1.260040 0.718728
v 1.280009 1.260040 1.278711
v -0.039993 1.180040 1.118734
v -1.279991 1.260040 1.278711
v -0.039993 1.180040 1.078775
v -0.519987 1.180040 1.118734
v -0.519987 1.200040 1.058830
v -0.519987 1.180040 1.078775
v 1.239997 1.180040 1.078775
v -1.279990 1.180040 1.118734
v 1.239996 1.180040 1.118734
v -1.279991 1.180040 1.218711
v 1.239997 1.200040 1.058830
v 1.280009 1.180040 1.118734
v 1.280009 1.180040 1.218711
v 0.899391 1.240040 0.718728
v 0.899391 1.200040 0.718728
v -0.739992 1.240040 0.718728
v -0.739992 1.200040 0.718728
v -0.739992 1.200040 0.798743
v 0.899391 1.200040 0.798743
v -1.279991 1.200040 0.718728
v -1.279991 1.200040 1.218711
v -1.279990 1.200040 1.118734
v 0.899391 1.240040 0.658705
v -1.279991 1.240040 0.658705
v -0.739992 1.240040 0.658705
v 1.280009 1.240040 0.658705
v 1.280009 1.200040 0.718728
v 1.280009 1.200040 1.118734
v 1.280009 1.200040 1.218711
v -0.739992 1.200040 0.958752
v 1.239996 1.200040 1.118734
v -0.519987 1.200040 1.118734
v -0.039993 1.200040 1.118734
v 0.760012 1.200040 1.118734
v -0.039993 1.200040 1.058830
v 0.899392 1.200040 0.958752
v 0.899392 1.190040 0.958752
v -0.739992 1.190040 0.798743
v 0.899391 1.190040 0.798743
v -0.739992 1.180040 0.878748
v -0.739992 1.190040 0.958752
v 0.899391 1.180040 0.878748
v -1.279991 1.260040 -1.221301
v 1.280000 1.280000 1.218710
v -1.280000 1.280000 1.218711
v 0.913314 1.280040 0.079517
v 0.913314 1.280040 -0.701272
v -0.238761 1.280040 0.079517
v -0.238760 1.280040 -0.701272
v -0.282441 1.260040 -0.742223
v -0.282441 1.260040 0.120468
v -0.282441 1.260040 -1.221301
v 0.956996 1.260040 -0.742223
v 0.956992 1.260040 0.120468
vt 0.851322 0.812017
vt 0.210940 0.812017
vt 0.851322 0.843269
vt 0.999996 0.023423
vt 0.000000 0.023423
vt 0.000000 0.000000
vt 1.000000 0.976069
vt 0.000004 0.976069
vt 0.484376 0.937015
vt 0.210940 0.843269
vt 0.851322 0.780761
vt 0.210940 0.780761
vt 0.000004 0.937015
vt 0.851318 0.781254
vt 0.873823 0.210071
vt 0.389670 0.022930
vt 1.000000 0.022930
vt 0.210940 0.757314
vt 0.000004 0.780761
vt 0.296879 0.921406
vt 0.484376 0.921406
vt 0.210936 0.781254
vt 0.000004 0.757314
vt 0.565295 0.925126
vt 0.565295 0.922376
vt 0.258233 0.760913
vt 0.258233 0.778472
vt 0.210940 0.874521
vt 0.296879 0.937015
vt 0.851322 0.874521
vt 1.000000 0.757314
vt 0.851322 0.757314
vt 1.000000 0.937015
vt 0.292415 0.937015
vt 0.292415 0.913615
vt 0.292415 0.921406
vt 0.484376 0.913615
vt 0.796877 0.937015
vt 0.984370 0.937015
vt 0.680241 0.925070
vt 0.680241 0.922376
vt 0.873822 0.547063
vt 0.389670 0.547063
vt 0.000004 0.022930
vt 0.406733 0.531067
vt 0.991067 0.937015
vt 0.991067 0.921406
vt 0.389670 0.210071
vt 0.991067 0.913615
vt 1.000000 0.780761
vt 0.874375 0.534329
vt 0.858371 0.519541
vt 0.874377 0.222806
vt 0.856226 0.530705
vt 0.407266 0.530705
vt 0.856226 0.226430
vt 0.984370 0.913615
vt 0.796877 0.913615
vt 0.296879 0.913615
vt 0.205917 0.780761
vt 0.205917 0.757314
vt 0.205914 0.781254
vt 0.796179 0.936400
vt 0.796179 0.921775
vt 0.999996 0.000000
vt 0.856760 0.531067
vt 0.984370 0.921406
vt 0.796877 0.921406
vt 0.407267 0.226430
vt 0.389670 0.216404
vt 0.406733 0.231800
vt 0.389670 0.540730
vt 0.858371 0.237593
vt 0.796179 0.914475
vt 0.508357 0.926266
vt 0.779033 0.926266
vt 0.779032 0.926400
vt 0.508356 0.926400
vt 0.863532 0.210071
vt 0.847194 0.226068
vt 0.399961 0.210071
vt 0.416299 0.226068
vt 0.779033 0.919922
vt 0.508357 0.919922
vt 0.406733 0.525335
vn 0.000000 0.000000 -1.000000
vn -0.000000 -0.992300 -0.124000
vn 0.000000 -1.000000 0.000000
vn -1.000000 0.000000 0.000000
vn 1.000000 0.000000 0.007300
vn -0.000000 -0.894500 -0.447100
vn 0.000000 0.063200 -0.998000
vn 0.000000 -0.832200 -0.554500
vn -1.000000 0.000000 -0.007300
vn -1.000000 -0.000400 0.000000
vn 1.000000 0.000000 0.000000
vn 1.000000 0.000100 0.000000
vn -1.000000 -0.000100 0.000100
vn -0.000000 -0.706100 -0.708100
vn 1.000000 0.000100 -0.000100
vn -1.000000 -0.000100 -0.000000
vn -0.000000 -0.898600 -0.438800
vn -1.000000 -0.000500 0.000000
vn 0.000000 -0.832200 -0.554600
vn 0.000000 0.000000 1.000000
vn -0.416300 -0.909200 -0.000000
vn 1.000000 0.000500 -0.000000
vn 1.000000 0.000400 0.000300
vn -1.000000 -0.000400 -0.000300
vn 0.416300 -0.909200 0.000000
vn 1.000000 0.000400 0.000000
vn -1.000000 0.000200 -0.000100
vn 0.000000 -0.063200 0.998000
vn -0.000000 -0.898600 0.438800
vn -0.000000 -0.898600 0.438900
vn 1.000000 -0.000200 0.000100
vn -0.000000 -0.992300 0.124000
vn -0.000000 -0.707100 0.707100
s off
f 40/1/1 60/1/1 59/2/1
f 60/1/2 63/3/2 59/2/2
f 10/4/3 9/5/3 1/6/3
f 34/7/3 31/8/3 22/9/3
f 59/2/4 61/10/4 39/2/4
f 35/11/1 37/12/1 20/12/1
f 29/13/4 31/8/4 42/8/4
f 8/14/5 36/11/5 35/11/5
f 74/15/3 73/16/3 18/17/3
f 40/1/6 39/2/6 37/12/6
f 10/4/7 73/16/7 9/5/7
f 46/18/8 38/12/8 41/19/8
f 63/3/2 61/10/2 59/2/2
f 27/20/3 24/21/3 22/9/3
f 4/22/9 20/12/9 37/12/9
f 38/12/3 39/2/3 41/19/3
f 17/23/4 41/19/4 43/13/4
f 6/24/10 66/25/10 23/24/10
f 36/11/4 40/1/4 35/11/4
f 38/26/11 37/26/11 39/27/11
f 61/10/4 62/28/4 51/28/4
f 53/29/1 25/29/1 43/13/1
f 57/30/11 58/30/11 63/3/11
f 19/18/1 46/18/1 45/23/1
f 47/31/1 44/32/1 15/32/1
f 25/29/3 27/20/3 22/9/3
f 65/7/12 49/33/12 11/31/12
f 53/34/4 26/35/4 27/36/4
f 66/25/13 42/25/13 23/24/13
f 56/37/14 24/21/14 27/20/14
f 12/38/3 30/39/3 34/7/3
f 53/29/3 43/13/3 51/28/3
f 21/40/15 50/41/15 65/41/15
f 55/38/1 12/38/1 22/9/1
f 16/11/1 35/11/1 20/12/1
f 17/23/16 43/13/16 66/8/16
f 18/17/3 11/31/3 75/42/3
f 72/43/3 17/23/3 64/44/3
f 63/3/11 60/1/11 40/1/11
f 75/42/17 72/43/17 69/45/17
f 66/8/18 9/5/18 17/23/18
f 43/13/16 42/8/16 66/8/16
f 52/46/11 30/46/11 28/47/11
f 73/16/3 74/15/3 71/48/3
f 32/49/11 52/46/11 28/47/11
f 36/11/19 44/32/19 48/50/19
f 51/28/4 39/2/4 61/10/4
f 51/28/20 62/28/20 57/30/20
f 75/51/21 67/52/21 74/53/21
f 67/54/3 69/55/3 68/56/3
f 18/17/22 10/4/22 11/31/22
f 42/8/20 31/8/20 50/7/20
f 57/30/3 32/57/3 13/58/3
f 54/9/11 22/9/11 24/21/11
f 17/23/1 19/18/1 45/23/1
f 19/18/3 17/23/3 72/43/3
f 71/48/3 72/43/3 64/44/3
f 49/33/1 33/33/1 52/39/1
f 13/58/3 54/9/3 56/37/3
f 26/59/14 56/37/14 27/20/14
f 56/37/11 54/9/11 24/21/11
f 49/33/3 52/39/3 32/57/3
f 38/60/23 46/61/23 7/62/23
f 44/32/24 36/11/24 8/14/24
f 40/1/3 48/50/3 32/57/3
f 43/13/3 41/19/3 51/28/3
f 12/63/4 55/63/4 14/64/4
f 22/9/3 12/38/3 34/7/3
f 46/61/11 19/61/11 20/60/11
f 2/65/3 10/4/3 1/6/3
f 4/22/9 37/12/9 7/22/9
f 15/32/3 16/11/3 72/43/3
f 50/7/11 34/7/11 33/33/11
f 20/12/3 19/18/3 72/43/3
f 67/66/17 75/42/17 69/45/17
f 13/58/3 55/38/3 54/9/3
f 54/9/1 55/38/1 22/9/1
f 32/57/14 28/67/14 14/68/14
f 15/32/3 75/42/3 11/31/3
f 57/30/3 13/58/3 56/37/3
f 17/23/4 45/23/4 41/19/4
f 69/55/3 70/69/3 68/56/3
f 56/37/3 26/59/3 51/28/3
f 11/31/1 47/31/1 15/32/1
f 40/1/3 36/11/3 48/50/3
f 13/58/14 32/57/14 14/68/14
f 33/33/1 30/39/1 52/39/1
f 48/50/3 49/33/3 32/57/3
f 64/44/3 73/16/3 71/48/3
f 14/68/3 28/67/3 30/39/3
f 71/70/25 70/71/25 72/72/25
f 5/40/26 21/40/26 65/41/26
f 9/5/10 64/44/10 17/23/10
f 67/52/21 68/73/21 74/53/21
f 62/28/20 58/30/20 57/30/20
f 11/31/22 10/4/22 65/7/22
f 40/1/11 57/30/11 63/3/11
f 49/33/11 48/50/11 11/31/11
f 20/12/3 72/43/3 16/11/3
f 75/42/3 74/15/3 18/17/3
f 10/4/7 18/17/7 73/16/7
f 57/30/3 40/1/3 32/57/3
f 35/11/5 16/11/5 3/14/5
f 16/11/4 15/32/4 44/32/4
f 39/2/1 40/1/1 59/2/1
f 16/11/27 44/32/27 8/14/27
f 33/33/3 34/7/3 30/39/3
f 48/50/11 47/31/11 11/31/11
f 25/34/4 53/34/4 27/36/4
f 26/59/3 53/29/3 51/28/3
f 31/8/3 29/13/3 25/29/3
f 31/8/20 34/7/20 50/7/20
f 55/63/4 13/74/4 14/64/4
f 8/14/9 3/14/9 16/11/9
f 50/7/11 33/33/11 49/33/11
f 35/11/6 40/1/6 37/12/6
f 45/23/8 46/18/8 41/19/8
f 25/29/3 22/9/3 31/8/3
f 64/44/7 9/5/7 73/16/7
f 23/75/28 21/76/28 5/77/28
f 51/28/3 57/30/3 56/37/3
f 15/32/3 72/43/3 75/42/3
f 41/19/3 39/2/3 51/28/3
f 6/78/28 23/75/28 5/77/28
f 74/79/29 68/80/29 71/81/29
f 68/80/30 70/82/30 71/81/30
f 4/62/5 7/62/5 20/60/5
f 20/60/31 7/62/31 46/61/31
f 29/13/4 42/8/4 43/13/4
f 61/10/32 63/3/32 62/28/32
f 50/83/33 21/76/33 23/75/33
f 63/3/32 58/30/32 62/28/32
f 38/12/9 7/22/9 37/12/9
f 25/29/1 29/13/1 43/13/1
f 44/32/8 47/31/8 48/50/8
f 42/84/33 50/83/33 23/75/33
f 70/71/25 69/85/25 72/72/25
f 3/14/5 8/14/5 35/11/5
f 12/38/3 14/68/3 30/39/3
f 65/7/12 50/7/12 49/33/12
