# Blender v2.76 (sub 0) OBJ File: 'healthkit.blend'
# www.blender.org
v 0.058942 -0.089433 0.205326
v 0.108912 -0.089433 0.181812
v 0.142300 -0.089433 0.146622
v 0.144770 -0.085475 0.095769
v 0.142300 -0.089433 0.058987
v 0.108912 -0.089433 0.023797
v 0.058943 -0.089433 0.000284
v 0.054456 -0.122093 0.205326
v 0.100621 -0.149781 0.181812
v 0.131468 -0.168281 0.146622
v 0.133750 -0.167114 0.095769
v 0.131468 -0.168281 0.058987
v 0.100621 -0.149781 0.023797
v 0.054456 -0.122093 0.000284
v 0.041679 -0.149781 0.205326
v 0.077012 -0.200941 0.181812
v 0.100621 -0.235125 0.146622
v 0.102368 -0.236324 0.095769
v 0.100621 -0.235125 0.058987
v 0.077012 -0.200941 0.023797
v 0.041679 -0.149781 0.000284
v 0.022556 -0.168281 0.205326
v 0.041679 -0.235125 0.181812
v 0.054456 -0.279789 0.146622
v 0.055401 -0.282569 0.095769
v 0.054456 -0.279789 0.058987
v 0.041679 -0.235125 0.023797
v 0.022556 -0.168281 0.000284
v 0.000000 -0.174778 0.205326
v 0.000000 -0.247129 0.181812
v 0.000000 -0.295473 0.146622
v 0.000000 -0.298808 0.095769
v 0.000000 -0.295473 0.058987
v 0.000000 -0.247129 0.023797
v 0.000000 -0.174778 0.000284
v -0.022556 -0.168281 0.205326
v -0.041679 -0.235125 0.181812
v -0.054456 -0.279789 0.146622
v -0.055401 -0.282569 0.095769
v -0.054456 -0.279789 0.058987
v -0.041679 -0.235125 0.023797
v -0.022556 -0.168281 0.000284
v 0.000000 -0.089433 0.213582
v -0.041679 -0.149781 0.205326
v -0.077012 -0.200941 0.181812
v -0.100621 -0.235125 0.146622
v -0.102367 -0.236324 0.095769
v -0.100621 -0.235125 0.058987
v -0.077012 -0.200941 0.023797
v -0.041679 -0.149781 0.000284
v -0.054456 -0.122093 0.205326
v -0.100621 -0.149781 0.181812
v -0.131468 -0.168281 0.146622
v -0.133750 -0.167114 0.095769
v -0.131468 -0.168281 0.058987
v -0.100621 -0.149781 0.023797
v -0.054456 -0.122093 0.000284
v -0.058942 -0.089433 0.205326
v -0.108911 -0.089433 0.181812
v -0.142300 -0.089433 0.146622
v -0.144769 -0.085475 0.095769
v -0.142300 -0.089433 0.058987
v -0.108911 -0.089433 0.023797
v -0.058942 -0.089433 0.000284
v -0.058942 0.026832 0.000284
v -0.108911 0.026832 0.023797
v -0.142300 0.026832 0.058987
v -0.144769 0.026832 0.095769
v -0.142300 0.026832 0.146622
v -0.108911 0.026832 0.181812
v -0.058942 0.026832 0.205326
v 0.000000 0.026832 0.213582
v 0.058943 0.026832 0.000284
v 0.108912 0.026832 0.023797
v 0.142300 0.026832 0.058987
v 0.144770 0.026832 0.095769
v 0.142300 0.026832 0.146622
v 0.108912 0.026832 0.181812
v 0.058942 0.026832 0.205326
v 0.058942 0.092794 0.205326
v 0.108912 0.092794 0.181812
v 0.142300 0.092794 0.146622
v 0.144770 0.092794 0.095769
v 0.142300 0.092794 0.058987
v 0.108912 0.092794 0.023797
v 0.058943 0.092794 0.000284
v 0.054456 0.125510 0.205326
v 0.100621 0.153198 0.181812
v 0.131468 0.171698 0.146622
v 0.133750 0.172144 0.095769
v 0.131468 0.171698 0.058987
v 0.100621 0.153198 0.023797
v 0.054456 0.125510 0.000284
v 0.041679 0.153198 0.205326
v 0.077012 0.204358 0.181812
v 0.100621 0.238542 0.146622
v 0.102368 0.241354 0.095769
v 0.100621 0.238542 0.058987
v 0.077012 0.204358 0.023797
v 0.041679 0.153198 0.000284
v 0.022556 0.171698 0.205326
v 0.041679 0.238542 0.181812
v 0.054456 0.283206 0.146622
v 0.055401 0.287599 0.095769
v 0.054456 0.283206 0.058987
v 0.041679 0.238542 0.023797
v 0.022556 0.171698 0.000284
v 0.000000 0.178194 0.205326
v 0.000000 0.250546 0.181812
v 0.000000 0.298890 0.146622
v 0.000000 0.303838 0.095769
v 0.000000 0.298890 0.058987
v 0.000000 0.250546 0.023797
v 0.000000 0.178194 0.000284
v -0.022556 0.171698 0.205326
v -0.041679 0.238542 0.181812
v -0.054456 0.283206 0.146622
v -0.055401 0.287599 0.095769
v -0.054456 0.283206 0.058987
v -0.041679 0.238542 0.023797
v -0.022556 0.171698 0.000284
v 0.000000 0.092794 0.213582
v -0.041679 0.153198 0.205326
v -0.077012 0.204358 0.181812
v -0.100621 0.238542 0.146622
v -0.102367 0.241354 0.095769
v -0.100621 0.238542 0.058987
v -0.077012 0.204358 0.023797
v -0.041679 0.153198 0.000284
v -0.054456 0.125510 0.205326
v -0.100621 0.153198 0.181812
v -0.131468 0.171698 0.146622
v -0.133750 0.172144 0.095769
v -0.131468 0.171698 0.058987
v -0.100621 0.153198 0.023797
v -0.054456 0.125510 0.000284
v -0.058942 0.092794 0.205326
v -0.108911 0.092794 0.181812
v -0.142300 0.092794 0.146622
v -0.144769 0.092794 0.095769
v -0.142300 0.092794 0.058987
v -0.108911 0.092794 0.023797
v -0.058942 0.092794 0.000284
v 0.142300 0.084750 0.146622
v 0.142300 0.034637 0.146622
v -0.142300 0.084750 0.058987
v -0.142300 0.034637 0.058987
v -0.144769 0.084750 0.095769
v -0.144769 0.034637 0.095769
v 0.058942 0.084750 0.205326
v 0.058942 0.034637 0.205326
v -0.108911 0.084750 0.181812
v -0.108911 0.034637 0.181812
v 0.108912 0.084750 0.023797
v 0.108912 0.034637 0.023797
v 0.000000 0.084750 0.213582
v 0.000000 0.034637 0.213582
v 0.144770 0.084750 0.095769
v 0.144770 0.034637 0.095769
v -0.142300 0.084750 0.146622
v -0.142300 0.034637 0.146622
v 0.108912 0.084750 0.181812
v 0.108912 0.034637 0.181812
v -0.058942 0.084750 0.205326
v -0.058942 0.034637 0.205326
v -0.058942 0.084750 0.000284
v -0.058942 0.034637 0.000284
v -0.108911 0.084750 0.023797
v -0.108911 0.034637 0.023797
v 0.142300 0.084750 0.058987
v 0.142300 0.034637 0.058987
v 0.058943 0.084750 0.000284
v 0.058943 0.034637 0.000284
v 0.136608 0.026832 0.144962
v 0.136608 0.034637 0.144962
v -0.136608 0.026832 0.060648
v -0.136608 0.034637 0.060648
v 0.056585 0.026832 0.201317
v 0.056585 0.034637 0.201317
v -0.104555 0.026832 0.178744
v -0.104555 0.034637 0.178744
v 0.000000 0.026832 0.004594
v 0.000000 0.034637 0.004594
v 0.104555 0.026832 0.026865
v 0.104555 0.034637 0.026865
v 0.000000 0.026832 0.209243
v 0.000000 0.034637 0.209243
v -0.136608 0.034637 0.144962
v -0.136608 0.026832 0.144962
v 0.104555 0.034637 0.178744
v 0.104555 0.026832 0.178744
v -0.056585 0.034637 0.201317
v -0.056585 0.026832 0.201317
v -0.056585 0.034637 0.004293
v -0.056585 0.026832 0.004293
v -0.104555 0.034637 0.026865
v -0.104555 0.026832 0.026865
v 0.136608 0.034637 0.060648
v 0.136608 0.026832 0.060648
v 0.056585 0.034637 0.004293
v 0.056585 0.026832 0.004293
v 0.056585 0.092794 0.004293
v 0.056585 0.084750 0.004293
v 0.136608 0.092794 0.060648
v 0.136608 0.084750 0.060648
v -0.104555 0.092794 0.026865
v -0.104555 0.084750 0.026865
v -0.056585 0.092794 0.004293
v -0.056585 0.084750 0.004293
v -0.056585 0.092794 0.201317
v -0.056585 0.084750 0.201317
v 0.104555 0.092794 0.178744
v 0.104555 0.084750 0.178744
v -0.136608 0.092794 0.144962
v -0.136608 0.084750 0.144962
v 0.000000 0.084750 0.209243
v 0.000000 0.092794 0.209243
v 0.104555 0.084750 0.026865
v 0.104555 0.092794 0.026865
v 0.000000 0.084750 0.004594
v 0.000000 0.092794 0.004594
v -0.104555 0.084750 0.178744
v -0.104555 0.092794 0.178744
v 0.056585 0.084750 0.201317
v 0.056585 0.092794 0.201317
v -0.136608 0.084750 0.060648
v -0.136608 0.092794 0.060648
v 0.136608 0.084750 0.144962
v 0.136608 0.092794 0.144962
v 0.152365 -0.089433 0.110987
v 0.140767 -0.173858 0.110987
v 0.107738 -0.245431 0.110987
v 0.058308 -0.293254 0.110987
v 0.000000 -0.310047 0.110987
v -0.058308 -0.293254 0.110987
v -0.107738 -0.245431 0.110987
v -0.140767 -0.173858 0.110987
v -0.152365 -0.089433 0.110987
v 0.152365 0.026832 0.110987
v -0.152365 0.026832 0.110987
v 0.152365 0.092794 0.110987
v 0.140767 0.177275 0.110987
v 0.107738 0.248848 0.110987
v 0.058308 0.296670 0.110987
v 0.000000 0.313464 0.110987
v -0.058308 0.296670 0.110987
v -0.107738 0.248848 0.110987
v -0.140767 0.177275 0.110987
v -0.152365 0.092794 0.110987
v 0.152365 0.084750 0.110987
v 0.152365 0.034637 0.110987
v -0.152365 0.084750 0.110987
v -0.152365 0.034637 0.110987
v 0.144691 0.034637 0.110135
v 0.144691 0.026832 0.110135
v -0.144691 0.034637 0.110135
v -0.144691 0.026832 0.110135
v 0.144691 0.092794 0.110135
v 0.144691 0.084750 0.110135
v -0.144691 0.092794 0.110135
v -0.144691 0.084750 0.110135
v 0.152265 -0.089433 0.094270
v 0.140675 -0.173803 0.094270
v 0.107668 -0.245329 0.094270
v 0.058269 -0.293121 0.094270
v 0.000000 -0.309903 0.094270
v -0.058269 -0.293121 0.094270
v -0.107668 -0.245329 0.094270
v -0.140675 -0.173803 0.094270
v -0.152265 -0.089433 0.094270
v -0.152265 0.026832 0.094270
v 0.152265 0.026832 0.094270
v 0.152265 0.092794 0.094270
v 0.140675 0.177220 0.094270
v 0.107668 0.248746 0.094270
v 0.058269 0.296537 0.094270
v 0.000000 0.313320 0.094270
v -0.058269 0.296537 0.094270
v -0.107668 0.248746 0.094270
v -0.140675 0.177220 0.094270
v -0.152265 0.092794 0.094270
v -0.152265 0.084750 0.094270
v -0.152265 0.034637 0.094270
v 0.152265 0.084750 0.094270
v 0.152265 0.034637 0.094270
v 0.144691 -0.085475 0.110135
v 0.133677 -0.167069 0.110135
v 0.102312 -0.236242 0.110135
v 0.055371 -0.282462 0.110135
v 0.000000 -0.298692 0.110135
v -0.055371 -0.282462 0.110135
v -0.102312 -0.236242 0.110135
v -0.133677 -0.167069 0.110135
v -0.144691 -0.085475 0.110135
v 0.133677 0.172100 0.110135
v 0.102312 0.241272 0.110135
v 0.055371 0.287492 0.110135
v 0.000000 0.303722 0.110135
v -0.055371 0.287492 0.110135
v -0.102312 0.241272 0.110135
v -0.133677 0.172100 0.110135
v 0.144770 -0.085475 0.095769
v 0.133750 -0.167114 0.095769
v 0.102368 -0.236324 0.095769
v 0.055401 -0.282569 0.095769
v 0.000000 -0.298808 0.095769
v -0.055401 -0.282569 0.095769
v -0.102367 -0.236324 0.095769
v -0.133750 -0.167114 0.095769
v -0.144769 -0.085475 0.095769
v -0.144769 0.026832 0.095769
v -0.144769 0.026832 0.095769
v 0.000000 0.026832 0.213582
v -0.058942 0.026832 0.205326
v -0.108911 0.026832 0.023797
v -0.058942 0.026832 0.000284
v -0.152265 0.026832 0.094270
v -0.152265 0.026832 0.094270
v -0.142300 0.026832 0.058987
v -0.108911 0.026832 0.181812
v -0.142300 0.026832 0.146622
v 0.108912 0.026832 0.023797
v 0.058943 0.026832 0.000284
v 0.152265 0.026832 0.094270
v 0.152265 0.026832 0.094270
v 0.142300 0.026832 0.058987
v 0.144770 0.026832 0.095769
v 0.144770 0.026832 0.095769
v 0.108912 0.026832 0.181812
v 0.142300 0.026832 0.146622
v 0.058942 0.026832 0.205326
v 0.058942 0.092794 0.205326
v 0.108912 0.092794 0.181812
v 0.142300 0.092794 0.146622
v 0.152265 0.092794 0.094270
v 0.152265 0.092794 0.094270
v 0.142300 0.092794 0.058987
v 0.108912 0.092794 0.023797
v 0.058943 0.092794 0.000284
v 0.144770 0.092794 0.095769
v 0.144770 0.092794 0.095769
v 0.133750 0.172144 0.095769
v 0.102368 0.241354 0.095769
v 0.055401 0.287599 0.095769
v 0.000000 0.303838 0.095769
v -0.055401 0.287599 0.095769
v -0.102367 0.241354 0.095769
v -0.133750 0.172144 0.095769
v -0.058942 0.092794 0.205326
v -0.108911 0.092794 0.181812
v -0.142300 0.092794 0.146622
v -0.152265 0.092794 0.094270
v -0.152265 0.092794 0.094270
v -0.142300 0.092794 0.058987
v -0.108911 0.092794 0.023797
v -0.058942 0.092794 0.000284
v -0.144769 0.092794 0.095769
v -0.144769 0.092794 0.095769
v 0.144770 0.084750 0.095769
v 0.144770 0.084750 0.095769
v 0.144770 0.034637 0.095769
v 0.144770 0.034637 0.095769
v 0.000000 0.092794 0.213582
v -0.144769 0.034637 0.095769
v -0.144769 0.034637 0.095769
v -0.144769 0.084750 0.095769
v -0.144769 0.084750 0.095769
v -0.152265 0.084750 0.094270
v -0.152265 0.084750 0.094270
v -0.152265 0.034637 0.094270
v -0.152265 0.034637 0.094270
v 0.108912 0.084750 0.181812
v 0.142300 0.084750 0.146622
v 0.108912 0.034637 0.181812
v 0.142300 0.034637 0.146622
v -0.142300 0.084750 0.146622
v -0.108911 0.084750 0.181812
v -0.142300 0.034637 0.146622
v -0.108911 0.034637 0.181812
v -0.058942 0.084750 0.205326
v 0.000000 0.084750 0.213582
v -0.058942 0.034637 0.205326
v 0.000000 0.034637 0.213582
v 0.058943 0.084750 0.000284
v 0.058943 0.034637 0.000284
v -0.108911 0.084750 0.023797
v -0.142300 0.084750 0.058987
v -0.108911 0.034637 0.023797
v -0.142300 0.034637 0.058987
v 0.152265 0.084750 0.094270
v 0.152265 0.084750 0.094270
v 0.142300 0.084750 0.058987
v 0.152265 0.034637 0.094270
v 0.152265 0.034637 0.094270
v 0.142300 0.034637 0.058987
v 0.108912 0.084750 0.023797
v 0.108912 0.034637 0.023797
v -0.152365 0.084750 0.110987
v -0.152365 0.084750 0.110987
v -0.152365 0.034637 0.110987
v -0.152365 0.034637 0.110987
v 0.058942 0.084750 0.205326
v 0.058942 0.034637 0.205326
v -0.058942 0.084750 0.000284
v -0.058942 0.034637 0.000284
v 0.104555 0.034637 0.178744
v 0.136608 0.034637 0.144962
v 0.104555 0.026832 0.178744
v 0.136608 0.026832 0.144962
v -0.136608 0.034637 0.144962
v -0.104555 0.034637 0.178744
v -0.136608 0.026832 0.144962
v -0.104555 0.026832 0.178744
v -0.056585 0.034637 0.201317
v 0.000000 0.034637 0.209243
v -0.056585 0.026832 0.201317
v 0.000000 0.026832 0.209243
v 0.056585 0.034637 0.004293
v 0.000000 0.034637 0.004594
v 0.056585 0.026832 0.004293
v 0.000000 0.026832 0.004594
v -0.104555 0.034637 0.026865
v -0.136608 0.034637 0.060648
v -0.104555 0.026832 0.026865
v -0.136608 0.026832 0.060648
v 0.136608 0.034637 0.060648
v 0.104555 0.034637 0.026865
v 0.136608 0.026832 0.060648
v 0.104555 0.026832 0.026865
v -0.144691 0.034637 0.110135
v -0.144691 0.034637 0.110135
v -0.144691 0.026832 0.110135
v -0.144691 0.026832 0.110135
v 0.056585 0.034637 0.201317
v 0.056585 0.026832 0.201317
v -0.056585 0.034637 0.004293
v -0.056585 0.026832 0.004293
v 0.136608 0.092794 0.060648
v 0.104555 0.092794 0.026865
v 0.136608 0.084750 0.060648
v 0.104555 0.084750 0.026865
v -0.104555 0.092794 0.026865
v -0.136608 0.092794 0.060648
v -0.104555 0.084750 0.026865
v -0.136608 0.084750 0.060648
v 0.056585 0.092794 0.004293
v 0.000000 0.092794 0.004594
v 0.056585 0.084750 0.004293
v 0.000000 0.084750 0.004594
v -0.056585 0.092794 0.201317
v 0.000000 0.092794 0.209243
v -0.056585 0.084750 0.201317
v 0.000000 0.084750 0.209243
v -0.136608 0.092794 0.144962
v -0.104555 0.092794 0.178744
v -0.136608 0.084750 0.144962
v -0.104555 0.084750 0.178744
v 0.104555 0.092794 0.178744
v 0.136608 0.092794 0.144962
v 0.104555 0.084750 0.178744
v 0.136608 0.084750 0.144962
v -0.144691 0.092794 0.110135
v -0.144691 0.092794 0.110135
v -0.144691 0.084750 0.110135
v -0.144691 0.084750 0.110135
v 0.056585 0.092794 0.201317
v 0.056585 0.084750 0.201317
v -0.056585 0.092794 0.004293
v -0.056585 0.084750 0.004293
v 0.152365 0.026832 0.110987
v 0.152365 0.026832 0.110987
v -0.152365 0.026832 0.110987
v -0.152365 0.026832 0.110987
v 0.152365 0.092794 0.110987
v 0.152365 0.092794 0.110987
v -0.152365 0.092794 0.110987
v -0.152365 0.092794 0.110987
v 0.152365 0.084750 0.110987
v 0.152365 0.084750 0.110987
v 0.152365 0.034637 0.110987
v 0.152365 0.034637 0.110987
v 0.144691 0.034637 0.110135
v 0.144691 0.034637 0.110135
v 0.144691 0.026832 0.110135
v 0.144691 0.026832 0.110135
v 0.144691 0.092794 0.110135
v 0.144691 0.092794 0.110135
v 0.144691 0.084750 0.110135
v 0.144691 0.084750 0.110135
v 0.133677 0.172100 0.110135
v 0.152365 -0.089433 0.110987
v 0.140767 -0.173858 0.110987
v 0.107738 -0.245431 0.110987
v 0.058308 -0.293254 0.110987
v 0.000000 -0.310047 0.110987
v -0.058308 -0.293254 0.110987
v -0.107738 -0.245431 0.110987
v -0.140767 -0.173858 0.110987
v -0.152365 -0.089433 0.110987
v 0.140767 0.177275 0.110987
v 0.107738 0.248848 0.110987
v 0.058308 0.296670 0.110987
v 0.000000 0.313464 0.110987
v -0.058308 0.296670 0.110987
v -0.107738 0.248848 0.110987
v -0.140767 0.177275 0.110987
v 0.152265 -0.089433 0.094270
v 0.140675 -0.173803 0.094270
v 0.107668 -0.245329 0.094270
v 0.058269 -0.293121 0.094270
v 0.000000 -0.309903 0.094270
v -0.058269 -0.293121 0.094270
v -0.107668 -0.245329 0.094270
v -0.140675 -0.173803 0.094270
v -0.152265 -0.089433 0.094270
v 0.140675 0.177220 0.094270
v 0.107668 0.248746 0.094270
v 0.058269 0.296537 0.094270
v 0.000000 0.313320 0.094270
v -0.058269 0.296537 0.094270
v -0.107668 0.248746 0.094270
v -0.140675 0.177220 0.094270
v -0.133677 0.172100 0.110135
v 0.144691 -0.085475 0.110135
v 0.133677 -0.167069 0.110135
v 0.102312 -0.236242 0.110135
v 0.055371 -0.282462 0.110135
v 0.000000 -0.298692 0.110135
v -0.055371 -0.282462 0.110135
v -0.102312 -0.236242 0.110135
v -0.133677 -0.167069 0.110135
v -0.144691 -0.085475 0.110135
v 0.102312 0.241272 0.110135
v 0.055371 0.287492 0.110135
v 0.000000 0.303722 0.110135
v -0.055371 0.287492 0.110135
v -0.102312 0.241272 0.110135
vt 0.641942 0.570478
vt 0.735927 0.570478
vt 0.692806 0.518796
vt 0.641942 0.647825
vt 0.764739 0.647825
vt 0.642570 0.476509
vt 0.583547 0.338978
vt 0.662234 0.332691
vt 0.641942 0.750517
vt 0.641942 0.840445
vt 0.764739 0.840445
vt 0.641942 0.917792
vt 0.735927 0.917792
vt 0.641942 0.969474
vt 0.692806 0.969474
vt 0.815603 0.570478
vt 0.735927 0.518796
vt 0.868841 0.647825
vt 0.774549 0.459753
vt 0.728942 0.314786
vt 0.773425 0.750517
vt 0.868841 0.840445
vt 0.815603 0.917792
vt 0.735927 0.969474
vt 0.868841 0.570478
vt 0.764739 0.518796
vt 0.938400 0.647825
vt 0.886434 0.412036
vt 0.773515 0.287990
vt 0.884890 0.750517
vt 0.938400 0.840445
vt 0.868841 0.917792
vt 0.764739 0.969474
vt 0.887536 0.570478
vt 0.774857 0.518796
vt 0.962826 0.647825
vt 0.961194 0.340621
vt 0.789167 0.256382
vt 0.959369 0.750517
vt 0.962826 0.840445
vt 0.887536 0.917792
vt 0.774857 0.969474
vt 0.773515 0.224775
vt 0.961194 0.172143
vt 0.728942 0.197979
vt 0.886434 0.100729
vt 0.662234 0.180074
vt 0.774549 0.053012
vt 0.583546 0.173787
vt 0.642570 0.036255
vt 0.475301 0.173787
vt 0.460700 0.036255
vt 0.374345 0.840445
vt 0.374345 0.917792
vt 0.641942 0.987622
vt 0.374345 0.987622
vt 0.374345 0.969474
vt 0.374345 0.647825
vt 0.374345 0.570478
vt 0.344180 0.518796
vt 0.280544 0.518796
vt 0.374345 0.719224
vt 0.374345 0.750517
vt 0.641942 0.518796
vt 0.374345 0.518796
vt 0.186117 0.518796
vt 0.141306 0.570478
vt 0.239908 0.570478
vt 0.111364 0.647825
vt 0.239908 0.647825
vt 0.357516 0.476509
vt 0.225451 0.459753
vt 0.335242 0.332691
vt 0.239908 0.750517
vt 0.102338 0.750517
vt 0.111364 0.840445
vt 0.239908 0.840445
vt 0.141306 0.917792
vt 0.239908 0.917792
vt 0.186117 0.969474
vt 0.141306 0.518796
vt 0.116453 0.570478
vt 0.084142 0.647825
vt 0.113566 0.412036
vt 0.268534 0.314786
vt 0.074401 0.750517
vt 0.084142 0.840445
vt 0.116453 0.917792
vt 0.141306 0.969474
vt 0.111364 0.518796
vt 0.084142 0.570478
vt 0.041925 0.647825
vt 0.038806 0.340621
vt 0.223962 0.287990
vt 0.029198 0.750517
vt 0.041925 0.840445
vt 0.084142 0.917792
vt 0.111364 0.969474
vt 0.100850 0.518796
vt 0.072795 0.570478
vt 0.027100 0.647825
vt 0.012554 0.256382
vt 0.208310 0.256382
vt 0.013325 0.750517
vt 0.027100 0.840445
vt 0.072795 0.917792
vt 0.100850 0.969474
vt 0.038806 0.172143
vt 0.223962 0.224775
vt 0.113566 0.100729
vt 0.268534 0.197979
vt 0.225452 0.053012
vt 0.335242 0.180074
vt 0.239908 0.518796
vt 0.357516 0.036255
vt 0.411723 0.173787
vt 0.239908 0.969474
vt 0.344180 0.647825
vt 0.344180 0.570478
vt 0.280544 0.570478
vt 0.344180 0.719224
vt 0.280544 0.647825
vt 0.239908 0.987622
vt 0.344180 0.969474
vt 0.344180 0.987622
vt 0.280544 0.987622
vt 0.344180 0.840445
vt 0.344180 0.917792
vt 0.280544 0.917792
vt 0.280544 0.840445
vt 0.448491 0.036255
vt 0.467778 0.173787
vt 0.419476 0.173787
vt 0.624141 0.031200
vt 0.372942 0.031200
vt 0.498542 0.140409
vt 0.498542 0.376149
vt 0.498542 0.485714
vt 0.575008 0.367018
vt 0.583547 0.338933
vt 0.475300 0.338933
vt 0.460700 0.476653
vt 0.344180 0.750517
vt 0.280544 0.969474
vt 0.422075 0.367018
vt 0.280544 0.748923
vt 0.249964 0.748923
vt 0.280544 0.722029
vt 0.335285 0.332649
vt 0.225365 0.459886
vt 0.357516 0.476653
vt 0.374345 0.911049
vt 0.374345 0.836796
vt 0.344180 0.836796
vt 0.344180 0.911049
vt 0.374345 0.960663
vt 0.374345 0.978085
vt 0.344180 0.978085
vt 0.374345 0.527607
vt 0.374345 0.528270
vt 0.344180 0.528270
vt 0.374345 0.577221
vt 0.374345 0.651474
vt 0.344180 0.651474
vt 0.374345 0.722029
vt 0.344180 0.577221
vt 0.374345 0.748923
vt 0.344180 0.960663
vt 0.344180 0.527607
vt 0.249964 0.722029
vt 0.280544 0.651474
vt 0.280544 0.577221
vt 0.249964 0.577221
vt 0.249964 0.651474
vt 0.280544 0.527607
vt 0.280544 0.528270
vt 0.249964 0.528270
vt 0.280544 0.960663
vt 0.280544 0.978085
vt 0.249964 0.978085
vt 0.280544 0.836796
vt 0.280544 0.911049
vt 0.249964 0.911049
vt 0.249964 0.836796
vt 0.239908 0.722029
vt 0.110642 0.722029
vt 0.110715 0.748923
vt 0.249964 0.960663
vt 0.249964 0.527607
vt 0.641942 0.719224
vt 0.422075 0.140061
vt 0.642570 0.476653
vt 0.774635 0.459886
vt 0.662191 0.332649
vt 0.886594 0.412138
vt 0.961402 0.340676
vt 0.773411 0.287973
vt 0.987671 0.256382
vt 0.789054 0.256382
vt 0.961402 0.172088
vt 0.773411 0.224792
vt 0.886594 0.100627
vt 0.774635 0.052879
vt 0.642570 0.036112
vt 0.268614 0.314755
vt 0.113406 0.412138
vt 0.224065 0.287973
vt 0.038598 0.340676
vt 0.208422 0.256382
vt 0.012329 0.256382
vt 0.224065 0.224792
vt 0.038598 0.172088
vt 0.268614 0.198010
vt 0.113406 0.100627
vt 0.335285 0.180116
vt 0.225365 0.052879
vt 0.448491 0.036112
vt 0.370099 0.036112
vt 0.280544 0.750517
vt 0.344180 0.748923
vt 0.985523 0.750517
vt 0.987446 0.256382
vt 0.773339 0.719224
vt 0.884732 0.719224
vt 0.959162 0.719224
vt 0.985298 0.719224
vt 0.460700 0.476509
vt 0.102427 0.719224
vt 0.239908 0.719224
vt 0.074497 0.719224
vt 0.029324 0.719224
vt 0.013461 0.719224
vt 0.467778 0.338978
vt 0.448491 0.476509
vt 0.370099 0.476509
vt 0.280544 0.719224
vt 0.344180 0.722029
vt 0.239908 0.748923
vt 0.448491 0.476653
vt 0.467778 0.338933
vt 0.419476 0.338933
vt 0.635778 0.722029
vt 0.635778 0.748923
vt 0.762852 0.748923
vt 0.762921 0.722029
vt 0.870580 0.748923
vt 0.870708 0.722029
vt 0.942562 0.748923
vt 0.942729 0.722029
vt 0.967839 0.748923
vt 0.411723 0.338978
vt 0.081483 0.722029
vt 0.081561 0.748923
vt 0.037772 0.722029
vt 0.037874 0.748923
vt 0.022423 0.722029
vt 0.022533 0.748923
vt 0.357516 0.036112
vt 0.460700 0.036112
vt 0.370099 0.036255
vt 0.683148 0.204978
vt 0.694178 0.245435
vt 0.801766 0.156289
vt 0.823002 0.231473
vt 0.174082 0.231473
vt 0.302906 0.245435
vt 0.195318 0.156289
vt 0.639834 0.166063
vt 0.730619 0.081304
vt 0.313935 0.204978
vt 0.266464 0.081304
vt 0.575008 0.140061
vt 0.357250 0.166063
vt 0.313935 0.302101
vt 0.303012 0.261984
vt 0.195318 0.343030
vt 0.823213 0.267095
vt 0.694071 0.261984
vt 0.801766 0.343030
vt 0.173870 0.267095
vt 0.683148 0.302101
vt 0.357250 0.341016
vt 0.266464 0.418016
vt 0.730619 0.418016
vt 0.639834 0.341016
vt 0.372942 0.468119
vt 0.624141 0.468119
vt 0.411723 0.338933
vt 0.475300 0.338978
vt 0.419476 0.338978
vt 0.370099 0.476653
vt 0.968020 0.722029
vn 0.590400 -0.040600 -0.806100
vn 0.560100 -0.160000 -0.812800
vn 0.222900 -0.059100 -0.973000
vn 0.870100 -0.059200 -0.489300
vn 0.831300 -0.244800 -0.498900
vn 0.188100 -0.015800 0.982000
vn 0.191300 -0.009200 0.981500
vn 0.173500 -0.040700 0.984000
vn 0.960300 -0.064900 0.271200
vn 0.870100 -0.059200 0.489300
vn 0.831300 -0.244800 0.498900
vn 0.590400 -0.040600 0.806100
vn 0.560100 -0.160000 0.812800
vn 0.291300 -0.020400 0.956400
vn 0.278300 -0.076800 0.957400
vn 0.449200 -0.309300 -0.838100
vn 0.180600 -0.116300 -0.976600
vn 0.688400 -0.490400 -0.534300
vn 0.161800 -0.053700 0.985300
vn 0.135600 -0.084100 0.987200
vn 0.918800 -0.275300 0.282800
vn 0.688400 -0.490400 0.534300
vn 0.449200 -0.309300 0.838100
vn 0.220700 -0.147100 0.964200
vn 0.257500 -0.427600 -0.866500
vn 0.104800 -0.163400 -0.981000
vn 0.410000 -0.707600 -0.575500
vn 0.121600 -0.093400 0.988200
vn 0.077700 -0.119100 0.989800
vn 0.767100 -0.559000 0.314800
vn 0.410000 -0.707600 0.575500
vn 0.257500 -0.427600 0.866500
vn 0.124800 -0.200800 0.971600
vn 0.000000 -0.476000 -0.879400
vn 0.000000 -0.183400 -0.983000
vn 0.000000 -0.804100 -0.594500
vn 0.066200 -0.122900 0.990200
vn 0.000000 -0.133500 0.991000
vn 0.457500 -0.814300 0.357100
vn 0.000000 -0.804100 0.594500
vn 0.000000 -0.476000 0.879400
vn 0.000000 -0.222300 0.974900
vn -0.257500 -0.427600 -0.866500
vn -0.410000 -0.707600 -0.575500
vn -0.077700 -0.119100 0.989800
vn -0.066200 -0.122900 0.990200
vn -0.410000 -0.707600 0.575500
vn -0.457500 -0.814300 0.357100
vn -0.257500 -0.427600 0.866500
vn -0.124800 -0.200800 0.971600
vn -0.104800 -0.163400 -0.981000
vn -0.449200 -0.309300 -0.838100
vn -0.688400 -0.490400 -0.534300
vn -0.135600 -0.084100 0.987200
vn -0.121600 -0.093400 0.988200
vn -0.688400 -0.490400 0.534300
vn -0.767100 -0.559000 0.314800
vn -0.449200 -0.309300 0.838100
vn -0.220700 -0.147100 0.964200
vn -0.180600 -0.116300 -0.976600
vn -0.560100 -0.160000 -0.812800
vn -0.831300 -0.244800 -0.498900
vn -0.173500 -0.040700 0.984000
vn -0.161800 -0.053700 0.985300
vn -0.831300 -0.244800 0.498900
vn -0.918800 -0.275300 0.282800
vn -0.560100 -0.160000 0.812800
vn -0.278300 -0.076800 0.957400
vn -0.222900 -0.059100 -0.973000
vn -0.590400 -0.040600 -0.806100
vn -0.870100 -0.059200 -0.489300
vn -0.191300 -0.009200 0.981500
vn -0.188100 -0.015800 0.982000
vn -0.870100 -0.059200 0.489300
vn -0.960300 -0.064900 0.271200
vn -0.590400 -0.040600 0.806100
vn -0.291300 -0.020400 0.956400
vn -0.196000 0.000000 0.980600
vn 0.869200 0.000000 0.494400
vn 0.585700 0.000000 0.810500
vn -0.585700 0.000000 0.810500
vn -0.869200 0.000000 0.494400
vn 0.000000 -0.027800 0.999600
vn 0.000000 0.000000 1.000000
vn -0.285400 0.000000 0.958400
vn -0.869200 0.000000 -0.494400
vn -0.585700 0.000000 -0.810500
vn -0.218100 0.000000 -0.975900
vn 0.218100 0.000000 -0.975900
vn 0.869200 0.000000 -0.494400
vn 0.962300 0.000000 -0.271800
vn 0.585700 0.000000 -0.810500
vn -0.962300 0.000000 0.271800
vn 0.285400 0.000000 0.958400
vn 0.227000 -0.016100 -0.973700
vn 0.222900 0.059100 -0.973000
vn 0.560100 0.160000 -0.812800
vn 0.594000 0.081500 -0.800300
vn 0.831300 0.244800 -0.498900
vn 0.867900 0.119100 -0.482300
vn 0.195700 0.027200 0.980300
vn 0.172800 0.055200 0.983400
vn 0.179800 0.044900 0.982700
vn 0.954000 0.131000 0.269400
vn 0.918800 0.275200 0.282800
vn 0.831300 0.244800 0.498900
vn 0.867900 0.119100 0.482300
vn 0.560100 0.160000 0.812800
vn 0.594000 0.081500 0.800300
vn 0.278300 0.076700 0.957400
vn 0.180600 0.116300 -0.976600
vn 0.449200 0.309300 -0.838100
vn 0.688400 0.490400 -0.534300
vn 0.136300 0.102700 0.985300
vn 0.147100 0.093700 0.984600
vn 0.767100 0.559000 0.314800
vn 0.688400 0.490400 0.534300
vn 0.449200 0.309300 0.838100
vn 0.220700 0.147100 0.964200
vn 0.104800 0.163400 -0.981000
vn 0.257500 0.427600 -0.866500
vn 0.410000 0.707600 -0.575500
vn 0.077000 0.141000 0.987000
vn 0.087600 0.136900 0.986700
vn 0.457500 0.814300 0.357100
vn 0.410000 0.707600 0.575500
vn 0.257500 0.427600 0.866500
vn 0.124800 0.200800 0.971600
vn 0.000000 0.183400 -0.983000
vn 0.000000 0.476000 -0.879400
vn 0.000000 0.804100 -0.594500
vn 0.000000 0.156100 0.987700
vn 0.000000 0.155700 0.987800
vn 0.000000 0.925600 0.378500
vn 0.000000 0.804100 0.594500
vn 0.000000 0.476000 0.879400
vn 0.000000 0.222300 0.975000
vn -0.104800 0.163400 -0.981000
vn -0.257500 0.427600 -0.866500
vn -0.410000 0.707600 -0.575500
vn -0.077000 0.141000 0.987000
vn -0.087600 0.136900 0.986700
vn -0.457500 0.814300 0.357100
vn -0.410000 0.707600 0.575500
vn -0.257500 0.427600 0.866500
vn -0.124800 0.200800 0.971600
vn -0.180600 0.116300 -0.976600
vn -0.449200 0.309300 -0.838100
vn -0.688400 0.490400 -0.534300
vn -0.136300 0.102700 0.985300
vn -0.147100 0.093700 0.984600
vn -0.767100 0.559000 0.314800
vn -0.688400 0.490400 0.534300
vn -0.449200 0.309300 0.838100
vn -0.220700 0.147100 0.964200
vn -0.222900 0.059100 -0.973000
vn -0.560100 0.160000 -0.812800
vn -0.831300 0.244800 -0.498900
vn -0.172800 0.055200 0.983400
vn -0.179800 0.044900 0.982700
vn -0.918800 0.275200 0.282800
vn -0.831300 0.244800 0.498900
vn -0.560100 0.160000 0.812800
vn -0.278300 0.076700 0.957400
vn -0.235900 0.032300 -0.971200
vn -0.594000 0.081500 -0.800300
vn -0.867900 0.119100 -0.482300
vn -0.195700 0.027200 0.980300
vn -0.196000 0.027200 0.980200
vn -0.954000 0.131000 0.269400
vn -0.867900 0.119100 0.482300
vn -0.594000 0.081500 0.800300
vn -0.297000 0.040700 0.954000
vn 0.297000 0.040700 0.954000
vn 0.000000 0.055600 0.998400
vn 0.000000 -1.000000 0.000000
vn 0.235900 0.032300 -0.971200
vn 0.000000 1.000000 0.000000
vn -0.227000 -0.016100 -0.973700
vn 0.107600 -0.005200 -0.994200
vn 0.110300 0.000000 -0.993900
vn -0.996800 0.000000 0.079400
vn -0.995700 0.046200 0.079600
vn -0.997400 0.000000 -0.072200
vn 0.101100 0.025200 -0.994500
vn 0.097100 0.031000 -0.994800
vn 0.110100 0.015300 -0.993800
vn 0.880600 0.000000 0.473800
vn -0.880600 0.000000 0.473800
vn 0.215500 0.000000 -0.976500
vn 0.000000 0.000000 -1.000000
vn -0.880600 0.000000 -0.473900
vn 0.997400 0.000000 -0.072200
vn 0.880600 0.000000 -0.473900
vn -0.215500 0.000000 -0.976500
vn 0.996300 0.046200 -0.072400
vn 0.996800 0.000000 0.079400
vn 0.960500 0.278200 0.005700
vn 0.960500 0.278000 0.005700
vn 0.960300 -0.064900 -0.271200
vn 0.105800 -0.008900 -0.994300
vn 0.090900 -0.030200 -0.995400
vn 0.097500 -0.022900 -0.995000
vn 0.068200 -0.052300 -0.996300
vn 0.076100 -0.047200 -0.996000
vn 0.037000 -0.068700 -0.996900
vn 0.043500 -0.066600 -0.996800
vn 0.000000 -0.074800 -0.997200
vn 0.000000 -0.074600 -0.997200
vn -0.037000 -0.068700 -0.996900
vn -0.043500 -0.066600 -0.996800
vn -0.068200 -0.052300 -0.996300
vn -0.076100 -0.047200 -0.996000
vn -0.090900 -0.030200 -0.995400
vn -0.097500 -0.022900 -0.995000
vn -0.105900 -0.008900 -0.994300
vn 0.962300 0.000000 0.271800
vn 0.082500 0.052500 -0.995200
vn 0.076400 0.057600 -0.995400
vn 0.049000 0.076500 -0.995800
vn 0.043000 0.078800 -0.995900
vn 0.000000 0.086900 -0.996200
vn 0.000000 0.087100 -0.996200
vn -0.049000 0.076500 -0.995800
vn -0.043000 0.078800 -0.995900
vn -0.082500 0.052500 -0.995200
vn -0.076400 0.057600 -0.995400
vn -0.101100 0.025200 -0.994500
vn -0.097100 0.031000 -0.994800
vn -0.110300 0.000000 -0.993900
vn 0.000000 -0.925600 0.378500
vn 0.995700 0.046200 0.079600
vn 0.000000 -0.133900 0.991000
vn 0.918800 -0.275300 -0.282800
vn 0.767100 -0.559000 -0.314800
vn 0.457500 -0.814300 -0.357100
vn 0.000000 -0.925600 -0.378500
vn -0.457500 -0.814300 -0.357100
vn -0.767100 -0.559000 -0.314800
vn -0.918800 -0.275300 -0.282800
vn -0.960300 -0.064900 -0.271200
vn -0.962300 0.000000 -0.271800
vn 0.196000 0.000000 0.980600
vn 0.918800 0.275200 -0.282800
vn 0.954000 0.131000 -0.269400
vn 0.767100 0.559000 -0.314800
vn 0.457500 0.814300 -0.357100
vn 0.000000 0.925600 -0.378500
vn -0.457500 0.814300 -0.357100
vn -0.767100 0.559000 -0.314800
vn -0.918800 0.275200 -0.282800
vn -0.954000 0.131000 -0.269400
vn -0.996300 0.046200 -0.072400
vn -0.960500 0.278000 0.005700
vn 0.997700 -0.067000 0.005500
vn 0.961100 -0.276100 0.005700
vn 0.961000 -0.276400 0.005700
vn 0.820100 -0.572100 0.006400
vn 0.819800 -0.572600 0.006400
vn 0.507000 -0.861900 0.007500
vn 0.506500 -0.862200 0.007500
vn 0.000000 -0.999900 0.008100
vn -0.507000 -0.861900 0.007500
vn -0.506500 -0.862200 0.007500
vn -0.820100 -0.572100 0.006400
vn -0.819800 -0.572600 0.006400
vn -0.961100 -0.276100 0.005700
vn -0.961000 -0.276400 0.005700
vn -0.997700 -0.067000 0.005500
vn 0.196000 0.027200 0.980200
vn 0.819800 0.572600 0.006400
vn 0.820100 0.572100 0.006400
vn 0.506500 0.862200 0.007500
vn 0.507000 0.861900 0.007500
vn 0.000000 0.999900 0.008100
vn -0.506500 0.862200 0.007500
vn -0.507000 0.861900 0.007500
vn -0.819800 0.572600 0.006400
vn -0.820100 0.572100 0.006400
vn -0.960500 0.278200 0.005700
vn -0.110300 0.015300 -0.993800
vn -0.110100 0.015300 -0.993800
vn -0.107600 -0.005200 -0.994200
vn 0.110300 0.015300 -0.993800
s 1
f 6/1/1 13/2/2 14/3/3
f 5/4/4 12/5/5 13/2/2
f 262/6/6 4/7/7 11/8/8
f 491/9/9 3/10/10 10/11/11
f 3/10/10 2/12/12 9/13/13
f 2/12/12 1/14/14 8/15/15
f 13/2/2 20/16/16 21/17/17
f 12/5/5 19/18/18 20/16/16
f 263/19/19 11/8/8 18/20/20
f 492/21/21 10/11/11 17/22/22
f 10/11/11 9/13/13 16/23/23
f 9/13/13 8/15/15 15/24/24
f 20/16/16 27/25/25 28/26/26
f 19/18/18 26/27/27 27/25/25
f 264/28/28 18/20/20 25/29/29
f 493/30/30 17/22/22 24/31/31
f 17/22/22 16/23/23 23/32/32
f 16/23/23 15/24/24 22/33/33
f 27/25/25 34/34/34 35/35/35
f 26/27/27 33/36/36 34/34/34
f 265/37/37 25/29/29 32/38/38
f 494/39/39 24/31/31 31/40/40
f 24/31/31 23/32/32 30/41/41
f 23/32/32 22/33/33 29/42/42
f 35/35/35 34/34/34 41/25/43
f 34/34/34 33/36/36 40/27/44
f 32/38/38 39/43/45 267/44/46
f 31/40/40 38/31/47 496/39/48
f 30/41/41 37/32/49 38/31/47
f 29/42/42 36/33/50 37/32/49
f 42/26/51 41/25/43 49/16/52
f 41/25/43 40/27/44 48/18/53
f 39/43/45 47/45/54 268/46/55
f 38/31/47 46/22/56 497/30/57
f 37/32/49 45/23/58 46/22/56
f 36/33/50 44/24/59 45/23/58
f 50/17/60 49/16/52 56/2/61
f 49/16/52 48/18/53 55/5/62
f 47/45/54 54/47/63 269/48/64
f 46/22/56 53/11/65 498/21/66
f 45/23/58 52/13/67 53/11/65
f 44/24/59 51/15/68 52/13/67
f 57/3/69 56/2/61 63/1/70
f 56/2/61 55/5/62 62/4/71
f 54/47/63 61/49/72 270/50/73
f 53/11/65 60/10/74 499/9/75
f 52/13/67 59/12/76 60/10/74
f 51/15/68 58/14/77 59/12/76
f 61/49/72 311/51/78 318/52/78
f 3/10/10 330/53/79 329/54/80
f 59/12/76 320/54/81 321/53/82
f 43/55/83 313/56/84 314/57/85
f 492/21/21 491/9/9 10/11/11
f 62/4/71 319/58/86 315/59/87
f 24/31/31 17/22/22 23/32/32
f 1/14/14 43/55/83 8/15/15
f 264/28/28 263/19/19 18/20/20
f 8/15/15 43/55/83 15/24/24
f 20/16/16 19/18/18 27/25/25
f 15/24/24 43/55/83 22/33/33
f 405/60/88 404/61/88 384/61/89
f 22/33/33 43/55/83 29/42/42
f 493/30/30 492/21/21 17/22/22
f 29/42/42 43/55/83 36/33/50
f 14/3/3 13/2/2 21/17/17
f 36/33/50 43/55/83 44/24/59
f 21/17/17 20/16/16 28/26/26
f 44/24/59 43/55/83 51/15/68
f 50/17/60 57/3/69 21/17/17
f 51/15/68 43/55/83 58/14/77
f 5/4/4 326/58/90 324/62/91
f 6/1/1 322/59/92 326/58/90
f 60/10/74 321/53/82 472/63/93
f 2/12/12 329/54/80 331/57/94
f 59/12/76 58/14/77 314/57/85
f 23/32/32 16/23/23 22/33/33
f 7/64/95 323/65/89 322/59/92
f 1/14/14 331/57/94 313/56/84
f 63/1/70 315/59/87 316/65/88
f 93/66/96 92/67/97 338/68/98
f 92/67/97 91/69/99 337/70/100
f 336/71/101 274/72/102 90/73/103
f 474/74/104 500/75/105 89/76/106
f 334/77/107 89/76/106 88/78/108
f 333/79/109 88/78/108 87/80/110
f 100/81/111 99/82/112 92/67/97
f 99/82/112 98/83/113 91/69/99
f 274/72/102 275/84/114 97/85/115
f 500/75/105 501/86/116 96/87/117
f 89/76/106 96/87/117 95/88/118
f 88/78/108 95/88/118 94/89/119
f 107/90/120 106/91/121 99/82/112
f 106/91/121 105/92/122 98/83/113
f 275/84/114 276/93/123 104/94/124
f 501/86/116 502/95/125 103/96/126
f 96/87/117 103/96/126 102/97/127
f 95/88/118 102/97/127 101/98/128
f 114/99/129 113/100/130 106/91/121
f 113/100/130 112/101/131 105/92/122
f 276/93/123 277/102/132 111/103/133
f 502/95/125 503/104/134 110/105/135
f 103/96/126 110/105/135 109/106/136
f 102/97/127 109/106/136 108/107/137
f 114/99/129 121/90/138 120/91/139
f 113/100/130 120/91/139 119/92/140
f 278/108/141 118/109/142 111/103/133
f 504/95/143 117/96/144 110/105/135
f 117/96/144 116/97/145 109/106/136
f 116/97/145 115/98/146 108/107/137
f 121/90/138 129/81/147 128/82/148
f 120/91/139 128/82/148 127/83/149
f 279/110/150 126/111/151 118/109/142
f 505/86/152 125/87/153 117/96/144
f 125/87/153 124/88/154 116/97/145
f 124/88/154 123/89/155 115/98/146
f 129/81/147 136/66/156 135/67/157
f 128/82/148 135/67/157 134/69/158
f 280/112/159 133/113/160 126/111/151
f 506/75/161 132/76/162 125/87/153
f 132/76/162 131/78/163 124/88/154
f 131/78/163 130/80/164 123/89/155
f 136/66/156 356/114/165 355/68/166
f 135/67/157 355/68/166 354/70/167
f 353/115/168 357/116/169 133/113/160
f 476/74/170 351/77/171 132/76/162
f 351/77/171 350/79/172 131/78/163
f 350/79/172 349/117/173 130/80/164
f 395/118/90 397/119/92 396/120/92
f 93/66/96 100/81/111 92/67/97
f 393/121/91 395/118/90 392/122/90
f 388/119/87 389/118/86 387/122/86
f 52/13/67 51/15/68 59/12/76
f 263/19/19 262/6/6 11/8/8
f 332/117/174 87/80/110 363/123/175
f 494/39/39 493/30/30 24/31/31
f 87/80/110 94/89/119 363/123/175
f 9/13/13 2/12/12 8/15/15
f 94/89/119 101/98/128 363/123/175
f 16/23/23 9/13/13 15/24/24
f 101/98/128 108/107/137 363/123/175
f 100/81/111 93/66/96 129/81/147
f 108/107/137 115/98/146 363/123/175
f 17/22/22 10/11/11 16/23/23
f 115/98/146 123/89/155 363/123/175
f 13/2/2 12/5/5 20/16/16
f 123/89/155 130/80/164 363/123/175
f 265/37/37 264/28/28 25/29/29
f 130/80/164 349/117/173 363/123/175
f 7/64/95 6/1/1 14/3/3
f 50/17/60 42/26/51 49/16/52
f 382/124/85 383/125/84 381/126/84
f 27/25/25 26/27/27 34/34/34
f 378/127/82 379/128/81 377/129/81
f 498/21/66 53/11/65 499/9/75
f 374/128/80 375/127/79 373/130/79
f 31/40/40 30/41/41 38/31/47
f 370/131/78 364/132/78 366/133/78
f 167/134/176 173/135/176 419/136/176
f 267/44/46 39/43/45 268/46/55
f 46/22/56 45/23/58 53/11/65
f 43/55/83 1/14/14 313/56/84
f 2/12/12 3/10/10 329/54/80
f 41/25/43 34/34/34 40/27/44
f 269/48/64 54/47/63 270/50/73
f 57/3/69 50/17/60 56/2/61
f 497/30/57 46/22/56 498/21/66
f 338/68/98 92/67/97 337/70/100
f 339/114/177 93/66/96 338/68/98
f 166/134/178 449/136/178 172/135/178
f 64/64/179 63/1/70 316/65/88
f 415/137/176 157/138/176 414/139/176
f 286/140/180 485/141/181 471/142/181
f 42/26/51 50/17/60 28/26/26
f 400/143/93 378/127/82 376/130/82
f 37/32/49 36/33/50 45/23/58
f 403/124/94 374/128/80 372/129/80
f 64/64/179 316/65/88 7/64/95
f 379/128/81 382/124/85 380/144/85
f 7/64/95 14/3/3 57/3/69
f 6/1/1 5/4/4 13/2/2
f 156/138/178 467/145/178 453/137/178
f 397/119/92 385/60/89 384/61/89
f 28/26/26 50/17/60 21/17/17
f 383/125/84 403/124/94 402/144/94
f 465/146/182 463/147/183 367/148/184
f 405/60/88 388/119/87 386/120/87
f 295/149/185 242/150/186 475/151/187
f 1/14/14 2/12/12 331/57/94
f 191/152/80 174/153/188 175/154/188
f 42/26/51 35/35/35 41/25/43
f 189/153/189 180/152/81 181/155/81
f 30/41/41 29/42/42 37/32/49
f 193/156/85 186/157/84 187/158/84
f 45/23/58 44/24/59 52/13/67
f 201/159/190 182/160/191 183/161/191
f 64/64/179 57/3/69 63/1/70
f 197/162/87 176/163/192 177/164/192
f 328/165/193 199/163/194 198/164/194
f 49/16/52 41/25/43 48/18/53
f 199/163/194 184/162/92 185/166/92
f 333/79/109 334/77/107 88/78/108
f 433/167/182 189/153/189 188/154/189
f 332/117/174 333/79/109 87/80/110
f 178/156/94 191/152/80 190/155/80
f 63/1/70 56/2/61 62/4/71
f 180/152/81 193/156/85 192/168/85
f 6/1/1 7/64/95 322/59/92
f 182/160/191 195/159/195 194/169/195
f 28/26/26 27/25/25 35/35/35
f 184/162/92 201/159/190 200/169/190
f 92/67/97 99/82/112 91/69/99
f 186/157/84 178/156/94 179/168/94
f 359/148/193 341/170/196 489/146/197
f 195/159/195 197/162/87 196/166/87
f 496/39/48 38/31/47 497/30/57
f 205/171/194 218/172/92 219/173/92
f 359/148/193 205/171/194 204/174/194
f 143/134/176 86/135/176 447/136/176
f 207/172/87 226/171/192 227/174/192
f 10/11/11 3/10/10 9/13/13
f 203/175/190 220/176/191 221/177/191
f 31/40/40 24/31/31 30/41/41
f 211/178/85 216/179/84 217/180/84
f 122/138/176 450/139/176 451/137/176
f 215/181/189 222/182/81 223/183/81
f 53/11/65 52/13/67 60/10/74
f 213/182/80 228/181/188 229/184/188
f 341/185/196 342/186/198 490/187/199
f 30/41/41 23/32/32 29/42/42
f 465/146/182 215/181/189 214/184/189
f 316/65/88 323/65/89 7/64/95
f 224/178/94 213/182/80 212/183/80
f 5/4/4 6/1/1 326/58/90
f 222/182/81 211/178/85 210/188/85
f 385/60/89 405/60/88 384/61/89
f 220/176/191 209/175/195 208/189/195
f 38/31/47 37/32/49 46/22/56
f 218/172/92 203/175/190 202/189/190
f 507/190/200 5/4/4 324/62/91
f 216/179/84 224/178/94 225/188/94
f 421/136/178 420/191/178 73/135/178
f 209/175/195 207/172/87 206/173/87
f 230/192/201 231/193/202 287/194/203
f 231/193/202 232/195/204 288/20/205
f 232/195/204 233/196/206 289/197/207
f 233/196/206 234/198/208 290/199/209
f 290/199/209 234/198/208 235/200/210
f 291/201/211 235/200/210 236/202/212
f 292/45/213 236/202/212 237/203/214
f 293/47/215 237/203/214 238/204/216
f 491/9/9 470/63/217 330/53/79
f 296/205/218 243/206/219 242/150/186
f 297/207/220 244/208/221 243/206/219
f 298/209/222 245/210/223 244/208/221
f 298/209/222 299/211/224 246/212/225
f 299/211/224 300/213/226 247/214/227
f 300/213/226 301/215/228 248/216/229
f 72/138/178 417/137/178 416/139/178
f 256/132/230 253/217/230 252/218/230
f 89/76/106 500/75/105 96/87/117
f 375/127/79 480/143/217 479/219/217
f 334/77/107 474/74/104 89/76/106
f 174/153/188 255/167/197 483/220/197
f 270/50/73 61/49/72 318/52/78
f 495/221/231 31/40/40 496/39/48
f 228/181/188 489/146/197 258/147/232
f 266/222/233 32/38/38 267/44/46
f 507/190/200 508/223/234 12/5/5
f 508/223/234 509/224/235 19/18/18
f 509/224/235 510/225/236 26/27/27
f 510/225/236 511/226/237 33/36/36
f 33/36/36 511/226/237 512/225/238
f 40/27/44 512/225/238 513/224/239
f 48/18/53 513/224/239 514/223/240
f 55/5/62 514/223/240 515/190/241
f 515/190/241 317/62/242 319/58/86
f 4/7/7 262/6/6 325/227/243
f 91/69/99 516/228/244 335/229/245
f 98/83/113 517/230/246 516/228/244
f 105/92/122 518/231/247 517/230/246
f 112/101/131 519/232/248 518/231/247
f 112/101/131 119/92/140 520/231/249
f 119/92/140 127/83/149 521/230/250
f 127/83/149 134/69/158 522/228/251
f 134/69/158 354/70/167 352/229/252
f 362/233/243 394/234/243 391/235/243
f 389/118/86 371/121/242 369/236/242
f 14/3/3 21/17/17 57/3/69
f 320/54/81 59/12/76 314/57/85
f 176/163/192 312/165/184 365/237/184
f 499/9/75 60/10/74 472/63/93
f 90/73/103 274/72/102 97/85/115
f 358/185/253 463/238/183 523/187/254
f 226/171/192 367/148/184 358/170/253
f 251/239/181 254/240/181 259/241/181
f 495/221/231 494/39/39 31/40/40
f 57/3/69 64/64/179 7/64/95
f 58/14/77 43/55/83 314/57/85
f 28/26/26 35/35/35 42/26/51
f 268/46/55 47/45/54 269/48/64
f 302/242/255 524/243/255 525/244/256
f 303/245/257 525/244/256 526/246/258
f 304/247/259 526/246/258 527/248/260
f 305/249/261 527/248/260 528/250/262
f 528/250/262 529/248/263 307/249/264
f 529/248/263 530/246/265 308/247/266
f 530/246/265 531/244/267 309/245/268
f 531/244/267 532/243/269 310/242/269
f 340/251/270 336/71/101 90/73/103
f 342/186/198 343/252/271 533/253/272
f 343/252/271 344/254/273 534/255/274
f 344/254/273 345/256/275 535/257/275
f 346/254/276 536/255/277 535/257/275
f 347/252/278 537/253/279 536/255/277
f 348/186/280 523/187/254 537/253/279
f 63/1/70 62/4/71 315/59/87
f 301/215/228 260/116/281 249/258/282
f 294/49/283 238/204/216 240/259/230
f 56/2/61 49/16/52 55/5/62
f 60/10/74 59/12/76 321/53/82
f 266/222/233 265/37/37 32/38/38
f 88/78/108 89/76/106 95/88/118
f 87/80/110 88/78/108 94/89/119
f 100/81/111 107/90/120 99/82/112
f 99/82/112 106/91/121 98/83/113
f 97/85/115 275/84/114 104/94/124
f 96/87/117 501/86/116 103/96/126
f 95/88/118 96/87/117 102/97/127
f 94/89/119 95/88/118 101/98/128
f 107/90/120 114/99/129 106/91/121
f 106/91/121 113/100/130 105/92/122
f 104/94/124 276/93/123 111/103/133
f 103/96/126 502/95/125 110/105/135
f 102/97/127 103/96/126 109/106/136
f 101/98/128 102/97/127 108/107/137
f 113/100/130 114/99/129 120/91/139
f 112/101/131 113/100/130 119/92/140
f 277/102/132 278/108/141 111/103/133
f 503/104/134 504/95/143 110/105/135
f 110/105/135 117/96/144 109/106/136
f 109/106/136 116/97/145 108/107/137
f 120/91/139 121/90/138 128/82/148
f 119/92/140 120/91/139 127/83/149
f 278/108/141 279/110/150 118/109/142
f 504/95/143 505/86/152 117/96/144
f 117/96/144 125/87/153 116/97/145
f 116/97/145 124/88/154 115/98/146
f 128/82/148 129/81/147 135/67/157
f 127/83/149 128/82/148 134/69/158
f 279/110/150 280/112/159 126/111/151
f 505/86/152 506/75/161 125/87/153
f 125/87/153 132/76/162 124/88/154
f 124/88/154 131/78/163 123/89/155
f 135/67/157 136/66/156 355/68/166
f 134/69/158 135/67/157 354/70/167
f 280/112/159 353/115/168 133/113/160
f 506/75/161 476/74/170 132/76/162
f 132/76/162 351/77/171 131/78/163
f 131/78/163 350/79/172 130/80/164
f 392/122/90 395/118/90 396/120/92
f 390/236/91 393/121/91 392/122/90
f 386/120/87 388/119/87 387/122/86
f 136/66/156 129/81/147 93/66/96
f 121/90/138 114/99/129 107/90/120
f 107/90/120 100/81/111 121/90/138
f 93/66/96 339/114/177 356/114/165
f 356/114/165 136/66/156 93/66/96
f 121/90/138 100/81/111 129/81/147
f 380/144/85 382/124/85 381/126/84
f 376/130/82 378/127/82 377/129/81
f 372/129/80 374/128/80 373/130/79
f 368/260/78 370/131/78 366/133/78
f 423/261/176 149/262/176 147/263/176
f 418/191/176 419/136/176 173/135/176
f 149/262/176 283/264/176 147/263/176
f 285/265/176 159/266/176 171/267/176
f 422/268/176 423/261/176 169/269/176
f 171/267/176 159/266/176 426/270/176
f 423/261/176 147/263/176 169/269/176
f 171/267/176 426/270/176 155/271/176
f 436/272/176 422/268/176 167/134/176
f 155/271/176 426/270/176 427/273/176
f 422/268/176 169/269/176 167/134/176
f 155/271/176 427/273/176 173/135/176
f 419/136/176 436/272/176 167/134/176
f 173/135/176 427/273/176 418/191/176
f 440/270/178 158/266/178 170/267/178
f 146/263/178 282/264/178 148/262/178
f 158/266/178 284/265/178 170/267/178
f 146/263/178 148/262/178 445/261/178
f 440/270/178 170/267/178 154/271/178
f 168/269/178 146/263/178 445/261/178
f 441/273/178 440/270/178 154/271/178
f 168/269/178 445/261/178 444/268/178
f 441/273/178 154/271/178 172/135/178
f 166/134/178 168/269/178 444/268/178
f 448/191/178 441/273/178 172/135/178
f 166/134/178 444/268/178 469/272/178
f 448/191/178 172/135/178 449/136/178
f 469/272/178 449/136/178 166/134/178
f 407/274/176 482/275/176 145/276/176
f 401/277/176 430/278/176 161/279/176
f 482/275/176 481/280/176 145/276/176
f 161/279/176 430/278/176 410/281/176
f 406/282/176 407/274/176 163/283/176
f 161/279/176 410/281/176 153/284/176
f 407/274/176 145/276/176 163/283/176
f 153/284/176 410/281/176 411/285/176
f 434/145/176 406/282/176 151/286/176
f 153/284/176 411/285/176 165/287/176
f 406/282/176 163/283/176 151/286/176
f 165/287/176 411/285/176 414/139/176
f 415/137/176 434/145/176 157/138/176
f 165/287/176 414/139/176 157/138/176
f 434/145/176 151/286/176 157/138/176
f 230/192/201 286/140/180 471/142/181
f 399/219/93 400/143/93 376/130/82
f 402/144/94 403/124/94 372/129/80
f 377/129/81 379/128/81 380/144/85
f 456/281/178 464/278/178 160/279/178
f 144/276/178 478/280/178 488/275/178
f 464/278/178 398/277/178 160/279/178
f 144/276/178 488/275/178 461/274/178
f 456/281/178 160/279/178 152/284/178
f 162/283/178 144/276/178 461/274/178
f 457/285/178 456/281/178 152/284/178
f 162/283/178 461/274/178 460/282/178
f 457/285/178 152/284/178 164/287/178
f 150/286/178 162/283/178 460/282/178
f 452/139/178 457/285/178 164/287/178
f 150/286/178 460/282/178 467/145/178
f 452/139/178 164/287/178 156/138/178
f 156/138/178 150/286/178 467/145/178
f 453/137/178 452/139/178 156/138/178
f 396/120/92 397/119/92 384/61/89
f 381/126/84 383/125/84 402/144/94
f 367/148/184 365/237/184 431/220/182
f 312/165/184 310/242/269 532/243/269
f 532/243/269 433/167/182 312/165/184
f 431/220/182 465/146/182 367/148/184
f 463/147/183 358/170/253 367/148/184
f 365/237/184 312/165/184 431/220/182
f 433/167/182 431/220/182 312/165/184
f 404/61/88 405/60/88 386/120/87
f 487/288/284 295/149/185 475/151/187
f 190/155/80 191/152/80 175/154/188
f 188/154/189 189/153/189 181/155/81
f 192/168/85 193/156/85 187/158/84
f 200/169/190 201/159/190 183/161/191
f 196/166/87 197/162/87 177/164/192
f 361/237/193 328/165/193 198/164/194
f 198/164/194 199/163/194 185/166/92
f 431/220/182 433/167/182 188/154/189
f 179/168/94 178/156/94 190/155/80
f 181/155/81 180/152/81 192/168/85
f 183/161/191 182/160/191 194/169/195
f 185/166/92 184/162/92 200/169/190
f 187/158/84 186/157/84 179/168/94
f 489/146/197 483/220/197 361/237/193
f 255/167/197 524/243/255 302/242/255
f 302/242/255 328/165/193 255/167/197
f 361/237/193 359/148/193 489/146/197
f 341/170/196 258/147/232 489/146/197
f 483/220/197 255/167/197 361/237/193
f 328/165/193 361/237/193 255/167/197
f 194/169/195 195/159/195 196/166/87
f 204/174/194 205/171/194 219/173/92
f 341/170/196 359/148/193 204/174/194
f 443/261/176 140/262/176 141/263/176
f 446/191/176 447/136/176 86/135/176
f 140/262/176 281/264/176 141/263/176
f 273/265/176 83/266/176 84/267/176
f 442/268/176 443/261/176 142/269/176
f 84/267/176 83/266/176 438/270/176
f 443/261/176 141/263/176 142/269/176
f 84/267/176 438/270/176 85/271/176
f 468/272/176 442/268/176 143/134/176
f 85/271/176 438/270/176 439/273/176
f 442/268/176 142/269/176 143/134/176
f 85/271/176 439/273/176 86/135/176
f 447/136/176 468/272/176 143/134/176
f 86/135/176 439/273/176 446/191/176
f 206/173/87 207/172/87 227/174/192
f 202/189/190 203/175/190 221/177/191
f 210/188/85 211/178/85 217/180/84
f 459/274/176 486/275/176 82/276/176
f 477/277/176 462/278/176 139/279/176
f 486/275/176 241/280/176 82/276/176
f 139/279/176 462/278/176 454/281/176
f 458/282/176 459/274/176 81/283/176
f 139/279/176 454/281/176 138/284/176
f 459/274/176 82/276/176 81/283/176
f 138/284/176 454/281/176 455/285/176
f 466/145/176 458/282/176 80/286/176
f 138/284/176 455/285/176 137/287/176
f 458/282/176 81/283/176 80/286/176
f 137/287/176 455/285/176 450/139/176
f 451/137/176 466/145/176 122/138/176
f 137/287/176 450/139/176 122/138/176
f 466/145/176 80/286/176 122/138/176
f 214/184/189 215/181/189 223/183/81
f 212/183/80 213/182/80 229/184/188
f 258/238/232 341/185/196 490/187/199
f 463/147/183 465/146/182 214/184/189
f 225/188/94 224/178/94 212/183/80
f 223/183/81 222/182/81 210/188/85
f 221/177/191 220/176/191 208/189/195
f 219/173/92 218/172/92 202/189/190
f 217/180/84 216/179/84 225/188/94
f 67/263/178 271/264/178 68/262/178
f 76/266/178 272/265/178 75/267/178
f 67/263/178 68/262/178 425/261/178
f 428/270/178 76/266/178 75/267/178
f 66/269/178 67/263/178 425/261/178
f 428/270/178 75/267/178 74/271/178
f 66/269/178 425/261/178 424/268/178
f 429/273/178 428/270/178 74/271/178
f 65/134/178 66/269/178 424/268/178
f 429/273/178 74/271/178 73/135/178
f 65/134/178 424/268/178 437/272/178
f 420/191/178 429/273/178 73/135/178
f 73/135/178 65/134/178 421/136/178
f 437/272/178 421/136/178 65/134/178
f 208/189/195 209/175/195 206/173/87
f 286/140/180 230/192/201 287/194/203
f 287/194/203 231/193/202 288/20/205
f 288/20/205 232/195/204 289/197/207
f 289/197/207 233/196/206 290/199/209
f 291/201/211 290/199/209 235/200/210
f 292/45/213 291/201/211 236/202/212
f 293/47/215 292/45/213 237/203/214
f 294/49/283 293/47/215 238/204/216
f 3/10/10 491/9/9 330/53/79
f 295/149/185 296/205/218 242/150/186
f 296/205/218 297/207/220 243/206/219
f 297/207/220 298/209/222 244/208/221
f 245/210/223 298/209/222 246/212/225
f 246/212/225 299/211/224 247/214/227
f 247/214/227 300/213/226 248/216/229
f 77/276/178 239/280/178 484/275/178
f 432/278/178 473/277/178 69/279/178
f 77/276/178 484/275/178 409/274/178
f 412/281/178 432/278/178 69/279/178
f 78/283/178 77/276/178 409/274/178
f 412/281/178 69/279/178 70/284/178
f 78/283/178 409/274/178 408/282/178
f 413/285/178 412/281/178 70/284/178
f 79/286/178 78/283/178 408/282/178
f 413/285/178 70/284/178 71/287/178
f 79/286/178 408/282/178 435/145/178
f 416/139/178 413/285/178 71/287/178
f 72/138/178 79/286/178 435/145/178
f 416/139/178 71/287/178 72/138/178
f 72/138/178 435/145/178 417/137/178
f 261/133/230 256/132/230 252/218/230
f 373/130/79 375/127/79 479/219/217
f 175/154/188 174/153/188 483/220/197
f 229/184/188 228/181/188 258/147/232
f 5/4/4 507/190/200 12/5/5
f 12/5/5 508/223/234 19/18/18
f 19/18/18 509/224/235 26/27/27
f 26/27/27 510/225/236 33/36/36
f 40/27/44 33/36/36 512/225/238
f 48/18/53 40/27/44 513/224/239
f 55/5/62 48/18/53 514/223/240
f 62/4/71 55/5/62 515/190/241
f 62/4/71 515/190/241 319/58/86
f 327/289/243 4/7/7 325/227/243
f 337/70/100 91/69/99 335/229/245
f 91/69/99 98/83/113 516/228/244
f 98/83/113 105/92/122 517/230/246
f 105/92/122 112/101/131 518/231/247
f 519/232/248 112/101/131 520/231/249
f 520/231/249 119/92/140 521/230/250
f 521/230/250 127/83/149 522/228/251
f 522/228/251 134/69/158 352/229/252
f 360/290/243 362/233/243 391/235/243
f 387/122/86 389/118/86 369/236/242
f 177/164/192 176/163/192 365/237/184
f 348/186/280 358/185/253 523/187/254
f 227/174/192 226/171/192 358/170/253
f 250/291/181 251/239/181 259/241/181
f 303/245/257 302/242/255 525/244/256
f 304/247/259 303/245/257 526/246/258
f 305/249/261 304/247/259 527/248/260
f 306/292/262 305/249/261 528/250/262
f 306/292/262 528/250/262 307/249/264
f 307/249/264 529/248/263 308/247/266
f 308/247/266 530/246/265 309/245/268
f 309/245/268 531/244/267 310/242/269
f 490/187/199 342/186/198 533/253/272
f 533/253/272 343/252/271 534/255/274
f 534/255/274 344/254/273 535/257/275
f 345/256/275 346/254/276 535/257/275
f 346/254/276 347/252/278 536/255/277
f 347/252/278 348/186/280 537/253/279
f 248/216/229 301/215/228 249/258/282
f 257/51/230 294/49/283 240/259/230
