v -0.019664 -0.038640 0.000000
v -0.015278 -0.035172 0.027205
v -0.019664 0.038640 0.000000
v -0.015278 0.038640 0.027205
v 0.019664 -0.038640 0.000000
v 0.015278 -0.035172 0.027205
v 0.019664 0.038640 0.000000
v 0.015278 0.038640 0.027205
v -0.015278 -0.035172 0.045370
v 0.015278 -0.035172 0.045370
v -0.020709 -0.035172 0.068912
v -0.020709 0.014823 0.068912
v 0.020709 0.014823 0.068912
v 0.020709 -0.035172 0.068912
v 0.020709 -0.066184 0.068912
v -0.020709 -0.066184 0.068912
v -0.020709 -0.035172 0.095082
v -0.020709 0.014823 0.095082
v 0.020709 0.014823 0.095082
v 0.020709 -0.035172 0.095082
v 0.020709 -0.066184 0.095082
v -0.020709 -0.066184 0.095082
v -0.015278 0.014823 0.122839
v 0.015278 0.014823 0.122839
v 0.015278 -0.078826 0.068912
v -0.015278 -0.078826 0.068912
v 0.015278 -0.104904 0.068912
v -0.015278 -0.104904 0.068912
v 0.015278 -0.104904 0.095082
v -0.015278 -0.104904 0.095082
v -0.027603 -0.115973 0.105309
v 0.027603 -0.115973 0.105309
v -0.027603 -0.115973 0.058686
v 0.027603 -0.115973 0.058686
v -0.019663 -0.110438 0.065157
v -0.019663 -0.110438 0.098838
v 0.019663 -0.110438 0.098838
v 0.019663 -0.110438 0.065157
v -0.013668 -0.035172 0.122839
v -0.015480 -0.033864 0.121805
v 0.015480 -0.033864 0.121805
v 0.013668 -0.035172 0.122839
v 0.013668 -0.066184 0.103748
v 0.015631 -0.064166 0.103183
v -0.015631 -0.064166 0.103183
v -0.013668 -0.066184 0.103748
v -0.013668 -0.078826 0.095082
v -0.015631 -0.078003 0.095082
v -0.015278 -0.078826 0.093472
v -0.015278 -0.080436 0.095082
v -0.013668 -0.072982 0.103748
v -0.015631 -0.072539 0.103183
v 0.015631 -0.078003 0.095082
v 0.013668 -0.078826 0.095082
v 0.015278 -0.080436 0.095082
v 0.015278 -0.078826 0.093472
v 0.015631 -0.072539 0.103183
v 0.013668 -0.072982 0.103748
v -0.015278 -0.030559 0.129501
v -0.013668 -0.031633 0.131112
v -0.015278 0.017673 0.129501
v -0.013668 0.018362 0.131112
v 0.013668 0.018362 0.131112
v 0.015278 0.017673 0.129501
v 0.015278 -0.030559 0.129501
v 0.013668 -0.031633 0.131112
v -0.015629 0.037099 0.046893
v -0.015278 0.038640 0.043203
v -0.015278 0.036473 0.045370
v 0.015278 0.038640 0.043203
v 0.015629 0.037099 0.046893
v 0.015278 0.036473 0.045370
v 0.027770 -0.114821 0.058213
v 0.027603 -0.115973 0.058686
v -0.027603 -0.115973 0.058686
v -0.027770 -0.114821 0.058213
v 0.027603 -0.115973 0.105309
v 0.027770 -0.114821 0.105781
v -0.027770 -0.114821 0.105781
v -0.027603 -0.115973 0.105309
v -0.016890 -0.121060 0.083335
v -0.016890 -0.121060 0.095863
v -0.016890 -0.114565 0.083335
v -0.016890 -0.114565 0.095863
v -0.004362 -0.121060 0.083335
v -0.004362 -0.121060 0.095863
v -0.004362 -0.114565 0.083335
v -0.004362 -0.114565 0.095863
v 0.004508 -0.121060 0.083335
v 0.004508 -0.121060 0.095863
v 0.004508 -0.114565 0.083335
v 0.004508 -0.114565 0.095863
v 0.017036 -0.121060 0.083335
v 0.017036 -0.121060 0.095863
v 0.017036 -0.114565 0.083335
v 0.017036 -0.114565 0.095863
v -0.006270 -0.121060 0.066378
v -0.006270 -0.121060 0.078906
v -0.006270 -0.114565 0.066378
v -0.006270 -0.114565 0.078906
v 0.006258 -0.121060 0.066378
v 0.006258 -0.121060 0.078906
v 0.006258 -0.114565 0.066378
v 0.006258 -0.114565 0.078906
v 0.015615 -0.066184 0.046832
v 0.015278 -0.064722 0.045370
v -0.015278 -0.064722 0.045370
v -0.015615 -0.066184 0.046832
v -0.020709 -0.001749 0.068912
v 0.020709 -0.001749 0.068912
v -0.020709 -0.001749 0.095082
v 0.020709 -0.001749 0.095082
v -0.015278 0.001685 0.129501
v 0.015278 0.001685 0.129501
v -0.015345 -0.001316 0.122496
v 0.015345 -0.001316 0.122496
v 0.017674 -0.001749 0.068912
v 0.017674 -0.035172 0.068912
v 0.017674 -0.001749 0.095082
v 0.017674 -0.035172 0.095082
v -0.017674 -0.035172 0.068912
v -0.017674 -0.035172 0.095082
v -0.017674 -0.001749 0.068912
v -0.017674 -0.001749 0.095082
v 0.015278 0.021333 0.045370
v 0.015278 -0.013136 0.045370
v -0.015278 -0.013136 0.027205
v -0.015278 0.021333 0.027205
v 0.015278 0.021333 0.027205
v 0.015278 -0.013136 0.027205
v 0.019225 0.021333 0.062478
v -0.015278 0.021333 0.045370
v -0.015278 -0.013136 0.045370
v -0.019225 0.021333 0.062478
v 0.013271 0.021333 0.045370
v 0.013271 -0.013136 0.045370
v -0.013271 -0.013136 0.027205
v -0.013271 0.021333 0.027205
v 0.013271 0.021333 0.027205
v 0.013271 -0.013136 0.027205
v -0.013271 0.021333 0.045370
v -0.019225 -0.013136 0.062478
v 0.019225 -0.013136 0.062478
v -0.013271 -0.013136 0.045370
v -0.016699 0.021333 0.062478
v 0.016699 0.021333 0.062478
v -0.016699 -0.013136 0.062478
v 0.016699 -0.013136 0.062478
v -0.020709 0.014823 0.072685
v 0.020709 0.014823 0.072685
v -0.015629 0.037099 0.050665
v -0.015278 0.038640 0.046975
v 0.015278 0.038640 0.046975
v 0.015629 0.037099 0.050665
v -0.019225 0.021333 0.066250
v 0.019225 0.021333 0.066250
vt 0.662123 0.674921
vt 0.646143 0.674921
vt 0.662123 0.658941
vt 0.077290 0.443018
vt 0.077290 0.605069
vt 0.034377 0.722609
vt 0.813859 0.750214
vt 0.814626 0.832526
vt 0.801795 0.566332
vt 0.809931 0.556849
vt 0.086457 0.443818
vt 0.086457 0.607628
vt 0.037261 0.697482
vt 0.876091 0.378582
vt 0.873538 0.371254
vt 0.813807 0.371254
vt 0.980051 0.133456
vt 0.697076 0.247509
vt 0.885462 0.247509
vt 0.318873 0.649078
vt 0.305628 0.649078
vt 0.305628 0.595815
vt 0.626612 0.487421
vt 0.626612 0.471441
vt 0.642591 0.471441
vt 0.799978 0.613432
vt 0.799978 0.739342
vt 0.892611 0.437514
vt 0.884154 0.447486
vt 0.827011 0.363874
vt 0.460663 0.371254
vt 0.454695 0.484526
vt 0.581228 0.484526
vt 0.392097 0.600491
vt 0.331669 0.600491
vt 0.331669 0.653753
vt 0.671134 0.283857
vt 0.671134 0.371254
vt 0.581228 0.371254
vt 0.342392 0.618256
vt 0.428436 0.550173
vt 0.428436 0.614468
vt 0.454695 0.610436
vt 0.406477 0.610436
vt 0.428768 0.649414
vt 0.645017 0.608514
vt 0.645017 0.592535
vt 0.660997 0.592535
vt 0.642237 0.602724
vt 0.658216 0.602724
vt 0.658216 0.586745
vt 0.876091 0.371254
vt 0.882377 0.360830
vt 0.675012 0.558155
vt 0.674884 0.559913
vt 0.632499 0.558155
vt 0.642591 0.487421
vt 0.586488 0.739149
vt 0.581228 0.610436
vt 0.462932 0.649414
vt 0.956533 0.832526
vt 0.956533 0.750214
vt 0.646143 0.658941
vt 0.024339 0.706080
vt 0.024339 0.345365
vt 0.034377 0.325478
vt 0.131085 0.461088
vt 0.131085 0.586999
vt 0.262214 0.586999
vt 0.954491 0.832526
vt 0.692776 0.796573
vt 0.692776 0.739791
vt 0.635574 0.741222
vt 0.642237 0.586745
vt 0.476579 0.396698
vt 0.464446 0.368457
vt 0.396184 0.368457
vt 0.294241 0.595815
vt 0.800402 0.286795
vt 0.800402 0.352300
vt 0.694998 0.352300
vt 0.392097 0.653753
vt 0.398992 0.653753
vt 0.398992 0.600491
vt 0.124666 0.589361
vt 0.454696 0.378291
vt 0.858625 0.740600
vt 0.859449 0.732103
vt 0.930244 0.732100
vt 0.426963 0.652128
vt 0.454695 0.652128
vt 0.037261 0.353963
vt 0.785207 0.743982
vt 0.796833 0.776037
vt 0.731601 0.776037
vt 0.359877 0.586999
vt 0.374934 0.579251
vt 0.294241 0.649078
vt 0.294743 0.652215
vt 0.719359 0.742333
vt 0.586562 0.739008
vt 0.600048 0.776037
vt 0.660997 0.608514
vt 0.294241 0.652215
vt 0.403120 0.610436
vt 0.334031 0.656891
vt 0.581228 0.743982
vt 0.809609 0.366513
vt 0.692821 0.366513
vt 0.693458 0.434869
vt 0.859449 0.695039
vt 0.374934 0.461088
vt 0.318873 0.595815
vt 0.931048 0.740597
vt 0.576411 0.754426
vt 0.572928 0.760582
vt 0.561459 0.728958
vt 0.813859 0.662817
vt 0.882377 0.371254
vt 0.632627 0.559913
vt 0.633278 0.796573
vt 0.785207 0.610436
vt 0.719436 0.610436
vt 0.124666 0.462084
vt 0.023105 0.315179
vt 0.023105 0.732908
vt 0.796071 0.739342
vt 0.796071 0.613432
vt 0.813808 0.453566
vt 0.277044 0.462084
vt 0.921805 0.921411
vt 0.860952 0.921411
vt 0.861609 0.918561
vt 0.703306 0.298731
vt 0.703306 0.348567
vt 0.783499 0.348567
vt 0.720362 0.319452
vt 0.720362 0.303472
vt 0.736341 0.303472
vt 0.693076 0.460622
vt 0.693076 0.517152
vt 0.631025 0.517152
vt 0.932434 0.613432
vt 0.463912 0.656891
vt 0.496407 0.653753
vt 0.932434 0.739343
vt 0.000000 0.000000
vt 0.893411 0.193045
vt 0.827773 0.193045
vt 0.827773 0.248478
vt 0.780446 0.633874
vt 0.916809 0.633874
vt 0.626329 0.542282
vt 0.626329 0.607367
vt 0.697771 0.607367
vt 0.423123 0.546386
vt 0.342392 0.546386
vt 0.464446 0.465981
vt 0.464446 0.399965
vt 0.396184 0.399965
vt 0.954491 0.662817
vt 0.403120 0.602689
vt 0.827011 0.447486
vt 0.496407 0.600491
vt 0.581228 0.283857
vt 0.811340 0.762780
vt 0.811340 0.636870
vt 0.576641 0.247509
vt 0.557685 0.133456
vt 0.785207 0.484526
vt 0.384050 0.396698
vt 0.277271 0.579251
vt 0.719436 0.484526
vt 0.850193 0.776195
vt 0.939276 0.776191
vt 0.942673 0.790887
vt 0.306491 0.592677
vt 0.956533 0.662817
vt 0.631025 0.460622
vt 0.881799 0.678024
vt 0.873252 0.625016
vt 0.949883 0.625016
vt 0.495065 0.656891
vt 0.940406 0.632012
vt 0.930244 0.695036
vt 0.846711 0.790891
vt 0.396184 0.465981
vt 0.916809 0.617338
vt 0.780446 0.617338
vt 0.942673 0.851514
vt 0.930090 0.915818
vt 0.846711 0.851518
vt 0.736341 0.319452
vt 0.739312 0.531635
vt 0.766852 0.531635
vt 0.767087 0.556849
vt 0.277044 0.589361
vt 0.941337 0.678024
vt 0.783499 0.298731
vt 0.788345 0.560991
vt 0.788103 0.535020
vt 0.759736 0.535020
vt 0.892611 0.363874
vt 0.781648 0.566332
vt 0.697771 0.542282
vt 0.930108 0.931345
vt 0.926382 0.935098
vt 0.849287 0.632015
vt 0.917899 0.756149
vt 0.917899 0.791543
vt 0.858361 0.791543
vt 0.824096 0.570760
vt 0.832476 0.560991
vt 0.305388 0.652215
vt 0.803344 0.570760
vt 0.759736 0.570760
vt 0.463912 0.597353
vt 0.401085 0.597353
vt 0.739312 0.566332
vt 0.863049 0.935101
vt 0.859313 0.931348
vt 0.859295 0.915821
vt 0.809610 0.434869
vt 0.787465 0.380761
vt 0.787466 0.432340
vt 0.699821 0.432341
vt 0.931730 0.964434
vt 0.851026 0.964434
vt 0.921147 0.918561
vt 0.392097 0.656891
vt 0.423123 0.618256
vt 0.565697 0.725007
vt 0.595664 0.783785
vt 0.277271 0.461088
vt 0.401085 0.656891
vt 0.694998 0.286795
vt 0.699340 0.380761
vt 0.403120 0.484526
vt 0.858361 0.756149
vt 0.495065 0.597353
vt 0.980051 0.247509
vt 0.893411 0.248478
vt 0.318873 0.592677
vn 0.000000 -1.000000 0.000000
vn 0.475600 0.879700 0.000000
vn 0.000000 1.000000 0.000000
vn 0.975000 0.222300 0.000000
vn 0.000000 0.845600 0.533800
vn -0.974400 0.000000 -0.224800
vn -0.987300 0.000000 0.159200
vn 0.974400 -0.000000 -0.224800
vn 0.000000 0.000000 1.000000
vn 1.000000 0.000000 -0.000000
vn 0.000000 -0.524200 0.851600
vn -0.887900 -0.381500 0.257300
vn 0.000000 0.000000 -1.000000
vn 0.000000 -0.379700 -0.925100
vn -0.973700 -0.115700 0.196200
vn 0.000000 -0.379700 0.925100
vn -0.475600 0.879700 0.000000
vn -1.000000 0.000000 0.000000
vn 0.981400 -0.000000 0.192000
vn 0.887900 -0.381500 0.257300
vn 0.000000 -0.829100 0.559100
vn 0.000000 -0.919400 0.393200
vn 0.000000 0.561500 0.827400
vn 0.000000 0.922800 0.385300
vn -0.276100 0.000000 0.961100
vn 0.000000 0.845600 -0.533800
vn 0.847300 0.000000 0.531100
vn 0.973700 -0.115700 0.196200
vn -0.328200 -0.783200 0.528200
vn -0.999700 0.003600 0.024700
vn -0.360500 -0.860300 0.360500
vn 0.616700 -0.412700 0.670300
vn -0.616700 -0.412700 0.670300
vn 0.328200 -0.783200 0.528200
vn -0.980500 0.000000 -0.196500
vn 0.709500 -0.647900 0.277100
vn -0.666000 -0.678900 0.309100
vn -0.974300 -0.159300 -0.159300
vn 0.974300 -0.159300 -0.159300
vn -0.981400 0.000000 0.192000
vn 0.000000 0.561500 -0.827400
vn -0.989700 -0.143500 0.000000
vn 0.000000 -0.707100 -0.707100
vn 0.783800 0.621000 0.000000
vn 0.707100 -0.000000 0.707100
vn -0.783800 0.621000 0.000000
vn 1.000000 0.004000 0.007900
vn -0.918800 -0.394800 0.000000
vn 0.918800 -0.394800 0.000000
vn 0.000000 0.703000 0.711200
vn 0.276100 0.000000 0.961100
vn 0.989700 -0.143500 0.000000
vn 0.000000 -0.992000 0.126500
vn 0.987300 0.000000 0.159200
vn -0.975000 0.222300 0.000000
vn 0.000000 0.919400 -0.393200
vn 1.000000 -0.000000 0.009600
vn -0.707100 0.000000 0.707100
vn -1.000000 0.004000 0.007900
vn 0.980500 0.000000 -0.196500
vn -0.577300 0.577400 0.577300
vn 0.979500 -0.142300 -0.142300
vn 0.653100 -0.394100 0.646600
vn -0.653100 -0.394100 0.646600
vn 0.666000 -0.678900 0.309100
vn -0.709500 -0.647900 0.277100
vn -0.847300 0.000000 0.531100
vn -1.000000 0.000000 0.009600
vn 0.999700 0.003600 0.024700
s off
f 102/1/1 98/2/1 101/3/1
f 38/4/2 37/5/2 78/6/2
f 133/7/3 142/8/3 147/8/3
f 13/9/4 131/10/4 156/10/4
f 37/11/5 36/12/5 79/13/5
f 67/14/6 69/15/6 132/16/6
f 3/17/7 127/18/7 128/19/7
f 125/16/8 72/15/8 71/14/8
f 46/20/9 51/21/9 58/22/9
f 82/23/1 81/24/1 85/25/1
f 14/26/3 118/26/3 120/27/3
f 147/8/3 144/7/3 133/7/3
f 70/28/10 72/29/10 129/30/10
f 107/31/6 16/32/6 11/33/6
f 39/34/11 46/35/11 43/36/11
f 130/37/10 126/38/10 10/39/10
f 30/40/9 54/41/9 47/42/9
f 22/43/12 48/44/12 52/45/12
f 86/46/10 85/47/10 87/48/10
f 99/49/13 103/50/13 101/51/13
f 71/52/4 70/53/4 153/53/4
f 73/54/14 74/55/14 76/56/14
f 86/57/1 82/23/1 85/25/1
f 40/58/15 17/59/15 45/60/15
f 145/61/1 134/61/1 132/62/1
f 98/2/1 97/63/1 101/3/1
f 79/13/16 80/64/16 77/65/16
f 35/4/17 76/66/17 79/6/17
f 28/67/18 30/68/18 50/69/18
f 131/70/13 143/8/13 148/8/13
f 112/71/19 116/72/19 41/73/19
f 88/50/9 84/49/9 82/74/9
f 15/75/13 25/76/13 26/77/13
f 53/44/20 21/43/20 57/45/20
f 94/46/10 93/47/10 95/48/10
f 54/78/21 58/22/21 51/21/21
f 139/79/10 135/80/10 136/81/10
f 42/82/22 66/83/22 60/84/22
f 30/85/23 36/12/23 37/11/23
f 132/62/1 141/62/1 145/61/1
f 107/31/6 108/86/6 16/32/6
f 32/65/9 77/65/9 80/64/9
f 154/87/24 153/88/24 152/89/24
f 52/45/25 51/90/25 46/91/25
f 38/11/26 73/92/26 76/13/26
f 36/5/17 35/4/17 79/6/17
f 20/59/27 44/60/27 21/43/27
f 20/59/28 41/58/28 44/60/28
f 24/93/10 64/94/10 114/95/10
f 55/96/10 27/67/10 56/97/10
f 47/98/29 51/21/29 48/99/29
f 115/100/30 40/101/30 59/102/30
f 82/46/18 84/103/18 81/47/18
f 47/98/31 48/99/31 49/104/31
f 53/44/9 54/105/9 55/105/9
f 42/82/32 43/36/32 44/106/32
f 45/60/33 46/91/33 39/107/33
f 53/44/34 57/45/34 58/90/34
f 141/108/35 144/109/35 147/110/35
f 70/88/3 8/111/3 68/89/3
f 25/112/10 56/97/10 27/67/10
f 43/113/9 46/20/9 58/22/9
f 151/114/24 154/87/24 152/89/24
f 65/115/36 66/116/36 42/117/36
f 59/102/37 40/101/37 39/107/37
f 133/7/3 144/7/3 137/118/3
f 67/14/38 68/119/38 69/15/38
f 70/53/39 71/52/39 72/15/39
f 86/51/9 88/50/9 82/74/9
f 33/120/9 75/120/9 74/55/9
f 20/121/19 112/71/19 41/73/19
f 18/122/40 111/123/40 115/100/40
f 78/92/16 79/13/16 77/65/16
f 137/118/3 127/118/3 133/7/3
f 27/124/41 38/11/41 35/12/41
f 92/103/18 91/48/18 89/47/18
f 34/125/9 74/125/9 77/126/9
f 79/6/42 76/66/42 80/126/42
f 17/127/3 122/127/3 121/128/3
f 131/129/4 71/14/4 154/14/4
f 31/126/9 80/126/9 75/125/9
f 25/130/13 27/124/13 28/85/13
f 11/128/3 17/127/3 121/128/3
f 96/50/9 92/49/9 90/74/9
f 105/131/43 108/132/43 107/133/43
f 44/60/27 57/45/27 21/43/27
f 137/134/18 144/135/18 141/136/18
f 91/49/13 95/50/13 93/51/13
f 102/46/10 101/47/10 103/48/10
f 74/55/14 75/120/14 76/56/14
f 90/137/1 89/138/1 93/139/1
f 100/103/18 99/48/18 97/47/18
f 117/140/10 119/141/10 120/142/10
f 126/7/3 130/118/3 140/118/3
f 11/128/9 121/128/9 123/143/9
f 29/68/44 37/5/44 38/4/44
f 66/83/45 114/144/45 63/145/45
f 28/67/46 35/4/46 36/5/46
f 116/100/47 24/93/47 114/95/47
f 73/66/2 38/4/2 78/6/2
f 16/32/18 22/43/18 17/59/18
f 111/71/40 17/121/40 40/73/40
f 109/143/1 123/143/1 124/146/1
f 3/147/13 7/147/13 5/147/13
f 111/146/13 124/146/13 122/127/13
f 74/148/3 75/149/3 80/150/3
f 94/51/9 96/50/9 90/74/9
f 20/151/13 120/151/13 119/152/13
f 121/153/18 122/154/18 124/155/18
f 55/156/9 54/41/9 29/157/9
f 10/158/13 106/159/13 107/160/13
f 127/118/9 137/118/9 138/161/9
f 49/162/48 48/44/48 22/43/48
f 128/30/18 132/163/18 69/29/18
f 11/33/6 9/39/6 107/31/6
f 63/145/9 62/164/9 60/84/9
f 21/43/49 53/44/49 56/162/49
f 2/165/18 9/39/18 133/38/18
f 14/33/10 20/59/10 21/43/10
f 76/66/42 75/125/42 80/126/42
f 154/52/4 71/52/4 153/53/4
f 112/166/1 119/166/1 117/167/1
f 2/168/7 127/18/7 1/169/7
f 134/129/6 67/14/6 132/16/6
f 13/170/10 19/122/10 112/123/10
f 83/49/13 87/50/13 85/51/13
f 126/7/3 136/7/3 148/8/3
f 16/171/13 15/75/13 26/77/13
f 129/161/9 139/161/9 140/118/9
f 50/69/18 49/172/18 28/67/18
f 109/173/18 111/123/18 18/122/18
f 156/174/50 155/175/50 149/176/50
f 43/113/51 58/22/51 57/177/51
f 125/62/1 135/62/1 139/178/1
f 147/8/13 142/8/13 145/70/13
f 23/93/40 18/122/40 115/100/40
f 84/103/18 83/48/18 81/47/18
f 142/8/13 134/70/13 145/70/13
f 19/122/19 24/93/19 116/100/19
f 27/67/44 29/68/44 38/4/44
f 73/66/52 78/6/52 77/126/52
f 118/179/10 117/140/10 120/142/10
f 140/118/3 136/7/3 126/7/3
f 2/180/53 1/181/53 5/182/53
f 7/17/54 129/19/54 130/18/54
f 64/183/45 63/145/45 114/144/45
f 8/111/3 3/184/3 4/185/3
f 149/176/50 150/186/50 156/174/50
f 97/74/13 99/49/13 101/51/13
f 34/55/9 33/120/9 74/55/9
f 15/32/10 14/33/10 21/43/10
f 9/187/13 10/158/13 107/160/13
f 104/50/9 100/49/9 98/74/9
f 67/14/55 151/14/55 152/119/55
f 109/143/9 11/128/9 123/143/9
f 110/188/9 117/188/9 118/189/9
f 18/190/3 23/191/3 19/192/3
f 94/193/1 90/137/1 93/139/1
f 10/194/8 126/195/8 143/196/8
f 26/197/13 25/130/13 28/85/13
f 6/198/53 2/180/53 5/182/53
f 5/169/54 7/17/54 130/18/54
f 138/199/18 137/134/18 141/136/18
f 142/200/6 133/201/6 9/202/6
f 4/203/18 128/30/18 68/28/18
f 1/147/13 3/147/13 5/147/13
f 110/167/1 112/166/1 117/167/1
f 143/196/8 131/10/8 110/204/8
f 123/205/18 121/153/18 124/155/18
f 61/206/56 62/207/56 23/191/56
f 8/111/3 7/208/3 3/184/3
f 6/209/1 10/210/1 9/211/1
f 12/212/55 149/212/55 155/213/55
f 28/85/41 27/124/41 35/12/41
f 51/21/29 52/214/29 48/99/29
f 65/102/57 116/100/57 114/95/57
f 109/215/6 134/213/6 142/200/6
f 156/174/50 154/87/50 151/114/50
f 142/200/6 9/202/6 11/216/6
f 113/217/58 59/218/58 60/84/58
f 14/219/8 10/194/8 143/196/8
f 63/220/56 64/221/56 24/222/56
f 29/124/23 30/85/23 37/11/23
f 15/32/8 105/86/8 106/31/8
f 104/103/10 102/46/10 103/48/10
f 23/93/59 115/100/59 113/95/59
f 47/98/21 54/78/21 51/21/21
f 145/223/35 141/108/35 147/110/35
f 39/34/22 42/82/22 60/84/22
f 31/64/9 32/65/9 80/64/9
f 63/220/56 24/222/56 62/207/56
f 135/224/60 146/225/60 148/226/60
f 89/74/13 91/49/13 93/51/13
f 150/9/4 13/9/4 156/10/4
f 105/131/1 15/227/1 16/228/1
f 106/229/43 105/131/43 107/133/43
f 78/92/5 37/11/5 79/13/5
f 50/104/61 47/98/61 49/104/61
f 56/162/62 53/44/62 55/105/62
f 41/230/63 42/82/63 44/106/63
f 40/58/64 45/60/64 39/107/64
f 30/40/9 29/157/9 54/41/9
f 47/42/9 50/231/9 30/40/9
f 132/62/1 128/178/1 138/178/1
f 54/105/34 53/44/34 58/90/34
f 55/96/10 29/68/10 27/67/10
f 35/12/26 38/11/26 76/13/26
f 41/232/65 65/115/65 42/117/65
f 60/233/66 59/102/66 39/107/66
f 26/234/18 28/67/18 49/172/18
f 127/37/18 2/165/18 133/38/18
f 10/39/8 14/33/8 106/31/8
f 128/161/9 127/118/9 138/161/9
f 152/89/3 153/88/3 70/88/3
f 98/46/18 100/103/18 97/47/18
f 66/83/45 65/235/45 114/144/45
f 140/236/10 139/79/10 136/81/10
f 136/237/60 135/224/60 148/226/60
f 108/132/1 105/131/1 16/228/1
f 110/173/10 13/170/10 112/123/10
f 115/72/40 111/71/40 40/73/40
f 24/222/56 23/191/56 62/207/56
f 12/212/6 134/213/6 109/215/6
f 17/59/67 22/43/67 45/60/67
f 56/162/49 25/238/49 15/32/49
f 134/213/55 12/212/55 155/213/55
f 12/170/18 109/173/18 18/122/18
f 60/84/58 62/164/58 113/217/58
f 23/191/3 24/222/3 19/192/3
f 2/239/1 6/209/1 9/211/1
f 26/238/48 49/162/48 16/32/48
f 22/43/48 16/32/48 49/162/48
f 61/240/58 113/217/58 62/164/58
f 69/29/18 68/28/18 128/30/18
f 148/8/3 143/8/3 126/7/3
f 130/118/9 129/161/9 140/118/9
f 155/129/55 151/14/55 134/129/55
f 4/185/3 68/89/3 8/111/3
f 45/60/25 52/45/25 46/91/25
f 115/100/68 59/102/68 113/95/68
f 61/94/18 23/93/18 113/95/18
f 41/101/69 116/100/69 65/102/69
f 66/83/9 63/145/9 60/84/9
f 146/70/13 131/70/13 148/8/13
f 19/192/3 13/186/3 12/176/3
f 156/174/50 151/114/50 155/175/50
f 67/14/55 134/129/55 151/14/55
f 81/74/13 83/49/13 85/51/13
f 8/241/54 129/19/54 7/17/54
f 102/51/9 104/50/9 98/74/9
f 152/119/55 68/119/55 67/14/55
f 11/33/18 16/32/18 17/59/18
f 14/189/9 110/188/9 118/189/9
f 77/242/3 74/148/3 80/150/3
f 88/103/10 86/46/10 87/48/10
f 130/18/54 6/168/54 5/169/54
f 15/32/8 106/31/8 14/33/8
f 142/200/6 11/216/6 109/215/6
f 128/19/7 4/241/7 3/17/7
f 42/82/11 39/34/11 43/36/11
f 125/163/10 129/30/10 72/29/10
f 156/129/4 131/129/4 154/14/4
f 3/17/7 1/169/7 127/18/7
f 20/27/3 14/26/3 120/27/3
f 131/129/8 125/16/8 71/14/8
f 143/196/8 110/204/8 14/219/8
f 33/125/9 31/126/9 75/125/9
f 17/127/13 111/146/13 122/127/13
f 30/68/46 28/67/46 36/5/46
f 32/126/9 34/125/9 77/126/9
f 12/176/3 18/190/3 19/192/3
f 6/165/10 130/37/10 10/39/10
f 8/203/10 70/28/10 129/30/10
f 13/9/8 110/204/8 131/10/8
f 15/32/49 21/43/49 56/162/49
f 22/43/67 52/45/67 45/60/67
f 112/123/19 19/122/19 116/100/19
f 125/62/1 131/61/1 146/61/1
f 139/178/1 129/178/1 125/62/1
f 44/243/51 43/113/51 57/177/51
f 146/61/1 135/62/1 125/62/1
f 138/178/1 141/62/1 132/62/1
f 96/103/10 94/46/10 95/48/10
f 74/125/52 73/66/52 77/126/52
f 90/46/18 92/103/18 89/47/18
f 111/146/1 109/143/1 124/146/1
f 152/89/3 70/88/3 68/89/3
f 112/152/13 20/151/13 119/152/13
