v -0.019664 -0.038640 0.000000
v -0.019664 0.038640 0.000000
v 0.019664 -0.038640 0.000000
v 0.019664 0.038640 0.000000
v -0.020709 0.014823 0.095082
v 0.020709 0.014823 0.095082
v 0.027603 -0.115973 0.058686
v -0.015278 -0.030559 0.129501
v -0.013668 -0.031633 0.131112
v -0.015278 0.017673 0.129501
v -0.013668 0.018362 0.131112
v 0.013668 0.018362 0.131112
v 0.015278 0.017673 0.129501
v 0.015278 -0.030559 0.129501
v 0.013668 -0.031633 0.131112
v 0.027770 -0.114821 0.058213
v -0.027603 -0.115973 0.058686
v -0.027770 -0.114821 0.058213
v 0.027603 -0.115973 0.105309
v 0.027770 -0.114821 0.105781
v -0.027770 -0.114821 0.105781
v -0.027603 -0.115973 0.105309
v -0.016890 -0.121060 0.083335
v -0.016890 -0.121060 0.095863
v 0.017036 -0.121060 0.083335
v 0.017036 -0.121060 0.095863
v -0.006270 -0.121060 0.066378
v 0.006258 -0.121060 0.066378
v -0.015278 0.038640 0.046975
v 0.015278 0.038640 0.046975
vn -0.566300 0.589100 -0.576300
vn 0.566300 0.589100 -0.576300
vn 0.588700 -0.239000 -0.772200
vn -0.714100 -0.242900 0.656500
vn -0.597400 -0.625700 0.501600
vn 0.597600 -0.625000 0.502100
vn 0.947800 -0.172200 -0.268300
vn 0.714100 -0.242900 0.656500
vn -0.947800 -0.172200 -0.268300
vn -0.611500 -0.678500 -0.407000
vn -0.588700 -0.239000 -0.772200
vn -0.363700 -0.115000 0.924400
vn 0.363700 -0.115000 0.924400
vn 0.801500 -0.018800 0.597600
vn -0.521000 0.844800 0.121800
vn -0.829300 0.387100 0.402800
vn -0.348000 0.564900 0.748200
vn 0.970900 0.223200 0.087100
vn 0.611500 -0.678300 -0.407300
vn -0.970900 0.223200 0.087100
vn -0.801500 -0.018800 0.597600
vn -0.164200 -0.967800 0.190600
vn 0.166600 -0.967500 0.190200
vn 0.221600 -0.974900 -0.019300
vn -0.219100 -0.975500 -0.019000
vn -0.043200 -0.959300 -0.279100
vn 0.829300 0.387100 0.402800
vn 0.521000 0.844800 0.121800
vn 0.348000 0.564900 0.748200
vn 0.042800 -0.959200 -0.279300
s 1
f 2//1 4//2 3//3
f 21//4 22//5 19//6
f 16//7 20//8 19//6
f 18//9 17//10 22//5
f 1//11 2//1 3//3
f 20//8 21//4 19//6
f 21//4 18//9 22//5
f 9//12 21//4 20//8
f 9//12 20//8 15//13
f 20//8 14//14 15//13
f 29//15 10//16 11//17
f 20//8 4//2 6//18
f 19//6 7//19 16//7
f 16//7 4//2 20//8
f 16//7 3//3 4//2
f 29//15 5//20 10//16
f 5//20 21//4 10//16
f 21//4 8//21 10//16
f 8//21 21//4 9//12
f 5//20 2//1 21//4
f 2//1 18//9 21//4
f 22//5 24//22 26//23
f 22//5 26//23 19//6
f 26//23 25//24 7//19
f 26//23 7//19 19//6
f 7//19 3//3 16//7
f 5//20 29//15 2//1
f 1//11 18//9 2//1
f 7//19 17//10 1//11
f 7//19 1//11 3//3
f 1//11 17//10 18//9
f 17//10 23//25 24//22
f 17//10 24//22 22//5
f 24//22 23//25 27//26
f 13//27 30//28 12//29
f 24//22 27//26 28//30
f 24//22 28//30 25//24
f 30//28 11//17 12//29
f 24//22 25//24 26//23
f 11//17 9//12 15//13
f 25//24 28//30 7//19
f 11//17 15//13 12//29
f 28//30 27//26 17//10
f 15//13 14//14 13//27
f 28//30 17//10 7//19
f 15//13 13//27 12//29
f 27//26 23//25 17//10
f 4//2 29//15 30//28
f 4//2 2//1 29//15
f 14//14 20//8 13//27
f 20//8 6//18 13//27
f 30//28 29//15 11//17
f 10//16 8//21 9//12
f 10//16 9//12 11//17
f 4//2 30//28 6//18
f 6//18 30//28 13//27
