# Blender v2.76 (sub 0) OBJ File: 'hw_system_collider.blend'
# www.blender.org
v 0.011249 -0.031615 0.104803
v -0.011249 -0.031615 0.104803
v 0.011249 0.035581 0.104803
v -0.011249 0.035581 0.104803
v -0.011249 -0.104128 0.049567
v 0.011249 -0.104128 0.049567
v -0.011249 -0.104128 -0.006981
v 0.011249 -0.104128 -0.006981
v -0.027865 -0.054013 -0.025830
v -0.027865 0.057979 -0.025830
v 0.027865 0.057979 -0.025830
v 0.027865 -0.054013 -0.025830
v -0.027865 -0.054013 0.068417
v -0.027865 0.057979 0.068417
v 0.027865 0.057979 0.068417
v 0.027865 -0.054013 0.068417
v 0.027865 0.035581 0.068417
v -0.011249 -0.031615 -0.040626
v 0.011249 -0.031615 -0.040626
v -0.011249 0.035581 -0.040626
v 0.011249 0.035581 -0.040626
v -0.000000 -0.115057 0.049567
v -0.000000 -0.115057 -0.006981
vt 0.806361 0.688835
vt 0.000000 0.000000
vt 0.882224 0.309634
vt 0.446938 0.166012
vt 0.495666 0.152714
vt 0.495666 0.226848
vt 0.902640 0.563692
vt 0.874950 0.563077
vt 0.291867 0.129404
vt 0.943539 0.920821
vt 0.943539 0.874424
vt 0.844951 0.555554
vt 0.844561 0.507811
vt 0.873487 0.507196
vt 0.873565 0.555554
vt 0.378126 0.129535
vt 0.902178 0.555554
vt 0.943539 0.688835
vt 0.291867 0.152155
vt 0.806361 0.920821
vt 0.882224 0.069660
vt 0.495043 0.166012
vn -0.920600 -0.242300 0.306300
vn -0.670600 0.685800 0.282900
vn -0.631400 0.643600 -0.432500
vn -0.310700 -0.144800 -0.939400
vn -0.286900 0.214100 -0.933700
vn 0.286900 0.214100 -0.933700
vn 0.802700 -0.265300 -0.534100
vn 0.753000 -0.536600 -0.380900
vn 0.000000 -0.895500 -0.444900
vn -0.949200 -0.314700 0.000000
vn 0.000000 1.000000 0.000000
vn 0.000000 0.551200 -0.834400
vn -0.443300 0.387100 0.808500
vn 0.670600 0.685800 0.282900
vn 0.909600 -0.000000 0.415400
vn -0.775200 -0.549700 0.311300
vn -0.753000 -0.536600 -0.380900
vn 0.631400 0.643600 -0.432500
vn 0.977100 0.000000 0.212500
vn 0.754200 -0.548000 0.361700
vn 0.008600 -0.915100 0.403100
vn 0.443300 0.387100 0.808500
vn -0.474700 -0.247000 0.844700
vn 1.000000 -0.000000 -0.000000
vn 0.665000 -0.000000 -0.746800
vn -0.802700 -0.265300 -0.534100
vn 0.679100 -0.444800 0.583900
vn 0.949200 -0.314700 0.000000
vn 0.474900 -0.250100 0.843700
vn -0.259300 -0.391000 -0.883100
vn -0.679100 -0.444800 0.583900
vn -0.665000 0.000000 -0.746800
vn 0.310700 -0.144800 -0.939400
vn 0.259300 -0.391000 -0.883100
s 1
f 13/1/1 14/2/2 10/3/3
f 18/4/4 20/5/5 21/6/6
f 12/2/7 8/7/8 23/8/9
s off
f 13/1/10 9/2/10 7/2/10
f 10/2/11 14/2/11 11/2/11
f 10/2/12 11/2/12 21/6/12
s 1
f 14/2/2 4/9/13 15/10/14
s off
f 17/11/15 3/2/15 1/2/15
f 20/5/12 10/2/12 21/6/12
s 1
f 5/12/16 7/13/17 23/14/9
f 11/2/18 15/10/14 17/11/19
f 6/2/20 22/15/21 8/7/8
f 4/9/13 3/2/22 15/10/14
f 2/16/23 22/15/21 6/17/20
s off
f 5/2/10 13/1/10 7/2/10
s 1
f 22/2/21 5/12/16 23/14/9
f 22/15/21 23/8/9 8/7/8
s off
f 12/2/24 11/2/24 17/11/24
f 16/18/24 12/2/24 17/11/24
s 1
f 4/9/13 2/16/23 3/19/22
s off
f 14/2/11 15/10/11 11/2/11
f 21/6/25 11/2/25 19/2/25
f 11/2/25 12/2/25 19/2/25
s 1
f 4/9/13 14/20/2 2/16/23
f 9/21/26 13/1/1 10/3/3
s off
f 6/2/27 16/2/27 1/2/27
f 6/2/28 8/7/28 12/2/28
s 1
f 17/11/19 15/10/14 3/2/22
f 1/2/29 2/16/23 6/17/20
f 14/20/2 13/2/1 2/16/23
s off
f 16/18/15 17/11/15 1/2/15
s 1
f 2/16/23 1/2/29 3/19/22
s off
f 16/2/28 6/2/28 12/2/28
f 18/2/30 23/2/30 9/2/30
s 1
f 23/14/9 7/13/17 9/2/26
f 10/2/3 20/5/5 9/21/26
s off
f 13/1/31 5/2/31 2/16/31
f 20/5/32 18/4/32 9/2/32
s 1
f 5/12/16 22/15/21 2/16/23
f 18/4/4 19/22/33 23/2/9
s off
f 19/2/34 12/2/34 23/8/34
s 1
f 19/2/33 18/4/4 21/6/6
