v 0.029211 0.108028 0.113007
v 0.029211 -0.097922 0.113007
v 0.029211 0.108028 0.021000
v 0.027809 -0.072947 -0.000004
v -0.000002 -0.091530 -0.000004
v -0.027813 -0.072947 -0.000004
v -0.021288 -0.082713 -0.000004
v -0.011522 -0.089238 -0.000004
v 0.030100 0.060457 -0.000004
v 0.027809 0.071977 -0.000004
v -0.000002 0.090560 -0.000004
v -0.027813 0.071977 -0.000004
v -0.050899 -0.065705 0.107763
v -0.050899 -0.052479 0.110394
v -0.050899 0.051755 0.110394
v -0.049774 0.097581 0.067112
v -0.049774 0.094727 0.081462
v -0.024305 -0.100605 0.113062
v -0.050899 -0.052479 0.024912
v -0.050899 -0.094040 0.069868
v -0.050899 0.051755 0.024912
v -0.049774 0.066106 0.026620
v -0.024305 -0.070188 0.132725
v -0.024305 0.084581 0.132725
v -0.024305 -0.100605 0.018317
v -0.024305 0.110712 0.018317
v 0.029211 -0.097922 0.021000
v 0.026528 -0.100605 0.018317
v 0.026528 0.110712 0.018317
v 0.029211 0.081898 0.130042
v 0.026528 0.084581 0.132725
v 0.026528 -0.070188 0.132725
v 0.029211 -0.067505 0.130042
v 0.021284 -0.082713 -0.000004
v 0.030100 -0.061427 -0.000004
v -0.030105 -0.061427 -0.000004
v 0.011518 -0.089238 -0.000004
v 0.011518 0.088268 -0.000004
v 0.021284 0.081743 -0.000004
v -0.011522 0.088268 -0.000004
v -0.021288 0.081743 -0.000004
v -0.030105 0.060457 -0.000004
v -0.049774 -0.066829 0.026620
v -0.049774 0.066106 0.108686
v -0.024305 0.110712 0.113062
v 0.026528 0.110712 0.113062
v 0.026528 -0.100605 0.113062
v -0.049774 0.094727 0.052761
vn 0.711900 -0.027500 -0.701700
vn 0.848000 -0.424400 0.317500
vn 0.910000 -0.389000 -0.143300
vn 0.153200 -0.432400 -0.888500
vn 0.462600 -0.819300 -0.338700
vn -0.001500 -0.532800 -0.846200
vn 0.338100 -0.306300 -0.889900
vn 0.578700 -0.168200 -0.798000
vn 0.543200 0.145400 -0.826900
vn 0.436000 0.788600 -0.433500
vn 0.909800 0.376100 -0.175200
vn -0.936400 0.042100 -0.348200
vn -0.452700 0.052500 -0.890100
vn -0.935900 -0.041200 -0.349800
vn 0.711000 0.021900 -0.702800
vn -0.001100 0.367900 -0.929800
vn -0.397900 0.801300 -0.446600
vn -0.125300 0.315700 -0.940500
vn -0.295300 0.251100 -0.921800
vn -0.452700 0.170300 -0.875200
vn -0.905100 0.197000 -0.376800
vn -0.367500 0.816400 0.445400
vn -0.893900 0.198200 0.401900
vn -0.378900 0.312200 0.871200
vn 0.277600 0.239800 -0.930300
vn 0.119900 0.310000 -0.943100
vn -0.453000 -0.052800 -0.889900
vn 0.857400 0.428800 0.284400
vn 0.335000 0.853800 0.398500
vn 0.401500 0.299500 0.865500
vn -0.160900 -0.440400 -0.883300
vn -0.404000 -0.842100 -0.357200
vn -0.897600 -0.253400 -0.360600
vn -0.465100 -0.208500 -0.860300
vn -0.361200 -0.321100 -0.875400
vn -0.845700 0.533600 0.000900
vn 0.916700 -0.068600 0.393600
vn 0.401400 -0.268400 0.875700
vn -0.899800 0.404400 -0.163500
vn -0.906100 0.032100 0.421900
vn -0.896100 0.411000 0.167300
vn -0.789400 -0.613700 0.015200
vn -0.902100 -0.030700 0.430500
vn -0.896900 -0.217200 0.385100
vn -0.339700 -0.268900 0.901300
vn -0.321100 -0.814500 0.483200
vn 0.916100 0.079100 0.393000
vn 0.331100 -0.841800 0.426300
s 1
f 35//1 2//2 27//3
f 37//4 28//5 5//6
f 37//4 34//7 28//5
f 34//7 4//8 28//5
f 10//9 29//10 3//11
f 21//12 42//13 19//14
f 9//15 10//9 3//11
f 29//10 11//16 26//17
f 11//16 40//18 26//17
f 40//18 41//19 26//17
f 41//19 12//20 26//17
f 12//20 22//21 26//17
f 45//22 44//23 24//24
f 39//25 29//10 10//9
f 39//25 38//26 29//10
f 38//26 11//16 29//10
f 42//13 36//27 19//14
f 3//11 1//28 9//15
f 1//28 46//29 31//30
f 8//31 5//6 25//32
f 5//6 28//5 25//32
f 43//33 6//34 25//32
f 6//34 7//35 25//32
f 7//35 8//31 25//32
f 28//5 4//8 27//3
f 4//8 35//1 27//3
f 26//17 16//36 45//22
f 2//2 33//37 32//38
f 26//17 48//39 16//36
f 43//33 36//27 6//34
f 44//23 15//40 24//24
f 19//14 36//27 43//33
f 42//13 22//21 12//20
f 42//13 21//12 22//21
f 22//21 48//39 26//17
f 17//41 44//23 45//22
f 19//14 43//33 20//42
f 14//43 13//44 23//45
f 13//44 18//46 23//45
f 20//42 25//32 18//46
f 30//47 1//28 31//30
f 1//28 30//47 9//15
f 33//37 2//2 35//1
f 47//48 2//2 32//38
f 20//42 18//46 13//44
f 16//36 17//41 45//22
f 29//10 46//29 3//11
f 1//28 3//11 46//29
f 20//42 43//33 25//32
f 32//38 24//24 23//45
f 24//24 15//40 14//43
f 36//27 42//13 12//20
f 24//24 14//43 23//45
f 36//27 12//20 41//19
f 15//40 21//12 19//14
f 36//27 41//19 40//18
f 15//40 19//14 20//42
f 36//27 40//18 11//16
f 15//40 20//42 13//44
f 36//27 11//16 38//26
f 15//40 13//44 14//43
f 36//27 38//26 39//25
f 36//27 39//25 10//9
f 36//27 10//9 9//15
f 25//32 28//5 47//48
f 36//27 9//15 35//1
f 25//32 47//48 18//46
f 36//27 35//1 4//8
f 36//27 4//8 34//7
f 36//27 34//7 37//4
f 33//37 30//47 31//30
f 36//27 37//4 5//6
f 33//37 31//30 32//38
f 36//27 5//6 8//31
f 31//30 46//29 45//22
f 36//27 8//31 7//35
f 31//30 45//22 24//24
f 36//27 7//35 6//34
f 44//23 17//41 15//40
f 17//41 16//36 15//40
f 16//36 21//12 15//40
f 28//5 27//3 2//2
f 28//5 2//2 47//48
f 35//1 9//15 30//47
f 35//1 30//47 33//37
f 46//29 29//10 26//17
f 46//29 26//17 45//22
f 48//39 21//12 16//36
f 48//39 22//21 21//12
f 18//46 47//48 32//38
f 18//46 32//38 23//45
f 32//38 31//30 24//24
