# Blender v2.76 (sub 0) OBJ File: 'maint2_7d.blend'
# www.blender.org
v 0.980002 1.200000 1.280000
v -0.940044 1.280000 1.280000
v -0.940044 1.280000 -0.560206
v 0.980002 1.200000 -0.560206
v -0.833375 1.245143 1.280000
v -0.726706 1.218295 1.280000
v -0.620036 1.200000 1.280000
v -0.513367 1.218295 1.280000
v -0.406698 1.245143 1.280000
v -0.300029 1.280000 1.280000
v -0.217360 1.249084 1.280000
v -0.105357 1.219354 1.280000
v 0.006645 1.200000 1.280000
v 0.126648 1.222391 1.280000
v 0.233318 1.280000 1.280000
v 0.339987 1.218295 1.280000
v 0.446656 1.200000 1.280000
v 0.553325 1.200000 1.280000
v 0.659994 1.218295 1.280000
v 0.766664 1.229887 1.280000
v 0.873333 1.208559 1.280000
v -0.833375 1.245143 -0.560206
v -0.726706 1.218295 -0.560206
v -0.620036 1.200000 -0.560206
v -0.513367 1.218295 -0.560206
v -0.406698 1.245143 -0.560206
v -0.300029 1.280000 -0.560206
v -0.217360 1.249084 -0.560206
v -0.105357 1.219354 -0.560206
v 0.006645 1.200000 -0.560206
v 0.123981 1.220433 -0.560206
v 0.233317 1.280000 -0.560206
v 0.339987 1.218295 -0.560206
v 0.446656 1.200000 -0.560206
v 0.553325 1.200000 -0.560206
v 0.659994 1.218295 -0.560206
v 0.766664 1.229887 -0.560206
v 0.873333 1.208559 -0.560206
v 0.926668 1.200000 1.280000
v 0.926667 1.200000 -0.560206
v 0.980002 1.280000 1.280000
v 0.980002 1.280000 -0.560206
v -1.179922 1.280000 0.479769
v -0.940044 1.357995 0.479769
v -0.940044 1.342686 0.221403
v -0.940044 1.337621 0.199783
v -0.940044 1.309126 0.119891
v -0.940044 1.351908 0.539852
v -0.940044 1.356640 0.499669
v -1.179922 1.280000 0.559661
v -1.179922 1.280000 0.221403
v -1.179922 1.280000 0.199783
v -1.179922 1.280000 0.119891
v -1.179922 1.280000 0.312797
v -1.179922 1.280000 0.539852
v -1.179922 1.280000 0.239845
v -1.179922 1.280000 0.499669
v -1.179922 1.280000 0.440137
v 1.060083 1.280000 0.559661
v 1.060083 1.280000 0.119891
v -1.033264 1.325579 0.559661
v -1.033264 1.333445 0.411807
v -1.033264 1.323215 0.239845
v -1.033264 1.280000 0.130010
v -1.033264 1.333129 0.499669
v -1.033264 1.334695 0.440137
v -1.033264 1.334286 0.479769
v -1.033264 1.318948 0.221403
v -1.033264 1.312592 0.199783
v -1.033264 1.280000 0.119891
v -1.033264 1.333189 0.312797
v -1.033264 1.328786 0.539852
v -0.940044 1.357006 0.411807
v -0.940044 1.348701 0.559661
v -0.940044 1.356709 0.312797
v -0.940044 1.346467 0.239845
v -0.940044 1.314276 0.130010
v -0.940044 1.358485 0.440137
v 1.280000 1.280000 -1.280000
v 1.280000 1.280000 1.280000
v 1.280000 1.280000 1.020639
v 1.280000 1.255284 1.072511
v 1.280000 1.240000 1.124384
v 1.280000 1.240000 1.176256
v 1.280000 1.255284 1.228128
v 1.280000 1.280000 0.585918
v 1.280000 1.280000 0.672862
v 1.280000 1.254229 0.759807
v 1.280000 1.240000 0.846751
v 1.280000 1.254229 0.933695
v 1.280000 1.280000 -1.211796
v 1.280000 1.280000 -0.079959
v 1.280000 1.200000 -1.119868
v 1.280000 1.200000 -0.359975
v 1.280000 1.244637 0.440360
v 1.280000 1.280000 0.120114
v 1.280000 1.280000 0.559884
v 1.280000 1.200000 0.119891
v 1.280000 1.200000 0.559661
v -1.280000 1.200000 0.559661
v -1.280000 1.200000 0.119891
v -1.280000 1.280000 0.559884
v -1.280000 1.280000 0.120114
v -1.280000 1.200000 -1.119868
v -1.280000 1.200000 -0.359975
v -1.280000 1.280000 -0.079959
v -1.280000 1.280000 -1.211796
v -1.280000 1.254229 0.933695
v -1.280000 1.240000 0.846751
v -1.280000 1.254229 0.759807
v -1.280000 1.280000 0.672862
v -1.280000 1.282272 0.585918
v -1.280000 1.255285 1.228128
v -1.280000 1.240000 1.176256
v -1.280000 1.240000 1.124384
v -1.280000 1.255285 1.072511
v -1.280000 1.280000 1.020639
v -1.280000 1.280000 1.280000
v -1.280000 1.280000 -1.280000
v 0.980002 1.140000 -0.620061
v 0.980002 1.140000 -1.211796
v 0.980002 1.280000 -1.280000
v 0.980002 1.280000 0.672863
v 0.980002 1.280000 1.280000
v 0.980002 1.140000 -0.560206
v 0.980002 1.200000 -0.359975
v -0.940044 1.140000 -1.211796
v -0.940044 1.280000 0.038839
v -0.940044 1.325606 0.672862
v -0.940044 1.240000 0.846751
v -0.940044 1.343617 0.585918
v -0.940044 1.272254 0.759807
v -0.940044 1.140000 -0.620061
v -0.940044 1.280000 -1.280000
v -0.940044 1.280000 1.280000
v -0.940044 1.140000 -0.560206
v -0.940044 1.200000 -0.359975
v -0.940044 1.280000 -0.079959
v 0.980002 1.280000 -0.079959
v 0.980002 1.280000 -0.560206
v -1.179922 1.200000 0.559661
v -1.179922 1.200000 0.119891
v 1.186070 1.198877 -0.364508
v 0.944060 1.140000 -0.602104
v -1.179922 1.280000 0.585918
v -1.179922 1.200000 -0.359975
v 1.060083 1.200000 0.559661
v 1.060083 1.200000 0.119891
v -1.033264 1.322348 0.585918
v -1.033264 1.254229 0.759807
v -1.033264 1.200000 -0.359975
v -1.033264 1.280000 0.672863
v 1.060083 1.199563 -0.361737
v 0.966035 1.140000 -0.576488
v -0.940044 1.140000 -0.576619
v 0.507646 1.240000 0.846751
v 0.507646 1.240000 1.176256
v 0.507646 1.254229 0.933695
v 0.507646 1.255285 1.228128
v 0.507646 1.254229 0.759807
v 0.507646 1.240000 1.124384
v 0.507646 1.255285 1.072511
v 0.507646 1.280000 0.672863
v 0.507646 1.280000 1.020639
v 0.507646 1.280000 1.280000
v -0.620920 1.254229 0.933695
v -0.620920 1.255285 1.228128
v -0.620920 1.353612 0.672862
v -0.620920 1.240000 0.846751
v -0.620920 1.240000 1.176256
v -0.620920 1.307645 0.759807
v -0.620920 1.240000 1.124384
v -0.620920 1.255285 1.072511
v -0.620920 1.280000 1.020639
v -0.620920 1.280000 1.280000
v 0.339987 1.218295 0.684897
v 0.233317 1.280000 -0.525389
v 0.233317 1.280000 0.479252
v 0.124239 1.220622 -0.382603
v 0.124736 1.220986 -0.039852
v 0.125186 1.260820 0.270788
v 0.181611 1.302408 0.042267
v 0.063796 1.210228 -0.221925
v 0.659994 1.236415 -0.000575
v 0.553325 1.251918 0.138662
v 0.553325 1.236626 0.374292
v 0.446656 1.200000 0.542090
v 0.610031 1.230962 0.345731
v 0.620741 1.246141 0.202925
v 0.553325 1.200000 -0.471836
v 0.659994 1.218295 -0.368302
v 0.713566 1.245786 -0.132671
v 0.338699 1.219040 -0.560206
v 0.233317 1.342327 -0.198639
v 0.553325 1.273979 -0.154682
v 0.339987 1.300020 -0.183987
v 0.659994 1.266277 -0.140030
v 0.446656 1.389570 -0.169334
v 0.413559 1.395246 -0.173880
v 0.233317 1.352308 0.088452
v 0.379870 1.401024 0.219357
v 0.339987 1.407865 0.183732
v 0.446656 1.275270 0.279012
v -0.726706 1.218295 0.113670
v -0.726706 1.272687 0.220775
v -0.726706 1.291297 0.367152
v -0.726706 1.299288 0.649362
v -0.970243 1.350249 0.312797
v -0.940044 1.351908 0.539852
v -0.940044 1.358631 0.352871
v -0.833375 1.283284 0.124381
v -0.833375 1.309536 0.709888
v -0.856602 1.348780 0.672862
v -0.768122 1.362731 0.672862
v -0.969019 1.340843 0.239845
v -0.955681 1.339841 0.221403
v -0.620036 1.227853 0.263617
v -0.620036 1.244907 0.345731
v -0.620036 1.269830 0.545660
v -0.571693 1.242186 0.402854
v -0.893007 1.334331 0.231486
v -0.996542 1.340312 0.277898
v -0.833375 1.335282 0.709888
v -0.664517 1.207629 0.149372
v -0.682368 1.290938 0.624204
v -0.726706 1.407865 0.584732
v -0.620036 1.258439 0.459576
v -0.833375 1.434713 0.358153
v -0.833375 1.434713 0.453502
vt 0.888093 0.998016
vt 0.893106 0.998016
vt 0.831073 0.998016
vt 0.174463 0.548586
vt 0.151169 0.590424
vt 0.132795 0.578040
vt 0.174463 0.281170
vt 0.216131 0.544402
vt 0.257798 0.281170
vt 0.257798 0.602975
vt 0.240423 0.558349
vt 0.299466 0.281170
vt 0.276682 0.657365
vt 1.000000 0.062552
vt 1.000000 0.359385
vt 0.882813 0.257789
vt 0.914095 0.358697
vt 0.963308 0.357614
vt 0.882813 0.468766
vt 0.039093 0.359385
vt 0.132795 0.274759
vt 0.096381 0.359385
vt 0.591140 0.281170
vt 0.632304 0.281170
vt 0.591140 0.294770
vt 0.674475 0.281170
vt 0.632807 0.428130
vt 0.632807 0.281170
vt 0.716143 0.281170
vt 0.716143 0.315689
vt 0.000000 0.718705
vt 0.000000 0.728874
vt 0.000000 0.546920
vt 0.799478 1.000000
vt 0.757810 0.499775
vt 0.778737 0.448175
vt 1.000000 0.672016
vt 1.000000 0.718705
vt 1.000000 0.718617
vt 0.458845 0.281170
vt 0.458845 1.000000
vt 0.415094 1.000000
vt 0.882813 0.762837
vt 0.914095 0.546832
vt 0.132795 0.898687
vt 0.132795 0.918950
vt 0.000000 0.898687
vt 0.096381 0.718618
vt 0.039093 0.710880
vt 0.096381 0.710880
vt 0.096381 0.687410
vt 0.039093 0.671928
vt 0.096381 0.671928
vt 0.039093 0.695183
vt 0.096381 0.695183
vt 0.039093 0.578040
vt 0.096381 0.550785
vt 0.096381 0.578040
vt 0.039093 0.593689
vt 0.096381 0.586486
vt 0.096381 0.593689
vt 0.096381 0.660862
vt 0.039093 0.622186
vt 0.096381 0.622186
vt 0.039093 0.687410
vt 0.000000 0.546832
vt 0.039093 0.546920
vt 0.132795 0.468766
vt 0.000000 0.468766
vt 0.132795 0.586486
vt 0.126687 0.586486
vt 0.132795 0.546832
vt 0.132795 0.550785
vt 0.132795 0.695183
vt 0.132795 0.687410
vt 0.882813 0.026642
vt 0.132795 0.593689
vt 0.132795 0.710880
vt 0.914095 0.718705
vt 0.877325 0.274675
vt 1.000000 0.728874
vt 1.000000 0.979737
vt 1.000000 0.959475
vt 1.000000 0.939212
vt 1.000000 0.762837
vt 0.000000 0.939212
vt 0.000000 0.959475
vt 0.000000 0.979737
vt 1.000000 0.546832
vt 1.000000 0.468766
vt 1.000000 0.918950
vt 0.132795 0.257789
vt 0.868774 0.264803
vt 0.882813 0.864725
vt 1.000000 0.864725
vt 0.882813 0.898687
vt 0.132795 0.000000
vt 0.132795 0.026642
vt 0.000000 0.026642
vt 0.674475 0.433854
vt 0.648387 0.585686
vt 0.632807 0.571770
vt 0.039093 0.586486
vt 0.132795 0.718705
vt 0.132795 0.762837
vt 0.035943 0.622186
vt 0.035943 0.546832
vt 0.035943 0.593689
vt 0.632807 0.767538
vt 0.632807 1.000000
vt 0.591140 1.000000
vt 0.882813 0.979737
vt 0.882813 1.000000
vt 1.000000 0.898687
vt 0.120999 0.622186
vt 0.121477 0.593689
vt 0.000000 0.796799
vt 0.000000 0.830762
vt 0.000000 0.864725
vt 0.415094 0.281170
vt 0.382801 0.281170
vt 0.039093 0.728874
vt 0.039093 0.718705
vt 0.882813 0.000000
vt 0.548430 0.281170
vt 0.548725 0.484422
vt 0.548531 0.350542
vt 0.591140 0.422407
vt 0.035943 0.671928
vt 0.035943 0.687410
vt 0.035943 0.718618
vt 0.882813 0.959475
vt 0.822926 0.998016
vt 0.873055 0.998016
vt 0.502596 0.281170
vt 0.524930 0.413307
vt 0.805512 0.998003
vt 0.815025 0.998003
vt 0.866885 0.998003
vt 0.000000 0.762837
vt 0.841146 1.000000
vt 0.799478 0.281170
vt 0.132795 0.622186
vt 0.132795 0.637840
vt 0.132795 0.830762
vt 0.132795 0.864725
vt 0.861979 1.000000
vt 0.841146 0.281170
vt 1.000000 0.796799
vt 1.000000 0.830762
vt 0.882813 0.796799
vt 0.882813 0.830762
vt 0.000000 0.718617
vt 0.132795 0.718618
vt 1.000000 0.026642
vt 1.000000 0.062183
vt 0.000000 0.918950
vt 0.361787 0.687983
vt 0.359998 0.687983
vt 0.363577 0.687983
vt 0.832951 0.998016
vt 0.842977 0.998016
vt 0.879664 0.281170
vt 0.879664 1.000000
vt 0.882813 0.281170
vt 0.861979 0.281170
vt 0.382801 1.000000
vt 0.883080 0.998016
vt 0.853003 0.998016
vt 0.863029 0.998016
vt 0.661547 0.432078
vt 1.000000 0.000000
vt 0.757810 0.281170
vt 0.757810 0.356132
vt 0.000000 0.000000
vt 0.000000 0.062183
vt 0.132795 0.281170
vt 0.132795 0.359385
vt 0.000000 0.359385
vt 0.882813 0.359385
vt 0.914095 0.718617
vt 1.000000 0.546920
vt 0.035943 0.586486
vt 0.358208 0.687983
vt 0.356418 0.687983
vt 0.372862 0.730941
vt 0.000000 0.062552
vt 0.216131 0.643419
vt 0.216131 0.728411
vt 0.174463 0.639903
vt 0.132795 0.979737
vt 0.132795 1.000000
vt 0.132795 0.728874
vt 0.365367 0.687983
vt 0.096381 0.762837
vt 0.674475 1.000000
vt 0.096381 0.728874
vt 0.096381 0.718705
vt 0.132795 0.660862
vt 0.039093 0.718618
vt 0.674475 0.711754
vt 0.132795 0.515172
vt 0.096381 0.546832
vt 0.096381 0.796800
vt 0.132795 0.796799
vt 0.502596 1.000000
vt 0.341134 0.281170
vt 0.035943 0.578040
vt 0.882813 0.939212
vt 0.039093 0.546832
vt 0.882813 0.918950
vt 1.000000 1.000000
vt 0.570929 0.516505
vt 0.548901 0.605760
vt 0.591140 0.687208
vt 0.549472 0.999964
vt 0.757810 1.000000
vt 0.716143 0.646208
vt 0.738293 0.635051
vt 0.742477 0.579268
vt 0.716143 0.554165
vt 0.716143 1.000000
vt 0.716143 0.439577
vt 0.757810 0.445301
vt 0.591140 0.534552
vt 0.674475 0.608989
vt 0.257798 0.635051
vt 0.257798 0.679522
vt 0.174463 0.677149
vt 0.174463 0.777300
vt 0.110726 0.608554
vt 0.216131 1.000000
vt 0.174463 1.000000
vt 0.132795 0.777300
vt 0.216131 0.586240
vt 0.233450 0.743830
vt 0.257798 1.000000
vt 0.216131 0.753657
vt 0.257798 0.713148
vt 0.341134 1.000000
vt 0.216131 0.281170
vt 0.299466 1.000000
vt 0.132795 0.939212
vt 0.827913 0.998003
vt 0.035943 0.695183
vt 0.840802 0.998003
vt 0.854611 0.997992
vt 0.132795 0.959475
vt 0.132795 0.671928
vt 0.914095 0.546920
vt 0.132795 0.546920
vt 0.096381 0.546920
vt 0.000000 1.000000
vt 0.035943 0.710880
vt 0.035943 0.718705
vn 0.000000 0.000000 1.000000
vn -0.261600 -0.919700 0.292700
vn -0.516200 -0.855100 0.047600
vn 0.345000 -0.938100 0.031700
vn 0.188100 -0.981500 0.035700
vn 0.196100 -0.980600 0.000000
vn 0.000800 -0.961500 0.274700
vn 0.000000 -0.963700 0.266900
vn -0.500700 -0.865600 0.000000
vn -0.165300 -0.963800 0.209400
vn 0.000000 -1.000000 0.000000
vn -1.000000 0.000000 0.000000
vn 0.133500 -0.990900 -0.016200
vn 1.000000 0.000000 0.000000
vn -0.256600 -0.966500 0.000000
vn 0.000000 -0.902800 -0.430100
vn 0.312000 -0.937900 -0.151900
vn 0.349400 -0.936900 -0.009700
vn 0.338900 -0.935400 -0.101100
vn 0.197400 -0.888200 0.414900
vn 0.275900 -0.936400 0.216600
vn 0.349100 -0.936200 0.041300
vn 0.340900 -0.940100 0.002400
vn 0.346600 -0.936400 -0.054400
vn -0.002200 0.002800 -1.000000
vn 0.338200 -0.932400 0.127500
vn 0.000000 -0.961500 0.274700
vn 0.174400 -0.958700 0.224600
vn 0.311400 -0.846900 0.431000
vn 0.246000 -0.967000 -0.065900
vn 0.246500 -0.969100 -0.010000
vn 0.175500 -0.964400 0.197700
vn 0.246700 -0.919000 0.307500
vn 0.243000 -0.963400 -0.113400
vn -0.001000 -0.002800 1.000000
vn 0.000600 -0.963700 0.267000
vn -0.000000 -0.958800 0.284200
vn -0.177500 -0.431000 -0.884700
vn -0.169000 -0.985600 -0.000000
vn 0.246900 -0.929700 0.273300
vn 0.212800 -0.964500 -0.156200
vn -0.000000 -0.902800 0.430100
vn 0.189000 -0.973500 0.128700
vn -0.350300 -0.936600 0.000000
vn 0.000000 -0.438000 -0.899000
vn 0.478400 -0.878100 0.000000
vn 0.249300 -0.928400 0.275600
vn 0.745000 -0.667100 -0.000400
vn 0.000000 -0.959200 0.282600
vn 0.171500 -0.985200 0.000800
vn -0.022700 -0.999400 -0.026100
vn -0.196100 -0.980600 0.000000
vn -1.000000 0.000100 0.000000
vn 0.000000 -0.986900 0.161500
vn -0.158500 -0.987400 0.000000
vn -0.000000 -0.986900 -0.161500
vn 0.002200 -0.002800 1.000000
vn 0.237800 -0.958800 -0.155200
vn 0.332100 -0.711500 -0.619200
vn 0.171600 -0.985200 0.000800
vn 0.169000 -0.985600 0.000000
vn 0.263000 -0.964800 0.003600
vn 0.200200 -0.429100 -0.880800
vn -0.296700 -0.720400 -0.626900
vn -0.173800 -0.984800 0.000000
vn 0.498300 0.754300 -0.427400
vn 0.000000 -0.957900 0.287000
vn 0.000000 -0.974400 0.224800
vn 0.000900 -0.974600 0.223900
vn 0.000000 0.002800 -1.000000
vn -0.774700 -0.557400 0.298600
vn 0.262400 -0.944900 -0.195700
vn 0.251300 -0.870200 -0.423800
vn 0.294800 -0.948400 -0.116700
vn 0.236600 -0.953900 -0.184700
vn 0.218000 -0.955600 -0.198000
vn 0.178400 -0.922500 -0.342200
vn 0.384900 -0.786700 -0.482700
vn 0.244800 -0.968600 0.042700
vn 0.680900 -0.441700 -0.584100
vn -0.170300 -0.985400 -0.000000
vn 0.310600 -0.950500 0.000000
vn 0.261300 -0.965300 0.002500
vn 0.000000 -0.959200 -0.282600
vn -0.054700 -0.882700 -0.466700
vn 0.000000 -0.958800 -0.284200
vn 0.000000 -0.937600 -0.347800
vn 0.778200 -0.623000 0.078800
vn 0.243700 -0.969100 -0.037300
vn -0.103400 -0.994600 -0.008000
vn -0.023800 -0.997600 -0.064700
vn -0.053400 -0.972500 0.226800
vn -0.373400 -0.907800 0.190800
vn -0.340000 -0.846200 0.410400
vn -0.443800 -0.875700 0.190000
vn -0.372300 -0.927500 0.032200
vn -0.326400 -0.924300 -0.197900
vn 0.785200 -0.615600 0.066500
vn 0.769100 -0.613300 0.179900
vn -0.290600 -0.954800 -0.062000
vn -0.236000 -0.969000 -0.072900
vn -0.581800 -0.738900 -0.339900
vn -0.209500 -0.879800 0.426700
vn -0.102100 -0.956400 -0.273600
vn 0.678200 -0.734100 0.033900
vn 0.559300 -0.815100 -0.150800
vn -0.848600 -0.512700 -0.130700
vn 0.153800 -0.924200 -0.349600
vn -0.191700 -0.974600 0.115800
vn 0.613200 -0.789900 0.000000
vn -0.234500 -0.967600 -0.094000
vn 0.305600 -0.943400 0.129000
vn 0.208900 -0.976800 0.046900
vn -0.242600 -0.964000 -0.108900
vn 0.000000 -0.961700 0.274200
vn 0.141600 -0.898100 -0.416300
vn -0.381600 -0.824100 0.418500
vn -0.423600 -0.898600 0.114200
vn -0.562700 -0.728700 0.390400
vn -0.244100 -0.963400 -0.110400
vn -0.359300 -0.913700 0.189800
vn 0.252800 -0.938800 0.233900
vn -0.755000 -0.447900 -0.478800
vn -0.472900 -0.450700 -0.757100
vn -0.176600 -0.975800 0.129100
vn 0.249800 -0.812700 0.526400
vn 0.323900 -0.850200 -0.415100
vn 0.244100 -0.969800 0.000000
vn 0.299200 -0.857400 -0.418600
vn -0.413800 -0.907800 0.068800
vn -0.310200 -0.949200 0.052900
vn -0.244100 -0.969800 0.000000
vn -0.475200 -0.815900 0.329500
vn 0.168900 -0.985100 0.033300
vn -0.379000 -0.925400 0.000000
vn 0.168300 -0.981300 -0.093300
vn -0.283300 -0.939000 0.195000
vn -0.478700 -0.878000 0.007900
vn -0.201600 -0.971500 0.124900
vn 0.183300 -0.982300 -0.037700
vn 0.558400 -0.829400 0.015600
vn 0.718800 -0.593700 0.361700
vn 0.108000 -0.994100 0.000000
vn -0.286800 -0.958000 0.000000
vn 0.108000 -0.994000 -0.014100
vn 0.220100 -0.973400 0.063500
vn 0.296800 -0.954900 0.000000
vn 0.347100 -0.937800 0.000000
vn 0.315600 -0.948900 0.000000
vn 0.256700 -0.966500 0.000000
vn -0.167700 -0.977900 -0.125100
vn 0.340600 -0.940200 0.000000
vn 0.216900 -0.976200 0.000000
vn 0.282600 -0.959200 -0.000000
vn 0.207200 -0.968800 0.136000
vn -0.001800 -0.961500 0.274700
vn 0.298200 -0.954500 0.000000
vn 0.244200 -0.968100 -0.056300
vn 0.244900 -0.969200 -0.026700
vn 0.187200 -0.964200 0.187800
vn 0.316100 -0.859600 0.401500
vn 0.239400 -0.965300 -0.104300
vn -0.165500 -0.978100 -0.126000
vn 0.176200 -0.984400 -0.000000
vn 0.478400 -0.878200 0.000200
vn -0.022600 -0.996000 0.086900
vn 0.342400 -0.939600 0.000000
vn 0.000000 0.000000 -1.000000
vn 0.247000 -0.967700 0.050600
vn 0.001100 -0.957900 0.287000
vn -0.541200 -0.840900 0.000000
vn 0.080700 -0.983600 0.161500
vn 0.001000 0.000000 -1.000000
vn 0.250200 -0.928900 0.273100
vn 0.277400 -0.960700 -0.000000
vn 0.282100 -0.902900 0.324400
vn 0.220900 -0.968000 -0.119100
vn 0.402600 -0.822900 -0.400800
vn 0.000000 -0.959200 0.282700
vn 0.000000 -0.959200 -0.282700
vn 0.182300 -0.942700 -0.279400
vn 0.196600 -0.972000 0.128600
vn 0.247300 -0.968900 -0.012000
vn 0.077200 -0.696000 -0.713900
vn 0.237500 -0.855200 -0.460700
vn 0.025700 -0.824200 -0.565700
vn 0.250600 -0.825100 -0.506300
vn 0.087200 -0.786300 -0.611700
vn -0.242700 -0.970100 0.000000
vn 0.615000 -0.774500 0.147700
vn 0.475200 -0.879900 0.000000
vn -0.110200 -0.993600 0.026200
vn 0.011100 -0.999800 -0.014100
vn 0.168900 -0.984800 -0.039800
vn -0.788100 -0.603000 -0.123200
vn -0.156400 -0.980900 -0.116000
vn 0.269200 -0.962300 -0.038900
vn -0.098400 -0.973900 0.204700
vn -0.735800 -0.659500 0.153800
vn -0.383600 -0.907200 0.173000
vn -0.492100 -0.850700 0.184800
vn 0.241100 -0.931300 0.273100
vn 0.682400 -0.730600 0.025400
vn -0.473200 -0.853600 -0.217600
vn -0.730700 -0.680800 -0.051200
vn -0.041800 -0.977000 -0.209200
vn -0.842600 -0.517800 -0.148100
vn 0.464900 -0.870600 -0.161100
vn 0.139600 -0.926200 -0.350300
vn -0.097700 -0.994300 0.041800
vn 0.754100 -0.639100 0.151500
vn -0.308800 -0.945100 -0.106700
vn 0.260500 -0.949400 0.175200
vn 0.260500 -0.962300 0.077700
vn -0.498300 -0.727700 0.471400
vn -0.802400 -0.592100 0.075300
vn -0.445600 -0.798200 0.405400
vn -0.377900 -0.919400 0.109300
vn -0.415200 -0.905600 -0.086100
vn 0.258300 -0.941200 0.217800
vn -0.504200 -0.441700 -0.742100
vn -0.777100 -0.623900 0.082600
vn 0.250500 -0.950500 -0.184000
s off
f 39/1/1 1/2/1 124/3/1
f 211/4/2 221/5/2 46/6/2
f 22/7/3 204/8/3 211/4/3
f 24/9/4 217/10/4 224/11/4
f 25/12/5 220/13/5 217/10/5
f 93/14/6 94/15/6 120/16/6
f 153/17/7 143/18/7 139/19/7
f 146/20/8 155/21/8 151/22/8
f 32/23/9 193/24/9 177/25/9
f 34/26/10 196/27/10 33/28/10
f 34/26/11 35/29/11 190/30/11
f 102/31/12 112/32/12 103/33/12
f 20/34/13 184/35/13 192/36/13
f 95/37/14 97/38/14 99/39/14
f 29/40/15 12/41/15 11/42/15
f 123/43/11 139/19/11 60/44/11
f 174/45/16 173/46/16 117/47/16
f 61/48/17 55/49/17 72/50/17
f 67/51/18 58/52/18 66/53/18
f 72/50/19 57/54/19 65/55/19
f 52/56/20 64/57/20 69/58/20
f 56/59/21 68/60/21 63/61/21
f 58/52/22 62/62/22 66/53/22
f 54/63/23 71/64/23 62/62/23
f 65/55/24 43/65/24 67/51/24
f 101/66/25 103/33/25 53/67/25
f 54/63/26 63/61/26 71/64/26
f 138/68/27 106/69/27 146/20/27
f 45/70/28 216/71/28 46/6/28
f 64/57/29 47/72/29 77/73/29
f 49/74/30 67/51/30 44/75/30
f 44/75/31 67/51/31 66/53/31
f 121/76/6 93/14/6 120/16/6
f 76/77/32 216/71/32 45/70/32
f 69/58/33 77/73/33 46/6/33
f 48/78/34 65/55/34 49/74/34
f 99/39/35 97/38/35 59/79/35
f 153/17/36 154/80/36 143/18/36
f 86/81/12 97/38/12 95/37/12
f 85/82/14 84/83/14 83/84/14
f 59/79/11 87/85/11 123/43/11
f 115/86/12 114/87/12 113/88/12
f 98/89/11 99/39/11 148/44/11
f 139/19/11 92/90/11 60/44/11
f 83/84/14 82/91/14 85/82/14
f 155/21/11 133/92/11 144/93/11
f 158/94/37 90/95/37 164/96/37
f 134/97/38 127/98/38 107/99/38
f 198/100/39 201/101/39 202/102/39
f 68/60/40 51/103/40 69/58/40
f 133/92/11 127/98/11 144/93/11
f 74/104/41 48/78/41 213/105/41
f 54/106/14 142/107/14 56/108/14
f 176/109/9 16/110/9 15/111/9
f 159/112/42 85/82/42 124/113/42
f 123/43/11 60/44/11 59/79/11
f 81/114/16 82/91/16 164/96/16
f 76/77/43 208/115/43 215/116/43
f 110/117/12 109/118/12 108/119/12
f 28/120/15 29/40/15 11/42/15
f 28/120/44 11/42/44 27/121/44
f 145/122/11 102/31/11 50/123/11
f 127/98/45 134/97/45 122/124/45
f 31/125/46 32/23/46 177/25/46
f 46/6/47 216/71/47 69/58/47
f 97/38/11 86/81/11 59/79/11
f 180/126/48 179/127/48 194/128/48
f 58/129/14 43/130/14 141/131/14
f 84/83/49 85/82/49 157/132/49
f 124/3/1 15/133/1 20/134/1
f 124/113/42 165/113/42 159/112/42
f 30/135/50 179/127/50 183/136/50
f 10/137/1 11/138/1 15/139/1
f 145/122/51 111/140/51 112/32/51
f 21/141/52 20/34/52 37/142/52
f 75/143/53 76/77/53 210/144/53
f 169/145/54 166/146/54 130/145/54
f 39/147/55 21/141/55 38/148/55
f 64/57/11 52/56/11 53/67/11
f 88/149/56 89/150/56 160/151/56
f 89/150/56 156/152/56 160/151/56
f 50/123/57 102/31/57 100/153/57
f 88/149/14 81/114/14 90/95/14
f 108/119/37 166/146/37 117/47/37
f 74/154/58 61/48/58 72/50/58
f 103/33/12 101/66/12 100/153/12
f 91/155/59 93/156/59 121/76/59
f 113/88/12 116/157/12 115/86/12
f 7/158/1 8/159/1 6/160/1
f 16/161/1 17/162/1 15/133/1
f 4/163/14 42/163/14 1/164/14
f 4/165/11 1/113/11 40/166/11
f 30/135/60 31/125/60 179/127/60
f 11/42/44 10/167/44 27/121/44
f 20/134/1 21/168/1 124/3/1
f 91/155/14 92/90/14 94/15/14
f 173/46/16 116/157/16 117/47/16
f 224/11/39 204/8/39 24/9/39
f 18/169/1 19/170/1 15/133/1
f 199/171/39 198/100/39 202/102/39
f 79/172/11 91/155/11 122/124/11
f 117/47/12 116/157/12 113/88/12
f 36/173/61 191/174/61 190/30/61
f 210/144/62 62/62/62 208/115/62
f 119/175/11 134/97/11 107/99/11
f 90/95/37 81/114/37 164/96/37
f 91/155/63 121/76/63 122/124/63
f 104/176/64 107/99/64 127/98/64
f 140/165/1 3/177/1 136/177/1
f 108/119/12 117/47/12 111/140/12
f 17/162/1 18/169/1 15/133/1
f 104/176/65 127/98/65 133/92/65
f 153/17/66 125/165/66 154/80/66
f 151/22/67 136/177/67 137/178/67
f 133/92/68 146/20/68 105/179/68
f 143/18/69 120/16/69 94/15/69
f 139/19/12 140/165/12 126/180/12
f 99/39/11 147/181/11 148/44/11
f 98/89/70 148/44/70 96/182/70
f 109/118/54 130/145/54 108/119/54
f 51/183/14 56/108/14 142/107/14
f 9/184/1 10/185/1 135/186/1
f 104/187/12 105/179/12 107/99/12
f 206/188/71 226/189/71 228/190/71
f 3/177/14 46/6/14 138/68/14
f 167/191/42 175/192/42 135/192/42
f 213/105/72 129/105/72 131/193/72
f 106/69/11 138/68/11 53/67/11
f 141/131/14 142/107/14 54/106/14
f 137/178/14 136/177/14 3/177/14
f 135/186/1 5/194/1 9/184/1
f 152/195/11 111/140/11 145/122/11
f 125/165/1 140/165/1 136/177/1
f 16/110/39 176/109/39 17/196/39
f 152/195/73 145/122/73 149/197/73
f 149/197/74 50/123/74 61/198/74
f 73/199/12 210/144/12 76/77/12
f 59/79/12 60/44/12 148/44/12
f 131/193/75 61/198/75 74/104/75
f 129/105/76 149/197/76 131/193/76
f 73/199/12 76/77/12 45/70/12
f 141/200/1 50/123/1 100/153/1
f 176/109/39 187/201/39 17/196/39
f 6/160/1 8/159/1 9/184/1
f 138/68/11 128/202/11 70/203/11
f 130/145/77 150/204/77 132/205/77
f 132/205/78 152/195/78 129/105/78
f 96/182/14 86/81/14 95/37/14
f 66/53/79 62/62/79 73/199/79
f 143/18/80 154/80/80 144/93/80
f 13/206/81 12/41/81 29/40/81
f 121/76/11 144/93/11 127/98/11
f 89/150/54 90/95/54 156/152/54
f 27/121/82 10/167/82 26/207/82
f 53/107/14 52/208/14 142/107/14
f 62/62/83 71/64/83 208/115/83
f 84/83/11 157/132/11 161/209/11
f 99/39/14 98/89/14 95/37/14
f 108/119/12 111/140/12 110/117/12
f 121/76/11 120/16/11 144/93/11
f 101/66/11 142/210/11 100/153/11
f 138/68/14 137/178/14 3/177/14
f 53/67/11 103/33/11 106/69/11
f 179/127/50 180/126/50 183/136/50
f 83/84/84 161/209/84 162/211/84
f 82/91/16 162/211/16 164/96/16
f 81/114/14 80/212/14 85/82/14
f 214/105/85 168/105/85 171/205/85
f 70/203/11 64/57/11 53/67/11
f 87/85/86 88/149/86 123/43/86
f 132/205/87 169/145/87 130/145/87
f 180/126/88 182/213/88 181/214/88
f 178/215/89 14/216/89 181/214/89
f 147/181/12 59/79/12 148/44/12
f 19/217/90 186/218/90 188/219/90
f 189/220/91 186/218/91 185/221/91
f 187/201/11 18/222/11 17/196/11
f 191/174/92 195/223/92 190/30/92
f 191/174/93 192/36/93 197/224/93
f 190/30/94 198/100/94 34/26/94
f 193/24/95 196/27/95 177/25/95
f 196/27/96 200/225/96 194/128/96
f 197/224/97 192/36/97 184/35/97
f 194/128/98 182/213/98 180/126/98
f 199/171/99 202/102/99 196/27/99
f 185/221/100 186/218/100 203/226/100
f 195/223/101 184/35/101 185/221/101
f 201/101/102 187/201/102 176/109/102
f 199/171/103 34/26/103 198/100/103
f 203/226/104 186/218/104 187/201/104
f 200/225/105 181/214/105 182/213/105
f 202/102/106 178/215/106 200/225/106
f 201/101/107 198/100/107 203/226/107
f 202/102/108 201/101/108 176/109/108
f 218/227/109 220/13/109 227/228/109
f 228/190/110 229/229/110 209/78/110
f 212/230/111 2/192/111 209/78/111
f 222/231/112 71/64/112 63/61/112
f 210/144/113 208/115/113 75/143/113
f 82/91/84 83/84/84 162/211/84
f 212/230/114 6/232/114 5/233/114
f 92/90/115 139/19/115 143/18/115
f 214/105/116 223/234/116 213/105/116
f 204/8/117 224/11/117 205/235/117
f 205/235/118 217/10/118 206/188/118
f 206/188/119 227/228/119 226/189/119
f 225/236/120 7/237/120 207/238/120
f 218/227/121 206/188/121 217/10/121
f 215/116/122 68/60/122 216/71/122
f 219/239/123 225/236/123 226/189/123
f 212/230/124 226/189/124 207/238/124
f 227/228/125 220/13/125 219/239/125
f 228/190/126 221/5/126 211/4/126
f 125/165/11 136/177/11 154/80/11
f 209/78/127 229/229/127 212/230/127
f 26/207/128 9/240/128 25/12/128
f 229/229/129 226/189/129 212/230/129
f 46/6/130 3/177/130 211/4/130
f 22/7/131 211/4/131 3/177/131
f 22/7/132 23/241/132 204/8/132
f 144/93/11 136/177/11 155/21/11
f 217/10/133 205/235/133 224/11/133
f 83/84/11 84/83/11 161/209/11
f 217/10/134 24/9/134 25/12/134
f 25/12/135 8/242/135 220/13/135
f 7/237/136 219/239/136 8/242/136
f 220/13/137 218/227/137 217/10/137
f 8/242/138 219/239/138 220/13/138
f 86/81/11 87/85/11 59/79/11
f 183/136/139 180/126/139 181/214/139
f 38/148/52 21/141/52 37/142/52
f 14/216/140 13/206/140 181/214/140
f 183/136/141 181/214/141 13/206/141
f 178/215/9 176/109/9 15/111/9
f 34/26/142 199/171/142 196/27/142
f 191/174/143 36/173/143 37/142/143
f 37/142/144 20/34/144 192/36/144
f 19/217/145 184/35/145 20/34/145
f 192/36/146 191/174/146 37/142/146
f 115/86/11 172/243/11 114/87/11
f 12/244/1 15/139/1 11/138/1
f 10/167/82 9/240/82 26/207/82
f 61/48/147 50/200/147 55/49/147
f 67/51/148 43/65/148 58/52/148
f 72/50/149 55/49/149 57/54/149
f 9/184/1 5/194/1 6/160/1
f 56/59/150 51/103/150 68/60/150
f 147/181/1 99/39/1 59/79/1
f 7/237/151 6/232/151 212/230/151
f 65/55/152 57/54/152 43/65/152
f 51/103/153 52/56/153 69/58/153
f 54/63/154 56/59/154 63/61/154
f 76/77/155 75/143/155 208/115/155
f 143/18/156 94/15/156 92/90/156
f 64/57/157 70/203/157 47/72/157
f 49/74/158 65/55/158 67/51/158
f 210/144/159 73/199/159 62/62/159
f 43/130/14 57/245/14 141/131/14
f 139/19/7 126/180/7 153/17/7
f 76/77/160 215/116/160 216/71/160
f 69/58/161 64/57/161 77/73/161
f 48/78/162 72/50/162 65/55/162
f 54/106/14 58/129/14 141/131/14
f 82/91/14 81/114/14 85/82/14
f 207/238/163 7/237/163 212/230/163
f 49/74/12 44/75/12 73/199/12
f 95/37/14 98/89/14 96/182/14
f 80/212/42 124/113/42 85/82/42
f 90/95/14 89/150/14 88/149/14
f 93/156/14 91/155/14 94/15/14
f 109/118/56 110/117/56 150/204/56
f 138/68/14 46/6/14 77/73/14
f 160/151/86 123/43/86 88/149/86
f 88/149/14 87/85/14 81/114/14
f 166/146/37 174/45/37 117/47/37
f 21/168/1 39/1/1 124/3/1
f 92/90/11 96/182/11 60/44/11
f 183/136/164 13/206/164 30/135/164
f 12/244/1 13/246/1 14/247/1
f 103/33/12 100/153/12 102/31/12
f 179/127/165 31/125/165 177/25/165
f 204/8/39 23/241/39 24/9/39
f 145/122/166 112/32/166 102/31/166
f 105/179/12 106/69/12 107/99/12
f 42/163/14 41/164/14 1/164/14
f 160/151/86 163/43/86 123/43/86
f 144/93/11 154/80/11 136/177/11
f 58/52/167 54/63/167 62/62/167
f 30/135/81 13/206/81 29/40/81
f 105/179/65 104/176/65 133/92/65
f 172/243/11 170/248/11 114/87/11
f 142/210/168 101/66/168 53/67/168
f 78/249/169 66/53/169 73/199/169
f 167/191/42 135/192/42 113/88/42
f 140/165/12 125/165/12 126/180/12
f 142/210/11 141/200/11 100/153/11
f 35/29/61 36/173/61 190/30/61
f 209/78/12 49/74/12 73/199/12
f 121/76/45 127/98/45 122/124/45
f 14/247/1 15/139/1 12/244/1
f 45/70/12 46/6/12 73/199/12
f 170/248/49 167/191/49 113/88/49
f 153/17/170 126/180/170 125/165/170
f 151/22/171 155/21/171 136/177/171
f 1/113/11 39/147/11 40/166/11
f 143/18/172 144/93/172 120/16/172
f 52/208/14 51/183/14 142/107/14
f 148/44/173 60/250/173 96/182/173
f 68/60/174 69/58/174 216/71/174
f 173/46/84 172/243/84 116/157/84
f 130/145/56 109/118/56 150/204/56
f 149/197/175 145/122/175 50/123/175
f 128/202/176 47/251/176 70/252/176
f 131/193/177 149/197/177 61/198/177
f 20/134/1 15/133/1 19/170/1
f 85/82/49 159/112/49 157/132/49
f 9/240/128 8/242/128 25/12/128
f 129/105/178 152/195/178 149/197/178
f 47/251/14 128/202/14 138/68/14
f 114/87/179 170/248/179 113/88/179
f 113/88/12 118/253/12 117/47/12
f 77/73/14 47/251/14 138/68/14
f 172/243/180 115/86/180 116/157/180
f 48/78/58 74/154/58 72/50/58
f 132/205/181 150/204/181 152/195/181
f 228/190/132 226/189/132 229/229/132
f 40/166/55 39/147/55 38/148/55
f 55/254/14 50/255/14 141/131/14
f 90/95/54 158/94/54 156/152/54
f 208/115/182 222/231/182 215/116/182
f 55/254/14 141/131/14 57/245/14
f 118/253/42 113/88/42 135/192/42
f 78/249/183 44/75/183 66/53/183
f 166/146/54 108/119/54 130/145/54
f 171/205/184 132/205/184 223/234/184
f 129/105/185 213/105/185 223/234/185
f 223/234/186 214/105/186 171/205/186
f 132/205/187 129/105/187 223/234/187
f 132/205/188 171/205/188 169/145/188
f 133/92/189 155/21/189 146/20/189
f 179/127/190 177/25/190 194/128/190
f 178/215/191 15/111/191 14/216/191
f 189/220/192 185/221/192 184/35/192
f 184/35/193 19/217/193 188/219/193
f 18/222/194 186/218/194 19/217/194
f 188/219/195 189/220/195 184/35/195
f 189/220/196 188/219/196 186/218/196
f 187/201/197 186/218/197 18/222/197
f 191/174/198 197/224/198 195/223/198
f 190/30/199 195/223/199 198/100/199
f 194/128/200 177/25/200 196/27/200
f 193/24/201 33/28/201 196/27/201
f 196/27/202 202/102/202 200/225/202
f 194/128/203 200/225/203 182/213/203
f 152/195/86 150/204/86 110/117/86
f 203/226/204 198/100/204 185/221/204
f 195/223/205 185/221/205 198/100/205
f 195/223/206 197/224/206 184/35/206
f 201/101/207 203/226/207 187/201/207
f 200/225/208 178/215/208 181/214/208
f 202/102/209 176/109/209 178/215/209
f 44/75/12 78/249/12 73/199/12
f 209/78/210 46/6/210 221/5/210
f 221/5/211 228/190/211 209/78/211
f 212/230/212 5/233/212 2/192/212
f 63/61/213 215/116/213 222/231/213
f 222/231/214 208/115/214 71/64/214
f 228/190/215 211/4/215 205/235/215
f 205/235/216 206/188/216 228/190/216
f 211/4/217 204/8/217 205/235/217
f 151/22/27 137/178/27 138/68/27
f 106/69/27 105/179/27 146/20/27
f 206/188/218 218/227/218 227/228/218
f 151/22/27 138/68/27 146/20/27
f 225/236/219 219/239/219 7/237/219
f 215/116/220 63/61/220 68/60/220
f 207/238/221 226/189/221 225/236/221
f 227/228/222 219/239/222 226/189/222
f 111/140/86 152/195/86 110/117/86
f 138/68/11 70/203/11 53/67/11
f 213/105/223 131/193/223 74/104/223
f 73/199/12 46/6/12 209/78/12
