# Blender v2.76 (sub 0) OBJ File: 'maint2_5d.blend'
# www.blender.org
v 1.040440 1.280000 -1.280000
v -1.040411 1.280000 -1.280000
v -1.040411 1.340000 -1.280000
v 1.040440 1.340000 -1.280000
v -1.040411 1.310575 -1.280000
v 1.040440 1.310575 -1.280000
v 1.040440 1.374346 0.412030
v 1.040440 1.376677 0.498974
v 1.040440 1.349222 0.585918
v 1.040440 1.330077 0.672862
v 1.040440 1.320913 0.759807
v 1.040440 1.314229 0.846751
v -1.040411 1.340000 0.498974
v -1.040411 1.314229 0.585918
v -1.040411 1.300000 0.672862
v -1.040411 1.300000 0.759807
v -1.040411 1.314229 0.846751
v 1.040440 1.376341 -0.143948
v 1.040440 1.347147 -0.052554
v 1.040440 1.322909 0.038839
v 1.040440 1.300000 0.130233
v 1.040440 1.324933 0.221627
v 1.040440 1.367175 0.313020
v -1.040411 1.340000 -0.143948
v -1.040411 1.315176 -0.052554
v -1.040411 1.300000 0.038839
v -1.040411 1.300000 0.130233
v -1.040411 1.315176 0.221627
v 1.040440 1.315834 -0.699676
v 1.040440 1.300000 -0.605285
v 1.040440 1.300000 -0.510895
v 1.040440 1.339455 -0.416505
v -1.040411 1.340000 -0.794066
v -1.040411 1.315834 -0.699676
v -1.040411 1.300000 -0.605286
v -1.040411 1.300000 -0.510895
v -1.040411 1.315834 -0.416505
v 1.040440 1.300000 -1.211795
v 1.040440 1.300000 -1.133487
v 1.040440 1.312484 -1.055178
v 1.040440 1.340000 -0.976869
v -1.040411 1.300000 -1.211796
v -1.040411 1.300000 -1.133487
v -1.040411 1.312485 -1.055178
v -1.280000 1.280000 -1.280000
v 1.280000 1.280000 -1.280000
v -1.280000 1.280000 1.280000
v 1.280000 1.280000 1.280000
v -1.280000 1.280000 1.020639
v 1.280000 1.280000 1.020639
v 1.280000 1.255284 1.072511
v 1.280000 1.240000 1.124384
v 1.280000 1.240000 1.176256
v 1.280000 1.255284 1.228128
v -1.280000 1.255285 1.228128
v -1.280000 1.240000 1.176256
v -1.280000 1.240000 1.124384
v -1.280000 1.255285 1.072511
v 1.040440 1.280000 -1.280000
v 1.040440 1.280000 1.020639
v -1.040411 1.280000 1.020639
v -1.040411 1.280000 -1.280000
v -1.040411 1.340000 -1.280000
v 1.040440 1.340000 -1.280000
v 1.040440 1.340000 1.020639
v -1.040411 1.340000 1.020639
v 1.040440 1.311955 0.412030
v -1.040411 1.340000 0.412030
v 1.040440 1.314121 -0.227725
v 1.040440 1.376431 -0.227725
v 1.040440 1.314375 0.498974
v 1.040440 1.313462 0.585918
v 1.040440 1.309029 0.672862
v 1.040440 1.299500 0.759807
v 1.040440 1.280000 0.846751
v 1.040440 1.375795 0.585918
v 1.040440 1.371559 0.672862
v 1.040440 1.362835 0.759807
v 1.040440 1.340000 0.846751
v 1.040440 1.340000 0.933695
v -1.040411 1.340000 0.933695
v 1.040440 1.314029 -0.143948
v 1.040440 1.310315 -0.052554
v 1.040440 1.301607 0.038839
v 1.040440 1.280000 0.130233
v 1.040440 1.282635 0.221627
v 1.040440 1.304331 0.313020
v -1.040411 1.280000 -0.143948
v 1.040440 1.372779 -0.052554
v 1.040440 1.364701 0.038839
v 1.040440 1.340000 0.130233
v 1.040440 1.351819 0.221627
v -1.040411 1.340000 0.313020
v 1.040440 1.280000 -0.510895
v 1.040440 1.301479 -0.416505
v 1.040440 1.310446 -0.322115
v 1.040440 1.340000 -0.794066
v 1.040440 1.340000 -0.510895
v 1.040440 1.364586 -0.416505
v 1.040440 1.372903 -0.322115
v -1.040411 1.340000 -0.322115
v -1.280000 1.280000 -1.133487
v 1.280000 1.280000 -1.133487
v 1.040440 1.280000 -0.976869
v -1.040411 1.280000 -1.133487
v -1.040411 1.280000 -0.976869
v -1.040411 1.340000 -0.976869
v 1.280000 1.280000 -0.079959
v 1.040440 1.311856 -0.079959
v 1.040440 1.374250 -0.079959
v -1.280000 1.280000 -0.079891
v 1.160220 1.280000 0.412030
v 1.040440 1.280000 -1.119868
v 1.160220 1.280000 0.498974
v 1.160220 1.280000 0.585918
v 1.160220 1.280000 0.672862
v 1.160220 1.280000 0.759807
v 1.280000 1.200000 -1.119868
v 1.160220 1.280000 -0.052554
v 1.160220 1.280000 0.038839
v 1.160220 1.280000 0.221627
v 1.160220 1.280000 0.313020
v 1.160220 1.280000 -1.133487
v 1.160220 1.280000 -0.079959
v -1.280000 1.200000 -1.120719
v 1.160220 1.200000 -1.119868
v -1.160206 1.280000 -0.079891
v 1.280000 1.200000 -0.359975
v 1.040440 1.307659 -0.359975
v 1.040440 1.370268 -0.359975
v 1.160220 1.200000 -0.359975
v -1.280000 1.200000 -0.360007
v -1.160205 1.200000 -0.360007
v -1.160206 1.200000 -1.120719
v -1.114043 1.230000 -1.120719
v 1.116199 1.230000 -1.119868
v 1.040440 1.337758 0.640089
v -1.040411 1.305364 0.640089
v 1.040440 1.313167 0.840264
v -1.040411 1.313168 0.840264
v 0.640079 1.385212 0.585918
v 0.640079 1.364070 0.672862
v 0.640079 1.356045 0.759807
v 0.640079 1.360784 0.846751
v 0.640079 1.381731 -0.052554
v 0.640079 1.357791 0.038839
v 0.640079 1.347705 0.130233
v 0.640079 1.371638 0.221627
v 0.640079 1.315834 -0.699676
v 0.640079 1.332448 -0.605285
v 0.640079 1.346783 -0.510895
v 0.640079 1.373863 -0.416505
v 0.640079 1.349568 1.020639
v 0.640079 1.374156 0.933695
v 0.640079 1.403438 0.313020
v 0.640079 1.407615 -0.322115
v 0.640079 1.372276 0.640089
v 0.640079 1.360519 0.840264
v 0.419929 1.409477 0.498974
v 0.419929 1.376146 0.585918
v 0.419929 1.354151 0.672862
v 0.419929 1.346569 0.759807
v 0.419929 1.351037 0.846751
v 0.419929 1.353624 0.038839
v 0.419929 1.364304 0.130233
v 0.419929 1.383034 0.221627
v 0.419929 1.315834 -0.699676
v 0.419929 1.323590 -0.605285
v 0.419929 1.341213 -0.510895
v 0.419929 1.367682 -0.416505
v 0.419929 1.340000 1.020639
v 0.419929 1.362139 0.933695
v 0.419929 1.340000 -0.794066
v 0.419929 1.365954 -0.322115
v 0.419929 1.361958 0.640089
v 0.419929 1.350816 0.840264
v 0.419929 1.310575 -1.280000
v 0.439921 1.410343 0.498974
v 0.439921 1.376728 0.585918
v 0.439921 1.376445 0.672862
v 0.439921 1.368739 0.759807
v 0.439921 1.352779 0.846751
v 0.439921 1.384638 -0.052554
v 0.439921 1.378503 0.038839
v 0.439921 1.383749 0.130233
v 0.439921 1.382020 0.221627
v 0.439921 1.315834 -0.699676
v 0.439921 1.344698 -0.605285
v 0.439921 1.362014 -0.510895
v 0.439921 1.369596 -0.416505
v 0.439921 1.340000 1.020639
v 0.439921 1.364531 0.933695
v 0.439921 1.370425 -0.322115
v 0.439921 1.363500 0.640089
v 0.439921 1.352542 0.840264
v 0.620063 1.385052 0.585918
v 0.620063 1.384932 0.672862
v 0.620063 1.376730 0.759807
v 0.620063 1.360705 0.846751
v 0.620063 1.381850 -0.052554
v 0.620063 1.378679 0.038839
v 0.620063 1.369546 0.130233
v 0.620063 1.372864 0.221627
v 0.620063 1.315834 -0.699676
v 0.620063 1.353160 -0.605285
v 0.620063 1.367414 -0.510895
v 0.620063 1.373774 -0.416505
v 0.620063 1.349307 1.020639
v 0.620063 1.374069 0.933695
v 0.620063 1.404941 0.313020
v 0.620063 1.407489 -0.322115
v 0.620063 1.372156 0.640089
v 0.620063 1.360440 0.840264
v 1.040440 1.316860 0.819797
v -1.040411 1.309818 0.819797
v 0.640079 1.359580 0.819797
v 0.419929 1.349956 0.819797
v 0.439921 1.372285 0.819797
v 0.620063 1.380140 0.819797
v 1.040440 1.333100 0.660276
v -1.040411 1.302060 0.660276
v 0.640079 1.367250 0.660276
v 0.419929 1.357175 0.660276
v 0.439921 1.379488 0.660276
v 0.620063 1.388133 0.660276
v 1.040440 1.311578 0.199963
v -1.040411 1.311579 0.199963
v 0.640079 1.366069 0.199963
v 0.419929 1.378627 0.199963
v 0.439921 1.377077 0.199963
v 1.040440 1.308206 0.179653
v -1.040411 1.308206 0.179653
v 0.640079 1.360717 0.179653
v 0.419929 1.374685 0.179653
v 0.439921 1.394094 0.179653
v 0.620063 1.382550 0.179653
v 1.040440 1.328422 0.020208
v 0.419929 1.358860 0.020208
v 0.439921 1.384408 0.020208
v 0.620063 1.383713 0.020208
v 1.040440 1.333972 0.000149
v -1.040411 1.306425 0.000149
v 0.640079 1.368134 0.000149
v 0.419929 1.365381 0.000149
v 0.439921 1.371560 0.000149
v 0.620063 1.368232 0.000149
v 1.040440 1.305809 -0.639918
v 0.640079 1.331249 -0.639918
v 0.419929 1.317986 -0.639918
v 0.439921 1.319154 -0.639918
v 0.620063 1.331143 -0.639918
v 1.040440 1.302506 -0.620225
v 0.640079 1.332145 -0.620225
v 0.419929 1.322023 -0.620225
v 0.439921 1.343454 -0.620225
v 0.620063 1.352875 -0.620225
v 1.040440 1.324649 -0.459965
v 0.640079 1.361702 -0.459965
v 0.419929 1.356892 -0.459965
v 0.439921 1.377617 -0.459965
v 0.620063 1.382289 -0.459965
v 1.040440 1.331824 -0.440273
v -1.040411 1.311847 -0.440273
v 0.640079 1.367268 -0.440273
v 0.419929 1.362683 -0.440273
v 0.439921 1.362763 -0.440273
v 0.620063 1.367184 -0.440273
v -1.280000 1.340000 -1.280000
v 1.280000 1.340000 -1.280000
v 1.280000 1.280000 0.559661
v 1.040440 1.314082 0.559957
v 1.040440 1.376393 0.559957
v 1.160220 1.280000 0.559957
v 1.200179 1.280000 0.559661
v 1.280000 1.280000 0.119891
v 1.040440 1.280000 0.119885
v 1.040440 1.347344 0.119885
v 1.200179 1.280000 0.119891
v -1.280000 1.280000 0.119891
v -1.160206 1.280000 0.119891
v -1.280000 1.280000 0.559661
v -1.160206 1.280000 0.559661
v -1.280000 1.200000 0.559661
v 1.280000 1.200000 0.119891
v -1.160206 1.200000 0.119891
v 1.200179 1.200000 0.119891
v 1.280000 1.200000 0.559661
v 1.200179 1.200000 0.559661
v -1.280000 1.200000 0.119891
v -1.160206 1.200000 0.559661
v -0.414561 1.385044 -0.699676
v 0.118019 1.347121 -0.605285
v -0.463049 1.362412 -0.605286
v 0.464836 1.411056 0.498974
v 0.375771 1.370784 0.179653
v 0.204763 1.378908 0.179653
v 0.292924 1.409289 0.412030
v 0.749151 1.406014 0.412030
v 0.397138 1.380246 0.199963
v 0.189833 1.381264 0.199963
v 0.217987 1.342081 -0.510895
v -0.540353 1.350634 -0.510895
v 0.323779 1.355400 0.130233
v 0.198151 1.370809 0.130233
v 0.105583 1.366099 0.130233
v -0.092776 1.352850 0.130233
v -0.145673 1.348041 0.130233
v 0.215783 1.408549 0.313020
v 0.173908 1.383597 0.221627
v 0.279762 1.358392 -0.440273
v -0.578070 1.354155 -0.440273
v 0.835107 1.401711 -0.227725
v 0.640079 1.400389 -0.104682
v -0.421172 1.372845 -0.639918
v -0.711105 1.340000 -0.322115
v 0.300552 1.348377 -0.416505
v -0.573248 1.357074 -0.416505
v 0.786620 1.405946 -0.143948
v -0.635325 1.340000 -0.143948
v 0.703208 1.412712 0.498974
v 0.640079 1.399614 0.546110
v 0.515527 1.410365 0.313020
v -0.714305 1.340000 -0.227725
v 0.733723 1.379101 -0.052554
v 0.439921 1.411144 0.486373
v -0.434396 1.343474 -0.052554
v 0.262536 1.351573 -0.459965
v -0.582064 1.351734 -0.459966
v 0.439921 1.388453 0.240739
v 0.419929 1.381100 -0.037472
v 0.370063 1.360282 0.000149
v -0.378474 1.339225 0.000149
v 0.362927 1.354072 0.020208
v -0.357190 1.336824 0.020208
v 0.102196 1.350420 -0.620225
v 0.620063 1.399291 0.546428
v 0.356297 1.350575 0.038839
v -0.315380 1.338467 0.038839
v -0.337420 1.335274 0.038839
v 0.678624 1.399068 0.545498
v -0.672429 1.348345 -0.362549
v 0.345819 1.349084 -0.364753
v -0.769405 1.340001 -0.261165
v 0.061504 1.365965 0.087067
v -0.033269 1.360379 0.084862
v 0.539772 1.396033 0.547702
v 0.513323 1.391335 0.556518
v 0.500100 1.399470 -0.100273
v -0.458640 1.349661 -0.078233
v -0.575453 1.322751 -0.080437
v 0.703208 1.474674 0.498974
v 0.640079 1.478471 0.498974
v 0.786620 1.467009 -0.143948
v 0.640079 1.476459 -0.143948
v 0.749151 1.467081 0.412030
v 0.640079 1.472541 0.412030
v 0.835107 1.462598 -0.227725
v 0.640079 1.480000 -0.188371
v 0.640079 1.468789 -0.322115
v 0.640079 1.464384 0.313020
v 0.439921 1.479685 -0.143948
v 0.419929 1.480000 -0.143948
v 0.439921 1.472341 -0.052554
v 0.419929 1.472527 -0.052554
v 0.439921 1.477273 0.412030
v 0.419929 1.476837 0.412030
v 0.439921 1.473522 -0.227725
v 0.419929 1.473312 -0.227725
v 0.439921 1.475643 0.313020
v 0.419929 1.475956 0.313020
v 0.439921 1.444086 -0.322115
v 0.419929 1.442779 -0.322115
v 0.419929 1.480000 0.363584
v 0.419929 1.470354 0.221627
v 0.620063 1.476787 -0.143948
v 0.488822 1.480000 0.412030
v 0.620063 1.476543 -0.227725
v 0.515527 1.471830 0.313020
v 0.620063 1.468654 -0.322115
v 0.439921 1.480000 0.377643
v 0.439921 1.470298 0.240739
v 0.620063 1.465952 0.313020
v -0.316674 1.480000 -0.699676
v -0.414561 1.471966 -0.699676
v -0.258204 1.480000 -0.605286
v -0.463049 1.465021 -0.605286
v 0.419929 1.472286 0.476263
v 0.464836 1.472630 0.498974
v 0.204764 1.474780 0.179653
v 0.292924 1.470617 0.412030
v 0.285316 1.480000 0.199963
v -0.199734 1.476652 -0.510895
v -0.540353 1.452652 -0.510895
v 0.198151 1.476126 0.130233
v 0.105583 1.469261 0.130233
v -0.092776 1.454915 0.130233
v -0.145673 1.450026 0.130233
v 0.348024 1.480000 0.313020
v 0.215784 1.469802 0.313020
v 0.297331 1.480000 0.221627
v 0.173908 1.471033 0.221627
v -0.155987 1.480000 -0.440273
v -0.578070 1.443851 -0.440273
v 0.640079 1.473319 -0.104682
v -0.279657 1.480000 -0.639918
v -0.421172 1.469990 -0.639918
v -0.085545 1.480000 -0.322115
v -0.711105 1.400000 -0.322115
v -0.141265 1.480000 -0.416505
v -0.573249 1.442654 -0.416505
v 0.019628 1.388160 -0.143948
v -0.635325 1.400000 -0.143948
v 0.640079 1.480000 0.518394
v 0.640079 1.477809 0.546110
v -0.029827 1.388160 -0.227725
v -0.714305 1.400000 -0.227725
v 0.439921 1.472733 0.486373
v 0.107787 1.480000 -0.052554
v -0.434396 1.430027 -0.052554
v -0.168186 1.475951 -0.459966
v -0.582065 1.444846 -0.459966
v 0.419929 1.471218 -0.037472
v 0.158626 1.480000 0.000149
v -0.378474 1.434718 0.000149
v 0.177975 1.480000 0.020208
v -0.357190 1.435754 0.020208
v -0.267458 1.480000 -0.620225
v -0.444984 1.467214 -0.620225
v 0.620063 1.477268 0.546428
v 0.195948 1.480000 0.038839
v -0.315380 1.440501 0.038839
v -0.337420 1.437381 0.038839
v 0.323779 1.474334 0.130233
v 0.375771 1.472735 0.179653
v -0.216201 1.472889 -0.699676
v 0.081339 1.450627 -0.639918
v 0.678624 1.476238 0.545498
v 0.733723 1.465897 -0.052554
v -0.672429 1.420336 -0.362549
v 0.300552 1.451855 -0.416505
v 0.345819 1.441321 -0.364753
v -0.769405 1.400000 -0.261165
v 0.397138 1.471598 0.199963
v 0.279762 1.448080 -0.440273
v 0.262536 1.444687 -0.459965
v 0.356297 1.467968 0.038839
v 0.061504 1.469097 0.087067
v -0.033269 1.462801 0.084862
v 0.118019 1.449100 -0.605285
v 0.217987 1.444067 -0.510895
v 0.370063 1.467069 0.000149
v 0.362927 1.466358 0.020208
v 0.539772 1.472860 0.547702
v 0.513323 1.470500 0.556518
v 0.500100 1.473771 -0.100273
v -0.458640 1.428998 -0.078233
v -0.575453 1.400000 -0.080437
v -0.344033 1.475842 -0.743842
v -0.478505 1.374870 -0.289889
v -0.250861 1.457089 -0.440273
v -0.421210 1.384343 -0.322115
v -0.239070 1.460680 -0.456560
v -0.305568 1.410422 -0.364698
v -0.230473 1.463772 -0.468489
v -0.254930 1.444678 -0.434637
v -0.555109 1.396569 -0.251476
v -0.236611 1.461508 -0.459966
v -0.268054 1.429195 -0.416505
v -0.216201 1.411321 -0.699676
v -0.183485 1.377525 -0.713147
v 0.081339 1.380237 -0.639918
v 0.136211 1.348376 -0.649602
v 0.106315 1.351964 -0.639918
v 0.099408 1.350988 -0.622857
v 0.086613 1.378722 -0.634939
v -0.283790 1.350961 -0.747802
v -0.344033 1.377466 -0.743842
v -0.363813 1.361195 -0.731455
v -0.369086 1.351471 -0.745648
vt 0.012695 0.009766
vt 0.906422 0.864724
vt 0.750031 0.898687
vt 0.750031 0.864724
vt 0.395292 0.337303
vt 0.400418 0.330220
vt 0.444818 0.337303
vt 0.906422 0.757920
vt 0.750031 0.762837
vt 0.750031 0.757920
vt 0.906422 0.762837
vt 0.750031 0.796799
vt 0.750031 0.828228
vt 0.906422 0.830762
vt 0.750031 0.830762
vt 0.671844 0.443770
vt 0.664035 0.443770
vt 0.750031 0.426417
vt 0.906422 0.515172
vt 0.750031 0.550872
vt 0.750031 0.515172
vt 0.750031 0.578110
vt 0.906422 0.586573
vt 0.750031 0.586573
vt 0.906422 0.622273
vt 0.750031 0.622273
vt 0.573984 0.518433
vt 0.568242 0.515529
vt 0.573203 0.518038
vt 0.906422 0.257725
vt 0.750031 0.263560
vt 0.750031 0.257725
vt 0.906422 0.300431
vt 0.750031 0.300431
vt 0.750031 0.328018
vt 0.906422 0.337303
vt 0.750031 0.337303
vt 1.000000 0.898687
vt 1.000000 1.000000
vt 1.000000 0.979737
vt 0.376299 0.226689
vt 0.390759 0.250032
vt 0.335479 0.250032
vt 0.742212 0.750035
vt 0.742212 0.728874
vt 0.750031 0.750035
vt 0.901626 0.634686
vt 0.905501 0.632578
vt 0.911699 0.621517
vt 0.911441 0.623851
vt 0.953211 0.586573
vt 0.906422 0.550872
vt 0.968820 0.546848
vt 0.931070 0.623851
vt 0.931276 0.624045
vt 0.935892 0.655865
vt 0.935633 0.653935
vt 0.093589 0.578110
vt 0.093589 0.570177
vt 0.574153 0.578110
vt 0.093589 0.087821
vt 0.093589 0.057232
vt 0.906422 0.057232
vt 0.581802 0.520766
vt 0.581021 0.520779
vt 0.564540 0.504521
vt 0.560924 0.504521
vt 0.938821 0.631650
vt 0.939633 0.632578
vt 0.064827 0.062219
vt 0.093589 0.118411
vt 0.577884 0.520828
vt 0.576851 0.521173
vt 0.664035 0.189818
vt 0.093589 0.189818
vt 0.664035 0.660949
vt 0.614423 0.660949
vt 0.664035 0.642025
vt 0.931776 0.624517
vt 0.931885 0.624620
vt 0.559202 0.502835
vt 0.000000 0.359372
vt 0.000000 0.468793
vt 0.000000 0.057232
vt 0.742212 0.411045
vt 1.000000 0.546848
vt 1.000000 0.718771
vt 0.968820 0.718771
vt 0.415547 0.226689
vt 0.428507 0.221382
vt 0.531168 0.240144
vt 0.589421 0.490538
vt 0.587527 0.493811
vt 0.579986 0.570177
vt 0.577403 0.550872
vt 0.611451 0.578110
vt 0.000000 0.918950
vt 0.093589 0.898687
vt 1.000000 0.918950
vt 0.744436 0.300431
vt 0.744436 0.263560
vt 0.747807 0.300431
vt 0.671844 0.796799
vt 0.671844 0.762837
vt 0.742212 0.796799
vt 0.671844 0.647517
vt 0.671844 0.622273
vt 0.000000 0.718686
vt 0.046795 0.718686
vt 0.906422 0.694912
vt 0.953211 0.694912
vt 0.906422 0.718771
vt 0.953211 0.359385
vt 0.953211 0.062552
vt 1.000000 0.062552
vt 0.313084 0.386762
vt 0.283161 0.401767
vt 0.222225 0.374174
vt 1.000000 0.359385
vt 1.000000 0.057232
vt 0.952114 0.661075
vt 0.948031 0.661075
vt 1.000000 0.939212
vt 0.000000 0.000000
vt 0.953211 0.057232
vt 0.750031 0.694912
vt 0.774691 0.694912
vt 0.750031 0.702498
vt 1.000000 0.959475
vt 0.401974 0.211863
vt 0.401825 0.208616
vt 0.906422 0.118410
vt 0.906422 0.189818
vt 0.945078 0.658252
vt 0.953211 0.622273
vt 0.953211 0.479471
vt 0.906422 0.479471
vt 0.953211 0.468766
vt 0.906422 0.468766
vt 0.953211 0.796799
vt 0.906422 0.796799
vt 0.953211 0.762837
vt 0.953211 0.728874
vt 0.906422 0.728874
vt 0.953211 0.718771
vt 0.906422 0.660949
vt 0.953211 0.660949
vt 0.526744 0.489232
vt 0.528897 0.490538
vt 0.942070 0.649637
vt 0.942349 0.648854
vt 0.671844 0.411045
vt 0.742212 0.374174
vt 0.944297 0.647384
vt 0.935308 0.656659
vt 0.947428 0.644931
vt 0.945078 0.646795
vt 0.251826 0.443770
vt 0.093589 0.443770
vt 0.220975 0.411045
vt 0.744436 0.762837
vt 0.747807 0.762837
vt 0.744436 0.796799
vt 0.538884 0.496378
vt 0.539831 0.497381
vt 0.046795 0.546807
vt 0.565228 0.511661
vt 0.626476 0.550872
vt 0.646786 0.570177
vt 0.046795 0.468793
vt 0.046795 0.359372
vt 0.944297 0.636265
vt 0.945078 0.636265
vt 0.544480 0.500951
vt 0.543619 0.500951
vt 0.952896 0.636265
vt 0.952114 0.636265
vt 0.750031 0.728874
vt 0.906422 0.820233
vt 0.750031 0.820233
vt 0.906422 0.507894
vt 0.750031 0.500058
vt 0.943406 0.656659
vt 0.942572 0.655865
vt 0.574957 0.518925
vt 0.664035 0.898687
vt 0.906422 0.898687
vt 0.747807 0.757920
vt 0.681576 0.694912
vt 0.690946 0.660949
vt 0.710848 0.713946
vt 0.750031 0.443770
vt 0.750031 0.459109
vt 0.742212 0.443770
vt 0.744436 0.550872
vt 0.747807 0.570177
vt 0.744436 0.570177
vt 0.944297 0.657505
vt 0.093589 0.026642
vt 0.093589 0.000000
vt 0.664035 0.000000
vt 0.742212 0.586573
vt 0.742212 0.622273
vt 0.665544 0.762837
vt 0.665544 0.757920
vt 0.670336 0.762837
vt 0.585460 0.497381
vt 0.581802 0.495345
vt 0.936015 0.062552
vt 0.906422 0.062552
vt 0.906422 0.443770
vt 0.000000 0.939212
vt 0.584268 0.518925
vt 0.586063 0.515529
vt 0.906422 0.546848
vt 0.953211 0.515172
vt 0.900116 0.636265
vt 0.664035 0.828843
vt 0.671844 0.828843
vt 0.664035 0.830762
vt 0.093589 0.864725
vt 0.584290 0.622273
vt 0.093589 0.660949
vt 0.093589 0.622273
vt 0.275214 0.468579
vt 0.093589 0.479471
vt 0.664035 0.694912
vt 0.093589 0.694912
vt 0.664035 0.728874
vt 0.093589 0.728874
vt 0.093589 0.757920
vt 0.664035 0.762837
vt 0.093589 0.762837
vt 0.664035 0.796799
vt 0.093589 0.796800
vt 0.664035 0.828228
vt 0.093589 0.830762
vt 0.093589 0.828228
vt 0.330314 0.479471
vt 0.352158 0.500058
vt 0.360473 0.507894
vt 0.093589 0.515172
vt 0.368195 0.515172
vt 0.443097 0.550872
vt 0.093589 0.550872
vt 0.567933 0.586573
vt 0.093589 0.586573
vt 0.906422 0.087821
vt 0.671844 0.820233
vt 0.319122 0.263560
vt 0.093589 0.263560
vt 0.093589 0.226689
vt 0.288924 0.300431
vt 0.093589 0.300431
vt 0.274191 0.328018
vt 0.093589 0.337303
vt 0.093589 0.328018
vt 0.276075 0.337303
vt 0.237332 0.358379
vt 0.534219 0.482236
vt 0.534407 0.483164
vt 0.000000 0.548847
vt 0.534321 0.496292
vt 0.531982 0.493811
vt 0.968820 0.716818
vt 1.000000 0.716818
vt 0.999023 0.548847
vt 0.999023 0.718731
vt 0.909805 0.625204
vt 0.910511 0.624620
vt 0.664035 0.750035
vt 0.093589 0.750035
vt 0.664035 0.820233
vt 0.093589 0.820233
vt 0.932503 0.625204
vt 0.936408 0.628891
vt 0.664035 0.864724
vt 0.671844 0.898687
vt 0.671844 0.750035
vt 0.671844 0.728874
vt 0.555500 0.502749
vt 0.553175 0.504521
vt 0.664035 0.320326
vt 0.609282 0.328018
vt 0.664035 0.300431
vt 0.671844 0.830762
vt 0.664035 0.579033
vt 0.671844 0.586573
vt 0.664035 0.586573
vt 0.938148 0.630880
vt 0.671844 0.329249
vt 0.664035 0.337303
vt 0.664035 0.329249
vt 0.671844 0.337302
vt 0.664035 0.374174
vt 0.576334 0.495517
vt 0.507667 0.443770
vt 0.488349 0.411045
vt 0.941402 0.634600
vt 0.272631 0.320326
vt 0.406613 0.321656
vt 0.000000 0.898687
vt 0.665544 0.500058
vt 0.670336 0.507894
vt 0.665544 0.507894
vt 0.541243 0.550872
vt 0.576542 0.515172
vt 0.906422 0.411045
vt 0.671844 0.757920
vt 0.742212 0.762837
vt 0.700517 0.717390
vt 0.093589 0.500058
vt 0.742212 0.830762
vt 0.671844 0.864724
vt 0.744436 0.515172
vt 0.744436 0.507894
vt 0.747807 0.515172
vt 0.742212 0.507894
vt 0.671844 0.515172
vt 0.671844 0.507894
vt 0.742212 0.515172
vt 0.671844 0.550872
vt 0.671844 0.579033
vt 0.742212 0.257725
vt 0.671844 0.263560
vt 0.671844 0.257725
vt 0.742212 0.263560
vt 0.671844 0.300431
vt 0.742212 0.329249
vt 0.742212 0.337303
vt 0.671844 0.374174
vt 0.750031 0.226689
vt 0.742212 0.898687
vt 0.664035 0.411045
vt 0.826214 0.411045
vt 0.750031 0.374174
vt 0.671844 0.660949
vt 0.671844 0.689990
vt 0.742212 0.828843
vt 0.664035 0.757920
vt 0.731094 0.821478
vt 0.736442 0.826983
vt 0.731094 0.826983
vt 0.906422 0.750035
vt 0.906422 0.374174
vt 0.665543 0.550872
vt 0.665544 0.515172
vt 0.670336 0.515172
vt 0.733385 0.326379
vt 0.680674 0.326379
vt 0.680674 0.321966
vt 0.734574 0.570907
vt 0.679485 0.577381
vt 0.679485 0.570907
vt 0.750031 0.570177
vt 0.906422 0.578110
vt 0.906422 0.570177
vt 0.463759 0.550872
vt 0.742212 0.570177
vt 0.671844 0.570177
vt 0.747807 0.550872
vt 0.665543 0.299166
vt 0.665543 0.266385
vt 0.670336 0.266385
vt 0.786611 0.479471
vt 0.906422 0.500058
vt 1.000000 0.468766
vt 0.000000 0.062219
vt 0.046795 0.062219
vt 0.682559 0.250032
vt 0.731500 0.250032
vt 0.682559 0.257725
vt 0.742212 0.226689
vt 0.671844 0.250032
vt 0.671844 0.226689
vt 0.664035 0.250032
vt 0.664035 0.226689
vt 0.664035 0.550872
vt 0.906422 0.250032
vt 0.750031 0.250032
vt 0.733712 0.500058
vt 0.733712 0.507894
vt 0.680347 0.500058
vt 0.602553 0.320326
vt 0.742212 0.300431
vt 0.671844 0.320326
vt 0.539920 0.257725
vt 0.541529 0.250032
vt 0.906422 0.320326
vt 0.750031 0.320326
vt 0.665543 0.316854
vt 0.670336 0.299166
vt 0.670336 0.316854
vt 0.542847 0.500223
vt 0.531773 0.250032
vt 0.546101 0.263560
vt 0.399139 0.263560
vt 0.906422 0.328018
vt 0.671844 0.594039
vt 0.664035 0.622273
vt 0.681593 0.750035
vt 0.681593 0.757920
vt 0.675947 0.750035
vt 0.093589 0.374174
vt 0.979902 0.012402
vt 0.934902 0.012402
vt 0.919902 0.012402
vt 0.000000 0.959475
vt 0.742212 0.713448
vt 0.670336 0.570177
vt 0.665544 0.570177
vt 0.670335 0.550872
vt 0.434302 0.320326
vt 0.421979 0.300431
vt 0.000000 1.000000
vt 0.000000 0.979737
vt 0.750031 0.660949
vt 0.542015 0.499440
vt 0.000000 0.546807
vt 0.792637 0.660949
vt 0.750031 0.579033
vt 0.199451 0.397982
vt 0.765087 0.713085
vt 0.750031 0.479471
vt 0.807273 0.443770
vt 0.410469 0.221799
vt 0.372779 0.213831
vt 0.635086 0.357518
vt 0.671844 0.694912
vt 0.655132 0.578110
vt 0.664035 0.578110
vt 0.538831 0.256696
vt 0.617403 0.337303
vt 0.664035 0.328018
vt 0.664035 0.257725
vt 0.960515 0.639952
vt 0.487004 0.533149
vt 0.639179 0.515172
vt 0.551109 0.504521
vt 0.742212 0.864724
vt 0.695351 0.460831
vt 0.742212 0.479471
vt 0.671844 0.479471
vt 0.641768 0.507894
vt 0.664035 0.515172
vt 0.750031 0.828843
vt 0.664035 0.263560
vt 0.664035 0.570177
vt 0.664035 0.485363
vt 0.671844 0.500058
vt 0.664035 0.500058
vt 0.644556 0.500058
vt 0.747807 0.320326
vt 0.466584 0.374174
vt 0.380637 0.357540
vt 0.403499 0.003906
vt 0.289410 0.003906
vt 0.273231 0.005859
vt 0.941811 0.650365
vt 0.957157 0.664943
vt 0.952896 0.661075
vt 0.407574 0.320326
vt 0.635947 0.622273
vt 0.934686 0.657505
vt 0.701378 0.622273
vt 0.389145 0.207890
vt 0.367836 0.210205
vt 0.365612 0.209437
vt 0.664035 0.686040
vt 0.742212 0.250032
vt 0.906422 0.359385
vt 0.747807 0.796799
vt 0.747807 0.820233
vt 0.742212 0.820233
vt 0.906422 0.000000
vt 0.906422 0.026642
vt 0.583308 0.520742
vt 0.616145 0.586573
vt 0.402007 0.328018
vt 0.534063 0.481466
vt 0.395524 0.257725
vt 0.326178 0.257725
vt 0.376805 0.515172
vt 0.561963 0.500058
vt 0.569521 0.507894
vt 0.744436 0.320326
vt 0.320843 0.469440
vt 0.338062 0.226689
vt 0.542104 0.479471
vt 0.409971 0.316996
vt 0.664035 0.479471
vt 0.750031 0.713324
vt 0.897838 0.638646
vt 0.439067 0.328018
vt 0.410469 0.224124
vt 0.517826 0.231151
vt 0.747807 0.500058
vt 0.585151 0.300431
vt 0.744436 0.757920
vt 0.335465 0.374174
vt 0.428648 0.222177
vt 0.906422 0.828228
vt 0.906422 0.263560
vt 0.355826 0.208731
vt 0.744436 0.257725
vt 0.747807 0.263560
vt 0.940541 0.653935
vt 1.000000 0.000000
vt 0.563593 0.508091
vt 0.905156 0.630880
vt 0.906786 0.628891
vt 0.664035 0.507894
vt 0.665544 0.796799
vt 0.670336 0.796799
vt 0.665543 0.323694
vt 0.670335 0.820233
vt 0.665543 0.820233
vt 0.742212 0.757920
vt 0.747807 0.750035
vt 0.742212 0.550872
vt 0.401932 0.210953
vt 0.682965 0.826983
vt 0.677624 0.826983
vt 0.682965 0.821478
vt 0.742212 0.500058
vt 0.665543 0.828228
vt 0.665543 0.578110
vt 0.673371 0.577381
vt 0.750031 0.329249
vt 0.732467 0.750035
vt 0.732467 0.757920
vt 0.665544 0.750035
vt 0.670336 0.757920
vt 0.906422 0.226689
vt 0.680347 0.507894
vt 0.739642 0.500058
vt 0.674424 0.500058
vt 0.742212 0.320326
vt 0.665543 0.254357
vt 0.670336 0.261196
vt 0.665543 0.261196
vt 0.674824 0.326379
vt 0.733385 0.321966
vt 0.739241 0.326379
vt 0.736938 0.250032
vt 0.731500 0.257725
vt 0.677128 0.250032
vt 0.747807 0.250032
vt 0.747807 0.257725
vt 0.738119 0.750035
vt 0.250000 0.000000
vt 0.744436 0.820233
vt 0.747807 0.828228
vt 0.747807 0.328018
vt 0.357886 0.214275
vt 0.428326 0.221427
vt 0.553208 0.246249
vt 0.524025 0.534010
vt 0.740695 0.577381
vt 0.747807 0.578110
vt 0.553595 0.236560
vn -0.000000 0.000000 1.000000
vn -0.081800 -0.959000 -0.271200
vn 0.329500 -0.822400 -0.463800
vn -0.082400 -0.966200 -0.244100
vn -0.084200 -0.992200 -0.091600
vn -0.115400 -0.992500 0.040500
vn -0.084000 -0.984900 0.151500
vn -0.015700 -0.996800 -0.077900
vn -0.086300 -0.990300 -0.109300
vn -0.112300 -0.962400 0.247400
vn -0.085200 -0.941000 0.327400
vn 0.451300 0.000000 -0.892400
vn -0.073800 -0.997100 0.020200
vn -0.114800 -0.982100 0.149200
vn -0.082500 -0.960300 0.266400
vn 1.000000 -0.000000 0.000000
vn 0.070500 -0.996600 -0.043700
vn 0.005900 -0.972800 -0.231600
vn 0.477900 0.000000 0.878400
vn 0.993900 0.000000 0.110000
vn 0.000000 -1.000000 0.000000
vn -0.686500 0.000000 0.727100
vn 0.991200 0.000000 -0.132600
vn 0.055800 -0.985000 0.163600
vn -0.000000 -0.987500 0.157400
vn -0.015900 0.000000 -0.999900
vn 0.000000 -0.000000 -1.000000
vn -0.752700 0.000000 0.658400
vn 0.561800 -0.827300 0.000000
vn -0.316200 0.000000 -0.948700
vn 0.048800 -0.996700 -0.065100
vn 0.699700 -0.000000 -0.714500
vn -1.000000 0.000000 0.000000
vn 0.016000 -0.996700 0.079400
vn -0.219700 -0.537200 0.814300
vn -0.865500 0.000000 -0.500900
vn 0.073900 -0.996600 -0.037000
vn -0.000000 -0.902800 -0.430100
vn -0.713800 -0.692500 0.104600
vn 0.044100 -0.995100 -0.088200
vn -0.047300 -0.996600 0.067200
vn -0.275800 -0.961200 -0.004600
vn -0.139400 -0.955100 0.261500
vn -0.000000 -0.959200 -0.282600
vn 0.000000 -0.167800 -0.985800
vn -0.059900 -0.995100 0.078300
vn 0.530700 0.000000 0.847500
vn -0.691000 0.000000 0.722800
vn -0.193900 -0.954500 0.226600
vn -0.022000 -0.999300 0.028800
vn -0.244300 -0.965300 -0.092000
vn -0.256600 -0.965000 -0.054300
vn -0.156900 -0.963700 -0.216100
vn -0.234200 -0.966400 -0.105900
vn -0.268700 -0.962000 -0.049000
vn -0.273600 -0.961600 -0.023000
vn -0.275800 -0.960900 0.026700
vn -0.257100 -0.963500 0.074200
vn 0.518800 0.000000 -0.854900
vn -0.942100 -0.000000 -0.335200
vn 0.016700 -0.996400 0.083300
vn -0.602300 0.000000 -0.798300
vn 0.805700 -0.000000 0.592300
vn -0.621300 0.000000 -0.783600
vn -0.720000 -0.690900 -0.065200
vn 0.727100 0.000000 -0.686500
vn 0.788800 0.000000 -0.614600
vn -0.070600 -0.996600 0.042000
vn 0.145300 -0.951400 0.271700
vn -0.087100 -0.969000 -0.231400
vn -0.106000 -0.993300 0.045600
vn -0.082600 -0.962800 -0.257400
vn -0.689000 0.000000 0.724800
vn -0.710800 -0.682000 -0.172300
vn 0.049200 -0.996300 -0.070900
vn -0.016400 -0.996700 -0.079700
vn -0.725700 -0.665300 0.175100
vn -0.000000 -0.988200 -0.153200
vn -0.070700 -0.941200 0.330300
vn 0.735100 -0.659200 -0.158400
vn 0.486400 0.000000 -0.873700
vn -0.550800 -0.834600 0.000000
vn 0.000000 -0.959200 -0.282700
vn -0.884100 0.000000 -0.467200
vn 0.722600 0.000000 0.691200
vn 0.086000 -0.995700 0.033900
vn 0.054500 -0.998500 0.000000
vn 0.000000 -0.965000 -0.262100
vn 0.047400 -0.996600 -0.067100
vn 0.040600 -0.958000 -0.283900
vn 0.036600 -0.986200 -0.161400
vn 0.031900 -0.999500 0.000000
vn 0.025400 -0.986600 0.161400
vn 0.024200 -0.958500 0.284100
vn 0.041600 -0.891200 0.451800
vn 0.048400 -0.984400 -0.169200
vn 0.053600 -0.998200 0.027000
vn 0.055500 -0.985000 0.163500
vn 0.054300 -0.963600 0.261700
vn -0.000000 -0.943500 0.331500
vn 0.044200 -0.997300 0.058900
vn 0.106000 -0.980700 -0.164500
vn 0.100700 -0.994900 0.000000
vn 0.089900 -0.982200 0.164800
vn 0.087900 -0.996100 0.000500
vn 0.980000 0.000000 -0.198800
vn 0.727600 0.000000 -0.686000
vn 0.637300 -0.000000 0.770600
vn 0.038200 -0.986100 -0.161400
vn 0.027100 -0.986500 0.161500
vn 0.000000 -0.969100 -0.246800
vn 0.046600 -0.970400 -0.237000
vn -0.606300 0.000000 -0.795200
vn 0.027200 -0.933400 -0.357800
vn 0.031100 -0.955300 0.294100
vn 0.086100 -0.988300 0.126200
vn 0.023200 -0.000000 -0.999700
vn -0.049700 -0.978700 0.199100
vn 0.003900 -0.978600 0.205800
vn 0.095300 -0.995300 -0.018200
vn -0.031500 0.000000 -0.999500
vn -0.018100 -0.999800 0.010700
vn 0.046600 -0.997100 -0.059800
vn 0.074400 -0.964700 -0.252700
vn 0.772200 -0.604300 -0.196400
vn 0.073900 -0.996300 -0.044000
vn 0.045700 -0.971000 -0.234700
vn 0.043100 -0.933500 -0.356100
vn 0.048800 -0.985300 -0.163600
vn 0.043600 -0.990000 0.133800
vn -0.709700 -0.680100 -0.183700
vn -0.003700 -0.953300 -0.302100
vn 0.001000 -0.998400 0.057300
vn -0.049500 -0.973800 0.222200
vn 0.052000 -0.995200 0.082900
vn 0.046200 -0.982500 0.180200
vn 0.023600 -0.960800 0.276200
vn 0.023200 -0.999700 0.008800
vn -0.000000 -0.968800 -0.248000
vn 0.049700 -0.961200 -0.271200
vn 0.010500 -0.996800 0.079600
vn -0.644800 -0.569600 0.509600
vn -0.071900 -0.993900 0.083300
vn 0.055600 -0.996600 -0.060800
vn 0.031500 -0.986400 0.161400
vn -0.087300 -0.994500 0.058600
vn 0.043900 -0.998200 0.040800
vn 0.037200 -0.986200 -0.161400
vn 0.002800 -0.720500 -0.693500
vn -0.083400 -0.967000 -0.240800
vn -0.080700 -0.939500 0.332900
vn 0.777400 -0.624700 0.073000
vn 0.019600 -0.798200 -0.602100
vn -0.049100 -0.765600 -0.641500
vn -0.130500 -0.958700 0.252600
vn -0.125800 -0.959400 0.252600
vn 0.066100 -0.990100 0.123900
vn -0.062600 -0.976900 0.204500
vn -0.735200 -0.673800 -0.074400
vn -0.621300 0.000000 -0.783500
vn 0.720100 -0.682100 0.127300
vn -0.080000 -0.938000 -0.337400
vn 0.046000 -0.985400 -0.163600
vn 0.041900 -0.629100 0.776200
vn 0.000000 -0.998500 0.055500
vn 0.000000 -0.999400 0.036000
vn 0.090200 -0.973900 0.208300
vn -0.061400 -0.966500 0.249300
vn -0.014600 -0.791600 0.610900
vn 0.034300 -0.953300 0.300000
vn -0.063300 -0.997000 0.045300
vn 0.028700 -0.955700 0.292800
vn -0.107200 -0.989200 -0.100000
vn -0.088500 -0.955900 0.280000
vn 0.704000 -0.679100 0.208000
vn 0.685900 0.000000 -0.727700
vn -0.081800 -0.995700 0.042700
vn -0.084900 -0.958800 0.271000
vn -0.061200 -0.996300 0.061100
vn 0.044800 -0.931200 -0.361800
vn 0.060400 -0.782500 0.619700
vn 0.539600 -0.830300 -0.139600
vn 0.007500 -0.940700 -0.339200
vn 0.688800 -0.709500 0.148500
vn -0.076400 -0.996500 0.033600
vn 0.000000 -0.902800 0.430100
vn -0.171700 -0.951900 -0.253800
vn -0.059900 -0.995900 0.067900
vn -0.049800 -0.995400 0.082000
vn -0.059200 -0.966800 0.248500
vn -0.048000 -0.946700 0.318700
vn 0.004200 -0.941700 0.336400
vn -0.017300 -0.999400 0.028500
vn -0.082300 -0.916000 -0.392500
vn -0.026400 -0.941200 -0.336900
vn -0.097700 -0.938200 -0.332100
vn -0.326600 -0.000000 0.945200
vn 0.231700 -0.972600 -0.017800
vn 0.043200 -0.997100 -0.063400
vn -0.008100 -0.997600 0.068000
vn -0.069400 -0.977600 0.198900
vn 0.156300 -0.966600 0.203300
vn -0.115800 -0.993100 -0.016800
vn 0.685800 -0.000000 -0.727700
vn 0.029400 -0.959000 0.282000
vn -0.087200 -0.975900 0.200100
vn -0.435600 0.000000 0.900100
vn 0.066400 -0.994700 -0.077900
vn 0.091900 -0.992100 0.085100
vn 0.000000 -0.157600 -0.987500
vn -0.074800 -0.996300 0.042800
vn 0.474100 0.000000 -0.880400
vn -0.122100 -0.991800 0.037100
vn 0.086700 -0.995600 0.036400
vn 0.012600 -0.961700 -0.273900
vn -0.014700 -0.949400 -0.313600
vn -0.051800 -0.996000 0.072600
vn 0.047200 -0.984600 -0.168100
vn 0.003900 -0.999200 0.040800
vn -0.077300 -0.991600 0.104000
vn -0.069500 -0.979300 0.190100
vn 0.274300 -0.887300 -0.370800
vn -0.107800 -0.991600 0.071800
vn 0.028500 -0.997600 -0.063400
vn 0.772900 -0.604800 -0.191700
vn 0.093900 -0.918600 -0.383800
vn 0.056000 -0.986200 0.155600
vn -0.498700 0.000000 0.866800
vn -0.703300 -0.682300 0.199900
vn 0.329800 -0.923800 -0.194700
vn -0.000000 -0.959200 0.282600
vn 0.018900 0.000000 -0.999800
vn -0.672100 0.000000 0.740400
vn 0.047900 -0.992500 -0.112900
vn 0.044000 -0.997100 -0.062100
vn 0.076800 -0.995700 -0.051600
vn -0.056000 -0.996200 0.067100
vn 0.024600 -0.092900 0.995400
vn 0.046900 -0.994500 -0.093800
vn 0.021800 -0.997300 -0.070700
vn -0.034600 -0.996200 -0.079700
vn 0.005200 -0.968300 0.249800
vn 0.004300 -0.988400 0.152000
vn 0.006700 -0.996500 0.083300
vn 0.005900 -0.941600 0.336700
vn 0.044900 -0.971800 -0.231400
vn 0.062100 -0.949600 0.307200
vn -0.718000 -0.694800 0.040900
vn 0.016700 -0.996600 0.081100
vn 0.043500 -0.997400 0.056700
vn -0.273700 -0.961800 0.000000
vn 0.129100 -0.946700 0.295200
vn 0.033900 -0.996600 -0.075100
vn -0.108000 -0.993800 0.026600
vn -0.081400 -0.938500 0.335600
vn -0.015600 -0.996700 0.079700
vn -0.041000 -0.929500 -0.366500
vn 0.004000 -0.999200 0.040900
vn 0.072400 -0.996600 -0.040200
vn -0.033000 -0.748100 -0.662700
vn 0.039700 -0.981400 -0.187700
vn 0.071700 -0.996000 -0.053600
vn 0.077000 -0.997000 0.011000
vn 0.082100 -0.993500 -0.079200
vn -0.702600 -0.683100 0.199500
vn 0.076800 -0.994300 -0.074100
vn 0.072800 -0.995700 -0.058100
vn -0.070100 -0.991900 0.106000
vn 0.081700 -0.995700 0.043100
vn 0.083700 -0.993200 -0.080800
vn 0.064100 -0.975000 -0.212800
vn -0.717200 -0.694000 -0.064100
vn -0.048600 -0.996400 0.069100
vn 0.017700 -0.996100 -0.086400
vn 0.222900 -0.971700 0.077600
vn -0.041800 -0.996000 -0.078700
vn -0.056000 -0.995300 0.079600
vn -0.005900 -0.996400 -0.085000
vn -0.074900 -0.996900 0.023000
vn -0.069900 -0.988200 0.136300
vn -0.081100 -0.996200 0.032500
vn -0.099900 -0.988500 -0.113800
vn -0.078400 -0.996600 0.025300
vn 0.055500 -0.995300 -0.078900
vn -0.023900 -0.996400 -0.081500
vn -0.071100 -0.970700 0.229500
vn -0.196900 0.000000 0.980400
vn 0.177300 -0.936400 0.302900
vn -0.710900 -0.679500 -0.181600
vn -0.072200 -0.994500 0.075200
vn -0.711000 -0.681500 -0.173300
vn -0.073400 -0.995400 -0.061400
vn -0.074700 -0.995400 0.059400
vn -0.062200 -0.975900 0.209400
vn -0.064100 -0.994800 -0.079300
vn 0.055300 -0.980300 -0.189800
vn -0.093100 -0.964500 -0.246900
vn 0.106500 -0.963200 -0.246600
vn -0.023900 -0.999700 0.000000
vn -0.082300 -0.969100 -0.232700
vn -0.086900 -0.990700 -0.104400
vn -0.115900 -0.980200 0.160400
vn -0.110800 -0.952900 0.282400
vn -0.083300 -0.955600 -0.282800
vn -0.114800 -0.963600 -0.241500
vn -0.115100 -0.845600 0.521300
vn -0.105300 -0.902700 0.417200
vn -0.050200 -0.996000 0.073700
vn -0.079700 -0.983100 -0.164900
vn -0.080800 -0.996700 0.000000
vn -0.084000 -0.948800 0.304600
vn 0.053100 -0.996700 -0.060900
vn 0.000000 -0.961500 0.274700
vn -0.050300 -0.996500 0.067200
vn 0.000000 -0.973100 0.230600
vn -0.055100 -0.995400 0.078300
vn 0.092500 -0.982000 0.164700
vn -0.719000 -0.694900 0.013200
vn 0.047700 -0.996600 -0.067900
vn -0.256900 -0.965900 -0.032800
vn -0.387200 -0.886500 0.253300
vn -0.001100 -0.851500 -0.524300
vn -0.022000 -0.999800 0.000000
vn -0.177500 -0.984100 0.000000
vn -0.245400 -0.969400 0.000000
vn 0.555400 -0.831600 0.000000
vn 0.544900 -0.838400 0.012500
vn 0.764700 0.000000 -0.644400
vn 0.234500 -0.971100 -0.044400
vn 0.000000 -0.961600 0.274600
vn -0.160700 -0.987000 0.000000
vn -0.235500 -0.971900 0.000000
vn -0.269100 -0.963100 0.000000
vn -0.257800 -0.966200 0.000000
vn -0.199100 -0.980000 0.000000
vn -0.082000 -0.960500 -0.265800
vn -0.053100 -0.965800 0.253900
vn 0.909100 -0.000000 -0.416500
vn 0.773700 0.000000 0.633600
vn -0.047900 -0.942100 0.331800
vn -0.555400 -0.831600 0.000000
vn -0.690300 -0.723600 -0.000800
vn -0.667500 -0.742600 0.054700
vn -0.784900 -0.513300 -0.347100
vn -0.666300 -0.741300 0.081000
vn -0.672700 -0.739400 0.028800
vn -0.563100 -0.826300 -0.009400
vn -0.681300 -0.713700 0.162400
vn -0.084100 -0.974900 -0.206300
vn -0.115600 -0.977500 -0.176400
vn -0.078300 -0.996500 0.029800
vn -0.057800 -0.942900 0.328100
vn 0.086100 -0.975000 0.204800
vn 0.080600 -0.959900 -0.268500
vn -0.004200 -0.982400 0.186800
vn -0.009300 -0.996700 -0.080100
vn 0.014700 -0.969000 -0.246700
vn 0.051900 -0.998100 -0.032900
vn 0.051900 -0.998700 0.000000
vn 0.044400 -0.932800 -0.357600
vn 0.036700 -0.971700 -0.233500
vn 0.036900 -0.995500 -0.086800
vn 0.025200 -0.999100 0.034100
vn 0.015000 -0.991800 0.126600
vn 0.211800 -0.885600 -0.413400
vn 0.049700 -0.989600 -0.135000
vn 0.050100 -0.998700 0.000000
vn 0.141500 -0.976800 -0.160500
vn 0.055900 -0.987500 0.147500
vn 0.052900 -0.969200 0.240400
vn 0.107400 -0.993600 -0.036000
vn 0.087500 -0.990700 0.103900
vn 0.000000 -0.968800 0.248000
vn 0.102900 -0.989100 -0.105700
vn 0.909100 -0.000000 -0.416600
vn 0.041000 -0.966600 -0.253200
vn 0.025700 -0.998800 0.042000
vn 0.114400 -0.956100 -0.269800
vn 0.048800 -0.996300 -0.070600
vn 0.741400 -0.668500 -0.058300
vn 0.040400 -0.932000 -0.360300
vn 0.705200 -0.680200 0.200000
vn 0.117700 -0.984100 0.133000
vn 0.744400 -0.666500 0.039400
vn 0.072400 -0.996300 -0.046600
vn -0.075400 -0.972200 0.221800
vn 0.091600 -0.957000 0.275200
vn 0.218300 -0.975900 0.008600
vn 0.028300 -0.971100 -0.237100
vn 0.743200 -0.666500 -0.059100
vn 0.715200 -0.687400 0.126100
vn 0.773600 0.000000 0.633600
vn 0.184600 -0.647700 -0.739200
vn 0.026700 -0.932400 -0.360500
vn 0.032800 -0.940200 -0.339000
vn 0.046500 -0.968100 -0.246200
vn 0.052300 -0.987000 0.151700
vn -0.711500 -0.681900 -0.169800
vn 0.000900 -0.965400 -0.260800
vn -0.078200 -0.992000 -0.099100
vn -0.725800 -0.665200 0.175100
vn -0.030300 -0.947300 0.318900
vn 0.046900 -0.998700 0.019000
vn 0.029600 -0.988400 0.149300
vn 0.022300 -0.963400 0.267100
vn 0.190200 -0.924500 0.330200
vn 0.027400 -0.998000 0.056300
vn -0.105900 -0.992100 -0.067000
vn -0.009300 -0.996200 -0.086400
vn -0.004200 -0.983000 0.183500
vn -0.015700 -0.996600 -0.081500
vn 0.080600 -0.959600 -0.269700
vn 0.043100 -0.933400 -0.356200
vn 0.037700 -0.972400 -0.230400
vn 0.062000 -0.718300 -0.692900
vn -0.004700 -0.968300 -0.249800
vn -0.082800 -0.971000 -0.224100
vn 0.050900 -0.960500 -0.273600
vn 0.045800 -0.996800 -0.065100
vn 0.689500 -0.708900 0.148900
vn 0.043800 -0.998400 0.036400
vn 0.744700 -0.666800 0.028000
vn -0.015000 -0.970500 -0.240800
vn 0.696600 -0.716200 0.041100
vn 0.767700 -0.616900 -0.173400
vn 0.689900 -0.710600 0.137900
vn -0.059300 -0.765200 -0.641100
vn -0.005600 -0.941500 -0.337000
vn -0.128300 -0.978300 0.162500
vn -0.116700 -0.979700 0.162700
vn 0.052900 -0.985100 0.163600
vn 0.055300 -0.974700 0.216400
vn 0.050200 -0.986600 0.155000
vn 0.090500 -0.995700 -0.020000
vn -0.076000 -0.964300 0.253700
vn 0.004300 -0.963600 0.267300
vn 0.037600 -0.783500 0.620200
vn -0.720300 -0.690200 -0.069000
vn -0.113600 -0.166700 -0.979400
vn -0.027200 -0.967900 -0.249700
vn -0.100600 -0.965200 -0.241300
vn 0.049100 -0.990100 -0.131900
vn -0.017900 -0.968000 -0.250100
vn 0.064300 -0.966700 0.247700
vn 0.058300 -0.996800 0.055400
vn 0.108000 -0.976300 -0.187400
vn 0.735600 -0.659100 -0.156200
vn 0.000000 -0.986200 -0.165400
vn -0.003300 -0.842100 0.539400
vn -0.003900 -0.791600 0.611000
vn 0.251900 -0.814900 0.522000
vn -0.072800 -0.983600 -0.165000
vn 0.024900 -0.959600 0.280300
vn 0.100200 -0.989600 0.103400
vn -0.104600 -0.895200 0.433300
vn 0.724200 -0.675600 0.138500
vn -0.715100 -0.691100 0.105000
vn 0.729400 -0.680400 0.071400
vn 0.724800 -0.686500 0.057200
vn 0.004200 -0.962300 -0.272100
vn 0.090600 -0.990500 0.103400
vn 0.003200 -0.798300 -0.602200
vn 0.003300 -0.793500 -0.608600
vn -0.086600 -0.936100 0.341000
vn 0.003600 -0.671500 0.741000
vn 0.035100 -0.671100 0.740600
vn 0.036800 -0.629200 0.776400
vn 0.007800 -0.972600 -0.232300
vn -0.719000 -0.694300 0.031600
vn 0.004700 -0.784100 0.620600
vn -0.048900 -0.942400 0.330800
vn 0.003900 -0.988400 0.151900
vn 0.073400 -0.996700 -0.035000
vn 0.003400 -0.998700 -0.051000
vn -0.716000 -0.697000 0.039600
vn -0.716200 -0.697200 0.032000
vn -0.703500 -0.683900 0.193300
vn 0.735300 -0.658800 -0.159300
vn -0.106200 -0.994100 0.020500
vn -0.018700 -0.940200 -0.340100
vn -0.093300 -0.941000 -0.325300
vn -0.101400 -0.948700 -0.299600
vn -0.110400 -0.946800 -0.302400
vn -0.015600 -0.997200 0.073700
vn 0.158400 -0.979400 -0.125200
vn 0.072700 -0.994100 -0.080300
vn 0.742100 -0.669200 0.037800
vn -0.027200 -0.819900 0.571800
vn 0.024200 -0.826000 0.563200
vn 0.027900 -0.912200 -0.408800
vn -0.122200 -0.992500 -0.001100
vn -0.107600 -0.993500 0.035800
vn 0.060100 -0.996500 -0.058300
vn 0.047500 -0.992100 0.115900
vn -0.009900 -0.970500 -0.240800
vn -0.077700 -0.996600 0.029000
vn 0.096800 -0.946500 -0.307700
vn -0.085800 -0.989600 0.115400
vn -0.081000 -0.995500 0.050200
vn -0.088300 -0.988300 -0.124700
vn 0.021700 -0.996600 -0.079000
vn 0.082500 -0.933800 0.348200
vn -0.089500 -0.988200 0.124300
vn 0.007900 -0.996500 0.083500
vn 0.004100 -0.963600 0.267200
vn 0.031400 -0.720100 -0.693100
vn 0.053800 -0.996800 -0.058700
vn -0.073200 -0.996500 0.040600
vn 0.070100 -0.994900 -0.073000
vn -0.004400 -0.941600 -0.336600
vn -0.005800 -0.968200 -0.250200
vn 0.037600 -0.783400 0.620400
vn 0.076800 -0.996100 -0.042600
vn 0.000000 -0.968700 0.248200
vn -0.111400 -0.168700 -0.979400
vn -0.162700 -0.497200 0.852200
vn -0.049900 -0.996900 0.060700
vn -0.088000 -0.996000 -0.013000
vn -0.064300 -0.996700 -0.049300
vn -0.719300 -0.694500 0.014100
vn -0.043800 -0.796400 -0.603100
vn -0.077800 -0.993600 0.081900
vn 0.010000 -0.954600 0.297700
vn 0.705100 -0.677700 0.208600
vn 0.020600 -0.793300 -0.608500
vn -0.016000 -0.993500 -0.112500
vn -0.039800 -0.996000 -0.080000
vn -0.016400 -0.996700 -0.079400
vn 0.081800 -0.996400 -0.023900
vn 0.270800 -0.950300 0.153500
vn -0.086500 -0.854300 -0.512500
vn 0.106300 -0.980300 -0.166700
vn 0.016900 -0.418000 -0.908300
vn 0.047200 -0.977900 -0.203800
vn 0.050100 -0.996200 -0.071200
vn 0.091900 -0.994400 -0.052300
vn -0.017300 -0.999700 0.016300
vn -0.725700 -0.665300 0.175300
vn 0.088500 -0.994200 -0.060700
vn 0.060100 -0.996500 -0.057600
vn 0.067100 -0.997000 -0.038300
vn 0.084000 -0.995800 -0.037600
vn 0.079600 -0.995900 -0.044100
vn 0.059700 -0.994400 -0.087100
vn 0.139900 -0.988200 -0.062200
vn 0.082200 -0.994200 0.068800
vn 0.071800 -0.996400 -0.044500
vn 0.067800 -0.735700 0.673900
vn 0.238800 -0.944600 -0.225100
vn -0.016200 -0.897900 0.439900
vn 0.091800 -0.995700 -0.008800
vn 0.068200 -0.967300 -0.244400
vn -0.060300 -0.985400 -0.159100
vn -0.023900 -0.999400 0.023100
vn 0.184900 -0.976700 -0.109200
vn -0.081800 -0.996500 0.015400
vn -0.070500 -0.996600 0.043700
vn -0.072500 -0.984500 0.159700
vn -0.063500 -0.997300 0.037500
vn -0.074900 -0.996300 0.041500
vn 0.177700 -0.774600 0.607000
vn -0.078400 -0.996000 0.043500
vn -0.070200 -0.967600 0.242400
vn 0.025700 -0.996600 -0.078800
vn -0.053900 -0.731400 -0.679800
vn -0.056000 -0.996600 0.061100
vn -0.016000 -0.996700 -0.079300
vn 0.009800 -0.940300 -0.340200
vn 0.031500 -0.719400 -0.693900
vn -0.060900 -0.996400 0.058800
vn -0.073400 -0.994800 0.070800
vn -0.073000 -0.996300 0.045200
vn -0.088600 -0.996100 0.001100
vn -0.034200 -0.897900 0.438900
vn -0.000000 -0.973100 0.230500
vn -0.015300 -0.999800 -0.014700
vn 0.208700 -0.967500 -0.142600
vn -0.047700 -0.882300 -0.468300
vn 0.205700 -0.974600 -0.088400
vn 0.319500 -0.926700 -0.197900
vn -0.050300 -0.930500 -0.362900
vn 0.205300 -0.972400 -0.110500
vn 0.371100 -0.926200 -0.066900
vn 0.213200 -0.974600 0.068300
vn 0.106200 -0.439800 -0.891800
vn -0.326200 -0.288200 -0.900300
vn 0.696400 -0.685900 0.211100
vn -0.208500 -0.595100 0.776200
vn -0.102900 -0.992700 0.062200
s off
f 1/1/1 4/1/1 3/1/1
f 80/2/2 153/3/2 154/4/2
f 468/5/3 465/6/3 409/7/3
f 220/8/4 142/9/4 222/10/4
f 10/11/5 143/12/5 142/9/5
f 158/13/6 12/14/6 144/15/6
f 144/15/7 80/2/7 154/4/7
f 361/16/8 362/17/8 358/18/8
f 20/19/9 147/20/9 146/21/9
f 228/22/10 22/23/10 148/24/10
f 148/24/11 23/25/11 155/26/11
f 325/27/12 297/28/12 387/29/12
f 252/30/13 150/31/13 253/32/13
f 150/31/14 31/33/14 151/34/14
f 264/35/15 32/36/15 152/37/15
f 50/38/16 48/39/16 54/40/16
f 383/41/17 405/42/17 406/43/17
f 212/44/18 196/45/18 157/46/18
f 341/47/19 317/48/19 439/47/19
f 291/49/20 384/49/20 406/50/20
f 121/51/21 85/52/21 278/53/21
f 436/54/22 471/54/22 475/55/22
f 296/56/23 304/57/23 394/57/23
f 227/58/24 232/59/24 300/60/24
f 44/61/25 43/62/25 39/63/25
f 321/64/26 429/65/26 414/64/26
f 304/66/27 305/67/27 395/67/27
f 310/68/28 316/69/28 440/69/28
f 135/70/29 105/62/29 106/71/29
f 346/72/30 347/73/30 454/73/30
f 173/74/21 33/75/21 107/71/21
f 366/76/31 390/77/31 373/78/31
f 475/55/22 474/79/22 335/80/22
f 395/67/32 305/67/32 447/81/32
f 132/82/33 111/83/33 102/84/33
f 358/18/34 362/17/34 377/85/34
f 284/86/21 287/87/21 288/88/21
f 469/89/35 470/90/35 471/91/35
f 357/92/36 312/92/36 318/93/36
f 389/94/37 394/95/37 391/96/37
f 58/97/38 61/98/38 51/99/38
f 206/100/39 205/101/39 151/102/39
f 181/103/40 180/104/40 198/105/40
f 380/106/41 373/78/41 369/107/41
f 283/108/1 290/109/1 282/109/1
f 71/110/42 114/111/42 271/112/42
f 131/113/21 126/114/21 118/115/21
f 459/116/43 466/117/43 408/118/43
f 128/119/16 118/115/16 103/120/16
f 210/121/1 382/121/1 322/122/1
f 58/97/44 51/99/44 52/123/44
f 102/84/21 45/124/21 105/62/21
f 118/115/45 126/114/45 123/125/45
f 352/126/46 351/127/46 413/128/46
f 54/40/16 53/129/16 52/123/16
f 477/130/47 458/130/47 291/131/47
f 41/132/21 97/133/21 173/74/21
f 322/122/48 381/134/48 329/134/48
f 86/23/49 122/135/49 87/25/49
f 85/52/50 121/51/50 86/23/50
f 119/136/51 84/19/51 83/137/51
f 124/138/52 83/137/52 109/139/52
f 117/140/53 75/14/53 74/141/53
f 116/142/54 74/141/54 73/11/54
f 115/143/55 73/11/55 72/144/55
f 273/145/56 72/144/56 271/112/56
f 67/146/57 114/111/57 71/110/57
f 87/25/58 112/147/58 67/146/58
f 284/86/27 286/53/27 278/53/27
f 343/148/59 442/148/59 416/149/59
f 452/150/60 451/151/60 331/151/60
f 367/152/61 379/153/61 377/85/61
f 270/87/21 50/38/21 117/140/21
f 451/151/62 422/154/62 330/154/62
f 300/155/63 296/56/63 389/56/63
f 348/156/64 183/157/64 363/157/64
f 319/158/21 24/159/21 323/160/21
f 197/161/65 142/162/65 198/163/65
f 349/164/66 456/164/66 419/165/66
f 282/109/21 280/166/21 88/159/21
f 390/28/67 297/28/67 399/167/67
f 433/168/68 434/169/68 391/96/68
f 116/142/21 115/143/21 274/88/21
f 88/159/69 127/170/69 133/171/69
f 372/172/1 174/172/1 193/173/1
f 338/174/27 339/175/27 432/175/27
f 359/176/1 379/177/1 156/176/1
f 9/144/70 157/46/70 141/178/70
f 214/179/71 158/13/71 216/180/71
f 237/181/72 146/21/72 243/182/72
f 443/183/73 434/184/73 299/183/73
f 388/185/12 294/185/12 325/27/12
f 61/98/27 171/186/27 60/187/27
f 142/162/74 197/161/74 222/188/74
f 388/189/75 376/190/75 453/191/75
f 354/192/76 404/193/76 375/194/76
f 202/195/77 233/196/77 236/197/77
f 374/198/73 443/183/73 166/198/73
f 42/199/78 5/200/78 177/201/78
f 203/202/79 155/26/79 210/203/79
f 161/204/80 223/205/80 180/206/80
f 324/207/81 313/208/81 438/207/81
f 136/209/82 104/132/82 113/210/82
f 82/211/33 109/139/33 110/139/33
f 57/212/83 58/97/83 52/123/83
f 320/213/84 351/213/84 355/214/84
f 276/215/21 120/216/21 278/53/21
f 341/47/85 439/47/85 408/217/85
f 176/218/86 195/219/86 163/220/86
f 2/1/1 1/1/1 3/1/1
f 81/221/21 171/186/21 66/98/21
f 308/222/87 68/223/87 93/224/87
f 319/158/88 350/225/88 25/226/88
f 297/77/89 159/227/89 13/228/89
f 13/228/90 160/229/90 14/230/90
f 221/231/91 161/232/91 15/233/91
f 15/233/92 162/234/92 16/235/92
f 176/236/93 17/237/93 140/238/93
f 163/220/94 81/221/94 17/237/94
f 350/225/95 326/239/95 25/226/95
f 332/240/96 334/241/96 26/242/96
f 339/243/97 307/244/97 27/245/97
f 227/58/98 309/246/98 28/247/98
f 309/246/99 93/224/99 28/247/99
f 40/248/100 41/132/100 44/61/100
f 181/103/101 198/105/101 218/249/101
f 293/250/102 35/251/102 34/252/102
f 35/251/103 302/253/103 36/254/103
f 311/255/104 37/256/104 263/257/104
f 317/258/105 341/259/105 37/256/105
f 311/260/106 403/260/106 317/261/106
f 289/262/33 283/108/33 281/108/33
f 105/62/16 62/200/16 63/200/16
f 457/263/107 350/263/107 319/264/107
f 274/265/1 288/265/1 270/266/1
f 284/267/16 275/267/16 270/268/16
f 293/269/108 314/50/108 428/270/108
f 14/230/109 175/271/109 138/272/109
f 217/273/110 140/238/110 215/274/110
f 292/275/22 450/276/22 449/275/22
f 172/277/111 191/278/111 171/186/111
f 106/71/16 105/62/16 107/71/16
f 387/29/12 417/27/12 325/27/12
f 194/279/112 179/280/112 212/44/112
f 448/281/113 345/281/113 396/282/113
f 159/227/114 179/280/114 160/229/114
f 259/283/115 310/284/115 169/285/115
f 182/286/116 172/277/116 163/220/116
f 447/81/117 344/81/117 448/281/117
f 50/38/16 54/40/16 51/99/16
f 229/287/118 186/288/118 166/289/118
f 301/276/28 327/290/28 450/276/28
f 266/291/119 170/292/119 265/293/119
f 190/294/120 174/295/120 170/292/120
f 85/52/21 276/215/21 278/53/21
f 313/208/121 348/296/121 455/296/121
f 411/297/122 412/158/122 415/298/122
f 441/299/28 440/69/28 316/69/28
f 318/93/36 324/207/36 438/207/36
f 403/255/123 421/300/123 462/301/123
f 160/229/124 194/279/124 175/271/124
f 278/53/21 122/135/21 121/51/21
f 49/302/21 281/108/21 282/109/21
f 67/146/33 71/110/33 7/146/33
f 244/303/125 239/304/125 238/305/125
f 323/149/107 416/149/107 412/264/107
f 394/95/126 395/306/126 430/307/126
f 18/211/33 70/308/33 69/308/33
f 224/309/127 197/310/127 180/104/127
f 179/280/128 347/311/128 196/45/128
f 242/312/129 332/240/129 26/242/129
f 199/313/130 192/314/130 182/286/130
f 201/315/131 240/316/131 146/317/131
f 406/50/108 428/270/108 314/50/108
f 240/318/132 184/319/132 239/320/132
f 201/321/133 185/322/133 184/319/133
f 230/323/134 203/202/134 186/288/134
f 62/124/27 45/124/27 63/124/27
f 297/28/12 390/28/12 387/29/12
f 256/324/135 188/325/135 255/326/135
f 205/327/136 189/328/136 188/325/136
f 267/329/137 190/294/137 266/291/137
f 207/330/138 193/331/138 190/294/138
f 173/74/139 97/133/139 149/332/139
f 39/63/21 43/62/21 42/199/21
f 191/278/140 192/314/140 208/333/140
f 45/124/27 268/124/27 63/124/27
f 362/17/141 368/334/141 367/152/141
f 412/264/107 457/263/107 319/264/107
f 475/55/142 471/54/142 473/54/142
f 357/335/143 358/18/143 359/336/143
f 365/337/144 376/190/144 417/338/144
f 162/234/145 215/274/145 16/235/145
f 11/141/146 216/180/146 143/12/146
f 213/339/147 199/313/147 182/286/147
f 138/272/148 223/340/148 221/231/148
f 219/341/149 158/342/149 213/343/149
f 137/344/150 222/10/150 157/46/150
f 152/37/151 32/36/151 100/345/151
f 165/346/152 164/347/152 184/348/152
f 267/349/153 266/350/153 260/351/153
f 236/352/154 230/353/154 235/354/154
f 233/355/155 226/356/155 228/22/155
f 147/20/156 231/357/156 233/355/156
f 305/306/157 296/94/157 306/358/157
f 185/322/158 236/359/158 235/360/158
f 202/195/159 146/317/159 147/361/159
f 455/156/160 348/156/160 363/157/160
f 169/362/161 168/363/161 188/364/161
f 324/365/162 241/366/162 243/182/162
f 108/367/16 128/119/16 103/120/16
f 326/239/163 242/312/163 25/226/163
f 125/368/21 134/369/21 132/82/21
f 250/370/164 251/371/164 255/372/164
f 204/373/165 250/374/165 187/375/165
f 187/375/166 249/376/166 167/377/166
f 287/268/16 284/267/16 270/268/16
f 295/169/167 303/168/167 165/378/167
f 149/332/168 247/379/168 248/380/168
f 246/381/169 240/382/169 245/383/169
f 310/284/170 327/384/170 169/285/170
f 247/379/171 253/32/171 248/380/171
f 206/385/172 260/386/172 189/328/172
f 249/376/173 335/387/173 473/388/173
f 151/34/174 257/389/174 258/390/174
f 259/391/175 189/392/175 260/393/175
f 339/175/176 334/394/176 426/394/176
f 436/395/177 449/396/177 385/397/177
f 258/390/178 262/398/178 264/35/178
f 374/289/179 381/399/179 370/400/179
f 346/191/180 196/45/180 347/311/180
f 194/401/181 224/402/181 175/403/181
f 33/75/16 101/404/16 88/159/16
f 46/405/27 6/406/27 269/407/27
f 61/98/16 68/223/16 13/228/16
f 134/369/182 105/62/182 135/70/182
f 167/377/139 173/74/139 187/375/139
f 56/408/21 57/212/21 52/123/21
f 196/45/183 336/409/183 141/178/183
f 235/410/184 234/411/184 185/412/184
f 420/413/185 392/414/185 449/396/185
f 47/415/186 55/416/186 48/39/186
f 120/216/187 276/215/187 84/19/187
f 352/126/188 356/417/188 351/127/188
f 110/139/33 18/211/33 82/211/33
f 275/86/21 278/53/21 120/216/21
f 330/154/62 331/151/62 451/151/62
f 114/111/21 112/147/21 274/88/21
f 288/265/1 287/266/1 270/266/1
f 332/418/176 326/165/176 419/165/176
f 289/419/21 285/166/21 290/109/21
f 124/138/21 108/367/21 119/136/21
f 360/26/189 355/420/189 356/417/189
f 344/81/117 345/281/117 448/281/117
f 228/421/190 148/24/190 203/202/190
f 329/399/191 166/289/191 186/288/191
f 207/330/192 152/37/192 211/153/192
f 442/422/193 466/117/193 416/160/193
f 340/423/194 9/144/194 141/178/194
f 313/193/195 324/365/195 145/424/195
f 318/425/196 19/137/196 324/365/196
f 469/426/197 435/426/197 458/427/197
f 173/74/21 107/71/21 41/132/21
f 342/428/198 170/292/198 174/295/198
f 325/338/199 178/429/199 159/227/199
f 286/53/21 284/86/21 288/88/21
f 60/187/21 75/14/21 50/38/21
f 356/417/200 352/126/200 382/203/200
f 280/166/27 285/166/27 279/419/27
f 166/289/201 299/430/201 229/431/201
f 335/387/173 474/432/173 473/388/173
f 316/433/202 265/434/202 170/292/202
f 312/335/203 18/211/203 318/425/203
f 424/418/204 426/394/204 332/418/204
f 310/284/205 259/283/205 265/434/205
f 305/67/32 344/81/32 447/81/32
f 120/216/21 119/136/21 108/367/21
f 335/387/206 249/376/206 254/435/206
f 359/176/207 156/176/207 357/436/207
f 345/437/208 305/306/208 306/358/208
f 337/438/209 165/378/209 303/168/209
f 105/62/210 134/369/210 102/84/210
f 446/438/211 433/168/211 430/307/211
f 307/439/212 338/174/212 431/174/212
f 53/129/21 56/408/21 52/123/21
f 312/335/213 100/345/213 70/308/213
f 195/219/214 182/286/214 163/220/214
f 208/333/215 209/440/215 153/3/215
f 348/441/216 200/442/216 183/443/216
f 352/126/217 376/190/217 382/203/217
f 333/444/218 164/445/218 337/438/218
f 158/446/219 144/15/219 199/313/219
f 292/396/220 254/435/220 168/447/220
f 71/110/33 271/112/33 272/112/33
f 299/430/221 234/448/221 229/431/221
f 330/449/222 245/450/222 244/451/222
f 298/420/223 23/25/223 7/146/223
f 325/338/224 294/189/224 178/429/224
f 88/159/16 106/71/16 33/75/16
f 105/62/16 63/200/16 107/71/16
f 239/304/225 184/348/225 238/305/225
f 331/452/226 330/449/226 244/451/226
f 477/427/197 469/426/197 458/427/197
f 232/59/227 296/94/227 300/60/227
f 466/117/193 415/298/193 416/160/193
f 174/172/228 372/172/228 441/299/228
f 112/147/21 122/135/21 274/88/21
f 334/394/204 332/418/204 426/394/204
f 89/137/33 83/137/33 90/19/33
f 206/100/229 151/102/229 258/453/229
f 316/69/28 342/299/28 441/299/28
f 407/454/230 463/455/230 409/7/230
f 55/416/186 54/40/186 48/39/186
f 106/71/16 107/71/16 33/75/16
f 55/416/231 56/408/231 54/40/231
f 277/215/33 90/19/33 84/19/33
f 177/456/27 5/457/27 63/458/27
f 445/290/28 450/276/28 327/290/28
f 349/164/232 350/263/232 457/263/232
f 208/333/27 153/3/27 60/187/27
f 446/459/60 333/150/60 337/459/60
f 317/48/19 410/48/19 439/47/19
f 298/460/233 355/460/233 360/461/233
f 45/124/21 62/200/21 105/62/21
f 117/140/21 116/142/21 270/87/21
f 453/72/30 346/72/30 454/73/30
f 421/300/234 393/253/234 467/462/234
f 313/208/81 404/208/81 438/207/81
f 397/439/212 307/439/212 431/174/212
f 297/77/235 325/338/235 159/227/235
f 390/77/236 399/222/236 398/463/236
f 273/145/21 114/111/21 274/88/21
f 61/98/16 88/159/16 68/223/16
f 300/155/63 389/56/63 401/464/63
f 378/465/237 382/203/237 376/190/237
f 419/165/176 424/418/176 332/418/176
f 306/282/27 307/439/27 397/439/27
f 476/466/238 477/467/238 479/468/238
f 180/104/239 197/310/239 198/105/239
f 365/337/240 387/469/240 366/76/240
f 127/170/21 88/159/21 280/166/21
f 384/131/47 291/131/47 458/130/47
f 354/192/241 438/365/241 404/193/241
f 149/332/242 248/380/242 251/470/242
f 144/15/243 154/4/243 209/440/243
f 130/471/33 99/36/33 129/471/33
f 109/139/33 83/137/33 89/137/33
f 359/336/244 377/85/244 379/153/244
f 152/37/245 156/336/245 211/153/245
f 179/280/246 196/45/246 212/44/246
f 371/331/247 368/334/247 372/295/247
f 143/472/248 216/473/248 198/163/248
f 367/152/249 377/85/249 362/17/249
f 198/105/250 219/474/250 218/249/250
f 114/111/251 273/145/251 271/112/251
f 177/201/78 6/475/78 38/476/78
f 379/153/252 367/152/252 371/331/252
f 376/190/253 388/189/253 417/338/253
f 280/166/21 279/419/21 111/83/21
f 320/213/84 340/477/84 437/477/84
f 298/420/254 7/146/254 8/110/254
f 333/150/60 446/459/60 452/150/60
f 156/336/255 152/37/255 100/345/255
f 369/107/256 373/78/256 370/400/256
f 410/258/257 468/5/257 463/455/257
f 213/339/258 158/446/258 199/313/258
f 401/246/259 391/96/259 400/478/259
f 410/258/260 465/6/260 468/5/260
f 403/255/261 462/301/261 460/479/261
f 311/260/106 421/480/106 403/260/106
f 406/43/262 427/481/262 428/482/262
f 431/483/263 430/307/263 448/437/263
f 453/72/26 429/65/26 336/65/26
f 426/241/264 423/484/264 425/485/264
f 258/453/265 261/486/265 206/100/265
f 425/485/266 430/307/266 431/483/266
f 428/482/267 385/397/267 386/250/267
f 431/174/27 338/174/27 432/175/27
f 456/487/268 411/297/268 419/239/268
f 384/488/269 458/468/269 383/41/269
f 424/240/270 418/489/270 423/484/270
f 393/253/271 464/490/271 467/462/271
f 142/162/272 143/472/272 198/163/272
f 376/190/273 380/106/273 378/465/273
f 61/98/21 282/109/21 88/159/21
f 364/491/274 422/449/274 451/452/274
f 411/297/275 368/334/275 362/17/275
f 413/128/276 437/423/276 414/492/276
f 373/78/277 398/463/277 370/400/277
f 404/193/278 455/441/278 375/194/278
f 73/11/33 74/141/33 78/141/33
f 391/96/279 434/169/279 443/430/279
f 383/41/280 458/468/280 435/89/280
f 405/42/281 435/89/281 436/395/281
f 440/433/282 441/428/282 407/454/282
f 400/478/283 443/430/283 374/289/283
f 380/106/284 376/190/284 365/337/284
f 418/489/285 362/17/285 364/491/285
f 442/493/85 343/493/85 408/217/85
f 402/494/286 445/384/286 444/284/286
f 314/50/20 291/49/20 406/50/20
f 469/495/287 471/496/287 436/496/287
f 415/298/288 372/295/288 368/334/288
f 204/373/139 187/375/139 173/74/139
f 240/316/289 243/497/289 146/317/289
f 420/413/290 450/498/290 445/384/290
f 225/499/291 222/188/291 197/161/291
f 69/308/33 82/211/33 18/211/33
f 425/485/292 451/452/292 452/444/292
f 430/307/293 452/444/293 446/438/293
f 409/7/294 444/284/294 440/433/294
f 40/248/25 44/61/25 39/63/25
f 79/14/33 78/141/33 74/141/33
f 358/18/295 353/425/295 354/192/295
f 78/141/33 77/11/33 73/11/33
f 75/14/33 60/187/33 80/2/33
f 415/298/296 459/116/296 461/500/296
f 173/74/297 167/377/297 470/501/297
f 33/75/298 291/488/298 34/252/298
f 80/2/299 65/187/299 153/3/299
f 220/8/300 10/11/300 142/9/300
f 10/11/301 11/141/301 143/12/301
f 158/13/302 139/502/302 12/14/302
f 144/15/303 12/14/303 80/2/303
f 237/181/304 20/19/304 146/21/304
f 20/19/305 21/52/305 147/20/305
f 228/22/306 226/356/306 22/23/306
f 148/24/307 22/23/307 23/25/307
f 381/399/308 378/465/308 369/107/308
f 252/30/309 30/503/309 150/31/309
f 150/31/310 30/503/310 31/33/310
f 264/35/311 262/398/311 32/36/311
f 387/469/312 365/337/312 417/338/312
f 412/264/107 319/264/107 323/149/107
f 108/367/313 124/138/313 128/119/313
f 108/367/21 275/86/21 120/216/21
f 426/394/204 432/175/204 339/175/204
f 318/93/36 353/93/36 357/92/36
f 369/107/314 378/465/314 380/106/314
f 41/132/100 107/71/100 44/61/100
f 479/504/315 33/75/315 476/466/315
f 13/228/16 81/221/16 61/98/16
f 47/415/33 58/97/33 55/416/33
f 93/224/16 68/223/16 88/159/16
f 325/27/12 417/27/12 388/185/12
f 413/128/316 376/190/316 352/126/316
f 91/52/33 277/215/33 276/215/33
f 428/270/108 386/269/108 293/269/108
f 101/404/21 315/118/21 343/422/21
f 278/53/21 274/88/21 122/135/21
f 405/42/17 427/481/17 406/43/17
f 285/166/27 289/419/27 279/419/27
f 328/300/317 263/257/317 36/254/317
f 205/101/318 256/505/318 150/506/318
f 330/154/62 422/154/62 183/157/62
f 331/151/60 333/150/60 452/150/60
f 371/173/1 372/172/1 193/173/1
f 337/459/60 303/507/60 446/459/60
f 398/463/319 373/78/319 390/77/319
f 134/369/210 125/368/210 102/84/210
f 191/278/27 60/187/27 171/186/27
f 327/290/28 310/68/28 445/290/28
f 124/138/320 109/139/320 82/211/320
f 82/211/321 131/113/321 124/138/321
f 463/455/322 461/500/322 410/258/322
f 86/23/323 121/51/323 122/135/323
f 401/464/63 309/464/63 300/155/63
f 119/136/324 120/216/324 84/19/324
f 124/138/325 119/136/325 83/137/325
f 88/159/326 133/171/326 106/71/326
f 134/369/327 135/70/327 106/71/327
f 342/299/228 174/172/228 441/299/228
f 347/73/328 294/185/328 454/73/328
f 460/479/329 462/301/329 402/494/329
f 127/170/330 111/83/330 132/82/330
f 133/171/326 134/369/326 106/71/326
f 123/125/21 59/475/21 46/508/21
f 116/142/331 117/140/331 74/141/331
f 115/143/332 116/142/332 73/11/332
f 273/145/333 115/143/333 72/144/333
f 67/146/334 112/147/334 114/111/334
f 87/25/335 122/135/335 112/147/335
f 58/97/33 57/212/33 56/408/33
f 283/108/21 289/419/21 290/109/21
f 241/366/336 237/181/336 243/182/336
f 230/323/337 228/421/337 203/202/337
f 399/167/338 308/167/338 401/509/338
f 421/510/339 302/511/339 393/511/339
f 124/138/313 131/113/313 128/119/313
f 186/288/340 203/202/340 322/465/340
f 126/114/341 131/113/341 94/33/341
f 82/211/342 69/308/342 131/113/342
f 96/345/343 129/471/343 131/113/343
f 473/54/344 474/54/344 475/55/344
f 129/471/345 95/36/345 131/113/345
f 131/113/346 69/308/346 96/345/346
f 104/132/347 136/209/347 126/114/347
f 131/113/348 95/36/348 94/33/348
f 193/173/1 211/177/1 371/173/1
f 9/144/349 137/344/349 157/46/349
f 214/179/350 139/502/350 158/13/350
f 450/498/351 420/413/351 449/396/351
f 24/159/16 93/224/16 88/159/16
f 363/157/62 183/157/62 422/154/62
f 156/176/207 312/436/207 357/436/207
f 276/215/33 85/52/33 91/52/33
f 23/25/33 67/146/33 7/146/33
f 203/202/352 148/24/352 155/26/352
f 234/448/353 295/169/353 165/378/353
f 322/122/48 378/122/48 381/134/48
f 23/25/33 87/25/33 67/146/33
f 110/139/33 109/139/33 89/137/33
f 331/452/354 238/512/354 333/444/354
f 155/461/233 298/460/233 360/461/233
f 134/369/21 133/171/21 132/82/21
f 327/384/355 301/498/355 169/285/355
f 361/16/356 363/443/356 364/491/356
f 81/221/357 172/277/357 171/186/357
f 308/222/358 297/77/358 68/223/358
f 76/144/33 271/112/33 72/144/33
f 24/159/21 101/404/21 343/422/21
f 13/228/359 68/223/359 297/77/359
f 125/368/33 132/82/33 102/84/33
f 13/228/360 159/227/360 160/229/360
f 221/231/361 223/340/361 161/232/361
f 15/233/362 161/232/362 162/234/362
f 176/236/363 163/220/363 17/237/363
f 163/220/364 172/277/364 81/221/364
f 71/110/33 272/112/33 8/110/33
f 350/225/365 349/487/365 326/239/365
f 71/110/33 8/110/33 7/146/33
f 334/241/366 339/243/366 26/242/366
f 27/245/367 26/242/367 339/243/367
f 339/243/368 338/483/368 307/244/368
f 227/58/369 300/60/369 309/246/369
f 309/246/370 308/222/370 93/224/370
f 414/64/26 437/477/26 321/64/26
f 35/251/371 293/250/371 302/253/371
f 311/255/372 317/258/372 37/256/372
f 101/404/373 37/256/373 315/118/373
f 341/259/374 315/118/374 37/256/374
f 297/28/67 308/167/67 399/167/67
f 104/132/341 126/114/341 94/33/341
f 50/38/21 75/14/21 117/140/21
f 345/281/113 306/282/113 396/282/113
f 115/143/21 273/145/21 274/88/21
f 308/167/375 309/509/375 401/509/375
f 456/164/232 349/164/232 457/263/232
f 14/230/376 160/229/376 175/271/376
f 217/273/377 176/236/377 140/238/377
f 172/277/378 192/314/378 191/278/378
f 290/109/16 285/166/16 282/109/16
f 387/469/379 390/77/379 366/76/379
f 162/513/380 161/204/380 181/514/380
f 159/227/381 178/429/381 179/280/381
f 260/393/382 265/515/382 259/391/382
f 182/286/383 192/314/383 172/277/383
f 218/516/384 217/517/384 181/514/384
f 399/222/385 401/246/385 400/478/385
f 229/287/386 230/323/386 186/288/386
f 444/68/28 445/290/28 310/68/28
f 266/291/387 190/294/387 170/292/387
f 190/294/388 193/331/388 174/295/388
f 160/229/389 179/280/389 194/279/389
f 161/204/390 180/206/390 181/514/390
f 189/392/391 169/362/391 188/364/391
f 386/269/392 393/511/392 293/269/392
f 407/454/393 415/298/393 461/500/393
f 179/280/394 178/429/394 294/189/394
f 281/108/1 283/108/1 282/109/1
f 272/112/33 271/112/33 76/144/33
f 336/409/395 196/45/395 346/191/395
f 224/309/396 225/518/396 197/310/396
f 103/120/45 118/115/45 123/125/45
f 311/260/106 328/480/106 421/480/106
f 199/313/397 209/440/397 192/314/397
f 225/499/398 157/519/398 222/188/398
f 123/125/21 113/210/21 59/475/21
f 240/318/399 201/321/399 184/319/399
f 201/321/400 202/520/400 185/322/400
f 202/195/401 147/361/401 233/196/401
f 329/399/402 186/288/402 322/465/402
f 97/133/33 94/33/33 98/33/33
f 256/324/403 205/327/403 188/325/403
f 205/327/404 206/385/404 189/328/404
f 267/329/405 207/330/405 190/294/405
f 207/330/406 211/153/406 193/331/406
f 56/408/231 53/129/231 54/40/231
f 478/521/47 477/130/47 291/131/47
f 46/405/27 59/406/27 6/406/27
f 162/234/407 217/273/407 215/274/407
f 11/141/408 214/179/408 216/180/408
f 363/443/409 422/449/409 364/491/409
f 301/498/410 168/447/410 169/285/410
f 410/261/106 317/261/106 403/260/106
f 361/16/411 364/491/411 362/17/411
f 238/512/412 164/445/412 333/444/412
f 179/280/413 294/189/413 347/311/413
f 86/23/33 92/23/33 91/52/33
f 138/272/414 175/271/414 223/340/414
f 195/522/415 176/523/415 218/524/415
f 145/424/416 243/182/416 246/525/416
f 98/33/33 95/36/33 99/36/33
f 137/344/417 220/8/417 222/10/417
f 192/314/418 209/440/418 208/333/418
f 373/78/419 380/106/419 366/76/419
f 234/411/420 165/346/420 185/412/420
f 195/219/421 213/339/421 182/286/421
f 96/345/33 130/471/33 129/471/33
f 218/516/422 176/526/422 217/517/422
f 279/262/33 289/262/33 281/108/33
f 183/443/423 200/442/423 245/450/423
f 210/121/1 155/461/1 360/461/1
f 24/159/88 319/158/88 25/226/88
f 165/346/424 184/348/424 185/412/424
f 238/305/425 184/348/425 164/347/425
f 235/410/426 229/527/426 234/411/426
f 100/345/33 130/471/33 96/345/33
f 437/477/26 340/477/26 321/64/26
f 229/528/427 235/354/427 230/353/427
f 313/193/428 145/424/428 200/442/428
f 52/123/16 51/99/16 54/40/16
f 233/355/429 231/357/429 226/356/429
f 147/20/430 21/52/430 231/357/430
f 232/59/431 27/245/431 307/244/431
f 232/59/432 307/244/432 296/94/432
f 304/95/433 296/94/433 305/306/433
f 307/244/434 306/358/434 296/94/434
f 185/322/435 202/520/435 236/359/435
f 96/345/33 69/308/33 100/345/33
f 264/529/436 152/37/436 207/330/436
f 212/530/437 225/531/437 224/402/437
f 23/25/33 92/23/33 87/25/33
f 77/11/33 76/144/33 72/144/33
f 146/317/438 202/195/438 201/315/438
f 123/125/439 126/114/439 136/209/439
f 61/98/21 49/302/21 282/109/21
f 128/119/21 131/113/21 118/115/21
f 243/182/440 145/424/440 324/365/440
f 324/365/441 19/137/441 241/366/441
f 87/25/33 92/23/33 86/23/33
f 326/239/442 332/240/442 242/312/442
f 299/183/73 166/198/73 443/183/73
f 200/442/443 246/525/443 245/450/443
f 204/373/444 251/470/444 250/374/444
f 187/375/445 250/374/445 249/376/445
f 34/252/446 291/488/446 314/43/446
f 223/205/447 175/532/447 224/533/447
f 149/332/448 29/534/448 247/379/448
f 245/383/449 240/382/449 239/535/449
f 243/536/450 240/382/450 246/381/450
f 239/535/451 244/537/451 245/383/451
f 83/137/33 84/19/33 90/19/33
f 247/379/452 252/30/452 253/32/452
f 206/385/453 261/538/453 260/386/453
f 36/254/454 302/253/454 328/300/454
f 151/34/455 31/33/455 257/389/455
f 249/539/456 255/540/456 254/541/456
f 205/101/457 150/506/457 151/102/457
f 255/540/458 168/363/458 254/541/458
f 58/97/38 49/302/38 61/98/38
f 255/540/459 188/364/459 168/363/459
f 209/440/460 154/4/460 153/3/460
f 104/132/33 97/133/33 41/132/33
f 328/300/461 311/255/461 263/257/461
f 265/542/462 260/351/462 266/350/462
f 261/543/463 264/544/463 267/349/463
f 336/65/26 346/72/26 453/72/26
f 258/390/464 257/389/464 262/398/464
f 315/217/85 341/47/85 408/217/85
f 251/371/465 248/545/465 256/546/465
f 256/546/466 255/372/466 251/371/466
f 249/547/467 250/370/467 255/372/467
f 60/187/38 51/99/38 61/98/38
f 196/45/468 141/178/468 157/46/468
f 256/505/469 248/548/469 253/549/469
f 70/308/33 100/345/33 69/308/33
f 98/33/33 94/33/33 95/36/33
f 84/19/33 276/215/33 277/215/33
f 212/530/470 157/550/470 225/531/470
f 203/202/471 210/203/471 322/465/471
f 75/14/33 80/2/33 79/14/33
f 56/408/33 55/416/33 58/97/33
f 199/313/472 144/15/472 209/440/472
f 6/551/27 177/551/27 64/551/27
f 64/551/16 59/551/16 6/551/16
f 391/96/473 401/246/473 389/94/473
f 410/258/474 403/255/474 465/6/474
f 219/552/475 198/163/475 216/473/475
f 437/477/84 351/213/84 320/213/84
f 294/185/328 388/185/328 454/73/328
f 216/473/476 158/553/476 219/552/476
f 285/166/16 280/166/16 282/109/16
f 258/453/477 264/554/477 261/486/477
f 440/69/28 444/68/28 310/68/28
f 286/53/33 288/88/33 274/88/33
f 224/533/478 180/206/478 223/205/478
f 343/422/21 323/160/21 24/159/21
f 320/127/479 298/420/479 8/110/479
f 141/178/480 321/492/480 340/423/480
f 340/423/481 320/127/481 9/144/481
f 8/110/482 9/144/482 320/127/482
f 318/425/483 18/211/483 19/137/483
f 381/399/484 369/107/484 370/400/484
f 64/458/27 177/456/27 63/458/27
f 342/428/485 316/433/485 170/292/485
f 386/250/486 385/397/486 392/414/486
f 378/122/1 322/122/1 382/121/1
f 217/517/487 162/513/487 181/514/487
f 479/504/488 478/555/488 291/488/488
f 173/74/489 470/556/489 476/466/489
f 316/433/490 310/284/490 265/434/490
f 312/335/491 70/308/491 18/211/491
f 421/510/339 328/510/339 302/511/339
f 321/64/26 336/65/26 429/65/26
f 302/511/392 293/269/392 393/511/392
f 274/88/21 270/87/21 116/142/21
f 449/275/22 475/55/22 292/275/22
f 473/388/492 472/557/492 249/376/492
f 345/437/493 344/558/493 305/306/493
f 337/438/494 164/445/494 165/378/494
f 330/449/495 183/443/495 245/450/495
f 301/498/496 292/396/496 168/447/496
f 46/508/21 103/120/21 123/125/21
f 331/452/497 244/451/497 238/512/497
f 312/335/498 156/336/498 100/345/498
f 385/397/499 427/481/499 436/395/499
f 472/557/492 167/377/492 249/376/492
f 85/52/33 86/23/33 91/52/33
f 47/415/33 49/302/33 58/97/33
f 59/475/33 113/210/33 64/475/33
f 438/207/36 353/93/36 318/93/36
f 292/396/500 335/387/500 254/435/500
f 380/106/501 365/337/501 366/76/501
f 299/430/502 295/169/502 234/448/502
f 408/217/85 343/493/85 315/217/85
f 298/420/503 155/26/503 23/25/503
f 377/85/504 359/336/504 358/18/504
f 61/98/27 66/98/27 171/186/27
f 267/329/505 264/529/505 207/330/505
f 404/208/121 313/208/121 455/296/121
f 219/341/506 213/343/506 218/524/506
f 335/80/22 292/275/22 475/55/22
f 429/409/507 453/191/507 413/128/507
f 391/96/508 430/307/508 433/168/508
f 381/134/48 374/198/48 329/134/48
f 449/275/22 436/54/22 475/55/22
f 303/507/73 295/184/73 433/507/73
f 433/507/73 295/184/73 434/184/73
f 301/276/22 450/276/22 292/275/22
f 101/404/16 24/159/16 88/159/16
f 393/253/509 386/250/509 392/414/509
f 348/441/510 313/193/510 200/442/510
f 166/198/48 329/134/48 374/198/48
f 278/53/33 286/53/33 274/88/33
f 200/442/511 145/424/511 246/525/511
f 194/401/512 212/530/512 224/402/512
f 400/478/513 398/463/513 399/222/513
f 435/495/287 469/495/287 436/496/287
f 133/171/330 127/170/330 132/82/330
f 204/373/514 149/332/514 251/470/514
f 211/177/1 156/176/1 379/177/1
f 113/210/515 123/125/515 136/209/515
f 33/75/488 479/504/488 291/488/488
f 477/467/516 476/466/516 469/89/516
f 356/417/517 355/420/517 351/127/517
f 351/127/518 437/423/518 413/128/518
f 354/192/519 353/425/519 438/365/519
f 97/133/139 29/534/139 149/332/139
f 72/144/33 73/11/33 77/11/33
f 256/505/520 253/549/520 150/506/520
f 104/132/33 41/132/33 113/210/33
f 230/353/521 236/352/521 228/559/521
f 382/203/522 360/26/522 356/417/522
f 38/476/78 42/199/78 177/201/78
f 371/331/523 367/152/523 368/334/523
f 405/42/499 436/395/499 427/481/499
f 280/166/21 111/83/21 127/170/21
f 360/461/1 382/121/1 210/121/1
f 275/86/27 284/86/27 278/53/27
f 259/391/524 169/362/524 189/392/524
f 295/184/73 299/183/73 434/184/73
f 261/543/525 267/349/525 260/351/525
f 149/332/139 204/373/139 173/74/139
f 64/407/27 269/407/27 6/406/27
f 113/210/33 41/132/33 64/475/33
f 97/133/33 104/132/33 94/33/33
f 361/16/526 375/194/526 455/441/526
f 455/441/527 363/443/527 361/16/527
f 358/18/528 354/192/528 375/194/528
f 406/43/529 384/488/529 383/41/529
f 323/149/59 343/148/59 416/149/59
f 407/454/530 461/500/530 463/455/530
f 439/259/531 410/258/531 408/118/531
f 314/43/532 293/250/532 34/252/532
f 403/255/533 460/479/533 465/6/533
f 421/300/534 467/462/534 462/301/534
f 38/476/21 39/63/21 42/199/21
f 376/190/535 413/128/535 453/191/535
f 65/187/27 60/187/27 153/3/27
f 396/358/536 397/244/536 448/437/536
f 412/158/537 416/160/537 415/298/537
f 228/560/538 236/197/538 233/196/538
f 448/437/539 397/244/539 431/483/539
f 430/307/540 395/306/540 447/558/540
f 447/558/541 448/437/541 430/307/541
f 394/66/27 304/66/27 395/67/27
f 426/241/542 424/240/542 423/484/542
f 430/307/543 391/96/543 394/95/543
f 453/191/544 454/311/544 388/189/544
f 99/36/33 95/36/33 129/471/33
f 431/483/545 432/243/545 426/241/545
f 426/241/546 425/485/546 431/483/546
f 428/482/547 427/481/547 385/397/547
f 191/278/27 208/333/27 60/187/27
f 418/489/548 419/239/548 411/297/548
f 456/487/549 457/225/549 412/158/549
f 412/158/550 411/297/550 456/487/550
f 424/240/551 419/239/551 418/489/551
f 393/253/552 392/414/552 464/490/552
f 66/98/16 61/98/16 81/221/16
f 451/452/553 423/484/553 364/491/553
f 418/489/554 364/491/554 423/484/554
f 411/297/555 415/298/555 368/334/555
f 392/414/556 385/397/556 449/396/556
f 389/56/23 296/56/23 394/57/23
f 405/42/557 383/41/557 435/89/557
f 372/295/558 407/454/558 441/428/558
f 409/7/559 440/433/559 407/454/559
f 400/478/560 391/96/560 443/430/560
f 418/489/561 411/297/561 362/17/561
f 398/463/562 400/478/562 374/289/562
f 402/494/563 420/413/563 445/384/563
f 50/38/38 51/99/38 60/187/38
f 413/128/564 414/492/564 429/409/564
f 415/298/565 407/454/565 372/295/565
f 398/463/566 374/289/566 370/400/566
f 358/18/567 375/194/567 361/16/567
f 355/214/84 298/214/84 320/213/84
f 336/409/568 321/492/568 141/178/568
f 213/343/569 195/522/569 218/524/569
f 425/485/570 423/484/570 451/452/570
f 430/307/571 425/485/571 452/444/571
f 409/7/572 402/494/572 444/284/572
f 326/165/66 349/164/66 419/165/66
f 358/18/573 357/335/573 353/425/573
f 60/187/33 65/187/33 80/2/33
f 74/141/33 75/14/33 79/14/33
f 415/298/574 466/117/574 459/116/574
f 33/75/575 173/74/575 476/466/575
f 466/117/576 442/422/576 408/118/576
f 464/490/577 392/414/577 420/413/577
f 461/500/578 408/118/578 410/258/578
f 462/301/579 467/462/579 420/413/579
f 465/6/580 402/494/580 409/7/580
f 396/282/27 306/282/27 397/439/27
f 461/500/581 459/116/581 408/118/581
f 467/462/582 464/490/582 420/413/582
f 433/507/60 446/459/60 303/507/60
f 463/455/583 468/5/583 409/7/583
f 462/301/584 420/413/584 402/494/584
f 465/6/585 460/479/585 402/494/585
f 472/54/586 473/54/586 471/54/586
f 477/467/587 478/468/587 479/468/587
f 470/90/588 472/561/588 471/91/588
f 476/466/516 470/556/516 469/89/516
f 472/557/589 470/90/589 167/377/589
f 379/177/1 371/173/1 211/177/1
