# Blender v2.76 (sub 0) OBJ File: 'maint2_3d.blend'
# www.blender.org
v 0.520105 -1.280000 0.119891
v 0.520105 -1.260000 0.312797
v 0.520105 -1.280000 0.539852
v 0.520105 -1.260000 0.239845
v 0.520105 -1.280000 0.499669
v 0.520105 -1.280000 0.221403
v 0.520105 -1.280000 0.479769
v 0.520105 -1.280000 0.199783
v 0.520105 -1.280000 0.440137
v 0.520105 -1.280000 0.130010
v 0.520105 -1.280000 0.411807
v 0.520105 -1.280000 0.559661
v -0.520175 -1.260000 0.239845
v -0.520175 -1.260000 0.312797
v 1.200001 -1.280000 0.559661
v 1.200001 -1.280000 0.312797
v 1.200001 -1.280000 0.119891
v -0.960020 -1.280000 0.559661
v -0.960021 -1.280000 0.119891
v 1.280000 -1.280000 -1.280000
v 1.280000 -1.280000 1.280000
v 1.280000 -1.280000 1.020639
v 1.280000 -1.255285 1.072511
v 1.280000 -1.240000 1.124384
v 1.280000 -1.240000 1.176256
v 1.280000 -1.255285 1.228128
v 1.280000 -1.280000 0.585918
v 1.280000 -1.280000 0.672862
v 1.280000 -1.254229 0.759807
v 1.280000 -1.240000 0.846751
v 1.280000 -1.254229 0.933695
v 1.280000 -1.280000 -1.133487
v 1.280000 -1.280000 -0.079959
v 1.280000 -1.200000 -1.119868
v 1.280000 -1.200000 -0.359975
v 1.280000 -1.244637 0.440360
v 1.280000 -1.280000 0.120114
v 1.280000 -1.280000 0.559884
v 1.280000 -1.200000 0.119891
v 1.280000 -1.200000 0.539852
v 1.280000 -1.200000 0.559661
v 1.280000 -1.280000 -0.962067
v 1.280000 -1.280000 -1.047777
v -1.280000 -1.280000 -1.047777
v -1.280000 -1.280000 -0.962067
v -1.280000 -1.200000 0.559661
v -1.280000 -1.200000 0.119891
v -1.280000 -1.280000 0.559884
v -1.280000 -1.280000 0.120114
v -1.280000 -1.244637 0.440360
v -1.280000 -1.200000 -1.119868
v -1.280000 -1.200000 -0.359975
v -1.280000 -1.280000 -0.079959
v -1.280000 -1.280000 -1.133487
v -1.280000 -1.254229 0.933695
v -1.280000 -1.240000 0.846751
v -1.280000 -1.254229 0.759807
v -1.280000 -1.280000 0.672862
v -1.280000 -1.280000 0.585918
v -1.280000 -1.255285 1.228128
v -1.280000 -1.240000 1.176256
v -1.280000 -1.240000 1.124384
v -1.280000 -1.255285 1.072511
v -1.280000 -1.280000 1.020639
v -1.280000 -1.280000 1.280000
v -1.280000 -1.280000 -1.280000
v 0.520105 -1.289726 0.846751
v 0.520105 -1.206611 -1.119868
v 0.520105 -1.315941 -0.810763
v 0.520105 -1.205542 -0.340577
v 0.520105 -1.283676 -1.133487
v 0.520105 -1.297508 -0.872584
v 0.520105 -1.200000 -0.359975
v 0.520105 -1.280000 -1.211796
v 0.520105 -1.279487 -0.934405
v 0.520105 -1.285322 -0.620061
v 0.520105 -1.280000 0.038839
v 0.520105 -1.280000 1.020639
v 0.520105 -1.249210 -0.996226
v 0.520105 -1.308160 -0.687121
v 0.520105 -1.303955 0.933695
v 0.520105 -1.211084 -1.058047
v 0.520105 -1.325427 -0.748942
v -0.520175 -1.281617 -1.211796
v -0.520175 -1.293857 -0.340577
v -0.520175 -1.258525 -1.058047
v -0.520175 -1.280000 1.020639
v -0.520175 -1.290134 -1.133487
v -0.520175 -1.280000 -1.280000
v -0.520175 -1.280000 0.672862
v -0.520175 -1.288315 -0.359975
v -0.520175 -1.211688 -1.119868
v 1.200001 -1.200000 -0.620061
v 1.200001 -1.200000 -0.687121
v 1.200001 -1.200000 -0.748942
v 1.200001 -1.200000 -0.810763
v 1.200001 -1.200000 -0.996226
v 1.200001 -1.200000 -1.058047
v 1.200001 -1.200000 -1.119868
v 1.200001 -1.280000 -1.133487
v -0.960020 -1.200000 0.559661
v -0.960021 -1.205542 -0.340577
v -0.960020 -1.280000 -1.211796
v -0.960020 -1.200000 -1.058047
v -0.960021 -1.200000 0.119891
v -0.960020 -1.200000 -1.119868
v -0.960021 -1.200000 -0.359975
v -0.960020 -1.280000 -1.133487
v -0.960021 -1.280000 1.020639
v -0.960020 -1.280000 0.672862
v 1.200001 -1.280000 1.020639
v 1.200001 -1.280000 0.672862
v 0.520105 -1.256265 -0.559864
v -0.520175 -1.275102 -0.559864
v 1.200001 -1.200000 -0.559864
v 1.280000 -1.276164 -1.022911
v -1.280000 -1.276164 -1.022911
v 0.520105 -1.212051 -1.040390
v -0.520175 -1.268242 -1.040390
v 1.200001 -1.200000 -1.040390
v 0.075541 -1.298141 0.119891
v 0.075541 -1.277311 0.312797
v 0.075541 -1.289678 0.539852
v 0.075541 -1.287311 0.239845
v 0.075541 -1.295180 0.499669
v 0.075541 -1.305547 0.221403
v 0.075541 -1.297261 0.479769
v 0.075541 -1.304340 0.199783
v 0.075541 -1.300772 0.440137
v 0.075541 -1.299060 0.130010
v 0.075541 -1.302918 0.411807
v 0.075541 -1.285110 0.559661
v 0.075541 -1.200000 -1.119868
v 0.075541 -1.250899 -0.340577
v 0.075541 -1.280000 -1.133487
v 0.075541 -1.252803 -0.359975
v 0.075541 -1.204078 -0.934405
v 0.075541 -1.308650 -0.620061
v 0.075541 -1.287319 0.038839
v 0.075541 -1.285953 -0.687121
v 0.075541 -1.280000 -0.052554
v 0.075541 -1.200000 -1.058047
v 0.075541 -1.200000 -1.040390
v -0.380137 -1.228995 -1.040390
v -0.380137 -1.250000 0.312797
v -0.380137 -1.260000 0.239845
v -0.380137 -1.209368 -1.119868
v -0.380137 -1.303607 -0.340577
v -0.380137 -1.287611 -1.133487
v -0.380137 -1.299038 -0.359975
v -0.380137 -1.280000 -1.211796
v -0.380137 -1.221568 -1.058047
v -0.960020 -1.200000 -0.810763
v -0.520175 -1.325427 -0.810763
v -0.520175 -1.308160 -0.934405
v -0.960020 -1.200000 -0.620061
v -0.520175 -1.274237 -0.620061
v -0.520175 -1.308160 -0.748942
v -0.520175 -1.325427 -0.872584
v -0.960020 -1.200000 -0.996226
v -0.520175 -1.287339 -0.996226
v -0.960020 -1.200000 -0.687121
v -0.520175 -1.287339 -0.687121
v -0.960020 -1.200000 -0.559864
v -0.380137 -1.298758 -0.559864
v -0.380137 -1.305850 -0.810763
v 0.075541 -1.224649 -0.810763
v -0.380137 -1.290253 -0.872584
v 0.075541 -1.209567 -0.872584
v -0.380137 -1.275227 -0.934405
v -0.380137 -1.306563 -0.620061
v -0.380137 -1.257697 -0.996226
v 0.075541 -1.200000 -0.996226
v -0.380137 -1.325427 -0.687121
v -0.380137 -1.316967 -0.748942
v 0.075541 -1.262375 -0.748942
v 0.075541 -1.325427 -0.559864
v -0.256030 -1.280000 0.119891
v -0.256030 -1.250000 0.312797
v -0.256030 -1.280000 0.539852
v -0.256030 -1.260000 0.239845
v -0.256030 -1.280000 0.499669
v -0.256030 -1.280000 0.221403
v -0.256030 -1.280000 0.479769
v -0.256030 -1.280000 0.199783
v -0.256030 -1.280000 0.440137
v -0.256030 -1.280000 0.130010
v -0.256030 -1.280000 0.411807
v -0.256030 -1.280000 0.559661
v -0.256030 -1.200000 -1.119868
v -0.256030 -1.312258 -0.340577
v -0.256030 -1.280000 -1.133487
v -0.256030 -1.312815 -0.359975
v -0.256030 -1.280000 0.038839
v -0.256030 -1.206059 -1.058047
v -0.256030 -1.207050 -1.040390
v -0.256030 -1.275530 -0.810763
v -0.256030 -1.249495 -0.872584
v -0.256030 -1.211979 -0.934405
v -0.256030 -1.325427 -0.620061
v -0.256030 -1.208997 -0.996226
v -0.256030 -1.306563 -0.687121
v -0.256030 -1.292923 -0.748942
v -0.256030 -1.313300 -0.559864
v -0.256030 -1.280000 1.020639
v -0.256030 -1.280000 0.672862
v -0.520175 -1.289935 -0.160378
v -0.960021 -1.257024 -0.160378
v 0.075541 -1.259949 -0.160378
v -0.380137 -1.291238 -0.160378
v -0.256030 -1.260755 -0.160378
v -0.520175 -1.268512 -0.120169
v -0.960021 -1.268512 -0.120169
v 0.075541 -1.268512 -0.120169
v -0.380137 -1.268512 -0.120169
v 0.075541 -1.280000 0.672862
v 0.075541 -1.280000 1.020639
v 1.183004 -1.280000 0.119891
v 1.183004 -1.280000 0.559661
v 1.183004 -1.200000 0.119891
v 1.183004 -1.200000 0.539852
v 1.183004 -1.200000 0.559661
v -0.718951 -1.280000 0.221403
v -0.730457 -1.280000 0.239845
v -0.775975 -1.280000 0.312797
v -0.718951 -1.280000 0.411807
v 0.654584 -1.280000 0.411807
v 0.642187 -1.280000 0.221403
v 0.664218 -1.280000 0.239845
v 0.716566 -1.280000 0.312797
v 0.716566 -1.280000 0.350604
v -0.520175 -1.260000 0.350604
v -0.380137 -1.260000 0.350604
v -0.256030 -1.260000 0.350604
v 0.520105 -1.260000 0.350604
v -0.754200 -1.280000 0.350604
v 0.075541 -1.287311 0.350604
v -0.579388 -1.235406 -0.559864
v 0.794424 -1.236864 -0.748942
v -0.691746 -1.246170 -0.340577
v 0.298881 -1.213984 -0.340577
v -0.725052 -1.210648 -1.040390
v 0.835839 -1.211909 -0.810763
v 0.264607 -1.206594 -0.996226
v -0.872858 -1.200000 -0.872584
v -0.520175 -1.277244 -1.021098
v -0.565866 -1.286796 -0.160378
v -0.690778 -1.241053 -0.359975
v 0.877253 -1.208845 -0.872584
v -0.827874 -1.207526 -0.810763
v -0.805388 -1.207243 -0.996226
v 0.170074 -1.208274 -0.934405
v 0.392356 -1.249104 -0.934405
v -0.380137 -1.252449 -1.007912
v -0.737905 -1.211511 -0.687121
v 0.630277 -1.267357 -0.620061
v 0.574436 -1.286839 -0.934405
v 0.847263 -1.209439 -0.934405
v -0.917843 -1.200000 -0.934405
v 0.318451 -1.209241 -0.359975
v 0.628767 -1.256332 -0.996226
v 0.817274 -1.208843 -0.996226
v 0.753010 -1.246319 -0.687121
v -0.090244 -1.200000 -0.934405
v -0.782889 -1.210329 -0.748942
v -0.654372 -1.220982 -0.620061
v 0.311734 -1.228214 -0.261222
v 0.418839 -1.234334 -0.239800
v -0.695062 -1.257092 -0.274074
v 0.199574 -1.325427 -0.620061
v -0.380137 -1.302569 -0.276056
v -0.256030 -1.312939 -0.353353
v 0.592506 -1.325427 -0.810763
v -0.245396 -1.314227 -0.359975
v -0.276543 -1.299582 -0.340577
v 0.719884 -1.280198 -0.872584
v 0.337748 -1.325427 -0.687121
v 0.465127 -1.325427 -0.748942
v -0.520175 -1.295195 -0.188836
v 0.221363 -1.257024 -0.160378
v -0.677556 -1.248379 -0.996226
v -0.380137 -1.316666 -0.719675
v -0.094421 -1.325427 -0.454007
v -0.345126 -1.325427 -0.687121
v -0.611070 -1.292394 -0.934405
v 0.075541 -1.240032 -0.295969
v 0.027568 -1.274636 -0.340577
v -0.411612 -1.325427 -0.748942
v -0.478098 -1.325427 -0.810763
v -0.208266 -1.325427 -0.559864
v -0.544584 -1.318921 -0.872584
v 0.006705 -1.281645 -0.359975
v -0.273006 -1.325427 -0.620061
v 0.703391 -1.254229 0.933695
v 0.591886 -1.254229 0.759807
v 0.683869 -1.240000 0.846751
v 0.250805 -1.254229 0.933695
v 0.360335 -1.254229 0.759807
v 0.361001 -1.280000 1.020639
v 0.227425 -1.240000 0.846751
v 0.678036 -1.245641 0.812288
v 0.291135 -1.268916 0.331132
v 0.101579 -1.276297 0.315011
v 0.154644 -1.298840 0.411807
v 0.152252 -1.298904 0.239845
v 0.277569 -1.274900 0.239845
v 0.287851 -1.274268 0.350604
v 0.121064 -1.302016 0.350604
v 0.239060 -1.310218 0.373116
v 0.124943 -1.303679 0.357405
v 0.106234 -1.286473 0.307760
v 0.305261 -1.268366 0.275100
v 0.102991 -1.276242 0.312797
v 0.295758 -1.268736 0.312797
v 0.195544 -1.332349 0.312797
v 0.202413 -1.327789 0.323587
v 0.184214 -1.325510 0.294964
v 0.222110 -1.320342 0.350604
vt 0.875008 0.898687
vt 1.000000 0.898687
vt 1.000000 0.918950
vt 0.875008 0.718617
vt 0.780840 0.660862
vt 0.794609 0.636955
vt 0.037889 0.718617
vt 0.037889 0.546832
vt 0.031250 0.622186
vt 0.875008 0.183296
vt 0.875008 0.231593
vt 0.823388 0.183296
vt 0.648491 0.593689
vt 0.703193 0.622186
vt 0.648491 0.622186
vt 0.648491 0.636955
vt 0.785335 0.593689
vt 0.703193 0.593689
vt 0.703193 0.636955
vt 0.470492 0.898687
vt 0.358984 0.898687
vt 0.402029 0.864724
vt -0.001575 0.672016
vt -0.001575 0.718705
vt -0.001575 0.728874
vt 0.000000 0.468766
vt 0.413530 0.437352
vt 0.470492 0.453059
vt 1.000000 0.062552
vt 0.875008 0.281303
vt 0.875008 0.257789
vt 1.000000 0.359385
vt 0.780840 0.586486
vt 0.600012 0.586486
vt 0.244303 0.660862
vt 0.296834 0.671928
vt 0.296834 0.687410
vt 0.470492 0.057232
vt 0.600012 0.057232
vt 0.600012 0.062552
vt 0.235142 0.817300
vt 0.232864 0.830762
vt 0.000000 0.796799
vt 1.000000 0.100425
vt 1.000000 0.124192
vt 1.000000 0.796799
vt 1.000000 0.864724
vt 0.997500 0.728874
vt 0.997500 0.718705
vt 0.997500 0.672016
vt 0.470492 0.062552
vt 0.296834 0.062552
vt 0.470492 0.479471
vt 1.000000 0.468766
vt 0.600012 0.515172
vt 0.031250 0.062552
vt 0.031250 0.086700
vt 0.000000 0.062552
vt 0.037889 0.710880
vt 1.000000 0.057232
vt 1.000000 0.090712
vt 0.000000 0.359385
vt 0.031250 0.257789
vt 0.031250 0.281303
vt 0.225238 0.864724
vt 0.296834 0.898687
vt 0.031250 0.898687
vt 0.875008 0.110849
vt 0.814605 0.110849
vt 0.875008 0.086700
vt 0.470492 0.593689
vt 0.600012 0.593689
vt 0.470492 0.622186
vt 0.253798 0.257789
vt 0.296834 0.281303
vt 0.205855 0.231593
vt 0.031250 0.231593
vt 0.189678 0.207445
vt 0.031250 0.207445
vt 0.173501 0.183296
vt 0.031250 0.183296
vt 0.157323 0.159147
vt 0.600012 0.437352
vt 0.648491 0.453059
vt 0.031250 0.110849
vt 0.875008 0.453059
vt 0.875008 0.437352
vt 0.296834 0.086700
vt 0.875008 0.546832
vt 0.803115 0.622186
vt 0.031250 0.057232
vt 0.296834 0.026642
vt 0.296834 0.057232
vt 1.000000 0.939212
vt 1.000000 0.959475
vt 0.000000 0.959475
vt 0.249146 0.586486
vt 0.240540 0.593689
vt 0.031250 0.546832
vt 0.029268 0.492266
vt 0.029268 0.492353
vt 0.060517 0.492266
vt 0.648491 0.359385
vt 0.703193 0.366962
vt 0.648491 0.366962
vt 0.000000 0.918950
vt 0.703193 0.026642
vt 0.648491 0.057232
vt 0.648491 0.026642
vt 0.296834 0.864724
vt 0.470492 0.762837
vt 0.600012 0.762837
vt 0.359244 0.796799
vt 0.875008 0.762837
vt 0.703193 0.062552
vt 0.648491 0.086700
vt 0.648491 0.062552
vt 0.648491 0.281303
vt 0.703193 0.359385
vt 0.411162 0.830762
vt 0.296834 0.830762
vt 0.180753 0.110849
vt 0.031250 0.093598
vt 0.296834 0.515172
vt 0.726323 0.281303
vt 0.703193 0.281303
vt 0.703193 0.086700
vt 0.220091 0.622186
vt 0.296834 0.695183
vt 0.703193 0.000000
vt 0.875008 0.026642
vt 0.875008 0.057232
vt 0.703193 0.057232
vt 0.296834 0.718617
vt 0.031250 0.762837
vt 0.000000 0.762837
vt 0.703193 0.762837
vt 0.600012 0.695183
vt 0.600012 0.687410
vt 0.703193 0.898687
vt 0.600012 0.898687
vt 0.703193 0.183296
vt 0.703193 0.159147
vt 0.712728 0.159147
vt 0.296834 0.183296
vt 0.318310 0.207445
vt 0.268552 0.183296
vt 0.600012 0.660862
vt 0.000000 0.709255
vt 0.000000 0.705243
vt 0.037889 0.705243
vt 0.268795 0.796799
vt 0.000000 0.124192
vt 0.384470 0.622186
vt 0.386275 0.629348
vt 0.296834 0.636955
vt 0.600012 0.622186
vt 0.296834 0.660862
vt 1.000000 0.762837
vt 0.783224 0.093598
vt 0.648491 0.093598
vt 0.296834 0.093598
vt 0.254388 0.110849
vt 0.000000 0.864724
vt 0.000000 0.898687
vt 0.000000 0.830762
vt 0.470492 0.093598
vt 0.422041 0.257789
vt 0.296834 0.257789
vt 0.296834 0.110849
vt 0.346736 0.134998
vt 0.296834 0.134998
vt 0.470492 0.281303
vt 0.375605 0.359385
vt 0.396638 0.110849
vt 0.368067 0.231593
vt 0.296834 0.231593
vt 0.470492 0.515172
vt 0.296834 0.546832
vt 0.470492 0.086700
vt 0.296834 0.207445
vt 0.067157 0.492266
vt 0.470492 0.183296
vt 0.600012 0.636955
vt 0.296834 0.159147
vt 0.296834 0.366962
vt 0.296834 0.359385
vt 0.460321 0.623051
vt 0.459769 0.622186
vt 0.296834 0.622186
vt 0.380757 0.607461
vt 0.296834 0.710880
vt 0.470492 0.718617
vt 0.440526 0.593689
vt 0.296834 0.593689
vt 0.470492 0.710880
vt 0.470492 0.578040
vt 0.296834 0.586486
vt 0.296834 0.578040
vt 0.470492 0.695183
vt 0.470492 0.550785
vt 0.296834 0.550785
vt 0.470492 0.687410
vt 0.470492 0.546832
vt 0.470492 0.671928
vt 0.600012 0.093598
vt 0.600012 0.086700
vt 0.769835 0.359385
vt 0.770213 0.366962
vt 0.336391 0.406328
vt 0.608025 0.366962
vt 0.600012 0.359385
vt 0.686757 0.183296
vt 0.703193 0.134998
vt 0.648491 0.159147
vt 0.648491 0.134998
vt 0.648491 0.183296
vt 0.660786 0.207445
vt 0.648491 0.207445
vt 0.648491 0.218877
vt 0.703193 0.231593
vt 0.648491 0.257789
vt 0.648491 0.231593
vt 0.703193 0.093598
vt 0.648491 0.106284
vt 0.703193 0.110849
vt 0.648491 0.110849
vt 0.738699 0.134998
vt 0.703193 0.101134
vt 0.755614 0.257789
vt 0.703193 0.257789
vt 0.703193 0.207445
vt 0.788244 0.231593
vt 0.805816 0.207445
vt 0.600012 0.134998
vt 0.600012 0.110849
vt 0.600012 0.231593
vt 0.606643 0.257789
vt 0.600012 0.257789
vt 0.634815 0.231593
vt 0.600012 0.207445
vt 0.600012 0.183296
vt 0.600012 0.159147
vt 0.470492 0.134998
vt 0.535252 0.134998
vt 0.470492 0.159147
vt 0.470492 0.207445
vt 0.470492 0.231593
vt 0.470492 0.257789
vt 0.470492 0.110849
vt 0.581354 0.281303
vt 0.470492 0.660862
vt 0.600012 0.550785
vt 0.600012 0.671928
vt 0.600012 0.578040
vt 0.470492 0.586486
vt 0.600012 0.710880
vt 0.470492 0.359385
vt 0.489231 0.366962
vt 0.470492 0.366962
vt 1.000000 0.830762
vt 0.600012 0.546832
vt 0.536883 0.322654
vt -0.001575 0.710880
vt -0.001575 0.718617
vt 0.840960 0.159147
vt 0.858532 0.134998
vt 0.470492 0.384387
vt 0.648491 0.392166
vt 0.648491 0.437352
vt 0.000000 0.000000
vt 0.383250 0.366962
vt 0.000000 0.057232
vt -0.001575 0.546920
vt -0.001575 0.546832
vt 1.000000 0.979737
vt 0.771509 0.392940
vt 0.721042 0.437352
vt 0.703193 0.426236
vt 1.000000 0.728874
vt 1.000000 1.000000
vt 0.000000 1.000000
vt 0.000000 0.979737
vt 0.600012 0.281303
vt 1.000000 0.718705
vt 1.000000 0.000000
vt 0.470492 0.437352
vt 0.220091 0.636955
vt 0.600012 0.718617
vt 0.703193 0.437352
vt 0.703193 0.453059
vt 0.433565 0.134998
vt 0.000000 0.100425
vt 0.000000 0.090712
vt 0.037889 0.709255
vt 0.000000 0.728874
vt 0.000000 0.718705
vt 0.031250 0.718617
vt 0.069477 0.709244
vt 0.042469 0.709319
vt 0.042469 0.709244
vt 0.169038 0.134998
vt 1.000000 0.718617
vt 0.875008 0.062552
vt 0.470492 0.636955
vt 0.451194 0.639611
vt 0.452709 0.636955
vt 0.218795 0.159147
vt 0.275611 0.134998
vt 0.764670 0.110849
vt 0.875008 0.359385
vt 0.075215 0.709244
vt 0.875008 0.366962
vt 0.378229 0.397960
vt 0.595858 0.359385
vt 0.497381 0.359385
vt 0.600012 0.361972
vt 0.600012 0.366962
vt 0.439592 0.660862
vt 1.000000 0.546832
vt 0.648804 0.581557
vt 0.773795 0.581644
vt 0.000000 0.939212
vt 0.000000 0.546832
vt 0.997500 0.546832
vt 0.997500 0.546920
vt 1.000000 0.546920
vt 0.000000 0.546920
vt 0.997500 0.718617
vt 0.391574 0.593689
vt 0.000000 0.710880
vt 0.413238 0.636955
vt 0.387558 0.636955
vt 0.428041 0.615220
vt 0.423616 0.622186
vt 0.458502 0.620219
vt 0.406617 0.645748
vt 0.420932 0.626401
vn 0.000000 0.902800 -0.430100
vn 0.000000 1.000000 -0.000000
vn 0.000000 -1.000000 0.000000
vn 0.056900 0.998400 0.000000
vn -0.070600 0.988300 -0.135500
vn -0.068900 0.964500 0.255100
vn -0.094700 0.995500 0.000000
vn -0.085100 0.996400 0.000000
vn 0.000000 0.958800 0.284200
vn -1.000000 0.000000 0.000000
vn -0.000000 0.961500 0.274700
vn 0.000000 0.677900 -0.735200
vn 0.000000 0.167800 -0.985800
vn -0.000000 0.986900 -0.161500
vn 1.000000 0.000000 0.000000
vn 0.002500 0.167800 -0.985800
vn 0.046800 0.998900 0.000000
vn 0.081300 0.987500 -0.135400
vn -0.078200 0.945100 -0.317300
vn -0.116900 0.988500 0.096200
vn -0.102700 0.991300 0.082800
vn -0.085700 0.942500 0.323100
vn -0.032700 0.999100 0.027600
vn 0.000000 0.981900 0.189400
vn -0.027400 0.999600 0.000000
vn -0.016300 0.997300 0.072200
vn -0.005400 0.998900 0.046900
vn 0.002800 -0.002800 -1.000000
vn 0.067600 0.971100 0.228700
vn -0.011500 0.995200 0.096700
vn 0.000000 0.964100 -0.265600
vn 0.000000 0.958800 -0.284200
vn -0.016200 0.980900 0.193600
vn 0.076300 0.997100 0.001400
vn 0.166400 0.979300 0.115500
vn -0.017500 0.998700 0.048100
vn 0.556000 0.829400 0.054800
vn 0.105500 0.792600 0.600500
vn 0.003700 0.999700 0.023700
vn 0.022900 0.993900 0.108100
vn 0.257600 0.966300 0.000000
vn -0.012700 0.167800 -0.985700
vn 0.125500 0.957800 0.258600
vn 0.000000 0.950500 0.310600
vn -0.001600 0.167800 -0.985800
vn -0.038900 0.999200 0.000000
vn 0.000000 0.990700 -0.135800
vn 0.086200 0.648100 -0.756700
vn -0.236400 0.895700 0.376700
vn -0.131000 0.520200 0.844000
vn 0.027100 0.998100 0.054600
vn -0.112000 0.894900 -0.432000
vn 0.208900 0.878300 0.430100
vn -0.143300 0.921300 -0.361300
vn 0.027100 0.999100 0.033200
vn -0.089300 0.942800 -0.321100
vn -0.016500 0.999900 0.000000
vn 0.024900 0.997100 0.072100
vn 0.000000 0.963100 -0.269000
vn -0.000000 -0.000000 -1.000000
vn 0.191100 0.930400 0.312700
vn 0.000000 0.966800 0.255700
vn 0.008300 0.998900 0.046900
vn 0.193100 0.940300 0.280400
vn 0.222600 0.936000 0.272800
vn -0.044000 0.960600 0.274400
vn -0.011500 0.999900 0.000000
vn 0.000000 0.000000 1.000000
vn -0.021800 0.999800 0.000000
vn -0.054700 0.998500 0.000000
vn -0.034100 0.999400 0.000000
vn -0.042800 0.999100 0.000000
vn -0.038800 0.999200 0.000000
vn -0.040800 0.999200 0.000000
vn -0.046700 0.998900 0.000000
vn -0.123800 0.990700 0.055600
vn 0.257900 0.931000 0.258500
vn -0.074900 0.992400 0.097300
vn 0.096200 0.866700 -0.489500
vn -0.222800 0.947300 0.230200
vn -0.240300 0.956800 0.163600
vn -0.255700 0.951500 0.171100
vn -0.259600 0.965700 -0.010000
vn 0.253300 0.931200 -0.262000
vn -0.221600 0.790600 0.570900
vn -0.199500 0.942700 0.267300
vn 0.162200 0.935100 0.315000
vn 0.246900 0.878200 0.409800
vn 0.362900 0.914500 -0.178700
vn 0.313400 0.899900 -0.303100
vn 0.337600 0.906600 -0.253200
vn 0.248700 0.932900 0.260600
vn 0.000000 0.925800 0.378000
vn 0.556800 0.830600 0.011900
vn 0.223100 0.966700 -0.125300
vn -0.364900 0.930000 0.044800
vn -0.174000 0.983800 0.043400
vn 0.000000 0.962600 0.270800
vn -0.184900 0.954200 0.235300
vn -0.228900 0.937100 0.263600
vn -0.289700 0.882100 0.371500
vn -0.399400 0.783700 0.475600
vn 0.024500 0.995800 0.088400
vn -0.116200 0.964900 0.235400
vn -0.129900 0.846400 0.516500
vn -0.085800 0.930900 0.355000
vn -0.058800 0.945600 0.320000
vn -0.021300 0.999800 0.000000
vn 0.024500 0.997500 0.065800
vn -0.050500 0.997900 0.040100
vn 0.068800 0.994800 -0.075300
vn 0.057200 0.994300 0.090200
vn 0.062300 0.994200 -0.088100
vn 0.073000 0.994500 0.075300
vn 0.051700 0.993200 -0.103900
vn 0.076700 0.995500 0.055600
vn 0.045300 0.989700 -0.135500
vn 0.054700 0.710000 -0.702100
vn 0.028400 0.974000 -0.224600
vn -0.441800 0.892800 -0.087700
vn 0.022000 0.996600 0.079800
vn 0.054200 0.989700 0.132100
vn -0.018300 0.999800 0.000000
vn -0.433300 0.875700 -0.213300
vn -0.237500 0.966800 -0.094700
vn -0.037000 0.970100 0.240000
vn 0.198800 0.979600 0.030000
vn 0.069400 0.997500 -0.016000
vn 0.000000 0.902800 0.430100
vn 0.000000 0.959200 0.282600
vn 0.116400 0.993200 -0.002400
vn -0.003100 0.171000 -0.985300
vn -0.002400 0.978100 0.208300
vn 0.060500 0.880900 -0.469300
vn 0.008100 0.870600 -0.492000
vn -0.202500 0.956300 0.211000
vn 0.172900 0.941300 0.290000
vn -0.002800 0.002800 1.000000
vn -0.011500 0.998900 -0.045100
vn -0.026200 0.999700 0.003100
vn 0.000000 0.986900 0.161500
vn -0.002800 0.171500 -0.985200
vn 0.135600 0.977400 -0.162000
vn 0.137500 0.990500 0.000000
vn 0.306900 0.950000 0.057200
vn 0.066800 0.966800 0.246500
vn 0.258200 0.928900 0.265400
vn -0.162300 0.982000 -0.096400
vn -0.405600 0.894500 0.188100
vn 0.128800 0.952000 0.277500
vn 0.223600 0.903100 0.366600
vn 0.173200 0.942900 0.284600
vn 0.091900 0.988200 0.122300
vn 0.150700 0.988600 0.000000
vn -0.108000 0.897100 0.428500
vn -0.072000 0.996200 0.048000
vn -0.413900 0.887200 -0.203700
vn 0.182200 0.920900 0.344600
vn 0.044200 0.995100 0.088400
vn 0.000000 0.910300 -0.413900
vn 0.056700 0.995200 0.079900
vn -0.337000 0.858900 0.385700
vn 0.144600 0.954900 0.259200
vn -0.044100 0.961700 -0.270700
vn -0.247800 0.933100 -0.260600
vn -0.196200 0.894500 0.401700
vn 0.059000 0.998300 0.002300
vn 0.003900 0.171000 -0.985300
vn 0.044200 0.996900 0.065800
vn -0.152600 0.935500 -0.318600
vn 0.051700 0.998500 -0.018600
vn -0.145300 0.891000 -0.430100
vn -0.265700 0.936500 0.228700
vn 0.120600 0.891500 0.436600
vn -0.079300 0.975000 0.207500
vn 0.117300 0.954900 0.272800
vn 0.068400 0.996100 0.055500
vn 0.139300 0.925200 0.352900
vn 0.067400 0.981100 -0.181400
vn -0.121900 0.943500 -0.308200
vn 0.525100 0.849800 -0.045300
vn 0.129200 0.955200 0.266200
vn 0.127100 0.939500 0.318000
vn -0.038800 0.999100 -0.016100
vn -0.085900 0.991700 0.095600
vn 0.131600 0.991100 0.018500
vn -0.008300 0.995200 -0.097500
vn 0.124600 0.950800 0.283500
vn 0.000000 0.965600 0.259900
vn -0.002400 0.996700 -0.080600
vn 0.260100 0.956400 -0.132400
vn -0.019800 0.989200 0.145300
vn 0.266600 0.885200 0.381300
vn 0.357500 0.932900 -0.043000
vn 0.131600 0.991300 -0.002400
vn 0.170500 0.968200 -0.183300
vn 0.154900 0.973800 -0.166600
vn -0.051300 0.995800 -0.075400
vn -0.165000 0.950100 -0.264900
vn 0.340400 0.939600 0.037100
vn 0.275800 0.856900 0.435500
vn 0.087500 0.994800 -0.053000
vn 0.113300 0.967300 -0.226800
vn -0.253000 0.932700 -0.257000
vn -0.255900 0.943200 0.211800
vn -0.000700 0.000000 -1.000000
vn 0.003700 1.000000 0.000000
vn -0.077900 0.995800 -0.048600
vn -0.077900 0.996000 0.044800
vn 0.000000 0.959200 -0.282600
vn -0.094500 0.993800 -0.059000
vn 0.101300 0.994900 -0.000000
vn -0.202200 0.954900 0.217400
vn 0.004500 0.167800 -0.985800
vn -0.117400 0.993100 0.000000
vn -0.103100 0.994700 0.000000
vn -0.090500 0.995900 0.000000
vn -0.032700 0.999500 0.000000
vn -0.018900 0.998300 0.054600
vn -0.023100 0.999500 0.020800
vn -0.016300 0.999900 -0.000000
vn -0.009700 1.000000 0.000000
vn 0.073400 0.958900 0.274000
vn -0.011500 0.999700 0.023700
vn -0.017900 0.994000 0.108100
vn 0.181200 0.981500 0.061200
vn -0.205800 0.780000 0.591000
vn 0.166800 0.981500 0.094300
vn 0.166200 0.983900 0.065000
vn 0.179300 0.970900 0.158900
vn 0.262900 0.949100 0.173300
vn 0.026600 0.999600 0.000000
vn 0.000700 0.002800 1.000000
vn 0.237900 0.937000 -0.255900
vn -0.079400 0.959600 -0.270100
vn 0.239100 0.850700 0.468200
vn 0.044900 0.999000 0.004700
vn -0.238500 0.850800 0.468200
vn -0.023100 0.999700 0.000000
vn 0.050100 0.764200 0.643000
vn 0.079400 0.963700 0.254900
vn 0.024900 0.999700 -0.000000
vn -0.146500 0.942000 -0.302000
vn 0.155800 0.934400 0.320400
vn -0.166200 0.926800 -0.336700
vn 0.126600 0.759000 0.638600
vn 0.034900 0.999400 0.000000
vn -0.120300 0.961300 -0.247800
vn -0.040400 0.990400 0.132200
vn 0.014900 0.999900 0.000000
vn -0.092500 0.977300 -0.190700
vn -0.016400 0.996700 0.079800
vn 0.136900 0.845600 0.516000
vn 0.188700 0.954000 0.232700
vn -0.037300 0.978800 0.201600
vn -0.059300 0.965100 0.255300
vn -0.060800 0.988900 -0.135600
vn -0.021200 0.974200 -0.224700
vn -0.040800 0.710500 -0.702600
vn -0.033800 0.990200 -0.135600
vn -0.057300 0.996800 0.055700
vn -0.038600 0.993800 -0.103900
vn -0.054500 0.995700 0.075400
vn -0.046500 0.995000 -0.088200
vn -0.042700 0.995000 0.090300
vn -0.160900 0.909800 0.382700
vn -0.121700 0.973800 0.192200
vn -0.060900 0.993500 0.096600
vn 0.552400 0.833500 0.015500
vn -0.037800 0.972700 0.229100
vn -0.235100 0.936100 0.261500
vn -0.190200 0.951900 0.240100
vn -0.191800 0.959500 0.206200
vn 0.221000 0.957200 -0.187000
vn -0.196400 0.888600 0.414600
vn -0.217500 0.925000 0.311500
vn 0.220500 0.890900 0.397100
vn 0.317000 0.910300 -0.266300
vn 0.339600 0.912100 -0.229700
vn 0.349600 0.912400 -0.213000
vn 0.166200 0.958300 0.232400
vn 0.358900 0.904500 -0.230400
vn 0.166600 0.985900 0.014200
vn -0.440200 0.863800 0.245000
vn -0.321000 0.767800 0.554500
vn 0.110300 0.993900 0.001400
vn 0.251500 0.967800 -0.010000
vn -0.187300 0.966800 0.173900
vn -0.230500 0.943500 0.238000
vn -0.304000 0.925700 0.225000
vn -0.140000 0.912500 0.384300
vn -0.088300 0.958900 0.269800
vn -0.060600 0.974700 0.215100
vn -0.048600 0.961500 0.270500
vn -0.027100 0.998700 0.044000
vn -0.027100 0.997000 -0.072600
vn 0.000000 0.963300 0.268500
vn 0.062500 0.998000 0.000000
vn 0.054600 0.998500 0.000000
vn 0.052000 0.998600 0.000000
vn 0.057400 0.998400 0.000000
vn 0.045700 0.999000 0.000000
vn 0.073200 0.997300 0.000000
vn 0.029200 0.999600 0.000000
vn 0.055700 0.676800 -0.734000
vn 0.015400 0.999900 0.000000
vn -0.385100 0.919200 0.082100
vn -0.018200 0.995100 0.097500
vn 0.022100 0.999800 0.000000
vn -0.021200 0.998200 0.056000
vn 0.015400 0.998900 -0.045100
vn 0.510800 0.826600 -0.236300
vn -0.147700 0.970200 -0.192200
vn 0.021600 0.984700 0.173100
vn 0.000000 -0.002800 -1.000000
vn 0.208900 0.977900 0.008600
vn 0.263900 0.949600 0.169100
vn 0.058000 0.998300 0.008800
vn -0.209100 0.851300 -0.481200
vn 0.000000 0.882600 -0.470200
vn -0.010500 0.171500 -0.985100
vn 0.100700 0.989700 0.102000
vn 0.101000 0.992200 -0.072500
vn -0.085000 0.995200 0.049000
vn 0.275900 0.931400 0.237500
vn 0.078100 0.947600 0.309700
vn -0.176200 0.982400 0.062400
vn 0.230900 0.848300 0.476500
vn 0.068500 0.997700 0.000000
vn 0.092300 0.992600 0.079500
vn -0.061700 0.853300 0.517800
vn -0.402300 0.887300 -0.225500
vn 0.072400 0.959000 0.274000
vn 0.046800 0.998400 -0.031900
vn -0.289100 0.895400 -0.338600
vn -0.421300 0.903200 0.082300
vn -0.019600 0.977900 0.208200
vn 0.145100 0.951400 0.271800
vn -0.306700 0.949900 -0.060200
vn -0.192500 0.909300 0.369000
vn 0.000000 0.182500 -0.983200
vn 0.034700 0.996200 0.080200
vn -0.253100 0.953400 -0.164200
vn -0.242300 0.961900 0.126800
vn 0.057300 0.874400 0.481800
vn -0.076700 0.979200 0.188000
vn -0.158600 0.959300 -0.233700
vn 0.074200 0.982200 0.172300
vn 0.147600 0.974800 0.167400
vn 0.051800 0.998700 0.000000
vn 0.151800 0.937700 0.312700
vn 0.142300 0.945400 0.293300
vn -0.240300 0.846900 0.474300
vn 0.009100 0.983300 -0.181800
vn -0.075600 0.872600 0.482600
vn -0.647100 0.754300 0.110800
vn -0.126500 0.953800 -0.272600
vn -0.454600 0.860100 0.231500
vn 0.149000 0.937100 -0.315600
vn 0.289300 0.899000 0.328900
vn 0.337600 0.932000 -0.132200
vn 0.044300 0.997900 -0.047700
vn 0.246100 0.969200 -0.008600
vn 0.000000 0.962600 -0.270800
vn -0.366400 0.874500 -0.317700
vn 0.282200 0.937100 -0.205400
vn -0.128500 0.968800 -0.211800
vn -0.126300 0.977600 -0.168500
vn 0.172000 0.976900 -0.126700
vn -0.288900 0.951400 -0.106800
vn -0.220900 0.953100 0.206700
vn -0.287000 0.945300 0.154700
vn 0.176800 0.974600 0.137400
vn -0.058300 0.948900 0.310100
vn -0.446400 0.703300 0.553300
vn -0.017000 0.437300 -0.899200
vn 0.074400 0.988900 -0.128600
vn -0.047700 0.925300 -0.376200
vn 0.392900 0.833900 0.387500
vn -0.059300 0.965100 0.255200
vn 0.426400 0.703400 -0.568700
vn -0.402200 0.903500 0.148400
vn 0.263800 0.955700 -0.131000
vn -0.535900 0.844200 -0.015600
vn 0.300900 0.496300 -0.814400
vn -0.554400 0.812500 0.180300
vn 0.462400 0.873300 0.153400
vn -0.572800 0.817200 0.063700
vn -0.041600 0.677300 -0.734500
vn 0.272800 0.844500 0.460900
vn -0.051400 0.996800 -0.060600
vn 0.115800 0.870400 -0.478600
vn -0.171300 0.679300 0.713600
vn -0.438300 0.893100 -0.101700
vn 0.165600 0.913200 -0.372400
vn 0.416200 0.862900 0.286700
vn -0.162500 0.848400 0.503800
vn 0.149000 0.985600 -0.079500
vn -0.540800 0.831400 -0.128200
vn 0.453900 0.889500 0.052700
vn -0.569300 0.812300 0.127300
s off
f 109/1/1 64/2/1 63/3/1
f 18/4/2 226/5/2 236/6/2
f 219/7/3 218/8/3 16/9/3
f 153/10/4 162/11/4 250/12/4
f 146/13/5 14/14/5 145/15/5
f 14/14/6 233/16/6 145/15/6
f 224/17/7 14/14/7 13/18/7
f 14/14/8 236/6/8 232/19/8
f 217/20/9 299/21/9 297/22/9
f 36/23/10 38/24/10 27/25/10
f 33/26/11 280/27/11 214/28/11
f 51/29/2 162/11/2 153/10/2
f 164/30/2 156/31/2 52/32/2
f 223/33/12 13/18/12 183/34/12
f 227/35/2 9/36/2 7/37/2
f 135/38/13 192/39/13 190/40/13
f 301/41/14 296/42/14 29/43/14
f 117/44/10 45/45/10 51/29/10
f 57/46/10 64/2/10 55/47/10
f 59/48/15 48/49/15 50/50/15
f 135/38/16 133/51/16 68/52/16
f 141/53/2 53/54/2 194/55/2
f 99/56/2 98/57/2 34/58/2
f 220/8/10 218/8/10 221/59/10
f 54/60/10 44/61/10 51/29/10
f 35/62/2 93/63/2 115/64/2
f 294/65/9 78/66/9 111/67/9
f 160/68/17 251/69/17 104/70/17
f 124/71/18 181/72/18 122/73/18
f 115/64/19 256/74/19 113/75/19
f 93/63/20 263/76/20 256/74/20
f 94/77/21 239/78/21 263/76/21
f 95/79/22 243/80/22 239/78/22
f 96/81/23 249/82/23 243/80/23
f 214/28/24 211/83/24 215/84/24
f 249/82/25 96/81/25 97/85/25
f 213/86/11 208/87/11 53/54/11
f 98/57/26 68/52/26 82/88/26
f 19/89/2 18/4/2 225/90/2
f 100/91/27 74/92/27 71/93/27
f 62/94/2 61/95/2 25/96/2
f 228/97/2 229/98/2 17/99/2
f 35/62/2 34/58/2 95/79/2
f 39/100/28 37/101/28 17/102/28
f 150/103/29 85/104/29 148/105/29
f 23/106/1 78/66/1 299/21/1
f 84/107/30 149/108/30 151/109/30
f 81/110/31 299/21/31 78/66/31
f 216/111/32 206/112/32 298/113/32
f 18/4/2 110/114/2 226/5/2
f 92/115/33 152/116/33 147/117/33
f 165/118/34 91/119/34 150/103/34
f 300/120/35 297/22/35 67/121/35
f 262/122/36 120/123/36 82/88/36
f 141/53/2 77/124/2 33/26/2
f 219/7/10 222/7/10 221/59/10
f 153/10/2 160/68/2 51/29/2
f 238/125/37 91/119/37 114/126/37
f 92/115/38 104/70/38 86/127/38
f 229/98/2 230/128/2 17/99/2
f 227/35/2 7/37/2 5/129/2
f 89/130/39 103/131/39 84/107/39
f 84/107/40 108/132/40 88/133/40
f 12/134/2 216/111/2 112/135/2
f 28/136/32 112/135/32 29/43/32
f 90/137/2 182/138/2 184/139/2
f 74/92/2 89/130/2 135/38/2
f 87/140/9 205/141/9 297/22/9
f 214/28/11 53/54/11 33/26/11
f 154/142/41 159/143/41 291/144/41
f 147/117/42 190/40/42 192/39/42
f 69/145/43 278/146/43 273/147/43
f 188/148/44 233/16/44 232/19/44
f 41/149/2 40/150/2 221/151/2
f 194/55/2 53/54/2 19/89/2
f 295/152/32 112/135/32 216/111/32
f 205/141/9 217/20/9 297/22/9
f 64/2/9 109/1/9 55/47/9
f 35/62/15 42/153/15 34/58/15
f 68/52/45 99/56/45 100/91/45
f 314/154/46 302/155/46 235/156/46
f 145/15/47 179/157/47 181/72/47
f 227/35/2 11/158/2 9/36/2
f 58/159/32 57/46/32 110/114/32
f 104/70/48 242/160/48 86/127/48
f 86/127/49 144/161/49 152/116/49
f 118/162/50 261/163/50 262/122/50
f 18/4/2 236/6/2 225/90/2
f 31/164/15 22/165/15 28/136/15
f 190/40/13 133/51/13 135/38/13
f 30/166/14 29/43/14 296/42/14
f 141/53/2 33/26/2 53/54/2
f 82/88/51 143/167/51 118/162/51
f 270/168/52 113/75/52 76/169/52
f 79/170/53 253/171/53 75/172/53
f 177/173/54 260/174/54 113/75/54
f 143/167/55 244/175/55 118/162/55
f 277/176/56 76/169/56 80/177/56
f 139/178/57 1/179/57 77/124/57
f 68/52/58 142/180/58 82/88/58
f 278/146/59 80/177/59 83/181/59
f 220/182/60 39/100/60 17/102/60
f 167/183/61 278/146/61 69/145/61
f 233/16/62 234/184/62 179/157/62
f 74/92/63 135/38/63 71/93/63
f 72/185/64 167/183/64 69/145/64
f 224/17/2 223/33/2 19/89/2
f 75/172/65 253/171/65 72/185/65
f 260/174/66 70/186/66 73/187/66
f 122/73/46 303/188/46 313/189/46
f 314/154/46 2/190/46 312/191/46
f 3/192/67 132/193/67 12/134/67
f 124/71/68 305/194/68 4/195/68
f 5/129/69 123/196/69 3/192/69
f 128/197/70 6/198/70 8/199/70
f 7/37/71 125/200/71 5/129/71
f 130/201/72 8/199/72 10/202/72
f 9/36/73 127/203/73 7/37/73
f 121/204/74 10/202/74 1/179/74
f 11/158/75 129/205/75 9/36/75
f 152/116/76 196/206/76 195/207/76
f 91/119/77 248/208/77 240/209/77
f 147/117/78 195/207/78 190/40/78
f 268/210/11 280/27/11 33/26/11
f 273/147/2 278/146/2 83/181/2
f 115/64/2 73/187/2 35/62/2
f 5/129/2 3/192/2 227/35/2
f 150/103/79 275/211/79 193/212/79
f 159/143/2 154/142/2 289/213/2
f 155/214/80 168/215/80 170/216/80
f 159/143/81 289/213/81 168/215/81
f 166/217/82 288/218/82 175/219/82
f 175/219/83 288/218/83 282/220/83
f 163/221/84 171/222/84 174/223/84
f 119/224/85 254/225/85 144/161/85
f 161/226/86 170/216/86 172/227/86
f 161/226/87 285/228/87 155/214/87
f 119/224/88 242/160/88 246/229/88
f 163/221/89 266/230/89 157/231/89
f 158/232/90 255/233/90 163/221/90
f 154/142/91 265/234/91 158/232/91
f 155/214/92 291/144/92 159/143/92
f 295/152/93 298/113/93 67/121/93
f 157/231/94 238/125/94 114/126/94
f 157/231/95 165/118/95 171/222/95
f 172/227/96 199/235/96 201/236/96
f 144/161/97 201/236/97 196/206/97
f 202/237/98 293/238/98 200/239/98
f 175/219/99 284/240/99 203/241/99
f 166/217/100 203/241/100 197/242/100
f 168/215/101 197/242/101 198/243/101
f 170/216/102 198/243/102 199/235/102
f 137/244/103 264/245/103 169/246/103
f 198/243/104 167/183/104 169/246/104
f 197/242/105 176/247/105 167/183/105
f 203/241/106 140/248/106 176/247/106
f 202/237/107 138/249/107 140/248/107
f 196/206/108 173/250/108 143/167/108
f 173/250/109 264/245/109 137/244/109
f 200/239/110 290/251/110 138/249/110
f 188/148/111 129/205/111 131/252/111
f 121/204/112 187/253/112 130/201/112
f 186/254/113 127/203/113 129/205/113
f 130/201/114 185/255/114 128/197/114
f 184/139/115 125/200/115 127/203/115
f 128/197/116 183/34/116 126/256/116
f 182/138/117 123/196/117 125/200/117
f 183/34/118 124/71/118 126/256/118
f 180/257/119 132/193/119 123/196/119
f 160/68/2 104/70/2 51/29/2
f 136/258/120 287/259/120 134/260/120
f 87/140/1 109/1/1 63/3/1
f 56/261/14 300/120/14 57/46/14
f 141/53/121 194/55/121 139/178/121
f 190/40/2 142/180/2 133/51/2
f 139/178/122 178/262/122 121/204/122
f 177/173/2 290/251/2 283/263/2
f 195/207/123 143/167/123 142/180/123
f 40/264/15 41/265/15 38/24/15
f 153/10/2 245/266/2 259/267/2
f 134/260/124 287/259/124 286/268/124
f 271/269/125 210/270/125 211/83/125
f 20/271/2 89/130/2 74/92/2
f 241/272/126 268/210/126 70/186/126
f 100/91/2 32/273/2 20/271/2
f 37/274/15 39/275/15 40/264/15
f 60/276/10 63/3/10 64/2/10
f 146/13/47 145/15/47 181/72/47
f 269/277/127 247/278/127 279/279/127
f 8/199/2 228/97/2 10/202/2
f 85/104/128 271/269/128 148/105/128
f 18/4/2 59/280/2 110/114/2
f 95/79/2 94/77/2 35/62/2
f 65/281/129 21/282/129 60/276/129
f 60/276/10 61/95/10 62/94/10
f 26/283/130 25/96/130 60/276/130
f 300/120/14 298/113/14 57/46/14
f 204/284/131 165/118/131 193/212/131
f 94/77/2 93/63/2 35/62/2
f 18/4/2 48/285/2 59/280/2
f 103/131/2 66/286/2 54/60/2
f 29/43/15 30/166/15 31/164/15
f 8/199/2 6/198/2 228/97/2
f 55/47/10 56/261/10 57/46/10
f 149/108/132 88/133/132 92/115/132
f 211/83/133 214/28/133 209/287/133
f 103/131/2 89/130/2 66/286/2
f 16/9/2 230/128/2 231/288/2
f 90/137/2 206/112/2 189/289/2
f 207/290/134 247/278/134 212/291/134
f 207/290/135 215/84/135 210/270/135
f 202/237/136 203/241/136 284/240/136
f 120/123/2 97/85/2 34/58/2
f 32/273/13 100/91/13 34/58/13
f 45/45/10 53/54/10 52/32/10
f 244/175/137 252/292/137 253/171/137
f 116/293/15 43/294/15 34/58/15
f 17/99/3 16/9/3 218/8/3
f 217/20/1 205/141/1 63/3/1
f 36/23/15 27/25/15 37/274/15
f 26/283/15 21/282/15 22/165/15
f 222/295/2 41/149/2 221/151/2
f 27/296/2 38/297/2 15/298/2
f 15/298/2 16/9/2 231/288/2
f 15/299/138 38/300/138 41/301/138
f 216/111/139 12/134/139 132/193/139
f 27/296/2 15/298/2 112/135/2
f 258/302/140 249/82/140 97/85/140
f 181/72/18 179/157/18 122/73/18
f 16/9/3 15/298/3 219/7/3
f 35/62/11 73/187/11 70/186/11
f 55/47/141 297/22/141 300/120/141
f 98/57/2 120/123/2 34/58/2
f 57/46/10 58/159/10 64/2/10
f 101/4/2 105/89/2 46/303/2
f 146/13/12 181/72/12 183/34/12
f 112/135/2 28/136/2 27/296/2
f 10/202/2 228/97/2 1/179/2
f 90/137/32 110/114/32 57/46/32
f 22/165/15 23/106/15 26/283/15
f 59/280/2 58/159/2 110/114/2
f 64/2/10 65/281/10 60/276/10
f 105/89/15 101/4/15 18/4/15
f 54/60/2 108/132/2 103/131/2
f 104/70/2 106/304/2 51/29/2
f 21/282/129 26/283/129 60/276/129
f 219/7/10 221/59/10 218/8/10
f 77/124/2 17/99/2 33/26/2
f 92/115/142 147/117/142 149/108/142
f 1/179/2 228/97/2 77/124/2
f 51/29/13 106/304/13 108/132/13
f 228/97/143 4/195/143 229/98/143
f 227/35/44 235/156/44 11/158/44
f 229/98/144 4/195/144 2/190/144
f 237/305/145 310/306/145 308/307/145
f 237/305/146 188/148/146 131/252/146
f 85/104/147 91/119/147 240/209/147
f 241/272/148 136/258/148 134/260/148
f 249/82/149 258/302/149 276/308/149
f 72/185/150 257/309/150 75/172/150
f 246/229/151 281/310/151 161/226/151
f 252/292/152 169/246/152 253/171/152
f 266/230/153 164/30/153 238/125/153
f 248/208/154 164/30/154 107/311/154
f 264/245/155 198/243/155 169/246/155
f 264/245/156 201/236/156 199/235/156
f 243/80/157 276/308/157 273/147/157
f 253/171/158 169/246/158 72/185/158
f 169/246/159 252/292/159 137/244/159
f 247/278/160 213/86/160 212/291/160
f 245/266/161 153/10/161 250/12/161
f 201/236/162 254/225/162 172/227/162
f 41/301/68 222/312/68 15/299/68
f 248/208/163 102/313/163 240/209/163
f 260/174/164 73/187/164 113/75/164
f 263/76/165 83/181/165 80/177/165
f 246/229/166 172/227/166 254/225/166
f 162/11/167 265/234/167 250/12/167
f 88/133/168 108/132/168 92/115/168
f 252/292/169 173/250/169 137/244/169
f 256/74/170 80/177/170 76/169/170
f 265/234/171 162/11/171 255/233/171
f 113/75/172 256/74/172 76/169/172
f 258/302/173 261/163/173 257/309/173
f 257/309/174 79/170/174 75/172/174
f 267/314/175 286/268/175 280/27/175
f 269/277/176 102/313/176 208/87/176
f 255/233/177 156/31/177 266/230/177
f 277/176/178 176/247/178 140/248/178
f 279/279/179 247/278/179 207/290/179
f 274/315/180 292/316/180 283/263/180
f 272/317/181 275/211/181 191/318/181
f 177/173/182 270/168/182 138/249/182
f 270/168/183 140/248/183 138/249/183
f 271/269/184 275/211/184 148/105/184
f 276/308/185 257/309/185 72/185/185
f 272/317/186 274/315/186 193/212/186
f 279/279/187 210/270/187 271/269/187
f 273/147/188 72/185/188 69/145/188
f 284/240/189 282/220/189 174/223/189
f 287/259/190 211/83/190 209/287/190
f 288/218/191 163/221/191 174/223/191
f 280/27/192 286/268/192 209/287/192
f 285/228/193 251/69/193 259/267/193
f 291/144/194 250/12/194 154/142/194
f 204/284/195 193/212/195 274/315/195
f 284/240/196 171/222/196 293/238/196
f 289/213/197 158/232/197 288/218/197
f 11/158/198 304/319/198 129/205/198
f 292/316/199 177/173/199 283/263/199
f 285/228/200 245/266/200 291/144/200
f 281/310/201 242/160/201 251/69/201
f 274/315/202 272/317/202 191/318/202
f 293/238/203 165/118/203 204/284/203
f 78/66/204 294/65/204 81/110/204
f 296/42/205 81/110/205 294/65/205
f 105/89/2 47/320/2 46/303/2
f 35/62/15 33/26/15 42/153/15
f 19/321/206 49/322/206 105/321/206
f 108/132/207 84/107/207 103/131/207
f 186/254/2 188/148/2 226/5/2
f 110/114/2 90/137/2 226/5/2
f 4/195/46 312/191/46 2/190/46
f 146/13/2 13/18/2 14/14/2
f 14/14/2 232/19/2 233/16/2
f 116/293/15 34/58/15 42/153/15
f 224/17/208 225/90/208 14/14/208
f 14/14/209 225/90/209 236/6/209
f 62/94/210 24/323/210 63/3/210
f 223/33/211 224/17/211 13/18/211
f 63/3/1 23/106/1 217/20/1
f 37/274/15 40/264/15 38/24/15
f 227/35/2 112/135/2 15/298/2
f 19/89/15 105/89/15 18/4/15
f 25/96/130 61/95/130 60/276/130
f 220/8/2 221/59/2 39/324/2
f 24/323/15 25/96/15 26/283/15
f 205/141/1 87/140/1 63/3/1
f 290/251/2 200/239/2 293/238/2
f 50/50/10 47/325/10 49/326/10
f 235/156/212 231/288/212 230/128/212
f 293/238/213 202/237/213 284/240/213
f 32/273/15 34/58/15 43/294/15
f 106/304/214 92/115/214 108/132/214
f 235/156/46 2/190/46 314/154/46
f 304/319/198 131/252/198 129/205/198
f 223/33/2 194/55/2 19/89/2
f 115/64/215 93/63/215 256/74/215
f 93/63/216 94/77/216 263/76/216
f 94/77/217 95/79/217 239/78/217
f 95/79/218 96/81/218 243/80/218
f 118/162/219 262/122/219 82/88/219
f 97/85/220 262/122/220 258/302/220
f 120/123/221 98/57/221 82/88/221
f 98/57/222 99/56/222 68/52/222
f 53/54/2 49/327/2 19/89/2
f 111/67/1 78/66/1 23/106/1
f 295/152/32 216/111/32 298/113/32
f 150/103/223 91/119/223 85/104/223
f 89/130/224 84/107/224 151/109/224
f 84/107/225 88/133/225 149/108/225
f 81/110/226 297/22/226 299/21/226
f 90/137/2 186/254/2 226/5/2
f 92/115/227 86/127/227 152/116/227
f 298/113/228 300/120/228 67/121/228
f 165/118/229 114/126/229 91/119/229
f 81/110/230 67/121/230 297/22/230
f 145/15/62 233/16/62 179/157/62
f 208/87/11 102/313/11 52/32/11
f 57/46/32 298/113/32 90/137/32
f 238/125/231 248/208/231 91/119/231
f 92/115/232 106/304/232 104/70/232
f 17/102/60 218/182/60 220/182/60
f 219/312/68 15/299/68 222/312/68
f 17/99/2 37/328/2 33/26/2
f 22/165/1 111/67/1 23/106/1
f 96/81/2 34/58/2 97/85/2
f 31/164/141 30/166/141 294/65/141
f 232/19/44 226/5/44 188/148/44
f 38/24/10 36/23/10 37/274/10
f 146/13/12 183/34/12 13/18/12
f 46/303/233 48/285/233 18/4/233
f 15/298/2 231/288/2 227/35/2
f 290/251/234 293/238/234 204/284/234
f 49/326/10 59/48/10 50/50/10
f 24/323/210 23/106/210 63/3/210
f 29/43/14 295/152/14 301/41/14
f 206/112/32 90/137/32 298/113/32
f 46/329/10 47/325/10 50/50/10
f 56/261/141 55/47/141 300/120/141
f 90/137/2 184/139/2 186/254/2
f 115/64/235 113/75/235 73/187/235
f 119/224/236 86/127/236 242/160/236
f 251/69/237 242/160/237 104/70/237
f 86/127/238 119/224/238 144/161/238
f 262/122/239 97/85/239 120/123/239
f 214/28/11 215/84/11 53/54/11
f 79/170/240 261/163/240 118/162/240
f 122/73/241 179/157/241 234/184/241
f 178/262/2 194/55/2 223/33/2
f 62/94/10 63/3/10 60/276/10
f 82/88/242 142/180/242 143/167/242
f 270/168/243 177/173/243 113/75/243
f 79/170/244 244/175/244 253/171/244
f 177/173/245 136/258/245 260/174/245
f 79/170/246 118/162/246 244/175/246
f 143/167/247 173/250/247 244/175/247
f 277/176/248 270/168/248 76/169/248
f 139/178/249 121/204/249 1/179/249
f 68/52/250 133/51/250 142/180/250
f 278/146/251 277/176/251 80/177/251
f 141/53/252 139/178/252 77/124/252
f 100/91/60 71/93/60 135/38/60
f 167/183/253 176/247/253 278/146/253
f 72/185/254 169/246/254 167/183/254
f 260/174/255 241/272/255 70/186/255
f 237/305/256 303/188/256 122/73/256
f 4/195/257 306/330/257 312/191/257
f 3/192/258 123/196/258 132/193/258
f 6/198/259 126/256/259 124/71/259
f 5/129/260 125/200/260 123/196/260
f 128/197/261 126/256/261 6/198/261
f 7/37/262 127/203/262 125/200/262
f 130/201/263 128/197/263 8/199/263
f 9/36/264 129/205/264 127/203/264
f 121/204/265 130/201/265 10/202/265
f 152/116/266 144/161/266 196/206/266
f 268/210/11 267/314/11 280/27/11
f 147/117/267 152/116/267 195/207/267
f 151/109/2 135/38/2 89/130/2
f 151/109/268 149/108/268 192/39/268
f 272/317/269 193/212/269 275/211/269
f 150/103/270 148/105/270 275/211/270
f 12/134/2 112/135/2 227/35/2
f 155/214/271 159/143/271 168/215/271
f 166/217/272 168/215/272 289/213/272
f 166/217/273 289/213/273 288/218/273
f 163/221/274 157/231/274 171/222/274
f 119/224/275 246/229/275 254/225/275
f 161/226/276 155/214/276 170/216/276
f 161/226/277 281/310/277 285/228/277
f 163/221/278 255/233/278 266/230/278
f 158/232/279 265/234/279 255/233/279
f 154/142/280 250/12/280 265/234/280
f 155/214/281 285/228/281 291/144/281
f 157/231/282 266/230/282 238/125/282
f 157/231/283 114/126/283 165/118/283
f 172/227/284 170/216/284 199/235/284
f 144/161/285 254/225/285 201/236/285
f 165/118/286 150/103/286 193/212/286
f 102/313/11 107/311/11 52/32/11
f 175/219/287 282/220/287 284/240/287
f 166/217/288 175/219/288 203/241/288
f 168/215/289 166/217/289 197/242/289
f 170/216/290 168/215/290 198/243/290
f 198/243/291 197/242/291 167/183/291
f 197/242/292 203/241/292 176/247/292
f 203/241/293 202/237/293 140/248/293
f 202/237/294 200/239/294 138/249/294
f 196/206/295 201/236/295 173/250/295
f 173/250/296 201/236/296 264/245/296
f 177/173/297 138/249/297 290/251/297
f 188/148/298 186/254/298 129/205/298
f 121/204/299 178/262/299 187/253/299
f 186/254/300 184/139/300 127/203/300
f 130/201/301 187/253/301 185/255/301
f 184/139/302 182/138/302 125/200/302
f 128/197/303 185/255/303 183/34/303
f 182/138/304 180/257/304 123/196/304
f 183/34/305 181/72/305 124/71/305
f 180/257/306 189/289/306 132/193/306
f 136/258/307 292/316/307 287/259/307
f 190/40/308 195/207/308 142/180/308
f 139/178/309 194/55/309 178/262/309
f 195/207/310 196/206/310 143/167/310
f 216/111/311 132/193/311 189/289/311
f 55/47/9 109/1/9 87/140/9
f 211/83/312 191/318/312 275/211/312
f 275/211/313 271/269/313 211/83/313
f 74/92/2 100/91/2 20/271/2
f 96/81/2 95/79/2 34/58/2
f 241/272/314 267/314/314 268/210/314
f 237/305/241 122/73/241 234/184/241
f 49/322/315 47/322/315 105/321/315
f 30/166/141 296/42/141 294/65/141
f 230/128/2 16/9/2 17/99/2
f 279/279/316 85/104/316 269/277/316
f 240/209/317 269/277/317 85/104/317
f 185/255/2 187/253/2 223/33/2
f 85/104/318 279/279/318 271/269/318
f 192/39/2 135/38/2 151/109/2
f 208/87/11 52/32/11 53/54/11
f 52/32/10 51/29/10 45/45/10
f 153/10/2 259/267/2 160/68/2
f 107/311/2 164/30/2 52/32/2
f 90/137/2 189/289/2 180/257/2
f 24/323/2 62/94/2 25/96/2
f 228/97/2 17/99/2 77/124/2
f 35/62/11 70/186/11 33/26/11
f 211/83/319 210/270/319 215/84/319
f 101/4/68 46/303/68 18/4/68
f 206/112/2 216/111/2 189/289/2
f 207/290/320 212/291/320 215/84/320
f 149/108/321 147/117/321 192/39/321
f 52/32/2 162/11/2 51/29/2
f 2/190/212 235/156/212 230/128/212
f 51/29/10 44/61/10 117/44/10
f 297/22/9 55/47/9 87/140/9
f 26/283/15 23/106/15 24/323/15
f 294/65/9 111/67/9 31/164/9
f 22/165/9 31/164/9 111/67/9
f 221/59/2 40/331/2 39/324/2
f 227/35/2 3/192/2 12/134/2
f 187/253/2 178/262/2 223/33/2
f 28/136/15 29/43/15 31/164/15
f 90/137/2 180/257/2 182/138/2
f 108/132/13 54/60/13 51/29/13
f 228/97/12 6/198/12 4/195/12
f 227/35/322 231/288/322 235/156/322
f 2/190/323 230/128/323 229/98/323
f 70/186/11 268/210/11 33/26/11
f 232/19/324 236/6/324 226/5/324
f 131/252/325 310/306/325 237/305/325
f 237/305/326 234/184/326 188/148/326
f 299/21/1 217/20/1 23/106/1
f 241/272/327 260/174/327 136/258/327
f 246/229/328 242/160/328 281/310/328
f 215/84/11 212/291/11 53/54/11
f 266/230/329 156/31/329 164/30/329
f 248/208/330 238/125/330 164/30/330
f 264/245/331 199/235/331 198/243/331
f 243/80/332 249/82/332 276/308/332
f 212/291/11 213/86/11 53/54/11
f 247/278/333 208/87/333 213/86/333
f 259/267/334 251/69/334 160/68/334
f 156/31/2 162/11/2 52/32/2
f 83/181/335 239/78/335 273/147/335
f 243/80/336 273/147/336 239/78/336
f 280/27/337 209/287/337 214/28/337
f 248/208/338 107/311/338 102/313/338
f 263/76/339 239/78/339 83/181/339
f 246/229/340 161/226/340 172/227/340
f 135/38/341 68/52/341 100/91/341
f 252/292/342 244/175/342 173/250/342
f 256/74/343 263/76/343 80/177/343
f 188/148/44 234/184/44 233/16/44
f 258/302/344 262/122/344 261/163/344
f 257/309/345 261/163/345 79/170/345
f 50/50/10 48/49/10 46/329/10
f 267/314/346 241/272/346 286/268/346
f 34/58/13 100/91/13 99/56/13
f 134/260/347 286/268/347 241/272/347
f 208/87/348 247/278/348 269/277/348
f 269/277/349 240/209/349 102/313/349
f 255/233/350 162/11/350 156/31/350
f 277/176/351 278/146/351 176/247/351
f 270/168/352 277/176/352 140/248/352
f 276/308/353 258/302/353 257/309/353
f 279/279/354 207/290/354 210/270/354
f 273/147/355 276/308/355 72/185/355
f 209/287/356 286/268/356 287/259/356
f 287/259/357 191/318/357 211/83/357
f 174/223/358 282/220/358 288/218/358
f 288/218/359 158/232/359 163/221/359
f 285/228/360 281/310/360 251/69/360
f 291/144/361 245/266/361 250/12/361
f 274/315/362 283/263/362 290/251/362
f 290/251/363 204/284/363 274/315/363
f 284/240/364 174/223/364 171/222/364
f 289/213/59 154/142/59 158/232/59
f 292/316/365 136/258/365 177/173/365
f 285/228/366 259/267/366 245/266/366
f 191/318/367 287/259/367 292/316/367
f 292/316/368 274/315/368 191/318/368
f 295/152/32 29/43/32 112/135/32
f 293/238/369 171/222/369 165/118/369
f 67/121/370 296/42/370 301/41/370
f 301/41/371 295/152/371 67/121/371
f 296/42/372 67/121/372 81/110/372
f 225/90/2 224/17/2 19/89/2
f 183/34/2 185/255/2 223/33/2
f 310/306/373 318/332/373 308/307/373
f 307/333/374 11/158/374 235/156/374
f 314/154/375 317/334/375 315/335/375
f 313/189/376 311/336/376 122/73/376
f 310/306/377 304/319/377 309/337/377
f 309/337/378 304/319/378 11/158/378
f 308/307/379 316/338/379 303/188/379
f 302/155/380 307/333/380 235/156/380
f 313/189/381 316/338/381 315/335/381
f 306/330/382 317/334/382 312/191/382
f 311/336/383 124/71/383 122/73/383
f 316/338/384 314/154/384 315/335/384
f 315/335/385 311/336/385 313/189/385
f 318/332/386 302/155/386 316/338/386
f 317/334/387 305/194/387 311/336/387
f 318/332/388 309/337/388 307/333/388
f 4/195/389 6/198/389 124/71/389
f 305/194/60 306/330/60 4/195/60
f 237/305/390 308/307/390 303/188/390
f 131/252/391 304/319/391 310/306/391
f 310/306/392 309/337/392 318/332/392
f 307/333/393 309/337/393 11/158/393
f 314/154/394 312/191/394 317/334/394
f 308/307/395 318/332/395 316/338/395
f 313/189/396 303/188/396 316/338/396
f 306/330/397 305/194/397 317/334/397
f 311/336/398 305/194/398 124/71/398
f 316/338/399 302/155/399 314/154/399
f 315/335/400 317/334/400 311/336/400
f 318/332/401 307/333/401 302/155/401
