# Blender v2.76 (sub 0) OBJ File: 'med1_7d_slice128.blend'
# www.blender.org
v 1.240000 -1.280000 1.240000
v 1.240000 -1.280000 0.600000
v 1.240000 -1.280000 0.640000
v 1.240000 -1.280000 0.000000
v 1.240000 -1.280000 1.280000
v 0.680000 -1.280000 1.240000
v 0.680000 -1.291904 0.600000
v 0.680000 -1.288985 0.640000
v 0.680000 -1.309543 0.000000
v 0.680000 -1.280000 1.280000
v 0.560000 -1.280000 1.240000
v 0.560000 -1.303518 0.600000
v 0.560000 -1.299145 0.640000
v 0.560000 -1.328435 0.000000
v 0.560000 -1.280000 1.280000
v 0.040000 -1.280000 1.240000
v 0.040000 -1.322499 0.600000
v 0.040000 -1.316117 0.640000
v 0.040000 -1.359344 0.000000
v 0.040000 -1.280000 1.280000
v -0.080000 -1.280000 1.240000
v -0.080000 -1.319391 0.600000
v -0.080000 -1.313327 0.640000
v -0.080000 -1.322395 0.000000
v -0.080000 -1.280000 1.280000
v -0.600000 -1.280000 1.240000
v -0.600000 -1.280121 0.600000
v -0.600000 -1.280000 0.640000
v -0.600000 -1.284648 0.000000
v -0.600000 -1.280000 1.280000
v -0.720000 -1.280000 1.240000
v -0.720000 -1.280000 0.600000
v -0.720000 -1.280000 0.640000
v -0.720000 -1.280000 0.000000
v -0.720000 -1.280000 1.280000
v -1.240000 -1.280000 1.240000
v -1.240000 -1.280000 0.600000
v -1.240000 -1.280000 0.640000
v -1.240000 -1.280000 0.000000
v -1.240000 -1.280000 1.280000
v 1.280000 -1.280000 1.280000
v -1.280000 -1.280000 1.280000
v -0.640000 -1.280000 1.280000
v 0.000000 -1.280000 1.280000
v 0.640000 -1.280000 1.280000
v 1.280000 -1.280000 0.640000
v 1.280000 -1.280000 0.000000
v -1.280000 -1.280000 0.000000
v -1.280000 -1.280000 0.640000
v 0.640000 -1.315800 0.000000
v 0.640000 -1.292238 0.640000
v 0.000000 -1.358708 0.000000
v 0.000000 -1.315800 0.640000
v -0.640000 -1.281961 0.000000
v -0.640000 -1.280000 0.640000
v -0.040000 -1.280000 1.280000
v -0.040000 -1.356869 0.000000
v -0.040000 -1.314859 0.640000
v -0.680000 -1.280000 1.280000
v -0.680000 -1.280378 0.000000
v -0.680000 -1.280000 0.640000
v 0.600000 -1.280000 1.280000
v 0.600000 -1.322146 0.000000
v 0.600000 -1.295666 0.640000
v 1.280000 -1.280000 0.600000
v -1.280000 -1.280000 0.600000
v 0.640000 -1.295666 0.600000
v 0.000000 -1.322146 0.600000
v -0.640000 -1.280000 0.600000
v -0.040000 -1.321098 0.600000
v -0.680000 -1.280000 0.600000
v 0.600000 -1.299581 0.600000
v -1.280000 -1.280000 1.240000
v 0.640000 -1.280000 1.240000
v 0.000000 -1.280000 1.240000
v -0.640000 -1.280000 1.240000
v 1.280000 -1.280000 1.240000
v -0.040000 -1.280000 1.240000
v -0.680000 -1.280000 1.240000
v 0.600000 -1.280000 1.240000
v 0.680000 -1.260000 1.200000
v 0.560000 -1.260000 1.200000
v 0.040000 -1.260000 1.200000
v -0.080000 -1.260000 1.200000
v -0.600000 -1.260000 1.200000
v -0.720000 -1.260000 1.200000
v -1.240000 -1.260000 1.200000
v 1.280000 -1.280000 1.200000
v -1.280000 -1.280000 1.200000
v 0.640000 -1.280000 1.200000
v 0.000000 -1.280000 1.200000
v -0.640000 -1.280000 1.200000
v -0.040000 -1.280000 1.200000
v -0.680000 -1.280000 1.200000
v 0.600000 -1.280000 1.200000
v 1.240000 -1.280000 1.200000
v 1.280000 -1.280000 0.680000
v 0.680000 -1.286271 0.680000
v 0.560000 -1.294905 0.680000
v 0.040000 -1.309824 0.680000
v -0.080000 -1.307353 0.680000
v -0.600000 -1.280000 0.680000
v -0.720000 -1.260000 0.680000
v -1.240000 -1.260000 0.680000
v -1.280000 -1.280000 0.680000
v 0.640000 -1.288985 0.680000
v 0.000000 -1.309543 0.680000
v -0.640000 -1.280000 0.680000
v -0.040000 -1.308709 0.680000
v -0.680000 -1.280000 0.680000
v 0.600000 -1.291904 0.680000
v 1.240000 -1.280000 0.680000
v 0.680000 -1.294905 0.560000
v 0.560000 -1.307890 0.560000
v 0.040000 -1.328825 0.560000
v -0.080000 -1.325399 0.560000
v -0.600000 -1.280527 0.560000
v -0.720000 -1.260000 0.560000
v -1.240000 -1.260000 0.560000
v 1.280000 -1.280000 0.560000
v -1.280000 -1.280000 0.560000
v 0.640000 -1.299145 0.560000
v 0.000000 -1.328435 0.560000
v -0.640000 -1.280000 0.560000
v -0.040000 -1.327280 0.560000
v -0.680000 -1.280000 0.560000
v 0.600000 -1.303518 0.560000
v 1.240000 -1.280000 0.560000
v 1.280000 -1.280000 0.040000
v 0.680000 -1.309824 0.040000
v 0.560000 -1.328825 0.040000
v 0.040000 -1.360000 0.040000
v -0.080000 -1.322395 0.040000
v -0.600000 -1.284748 0.040000
v -0.720000 -1.260000 0.040000
v -1.240000 -1.260000 0.040000
v -1.280000 -1.280000 0.040000
v 0.640000 -1.316117 0.040000
v 0.000000 -1.359344 0.040000
v -0.640000 -1.282025 0.040000
v -0.040000 -1.357472 0.040000
v -0.680000 -1.280405 0.040000
v 0.600000 -1.322499 0.040000
v 1.240000 -1.280000 0.040000
v 1.200000 -1.280000 1.240000
v 1.200000 -1.280000 0.600000
v 1.200000 -1.280000 0.640000
v 1.200000 -1.280000 0.000000
v 1.200000 -1.280000 1.280000
v 1.200000 -1.260000 1.200000
v 1.200000 -1.260000 0.680000
v 1.200000 -1.260000 0.560000
v 1.200000 -1.260000 0.040000
v 0.880000 -1.280000 1.240000
v 0.880000 -1.280121 0.600000
v 0.880000 -1.280000 0.640000
v 0.880000 -1.284648 0.000000
v 0.880000 -1.280000 1.280000
v 0.880000 -1.260000 1.200000
v 0.880000 -1.280000 0.680000
v 0.880000 -1.280527 0.560000
v 0.880000 -1.284748 0.040000
v 1.000000 -1.280000 1.240000
v 1.000000 -1.280000 0.600000
v 1.000000 -1.280000 0.640000
v 1.000000 -1.280000 0.000000
v 1.000000 -1.280000 1.280000
v 1.000000 -1.260000 1.200000
v 1.000000 -1.260000 0.680000
v 1.000000 -1.260000 0.560000
v 1.000000 -1.260000 0.040000
v 0.680000 -1.322395 0.360000
v 0.560000 -1.322395 0.360000
v 0.040000 -1.322395 0.360000
v -0.080000 -1.322395 0.360000
v -0.600000 -1.283886 0.360000
v -0.720000 -1.260000 0.360000
v -1.240000 -1.260000 0.360000
v -1.280000 -1.280000 0.360000
v 0.640000 -1.322395 0.360000
v 0.000000 -1.322395 0.360000
v -0.640000 -1.281487 0.360000
v -0.040000 -1.322395 0.360000
v -0.680000 -1.280191 0.360000
v 0.600000 -1.322395 0.360000
v 1.240000 -1.280000 0.360000
v 1.280000 -1.280000 0.360000
v 1.200000 -1.260000 0.360000
v 0.880000 -1.283886 0.360000
v 1.000000 -1.260000 0.360000
v 1.280000 -1.280000 0.240000
v 0.680000 -1.309824 0.240000
v 0.560000 -1.328825 0.240000
v 0.040000 -1.360000 0.240000
v -0.080000 -1.336059 0.240000
v -0.600000 -1.284748 0.240000
v -0.720000 -1.260000 0.240000
v -1.240000 -1.260000 0.240000
v -1.280000 -1.280000 0.240000
v 0.640000 -1.316117 0.240000
v 0.000000 -1.359344 0.240000
v -0.640000 -1.282025 0.240000
v -0.040000 -1.357472 0.240000
v -0.680000 -1.280405 0.240000
v 0.600000 -1.322499 0.240000
v 1.240000 -1.280000 0.240000
v 1.200000 -1.260000 0.240000
v 0.880000 -1.284748 0.240000
v 1.000000 -1.260000 0.240000
v 0.680000 -1.260000 1.000000
v 0.560000 -1.260000 1.000000
v 0.040000 -1.260000 1.000000
v -0.080000 -1.260000 1.000000
v -0.600000 -1.260000 1.000000
v -0.720000 -1.260000 1.000000
v -1.240000 -1.260000 1.000000
v -1.280000 -1.280000 1.000000
v 0.640000 -1.280000 1.000000
v 0.000000 -1.280000 1.000000
v -0.640000 -1.280000 1.000000
v -0.040000 -1.280000 1.000000
v -0.680000 -1.280000 1.000000
v 0.600000 -1.280000 1.000000
v 1.240000 -1.280000 1.000000
v 1.280000 -1.280000 1.000000
v 1.200000 -1.260000 1.000000
v 0.880000 -1.260000 1.000000
v 1.000000 -1.260000 1.000000
v 1.280000 -1.280000 0.880000
v 0.680000 -1.280000 0.880000
v 0.560000 -1.280527 0.880000
v 0.040000 -1.284748 0.880000
v -0.080000 -1.283886 0.880000
v -0.600000 -1.280000 0.880000
v -0.720000 -1.260000 0.880000
v -1.240000 -1.260000 0.880000
v -1.280000 -1.280000 0.880000
v 0.640000 -1.280000 0.880000
v 0.000000 -1.284648 0.880000
v -0.640000 -1.280000 0.880000
v -0.040000 -1.284354 0.880000
v -0.680000 -1.280000 0.880000
v 0.600000 -1.280121 0.880000
v 1.240000 -1.280000 0.880000
v 1.200000 -1.260000 0.880000
v 0.880000 -1.280000 0.880000
v 1.000000 -1.260000 0.880000
v 0.240000 -1.280000 1.240000
v 0.240000 -1.322499 0.600000
v 0.240000 -1.316117 0.640000
v 0.240000 -1.359344 0.000000
v 0.240000 -1.280000 1.280000
v 0.240000 -1.260000 1.200000
v 0.240000 -1.309824 0.680000
v 0.240000 -1.328825 0.560000
v 0.240000 -1.360000 0.040000
v 0.240000 -1.322395 0.360000
v 0.240000 -1.360000 0.240000
v 0.240000 -1.260000 1.000000
v 0.240000 -1.284748 0.880000
v 0.360000 -1.280000 1.240000
v 0.360000 -1.319391 0.600000
v 0.360000 -1.313327 0.640000
v 0.360000 -1.353961 0.000000
v 0.360000 -1.280000 1.280000
v 0.360000 -1.260000 1.200000
v 0.360000 -1.307353 0.680000
v 0.360000 -1.325399 0.560000
v 0.360000 -1.354529 0.040000
v 0.360000 -1.322395 0.360000
v 0.360000 -1.354529 0.240000
v 0.360000 -1.260000 1.000000
v 0.360000 -1.283886 0.880000
v -0.400000 -1.280000 1.240000
v -0.400000 -1.291904 0.600000
v -0.400000 -1.288985 0.640000
v -0.400000 -1.309543 0.000000
v -0.400000 -1.280000 1.280000
v -0.400000 -1.260000 1.200000
v -0.400000 -1.286271 0.680000
v -0.400000 -1.294905 0.560000
v -0.400000 -1.309824 0.040000
v -0.400000 -1.307353 0.360000
v -0.400000 -1.309824 0.240000
v -0.400000 -1.260000 1.000000
v -0.400000 -1.280000 0.880000
v -0.280000 -1.280000 1.240000
v -0.280000 -1.303518 0.600000
v -0.280000 -1.299145 0.640000
v -0.280000 -1.328435 0.000000
v -0.280000 -1.280000 1.280000
v -0.280000 -1.260000 1.200000
v -0.280000 -1.294905 0.680000
v -0.280000 -1.307890 0.560000
v -0.280000 -1.328825 0.040000
v -0.280000 -1.322395 0.360000
v -0.280000 -1.328825 0.240000
v -0.280000 -1.260000 1.000000
v -0.280000 -1.280527 0.880000
v -1.040000 -1.280000 1.240000
v -1.040000 -1.280000 0.600000
v -1.040000 -1.280000 0.640000
v -1.040000 -1.280000 0.000000
v -1.040000 -1.280000 1.280000
v -1.040000 -1.260000 1.200000
v -1.040000 -1.260000 0.680000
v -1.040000 -1.260000 0.560000
v -1.040000 -1.260000 0.040000
v -1.040000 -1.260000 0.360000
v -1.040000 -1.260000 0.240000
v -1.040000 -1.260000 1.000000
v -1.040000 -1.260000 0.880000
v -0.920000 -1.280000 1.240000
v -0.920000 -1.280000 0.600000
v -0.920000 -1.280000 0.640000
v -0.920000 -1.280000 0.000000
v -0.920000 -1.280000 1.280000
v -0.920000 -1.260000 1.200000
v -0.920000 -1.260000 0.680000
v -0.920000 -1.260000 0.560000
v -0.920000 -1.260000 0.040000
v -0.920000 -1.260000 0.360000
v -0.920000 -1.260000 0.240000
v -0.920000 -1.260000 1.000000
v -0.920000 -1.260000 0.880000
v 0.680000 -1.260000 0.920000
v 0.680000 -1.260000 0.960000
v 0.560000 -1.280000 0.920000
v 0.560000 -1.280000 0.960000
v 0.040000 -1.282025 0.920000
v 0.040000 -1.280405 0.960000
v -0.080000 -1.281487 0.920000
v -0.080000 -1.260186 0.960000
v -0.600000 -1.260000 0.920000
v -0.600000 -1.260000 0.960000
v -0.720000 -1.280000 0.920000
v -0.720000 -1.280000 0.960000
v -1.240000 -1.280000 0.920000
v -1.240000 -1.280000 0.960000
v -1.280000 -1.280000 0.920000
v -1.280000 -1.280000 0.960000
v 0.640000 -1.280000 0.920000
v 0.640000 -1.280000 0.960000
v 0.000000 -1.281961 0.920000
v 0.000000 -1.280378 0.960000
v -0.640000 -1.280000 0.920000
v -0.640000 -1.280000 0.960000
v -0.040000 -1.281776 0.920000
v -0.040000 -1.280300 0.960000
v -0.680000 -1.280000 0.920000
v -0.680000 -1.280000 0.960000
v 0.600000 -1.280000 0.920000
v 0.600000 -1.280000 0.960000
v 1.240000 -1.280000 0.920000
v 1.240000 -1.280000 0.960000
v 1.200000 -1.260000 0.920000
v 1.200000 -1.260000 0.960000
v 0.880000 -1.260000 0.920000
v 0.880000 -1.260000 0.960000
v 1.000000 -1.260000 0.920000
v 1.000000 -1.260000 0.960000
v 1.280000 -1.280000 0.960000
v 1.280000 -1.280000 0.920000
v 0.240000 -1.282025 0.920000
v 0.240000 -1.280405 0.960000
v 0.360000 -1.281487 0.920000
v 0.360000 -1.280191 0.960000
v -0.400000 -1.260000 0.920000
v -0.400000 -1.260000 0.960000
v -0.280000 -1.260000 0.920000
v -0.280000 -1.260000 0.960000
v -1.040000 -1.280000 0.920000
v -1.040000 -1.280000 0.960000
v -0.920000 -1.280000 0.920000
v -0.920000 -1.280000 0.960000
v -1.000000 -1.280000 1.240000
v -0.960000 -1.280000 1.240000
v -1.000000 -1.280000 0.600000
v -0.960000 -1.280000 0.600000
v -1.000000 -1.280000 0.640000
v -0.960000 -1.280000 0.640000
v -1.000000 -1.280000 0.000000
v -0.960000 -1.280000 0.000000
v -1.000000 -1.280000 1.280000
v -0.960000 -1.280000 1.280000
v -1.000000 -1.280000 1.200000
v -0.960000 -1.280000 1.200000
v -1.000000 -1.280000 0.680000
v -0.960000 -1.280000 0.680000
v -1.000000 -1.260000 0.560000
v -0.960000 -1.260000 0.560000
v -1.000000 -1.260000 0.040000
v -0.960000 -1.260000 0.040000
v -1.000000 -1.260000 0.360000
v -0.960000 -1.260000 0.360000
v -1.000000 -1.260000 0.240000
v -0.960000 -1.260000 0.240000
v -1.000000 -1.280000 1.000000
v -0.960000 -1.280000 1.000000
v -1.000000 -1.280000 0.880000
v -0.960000 -1.280000 0.880000
v -1.000000 -1.280000 0.920000
v -0.960000 -1.280000 0.920000
v -1.000000 -1.280000 0.960000
v -0.960000 -1.280000 0.960000
v -0.360000 -1.280000 1.240000
v -0.320000 -1.280000 1.240000
v -0.360000 -1.295666 0.600000
v -0.320000 -1.299581 0.600000
v -0.360000 -1.292238 0.640000
v -0.320000 -1.295666 0.640000
v -0.360000 -1.315800 0.000000
v -0.320000 -1.322146 0.000000
v -0.360000 -1.280000 1.280000
v -0.320000 -1.280000 1.280000
v -0.360000 -1.260000 1.200000
v -0.320000 -1.260000 1.200000
v -0.360000 -1.288985 0.680000
v -0.320000 -1.291904 0.680000
v -0.360000 -1.299145 0.560000
v -0.320000 -1.303518 0.560000
v -0.360000 -1.316117 0.040000
v -0.320000 -1.322499 0.040000
v -0.360000 -1.322395 0.360000
v -0.320000 -1.322395 0.360000
v -0.360000 -1.316117 0.240000
v -0.320000 -1.322499 0.240000
v -0.360000 -1.260000 1.000000
v -0.320000 -1.260000 1.000000
v -0.360000 -1.280000 0.880000
v -0.320000 -1.280121 0.880000
v -0.360000 -1.260000 0.920000
v -0.320000 -1.260000 0.920000
v -0.360000 -1.260000 0.960000
v -0.320000 -1.260000 0.960000
v 0.280000 -1.280000 1.240000
v 0.320000 -1.280000 1.240000
v 0.280000 -1.322146 0.600000
v 0.320000 -1.321098 0.600000
v 0.280000 -1.315800 0.640000
v 0.320000 -1.314859 0.640000
v 0.280000 -1.358708 0.000000
v 0.320000 -1.356869 0.000000
v 0.280000 -1.280000 1.280000
v 0.320000 -1.280000 1.280000
v 0.280000 -1.280000 1.200000
v 0.320000 -1.280000 1.200000
v 0.280000 -1.309543 0.680000
v 0.320000 -1.308709 0.680000
v 0.280000 -1.328435 0.560000
v 0.320000 -1.327280 0.560000
v 0.280000 -1.359344 0.040000
v 0.320000 -1.357472 0.040000
v 0.280000 -1.322395 0.360000
v 0.320000 -1.322395 0.360000
v 0.280000 -1.359344 0.240000
v 0.320000 -1.357472 0.240000
v 0.280000 -1.280000 1.000000
v 0.320000 -1.280000 1.000000
v 0.280000 -1.284648 0.880000
v 0.320000 -1.284354 0.880000
v 0.280000 -1.281961 0.920000
v 0.320000 -1.281776 0.920000
v 0.280000 -1.280378 0.960000
v 0.320000 -1.280300 0.960000
v 0.920000 -1.280000 1.240000
v 0.960000 -1.280000 1.240000
v 0.920000 -1.280000 0.600000
v 0.960000 -1.280000 0.600000
v 0.920000 -1.280000 0.640000
v 0.960000 -1.280000 0.640000
v 0.920000 -1.281961 0.000000
v 0.960000 -1.280378 0.000000
v 0.920000 -1.280000 1.280000
v 0.960000 -1.280000 1.280000
v 0.920000 -1.260000 1.200000
v 0.960000 -1.260000 1.200000
v 0.920000 -1.260000 0.680000
v 0.960000 -1.260000 0.680000
v 0.920000 -1.280000 0.560000
v 0.960000 -1.280000 0.560000
v 0.920000 -1.282025 0.040000
v 0.960000 -1.280405 0.040000
v 0.920000 -1.281487 0.360000
v 0.960000 -1.280191 0.360000
v 0.920000 -1.282025 0.240000
v 0.960000 -1.280405 0.240000
v 0.920000 -1.260000 1.000000
v 0.960000 -1.260000 1.000000
v 0.920000 -1.260000 0.880000
v 0.960000 -1.260000 0.880000
v 0.920000 -1.260000 0.920000
v 0.960000 -1.260000 0.920000
v 0.920000 -1.260000 0.960000
v 0.960000 -1.260000 0.960000
v 0.680000 -1.309543 0.280000
v 0.680000 -1.308709 0.320000
v 0.560000 -1.328435 0.280000
v 0.560000 -1.327280 0.320000
v 0.040000 -1.359344 0.280000
v 0.040000 -1.357472 0.320000
v -0.080000 -1.335490 0.280000
v -0.080000 -1.333818 0.320000
v -0.600000 -1.284648 0.280000
v -0.600000 -1.284354 0.320000
v -0.720000 -1.260000 0.280000
v -0.720000 -1.260000 0.320000
v -1.240000 -1.260000 0.280000
v -1.240000 -1.260000 0.320000
v -1.280000 -1.280000 0.280000
v -1.280000 -1.280000 0.320000
v 0.640000 -1.315800 0.280000
v 0.640000 -1.314859 0.320000
v 0.000000 -1.358708 0.280000
v 0.000000 -1.356869 0.320000
v -0.640000 -1.281961 0.280000
v -0.640000 -1.281776 0.320000
v -0.040000 -1.356869 0.280000
v -0.040000 -1.355104 0.320000
v -0.680000 -1.280377 0.280000
v -0.680000 -1.280300 0.320000
v 0.600000 -1.322146 0.280000
v 0.600000 -1.321098 0.320000
v 1.240000 -1.280000 0.280000
v 1.240000 -1.280000 0.320000
v 1.200000 -1.280000 0.280000
v 1.200000 -1.280000 0.320000
v 0.880000 -1.284648 0.280000
v 0.880000 -1.284354 0.320000
v 1.000000 -1.280000 0.280000
v 1.000000 -1.280000 0.320000
v 1.280000 -1.280000 0.320000
v 1.280000 -1.280000 0.280000
v 0.240000 -1.359344 0.280000
v 0.240000 -1.357472 0.320000
v 0.360000 -1.353961 0.280000
v 0.360000 -1.352288 0.320000
v -0.400000 -1.309543 0.280000
v -0.400000 -1.308709 0.320000
v -0.280000 -1.328435 0.280000
v -0.280000 -1.327280 0.320000
v -1.040000 -1.260000 0.280000
v -1.040000 -1.260000 0.320000
v -0.920000 -1.260000 0.280000
v -0.920000 -1.260000 0.320000
v -0.960000 -1.260000 0.280000
v -0.960000 -1.260000 0.320000
v -1.000000 -1.260000 0.280000
v -1.000000 -1.260000 0.320000
v -0.320000 -1.322146 0.280000
v -0.320000 -1.321098 0.320000
v -0.360000 -1.315800 0.280000
v -0.360000 -1.314859 0.320000
v 0.320000 -1.356869 0.280000
v 0.320000 -1.355104 0.320000
v 0.280000 -1.358708 0.280000
v 0.280000 -1.356869 0.320000
v 0.960000 -1.280377 0.280000
v 0.960000 -1.280300 0.320000
v 0.920000 -1.281961 0.280000
v 0.920000 -1.281776 0.320000
v 1.280000 -1.280000 0.122222
v 0.680000 -1.309824 0.122222
v 0.560000 -1.309824 0.122222
v 0.040000 -1.309824 0.122222
v -0.080000 -1.309824 0.122222
v -0.600000 -1.284748 0.122222
v -0.720000 -1.260000 0.122222
v -1.240000 -1.260000 0.122222
v -1.280000 -1.280000 0.122222
v 0.640000 -1.309824 0.122222
v 0.000000 -1.309824 0.122222
v -0.640000 -1.282025 0.122222
v -0.040000 -1.309824 0.122222
v -0.680000 -1.280405 0.122222
v 0.600000 -1.309824 0.122222
v 1.240000 -1.280000 0.122222
v 1.200000 -1.260000 0.122222
v 0.880000 -1.284748 0.122222
v 1.000000 -1.260000 0.122222
v 0.240000 -1.309824 0.122222
v 0.360000 -1.309824 0.122222
v -0.400000 -1.309824 0.122222
v -0.280000 -1.309824 0.122222
v -1.040000 -1.260000 0.122222
v -0.920000 -1.260000 0.122222
v -0.960000 -1.260000 0.122222
v -1.000000 -1.260000 0.122222
v -0.320000 -1.309824 0.122222
v -0.360000 -1.309824 0.122222
v 0.320000 -1.309824 0.122222
v 0.280000 -1.309824 0.122222
v 0.960000 -1.280405 0.122222
v 0.920000 -1.282025 0.122222
v 0.680000 -1.309824 0.159300
v 0.560000 -1.309824 0.159300
v 0.040000 -1.309824 0.159300
v -0.080000 -1.309824 0.159300
v -0.600000 -1.284748 0.159300
v -0.720000 -1.260000 0.159300
v -1.240000 -1.260000 0.159300
v -1.280000 -1.280000 0.159300
v 0.640000 -1.309824 0.159300
v 0.000000 -1.309824 0.159300
v -0.640000 -1.282025 0.159300
v -0.040000 -1.309824 0.159300
v -0.680000 -1.280405 0.159300
v 0.600000 -1.309824 0.159300
v 1.240000 -1.280000 0.159300
v 1.200000 -1.260000 0.159300
v 0.880000 -1.284748 0.159300
v 1.000000 -1.260000 0.159300
v 0.240000 -1.309824 0.159300
v 0.360000 -1.309824 0.159300
v -0.400000 -1.309824 0.159300
v -0.280000 -1.309824 0.159300
v -1.040000 -1.260000 0.159300
v -0.920000 -1.260000 0.159300
v -0.960000 -1.260000 0.159300
v -1.000000 -1.260000 0.159300
v -0.320000 -1.309824 0.159300
v -0.360000 -1.309824 0.159300
v 0.320000 -1.309824 0.159300
v 0.280000 -1.309824 0.159300
v 0.960000 -1.280405 0.159300
v 0.920000 -1.282025 0.159300
v 1.280000 -1.280000 0.159300
v 0.680000 -1.322395 0.399038
v 0.560000 -1.322395 0.399038
v 0.040000 -1.322395 0.399038
v -0.080000 -1.322395 0.399038
v -0.600000 -1.283231 0.399038
v -0.720000 -1.260000 0.399038
v -1.240000 -1.260000 0.399038
v -1.280000 -1.280000 0.399038
v 0.640000 -1.322395 0.399038
v 0.000000 -1.322395 0.399038
v -0.640000 -1.281197 0.399038
v -0.040000 -1.322395 0.399038
v -0.680000 -1.280153 0.399038
v 0.600000 -1.322395 0.399038
v 1.240000 -1.280000 0.399038
v 1.200000 -1.260000 0.399038
v 0.880000 -1.283231 0.399038
v 1.000000 -1.260000 0.399038
v 1.280000 -1.280000 0.399038
v 0.240000 -1.322395 0.399038
v 0.360000 -1.322395 0.399038
v -0.400000 -1.304923 0.399038
v -0.280000 -1.322395 0.399038
v -1.040000 -1.260000 0.399038
v -0.920000 -1.260000 0.399038
v -0.960000 -1.260000 0.399038
v -1.000000 -1.260000 0.399038
v -0.320000 -1.322395 0.399038
v -0.360000 -1.322395 0.399038
v 0.320000 -1.322395 0.399038
v 0.280000 -1.322395 0.399038
v 0.960000 -1.280153 0.399038
v 0.920000 -1.281197 0.399038
v 0.140000 -1.280000 1.240000
v 0.140000 -1.322499 0.600000
v 0.140000 -1.316117 0.640000
v 0.140000 -1.322395 0.000000
v 0.140000 -1.280000 1.280000
v 0.140000 -1.260000 1.200000
v 0.140000 -1.309824 0.680000
v 0.140000 -1.328825 0.560000
v 0.140000 -1.322395 0.040000
v 0.140000 -1.322395 0.360000
v 0.140000 -1.322395 0.240000
v 0.140000 -1.260000 1.000000
v 0.140000 -1.284748 0.880000
v 0.140000 -1.282025 0.920000
v 0.140000 -1.280405 0.960000
v 0.140000 -1.322395 0.280000
v 0.140000 -1.322395 0.320000
v 0.140000 -1.309824 0.122222
v 0.140000 -1.309824 0.159300
v 0.140000 -1.322395 0.399038
v 0.077755 -1.280000 1.240000
v 0.077755 -1.322499 0.600000
v 0.077755 -1.316117 0.640000
v 0.077755 -1.322395 0.000000
v 0.077755 -1.280000 1.280000
v 0.077755 -1.260000 1.200000
v 0.077755 -1.309824 0.680000
v 0.077755 -1.328825 0.560000
v 0.077755 -1.322395 0.040000
v 0.077755 -1.322395 0.360000
v 0.077755 -1.322395 0.240000
v 0.077755 -1.260000 1.000000
v 0.077755 -1.284748 0.880000
v 0.077755 -1.282025 0.920000
v 0.077755 -1.280405 0.960000
v 0.077755 -1.322395 0.280000
v 0.077755 -1.322395 0.320000
v 0.077755 -1.309824 0.122222
v 0.077755 -1.309824 0.159300
v 0.077755 -1.322395 0.399038
v -0.151649 -1.280000 1.240000
v -0.151649 -1.313704 0.600000
v -0.151649 -1.308246 0.640000
v -0.151649 -1.322395 0.000000
v -0.151649 -1.280000 1.280000
v -0.151649 -1.260000 1.200000
v -0.151649 -1.302893 0.680000
v -0.151649 -1.319127 0.560000
v -0.151649 -1.322395 0.040000
v -0.151649 -1.322395 0.360000
v -0.151649 -1.326850 0.240000
v -0.151649 -1.260000 1.000000
v -0.151649 -1.282683 0.880000
v -0.151649 -1.273790 0.920000
v -0.151649 -1.260119 0.960000
v -0.151649 -1.326346 0.280000
v -0.151649 -1.324859 0.320000
v -0.151649 -1.309824 0.122222
v -0.151649 -1.309824 0.159300
v -0.151649 -1.322395 0.399038
v 0.498584 -1.280000 1.240000
v 0.498584 -1.308392 0.600000
v 0.498584 -1.303500 0.640000
v 0.498584 -1.336274 0.000000
v 0.498584 -1.280000 1.280000
v 0.498584 -1.260000 1.200000
v 0.498584 -1.298727 0.680000
v 0.498584 -1.313267 0.560000
v 0.498584 -1.336718 0.040000
v 0.498584 -1.322395 0.360000
v 0.498584 -1.336718 0.240000
v 0.498584 -1.260000 1.000000
v 0.498584 -1.281558 0.880000
v 0.498584 -1.280457 0.920000
v 0.498584 -1.280059 0.960000
v 0.498584 -1.336274 0.280000
v 0.498584 -1.334960 0.320000
v 0.498584 -1.309824 0.122222
v 0.498584 -1.309824 0.159300
v 0.498584 -1.322395 0.399038
v 0.680000 -1.316451 0.433841
v 0.680000 -1.307288 0.487495
v 0.560000 -1.319259 0.433841
v 0.560000 -1.314424 0.487495
v 0.040000 -1.323785 0.433841
v 0.040000 -1.325928 0.487495
v -0.080000 -1.323045 0.433841
v -0.080000 -1.324046 0.487495
v -0.600000 -1.282646 0.433841
v -0.600000 -1.281745 0.487495
v -0.720000 -1.260000 0.433841
v -0.720000 -1.260000 0.487495
v -1.240000 -1.260000 0.433841
v -1.240000 -1.260000 0.487495
v -1.280000 -1.280000 0.433841
v -1.280000 -1.280000 0.487495
v 0.640000 -1.317368 0.433841
v 0.640000 -1.309618 0.487495
v 0.000000 -1.323701 0.433841
v 0.000000 -1.325714 0.487495
v -0.640000 -1.280938 0.433841
v -0.640000 -1.280539 0.487495
v -0.040000 -1.323451 0.433841
v -0.040000 -1.325080 0.487495
v -0.680000 -1.280120 0.433841
v -0.680000 -1.280069 0.487495
v 0.600000 -1.318313 0.433841
v 0.600000 -1.312021 0.487495
v 1.240000 -1.280000 0.433841
v 1.240000 -1.280000 0.487495
v 1.200000 -1.260000 0.433841
v 1.200000 -1.260000 0.487495
v 0.880000 -1.282646 0.433841
v 0.880000 -1.281745 0.487495
v 1.000000 -1.260000 0.433841
v 1.000000 -1.260000 0.487495
v 0.240000 -1.337591 0.433841
v 0.240000 -1.339734 0.487495
v 0.360000 -1.336850 0.433841
v 0.360000 -1.337852 0.487495
v -0.400000 -1.302757 0.433841
v -0.400000 -1.299417 0.487495
v -0.280000 -1.319259 0.433841
v -0.280000 -1.314424 0.487495
v -1.040000 -1.260000 0.433841
v -1.040000 -1.260000 0.487495
v -0.920000 -1.260000 0.433841
v -0.920000 -1.260000 0.487495
v -0.960000 -1.260000 0.433841
v -0.960000 -1.260000 0.487495
v -1.000000 -1.260000 0.433841
v -1.000000 -1.260000 0.487495
v -0.320000 -1.318313 0.433841
v -0.320000 -1.312021 0.487495
v -0.360000 -1.317368 0.433841
v -0.360000 -1.309618 0.487495
v 0.320000 -1.350618 0.433841
v 0.320000 -1.352247 0.487495
v 0.280000 -1.350868 0.433841
v 0.280000 -1.352881 0.487495
v 0.960000 -1.280120 0.433841
v 0.960000 -1.280069 0.487495
v 0.920000 -1.280938 0.433841
v 0.920000 -1.280539 0.487495
v 1.280000 -1.280000 0.487495
v 1.280000 -1.280000 0.433841
v 0.140000 -1.323785 0.433841
v 0.140000 -1.325928 0.487495
v 0.077755 -1.323785 0.433841
v 0.077755 -1.325928 0.487495
v -0.151649 -1.321688 0.433841
v -0.151649 -1.320599 0.487495
v 0.498584 -1.320421 0.433841
v 0.498584 -1.317379 0.487495
v 1.280000 -1.359344 0.000000
v -1.280000 -1.359344 0.000000
vt 0.156250 0.984375
vt 0.234375 0.984375
vt 0.234375 1.000000
vt 0.156250 1.000000
vt 0.156250 0.734375
vt 0.234375 0.734375
vt 0.234375 0.750000
vt 0.156250 0.750000
vt 0.156250 0.718750
vt 0.234375 0.718750
vt 0.156250 0.968750
vt 0.234375 0.968750
vt 0.265625 0.984375
vt 0.281250 0.984375
vt 0.281250 1.000000
vt 0.265625 1.000000
vt 0.265625 0.734375
vt 0.281250 0.734375
vt 0.281250 0.750000
vt 0.265625 0.750000
vt 0.265625 0.718750
vt 0.281250 0.718750
vt 0.265625 0.968750
vt 0.281250 0.968750
vt 0.469627 0.984375
vt 0.484375 0.984375
vt 0.484375 1.000000
vt 0.469627 1.000000
vt 0.469627 0.734375
vt 0.484375 0.734375
vt 0.484375 0.750000
vt 0.469627 0.750000
vt 0.469627 0.718750
vt 0.484375 0.718750
vt 0.469627 0.968750
vt 0.484375 0.968750
vt 0.515625 0.984375
vt 0.531250 0.984375
vt 0.531250 1.000000
vt 0.515625 1.000000
vt 0.515625 0.734375
vt 0.531250 0.734375
vt 0.531250 0.750000
vt 0.515625 0.750000
vt 0.515625 0.718750
vt 0.531250 0.718750
vt 0.515625 0.968750
vt 0.531250 0.968750
vt 0.656250 0.984375
vt 0.734375 0.984375
vt 0.734375 1.000000
vt 0.656250 1.000000
vt 0.656250 0.734375
vt 0.734375 0.734375
vt 0.734375 0.750000
vt 0.656250 0.750000
vt 0.656250 0.718750
vt 0.734375 0.718750
vt 0.656250 0.968750
vt 0.734375 0.968750
vt 0.765625 0.984375
vt 0.781250 0.984375
vt 0.781250 1.000000
vt 0.765625 1.000000
vt 0.765625 0.734375
vt 0.781250 0.734375
vt 0.781250 0.750000
vt 0.765625 0.750000
vt 0.765625 0.718750
vt 0.781250 0.718750
vt 0.765625 0.968750
vt 0.781250 0.968750
vt 0.906250 0.984375
vt 0.984375 0.984375
vt 0.984375 1.000000
vt 0.906250 1.000000
vt 0.906250 0.734375
vt 0.984375 0.734375
vt 0.984375 0.750000
vt 0.906250 0.750000
vt 0.906250 0.718750
vt 0.984375 0.718750
vt 0.906250 0.968750
vt 0.984375 0.968750
vt 1.000000 0.984375
vt 1.000000 1.000000
vt 0.250000 0.984375
vt 0.250000 1.000000
vt 0.500000 0.984375
vt 0.500000 1.000000
vt 0.750000 0.984375
vt 0.750000 1.000000
vt 0.750000 0.734375
vt 0.750000 0.750000
vt 0.500000 0.734375
vt 0.500000 0.750000
vt 0.250000 0.734375
vt 0.250000 0.750000
vt 1.000000 0.734375
vt 1.000000 0.750000
vt 0.250000 0.718750
vt 0.750000 0.718750
vt 0.500000 0.718750
vt 1.000000 0.718750
vt 0.250000 0.968750
vt 0.750000 0.968750
vt 0.500000 0.968750
vt 1.000000 0.968750
vt 0.000000 0.968750
vt 0.015625 0.968750
vt 0.015625 0.984375
vt 0.000000 0.984375
vt 0.000000 0.718750
vt 0.015625 0.718750
vt 0.015625 0.734375
vt 0.000000 0.734375
vt 0.015625 0.750000
vt 0.000000 0.750000
vt 0.015625 1.000000
vt 0.000000 1.000000
vt 0.000000 0.890625
vt 0.015625 0.890625
vt 0.984375 0.890625
vt 1.000000 0.890625
vt 0.234375 0.890625
vt 0.250000 0.890625
vt 0.484375 0.890625
vt 0.500000 0.890625
vt 0.734375 0.890625
vt 0.750000 0.890625
vt 0.515625 0.890625
vt 0.765625 0.890625
vt 0.265625 0.890625
vt 0.906250 0.890625
vt 0.781250 0.890625
vt 0.656250 0.890625
vt 0.531250 0.890625
vt 0.469627 0.890625
vt 0.281250 0.890625
vt 0.156250 0.890625
vt 0.234375 0.765625
vt 0.156250 0.765625
vt 0.281250 0.765625
vt 0.265625 0.765625
vt 0.484375 0.765625
vt 0.469627 0.765625
vt 0.531250 0.765625
vt 0.515625 0.765625
vt 0.734375 0.765625
vt 0.656250 0.765625
vt 0.781250 0.765625
vt 0.765625 0.765625
vt 0.984375 0.765625
vt 0.906250 0.765625
vt 0.250000 0.765625
vt 0.750000 0.765625
vt 0.500000 0.765625
vt 1.000000 0.765625
vt 0.015625 0.765625
vt 0.000000 0.765625
vt 0.000000 0.690428
vt 0.015625 0.690428
vt 0.734375 0.690428
vt 0.750000 0.690428
vt 0.484375 0.690428
vt 0.500000 0.690428
vt 0.234375 0.690428
vt 0.250000 0.690428
vt 0.984375 0.690428
vt 1.000000 0.690428
vt 0.515625 0.690428
vt 0.765625 0.690428
vt 0.265625 0.690428
vt 0.906250 0.690428
vt 0.781250 0.690428
vt 0.656250 0.690428
vt 0.531250 0.690428
vt 0.469627 0.690428
vt 0.281250 0.690428
vt 0.156250 0.690428
vt 0.156250 0.500000
vt 0.234375 0.500000
vt 0.234375 0.515625
vt 0.156250 0.515625
vt 0.265625 0.500000
vt 0.281250 0.500000
vt 0.281250 0.515625
vt 0.265625 0.515625
vt 0.469627 0.500000
vt 0.484375 0.500000
vt 0.484375 0.515625
vt 0.469627 0.515625
vt 0.515625 0.500000
vt 0.531250 0.500000
vt 0.531250 0.515625
vt 0.515625 0.515625
vt 0.656250 0.500000
vt 0.734375 0.500000
vt 0.734375 0.515625
vt 0.656250 0.515625
vt 0.765625 0.500000
vt 0.781250 0.500000
vt 0.781250 0.515625
vt 0.765625 0.515625
vt 0.906250 0.500000
vt 0.984375 0.500000
vt 0.984375 0.515625
vt 0.906250 0.515625
vt 0.250000 0.500000
vt 0.250000 0.515625
vt 0.750000 0.500000
vt 0.750000 0.515625
vt 0.500000 0.500000
vt 0.500000 0.515625
vt 1.000000 0.500000
vt 1.000000 0.515625
vt 0.000000 0.500000
vt 0.015625 0.500000
vt 0.015625 0.515625
vt 0.000000 0.515625
vt 0.031250 0.500000
vt 0.031250 0.515625
vt 0.031250 0.690428
vt 0.031250 0.718750
vt 0.031250 0.750000
vt 0.031250 0.765625
vt 0.031250 0.890625
vt 0.031250 0.968750
vt 0.031250 0.984375
vt 0.031250 0.734375
vt 0.031250 1.000000
vt 0.140625 0.500000
vt 0.140625 0.515625
vt 0.140625 0.690428
vt 0.140625 0.718750
vt 0.140625 0.750000
vt 0.140625 0.765625
vt 0.140625 0.890625
vt 0.140625 0.968750
vt 0.140625 0.984375
vt 0.140625 0.734375
vt 0.140625 1.000000
vt 0.109375 0.984375
vt 0.109375 1.000000
vt 0.109375 0.734375
vt 0.109375 0.750000
vt 0.109375 0.718750
vt 0.109375 0.968750
vt 0.109375 0.890625
vt 0.109375 0.765625
vt 0.109375 0.690428
vt 0.109375 0.500000
vt 0.109375 0.515625
vt 0.031250 0.625000
vt 0.109375 0.625000
vt 0.109375 0.640625
vt 0.031250 0.640625
vt 0.140625 0.625000
vt 0.156250 0.625000
vt 0.156250 0.640625
vt 0.140625 0.640625
vt 0.015625 0.625000
vt 0.015625 0.640625
vt 0.234375 0.625000
vt 0.234375 0.640625
vt 0.265625 0.625000
vt 0.281250 0.625000
vt 0.281250 0.640625
vt 0.265625 0.640625
vt 0.469627 0.625000
vt 0.484375 0.625000
vt 0.484375 0.640625
vt 0.469627 0.640625
vt 0.515625 0.625000
vt 0.531250 0.625000
vt 0.531250 0.640625
vt 0.515625 0.640625
vt 0.656250 0.625000
vt 0.734375 0.625000
vt 0.734375 0.640625
vt 0.656250 0.640625
vt 0.765625 0.625000
vt 0.781250 0.625000
vt 0.781250 0.640625
vt 0.765625 0.640625
vt 0.906250 0.625000
vt 0.984375 0.625000
vt 0.984375 0.640625
vt 0.906250 0.640625
vt 0.250000 0.625000
vt 0.250000 0.640625
vt 0.750000 0.625000
vt 0.750000 0.640625
vt 0.500000 0.625000
vt 0.500000 0.640625
vt 1.000000 0.625000
vt 1.000000 0.640625
vt 0.000000 0.625000
vt 0.000000 0.640625
vt 0.000000 0.562227
vt 0.015625 0.562227
vt 0.015625 0.593750
vt 0.000000 0.593750
vt 0.734375 0.562227
vt 0.750000 0.562227
vt 0.750000 0.593750
vt 0.734375 0.593750
vt 0.484375 0.562227
vt 0.500000 0.562227
vt 0.500000 0.593750
vt 0.484375 0.593750
vt 0.234375 0.562227
vt 0.250000 0.562227
vt 0.250000 0.593750
vt 0.234375 0.593750
vt 0.984375 0.562227
vt 1.000000 0.562227
vt 1.000000 0.593750
vt 0.984375 0.593750
vt 0.515625 0.562227
vt 0.515625 0.593750
vt 0.765625 0.562227
vt 0.765625 0.593750
vt 0.265625 0.562227
vt 0.265625 0.593750
vt 0.906250 0.562227
vt 0.906250 0.593750
vt 0.781250 0.562227
vt 0.781250 0.593750
vt 0.656250 0.562227
vt 0.656250 0.593750
vt 0.531250 0.562227
vt 0.531250 0.593750
vt 0.469627 0.562227
vt 0.469627 0.593750
vt 0.281250 0.562227
vt 0.281250 0.593750
vt 0.156250 0.562227
vt 0.156250 0.593750
vt 0.031250 0.562227
vt 0.031250 0.593750
vt 0.140625 0.562227
vt 0.140625 0.593750
vt 0.109375 0.562227
vt 0.109375 0.593750
vt 0.031250 0.875000
vt 0.109375 0.875000
vt 0.140625 0.875000
vt 0.156250 0.875000
vt 0.015625 0.875000
vt 0.234375 0.875000
vt 0.265625 0.875000
vt 0.281250 0.875000
vt 0.469627 0.875000
vt 0.484375 0.875000
vt 0.515625 0.875000
vt 0.531250 0.875000
vt 0.656250 0.875000
vt 0.734375 0.875000
vt 0.765625 0.875000
vt 0.781250 0.875000
vt 0.906250 0.875000
vt 0.984375 0.875000
vt 0.250000 0.875000
vt 0.750000 0.875000
vt 0.500000 0.875000
vt 1.000000 0.875000
vt 0.000000 0.875000
vt 0.015625 0.843750
vt 0.000000 0.843750
vt 1.000000 0.843750
vt 0.984375 0.843750
vt 0.250000 0.843750
vt 0.234375 0.843750
vt 0.500000 0.843750
vt 0.484375 0.843750
vt 0.750000 0.843750
vt 0.734375 0.843750
vt 0.515625 0.843750
vt 0.765625 0.843750
vt 0.265625 0.843750
vt 0.906250 0.843750
vt 0.781250 0.843750
vt 0.656250 0.843750
vt 0.531250 0.843750
vt 0.469627 0.843750
vt 0.281250 0.843750
vt 0.156250 0.843750
vt 0.031250 0.843750
vt 0.140625 0.843750
vt 0.109375 0.843750
vt 0.390625 0.765625
vt 0.406250 0.765625
vt 0.406250 0.843750
vt 0.390625 0.843750
vt 0.390625 0.875000
vt 0.406250 0.875000
vt 0.406250 0.890625
vt 0.390625 0.890625
vt 0.390625 0.562227
vt 0.406250 0.562227
vt 0.406250 0.593750
vt 0.390625 0.593750
vt 0.390625 0.625000
vt 0.406250 0.625000
vt 0.406250 0.640625
vt 0.390625 0.640625
vt 0.390625 0.500000
vt 0.406250 0.500000
vt 0.406250 0.515625
vt 0.390625 0.515625
vt 0.390625 0.690428
vt 0.406250 0.690428
vt 0.406250 0.718750
vt 0.390625 0.718750
vt 0.390625 0.750000
vt 0.406250 0.750000
vt 0.406250 0.968750
vt 0.390625 0.968750
vt 0.406250 0.984375
vt 0.390625 0.984375
vt 0.406250 0.734375
vt 0.390625 0.734375
vt 0.406250 1.000000
vt 0.390625 1.000000
vt 0.305241 0.984375
vt 0.359375 0.984375
vt 0.359375 1.000000
vt 0.305241 1.000000
vt 0.305241 0.734375
vt 0.359375 0.734375
vt 0.359375 0.750000
vt 0.305241 0.750000
vt 0.305241 0.718750
vt 0.359375 0.718750
vt 0.305241 0.968750
vt 0.359375 0.968750
vt 0.305241 0.890625
vt 0.359375 0.890625
vt 0.359375 0.765625
vt 0.305241 0.765625
vt 0.305241 0.690428
vt 0.359375 0.690428
vt 0.305241 0.500000
vt 0.359375 0.500000
vt 0.359375 0.515625
vt 0.305241 0.515625
vt 0.305241 0.625000
vt 0.359375 0.625000
vt 0.359375 0.640625
vt 0.305241 0.640625
vt 0.305241 0.562227
vt 0.359375 0.562227
vt 0.359375 0.593750
vt 0.305241 0.593750
vt 0.305241 0.875000
vt 0.359375 0.875000
vt 0.359375 0.843750
vt 0.305241 0.843750
vt 0.640625 0.765625
vt 0.640625 0.843750
vt 0.640625 0.875000
vt 0.640625 0.890625
vt 0.640625 0.562227
vt 0.640625 0.593750
vt 0.640625 0.625000
vt 0.640625 0.640625
vt 0.640625 0.500000
vt 0.640625 0.515625
vt 0.640625 0.690428
vt 0.640625 0.718750
vt 0.640625 0.750000
vt 0.640625 0.968750
vt 0.640625 0.984375
vt 0.640625 0.734375
vt 0.640625 1.000000
vt 0.559238 0.984375
vt 0.609375 0.984375
vt 0.609375 1.000000
vt 0.559238 1.000000
vt 0.559238 0.734375
vt 0.609375 0.734375
vt 0.609375 0.750000
vt 0.559238 0.750000
vt 0.559238 0.718750
vt 0.609375 0.718750
vt 0.559238 0.968750
vt 0.609375 0.968750
vt 0.559238 0.890625
vt 0.609375 0.890625
vt 0.609375 0.765625
vt 0.559238 0.765625
vt 0.559238 0.690428
vt 0.609375 0.690428
vt 0.559238 0.500000
vt 0.609375 0.500000
vt 0.609375 0.515625
vt 0.559238 0.515625
vt 0.559238 0.625000
vt 0.609375 0.625000
vt 0.609375 0.640625
vt 0.559238 0.640625
vt 0.559238 0.562227
vt 0.609375 0.562227
vt 0.609375 0.593750
vt 0.559238 0.593750
vt 0.559238 0.875000
vt 0.609375 0.875000
vt 0.609375 0.843750
vt 0.559238 0.843750
vt 0.890625 0.765625
vt 0.890625 0.843750
vt 0.890625 0.875000
vt 0.890625 0.890625
vt 0.890625 0.562227
vt 0.890625 0.593750
vt 0.890625 0.625000
vt 0.890625 0.640625
vt 0.890625 0.500000
vt 0.890625 0.515625
vt 0.890625 0.690428
vt 0.890625 0.718750
vt 0.890625 0.750000
vt 0.890625 0.968750
vt 0.890625 0.984375
vt 0.890625 0.734375
vt 0.890625 1.000000
vt 0.859375 0.984375
vt 0.859375 1.000000
vt 0.859375 0.734375
vt 0.859375 0.750000
vt 0.859375 0.718750
vt 0.859375 0.968750
vt 0.859375 0.890625
vt 0.859375 0.765625
vt 0.859375 0.690428
vt 0.859375 0.500000
vt 0.859375 0.515625
vt 0.859375 0.625000
vt 0.859375 0.640625
vt 0.859375 0.562227
vt 0.859375 0.593750
vt 0.859375 0.875000
vt 0.859375 0.843750
vt 0.859375 0.859375
vt 0.781250 0.859375
vt 0.906250 0.859375
vt 0.890625 0.859375
vt 0.609375 0.859375
vt 0.559238 0.859375
vt 0.656250 0.859375
vt 0.640625 0.859375
vt 0.359375 0.859375
vt 0.305241 0.859375
vt 0.406250 0.859375
vt 0.390625 0.859375
vt 0.015625 0.859375
vt 0.000000 0.859375
vt 1.000000 0.859375
vt 0.984375 0.859375
vt 0.250000 0.859375
vt 0.234375 0.859375
vt 0.500000 0.859375
vt 0.484375 0.859375
vt 0.750000 0.859375
vt 0.734375 0.859375
vt 0.515625 0.859375
vt 0.765625 0.859375
vt 0.265625 0.859375
vt 0.531250 0.859375
vt 0.469627 0.859375
vt 0.281250 0.859375
vt 0.156250 0.859375
vt 0.031250 0.859375
vt 0.140625 0.859375
vt 0.109375 0.859375
vt 0.875000 0.859375
vt 0.875000 0.875000
vt 0.875000 0.843750
vt 0.875000 0.984375
vt 0.875000 1.000000
vt 0.875000 0.734375
vt 0.875000 0.750000
vt 0.875000 0.718750
vt 0.875000 0.968750
vt 0.875000 0.890625
vt 0.875000 0.765625
vt 0.875000 0.690428
vt 0.875000 0.500000
vt 0.875000 0.515625
vt 0.875000 0.625000
vt 0.875000 0.640625
vt 0.875000 0.562227
vt 0.875000 0.593750
vt 0.625000 0.859375
vt 0.625000 0.875000
vt 0.625000 0.843750
vt 0.625000 0.984375
vt 0.625000 1.000000
vt 0.625000 0.734375
vt 0.625000 0.750000
vt 0.625000 0.718750
vt 0.625000 0.968750
vt 0.625000 0.890625
vt 0.625000 0.765625
vt 0.625000 0.690428
vt 0.625000 0.500000
vt 0.625000 0.515625
vt 0.625000 0.625000
vt 0.625000 0.640625
vt 0.625000 0.562227
vt 0.625000 0.593750
vt 0.375000 0.859375
vt 0.375000 0.875000
vt 0.375000 0.843750
vt 0.375000 0.984375
vt 0.375000 1.000000
vt 0.375000 0.734375
vt 0.375000 0.750000
vt 0.375000 0.718750
vt 0.375000 0.968750
vt 0.375000 0.890625
vt 0.375000 0.765625
vt 0.375000 0.690428
vt 0.375000 0.500000
vt 0.375000 0.515625
vt 0.375000 0.625000
vt 0.375000 0.640625
vt 0.375000 0.562227
vt 0.375000 0.593750
vt 0.125000 0.859375
vt 0.125000 0.875000
vt 0.125000 0.843750
vt 0.125000 0.765625
vt 0.125000 0.890625
vt 0.125000 0.562227
vt 0.125000 0.593750
vt 0.125000 0.625000
vt 0.125000 0.640625
vt 0.125000 0.984375
vt 0.125000 1.000000
vt 0.125000 0.734375
vt 0.125000 0.750000
vt 0.125000 0.718750
vt 0.125000 0.968750
vt 0.125000 0.690428
vt 0.125000 0.500000
vt 0.125000 0.515625
vt 0.140625 0.609375
vt 0.125000 0.609375
vt 0.109375 0.609375
vt 0.390625 0.609375
vt 0.375000 0.609375
vt 0.359375 0.609375
vt 0.640625 0.609375
vt 0.625000 0.609375
vt 0.609375 0.609375
vt 0.890625 0.609375
vt 0.875000 0.609375
vt 0.859375 0.609375
vt 0.781250 0.609375
vt 0.906250 0.609375
vt 0.559238 0.609375
vt 0.656250 0.609375
vt 0.305241 0.609375
vt 0.406250 0.609375
vt 0.015625 0.609375
vt 0.000000 0.609375
vt 0.750000 0.609375
vt 0.734375 0.609375
vt 0.500000 0.609375
vt 0.484375 0.609375
vt 0.250000 0.609375
vt 0.234375 0.609375
vt 1.000000 0.609375
vt 0.984375 0.609375
vt 0.515625 0.609375
vt 0.765625 0.609375
vt 0.265625 0.609375
vt 0.531250 0.609375
vt 0.469627 0.609375
vt 0.281250 0.609375
vt 0.156250 0.609375
vt 0.031250 0.609375
vt 0.140625 0.547743
vt 0.125000 0.547743
vt 0.109375 0.547743
vt 0.390625 0.547743
vt 0.375000 0.547743
vt 0.359375 0.547743
vt 0.640625 0.547743
vt 0.625000 0.547743
vt 0.609375 0.547743
vt 0.890625 0.547743
vt 0.875000 0.547743
vt 0.859375 0.547743
vt 0.781250 0.547743
vt 0.906250 0.547743
vt 0.559238 0.547743
vt 0.656250 0.547743
vt 0.305241 0.547743
vt 0.406250 0.547743
vt 0.031250 0.547743
vt 0.156250 0.547743
vt 0.015625 0.547743
vt 0.234375 0.547743
vt 0.281250 0.547743
vt 0.265625 0.547743
vt 0.484375 0.547743
vt 0.469627 0.547743
vt 0.531250 0.547743
vt 0.515625 0.547743
vt 0.734375 0.547743
vt 0.765625 0.547743
vt 0.984375 0.547743
vt 0.250000 0.547743
vt 0.750000 0.547743
vt 0.500000 0.547743
vt 1.000000 0.547743
vt 0.000000 0.547743
vt 0.140625 0.655874
vt 0.125000 0.655874
vt 0.109375 0.655874
vt 0.390625 0.655874
vt 0.375000 0.655874
vt 0.359375 0.655874
vt 0.640625 0.655874
vt 0.625000 0.655874
vt 0.609375 0.655874
vt 0.890625 0.655874
vt 0.875000 0.655874
vt 0.859375 0.655874
vt 0.781250 0.655874
vt 0.906250 0.655874
vt 0.559238 0.655874
vt 0.656250 0.655874
vt 0.305241 0.655874
vt 0.406250 0.655874
vt 0.031250 0.655874
vt 0.156250 0.655874
vt 0.015625 0.655874
vt 0.234375 0.655874
vt 0.281250 0.655874
vt 0.265625 0.655874
vt 0.484375 0.655874
vt 0.469627 0.655874
vt 0.531250 0.655874
vt 0.515625 0.655874
vt 0.734375 0.655874
vt 0.765625 0.655874
vt 0.984375 0.655874
vt 0.250000 0.655874
vt 0.750000 0.655874
vt 0.500000 0.655874
vt 1.000000 0.655874
vt 0.000000 0.655874
vt 0.445312 0.640625
vt 0.445313 0.655874
vt 0.445313 0.547743
vt 0.445313 0.562227
vt 0.445313 0.515625
vt 0.445312 0.609375
vt 0.445312 0.625000
vt 0.445313 0.593750
vt 0.445313 0.859375
vt 0.445313 0.875000
vt 0.445312 0.843750
vt 0.445312 0.765625
vt 0.445312 0.890625
vt 0.445312 0.500000
vt 0.445312 0.690428
vt 0.445312 0.718750
vt 0.445312 0.750000
vt 0.445312 0.968750
vt 0.445312 0.984375
vt 0.445312 0.734375
vt 0.445312 1.000000
vt 0.305241 0.669469
vt 0.281250 0.669469
vt 0.559238 0.669469
vt 0.531250 0.669469
vt 0.469627 0.669469
vt 0.445312 0.669469
vt 0.406250 0.669469
vt 0.140625 0.669469
vt 0.125000 0.669469
vt 0.109375 0.669469
vt 0.390625 0.669469
vt 0.375000 0.669469
vt 0.359375 0.669469
vt 0.640625 0.669469
vt 0.625000 0.669469
vt 0.609375 0.669469
vt 0.890625 0.669469
vt 0.875000 0.669469
vt 0.859375 0.669469
vt 0.781250 0.669469
vt 0.906250 0.669469
vt 0.656250 0.669469
vt 0.031250 0.669469
vt 0.156250 0.669469
vt 0.015625 0.669469
vt 0.234375 0.669469
vt 0.265625 0.669469
vt 0.484375 0.669469
vt 0.515625 0.669469
vt 0.734375 0.669469
vt 0.765625 0.669469
vt 0.984375 0.669469
vt 0.250000 0.669469
vt 0.750000 0.669469
vt 0.500000 0.669469
vt 1.000000 0.669469
vt 0.000000 0.669469
vt 0.039719 0.504528
vt 0.024303 0.504528
vt 0.008886 0.504528
vt 0.008886 0.496613
vt 0.409711 0.496613
vt 0.394294 0.496677
vt 0.378878 0.496860
vt 0.363462 0.497150
vt 0.310050 0.498914
vt 0.286380 0.499696
vt 0.270964 0.500324
vt 0.255547 0.500957
vt 0.240131 0.501581
vt 0.163050 0.504064
vt 0.147633 0.504332
vt 0.132217 0.504490
vt 0.116801 0.504528
vt 0.560655 0.500299
vt 0.533041 0.500299
vt 0.517625 0.496860
vt 0.995530 0.496613
vt 0.995530 0.504528
vt 0.980114 0.504528
vt 0.903032 0.504528
vt 0.887616 0.504528
vt 0.872200 0.504528
vt 0.856784 0.504528
vt 0.779702 0.504528
vt 0.764286 0.504490
vt 0.748869 0.504332
vt 0.733453 0.504064
vt 0.656372 0.501581
vt 0.640955 0.500957
vt 0.625539 0.500324
vt 0.610123 0.499696
vt 0.448251 0.500299
vt 0.486792 0.496613
vt 0.472241 0.500299
vn 0.000000 1.000000 0.000000
vn -0.051800 0.997900 -0.037900
vn -0.065200 0.997000 -0.042400
vn 0.000000 0.894400 0.447200
vn -0.091800 0.990500 -0.102600
vn -0.102800 0.989400 -0.102800
vn 0.235700 0.942800 0.235700
vn 0.000000 0.987500 -0.157600
vn 0.000000 0.987700 -0.156200
vn 0.040000 0.987600 -0.151900
vn 0.044300 0.987600 -0.150500
vn 0.051800 0.997900 -0.037900
vn 0.065200 0.997000 -0.042400
vn 0.001500 1.000000 -0.001500
vn 0.008300 0.987500 -0.157100
vn -0.087100 0.993100 -0.078800
vn 0.024600 0.987600 -0.155300
vn -0.091000 0.991700 -0.091000
vn -0.102600 0.990500 -0.091800
vn 0.027200 0.987700 -0.154000
vn -0.235700 0.942800 0.235700
vn -0.099200 0.991800 -0.080300
vn 0.009200 0.987800 -0.155700
vn 0.008100 1.000000 -0.005100
vn -0.447200 0.894400 0.000000
vn 0.447200 0.894400 0.000000
vn -0.038100 0.998700 -0.033900
vn -0.080300 0.991800 -0.099200
vn 0.000000 0.987800 -0.155400
vn 0.035700 0.988100 -0.149800
vn 0.038100 0.998700 -0.033900
vn 0.235700 0.942800 -0.235700
vn 0.000000 0.894400 -0.447200
vn -0.078800 0.993100 -0.087100
vn 0.021900 0.987900 -0.153200
vn 0.007400 0.987900 -0.155000
vn -0.074200 0.994500 -0.074200
vn -0.235700 0.942800 -0.235700
vn 0.021700 0.999700 -0.012100
vn 0.007500 0.999200 0.038700
vn -0.080900 0.984600 -0.155200
vn 0.022300 0.999200 0.033900
vn 0.005900 1.000000 -0.004200
vn -0.083700 0.988100 -0.129300
vn 0.447800 0.894100 -0.000400
vn 0.079800 0.996000 -0.039400
vn 0.036400 0.999000 0.024500
vn 0.000000 0.999200 0.039900
vn -0.083900 0.991200 -0.102800
vn -0.098900 0.990800 -0.092900
vn -0.124000 0.992300 0.004700
vn -0.155700 0.987800 0.009200
vn -0.702600 0.711600 0.005800
vn 0.656100 0.754700 0.005700
vn 0.124000 0.992300 0.004700
vn 0.244400 0.940800 -0.234900
vn -0.157100 0.987500 0.008300
vn 0.040000 0.999200 0.001100
vn 0.046300 0.998800 0.015500
vn -0.155000 0.987900 0.007400
vn 0.016200 0.999700 0.016200
vn 0.067500 0.997700 0.002000
vn -0.067500 0.997700 0.002000
vn -0.021700 0.999700 -0.012100
vn -0.008100 1.000000 -0.005100
vn -0.001500 1.000000 -0.001500
vn -0.062100 0.998000 -0.009400
vn -0.153200 0.975000 0.161100
vn -0.077000 0.996000 -0.044700
vn -0.391500 0.842700 -0.369500
vn 0.226900 0.852800 -0.470400
vn 0.118700 0.992700 -0.022600
vn 0.451600 0.892200 -0.001200
vn -0.077300 0.991000 0.109400
vn 0.034600 0.999400 -0.005000
vn 0.016900 0.765700 -0.643000
vn -0.074100 0.963900 0.255700
vn 0.005700 0.754700 -0.656100
vn 0.062100 0.998000 -0.009400
vn 0.067900 0.997700 0.000000
vn 0.007000 0.850800 0.525500
vn -0.078400 0.996200 0.038800
vn 0.020000 0.856500 0.515700
vn 0.040500 0.999200 -0.000000
vn -0.079000 0.990100 0.116400
vn 0.454400 0.890800 -0.000000
vn 0.124400 0.992200 0.000000
vn 0.236500 0.883500 0.404400
vn -0.421000 0.845400 0.328700
vn -0.077400 0.978300 0.192000
vn -0.124400 0.992200 0.000000
vn -0.067900 0.997700 0.000000
vn 0.000000 0.890800 -0.454400
vn 0.448200 0.893900 -0.005400
vn 0.001000 1.000000 -0.008500
vn -0.234900 0.940800 -0.244400
vn -0.033900 0.998700 -0.038100
vn 0.004700 0.992300 -0.124000
vn 0.014000 0.992400 -0.122200
vn -0.037900 0.997900 -0.051800
vn 0.015700 0.999800 -0.015700
vn 0.022600 0.992700 -0.118700
vn 0.000000 0.992200 -0.124400
vn -0.042400 0.997000 -0.065200
vn -0.015700 0.999800 -0.015700
vn -0.004700 0.992300 -0.124000
vn 0.234900 0.940800 -0.244400
vn -0.007000 0.850800 0.525500
vn -0.005700 0.754700 -0.656100
vn -0.016200 0.999700 0.016200
vn 0.153100 0.960100 -0.234100
vn -0.007400 0.987900 -0.155000
vn -0.009200 0.987800 -0.155700
vn -0.008300 0.987500 -0.157100
vn -0.074200 0.988000 -0.135300
vn -0.082400 0.987500 -0.134300
vn -0.065800 0.988900 -0.132900
vn -0.116100 0.986800 -0.112700
vn -0.127000 0.991800 0.012600
vn -0.055100 0.882000 -0.468100
vn -0.058600 0.912500 0.404800
vn -0.000400 0.893300 -0.449400
vn -0.039300 0.994100 -0.101000
vn 0.033900 0.998700 -0.038100
vn 0.078400 0.996200 0.038800
vn 0.255400 0.964000 0.074500
vn 0.155000 0.987900 0.007400
vn 0.176700 0.979000 -0.101200
vn 0.074200 0.994500 -0.074200
vn 0.099200 0.991800 -0.080300
vn 0.087100 0.993100 -0.078800
vn 0.074400 0.989800 -0.121600
vn 0.082600 0.989200 -0.121100
vn 0.066000 0.990700 -0.118800
vn 0.067600 0.996200 -0.055000
vn -0.048500 0.998800 0.004900
vn -0.009400 0.995800 -0.091500
vn -0.007500 0.976000 0.217900
vn 0.000500 1.000000 -0.001500
vn 0.039300 0.995500 -0.086100
vn 0.058200 0.937000 -0.344600
vn 0.053300 0.984300 -0.168200
vn -0.012100 0.999000 -0.043700
vn -0.004200 0.999800 -0.021200
vn -0.002000 0.997700 -0.067500
vn -0.001100 0.999200 -0.040000
vn 0.002000 0.997700 -0.067500
vn 0.001100 0.999200 -0.040000
vn 0.006000 0.997800 -0.065700
vn 0.003300 0.999300 -0.038200
vn 0.009400 0.998000 -0.062100
vn 0.238200 0.934100 -0.265900
vn 0.000000 0.997700 -0.067900
vn 0.000000 0.999200 -0.040500
vn -0.005100 1.000000 -0.008100
vn 0.004500 0.891500 -0.453000
vn 0.001400 0.893900 -0.448300
vn 0.091800 0.990500 -0.102600
vn 0.091000 0.991700 -0.091000
vn 0.102800 0.989400 -0.102800
vn 0.102600 0.990500 -0.091800
vn 0.080300 0.991800 -0.099200
vn 0.078800 0.993100 -0.087100
vn 0.083900 0.991200 -0.102800
vn 0.083700 0.988100 -0.129300
vn 0.155700 0.987800 0.009200
vn 0.157100 0.987500 0.008300
vn 0.077000 0.996000 -0.044700
vn 0.077300 0.991000 0.109400
vn 0.077400 0.978300 0.192000
vn 0.079000 0.990100 0.116400
vn 0.042400 0.997000 -0.065200
vn 0.037900 0.997900 -0.051800
vn -0.005000 0.999400 -0.034600
vn -0.003300 0.999300 -0.038200
vn -0.009400 0.998000 -0.062100
vn -0.006000 0.997800 -0.065700
vn -0.040000 0.987600 -0.151900
vn -0.024600 0.987600 -0.155300
vn -0.044300 0.987600 -0.150500
vn -0.027200 0.987700 -0.154000
vn -0.035700 0.988100 -0.149700
vn -0.021900 0.987900 -0.153200
vn -0.193300 0.950000 -0.245100
vn -0.021200 0.946300 -0.322500
vn -0.072900 0.997200 0.014600
vn -0.046300 0.998800 0.015500
vn -0.027700 0.787200 -0.616000
vn -0.016900 0.765700 -0.643000
vn -0.031900 0.867500 0.496400
vn -0.020000 0.856500 0.515700
vn -0.236600 0.941200 -0.241100
vn -0.001000 1.000000 -0.008500
vn -0.022600 0.992700 -0.118700
vn -0.014000 0.992400 -0.122200
vn -0.454400 0.890800 -0.000000
vn -0.040500 0.999200 -0.000000
vn -0.241100 0.941200 -0.236600
vn -0.034600 0.999400 -0.005000
vn -0.447800 0.894100 -0.000400
vn -0.005900 1.000000 -0.004200
vn -0.244400 0.940800 -0.234900
vn -0.040000 0.999200 0.001100
vn -0.040000 0.999200 -0.001100
vn -0.038200 0.999300 -0.003300
vn -0.244400 0.940800 0.234900
vn -0.008500 1.000000 -0.001000
vn -0.046300 0.998800 -0.015500
vn -0.045000 0.998000 -0.045000
vn -0.072900 0.997200 -0.014600
vn -0.071300 0.996500 -0.042800
vn 0.157100 0.987500 -0.008300
vn 0.155300 0.987600 -0.024500
vn 0.155700 0.987800 -0.009200
vn 0.154000 0.987700 -0.027200
vn -0.015800 0.999800 -0.011200
vn -0.017600 0.999300 -0.033000
vn 0.155000 0.987900 -0.007400
vn 0.153200 0.987900 -0.021900
vn -0.127000 0.991800 -0.012600
vn -0.125300 0.991400 -0.037000
vn -0.016200 0.999700 -0.016200
vn -0.015500 0.998800 -0.046300
vn 0.067500 0.997700 -0.002100
vn 0.065700 0.997800 -0.006000
vn 0.016200 0.999700 -0.016200
vn 0.015500 0.998800 -0.046300
vn -0.155000 0.987900 -0.007400
vn -0.153200 0.987900 -0.021900
vn 0.046300 0.998800 -0.015500
vn 0.045000 0.998000 -0.045000
vn 0.040000 0.999200 -0.001100
vn 0.038200 0.999300 -0.003300
vn -0.157100 0.987500 -0.008300
vn -0.155300 0.987600 -0.024600
vn 0.454200 0.890900 -0.000300
vn 0.453200 0.891400 -0.000900
vn 0.124000 0.992300 -0.004700
vn 0.122200 0.992400 -0.014000
vn 0.471600 0.881700 -0.012900
vn 0.470200 0.881700 -0.037900
vn -0.702600 0.711600 -0.005800
vn -0.690100 0.723500 -0.016900
vn -0.155700 0.987800 -0.009200
vn -0.154000 0.987700 -0.027200
vn -0.124000 0.992300 -0.004700
vn -0.122200 0.992400 -0.014000
vn -0.067500 0.997700 -0.002100
vn -0.065700 0.997800 -0.006000
vn -0.020100 0.860800 -0.508600
vn -0.032100 0.871500 -0.489400
vn 0.079000 0.990300 -0.114200
vn 0.077400 0.979000 -0.188600
vn -0.024600 0.981800 -0.188500
vn 0.078400 0.996200 -0.038100
vn -0.058800 0.915300 -0.398500
vn -0.007000 0.855100 -0.518400
vn -0.077400 0.979000 -0.188600
vn -0.421900 0.847100 -0.323200
vn 0.380700 0.868300 -0.318000
vn -0.079000 0.990300 -0.114200
vn 0.020100 0.860800 -0.508600
vn -0.078400 0.996200 -0.038100
vn 0.007000 0.855100 -0.518400
vn -0.029200 0.999600 -0.004200
vn -0.450300 0.892900 -0.000400
vn 0.376400 0.926000 -0.028800
vn -0.055300 0.998400 -0.012100
vn -0.190600 0.981600 -0.008200
vn 0.112100 0.992900 -0.039200
vn 0.450300 0.892900 -0.000400
vn 0.029200 0.999600 -0.004200
vn 0.055300 0.998400 -0.012100
vn 0.173000 0.920200 -0.351100
vn 0.338700 0.940600 -0.022000
vn 0.349300 0.937000 -0.007700
vn 0.172600 0.918100 0.356900
vn 0.158600 0.904200 -0.396500
vn 0.349300 0.937000 0.007700
vn 0.068800 0.996100 -0.055000
vn 0.000000 0.988500 -0.151100
vn 0.000000 0.988100 0.153900
vn 0.125200 0.991400 -0.039200
vn 0.127000 0.991800 -0.013300
vn 0.049600 0.915100 -0.400100
vn 0.061400 0.988300 -0.139500
vn 0.039300 0.993300 -0.108500
vn 0.000500 1.000000 -0.003800
vn 0.062000 0.964000 0.258400
vn 0.061500 0.983400 -0.170700
vn 0.067700 0.997700 -0.000800
vn 0.065800 0.988000 -0.139900
vn 0.082300 0.986600 -0.141000
vn 0.074200 0.987100 -0.142200
vn -0.061800 0.961400 -0.268300
vn -0.125300 0.991600 -0.030600
vn -0.127000 0.991800 -0.010300
vn -0.004200 1.000000 -0.005000
vn -0.012100 0.999700 -0.020400
vn -0.039400 0.996100 -0.078600
vn -0.000400 0.894200 -0.447700
vn -0.061700 0.960000 0.273000
vn -0.061000 0.975200 -0.212700
vn -0.127000 0.991800 0.010300
vn -0.067500 0.995000 -0.073000
vn -0.066000 0.991500 -0.111700
vn -0.082600 0.990000 -0.114400
vn -0.074400 0.990600 -0.114700
vn -0.009400 0.997300 -0.073200
vn -0.033400 0.996800 -0.073200
vn 0.009500 1.000000 -0.000800
vn 0.033500 0.999400 -0.000800
vn 0.067000 0.970600 0.231300
vn 0.136700 0.989800 0.039500
vn -0.023300 0.999700 -0.004200
vn -0.016100 0.999900 -0.004200
vn -0.449700 0.893200 -0.000400
vn -0.448900 0.893600 -0.000400
vn -0.002400 0.775300 0.631500
vn -0.011000 0.999400 0.033900
vn -0.145200 0.843500 0.517200
vn -0.332000 0.943000 0.023100
vn 0.011700 0.991500 -0.129700
vn 0.041500 0.990700 -0.129600
vn 0.011800 0.994600 -0.103100
vn 0.041600 0.993800 -0.103100
vn 0.009400 0.998400 -0.055100
vn 0.033400 0.997900 -0.055100
vn 0.370500 0.923900 -0.095500
vn 0.294800 0.950500 -0.098200
vn -0.058200 0.982600 0.176200
vn -0.132000 0.991100 -0.018900
vn 0.139200 0.838800 0.526300
vn 0.313400 0.948900 0.036800
vn -0.046700 0.998800 -0.012100
vn -0.036400 0.999300 -0.012100
vn -0.178700 0.979600 -0.091900
vn -0.146100 0.984900 -0.092400
vn -0.011800 0.994600 -0.103100
vn -0.041600 0.993800 -0.103100
vn 0.005100 0.999700 0.024500
vn 0.018000 0.999500 0.024500
vn 0.103900 0.993800 -0.039300
vn 0.094000 0.994800 -0.039300
vn 0.449700 0.893200 -0.000400
vn 0.448900 0.893600 -0.000400
vn -0.011700 0.991500 -0.129700
vn -0.041500 0.990700 -0.129600
vn 0.023300 0.999700 -0.004200
vn 0.016100 0.999900 -0.004200
vn 0.003100 0.999400 0.033900
vn 0.011000 0.999400 0.033900
vn -0.011300 0.987700 -0.155700
vn -0.040100 0.987000 -0.155600
vn 0.001100 0.999300 0.038700
vn 0.003700 0.999200 0.038700
vn 0.046700 0.998800 -0.012100
vn 0.036400 0.999300 -0.012100
vn 0.000000 0.000000 -1.000000
s off
f 154/1/1 6/2/1 10/3/1 158/4/1
f 155/5/2 7/6/2 8/7/2 156/8/2
f 161/9/3 113/10/3 7/6/3 155/5/3
f 159/11/4 81/12/4 6/2/4 154/1/4
f 80/13/1 11/14/1 15/15/1 62/16/1
f 72/17/5 12/18/5 13/19/5 64/20/5
f 127/21/6 114/22/6 12/18/6 72/17/6
f 95/23/7 82/24/7 11/14/7 80/13/7
f 681/25/1 16/26/1 20/27/1 685/28/1
f 682/29/8 17/30/8 18/31/8 683/32/8
f 688/33/9 115/34/9 17/30/9 682/29/9
f 686/35/4 83/36/4 16/26/4 681/25/4
f 78/37/1 21/38/1 25/39/1 56/40/1
f 70/41/10 22/42/10 23/43/10 58/44/10
f 125/45/11 116/46/11 22/42/11 70/41/11
f 93/47/7 84/48/7 21/38/7 78/37/7
f 274/49/1 26/50/1 30/51/1 278/52/1
f 275/53/12 27/54/12 28/55/12 276/56/12
f 281/57/13 117/58/13 27/54/13 275/53/13
f 279/59/4 85/60/4 26/50/4 274/49/4
f 79/61/1 31/62/1 35/63/1 59/64/1
f 71/65/1 32/66/1 33/67/1 61/68/1
f 126/69/7 118/70/7 32/66/7 71/65/7
f 94/71/7 86/72/7 31/62/7 79/61/7
f 300/73/1 36/74/1 40/75/1 304/76/1
f 301/77/1 37/78/1 38/79/1 302/80/1
f 307/81/4 119/82/4 37/78/4 301/77/4
f 305/83/4 87/84/4 36/74/4 300/73/4
f 36/74/1 73/85/1 42/86/1 40/75/1
f 6/2/1 74/87/1 45/88/1 10/3/1
f 16/26/1 75/89/1 44/90/1 20/27/1
f 26/50/1 76/91/1 43/92/1 30/51/1
f 27/54/14 69/93/14 55/94/14 28/55/14
f 17/30/15 68/95/15 53/96/15 18/31/15
f 7/6/16 67/97/16 51/98/16 8/7/16
f 37/78/1 66/99/1 49/100/1 38/79/1
f 68/95/17 70/41/17 58/44/17 53/96/17
f 75/89/1 78/37/1 56/40/1 44/90/1
f 69/93/1 71/65/1 61/68/1 55/94/1
f 76/91/1 79/61/1 59/64/1 43/92/1
f 67/97/18 72/17/18 64/20/18 51/98/18
f 74/87/1 80/13/1 62/16/1 45/88/1
f 122/101/19 127/21/19 72/17/19 67/97/19
f 124/102/1 126/69/1 71/65/1 69/93/1
f 123/103/20 125/45/20 70/41/20 68/95/20
f 119/82/21 121/104/21 66/99/21 37/78/21
f 113/10/22 122/101/22 67/97/22 7/6/22
f 115/34/23 123/103/23 68/95/23 17/30/23
f 117/58/24 124/102/24 69/93/24 27/54/24
f 90/105/1 95/23/1 80/13/1 74/87/1
f 92/106/1 94/71/1 79/61/1 76/91/1
f 91/107/1 93/47/1 78/37/1 75/89/1
f 85/60/21 92/106/21 76/91/21 26/50/21
f 83/36/21 91/107/21 75/89/21 16/26/21
f 81/12/21 90/105/21 74/87/21 6/2/21
f 87/84/21 89/108/21 73/85/21 36/74/21
f 88/109/1 96/110/1 1/111/1 77/112/1
f 120/113/1 128/114/1 2/115/1 65/116/1
f 65/116/1 2/115/1 3/117/1 46/118/1
f 77/112/1 1/111/1 5/119/1 41/120/1
f 225/121/1 224/122/1 96/110/1 88/109/1
f 216/123/25 217/124/25 89/108/25 87/84/25
f 210/125/25 218/126/25 90/105/25 81/12/25
f 212/127/25 219/128/25 91/107/25 83/36/25
f 214/129/25 220/130/25 92/106/25 85/60/25
f 219/128/1 221/131/1 93/47/1 91/107/1
f 220/130/1 222/132/1 94/71/1 92/106/1
f 218/126/1 223/133/1 95/23/1 90/105/1
f 311/134/1 216/123/1 87/84/1 305/83/1
f 222/132/26 215/135/26 86/72/26 94/71/26
f 285/136/1 214/129/1 85/60/1 279/59/1
f 221/131/26 213/137/26 84/48/26 93/47/26
f 692/138/1 212/127/1 83/36/1 686/35/1
f 223/133/26 211/139/26 82/24/26 95/23/26
f 227/140/1 210/125/1 81/12/1 159/11/1
f 156/8/27 8/7/27 98/141/27 160/142/27
f 64/20/28 13/19/28 99/143/28 111/144/28
f 683/32/29 18/31/29 100/145/29 687/146/29
f 58/44/30 23/43/30 101/147/30 109/148/30
f 276/56/31 28/55/31 102/149/31 280/150/31
f 61/68/32 33/67/32 103/151/32 110/152/32
f 302/80/33 38/79/33 104/153/33 306/154/33
f 51/98/34 64/20/34 111/144/34 106/155/34
f 55/94/1 61/68/1 110/152/1 108/156/1
f 53/96/35 58/44/35 109/148/35 107/157/35
f 28/55/1 55/94/1 108/156/1 102/149/1
f 18/31/36 53/96/36 107/157/36 100/145/36
f 8/7/37 51/98/37 106/155/37 98/141/37
f 38/79/38 49/100/38 105/158/38 104/153/38
f 46/118/1 3/117/1 112/159/1 97/160/1
f 805/161/1 770/162/1 128/114/1 120/113/1
f 750/163/39 762/164/39 124/102/39 117/58/39
f 746/165/40 760/166/40 123/103/40 115/34/40
f 742/167/41 758/168/41 122/101/41 113/10/41
f 754/169/25 756/170/25 121/104/25 119/82/25
f 760/166/42 764/171/42 125/45/42 123/103/42
f 762/164/43 766/172/43 126/69/43 124/102/43
f 758/168/44 768/173/44 127/21/44 122/101/44
f 786/174/1 754/169/1 119/82/1 307/81/1
f 766/172/45 752/175/45 118/70/45 126/69/45
f 782/176/46 750/163/46 117/58/46 281/57/46
f 764/171/47 748/177/47 116/46/47 125/45/47
f 810/178/48 746/165/48 115/34/48 688/33/48
f 768/173/49 744/179/49 114/22/49 127/21/49
f 774/180/50 742/167/50 113/10/50 161/9/50
f 157/181/51 9/182/51 130/183/51 162/184/51
f 63/185/52 14/186/52 131/187/52 143/188/52
f 684/189/53 19/190/53 132/191/53 689/192/53
f 57/193/54 24/194/54 133/195/54 141/196/54
f 277/197/55 29/198/55 134/199/55 282/200/55
f 60/201/56 34/202/56 135/203/56 142/204/56
f 303/205/33 39/206/33 136/207/33 308/208/33
f 50/209/57 63/185/57 143/188/57 138/210/57
f 54/211/58 60/201/58 142/204/58 140/212/58
f 52/213/59 57/193/59 141/196/59 139/214/59
f 39/206/38 48/215/38 137/216/38 136/207/38
f 9/182/60 50/209/60 138/210/60 130/183/60
f 19/190/61 52/213/61 139/214/61 132/191/61
f 29/198/62 54/211/62 140/212/62 134/199/62
f 47/217/1 4/218/1 144/219/1 129/220/1
f 4/218/32 148/221/32 153/222/32 144/219/32
f 770/162/26 772/223/26 152/224/26 128/114/26
f 3/117/32 147/225/32 151/226/32 112/159/32
f 224/122/26 226/227/26 150/228/26 96/110/26
f 96/110/7 150/228/7 145/229/7 1/111/7
f 128/114/7 152/224/7 146/230/7 2/115/7
f 2/115/1 146/230/1 147/225/1 3/117/1
f 1/111/1 145/229/1 149/231/1 5/119/1
f 472/232/63 157/181/63 162/184/63 482/233/63
f 804/234/64 774/180/64 161/9/64 480/235/64
f 470/236/38 156/8/38 160/142/38 478/237/38
f 488/238/1 227/140/1 159/11/1 476/239/1
f 476/239/4 159/11/4 154/1/4 466/240/4
f 480/235/65 161/9/65 155/5/65 468/241/65
f 468/241/66 155/5/66 156/8/66 470/236/66
f 466/240/1 154/1/1 158/4/1 474/242/1
f 145/229/1 163/243/1 167/244/1 149/231/1
f 146/230/1 164/245/1 165/246/1 147/225/1
f 152/224/4 170/247/4 164/245/4 146/230/4
f 150/228/4 168/248/4 163/243/4 145/229/4
f 226/227/1 228/249/1 168/248/1 150/228/1
f 147/225/33 165/246/33 169/250/33 151/226/33
f 772/223/1 776/251/1 170/247/1 152/224/1
f 148/221/33 166/252/33 171/253/33 153/222/33
f 527/254/33 531/255/33 190/256/33 188/257/33
f 561/258/67 529/259/67 189/260/67 484/261/67
f 525/262/32 527/254/32 188/257/32 186/263/32
f 529/259/68 497/264/68 172/265/68 189/260/68
f 523/266/69 499/267/69 173/268/69 185/269/69
f 697/270/70 501/271/70 174/272/70 690/273/70
f 519/274/71 503/275/71 175/276/71 183/277/71
f 539/278/72 505/279/72 176/280/72 283/281/72
f 521/282/73 507/283/73 177/284/73 184/285/73
f 543/286/1 509/287/1 178/288/1 309/289/1
f 513/290/74 523/266/74 185/269/74 180/291/74
f 517/292/75 521/282/75 184/285/75 182/293/75
f 515/294/76 519/274/76 183/277/76 181/295/76
f 509/287/25 511/296/25 179/297/25 178/288/25
f 497/264/77 513/290/77 180/291/77 172/265/77
f 501/271/78 515/294/78 181/295/78 174/272/78
f 505/279/79 517/292/79 182/293/79 176/280/79
f 532/298/1 525/262/1 186/263/1 187/299/1
f 627/300/1 609/301/1 206/302/1 191/303/1
f 599/304/80 605/305/80 202/306/80 196/307/80
f 597/308/81 604/309/81 201/310/81 194/311/81
f 595/312/82 603/313/82 200/314/82 192/315/82
f 601/316/25 602/317/25 199/318/25 198/319/25
f 604/309/83 606/320/83 203/321/83 201/310/83
f 605/305/84 607/322/84 204/323/84 202/306/84
f 603/313/85 608/324/85 205/325/85 200/314/85
f 617/326/1 601/316/1 198/319/1 310/327/1
f 607/322/86 600/328/86 197/329/86 204/323/86
f 615/330/87 599/304/87 196/307/87 284/331/87
f 606/320/88 598/332/88 195/333/88 203/321/88
f 699/334/89 597/308/89 194/311/89 691/335/89
f 608/324/90 596/336/90 193/337/90 205/325/90
f 611/338/91 595/312/91 192/315/91 208/339/91
f 609/301/26 610/340/26 207/341/26 206/302/26
f 626/342/92 611/338/92 208/339/92 486/343/92
f 610/340/1 612/344/1 209/345/1 207/341/1
f 357/346/1 361/347/1 228/249/1 226/227/1
f 494/348/1 359/349/1 227/140/1 488/238/1
f 355/350/26 357/346/26 226/227/26 224/122/26
f 359/349/1 327/351/1 210/125/1 227/140/1
f 353/352/32 329/353/32 211/139/32 223/133/32
f 695/354/93 331/355/93 212/127/93 692/138/93
f 349/356/94 333/357/94 213/137/94 221/131/94
f 369/358/1 335/359/1 214/129/1 285/136/1
f 351/360/32 337/361/32 215/135/32 222/132/32
f 373/362/33 339/363/33 216/123/33 311/134/33
f 343/364/1 353/352/1 223/133/1 218/126/1
f 347/365/1 351/360/1 222/132/1 220/130/1
f 345/366/95 349/356/95 221/131/95 219/128/95
f 335/359/25 347/365/25 220/130/25 214/129/25
f 331/355/96 345/366/96 219/128/96 212/127/96
f 327/351/25 343/364/25 218/126/25 210/125/25
f 339/363/38 341/367/38 217/124/38 216/123/38
f 362/368/1 355/350/1 224/122/1 225/121/1
f 97/160/1 112/159/1 244/369/1 229/370/1
f 104/153/25 105/158/25 237/371/25 236/372/25
f 98/141/97 106/155/97 238/373/97 230/374/97
f 100/145/98 107/157/98 239/375/98 232/376/98
f 102/149/1 108/156/1 240/377/1 234/378/1
f 107/157/99 109/148/99 241/379/99 239/375/99
f 108/156/1 110/152/1 242/380/1 240/377/1
f 106/155/100 111/144/100 243/381/100 238/373/100
f 306/154/1 104/153/1 236/372/1 312/382/1
f 110/152/26 103/151/26 235/383/26 242/380/26
f 280/150/101 102/149/101 234/378/101 286/384/101
f 109/148/102 101/147/102 233/385/102 241/379/102
f 687/146/103 100/145/103 232/376/103 693/386/103
f 111/144/104 99/143/104 231/387/104 243/381/104
f 160/142/105 98/141/105 230/374/105 246/388/105
f 112/159/26 151/226/26 245/389/26 244/369/26
f 478/237/25 160/142/25 246/388/25 490/390/25
f 151/226/1 169/250/1 247/391/1 245/389/1
f 448/392/106 254/393/106 260/394/106 460/395/106
f 464/396/107 365/397/107 259/398/107 458/399/107
f 624/400/108 613/401/108 258/402/108 456/403/108
f 557/404/109 535/405/109 257/406/109 454/407/109
f 442/408/110 251/409/110 256/410/110 452/411/110
f 800/412/111 778/413/111 255/414/111 450/415/111
f 440/416/112 250/417/112 254/393/112 448/392/112
f 458/399/26 259/398/26 253/418/26 446/419/26
f 446/419/7 253/418/7 248/420/7 436/421/7
f 450/415/113 255/414/113 249/422/113 438/423/113
f 438/423/114 249/422/114 250/417/114 440/416/114
f 436/421/1 248/420/1 252/424/1 444/425/1
f 721/426/1 261/427/1 265/428/1 725/429/1
f 722/430/115 262/431/115 263/432/115 723/433/115
f 728/434/116 268/435/116 262/431/116 722/430/116
f 726/436/4 266/437/4 261/427/4 721/426/4
f 732/438/1 272/439/1 266/437/1 726/436/1
f 723/433/117 263/432/117 267/440/117 727/441/117
f 814/442/118 780/443/118 268/435/118 728/434/118
f 724/444/119 264/445/119 269/446/119 729/447/119
f 737/448/120 537/449/120 270/450/120 730/451/120
f 739/452/121 614/453/121 271/454/121 731/455/121
f 735/456/122 367/457/122 272/439/122 732/438/122
f 727/441/123 267/440/123 273/458/123 733/459/123
f 418/460/124 280/150/124 286/384/124 430/461/124
f 434/462/1 369/358/1 285/136/1 428/463/1
f 622/464/125 615/330/125 284/331/125 426/465/125
f 553/466/126 539/278/126 283/281/126 424/467/126
f 412/468/127 277/197/127 282/200/127 422/469/127
f 796/470/128 782/176/128 281/57/128 420/471/128
f 410/472/129 276/56/129 280/150/129 418/460/129
f 428/463/1 285/136/1 279/59/1 416/473/1
f 416/473/4 279/59/4 274/49/4 406/474/4
f 420/471/130 281/57/130 275/53/130 408/475/130
f 408/475/131 275/53/131 276/56/131 410/472/131
f 406/474/1 274/49/1 278/52/1 414/476/1
f 701/477/1 287/478/1 291/479/1 705/480/1
f 702/481/132 288/482/132 289/483/132 703/484/132
f 708/485/133 294/486/133 288/482/133 702/481/133
f 706/487/4 292/488/4 287/478/4 701/477/4
f 712/489/1 298/490/1 292/488/1 706/487/1
f 703/484/134 289/483/134 293/491/134 707/492/134
f 812/493/135 784/494/135 294/486/135 708/485/135
f 704/495/136 290/496/136 295/497/136 709/498/136
f 717/499/137 541/500/137 296/501/137 710/502/137
f 719/503/138 616/504/138 297/505/138 711/506/138
f 715/507/139 371/508/139 298/490/139 712/489/139
f 707/492/140 293/491/140 299/509/140 713/510/140
f 388/511/26 306/154/26 312/382/26 400/512/26
f 404/513/32 373/362/32 311/134/32 398/514/32
f 620/515/1 617/326/1 310/327/1 396/516/1
f 549/517/1 543/286/1 309/289/1 394/518/1
f 382/519/33 303/205/33 308/208/33 392/520/33
f 792/521/1 786/174/1 307/81/1 390/522/1
f 380/523/32 302/80/32 306/154/32 388/511/32
f 398/514/26 311/134/26 305/83/26 386/524/26
f 386/524/7 305/83/7 300/73/7 376/525/7
f 390/522/4 307/81/4 301/77/4 378/526/4
f 378/526/1 301/77/1 302/80/1 380/523/1
f 376/525/1 300/73/1 304/76/1 384/527/1
f 31/62/1 313/528/1 317/529/1 35/63/1
f 32/66/1 314/530/1 315/531/1 33/67/1
f 118/70/4 320/532/4 314/530/4 32/66/4
f 86/72/4 318/533/4 313/528/4 31/62/4
f 215/135/1 324/534/1 318/533/1 86/72/1
f 33/67/33 315/531/33 319/535/33 103/151/33
f 752/175/1 788/536/1 320/532/1 118/70/1
f 34/202/33 316/537/33 321/538/33 135/203/33
f 507/283/1 545/539/1 322/540/1 177/284/1
f 600/328/1 618/541/1 323/542/1 197/329/1
f 337/361/33 375/543/33 324/534/33 215/135/33
f 103/151/1 319/535/1 325/544/1 235/383/1
f 235/383/4 325/544/4 374/545/4 336/546/4
f 336/546/1 374/545/1 375/543/1 337/361/1
f 400/512/7 312/382/7 372/547/7 402/548/7
f 402/548/1 372/547/1 373/362/1 404/513/1
f 713/510/141 299/509/141 370/549/141 714/550/141
f 714/550/142 370/549/142 371/508/142 715/507/142
f 430/461/33 286/384/33 368/551/33 432/552/33
f 432/552/1 368/551/1 369/358/1 434/462/1
f 733/459/143 273/458/143 366/553/143 734/554/143
f 734/554/144 366/553/144 367/457/144 735/456/144
f 460/395/145 260/394/145 364/555/145 462/556/145
f 462/556/146 364/555/146 365/397/146 464/396/146
f 229/370/1 244/369/1 354/557/1 363/558/1
f 363/558/1 354/557/1 355/350/1 362/368/1
f 236/372/21 237/371/21 340/559/21 338/560/21
f 338/560/1 340/559/1 341/367/1 339/363/1
f 230/374/38 238/373/38 342/561/38 326/562/38
f 326/562/25 342/561/25 343/364/25 327/351/25
f 232/376/147 239/375/147 344/563/147 330/564/147
f 330/564/148 344/563/148 345/366/148 331/355/148
f 234/378/38 240/377/38 346/565/38 334/566/38
f 334/566/25 346/565/25 347/365/25 335/359/25
f 239/375/149 241/379/149 348/567/149 344/563/149
f 344/563/150 348/567/150 349/356/150 345/366/150
f 240/377/1 242/380/1 350/568/1 346/565/1
f 346/565/1 350/568/1 351/360/1 347/365/1
f 238/373/66 243/381/66 352/569/66 342/561/66
f 342/561/1 352/569/1 353/352/1 343/364/1
f 312/382/4 236/372/4 338/560/4 372/547/4
f 372/547/1 338/560/1 339/363/1 373/362/1
f 242/380/7 235/383/7 336/546/7 350/568/7
f 350/568/1 336/546/1 337/361/1 351/360/1
f 286/384/33 234/378/33 334/566/33 368/551/33
f 368/551/1 334/566/1 335/359/1 369/358/1
f 241/379/151 233/385/151 332/570/151 348/567/151
f 348/567/152 332/570/152 333/357/152 349/356/152
f 693/386/153 232/376/153 330/564/153 694/571/153
f 694/571/154 330/564/154 331/355/154 695/354/154
f 243/381/155 231/387/155 328/572/155 352/569/155
f 352/569/1 328/572/1 329/353/1 353/352/1
f 246/388/33 230/374/33 326/562/33 358/573/33
f 358/573/1 326/562/1 327/351/1 359/349/1
f 244/369/26 245/389/26 356/574/26 354/557/26
f 354/557/26 356/574/26 357/346/26 355/350/26
f 490/390/38 246/388/38 358/573/38 492/575/38
f 492/575/1 358/573/1 359/349/1 494/348/1
f 245/389/1 247/391/1 360/576/1 356/574/1
f 356/574/1 360/576/1 361/347/1 357/346/1
f 374/545/1 403/577/1 405/578/1 375/543/1
f 403/577/1 402/548/1 404/513/1 405/578/1
f 325/544/21 401/579/21 403/577/21 374/545/21
f 401/579/1 400/512/1 402/548/1 403/577/1
f 313/528/1 377/580/1 385/581/1 317/529/1
f 377/580/1 376/525/1 384/527/1 385/581/1
f 314/530/1 379/582/1 381/583/1 315/531/1
f 379/582/1 378/526/1 380/523/1 381/583/1
f 320/532/4 391/584/4 379/582/4 314/530/4
f 391/584/4 390/522/4 378/526/4 379/582/4
f 318/533/21 387/585/21 377/580/21 313/528/21
f 387/585/1 386/524/1 376/525/1 377/580/1
f 324/534/25 399/586/25 387/585/25 318/533/25
f 399/586/1 398/514/1 386/524/1 387/585/1
f 315/531/38 381/583/38 389/587/38 319/535/38
f 381/583/1 380/523/1 388/511/1 389/587/1
f 788/536/1 790/588/1 391/584/1 320/532/1
f 790/588/1 792/521/1 390/522/1 391/584/1
f 316/537/33 383/589/33 393/590/33 321/538/33
f 383/589/33 382/519/33 392/520/33 393/590/33
f 545/539/1 547/591/1 395/592/1 322/540/1
f 547/591/1 549/517/1 394/518/1 395/592/1
f 618/541/1 619/593/1 397/594/1 323/542/1
f 619/593/1 620/515/1 396/516/1 397/594/1
f 375/543/38 405/578/38 399/586/38 324/534/38
f 405/578/1 404/513/1 398/514/1 399/586/1
f 319/535/25 389/587/25 401/579/25 325/544/25
f 389/587/1 388/511/1 400/512/1 401/579/1
f 370/549/1 433/595/1 435/596/1 371/508/1
f 433/595/1 432/552/1 434/462/1 435/596/1
f 299/509/156 431/597/156 433/595/156 370/549/156
f 431/597/157 430/461/157 432/552/157 433/595/157
f 287/478/1 407/598/1 415/599/1 291/479/1
f 407/598/1 406/474/1 414/476/1 415/599/1
f 288/482/158 409/600/158 411/601/158 289/483/158
f 409/600/159 408/475/159 410/472/159 411/601/159
f 294/486/160 421/602/160 409/600/160 288/482/160
f 421/602/161 420/471/161 408/475/161 409/600/161
f 292/488/4 417/603/4 407/598/4 287/478/4
f 417/603/4 416/473/4 406/474/4 407/598/4
f 298/490/1 429/604/1 417/603/1 292/488/1
f 429/604/1 428/463/1 416/473/1 417/603/1
f 289/483/162 411/601/162 419/605/162 293/491/162
f 411/601/163 410/472/163 418/460/163 419/605/163
f 784/494/164 794/606/164 421/602/164 294/486/164
f 794/606/165 796/470/165 420/471/165 421/602/165
f 290/496/166 413/607/166 423/608/166 295/497/166
f 413/607/167 412/468/167 422/469/167 423/608/167
f 541/500/168 551/609/168 425/610/168 296/501/168
f 551/609/169 553/466/169 424/467/169 425/610/169
f 616/504/170 621/611/170 427/612/170 297/505/170
f 621/611/171 622/464/171 426/465/171 427/612/171
f 371/508/1 435/596/1 429/604/1 298/490/1
f 435/596/1 434/462/1 428/463/1 429/604/1
f 293/491/172 419/605/172 431/597/172 299/509/172
f 419/605/173 418/460/173 430/461/173 431/597/173
f 366/553/174 463/613/174 465/614/174 367/457/174
f 463/613/175 462/556/175 464/396/175 465/614/175
f 273/458/176 461/615/176 463/613/176 366/553/176
f 461/615/177 460/395/177 462/556/177 463/613/177
f 261/427/1 437/616/1 445/617/1 265/428/1
f 437/616/1 436/421/1 444/425/1 445/617/1
f 262/431/178 439/618/178 441/619/178 263/432/178
f 439/618/179 438/423/179 440/416/179 441/619/179
f 268/435/180 451/620/180 439/618/180 262/431/180
f 451/620/181 450/415/181 438/423/181 439/618/181
f 266/437/21 447/621/21 437/616/21 261/427/21
f 447/621/1 446/419/1 436/421/1 437/616/1
f 272/439/25 459/622/25 447/621/25 266/437/25
f 459/622/1 458/399/1 446/419/1 447/621/1
f 263/432/182 441/619/182 449/623/182 267/440/182
f 441/619/183 440/416/183 448/392/183 449/623/183
f 780/443/184 798/624/184 451/620/184 268/435/184
f 798/624/185 800/412/185 450/415/185 451/620/185
f 264/445/186 443/625/186 453/626/186 269/446/186
f 443/625/187 442/408/187 452/411/187 453/626/187
f 537/449/188 555/627/188 455/628/188 270/450/188
f 555/627/189 557/404/189 454/407/189 455/628/189
f 614/453/190 623/629/190 457/630/190 271/454/190
f 623/629/191 624/400/191 456/403/191 457/630/191
f 367/457/192 465/614/192 459/622/192 272/439/192
f 465/614/193 464/396/193 458/399/193 459/622/193
f 267/440/194 449/623/194 461/615/194 273/458/194
f 449/623/195 448/392/195 460/395/195 461/615/195
f 360/576/1 493/631/1 495/632/1 361/347/1
f 493/631/1 492/575/1 494/348/1 495/632/1
f 247/391/1 491/633/1 493/631/1 360/576/1
f 491/633/1 490/390/1 492/575/1 493/631/1
f 169/250/1 479/634/1 491/633/1 247/391/1
f 479/634/1 478/237/1 490/390/1 491/633/1
f 361/347/1 495/632/1 489/635/1 228/249/1
f 495/632/1 494/348/1 488/238/1 489/635/1
f 612/344/196 625/636/196 487/637/196 209/345/196
f 625/636/197 626/342/197 486/343/197 487/637/197
f 531/255/198 559/638/198 485/639/198 190/256/198
f 559/638/199 561/258/199 484/261/199 485/639/199
f 163/243/1 467/640/1 475/641/1 167/244/1
f 467/640/1 466/240/1 474/242/1 475/641/1
f 164/245/1 469/642/1 471/643/1 165/246/1
f 469/642/1 468/241/1 470/236/1 471/643/1
f 170/247/21 481/644/21 469/642/21 164/245/21
f 481/644/1 480/235/1 468/241/1 469/642/1
f 168/248/4 477/645/4 467/640/4 163/243/4
f 477/645/4 476/239/4 466/240/4 467/640/4
f 228/249/1 489/635/1 477/645/1 168/248/1
f 489/635/1 488/238/1 476/239/1 477/645/1
f 165/246/33 471/643/33 479/634/33 169/250/33
f 471/643/33 470/236/33 478/237/33 479/634/33
f 776/251/200 802/646/200 481/644/200 170/247/200
f 802/646/201 804/234/201 480/235/201 481/644/201
f 166/252/202 473/647/202 483/648/202 171/253/202
f 473/647/203 472/232/203 482/233/203 483/648/203
f 487/637/204 486/343/204 560/649/204 558/650/204
f 558/650/205 560/649/205 561/258/205 559/638/205
f 209/345/206 487/637/206 558/650/206 530/651/206
f 530/651/207 558/650/207 559/638/207 531/255/207
f 457/630/208 456/403/208 556/652/208 554/653/208
f 554/653/209 556/652/209 557/404/209 555/627/209
f 271/454/210 457/630/210 554/653/210 536/654/210
f 536/654/211 554/653/211 555/627/211 537/449/211
f 427/612/212 426/465/212 552/655/212 550/656/212
f 550/656/213 552/655/213 553/466/213 551/609/213
f 297/505/214 427/612/214 550/656/214 540/657/214
f 540/657/215 550/656/215 551/609/215 541/500/215
f 397/594/1 396/516/1 548/658/1 546/659/1
f 546/659/1 548/658/1 549/517/1 547/591/1
f 323/542/1 397/594/1 546/659/1 544/660/1
f 544/660/1 546/659/1 547/591/1 545/539/1
f 197/329/1 323/542/1 544/660/1 506/661/1
f 506/661/1 544/660/1 545/539/1 507/283/1
f 396/516/1 310/327/1 542/662/1 548/658/1
f 548/658/1 542/662/1 543/286/1 549/517/1
f 711/506/216 297/505/216 540/657/216 716/663/216
f 716/663/217 540/657/217 541/500/217 717/499/217
f 426/465/218 284/331/218 538/664/218 552/655/218
f 552/655/219 538/664/219 539/278/219 553/466/219
f 731/455/220 271/454/220 536/654/220 736/665/220
f 736/665/221 536/654/221 537/449/221 737/448/221
f 456/403/222 258/402/222 534/666/222 556/652/222
f 556/652/223 534/666/223 535/405/223 557/404/223
f 191/303/1 206/302/1 524/667/1 533/668/1
f 533/668/1 524/667/1 525/262/1 532/298/1
f 196/307/224 202/306/224 516/669/224 504/670/224
f 504/670/225 516/669/225 517/292/225 505/279/225
f 194/311/226 201/310/226 514/671/226 500/672/226
f 500/672/227 514/671/227 515/294/227 501/271/227
f 192/315/228 200/314/228 512/673/228 496/674/228
f 496/674/229 512/673/229 513/290/229 497/264/229
f 198/319/25 199/318/25 510/675/25 508/676/25
f 508/676/25 510/675/25 511/296/25 509/287/25
f 201/310/230 203/321/230 518/677/230 514/671/230
f 514/671/231 518/677/231 519/274/231 515/294/231
f 202/306/232 204/323/232 520/678/232 516/669/232
f 516/669/233 520/678/233 521/282/233 517/292/233
f 200/314/234 205/325/234 522/679/234 512/673/234
f 512/673/235 522/679/235 523/266/235 513/290/235
f 310/327/1 198/319/1 508/676/1 542/662/1
f 542/662/1 508/676/1 509/287/1 543/286/1
f 204/323/236 197/329/236 506/661/236 520/678/236
f 520/678/237 506/661/237 507/283/237 521/282/237
f 284/331/238 196/307/238 504/670/238 538/664/238
f 538/664/239 504/670/239 505/279/239 539/278/239
f 203/321/240 195/333/240 502/680/240 518/677/240
f 518/677/241 502/680/241 503/275/241 519/274/241
f 691/335/242 194/311/242 500/672/242 696/681/242
f 696/681/243 500/672/243 501/271/243 697/270/243
f 205/325/244 193/337/244 498/682/244 522/679/244
f 522/679/245 498/682/245 499/267/245 523/266/245
f 208/339/246 192/315/246 496/674/246 528/683/246
f 528/683/247 496/674/247 497/264/247 529/259/247
f 206/302/7 207/341/7 526/684/7 524/667/7
f 524/667/1 526/684/1 527/254/1 525/262/1
f 486/343/248 208/339/248 528/683/248 560/649/248
f 560/649/249 528/683/249 529/259/249 561/258/249
f 207/341/4 209/345/4 530/651/4 526/684/4
f 526/684/1 530/651/1 531/255/1 527/254/1
f 483/648/197 482/233/197 594/685/197 593/686/197
f 171/253/196 483/648/196 593/686/196 580/687/196
f 453/626/250 452/411/250 592/688/250 591/689/250
f 269/446/251 453/626/251 591/689/251 582/690/251
f 423/608/252 422/469/252 590/691/252 589/692/252
f 295/497/253 423/608/253 589/692/253 584/693/253
f 393/590/1 392/520/1 588/694/1 587/695/1
f 321/538/1 393/590/1 587/695/1 586/696/1
f 135/203/1 321/538/1 586/696/1 568/697/1
f 392/520/1 308/208/1 585/698/1 588/694/1
f 709/498/254 295/497/254 584/693/254 718/699/254
f 422/469/255 282/200/255 583/700/255 590/691/255
f 729/447/256 269/446/256 582/690/256 738/701/256
f 452/411/257 256/410/257 581/702/257 592/688/257
f 153/222/1 171/253/1 580/687/1 578/703/1
f 482/233/92 162/184/92 579/704/92 594/685/92
f 144/219/26 153/222/26 578/703/26 577/705/26
f 162/184/91 130/183/91 563/706/91 579/704/91
f 143/188/258 131/187/258 564/707/258 576/708/258
f 689/192/259 132/191/259 565/709/259 698/710/259
f 141/196/260 133/195/260 566/711/260 574/712/260
f 282/200/87 134/199/87 567/713/87 583/700/87
f 142/204/86 135/203/86 568/697/86 575/714/86
f 308/208/1 136/207/1 569/715/1 585/698/1
f 138/210/261 143/188/261 576/708/261 571/716/261
f 140/212/84 142/204/84 575/714/84 573/717/84
f 139/214/262 141/196/262 574/712/262 572/718/262
f 136/207/25 137/216/25 570/719/25 569/715/25
f 130/183/263 138/210/263 571/716/263 563/706/263
f 132/191/264 139/214/264 572/718/264 565/709/264
f 134/199/80 140/212/80 573/717/80 567/713/80
f 129/220/1 144/219/1 577/705/1 562/720/1
f 593/686/197 594/685/197 626/342/197 625/636/197
f 580/687/196 593/686/196 625/636/196 612/344/196
f 591/689/1 592/688/1 624/400/1 623/629/1
f 582/690/1 591/689/1 623/629/1 614/453/1
f 589/692/1 590/691/1 622/464/1 621/611/1
f 584/693/1 589/692/1 621/611/1 616/504/1
f 587/695/1 588/694/1 620/515/1 619/593/1
f 586/696/1 587/695/1 619/593/1 618/541/1
f 568/697/1 586/696/1 618/541/1 600/328/1
f 588/694/1 585/698/1 617/326/1 620/515/1
f 718/699/1 584/693/1 616/504/1 719/503/1
f 590/691/1 583/700/1 615/330/1 622/464/1
f 738/701/1 582/690/1 614/453/1 739/452/1
f 592/688/1 581/702/1 613/401/1 624/400/1
f 578/703/1 580/687/1 612/344/1 610/340/1
f 594/685/92 579/704/92 611/338/92 626/342/92
f 577/705/26 578/703/26 610/340/26 609/301/26
f 579/704/91 563/706/91 595/312/91 611/338/91
f 576/708/1 564/707/1 596/336/1 608/324/1
f 698/710/1 565/709/1 597/308/1 699/334/1
f 574/712/1 566/711/1 598/332/1 606/320/1
f 583/700/87 567/713/87 599/304/87 615/330/87
f 575/714/86 568/697/86 600/328/86 607/322/86
f 585/698/1 569/715/1 601/316/1 617/326/1
f 571/716/1 576/708/1 608/324/1 603/313/1
f 573/717/84 575/714/84 607/322/84 605/305/84
f 572/718/1 574/712/1 606/320/1 604/309/1
f 569/715/25 570/719/25 602/317/25 601/316/25
f 563/706/1 571/716/1 603/313/1 595/312/1
f 565/709/1 572/718/1 604/309/1 597/308/1
f 567/713/80 573/717/80 605/305/80 599/304/80
f 562/720/1 577/705/1 609/301/1 627/300/1
f 485/639/265 484/261/265 660/721/265 659/722/265
f 190/256/266 485/639/266 659/722/266 645/723/266
f 455/628/1 454/407/1 658/724/1 657/725/1
f 270/450/1 455/628/1 657/725/1 648/726/1
f 425/610/1 424/467/1 656/727/1 655/728/1
f 296/501/1 425/610/1 655/728/1 650/729/1
f 395/592/1 394/518/1 654/730/1 653/731/1
f 322/540/1 395/592/1 653/731/1 652/732/1
f 177/284/1 322/540/1 652/732/1 633/733/1
f 394/518/1 309/289/1 651/734/1 654/730/1
f 710/502/1 296/501/1 650/729/1 720/735/1
f 424/467/267 283/281/267 649/736/267 656/727/267
f 730/451/1 270/450/1 648/726/1 740/737/1
f 454/407/1 257/406/1 647/738/1 658/724/1
f 188/257/1 190/256/1 645/723/1 643/739/1
f 484/261/268 189/260/268 644/740/268 660/721/268
f 186/263/26 188/257/26 643/739/26 642/741/26
f 189/260/269 172/265/269 628/742/269 644/740/269
f 185/269/1 173/268/1 629/743/1 641/744/1
f 690/273/1 174/272/1 630/745/1 700/746/1
f 183/277/1 175/276/1 631/747/1 639/748/1
f 283/281/270 176/280/270 632/749/270 649/736/270
f 184/285/271 177/284/271 633/733/271 640/750/271
f 309/289/1 178/288/1 634/751/1 651/734/1
f 180/291/1 185/269/1 641/744/1 636/752/1
f 182/293/272 184/285/272 640/750/272 638/753/272
f 181/295/1 183/277/1 639/748/1 637/754/1
f 178/288/25 179/297/25 635/755/25 634/751/25
f 172/265/1 180/291/1 636/752/1 628/742/1
f 174/272/1 181/295/1 637/754/1 630/745/1
f 176/280/273 182/293/273 638/753/273 632/749/273
f 187/299/1 186/263/1 642/741/1 646/756/1
f 257/406/1 670/757/1 680/758/1 647/738/1
f 581/702/1 678/759/1 679/760/1 613/401/1
f 256/410/274 669/761/274 678/759/274 581/702/274
f 534/666/275 676/762/275 677/763/275 535/405/275
f 258/402/276 671/764/276 676/762/276 534/666/276
f 364/555/154 674/765/154 675/766/154 365/397/154
f 260/394/153 673/767/153 674/765/153 364/555/153
f 254/393/103 667/768/103 673/767/103 260/394/103
f 365/397/93 675/766/93 672/769/93 259/398/93
f 613/401/277 679/760/277 671/764/277 258/402/277
f 535/405/278 677/763/278 670/757/278 257/406/278
f 251/409/279 664/770/279 669/761/279 256/410/279
f 778/413/280 808/771/280 668/772/280 255/414/280
f 250/417/29 663/773/29 667/768/29 254/393/29
f 259/398/1 672/769/1 666/774/1 253/418/1
f 253/418/4 666/774/4 661/775/4 248/420/4
f 255/414/9 668/772/9 662/776/9 249/422/9
f 249/422/8 662/776/8 663/773/8 250/417/8
f 248/420/1 661/775/1 665/777/1 252/424/1
f 670/757/1 690/273/1 700/746/1 680/758/1
f 678/759/1 698/710/1 699/334/1 679/760/1
f 669/761/281 689/192/281 698/710/281 678/759/281
f 676/762/1 696/681/1 697/270/1 677/763/1
f 671/764/1 691/335/1 696/681/1 676/762/1
f 674/765/154 694/571/154 695/354/154 675/766/154
f 673/767/153 693/386/153 694/571/153 674/765/153
f 667/768/103 687/146/103 693/386/103 673/767/103
f 675/766/93 695/354/93 692/138/93 672/769/93
f 679/760/282 699/334/282 691/335/282 671/764/282
f 677/763/1 697/270/1 690/273/1 670/757/1
f 664/770/1 684/189/1 689/192/1 669/761/1
f 808/771/48 810/178/48 688/33/48 668/772/48
f 663/773/29 683/32/29 687/146/29 667/768/29
f 672/769/1 692/138/1 686/35/1 666/774/1
f 666/774/4 686/35/4 681/25/4 661/775/4
f 668/772/9 688/33/9 682/29/9 662/776/9
f 662/776/8 682/29/8 683/32/8 663/773/8
f 661/775/1 681/25/1 685/28/1 665/777/1
f 175/276/1 710/502/1 720/735/1 631/747/1
f 566/711/1 718/699/1 719/503/1 598/332/1
f 133/195/281 709/498/281 718/699/281 566/711/281
f 502/680/283 716/663/283 717/499/283 503/275/283
f 195/333/284 711/506/284 716/663/284 502/680/284
f 332/570/285 714/550/285 715/507/285 333/357/285
f 233/385/286 713/510/286 714/550/286 332/570/286
f 101/147/287 707/492/287 713/510/287 233/385/287
f 333/357/288 715/507/288 712/489/288 213/137/288
f 598/332/289 719/503/289 711/506/289 195/333/289
f 503/275/290 717/499/290 710/502/290 175/276/290
f 24/194/1 704/495/1 709/498/1 133/195/1
f 748/177/291 812/493/291 708/485/291 116/46/291
f 23/43/292 703/484/292 707/492/292 101/147/292
f 213/137/1 712/489/1 706/487/1 84/48/1
f 84/48/4 706/487/4 701/477/4 21/38/4
f 116/46/293 708/485/293 702/481/293 22/42/293
f 22/42/294 702/481/294 703/484/294 23/43/294
f 21/38/1 701/477/1 705/480/1 25/39/1
f 173/268/1 730/451/1 740/737/1 629/743/1
f 564/707/1 738/701/1 739/452/1 596/336/1
f 131/187/295 729/447/295 738/701/295 564/707/295
f 498/682/296 736/665/296 737/448/296 499/267/296
f 193/337/297 731/455/297 736/665/297 498/682/297
f 328/572/298 734/554/298 735/456/298 329/353/298
f 231/387/299 733/459/299 734/554/299 328/572/299
f 99/143/300 727/441/300 733/459/300 231/387/300
f 329/353/301 735/456/301 732/438/301 211/139/301
f 596/336/302 739/452/302 731/455/302 193/337/302
f 499/267/303 737/448/303 730/451/303 173/268/303
f 14/186/304 724/444/304 729/447/304 131/187/304
f 744/179/305 814/442/305 728/434/305 114/22/305
f 13/19/306 723/433/306 727/441/306 99/143/306
f 211/139/1 732/438/1 726/436/1 82/24/1
f 82/24/4 726/436/4 721/426/4 11/14/4
f 114/22/307 728/434/307 722/430/307 12/18/307
f 12/18/308 722/430/308 723/433/308 13/19/308
f 11/14/1 721/426/1 725/429/1 15/15/1
f 629/743/309 740/737/309 813/778/309 743/779/309
f 743/779/310 813/778/310 814/442/310 744/179/310
f 631/747/311 720/735/311 811/780/311 747/781/311
f 747/781/312 811/780/312 812/493/312 748/177/312
f 680/758/48 700/746/48 809/782/48 807/783/48
f 807/783/48 809/782/48 810/178/48 808/771/48
f 647/738/313 680/758/313 807/783/313 777/784/313
f 777/784/314 807/783/314 808/771/314 778/413/314
f 659/722/315 660/721/315 803/785/315 801/786/315
f 801/786/316 803/785/316 804/234/316 802/646/316
f 645/723/317 659/722/317 801/786/317 775/787/317
f 775/787/318 801/786/318 802/646/318 776/251/318
f 657/725/319 658/724/319 799/788/319 797/789/319
f 797/789/320 799/788/320 800/412/320 798/624/320
f 648/726/321 657/725/321 797/789/321 779/790/321
f 779/790/322 797/789/322 798/624/322 780/443/322
f 655/728/323 656/727/323 795/791/323 793/792/323
f 793/792/324 795/791/324 796/470/324 794/606/324
f 650/729/325 655/728/325 793/792/325 783/793/325
f 783/793/326 793/792/326 794/606/326 784/494/326
f 653/731/1 654/730/1 791/794/1 789/795/1
f 789/795/1 791/794/1 792/521/1 790/588/1
f 652/732/1 653/731/1 789/795/1 787/796/1
f 787/796/1 789/795/1 790/588/1 788/536/1
f 633/733/1 652/732/1 787/796/1 751/797/1
f 751/797/1 787/796/1 788/536/1 752/175/1
f 654/730/1 651/734/1 785/798/1 791/794/1
f 791/794/1 785/798/1 786/174/1 792/521/1
f 720/735/327 650/729/327 783/793/327 811/780/327
f 811/780/328 783/793/328 784/494/328 812/493/328
f 656/727/329 649/736/329 781/799/329 795/791/329
f 795/791/330 781/799/330 782/176/330 796/470/330
f 740/737/331 648/726/331 779/790/331 813/778/331
f 813/778/332 779/790/332 780/443/332 814/442/332
f 658/724/333 647/738/333 777/784/333 799/788/333
f 799/788/334 777/784/334 778/413/334 800/412/334
f 643/739/1 645/723/1 775/787/1 771/800/1
f 771/800/1 775/787/1 776/251/1 772/223/1
f 660/721/335 644/740/335 773/801/335 803/785/335
f 803/785/336 773/801/336 774/180/336 804/234/336
f 642/741/26 643/739/26 771/800/26 769/802/26
f 769/802/26 771/800/26 772/223/26 770/162/26
f 644/740/337 628/742/337 741/803/337 773/801/337
f 773/801/338 741/803/338 742/167/338 774/180/338
f 641/744/339 629/743/339 743/779/339 767/804/339
f 767/804/340 743/779/340 744/179/340 768/173/340
f 700/746/48 630/745/48 745/805/48 809/782/48
f 809/782/48 745/805/48 746/165/48 810/178/48
f 639/748/341 631/747/341 747/781/341 763/806/341
f 763/806/342 747/781/342 748/177/342 764/171/342
f 649/736/343 632/749/343 749/807/343 781/799/343
f 781/799/344 749/807/344 750/163/344 782/176/344
f 640/750/345 633/733/345 751/797/345 765/808/345
f 765/808/346 751/797/346 752/175/346 766/172/346
f 651/734/1 634/751/1 753/809/1 785/798/1
f 785/798/1 753/809/1 754/169/1 786/174/1
f 636/752/347 641/744/347 767/804/347 757/810/347
f 757/810/348 767/804/348 768/173/348 758/168/348
f 638/753/349 640/750/349 765/808/349 761/811/349
f 761/811/350 765/808/350 766/172/350 762/164/350
f 637/754/351 639/748/351 763/806/351 759/812/351
f 759/812/352 763/806/352 764/171/352 760/166/352
f 634/751/25 635/755/25 755/813/25 753/809/25
f 753/809/25 755/813/25 756/170/25 754/169/25
f 628/742/353 636/752/353 757/810/353 741/803/353
f 741/803/354 757/810/354 758/168/354 742/167/354
f 630/745/355 637/754/355 759/812/355 745/805/355
f 745/805/356 759/812/356 760/166/356 746/165/356
f 632/749/357 638/753/357 761/811/357 749/807/357
f 749/807/358 761/811/358 762/164/358 750/163/358
f 646/756/1 642/741/1 769/802/1 806/814/1
f 806/814/1 769/802/1 770/162/1 805/161/1
f 148/815/359 4/816/359 47/817/359 815/818/359 251/819/359 442/820/359 443/821/359 264/822/359 724/823/359 14/824/359 63/825/359 50/826/359 9/827/359 157/828/359 472/829/359 473/830/359 166/831/359
f 704/832/359 24/833/359 57/834/359 816/835/359 48/836/359 39/837/359 303/838/359 382/839/359 383/840/359 316/841/359 34/842/359 60/843/359 54/844/359 29/845/359 277/846/359 412/847/359 413/848/359 290/849/359
f 664/850/359 251/819/359 19/851/359 684/852/359
