v -1.280000 -1.280000 -1.260000
v 1.280000 -1.280000 -1.260000
v 1.280000 -1.039400 -1.240000
v 1.280000 -1.000793 -1.260000
v 1.280000 -1.241723 -1.240000
v 1.280000 -1.000793 -1.280000
v -1.280000 -1.280000 -1.280000
v 1.280000 -1.280000 -1.280000
v 1.280000 -0.960000 -1.260000
v 1.280000 -0.960000 -1.280000
v 0.644796 -1.039400 -1.240000
v 0.953652 -1.000793 -1.280000
v 0.953652 -1.000793 -1.260000
v -0.973781 -1.241723 -1.240000
vt 1.000000 0.000000
vt 1.000000 0.109065
vt 1.000000 0.093984
vt 1.000000 0.014952
vt 0.119617 0.014952
vt 0.000000 0.000000
vt 0.872521 0.109065
vt 0.751873 0.093984
vt 1.000000 0.124938
vt 0.760606 0.093247
vt 0.886783 0.109019
vt 0.099370 0.010592
vn 1.000000 0.000000 0.000000
vn 0.000000 -0.463100 0.886300
vn 0.000000 -1.000000 0.000000
vn 0.000000 0.460000 0.887900
vn 0.000000 0.000000 1.000000
vn 0.000000 1.000000 0.000000
vn -0.124000 0.992300 0.000000
s off
f 8/1/1 6/2/1 3/3/1
f 2/1/2 5/4/2 14/5/2
f 1/6/3 7/6/3 8/1/3
f 13/7/4 11/8/4 3/3/4
f 10/9/5 12/7/5 6/2/5
f 11/8/5 14/5/5 5/4/5
f 13/7/6 4/2/6 6/2/6
f 3/3/1 5/4/1 8/1/1
f 7/6/7 11/10/7 12/11/7
f 6/2/1 4/2/1 3/3/1
f 2/1/1 8/1/1 5/4/1
f 1/6/2 2/1/2 14/5/2
f 2/1/3 1/6/3 8/1/3
f 4/2/4 13/7/4 3/3/4
f 3/3/5 11/8/5 5/4/5
f 12/7/6 13/7/6 6/2/6
f 13/11/7 12/11/7 11/10/7
f 7/6/7 1/6/7 14/12/7
f 14/12/7 11/10/7 7/6/7
