v -0.879601 0.506924 -0.056224
v -0.886279 0.525995 0.043922
v 0.873956 0.503764 -0.056532
v 0.881149 0.522709 0.043602
v 0.819267 0.503970 -0.145790
v 0.671777 0.545396 -0.204195
v 0.530284 0.595223 -0.223312
v 0.386314 0.645102 -0.209810
v 0.237189 0.684556 -0.217412
v 0.020783 0.592451 -0.477331
v -0.020925 0.592451 -0.477331
v -0.244390 0.687333 -0.216873
v -0.392932 0.649177 -0.210368
v -0.536136 0.596197 -0.223409
v -0.676980 0.543677 -0.203836
v -0.824948 0.504668 -0.145409
v -0.843862 0.559186 0.142224
v -0.704319 0.634828 0.180634
v -0.555591 0.687639 0.194778
v -0.403579 0.735105 0.218198
v -0.237890 0.766094 0.300155
v -0.076223 0.760486 0.386334
v 0.076602 0.761821 0.386653
v 0.234454 0.768176 0.348256
v 0.395900 0.740263 0.256018
v 0.549721 0.686586 0.195268
v 0.697337 0.622956 0.141932
v 0.836667 0.550428 0.100119
v 0.132327 0.666967 -0.310405
v 0.155317 0.766462 0.367056
v -0.133068 0.666924 -0.310785
v -0.155035 0.762146 0.367047
v -0.881518 0.512767 -0.031409
v -0.883274 0.517911 -0.006450
v -0.884857 0.522302 0.018664
v 0.879613 0.519044 0.018347
v 0.877906 0.514683 -0.006764
v 0.876016 0.509572 -0.031720
v -0.840766 0.552745 0.068712
v -0.836637 0.541945 -0.003817
v -0.831173 0.525348 -0.075152
v -0.700159 0.623584 0.081845
v -0.694025 0.605152 -0.015560
v -0.686110 0.578282 -0.110326
v -0.553117 0.678372 0.087443
v -0.549297 0.661224 -0.018391
v -0.543642 0.632567 -0.121672
v -0.405541 0.732631 0.107826
v -0.404808 0.719014 -0.001046
v -0.399642 0.690823 -0.106992
v -0.245008 0.775934 0.167372
v -0.250978 0.778513 0.037458
v -0.250166 0.744207 -0.090903
v -0.063502 0.783974 0.200183
v -0.051318 0.792732 0.042793
v -0.037371 0.768210 -0.155475
v 0.062842 0.783761 0.200095
v 0.049437 0.792410 0.042298
v 0.034738 0.767788 -0.155728
v 0.239047 0.774487 0.203355
v 0.241914 0.775385 0.061927
v 0.240758 0.742056 -0.079768
v 0.399617 0.734989 0.136024
v 0.400006 0.721074 0.017607
v 0.393887 0.690132 -0.097541
v 0.547600 0.675290 0.087773
v 0.543584 0.658516 -0.018235
v 0.538032 0.630839 -0.121513
v 0.693356 0.613139 0.053116
v 0.687558 0.597848 -0.034307
v 0.680214 0.574857 -0.119823
v 0.833492 0.543883 0.037505
v 0.829596 0.534386 -0.024499
v 0.824672 0.520641 -0.085598
v 0.151926 0.771669 0.192030
v 0.150392 0.795190 0.025924
v 0.139942 0.745463 -0.148426
v -0.154257 0.771155 0.191957
v -0.158141 0.798563 0.026287
v -0.150615 0.749126 -0.144883
v 0.801286 0.491476 0.028911
v 0.847687 0.466732 0.010827
v 0.849160 0.469315 0.028205
v 0.804091 0.497002 0.082568
v -0.849704 0.470837 0.007593
v -0.806518 0.500966 0.058914
v -0.808422 0.506418 0.120840
v -0.850088 0.473862 0.023168
v -0.670221 0.569266 0.070654
v -0.674242 0.579358 0.157397
v -0.527995 0.621079 0.069339
v -0.531289 0.628972 0.163129
v -0.379689 0.674967 0.074059
v -0.379888 0.675470 0.170428
v -0.229526 0.655639 0.129264
v -0.226534 0.703684 0.237949
v -0.150066 0.615393 0.154739
v -0.065416 0.595646 0.127275
v -0.076049 0.693951 0.315913
v -0.152983 0.697829 0.297903
v 0.065400 0.596133 0.127975
v 0.077345 0.695195 0.316574
v 0.151267 0.621958 0.156274
v 0.224378 0.654590 0.164680
v 0.223690 0.704782 0.287703
v 0.154406 0.701750 0.299444
v 0.373909 0.676477 0.100977
v 0.374672 0.678726 0.208054
v 0.520558 0.618373 0.067568
v 0.523762 0.627750 0.161999
v 0.662477 0.559250 0.041622
v 0.666352 0.567993 0.119090
v 0.790909 0.463547 -0.097370
v 0.841920 0.462936 -0.016825
v 0.844025 0.465991 -0.000538
v 0.795843 0.478033 -0.045364
v 0.846034 0.465940 0.004710
v 0.799049 0.486387 -0.006570
v -0.848729 0.466407 -0.013186
v -0.797619 0.465212 -0.093001
v -0.802808 0.483417 -0.031748
v -0.850099 0.469450 0.002247
v -0.805351 0.494265 0.014899
v -0.850291 0.469525 0.004976
v -0.653922 0.506816 -0.139740
v -0.661244 0.537555 -0.057653
v -0.665846 0.556631 0.006245
v -0.515802 0.560085 -0.154478
v -0.521723 0.591954 -0.064713
v -0.524316 0.609772 -0.000944
v -0.374313 0.614728 -0.134611
v -0.377155 0.650344 -0.046744
v -0.376120 0.665974 0.005412
v -0.227228 0.655715 -0.132613
v -0.230453 0.650985 -0.015563
v -0.230757 0.641516 0.044238
v -0.120833 0.637538 -0.220064
v -0.018347 0.562048 -0.385914
v -0.032359 0.595322 -0.180672
v -0.141722 0.619232 -0.056007
v -0.056833 0.590711 -0.019548
v -0.152371 0.619754 0.046683
v 0.018205 0.562048 -0.385914
v 0.032837 0.595305 -0.180037
v 0.051516 0.588226 -0.019655
v 0.119496 0.636644 -0.220459
v 0.217930 0.651496 -0.136291
v 0.220641 0.646795 -0.006755
v 0.129851 0.614564 -0.059358
v 0.221954 0.640362 0.066330
v 0.144393 0.617529 0.047479
v 0.367696 0.609882 -0.135670
v 0.371462 0.649037 -0.039805
v 0.371117 0.667309 0.020776
v 0.510803 0.557967 -0.156014
v 0.516700 0.589517 -0.065615
v 0.517768 0.606516 -0.004382
v 0.648684 0.507225 -0.143910
v 0.655332 0.533233 -0.070407
v 0.659057 0.549108 -0.014121
v 0.681507 0.516764 -0.195434
v 0.831794 0.473639 -0.137269
v 0.079570 0.738292 0.391094
v -0.078581 0.736954 0.390513
v -0.395441 0.626012 -0.192396
v -0.242545 0.667594 -0.194383
v -0.895408 0.483569 -0.018089
v -0.893608 0.478695 -0.040486
v 0.895096 0.489124 0.037990
v 0.849027 0.518432 0.099667
v -0.405450 0.707921 0.215778
v -0.562605 0.658720 0.198119
v 0.020167 0.567377 -0.479790
v 0.129653 0.645703 -0.294719
v 0.705772 0.592261 0.143518
v 0.555897 0.657540 0.197733
v -0.130609 0.645888 -0.294551
v -0.020325 0.567377 -0.479790
v -0.855087 0.528694 0.144355
v -0.898117 0.493421 0.035424
v 0.891587 0.482651 -0.003061
v 0.893414 0.485553 0.014301
v 0.537148 0.568911 -0.212093
v 0.236492 0.743843 0.353412
v 0.159861 0.742529 0.370521
v 0.234755 0.664219 -0.196542
v -0.896487 0.486474 -0.002692
v -0.542566 0.570334 -0.211293
v 0.887221 0.474941 -0.042728
v 0.889485 0.479808 -0.019857
v -0.239364 0.740678 0.299133
v -0.158666 0.738186 0.369602
v -0.838182 0.475213 -0.134608
v -0.713484 0.605017 0.186470
v 0.388913 0.621657 -0.192690
v 0.398755 0.713942 0.257546
v -0.686854 0.515923 -0.192924
v -0.897074 0.489626 0.012731
vt 0.281556 0.946625
vt 0.314598 0.946625
vt 0.284400 0.973717
vt 0.270963 0.973717
vt 0.270963 0.032688
vt 0.284400 0.032688
vt 0.336850 0.059640
vt 0.298246 0.059640
vt 0.359014 0.140589
vt 0.306948 0.140589
vt 0.367128 0.221162
vt 0.310766 0.221162
vt 0.382066 0.301735
vt 0.324244 0.301735
vt 0.430287 0.382308
vt 0.360482 0.382308
vt 0.375818 0.425484
vt 0.466321 0.422594
vt 0.476927 0.462881
vt 0.383761 0.470194
vt 0.476927 0.543454
vt 0.383761 0.536141
vt 0.375818 0.580851
vt 0.466321 0.583741
vt 0.455627 0.624027
vt 0.379487 0.624027
vt 0.401923 0.704600
vt 0.339137 0.704600
vt 0.367128 0.785173
vt 0.310766 0.785173
vt 0.337866 0.865746
vt 0.291087 0.865746
vt 0.182432 0.946625
vt 0.215473 0.946625
vt 0.244090 0.973717
vt 0.230653 0.973717
vt 0.248515 0.946625
vt 0.257526 0.973717
vt 0.230653 0.032688
vt 0.244090 0.032688
vt 0.221036 0.059640
vt 0.182432 0.059640
vt 0.257526 0.032688
vt 0.259641 0.059640
vt 0.202817 0.140589
vt 0.150751 0.140589
vt 0.254882 0.140589
vt 0.198040 0.221162
vt 0.141678 0.221162
vt 0.254403 0.221162
vt 0.208600 0.301735
vt 0.150778 0.301735
vt 0.266422 0.301735
vt 0.220872 0.382308
vt 0.151068 0.382308
vt 0.290677 0.382308
vt 0.104308 0.434153
vt 0.194811 0.431263
vt 0.193764 0.484821
vt 0.011262 0.492134
vt 0.285314 0.428373
vt 0.284716 0.477508
vt 0.193764 0.521514
vt 0.011262 0.514201
vt 0.284716 0.528827
vt 0.104308 0.572182
vt 0.194811 0.575072
vt 0.227207 0.624027
vt 0.151068 0.624027
vt 0.285314 0.577962
vt 0.303347 0.624027
vt 0.213565 0.704600
vt 0.150778 0.704600
vt 0.276351 0.704600
vt 0.198040 0.785173
vt 0.141678 0.785173
vt 0.254403 0.785173
vt 0.197530 0.865746
vt 0.150751 0.865746
vt 0.244309 0.865746
vt 0.744386 0.087215
vt 0.734842 0.061296
vt 0.743669 0.061100
vt 0.771352 0.087163
vt 0.733119 0.937328
vt 0.759732 0.912122
vt 0.790723 0.911761
vt 0.741065 0.937001
vt 0.767306 0.837253
vt 0.810845 0.837285
vt 0.767551 0.761708
vt 0.814415 0.762324
vt 0.772322 0.683357
vt 0.820367 0.684106
vt 0.797585 0.608380
vt 0.858114 0.609568
vt 0.808091 0.572409
vt 0.793668 0.531812
vt 0.898169 0.538401
vt 0.888657 0.575495
vt 0.793936 0.468602
vt 0.898430 0.461735
vt 0.808473 0.427692
vt 0.815111 0.391773
vt 0.882996 0.390622
vt 0.889464 0.424305
vt 0.785929 0.317568
vt 0.839156 0.316925
vt 0.766526 0.239862
vt 0.813624 0.239521
vt 0.752030 0.163489
vt 0.790888 0.163520
vt 0.679318 0.087446
vt 0.720705 0.063319
vt 0.729062 0.062859
vt 0.706465 0.087342
vt 0.731706 0.061934
vt 0.726408 0.087261
vt 0.722466 0.937584
vt 0.681402 0.913442
vt 0.713435 0.913300
vt 0.730376 0.937739
vt 0.737447 0.912795
vt 0.731730 0.937795
vt 0.657377 0.837930
vt 0.700966 0.837646
vt 0.734460 0.837276
vt 0.651343 0.761926
vt 0.698726 0.761543
vt 0.731900 0.760987
vt 0.663690 0.685405
vt 0.710511 0.684244
vt 0.737728 0.682553
vt 0.668141 0.606210
vt 0.724524 0.605696
vt 0.753165 0.606406
vt 0.626903 0.559161
vt 0.538967 0.509586
vt 0.642919 0.516322
vt 0.702043 0.561685
vt 0.720444 0.524324
vt 0.752706 0.567265
vt 0.538967 0.491165
vt 0.642919 0.484430
vt 0.720681 0.476346
vt 0.626240 0.441863
vt 0.666541 0.395045
vt 0.728939 0.395582
vt 0.701270 0.439480
vt 0.764286 0.394449
vt 0.753021 0.433639
vt 0.662781 0.315251
vt 0.713909 0.316414
vt 0.745495 0.318176
vt 0.650461 0.238188
vt 0.698163 0.238741
vt 0.730065 0.240010
vt 0.655335 0.162486
vt 0.694183 0.162780
vt 0.723559 0.163289
vt 0.916964 0.136641
vt 0.908385 0.055220
vt 0.894321 0.075173
vt 0.903140 0.152818
vt 0.940117 0.461210
vt 0.939763 0.543345
vt 0.927382 0.541783
vt 0.927700 0.462456
vt 0.941075 0.704226
vt 0.954822 0.620738
vt 0.942352 0.611946
vt 0.927913 0.693891
vt 0.906245 0.976525
vt 0.905908 0.976443
vt 0.891919 0.954825
vt 0.892009 0.954985
vt 0.905876 0.027300
vt 0.908490 0.055069
vt 0.894230 0.074880
vt 0.891550 0.047912
vt 0.942942 0.703531
vt 0.933424 0.786497
vt 0.919277 0.773481
vt 0.929515 0.692547
vt 0.936232 0.491884
vt 0.956454 0.435920
vt 0.943989 0.441894
vt 0.923753 0.492908
vt 0.922866 0.137194
vt 0.932360 0.218973
vt 0.918353 0.232527
vt 0.908651 0.153887
vt 0.956533 0.569110
vt 0.936232 0.513000
vt 0.923753 0.511968
vt 0.944149 0.563264
vt 0.907439 0.948872
vt 0.905979 0.976130
vt 0.892060 0.954221
vt 0.893477 0.928105
vt 0.906447 0.027746
vt 0.906328 0.027405
vt 0.891870 0.048115
vt 0.891904 0.048775
vt 0.928814 0.218259
vt 0.915200 0.231148
vt 0.945008 0.382048
vt 0.943299 0.420626
vt 0.930725 0.423726
vt 0.932069 0.388874
vt 0.954693 0.384416
vt 0.942094 0.393451
vt 0.906237 0.976556
vt 0.891789 0.955043
vt 0.928944 0.786284
vt 0.915461 0.773069
vt 0.906163 0.028488
vt 0.906504 0.028242
vt 0.892223 0.049732
vt 0.892123 0.050209
vt 0.948881 0.622535
vt 0.936079 0.615421
vt 0.941746 0.583749
vt 0.929294 0.580165
vt 0.907447 0.949772
vt 0.893493 0.929844
vt 0.924302 0.867719
vt 0.910069 0.851044
vt 0.939451 0.300607
vt 0.926190 0.310886
vt 0.940413 0.301503
vt 0.927041 0.312618
vt 0.915625 0.868064
vt 0.901989 0.851711
vt 0.906294 0.976305
vt 0.892106 0.954560
vt 0.930788 0.145080
vt 0.922449 0.065365
vt 0.952533 0.462732
vt 0.952144 0.542145
vt 0.954237 0.700971
vt 0.967292 0.621558
vt 0.920481 0.966144
vt 0.919898 0.966144
vt 0.920202 0.038663
vt 0.922750 0.065365
vt 0.956370 0.700971
vt 0.947570 0.780384
vt 0.948711 0.491564
vt 0.968918 0.434417
vt 0.937082 0.145080
vt 0.946367 0.224493
vt 0.968918 0.570459
vt 0.948711 0.513313
vt 0.921400 0.939580
vt 0.920990 0.038663
vt 0.920786 0.038663
vt 0.942429 0.224493
vt 0.957946 0.383319
vt 0.955874 0.423025
vt 0.967292 0.383319
vt 0.920685 0.966144
vt 0.942427 0.780384
vt 0.961683 0.621558
vt 0.954198 0.581851
vt 0.938534 0.859797
vt 0.952711 0.303906
vt 0.953786 0.303906
vt 0.929262 0.859797
vn 0.416300 0.900300 -0.126900
vn -0.457700 0.882100 -0.111400
vn -0.444600 0.889000 -0.110000
vn -0.333900 0.936900 -0.104000
vn -0.314300 0.947900 -0.051900
vn -0.237600 0.970600 0.038300
vn -0.079400 0.993100 0.086400
vn -0.004100 0.992600 0.121000
vn -0.025600 0.999000 0.035900
vn 0.209800 0.977700 0.010400
vn 0.329800 0.941700 -0.066300
vn 0.363400 0.925000 -0.110800
vn 0.430100 0.895200 -0.117000
vn 0.056100 0.995800 0.072100
vn 0.018200 0.998000 0.060700
vn 0.448600 0.853500 -0.265100
vn 0.431800 0.873300 -0.225600
vn 0.418400 0.892400 -0.168900
vn -0.434200 0.857400 -0.276400
vn -0.427400 0.874400 -0.229500
vn -0.436500 0.884800 -0.163200
vn -0.376600 0.866500 -0.327800
vn -0.397700 0.879300 -0.262100
vn -0.420200 0.889700 -0.178400
vn -0.363800 0.865000 -0.345500
vn -0.356700 0.892900 -0.274800
vn -0.348000 0.920400 -0.178200
vn -0.307200 0.882200 -0.356800
vn -0.334800 0.904800 -0.263200
vn -0.338800 0.930300 -0.140500
vn -0.258400 0.882400 -0.393100
vn -0.297100 0.920700 -0.253200
vn -0.300000 0.953200 -0.037500
vn -0.156100 0.868600 -0.470300
vn -0.053600 0.978500 -0.199000
vn -0.048900 0.992700 0.109900
vn 0.002200 0.877800 -0.479000
vn 0.003700 0.992400 -0.123100
vn 0.002500 0.998500 0.055100
vn 0.259600 0.875700 -0.407200
vn 0.251300 0.933800 -0.254600
vn 0.073500 0.994100 0.079300
vn 0.256400 0.890200 -0.376600
vn 0.270100 0.932200 -0.240900
vn 0.267600 0.962500 -0.044900
vn 0.290400 0.888400 -0.355500
vn 0.329900 0.907200 -0.261100
vn 0.350600 0.927100 -0.132400
vn 0.350700 0.874100 -0.336000
vn 0.352500 0.897500 -0.265000
vn 0.359200 0.917600 -0.170300
vn 0.384000 0.868300 -0.313900
vn 0.400600 0.880300 -0.254100
vn 0.416100 0.892300 -0.175000
vn 0.163500 0.870500 -0.464200
vn 0.083700 0.976100 -0.200500
vn 0.061000 0.993500 0.095900
vn -0.240000 0.868800 -0.433200
vn -0.212900 0.939400 -0.268600
vn -0.090000 0.990600 0.103500
vn -0.415100 -0.900800 0.127800
vn 0.458400 -0.881900 0.110000
vn 0.444400 -0.888900 0.110700
vn 0.331700 -0.937300 0.106800
vn 0.315500 -0.947700 0.047600
vn -0.064900 -0.970900 0.230700
vn -0.100300 -0.875400 0.472800
vn 0.003200 -0.886100 0.463600
vn 0.229200 -0.875500 0.425400
vn 0.092100 -0.970900 0.221200
vn -0.331000 -0.941700 0.060800
vn -0.359800 -0.926200 0.112400
vn -0.428200 -0.895800 0.119300
vn 0.141800 -0.874000 0.464700
vn -0.464400 -0.786300 0.407500
vn -0.444700 -0.855400 0.265500
vn -0.427100 -0.878000 0.216100
vn -0.419800 -0.892400 0.165400
vn 0.429700 -0.860100 0.275000
vn 0.425500 -0.878300 0.217900
vn 0.440800 -0.883700 0.157300
vn 0.374700 -0.866900 0.328700
vn 0.396900 -0.879200 0.263600
vn 0.419500 -0.889700 0.180100
vn 0.362900 -0.866200 0.343500
vn 0.355500 -0.892400 0.277900
vn 0.345800 -0.920000 0.184200
vn 0.303500 -0.885700 0.351400
vn 0.332200 -0.905000 0.265600
vn 0.338900 -0.928200 0.153300
vn 0.121900 -0.980900 0.151500
vn -0.094300 -0.994000 0.055300
vn -0.189500 -0.971400 0.143200
vn -0.429200 -0.903200 -0.004000
vn -0.297000 -0.953300 -0.054300
vn -0.263400 -0.964700 -0.004300
vn -0.001200 -0.987200 0.159800
vn -0.014300 -0.999200 -0.036600
vn -0.008500 -0.999000 0.043700
vn 0.308400 -0.945900 -0.101000
vn 0.328500 -0.943300 -0.047100
vn 0.333500 -0.940200 0.069700
vn -0.112100 -0.981800 0.153300
vn 0.119000 -0.989100 0.086700
vn 0.203200 -0.971600 0.121400
vn -0.287600 -0.890400 0.352900
vn -0.327700 -0.907000 0.264600
vn -0.347700 -0.927000 0.140800
vn -0.347900 -0.875900 0.334200
vn -0.350900 -0.898000 0.265500
vn -0.355600 -0.918000 0.175500
vn -0.383400 -0.868000 0.315400
vn -0.399800 -0.880800 0.253600
vn -0.414700 -0.893000 0.174800
vn 0.429900 -0.902900 -0.001800
vn 0.294800 -0.954200 -0.051300
vn 0.283300 -0.958700 0.023200
vn -0.310000 -0.945000 -0.104000
vn -0.319300 -0.944800 -0.073500
vn -0.373300 -0.926200 0.053700
vn -0.158900 -0.931200 -0.328100
vn 0.005200 -0.866000 0.500000
vn 0.256400 -0.931300 -0.258600
vn -0.355500 -0.920400 0.162800
vn 0.202000 -0.806900 0.555000
vn 0.168200 -0.718300 0.675100
vn 0.612400 -0.790200 -0.023500
vn -0.065000 -0.702600 0.708600
vn -0.609600 -0.792400 -0.021800
vn -0.244100 -0.887300 0.391400
vn 0.365000 -0.926500 0.091700
vn -0.293100 -0.896700 -0.331800
vn 0.122200 -0.864200 0.488100
vn 0.252000 -0.962000 -0.105200
vn -0.353600 -0.926600 0.127500
vn 0.375500 -0.869700 -0.320300
vn 0.339000 -0.928700 0.150100
vn -0.084800 -0.848400 0.522500
vn -0.075000 -0.591200 0.803000
vn -0.398600 -0.815700 0.419300
vn 0.000000 -0.998400 -0.056700
vn 0.332700 -0.941300 0.057200
vn -0.185100 -0.978900 -0.087100
vn 0.120400 -0.627800 0.769000
vn -0.358700 -0.874500 -0.326500
vn 0.131900 -0.851800 0.507000
vn 0.174900 -0.857100 0.484500
vn 0.304000 -0.896400 -0.322700
vn -0.353000 -0.908200 0.224800
vn 0.173600 -0.979600 -0.101600
vn -0.147900 -0.862900 0.483300
vn -0.257600 -0.961500 -0.095300
vn -0.344600 -0.926300 0.152200
vn 0.179800 -0.637400 0.749300
vn -0.055000 -0.776100 0.628200
vn -0.252800 -0.927400 -0.275700
vn 0.372500 -0.921500 0.109500
vn 0.152500 -0.939200 -0.307600
vn 0.322500 -0.152100 -0.934300
vn -0.004400 0.180100 0.983600
vn 0.159300 -0.678600 -0.717000
vn -0.917200 0.366900 -0.155500
vn 0.822400 0.284300 0.492900
vn -0.143600 0.039000 0.988900
vn 0.866500 -0.192900 -0.460400
vn 0.395600 0.158100 0.904700
vn -0.865100 -0.195400 -0.462000
vn -0.911600 0.305600 0.274900
vn 0.912600 0.383500 -0.141500
vn -0.004800 -0.343000 -0.939300
vn 0.216400 0.200200 0.955600
vn 0.606200 -0.565700 -0.559000
vn -0.918100 0.371400 -0.138600
vn 0.288600 -0.538500 -0.791700
vn 0.922600 0.350000 -0.162000
vn -0.441000 -0.030600 0.897000
vn 0.349900 0.132800 0.927300
vn -0.638500 0.089800 0.764400
vn 0.000000 0.097600 -0.995200
vn 0.918100 0.363800 -0.157100
vn -0.843600 0.163000 -0.511700
vn -0.388500 0.248600 0.887300
vn -0.272300 -0.514800 -0.812900
vn 0.517200 0.160900 0.840600
vn 0.230000 0.195200 0.953400
vn 0.028900 -0.401900 -0.915200
vn -0.921700 0.369600 -0.118100
vn 0.843900 0.176700 -0.506600
vn -0.239000 0.165800 0.956800
vn -0.591300 -0.587300 -0.552700
vn -0.925400 0.364300 -0.104500
vn -0.152200 0.193400 0.969200
vn 0.398200 0.130400 0.908000
vn -0.147200 -0.648600 -0.746800
vn 0.911400 0.394100 -0.118200
vn -0.299800 -0.230300 -0.925800
s off
f 72/1/1 28/2/1 4/3/1 36/4/1
f 35/5/2 2/6/2 17/7/2 39/8/2
f 39/8/3 17/7/3 18/9/3 42/10/3
f 42/10/4 18/9/4 19/11/4 45/12/4
f 45/12/5 19/11/5 20/13/5 48/14/5
f 48/14/6 20/13/6 21/15/6 51/16/6
f 78/17/7 32/18/7 22/19/7 54/20/7
f 54/20/8 22/19/8 23/21/8 57/22/8
f 75/23/9 30/24/9 24/25/9 60/26/9
f 60/26/10 24/25/10 25/27/10 63/28/10
f 63/28/11 25/27/11 26/29/11 66/30/11
f 66/30/12 26/29/12 27/31/12 69/32/12
f 69/32/13 27/31/13 28/2/13 72/1/13
f 57/22/14 23/21/14 30/24/14 75/23/14
f 51/16/15 21/15/15 32/18/15 78/17/15
f 5/33/16 74/34/16 38/35/16 3/36/16
f 74/34/17 73/37/17 37/38/17 38/35/17
f 73/37/18 72/1/18 36/4/18 37/38/18
f 1/39/19 33/40/19 41/41/19 16/42/19
f 33/40/20 34/43/20 40/44/20 41/41/20
f 34/43/21 35/5/21 39/8/21 40/44/21
f 16/42/22 41/41/22 44/45/22 15/46/22
f 41/41/23 40/44/23 43/47/23 44/45/23
f 40/44/24 39/8/24 42/10/24 43/47/24
f 15/46/25 44/45/25 47/48/25 14/49/25
f 44/45/26 43/47/26 46/50/26 47/48/26
f 43/47/27 42/10/27 45/12/27 46/50/27
f 14/49/28 47/48/28 50/51/28 13/52/28
f 47/48/29 46/50/29 49/53/29 50/51/29
f 46/50/30 45/12/30 48/14/30 49/53/30
f 13/52/31 50/51/31 53/54/31 12/55/31
f 50/51/32 49/53/32 52/56/32 53/54/32
f 49/53/33 48/14/33 51/16/33 52/56/33
f 31/57/34 80/58/34 56/59/34 11/60/34
f 80/58/35 79/61/35 55/62/35 56/59/35
f 79/61/36 78/17/36 54/20/36 55/62/36
f 11/60/37 56/59/37 59/63/37 10/64/37
f 56/59/38 55/62/38 58/65/38 59/63/38
f 55/62/39 54/20/39 57/22/39 58/65/39
f 29/66/40 77/67/40 62/68/40 9/69/40
f 77/67/41 76/70/41 61/71/41 62/68/41
f 76/70/42 75/23/42 60/26/42 61/71/42
f 9/69/43 62/68/43 65/72/43 8/73/43
f 62/68/44 61/71/44 64/74/44 65/72/44
f 61/71/45 60/26/45 63/28/45 64/74/45
f 8/73/46 65/72/46 68/75/46 7/76/46
f 65/72/47 64/74/47 67/77/47 68/75/47
f 64/74/48 63/28/48 66/30/48 67/77/48
f 7/76/49 68/75/49 71/78/49 6/79/49
f 68/75/50 67/77/50 70/80/50 71/78/50
f 67/77/51 66/30/51 69/32/51 70/80/51
f 6/79/52 71/78/52 74/34/52 5/33/52
f 71/78/53 70/80/53 73/37/53 74/34/53
f 70/80/54 69/32/54 72/1/54 73/37/54
f 10/64/55 59/63/55 77/67/55 29/66/55
f 59/63/56 58/65/56 76/70/56 77/67/56
f 58/65/57 57/22/57 75/23/57 76/70/57
f 12/55/58 53/54/58 80/58/58 31/57/58
f 53/54/59 52/56/59 79/61/59 80/58/59
f 52/56/60 51/16/60 78/17/60 79/61/60
f 81/81/61 82/82/61 83/83/61 84/84/61
f 85/85/62 86/86/62 87/87/62 88/88/62
f 86/86/63 89/89/63 90/90/63 87/87/63
f 89/89/64 91/91/64 92/92/64 90/90/64
f 91/91/65 93/93/65 94/94/65 92/92/65
f 93/93/66 95/95/66 96/96/66 94/94/66
f 97/97/67 98/98/67 99/99/67 100/100/67
f 98/98/68 101/101/68 102/102/68 99/99/68
f 103/103/69 104/104/69 105/105/69 106/106/69
f 104/104/70 107/107/70 108/108/70 105/105/70
f 107/107/71 109/109/71 110/110/71 108/108/71
f 109/109/72 111/111/72 112/112/72 110/110/72
f 111/111/73 81/81/73 84/84/73 112/112/73
f 101/101/74 103/103/74 106/106/74 102/102/74
f 95/95/75 97/97/75 100/100/75 96/96/75
f 113/113/76 114/114/76 115/115/76 116/116/76
f 116/116/77 115/115/77 117/117/77 118/118/77
f 118/118/78 117/117/78 82/82/78 81/81/78
f 119/119/79 120/120/79 121/121/79 122/122/79
f 122/122/80 121/121/80 123/123/80 124/124/80
f 124/124/81 123/123/81 86/86/81 85/85/81
f 120/120/82 125/125/82 126/126/82 121/121/82
f 121/121/83 126/126/83 127/127/83 123/123/83
f 123/123/84 127/127/84 89/89/84 86/86/84
f 125/125/85 128/128/85 129/129/85 126/126/85
f 126/126/86 129/129/86 130/130/86 127/127/86
f 127/127/87 130/130/87 91/91/87 89/89/87
f 128/128/88 131/131/88 132/132/88 129/129/88
f 129/129/89 132/132/89 133/133/89 130/130/89
f 130/130/90 133/133/90 93/93/90 91/91/90
f 131/131/91 134/134/91 135/135/91 132/132/91
f 132/132/92 135/135/92 136/136/92 133/133/92
f 133/133/93 136/136/93 95/95/93 93/93/93
f 137/137/94 138/138/94 139/139/94 140/140/94
f 140/140/95 139/139/95 141/141/95 142/142/95
f 142/142/96 141/141/96 98/98/96 97/97/96
f 138/138/97 143/143/97 144/144/97 139/139/97
f 139/139/98 144/144/98 145/145/98 141/141/98
f 141/141/99 145/145/99 101/101/99 98/98/99
f 146/146/100 147/147/100 148/148/100 149/149/100
f 149/149/101 148/148/101 150/150/101 151/151/101
f 151/151/102 150/150/102 104/104/102 103/103/102
f 147/147/103 152/152/103 153/153/103 148/148/103
f 148/148/104 153/153/104 154/154/104 150/150/104
f 150/150/105 154/154/105 107/107/105 104/104/105
f 152/152/106 155/155/106 156/156/106 153/153/106
f 153/153/107 156/156/107 157/157/107 154/154/107
f 154/154/108 157/157/108 109/109/108 107/107/108
f 155/155/109 158/158/109 159/159/109 156/156/109
f 156/156/110 159/159/110 160/160/110 157/157/110
f 157/157/111 160/160/111 111/111/111 109/109/111
f 158/158/112 113/113/112 116/116/112 159/159/112
f 159/159/113 116/116/113 118/118/113 160/160/113
f 160/160/114 118/118/114 81/81/114 111/111/114
f 143/143/115 146/146/115 149/149/115 144/144/115
f 144/144/116 149/149/116 151/151/116 145/145/116
f 145/145/117 151/151/117 103/103/117 101/101/117
f 134/134/118 137/137/118 140/140/118 135/135/118
f 135/135/119 140/140/119 142/142/119 136/136/119
f 136/136/120 142/142/120 97/97/120 95/95/120
f 161/161/121 162/162/121 113/163/121 158/164/121
f 163/165/122 164/166/122 99/167/122 102/168/122
f 165/169/123 166/170/123 134/171/123 131/172/123
f 167/173/124 168/174/124 119/175/124 122/176/124
f 169/177/125 170/178/125 84/179/125 83/180/125
f 171/181/126 172/182/126 92/183/126 94/184/126
f 173/185/127 174/186/127 146/187/127 143/188/127
f 175/189/128 176/190/128 110/191/128 112/192/128
f 177/193/129 178/194/129 138/195/129 137/196/129
f 179/197/130 180/198/130 88/199/130 87/200/130
f 181/201/131 182/202/131 82/203/131 117/204/131
f 183/205/132 161/161/132 158/164/132 155/206/132
f 184/207/133 185/208/133 106/209/133 105/210/133
f 174/186/134 186/211/134 147/212/134 146/187/134
f 187/213/135 167/173/135 122/176/135 124/214/135
f 188/215/136 165/169/136 131/172/136 128/216/136
f 189/217/137 190/218/137 115/219/137 114/220/137
f 191/221/138 171/181/138 94/184/138 96/222/138
f 170/178/139 175/189/139 112/192/139 84/179/139
f 192/223/140 191/221/140 96/222/140 100/224/140
f 178/194/141 173/185/141 143/188/141 138/195/141
f 190/218/142 181/201/142 117/204/142 115/219/142
f 168/174/143 193/225/143 120/226/143 119/175/143
f 194/227/144 179/197/144 87/200/144 90/228/144
f 195/229/145 183/205/145 155/206/145 152/230/145
f 196/231/146 184/207/146 105/210/146 108/232/146
f 185/208/147 163/165/147 102/168/147 106/209/147
f 197/233/148 188/215/148 128/216/148 125/234/148
f 198/235/149 187/213/149 124/214/149 85/236/149
f 162/162/150 189/217/150 114/220/150 113/163/150
f 164/166/151 192/223/151 100/224/151 99/167/151
f 166/170/152 177/193/152 137/196/152 134/171/152
f 180/198/153 198/235/153 85/236/153 88/199/153
f 172/182/154 194/227/154 90/228/154 92/183/154
f 176/190/155 196/231/155 108/232/155 110/191/155
f 186/211/156 195/229/156 152/230/156 147/212/156
f 182/202/157 169/177/157 83/180/157 82/203/157
f 193/225/158 197/233/158 125/234/158 120/226/158
f 6/237/159 5/238/159 162/162/159 161/161/159
f 23/239/160 22/240/160 164/166/160 163/165/160
f 13/241/161 12/242/161 166/170/161 165/169/161
f 33/243/162 1/244/162 168/174/162 167/173/162
f 4/245/163 28/246/163 170/178/163 169/177/163
f 20/247/164 19/248/164 172/182/164 171/181/164
f 10/249/165 29/250/165 174/186/165 173/185/165
f 27/251/166 26/252/166 176/190/166 175/189/166
f 31/253/167 11/254/167 178/194/167 177/193/167
f 17/255/168 2/244/168 180/198/168 179/197/168
f 37/256/169 36/257/169 182/202/169 181/201/169
f 7/258/170 6/237/170 161/161/170 183/205/170
f 24/259/171 30/260/171 185/208/171 184/207/171
f 29/250/172 9/261/172 186/211/172 174/186/172
f 34/262/173 33/243/173 167/173/173 187/213/173
f 14/263/174 13/241/174 165/169/174 188/215/174
f 3/245/175 38/257/175 190/218/175 189/217/175
f 21/264/176 20/247/176 171/181/176 191/221/176
f 28/246/177 27/251/177 175/189/177 170/178/177
f 32/265/178 21/264/178 191/221/178 192/223/178
f 11/254/179 10/249/179 173/185/179 178/194/179
f 38/257/180 37/256/180 181/201/180 190/218/180
f 1/244/181 16/255/181 193/225/181 168/174/181
f 18/266/182 17/255/182 179/197/182 194/227/182
f 8/267/183 7/258/183 183/205/183 195/229/183
f 25/268/184 24/259/184 184/207/184 196/231/184
f 30/260/185 23/239/185 163/165/185 185/208/185
f 15/269/186 14/263/186 188/215/186 197/233/186
f 35/243/187 34/262/187 187/213/187 198/235/187
f 5/238/188 3/245/188 189/217/188 162/162/188
f 22/240/189 32/265/189 192/223/189 164/166/189
f 12/242/190 31/253/190 177/193/190 166/170/190
f 2/244/191 35/243/191 198/235/191 180/198/191
f 19/248/192 18/266/192 194/227/192 172/182/192
f 26/252/193 25/268/193 196/231/193 176/190/193
f 9/261/194 8/267/194 195/229/194 186/211/194
f 36/257/195 4/245/195 169/177/195 182/202/195
f 16/255/196 15/269/196 197/233/196 193/225/196
