# Blender v2.76 (sub 0) OBJ File: 'npc_humanoidmutant.blend'
# www.blender.org
v 0.063530 1.610837 -0.082511
v 0.063118 1.903929 -0.026743
v 0.070503 1.867796 -0.156798
v 0.116725 1.818428 0.011870
v 0.053086 1.674597 0.009138
v 0.096431 1.627138 -0.152689
v 0.092582 1.782560 -0.187487
v 0.088645 1.821657 -0.175964
v 0.106157 1.868318 0.000266
v 0.082830 1.716276 0.020750
v 0.094438 1.694287 -0.189709
v 0.078105 1.633395 -0.027014
v 0.084632 1.888993 -0.088107
v 0.091642 1.668622 -0.058374
v 0.125367 1.801824 -0.148792
v 0.118705 1.832709 -0.142242
v 0.058408 1.718296 -0.211333
v 0.106788 1.701770 -0.097215
v 0.011466 1.589847 -0.118271
v 0.055627 1.621635 -0.203610
v 0.011509 1.769477 -0.231454
v 0.007030 1.677758 0.022497
v 0.005724 1.835683 -0.201112
v 0.043390 1.706970 -0.218121
v 0.004036 1.712702 0.035649
v 0.042105 1.680279 -0.217389
v 0.097627 1.763447 -0.182695
v 0.110401 1.756434 0.012260
v 0.118778 1.758657 -0.137426
v 0.018341 1.720975 -0.237342
v 0.019373 1.760493 0.048625
v 0.074956 1.671023 -0.195912
v -0.035528 1.658866 -0.208534
v -0.011600 1.619921 -0.220810
v -0.004328 1.677037 -0.222711
v -0.011217 1.705721 -0.221571
v -0.024633 1.717963 -0.214026
v -0.008501 1.899530 -0.079834
v 0.000140 1.867101 -0.169106
v -0.005539 1.840574 0.018486
v 0.004530 1.902437 -0.025087
v 0.012062 1.814864 0.042900
v -0.169899 0.954635 0.164972
v -0.172002 1.017396 -0.049592
v 0.116579 1.011094 -0.060210
v 0.111367 1.003493 0.175865
v -0.168396 1.315637 0.166841
v -0.138047 1.345739 -0.053281
v 0.130086 1.325176 -0.043028
v 0.119583 1.270659 0.202434
v -0.233707 1.587498 0.174626
v -0.226568 1.535492 -0.014430
v 0.179282 1.474729 0.018157
v 0.187854 1.529853 0.199583
v -0.192547 0.920544 0.116746
v -0.193838 0.988524 -0.030239
v 0.160821 0.984489 -0.014234
v 0.147685 0.937739 0.133053
v -0.183656 1.401754 0.144349
v -0.172566 1.403164 0.030905
v 0.162455 1.285675 0.002526
v 0.157833 1.262847 0.165256
v -0.273554 1.588478 0.147143
v -0.285416 1.521965 0.043034
v 0.268883 1.517267 0.075238
v 0.239690 1.566028 0.173208
v -0.253974 1.426990 0.240679
v -0.239001 1.435410 0.086779
v -0.348669 1.453321 0.218690
v -0.345182 1.442751 0.130053
v -0.307193 1.199095 0.335009
v -0.274639 1.189348 0.282336
v -0.362019 1.237376 0.298969
v -0.320346 1.224999 0.247800
v -0.347156 0.985322 0.130978
v -0.295232 0.953852 0.073660
v -0.359937 1.022950 0.099613
v -0.313701 1.015447 0.070055
v -0.339822 0.915541 0.060098
v -0.289201 0.923459 0.028370
v -0.366883 0.957235 0.038042
v -0.322722 0.974639 0.017046
v -0.377475 0.885243 -0.014021
v -0.275778 0.902672 -0.026890
v -0.358582 0.887640 -0.045512
v -0.299838 0.918550 -0.054516
v -0.363176 0.840870 -0.025054
v -0.270712 0.865945 -0.046149
v -0.347970 0.829567 -0.051670
v -0.271201 0.856873 -0.070296
v -0.353123 0.829767 -0.016220
v -0.276617 0.855366 -0.042074
v -0.307628 0.792800 -0.014917
v -0.256841 0.811345 -0.028207
v 0.250363 1.409156 0.148105
v 0.237400 1.419976 0.207628
v 0.346614 1.482632 0.150219
v 0.324081 1.535687 0.229829
v 0.437737 1.334973 0.297928
v 0.427785 1.384257 0.376436
v 0.481213 1.358327 0.286985
v 0.487635 1.377327 0.379492
v 0.385928 1.261868 0.304209
v 0.439609 1.289227 0.388144
v 0.461990 1.267492 0.270964
v 0.484369 1.255456 0.358848
v 0.352087 1.099882 0.242140
v 0.378277 1.074360 0.273001
v 0.389300 1.109316 0.218014
v 0.417187 1.075613 0.249977
v -0.055280 0.951111 0.181189
v -0.006807 0.973530 0.186567
v -0.062172 1.012134 -0.075108
v 0.004676 1.002913 -0.074333
v -0.085369 1.288774 0.194373
v 0.012449 1.459125 0.202073
v -0.057982 1.335286 -0.079540
v 0.052229 1.377759 -0.061454
v -0.097248 1.604678 0.169878
v 0.097928 1.590940 0.170996
v -0.099857 1.537740 -0.052999
v 0.073374 1.505581 -0.044742
v -0.048472 0.904007 0.120956
v -0.005799 0.907744 0.133724
v -0.067608 0.976322 -0.049121
v 0.030080 0.991040 -0.045897
v 0.119751 1.649449 0.114461
v -0.128663 1.615711 0.073784
v 0.088033 1.569800 -0.023709
v -0.068491 1.585578 -0.025586
v 0.077392 1.661893 0.082545
v -0.071582 1.650934 0.049080
v 0.064875 1.615287 -0.083110
v -0.043828 1.611184 -0.100385
v -0.081700 1.897072 -0.032914
v -0.070049 1.861591 -0.187447
v 0.053127 1.675892 0.010492
v -0.073655 1.785866 -0.214564
v -0.056641 1.609975 -0.172686
v -0.041715 1.658630 -0.002533
v -0.112999 1.768450 -0.010570
v -0.115359 1.843692 -0.021066
v -0.079093 1.822483 -0.198421
v -0.194760 0.786209 0.071817
v -0.195703 0.823397 -0.065062
v 0.131123 0.799195 -0.004819
v 0.122966 0.797019 0.111077
v -0.058919 0.790604 0.075376
v 0.010295 0.805284 0.112264
v -0.073825 0.814244 -0.050629
v 0.023686 0.802722 -0.004942
v -0.202991 0.690456 0.030117
v -0.191582 0.715916 -0.087243
v -0.080886 0.690235 0.030332
v -0.083209 0.710573 -0.074391
v -0.249119 0.517913 0.085816
v -0.221653 0.464273 -0.031734
v -0.139028 0.498423 0.111348
v -0.125606 0.464982 -0.012352
v -0.236120 0.455536 0.055058
v -0.221588 0.448403 -0.010185
v -0.155140 0.479710 0.091986
v -0.146266 0.440548 0.001714
v -0.178307 0.129817 0.279921
v -0.176821 0.153599 0.138713
v -0.269301 0.005279 -0.029571
v -0.173682 -0.004779 -0.057769
v -0.191120 0.024117 -0.052344
v -0.146613 1.155035 0.147701
v -0.137314 1.159812 -0.052647
v 0.127453 1.154778 -0.039773
v 0.118010 1.161448 0.170786
v -0.180515 1.147870 0.108411
v -0.175599 1.162507 -0.018445
v 0.160928 1.161683 0.005226
v 0.156288 1.142420 0.132429
v -0.053906 1.152329 -0.066899
v 0.034696 1.140267 -0.062770
v -0.066257 1.138568 0.172595
v 0.012118 1.179378 0.179433
v 0.127356 0.684242 -0.007974
v 0.125921 0.681983 0.104558
v 0.009381 0.694067 0.107109
v 0.018966 0.688322 -0.008361
v 0.132718 0.564048 -0.004408
v 0.135114 0.565818 0.112616
v 0.030287 0.557860 0.131510
v 0.029184 0.566637 -0.001206
v 0.139223 0.539363 0.008437
v 0.139520 0.539861 0.098991
v 0.044544 0.536290 0.105056
v 0.043043 0.527674 0.016139
v 0.112839 0.151748 0.071812
v 0.109882 0.138345 0.136036
v 0.053755 0.135280 0.141181
v 0.044576 0.142945 0.078171
v 0.112037 0.074834 0.046712
v 0.092934 0.026423 0.162222
v 0.049395 0.025223 0.144076
v 0.054963 0.080487 0.042466
v 0.135030 -0.006406 -0.173946
v 0.049293 -0.009344 -0.187703
v 0.070968 0.021766 -0.174303
v -0.063252 1.687516 -0.193849
v -0.077282 1.689273 0.002079
v -0.205185 0.937223 0.040867
v 0.180464 0.935429 0.055801
v -0.171901 1.375487 0.077173
v 0.169621 1.256042 0.080843
v -0.312847 1.557130 0.089301
v 0.295200 1.552322 0.117384
v -0.207758 1.445535 0.137523
v -0.358117 1.448774 0.174124
v -0.279455 1.188587 0.305743
v -0.346712 1.224504 0.270109
v -0.320510 0.968858 0.116578
v -0.336182 1.022804 0.075859
v -0.346306 0.968455 0.025908
v -0.330988 0.896269 -0.058508
v -0.314757 0.841836 -0.069148
v -0.295789 0.822216 -0.038528
v 0.239028 1.422800 0.190786
v 0.344809 1.511605 0.187518
v 0.415411 1.345552 0.350594
v 0.493568 1.379826 0.328239
v 0.413093 1.269831 0.347889
v 0.478367 1.255779 0.312937
v 0.362851 1.084718 0.258027
v 0.409784 1.093950 0.230279
v -0.001635 0.905393 0.059895
v -0.121111 1.614765 0.015459
v 0.137475 1.620901 0.024793
v -0.067624 1.626460 -0.034900
v 0.078178 1.637927 -0.027223
v -0.093688 1.888737 -0.091892
v -0.072687 1.647850 -0.073311
v -0.117386 1.771995 -0.152918
v -0.128378 1.849744 -0.132747
v -0.212973 0.794965 0.008535
v 0.156082 0.788846 0.063192
v -0.047099 0.802167 0.015798
v 0.002776 0.792007 0.055978
v -0.211491 0.697755 -0.020550
v -0.060169 0.701463 -0.018714
v -0.256901 0.498358 0.040294
v -0.117244 0.479000 0.034699
v -0.237184 0.452677 0.022456
v -0.121580 0.442498 0.042912
v -0.269682 0.144384 0.193265
v -0.156485 0.141538 0.187410
v -0.194294 1.148525 0.045239
v 0.172617 1.140641 0.066293
v 0.154297 0.680978 0.061900
v 0.005380 0.678248 0.054220
v 0.158235 0.575882 0.053919
v 0.003008 0.560518 0.053239
v 0.145165 0.543191 0.055167
v 0.013903 0.527660 0.054697
v 0.121367 0.148401 0.108223
v 0.037413 0.139015 0.115685
v 0.128050 0.070830 0.082322
v -0.103153 1.684388 -0.084310
v -0.034531 0.967166 0.151476
v -0.036224 1.001710 -0.077713
v -0.032393 1.303792 0.199846
v -0.009997 1.353285 -0.072940
v -0.002116 1.571221 0.164714
v -0.009742 1.516635 -0.050311
v -0.032017 0.963240 0.127314
v -0.033286 0.973168 -0.049392
v 0.009105 1.647887 0.102816
v 0.009695 1.565210 -0.063455
v 0.001664 1.663703 0.075878
v 0.012286 1.590621 -0.118311
v 0.008185 1.678193 0.023433
v -0.012894 1.144771 -0.066670
v -0.030590 1.141316 0.169997
v 0.005421 1.713071 0.036941
v -0.031413 0.953850 0.058980
v 0.365584 1.023490 0.232221
v 0.335783 1.049049 0.207478
v 0.396448 1.021357 0.205329
v 0.368485 1.047817 0.180378
v 0.346208 0.976200 0.207424
v 0.303871 0.988566 0.183545
v 0.371240 0.955035 0.186223
v 0.318670 0.987032 0.149956
v 0.330386 0.949977 0.210042
v 0.289344 0.973964 0.183954
v 0.339724 0.919000 0.193337
v 0.285356 0.958436 0.154643
v 0.221971 0.951044 0.237909
v 0.264034 0.931668 0.264267
v 0.351743 1.035311 0.224352
v 0.384988 1.036686 0.190230
v 0.328339 0.987163 0.197856
v 0.345936 0.974672 0.164876
v 0.307671 0.963076 0.197385
v 0.306932 0.939012 0.168978
v 0.284510 0.947061 0.210836
v 0.260025 0.944760 0.222305
v 0.061730 0.981547 0.211784
v 0.068085 1.016063 -0.072970
v 0.057483 1.310741 0.206574
v 0.089512 1.345001 -0.044254
v 0.129196 1.572040 0.192556
v 0.134671 1.499365 -0.010208
v 0.076990 0.911612 0.162152
v 0.098953 0.976383 -0.053330
v 0.215205 1.625262 0.135305
v 0.155851 1.554598 0.007541
v 0.067690 0.799674 0.137000
v 0.076228 0.801355 -0.037030
v 0.083821 1.145746 -0.055048
v 0.066966 1.153340 0.181423
v 0.067252 0.686616 0.126255
v 0.067995 0.689013 -0.046489
v 0.080517 0.560369 0.172598
v 0.081498 0.572522 -0.039117
v 0.087772 0.529242 0.152545
v 0.092785 0.540730 -0.011974
v 0.082183 0.138158 0.157213
v 0.081990 0.159920 0.057778
v 0.074932 0.026827 0.178740
v 0.083002 0.082380 0.020714
v 0.110733 -0.006926 -0.182051
v 0.106238 0.013314 -0.163428
v 0.203171 1.602489 0.051208
v -0.202930 1.614058 0.109284
v -0.112310 0.943852 0.192552
v -0.112871 1.025422 -0.063331
v -0.125652 1.286425 0.185492
v -0.098457 1.331713 -0.074959
v -0.187367 1.601265 0.180746
v -0.176605 1.548107 -0.032009
v -0.119328 0.898693 0.139867
v -0.118111 0.992994 -0.051477
v -0.123753 0.783536 0.095693
v -0.127924 0.827887 -0.099625
v -0.141397 0.694618 0.044173
v -0.143429 0.718087 -0.125448
v -0.197360 0.504762 0.119930
v -0.160840 0.460024 -0.053566
v -0.209770 0.478444 0.133549
v -0.180132 0.448053 -0.025642
v -0.200746 0.140082 0.305547
v -0.205041 0.151180 0.121862
v -0.094724 1.153117 -0.063617
v -0.103155 1.139156 0.167829
v -0.213489 1.598499 0.049995
v 0.310242 0.933432 0.224945
v 0.311808 0.906669 0.215828
v 0.254937 0.943224 0.178171
v 0.268409 0.960526 0.196806
v 0.274830 0.924556 0.191547
v 0.292032 1.014907 0.181538
v 0.288178 1.035129 0.182486
v 0.304723 1.014775 0.150377
v 0.299974 1.039717 0.157004
v 0.254285 1.019108 0.200385
v 0.237091 1.003962 0.198933
v 0.273291 1.013101 0.184428
v 0.270438 1.011080 0.160359
v 0.266950 1.026492 0.163554
v 0.271076 1.025817 0.186591
v 0.355076 0.998476 0.217250
v 0.384964 0.987316 0.192995
v 0.346930 1.020954 0.160944
v 0.323356 1.022290 0.195636
v 0.367903 1.005777 0.175543
v 0.341448 1.010950 0.209395
v 0.307330 1.043900 0.186140
v 0.325654 1.050213 0.160536
v 0.297146 0.999858 0.180635
v 0.315006 1.004162 0.149077
v 0.324737 1.027974 0.152349
v 0.305898 1.024355 0.183975
v 0.160123 1.457623 0.215338
v 0.157631 1.440615 -0.022168
v -0.189168 1.464565 -0.028732
v -0.216327 1.509398 0.206646
v 0.214838 1.504114 0.242604
v 0.216365 1.432746 0.044867
v -0.238037 1.476887 0.038579
v -0.259660 1.490344 0.214168
v -0.299266 1.421402 0.130295
v -0.323931 1.441748 0.251642
v -0.295699 1.211078 0.258793
v -0.341354 1.222974 0.324940
v -0.293308 0.974930 0.059457
v -0.363892 1.004989 0.116586
v -0.296833 0.953160 0.014929
v -0.358542 0.933546 0.050797
v -0.282474 0.914304 -0.042672
v -0.197220 0.059713 -0.023826
v 0.284055 1.523875 0.250789
v 0.291475 1.433446 0.145135
v 0.459934 1.392143 0.383210
v 0.469152 1.330099 0.280469
v 0.470564 1.271425 0.391562
v 0.418716 1.261699 0.273764
v 0.379305 0.984839 0.211467
v 0.366320 1.108974 0.224729
v 0.061519 1.435304 -0.056846
v -0.081677 1.463644 -0.088481
v -0.109345 1.468408 0.218721
v 0.054585 1.474551 0.212672
v -0.169647 0.029334 0.031226
v -0.009027 1.453634 -0.082765
v -0.048910 1.540902 0.180613
v 0.347219 1.058284 0.192053
v 0.320310 0.911993 0.226731
v 0.300314 0.981980 0.163637
v 0.344340 0.926432 0.208034
v 0.280427 0.971422 0.166876
v 0.368008 0.957560 0.203168
v 0.106721 1.440620 0.211030
v 0.116041 1.434014 -0.034651
v -0.138856 1.472482 -0.064062
v -0.167117 1.473650 0.216960
v 0.390301 1.014367 0.225120
v 0.257852 0.958005 0.185328
v 0.293350 1.044404 0.170961
v 0.296372 1.000149 0.164467
v 0.250467 1.004154 0.196821
v 0.272588 1.003628 0.171454
v 0.267679 1.030829 0.175691
v 0.407284 1.066664 0.267046
v 0.316927 1.054204 0.174487
v -0.117044 1.729374 -0.008636
v -0.071074 1.765018 -0.207123
v -0.104738 1.732253 -0.131840
v -0.283145 1.330288 0.293403
v -0.358550 1.333454 0.273945
v -0.334621 1.316123 0.199599
v -0.265495 1.311702 0.224443
v -0.360277 1.323901 0.232586
v -0.259117 1.315848 0.262476
v -0.327196 1.333918 0.297599
v -0.292489 1.311274 0.196105
v -0.274651 0.915106 0.014773
v -0.270802 0.936502 0.040208
v -0.273476 0.920028 -0.000629
v -0.279239 0.951149 0.032673
v -0.258314 0.915118 0.009261
v 0.048043 0.000017 -0.102888
v 0.071908 0.032266 -0.133240
v 0.136589 0.017106 -0.116213
v 0.143432 0.002596 -0.097246
v -0.173084 0.056935 -0.001395
v -0.271536 0.047322 0.030678
v 0.052619 0.021438 -0.136328
v 0.108265 0.028332 -0.139547
v 0.100060 0.002644 -0.077400
v -0.230284 0.058234 -0.026416
v -0.224465 0.036263 0.050493
v -0.034680 1.659938 -0.208359
v -0.010763 1.621025 -0.220756
v 0.126567 1.626236 0.087393
v -0.244712 0.152988 0.150708
v -0.262606 0.057987 -0.014167
v -0.247969 0.891414 -0.018765
v -0.235760 0.121158 0.257255
v -0.286163 0.034698 0.044126
v -0.235831 -0.005740 -0.061152
v -0.231141 0.024990 -0.058538
v 0.032028 0.056053 0.074340
v -0.008493 1.900032 -0.079759
v 0.006344 1.867788 -0.168683
v 0.011418 1.836944 -0.200795
v -0.003475 1.841179 0.018558
v 0.008681 1.903162 -0.024671
v -0.023607 1.719801 -0.214386
v 0.012501 1.770150 -0.231758
v 0.012805 1.816264 0.043177
v 0.022098 1.761437 0.049581
v -0.258354 0.077019 0.150794
v -0.186183 0.100123 0.059867
v -0.173423 0.098976 0.092563
v -0.254534 0.100859 0.110933
v -0.215205 0.097704 0.050430
v -0.208341 0.086705 0.178233
v -0.179576 0.078309 0.155376
v -0.237326 0.097774 0.071770
v 0.063191 0.009407 0.010393
v 0.135881 0.014836 0.007725
v 0.063622 0.051290 -0.045026
v 0.119815 0.045139 -0.044733
v 0.095944 0.047063 -0.058827
v 0.087775 0.016381 0.050951
v 0.127834 0.043226 -0.026916
v 0.047804 0.043237 -0.031961
v -0.172714 0.215305 0.146767
v -0.177314 0.231791 0.216171
v -0.155929 0.219113 0.173647
v -0.243228 0.219285 0.166311
v -0.205653 0.235814 0.232825
v -0.196362 0.213093 0.132829
v -0.227461 0.215830 0.144896
v -0.230340 0.221726 0.194836
v -0.093470 0.588450 -0.092964
v -0.099463 0.593572 0.040920
v -0.228308 0.603624 0.030915
v -0.076753 0.593202 -0.032769
v -0.236440 0.595608 -0.027492
v -0.165078 0.598700 0.052302
v -0.222380 0.590955 -0.072973
v -0.207948 0.587346 -0.113905
v -0.176820 0.588775 -0.125644
v -0.148502 0.586358 -0.138803
v -0.127702 0.588206 -0.126612
v 0.413840 1.298486 0.302773
v 0.482280 1.310192 0.290682
v 0.497120 1.316068 0.331864
v 0.446240 1.295599 0.279397
v 0.443710 1.341600 0.386892
v 0.424722 1.312083 0.354644
v 0.474884 1.335774 0.392403
v 0.411577 1.302946 0.338061
v 0.486924 1.331337 0.389762
v 0.502298 1.322193 0.351964
vt 0.069736 0.810409
vt 0.070343 0.836608
vt 0.016229 0.816513
vt 0.108198 0.828833
vt 0.082923 0.858291
vt 0.106675 0.817219
vt 0.100807 0.806030
vt 0.150135 0.804118
vt 0.147186 0.813631
vt 0.174865 0.804059
vt 0.199136 0.770721
vt 0.202768 0.808668
vt 0.238571 0.772226
vt 0.263052 0.806977
vt 0.232791 0.807582
vt 0.219562 0.756768
vt 0.197768 0.831600
vt 0.178180 0.842881
vt 0.234127 0.832144
vt 0.215107 0.851808
vt 0.137368 0.848515
vt 0.110896 0.852930
vt 0.145348 0.858722
vt 0.117053 0.872845
vt 0.102955 0.908822
vt 0.126935 0.911784
vt 0.138976 0.939172
vt 0.152030 0.900103
vt 0.166281 0.939086
vt 0.089864 0.882970
vt 0.149277 0.791186
vt 0.257412 0.845823
vt 0.214501 0.867849
vt 0.213059 0.907146
vt 0.051165 0.936868
vt 0.014365 0.995179
vt 0.015016 0.932731
vt 0.015519 0.884587
vt 0.078700 0.906981
vt 0.119497 0.940371
vt 0.219156 0.966110
vt 0.215077 0.942549
vt 0.015832 0.854569
vt 0.016051 0.833512
vt 0.179234 0.620343
vt 0.197718 0.646091
vt 0.173652 0.698841
vt 0.182928 0.613250
vt 0.178951 0.620309
vt 0.026111 0.589592
vt 0.036575 0.571852
vt 0.091358 0.586156
vt 0.124688 0.593060
vt 0.160572 0.604071
vt 0.170757 0.608279
vt 0.530541 0.500669
vt 0.510531 0.463554
vt 0.551834 0.493069
vt 0.552803 0.545871
vt 0.590385 0.499029
vt 0.586699 0.548165
vt 0.709463 0.233461
vt 0.736981 0.227836
vt 0.754824 0.286062
vt 0.746649 0.660255
vt 0.764971 0.572211
vt 0.792005 0.606361
vt 0.782569 0.517985
vt 0.798161 0.553887
vt 0.756625 0.500475
vt 0.737230 0.581062
vt 0.736075 0.519940
vt 0.733529 0.479446
vt 0.750714 0.455948
vt 0.710553 0.534913
vt 0.713606 0.486083
vt 0.707849 0.591243
vt 0.721914 0.656839
vt 0.056404 0.510554
vt 0.059910 0.459217
vt 0.082250 0.470310
vt 0.111457 0.463904
vt 0.112872 0.507403
vt 0.101446 0.443261
vt 0.056753 0.433066
vt 0.024045 0.465652
vt 0.523770 0.443500
vt 0.557804 0.459512
vt 0.592367 0.472603
vt 0.536472 0.416574
vt 0.563911 0.425104
vt 0.586690 0.416660
vt 0.568725 0.405936
vt 0.575182 0.380223
vt 0.594668 0.441922
vt 0.051716 0.399758
vt 0.024388 0.442698
vt 0.081566 0.396057
vt 0.093588 0.424361
vt 0.128566 0.412255
vt 0.109875 0.389620
vt 0.144957 0.383594
vt 0.141775 0.429221
vt 0.140728 0.456272
vt 0.132597 0.505439
vt 0.682119 0.592684
vt 0.697545 0.666171
vt 0.684063 0.542042
vt 0.648993 0.547098
vt 0.685757 0.487986
vt 0.653522 0.591244
vt 0.623556 0.582985
vt 0.679541 0.670859
vt 0.662650 0.670490
vt 0.157697 0.458631
vt 0.158681 0.391976
vt 0.157741 0.429866
vt 0.177530 0.430906
vt 0.454911 0.444893
vt 0.463736 0.393656
vt 0.479621 0.447783
vt 0.429932 0.441906
vt 0.454684 0.472779
vt 0.434980 0.472434
vt 0.472824 0.476894
vt 0.476425 0.525671
vt 0.456561 0.523166
vt 0.499275 0.486705
vt 0.497959 0.533883
vt 0.650874 0.220393
vt 0.668673 0.225869
vt 0.676740 0.279524
vt 0.688030 0.233060
vt 0.523816 0.542864
vt 0.493663 0.422434
vt 0.474451 0.386123
vt 0.482005 0.375180
vt 0.505422 0.400154
vt 0.514707 0.384843
vt 0.523991 0.369532
vt 0.531331 0.397196
vt 0.491685 0.367753
vt 0.128703 0.369584
vt 0.104505 0.368381
vt 0.099134 0.347142
vt 0.124471 0.341259
vt 0.103840 0.290043
vt 0.125032 0.288667
vt 0.506874 0.315104
vt 0.523971 0.318162
vt 0.260244 0.201008
vt 0.260256 0.148470
vt 0.285563 0.152714
vt 0.307173 0.152925
vt 0.307427 0.206656
vt 0.310405 0.109643
vt 0.286264 0.108735
vt 0.286965 0.064755
vt 0.267247 0.062003
vt 0.295875 0.025083
vt 0.263751 0.105236
vt 0.252893 0.056371
vt 0.440764 0.192044
vt 0.442886 0.130542
vt 0.459726 0.145161
vt 0.438643 0.253546
vt 0.412179 0.246705
vt 0.072435 0.349262
vt 0.073244 0.290649
vt 0.045943 0.349562
vt 0.077001 0.372659
vt 0.598868 0.385923
vt 0.596768 0.413923
vt 0.025330 0.379831
vt 0.048830 0.374660
vt 0.025785 0.349403
vt 0.026752 0.284835
vt 0.049424 0.287418
vt 0.388440 0.194221
vt 0.413018 0.188997
vt 0.545758 0.095983
vt 0.484907 0.101111
vt 0.491324 0.068919
vt 0.543531 0.316131
vt 0.571026 0.317433
vt 0.603411 0.325357
vt 0.336412 0.145885
vt 0.334734 0.199716
vt 0.313637 0.066360
vt 0.339506 0.058746
vt 0.419166 0.101111
vt 0.415550 0.073077
vt 0.418936 0.041329
vt 0.485174 0.030517
vt 0.545250 0.041004
vt 0.555771 0.071660
vt 0.550413 0.377675
vt 0.558050 0.404510
vt 0.731741 0.299501
vt 0.713679 0.331519
vt 0.699831 0.287050
vt 0.699623 0.348759
vt 0.689400 0.321677
vt 0.663804 0.312784
vt 0.654456 0.274483
vt 0.634618 0.311670
vt 0.669502 0.338169
vt 0.604363 0.274181
vt 0.630672 0.275261
vt 0.632768 0.219732
vt 0.612796 0.219139
vt 0.578680 0.274242
vt 0.840163 0.675460
vt 0.805000 0.641210
vt 0.821835 0.616809
vt 0.823287 0.709302
vt 0.792442 0.666262
vt 0.801265 0.732258
vt 0.840971 0.744966
vt 0.781333 0.686390
vt 0.557027 0.277312
vt 0.566024 0.224516
vt 0.589504 0.220607
vt 0.375096 0.492402
vt 0.384961 0.458486
vt 0.405199 0.486941
vt 0.410574 0.526483
vt 0.436273 0.522295
vt 0.410194 0.413373
vt 0.430433 0.380777
vt 0.455808 0.393131
vt 0.165665 0.393959
vt 0.192333 0.391907
vt 0.203471 0.419505
vt 0.207389 0.368304
vt 0.225411 0.391622
vt 0.396034 0.384167
vt 0.373257 0.427405
vt 0.420432 0.356604
vt 0.385943 0.354045
vt 0.365034 0.394965
vt 0.359348 0.362250
vt 0.361655 0.322007
vt 0.331496 0.354320
vt 0.389735 0.318213
vt 0.408299 0.313218
vt 0.407520 0.344510
vt 0.211730 0.328779
vt 0.220254 0.292264
vt 0.240239 0.298890
vt 0.032729 0.262939
vt 0.010266 0.262462
vt 0.022123 0.216488
vt 0.183362 0.259934
vt 0.169879 0.261827
vt 0.170456 0.200058
vt 0.152871 0.212064
vt 0.157816 0.257421
vt 0.131245 0.259389
vt 0.152744 0.212061
vt 0.329851 0.315255
vt 0.305156 0.349663
vt 0.332361 0.395198
vt 0.336616 0.434023
vt 0.342953 0.472564
vt 0.302718 0.434937
vt 0.305443 0.474901
vt 0.344205 0.538039
vt 0.305197 0.529271
vt 0.381368 0.533821
vt 0.526919 0.283769
vt 0.770507 0.751644
vt 0.805920 0.758992
vt 0.759849 0.709726
vt 0.733814 0.766693
vt 0.731822 0.732613
vt 0.715848 0.699675
vt 0.731674 0.685305
vt 0.489862 0.276741
vt 0.503649 0.216719
vt 0.536949 0.224504
vt 0.500193 0.577651
vt 0.546406 0.567669
vt 0.550049 0.651223
vt 0.770277 0.950472
vt 0.741703 0.987031
vt 0.721975 0.973279
vt 0.670795 0.949235
vt 0.691763 0.924160
vt 0.667253 0.759822
vt 0.647596 0.761046
vt 0.661418 0.745912
vt 0.674984 0.731059
vt 0.685126 0.785114
vt 0.727911 0.801324
vt 0.684541 0.813951
vt 0.779951 0.788271
vt 0.812240 0.817931
vt 0.777899 0.838219
vt 0.732181 0.843380
vt 0.684428 0.846295
vt 0.661248 0.840977
vt 0.662804 0.852998
vt 0.662157 0.811417
vt 0.664185 0.784673
vt 0.643244 0.784232
vt 0.590894 0.788058
vt 0.588395 0.804006
vt 0.546988 0.807658
vt 0.648291 0.946686
vt 0.655183 0.935733
vt 0.625362 0.944088
vt 0.565379 0.931164
vt 0.577026 0.913602
vt 0.517318 0.950251
vt 0.518656 0.937728
vt 0.532671 0.916079
vt 0.498534 0.934775
vt 0.508386 0.916362
vt 0.498934 0.958053
vt 0.504952 0.967267
vt 0.538647 0.828159
vt 0.520554 0.803562
vt 0.506540 0.794164
vt 0.512161 0.782695
vt 0.526812 0.792410
vt 0.499805 0.976893
vt 0.490810 0.970078
vt 0.606211 0.225665
vt 0.595724 0.228838
vt 0.600010 0.221730
vt 0.495368 0.986286
vt 0.485546 0.980051
vt 0.476390 0.972088
vt 0.479016 0.958002
vt 0.594230 0.216702
vt 0.592138 0.225545
vt 0.586564 0.214627
vt 0.590529 0.228890
vt 0.597639 0.217468
vt 0.605528 0.228876
vt 0.601098 0.232224
vt 0.604423 0.216146
vt 0.496747 0.782205
vt 0.501342 0.775490
vt 0.492601 0.804070
vt 0.489730 0.787509
vt 0.506750 0.811736
vt 0.492742 0.816421
vt 0.513412 0.828903
vt 0.488759 0.827748
vt 0.474192 0.805949
vt 0.511728 0.849291
vt 0.490026 0.847743
vt 0.536808 0.847447
vt 0.531596 0.867423
vt 0.579848 0.843550
vt 0.583631 0.821038
vt 0.639773 0.808883
vt 0.638068 0.835659
vt 0.640348 0.859960
vt 0.577914 0.864185
vt 0.582099 0.876926
vt 0.584670 0.895647
vt 0.537191 0.899022
vt 0.667339 0.876481
vt 0.668457 0.888449
vt 0.646086 0.879394
vt 0.736172 0.880839
vt 0.740176 0.911475
vt 0.690828 0.897503
vt 0.738403 0.943686
vt 0.778359 0.920543
vt 0.803771 0.938845
vt 0.794015 0.972059
vt 0.784290 0.882232
vt 0.808911 0.904111
vt 0.820719 0.863047
vt 0.834152 0.902731
vt 0.860307 0.861182
vt 0.865071 0.907486
vt 0.854923 0.958699
vt 0.829423 0.947565
vt 0.815176 0.985898
vt 0.887162 0.982680
vt 0.841126 0.997513
vt 0.599526 0.582393
vt 0.641540 0.666649
vt 0.148351 0.505738
vt 0.174193 0.461810
vt 0.207317 0.471588
vt 0.195039 0.515146
vt 0.222404 0.449298
vt 0.239531 0.431097
vt 0.252210 0.395818
vt 0.234712 0.343454
vt 0.265749 0.311085
vt 0.059449 0.258487
vt 0.041224 0.210106
vt 0.046055 0.145057
vt 0.065208 0.145112
vt 0.024679 0.151375
vt 0.162418 0.029328
vt 0.182110 0.066625
vt 0.166653 0.067555
vt 0.184383 0.102727
vt 0.186657 0.138828
vt 0.165079 0.140337
vt 0.141648 0.103851
vt 0.138732 0.067952
vt 0.115723 0.103496
vt 0.111228 0.067117
vt 0.106891 0.104386
vt 0.128518 0.203489
vt 0.120218 0.139876
vt 0.144564 0.139751
vt 0.102553 0.141654
vt 0.109393 0.202459
vt 0.089752 0.204557
vt 0.108356 0.261684
vt 0.084126 0.259809
vt 0.282949 0.354017
vt 0.258549 0.351892
vt 0.279678 0.394818
vt 0.273489 0.435894
vt 0.264764 0.465056
vt 0.236144 0.480843
vt 0.230426 0.525231
vt 0.576400 0.576912
vt 0.612982 0.659816
vt 0.582060 0.650525
vt 0.267987 0.525790
vt 0.305231 0.529680
vt 0.303387 0.392990
vt 0.288143 0.310611
vt 0.305042 0.312138
vt 0.080500 0.144623
vt 0.064947 0.207693
vt 0.555911 0.071265
vt 0.491604 0.068128
vt 0.166360 0.018036
vt 0.194569 0.061886
vt 0.205200 0.106980
vt 0.215831 0.152075
vt 0.145490 0.015442
vt 0.142316 0.025664
vt 0.122222 0.019171
vt 0.183428 0.191935
vt 0.098209 0.061670
vt 0.089191 0.103327
vt 0.904527 0.932446
vt 0.949699 0.948466
vt 0.911335 0.882488
vt 0.856281 0.836740
vt 0.887268 0.835598
vt 0.922921 0.857963
vt 0.965169 0.597470
vt 0.917537 0.577056
vt 0.944867 0.540579
vt 0.978071 0.883628
vt 0.973533 0.894384
vt 0.689807 0.425682
vt 0.723753 0.401854
vt 0.723676 0.441929
vt 0.751080 0.416759
vt 0.743080 0.379427
vt 0.787951 0.419748
vt 0.785654 0.452513
vt 0.788706 0.483118
vt 0.832288 0.454003
vt 0.836262 0.425753
vt 0.780027 0.392874
vt 0.831699 0.398084
vt 0.881984 0.402051
vt 0.879661 0.431814
vt 0.870752 0.458245
vt 0.864071 0.473143
vt 0.827228 0.478044
vt 0.861871 0.491751
vt 0.818704 0.500131
vt 0.958919 0.484608
vt 0.962949 0.502797
vt 0.937394 0.181666
vt 0.769056 0.171862
vt 0.923107 0.165442
vt 0.866430 0.519287
vt 0.825735 0.529120
vt 0.815376 0.348115
vt 0.773877 0.335777
vt 0.788825 0.312483
vt 0.742325 0.347461
vt 0.720633 0.360227
vt 0.774690 0.367418
vt 0.820904 0.374810
vt 0.872377 0.354530
vt 0.878939 0.376376
vt 0.819290 0.317856
vt 0.731418 0.161390
vt 0.740781 0.147624
vt 0.910959 0.146351
vt 0.728397 0.116884
vt 0.914298 0.126964
vt 0.743061 0.135898
vt 0.708508 0.185310
vt 0.696037 0.169448
vt 0.707778 0.159044
vt 0.676057 0.226459
vt 0.677608 0.225465
vt 0.676205 0.240475
vt 0.671792 0.238244
vt 0.671579 0.231190
vt 0.675970 0.223623
vt 0.780888 0.198982
vt 0.721993 0.208356
vt 0.777250 0.185608
vt 0.940749 0.196335
vt 0.683363 0.177018
vt 0.717878 0.068662
vt 0.713329 0.057286
vt 0.765911 0.073368
vt 0.691650 0.061870
vt 0.690905 0.050835
vt 0.704049 0.210128
vt 0.580357 0.233572
vt 0.578678 0.228747
vt 0.590575 0.223615
vt 0.632111 0.223278
vt 0.631029 0.218871
vt 0.633990 0.223808
vt 0.634144 0.230548
vt 0.630419 0.230702
vt 0.627492 0.228454
vt 0.685209 0.070727
vt 0.761098 0.088965
vt 0.932747 0.074007
vt 0.937492 0.094905
vt 0.957631 0.466678
vt 0.967928 0.421502
vt 0.960140 0.443954
vt 0.932725 0.111224
vt 0.750793 0.102746
vt 0.705453 0.080670
vt 0.711538 0.076342
vt 0.680790 0.074556
vt 0.626241 0.226931
vt 0.628045 0.218080
vt 0.582846 0.223738
vt 0.622224 0.225301
vt 0.624718 0.220016
vt 0.697557 0.089662
vt 0.676268 0.086597
vt 0.978665 0.398268
vt 0.692023 0.380408
vt 0.864947 0.581494
vt 0.899554 0.604654
vt 0.958903 0.642431
vt 0.337857 0.805645
vt 0.352329 0.816896
vt 0.335849 0.816248
vt 0.980156 0.877558
vt 0.909464 0.816878
vt 0.926421 0.834067
vt 0.281063 0.862176
vt 0.275086 0.902303
vt 0.214060 0.907716
vt 0.263508 0.936732
vt 0.293204 0.935134
vt 0.312830 0.897319
vt 0.306961 0.939965
vt 0.325778 0.911830
vt 0.378134 0.940095
vt 0.415505 0.929827
vt 0.418784 0.993411
vt 0.352990 0.912880
vt 0.416587 0.879286
vt 0.342977 0.862915
vt 0.334404 0.831281
vt 0.356169 0.822831
vt 0.421828 0.803268
vt 0.423463 0.790571
vt 0.281092 0.802015
vt 0.289344 0.787333
vt 0.914935 0.669173
vt 0.894371 0.655267
vt 0.941248 0.648461
vt 0.865116 0.631419
vt 0.904634 0.714904
vt 0.885904 0.758904
vt 0.900499 0.789879
vt 0.899007 0.788698
vt 0.853737 0.811092
vt 0.829870 0.777931
vt 0.860844 0.709530
vt 0.295623 0.819633
vt 0.287258 0.844412
vt 0.325763 0.856591
vt 0.321747 0.877511
vt 0.342095 0.889562
vt 0.420014 0.823008
vt 0.418443 0.847652
vt 0.214754 0.868398
vt 0.684556 0.874120
vt 0.672119 0.912381
vt 0.652475 0.900602
vt 0.639571 0.922231
vt 0.507622 0.881982
vt 0.511692 0.900015
vt 0.489666 0.900137
vt 0.580288 0.220048
vt 0.602597 0.219251
vt 0.595593 0.231166
vt 0.484047 0.918288
vt 0.483902 0.881354
vt 0.469443 0.898677
vt 0.461404 0.882670
vt 0.450183 0.899039
vt 0.464541 0.917413
vt 0.468275 0.936341
vt 0.471954 0.946277
vt 0.450867 0.951575
vt 0.488129 0.950503
vt 0.459843 0.957822
vt 0.474275 0.794513
vt 0.477930 0.782470
vt 0.464248 0.968801
vt 0.593648 0.229043
vt 0.594800 0.219921
vt 0.444295 0.950359
vt 0.455896 0.935741
vt 0.578071 0.229878
vt 0.581080 0.226636
vt 0.582821 0.231325
vt 0.444016 0.932284
vt 0.589242 0.231216
vt 0.447125 0.916158
vt 0.594684 0.224169
vt 0.596039 0.231008
vt 0.534866 0.881347
vt 0.436167 0.876832
vt 0.451786 0.873540
vt 0.502622 0.869488
vt 0.478622 0.869260
vt 0.600669 0.228516
vt 0.470367 0.846306
vt 0.436632 0.875280
vt 0.588033 0.222815
vt 0.620369 0.220488
vt 0.617885 0.228883
vt 0.604039 0.223910
vt 0.625993 0.229515
vt 0.627942 0.223514
vt 0.630553 0.227391
vt 0.474575 0.826305
vt 0.456368 0.843249
vt 0.468600 0.807609
vt 0.462220 0.823292
vt 0.860756 0.332332
vt 0.993439 0.371060
vt 0.986188 0.383142
vt 0.682025 0.226976
vt 0.679969 0.227249
vt 0.679746 0.240699
vt 0.359744 0.137364
vt 0.391687 0.134896
vt 0.379208 0.097067
vt 0.392501 0.134914
vt 0.338867 0.016386
vt 0.351992 0.060701
vt 0.355868 0.099033
vt 0.358824 0.195455
vt 0.357904 0.253546
vt 0.317688 0.022378
vt 0.316028 0.010349
vt 0.365914 0.059220
vt 0.188288 0.626633
vt 0.020225 0.627476
vt 0.077847 0.729049
vt 0.337959 0.102316
vt 0.605326 0.051490
vt 0.620218 0.074402
vt 0.243365 0.103028
vt 0.606609 0.090856
vt 0.080172 0.144983
vt 0.165866 0.103946
vt 0.385193 0.253546
vt 0.333056 0.253546
vt 0.413857 0.131288
vt 0.459290 0.199353
vt 0.286566 0.257455
vt 0.286064 0.205085
vt 0.260233 0.253546
vt 0.180066 0.618899
vt 0.041004 0.571204
vt 0.031313 0.580504
vt 0.176801 0.615736
vt 0.131432 0.592259
vt 0.168093 0.605199
vt 0.087753 0.577968
vt 0.126587 0.355421
vt 0.542484 0.399799
vt 0.686910 0.758599
vt 0.586835 0.222039
vt 0.016410 0.799097
vt 0.148475 0.720072
vt 0.112435 0.731387
vt 0.084152 0.729883
vt 0.033136 0.705214
vt 0.025959 0.628575
vt 0.025663 0.589717
vt 0.019321 0.677833
vt 0.192463 0.676215
vt 0.778378 0.672029
vt 0.084388 0.511316
vt 0.023385 0.509676
vt 0.024874 0.410259
vt 0.501364 0.360326
vt 0.292615 0.013201
vt 0.157751 0.257609
vt 0.305025 0.313375
vt 0.507675 0.653310
vt 0.608429 0.224637
vt 0.167552 0.508667
vt 0.967338 0.518460
vt 0.937757 0.213909
vt 0.591695 0.226894
vt 0.981627 0.633093
vt 0.446385 0.886139
vt 0.437892 0.943408
vt 0.609547 0.219908
vt 0.459305 0.810763
vt 0.679907 0.223732
vt 0.684787 0.235652
vt 0.107612 0.733849
vt 0.168687 0.701495
vt 0.187110 0.679257
vt 0.192365 0.649132
vt 0.140452 0.724767
vt 0.012425 0.676347
vt 0.026831 0.704379
vt 0.030940 0.580778
vt 0.233836 0.149685
vt 0.307681 0.260387
vt 0.458854 0.253546
vt 0.187870 0.626400
vn 0.340600 -0.616700 0.709600
vn 0.582200 -0.385300 0.716000
vn -0.594700 -0.240500 0.767100
vn 0.974300 -0.217000 0.059700
vn 0.795900 -0.188500 0.575300
vn 0.928700 -0.288400 0.233000
vn 0.435700 -0.695400 0.571400
vn 0.804200 -0.565000 -0.184500
vn 0.783700 -0.133700 -0.606500
vn 0.599900 -0.193200 -0.776400
vn 0.444800 -0.607600 -0.658000
vn 0.323400 -0.078300 -0.943000
vn -0.423900 -0.625100 -0.655300
vn -0.915300 -0.168600 -0.365600
vn -0.141400 -0.008500 -0.989900
vn -0.397900 -0.908700 0.126100
vn 0.364200 -0.173900 -0.914900
vn 0.510500 -0.002100 -0.859900
vn -0.366200 -0.107700 -0.924300
vn 0.074500 -0.234000 -0.969400
vn 0.761200 -0.030900 -0.647700
vn 0.973000 -0.174000 -0.151600
vn 0.579600 0.165100 -0.798000
vn 0.935200 0.071700 -0.346800
vn 0.633100 0.568700 0.525000
vn 0.833500 0.430400 -0.346300
vn 0.494300 0.847700 -0.192400
vn 0.492000 0.375000 -0.785600
vn 0.344800 0.756100 -0.556300
vn 0.784800 0.110100 0.609900
vn 0.414100 -0.852000 0.320300
vn -0.869800 0.121600 -0.478100
vn -0.114800 0.268300 -0.956500
vn -0.324400 0.499500 -0.803200
vn 0.222900 0.917300 0.329800
vn -0.707200 0.688600 -0.160100
vn -0.457300 0.788500 0.411200
vn -0.755400 0.352100 0.552700
vn -0.601600 0.676200 -0.425200
vn -0.320000 0.232100 0.918500
vn -0.165400 -0.017000 0.986100
vn -0.462400 -0.542500 0.701300
vn -0.464500 -0.101600 -0.879700
vn -0.138400 -0.139700 -0.980500
vn -0.820800 0.062000 -0.567900
vn -0.859500 0.099300 -0.501300
vn -0.998800 0.034300 0.034800
vn -0.995800 0.088700 -0.020600
vn -0.988600 -0.115000 -0.096400
vn -0.916900 0.030300 0.398000
vn -0.944800 -0.325100 -0.041400
vn 0.635700 0.259200 0.727100
vn -0.136400 -0.958000 -0.252000
vn 0.158000 0.386400 0.908700
vn -0.763600 -0.174100 0.621800
vn -0.099900 0.117000 0.988100
vn -0.378400 0.617200 0.689800
vn -0.510500 0.788400 0.343300
vn -0.160400 -0.012500 0.986900
vn -0.098000 0.734000 0.672000
vn -0.346300 -0.176500 0.921300
vn -0.604500 -0.044700 0.795300
vn -0.836600 -0.192800 0.512800
vn -0.663300 -0.198900 0.721400
vn -0.106000 -0.359600 0.927100
vn -0.261400 -0.024600 0.964900
vn -0.080500 -0.566500 0.820100
vn -0.712600 -0.232700 0.661800
vn 0.162100 0.222300 -0.961400
vn -0.806500 0.139000 -0.574600
vn -0.999600 0.016100 0.024100
vn 0.026400 0.157500 -0.987200
vn -0.818700 0.145000 -0.555700
vn -0.948700 0.053300 -0.311500
vn -0.665900 -0.092100 -0.740300
vn -0.644200 -0.499700 -0.579000
vn -0.990900 0.121300 -0.058000
vn -0.747800 0.005300 0.663800
vn -0.019700 -0.213500 0.976700
vn 0.002300 -0.413700 0.910400
vn 0.736700 -0.347900 0.579800
vn 0.701200 -0.252200 0.666800
vn 0.989500 -0.106900 -0.097100
vn 0.756600 -0.431100 0.491600
vn 0.524100 -0.308000 0.794000
vn 0.003100 -0.083800 0.996500
vn -0.122300 -0.157300 0.979900
vn 0.142100 0.093700 0.985400
vn 0.118900 0.274100 0.954300
vn 0.042500 0.725600 0.686800
vn 0.077400 -0.101500 0.991800
vn -0.205600 0.007400 0.978600
vn -0.098200 -0.070400 0.992600
vn 0.116200 -0.476200 0.871600
vn 0.275000 -0.866800 -0.415900
vn 0.043900 -0.986400 0.158400
vn -0.744000 -0.455500 0.488800
vn 0.071800 -0.895600 -0.438900
vn 0.147600 -0.528600 -0.835900
vn -0.092100 -0.702700 -0.705500
vn -0.043200 -0.351800 -0.935100
vn 0.142600 -0.432300 -0.890400
vn -0.188800 -0.207700 -0.959800
vn -0.046500 -0.016400 -0.998800
vn 0.049400 0.010200 -0.998700
vn -0.226400 -0.107500 -0.968100
vn -0.162600 -0.020900 -0.986400
vn -0.295500 -0.057300 -0.953600
vn -0.463500 0.024800 -0.885700
vn 0.820800 0.058900 -0.568100
vn 0.990500 -0.128600 -0.047900
vn 0.814400 0.022300 -0.579800
vn 0.817000 -0.237100 -0.525600
vn 0.785600 -0.528800 -0.321100
vn 0.604400 -0.225000 -0.764200
vn 0.978200 -0.205700 -0.026500
vn 0.730200 0.027900 0.682600
vn 0.515000 -0.218800 0.828800
vn 0.958000 -0.212900 0.191900
vn 0.651600 -0.314600 0.690200
vn 0.979500 -0.195700 0.047200
vn 0.568400 -0.644900 -0.510700
vn 0.999000 -0.034700 0.027100
vn 0.993800 -0.107800 0.027300
vn 0.776200 0.255000 -0.576600
vn -0.064000 0.589300 -0.805400
vn 0.103600 -0.225200 -0.968800
vn -0.133800 0.876400 -0.462500
vn 0.482300 0.750800 -0.451100
vn 0.275400 0.745600 -0.606900
vn 0.865300 0.357400 -0.351400
vn 0.458600 0.466100 -0.756600
vn 0.976700 0.158200 -0.144500
vn 0.748600 -0.634100 0.193700
vn 0.755800 0.264000 0.599200
vn 0.699700 -0.427000 0.572700
vn -0.273500 0.292900 0.916200
vn 0.048700 0.411600 0.910000
vn -0.816200 0.219200 0.534500
vn -0.047000 0.352200 0.934800
vn -0.993100 -0.114000 -0.026200
vn -0.978000 0.143000 -0.152000
vn -0.777300 0.362500 0.514200
vn -0.941900 -0.252300 -0.221600
vn -0.971800 -0.142000 0.188000
vn -0.858100 0.287700 0.425300
vn -0.241600 0.461800 0.853400
vn -0.696100 -0.658100 0.287000
vn -0.917400 -0.382400 0.110300
vn -0.000900 -0.931200 0.364300
vn -0.055500 -0.788100 -0.613000
vn -0.622300 -0.542800 -0.564000
vn -0.750500 0.343300 -0.564800
vn -0.649400 -0.129800 -0.749200
vn -0.180900 0.735800 -0.652500
vn -0.653100 0.569100 -0.499500
vn -0.777000 -0.571200 -0.264300
vn -0.293200 -0.705500 -0.645200
vn 0.685200 -0.522000 -0.507900
vn 0.592800 -0.761000 0.263600
vn -0.001300 -0.924900 0.380100
vn 0.181700 -0.717500 -0.672400
vn -0.407700 -0.159100 -0.899100
vn -0.909400 -0.360600 -0.207300
vn -0.717600 -0.237200 -0.654800
vn -0.716700 -0.043100 -0.696000
vn -0.336600 0.451900 -0.826100
vn -0.440400 0.099900 -0.892200
vn -0.111400 0.179700 -0.977400
vn 0.023500 -0.058200 -0.998000
vn 0.178900 0.159100 -0.970900
vn -0.087700 0.465000 -0.880900
vn 0.318100 -0.025000 -0.947700
vn 0.162200 -0.046000 -0.985700
vn 0.118400 0.050100 -0.991700
vn 0.260600 0.035200 -0.964800
vn 0.367400 0.053400 -0.928500
vn 0.346600 0.095100 -0.933200
vn 0.541000 0.165100 -0.824600
vn 0.501700 0.200700 -0.841400
vn 0.444400 0.018300 -0.895600
vn 0.600600 0.018400 -0.799300
vn 0.224200 0.069700 -0.972000
vn 0.490400 -0.117900 -0.863400
vn 0.209700 -0.302000 -0.930000
vn 0.078700 -0.220900 -0.972100
vn -0.780000 -0.000600 -0.625800
vn -0.995700 -0.009200 -0.091800
vn -0.941400 -0.253500 -0.222400
vn -0.804100 -0.099200 0.586200
vn -0.997000 -0.052200 -0.057000
vn -0.810700 -0.036000 0.584300
vn -0.833500 -0.023500 -0.552000
vn -0.021300 -0.016100 -0.999600
vn -0.710600 -0.300300 -0.636200
vn -0.071000 0.013900 -0.997400
vn -0.010600 -0.329700 -0.944000
vn 0.038600 -0.422300 -0.905600
vn 0.703800 -0.137600 -0.696900
vn -0.616700 -0.293200 -0.730500
vn -0.981300 -0.185100 -0.053500
vn -0.977000 -0.206400 -0.053400
vn -0.783000 -0.388400 0.485800
vn -0.966000 -0.043500 0.254700
vn -0.847600 0.082900 -0.524000
vn -0.051300 0.077300 -0.995700
vn 0.792600 -0.178700 -0.583000
vn 0.996900 -0.077800 -0.002500
vn 0.768000 0.016400 -0.640200
vn 0.756900 -0.085200 -0.648000
vn 0.830700 -0.069200 -0.552500
vn 0.987600 -0.082100 0.133400
vn 0.993500 -0.110600 0.025500
vn 0.922100 0.014400 -0.386700
vn 0.999500 0.024000 0.022700
vn 0.889000 -0.119700 -0.441900
vn 0.775300 -0.157400 -0.611700
vn 0.629500 0.170900 -0.757900
vn 0.471400 -0.532000 -0.703300
vn 0.544000 -0.825300 -0.151300
vn 0.304200 -0.939800 0.155900
vn 0.979100 -0.203400 -0.007400
vn 0.808900 -0.314500 0.496700
vn 0.876600 -0.044700 0.479100
vn -0.853300 -0.301700 0.425300
vn -0.503600 0.128900 0.854200
vn -0.728000 0.515100 -0.452400
vn -0.946200 0.317100 -0.064200
vn -0.937200 0.252700 0.240500
vn 0.308500 -0.203400 -0.929200
vn 0.752200 0.039100 -0.657700
vn 0.811000 0.111300 -0.574400
vn 0.662600 0.033400 -0.748200
vn 0.503300 0.631500 -0.589800
vn 0.721200 0.611200 -0.325900
vn 0.763200 0.614800 -0.198700
vn 0.892500 0.436100 -0.114800
vn 0.961500 -0.116400 -0.248900
vn 0.993300 -0.074300 0.088000
vn 0.768600 -0.092600 -0.633000
vn -0.197700 0.305100 -0.931500
vn -0.387300 0.411800 -0.824900
vn -0.975200 0.196100 0.102700
vn -0.560400 0.493200 -0.665300
vn -0.306800 0.861400 -0.404700
vn -0.823800 0.004800 0.566900
vn -0.803700 -0.149200 0.575900
vn -0.811200 0.305800 0.498500
vn -0.713300 -0.196000 0.672900
vn -0.578500 -0.036400 0.814800
vn -0.624700 -0.101600 0.774300
vn -0.493500 0.494100 0.715700
vn -0.279900 0.959300 -0.036300
vn 0.408100 0.402600 -0.819300
vn 0.095300 0.705400 -0.702400
vn -0.259600 0.569900 -0.779600
vn -0.425700 0.904300 -0.030600
vn -0.223800 0.478700 0.849000
vn -0.558100 0.827800 0.057600
vn -0.103700 0.528100 0.842800
vn 0.153800 0.528900 0.834600
vn 0.411900 -0.479100 0.775000
vn -0.094900 -0.332700 0.938200
vn 0.227400 -0.821800 0.522300
vn -0.144900 -0.989300 -0.012100
vn -0.854200 -0.360100 0.375000
vn -0.615600 0.445900 -0.649700
vn -0.463300 -0.376000 -0.802500
vn -0.235600 -0.074600 -0.969000
vn 0.208400 0.201700 -0.957000
vn -0.106700 -0.085400 -0.990600
vn 0.475000 0.091000 -0.875200
vn 0.012400 -0.138100 -0.990300
vn -0.791000 0.403400 -0.460000
vn 0.622000 -0.046300 -0.781600
vn 0.441400 -0.265500 -0.857100
vn 0.695600 0.077300 -0.714200
vn 0.929700 -0.218500 -0.296400
vn 0.783200 0.018000 -0.621500
vn 0.182100 0.342300 -0.921800
vn 0.516600 0.081100 -0.852400
vn 0.937200 -0.236100 -0.256800
vn 0.891500 -0.371900 0.258700
vn 0.947400 -0.311200 -0.074600
vn 0.485200 -0.609300 0.627200
vn -0.413400 -0.424900 0.805300
vn -0.330000 -0.456900 0.826000
vn 0.655000 -0.002200 0.755600
vn 0.069800 0.095700 0.993000
vn 0.343200 -0.323000 0.882000
vn 0.383600 0.879800 0.280600
vn -0.231100 0.551700 0.801400
vn 0.149500 0.569500 0.808200
vn 0.177500 -0.750800 0.636200
vn -0.281500 0.241900 0.928600
vn -0.307600 0.116200 0.944400
vn 0.292300 -0.219100 0.930800
vn 0.188600 0.787000 0.587400
vn -0.127100 0.512800 0.849000
vn 0.392200 0.875800 0.281300
vn -0.033100 0.482000 0.875500
vn 0.229600 0.956800 0.178300
vn -0.127800 0.601900 0.788200
vn -0.100600 0.052700 0.993500
vn -0.048400 0.014900 0.998700
vn -0.150400 -0.078700 0.985500
vn -0.090500 -0.095100 0.991300
vn -0.494900 -0.265300 0.827400
vn 0.128900 -0.197500 0.971800
vn 0.069800 -0.053200 0.996100
vn 0.147100 -0.373000 0.916100
vn 0.002300 -0.150100 0.988600
vn 0.027000 0.055400 0.998100
vn -0.762200 -0.329900 0.556800
vn 0.109000 -0.302700 0.946800
vn -0.735100 0.030800 0.677200
vn -0.705800 -0.624900 0.333600
vn -0.070000 -0.492900 0.867200
vn -0.990900 -0.120000 -0.059900
vn -0.145000 0.788400 -0.597700
vn -0.805300 0.568300 -0.169000
vn -0.166400 0.949900 -0.264500
vn -0.950200 0.286600 -0.122000
vn -0.738100 0.469000 -0.484900
vn 0.156800 0.944100 -0.290000
vn 0.325000 0.861400 -0.390400
vn 0.438900 0.861200 -0.256300
vn 0.759700 0.622300 -0.188600
vn 0.820400 0.562400 -0.102900
vn 0.816200 0.074500 -0.572900
vn 0.728800 0.554600 -0.401500
vn 0.060300 0.808000 -0.586000
vn 0.996400 0.028000 0.080000
vn 0.993200 -0.008500 0.115800
vn 0.806600 -0.002300 0.591100
vn 0.972700 -0.232200 -0.003300
vn 0.902300 -0.099900 0.419200
vn 0.811900 0.013200 0.583600
vn 0.053400 -0.090600 0.994400
vn 0.635500 0.017500 0.771800
vn 0.641100 -0.122600 0.757600
vn 0.749200 -0.173900 0.639100
vn 0.620200 -0.075100 0.780800
vn 0.474300 -0.142600 0.868700
vn 0.992700 0.005200 0.120200
vn 0.626900 -0.609600 0.485100
vn 0.080400 0.091600 0.992500
vn 0.800000 -0.591500 0.100600
vn 0.060000 -0.992600 0.106000
vn 0.034300 -0.994400 0.099400
vn -0.461800 -0.884400 0.067000
vn -0.744700 -0.665800 0.045200
vn -0.603100 -0.412900 -0.682400
vn 0.310800 -0.449000 -0.837700
vn 0.342200 0.792600 -0.504700
vn 0.714900 -0.318000 -0.622700
vn 0.848900 -0.526200 0.049000
vn 0.018900 0.492000 0.870400
vn -0.109300 0.803700 0.584800
vn 0.423500 0.866000 -0.265800
vn 0.241200 0.952100 0.187700
vn -0.190300 0.903800 0.383200
vn -0.388400 0.912600 0.127100
vn -0.409400 0.795700 -0.446200
vn -0.227900 0.972000 0.057300
vn -0.386000 0.836600 -0.388700
vn -0.202000 0.979400 -0.001400
vn -0.787700 0.540400 -0.295700
vn -0.683800 0.006900 -0.729600
vn -0.984100 0.169000 -0.053400
vn -0.764300 0.479100 0.431600
vn -0.263900 0.542700 0.797400
vn -0.871600 0.200600 0.447200
vn -0.953000 -0.120700 -0.277800
vn -0.758700 -0.258400 -0.597900
vn -0.510100 -0.421500 -0.749700
vn -0.207100 -0.015600 -0.978200
vn -0.763700 0.172200 -0.622100
vn -0.957800 -0.014700 0.286900
vn -0.533400 -0.064100 0.843400
vn -0.241200 0.314600 0.918000
vn 0.110900 -0.281000 0.953200
vn 0.482400 0.227600 0.845900
vn -0.964500 -0.154600 0.213900
vn -0.474700 -0.586600 0.656100
vn -0.127900 -0.827000 0.547300
vn 0.297700 -0.682400 0.667500
vn 0.776100 -0.327600 0.538700
vn 0.953500 -0.076700 0.291300
vn 0.803300 -0.423700 -0.418600
vn -0.222000 -0.881200 -0.417400
vn -0.624300 -0.522700 -0.580600
vn -0.613400 0.217900 -0.759100
vn -0.262200 -0.597100 -0.758100
vn 0.318100 -0.476900 -0.819300
vn 0.988800 -0.127800 -0.076300
vn 0.628000 -0.014400 -0.778000
vn 0.251300 -0.883700 0.394700
vn 0.829400 -0.153000 0.537200
vn 0.777600 -0.430300 0.458400
vn 0.604700 0.673000 -0.425900
vn 0.917100 0.349400 -0.191700
vn 0.738900 0.654200 -0.161400
vn 0.934900 -0.109000 0.337700
vn 0.748200 0.471600 -0.466600
vn -0.221300 -0.966100 0.132900
vn 0.872600 -0.449200 0.191400
vn -0.226000 -0.155800 -0.961500
vn -0.947200 0.257900 -0.190300
vn -0.933500 -0.312100 0.176300
vn -0.843100 -0.353100 0.405500
vn 0.927800 -0.034900 0.371400
vn -0.686900 0.235900 -0.687300
vn -0.562300 -0.535800 -0.629800
vn -0.846200 -0.302700 0.438500
vn -0.513000 -0.225000 0.828400
vn 0.544000 0.227100 0.807800
vn 0.411600 -0.780100 0.471200
vn 0.408200 -0.880200 0.242100
vn -0.100200 -0.390000 -0.915300
vn -0.503100 0.647900 -0.571900
vn -0.848700 0.377200 -0.370700
vn -0.288900 0.651300 -0.701700
vn 0.375700 0.624600 -0.684600
vn 0.061000 0.800100 -0.596800
vn 0.164300 0.603900 -0.779900
vn -0.340400 0.367200 -0.865600
vn 0.663800 -0.051500 -0.746100
vn 0.586900 -0.680100 0.439200
vn -0.591500 0.117800 -0.797600
vn -0.945000 0.220000 -0.242000
vn -0.808300 0.300100 0.506500
vn -0.836900 -0.532300 0.127400
vn 0.225500 0.941300 -0.251000
vn 0.208000 0.934800 0.287800
vn -0.489200 0.020400 -0.871900
vn -0.503500 0.273000 -0.819700
vn 0.841600 0.267500 -0.469100
vn 0.719600 0.602000 -0.346000
vn -0.285800 0.665900 -0.689000
vn 0.552100 0.823300 -0.131300
vn -0.492000 0.863400 -0.111500
vn -0.893900 0.365900 -0.258900
vn -0.432000 0.806500 0.403500
vn -0.773300 0.285500 0.566000
vn 0.754000 0.600400 0.266500
vn 0.515300 0.448100 0.730500
vn -0.852900 -0.167000 0.494600
vn -0.912500 -0.408700 -0.015800
vn -0.547000 -0.476900 0.688000
vn 0.575200 -0.221900 0.787300
vn -0.626900 -0.701500 -0.338900
vn -0.653800 -0.735800 -0.176300
vn 0.382700 -0.241000 -0.891900
vn 0.166500 0.020400 -0.985800
vn 0.546500 -0.645300 -0.533700
vn 0.059000 -0.473900 -0.878600
vn 0.076200 0.150300 -0.985700
vn 0.574100 0.260200 -0.776300
vn 0.607900 0.014800 -0.793800
vn 0.689500 0.539100 -0.483600
vn 0.556200 0.668200 -0.494000
vn 0.383400 0.205700 -0.900400
vn 0.322200 0.221600 -0.920300
vn -0.719800 -0.180400 -0.670300
vn 0.503000 -0.289900 -0.814100
vn -0.564800 -0.291600 -0.772000
vn -0.922300 -0.293300 -0.251700
vn -0.905300 -0.233700 -0.354600
vn -0.819400 0.063700 0.569700
vn 0.813500 -0.134400 0.565700
vn 0.611200 0.484800 0.625600
vn 0.796700 -0.201400 -0.569800
vn 0.697500 0.445600 0.561200
vn -0.496000 0.021800 0.868000
vn -0.546400 -0.061000 0.835300
vn -0.838100 0.026500 0.544900
vn 0.550900 -0.479300 0.683200
vn -0.310100 -0.311300 0.898300
vn -0.188200 -0.074400 0.979300
vn -0.515200 -0.000600 0.857100
vn -0.018100 -0.998900 -0.042500
vn 0.533500 -0.532700 0.656900
vn -0.484200 0.100100 0.869200
vn 0.614600 -0.397000 0.681600
vn 0.085400 0.291700 0.952700
vn 0.666600 -0.441700 0.600400
vn 0.371500 0.550400 0.747600
vn -0.226000 0.535900 0.813400
vn -0.709000 0.164400 0.685800
vn -0.802500 -0.228000 0.551300
vn -0.368000 -0.029400 0.929300
vn -0.697000 -0.583800 -0.416200
vn -0.581100 0.723900 -0.371700
vn -0.429300 0.796700 0.425200
vn -0.625600 0.723000 -0.293000
vn -0.736500 0.022700 0.676000
vn -0.118500 0.925400 0.360100
vn 0.103500 0.812100 0.574200
vn 0.575600 -0.585000 0.571200
vn 0.439300 -0.818800 -0.369500
vn 0.904800 -0.273100 -0.326700
vn 0.781900 -0.476700 -0.401600
vn 0.087000 -0.632200 -0.769900
vn -0.222400 -0.442900 0.868500
vn -0.425700 -0.867600 -0.256900
vn -0.741100 -0.355100 -0.569800
vn -0.325500 -0.112400 -0.938800
vn 0.422100 -0.679200 -0.600400
vn -0.982200 0.113300 0.149600
vn -0.655700 -0.459500 0.599100
vn -0.820200 0.529400 -0.216800
vn -0.895500 0.391400 -0.211900
vn -0.982700 0.163200 -0.087000
vn -0.254100 0.415200 -0.873500
vn -0.556000 0.736800 -0.384600
vn -0.019900 -0.098400 0.994900
vn -0.332500 0.895500 -0.295600
vn 0.721600 -0.218500 -0.656800
vn 0.046500 -0.238800 -0.969900
vn -0.706300 -0.509500 -0.491500
s 1
f 5/1/1 10/2/2 25/3/3
f 18/4/4 28/5/5 10/2/2
f 14/6/6 5/1/1 12/7/7
f 14/6/6 6/8/8 18/4/4
f 14/6/6 18/4/4 10/2/2
f 18/4/4 6/8/8 11/9/9
f 11/9/9 6/8/8 32/10/10
f 6/8/8 20/11/11 32/10/10
f 32/10/10 20/11/11 26/12/12
f 34/13/13 33/14/14 35/15/15
f 34/13/13 20/11/11 19/16/16
f 34/13/13 35/15/15 26/12/12
f 26/12/12 24/17/17 17/18/18
f 24/17/17 36/19/19 30/20/20
f 17/18/18 32/10/10 26/12/12
f 17/18/18 11/9/9 32/10/10
f 17/18/18 27/21/21 11/9/9
f 18/4/4 29/22/22 28/5/5
f 29/22/22 18/4/4 11/9/9
f 27/21/21 7/23/23 15/24/24
f 9/25/25 16/26/26 13/27/27
f 16/26/26 8/28/28 3/29/29
f 15/24/24 7/23/23 8/28/28
f 16/26/26 9/25/25 4/30/30
f 4/30/30 28/5/5 29/22/22
f 1/31/31 14/6/6 12/7/7
f 14/6/6 1/31/31 6/8/8
f 19/16/16 20/11/11 6/8/8
f 35/15/15 36/19/19 24/17/17
f 30/20/20 36/19/19 37/32/32
f 30/20/20 21/33/33 17/18/18
f 7/23/23 27/21/21 17/18/18
f 7/23/23 21/33/33 23/34/34
f 2/35/35 38/36/36 41/37/37
f 40/38/38 9/39/25 2/35/35
f 2/40/35 13/27/27 38/41/36
f 3/29/29 38/41/36 13/27/27
f 3/29/29 39/42/39 38/41/36
f 3/29/29 8/28/28 23/34/34
f 9/39/25 40/38/38 42/43/40
f 42/43/40 31/44/41 28/5/5
f 31/44/41 25/3/3 10/2/2
f 33/14/14 37/32/32 35/15/15
f 37/32/32 36/19/19 35/15/15
f 25/45/3 31/46/41 40/47/38
f 22/48/42 25/49/3 33/50/14
f 22/48/42 34/51/13 19/52/16
f 1/53/31 12/54/7 5/55/1
f 44/56/43 337/57/44 56/58/45
f 44/56/43 56/58/45 174/59/46
f 56/58/45 206/60/47 251/61/48
f 174/62/46 251/63/48 208/64/49
f 173/65/50 59/66/51 208/67/49
f 59/66/51 67/68/52 212/69/53
f 67/68/52 59/66/51 385/70/54
f 59/66/51 47/71/55 381/72/56
f 381/72/56 51/73/57 63/74/58
f 381/72/56 420/75/59 334/76/60
f 420/75/59 381/72/56 47/71/55
f 332/77/61 47/71/55 169/78/62
f 47/71/55 59/66/51 173/65/50
f 173/79/50 55/80/63 43/81/64
f 43/81/64 330/82/65 349/83/66
f 43/81/64 55/80/63 336/84/67
f 336/84/67 55/80/63 144/85/68
f 144/85/68 55/80/63 206/86/47
f 206/86/47 55/80/63 173/79/50
f 56/58/45 339/87/69 145/88/70
f 145/88/70 239/89/71 206/60/47
f 145/88/70 341/90/72 153/91/73
f 507/92/74 508/93/75 157/94/76
f 153/91/73 243/95/77 239/89/71
f 152/96/78 144/85/68 239/97/71
f 340/98/79 338/99/80 144/85/68
f 148/100/81 154/101/82 241/102/83
f 154/101/82 148/100/81 338/99/80
f 148/100/81 123/103/84 336/84/67
f 111/104/85 330/82/65 336/84/67
f 111/104/85 179/105/86 349/83/66
f 115/106/87 332/77/61 349/107/66
f 332/77/61 115/106/87 406/108/88
f 406/108/88 410/109/89 119/110/90
f 410/109/89 265/111/91 116/112/92
f 406/108/88 115/106/87 265/111/91
f 115/106/87 179/113/86 277/114/93
f 179/105/86 111/104/85 263/115/94
f 123/103/84 279/116/95 269/117/96
f 263/115/94 111/104/85 123/103/84
f 263/115/94 269/117/96 124/118/97
f 124/118/97 269/117/96 279/116/95
f 270/119/98 279/120/95 125/121/99
f 279/120/95 270/119/98 126/122/100
f 270/119/98 264/123/101 114/124/102
f 125/121/99 113/125/103 264/123/101
f 113/125/103 177/126/104 276/127/105
f 331/128/106 348/129/107 177/126/104
f 177/130/104 348/131/107 333/132/108
f 333/132/108 348/131/107 170/133/109
f 44/56/43 331/128/106 337/57/44
f 331/128/106 44/56/43 170/134/109
f 337/57/44 125/121/99 150/135/110
f 337/57/44 331/128/106 113/125/103
f 125/121/99 279/120/95 150/135/110
f 279/120/95 241/136/83 150/135/110
f 241/136/83 244/137/111 150/135/110
f 150/135/110 244/137/111 155/138/112
f 501/139/113 159/140/114 511/141/115
f 155/138/112 244/137/111 504/142/116
f 244/143/111 241/102/83 154/101/82
f 502/144/117 158/145/118 246/146/119
f 162/147/120 248/148/121 246/146/119
f 248/149/121 163/150/122 159/140/114
f 495/151/123 250/152/124 165/153/125
f 165/153/125 347/154/126 498/155/127
f 481/156/128 478/157/129 395/158/130
f 395/158/130 450/159/131 168/160/132
f 478/157/129 479/161/133 450/159/131
f 168/160/132 450/159/131 408/162/134
f 494/163/135 164/164/136 250/165/124
f 494/163/135 162/166/120 344/167/137
f 162/147/120 158/145/118 342/168/138
f 344/169/137 342/168/138 156/170/139
f 506/171/140 340/98/79 152/96/78
f 157/94/76 245/172/141 505/173/142
f 505/174/142 503/175/143 152/96/78
f 245/176/141 247/177/144 160/178/145
f 500/179/146 497/180/147 344/167/137
f 477/181/148 464/182/149 456/183/150
f 157/94/76 345/184/151 161/185/152
f 247/186/144 245/172/141 157/94/76
f 347/154/126 460/187/153 499/188/154
f 481/156/128 455/189/155 461/190/156
f 166/191/157 465/192/158 456/183/150
f 465/192/158 167/193/159 408/194/134
f 408/162/134 450/159/131 479/161/133
f 483/195/160 482/196/161 456/183/150
f 345/184/151 157/94/76 343/197/162
f 509/198/163 508/93/75 153/91/73
f 509/198/163 153/91/73 341/90/72
f 511/141/115 159/140/114 343/197/162
f 163/150/122 345/184/151 343/197/162
f 502/144/117 154/101/82 340/98/79
f 339/87/69 337/57/44 150/135/110
f 339/87/69 341/90/72 145/88/70
f 339/87/69 150/135/110 155/138/112
f 337/57/44 339/87/69 56/58/45
f 241/102/83 279/116/95 123/103/84
f 60/199/164 380/200/165 48/201/166
f 48/201/166 170/133/109 174/62/46
f 380/200/165 335/202/167 419/203/168
f 419/203/168 333/132/108 48/201/166
f 405/204/169 117/205/170 333/132/108
f 409/206/171 405/204/169 121/207/172
f 409/206/171 118/208/173 266/209/174
f 266/209/174 117/205/170 405/204/169
f 276/210/105 177/130/104 117/205/170
f 266/209/174 118/208/173 178/211/175
f 178/211/175 118/208/173 305/212/176
f 404/213/177 118/214/173 409/215/171
f 418/216/178 305/217/176 118/214/173
f 379/218/179 418/216/178 307/219/180
f 379/218/179 49/220/181 305/217/176
f 49/221/181 171/222/182 314/223/183
f 45/224/184 309/225/185 303/226/186
f 45/224/184 303/226/186 314/227/183
f 303/226/186 114/124/102 178/228/175
f 114/124/102 264/123/101 276/127/105
f 309/225/185 151/229/187 126/122/100
f 126/122/100 114/124/102 303/226/186
f 151/229/187 242/230/188 230/231/189
f 230/232/189 242/233/188 149/234/190
f 242/233/188 254/235/191 183/236/192
f 184/237/193 151/229/187 313/238/194
f 184/237/193 254/239/191 242/230/188
f 254/239/191 184/237/193 188/240/195
f 317/241/196 184/237/193 313/238/194
f 317/241/196 319/242/197 188/240/195
f 321/243/198 319/242/197 185/244/199
f 321/243/198 192/245/200 188/240/195
f 192/245/200 258/246/201 256/247/202
f 256/248/202 258/249/201 191/250/203
f 191/251/203 258/252/201 260/253/204
f 258/254/201 192/255/200 196/256/205
f 323/257/206 321/258/198 189/259/207
f 323/260/206 196/256/205 192/255/200
f 189/261/207 321/243/198 185/244/199
f 189/261/207 185/244/199 255/262/208
f 255/262/208 185/244/199 181/263/209
f 319/242/197 317/241/196 181/263/209
f 146/264/210 313/238/194 57/265/211
f 181/263/209 317/241/196 313/238/194
f 181/263/209 146/264/210 240/266/212
f 146/264/210 57/265/211 207/267/213
f 57/265/211 175/268/214 252/269/215
f 45/224/184 57/265/211 309/225/185
f 45/224/184 171/270/182 175/268/214
f 171/222/182 49/221/181 61/271/216
f 383/272/217 379/218/179 53/273/218
f 383/272/217 61/274/216 49/220/181
f 383/272/217 397/275/219 95/276/220
f 95/276/220 222/277/221 209/278/222
f 209/279/222 252/280/215 175/281/214
f 209/282/222 62/283/223 176/284/224
f 62/285/223 209/286/222 222/287/221
f 222/287/221 224/288/225 100/289/226
f 512/290/227 103/291/228 519/292/229
f 224/293/225 222/277/221 95/276/220
f 95/276/220 397/275/219 399/294/230
f 397/275/219 97/295/231 101/296/232
f 383/272/217 53/273/218 65/297/233
f 65/297/233 97/295/231 397/275/219
f 65/297/233 328/298/234 211/299/235
f 211/299/235 223/300/236 97/295/231
f 223/300/236 225/301/237 101/296/232
f 514/302/238 225/301/237 521/303/239
f 514/302/238 513/304/240 101/296/232
f 513/304/240 515/305/241 399/294/230
f 401/306/242 103/291/228 512/290/227
f 107/307/243 403/308/244 411/309/245
f 403/308/244 107/307/243 103/291/228
f 519/310/229 517/311/246 224/288/225
f 103/312/228 107/313/243 228/314/247
f 107/313/243 411/315/245 281/316/248
f 107/313/243 281/316/248 294/317/249
f 281/316/248 369/318/250 371/319/251
f 369/318/250 281/316/248 372/320/252
f 281/316/248 411/315/245 429/321/253
f 411/309/245 283/322/254 373/323/255
f 359/324/256 423/325/257 429/326/253
f 423/327/257 357/328/258 372/320/252
f 427/329/259 360/330/260 365/331/261
f 427/332/259 365/333/261 357/328/258
f 365/333/261 362/334/262 356/335/263
f 362/336/262 425/337/264 426/338/265
f 425/337/264 360/330/260 361/339/266
f 362/336/262 365/331/261 360/330/260
f 361/340/266 364/341/267 363/342/268
f 364/341/267 361/340/266 360/343/260
f 364/344/267 427/345/259 423/325/257
f 359/324/256 358/346/269 363/347/268
f 376/348/270 375/349/271 358/346/269
f 359/324/256 373/323/255 376/348/270
f 373/323/255 283/322/254 368/350/272
f 287/351/273 413/352/274 375/349/271
f 375/349/271 376/348/270 368/350/272
f 368/350/272 370/353/275 297/354/276
f 283/322/254 295/355/277 370/353/275
f 370/353/275 295/355/277 282/356/278
f 282/356/278 295/355/277 229/357/279
f 295/355/277 283/322/254 109/358/280
f 109/358/280 283/322/254 411/309/245
f 109/358/280 403/308/244 401/306/242
f 105/359/281 227/360/282 229/357/279
f 227/360/282 106/361/283 110/362/284
f 428/363/285 108/364/286 280/365/287
f 520/366/288 518/367/289 400/368/290
f 98/369/291 396/370/292 398/371/293
f 396/370/292 96/372/294 100/289/226
f 382/373/295 62/285/223 96/372/294
f 382/373/295 378/374/296 50/375/297
f 382/373/295 66/376/298 54/377/299
f 66/376/298 382/373/295 396/370/292
f 98/369/291 223/300/236 211/299/235
f 211/299/235 328/298/234 310/378/300
f 310/378/300 306/379/301 54/377/299
f 310/378/300 127/380/302 120/381/303
f 407/382/304 417/383/305 306/379/301
f 378/374/296 54/377/299 306/379/301
f 417/383/305 304/384/306 50/375/297
f 407/382/304 410/385/89 116/386/92
f 116/386/92 304/384/306 417/383/305
f 304/387/306 116/112/92 180/388/307
f 265/111/91 277/114/93 180/388/307
f 277/389/93 263/115/94 112/390/308
f 112/390/308 302/391/309 315/392/310
f 112/390/308 124/118/97 308/393/311
f 308/393/311 124/118/97 149/234/190
f 312/394/312 149/234/190 183/236/192
f 316/395/313 183/236/192 187/396/314
f 187/396/314 183/236/192 254/235/191
f 187/396/314 191/250/203 320/397/315
f 320/398/315 191/251/203 195/399/316
f 195/399/316 199/400/317 324/401/318
f 195/399/316 260/253/204 467/402/319
f 203/403/320 452/404/321 447/405/322
f 492/406/323 467/407/319 200/408/324
f 489/409/325 453/410/326 447/405/322
f 489/409/325 488/411/327 448/412/328
f 491/413/329 448/412/328 488/411/327
f 193/414/330 323/260/206 189/259/207
f 193/414/330 197/415/331 325/416/332
f 261/417/333 259/418/334 194/419/335
f 261/417/333 197/415/331 193/414/330
f 193/414/330 189/259/207 257/420/336
f 190/421/337 194/419/335 259/418/334
f 194/419/335 190/421/337 320/398/315
f 186/422/338 318/423/339 320/397/315
f 186/422/338 182/424/340 316/395/313
f 147/425/341 312/394/312 316/395/313
f 147/425/341 58/426/342 308/393/311
f 46/427/343 302/391/309 308/393/311
f 46/427/343 172/428/344 315/392/310
f 50/429/297 304/387/306 315/430/310
f 172/431/344 176/284/224 62/283/223
f 46/427/343 58/426/342 176/432/224
f 207/267/213 252/433/215 176/432/224
f 147/425/341 240/266/212 207/267/213
f 182/424/340 253/434/345 240/266/212
f 182/424/340 186/422/338 255/262/208
f 190/435/337 257/436/336 255/262/208
f 198/437/346 261/417/333 194/419/335
f 198/437/346 194/419/335 322/438/347
f 486/181/348 490/439/349 454/440/350
f 485/195/351 446/194/352 454/440/350
f 446/194/352 202/193/353 326/192/354
f 202/441/353 446/442/352 452/404/321
f 485/443/351 199/444/317 467/407/319
f 326/445/354 327/446/355 201/447/356
f 326/445/354 202/441/353 203/403/320
f 467/407/319 260/448/204 196/256/205
f 327/446/355 453/410/326 448/412/328
f 201/447/356 448/412/328 449/449/357
f 449/182/357 454/440/350 326/192/354
f 491/413/329 486/450/348 449/449/357
f 267/451/358 119/452/90 410/385/89
f 267/451/358 410/385/89 407/382/304
f 120/381/303 127/380/302 271/453/359
f 127/380/302 459/454/360 131/455/361
f 131/455/361 273/456/362 271/453/359
f 132/457/363 231/458/364 128/459/365
f 132/460/363 128/461/365 271/453/359
f 271/453/359 128/461/365 119/452/90
f 128/462/365 350/463/366 329/464/367
f 329/464/367 334/76/60 119/110/90
f 329/464/367 63/74/58 51/73/57
f 210/465/368 350/463/366 64/466/369
f 63/74/58 329/464/367 350/463/366
f 213/467/370 69/468/371 63/74/58
f 69/468/371 387/469/372 385/70/54
f 387/469/372 69/468/371 434/470/373
f 69/468/371 213/467/370 437/471/374
f 213/467/370 70/472/375 435/473/376
f 435/473/376 74/474/377 215/475/378
f 73/476/379 434/470/373 437/471/374
f 73/476/379 389/477/380 439/478/381
f 389/477/380 71/479/382 433/480/383
f 391/481/384 75/482/385 71/479/382
f 75/483/385 79/484/386 216/485/387
f 214/486/388 71/479/382 75/482/385
f 214/486/388 438/487/389 433/480/383
f 438/487/389 212/69/53 67/68/52
f 433/480/383 67/68/52 387/469/372
f 436/488/390 68/489/391 212/490/53
f 68/489/391 384/491/392 60/199/164
f 60/199/164 208/64/49 212/490/53
f 60/199/164 384/491/392 380/200/165
f 380/200/165 384/491/392 52/492/393
f 52/492/393 384/491/392 64/466/369
f 384/491/392 68/489/391 386/493/394
f 386/493/394 70/472/375 64/466/369
f 386/493/394 440/494/395 435/473/376
f 386/493/394 68/489/391 436/488/390
f 436/488/390 72/495/396 388/496/397
f 72/495/396 436/488/390 438/497/389
f 80/498/398 442/499/399 76/500/400
f 392/501/401 390/502/402 444/503/403
f 200/408/324 196/256/205 323/260/206
f 76/500/400 442/499/399 444/503/403
f 84/504/404 394/505/405 392/506/401
f 441/507/406 445/508/407 442/509/399
f 80/510/398 392/511/401 443/512/408
f 81/513/409 83/514/410 393/515/411
f 81/513/409 393/515/411 391/516/384
f 79/484/386 393/515/411 83/514/410
f 393/515/411 79/484/386 75/483/385
f 83/514/410 84/504/404 80/498/398
f 394/505/405 84/504/404 88/517/412
f 85/518/413 83/519/410 81/520/409
f 85/518/413 89/521/414 87/522/415
f 87/523/415 88/517/412 84/504/404
f 87/524/415 91/525/416 92/526/417
f 93/527/418 221/528/419 91/529/416
f 91/529/416 87/530/415 89/531/414
f 89/531/414 220/532/420 221/528/419
f 220/533/420 89/521/414 85/518/413
f 85/518/413 81/520/409 218/534/421
f 81/520/409 77/535/422 217/536/423
f 77/537/422 73/476/379 215/475/378
f 391/481/384 389/477/380 73/476/379
f 74/474/377 78/538/424 217/539/423
f 78/540/424 82/541/425 218/534/421
f 82/541/425 86/542/426 219/543/427
f 90/544/428 220/533/420 219/543/427
f 90/545/428 94/546/429 221/528/419
f 92/526/417 91/525/416 221/547/419
f 90/545/428 88/548/412 92/549/417
f 86/542/426 394/550/405 88/551/412
f 86/542/426 82/541/425 392/501/401
f 388/496/397 390/552/402 78/538/424
f 74/474/377 435/473/376 440/494/395
f 70/472/375 213/467/370 210/465/368
f 64/466/369 350/463/366 52/492/393
f 231/553/364 350/463/366 128/462/365
f 231/553/364 121/207/172 335/202/167
f 52/492/393 335/202/167 380/200/165
f 350/463/366 231/553/364 335/202/167
f 121/207/172 405/204/169 419/203/168
f 121/554/172 231/458/364 130/555/430
f 130/555/430 231/458/364 233/556/431
f 233/557/431 140/558/432 236/559/433
f 233/556/431 231/458/364 132/457/363
f 140/560/432 132/460/363 273/456/362
f 131/455/361 137/561/434 275/562/435
f 138/563/436 143/564/437 470/565/438
f 469/42/439 136/566/440 468/41/441
f 470/565/438 143/564/437 136/566/440
f 235/567/442 468/41/441 136/566/440
f 136/566/440 143/564/437 238/568/443
f 135/569/444 468/41/441 235/567/442
f 235/567/442 238/568/443 142/570/445
f 135/571/444 472/572/446 468/573/441
f 135/571/444 142/574/445 471/575/447
f 430/576/448 262/577/449 205/578/450
f 430/576/448 205/578/450 278/579/451
f 140/558/432 275/580/435 278/579/451
f 262/577/449 139/581/452 236/559/433
f 236/559/433 140/558/432 205/578/450
f 236/559/433 139/581/452 134/582/453
f 458/13/454 139/581/452 457/14/455
f 274/583/456 272/584/457 134/585/453
f 274/16/456 134/582/453 139/581/452
f 134/585/453 272/584/457 268/586/458
f 272/584/457 133/587/459 268/586/458
f 268/586/458 133/587/459 129/588/460
f 129/588/460 133/587/459 234/589/461
f 274/583/456 133/587/459 272/584/457
f 234/590/461 232/591/462 129/588/460
f 129/588/460 232/591/462 307/219/180
f 307/219/180 232/591/462 311/592/463
f 311/592/463 232/591/462 328/298/234
f 232/591/462 459/454/360 328/298/234
f 459/454/360 127/380/302 310/378/300
f 459/454/360 232/591/462 131/455/361
f 232/591/462 234/589/461 137/561/434
f 311/592/463 328/298/234 53/273/218
f 53/273/218 328/298/234 65/297/233
f 311/592/463 53/273/218 307/219/180
f 53/273/218 379/218/179 307/219/180
f 307/219/180 122/593/464 129/588/460
f 122/593/464 268/586/458 129/588/460
f 268/586/458 409/215/171 121/554/172
f 122/593/464 404/213/177 409/215/171
f 122/593/464 307/219/180 418/216/178
f 121/554/172 130/555/430 268/586/458
f 130/555/430 134/585/453 268/586/458
f 134/585/453 130/555/430 233/556/431
f 134/582/453 233/557/431 236/559/433
f 139/581/452 204/594/465 457/14/455
f 204/594/465 473/32/466 457/14/455
f 473/32/466 204/594/465 431/595/467
f 262/577/449 430/576/448 432/596/468
f 204/594/465 139/581/452 262/577/449
f 204/594/465 262/577/449 432/596/468
f 431/595/467 432/596/468 237/597/469
f 432/596/468 430/576/448 141/598/470
f 141/598/470 430/576/448 476/599/471
f 141/598/470 475/600/472 471/575/447
f 238/568/443 237/597/469 141/598/470
f 237/597/469 238/568/443 143/564/437
f 431/595/467 138/563/436 474/601/473
f 420/75/59 406/108/88 119/110/90
f 98/369/291 102/602/474 225/301/237
f 518/367/289 516/603/475 104/604/476
f 516/603/475 100/289/226 224/288/225
f 226/605/477 228/314/247 108/364/286
f 228/314/247 294/317/249 280/365/287
f 402/606/478 366/607/479 284/608/480
f 293/609/481 352/610/482 412/611/483
f 280/365/287 294/317/249 371/319/251
f 296/612/484 284/608/480 366/607/479
f 416/613/485 284/608/480 288/614/486
f 414/615/487 288/614/486 351/616/488
f 288/614/486 284/608/480 296/612/484
f 298/617/489 296/612/484 285/618/490
f 296/612/484 371/319/251 369/318/250
f 285/618/490 374/619/491 413/620/274
f 374/619/491 377/621/492 356/335/263
f 374/619/491 285/618/490 369/318/250
f 377/621/492 372/320/252 357/328/258
f 424/622/493 413/620/274 374/619/491
f 424/623/493 358/346/269 375/349/271
f 424/623/493 426/624/265 363/347/268
f 356/335/263 362/334/262 426/625/265
f 363/342/268 426/626/265 425/627/264
f 413/620/274 415/628/494 289/629/495
f 422/630/496 292/631/497 354/632/498
f 354/633/498 289/629/495 415/628/494
f 300/634/499 354/632/498 292/631/497
f 300/635/499 298/617/489 289/629/495
f 300/634/499 293/636/481 351/637/488
f 351/616/488 288/614/486 298/617/489
f 282/356/278 421/638/500 402/606/478
f 421/638/500 280/365/287 366/607/479
f 352/639/482 290/640/501 414/615/487
f 367/641/502 402/606/478 416/613/485
f 110/362/284 428/363/285 421/638/500
f 106/361/283 400/368/290 428/363/285
f 286/642/503 416/613/485 414/615/487
f 351/637/488 293/636/481 412/643/483
f 297/354/276 370/353/275 367/641/502
f 297/354/276 286/642/503 290/640/501
f 299/644/504 290/640/501 352/645/482
f 301/646/505 293/636/481 300/634/499
f 301/647/505 355/648/506 352/649/482
f 353/650/507 292/651/497 422/652/496
f 301/646/505 300/634/499 292/631/497
f 353/650/507 355/648/506 301/647/505
f 291/653/508 299/644/504 355/654/506
f 287/351/273 297/354/276 299/644/504
f 291/653/508 415/655/494 413/352/274
f 415/655/494 291/653/508 353/656/507
f 57/265/211 313/238/194 309/225/185
f 309/225/185 313/238/194 151/229/187
f 72/495/396 214/657/388 216/658/387
f 72/495/396 76/659/400 390/552/402
f 79/484/386 80/498/398 76/500/400
f 390/502/402 392/501/401 82/541/425
f 443/660/408 462/661/509 445/508/407
f 444/662/403 462/661/509 443/660/408
f 444/662/403 442/509/399 445/508/407
f 447/405/322 453/410/326 327/446/355
f 249/663/510 463/664/511 500/179/146
f 477/665/148 463/666/511 249/663/510
f 461/190/156 166/667/157 451/668/512
f 480/669/513 249/663/510 460/187/153
f 499/188/154 496/670/514 247/671/144
f 455/189/155 466/672/515 166/667/157
f 465/673/158 166/667/157 466/672/515
f 465/673/158 466/672/515 168/160/132
f 455/189/155 395/158/130 168/160/132
f 464/674/149 451/668/512 166/667/157
f 400/368/290 104/604/476 108/364/286
f 400/368/290 106/361/283 521/303/239
f 66/376/298 211/299/235 310/378/300
f 267/451/358 120/381/303 271/453/359
f 267/451/358 271/453/359 119/452/90
f 278/675/451 473/676/466 469/677/439
f 451/668/512 480/669/513 484/678/516
f 464/674/149 477/665/148 480/669/513
f 164/679/136 346/680/517 482/196/161
f 483/681/160 479/161/133 250/152/124
f 347/154/126 481/156/128 484/678/516
f 463/682/511 477/181/148 482/196/161
f 165/153/125 250/152/124 479/161/133
f 347/154/126 165/153/125 478/157/129
f 261/417/333 198/683/346 486/450/348
f 446/442/352 485/443/351 492/406/323
f 199/679/317 485/195/351 490/439/349
f 198/682/346 324/680/318 490/439/349
f 491/413/329 488/411/327 197/415/331
f 325/416/332 197/415/331 488/411/327
f 325/416/332 489/409/325 487/684/518
f 452/404/321 492/406/323 487/684/518
f 460/187/153 249/663/510 496/670/514
f 496/670/514 500/179/146 160/685/145
f 498/155/127 499/188/154 161/686/152
f 463/664/511 346/687/517 497/180/147
f 164/164/136 494/163/135 497/180/147
f 162/166/120 494/163/135 495/688/123
f 163/689/122 493/690/519 498/155/127
f 248/691/121 495/151/123 493/690/519
f 68/489/391 60/199/164 212/490/53
f 208/67/49 59/66/51 212/69/53
f 387/469/372 67/68/52 385/70/54
f 275/692/435 458/693/454 457/694/455
f 275/692/435 137/695/434 133/696/459
f 234/697/461 133/696/459 137/695/434
f 458/693/454 275/692/435 274/698/456
f 158/145/118 502/144/117 506/171/140
f 245/176/141 156/170/139 503/175/143
f 506/171/140 503/175/143 156/170/139
f 154/101/82 502/144/117 504/699/116
f 159/140/114 501/139/113 504/142/116
f 341/90/72 511/141/115 510/700/520
f 343/197/162 509/198/163 510/700/520
f 343/197/162 157/94/76 508/93/75
f 153/91/73 508/93/75 507/92/74
f 243/95/77 507/92/74 505/173/142
f 501/139/113 511/141/115 341/90/72
f 515/305/241 512/290/227 99/701/521
f 105/359/281 401/306/242 515/305/241
f 227/360/282 105/359/281 513/304/240
f 104/604/476 516/603/475 517/311/246
f 398/371/293 100/289/226 516/603/475
f 226/605/477 517/311/246 519/310/229
f 99/701/521 512/290/227 519/292/229
f 102/602/474 520/366/288 521/303/239
f 102/602/474 398/371/293 518/367/289
f 514/302/238 521/303/239 106/361/283
f 94/702/429 92/526/417 221/547/419
f 22/703/42 5/1/1 25/3/3
f 5/1/1 14/6/6 10/2/2
f 20/11/11 34/13/13 26/12/12
f 27/21/21 29/22/22 11/9/9
f 29/22/22 27/21/21 15/24/24
f 2/40/35 9/25/25 13/27/27
f 13/27/27 16/26/26 3/29/29
f 16/26/26 15/24/24 8/28/28
f 15/24/24 16/26/26 4/30/30
f 15/24/24 4/30/30 29/22/22
f 1/31/31 19/16/16 6/8/8
f 26/12/12 35/15/15 24/17/17
f 21/33/33 30/20/20 37/32/32
f 24/17/17 30/20/20 17/18/18
f 21/33/33 7/23/23 17/18/18
f 8/28/28 7/23/23 23/34/34
f 41/37/37 40/38/38 2/35/35
f 39/42/39 3/29/29 23/34/34
f 4/30/30 9/39/25 42/43/40
f 4/30/30 42/43/40 28/5/5
f 28/5/5 31/44/41 10/2/2
f 41/704/37 38/705/36 40/47/38
f 39/706/39 23/707/34 37/708/32
f 37/708/32 33/709/14 25/45/3
f 23/707/34 21/710/33 37/708/32
f 40/47/38 38/705/36 39/706/39
f 31/46/41 42/711/40 40/47/38
f 37/708/32 25/45/3 39/706/39
f 40/47/38 39/706/39 25/45/3
f 34/51/13 22/48/42 33/50/14
f 5/55/1 22/48/42 19/52/16
f 19/52/16 1/53/31 5/55/1
f 170/134/109 44/56/43 174/59/46
f 174/59/46 56/58/45 251/61/48
f 60/199/164 174/62/46 208/64/49
f 251/712/48 173/65/50 208/67/49
f 385/70/54 59/66/51 381/72/56
f 385/70/54 381/72/56 63/74/58
f 51/73/57 381/72/56 334/76/60
f 332/77/61 420/75/59 47/71/55
f 349/107/66 332/77/61 169/78/62
f 169/78/62 47/71/55 173/65/50
f 169/713/62 173/79/50 43/81/64
f 169/713/62 43/81/64 349/83/66
f 330/82/65 43/81/64 336/84/67
f 338/99/80 336/84/67 144/85/68
f 239/97/71 144/85/68 206/86/47
f 251/714/48 206/86/47 173/79/50
f 56/58/45 145/88/70 206/60/47
f 145/88/70 153/91/73 239/89/71
f 243/715/77 152/96/78 239/97/71
f 152/96/78 340/98/79 144/85/68
f 340/98/79 154/101/82 338/99/80
f 338/99/80 148/100/81 336/84/67
f 123/103/84 111/104/85 336/84/67
f 330/82/65 111/104/85 349/83/66
f 179/113/86 115/106/87 349/107/66
f 420/75/59 332/77/61 406/108/88
f 410/109/89 406/108/88 265/111/91
f 265/111/91 115/106/87 277/114/93
f 277/389/93 179/105/86 263/115/94
f 269/117/96 263/115/94 123/103/84
f 112/390/308 263/115/94 124/118/97
f 230/232/189 124/118/97 279/116/95
f 230/231/189 279/120/95 126/122/100
f 126/122/100 270/119/98 114/124/102
f 270/119/98 125/121/99 264/123/101
f 264/123/101 113/125/103 276/127/105
f 113/125/103 331/128/106 177/126/104
f 117/205/170 177/130/104 333/132/108
f 48/201/166 333/132/108 170/133/109
f 348/129/107 331/128/106 170/134/109
f 125/121/99 337/57/44 113/125/103
f 501/139/113 155/138/112 504/142/116
f 504/699/116 502/144/117 246/146/119
f 158/145/118 162/147/120 246/146/119
f 246/716/119 248/149/121 159/140/114
f 493/690/519 495/151/123 165/153/125
f 493/690/519 165/153/125 498/155/127
f 455/189/155 481/156/128 395/158/130
f 395/158/130 478/157/129 450/159/131
f 167/717/159 168/160/132 408/162/134
f 495/688/123 494/163/135 250/165/124
f 497/180/147 494/163/135 344/167/137
f 344/169/137 162/147/120 342/168/138
f 160/178/145 344/169/137 156/170/139
f 503/175/143 506/171/140 152/96/78
f 507/92/74 157/94/76 505/173/142
f 243/715/77 505/174/142 152/96/78
f 156/170/139 245/176/141 160/178/145
f 160/685/145 500/179/146 344/167/137
f 482/196/161 477/181/148 456/183/150
f 161/185/152 247/186/144 157/94/76
f 498/155/127 347/154/126 499/188/154
f 484/678/516 481/156/128 461/190/156
f 464/182/149 166/191/157 456/183/150
f 456/183/150 465/192/158 408/194/134
f 483/681/160 408/162/134 479/161/133
f 408/194/134 483/195/160 456/183/150
f 510/700/520 509/198/163 341/90/72
f 510/700/520 511/141/115 343/197/162
f 159/140/114 163/150/122 343/197/162
f 506/171/140 502/144/117 340/98/79
f 341/90/72 339/87/69 155/138/112
f 148/100/81 241/102/83 123/103/84
f 60/199/164 48/201/166 174/62/46
f 380/200/165 419/203/168 48/201/166
f 419/203/168 405/204/169 333/132/108
f 409/206/171 266/209/174 405/204/169
f 266/209/174 276/210/105 117/205/170
f 276/210/105 266/209/174 178/211/175
f 314/223/183 178/211/175 305/212/176
f 404/213/177 418/216/178 118/214/173
f 418/216/178 379/218/179 305/217/176
f 305/212/176 49/221/181 314/223/183
f 171/270/182 45/224/184 314/227/183
f 314/227/183 303/226/186 178/228/175
f 178/228/175 114/124/102 276/127/105
f 309/225/185 126/122/100 303/226/186
f 126/122/100 151/229/187 230/231/189
f 124/118/97 230/232/189 149/234/190
f 149/234/190 242/233/188 183/236/192
f 151/229/187 184/237/193 242/230/188
f 256/247/202 254/239/191 188/240/195
f 184/237/193 317/241/196 188/240/195
f 319/242/197 321/243/198 188/240/195
f 188/240/195 192/245/200 256/247/202
f 187/396/314 256/248/202 191/250/203
f 195/399/316 191/251/203 260/253/204
f 260/448/204 258/254/201 196/256/205
f 321/718/198 323/260/206 192/255/200
f 257/719/336 189/261/207 255/262/208
f 253/434/345 255/262/208 181/263/209
f 185/244/199 319/242/197 181/263/209
f 146/264/210 181/263/209 313/238/194
f 253/434/345 181/263/209 240/266/212
f 240/266/212 146/264/210 207/267/213
f 207/267/213 57/265/211 252/269/215
f 57/265/211 45/224/184 175/268/214
f 175/281/214 171/222/182 61/271/216
f 379/218/179 383/272/217 49/220/181
f 61/274/216 383/272/217 95/276/220
f 61/274/216 95/276/220 209/278/222
f 61/271/216 209/279/222 175/281/214
f 252/720/215 209/282/222 176/284/224
f 96/372/294 62/285/223 222/287/221
f 96/372/294 222/287/221 100/289/226
f 99/701/521 224/293/225 95/276/220
f 99/701/521 95/276/220 399/294/230
f 399/294/230 397/275/219 101/296/232
f 383/272/217 65/297/233 397/275/219
f 65/297/233 211/299/235 97/295/231
f 97/295/231 223/300/236 101/296/232
f 225/301/237 514/302/238 101/296/232
f 101/296/232 513/304/240 399/294/230
f 515/305/241 401/306/242 512/290/227
f 401/306/242 403/308/244 103/291/228
f 226/605/477 103/312/228 228/314/247
f 228/314/247 107/313/243 294/317/249
f 294/317/249 281/316/248 371/319/251
f 377/621/492 369/318/250 372/320/252
f 372/320/252 281/316/248 429/321/253
f 429/326/253 411/309/245 373/323/255
f 373/323/255 359/324/256 429/326/253
f 429/321/253 423/327/257 372/320/252
f 423/327/257 427/332/259 357/328/258
f 357/328/258 365/333/261 356/335/263
f 425/337/264 362/336/262 360/330/260
f 427/721/259 364/341/267 360/343/260
f 359/324/256 364/344/267 423/325/257
f 364/344/267 359/324/256 363/347/268
f 358/346/269 359/324/256 376/348/270
f 376/348/270 373/323/255 368/350/272
f 287/351/273 375/349/271 368/350/272
f 287/351/273 368/350/272 297/354/276
f 368/350/272 283/322/254 370/353/275
f 367/641/502 370/353/275 282/356/278
f 110/362/284 282/356/278 229/357/279
f 229/357/279 295/355/277 109/358/280
f 403/308/244 109/358/280 411/309/245
f 105/359/281 109/358/280 401/306/242
f 109/358/280 105/359/281 229/357/279
f 229/357/279 227/360/282 110/362/284
f 421/638/500 428/363/285 280/365/287
f 102/602/474 98/369/291 398/371/293
f 398/371/293 396/370/292 100/289/226
f 396/370/292 382/373/295 96/372/294
f 62/285/223 382/373/295 50/375/297
f 378/374/296 382/373/295 54/377/299
f 98/369/291 66/376/298 396/370/292
f 66/376/298 98/369/291 211/299/235
f 66/376/298 310/378/300 54/377/299
f 306/379/301 310/378/300 120/381/303
f 120/381/303 407/382/304 306/379/301
f 417/383/305 378/374/296 306/379/301
f 378/374/296 417/383/305 50/375/297
f 407/382/304 116/386/92 417/383/305
f 315/430/310 304/387/306 180/388/307
f 116/112/92 265/111/91 180/388/307
f 180/722/307 277/389/93 112/390/308
f 180/722/307 112/390/308 315/392/310
f 302/391/309 112/390/308 308/393/311
f 312/394/312 308/393/311 149/234/190
f 316/395/313 312/394/312 183/236/192
f 318/423/339 316/395/313 187/396/314
f 256/248/202 187/396/314 254/235/191
f 318/423/339 187/396/314 320/397/315
f 322/438/347 320/398/315 195/399/316
f 322/438/347 195/399/316 324/401/318
f 199/400/317 195/399/316 467/402/319
f 487/684/518 492/406/323 200/408/324
f 487/684/518 489/409/325 447/405/322
f 453/410/326 489/409/325 448/412/328
f 323/260/206 193/414/330 325/416/332
f 259/418/334 261/417/333 193/414/330
f 259/418/334 193/414/330 257/420/336
f 257/420/336 190/421/337 259/418/334
f 322/438/347 194/419/335 320/398/315
f 190/435/337 186/422/338 320/397/315
f 318/423/339 186/422/338 316/395/313
f 182/424/340 147/425/341 316/395/313
f 312/394/312 147/425/341 308/393/311
f 58/426/342 46/427/343 308/393/311
f 302/391/309 46/427/343 315/392/310
f 172/431/344 50/429/297 315/430/310
f 50/429/297 172/431/344 62/283/223
f 172/428/344 46/427/343 176/432/224
f 58/426/342 207/267/213 176/432/224
f 58/426/342 147/425/341 207/267/213
f 147/425/341 182/424/340 240/266/212
f 253/434/345 182/424/340 255/262/208
f 186/422/338 190/435/337 255/262/208
f 324/401/318 198/437/346 322/438/347
f 449/182/357 486/181/348 454/440/350
f 490/439/349 485/195/351 454/440/350
f 454/440/350 446/194/352 326/192/354
f 203/403/320 202/441/353 452/404/321
f 492/406/323 485/443/351 467/407/319
f 327/446/355 326/445/354 203/403/320
f 200/408/324 467/407/319 196/256/205
f 201/447/356 327/446/355 448/412/328
f 201/191/356 449/182/357 326/192/354
f 448/412/328 491/413/329 449/449/357
f 120/381/303 267/451/358 407/382/304
f 127/380/302 131/455/361 271/453/359
f 273/456/362 132/460/363 271/453/359
f 128/462/365 329/464/367 119/110/90
f 334/76/60 329/464/367 51/73/57
f 210/465/368 63/74/58 350/463/366
f 210/465/368 213/467/370 63/74/58
f 63/74/58 69/468/371 385/70/54
f 439/478/381 387/469/372 434/470/373
f 434/470/373 69/468/371 437/471/374
f 437/471/374 213/467/370 435/473/376
f 437/471/374 435/473/376 215/475/378
f 215/475/378 73/476/379 437/471/374
f 434/470/373 73/476/379 439/478/381
f 439/478/381 389/477/380 433/480/383
f 389/477/380 391/481/384 71/479/382
f 216/723/387 214/486/388 75/482/385
f 71/479/382 214/486/388 433/480/383
f 433/480/383 438/487/389 67/68/52
f 439/478/381 433/480/383 387/469/372
f 438/497/389 436/488/390 212/490/53
f 384/491/392 386/493/394 64/466/369
f 70/472/375 386/493/394 435/473/376
f 440/494/395 386/493/394 436/488/390
f 440/494/395 436/488/390 388/496/397
f 214/657/388 72/495/396 438/497/389
f 325/416/332 200/408/324 323/260/206
f 390/502/402 76/500/400 444/503/403
f 80/498/398 84/504/404 392/506/401
f 80/510/398 441/507/406 442/509/399
f 441/507/406 80/510/398 443/512/408
f 77/724/422 81/513/409 391/516/384
f 391/516/384 393/515/411 75/483/385
f 79/484/386 83/514/410 80/498/398
f 83/519/410 85/518/413 87/522/415
f 83/514/410 87/523/415 84/504/404
f 88/725/412 87/524/415 92/526/417
f 93/527/418 91/529/416 89/531/414
f 93/527/418 89/531/414 221/528/419
f 219/543/427 220/533/420 85/518/413
f 219/543/427 85/518/413 218/534/421
f 218/534/421 81/520/409 217/536/423
f 217/539/423 77/537/422 215/475/378
f 77/537/422 391/481/384 73/476/379
f 215/475/378 74/474/377 217/539/423
f 217/536/423 78/540/424 218/534/421
f 218/534/421 82/541/425 219/543/427
f 86/542/426 90/544/428 219/543/427
f 220/532/420 90/545/428 221/528/419
f 94/546/429 90/545/428 92/549/417
f 90/544/428 86/542/426 88/551/412
f 394/550/405 86/542/426 392/501/401
f 74/474/377 388/496/397 78/538/424
f 388/496/397 74/474/377 440/494/395
f 64/466/369 70/472/375 210/465/368
f 52/492/393 350/463/366 335/202/167
f 335/202/167 121/207/172 419/203/168
f 140/726/432 233/556/431 132/457/363
f 275/562/435 140/560/432 273/456/362
f 273/456/362 131/455/361 275/562/435
f 474/601/473 138/563/436 470/565/438
f 469/42/439 470/565/438 136/566/440
f 235/567/442 136/566/440 238/568/443
f 135/569/444 235/567/442 142/570/445
f 472/572/446 135/571/444 471/575/447
f 476/599/471 430/576/448 278/579/451
f 205/578/450 140/558/432 278/579/451
f 262/577/449 236/559/433 205/578/450
f 458/13/454 274/16/456 139/581/452
f 328/298/234 459/454/360 310/378/300
f 131/455/361 232/591/462 137/561/434
f 268/586/458 122/593/464 409/215/171
f 404/213/177 122/593/464 418/216/178
f 431/595/467 204/594/465 432/596/468
f 138/563/436 431/595/467 237/597/469
f 237/597/469 432/596/468 141/598/470
f 475/600/472 141/598/470 476/599/471
f 142/574/445 141/598/470 471/575/447
f 142/570/445 238/568/443 141/598/470
f 138/563/436 237/597/469 143/564/437
f 473/32/466 431/595/467 474/601/473
f 334/76/60 420/75/59 119/110/90
f 223/300/236 98/369/291 225/301/237
f 400/368/290 518/367/289 104/604/476
f 517/311/246 516/603/475 224/288/225
f 104/604/476 226/605/477 108/364/286
f 108/364/286 228/314/247 280/365/287
f 416/613/485 402/606/478 284/608/480
f 366/607/479 280/365/287 371/319/251
f 371/319/251 296/612/484 366/607/479
f 414/615/487 416/613/485 288/614/486
f 412/727/483 414/615/487 351/616/488
f 298/617/489 288/614/486 296/612/484
f 289/629/495 298/617/489 285/618/490
f 285/618/490 296/612/484 369/318/250
f 377/621/492 374/619/491 369/318/250
f 356/335/263 377/621/492 357/328/258
f 356/335/263 424/622/493 374/619/491
f 413/352/274 424/623/493 375/349/271
f 358/346/269 424/623/493 363/347/268
f 424/622/493 356/335/263 426/625/265
f 361/340/266 363/342/268 425/627/264
f 285/618/490 413/620/274 289/629/495
f 422/728/496 354/633/498 415/628/494
f 354/633/498 300/635/499 289/629/495
f 300/635/499 351/616/488 298/617/489
f 367/641/502 282/356/278 402/606/478
f 402/606/478 421/638/500 366/607/479
f 412/727/483 352/639/482 414/615/487
f 286/642/503 367/641/502 416/613/485
f 282/356/278 110/362/284 421/638/500
f 110/362/284 106/361/283 428/363/285
f 290/640/501 286/642/503 414/615/487
f 286/642/503 297/354/276 367/641/502
f 299/644/504 297/354/276 290/640/501
f 355/654/506 299/644/504 352/645/482
f 293/729/481 301/647/505 352/649/482
f 292/651/497 353/650/507 301/647/505
f 353/656/507 291/653/508 355/654/506
f 291/653/508 287/351/273 299/644/504
f 287/351/273 291/653/508 413/352/274
f 422/730/496 415/655/494 353/656/507
f 76/659/400 72/495/396 216/658/387
f 388/496/397 72/495/396 390/552/402
f 216/485/387 79/484/386 76/500/400
f 78/540/424 390/502/402 82/541/425
f 441/731/406 443/660/408 445/508/407
f 392/732/401 444/662/403 443/660/408
f 462/661/509 444/662/403 445/508/407
f 203/403/320 447/405/322 327/446/355
f 496/670/514 249/663/510 500/179/146
f 480/669/513 477/665/148 249/663/510
f 484/678/516 480/669/513 460/187/153
f 161/686/152 499/188/154 247/671/144
f 461/190/156 455/189/155 166/667/157
f 167/717/159 465/673/158 168/160/132
f 466/672/515 455/189/155 168/160/132
f 428/363/285 400/368/290 108/364/286
f 520/366/288 400/368/290 521/303/239
f 469/677/439 468/733/441 471/734/447
f 471/734/447 475/735/472 476/736/471
f 468/733/441 472/737/446 471/734/447
f 474/738/473 470/739/438 473/676/466
f 278/675/451 457/740/455 473/676/466
f 473/676/466 470/739/438 469/677/439
f 469/677/439 471/734/447 278/675/451
f 476/736/471 278/675/451 471/734/447
f 461/190/156 451/668/512 484/678/516
f 451/668/512 464/674/149 480/669/513
f 483/195/160 164/679/136 482/196/161
f 164/741/136 483/681/160 250/152/124
f 460/187/153 347/154/126 484/678/516
f 346/680/517 463/682/511 482/196/161
f 478/157/129 165/153/125 479/161/133
f 481/156/128 347/154/126 478/157/129
f 491/413/329 261/417/333 486/450/348
f 452/404/321 446/442/352 492/406/323
f 324/680/318 199/679/317 490/439/349
f 486/181/348 198/682/346 490/439/349
f 261/417/333 491/413/329 197/415/331
f 489/409/325 325/416/332 488/411/327
f 200/408/324 325/416/332 487/684/518
f 447/405/322 452/404/321 487/684/518
f 499/188/154 460/187/153 496/670/514
f 247/671/144 496/670/514 160/685/145
f 345/742/151 498/155/127 161/686/152
f 500/179/146 463/664/511 497/180/147
f 346/687/517 164/164/136 497/180/147
f 248/743/121 162/166/120 495/688/123
f 345/742/151 163/689/122 498/155/127
f 163/689/122 248/691/121 493/690/519
f 278/744/451 275/692/435 457/694/455
f 274/698/456 275/692/435 133/696/459
f 342/168/138 158/145/118 506/171/140
f 505/174/142 245/176/141 503/175/143
f 342/168/138 506/171/140 156/170/139
f 244/143/111 154/101/82 504/699/116
f 246/716/119 159/140/114 504/142/116
f 509/198/163 343/197/162 508/93/75
f 243/95/77 153/91/73 507/92/74
f 155/138/112 501/139/113 341/90/72
f 399/294/230 515/305/241 99/701/521
f 513/304/240 105/359/281 515/305/241
f 514/302/238 227/360/282 513/304/240
f 226/605/477 104/604/476 517/311/246
f 518/367/289 398/371/293 516/603/475
f 103/312/228 226/605/477 519/310/229
f 224/293/225 99/701/521 519/292/229
f 225/301/237 102/602/474 521/303/239
f 520/366/288 102/602/474 518/367/289
f 227/360/282 514/302/238 106/361/283
