# Blender v2.76 (sub 0) OBJ File: 'npc_zerogmut.blend'
# www.blender.org
v -0.060044 -0.172870 0.006006
v 0.126255 -0.129664 0.027701
v -0.000369 -0.080927 0.164214
v -0.163594 -0.027229 0.077500
v -0.137845 -0.042782 -0.112606
v 0.041290 -0.106090 -0.143381
v 0.137845 0.042680 0.112606
v -0.041290 0.105988 0.143381
v -0.126255 0.129563 -0.027701
v 0.000369 0.080825 -0.164214
v 0.163594 0.027128 -0.077500
v 0.060044 0.172769 -0.006006
vt 0.386864 0.162439
vt 0.420370 0.171564
vt 0.404543 0.178763
vt 0.457854 0.162439
vt 0.437234 0.176672
vt 0.391864 0.186615
vt 0.379156 0.185491
vt 0.450146 0.185491
vt 0.427359 0.193267
vt 0.414651 0.194392
vt 0.401739 0.203211
vt 0.384875 0.208318
vt 0.440037 0.201119
vt 0.455865 0.208318
vt 0.422359 0.217443
vn 0.150900 -0.878400 0.453600
vn 0.246400 -0.936000 -0.251300
vn -0.513300 -0.643600 0.567700
vn -0.828400 -0.556200 -0.066700
vn -0.358900 -0.736900 -0.572900
vn 0.758800 -0.477700 -0.442700
vn 0.604400 -0.384400 0.697800
vn -0.470300 -0.004600 0.882500
vn -0.980100 0.136800 -0.143900
vn -0.220400 -0.155600 -0.962900
vn 0.980100 -0.136800 0.143900
vn 0.220400 0.155600 0.962900
vn -0.758800 0.477700 0.442700
vn -0.604400 0.384400 -0.697800
vn 0.470300 0.004600 -0.882500
vn 0.828400 0.556200 0.066700
vn 0.358900 0.736900 0.572900
vn -0.246400 0.936000 0.251300
vn -0.150900 0.878400 -0.453600
vn 0.513300 0.643600 -0.567700
s off
f 1/1/1 2/2/1 3/3/1
f 2/2/2 1/4/2 6/5/2
f 1/1/3 3/3/3 4/6/3
f 1/1/4 4/6/4 5/7/4
f 1/4/5 5/8/5 6/5/5
f 2/2/6 6/5/6 11/9/6
f 3/3/7 2/2/7 7/10/7
f 4/6/8 3/3/8 8/11/8
f 5/7/9 4/6/9 9/12/9
f 6/5/10 5/8/10 10/13/10
f 2/2/11 11/9/11 7/10/11
f 3/3/12 7/10/12 8/11/12
f 4/6/13 8/11/13 9/12/13
f 5/8/14 9/14/14 10/13/14
f 6/5/15 10/13/15 11/9/15
f 7/10/16 11/9/16 12/15/16
f 8/11/17 7/10/17 12/15/17
f 9/14/18 8/11/18 12/15/18
f 10/13/19 9/14/19 12/15/19
f 11/9/20 10/13/20 12/15/20
v -0.110941 -0.217148 0.117123
v 0.170500 -0.192119 0.084824
v 0.032752 -0.023183 0.267483
v -0.218826 0.043548 0.152876
v -0.236557 -0.084149 -0.100616
v 0.004059 -0.229797 -0.142672
v 0.236557 0.084047 0.100616
v -0.004059 0.229696 0.142672
v -0.170500 0.192017 -0.084824
v -0.032752 0.023082 -0.267483
v 0.218826 -0.043650 -0.152876
v 0.110941 0.217046 -0.117123
vt 0.436894 0.681291
vt 0.490014 0.689372
vt 0.461930 0.729426
vt 0.615623 0.681291
vt 0.547019 0.676559
vt 0.431128 0.743508
vt 0.402342 0.716310
vt 0.581071 0.716310
vt 0.520492 0.725087
vt 0.491707 0.752285
vt 0.457655 0.792036
vt 0.400650 0.779223
vt 0.551294 0.739169
vt 0.372565 0.739169
vt 0.526258 0.787304
vt 0.579379 0.779223
vn 0.143200 -0.670400 0.728000
vn 0.098700 -0.990900 0.091900
vn -0.460600 -0.304900 0.833600
vn -0.878300 -0.399500 0.262700
vn -0.532600 -0.823400 -0.195700
vn 0.610100 -0.721800 -0.326800
vn 0.682100 -0.203300 0.702400
vn -0.294900 0.388100 0.873200
vn -0.970700 0.235100 -0.050500
vn -0.411400 -0.450900 -0.792200
vn 0.970700 -0.235100 0.050500
vn 0.411400 0.450900 0.792200
vn -0.610100 0.721800 0.326800
vn -0.682100 0.203300 -0.702400
vn 0.294900 -0.388100 -0.873200
vn 0.878300 0.399500 -0.262700
vn 0.532600 0.823400 0.195700
vn -0.098700 0.990900 -0.091900
vn -0.143200 0.670400 -0.728000
vn 0.460600 0.304900 -0.833600
s off
f 13/16/21 14/17/21 15/18/21
f 14/17/22 13/19/22 18/20/22
f 13/16/23 15/18/23 16/21/23
f 13/16/24 16/21/24 17/22/24
f 13/19/25 17/23/25 18/20/25
f 14/17/26 18/20/26 23/24/26
f 15/18/27 14/17/27 19/25/27
f 16/21/28 15/18/28 20/26/28
f 17/22/29 16/21/29 21/27/29
f 18/20/30 17/23/30 22/28/30
f 14/17/31 23/24/31 19/25/31
f 15/18/32 19/25/32 20/26/32
f 16/21/33 20/26/33 21/27/33
f 17/22/34 21/27/34 22/29/34
f 18/20/35 22/28/35 23/24/35
f 19/25/36 23/24/36 24/30/36
f 20/26/37 19/25/37 24/30/37
f 21/31/38 20/26/38 24/30/38
f 22/28/39 21/31/39 24/30/39
f 23/24/40 22/28/40 24/30/40
v 0.000000 -0.190471 0.000000
v 0.137800 -0.085201 0.100117
v -0.052634 -0.085201 0.161993
v -0.170332 -0.085201 0.000000
v -0.052634 -0.085201 -0.161993
v 0.137800 -0.085201 -0.100117
v 0.052634 0.085132 0.161993
v -0.137800 0.085132 0.100117
v -0.137800 0.085132 -0.100117
v 0.052634 0.085132 -0.161993
v 0.170332 0.085132 0.000000
v 0.000000 0.190403 0.000000
vt 0.905377 0.256761
vt 0.937766 0.280058
vt 0.922307 0.282019
vt 0.877436 0.280458
vt 0.907458 0.283568
vt 0.892691 0.282639
vt 0.861617 0.280058
vt 0.869384 0.302369
vt 0.846158 0.282019
vt 0.854616 0.303299
vt 0.831309 0.283568
vt 0.839362 0.305479
vt 0.899691 0.305880
vt 0.884233 0.303919
vt 0.915511 0.305479
vt 0.867302 0.329177
vn 0.187600 -0.794700 0.577400
vn 0.607100 -0.794700 0.000000
vn -0.491100 -0.794700 0.356800
vn -0.491100 -0.794700 -0.356800
vn 0.187600 -0.794700 -0.577400
vn 0.982200 -0.187600 0.000000
vn 0.303500 -0.187600 0.934200
vn -0.794600 -0.187600 0.577400
vn -0.794600 -0.187600 -0.577400
vn 0.303500 -0.187600 -0.934200
vn 0.794600 0.187600 0.577400
vn -0.303500 0.187600 0.934200
vn -0.982200 0.187600 0.000000
vn -0.303500 0.187600 -0.934200
vn 0.794600 0.187600 -0.577400
vn 0.491100 0.794700 0.356800
vn -0.187600 0.794700 0.577400
vn -0.607100 0.794700 0.000000
vn -0.187600 0.794700 -0.577400
vn 0.491100 0.794700 -0.356800
s off
f 25/32/41 26/33/41 27/34/41
f 26/33/42 25/32/42 30/35/42
f 25/32/43 27/34/43 28/36/43
f 25/32/44 28/36/44 29/37/44
f 25/32/45 29/37/45 30/35/45
f 26/38/46 30/35/46 35/39/46
f 27/40/47 26/38/47 31/41/47
f 28/42/48 27/40/48 32/43/48
f 29/37/49 28/36/49 33/44/49
f 30/35/50 29/37/50 34/45/50
f 26/38/51 35/39/51 31/41/51
f 27/40/52 31/41/52 32/43/52
f 28/36/53 32/46/53 33/44/53
f 29/37/54 33/44/54 34/45/54
f 30/35/55 34/45/55 35/39/55
f 31/41/56 35/39/56 36/47/56
f 32/43/57 31/41/57 36/47/57
f 33/44/58 32/46/58 36/47/58
f 34/45/59 33/44/59 36/47/59
f 35/39/60 34/45/60 36/47/60
v 0.044516 -0.000237 -0.155209
v -0.061726 -0.116971 -0.092685
v -0.112105 0.044493 -0.107328
v 0.019954 0.144286 -0.069572
v 0.151949 0.044493 -0.031595
v 0.101468 -0.116971 -0.045880
v -0.151949 -0.044595 0.031595
v -0.101468 0.116870 0.045880
v 0.061726 0.116870 0.092685
v 0.112105 -0.044595 0.107328
v -0.019954 -0.144388 0.069572
v -0.044516 0.000135 0.155209
vt 0.628894 0.500204
vt 0.641274 0.475735
vt 0.644957 0.507635
vt 0.615973 0.476930
vt 0.629693 0.532761
vt 0.612931 0.509033
vt 0.675913 0.467239
vt 0.659152 0.490967
vt 0.662194 0.523070
vt 0.595053 0.524265
vt 0.598736 0.492365
vt 0.583472 0.467239
vt 0.566711 0.490967
vt 0.582673 0.499796
vt 0.569753 0.523070
vn -0.336000 -0.188500 -0.922800
vn 0.218900 -0.608000 -0.763200
vn -0.123800 0.490200 -0.862800
vn 0.562200 0.490200 -0.666000
vn 0.774000 -0.188500 -0.604500
vn 0.051400 -0.982500 -0.179200
vn -0.846300 -0.303800 -0.437500
vn -0.503000 0.794400 -0.340400
vn 0.607000 0.794400 -0.022000
vn 0.949600 -0.303800 0.077600
vn -0.607000 -0.794400 0.022000
vn -0.949600 0.303800 -0.077600
vn -0.051400 0.982500 0.179200
vn 0.846300 0.303800 0.437500
vn 0.503000 -0.794400 0.340400
vn -0.562200 -0.490200 0.666000
vn -0.774000 0.188500 0.604500
vn -0.218900 0.608000 0.763200
vn 0.336000 0.188500 0.922800
vn 0.123800 -0.490200 0.862800
s off
f 37/48/61 38/49/61 39/50/61
f 38/49/62 37/48/62 42/51/62
f 37/48/63 39/50/63 40/52/63
f 37/48/64 40/52/64 41/53/64
f 37/48/65 41/53/65 42/51/65
f 38/49/66 42/51/66 47/54/66
f 39/50/67 38/49/67 43/55/67
f 40/52/68 39/50/68 44/56/68
f 41/53/69 40/52/69 45/57/69
f 42/51/70 41/53/70 46/58/70
f 38/49/71 47/54/71 43/55/71
f 39/50/72 43/55/72 44/56/72
f 40/52/73 44/56/73 45/57/73
f 41/53/74 45/57/74 46/58/74
f 42/51/75 46/58/75 47/59/75
f 43/60/76 47/59/76 48/61/76
f 44/62/77 43/60/77 48/61/77
f 45/57/78 44/62/78 48/61/78
f 46/58/79 45/57/79 48/61/79
f 47/59/80 46/58/80 48/61/80
v 0.000000 -0.248429 0.000000
v 0.179738 -0.111120 0.130586
v -0.068653 -0.111120 0.211294
v -0.222170 -0.111120 0.000000
v -0.068653 -0.111120 -0.211294
v 0.179738 -0.111120 -0.130586
v 0.068653 0.111051 0.211294
v -0.179738 0.111051 0.130586
v -0.179738 0.111051 -0.130586
v 0.068653 0.111051 -0.211294
v 0.222170 0.111051 0.000000
v 0.000000 0.248360 0.000000
vt 0.359891 0.282727
vt 0.327086 0.313203
vt 0.401136 0.312724
vt 0.345696 0.314910
vt 0.382287 0.314155
vt 0.363934 0.315483
vt 0.335735 0.341499
vt 0.308033 0.312724
vt 0.317383 0.340170
vt 0.289183 0.314155
vt 0.299144 0.340744
vt 0.270831 0.315483
vt 0.280534 0.342450
vt 0.354584 0.342930
vt 0.373637 0.342450
vt 0.313339 0.372926
vn 0.187600 -0.794700 0.577400
vn 0.607100 -0.794700 0.000000
vn -0.491100 -0.794700 0.356800
vn -0.491100 -0.794700 -0.356800
vn 0.187600 -0.794700 -0.577400
vn 0.982200 -0.187600 0.000000
vn 0.303500 -0.187600 0.934200
vn -0.794600 -0.187600 0.577400
vn -0.794600 -0.187600 -0.577400
vn 0.303500 -0.187600 -0.934200
vn 0.794600 0.187600 0.577400
vn -0.303500 0.187600 0.934200
vn -0.982200 0.187600 0.000000
vn -0.303500 0.187600 -0.934200
vn 0.794600 0.187600 -0.577400
vn 0.491100 0.794700 0.356800
vn -0.187600 0.794700 0.577400
vn -0.607100 0.794700 0.000000
vn -0.187600 0.794700 -0.577400
vn 0.491100 0.794700 -0.356800
s off
f 49/63/81 50/64/81 51/65/81
f 50/64/82 49/63/82 54/66/82
f 49/63/83 51/65/83 52/67/83
f 49/63/84 52/67/84 53/68/84
f 49/63/85 53/68/85 54/66/85
f 50/64/86 54/66/86 59/69/86
f 51/70/87 50/64/87 55/71/87
f 52/72/88 51/70/88 56/73/88
f 53/74/89 52/72/89 57/75/89
f 54/66/90 53/68/90 58/76/90
f 50/64/91 59/69/91 55/71/91
f 51/70/92 55/71/92 56/73/92
f 52/72/93 56/73/93 57/75/93
f 53/68/94 57/77/94 58/76/94
f 54/66/95 58/76/95 59/69/95
f 55/71/96 59/69/96 60/78/96
f 56/73/97 55/71/97 60/78/97
f 57/75/98 56/73/98 60/78/98
f 58/76/99 57/77/99 60/78/99
f 59/69/100 58/76/100 60/78/100
v 0.000000 -0.130051 0.000000
v 0.094068 -0.058189 0.068344
v -0.035930 -0.058189 0.110583
v -0.116275 -0.058189 0.000000
v -0.035930 -0.058189 -0.110583
v 0.094068 -0.058189 -0.068344
v 0.035930 0.058087 0.110583
v -0.094068 0.058087 0.068344
v -0.094068 0.058087 -0.068344
v 0.035930 0.058087 -0.110583
v 0.116275 0.058087 0.000000
v 0.000000 0.129949 0.000000
vt 0.269486 0.323805
vt 0.288781 0.344408
vt 0.274896 0.349079
vt 0.304396 0.340507
vt 0.261308 0.348442
vt 0.247203 0.343279
vt 0.215595 0.344408
vt 0.231210 0.340507
vt 0.224715 0.363221
vt 0.201711 0.349079
vt 0.210610 0.368384
vt 0.267803 0.371157
vt 0.252188 0.367255
vt 0.238304 0.362585
vt 0.283795 0.368384
vt 0.232893 0.387859
vn 0.187600 -0.794700 0.577400
vn 0.607100 -0.794700 0.000000
vn -0.491100 -0.794700 0.356800
vn -0.491100 -0.794700 -0.356800
vn 0.187600 -0.794700 -0.577400
vn 0.982200 -0.187600 0.000000
vn 0.303500 -0.187600 0.934200
vn -0.794600 -0.187600 0.577400
vn -0.794600 -0.187600 -0.577400
vn 0.303500 -0.187600 -0.934200
vn 0.794600 0.187600 0.577400
vn -0.303500 0.187600 0.934200
vn -0.982200 0.187600 0.000000
vn -0.303500 0.187600 -0.934200
vn 0.794600 0.187600 -0.577400
vn 0.491100 0.794700 0.356800
vn -0.187600 0.794700 0.577400
vn -0.607100 0.794700 0.000000
vn -0.187600 0.794700 -0.577400
vn 0.491100 0.794700 -0.356800
s off
f 61/79/101 62/80/101 63/81/101
f 62/80/102 61/79/102 66/82/102
f 61/79/103 63/81/103 64/83/103
f 61/79/104 64/83/104 65/84/104
f 61/79/105 65/84/105 66/82/105
f 62/85/106 66/86/106 71/87/106
f 63/88/107 62/85/107 67/89/107
f 64/83/108 63/81/108 68/90/108
f 65/84/109 64/83/109 69/91/109
f 66/86/110 65/84/110 70/92/110
f 62/85/111 71/87/111 67/89/111
f 63/81/112 67/93/112 68/90/112
f 64/83/113 68/90/113 69/91/113
f 65/84/114 69/91/114 70/92/114
f 66/86/115 70/92/115 71/87/115
f 67/89/116 71/87/116 72/94/116
f 68/90/117 67/93/117 72/94/117
f 69/91/118 68/90/118 72/94/118
f 70/92/119 69/91/119 72/94/119
f 71/87/120 70/92/120 72/94/120
v 0.000000 -0.595802 -0.000000
v 1.003645 -0.335406 0.429431
v -0.355803 -0.334104 0.697464
v -1.338036 -0.284039 -0.000000
v -0.386317 -0.380139 -0.793760
v 1.003645 -0.335406 -0.429431
v 0.373466 0.359539 0.751967
v -0.863262 0.327575 0.419774
v -1.003646 0.336924 -0.432384
v 0.355803 0.333078 -0.697011
v 1.338036 0.281276 0.000000
v 0.000000 0.559198 -0.000000
v -0.331148 -0.525176 0.623956
v -0.236074 -0.605825 0.379788
v -0.108539 -0.568932 0.145017
v 0.277413 -0.691348 0.111352
v 0.510852 -0.725063 0.284924
v 0.695956 -0.529908 0.386602
v 0.665621 -0.451107 0.667105
v 0.357092 -0.415646 0.700933
v -0.043909 -0.287170 0.559234
v 1.239838 -0.346404 -0.219407
v 1.137176 -0.342063 -0.000000
v 1.046678 -0.337716 0.214373
v 0.277413 -0.691348 -0.111352
v 0.510852 -0.725114 -0.284924
v 0.739200 -0.545481 -0.397706
v -0.979939 -0.477550 -0.000000
v -0.605202 -0.721832 -0.000000
v -0.342664 -0.762432 -0.000000
v -0.610269 -0.465300 0.722952
v -0.848289 -0.404841 0.418031
v -1.168987 -0.337858 0.173108
v -0.304057 -0.461374 -0.547928
v -0.227543 -0.575459 -0.360959
v -0.114527 -0.607171 -0.154077
v -1.291711 -0.342671 -0.175264
v -0.804139 -0.399102 -0.412064
v -0.565261 -0.429347 -0.666383
v -0.043909 -0.287170 -0.559234
v 0.340009 -0.385208 -0.649514
v 0.665621 -0.451107 -0.667105
v 1.409442 0.147480 0.094441
v 1.491659 -0.000724 0.201396
v 1.376579 -0.164855 0.317146
v 1.247112 -0.162638 -0.312430
v 1.394871 -0.000722 -0.199288
v 1.409442 0.147480 -0.094441
v 0.206632 0.151432 0.653535
v 0.000000 -0.000866 0.626207
v -0.217755 -0.163739 0.702623
v 0.802526 -0.189183 0.561177
v 0.709419 -0.000215 0.745053
v 0.520796 0.213417 0.802421
v -1.284076 0.163014 0.315594
v -1.394871 -0.000716 0.200299
v -1.409443 -0.149578 0.094914
v -0.536548 -0.223046 0.837588
v -0.670489 -0.000263 0.723988
v -0.919721 0.195507 0.584934
v -0.866474 0.193255 -0.576871
v -0.740879 -0.000238 -0.765101
v -0.543254 -0.226683 -0.851387
v -1.646006 -0.153370 -0.097257
v -1.394871 -0.000681 -0.200299
v -1.376580 0.164456 -0.318769
v 0.559914 0.234524 -0.881960
v 0.670489 -0.000223 -0.720648
v 0.846447 -0.191657 -0.569736
v -0.206632 -0.152828 -0.653624
v 0.000000 -0.000866 -0.588616
v 0.206632 0.151468 -0.653535
v 1.089692 0.331149 0.170373
v 0.848289 0.401524 0.415272
v 0.583073 0.442773 0.688006
v 0.041596 0.269750 0.525987
v -0.357092 0.415295 0.701393
v -0.632453 0.436303 0.644939
v -1.122007 0.342580 0.217939
v -1.256657 0.348117 -0.000000
v -1.046678 0.339054 -0.215876
v -0.632453 0.436303 -0.644939
v -0.369545 0.438292 -0.740109
v 0.041596 0.269750 -0.525987
v 0.610269 0.463306 -0.720277
v 0.804139 0.395918 -0.409456
v 1.203775 0.336065 -0.172635
v 0.114527 0.606119 0.154072
v 0.227543 0.574415 0.360889
v 0.331148 0.524237 0.623622
v 0.979939 0.473520 -0.000000
v 0.605202 0.718847 0.000000
v 0.354744 0.803646 -0.000000
v -0.267553 0.655044 0.105708
v -0.510852 0.726287 0.285554
v -0.774448 0.558287 0.407141
v -0.281595 0.706296 -0.113850
v -0.532827 0.770267 -0.302737
v -0.695956 0.532141 -0.388624
v 0.114527 0.606119 -0.154072
v 0.215957 0.534372 -0.336113
v 0.315047 0.485713 -0.577889
v 0.073992 -0.404464 0.417942
v 0.201942 -0.612071 0.307311
v 0.469396 -0.639075 0.563176
v 0.777720 -0.556356 -0.134555
v 0.818161 -0.565357 0.136496
v 0.571410 -0.838524 0.000001
v -0.732155 -0.574546 0.225353
v -0.469392 -0.793083 0.251551
v -0.547313 -0.644559 0.507924
v -0.531174 -0.619720 -0.488384
v -0.469392 -0.793084 -0.251549
v -0.823062 -0.599589 -0.234305
v 0.469394 -0.639075 -0.563175
v 0.191576 -0.570408 -0.286833
v 0.071221 -0.387671 -0.400494
v 1.620786 -0.000766 -0.000000
v 1.481304 -0.166715 0.105774
v 1.481304 -0.166715 -0.105774
v 0.425380 -0.000149 0.923416
v 0.184559 -0.163276 0.633342
v 0.554214 -0.248695 0.835428
v -1.145563 -0.000534 0.441799
v -1.164790 -0.178397 0.298483
v -0.777723 -0.212594 0.578128
v -1.112639 -0.000519 -0.439773
v -0.818164 -0.215710 -0.587746
v -1.250065 -0.179968 -0.301368
v 0.406131 -0.000232 -0.858297
v 0.531178 -0.235640 -0.790794
v 0.184559 -0.163276 -0.633342
v 0.885397 0.217419 0.596277
v 1.112640 -0.000530 0.436901
v 1.164792 0.175999 0.296551
v -0.554214 0.249197 0.837704
v -0.411722 -0.000265 0.877900
v -0.191579 0.169910 0.665858
v -1.522015 0.166746 -0.106665
v -1.661488 -0.000773 0.000000
v -1.481303 0.166098 0.106237
v -0.201942 0.182070 -0.715235
v -0.406131 -0.000231 -0.859102
v -0.571414 0.258436 -0.869073
v 1.250068 0.177643 -0.299559
v 1.112641 -0.000567 -0.436900
v 0.818166 0.213624 -0.584073
v 0.463431 0.776098 0.246216
v 0.531172 0.617956 0.487171
v 0.732154 0.570837 0.224060
v -0.191576 0.569404 0.286866
v -0.469394 0.639819 0.564075
v -0.071222 0.386163 0.400495
v -0.547312 0.797881 0.000000
v -0.836559 0.571886 -0.138161
v -0.885390 0.580253 0.139854
v -0.191576 0.569365 -0.286867
v -0.071222 0.386197 -0.400496
v -0.483902 0.670429 -0.591006
v 0.483898 0.829311 -0.263090
v 0.823060 0.595345 -0.232764
v 0.571408 0.676897 -0.533395
vt 0.377882 0.000000
vt 0.650001 0.087438
vt 0.450001 0.087438
vt 0.650001 0.362676
vt 0.650001 0.284555
vt 0.694543 0.343676
vt 0.250000 0.087439
vt 0.049999 0.087438
vt 1.049999 0.087438
vt 0.849999 0.087438
vt 0.674369 0.425361
vt 0.450001 0.362676
vt 0.494544 0.343675
vt 0.474368 0.425360
vt 0.250000 0.362677
vt 0.294542 0.343676
vt 0.274367 0.425361
vt 0.049999 0.362676
vt 0.094543 0.343675
vt 0.074367 0.425360
vt 0.849999 0.362676
vt 0.894542 0.343675
vt 0.874367 0.425360
vt 0.625633 0.425360
vt 0.425633 0.425360
vt 0.225633 0.425361
vt 0.025632 0.425360
vt 0.825631 0.425361
vt 0.549999 0.637324
vt 0.594543 0.656325
vt 0.549999 0.715446
vt 0.349999 0.637324
vt 0.394542 0.656325
vt 0.349999 0.715446
vt 0.150001 0.637324
vt 0.194543 0.656324
vt 0.150001 0.715446
vt 0.950001 0.637324
vt 0.994544 0.656325
vt 0.950001 0.715446
vt 0.750000 0.637323
vt 0.794542 0.656324
vt 0.750000 0.715444
vt 0.450001 0.284554
vt 0.450001 0.188183
vt 0.512185 0.255633
vt 0.550001 0.158365
vt 0.550001 0.335332
vt 0.587817 0.255634
vt 0.605458 0.343675
vt 0.650001 0.188183
vt 0.805457 0.343676
vt 0.849999 0.284554
vt 0.750000 0.335333
vt 0.787816 0.255634
vt 0.712184 0.255634
vt 0.849999 0.188183
vt 0.750000 0.158365
vt 0.250000 0.284556
vt 0.250000 0.188184
vt 0.312184 0.255634
vt 0.350000 0.158365
vt 0.350000 0.335333
vt 0.387816 0.255634
vt 0.405458 0.343675
vt 0.049999 0.284554
vt 0.049999 0.188182
vt 0.112184 0.255633
vt 0.150000 0.158365
vt 0.150000 0.335333
vt 0.187817 0.255634
vt 0.205458 0.343676
vt 0.912183 0.255633
vt 0.949999 0.158365
vt 0.949999 0.335332
vt 0.987815 0.255634
vt 1.005456 0.343675
vt 1.049999 0.188182
vt 1.049999 0.284554
vt 0.005456 0.343675
vt 0.725633 0.574639
vt 0.774367 0.574639
vt 0.700001 0.500000
vt 0.750000 0.500000
vt 0.722966 0.417608
vt 0.799999 0.500000
vt 0.777034 0.417608
vt 0.525632 0.574640
vt 0.574367 0.574640
vt 0.500000 0.500000
vt 0.550000 0.500000
vt 0.522966 0.417608
vt 0.600000 0.500000
vt 0.577035 0.417608
vt 0.325631 0.574639
vt 0.374367 0.574640
vt 0.299999 0.500000
vt 0.350000 0.500000
vt 0.322966 0.417608
vt 0.400000 0.500000
vt 0.377034 0.417608
vt 0.125633 0.574640
vt 0.174369 0.574639
vt 0.100000 0.500000
vt 0.150000 0.500000
vt 0.122966 0.417608
vt 0.200001 0.500000
vt 0.177034 0.417608
vt 0.925633 0.574640
vt 0.974368 0.574640
vt 0.900000 0.500000
vt 0.950000 0.500000
vt 0.922965 0.417608
vt 1.000000 0.500000
vt 0.977034 0.417608
vt 1.025632 0.425360
vt 0.622966 0.582392
vt 0.650000 0.499999
vt 0.650000 0.664668
vt 0.677035 0.582391
vt 0.705458 0.656324
vt 0.422965 0.582392
vt 0.450000 0.500000
vt 0.449999 0.664668
vt 0.477034 0.582392
vt 0.505456 0.656325
vt 0.222966 0.582392
vt 0.250000 0.500000
vt 0.250000 0.664667
vt 0.277034 0.582392
vt 0.305457 0.656324
vt 1.022966 0.582392
vt 0.050000 0.500000
vt 0.000000 0.500000
vt 1.050001 0.664668
vt 0.022966 0.582392
vt 0.077035 0.582392
vt 0.050001 0.664668
vt 0.105458 0.656325
vt 0.822965 0.582392
vt 0.849999 0.500000
vt 0.850000 0.664667
vt 0.877034 0.582392
vt 0.905457 0.656325
vt 0.549999 0.912562
vt 0.750000 0.912561
vt 0.877882 1.000000
vt 0.549999 0.811818
vt 0.650000 0.841635
vt 0.612184 0.744367
vt 0.750000 0.811816
vt 0.687816 0.744366
vt 1.349999 0.912562
vt 0.349999 0.811817
vt 0.449999 0.841636
vt 0.349999 0.912562
vt 0.412183 0.744367
vt 0.487815 0.744367
vt 1.150001 0.912562
vt 0.150001 0.811817
vt 0.250000 0.841635
vt 0.150001 0.912562
vt 0.212184 0.744366
vt 0.287816 0.744366
vt 0.950001 0.912562
vt 0.950001 0.811817
vt 1.050001 0.841636
vt 1.012185 0.744367
vt 0.050001 0.841636
vt 0.012185 0.744367
vt 0.087817 0.744367
vt 0.850000 0.841635
vt 0.812184 0.744366
vt 0.887816 0.744367
vn -0.306100 -0.950500 -0.053000
vn 0.519600 -0.846900 0.113100
vn 0.392100 -0.806300 0.442900
vn 0.423400 -0.870600 -0.250500
vn -0.228800 -0.943500 0.239700
vn 0.438000 -0.893700 0.097200
vn 0.422500 -0.367400 0.828500
vn -0.639600 -0.640100 0.425600
vn -0.338600 -0.614000 -0.712900
vn 0.598100 -0.119400 -0.792500
vn 0.386800 -0.264100 0.883500
vn 0.419700 -0.365300 0.830900
vn -0.466200 -0.661900 0.587000
vn 0.473800 0.159400 -0.866100
vn 0.539200 -0.207100 -0.816300
vn -0.003100 0.614200 0.789200
vn -0.734600 0.315700 0.600600
vn -0.521000 0.846200 -0.111900
vn -0.495300 0.448400 -0.744000
vn 0.471200 0.877700 -0.087900
vn 0.423900 -0.277100 0.862300
vn 0.452600 -0.779200 0.433600
vn -0.043500 -0.983100 -0.178100
vn 0.507400 -0.405700 0.760200
vn -0.398700 -0.841100 0.365600
vn 0.144500 -0.394500 0.907500
vn -0.568400 -0.631400 0.527500
vn -0.567000 -0.619600 0.542700
vn 0.035300 -0.511600 0.858500
vn -0.269600 -0.924300 0.270100
vn -0.316800 -0.915400 0.248300
vn -0.318700 -0.918000 0.236200
vn 0.600500 -0.734400 0.316400
vn 0.583900 -0.762900 0.277500
vn 0.483600 -0.827700 0.284800
vn 0.470700 -0.677800 -0.564800
vn 0.436800 -0.871800 0.221600
vn 0.628000 -0.726200 0.279800
vn 0.397100 -0.912800 -0.095800
vn 0.577300 -0.807900 -0.117900
vn 0.538600 -0.835600 -0.108100
vn 0.767900 -0.626000 -0.135400
vn 0.639900 -0.657500 -0.397700
vn -0.340900 -0.896100 -0.284200
vn 0.581800 -0.716000 0.385800
vn 0.564300 -0.733100 0.379600
vn 0.568100 -0.715900 0.405800
vn -0.340900 -0.896100 0.284400
vn -0.447600 -0.894200 0.000000
vn -0.325600 -0.945500 0.000000
vn -0.467000 -0.864200 0.187400
vn -0.531000 -0.814600 0.233300
vn -0.149900 -0.969500 -0.193700
vn -0.485000 -0.859100 0.163500
vn -0.472600 -0.782900 0.404700
vn -0.641600 -0.755500 0.132400
vn -0.635400 -0.736100 0.233300
vn -0.647700 -0.721400 0.245000
vn -0.643900 -0.669800 0.369800
vn 0.557000 -0.810300 0.181900
vn 0.556200 -0.812500 0.174500
vn 0.321100 -0.773900 0.545900
vn 0.272100 -0.877200 0.395700
vn 0.068500 -0.756300 0.650600
vn 0.255500 -0.318200 0.912900
vn 0.030400 -0.946000 -0.322800
vn 0.353000 -0.727500 -0.588400
vn 0.509100 -0.764500 -0.395300
vn 0.252500 -0.636300 -0.728900
vn -0.621600 -0.591500 -0.513500
vn 0.359100 -0.706000 -0.610400
vn -0.445300 -0.773900 -0.450300
vn -0.585900 -0.506000 -0.633000
vn -0.408400 -0.583700 -0.701800
vn 0.489700 -0.860300 -0.141900
vn -0.149900 -0.969500 0.193700
vn -0.480300 -0.877000 -0.010900
vn -0.544700 -0.835600 0.070500
vn -0.461200 -0.875000 0.147000
vn -0.468800 -0.867500 0.166300
vn 0.538200 -0.738700 -0.405800
vn 0.481100 -0.814800 -0.323600
vn -0.401800 -0.834000 -0.378200
vn 0.511400 -0.757900 -0.405200
vn -0.125700 -0.376300 -0.917900
vn -0.425400 -0.880600 -0.208900
vn -0.601000 -0.668400 -0.438200
vn -0.581500 -0.511500 -0.632700
vn -0.307000 -0.888900 -0.340100
vn -0.124600 -0.844400 -0.521000
vn 0.042600 -0.983800 -0.174100
vn 0.161400 -0.442400 -0.882200
vn 0.372400 -0.716600 -0.589700
vn 0.388800 -0.624500 -0.677400
vn 0.493100 -0.763400 -0.417300
vn 0.882200 0.470800 0.000000
vn 0.639400 0.650500 0.409800
vn 0.854100 -0.298600 0.425800
vn 0.574300 0.818700 0.000000
vn 0.599800 0.422000 -0.679800
vn 0.791200 -0.341600 0.507300
vn 0.765500 -0.643400 0.000000
vn 0.659500 -0.077800 -0.747700
vn 0.658800 -0.078400 -0.748200
vn 0.402600 -0.891600 0.207300
vn 0.399800 -0.897300 0.187000
vn 0.454000 -0.891000 0.000000
vn 0.499500 -0.829400 0.250100
vn 0.609100 -0.377300 -0.697700
vn 0.605200 -0.378500 -0.700400
vn -0.409900 -0.100200 0.906600
vn -0.485000 0.533700 0.692800
vn 0.164900 0.229600 0.959200
vn -0.439000 0.583300 0.683400
vn 0.516900 0.235400 0.823100
vn -0.487500 -0.523300 0.699000
vn -0.500600 -0.507700 0.701100
vn 0.531600 -0.024100 0.846600
vn 0.745100 -0.238900 0.622800
vn 0.126600 -0.670700 0.730900
vn -0.323900 0.031800 0.945500
vn -0.496000 -0.108400 0.861500
vn 0.011600 -0.635600 0.772000
vn 0.748900 -0.128500 0.650200
vn 0.566300 0.037000 0.823400
vn -0.420000 0.773400 0.474900
vn -0.695300 -0.035000 0.717800
vn -0.609800 -0.417300 0.673800
vn -0.597200 0.107600 0.794900
vn -0.510300 -0.039400 0.859100
vn -0.621200 -0.449900 0.641600
vn -0.537700 -0.493000 0.684000
vn -0.484400 -0.315800 0.815800
vn -0.731000 -0.095000 0.675700
vn -0.591300 -0.488800 0.641500
vn -0.591700 -0.488600 0.641200
vn -0.559900 -0.399200 0.726100
vn -0.791700 -0.192300 0.579900
vn -0.730900 -0.097200 0.675500
vn 0.330700 -0.484000 0.810200
vn -0.431500 0.400800 -0.808200
vn -0.630100 0.291200 -0.719800
vn -0.662400 -0.320000 -0.677400
vn -0.447800 -0.062200 -0.892000
vn -0.584200 -0.429400 -0.688700
vn -0.614800 -0.358000 -0.702800
vn -0.552900 -0.200400 -0.808800
vn -0.644200 -0.092300 -0.759300
vn -0.446500 0.137800 -0.884100
vn -0.611100 -0.496500 -0.616500
vn -0.636900 -0.558200 -0.531800
vn -0.464300 -0.630900 -0.621500
vn -0.427100 -0.483100 -0.764300
vn -0.426600 -0.483300 -0.764500
vn -0.432100 -0.883400 0.181300
vn -0.566800 0.280100 -0.774800
vn 0.430000 -0.364900 -0.825800
vn 0.580600 -0.103000 -0.807600
vn -0.566800 0.293700 -0.769800
vn -0.514700 0.368200 -0.774300
vn 0.461800 -0.009000 -0.886900
vn -0.445200 -0.457200 -0.769900
vn -0.513500 -0.370300 -0.774100
vn 0.057600 0.325400 -0.943800
vn 0.580600 -0.101500 -0.807800
vn -0.157900 -0.563900 -0.810600
vn -0.443100 -0.247600 -0.861600
vn -0.253500 -0.107500 -0.961300
vn 0.028500 -0.551300 -0.833800
vn 0.548500 0.079600 -0.832400
vn 0.108100 0.420100 0.901000
vn 0.481100 0.195300 0.854700
vn 0.548400 -0.428500 0.718100
vn 0.468800 0.289100 0.834700
vn 0.609900 0.614700 0.500200
vn 0.606400 0.052100 0.793400
vn 0.719800 0.289100 0.631100
vn 0.619900 0.610100 0.493500
vn 0.625400 0.651700 0.429200
vn 0.392300 -0.039600 0.919000
vn 0.514600 0.223100 0.827900
vn 0.468600 0.460800 0.753700
vn 0.517300 0.670600 0.531600
vn 0.514000 0.677100 0.526600
vn 0.510300 0.660800 0.550400
vn -0.646000 0.688500 0.329700
vn -0.553000 -0.118200 0.824800
vn -0.506900 0.129800 0.852200
vn -0.545600 0.479700 0.687100
vn -0.093100 0.695300 0.712700
vn -0.505300 -0.151700 0.849500
vn 0.462500 0.392300 0.795100
vn 0.453000 0.179100 0.873300
vn 0.449700 0.176500 0.875600
vn 0.419600 -0.384000 0.822500
vn 0.499800 -0.284300 0.818200
vn 0.486700 0.361300 0.795300
vn 0.020800 -0.203900 0.978800
vn 0.055400 0.766700 0.639600
vn -0.575100 0.075800 0.814500
vn -0.441900 0.891900 -0.096600
vn -0.788700 -0.298300 -0.537600
vn -0.548100 0.409300 -0.729400
vn -0.382600 0.883000 -0.271800
vn -0.392900 0.819800 -0.416600
vn -0.600600 -0.009000 -0.799500
vn -0.715700 0.684400 0.139000
vn -0.591700 0.797800 0.115600
vn -0.496600 0.803900 0.327200
vn -0.545200 -0.489200 0.680800
vn -0.535600 -0.452400 0.713100
vn -0.594900 0.138300 0.791800
vn -0.727800 0.009600 0.685700
vn -0.502400 0.716600 0.483800
vn -0.416800 0.694900 0.586000
vn -0.499700 0.209200 -0.840600
vn 0.093400 -0.494900 -0.863900
vn 0.514800 -0.369000 -0.773800
vn 0.146100 0.812500 -0.564400
vn 0.529100 0.268000 -0.805100
vn 0.554000 0.035900 -0.831700
vn 0.414300 0.230800 -0.880400
vn 0.409700 0.181200 -0.894000
vn -0.238200 0.728200 -0.642700
vn 0.530500 -0.347600 -0.773200
vn -0.268100 0.129800 -0.954600
vn -0.264600 -0.205400 -0.942200
vn -0.711600 0.194800 -0.675100
vn -0.667400 0.484100 -0.565900
vn -0.532900 0.290500 -0.794800
vn 0.702000 0.620900 -0.348900
vn 0.771300 0.315300 -0.552900
vn 0.643100 -0.053100 -0.763900
vn 0.689900 0.564600 -0.453000
vn 0.462700 0.632700 -0.620900
vn 0.641300 0.092500 -0.761700
vn 0.550600 0.200000 -0.810500
vn 0.462500 0.631600 -0.622200
vn 0.799500 0.446500 -0.401900
vn 0.540600 -0.182200 -0.821300
vn 0.532600 -0.164900 -0.830100
vn 0.533000 0.162200 -0.830400
vn 0.748500 -0.098100 -0.655800
vn 0.735900 0.275200 -0.618700
vn -0.367400 0.589300 -0.719500
vn -0.559300 0.811700 0.168600
vn -0.484400 0.785500 0.385100
vn -0.247600 0.929000 0.275100
vn -0.480900 0.822200 0.304300
vn 0.320500 0.946600 -0.035600
vn -0.347200 0.736300 0.580800
vn 0.591700 0.740200 0.319400
vn 0.607000 0.776500 0.169000
vn 0.532300 0.813100 0.235500
vn 0.081900 0.761400 0.643000
vn 0.570600 0.686200 0.451100
vn 0.582900 0.750800 0.310800
vn 0.559100 0.759400 0.332900
vn 0.562900 0.775600 0.285600
vn 0.434300 0.808900 0.396200
vn 0.165900 0.902200 -0.398100
vn 0.428100 0.873100 0.233200
vn -0.396800 0.858200 0.325500
vn 0.065700 0.912500 0.403800
vn -0.042500 0.983800 0.174000
vn 0.430600 0.878100 0.208500
vn 0.604100 0.667100 0.436000
vn -0.161200 0.441500 0.882700
vn -0.468500 0.815200 0.340500
vn -0.482000 0.628700 0.610300
vn -0.144000 0.462900 0.874600
vn 0.601200 0.613700 0.511800
vn 0.453700 0.818800 0.351700
vn -0.540800 0.316200 0.779500
vn -0.587500 0.398100 0.704600
vn 0.395300 0.899800 0.184800
vn 0.297000 0.952100 -0.072600
vn -0.646700 0.608800 -0.459600
vn 0.390300 0.901800 0.185500
vn 0.394100 0.902100 0.175800
vn -0.582000 0.806900 -0.101400
vn -0.573100 0.809900 -0.125000
vn -0.439300 0.856500 0.270800
vn -0.435000 0.864600 0.251600
vn -0.589500 0.678400 -0.438600
vn -0.527100 0.656000 -0.540200
vn -0.495800 0.861000 -0.113000
vn -0.589100 0.712000 0.382100
vn -0.618500 0.719500 0.315800
vn -0.583200 0.266500 0.767400
vn 0.261500 0.851900 0.453800
vn 0.038400 0.936800 -0.347800
vn -0.374100 0.867500 -0.327900
vn 0.147800 0.811500 -0.565300
vn 0.483200 0.791200 -0.374800
vn -0.062000 0.496400 -0.865900
vn 0.637700 0.662600 -0.392700
vn 0.503600 0.839200 -0.205200
vn -0.717300 0.611700 -0.333600
vn -0.465600 0.399800 -0.789500
vn 0.494200 0.812400 -0.309500
vn 0.637600 0.613400 -0.466000
vn -0.314900 0.398300 -0.861500
vn -0.734400 0.555700 -0.389700
vn -0.446900 0.795900 -0.408300
vn -0.559300 0.811700 -0.168600
vn 0.311100 0.918900 0.242400
vn 0.546400 0.834700 0.068600
vn -0.548200 0.814600 -0.189600
vn -0.544500 0.631400 -0.552200
vn 0.560300 0.823600 0.087500
vn 0.564000 0.784000 -0.259500
vn -0.553500 0.636000 -0.537800
vn -0.514400 0.775100 -0.366800
vn 0.555400 0.829400 0.059800
vn 0.484300 0.554000 -0.677200
vn 0.754700 0.393500 -0.525000
vn 0.786800 0.481300 -0.386400
vn -0.313000 0.592500 -0.742300
vn -0.338300 0.521200 -0.783500
s off
f 73/95/121 88/96/121 87/97/121
f 74/98/122 90/99/122 96/100/122
f 73/95/123 87/97/123 102/101/123
f 73/95/124 102/101/124 108/102/124
f 73/95/125 108/103/125 97/104/125
f 74/98/126 96/100/126 117/105/126
f 75/106/127 93/107/127 123/108/127
f 76/109/128 105/110/128 129/111/128
f 77/112/129 111/113/129 135/114/129
f 78/115/130 114/116/130 141/117/130
f 74/98/131 117/105/131 124/118/131
f 75/106/132 123/108/132 130/119/132
f 76/109/133 129/111/133 136/120/133
f 77/112/134 135/114/134 142/121/134
f 78/115/135 141/117/135 118/122/135
f 79/123/136 147/124/136 162/125/136
f 80/126/137 150/127/137 168/128/137
f 81/129/138 153/130/138 171/131/138
f 82/132/139 156/133/139 174/134/139
f 83/135/140 159/136/140 163/137/140
f 85/138/141 93/107/141 75/106/141
f 86/139/142 175/140/142 85/138/142
f 87/97/143 176/141/143 86/139/143
f 85/138/144 175/140/144 93/107/144
f 175/140/145 92/142/145 93/107/145
f 86/139/146 176/141/146 175/140/146
f 176/141/147 177/143/147 175/140/147
f 175/140/148 177/143/148 92/142/148
f 177/143/149 91/144/149 92/142/149
f 87/97/150 88/96/150 176/141/150
f 88/96/151 89/145/151 176/141/151
f 176/141/152 89/145/152 177/143/152
f 89/145/153 90/99/153 177/143/153
f 177/143/154 90/99/154 91/144/154
f 90/99/155 74/98/155 91/144/155
f 94/146/156 99/147/156 78/115/156
f 95/148/157 178/149/157 94/146/157
f 96/100/158 179/150/158 95/148/158
f 94/146/159 178/149/159 99/147/159
f 178/149/160 98/151/160 99/147/160
f 95/148/161 179/150/161 178/149/161
f 179/150/162 180/152/162 178/149/162
f 178/149/163 180/152/163 98/151/163
f 180/152/164 97/104/164 98/151/164
f 96/100/165 90/99/165 179/150/165
f 90/99/166 89/145/166 179/150/166
f 179/150/167 89/145/167 180/152/167
f 89/145/168 88/96/168 180/152/168
f 180/152/169 88/96/169 97/104/169
f 88/96/170 73/95/170 97/104/170
f 100/153/171 105/110/171 76/109/171
f 101/154/172 181/155/172 100/153/172
f 102/101/173 182/156/173 101/154/173
f 100/153/174 181/155/174 105/110/174
f 181/155/175 104/157/175 105/110/175
f 101/154/176 182/156/176 181/155/176
f 182/156/177 183/158/177 181/155/177
f 181/155/178 183/158/178 104/157/178
f 183/158/179 103/159/179 104/157/179
f 102/101/180 87/97/180 182/156/180
f 87/97/181 86/139/181 182/156/181
f 182/156/182 86/139/182 183/158/182
f 86/139/183 85/138/183 183/158/183
f 183/158/184 85/138/184 103/159/184
f 85/138/185 75/106/185 103/159/185
f 106/160/186 111/113/186 77/112/186
f 107/161/187 184/162/187 106/160/187
f 108/102/188 185/163/188 107/161/188
f 106/160/189 184/162/189 111/113/189
f 184/162/190 110/164/190 111/113/190
f 107/161/191 185/163/191 184/162/191
f 185/163/192 186/165/192 184/162/192
f 184/162/193 186/165/193 110/164/193
f 186/165/194 109/166/194 110/164/194
f 108/102/195 102/101/195 185/163/195
f 102/101/196 101/154/196 185/163/196
f 185/163/197 101/154/197 186/165/197
f 101/154/198 100/153/198 186/165/198
f 186/165/199 100/153/199 109/166/199
f 100/153/200 76/109/200 109/166/200
f 99/147/201 114/116/201 78/115/201
f 98/151/202 187/167/202 99/147/202
f 97/104/203 188/168/203 98/151/203
f 99/147/204 187/167/204 114/116/204
f 187/167/205 113/169/205 114/116/205
f 98/151/206 188/168/206 187/167/206
f 188/168/207 189/170/207 187/167/207
f 187/167/208 189/170/208 113/169/208
f 189/170/209 112/171/209 113/169/209
f 97/104/210 108/103/210 188/168/210
f 108/103/211 107/172/211 188/168/211
f 188/168/212 107/172/212 189/170/212
f 107/172/213 106/173/213 189/170/213
f 189/170/214 106/173/214 112/171/214
f 106/160/215 77/112/215 112/174/215
f 115/175/216 120/176/216 83/135/216
f 116/177/217 190/178/217 115/175/217
f 117/105/218 191/179/218 116/177/218
f 115/175/219 190/178/219 120/176/219
f 190/178/220 119/180/220 120/176/220
f 116/177/221 191/179/221 190/178/221
f 191/179/222 192/181/222 190/178/222
f 190/178/223 192/181/223 119/180/223
f 192/181/224 118/122/224 119/180/224
f 117/105/225 96/100/225 191/179/225
f 96/100/226 95/148/226 191/179/226
f 191/179/227 95/148/227 192/181/227
f 95/148/228 94/146/228 192/181/228
f 192/181/229 94/146/229 118/122/229
f 94/146/230 78/115/230 118/122/230
f 121/182/231 126/183/231 79/123/231
f 122/184/232 193/185/232 121/182/232
f 123/108/233 194/186/233 122/184/233
f 121/182/234 193/185/234 126/183/234
f 193/185/235 125/187/235 126/183/235
f 122/184/236 194/186/236 193/185/236
f 194/186/237 195/188/237 193/185/237
f 193/185/238 195/188/238 125/187/238
f 195/188/239 124/118/239 125/187/239
f 123/108/240 93/107/240 194/186/240
f 93/107/241 92/142/241 194/186/241
f 194/186/242 92/142/242 195/188/242
f 92/142/243 91/144/243 195/188/243
f 195/188/244 91/144/244 124/118/244
f 91/144/245 74/98/245 124/118/245
f 127/189/246 132/190/246 80/126/246
f 128/191/247 196/192/247 127/189/247
f 129/111/248 197/193/248 128/191/248
f 127/189/249 196/192/249 132/190/249
f 196/192/250 131/194/250 132/190/250
f 128/191/251 197/193/251 196/192/251
f 197/193/252 198/195/252 196/192/252
f 196/192/253 198/195/253 131/194/253
f 198/195/254 130/119/254 131/194/254
f 129/111/255 105/110/255 197/193/255
f 105/110/256 104/157/256 197/193/256
f 197/193/257 104/157/257 198/195/257
f 104/157/258 103/159/258 198/195/258
f 198/195/259 103/159/259 130/119/259
f 103/159/260 75/106/260 130/119/260
f 133/196/261 138/197/261 81/129/261
f 134/198/262 199/199/262 133/196/262
f 135/114/263 200/200/263 134/198/263
f 133/196/264 199/199/264 138/197/264
f 199/199/265 137/201/265 138/197/265
f 134/198/266 200/200/266 199/199/266
f 200/200/267 201/202/267 199/199/267
f 199/199/268 201/202/268 137/201/268
f 201/202/269 136/120/269 137/201/269
f 135/114/270 111/113/270 200/200/270
f 111/113/271 110/164/271 200/200/271
f 200/200/272 110/164/272 201/202/272
f 110/164/273 109/166/273 201/202/273
f 201/202/274 109/166/274 136/120/274
f 109/166/275 76/109/275 136/120/275
f 139/203/276 144/204/276 82/132/276
f 140/205/277 202/206/277 139/203/277
f 141/117/278 203/207/278 140/205/278
f 139/203/279 202/206/279 144/204/279
f 202/206/280 143/208/280 144/204/280
f 140/205/281 203/207/281 202/206/281
f 203/207/282 204/209/282 202/206/282
f 202/206/283 204/209/283 143/208/283
f 204/209/284 142/210/284 143/208/284
f 141/117/285 114/116/285 203/207/285
f 114/116/286 113/169/286 203/207/286
f 203/207/287 113/169/287 204/209/287
f 113/169/288 112/171/288 204/209/288
f 204/209/289 112/171/289 142/210/289
f 112/174/290 77/112/290 142/121/290
f 126/183/291 147/124/291 79/123/291
f 125/187/292 205/211/292 126/183/292
f 124/118/293 206/212/293 125/187/293
f 126/183/294 205/211/294 147/124/294
f 205/211/295 146/213/295 147/124/295
f 125/187/296 206/212/296 205/211/296
f 206/212/297 207/214/297 205/211/297
f 205/211/298 207/214/298 146/213/298
f 207/214/299 145/215/299 146/213/299
f 124/118/300 117/105/300 206/212/300
f 117/105/301 116/177/301 206/212/301
f 206/212/302 116/177/302 207/214/302
f 116/177/303 115/175/303 207/214/303
f 207/214/304 115/175/304 145/215/304
f 115/175/305 83/135/305 145/215/305
f 132/190/306 150/127/306 80/126/306
f 131/194/307 208/216/307 132/190/307
f 130/119/308 209/217/308 131/194/308
f 132/190/309 208/216/309 150/127/309
f 208/216/310 149/218/310 150/127/310
f 131/194/311 209/217/311 208/216/311
f 209/217/312 210/219/312 208/216/312
f 208/216/313 210/219/313 149/218/313
f 210/219/314 148/220/314 149/218/314
f 130/119/315 123/108/315 209/217/315
f 123/108/316 122/184/316 209/217/316
f 209/217/317 122/184/317 210/219/317
f 122/184/318 121/182/318 210/219/318
f 210/219/319 121/182/319 148/220/319
f 121/182/320 79/123/320 148/220/320
f 138/197/321 153/130/321 81/129/321
f 137/201/322 211/221/322 138/197/322
f 136/120/323 212/222/323 137/201/323
f 138/197/324 211/221/324 153/130/324
f 211/221/325 152/223/325 153/130/325
f 137/201/326 212/222/326 211/221/326
f 212/222/327 213/224/327 211/221/327
f 211/221/328 213/224/328 152/223/328
f 213/224/329 151/225/329 152/223/329
f 136/120/330 129/111/330 212/222/330
f 129/111/331 128/191/331 212/222/331
f 212/222/332 128/191/332 213/224/332
f 128/191/333 127/189/333 213/224/333
f 213/224/334 127/189/334 151/225/334
f 127/189/335 80/126/335 151/225/335
f 144/204/336 156/133/336 82/132/336
f 143/208/337 214/226/337 144/204/337
f 142/121/338 215/227/338 143/228/338
f 144/204/339 214/226/339 156/133/339
f 214/226/340 155/229/340 156/133/340
f 143/228/341 215/227/341 214/230/341
f 215/227/342 216/231/342 214/230/342
f 214/230/343 216/231/343 155/232/343
f 216/231/344 154/233/344 155/232/344
f 142/121/345 135/114/345 215/227/345
f 135/114/346 134/198/346 215/227/346
f 215/227/347 134/198/347 216/231/347
f 134/198/348 133/196/348 216/231/348
f 216/231/349 133/196/349 154/233/349
f 133/196/350 81/129/350 154/233/350
f 120/176/351 159/136/351 83/135/351
f 119/180/352 217/234/352 120/176/352
f 118/122/353 218/235/353 119/180/353
f 120/176/354 217/234/354 159/136/354
f 217/234/355 158/236/355 159/136/355
f 119/180/356 218/235/356 217/234/356
f 218/235/357 219/237/357 217/234/357
f 217/234/358 219/237/358 158/236/358
f 219/237/359 157/238/359 158/236/359
f 118/122/360 141/117/360 218/235/360
f 141/117/361 140/205/361 218/235/361
f 218/235/362 140/205/362 219/237/362
f 140/205/363 139/203/363 219/237/363
f 219/237/364 139/203/364 157/238/364
f 139/203/365 82/132/365 157/238/365
f 160/239/366 165/240/366 84/241/366
f 161/242/367 220/243/367 160/239/367
f 162/125/368 221/244/368 161/242/368
f 160/239/369 220/243/369 165/240/369
f 220/243/370 164/245/370 165/240/370
f 161/242/371 221/244/371 220/243/371
f 221/244/372 222/246/372 220/243/372
f 220/243/373 222/246/373 164/245/373
f 222/246/374 163/137/374 164/245/374
f 162/125/375 147/124/375 221/244/375
f 147/124/376 146/213/376 221/244/376
f 221/244/377 146/213/377 222/246/377
f 146/213/378 145/215/378 222/246/378
f 222/246/379 145/215/379 163/137/379
f 145/215/380 83/135/380 163/137/380
f 166/247/381 160/239/381 84/241/381
f 167/248/382 223/249/382 166/250/382
f 168/128/383 224/251/383 167/248/383
f 166/250/384 223/249/384 160/239/384
f 223/249/385 161/242/385 160/239/385
f 167/248/386 224/251/386 223/249/386
f 224/251/387 225/252/387 223/249/387
f 223/249/388 225/252/388 161/242/388
f 225/252/389 162/125/389 161/242/389
f 168/128/390 150/127/390 224/251/390
f 150/127/391 149/218/391 224/251/391
f 224/251/392 149/218/392 225/252/392
f 149/218/393 148/220/393 225/252/393
f 225/252/394 148/220/394 162/125/394
f 148/220/395 79/123/395 162/125/395
f 169/253/396 166/247/396 84/241/396
f 170/254/397 226/255/397 169/256/397
f 171/131/398 227/257/398 170/254/398
f 169/256/399 226/255/399 166/250/399
f 226/255/400 167/248/400 166/250/400
f 170/254/401 227/257/401 226/255/401
f 227/257/402 228/258/402 226/255/402
f 226/255/403 228/258/403 167/248/403
f 228/258/404 168/128/404 167/248/404
f 171/131/405 153/130/405 227/257/405
f 153/130/406 152/223/406 227/257/406
f 227/257/407 152/223/407 228/258/407
f 152/223/408 151/225/408 228/258/408
f 228/258/409 151/225/409 168/128/409
f 151/225/410 80/126/410 168/128/410
f 172/259/411 169/253/411 84/241/411
f 173/260/412 229/261/412 172/259/412
f 174/134/413 230/262/413 173/260/413
f 172/259/414 229/261/414 169/253/414
f 229/263/415 170/254/415 169/256/415
f 173/260/416 230/262/416 229/261/416
f 230/264/417 231/265/417 229/263/417
f 229/263/418 231/265/418 170/254/418
f 231/265/419 171/131/419 170/254/419
f 174/134/420 156/133/420 230/262/420
f 156/133/421 155/229/421 230/262/421
f 230/264/422 155/232/422 231/265/422
f 155/232/423 154/233/423 231/265/423
f 231/265/424 154/233/424 171/131/424
f 154/233/425 81/129/425 171/131/425
f 165/240/426 172/259/426 84/241/426
f 164/245/427 232/266/427 165/240/427
f 163/137/428 233/267/428 164/245/428
f 165/240/429 232/266/429 172/259/429
f 232/266/430 173/260/430 172/259/430
f 164/245/431 233/267/431 232/266/431
f 233/267/432 234/268/432 232/266/432
f 232/266/433 234/268/433 173/260/433
f 234/268/434 174/134/434 173/260/434
f 163/137/435 159/136/435 233/267/435
f 159/136/436 158/236/436 233/267/436
f 233/267/437 158/236/437 234/268/437
f 158/236/438 157/238/438 234/268/438
f 234/268/439 157/238/439 174/134/439
f 157/238/440 82/132/440 174/134/440
