# Blender v2.76 (sub 0) OBJ File: 'npc_autobomb_collider.blend'
# www.blender.org
mtllib npc_autobomb_collider.mtl
o npc_autobomb_npc_autobomb_mesh
v 0.388633 0.192879 0.424564
v 0.388633 0.192879 -0.428443
v -0.388633 0.192879 -0.424563
v -0.377208 0.056617 0.565057
v -0.388632 0.192879 0.428443
v -0.151664 0.992657 0.006683
v -0.327675 0.426182 -0.618667
v 0.327675 0.426182 0.618667
v 0.377247 0.014730 0.498356
v 0.377247 0.056530 0.560913
v 0.385328 0.075446 0.541997
v 0.385328 0.129325 0.577997
v 0.377247 0.266670 0.602712
v 0.385294 0.355589 0.469232
v -0.385319 0.350046 -0.484807
v -0.385329 0.256432 -0.577997
v -0.385329 0.192878 -0.590638
v -0.385392 0.031441 -0.467925
v 0.385328 0.192878 -0.594517
v 0.377196 0.119248 -0.606831
v 0.377208 0.056617 -0.565057
v 0.385328 0.075446 -0.545875
v 0.377224 0.014750 -0.502471
v 0.385352 0.349937 -0.488775
v 0.385328 0.256433 -0.581876
v -0.385327 0.192879 0.594517
v -0.377204 0.192741 0.621384
v -0.385327 0.075446 0.545875
v -0.128059 0.837131 -0.634127
v 0.142040 0.781858 -0.658254
v 0.168581 0.760001 -0.658306
v 0.150559 0.705340 -0.658245
v 0.152792 0.821747 -0.647155
v -0.165596 0.829665 -0.634127
v 0.165576 0.829665 -0.634127
v 0.197398 0.808402 -0.634128
v -0.189058 0.800042 -0.646883
v 0.128039 0.837131 -0.634127
v -0.150579 0.705340 -0.658245
v -0.168909 0.759535 -0.658307
v -0.140859 0.782412 -0.658261
v -0.218681 0.776580 -0.634127
v -0.197418 0.808402 -0.634128
v 0.218660 0.776580 -0.634127
v -0.158755 0.850609 0.562598
v 0.158754 0.850609 0.562598
v 0.377247 0.000052 0.424564
v 0.377295 0.192416 -0.621218
v -0.377238 0.000052 0.428647
v -0.249543 0.893562 0.532231
v 0.250732 0.893562 0.532231
v -0.249543 0.893562 -0.039453
v 0.250732 0.893562 -0.039452
v 0.151223 0.992657 0.487436
v -0.151664 0.992657 0.487436
v 0.151223 0.992657 0.006684
v -0.327675 0.426182 0.618667
v 0.385382 0.033989 0.476523
v 0.377247 0.119087 0.602712
v 0.377247 0.192879 0.617391
v 0.385458 0.225516 0.588646
v 0.384908 0.306301 0.549646
v -0.384210 0.310322 -0.552079
v -0.377248 0.266670 -0.602712
v -0.377248 0.192878 -0.617390
v -0.377248 0.119087 -0.602712
v -0.385329 0.129324 -0.577997
v -0.377248 0.056530 -0.560912
v -0.385328 0.075446 -0.541996
v -0.377248 0.014730 -0.498355
v -0.377247 0.000052 -0.424564
v 0.385328 0.129324 -0.581876
v 0.385380 0.030687 -0.473650
v 0.377239 0.000052 -0.428646
v 0.384108 0.309633 -0.557297
v 0.375987 0.271339 -0.608620
v -0.377196 0.119249 0.606831
v -0.385327 0.129325 0.581876
v -0.377224 0.014751 0.502472
v -0.385376 0.031817 0.475993
v -0.385315 0.355497 0.473116
v -0.384859 0.306259 0.553972
v -0.377246 0.266670 0.606591
v -0.385327 0.256432 0.581876
v -0.161072 0.818742 -0.646883
v -0.128059 0.825309 -0.646883
v -0.207706 0.771698 -0.647049
v 0.207697 0.771804 -0.647003
v 0.189038 0.800042 -0.646883
vt 0.827447 0.658158
vt 0.890575 0.670637
vt 0.867567 0.689124
vt 0.975475 0.630163
vt 0.975465 0.651563
vt 0.963447 0.629263
vt 0.959090 0.878062
vt 0.980283 0.886840
vt 0.929888 0.925929
vt 0.910287 0.651563
vt 0.900271 0.636486
vt 0.922378 0.629544
vt 0.979724 0.759857
vt 0.992838 0.823237
vt 0.959090 0.769068
vt 0.933728 0.553214
vt 0.920192 0.553214
vt 0.539427 0.055417
vt 0.000000 0.000000
vt 0.786352 0.688856
vt 0.911148 0.553214
vt 0.960513 0.661554
vt 0.864940 0.958529
vt 0.696040 0.878214
vt 0.980163 0.178176
vt 0.980163 0.135069
vt 0.602972 0.655424
vt 0.926394 0.925762
vt 0.719157 0.928841
vt 0.768941 0.957315
vt 0.935484 0.641403
vt 0.243332 0.171636
vt 0.483308 0.411788
vt 0.658969 0.824085
vt 0.924893 0.722869
vt 0.976956 0.760290
vt 0.980163 0.091962
vt 0.955763 0.769068
vt 0.692713 0.878215
vt 0.980163 0.055417
vt 0.726909 0.723022
vt 0.954907 0.600968
vt 0.539434 0.091962
vt 0.681873 0.823718
vt 0.000310 0.000056
vt 0.989543 0.823565
vt 0.949593 0.641537
vt 0.980163 0.023915
vt 0.591847 0.402567
vt 0.930844 0.600968
vt 0.539404 0.030999
vt 0.980163 0.214721
vt 0.980163 0.030999
vt 0.685199 0.823718
vt 0.696039 0.769221
vt 0.907972 0.553214
vt 0.007651 0.024347
vt 0.942876 0.665062
vt 0.539404 0.023915
vt 0.158183 0.130731
vt 0.651603 0.860686
vt 0.791079 0.688577
vt 0.630134 0.778618
vt 0.153220 0.024347
vn -0.589800 -0.804500 0.069600
vn -0.562300 -0.759500 0.326900
vn -0.982000 -0.181300 0.051900
vn -0.489900 0.210400 -0.846000
vn -0.382600 0.384900 -0.839900
vn -0.140000 0.065700 -0.987900
vn -0.985600 0.061700 0.157600
vn -0.848400 0.146900 0.508500
vn -0.978700 0.134500 0.155000
vn 0.379900 0.387100 -0.840100
vn 0.491300 0.211600 -0.844900
vn 0.138500 0.067700 -0.988000
vn -0.561000 -0.315800 0.765200
vn -0.583900 -0.052600 0.810100
vn -0.985000 -0.066100 0.159300
vn -0.820100 0.383700 -0.424400
vn -0.641900 0.637700 -0.425700
vn 0.562500 -0.585200 -0.584000
vn 0.984700 -0.125400 -0.120600
vn 0.981200 -0.185900 -0.051100
vn 0.150400 0.522000 -0.839500
vn 0.048800 0.147000 -0.987900
vn -0.049300 0.145500 -0.988100
vn 0.364900 0.816200 -0.448000
vn 0.641600 0.637600 -0.426300
vn -0.209200 0.501400 -0.839500
vn -0.354900 0.821900 -0.445600
vn -0.084800 0.880300 -0.466700
vn -0.849700 0.522500 -0.071200
vn -0.988000 0.146600 0.049100
vn -0.666500 0.497600 0.555100
vn -0.986000 0.060500 -0.155100
vn -0.858000 0.145500 -0.492500
vn -0.597900 -0.070700 -0.798400
vn 1.000000 0.000300 0.006500
vn 0.988200 0.145300 0.048400
vn 0.979400 0.130600 0.153600
vn 1.000000 0.000800 -0.006800
vn 0.970400 0.164500 -0.176500
vn 0.980600 0.179200 -0.079300
vn 0.820000 0.382500 -0.425700
vn 0.982300 0.036000 0.183700
vn 0.862300 0.146800 0.484600
vn 0.595800 -0.063700 0.800600
vn -1.000000 0.000300 0.006600
vn -0.479400 0.167800 0.861400
vn 0.594300 -0.070000 -0.801200
vn 0.560700 -0.315700 -0.765400
vn 0.984800 -0.124200 0.121200
vn 0.985000 -0.064500 0.159800
vn 0.565100 -0.315900 0.762100
vn -0.565100 -0.315900 -0.762100
vn 0.985700 0.060100 -0.157600
vn 0.985100 0.000400 -0.171900
vn -0.564600 -0.583800 -0.583400
vn -0.985000 -0.122600 -0.121200
vn -0.985000 -0.066000 -0.159400
vn -0.039200 -0.037500 -0.998500
vn 0.985000 -0.066200 -0.159200
vn -0.562400 -0.585100 0.584200
vn -0.589100 -0.805000 -0.069400
vn 0.035100 -0.035100 -0.998700
vn 0.565400 -0.584300 0.582100
vn -0.754000 0.197000 -0.626600
vn 0.563200 -0.760500 0.323200
vn -0.971500 0.161300 -0.173800
vn -0.565800 -0.758900 -0.322200
vn -0.982800 -0.178500 -0.046400
vn 0.562900 -0.758700 -0.327800
vn 0.586200 -0.807200 -0.069700
vn -1.000000 0.000800 -0.006800
vn -0.985000 0.000000 -0.172500
vn -0.985000 0.000100 0.172600
vn 0.595900 -0.800000 0.069500
vn 0.068000 0.863600 -0.499400
vn 0.361000 0.927300 -0.099100
vn -0.364700 0.925800 -0.099000
vn -0.072200 0.299700 0.951300
vn 0.491500 0.161800 0.855700
vn 0.848000 0.525100 -0.071700
vn 0.666100 0.498600 0.554700
vn -0.050300 0.528600 -0.847300
vn 0.822700 0.152300 -0.547700
vn -0.984700 -0.125100 0.120800
vn 0.983400 -0.173400 0.053800
vn 0.071300 0.299800 0.951300
vn -0.980700 0.179400 -0.078100
vn 0.293600 0.850700 0.435900
vn -0.297100 0.849800 0.435400
usemtl None
s 1
f 49/1/1 79/2/2 80/3/3
f 87/4/4 37/5/5 40/6/6
f 84/7/7 83/8/8 82/9/9
f 89/10/10 88/11/11 31/12/12
f 77/13/13 27/14/14 78/15/15
f 27/14/14 83/8/8 84/7/7
f 87/4/4 42/16/16 43/17/17
f 21/18/18 22/19/19 73/20/20
f 33/19/21 30/19/22 41/19/23
f 35/21/24 36/19/25 89/10/10
f 85/22/26 34/21/27 29/19/28
f 42/16/16 52/19/29 43/17/17
f 81/23/30 82/9/9 50/19/31
f 82/9/9 83/8/8 50/19/31
f 16/24/32 64/25/33 65/26/34
f 1/19/35 14/27/36 62/28/37
f 2/19/38 75/29/39 24/30/40
f 75/29/39 44/19/41 24/30/40
f 30/31/22 33/32/21 89/10/10
f 61/33/42 13/19/43 60/19/44
f 5/19/45 82/9/9 81/23/30
f 5/19/45 84/7/7 82/9/9
f 27/19/14 57/19/46 83/8/8
f 65/26/34 48/34/47 20/19/48
f 11/35/49 12/19/50 59/36/51
f 66/37/52 20/19/48 21/19/18
f 12/38/50 11/35/49 1/19/35
f 25/39/53 19/19/54 48/34/47
f 68/40/55 69/41/56 67/19/57
f 40/6/6 39/42/58 65/19/34
f 21/18/18 20/43/48 72/19/59
f 19/44/54 25/39/53 2/19/38
f 4/45/60 77/13/13 78/19/15
f 12/19/50 61/33/42 60/46/44
f 37/5/5 85/22/26 41/47/23
f 71/48/61 49/1/1 80/3/3
f 48/19/47 31/49/12 88/11/11
f 32/50/62 31/49/12 48/19/47
f 10/18/63 4/45/60 79/2/2
f 65/26/34 64/25/33 7/19/64
f 9/51/65 79/2/2 49/1/1
f 64/25/33 63/52/66 7/19/64
f 70/19/67 18/19/68 69/19/56
f 70/53/67 23/51/69 74/19/70
f 16/24/32 3/19/71 63/19/66
f 60/46/44 27/19/14 77/13/13
f 16/24/32 17/54/72 3/19/71
f 67/55/57 69/41/56 3/19/71
f 26/19/73 27/14/14 84/7/7
f 26/19/73 78/19/15 27/14/14
f 68/40/55 21/18/18 23/51/69
f 47/19/74 74/19/70 73/20/20
f 64/25/33 16/24/32 63/19/66
f 88/11/11 89/10/10 36/19/25
f 35/21/24 38/56/75 56/19/76
f 29/56/28 34/21/27 6/19/77
f 45/57/78 57/19/46 8/19/79
f 35/21/24 56/19/76 53/19/80
f 62/28/37 14/27/36 51/19/81
f 37/19/5 87/4/4 43/17/17
f 23/51/69 21/18/18 73/20/20
f 86/19/82 33/19/21 41/19/23
f 33/32/21 35/21/24 89/10/10
f 86/58/82 85/22/26 29/19/28
f 17/54/72 16/24/32 65/26/34
f 31/12/12 30/31/22 89/10/10
f 86/58/82 41/47/23 85/22/26
f 66/37/52 65/26/34 20/19/48
f 10/18/63 11/35/49 59/36/51
f 68/40/55 66/37/52 21/19/18
f 76/19/83 25/39/53 48/34/47
f 66/37/52 68/40/55 67/19/57
f 22/19/19 21/18/18 72/19/59
f 28/19/84 4/45/60 78/19/15
f 59/36/51 12/19/50 60/46/44
f 40/6/6 37/5/5 41/47/23
f 9/51/65 47/59/74 58/60/85
f 76/61/83 75/29/39 25/39/53
f 9/51/65 10/18/63 79/2/2
f 47/19/74 9/51/65 49/1/1
f 68/40/55 70/19/67 69/19/56
f 71/19/61 70/53/67 74/19/70
f 59/36/51 60/46/44 77/13/13
f 70/19/67 68/40/55 23/51/69
f 23/51/69 73/20/20 74/19/70
f 61/33/42 62/28/37 13/19/43
f 70/53/67 71/48/61 18/62/68
f 44/19/41 88/11/11 36/19/25
f 46/19/86 45/57/78 8/19/79
f 36/17/25 35/21/24 53/19/80
usemtl None_NONE
f 38/56/75 33/19/21 86/19/82
f 51/19/81 53/19/80 56/19/76
f 24/30/40 44/19/41 53/19/80
f 44/19/41 36/19/25 53/19/80
f 37/19/5 43/17/17 34/21/27
f 42/16/16 15/63/87 52/19/29
f 53/19/80 51/19/81 14/27/36
f 83/8/8 57/19/46 50/19/31
f 57/19/46 45/19/78 50/19/31
f 39/19/58 32/19/62 48/34/47
f 60/19/44 13/19/43 8/19/79
f 61/33/42 1/19/35 62/19/37
f 75/29/39 76/61/83 44/19/41
f 76/61/83 88/19/11 44/19/41
f 76/61/83 48/19/47 88/19/11
f 27/19/14 60/19/44 8/19/79
f 87/4/4 7/19/64 42/16/16
f 7/19/64 63/19/66 42/16/16
f 63/19/66 15/63/87 42/16/16
f 63/19/66 3/19/71 15/63/87
f 24/19/40 14/27/36 1/19/35
f 52/19/29 15/63/87 81/19/30
f 61/33/42 12/19/50 1/19/35
f 40/6/6 65/19/34 87/4/4
f 11/35/49 58/60/85 1/19/35
f 5/19/45 3/19/71 18/62/68
f 73/20/20 22/19/19 2/19/38
f 22/19/19 72/19/59 2/19/38
f 72/19/59 19/19/54 2/19/38
f 25/39/53 75/29/39 2/19/38
f 71/48/61 80/3/3 18/62/68
f 66/37/52 67/19/57 17/19/72
f 40/19/6 41/19/23 30/19/22
f 40/19/6 30/19/22 31/49/12
f 56/19/76 38/56/75 29/19/28
f 58/60/85 11/35/49 10/18/63
f 49/1/1 71/48/61 47/19/74
f 6/19/77 52/19/29 50/19/31
f 1/19/35 58/19/85 73/19/20
f 59/19/51 77/13/13 4/45/60
f 65/19/34 7/19/64 87/4/4
f 17/19/72 67/19/57 3/19/71
f 69/19/56 18/19/68 3/19/71
f 3/19/71 5/19/45 81/19/30
f 80/3/3 28/19/84 5/19/45
f 28/19/84 78/19/15 5/19/45
f 78/19/15 26/19/73 5/19/45
f 26/19/73 84/7/7 5/19/45
f 4/45/60 28/19/84 80/3/3
f 72/19/59 20/19/48 48/34/47
f 47/19/74 73/19/20 58/19/85
f 31/49/12 32/19/62 39/42/58
f 52/19/29 6/19/77 34/21/27
f 54/19/88 55/19/89 45/57/78
f 50/19/31 45/19/78 55/19/89
f 55/19/89 54/19/88 56/19/76
f 46/64/86 51/19/81 54/19/88
f 46/19/86 8/19/79 51/19/81
f 8/19/79 13/19/43 51/19/81
f 13/19/43 62/28/37 51/19/81
f 29/19/28 38/56/75 86/19/82
f 54/19/88 51/19/81 56/19/76
f 85/22/26 37/19/5 34/21/27
f 35/21/24 33/32/21 38/56/75
f 24/19/40 53/19/80 14/27/36
f 65/26/34 39/19/58 48/34/47
f 57/19/46 27/19/14 8/19/79
f 2/19/38 24/19/40 1/19/35
f 50/19/31 52/19/29 81/19/30
f 80/3/3 5/19/45 18/62/68
f 65/26/34 66/37/52 17/19/72
f 74/19/70 47/19/74 71/48/61
f 6/19/77 56/19/76 29/19/28
f 9/51/65 58/60/85 10/18/63
f 55/19/89 6/19/77 50/19/31
f 2/19/38 1/19/35 73/19/20
f 10/18/63 59/19/51 4/45/60
f 15/63/87 3/19/71 81/19/30
f 79/2/2 4/45/60 80/3/3
f 19/19/54 72/19/59 48/34/47
f 40/19/6 31/49/12 39/42/58
f 43/17/17 52/19/29 34/21/27
f 46/64/86 54/19/88 45/57/78
f 6/19/77 55/19/89 56/19/76
