# Blender v2.76 (sub 0) OBJ File: 'npc_humanoidmutant.blend'
# www.blender.org
v 0.025363 0.549122 0.161048
v 0.021398 0.849534 0.159410
v 0.039207 0.790563 0.279743
v -0.043647 0.773402 0.119230
v 0.023885 0.626590 0.088403
v 0.001689 0.554636 0.239364
v 0.019170 0.701607 0.299232
v 0.022848 0.742064 0.294079
v -0.028284 0.820228 0.136545
v -0.011086 0.671625 0.091147
v 0.012777 0.614445 0.286485
v 0.009073 0.579139 0.119612
v 0.012317 0.824126 0.220431
v -0.004014 0.610588 0.156698
v -0.019799 0.728183 0.272429
v -0.012894 0.759612 0.270048
v 0.053832 0.633452 0.303674
v -0.012985 0.637521 0.202102
v 0.072990 0.523137 0.181873
v 0.049417 0.539758 0.278920
v 0.106738 0.679243 0.321785
v 0.061756 0.632789 0.062126
v 0.109851 0.749731 0.302840
v 0.069262 0.620802 0.305008
v 0.059066 0.670542 0.055621
v 0.068840 0.594667 0.299407
v 0.012154 0.683778 0.292403
v -0.036549 0.710909 0.110442
v -0.018198 0.687676 0.252615
v 0.098523 0.630614 0.320518
v 0.042471 0.720512 0.055333
v 0.031763 0.590079 0.284229
v 0.141574 0.573754 0.270489
v 0.118542 0.533687 0.280693
v 0.115100 0.589638 0.293972
v 0.123228 0.617918 0.296361
v 0.135456 0.631070 0.288342
v 0.102132 0.834231 0.194270
v 0.110433 0.786322 0.276316
v 0.075398 0.794147 0.090203
v 0.078174 0.847262 0.144958
v 0.052328 0.773383 0.066818
v 0.157242 -0.070079 -0.249293
v 0.187013 -0.002678 -0.040800
v -0.097439 0.000279 0.004193
v -0.121316 -0.008265 -0.229531
v 0.169448 0.304943 -0.184989
v 0.181377 0.283289 0.038866
v -0.062580 0.270754 0.075986
v -0.125959 0.284211 -0.165418
v 0.268288 0.542987 -0.140605
v 0.274661 0.467064 0.039332
v -0.023106 0.414669 0.147879
v -0.169958 0.506286 0.078601
v 0.185123 -0.105987 -0.198292
v 0.204740 -0.030200 -0.058021
v -0.149496 -0.020093 -0.035919
v -0.153927 -0.074826 -0.180712
v 0.196649 0.378828 -0.144102
v 0.203735 0.353278 -0.028924
v -0.109003 0.245082 0.034803
v -0.153675 0.266503 -0.119088
v 0.311111 0.534125 -0.119950
v 0.322242 0.460911 -0.021002
v -0.079353 0.505724 0.204116
v -0.183868 0.475435 0.161649
v 0.283674 0.354067 -0.198661
v 0.265034 0.383897 -0.058557
v 0.381210 0.372825 -0.171733
v 0.371919 0.377680 -0.089359
v 0.333703 0.102380 -0.244557
v 0.289519 0.100894 -0.206474
v 0.378916 0.149038 -0.208892
v 0.315592 0.151767 -0.169694
v 0.291623 -0.035290 0.019813
v 0.220274 -0.057410 0.057120
v 0.287883 0.011408 0.039007
v 0.233500 0.004837 0.047198
v 0.254942 -0.081829 0.100036
v 0.195263 -0.074014 0.103055
v 0.268033 -0.031509 0.115960
v 0.218708 -0.016735 0.109427
v 0.255891 -0.082445 0.188512
v 0.158906 -0.079982 0.151102
v 0.224767 -0.074386 0.206421
v 0.167487 -0.052886 0.179143
v 0.239327 -0.123528 0.206757
v 0.146666 -0.109891 0.177580
v 0.214052 -0.129137 0.226685
v 0.136447 -0.111385 0.201223
v 0.234637 -0.138277 0.198829
v 0.154050 -0.120003 0.180153
v 0.195615 -0.181363 0.191153
v 0.143825 -0.168887 0.174964
v -0.109559 0.359921 0.190268
v -0.201610 0.363047 0.071952
v -0.112690 0.482166 0.293313
v -0.201143 0.443423 0.273575
v -0.112873 0.345290 0.469548
v -0.183060 0.292758 0.458379
v -0.128306 0.367137 0.488362
v -0.184097 0.306529 0.513848
v -0.033595 0.370326 0.510533
v -0.088933 0.289081 0.547127
v -0.106998 0.406739 0.524970
v -0.111294 0.334651 0.582473
v 0.062589 0.491031 0.596650
v 0.053419 0.477327 0.641571
v 0.022984 0.513048 0.595045
v 0.016030 0.502044 0.647635
v 0.040299 -0.065881 -0.254154
v -0.008831 -0.037226 -0.255129
v 0.081382 -0.004694 -0.003277
v 0.015475 -0.014426 0.003308
v 0.079185 0.292134 -0.203779
v -0.025842 0.459601 -0.131709
v 0.109916 0.270522 0.072888
v 0.013274 0.318008 0.084242
v 0.134898 0.577174 -0.112500
v -0.087831 0.569926 0.026536
v 0.158955 0.474656 0.092780
v 0.047573 0.441078 0.103077
v 0.040215 -0.114908 -0.188731
v -0.004482 -0.107377 -0.200596
v 0.081087 -0.036538 -0.025665
v -0.015331 -0.019731 -0.019594
v -0.047809 0.607473 0.091179
v 0.179591 0.568569 -0.021456
v 0.029116 0.508209 0.112299
v 0.130454 0.531214 0.077136
v -0.001534 0.619255 0.069192
v 0.127796 0.607922 0.013560
v 0.043373 0.548667 0.159887
v 0.123902 0.545454 0.156623
v 0.163907 0.838250 0.133710
v 0.182635 0.775108 0.278407
v 0.034356 0.624847 0.091287
v 0.187403 0.695626 0.290345
v 0.151860 0.530833 0.222809
v 0.106920 0.609804 0.069433
v 0.182347 0.715381 0.082862
v 0.191205 0.787337 0.105684
v 0.191479 0.734481 0.280116
v 0.187157 -0.237405 -0.144809
v 0.203996 -0.191935 -0.011510
v -0.128297 -0.205609 -0.036678
v -0.132326 -0.215026 -0.152429
v 0.051745 -0.226927 -0.135702
v -0.020734 -0.210836 -0.168313
v 0.081019 -0.196599 -0.012621
v -0.021393 -0.206966 -0.048497
v 0.196196 -0.330677 -0.097970
v 0.198254 -0.297562 0.018008
v 0.074833 -0.325548 -0.085535
v 0.089006 -0.298921 0.016818
v 0.229703 -0.508182 -0.146659
v 0.212883 -0.553222 -0.023623
v 0.116877 -0.524353 -0.159324
v 0.115415 -0.549491 -0.032968
v 0.217727 -0.567915 -0.110680
v 0.209942 -0.570372 -0.043957
v 0.134244 -0.542528 -0.140543
v 0.133544 -0.575629 -0.047455
v 0.124328 -0.905683 -0.305246
v 0.138617 -0.867809 -0.167676
v 0.242517 -0.999416 0.007205
v 0.150072 -1.001311 0.045803
v 0.167933 -0.974154 0.035223
v 0.140669 0.149769 -0.213023
v 0.169450 0.110824 -0.021881
v -0.092139 0.115699 0.019237
v -0.122639 0.166121 -0.173374
v 0.181054 0.132190 -0.184927
v 0.200982 0.119356 -0.061700
v -0.130876 0.130978 -0.008100
v -0.153626 0.140612 -0.136636
v 0.090820 0.101185 0.008102
v 0.002801 0.091897 0.020665
v 0.055331 0.144355 -0.222320
v -0.019756 0.188851 -0.200470
v -0.128540 -0.320226 -0.026613
v -0.138903 -0.329230 -0.138336
v -0.022889 -0.322445 -0.153467
v -0.020621 -0.320890 -0.037490
v -0.138751 -0.440067 -0.021961
v -0.153238 -0.445153 -0.138011
v -0.051318 -0.458813 -0.166902
v -0.036088 -0.442219 -0.035813
v -0.147479 -0.465163 -0.032482
v -0.157175 -0.470036 -0.122385
v -0.063546 -0.478126 -0.137820
v -0.053128 -0.481500 -0.049147
v -0.142398 -0.856643 -0.073411
v -0.146642 -0.873957 -0.136620
v -0.091510 -0.879783 -0.147230
v -0.075546 -0.868796 -0.086093
v -0.141878 -0.931891 -0.043679
v -0.136724 -0.987874 -0.157215
v -0.091610 -0.989902 -0.143543
v -0.084500 -0.928506 -0.045617
v -0.144827 -0.998784 0.182893
v -0.058295 -1.004659 0.188036
v -0.080063 -0.973480 0.174953
v 0.167222 0.603001 0.255368
v 0.141285 0.640421 0.062508
v 0.206418 -0.085376 -0.125116
v -0.178527 -0.071185 -0.100523
v 0.194135 0.340249 -0.084829
v -0.144218 0.238763 -0.046778
v 0.350854 0.494058 -0.068241
v -0.138860 0.521549 0.214046
v 0.230898 0.401760 -0.118834
v 0.387392 0.375945 -0.129529
v 0.302487 0.095201 -0.223959
v 0.350684 0.147934 -0.178757
v 0.261791 -0.051267 0.026383
v 0.255979 0.013995 0.049207
v 0.243907 -0.021018 0.113858
v 0.194061 -0.067305 0.202989
v 0.176216 -0.118310 0.223472
v 0.173626 -0.148911 0.196283
v -0.147763 0.350584 0.166555
v -0.158255 0.469912 0.290569
v -0.137312 0.289010 0.456014
v -0.167382 0.353712 0.503924
v -0.058422 0.327877 0.532809
v -0.112482 0.376006 0.559513
v 0.061190 0.484517 0.620184
v 0.012671 0.511019 0.621421
v 0.000187 -0.108911 -0.127209
v 0.179172 0.559567 0.035768
v 0.003409 0.557023 0.139603
v 0.135030 0.571005 0.091964
v 0.029258 0.578103 0.123970
v 0.187404 0.818953 0.186313
v 0.149013 0.585808 0.130800
v 0.216464 0.692528 0.219275
v 0.227513 0.772439 0.211224
v 0.212293 -0.225577 -0.084466
v -0.160565 -0.218876 -0.101008
v 0.046968 -0.211558 -0.074986
v -0.007605 -0.221849 -0.111921
v 0.210288 -0.320652 -0.049046
v 0.059868 -0.310422 -0.035455
v 0.241537 -0.525219 -0.100998
v 0.102638 -0.538043 -0.079721
v 0.222136 -0.568788 -0.078284
v 0.104717 -0.575137 -0.085917
v 0.224810 -0.887429 -0.229839
v 0.112828 -0.883938 -0.212378
v 0.206585 0.118334 -0.128400
v -0.157366 0.126467 -0.074589
v -0.162705 -0.326452 -0.093041
v -0.014006 -0.335253 -0.100358
v -0.169735 -0.430613 -0.078030
v -0.015966 -0.452707 -0.092133
v -0.158101 -0.463863 -0.078515
v -0.028178 -0.485084 -0.090384
v -0.154787 -0.861772 -0.108482
v -0.072477 -0.875260 -0.123814
v -0.161646 -0.937298 -0.077153
v 0.183200 0.619365 0.141010
v 0.023221 -0.046593 -0.224145
v 0.055548 -0.014153 0.002540
v 0.025251 0.312818 -0.195570
v 0.065646 0.291071 0.078585
v 0.018218 0.557376 -0.086205
v 0.081875 0.460481 0.091294
v 0.024084 -0.051914 -0.199394
v 0.047073 -0.039009 -0.022073
v 0.028922 0.619307 -0.002745
v 0.069174 0.506505 0.119867
v 0.049901 0.628844 0.016160
v 0.072162 0.523154 0.181983
v 0.063044 0.632478 0.061999
v 0.050478 0.094024 0.015552
v 0.021029 0.147955 -0.211158
v 0.059800 0.670193 0.056081
v 0.032444 -0.062281 -0.126216
v 0.083485 0.534082 0.658507
v 0.096427 0.541855 0.614625
v 0.054410 0.562758 0.662053
v 0.065294 0.570552 0.618173
v 0.119412 0.574185 0.676610
v 0.149457 0.585324 0.638026
v 0.104500 0.605180 0.695076
v 0.133816 0.617853 0.631181
v 0.145383 0.581143 0.691507
v 0.168918 0.589464 0.643369
v 0.149231 0.610431 0.712795
v 0.176628 0.621898 0.641198
v 0.244166 0.542875 0.655326
v 0.217701 0.532467 0.700390
v 0.089855 0.534463 0.639732
v 0.056430 0.568412 0.638425
v 0.129594 0.575980 0.656017
v 0.116372 0.612964 0.659298
v 0.158653 0.584225 0.665775
v 0.167333 0.619871 0.672146
v 0.187653 0.576248 0.674097
v 0.211569 0.564048 0.670168
v -0.077413 -0.032337 -0.270427
v -0.045581 -0.003066 0.010450
v -0.078618 0.317451 -0.154310
v -0.022822 0.289194 0.076950
v -0.130252 0.547889 0.041375
v 0.011613 0.434547 0.125577
v -0.088245 -0.104246 -0.216060
v -0.083977 -0.029548 -0.003545
v -0.123138 0.575422 0.154699
v 0.000865 0.487583 0.147960
v -0.080082 -0.216153 -0.184303
v -0.070307 -0.203950 -0.010408
v -0.046852 0.101549 0.023673
v -0.075358 0.162888 -0.201944
v -0.082677 -0.328474 -0.166127
v -0.065357 -0.315784 0.005296
v -0.105420 -0.456548 -0.202756
v -0.083917 -0.431801 0.006761
v -0.111712 -0.486080 -0.180130
v -0.099151 -0.464625 -0.017019
v -0.121323 -0.876618 -0.160444
v -0.109972 -0.849013 -0.063130
v -0.120535 -0.989243 -0.175467
v -0.110033 -0.924095 -0.021296
v -0.119855 -0.999888 0.188507
v -0.116565 -0.981008 0.168274
v -0.047445 0.539338 0.178539
v 0.248496 0.563617 -0.067287
v 0.096240 -0.078525 -0.269911
v 0.130708 0.006637 -0.021155
v 0.123253 0.282372 -0.201295
v 0.147077 0.266622 0.061129
v 0.223381 0.563865 -0.137351
v 0.230488 0.481250 0.063850
v 0.108684 -0.125026 -0.213451
v 0.131999 -0.021328 -0.029177
v 0.113968 -0.238423 -0.160982
v 0.140479 -0.182353 0.029510
v 0.133656 -0.324688 -0.105821
v 0.154539 -0.290929 0.060764
v 0.174164 -0.521123 -0.174294
v 0.154613 -0.553444 0.004617
v 0.184072 -0.548750 -0.187362
v 0.170375 -0.567948 -0.024304
v 0.144309 -0.898787 -0.333925
v 0.168356 -0.870489 -0.153632
v 0.129642 0.102978 -0.004404
v 0.092838 0.141077 -0.226401
v 0.263494 0.538090 -0.012938
v 0.172062 0.572446 0.702195
v 0.181678 0.592214 0.720042
v 0.212680 0.603683 0.650072
v 0.194735 0.581188 0.650373
v 0.204461 0.601995 0.679273
v 0.148153 0.574498 0.611210
v 0.142715 0.564574 0.593988
v 0.133997 0.604002 0.603388
v 0.127794 0.586867 0.584506
v 0.181700 0.551341 0.599547
v 0.203607 0.557065 0.603348
v 0.165931 0.570460 0.605692
v 0.167131 0.592570 0.595631
v 0.163709 0.582724 0.583334
v 0.162472 0.562839 0.595631
v 0.102547 0.556926 0.667168
v 0.078588 0.586971 0.678545
v 0.094610 0.596882 0.621533
v 0.118265 0.562411 0.625176
v 0.083994 0.592737 0.648982
v 0.108439 0.557043 0.647977
v 0.122092 0.559822 0.597022
v 0.100575 0.582263 0.588982
v 0.150178 0.582326 0.624924
v 0.129410 0.610907 0.615690
v 0.110486 0.598974 0.602579
v 0.131829 0.569925 0.610874
v -0.175784 0.448596 0.012176
v -0.025073 0.374139 0.121630
v 0.232146 0.399413 0.045808
v 0.239043 0.470243 -0.180768
v -0.218077 0.401123 0.113701
v -0.060579 0.377058 0.162117
v 0.272099 0.417815 -0.019569
v 0.290934 0.425034 -0.184284
v 0.324337 0.360374 -0.088693
v 0.357092 0.357775 -0.203725
v 0.297768 0.131640 -0.184823
v 0.363998 0.129636 -0.232716
v 0.211595 -0.033801 0.061239
v 0.299542 -0.009714 0.032350
v 0.195225 -0.040846 0.107623
v 0.266971 -0.058942 0.109658
v 0.157452 -0.063314 0.163321
v 0.172359 -0.942458 0.002157
v -0.211091 0.404507 0.237295
v -0.070426 0.427653 0.259706
v -0.194643 0.302526 0.485608
v -0.133017 0.365562 0.481717
v -0.104890 0.298176 0.578017
v -0.065587 0.401580 0.511833
v 0.086450 0.570790 0.686012
v 0.044249 0.504454 0.588173
v 0.025142 0.373835 0.095143
v 0.141182 0.394625 0.113272
v 0.123639 0.451236 -0.184791
v -0.097784 0.468925 -0.078227
v 0.138020 -0.977591 -0.045805
v 0.079793 0.388513 0.109403
v 0.070468 0.524688 -0.124392
v 0.080703 0.553106 0.605671
v 0.172753 0.581171 0.724275
v 0.153695 0.605565 0.633058
v 0.143190 0.594628 0.715307
v 0.176407 0.604809 0.634091
v 0.107839 0.588524 0.699000
v -0.138593 0.439442 -0.042524
v -0.001214 0.373655 0.109293
v 0.190097 0.405240 0.086477
v 0.180728 0.451280 -0.189274
v 0.064831 0.547261 0.673436
v 0.204197 0.591309 0.642784
v 0.132921 0.571569 0.583950
v 0.149235 0.596612 0.617365
v 0.191400 0.560459 0.608130
v 0.169549 0.586049 0.607245
v 0.162266 0.570076 0.585479
v 0.030413 0.489377 0.657744
v 0.107885 0.567017 0.588051
v 0.183624 0.677261 0.073253
v 0.182123 0.676561 0.280081
v 0.197420 0.657604 0.194753
v 0.308656 0.244375 -0.228732
v 0.383020 0.244915 -0.205570
v 0.354242 0.242476 -0.130977
v 0.286300 0.239288 -0.158827
v 0.381378 0.242786 -0.163134
v 0.281952 0.237316 -0.197512
v 0.352949 0.243750 -0.230886
v 0.311401 0.241668 -0.129463
v 0.176369 -0.080485 0.111271
v 0.183846 -0.068342 0.081003
v 0.168243 -0.071613 0.122138
v 0.187588 -0.050911 0.085972
v 0.159308 -0.081722 0.109107
v -0.065523 -1.000420 0.103109
v -0.084875 -0.965408 0.133612
v -0.151499 -0.978700 0.124238
v -0.160817 -0.993997 0.107026
v 0.145913 -0.946600 -0.017256
v 0.240015 -0.964809 -0.057592
v -0.065789 -0.976869 0.135410
v -0.120500 -0.967361 0.143815
v -0.119774 -0.997032 0.082918
v 0.205431 -0.945288 0.001597
v 0.190737 -0.975710 -0.071137
v 0.140745 0.573771 0.270599
v 0.117714 0.533704 0.280803
v -0.033794 0.577195 0.104454
v 0.204796 -0.872999 -0.186275
v 0.236255 -0.948580 -0.013695
v 0.138061 -0.097756 0.136415
v 0.183487 -0.915112 -0.287781
v 0.252658 -0.979628 -0.070812
v 0.212151 -1.004999 0.043063
v 0.208387 -0.974583 0.037245
v -0.065937 -0.955773 -0.078035
v 0.102352 0.833920 0.194985
v 0.104502 0.786120 0.277917
v 0.104440 0.749986 0.304423
v 0.073571 0.794315 0.091263
v 0.074299 0.847484 0.146318
v 0.134664 0.631697 0.289313
v 0.105949 0.678660 0.322637
v 0.052378 0.774232 0.068111
v 0.042082 0.720517 0.058107
v 0.215458 -0.949129 -0.179144
v 0.154161 -0.912132 -0.084475
v 0.137995 -0.916061 -0.115264
v 0.216740 -0.920290 -0.141695
v 0.183924 -0.915839 -0.078078
v 0.163245 -0.940060 -0.202473
v 0.136741 -0.944430 -0.175956
v 0.203639 -0.918190 -0.101007
v -0.092009 -0.997124 -0.008416
v -0.163772 -0.988361 0.001265
v -0.085101 -0.952043 0.043982
v -0.141210 -0.955728 0.049787
v -0.115948 -0.954020 0.061233
v -0.120399 -0.991501 -0.046631
v -0.151106 -0.958343 0.033033
v -0.071041 -0.961544 0.029919
v 0.136051 -0.809551 -0.180018
v 0.133889 -0.798379 -0.250299
v 0.116669 -0.806873 -0.205303
v 0.204202 -0.810208 -0.207105
v 0.160435 -0.796825 -0.270047
v 0.160946 -0.812141 -0.168237
v 0.190671 -0.811391 -0.183898
v 0.188464 -0.809355 -0.233896
v 0.096627 -0.420001 0.042231
v 0.088573 -0.423402 -0.091600
v 0.218036 -0.418422 -0.095664
v 0.073809 -0.418235 -0.016093
v 0.232014 -0.423174 -0.038012
v 0.152756 -0.421871 -0.110023
v 0.222694 -0.424395 0.008887
v 0.212560 -0.424839 0.051242
v 0.182927 -0.421324 0.066019
v 0.156095 -0.421681 0.082167
v 0.134202 -0.419675 0.072099
v -0.075431 0.354213 0.490097
v -0.119532 0.358000 0.508674
v -0.137258 0.334561 0.534276
v -0.101453 0.378607 0.496940
v -0.138006 0.277140 0.503600
v -0.102212 0.293799 0.495095
v -0.148923 0.284640 0.533085
v -0.086181 0.302206 0.485045
v -0.151089 0.290223 0.543279
v -0.146698 0.322532 0.543440
vt 0.069736 0.810409
vt 0.070343 0.836608
vt 0.016229 0.816513
vt 0.108198 0.828833
vt 0.082923 0.858291
vt 0.106675 0.817219
vt 0.100807 0.806030
vt 0.150135 0.804118
vt 0.147186 0.813631
vt 0.174865 0.804059
vt 0.199136 0.770721
vt 0.202768 0.808668
vt 0.238571 0.772226
vt 0.263052 0.806977
vt 0.232791 0.807582
vt 0.219562 0.756768
vt 0.197768 0.831600
vt 0.178180 0.842881
vt 0.234127 0.832144
vt 0.215107 0.851808
vt 0.137368 0.848515
vt 0.110896 0.852930
vt 0.145348 0.858722
vt 0.117053 0.872845
vt 0.102955 0.908822
vt 0.126935 0.911784
vt 0.138976 0.939172
vt 0.152030 0.900103
vt 0.166281 0.939086
vt 0.089864 0.882970
vt 0.149277 0.791186
vt 0.257412 0.845823
vt 0.214501 0.867849
vt 0.213059 0.907146
vt 0.051165 0.936868
vt 0.014365 0.995179
vt 0.015016 0.932731
vt 0.015519 0.884587
vt 0.078700 0.906981
vt 0.119497 0.940371
vt 0.219156 0.966110
vt 0.215077 0.942549
vt 0.015832 0.854569
vt 0.016051 0.833512
vt 0.179234 0.620343
vt 0.197718 0.646091
vt 0.173652 0.698841
vt 0.182928 0.613250
vt 0.178951 0.620309
vt 0.026111 0.589592
vt 0.036575 0.571852
vt 0.091358 0.586156
vt 0.124688 0.593060
vt 0.160572 0.604071
vt 0.170757 0.608279
vt 0.530541 0.500669
vt 0.510531 0.463554
vt 0.551834 0.493069
vt 0.552803 0.545871
vt 0.590385 0.499029
vt 0.586699 0.548165
vt 0.709463 0.233461
vt 0.736981 0.227836
vt 0.754824 0.286062
vt 0.746649 0.660255
vt 0.764971 0.572211
vt 0.792005 0.606361
vt 0.782569 0.517985
vt 0.798161 0.553887
vt 0.756625 0.500475
vt 0.737230 0.581062
vt 0.736075 0.519940
vt 0.733529 0.479446
vt 0.750714 0.455948
vt 0.710553 0.534913
vt 0.713606 0.486083
vt 0.707849 0.591243
vt 0.721914 0.656839
vt 0.056404 0.510554
vt 0.059910 0.459217
vt 0.082250 0.470310
vt 0.111457 0.463904
vt 0.112872 0.507403
vt 0.101446 0.443261
vt 0.056753 0.433066
vt 0.024045 0.465652
vt 0.523770 0.443500
vt 0.557804 0.459512
vt 0.592367 0.472603
vt 0.536472 0.416574
vt 0.563911 0.425104
vt 0.586690 0.416660
vt 0.568725 0.405936
vt 0.575182 0.380223
vt 0.594668 0.441922
vt 0.051716 0.399758
vt 0.024388 0.442698
vt 0.081566 0.396057
vt 0.093588 0.424361
vt 0.128566 0.412255
vt 0.109875 0.389620
vt 0.144957 0.383594
vt 0.141775 0.429221
vt 0.140728 0.456272
vt 0.132597 0.505439
vt 0.682119 0.592684
vt 0.697545 0.666171
vt 0.684063 0.542042
vt 0.648993 0.547098
vt 0.685757 0.487986
vt 0.653522 0.591244
vt 0.623556 0.582985
vt 0.679541 0.670859
vt 0.662650 0.670490
vt 0.157697 0.458631
vt 0.158681 0.391976
vt 0.157741 0.429866
vt 0.177530 0.430906
vt 0.454911 0.444893
vt 0.463736 0.393656
vt 0.479621 0.447783
vt 0.429932 0.441906
vt 0.454684 0.472779
vt 0.434980 0.472434
vt 0.472824 0.476894
vt 0.476425 0.525671
vt 0.456561 0.523166
vt 0.499275 0.486705
vt 0.497959 0.533883
vt 0.650874 0.220393
vt 0.668673 0.225869
vt 0.676740 0.279524
vt 0.688030 0.233060
vt 0.523816 0.542864
vt 0.493663 0.422434
vt 0.474451 0.386123
vt 0.482005 0.375180
vt 0.505422 0.400154
vt 0.514707 0.384843
vt 0.523991 0.369532
vt 0.531331 0.397196
vt 0.491685 0.367753
vt 0.128703 0.369584
vt 0.104505 0.368381
vt 0.099134 0.347142
vt 0.124471 0.341259
vt 0.103840 0.290043
vt 0.125032 0.288667
vt 0.506874 0.315104
vt 0.523971 0.318162
vt 0.260244 0.201008
vt 0.260256 0.148470
vt 0.285563 0.152714
vt 0.307173 0.152925
vt 0.307427 0.206656
vt 0.310405 0.109643
vt 0.286264 0.108735
vt 0.286965 0.064755
vt 0.267247 0.062003
vt 0.295875 0.025083
vt 0.263751 0.105236
vt 0.252893 0.056371
vt 0.440764 0.192044
vt 0.442886 0.130542
vt 0.459726 0.145161
vt 0.438643 0.253546
vt 0.412179 0.246705
vt 0.072435 0.349262
vt 0.073244 0.290649
vt 0.045943 0.349562
vt 0.077001 0.372659
vt 0.598868 0.385923
vt 0.596768 0.413923
vt 0.025330 0.379831
vt 0.048830 0.374660
vt 0.025785 0.349403
vt 0.026752 0.284835
vt 0.049424 0.287418
vt 0.388440 0.194221
vt 0.413018 0.188997
vt 0.545758 0.095983
vt 0.484907 0.101111
vt 0.491324 0.068919
vt 0.543531 0.316131
vt 0.571026 0.317433
vt 0.603411 0.325357
vt 0.336412 0.145885
vt 0.334734 0.199716
vt 0.313637 0.066360
vt 0.339506 0.058746
vt 0.419166 0.101111
vt 0.415550 0.073077
vt 0.418936 0.041329
vt 0.485174 0.030517
vt 0.545250 0.041004
vt 0.555771 0.071660
vt 0.550413 0.377675
vt 0.558050 0.404510
vt 0.731741 0.299501
vt 0.713679 0.331519
vt 0.699831 0.287050
vt 0.699623 0.348759
vt 0.689400 0.321677
vt 0.663804 0.312784
vt 0.654456 0.274483
vt 0.634618 0.311670
vt 0.669502 0.338169
vt 0.604363 0.274181
vt 0.630672 0.275261
vt 0.632768 0.219732
vt 0.612796 0.219139
vt 0.578680 0.274242
vt 0.840163 0.675460
vt 0.805000 0.641210
vt 0.821835 0.616809
vt 0.823287 0.709302
vt 0.792442 0.666262
vt 0.801265 0.732258
vt 0.840971 0.744966
vt 0.781333 0.686390
vt 0.557027 0.277312
vt 0.566024 0.224516
vt 0.589504 0.220607
vt 0.375096 0.492402
vt 0.384961 0.458486
vt 0.405199 0.486941
vt 0.410574 0.526483
vt 0.436273 0.522295
vt 0.410194 0.413373
vt 0.430433 0.380777
vt 0.455808 0.393131
vt 0.165665 0.393959
vt 0.192333 0.391907
vt 0.203471 0.419505
vt 0.207389 0.368304
vt 0.225411 0.391622
vt 0.396034 0.384167
vt 0.373257 0.427405
vt 0.420432 0.356604
vt 0.385943 0.354045
vt 0.365034 0.394965
vt 0.359348 0.362250
vt 0.361655 0.322007
vt 0.331496 0.354320
vt 0.389735 0.318213
vt 0.408299 0.313218
vt 0.407520 0.344510
vt 0.211730 0.328779
vt 0.220254 0.292264
vt 0.240239 0.298890
vt 0.032729 0.262939
vt 0.010266 0.262462
vt 0.022123 0.216488
vt 0.183362 0.259934
vt 0.169879 0.261827
vt 0.170456 0.200058
vt 0.152871 0.212064
vt 0.157816 0.257421
vt 0.131245 0.259389
vt 0.152744 0.212061
vt 0.329851 0.315255
vt 0.305156 0.349663
vt 0.332361 0.395198
vt 0.336616 0.434023
vt 0.342953 0.472564
vt 0.302718 0.434937
vt 0.305443 0.474901
vt 0.344205 0.538039
vt 0.305197 0.529271
vt 0.381368 0.533821
vt 0.526919 0.283769
vt 0.770507 0.751644
vt 0.805920 0.758992
vt 0.759849 0.709726
vt 0.733814 0.766693
vt 0.731822 0.732613
vt 0.715848 0.699675
vt 0.731674 0.685305
vt 0.489862 0.276741
vt 0.503649 0.216719
vt 0.536949 0.224504
vt 0.500193 0.577651
vt 0.546406 0.567669
vt 0.550049 0.651223
vt 0.770277 0.950472
vt 0.741703 0.987031
vt 0.721975 0.973279
vt 0.670795 0.949235
vt 0.691763 0.924160
vt 0.667253 0.759822
vt 0.647596 0.761046
vt 0.661418 0.745912
vt 0.674984 0.731059
vt 0.685126 0.785114
vt 0.727911 0.801324
vt 0.684541 0.813951
vt 0.779951 0.788271
vt 0.812240 0.817931
vt 0.777899 0.838219
vt 0.732181 0.843380
vt 0.684428 0.846295
vt 0.661248 0.840977
vt 0.662804 0.852998
vt 0.662157 0.811417
vt 0.664185 0.784673
vt 0.643244 0.784232
vt 0.590894 0.788058
vt 0.588395 0.804006
vt 0.546988 0.807658
vt 0.648291 0.946686
vt 0.655183 0.935733
vt 0.625362 0.944088
vt 0.565379 0.931164
vt 0.577026 0.913602
vt 0.517318 0.950251
vt 0.518656 0.937728
vt 0.532671 0.916079
vt 0.498534 0.934775
vt 0.508386 0.916362
vt 0.498934 0.958053
vt 0.504952 0.967267
vt 0.538647 0.828159
vt 0.520554 0.803562
vt 0.506540 0.794164
vt 0.512161 0.782695
vt 0.526812 0.792410
vt 0.499805 0.976893
vt 0.490810 0.970078
vt 0.606211 0.225665
vt 0.595724 0.228838
vt 0.600010 0.221730
vt 0.495368 0.986286
vt 0.485546 0.980051
vt 0.476390 0.972088
vt 0.479016 0.958002
vt 0.594230 0.216702
vt 0.592138 0.225545
vt 0.586564 0.214627
vt 0.590529 0.228890
vt 0.597639 0.217468
vt 0.605528 0.228876
vt 0.601098 0.232224
vt 0.604423 0.216146
vt 0.496747 0.782205
vt 0.501342 0.775490
vt 0.492601 0.804070
vt 0.489730 0.787509
vt 0.506750 0.811736
vt 0.492742 0.816421
vt 0.513412 0.828903
vt 0.488759 0.827748
vt 0.474192 0.805949
vt 0.511728 0.849291
vt 0.490026 0.847743
vt 0.536808 0.847447
vt 0.531596 0.867423
vt 0.579848 0.843550
vt 0.583631 0.821038
vt 0.639773 0.808883
vt 0.638068 0.835659
vt 0.640348 0.859960
vt 0.577914 0.864185
vt 0.582099 0.876926
vt 0.584670 0.895647
vt 0.537191 0.899022
vt 0.667339 0.876481
vt 0.668457 0.888449
vt 0.646086 0.879394
vt 0.736172 0.880839
vt 0.740176 0.911475
vt 0.690828 0.897503
vt 0.738403 0.943686
vt 0.778359 0.920543
vt 0.803771 0.938845
vt 0.794015 0.972059
vt 0.784290 0.882232
vt 0.808911 0.904111
vt 0.820719 0.863047
vt 0.834152 0.902731
vt 0.860307 0.861182
vt 0.865071 0.907486
vt 0.854923 0.958699
vt 0.829423 0.947565
vt 0.815176 0.985898
vt 0.887162 0.982680
vt 0.841126 0.997513
vt 0.599526 0.582393
vt 0.641540 0.666649
vt 0.148351 0.505738
vt 0.174193 0.461810
vt 0.207317 0.471588
vt 0.195039 0.515146
vt 0.222404 0.449298
vt 0.239531 0.431097
vt 0.252210 0.395818
vt 0.234712 0.343454
vt 0.265749 0.311085
vt 0.059449 0.258487
vt 0.041224 0.210106
vt 0.046055 0.145057
vt 0.065208 0.145112
vt 0.024679 0.151375
vt 0.162418 0.029328
vt 0.182110 0.066625
vt 0.166653 0.067555
vt 0.184383 0.102727
vt 0.186657 0.138828
vt 0.165079 0.140337
vt 0.141648 0.103851
vt 0.138732 0.067952
vt 0.115723 0.103496
vt 0.111228 0.067117
vt 0.106891 0.104386
vt 0.128518 0.203489
vt 0.120218 0.139876
vt 0.144564 0.139751
vt 0.102553 0.141654
vt 0.109393 0.202459
vt 0.089752 0.204557
vt 0.108356 0.261684
vt 0.084126 0.259809
vt 0.282949 0.354017
vt 0.258549 0.351892
vt 0.279678 0.394818
vt 0.273489 0.435894
vt 0.264764 0.465056
vt 0.236144 0.480843
vt 0.230426 0.525231
vt 0.576400 0.576912
vt 0.612982 0.659816
vt 0.582060 0.650525
vt 0.267987 0.525790
vt 0.305231 0.529680
vt 0.303387 0.392990
vt 0.288143 0.310611
vt 0.305042 0.312138
vt 0.080500 0.144623
vt 0.064947 0.207693
vt 0.555911 0.071265
vt 0.491604 0.068128
vt 0.166360 0.018036
vt 0.194569 0.061886
vt 0.205200 0.106980
vt 0.215831 0.152075
vt 0.145490 0.015442
vt 0.142316 0.025664
vt 0.122222 0.019171
vt 0.183428 0.191935
vt 0.098209 0.061670
vt 0.089191 0.103327
vt 0.904527 0.932446
vt 0.949699 0.948466
vt 0.911335 0.882488
vt 0.856281 0.836740
vt 0.887268 0.835598
vt 0.922921 0.857963
vt 0.965169 0.597470
vt 0.917537 0.577056
vt 0.944867 0.540579
vt 0.978071 0.883628
vt 0.973533 0.894384
vt 0.689807 0.425682
vt 0.723753 0.401854
vt 0.723676 0.441929
vt 0.751080 0.416759
vt 0.743080 0.379427
vt 0.787951 0.419748
vt 0.785654 0.452513
vt 0.788706 0.483118
vt 0.832288 0.454003
vt 0.836262 0.425753
vt 0.780027 0.392874
vt 0.831699 0.398084
vt 0.881984 0.402051
vt 0.879661 0.431814
vt 0.870752 0.458245
vt 0.864071 0.473143
vt 0.827228 0.478044
vt 0.861871 0.491751
vt 0.818704 0.500131
vt 0.958919 0.484608
vt 0.962949 0.502797
vt 0.937394 0.181666
vt 0.769056 0.171862
vt 0.923107 0.165442
vt 0.866430 0.519287
vt 0.825735 0.529120
vt 0.815376 0.348115
vt 0.773877 0.335777
vt 0.788825 0.312483
vt 0.742325 0.347461
vt 0.720633 0.360227
vt 0.774690 0.367418
vt 0.820904 0.374810
vt 0.872377 0.354530
vt 0.878939 0.376376
vt 0.819290 0.317856
vt 0.731418 0.161390
vt 0.740781 0.147624
vt 0.910959 0.146351
vt 0.728397 0.116884
vt 0.914298 0.126964
vt 0.743061 0.135898
vt 0.708508 0.185310
vt 0.696037 0.169448
vt 0.707778 0.159044
vt 0.676057 0.226459
vt 0.677608 0.225465
vt 0.676205 0.240475
vt 0.671792 0.238244
vt 0.671579 0.231190
vt 0.675970 0.223623
vt 0.780888 0.198982
vt 0.721993 0.208356
vt 0.777250 0.185608
vt 0.940749 0.196335
vt 0.683363 0.177018
vt 0.717878 0.068662
vt 0.713329 0.057286
vt 0.765911 0.073368
vt 0.691650 0.061870
vt 0.690905 0.050835
vt 0.704049 0.210128
vt 0.580357 0.233572
vt 0.578678 0.228747
vt 0.590575 0.223615
vt 0.632111 0.223278
vt 0.631029 0.218871
vt 0.633990 0.223808
vt 0.634144 0.230548
vt 0.630419 0.230702
vt 0.627492 0.228454
vt 0.685209 0.070727
vt 0.761098 0.088965
vt 0.932747 0.074007
vt 0.937492 0.094905
vt 0.957631 0.466678
vt 0.967928 0.421502
vt 0.960140 0.443954
vt 0.932725 0.111224
vt 0.750793 0.102746
vt 0.705453 0.080670
vt 0.711538 0.076342
vt 0.680790 0.074556
vt 0.626241 0.226931
vt 0.628045 0.218080
vt 0.582846 0.223738
vt 0.622224 0.225301
vt 0.624718 0.220016
vt 0.697557 0.089662
vt 0.676268 0.086597
vt 0.978665 0.398268
vt 0.692023 0.380408
vt 0.864947 0.581494
vt 0.899554 0.604654
vt 0.958903 0.642431
vt 0.337857 0.805645
vt 0.352329 0.816896
vt 0.335849 0.816248
vt 0.980156 0.877558
vt 0.909464 0.816878
vt 0.926421 0.834067
vt 0.281063 0.862176
vt 0.275086 0.902303
vt 0.214060 0.907716
vt 0.263508 0.936732
vt 0.293204 0.935134
vt 0.312830 0.897319
vt 0.306961 0.939965
vt 0.325778 0.911830
vt 0.378134 0.940095
vt 0.415505 0.929827
vt 0.418784 0.993411
vt 0.352990 0.912880
vt 0.416587 0.879286
vt 0.342977 0.862915
vt 0.334404 0.831281
vt 0.356169 0.822831
vt 0.421828 0.803268
vt 0.423463 0.790571
vt 0.281092 0.802015
vt 0.289344 0.787333
vt 0.914935 0.669173
vt 0.894371 0.655267
vt 0.941248 0.648461
vt 0.865116 0.631419
vt 0.904634 0.714904
vt 0.885904 0.758904
vt 0.900499 0.789879
vt 0.899007 0.788698
vt 0.853737 0.811092
vt 0.829870 0.777931
vt 0.860844 0.709530
vt 0.295623 0.819633
vt 0.287258 0.844412
vt 0.325763 0.856591
vt 0.321747 0.877511
vt 0.342095 0.889562
vt 0.420014 0.823008
vt 0.418443 0.847652
vt 0.214754 0.868398
vt 0.684556 0.874120
vt 0.672119 0.912381
vt 0.652475 0.900602
vt 0.639571 0.922231
vt 0.507622 0.881982
vt 0.511692 0.900015
vt 0.489666 0.900137
vt 0.580288 0.220048
vt 0.602597 0.219251
vt 0.595593 0.231166
vt 0.484047 0.918288
vt 0.483902 0.881354
vt 0.469443 0.898677
vt 0.461404 0.882670
vt 0.450183 0.899039
vt 0.464541 0.917413
vt 0.468275 0.936341
vt 0.471954 0.946277
vt 0.450867 0.951575
vt 0.488129 0.950503
vt 0.459843 0.957822
vt 0.474275 0.794513
vt 0.477930 0.782470
vt 0.464248 0.968801
vt 0.593648 0.229043
vt 0.594800 0.219921
vt 0.444295 0.950359
vt 0.455896 0.935741
vt 0.578071 0.229878
vt 0.581080 0.226636
vt 0.582821 0.231325
vt 0.444016 0.932284
vt 0.589242 0.231216
vt 0.447125 0.916158
vt 0.594684 0.224169
vt 0.596039 0.231008
vt 0.534866 0.881347
vt 0.436167 0.876832
vt 0.451786 0.873540
vt 0.502622 0.869488
vt 0.478622 0.869260
vt 0.600669 0.228516
vt 0.470367 0.846306
vt 0.436632 0.875280
vt 0.588033 0.222815
vt 0.620369 0.220488
vt 0.617885 0.228883
vt 0.604039 0.223910
vt 0.625993 0.229515
vt 0.627942 0.223514
vt 0.630553 0.227391
vt 0.474575 0.826305
vt 0.456368 0.843249
vt 0.468600 0.807609
vt 0.462220 0.823292
vt 0.860756 0.332332
vt 0.993439 0.371060
vt 0.986188 0.383142
vt 0.682025 0.226976
vt 0.679969 0.227249
vt 0.679746 0.240699
vt 0.359744 0.137364
vt 0.391687 0.134896
vt 0.379208 0.097067
vt 0.392501 0.134914
vt 0.338867 0.016386
vt 0.351992 0.060701
vt 0.355868 0.099033
vt 0.358824 0.195455
vt 0.357904 0.253546
vt 0.317688 0.022378
vt 0.316028 0.010349
vt 0.365914 0.059220
vt 0.188288 0.626633
vt 0.020225 0.627476
vt 0.077847 0.729049
vt 0.337959 0.102316
vt 0.605326 0.051490
vt 0.620218 0.074402
vt 0.243365 0.103028
vt 0.606609 0.090856
vt 0.080172 0.144983
vt 0.165866 0.103946
vt 0.385193 0.253546
vt 0.333056 0.253546
vt 0.413857 0.131288
vt 0.459290 0.199353
vt 0.286566 0.257455
vt 0.286064 0.205085
vt 0.260233 0.253546
vt 0.180066 0.618899
vt 0.041004 0.571204
vt 0.031313 0.580504
vt 0.176801 0.615736
vt 0.131432 0.592259
vt 0.168093 0.605199
vt 0.087753 0.577968
vt 0.126587 0.355421
vt 0.542484 0.399799
vt 0.686910 0.758599
vt 0.586835 0.222039
vt 0.016410 0.799097
vt 0.148475 0.720072
vt 0.112435 0.731387
vt 0.084152 0.729883
vt 0.033136 0.705214
vt 0.025959 0.628575
vt 0.025663 0.589717
vt 0.019321 0.677833
vt 0.192463 0.676215
vt 0.778378 0.672029
vt 0.084388 0.511316
vt 0.023385 0.509676
vt 0.024874 0.410259
vt 0.501364 0.360326
vt 0.292615 0.013201
vt 0.157751 0.257609
vt 0.305025 0.313375
vt 0.507675 0.653310
vt 0.608429 0.224637
vt 0.167552 0.508667
vt 0.967338 0.518460
vt 0.937757 0.213909
vt 0.591695 0.226894
vt 0.981627 0.633093
vt 0.446385 0.886139
vt 0.437892 0.943408
vt 0.609547 0.219908
vt 0.459305 0.810763
vt 0.679907 0.223732
vt 0.684787 0.235652
vt 0.107612 0.733849
vt 0.168687 0.701495
vt 0.187110 0.679257
vt 0.192365 0.649132
vt 0.140452 0.724767
vt 0.012425 0.676347
vt 0.026831 0.704379
vt 0.030940 0.580778
vt 0.233836 0.149685
vt 0.307681 0.260387
vt 0.458854 0.253546
vt 0.187870 0.626400
vn -0.522200 -0.493900 -0.695200
vn -0.730500 -0.296100 -0.615400
vn 0.374300 -0.102800 -0.921600
vn -0.974000 -0.218000 0.061600
vn -0.894300 -0.131700 -0.427600
vn -0.946800 -0.276500 -0.164700
vn -0.442500 -0.621500 -0.646400
vn -0.793600 -0.569000 0.215400
vn -0.661300 -0.233200 0.712900
vn -0.442200 -0.324000 0.836300
vn -0.338600 -0.706800 0.621000
vn -0.123800 -0.241900 0.962300
vn 0.509600 -0.740500 0.438000
vn 0.959600 -0.245000 0.138200
vn 0.343700 -0.190500 0.919500
vn 0.280200 -0.891900 -0.354900
vn -0.175100 -0.330000 0.927600
vn -0.319500 -0.148400 0.935900
vn 0.543900 -0.280400 0.790900
vn 0.115700 -0.404500 0.907200
vn -0.610200 -0.133500 0.780900
vn -0.931500 -0.198100 0.305200
vn -0.390300 0.028600 0.920200
vn -0.837100 0.025400 0.546400
vn -0.696200 0.663800 -0.273300
vn -0.717500 0.376000 0.586300
vn -0.394100 0.807900 0.438100
vn -0.295400 0.235500 0.925900
vn -0.177700 0.649000 0.739700
vn -0.887100 0.195800 -0.417900
vn -0.495100 -0.759500 -0.421900
vn 0.954300 0.015900 0.298400
vn 0.326600 0.088300 0.941000
vn 0.512600 0.339300 0.788700
vn -0.234000 0.966000 -0.110200
vn 0.763200 0.634600 0.121000
vn 0.405900 0.841200 -0.357100
vn 0.632700 0.440300 -0.637000
vn 0.712300 0.577500 0.398700
vn 0.123100 0.365900 -0.922500
vn -0.082900 0.137200 -0.987100
vn 0.298000 -0.374900 -0.877800
vn 0.508800 -0.141000 0.849200
vn 0.245800 -0.077600 0.966200
vn 0.876100 0.043200 0.480100
vn 0.948400 -0.033500 0.315300
vn 0.989000 -0.007500 -0.147900
vn 0.982300 0.043200 -0.182300
vn 0.968700 -0.223400 -0.108600
vn 0.809400 0.083800 -0.581200
vn 0.808300 -0.559300 -0.183600
vn -0.481200 0.100400 -0.870800
vn -0.077200 -0.994800 0.066500
vn 0.043900 0.281300 -0.958600
vn 0.595200 -0.008200 -0.803500
vn 0.143900 0.206800 -0.967700
vn 0.367100 0.670400 -0.644800
vn 0.590400 0.722400 -0.359800
vn 0.017700 0.219900 -0.975300
vn 0.125900 0.814600 -0.566100
vn 0.179600 0.101300 -0.978500
vn 0.415800 0.123800 -0.900900
vn 0.771600 -0.245500 -0.586700
vn 0.573000 -0.212300 -0.791600
vn -0.009400 -0.356900 -0.934100
vn 0.067900 0.155000 -0.985600
vn -0.027300 -0.608400 -0.793200
vn 0.630000 -0.305000 -0.714200
vn -0.050900 0.291900 0.955000
vn 0.867000 0.140600 0.478100
vn 0.991300 -0.029300 -0.128400
vn 0.084300 0.219000 0.972100
vn 0.877800 0.142800 0.457200
vn 0.977700 0.030600 0.207500
vn 0.736700 -0.075500 0.671900
vn 0.683000 -0.491000 0.540800
vn 0.995300 0.081100 -0.052900
vn 0.672900 -0.068400 -0.736600
vn -0.091900 -0.273900 -0.957300
vn -0.108800 -0.473000 -0.874300
vn -0.803300 -0.356100 -0.477400
vn -0.776900 -0.262500 -0.572300
vn -0.976500 -0.057500 0.207700
vn -0.815200 -0.430400 -0.387400
vn -0.604300 -0.268900 -0.750000
vn -0.215500 0.132500 -0.967400
vn -0.028100 0.124500 -0.991800
vn -0.199200 0.331600 -0.922100
vn -0.295400 0.469200 -0.832200
vn -0.039700 0.843500 -0.535600
vn -0.284200 0.193800 -0.939000
vn -0.390500 0.439100 -0.809100
vn -0.139600 0.152600 -0.978400
vn -0.224100 -0.379700 -0.897500
vn -0.288300 -0.833900 0.470500
vn -0.102900 -0.978300 -0.179900
vn 0.647500 -0.496400 -0.578200
vn -0.040900 -0.890300 0.453400
vn -0.073000 -0.488800 0.869300
vn 0.157600 -0.754500 0.637100
vn 0.153700 -0.427400 0.890900
vn -0.054600 -0.558500 0.827700
vn 0.312700 -0.305600 0.899300
vn 0.267300 -0.264800 0.926500
vn 0.151900 -0.229800 0.961300
vn 0.340400 -0.180500 0.922800
vn 0.368800 -0.265500 0.890800
vn 0.436300 -0.344700 0.831100
vn 0.623400 -0.196700 0.756800
vn -0.752600 0.132400 0.645000
vn -0.983900 -0.081800 0.158500
vn -0.747000 0.093700 0.658200
vn -0.764900 -0.168200 0.621800
vn -0.766300 -0.473000 0.434800
vn -0.527900 -0.150800 0.835800
vn -0.976900 -0.160500 0.141100
vn -0.797000 0.017900 -0.603700
vn -0.607800 -0.246500 -0.754800
vn -0.980200 -0.182000 -0.077300
vn -0.732600 -0.327000 -0.596900
vn -0.985400 -0.155700 0.067900
vn -0.534100 -0.587700 0.607700
vn -0.997200 0.010000 0.073600
vn -0.994700 -0.062200 0.082100
vn -0.700500 0.346500 0.623800
vn 0.175500 0.668200 0.723000
vn -0.009500 -0.149700 0.988700
vn 0.213200 0.917600 0.335300
vn -0.381200 0.832600 0.401800
vn -0.179100 0.827700 0.531800
vn -0.808300 0.442000 0.388700
vn -0.358500 0.573200 0.736800
vn -0.948200 0.226400 0.222500
vn -0.788700 -0.613600 -0.039000
vn -0.802600 0.256600 -0.538400
vn -0.769800 -0.447500 -0.455000
vn 0.185800 0.224500 -0.956600
vn -0.129600 0.356600 -0.925200
vn 0.762500 0.149800 -0.629400
vn -0.039300 0.291500 -0.955700
vn 0.985400 -0.155700 -0.069200
vn 0.993200 0.109000 0.040300
vn 0.731300 0.295700 -0.614600
vn 0.949900 -0.279900 0.139000
vn 0.940500 -0.195500 -0.277700
vn 0.816200 0.218600 -0.534800
vn 0.165900 0.388500 -0.906400
vn 0.634400 -0.722700 -0.274000
vn 0.886000 -0.437900 -0.152200
vn -0.072300 -0.966800 -0.244800
vn 0.090900 -0.751100 0.653800
vn 0.657800 -0.534600 0.530500
vn 0.818800 0.361600 0.445800
vn 0.723800 -0.105800 0.681800
vn 0.275200 0.801200 0.531300
vn 0.720300 0.594300 0.357600
vn 0.778100 -0.575100 0.252400
vn 0.332200 -0.639700 0.693100
vn -0.647500 -0.424500 0.632900
vn -0.643000 -0.757600 -0.112100
vn -0.075700 -0.959300 -0.272000
vn -0.135900 -0.666000 0.733400
vn 0.494600 -0.121100 0.860700
vn 0.886500 -0.462700 0.003900
vn 0.755200 -0.412200 0.509600
vn 0.813300 -0.265100 0.517800
vn 0.484200 0.269300 0.832500
vn 0.552700 -0.130900 0.823000
vn 0.207100 -0.055500 0.976700
vn 0.117600 -0.337700 0.933900
vn -0.083400 -0.053400 0.995100
vn 0.205100 0.273000 0.939800
vn 0.042800 -0.303900 0.951700
vn -0.025100 -0.292400 0.955900
vn 0.065500 -0.209800 0.975500
vn 0.115900 -0.350900 0.929200
vn 0.138900 -0.198600 0.970200
vn 0.424400 -0.328600 0.843700
vn 0.543700 -0.433000 0.719000
vn 0.603800 -0.211500 0.768600
vn -0.111900 -0.447700 0.887100
vn -0.409700 -0.175500 0.895100
vn -0.063300 -0.205300 0.976600
vn -0.368400 -0.217700 0.903800
vn -0.132700 -0.283300 0.949800
vn 0.034300 -0.427000 0.903600
vn 0.847000 0.005300 0.531500
vn 0.998800 -0.045600 -0.014600
vn 0.948800 -0.296900 0.107800
vn 0.720000 -0.178000 -0.670700
vn 0.995000 -0.091500 -0.040600
vn 0.743800 -0.109200 -0.659400
vn 0.885400 -0.025600 0.464000
vn 0.129300 0.044000 0.990600
vn 0.761200 -0.292900 0.578600
vn 0.174800 0.070000 0.982100
vn 0.096300 -0.273100 0.957100
vn 0.039900 -0.365600 0.929900
vn -0.632200 -0.065000 0.772000
vn 0.677900 -0.276100 0.681300
vn 0.973800 -0.224500 -0.034700
vn 0.968800 -0.245500 -0.033000
vn 0.713100 -0.450600 -0.537000
vn 0.932000 -0.100900 -0.348200
vn 0.900100 0.076700 0.428900
vn 0.157500 0.134100 0.978400
vn -0.733800 -0.108800 0.670600
vn -0.993500 -0.033700 0.108600
vn -0.696100 0.088100 0.712500
vn -0.688100 -0.013300 0.725500
vn -0.764600 -0.058000 0.641800
vn -0.998500 -0.046400 -0.026900
vn -0.996000 -0.057700 0.067400
vn -0.804700 -0.044700 0.591900
vn -0.983200 0.079400 0.164600
vn -0.708900 -0.353300 0.610400
vn 0.638700 -0.501600 0.583500
vn 0.601900 -0.293100 0.742800
vn 0.968900 -0.059700 0.240000
vn 0.478300 -0.845400 0.237700
vn -0.022000 -0.997000 0.074400
vn -0.973600 -0.103600 0.203100
vn -0.961100 0.056300 -0.270300
vn -0.944400 0.112100 -0.309200
vn 0.367400 -0.873100 -0.320300
vn -0.514100 -0.848200 -0.127100
vn 0.366300 0.214300 -0.905500
vn 0.719000 -0.151800 -0.678200
vn 0.641300 -0.592800 -0.487200
vn 0.890000 0.004200 -0.455900
vn 0.347200 0.792300 0.501700
vn 0.808000 0.553400 0.202100
vn 0.624700 0.367000 0.689200
vn 0.409900 0.466200 0.784000
vn -0.362600 0.817300 0.447700
vn -0.436000 0.793900 0.423800
vn -0.539100 0.663800 0.518400
vn -0.545700 0.703100 0.455800
vn -0.627200 0.363200 0.689000
vn -0.687800 0.695100 0.209100
vn -0.237400 0.656700 -0.715800
vn 0.076200 0.521200 -0.850000
vn 0.792100 -0.291000 -0.536500
vn 0.219200 0.320200 -0.921600
vn -0.145800 -0.040500 -0.988500
vn 0.450500 -0.880400 -0.147900
vn 0.837100 -0.546800 0.015300
vn 0.634100 -0.673300 -0.380100
vn 0.785400 -0.604300 0.133700
vn 0.607800 -0.783700 0.128200
vn 0.674000 -0.725000 0.141900
vn 0.287600 -0.910900 -0.295900
vn -0.179000 -0.409400 -0.894600
vn -0.618600 0.611500 -0.493400
vn -0.462900 0.340600 -0.818400
vn -0.093600 0.425600 -0.900000
vn -0.024000 -0.408300 -0.912500
vn 0.066400 -0.991900 -0.108200
vn 0.136100 -0.470400 -0.871900
vn -0.063200 -0.993200 -0.097400
vn -0.293800 -0.955800 0.011000
vn -0.082800 -0.442200 0.893100
vn 0.319400 -0.710900 0.626600
vn 0.210000 -0.091300 0.973400
vn 0.566500 0.415400 0.711700
vn 0.956100 -0.283900 0.072700
vn 0.290800 0.319800 -0.901700
vn 0.505000 0.825200 -0.253000
vn 0.153000 0.873000 -0.463100
vn -0.364300 0.797000 -0.481800
vn 0.040800 0.912200 -0.407600
vn -0.545300 0.802400 -0.242600
vn -0.042000 0.948500 -0.313900
vn 0.483700 0.147100 -0.862800
vn -0.606800 0.794300 -0.029500
vn -0.355600 0.934100 0.031700
vn -0.720900 0.689900 -0.065800
vn -0.759700 0.468900 0.450500
vn -0.764100 0.642300 0.059400
vn -0.399800 0.702300 -0.589000
vn -0.705600 0.651400 -0.278900
vn -0.850400 0.380900 0.362800
vn -0.636800 0.030600 0.770400
vn -0.714400 0.309900 0.627400
vn -0.105400 -0.245700 0.963600
vn 0.631800 -0.589300 0.503400
vn 0.573500 -0.585100 0.573300
vn -0.560700 -0.503400 0.657400
vn -0.316800 -0.908600 0.272100
vn -0.090000 -0.648700 0.755700
vn -0.853300 0.486800 0.186700
vn -0.999200 0.036800 0.016000
vn -0.913500 -0.349700 0.207900
vn -0.815200 -0.577300 0.046700
vn -0.998300 -0.006100 -0.057600
vn -0.852400 0.325200 -0.409400
vn -0.521100 0.293700 -0.801300
vn -0.872900 0.484400 0.058200
vn -0.858100 0.492800 -0.143900
vn -0.389600 0.858100 0.334300
vn -0.662300 0.668500 -0.338100
vn -0.107900 0.928100 0.356200
vn -0.502600 0.774300 -0.384400
vn -0.626300 0.294000 -0.722000
vn -0.696000 0.393900 -0.600300
vn -0.249300 0.374900 -0.892900
vn -0.143600 0.204000 -0.968400
vn 0.386400 -0.184300 -0.903700
vn -0.238300 -0.141500 -0.960800
vn -0.262400 0.237600 -0.935200
vn -0.260200 -0.397900 -0.879700
vn -0.126200 -0.214000 -0.968600
vn -0.128900 -0.003800 -0.991600
vn 0.687200 -0.395600 -0.609200
vn -0.218200 -0.353300 -0.909700
vn 0.661300 -0.041800 -0.748900
vn 0.643300 -0.674000 -0.363100
vn -0.039100 -0.546200 -0.836800
vn 0.986600 -0.159600 -0.033400
vn 0.235800 0.815500 0.528600
vn 0.839200 0.541400 0.049900
vn 0.228600 0.955700 0.185300
vn 0.967800 0.251400 0.006400
vn 0.801600 0.464200 0.376700
vn -0.090300 0.965600 0.243800
vn -0.250000 0.896500 0.365700
vn -0.377200 0.893300 0.244100
vn -0.712000 0.665200 0.224800
vn -0.783500 0.603000 0.149700
vn -0.748900 0.144100 0.646800
vn -0.661700 0.609000 0.437200
vn 0.031300 0.843300 0.536500
vn -0.997600 0.066900 0.019900
vn -0.999500 0.028200 -0.013600
vn -0.863200 -0.002000 -0.504800
vn -0.975000 -0.188700 0.116800
vn -0.944200 -0.085000 -0.318200
vn -0.867100 0.014100 -0.497900
vn -0.159900 -0.147100 -0.976100
vn -0.711300 -0.000500 -0.702900
vn -0.722300 -0.139900 -0.677200
vn -0.826600 -0.138500 -0.545500
vn -0.734100 0.035600 -0.678100
vn -0.679000 0.128200 -0.722800
vn -0.998900 0.041700 -0.018900
vn -0.696300 -0.609300 -0.379200
vn -0.179700 0.036000 -0.983000
vn -0.827800 -0.560700 0.019000
vn -0.107900 -0.993500 -0.035900
vn -0.081800 -0.996100 -0.031900
vn 0.418800 -0.906200 -0.057100
vn 0.710400 -0.699400 -0.078100
vn 0.654900 -0.397700 0.642600
vn -0.238700 -0.384400 0.891800
vn -0.257900 0.835400 0.485300
vn -0.657700 -0.248800 0.711000
vn -0.868600 -0.490400 0.071000
vn -0.375400 0.623600 -0.685700
vn -0.209800 0.899600 -0.382900
vn 0.124100 0.718600 0.684300
vn -0.283000 0.932900 0.222700
vn 0.040000 0.957900 -0.284400
vn 0.423200 0.890300 -0.167900
vn 0.562900 0.663100 0.493200
vn 0.331700 0.942100 0.048500
vn 0.529000 0.724100 0.442600
vn 0.342300 0.933400 0.107600
vn 0.850900 0.470600 0.233500
vn 0.709100 -0.049200 0.703400
vn 0.990500 0.102500 0.091400
vn 0.834400 0.324400 -0.445500
vn 0.380900 0.347000 -0.857000
vn 0.906600 0.039800 -0.420100
vn 0.917900 -0.163200 0.361600
vn 0.704700 -0.221000 0.674100
vn 0.429700 -0.342600 0.835400
vn -0.218600 0.135000 0.966400
vn 0.573900 0.217400 0.789500
vn 0.984400 -0.164600 -0.062200
vn 0.702300 -0.274600 -0.656800
vn 0.308500 0.110100 -0.944800
vn 0.151500 -0.499100 -0.853100
vn -0.409900 0.089500 -0.907700
vn 0.963700 -0.039300 0.263900
vn 0.738300 -0.653300 -0.167500
vn 0.382900 -0.914400 -0.131300
vn 0.053700 -0.886100 -0.460300
vn -0.543300 -0.493700 -0.679000
vn -0.940100 -0.080900 -0.331100
vn -0.858600 -0.270300 0.435500
vn 0.075400 -0.879700 0.469400
vn 0.565100 -0.638200 0.522800
vn 0.707800 0.027400 0.705900
vn 0.153100 -0.482500 0.862400
vn -0.388000 -0.302600 0.870600
vn -0.923000 -0.141900 -0.357700
vn -0.907100 0.110600 0.406100
vn -0.022800 -0.989600 -0.141600
vn -0.493500 -0.443100 -0.748400
vn -0.475500 -0.672400 -0.567200
vn -0.749300 0.651500 -0.118500
vn -0.913800 0.225100 -0.337900
vn -0.749200 0.534200 -0.391500
vn -0.678800 -0.362400 -0.638700
vn -0.890400 0.448700 -0.076300
vn 0.282800 -0.909600 0.304300
vn -0.680300 -0.629800 -0.375000
vn -0.228000 0.169800 0.958700
vn 0.752300 0.462200 0.469300
vn 0.920500 -0.182600 0.345300
vn 0.944400 -0.303000 0.127800
vn -0.659200 -0.301100 -0.689000
vn 0.296500 0.539700 0.787900
vn 0.231600 -0.225200 0.946300
vn 0.960700 -0.264600 0.084300
vn 0.837200 -0.361700 -0.410100
vn -0.126800 -0.113600 -0.985400
vn -0.134000 -0.941900 -0.307800
vn -0.231800 -0.969500 -0.079400
vn -0.313200 -0.085900 0.945800
vn 0.173700 0.862400 0.475400
vn 0.580900 0.611200 0.537500
vn -0.075800 0.866400 0.493500
vn -0.660500 0.720500 0.211100
vn -0.344700 0.914900 0.210000
vn -0.514300 0.765100 0.387500
vn -0.096500 0.654500 0.749800
vn -0.927400 0.051400 0.370400
vn -0.307500 -0.869000 -0.387500
vn 0.733200 -0.070400 0.676400
vn 0.987700 0.129400 0.087800
vn 0.705700 0.379300 -0.598400
vn 0.761700 -0.521500 -0.384400
vn -0.026600 0.847100 0.530700
vn -0.283000 0.931800 -0.227300
vn 0.660300 -0.150100 0.735800
vn 0.678100 0.107500 0.727100
vn -0.708500 0.192400 0.678900
vn -0.600300 0.539400 0.590400
vn 0.461100 0.521900 0.717600
vn -0.463900 0.795400 0.390000
vn 0.553700 0.818400 0.153300
vn 0.947900 0.294700 0.120800
vn 0.384700 0.858700 -0.338500
vn 0.653800 0.370200 -0.659900
vn -0.756800 0.653600 0.012000
vn -0.643100 0.562700 -0.519300
vn 0.718600 -0.073400 -0.691500
vn 0.872500 -0.421300 -0.247500
vn 0.363900 -0.317600 -0.875600
vn -0.746000 -0.065700 -0.662700
vn 0.641900 -0.763800 0.066600
vn 0.632900 -0.768400 -0.094700
vn -0.214300 -0.386600 0.897000
vn 0.025100 -0.162700 0.986300
vn -0.569100 -0.672900 0.472500
vn 0.286100 -0.580600 0.762200
vn 0.160400 -0.054400 0.985500
vn -0.536800 0.186000 0.822900
vn 0.195700 -0.310800 0.930100
vn -0.314300 0.439300 0.841500
vn 0.357300 0.423600 0.832400
vn 0.710200 -0.051500 0.702100
vn 0.315500 -0.006200 0.948900
vn 0.831800 -0.314700 0.457200
vn -0.345400 -0.428300 0.835000
vn 0.695200 -0.439700 0.568600
vn 0.935900 -0.352300 -0.008400
vn 0.944200 -0.312300 0.104600
vn 0.677300 0.148100 -0.720600
vn -0.934700 -0.107400 -0.338700
vn -0.719200 0.561100 -0.409800
vn -0.671000 -0.287700 0.683300
vn -0.849100 -0.135700 0.510400
vn -0.011500 -0.999500 -0.030500
vn 0.477900 -0.867800 0.136300
vn 0.785100 -0.613700 -0.083700
vn -0.215200 -0.343300 0.914200
vn 0.498000 -0.709600 0.498400
vn 0.291900 -0.868800 0.399900
vn 0.539300 -0.829300 0.145900
vn 0.454900 0.461700 0.761500
vn -0.178500 -0.299100 0.937400
vn 0.468200 -0.879500 0.085200
vn -0.308600 -0.369400 0.876500
vn -0.116700 -0.968700 0.219200
vn -0.342700 -0.271400 0.899300
vn -0.505600 -0.861200 0.051600
vn 0.039700 -0.984700 -0.169700
vn 0.623100 -0.768900 -0.143000
vn 0.867900 -0.492200 0.067400
vn 0.427600 -0.864500 0.264200
vn 0.841500 0.539700 -0.024300
vn 0.162700 -0.043900 -0.985700
vn 0.069300 -0.771700 -0.632100
vn 0.210100 -0.119400 -0.970300
vn 0.709500 -0.703100 -0.047500
vn -0.270900 -0.731300 -0.625800
vn -0.398800 -0.848900 -0.346900
vn -0.200800 -0.194900 0.960000
vn -0.063100 0.732300 0.678000
vn -0.716100 0.516400 0.469600
vn -0.523300 0.655800 0.544100
vn 0.130900 0.970200 0.203700
vn 0.475400 -0.616400 0.627700
vn 0.740100 0.549800 0.387100
vn 0.765000 0.574800 -0.290300
vn 0.252700 0.851400 -0.459500
vn -0.629500 -0.539700 0.558900
vn 0.963700 0.052600 -0.261800
vn 0.567700 -0.548300 -0.613900
vn 0.857400 0.510100 0.068100
vn 0.925900 0.370400 0.074100
vn 0.990900 0.129500 -0.035200
vn 0.360000 0.500400 0.787300
vn 0.604000 0.758300 0.245200
vn -0.088200 -0.187000 -0.978400
vn 0.394800 0.896100 0.202800
vn -0.660200 -0.140000 0.737900
vn 0.047800 -0.176400 0.983200
vn 0.741800 0.321400 -0.588600
s 1
f 5/1/1 10/2/2 25/3/3
f 18/4/4 28/5/5 10/2/2
f 14/6/6 5/1/1 12/7/7
f 14/6/6 6/8/8 18/4/4
f 14/6/6 18/4/4 10/2/2
f 18/4/4 6/8/8 11/9/9
f 11/9/9 6/8/8 32/10/10
f 6/8/8 20/11/11 32/10/10
f 32/10/10 20/11/11 26/12/12
f 34/13/13 33/14/14 35/15/15
f 34/13/13 20/11/11 19/16/16
f 34/13/13 35/15/15 26/12/12
f 26/12/12 24/17/17 17/18/18
f 24/17/17 36/19/19 30/20/20
f 17/18/18 32/10/10 26/12/12
f 17/18/18 11/9/9 32/10/10
f 17/18/18 27/21/21 11/9/9
f 18/4/4 29/22/22 28/5/5
f 29/22/22 18/4/4 11/9/9
f 27/21/21 7/23/23 15/24/24
f 9/25/25 16/26/26 13/27/27
f 16/26/26 8/28/28 3/29/29
f 15/24/24 7/23/23 8/28/28
f 16/26/26 9/25/25 4/30/30
f 4/30/30 28/5/5 29/22/22
f 1/31/31 14/6/6 12/7/7
f 14/6/6 1/31/31 6/8/8
f 19/16/16 20/11/11 6/8/8
f 35/15/15 36/19/19 24/17/17
f 30/20/20 36/19/19 37/32/32
f 30/20/20 21/33/33 17/18/18
f 7/23/23 27/21/21 17/18/18
f 7/23/23 21/33/33 23/34/34
f 2/35/35 38/36/36 41/37/37
f 40/38/38 9/39/25 2/35/35
f 2/40/35 13/27/27 38/41/36
f 3/29/29 38/41/36 13/27/27
f 3/29/29 39/42/39 38/41/36
f 3/29/29 8/28/28 23/34/34
f 9/39/25 40/38/38 42/43/40
f 42/43/40 31/44/41 28/5/5
f 31/44/41 25/3/3 10/2/2
f 33/14/14 37/32/32 35/15/15
f 37/32/32 36/19/19 35/15/15
f 25/45/3 31/46/41 40/47/38
f 22/48/42 25/49/3 33/50/14
f 22/48/42 34/51/13 19/52/16
f 1/53/31 12/54/7 5/55/1
f 44/56/43 337/57/44 56/58/45
f 44/56/43 56/58/45 174/59/46
f 56/58/45 206/60/47 251/61/48
f 174/62/46 251/63/48 208/64/49
f 173/65/50 59/66/51 208/67/49
f 59/66/51 67/68/52 212/69/53
f 67/68/52 59/66/51 385/70/54
f 59/66/51 47/71/55 381/72/56
f 381/72/56 51/73/57 63/74/58
f 381/72/56 420/75/59 334/76/60
f 420/75/59 381/72/56 47/71/55
f 332/77/61 47/71/55 169/78/62
f 47/71/55 59/66/51 173/65/50
f 173/79/50 55/80/63 43/81/64
f 43/81/64 330/82/65 349/83/66
f 43/81/64 55/80/63 336/84/67
f 336/84/67 55/80/63 144/85/68
f 144/85/68 55/80/63 206/86/47
f 206/86/47 55/80/63 173/79/50
f 56/58/45 339/87/69 145/88/70
f 145/88/70 239/89/71 206/60/47
f 145/88/70 341/90/72 153/91/73
f 507/92/74 508/93/75 157/94/76
f 153/91/73 243/95/77 239/89/71
f 152/96/78 144/85/68 239/97/71
f 340/98/79 338/99/80 144/85/68
f 148/100/81 154/101/82 241/102/83
f 154/101/82 148/100/81 338/99/80
f 148/100/81 123/103/84 336/84/67
f 111/104/85 330/82/65 336/84/67
f 111/104/85 179/105/86 349/83/66
f 115/106/87 332/77/61 349/107/66
f 332/77/61 115/106/87 406/108/88
f 406/108/88 410/109/89 119/110/90
f 410/109/89 265/111/91 116/112/92
f 406/108/88 115/106/87 265/111/91
f 115/106/87 179/113/86 277/114/93
f 179/105/86 111/104/85 263/115/94
f 123/103/84 279/116/95 269/117/96
f 263/115/94 111/104/85 123/103/84
f 263/115/94 269/117/96 124/118/97
f 124/118/97 269/117/96 279/116/95
f 270/119/98 279/120/95 125/121/99
f 279/120/95 270/119/98 126/122/100
f 270/119/98 264/123/101 114/124/102
f 125/121/99 113/125/103 264/123/101
f 113/125/103 177/126/104 276/127/105
f 331/128/106 348/129/107 177/126/104
f 177/130/104 348/131/107 333/132/108
f 333/132/108 348/131/107 170/133/109
f 44/56/43 331/128/106 337/57/44
f 331/128/106 44/56/43 170/134/109
f 337/57/44 125/121/99 150/135/110
f 337/57/44 331/128/106 113/125/103
f 125/121/99 279/120/95 150/135/110
f 279/120/95 241/136/83 150/135/110
f 241/136/83 244/137/111 150/135/110
f 150/135/110 244/137/111 155/138/112
f 501/139/113 159/140/114 511/141/115
f 155/138/112 244/137/111 504/142/116
f 244/143/111 241/102/83 154/101/82
f 502/144/117 158/145/118 246/146/119
f 162/147/120 248/148/121 246/146/119
f 248/149/121 163/150/122 159/140/114
f 495/151/123 250/152/124 165/153/125
f 165/153/125 347/154/126 498/155/127
f 481/156/128 478/157/129 395/158/130
f 395/158/130 450/159/131 168/160/132
f 478/157/129 479/161/133 450/159/131
f 168/160/132 450/159/131 408/162/134
f 494/163/135 164/164/136 250/165/124
f 494/163/135 162/166/120 344/167/137
f 162/147/120 158/145/118 342/168/138
f 344/169/137 342/168/138 156/170/139
f 506/171/140 340/98/79 152/96/78
f 157/94/76 245/172/141 505/173/142
f 505/174/142 503/175/143 152/96/78
f 245/176/141 247/177/144 160/178/145
f 500/179/146 497/180/147 344/167/137
f 477/181/148 464/182/149 456/183/150
f 157/94/76 345/184/151 161/185/152
f 247/186/144 245/172/141 157/94/76
f 347/154/126 460/187/153 499/188/154
f 481/156/128 455/189/155 461/190/156
f 166/191/157 465/192/158 456/183/150
f 465/192/158 167/193/159 408/194/134
f 408/162/134 450/159/131 479/161/133
f 483/195/160 482/196/161 456/183/150
f 345/184/151 157/94/76 343/197/162
f 509/198/163 508/93/75 153/91/73
f 509/198/163 153/91/73 341/90/72
f 511/141/115 159/140/114 343/197/162
f 163/150/122 345/184/151 343/197/162
f 502/144/117 154/101/82 340/98/79
f 339/87/69 337/57/44 150/135/110
f 339/87/69 341/90/72 145/88/70
f 339/87/69 150/135/110 155/138/112
f 337/57/44 339/87/69 56/58/45
f 241/102/83 279/116/95 123/103/84
f 60/199/164 380/200/165 48/201/166
f 48/201/166 170/133/109 174/62/46
f 380/200/165 335/202/167 419/203/168
f 419/203/168 333/132/108 48/201/166
f 405/204/169 117/205/170 333/132/108
f 409/206/171 405/204/169 121/207/172
f 409/206/171 118/208/173 266/209/174
f 266/209/174 117/205/170 405/204/169
f 276/210/105 177/130/104 117/205/170
f 266/209/174 118/208/173 178/211/175
f 178/211/175 118/208/173 305/212/176
f 404/213/177 118/214/173 409/215/171
f 418/216/178 305/217/176 118/214/173
f 379/218/179 418/216/178 307/219/180
f 379/218/179 49/220/181 305/217/176
f 49/221/181 171/222/182 314/223/183
f 45/224/184 309/225/185 303/226/186
f 45/224/184 303/226/186 314/227/183
f 303/226/186 114/124/102 178/228/175
f 114/124/102 264/123/101 276/127/105
f 309/225/185 151/229/187 126/122/100
f 126/122/100 114/124/102 303/226/186
f 151/229/187 242/230/188 230/231/189
f 230/232/189 242/233/188 149/234/190
f 242/233/188 254/235/191 183/236/192
f 184/237/193 151/229/187 313/238/194
f 184/237/193 254/239/191 242/230/188
f 254/239/191 184/237/193 188/240/195
f 317/241/196 184/237/193 313/238/194
f 317/241/196 319/242/197 188/240/195
f 321/243/198 319/242/197 185/244/199
f 321/243/198 192/245/200 188/240/195
f 192/245/200 258/246/201 256/247/202
f 256/248/202 258/249/201 191/250/203
f 191/251/203 258/252/201 260/253/204
f 258/254/201 192/255/200 196/256/205
f 323/257/206 321/258/198 189/259/207
f 323/260/206 196/256/205 192/255/200
f 189/261/207 321/243/198 185/244/199
f 189/261/207 185/244/199 255/262/208
f 255/262/208 185/244/199 181/263/209
f 319/242/197 317/241/196 181/263/209
f 146/264/210 313/238/194 57/265/211
f 181/263/209 317/241/196 313/238/194
f 181/263/209 146/264/210 240/266/212
f 146/264/210 57/265/211 207/267/213
f 57/265/211 175/268/214 252/269/215
f 45/224/184 57/265/211 309/225/185
f 45/224/184 171/270/182 175/268/214
f 171/222/182 49/221/181 61/271/216
f 383/272/217 379/218/179 53/273/218
f 383/272/217 61/274/216 49/220/181
f 383/272/217 397/275/219 95/276/220
f 95/276/220 222/277/221 209/278/222
f 209/279/222 252/280/215 175/281/214
f 209/282/222 62/283/223 176/284/224
f 62/285/223 209/286/222 222/287/221
f 222/287/221 224/288/225 100/289/226
f 512/290/227 103/291/228 519/292/229
f 224/293/225 222/277/221 95/276/220
f 95/276/220 397/275/219 399/294/230
f 397/275/219 97/295/231 101/296/232
f 383/272/217 53/273/218 65/297/233
f 65/297/233 97/295/231 397/275/219
f 65/297/233 328/298/234 211/299/235
f 211/299/235 223/300/236 97/295/231
f 223/300/236 225/301/237 101/296/232
f 514/302/238 225/301/237 521/303/239
f 514/302/238 513/304/240 101/296/232
f 513/304/240 515/305/241 399/294/230
f 401/306/242 103/291/228 512/290/227
f 107/307/243 403/308/244 411/309/245
f 403/308/244 107/307/243 103/291/228
f 519/310/229 517/311/246 224/288/225
f 103/312/228 107/313/243 228/314/247
f 107/313/243 411/315/245 281/316/248
f 107/313/243 281/316/248 294/317/249
f 281/316/248 369/318/250 371/319/251
f 369/318/250 281/316/248 372/320/252
f 281/316/248 411/315/245 429/321/253
f 411/309/245 283/322/254 373/323/255
f 359/324/256 423/325/257 429/326/253
f 423/327/257 357/328/258 372/320/252
f 427/329/259 360/330/260 365/331/261
f 427/332/259 365/333/261 357/328/258
f 365/333/261 362/334/262 356/335/263
f 362/336/262 425/337/264 426/338/265
f 425/337/264 360/330/260 361/339/266
f 362/336/262 365/331/261 360/330/260
f 361/340/266 364/341/267 363/342/268
f 364/341/267 361/340/266 360/343/260
f 364/344/267 427/345/259 423/325/257
f 359/324/256 358/346/269 363/347/268
f 376/348/270 375/349/271 358/346/269
f 359/324/256 373/323/255 376/348/270
f 373/323/255 283/322/254 368/350/272
f 287/351/273 413/352/274 375/349/271
f 375/349/271 376/348/270 368/350/272
f 368/350/272 370/353/275 297/354/276
f 283/322/254 295/355/277 370/353/275
f 370/353/275 295/355/277 282/356/278
f 282/356/278 295/355/277 229/357/279
f 295/355/277 283/322/254 109/358/280
f 109/358/280 283/322/254 411/309/245
f 109/358/280 403/308/244 401/306/242
f 105/359/281 227/360/282 229/357/279
f 227/360/282 106/361/283 110/362/284
f 428/363/285 108/364/286 280/365/287
f 520/366/288 518/367/289 400/368/290
f 98/369/291 396/370/292 398/371/293
f 396/370/292 96/372/294 100/289/226
f 382/373/295 62/285/223 96/372/294
f 382/373/295 378/374/296 50/375/297
f 382/373/295 66/376/298 54/377/299
f 66/376/298 382/373/295 396/370/292
f 98/369/291 223/300/236 211/299/235
f 211/299/235 328/298/234 310/378/300
f 310/378/300 306/379/301 54/377/299
f 310/378/300 127/380/302 120/381/303
f 407/382/304 417/383/305 306/379/301
f 378/374/296 54/377/299 306/379/301
f 417/383/305 304/384/306 50/375/297
f 407/382/304 410/385/89 116/386/92
f 116/386/92 304/384/306 417/383/305
f 304/387/306 116/112/92 180/388/307
f 265/111/91 277/114/93 180/388/307
f 277/389/93 263/115/94 112/390/308
f 112/390/308 302/391/309 315/392/310
f 112/390/308 124/118/97 308/393/311
f 308/393/311 124/118/97 149/234/190
f 312/394/312 149/234/190 183/236/192
f 316/395/313 183/236/192 187/396/314
f 187/396/314 183/236/192 254/235/191
f 187/396/314 191/250/203 320/397/315
f 320/398/315 191/251/203 195/399/316
f 195/399/316 199/400/317 324/401/318
f 195/399/316 260/253/204 467/402/319
f 203/403/320 452/404/321 447/405/322
f 492/406/323 467/407/319 200/408/324
f 489/409/325 453/410/326 447/405/322
f 489/409/325 488/411/327 448/412/328
f 491/413/329 448/412/328 488/411/327
f 193/414/330 323/260/206 189/259/207
f 193/414/330 197/415/331 325/416/332
f 261/417/333 259/418/334 194/419/335
f 261/417/333 197/415/331 193/414/330
f 193/414/330 189/259/207 257/420/336
f 190/421/337 194/419/335 259/418/334
f 194/419/335 190/421/337 320/398/315
f 186/422/338 318/423/339 320/397/315
f 186/422/338 182/424/340 316/395/313
f 147/425/341 312/394/312 316/395/313
f 147/425/341 58/426/342 308/393/311
f 46/427/343 302/391/309 308/393/311
f 46/427/343 172/428/344 315/392/310
f 50/429/297 304/387/306 315/430/310
f 172/431/344 176/284/224 62/283/223
f 46/427/343 58/426/342 176/432/224
f 207/267/213 252/433/215 176/432/224
f 147/425/341 240/266/212 207/267/213
f 182/424/340 253/434/345 240/266/212
f 182/424/340 186/422/338 255/262/208
f 190/435/337 257/436/336 255/262/208
f 198/437/346 261/417/333 194/419/335
f 198/437/346 194/419/335 322/438/347
f 486/181/348 490/439/349 454/440/350
f 485/195/351 446/194/352 454/440/350
f 446/194/352 202/193/353 326/192/354
f 202/441/353 446/442/352 452/404/321
f 485/443/351 199/444/317 467/407/319
f 326/445/354 327/446/355 201/447/356
f 326/445/354 202/441/353 203/403/320
f 467/407/319 260/448/204 196/256/205
f 327/446/355 453/410/326 448/412/328
f 201/447/356 448/412/328 449/449/357
f 449/182/357 454/440/350 326/192/354
f 491/413/329 486/450/348 449/449/357
f 267/451/358 119/452/90 410/385/89
f 267/451/358 410/385/89 407/382/304
f 120/381/303 127/380/302 271/453/359
f 127/380/302 459/454/360 131/455/361
f 131/455/361 273/456/362 271/453/359
f 132/457/363 231/458/364 128/459/365
f 132/460/363 128/461/365 271/453/359
f 271/453/359 128/461/365 119/452/90
f 128/462/365 350/463/366 329/464/367
f 329/464/367 334/76/60 119/110/90
f 329/464/367 63/74/58 51/73/57
f 210/465/368 350/463/366 64/466/369
f 63/74/58 329/464/367 350/463/366
f 213/467/370 69/468/371 63/74/58
f 69/468/371 387/469/372 385/70/54
f 387/469/372 69/468/371 434/470/373
f 69/468/371 213/467/370 437/471/374
f 213/467/370 70/472/375 435/473/376
f 435/473/376 74/474/377 215/475/378
f 73/476/379 434/470/373 437/471/374
f 73/476/379 389/477/380 439/478/381
f 389/477/380 71/479/382 433/480/383
f 391/481/384 75/482/385 71/479/382
f 75/483/385 79/484/386 216/485/387
f 214/486/388 71/479/382 75/482/385
f 214/486/388 438/487/389 433/480/383
f 438/487/389 212/69/53 67/68/52
f 433/480/383 67/68/52 387/469/372
f 436/488/390 68/489/391 212/490/53
f 68/489/391 384/491/392 60/199/164
f 60/199/164 208/64/49 212/490/53
f 60/199/164 384/491/392 380/200/165
f 380/200/165 384/491/392 52/492/393
f 52/492/393 384/491/392 64/466/369
f 384/491/392 68/489/391 386/493/394
f 386/493/394 70/472/375 64/466/369
f 386/493/394 440/494/395 435/473/376
f 386/493/394 68/489/391 436/488/390
f 436/488/390 72/495/396 388/496/397
f 72/495/396 436/488/390 438/497/389
f 80/498/398 442/499/399 76/500/400
f 392/501/401 390/502/402 444/503/403
f 200/408/324 196/256/205 323/260/206
f 76/500/400 442/499/399 444/503/403
f 84/504/404 394/505/405 392/506/401
f 441/507/406 445/508/407 442/509/399
f 80/510/398 392/511/401 443/512/408
f 81/513/409 83/514/410 393/515/411
f 81/513/409 393/515/411 391/516/384
f 79/484/386 393/515/411 83/514/410
f 393/515/411 79/484/386 75/483/385
f 83/514/410 84/504/404 80/498/398
f 394/505/405 84/504/404 88/517/412
f 85/518/413 83/519/410 81/520/409
f 85/518/413 89/521/414 87/522/415
f 87/523/415 88/517/412 84/504/404
f 87/524/415 91/525/416 92/526/417
f 93/527/418 221/528/419 91/529/416
f 91/529/416 87/530/415 89/531/414
f 89/531/414 220/532/420 221/528/419
f 220/533/420 89/521/414 85/518/413
f 85/518/413 81/520/409 218/534/421
f 81/520/409 77/535/422 217/536/423
f 77/537/422 73/476/379 215/475/378
f 391/481/384 389/477/380 73/476/379
f 74/474/377 78/538/424 217/539/423
f 78/540/424 82/541/425 218/534/421
f 82/541/425 86/542/426 219/543/427
f 90/544/428 220/533/420 219/543/427
f 90/545/428 94/546/429 221/528/419
f 92/526/417 91/525/416 221/547/419
f 90/545/428 88/548/412 92/549/417
f 86/542/426 394/550/405 88/551/412
f 86/542/426 82/541/425 392/501/401
f 388/496/397 390/552/402 78/538/424
f 74/474/377 435/473/376 440/494/395
f 70/472/375 213/467/370 210/465/368
f 64/466/369 350/463/366 52/492/393
f 231/553/364 350/463/366 128/462/365
f 231/553/364 121/207/172 335/202/167
f 52/492/393 335/202/167 380/200/165
f 350/463/366 231/553/364 335/202/167
f 121/207/172 405/204/169 419/203/168
f 121/554/172 231/458/364 130/555/430
f 130/555/430 231/458/364 233/556/431
f 233/557/431 140/558/432 236/559/433
f 233/556/431 231/458/364 132/457/363
f 140/560/432 132/460/363 273/456/362
f 131/455/361 137/561/434 275/562/435
f 138/563/436 143/564/437 470/565/438
f 469/42/439 136/566/440 468/41/441
f 470/565/438 143/564/437 136/566/440
f 235/567/442 468/41/441 136/566/440
f 136/566/440 143/564/437 238/568/443
f 135/569/444 468/41/441 235/567/442
f 235/567/442 238/568/443 142/570/445
f 135/571/444 472/572/446 468/573/441
f 135/571/444 142/574/445 471/575/447
f 430/576/448 262/577/449 205/578/450
f 430/576/448 205/578/450 278/579/451
f 140/558/432 275/580/435 278/579/451
f 262/577/449 139/581/452 236/559/433
f 236/559/433 140/558/432 205/578/450
f 236/559/433 139/581/452 134/582/453
f 458/13/454 139/581/452 457/14/455
f 274/583/456 272/584/457 134/585/453
f 274/16/456 134/582/453 139/581/452
f 134/585/453 272/584/457 268/586/458
f 272/584/457 133/587/459 268/586/458
f 268/586/458 133/587/459 129/588/460
f 129/588/460 133/587/459 234/589/461
f 274/583/456 133/587/459 272/584/457
f 234/590/461 232/591/462 129/588/460
f 129/588/460 232/591/462 307/219/180
f 307/219/180 232/591/462 311/592/463
f 311/592/463 232/591/462 328/298/234
f 232/591/462 459/454/360 328/298/234
f 459/454/360 127/380/302 310/378/300
f 459/454/360 232/591/462 131/455/361
f 232/591/462 234/589/461 137/561/434
f 311/592/463 328/298/234 53/273/218
f 53/273/218 328/298/234 65/297/233
f 311/592/463 53/273/218 307/219/180
f 53/273/218 379/218/179 307/219/180
f 307/219/180 122/593/464 129/588/460
f 122/593/464 268/586/458 129/588/460
f 268/586/458 409/215/171 121/554/172
f 122/593/464 404/213/177 409/215/171
f 122/593/464 307/219/180 418/216/178
f 121/554/172 130/555/430 268/586/458
f 130/555/430 134/585/453 268/586/458
f 134/585/453 130/555/430 233/556/431
f 134/582/453 233/557/431 236/559/433
f 139/581/452 204/594/465 457/14/455
f 204/594/465 473/32/466 457/14/455
f 473/32/466 204/594/465 431/595/467
f 262/577/449 430/576/448 432/596/468
f 204/594/465 139/581/452 262/577/449
f 204/594/465 262/577/449 432/596/468
f 431/595/467 432/596/468 237/597/469
f 432/596/468 430/576/448 141/598/470
f 141/598/470 430/576/448 476/599/471
f 141/598/470 475/600/472 471/575/447
f 238/568/443 237/597/469 141/598/470
f 237/597/469 238/568/443 143/564/437
f 431/595/467 138/563/436 474/601/473
f 420/75/59 406/108/88 119/110/90
f 98/369/291 102/602/474 225/301/237
f 518/367/289 516/603/475 104/604/476
f 516/603/475 100/289/226 224/288/225
f 226/605/477 228/314/247 108/364/286
f 228/314/247 294/317/249 280/365/287
f 402/606/478 366/607/479 284/608/480
f 293/609/481 352/610/482 412/611/483
f 280/365/287 294/317/249 371/319/251
f 296/612/484 284/608/480 366/607/479
f 416/613/485 284/608/480 288/614/486
f 414/615/487 288/614/486 351/616/488
f 288/614/486 284/608/480 296/612/484
f 298/617/489 296/612/484 285/618/490
f 296/612/484 371/319/251 369/318/250
f 285/618/490 374/619/491 413/620/274
f 374/619/491 377/621/492 356/335/263
f 374/619/491 285/618/490 369/318/250
f 377/621/492 372/320/252 357/328/258
f 424/622/493 413/620/274 374/619/491
f 424/623/493 358/346/269 375/349/271
f 424/623/493 426/624/265 363/347/268
f 356/335/263 362/334/262 426/625/265
f 363/342/268 426/626/265 425/627/264
f 413/620/274 415/628/494 289/629/495
f 422/630/496 292/631/497 354/632/498
f 354/633/498 289/629/495 415/628/494
f 300/634/499 354/632/498 292/631/497
f 300/635/499 298/617/489 289/629/495
f 300/634/499 293/636/481 351/637/488
f 351/616/488 288/614/486 298/617/489
f 282/356/278 421/638/500 402/606/478
f 421/638/500 280/365/287 366/607/479
f 352/639/482 290/640/501 414/615/487
f 367/641/502 402/606/478 416/613/485
f 110/362/284 428/363/285 421/638/500
f 106/361/283 400/368/290 428/363/285
f 286/642/503 416/613/485 414/615/487
f 351/637/488 293/636/481 412/643/483
f 297/354/276 370/353/275 367/641/502
f 297/354/276 286/642/503 290/640/501
f 299/644/504 290/640/501 352/645/482
f 301/646/505 293/636/481 300/634/499
f 301/647/505 355/648/506 352/649/482
f 353/650/507 292/651/497 422/652/496
f 301/646/505 300/634/499 292/631/497
f 353/650/507 355/648/506 301/647/505
f 291/653/508 299/644/504 355/654/506
f 287/351/273 297/354/276 299/644/504
f 291/653/508 415/655/494 413/352/274
f 415/655/494 291/653/508 353/656/507
f 57/265/211 313/238/194 309/225/185
f 309/225/185 313/238/194 151/229/187
f 72/495/396 214/657/388 216/658/387
f 72/495/396 76/659/400 390/552/402
f 79/484/386 80/498/398 76/500/400
f 390/502/402 392/501/401 82/541/425
f 443/660/408 462/661/509 445/508/407
f 444/662/403 462/661/509 443/660/408
f 444/662/403 442/509/399 445/508/407
f 447/405/322 453/410/326 327/446/355
f 249/663/510 463/664/511 500/179/146
f 477/665/148 463/666/511 249/663/510
f 461/190/156 166/667/157 451/668/512
f 480/669/513 249/663/510 460/187/153
f 499/188/154 496/670/514 247/671/144
f 455/189/155 466/672/515 166/667/157
f 465/673/158 166/667/157 466/672/515
f 465/673/158 466/672/515 168/160/132
f 455/189/155 395/158/130 168/160/132
f 464/674/149 451/668/512 166/667/157
f 400/368/290 104/604/476 108/364/286
f 400/368/290 106/361/283 521/303/239
f 66/376/298 211/299/235 310/378/300
f 267/451/358 120/381/303 271/453/359
f 267/451/358 271/453/359 119/452/90
f 278/675/451 473/676/466 469/677/439
f 451/668/512 480/669/513 484/678/516
f 464/674/149 477/665/148 480/669/513
f 164/679/136 346/680/517 482/196/161
f 483/681/160 479/161/133 250/152/124
f 347/154/126 481/156/128 484/678/516
f 463/682/511 477/181/148 482/196/161
f 165/153/125 250/152/124 479/161/133
f 347/154/126 165/153/125 478/157/129
f 261/417/333 198/683/346 486/450/348
f 446/442/352 485/443/351 492/406/323
f 199/679/317 485/195/351 490/439/349
f 198/682/346 324/680/318 490/439/349
f 491/413/329 488/411/327 197/415/331
f 325/416/332 197/415/331 488/411/327
f 325/416/332 489/409/325 487/684/518
f 452/404/321 492/406/323 487/684/518
f 460/187/153 249/663/510 496/670/514
f 496/670/514 500/179/146 160/685/145
f 498/155/127 499/188/154 161/686/152
f 463/664/511 346/687/517 497/180/147
f 164/164/136 494/163/135 497/180/147
f 162/166/120 494/163/135 495/688/123
f 163/689/122 493/690/519 498/155/127
f 248/691/121 495/151/123 493/690/519
f 68/489/391 60/199/164 212/490/53
f 208/67/49 59/66/51 212/69/53
f 387/469/372 67/68/52 385/70/54
f 275/692/435 458/693/454 457/694/455
f 275/692/435 137/695/434 133/696/459
f 234/697/461 133/696/459 137/695/434
f 458/693/454 275/692/435 274/698/456
f 158/145/118 502/144/117 506/171/140
f 245/176/141 156/170/139 503/175/143
f 506/171/140 503/175/143 156/170/139
f 154/101/82 502/144/117 504/699/116
f 159/140/114 501/139/113 504/142/116
f 341/90/72 511/141/115 510/700/520
f 343/197/162 509/198/163 510/700/520
f 343/197/162 157/94/76 508/93/75
f 153/91/73 508/93/75 507/92/74
f 243/95/77 507/92/74 505/173/142
f 501/139/113 511/141/115 341/90/72
f 515/305/241 512/290/227 99/701/521
f 105/359/281 401/306/242 515/305/241
f 227/360/282 105/359/281 513/304/240
f 104/604/476 516/603/475 517/311/246
f 398/371/293 100/289/226 516/603/475
f 226/605/477 517/311/246 519/310/229
f 99/701/521 512/290/227 519/292/229
f 102/602/474 520/366/288 521/303/239
f 102/602/474 398/371/293 518/367/289
f 514/302/238 521/303/239 106/361/283
f 94/702/429 92/526/417 221/547/419
f 22/703/42 5/1/1 25/3/3
f 5/1/1 14/6/6 10/2/2
f 20/11/11 34/13/13 26/12/12
f 27/21/21 29/22/22 11/9/9
f 29/22/22 27/21/21 15/24/24
f 2/40/35 9/25/25 13/27/27
f 13/27/27 16/26/26 3/29/29
f 16/26/26 15/24/24 8/28/28
f 15/24/24 16/26/26 4/30/30
f 15/24/24 4/30/30 29/22/22
f 1/31/31 19/16/16 6/8/8
f 26/12/12 35/15/15 24/17/17
f 21/33/33 30/20/20 37/32/32
f 24/17/17 30/20/20 17/18/18
f 21/33/33 7/23/23 17/18/18
f 8/28/28 7/23/23 23/34/34
f 41/37/37 40/38/38 2/35/35
f 39/42/39 3/29/29 23/34/34
f 4/30/30 9/39/25 42/43/40
f 4/30/30 42/43/40 28/5/5
f 28/5/5 31/44/41 10/2/2
f 41/704/37 38/705/36 40/47/38
f 39/706/39 23/707/34 37/708/32
f 37/708/32 33/709/14 25/45/3
f 23/707/34 21/710/33 37/708/32
f 40/47/38 38/705/36 39/706/39
f 31/46/41 42/711/40 40/47/38
f 37/708/32 25/45/3 39/706/39
f 40/47/38 39/706/39 25/45/3
f 34/51/13 22/48/42 33/50/14
f 5/55/1 22/48/42 19/52/16
f 19/52/16 1/53/31 5/55/1
f 170/134/109 44/56/43 174/59/46
f 174/59/46 56/58/45 251/61/48
f 60/199/164 174/62/46 208/64/49
f 251/712/48 173/65/50 208/67/49
f 385/70/54 59/66/51 381/72/56
f 385/70/54 381/72/56 63/74/58
f 51/73/57 381/72/56 334/76/60
f 332/77/61 420/75/59 47/71/55
f 349/107/66 332/77/61 169/78/62
f 169/78/62 47/71/55 173/65/50
f 169/713/62 173/79/50 43/81/64
f 169/713/62 43/81/64 349/83/66
f 330/82/65 43/81/64 336/84/67
f 338/99/80 336/84/67 144/85/68
f 239/97/71 144/85/68 206/86/47
f 251/714/48 206/86/47 173/79/50
f 56/58/45 145/88/70 206/60/47
f 145/88/70 153/91/73 239/89/71
f 243/715/77 152/96/78 239/97/71
f 152/96/78 340/98/79 144/85/68
f 340/98/79 154/101/82 338/99/80
f 338/99/80 148/100/81 336/84/67
f 123/103/84 111/104/85 336/84/67
f 330/82/65 111/104/85 349/83/66
f 179/113/86 115/106/87 349/107/66
f 420/75/59 332/77/61 406/108/88
f 410/109/89 406/108/88 265/111/91
f 265/111/91 115/106/87 277/114/93
f 277/389/93 179/105/86 263/115/94
f 269/117/96 263/115/94 123/103/84
f 112/390/308 263/115/94 124/118/97
f 230/232/189 124/118/97 279/116/95
f 230/231/189 279/120/95 126/122/100
f 126/122/100 270/119/98 114/124/102
f 270/119/98 125/121/99 264/123/101
f 264/123/101 113/125/103 276/127/105
f 113/125/103 331/128/106 177/126/104
f 117/205/170 177/130/104 333/132/108
f 48/201/166 333/132/108 170/133/109
f 348/129/107 331/128/106 170/134/109
f 125/121/99 337/57/44 113/125/103
f 501/139/113 155/138/112 504/142/116
f 504/699/116 502/144/117 246/146/119
f 158/145/118 162/147/120 246/146/119
f 246/716/119 248/149/121 159/140/114
f 493/690/519 495/151/123 165/153/125
f 493/690/519 165/153/125 498/155/127
f 455/189/155 481/156/128 395/158/130
f 395/158/130 478/157/129 450/159/131
f 167/717/159 168/160/132 408/162/134
f 495/688/123 494/163/135 250/165/124
f 497/180/147 494/163/135 344/167/137
f 344/169/137 162/147/120 342/168/138
f 160/178/145 344/169/137 156/170/139
f 503/175/143 506/171/140 152/96/78
f 507/92/74 157/94/76 505/173/142
f 243/715/77 505/174/142 152/96/78
f 156/170/139 245/176/141 160/178/145
f 160/685/145 500/179/146 344/167/137
f 482/196/161 477/181/148 456/183/150
f 161/185/152 247/186/144 157/94/76
f 498/155/127 347/154/126 499/188/154
f 484/678/516 481/156/128 461/190/156
f 464/182/149 166/191/157 456/183/150
f 456/183/150 465/192/158 408/194/134
f 483/681/160 408/162/134 479/161/133
f 408/194/134 483/195/160 456/183/150
f 510/700/520 509/198/163 341/90/72
f 510/700/520 511/141/115 343/197/162
f 159/140/114 163/150/122 343/197/162
f 506/171/140 502/144/117 340/98/79
f 341/90/72 339/87/69 155/138/112
f 148/100/81 241/102/83 123/103/84
f 60/199/164 48/201/166 174/62/46
f 380/200/165 419/203/168 48/201/166
f 419/203/168 405/204/169 333/132/108
f 409/206/171 266/209/174 405/204/169
f 266/209/174 276/210/105 117/205/170
f 276/210/105 266/209/174 178/211/175
f 314/223/183 178/211/175 305/212/176
f 404/213/177 418/216/178 118/214/173
f 418/216/178 379/218/179 305/217/176
f 305/212/176 49/221/181 314/223/183
f 171/270/182 45/224/184 314/227/183
f 314/227/183 303/226/186 178/228/175
f 178/228/175 114/124/102 276/127/105
f 309/225/185 126/122/100 303/226/186
f 126/122/100 151/229/187 230/231/189
f 124/118/97 230/232/189 149/234/190
f 149/234/190 242/233/188 183/236/192
f 151/229/187 184/237/193 242/230/188
f 256/247/202 254/239/191 188/240/195
f 184/237/193 317/241/196 188/240/195
f 319/242/197 321/243/198 188/240/195
f 188/240/195 192/245/200 256/247/202
f 187/396/314 256/248/202 191/250/203
f 195/399/316 191/251/203 260/253/204
f 260/448/204 258/254/201 196/256/205
f 321/718/198 323/260/206 192/255/200
f 257/719/336 189/261/207 255/262/208
f 253/434/345 255/262/208 181/263/209
f 185/244/199 319/242/197 181/263/209
f 146/264/210 181/263/209 313/238/194
f 253/434/345 181/263/209 240/266/212
f 240/266/212 146/264/210 207/267/213
f 207/267/213 57/265/211 252/269/215
f 57/265/211 45/224/184 175/268/214
f 175/281/214 171/222/182 61/271/216
f 379/218/179 383/272/217 49/220/181
f 61/274/216 383/272/217 95/276/220
f 61/274/216 95/276/220 209/278/222
f 61/271/216 209/279/222 175/281/214
f 252/720/215 209/282/222 176/284/224
f 96/372/294 62/285/223 222/287/221
f 96/372/294 222/287/221 100/289/226
f 99/701/521 224/293/225 95/276/220
f 99/701/521 95/276/220 399/294/230
f 399/294/230 397/275/219 101/296/232
f 383/272/217 65/297/233 397/275/219
f 65/297/233 211/299/235 97/295/231
f 97/295/231 223/300/236 101/296/232
f 225/301/237 514/302/238 101/296/232
f 101/296/232 513/304/240 399/294/230
f 515/305/241 401/306/242 512/290/227
f 401/306/242 403/308/244 103/291/228
f 226/605/477 103/312/228 228/314/247
f 228/314/247 107/313/243 294/317/249
f 294/317/249 281/316/248 371/319/251
f 377/621/492 369/318/250 372/320/252
f 372/320/252 281/316/248 429/321/253
f 429/326/253 411/309/245 373/323/255
f 373/323/255 359/324/256 429/326/253
f 429/321/253 423/327/257 372/320/252
f 423/327/257 427/332/259 357/328/258
f 357/328/258 365/333/261 356/335/263
f 425/337/264 362/336/262 360/330/260
f 427/721/259 364/341/267 360/343/260
f 359/324/256 364/344/267 423/325/257
f 364/344/267 359/324/256 363/347/268
f 358/346/269 359/324/256 376/348/270
f 376/348/270 373/323/255 368/350/272
f 287/351/273 375/349/271 368/350/272
f 287/351/273 368/350/272 297/354/276
f 368/350/272 283/322/254 370/353/275
f 367/641/502 370/353/275 282/356/278
f 110/362/284 282/356/278 229/357/279
f 229/357/279 295/355/277 109/358/280
f 403/308/244 109/358/280 411/309/245
f 105/359/281 109/358/280 401/306/242
f 109/358/280 105/359/281 229/357/279
f 229/357/279 227/360/282 110/362/284
f 421/638/500 428/363/285 280/365/287
f 102/602/474 98/369/291 398/371/293
f 398/371/293 396/370/292 100/289/226
f 396/370/292 382/373/295 96/372/294
f 62/285/223 382/373/295 50/375/297
f 378/374/296 382/373/295 54/377/299
f 98/369/291 66/376/298 396/370/292
f 66/376/298 98/369/291 211/299/235
f 66/376/298 310/378/300 54/377/299
f 306/379/301 310/378/300 120/381/303
f 120/381/303 407/382/304 306/379/301
f 417/383/305 378/374/296 306/379/301
f 378/374/296 417/383/305 50/375/297
f 407/382/304 116/386/92 417/383/305
f 315/430/310 304/387/306 180/388/307
f 116/112/92 265/111/91 180/388/307
f 180/722/307 277/389/93 112/390/308
f 180/722/307 112/390/308 315/392/310
f 302/391/309 112/390/308 308/393/311
f 312/394/312 308/393/311 149/234/190
f 316/395/313 312/394/312 183/236/192
f 318/423/339 316/395/313 187/396/314
f 256/248/202 187/396/314 254/235/191
f 318/423/339 187/396/314 320/397/315
f 322/438/347 320/398/315 195/399/316
f 322/438/347 195/399/316 324/401/318
f 199/400/317 195/399/316 467/402/319
f 487/684/518 492/406/323 200/408/324
f 487/684/518 489/409/325 447/405/322
f 453/410/326 489/409/325 448/412/328
f 323/260/206 193/414/330 325/416/332
f 259/418/334 261/417/333 193/414/330
f 259/418/334 193/414/330 257/420/336
f 257/420/336 190/421/337 259/418/334
f 322/438/347 194/419/335 320/398/315
f 190/435/337 186/422/338 320/397/315
f 318/423/339 186/422/338 316/395/313
f 182/424/340 147/425/341 316/395/313
f 312/394/312 147/425/341 308/393/311
f 58/426/342 46/427/343 308/393/311
f 302/391/309 46/427/343 315/392/310
f 172/431/344 50/429/297 315/430/310
f 50/429/297 172/431/344 62/283/223
f 172/428/344 46/427/343 176/432/224
f 58/426/342 207/267/213 176/432/224
f 58/426/342 147/425/341 207/267/213
f 147/425/341 182/424/340 240/266/212
f 253/434/345 182/424/340 255/262/208
f 186/422/338 190/435/337 255/262/208
f 324/401/318 198/437/346 322/438/347
f 449/182/357 486/181/348 454/440/350
f 490/439/349 485/195/351 454/440/350
f 454/440/350 446/194/352 326/192/354
f 203/403/320 202/441/353 452/404/321
f 492/406/323 485/443/351 467/407/319
f 327/446/355 326/445/354 203/403/320
f 200/408/324 467/407/319 196/256/205
f 201/447/356 327/446/355 448/412/328
f 201/191/356 449/182/357 326/192/354
f 448/412/328 491/413/329 449/449/357
f 120/381/303 267/451/358 407/382/304
f 127/380/302 131/455/361 271/453/359
f 273/456/362 132/460/363 271/453/359
f 128/462/365 329/464/367 119/110/90
f 334/76/60 329/464/367 51/73/57
f 210/465/368 63/74/58 350/463/366
f 210/465/368 213/467/370 63/74/58
f 63/74/58 69/468/371 385/70/54
f 439/478/381 387/469/372 434/470/373
f 434/470/373 69/468/371 437/471/374
f 437/471/374 213/467/370 435/473/376
f 437/471/374 435/473/376 215/475/378
f 215/475/378 73/476/379 437/471/374
f 434/470/373 73/476/379 439/478/381
f 439/478/381 389/477/380 433/480/383
f 389/477/380 391/481/384 71/479/382
f 216/723/387 214/486/388 75/482/385
f 71/479/382 214/486/388 433/480/383
f 433/480/383 438/487/389 67/68/52
f 439/478/381 433/480/383 387/469/372
f 438/497/389 436/488/390 212/490/53
f 384/491/392 386/493/394 64/466/369
f 70/472/375 386/493/394 435/473/376
f 440/494/395 386/493/394 436/488/390
f 440/494/395 436/488/390 388/496/397
f 214/657/388 72/495/396 438/497/389
f 325/416/332 200/408/324 323/260/206
f 390/502/402 76/500/400 444/503/403
f 80/498/398 84/504/404 392/506/401
f 80/510/398 441/507/406 442/509/399
f 441/507/406 80/510/398 443/512/408
f 77/724/422 81/513/409 391/516/384
f 391/516/384 393/515/411 75/483/385
f 79/484/386 83/514/410 80/498/398
f 83/519/410 85/518/413 87/522/415
f 83/514/410 87/523/415 84/504/404
f 88/725/412 87/524/415 92/526/417
f 93/527/418 91/529/416 89/531/414
f 93/527/418 89/531/414 221/528/419
f 219/543/427 220/533/420 85/518/413
f 219/543/427 85/518/413 218/534/421
f 218/534/421 81/520/409 217/536/423
f 217/539/423 77/537/422 215/475/378
f 77/537/422 391/481/384 73/476/379
f 215/475/378 74/474/377 217/539/423
f 217/536/423 78/540/424 218/534/421
f 218/534/421 82/541/425 219/543/427
f 86/542/426 90/544/428 219/543/427
f 220/532/420 90/545/428 221/528/419
f 94/546/429 90/545/428 92/549/417
f 90/544/428 86/542/426 88/551/412
f 394/550/405 86/542/426 392/501/401
f 74/474/377 388/496/397 78/538/424
f 388/496/397 74/474/377 440/494/395
f 64/466/369 70/472/375 210/465/368
f 52/492/393 350/463/366 335/202/167
f 335/202/167 121/207/172 419/203/168
f 140/726/432 233/556/431 132/457/363
f 275/562/435 140/560/432 273/456/362
f 273/456/362 131/455/361 275/562/435
f 474/601/473 138/563/436 470/565/438
f 469/42/439 470/565/438 136/566/440
f 235/567/442 136/566/440 238/568/443
f 135/569/444 235/567/442 142/570/445
f 472/572/446 135/571/444 471/575/447
f 476/599/471 430/576/448 278/579/451
f 205/578/450 140/558/432 278/579/451
f 262/577/449 236/559/433 205/578/450
f 458/13/454 274/16/456 139/581/452
f 328/298/234 459/454/360 310/378/300
f 131/455/361 232/591/462 137/561/434
f 268/586/458 122/593/464 409/215/171
f 404/213/177 122/593/464 418/216/178
f 431/595/467 204/594/465 432/596/468
f 138/563/436 431/595/467 237/597/469
f 237/597/469 432/596/468 141/598/470
f 475/600/472 141/598/470 476/599/471
f 142/574/445 141/598/470 471/575/447
f 142/570/445 238/568/443 141/598/470
f 138/563/436 237/597/469 143/564/437
f 473/32/466 431/595/467 474/601/473
f 334/76/60 420/75/59 119/110/90
f 223/300/236 98/369/291 225/301/237
f 400/368/290 518/367/289 104/604/476
f 517/311/246 516/603/475 224/288/225
f 104/604/476 226/605/477 108/364/286
f 108/364/286 228/314/247 280/365/287
f 416/613/485 402/606/478 284/608/480
f 366/607/479 280/365/287 371/319/251
f 371/319/251 296/612/484 366/607/479
f 414/615/487 416/613/485 288/614/486
f 412/727/483 414/615/487 351/616/488
f 298/617/489 288/614/486 296/612/484
f 289/629/495 298/617/489 285/618/490
f 285/618/490 296/612/484 369/318/250
f 377/621/492 374/619/491 369/318/250
f 356/335/263 377/621/492 357/328/258
f 356/335/263 424/622/493 374/619/491
f 413/352/274 424/623/493 375/349/271
f 358/346/269 424/623/493 363/347/268
f 424/622/493 356/335/263 426/625/265
f 361/340/266 363/342/268 425/627/264
f 285/618/490 413/620/274 289/629/495
f 422/728/496 354/633/498 415/628/494
f 354/633/498 300/635/499 289/629/495
f 300/635/499 351/616/488 298/617/489
f 367/641/502 282/356/278 402/606/478
f 402/606/478 421/638/500 366/607/479
f 412/727/483 352/639/482 414/615/487
f 286/642/503 367/641/502 416/613/485
f 282/356/278 110/362/284 421/638/500
f 110/362/284 106/361/283 428/363/285
f 290/640/501 286/642/503 414/615/487
f 286/642/503 297/354/276 367/641/502
f 299/644/504 297/354/276 290/640/501
f 355/654/506 299/644/504 352/645/482
f 293/729/481 301/647/505 352/649/482
f 292/651/497 353/650/507 301/647/505
f 353/656/507 291/653/508 355/654/506
f 291/653/508 287/351/273 299/644/504
f 287/351/273 291/653/508 413/352/274
f 422/730/496 415/655/494 353/656/507
f 76/659/400 72/495/396 216/658/387
f 388/496/397 72/495/396 390/552/402
f 216/485/387 79/484/386 76/500/400
f 78/540/424 390/502/402 82/541/425
f 441/731/406 443/660/408 445/508/407
f 392/732/401 444/662/403 443/660/408
f 462/661/509 444/662/403 445/508/407
f 203/403/320 447/405/322 327/446/355
f 496/670/514 249/663/510 500/179/146
f 480/669/513 477/665/148 249/663/510
f 484/678/516 480/669/513 460/187/153
f 161/686/152 499/188/154 247/671/144
f 461/190/156 455/189/155 166/667/157
f 167/717/159 465/673/158 168/160/132
f 466/672/515 455/189/155 168/160/132
f 428/363/285 400/368/290 108/364/286
f 520/366/288 400/368/290 521/303/239
f 469/677/439 468/733/441 471/734/447
f 471/734/447 475/735/472 476/736/471
f 468/733/441 472/737/446 471/734/447
f 474/738/473 470/739/438 473/676/466
f 278/675/451 457/740/455 473/676/466
f 473/676/466 470/739/438 469/677/439
f 469/677/439 471/734/447 278/675/451
f 476/736/471 278/675/451 471/734/447
f 461/190/156 451/668/512 484/678/516
f 451/668/512 464/674/149 480/669/513
f 483/195/160 164/679/136 482/196/161
f 164/741/136 483/681/160 250/152/124
f 460/187/153 347/154/126 484/678/516
f 346/680/517 463/682/511 482/196/161
f 478/157/129 165/153/125 479/161/133
f 481/156/128 347/154/126 478/157/129
f 491/413/329 261/417/333 486/450/348
f 452/404/321 446/442/352 492/406/323
f 324/680/318 199/679/317 490/439/349
f 486/181/348 198/682/346 490/439/349
f 261/417/333 491/413/329 197/415/331
f 489/409/325 325/416/332 488/411/327
f 200/408/324 325/416/332 487/684/518
f 447/405/322 452/404/321 487/684/518
f 499/188/154 460/187/153 496/670/514
f 247/671/144 496/670/514 160/685/145
f 345/742/151 498/155/127 161/686/152
f 500/179/146 463/664/511 497/180/147
f 346/687/517 164/164/136 497/180/147
f 248/743/121 162/166/120 495/688/123
f 345/742/151 163/689/122 498/155/127
f 163/689/122 248/691/121 493/690/519
f 278/744/451 275/692/435 457/694/455
f 274/698/456 275/692/435 133/696/459
f 342/168/138 158/145/118 506/171/140
f 505/174/142 245/176/141 503/175/143
f 342/168/138 506/171/140 156/170/139
f 244/143/111 154/101/82 504/699/116
f 246/716/119 159/140/114 504/142/116
f 509/198/163 343/197/162 508/93/75
f 243/95/77 153/91/73 507/92/74
f 155/138/112 501/139/113 341/90/72
f 399/294/230 515/305/241 99/701/521
f 513/304/240 105/359/281 515/305/241
f 514/302/238 227/360/282 513/304/240
f 226/605/477 104/604/476 517/311/246
f 518/367/289 398/371/293 516/603/475
f 103/312/228 226/605/477 519/310/229
f 224/293/225 99/701/521 519/292/229
f 225/301/237 102/602/474 521/303/239
f 520/366/288 102/602/474 518/367/289
f 227/360/282 514/302/238 106/361/283
