# Blender v2.76 (sub 0) OBJ File: 'npc_zerogmut.blend'
# www.blender.org
v -0.060044 -0.172869 0.006006
v 0.126255 -0.129663 0.027701
v -0.000369 -0.080926 0.164214
v -0.163594 -0.027228 0.077500
v -0.137845 -0.042781 -0.112606
v 0.041290 -0.106089 -0.143381
v 0.137845 0.042681 0.112606
v -0.041290 0.105989 0.143381
v -0.126255 0.129564 -0.027701
v 0.000369 0.080826 -0.164214
v 0.163594 0.027129 -0.077500
v 0.060044 0.172770 -0.006006
vt 0.386864 0.162439
vt 0.420370 0.171564
vt 0.404543 0.178763
vt 0.457854 0.162439
vt 0.437234 0.176672
vt 0.391864 0.186615
vt 0.379156 0.185491
vt 0.450146 0.185491
vt 0.427359 0.193267
vt 0.414651 0.194392
vt 0.401739 0.203211
vt 0.384875 0.208318
vt 0.440037 0.201119
vt 0.455865 0.208318
vt 0.422359 0.217443
vn 0.150900 -0.878400 0.453600
vn 0.246400 -0.936000 -0.251300
vn -0.513300 -0.643600 0.567700
vn -0.828400 -0.556200 -0.066700
vn -0.358900 -0.736900 -0.572900
vn 0.758800 -0.477700 -0.442700
vn 0.604400 -0.384400 0.697800
vn -0.470300 -0.004600 0.882500
vn -0.980100 0.136800 -0.143900
vn -0.220400 -0.155600 -0.962900
vn 0.980100 -0.136800 0.143900
vn 0.220400 0.155600 0.962900
vn -0.758800 0.477700 0.442700
vn -0.604400 0.384400 -0.697800
vn 0.470300 0.004600 -0.882500
vn 0.828400 0.556200 0.066700
vn 0.358900 0.736900 0.572900
vn -0.246400 0.936000 0.251300
vn -0.150900 0.878400 -0.453600
vn 0.513300 0.643600 -0.567700
s off
f 1/1/1 2/2/1 3/3/1
f 2/2/2 1/4/2 6/5/2
f 1/1/3 3/3/3 4/6/3
f 1/1/4 4/6/4 5/7/4
f 1/4/5 5/8/5 6/5/5
f 2/2/6 6/5/6 11/9/6
f 3/3/7 2/2/7 7/10/7
f 4/6/8 3/3/8 8/11/8
f 5/7/9 4/6/9 9/12/9
f 6/5/10 5/8/10 10/13/10
f 2/2/11 11/9/11 7/10/11
f 3/3/12 7/10/12 8/11/12
f 4/6/13 8/11/13 9/12/13
f 5/8/14 9/14/14 10/13/14
f 6/5/15 10/13/15 11/9/15
f 7/10/16 11/9/16 12/15/16
f 8/11/17 7/10/17 12/15/17
f 9/14/18 8/11/18 12/15/18
f 10/13/19 9/14/19 12/15/19
f 11/9/20 10/13/20 12/15/20
v -0.110941 -0.217147 0.117123
v 0.170500 -0.192118 0.084824
v 0.032752 -0.023182 0.267483
v -0.218826 0.043549 0.152876
v -0.236557 -0.084148 -0.100616
v 0.004059 -0.229796 -0.142672
v 0.236557 0.084048 0.100616
v -0.004059 0.229697 0.142672
v -0.170500 0.192018 -0.084824
v -0.032752 0.023083 -0.267483
v 0.218826 -0.043649 -0.152876
v 0.110941 0.217047 -0.117123
vt 0.436894 0.681291
vt 0.490014 0.689372
vt 0.461930 0.729426
vt 0.615623 0.681291
vt 0.547019 0.676559
vt 0.431128 0.743508
vt 0.402342 0.716310
vt 0.581071 0.716310
vt 0.520492 0.725087
vt 0.491707 0.752285
vt 0.457655 0.792036
vt 0.400650 0.779223
vt 0.551294 0.739169
vt 0.372565 0.739169
vt 0.526258 0.787304
vt 0.579379 0.779223
vn 0.143200 -0.670400 0.728000
vn 0.098700 -0.990900 0.091900
vn -0.460600 -0.304900 0.833600
vn -0.878300 -0.399500 0.262700
vn -0.532600 -0.823400 -0.195700
vn 0.610100 -0.721800 -0.326800
vn 0.682100 -0.203300 0.702400
vn -0.294900 0.388100 0.873200
vn -0.970700 0.235100 -0.050500
vn -0.411400 -0.450900 -0.792200
vn 0.970700 -0.235100 0.050500
vn 0.411400 0.450900 0.792200
vn -0.610100 0.721800 0.326800
vn -0.682100 0.203300 -0.702400
vn 0.294900 -0.388100 -0.873200
vn 0.878300 0.399500 -0.262700
vn 0.532600 0.823400 0.195700
vn -0.098700 0.990900 -0.091900
vn -0.143200 0.670400 -0.728000
vn 0.460600 0.304900 -0.833600
s off
f 13/16/21 14/17/21 15/18/21
f 14/17/22 13/19/22 18/20/22
f 13/16/23 15/18/23 16/21/23
f 13/16/24 16/21/24 17/22/24
f 13/19/25 17/23/25 18/20/25
f 14/17/26 18/20/26 23/24/26
f 15/18/27 14/17/27 19/25/27
f 16/21/28 15/18/28 20/26/28
f 17/22/29 16/21/29 21/27/29
f 18/20/30 17/23/30 22/28/30
f 14/17/31 23/24/31 19/25/31
f 15/18/32 19/25/32 20/26/32
f 16/21/33 20/26/33 21/27/33
f 17/22/34 21/27/34 22/29/34
f 18/20/35 22/28/35 23/24/35
f 19/25/36 23/24/36 24/30/36
f 20/26/37 19/25/37 24/30/37
f 21/31/38 20/26/38 24/30/38
f 22/28/39 21/31/39 24/30/39
f 23/24/40 22/28/40 24/30/40
v 0.000000 -0.190469 0.000000
v 0.137800 -0.085198 0.100117
v -0.052634 -0.085198 0.161993
v -0.170332 -0.085198 0.000000
v -0.052634 -0.085198 -0.161993
v 0.137800 -0.085198 -0.100117
v 0.052634 0.085135 0.161993
v -0.137800 0.085135 0.100117
v -0.137800 0.085135 -0.100117
v 0.052634 0.085135 -0.161993
v 0.170332 0.085135 0.000000
v 0.000000 0.190406 0.000000
vt 0.905377 0.256761
vt 0.937766 0.280058
vt 0.922307 0.282019
vt 0.877436 0.280458
vt 0.907458 0.283568
vt 0.892691 0.282639
vt 0.861617 0.280058
vt 0.869384 0.302369
vt 0.846158 0.282019
vt 0.854616 0.303299
vt 0.831309 0.283568
vt 0.839362 0.305479
vt 0.899691 0.305880
vt 0.884233 0.303919
vt 0.915511 0.305479
vt 0.867302 0.329177
vn 0.187600 -0.794700 0.577400
vn 0.607100 -0.794700 0.000000
vn -0.491100 -0.794700 0.356800
vn -0.491100 -0.794700 -0.356800
vn 0.187600 -0.794700 -0.577400
vn 0.982200 -0.187600 0.000000
vn 0.303500 -0.187600 0.934200
vn -0.794600 -0.187600 0.577400
vn -0.794600 -0.187600 -0.577400
vn 0.303500 -0.187600 -0.934200
vn 0.794600 0.187600 0.577400
vn -0.303500 0.187600 0.934200
vn -0.982200 0.187600 0.000000
vn -0.303500 0.187600 -0.934200
vn 0.794600 0.187600 -0.577400
vn 0.491100 0.794700 0.356800
vn -0.187600 0.794700 0.577400
vn -0.607100 0.794700 0.000000
vn -0.187600 0.794700 -0.577400
vn 0.491100 0.794700 -0.356800
s off
f 25/32/41 26/33/41 27/34/41
f 26/33/42 25/32/42 30/35/42
f 25/32/43 27/34/43 28/36/43
f 25/32/44 28/36/44 29/37/44
f 25/32/45 29/37/45 30/35/45
f 26/38/46 30/35/46 35/39/46
f 27/40/47 26/38/47 31/41/47
f 28/42/48 27/40/48 32/43/48
f 29/37/49 28/36/49 33/44/49
f 30/35/50 29/37/50 34/45/50
f 26/38/51 35/39/51 31/41/51
f 27/40/52 31/41/52 32/43/52
f 28/36/53 32/46/53 33/44/53
f 29/37/54 33/44/54 34/45/54
f 30/35/55 34/45/55 35/39/55
f 31/41/56 35/39/56 36/47/56
f 32/43/57 31/41/57 36/47/57
f 33/44/58 32/46/58 36/47/58
f 34/45/59 33/44/59 36/47/59
f 35/39/60 34/45/60 36/47/60
v 0.044516 -0.000236 -0.155209
v -0.061726 -0.116970 -0.092685
v -0.112105 0.044494 -0.107328
v 0.019954 0.144287 -0.069572
v 0.151949 0.044494 -0.031595
v 0.101468 -0.116970 -0.045880
v -0.151949 -0.044594 0.031595
v -0.101468 0.116871 0.045880
v 0.061726 0.116871 0.092685
v 0.112105 -0.044594 0.107328
v -0.019954 -0.144387 0.069572
v -0.044516 0.000136 0.155209
vt 0.628894 0.500204
vt 0.641274 0.475735
vt 0.644957 0.507635
vt 0.615973 0.476930
vt 0.629693 0.532761
vt 0.612931 0.509033
vt 0.675913 0.467239
vt 0.659152 0.490967
vt 0.662194 0.523070
vt 0.595053 0.524265
vt 0.598736 0.492365
vt 0.583472 0.467239
vt 0.566711 0.490967
vt 0.582673 0.499796
vt 0.569753 0.523070
vn -0.336000 -0.188500 -0.922800
vn 0.218900 -0.608000 -0.763200
vn -0.123800 0.490200 -0.862800
vn 0.562200 0.490200 -0.666000
vn 0.774000 -0.188500 -0.604500
vn 0.051400 -0.982500 -0.179200
vn -0.846300 -0.303800 -0.437500
vn -0.503000 0.794400 -0.340400
vn 0.607000 0.794400 -0.022000
vn 0.949600 -0.303800 0.077600
vn -0.607000 -0.794400 0.022000
vn -0.949600 0.303800 -0.077600
vn -0.051400 0.982500 0.179200
vn 0.846300 0.303800 0.437500
vn 0.503000 -0.794400 0.340400
vn -0.562200 -0.490200 0.666000
vn -0.774000 0.188500 0.604500
vn -0.218900 0.608000 0.763200
vn 0.336000 0.188500 0.922800
vn 0.123800 -0.490200 0.862800
s off
f 37/48/61 38/49/61 39/50/61
f 38/49/62 37/48/62 42/51/62
f 37/48/63 39/50/63 40/52/63
f 37/48/64 40/52/64 41/53/64
f 37/48/65 41/53/65 42/51/65
f 38/49/66 42/51/66 47/54/66
f 39/50/67 38/49/67 43/55/67
f 40/52/68 39/50/68 44/56/68
f 41/53/69 40/52/69 45/57/69
f 42/51/70 41/53/70 46/58/70
f 38/49/71 47/54/71 43/55/71
f 39/50/72 43/55/72 44/56/72
f 40/52/73 44/56/73 45/57/73
f 41/53/74 45/57/74 46/58/74
f 42/51/75 46/58/75 47/59/75
f 43/60/76 47/59/76 48/61/76
f 44/62/77 43/60/77 48/61/77
f 45/57/78 44/62/78 48/61/78
f 46/58/79 45/57/79 48/61/79
f 47/59/80 46/58/80 48/61/80
v 0.000000 -0.248426 0.000000
v 0.179738 -0.111117 0.130586
v -0.068653 -0.111117 0.211294
v -0.222170 -0.111117 0.000000
v -0.068653 -0.111117 -0.211294
v 0.179738 -0.111117 -0.130586
v 0.068653 0.111054 0.211294
v -0.179738 0.111054 0.130586
v -0.179738 0.111054 -0.130586
v 0.068653 0.111054 -0.211294
v 0.222170 0.111054 0.000000
v 0.000000 0.248363 0.000000
vt 0.359891 0.282727
vt 0.327086 0.313203
vt 0.401136 0.312724
vt 0.345696 0.314910
vt 0.382287 0.314155
vt 0.363934 0.315483
vt 0.335735 0.341499
vt 0.308033 0.312724
vt 0.317383 0.340170
vt 0.289183 0.314155
vt 0.299144 0.340744
vt 0.270831 0.315483
vt 0.280534 0.342450
vt 0.354584 0.342930
vt 0.373637 0.342450
vt 0.313339 0.372926
vn 0.187600 -0.794700 0.577400
vn 0.607100 -0.794700 0.000000
vn -0.491100 -0.794700 0.356800
vn -0.491100 -0.794700 -0.356800
vn 0.187600 -0.794700 -0.577400
vn 0.982200 -0.187600 0.000000
vn 0.303500 -0.187600 0.934200
vn -0.794600 -0.187600 0.577400
vn -0.794600 -0.187600 -0.577400
vn 0.303500 -0.187600 -0.934200
vn 0.794600 0.187600 0.577400
vn -0.303500 0.187600 0.934200
vn -0.982200 0.187600 0.000000
vn -0.303500 0.187600 -0.934200
vn 0.794600 0.187600 -0.577400
vn 0.491100 0.794700 0.356800
vn -0.187600 0.794700 0.577400
vn -0.607100 0.794700 0.000000
vn -0.187600 0.794700 -0.577400
vn 0.491100 0.794700 -0.356800
s off
f 49/63/81 50/64/81 51/65/81
f 50/64/82 49/63/82 54/66/82
f 49/63/83 51/65/83 52/67/83
f 49/63/84 52/67/84 53/68/84
f 49/63/85 53/68/85 54/66/85
f 50/64/86 54/66/86 59/69/86
f 51/70/87 50/64/87 55/71/87
f 52/72/88 51/70/88 56/73/88
f 53/74/89 52/72/89 57/75/89
f 54/66/90 53/68/90 58/76/90
f 50/64/91 59/69/91 55/71/91
f 51/70/92 55/71/92 56/73/92
f 52/72/93 56/73/93 57/75/93
f 53/68/94 57/77/94 58/76/94
f 54/66/95 58/76/95 59/69/95
f 55/71/96 59/69/96 60/78/96
f 56/73/97 55/71/97 60/78/97
f 57/75/98 56/73/98 60/78/98
f 58/76/99 57/77/99 60/78/99
f 59/69/100 58/76/100 60/78/100
v 0.000000 -0.130050 0.000000
v 0.094068 -0.058188 0.068344
v -0.035930 -0.058188 0.110583
v -0.116275 -0.058188 0.000000
v -0.035930 -0.058188 -0.110583
v 0.094068 -0.058188 -0.068344
v 0.035930 0.058088 0.110583
v -0.094068 0.058088 0.068344
v -0.094068 0.058088 -0.068344
v 0.035930 0.058088 -0.110583
v 0.116275 0.058088 0.000000
v 0.000000 0.129950 0.000000
vt 0.269486 0.323805
vt 0.288781 0.344408
vt 0.274896 0.349079
vt 0.304396 0.340507
vt 0.261308 0.348442
vt 0.247203 0.343279
vt 0.215595 0.344408
vt 0.231210 0.340507
vt 0.224715 0.363221
vt 0.201711 0.349079
vt 0.210610 0.368384
vt 0.267803 0.371157
vt 0.252188 0.367255
vt 0.238304 0.362585
vt 0.283795 0.368384
vt 0.232893 0.387859
vn 0.187600 -0.794700 0.577400
vn 0.607100 -0.794700 0.000000
vn -0.491100 -0.794700 0.356800
vn -0.491100 -0.794700 -0.356800
vn 0.187600 -0.794700 -0.577400
vn 0.982200 -0.187600 0.000000
vn 0.303500 -0.187600 0.934200
vn -0.794600 -0.187600 0.577400
vn -0.794600 -0.187600 -0.577400
vn 0.303500 -0.187600 -0.934200
vn 0.794600 0.187600 0.577400
vn -0.303500 0.187600 0.934200
vn -0.982200 0.187600 0.000000
vn -0.303500 0.187600 -0.934200
vn 0.794600 0.187600 -0.577400
vn 0.491100 0.794700 0.356800
vn -0.187600 0.794700 0.577400
vn -0.607100 0.794700 0.000000
vn -0.187600 0.794700 -0.577400
vn 0.491100 0.794700 -0.356800
s off
f 61/79/101 62/80/101 63/81/101
f 62/80/102 61/79/102 66/82/102
f 61/79/103 63/81/103 64/83/103
f 61/79/104 64/83/104 65/84/104
f 61/79/105 65/84/105 66/82/105
f 62/85/106 66/86/106 71/87/106
f 63/88/107 62/85/107 67/89/107
f 64/83/108 63/81/108 68/90/108
f 65/84/109 64/83/109 69/91/109
f 66/86/110 65/84/110 70/92/110
f 62/85/111 71/87/111 67/89/111
f 63/81/112 67/93/112 68/90/112
f 64/83/113 68/90/113 69/91/113
f 65/84/114 69/91/114 70/92/114
f 66/86/115 70/92/115 71/87/115
f 67/89/116 71/87/116 72/94/116
f 68/90/117 67/93/117 72/94/117
f 69/91/118 68/90/118 72/94/118
f 70/92/119 69/91/119 72/94/119
f 71/87/120 70/92/120 72/94/120
v 0.000000 -0.925705 -0.000000
v 0.859358 -0.429578 0.548900
v -0.295253 -0.393319 0.814261
v -1.029737 -0.394507 0.000000
v -0.327696 -0.441797 -0.914904
v 0.859358 -0.429578 -0.548900
v 0.315013 0.422619 0.875212
v -0.756782 0.391764 0.500557
v -0.859358 0.430110 -0.549600
v 0.295253 0.393028 -0.814153
v 1.029737 0.393958 -0.000000
v 0.000000 0.864536 0.000000
v -0.277466 -0.641425 0.759901
v -0.194852 -0.811856 0.516642
v -0.087488 -0.843336 0.224257
v 0.227436 -0.872556 0.143791
v 0.445640 -0.769355 0.303289
v 0.630073 -0.587460 0.429494
v 0.612226 -0.500783 0.738914
v 0.300072 -0.495038 0.828951
v -0.035758 -0.461881 0.868990
v 0.993020 -0.475209 -0.303018
v 0.918712 -0.450316 -0.000000
v 0.868303 -0.432793 0.276028
v 0.227436 -0.872556 -0.143791
v 0.445640 -0.769409 -0.303289
v 0.675119 -0.623777 -0.456032
v -0.832243 -0.594271 -0.000000
v -0.544608 -0.768627 -0.000000
v -0.287061 -0.910772 -0.000000
v -0.557868 -0.504505 0.782321
v -0.748864 -0.480636 0.496518
v -0.939079 -0.447542 0.230856
v -0.249743 -0.571128 -0.676504
v -0.187139 -0.777360 -0.494763
v -0.093519 -0.903527 -0.240054
v -1.021178 -0.474301 -0.244601
v -0.715733 -0.463835 -0.479109
v -0.503281 -0.454620 -0.704644
v -0.035758 -0.461881 -0.868991
v 0.281193 -0.460532 -0.771123
v 0.612226 -0.500783 -0.738914
v 1.064191 0.211365 0.134986
v 1.111289 -0.000136 0.293312
v 1.066870 -0.235582 0.451724
v 0.981271 -0.222237 -0.426010
v 1.056484 -0.000178 -0.282948
v 1.064190 0.211365 -0.134986
v 0.167429 0.212262 0.883710
v 0.000000 -0.000162 0.966085
v -0.178886 -0.227946 0.948581
v 0.714564 -0.221262 0.653082
v 0.650027 0.000002 0.837730
v 0.456148 0.226961 0.849516
v -1.013767 0.227347 0.436207
v -1.056484 -0.000177 0.283188
v -1.064191 -0.211794 0.135099
v -0.474013 -0.236728 0.885885
v -0.607431 -0.000093 0.788819
v -0.807508 0.243094 0.718575
v -0.769951 0.234630 -0.693372
v -0.678338 -0.000000 -0.870184
v -0.485746 -0.242967 -0.909287
v -1.212542 -0.232838 -0.148567
v -1.056484 -0.000127 -0.283188
v -1.066870 0.235626 -0.452088
v 0.504867 0.252948 -0.946393
v 0.607431 -0.000042 -0.788025
v 0.747604 -0.229157 -0.676927
v -0.167429 -0.212611 -0.883731
v 0.000000 -0.000162 -0.902277
v 0.167429 0.212312 -0.883710
v 0.892490 0.431242 0.222586
v 0.748864 0.479964 0.495860
v 0.523198 0.472726 0.732941
v 0.033448 0.431596 0.811693
v -0.300072 0.495037 0.829066
v -0.573087 0.471191 0.694952
v -0.913307 0.448804 0.286297
v -0.998940 0.477592 -0.000000
v -0.868303 0.433161 -0.276386
v -0.573087 0.471191 -0.694952
v -0.312196 0.517434 -0.866566
v 0.033448 0.431596 -0.811693
v 0.557868 0.504114 -0.781655
v 0.715733 0.463112 -0.478489
v 0.970140 0.457096 -0.235835
v 0.093519 0.903513 0.240053
v 0.187140 0.777249 0.494746
v 0.277466 0.641328 0.759818
v 0.832243 0.593439 -0.000000
v 0.544608 0.767848 0.000000
v 0.298691 0.951851 -0.000000
v -0.218472 0.835087 0.137662
v -0.445640 0.769616 0.303439
v -0.705196 0.647610 0.473393
v -0.233315 0.897250 -0.147851
v -0.474527 0.823841 -0.324752
v -0.630073 0.587971 -0.429974
v 0.093519 0.903513 -0.240053
v 0.175165 0.724091 -0.461066
v 0.259937 0.596622 -0.706908
v 0.059551 -0.625452 0.646163
v 0.166036 -0.847468 0.435603
v 0.407561 -0.697186 0.615002
v 0.696211 -0.640133 -0.155829
v 0.727845 -0.663553 0.161486
v 0.517172 -0.901181 0.000001
v -0.660514 -0.644414 0.253953
v -0.407557 -0.862586 0.274969
v -0.485476 -0.682634 0.538529
v -0.467156 -0.655153 -0.516856
v -0.407557 -0.862587 -0.274967
v -0.741687 -0.708944 -0.279164
v 0.407559 -0.697186 -0.615002
v 0.155386 -0.789966 -0.406172
v 0.057168 -0.599998 -0.619846
v 1.180841 -0.000144 -0.000000
v 1.105773 -0.241666 0.154177
v 1.105772 -0.241666 -0.154177
v 0.364756 0.000065 1.031428
v 0.149212 -0.232771 0.875583
v 0.497526 -0.267176 0.894308
v -0.938015 -0.000059 0.584462
v -0.933776 -0.236409 0.395193
v -0.696214 -0.244546 0.662046
v -0.908121 -0.000054 -0.571395
v -0.727846 -0.253342 -0.686363
v -0.982853 -0.244857 -0.409451
v 0.342129 0.000001 -0.959985
v 0.467161 -0.250030 -0.836430
v 0.149212 -0.232771 -0.875583
v 0.785026 0.268024 0.726802
v 0.908122 -0.000058 0.570714
v 0.933778 0.235814 0.394734
v -0.497526 0.267358 0.894873
v -0.350763 -0.000049 0.987401
v -0.155389 0.242639 0.914089
v -1.141406 0.247210 -0.157850
v -1.217465 -0.000146 0.000000
v -1.105772 0.241671 0.154285
v -0.166036 0.260261 -0.980969
v -0.342128 0.000000 -0.960179
v -0.517176 0.278376 -0.931701
v 0.982855 0.244367 -0.409023
v 0.908122 -0.000107 -0.570713
v 0.727848 0.252922 -0.685486
v 0.397678 0.839003 0.267457
v 0.467154 0.654746 0.516569
v 0.660513 0.643517 0.253646
v -0.155387 0.789825 0.406179
v -0.407560 0.697436 0.615226
v -0.057168 0.599675 0.619845
v -0.485475 0.844113 -0.000000
v -0.749196 0.679580 -0.165384
v -0.785021 0.704400 0.171322
v -0.155387 0.789774 -0.406179
v -0.057168 0.599724 -0.619845
v -0.423561 0.727921 -0.642065
v 0.423557 0.899918 -0.286842
v 0.741685 0.708075 -0.278791
v 0.517170 0.728832 -0.574884
vt 0.377882 0.000000
vt 0.650001 0.087438
vt 0.450001 0.087438
vt 0.650001 0.362676
vt 0.650001 0.284555
vt 0.694543 0.343676
vt 0.250000 0.087439
vt 0.049999 0.087438
vt 1.049999 0.087438
vt 0.849999 0.087438
vt 0.674369 0.425361
vt 0.450001 0.362676
vt 0.494544 0.343675
vt 0.474368 0.425360
vt 0.250000 0.362677
vt 0.294542 0.343676
vt 0.274367 0.425361
vt 0.049999 0.362676
vt 0.094543 0.343675
vt 0.074367 0.425360
vt 0.849999 0.362676
vt 0.894542 0.343675
vt 0.874367 0.425360
vt 0.625633 0.425360
vt 0.425633 0.425360
vt 0.225633 0.425361
vt 0.025632 0.425360
vt 0.825631 0.425361
vt 0.549999 0.637324
vt 0.594543 0.656325
vt 0.549999 0.715446
vt 0.349999 0.637324
vt 0.394542 0.656325
vt 0.349999 0.715446
vt 0.150001 0.637324
vt 0.194543 0.656324
vt 0.150001 0.715446
vt 0.950001 0.637324
vt 0.994544 0.656325
vt 0.950001 0.715446
vt 0.750000 0.637323
vt 0.794542 0.656324
vt 0.750000 0.715444
vt 0.450001 0.284554
vt 0.450001 0.188183
vt 0.512185 0.255633
vt 0.550001 0.158365
vt 0.550001 0.335332
vt 0.587817 0.255634
vt 0.605458 0.343675
vt 0.650001 0.188183
vt 0.805457 0.343676
vt 0.849999 0.284554
vt 0.750000 0.335333
vt 0.787816 0.255634
vt 0.712184 0.255634
vt 0.849999 0.188183
vt 0.750000 0.158365
vt 0.250000 0.284556
vt 0.250000 0.188184
vt 0.312184 0.255634
vt 0.350000 0.158365
vt 0.350000 0.335333
vt 0.387816 0.255634
vt 0.405458 0.343675
vt 0.049999 0.284554
vt 0.049999 0.188182
vt 0.112184 0.255633
vt 0.150000 0.158365
vt 0.150000 0.335333
vt 0.187817 0.255634
vt 0.205458 0.343676
vt 0.912183 0.255633
vt 0.949999 0.158365
vt 0.949999 0.335332
vt 0.987815 0.255634
vt 1.005456 0.343675
vt 1.049999 0.188182
vt 1.049999 0.284554
vt 0.005456 0.343675
vt 0.725633 0.574639
vt 0.774367 0.574639
vt 0.700001 0.500000
vt 0.750000 0.500000
vt 0.722966 0.417608
vt 0.799999 0.500000
vt 0.777034 0.417608
vt 0.525632 0.574640
vt 0.574367 0.574640
vt 0.500000 0.500000
vt 0.550000 0.500000
vt 0.522966 0.417608
vt 0.600000 0.500000
vt 0.577035 0.417608
vt 0.325631 0.574639
vt 0.374367 0.574640
vt 0.299999 0.500000
vt 0.350000 0.500000
vt 0.322966 0.417608
vt 0.400000 0.500000
vt 0.377034 0.417608
vt 0.125633 0.574640
vt 0.174369 0.574639
vt 0.100000 0.500000
vt 0.150000 0.500000
vt 0.122966 0.417608
vt 0.200001 0.500000
vt 0.177034 0.417608
vt 0.925633 0.574640
vt 0.974368 0.574640
vt 0.900000 0.500000
vt 0.950000 0.500000
vt 0.922965 0.417608
vt 1.000000 0.500000
vt 0.977034 0.417608
vt 1.025632 0.425360
vt 0.622966 0.582392
vt 0.650000 0.499999
vt 0.650000 0.664668
vt 0.677035 0.582391
vt 0.705458 0.656324
vt 0.422965 0.582392
vt 0.450000 0.500000
vt 0.449999 0.664668
vt 0.477034 0.582392
vt 0.505456 0.656325
vt 0.222966 0.582392
vt 0.250000 0.500000
vt 0.250000 0.664667
vt 0.277034 0.582392
vt 0.305457 0.656324
vt 1.022966 0.582392
vt 0.050000 0.500000
vt 0.000000 0.500000
vt 1.050001 0.664668
vt 0.022966 0.582392
vt 0.077035 0.582392
vt 0.050001 0.664668
vt 0.105458 0.656325
vt 0.822965 0.582392
vt 0.849999 0.500000
vt 0.850000 0.664667
vt 0.877034 0.582392
vt 0.905457 0.656325
vt 0.549999 0.912562
vt 0.750000 0.912561
vt 0.877882 1.000000
vt 0.549999 0.811818
vt 0.650000 0.841635
vt 0.612184 0.744367
vt 0.750000 0.811816
vt 0.687816 0.744366
vt 1.349999 0.912562
vt 0.349999 0.811817
vt 0.449999 0.841636
vt 0.349999 0.912562
vt 0.412183 0.744367
vt 0.487815 0.744367
vt 1.150001 0.912562
vt 0.150001 0.811817
vt 0.250000 0.841635
vt 0.150001 0.912562
vt 0.212184 0.744366
vt 0.287816 0.744366
vt 0.950001 0.912562
vt 0.950001 0.811817
vt 1.050001 0.841636
vt 1.012185 0.744367
vt 0.050001 0.841636
vt 0.012185 0.744367
vt 0.087817 0.744367
vt 0.850000 0.841635
vt 0.812184 0.744366
vt 0.887816 0.744367
vn 0.001100 -0.938500 0.345200
vn 0.557000 -0.830100 0.028000
vn -0.049100 -0.943600 0.327400
vn -0.051800 -0.996100 -0.071800
vn 0.137800 -0.979900 -0.144200
vn 0.690300 -0.722800 0.031100
vn -0.298800 -0.466100 0.832700
vn -0.892000 -0.365200 0.266400
vn -0.649400 -0.500100 -0.572800
vn 0.628400 -0.138500 -0.765400
vn 0.491300 -0.091700 0.866100
vn -0.157300 -0.553600 0.817800
vn -0.768500 -0.467700 0.436600
vn 0.071700 0.085000 -0.993800
vn 0.731900 -0.026800 -0.680900
vn 0.413600 0.479400 0.774000
vn -0.752200 0.217700 0.621900
vn -0.557100 0.830000 -0.027500
vn 0.061500 0.473500 -0.878600
vn 0.710600 0.703500 0.008800
vn -0.257500 -0.224400 0.939900
vn 0.241800 -0.754200 0.610500
vn -0.080700 -0.993700 0.077400
vn 0.250500 -0.726200 0.640200
vn -0.009500 -0.808000 0.589100
vn 0.102500 -0.658200 0.745800
vn -0.082700 -0.706400 0.703000
vn -0.095100 -0.747000 0.658000
vn 0.196600 -0.661500 0.723700
vn -0.074400 -0.994800 0.069900
vn 0.331100 -0.931600 0.149800
vn 0.369200 -0.894500 0.252200
vn 0.587800 -0.769400 0.249900
vn 0.587600 -0.769700 0.249500
vn 0.449500 -0.853100 0.264900
vn 0.543700 -0.721100 -0.429400
vn 0.550200 -0.810400 0.201500
vn 0.797200 -0.575600 0.182100
vn 0.453500 -0.887700 -0.080200
vn 0.494600 -0.865300 -0.081900
vn 0.692100 -0.711500 -0.121500
vn 0.782600 -0.610200 -0.123100
vn 0.601400 -0.671200 -0.433400
vn 0.119100 -0.900100 -0.419100
vn 0.668600 -0.614700 0.418400
vn 0.490900 -0.774500 0.399000
vn 0.501000 -0.744300 0.441700
vn 0.119200 -0.900000 0.419300
vn -0.098300 -0.995200 0.000000
vn 0.227600 -0.973800 0.000000
vn -0.706300 -0.698200 0.116900
vn -0.510000 -0.841400 0.178800
vn -0.482400 -0.874000 -0.058200
vn -0.574100 -0.784900 0.233200
vn -0.565700 -0.764100 0.309900
vn -0.654800 -0.752600 0.069200
vn -0.637700 -0.710800 0.296800
vn -0.612200 -0.740600 0.277100
vn -0.605300 -0.717600 0.344600
vn 0.091900 -0.973200 0.210800
vn 0.080900 -0.987400 0.136000
vn -0.330600 -0.822100 0.463600
vn -0.330600 -0.822000 0.463700
vn -0.353300 -0.802200 0.481300
vn -0.027300 -0.215800 0.976100
vn -0.358300 -0.864700 -0.352000
vn -0.243100 -0.681800 -0.689900
vn -0.071000 -0.904000 -0.421700
vn -0.239100 -0.686300 -0.686900
vn -0.559500 -0.618000 -0.552300
vn -0.286200 -0.761100 -0.582100
vn -0.339500 -0.753700 -0.562700
vn -0.501500 -0.514400 -0.695600
vn -0.513000 -0.509300 -0.690900
vn -0.114900 -0.985800 -0.122400
vn -0.482400 -0.874000 0.058200
vn -0.416700 -0.903400 0.101000
vn -0.509900 -0.841200 0.180100
vn -0.631000 -0.767900 0.110700
vn -0.696700 -0.688800 0.200300
vn 0.541000 -0.720600 -0.433600
vn 0.392800 -0.884200 -0.252800
vn 0.186200 -0.921400 -0.341200
vn 0.470300 -0.766300 -0.437700
vn 0.015300 -0.544900 -0.838400
vn 0.153200 -0.958400 -0.240800
vn -0.207100 -0.776500 -0.595100
vn -0.155700 -0.600500 -0.784300
vn 0.165600 -0.835000 -0.524700
vn 0.191400 -0.920000 -0.342100
vn 0.088700 -0.879200 -0.468100
vn 0.153900 -0.702200 -0.695100
vn 0.079500 -0.645400 -0.759700
vn 0.007800 -0.873300 -0.487000
vn 0.015300 -0.876800 -0.480600
vn 0.982700 0.185400 -0.000000
vn 0.906700 0.362900 0.215000
vn 0.986500 -0.098000 0.131000
vn 0.875700 0.482900 -0.000000
vn 0.888500 0.240800 -0.390500
vn 0.961500 -0.153300 0.228000
vn 0.954900 -0.296800 -0.000000
vn 0.915100 -0.027700 -0.402200
vn 0.907500 -0.037900 -0.418300
vn 0.654700 -0.749100 0.100900
vn 0.669000 -0.724000 0.168100
vn 0.744600 -0.667500 -0.000000
vn 0.804500 -0.542500 0.241800
vn 0.892600 -0.163000 -0.420400
vn 0.844200 -0.202200 -0.496400
vn 0.119700 -0.043900 0.991800
vn -0.156700 0.462000 0.872900
vn 0.207700 -0.236100 0.949300
vn 0.062700 0.608800 0.790800
vn 0.514800 0.400400 0.758100
vn -0.157700 -0.444300 0.881900
vn -0.095100 -0.491400 0.865700
vn 0.555900 -0.143900 0.818700
vn 0.737900 -0.292400 0.608300
vn 0.210100 -0.197200 0.957600
vn 0.106500 -0.114400 0.987700
vn -0.073600 -0.215500 0.973700
vn 0.239300 -0.453600 0.858500
vn 0.748200 -0.071400 0.659600
vn 0.605300 0.022700 0.795700
vn -0.564600 0.737100 0.371300
vn -0.928300 -0.071200 0.365000
vn -0.873300 -0.257600 0.413500
vn -0.805400 0.111200 0.582100
vn -0.516900 -0.183700 0.836100
vn -0.888900 -0.295900 0.349700
vn -0.664700 -0.474200 0.577300
vn -0.510100 -0.242700 0.825200
vn -0.703600 -0.108600 0.702200
vn -0.865200 -0.294300 0.406000
vn -0.775000 -0.376000 0.508000
vn -0.720600 -0.283000 0.632900
vn -0.823400 -0.191000 0.534300
vn -0.707900 -0.050800 0.704500
vn 0.045000 -0.372600 0.926900
vn -0.606300 0.272300 -0.747200
vn -0.784000 0.148200 -0.602900
vn -0.618000 -0.379000 -0.688800
vn -0.630400 -0.032000 -0.775600
vn -0.834600 -0.344600 -0.429700
vn -0.761800 -0.276300 -0.585900
vn -0.721700 -0.215000 -0.658000
vn -0.888700 -0.031300 -0.457500
vn -0.742800 0.116700 -0.659300
vn -0.549700 -0.556700 -0.622900
vn -0.575300 -0.590400 -0.566000
vn -0.611700 -0.572600 -0.545800
vn -0.540700 -0.429400 -0.723400
vn -0.717600 -0.323400 -0.616900
vn -0.732000 -0.654900 0.188000
vn -0.215800 0.479900 -0.850400
vn 0.520200 -0.291600 -0.802700
vn 0.497600 -0.112600 -0.860100
vn -0.200600 0.180800 -0.962800
vn -0.162600 0.212400 -0.963600
vn 0.538400 -0.141300 -0.830700
vn 0.090100 -0.404600 -0.910000
vn -0.162300 -0.214700 -0.963100
vn 0.019100 -0.101900 -0.994600
vn 0.496600 -0.049700 -0.866600
vn 0.050600 -0.336400 -0.940300
vn 0.093800 -0.369600 -0.924400
vn 0.286100 -0.257500 -0.923000
vn 0.022700 -0.047100 -0.998600
vn 0.157000 0.024500 -0.987300
vn 0.503200 0.254500 0.825900
vn 0.316300 0.222300 0.922200
vn 0.674200 -0.347300 0.651800
vn 0.290200 0.344400 0.892900
vn 0.531400 0.663900 0.526100
vn 0.717000 -0.074300 0.693100
vn 0.902800 0.189800 0.386000
vn 0.814600 0.485300 0.317800
vn 0.811800 0.473100 0.342300
vn 0.490100 -0.106700 0.865100
vn 0.783600 0.238200 0.573800
vn 0.760800 0.332900 0.557100
vn 0.812500 0.454300 0.365200
vn 0.800000 0.482800 0.356200
vn 0.790600 0.453400 0.411500
vn -0.642800 0.694200 0.323800
vn -0.480500 -0.145500 0.864900
vn -0.611800 -0.020600 0.790700
vn -0.448800 0.535400 0.715500
vn -0.404300 0.559700 0.723400
vn -0.610700 -0.062000 0.789400
vn -0.030800 0.311700 0.949700
vn -0.031600 0.302700 0.952500
vn 0.119700 0.377900 0.918100
vn -0.189500 -0.302100 0.934300
vn 0.060200 -0.123400 0.990500
vn 0.058900 0.244900 0.967700
vn 0.115900 0.278400 0.953500
vn 0.121800 0.376000 0.918600
vn -0.210500 0.186500 0.959600
vn -0.691100 0.722100 -0.030700
vn -0.950000 -0.208400 -0.232500
vn -0.833400 0.284800 -0.473700
vn -0.606500 0.773500 -0.184100
vn -0.628100 0.665100 -0.403800
vn -0.868300 -0.048000 -0.493600
vn -0.927400 0.356800 0.112200
vn -0.877000 0.468100 0.108400
vn -0.786200 0.545700 0.290000
vn -0.832700 -0.310400 0.458500
vn -0.829400 -0.299700 0.471400
vn -0.866100 0.085900 0.492400
vn -0.950700 -0.029200 0.308800
vn -0.785900 0.549000 0.284400
vn -0.541100 0.625800 0.561900
vn 0.040300 0.333900 -0.941700
vn 0.261600 -0.122500 -0.957400
vn 0.163000 -0.212500 -0.963500
vn 0.308900 0.461800 -0.831500
vn 0.257100 0.511000 -0.820200
vn 0.163800 -0.188200 -0.968400
vn -0.138200 0.014400 -0.990300
vn -0.112400 0.349800 -0.930000
vn -0.509900 0.604100 -0.612400
vn 0.102000 -0.261300 -0.959800
vn -0.258300 -0.049400 -0.964800
vn -0.258000 -0.063600 -0.964000
vn -0.687100 0.246700 -0.683400
vn -0.631400 0.521600 -0.573900
vn -0.461600 0.378800 -0.802100
vn 0.942100 0.295300 -0.159000
vn 0.952600 0.150400 -0.264600
vn 0.888800 -0.005800 -0.458200
vn 0.934600 0.256500 -0.246500
vn 0.591900 0.529900 -0.607400
vn 0.888400 0.031400 -0.458000
vn 0.721200 0.215100 -0.658500
vn 0.611200 0.573000 -0.546000
vn 0.828100 0.416900 -0.374800
vn 0.720300 -0.196200 -0.665300
vn 0.585400 -0.034600 -0.810000
vn 0.585000 0.049600 -0.809500
vn 0.756500 -0.098000 -0.646600
vn 0.734700 0.256800 -0.627900
vn -0.137500 0.563400 -0.814700
vn -0.280300 0.958800 -0.046500
vn 0.157000 0.906600 0.391700
vn 0.357300 0.874900 0.326900
vn 0.167300 0.929000 0.330100
vn 0.595100 0.795300 0.115300
vn 0.311900 0.803400 0.507200
vn 0.564000 0.731300 0.383600
vn 0.596700 0.794000 0.116500
vn 0.510100 0.841200 0.179300
vn 0.536600 0.709100 0.457500
vn 0.486500 0.726600 0.485200
vn 0.513200 0.786400 0.343800
vn 0.673700 0.702700 0.228800
vn 0.663300 0.678800 0.315100
vn 0.676800 0.670000 0.305100
vn -0.186300 0.978700 -0.086300
vn -0.136900 0.971000 0.195900
vn -0.274000 0.929100 0.248500
vn -0.278100 0.934400 0.222800
vn -0.088800 0.879000 0.468400
vn -0.151900 0.958700 0.240500
vn 0.208700 0.776300 0.594900
vn -0.154000 0.701900 0.695400
vn -0.314900 0.796700 0.515800
vn -0.430400 0.563400 0.705200
vn -0.405700 0.553200 0.727600
vn 0.203900 0.760100 0.616900
vn 0.179600 0.780400 0.598900
vn -0.370200 0.605000 0.704900
vn -0.185100 0.433500 0.881900
vn 0.002300 0.977100 0.212600
vn -0.244100 0.967300 -0.068600
vn -0.610900 0.621600 -0.490300
vn -0.078500 0.973200 0.216000
vn -0.095900 0.963700 0.249200
vn -0.495700 0.865600 -0.070700
vn -0.473000 0.873500 -0.114700
vn -0.279900 0.923200 0.263400
vn -0.274800 0.929100 0.247300
vn -0.674800 0.548600 -0.493700
vn -0.722500 0.542400 -0.428700
vn -0.672700 0.729200 -0.125300
vn -0.796000 0.530600 0.291400
vn -0.787300 0.533900 0.308400
vn -0.759400 0.218200 0.612900
vn 0.029500 0.984800 0.171400
vn 0.053400 0.784800 -0.617400
vn -0.126300 0.862200 -0.490600
vn -0.134300 0.899900 -0.414900
vn 0.000600 0.923300 -0.384000
vn 0.041800 0.756000 -0.653200
vn 0.305200 0.776900 -0.550700
vn 0.029600 0.958100 -0.284900
vn -0.727900 0.615100 -0.302900
vn -0.184200 0.694400 -0.695600
vn 0.282500 0.783600 -0.553300
vn 0.302300 0.765600 -0.567800
vn -0.543300 0.461000 -0.701700
vn -0.757200 0.521900 -0.392800
vn -0.342400 0.830400 -0.439600
vn -0.280300 0.958800 0.046500
vn 0.595100 0.795400 0.115100
vn 0.510000 0.841100 0.180200
vn -0.015500 0.982700 -0.184700
vn -0.083400 0.758400 -0.646500
vn 0.505100 0.845000 0.175900
vn 0.495300 0.808000 -0.319000
vn -0.193200 0.814700 -0.546700
vn -0.178400 0.847000 -0.500700
vn 0.735600 0.676300 0.039100
vn 0.620200 0.455200 -0.638900
vn 0.753900 0.365300 -0.546100
vn 0.805900 0.473200 -0.355700
vn 0.027000 0.679500 -0.733200
vn -0.081900 0.453300 -0.887600
s off
f 73/95/121 88/96/121 87/97/121
f 74/98/122 90/99/122 96/100/122
f 73/95/123 87/97/123 102/101/123
f 73/95/124 102/101/124 108/102/124
f 73/95/125 108/103/125 97/104/125
f 74/98/126 96/100/126 117/105/126
f 75/106/127 93/107/127 123/108/127
f 76/109/128 105/110/128 129/111/128
f 77/112/129 111/113/129 135/114/129
f 78/115/130 114/116/130 141/117/130
f 74/98/131 117/105/131 124/118/131
f 75/106/132 123/108/132 130/119/132
f 76/109/133 129/111/133 136/120/133
f 77/112/134 135/114/134 142/121/134
f 78/115/135 141/117/135 118/122/135
f 79/123/136 147/124/136 162/125/136
f 80/126/137 150/127/137 168/128/137
f 81/129/138 153/130/138 171/131/138
f 82/132/139 156/133/139 174/134/139
f 83/135/140 159/136/140 163/137/140
f 85/138/141 93/107/141 75/106/141
f 86/139/142 175/140/142 85/138/142
f 87/97/143 176/141/143 86/139/143
f 85/138/144 175/140/144 93/107/144
f 175/140/145 92/142/145 93/107/145
f 86/139/146 176/141/146 175/140/146
f 176/141/147 177/143/147 175/140/147
f 175/140/148 177/143/148 92/142/148
f 177/143/149 91/144/149 92/142/149
f 87/97/150 88/96/150 176/141/150
f 88/96/151 89/145/151 176/141/151
f 176/141/152 89/145/152 177/143/152
f 89/145/153 90/99/153 177/143/153
f 177/143/154 90/99/154 91/144/154
f 90/99/155 74/98/155 91/144/155
f 94/146/156 99/147/156 78/115/156
f 95/148/157 178/149/157 94/146/157
f 96/100/158 179/150/158 95/148/158
f 94/146/159 178/149/159 99/147/159
f 178/149/160 98/151/160 99/147/160
f 95/148/161 179/150/161 178/149/161
f 179/150/162 180/152/162 178/149/162
f 178/149/163 180/152/163 98/151/163
f 180/152/164 97/104/164 98/151/164
f 96/100/165 90/99/165 179/150/165
f 90/99/166 89/145/166 179/150/166
f 179/150/167 89/145/167 180/152/167
f 89/145/168 88/96/168 180/152/168
f 180/152/169 88/96/169 97/104/169
f 88/96/170 73/95/170 97/104/170
f 100/153/171 105/110/171 76/109/171
f 101/154/172 181/155/172 100/153/172
f 102/101/173 182/156/173 101/154/173
f 100/153/174 181/155/174 105/110/174
f 181/155/175 104/157/175 105/110/175
f 101/154/176 182/156/176 181/155/176
f 182/156/177 183/158/177 181/155/177
f 181/155/178 183/158/178 104/157/178
f 183/158/179 103/159/179 104/157/179
f 102/101/180 87/97/180 182/156/180
f 87/97/181 86/139/181 182/156/181
f 182/156/182 86/139/182 183/158/182
f 86/139/183 85/138/183 183/158/183
f 183/158/184 85/138/184 103/159/184
f 85/138/185 75/106/185 103/159/185
f 106/160/186 111/113/186 77/112/186
f 107/161/187 184/162/187 106/160/187
f 108/102/188 185/163/188 107/161/188
f 106/160/189 184/162/189 111/113/189
f 184/162/190 110/164/190 111/113/190
f 107/161/191 185/163/191 184/162/191
f 185/163/192 186/165/192 184/162/192
f 184/162/193 186/165/193 110/164/193
f 186/165/194 109/166/194 110/164/194
f 108/102/195 102/101/195 185/163/195
f 102/101/196 101/154/196 185/163/196
f 185/163/197 101/154/197 186/165/197
f 101/154/198 100/153/198 186/165/198
f 186/165/199 100/153/199 109/166/199
f 100/153/200 76/109/200 109/166/200
f 99/147/201 114/116/201 78/115/201
f 98/151/202 187/167/202 99/147/202
f 97/104/203 188/168/203 98/151/203
f 99/147/204 187/167/204 114/116/204
f 187/167/205 113/169/205 114/116/205
f 98/151/206 188/168/206 187/167/206
f 188/168/207 189/170/207 187/167/207
f 187/167/208 189/170/208 113/169/208
f 189/170/209 112/171/209 113/169/209
f 97/104/210 108/103/210 188/168/210
f 108/103/211 107/172/211 188/168/211
f 188/168/212 107/172/212 189/170/212
f 107/172/213 106/173/213 189/170/213
f 189/170/214 106/173/214 112/171/214
f 106/160/215 77/112/215 112/174/215
f 115/175/216 120/176/216 83/135/216
f 116/177/217 190/178/217 115/175/217
f 117/105/218 191/179/218 116/177/218
f 115/175/219 190/178/219 120/176/219
f 190/178/220 119/180/220 120/176/220
f 116/177/221 191/179/221 190/178/221
f 191/179/222 192/181/222 190/178/222
f 190/178/223 192/181/223 119/180/223
f 192/181/224 118/122/224 119/180/224
f 117/105/225 96/100/225 191/179/225
f 96/100/226 95/148/226 191/179/226
f 191/179/227 95/148/227 192/181/227
f 95/148/228 94/146/228 192/181/228
f 192/181/229 94/146/229 118/122/229
f 94/146/230 78/115/230 118/122/230
f 121/182/231 126/183/231 79/123/231
f 122/184/232 193/185/232 121/182/232
f 123/108/233 194/186/233 122/184/233
f 121/182/234 193/185/234 126/183/234
f 193/185/235 125/187/235 126/183/235
f 122/184/236 194/186/236 193/185/236
f 194/186/237 195/188/237 193/185/237
f 193/185/238 195/188/238 125/187/238
f 195/188/239 124/118/239 125/187/239
f 123/108/240 93/107/240 194/186/240
f 93/107/241 92/142/241 194/186/241
f 194/186/242 92/142/242 195/188/242
f 92/142/243 91/144/243 195/188/243
f 195/188/244 91/144/244 124/118/244
f 91/144/245 74/98/245 124/118/245
f 127/189/246 132/190/246 80/126/246
f 128/191/247 196/192/247 127/189/247
f 129/111/248 197/193/248 128/191/248
f 127/189/249 196/192/249 132/190/249
f 196/192/250 131/194/250 132/190/250
f 128/191/251 197/193/251 196/192/251
f 197/193/252 198/195/252 196/192/252
f 196/192/253 198/195/253 131/194/253
f 198/195/254 130/119/254 131/194/254
f 129/111/255 105/110/255 197/193/255
f 105/110/256 104/157/256 197/193/256
f 197/193/257 104/157/257 198/195/257
f 104/157/258 103/159/258 198/195/258
f 198/195/259 103/159/259 130/119/259
f 103/159/260 75/106/260 130/119/260
f 133/196/261 138/197/261 81/129/261
f 134/198/262 199/199/262 133/196/262
f 135/114/263 200/200/263 134/198/263
f 133/196/264 199/199/264 138/197/264
f 199/199/265 137/201/265 138/197/265
f 134/198/266 200/200/266 199/199/266
f 200/200/267 201/202/267 199/199/267
f 199/199/268 201/202/268 137/201/268
f 201/202/269 136/120/269 137/201/269
f 135/114/270 111/113/270 200/200/270
f 111/113/271 110/164/271 200/200/271
f 200/200/272 110/164/272 201/202/272
f 110/164/273 109/166/273 201/202/273
f 201/202/274 109/166/274 136/120/274
f 109/166/275 76/109/275 136/120/275
f 139/203/276 144/204/276 82/132/276
f 140/205/277 202/206/277 139/203/277
f 141/117/278 203/207/278 140/205/278
f 139/203/279 202/206/279 144/204/279
f 202/206/280 143/208/280 144/204/280
f 140/205/281 203/207/281 202/206/281
f 203/207/282 204/209/282 202/206/282
f 202/206/283 204/209/283 143/208/283
f 204/209/284 142/210/284 143/208/284
f 141/117/285 114/116/285 203/207/285
f 114/116/286 113/169/286 203/207/286
f 203/207/287 113/169/287 204/209/287
f 113/169/288 112/171/288 204/209/288
f 204/209/289 112/171/289 142/210/289
f 112/174/290 77/112/290 142/121/290
f 126/183/291 147/124/291 79/123/291
f 125/187/292 205/211/292 126/183/292
f 124/118/293 206/212/293 125/187/293
f 126/183/294 205/211/294 147/124/294
f 205/211/295 146/213/295 147/124/295
f 125/187/296 206/212/296 205/211/296
f 206/212/297 207/214/297 205/211/297
f 205/211/298 207/214/298 146/213/298
f 207/214/299 145/215/299 146/213/299
f 124/118/300 117/105/300 206/212/300
f 117/105/301 116/177/301 206/212/301
f 206/212/302 116/177/302 207/214/302
f 116/177/303 115/175/303 207/214/303
f 207/214/304 115/175/304 145/215/304
f 115/175/305 83/135/305 145/215/305
f 132/190/306 150/127/306 80/126/306
f 131/194/307 208/216/307 132/190/307
f 130/119/308 209/217/308 131/194/308
f 132/190/309 208/216/309 150/127/309
f 208/216/310 149/218/310 150/127/310
f 131/194/311 209/217/311 208/216/311
f 209/217/312 210/219/312 208/216/312
f 208/216/313 210/219/313 149/218/313
f 210/219/314 148/220/314 149/218/314
f 130/119/315 123/108/315 209/217/315
f 123/108/316 122/184/316 209/217/316
f 209/217/317 122/184/317 210/219/317
f 122/184/318 121/182/318 210/219/318
f 210/219/319 121/182/319 148/220/319
f 121/182/320 79/123/320 148/220/320
f 138/197/321 153/130/321 81/129/321
f 137/201/322 211/221/322 138/197/322
f 136/120/323 212/222/323 137/201/323
f 138/197/324 211/221/324 153/130/324
f 211/221/325 152/223/325 153/130/325
f 137/201/326 212/222/326 211/221/326
f 212/222/327 213/224/327 211/221/327
f 211/221/328 213/224/328 152/223/328
f 213/224/329 151/225/329 152/223/329
f 136/120/330 129/111/330 212/222/330
f 129/111/331 128/191/331 212/222/331
f 212/222/332 128/191/332 213/224/332
f 128/191/333 127/189/333 213/224/333
f 213/224/334 127/189/334 151/225/334
f 127/189/335 80/126/335 151/225/335
f 144/204/336 156/133/336 82/132/336
f 143/208/337 214/226/337 144/204/337
f 142/121/338 215/227/338 143/228/338
f 144/204/339 214/226/339 156/133/339
f 214/226/340 155/229/340 156/133/340
f 143/228/341 215/227/341 214/230/341
f 215/227/342 216/231/342 214/230/342
f 214/230/343 216/231/343 155/232/343
f 216/231/344 154/233/344 155/232/344
f 142/121/345 135/114/345 215/227/345
f 135/114/346 134/198/346 215/227/346
f 215/227/347 134/198/347 216/231/347
f 134/198/348 133/196/348 216/231/348
f 216/231/349 133/196/349 154/233/349
f 133/196/350 81/129/350 154/233/350
f 120/176/351 159/136/351 83/135/351
f 119/180/352 217/234/352 120/176/352
f 118/122/353 218/235/353 119/180/353
f 120/176/354 217/234/354 159/136/354
f 217/234/355 158/236/355 159/136/355
f 119/180/356 218/235/356 217/234/356
f 218/235/357 219/237/357 217/234/357
f 217/234/358 219/237/358 158/236/358
f 219/237/359 157/238/359 158/236/359
f 118/122/360 141/117/360 218/235/360
f 141/117/361 140/205/361 218/235/361
f 218/235/362 140/205/362 219/237/362
f 140/205/363 139/203/363 219/237/363
f 219/237/364 139/203/364 157/238/364
f 139/203/365 82/132/365 157/238/365
f 160/239/366 165/240/366 84/241/366
f 161/242/367 220/243/367 160/239/367
f 162/125/368 221/244/368 161/242/368
f 160/239/369 220/243/369 165/240/369
f 220/243/370 164/245/370 165/240/370
f 161/242/371 221/244/371 220/243/371
f 221/244/372 222/246/372 220/243/372
f 220/243/373 222/246/373 164/245/373
f 222/246/374 163/137/374 164/245/374
f 162/125/375 147/124/375 221/244/375
f 147/124/376 146/213/376 221/244/376
f 221/244/377 146/213/377 222/246/377
f 146/213/378 145/215/378 222/246/378
f 222/246/379 145/215/379 163/137/379
f 145/215/380 83/135/380 163/137/380
f 166/247/381 160/239/381 84/241/381
f 167/248/382 223/249/382 166/250/382
f 168/128/383 224/251/383 167/248/383
f 166/250/384 223/249/384 160/239/384
f 223/249/385 161/242/385 160/239/385
f 167/248/386 224/251/386 223/249/386
f 224/251/387 225/252/387 223/249/387
f 223/249/388 225/252/388 161/242/388
f 225/252/389 162/125/389 161/242/389
f 168/128/390 150/127/390 224/251/390
f 150/127/391 149/218/391 224/251/391
f 224/251/392 149/218/392 225/252/392
f 149/218/393 148/220/393 225/252/393
f 225/252/394 148/220/394 162/125/394
f 148/220/395 79/123/395 162/125/395
f 169/253/396 166/247/396 84/241/396
f 170/254/397 226/255/397 169/256/397
f 171/131/398 227/257/398 170/254/398
f 169/256/399 226/255/399 166/250/399
f 226/255/400 167/248/400 166/250/400
f 170/254/401 227/257/401 226/255/401
f 227/257/402 228/258/402 226/255/402
f 226/255/403 228/258/403 167/248/403
f 228/258/404 168/128/404 167/248/404
f 171/131/405 153/130/405 227/257/405
f 153/130/406 152/223/406 227/257/406
f 227/257/407 152/223/407 228/258/407
f 152/223/408 151/225/408 228/258/408
f 228/258/409 151/225/409 168/128/409
f 151/225/410 80/126/410 168/128/410
f 172/259/411 169/253/411 84/241/411
f 173/260/412 229/261/412 172/259/412
f 174/134/413 230/262/413 173/260/413
f 172/259/414 229/261/414 169/253/414
f 229/263/415 170/254/415 169/256/415
f 173/260/416 230/262/416 229/261/416
f 230/264/417 231/265/417 229/263/417
f 229/263/418 231/265/418 170/254/418
f 231/265/419 171/131/419 170/254/419
f 174/134/420 156/133/420 230/262/420
f 156/133/421 155/229/421 230/262/421
f 230/264/422 155/232/422 231/265/422
f 155/232/423 154/233/423 231/265/423
f 231/265/424 154/233/424 171/131/424
f 154/233/425 81/129/425 171/131/425
f 165/240/426 172/259/426 84/241/426
f 164/245/427 232/266/427 165/240/427
f 163/137/428 233/267/428 164/245/428
f 165/240/429 232/266/429 172/259/429
f 232/266/430 173/260/430 172/259/430
f 164/245/431 233/267/431 232/266/431
f 233/267/432 234/268/432 232/266/432
f 232/266/433 234/268/433 173/260/433
f 234/268/434 174/134/434 173/260/434
f 163/137/435 159/136/435 233/267/435
f 159/136/436 158/236/436 233/267/436
f 233/267/437 158/236/437 234/268/437
f 158/236/438 157/238/438 234/268/438
f 234/268/439 157/238/439 174/134/439
f 157/238/440 82/132/440 174/134/440
