v -0.835090 0.360541 -0.055786
v -0.824889 0.341526 0.044074
v 0.787390 0.277812 -0.055337
v 0.772649 0.261955 0.044507
v 0.766831 0.332763 -0.144294
v 0.669945 0.459725 -0.200520
v 0.544612 0.568698 -0.213105
v 0.400910 0.642289 -0.192234
v 0.237790 0.684764 -0.192578
v 0.020783 0.613702 -0.474751
v -0.020925 0.613702 -0.474751
v -0.238021 0.687602 -0.191200
v -0.395934 0.651761 -0.191542
v -0.541578 0.591976 -0.213317
v -0.677205 0.503626 -0.201398
v -0.800787 0.405081 -0.145017
v -0.771226 0.349245 0.141914
v -0.648135 0.443227 0.189358
v -0.518183 0.514926 0.207690
v -0.376212 0.563942 0.238896
v -0.229865 0.567659 0.330266
v -0.076219 0.529908 0.415006
v 0.076285 0.530859 0.415062
v 0.228158 0.552905 0.376519
v 0.375152 0.554820 0.274905
v 0.510130 0.498093 0.207401
v 0.629413 0.408964 0.149693
v 0.729284 0.290657 0.101400
v 0.131897 0.663366 -0.293836
v 0.152314 0.544154 0.395989
v -0.131542 0.660379 -0.294847
v -0.152631 0.538839 0.395546
v -0.833040 0.356767 -0.030583
v -0.830665 0.352356 -0.005535
v -0.827940 0.347259 0.019347
v 0.777064 0.266742 0.019785
v 0.781005 0.270994 -0.005093
v 0.784435 0.274670 -0.030137
v -0.781663 0.369131 0.071841
v -0.790339 0.385429 0.000756
v -0.796316 0.396447 -0.071611
v -0.659835 0.467486 0.094391
v -0.668995 0.484168 -0.002112
v -0.675008 0.498214 -0.101001
v -0.527506 0.546986 0.105461
v -0.533421 0.571821 0.001522
v -0.539110 0.585728 -0.105049
v -0.384186 0.603281 0.135370
v -0.391600 0.631815 0.029899
v -0.394455 0.648404 -0.079473
v -0.234366 0.627824 0.206165
v -0.238319 0.680794 0.082102
v -0.239115 0.699733 -0.050519
v -0.062850 0.627099 0.249384
v -0.049857 0.714714 0.053127
v -0.035818 0.722734 -0.123244
v 0.062477 0.626865 0.249390
v 0.048652 0.714620 0.052823
v 0.034643 0.721962 -0.124036
v 0.232536 0.614986 0.240346
v 0.236163 0.672029 0.104179
v 0.237070 0.694247 -0.041096
v 0.381746 0.591859 0.162471
v 0.393675 0.620498 0.048296
v 0.398148 0.638031 -0.070368
v 0.521405 0.523848 0.105309
v 0.529249 0.547376 0.001505
v 0.539796 0.562016 -0.104954
v 0.645052 0.426626 0.064445
v 0.658351 0.441470 -0.022175
v 0.666357 0.453850 -0.110687
v 0.741821 0.304323 0.041154
v 0.752348 0.315722 -0.019748
v 0.760077 0.324073 -0.081611
v 0.149305 0.618658 0.233272
v 0.145526 0.707407 0.070719
v 0.138793 0.705525 -0.116417
v -0.149573 0.615852 0.233055
v -0.148253 0.708285 0.072873
v -0.142936 0.716552 -0.105176
v 0.694918 0.278947 0.009316
v 0.730134 0.241007 -0.010999
v 0.727482 0.237562 0.006086
v 0.684213 0.267127 0.060921
v -0.786100 0.313979 -0.014547
v -0.740365 0.334891 0.039098
v -0.730641 0.318007 0.098162
v -0.783898 0.311248 0.000931
v -0.622565 0.429421 0.060090
v -0.613604 0.408389 0.143481
v -0.500620 0.503888 0.064623
v -0.493104 0.475936 0.153839
v -0.357080 0.565234 0.079460
v -0.352586 0.529123 0.169887
v -0.217558 0.532351 0.121770
v -0.216916 0.534588 0.246847
v -0.144472 0.484881 0.137796
v -0.063644 0.476342 0.109308
v -0.075734 0.495154 0.324056
v -0.148907 0.506231 0.305387
v 0.063946 0.476777 0.109644
v 0.076899 0.496007 0.324542
v 0.145475 0.492393 0.137726
v 0.214991 0.520855 0.154938
v 0.215746 0.518905 0.294483
v 0.150428 0.510834 0.307198
v 0.351885 0.555729 0.105498
v 0.348022 0.518675 0.205704
v 0.487745 0.485570 0.062554
v 0.478798 0.462698 0.152099
v 0.598882 0.398867 0.029791
v 0.587106 0.383340 0.104154
v 0.711584 0.297508 -0.118557
v 0.731520 0.248409 -0.038487
v 0.729921 0.245355 -0.022143
v 0.706008 0.291266 -0.064525
v 0.730133 0.242867 -0.017108
v 0.701076 0.285759 -0.025404
v -0.788514 0.317390 -0.035401
v -0.755995 0.358042 -0.115077
v -0.751779 0.351232 -0.051146
v -0.787288 0.314463 -0.019933
v -0.746883 0.344295 -0.003944
v -0.786930 0.313541 -0.017381
v -0.636865 0.452584 -0.159173
v -0.633380 0.448180 -0.070857
v -0.627702 0.440326 -0.003931
v -0.509877 0.535614 -0.165828
v -0.507205 0.529370 -0.070283
v -0.503789 0.520221 -0.004402
v -0.368019 0.592032 -0.136586
v -0.364632 0.589494 -0.041262
v -0.359310 0.583337 0.013012
v -0.217751 0.631465 -0.123773
v -0.217345 0.584866 -0.017679
v -0.217635 0.552535 0.034017
v -0.118608 0.615360 -0.213046
v -0.018347 0.565562 -0.391301
v -0.031972 0.558133 -0.183761
v -0.129772 0.569898 -0.066198
v -0.051412 0.521992 -0.030791
v -0.140674 0.530841 0.029447
v 0.018205 0.565562 -0.391301
v 0.032077 0.560934 -0.183533
v 0.049063 0.519409 -0.029817
v 0.118176 0.619770 -0.213129
v 0.214817 0.629467 -0.127822
v 0.212976 0.578480 -0.009261
v 0.124402 0.564111 -0.067668
v 0.213734 0.545012 0.055371
v 0.137173 0.529809 0.029957
v 0.366860 0.586015 -0.139008
v 0.362648 0.582921 -0.034857
v 0.356349 0.576412 0.028082
v 0.505886 0.516896 -0.167470
v 0.500683 0.509860 -0.071378
v 0.493293 0.500394 -0.008015
v 0.620231 0.418946 -0.162482
v 0.615572 0.414623 -0.084111
v 0.608140 0.408157 -0.025655
v 0.666093 0.427270 -0.202175
v 0.762080 0.296733 -0.146121
v 0.079223 0.507404 0.410111
v -0.078543 0.506547 0.409847
v -0.396071 0.623429 -0.183958
v -0.235576 0.662182 -0.177123
v -0.837698 0.322207 -0.027977
v -0.839562 0.325992 -0.050578
v 0.772565 0.228942 0.028255
v 0.726997 0.258286 0.090286
v -0.376179 0.540016 0.225822
v -0.521490 0.486571 0.199944
v 0.020167 0.589632 -0.482195
v 0.129054 0.640509 -0.283322
v 0.623466 0.378237 0.140589
v 0.509338 0.469855 0.198852
v -0.129006 0.636648 -0.283710
v -0.020325 0.589632 -0.482195
v -0.775043 0.317665 0.133590
v -0.831356 0.311968 0.025155
v 0.778654 0.236786 -0.012252
v 0.776443 0.233438 0.004985
v 0.544856 0.539399 -0.212535
v 0.229485 0.528654 0.371803
v 0.156433 0.520831 0.389798
v 0.234428 0.660131 -0.179846
v -0.836175 0.319245 -0.012628
v -0.544909 0.562723 -0.211738
v 0.783095 0.243634 -0.052068
v 0.780488 0.240158 -0.028981
v -0.230730 0.544770 0.319398
v -0.156027 0.515768 0.388617
v -0.805023 0.369908 -0.144530
v -0.649512 0.411441 0.184463
v 0.398968 0.614812 -0.185529
v 0.374935 0.530098 0.265899
v -0.680032 0.471143 -0.200747
v -0.834224 0.316628 0.002782
vt 0.281556 0.946625
vt 0.314598 0.946625
vt 0.284400 0.973717
vt 0.270963 0.973717
vt 0.270963 0.032688
vt 0.284400 0.032688
vt 0.336850 0.059640
vt 0.298246 0.059640
vt 0.359014 0.140589
vt 0.306948 0.140589
vt 0.367128 0.221162
vt 0.310766 0.221162
vt 0.382066 0.301735
vt 0.324244 0.301735
vt 0.430287 0.382308
vt 0.360482 0.382308
vt 0.375818 0.425484
vt 0.466321 0.422594
vt 0.476927 0.462881
vt 0.383761 0.470194
vt 0.476927 0.543454
vt 0.383761 0.536141
vt 0.375818 0.580851
vt 0.466321 0.583741
vt 0.455627 0.624027
vt 0.379487 0.624027
vt 0.401923 0.704600
vt 0.339137 0.704600
vt 0.367128 0.785173
vt 0.310766 0.785173
vt 0.337866 0.865746
vt 0.291087 0.865746
vt 0.182432 0.946625
vt 0.215473 0.946625
vt 0.244090 0.973717
vt 0.230653 0.973717
vt 0.248515 0.946625
vt 0.257526 0.973717
vt 0.230653 0.032688
vt 0.244090 0.032688
vt 0.221036 0.059640
vt 0.182432 0.059640
vt 0.257526 0.032688
vt 0.259641 0.059640
vt 0.202817 0.140589
vt 0.150751 0.140589
vt 0.254882 0.140589
vt 0.198040 0.221162
vt 0.141678 0.221162
vt 0.254403 0.221162
vt 0.208600 0.301735
vt 0.150778 0.301735
vt 0.266422 0.301735
vt 0.220872 0.382308
vt 0.151068 0.382308
vt 0.290677 0.382308
vt 0.104308 0.434153
vt 0.194811 0.431263
vt 0.193764 0.484821
vt 0.011262 0.492134
vt 0.285314 0.428373
vt 0.284716 0.477508
vt 0.193764 0.521514
vt 0.011262 0.514201
vt 0.284716 0.528827
vt 0.104308 0.572182
vt 0.194811 0.575072
vt 0.227207 0.624027
vt 0.151068 0.624027
vt 0.285314 0.577962
vt 0.303347 0.624027
vt 0.213565 0.704600
vt 0.150778 0.704600
vt 0.276351 0.704600
vt 0.198040 0.785173
vt 0.141678 0.785173
vt 0.254403 0.785173
vt 0.197530 0.865746
vt 0.150751 0.865746
vt 0.244309 0.865746
vt 0.744386 0.087215
vt 0.734842 0.061296
vt 0.743669 0.061100
vt 0.771352 0.087163
vt 0.733119 0.937328
vt 0.759732 0.912122
vt 0.790723 0.911761
vt 0.741065 0.937001
vt 0.767306 0.837253
vt 0.810845 0.837285
vt 0.767551 0.761708
vt 0.814415 0.762324
vt 0.772322 0.683357
vt 0.820367 0.684106
vt 0.797585 0.608380
vt 0.858114 0.609568
vt 0.808091 0.572409
vt 0.793668 0.531812
vt 0.898169 0.538401
vt 0.888657 0.575495
vt 0.793936 0.468602
vt 0.898430 0.461735
vt 0.808473 0.427692
vt 0.815111 0.391773
vt 0.882996 0.390622
vt 0.889464 0.424305
vt 0.785929 0.317568
vt 0.839156 0.316925
vt 0.766526 0.239862
vt 0.813624 0.239521
vt 0.752030 0.163489
vt 0.790888 0.163520
vt 0.679318 0.087446
vt 0.720705 0.063319
vt 0.729062 0.062859
vt 0.706465 0.087342
vt 0.731706 0.061934
vt 0.726408 0.087261
vt 0.722466 0.937584
vt 0.681402 0.913442
vt 0.713435 0.913300
vt 0.730376 0.937739
vt 0.737447 0.912795
vt 0.731730 0.937795
vt 0.657377 0.837930
vt 0.700966 0.837646
vt 0.734460 0.837276
vt 0.651343 0.761926
vt 0.698726 0.761543
vt 0.731900 0.760987
vt 0.663690 0.685405
vt 0.710511 0.684244
vt 0.737728 0.682553
vt 0.668141 0.606210
vt 0.724524 0.605696
vt 0.753165 0.606406
vt 0.626903 0.559161
vt 0.538967 0.509586
vt 0.642919 0.516322
vt 0.702043 0.561685
vt 0.720444 0.524324
vt 0.752706 0.567265
vt 0.538967 0.491165
vt 0.642919 0.484430
vt 0.720681 0.476346
vt 0.626240 0.441863
vt 0.666541 0.395045
vt 0.728939 0.395582
vt 0.701270 0.439480
vt 0.764286 0.394449
vt 0.753021 0.433639
vt 0.662781 0.315251
vt 0.713909 0.316414
vt 0.745495 0.318176
vt 0.650461 0.238188
vt 0.698163 0.238741
vt 0.730065 0.240010
vt 0.655335 0.162486
vt 0.694183 0.162780
vt 0.723559 0.163289
vt 0.916964 0.136641
vt 0.908385 0.055220
vt 0.894321 0.075173
vt 0.903140 0.152818
vt 0.940117 0.461210
vt 0.939763 0.543345
vt 0.927382 0.541783
vt 0.927700 0.462456
vt 0.941075 0.704226
vt 0.954822 0.620738
vt 0.942352 0.611946
vt 0.927913 0.693891
vt 0.906245 0.976525
vt 0.905908 0.976443
vt 0.891919 0.954825
vt 0.892009 0.954985
vt 0.905876 0.027300
vt 0.908490 0.055069
vt 0.894230 0.074880
vt 0.891550 0.047912
vt 0.942942 0.703531
vt 0.933424 0.786497
vt 0.919277 0.773481
vt 0.929515 0.692547
vt 0.936232 0.491884
vt 0.956454 0.435920
vt 0.943989 0.441894
vt 0.923753 0.492908
vt 0.922866 0.137194
vt 0.932360 0.218973
vt 0.918353 0.232527
vt 0.908651 0.153887
vt 0.956533 0.569110
vt 0.936232 0.513000
vt 0.923753 0.511968
vt 0.944149 0.563264
vt 0.907439 0.948872
vt 0.905979 0.976130
vt 0.892060 0.954221
vt 0.893477 0.928105
vt 0.906447 0.027746
vt 0.906328 0.027405
vt 0.891870 0.048115
vt 0.891904 0.048775
vt 0.928814 0.218259
vt 0.915200 0.231148
vt 0.945008 0.382048
vt 0.943299 0.420626
vt 0.930725 0.423726
vt 0.932069 0.388874
vt 0.954693 0.384416
vt 0.942094 0.393451
vt 0.906237 0.976556
vt 0.891789 0.955043
vt 0.928944 0.786284
vt 0.915461 0.773069
vt 0.906163 0.028488
vt 0.906504 0.028242
vt 0.892223 0.049732
vt 0.892123 0.050209
vt 0.948881 0.622535
vt 0.936079 0.615421
vt 0.941746 0.583749
vt 0.929294 0.580165
vt 0.907447 0.949772
vt 0.893493 0.929844
vt 0.924302 0.867719
vt 0.910069 0.851044
vt 0.939451 0.300607
vt 0.926190 0.310886
vt 0.940413 0.301503
vt 0.927041 0.312618
vt 0.915625 0.868064
vt 0.901989 0.851711
vt 0.906294 0.976305
vt 0.892106 0.954560
vt 0.930788 0.145080
vt 0.922449 0.065365
vt 0.952533 0.462732
vt 0.952144 0.542145
vt 0.954237 0.700971
vt 0.967292 0.621558
vt 0.920481 0.966144
vt 0.919898 0.966144
vt 0.920202 0.038663
vt 0.922750 0.065365
vt 0.956370 0.700971
vt 0.947570 0.780384
vt 0.948711 0.491564
vt 0.968918 0.434417
vt 0.937082 0.145080
vt 0.946367 0.224493
vt 0.968918 0.570459
vt 0.948711 0.513313
vt 0.921400 0.939580
vt 0.920990 0.038663
vt 0.920786 0.038663
vt 0.942429 0.224493
vt 0.957946 0.383319
vt 0.955874 0.423025
vt 0.967292 0.383319
vt 0.920685 0.966144
vt 0.942427 0.780384
vt 0.961683 0.621558
vt 0.954198 0.581851
vt 0.938534 0.859797
vt 0.952711 0.303906
vt 0.953786 0.303906
vt 0.929262 0.859797
vn 0.766000 0.579400 0.278600
vn -0.639000 0.714800 0.284100
vn -0.641200 0.715500 0.277400
vn -0.502400 0.815800 0.286500
vn -0.388400 0.860000 0.331100
vn -0.299600 0.868100 0.395900
vn -0.113700 0.879900 0.461400
vn -0.002300 0.863800 0.503800
vn 0.003300 0.909500 0.415600
vn 0.285100 0.885900 0.365800
vn 0.499800 0.819200 0.281400
vn 0.651800 0.712800 0.258800
vn 0.783200 0.559100 0.272100
vn 0.071000 0.886700 0.456800
vn -0.018600 0.901800 0.431700
vn 0.805200 0.569500 0.165600
vn 0.796500 0.576500 0.182100
vn 0.776600 0.583500 0.237400
vn -0.642200 0.754100 0.137400
vn -0.633600 0.753900 0.173700
vn -0.630800 0.738100 0.239500
vn -0.612300 0.785800 0.087000
vn -0.616800 0.771500 0.156100
vn -0.625500 0.750300 0.214200
vn -0.540200 0.839400 0.059000
vn -0.536400 0.831600 0.143700
vn -0.525800 0.824200 0.210300
vn -0.394800 0.917600 0.047100
vn -0.412300 0.899700 0.143400
vn -0.409000 0.877700 0.249700
vn -0.265100 0.963700 -0.033100
vn -0.339500 0.929900 0.141600
vn -0.346600 0.878400 0.329100
vn -0.091100 0.951200 -0.294800
vn -0.053300 0.997700 0.042900
vn -0.076800 0.891200 0.447100
vn 0.004500 0.955300 -0.295600
vn 0.005400 0.999000 0.043400
vn 0.001900 0.913100 0.407600
vn 0.086200 0.984000 -0.156100
vn 0.208800 0.976300 0.056100
vn 0.099100 0.894300 0.436400
vn 0.290000 0.956900 -0.014600
vn 0.351800 0.924500 0.146400
vn 0.354300 0.877800 0.322400
vn 0.472300 0.879600 0.057400
vn 0.502900 0.850300 0.155100
vn 0.513800 0.822600 0.243500
vn 0.649900 0.756300 0.075600
vn 0.644300 0.746800 0.164800
vn 0.644600 0.732400 0.219200
vn 0.779800 0.616000 0.111700
vn 0.785100 0.597100 0.164500
vn 0.780800 0.581200 0.229500
vn 0.094200 0.956500 -0.276100
vn 0.115800 0.993200 0.008300
vn 0.071000 0.896600 0.437200
vn -0.110400 0.972500 -0.205200
vn -0.203800 0.975500 0.082500
vn -0.124100 0.882900 0.452800
vn -0.765400 -0.580500 -0.277800
vn 0.640300 -0.711400 -0.289600
vn 0.641500 -0.716200 -0.274800
vn 0.497900 -0.820600 -0.280400
vn 0.383500 -0.861500 -0.332900
vn -0.031400 -0.987500 -0.154500
vn -0.119600 -0.987900 0.098600
vn 0.004300 -0.996100 0.088200
vn 0.259800 -0.964500 0.046700
vn 0.044800 -0.986100 -0.159800
vn -0.493400 -0.819300 -0.292100
vn -0.641100 -0.725300 -0.251000
vn -0.780400 -0.567500 -0.262500
vn 0.186100 -0.978600 0.087200
vn -0.498200 -0.864800 0.063200
vn -0.803400 -0.574100 -0.157800
vn -0.791800 -0.580600 -0.189800
vn -0.776800 -0.581900 -0.240800
vn 0.638900 -0.757100 -0.136600
vn 0.630100 -0.754000 -0.185600
vn 0.633600 -0.733900 -0.244900
vn 0.610600 -0.787000 -0.088800
vn 0.614800 -0.772900 -0.157100
vn 0.623900 -0.752600 -0.210700
vn 0.541900 -0.837800 -0.066700
vn 0.536000 -0.832000 -0.143200
vn 0.523200 -0.827900 -0.202200
vn 0.388100 -0.920000 -0.054700
vn 0.410000 -0.900600 -0.144500
vn 0.407600 -0.881000 -0.240200
vn 0.141400 -0.961100 -0.237100
vn -0.063000 -0.939000 -0.338000
vn -0.164000 -0.958000 -0.235400
vn -0.505200 -0.847700 -0.161900
vn -0.390100 -0.867100 -0.309900
vn -0.273300 -0.896700 -0.348300
vn 0.027900 -0.999200 -0.029000
vn 0.003100 -0.969400 -0.245500
vn -0.007300 -0.953600 -0.301100
vn 0.383600 -0.854100 -0.351400
vn 0.348800 -0.854100 -0.385800
vn 0.349300 -0.893700 -0.281500
vn -0.153000 -0.959400 -0.237100
vn 0.063300 -0.953100 -0.295900
vn 0.161200 -0.957400 -0.239600
vn -0.467900 -0.881300 -0.066600
vn -0.503000 -0.849000 -0.161900
vn -0.510900 -0.827400 -0.233100
vn -0.643700 -0.760400 -0.085900
vn -0.636300 -0.751200 -0.175700
vn -0.635300 -0.741300 -0.216500
vn -0.784200 -0.610800 -0.109400
vn -0.782700 -0.598000 -0.172500
vn -0.775600 -0.585000 -0.237100
vn 0.514600 -0.839900 -0.172600
vn 0.366100 -0.878000 -0.308200
vn 0.303000 -0.898000 -0.319200
vn -0.386800 -0.861200 -0.329900
vn -0.326700 -0.840600 -0.432100
vn -0.379900 -0.874300 -0.302100
vn -0.430200 -0.590700 -0.682600
vn 0.005100 -0.991300 0.131800
vn 0.232500 -0.777000 -0.585000
vn -0.120500 -0.979300 -0.162900
vn -0.315200 -0.921900 0.225100
vn 0.285800 -0.897800 0.335000
vn 0.652200 -0.742100 -0.154400
vn -0.444300 -0.812500 0.377400
vn -0.639900 -0.751200 -0.161900
vn 0.026100 -0.998600 0.046600
vn -0.090200 -0.970200 -0.225000
vn -0.466200 -0.572100 -0.674700
vn 0.136400 -0.985100 0.104800
vn 0.384600 -0.881300 -0.274700
vn -0.124700 -0.972300 -0.197800
vn 0.387900 -0.639700 -0.663600
vn -0.130400 -0.975800 -0.175500
vn -0.053000 -0.987800 0.146600
vn -0.543400 -0.664700 0.512700
vn -0.417100 -0.907000 0.058800
vn 0.000000 -0.966700 -0.256000
vn -0.114300 -0.957100 -0.266200
vn 0.009700 -0.900500 -0.434800
vn 0.412900 -0.785000 0.461800
vn -0.434700 -0.598700 -0.672700
vn 0.091900 -0.987900 0.124900
vn 0.210300 -0.971100 0.113100
vn 0.379100 -0.636900 -0.671300
vn -0.107900 -0.988900 -0.101700
vn -0.229100 -0.862100 -0.452100
vn -0.161700 -0.980500 0.111900
vn -0.427400 -0.864300 -0.265200
vn -0.111000 -0.978100 -0.176100
vn 0.414800 -0.800800 0.432100
vn -0.264500 -0.916100 0.301200
vn -0.246600 -0.767000 -0.592300
vn -0.086700 -0.974700 -0.205800
vn 0.282700 -0.692600 -0.663600
vn 0.486300 -0.016700 -0.873600
vn 0.000200 -0.211100 0.977500
vn 0.107000 -0.367700 -0.923800
vn -0.984500 0.141700 0.103000
vn 0.687100 -0.301600 0.661000
vn -0.053800 -0.366500 0.928800
vn 0.872100 -0.095700 -0.479900
vn 0.225400 -0.303000 0.925900
vn -0.871300 -0.094400 -0.481600
vn -0.879000 -0.062800 0.472700
vn 0.988000 -0.085400 0.128900
vn 0.102800 0.011500 -0.994600
vn 0.259300 -0.187500 0.947400
vn 0.678200 -0.392700 -0.621200
vn -0.982900 0.139700 0.120300
vn 0.229500 -0.166400 -0.959000
vn 0.988800 -0.112300 0.098500
vn -0.484500 -0.391500 0.782300
vn 0.089700 -0.314500 0.945000
vn -0.691300 -0.204300 0.693100
vn 0.000000 0.295400 -0.955400
vn 0.989100 -0.100100 0.107800
vn -0.946000 0.092800 -0.310700
vn -0.241800 -0.179100 0.953600
vn -0.220500 -0.117500 -0.968300
vn 0.567400 -0.210200 0.796200
vn 0.274600 -0.183400 0.943900
vn -0.064800 -0.029600 -0.997500
vn -0.981700 0.130100 0.138800
vn 0.948100 -0.128100 -0.291000
vn -0.273000 -0.210700 0.938600
vn -0.695200 -0.382600 -0.608500
vn -0.981500 0.119700 0.149700
vn -0.011700 -0.204800 0.978700
vn 0.316800 -0.303900 0.898500
vn -0.105800 -0.338000 -0.935200
vn 0.984600 -0.082600 0.154100
vn -0.432300 0.030000 -0.901200
s off
f 72/1/1 28/2/1 4/3/1 36/4/1
f 35/5/2 2/6/2 17/7/2 39/8/2
f 39/8/3 17/7/3 18/9/3 42/10/3
f 42/10/4 18/9/4 19/11/4 45/12/4
f 45/12/5 19/11/5 20/13/5 48/14/5
f 48/14/6 20/13/6 21/15/6 51/16/6
f 78/17/7 32/18/7 22/19/7 54/20/7
f 54/20/8 22/19/8 23/21/8 57/22/8
f 75/23/9 30/24/9 24/25/9 60/26/9
f 60/26/10 24/25/10 25/27/10 63/28/10
f 63/28/11 25/27/11 26/29/11 66/30/11
f 66/30/12 26/29/12 27/31/12 69/32/12
f 69/32/13 27/31/13 28/2/13 72/1/13
f 57/22/14 23/21/14 30/24/14 75/23/14
f 51/16/15 21/15/15 32/18/15 78/17/15
f 5/33/16 74/34/16 38/35/16 3/36/16
f 74/34/17 73/37/17 37/38/17 38/35/17
f 73/37/18 72/1/18 36/4/18 37/38/18
f 1/39/19 33/40/19 41/41/19 16/42/19
f 33/40/20 34/43/20 40/44/20 41/41/20
f 34/43/21 35/5/21 39/8/21 40/44/21
f 16/42/22 41/41/22 44/45/22 15/46/22
f 41/41/23 40/44/23 43/47/23 44/45/23
f 40/44/24 39/8/24 42/10/24 43/47/24
f 15/46/25 44/45/25 47/48/25 14/49/25
f 44/45/26 43/47/26 46/50/26 47/48/26
f 43/47/27 42/10/27 45/12/27 46/50/27
f 14/49/28 47/48/28 50/51/28 13/52/28
f 47/48/29 46/50/29 49/53/29 50/51/29
f 46/50/30 45/12/30 48/14/30 49/53/30
f 13/52/31 50/51/31 53/54/31 12/55/31
f 50/51/32 49/53/32 52/56/32 53/54/32
f 49/53/33 48/14/33 51/16/33 52/56/33
f 31/57/34 80/58/34 56/59/34 11/60/34
f 80/58/35 79/61/35 55/62/35 56/59/35
f 79/61/36 78/17/36 54/20/36 55/62/36
f 11/60/37 56/59/37 59/63/37 10/64/37
f 56/59/38 55/62/38 58/65/38 59/63/38
f 55/62/39 54/20/39 57/22/39 58/65/39
f 29/66/40 77/67/40 62/68/40 9/69/40
f 77/67/41 76/70/41 61/71/41 62/68/41
f 76/70/42 75/23/42 60/26/42 61/71/42
f 9/69/43 62/68/43 65/72/43 8/73/43
f 62/68/44 61/71/44 64/74/44 65/72/44
f 61/71/45 60/26/45 63/28/45 64/74/45
f 8/73/46 65/72/46 68/75/46 7/76/46
f 65/72/47 64/74/47 67/77/47 68/75/47
f 64/74/48 63/28/48 66/30/48 67/77/48
f 7/76/49 68/75/49 71/78/49 6/79/49
f 68/75/50 67/77/50 70/80/50 71/78/50
f 67/77/51 66/30/51 69/32/51 70/80/51
f 6/79/52 71/78/52 74/34/52 5/33/52
f 71/78/53 70/80/53 73/37/53 74/34/53
f 70/80/54 69/32/54 72/1/54 73/37/54
f 10/64/55 59/63/55 77/67/55 29/66/55
f 59/63/56 58/65/56 76/70/56 77/67/56
f 58/65/57 57/22/57 75/23/57 76/70/57
f 12/55/58 53/54/58 80/58/58 31/57/58
f 53/54/59 52/56/59 79/61/59 80/58/59
f 52/56/60 51/16/60 78/17/60 79/61/60
f 81/81/61 82/82/61 83/83/61 84/84/61
f 85/85/62 86/86/62 87/87/62 88/88/62
f 86/86/63 89/89/63 90/90/63 87/87/63
f 89/89/64 91/91/64 92/92/64 90/90/64
f 91/91/65 93/93/65 94/94/65 92/92/65
f 93/93/66 95/95/66 96/96/66 94/94/66
f 97/97/67 98/98/67 99/99/67 100/100/67
f 98/98/68 101/101/68 102/102/68 99/99/68
f 103/103/69 104/104/69 105/105/69 106/106/69
f 104/104/70 107/107/70 108/108/70 105/105/70
f 107/107/71 109/109/71 110/110/71 108/108/71
f 109/109/72 111/111/72 112/112/72 110/110/72
f 111/111/73 81/81/73 84/84/73 112/112/73
f 101/101/74 103/103/74 106/106/74 102/102/74
f 95/95/75 97/97/75 100/100/75 96/96/75
f 113/113/76 114/114/76 115/115/76 116/116/76
f 116/116/77 115/115/77 117/117/77 118/118/77
f 118/118/78 117/117/78 82/82/78 81/81/78
f 119/119/79 120/120/79 121/121/79 122/122/79
f 122/122/80 121/121/80 123/123/80 124/124/80
f 124/124/81 123/123/81 86/86/81 85/85/81
f 120/120/82 125/125/82 126/126/82 121/121/82
f 121/121/83 126/126/83 127/127/83 123/123/83
f 123/123/84 127/127/84 89/89/84 86/86/84
f 125/125/85 128/128/85 129/129/85 126/126/85
f 126/126/86 129/129/86 130/130/86 127/127/86
f 127/127/87 130/130/87 91/91/87 89/89/87
f 128/128/88 131/131/88 132/132/88 129/129/88
f 129/129/89 132/132/89 133/133/89 130/130/89
f 130/130/90 133/133/90 93/93/90 91/91/90
f 131/131/91 134/134/91 135/135/91 132/132/91
f 132/132/92 135/135/92 136/136/92 133/133/92
f 133/133/93 136/136/93 95/95/93 93/93/93
f 137/137/94 138/138/94 139/139/94 140/140/94
f 140/140/95 139/139/95 141/141/95 142/142/95
f 142/142/96 141/141/96 98/98/96 97/97/96
f 138/138/97 143/143/97 144/144/97 139/139/97
f 139/139/98 144/144/98 145/145/98 141/141/98
f 141/141/99 145/145/99 101/101/99 98/98/99
f 146/146/100 147/147/100 148/148/100 149/149/100
f 149/149/101 148/148/101 150/150/101 151/151/101
f 151/151/102 150/150/102 104/104/102 103/103/102
f 147/147/103 152/152/103 153/153/103 148/148/103
f 148/148/104 153/153/104 154/154/104 150/150/104
f 150/150/105 154/154/105 107/107/105 104/104/105
f 152/152/106 155/155/106 156/156/106 153/153/106
f 153/153/107 156/156/107 157/157/107 154/154/107
f 154/154/108 157/157/108 109/109/108 107/107/108
f 155/155/109 158/158/109 159/159/109 156/156/109
f 156/156/110 159/159/110 160/160/110 157/157/110
f 157/157/111 160/160/111 111/111/111 109/109/111
f 158/158/112 113/113/112 116/116/112 159/159/112
f 159/159/113 116/116/113 118/118/113 160/160/113
f 160/160/114 118/118/114 81/81/114 111/111/114
f 143/143/115 146/146/115 149/149/115 144/144/115
f 144/144/116 149/149/116 151/151/116 145/145/116
f 145/145/117 151/151/117 103/103/117 101/101/117
f 134/134/118 137/137/118 140/140/118 135/135/118
f 135/135/119 140/140/119 142/142/119 136/136/119
f 136/136/120 142/142/120 97/97/120 95/95/120
f 161/161/121 162/162/121 113/163/121 158/164/121
f 163/165/122 164/166/122 99/167/122 102/168/122
f 165/169/123 166/170/123 134/171/123 131/172/123
f 167/173/124 168/174/124 119/175/124 122/176/124
f 169/177/125 170/178/125 84/179/125 83/180/125
f 171/181/126 172/182/126 92/183/126 94/184/126
f 173/185/127 174/186/127 146/187/127 143/188/127
f 175/189/128 176/190/128 110/191/128 112/192/128
f 177/193/129 178/194/129 138/195/129 137/196/129
f 179/197/130 180/198/130 88/199/130 87/200/130
f 181/201/131 182/202/131 82/203/131 117/204/131
f 183/205/132 161/161/132 158/164/132 155/206/132
f 184/207/133 185/208/133 106/209/133 105/210/133
f 174/186/134 186/211/134 147/212/134 146/187/134
f 187/213/135 167/173/135 122/176/135 124/214/135
f 188/215/136 165/169/136 131/172/136 128/216/136
f 189/217/137 190/218/137 115/219/137 114/220/137
f 191/221/138 171/181/138 94/184/138 96/222/138
f 170/178/139 175/189/139 112/192/139 84/179/139
f 192/223/140 191/221/140 96/222/140 100/224/140
f 178/194/141 173/185/141 143/188/141 138/195/141
f 190/218/142 181/201/142 117/204/142 115/219/142
f 168/174/143 193/225/143 120/226/143 119/175/143
f 194/227/144 179/197/144 87/200/144 90/228/144
f 195/229/145 183/205/145 155/206/145 152/230/145
f 196/231/146 184/207/146 105/210/146 108/232/146
f 185/208/147 163/165/147 102/168/147 106/209/147
f 197/233/148 188/215/148 128/216/148 125/234/148
f 198/235/149 187/213/149 124/214/149 85/236/149
f 162/162/150 189/217/150 114/220/150 113/163/150
f 164/166/151 192/223/151 100/224/151 99/167/151
f 166/170/152 177/193/152 137/196/152 134/171/152
f 180/198/153 198/235/153 85/236/153 88/199/153
f 172/182/154 194/227/154 90/228/154 92/183/154
f 176/190/155 196/231/155 108/232/155 110/191/155
f 186/211/156 195/229/156 152/230/156 147/212/156
f 182/202/157 169/177/157 83/180/157 82/203/157
f 193/225/158 197/233/158 125/234/158 120/226/158
f 6/237/159 5/238/159 162/162/159 161/161/159
f 23/239/160 22/240/160 164/166/160 163/165/160
f 13/241/161 12/242/161 166/170/161 165/169/161
f 33/243/162 1/244/162 168/174/162 167/173/162
f 4/245/163 28/246/163 170/178/163 169/177/163
f 20/247/164 19/248/164 172/182/164 171/181/164
f 10/249/165 29/250/165 174/186/165 173/185/165
f 27/251/166 26/252/166 176/190/166 175/189/166
f 31/253/167 11/254/167 178/194/167 177/193/167
f 17/255/168 2/244/168 180/198/168 179/197/168
f 37/256/169 36/257/169 182/202/169 181/201/169
f 7/258/170 6/237/170 161/161/170 183/205/170
f 24/259/171 30/260/171 185/208/171 184/207/171
f 29/250/172 9/261/172 186/211/172 174/186/172
f 34/262/173 33/243/173 167/173/173 187/213/173
f 14/263/174 13/241/174 165/169/174 188/215/174
f 3/245/175 38/257/175 190/218/175 189/217/175
f 21/264/176 20/247/176 171/181/176 191/221/176
f 28/246/177 27/251/177 175/189/177 170/178/177
f 32/265/178 21/264/178 191/221/178 192/223/178
f 11/254/179 10/249/179 173/185/179 178/194/179
f 38/257/180 37/256/180 181/201/180 190/218/180
f 1/244/181 16/255/181 193/225/181 168/174/181
f 18/266/182 17/255/182 179/197/182 194/227/182
f 8/267/183 7/258/183 183/205/183 195/229/183
f 25/268/184 24/259/184 184/207/184 196/231/184
f 30/260/185 23/239/185 163/165/185 185/208/185
f 15/269/186 14/263/186 188/215/186 197/233/186
f 35/243/187 34/262/187 187/213/187 198/235/187
f 5/238/188 3/245/188 189/217/188 162/162/188
f 22/240/189 32/265/189 192/223/189 164/166/189
f 12/242/190 31/253/190 177/193/190 166/170/190
f 2/244/191 35/243/191 198/235/191 180/198/191
f 19/248/192 18/266/192 194/227/192 172/182/192
f 26/252/193 25/268/193 196/231/193 176/190/193
f 9/261/194 8/267/194 195/229/194 186/211/194
f 36/257/195 4/245/195 169/177/195 182/202/195
f 16/255/196 15/269/196 197/233/196 193/225/196
