# Blender v2.76 (sub 0) OBJ File: 'npc_mutant_avian.blend'
# www.blender.org
v 0.054052 0.374044 -0.671910
v 0.042741 0.598639 -0.538845
v -0.036443 0.427753 -0.628203
v -0.080605 0.492894 -0.609512
v 0.022431 0.433145 -0.688754
v -0.042393 0.697049 -0.467939
v -0.000850 0.492758 -0.687807
v -0.019654 0.534284 -0.692533
v -0.155740 0.495506 -0.567123
v 0.002182 0.675505 -0.399067
v -0.030767 0.572429 -0.684048
v -0.153578 0.532846 -0.563467
v -0.037264 0.610583 -0.665945
v -0.104824 0.591623 -0.580372
v 0.030792 0.663389 -0.502976
v -0.048386 0.650029 -0.656400
v -0.198412 0.598377 -0.519620
v -0.002659 0.627263 -0.580819
v -0.052161 0.682996 -0.636928
v -0.189977 0.622495 -0.517611
v 0.013654 0.658094 -0.525447
v -0.055413 0.709385 -0.621822
v -0.120871 0.674614 -0.528722
v 0.013689 0.697519 -0.503320
v -0.067486 0.746178 -0.616457
v -0.154718 0.686385 -0.502565
v 0.019967 0.694604 -0.481983
v -0.066314 0.780568 -0.585506
v -0.129644 0.729644 -0.488255
v 0.011281 0.740533 -0.448259
v -0.075247 0.830811 -0.562452
v -0.098527 0.752260 -0.455478
v -0.077808 0.900187 -0.510267
v -0.088339 0.851669 -0.448847
v -0.022769 0.517608 -0.323504
v -0.071079 0.943619 -0.460247
v -0.076799 0.907921 -0.415607
v -0.034205 0.948043 -0.379801
v -0.132015 0.740070 -0.501662
v -0.121437 0.772357 -0.504467
v -0.018730 0.400036 -0.383582
v -0.108856 0.405572 -0.447902
v -0.023572 0.388719 -0.379979
v -0.210177 0.752672 -0.439347
v -0.208234 0.728169 -0.452253
v -0.219913 0.735144 -0.472333
v -0.222196 0.761680 -0.462428
v -0.228200 0.756714 -0.414498
v -0.223277 0.706598 -0.434721
v -0.246660 0.720454 -0.476480
v -0.246443 0.772018 -0.454254
v -0.251503 0.745537 -0.414822
v -0.248255 0.711553 -0.428633
v -0.263971 0.721038 -0.456895
v -0.265627 0.755646 -0.442534
v 0.033890 0.479841 -0.543823
v -0.009565 0.631314 -0.350493
v 0.000108 0.383235 -0.494805
v -0.095792 0.668455 -0.511853
v -0.080500 0.689991 -0.478288
v -0.062495 0.712533 -0.461731
v -0.095616 0.756157 -0.442471
v 0.009661 0.720322 -0.434113
v -0.062024 0.709616 -0.444496
v -0.008275 0.725648 -0.398454
v -0.032531 0.473336 -0.511731
v -0.063714 0.744624 -0.404153
v -0.041283 0.723615 -0.407383
v -0.012693 0.728645 -0.340756
v -0.035459 0.771961 -0.299588
v -0.050040 0.742029 -0.344152
v -0.038318 0.725916 -0.363744
v -0.125830 0.696456 -0.486640
v 0.021340 0.693936 -0.478224
v 0.007879 0.718248 -0.437084
v -0.019622 0.706329 -0.462537
v -0.130411 0.604661 -0.560570
v -0.095524 0.637890 -0.524067
v -0.011009 0.353027 -0.475146
v -0.109573 0.377769 -0.432049
v -0.030388 0.395621 -0.363093
v -0.141983 0.351616 -0.405946
v -0.023538 0.322915 -0.452592
v -0.035634 0.402310 -0.340270
v -0.151854 0.341929 -0.340359
v -0.025307 0.285717 -0.341762
v -0.032627 0.385686 -0.292042
v -0.093624 0.347475 -0.289407
v -0.026485 0.317099 -0.289003
v -0.181063 0.675840 -0.504906
v -0.187263 0.700265 -0.479227
v -0.245805 0.758701 -0.438449
v -0.279007 0.745573 -0.465854
v -0.249832 0.766072 -0.463229
v -0.506404 1.187818 -0.255490
v -0.366007 1.020290 -0.348419
v -0.523451 1.169251 -0.257699
v -0.393084 1.010929 -0.368788
v -0.370844 1.027854 -0.367021
v -0.498215 1.179834 -0.238773
v -0.567303 1.291403 0.050070
v -0.114379 0.624249 -0.412555
v -0.563890 0.272866 0.162966
v -0.605446 1.139321 -0.198064
v -0.622409 0.971648 -0.208514
v -0.685617 0.830775 -0.111861
v -0.804141 0.671694 -0.016849
v -0.745066 0.721577 -0.229526
v -0.673406 0.656219 -0.353811
v -0.520607 0.404590 -0.164344
v -0.569685 0.762048 -0.354407
v -0.391962 0.536520 -0.349649
v -0.539503 0.851032 -0.300252
v -0.303962 0.441824 -0.348540
v -0.565270 0.941780 -0.259494
v -0.541375 0.794828 -0.304301
v -0.130609 0.467692 -0.268486
v -0.185329 0.449343 -0.269578
v -0.172055 0.453340 -0.316863
v -0.132137 0.483674 -0.312249
v -0.158181 0.520675 -0.248670
v -0.205953 0.495954 -0.252798
v -0.195253 0.502362 -0.301824
v -0.161139 0.523568 -0.292971
v -0.151759 0.480518 -0.227144
v -0.182581 0.472174 -0.231771
v -0.123272 0.368294 -0.217240
v -0.097390 0.373992 -0.213645
v -0.104114 0.378685 -0.191380
v -0.122915 0.371804 -0.192026
v -0.118138 0.333013 -0.201339
v -0.119034 0.352652 -0.173107
v -0.085994 0.341818 -0.196304
v -0.094386 0.362035 -0.172256
v -0.194755 0.511876 -0.075111
v -0.225178 0.496953 -0.072953
v -0.183441 0.498048 -0.065244
v -0.217238 0.480782 -0.063492
v -0.255532 0.633196 0.065888
v -0.287842 0.617312 0.068557
v -0.243699 0.615959 0.076588
v -0.281048 0.599629 0.078635
v -0.242653 0.663557 0.140656
v -0.321397 0.620120 0.141077
v -0.220804 0.633169 0.137825
v -0.311116 0.587704 0.133954
v -0.281801 0.640469 0.157026
v -0.262757 0.608193 0.151494
v -0.222237 0.652141 0.166509
v -0.242214 0.679231 0.181874
v -0.282803 0.650914 0.186351
v -0.267306 0.624331 0.177530
v -0.208448 0.635191 0.190379
v -0.219454 0.646235 0.220522
v -0.258567 0.618647 0.219831
v -0.252666 0.607376 0.191526
v -0.188209 0.505080 0.251424
v -0.276678 0.601223 0.178790
v -0.335219 0.616075 0.188441
v -0.288646 0.619118 0.206250
v -0.328507 0.594753 0.157862
v -0.296631 0.574656 0.217268
v -0.289305 0.569701 0.190578
v -0.334104 0.576122 0.207476
v -0.330114 0.567505 0.179752
v -0.303577 0.445532 0.236494
v -0.259189 0.589172 0.117205
v -0.285800 0.580335 0.081301
v -0.235776 0.589042 0.079794
v -0.217509 0.577673 0.136329
v -0.241867 0.551124 0.115534
v -0.203486 0.566037 0.101135
v -0.180985 0.563620 0.204610
v -0.097770 0.797442 -0.444612
v -0.067906 0.854717 -0.527346
v -0.093154 0.795915 -0.482011
v -0.264060 0.731656 -0.432380
v 0.031032 0.435554 -0.668847
v 0.008691 0.505499 -0.657377
v 0.002468 0.535148 -0.645754
v -0.007763 0.570845 -0.637463
v -0.015686 0.606984 -0.623998
v -0.042012 0.874259 -0.457227
v -0.045454 0.918499 -0.427717
v -0.028475 0.772596 -0.442958
v -0.025119 0.761140 -0.401414
v -0.024572 0.753710 -0.342416
v -0.027827 0.824090 -0.471782
v -0.018103 0.776602 -0.496756
v 0.100993 0.463458 -0.701708
v 0.097264 0.545430 -0.701748
v 0.099076 0.676417 -0.431300
v 0.162977 0.599373 -0.722233
v 0.141907 0.629671 -0.708263
v 0.069580 0.647026 -0.671213
v 0.146948 0.720123 -0.691946
v 0.130281 0.735417 -0.678000
v 0.056424 0.737600 -0.622663
v 0.079713 0.774437 -0.623243
v 0.057655 0.798636 -0.582542
v 0.059572 0.799732 -0.532935
v -0.001285 0.885569 -0.490412
v -0.017235 0.931637 -0.444213
v 0.043327 0.805909 -0.589176
v 0.020518 0.825989 -0.572819
v 0.084723 0.385768 -0.415522
v 0.120782 0.872000 -0.602659
v 0.122016 0.848042 -0.617180
v 0.108747 0.856340 -0.636812
v 0.105043 0.862340 -0.635959
v 0.146697 0.890519 -0.599714
v 0.155464 0.844994 -0.616341
v 0.126072 0.857931 -0.665237
v 0.118840 0.906601 -0.639945
v 0.163201 0.893828 -0.621028
v 0.168111 0.860781 -0.638202
v 0.149195 0.871701 -0.665520
v 0.144285 0.904748 -0.648346
v 0.063137 0.715033 -0.586737
v 0.072506 0.732362 -0.533920
v 0.063766 0.744203 -0.504237
v 0.048491 0.812815 -0.457864
v 0.065956 0.757025 -0.456213
v 0.067527 0.473568 -0.484178
v 0.014189 0.780147 -0.399864
v 0.017467 0.750220 -0.404706
v 0.000566 0.766181 -0.341580
v 0.007353 0.747713 -0.361423
v 0.188111 0.625756 -0.425643
v 0.050984 0.710664 -0.445479
v 0.085236 0.677527 -0.670995
v 0.070963 0.686873 -0.604222
v 0.069361 0.368967 -0.407538
v 0.084617 0.368383 -0.388424
v 0.089923 0.354947 -0.331431
v 0.033901 0.338610 -0.288133
v 0.215351 0.599428 -0.475171
v 0.259839 0.594627 -0.439059
v 0.349734 0.612226 -0.428382
v 0.359991 0.583004 -0.461042
v 0.348224 0.616069 -0.454219
v 0.682257 0.900573 -0.164057
v 0.549724 0.789998 -0.330458
v 0.688942 0.876466 -0.160267
v 0.575545 0.769555 -0.335207
v 0.565865 0.791742 -0.342517
v 0.662583 0.896753 -0.161118
v 0.735713 0.973211 0.147786
v 0.125395 0.575305 -0.361821
v 0.595949 -0.050491 -0.153712
v 0.769586 0.802937 -0.100897
v 0.806221 0.634344 -0.238247
v 0.851892 0.482559 -0.279802
v 0.946972 0.304804 -0.251608
v 0.863101 0.365916 -0.448837
v 0.781596 0.330680 -0.577078
v 0.637159 0.134253 -0.466127
v 0.664781 0.465689 -0.485014
v 0.555196 0.371682 -0.511365
v 0.676412 0.551011 -0.396159
v 0.455030 0.359710 -0.485599
v 0.743138 0.629764 -0.303649
v 0.650646 0.500868 -0.417156
v 0.049852 0.439000 -0.217964
v 0.106332 0.437305 -0.235094
v 0.091792 0.454732 -0.265740
v 0.047593 0.471436 -0.250052
v 0.069427 0.474654 -0.175331
v 0.120305 0.465061 -0.191885
v 0.106378 0.496819 -0.228395
v 0.069674 0.504391 -0.213373
v 0.070593 0.428835 -0.185052
v 0.102092 0.429933 -0.193488
v 0.060284 0.335267 -0.255713
v 0.034095 0.333012 -0.250978
v 0.041267 0.323037 -0.231151
v 0.060823 0.321010 -0.234623
v 0.062165 0.294746 -0.264143
v 0.060436 0.298490 -0.227763
v 0.029202 0.294665 -0.257531
v 0.034722 0.302025 -0.225468
v 0.106695 0.419249 -0.072788
v 0.139184 0.409453 -0.073982
v 0.097775 0.401173 -0.069590
v 0.133992 0.389903 -0.071767
v 0.144280 0.486587 0.107042
v 0.178642 0.475805 0.106188
v 0.133684 0.467580 0.110887
v 0.174151 0.454565 0.108391
v 0.132428 0.499858 0.186279
v 0.222149 0.473257 0.164708
v 0.115403 0.468571 0.178405
v 0.213637 0.438498 0.154776
v 0.178677 0.481351 0.193273
v 0.166758 0.448636 0.183299
v 0.116815 0.479587 0.210149
v 0.134500 0.509064 0.225744
v 0.180103 0.487985 0.223724
v 0.167553 0.458383 0.205743
v 0.112308 0.461282 0.245403
v 0.127247 0.478216 0.272579
v 0.170101 0.458887 0.264195
v 0.160582 0.440574 0.238473
v 0.134872 0.341697 0.326367
v 0.191688 0.443722 0.217483
v 0.248010 0.469555 0.206768
v 0.208094 0.468650 0.239235
v 0.235592 0.441433 0.182157
v 0.227225 0.429288 0.253030
v 0.213132 0.419413 0.230517
v 0.259734 0.432352 0.231886
v 0.249011 0.419149 0.207682
v 0.255774 0.306445 0.287380
v 0.145859 0.428388 0.136669
v 0.175013 0.435935 0.100436
v 0.121499 0.447955 0.103711
v 0.097868 0.406110 0.140064
v 0.120832 0.398884 0.106823
v 0.085846 0.425063 0.107818
v 0.048171 0.352012 0.173879
v 0.040550 0.845082 -0.506200
v 0.011431 0.835259 -0.530630
v 0.162835 0.885518 -0.646469
v -0.079293 0.458304 -0.393574
v 0.054761 0.435913 -0.367660
v 0.104233 0.490584 -0.379898
v -0.112100 0.524720 -0.430115
vt 0.474247 1.000024
vt 0.432881 1.000024
vt 0.434057 0.893539
vt 0.509861 1.000024
vt 0.500227 0.768354
vt 0.559969 0.937079
vt 0.645064 0.954173
vt 0.560228 0.940601
vt 0.583639 0.999781
vt 0.500485 0.773130
vt 0.557266 0.999781
vt 0.078178 0.645053
vt 0.145329 0.600948
vt 0.009554 0.578044
vt 0.629598 0.999781
vt 0.656534 0.999781
vt 0.043058 0.667957
vt 0.009554 0.620213
vt 0.512543 0.981892
vt 0.471564 0.821771
vt 0.527454 0.989559
vt 0.480692 0.821771
vt 0.462656 0.892018
vt 0.010156 0.671319
vt 0.079997 0.644406
vt 0.044254 0.667717
vt 0.462330 0.893296
vt 0.363979 0.871999
vt 0.417906 0.999781
vt 0.180894 0.905878
vt 0.211214 0.926339
vt 0.151369 0.927184
vt 0.432105 0.999781
vt 0.359627 0.798296
vt 0.329341 0.825147
vt 0.386839 0.999781
vt 0.298881 0.891138
vt 0.380070 1.000024
vt 0.307338 1.000024
vt 0.334880 0.898555
vt 0.095969 0.432562
vt 0.010156 0.431276
vt 0.010156 0.398660
vt 0.265186 1.000024
vt 0.239898 1.000024
vt 0.239968 0.910398
vt 0.267768 0.860783
vt 0.297710 0.999781
vt 0.009554 0.431384
vt 0.093871 0.436902
vt 0.086972 0.413221
vt 0.202414 0.914836
vt 0.196688 0.802296
vt 0.184322 0.800589
vt 0.117628 0.999781
vt 0.102109 0.947707
vt 0.039265 0.964220
vt 0.191148 0.775024
vt 0.167133 0.773191
vt 0.225497 0.888506
vt 0.213084 0.801976
vt 0.224475 0.802438
vt 0.186573 0.800832
vt 0.225358 0.895351
vt 0.222224 0.802195
vt 0.819590 0.933905
vt 0.741830 1.002771
vt 0.745676 0.981737
vt 0.169384 0.773434
vt 0.219437 0.773434
vt 0.241200 0.775024
vt 0.678604 0.929671
vt 0.702745 0.932100
vt 0.798477 0.934975
vt 0.755545 0.885339
vt 0.756364 0.860805
vt 0.008395 0.999781
vt 0.050191 0.999781
vt 0.006807 0.579017
vt 0.088521 0.542699
vt 0.142997 0.606255
vt 0.106762 0.390629
vt 0.009554 0.409522
vt 0.821998 0.059350
vt 0.793626 0.064078
vt 0.821998 0.017938
vt 0.109088 0.385467
vt 0.010156 0.356430
vt 0.010156 0.294247
vt 0.164845 0.936891
vt 0.132684 0.917898
vt 0.158955 0.999781
vt 0.251493 0.999781
vt 0.121032 0.522092
vt 0.010156 0.538976
vt 0.229751 1.000024
vt 0.202874 0.960390
vt 0.297894 0.904225
vt 0.270019 0.861025
vt 0.821997 0.148207
vt 0.768986 0.140328
vt 0.781726 0.108721
vt 0.175211 1.000024
vt 0.138634 1.000024
vt 0.092576 1.000024
vt 0.033907 1.000024
vt 0.054982 0.974363
vt 0.091565 0.955891
vt 0.098755 0.966742
vt 0.006807 0.497303
vt 0.006807 0.433747
vt 0.061283 0.470065
vt 0.131496 0.917612
vt 0.004047 1.000024
vt 0.032968 0.971590
vt 0.648570 0.954416
vt 0.658785 1.000024
vt 0.609179 1.000024
vt 0.010156 0.635279
vt 0.299877 0.892636
vt 0.355604 0.794775
vt 0.202357 0.999781
vt 0.088947 0.408461
vt 0.428579 0.656093
vt 0.423662 0.696384
vt 0.468944 0.689061
vt 0.531845 0.681720
vt 0.536419 0.712644
vt 0.610352 0.692828
vt 0.102623 0.365689
vt 0.112804 0.333641
vt 0.080802 0.297116
vt 0.248096 0.339680
vt 0.277080 0.531051
vt 0.282148 0.327738
vt 0.196955 0.568250
vt 0.171694 0.589610
vt 0.275180 0.560080
vt 0.523059 0.538596
vt 0.753690 0.411864
vt 0.394870 0.237242
vt 0.280495 0.557925
vt 0.282428 0.528381
vt 0.532773 0.536061
vt 0.269459 0.553689
vt 0.519237 0.554218
vt 0.535788 0.556253
vt 0.716599 0.481061
vt 0.595223 0.398790
vt 0.437154 0.342183
vt 0.464362 0.360988
vt 0.701500 0.500488
vt 0.703680 0.484556
vt 0.526021 0.558436
vt 0.709844 0.503462
vt 0.127878 0.521223
vt 0.090830 0.544067
vt 0.505343 0.387091
vt 0.948055 0.392623
vt 0.722873 0.500303
vt 0.965311 0.387497
vt 0.008771 0.540307
vt 0.173246 0.589150
vt 0.118191 0.524020
vt 0.665937 0.364567
vt 0.539998 0.204645
vt 0.660993 0.264792
vt 0.287140 0.166653
vt 0.009554 0.494631
vt 0.009554 0.385842
vt 0.124838 0.524541
vt 0.197472 0.569937
vt 0.278223 0.559193
vt 0.280150 0.529746
vt 0.065707 0.507251
vt 0.148340 0.599519
vt 0.175172 0.587980
vt 0.469280 0.659417
vt 0.505147 0.691113
vt 0.358231 0.813259
vt 0.396762 0.861519
vt 0.463835 0.781576
vt 0.334361 0.622665
vt 0.318366 0.723370
vt 0.458201 0.720399
vt 0.455465 0.629717
vt 0.535658 0.660000
vt 0.620783 0.673963
vt 0.453440 0.629177
vt 0.584055 0.653212
vt 0.584827 0.677850
vt 0.503016 0.653376
vt 0.539342 0.629326
vt 0.620698 0.651899
vt 0.732105 0.651967
vt 0.728838 0.643284
vt 0.621615 0.624442
vt 0.632604 0.637198
vt 0.636322 0.685307
vt 0.636814 0.636255
vt 0.621290 0.624515
vt 0.619952 0.697967
vt 0.621630 0.699173
vt 0.734007 0.671131
vt 0.729414 0.682004
vt 0.844311 0.686359
vt 0.621380 0.674077
vt 0.636178 0.688381
vt 0.733584 0.644686
vt 0.849901 0.650483
vt 0.851008 0.673148
vt 0.928244 0.660805
vt 0.843633 0.637183
vt 0.730695 0.682992
vt 0.844925 0.638417
vt 0.740409 0.775706
vt 0.713106 0.780706
vt 0.704568 0.818200
vt 0.896603 0.625215
vt 0.878631 0.609036
vt 0.785632 0.738775
vt 0.737278 0.738859
vt 0.880723 0.715185
vt 0.913616 0.613223
vt 0.897236 0.601821
vt 0.730897 0.812957
vt 0.780941 0.817868
vt 0.792510 0.817868
vt 0.790023 0.778792
vt 0.898074 0.698036
vt 0.711846 0.726905
vt 0.683097 0.727238
vt 0.685751 0.762377
vt 0.965266 0.662943
vt 0.955920 0.640956
vt 0.937049 0.627702
vt 0.714789 0.764119
vt 0.941121 0.702714
vt 0.919603 0.714522
vt 0.932540 0.731689
vt 0.929544 0.592491
vt 0.912862 0.581726
vt 0.967203 0.616180
vt 0.950630 0.603144
vt 0.902827 0.726042
vt 0.957928 0.692611
vt 0.950735 0.721911
vt 0.964856 0.713499
vt 0.615440 0.761890
vt 0.984016 0.535583
vt 0.918749 0.741460
vt 0.685114 0.782002
vt 0.679087 0.810945
vt 0.847072 0.686366
vt 0.914720 0.615321
vt 0.929979 0.594898
vt 0.950087 0.605671
vt 0.608583 0.784975
vt 0.984016 0.786714
vt 0.799318 0.743667
vt 0.831117 0.767611
vt 0.823981 0.791937
vt 0.982769 0.539053
vt 0.825639 0.742255
vt 0.886191 0.771748
vt 0.391135 0.800147
vt 0.375753 0.599215
vt 0.324001 0.784547
vt 0.429296 0.757561
vt 0.279186 0.533620
vt 0.270107 0.551779
vt 0.178643 0.905635
vt 0.750796 0.933481
vt 0.821997 0.285131
vt 0.821997 0.331456
vt 0.791374 0.330169
vt 0.821998 0.110806
vt 0.821997 0.238271
vt 0.779153 0.273656
vt 0.544401 1.000024
vt 0.473816 0.822014
vt 0.821997 0.190377
vt 0.754407 0.181463
vt 0.759288 0.228469
vt 0.375409 0.872242
vt 0.334031 0.621557
vt 0.821996 0.381399
vt 0.647236 0.956984
vt 0.563654 0.943411
vt 0.541813 1.000083
vt 0.434491 1.000083
vt 0.389226 1.000083
vt 0.329218 0.822939
vt 0.586026 1.000083
vt 0.561360 0.944666
vt 0.644941 0.954474
vt 0.559653 1.000083
vt 0.500362 0.770922
vt 0.043124 0.669810
vt 0.006807 0.660730
vt 0.006807 0.624413
vt 0.658921 1.000083
vt 0.631985 1.000083
vt 0.064720 0.466534
vt 0.558639 0.973714
vt 0.530104 0.984870
vt 0.473951 0.822073
vt 0.493413 0.964305
vt 0.434192 0.893597
vt 0.295305 0.904284
vt 0.262597 1.000083
vt 0.304749 1.000083
vt 0.376800 0.873555
vt 0.178305 0.905936
vt 0.128907 0.917671
vt 0.148780 0.927242
vt 0.502657 0.770922
vt 0.507272 1.000083
vt 0.353495 1.000083
vt 0.300013 0.892694
vt 0.377481 1.000083
vt 0.332291 0.898614
vt 0.094303 0.434241
vt 0.087304 0.410219
vt 0.008771 0.400451
vt 0.237380 0.910457
vt 0.237309 1.000083
vt 0.300096 1.000083
vt 0.270155 0.861084
vt 0.006807 0.415589
vt 0.088521 0.415589
vt 0.186709 0.800890
vt 0.199074 0.802597
vt 0.204801 0.915138
vt 0.120014 1.000083
vt 0.052578 1.000083
vt 0.041652 0.964521
vt 0.169520 0.773492
vt 0.193534 0.775326
vt 0.221886 0.802496
vt 0.210495 0.802034
vt 0.222908 0.888565
vt 0.183984 0.800890
vt 0.224610 0.802496
vt 0.227744 0.895652
vt 0.818979 0.933781
vt 0.797866 0.934852
vt 0.745065 0.981613
vt 0.216848 0.773492
vt 0.166795 0.773492
vt 0.243587 0.775326
vt 0.240862 0.775326
vt 0.741219 1.002647
vt 0.702134 0.931977
vt 0.754934 0.885215
vt 0.677993 0.929547
vt 0.030379 0.971649
vt 0.004640 1.000083
vt 0.031318 1.000083
vt 0.390828 0.798355
vt 0.376482 0.598671
vt 0.336115 0.622653
vt 0.006807 0.406510
vt 0.106679 0.388351
vt 0.851059 0.063308
vt 0.457276 0.719815
vt 0.453813 0.628344
vt 0.253879 1.000083
vt 0.204744 1.000083
vt 0.225632 0.888565
vt 0.161342 1.000083
vt 0.104496 0.948009
vt 0.135070 0.918200
vt 0.167232 0.937192
vt 0.355525 0.798597
vt 0.332768 0.820429
vt 0.208625 0.926398
vt 0.267430 0.861084
vt 0.864773 0.108127
vt 0.136045 1.000083
vt 0.172622 1.000083
vt 0.052394 0.974421
vt 0.089988 1.000083
vt 0.088976 0.955950
vt 0.096166 0.966800
vt 0.606590 1.000083
vt 0.656197 1.000083
vt 0.078383 0.645391
vt 0.146502 0.600651
vt 0.008771 0.636294
vt 0.200285 0.960449
vt 0.180124 1.000083
vt 0.042758 0.668625
vt 0.008771 0.672215
vt 0.297289 0.892694
vt 0.107379 0.387301
vt 0.008771 0.358360
vt 0.428686 0.656513
vt 0.468892 0.659410
vt 0.468203 0.688038
vt 0.531875 0.681591
vt 0.621501 0.673619
vt 0.608476 0.692734
vt 0.251948 0.333875
vt 0.279186 0.324796
vt 0.279186 0.560858
vt 0.760390 0.406510
vt 0.524328 0.542699
vt 0.397217 0.234002
vt 0.532678 0.557526
vt 0.529674 0.537400
vt 0.524328 0.551779
vt 0.719149 0.501760
vt 0.712896 0.482582
vt 0.596962 0.397430
vt 0.442614 0.342954
vt 0.469852 0.361113
vt 0.714994 0.488223
vt 0.705914 0.497303
vt 0.714994 0.506382
vt 0.533407 0.560858
vt 0.185212 0.068914
vt 0.118861 0.520693
vt 0.506169 0.388351
vt 0.960135 0.388351
vt 0.960792 0.389324
vt 0.669597 0.361113
vt 0.542487 0.197685
vt 0.705914 0.097813
vt 0.669597 0.261240
vt 0.288266 0.161368
vt 0.117270 0.522284
vt 0.006807 0.379272
vt 0.198872 0.567482
vt 0.136648 0.556264
vt 0.227162 1.000083
vt 0.376585 0.873555
vt 0.431468 0.893597
vt 0.502840 0.652110
vt 0.505978 0.691525
vt 0.357939 0.812192
vt 0.429570 0.757383
vt 0.464592 0.782081
vt 0.086436 0.358292
vt 0.458958 0.720904
vt 0.335392 0.623349
vt 0.318170 0.722492
vt 0.453772 0.629519
vt 0.502319 0.652263
vt 0.535541 0.658953
vt 0.620485 0.651860
vt 0.585286 0.677959
vt 0.585036 0.653036
vt 0.537196 0.712397
vt 0.539568 0.628809
vt 0.609924 0.637981
vt 0.736240 0.644628
vt 0.738065 0.654240
vt 0.620479 0.651731
vt 0.636644 0.688789
vt 0.634341 0.636845
vt 0.620659 0.626212
vt 0.621630 0.626169
vt 0.634415 0.636711
vt 0.621747 0.698284
vt 0.637904 0.688632
vt 0.622722 0.698509
vt 0.739936 0.673088
vt 0.855011 0.675072
vt 0.848424 0.688066
vt 0.735290 0.683841
vt 0.733904 0.683902
vt 0.735955 0.644357
vt 0.853922 0.652780
vt 0.930976 0.662932
vt 0.847757 0.639699
vt 0.846770 0.687464
vt 0.844901 0.639940
vt 0.705288 0.816480
vt 0.713826 0.778987
vt 0.740720 0.773576
vt 0.882179 0.612015
vt 0.899856 0.627928
vt 0.785942 0.736645
vt 0.737589 0.736729
vt 0.901302 0.699551
vt 0.884237 0.716418
vt 0.900479 0.604918
vt 0.916589 0.616133
vt 0.731208 0.810827
vt 0.781252 0.815738
vt 0.790334 0.776663
vt 0.792820 0.815738
vt 0.685652 0.759838
vt 0.682998 0.724699
vt 0.711337 0.723956
vt 0.939637 0.630374
vt 0.958197 0.643410
vt 0.714280 0.761171
vt 0.943641 0.704152
vt 0.953097 0.723032
vt 0.935201 0.732650
vt 0.915847 0.585154
vt 0.932255 0.595743
vt 0.952994 0.606220
vt 0.969294 0.619042
vt 0.922477 0.715765
vt 0.905978 0.727096
vt 0.960172 0.694215
vt 0.966986 0.714759
vt 0.617389 0.759351
vt 0.985830 0.539770
vt 0.921638 0.742261
vt 0.680217 0.809225
vt 0.686244 0.780282
vt 0.937908 0.632033
vt 0.914075 0.616766
vt 0.799629 0.741538
vt 0.950384 0.606690
vt 0.929177 0.595962
vt 0.606845 0.782846
vt 0.985831 0.786770
vt 0.825950 0.740125
vt 0.831428 0.765482
vt 0.824292 0.789807
vt 0.983405 0.540292
vt 0.886502 0.769618
vt 0.079441 0.642572
vt 0.323805 0.783669
vt 0.434321 0.717690
vt 0.181030 0.905936
vt 0.750185 0.933357
vt 0.852619 0.330170
vt 0.864841 0.273657
vt 0.471659 1.000083
vt 0.471227 0.822073
vt 0.875009 0.140328
vt 0.884706 0.228470
vt 0.005478 0.997961
vt 0.114251 0.350647
vt 0.008771 0.296380
vt 0.128249 0.435302
vt 0.008771 0.432960
vt 0.118380 0.522092
vt 0.175368 0.588619
vt 0.080720 0.522092
vt 0.116882 0.518706
vt 0.184949 0.068196
vt 0.118473 0.523480
vt 0.062823 0.510229
vt 0.088521 0.433747
vt 0.009554 0.660973
vt 0.474881 0.981892
vt 0.498876 0.974226
vt 0.010156 0.675711
vt 0.499828 0.971670
vt 0.345428 0.798296
vt 0.351108 0.999781
vt 0.009554 0.417542
vt 0.227609 0.895594
vt 0.243451 0.775267
vt 0.115982 0.348692
vt 0.223246 0.888263
vt 0.129915 0.437866
vt 0.182713 1.000024
vt 0.326573 0.827899
vt 0.051738 0.313685
vt 0.695543 0.105347
vt 0.187334 0.073157
vt 0.119252 0.520838
vt 0.200882 0.566241
vt 0.375541 0.599880
vt 0.459519 0.720731
vt 0.609394 0.637996
vt 0.636730 0.636125
vt 0.637405 0.688736
vt 0.938273 0.630062
vt 0.434214 0.717270
vt 0.356995 0.797342
vt 0.225020 0.895652
vt 0.755753 0.860681
vt 0.008771 0.676593
vt 0.423936 0.696206
vt 0.170235 0.588096
vt 0.430293 1.000083
vt 0.396997 0.861241
vt 0.057372 0.374862
vt 0.634627 0.636963
vt 0.637990 0.688597
vt 0.967389 0.665035
vt 0.889587 0.181464
vt 0.376483 0.598964
vn 0.476100 -0.123400 0.870600
vn 0.512600 -0.575900 0.636800
vn -0.614200 -0.736500 0.283500
vn 0.480700 -0.157500 0.862600
vn -0.698400 -0.579600 0.419800
vn 0.009600 -0.943500 0.331200
vn -0.498900 -0.697900 0.513700
vn -0.412800 -0.205600 -0.887300
vn -0.421400 -0.124600 -0.898300
vn -0.133900 0.974400 -0.180300
vn -0.269100 0.962800 -0.024600
vn -0.118500 0.510900 0.851400
vn -0.390600 -0.295900 -0.871700
vn 0.340100 -0.937700 0.070100
vn -0.467700 0.138200 0.873000
vn -0.143900 0.731700 0.666200
vn -0.775200 0.229500 0.588500
vn -0.494100 0.198100 -0.846500
vn 0.202300 0.544300 -0.814100
vn -0.107700 -0.972700 -0.205700
vn -0.502600 0.180600 -0.845400
vn -0.640800 0.030000 0.767100
vn -0.273500 -0.772600 0.572900
vn -0.322900 -0.935900 0.140700
vn -0.800700 -0.530800 0.277700
vn -0.771500 0.428000 0.470700
vn -0.525000 0.438000 -0.729800
vn -0.967000 -0.247000 -0.062700
vn 0.441100 -0.826400 0.349900
vn 0.497100 -0.615700 0.611300
vn 0.100200 -0.497000 0.861900
vn -0.975200 0.020700 -0.220200
vn 0.119300 -0.503700 -0.855600
vn 0.076200 -0.596900 -0.798600
vn 0.423400 -0.874300 0.237300
vn 0.216700 -0.971500 -0.095900
vn -0.127200 -0.659400 0.740900
vn -0.900100 -0.381400 0.210800
vn -0.516100 0.275100 -0.811200
vn -0.159200 -0.129800 0.978700
vn -0.888400 0.261400 -0.377300
vn -0.757900 0.617600 -0.210200
vn -0.003000 0.856100 -0.516800
vn 0.603000 0.468200 0.645800
vn -0.530800 0.479300 -0.698900
vn -0.726600 -0.079200 0.682400
vn -0.591400 -0.192200 0.783100
vn -0.263300 0.912900 -0.311800
vn 0.317800 0.465900 0.825700
vn -0.488400 -0.602800 0.630900
vn 0.579400 -0.794500 0.181300
vn 0.004500 -0.288600 -0.957400
vn -0.766300 0.069900 -0.638600
vn -0.240900 -0.429000 -0.870500
vn -0.818000 -0.456100 -0.350400
vn 0.438300 -0.845800 0.304200
vn -0.318900 -0.786900 0.528300
vn -0.865000 0.501500 -0.010800
vn -0.408800 0.158300 0.898800
vn 0.288400 0.350500 0.891000
vn -0.472100 0.831000 -0.294100
vn 0.654800 -0.031500 0.755100
vn 0.621600 0.632400 0.462200
vn -0.746400 -0.192900 -0.636900
vn -0.003400 0.963300 -0.268500
vn -0.417200 0.892400 -0.172100
vn -0.903600 -0.018400 0.427900
vn -0.276700 0.491900 0.825500
vn 0.021100 -0.786100 -0.617700
vn 0.044100 -0.995700 0.081600
vn -0.913400 0.400300 0.073700
vn -0.583800 -0.026100 0.811400
vn -0.525600 0.572200 -0.629600
vn -0.525600 0.461800 -0.714400
vn -0.637500 -0.174200 -0.750500
vn 0.198100 -0.359500 -0.911900
vn 0.404900 -0.030400 -0.913800
vn -0.170100 -0.676700 0.716300
vn -0.354100 0.919800 0.168800
vn -0.838600 0.386500 0.383900
vn -0.883100 0.125700 0.452000
vn 0.521100 -0.848400 0.092300
vn 0.408300 -0.898200 -0.162500
vn 0.366400 -0.912800 0.180200
vn 0.348800 -0.785500 0.511200
vn -0.355700 -0.915400 0.188500
vn -0.299000 -0.920800 0.250500
vn -0.239500 -0.101500 0.965500
vn 0.515300 -0.418300 0.748000
vn 0.458700 0.068900 0.885900
vn 0.180700 0.305600 -0.934800
vn -0.524600 0.608500 -0.595400
vn 0.443900 0.736900 -0.509800
vn -0.735300 0.129900 -0.665100
vn -0.716600 0.379300 -0.585200
vn -0.635100 -0.017400 0.772200
vn -0.849600 -0.522700 0.070300
vn -0.496600 -0.575200 -0.650000
vn -0.037600 -0.561100 0.826900
vn -0.224200 -0.499100 0.837000
vn 0.317500 0.690400 0.650000
vn -0.025800 -0.171100 0.984900
vn 0.327300 0.467700 0.821000
vn 0.544500 0.643900 0.537500
vn -0.285700 0.148000 -0.946800
vn 0.452600 0.590100 -0.668500
vn -0.018200 -0.457500 0.889000
vn 0.616100 -0.447600 0.648100
vn 0.469400 -0.079600 0.879400
vn 0.464100 -0.113200 0.878500
vn 0.624200 -0.013100 0.781100
vn 0.459300 0.621200 -0.634900
vn 0.078000 -0.667300 0.740700
vn 0.624700 -0.093100 0.775300
vn 0.361900 -0.662900 0.655400
vn 0.556200 -0.537200 0.634100
vn 0.850900 -0.135700 0.507400
vn 0.062800 0.850200 -0.522600
vn -0.900000 0.160400 0.405200
vn 0.621900 -0.142400 0.770000
vn 0.544000 -0.744700 0.386600
vn 0.236800 0.571200 -0.785900
vn 0.847300 -0.511300 -0.143400
vn 0.672300 0.023200 0.739900
vn 0.392700 -0.916400 0.077400
vn 0.769300 -0.132500 0.624900
vn 0.249600 0.819300 0.516200
vn 0.076800 0.949500 -0.304200
vn 0.050800 0.308400 0.949900
vn -0.091100 0.760900 -0.642400
vn 0.136000 -0.639500 0.756600
vn -0.979800 -0.162000 -0.117200
vn 0.195300 0.912100 -0.360400
vn -0.898900 0.272300 0.343200
vn -0.749000 -0.649700 0.130200
vn 0.874700 0.348200 0.337000
vn 0.350000 0.469200 0.810700
vn -0.999400 -0.033300 -0.000400
vn 0.847300 0.012400 -0.531000
vn 0.270600 0.843900 0.463200
vn 0.744600 0.651900 0.143600
vn 0.281900 0.759300 -0.586400
vn 0.867900 0.043200 0.494900
vn 0.825400 -0.555000 -0.103600
vn 0.818300 -0.115800 0.562900
vn -0.448700 -0.718300 0.531700
vn -0.401800 -0.878900 -0.257100
vn -0.823900 0.067600 -0.562600
vn -0.444700 -0.783200 0.434500
vn -0.680000 -0.682400 -0.268100
vn 0.164500 0.858400 -0.485900
vn -0.800200 0.362600 -0.477700
vn -0.583200 0.812000 0.019700
vn 0.993600 -0.000200 -0.112800
vn 0.472300 -0.804400 0.360400
vn 0.917800 -0.389800 0.075700
vn -0.711500 -0.523000 -0.469200
vn 0.139500 0.912000 -0.385800
vn 0.974500 -0.222400 -0.030100
vn -0.381000 -0.913100 -0.145100
vn 0.064700 0.988600 0.135800
vn 0.958200 0.149400 -0.243900
vn -0.845800 -0.386700 -0.367600
vn -0.227000 -0.236200 0.944800
vn -0.799900 0.496900 -0.336400
vn 0.916500 0.038900 -0.398100
vn -0.428700 -0.722100 -0.542900
vn -0.534000 -0.842600 0.069400
vn -0.905300 0.318300 0.281300
vn 0.410900 0.528300 0.743000
vn -0.793200 0.533200 0.294100
vn -0.823100 0.070900 0.563400
vn 0.401200 0.578700 0.710000
vn -0.723800 -0.077400 0.685600
vn 0.476600 0.118400 0.871100
vn 0.838700 -0.344800 -0.421500
vn 0.342000 -0.877800 0.335300
vn -0.587700 -0.447900 -0.673700
vn 0.663300 0.059200 -0.746000
vn 0.819200 -0.167300 -0.548600
vn -0.359000 -0.925600 0.119800
vn 0.064700 -0.956100 0.285700
vn -0.109100 0.898700 0.424700
vn 0.420800 -0.029000 0.906700
vn -0.140800 0.330900 0.933100
vn -0.341500 0.029600 0.939400
vn -0.887200 -0.226500 0.401900
vn 0.505300 -0.322900 0.800200
vn 0.524700 -0.638100 0.563400
vn -0.417700 0.887200 0.196100
vn 0.459900 -0.182600 0.869000
vn 0.484800 -0.090200 0.869900
vn 0.106400 0.627800 0.771100
vn 0.936100 -0.194400 -0.293000
vn 0.691400 -0.687300 -0.222400
vn 0.432400 0.892200 -0.130000
vn 0.932800 0.015800 -0.359900
vn 0.699600 0.624400 0.347300
vn -0.275700 0.570300 0.773700
vn -0.849300 -0.231400 0.474400
vn 0.635900 0.765300 -0.100000
vn -0.509000 0.195000 -0.838400
vn 0.895900 0.057000 -0.440500
vn 0.964300 -0.228800 0.133200
vn 0.438900 -0.736100 -0.515200
vn 0.886800 0.418200 0.196800
vn 0.375000 0.888600 0.264100
vn 0.879500 -0.323600 0.349100
vn -0.506300 0.187200 -0.841800
vn 0.459500 0.425500 -0.779600
vn 0.842400 -0.298100 0.448800
vn 0.917600 -0.371700 0.140800
vn 0.950800 -0.275600 -0.141600
vn 0.947000 -0.293100 0.131400
vn 0.702500 0.308800 -0.641200
vn -0.028600 0.969700 0.242700
vn -0.226600 0.511900 0.828600
vn -0.645600 0.354100 -0.676600
vn -0.098600 0.891400 -0.442300
vn 0.909500 0.410400 0.065900
vn 0.147800 0.450500 0.880400
vn -0.602500 0.790200 -0.112400
vn -0.373800 -0.566400 -0.734400
vn 0.270900 -0.943700 0.189800
vn 0.975500 -0.048100 -0.214700
vn -0.197900 0.302700 -0.932300
vn 0.208500 0.856300 -0.472500
vn 0.348000 -0.047200 -0.936300
vn 0.458700 -0.796000 0.394800
vn -0.331800 -0.455400 -0.826100
vn 0.887200 -0.419200 -0.192500
vn 0.769800 0.558000 0.309800
vn 0.539900 0.672700 0.505900
vn 0.246900 -0.683900 0.686500
vn 0.818100 0.059000 -0.572000
vn 0.951400 -0.240400 -0.192100
vn -0.894400 0.044100 0.445000
vn 0.835000 0.543200 -0.088100
vn 0.848000 0.490300 0.201200
vn 0.276800 0.857900 -0.432800
vn 0.846400 0.089500 -0.524900
vn 0.980900 0.051000 0.187700
vn 0.383300 0.782200 0.491200
vn 0.906400 -0.322600 0.272700
vn 0.842800 -0.332000 0.423600
vn 0.523800 0.846700 0.093200
vn -0.595000 0.778600 -0.199200
vn -0.356100 0.925400 0.129900
vn 0.600000 0.755700 -0.262500
vn 0.675700 -0.423700 0.603100
vn 0.998500 0.037700 -0.038200
vn 0.517100 0.093900 -0.850800
vn 0.253400 0.316500 0.914100
vn 0.267000 0.135300 0.954100
vn -0.681100 -0.505400 0.529700
vn -0.443400 -0.218800 0.869200
vn -0.109400 -0.385200 0.916300
vn 0.230900 0.585100 -0.777400
vn -0.775300 0.466500 0.425700
vn 0.483300 0.745500 -0.458900
vn -0.324700 -0.795900 0.510900
vn -0.439700 -0.569800 0.694200
vn -0.337400 -0.776400 0.532200
vn -0.441400 -0.595200 0.671500
vn -0.893200 0.400800 0.203700
vn 0.150000 0.913600 0.378000
vn -0.405200 -0.373600 0.834400
vn -0.751400 -0.582500 0.310000
vn -0.604700 -0.501800 0.618400
vn -0.524800 -0.832700 0.176400
vn -0.652200 -0.631400 0.419600
vn -0.590400 -0.227200 0.774400
vn 0.556200 0.491500 0.670100
vn -0.353200 0.348300 0.868300
vn 0.857600 0.139000 0.495200
vn 0.837200 -0.544700 0.049800
vn 0.597800 0.535100 -0.596900
vn -0.320000 -0.250600 0.913700
vn -0.888600 0.288200 0.356700
vn -0.851000 0.224800 -0.474600
vn -0.869700 -0.280700 0.406000
vn -0.397400 0.866800 -0.301000
vn 0.567100 -0.796600 0.209400
vn -0.774300 -0.487800 0.403100
vn -0.718100 -0.533700 -0.446500
vn 0.528100 -0.530200 -0.663300
vn 0.804800 0.398100 -0.440200
vn 0.696400 0.598600 -0.395800
vn 0.745000 -0.564700 -0.355100
vn 0.566400 -0.810300 0.150300
vn -0.296100 0.927400 -0.228400
vn 0.391900 0.908100 0.147400
vn -0.992400 0.074100 -0.098100
vn 0.567900 -0.583500 -0.580500
vn -0.762700 -0.548900 0.341900
vn -0.275600 -0.922200 0.271100
vn -0.928500 -0.370500 -0.024000
vn -0.338100 0.919000 -0.202500
vn 0.639100 0.649100 -0.412500
vn 0.433700 -0.803400 -0.408000
vn -0.990100 -0.117500 -0.076200
vn -0.232700 0.958100 0.166600
vn 0.064700 -0.570300 0.818900
vn 0.821000 -0.255800 -0.510400
vn 0.435600 -0.757600 -0.486000
vn -0.971300 -0.183000 -0.151900
vn 0.882100 0.448200 0.144500
vn 0.509400 -0.860300 0.020100
vn -0.258600 0.575700 0.775700
vn -0.202200 0.230900 0.951700
vn 0.931100 0.253800 0.262000
vn -0.352000 0.598300 0.719800
vn 0.853500 0.165400 0.494100
vn 0.755200 0.655400 -0.006600
vn -0.846200 -0.529900 -0.055400
vn -0.060900 -0.851900 0.520100
vn 0.449400 -0.507400 -0.735200
vn -0.587900 0.618000 -0.521900
vn 0.249300 -0.808000 -0.533800
vn -0.769300 0.440800 -0.462400
vn 0.142700 -0.893600 0.425600
vn 0.167000 0.266200 0.949300
vn -0.556700 -0.609300 0.564600
vn 0.832000 0.349200 -0.431000
vn 0.472100 0.646800 0.599000
vn 0.845500 -0.414100 0.337000
vn 0.662900 -0.679200 0.315000
s 1
f 181/1/1 182/2/2 14/3/3
f 180/4/4 9/5/5 4/6/6
f 3/7/7 4/8/6 7/9/8
f 4/8/6 9/10/5 8/11/9
f 6/12/10 73/13/11 57/14/12
f 3/7/7 5/15/13 1/16/14
f 76/17/15 6/12/10 10/18/16
f 8/19/9 9/10/5 12/20/17
f 11/21/18 12/22/17 14/23/3
f 15/24/19 6/25/10 76/26/15
f 14/27/3 77/28/20 16/29/21
f 32/30/22 61/31/23 64/32/24
f 16/33/21 17/34/25 20/35/26
f 19/36/27 20/35/26 23/37/28
f 18/38/29 21/39/30 78/40/31
f 42/41/32 58/42/33 79/43/34
f 24/44/35 27/45/36 60/46/37
f 23/37/28 26/47/38 25/48/39
f 41/49/40 42/50/32 80/51/41
f 40/52/42 47/53/43 44/54/44
f 33/55/45 34/56/46 37/57/47
f 47/53/43 51/58/48 48/59/49
f 29/60/50 45/61/51 46/62/52
f 29/60/50 32/30/22 44/63/44
f 39/64/53 46/65/52 47/53/43
f 51/66/48 50/67/54 54/68/55
f 44/63/44 48/69/49 49/70/56
f 46/65/52 50/71/54 51/58/48
f 46/62/52 45/61/51 49/70/56
f 50/67/54 49/72/56 53/73/57
f 51/66/48 55/74/58 52/75/59
f 49/72/56 48/76/49 52/75/59
f 37/57/47 38/77/60 36/78/61
f 57/79/12 249/80/62 229/81/63
f 80/51/41 82/82/64 81/83/65
f 187/84/66 71/85/67 70/86/68
f 82/87/64 83/88/69 86/89/70
f 176/90/71 174/91/72 175/92/73
f 28/93/74 39/64/53 40/52/42
f 26/47/38 39/64/53 25/48/39
f 175/92/73 174/91/72 34/56/46
f 66/94/75 56/95/76 58/42/33
f 27/45/36 74/96/77 76/97/15
f 60/46/37 61/31/23 29/60/50
f 59/98/78 60/46/37 26/99/38
f 29/60/50 61/31/23 32/30/22
f 185/100/79 62/101/80 67/102/81
f 30/103/82 63/104/83 64/32/24
f 65/105/84 69/106/85 72/107/86
f 67/108/81 68/109/87 72/107/86
f 35/110/88 41/111/40 325/112/89
f 62/113/80 64/32/24 68/109/87
f 63/104/83 65/105/84 68/109/87
f 69/106/85 70/114/68 71/115/67
f 3/116/7 1/117/14 178/118/90
f 6/25/10 15/24/19 2/119/91
f 61/31/23 60/46/37 76/97/15
f 30/103/82 61/31/23 76/97/15
f 21/39/30 24/44/35 59/98/78
f 78/40/31 59/98/78 23/120/28
f 17/121/25 18/38/29 78/40/31
f 31/122/92 40/52/42 176/90/71
f 80/123/41 79/43/34 83/88/69
f 120/124/93 119/125/94 123/126/95
f 126/127/96 118/128/97 127/129/98
f 86/130/70 89/131/99 88/132/100
f 114/133/101 93/134/102 112/135/103
f 91/136/104 90/137/105 94/138/106
f 93/134/102 98/139/107 104/140/108
f 112/135/103 93/134/102 109/141/109
f 94/142/106 93/143/102 98/144/107
f 92/145/110 96/146/111 98/139/107
f 99/147/112 98/144/107 97/148/113
f 93/134/102 104/140/108 115/149/114
f 111/150/115 93/134/102 116/151/116
f 96/146/111 100/152/117 97/153/113
f 99/154/112 95/155/118 100/152/117
f 73/13/11 66/156/75 102/157/119
f 93/134/102 113/158/120 116/151/116
f 100/152/117 95/155/118 101/159/121
f 95/160/118 97/148/113 101/161/121
f 97/153/113 100/152/117 101/159/121
f 94/138/106 99/154/112 96/146/111
f 98/139/107 97/153/113 104/140/108
f 56/162/76 237/163/122 224/164/123
f 97/153/113 101/159/121 104/140/108
f 104/140/108 105/165/124 115/149/114
f 108/166/125 111/150/115 116/151/116
f 116/151/116 113/158/120 106/167/126
f 110/168/127 112/135/103 109/141/109
f 115/149/114 105/165/124 106/167/126
f 114/133/101 112/135/103 110/168/127
f 108/166/125 109/141/109 111/150/115
f 57/14/12 73/13/11 102/157/119
f 35/169/88 57/14/12 102/157/119
f 81/83/65 82/82/64 84/170/128
f 109/141/109 93/134/102 111/150/115
f 93/134/102 115/149/114 113/158/120
f 224/171/123 238/172/129 229/81/63
f 237/163/122 241/173/130 240/174/131
f 66/156/75 327/175/132 102/157/119
f 73/176/11 2/119/91 90/177/105
f 124/178/133 123/126/95 122/179/134
f 85/180/135 88/181/100 118/182/97
f 84/183/128 82/184/64 120/124/93
f 118/185/97 122/179/134 123/126/95
f 84/183/128 120/124/93 117/186/136
f 117/186/136 120/124/93 124/178/133
f 125/187/137 126/127/96 130/188/138
f 117/189/136 128/190/139 127/191/98
f 126/127/96 125/187/137 121/192/140
f 122/179/134 118/128/97 126/127/96
f 117/193/136 125/187/137 129/194/141
f 129/194/141 135/195/142 137/196/143
f 117/193/136 121/192/140 125/187/137
f 133/197/144 134/198/145 132/199/146
f 129/194/141 134/200/145 133/201/144
f 128/190/139 133/197/144 131/202/147
f 130/188/138 127/129/98 131/203/147
f 136/204/148 138/205/149 142/206/150
f 130/207/138 136/204/148 135/195/142
f 130/207/138 132/208/146 138/205/149
f 132/199/146 134/198/145 137/209/143
f 139/210/151 140/211/152 147/212/153
f 136/204/148 140/211/152 139/210/151
f 135/195/142 139/210/151 141/213/154
f 138/214/149 137/209/143 141/215/154
f 148/216/155 158/217/156 161/218/157
f 139/210/151 143/219/158 145/220/159
f 141/221/154 145/222/159 148/216/155
f 140/211/152 142/206/150 146/223/160
f 143/219/158 150/224/161 149/225/162
f 146/226/160 142/227/150 148/216/155
f 142/227/150 168/228/163 167/229/164
f 140/211/152 144/230/165 147/212/153
f 143/219/158 139/210/151 147/212/153
f 149/231/162 153/232/166 156/233/167
f 147/212/153 148/234/155 152/235/168
f 147/212/153 151/236/169 150/224/161
f 145/222/159 149/231/162 152/237/168
f 160/238/170 159/239/171 164/240/172
f 150/224/161 154/241/173 153/242/166
f 151/236/169 152/235/168 156/243/167
f 151/236/169 155/244/174 154/241/173
f 147/212/153 144/230/165 159/239/171
f 144/230/165 146/223/160 161/245/157
f 147/212/153 160/238/170 158/246/156
f 160/238/170 162/247/175 163/248/176
f 156/233/167 153/232/166 157/249/177
f 153/242/166 154/241/173 157/250/177
f 155/244/174 156/243/167 157/250/177
f 154/241/173 155/244/174 157/250/177
f 159/239/171 161/245/157 165/251/178
f 158/217/156 163/252/176 165/253/178
f 142/254/150 141/215/154 169/255/179
f 141/221/154 148/216/155 167/229/164
f 169/255/179 172/256/180 171/257/181
f 165/253/178 163/252/176 166/258/182
f 163/248/176 162/247/175 166/259/182
f 162/247/175 164/240/172 166/259/182
f 164/240/172 165/251/178 166/259/182
f 169/260/179 167/229/164 170/261/183
f 167/229/164 168/228/163 171/262/181
f 171/257/181 172/256/180 173/263/184
f 172/264/180 170/261/183 173/265/184
f 170/261/183 171/262/181 173/265/184
f 88/266/100 87/267/185 117/189/136
f 82/268/64 85/180/135 119/269/94
f 240/270/131 239/271/186 238/172/129
f 40/52/42 32/272/22 176/90/71
f 176/90/71 32/272/22 174/91/72
f 54/68/55 53/73/57 177/273/187
f 53/73/57 52/75/59 177/273/187
f 52/75/59 55/74/58 177/273/187
f 55/74/58 54/68/55 177/273/187
f 183/274/188 184/275/189 37/276/47
f 71/85/67 187/84/66 186/277/190
f 188/278/191 183/274/188 34/279/46
f 3/116/7 178/118/90 179/280/192
f 180/4/4 181/1/1 12/281/17
f 189/282/193 32/283/22 62/101/80
f 189/282/193 188/278/191 174/284/72
f 18/38/29 17/121/25 77/285/20
f 88/266/100 89/286/99 87/267/185
f 37/276/47 184/275/189 38/287/60
f 190/288/194 191/289/195 179/290/192
f 16/291/21 19/292/27 197/293/196
f 7/294/8 191/295/195 190/296/194
f 8/297/9 193/298/197 191/295/195
f 230/299/198 75/300/199 10/301/16
f 190/296/194 1/302/14 5/303/13
f 327/175/132 66/156/75 324/304/200
f 8/305/9 11/306/18 194/307/201
f 11/306/18 13/308/202 195/309/203
f 219/310/204 24/311/35 21/312/30
f 16/291/21 231/313/205 195/309/203
f 201/314/206 222/315/207 223/316/208
f 191/289/195 193/317/197 180/318/4
f 19/292/27 22/319/209 198/320/210
f 18/321/29 232/322/211 21/312/30
f 206/323/212 233/324/213 79/325/34
f 220/326/214 27/327/36 24/311/35
f 25/328/39 199/329/215 198/320/210
f 41/111/40 43/330/216 233/331/213
f 207/332/217 210/333/218 205/334/219
f 33/335/45 36/336/61 203/337/220
f 211/338/221 214/339/222 210/333/218
f 209/340/223 208/341/224 200/342/225
f 200/342/225 208/341/224 207/343/217
f 210/333/218 209/344/223 204/345/226
f 214/346/222 218/347/227 217/348/228
f 212/349/229 211/350/221 207/343/217
f 214/339/222 213/351/230 209/344/223
f 209/340/223 213/352/230 212/349/229
f 213/353/230 217/348/228 216/354/231
f 215/355/232 218/347/227 214/346/222
f 212/356/229 216/354/231 215/355/232
f 227/357/233 70/358/68 69/359/85
f 236/360/234 87/361/185 89/362/99
f 81/363/65 234/364/235 233/331/213
f 187/84/66 70/86/68 227/365/233
f 236/360/234 265/366/236 264/367/237
f 28/368/74 31/369/92 205/334/219
f 204/345/226 200/370/225 199/329/215
f 175/371/73 33/335/45 202/372/238
f 175/371/73 321/373/239 322/374/240
f 196/375/241 197/376/196 232/322/211
f 200/342/225 221/377/242 220/326/214
f 199/378/215 220/326/214 219/310/204
f 200/342/225 201/314/206 221/377/242
f 185/100/79 186/277/190 225/379/243
f 223/316/208 63/380/83 30/381/82
f 228/382/244 69/359/85 65/383/84
f 225/384/243 227/357/233 228/382/244
f 222/315/207 225/384/243 226/385/245
f 226/385/245 65/383/84 63/380/83
f 186/277/190 187/84/66 227/365/233
f 190/288/194 178/386/90 1/387/14
f 192/388/246 229/389/63 2/390/91
f 221/377/242 230/391/198 220/326/214
f 30/381/82 75/392/199 230/391/198
f 230/393/198 192/388/246 15/394/19
f 198/395/210 219/310/204 232/322/211
f 31/369/92 322/374/240 205/334/219
f 233/324/213 234/396/235 83/397/69
f 267/398/247 271/399/248 270/400/249
f 273/401/250 277/402/251 274/403/252
f 261/404/253 259/405/254 240/270/131
f 238/172/129 239/271/186 241/406/130
f 240/270/131 251/407/255 245/408/256
f 259/405/254 256/409/257 240/270/131
f 241/173/130 246/410/258 245/411/256
f 245/408/256 243/412/259 239/271/186
f 246/410/258 242/413/260 244/414/261
f 240/270/131 262/415/262 251/407/255
f 258/416/263 263/417/264 240/270/131
f 244/418/261 247/419/265 243/412/259
f 247/419/265 242/420/260 246/421/258
f 103/422/266 66/423/75 114/133/101
f 240/270/131 263/417/264 260/424/267
f 247/419/265 248/425/268 242/420/260
f 242/413/260 248/426/268 244/414/261
f 244/418/261 248/425/268 247/419/265
f 243/412/259 246/421/258 241/406/130
f 245/408/256 251/407/255 244/418/261
f 244/418/261 251/407/255 248/425/268
f 251/407/255 262/415/262 252/427/269
f 255/428/270 254/429/271 263/417/264
f 263/417/264 254/429/271 253/430/272
f 257/431/273 256/409/257 259/405/254
f 262/415/262 260/424/267 253/430/272
f 257/431/273 259/405/254 261/404/253
f 255/428/270 258/416/263 256/409/257
f 66/432/75 93/134/102 114/133/101
f 81/363/65 84/433/128 234/364/235
f 256/409/257 258/416/263 240/270/131
f 240/270/131 260/424/267 262/415/262
f 229/389/63 238/434/129 237/435/122
f 230/391/198 74/436/77 27/327/36
f 231/437/205 18/321/29 195/438/203
f 271/399/248 268/439/274 269/440/275
f 235/441/276 266/442/277 265/443/236
f 236/444/234 89/131/99 86/130/70
f 270/400/249 269/440/275 265/445/236
f 84/446/128 267/398/247 234/447/235
f 264/448/237 268/449/274 271/399/248
f 272/450/278 276/451/279 277/402/251
f 274/452/252 275/453/280 264/367/237
f 273/401/250 269/440/275 268/439/274
f 269/440/275 273/401/250 265/454/236
f 264/455/237 275/456/280 276/451/279
f 284/457/281 282/458/282 276/459/279
f 264/455/237 272/450/278 268/439/274
f 279/460/283 281/461/284 280/462/285
f 280/463/285 281/464/284 276/451/279
f 278/465/286 280/462/285 275/453/280
f 277/402/251 279/466/283 278/467/286
f 283/468/287 287/469/288 289/470/289
f 282/458/282 283/468/287 277/402/251
f 277/402/251 283/468/287 285/471/290
f 279/460/283 285/472/290 284/473/281
f 286/474/291 294/475/292 287/469/288
f 286/474/291 287/469/288 283/468/287
f 288/476/293 286/474/291 282/458/282
f 285/472/290 289/477/289 288/478/293
f 308/479/294 305/480/295 295/481/296
f 292/482/297 290/483/298 286/474/291
f 288/484/293 295/481/296 292/485/297
f 287/469/288 291/486/299 293/487/300
f 296/488/301 297/489/302 290/483/298
f 293/490/300 295/481/296 289/491/289
f 314/492/303 315/493/304 289/491/289
f 287/469/288 294/475/292 291/486/299
f 290/483/298 294/475/292 286/474/291
f 303/494/305 300/495/306 296/496/301
f 294/475/292 298/497/307 299/498/308
f 297/489/302 298/497/307 294/475/292
f 299/499/308 296/496/301 292/485/297
f 307/500/309 309/501/310 311/502/311
f 300/503/306 301/504/312 297/489/302
f 298/497/307 302/505/313 303/506/305
f 301/504/312 302/505/313 298/497/307
f 294/475/292 307/500/309 306/507/314
f 291/486/299 306/507/314 308/508/294
f 305/509/295 307/500/309 294/475/292
f 310/510/315 309/501/310 307/500/309
f 303/494/305 304/511/316 300/495/306
f 300/503/306 304/512/316 301/504/312
f 302/505/313 304/512/316 303/506/305
f 301/504/312 304/512/316 302/505/313
f 306/507/314 311/502/311 312/513/317
f 312/514/317 310/515/315 305/480/295
f 289/477/289 315/516/304 316/517/318
f 288/484/293 316/518/318 314/492/303
f 318/519/319 319/520/320 316/517/318
f 312/514/317 313/521/321 310/515/315
f 310/510/315 313/522/321 309/501/310
f 309/501/310 313/522/321 311/502/311
f 311/502/311 313/522/321 312/513/317
f 316/518/318 319/523/320 317/524/322
f 314/492/303 317/524/322 318/525/319
f 318/519/319 320/526/323 319/520/320
f 319/523/320 320/527/323 317/524/322
f 317/524/322 320/527/323 318/525/319
f 57/79/12 229/81/63 192/528/246
f 234/529/235 267/530/247 266/442/277
f 205/334/219 322/374/240 201/531/206
f 322/374/240 321/373/239 201/531/206
f 217/348/228 323/532/324 216/354/231
f 216/354/231 323/532/324 215/355/232
f 215/355/232 323/532/324 218/347/227
f 218/347/227 323/532/324 217/348/228
f 203/533/220 184/275/189 183/274/188
f 202/534/238 183/274/188 188/278/191
f 181/535/1 194/536/201 195/438/203
f 194/536/201 181/535/1 180/318/4
f 189/282/193 185/100/79 222/537/207
f 321/538/239 188/278/191 189/282/193
f 203/337/220 36/336/61 38/539/60
f 264/448/237 267/398/247 84/446/128
f 203/533/220 38/287/60 184/275/189
f 234/396/235 235/540/276 86/541/70
f 224/164/123 206/542/212 58/543/33
f 91/136/104 92/145/110 93/134/102
f 2/119/91 56/95/76 90/177/105
f 90/177/105 66/544/75 93/143/102
f 2/390/91 237/545/122 56/162/76
f 66/156/75 73/13/11 91/136/104
f 56/95/76 66/546/75 90/177/105
f 224/547/123 261/404/253 240/270/131
f 250/548/325 261/404/253 224/549/123
f 229/81/63 249/80/62 224/171/123
f 249/80/62 35/110/88 326/550/326
f 35/110/88 249/80/62 57/79/12
f 66/156/75 42/50/32 324/304/200
f 42/50/32 41/49/40 324/304/200
f 41/49/40 35/169/88 324/304/200
f 41/111/40 206/551/212 325/112/89
f 206/551/212 224/171/123 325/112/89
f 326/550/326 35/110/88 325/112/89
f 224/171/123 249/80/62 326/550/326
f 224/171/123 326/550/326 325/112/89
f 35/169/88 327/175/132 324/304/200
f 327/175/132 35/169/88 102/157/119
f 12/281/17 181/1/1 14/3/3
f 179/280/192 180/4/4 4/6/6
f 5/15/13 3/7/7 7/9/8
f 7/9/8 4/8/6 8/11/9
f 10/18/16 6/12/10 57/14/12
f 75/552/199 76/17/15 10/18/16
f 11/553/18 8/19/9 12/20/17
f 13/554/202 11/21/18 14/23/3
f 74/555/77 15/24/19 76/26/15
f 16/29/21 13/556/202 14/27/3
f 77/28/20 17/557/25 16/29/21
f 62/113/80 32/30/22 64/32/24
f 19/36/27 16/33/21 20/35/26
f 22/558/209 19/36/27 23/37/28
f 80/123/41 42/41/32 79/43/34
f 59/98/78 24/44/35 60/46/37
f 22/558/209 23/37/28 25/48/39
f 43/559/216 41/49/40 80/51/41
f 32/272/22 40/52/42 44/54/44
f 36/78/61 33/55/45 37/57/47
f 44/54/44 47/53/43 48/59/49
f 39/560/53 29/60/50 46/62/52
f 45/61/51 29/60/50 44/63/44
f 40/52/42 39/64/53 47/53/43
f 55/74/58 51/66/48 54/68/55
f 45/61/51 44/63/44 49/70/56
f 47/53/43 46/65/52 51/58/48
f 50/561/54 46/62/52 49/70/56
f 54/68/55 50/67/54 53/73/57
f 48/76/49 51/66/48 52/75/59
f 53/73/57 49/72/56 52/75/59
f 43/559/216 80/51/41 81/83/65
f 85/562/135 82/87/64 86/89/70
f 31/122/92 176/90/71 175/92/73
f 31/122/92 28/93/74 40/52/42
f 28/93/74 25/48/39 39/64/53
f 26/47/38 29/563/50 39/64/53
f 33/55/45 175/92/73 34/56/46
f 42/564/32 66/94/75 58/42/33
f 60/46/37 27/45/36 76/97/15
f 26/99/38 60/46/37 29/60/50
f 23/120/28 59/98/78 26/99/38
f 186/277/190 185/100/79 67/102/81
f 61/31/23 30/103/82 64/32/24
f 68/109/87 65/105/84 72/107/86
f 71/115/67 67/108/81 72/107/86
f 67/108/81 62/113/80 68/109/87
f 64/32/24 63/104/83 68/109/87
f 72/107/86 69/106/85 71/115/67
f 73/176/11 6/25/10 2/119/91
f 75/565/199 30/103/82 76/97/15
f 78/40/31 21/39/30 59/98/78
f 20/566/26 78/40/31 23/120/28
f 20/566/26 17/121/25 78/40/31
f 82/87/64 80/123/41 83/88/69
f 124/178/133 120/124/93 123/126/95
f 130/188/138 126/127/96 127/129/98
f 85/567/135 86/130/70 88/132/100
f 92/145/110 91/136/104 94/138/106
f 99/147/112 94/142/106 98/144/107
f 93/134/102 92/145/110 98/139/107
f 95/160/118 99/147/112 97/148/113
f 98/139/107 96/146/111 97/153/113
f 96/146/111 99/154/112 100/152/117
f 92/145/110 94/138/106 96/146/111
f 107/568/327 108/166/125 116/151/116
f 107/568/327 116/151/116 106/167/126
f 113/158/120 115/149/114 106/167/126
f 103/569/266 114/133/101 110/168/127
f 224/570/123 237/163/122 240/174/131
f 91/571/104 73/176/11 90/177/105
f 121/192/140 124/178/133 122/179/134
f 119/269/94 85/180/135 118/182/97
f 119/125/94 118/185/97 123/126/95
f 87/572/185 84/183/128 117/186/136
f 121/192/140 117/186/136 124/178/133
f 129/194/141 125/187/137 130/188/138
f 118/573/97 117/189/136 127/191/98
f 122/179/134 126/127/96 121/192/140
f 128/574/139 117/193/136 129/194/141
f 134/575/145 129/194/141 137/196/143
f 131/202/147 133/197/144 132/199/146
f 128/574/139 129/194/141 133/201/144
f 127/191/98 128/190/139 131/202/147
f 132/576/146 130/188/138 131/203/147
f 140/211/152 136/204/148 142/206/150
f 129/194/141 130/207/138 135/195/142
f 136/204/148 130/207/138 138/205/149
f 138/214/149 132/199/146 137/209/143
f 135/195/142 136/204/148 139/210/151
f 137/196/143 135/195/142 141/213/154
f 142/254/150 138/214/149 141/215/154
f 146/226/160 148/216/155 161/218/157
f 141/213/154 139/210/151 145/220/159
f 144/230/165 140/211/152 146/223/160
f 145/220/159 143/219/158 149/225/162
f 148/216/155 142/227/150 167/229/164
f 152/237/168 149/231/162 156/233/167
f 151/236/169 147/212/153 152/235/168
f 143/219/158 147/212/153 150/224/161
f 148/216/155 145/222/159 152/237/168
f 162/247/175 160/238/170 164/240/172
f 149/225/162 150/224/161 153/242/166
f 155/244/174 151/236/169 156/243/167
f 150/224/161 151/236/169 154/241/173
f 160/238/170 147/212/153 159/239/171
f 159/239/171 144/230/165 161/245/157
f 148/234/155 147/212/153 158/246/156
f 158/246/156 160/238/170 163/248/176
f 164/240/172 159/239/171 165/251/178
f 161/218/157 158/217/156 165/253/178
f 168/577/163 142/254/150 169/255/179
f 169/260/179 141/221/154 167/229/164
f 168/577/163 169/255/179 171/257/181
f 172/264/180 169/260/179 170/261/183
f 170/261/183 167/229/164 171/262/181
f 118/573/97 88/266/100 117/189/136
f 120/578/93 82/268/64 119/269/94
f 224/171/123 240/270/131 238/172/129
f 34/279/46 183/274/188 37/276/47
f 67/102/81 71/85/67 186/277/190
f 174/284/72 188/278/191 34/279/46
f 4/6/6 3/116/7 179/280/192
f 9/5/5 180/4/4 12/281/17
f 185/100/79 189/282/193 62/101/80
f 32/283/22 189/282/193 174/284/72
f 77/285/20 14/3/3 18/38/29
f 182/2/2 18/38/29 14/3/3
f 178/386/90 190/288/194 179/290/192
f 196/579/241 16/291/21 197/293/196
f 5/303/13 7/294/8 190/296/194
f 7/294/8 8/297/9 191/295/195
f 192/528/246 230/299/198 10/301/16
f 193/298/197 8/305/9 194/307/201
f 194/307/201 11/306/18 195/309/203
f 232/322/211 219/310/204 21/312/30
f 195/309/203 13/308/202 16/291/21
f 16/291/21 196/579/241 231/313/205
f 221/377/242 201/314/206 223/316/208
f 179/290/192 191/289/195 180/318/4
f 197/293/196 19/292/27 198/320/210
f 58/543/33 206/323/212 79/325/34
f 219/310/204 220/326/214 24/311/35
f 22/319/209 25/328/39 198/320/210
f 206/551/212 41/111/40 233/331/213
f 201/531/206 207/332/217 205/334/219
f 202/372/238 33/335/45 203/337/220
f 207/332/217 211/338/221 210/333/218
f 204/580/226 209/340/223 200/342/225
f 201/314/206 200/342/225 207/343/217
f 205/334/219 210/333/218 204/345/226
f 213/353/230 214/346/222 217/348/228
f 208/341/224 212/349/229 207/343/217
f 210/333/218 214/339/222 209/344/223
f 208/341/224 209/340/223 212/349/229
f 212/356/229 213/353/230 216/354/231
f 211/581/221 215/355/232 214/346/222
f 211/581/221 212/356/229 215/355/232
f 228/382/244 227/357/233 69/359/85
f 43/330/216 81/363/65 233/331/213
f 87/361/185 236/360/234 264/367/237
f 204/345/226 28/368/74 205/334/219
f 199/329/215 25/328/39 204/345/226
f 28/368/74 204/345/226 25/328/39
f 321/373/239 175/371/73 202/372/238
f 31/369/92 175/371/73 322/374/240
f 18/321/29 196/375/241 232/322/211
f 199/378/215 200/342/225 220/326/214
f 198/395/210 199/378/215 219/310/204
f 222/537/207 185/100/79 225/379/243
f 221/377/242 223/316/208 30/381/82
f 226/385/245 228/382/244 65/383/84
f 226/385/245 225/384/243 228/382/244
f 223/316/208 222/315/207 226/385/245
f 223/316/208 226/385/245 63/380/83
f 225/379/243 186/277/190 227/365/233
f 15/394/19 192/388/246 2/390/91
f 221/377/242 30/381/82 230/391/198
f 74/582/77 230/393/198 15/394/19
f 197/376/196 198/395/210 232/322/211
f 79/325/34 233/324/213 83/397/69
f 266/583/277 267/398/247 270/400/249
f 265/454/236 273/401/250 274/403/252
f 237/584/122 238/172/129 241/406/130
f 240/174/131 241/173/130 245/411/256
f 240/270/131 245/408/256 239/271/186
f 245/411/256 246/410/258 244/414/261
f 245/408/256 244/418/261 243/412/259
f 243/412/259 247/419/265 246/421/258
f 239/271/186 243/412/259 241/406/130
f 258/416/263 255/428/270 263/417/264
f 260/424/267 263/417/264 253/430/272
f 252/427/269 262/415/262 253/430/272
f 250/548/325 257/431/273 261/404/253
f 2/390/91 229/389/63 237/435/122
f 220/326/214 230/391/198 27/327/36
f 182/585/2 195/438/203 18/321/29
f 231/437/205 196/375/241 18/321/29
f 270/400/249 271/399/248 269/440/275
f 236/586/234 235/441/276 265/443/236
f 235/587/276 236/444/234 86/130/70
f 266/583/277 270/400/249 265/445/236
f 267/398/247 264/448/237 271/399/248
f 273/401/250 272/450/278 277/402/251
f 265/366/236 274/452/252 264/367/237
f 272/450/278 273/401/250 268/439/274
f 272/450/278 264/455/237 276/451/279
f 281/588/284 284/457/281 276/459/279
f 278/465/286 279/460/283 280/462/285
f 275/456/280 280/463/285 276/451/279
f 274/452/252 278/465/286 275/453/280
f 274/403/252 277/402/251 278/467/286
f 285/471/290 283/468/287 289/470/289
f 276/459/279 282/458/282 277/402/251
f 279/589/283 277/402/251 285/471/290
f 281/461/284 279/460/283 284/473/281
f 282/458/282 286/474/291 283/468/287
f 284/457/281 288/476/293 282/458/282
f 284/473/281 285/472/290 288/478/293
f 293/490/300 308/479/294 295/481/296
f 288/476/293 292/482/297 286/474/291
f 289/470/289 287/469/288 293/487/300
f 292/482/297 296/488/301 290/483/298
f 295/481/296 314/492/303 289/491/289
f 299/499/308 303/494/305 296/496/301
f 295/590/296 294/475/292 299/498/308
f 290/483/298 297/489/302 294/475/292
f 295/481/296 299/499/308 292/485/297
f 306/507/314 307/500/309 311/502/311
f 296/488/301 300/503/306 297/489/302
f 299/498/308 298/497/307 303/506/305
f 297/489/302 301/504/312 298/497/307
f 291/486/299 294/475/292 306/507/314
f 293/487/300 291/486/299 308/508/294
f 295/590/296 305/509/295 294/475/292
f 305/509/295 310/510/315 307/500/309
f 308/508/294 306/507/314 312/513/317
f 308/479/294 312/514/317 305/480/295
f 288/478/293 289/477/289 316/517/318
f 295/481/296 288/484/293 314/492/303
f 315/516/304 318/519/319 316/517/318
f 314/492/303 316/518/318 317/524/322
f 315/493/304 314/492/303 318/525/319
f 10/301/16 57/79/12 192/528/246
f 235/441/276 234/529/235 266/442/277
f 202/534/238 203/533/220 183/274/188
f 321/538/239 202/534/238 188/278/191
f 182/585/2 181/535/1 195/438/203
f 193/317/197 194/536/201 180/318/4
f 201/591/206 189/282/193 222/537/207
f 201/591/206 321/538/239 189/282/193
f 87/592/185 264/448/237 84/446/128
f 83/397/69 234/396/235 86/541/70
f 56/162/76 224/164/123 58/543/33
f 66/156/75 91/136/104 93/134/102
f 94/142/106 90/177/105 93/143/102
