# Blender v2.76 (sub 0) OBJ File: 'npc_mutant_avian.blend'
# www.blender.org
v 0.022395 1.031799 -0.361062
v 0.002000 0.944332 -0.137538
v -0.067713 1.080447 -0.261575
v -0.095128 1.071738 -0.188827
v 0.019400 1.060233 -0.298140
v -0.087647 0.870270 -0.069108
v 0.016285 1.069015 -0.234818
v 0.014144 1.081107 -0.190665
v -0.178409 1.058977 -0.166918
v 0.001634 0.843740 -0.030422
v 0.012109 1.077987 -0.150210
v -0.166465 1.050700 -0.132246
v 0.010024 1.064199 -0.109821
v -0.097556 1.042588 -0.088732
v 0.001649 0.930254 -0.090715
v 0.007915 1.060118 -0.067992
v -0.197801 1.022638 -0.051043
v 0.007833 0.988524 -0.086673
v 0.006093 1.043956 -0.033125
v -0.184023 1.014487 -0.030467
v 0.005154 0.952595 -0.060665
v 0.004637 1.031551 -0.005212
v -0.101017 0.992494 0.004160
v 0.003644 0.968677 -0.026491
v 0.002689 1.031669 0.033832
v -0.134276 0.975070 0.025975
v 0.002454 0.953552 -0.041565
v 0.000732 1.003007 0.070119
v -0.108587 0.942863 0.053751
v 0.002625 0.903156 -0.009847
v -0.002010 0.985722 0.123310
v -0.092051 0.898100 0.055273
v -0.005904 0.939276 0.196595
v -0.055610 0.885315 0.157822
v 0.001170 0.729069 -0.196644
v -0.008433 0.890953 0.242334
v -0.042407 0.853547 0.215015
v -0.009087 0.802443 0.246390
v -0.101941 0.951489 0.065600
v -0.083760 0.940236 0.090582
v 0.001316 0.772106 -0.304337
v -0.098269 0.814197 -0.322809
v 0.000584 0.768568 -0.313000
v -0.197086 0.922881 0.089691
v -0.194955 0.940246 0.070644
v -0.194909 0.958469 0.084003
v -0.195997 0.943234 0.105640
v -0.224745 0.907555 0.093703
v -0.222699 0.937683 0.053186
v -0.221641 0.975528 0.080332
v -0.224482 0.942568 0.120179
v -0.248432 0.919134 0.091155
v -0.247030 0.939667 0.063723
v -0.246329 0.965268 0.082200
v -0.247969 0.943819 0.109446
v 0.001996 0.948021 -0.255328
v 0.001384 0.774273 -0.077028
v 0.001996 0.867119 -0.359091
v -0.090304 0.967854 -0.016172
v -0.085107 0.930165 -0.003656
v -0.070154 0.910499 0.008327
v -0.083538 0.851496 0.040529
v 0.006650 0.863224 -0.025131
v -0.066195 0.876112 -0.010239
v 0.001595 0.812448 -0.011249
v -0.048393 0.897355 -0.259614
v -0.047753 0.811226 0.020605
v -0.032079 0.820383 -0.004732
v -0.002503 0.755298 -0.019823
v -0.013307 0.704784 0.017872
v -0.034850 0.753975 0.003358
v -0.027646 0.777094 -0.010588
v -0.162237 0.871945 -0.144280
v 0.001553 0.936695 -0.051185
v 0.001659 0.913813 -0.007527
v -0.038902 0.917767 -0.027188
v -0.121882 1.032441 -0.066772
v -0.094571 0.981242 -0.045937
v 0.002243 0.829560 -0.386019
v -0.091235 0.794527 -0.338051
v -0.001062 0.770239 -0.299454
v -0.117128 0.769454 -0.328896
v 0.002646 0.771953 -0.415708
v -0.002202 0.735555 -0.252936
v -0.122570 0.709552 -0.301805
v -0.001555 0.678748 -0.348329
v 0.001326 0.684480 -0.251342
v -0.062402 0.667298 -0.282210
v 0.001328 0.658298 -0.308138
v -0.172585 0.920572 -0.177833
v -0.214128 0.869064 -0.195419
v -0.298493 0.836585 -0.213660
v -0.300318 0.860794 -0.251559
v -0.303738 0.862112 -0.215994
v -0.834718 0.779859 -0.220840
v -0.598243 0.799156 -0.195046
v -0.827004 0.765949 -0.240518
v -0.598149 0.811140 -0.226465
v -0.602609 0.819210 -0.201954
v -0.830861 0.765132 -0.207479
v -1.044520 0.529817 -0.184170
v -0.115273 0.801481 -0.168580
v -0.440634 0.912585 -1.079172
v -0.872367 0.694618 -0.346484
v -0.766452 0.714583 -0.455274
v -0.763267 0.739832 -0.577094
v -0.802259 0.802931 -0.768876
v -0.655725 0.930627 -0.635192
v -0.499619 1.080890 -0.612412
v -0.314997 0.993258 -0.783210
v -0.540772 0.905818 -0.461234
v -0.346444 1.051234 -0.528170
v -0.591907 0.777781 -0.415601
v -0.289566 0.980347 -0.499367
v -0.688090 0.736131 -0.412809
v -0.556854 0.812143 -0.436106
v -0.087961 0.683180 -0.158436
v -0.145092 0.673633 -0.167930
v -0.132552 0.723679 -0.183272
v -0.089943 0.730254 -0.156879
v -0.110109 0.682990 -0.097969
v -0.160382 0.677895 -0.116601
v -0.150392 0.724765 -0.131166
v -0.114351 0.723855 -0.110950
v -0.107537 0.646928 -0.125719
v -0.139308 0.648226 -0.131412
v -0.091278 0.589098 -0.224602
v -0.064871 0.587526 -0.220670
v -0.070631 0.569578 -0.206260
v -0.090073 0.567770 -0.210746
v -0.089423 0.557867 -0.249937
v -0.087291 0.541657 -0.219636
v -0.056429 0.557254 -0.243158
v -0.061915 0.545205 -0.213517
v -0.143196 0.533621 -0.025425
v -0.174342 0.523325 -0.034195
v -0.132165 0.518501 -0.033563
v -0.166861 0.507274 -0.044219
v -0.184465 0.470856 0.155041
v -0.217352 0.459391 0.146024
v -0.171564 0.453312 0.147440
v -0.210537 0.441158 0.135334
v -0.173994 0.469869 0.227351
v -0.258812 0.434805 0.204215
v -0.153265 0.439608 0.216517
v -0.247611 0.402179 0.187632
v -0.216982 0.444277 0.232554
v -0.200807 0.412459 0.218388
v -0.156070 0.449029 0.250163
v -0.176229 0.475216 0.268350
v -0.219373 0.450467 0.265814
v -0.204131 0.422068 0.250223
v -0.147930 0.427966 0.279052
v -0.162592 0.437546 0.308687
v -0.203518 0.415678 0.296915
v -0.194018 0.405436 0.271141
v -0.149551 0.289344 0.298341
v -0.222392 0.400846 0.249333
v -0.281349 0.421900 0.246153
v -0.238988 0.417716 0.276277
v -0.269272 0.401149 0.216023
v -0.255220 0.368818 0.278697
v -0.241660 0.370039 0.254661
v -0.288262 0.380041 0.262104
v -0.278234 0.374979 0.236183
v -0.284884 0.243171 0.253007
v -0.180750 0.402841 0.158362
v -0.211959 0.422770 0.123207
v -0.160558 0.433642 0.131423
v -0.133932 0.384154 0.155555
v -0.159668 0.383637 0.123500
v -0.124678 0.409545 0.126832
v -0.087510 0.353455 0.201509
v -0.082758 0.871912 0.094685
v -0.003442 0.950722 0.148426
v -0.063015 0.911484 0.100316
v -0.255292 0.942034 0.086433
v 0.019170 1.038548 -0.295741
v 0.015461 1.037361 -0.221526
v 0.013853 1.029358 -0.190122
v 0.011947 1.026049 -0.152265
v 0.009991 1.017074 -0.113980
v -0.004830 0.876162 0.168625
v -0.007294 0.850723 0.215387
v -0.004705 0.844865 0.047991
v -0.005038 0.806941 0.027255
v -0.007204 0.750992 0.007223
v -0.001941 0.880335 0.112441
v 0.001096 0.893324 0.050313
v 0.101230 1.037461 -0.291498
v 0.121847 1.038440 -0.212079
v 0.090715 0.867375 -0.068872
v 0.202635 1.027845 -0.180318
v 0.187457 1.024184 -0.144079
v 0.114753 1.022151 -0.103890
v 0.211238 1.006550 -0.056919
v 0.195501 1.001118 -0.036206
v 0.109421 0.983414 -0.007949
v 0.140404 0.973497 0.021059
v 0.111416 0.946250 0.054912
v 0.093419 0.896010 0.062369
v 0.046981 0.886041 0.163763
v 0.027709 0.853189 0.218514
v 0.103976 0.958397 0.064877
v 0.083335 0.953427 0.092085
v 0.100613 0.813892 -0.323272
v 0.195466 0.936287 0.105985
v 0.195647 0.949023 0.081002
v 0.194855 0.972402 0.090117
v 0.194120 0.942805 0.120666
v 0.221912 0.922206 0.117189
v 0.224077 0.939332 0.069577
v 0.222122 0.990444 0.083659
v 0.219450 0.970415 0.135161
v 0.245996 0.934188 0.113441
v 0.247810 0.947788 0.078470
v 0.246138 0.980524 0.090674
v 0.244323 0.966924 0.125644
v 0.098591 0.966962 -0.004946
v 0.091401 0.953809 0.017066
v 0.075198 0.931702 0.013435
v 0.077062 0.839880 0.059060
v 0.076024 0.867970 0.003626
v 0.049470 0.898363 -0.258375
v 0.037812 0.803114 0.034179
v 0.032529 0.814273 0.005426
v 0.020345 0.748703 0.012113
v 0.022167 0.772337 -0.002686
v 0.163426 0.861040 -0.149225
v 0.041961 0.920088 -0.026133
v 0.136994 1.014891 -0.078827
v 0.105762 0.978197 -0.034116
v 0.092364 0.794765 -0.338802
v 0.114238 0.773285 -0.329960
v 0.119974 0.716025 -0.302995
v 0.062020 0.672006 -0.282103
v 0.182857 0.904028 -0.188341
v 0.212868 0.856849 -0.201750
v 0.297545 0.824247 -0.218235
v 0.300547 0.849134 -0.255616
v 0.302980 0.849783 -0.219952
v 0.825031 0.759297 -0.152000
v 0.588981 0.794150 -0.169755
v 0.824051 0.755136 -0.176939
v 0.592743 0.795488 -0.202790
v 0.593147 0.809759 -0.181920
v 0.809002 0.747489 -0.148266
v 1.038113 0.517756 -0.111575
v 0.114283 0.796166 -0.169673
v 0.410399 0.863666 -1.082422
v 0.869641 0.655481 -0.280780
v 0.781588 0.676407 -0.417650
v 0.784415 0.705867 -0.536943
v 0.854803 0.795803 -0.701973
v 0.682709 0.890605 -0.589057
v 0.522094 1.048288 -0.581178
v 0.319029 0.995887 -0.779607
v 0.557945 0.862315 -0.430918
v 0.369146 1.032125 -0.525175
v 0.595050 0.746775 -0.396608
v 0.299396 0.972613 -0.501604
v 0.696507 0.702330 -0.386108
v 0.557138 0.773629 -0.411309
v 0.087434 0.692073 -0.159690
v 0.144201 0.695585 -0.176108
v 0.130316 0.734686 -0.184803
v 0.087850 0.738087 -0.158402
v 0.110210 0.686634 -0.104776
v 0.160205 0.687238 -0.125856
v 0.148890 0.736457 -0.129821
v 0.113107 0.733205 -0.111450
v 0.107775 0.658502 -0.141959
v 0.139348 0.662638 -0.148681
v 0.090684 0.633107 -0.255132
v 0.064372 0.629952 -0.251799
v 0.070685 0.609243 -0.243379
v 0.090021 0.608620 -0.248183
v 0.089086 0.605936 -0.287316
v 0.088039 0.587440 -0.255455
v 0.056295 0.604028 -0.280319
v 0.062770 0.590680 -0.250320
v 0.148441 0.599366 -0.063009
v 0.179868 0.589788 -0.071586
v 0.137980 0.583142 -0.069633
v 0.172962 0.572641 -0.080092
v 0.195876 0.553777 0.121267
v 0.229085 0.543072 0.112305
v 0.183746 0.536307 0.114660
v 0.222979 0.523814 0.103133
v 0.182522 0.556657 0.191948
v 0.270090 0.524408 0.175222
v 0.164012 0.524722 0.182344
v 0.261116 0.489785 0.160623
v 0.226514 0.533937 0.200653
v 0.212700 0.501111 0.187513
v 0.164571 0.537154 0.214065
v 0.183315 0.564000 0.232841
v 0.227468 0.540668 0.231433
v 0.213714 0.513254 0.210044
v 0.157091 0.517626 0.246734
v 0.171671 0.526692 0.277139
v 0.213531 0.507960 0.263949
v 0.204195 0.494956 0.238784
v 0.167477 0.379393 0.278170
v 0.233960 0.492081 0.223199
v 0.292114 0.516246 0.219562
v 0.249886 0.512222 0.249149
v 0.280826 0.492134 0.190245
v 0.268320 0.463535 0.256092
v 0.254514 0.462954 0.231692
v 0.300900 0.475140 0.238438
v 0.290965 0.467444 0.213007
v 0.301496 0.337497 0.239835
v 0.195403 0.484630 0.129182
v 0.225544 0.503725 0.092656
v 0.174005 0.512483 0.099874
v 0.149507 0.463502 0.128126
v 0.175500 0.461538 0.096315
v 0.139351 0.486009 0.097339
v 0.103586 0.433437 0.178584
v 0.078537 0.870078 0.103718
v 0.060551 0.919320 0.108394
v 0.253914 0.957322 0.102552
v -0.063303 0.781244 -0.267790
v 0.066170 0.779605 -0.268287
v 0.103233 0.810908 -0.236573
v -0.101196 0.812817 -0.236183
vt 0.474247 1.000024
vt 0.432881 1.000024
vt 0.434057 0.893539
vt 0.509861 1.000024
vt 0.500227 0.768354
vt 0.559969 0.937079
vt 0.645064 0.954173
vt 0.560228 0.940601
vt 0.583639 0.999781
vt 0.500485 0.773130
vt 0.557266 0.999781
vt 0.078178 0.645053
vt 0.145329 0.600948
vt 0.009554 0.578044
vt 0.629598 0.999781
vt 0.656534 0.999781
vt 0.043058 0.667957
vt 0.009554 0.620213
vt 0.512543 0.981892
vt 0.471564 0.821771
vt 0.527454 0.989559
vt 0.480692 0.821771
vt 0.462656 0.892018
vt 0.010156 0.671319
vt 0.079997 0.644406
vt 0.044254 0.667717
vt 0.462330 0.893296
vt 0.363979 0.871999
vt 0.417906 0.999781
vt 0.180894 0.905878
vt 0.211214 0.926339
vt 0.151369 0.927184
vt 0.432105 0.999781
vt 0.359627 0.798296
vt 0.329341 0.825147
vt 0.386839 0.999781
vt 0.298881 0.891138
vt 0.380070 1.000024
vt 0.307338 1.000024
vt 0.334880 0.898555
vt 0.095969 0.432562
vt 0.010156 0.431276
vt 0.010156 0.398660
vt 0.265186 1.000024
vt 0.239898 1.000024
vt 0.239968 0.910398
vt 0.267768 0.860783
vt 0.297710 0.999781
vt 0.009554 0.431384
vt 0.093871 0.436902
vt 0.086972 0.413221
vt 0.202414 0.914836
vt 0.196688 0.802296
vt 0.184322 0.800589
vt 0.117628 0.999781
vt 0.102109 0.947707
vt 0.039265 0.964220
vt 0.191148 0.775024
vt 0.167133 0.773191
vt 0.225497 0.888506
vt 0.213084 0.801976
vt 0.224475 0.802438
vt 0.186573 0.800832
vt 0.225358 0.895351
vt 0.222224 0.802195
vt 0.819590 0.933905
vt 0.741830 1.002771
vt 0.745676 0.981737
vt 0.169384 0.773434
vt 0.219437 0.773434
vt 0.241200 0.775024
vt 0.678604 0.929671
vt 0.702745 0.932100
vt 0.798477 0.934975
vt 0.755545 0.885339
vt 0.756364 0.860805
vt 0.008395 0.999781
vt 0.050191 0.999781
vt 0.006807 0.579017
vt 0.088521 0.542699
vt 0.142997 0.606255
vt 0.106762 0.390629
vt 0.009554 0.409522
vt 0.821998 0.059350
vt 0.793626 0.064078
vt 0.821998 0.017938
vt 0.109088 0.385467
vt 0.010156 0.356430
vt 0.010156 0.294247
vt 0.164845 0.936891
vt 0.132684 0.917898
vt 0.158955 0.999781
vt 0.251493 0.999781
vt 0.121032 0.522092
vt 0.010156 0.538976
vt 0.229751 1.000024
vt 0.202874 0.960390
vt 0.297894 0.904225
vt 0.270019 0.861025
vt 0.821997 0.148207
vt 0.768986 0.140328
vt 0.781726 0.108721
vt 0.175211 1.000024
vt 0.138634 1.000024
vt 0.092576 1.000024
vt 0.033907 1.000024
vt 0.054982 0.974363
vt 0.091565 0.955891
vt 0.098755 0.966742
vt 0.006807 0.497303
vt 0.006807 0.433747
vt 0.061283 0.470065
vt 0.131496 0.917612
vt 0.004047 1.000024
vt 0.032968 0.971590
vt 0.648570 0.954416
vt 0.658785 1.000024
vt 0.609179 1.000024
vt 0.010156 0.635279
vt 0.299877 0.892636
vt 0.355604 0.794775
vt 0.202357 0.999781
vt 0.088947 0.408461
vt 0.428579 0.656093
vt 0.423662 0.696384
vt 0.468944 0.689061
vt 0.531845 0.681720
vt 0.536419 0.712644
vt 0.610352 0.692828
vt 0.102623 0.365689
vt 0.112804 0.333641
vt 0.080802 0.297116
vt 0.248096 0.339680
vt 0.277080 0.531051
vt 0.282148 0.327738
vt 0.196955 0.568250
vt 0.171694 0.589610
vt 0.275180 0.560080
vt 0.523059 0.538596
vt 0.753690 0.411864
vt 0.394870 0.237242
vt 0.280495 0.557925
vt 0.282428 0.528381
vt 0.532773 0.536061
vt 0.269459 0.553689
vt 0.519237 0.554218
vt 0.535788 0.556253
vt 0.716599 0.481061
vt 0.595223 0.398790
vt 0.437154 0.342183
vt 0.464362 0.360988
vt 0.701500 0.500488
vt 0.703680 0.484556
vt 0.526021 0.558436
vt 0.709844 0.503462
vt 0.127878 0.521223
vt 0.090830 0.544067
vt 0.505343 0.387091
vt 0.948055 0.392623
vt 0.722873 0.500303
vt 0.965311 0.387497
vt 0.008771 0.540307
vt 0.173246 0.589150
vt 0.118191 0.524020
vt 0.665937 0.364567
vt 0.539998 0.204645
vt 0.660993 0.264792
vt 0.287140 0.166653
vt 0.009554 0.494631
vt 0.009554 0.385842
vt 0.124838 0.524541
vt 0.197472 0.569937
vt 0.278223 0.559193
vt 0.280150 0.529746
vt 0.065707 0.507251
vt 0.148340 0.599519
vt 0.175172 0.587980
vt 0.469280 0.659417
vt 0.505147 0.691113
vt 0.358231 0.813259
vt 0.396762 0.861519
vt 0.463835 0.781576
vt 0.334361 0.622665
vt 0.318366 0.723370
vt 0.458201 0.720399
vt 0.455465 0.629717
vt 0.535658 0.660000
vt 0.620783 0.673963
vt 0.453440 0.629177
vt 0.584055 0.653212
vt 0.584827 0.677850
vt 0.503016 0.653376
vt 0.539342 0.629326
vt 0.620698 0.651899
vt 0.732105 0.651967
vt 0.728838 0.643284
vt 0.621615 0.624442
vt 0.632604 0.637198
vt 0.636322 0.685307
vt 0.636814 0.636255
vt 0.621290 0.624515
vt 0.619952 0.697967
vt 0.621630 0.699173
vt 0.734007 0.671131
vt 0.729414 0.682004
vt 0.844311 0.686359
vt 0.621380 0.674077
vt 0.636178 0.688381
vt 0.733584 0.644686
vt 0.849901 0.650483
vt 0.851008 0.673148
vt 0.928244 0.660805
vt 0.843633 0.637183
vt 0.730695 0.682992
vt 0.844925 0.638417
vt 0.740409 0.775706
vt 0.713106 0.780706
vt 0.704568 0.818200
vt 0.896603 0.625215
vt 0.878631 0.609036
vt 0.785632 0.738775
vt 0.737278 0.738859
vt 0.880723 0.715185
vt 0.913616 0.613223
vt 0.897236 0.601821
vt 0.730897 0.812957
vt 0.780941 0.817868
vt 0.792510 0.817868
vt 0.790023 0.778792
vt 0.898074 0.698036
vt 0.711846 0.726905
vt 0.683097 0.727238
vt 0.685751 0.762377
vt 0.965266 0.662943
vt 0.955920 0.640956
vt 0.937049 0.627702
vt 0.714789 0.764119
vt 0.941121 0.702714
vt 0.919603 0.714522
vt 0.932540 0.731689
vt 0.929544 0.592491
vt 0.912862 0.581726
vt 0.967203 0.616180
vt 0.950630 0.603144
vt 0.902827 0.726042
vt 0.957928 0.692611
vt 0.950735 0.721911
vt 0.964856 0.713499
vt 0.615440 0.761890
vt 0.984016 0.535583
vt 0.918749 0.741460
vt 0.685114 0.782002
vt 0.679087 0.810945
vt 0.847072 0.686366
vt 0.914720 0.615321
vt 0.929979 0.594898
vt 0.950087 0.605671
vt 0.608583 0.784975
vt 0.984016 0.786714
vt 0.799318 0.743667
vt 0.831117 0.767611
vt 0.823981 0.791937
vt 0.982769 0.539053
vt 0.825639 0.742255
vt 0.886191 0.771748
vt 0.391135 0.800147
vt 0.375753 0.599215
vt 0.324001 0.784547
vt 0.429296 0.757561
vt 0.279186 0.533620
vt 0.270107 0.551779
vt 0.178643 0.905635
vt 0.750796 0.933481
vt 0.821997 0.285131
vt 0.821997 0.331456
vt 0.791374 0.330169
vt 0.821998 0.110806
vt 0.821997 0.238271
vt 0.779153 0.273656
vt 0.544401 1.000024
vt 0.473816 0.822014
vt 0.821997 0.190377
vt 0.754407 0.181463
vt 0.759288 0.228469
vt 0.375409 0.872242
vt 0.334031 0.621557
vt 0.821996 0.381399
vt 0.647236 0.956984
vt 0.563654 0.943411
vt 0.541813 1.000083
vt 0.434491 1.000083
vt 0.389226 1.000083
vt 0.329218 0.822939
vt 0.586026 1.000083
vt 0.561360 0.944666
vt 0.644941 0.954474
vt 0.559653 1.000083
vt 0.500362 0.770922
vt 0.043124 0.669810
vt 0.006807 0.660730
vt 0.006807 0.624413
vt 0.658921 1.000083
vt 0.631985 1.000083
vt 0.064720 0.466534
vt 0.558639 0.973714
vt 0.530104 0.984870
vt 0.473951 0.822073
vt 0.493413 0.964305
vt 0.434192 0.893597
vt 0.295305 0.904284
vt 0.262597 1.000083
vt 0.304749 1.000083
vt 0.376800 0.873555
vt 0.178305 0.905936
vt 0.128907 0.917671
vt 0.148780 0.927242
vt 0.502657 0.770922
vt 0.507272 1.000083
vt 0.353495 1.000083
vt 0.300013 0.892694
vt 0.377481 1.000083
vt 0.332291 0.898614
vt 0.094303 0.434241
vt 0.087304 0.410219
vt 0.008771 0.400451
vt 0.237380 0.910457
vt 0.237309 1.000083
vt 0.300096 1.000083
vt 0.270155 0.861084
vt 0.006807 0.415589
vt 0.088521 0.415589
vt 0.186709 0.800890
vt 0.199074 0.802597
vt 0.204801 0.915138
vt 0.120014 1.000083
vt 0.052578 1.000083
vt 0.041652 0.964521
vt 0.169520 0.773492
vt 0.193534 0.775326
vt 0.221886 0.802496
vt 0.210495 0.802034
vt 0.222908 0.888565
vt 0.183984 0.800890
vt 0.224610 0.802496
vt 0.227744 0.895652
vt 0.818979 0.933781
vt 0.797866 0.934852
vt 0.745065 0.981613
vt 0.216848 0.773492
vt 0.166795 0.773492
vt 0.243587 0.775326
vt 0.240862 0.775326
vt 0.741219 1.002647
vt 0.702134 0.931977
vt 0.754934 0.885215
vt 0.677993 0.929547
vt 0.030379 0.971649
vt 0.004640 1.000083
vt 0.031318 1.000083
vt 0.390828 0.798355
vt 0.376482 0.598671
vt 0.336115 0.622653
vt 0.006807 0.406510
vt 0.106679 0.388351
vt 0.851059 0.063308
vt 0.457276 0.719815
vt 0.453813 0.628344
vt 0.253879 1.000083
vt 0.204744 1.000083
vt 0.225632 0.888565
vt 0.161342 1.000083
vt 0.104496 0.948009
vt 0.135070 0.918200
vt 0.167232 0.937192
vt 0.355525 0.798597
vt 0.332768 0.820429
vt 0.208625 0.926398
vt 0.267430 0.861084
vt 0.864773 0.108127
vt 0.136045 1.000083
vt 0.172622 1.000083
vt 0.052394 0.974421
vt 0.089988 1.000083
vt 0.088976 0.955950
vt 0.096166 0.966800
vt 0.606590 1.000083
vt 0.656197 1.000083
vt 0.078383 0.645391
vt 0.146502 0.600651
vt 0.008771 0.636294
vt 0.200285 0.960449
vt 0.180124 1.000083
vt 0.042758 0.668625
vt 0.008771 0.672215
vt 0.297289 0.892694
vt 0.107379 0.387301
vt 0.008771 0.358360
vt 0.428686 0.656513
vt 0.468892 0.659410
vt 0.468203 0.688038
vt 0.531875 0.681591
vt 0.621501 0.673619
vt 0.608476 0.692734
vt 0.251948 0.333875
vt 0.279186 0.324796
vt 0.279186 0.560858
vt 0.760390 0.406510
vt 0.524328 0.542699
vt 0.397217 0.234002
vt 0.532678 0.557526
vt 0.529674 0.537400
vt 0.524328 0.551779
vt 0.719149 0.501760
vt 0.712896 0.482582
vt 0.596962 0.397430
vt 0.442614 0.342954
vt 0.469852 0.361113
vt 0.714994 0.488223
vt 0.705914 0.497303
vt 0.714994 0.506382
vt 0.533407 0.560858
vt 0.185212 0.068914
vt 0.118861 0.520693
vt 0.506169 0.388351
vt 0.960135 0.388351
vt 0.960792 0.389324
vt 0.669597 0.361113
vt 0.542487 0.197685
vt 0.705914 0.097813
vt 0.669597 0.261240
vt 0.288266 0.161368
vt 0.117270 0.522284
vt 0.006807 0.379272
vt 0.198872 0.567482
vt 0.136648 0.556264
vt 0.227162 1.000083
vt 0.376585 0.873555
vt 0.431468 0.893597
vt 0.502840 0.652110
vt 0.505978 0.691525
vt 0.357939 0.812192
vt 0.429570 0.757383
vt 0.464592 0.782081
vt 0.086436 0.358292
vt 0.458958 0.720904
vt 0.335392 0.623349
vt 0.318170 0.722492
vt 0.453772 0.629519
vt 0.502319 0.652263
vt 0.535541 0.658953
vt 0.620485 0.651860
vt 0.585286 0.677959
vt 0.585036 0.653036
vt 0.537196 0.712397
vt 0.539568 0.628809
vt 0.609924 0.637981
vt 0.736240 0.644628
vt 0.738065 0.654240
vt 0.620479 0.651731
vt 0.636644 0.688789
vt 0.634341 0.636845
vt 0.620659 0.626212
vt 0.621630 0.626169
vt 0.634415 0.636711
vt 0.621747 0.698284
vt 0.637904 0.688632
vt 0.622722 0.698509
vt 0.739936 0.673088
vt 0.855011 0.675072
vt 0.848424 0.688066
vt 0.735290 0.683841
vt 0.733904 0.683902
vt 0.735955 0.644357
vt 0.853922 0.652780
vt 0.930976 0.662932
vt 0.847757 0.639699
vt 0.846770 0.687464
vt 0.844901 0.639940
vt 0.705288 0.816480
vt 0.713826 0.778987
vt 0.740720 0.773576
vt 0.882179 0.612015
vt 0.899856 0.627928
vt 0.785942 0.736645
vt 0.737589 0.736729
vt 0.901302 0.699551
vt 0.884237 0.716418
vt 0.900479 0.604918
vt 0.916589 0.616133
vt 0.731208 0.810827
vt 0.781252 0.815738
vt 0.790334 0.776663
vt 0.792820 0.815738
vt 0.685652 0.759838
vt 0.682998 0.724699
vt 0.711337 0.723956
vt 0.939637 0.630374
vt 0.958197 0.643410
vt 0.714280 0.761171
vt 0.943641 0.704152
vt 0.953097 0.723032
vt 0.935201 0.732650
vt 0.915847 0.585154
vt 0.932255 0.595743
vt 0.952994 0.606220
vt 0.969294 0.619042
vt 0.922477 0.715765
vt 0.905978 0.727096
vt 0.960172 0.694215
vt 0.966986 0.714759
vt 0.617389 0.759351
vt 0.985830 0.539770
vt 0.921638 0.742261
vt 0.680217 0.809225
vt 0.686244 0.780282
vt 0.937908 0.632033
vt 0.914075 0.616766
vt 0.799629 0.741538
vt 0.950384 0.606690
vt 0.929177 0.595962
vt 0.606845 0.782846
vt 0.985831 0.786770
vt 0.825950 0.740125
vt 0.831428 0.765482
vt 0.824292 0.789807
vt 0.983405 0.540292
vt 0.886502 0.769618
vt 0.079441 0.642572
vt 0.323805 0.783669
vt 0.434321 0.717690
vt 0.181030 0.905936
vt 0.750185 0.933357
vt 0.852619 0.330170
vt 0.864841 0.273657
vt 0.471659 1.000083
vt 0.471227 0.822073
vt 0.875009 0.140328
vt 0.884706 0.228470
vt 0.005478 0.997961
vt 0.114251 0.350647
vt 0.008771 0.296380
vt 0.128249 0.435302
vt 0.008771 0.432960
vt 0.118380 0.522092
vt 0.175368 0.588619
vt 0.080720 0.522092
vt 0.116882 0.518706
vt 0.184949 0.068196
vt 0.118473 0.523480
vt 0.062823 0.510229
vt 0.088521 0.433747
vt 0.009554 0.660973
vt 0.474881 0.981892
vt 0.498876 0.974226
vt 0.010156 0.675711
vt 0.499828 0.971670
vt 0.345428 0.798296
vt 0.351108 0.999781
vt 0.009554 0.417542
vt 0.227609 0.895594
vt 0.243451 0.775267
vt 0.115982 0.348692
vt 0.223246 0.888263
vt 0.129915 0.437866
vt 0.182713 1.000024
vt 0.326573 0.827899
vt 0.051738 0.313685
vt 0.695543 0.105347
vt 0.187334 0.073157
vt 0.119252 0.520838
vt 0.200882 0.566241
vt 0.375541 0.599880
vt 0.459519 0.720731
vt 0.609394 0.637996
vt 0.636730 0.636125
vt 0.637405 0.688736
vt 0.938273 0.630062
vt 0.434214 0.717270
vt 0.356995 0.797342
vt 0.225020 0.895652
vt 0.755753 0.860681
vt 0.008771 0.676593
vt 0.423936 0.696206
vt 0.170235 0.588096
vt 0.430293 1.000083
vt 0.396997 0.861241
vt 0.057372 0.374862
vt 0.634627 0.636963
vt 0.637990 0.688597
vt 0.967389 0.665035
vt 0.889587 0.181464
vt 0.376483 0.598964
vn -0.084400 -0.987700 -0.131300
vn -0.114600 -0.866200 -0.486300
vn -0.918900 0.361200 -0.158400
vn -0.124100 -0.969500 -0.211000
vn -0.946800 0.106800 -0.303500
vn -0.391200 0.639500 -0.661700
vn -0.839100 0.344600 -0.420900
vn 0.183400 0.972500 -0.143700
vn 0.096300 0.991600 -0.085500
vn -0.719400 0.108800 0.685900
vn -0.776700 -0.232600 0.585300
vn -0.007100 -0.777300 0.629100
vn 0.182300 0.941200 -0.284500
vn -0.046000 -0.254900 -0.965900
vn -0.901400 -0.139100 -0.410000
vn -0.005100 -0.443600 0.896200
vn -0.851700 -0.087900 0.516600
vn 0.085000 0.974200 0.208900
vn 0.006000 0.997600 0.068300
vn -0.296300 0.485100 -0.822700
vn 0.063200 0.970400 0.233100
vn -0.806300 -0.590900 0.026100
vn -0.732600 -0.329000 -0.595800
vn -0.604900 0.000200 -0.796300
vn -0.958100 0.171500 -0.229400
vn -0.736400 -0.109300 0.667600
vn 0.046300 0.884800 0.463700
vn -0.723300 0.669300 0.170000
vn -0.038100 -0.662300 -0.748300
vn 0.006100 -0.935800 -0.352500
vn -0.385300 -0.820300 -0.422600
vn -0.991200 0.012600 -0.131600
vn 0.004200 0.713100 -0.701000
vn 0.004300 0.515200 -0.857000
vn 0.027900 -0.779200 -0.626100
vn 0.009700 0.554800 -0.831900
vn -0.600400 -0.511800 -0.614500
vn -0.970900 0.236900 0.033600
vn 0.009200 0.946700 0.321800
vn 0.002000 -0.999900 -0.012200
vn -0.912200 0.375900 -0.163000
vn -0.406400 0.241800 0.881100
vn 0.341000 0.171700 0.924200
vn 0.302000 -0.947300 0.106600
vn -0.025400 0.860000 0.509600
vn -0.936000 -0.295800 0.190900
vn -0.891500 -0.446600 0.075700
vn 0.022800 0.096500 0.995100
vn 0.014500 -0.987900 0.154000
vn -0.853400 -0.156400 -0.497300
vn 0.213800 -0.110400 -0.970600
vn 0.314000 0.946600 -0.073100
vn -0.308300 0.845700 0.435500
vn 0.082900 0.986900 -0.138200
vn -0.629700 0.770200 -0.101000
vn 0.059600 -0.148300 -0.987100
vn -0.649100 -0.094900 -0.754700
vn -0.660700 0.149600 0.735500
vn -0.688500 -0.720100 0.085900
vn -0.022900 -0.930600 0.365200
vn -0.041800 0.463300 0.885200
vn 0.771600 -0.636000 -0.008200
vn 0.807100 -0.257500 0.531200
vn -0.820000 0.463400 -0.336000
vn 0.001700 0.921900 0.387300
vn -0.160500 -0.042800 0.986100
vn -0.878000 -0.460800 0.129400
vn -0.144500 -0.923800 0.354600
vn 0.017500 -0.068600 -0.997500
vn 0.005400 -0.718900 -0.695100
vn -0.703900 0.129300 0.698400
vn -0.739200 -0.659100 0.138200
vn -0.045000 0.788300 0.613600
vn -0.037100 0.858900 0.510700
vn -0.682900 0.266500 -0.680200
vn 0.018300 0.898300 -0.438900
vn -0.025500 0.860000 -0.509600
vn -0.642800 -0.504500 -0.576400
vn -0.141300 -0.265300 0.953700
vn -0.779500 -0.489000 0.391500
vn -0.783800 -0.551300 0.285900
vn 0.069000 0.085000 -0.994000
vn 0.116300 0.014400 -0.993100
vn 0.152500 -0.071500 -0.985700
vn 0.119300 -0.314600 -0.941700
vn -0.576600 -0.025200 -0.816600
vn -0.523400 -0.186900 -0.831300
vn -0.008900 -0.999900 0.007800
vn 0.676500 -0.703300 -0.218100
vn -0.226300 -0.973300 0.038500
vn 0.034200 0.963300 0.266300
vn -0.059100 0.763200 0.643500
vn 0.478000 0.737100 0.477500
vn -0.737700 0.674000 -0.037800
vn -0.705300 0.678300 0.205800
vn -0.616200 -0.690100 0.379500
vn -0.877800 -0.263100 -0.400200
vn -0.565300 0.331100 -0.755500
vn 0.050300 -0.991500 -0.119700
vn -0.203700 -0.967300 -0.151200
vn -0.608400 -0.790000 -0.075700
vn 0.140900 -0.607300 -0.781800
vn -0.355400 -0.900000 -0.252200
vn -0.107900 -0.811100 0.574800
vn -0.429900 0.857300 0.283200
vn -0.266600 0.721000 0.639500
vn 0.178600 -0.927800 -0.327400
vn 0.481400 -0.846600 0.226800
vn 0.227600 -0.904100 -0.361500
vn 0.199200 -0.874800 0.441500
vn 0.114400 -0.686800 0.717800
vn -0.145800 0.881800 0.448400
vn 0.345800 -0.907200 -0.239500
vn 0.317400 -0.947300 -0.042800
vn 0.620000 -0.465400 -0.631600
vn 0.608700 -0.571500 -0.550300
vn 0.079400 -0.188700 0.978800
vn -0.487100 0.872600 0.035100
vn -0.796400 -0.604700 -0.003100
vn 0.443900 -0.841600 -0.307600
vn 0.737800 -0.663400 0.124300
vn 0.483400 0.829300 0.280200
vn 0.675300 0.245500 -0.695500
vn 0.298300 -0.952100 -0.067400
vn 0.737400 -0.394400 -0.548300
vn 0.479900 -0.818400 -0.316100
vn -0.892100 0.425900 0.151000
vn -0.011400 0.752800 0.658100
vn 0.071000 -0.846700 0.527300
vn 0.234300 0.722900 0.650000
vn -0.147900 -0.608200 -0.779900
vn -0.905000 -0.112100 -0.410300
vn 0.264900 0.655400 0.707300
vn -0.858700 -0.183700 0.478400
vn -0.781900 -0.411100 -0.468500
vn 0.919200 -0.234400 0.316400
vn 0.427800 -0.538500 0.725900
vn -0.998200 -0.000200 0.059000
vn 0.837300 0.445400 -0.316900
vn 0.377000 -0.097900 0.921000
vn 0.818400 0.149700 0.554800
vn 0.287300 0.897900 0.333600
vn 0.904100 -0.381300 0.192800
vn 0.762200 -0.164700 -0.626000
vn 0.822100 -0.564600 0.073000
vn -0.492300 -0.804700 -0.331800
vn -0.494800 -0.164800 -0.853200
vn -0.858500 0.493400 -0.139300
vn -0.463400 -0.781500 -0.417800
vn -0.702800 -0.382300 -0.599900
vn 0.223600 0.957000 0.184900
vn -0.794500 0.588200 -0.151200
vn -0.523300 0.803800 0.282900
vn 0.989200 0.121500 -0.081900
vn 0.395000 -0.912700 0.104000
vn 0.831400 -0.515400 0.207900
vn -0.585200 -0.498500 -0.639600
vn 0.237300 0.968500 -0.075200
vn 0.955700 -0.287400 -0.063900
vn -0.352700 -0.773800 -0.526100
vn 0.131900 0.951900 0.276500
vn 0.995700 0.018700 -0.090700
vn -0.817000 -0.118200 -0.564400
vn -0.109600 -0.746500 0.656300
vn -0.741800 0.613000 -0.272100
vn 0.978600 0.001000 -0.205600
vn -0.458300 -0.613600 -0.643000
vn -0.472200 -0.877300 -0.085900
vn -0.906500 0.355000 0.228300
vn 0.264200 0.388700 0.882700
vn -0.806500 0.564900 0.174300
vn -0.909700 0.104800 0.401700
vn 0.331400 0.403900 0.852600
vn -0.795000 -0.114300 0.595700
vn 0.253600 -0.148000 0.955900
vn 0.880500 -0.407100 -0.242900
vn 0.205800 -0.975500 0.077000
vn -0.463400 -0.243800 -0.851900
vn 0.632000 0.663500 -0.400300
vn 0.804300 0.400300 -0.439100
vn -0.176300 -0.738300 -0.651000
vn -0.146500 -0.988500 -0.036100
vn -0.405900 0.207800 0.890000
vn 0.564000 -0.426200 0.707200
vn 0.023300 -0.780700 0.624400
vn -0.237100 -0.884700 0.401300
vn -0.999100 0.034500 -0.024200
vn 0.021000 -0.951200 -0.307800
vn 0.030300 -0.730300 -0.682500
vn -0.180400 -0.397100 0.899800
vn -0.004000 -0.998500 -0.054400
vn -0.195000 -0.969400 -0.149400
vn -0.076800 -0.804300 0.589300
vn 0.871700 -0.141900 -0.469000
vn 0.488500 -0.094800 -0.867400
vn 0.698500 -0.157000 0.698200
vn 0.957900 -0.081900 -0.275000
vn 0.980300 -0.067900 -0.185700
vn 0.263800 -0.827800 -0.495100
vn -0.680800 -0.701000 -0.212300
vn 0.811300 -0.192900 0.551800
vn 0.106700 0.967600 0.228800
vn 0.986100 -0.116300 -0.118200
vn 0.398100 -0.837800 -0.373500
vn 0.368500 0.157600 -0.916100
vn 0.852200 -0.505700 0.134200
vn 0.602800 -0.520200 0.605000
vn 0.730200 -0.175100 -0.660300
vn 0.050900 0.973300 0.223500
vn 0.964500 0.184600 0.188500
vn 0.309300 -0.916100 -0.255100
vn 0.990100 0.002200 -0.140300
vn 0.919800 0.343200 -0.190200
vn 0.517000 -0.667800 -0.535500
vn 0.993500 0.080000 -0.080500
vn -0.174000 0.468700 0.866000
vn -0.267700 -0.963300 -0.015400
vn -0.538800 -0.237700 0.808200
vn 0.387200 0.449100 0.805200
vn 0.874700 -0.456700 0.162100
vn 0.028700 -0.919700 0.391500
vn -0.129300 0.434300 0.891400
vn -0.473600 0.843100 -0.254500
vn -0.100100 -0.328600 -0.939100
vn 0.780900 -0.248200 -0.573200
vn 0.347300 0.883200 0.315200
vn 0.625900 0.327600 0.707700
vn 0.677600 0.691900 -0.249100
vn 0.004600 -0.477500 -0.878600
vn -0.070700 0.894400 -0.441500
vn 0.706900 -0.261600 -0.657100
vn 0.686400 -0.640300 0.344800
vn 0.694700 -0.611400 0.378900
vn 0.272000 -0.954400 -0.122600
vn 0.821800 0.464600 -0.329800
vn 0.919300 -0.119700 -0.374800
vn -0.879800 -0.244900 0.407200
vn 0.921800 -0.273400 0.274800
vn 0.680000 -0.697600 0.225500
vn 0.634900 0.119800 0.763200
vn 0.974900 0.044600 -0.217800
vn 0.747300 -0.332900 -0.575100
vn 0.529500 -0.664200 0.527700
vn 0.783500 -0.155700 -0.601500
vn 0.693300 -0.317500 -0.646900
vn 0.740800 0.101700 0.664000
vn -0.515000 0.721200 0.463200
vn -0.273700 0.582300 0.765500
vn 0.665200 0.683600 0.300300
vn 0.637400 -0.754600 0.155600
vn 0.994800 -0.004200 -0.101400
vn 0.523500 0.568500 -0.634600
vn 0.526600 -0.845300 -0.090100
vn 0.258900 -0.928900 -0.264600
vn -0.511600 -0.796600 0.321800
vn -0.173300 -0.982100 -0.074400
vn -0.254800 -0.868700 -0.424700
vn 0.143900 0.975000 0.169100
vn -0.137900 -0.432100 0.891200
vn 0.401000 0.772400 0.492500
vn -0.402100 -0.909900 -0.101700
vn -0.341900 -0.937200 -0.069100
vn -0.608000 -0.376000 -0.699200
vn -0.579000 -0.574400 -0.578500
vn -0.404200 -0.546700 0.733300
vn -0.945800 -0.183600 0.267900
vn -0.413600 -0.874500 -0.253300
vn -0.745500 -0.615700 0.255100
vn -0.324200 -0.940500 -0.101600
vn -0.644300 -0.405600 -0.648300
vn -0.580500 -0.511500 -0.633500
vn -0.471700 -0.746700 -0.468900
vn 0.990200 0.076200 0.116600
vn -0.331900 -0.305900 0.892300
vn 0.867000 -0.277800 0.413600
vn 0.789700 -0.412600 -0.453900
vn 0.667200 0.743100 -0.051200
vn -0.356100 -0.756700 0.548200
vn -0.876500 0.062600 0.477200
vn -0.830300 0.521200 -0.197300
vn -0.883200 -0.400800 0.243400
vn -0.323200 0.913100 0.248300
vn 0.497900 -0.808800 -0.312900
vn -0.804700 -0.585400 0.098300
vn -0.761900 -0.111200 -0.638000
vn 0.477400 -0.054600 -0.876900
vn 0.826700 0.523500 -0.206300
vn 0.775500 0.600600 -0.194500
vn 0.715500 -0.390700 -0.579000
vn 0.492900 -0.792600 -0.358900
vn -0.241700 0.963600 0.114400
vn 0.458300 0.850600 0.257600
vn -0.993500 0.068000 -0.090600
vn 0.615700 -0.537600 -0.576000
vn -0.821000 -0.522800 0.229300
vn -0.380000 -0.906600 0.183600
vn -0.929400 -0.362600 -0.068300
vn -0.279900 0.948900 -0.145700
vn 0.726700 0.622000 -0.291600
vn 0.410600 -0.797200 -0.442500
vn -0.991600 -0.020800 -0.127400
vn -0.171900 0.958100 0.229200
vn 0.168300 -0.672600 0.720600
vn 0.826300 -0.122400 -0.549600
vn 0.465100 -0.650000 -0.600900
vn -0.983600 -0.040700 -0.175400
vn 0.895400 0.390900 0.213200
vn 0.464900 -0.883400 0.058300
vn -0.293700 0.454300 0.841000
vn -0.248100 -0.077900 0.965600
vn 0.906100 0.168800 0.387900
vn -0.330500 0.427800 0.841300
vn 0.818300 -0.030400 0.574000
vn 0.774900 0.615500 0.143600
vn -0.863600 -0.461200 -0.203900
vn -0.144000 -0.975600 0.165600
vn 0.477300 -0.291600 -0.828900
vn -0.675600 0.574100 -0.462500
vn 0.217600 -0.781800 -0.584300
vn -0.821300 0.319500 -0.472500
vn 0.175500 -0.983700 0.038900
vn 0.391100 0.316800 0.864100
vn -0.541200 -0.393700 0.743000
vn 0.997800 0.023200 0.062300
vn 0.912800 -0.332700 0.236800
vn 0.916300 -0.095500 -0.388700
vn 0.677900 -0.552800 -0.484600
s 1
f 181/1/1 182/2/2 14/3/3
f 180/4/4 9/5/5 4/6/6
f 3/7/7 4/8/6 7/9/8
f 4/8/6 9/10/5 8/11/9
f 6/12/10 73/13/11 57/14/12
f 3/7/7 5/15/13 1/16/14
f 76/17/15 6/12/10 10/18/16
f 8/19/9 9/10/5 12/20/17
f 11/21/18 12/22/17 14/23/3
f 15/24/19 6/25/10 76/26/15
f 14/27/3 77/28/20 16/29/21
f 32/30/22 61/31/23 64/32/24
f 16/33/21 17/34/25 20/35/26
f 19/36/27 20/35/26 23/37/28
f 18/38/29 21/39/30 78/40/31
f 42/41/32 58/42/33 79/43/34
f 24/44/35 27/45/36 60/46/37
f 23/37/28 26/47/38 25/48/39
f 41/49/40 42/50/32 80/51/41
f 40/52/42 47/53/43 44/54/44
f 33/55/45 34/56/46 37/57/47
f 47/53/43 51/58/48 48/59/49
f 29/60/50 45/61/51 46/62/52
f 29/60/50 32/30/22 44/63/44
f 39/64/53 46/65/52 47/53/43
f 51/66/48 50/67/54 54/68/55
f 44/63/44 48/69/49 49/70/56
f 46/65/52 50/71/54 51/58/48
f 46/62/52 45/61/51 49/70/56
f 50/67/54 49/72/56 53/73/57
f 51/66/48 55/74/58 52/75/59
f 49/72/56 48/76/49 52/75/59
f 37/57/47 38/77/60 36/78/61
f 57/79/12 249/80/62 229/81/63
f 80/51/41 82/82/64 81/83/65
f 187/84/66 71/85/67 70/86/68
f 82/87/64 83/88/69 86/89/70
f 176/90/71 174/91/72 175/92/73
f 28/93/74 39/64/53 40/52/42
f 26/47/38 39/64/53 25/48/39
f 175/92/73 174/91/72 34/56/46
f 66/94/75 56/95/76 58/42/33
f 27/45/36 74/96/77 76/97/15
f 60/46/37 61/31/23 29/60/50
f 59/98/78 60/46/37 26/99/38
f 29/60/50 61/31/23 32/30/22
f 185/100/79 62/101/80 67/102/81
f 30/103/82 63/104/83 64/32/24
f 65/105/84 69/106/85 72/107/86
f 67/108/81 68/109/87 72/107/86
f 35/110/88 41/111/40 325/112/89
f 62/113/80 64/32/24 68/109/87
f 63/104/83 65/105/84 68/109/87
f 69/106/85 70/114/68 71/115/67
f 3/116/7 1/117/14 178/118/90
f 6/25/10 15/24/19 2/119/91
f 61/31/23 60/46/37 76/97/15
f 30/103/82 61/31/23 76/97/15
f 21/39/30 24/44/35 59/98/78
f 78/40/31 59/98/78 23/120/28
f 17/121/25 18/38/29 78/40/31
f 31/122/92 40/52/42 176/90/71
f 80/123/41 79/43/34 83/88/69
f 120/124/93 119/125/94 123/126/95
f 126/127/96 118/128/97 127/129/98
f 86/130/70 89/131/99 88/132/100
f 114/133/101 93/134/102 112/135/103
f 91/136/104 90/137/105 94/138/106
f 93/134/102 98/139/107 104/140/108
f 112/135/103 93/134/102 109/141/109
f 94/142/106 93/143/102 98/144/107
f 92/145/110 96/146/111 98/139/107
f 99/147/112 98/144/107 97/148/113
f 93/134/102 104/140/108 115/149/114
f 111/150/115 93/134/102 116/151/116
f 96/146/111 100/152/117 97/153/113
f 99/154/112 95/155/118 100/152/117
f 73/13/11 66/156/75 102/157/119
f 93/134/102 113/158/120 116/151/116
f 100/152/117 95/155/118 101/159/121
f 95/160/118 97/148/113 101/161/121
f 97/153/113 100/152/117 101/159/121
f 94/138/106 99/154/112 96/146/111
f 98/139/107 97/153/113 104/140/108
f 56/162/76 237/163/122 224/164/123
f 97/153/113 101/159/121 104/140/108
f 104/140/108 105/165/124 115/149/114
f 108/166/125 111/150/115 116/151/116
f 116/151/116 113/158/120 106/167/126
f 110/168/127 112/135/103 109/141/109
f 115/149/114 105/165/124 106/167/126
f 114/133/101 112/135/103 110/168/127
f 108/166/125 109/141/109 111/150/115
f 57/14/12 73/13/11 102/157/119
f 35/169/88 57/14/12 102/157/119
f 81/83/65 82/82/64 84/170/128
f 109/141/109 93/134/102 111/150/115
f 93/134/102 115/149/114 113/158/120
f 224/171/123 238/172/129 229/81/63
f 237/163/122 241/173/130 240/174/131
f 66/156/75 327/175/132 102/157/119
f 73/176/11 2/119/91 90/177/105
f 124/178/133 123/126/95 122/179/134
f 85/180/135 88/181/100 118/182/97
f 84/183/128 82/184/64 120/124/93
f 118/185/97 122/179/134 123/126/95
f 84/183/128 120/124/93 117/186/136
f 117/186/136 120/124/93 124/178/133
f 125/187/137 126/127/96 130/188/138
f 117/189/136 128/190/139 127/191/98
f 126/127/96 125/187/137 121/192/140
f 122/179/134 118/128/97 126/127/96
f 117/193/136 125/187/137 129/194/141
f 129/194/141 135/195/142 137/196/143
f 117/193/136 121/192/140 125/187/137
f 133/197/144 134/198/145 132/199/146
f 129/194/141 134/200/145 133/201/144
f 128/190/139 133/197/144 131/202/147
f 130/188/138 127/129/98 131/203/147
f 136/204/148 138/205/149 142/206/150
f 130/207/138 136/204/148 135/195/142
f 130/207/138 132/208/146 138/205/149
f 132/199/146 134/198/145 137/209/143
f 139/210/151 140/211/152 147/212/153
f 136/204/148 140/211/152 139/210/151
f 135/195/142 139/210/151 141/213/154
f 138/214/149 137/209/143 141/215/154
f 148/216/155 158/217/156 161/218/157
f 139/210/151 143/219/158 145/220/159
f 141/221/154 145/222/159 148/216/155
f 140/211/152 142/206/150 146/223/160
f 143/219/158 150/224/161 149/225/162
f 146/226/160 142/227/150 148/216/155
f 142/227/150 168/228/163 167/229/164
f 140/211/152 144/230/165 147/212/153
f 143/219/158 139/210/151 147/212/153
f 149/231/162 153/232/166 156/233/167
f 147/212/153 148/234/155 152/235/168
f 147/212/153 151/236/169 150/224/161
f 145/222/159 149/231/162 152/237/168
f 160/238/170 159/239/171 164/240/172
f 150/224/161 154/241/173 153/242/166
f 151/236/169 152/235/168 156/243/167
f 151/236/169 155/244/174 154/241/173
f 147/212/153 144/230/165 159/239/171
f 144/230/165 146/223/160 161/245/157
f 147/212/153 160/238/170 158/246/156
f 160/238/170 162/247/175 163/248/176
f 156/233/167 153/232/166 157/249/177
f 153/242/166 154/241/173 157/250/177
f 155/244/174 156/243/167 157/250/177
f 154/241/173 155/244/174 157/250/177
f 159/239/171 161/245/157 165/251/178
f 158/217/156 163/252/176 165/253/178
f 142/254/150 141/215/154 169/255/179
f 141/221/154 148/216/155 167/229/164
f 169/255/179 172/256/180 171/257/181
f 165/253/178 163/252/176 166/258/182
f 163/248/176 162/247/175 166/259/182
f 162/247/175 164/240/172 166/259/182
f 164/240/172 165/251/178 166/259/182
f 169/260/179 167/229/164 170/261/183
f 167/229/164 168/228/163 171/262/181
f 171/257/181 172/256/180 173/263/184
f 172/264/180 170/261/183 173/265/184
f 170/261/183 171/262/181 173/265/184
f 88/266/100 87/267/185 117/189/136
f 82/268/64 85/180/135 119/269/94
f 240/270/131 239/271/186 238/172/129
f 40/52/42 32/272/22 176/90/71
f 176/90/71 32/272/22 174/91/72
f 54/68/55 53/73/57 177/273/187
f 53/73/57 52/75/59 177/273/187
f 52/75/59 55/74/58 177/273/187
f 55/74/58 54/68/55 177/273/187
f 183/274/188 184/275/189 37/276/47
f 71/85/67 187/84/66 186/277/190
f 188/278/191 183/274/188 34/279/46
f 3/116/7 178/118/90 179/280/192
f 180/4/4 181/1/1 12/281/17
f 189/282/193 32/283/22 62/101/80
f 189/282/193 188/278/191 174/284/72
f 18/38/29 17/121/25 77/285/20
f 88/266/100 89/286/99 87/267/185
f 37/276/47 184/275/189 38/287/60
f 190/288/194 191/289/195 179/290/192
f 16/291/21 19/292/27 197/293/196
f 7/294/8 191/295/195 190/296/194
f 8/297/9 193/298/197 191/295/195
f 230/299/198 75/300/199 10/301/16
f 190/296/194 1/302/14 5/303/13
f 327/175/132 66/156/75 324/304/200
f 8/305/9 11/306/18 194/307/201
f 11/306/18 13/308/202 195/309/203
f 219/310/204 24/311/35 21/312/30
f 16/291/21 231/313/205 195/309/203
f 201/314/206 222/315/207 223/316/208
f 191/289/195 193/317/197 180/318/4
f 19/292/27 22/319/209 198/320/210
f 18/321/29 232/322/211 21/312/30
f 206/323/212 233/324/213 79/325/34
f 220/326/214 27/327/36 24/311/35
f 25/328/39 199/329/215 198/320/210
f 41/111/40 43/330/216 233/331/213
f 207/332/217 210/333/218 205/334/219
f 33/335/45 36/336/61 203/337/220
f 211/338/221 214/339/222 210/333/218
f 209/340/223 208/341/224 200/342/225
f 200/342/225 208/341/224 207/343/217
f 210/333/218 209/344/223 204/345/226
f 214/346/222 218/347/227 217/348/228
f 212/349/229 211/350/221 207/343/217
f 214/339/222 213/351/230 209/344/223
f 209/340/223 213/352/230 212/349/229
f 213/353/230 217/348/228 216/354/231
f 215/355/232 218/347/227 214/346/222
f 212/356/229 216/354/231 215/355/232
f 227/357/233 70/358/68 69/359/85
f 236/360/234 87/361/185 89/362/99
f 81/363/65 234/364/235 233/331/213
f 187/84/66 70/86/68 227/365/233
f 236/360/234 265/366/236 264/367/237
f 28/368/74 31/369/92 205/334/219
f 204/345/226 200/370/225 199/329/215
f 175/371/73 33/335/45 202/372/238
f 175/371/73 321/373/239 322/374/240
f 196/375/241 197/376/196 232/322/211
f 200/342/225 221/377/242 220/326/214
f 199/378/215 220/326/214 219/310/204
f 200/342/225 201/314/206 221/377/242
f 185/100/79 186/277/190 225/379/243
f 223/316/208 63/380/83 30/381/82
f 228/382/244 69/359/85 65/383/84
f 225/384/243 227/357/233 228/382/244
f 222/315/207 225/384/243 226/385/245
f 226/385/245 65/383/84 63/380/83
f 186/277/190 187/84/66 227/365/233
f 190/288/194 178/386/90 1/387/14
f 192/388/246 229/389/63 2/390/91
f 221/377/242 230/391/198 220/326/214
f 30/381/82 75/392/199 230/391/198
f 230/393/198 192/388/246 15/394/19
f 198/395/210 219/310/204 232/322/211
f 31/369/92 322/374/240 205/334/219
f 233/324/213 234/396/235 83/397/69
f 267/398/247 271/399/248 270/400/249
f 273/401/250 277/402/251 274/403/252
f 261/404/253 259/405/254 240/270/131
f 238/172/129 239/271/186 241/406/130
f 240/270/131 251/407/255 245/408/256
f 259/405/254 256/409/257 240/270/131
f 241/173/130 246/410/258 245/411/256
f 245/408/256 243/412/259 239/271/186
f 246/410/258 242/413/260 244/414/261
f 240/270/131 262/415/262 251/407/255
f 258/416/263 263/417/264 240/270/131
f 244/418/261 247/419/265 243/412/259
f 247/419/265 242/420/260 246/421/258
f 103/422/266 66/423/75 114/133/101
f 240/270/131 263/417/264 260/424/267
f 247/419/265 248/425/268 242/420/260
f 242/413/260 248/426/268 244/414/261
f 244/418/261 248/425/268 247/419/265
f 243/412/259 246/421/258 241/406/130
f 245/408/256 251/407/255 244/418/261
f 244/418/261 251/407/255 248/425/268
f 251/407/255 262/415/262 252/427/269
f 255/428/270 254/429/271 263/417/264
f 263/417/264 254/429/271 253/430/272
f 257/431/273 256/409/257 259/405/254
f 262/415/262 260/424/267 253/430/272
f 257/431/273 259/405/254 261/404/253
f 255/428/270 258/416/263 256/409/257
f 66/432/75 93/134/102 114/133/101
f 81/363/65 84/433/128 234/364/235
f 256/409/257 258/416/263 240/270/131
f 240/270/131 260/424/267 262/415/262
f 229/389/63 238/434/129 237/435/122
f 230/391/198 74/436/77 27/327/36
f 231/437/205 18/321/29 195/438/203
f 271/399/248 268/439/274 269/440/275
f 235/441/276 266/442/277 265/443/236
f 236/444/234 89/131/99 86/130/70
f 270/400/249 269/440/275 265/445/236
f 84/446/128 267/398/247 234/447/235
f 264/448/237 268/449/274 271/399/248
f 272/450/278 276/451/279 277/402/251
f 274/452/252 275/453/280 264/367/237
f 273/401/250 269/440/275 268/439/274
f 269/440/275 273/401/250 265/454/236
f 264/455/237 275/456/280 276/451/279
f 284/457/281 282/458/282 276/459/279
f 264/455/237 272/450/278 268/439/274
f 279/460/283 281/461/284 280/462/285
f 280/463/285 281/464/284 276/451/279
f 278/465/286 280/462/285 275/453/280
f 277/402/251 279/466/283 278/467/286
f 283/468/287 287/469/288 289/470/289
f 282/458/282 283/468/287 277/402/251
f 277/402/251 283/468/287 285/471/290
f 279/460/283 285/472/290 284/473/281
f 286/474/291 294/475/292 287/469/288
f 286/474/291 287/469/288 283/468/287
f 288/476/293 286/474/291 282/458/282
f 285/472/290 289/477/289 288/478/293
f 308/479/294 305/480/295 295/481/296
f 292/482/297 290/483/298 286/474/291
f 288/484/293 295/481/296 292/485/297
f 287/469/288 291/486/299 293/487/300
f 296/488/301 297/489/302 290/483/298
f 293/490/300 295/481/296 289/491/289
f 314/492/303 315/493/304 289/491/289
f 287/469/288 294/475/292 291/486/299
f 290/483/298 294/475/292 286/474/291
f 303/494/305 300/495/306 296/496/301
f 294/475/292 298/497/307 299/498/308
f 297/489/302 298/497/307 294/475/292
f 299/499/308 296/496/301 292/485/297
f 307/500/309 309/501/310 311/502/311
f 300/503/306 301/504/312 297/489/302
f 298/497/307 302/505/313 303/506/305
f 301/504/312 302/505/313 298/497/307
f 294/475/292 307/500/309 306/507/314
f 291/486/299 306/507/314 308/508/294
f 305/509/295 307/500/309 294/475/292
f 310/510/315 309/501/310 307/500/309
f 303/494/305 304/511/316 300/495/306
f 300/503/306 304/512/316 301/504/312
f 302/505/313 304/512/316 303/506/305
f 301/504/312 304/512/316 302/505/313
f 306/507/314 311/502/311 312/513/317
f 312/514/317 310/515/315 305/480/295
f 289/477/289 315/516/304 316/517/318
f 288/484/293 316/518/318 314/492/303
f 318/519/319 319/520/320 316/517/318
f 312/514/317 313/521/321 310/515/315
f 310/510/315 313/522/321 309/501/310
f 309/501/310 313/522/321 311/502/311
f 311/502/311 313/522/321 312/513/317
f 316/518/318 319/523/320 317/524/322
f 314/492/303 317/524/322 318/525/319
f 318/519/319 320/526/323 319/520/320
f 319/523/320 320/527/323 317/524/322
f 317/524/322 320/527/323 318/525/319
f 57/79/12 229/81/63 192/528/246
f 234/529/235 267/530/247 266/442/277
f 205/334/219 322/374/240 201/531/206
f 322/374/240 321/373/239 201/531/206
f 217/348/228 323/532/324 216/354/231
f 216/354/231 323/532/324 215/355/232
f 215/355/232 323/532/324 218/347/227
f 218/347/227 323/532/324 217/348/228
f 203/533/220 184/275/189 183/274/188
f 202/534/238 183/274/188 188/278/191
f 181/535/1 194/536/201 195/438/203
f 194/536/201 181/535/1 180/318/4
f 189/282/193 185/100/79 222/537/207
f 321/538/239 188/278/191 189/282/193
f 203/337/220 36/336/61 38/539/60
f 264/448/237 267/398/247 84/446/128
f 203/533/220 38/287/60 184/275/189
f 234/396/235 235/540/276 86/541/70
f 224/164/123 206/542/212 58/543/33
f 91/136/104 92/145/110 93/134/102
f 2/119/91 56/95/76 90/177/105
f 90/177/105 66/544/75 93/143/102
f 2/390/91 237/545/122 56/162/76
f 66/156/75 73/13/11 91/136/104
f 56/95/76 66/546/75 90/177/105
f 224/547/123 261/404/253 240/270/131
f 250/548/325 261/404/253 224/549/123
f 229/81/63 249/80/62 224/171/123
f 249/80/62 35/110/88 326/550/326
f 35/110/88 249/80/62 57/79/12
f 66/156/75 42/50/32 324/304/200
f 42/50/32 41/49/40 324/304/200
f 41/49/40 35/169/88 324/304/200
f 41/111/40 206/551/212 325/112/89
f 206/551/212 224/171/123 325/112/89
f 326/550/326 35/110/88 325/112/89
f 224/171/123 249/80/62 326/550/326
f 224/171/123 326/550/326 325/112/89
f 35/169/88 327/175/132 324/304/200
f 327/175/132 35/169/88 102/157/119
f 12/281/17 181/1/1 14/3/3
f 179/280/192 180/4/4 4/6/6
f 5/15/13 3/7/7 7/9/8
f 7/9/8 4/8/6 8/11/9
f 10/18/16 6/12/10 57/14/12
f 75/552/199 76/17/15 10/18/16
f 11/553/18 8/19/9 12/20/17
f 13/554/202 11/21/18 14/23/3
f 74/555/77 15/24/19 76/26/15
f 16/29/21 13/556/202 14/27/3
f 77/28/20 17/557/25 16/29/21
f 62/113/80 32/30/22 64/32/24
f 19/36/27 16/33/21 20/35/26
f 22/558/209 19/36/27 23/37/28
f 80/123/41 42/41/32 79/43/34
f 59/98/78 24/44/35 60/46/37
f 22/558/209 23/37/28 25/48/39
f 43/559/216 41/49/40 80/51/41
f 32/272/22 40/52/42 44/54/44
f 36/78/61 33/55/45 37/57/47
f 44/54/44 47/53/43 48/59/49
f 39/560/53 29/60/50 46/62/52
f 45/61/51 29/60/50 44/63/44
f 40/52/42 39/64/53 47/53/43
f 55/74/58 51/66/48 54/68/55
f 45/61/51 44/63/44 49/70/56
f 47/53/43 46/65/52 51/58/48
f 50/561/54 46/62/52 49/70/56
f 54/68/55 50/67/54 53/73/57
f 48/76/49 51/66/48 52/75/59
f 53/73/57 49/72/56 52/75/59
f 43/559/216 80/51/41 81/83/65
f 85/562/135 82/87/64 86/89/70
f 31/122/92 176/90/71 175/92/73
f 31/122/92 28/93/74 40/52/42
f 28/93/74 25/48/39 39/64/53
f 26/47/38 29/563/50 39/64/53
f 33/55/45 175/92/73 34/56/46
f 42/564/32 66/94/75 58/42/33
f 60/46/37 27/45/36 76/97/15
f 26/99/38 60/46/37 29/60/50
f 23/120/28 59/98/78 26/99/38
f 186/277/190 185/100/79 67/102/81
f 61/31/23 30/103/82 64/32/24
f 68/109/87 65/105/84 72/107/86
f 71/115/67 67/108/81 72/107/86
f 67/108/81 62/113/80 68/109/87
f 64/32/24 63/104/83 68/109/87
f 72/107/86 69/106/85 71/115/67
f 73/176/11 6/25/10 2/119/91
f 75/565/199 30/103/82 76/97/15
f 78/40/31 21/39/30 59/98/78
f 20/566/26 78/40/31 23/120/28
f 20/566/26 17/121/25 78/40/31
f 82/87/64 80/123/41 83/88/69
f 124/178/133 120/124/93 123/126/95
f 130/188/138 126/127/96 127/129/98
f 85/567/135 86/130/70 88/132/100
f 92/145/110 91/136/104 94/138/106
f 99/147/112 94/142/106 98/144/107
f 93/134/102 92/145/110 98/139/107
f 95/160/118 99/147/112 97/148/113
f 98/139/107 96/146/111 97/153/113
f 96/146/111 99/154/112 100/152/117
f 92/145/110 94/138/106 96/146/111
f 107/568/327 108/166/125 116/151/116
f 107/568/327 116/151/116 106/167/126
f 113/158/120 115/149/114 106/167/126
f 103/569/266 114/133/101 110/168/127
f 224/570/123 237/163/122 240/174/131
f 91/571/104 73/176/11 90/177/105
f 121/192/140 124/178/133 122/179/134
f 119/269/94 85/180/135 118/182/97
f 119/125/94 118/185/97 123/126/95
f 87/572/185 84/183/128 117/186/136
f 121/192/140 117/186/136 124/178/133
f 129/194/141 125/187/137 130/188/138
f 118/573/97 117/189/136 127/191/98
f 122/179/134 126/127/96 121/192/140
f 128/574/139 117/193/136 129/194/141
f 134/575/145 129/194/141 137/196/143
f 131/202/147 133/197/144 132/199/146
f 128/574/139 129/194/141 133/201/144
f 127/191/98 128/190/139 131/202/147
f 132/576/146 130/188/138 131/203/147
f 140/211/152 136/204/148 142/206/150
f 129/194/141 130/207/138 135/195/142
f 136/204/148 130/207/138 138/205/149
f 138/214/149 132/199/146 137/209/143
f 135/195/142 136/204/148 139/210/151
f 137/196/143 135/195/142 141/213/154
f 142/254/150 138/214/149 141/215/154
f 146/226/160 148/216/155 161/218/157
f 141/213/154 139/210/151 145/220/159
f 144/230/165 140/211/152 146/223/160
f 145/220/159 143/219/158 149/225/162
f 148/216/155 142/227/150 167/229/164
f 152/237/168 149/231/162 156/233/167
f 151/236/169 147/212/153 152/235/168
f 143/219/158 147/212/153 150/224/161
f 148/216/155 145/222/159 152/237/168
f 162/247/175 160/238/170 164/240/172
f 149/225/162 150/224/161 153/242/166
f 155/244/174 151/236/169 156/243/167
f 150/224/161 151/236/169 154/241/173
f 160/238/170 147/212/153 159/239/171
f 159/239/171 144/230/165 161/245/157
f 148/234/155 147/212/153 158/246/156
f 158/246/156 160/238/170 163/248/176
f 164/240/172 159/239/171 165/251/178
f 161/218/157 158/217/156 165/253/178
f 168/577/163 142/254/150 169/255/179
f 169/260/179 141/221/154 167/229/164
f 168/577/163 169/255/179 171/257/181
f 172/264/180 169/260/179 170/261/183
f 170/261/183 167/229/164 171/262/181
f 118/573/97 88/266/100 117/189/136
f 120/578/93 82/268/64 119/269/94
f 224/171/123 240/270/131 238/172/129
f 34/279/46 183/274/188 37/276/47
f 67/102/81 71/85/67 186/277/190
f 174/284/72 188/278/191 34/279/46
f 4/6/6 3/116/7 179/280/192
f 9/5/5 180/4/4 12/281/17
f 185/100/79 189/282/193 62/101/80
f 32/283/22 189/282/193 174/284/72
f 77/285/20 14/3/3 18/38/29
f 182/2/2 18/38/29 14/3/3
f 178/386/90 190/288/194 179/290/192
f 196/579/241 16/291/21 197/293/196
f 5/303/13 7/294/8 190/296/194
f 7/294/8 8/297/9 191/295/195
f 192/528/246 230/299/198 10/301/16
f 193/298/197 8/305/9 194/307/201
f 194/307/201 11/306/18 195/309/203
f 232/322/211 219/310/204 21/312/30
f 195/309/203 13/308/202 16/291/21
f 16/291/21 196/579/241 231/313/205
f 221/377/242 201/314/206 223/316/208
f 179/290/192 191/289/195 180/318/4
f 197/293/196 19/292/27 198/320/210
f 58/543/33 206/323/212 79/325/34
f 219/310/204 220/326/214 24/311/35
f 22/319/209 25/328/39 198/320/210
f 206/551/212 41/111/40 233/331/213
f 201/531/206 207/332/217 205/334/219
f 202/372/238 33/335/45 203/337/220
f 207/332/217 211/338/221 210/333/218
f 204/580/226 209/340/223 200/342/225
f 201/314/206 200/342/225 207/343/217
f 205/334/219 210/333/218 204/345/226
f 213/353/230 214/346/222 217/348/228
f 208/341/224 212/349/229 207/343/217
f 210/333/218 214/339/222 209/344/223
f 208/341/224 209/340/223 212/349/229
f 212/356/229 213/353/230 216/354/231
f 211/581/221 215/355/232 214/346/222
f 211/581/221 212/356/229 215/355/232
f 228/382/244 227/357/233 69/359/85
f 43/330/216 81/363/65 233/331/213
f 87/361/185 236/360/234 264/367/237
f 204/345/226 28/368/74 205/334/219
f 199/329/215 25/328/39 204/345/226
f 28/368/74 204/345/226 25/328/39
f 321/373/239 175/371/73 202/372/238
f 31/369/92 175/371/73 322/374/240
f 18/321/29 196/375/241 232/322/211
f 199/378/215 200/342/225 220/326/214
f 198/395/210 199/378/215 219/310/204
f 222/537/207 185/100/79 225/379/243
f 221/377/242 223/316/208 30/381/82
f 226/385/245 228/382/244 65/383/84
f 226/385/245 225/384/243 228/382/244
f 223/316/208 222/315/207 226/385/245
f 223/316/208 226/385/245 63/380/83
f 225/379/243 186/277/190 227/365/233
f 15/394/19 192/388/246 2/390/91
f 221/377/242 30/381/82 230/391/198
f 74/582/77 230/393/198 15/394/19
f 197/376/196 198/395/210 232/322/211
f 79/325/34 233/324/213 83/397/69
f 266/583/277 267/398/247 270/400/249
f 265/454/236 273/401/250 274/403/252
f 237/584/122 238/172/129 241/406/130
f 240/174/131 241/173/130 245/411/256
f 240/270/131 245/408/256 239/271/186
f 245/411/256 246/410/258 244/414/261
f 245/408/256 244/418/261 243/412/259
f 243/412/259 247/419/265 246/421/258
f 239/271/186 243/412/259 241/406/130
f 258/416/263 255/428/270 263/417/264
f 260/424/267 263/417/264 253/430/272
f 252/427/269 262/415/262 253/430/272
f 250/548/325 257/431/273 261/404/253
f 2/390/91 229/389/63 237/435/122
f 220/326/214 230/391/198 27/327/36
f 182/585/2 195/438/203 18/321/29
f 231/437/205 196/375/241 18/321/29
f 270/400/249 271/399/248 269/440/275
f 236/586/234 235/441/276 265/443/236
f 235/587/276 236/444/234 86/130/70
f 266/583/277 270/400/249 265/445/236
f 267/398/247 264/448/237 271/399/248
f 273/401/250 272/450/278 277/402/251
f 265/366/236 274/452/252 264/367/237
f 272/450/278 273/401/250 268/439/274
f 272/450/278 264/455/237 276/451/279
f 281/588/284 284/457/281 276/459/279
f 278/465/286 279/460/283 280/462/285
f 275/456/280 280/463/285 276/451/279
f 274/452/252 278/465/286 275/453/280
f 274/403/252 277/402/251 278/467/286
f 285/471/290 283/468/287 289/470/289
f 276/459/279 282/458/282 277/402/251
f 279/589/283 277/402/251 285/471/290
f 281/461/284 279/460/283 284/473/281
f 282/458/282 286/474/291 283/468/287
f 284/457/281 288/476/293 282/458/282
f 284/473/281 285/472/290 288/478/293
f 293/490/300 308/479/294 295/481/296
f 288/476/293 292/482/297 286/474/291
f 289/470/289 287/469/288 293/487/300
f 292/482/297 296/488/301 290/483/298
f 295/481/296 314/492/303 289/491/289
f 299/499/308 303/494/305 296/496/301
f 295/590/296 294/475/292 299/498/308
f 290/483/298 297/489/302 294/475/292
f 295/481/296 299/499/308 292/485/297
f 306/507/314 307/500/309 311/502/311
f 296/488/301 300/503/306 297/489/302
f 299/498/308 298/497/307 303/506/305
f 297/489/302 301/504/312 298/497/307
f 291/486/299 294/475/292 306/507/314
f 293/487/300 291/486/299 308/508/294
f 295/590/296 305/509/295 294/475/292
f 305/509/295 310/510/315 307/500/309
f 308/508/294 306/507/314 312/513/317
f 308/479/294 312/514/317 305/480/295
f 288/478/293 289/477/289 316/517/318
f 295/481/296 288/484/293 314/492/303
f 315/516/304 318/519/319 316/517/318
f 314/492/303 316/518/318 317/524/322
f 315/493/304 314/492/303 318/525/319
f 10/301/16 57/79/12 192/528/246
f 235/441/276 234/529/235 266/442/277
f 202/534/238 203/533/220 183/274/188
f 321/538/239 202/534/238 188/278/191
f 182/585/2 181/535/1 195/438/203
f 193/317/197 194/536/201 180/318/4
f 201/591/206 189/282/193 222/537/207
f 201/591/206 321/538/239 189/282/193
f 87/592/185 264/448/237 84/446/128
f 83/397/69 234/396/235 86/541/70
f 56/162/76 224/164/123 58/543/33
f 66/156/75 91/136/104 93/134/102
f 94/142/106 90/177/105 93/143/102
