# Blender v2.76 (sub 0) OBJ File: 'npc_humanoidmutant.blend'
# www.blender.org
v -0.052231 0.522898 0.280123
v -0.045902 0.821399 0.257194
v -0.044574 0.770852 0.382564
v -0.105211 0.742244 0.213710
v -0.046767 0.596174 0.197488
v -0.079018 0.532710 0.353731
v -0.067161 0.683260 0.405190
v -0.062774 0.723303 0.397835
v -0.092075 0.790214 0.229890
v -0.075756 0.640351 0.192194
v -0.071875 0.595386 0.397666
v -0.070331 0.551325 0.229816
v -0.063169 0.800107 0.318022
v -0.080113 0.583886 0.265261
v -0.102123 0.707646 0.371630
v -0.094923 0.738897 0.368066
v -0.033495 0.615843 0.418897
v -0.091048 0.613167 0.308290
v 0.001764 0.497698 0.308610
v -0.034635 0.520656 0.400215
v 0.016533 0.663179 0.440813
v -0.001709 0.599825 0.181422
v 0.022257 0.732247 0.417702
v -0.018401 0.603437 0.423158
v 0.001487 0.636612 0.171106
v -0.018093 0.576980 0.419344
v -0.073212 0.664954 0.398708
v -0.101149 0.680201 0.206739
v -0.097908 0.665905 0.355019
v 0.008509 0.614512 0.441765
v -0.013089 0.686211 0.164260
v -0.052787 0.571077 0.399655
v 0.057855 0.554745 0.401988
v 0.033611 0.515277 0.411700
v 0.028472 0.571968 0.420551
v 0.036235 0.600410 0.422081
v 0.049449 0.613087 0.414906
v 0.029368 0.809142 0.303580
v 0.026458 0.766963 0.389067
v 0.016885 0.761894 0.199833
v 0.012303 0.818613 0.250715
v -0.003433 0.739524 0.174592
v 0.141694 -0.077762 -0.095972
v 0.146076 -0.085522 0.129002
v -0.139936 -0.038635 0.130413
v -0.139734 -0.069330 -0.085996
v 0.145126 0.261368 -0.034851
v 0.132700 0.248969 0.188703
v -0.133268 0.240049 0.196108
v -0.143269 0.234681 -0.055217
v 0.226274 0.513024 -0.001772
v 0.229042 0.442223 0.177118
v -0.171152 0.406832 0.178458
v -0.199914 0.487697 0.002486
v 0.163256 -0.124572 -0.061853
v 0.165787 -0.112467 0.100379
v -0.186331 -0.045673 0.086037
v -0.178018 -0.141478 -0.013007
v 0.166039 0.339614 0.002117
v 0.162727 0.318363 0.114118
v -0.170591 0.211194 0.146316
v -0.178877 0.220723 -0.017365
v 0.268165 0.502249 0.018166
v 0.281509 0.448463 0.120705
v -0.259396 0.455219 0.137002
v -0.249685 0.504237 0.031028
v 0.226736 0.294998 0.027027
v 0.223976 0.378833 0.118232
v 0.324732 0.313000 0.039418
v 0.326390 0.361234 0.100322
v 0.256867 0.055018 0.108032
v 0.224560 0.059699 0.151211
v 0.310344 0.103961 0.122953
v 0.261796 0.110445 0.177979
v 0.301320 -0.087923 0.356351
v 0.246595 -0.111674 0.414770
v 0.305276 -0.042226 0.377779
v 0.256849 -0.049047 0.403778
v 0.293356 -0.138288 0.442066
v 0.238464 -0.130470 0.465681
v 0.312081 -0.088856 0.454831
v 0.263791 -0.073642 0.466256
v 0.324466 -0.143298 0.524748
v 0.220603 -0.138717 0.522943
v 0.301498 -0.136054 0.552576
v 0.238778 -0.113070 0.547562
v 0.314333 -0.185191 0.545661
v 0.217565 -0.169871 0.550614
v 0.297284 -0.191714 0.572758
v 0.216012 -0.172508 0.576232
v 0.306929 -0.199516 0.539151
v 0.225185 -0.180117 0.550039
v 0.266799 -0.242061 0.543333
v 0.212848 -0.228656 0.546434
v -0.202726 0.353680 0.065212
v -0.227478 0.369782 -0.014553
v -0.292719 0.376105 0.059691
v -0.284609 0.423889 -0.025889
v -0.253775 0.184597 -0.063857
v -0.253572 0.221155 -0.149000
v -0.306294 0.189040 -0.065002
v -0.301427 0.183242 -0.157560
v -0.217873 0.110138 -0.025589
v -0.247768 0.102938 -0.124305
v -0.296245 0.136558 -0.016533
v -0.302522 0.086942 -0.094175
v -0.224922 -0.009201 0.104586
v -0.249575 -0.043477 0.082065
v -0.263415 0.013190 0.113120
v -0.290993 -0.028715 0.092659
v 0.025711 -0.085989 -0.108512
v -0.023289 -0.073847 -0.104761
v 0.037081 -0.082273 0.154845
v -0.028908 -0.078365 0.150536
v 0.060292 0.243906 -0.058454
v -0.028820 0.417434 -0.026301
v 0.055572 0.237363 0.219137
v -0.052410 0.286300 0.218736
v 0.092410 0.544498 0.021615
v -0.106803 0.541447 0.035514
v 0.106458 0.439286 0.227879
v -0.068774 0.416891 0.229044
v 0.018012 -0.140159 -0.064431
v -0.025863 -0.154081 -0.039473
v 0.039629 -0.113732 0.121080
v -0.056234 -0.078412 0.119877
v -0.123176 0.587991 0.103417
v 0.131946 0.535159 0.114620
v -0.082918 0.485106 0.220078
v 0.075892 0.496443 0.211110
v -0.077277 0.592873 0.132224
v 0.077918 0.571362 0.148324
v -0.053612 0.524639 0.282150
v 0.056604 0.517651 0.289069
v 0.098760 0.809552 0.251767
v 0.097704 0.756499 0.401631
v -0.047068 0.596274 0.198260
v 0.100724 0.678047 0.419490
v 0.074437 0.508781 0.359166
v 0.049151 0.576152 0.199030
v 0.123755 0.683676 0.212360
v 0.129534 0.757081 0.231212
v 0.106189 0.716153 0.407280
v 0.159237 -0.265534 -0.069095
v 0.159891 -0.280780 0.071864
v -0.162594 -0.171245 0.186917
v -0.157909 -0.244762 0.097227
v 0.023592 -0.256657 -0.066191
v -0.045259 -0.243999 0.068057
v 0.037950 -0.278487 0.058619
v -0.055338 -0.179124 0.175967
v 0.162868 -0.369864 -0.067387
v 0.150959 -0.388182 0.053268
v 0.040840 -0.365372 -0.066614
v 0.042699 -0.382423 0.038845
v 0.200455 -0.555626 -0.158989
v 0.170567 -0.616008 -0.041789
v 0.089541 -0.569645 -0.184436
v 0.074631 -0.610128 -0.061262
v 0.184574 -0.620851 -0.128097
v 0.169780 -0.630523 -0.063242
v 0.104746 -0.591257 -0.163557
v 0.094172 -0.634374 -0.075292
v 0.111434 -0.941337 -0.362124
v 0.112609 -0.897166 -0.225763
v 0.201386 -1.004101 -0.028330
v 0.105878 -1.003058 0.001944
v 0.124466 -0.976995 -0.010041
v 0.121536 0.104104 -0.041654
v 0.124789 0.066639 0.155902
v -0.139995 0.075109 0.156437
v -0.142112 0.117091 -0.050372
v 0.157750 0.087823 -0.006278
v 0.161172 0.074923 0.121043
v -0.173785 0.090764 0.119924
v -0.178829 0.090065 -0.019484
v 0.042696 0.060373 0.172331
v -0.046246 0.052564 0.171921
v 0.038344 0.094477 -0.065596
v -0.038852 0.137684 -0.058928
v -0.162925 -0.261772 0.269296
v -0.164446 -0.323838 0.182992
v -0.047712 -0.322144 0.172145
v -0.054491 -0.263269 0.266092
v -0.174810 -0.405394 0.313153
v -0.175920 -0.373713 0.206522
v -0.071332 -0.380844 0.185800
v -0.071283 -0.407804 0.309455
v -0.182400 -0.428796 0.289951
v -0.181342 -0.396388 0.205060
v -0.086518 -0.401745 0.197916
v -0.086720 -0.441811 0.277775
v -0.171484 -0.768727 0.090267
v -0.168146 -0.758585 0.025895
v -0.112128 -0.762109 0.019925
v -0.103549 -0.777304 0.080616
v -0.173155 -0.823939 0.092710
v -0.156247 -0.869555 -0.027635
v -0.112881 -0.874869 -0.009653
v -0.115844 -0.820126 0.096691
v -0.198660 -0.884971 0.319380
v -0.113078 -0.890722 0.333216
v -0.133389 -0.859795 0.317464
v 0.085345 0.583108 0.388505
v 0.084752 0.606885 0.194550
v 0.175604 -0.136739 0.014659
v -0.208867 -0.100774 0.052843
v 0.158189 0.301860 0.063904
v -0.184901 0.197920 0.064706
v 0.308638 0.470570 0.071888
v -0.294659 0.466708 0.083693
v 0.191299 0.372513 0.042855
v 0.336726 0.338700 0.069851
v 0.231014 0.054263 0.131657
v 0.291331 0.107780 0.158043
v 0.275221 -0.104125 0.371996
v 0.278835 -0.040062 0.398389
v 0.288898 -0.078208 0.461595
v 0.271612 -0.128727 0.560187
v 0.260847 -0.180638 0.583185
v 0.248525 -0.209843 0.557156
v -0.200257 0.369188 0.018432
v -0.298200 0.396972 0.017638
v -0.229252 0.198395 -0.113949
v -0.319167 0.192615 -0.110290
v -0.232406 0.101342 -0.074675
v -0.306977 0.108751 -0.052297
v -0.235344 -0.028883 0.094475
v -0.283910 -0.004215 0.104001
v -0.028643 -0.147257 0.026373
v 0.128567 0.524857 0.171994
v -0.135208 0.544792 0.187377
v 0.076912 0.538187 0.225175
v -0.070500 0.553485 0.232210
v 0.114915 0.794049 0.308249
v 0.084569 0.556822 0.264227
v 0.139113 0.670382 0.353364
v 0.151240 0.749651 0.341450
v 0.176944 -0.281199 -0.007080
v -0.189869 -0.219849 0.141085
v 0.011581 -0.265708 -0.006091
v -0.036613 -0.225018 0.126908
v 0.171010 -0.381206 -0.016474
v 0.019990 -0.371015 -0.015804
v 0.207313 -0.579123 -0.113564
v 0.066897 -0.593062 -0.107510
v 0.185535 -0.625267 -0.095873
v 0.069571 -0.629285 -0.116273
v 0.204229 -0.920600 -0.277680
v 0.091130 -0.916706 -0.270766
v 0.175497 0.074161 0.055436
v -0.191688 0.080692 0.042637
v -0.191753 -0.300844 0.217780
v -0.042904 -0.305913 0.224226
v -0.199198 -0.378283 0.263582
v -0.044782 -0.399711 0.257352
v -0.187497 -0.408733 0.247148
v -0.057030 -0.429268 0.241761
v -0.179612 -0.758696 0.055476
v -0.096026 -0.768471 0.044592
v -0.189471 -0.829287 0.057327
v 0.116638 0.591825 0.276498
v 0.005182 -0.080351 -0.074464
v 0.010951 -0.087280 0.154300
v 0.009187 0.262274 -0.058345
v 0.008710 0.258177 0.220313
v -0.005297 0.517598 0.029418
v 0.014999 0.427601 0.230360
v 0.003079 -0.088286 -0.051420
v 0.005657 -0.109273 0.121326
v -0.010276 0.581476 0.102740
v -0.001400 0.476384 0.251697
v -0.000451 0.592396 0.130612
v 0.000929 0.497716 0.308607
v -0.002979 0.599799 0.181524
v 0.001683 0.054757 0.173077
v 0.002897 0.097346 -0.060351
v -0.000052 0.636601 0.171235
v 0.002906 -0.107982 0.013449
v -0.253449 -0.071607 0.142111
v -0.224240 -0.040348 0.160091
v -0.288349 -0.058821 0.159395
v -0.260795 -0.026508 0.176752
v -0.247457 -0.104277 0.188192
v -0.208332 -0.086225 0.213864
v -0.279155 -0.111480 0.209810
v -0.228718 -0.071291 0.240527
v -0.236402 -0.130152 0.200566
v -0.196821 -0.100656 0.223010
v -0.253893 -0.149451 0.226010
v -0.200793 -0.101708 0.256164
v -0.126415 -0.150992 0.200986
v -0.166109 -0.176416 0.176136
v -0.239268 -0.058754 0.147302
v -0.277087 -0.039406 0.168909
v -0.229823 -0.091774 0.196175
v -0.254784 -0.086625 0.226238
v -0.214221 -0.114782 0.211497
v -0.222721 -0.123557 0.246672
v -0.192358 -0.137048 0.211805
v -0.167086 -0.146332 0.208422
v -0.090900 -0.075722 -0.122668
v -0.090302 -0.054015 0.149668
v -0.078295 0.273515 -0.055512
v -0.088626 0.260522 0.201212
v -0.142016 0.529268 0.013093
v -0.130109 0.421600 0.202169
v -0.108673 -0.164490 -0.045052
v -0.125472 -0.076396 0.124820
v -0.224398 0.570796 0.084565
v -0.152803 0.478195 0.195194
v -0.103335 -0.259928 0.064980
v -0.106956 -0.157002 0.205414
v -0.095750 0.061660 0.167475
v -0.094273 0.109072 -0.067033
v -0.106206 -0.334042 0.162891
v -0.102409 -0.238727 0.295532
v -0.120967 -0.365422 0.149205
v -0.122931 -0.392991 0.348562
v -0.129286 -0.389302 0.151124
v -0.136191 -0.435500 0.310171
v -0.140164 -0.752388 0.006037
v -0.140547 -0.767861 0.106641
v -0.138144 -0.867293 -0.044179
v -0.143653 -0.815044 0.118281
v -0.174372 -0.885963 0.327470
v -0.169057 -0.867456 0.307324
v -0.204395 0.534618 0.164312
v 0.203069 0.534321 0.070775
v 0.083417 -0.082155 -0.124655
v 0.088043 -0.071809 0.145702
v 0.100229 0.236231 -0.045532
v 0.094860 0.233021 0.210520
v 0.180943 0.534244 0.000088
v 0.181948 0.451265 0.200763
v 0.089155 -0.136407 -0.089694
v 0.090238 -0.109242 0.124035
v 0.088460 -0.257324 -0.090643
v 0.091911 -0.285901 0.106973
v 0.101684 -0.358508 -0.078777
v 0.102516 -0.395955 0.089774
v 0.148088 -0.565648 -0.192191
v 0.109586 -0.619729 -0.021876
v 0.159234 -0.592941 -0.205291
v 0.128361 -0.629761 -0.047700
v 0.134099 -0.934425 -0.388784
v 0.140729 -0.901205 -0.209281
v 0.082878 0.059568 0.167624
v 0.075959 0.093703 -0.062267
v 0.216755 0.509078 0.124949
v -0.217307 -0.153280 0.199115
v -0.225207 -0.172890 0.217953
v -0.170024 -0.128392 0.248987
v -0.176753 -0.120168 0.222244
v -0.190350 -0.149283 0.240414
v -0.192471 -0.062897 0.207366
v -0.184936 -0.045651 0.198971
v -0.210145 -0.047982 0.231805
v -0.199917 -0.029151 0.216660
v -0.151915 -0.070835 0.197884
v -0.138238 -0.085147 0.209514
v -0.174148 -0.067408 0.209963
v -0.175887 -0.058685 0.232600
v -0.169186 -0.046695 0.224160
v -0.169343 -0.057247 0.203261
v -0.250347 -0.088080 0.168173
v -0.285473 -0.084593 0.187150
v -0.248094 -0.043580 0.210086
v -0.219056 -0.059939 0.184586
v -0.268628 -0.061818 0.198726
v -0.236253 -0.074634 0.173030
v -0.201279 -0.037831 0.187619
v -0.222293 -0.019181 0.203169
v -0.200287 -0.075450 0.213262
v -0.222238 -0.055964 0.234985
v -0.226814 -0.035393 0.219875
v -0.203782 -0.054384 0.198034
v -0.175619 0.419931 -0.029093
v -0.156804 0.357022 0.200162
v 0.187128 0.372458 0.185487
v 0.199713 0.435076 -0.035805
v -0.212171 0.454843 -0.040556
v -0.201839 0.368457 0.150810
v 0.230984 0.398965 0.124551
v 0.240488 0.369886 -0.003866
v 0.278667 0.349412 0.111436
v 0.296765 0.285805 0.021812
v 0.240004 0.089970 0.169584
v 0.289983 0.080971 0.107856
v 0.240308 -0.088274 0.422686
v 0.313544 -0.063022 0.366576
v 0.240638 -0.097569 0.471498
v 0.308393 -0.115939 0.448026
v 0.223738 -0.122673 0.535670
v 0.131655 -0.949165 -0.045977
v -0.247958 0.435960 -0.041846
v -0.224886 0.366007 0.080275
v -0.282781 0.208815 -0.161201
v -0.287049 0.186662 -0.053171
v -0.280675 0.085830 -0.126452
v -0.254894 0.126428 -0.006457
v -0.277261 -0.095549 0.173296
v -0.240065 0.007906 0.112737
v -0.058516 0.345351 0.227365
v 0.085873 0.360784 0.251112
v 0.089243 0.416188 -0.049531
v -0.070489 0.437310 -0.029793
v 0.101920 -0.990008 -0.092470
v 0.013305 0.356285 0.250321
v 0.038055 0.488126 0.004176
v -0.236306 -0.024242 0.167092
v -0.230609 -0.172298 0.204169
v -0.209496 -0.083488 0.234923
v -0.254499 -0.149014 0.208922
v -0.191578 -0.096045 0.241145
v -0.272657 -0.117091 0.194636
v -0.122848 0.401809 -0.032165
v -0.109005 0.354437 0.215076
v 0.140849 0.374136 0.224200
v 0.146999 0.420996 -0.054755
v -0.280250 -0.074427 0.146388
v -0.168956 -0.118185 0.235839
v -0.190258 -0.031793 0.203996
v -0.202266 -0.068024 0.227511
v -0.151521 -0.082881 0.208162
v -0.177403 -0.070097 0.225478
v -0.167024 -0.048201 0.211522
v -0.280077 -0.045169 0.083736
v -0.210722 -0.022619 0.191292
v 0.126274 0.645005 0.205631
v 0.096857 0.658290 0.409931
v 0.123514 0.633726 0.328936
v 0.242082 0.180242 0.063009
v 0.318480 0.186320 0.076957
v 0.298015 0.224811 0.143915
v 0.227347 0.213639 0.126883
v 0.321487 0.206420 0.115336
v 0.218711 0.192612 0.095638
v 0.285722 0.175148 0.058496
v 0.255667 0.228486 0.149457
v 0.223393 -0.137289 0.479562
v 0.220313 -0.123679 0.449152
v 0.219643 -0.128946 0.492947
v 0.225867 -0.106527 0.453331
v 0.206598 -0.138371 0.483313
v -0.111812 -0.888042 0.247928
v -0.134051 -0.852484 0.275709
v -0.199431 -0.865968 0.259995
v -0.207013 -0.881581 0.242223
v 0.107068 -0.955878 -0.067046
v 0.204490 -0.977064 -0.096609
v -0.115255 -0.863903 0.279607
v -0.170517 -0.854261 0.282349
v -0.163779 -0.885044 0.222379
v 0.164660 -0.951530 -0.043299
v 0.156676 -0.990182 -0.113111
v 0.057019 0.554764 0.401984
v 0.032775 0.515295 0.411696
v -0.128907 0.560708 0.126213
v 0.180256 -0.902795 -0.237749
v 0.196742 -0.956049 -0.055344
v 0.195651 -0.155683 0.515481
v 0.168605 -0.950920 -0.339067
v 0.218341 -0.993082 -0.106893
v 0.167972 -1.006073 0.005117
v 0.164580 -0.976569 -0.004430
v -0.094206 -0.848374 0.065662
v 0.029489 0.808882 0.304337
v 0.020365 0.766822 0.389864
v 0.016683 0.732564 0.418520
v 0.014932 0.762118 0.200623
v 0.008281 0.818895 0.251522
v 0.048533 0.613772 0.415716
v 0.015636 0.662649 0.441587
v -0.004101 0.740560 0.175449
v -0.015900 0.686822 0.165215
v 0.190555 -0.977740 -0.223439
v 0.120894 -0.931455 -0.137706
v 0.107679 -0.937656 -0.168709
v 0.188522 -0.943244 -0.187266
v 0.149663 -0.937797 -0.129728
v 0.140629 -0.971435 -0.252481
v 0.111860 -0.973627 -0.227943
v 0.171750 -0.937762 -0.148753
v -0.127295 -0.891907 0.130042
v -0.199644 -0.882815 0.132715
v -0.125355 -0.841170 0.186168
v -0.181808 -0.845621 0.186125
v -0.157795 -0.843424 0.200124
v -0.151648 -0.885152 0.089159
v -0.189986 -0.848456 0.168490
v -0.110060 -0.852687 0.173138
v 0.110498 -0.849439 -0.234747
v 0.115575 -0.833768 -0.302469
v 0.093818 -0.844757 -0.261712
v 0.181042 -0.848849 -0.255282
v 0.144009 -0.831052 -0.319181
v 0.133986 -0.854264 -0.219857
v 0.165213 -0.851487 -0.233453
v 0.168140 -0.846620 -0.281720
v 0.047695 -0.499946 0.022372
v 0.054809 -0.466737 -0.112247
v 0.184033 -0.461922 -0.100535
v 0.031596 -0.482065 -0.037262
v 0.191393 -0.482911 -0.042906
v 0.120720 -0.460947 -0.123318
v 0.176776 -0.497805 0.001371
v 0.161849 -0.511018 0.041712
v 0.130691 -0.511730 0.053734
v 0.102193 -0.515926 0.066857
v 0.081570 -0.510751 0.054825
v -0.235423 0.147641 -0.047454
v -0.293567 0.157978 -0.057323
v -0.303680 0.143779 -0.097817
v -0.270169 0.156510 -0.033203
v -0.247283 0.160835 -0.147169
v -0.227862 0.149442 -0.105782
v -0.276984 0.144459 -0.154396
v -0.215967 0.149664 -0.085801
v -0.289240 0.138498 -0.152242
v -0.306698 0.139975 -0.118372
vt 0.069736 0.810409
vt 0.070343 0.836608
vt 0.016229 0.816513
vt 0.108198 0.828833
vt 0.082923 0.858291
vt 0.106675 0.817219
vt 0.100807 0.806030
vt 0.150135 0.804118
vt 0.147186 0.813631
vt 0.174865 0.804059
vt 0.199136 0.770721
vt 0.202768 0.808668
vt 0.238571 0.772226
vt 0.263052 0.806977
vt 0.232791 0.807582
vt 0.219562 0.756768
vt 0.197768 0.831600
vt 0.178180 0.842881
vt 0.234127 0.832144
vt 0.215107 0.851808
vt 0.137368 0.848515
vt 0.110896 0.852930
vt 0.145348 0.858722
vt 0.117053 0.872845
vt 0.102955 0.908822
vt 0.126935 0.911784
vt 0.138976 0.939172
vt 0.152030 0.900103
vt 0.166281 0.939086
vt 0.089864 0.882970
vt 0.149277 0.791186
vt 0.257412 0.845823
vt 0.214501 0.867849
vt 0.213059 0.907146
vt 0.051165 0.936868
vt 0.014365 0.995179
vt 0.015016 0.932731
vt 0.015519 0.884587
vt 0.078700 0.906981
vt 0.119497 0.940371
vt 0.219156 0.966110
vt 0.215077 0.942549
vt 0.015832 0.854569
vt 0.016051 0.833512
vt 0.179234 0.620343
vt 0.197718 0.646091
vt 0.173652 0.698841
vt 0.182928 0.613250
vt 0.178951 0.620309
vt 0.026111 0.589592
vt 0.036575 0.571852
vt 0.091358 0.586156
vt 0.124688 0.593060
vt 0.160572 0.604071
vt 0.170757 0.608279
vt 0.530541 0.500669
vt 0.510531 0.463554
vt 0.551834 0.493069
vt 0.552803 0.545871
vt 0.590385 0.499029
vt 0.586699 0.548165
vt 0.709463 0.233461
vt 0.736981 0.227836
vt 0.754824 0.286062
vt 0.746649 0.660255
vt 0.764971 0.572211
vt 0.792005 0.606361
vt 0.782569 0.517985
vt 0.798161 0.553887
vt 0.756625 0.500475
vt 0.737230 0.581062
vt 0.736075 0.519940
vt 0.733529 0.479446
vt 0.750714 0.455948
vt 0.710553 0.534913
vt 0.713606 0.486083
vt 0.707849 0.591243
vt 0.721914 0.656839
vt 0.056404 0.510554
vt 0.059910 0.459217
vt 0.082250 0.470310
vt 0.111457 0.463904
vt 0.112872 0.507403
vt 0.101446 0.443261
vt 0.056753 0.433066
vt 0.024045 0.465652
vt 0.523770 0.443500
vt 0.557804 0.459512
vt 0.592367 0.472603
vt 0.536472 0.416574
vt 0.563911 0.425104
vt 0.586690 0.416660
vt 0.568725 0.405936
vt 0.575182 0.380223
vt 0.594668 0.441922
vt 0.051716 0.399758
vt 0.024388 0.442698
vt 0.081566 0.396057
vt 0.093588 0.424361
vt 0.128566 0.412255
vt 0.109875 0.389620
vt 0.144957 0.383594
vt 0.141775 0.429221
vt 0.140728 0.456272
vt 0.132597 0.505439
vt 0.682119 0.592684
vt 0.697545 0.666171
vt 0.684063 0.542042
vt 0.648993 0.547098
vt 0.685757 0.487986
vt 0.653522 0.591244
vt 0.623556 0.582985
vt 0.679541 0.670859
vt 0.662650 0.670490
vt 0.157697 0.458631
vt 0.158681 0.391976
vt 0.157741 0.429866
vt 0.177530 0.430906
vt 0.454911 0.444893
vt 0.463736 0.393656
vt 0.479621 0.447783
vt 0.429932 0.441906
vt 0.454684 0.472779
vt 0.434980 0.472434
vt 0.472824 0.476894
vt 0.476425 0.525671
vt 0.456561 0.523166
vt 0.499275 0.486705
vt 0.497959 0.533883
vt 0.650874 0.220393
vt 0.668673 0.225869
vt 0.676740 0.279524
vt 0.688030 0.233060
vt 0.523816 0.542864
vt 0.493663 0.422434
vt 0.474451 0.386123
vt 0.482005 0.375180
vt 0.505422 0.400154
vt 0.514707 0.384843
vt 0.523991 0.369532
vt 0.531331 0.397196
vt 0.491685 0.367753
vt 0.128703 0.369584
vt 0.104505 0.368381
vt 0.099134 0.347142
vt 0.124471 0.341259
vt 0.103840 0.290043
vt 0.125032 0.288667
vt 0.506874 0.315104
vt 0.523971 0.318162
vt 0.260244 0.201008
vt 0.260256 0.148470
vt 0.285563 0.152714
vt 0.307173 0.152925
vt 0.307427 0.206656
vt 0.310405 0.109643
vt 0.286264 0.108735
vt 0.286965 0.064755
vt 0.267247 0.062003
vt 0.295875 0.025083
vt 0.263751 0.105236
vt 0.252893 0.056371
vt 0.440764 0.192044
vt 0.442886 0.130542
vt 0.459726 0.145161
vt 0.438643 0.253546
vt 0.412179 0.246705
vt 0.072435 0.349262
vt 0.073244 0.290649
vt 0.045943 0.349562
vt 0.077001 0.372659
vt 0.598868 0.385923
vt 0.596768 0.413923
vt 0.025330 0.379831
vt 0.048830 0.374660
vt 0.025785 0.349403
vt 0.026752 0.284835
vt 0.049424 0.287418
vt 0.388440 0.194221
vt 0.413018 0.188997
vt 0.545758 0.095983
vt 0.484907 0.101111
vt 0.491324 0.068919
vt 0.543531 0.316131
vt 0.571026 0.317433
vt 0.603411 0.325357
vt 0.336412 0.145885
vt 0.334734 0.199716
vt 0.313637 0.066360
vt 0.339506 0.058746
vt 0.419166 0.101111
vt 0.415550 0.073077
vt 0.418936 0.041329
vt 0.485174 0.030517
vt 0.545250 0.041004
vt 0.555771 0.071660
vt 0.550413 0.377675
vt 0.558050 0.404510
vt 0.731741 0.299501
vt 0.713679 0.331519
vt 0.699831 0.287050
vt 0.699623 0.348759
vt 0.689400 0.321677
vt 0.663804 0.312784
vt 0.654456 0.274483
vt 0.634618 0.311670
vt 0.669502 0.338169
vt 0.604363 0.274181
vt 0.630672 0.275261
vt 0.632768 0.219732
vt 0.612796 0.219139
vt 0.578680 0.274242
vt 0.840163 0.675460
vt 0.805000 0.641210
vt 0.821835 0.616809
vt 0.823287 0.709302
vt 0.792442 0.666262
vt 0.801265 0.732258
vt 0.840971 0.744966
vt 0.781333 0.686390
vt 0.557027 0.277312
vt 0.566024 0.224516
vt 0.589504 0.220607
vt 0.375096 0.492402
vt 0.384961 0.458486
vt 0.405199 0.486941
vt 0.410574 0.526483
vt 0.436273 0.522295
vt 0.410194 0.413373
vt 0.430433 0.380777
vt 0.455808 0.393131
vt 0.165665 0.393959
vt 0.192333 0.391907
vt 0.203471 0.419505
vt 0.207389 0.368304
vt 0.225411 0.391622
vt 0.396034 0.384167
vt 0.373257 0.427405
vt 0.420432 0.356604
vt 0.385943 0.354045
vt 0.365034 0.394965
vt 0.359348 0.362250
vt 0.361655 0.322007
vt 0.331496 0.354320
vt 0.389735 0.318213
vt 0.408299 0.313218
vt 0.407520 0.344510
vt 0.211730 0.328779
vt 0.220254 0.292264
vt 0.240239 0.298890
vt 0.032729 0.262939
vt 0.010266 0.262462
vt 0.022123 0.216488
vt 0.183362 0.259934
vt 0.169879 0.261827
vt 0.170456 0.200058
vt 0.152871 0.212064
vt 0.157816 0.257421
vt 0.131245 0.259389
vt 0.152744 0.212061
vt 0.329851 0.315255
vt 0.305156 0.349663
vt 0.332361 0.395198
vt 0.336616 0.434023
vt 0.342953 0.472564
vt 0.302718 0.434937
vt 0.305443 0.474901
vt 0.344205 0.538039
vt 0.305197 0.529271
vt 0.381368 0.533821
vt 0.526919 0.283769
vt 0.770507 0.751644
vt 0.805920 0.758992
vt 0.759849 0.709726
vt 0.733814 0.766693
vt 0.731822 0.732613
vt 0.715848 0.699675
vt 0.731674 0.685305
vt 0.489862 0.276741
vt 0.503649 0.216719
vt 0.536949 0.224504
vt 0.500193 0.577651
vt 0.546406 0.567669
vt 0.550049 0.651223
vt 0.770277 0.950472
vt 0.741703 0.987031
vt 0.721975 0.973279
vt 0.670795 0.949235
vt 0.691763 0.924160
vt 0.667253 0.759822
vt 0.647596 0.761046
vt 0.661418 0.745912
vt 0.674984 0.731059
vt 0.685126 0.785114
vt 0.727911 0.801324
vt 0.684541 0.813951
vt 0.779951 0.788271
vt 0.812240 0.817931
vt 0.777899 0.838219
vt 0.732181 0.843380
vt 0.684428 0.846295
vt 0.661248 0.840977
vt 0.662804 0.852998
vt 0.662157 0.811417
vt 0.664185 0.784673
vt 0.643244 0.784232
vt 0.590894 0.788058
vt 0.588395 0.804006
vt 0.546988 0.807658
vt 0.648291 0.946686
vt 0.655183 0.935733
vt 0.625362 0.944088
vt 0.565379 0.931164
vt 0.577026 0.913602
vt 0.517318 0.950251
vt 0.518656 0.937728
vt 0.532671 0.916079
vt 0.498534 0.934775
vt 0.508386 0.916362
vt 0.498934 0.958053
vt 0.504952 0.967267
vt 0.538647 0.828159
vt 0.520554 0.803562
vt 0.506540 0.794164
vt 0.512161 0.782695
vt 0.526812 0.792410
vt 0.499805 0.976893
vt 0.490810 0.970078
vt 0.606211 0.225665
vt 0.595724 0.228838
vt 0.600010 0.221730
vt 0.495368 0.986286
vt 0.485546 0.980051
vt 0.476390 0.972088
vt 0.479016 0.958002
vt 0.594230 0.216702
vt 0.592138 0.225545
vt 0.586564 0.214627
vt 0.590529 0.228890
vt 0.597639 0.217468
vt 0.605528 0.228876
vt 0.601098 0.232224
vt 0.604423 0.216146
vt 0.496747 0.782205
vt 0.501342 0.775490
vt 0.492601 0.804070
vt 0.489730 0.787509
vt 0.506750 0.811736
vt 0.492742 0.816421
vt 0.513412 0.828903
vt 0.488759 0.827748
vt 0.474192 0.805949
vt 0.511728 0.849291
vt 0.490026 0.847743
vt 0.536808 0.847447
vt 0.531596 0.867423
vt 0.579848 0.843550
vt 0.583631 0.821038
vt 0.639773 0.808883
vt 0.638068 0.835659
vt 0.640348 0.859960
vt 0.577914 0.864185
vt 0.582099 0.876926
vt 0.584670 0.895647
vt 0.537191 0.899022
vt 0.667339 0.876481
vt 0.668457 0.888449
vt 0.646086 0.879394
vt 0.736172 0.880839
vt 0.740176 0.911475
vt 0.690828 0.897503
vt 0.738403 0.943686
vt 0.778359 0.920543
vt 0.803771 0.938845
vt 0.794015 0.972059
vt 0.784290 0.882232
vt 0.808911 0.904111
vt 0.820719 0.863047
vt 0.834152 0.902731
vt 0.860307 0.861182
vt 0.865071 0.907486
vt 0.854923 0.958699
vt 0.829423 0.947565
vt 0.815176 0.985898
vt 0.887162 0.982680
vt 0.841126 0.997513
vt 0.599526 0.582393
vt 0.641540 0.666649
vt 0.148351 0.505738
vt 0.174193 0.461810
vt 0.207317 0.471588
vt 0.195039 0.515146
vt 0.222404 0.449298
vt 0.239531 0.431097
vt 0.252210 0.395818
vt 0.234712 0.343454
vt 0.265749 0.311085
vt 0.059449 0.258487
vt 0.041224 0.210106
vt 0.046055 0.145057
vt 0.065208 0.145112
vt 0.024679 0.151375
vt 0.162418 0.029328
vt 0.182110 0.066625
vt 0.166653 0.067555
vt 0.184383 0.102727
vt 0.186657 0.138828
vt 0.165079 0.140337
vt 0.141648 0.103851
vt 0.138732 0.067952
vt 0.115723 0.103496
vt 0.111228 0.067117
vt 0.106891 0.104386
vt 0.128518 0.203489
vt 0.120218 0.139876
vt 0.144564 0.139751
vt 0.102553 0.141654
vt 0.109393 0.202459
vt 0.089752 0.204557
vt 0.108356 0.261684
vt 0.084126 0.259809
vt 0.282949 0.354017
vt 0.258549 0.351892
vt 0.279678 0.394818
vt 0.273489 0.435894
vt 0.264764 0.465056
vt 0.236144 0.480843
vt 0.230426 0.525231
vt 0.576400 0.576912
vt 0.612982 0.659816
vt 0.582060 0.650525
vt 0.267987 0.525790
vt 0.305231 0.529680
vt 0.303387 0.392990
vt 0.288143 0.310611
vt 0.305042 0.312138
vt 0.080500 0.144623
vt 0.064947 0.207693
vt 0.555911 0.071265
vt 0.491604 0.068128
vt 0.166360 0.018036
vt 0.194569 0.061886
vt 0.205200 0.106980
vt 0.215831 0.152075
vt 0.145490 0.015442
vt 0.142316 0.025664
vt 0.122222 0.019171
vt 0.183428 0.191935
vt 0.098209 0.061670
vt 0.089191 0.103327
vt 0.904527 0.932446
vt 0.949699 0.948466
vt 0.911335 0.882488
vt 0.856281 0.836740
vt 0.887268 0.835598
vt 0.922921 0.857963
vt 0.965169 0.597470
vt 0.917537 0.577056
vt 0.944867 0.540579
vt 0.978071 0.883628
vt 0.973533 0.894384
vt 0.689807 0.425682
vt 0.723753 0.401854
vt 0.723676 0.441929
vt 0.751080 0.416759
vt 0.743080 0.379427
vt 0.787951 0.419748
vt 0.785654 0.452513
vt 0.788706 0.483118
vt 0.832288 0.454003
vt 0.836262 0.425753
vt 0.780027 0.392874
vt 0.831699 0.398084
vt 0.881984 0.402051
vt 0.879661 0.431814
vt 0.870752 0.458245
vt 0.864071 0.473143
vt 0.827228 0.478044
vt 0.861871 0.491751
vt 0.818704 0.500131
vt 0.958919 0.484608
vt 0.962949 0.502797
vt 0.937394 0.181666
vt 0.769056 0.171862
vt 0.923107 0.165442
vt 0.866430 0.519287
vt 0.825735 0.529120
vt 0.815376 0.348115
vt 0.773877 0.335777
vt 0.788825 0.312483
vt 0.742325 0.347461
vt 0.720633 0.360227
vt 0.774690 0.367418
vt 0.820904 0.374810
vt 0.872377 0.354530
vt 0.878939 0.376376
vt 0.819290 0.317856
vt 0.731418 0.161390
vt 0.740781 0.147624
vt 0.910959 0.146351
vt 0.728397 0.116884
vt 0.914298 0.126964
vt 0.743061 0.135898
vt 0.708508 0.185310
vt 0.696037 0.169448
vt 0.707778 0.159044
vt 0.676057 0.226459
vt 0.677608 0.225465
vt 0.676205 0.240475
vt 0.671792 0.238244
vt 0.671579 0.231190
vt 0.675970 0.223623
vt 0.780888 0.198982
vt 0.721993 0.208356
vt 0.777250 0.185608
vt 0.940749 0.196335
vt 0.683363 0.177018
vt 0.717878 0.068662
vt 0.713329 0.057286
vt 0.765911 0.073368
vt 0.691650 0.061870
vt 0.690905 0.050835
vt 0.704049 0.210128
vt 0.580357 0.233572
vt 0.578678 0.228747
vt 0.590575 0.223615
vt 0.632111 0.223278
vt 0.631029 0.218871
vt 0.633990 0.223808
vt 0.634144 0.230548
vt 0.630419 0.230702
vt 0.627492 0.228454
vt 0.685209 0.070727
vt 0.761098 0.088965
vt 0.932747 0.074007
vt 0.937492 0.094905
vt 0.957631 0.466678
vt 0.967928 0.421502
vt 0.960140 0.443954
vt 0.932725 0.111224
vt 0.750793 0.102746
vt 0.705453 0.080670
vt 0.711538 0.076342
vt 0.680790 0.074556
vt 0.626241 0.226931
vt 0.628045 0.218080
vt 0.582846 0.223738
vt 0.622224 0.225301
vt 0.624718 0.220016
vt 0.697557 0.089662
vt 0.676268 0.086597
vt 0.978665 0.398268
vt 0.692023 0.380408
vt 0.864947 0.581494
vt 0.899554 0.604654
vt 0.958903 0.642431
vt 0.337857 0.805645
vt 0.352329 0.816896
vt 0.335849 0.816248
vt 0.980156 0.877558
vt 0.909464 0.816878
vt 0.926421 0.834067
vt 0.281063 0.862176
vt 0.275086 0.902303
vt 0.214060 0.907716
vt 0.263508 0.936732
vt 0.293204 0.935134
vt 0.312830 0.897319
vt 0.306961 0.939965
vt 0.325778 0.911830
vt 0.378134 0.940095
vt 0.415505 0.929827
vt 0.418784 0.993411
vt 0.352990 0.912880
vt 0.416587 0.879286
vt 0.342977 0.862915
vt 0.334404 0.831281
vt 0.356169 0.822831
vt 0.421828 0.803268
vt 0.423463 0.790571
vt 0.281092 0.802015
vt 0.289344 0.787333
vt 0.914935 0.669173
vt 0.894371 0.655267
vt 0.941248 0.648461
vt 0.865116 0.631419
vt 0.904634 0.714904
vt 0.885904 0.758904
vt 0.900499 0.789879
vt 0.899007 0.788698
vt 0.853737 0.811092
vt 0.829870 0.777931
vt 0.860844 0.709530
vt 0.295623 0.819633
vt 0.287258 0.844412
vt 0.325763 0.856591
vt 0.321747 0.877511
vt 0.342095 0.889562
vt 0.420014 0.823008
vt 0.418443 0.847652
vt 0.214754 0.868398
vt 0.684556 0.874120
vt 0.672119 0.912381
vt 0.652475 0.900602
vt 0.639571 0.922231
vt 0.507622 0.881982
vt 0.511692 0.900015
vt 0.489666 0.900137
vt 0.580288 0.220048
vt 0.602597 0.219251
vt 0.595593 0.231166
vt 0.484047 0.918288
vt 0.483902 0.881354
vt 0.469443 0.898677
vt 0.461404 0.882670
vt 0.450183 0.899039
vt 0.464541 0.917413
vt 0.468275 0.936341
vt 0.471954 0.946277
vt 0.450867 0.951575
vt 0.488129 0.950503
vt 0.459843 0.957822
vt 0.474275 0.794513
vt 0.477930 0.782470
vt 0.464248 0.968801
vt 0.593648 0.229043
vt 0.594800 0.219921
vt 0.444295 0.950359
vt 0.455896 0.935741
vt 0.578071 0.229878
vt 0.581080 0.226636
vt 0.582821 0.231325
vt 0.444016 0.932284
vt 0.589242 0.231216
vt 0.447125 0.916158
vt 0.594684 0.224169
vt 0.596039 0.231008
vt 0.534866 0.881347
vt 0.436167 0.876832
vt 0.451786 0.873540
vt 0.502622 0.869488
vt 0.478622 0.869260
vt 0.600669 0.228516
vt 0.470367 0.846306
vt 0.436632 0.875280
vt 0.588033 0.222815
vt 0.620369 0.220488
vt 0.617885 0.228883
vt 0.604039 0.223910
vt 0.625993 0.229515
vt 0.627942 0.223514
vt 0.630553 0.227391
vt 0.474575 0.826305
vt 0.456368 0.843249
vt 0.468600 0.807609
vt 0.462220 0.823292
vt 0.860756 0.332332
vt 0.993439 0.371060
vt 0.986188 0.383142
vt 0.682025 0.226976
vt 0.679969 0.227249
vt 0.679746 0.240699
vt 0.359744 0.137364
vt 0.391687 0.134896
vt 0.379208 0.097067
vt 0.392501 0.134914
vt 0.338867 0.016386
vt 0.351992 0.060701
vt 0.355868 0.099033
vt 0.358824 0.195455
vt 0.357904 0.253546
vt 0.317688 0.022378
vt 0.316028 0.010349
vt 0.365914 0.059220
vt 0.188288 0.626633
vt 0.020225 0.627476
vt 0.077847 0.729049
vt 0.337959 0.102316
vt 0.605326 0.051490
vt 0.620218 0.074402
vt 0.243365 0.103028
vt 0.606609 0.090856
vt 0.080172 0.144983
vt 0.165866 0.103946
vt 0.385193 0.253546
vt 0.333056 0.253546
vt 0.413857 0.131288
vt 0.459290 0.199353
vt 0.286566 0.257455
vt 0.286064 0.205085
vt 0.260233 0.253546
vt 0.180066 0.618899
vt 0.041004 0.571204
vt 0.031313 0.580504
vt 0.176801 0.615736
vt 0.131432 0.592259
vt 0.168093 0.605199
vt 0.087753 0.577968
vt 0.126587 0.355421
vt 0.542484 0.399799
vt 0.686910 0.758599
vt 0.586835 0.222039
vt 0.016410 0.799097
vt 0.148475 0.720072
vt 0.112435 0.731387
vt 0.084152 0.729883
vt 0.033136 0.705214
vt 0.025959 0.628575
vt 0.025663 0.589717
vt 0.019321 0.677833
vt 0.192463 0.676215
vt 0.778378 0.672029
vt 0.084388 0.511316
vt 0.023385 0.509676
vt 0.024874 0.410259
vt 0.501364 0.360326
vt 0.292615 0.013201
vt 0.157751 0.257609
vt 0.305025 0.313375
vt 0.507675 0.653310
vt 0.608429 0.224637
vt 0.167552 0.508667
vt 0.967338 0.518460
vt 0.937757 0.213909
vt 0.591695 0.226894
vt 0.981627 0.633093
vt 0.446385 0.886139
vt 0.437892 0.943408
vt 0.609547 0.219908
vt 0.459305 0.810763
vt 0.679907 0.223732
vt 0.684787 0.235652
vt 0.107612 0.733849
vt 0.168687 0.701495
vt 0.187110 0.679257
vt 0.192365 0.649132
vt 0.140452 0.724767
vt 0.012425 0.676347
vt 0.026831 0.704379
vt 0.030940 0.580778
vt 0.233836 0.149685
vt 0.307681 0.260387
vt 0.458854 0.253546
vt 0.187870 0.626400
vn -0.409700 -0.523900 -0.746800
vn -0.645200 -0.290500 -0.706600
vn 0.526300 -0.176600 -0.831700
vn -0.983100 -0.182700 -0.004100
vn -0.843000 -0.105300 -0.527500
vn -0.953400 -0.233900 -0.190300
vn -0.496800 -0.616800 -0.610500
vn -0.805400 -0.562400 0.187200
vn -0.738800 -0.181600 0.649000
vn -0.544300 -0.264700 0.796000
vn -0.412800 -0.667000 0.620200
vn -0.252900 -0.177200 0.951100
vn 0.451300 -0.706600 0.545000
vn 0.934600 -0.232400 0.269300
vn 0.216200 -0.125100 0.968300
vn 0.360800 -0.896200 -0.257900
vn -0.299100 -0.267900 0.915800
vn -0.443100 -0.087300 0.892200
vn 0.431800 -0.221800 0.874200
vn -0.008300 -0.341200 0.939900
vn -0.710200 -0.085300 0.698800
vn -0.964000 -0.164300 0.209000
vn -0.511000 0.087700 0.855100
vn -0.903000 0.055400 0.426100
vn -0.651300 0.640400 -0.407000
vn -0.789400 0.409200 0.457600
vn -0.448800 0.832500 0.324800
vn -0.417500 0.295200 0.859400
vn -0.275200 0.696100 0.663000
vn -0.823300 0.196100 -0.532600
vn -0.459500 -0.803600 -0.378000
vn 0.907800 0.044000 0.416900
vn 0.196600 0.154400 0.968200
vn 0.401700 0.396100 0.825600
vn -0.215800 0.954400 -0.206300
vn 0.740700 0.647500 0.179200
vn 0.451400 0.818400 -0.355600
vn 0.721200 0.390400 -0.572300
vn 0.655500 0.607400 0.448600
vn 0.256100 0.316800 -0.913200
vn 0.089600 0.079200 -0.992800
vn 0.393700 -0.476800 -0.785900
vn 0.484400 -0.308900 0.818500
vn 0.108700 -0.411400 0.904900
vn 0.812600 -0.158900 0.560700
vn 0.890000 -0.028300 0.455100
vn 0.999700 -0.003400 -0.022500
vn 0.998700 0.047300 -0.020100
vn 0.986200 -0.165200 -0.003200
vn 0.896800 0.088800 -0.433300
vn 0.829800 -0.524900 -0.189200
vn -0.484400 -0.413000 -0.771200
vn -0.070400 -0.955600 0.286200
vn 0.296900 -0.187000 -0.936400
vn 0.637900 -0.079400 -0.766000
vn 0.412500 0.061100 -0.908900
vn 0.379700 0.646400 -0.661700
vn 0.650000 0.609300 -0.454100
vn 0.101800 0.169300 -0.980300
vn 0.143700 0.808900 -0.570100
vn 0.271400 0.000500 -0.962400
vn 0.546500 0.117200 -0.829200
vn 0.834300 -0.045600 -0.549400
vn 0.645700 -0.013100 -0.763400
vn 0.085400 -0.099700 -0.991300
vn 0.219500 0.172500 -0.960200
vn 0.060500 -0.279300 -0.958300
vn 0.707900 0.004300 -0.706300
vn -0.152100 -0.148400 0.977100
vn 0.806800 -0.117900 0.578900
vn 0.999600 -0.019700 -0.018100
vn -0.036800 -0.176800 0.983600
vn 0.819500 -0.079400 0.567600
vn 0.949200 -0.039300 0.312100
vn 0.675300 -0.246000 0.695300
vn 0.627000 -0.553000 0.548600
vn 0.994800 0.051300 0.087900
vn 0.749200 0.200900 -0.631000
vn 0.015000 0.147900 -0.988900
vn -0.032100 -0.035200 -0.998800
vn -0.760400 -0.066600 -0.646000
vn -0.701700 0.039800 -0.711300
vn -0.993400 -0.094700 0.063800
vn -0.796800 -0.223700 -0.561200
vn -0.550100 -0.136400 -0.823900
vn -0.054100 0.108900 -0.992600
vn 0.146900 0.029200 -0.988700
vn -0.218600 0.261300 -0.940200
vn -0.150800 0.452500 -0.878900
vn -0.028500 0.842400 -0.538000
vn -0.140300 0.097200 -0.985300
vn 0.130600 0.192900 -0.972500
vn 0.026400 0.114800 -0.993000
vn -0.203200 -0.336700 -0.919400
vn -0.277400 -0.914100 0.295800
vn -0.054300 -0.952700 -0.299100
vn 0.595300 -0.655100 -0.465200
vn -0.259700 -0.927500 0.268700
vn -0.236000 -0.714500 0.658600
vn 0.104200 -0.665300 0.739200
vn -0.077800 -0.528000 0.845600
vn -0.263700 -0.578900 0.771600
vn 0.114000 -0.415300 0.902500
vn 0.085100 -0.199800 0.976100
vn 0.002500 -0.188700 0.982000
vn 0.214300 -0.289900 0.932700
vn 0.200500 -0.198900 0.959300
vn 0.362800 -0.246100 0.898700
vn 0.508900 -0.149300 0.847800
vn -0.814400 -0.131300 0.565200
vn -0.995800 -0.091100 -0.003200
vn -0.823500 -0.143100 0.548900
vn -0.843900 -0.283700 0.455400
vn -0.810000 -0.512500 0.285100
vn -0.629600 -0.347800 0.694700
vn -0.988100 -0.150300 -0.032200
vn -0.704600 0.202600 -0.680000
vn -0.519300 -0.188400 -0.833600
vn -0.964600 -0.163700 -0.206700
vn -0.668100 -0.256600 -0.698400
vn -0.986500 -0.155900 -0.049700
vn -0.595100 -0.646800 0.477000
vn -0.998700 0.014800 -0.049000
vn -0.997500 -0.068200 -0.017200
vn -0.759400 0.354000 0.545900
vn 0.121200 0.722100 0.681100
vn -0.117500 -0.219600 0.968500
vn 0.163800 0.957100 0.239000
vn -0.327200 0.907300 0.263800
vn -0.218500 0.892400 0.394900
vn -0.837700 0.481900 0.256900
vn -0.425900 0.647000 0.632400
vn -0.960900 0.250800 0.116700
vn -0.779600 -0.625400 -0.033500
vn -0.733400 0.307700 -0.606200
vn -0.714300 -0.467200 -0.521100
vn 0.285600 0.293400 -0.912300
vn -0.021300 0.385800 -0.922300
vn 0.825700 0.174100 -0.536600
vn 0.060300 0.479000 -0.875700
vn 0.985700 -0.167900 0.014500
vn 0.983600 0.079300 0.162100
vn 0.777100 0.395700 -0.489400
vn 0.930300 -0.302100 0.208100
vn 0.964300 -0.178000 -0.195900
vn 0.857000 0.258500 -0.445700
vn 0.252900 0.448900 -0.857000
vn 0.646700 -0.750300 -0.137400
vn 0.899800 -0.436000 -0.015700
vn -0.044500 -0.990700 -0.128400
vn 0.027200 -0.821100 0.570100
vn 0.598000 -0.597700 0.534000
vn 0.772900 0.394700 0.496800
vn 0.666600 -0.159000 0.728200
vn 0.220500 0.875500 0.430000
vn 0.671300 0.659800 0.337600
vn 0.755600 -0.530900 0.383700
vn 0.272400 -0.552300 0.787800
vn -0.699100 -0.360300 0.617600
vn -0.618600 -0.780400 -0.091300
vn -0.055700 -0.977800 -0.202200
vn -0.207500 -0.764500 0.610300
vn 0.408600 -0.351500 0.842200
vn 0.927700 -0.369900 0.049700
vn 0.749700 -0.366300 0.551000
vn 0.765600 -0.189300 0.614800
vn 0.430500 0.294000 0.853300
vn 0.510400 -0.079400 0.856300
vn 0.199400 -0.018400 0.979700
vn 0.048300 -0.253100 0.966200
vn -0.095200 -0.028400 0.995000
vn 0.196400 0.293200 0.935600
vn -0.234900 -0.209100 0.949200
vn -0.092700 -0.236400 0.967200
vn -0.075300 -0.177700 0.981200
vn -0.207700 -0.160700 0.964900
vn -0.271100 -0.119600 0.955100
vn -0.302300 -0.079600 0.949900
vn -0.539700 -0.030700 0.841300
vn -0.416300 0.052400 0.907700
vn -0.413000 -0.148700 0.898500
vn -0.550300 -0.180100 0.815300
vn -0.208800 -0.182000 0.960800
vn -0.551200 -0.225300 0.803300
vn -0.191100 0.207400 0.959400
vn -0.214500 -0.438900 0.872500
vn 0.811400 0.406900 0.419700
vn 0.998300 0.004400 0.057600
vn 0.942000 -0.268500 0.201200
vn 0.706700 -0.573100 -0.414800
vn 0.993900 -0.058600 0.093400
vn 0.807700 -0.460200 -0.368400
vn 0.820800 0.264900 0.506100
vn 0.132200 0.701500 0.700200
vn 0.693300 -0.331600 0.639800
vn 0.096700 0.548200 0.830700
vn 0.012800 -0.132500 0.991100
vn -0.044400 -0.614700 0.787500
vn -0.683200 -0.155500 0.713400
vn 0.591800 -0.548600 0.590500
vn 0.973100 -0.228600 -0.028000
vn 0.972000 -0.216500 0.090400
vn 0.766200 -0.257400 -0.588700
vn 0.959600 -0.015600 -0.281000
vn 0.856800 -0.105900 0.504600
vn 0.057300 -0.216400 0.974600
vn -0.800000 -0.344900 0.490900
vn -0.993400 0.005500 0.114300
vn -0.710300 0.402100 0.577700
vn -0.700900 0.421500 0.575400
vn -0.825600 0.096000 0.556100
vn -0.992400 -0.113200 -0.047800
vn -0.998400 -0.051600 -0.024400
vn -0.889500 -0.059800 0.452900
vn -0.997900 0.063800 0.011700
vn -0.891400 -0.119100 0.437100
vn -0.811800 -0.272300 0.516500
vn -0.558700 0.005000 0.829300
vn -0.381300 -0.723600 0.575300
vn -0.569300 -0.706600 0.420200
vn 0.042600 -0.921800 0.385200
vn -0.997700 -0.043600 0.052600
vn -0.903300 -0.093100 -0.418600
vn -0.880900 0.065500 -0.468600
vn 0.973000 0.055700 -0.223800
vn 0.569600 0.245600 -0.784300
vn 0.612600 0.595700 0.519400
vn 0.956400 0.198000 0.214800
vn 0.994300 0.089100 -0.059100
vn -0.312000 -0.153600 0.937600
vn -0.782200 -0.323600 0.532400
vn -0.840700 -0.201900 0.502300
vn -0.699800 -0.064300 0.711400
vn -0.480800 0.530500 0.698000
vn -0.941900 0.274900 0.193100
vn -0.994600 0.098200 -0.033200
vn -0.995600 -0.010600 -0.093300
vn -0.983400 -0.085400 0.160100
vn -0.955300 -0.229700 -0.186200
vn -0.877700 0.167000 0.449100
vn 0.020700 0.696400 0.717300
vn 0.299600 0.695000 0.653600
vn 0.997400 0.044700 0.055500
vn 0.517200 0.688500 0.508400
vn 0.382600 0.921500 0.066300
vn 0.875200 -0.177500 -0.449900
vn 0.851200 -0.460300 -0.252300
vn 0.926400 -0.020600 -0.376000
vn 0.771300 -0.536800 -0.341900
vn 0.693900 -0.446700 -0.564700
vn 0.719800 -0.490500 -0.491100
vn 0.689900 0.077200 -0.719700
vn 0.437500 0.846200 -0.304300
vn -0.463700 0.760100 0.455200
vn -0.086100 0.950300 0.299000
vn 0.219900 0.833800 0.506300
vn 0.569800 0.782100 -0.252200
vn 0.448900 0.027000 -0.893200
vn 0.699400 0.663100 -0.266600
vn 0.340400 0.084100 -0.936500
vn 0.089800 0.110600 -0.989800
vn -0.351900 -0.737900 -0.575900
vn 0.193400 -0.724100 -0.662000
vn -0.278300 -0.945700 -0.167600
vn -0.039800 -0.887800 0.458600
vn 0.827000 -0.561800 0.021100
vn 0.564800 0.634700 0.527400
vn 0.243000 -0.015500 0.969900
vn 0.048200 0.346800 0.936700
vn -0.330100 0.625600 0.706800
vn -0.082300 0.358000 0.930100
vn -0.594200 0.513400 0.619100
vn -0.207200 0.321200 0.924100
vn 0.759600 0.496900 0.419600
vn -0.745200 0.361900 0.560100
vn -0.622600 0.185000 0.760300
vn -0.782600 0.448200 0.432000
vn -0.990800 0.018000 0.134400
vn -0.862200 0.361400 0.354900
vn -0.273200 0.732800 0.623200
vn -0.650600 0.565800 0.506500
vn -0.996900 0.054200 0.055900
vn -0.884600 -0.361600 -0.294400
vn -0.986400 -0.162000 -0.028000
vn -0.473200 -0.780400 -0.408600
vn 0.461400 -0.776500 -0.429100
vn 0.379400 -0.804700 -0.456600
vn -0.461600 -0.360600 -0.810500
vn 0.154400 -0.256600 -0.954100
vn -0.215700 -0.658300 -0.721200
vn -0.763100 0.440100 -0.473200
vn -0.110100 0.395200 -0.912000
vn -0.157000 0.250800 -0.955200
vn 0.281000 0.068000 -0.957300
vn 0.136600 0.443200 -0.885900
vn 0.269200 0.294300 -0.917000
vn -0.382200 0.001500 -0.924000
vn -0.538100 0.659800 -0.524600
vn -0.068100 0.636200 -0.768500
vn -0.483000 0.871700 -0.082500
vn -0.014600 0.647700 -0.761700
vn -0.199900 0.979300 0.032100
vn 0.098300 0.741900 -0.663300
vn 0.034600 0.264800 -0.963700
vn -0.017300 0.206300 -0.978300
vn 0.085500 0.118700 -0.989200
vn 0.050500 0.098600 -0.993800
vn 0.436200 -0.203800 -0.876400
vn -0.154600 -0.196000 -0.968300
vn -0.121100 0.137800 -0.983000
vn -0.200100 -0.678900 -0.706400
vn -0.135600 -0.771000 -0.622200
vn -0.036400 -0.405100 -0.913500
vn 0.676700 -0.428800 -0.598500
vn -0.116200 0.154400 -0.981100
vn 0.734000 0.201300 -0.648600
vn 0.657000 -0.641300 -0.396400
vn 0.051100 -0.358600 -0.932100
vn 0.981900 -0.186100 0.034100
vn 0.183300 0.825100 0.534400
vn 0.830800 0.543100 0.121500
vn 0.208800 0.960300 0.185100
vn 0.970100 0.224900 0.091000
vn 0.784600 0.356800 0.507000
vn -0.124000 0.970300 0.207600
vn -0.283200 0.904600 0.318400
vn -0.394100 0.901000 0.181300
vn -0.727500 0.672400 0.136400
vn -0.795000 0.604100 0.054400
vn -0.832900 -0.064500 0.549500
vn -0.744800 0.543300 0.387300
vn -0.023100 0.777100 0.628900
vn -0.989500 0.072700 -0.124400
vn -0.990100 0.081100 -0.114400
vn -0.790100 0.219600 -0.572300
vn -0.982800 -0.166900 -0.078200
vn -0.890800 0.154800 -0.427200
vn -0.828400 0.127600 -0.545300
vn -0.089000 0.204000 -0.974900
vn -0.656400 -0.394500 -0.643100
vn -0.678800 -0.557500 -0.477800
vn -0.769600 -0.389100 -0.506300
vn -0.691800 -0.113300 -0.713200
vn -0.516400 0.051300 -0.854800
vn -0.997600 0.014000 -0.067800
vn -0.632900 -0.547600 -0.547300
vn -0.063000 0.379800 -0.922900
vn -0.799000 -0.598800 -0.054400
vn -0.114200 -0.988200 -0.101800
vn -0.079700 -0.996800 0.006000
vn 0.387500 -0.921800 -0.000200
vn 0.716700 -0.697100 0.017200
vn 0.587100 -0.385600 0.711700
vn -0.326800 -0.368100 0.870400
vn -0.303600 0.844100 0.441900
vn -0.725500 -0.235900 0.646400
vn -0.874800 -0.484400 0.003400
vn -0.053400 0.647000 -0.760600
vn 0.100200 0.886200 -0.452300
vn -0.353000 0.822400 0.446200
vn -0.219600 0.975600 -0.003300
vn 0.191300 0.944700 -0.266200
vn 0.448200 0.892900 -0.042200
vn 0.504400 0.674500 0.539100
vn 0.304500 0.948500 0.087400
vn 0.459200 0.764900 0.451700
vn 0.326700 0.936900 0.124100
vn 0.854800 0.515300 0.061100
vn 0.635300 0.228700 0.737600
vn 0.995300 0.053800 -0.079800
vn 0.800800 -0.043500 -0.597400
vn 0.328500 -0.223500 -0.917700
vn 0.854700 -0.261400 -0.448400
vn 0.949600 -0.015300 0.312900
vn 0.757800 0.116100 0.642000
vn 0.514200 0.169200 0.840800
vn -0.094700 0.523900 0.846500
vn 0.727300 0.373300 0.575900
vn 0.969500 -0.200500 -0.140700
vn 0.564600 -0.480200 -0.671300
vn 0.214700 -0.406000 -0.888300
vn -0.048700 -0.658800 -0.750800
vn -0.499600 -0.334800 -0.798900
vn 0.995200 -0.056100 -0.079600
vn 0.622000 -0.648500 -0.438700
vn 0.297000 -0.907800 -0.296100
vn -0.124700 -0.861800 -0.491600
vn -0.726200 -0.525700 -0.442900
vn -0.981100 -0.130600 -0.142600
vn -0.831800 0.107200 0.544500
vn 0.057700 -0.388800 0.919500
vn 0.491800 -0.441100 0.750700
vn 0.668400 0.066600 0.740800
vn 0.136100 0.070100 0.988200
vn -0.317600 0.291700 0.902200
vn -0.990900 -0.134100 0.007700
vn -0.809200 0.309600 0.499200
vn -0.089200 -0.981300 -0.170400
vn -0.728100 -0.404000 -0.553700
vn -0.653700 -0.642000 -0.400500
vn -0.731800 0.658600 0.175000
vn -0.969800 0.243900 0.006200
vn -0.827300 0.555000 -0.086600
vn -0.863100 -0.328400 -0.383700
vn -0.853900 0.454400 0.253600
vn 0.351900 -0.924300 0.147200
vn -0.779600 -0.608500 -0.147900
vn 0.116600 0.122600 0.985600
vn 0.876300 0.436300 0.204100
vn 0.979400 -0.202000 0.000700
vn 0.925100 -0.311500 -0.217100
vn -0.860700 -0.264700 -0.434800
vn 0.558400 0.499100 0.662600
vn 0.536600 -0.272600 0.798600
vn 0.926300 -0.271100 -0.261700
vn 0.639500 -0.343200 -0.687900
vn -0.458100 -0.064100 -0.886600
vn -0.249500 -0.925100 -0.286100
vn -0.263900 -0.963700 -0.039600
vn 0.027100 -0.131900 0.990900
vn 0.342500 0.837200 0.426200
vn 0.742500 0.579700 0.335600
vn 0.115500 0.839400 0.531100
vn -0.533300 0.710300 0.459400
vn -0.234300 0.904300 0.356900
vn -0.335900 0.746300 0.574600
vn 0.178300 0.616700 0.766700
vn -0.743900 0.035500 0.667400
vn -0.438300 -0.847900 -0.298200
vn 0.640600 -0.033100 0.767100
vn 0.961100 0.169800 0.217800
vn 0.770700 0.348800 -0.533200
vn 0.819300 -0.519200 -0.243300
vn -0.170800 0.901300 0.398000
vn -0.236100 0.960700 -0.145700
vn 0.554800 -0.094600 0.826600
vn 0.573800 0.161900 0.802800
vn -0.793500 0.232200 0.562500
vn -0.669000 0.576000 0.469600
vn 0.360600 0.572900 0.736000
vn -0.511400 0.816200 0.268700
vn 0.528900 0.831400 0.170400
vn 0.923200 0.309900 0.227100
vn 0.427900 0.836900 -0.341300
vn 0.737400 0.329900 -0.589400
vn -0.750700 0.646700 -0.134600
vn -0.551200 0.542500 -0.633900
vn 0.801500 -0.128100 -0.584100
vn 0.898400 -0.427100 -0.102000
vn 0.469900 -0.403000 -0.785300
vn -0.652400 -0.116200 -0.748900
vn 0.625800 -0.751400 0.209100
vn 0.640100 -0.765500 0.064600
vn -0.320900 -0.334400 0.886100
vn -0.088500 -0.091500 0.991900
vn -0.516700 -0.673700 0.528300
vn 0.002100 -0.568000 0.823000
vn 0.016400 -0.022200 0.999600
vn -0.505800 0.165200 0.846700
vn -0.513700 -0.099000 0.852200
vn -0.625700 0.476900 0.617300
vn -0.465000 0.587500 0.662200
vn -0.301600 0.055400 0.951800
vn -0.231800 0.068300 0.970400
vn 0.762100 -0.276300 0.585500
vn -0.448100 -0.369800 0.813900
vn 0.611600 -0.394600 0.685800
vn 0.928000 -0.344500 0.141800
vn 0.921000 -0.296900 0.251900
vn 0.771700 0.106700 -0.627000
vn -0.868500 -0.057300 -0.492400
vn -0.641300 0.560700 -0.523700
vn -0.757400 -0.246200 0.604700
vn -0.633400 -0.011200 -0.773700
vn 0.640600 -0.121400 -0.758200
vn 0.644300 -0.464800 -0.607300
vn 0.892300 -0.360900 -0.271300
vn -0.502300 -0.685000 -0.527700
vn 0.398800 -0.705700 -0.585600
vn 0.337300 -0.520500 -0.784400
vn 0.646200 -0.428300 -0.631600
vn -0.169500 -0.871800 0.459600
vn -0.499600 -0.722200 -0.478300
vn 0.636400 -0.341300 -0.691600
vn -0.549500 -0.605500 -0.575600
vn 0.133600 -0.159200 -0.978100
vn -0.621900 -0.604500 -0.497800
vn -0.132200 0.187400 -0.973300
vn 0.455200 0.093700 -0.885400
vn 0.834200 -0.221400 -0.505100
vn 0.831000 -0.518600 -0.201000
vn 0.510900 -0.473600 -0.717400
vn 0.498500 -0.393400 0.772500
vn 0.629200 0.760800 0.158900
vn 0.632300 0.482100 -0.606400
vn 0.685600 0.720900 0.100700
vn 0.833600 -0.345600 -0.430800
vn 0.343200 0.652400 -0.675600
vn 0.144600 0.474900 -0.868000
vn -0.564600 -0.726900 -0.391000
vn -0.636300 -0.525900 0.564400
vn -0.981600 -0.019100 0.189700
vn -0.912200 -0.177400 0.369300
vn -0.330500 -0.210900 0.919900
vn 0.285000 -0.802000 -0.524900
vn 0.212000 -0.694100 0.688000
vn 0.555800 -0.124800 0.821800
vn 0.133500 0.291900 0.947100
vn -0.411100 -0.565100 0.715300
vn 0.979400 0.061700 -0.192100
vn 0.608300 -0.576500 -0.545500
vn 0.842500 0.532400 0.082000
vn 0.908100 0.402600 0.114700
vn 0.986800 0.155300 0.045600
vn 0.285700 0.591500 0.754000
vn 0.487000 0.840100 0.238900
vn 0.007100 -0.188800 -0.982000
vn 0.395900 0.892200 0.217200
vn -0.747400 -0.198900 0.633900
vn -0.062300 -0.428300 0.901500
vn 0.703000 0.049700 0.709400
s 1
f 5/1/1 10/2/2 25/3/3
f 18/4/4 28/5/5 10/2/2
f 14/6/6 5/1/1 12/7/7
f 14/6/6 6/8/8 18/4/4
f 14/6/6 18/4/4 10/2/2
f 18/4/4 6/8/8 11/9/9
f 11/9/9 6/8/8 32/10/10
f 6/8/8 20/11/11 32/10/10
f 32/10/10 20/11/11 26/12/12
f 34/13/13 33/14/14 35/15/15
f 34/13/13 20/11/11 19/16/16
f 34/13/13 35/15/15 26/12/12
f 26/12/12 24/17/17 17/18/18
f 24/17/17 36/19/19 30/20/20
f 17/18/18 32/10/10 26/12/12
f 17/18/18 11/9/9 32/10/10
f 17/18/18 27/21/21 11/9/9
f 18/4/4 29/22/22 28/5/5
f 29/22/22 18/4/4 11/9/9
f 27/21/21 7/23/23 15/24/24
f 9/25/25 16/26/26 13/27/27
f 16/26/26 8/28/28 3/29/29
f 15/24/24 7/23/23 8/28/28
f 16/26/26 9/25/25 4/30/30
f 4/30/30 28/5/5 29/22/22
f 1/31/31 14/6/6 12/7/7
f 14/6/6 1/31/31 6/8/8
f 19/16/16 20/11/11 6/8/8
f 35/15/15 36/19/19 24/17/17
f 30/20/20 36/19/19 37/32/32
f 30/20/20 21/33/33 17/18/18
f 7/23/23 27/21/21 17/18/18
f 7/23/23 21/33/33 23/34/34
f 2/35/35 38/36/36 41/37/37
f 40/38/38 9/39/25 2/35/35
f 2/40/35 13/27/27 38/41/36
f 3/29/29 38/41/36 13/27/27
f 3/29/29 39/42/39 38/41/36
f 3/29/29 8/28/28 23/34/34
f 9/39/25 40/38/38 42/43/40
f 42/43/40 31/44/41 28/5/5
f 31/44/41 25/3/3 10/2/2
f 33/14/14 37/32/32 35/15/15
f 37/32/32 36/19/19 35/15/15
f 25/45/3 31/46/41 40/47/38
f 22/48/42 25/49/3 33/50/14
f 22/48/42 34/51/13 19/52/16
f 1/53/31 12/54/7 5/55/1
f 44/56/43 337/57/44 56/58/45
f 44/56/43 56/58/45 174/59/46
f 56/58/45 206/60/47 251/61/48
f 174/62/46 251/63/48 208/64/49
f 173/65/50 59/66/51 208/67/49
f 59/66/51 67/68/52 212/69/53
f 67/68/52 59/66/51 385/70/54
f 59/66/51 47/71/55 381/72/56
f 381/72/56 51/73/57 63/74/58
f 381/72/56 420/75/59 334/76/60
f 420/75/59 381/72/56 47/71/55
f 332/77/61 47/71/55 169/78/62
f 47/71/55 59/66/51 173/65/50
f 173/79/50 55/80/63 43/81/64
f 43/81/64 330/82/65 349/83/66
f 43/81/64 55/80/63 336/84/67
f 336/84/67 55/80/63 144/85/68
f 144/85/68 55/80/63 206/86/47
f 206/86/47 55/80/63 173/79/50
f 56/58/45 339/87/69 145/88/70
f 145/88/70 239/89/71 206/60/47
f 145/88/70 341/90/72 153/91/73
f 507/92/74 508/93/75 157/94/76
f 153/91/73 243/95/77 239/89/71
f 152/96/78 144/85/68 239/97/71
f 340/98/79 338/99/80 144/85/68
f 148/100/81 154/101/82 241/102/83
f 154/101/82 148/100/81 338/99/80
f 148/100/81 123/103/84 336/84/67
f 111/104/85 330/82/65 336/84/67
f 111/104/85 179/105/86 349/83/66
f 115/106/87 332/77/61 349/107/66
f 332/77/61 115/106/87 406/108/88
f 406/108/88 410/109/89 119/110/90
f 410/109/89 265/111/91 116/112/92
f 406/108/88 115/106/87 265/111/91
f 115/106/87 179/113/86 277/114/93
f 179/105/86 111/104/85 263/115/94
f 123/103/84 279/116/95 269/117/96
f 263/115/94 111/104/85 123/103/84
f 263/115/94 269/117/96 124/118/97
f 124/118/97 269/117/96 279/116/95
f 270/119/98 279/120/95 125/121/99
f 279/120/95 270/119/98 126/122/100
f 270/119/98 264/123/101 114/124/102
f 125/121/99 113/125/103 264/123/101
f 113/125/103 177/126/104 276/127/105
f 331/128/106 348/129/107 177/126/104
f 177/130/104 348/131/107 333/132/108
f 333/132/108 348/131/107 170/133/109
f 44/56/43 331/128/106 337/57/44
f 331/128/106 44/56/43 170/134/109
f 337/57/44 125/121/99 150/135/110
f 337/57/44 331/128/106 113/125/103
f 125/121/99 279/120/95 150/135/110
f 279/120/95 241/136/83 150/135/110
f 241/136/83 244/137/111 150/135/110
f 150/135/110 244/137/111 155/138/112
f 501/139/113 159/140/114 511/141/115
f 155/138/112 244/137/111 504/142/116
f 244/143/111 241/102/83 154/101/82
f 502/144/117 158/145/118 246/146/119
f 162/147/120 248/148/121 246/146/119
f 248/149/121 163/150/122 159/140/114
f 495/151/123 250/152/124 165/153/125
f 165/153/125 347/154/126 498/155/127
f 481/156/128 478/157/129 395/158/130
f 395/158/130 450/159/131 168/160/132
f 478/157/129 479/161/133 450/159/131
f 168/160/132 450/159/131 408/162/134
f 494/163/135 164/164/136 250/165/124
f 494/163/135 162/166/120 344/167/137
f 162/147/120 158/145/118 342/168/138
f 344/169/137 342/168/138 156/170/139
f 506/171/140 340/98/79 152/96/78
f 157/94/76 245/172/141 505/173/142
f 505/174/142 503/175/143 152/96/78
f 245/176/141 247/177/144 160/178/145
f 500/179/146 497/180/147 344/167/137
f 477/181/148 464/182/149 456/183/150
f 157/94/76 345/184/151 161/185/152
f 247/186/144 245/172/141 157/94/76
f 347/154/126 460/187/153 499/188/154
f 481/156/128 455/189/155 461/190/156
f 166/191/157 465/192/158 456/183/150
f 465/192/158 167/193/159 408/194/134
f 408/162/134 450/159/131 479/161/133
f 483/195/160 482/196/161 456/183/150
f 345/184/151 157/94/76 343/197/162
f 509/198/163 508/93/75 153/91/73
f 509/198/163 153/91/73 341/90/72
f 511/141/115 159/140/114 343/197/162
f 163/150/122 345/184/151 343/197/162
f 502/144/117 154/101/82 340/98/79
f 339/87/69 337/57/44 150/135/110
f 339/87/69 341/90/72 145/88/70
f 339/87/69 150/135/110 155/138/112
f 337/57/44 339/87/69 56/58/45
f 241/102/83 279/116/95 123/103/84
f 60/199/164 380/200/165 48/201/166
f 48/201/166 170/133/109 174/62/46
f 380/200/165 335/202/167 419/203/168
f 419/203/168 333/132/108 48/201/166
f 405/204/169 117/205/170 333/132/108
f 409/206/171 405/204/169 121/207/172
f 409/206/171 118/208/173 266/209/174
f 266/209/174 117/205/170 405/204/169
f 276/210/105 177/130/104 117/205/170
f 266/209/174 118/208/173 178/211/175
f 178/211/175 118/208/173 305/212/176
f 404/213/177 118/214/173 409/215/171
f 418/216/178 305/217/176 118/214/173
f 379/218/179 418/216/178 307/219/180
f 379/218/179 49/220/181 305/217/176
f 49/221/181 171/222/182 314/223/183
f 45/224/184 309/225/185 303/226/186
f 45/224/184 303/226/186 314/227/183
f 303/226/186 114/124/102 178/228/175
f 114/124/102 264/123/101 276/127/105
f 309/225/185 151/229/187 126/122/100
f 126/122/100 114/124/102 303/226/186
f 151/229/187 242/230/188 230/231/189
f 230/232/189 242/233/188 149/234/190
f 242/233/188 254/235/191 183/236/192
f 184/237/193 151/229/187 313/238/194
f 184/237/193 254/239/191 242/230/188
f 254/239/191 184/237/193 188/240/195
f 317/241/196 184/237/193 313/238/194
f 317/241/196 319/242/197 188/240/195
f 321/243/198 319/242/197 185/244/199
f 321/243/198 192/245/200 188/240/195
f 192/245/200 258/246/201 256/247/202
f 256/248/202 258/249/201 191/250/203
f 191/251/203 258/252/201 260/253/204
f 258/254/201 192/255/200 196/256/205
f 323/257/206 321/258/198 189/259/207
f 323/260/206 196/256/205 192/255/200
f 189/261/207 321/243/198 185/244/199
f 189/261/207 185/244/199 255/262/208
f 255/262/208 185/244/199 181/263/209
f 319/242/197 317/241/196 181/263/209
f 146/264/210 313/238/194 57/265/211
f 181/263/209 317/241/196 313/238/194
f 181/263/209 146/264/210 240/266/212
f 146/264/210 57/265/211 207/267/213
f 57/265/211 175/268/214 252/269/215
f 45/224/184 57/265/211 309/225/185
f 45/224/184 171/270/182 175/268/214
f 171/222/182 49/221/181 61/271/216
f 383/272/217 379/218/179 53/273/218
f 383/272/217 61/274/216 49/220/181
f 383/272/217 397/275/219 95/276/220
f 95/276/220 222/277/221 209/278/222
f 209/279/222 252/280/215 175/281/214
f 209/282/222 62/283/223 176/284/224
f 62/285/223 209/286/222 222/287/221
f 222/287/221 224/288/225 100/289/226
f 512/290/227 103/291/228 519/292/229
f 224/293/225 222/277/221 95/276/220
f 95/276/220 397/275/219 399/294/230
f 397/275/219 97/295/231 101/296/232
f 383/272/217 53/273/218 65/297/233
f 65/297/233 97/295/231 397/275/219
f 65/297/233 328/298/234 211/299/235
f 211/299/235 223/300/236 97/295/231
f 223/300/236 225/301/237 101/296/232
f 514/302/238 225/301/237 521/303/239
f 514/302/238 513/304/240 101/296/232
f 513/304/240 515/305/241 399/294/230
f 401/306/242 103/291/228 512/290/227
f 107/307/243 403/308/244 411/309/245
f 403/308/244 107/307/243 103/291/228
f 519/310/229 517/311/246 224/288/225
f 103/312/228 107/313/243 228/314/247
f 107/313/243 411/315/245 281/316/248
f 107/313/243 281/316/248 294/317/249
f 281/316/248 369/318/250 371/319/251
f 369/318/250 281/316/248 372/320/252
f 281/316/248 411/315/245 429/321/253
f 411/309/245 283/322/254 373/323/255
f 359/324/256 423/325/257 429/326/253
f 423/327/257 357/328/258 372/320/252
f 427/329/259 360/330/260 365/331/261
f 427/332/259 365/333/261 357/328/258
f 365/333/261 362/334/262 356/335/263
f 362/336/262 425/337/264 426/338/265
f 425/337/264 360/330/260 361/339/266
f 362/336/262 365/331/261 360/330/260
f 361/340/266 364/341/267 363/342/268
f 364/341/267 361/340/266 360/343/260
f 364/344/267 427/345/259 423/325/257
f 359/324/256 358/346/269 363/347/268
f 376/348/270 375/349/271 358/346/269
f 359/324/256 373/323/255 376/348/270
f 373/323/255 283/322/254 368/350/272
f 287/351/273 413/352/274 375/349/271
f 375/349/271 376/348/270 368/350/272
f 368/350/272 370/353/275 297/354/276
f 283/322/254 295/355/277 370/353/275
f 370/353/275 295/355/277 282/356/278
f 282/356/278 295/355/277 229/357/279
f 295/355/277 283/322/254 109/358/280
f 109/358/280 283/322/254 411/309/245
f 109/358/280 403/308/244 401/306/242
f 105/359/281 227/360/282 229/357/279
f 227/360/282 106/361/283 110/362/284
f 428/363/285 108/364/286 280/365/287
f 520/366/288 518/367/289 400/368/290
f 98/369/291 396/370/292 398/371/293
f 396/370/292 96/372/294 100/289/226
f 382/373/295 62/285/223 96/372/294
f 382/373/295 378/374/296 50/375/297
f 382/373/295 66/376/298 54/377/299
f 66/376/298 382/373/295 396/370/292
f 98/369/291 223/300/236 211/299/235
f 211/299/235 328/298/234 310/378/300
f 310/378/300 306/379/301 54/377/299
f 310/378/300 127/380/302 120/381/303
f 407/382/304 417/383/305 306/379/301
f 378/374/296 54/377/299 306/379/301
f 417/383/305 304/384/306 50/375/297
f 407/382/304 410/385/89 116/386/92
f 116/386/92 304/384/306 417/383/305
f 304/387/306 116/112/92 180/388/307
f 265/111/91 277/114/93 180/388/307
f 277/389/93 263/115/94 112/390/308
f 112/390/308 302/391/309 315/392/310
f 112/390/308 124/118/97 308/393/311
f 308/393/311 124/118/97 149/234/190
f 312/394/312 149/234/190 183/236/192
f 316/395/313 183/236/192 187/396/314
f 187/396/314 183/236/192 254/235/191
f 187/396/314 191/250/203 320/397/315
f 320/398/315 191/251/203 195/399/316
f 195/399/316 199/400/317 324/401/318
f 195/399/316 260/253/204 467/402/319
f 203/403/320 452/404/321 447/405/322
f 492/406/323 467/407/319 200/408/324
f 489/409/325 453/410/326 447/405/322
f 489/409/325 488/411/327 448/412/328
f 491/413/329 448/412/328 488/411/327
f 193/414/330 323/260/206 189/259/207
f 193/414/330 197/415/331 325/416/332
f 261/417/333 259/418/334 194/419/335
f 261/417/333 197/415/331 193/414/330
f 193/414/330 189/259/207 257/420/336
f 190/421/337 194/419/335 259/418/334
f 194/419/335 190/421/337 320/398/315
f 186/422/338 318/423/339 320/397/315
f 186/422/338 182/424/340 316/395/313
f 147/425/341 312/394/312 316/395/313
f 147/425/341 58/426/342 308/393/311
f 46/427/343 302/391/309 308/393/311
f 46/427/343 172/428/344 315/392/310
f 50/429/297 304/387/306 315/430/310
f 172/431/344 176/284/224 62/283/223
f 46/427/343 58/426/342 176/432/224
f 207/267/213 252/433/215 176/432/224
f 147/425/341 240/266/212 207/267/213
f 182/424/340 253/434/345 240/266/212
f 182/424/340 186/422/338 255/262/208
f 190/435/337 257/436/336 255/262/208
f 198/437/346 261/417/333 194/419/335
f 198/437/346 194/419/335 322/438/347
f 486/181/348 490/439/349 454/440/350
f 485/195/351 446/194/352 454/440/350
f 446/194/352 202/193/353 326/192/354
f 202/441/353 446/442/352 452/404/321
f 485/443/351 199/444/317 467/407/319
f 326/445/354 327/446/355 201/447/356
f 326/445/354 202/441/353 203/403/320
f 467/407/319 260/448/204 196/256/205
f 327/446/355 453/410/326 448/412/328
f 201/447/356 448/412/328 449/449/357
f 449/182/357 454/440/350 326/192/354
f 491/413/329 486/450/348 449/449/357
f 267/451/358 119/452/90 410/385/89
f 267/451/358 410/385/89 407/382/304
f 120/381/303 127/380/302 271/453/359
f 127/380/302 459/454/360 131/455/361
f 131/455/361 273/456/362 271/453/359
f 132/457/363 231/458/364 128/459/365
f 132/460/363 128/461/365 271/453/359
f 271/453/359 128/461/365 119/452/90
f 128/462/365 350/463/366 329/464/367
f 329/464/367 334/76/60 119/110/90
f 329/464/367 63/74/58 51/73/57
f 210/465/368 350/463/366 64/466/369
f 63/74/58 329/464/367 350/463/366
f 213/467/370 69/468/371 63/74/58
f 69/468/371 387/469/372 385/70/54
f 387/469/372 69/468/371 434/470/373
f 69/468/371 213/467/370 437/471/374
f 213/467/370 70/472/375 435/473/376
f 435/473/376 74/474/377 215/475/378
f 73/476/379 434/470/373 437/471/374
f 73/476/379 389/477/380 439/478/381
f 389/477/380 71/479/382 433/480/383
f 391/481/384 75/482/385 71/479/382
f 75/483/385 79/484/386 216/485/387
f 214/486/388 71/479/382 75/482/385
f 214/486/388 438/487/389 433/480/383
f 438/487/389 212/69/53 67/68/52
f 433/480/383 67/68/52 387/469/372
f 436/488/390 68/489/391 212/490/53
f 68/489/391 384/491/392 60/199/164
f 60/199/164 208/64/49 212/490/53
f 60/199/164 384/491/392 380/200/165
f 380/200/165 384/491/392 52/492/393
f 52/492/393 384/491/392 64/466/369
f 384/491/392 68/489/391 386/493/394
f 386/493/394 70/472/375 64/466/369
f 386/493/394 440/494/395 435/473/376
f 386/493/394 68/489/391 436/488/390
f 436/488/390 72/495/396 388/496/397
f 72/495/396 436/488/390 438/497/389
f 80/498/398 442/499/399 76/500/400
f 392/501/401 390/502/402 444/503/403
f 200/408/324 196/256/205 323/260/206
f 76/500/400 442/499/399 444/503/403
f 84/504/404 394/505/405 392/506/401
f 441/507/406 445/508/407 442/509/399
f 80/510/398 392/511/401 443/512/408
f 81/513/409 83/514/410 393/515/411
f 81/513/409 393/515/411 391/516/384
f 79/484/386 393/515/411 83/514/410
f 393/515/411 79/484/386 75/483/385
f 83/514/410 84/504/404 80/498/398
f 394/505/405 84/504/404 88/517/412
f 85/518/413 83/519/410 81/520/409
f 85/518/413 89/521/414 87/522/415
f 87/523/415 88/517/412 84/504/404
f 87/524/415 91/525/416 92/526/417
f 93/527/418 221/528/419 91/529/416
f 91/529/416 87/530/415 89/531/414
f 89/531/414 220/532/420 221/528/419
f 220/533/420 89/521/414 85/518/413
f 85/518/413 81/520/409 218/534/421
f 81/520/409 77/535/422 217/536/423
f 77/537/422 73/476/379 215/475/378
f 391/481/384 389/477/380 73/476/379
f 74/474/377 78/538/424 217/539/423
f 78/540/424 82/541/425 218/534/421
f 82/541/425 86/542/426 219/543/427
f 90/544/428 220/533/420 219/543/427
f 90/545/428 94/546/429 221/528/419
f 92/526/417 91/525/416 221/547/419
f 90/545/428 88/548/412 92/549/417
f 86/542/426 394/550/405 88/551/412
f 86/542/426 82/541/425 392/501/401
f 388/496/397 390/552/402 78/538/424
f 74/474/377 435/473/376 440/494/395
f 70/472/375 213/467/370 210/465/368
f 64/466/369 350/463/366 52/492/393
f 231/553/364 350/463/366 128/462/365
f 231/553/364 121/207/172 335/202/167
f 52/492/393 335/202/167 380/200/165
f 350/463/366 231/553/364 335/202/167
f 121/207/172 405/204/169 419/203/168
f 121/554/172 231/458/364 130/555/430
f 130/555/430 231/458/364 233/556/431
f 233/557/431 140/558/432 236/559/433
f 233/556/431 231/458/364 132/457/363
f 140/560/432 132/460/363 273/456/362
f 131/455/361 137/561/434 275/562/435
f 138/563/436 143/564/437 470/565/438
f 469/42/439 136/566/440 468/41/441
f 470/565/438 143/564/437 136/566/440
f 235/567/442 468/41/441 136/566/440
f 136/566/440 143/564/437 238/568/443
f 135/569/444 468/41/441 235/567/442
f 235/567/442 238/568/443 142/570/445
f 135/571/444 472/572/446 468/573/441
f 135/571/444 142/574/445 471/575/447
f 430/576/448 262/577/449 205/578/450
f 430/576/448 205/578/450 278/579/451
f 140/558/432 275/580/435 278/579/451
f 262/577/449 139/581/452 236/559/433
f 236/559/433 140/558/432 205/578/450
f 236/559/433 139/581/452 134/582/453
f 458/13/454 139/581/452 457/14/455
f 274/583/456 272/584/457 134/585/453
f 274/16/456 134/582/453 139/581/452
f 134/585/453 272/584/457 268/586/458
f 272/584/457 133/587/459 268/586/458
f 268/586/458 133/587/459 129/588/460
f 129/588/460 133/587/459 234/589/461
f 274/583/456 133/587/459 272/584/457
f 234/590/461 232/591/462 129/588/460
f 129/588/460 232/591/462 307/219/180
f 307/219/180 232/591/462 311/592/463
f 311/592/463 232/591/462 328/298/234
f 232/591/462 459/454/360 328/298/234
f 459/454/360 127/380/302 310/378/300
f 459/454/360 232/591/462 131/455/361
f 232/591/462 234/589/461 137/561/434
f 311/592/463 328/298/234 53/273/218
f 53/273/218 328/298/234 65/297/233
f 311/592/463 53/273/218 307/219/180
f 53/273/218 379/218/179 307/219/180
f 307/219/180 122/593/464 129/588/460
f 122/593/464 268/586/458 129/588/460
f 268/586/458 409/215/171 121/554/172
f 122/593/464 404/213/177 409/215/171
f 122/593/464 307/219/180 418/216/178
f 121/554/172 130/555/430 268/586/458
f 130/555/430 134/585/453 268/586/458
f 134/585/453 130/555/430 233/556/431
f 134/582/453 233/557/431 236/559/433
f 139/581/452 204/594/465 457/14/455
f 204/594/465 473/32/466 457/14/455
f 473/32/466 204/594/465 431/595/467
f 262/577/449 430/576/448 432/596/468
f 204/594/465 139/581/452 262/577/449
f 204/594/465 262/577/449 432/596/468
f 431/595/467 432/596/468 237/597/469
f 432/596/468 430/576/448 141/598/470
f 141/598/470 430/576/448 476/599/471
f 141/598/470 475/600/472 471/575/447
f 238/568/443 237/597/469 141/598/470
f 237/597/469 238/568/443 143/564/437
f 431/595/467 138/563/436 474/601/473
f 420/75/59 406/108/88 119/110/90
f 98/369/291 102/602/474 225/301/237
f 518/367/289 516/603/475 104/604/476
f 516/603/475 100/289/226 224/288/225
f 226/605/477 228/314/247 108/364/286
f 228/314/247 294/317/249 280/365/287
f 402/606/478 366/607/479 284/608/480
f 293/609/481 352/610/482 412/611/483
f 280/365/287 294/317/249 371/319/251
f 296/612/484 284/608/480 366/607/479
f 416/613/485 284/608/480 288/614/486
f 414/615/487 288/614/486 351/616/488
f 288/614/486 284/608/480 296/612/484
f 298/617/489 296/612/484 285/618/490
f 296/612/484 371/319/251 369/318/250
f 285/618/490 374/619/491 413/620/274
f 374/619/491 377/621/492 356/335/263
f 374/619/491 285/618/490 369/318/250
f 377/621/492 372/320/252 357/328/258
f 424/622/493 413/620/274 374/619/491
f 424/623/493 358/346/269 375/349/271
f 424/623/493 426/624/265 363/347/268
f 356/335/263 362/334/262 426/625/265
f 363/342/268 426/626/265 425/627/264
f 413/620/274 415/628/494 289/629/495
f 422/630/496 292/631/497 354/632/498
f 354/633/498 289/629/495 415/628/494
f 300/634/499 354/632/498 292/631/497
f 300/635/499 298/617/489 289/629/495
f 300/634/499 293/636/481 351/637/488
f 351/616/488 288/614/486 298/617/489
f 282/356/278 421/638/500 402/606/478
f 421/638/500 280/365/287 366/607/479
f 352/639/482 290/640/501 414/615/487
f 367/641/502 402/606/478 416/613/485
f 110/362/284 428/363/285 421/638/500
f 106/361/283 400/368/290 428/363/285
f 286/642/503 416/613/485 414/615/487
f 351/637/488 293/636/481 412/643/483
f 297/354/276 370/353/275 367/641/502
f 297/354/276 286/642/503 290/640/501
f 299/644/504 290/640/501 352/645/482
f 301/646/505 293/636/481 300/634/499
f 301/647/505 355/648/506 352/649/482
f 353/650/507 292/651/497 422/652/496
f 301/646/505 300/634/499 292/631/497
f 353/650/507 355/648/506 301/647/505
f 291/653/508 299/644/504 355/654/506
f 287/351/273 297/354/276 299/644/504
f 291/653/508 415/655/494 413/352/274
f 415/655/494 291/653/508 353/656/507
f 57/265/211 313/238/194 309/225/185
f 309/225/185 313/238/194 151/229/187
f 72/495/396 214/657/388 216/658/387
f 72/495/396 76/659/400 390/552/402
f 79/484/386 80/498/398 76/500/400
f 390/502/402 392/501/401 82/541/425
f 443/660/408 462/661/509 445/508/407
f 444/662/403 462/661/509 443/660/408
f 444/662/403 442/509/399 445/508/407
f 447/405/322 453/410/326 327/446/355
f 249/663/510 463/664/511 500/179/146
f 477/665/148 463/666/511 249/663/510
f 461/190/156 166/667/157 451/668/512
f 480/669/513 249/663/510 460/187/153
f 499/188/154 496/670/514 247/671/144
f 455/189/155 466/672/515 166/667/157
f 465/673/158 166/667/157 466/672/515
f 465/673/158 466/672/515 168/160/132
f 455/189/155 395/158/130 168/160/132
f 464/674/149 451/668/512 166/667/157
f 400/368/290 104/604/476 108/364/286
f 400/368/290 106/361/283 521/303/239
f 66/376/298 211/299/235 310/378/300
f 267/451/358 120/381/303 271/453/359
f 267/451/358 271/453/359 119/452/90
f 278/675/451 473/676/466 469/677/439
f 451/668/512 480/669/513 484/678/516
f 464/674/149 477/665/148 480/669/513
f 164/679/136 346/680/517 482/196/161
f 483/681/160 479/161/133 250/152/124
f 347/154/126 481/156/128 484/678/516
f 463/682/511 477/181/148 482/196/161
f 165/153/125 250/152/124 479/161/133
f 347/154/126 165/153/125 478/157/129
f 261/417/333 198/683/346 486/450/348
f 446/442/352 485/443/351 492/406/323
f 199/679/317 485/195/351 490/439/349
f 198/682/346 324/680/318 490/439/349
f 491/413/329 488/411/327 197/415/331
f 325/416/332 197/415/331 488/411/327
f 325/416/332 489/409/325 487/684/518
f 452/404/321 492/406/323 487/684/518
f 460/187/153 249/663/510 496/670/514
f 496/670/514 500/179/146 160/685/145
f 498/155/127 499/188/154 161/686/152
f 463/664/511 346/687/517 497/180/147
f 164/164/136 494/163/135 497/180/147
f 162/166/120 494/163/135 495/688/123
f 163/689/122 493/690/519 498/155/127
f 248/691/121 495/151/123 493/690/519
f 68/489/391 60/199/164 212/490/53
f 208/67/49 59/66/51 212/69/53
f 387/469/372 67/68/52 385/70/54
f 275/692/435 458/693/454 457/694/455
f 275/692/435 137/695/434 133/696/459
f 234/697/461 133/696/459 137/695/434
f 458/693/454 275/692/435 274/698/456
f 158/145/118 502/144/117 506/171/140
f 245/176/141 156/170/139 503/175/143
f 506/171/140 503/175/143 156/170/139
f 154/101/82 502/144/117 504/699/116
f 159/140/114 501/139/113 504/142/116
f 341/90/72 511/141/115 510/700/520
f 343/197/162 509/198/163 510/700/520
f 343/197/162 157/94/76 508/93/75
f 153/91/73 508/93/75 507/92/74
f 243/95/77 507/92/74 505/173/142
f 501/139/113 511/141/115 341/90/72
f 515/305/241 512/290/227 99/701/521
f 105/359/281 401/306/242 515/305/241
f 227/360/282 105/359/281 513/304/240
f 104/604/476 516/603/475 517/311/246
f 398/371/293 100/289/226 516/603/475
f 226/605/477 517/311/246 519/310/229
f 99/701/521 512/290/227 519/292/229
f 102/602/474 520/366/288 521/303/239
f 102/602/474 398/371/293 518/367/289
f 514/302/238 521/303/239 106/361/283
f 94/702/429 92/526/417 221/547/419
f 22/703/42 5/1/1 25/3/3
f 5/1/1 14/6/6 10/2/2
f 20/11/11 34/13/13 26/12/12
f 27/21/21 29/22/22 11/9/9
f 29/22/22 27/21/21 15/24/24
f 2/40/35 9/25/25 13/27/27
f 13/27/27 16/26/26 3/29/29
f 16/26/26 15/24/24 8/28/28
f 15/24/24 16/26/26 4/30/30
f 15/24/24 4/30/30 29/22/22
f 1/31/31 19/16/16 6/8/8
f 26/12/12 35/15/15 24/17/17
f 21/33/33 30/20/20 37/32/32
f 24/17/17 30/20/20 17/18/18
f 21/33/33 7/23/23 17/18/18
f 8/28/28 7/23/23 23/34/34
f 41/37/37 40/38/38 2/35/35
f 39/42/39 3/29/29 23/34/34
f 4/30/30 9/39/25 42/43/40
f 4/30/30 42/43/40 28/5/5
f 28/5/5 31/44/41 10/2/2
f 41/704/37 38/705/36 40/47/38
f 39/706/39 23/707/34 37/708/32
f 37/708/32 33/709/14 25/45/3
f 23/707/34 21/710/33 37/708/32
f 40/47/38 38/705/36 39/706/39
f 31/46/41 42/711/40 40/47/38
f 37/708/32 25/45/3 39/706/39
f 40/47/38 39/706/39 25/45/3
f 34/51/13 22/48/42 33/50/14
f 5/55/1 22/48/42 19/52/16
f 19/52/16 1/53/31 5/55/1
f 170/134/109 44/56/43 174/59/46
f 174/59/46 56/58/45 251/61/48
f 60/199/164 174/62/46 208/64/49
f 251/712/48 173/65/50 208/67/49
f 385/70/54 59/66/51 381/72/56
f 385/70/54 381/72/56 63/74/58
f 51/73/57 381/72/56 334/76/60
f 332/77/61 420/75/59 47/71/55
f 349/107/66 332/77/61 169/78/62
f 169/78/62 47/71/55 173/65/50
f 169/713/62 173/79/50 43/81/64
f 169/713/62 43/81/64 349/83/66
f 330/82/65 43/81/64 336/84/67
f 338/99/80 336/84/67 144/85/68
f 239/97/71 144/85/68 206/86/47
f 251/714/48 206/86/47 173/79/50
f 56/58/45 145/88/70 206/60/47
f 145/88/70 153/91/73 239/89/71
f 243/715/77 152/96/78 239/97/71
f 152/96/78 340/98/79 144/85/68
f 340/98/79 154/101/82 338/99/80
f 338/99/80 148/100/81 336/84/67
f 123/103/84 111/104/85 336/84/67
f 330/82/65 111/104/85 349/83/66
f 179/113/86 115/106/87 349/107/66
f 420/75/59 332/77/61 406/108/88
f 410/109/89 406/108/88 265/111/91
f 265/111/91 115/106/87 277/114/93
f 277/389/93 179/105/86 263/115/94
f 269/117/96 263/115/94 123/103/84
f 112/390/308 263/115/94 124/118/97
f 230/232/189 124/118/97 279/116/95
f 230/231/189 279/120/95 126/122/100
f 126/122/100 270/119/98 114/124/102
f 270/119/98 125/121/99 264/123/101
f 264/123/101 113/125/103 276/127/105
f 113/125/103 331/128/106 177/126/104
f 117/205/170 177/130/104 333/132/108
f 48/201/166 333/132/108 170/133/109
f 348/129/107 331/128/106 170/134/109
f 125/121/99 337/57/44 113/125/103
f 501/139/113 155/138/112 504/142/116
f 504/699/116 502/144/117 246/146/119
f 158/145/118 162/147/120 246/146/119
f 246/716/119 248/149/121 159/140/114
f 493/690/519 495/151/123 165/153/125
f 493/690/519 165/153/125 498/155/127
f 455/189/155 481/156/128 395/158/130
f 395/158/130 478/157/129 450/159/131
f 167/717/159 168/160/132 408/162/134
f 495/688/123 494/163/135 250/165/124
f 497/180/147 494/163/135 344/167/137
f 344/169/137 162/147/120 342/168/138
f 160/178/145 344/169/137 156/170/139
f 503/175/143 506/171/140 152/96/78
f 507/92/74 157/94/76 505/173/142
f 243/715/77 505/174/142 152/96/78
f 156/170/139 245/176/141 160/178/145
f 160/685/145 500/179/146 344/167/137
f 482/196/161 477/181/148 456/183/150
f 161/185/152 247/186/144 157/94/76
f 498/155/127 347/154/126 499/188/154
f 484/678/516 481/156/128 461/190/156
f 464/182/149 166/191/157 456/183/150
f 456/183/150 465/192/158 408/194/134
f 483/681/160 408/162/134 479/161/133
f 408/194/134 483/195/160 456/183/150
f 510/700/520 509/198/163 341/90/72
f 510/700/520 511/141/115 343/197/162
f 159/140/114 163/150/122 343/197/162
f 506/171/140 502/144/117 340/98/79
f 341/90/72 339/87/69 155/138/112
f 148/100/81 241/102/83 123/103/84
f 60/199/164 48/201/166 174/62/46
f 380/200/165 419/203/168 48/201/166
f 419/203/168 405/204/169 333/132/108
f 409/206/171 266/209/174 405/204/169
f 266/209/174 276/210/105 117/205/170
f 276/210/105 266/209/174 178/211/175
f 314/223/183 178/211/175 305/212/176
f 404/213/177 418/216/178 118/214/173
f 418/216/178 379/218/179 305/217/176
f 305/212/176 49/221/181 314/223/183
f 171/270/182 45/224/184 314/227/183
f 314/227/183 303/226/186 178/228/175
f 178/228/175 114/124/102 276/127/105
f 309/225/185 126/122/100 303/226/186
f 126/122/100 151/229/187 230/231/189
f 124/118/97 230/232/189 149/234/190
f 149/234/190 242/233/188 183/236/192
f 151/229/187 184/237/193 242/230/188
f 256/247/202 254/239/191 188/240/195
f 184/237/193 317/241/196 188/240/195
f 319/242/197 321/243/198 188/240/195
f 188/240/195 192/245/200 256/247/202
f 187/396/314 256/248/202 191/250/203
f 195/399/316 191/251/203 260/253/204
f 260/448/204 258/254/201 196/256/205
f 321/718/198 323/260/206 192/255/200
f 257/719/336 189/261/207 255/262/208
f 253/434/345 255/262/208 181/263/209
f 185/244/199 319/242/197 181/263/209
f 146/264/210 181/263/209 313/238/194
f 253/434/345 181/263/209 240/266/212
f 240/266/212 146/264/210 207/267/213
f 207/267/213 57/265/211 252/269/215
f 57/265/211 45/224/184 175/268/214
f 175/281/214 171/222/182 61/271/216
f 379/218/179 383/272/217 49/220/181
f 61/274/216 383/272/217 95/276/220
f 61/274/216 95/276/220 209/278/222
f 61/271/216 209/279/222 175/281/214
f 252/720/215 209/282/222 176/284/224
f 96/372/294 62/285/223 222/287/221
f 96/372/294 222/287/221 100/289/226
f 99/701/521 224/293/225 95/276/220
f 99/701/521 95/276/220 399/294/230
f 399/294/230 397/275/219 101/296/232
f 383/272/217 65/297/233 397/275/219
f 65/297/233 211/299/235 97/295/231
f 97/295/231 223/300/236 101/296/232
f 225/301/237 514/302/238 101/296/232
f 101/296/232 513/304/240 399/294/230
f 515/305/241 401/306/242 512/290/227
f 401/306/242 403/308/244 103/291/228
f 226/605/477 103/312/228 228/314/247
f 228/314/247 107/313/243 294/317/249
f 294/317/249 281/316/248 371/319/251
f 377/621/492 369/318/250 372/320/252
f 372/320/252 281/316/248 429/321/253
f 429/326/253 411/309/245 373/323/255
f 373/323/255 359/324/256 429/326/253
f 429/321/253 423/327/257 372/320/252
f 423/327/257 427/332/259 357/328/258
f 357/328/258 365/333/261 356/335/263
f 425/337/264 362/336/262 360/330/260
f 427/721/259 364/341/267 360/343/260
f 359/324/256 364/344/267 423/325/257
f 364/344/267 359/324/256 363/347/268
f 358/346/269 359/324/256 376/348/270
f 376/348/270 373/323/255 368/350/272
f 287/351/273 375/349/271 368/350/272
f 287/351/273 368/350/272 297/354/276
f 368/350/272 283/322/254 370/353/275
f 367/641/502 370/353/275 282/356/278
f 110/362/284 282/356/278 229/357/279
f 229/357/279 295/355/277 109/358/280
f 403/308/244 109/358/280 411/309/245
f 105/359/281 109/358/280 401/306/242
f 109/358/280 105/359/281 229/357/279
f 229/357/279 227/360/282 110/362/284
f 421/638/500 428/363/285 280/365/287
f 102/602/474 98/369/291 398/371/293
f 398/371/293 396/370/292 100/289/226
f 396/370/292 382/373/295 96/372/294
f 62/285/223 382/373/295 50/375/297
f 378/374/296 382/373/295 54/377/299
f 98/369/291 66/376/298 396/370/292
f 66/376/298 98/369/291 211/299/235
f 66/376/298 310/378/300 54/377/299
f 306/379/301 310/378/300 120/381/303
f 120/381/303 407/382/304 306/379/301
f 417/383/305 378/374/296 306/379/301
f 378/374/296 417/383/305 50/375/297
f 407/382/304 116/386/92 417/383/305
f 315/430/310 304/387/306 180/388/307
f 116/112/92 265/111/91 180/388/307
f 180/722/307 277/389/93 112/390/308
f 180/722/307 112/390/308 315/392/310
f 302/391/309 112/390/308 308/393/311
f 312/394/312 308/393/311 149/234/190
f 316/395/313 312/394/312 183/236/192
f 318/423/339 316/395/313 187/396/314
f 256/248/202 187/396/314 254/235/191
f 318/423/339 187/396/314 320/397/315
f 322/438/347 320/398/315 195/399/316
f 322/438/347 195/399/316 324/401/318
f 199/400/317 195/399/316 467/402/319
f 487/684/518 492/406/323 200/408/324
f 487/684/518 489/409/325 447/405/322
f 453/410/326 489/409/325 448/412/328
f 323/260/206 193/414/330 325/416/332
f 259/418/334 261/417/333 193/414/330
f 259/418/334 193/414/330 257/420/336
f 257/420/336 190/421/337 259/418/334
f 322/438/347 194/419/335 320/398/315
f 190/435/337 186/422/338 320/397/315
f 318/423/339 186/422/338 316/395/313
f 182/424/340 147/425/341 316/395/313
f 312/394/312 147/425/341 308/393/311
f 58/426/342 46/427/343 308/393/311
f 302/391/309 46/427/343 315/392/310
f 172/431/344 50/429/297 315/430/310
f 50/429/297 172/431/344 62/283/223
f 172/428/344 46/427/343 176/432/224
f 58/426/342 207/267/213 176/432/224
f 58/426/342 147/425/341 207/267/213
f 147/425/341 182/424/340 240/266/212
f 253/434/345 182/424/340 255/262/208
f 186/422/338 190/435/337 255/262/208
f 324/401/318 198/437/346 322/438/347
f 449/182/357 486/181/348 454/440/350
f 490/439/349 485/195/351 454/440/350
f 454/440/350 446/194/352 326/192/354
f 203/403/320 202/441/353 452/404/321
f 492/406/323 485/443/351 467/407/319
f 327/446/355 326/445/354 203/403/320
f 200/408/324 467/407/319 196/256/205
f 201/447/356 327/446/355 448/412/328
f 201/191/356 449/182/357 326/192/354
f 448/412/328 491/413/329 449/449/357
f 120/381/303 267/451/358 407/382/304
f 127/380/302 131/455/361 271/453/359
f 273/456/362 132/460/363 271/453/359
f 128/462/365 329/464/367 119/110/90
f 334/76/60 329/464/367 51/73/57
f 210/465/368 63/74/58 350/463/366
f 210/465/368 213/467/370 63/74/58
f 63/74/58 69/468/371 385/70/54
f 439/478/381 387/469/372 434/470/373
f 434/470/373 69/468/371 437/471/374
f 437/471/374 213/467/370 435/473/376
f 437/471/374 435/473/376 215/475/378
f 215/475/378 73/476/379 437/471/374
f 434/470/373 73/476/379 439/478/381
f 439/478/381 389/477/380 433/480/383
f 389/477/380 391/481/384 71/479/382
f 216/723/387 214/486/388 75/482/385
f 71/479/382 214/486/388 433/480/383
f 433/480/383 438/487/389 67/68/52
f 439/478/381 433/480/383 387/469/372
f 438/497/389 436/488/390 212/490/53
f 384/491/392 386/493/394 64/466/369
f 70/472/375 386/493/394 435/473/376
f 440/494/395 386/493/394 436/488/390
f 440/494/395 436/488/390 388/496/397
f 214/657/388 72/495/396 438/497/389
f 325/416/332 200/408/324 323/260/206
f 390/502/402 76/500/400 444/503/403
f 80/498/398 84/504/404 392/506/401
f 80/510/398 441/507/406 442/509/399
f 441/507/406 80/510/398 443/512/408
f 77/724/422 81/513/409 391/516/384
f 391/516/384 393/515/411 75/483/385
f 79/484/386 83/514/410 80/498/398
f 83/519/410 85/518/413 87/522/415
f 83/514/410 87/523/415 84/504/404
f 88/725/412 87/524/415 92/526/417
f 93/527/418 91/529/416 89/531/414
f 93/527/418 89/531/414 221/528/419
f 219/543/427 220/533/420 85/518/413
f 219/543/427 85/518/413 218/534/421
f 218/534/421 81/520/409 217/536/423
f 217/539/423 77/537/422 215/475/378
f 77/537/422 391/481/384 73/476/379
f 215/475/378 74/474/377 217/539/423
f 217/536/423 78/540/424 218/534/421
f 218/534/421 82/541/425 219/543/427
f 86/542/426 90/544/428 219/543/427
f 220/532/420 90/545/428 221/528/419
f 94/546/429 90/545/428 92/549/417
f 90/544/428 86/542/426 88/551/412
f 394/550/405 86/542/426 392/501/401
f 74/474/377 388/496/397 78/538/424
f 388/496/397 74/474/377 440/494/395
f 64/466/369 70/472/375 210/465/368
f 52/492/393 350/463/366 335/202/167
f 335/202/167 121/207/172 419/203/168
f 140/726/432 233/556/431 132/457/363
f 275/562/435 140/560/432 273/456/362
f 273/456/362 131/455/361 275/562/435
f 474/601/473 138/563/436 470/565/438
f 469/42/439 470/565/438 136/566/440
f 235/567/442 136/566/440 238/568/443
f 135/569/444 235/567/442 142/570/445
f 472/572/446 135/571/444 471/575/447
f 476/599/471 430/576/448 278/579/451
f 205/578/450 140/558/432 278/579/451
f 262/577/449 236/559/433 205/578/450
f 458/13/454 274/16/456 139/581/452
f 328/298/234 459/454/360 310/378/300
f 131/455/361 232/591/462 137/561/434
f 268/586/458 122/593/464 409/215/171
f 404/213/177 122/593/464 418/216/178
f 431/595/467 204/594/465 432/596/468
f 138/563/436 431/595/467 237/597/469
f 237/597/469 432/596/468 141/598/470
f 475/600/472 141/598/470 476/599/471
f 142/574/445 141/598/470 471/575/447
f 142/570/445 238/568/443 141/598/470
f 138/563/436 237/597/469 143/564/437
f 473/32/466 431/595/467 474/601/473
f 334/76/60 420/75/59 119/110/90
f 223/300/236 98/369/291 225/301/237
f 400/368/290 518/367/289 104/604/476
f 517/311/246 516/603/475 224/288/225
f 104/604/476 226/605/477 108/364/286
f 108/364/286 228/314/247 280/365/287
f 416/613/485 402/606/478 284/608/480
f 366/607/479 280/365/287 371/319/251
f 371/319/251 296/612/484 366/607/479
f 414/615/487 416/613/485 288/614/486
f 412/727/483 414/615/487 351/616/488
f 298/617/489 288/614/486 296/612/484
f 289/629/495 298/617/489 285/618/490
f 285/618/490 296/612/484 369/318/250
f 377/621/492 374/619/491 369/318/250
f 356/335/263 377/621/492 357/328/258
f 356/335/263 424/622/493 374/619/491
f 413/352/274 424/623/493 375/349/271
f 358/346/269 424/623/493 363/347/268
f 424/622/493 356/335/263 426/625/265
f 361/340/266 363/342/268 425/627/264
f 285/618/490 413/620/274 289/629/495
f 422/728/496 354/633/498 415/628/494
f 354/633/498 300/635/499 289/629/495
f 300/635/499 351/616/488 298/617/489
f 367/641/502 282/356/278 402/606/478
f 402/606/478 421/638/500 366/607/479
f 412/727/483 352/639/482 414/615/487
f 286/642/503 367/641/502 416/613/485
f 282/356/278 110/362/284 421/638/500
f 110/362/284 106/361/283 428/363/285
f 290/640/501 286/642/503 414/615/487
f 286/642/503 297/354/276 367/641/502
f 299/644/504 297/354/276 290/640/501
f 355/654/506 299/644/504 352/645/482
f 293/729/481 301/647/505 352/649/482
f 292/651/497 353/650/507 301/647/505
f 353/656/507 291/653/508 355/654/506
f 291/653/508 287/351/273 299/644/504
f 287/351/273 291/653/508 413/352/274
f 422/730/496 415/655/494 353/656/507
f 76/659/400 72/495/396 216/658/387
f 388/496/397 72/495/396 390/552/402
f 216/485/387 79/484/386 76/500/400
f 78/540/424 390/502/402 82/541/425
f 441/731/406 443/660/408 445/508/407
f 392/732/401 444/662/403 443/660/408
f 462/661/509 444/662/403 445/508/407
f 203/403/320 447/405/322 327/446/355
f 496/670/514 249/663/510 500/179/146
f 480/669/513 477/665/148 249/663/510
f 484/678/516 480/669/513 460/187/153
f 161/686/152 499/188/154 247/671/144
f 461/190/156 455/189/155 166/667/157
f 167/717/159 465/673/158 168/160/132
f 466/672/515 455/189/155 168/160/132
f 428/363/285 400/368/290 108/364/286
f 520/366/288 400/368/290 521/303/239
f 469/677/439 468/733/441 471/734/447
f 471/734/447 475/735/472 476/736/471
f 468/733/441 472/737/446 471/734/447
f 474/738/473 470/739/438 473/676/466
f 278/675/451 457/740/455 473/676/466
f 473/676/466 470/739/438 469/677/439
f 469/677/439 471/734/447 278/675/451
f 476/736/471 278/675/451 471/734/447
f 461/190/156 451/668/512 484/678/516
f 451/668/512 464/674/149 480/669/513
f 483/195/160 164/679/136 482/196/161
f 164/741/136 483/681/160 250/152/124
f 460/187/153 347/154/126 484/678/516
f 346/680/517 463/682/511 482/196/161
f 478/157/129 165/153/125 479/161/133
f 481/156/128 347/154/126 478/157/129
f 491/413/329 261/417/333 486/450/348
f 452/404/321 446/442/352 492/406/323
f 324/680/318 199/679/317 490/439/349
f 486/181/348 198/682/346 490/439/349
f 261/417/333 491/413/329 197/415/331
f 489/409/325 325/416/332 488/411/327
f 200/408/324 325/416/332 487/684/518
f 447/405/322 452/404/321 487/684/518
f 499/188/154 460/187/153 496/670/514
f 247/671/144 496/670/514 160/685/145
f 345/742/151 498/155/127 161/686/152
f 500/179/146 463/664/511 497/180/147
f 346/687/517 164/164/136 497/180/147
f 248/743/121 162/166/120 495/688/123
f 345/742/151 163/689/122 498/155/127
f 163/689/122 248/691/121 493/690/519
f 278/744/451 275/692/435 457/694/455
f 274/698/456 275/692/435 133/696/459
f 342/168/138 158/145/118 506/171/140
f 505/174/142 245/176/141 503/175/143
f 342/168/138 506/171/140 156/170/139
f 244/143/111 154/101/82 504/699/116
f 246/716/119 159/140/114 504/142/116
f 509/198/163 343/197/162 508/93/75
f 243/95/77 153/91/73 507/92/74
f 155/138/112 501/139/113 341/90/72
f 399/294/230 515/305/241 99/701/521
f 513/304/240 105/359/281 515/305/241
f 514/302/238 227/360/282 513/304/240
f 226/605/477 104/604/476 517/311/246
f 518/367/289 398/371/293 516/603/475
f 103/312/228 226/605/477 519/310/229
f 224/293/225 99/701/521 519/292/229
f 225/301/237 102/602/474 521/303/239
f 520/366/288 102/602/474 518/367/289
f 227/360/282 514/302/238 106/361/283
