v -0.886714 0.481499 -0.053925
v -0.886714 0.481499 0.048239
v 0.878052 0.466817 -0.053925
v 0.878052 0.466817 0.048240
v 0.830626 0.487502 -0.145587
v 0.688407 0.547526 -0.205808
v 0.541922 0.599113 -0.223055
v 0.390738 0.631447 -0.205779
v 0.236254 0.670852 -0.205588
v 0.020782 0.681631 -0.471297
v -0.020925 0.681631 -0.471297
v -0.241904 0.668307 -0.205671
v -0.397208 0.633599 -0.205756
v -0.548538 0.604071 -0.223055
v -0.694175 0.552450 -0.205808
v -0.838308 0.497967 -0.145587
v -0.838046 0.496926 0.147940
v -0.697557 0.568840 0.190070
v -0.549100 0.613750 0.205477
v -0.394475 0.634614 0.233471
v -0.234456 0.641062 0.323838
v -0.076221 0.615391 0.411565
v 0.076474 0.617359 0.411674
v 0.231633 0.634119 0.371912
v 0.388532 0.630183 0.271160
v 0.542039 0.606151 0.205473
v 0.691341 0.557979 0.149872
v 0.830299 0.485941 0.105642
v 0.132125 0.687599 -0.293521
v 0.153879 0.627163 0.391833
v -0.132628 0.688941 -0.292925
v -0.153984 0.621876 0.391669
v -0.886981 0.482592 -0.028384
v -0.887074 0.482974 -0.002843
v -0.886981 0.482592 0.022698
v 0.878369 0.467896 0.022698
v 0.878480 0.468274 -0.002843
v 0.878369 0.467896 -0.028384
v -0.839755 0.503941 0.074558
v -0.840474 0.506888 0.001176
v -0.839755 0.503941 -0.072205
v -0.699164 0.575204 0.091101
v -0.699261 0.573644 -0.007869
v -0.697354 0.567665 -0.106839
v -0.549709 0.625284 0.098357
v -0.549065 0.628464 -0.008780
v -0.549667 0.620557 -0.115918
v -0.396869 0.654323 0.123829
v -0.398184 0.663545 0.014067
v -0.397793 0.654128 -0.095845
v -0.240604 0.678621 0.191917
v -0.248245 0.705327 0.060106
v -0.247303 0.696769 -0.072755
v -0.063444 0.686954 0.234728
v -0.051536 0.743375 0.048617
v -0.037487 0.746423 -0.127648
v 0.062844 0.686779 0.234718
v 0.049657 0.743289 0.048517
v 0.034800 0.746488 -0.127888
v 0.235604 0.673483 0.227921
v 0.240079 0.704325 0.084100
v 0.239400 0.699014 -0.061201
v 0.391110 0.651579 0.152096
v 0.393002 0.662545 0.032939
v 0.392099 0.653381 -0.086408
v 0.543167 0.617622 0.098358
v 0.542429 0.620846 -0.008780
v 0.543400 0.614488 -0.115918
v 0.693440 0.563858 0.060952
v 0.693807 0.565049 -0.027968
v 0.691732 0.559879 -0.116888
v 0.831807 0.491082 0.042835
v 0.832442 0.493248 -0.019972
v 0.831839 0.491237 -0.082780
v 0.150478 0.675526 0.220223
v 0.151034 0.737914 0.049491
v 0.139804 0.721271 -0.124616
v -0.152337 0.672909 0.220171
v -0.158632 0.737829 0.049833
v -0.149655 0.719308 -0.122846
v 0.798521 0.442780 0.022426
v 0.845282 0.419478 0.003380
v 0.845481 0.418774 0.020995
v 0.797310 0.438289 0.076239
v -0.852423 0.434688 -0.000059
v -0.806012 0.455477 0.053050
v -0.803764 0.449285 0.114895
v -0.851771 0.434757 0.015798
v -0.670245 0.523740 0.068165
v -0.669925 0.518648 0.155050
v -0.531744 0.570092 0.068652
v -0.531939 0.560399 0.162173
v -0.377689 0.602018 0.078165
v -0.376695 0.583810 0.173718
v -0.223242 0.568740 0.127911
v -0.222800 0.593623 0.247876
v -0.146490 0.529139 0.147839
v -0.063724 0.519400 0.118565
v -0.075833 0.568376 0.326733
v -0.151364 0.575525 0.308129
v 0.063932 0.520108 0.119202
v 0.077039 0.569958 0.327343
v 0.147106 0.537292 0.149227
v 0.219821 0.564598 0.162881
v 0.220582 0.586278 0.297422
v 0.152619 0.580675 0.309919
v 0.369474 0.599845 0.105224
v 0.368993 0.579944 0.211173
v 0.521242 0.563593 0.066608
v 0.520937 0.554153 0.160596
v 0.661654 0.513895 0.037680
v 0.660922 0.509107 0.115225
v 0.797289 0.439541 -0.107425
v 0.841567 0.421075 -0.024833
v 0.842497 0.421002 -0.008155
v 0.798435 0.443383 -0.053250
v 0.844086 0.419896 -0.002879
v 0.798889 0.444359 -0.013451
v -0.852831 0.434216 -0.021319
v -0.807444 0.449414 -0.103265
v -0.808341 0.455158 -0.039340
v -0.853171 0.434312 -0.005533
v -0.807784 0.457098 0.008577
v -0.853179 0.433875 -0.002831
v -0.668419 0.503703 -0.151209
v -0.669800 0.517129 -0.064224
v -0.669461 0.522345 0.002617
v -0.530330 0.553466 -0.163250
v -0.531094 0.567443 -0.068694
v -0.530649 0.571921 -0.002492
v -0.380842 0.582808 -0.138611
v -0.379465 0.601293 -0.045175
v -0.376427 0.607151 0.009138
v -0.222434 0.619775 -0.130642
v -0.221851 0.592041 -0.017212
v -0.221574 0.571120 0.039850
v -0.119661 0.632210 -0.216443
v -0.018347 0.621604 -0.395944
v -0.032065 0.584674 -0.185804
v -0.132187 0.576089 -0.062577
v -0.051886 0.543972 -0.025505
v -0.142053 0.555917 0.038749
v 0.018205 0.621111 -0.395898
v 0.032246 0.584392 -0.185719
v 0.049132 0.542225 -0.025131
v 0.118577 0.631796 -0.217127
v 0.215586 0.621346 -0.134259
v 0.215270 0.592376 -0.008401
v 0.125396 0.576287 -0.065307
v 0.216193 0.570992 0.062045
v 0.137796 0.556766 0.039504
v 0.372859 0.580742 -0.140425
v 0.371999 0.600610 -0.038394
v 0.368994 0.607041 0.024639
v 0.522629 0.548576 -0.165009
v 0.523238 0.561492 -0.069817
v 0.521061 0.565052 -0.006154
v 0.661072 0.499284 -0.155284
v 0.662796 0.510321 -0.077759
v 0.662362 0.514493 -0.019137
v 0.697335 0.517014 -0.201812
v 0.841355 0.454422 -0.141708
v 0.079380 0.593520 0.410229
v -0.078559 0.591592 0.409828
v -0.402148 0.608364 -0.192511
v -0.239480 0.643938 -0.188198
v -0.899810 0.451195 -0.019870
v -0.899502 0.450602 -0.042852
v 0.891188 0.434168 0.037493
v 0.841506 0.453992 0.100135
v -0.398690 0.609150 0.225477
v -0.558742 0.585896 0.203452
v 0.020167 0.658938 -0.482241
v 0.129274 0.662312 -0.284855
v 0.698702 0.526748 0.146412
v 0.549807 0.578484 0.202575
v -0.129953 0.663446 -0.284049
v -0.020325 0.658938 -0.482241
v -0.848839 0.466005 0.145154
v -0.898952 0.450877 0.034602
v 0.890676 0.435466 -0.004190
v 0.891240 0.435061 0.013493
v 0.550473 0.572005 -0.216811
v 0.233619 0.609205 0.371309
v 0.158333 0.603143 0.389403
v 0.233450 0.646132 -0.190024
v -0.899863 0.451167 -0.004164
v -0.557528 0.577469 -0.215833
v 0.889157 0.435340 -0.044806
v 0.889795 0.435839 -0.021328
v -0.235855 0.616365 0.317003
v -0.157547 0.597945 0.388330
v -0.850537 0.465662 -0.139395
v -0.706428 0.537854 0.190913
v 0.395030 0.605805 -0.193520
v 0.391815 0.604426 0.267247
v -0.703960 0.522383 -0.199546
v -0.899423 0.451386 0.011581
vt 0.281556 0.946625
vt 0.314598 0.946625
vt 0.284400 0.973717
vt 0.270963 0.973717
vt 0.270963 0.032688
vt 0.284400 0.032688
vt 0.336850 0.059640
vt 0.298246 0.059640
vt 0.359014 0.140589
vt 0.306948 0.140589
vt 0.367128 0.221162
vt 0.310766 0.221162
vt 0.382066 0.301735
vt 0.324244 0.301735
vt 0.430287 0.382308
vt 0.360482 0.382308
vt 0.375818 0.425484
vt 0.466321 0.422594
vt 0.476927 0.462881
vt 0.383761 0.470194
vt 0.476927 0.543454
vt 0.383761 0.536141
vt 0.375818 0.580851
vt 0.466321 0.583741
vt 0.455627 0.624027
vt 0.379487 0.624027
vt 0.401923 0.704600
vt 0.339137 0.704600
vt 0.367128 0.785173
vt 0.310766 0.785173
vt 0.337866 0.865746
vt 0.291087 0.865746
vt 0.182432 0.946625
vt 0.215473 0.946625
vt 0.244090 0.973717
vt 0.230653 0.973717
vt 0.248515 0.946625
vt 0.257526 0.973717
vt 0.230653 0.032688
vt 0.244090 0.032688
vt 0.221036 0.059640
vt 0.182432 0.059640
vt 0.257526 0.032688
vt 0.259641 0.059640
vt 0.202817 0.140589
vt 0.150751 0.140589
vt 0.254882 0.140589
vt 0.198040 0.221162
vt 0.141678 0.221162
vt 0.254403 0.221162
vt 0.208600 0.301735
vt 0.150778 0.301735
vt 0.266422 0.301735
vt 0.220872 0.382308
vt 0.151068 0.382308
vt 0.290677 0.382308
vt 0.104308 0.434153
vt 0.194811 0.431263
vt 0.193764 0.484821
vt 0.011262 0.492134
vt 0.285314 0.428373
vt 0.284716 0.477508
vt 0.193764 0.521514
vt 0.011262 0.514201
vt 0.284716 0.528827
vt 0.104308 0.572182
vt 0.194811 0.575072
vt 0.227207 0.624027
vt 0.151068 0.624027
vt 0.285314 0.577962
vt 0.303347 0.624027
vt 0.213565 0.704600
vt 0.150778 0.704600
vt 0.276351 0.704600
vt 0.198040 0.785173
vt 0.141678 0.785173
vt 0.254403 0.785173
vt 0.197530 0.865746
vt 0.150751 0.865746
vt 0.244309 0.865746
vt 0.744386 0.087215
vt 0.734842 0.061296
vt 0.743669 0.061100
vt 0.771352 0.087163
vt 0.733119 0.937328
vt 0.759732 0.912122
vt 0.790723 0.911761
vt 0.741065 0.937001
vt 0.767306 0.837253
vt 0.810845 0.837285
vt 0.767551 0.761708
vt 0.814415 0.762324
vt 0.772322 0.683357
vt 0.820367 0.684106
vt 0.797585 0.608380
vt 0.858114 0.609568
vt 0.808091 0.572409
vt 0.793668 0.531812
vt 0.898169 0.538401
vt 0.888657 0.575495
vt 0.793936 0.468602
vt 0.898430 0.461735
vt 0.808473 0.427692
vt 0.815111 0.391773
vt 0.882996 0.390622
vt 0.889464 0.424305
vt 0.785929 0.317568
vt 0.839156 0.316925
vt 0.766526 0.239862
vt 0.813624 0.239521
vt 0.752030 0.163489
vt 0.790888 0.163520
vt 0.679318 0.087446
vt 0.720705 0.063319
vt 0.729062 0.062859
vt 0.706465 0.087342
vt 0.731706 0.061934
vt 0.726408 0.087261
vt 0.722466 0.937584
vt 0.681402 0.913442
vt 0.713435 0.913300
vt 0.730376 0.937739
vt 0.737447 0.912795
vt 0.731730 0.937795
vt 0.657377 0.837930
vt 0.700966 0.837646
vt 0.734460 0.837276
vt 0.651343 0.761926
vt 0.698726 0.761543
vt 0.731900 0.760987
vt 0.663690 0.685405
vt 0.710511 0.684244
vt 0.737728 0.682553
vt 0.668141 0.606210
vt 0.724524 0.605696
vt 0.753165 0.606406
vt 0.626903 0.559161
vt 0.538967 0.509586
vt 0.642919 0.516322
vt 0.702043 0.561685
vt 0.720444 0.524324
vt 0.752706 0.567265
vt 0.538967 0.491165
vt 0.642919 0.484430
vt 0.720681 0.476346
vt 0.626240 0.441863
vt 0.666541 0.395045
vt 0.728939 0.395582
vt 0.701270 0.439480
vt 0.764286 0.394449
vt 0.753021 0.433639
vt 0.662781 0.315251
vt 0.713909 0.316414
vt 0.745495 0.318176
vt 0.650461 0.238188
vt 0.698163 0.238741
vt 0.730065 0.240010
vt 0.655335 0.162486
vt 0.694183 0.162780
vt 0.723559 0.163289
vt 0.916964 0.136641
vt 0.908385 0.055220
vt 0.894321 0.075173
vt 0.903140 0.152818
vt 0.940117 0.461210
vt 0.939763 0.543345
vt 0.927382 0.541783
vt 0.927700 0.462456
vt 0.941075 0.704226
vt 0.954822 0.620738
vt 0.942352 0.611946
vt 0.927913 0.693891
vt 0.906245 0.976525
vt 0.905908 0.976443
vt 0.891919 0.954825
vt 0.892009 0.954985
vt 0.905876 0.027300
vt 0.908490 0.055069
vt 0.894230 0.074880
vt 0.891550 0.047912
vt 0.942942 0.703531
vt 0.933424 0.786497
vt 0.919277 0.773481
vt 0.929515 0.692547
vt 0.936232 0.491884
vt 0.956454 0.435920
vt 0.943989 0.441894
vt 0.923753 0.492908
vt 0.922866 0.137194
vt 0.932360 0.218973
vt 0.918353 0.232527
vt 0.908651 0.153887
vt 0.956533 0.569110
vt 0.936232 0.513000
vt 0.923753 0.511968
vt 0.944149 0.563264
vt 0.907439 0.948872
vt 0.905979 0.976130
vt 0.892060 0.954221
vt 0.893477 0.928105
vt 0.906447 0.027746
vt 0.906328 0.027405
vt 0.891870 0.048115
vt 0.891904 0.048775
vt 0.928814 0.218259
vt 0.915200 0.231148
vt 0.945008 0.382048
vt 0.943299 0.420626
vt 0.930725 0.423726
vt 0.932069 0.388874
vt 0.954693 0.384416
vt 0.942094 0.393451
vt 0.906237 0.976556
vt 0.891789 0.955043
vt 0.928944 0.786284
vt 0.915461 0.773069
vt 0.906163 0.028488
vt 0.906504 0.028242
vt 0.892223 0.049732
vt 0.892123 0.050209
vt 0.948881 0.622535
vt 0.936079 0.615421
vt 0.941746 0.583749
vt 0.929294 0.580165
vt 0.907447 0.949772
vt 0.893493 0.929844
vt 0.924302 0.867719
vt 0.910069 0.851044
vt 0.939451 0.300607
vt 0.926190 0.310886
vt 0.940413 0.301503
vt 0.927041 0.312618
vt 0.915625 0.868064
vt 0.901989 0.851711
vt 0.906294 0.976305
vt 0.892106 0.954560
vt 0.930788 0.145080
vt 0.922449 0.065365
vt 0.952533 0.462732
vt 0.952144 0.542145
vt 0.954237 0.700971
vt 0.967292 0.621558
vt 0.920481 0.966144
vt 0.919898 0.966144
vt 0.920202 0.038663
vt 0.922750 0.065365
vt 0.956370 0.700971
vt 0.947570 0.780384
vt 0.948711 0.491564
vt 0.968918 0.434417
vt 0.937082 0.145080
vt 0.946367 0.224493
vt 0.968918 0.570459
vt 0.948711 0.513313
vt 0.921400 0.939580
vt 0.920990 0.038663
vt 0.920786 0.038663
vt 0.942429 0.224493
vt 0.957946 0.383319
vt 0.955874 0.423025
vt 0.967292 0.383319
vt 0.920685 0.966144
vt 0.942427 0.780384
vt 0.961683 0.621558
vt 0.954198 0.581851
vt 0.938534 0.859797
vt 0.952711 0.303906
vt 0.953786 0.303906
vt 0.929262 0.859797
vn 0.456800 0.886600 0.071900
vn -0.466600 0.880700 0.081500
vn -0.465300 0.881800 0.077400
vn -0.308600 0.947300 0.085600
vn -0.182700 0.972800 0.142700
vn -0.208900 0.949900 0.232600
vn -0.110000 0.939000 0.325900
vn -0.006100 0.928900 0.370200
vn -0.009000 0.963400 0.267800
vn 0.206000 0.952300 0.225100
vn 0.238400 0.960500 0.143500
vn 0.345400 0.934300 0.088400
vn 0.474800 0.876900 0.075000
vn 0.074000 0.945900 0.316000
vn -0.018100 0.959700 0.280500
vn 0.493500 0.867900 -0.055800
vn 0.479200 0.877300 -0.027600
vn 0.462000 0.886400 0.029400
vn -0.452600 0.888900 -0.071300
vn -0.445800 0.894500 -0.033800
vn -0.450500 0.892200 0.033700
vn -0.412800 0.902600 -0.122000
vn -0.424100 0.904000 -0.053300
vn -0.440000 0.897900 0.009300
vn -0.343800 0.927000 -0.149800
vn -0.341300 0.937700 -0.065300
vn -0.330500 0.943800 0.006500
vn -0.181200 0.969200 -0.166700
vn -0.210000 0.974600 -0.077600
vn -0.214800 0.975000 0.056400
vn -0.226200 0.953700 -0.198000
vn -0.254200 0.964400 -0.072800
vn -0.262100 0.953100 0.151500
vn -0.241200 0.951300 -0.192000
vn -0.148600 0.987500 -0.053600
vn -0.115700 0.940800 0.318500
vn -0.001000 0.982700 -0.185400
vn 0.000200 0.999800 0.017700
vn 0.001200 0.956900 0.290300
vn 0.321600 0.926800 -0.194000
vn 0.319500 0.944500 -0.076800
vn 0.125600 0.950600 0.283800
vn 0.248000 0.951000 -0.184900
vn 0.262000 0.963500 -0.054300
vn 0.261500 0.952200 0.157700
vn 0.202400 0.965900 -0.161600
vn 0.243600 0.967600 -0.066200
vn 0.261300 0.963300 0.061700
vn 0.342400 0.929100 -0.139800
vn 0.341700 0.938100 -0.057100
vn 0.344700 0.938500 0.020500
vn 0.441800 0.890600 -0.107600
vn 0.455400 0.888900 -0.050100
vn 0.463200 0.885900 0.022700
vn 0.246100 0.949800 -0.193100
vn 0.147400 0.987900 -0.048900
vn 0.105300 0.944600 0.310900
vn -0.327500 0.922700 -0.203400
vn -0.308500 0.946600 -0.093900
vn -0.171300 0.940600 0.293100
vn -0.455700 -0.887300 -0.071000
vn 0.468700 -0.879100 -0.086800
vn 0.465500 -0.881900 -0.074900
vn 0.304600 -0.949300 -0.078000
vn 0.183800 -0.972300 -0.144300
vn -0.088400 -0.995600 0.031400
vn -0.086400 -0.965400 0.245900
vn 0.006900 -0.972900 0.230900
vn 0.221300 -0.953300 0.205400
vn 0.100000 -0.995000 0.007200
vn -0.238000 -0.960800 -0.141900
vn -0.338000 -0.937800 -0.079800
vn -0.470600 -0.879600 -0.069100
vn 0.150100 -0.960300 0.235200
vn -0.452400 -0.866000 0.213100
vn -0.489800 -0.869700 0.060600
vn -0.473800 -0.880400 0.018900
vn -0.463100 -0.885700 -0.032900
vn 0.448600 -0.890800 0.072200
vn 0.443100 -0.896200 0.021800
vn 0.454400 -0.889900 -0.039500
vn 0.410300 -0.903900 0.121000
vn 0.421800 -0.905100 0.053200
vn 0.438100 -0.898900 -0.005800
vn 0.344100 -0.927800 0.144100
vn 0.339900 -0.938100 0.066400
vn 0.326900 -0.945000 0.001500
vn 0.176900 -0.970000 0.166900
vn 0.211200 -0.974400 0.077500
vn 0.215600 -0.975500 -0.044800
vn 0.092400 -0.994700 -0.045300
vn -0.118300 -0.984500 -0.129600
vn -0.205800 -0.977300 -0.050600
vn -0.391100 -0.884500 -0.254300
vn -0.259500 -0.933700 -0.246700
vn -0.231500 -0.950400 -0.207700
vn -0.007300 -0.985000 -0.172600
vn -0.011200 -0.968100 -0.250100
vn -0.003800 -0.987100 -0.159800
vn 0.243000 -0.926400 -0.287500
vn 0.280100 -0.929900 -0.238300
vn 0.292400 -0.946800 -0.134300
vn -0.107000 -0.993400 -0.040200
vn 0.117500 -0.987100 -0.108700
vn 0.205500 -0.975600 -0.077700
vn -0.199100 -0.966800 0.160400
vn -0.245100 -0.967200 0.066200
vn -0.260400 -0.964000 -0.053300
vn -0.337600 -0.931700 0.133800
vn -0.336600 -0.940200 0.052300
vn -0.337400 -0.941200 -0.016300
vn -0.443800 -0.889400 0.110200
vn -0.453400 -0.890100 0.046600
vn -0.459600 -0.887800 -0.026200
vn 0.395400 -0.884400 -0.248100
vn 0.283900 -0.926600 -0.246700
vn 0.273900 -0.944600 -0.180600
vn -0.222000 -0.927500 -0.300900
vn -0.242900 -0.935300 -0.257400
vn -0.311300 -0.938600 -0.148500
vn -0.171300 -0.842700 -0.510300
vn 0.010000 -0.962500 0.271300
vn 0.212500 -0.863100 -0.458100
vn -0.339600 -0.940500 0.011000
vn 0.129000 -0.903600 0.408600
vn 0.073000 -0.858600 0.507500
vn 0.575200 -0.764200 -0.291700
vn -0.083800 -0.829500 0.552200
vn -0.578900 -0.761000 -0.292900
vn -0.213200 -0.948600 0.234000
vn 0.323300 -0.944600 -0.056300
vn -0.255800 -0.821000 -0.510400
vn 0.134500 -0.954500 0.266100
vn 0.199000 -0.910800 -0.361800
vn -0.340100 -0.940100 -0.024900
vn 0.242800 -0.832500 -0.498100
vn 0.292800 -0.956200 -0.001300
vn -0.125100 -0.933800 0.335200
vn -0.162600 -0.718100 0.676700
vn -0.406400 -0.887800 0.216100
vn -0.005600 -0.916900 -0.399200
vn 0.293400 -0.951300 -0.095100
vn -0.180500 -0.949600 -0.256400
vn 0.185300 -0.749300 0.635700
vn -0.257300 -0.824600 -0.503900
vn 0.152800 -0.941200 0.301200
vn 0.188800 -0.947200 0.259100
vn 0.253400 -0.824400 -0.506200
vn -0.332900 -0.940000 0.073900
vn 0.141800 -0.951800 -0.271800
vn -0.150500 -0.954200 0.258500
vn -0.175700 -0.913800 -0.366100
vn -0.329400 -0.944200 -0.001200
vn 0.199500 -0.767900 0.608700
vn 0.013700 -0.898000 0.439800
vn -0.230100 -0.850000 -0.473900
vn 0.329600 -0.943400 -0.037400
vn 0.147300 -0.858100 -0.492000
vn 0.389900 0.006500 -0.920800
vn -0.000800 -0.066700 0.997800
vn 0.128100 -0.526800 -0.840300
vn -0.927200 0.373800 -0.024000
vn 0.790900 0.148600 0.593700
vn -0.134800 -0.149000 0.979600
vn 0.862000 -0.038300 -0.505500
vn 0.347400 -0.012000 0.937600
vn -0.862000 -0.036900 -0.505500
vn -0.893100 0.231200 0.386000
vn 0.934000 0.357200 -0.003300
vn 0.050300 -0.160000 -0.985800
vn 0.243200 -0.028100 0.969600
vn 0.563700 -0.410900 -0.716500
vn -0.927000 0.375000 -0.006500
vn 0.198100 -0.405600 -0.892300
vn 0.944400 0.327500 -0.029000
vn -0.474500 -0.200300 0.857200
vn 0.280300 -0.053700 0.958400
vn -0.668100 -0.086400 0.739000
vn 0.000000 0.434400 -0.900700
vn 0.940000 0.340400 -0.021900
vn -0.878900 0.234400 -0.415400
vn -0.330600 0.075500 0.940700
vn -0.199400 -0.367200 -0.908500
vn 0.544600 -0.018100 0.838500
vn 0.256000 -0.038800 0.965900
vn -0.030900 -0.221700 -0.974600
vn -0.929200 0.369400 0.013500
vn 0.888700 0.219500 -0.402500
vn -0.260100 -0.070300 0.963000
vn -0.528200 -0.438300 -0.727300
vn -0.932000 0.361600 0.026100
vn -0.097200 0.010600 0.995200
vn 0.380400 -0.039100 0.924000
vn -0.131800 -0.482300 -0.866000
vn 0.931400 0.363400 0.021400
vn -0.363100 -0.057600 -0.930000
s off
f 72/1/1 28/2/1 4/3/1 36/4/1
f 35/5/2 2/6/2 17/7/2 39/8/2
f 39/8/3 17/7/3 18/9/3 42/10/3
f 42/10/4 18/9/4 19/11/4 45/12/4
f 45/12/5 19/11/5 20/13/5 48/14/5
f 48/14/6 20/13/6 21/15/6 51/16/6
f 78/17/7 32/18/7 22/19/7 54/20/7
f 54/20/8 22/19/8 23/21/8 57/22/8
f 75/23/9 30/24/9 24/25/9 60/26/9
f 60/26/10 24/25/10 25/27/10 63/28/10
f 63/28/11 25/27/11 26/29/11 66/30/11
f 66/30/12 26/29/12 27/31/12 69/32/12
f 69/32/13 27/31/13 28/2/13 72/1/13
f 57/22/14 23/21/14 30/24/14 75/23/14
f 51/16/15 21/15/15 32/18/15 78/17/15
f 5/33/16 74/34/16 38/35/16 3/36/16
f 74/34/17 73/37/17 37/38/17 38/35/17
f 73/37/18 72/1/18 36/4/18 37/38/18
f 1/39/19 33/40/19 41/41/19 16/42/19
f 33/40/20 34/43/20 40/44/20 41/41/20
f 34/43/21 35/5/21 39/8/21 40/44/21
f 16/42/22 41/41/22 44/45/22 15/46/22
f 41/41/23 40/44/23 43/47/23 44/45/23
f 40/44/24 39/8/24 42/10/24 43/47/24
f 15/46/25 44/45/25 47/48/25 14/49/25
f 44/45/26 43/47/26 46/50/26 47/48/26
f 43/47/27 42/10/27 45/12/27 46/50/27
f 14/49/28 47/48/28 50/51/28 13/52/28
f 47/48/29 46/50/29 49/53/29 50/51/29
f 46/50/30 45/12/30 48/14/30 49/53/30
f 13/52/31 50/51/31 53/54/31 12/55/31
f 50/51/32 49/53/32 52/56/32 53/54/32
f 49/53/33 48/14/33 51/16/33 52/56/33
f 31/57/34 80/58/34 56/59/34 11/60/34
f 80/58/35 79/61/35 55/62/35 56/59/35
f 79/61/36 78/17/36 54/20/36 55/62/36
f 11/60/37 56/59/37 59/63/37 10/64/37
f 56/59/38 55/62/38 58/65/38 59/63/38
f 55/62/39 54/20/39 57/22/39 58/65/39
f 29/66/40 77/67/40 62/68/40 9/69/40
f 77/67/41 76/70/41 61/71/41 62/68/41
f 76/70/42 75/23/42 60/26/42 61/71/42
f 9/69/43 62/68/43 65/72/43 8/73/43
f 62/68/44 61/71/44 64/74/44 65/72/44
f 61/71/45 60/26/45 63/28/45 64/74/45
f 8/73/46 65/72/46 68/75/46 7/76/46
f 65/72/47 64/74/47 67/77/47 68/75/47
f 64/74/48 63/28/48 66/30/48 67/77/48
f 7/76/49 68/75/49 71/78/49 6/79/49
f 68/75/50 67/77/50 70/80/50 71/78/50
f 67/77/51 66/30/51 69/32/51 70/80/51
f 6/79/52 71/78/52 74/34/52 5/33/52
f 71/78/53 70/80/53 73/37/53 74/34/53
f 70/80/54 69/32/54 72/1/54 73/37/54
f 10/64/55 59/63/55 77/67/55 29/66/55
f 59/63/56 58/65/56 76/70/56 77/67/56
f 58/65/57 57/22/57 75/23/57 76/70/57
f 12/55/58 53/54/58 80/58/58 31/57/58
f 53/54/59 52/56/59 79/61/59 80/58/59
f 52/56/60 51/16/60 78/17/60 79/61/60
f 81/81/61 82/82/61 83/83/61 84/84/61
f 85/85/62 86/86/62 87/87/62 88/88/62
f 86/86/63 89/89/63 90/90/63 87/87/63
f 89/89/64 91/91/64 92/92/64 90/90/64
f 91/91/65 93/93/65 94/94/65 92/92/65
f 93/93/66 95/95/66 96/96/66 94/94/66
f 97/97/67 98/98/67 99/99/67 100/100/67
f 98/98/68 101/101/68 102/102/68 99/99/68
f 103/103/69 104/104/69 105/105/69 106/106/69
f 104/104/70 107/107/70 108/108/70 105/105/70
f 107/107/71 109/109/71 110/110/71 108/108/71
f 109/109/72 111/111/72 112/112/72 110/110/72
f 111/111/73 81/81/73 84/84/73 112/112/73
f 101/101/74 103/103/74 106/106/74 102/102/74
f 95/95/75 97/97/75 100/100/75 96/96/75
f 113/113/76 114/114/76 115/115/76 116/116/76
f 116/116/77 115/115/77 117/117/77 118/118/77
f 118/118/78 117/117/78 82/82/78 81/81/78
f 119/119/79 120/120/79 121/121/79 122/122/79
f 122/122/80 121/121/80 123/123/80 124/124/80
f 124/124/81 123/123/81 86/86/81 85/85/81
f 120/120/82 125/125/82 126/126/82 121/121/82
f 121/121/83 126/126/83 127/127/83 123/123/83
f 123/123/84 127/127/84 89/89/84 86/86/84
f 125/125/85 128/128/85 129/129/85 126/126/85
f 126/126/86 129/129/86 130/130/86 127/127/86
f 127/127/87 130/130/87 91/91/87 89/89/87
f 128/128/88 131/131/88 132/132/88 129/129/88
f 129/129/89 132/132/89 133/133/89 130/130/89
f 130/130/90 133/133/90 93/93/90 91/91/90
f 131/131/91 134/134/91 135/135/91 132/132/91
f 132/132/92 135/135/92 136/136/92 133/133/92
f 133/133/93 136/136/93 95/95/93 93/93/93
f 137/137/94 138/138/94 139/139/94 140/140/94
f 140/140/95 139/139/95 141/141/95 142/142/95
f 142/142/96 141/141/96 98/98/96 97/97/96
f 138/138/97 143/143/97 144/144/97 139/139/97
f 139/139/98 144/144/98 145/145/98 141/141/98
f 141/141/99 145/145/99 101/101/99 98/98/99
f 146/146/100 147/147/100 148/148/100 149/149/100
f 149/149/101 148/148/101 150/150/101 151/151/101
f 151/151/102 150/150/102 104/104/102 103/103/102
f 147/147/103 152/152/103 153/153/103 148/148/103
f 148/148/104 153/153/104 154/154/104 150/150/104
f 150/150/105 154/154/105 107/107/105 104/104/105
f 152/152/106 155/155/106 156/156/106 153/153/106
f 153/153/107 156/156/107 157/157/107 154/154/107
f 154/154/108 157/157/108 109/109/108 107/107/108
f 155/155/109 158/158/109 159/159/109 156/156/109
f 156/156/110 159/159/110 160/160/110 157/157/110
f 157/157/111 160/160/111 111/111/111 109/109/111
f 158/158/112 113/113/112 116/116/112 159/159/112
f 159/159/113 116/116/113 118/118/113 160/160/113
f 160/160/114 118/118/114 81/81/114 111/111/114
f 143/143/115 146/146/115 149/149/115 144/144/115
f 144/144/116 149/149/116 151/151/116 145/145/116
f 145/145/117 151/151/117 103/103/117 101/101/117
f 134/134/118 137/137/118 140/140/118 135/135/118
f 135/135/119 140/140/119 142/142/119 136/136/119
f 136/136/120 142/142/120 97/97/120 95/95/120
f 161/161/121 162/162/121 113/163/121 158/164/121
f 163/165/122 164/166/122 99/167/122 102/168/122
f 165/169/123 166/170/123 134/171/123 131/172/123
f 167/173/124 168/174/124 119/175/124 122/176/124
f 169/177/125 170/178/125 84/179/125 83/180/125
f 171/181/126 172/182/126 92/183/126 94/184/126
f 173/185/127 174/186/127 146/187/127 143/188/127
f 175/189/128 176/190/128 110/191/128 112/192/128
f 177/193/129 178/194/129 138/195/129 137/196/129
f 179/197/130 180/198/130 88/199/130 87/200/130
f 181/201/131 182/202/131 82/203/131 117/204/131
f 183/205/132 161/161/132 158/164/132 155/206/132
f 184/207/133 185/208/133 106/209/133 105/210/133
f 174/186/134 186/211/134 147/212/134 146/187/134
f 187/213/135 167/173/135 122/176/135 124/214/135
f 188/215/136 165/169/136 131/172/136 128/216/136
f 189/217/137 190/218/137 115/219/137 114/220/137
f 191/221/138 171/181/138 94/184/138 96/222/138
f 170/178/139 175/189/139 112/192/139 84/179/139
f 192/223/140 191/221/140 96/222/140 100/224/140
f 178/194/141 173/185/141 143/188/141 138/195/141
f 190/218/142 181/201/142 117/204/142 115/219/142
f 168/174/143 193/225/143 120/226/143 119/175/143
f 194/227/144 179/197/144 87/200/144 90/228/144
f 195/229/145 183/205/145 155/206/145 152/230/145
f 196/231/146 184/207/146 105/210/146 108/232/146
f 185/208/147 163/165/147 102/168/147 106/209/147
f 197/233/148 188/215/148 128/216/148 125/234/148
f 198/235/149 187/213/149 124/214/149 85/236/149
f 162/162/150 189/217/150 114/220/150 113/163/150
f 164/166/151 192/223/151 100/224/151 99/167/151
f 166/170/152 177/193/152 137/196/152 134/171/152
f 180/198/153 198/235/153 85/236/153 88/199/153
f 172/182/154 194/227/154 90/228/154 92/183/154
f 176/190/155 196/231/155 108/232/155 110/191/155
f 186/211/156 195/229/156 152/230/156 147/212/156
f 182/202/157 169/177/157 83/180/157 82/203/157
f 193/225/158 197/233/158 125/234/158 120/226/158
f 6/237/159 5/238/159 162/162/159 161/161/159
f 23/239/160 22/240/160 164/166/160 163/165/160
f 13/241/161 12/242/161 166/170/161 165/169/161
f 33/243/162 1/244/162 168/174/162 167/173/162
f 4/245/163 28/246/163 170/178/163 169/177/163
f 20/247/164 19/248/164 172/182/164 171/181/164
f 10/249/165 29/250/165 174/186/165 173/185/165
f 27/251/166 26/252/166 176/190/166 175/189/166
f 31/253/167 11/254/167 178/194/167 177/193/167
f 17/255/168 2/244/168 180/198/168 179/197/168
f 37/256/169 36/257/169 182/202/169 181/201/169
f 7/258/170 6/237/170 161/161/170 183/205/170
f 24/259/171 30/260/171 185/208/171 184/207/171
f 29/250/172 9/261/172 186/211/172 174/186/172
f 34/262/173 33/243/173 167/173/173 187/213/173
f 14/263/174 13/241/174 165/169/174 188/215/174
f 3/245/175 38/257/175 190/218/175 189/217/175
f 21/264/176 20/247/176 171/181/176 191/221/176
f 28/246/177 27/251/177 175/189/177 170/178/177
f 32/265/178 21/264/178 191/221/178 192/223/178
f 11/254/179 10/249/179 173/185/179 178/194/179
f 38/257/180 37/256/180 181/201/180 190/218/180
f 1/244/181 16/255/181 193/225/181 168/174/181
f 18/266/182 17/255/182 179/197/182 194/227/182
f 8/267/183 7/258/183 183/205/183 195/229/183
f 25/268/184 24/259/184 184/207/184 196/231/184
f 30/260/185 23/239/185 163/165/185 185/208/185
f 15/269/186 14/263/186 188/215/186 197/233/186
f 35/243/187 34/262/187 187/213/187 198/235/187
f 5/238/188 3/245/188 189/217/188 162/162/188
f 22/240/189 32/265/189 192/223/189 164/166/189
f 12/242/190 31/253/190 177/193/190 166/170/190
f 2/244/191 35/243/191 198/235/191 180/198/191
f 19/248/192 18/266/192 194/227/192 172/182/192
f 26/252/193 25/268/193 196/231/193 176/190/193
f 9/261/194 8/267/194 195/229/194 186/211/194
f 36/257/195 4/245/195 169/177/195 182/202/195
f 16/255/196 15/269/196 197/233/196 193/225/196
