# Blender v2.76 (sub 0) OBJ File: 'npc_cyberreaver.blend'
# www.blender.org
v 0.100156 0.000001 -0.242931
v 0.089915 0.000001 -0.292429
v 0.047245 -0.036579 -0.289016
v 0.236703 0.031749 -0.207088
v 0.182084 -0.000002 -0.248052
v 0.260598 0.031748 -0.237811
v 0.226462 -0.000002 -0.323152
v 0.161602 -0.000000 -0.369237
v 0.062606 -0.036580 -0.401667
v 0.062606 -0.036580 -0.434498
v 0.110842 -0.000000 -0.385865
v 0.241776 -0.027485 -0.000334
v 0.380077 -0.027487 0.045523
v 0.380077 -0.027488 0.086805
v 0.253771 -0.027486 0.083073
v 0.129173 -0.027488 0.057471
v 0.129173 -0.027487 -0.002488
v 0.069434 -0.047121 -0.533882
v 0.132586 -0.046030 0.533882
v 0.518276 -0.032004 0.105252
v 0.518276 -0.032004 0.238397
v 0.342526 0.063332 0.516608
v 0.383490 0.044378 0.456869
v 0.409093 0.022002 0.385182
v 0.470751 0.013033 0.385182
v 0.470751 -0.031899 0.238394
v 0.413889 -0.032004 0.105252
v 0.413889 -0.031468 0.216339
v 0.091622 -0.078889 0.120623
v 0.192325 -0.071139 0.142812
v 0.272546 -0.071139 0.168415
v 0.334582 -0.071139 0.168415
v 0.369836 0.001002 0.166708
v 0.059198 -0.081745 0.118811
v 0.069434 -0.056270 0.533882
v 0.059198 -0.069901 -0.160050
v 0.100156 -0.040582 -0.242931
v 0.089915 -0.049813 -0.292429
v 0.047245 -0.052082 -0.289016
v 0.059198 0.000192 -0.085903
v 0.236703 0.012585 -0.207088
v 0.182084 -0.019793 -0.248052
v 0.260598 0.020316 -0.237811
v 0.226462 -0.015204 -0.323152
v 0.161602 -0.039578 -0.369237
v 0.062606 -0.055011 -0.401667
v 0.062606 -0.053063 -0.434498
v 0.223048 0.018319 -0.533882
v 0.497848 -0.000000 0.105252
v 0.518276 0.000037 -0.060301
v 0.264012 0.032927 -0.505783
v 0.274253 0.019243 -0.454578
v 0.361301 0.018660 -0.420442
v 0.364715 0.006186 -0.101265
v 0.458591 0.005105 -0.116626
v 0.110842 -0.048431 -0.385865
v 0.154775 -0.018638 -0.533882
v 0.241776 0.002511 -0.101265
v 0.241776 0.000500 -0.000334
v 0.380077 -0.000001 0.045523
v 0.380077 0.000031 0.086805
v 0.253771 -0.063189 0.083073
v 0.129173 -0.063189 0.057471
v 0.129173 0.002168 -0.002488
v 0.091196 0.003044 0.004274
v 0.123390 -0.000001 -0.129728
v 0.362634 0.057450 -0.295871
v 0.361904 0.033561 -0.364136
v 0.235252 -0.019056 0.525434
v 0.133179 -0.071139 0.129780
v 0.195162 -0.071139 0.168094
v 0.135289 -0.071139 0.167846
v 0.398029 0.011457 0.323609
v 0.207269 -0.087401 0.276008
v 0.296812 -0.052535 0.289151
v 0.105732 -0.104623 0.262971
v 0.062515 -0.107350 0.253298
v 0.358621 0.012235 0.310193
v 0.315207 -0.030438 0.380677
v 0.218491 -0.073227 0.376037
v 0.116455 -0.093290 0.371141
v 0.065360 -0.096603 0.368689
v 0.371026 0.026254 0.383356
v 0.067355 -0.085475 0.449599
v 0.330274 0.003327 0.455645
v 0.124362 -0.077217 0.450910
v 0.227156 -0.051495 0.453274
v 0.072396 -0.051555 -0.186756
v 0.342668 -0.063189 0.085700
v -0.000000 -0.036580 -0.289016
v -0.100156 0.000001 -0.242931
v -0.089915 0.000001 -0.292429
v -0.047245 -0.036579 -0.289016
v -0.236703 0.031749 -0.207088
v -0.182084 -0.000002 -0.248052
v -0.000000 -0.036580 -0.434498
v -0.260598 0.031748 -0.237811
v -0.226462 -0.000002 -0.323152
v -0.161602 0.000000 -0.369237
v -0.062606 -0.036580 -0.401667
v -0.062606 -0.036580 -0.434498
v -0.110842 0.000000 -0.385865
v -0.241776 -0.027485 -0.000334
v -0.380077 -0.027487 0.045523
v -0.380077 -0.027488 0.086805
v -0.253771 -0.027486 0.083073
v -0.129173 -0.027488 0.057471
v -0.129173 -0.027487 -0.002488
v -0.069434 -0.047121 -0.533882
v -0.000000 -0.083033 0.115503
v -0.000000 -0.058393 -0.533882
v -0.000000 -0.061172 0.533882
v -0.132586 -0.046030 0.533882
v -0.518276 -0.032004 0.105252
v -0.518276 -0.032004 0.238397
v -0.342526 0.063332 0.516608
v -0.383490 0.044378 0.456869
v -0.409093 0.022002 0.385182
v -0.470751 0.013033 0.385182
v -0.470751 -0.031899 0.238394
v -0.413889 -0.032004 0.105252
v -0.413889 -0.031467 0.216339
v -0.091622 -0.078889 0.120623
v -0.192325 -0.071139 0.142812
v -0.272546 -0.071139 0.168415
v -0.334582 -0.071139 0.168415
v -0.369836 0.001002 0.166708
v -0.059198 -0.081745 0.118811
v -0.069434 -0.056270 0.533882
v -0.000000 -0.074428 -0.160050
v -0.059198 -0.069901 -0.160050
v -0.000000 -0.053035 -0.289016
v -0.100156 -0.040582 -0.242931
v -0.089915 -0.049813 -0.292429
v -0.047245 -0.052082 -0.289016
v -0.059198 0.000192 -0.085903
v -0.236703 0.012585 -0.207088
v -0.182084 -0.019793 -0.248052
v -0.000000 -0.059978 -0.434498
v -0.260598 0.020316 -0.237811
v -0.226462 -0.015203 -0.323152
v -0.161602 -0.039578 -0.369237
v -0.062606 -0.055011 -0.401667
v -0.062606 -0.053063 -0.434498
v -0.223048 0.018319 -0.533882
v -0.497848 0.000000 0.105252
v -0.518276 0.000037 -0.060301
v -0.264012 0.032927 -0.505783
v -0.274253 0.019243 -0.454578
v -0.361301 0.018660 -0.420442
v -0.364715 0.006186 -0.101265
v -0.458591 0.005105 -0.116626
v -0.110842 -0.048431 -0.385865
v -0.154775 -0.018638 -0.533882
v -0.241776 0.002511 -0.101265
v -0.241776 0.000500 -0.000334
v -0.380077 -0.000001 0.045523
v -0.380077 0.000031 0.086805
v -0.253771 -0.063189 0.083073
v -0.129173 -0.063189 0.057471
v -0.129173 0.002168 -0.002488
v -0.091196 0.003044 0.004274
v -0.123390 -0.000001 -0.129728
v -0.362634 0.057450 -0.295871
v -0.361904 0.033561 -0.364136
v -0.235252 -0.019056 0.525434
v -0.133179 -0.071139 0.129780
v -0.195162 -0.071139 0.168094
v -0.135289 -0.071139 0.167846
v -0.398029 0.011458 0.323609
v -0.207269 -0.087401 0.276008
v -0.296812 -0.052535 0.289151
v -0.105732 -0.104623 0.262971
v -0.062515 -0.107350 0.253298
v -0.358621 0.012235 0.310193
v -0.000000 -0.108594 0.246075
v -0.315207 -0.030438 0.380677
v -0.218491 -0.073227 0.376037
v -0.116455 -0.093290 0.371141
v -0.065360 -0.096603 0.368689
v -0.371026 0.026254 0.383356
v -0.000000 -0.096974 0.365553
v -0.067355 -0.085475 0.449599
v -0.330274 0.003327 0.455645
v -0.124362 -0.077217 0.450910
v -0.227156 -0.051495 0.453274
v -0.000000 -0.098675 0.448050
v -0.000000 -0.060860 -0.188202
v -0.072396 -0.051555 -0.186756
v -0.342668 -0.063189 0.085700
vt 0.221494 0.348128
vt 0.231891 0.412947
vt 0.192164 0.391187
vt 0.320025 0.566508
vt 0.266971 0.589691
vt 0.260706 0.545029
vt 0.154067 0.395126
vt 0.152016 0.316737
vt 0.179039 0.332966
vt 0.199725 0.340354
vt 0.178576 0.315276
vt 0.174110 0.394023
vt 0.197207 0.417619
vt 0.265344 0.416632
vt 0.255640 0.433744
vt 0.249659 0.371445
vt 0.212905 0.546498
vt 0.213751 0.578805
vt 0.320607 0.588753
vt 0.769150 0.357405
vt 0.826032 0.332159
vt 0.827304 0.368925
vt 0.704420 0.599450
vt 0.707722 0.671837
vt 0.681099 0.669405
vt 0.764731 0.243938
vt 0.782506 0.258122
vt 0.740984 0.334088
vt 0.898987 0.581425
vt 0.854702 0.583863
vt 0.890320 0.581902
vt 0.741404 0.821386
vt 0.736746 0.776871
vt 0.780388 0.775745
vt 0.714613 0.822861
vt 0.712543 0.777496
vt 0.700489 0.449193
vt 0.701534 0.489145
vt 0.693600 0.379983
vt 0.705712 0.434495
vt 0.674978 0.435406
vt 0.728149 0.464033
vt 0.787572 0.285474
vt 0.670106 0.249146
vt 0.699562 0.247525
vt 0.698066 0.301235
vt 0.735767 0.245533
vt 0.719215 0.326313
vt 0.778774 0.476605
vt 0.780197 0.530989
vt 0.840097 0.574713
vt 0.839515 0.552468
vt 0.870539 0.463266
vt 0.896653 0.492222
vt 0.732396 0.532458
vt 0.716380 0.536988
vt 0.733241 0.564765
vt 0.775130 0.419704
vt 0.824983 0.301835
vt 0.830930 0.473735
vt 0.830225 0.807177
vt 0.824168 0.774615
vt 0.846762 0.774032
vt 0.784840 0.814438
vt 0.840438 0.734712
vt 0.856613 0.734808
vt 0.851051 0.701889
vt 0.836879 0.618005
vt 0.856268 0.643719
vt 0.795629 0.621196
vt 0.786461 0.575651
vt 0.824212 0.574991
vt 0.718201 0.599670
vt 0.735960 0.603633
vt 0.762795 0.622830
vt 0.761235 0.609274
vt 0.737391 0.624094
vt 0.769453 0.680694
vt 0.834144 0.695580
vt 0.821947 0.619748
vt 0.807626 0.685685
vt 0.710556 0.733946
vt 0.682784 0.733783
vt 0.775623 0.734330
vt 0.726193 0.676041
vt 0.683946 0.778234
vt 0.816720 0.734573
vt 0.732267 0.734074
vt 0.685156 0.824482
vt 0.679259 0.599050
vt 0.751382 0.398907
vt 0.716697 0.403579
vt 0.880702 0.654275
vt 0.882771 0.733368
vt 0.784835 0.402591
vt 0.673557 0.381085
vt 0.711655 0.377147
vt 0.671507 0.302696
vt 0.698529 0.318926
vt 0.675375 0.450575
vt 0.900863 0.653167
vn -0.000000 -1.000000 -0.000000
vn 0.572300 -0.810000 0.128200
vn 0.652400 -0.752700 0.089000
vn 0.332900 -0.906700 0.258900
vn 0.344100 -0.916600 0.203400
vn 0.402000 -0.865600 0.298600
vn 0.041200 -0.981300 -0.187900
vn 0.424600 -0.892000 -0.155200
vn -0.000000 0.000000 -1.000000
vn 0.222700 -0.919600 0.323600
vn 0.128500 -0.938000 0.321900
vn 1.000000 -0.000000 -0.000000
vn 0.128000 -0.991400 -0.026400
vn 0.423000 -0.658500 0.622500
vn 0.406100 -0.909300 -0.090600
vn 0.160100 -0.985900 -0.048000
vn 0.222400 -0.966400 -0.128500
vn 0.472000 -0.871900 -0.130500
vn 0.026000 -0.999500 -0.019900
vn 0.143300 -0.375900 -0.915500
vn -0.037800 -0.998000 -0.049700
vn -0.016400 -0.999200 0.037400
vn 0.748900 -0.615300 -0.246300
vn -0.356100 -0.700700 -0.618200
vn 0.044400 -0.994300 -0.096800
vn -0.015100 -0.999700 0.017700
vn 0.390800 -0.890900 0.231600
vn 0.029700 -0.994900 -0.096100
vn 0.081700 -0.971000 -0.224800
vn 0.500400 -0.665200 0.554200
vn 0.437700 -0.837400 0.327300
vn -0.119400 -0.959100 0.256700
vn -0.702800 -0.690200 0.172300
vn -0.663600 -0.744200 -0.076000
vn 0.002800 -0.995600 -0.093400
vn 0.207200 -0.971100 -0.118300
vn 0.031800 -0.994500 -0.099600
vn 0.000600 -0.988800 -0.149100
vn 0.096600 -0.977300 -0.188500
vn 0.894600 -0.434700 0.103900
vn 0.000000 -0.988300 0.152300
vn 0.185500 -0.982600 -0.010300
vn 0.001200 -0.995700 0.092700
vn 0.349400 -0.932400 0.092900
vn 0.042300 -0.994900 0.091600
vn -0.087900 -0.975500 0.201800
vn 0.187800 -0.973700 0.129300
vn 0.719500 -0.694100 0.023000
vn 0.155600 -0.983900 0.087700
vn 0.387200 -0.897900 0.209200
vn 0.057700 -0.989200 0.134600
vn 0.066600 -0.943300 0.325200
vn 0.697800 -0.695200 0.172900
vn 0.181700 -0.967300 0.176900
vn 0.024100 -0.998800 -0.042400
vn 0.252500 -0.926100 0.280200
vn 0.119000 -0.844900 -0.521600
vn -0.000000 -1.000000 0.004800
vn -0.221500 -0.932500 0.285400
vn -0.142600 -0.926000 0.349500
vn 0.022400 -0.993800 -0.109200
vn 0.854000 -0.507300 0.115600
vn 0.024400 -0.993600 -0.110600
vn 0.431200 -0.881100 0.194200
vn 0.032100 -0.980900 -0.192000
vn 0.264400 -0.890400 0.370600
vn 0.150800 -0.930200 0.334700
vn 0.020100 -0.996800 -0.077400
vn 0.065900 -0.983300 0.169700
vn 0.261000 -0.963500 -0.059200
vn 0.751100 -0.655400 -0.079100
vn 0.255500 -0.920100 -0.297000
vn 0.109800 -0.993800 -0.015800
vn 0.153700 -0.986400 -0.058500
vn 0.316400 -0.948000 -0.034900
vn 0.212100 -0.968300 -0.131900
vn 0.000100 -1.000000 -0.000200
vn 0.010700 -0.999000 -0.043200
vn -0.000400 -1.000000 0.000800
vn -0.018100 -0.999000 -0.040200
vn 0.029900 -0.999400 -0.019900
vn 0.096500 -0.977900 -0.185700
vn -0.145200 -0.668800 -0.729100
vn 0.008400 -0.999800 0.016700
vn 0.094300 -0.980300 -0.173400
vn 0.201400 -0.946700 -0.251500
vn 0.543200 -0.650400 0.531000
vn -0.596100 -0.802900 0.003900
vn 0.000000 -0.995400 -0.095700
vn 0.352600 -0.932900 0.072900
vn 0.103500 -0.976900 -0.186900
vn -0.045000 -0.996200 0.074500
vn 0.636300 -0.707300 0.308000
vn 0.377600 -0.903900 -0.200800
vn 0.194700 -0.942600 -0.271300
vn 0.008600 -0.995300 0.096800
vn 0.395000 -0.908000 0.139800
vn 0.059700 -0.993400 0.098200
vn -0.117900 -0.975000 0.188200
vn 0.006700 -0.999800 -0.020600
vn 0.712200 -0.701900 0.013700
vn 0.186200 -0.975500 0.117300
vn 0.443700 -0.847200 0.292400
vn 0.136800 -0.973600 0.182600
vn 0.168000 -0.903300 0.394700
vn 0.606900 -0.789500 0.091700
vn 0.230500 -0.943100 0.239500
vn 0.076200 -0.996600 -0.031100
vn 0.613600 -0.774900 0.151900
vn 0.307200 -0.902000 0.303300
vn 0.068700 -0.898700 -0.433100
vn -0.002200 -1.000000 0.000000
vn -0.006900 -1.000000 -0.001700
vn -0.141300 -0.971200 0.191700
vn 0.897900 -0.437700 0.045700
vn -0.572300 -0.810000 0.128200
vn -0.652400 -0.752700 0.089000
vn -0.332900 -0.906700 0.258900
vn -0.344100 -0.916600 0.203400
vn -0.402000 -0.865600 0.298600
vn -0.041200 -0.981300 -0.187900
vn -0.424600 -0.892000 -0.155200
vn -0.222700 -0.919600 0.323600
vn -0.128500 -0.938000 0.321900
vn -1.000000 0.000000 -0.000000
vn -0.128000 -0.991400 -0.026400
vn -0.423000 -0.658500 0.622500
vn -0.406100 -0.909300 -0.090600
vn -0.160100 -0.985900 -0.048000
vn -0.222400 -0.966400 -0.128500
vn -0.472000 -0.871900 -0.130500
vn -0.026000 -0.999500 -0.019900
vn -0.143300 -0.375900 -0.915500
vn 0.037800 -0.998000 -0.049700
vn 0.016400 -0.999200 0.037400
vn -0.748900 -0.615300 -0.246300
vn 0.356100 -0.700700 -0.618200
vn -0.044400 -0.994300 -0.096800
vn 0.015100 -0.999700 0.017700
vn -0.390800 -0.890900 0.231600
vn -0.029700 -0.994900 -0.096100
vn -0.081700 -0.971000 -0.224800
vn -0.500400 -0.665200 0.554200
vn -0.437700 -0.837400 0.327300
vn 0.119400 -0.959100 0.256700
vn 0.702800 -0.690200 0.172300
vn 0.663600 -0.744200 -0.076000
vn -0.002800 -0.995600 -0.093400
vn -0.207200 -0.971100 -0.118300
vn -0.031800 -0.994500 -0.099600
vn -0.000600 -0.988800 -0.149100
vn -0.096600 -0.977300 -0.188500
vn -0.894600 -0.434700 0.103900
vn -0.185500 -0.982600 -0.010300
vn -0.001200 -0.995700 0.092700
vn -0.349400 -0.932400 0.092900
vn -0.042300 -0.994900 0.091600
vn 0.087900 -0.975500 0.201800
vn -0.187800 -0.973700 0.129300
vn -0.719500 -0.694100 0.023000
vn -0.155600 -0.983900 0.087700
vn -0.387200 -0.897900 0.209200
vn -0.057700 -0.989200 0.134600
vn -0.066600 -0.943300 0.325200
vn -0.697800 -0.695200 0.172900
vn -0.181700 -0.967300 0.176900
vn -0.024100 -0.998800 -0.042400
vn -0.252500 -0.926100 0.280200
vn -0.119000 -0.844900 -0.521600
vn 0.221500 -0.932500 0.285400
vn 0.142600 -0.926000 0.349500
vn -0.022400 -0.993800 -0.109200
vn -0.854000 -0.507300 0.115600
vn -0.024400 -0.993600 -0.110600
vn -0.431200 -0.881100 0.194200
vn -0.032100 -0.980900 -0.192000
vn -0.264400 -0.890400 0.370600
vn -0.150800 -0.930200 0.334700
vn -0.020100 -0.996800 -0.077400
vn -0.065900 -0.983300 0.169700
vn -0.261000 -0.963500 -0.059200
vn -0.751100 -0.655400 -0.079100
vn -0.255500 -0.920100 -0.297000
vn -0.109800 -0.993800 -0.015800
vn -0.153700 -0.986400 -0.058500
vn -0.316400 -0.948000 -0.034900
vn -0.212100 -0.968300 -0.131900
vn -0.000100 -1.000000 -0.000200
vn -0.010700 -0.999000 -0.043200
vn 0.000400 -1.000000 0.000800
vn 0.018100 -0.999000 -0.040200
vn -0.029900 -0.999400 -0.019900
vn -0.096500 -0.977900 -0.185700
vn 0.145200 -0.668800 -0.729100
vn -0.008400 -0.999800 0.016700
vn -0.094300 -0.980300 -0.173400
vn -0.201400 -0.946700 -0.251500
vn -0.543200 -0.650400 0.531000
vn 0.596100 -0.802900 0.003900
vn -0.352600 -0.932900 0.072900
vn -0.103500 -0.976900 -0.186900
vn 0.045000 -0.996200 0.074500
vn -0.636300 -0.707300 0.308000
vn -0.377600 -0.903900 -0.200800
vn -0.194700 -0.942600 -0.271300
vn -0.008600 -0.995300 0.096800
vn -0.395000 -0.908000 0.139800
vn -0.059700 -0.993400 0.098200
vn 0.117900 -0.975000 0.188200
vn -0.006700 -0.999800 -0.020600
vn -0.712200 -0.701900 0.013700
vn -0.186200 -0.975500 0.117300
vn -0.443700 -0.847200 0.292400
vn -0.136800 -0.973600 0.182600
vn -0.168000 -0.903300 0.394700
vn -0.606900 -0.789500 0.091700
vn -0.230500 -0.943100 0.239500
vn -0.076200 -0.996600 -0.031100
vn -0.613600 -0.774900 0.151900
vn -0.307200 -0.902000 0.303300
vn -0.068700 -0.898700 -0.433100
vn 0.002200 -1.000000 0.000000
vn 0.006900 -1.000000 -0.001700
vn 0.141300 -0.971200 0.191700
vn -0.897900 -0.437700 0.045700
s off
f 8/1/1 5/2/1 2/3/1
f 13/4/1 15/5/1 12/6/1
f 90/7/1 96/8/1 9/9/1
f 9/9/2 11/10/2 2/3/2
f 96/8/1 10/11/1 9/9/1
f 2/3/3 3/12/3 9/9/3
f 5/2/1 1/13/1 2/3/1
f 6/14/4 4/15/4 5/2/4
f 8/1/1 7/16/1 5/2/1
f 90/7/1 9/9/1 3/12/1
f 6/14/5 5/2/5 7/16/5
f 2/3/1 11/10/1 8/1/1
f 17/17/1 12/6/1 16/18/1
f 13/4/1 14/19/1 15/5/1
f 15/5/1 16/18/1 12/6/1
f 44/20/6 68/21/6 67/22/6
f 34/23/7 77/24/7 176/25/7
f 48/26/8 51/27/8 45/28/8
f 20/29/9 27/30/9 49/31/9
f 19/32/10 86/33/10 87/34/10
f 35/35/11 84/36/11 86/33/11
f 36/37/12 40/38/12 34/23/12
f 39/39/13 88/40/13 188/41/13
f 66/42/14 40/38/14 36/37/14
f 52/43/15 44/20/15 45/28/15
f 111/44/16 18/45/16 47/46/16
f 57/47/17 56/48/17 47/46/17
f 57/47/18 48/26/18 45/28/18
f 58/49/19 59/50/19 66/42/19
f 27/30/20 61/51/20 49/31/20
f 60/52/21 55/53/21 50/54/21
f 40/38/22 64/55/22 65/56/22
f 34/23/23 40/38/23 65/56/23
f 65/56/24 63/57/24 34/23/24
f 41/58/25 58/49/25 66/42/25
f 66/42/26 59/50/26 64/55/26
f 68/21/27 44/20/27 53/59/27
f 54/60/28 58/49/28 41/58/28
f 44/20/29 52/43/29 53/59/29
f 22/61/30 85/62/30 23/63/30
f 69/64/31 87/34/31 85/62/31
f 23/63/32 83/65/32 24/66/32
f 73/67/33 33/68/33 28/69/33
f 33/68/34 61/51/34 27/30/34
f 31/70/35 62/71/35 89/72/35
f 29/73/36 63/57/36 70/74/36
f 31/70/1 71/75/1 30/76/1
f 30/76/37 62/71/37 31/70/37
f 72/77/1 70/74/1 30/76/1
f 74/78/38 71/75/38 31/70/38
f 77/24/39 34/23/39 29/73/39
f 78/79/40 32/80/40 33/68/40
f 75/81/41 31/70/41 32/80/41
f 29/73/42 70/74/42 72/77/42
f 77/24/43 82/82/43 182/83/43
f 80/84/44 74/78/44 75/81/44
f 82/82/45 77/24/45 76/85/45
f 83/65/46 78/79/46 73/67/46
f 82/82/47 84/36/47 187/86/47
f 79/87/48 75/81/48 78/79/48
f 81/88/49 76/85/49 74/78/49
f 87/34/50 80/84/50 79/87/50
f 84/36/51 82/82/51 81/88/51
f 84/36/52 35/35/52 112/89/52
f 85/62/53 79/87/53 83/65/53
f 86/33/54 81/88/54 80/84/54
f 36/37/55 34/23/55 110/90/55
f 42/91/56 66/42/56 37/92/56
f 188/41/57 88/40/57 36/37/57
f 28/69/58 27/30/58 20/29/58
f 73/67/59 26/93/59 25/94/59
f 26/93/60 73/67/60 28/69/60
f 63/57/61 62/71/61 30/76/61
f 89/72/62 61/51/62 33/68/62
f 70/74/63 63/57/63 30/76/63
f 43/95/64 44/20/64 67/22/64
f 110/90/65 34/23/65 176/25/65
f 69/64/66 19/32/66 87/34/66
f 19/32/67 35/35/67 86/33/67
f 188/41/68 132/96/68 39/39/68
f 39/39/69 38/97/69 37/92/69
f 37/92/70 88/40/70 39/39/70
f 88/40/71 66/42/71 36/37/71
f 51/27/72 52/43/72 45/28/72
f 139/98/73 111/44/73 47/46/73
f 46/99/74 47/46/74 56/48/74
f 18/45/75 57/47/75 47/46/75
f 56/48/76 57/47/76 45/28/76
f 50/54/77 49/31/77 60/52/77
f 60/52/78 59/50/78 54/60/78
f 49/31/79 61/51/79 60/52/79
f 54/60/80 55/53/80 60/52/80
f 59/50/81 58/49/81 54/60/81
f 29/73/82 34/23/82 63/57/82
f 65/56/83 64/55/83 63/57/83
f 40/38/84 66/42/84 64/55/84
f 41/58/85 43/95/85 54/60/85
f 67/22/86 54/60/86 43/95/86
f 22/61/87 69/64/87 85/62/87
f 28/69/88 33/68/88 27/30/88
f 32/80/89 31/70/89 89/72/89
f 71/75/1 72/77/1 30/76/1
f 75/81/90 74/78/90 31/70/90
f 76/85/91 77/24/91 29/73/91
f 73/67/92 78/79/92 33/68/92
f 78/79/93 75/81/93 32/80/93
f 71/75/38 74/78/38 72/77/38
f 76/85/94 29/73/94 72/77/94
f 72/77/95 74/78/95 76/85/95
f 176/25/96 77/24/96 182/83/96
f 79/87/97 80/84/97 75/81/97
f 81/88/98 82/82/98 76/85/98
f 24/66/99 83/65/99 73/67/99
f 182/83/100 82/82/100 187/86/100
f 83/65/101 79/87/101 78/79/101
f 80/84/102 81/88/102 74/78/102
f 85/62/103 87/34/103 79/87/103
f 86/33/104 84/36/104 81/88/104
f 187/86/105 84/36/105 112/89/105
f 23/63/106 85/62/106 83/65/106
f 87/34/107 86/33/107 80/84/107
f 130/100/108 36/37/108 110/90/108
f 88/40/109 37/92/109 66/42/109
f 42/91/110 41/58/110 66/42/110
f 130/100/111 188/41/111 36/37/111
f 20/29/112 21/101/112 26/93/112
f 26/93/113 28/69/113 20/29/113
f 24/66/114 73/67/114 25/94/114
f 32/80/115 89/72/115 33/68/115
f 99/1/1 92/3/1 95/2/1
f 104/4/1 103/6/1 106/5/1
f 90/7/1 100/9/1 96/8/1
f 100/9/116 92/3/116 102/10/116
f 96/8/1 100/9/1 101/11/1
f 92/3/117 100/9/117 93/12/117
f 95/2/1 92/3/1 91/13/1
f 97/14/118 95/2/118 94/15/118
f 99/1/1 95/2/1 98/16/1
f 90/7/1 93/12/1 100/9/1
f 97/14/119 98/16/119 95/2/119
f 92/3/1 99/1/1 102/10/1
f 108/17/1 107/18/1 103/6/1
f 104/4/1 106/5/1 105/19/1
f 106/5/1 103/6/1 107/18/1
f 141/20/120 164/22/120 165/21/120
f 128/23/121 176/25/121 174/24/121
f 145/26/122 142/28/122 148/27/122
f 114/29/9 146/31/9 121/30/9
f 113/32/123 186/34/123 185/33/123
f 129/35/124 185/33/124 183/36/124
f 131/37/125 128/23/125 136/38/125
f 135/39/126 188/41/126 189/40/126
f 163/42/127 131/37/127 136/38/127
f 149/43/128 142/28/128 141/20/128
f 111/44/129 144/46/129 109/45/129
f 154/47/130 144/46/130 153/48/130
f 154/47/131 142/28/131 145/26/131
f 155/49/132 163/42/132 156/50/132
f 121/30/133 146/31/133 158/51/133
f 157/52/134 147/54/134 152/53/134
f 136/38/135 162/56/135 161/55/135
f 128/23/136 162/56/136 136/38/136
f 162/56/137 128/23/137 160/57/137
f 137/58/138 163/42/138 155/49/138
f 163/42/139 161/55/139 156/50/139
f 165/21/140 150/59/140 141/20/140
f 151/60/141 137/58/141 155/49/141
f 141/20/142 150/59/142 149/43/142
f 116/61/143 117/63/143 184/62/143
f 166/64/144 184/62/144 186/34/144
f 117/63/145 118/66/145 181/65/145
f 170/67/146 122/69/146 127/68/146
f 127/68/147 121/30/147 158/51/147
f 125/70/148 190/72/148 159/71/148
f 123/73/149 167/74/149 160/57/149
f 125/70/1 124/76/1 168/75/1
f 124/76/150 125/70/150 159/71/150
f 169/77/1 124/76/1 167/74/1
f 171/78/151 125/70/151 168/75/151
f 174/24/152 123/73/152 128/23/152
f 175/79/153 127/68/153 126/80/153
f 172/81/41 126/80/41 125/70/41
f 123/73/154 169/77/154 167/74/154
f 174/24/155 182/83/155 180/82/155
f 178/84/156 172/81/156 171/78/156
f 180/82/157 173/85/157 174/24/157
f 181/65/158 170/67/158 175/79/158
f 180/82/159 187/86/159 183/36/159
f 177/87/160 175/79/160 172/81/160
f 179/88/161 171/78/161 173/85/161
f 186/34/162 177/87/162 178/84/162
f 183/36/163 179/88/163 180/82/163
f 183/36/164 112/89/164 129/35/164
f 184/62/165 181/65/165 177/87/165
f 185/33/166 178/84/166 179/88/166
f 131/37/167 110/90/167 128/23/167
f 138/91/168 133/92/168 163/42/168
f 188/41/169 131/37/169 189/40/169
f 122/69/58 114/29/58 121/30/58
f 170/67/170 119/94/170 120/93/170
f 120/93/171 122/69/171 170/67/171
f 160/57/172 124/76/172 159/71/172
f 190/72/173 127/68/173 158/51/173
f 167/74/174 124/76/174 160/57/174
f 140/95/175 164/22/175 141/20/175
f 110/90/176 176/25/176 128/23/176
f 166/64/177 186/34/177 113/32/177
f 113/32/178 185/33/178 129/35/178
f 188/41/179 135/39/179 132/96/179
f 135/39/180 133/92/180 134/97/180
f 133/92/181 135/39/181 189/40/181
f 189/40/182 131/37/182 163/42/182
f 148/27/183 142/28/183 149/43/183
f 139/98/184 144/46/184 111/44/184
f 143/99/185 153/48/185 144/46/185
f 109/45/186 144/46/186 154/47/186
f 153/48/187 142/28/187 154/47/187
f 147/54/188 157/52/188 146/31/188
f 157/52/189 151/60/189 156/50/189
f 146/31/190 157/52/190 158/51/190
f 151/60/191 157/52/191 152/53/191
f 156/50/192 151/60/192 155/49/192
f 123/73/193 160/57/193 128/23/193
f 162/56/194 160/57/194 161/55/194
f 136/38/195 161/55/195 163/42/195
f 137/58/196 151/60/196 140/95/196
f 164/22/197 140/95/197 151/60/197
f 116/61/198 184/62/198 166/64/198
f 122/69/199 121/30/199 127/68/199
f 126/80/89 190/72/89 125/70/89
f 168/75/1 124/76/1 169/77/1
f 172/81/200 125/70/200 171/78/200
f 173/85/201 123/73/201 174/24/201
f 170/67/202 127/68/202 175/79/202
f 175/79/203 126/80/203 172/81/203
f 168/75/151 169/77/151 171/78/151
f 173/85/204 169/77/204 123/73/204
f 169/77/205 173/85/205 171/78/205
f 176/25/206 182/83/206 174/24/206
f 177/87/207 172/81/207 178/84/207
f 179/88/208 173/85/208 180/82/208
f 118/66/209 170/67/209 181/65/209
f 182/83/210 187/86/210 180/82/210
f 181/65/211 175/79/211 177/87/211
f 178/84/212 171/78/212 179/88/212
f 184/62/213 177/87/213 186/34/213
f 185/33/214 179/88/214 183/36/214
f 187/86/215 112/89/215 183/36/215
f 117/63/216 181/65/216 184/62/216
f 186/34/217 178/84/217 185/33/217
f 130/100/218 110/90/218 131/37/218
f 189/40/219 163/42/219 133/92/219
f 138/91/220 163/42/220 137/58/220
f 130/100/221 131/37/221 188/41/221
f 114/29/222 120/93/222 115/101/222
f 120/93/223 114/29/223 122/69/223
f 118/66/224 119/94/224 170/67/224
f 126/80/225 127/68/225 190/72/225
