v -0.060044 -0.172873 0.006006
v 0.126255 -0.129667 0.027701
v -0.000369 -0.080929 0.164214
v -0.163594 -0.027232 0.077500
v -0.137845 -0.042785 -0.112606
v 0.041290 -0.106092 -0.143381
v 0.137845 0.042677 0.112606
v -0.041290 0.105985 0.143381
v -0.126255 0.129560 -0.027701
v 0.000369 0.080822 -0.164214
v 0.163594 0.027125 -0.077500
v 0.060044 0.172766 -0.006006
vt 0.386864 0.162439
vt 0.420370 0.171564
vt 0.404543 0.178763
vt 0.457854 0.162439
vt 0.437234 0.176672
vt 0.391864 0.186615
vt 0.379156 0.185491
vt 0.450146 0.185491
vt 0.427359 0.193267
vt 0.414651 0.194392
vt 0.401739 0.203211
vt 0.384875 0.208318
vt 0.440037 0.201119
vt 0.455865 0.208318
vt 0.422359 0.217443
vn 0.150900 -0.878400 0.453600
vn 0.246400 -0.936000 -0.251300
vn -0.513300 -0.643600 0.567700
vn -0.828400 -0.556200 -0.066700
vn -0.358900 -0.736900 -0.572900
vn 0.758800 -0.477700 -0.442700
vn 0.604400 -0.384400 0.697800
vn -0.470300 -0.004600 0.882500
vn -0.980100 0.136800 -0.143900
vn -0.220400 -0.155600 -0.962900
vn 0.980100 -0.136800 0.143900
vn 0.220400 0.155600 0.962900
vn -0.758800 0.477700 0.442700
vn -0.604400 0.384400 -0.697800
vn 0.470300 0.004600 -0.882500
vn 0.828400 0.556200 0.066700
vn 0.358900 0.736900 0.572900
vn -0.246400 0.936000 0.251300
vn -0.150900 0.878400 -0.453600
vn 0.513300 0.643600 -0.567700
s off
f 1/1/1 2/2/1 3/3/1
f 2/2/2 1/4/2 6/5/2
f 1/1/3 3/3/3 4/6/3
f 1/1/4 4/6/4 5/7/4
f 1/4/5 5/8/5 6/5/5
f 2/2/6 6/5/6 11/9/6
f 3/3/7 2/2/7 7/10/7
f 4/6/8 3/3/8 8/11/8
f 5/7/9 4/6/9 9/12/9
f 6/5/10 5/8/10 10/13/10
f 2/2/11 11/9/11 7/10/11
f 3/3/12 7/10/12 8/11/12
f 4/6/13 8/11/13 9/12/13
f 5/8/14 9/14/14 10/13/14
f 6/5/15 10/13/15 11/9/15
f 7/10/16 11/9/16 12/15/16
f 8/11/17 7/10/17 12/15/17
f 9/14/18 8/11/18 12/15/18
f 10/13/19 9/14/19 12/15/19
f 11/9/20 10/13/20 12/15/20
v -0.110941 -0.217151 0.117123
v 0.170500 -0.192122 0.084824
v 0.032752 -0.023186 0.267483
v -0.218826 0.043545 0.152876
v -0.236557 -0.084152 -0.100616
v 0.004059 -0.229800 -0.142672
v 0.236557 0.084044 0.100616
v -0.004059 0.229693 0.142672
v -0.170500 0.192014 -0.084824
v -0.032752 0.023079 -0.267483
v 0.218826 -0.043653 -0.152876
v 0.110941 0.217043 -0.117123
vt 0.436894 0.681291
vt 0.490014 0.689372
vt 0.461930 0.729426
vt 0.615623 0.681291
vt 0.547019 0.676559
vt 0.431128 0.743508
vt 0.402342 0.716310
vt 0.581071 0.716310
vt 0.520492 0.725087
vt 0.491707 0.752285
vt 0.457655 0.792036
vt 0.400650 0.779223
vt 0.551294 0.739169
vt 0.372565 0.739169
vt 0.526258 0.787304
vt 0.579379 0.779223
vn 0.143200 -0.670400 0.728000
vn 0.098700 -0.990900 0.091900
vn -0.460600 -0.304900 0.833600
vn -0.878300 -0.399500 0.262700
vn -0.532600 -0.823400 -0.195700
vn 0.610100 -0.721800 -0.326800
vn 0.682100 -0.203300 0.702400
vn -0.294900 0.388100 0.873200
vn -0.970700 0.235100 -0.050500
vn -0.411400 -0.450900 -0.792200
vn 0.970700 -0.235100 0.050500
vn 0.411400 0.450900 0.792200
vn -0.610100 0.721800 0.326800
vn -0.682100 0.203300 -0.702400
vn 0.294900 -0.388100 -0.873200
vn 0.878300 0.399500 -0.262700
vn 0.532600 0.823400 0.195700
vn -0.098700 0.990900 -0.091900
vn -0.143200 0.670400 -0.728000
vn 0.460600 0.304900 -0.833600
s off
f 13/16/21 14/17/21 15/18/21
f 14/17/22 13/19/22 18/20/22
f 13/16/23 15/18/23 16/21/23
f 13/16/24 16/21/24 17/22/24
f 13/19/25 17/23/25 18/20/25
f 14/17/26 18/20/26 23/24/26
f 15/18/27 14/17/27 19/25/27
f 16/21/28 15/18/28 20/26/28
f 17/22/29 16/21/29 21/27/29
f 18/20/30 17/23/30 22/28/30
f 14/17/31 23/24/31 19/25/31
f 15/18/32 19/25/32 20/26/32
f 16/21/33 20/26/33 21/27/33
f 17/22/34 21/27/34 22/29/34
f 18/20/35 22/28/35 23/24/35
f 19/25/36 23/24/36 24/30/36
f 20/26/37 19/25/37 24/30/37
f 21/31/38 20/26/38 24/30/38
f 22/28/39 21/31/39 24/30/39
f 23/24/40 22/28/40 24/30/40
v 0.000000 -0.190482 0.000000
v 0.137800 -0.085212 0.100117
v -0.052634 -0.085212 0.161993
v -0.170332 -0.085212 0.000000
v -0.052634 -0.085212 -0.161993
v 0.137800 -0.085212 -0.100117
v 0.052634 0.085121 0.161993
v -0.137800 0.085121 0.100117
v -0.137800 0.085121 -0.100117
v 0.052634 0.085121 -0.161993
v 0.170332 0.085121 0.000000
v 0.000000 0.190392 0.000000
vt 0.905377 0.256761
vt 0.937766 0.280058
vt 0.922307 0.282019
vt 0.877436 0.280458
vt 0.907458 0.283568
vt 0.892691 0.282639
vt 0.861617 0.280058
vt 0.869384 0.302369
vt 0.846158 0.282019
vt 0.854616 0.303299
vt 0.831309 0.283568
vt 0.839362 0.305479
vt 0.899691 0.305880
vt 0.884233 0.303919
vt 0.915511 0.305479
vt 0.867302 0.329177
vn 0.187600 -0.794700 0.577400
vn 0.607100 -0.794700 0.000000
vn -0.491100 -0.794700 0.356800
vn -0.491100 -0.794700 -0.356800
vn 0.187600 -0.794700 -0.577400
vn 0.982200 -0.187600 0.000000
vn 0.303500 -0.187600 0.934200
vn -0.794600 -0.187600 0.577400
vn -0.794600 -0.187600 -0.577400
vn 0.303500 -0.187600 -0.934200
vn 0.794600 0.187600 0.577400
vn -0.303500 0.187600 0.934200
vn -0.982200 0.187600 0.000000
vn -0.303500 0.187600 -0.934200
vn 0.794600 0.187600 -0.577400
vn 0.491100 0.794700 0.356800
vn -0.187600 0.794700 0.577400
vn -0.607100 0.794700 0.000000
vn -0.187600 0.794700 -0.577400
vn 0.491100 0.794700 -0.356800
s off
f 25/32/41 26/33/41 27/34/41
f 26/33/42 25/32/42 30/35/42
f 25/32/43 27/34/43 28/36/43
f 25/32/44 28/36/44 29/37/44
f 25/32/45 29/37/45 30/35/45
f 26/38/46 30/35/46 35/39/46
f 27/40/47 26/38/47 31/41/47
f 28/42/48 27/40/48 32/43/48
f 29/37/49 28/36/49 33/44/49
f 30/35/50 29/37/50 34/45/50
f 26/38/51 35/39/51 31/41/51
f 27/40/52 31/41/52 32/43/52
f 28/36/53 32/46/53 33/44/53
f 29/37/54 33/44/54 34/45/54
f 30/35/55 34/45/55 35/39/55
f 31/41/56 35/39/56 36/47/56
f 32/43/57 31/41/57 36/47/57
f 33/44/58 32/46/58 36/47/58
f 34/45/59 33/44/59 36/47/59
f 35/39/60 34/45/60 36/47/60
v 0.044516 -0.000240 -0.155209
v -0.061726 -0.116974 -0.092685
v -0.112105 0.044490 -0.107328
v 0.019954 0.144283 -0.069572
v 0.151949 0.044490 -0.031595
v 0.101468 -0.116974 -0.045880
v -0.151949 -0.044598 0.031595
v -0.101468 0.116867 0.045880
v 0.061726 0.116867 0.092685
v 0.112105 -0.044598 0.107328
v -0.019954 -0.144391 0.069572
v -0.044516 0.000132 0.155209
vt 0.628894 0.500204
vt 0.641274 0.475735
vt 0.644957 0.507635
vt 0.615973 0.476930
vt 0.629693 0.532761
vt 0.612931 0.509033
vt 0.675913 0.467239
vt 0.659152 0.490967
vt 0.662194 0.523070
vt 0.595053 0.524265
vt 0.598736 0.492365
vt 0.583472 0.467239
vt 0.566711 0.490967
vt 0.582673 0.499796
vt 0.569753 0.523070
vn -0.336000 -0.188500 -0.922800
vn 0.218900 -0.608000 -0.763200
vn -0.123800 0.490200 -0.862800
vn 0.562200 0.490200 -0.666000
vn 0.774000 -0.188500 -0.604500
vn 0.051400 -0.982500 -0.179200
vn -0.846300 -0.303800 -0.437500
vn -0.503000 0.794400 -0.340400
vn 0.607000 0.794400 -0.022000
vn 0.949600 -0.303800 0.077600
vn -0.607000 -0.794400 0.022000
vn -0.949600 0.303800 -0.077600
vn -0.051400 0.982500 0.179200
vn 0.846300 0.303800 0.437500
vn 0.503000 -0.794400 0.340400
vn -0.562200 -0.490200 0.666000
vn -0.774000 0.188500 0.604500
vn -0.218900 0.608000 0.763200
vn 0.336000 0.188500 0.922800
vn 0.123800 -0.490200 0.862800
s off
f 37/48/61 38/49/61 39/50/61
f 38/49/62 37/48/62 42/51/62
f 37/48/63 39/50/63 40/52/63
f 37/48/64 40/52/64 41/53/64
f 37/48/65 41/53/65 42/51/65
f 38/49/66 42/51/66 47/54/66
f 39/50/67 38/49/67 43/55/67
f 40/52/68 39/50/68 44/56/68
f 41/53/69 40/52/69 45/57/69
f 42/51/70 41/53/70 46/58/70
f 38/49/71 47/54/71 43/55/71
f 39/50/72 43/55/72 44/56/72
f 40/52/73 44/56/73 45/57/73
f 41/53/74 45/57/74 46/58/74
f 42/51/75 46/58/75 47/59/75
f 43/60/76 47/59/76 48/61/76
f 44/62/77 43/60/77 48/61/77
f 45/57/78 44/62/78 48/61/78
f 46/58/79 45/57/79 48/61/79
f 47/59/80 46/58/80 48/61/80
v 0.000000 -0.248440 0.000000
v 0.179738 -0.111131 0.130586
v -0.068653 -0.111131 0.211294
v -0.222170 -0.111131 0.000000
v -0.068653 -0.111131 -0.211294
v 0.179738 -0.111131 -0.130586
v 0.068653 0.111041 0.211294
v -0.179738 0.111041 0.130586
v -0.179738 0.111041 -0.130586
v 0.068653 0.111041 -0.211294
v 0.222170 0.111041 0.000000
v 0.000000 0.248349 0.000000
vt 0.359891 0.282727
vt 0.327086 0.313203
vt 0.401136 0.312724
vt 0.345696 0.314910
vt 0.382287 0.314155
vt 0.363934 0.315483
vt 0.335735 0.341499
vt 0.308033 0.312724
vt 0.317383 0.340170
vt 0.289183 0.314155
vt 0.299144 0.340744
vt 0.270831 0.315483
vt 0.280534 0.342450
vt 0.354584 0.342930
vt 0.373637 0.342450
vt 0.313339 0.372926
vn 0.187600 -0.794700 0.577400
vn 0.607100 -0.794700 0.000000
vn -0.491100 -0.794700 0.356800
vn -0.491100 -0.794700 -0.356800
vn 0.187600 -0.794700 -0.577400
vn 0.982200 -0.187600 0.000000
vn 0.303500 -0.187600 0.934200
vn -0.794600 -0.187600 0.577400
vn -0.794600 -0.187600 -0.577400
vn 0.303500 -0.187600 -0.934200
vn 0.794600 0.187600 0.577400
vn -0.303500 0.187600 0.934200
vn -0.982200 0.187600 0.000000
vn -0.303500 0.187600 -0.934200
vn 0.794600 0.187600 -0.577400
vn 0.491100 0.794700 0.356800
vn -0.187600 0.794700 0.577400
vn -0.607100 0.794700 0.000000
vn -0.187600 0.794700 -0.577400
vn 0.491100 0.794700 -0.356800
s off
f 49/63/81 50/64/81 51/65/81
f 50/64/82 49/63/82 54/66/82
f 49/63/83 51/65/83 52/67/83
f 49/63/84 52/67/84 53/68/84
f 49/63/85 53/68/85 54/66/85
f 50/64/86 54/66/86 59/69/86
f 51/70/87 50/64/87 55/71/87
f 52/72/88 51/70/88 56/73/88
f 53/74/89 52/72/89 57/75/89
f 54/66/90 53/68/90 58/76/90
f 50/64/91 59/69/91 55/71/91
f 51/70/92 55/71/92 56/73/92
f 52/72/93 56/73/93 57/75/93
f 53/68/94 57/77/94 58/76/94
f 54/66/95 58/76/95 59/69/95
f 55/71/96 59/69/96 60/78/96
f 56/73/97 55/71/97 60/78/97
f 57/75/98 56/73/98 60/78/98
f 58/76/99 57/77/99 60/78/99
f 59/69/100 58/76/100 60/78/100
v 0.000000 -0.130054 0.000000
v 0.094068 -0.058192 0.068344
v -0.035930 -0.058192 0.110583
v -0.116275 -0.058192 0.000000
v -0.035930 -0.058192 -0.110583
v 0.094068 -0.058192 -0.068344
v 0.035930 0.058084 0.110583
v -0.094068 0.058084 0.068344
v -0.094068 0.058084 -0.068344
v 0.035930 0.058084 -0.110583
v 0.116275 0.058084 0.000000
v 0.000000 0.129946 0.000000
vt 0.269486 0.323805
vt 0.288781 0.344408
vt 0.274896 0.349079
vt 0.304396 0.340507
vt 0.261308 0.348442
vt 0.247203 0.343279
vt 0.215595 0.344408
vt 0.231210 0.340507
vt 0.224715 0.363221
vt 0.201711 0.349079
vt 0.210610 0.368384
vt 0.267803 0.371157
vt 0.252188 0.367255
vt 0.238304 0.362585
vt 0.283795 0.368384
vt 0.232893 0.387859
vn 0.187600 -0.794700 0.577400
vn 0.607100 -0.794700 0.000000
vn -0.491100 -0.794700 0.356800
vn -0.491100 -0.794700 -0.356800
vn 0.187600 -0.794700 -0.577400
vn 0.982200 -0.187600 0.000000
vn 0.303500 -0.187600 0.934200
vn -0.794600 -0.187600 0.577400
vn -0.794600 -0.187600 -0.577400
vn 0.303500 -0.187600 -0.934200
vn 0.794600 0.187600 0.577400
vn -0.303500 0.187600 0.934200
vn -0.982200 0.187600 0.000000
vn -0.303500 0.187600 -0.934200
vn 0.794600 0.187600 -0.577400
vn 0.491100 0.794700 0.356800
vn -0.187600 0.794700 0.577400
vn -0.607100 0.794700 0.000000
vn -0.187600 0.794700 -0.577400
vn 0.491100 0.794700 -0.356800
s off
f 61/79/101 62/80/101 63/81/101
f 62/80/102 61/79/102 66/82/102
f 61/79/103 63/81/103 64/83/103
f 61/79/104 64/83/104 65/84/104
f 61/79/105 65/84/105 66/82/105
f 62/85/106 66/86/106 71/87/106
f 63/88/107 62/85/107 67/89/107
f 64/83/108 63/81/108 68/90/108
f 65/84/109 64/83/109 69/91/109
f 66/86/110 65/84/110 70/92/110
f 62/85/111 71/87/111 67/89/111
f 63/81/112 67/93/112 68/90/112
f 64/83/113 68/90/113 69/91/113
f 65/84/114 69/91/114 70/92/114
f 66/86/115 70/92/115 71/87/115
f 67/89/116 71/87/116 72/94/116
f 68/90/117 67/93/117 72/94/117
f 69/91/118 68/90/118 72/94/118
f 70/92/119 69/91/119 72/94/119
f 71/87/120 70/92/120 72/94/120
v 0.000000 -0.936026 0.000000
v 0.757856 -0.418592 0.550608
v -0.276388 -0.411792 0.850649
v -0.909384 -0.418643 0.000000
v -0.289469 -0.418592 -0.890910
v 0.757856 -0.418592 -0.550608
v 0.284708 0.425791 0.876256
v -0.723607 0.425735 0.525725
v -0.757856 0.432942 -0.550608
v 0.276388 0.411682 -0.850649
v 0.909384 0.432882 0.000000
v 0.000000 0.967910 0.000000
v -0.243841 -0.615444 0.750478
v -0.170145 -0.796230 0.523660
v -0.078904 -0.906079 0.242847
v 0.206579 -0.936826 0.150087
v 0.425323 -0.809788 0.309011
v 0.609547 -0.605406 0.442856
v 0.557118 -0.486079 0.713978
v 0.270782 -0.484025 0.833365
v -0.031042 -0.486079 0.905086
v 0.851196 -0.486078 -0.309211
v 0.850648 -0.484078 0.000000
v 0.812729 -0.478169 0.295238
v 0.206579 -0.936826 -0.150087
v 0.425323 -0.783217 -0.309011
v 0.627896 -0.625874 -0.456188
v -0.766042 -0.636363 0.000000
v -0.525730 -0.783215 0.000000
v -0.258707 -0.891151 0.000000
v -0.506878 -0.470152 0.750479
v -0.699698 -0.508817 0.508358
v -0.844949 -0.486133 0.242848
v -0.232822 -0.625931 -0.716563
v -0.167346 -0.809731 -0.515047
v -0.081280 -0.936770 -0.250158
v -0.870384 -0.486076 -0.250158
v -0.688189 -0.500479 -0.499997
v -0.483971 -0.462503 -0.716565
v -0.031042 -0.486079 -0.905086
v 0.262869 -0.500481 -0.809012
v 0.557118 -0.486079 -0.713978
v 0.956626 0.239084 0.147618
v 0.966963 -0.000024 0.314180
v 0.901434 -0.235061 0.463818
v 0.875091 -0.243052 -0.450264
v 0.951058 -0.000055 -0.309013
v 0.956626 0.239084 -0.147618
v 0.155215 0.231170 0.955422
v 0.000000 -0.000000 1.030103
v -0.159888 -0.239029 0.984183
v 0.687159 -0.231280 0.681715
v 0.605480 0.000057 0.833371
v 0.436007 0.231171 0.864188
v -0.886607 0.231224 0.456189
v -0.951058 -0.000055 0.309013
v -0.956626 -0.239084 0.147618
v -0.443298 -0.243053 0.878640
v -0.587786 -0.000055 0.809017
v -0.719682 0.243172 0.713981
v -0.707844 0.239143 -0.702237
v -0.615605 0.000030 -0.847307
v -0.449132 -0.239030 -0.890203
v -1.001903 -0.242994 -0.154605
v -0.951058 0.000000 -0.309013
v -0.901434 0.235122 -0.463818
v 0.456643 0.243173 -0.905090
v 0.587786 -0.000000 -0.809017
v 0.698650 -0.243053 -0.693116
v -0.155215 -0.231280 -0.955422
v 0.000000 0.000000 -1.000000
v 0.155215 0.239086 -0.955422
v 0.831051 0.462391 0.238853
v 0.699698 0.508880 0.508359
v 0.492065 0.470158 0.728548
v 0.030135 0.470158 0.878636
v -0.270782 0.500537 0.833365
v -0.540837 0.486198 0.693113
v -0.826321 0.486197 0.300175
v -0.876255 0.500535 0.000000
v -0.812729 0.478169 -0.295238
v -0.540837 0.486198 -0.693113
v -0.275310 0.492150 -0.847302
v 0.030135 0.470158 -0.878636
v 0.506878 0.470213 -0.750479
v 0.688189 0.500479 -0.499997
v 0.856068 0.462446 -0.246044
v 0.081280 0.936946 0.250158
v 0.167346 0.809844 0.515047
v 0.243841 0.615505 0.750478
v 0.766042 0.636426 0.000000
v 0.525730 0.783106 0.000000
v 0.263034 0.936945 0.000000
v -0.203181 0.921448 0.147618
v -0.425323 0.783108 0.309011
v -0.638396 0.615505 0.463817
v -0.209297 0.921505 -0.152062
v -0.438126 0.809844 -0.318314
v -0.609547 0.625931 -0.442856
v 0.081280 0.936946 -0.250158
v 0.162456 0.809788 -0.499995
v 0.236715 0.615450 -0.728546
v 0.053673 -0.677365 0.699694
v 0.144740 -0.865611 0.445451
v 0.372696 -0.688791 0.605473
v 0.670817 -0.666254 -0.162457
v 0.682036 -0.677364 0.165175
v 0.468377 -0.837205 0.000001
v -0.638195 -0.688846 0.262864
v -0.372693 -0.823464 0.270777
v -0.454689 -0.677364 0.534521
v -0.447211 -0.688848 -0.525727
v -0.372693 -0.823464 -0.270775
v -0.668400 -0.677309 -0.275304
v 0.372695 -0.688792 -0.605473
v 0.140508 -0.837260 -0.432434
v 0.052789 -0.688848 -0.688186
v 1.016723 -0.000024 0.000000
v 0.963054 -0.267486 0.165174
v 0.963054 -0.267486 -0.165174
v 0.323643 0.000088 0.996070
v 0.138199 -0.263119 0.951055
v 0.460678 -0.263063 0.876255
v -0.833372 0.000057 0.605477
v -0.861803 -0.254522 0.425324
v -0.670819 -0.254522 0.688191
v -0.822548 0.000031 -0.597613
v -0.682037 -0.267488 -0.699700
v -0.876215 -0.258747 -0.432437
v 0.314185 0.000031 -0.966961
v 0.447216 -0.254523 -0.850648
v 0.138199 -0.263119 -0.951055
v 0.702570 0.258753 0.720762
v 0.822548 0.000030 0.597613
v 0.861804 0.254410 0.425323
v -0.460678 0.254467 0.876256
v -0.318320 -0.000001 0.979686
v -0.140510 0.258698 0.966960
v -0.975727 0.254466 -0.167348
v -1.030103 0.000001 0.000000
v -0.963053 0.267550 0.165175
v -0.144739 0.258753 -0.996068
v -0.314184 0.000031 -0.966961
v -0.468382 0.258754 -0.890910
v 0.876216 0.258698 -0.432435
v 0.822549 -0.000024 -0.597612
v 0.682039 0.258699 -0.699698
v 0.367851 0.837211 0.267259
v 0.447209 0.688848 0.525728
v 0.638194 0.666144 0.262864
v -0.140508 0.865731 0.432432
v -0.372695 0.666200 0.605472
v -0.052790 0.666146 0.688185
v -0.454689 0.865730 0.000000
v -0.691010 0.666199 -0.167347
v -0.702566 0.700455 0.170146
v -0.140508 0.837212 -0.432432
v -0.052790 0.688849 -0.688185
v -0.378928 0.677372 -0.615598
v 0.378924 0.865787 -0.275304
v 0.668399 0.700454 -0.275305
v 0.468375 0.700456 -0.550611
vt 0.377882 0.000000
vt 0.650001 0.087438
vt 0.450001 0.087438
vt 0.650001 0.362676
vt 0.650001 0.284555
vt 0.694543 0.343676
vt 0.250000 0.087439
vt 0.049999 0.087438
vt 1.049999 0.087438
vt 0.849999 0.087438
vt 0.674369 0.425361
vt 0.450001 0.362676
vt 0.494544 0.343675
vt 0.474368 0.425360
vt 0.250000 0.362677
vt 0.294542 0.343676
vt 0.274367 0.425361
vt 0.049999 0.362676
vt 0.094543 0.343675
vt 0.074367 0.425360
vt 0.849999 0.362676
vt 0.894542 0.343675
vt 0.874367 0.425360
vt 0.625633 0.425360
vt 0.425633 0.425360
vt 0.225633 0.425361
vt 0.025632 0.425360
vt 0.825631 0.425361
vt 0.549999 0.637324
vt 0.594543 0.656325
vt 0.549999 0.715446
vt 0.349999 0.637324
vt 0.394542 0.656325
vt 0.349999 0.715446
vt 0.150001 0.637324
vt 0.194543 0.656324
vt 0.150001 0.715446
vt 0.950001 0.637324
vt 0.994544 0.656325
vt 0.950001 0.715446
vt 0.750000 0.637323
vt 0.794542 0.656324
vt 0.750000 0.715444
vt 0.450001 0.284554
vt 0.450001 0.188183
vt 0.512185 0.255633
vt 0.550001 0.158365
vt 0.550001 0.335332
vt 0.587817 0.255634
vt 0.605458 0.343675
vt 0.650001 0.188183
vt 0.805457 0.343676
vt 0.849999 0.284554
vt 0.750000 0.335333
vt 0.787816 0.255634
vt 0.712184 0.255634
vt 0.849999 0.188183
vt 0.750000 0.158365
vt 0.250000 0.284556
vt 0.250000 0.188184
vt 0.312184 0.255634
vt 0.350000 0.158365
vt 0.350000 0.335333
vt 0.387816 0.255634
vt 0.405458 0.343675
vt 0.049999 0.284554
vt 0.049999 0.188182
vt 0.112184 0.255633
vt 0.150000 0.158365
vt 0.150000 0.335333
vt 0.187817 0.255634
vt 0.205458 0.343676
vt 0.912183 0.255633
vt 0.949999 0.158365
vt 0.949999 0.335332
vt 0.987815 0.255634
vt 1.005456 0.343675
vt 1.049999 0.188182
vt 1.049999 0.284554
vt 0.005456 0.343675
vt 0.725633 0.574639
vt 0.774367 0.574639
vt 0.700001 0.500000
vt 0.750000 0.500000
vt 0.722966 0.417608
vt 0.799999 0.500000
vt 0.777034 0.417608
vt 0.525632 0.574640
vt 0.574367 0.574640
vt 0.500000 0.500000
vt 0.550000 0.500000
vt 0.522966 0.417608
vt 0.600000 0.500000
vt 0.577035 0.417608
vt 0.325631 0.574639
vt 0.374367 0.574640
vt 0.299999 0.500000
vt 0.350000 0.500000
vt 0.322966 0.417608
vt 0.400000 0.500000
vt 0.377034 0.417608
vt 0.125633 0.574640
vt 0.174369 0.574639
vt 0.100000 0.500000
vt 0.150000 0.500000
vt 0.122966 0.417608
vt 0.200001 0.500000
vt 0.177034 0.417608
vt 0.925633 0.574640
vt 0.974368 0.574640
vt 0.900000 0.500000
vt 0.950000 0.500000
vt 0.922965 0.417608
vt 1.000000 0.500000
vt 0.977034 0.417608
vt 1.025632 0.425360
vt 0.622966 0.582392
vt 0.650000 0.499999
vt 0.650000 0.664668
vt 0.677035 0.582391
vt 0.705458 0.656324
vt 0.422965 0.582392
vt 0.450000 0.500000
vt 0.449999 0.664668
vt 0.477034 0.582392
vt 0.505456 0.656325
vt 0.222966 0.582392
vt 0.250000 0.500000
vt 0.250000 0.664667
vt 0.277034 0.582392
vt 0.305457 0.656324
vt 1.022966 0.582392
vt 0.050000 0.500000
vt 0.000000 0.500000
vt 1.050001 0.664668
vt 0.022966 0.582392
vt 0.077035 0.582392
vt 0.050001 0.664668
vt 0.105458 0.656325
vt 0.822965 0.582392
vt 0.849999 0.500000
vt 0.850000 0.664667
vt 0.877034 0.582392
vt 0.905457 0.656325
vt 0.549999 0.912562
vt 0.750000 0.912561
vt 0.877882 1.000000
vt 0.549999 0.811818
vt 0.650000 0.841635
vt 0.612184 0.744367
vt 0.750000 0.811816
vt 0.687816 0.744366
vt 1.349999 0.912562
vt 0.349999 0.811817
vt 0.449999 0.841636
vt 0.349999 0.912562
vt 0.412183 0.744367
vt 0.487815 0.744367
vt 1.150001 0.912562
vt 0.150001 0.811817
vt 0.250000 0.841635
vt 0.150001 0.912562
vt 0.212184 0.744366
vt 0.287816 0.744366
vt 0.950001 0.912562
vt 0.950001 0.811817
vt 1.050001 0.841636
vt 1.012185 0.744367
vt 0.050001 0.841636
vt 0.012185 0.744367
vt 0.087817 0.744367
vt 0.850000 0.841635
vt 0.812184 0.744366
vt 0.887816 0.744367
vn -0.075000 -0.992400 0.098000
vn 0.653900 -0.693500 0.302300
vn -0.170500 -0.983200 0.065800
vn -0.170600 -0.983600 0.058400
vn -0.001400 -1.000000 0.003400
vn 0.815400 -0.499900 0.291800
vn -0.318700 -0.435700 0.841800
vn -0.921400 -0.360900 0.144200
vn -0.529100 -0.467700 -0.708100
vn 0.660200 -0.326400 -0.676400
vn 0.693900 -0.218400 0.686200
vn -0.307200 -0.443600 0.841900
vn -0.922000 -0.360000 0.142800
vn -0.208500 -0.181600 -0.961000
vn 0.792600 -0.200200 -0.575900
vn 0.395000 0.565200 0.724200
vn -0.672600 0.484500 0.559400
vn -0.686200 0.676500 -0.267300
vn 0.219400 0.532600 -0.817500
vn 0.812900 0.572500 -0.107400
vn -0.322600 -0.458800 0.827900
vn -0.060300 -0.790000 0.610100
vn -0.125600 -0.937100 0.325800
vn -0.039100 -0.739200 0.672300
vn 0.173000 -0.684100 0.708500
vn -0.032300 -0.808800 0.587200
vn 0.156700 -0.766100 0.623300
vn 0.182300 -0.689400 0.701000
vn 0.290600 -0.643500 0.708100
vn -0.030700 -0.973100 0.228200
vn 0.318300 -0.904200 0.284700
vn 0.364400 -0.837800 0.406600
vn 0.535800 -0.744200 0.398800
vn 0.545500 -0.723100 0.423700
vn 0.577200 -0.700400 0.419900
vn 0.665000 -0.612000 -0.428200
vn 0.709100 -0.705100 0.005800
vn 0.794900 -0.596000 0.114000
vn 0.609400 -0.768600 -0.194700
vn 0.512400 -0.837400 -0.190000
vn 0.732000 -0.679600 -0.048100
vn 0.621800 -0.781700 -0.047800
vn 0.522400 -0.824700 -0.216900
vn 0.452300 -0.865800 -0.214300
vn 0.665300 -0.661900 0.345200
vn 0.575200 -0.742800 0.342600
vn 0.517200 -0.843200 0.146900
vn 0.420400 -0.896700 0.138100
vn 0.355600 -0.934600 0.000000
vn -0.003900 -1.000000 0.000000
vn -0.833300 -0.548600 0.068600
vn -0.519600 -0.850300 0.083000
vn -0.373700 -0.924600 0.073800
vn -0.695700 -0.689700 0.200600
vn -0.679800 -0.662200 0.315300
vn -0.451700 -0.883500 0.123900
vn -0.434800 -0.838200 0.329100
vn -0.547900 -0.734100 0.401100
vn -0.520500 -0.675500 0.522400
vn -0.256800 -0.957500 0.131300
vn -0.233900 -0.928800 0.287400
vn -0.346000 -0.862200 0.370000
vn -0.309800 -0.790000 0.529000
vn -0.391800 -0.709300 0.585900
vn -0.253700 -0.459300 0.851300
vn -0.421800 -0.648300 -0.633900
vn -0.302000 -0.751200 -0.587000
vn -0.323300 -0.889900 -0.321800
vn -0.407600 -0.626400 -0.664400
vn -0.529800 -0.595300 -0.604000
vn -0.359900 -0.864400 -0.351200
vn -0.414700 -0.849100 -0.327100
vn -0.572800 -0.667900 -0.475200
vn -0.646900 -0.625900 -0.435600
vn -0.356000 -0.930800 -0.082800
vn -0.373700 -0.924600 -0.073800
vn -0.438700 -0.891200 -0.115500
vn -0.520600 -0.851900 -0.057900
vn -0.689900 -0.710400 -0.139000
vn -0.835100 -0.549800 0.018000
vn 0.612700 -0.612000 -0.500100
vn 0.408700 -0.846100 -0.342100
vn 0.329300 -0.863700 -0.381600
vn 0.477400 -0.710800 -0.516500
vn 0.266100 -0.631800 -0.728100
vn 0.314900 -0.886800 -0.338300
vn 0.137700 -0.835400 -0.532000
vn 0.186100 -0.669100 -0.719500
vn 0.198700 -0.676500 -0.709200
vn 0.123400 -0.926500 -0.355600
vn 0.038600 -0.896100 -0.442300
vn 0.062300 -0.853800 -0.516800
vn -0.100600 -0.751200 -0.652400
vn -0.098800 -0.745700 -0.658900
vn -0.212400 -0.662200 -0.718600
vn 0.971600 0.236800 0.000000
vn 0.976500 0.150000 0.154700
vn 0.967600 -0.133400 0.214100
vn 0.969800 0.243800 0.000000
vn 0.971500 0.116700 -0.206400
vn 0.982600 -0.101100 0.155600
vn 0.980500 -0.196700 0.000000
vn 0.975900 -0.067800 -0.207400
vn 0.945700 -0.120100 -0.302100
vn 0.853600 -0.468900 0.227000
vn 0.841400 -0.527200 0.118600
vn 0.887600 -0.460600 0.000000
vn 0.889000 -0.457900 0.004500
vn 0.914200 -0.266900 -0.304900
vn 0.847300 -0.326400 -0.418900
vn 0.304100 0.178300 0.935800
vn 0.101400 0.243600 0.964600
vn 0.087600 -0.244100 0.965800
vn 0.287600 0.365400 0.885300
vn 0.484900 0.243600 0.840000
vn 0.101700 -0.236900 0.966200
vn 0.214900 -0.309800 0.926200
vn 0.495500 -0.132800 0.858400
vn 0.651600 -0.241400 0.719100
vn 0.085500 -0.263100 0.961000
vn 0.218500 -0.353400 0.909600
vn 0.211000 -0.357900 0.909600
vn 0.340400 -0.452500 0.824200
vn 0.651600 -0.241500 0.719100
vn 0.660300 -0.247200 0.709200
vn -0.753000 0.464400 0.466100
vn -0.929200 0.024200 0.368800
vn -0.932900 -0.186400 0.308200
vn -0.832800 0.151900 0.532200
vn -0.637500 -0.045200 0.769100
vn -0.918100 -0.155400 0.364500
vn -0.769300 -0.309600 0.558900
vn -0.630400 -0.155400 0.760500
vn -0.629400 -0.156100 0.761300
vn -0.908400 -0.297500 0.293700
vn -0.822100 -0.388000 0.416600
vn -0.769700 -0.308000 0.559200
vn -0.702500 -0.356000 0.616300
vn -0.613900 -0.250500 0.748500
vn -0.272700 -0.413800 0.868600
vn -0.747900 0.278500 -0.602600
vn -0.766800 0.089800 -0.635500
vn -0.588700 -0.273500 -0.760600
vn -0.773500 0.097000 -0.626400
vn -0.911000 -0.074800 -0.405600
vn -0.760200 -0.158900 -0.630000
vn -0.795800 -0.199800 -0.571600
vn -0.911300 -0.070000 -0.405800
vn -0.910400 -0.068700 -0.408000
vn -0.523600 -0.470300 -0.710400
vn -0.571100 -0.525500 -0.630700
vn -0.737800 -0.428000 -0.522000
vn -0.740400 -0.432000 -0.515000
vn -0.869100 -0.322900 -0.374800
vn -0.881100 -0.472800 -0.009900
vn 0.142200 0.438800 -0.887300
vn 0.498600 -0.072400 -0.863800
vn 0.529500 -0.156100 -0.833800
vn 0.160700 0.153900 -0.974900
vn 0.103900 0.116700 -0.987700
vn 0.495500 -0.133300 -0.858300
vn 0.305000 -0.259300 -0.916400
vn 0.103700 -0.129000 -0.986200
vn -0.005500 -0.185700 -0.982600
vn 0.523800 -0.234700 -0.818900
vn 0.301500 -0.374400 -0.876900
vn 0.296300 -0.371000 -0.880100
vn 0.269400 -0.386400 -0.882100
vn -0.006800 -0.197000 -0.980400
vn -0.117300 -0.247200 -0.961800
vn 0.497300 0.337100 0.799400
vn 0.446100 0.211200 0.869700
vn 0.723500 -0.181300 0.666100
vn 0.408500 0.376200 0.831600
vn 0.563800 0.538300 0.626300
vn 0.735500 0.018700 0.677200
vn 0.866900 0.180900 0.464600
vn 0.817100 0.378600 0.434800
vn 0.840200 0.425600 0.336100
vn 0.702600 -0.159000 0.693600
vn 0.890300 0.040600 0.453600
vn 0.878400 0.167600 0.447500
vn 0.920600 0.249200 0.300600
vn 0.881100 0.381200 0.279800
vn 0.884700 0.399100 0.240800
vn -0.660900 0.531800 0.529500
vn -0.531800 0.042100 0.845800
vn -0.533500 -0.075900 0.842400
vn -0.493200 0.428000 0.757400
vn -0.427400 0.465000 0.775400
vn -0.534600 0.044000 0.844000
vn -0.268100 0.230300 0.935500
vn -0.259000 0.356400 0.897700
vn -0.089200 0.444300 0.891400
vn -0.338800 -0.207300 0.917700
vn -0.155900 -0.084800 0.984100
vn -0.154600 0.154200 0.975900
vn 0.062500 0.268600 0.961200
vn 0.068000 0.337300 0.938900
vn 0.067500 0.337100 0.939100
vn -0.831900 0.487500 -0.265100
vn -0.968500 0.042800 -0.245500
vn -0.967800 0.045200 -0.247600
vn -0.844800 0.476800 -0.242800
vn -0.843900 0.489900 -0.218700
vn -0.967900 0.044000 -0.247600
vn -0.973600 0.226600 0.028200
vn -0.931800 0.362200 0.021300
vn -0.879100 0.446300 0.167600
vn -0.967300 -0.206200 0.147600
vn -0.958800 -0.143300 0.245200
vn -0.964900 0.089400 0.246800
vn -0.959300 0.099100 0.264400
vn -0.882200 0.379300 0.279100
vn -0.752800 0.463800 0.467100
vn 0.197400 0.403700 -0.893300
vn 0.139700 0.093100 -0.985800
vn -0.103800 -0.120600 -0.987300
vn 0.148700 0.383400 -0.911500
vn -0.050500 0.516600 -0.854800
vn -0.104500 -0.043300 -0.993600
vn -0.307600 0.095000 -0.946800
vn -0.283500 0.397600 -0.872600
vn -0.442100 0.504300 -0.741800
vn -0.207900 -0.190700 -0.959400
vn -0.367500 -0.089800 -0.925700
vn -0.368400 0.053200 -0.928100
vn -0.614600 0.222200 -0.756900
vn -0.582700 0.419600 -0.696000
vn -0.568700 0.410800 -0.712600
vn 0.924600 0.346300 -0.158700
vn 0.953800 0.152400 -0.258800
vn 0.912400 -0.049100 -0.406300
vn 0.920500 0.309300 -0.238600
vn 0.765600 0.473800 -0.435200
vn 0.911300 0.070000 -0.405800
vn 0.792200 0.203100 -0.575500
vn 0.733600 0.421600 -0.533000
vn 0.699200 0.444600 -0.559800
vn 0.796000 -0.178500 -0.578300
vn 0.668400 -0.049100 -0.742200
vn 0.667500 0.070000 -0.741300
vn 0.669400 0.068700 -0.739800
vn 0.619500 0.343600 -0.705800
vn 0.229400 0.512700 -0.827400
vn 0.116500 0.989600 0.084600
vn 0.291800 0.895900 0.335100
vn 0.316400 0.779500 0.540600
vn 0.308400 0.924500 0.224100
vn 0.501500 0.856400 0.122900
vn 0.354600 0.853800 0.381200
vn 0.513000 0.803000 0.303400
vn 0.530800 0.835100 0.144500
vn 0.514700 0.843200 0.155000
vn 0.439200 0.657700 0.612000
vn 0.498000 0.642400 0.582500
vn 0.560800 0.753800 0.342400
vn 0.719200 0.652700 0.238000
vn 0.714300 0.643700 0.274600
vn 0.802200 0.564900 0.193300
vn -0.110200 0.981400 0.157300
vn -0.370000 0.893000 0.256100
vn -0.371700 0.839200 0.396900
vn -0.131300 0.967100 0.218100
vn 0.052400 0.906900 0.418100
vn -0.410100 0.821300 0.396700
vn -0.165700 0.749100 0.641400
vn -0.024100 0.784100 0.620200
vn -0.002200 0.770900 0.637000
vn -0.438600 0.690000 0.575700
vn -0.372200 0.663600 0.648900
vn -0.161900 0.762400 0.626600
vn -0.039600 0.687700 0.724900
vn -0.034400 0.689000 0.724000
vn 0.106200 0.565200 0.818100
vn -0.219700 0.975600 0.004700
vn -0.322700 0.929200 -0.179900
vn -0.596700 0.749800 -0.286000
vn -0.218900 0.975700 0.004700
vn -0.357900 0.893000 0.272800
vn -0.561900 0.809200 -0.171300
vn -0.599000 0.794300 -0.101100
vn -0.397500 0.876300 0.272100
vn -0.419600 0.843400 0.335600
vn -0.694100 0.654000 -0.300800
vn -0.750000 0.627600 -0.208900
vn -0.710000 0.697800 -0.095100
vn -0.808900 0.565300 0.161600
vn -0.714100 0.615200 0.334000
vn -0.739800 0.484500 0.466800
vn -0.104700 0.982300 -0.155600
vn -0.022000 0.888100 -0.459200
vn 0.109500 0.774500 -0.623000
vn -0.157500 0.934400 -0.319600
vn -0.210600 0.920700 -0.328500
vn -0.036100 0.859000 -0.510700
vn -0.148100 0.832600 -0.533800
vn -0.246400 0.866100 -0.435000
vn -0.493300 0.753800 -0.434100
vn 0.066600 0.669500 -0.739800
vn -0.031100 0.649700 -0.759600
vn -0.172800 0.730200 -0.661000
vn -0.405500 0.616900 -0.674500
vn -0.537000 0.665200 -0.518800
vn -0.510400 0.683600 -0.521800
vn 0.116500 0.989600 -0.084600
vn 0.505300 0.862900 -0.010300
vn 0.520900 0.853500 0.013700
vn 0.217000 0.963400 -0.157700
vn 0.181200 0.899000 -0.398700
vn 0.496000 0.868300 -0.003700
vn 0.466600 0.816900 -0.339000
vn 0.235900 0.865000 -0.442800
vn 0.178000 0.777400 -0.603200
vn 0.785900 0.602600 -0.138600
vn 0.740200 0.533300 -0.409500
vn 0.650200 0.595100 -0.472400
vn 0.634900 0.564300 -0.527700
vn 0.295000 0.654000 -0.696600
vn 0.220000 0.532600 -0.817300
s off
f 73/95/121 88/96/121 87/97/121
f 74/98/122 90/99/122 96/100/122
f 73/95/123 87/97/123 102/101/123
f 73/95/124 102/101/124 108/102/124
f 73/95/125 108/103/125 97/104/125
f 74/98/126 96/100/126 117/105/126
f 75/106/127 93/107/127 123/108/127
f 76/109/128 105/110/128 129/111/128
f 77/112/129 111/113/129 135/114/129
f 78/115/130 114/116/130 141/117/130
f 74/98/131 117/105/131 124/118/131
f 75/106/132 123/108/132 130/119/132
f 76/109/133 129/111/133 136/120/133
f 77/112/134 135/114/134 142/121/134
f 78/115/135 141/117/135 118/122/135
f 79/123/136 147/124/136 162/125/136
f 80/126/137 150/127/137 168/128/137
f 81/129/138 153/130/138 171/131/138
f 82/132/139 156/133/139 174/134/139
f 83/135/140 159/136/140 163/137/140
f 85/138/141 93/107/141 75/106/141
f 86/139/142 175/140/142 85/138/142
f 87/97/143 176/141/143 86/139/143
f 85/138/144 175/140/144 93/107/144
f 175/140/145 92/142/145 93/107/145
f 86/139/146 176/141/146 175/140/146
f 176/141/147 177/143/147 175/140/147
f 175/140/148 177/143/148 92/142/148
f 177/143/149 91/144/149 92/142/149
f 87/97/150 88/96/150 176/141/150
f 88/96/151 89/145/151 176/141/151
f 176/141/152 89/145/152 177/143/152
f 89/145/153 90/99/153 177/143/153
f 177/143/154 90/99/154 91/144/154
f 90/99/155 74/98/155 91/144/155
f 94/146/156 99/147/156 78/115/156
f 95/148/157 178/149/157 94/146/157
f 96/100/158 179/150/158 95/148/158
f 94/146/159 178/149/159 99/147/159
f 178/149/160 98/151/160 99/147/160
f 95/148/161 179/150/161 178/149/161
f 179/150/162 180/152/162 178/149/162
f 178/149/163 180/152/163 98/151/163
f 180/152/164 97/104/164 98/151/164
f 96/100/165 90/99/165 179/150/165
f 90/99/166 89/145/166 179/150/166
f 179/150/167 89/145/167 180/152/167
f 89/145/168 88/96/168 180/152/168
f 180/152/169 88/96/169 97/104/169
f 88/96/170 73/95/170 97/104/170
f 100/153/171 105/110/171 76/109/171
f 101/154/172 181/155/172 100/153/172
f 102/101/173 182/156/173 101/154/173
f 100/153/174 181/155/174 105/110/174
f 181/155/175 104/157/175 105/110/175
f 101/154/176 182/156/176 181/155/176
f 182/156/177 183/158/177 181/155/177
f 181/155/178 183/158/178 104/157/178
f 183/158/179 103/159/179 104/157/179
f 102/101/180 87/97/180 182/156/180
f 87/97/181 86/139/181 182/156/181
f 182/156/182 86/139/182 183/158/182
f 86/139/183 85/138/183 183/158/183
f 183/158/184 85/138/184 103/159/184
f 85/138/185 75/106/185 103/159/185
f 106/160/186 111/113/186 77/112/186
f 107/161/187 184/162/187 106/160/187
f 108/102/188 185/163/188 107/161/188
f 106/160/189 184/162/189 111/113/189
f 184/162/190 110/164/190 111/113/190
f 107/161/191 185/163/191 184/162/191
f 185/163/192 186/165/192 184/162/192
f 184/162/193 186/165/193 110/164/193
f 186/165/194 109/166/194 110/164/194
f 108/102/195 102/101/195 185/163/195
f 102/101/196 101/154/196 185/163/196
f 185/163/197 101/154/197 186/165/197
f 101/154/198 100/153/198 186/165/198
f 186/165/199 100/153/199 109/166/199
f 100/153/200 76/109/200 109/166/200
f 99/147/201 114/116/201 78/115/201
f 98/151/202 187/167/202 99/147/202
f 97/104/203 188/168/203 98/151/203
f 99/147/204 187/167/204 114/116/204
f 187/167/205 113/169/205 114/116/205
f 98/151/206 188/168/206 187/167/206
f 188/168/207 189/170/207 187/167/207
f 187/167/208 189/170/208 113/169/208
f 189/170/209 112/171/209 113/169/209
f 97/104/210 108/103/210 188/168/210
f 108/103/211 107/172/211 188/168/211
f 188/168/212 107/172/212 189/170/212
f 107/172/213 106/173/213 189/170/213
f 189/170/214 106/173/214 112/171/214
f 106/160/215 77/112/215 112/174/215
f 115/175/216 120/176/216 83/135/216
f 116/177/217 190/178/217 115/175/217
f 117/105/218 191/179/218 116/177/218
f 115/175/219 190/178/219 120/176/219
f 190/178/220 119/180/220 120/176/220
f 116/177/221 191/179/221 190/178/221
f 191/179/222 192/181/222 190/178/222
f 190/178/223 192/181/223 119/180/223
f 192/181/224 118/122/224 119/180/224
f 117/105/225 96/100/225 191/179/225
f 96/100/226 95/148/226 191/179/226
f 191/179/227 95/148/227 192/181/227
f 95/148/228 94/146/228 192/181/228
f 192/181/229 94/146/229 118/122/229
f 94/146/230 78/115/230 118/122/230
f 121/182/231 126/183/231 79/123/231
f 122/184/232 193/185/232 121/182/232
f 123/108/233 194/186/233 122/184/233
f 121/182/234 193/185/234 126/183/234
f 193/185/235 125/187/235 126/183/235
f 122/184/236 194/186/236 193/185/236
f 194/186/237 195/188/237 193/185/237
f 193/185/238 195/188/238 125/187/238
f 195/188/239 124/118/239 125/187/239
f 123/108/240 93/107/240 194/186/240
f 93/107/241 92/142/241 194/186/241
f 194/186/242 92/142/242 195/188/242
f 92/142/243 91/144/243 195/188/243
f 195/188/244 91/144/244 124/118/244
f 91/144/245 74/98/245 124/118/245
f 127/189/246 132/190/246 80/126/246
f 128/191/247 196/192/247 127/189/247
f 129/111/248 197/193/248 128/191/248
f 127/189/249 196/192/249 132/190/249
f 196/192/250 131/194/250 132/190/250
f 128/191/251 197/193/251 196/192/251
f 197/193/252 198/195/252 196/192/252
f 196/192/253 198/195/253 131/194/253
f 198/195/254 130/119/254 131/194/254
f 129/111/255 105/110/255 197/193/255
f 105/110/256 104/157/256 197/193/256
f 197/193/257 104/157/257 198/195/257
f 104/157/258 103/159/258 198/195/258
f 198/195/259 103/159/259 130/119/259
f 103/159/260 75/106/260 130/119/260
f 133/196/261 138/197/261 81/129/261
f 134/198/262 199/199/262 133/196/262
f 135/114/263 200/200/263 134/198/263
f 133/196/264 199/199/264 138/197/264
f 199/199/265 137/201/265 138/197/265
f 134/198/266 200/200/266 199/199/266
f 200/200/267 201/202/267 199/199/267
f 199/199/268 201/202/268 137/201/268
f 201/202/269 136/120/269 137/201/269
f 135/114/270 111/113/270 200/200/270
f 111/113/271 110/164/271 200/200/271
f 200/200/272 110/164/272 201/202/272
f 110/164/273 109/166/273 201/202/273
f 201/202/274 109/166/274 136/120/274
f 109/166/275 76/109/275 136/120/275
f 139/203/276 144/204/276 82/132/276
f 140/205/277 202/206/277 139/203/277
f 141/117/278 203/207/278 140/205/278
f 139/203/279 202/206/279 144/204/279
f 202/206/280 143/208/280 144/204/280
f 140/205/281 203/207/281 202/206/281
f 203/207/282 204/209/282 202/206/282
f 202/206/283 204/209/283 143/208/283
f 204/209/284 142/210/284 143/208/284
f 141/117/285 114/116/285 203/207/285
f 114/116/286 113/169/286 203/207/286
f 203/207/287 113/169/287 204/209/287
f 113/169/288 112/171/288 204/209/288
f 204/209/289 112/171/289 142/210/289
f 112/174/290 77/112/290 142/121/290
f 126/183/291 147/124/291 79/123/291
f 125/187/292 205/211/292 126/183/292
f 124/118/293 206/212/293 125/187/293
f 126/183/294 205/211/294 147/124/294
f 205/211/295 146/213/295 147/124/295
f 125/187/296 206/212/296 205/211/296
f 206/212/297 207/214/297 205/211/297
f 205/211/298 207/214/298 146/213/298
f 207/214/299 145/215/299 146/213/299
f 124/118/300 117/105/300 206/212/300
f 117/105/301 116/177/301 206/212/301
f 206/212/302 116/177/302 207/214/302
f 116/177/303 115/175/303 207/214/303
f 207/214/304 115/175/304 145/215/304
f 115/175/305 83/135/305 145/215/305
f 132/190/306 150/127/306 80/126/306
f 131/194/307 208/216/307 132/190/307
f 130/119/308 209/217/308 131/194/308
f 132/190/309 208/216/309 150/127/309
f 208/216/310 149/218/310 150/127/310
f 131/194/311 209/217/311 208/216/311
f 209/217/312 210/219/312 208/216/312
f 208/216/313 210/219/313 149/218/313
f 210/219/314 148/220/314 149/218/314
f 130/119/315 123/108/315 209/217/315
f 123/108/316 122/184/316 209/217/316
f 209/217/317 122/184/317 210/219/317
f 122/184/318 121/182/318 210/219/318
f 210/219/319 121/182/319 148/220/319
f 121/182/320 79/123/320 148/220/320
f 138/197/321 153/130/321 81/129/321
f 137/201/322 211/221/322 138/197/322
f 136/120/323 212/222/323 137/201/323
f 138/197/324 211/221/324 153/130/324
f 211/221/325 152/223/325 153/130/325
f 137/201/326 212/222/326 211/221/326
f 212/222/327 213/224/327 211/221/327
f 211/221/328 213/224/328 152/223/328
f 213/224/329 151/225/329 152/223/329
f 136/120/330 129/111/330 212/222/330
f 129/111/331 128/191/331 212/222/331
f 212/222/332 128/191/332 213/224/332
f 128/191/333 127/189/333 213/224/333
f 213/224/334 127/189/334 151/225/334
f 127/189/335 80/126/335 151/225/335
f 144/204/336 156/133/336 82/132/336
f 143/208/337 214/226/337 144/204/337
f 142/121/338 215/227/338 143/228/338
f 144/204/339 214/226/339 156/133/339
f 214/226/340 155/229/340 156/133/340
f 143/228/341 215/227/341 214/230/341
f 215/227/342 216/231/342 214/230/342
f 214/230/343 216/231/343 155/232/343
f 216/231/344 154/233/344 155/232/344
f 142/121/345 135/114/345 215/227/345
f 135/114/346 134/198/346 215/227/346
f 215/227/347 134/198/347 216/231/347
f 134/198/348 133/196/348 216/231/348
f 216/231/349 133/196/349 154/233/349
f 133/196/350 81/129/350 154/233/350
f 120/176/351 159/136/351 83/135/351
f 119/180/352 217/234/352 120/176/352
f 118/122/353 218/235/353 119/180/353
f 120/176/354 217/234/354 159/136/354
f 217/234/355 158/236/355 159/136/355
f 119/180/356 218/235/356 217/234/356
f 218/235/357 219/237/357 217/234/357
f 217/234/358 219/237/358 158/236/358
f 219/237/359 157/238/359 158/236/359
f 118/122/360 141/117/360 218/235/360
f 141/117/361 140/205/361 218/235/361
f 218/235/362 140/205/362 219/237/362
f 140/205/363 139/203/363 219/237/363
f 219/237/364 139/203/364 157/238/364
f 139/203/365 82/132/365 157/238/365
f 160/239/366 165/240/366 84/241/366
f 161/242/367 220/243/367 160/239/367
f 162/125/368 221/244/368 161/242/368
f 160/239/369 220/243/369 165/240/369
f 220/243/370 164/245/370 165/240/370
f 161/242/371 221/244/371 220/243/371
f 221/244/372 222/246/372 220/243/372
f 220/243/373 222/246/373 164/245/373
f 222/246/374 163/137/374 164/245/374
f 162/125/375 147/124/375 221/244/375
f 147/124/376 146/213/376 221/244/376
f 221/244/377 146/213/377 222/246/377
f 146/213/378 145/215/378 222/246/378
f 222/246/379 145/215/379 163/137/379
f 145/215/380 83/135/380 163/137/380
f 166/247/381 160/239/381 84/241/381
f 167/248/382 223/249/382 166/250/382
f 168/128/383 224/251/383 167/248/383
f 166/250/384 223/249/384 160/239/384
f 223/249/385 161/242/385 160/239/385
f 167/248/386 224/251/386 223/249/386
f 224/251/387 225/252/387 223/249/387
f 223/249/388 225/252/388 161/242/388
f 225/252/389 162/125/389 161/242/389
f 168/128/390 150/127/390 224/251/390
f 150/127/391 149/218/391 224/251/391
f 224/251/392 149/218/392 225/252/392
f 149/218/393 148/220/393 225/252/393
f 225/252/394 148/220/394 162/125/394
f 148/220/395 79/123/395 162/125/395
f 169/253/396 166/247/396 84/241/396
f 170/254/397 226/255/397 169/256/397
f 171/131/398 227/257/398 170/254/398
f 169/256/399 226/255/399 166/250/399
f 226/255/400 167/248/400 166/250/400
f 170/254/401 227/257/401 226/255/401
f 227/257/402 228/258/402 226/255/402
f 226/255/403 228/258/403 167/248/403
f 228/258/404 168/128/404 167/248/404
f 171/131/405 153/130/405 227/257/405
f 153/130/406 152/223/406 227/257/406
f 227/257/407 152/223/407 228/258/407
f 152/223/408 151/225/408 228/258/408
f 228/258/409 151/225/409 168/128/409
f 151/225/410 80/126/410 168/128/410
f 172/259/411 169/253/411 84/241/411
f 173/260/412 229/261/412 172/259/412
f 174/134/413 230/262/413 173/260/413
f 172/259/414 229/261/414 169/253/414
f 229/263/415 170/254/415 169/256/415
f 173/260/416 230/262/416 229/261/416
f 230/264/417 231/265/417 229/263/417
f 229/263/418 231/265/418 170/254/418
f 231/265/419 171/131/419 170/254/419
f 174/134/420 156/133/420 230/262/420
f 156/133/421 155/229/421 230/262/421
f 230/264/422 155/232/422 231/265/422
f 155/232/423 154/233/423 231/265/423
f 231/265/424 154/233/424 171/131/424
f 154/233/425 81/129/425 171/131/425
f 165/240/426 172/259/426 84/241/426
f 164/245/427 232/266/427 165/240/427
f 163/137/428 233/267/428 164/245/428
f 165/240/429 232/266/429 172/259/429
f 232/266/430 173/260/430 172/259/430
f 164/245/431 233/267/431 232/266/431
f 233/267/432 234/268/432 232/266/432
f 232/266/433 234/268/433 173/260/433
f 234/268/434 174/134/434 173/260/434
f 163/137/435 159/136/435 233/267/435
f 159/136/436 158/236/436 233/267/436
f 233/267/437 158/236/437 234/268/437
f 158/236/438 157/238/438 234/268/438
f 234/268/439 157/238/439 174/134/439
f 157/238/440 82/132/440 174/134/440
