# Blender v2.76 (sub 0) OBJ File: 'npc_humanoidmutant.blend'
# www.blender.org
v -0.054359 0.623982 -0.179934
v -0.059435 0.887643 -0.320130
v -0.055818 0.892180 -0.185071
v -0.115003 0.795311 -0.326911
v -0.047715 0.658529 -0.285558
v -0.080035 0.661523 -0.115065
v -0.074414 0.820351 -0.128598
v -0.071846 0.854150 -0.151573
v -0.104147 0.846200 -0.331668
v -0.078626 0.695528 -0.307589
v -0.075142 0.736820 -0.099915
v -0.072684 0.629712 -0.239497
v -0.075719 0.892056 -0.255579
v -0.083468 0.672883 -0.218042
v -0.110445 0.827621 -0.168500
v -0.104668 0.855035 -0.184509
v -0.037729 0.765684 -0.089458
v -0.095539 0.716350 -0.189419
v 0.002822 0.614614 -0.143284
v -0.034554 0.671109 -0.068094
v 0.010104 0.819868 -0.089439
v -0.002428 0.656311 -0.299343
v 0.012693 0.873875 -0.138569
v -0.022087 0.756695 -0.080828
v -0.000634 0.686060 -0.323877
v -0.020581 0.730992 -0.073640
v -0.079629 0.800753 -0.127025
v -0.106675 0.736518 -0.309486
v -0.104343 0.782942 -0.166919
v 0.004293 0.775450 -0.068772
v -0.017942 0.728143 -0.350622
v -0.054972 0.716203 -0.088631
v 0.056296 0.706807 -0.081929
v 0.033865 0.673663 -0.056667
v 0.026163 0.728830 -0.071366
v 0.032630 0.755758 -0.081591
v 0.045255 0.764990 -0.093514
v 0.016313 0.898309 -0.274131
v 0.015317 0.894198 -0.178854
v 0.005983 0.812690 -0.349722
v -0.001164 0.884891 -0.325997
v -0.012458 0.781261 -0.363167
v 0.168705 -0.074646 -0.282514
v 0.173434 0.017490 -0.078485
v -0.114409 0.014331 -0.063040
v -0.112816 -0.027504 -0.296369
v 0.178511 0.281493 -0.339681
v 0.135512 0.359014 -0.135598
v -0.129188 0.329469 -0.148956
v -0.129297 0.222685 -0.371911
v 0.244304 0.591195 -0.334369
v 0.175958 0.575123 -0.156206
v -0.195948 0.474342 -0.285861
v -0.145604 0.498518 -0.476776
v 0.192366 -0.101115 -0.229795
v 0.194345 -0.014499 -0.093061
v -0.160437 -0.020211 -0.106540
v -0.147792 -0.086044 -0.247370
v 0.193911 0.377457 -0.325969
v 0.168237 0.410158 -0.208266
v -0.163751 0.282203 -0.183972
v -0.165178 0.224619 -0.334527
v 0.269401 0.608193 -0.295564
v 0.253976 0.561442 -0.184058
v -0.264879 0.530986 -0.383158
v -0.187688 0.536400 -0.470038
v 0.300455 0.455750 -0.382020
v 0.241502 0.458042 -0.237104
v 0.379504 0.500317 -0.337302
v 0.353341 0.486843 -0.248333
v 0.427368 0.239549 -0.446273
v 0.378414 0.227585 -0.409365
v 0.451323 0.296124 -0.407130
v 0.384705 0.289052 -0.383987
v 0.376311 0.152063 -0.155606
v 0.307379 0.120035 -0.121047
v 0.358182 0.198967 -0.149744
v 0.306464 0.179598 -0.145529
v 0.339406 0.116523 -0.070037
v 0.279966 0.107953 -0.075070
v 0.337016 0.170741 -0.066600
v 0.287347 0.169387 -0.081601
v 0.325898 0.136169 0.015173
v 0.238767 0.103135 -0.030964
v 0.291238 0.139104 0.027193
v 0.235740 0.137147 -0.010269
v 0.317089 0.097323 0.041790
v 0.230009 0.077781 0.001066
v 0.291022 0.089571 0.059896
v 0.216715 0.078885 0.023150
v 0.317512 0.080459 0.037567
v 0.239110 0.070966 0.006906
v 0.291995 0.027668 0.037601
v 0.242120 0.021305 0.013686
v -0.257869 0.397903 -0.413257
v -0.219619 0.381367 -0.448052
v -0.324502 0.512601 -0.477760
v -0.258307 0.525479 -0.549276
v -0.422845 0.385616 -0.630105
v -0.378315 0.385879 -0.701566
v -0.455580 0.418114 -0.638688
v -0.435108 0.398457 -0.723683
v -0.442346 0.321957 -0.570306
v -0.462951 0.307057 -0.671969
v -0.486942 0.390516 -0.585571
v -0.517833 0.335413 -0.653164
v -0.532014 0.275164 -0.425368
v -0.571117 0.257089 -0.446201
v -0.548269 0.317146 -0.430770
v -0.594584 0.295659 -0.448893
v 0.053214 -0.080893 -0.296143
v 0.003714 -0.060380 -0.302949
v 0.064403 0.016625 -0.051417
v -0.001695 0.008580 -0.049650
v 0.089288 0.241858 -0.370294
v 0.001510 0.403968 -0.416261
v 0.062872 0.346657 -0.116352
v -0.048835 0.382478 -0.143007
v 0.116097 0.572735 -0.383901
v -0.058492 0.550423 -0.434282
v 0.060612 0.554829 -0.171545
v -0.086752 0.505943 -0.199701
v 0.047976 -0.118252 -0.230792
v 0.004777 -0.116546 -0.242218
v 0.068374 -0.023807 -0.072077
v -0.028990 -0.008969 -0.076324
v -0.085769 0.621611 -0.393631
v 0.108072 0.610518 -0.292771
v -0.090530 0.566771 -0.232818
v 0.048360 0.586008 -0.224780
v -0.055299 0.633507 -0.354797
v 0.054132 0.630456 -0.307885
v -0.060016 0.626497 -0.181494
v 0.049383 0.627981 -0.170156
v 0.085615 0.880619 -0.322959
v 0.086963 0.892667 -0.164441
v -0.046127 0.659537 -0.286085
v 0.093535 0.828324 -0.116487
v 0.074943 0.648188 -0.102844
v 0.039601 0.644500 -0.274801
v 0.116288 0.750709 -0.308641
v 0.118734 0.825642 -0.321140
v 0.097268 0.858435 -0.143140
v 0.194737 -0.228503 -0.167909
v 0.196081 -0.173987 -0.036968
v -0.131036 -0.205659 -0.092889
v -0.123025 -0.222754 -0.207549
v 0.058829 -0.224574 -0.171354
v -0.010525 -0.214734 -0.208879
v 0.074161 -0.184877 -0.049747
v -0.023533 -0.202037 -0.093061
v 0.203090 -0.318087 -0.114241
v 0.192024 -0.277711 -0.001109
v 0.080985 -0.318288 -0.114073
v 0.083614 -0.284625 -0.012851
v 0.249055 -0.496387 -0.147374
v 0.221933 -0.534420 -0.023813
v 0.138890 -0.518963 -0.169862
v 0.125830 -0.536179 -0.042846
v 0.236146 -0.554275 -0.108796
v 0.221805 -0.552935 -0.043136
v 0.155058 -0.535031 -0.148297
v 0.146449 -0.562230 -0.053705
v 0.177676 -0.906235 -0.289641
v 0.176603 -0.864453 -0.152672
v 0.269575 -0.989884 0.033055
v 0.174038 -0.996188 0.062591
v 0.191460 -0.968239 0.053437
v 0.140328 0.117211 -0.308231
v 0.145343 0.164174 -0.110937
v -0.119621 0.160157 -0.105325
v -0.125081 0.122292 -0.313069
v 0.177243 0.118258 -0.270277
v 0.181289 0.159082 -0.147853
v -0.156375 0.158482 -0.148811
v -0.160512 0.112688 -0.269253
v 0.063550 0.160919 -0.091393
v -0.024947 0.149835 -0.086767
v 0.057658 0.096282 -0.323626
v -0.021417 0.135469 -0.333330
v -0.127265 -0.319248 -0.074952
v -0.125972 -0.335990 -0.186255
v -0.009435 -0.324355 -0.190489
v -0.018874 -0.315169 -0.075229
v -0.132631 -0.438897 -0.062992
v -0.135175 -0.452224 -0.179265
v -0.030372 -0.462567 -0.197107
v -0.029101 -0.436760 -0.066630
v -0.139152 -0.465031 -0.072540
v -0.139564 -0.476207 -0.162403
v -0.044595 -0.480546 -0.168077
v -0.042982 -0.477632 -0.078792
v -0.112848 -0.857615 -0.085408
v -0.109972 -0.879154 -0.147432
v -0.053852 -0.882866 -0.152210
v -0.044593 -0.867213 -0.090590
v -0.112015 -0.934221 -0.050649
v -0.093058 -0.991879 -0.160965
v -0.049496 -0.991349 -0.142932
v -0.054935 -0.928360 -0.046898
v -0.134729 -1.000172 0.175159
v -0.048974 -1.002155 0.188979
v -0.070666 -0.972049 0.173478
v 0.082473 0.728413 -0.106217
v 0.078637 0.671959 -0.291227
v 0.205252 -0.074764 -0.156709
v -0.180453 -0.078365 -0.170499
v 0.175835 0.362699 -0.262574
v -0.172191 0.235817 -0.247742
v 0.289443 0.596080 -0.223996
v -0.257654 0.561996 -0.437790
v 0.222544 0.449515 -0.298259
v 0.377117 0.495645 -0.289585
v 0.395374 0.222950 -0.425301
v 0.420509 0.292121 -0.387312
v 0.350617 0.130351 -0.148068
v 0.325381 0.194837 -0.143775
v 0.311745 0.173374 -0.073740
v 0.260730 0.136428 0.019017
v 0.252750 0.088465 0.050248
v 0.262217 0.053035 0.031879
v -0.229872 0.395528 -0.453012
v -0.298832 0.525698 -0.515222
v -0.392742 0.357468 -0.667807
v -0.446750 0.426804 -0.682558
v -0.456700 0.309849 -0.620351
v -0.510290 0.365195 -0.616903
v -0.551775 0.263438 -0.433748
v -0.574455 0.313338 -0.441062
v 0.001691 -0.108276 -0.168787
v 0.084565 0.618653 -0.246592
v -0.128467 0.611577 -0.306394
v 0.058623 0.625015 -0.234086
v -0.074175 0.633583 -0.242102
v 0.102456 0.889950 -0.265333
v 0.077799 0.655039 -0.208693
v 0.132231 0.796186 -0.174580
v 0.140755 0.864306 -0.217704
v 0.213135 -0.211672 -0.106337
v -0.156080 -0.224682 -0.158969
v 0.047241 -0.205404 -0.113987
v -0.002747 -0.220480 -0.151613
v 0.211738 -0.304323 -0.064962
v 0.060412 -0.300825 -0.066823
v 0.256970 -0.509915 -0.099734
v 0.117330 -0.528338 -0.091287
v 0.237305 -0.552909 -0.076101
v 0.121642 -0.565596 -0.094740
v 0.269304 -0.880655 -0.205849
v 0.156125 -0.882680 -0.199349
v 0.195591 0.132015 -0.208960
v -0.172390 0.124896 -0.203170
v -0.154293 -0.331485 -0.143788
v -0.005367 -0.333227 -0.136007
v -0.158222 -0.434675 -0.122325
v -0.002994 -0.449849 -0.119865
v -0.145153 -0.467257 -0.119366
v -0.013891 -0.482619 -0.117064
v -0.121422 -0.865596 -0.121134
v -0.037478 -0.875872 -0.127369
v -0.128072 -0.940770 -0.085825
v 0.113338 0.692407 -0.212760
v 0.032450 -0.061175 -0.268172
v 0.038527 0.006820 -0.046948
v 0.025871 0.252239 -0.382662
v 0.016155 0.361235 -0.126770
v 0.028995 0.520570 -0.400846
v 0.002960 0.519611 -0.186783
v 0.030709 -0.061142 -0.243884
v 0.034235 -0.026605 -0.071096
v 0.004603 0.608007 -0.362408
v -0.008627 0.571309 -0.188102
v 0.008395 0.629060 -0.339971
v 0.001986 0.614595 -0.143280
v -0.002785 0.656268 -0.298758
v 0.022834 0.154311 -0.087458
v 0.022117 0.099894 -0.319041
v -0.000352 0.686094 -0.322985
v 0.031428 -0.060544 -0.176309
v -0.596000 0.256132 -0.384624
v -0.554959 0.267909 -0.366442
v -0.616134 0.291392 -0.379003
v -0.575666 0.304746 -0.362014
v -0.615144 0.241799 -0.333099
v -0.575290 0.240116 -0.302696
v -0.645698 0.261429 -0.318776
v -0.583495 0.271284 -0.285067
v -0.623755 0.219536 -0.313734
v -0.576113 0.225235 -0.288473
v -0.651207 0.222871 -0.290047
v -0.582146 0.236683 -0.257673
v -0.551848 0.139468 -0.282910
v -0.596845 0.136181 -0.311264
v -0.577293 0.259044 -0.378721
v -0.595850 0.302247 -0.370939
v -0.594181 0.243255 -0.323643
v -0.612326 0.270757 -0.302015
v -0.597673 0.221365 -0.300924
v -0.612215 0.230258 -0.267817
v -0.594814 0.191873 -0.291129
v -0.580883 0.169051 -0.286502
v -0.063743 -0.054491 -0.329284
v -0.064129 0.022914 -0.051134
v -0.061710 0.260062 -0.393222
v -0.089053 0.347604 -0.152337
v -0.084148 0.531569 -0.459998
v -0.150062 0.498403 -0.249192
v -0.077476 -0.115960 -0.272127
v -0.098249 -0.022931 -0.066872
v -0.171589 0.605664 -0.437125
v -0.160150 0.551967 -0.284278
v -0.067819 -0.223481 -0.233483
v -0.076100 -0.199375 -0.061294
v -0.074811 0.154038 -0.091696
v -0.075485 0.111508 -0.325096
v -0.067330 -0.334201 -0.208443
v -0.067855 -0.309563 -0.037447
v -0.080654 -0.465366 -0.238113
v -0.081367 -0.426030 -0.029729
v -0.087883 -0.493648 -0.214206
v -0.092688 -0.461053 -0.052534
v -0.082300 -0.882074 -0.168443
v -0.081981 -0.847678 -0.072643
v -0.075076 -0.993144 -0.177362
v -0.082947 -0.924989 -0.025288
v -0.110421 -1.000130 0.183250
v -0.105950 -0.981233 0.163261
v -0.187607 0.597332 -0.349513
v 0.188000 0.621442 -0.294316
v 0.110686 -0.089160 -0.307595
v 0.114839 0.027849 -0.065652
v 0.133733 0.245784 -0.360261
v 0.100360 0.344830 -0.117866
v 0.203029 0.590893 -0.359844
v 0.125874 0.578122 -0.164458
v 0.118877 -0.125949 -0.249549
v 0.118728 -0.007214 -0.072187
v 0.123660 -0.234204 -0.191036
v 0.128402 -0.165054 -0.003075
v 0.141455 -0.315748 -0.128538
v 0.143983 -0.270617 0.036638
v 0.197196 -0.513805 -0.179358
v 0.161184 -0.535797 -0.001439
v 0.209567 -0.541664 -0.189509
v 0.180394 -0.551275 -0.027643
v 0.200040 -0.899366 -0.316441
v 0.204872 -0.864690 -0.135731
v 0.103728 0.160172 -0.096799
v 0.095269 0.097863 -0.321500
v 0.177208 0.621296 -0.233513
v -0.623459 0.190492 -0.306115
v -0.643231 0.185994 -0.286350
v -0.574664 0.196405 -0.252018
v -0.572833 0.198548 -0.280657
v -0.602954 0.190036 -0.261086
v -0.547873 0.246432 -0.309510
v -0.530597 0.252487 -0.318973
v -0.553839 0.275331 -0.293342
v -0.533014 0.278980 -0.308885
v -0.520850 0.213837 -0.307268
v -0.520095 0.198519 -0.290182
v -0.536724 0.233067 -0.301772
v -0.534142 0.247420 -0.282307
v -0.520819 0.249993 -0.291012
v -0.526141 0.235894 -0.308931
v -0.605787 0.249703 -0.355934
v -0.632073 0.278601 -0.346985
v -0.578911 0.294409 -0.323980
v -0.564992 0.257442 -0.338148
v -0.605496 0.289326 -0.336256
v -0.586751 0.253011 -0.350483
v -0.537523 0.264565 -0.335198
v -0.543102 0.295577 -0.329007
v -0.562237 0.243329 -0.303386
v -0.568442 0.277365 -0.291703
v -0.557972 0.291018 -0.311105
v -0.550611 0.256685 -0.322734
v -0.129340 0.419610 -0.469142
v -0.172427 0.443809 -0.223361
v 0.153063 0.497209 -0.145023
v 0.248489 0.507314 -0.353848
v -0.165974 0.451800 -0.510697
v -0.233454 0.433195 -0.312124
v 0.215161 0.509621 -0.187361
v 0.289499 0.515328 -0.350884
v 0.313883 0.457575 -0.260346
v 0.367097 0.485855 -0.375625
v 0.375171 0.262909 -0.395494
v 0.446777 0.274270 -0.432668
v 0.292645 0.140606 -0.124116
v 0.375574 0.180973 -0.149468
v 0.271084 0.139950 -0.079352
v 0.343732 0.143405 -0.065590
v 0.231299 0.121055 -0.023729
v 0.197477 -0.936617 0.020552
v -0.222267 0.491726 -0.551220
v -0.301839 0.447617 -0.444452
v -0.401209 0.400893 -0.720470
v -0.448598 0.409918 -0.628928
v -0.498742 0.313139 -0.678637
v -0.462041 0.361651 -0.564105
v -0.631665 0.261396 -0.356108
v -0.533513 0.299360 -0.424511
v -0.068019 0.437899 -0.165069
v 0.059564 0.483144 -0.127858
v 0.155249 0.434507 -0.392657
v -0.027312 0.420387 -0.440192
v 0.169743 -0.973827 -0.030046
v 0.002635 0.463154 -0.139828
v 0.080914 0.497307 -0.393250
v -0.554629 0.289202 -0.365749
v -0.646080 0.185488 -0.300882
v -0.575925 0.249154 -0.283454
v -0.650216 0.218448 -0.306539
v -0.570410 0.231052 -0.270830
v -0.643156 0.248858 -0.330586
v -0.082322 0.396448 -0.447002
v -0.131811 0.435409 -0.196077
v 0.100722 0.500157 -0.133114
v 0.211128 0.451570 -0.372071
v -0.618802 0.271007 -0.386462
v -0.566495 0.199532 -0.266221
v -0.526330 0.267542 -0.318111
v -0.560076 0.254339 -0.291715
v -0.528848 0.207611 -0.295095
v -0.542011 0.237589 -0.287275
v -0.519220 0.243814 -0.302233
v -0.595890 0.274203 -0.451625
v -0.535497 0.282653 -0.336872
v 0.120556 0.712758 -0.299229
v 0.090567 0.806248 -0.117182
v 0.118310 0.752172 -0.181839
v 0.359994 0.370669 -0.425751
v 0.425440 0.386365 -0.386688
v 0.385855 0.362207 -0.321458
v 0.328065 0.346542 -0.364019
v 0.417087 0.376003 -0.347277
v 0.331509 0.350895 -0.402764
v 0.402135 0.382044 -0.418239
v 0.345703 0.349942 -0.330080
v 0.262136 0.098524 -0.067355
v 0.271301 0.105110 -0.098853
v 0.250416 0.107007 -0.060040
v 0.269806 0.123547 -0.098266
v 0.246489 0.092149 -0.070794
v -0.047831 -0.998707 0.103717
v -0.071658 -0.964427 0.131786
v -0.136360 -0.980727 0.115935
v -0.143227 -0.996518 0.098030
v 0.173275 -0.942253 -0.001264
v 0.271633 -0.955956 -0.032116
v -0.052365 -0.975015 0.135595
v -0.108007 -0.967910 0.138397
v -0.099880 -0.997852 0.078174
v 0.230548 -0.937762 0.023215
v 0.224505 -0.969459 -0.050204
v 0.055460 0.706788 -0.081925
v 0.033029 0.673643 -0.056662
v -0.101957 0.604656 -0.365868
v 0.244458 -0.866630 -0.164684
v 0.262834 -0.939598 0.011006
v 0.225600 0.077443 -0.042480
v 0.235195 -0.911922 -0.266214
v 0.286221 -0.970214 -0.043867
v 0.236196 -0.996728 0.065889
v 0.231499 -0.966590 0.059350
v -0.032040 -0.954861 -0.076893
v 0.016445 0.898383 -0.273336
v 0.009236 0.894139 -0.177956
v 0.007110 0.874265 -0.137847
v 0.004022 0.813133 -0.349054
v -0.005195 0.885308 -0.325299
v 0.044310 0.765905 -0.093033
v 0.009232 0.819659 -0.088500
v -0.012423 0.782575 -0.362572
v -0.018234 0.729207 -0.349467
v 0.258100 -0.941981 -0.155019
v 0.186195 -0.907325 -0.067619
v 0.173339 -0.912672 -0.099857
v 0.254397 -0.913202 -0.118552
v 0.215245 -0.908519 -0.058033
v 0.208008 -0.935893 -0.183332
v 0.179309 -0.941263 -0.159500
v 0.237304 -0.911208 -0.079268
v -0.063123 -0.996397 -0.009535
v -0.135810 -0.990825 -0.007198
v -0.063484 -0.951519 0.042454
v -0.119677 -0.957548 0.042672
v -0.095788 -0.954693 0.056559
v -0.087758 -0.992499 -0.050397
v -0.127719 -0.960705 0.025047
v -0.047682 -0.960210 0.029982
v 0.172472 -0.804297 -0.168598
v 0.176870 -0.796895 -0.239561
v 0.155609 -0.803978 -0.195696
v 0.242929 -0.802896 -0.188697
v 0.205159 -0.795062 -0.256677
v 0.196161 -0.804704 -0.154560
v 0.227225 -0.803556 -0.166969
v 0.229957 -0.804146 -0.217260
v 0.093929 -0.403340 0.021275
v 0.099531 -0.415517 -0.112169
v 0.228405 -0.404308 -0.103917
v 0.077037 -0.406378 -0.038981
v 0.236708 -0.404733 -0.044988
v 0.165113 -0.411923 -0.124308
v 0.222781 -0.403480 0.000754
v 0.208468 -0.401779 0.041852
v 0.177374 -0.398837 0.053400
v 0.149095 -0.399528 0.066842
v 0.128259 -0.399259 0.054575
v -0.432655 0.353374 -0.603839
v -0.474511 0.392644 -0.633457
v -0.482245 0.382783 -0.671523
v -0.455606 0.384602 -0.600911
v -0.420575 0.345687 -0.702618
v -0.424564 0.333132 -0.660970
v -0.450674 0.353828 -0.715269
v -0.420214 0.329355 -0.640184
v -0.464177 0.357656 -0.715554
v -0.482096 0.379080 -0.690684
vt 0.069736 0.810409
vt 0.070343 0.836608
vt 0.016229 0.816513
vt 0.108198 0.828833
vt 0.082923 0.858291
vt 0.106675 0.817219
vt 0.100807 0.806030
vt 0.150135 0.804118
vt 0.147186 0.813631
vt 0.174865 0.804059
vt 0.199136 0.770721
vt 0.202768 0.808668
vt 0.238571 0.772226
vt 0.263052 0.806977
vt 0.232791 0.807582
vt 0.219562 0.756768
vt 0.197768 0.831600
vt 0.178180 0.842881
vt 0.234127 0.832144
vt 0.215107 0.851808
vt 0.137368 0.848515
vt 0.110896 0.852930
vt 0.145348 0.858722
vt 0.117053 0.872845
vt 0.102955 0.908822
vt 0.126935 0.911784
vt 0.138976 0.939172
vt 0.152030 0.900103
vt 0.166281 0.939086
vt 0.089864 0.882970
vt 0.149277 0.791186
vt 0.257412 0.845823
vt 0.214501 0.867849
vt 0.213059 0.907146
vt 0.051165 0.936868
vt 0.014365 0.995179
vt 0.015016 0.932731
vt 0.015519 0.884587
vt 0.078700 0.906981
vt 0.119497 0.940371
vt 0.219156 0.966110
vt 0.215077 0.942549
vt 0.015832 0.854569
vt 0.016051 0.833512
vt 0.179234 0.620343
vt 0.197718 0.646091
vt 0.173652 0.698841
vt 0.182928 0.613250
vt 0.178951 0.620309
vt 0.026111 0.589592
vt 0.036575 0.571852
vt 0.091358 0.586156
vt 0.124688 0.593060
vt 0.160572 0.604071
vt 0.170757 0.608279
vt 0.530541 0.500669
vt 0.510531 0.463554
vt 0.551834 0.493069
vt 0.552803 0.545871
vt 0.590385 0.499029
vt 0.586699 0.548165
vt 0.709463 0.233461
vt 0.736981 0.227836
vt 0.754824 0.286062
vt 0.746649 0.660255
vt 0.764971 0.572211
vt 0.792005 0.606361
vt 0.782569 0.517985
vt 0.798161 0.553887
vt 0.756625 0.500475
vt 0.737230 0.581062
vt 0.736075 0.519940
vt 0.733529 0.479446
vt 0.750714 0.455948
vt 0.710553 0.534913
vt 0.713606 0.486083
vt 0.707849 0.591243
vt 0.721914 0.656839
vt 0.056404 0.510554
vt 0.059910 0.459217
vt 0.082250 0.470310
vt 0.111457 0.463904
vt 0.112872 0.507403
vt 0.101446 0.443261
vt 0.056753 0.433066
vt 0.024045 0.465652
vt 0.523770 0.443500
vt 0.557804 0.459512
vt 0.592367 0.472603
vt 0.536472 0.416574
vt 0.563911 0.425104
vt 0.586690 0.416660
vt 0.568725 0.405936
vt 0.575182 0.380223
vt 0.594668 0.441922
vt 0.051716 0.399758
vt 0.024388 0.442698
vt 0.081566 0.396057
vt 0.093588 0.424361
vt 0.128566 0.412255
vt 0.109875 0.389620
vt 0.144957 0.383594
vt 0.141775 0.429221
vt 0.140728 0.456272
vt 0.132597 0.505439
vt 0.682119 0.592684
vt 0.697545 0.666171
vt 0.684063 0.542042
vt 0.648993 0.547098
vt 0.685757 0.487986
vt 0.653522 0.591244
vt 0.623556 0.582985
vt 0.679541 0.670859
vt 0.662650 0.670490
vt 0.157697 0.458631
vt 0.158681 0.391976
vt 0.157741 0.429866
vt 0.177530 0.430906
vt 0.454911 0.444893
vt 0.463736 0.393656
vt 0.479621 0.447783
vt 0.429932 0.441906
vt 0.454684 0.472779
vt 0.434980 0.472434
vt 0.472824 0.476894
vt 0.476425 0.525671
vt 0.456561 0.523166
vt 0.499275 0.486705
vt 0.497959 0.533883
vt 0.650874 0.220393
vt 0.668673 0.225869
vt 0.676740 0.279524
vt 0.688030 0.233060
vt 0.523816 0.542864
vt 0.493663 0.422434
vt 0.474451 0.386123
vt 0.482005 0.375180
vt 0.505422 0.400154
vt 0.514707 0.384843
vt 0.523991 0.369532
vt 0.531331 0.397196
vt 0.491685 0.367753
vt 0.128703 0.369584
vt 0.104505 0.368381
vt 0.099134 0.347142
vt 0.124471 0.341259
vt 0.103840 0.290043
vt 0.125032 0.288667
vt 0.506874 0.315104
vt 0.523971 0.318162
vt 0.260244 0.201008
vt 0.260256 0.148470
vt 0.285563 0.152714
vt 0.307173 0.152925
vt 0.307427 0.206656
vt 0.310405 0.109643
vt 0.286264 0.108735
vt 0.286965 0.064755
vt 0.267247 0.062003
vt 0.295875 0.025083
vt 0.263751 0.105236
vt 0.252893 0.056371
vt 0.440764 0.192044
vt 0.442886 0.130542
vt 0.459726 0.145161
vt 0.438643 0.253546
vt 0.412179 0.246705
vt 0.072435 0.349262
vt 0.073244 0.290649
vt 0.045943 0.349562
vt 0.077001 0.372659
vt 0.598868 0.385923
vt 0.596768 0.413923
vt 0.025330 0.379831
vt 0.048830 0.374660
vt 0.025785 0.349403
vt 0.026752 0.284835
vt 0.049424 0.287418
vt 0.388440 0.194221
vt 0.413018 0.188997
vt 0.545758 0.095983
vt 0.484907 0.101111
vt 0.491324 0.068919
vt 0.543531 0.316131
vt 0.571026 0.317433
vt 0.603411 0.325357
vt 0.336412 0.145885
vt 0.334734 0.199716
vt 0.313637 0.066360
vt 0.339506 0.058746
vt 0.419166 0.101111
vt 0.415550 0.073077
vt 0.418936 0.041329
vt 0.485174 0.030517
vt 0.545250 0.041004
vt 0.555771 0.071660
vt 0.550413 0.377675
vt 0.558050 0.404510
vt 0.731741 0.299501
vt 0.713679 0.331519
vt 0.699831 0.287050
vt 0.699623 0.348759
vt 0.689400 0.321677
vt 0.663804 0.312784
vt 0.654456 0.274483
vt 0.634618 0.311670
vt 0.669502 0.338169
vt 0.604363 0.274181
vt 0.630672 0.275261
vt 0.632768 0.219732
vt 0.612796 0.219139
vt 0.578680 0.274242
vt 0.840163 0.675460
vt 0.805000 0.641210
vt 0.821835 0.616809
vt 0.823287 0.709302
vt 0.792442 0.666262
vt 0.801265 0.732258
vt 0.840971 0.744966
vt 0.781333 0.686390
vt 0.557027 0.277312
vt 0.566024 0.224516
vt 0.589504 0.220607
vt 0.375096 0.492402
vt 0.384961 0.458486
vt 0.405199 0.486941
vt 0.410574 0.526483
vt 0.436273 0.522295
vt 0.410194 0.413373
vt 0.430433 0.380777
vt 0.455808 0.393131
vt 0.165665 0.393959
vt 0.192333 0.391907
vt 0.203471 0.419505
vt 0.207389 0.368304
vt 0.225411 0.391622
vt 0.396034 0.384167
vt 0.373257 0.427405
vt 0.420432 0.356604
vt 0.385943 0.354045
vt 0.365034 0.394965
vt 0.359348 0.362250
vt 0.361655 0.322007
vt 0.331496 0.354320
vt 0.389735 0.318213
vt 0.408299 0.313218
vt 0.407520 0.344510
vt 0.211730 0.328779
vt 0.220254 0.292264
vt 0.240239 0.298890
vt 0.032729 0.262939
vt 0.010266 0.262462
vt 0.022123 0.216488
vt 0.183362 0.259934
vt 0.169879 0.261827
vt 0.170456 0.200058
vt 0.152871 0.212064
vt 0.157816 0.257421
vt 0.131245 0.259389
vt 0.152744 0.212061
vt 0.329851 0.315255
vt 0.305156 0.349663
vt 0.332361 0.395198
vt 0.336616 0.434023
vt 0.342953 0.472564
vt 0.302718 0.434937
vt 0.305443 0.474901
vt 0.344205 0.538039
vt 0.305197 0.529271
vt 0.381368 0.533821
vt 0.526919 0.283769
vt 0.770507 0.751644
vt 0.805920 0.758992
vt 0.759849 0.709726
vt 0.733814 0.766693
vt 0.731822 0.732613
vt 0.715848 0.699675
vt 0.731674 0.685305
vt 0.489862 0.276741
vt 0.503649 0.216719
vt 0.536949 0.224504
vt 0.500193 0.577651
vt 0.546406 0.567669
vt 0.550049 0.651223
vt 0.770277 0.950472
vt 0.741703 0.987031
vt 0.721975 0.973279
vt 0.670795 0.949235
vt 0.691763 0.924160
vt 0.667253 0.759822
vt 0.647596 0.761046
vt 0.661418 0.745912
vt 0.674984 0.731059
vt 0.685126 0.785114
vt 0.727911 0.801324
vt 0.684541 0.813951
vt 0.779951 0.788271
vt 0.812240 0.817931
vt 0.777899 0.838219
vt 0.732181 0.843380
vt 0.684428 0.846295
vt 0.661248 0.840977
vt 0.662804 0.852998
vt 0.662157 0.811417
vt 0.664185 0.784673
vt 0.643244 0.784232
vt 0.590894 0.788058
vt 0.588395 0.804006
vt 0.546988 0.807658
vt 0.648291 0.946686
vt 0.655183 0.935733
vt 0.625362 0.944088
vt 0.565379 0.931164
vt 0.577026 0.913602
vt 0.517318 0.950251
vt 0.518656 0.937728
vt 0.532671 0.916079
vt 0.498534 0.934775
vt 0.508386 0.916362
vt 0.498934 0.958053
vt 0.504952 0.967267
vt 0.538647 0.828159
vt 0.520554 0.803562
vt 0.506540 0.794164
vt 0.512161 0.782695
vt 0.526812 0.792410
vt 0.499805 0.976893
vt 0.490810 0.970078
vt 0.606211 0.225665
vt 0.595724 0.228838
vt 0.600010 0.221730
vt 0.495368 0.986286
vt 0.485546 0.980051
vt 0.476390 0.972088
vt 0.479016 0.958002
vt 0.594230 0.216702
vt 0.592138 0.225545
vt 0.586564 0.214627
vt 0.590529 0.228890
vt 0.597639 0.217468
vt 0.605528 0.228876
vt 0.601098 0.232224
vt 0.604423 0.216146
vt 0.496747 0.782205
vt 0.501342 0.775490
vt 0.492601 0.804070
vt 0.489730 0.787509
vt 0.506750 0.811736
vt 0.492742 0.816421
vt 0.513412 0.828903
vt 0.488759 0.827748
vt 0.474192 0.805949
vt 0.511728 0.849291
vt 0.490026 0.847743
vt 0.536808 0.847447
vt 0.531596 0.867423
vt 0.579848 0.843550
vt 0.583631 0.821038
vt 0.639773 0.808883
vt 0.638068 0.835659
vt 0.640348 0.859960
vt 0.577914 0.864185
vt 0.582099 0.876926
vt 0.584670 0.895647
vt 0.537191 0.899022
vt 0.667339 0.876481
vt 0.668457 0.888449
vt 0.646086 0.879394
vt 0.736172 0.880839
vt 0.740176 0.911475
vt 0.690828 0.897503
vt 0.738403 0.943686
vt 0.778359 0.920543
vt 0.803771 0.938845
vt 0.794015 0.972059
vt 0.784290 0.882232
vt 0.808911 0.904111
vt 0.820719 0.863047
vt 0.834152 0.902731
vt 0.860307 0.861182
vt 0.865071 0.907486
vt 0.854923 0.958699
vt 0.829423 0.947565
vt 0.815176 0.985898
vt 0.887162 0.982680
vt 0.841126 0.997513
vt 0.599526 0.582393
vt 0.641540 0.666649
vt 0.148351 0.505738
vt 0.174193 0.461810
vt 0.207317 0.471588
vt 0.195039 0.515146
vt 0.222404 0.449298
vt 0.239531 0.431097
vt 0.252210 0.395818
vt 0.234712 0.343454
vt 0.265749 0.311085
vt 0.059449 0.258487
vt 0.041224 0.210106
vt 0.046055 0.145057
vt 0.065208 0.145112
vt 0.024679 0.151375
vt 0.162418 0.029328
vt 0.182110 0.066625
vt 0.166653 0.067555
vt 0.184383 0.102727
vt 0.186657 0.138828
vt 0.165079 0.140337
vt 0.141648 0.103851
vt 0.138732 0.067952
vt 0.115723 0.103496
vt 0.111228 0.067117
vt 0.106891 0.104386
vt 0.128518 0.203489
vt 0.120218 0.139876
vt 0.144564 0.139751
vt 0.102553 0.141654
vt 0.109393 0.202459
vt 0.089752 0.204557
vt 0.108356 0.261684
vt 0.084126 0.259809
vt 0.282949 0.354017
vt 0.258549 0.351892
vt 0.279678 0.394818
vt 0.273489 0.435894
vt 0.264764 0.465056
vt 0.236144 0.480843
vt 0.230426 0.525231
vt 0.576400 0.576912
vt 0.612982 0.659816
vt 0.582060 0.650525
vt 0.267987 0.525790
vt 0.305231 0.529680
vt 0.303387 0.392990
vt 0.288143 0.310611
vt 0.305042 0.312138
vt 0.080500 0.144623
vt 0.064947 0.207693
vt 0.555911 0.071265
vt 0.491604 0.068128
vt 0.166360 0.018036
vt 0.194569 0.061886
vt 0.205200 0.106980
vt 0.215831 0.152075
vt 0.145490 0.015442
vt 0.142316 0.025664
vt 0.122222 0.019171
vt 0.183428 0.191935
vt 0.098209 0.061670
vt 0.089191 0.103327
vt 0.904527 0.932446
vt 0.949699 0.948466
vt 0.911335 0.882488
vt 0.856281 0.836740
vt 0.887268 0.835598
vt 0.922921 0.857963
vt 0.965169 0.597470
vt 0.917537 0.577056
vt 0.944867 0.540579
vt 0.978071 0.883628
vt 0.973533 0.894384
vt 0.689807 0.425682
vt 0.723753 0.401854
vt 0.723676 0.441929
vt 0.751080 0.416759
vt 0.743080 0.379427
vt 0.787951 0.419748
vt 0.785654 0.452513
vt 0.788706 0.483118
vt 0.832288 0.454003
vt 0.836262 0.425753
vt 0.780027 0.392874
vt 0.831699 0.398084
vt 0.881984 0.402051
vt 0.879661 0.431814
vt 0.870752 0.458245
vt 0.864071 0.473143
vt 0.827228 0.478044
vt 0.861871 0.491751
vt 0.818704 0.500131
vt 0.958919 0.484608
vt 0.962949 0.502797
vt 0.937394 0.181666
vt 0.769056 0.171862
vt 0.923107 0.165442
vt 0.866430 0.519287
vt 0.825735 0.529120
vt 0.815376 0.348115
vt 0.773877 0.335777
vt 0.788825 0.312483
vt 0.742325 0.347461
vt 0.720633 0.360227
vt 0.774690 0.367418
vt 0.820904 0.374810
vt 0.872377 0.354530
vt 0.878939 0.376376
vt 0.819290 0.317856
vt 0.731418 0.161390
vt 0.740781 0.147624
vt 0.910959 0.146351
vt 0.728397 0.116884
vt 0.914298 0.126964
vt 0.743061 0.135898
vt 0.708508 0.185310
vt 0.696037 0.169448
vt 0.707778 0.159044
vt 0.676057 0.226459
vt 0.677608 0.225465
vt 0.676205 0.240475
vt 0.671792 0.238244
vt 0.671579 0.231190
vt 0.675970 0.223623
vt 0.780888 0.198982
vt 0.721993 0.208356
vt 0.777250 0.185608
vt 0.940749 0.196335
vt 0.683363 0.177018
vt 0.717878 0.068662
vt 0.713329 0.057286
vt 0.765911 0.073368
vt 0.691650 0.061870
vt 0.690905 0.050835
vt 0.704049 0.210128
vt 0.580357 0.233572
vt 0.578678 0.228747
vt 0.590575 0.223615
vt 0.632111 0.223278
vt 0.631029 0.218871
vt 0.633990 0.223808
vt 0.634144 0.230548
vt 0.630419 0.230702
vt 0.627492 0.228454
vt 0.685209 0.070727
vt 0.761098 0.088965
vt 0.932747 0.074007
vt 0.937492 0.094905
vt 0.957631 0.466678
vt 0.967928 0.421502
vt 0.960140 0.443954
vt 0.932725 0.111224
vt 0.750793 0.102746
vt 0.705453 0.080670
vt 0.711538 0.076342
vt 0.680790 0.074556
vt 0.626241 0.226931
vt 0.628045 0.218080
vt 0.582846 0.223738
vt 0.622224 0.225301
vt 0.624718 0.220016
vt 0.697557 0.089662
vt 0.676268 0.086597
vt 0.978665 0.398268
vt 0.692023 0.380408
vt 0.864947 0.581494
vt 0.899554 0.604654
vt 0.958903 0.642431
vt 0.337857 0.805645
vt 0.352329 0.816896
vt 0.335849 0.816248
vt 0.980156 0.877558
vt 0.909464 0.816878
vt 0.926421 0.834067
vt 0.281063 0.862176
vt 0.275086 0.902303
vt 0.214060 0.907716
vt 0.263508 0.936732
vt 0.293204 0.935134
vt 0.312830 0.897319
vt 0.306961 0.939965
vt 0.325778 0.911830
vt 0.378134 0.940095
vt 0.415505 0.929827
vt 0.418784 0.993411
vt 0.352990 0.912880
vt 0.416587 0.879286
vt 0.342977 0.862915
vt 0.334404 0.831281
vt 0.356169 0.822831
vt 0.421828 0.803268
vt 0.423463 0.790571
vt 0.281092 0.802015
vt 0.289344 0.787333
vt 0.914935 0.669173
vt 0.894371 0.655267
vt 0.941248 0.648461
vt 0.865116 0.631419
vt 0.904634 0.714904
vt 0.885904 0.758904
vt 0.900499 0.789879
vt 0.899007 0.788698
vt 0.853737 0.811092
vt 0.829870 0.777931
vt 0.860844 0.709530
vt 0.295623 0.819633
vt 0.287258 0.844412
vt 0.325763 0.856591
vt 0.321747 0.877511
vt 0.342095 0.889562
vt 0.420014 0.823008
vt 0.418443 0.847652
vt 0.214754 0.868398
vt 0.684556 0.874120
vt 0.672119 0.912381
vt 0.652475 0.900602
vt 0.639571 0.922231
vt 0.507622 0.881982
vt 0.511692 0.900015
vt 0.489666 0.900137
vt 0.580288 0.220048
vt 0.602597 0.219251
vt 0.595593 0.231166
vt 0.484047 0.918288
vt 0.483902 0.881354
vt 0.469443 0.898677
vt 0.461404 0.882670
vt 0.450183 0.899039
vt 0.464541 0.917413
vt 0.468275 0.936341
vt 0.471954 0.946277
vt 0.450867 0.951575
vt 0.488129 0.950503
vt 0.459843 0.957822
vt 0.474275 0.794513
vt 0.477930 0.782470
vt 0.464248 0.968801
vt 0.593648 0.229043
vt 0.594800 0.219921
vt 0.444295 0.950359
vt 0.455896 0.935741
vt 0.578071 0.229878
vt 0.581080 0.226636
vt 0.582821 0.231325
vt 0.444016 0.932284
vt 0.589242 0.231216
vt 0.447125 0.916158
vt 0.594684 0.224169
vt 0.596039 0.231008
vt 0.534866 0.881347
vt 0.436167 0.876832
vt 0.451786 0.873540
vt 0.502622 0.869488
vt 0.478622 0.869260
vt 0.600669 0.228516
vt 0.470367 0.846306
vt 0.436632 0.875280
vt 0.588033 0.222815
vt 0.620369 0.220488
vt 0.617885 0.228883
vt 0.604039 0.223910
vt 0.625993 0.229515
vt 0.627942 0.223514
vt 0.630553 0.227391
vt 0.474575 0.826305
vt 0.456368 0.843249
vt 0.468600 0.807609
vt 0.462220 0.823292
vt 0.860756 0.332332
vt 0.993439 0.371060
vt 0.986188 0.383142
vt 0.682025 0.226976
vt 0.679969 0.227249
vt 0.679746 0.240699
vt 0.359744 0.137364
vt 0.391687 0.134896
vt 0.379208 0.097067
vt 0.392501 0.134914
vt 0.338867 0.016386
vt 0.351992 0.060701
vt 0.355868 0.099033
vt 0.358824 0.195455
vt 0.357904 0.253546
vt 0.317688 0.022378
vt 0.316028 0.010349
vt 0.365914 0.059220
vt 0.188288 0.626633
vt 0.020225 0.627476
vt 0.077847 0.729049
vt 0.337959 0.102316
vt 0.605326 0.051490
vt 0.620218 0.074402
vt 0.243365 0.103028
vt 0.606609 0.090856
vt 0.080172 0.144983
vt 0.165866 0.103946
vt 0.385193 0.253546
vt 0.333056 0.253546
vt 0.413857 0.131288
vt 0.459290 0.199353
vt 0.286566 0.257455
vt 0.286064 0.205085
vt 0.260233 0.253546
vt 0.180066 0.618899
vt 0.041004 0.571204
vt 0.031313 0.580504
vt 0.176801 0.615736
vt 0.131432 0.592259
vt 0.168093 0.605199
vt 0.087753 0.577968
vt 0.126587 0.355421
vt 0.542484 0.399799
vt 0.686910 0.758599
vt 0.586835 0.222039
vt 0.016410 0.799097
vt 0.148475 0.720072
vt 0.112435 0.731387
vt 0.084152 0.729883
vt 0.033136 0.705214
vt 0.025959 0.628575
vt 0.025663 0.589717
vt 0.019321 0.677833
vt 0.192463 0.676215
vt 0.778378 0.672029
vt 0.084388 0.511316
vt 0.023385 0.509676
vt 0.024874 0.410259
vt 0.501364 0.360326
vt 0.292615 0.013201
vt 0.157751 0.257609
vt 0.305025 0.313375
vt 0.507675 0.653310
vt 0.608429 0.224637
vt 0.167552 0.508667
vt 0.967338 0.518460
vt 0.937757 0.213909
vt 0.591695 0.226894
vt 0.981627 0.633093
vt 0.446385 0.886139
vt 0.437892 0.943408
vt 0.609547 0.219908
vt 0.459305 0.810763
vt 0.679907 0.223732
vt 0.684787 0.235652
vt 0.107612 0.733849
vt 0.168687 0.701495
vt 0.187110 0.679257
vt 0.192365 0.649132
vt 0.140452 0.724767
vt 0.012425 0.676347
vt 0.026831 0.704379
vt 0.030940 0.580778
vt 0.233836 0.149685
vt 0.307681 0.260387
vt 0.458854 0.253546
vt 0.187870 0.626400
vn -0.366400 -0.792600 -0.487400
vn -0.614700 -0.576700 -0.538000
vn 0.552600 -0.465500 -0.691300
vn -0.975800 -0.203600 0.078900
vn -0.826300 -0.356200 -0.436300
vn -0.946100 -0.313500 -0.081100
vn -0.485100 -0.807100 -0.336500
vn -0.780100 -0.468100 0.415100
vn -0.728800 0.067300 0.681400
vn -0.531600 0.057700 0.845000
vn -0.381700 -0.376000 0.844300
vn -0.244700 0.212000 0.946100
vn 0.481000 -0.405500 0.777300
vn 0.942600 -0.062700 0.328000
vn 0.221600 0.286000 0.932200
vn 0.393800 -0.910800 0.123900
vn -0.286600 0.113000 0.951300
vn -0.438700 0.262400 0.859400
vn 0.441400 0.168500 0.881300
vn 0.007200 0.067800 0.997700
vn -0.705600 0.175100 0.686600
vn -0.956100 -0.105800 0.273200
vn -0.514400 0.404500 0.756100
vn -0.904700 0.185400 0.383600
vn -0.679800 0.392500 -0.619500
vn -0.807200 0.526000 0.267700
vn -0.486000 0.873400 -0.030700
vn -0.430400 0.599800 0.674500
vn -0.306400 0.892700 0.330500
vn -0.831700 -0.074900 -0.550200
vn -0.432400 -0.901500 -0.016400
vn 0.902900 0.247800 0.351100
vn 0.189400 0.540500 0.819700
vn 0.383400 0.712200 0.587900
vn -0.258800 0.779700 -0.570100
vn 0.710600 0.694800 -0.111000
vn 0.413800 0.622800 -0.663900
vn 0.696800 0.165400 -0.697900
vn 0.625000 0.765200 0.154300
vn 0.239800 -0.064900 -0.968600
vn 0.110600 -0.329000 -0.937800
vn 0.430600 -0.737800 -0.519700
vn 0.486700 0.063200 0.871300
vn 0.145000 0.002100 0.989400
vn 0.822200 0.143500 0.550700
vn 0.893300 0.166900 0.417200
vn 0.998700 0.027600 -0.041800
vn 0.996300 0.057400 -0.064000
vn 0.973600 -0.101900 0.204300
vn 0.888200 -0.063100 -0.455100
vn 0.897800 -0.275200 0.343900
vn -0.439400 0.209800 -0.873400
vn 0.273600 -0.905700 0.323800
vn -0.029500 0.446000 -0.894500
vn 0.805000 -0.220500 -0.550600
vn 0.300900 0.048000 -0.952400
vn 0.523500 0.548700 -0.651800
vn 0.431100 0.846200 -0.313200
vn 0.509900 -0.102600 -0.854100
vn 0.238900 0.600900 -0.762700
vn 0.398500 -0.261500 -0.879100
vn 0.544100 -0.195000 -0.816000
vn 0.835800 -0.261000 -0.483000
vn 0.651800 -0.319800 -0.687600
vn 0.097800 -0.507500 -0.856000
vn 0.194100 -0.206300 -0.959000
vn 0.077700 -0.673400 -0.735200
vn 0.710700 -0.316200 -0.628400
vn -0.159400 0.344800 0.925000
vn 0.808200 0.211600 0.549600
vn 0.999500 0.012500 -0.028900
vn -0.023600 0.283400 0.958700
vn 0.820300 0.215000 0.530000
vn 0.949600 0.092600 0.299300
vn 0.668000 0.003800 0.744100
vn 0.645900 -0.421200 0.636700
vn 0.991100 0.127400 0.039000
vn 0.745900 -0.080500 -0.661200
vn 0.016900 -0.337600 -0.941100
vn -0.005900 -0.527500 -0.849500
vn -0.739300 -0.419500 -0.526700
vn -0.703100 -0.335600 -0.626800
vn -0.989100 -0.093300 0.113600
vn -0.759600 -0.497700 -0.418600
vn -0.534900 -0.447600 -0.716600
vn -0.075900 -0.258000 -0.963100
vn 0.169900 -0.264200 -0.949400
vn 0.217300 -0.042500 -0.975200
vn 0.160900 0.045800 -0.985900
vn 0.115800 0.534500 -0.837200
vn -0.056500 -0.261800 -0.963400
vn 0.406100 -0.254200 -0.877700
vn 0.049800 -0.255000 -0.965600
vn -0.139900 -0.628600 -0.765000
vn -0.268000 -0.804100 0.530600
vn -0.043600 -0.999000 -0.002100
vn 0.748500 -0.508500 -0.425700
vn -0.075000 -0.821200 0.565700
vn -0.145100 -0.406800 0.901900
vn 0.098200 -0.582800 0.806600
vn 0.052700 -0.190300 0.980300
vn -0.118400 -0.261800 0.957800
vn 0.194600 -0.038100 0.980100
vn 0.100600 0.187100 0.977100
vn 0.016300 0.214700 0.976500
vn 0.240400 0.078300 0.967500
vn 0.217300 0.180900 0.959200
vn 0.231700 0.114500 0.966000
vn 0.520700 0.195200 0.831100
vn -0.819100 0.132400 0.558100
vn -0.990400 -0.121000 0.067000
vn -0.812800 0.097100 0.574400
vn -0.815500 -0.167100 0.554200
vn -0.784700 -0.482700 0.388800
vn -0.602200 -0.124400 0.788600
vn -0.978200 -0.200200 0.055600
vn -0.732200 -0.060000 -0.678400
vn -0.517500 -0.323500 -0.792200
vn -0.958600 -0.235500 -0.160000
vn -0.653600 -0.400600 -0.642000
vn -0.979600 -0.199700 -0.018800
vn -0.566900 -0.573500 0.591200
vn -0.999100 -0.037500 -0.019500
vn -0.993900 -0.110000 -0.010300
vn -0.774500 0.327500 0.541200
vn 0.066400 0.688100 0.722600
vn -0.100700 -0.098500 0.990000
vn 0.135100 0.928700 0.345300
vn -0.481000 0.802900 0.352000
vn -0.273600 0.817700 0.506500
vn -0.864300 0.400000 0.304900
vn -0.456400 0.559900 0.691500
vn -0.976300 0.175900 0.125700
vn -0.749200 -0.653500 -0.108200
vn -0.757500 0.184900 -0.626100
vn -0.701400 -0.497000 -0.510800
vn 0.270900 0.172300 -0.947100
vn -0.051400 0.291000 -0.955300
vn 0.814700 0.148100 -0.560700
vn 0.044300 0.228700 -0.972500
vn 0.993200 -0.110000 0.037800
vn 0.978400 0.161100 0.129500
vn 0.775800 0.292900 -0.558900
vn 0.942500 -0.222000 0.249500
vn 0.971300 -0.165400 -0.170900
vn 0.856800 0.230200 -0.461400
vn 0.239100 0.347900 -0.906500
vn 0.695200 -0.689800 -0.201800
vn 0.917100 -0.393800 -0.062700
vn -0.000100 -0.970400 -0.241300
vn 0.057300 -0.702600 0.709300
vn 0.624000 -0.465800 0.627400
vn 0.752100 0.412900 0.513600
vn 0.651600 -0.032400 0.757800
vn 0.182700 0.813700 0.551700
vn 0.654600 0.628500 0.420100
vn 0.777800 -0.532700 0.333500
vn 0.295100 -0.616600 0.729900
vn -0.683700 -0.452000 0.572900
vn -0.593600 -0.788400 -0.161600
vn 0.000200 -0.966200 -0.257800
vn -0.179700 -0.624800 0.759800
vn 0.410300 -0.042000 0.910900
vn 0.881400 -0.232600 0.411100
vn 0.437400 -0.017800 0.899100
vn 0.661700 0.099700 0.743100
vn -0.143600 0.637900 0.756600
vn 0.070200 0.277300 0.958200
vn -0.144500 0.299600 0.943000
vn -0.056300 0.123000 0.990800
vn -0.320400 0.320700 0.891300
vn -0.378800 0.621200 0.686000
vn -0.322000 0.189700 0.927500
vn -0.181000 0.143700 0.972900
vn -0.049300 0.252100 0.966400
vn -0.272500 0.292500 0.916600
vn -0.420200 0.257000 0.870300
vn -0.492000 0.288600 0.821300
vn -0.659600 0.332400 0.674000
vn -0.616300 0.423200 0.664100
vn -0.452600 0.286400 0.844400
vn -0.530800 0.202900 0.822800
vn -0.155200 0.273400 0.949200
vn -0.481600 0.008800 0.876300
vn -0.206800 -0.183600 0.961000
vn -0.067000 -0.061800 0.995800
vn 0.778600 0.076300 0.622800
vn 0.995900 0.001900 0.090200
vn 0.942600 -0.220200 0.250800
vn 0.806400 -0.166600 -0.567400
vn 0.997100 -0.045000 0.061800
vn 0.809800 -0.109500 -0.576300
vn 0.834000 0.046900 0.549800
vn 0.020100 0.109400 0.993800
vn 0.711400 -0.215900 0.668800
vn 0.072200 0.142300 0.987200
vn 0.011700 -0.205300 0.978600
vn -0.037500 -0.302100 0.952500
vn -0.703000 -0.046600 0.709700
vn 0.617700 -0.196700 0.761400
vn 0.981300 -0.176800 0.075600
vn 0.977100 -0.197900 0.078300
vn 0.782400 -0.447900 -0.432600
vn 0.966500 -0.072000 -0.246300
vn 0.845900 0.144400 0.513400
vn 0.050800 0.193900 0.979700
vn -0.791800 -0.102000 0.602100
vn -0.996900 -0.076700 0.013800
vn -0.767200 0.098900 0.633700
vn -0.756300 -0.001800 0.654200
vn -0.827700 0.005300 0.561100
vn -0.987800 -0.098400 -0.120500
vn -0.993300 -0.115600 -0.007700
vn -0.889200 0.109800 0.444100
vn -0.998400 0.034200 0.045400
vn -0.888500 0.022900 0.458300
vn -0.874600 0.023900 0.484100
vn -0.724700 0.370400 0.581000
vn -0.813800 -0.136100 0.564900
vn -0.720400 -0.673300 0.166400
vn -0.540400 -0.833500 0.115100
vn -0.985400 -0.147600 0.084700
vn -0.845600 -0.382800 -0.371900
vn -0.907400 -0.132000 -0.398900
vn 0.578000 -0.815400 -0.032000
vn 0.659400 -0.367700 -0.655700
vn 0.866500 0.208600 0.453600
vn 0.866200 -0.341500 0.364800
vn 0.756200 -0.645600 0.106800
vn -0.559500 0.273600 0.782300
vn -0.795600 0.523400 0.305100
vn -0.727400 0.626100 0.280700
vn -0.783300 0.386800 0.486600
vn -0.497700 0.802100 0.329900
vn -0.474900 0.875500 -0.089200
vn -0.395700 0.896300 -0.200100
vn -0.481300 0.800100 -0.357800
vn -0.783400 0.612300 -0.106600
vn -0.787000 0.410600 -0.460500
vn -0.603300 0.788100 0.121600
vn 0.415200 0.747100 0.519100
vn 0.638900 0.550700 0.537200
vn 0.795800 -0.534700 0.284200
vn 0.798600 0.367000 0.477100
vn 0.872000 0.489100 -0.020400
vn 0.542900 -0.818800 -0.186400
vn 0.385900 -0.921100 0.050900
vn 0.729600 -0.671200 -0.131100
vn 0.282000 -0.958700 -0.037700
vn 0.294300 -0.912000 -0.285500
vn 0.281700 -0.938200 -0.200800
vn 0.632200 -0.561600 -0.533800
vn 0.892600 0.289400 -0.345600
vn 0.088700 0.980200 0.176900
vn 0.511500 0.855300 0.082700
vn 0.660400 0.650000 0.376000
vn 0.951000 0.179200 -0.252000
vn 0.426100 -0.509900 -0.747300
vn 0.977200 0.009300 -0.211800
vn 0.381200 -0.416200 -0.825500
vn 0.207700 -0.265200 -0.941500
vn -0.697200 -0.521200 -0.492200
vn -0.260800 -0.856400 -0.445600
vn -0.799600 -0.598800 -0.046200
vn -0.621900 -0.507900 0.596000
vn 0.284200 -0.901600 0.326000
vn 0.800200 0.304200 0.516800
vn 0.111000 0.135700 0.984500
vn 0.190800 0.512800 0.837000
vn 0.089800 0.875900 0.474100
vn 0.097400 0.595800 0.797200
vn -0.179000 0.920000 0.348500
vn -0.021900 0.639500 0.768500
vn 0.871500 0.054000 0.487400
vn -0.387100 0.876900 0.284900
vn -0.417700 0.731700 0.538600
vn -0.352800 0.925500 0.137500
vn -0.764200 0.634800 -0.113800
vn -0.463700 0.883800 0.061600
vn 0.207200 0.898200 0.387700
vn -0.156400 0.960900 0.228400
vn -0.759700 0.630500 -0.159100
vn -0.898200 0.140700 -0.416400
vn -0.863200 0.448600 -0.231500
vn -0.828200 -0.433500 -0.355000
vn -0.101700 -0.983000 -0.152900
vn -0.181900 -0.964800 -0.190100
vn -0.435500 -0.136300 -0.889800
vn 0.052000 -0.455400 -0.888700
vn -0.512300 -0.571800 -0.640800
vn 0.169100 0.826300 -0.537200
vn 0.667400 0.158400 -0.727600
vn 0.290900 0.254500 -0.922200
vn -0.311700 -0.712500 -0.628600
vn 0.466900 -0.186100 -0.864500
vn 0.473600 -0.226200 -0.851200
vn -0.367400 -0.455900 -0.810700
vn 0.236400 0.593900 -0.769000
vn 0.320400 0.262700 -0.910100
vn -0.124400 0.846400 -0.517800
vn 0.351900 0.281000 -0.892800
vn -0.029500 0.932100 -0.360900
vn 0.420800 0.417600 -0.805300
vn 0.359600 -0.222600 -0.906100
vn 0.255800 -0.288400 -0.922700
vn 0.145500 -0.357400 -0.922500
vn 0.028000 -0.313700 -0.949100
vn 0.481600 -0.389700 -0.784900
vn -0.129600 -0.329200 -0.935300
vn -0.144000 -0.258800 -0.955100
vn -0.143000 -0.489200 -0.860400
vn 0.003400 -0.271200 -0.962500
vn -0.028100 -0.073200 -0.996900
vn 0.761500 -0.399100 -0.510600
vn -0.110200 -0.422100 -0.899800
vn 0.735300 -0.050900 -0.675800
vn 0.707800 -0.650000 -0.276300
vn 0.069200 -0.577700 -0.813300
vn 0.991200 -0.112000 0.070700
vn 0.145700 0.828000 0.541400
vn 0.805500 0.578500 0.128300
vn 0.167000 0.965800 0.198300
vn 0.949200 0.297800 0.101500
vn 0.734100 0.514700 0.442900
vn -0.154900 0.961900 0.225000
vn -0.324600 0.886200 0.330600
vn -0.439000 0.876500 0.197400
vn -0.759700 0.633500 0.146500
vn -0.819800 0.568900 0.065600
vn -0.813000 0.142700 0.564500
vn -0.723000 0.590300 0.358800
vn -0.059200 0.854400 0.516300
vn -0.996900 0.022900 -0.075200
vn -0.993500 -0.022900 -0.111700
vn -0.808100 -0.074200 -0.584300
vn -0.972600 -0.229700 0.034400
vn -0.902900 -0.153000 -0.401700
vn -0.812600 -0.062000 -0.579500
vn -0.054700 -0.218000 -0.974400
vn -0.636500 -0.082000 -0.766900
vn -0.640900 -0.218400 -0.735800
vn -0.745900 -0.258900 -0.613700
vn -0.627500 -0.189900 -0.755100
vn -0.534400 -0.324200 -0.780500
vn -0.992900 -0.010100 -0.118600
vn -0.629400 -0.649600 -0.426300
vn -0.081900 -0.027600 -0.996200
vn -0.804400 -0.591200 -0.058700
vn -0.058500 -0.997900 -0.027800
vn -0.034400 -0.998800 -0.034600
vn 0.466100 -0.884700 -0.006500
vn 0.744200 -0.667900 -0.001600
vn 0.604000 -0.364600 0.708700
vn -0.309800 -0.389800 0.867200
vn -0.341600 0.825700 0.448800
vn -0.714100 -0.274000 0.644200
vn -0.848500 -0.528900 -0.013000
vn 0.249300 0.267100 -0.930800
vn 0.277400 0.651000 -0.706600
vn -0.343400 0.939100 0.011700
vn -0.087800 0.917800 -0.387000
vn 0.313500 0.752600 -0.579000
vn 0.389000 0.840700 -0.376600
vn 0.100700 0.945100 0.310700
vn 0.096300 0.964200 -0.247200
vn 0.057300 0.959600 0.275400
vn 0.025400 0.978100 -0.206500
vn 0.544600 0.710600 0.445500
vn 0.396100 0.198800 0.896400
vn 0.887200 0.341300 0.310300
vn 0.736400 0.639300 -0.221300
vn 0.329500 0.634000 -0.699600
vn 0.912200 0.363700 -0.188400
vn 0.852000 -0.006600 0.523400
vn 0.597800 -0.128800 0.791200
vn 0.377400 -0.437000 0.816400
vn -0.115100 0.000100 0.993300
vn 0.357500 0.387400 0.849800
vn 0.989400 0.133100 0.057400
vn 0.826300 -0.056000 -0.560400
vn 0.416800 0.369100 -0.830700
vn 0.377500 -0.483200 -0.789900
vn -0.263600 0.134800 -0.955100
vn 0.887300 0.288400 0.359800
vn 0.892600 -0.443200 0.082200
vn 0.610600 -0.777400 0.150500
vn 0.343700 -0.916400 -0.204800
vn -0.251600 -0.727700 -0.638100
vn -0.778900 -0.263600 -0.569100
vn -0.766200 -0.613200 0.192000
vn 0.300400 -0.754800 0.583000
vn 0.462800 -0.337700 0.819600
vn 0.193300 0.467300 0.862700
vn 0.147400 -0.562700 0.813400
vn -0.386200 -0.618600 0.684200
vn -0.780300 -0.453400 -0.430800
vn -0.757500 -0.204000 0.620100
vn 0.243000 -0.962500 0.120200
vn -0.240300 -0.719500 -0.651600
vn -0.197000 -0.887900 -0.415700
vn -0.855600 0.373900 -0.357900
vn -0.872800 -0.119300 -0.473300
vn -0.781900 0.202800 -0.589400
vn -0.455100 -0.670700 -0.585600
vn -0.947900 0.154900 -0.278400
vn 0.442100 -0.702400 0.557800
vn -0.434700 -0.861400 -0.262700
vn -0.417200 0.311600 0.853700
vn 0.528900 0.746200 0.404200
vn 0.867500 0.162600 0.470100
vn 0.955400 0.007700 0.295100
vn -0.443100 -0.619500 -0.648000
vn 0.022000 0.764000 0.644800
vn 0.120500 0.067400 0.990400
vn 0.968800 0.038300 0.244900
vn 0.955900 -0.198100 -0.216600
vn 0.068700 -0.363500 -0.929000
vn 0.152400 -0.986300 -0.062700
vn 0.028100 -0.987600 0.154100
vn -0.434100 0.046200 0.899700
vn -0.122700 0.960800 0.248400
vn 0.314000 0.854900 0.412800
vn -0.365000 0.900300 0.237200
vn -0.841500 0.537800 -0.051500
vn -0.587300 0.806200 -0.071300
vn -0.742000 0.659300 0.121400
vn -0.375400 0.753600 0.539500
vn -0.959900 -0.125600 0.250700
vn -0.018000 -0.984300 -0.175500
vn 0.457000 0.377100 0.805500
vn 0.979100 0.088400 0.182900
vn 0.815200 0.060700 -0.575900
vn 0.744500 -0.663700 -0.072200
vn -0.178700 0.983700 0.017800
vn -0.185200 0.857000 -0.480800
vn 0.558500 0.270600 0.784100
vn 0.565900 0.496200 0.658400
vn -0.803200 0.406600 0.435300
vn -0.698200 0.685100 0.207500
vn 0.334300 0.835900 0.435300
vn -0.547900 0.833200 -0.074300
vn 0.490700 0.850500 -0.189500
vn 0.908300 0.413200 0.065700
vn 0.389500 0.644500 -0.657900
vn 0.721700 0.093800 -0.685800
vn -0.779200 0.505400 -0.370500
vn -0.589000 0.198000 -0.783500
vn 0.802200 -0.333200 -0.495400
vn 0.902400 -0.427000 0.057600
vn 0.469800 -0.703000 -0.533900
vn -0.633100 -0.457300 -0.624500
vn 0.662100 -0.586100 0.467000
vn 0.658600 -0.713200 0.239900
vn -0.309500 0.041000 0.950000
vn -0.091900 0.315000 0.944600
vn -0.454500 -0.441000 0.773900
vn -0.039900 -0.174300 0.983900
vn -0.308200 0.395200 0.865300
vn -0.552400 0.465400 0.691500
vn -0.676200 0.240700 0.696300
vn -0.693700 0.655000 0.299400
vn -0.551100 0.796000 0.250400
vn -0.562800 0.432400 0.704500
vn -0.417400 0.419100 0.806300
vn 0.773800 0.015700 0.633200
vn -0.436600 -0.032400 0.899000
vn 0.628800 -0.058100 0.775400
vn 0.942700 -0.219000 0.251800
vn 0.933600 -0.131300 0.333400
vn 0.766800 -0.122900 -0.629900
vn -0.848100 -0.303500 -0.434300
vn -0.685400 0.244500 -0.685800
vn -0.745500 -0.012000 0.666300
vn -0.199800 0.367300 -0.908400
vn 0.432700 -0.672000 -0.600900
vn 0.243600 -0.895700 -0.372100
vn 0.472100 -0.881500 0.006300
vn -0.783500 -0.378700 -0.492500
vn -0.095600 -0.940200 -0.327000
vn -0.012700 -0.824100 -0.566200
vn 0.273700 -0.890200 -0.364100
vn -0.712300 -0.419400 0.562700
vn -0.808300 -0.393600 -0.437700
vn 0.325100 -0.837000 -0.440200
vn -0.766600 -0.305600 -0.564600
vn 0.070800 -0.490600 -0.868500
vn -0.827400 -0.239100 -0.508200
vn 0.083300 -0.072300 -0.993900
vn 0.472500 -0.461100 -0.751100
vn 0.540700 -0.806900 -0.237900
vn 0.329900 -0.937900 0.107400
vn 0.146500 -0.870600 -0.469600
vn 0.084100 -0.357600 0.930100
vn 0.955000 0.251200 0.157700
vn 0.834900 -0.189200 -0.516900
vn 0.977600 0.170700 0.123400
vn 0.456900 -0.877800 -0.143700
vn 0.723400 0.087900 -0.684800
vn 0.471300 0.013200 -0.881900
vn -0.867500 -0.332900 -0.369400
vn -0.862600 0.146000 0.484300
vn -0.784400 0.618000 -0.051900
vn -0.842900 0.511800 0.165900
vn -0.452200 0.310000 0.836200
vn -0.248500 -0.927800 -0.278200
vn -0.321100 -0.441100 0.838000
vn 0.294300 -0.174300 0.939700
vn 0.221600 0.424500 0.877900
vn -0.561900 -0.552600 0.615500
vn 0.981800 0.092700 -0.165800
vn 0.653900 -0.533200 -0.536800
vn 0.820800 0.552600 0.144400
vn 0.896100 0.415100 0.157100
vn 0.983000 0.172700 0.062400
vn 0.256600 0.524200 0.812000
vn 0.557100 0.780000 0.284900
vn 0.016900 -0.225800 -0.974000
vn 0.329500 0.914900 0.233200
vn -0.719700 -0.131700 0.681600
vn -0.043700 -0.111800 0.992700
vn 0.178500 -0.469000 0.864900
s 1
f 5/1/1 10/2/2 25/3/3
f 18/4/4 28/5/5 10/2/2
f 14/6/6 5/1/1 12/7/7
f 14/6/6 6/8/8 18/4/4
f 14/6/6 18/4/4 10/2/2
f 18/4/4 6/8/8 11/9/9
f 11/9/9 6/8/8 32/10/10
f 6/8/8 20/11/11 32/10/10
f 32/10/10 20/11/11 26/12/12
f 34/13/13 33/14/14 35/15/15
f 34/13/13 20/11/11 19/16/16
f 34/13/13 35/15/15 26/12/12
f 26/12/12 24/17/17 17/18/18
f 24/17/17 36/19/19 30/20/20
f 17/18/18 32/10/10 26/12/12
f 17/18/18 11/9/9 32/10/10
f 17/18/18 27/21/21 11/9/9
f 18/4/4 29/22/22 28/5/5
f 29/22/22 18/4/4 11/9/9
f 27/21/21 7/23/23 15/24/24
f 9/25/25 16/26/26 13/27/27
f 16/26/26 8/28/28 3/29/29
f 15/24/24 7/23/23 8/28/28
f 16/26/26 9/25/25 4/30/30
f 4/30/30 28/5/5 29/22/22
f 1/31/31 14/6/6 12/7/7
f 14/6/6 1/31/31 6/8/8
f 19/16/16 20/11/11 6/8/8
f 35/15/15 36/19/19 24/17/17
f 30/20/20 36/19/19 37/32/32
f 30/20/20 21/33/33 17/18/18
f 7/23/23 27/21/21 17/18/18
f 7/23/23 21/33/33 23/34/34
f 2/35/35 38/36/36 41/37/37
f 40/38/38 9/39/25 2/35/35
f 2/40/35 13/27/27 38/41/36
f 3/29/29 38/41/36 13/27/27
f 3/29/29 39/42/39 38/41/36
f 3/29/29 8/28/28 23/34/34
f 9/39/25 40/38/38 42/43/40
f 42/43/40 31/44/41 28/5/5
f 31/44/41 25/3/3 10/2/2
f 33/14/14 37/32/32 35/15/15
f 37/32/32 36/19/19 35/15/15
f 25/45/3 31/46/41 40/47/38
f 22/48/42 25/49/3 33/50/14
f 22/48/42 34/51/13 19/52/16
f 1/53/31 12/54/7 5/55/1
f 44/56/43 337/57/44 56/58/45
f 44/56/43 56/58/45 174/59/46
f 56/58/45 206/60/47 251/61/48
f 174/62/46 251/63/48 208/64/49
f 173/65/50 59/66/51 208/67/49
f 59/66/51 67/68/52 212/69/53
f 67/68/52 59/66/51 385/70/54
f 59/66/51 47/71/55 381/72/56
f 381/72/56 51/73/57 63/74/58
f 381/72/56 420/75/59 334/76/60
f 420/75/59 381/72/56 47/71/55
f 332/77/61 47/71/55 169/78/62
f 47/71/55 59/66/51 173/65/50
f 173/79/50 55/80/63 43/81/64
f 43/81/64 330/82/65 349/83/66
f 43/81/64 55/80/63 336/84/67
f 336/84/67 55/80/63 144/85/68
f 144/85/68 55/80/63 206/86/47
f 206/86/47 55/80/63 173/79/50
f 56/58/45 339/87/69 145/88/70
f 145/88/70 239/89/71 206/60/47
f 145/88/70 341/90/72 153/91/73
f 507/92/74 508/93/75 157/94/76
f 153/91/73 243/95/77 239/89/71
f 152/96/78 144/85/68 239/97/71
f 340/98/79 338/99/80 144/85/68
f 148/100/81 154/101/82 241/102/83
f 154/101/82 148/100/81 338/99/80
f 148/100/81 123/103/84 336/84/67
f 111/104/85 330/82/65 336/84/67
f 111/104/85 179/105/86 349/83/66
f 115/106/87 332/77/61 349/107/66
f 332/77/61 115/106/87 406/108/88
f 406/108/88 410/109/89 119/110/90
f 410/109/89 265/111/91 116/112/92
f 406/108/88 115/106/87 265/111/91
f 115/106/87 179/113/86 277/114/93
f 179/105/86 111/104/85 263/115/94
f 123/103/84 279/116/95 269/117/96
f 263/115/94 111/104/85 123/103/84
f 263/115/94 269/117/96 124/118/97
f 124/118/97 269/117/96 279/116/95
f 270/119/98 279/120/95 125/121/99
f 279/120/95 270/119/98 126/122/100
f 270/119/98 264/123/101 114/124/102
f 125/121/99 113/125/103 264/123/101
f 113/125/103 177/126/104 276/127/105
f 331/128/106 348/129/107 177/126/104
f 177/130/104 348/131/107 333/132/108
f 333/132/108 348/131/107 170/133/109
f 44/56/43 331/128/106 337/57/44
f 331/128/106 44/56/43 170/134/109
f 337/57/44 125/121/99 150/135/110
f 337/57/44 331/128/106 113/125/103
f 125/121/99 279/120/95 150/135/110
f 279/120/95 241/136/83 150/135/110
f 241/136/83 244/137/111 150/135/110
f 150/135/110 244/137/111 155/138/112
f 501/139/113 159/140/114 511/141/115
f 155/138/112 244/137/111 504/142/116
f 244/143/111 241/102/83 154/101/82
f 502/144/117 158/145/118 246/146/119
f 162/147/120 248/148/121 246/146/119
f 248/149/121 163/150/122 159/140/114
f 495/151/123 250/152/124 165/153/125
f 165/153/125 347/154/126 498/155/127
f 481/156/128 478/157/129 395/158/130
f 395/158/130 450/159/131 168/160/132
f 478/157/129 479/161/133 450/159/131
f 168/160/132 450/159/131 408/162/134
f 494/163/135 164/164/136 250/165/124
f 494/163/135 162/166/120 344/167/137
f 162/147/120 158/145/118 342/168/138
f 344/169/137 342/168/138 156/170/139
f 506/171/140 340/98/79 152/96/78
f 157/94/76 245/172/141 505/173/142
f 505/174/142 503/175/143 152/96/78
f 245/176/141 247/177/144 160/178/145
f 500/179/146 497/180/147 344/167/137
f 477/181/148 464/182/149 456/183/150
f 157/94/76 345/184/151 161/185/152
f 247/186/144 245/172/141 157/94/76
f 347/154/126 460/187/153 499/188/154
f 481/156/128 455/189/155 461/190/156
f 166/191/157 465/192/158 456/183/150
f 465/192/158 167/193/159 408/194/134
f 408/162/134 450/159/131 479/161/133
f 483/195/160 482/196/161 456/183/150
f 345/184/151 157/94/76 343/197/162
f 509/198/163 508/93/75 153/91/73
f 509/198/163 153/91/73 341/90/72
f 511/141/115 159/140/114 343/197/162
f 163/150/122 345/184/151 343/197/162
f 502/144/117 154/101/82 340/98/79
f 339/87/69 337/57/44 150/135/110
f 339/87/69 341/90/72 145/88/70
f 339/87/69 150/135/110 155/138/112
f 337/57/44 339/87/69 56/58/45
f 241/102/83 279/116/95 123/103/84
f 60/199/164 380/200/165 48/201/166
f 48/201/166 170/133/109 174/62/46
f 380/200/165 335/202/167 419/203/168
f 419/203/168 333/132/108 48/201/166
f 405/204/169 117/205/170 333/132/108
f 409/206/171 405/204/169 121/207/172
f 409/206/171 118/208/173 266/209/174
f 266/209/174 117/205/170 405/204/169
f 276/210/105 177/130/104 117/205/170
f 266/209/174 118/208/173 178/211/175
f 178/211/175 118/208/173 305/212/176
f 404/213/177 118/214/173 409/215/171
f 418/216/178 305/217/176 118/214/173
f 379/218/179 418/216/178 307/219/180
f 379/218/179 49/220/181 305/217/176
f 49/221/181 171/222/182 314/223/183
f 45/224/184 309/225/185 303/226/186
f 45/224/184 303/226/186 314/227/183
f 303/226/186 114/124/102 178/228/175
f 114/124/102 264/123/101 276/127/105
f 309/225/185 151/229/187 126/122/100
f 126/122/100 114/124/102 303/226/186
f 151/229/187 242/230/188 230/231/189
f 230/232/189 242/233/188 149/234/190
f 242/233/188 254/235/191 183/236/192
f 184/237/193 151/229/187 313/238/194
f 184/237/193 254/239/191 242/230/188
f 254/239/191 184/237/193 188/240/195
f 317/241/196 184/237/193 313/238/194
f 317/241/196 319/242/197 188/240/195
f 321/243/198 319/242/197 185/244/199
f 321/243/198 192/245/200 188/240/195
f 192/245/200 258/246/201 256/247/202
f 256/248/202 258/249/201 191/250/203
f 191/251/203 258/252/201 260/253/204
f 258/254/201 192/255/200 196/256/205
f 323/257/206 321/258/198 189/259/207
f 323/260/206 196/256/205 192/255/200
f 189/261/207 321/243/198 185/244/199
f 189/261/207 185/244/199 255/262/208
f 255/262/208 185/244/199 181/263/209
f 319/242/197 317/241/196 181/263/209
f 146/264/210 313/238/194 57/265/211
f 181/263/209 317/241/196 313/238/194
f 181/263/209 146/264/210 240/266/212
f 146/264/210 57/265/211 207/267/213
f 57/265/211 175/268/214 252/269/215
f 45/224/184 57/265/211 309/225/185
f 45/224/184 171/270/182 175/268/214
f 171/222/182 49/221/181 61/271/216
f 383/272/217 379/218/179 53/273/218
f 383/272/217 61/274/216 49/220/181
f 383/272/217 397/275/219 95/276/220
f 95/276/220 222/277/221 209/278/222
f 209/279/222 252/280/215 175/281/214
f 209/282/222 62/283/223 176/284/224
f 62/285/223 209/286/222 222/287/221
f 222/287/221 224/288/225 100/289/226
f 512/290/227 103/291/228 519/292/229
f 224/293/225 222/277/221 95/276/220
f 95/276/220 397/275/219 399/294/230
f 397/275/219 97/295/231 101/296/232
f 383/272/217 53/273/218 65/297/233
f 65/297/233 97/295/231 397/275/219
f 65/297/233 328/298/234 211/299/235
f 211/299/235 223/300/236 97/295/231
f 223/300/236 225/301/237 101/296/232
f 514/302/238 225/301/237 521/303/239
f 514/302/238 513/304/240 101/296/232
f 513/304/240 515/305/241 399/294/230
f 401/306/242 103/291/228 512/290/227
f 107/307/243 403/308/244 411/309/245
f 403/308/244 107/307/243 103/291/228
f 519/310/229 517/311/246 224/288/225
f 103/312/228 107/313/243 228/314/247
f 107/313/243 411/315/245 281/316/248
f 107/313/243 281/316/248 294/317/249
f 281/316/248 369/318/250 371/319/251
f 369/318/250 281/316/248 372/320/252
f 281/316/248 411/315/245 429/321/253
f 411/309/245 283/322/254 373/323/255
f 359/324/256 423/325/257 429/326/253
f 423/327/257 357/328/258 372/320/252
f 427/329/259 360/330/260 365/331/261
f 427/332/259 365/333/261 357/328/258
f 365/333/261 362/334/262 356/335/263
f 362/336/262 425/337/264 426/338/265
f 425/337/264 360/330/260 361/339/266
f 362/336/262 365/331/261 360/330/260
f 361/340/266 364/341/267 363/342/268
f 364/341/267 361/340/266 360/343/260
f 364/344/267 427/345/259 423/325/257
f 359/324/256 358/346/269 363/347/268
f 376/348/270 375/349/271 358/346/269
f 359/324/256 373/323/255 376/348/270
f 373/323/255 283/322/254 368/350/272
f 287/351/273 413/352/274 375/349/271
f 375/349/271 376/348/270 368/350/272
f 368/350/272 370/353/275 297/354/276
f 283/322/254 295/355/277 370/353/275
f 370/353/275 295/355/277 282/356/278
f 282/356/278 295/355/277 229/357/279
f 295/355/277 283/322/254 109/358/280
f 109/358/280 283/322/254 411/309/245
f 109/358/280 403/308/244 401/306/242
f 105/359/281 227/360/282 229/357/279
f 227/360/282 106/361/283 110/362/284
f 428/363/285 108/364/286 280/365/287
f 520/366/288 518/367/289 400/368/290
f 98/369/291 396/370/292 398/371/293
f 396/370/292 96/372/294 100/289/226
f 382/373/295 62/285/223 96/372/294
f 382/373/295 378/374/296 50/375/297
f 382/373/295 66/376/298 54/377/299
f 66/376/298 382/373/295 396/370/292
f 98/369/291 223/300/236 211/299/235
f 211/299/235 328/298/234 310/378/300
f 310/378/300 306/379/301 54/377/299
f 310/378/300 127/380/302 120/381/303
f 407/382/304 417/383/305 306/379/301
f 378/374/296 54/377/299 306/379/301
f 417/383/305 304/384/306 50/375/297
f 407/382/304 410/385/89 116/386/92
f 116/386/92 304/384/306 417/383/305
f 304/387/306 116/112/92 180/388/307
f 265/111/91 277/114/93 180/388/307
f 277/389/93 263/115/94 112/390/308
f 112/390/308 302/391/309 315/392/310
f 112/390/308 124/118/97 308/393/311
f 308/393/311 124/118/97 149/234/190
f 312/394/312 149/234/190 183/236/192
f 316/395/313 183/236/192 187/396/314
f 187/396/314 183/236/192 254/235/191
f 187/396/314 191/250/203 320/397/315
f 320/398/315 191/251/203 195/399/316
f 195/399/316 199/400/317 324/401/318
f 195/399/316 260/253/204 467/402/319
f 203/403/320 452/404/321 447/405/322
f 492/406/323 467/407/319 200/408/324
f 489/409/325 453/410/326 447/405/322
f 489/409/325 488/411/327 448/412/328
f 491/413/329 448/412/328 488/411/327
f 193/414/330 323/260/206 189/259/207
f 193/414/330 197/415/331 325/416/332
f 261/417/333 259/418/334 194/419/335
f 261/417/333 197/415/331 193/414/330
f 193/414/330 189/259/207 257/420/336
f 190/421/337 194/419/335 259/418/334
f 194/419/335 190/421/337 320/398/315
f 186/422/338 318/423/339 320/397/315
f 186/422/338 182/424/340 316/395/313
f 147/425/341 312/394/312 316/395/313
f 147/425/341 58/426/342 308/393/311
f 46/427/343 302/391/309 308/393/311
f 46/427/343 172/428/344 315/392/310
f 50/429/297 304/387/306 315/430/310
f 172/431/344 176/284/224 62/283/223
f 46/427/343 58/426/342 176/432/224
f 207/267/213 252/433/215 176/432/224
f 147/425/341 240/266/212 207/267/213
f 182/424/340 253/434/345 240/266/212
f 182/424/340 186/422/338 255/262/208
f 190/435/337 257/436/336 255/262/208
f 198/437/346 261/417/333 194/419/335
f 198/437/346 194/419/335 322/438/347
f 486/181/348 490/439/349 454/440/350
f 485/195/351 446/194/352 454/440/350
f 446/194/352 202/193/353 326/192/354
f 202/441/353 446/442/352 452/404/321
f 485/443/351 199/444/317 467/407/319
f 326/445/354 327/446/355 201/447/356
f 326/445/354 202/441/353 203/403/320
f 467/407/319 260/448/204 196/256/205
f 327/446/355 453/410/326 448/412/328
f 201/447/356 448/412/328 449/449/357
f 449/182/357 454/440/350 326/192/354
f 491/413/329 486/450/348 449/449/357
f 267/451/358 119/452/90 410/385/89
f 267/451/358 410/385/89 407/382/304
f 120/381/303 127/380/302 271/453/359
f 127/380/302 459/454/360 131/455/361
f 131/455/361 273/456/362 271/453/359
f 132/457/363 231/458/364 128/459/365
f 132/460/363 128/461/365 271/453/359
f 271/453/359 128/461/365 119/452/90
f 128/462/365 350/463/366 329/464/367
f 329/464/367 334/76/60 119/110/90
f 329/464/367 63/74/58 51/73/57
f 210/465/368 350/463/366 64/466/369
f 63/74/58 329/464/367 350/463/366
f 213/467/370 69/468/371 63/74/58
f 69/468/371 387/469/372 385/70/54
f 387/469/372 69/468/371 434/470/373
f 69/468/371 213/467/370 437/471/374
f 213/467/370 70/472/375 435/473/376
f 435/473/376 74/474/377 215/475/378
f 73/476/379 434/470/373 437/471/374
f 73/476/379 389/477/380 439/478/381
f 389/477/380 71/479/382 433/480/383
f 391/481/384 75/482/385 71/479/382
f 75/483/385 79/484/386 216/485/387
f 214/486/388 71/479/382 75/482/385
f 214/486/388 438/487/389 433/480/383
f 438/487/389 212/69/53 67/68/52
f 433/480/383 67/68/52 387/469/372
f 436/488/390 68/489/391 212/490/53
f 68/489/391 384/491/392 60/199/164
f 60/199/164 208/64/49 212/490/53
f 60/199/164 384/491/392 380/200/165
f 380/200/165 384/491/392 52/492/393
f 52/492/393 384/491/392 64/466/369
f 384/491/392 68/489/391 386/493/394
f 386/493/394 70/472/375 64/466/369
f 386/493/394 440/494/395 435/473/376
f 386/493/394 68/489/391 436/488/390
f 436/488/390 72/495/396 388/496/397
f 72/495/396 436/488/390 438/497/389
f 80/498/398 442/499/399 76/500/400
f 392/501/401 390/502/402 444/503/403
f 200/408/324 196/256/205 323/260/206
f 76/500/400 442/499/399 444/503/403
f 84/504/404 394/505/405 392/506/401
f 441/507/406 445/508/407 442/509/399
f 80/510/398 392/511/401 443/512/408
f 81/513/409 83/514/410 393/515/411
f 81/513/409 393/515/411 391/516/384
f 79/484/386 393/515/411 83/514/410
f 393/515/411 79/484/386 75/483/385
f 83/514/410 84/504/404 80/498/398
f 394/505/405 84/504/404 88/517/412
f 85/518/413 83/519/410 81/520/409
f 85/518/413 89/521/414 87/522/415
f 87/523/415 88/517/412 84/504/404
f 87/524/415 91/525/416 92/526/417
f 93/527/418 221/528/419 91/529/416
f 91/529/416 87/530/415 89/531/414
f 89/531/414 220/532/420 221/528/419
f 220/533/420 89/521/414 85/518/413
f 85/518/413 81/520/409 218/534/421
f 81/520/409 77/535/422 217/536/423
f 77/537/422 73/476/379 215/475/378
f 391/481/384 389/477/380 73/476/379
f 74/474/377 78/538/424 217/539/423
f 78/540/424 82/541/425 218/534/421
f 82/541/425 86/542/426 219/543/427
f 90/544/428 220/533/420 219/543/427
f 90/545/428 94/546/429 221/528/419
f 92/526/417 91/525/416 221/547/419
f 90/545/428 88/548/412 92/549/417
f 86/542/426 394/550/405 88/551/412
f 86/542/426 82/541/425 392/501/401
f 388/496/397 390/552/402 78/538/424
f 74/474/377 435/473/376 440/494/395
f 70/472/375 213/467/370 210/465/368
f 64/466/369 350/463/366 52/492/393
f 231/553/364 350/463/366 128/462/365
f 231/553/364 121/207/172 335/202/167
f 52/492/393 335/202/167 380/200/165
f 350/463/366 231/553/364 335/202/167
f 121/207/172 405/204/169 419/203/168
f 121/554/172 231/458/364 130/555/430
f 130/555/430 231/458/364 233/556/431
f 233/557/431 140/558/432 236/559/433
f 233/556/431 231/458/364 132/457/363
f 140/560/432 132/460/363 273/456/362
f 131/455/361 137/561/434 275/562/435
f 138/563/436 143/564/437 470/565/438
f 469/42/439 136/566/440 468/41/441
f 470/565/438 143/564/437 136/566/440
f 235/567/442 468/41/441 136/566/440
f 136/566/440 143/564/437 238/568/443
f 135/569/444 468/41/441 235/567/442
f 235/567/442 238/568/443 142/570/445
f 135/571/444 472/572/446 468/573/441
f 135/571/444 142/574/445 471/575/447
f 430/576/448 262/577/449 205/578/450
f 430/576/448 205/578/450 278/579/451
f 140/558/432 275/580/435 278/579/451
f 262/577/449 139/581/452 236/559/433
f 236/559/433 140/558/432 205/578/450
f 236/559/433 139/581/452 134/582/453
f 458/13/454 139/581/452 457/14/455
f 274/583/456 272/584/457 134/585/453
f 274/16/456 134/582/453 139/581/452
f 134/585/453 272/584/457 268/586/458
f 272/584/457 133/587/459 268/586/458
f 268/586/458 133/587/459 129/588/460
f 129/588/460 133/587/459 234/589/461
f 274/583/456 133/587/459 272/584/457
f 234/590/461 232/591/462 129/588/460
f 129/588/460 232/591/462 307/219/180
f 307/219/180 232/591/462 311/592/463
f 311/592/463 232/591/462 328/298/234
f 232/591/462 459/454/360 328/298/234
f 459/454/360 127/380/302 310/378/300
f 459/454/360 232/591/462 131/455/361
f 232/591/462 234/589/461 137/561/434
f 311/592/463 328/298/234 53/273/218
f 53/273/218 328/298/234 65/297/233
f 311/592/463 53/273/218 307/219/180
f 53/273/218 379/218/179 307/219/180
f 307/219/180 122/593/464 129/588/460
f 122/593/464 268/586/458 129/588/460
f 268/586/458 409/215/171 121/554/172
f 122/593/464 404/213/177 409/215/171
f 122/593/464 307/219/180 418/216/178
f 121/554/172 130/555/430 268/586/458
f 130/555/430 134/585/453 268/586/458
f 134/585/453 130/555/430 233/556/431
f 134/582/453 233/557/431 236/559/433
f 139/581/452 204/594/465 457/14/455
f 204/594/465 473/32/466 457/14/455
f 473/32/466 204/594/465 431/595/467
f 262/577/449 430/576/448 432/596/468
f 204/594/465 139/581/452 262/577/449
f 204/594/465 262/577/449 432/596/468
f 431/595/467 432/596/468 237/597/469
f 432/596/468 430/576/448 141/598/470
f 141/598/470 430/576/448 476/599/471
f 141/598/470 475/600/472 471/575/447
f 238/568/443 237/597/469 141/598/470
f 237/597/469 238/568/443 143/564/437
f 431/595/467 138/563/436 474/601/473
f 420/75/59 406/108/88 119/110/90
f 98/369/291 102/602/474 225/301/237
f 518/367/289 516/603/475 104/604/476
f 516/603/475 100/289/226 224/288/225
f 226/605/477 228/314/247 108/364/286
f 228/314/247 294/317/249 280/365/287
f 402/606/478 366/607/479 284/608/480
f 293/609/481 352/610/482 412/611/483
f 280/365/287 294/317/249 371/319/251
f 296/612/484 284/608/480 366/607/479
f 416/613/485 284/608/480 288/614/486
f 414/615/487 288/614/486 351/616/488
f 288/614/486 284/608/480 296/612/484
f 298/617/489 296/612/484 285/618/490
f 296/612/484 371/319/251 369/318/250
f 285/618/490 374/619/491 413/620/274
f 374/619/491 377/621/492 356/335/263
f 374/619/491 285/618/490 369/318/250
f 377/621/492 372/320/252 357/328/258
f 424/622/493 413/620/274 374/619/491
f 424/623/493 358/346/269 375/349/271
f 424/623/493 426/624/265 363/347/268
f 356/335/263 362/334/262 426/625/265
f 363/342/268 426/626/265 425/627/264
f 413/620/274 415/628/494 289/629/495
f 422/630/496 292/631/497 354/632/498
f 354/633/498 289/629/495 415/628/494
f 300/634/499 354/632/498 292/631/497
f 300/635/499 298/617/489 289/629/495
f 300/634/499 293/636/481 351/637/488
f 351/616/488 288/614/486 298/617/489
f 282/356/278 421/638/500 402/606/478
f 421/638/500 280/365/287 366/607/479
f 352/639/482 290/640/501 414/615/487
f 367/641/502 402/606/478 416/613/485
f 110/362/284 428/363/285 421/638/500
f 106/361/283 400/368/290 428/363/285
f 286/642/503 416/613/485 414/615/487
f 351/637/488 293/636/481 412/643/483
f 297/354/276 370/353/275 367/641/502
f 297/354/276 286/642/503 290/640/501
f 299/644/504 290/640/501 352/645/482
f 301/646/505 293/636/481 300/634/499
f 301/647/505 355/648/506 352/649/482
f 353/650/507 292/651/497 422/652/496
f 301/646/505 300/634/499 292/631/497
f 353/650/507 355/648/506 301/647/505
f 291/653/508 299/644/504 355/654/506
f 287/351/273 297/354/276 299/644/504
f 291/653/508 415/655/494 413/352/274
f 415/655/494 291/653/508 353/656/507
f 57/265/211 313/238/194 309/225/185
f 309/225/185 313/238/194 151/229/187
f 72/495/396 214/657/388 216/658/387
f 72/495/396 76/659/400 390/552/402
f 79/484/386 80/498/398 76/500/400
f 390/502/402 392/501/401 82/541/425
f 443/660/408 462/661/509 445/508/407
f 444/662/403 462/661/509 443/660/408
f 444/662/403 442/509/399 445/508/407
f 447/405/322 453/410/326 327/446/355
f 249/663/510 463/664/511 500/179/146
f 477/665/148 463/666/511 249/663/510
f 461/190/156 166/667/157 451/668/512
f 480/669/513 249/663/510 460/187/153
f 499/188/154 496/670/514 247/671/144
f 455/189/155 466/672/515 166/667/157
f 465/673/158 166/667/157 466/672/515
f 465/673/158 466/672/515 168/160/132
f 455/189/155 395/158/130 168/160/132
f 464/674/149 451/668/512 166/667/157
f 400/368/290 104/604/476 108/364/286
f 400/368/290 106/361/283 521/303/239
f 66/376/298 211/299/235 310/378/300
f 267/451/358 120/381/303 271/453/359
f 267/451/358 271/453/359 119/452/90
f 278/675/451 473/676/466 469/677/439
f 451/668/512 480/669/513 484/678/516
f 464/674/149 477/665/148 480/669/513
f 164/679/136 346/680/517 482/196/161
f 483/681/160 479/161/133 250/152/124
f 347/154/126 481/156/128 484/678/516
f 463/682/511 477/181/148 482/196/161
f 165/153/125 250/152/124 479/161/133
f 347/154/126 165/153/125 478/157/129
f 261/417/333 198/683/346 486/450/348
f 446/442/352 485/443/351 492/406/323
f 199/679/317 485/195/351 490/439/349
f 198/682/346 324/680/318 490/439/349
f 491/413/329 488/411/327 197/415/331
f 325/416/332 197/415/331 488/411/327
f 325/416/332 489/409/325 487/684/518
f 452/404/321 492/406/323 487/684/518
f 460/187/153 249/663/510 496/670/514
f 496/670/514 500/179/146 160/685/145
f 498/155/127 499/188/154 161/686/152
f 463/664/511 346/687/517 497/180/147
f 164/164/136 494/163/135 497/180/147
f 162/166/120 494/163/135 495/688/123
f 163/689/122 493/690/519 498/155/127
f 248/691/121 495/151/123 493/690/519
f 68/489/391 60/199/164 212/490/53
f 208/67/49 59/66/51 212/69/53
f 387/469/372 67/68/52 385/70/54
f 275/692/435 458/693/454 457/694/455
f 275/692/435 137/695/434 133/696/459
f 234/697/461 133/696/459 137/695/434
f 458/693/454 275/692/435 274/698/456
f 158/145/118 502/144/117 506/171/140
f 245/176/141 156/170/139 503/175/143
f 506/171/140 503/175/143 156/170/139
f 154/101/82 502/144/117 504/699/116
f 159/140/114 501/139/113 504/142/116
f 341/90/72 511/141/115 510/700/520
f 343/197/162 509/198/163 510/700/520
f 343/197/162 157/94/76 508/93/75
f 153/91/73 508/93/75 507/92/74
f 243/95/77 507/92/74 505/173/142
f 501/139/113 511/141/115 341/90/72
f 515/305/241 512/290/227 99/701/521
f 105/359/281 401/306/242 515/305/241
f 227/360/282 105/359/281 513/304/240
f 104/604/476 516/603/475 517/311/246
f 398/371/293 100/289/226 516/603/475
f 226/605/477 517/311/246 519/310/229
f 99/701/521 512/290/227 519/292/229
f 102/602/474 520/366/288 521/303/239
f 102/602/474 398/371/293 518/367/289
f 514/302/238 521/303/239 106/361/283
f 94/702/429 92/526/417 221/547/419
f 22/703/42 5/1/1 25/3/3
f 5/1/1 14/6/6 10/2/2
f 20/11/11 34/13/13 26/12/12
f 27/21/21 29/22/22 11/9/9
f 29/22/22 27/21/21 15/24/24
f 2/40/35 9/25/25 13/27/27
f 13/27/27 16/26/26 3/29/29
f 16/26/26 15/24/24 8/28/28
f 15/24/24 16/26/26 4/30/30
f 15/24/24 4/30/30 29/22/22
f 1/31/31 19/16/16 6/8/8
f 26/12/12 35/15/15 24/17/17
f 21/33/33 30/20/20 37/32/32
f 24/17/17 30/20/20 17/18/18
f 21/33/33 7/23/23 17/18/18
f 8/28/28 7/23/23 23/34/34
f 41/37/37 40/38/38 2/35/35
f 39/42/39 3/29/29 23/34/34
f 4/30/30 9/39/25 42/43/40
f 4/30/30 42/43/40 28/5/5
f 28/5/5 31/44/41 10/2/2
f 41/704/37 38/705/36 40/47/38
f 39/706/39 23/707/34 37/708/32
f 37/708/32 33/709/14 25/45/3
f 23/707/34 21/710/33 37/708/32
f 40/47/38 38/705/36 39/706/39
f 31/46/41 42/711/40 40/47/38
f 37/708/32 25/45/3 39/706/39
f 40/47/38 39/706/39 25/45/3
f 34/51/13 22/48/42 33/50/14
f 5/55/1 22/48/42 19/52/16
f 19/52/16 1/53/31 5/55/1
f 170/134/109 44/56/43 174/59/46
f 174/59/46 56/58/45 251/61/48
f 60/199/164 174/62/46 208/64/49
f 251/712/48 173/65/50 208/67/49
f 385/70/54 59/66/51 381/72/56
f 385/70/54 381/72/56 63/74/58
f 51/73/57 381/72/56 334/76/60
f 332/77/61 420/75/59 47/71/55
f 349/107/66 332/77/61 169/78/62
f 169/78/62 47/71/55 173/65/50
f 169/713/62 173/79/50 43/81/64
f 169/713/62 43/81/64 349/83/66
f 330/82/65 43/81/64 336/84/67
f 338/99/80 336/84/67 144/85/68
f 239/97/71 144/85/68 206/86/47
f 251/714/48 206/86/47 173/79/50
f 56/58/45 145/88/70 206/60/47
f 145/88/70 153/91/73 239/89/71
f 243/715/77 152/96/78 239/97/71
f 152/96/78 340/98/79 144/85/68
f 340/98/79 154/101/82 338/99/80
f 338/99/80 148/100/81 336/84/67
f 123/103/84 111/104/85 336/84/67
f 330/82/65 111/104/85 349/83/66
f 179/113/86 115/106/87 349/107/66
f 420/75/59 332/77/61 406/108/88
f 410/109/89 406/108/88 265/111/91
f 265/111/91 115/106/87 277/114/93
f 277/389/93 179/105/86 263/115/94
f 269/117/96 263/115/94 123/103/84
f 112/390/308 263/115/94 124/118/97
f 230/232/189 124/118/97 279/116/95
f 230/231/189 279/120/95 126/122/100
f 126/122/100 270/119/98 114/124/102
f 270/119/98 125/121/99 264/123/101
f 264/123/101 113/125/103 276/127/105
f 113/125/103 331/128/106 177/126/104
f 117/205/170 177/130/104 333/132/108
f 48/201/166 333/132/108 170/133/109
f 348/129/107 331/128/106 170/134/109
f 125/121/99 337/57/44 113/125/103
f 501/139/113 155/138/112 504/142/116
f 504/699/116 502/144/117 246/146/119
f 158/145/118 162/147/120 246/146/119
f 246/716/119 248/149/121 159/140/114
f 493/690/519 495/151/123 165/153/125
f 493/690/519 165/153/125 498/155/127
f 455/189/155 481/156/128 395/158/130
f 395/158/130 478/157/129 450/159/131
f 167/717/159 168/160/132 408/162/134
f 495/688/123 494/163/135 250/165/124
f 497/180/147 494/163/135 344/167/137
f 344/169/137 162/147/120 342/168/138
f 160/178/145 344/169/137 156/170/139
f 503/175/143 506/171/140 152/96/78
f 507/92/74 157/94/76 505/173/142
f 243/715/77 505/174/142 152/96/78
f 156/170/139 245/176/141 160/178/145
f 160/685/145 500/179/146 344/167/137
f 482/196/161 477/181/148 456/183/150
f 161/185/152 247/186/144 157/94/76
f 498/155/127 347/154/126 499/188/154
f 484/678/516 481/156/128 461/190/156
f 464/182/149 166/191/157 456/183/150
f 456/183/150 465/192/158 408/194/134
f 483/681/160 408/162/134 479/161/133
f 408/194/134 483/195/160 456/183/150
f 510/700/520 509/198/163 341/90/72
f 510/700/520 511/141/115 343/197/162
f 159/140/114 163/150/122 343/197/162
f 506/171/140 502/144/117 340/98/79
f 341/90/72 339/87/69 155/138/112
f 148/100/81 241/102/83 123/103/84
f 60/199/164 48/201/166 174/62/46
f 380/200/165 419/203/168 48/201/166
f 419/203/168 405/204/169 333/132/108
f 409/206/171 266/209/174 405/204/169
f 266/209/174 276/210/105 117/205/170
f 276/210/105 266/209/174 178/211/175
f 314/223/183 178/211/175 305/212/176
f 404/213/177 418/216/178 118/214/173
f 418/216/178 379/218/179 305/217/176
f 305/212/176 49/221/181 314/223/183
f 171/270/182 45/224/184 314/227/183
f 314/227/183 303/226/186 178/228/175
f 178/228/175 114/124/102 276/127/105
f 309/225/185 126/122/100 303/226/186
f 126/122/100 151/229/187 230/231/189
f 124/118/97 230/232/189 149/234/190
f 149/234/190 242/233/188 183/236/192
f 151/229/187 184/237/193 242/230/188
f 256/247/202 254/239/191 188/240/195
f 184/237/193 317/241/196 188/240/195
f 319/242/197 321/243/198 188/240/195
f 188/240/195 192/245/200 256/247/202
f 187/396/314 256/248/202 191/250/203
f 195/399/316 191/251/203 260/253/204
f 260/448/204 258/254/201 196/256/205
f 321/718/198 323/260/206 192/255/200
f 257/719/336 189/261/207 255/262/208
f 253/434/345 255/262/208 181/263/209
f 185/244/199 319/242/197 181/263/209
f 146/264/210 181/263/209 313/238/194
f 253/434/345 181/263/209 240/266/212
f 240/266/212 146/264/210 207/267/213
f 207/267/213 57/265/211 252/269/215
f 57/265/211 45/224/184 175/268/214
f 175/281/214 171/222/182 61/271/216
f 379/218/179 383/272/217 49/220/181
f 61/274/216 383/272/217 95/276/220
f 61/274/216 95/276/220 209/278/222
f 61/271/216 209/279/222 175/281/214
f 252/720/215 209/282/222 176/284/224
f 96/372/294 62/285/223 222/287/221
f 96/372/294 222/287/221 100/289/226
f 99/701/521 224/293/225 95/276/220
f 99/701/521 95/276/220 399/294/230
f 399/294/230 397/275/219 101/296/232
f 383/272/217 65/297/233 397/275/219
f 65/297/233 211/299/235 97/295/231
f 97/295/231 223/300/236 101/296/232
f 225/301/237 514/302/238 101/296/232
f 101/296/232 513/304/240 399/294/230
f 515/305/241 401/306/242 512/290/227
f 401/306/242 403/308/244 103/291/228
f 226/605/477 103/312/228 228/314/247
f 228/314/247 107/313/243 294/317/249
f 294/317/249 281/316/248 371/319/251
f 377/621/492 369/318/250 372/320/252
f 372/320/252 281/316/248 429/321/253
f 429/326/253 411/309/245 373/323/255
f 373/323/255 359/324/256 429/326/253
f 429/321/253 423/327/257 372/320/252
f 423/327/257 427/332/259 357/328/258
f 357/328/258 365/333/261 356/335/263
f 425/337/264 362/336/262 360/330/260
f 427/721/259 364/341/267 360/343/260
f 359/324/256 364/344/267 423/325/257
f 364/344/267 359/324/256 363/347/268
f 358/346/269 359/324/256 376/348/270
f 376/348/270 373/323/255 368/350/272
f 287/351/273 375/349/271 368/350/272
f 287/351/273 368/350/272 297/354/276
f 368/350/272 283/322/254 370/353/275
f 367/641/502 370/353/275 282/356/278
f 110/362/284 282/356/278 229/357/279
f 229/357/279 295/355/277 109/358/280
f 403/308/244 109/358/280 411/309/245
f 105/359/281 109/358/280 401/306/242
f 109/358/280 105/359/281 229/357/279
f 229/357/279 227/360/282 110/362/284
f 421/638/500 428/363/285 280/365/287
f 102/602/474 98/369/291 398/371/293
f 398/371/293 396/370/292 100/289/226
f 396/370/292 382/373/295 96/372/294
f 62/285/223 382/373/295 50/375/297
f 378/374/296 382/373/295 54/377/299
f 98/369/291 66/376/298 396/370/292
f 66/376/298 98/369/291 211/299/235
f 66/376/298 310/378/300 54/377/299
f 306/379/301 310/378/300 120/381/303
f 120/381/303 407/382/304 306/379/301
f 417/383/305 378/374/296 306/379/301
f 378/374/296 417/383/305 50/375/297
f 407/382/304 116/386/92 417/383/305
f 315/430/310 304/387/306 180/388/307
f 116/112/92 265/111/91 180/388/307
f 180/722/307 277/389/93 112/390/308
f 180/722/307 112/390/308 315/392/310
f 302/391/309 112/390/308 308/393/311
f 312/394/312 308/393/311 149/234/190
f 316/395/313 312/394/312 183/236/192
f 318/423/339 316/395/313 187/396/314
f 256/248/202 187/396/314 254/235/191
f 318/423/339 187/396/314 320/397/315
f 322/438/347 320/398/315 195/399/316
f 322/438/347 195/399/316 324/401/318
f 199/400/317 195/399/316 467/402/319
f 487/684/518 492/406/323 200/408/324
f 487/684/518 489/409/325 447/405/322
f 453/410/326 489/409/325 448/412/328
f 323/260/206 193/414/330 325/416/332
f 259/418/334 261/417/333 193/414/330
f 259/418/334 193/414/330 257/420/336
f 257/420/336 190/421/337 259/418/334
f 322/438/347 194/419/335 320/398/315
f 190/435/337 186/422/338 320/397/315
f 318/423/339 186/422/338 316/395/313
f 182/424/340 147/425/341 316/395/313
f 312/394/312 147/425/341 308/393/311
f 58/426/342 46/427/343 308/393/311
f 302/391/309 46/427/343 315/392/310
f 172/431/344 50/429/297 315/430/310
f 50/429/297 172/431/344 62/283/223
f 172/428/344 46/427/343 176/432/224
f 58/426/342 207/267/213 176/432/224
f 58/426/342 147/425/341 207/267/213
f 147/425/341 182/424/340 240/266/212
f 253/434/345 182/424/340 255/262/208
f 186/422/338 190/435/337 255/262/208
f 324/401/318 198/437/346 322/438/347
f 449/182/357 486/181/348 454/440/350
f 490/439/349 485/195/351 454/440/350
f 454/440/350 446/194/352 326/192/354
f 203/403/320 202/441/353 452/404/321
f 492/406/323 485/443/351 467/407/319
f 327/446/355 326/445/354 203/403/320
f 200/408/324 467/407/319 196/256/205
f 201/447/356 327/446/355 448/412/328
f 201/191/356 449/182/357 326/192/354
f 448/412/328 491/413/329 449/449/357
f 120/381/303 267/451/358 407/382/304
f 127/380/302 131/455/361 271/453/359
f 273/456/362 132/460/363 271/453/359
f 128/462/365 329/464/367 119/110/90
f 334/76/60 329/464/367 51/73/57
f 210/465/368 63/74/58 350/463/366
f 210/465/368 213/467/370 63/74/58
f 63/74/58 69/468/371 385/70/54
f 439/478/381 387/469/372 434/470/373
f 434/470/373 69/468/371 437/471/374
f 437/471/374 213/467/370 435/473/376
f 437/471/374 435/473/376 215/475/378
f 215/475/378 73/476/379 437/471/374
f 434/470/373 73/476/379 439/478/381
f 439/478/381 389/477/380 433/480/383
f 389/477/380 391/481/384 71/479/382
f 216/723/387 214/486/388 75/482/385
f 71/479/382 214/486/388 433/480/383
f 433/480/383 438/487/389 67/68/52
f 439/478/381 433/480/383 387/469/372
f 438/497/389 436/488/390 212/490/53
f 384/491/392 386/493/394 64/466/369
f 70/472/375 386/493/394 435/473/376
f 440/494/395 386/493/394 436/488/390
f 440/494/395 436/488/390 388/496/397
f 214/657/388 72/495/396 438/497/389
f 325/416/332 200/408/324 323/260/206
f 390/502/402 76/500/400 444/503/403
f 80/498/398 84/504/404 392/506/401
f 80/510/398 441/507/406 442/509/399
f 441/507/406 80/510/398 443/512/408
f 77/724/422 81/513/409 391/516/384
f 391/516/384 393/515/411 75/483/385
f 79/484/386 83/514/410 80/498/398
f 83/519/410 85/518/413 87/522/415
f 83/514/410 87/523/415 84/504/404
f 88/725/412 87/524/415 92/526/417
f 93/527/418 91/529/416 89/531/414
f 93/527/418 89/531/414 221/528/419
f 219/543/427 220/533/420 85/518/413
f 219/543/427 85/518/413 218/534/421
f 218/534/421 81/520/409 217/536/423
f 217/539/423 77/537/422 215/475/378
f 77/537/422 391/481/384 73/476/379
f 215/475/378 74/474/377 217/539/423
f 217/536/423 78/540/424 218/534/421
f 218/534/421 82/541/425 219/543/427
f 86/542/426 90/544/428 219/543/427
f 220/532/420 90/545/428 221/528/419
f 94/546/429 90/545/428 92/549/417
f 90/544/428 86/542/426 88/551/412
f 394/550/405 86/542/426 392/501/401
f 74/474/377 388/496/397 78/538/424
f 388/496/397 74/474/377 440/494/395
f 64/466/369 70/472/375 210/465/368
f 52/492/393 350/463/366 335/202/167
f 335/202/167 121/207/172 419/203/168
f 140/726/432 233/556/431 132/457/363
f 275/562/435 140/560/432 273/456/362
f 273/456/362 131/455/361 275/562/435
f 474/601/473 138/563/436 470/565/438
f 469/42/439 470/565/438 136/566/440
f 235/567/442 136/566/440 238/568/443
f 135/569/444 235/567/442 142/570/445
f 472/572/446 135/571/444 471/575/447
f 476/599/471 430/576/448 278/579/451
f 205/578/450 140/558/432 278/579/451
f 262/577/449 236/559/433 205/578/450
f 458/13/454 274/16/456 139/581/452
f 328/298/234 459/454/360 310/378/300
f 131/455/361 232/591/462 137/561/434
f 268/586/458 122/593/464 409/215/171
f 404/213/177 122/593/464 418/216/178
f 431/595/467 204/594/465 432/596/468
f 138/563/436 431/595/467 237/597/469
f 237/597/469 432/596/468 141/598/470
f 475/600/472 141/598/470 476/599/471
f 142/574/445 141/598/470 471/575/447
f 142/570/445 238/568/443 141/598/470
f 138/563/436 237/597/469 143/564/437
f 473/32/466 431/595/467 474/601/473
f 334/76/60 420/75/59 119/110/90
f 223/300/236 98/369/291 225/301/237
f 400/368/290 518/367/289 104/604/476
f 517/311/246 516/603/475 224/288/225
f 104/604/476 226/605/477 108/364/286
f 108/364/286 228/314/247 280/365/287
f 416/613/485 402/606/478 284/608/480
f 366/607/479 280/365/287 371/319/251
f 371/319/251 296/612/484 366/607/479
f 414/615/487 416/613/485 288/614/486
f 412/727/483 414/615/487 351/616/488
f 298/617/489 288/614/486 296/612/484
f 289/629/495 298/617/489 285/618/490
f 285/618/490 296/612/484 369/318/250
f 377/621/492 374/619/491 369/318/250
f 356/335/263 377/621/492 357/328/258
f 356/335/263 424/622/493 374/619/491
f 413/352/274 424/623/493 375/349/271
f 358/346/269 424/623/493 363/347/268
f 424/622/493 356/335/263 426/625/265
f 361/340/266 363/342/268 425/627/264
f 285/618/490 413/620/274 289/629/495
f 422/728/496 354/633/498 415/628/494
f 354/633/498 300/635/499 289/629/495
f 300/635/499 351/616/488 298/617/489
f 367/641/502 282/356/278 402/606/478
f 402/606/478 421/638/500 366/607/479
f 412/727/483 352/639/482 414/615/487
f 286/642/503 367/641/502 416/613/485
f 282/356/278 110/362/284 421/638/500
f 110/362/284 106/361/283 428/363/285
f 290/640/501 286/642/503 414/615/487
f 286/642/503 297/354/276 367/641/502
f 299/644/504 297/354/276 290/640/501
f 355/654/506 299/644/504 352/645/482
f 293/729/481 301/647/505 352/649/482
f 292/651/497 353/650/507 301/647/505
f 353/656/507 291/653/508 355/654/506
f 291/653/508 287/351/273 299/644/504
f 287/351/273 291/653/508 413/352/274
f 422/730/496 415/655/494 353/656/507
f 76/659/400 72/495/396 216/658/387
f 388/496/397 72/495/396 390/552/402
f 216/485/387 79/484/386 76/500/400
f 78/540/424 390/502/402 82/541/425
f 441/731/406 443/660/408 445/508/407
f 392/732/401 444/662/403 443/660/408
f 462/661/509 444/662/403 445/508/407
f 203/403/320 447/405/322 327/446/355
f 496/670/514 249/663/510 500/179/146
f 480/669/513 477/665/148 249/663/510
f 484/678/516 480/669/513 460/187/153
f 161/686/152 499/188/154 247/671/144
f 461/190/156 455/189/155 166/667/157
f 167/717/159 465/673/158 168/160/132
f 466/672/515 455/189/155 168/160/132
f 428/363/285 400/368/290 108/364/286
f 520/366/288 400/368/290 521/303/239
f 469/677/439 468/733/441 471/734/447
f 471/734/447 475/735/472 476/736/471
f 468/733/441 472/737/446 471/734/447
f 474/738/473 470/739/438 473/676/466
f 278/675/451 457/740/455 473/676/466
f 473/676/466 470/739/438 469/677/439
f 469/677/439 471/734/447 278/675/451
f 476/736/471 278/675/451 471/734/447
f 461/190/156 451/668/512 484/678/516
f 451/668/512 464/674/149 480/669/513
f 483/195/160 164/679/136 482/196/161
f 164/741/136 483/681/160 250/152/124
f 460/187/153 347/154/126 484/678/516
f 346/680/517 463/682/511 482/196/161
f 478/157/129 165/153/125 479/161/133
f 481/156/128 347/154/126 478/157/129
f 491/413/329 261/417/333 486/450/348
f 452/404/321 446/442/352 492/406/323
f 324/680/318 199/679/317 490/439/349
f 486/181/348 198/682/346 490/439/349
f 261/417/333 491/413/329 197/415/331
f 489/409/325 325/416/332 488/411/327
f 200/408/324 325/416/332 487/684/518
f 447/405/322 452/404/321 487/684/518
f 499/188/154 460/187/153 496/670/514
f 247/671/144 496/670/514 160/685/145
f 345/742/151 498/155/127 161/686/152
f 500/179/146 463/664/511 497/180/147
f 346/687/517 164/164/136 497/180/147
f 248/743/121 162/166/120 495/688/123
f 345/742/151 163/689/122 498/155/127
f 163/689/122 248/691/121 493/690/519
f 278/744/451 275/692/435 457/694/455
f 274/698/456 275/692/435 133/696/459
f 342/168/138 158/145/118 506/171/140
f 505/174/142 245/176/141 503/175/143
f 342/168/138 506/171/140 156/170/139
f 244/143/111 154/101/82 504/699/116
f 246/716/119 159/140/114 504/142/116
f 509/198/163 343/197/162 508/93/75
f 243/95/77 153/91/73 507/92/74
f 155/138/112 501/139/113 341/90/72
f 399/294/230 515/305/241 99/701/521
f 513/304/240 105/359/281 515/305/241
f 514/302/238 227/360/282 513/304/240
f 226/605/477 104/604/476 517/311/246
f 518/367/289 398/371/293 516/603/475
f 103/312/228 226/605/477 519/310/229
f 224/293/225 99/701/521 519/292/229
f 225/301/237 102/602/474 521/303/239
f 520/366/288 102/602/474 518/367/289
f 227/360/282 514/302/238 106/361/283
