# Blender v2.76 (sub 0) OBJ File: 'npc_mutant_avian.blend'
# www.blender.org
v -0.022810 0.949677 -0.693671
v 0.016500 0.750252 -0.464011
v -0.077874 0.898093 -0.624890
v -0.111458 0.893122 -0.554349
v -0.035932 0.972180 -0.629655
v -0.074851 0.750482 -0.351128
v -0.043438 0.975854 -0.566199
v -0.050388 0.984125 -0.521661
v -0.191561 0.864587 -0.539007
v -0.007268 0.673108 -0.319806
v -0.052674 0.978120 -0.481546
v -0.182831 0.864016 -0.502481
v -0.051889 0.961916 -0.442018
v -0.120604 0.877555 -0.452382
v 0.008865 0.759251 -0.377404
v -0.054007 0.954889 -0.400581
v -0.216912 0.836789 -0.430808
v -0.020017 0.867855 -0.429299
v -0.052106 0.936826 -0.366665
v -0.204236 0.835359 -0.409115
v -0.002387 0.805895 -0.394839
v -0.050737 0.922877 -0.339487
v -0.122981 0.837759 -0.369707
v 0.006573 0.769495 -0.347162
v -0.053843 0.920074 -0.300618
v -0.157903 0.822439 -0.352555
v 0.007670 0.748181 -0.340000
v -0.048461 0.889949 -0.265898
v -0.131581 0.807883 -0.313637
v -0.008351 0.732442 -0.283268
v -0.047678 0.869443 -0.213797
v -0.108662 0.772505 -0.292547
v -0.040096 0.819543 -0.143118
v -0.072914 0.761137 -0.185606
v -0.016505 0.536881 -0.368970
v -0.029807 0.769904 -0.099948
v -0.050501 0.725965 -0.130622
v -0.004689 0.684934 -0.100228
v -0.129029 0.821757 -0.304330
v -0.114071 0.825340 -0.275416
v -0.012490 0.494336 -0.475434
v -0.106426 0.528190 -0.523725
v -0.016170 0.478705 -0.479487
v -0.217893 0.782694 -0.282531
v -0.215586 0.791602 -0.306884
v -0.220529 0.813958 -0.301196
v -0.222217 0.808375 -0.274638
v -0.241455 0.764775 -0.274993
v -0.237512 0.777172 -0.325177
v -0.246887 0.823302 -0.314259
v -0.247559 0.811243 -0.261873
v -0.264930 0.769630 -0.284401
v -0.262293 0.778041 -0.318530
v -0.268542 0.809365 -0.311074
v -0.270143 0.801234 -0.276316
v 0.017418 0.665873 -0.550756
v -0.013250 0.622152 -0.317979
v 0.001003 0.546597 -0.577024
v -0.107849 0.816075 -0.373165
v -0.096575 0.782109 -0.351173
v -0.078628 0.763467 -0.330317
v -0.101761 0.760834 -0.244335
v -0.003157 0.714976 -0.262171
v -0.075061 0.719762 -0.280153
v -0.004925 0.718691 -0.214726
v -0.037417 0.629460 -0.528650
v -0.059482 0.740449 -0.204943
v -0.040272 0.721684 -0.220430
v -0.004777 0.694341 -0.162164
v -0.019330 0.714435 -0.103225
v -0.040453 0.710286 -0.154520
v -0.032122 0.704613 -0.180584
v -0.159068 0.752823 -0.391677
v 0.004793 0.744979 -0.338754
v -0.003743 0.713697 -0.301089
v -0.037290 0.734052 -0.321262
v -0.144864 0.864158 -0.434873
v -0.112353 0.825623 -0.402660
v -0.006167 0.505638 -0.577663
v -0.104583 0.494040 -0.526611
v -0.021587 0.465237 -0.465118
v -0.135955 0.450547 -0.518787
v -0.014472 0.452098 -0.581181
v -0.026766 0.440326 -0.438130
v -0.144422 0.396594 -0.474630
v -0.020620 0.346704 -0.508925
v -0.023474 0.395825 -0.413538
v -0.085294 0.364234 -0.435534
v -0.019919 0.342859 -0.453276
v -0.193547 0.758282 -0.445587
v -0.220100 0.760422 -0.406008
v -0.293923 0.798850 -0.366280
v -0.315271 0.800310 -0.405876
v -0.290567 0.816248 -0.385531
v -0.661814 1.066586 -0.094660
v -0.472807 0.986941 -0.212914
v -0.673598 1.051089 -0.110821
v -0.491196 0.988899 -0.242978
v -0.474182 1.002536 -0.226452
v -0.655802 1.051377 -0.082709
v -0.871792 0.969786 0.139063
v -0.132044 0.656047 -0.376150
v -0.698205 0.060665 -0.646091
v -0.773400 1.014152 -0.118923
v -0.768773 0.912458 -0.240455
v -0.845072 0.770999 -0.276722
v -0.950897 0.586542 -0.331528
v -0.828280 0.724645 -0.466571
v -0.703905 0.710513 -0.625295
v -0.574672 0.394770 -0.698792
v -0.627200 0.804136 -0.460629
v -0.438065 0.597856 -0.610327
v -0.631024 0.856939 -0.348178
v -0.336876 0.524832 -0.610454
v -0.688624 0.912962 -0.274492
v -0.621408 0.812208 -0.383210
v -0.118061 0.438219 -0.337929
v -0.173338 0.430464 -0.355149
v -0.161009 0.461896 -0.381264
v -0.120116 0.479470 -0.358440
v -0.143692 0.458394 -0.286884
v -0.192267 0.446156 -0.307718
v -0.182305 0.487950 -0.334332
v -0.147418 0.495726 -0.315303
v -0.138104 0.416197 -0.305855
v -0.169255 0.414877 -0.315030
v -0.112809 0.340927 -0.391894
v -0.086713 0.341348 -0.386059
v -0.092912 0.326327 -0.368770
v -0.111918 0.322794 -0.374039
v -0.108500 0.300960 -0.407680
v -0.108150 0.295386 -0.374222
v -0.076009 0.303472 -0.399263
v -0.083241 0.301537 -0.368425
v -0.176101 0.381559 -0.201152
v -0.206802 0.367740 -0.205559
v -0.164804 0.364589 -0.200190
v -0.198950 0.348972 -0.205990
v -0.228869 0.414517 -0.015678
v -0.261295 0.399442 -0.019964
v -0.215843 0.396432 -0.013995
v -0.254110 0.378590 -0.020307
v -0.216624 0.397293 0.064830
v -0.302244 0.368807 0.035450
v -0.196465 0.373263 0.046467
v -0.291635 0.343207 0.012746
v -0.259595 0.371512 0.064446
v -0.244140 0.346669 0.043433
v -0.198022 0.371412 0.080839
v -0.217667 0.391422 0.106038
v -0.260822 0.367563 0.097206
v -0.246072 0.344727 0.074902
v -0.188869 0.342958 0.101973
v -0.202646 0.345630 0.133529
v -0.243659 0.324735 0.120363
v -0.235053 0.321613 0.089943
v -0.187847 0.199349 0.117008
v -0.264862 0.325167 0.067567
v -0.323696 0.344929 0.072751
v -0.280629 0.334829 0.098652
v -0.312424 0.333522 0.037738
v -0.295011 0.291564 0.092121
v -0.282955 0.294578 0.067007
v -0.329593 0.301176 0.077531
v -0.320793 0.301276 0.049665
v -0.314876 0.165437 0.063889
v -0.225668 0.353522 0.012764
v -0.255117 0.357607 -0.025031
v -0.204197 0.372456 -0.021091
v -0.178822 0.335891 0.020750
v -0.203100 0.323149 -0.009896
v -0.168221 0.348929 -0.014944
v -0.133572 0.294244 0.068224
v -0.101796 0.766462 -0.239793
v -0.039595 0.834087 -0.190504
v -0.088345 0.797151 -0.247187
v -0.273930 0.787742 -0.298675
v -0.029889 0.951257 -0.628325
v -0.035387 0.944582 -0.554512
v -0.035558 0.934582 -0.523644
v -0.037585 0.928591 -0.486124
v -0.038018 0.917147 -0.448456
v -0.019756 0.761257 -0.174036
v -0.016125 0.733432 -0.128732
v -0.022584 0.782448 -0.229589
v -0.017628 0.752472 -0.198844
v -0.013737 0.717954 -0.150577
v -0.018746 0.773837 -0.227288
v -0.023855 0.800857 -0.277199
v 0.048733 0.973770 -0.620272
v 0.065692 0.975907 -0.540015
v 0.082584 0.723085 -0.337478
v 0.145025 0.987312 -0.505029
v 0.130465 0.977232 -0.469767
v 0.060321 0.951781 -0.433199
v 0.155648 0.962044 -0.382541
v 0.141553 0.951045 -0.362881
v 0.063573 0.907463 -0.339610
v 0.095187 0.905234 -0.309687
v 0.074394 0.868763 -0.278602
v 0.067099 0.819985 -0.261436
v 0.025738 0.788684 -0.174849
v 0.016514 0.745753 -0.123841
v 0.063424 0.877607 -0.268421
v 0.044304 0.865235 -0.242491
v 0.091015 0.506421 -0.514666
v 0.156061 0.880557 -0.224164
v 0.153286 0.894278 -0.248463
v 0.145413 0.915829 -0.238272
v 0.145172 0.908274 -0.215422
v 0.185108 0.874106 -0.212421
v 0.183402 0.897299 -0.263455
v 0.166403 0.941359 -0.242553
v 0.168107 0.918356 -0.192267
v 0.204742 0.892763 -0.214443
v 0.203585 0.908383 -0.248588
v 0.192041 0.938429 -0.234903
v 0.193197 0.922809 -0.200758
v 0.072637 0.859846 -0.349810
v 0.080688 0.798301 -0.312580
v 0.062927 0.777432 -0.290845
v 0.051704 0.805492 -0.217005
v 0.060434 0.755730 -0.254546
v 0.058926 0.624364 -0.514277
v 0.023498 0.765522 -0.193193
v 0.022291 0.740616 -0.211582
v 0.012680 0.726765 -0.147019
v 0.015829 0.719485 -0.173814
v 0.172146 0.706236 -0.368200
v 0.038476 0.724844 -0.312759
v 0.082924 0.949791 -0.407497
v 0.077132 0.874316 -0.381592
v 0.077897 0.478824 -0.519606
v 0.094542 0.448182 -0.510899
v 0.097547 0.403463 -0.465476
v 0.038985 0.370685 -0.431510
v 0.192531 0.729996 -0.423821
v 0.241629 0.720343 -0.395493
v 0.323221 0.756778 -0.372685
v 0.336153 0.756423 -0.415794
v 0.316630 0.773820 -0.391413
v 0.671813 0.955625 -0.041847
v 0.493174 0.911452 -0.193805
v 0.681386 0.936413 -0.055245
v 0.516482 0.908313 -0.217344
v 0.501962 0.925348 -0.205581
v 0.659337 0.943580 -0.031379
v 0.910463 0.932921 0.177038
v 0.122154 0.618687 -0.361440
v 0.649174 0.107086 -0.741400
v 0.798763 0.889236 -0.081220
v 0.809258 0.830013 -0.279404
v 0.875736 0.729020 -0.393417
v 0.963839 0.563247 -0.488443
v 0.824748 0.702314 -0.596362
v 0.704268 0.716301 -0.739126
v 0.603438 0.467558 -0.815827
v 0.635328 0.775515 -0.539546
v 0.506574 0.666676 -0.683619
v 0.653987 0.808830 -0.414685
v 0.413074 0.615542 -0.660370
v 0.722594 0.840522 -0.313842
v 0.634007 0.773065 -0.457964
v 0.057119 0.446114 -0.331585
v 0.113950 0.443489 -0.345324
v 0.101420 0.473206 -0.371433
v 0.057624 0.487331 -0.351996
v 0.077042 0.467280 -0.279024
v 0.127888 0.459219 -0.296287
v 0.116832 0.500841 -0.322741
v 0.080066 0.505624 -0.306789
v 0.076207 0.425264 -0.299374
v 0.107984 0.426533 -0.306211
v 0.063481 0.351084 -0.389281
v 0.037073 0.349275 -0.385746
v 0.043084 0.334713 -0.368649
v 0.062612 0.332385 -0.372019
v 0.063557 0.312652 -0.406011
v 0.060809 0.309782 -0.369415
v 0.030437 0.313202 -0.400363
v 0.035267 0.314270 -0.367413
v 0.108226 0.403068 -0.196640
v 0.140163 0.391685 -0.198483
v 0.098243 0.385268 -0.196445
v 0.133855 0.372360 -0.199389
v 0.143281 0.440378 -0.007788
v 0.177022 0.427862 -0.009397
v 0.131624 0.421482 -0.007186
v 0.171540 0.406515 -0.010181
v 0.129889 0.429188 0.073644
v 0.217531 0.405916 0.045825
v 0.111252 0.404607 0.054744
v 0.208508 0.379236 0.023307
v 0.174180 0.406363 0.073752
v 0.160334 0.381243 0.051976
v 0.112511 0.403162 0.088017
v 0.131359 0.421937 0.114488
v 0.175698 0.401058 0.103635
v 0.161806 0.382760 0.074806
v 0.105909 0.372064 0.111183
v 0.120984 0.373728 0.142939
v 0.162878 0.357732 0.126528
v 0.153104 0.353462 0.095605
v 0.119216 0.227604 0.127260
v 0.183086 0.359441 0.079184
v 0.240744 0.383589 0.083818
v 0.199166 0.370229 0.110482
v 0.228873 0.371088 0.048522
v 0.215462 0.327287 0.104085
v 0.202618 0.330806 0.079159
v 0.249506 0.337900 0.088541
v 0.239951 0.338860 0.060638
v 0.235688 0.201681 0.073973
v 0.142495 0.379418 0.020942
v 0.174629 0.385537 -0.014578
v 0.122586 0.396216 -0.014914
v 0.096840 0.357724 0.025073
v 0.124502 0.346930 -0.003383
v 0.088218 0.369831 -0.011487
v 0.050487 0.311949 0.069375
v 0.051684 0.808730 -0.216175
v 0.031989 0.825068 -0.228950
v 0.205887 0.917810 -0.223811
v -0.076546 0.540119 -0.452411
v 0.059900 0.521682 -0.445309
v 0.106257 0.572598 -0.427619
v -0.115749 0.601312 -0.443737
vt 0.474247 1.000024
vt 0.432881 1.000024
vt 0.434057 0.893539
vt 0.509861 1.000024
vt 0.500227 0.768354
vt 0.559969 0.937079
vt 0.645064 0.954173
vt 0.560228 0.940601
vt 0.583639 0.999781
vt 0.500485 0.773130
vt 0.557266 0.999781
vt 0.078178 0.645053
vt 0.145329 0.600948
vt 0.009554 0.578044
vt 0.629598 0.999781
vt 0.656534 0.999781
vt 0.043058 0.667957
vt 0.009554 0.620213
vt 0.512543 0.981892
vt 0.471564 0.821771
vt 0.527454 0.989559
vt 0.480692 0.821771
vt 0.462656 0.892018
vt 0.010156 0.671319
vt 0.079997 0.644406
vt 0.044254 0.667717
vt 0.462330 0.893296
vt 0.363979 0.871999
vt 0.417906 0.999781
vt 0.180894 0.905878
vt 0.211214 0.926339
vt 0.151369 0.927184
vt 0.432105 0.999781
vt 0.359627 0.798296
vt 0.329341 0.825147
vt 0.386839 0.999781
vt 0.298881 0.891138
vt 0.380070 1.000024
vt 0.307338 1.000024
vt 0.334880 0.898555
vt 0.095969 0.432562
vt 0.010156 0.431276
vt 0.010156 0.398660
vt 0.265186 1.000024
vt 0.239898 1.000024
vt 0.239968 0.910398
vt 0.267768 0.860783
vt 0.297710 0.999781
vt 0.009554 0.431384
vt 0.093871 0.436902
vt 0.086972 0.413221
vt 0.202414 0.914836
vt 0.196688 0.802296
vt 0.184322 0.800589
vt 0.117628 0.999781
vt 0.102109 0.947707
vt 0.039265 0.964220
vt 0.191148 0.775024
vt 0.167133 0.773191
vt 0.225497 0.888506
vt 0.213084 0.801976
vt 0.224475 0.802438
vt 0.186573 0.800832
vt 0.225358 0.895351
vt 0.222224 0.802195
vt 0.819590 0.933905
vt 0.741830 1.002771
vt 0.745676 0.981737
vt 0.169384 0.773434
vt 0.219437 0.773434
vt 0.241200 0.775024
vt 0.678604 0.929671
vt 0.702745 0.932100
vt 0.798477 0.934975
vt 0.755545 0.885339
vt 0.756364 0.860805
vt 0.008395 0.999781
vt 0.050191 0.999781
vt 0.006807 0.579017
vt 0.088521 0.542699
vt 0.142997 0.606255
vt 0.106762 0.390629
vt 0.009554 0.409522
vt 0.821998 0.059350
vt 0.793626 0.064078
vt 0.821998 0.017938
vt 0.109088 0.385467
vt 0.010156 0.356430
vt 0.010156 0.294247
vt 0.164845 0.936891
vt 0.132684 0.917898
vt 0.158955 0.999781
vt 0.251493 0.999781
vt 0.121032 0.522092
vt 0.010156 0.538976
vt 0.229751 1.000024
vt 0.202874 0.960390
vt 0.297894 0.904225
vt 0.270019 0.861025
vt 0.821997 0.148207
vt 0.768986 0.140328
vt 0.781726 0.108721
vt 0.175211 1.000024
vt 0.138634 1.000024
vt 0.092576 1.000024
vt 0.033907 1.000024
vt 0.054982 0.974363
vt 0.091565 0.955891
vt 0.098755 0.966742
vt 0.006807 0.497303
vt 0.006807 0.433747
vt 0.061283 0.470065
vt 0.131496 0.917612
vt 0.004047 1.000024
vt 0.032968 0.971590
vt 0.648570 0.954416
vt 0.658785 1.000024
vt 0.609179 1.000024
vt 0.010156 0.635279
vt 0.299877 0.892636
vt 0.355604 0.794775
vt 0.202357 0.999781
vt 0.088947 0.408461
vt 0.428579 0.656093
vt 0.423662 0.696384
vt 0.468944 0.689061
vt 0.531845 0.681720
vt 0.536419 0.712644
vt 0.610352 0.692828
vt 0.102623 0.365689
vt 0.112804 0.333641
vt 0.080802 0.297116
vt 0.248096 0.339680
vt 0.277080 0.531051
vt 0.282148 0.327738
vt 0.196955 0.568250
vt 0.171694 0.589610
vt 0.275180 0.560080
vt 0.523059 0.538596
vt 0.753690 0.411864
vt 0.394870 0.237242
vt 0.280495 0.557925
vt 0.282428 0.528381
vt 0.532773 0.536061
vt 0.269459 0.553689
vt 0.519237 0.554218
vt 0.535788 0.556253
vt 0.716599 0.481061
vt 0.595223 0.398790
vt 0.437154 0.342183
vt 0.464362 0.360988
vt 0.701500 0.500488
vt 0.703680 0.484556
vt 0.526021 0.558436
vt 0.709844 0.503462
vt 0.127878 0.521223
vt 0.090830 0.544067
vt 0.505343 0.387091
vt 0.948055 0.392623
vt 0.722873 0.500303
vt 0.965311 0.387497
vt 0.008771 0.540307
vt 0.173246 0.589150
vt 0.118191 0.524020
vt 0.665937 0.364567
vt 0.539998 0.204645
vt 0.660993 0.264792
vt 0.287140 0.166653
vt 0.009554 0.494631
vt 0.009554 0.385842
vt 0.124838 0.524541
vt 0.197472 0.569937
vt 0.278223 0.559193
vt 0.280150 0.529746
vt 0.065707 0.507251
vt 0.148340 0.599519
vt 0.175172 0.587980
vt 0.469280 0.659417
vt 0.505147 0.691113
vt 0.358231 0.813259
vt 0.396762 0.861519
vt 0.463835 0.781576
vt 0.334361 0.622665
vt 0.318366 0.723370
vt 0.458201 0.720399
vt 0.455465 0.629717
vt 0.535658 0.660000
vt 0.620783 0.673963
vt 0.453440 0.629177
vt 0.584055 0.653212
vt 0.584827 0.677850
vt 0.503016 0.653376
vt 0.539342 0.629326
vt 0.620698 0.651899
vt 0.732105 0.651967
vt 0.728838 0.643284
vt 0.621615 0.624442
vt 0.632604 0.637198
vt 0.636322 0.685307
vt 0.636814 0.636255
vt 0.621290 0.624515
vt 0.619952 0.697967
vt 0.621630 0.699173
vt 0.734007 0.671131
vt 0.729414 0.682004
vt 0.844311 0.686359
vt 0.621380 0.674077
vt 0.636178 0.688381
vt 0.733584 0.644686
vt 0.849901 0.650483
vt 0.851008 0.673148
vt 0.928244 0.660805
vt 0.843633 0.637183
vt 0.730695 0.682992
vt 0.844925 0.638417
vt 0.740409 0.775706
vt 0.713106 0.780706
vt 0.704568 0.818200
vt 0.896603 0.625215
vt 0.878631 0.609036
vt 0.785632 0.738775
vt 0.737278 0.738859
vt 0.880723 0.715185
vt 0.913616 0.613223
vt 0.897236 0.601821
vt 0.730897 0.812957
vt 0.780941 0.817868
vt 0.792510 0.817868
vt 0.790023 0.778792
vt 0.898074 0.698036
vt 0.711846 0.726905
vt 0.683097 0.727238
vt 0.685751 0.762377
vt 0.965266 0.662943
vt 0.955920 0.640956
vt 0.937049 0.627702
vt 0.714789 0.764119
vt 0.941121 0.702714
vt 0.919603 0.714522
vt 0.932540 0.731689
vt 0.929544 0.592491
vt 0.912862 0.581726
vt 0.967203 0.616180
vt 0.950630 0.603144
vt 0.902827 0.726042
vt 0.957928 0.692611
vt 0.950735 0.721911
vt 0.964856 0.713499
vt 0.615440 0.761890
vt 0.984016 0.535583
vt 0.918749 0.741460
vt 0.685114 0.782002
vt 0.679087 0.810945
vt 0.847072 0.686366
vt 0.914720 0.615321
vt 0.929979 0.594898
vt 0.950087 0.605671
vt 0.608583 0.784975
vt 0.984016 0.786714
vt 0.799318 0.743667
vt 0.831117 0.767611
vt 0.823981 0.791937
vt 0.982769 0.539053
vt 0.825639 0.742255
vt 0.886191 0.771748
vt 0.391135 0.800147
vt 0.375753 0.599215
vt 0.324001 0.784547
vt 0.429296 0.757561
vt 0.279186 0.533620
vt 0.270107 0.551779
vt 0.178643 0.905635
vt 0.750796 0.933481
vt 0.821997 0.285131
vt 0.821997 0.331456
vt 0.791374 0.330169
vt 0.821998 0.110806
vt 0.821997 0.238271
vt 0.779153 0.273656
vt 0.544401 1.000024
vt 0.473816 0.822014
vt 0.821997 0.190377
vt 0.754407 0.181463
vt 0.759288 0.228469
vt 0.375409 0.872242
vt 0.334031 0.621557
vt 0.821996 0.381399
vt 0.647236 0.956984
vt 0.563654 0.943411
vt 0.541813 1.000083
vt 0.434491 1.000083
vt 0.389226 1.000083
vt 0.329218 0.822939
vt 0.586026 1.000083
vt 0.561360 0.944666
vt 0.644941 0.954474
vt 0.559653 1.000083
vt 0.500362 0.770922
vt 0.043124 0.669810
vt 0.006807 0.660730
vt 0.006807 0.624413
vt 0.658921 1.000083
vt 0.631985 1.000083
vt 0.064720 0.466534
vt 0.558639 0.973714
vt 0.530104 0.984870
vt 0.473951 0.822073
vt 0.493413 0.964305
vt 0.434192 0.893597
vt 0.295305 0.904284
vt 0.262597 1.000083
vt 0.304749 1.000083
vt 0.376800 0.873555
vt 0.178305 0.905936
vt 0.128907 0.917671
vt 0.148780 0.927242
vt 0.502657 0.770922
vt 0.507272 1.000083
vt 0.353495 1.000083
vt 0.300013 0.892694
vt 0.377481 1.000083
vt 0.332291 0.898614
vt 0.094303 0.434241
vt 0.087304 0.410219
vt 0.008771 0.400451
vt 0.237380 0.910457
vt 0.237309 1.000083
vt 0.300096 1.000083
vt 0.270155 0.861084
vt 0.006807 0.415589
vt 0.088521 0.415589
vt 0.186709 0.800890
vt 0.199074 0.802597
vt 0.204801 0.915138
vt 0.120014 1.000083
vt 0.052578 1.000083
vt 0.041652 0.964521
vt 0.169520 0.773492
vt 0.193534 0.775326
vt 0.221886 0.802496
vt 0.210495 0.802034
vt 0.222908 0.888565
vt 0.183984 0.800890
vt 0.224610 0.802496
vt 0.227744 0.895652
vt 0.818979 0.933781
vt 0.797866 0.934852
vt 0.745065 0.981613
vt 0.216848 0.773492
vt 0.166795 0.773492
vt 0.243587 0.775326
vt 0.240862 0.775326
vt 0.741219 1.002647
vt 0.702134 0.931977
vt 0.754934 0.885215
vt 0.677993 0.929547
vt 0.030379 0.971649
vt 0.004640 1.000083
vt 0.031318 1.000083
vt 0.390828 0.798355
vt 0.376482 0.598671
vt 0.336115 0.622653
vt 0.006807 0.406510
vt 0.106679 0.388351
vt 0.851059 0.063308
vt 0.457276 0.719815
vt 0.453813 0.628344
vt 0.253879 1.000083
vt 0.204744 1.000083
vt 0.225632 0.888565
vt 0.161342 1.000083
vt 0.104496 0.948009
vt 0.135070 0.918200
vt 0.167232 0.937192
vt 0.355525 0.798597
vt 0.332768 0.820429
vt 0.208625 0.926398
vt 0.267430 0.861084
vt 0.864773 0.108127
vt 0.136045 1.000083
vt 0.172622 1.000083
vt 0.052394 0.974421
vt 0.089988 1.000083
vt 0.088976 0.955950
vt 0.096166 0.966800
vt 0.606590 1.000083
vt 0.656197 1.000083
vt 0.078383 0.645391
vt 0.146502 0.600651
vt 0.008771 0.636294
vt 0.200285 0.960449
vt 0.180124 1.000083
vt 0.042758 0.668625
vt 0.008771 0.672215
vt 0.297289 0.892694
vt 0.107379 0.387301
vt 0.008771 0.358360
vt 0.428686 0.656513
vt 0.468892 0.659410
vt 0.468203 0.688038
vt 0.531875 0.681591
vt 0.621501 0.673619
vt 0.608476 0.692734
vt 0.251948 0.333875
vt 0.279186 0.324796
vt 0.279186 0.560858
vt 0.760390 0.406510
vt 0.524328 0.542699
vt 0.397217 0.234002
vt 0.532678 0.557526
vt 0.529674 0.537400
vt 0.524328 0.551779
vt 0.719149 0.501760
vt 0.712896 0.482582
vt 0.596962 0.397430
vt 0.442614 0.342954
vt 0.469852 0.361113
vt 0.714994 0.488223
vt 0.705914 0.497303
vt 0.714994 0.506382
vt 0.533407 0.560858
vt 0.185212 0.068914
vt 0.118861 0.520693
vt 0.506169 0.388351
vt 0.960135 0.388351
vt 0.960792 0.389324
vt 0.669597 0.361113
vt 0.542487 0.197685
vt 0.705914 0.097813
vt 0.669597 0.261240
vt 0.288266 0.161368
vt 0.117270 0.522284
vt 0.006807 0.379272
vt 0.198872 0.567482
vt 0.136648 0.556264
vt 0.227162 1.000083
vt 0.376585 0.873555
vt 0.431468 0.893597
vt 0.502840 0.652110
vt 0.505978 0.691525
vt 0.357939 0.812192
vt 0.429570 0.757383
vt 0.464592 0.782081
vt 0.086436 0.358292
vt 0.458958 0.720904
vt 0.335392 0.623349
vt 0.318170 0.722492
vt 0.453772 0.629519
vt 0.502319 0.652263
vt 0.535541 0.658953
vt 0.620485 0.651860
vt 0.585286 0.677959
vt 0.585036 0.653036
vt 0.537196 0.712397
vt 0.539568 0.628809
vt 0.609924 0.637981
vt 0.736240 0.644628
vt 0.738065 0.654240
vt 0.620479 0.651731
vt 0.636644 0.688789
vt 0.634341 0.636845
vt 0.620659 0.626212
vt 0.621630 0.626169
vt 0.634415 0.636711
vt 0.621747 0.698284
vt 0.637904 0.688632
vt 0.622722 0.698509
vt 0.739936 0.673088
vt 0.855011 0.675072
vt 0.848424 0.688066
vt 0.735290 0.683841
vt 0.733904 0.683902
vt 0.735955 0.644357
vt 0.853922 0.652780
vt 0.930976 0.662932
vt 0.847757 0.639699
vt 0.846770 0.687464
vt 0.844901 0.639940
vt 0.705288 0.816480
vt 0.713826 0.778987
vt 0.740720 0.773576
vt 0.882179 0.612015
vt 0.899856 0.627928
vt 0.785942 0.736645
vt 0.737589 0.736729
vt 0.901302 0.699551
vt 0.884237 0.716418
vt 0.900479 0.604918
vt 0.916589 0.616133
vt 0.731208 0.810827
vt 0.781252 0.815738
vt 0.790334 0.776663
vt 0.792820 0.815738
vt 0.685652 0.759838
vt 0.682998 0.724699
vt 0.711337 0.723956
vt 0.939637 0.630374
vt 0.958197 0.643410
vt 0.714280 0.761171
vt 0.943641 0.704152
vt 0.953097 0.723032
vt 0.935201 0.732650
vt 0.915847 0.585154
vt 0.932255 0.595743
vt 0.952994 0.606220
vt 0.969294 0.619042
vt 0.922477 0.715765
vt 0.905978 0.727096
vt 0.960172 0.694215
vt 0.966986 0.714759
vt 0.617389 0.759351
vt 0.985830 0.539770
vt 0.921638 0.742261
vt 0.680217 0.809225
vt 0.686244 0.780282
vt 0.937908 0.632033
vt 0.914075 0.616766
vt 0.799629 0.741538
vt 0.950384 0.606690
vt 0.929177 0.595962
vt 0.606845 0.782846
vt 0.985831 0.786770
vt 0.825950 0.740125
vt 0.831428 0.765482
vt 0.824292 0.789807
vt 0.983405 0.540292
vt 0.886502 0.769618
vt 0.079441 0.642572
vt 0.323805 0.783669
vt 0.434321 0.717690
vt 0.181030 0.905936
vt 0.750185 0.933357
vt 0.852619 0.330170
vt 0.864841 0.273657
vt 0.471659 1.000083
vt 0.471227 0.822073
vt 0.875009 0.140328
vt 0.884706 0.228470
vt 0.005478 0.997961
vt 0.114251 0.350647
vt 0.008771 0.296380
vt 0.128249 0.435302
vt 0.008771 0.432960
vt 0.118380 0.522092
vt 0.175368 0.588619
vt 0.080720 0.522092
vt 0.116882 0.518706
vt 0.184949 0.068196
vt 0.118473 0.523480
vt 0.062823 0.510229
vt 0.088521 0.433747
vt 0.009554 0.660973
vt 0.474881 0.981892
vt 0.498876 0.974226
vt 0.010156 0.675711
vt 0.499828 0.971670
vt 0.345428 0.798296
vt 0.351108 0.999781
vt 0.009554 0.417542
vt 0.227609 0.895594
vt 0.243451 0.775267
vt 0.115982 0.348692
vt 0.223246 0.888263
vt 0.129915 0.437866
vt 0.182713 1.000024
vt 0.326573 0.827899
vt 0.051738 0.313685
vt 0.695543 0.105347
vt 0.187334 0.073157
vt 0.119252 0.520838
vt 0.200882 0.566241
vt 0.375541 0.599880
vt 0.459519 0.720731
vt 0.609394 0.637996
vt 0.636730 0.636125
vt 0.637405 0.688736
vt 0.938273 0.630062
vt 0.434214 0.717270
vt 0.356995 0.797342
vt 0.225020 0.895652
vt 0.755753 0.860681
vt 0.008771 0.676593
vt 0.423936 0.696206
vt 0.170235 0.588096
vt 0.430293 1.000083
vt 0.396997 0.861241
vt 0.057372 0.374862
vt 0.634627 0.636963
vt 0.637990 0.688597
vt 0.967389 0.665035
vt 0.889587 0.181464
vt 0.376483 0.598964
vn 0.367900 -0.910500 -0.188500
vn 0.345500 -0.669600 -0.657400
vn -0.644100 -0.384700 -0.661200
vn 0.390400 -0.901500 -0.186600
vn -0.791600 -0.422100 -0.441800
vn -0.081500 -0.701300 -0.708100
vn -0.424000 -0.727700 -0.539100
vn -0.444000 0.876400 -0.186400
vn -0.370800 0.924600 -0.086900
vn -0.295200 0.711600 0.637500
vn -0.557300 0.491800 0.668900
vn -0.111500 -0.264400 0.957900
vn -0.481600 0.842400 -0.241800
vn 0.046500 -0.098700 -0.994000
vn -0.754300 -0.460000 0.468400
vn -0.107300 -0.101500 0.989000
vn -0.746600 -0.535300 0.395000
vn -0.370300 0.889200 0.268400
vn 0.148200 0.984600 0.091900
vn -0.183600 0.123400 -0.975200
vn -0.366800 0.899800 0.236000
vn -0.790900 -0.612000 -0.000100
vn -0.544700 -0.776500 -0.316800
vn -0.414900 -0.880800 -0.228200
vn -0.898200 -0.194300 -0.394300
vn -0.730500 -0.339400 0.592600
vn -0.350300 0.783300 0.513400
vn -0.995700 0.088100 -0.026900
vn 0.231000 -0.411200 -0.881700
vn 0.251000 -0.651600 -0.715800
vn -0.135200 -0.903600 -0.406500
vn -0.984500 0.071900 -0.160000
vn 0.082100 0.137200 -0.987100
vn 0.049300 0.026100 -0.998400
vn 0.290000 -0.469200 -0.834100
vn 0.214500 -0.393500 -0.893900
vn -0.390000 -0.743200 -0.543600
vn -0.962500 -0.046700 -0.267300
vn -0.347000 0.871900 0.345300
vn -0.098000 -0.688000 0.719000
vn -0.937500 0.329100 -0.113000
vn -0.661800 0.398900 0.634700
vn 0.252900 0.537300 0.804500
vn 0.453700 -0.754300 0.474500
vn -0.281300 0.779300 0.560000
vn -0.806500 -0.577000 0.128900
vn -0.722600 -0.691200 0.003800
vn -0.099900 0.492200 0.864700
vn 0.136400 -0.836300 0.531000
vn -0.705600 -0.537100 -0.462300
vn 0.438200 -0.399300 -0.805300
vn 0.217700 0.879200 -0.423800
vn -0.617000 0.778900 0.112600
vn -0.041700 0.849700 -0.525600
vn -0.730200 0.505100 -0.460100
vn 0.257700 -0.483400 -0.836500
vn -0.511300 -0.496700 -0.701300
vn -0.796400 0.270600 0.540800
vn -0.596100 -0.746100 0.296600
vn 0.238700 -0.917500 0.318200
vn -0.202800 0.377100 0.903700
vn 0.732000 -0.469300 0.493900
vn 0.625800 0.158100 0.763800
vn -0.796500 0.268300 -0.541900
vn 0.000100 0.707600 0.706600
vn -0.321400 0.893800 0.312700
vn -0.862800 -0.156900 0.480500
vn -0.157700 0.059800 0.985700
vn 0.021400 -0.232400 -0.972400
vn 0.032200 -0.863000 -0.504100
vn -0.844100 0.222200 0.488000
vn -0.797100 -0.591400 0.122100
vn -0.273000 0.721700 0.636100
vn -0.319500 0.792500 0.519400
vn -0.756200 0.044300 -0.652900
vn 0.138800 0.339600 -0.930300
vn -0.052300 0.818700 -0.571700
vn -0.406000 -0.702100 -0.585000
vn -0.318800 0.784300 0.532100
vn -0.860300 0.150000 0.487200
vn -0.792500 0.015500 0.609600
vn 0.151300 -0.981000 -0.120800
vn 0.288400 -0.921300 -0.260700
vn 0.324700 -0.931300 -0.164900
vn 0.290400 -0.955900 0.042900
vn -0.427900 -0.880900 -0.202300
vn -0.384500 -0.923100 0.004100
vn -0.144700 -0.752000 0.643100
vn 0.614000 -0.718200 0.327200
vn 0.527900 -0.849000 0.022300
vn 0.121900 0.914800 -0.385100
vn -0.287100 0.671300 0.683300
vn 0.459600 0.879100 0.125800
vn -0.728300 0.577400 -0.368900
vn -0.704700 0.704600 -0.082800
vn -0.623600 -0.623800 0.471100
vn -0.888700 -0.345200 -0.301700
vn -0.494900 0.165500 -0.853000
vn 0.054000 -0.949400 0.309200
vn -0.240500 -0.920200 0.308800
vn -0.287800 -0.166300 0.943100
vn -0.439600 -0.821800 0.362400
vn -0.271600 -0.438600 0.856600
vn 0.169800 -0.181700 0.968600
vn -0.000100 0.824600 -0.565700
vn 0.532200 0.837700 -0.122600
vn -0.265100 -0.849300 0.456500
vn 0.285700 -0.898400 0.333600
vn -0.016800 -0.730700 0.682500
vn 0.198400 -0.500100 0.842900
vn 0.419500 -0.371300 0.828300
vn 0.474100 0.876000 -0.088200
vn -0.181800 -0.983200 0.011000
vn 0.173300 -0.723100 0.668600
vn 0.120200 -0.948800 0.292100
vn 0.249000 -0.842300 0.478000
vn 0.627000 -0.282100 0.726100
vn 0.021700 0.998600 0.048100
vn -0.884100 -0.265500 0.384500
vn 0.193200 -0.664800 0.721500
vn 0.340000 -0.940200 -0.018000
vn -0.035100 0.983200 -0.178800
vn 0.862600 -0.185000 -0.470700
vn 0.321000 -0.581800 0.747300
vn 0.455300 -0.881800 -0.122700
vn 0.437100 -0.476800 0.762600
vn -0.384700 0.085900 0.919000
vn -0.028300 0.886500 0.461800
vn 0.108300 -0.410000 0.905600
vn -0.431700 0.899300 -0.070200
vn 0.430800 -0.897700 0.092600
vn -0.942200 -0.214100 -0.257500
vn 0.215700 0.888200 0.405600
vn -0.882600 -0.094400 0.460500
vn -0.768600 -0.555900 -0.316400
vn 0.868800 0.029200 0.494200
vn 0.350700 -0.377100 0.857200
vn -0.992400 -0.072000 -0.099500
vn 0.830400 0.406400 -0.380900
vn 0.288600 0.176900 0.940900
vn 0.833600 0.300200 0.463500
vn 0.278200 0.951400 -0.131900
vn 0.885200 -0.226200 0.406500
vn 0.801200 -0.326500 -0.501500
vn 0.795400 -0.501900 0.339700
vn -0.464100 -0.885800 0.000400
vn -0.435200 -0.433800 -0.788900
vn -0.842100 0.346100 -0.413500
vn -0.445400 -0.895300 -0.010900
vn -0.545800 -0.555800 -0.627000
vn 0.147400 0.988100 0.044300
vn -0.771700 0.593100 -0.229700
vn -0.521100 0.716800 0.463400
vn 0.978600 0.186600 -0.086300
vn 0.389100 -0.911000 -0.136400
vn 0.839700 -0.543000 0.008400
vn -0.583600 -0.287500 -0.759400
vn 0.217500 0.963200 0.157600
vn 0.962700 -0.218300 -0.159700
vn -0.372900 -0.620300 -0.690000
vn 0.135800 0.839700 0.525800
vn 0.991100 0.056100 -0.120700
vn -0.806600 -0.334900 -0.487000
vn 0.131000 -0.532400 0.836200
vn -0.722800 0.682800 -0.106300
vn 0.962000 0.041800 -0.269800
vn -0.418100 -0.501400 -0.757500
vn -0.472900 -0.807200 -0.353200
vn -0.903500 0.264300 0.337300
vn 0.289100 0.161800 0.943500
vn -0.805200 0.485700 0.340100
vn -0.910300 0.000100 0.413900
vn 0.361300 0.268900 0.892800
vn -0.801000 -0.203100 0.563100
vn 0.294700 -0.243100 0.924100
vn 0.869400 -0.331000 -0.366800
vn 0.220700 -0.974200 0.045900
vn -0.483700 -0.133900 -0.864900
vn 0.631500 0.493100 -0.598300
vn 0.775500 0.301900 -0.554400
vn -0.230400 -0.900100 -0.369800
vn -0.061900 -0.996400 -0.058100
vn -0.186300 0.497100 0.847400
vn 0.527500 -0.449000 0.721200
vn -0.025200 -0.395600 0.918100
vn -0.150300 -0.585400 0.796700
vn -0.980200 -0.168000 -0.104600
vn 0.290600 -0.864600 -0.409900
vn 0.263600 -0.647600 -0.714900
vn -0.305700 0.713100 0.630800
vn 0.299700 -0.895400 -0.329200
vn 0.465600 -0.877000 -0.118100
vn -0.284300 0.327600 -0.901000
vn 0.889200 0.145600 -0.433700
vn 0.521500 0.103300 -0.846900
vn 0.613700 0.174300 0.770000
vn 0.948100 0.216200 -0.233100
vn 0.700800 -0.257700 0.665100
vn -0.134900 -0.550600 0.823800
vn -0.804400 -0.547100 0.231700
vn 0.814800 0.017900 0.579500
vn -0.402500 0.879600 0.253400
vn 0.912900 0.343300 -0.220700
vn 0.890700 -0.253900 -0.377100
vn 0.306200 0.453900 -0.836800
vn 0.934000 -0.155500 0.321800
vn 0.457800 0.559200 0.691100
vn 0.826400 -0.560500 0.052700
vn -0.378400 0.893500 0.241700
vn 0.541600 0.733300 0.410900
vn 0.769600 -0.532600 -0.352200
vn 0.963200 -0.249500 -0.099600
vn 0.996600 0.038400 -0.072800
vn 0.922100 -0.349100 -0.166400
vn 0.801800 0.591500 0.084800
vn -0.002400 0.350900 0.936400
vn -0.098300 -0.937300 0.334200
vn -0.603100 0.313800 0.733300
vn 0.135900 0.512100 0.848100
vn 0.965800 -0.191300 0.174600
vn 0.197000 -0.904300 0.378800
vn -0.284100 0.270500 0.919800
vn -0.552000 0.756100 -0.351500
vn -0.017800 -0.341500 -0.939700
vn 0.994000 0.069600 -0.083700
vn 0.027900 0.950600 0.309000
vn 0.480500 0.451900 0.751500
vn 0.453200 0.872400 -0.183000
vn 0.169400 -0.310600 -0.935300
vn -0.310300 0.874800 -0.372000
vn 0.806600 -0.014900 -0.590900
vn 0.832200 -0.437800 0.340200
vn 0.649800 0.313800 0.692300
vn 0.284700 -0.896000 0.340700
vn 0.872800 0.190400 -0.449300
vn 0.936900 -0.261900 -0.231400
vn -0.901800 -0.039500 0.430400
vn 0.954300 -0.073500 0.289400
vn 0.942800 -0.088600 0.321300
vn 0.473700 0.563900 0.676400
vn 0.883200 0.440200 -0.161600
vn 0.881400 -0.439900 0.172200
vn 0.472900 0.389900 0.790100
vn 0.880600 -0.473500 -0.018300
vn 0.804700 -0.571500 0.160700
vn 0.403100 0.570100 0.715800
vn -0.536100 0.842000 0.059800
vn -0.315300 0.864300 0.392000
vn 0.650000 0.759700 -0.017400
vn 0.631800 -0.589700 0.503100
vn 0.999200 -0.027300 -0.029500
vn 0.547100 0.235100 -0.803400
vn 0.468700 -0.369100 0.802500
vn 0.399200 -0.605300 0.688600
vn -0.224600 -0.912900 0.340700
vn 0.210400 -0.925800 0.313900
vn 0.113200 -0.832500 0.542300
vn -0.225300 0.951900 -0.207400
vn -0.646900 -0.202200 0.735300
vn 0.054800 0.994400 -0.090700
vn 0.121000 -0.992400 -0.022500
vn -0.086200 -0.942400 0.323100
vn -0.077500 -0.987000 0.140500
vn -0.139200 -0.932000 0.334500
vn -0.656700 -0.158000 0.737400
vn -0.419000 0.259400 0.870100
vn -0.068100 -0.870600 0.487300
vn -0.293800 -0.909900 0.292700
vn -0.264800 -0.878000 0.398600
vn -0.456300 -0.879100 -0.137800
vn -0.501500 -0.825800 0.257800
vn -0.315100 -0.669500 0.672600
vn 0.626500 0.002300 0.779400
vn -0.370900 0.132400 0.919200
vn 0.848800 -0.040400 0.527200
vn 0.816300 -0.544700 -0.191900
vn 0.687500 0.643100 -0.337100
vn -0.381000 -0.430900 0.818000
vn -0.893700 0.258900 0.366400
vn -0.825100 0.361600 -0.434000
vn -0.897200 -0.286900 0.335600
vn -0.339900 0.923500 -0.177800
vn 0.514800 -0.852700 0.088600
vn -0.810700 -0.505300 0.295500
vn -0.728400 -0.395200 -0.559600
vn 0.521000 -0.421300 -0.742300
vn 0.838600 0.412300 -0.355900
vn 0.727300 0.651100 -0.216800
vn 0.634400 -0.531300 -0.561400
vn 0.516400 -0.855400 0.039200
vn -0.230300 0.973000 -0.014200
vn 0.455100 0.766000 0.454100
vn -0.983800 0.090600 -0.154400
vn 0.586100 -0.275000 -0.762100
vn -0.811700 -0.583700 0.021600
vn -0.343700 -0.937200 -0.059500
vn -0.954300 -0.259300 -0.148500
vn -0.260000 0.956300 0.133700
vn 0.668900 0.733800 -0.118300
vn 0.434600 -0.613800 -0.659100
vn -0.993400 0.013900 -0.113700
vn -0.177300 0.814900 0.551700
vn -0.072200 -0.475300 0.876800
vn 0.868000 -0.270700 -0.416200
vn 0.408700 -0.480200 -0.776100
vn -0.976800 -0.028200 -0.212300
vn 0.899900 0.303200 0.313500
vn 0.472600 -0.823100 -0.314900
vn -0.284000 0.157400 0.945800
vn -0.259800 -0.248100 0.933200
vn 0.920000 0.027800 0.390900
vn -0.335800 0.227000 0.914200
vn 0.845600 -0.133300 0.516900
vn 0.777300 0.537500 0.326700
vn -0.864200 -0.369600 -0.341300
vn -0.124900 -0.990000 0.065000
vn 0.480300 -0.114000 -0.869600
vn -0.619400 0.434200 -0.654100
vn 0.334600 -0.878400 -0.341100
vn -0.747800 0.239400 -0.619200
vn 0.069700 -0.995100 -0.069200
vn 0.074700 0.508700 0.857700
vn -0.550100 -0.490800 0.675600
vn 0.945000 0.307800 0.110400
vn 0.570800 0.136000 0.809700
vn 0.893900 -0.437800 -0.096200
vn 0.573100 -0.777600 0.258300
s 1
f 181/1/1 182/2/2 14/3/3
f 180/4/4 9/5/5 4/6/6
f 3/7/7 4/8/6 7/9/8
f 4/8/6 9/10/5 8/11/9
f 6/12/10 73/13/11 57/14/12
f 3/7/7 5/15/13 1/16/14
f 76/17/15 6/12/10 10/18/16
f 8/19/9 9/10/5 12/20/17
f 11/21/18 12/22/17 14/23/3
f 15/24/19 6/25/10 76/26/15
f 14/27/3 77/28/20 16/29/21
f 32/30/22 61/31/23 64/32/24
f 16/33/21 17/34/25 20/35/26
f 19/36/27 20/35/26 23/37/28
f 18/38/29 21/39/30 78/40/31
f 42/41/32 58/42/33 79/43/34
f 24/44/35 27/45/36 60/46/37
f 23/37/28 26/47/38 25/48/39
f 41/49/40 42/50/32 80/51/41
f 40/52/42 47/53/43 44/54/44
f 33/55/45 34/56/46 37/57/47
f 47/53/43 51/58/48 48/59/49
f 29/60/50 45/61/51 46/62/52
f 29/60/50 32/30/22 44/63/44
f 39/64/53 46/65/52 47/53/43
f 51/66/48 50/67/54 54/68/55
f 44/63/44 48/69/49 49/70/56
f 46/65/52 50/71/54 51/58/48
f 46/62/52 45/61/51 49/70/56
f 50/67/54 49/72/56 53/73/57
f 51/66/48 55/74/58 52/75/59
f 49/72/56 48/76/49 52/75/59
f 37/57/47 38/77/60 36/78/61
f 57/79/12 249/80/62 229/81/63
f 80/51/41 82/82/64 81/83/65
f 187/84/66 71/85/67 70/86/68
f 82/87/64 83/88/69 86/89/70
f 176/90/71 174/91/72 175/92/73
f 28/93/74 39/64/53 40/52/42
f 26/47/38 39/64/53 25/48/39
f 175/92/73 174/91/72 34/56/46
f 66/94/75 56/95/76 58/42/33
f 27/45/36 74/96/77 76/97/15
f 60/46/37 61/31/23 29/60/50
f 59/98/78 60/46/37 26/99/38
f 29/60/50 61/31/23 32/30/22
f 185/100/79 62/101/80 67/102/81
f 30/103/82 63/104/83 64/32/24
f 65/105/84 69/106/85 72/107/86
f 67/108/81 68/109/87 72/107/86
f 35/110/88 41/111/40 325/112/89
f 62/113/80 64/32/24 68/109/87
f 63/104/83 65/105/84 68/109/87
f 69/106/85 70/114/68 71/115/67
f 3/116/7 1/117/14 178/118/90
f 6/25/10 15/24/19 2/119/91
f 61/31/23 60/46/37 76/97/15
f 30/103/82 61/31/23 76/97/15
f 21/39/30 24/44/35 59/98/78
f 78/40/31 59/98/78 23/120/28
f 17/121/25 18/38/29 78/40/31
f 31/122/92 40/52/42 176/90/71
f 80/123/41 79/43/34 83/88/69
f 120/124/93 119/125/94 123/126/95
f 126/127/96 118/128/97 127/129/98
f 86/130/70 89/131/99 88/132/100
f 114/133/101 93/134/102 112/135/103
f 91/136/104 90/137/105 94/138/106
f 93/134/102 98/139/107 104/140/108
f 112/135/103 93/134/102 109/141/109
f 94/142/106 93/143/102 98/144/107
f 92/145/110 96/146/111 98/139/107
f 99/147/112 98/144/107 97/148/113
f 93/134/102 104/140/108 115/149/114
f 111/150/115 93/134/102 116/151/116
f 96/146/111 100/152/117 97/153/113
f 99/154/112 95/155/118 100/152/117
f 73/13/11 66/156/75 102/157/119
f 93/134/102 113/158/120 116/151/116
f 100/152/117 95/155/118 101/159/121
f 95/160/118 97/148/113 101/161/121
f 97/153/113 100/152/117 101/159/121
f 94/138/106 99/154/112 96/146/111
f 98/139/107 97/153/113 104/140/108
f 56/162/76 237/163/122 224/164/123
f 97/153/113 101/159/121 104/140/108
f 104/140/108 105/165/124 115/149/114
f 108/166/125 111/150/115 116/151/116
f 116/151/116 113/158/120 106/167/126
f 110/168/127 112/135/103 109/141/109
f 115/149/114 105/165/124 106/167/126
f 114/133/101 112/135/103 110/168/127
f 108/166/125 109/141/109 111/150/115
f 57/14/12 73/13/11 102/157/119
f 35/169/88 57/14/12 102/157/119
f 81/83/65 82/82/64 84/170/128
f 109/141/109 93/134/102 111/150/115
f 93/134/102 115/149/114 113/158/120
f 224/171/123 238/172/129 229/81/63
f 237/163/122 241/173/130 240/174/131
f 66/156/75 327/175/132 102/157/119
f 73/176/11 2/119/91 90/177/105
f 124/178/133 123/126/95 122/179/134
f 85/180/135 88/181/100 118/182/97
f 84/183/128 82/184/64 120/124/93
f 118/185/97 122/179/134 123/126/95
f 84/183/128 120/124/93 117/186/136
f 117/186/136 120/124/93 124/178/133
f 125/187/137 126/127/96 130/188/138
f 117/189/136 128/190/139 127/191/98
f 126/127/96 125/187/137 121/192/140
f 122/179/134 118/128/97 126/127/96
f 117/193/136 125/187/137 129/194/141
f 129/194/141 135/195/142 137/196/143
f 117/193/136 121/192/140 125/187/137
f 133/197/144 134/198/145 132/199/146
f 129/194/141 134/200/145 133/201/144
f 128/190/139 133/197/144 131/202/147
f 130/188/138 127/129/98 131/203/147
f 136/204/148 138/205/149 142/206/150
f 130/207/138 136/204/148 135/195/142
f 130/207/138 132/208/146 138/205/149
f 132/199/146 134/198/145 137/209/143
f 139/210/151 140/211/152 147/212/153
f 136/204/148 140/211/152 139/210/151
f 135/195/142 139/210/151 141/213/154
f 138/214/149 137/209/143 141/215/154
f 148/216/155 158/217/156 161/218/157
f 139/210/151 143/219/158 145/220/159
f 141/221/154 145/222/159 148/216/155
f 140/211/152 142/206/150 146/223/160
f 143/219/158 150/224/161 149/225/162
f 146/226/160 142/227/150 148/216/155
f 142/227/150 168/228/163 167/229/164
f 140/211/152 144/230/165 147/212/153
f 143/219/158 139/210/151 147/212/153
f 149/231/162 153/232/166 156/233/167
f 147/212/153 148/234/155 152/235/168
f 147/212/153 151/236/169 150/224/161
f 145/222/159 149/231/162 152/237/168
f 160/238/170 159/239/171 164/240/172
f 150/224/161 154/241/173 153/242/166
f 151/236/169 152/235/168 156/243/167
f 151/236/169 155/244/174 154/241/173
f 147/212/153 144/230/165 159/239/171
f 144/230/165 146/223/160 161/245/157
f 147/212/153 160/238/170 158/246/156
f 160/238/170 162/247/175 163/248/176
f 156/233/167 153/232/166 157/249/177
f 153/242/166 154/241/173 157/250/177
f 155/244/174 156/243/167 157/250/177
f 154/241/173 155/244/174 157/250/177
f 159/239/171 161/245/157 165/251/178
f 158/217/156 163/252/176 165/253/178
f 142/254/150 141/215/154 169/255/179
f 141/221/154 148/216/155 167/229/164
f 169/255/179 172/256/180 171/257/181
f 165/253/178 163/252/176 166/258/182
f 163/248/176 162/247/175 166/259/182
f 162/247/175 164/240/172 166/259/182
f 164/240/172 165/251/178 166/259/182
f 169/260/179 167/229/164 170/261/183
f 167/229/164 168/228/163 171/262/181
f 171/257/181 172/256/180 173/263/184
f 172/264/180 170/261/183 173/265/184
f 170/261/183 171/262/181 173/265/184
f 88/266/100 87/267/185 117/189/136
f 82/268/64 85/180/135 119/269/94
f 240/270/131 239/271/186 238/172/129
f 40/52/42 32/272/22 176/90/71
f 176/90/71 32/272/22 174/91/72
f 54/68/55 53/73/57 177/273/187
f 53/73/57 52/75/59 177/273/187
f 52/75/59 55/74/58 177/273/187
f 55/74/58 54/68/55 177/273/187
f 183/274/188 184/275/189 37/276/47
f 71/85/67 187/84/66 186/277/190
f 188/278/191 183/274/188 34/279/46
f 3/116/7 178/118/90 179/280/192
f 180/4/4 181/1/1 12/281/17
f 189/282/193 32/283/22 62/101/80
f 189/282/193 188/278/191 174/284/72
f 18/38/29 17/121/25 77/285/20
f 88/266/100 89/286/99 87/267/185
f 37/276/47 184/275/189 38/287/60
f 190/288/194 191/289/195 179/290/192
f 16/291/21 19/292/27 197/293/196
f 7/294/8 191/295/195 190/296/194
f 8/297/9 193/298/197 191/295/195
f 230/299/198 75/300/199 10/301/16
f 190/296/194 1/302/14 5/303/13
f 327/175/132 66/156/75 324/304/200
f 8/305/9 11/306/18 194/307/201
f 11/306/18 13/308/202 195/309/203
f 219/310/204 24/311/35 21/312/30
f 16/291/21 231/313/205 195/309/203
f 201/314/206 222/315/207 223/316/208
f 191/289/195 193/317/197 180/318/4
f 19/292/27 22/319/209 198/320/210
f 18/321/29 232/322/211 21/312/30
f 206/323/212 233/324/213 79/325/34
f 220/326/214 27/327/36 24/311/35
f 25/328/39 199/329/215 198/320/210
f 41/111/40 43/330/216 233/331/213
f 207/332/217 210/333/218 205/334/219
f 33/335/45 36/336/61 203/337/220
f 211/338/221 214/339/222 210/333/218
f 209/340/223 208/341/224 200/342/225
f 200/342/225 208/341/224 207/343/217
f 210/333/218 209/344/223 204/345/226
f 214/346/222 218/347/227 217/348/228
f 212/349/229 211/350/221 207/343/217
f 214/339/222 213/351/230 209/344/223
f 209/340/223 213/352/230 212/349/229
f 213/353/230 217/348/228 216/354/231
f 215/355/232 218/347/227 214/346/222
f 212/356/229 216/354/231 215/355/232
f 227/357/233 70/358/68 69/359/85
f 236/360/234 87/361/185 89/362/99
f 81/363/65 234/364/235 233/331/213
f 187/84/66 70/86/68 227/365/233
f 236/360/234 265/366/236 264/367/237
f 28/368/74 31/369/92 205/334/219
f 204/345/226 200/370/225 199/329/215
f 175/371/73 33/335/45 202/372/238
f 175/371/73 321/373/239 322/374/240
f 196/375/241 197/376/196 232/322/211
f 200/342/225 221/377/242 220/326/214
f 199/378/215 220/326/214 219/310/204
f 200/342/225 201/314/206 221/377/242
f 185/100/79 186/277/190 225/379/243
f 223/316/208 63/380/83 30/381/82
f 228/382/244 69/359/85 65/383/84
f 225/384/243 227/357/233 228/382/244
f 222/315/207 225/384/243 226/385/245
f 226/385/245 65/383/84 63/380/83
f 186/277/190 187/84/66 227/365/233
f 190/288/194 178/386/90 1/387/14
f 192/388/246 229/389/63 2/390/91
f 221/377/242 230/391/198 220/326/214
f 30/381/82 75/392/199 230/391/198
f 230/393/198 192/388/246 15/394/19
f 198/395/210 219/310/204 232/322/211
f 31/369/92 322/374/240 205/334/219
f 233/324/213 234/396/235 83/397/69
f 267/398/247 271/399/248 270/400/249
f 273/401/250 277/402/251 274/403/252
f 261/404/253 259/405/254 240/270/131
f 238/172/129 239/271/186 241/406/130
f 240/270/131 251/407/255 245/408/256
f 259/405/254 256/409/257 240/270/131
f 241/173/130 246/410/258 245/411/256
f 245/408/256 243/412/259 239/271/186
f 246/410/258 242/413/260 244/414/261
f 240/270/131 262/415/262 251/407/255
f 258/416/263 263/417/264 240/270/131
f 244/418/261 247/419/265 243/412/259
f 247/419/265 242/420/260 246/421/258
f 103/422/266 66/423/75 114/133/101
f 240/270/131 263/417/264 260/424/267
f 247/419/265 248/425/268 242/420/260
f 242/413/260 248/426/268 244/414/261
f 244/418/261 248/425/268 247/419/265
f 243/412/259 246/421/258 241/406/130
f 245/408/256 251/407/255 244/418/261
f 244/418/261 251/407/255 248/425/268
f 251/407/255 262/415/262 252/427/269
f 255/428/270 254/429/271 263/417/264
f 263/417/264 254/429/271 253/430/272
f 257/431/273 256/409/257 259/405/254
f 262/415/262 260/424/267 253/430/272
f 257/431/273 259/405/254 261/404/253
f 255/428/270 258/416/263 256/409/257
f 66/432/75 93/134/102 114/133/101
f 81/363/65 84/433/128 234/364/235
f 256/409/257 258/416/263 240/270/131
f 240/270/131 260/424/267 262/415/262
f 229/389/63 238/434/129 237/435/122
f 230/391/198 74/436/77 27/327/36
f 231/437/205 18/321/29 195/438/203
f 271/399/248 268/439/274 269/440/275
f 235/441/276 266/442/277 265/443/236
f 236/444/234 89/131/99 86/130/70
f 270/400/249 269/440/275 265/445/236
f 84/446/128 267/398/247 234/447/235
f 264/448/237 268/449/274 271/399/248
f 272/450/278 276/451/279 277/402/251
f 274/452/252 275/453/280 264/367/237
f 273/401/250 269/440/275 268/439/274
f 269/440/275 273/401/250 265/454/236
f 264/455/237 275/456/280 276/451/279
f 284/457/281 282/458/282 276/459/279
f 264/455/237 272/450/278 268/439/274
f 279/460/283 281/461/284 280/462/285
f 280/463/285 281/464/284 276/451/279
f 278/465/286 280/462/285 275/453/280
f 277/402/251 279/466/283 278/467/286
f 283/468/287 287/469/288 289/470/289
f 282/458/282 283/468/287 277/402/251
f 277/402/251 283/468/287 285/471/290
f 279/460/283 285/472/290 284/473/281
f 286/474/291 294/475/292 287/469/288
f 286/474/291 287/469/288 283/468/287
f 288/476/293 286/474/291 282/458/282
f 285/472/290 289/477/289 288/478/293
f 308/479/294 305/480/295 295/481/296
f 292/482/297 290/483/298 286/474/291
f 288/484/293 295/481/296 292/485/297
f 287/469/288 291/486/299 293/487/300
f 296/488/301 297/489/302 290/483/298
f 293/490/300 295/481/296 289/491/289
f 314/492/303 315/493/304 289/491/289
f 287/469/288 294/475/292 291/486/299
f 290/483/298 294/475/292 286/474/291
f 303/494/305 300/495/306 296/496/301
f 294/475/292 298/497/307 299/498/308
f 297/489/302 298/497/307 294/475/292
f 299/499/308 296/496/301 292/485/297
f 307/500/309 309/501/310 311/502/311
f 300/503/306 301/504/312 297/489/302
f 298/497/307 302/505/313 303/506/305
f 301/504/312 302/505/313 298/497/307
f 294/475/292 307/500/309 306/507/314
f 291/486/299 306/507/314 308/508/294
f 305/509/295 307/500/309 294/475/292
f 310/510/315 309/501/310 307/500/309
f 303/494/305 304/511/316 300/495/306
f 300/503/306 304/512/316 301/504/312
f 302/505/313 304/512/316 303/506/305
f 301/504/312 304/512/316 302/505/313
f 306/507/314 311/502/311 312/513/317
f 312/514/317 310/515/315 305/480/295
f 289/477/289 315/516/304 316/517/318
f 288/484/293 316/518/318 314/492/303
f 318/519/319 319/520/320 316/517/318
f 312/514/317 313/521/321 310/515/315
f 310/510/315 313/522/321 309/501/310
f 309/501/310 313/522/321 311/502/311
f 311/502/311 313/522/321 312/513/317
f 316/518/318 319/523/320 317/524/322
f 314/492/303 317/524/322 318/525/319
f 318/519/319 320/526/323 319/520/320
f 319/523/320 320/527/323 317/524/322
f 317/524/322 320/527/323 318/525/319
f 57/79/12 229/81/63 192/528/246
f 234/529/235 267/530/247 266/442/277
f 205/334/219 322/374/240 201/531/206
f 322/374/240 321/373/239 201/531/206
f 217/348/228 323/532/324 216/354/231
f 216/354/231 323/532/324 215/355/232
f 215/355/232 323/532/324 218/347/227
f 218/347/227 323/532/324 217/348/228
f 203/533/220 184/275/189 183/274/188
f 202/534/238 183/274/188 188/278/191
f 181/535/1 194/536/201 195/438/203
f 194/536/201 181/535/1 180/318/4
f 189/282/193 185/100/79 222/537/207
f 321/538/239 188/278/191 189/282/193
f 203/337/220 36/336/61 38/539/60
f 264/448/237 267/398/247 84/446/128
f 203/533/220 38/287/60 184/275/189
f 234/396/235 235/540/276 86/541/70
f 224/164/123 206/542/212 58/543/33
f 91/136/104 92/145/110 93/134/102
f 2/119/91 56/95/76 90/177/105
f 90/177/105 66/544/75 93/143/102
f 2/390/91 237/545/122 56/162/76
f 66/156/75 73/13/11 91/136/104
f 56/95/76 66/546/75 90/177/105
f 224/547/123 261/404/253 240/270/131
f 250/548/325 261/404/253 224/549/123
f 229/81/63 249/80/62 224/171/123
f 249/80/62 35/110/88 326/550/326
f 35/110/88 249/80/62 57/79/12
f 66/156/75 42/50/32 324/304/200
f 42/50/32 41/49/40 324/304/200
f 41/49/40 35/169/88 324/304/200
f 41/111/40 206/551/212 325/112/89
f 206/551/212 224/171/123 325/112/89
f 326/550/326 35/110/88 325/112/89
f 224/171/123 249/80/62 326/550/326
f 224/171/123 326/550/326 325/112/89
f 35/169/88 327/175/132 324/304/200
f 327/175/132 35/169/88 102/157/119
f 12/281/17 181/1/1 14/3/3
f 179/280/192 180/4/4 4/6/6
f 5/15/13 3/7/7 7/9/8
f 7/9/8 4/8/6 8/11/9
f 10/18/16 6/12/10 57/14/12
f 75/552/199 76/17/15 10/18/16
f 11/553/18 8/19/9 12/20/17
f 13/554/202 11/21/18 14/23/3
f 74/555/77 15/24/19 76/26/15
f 16/29/21 13/556/202 14/27/3
f 77/28/20 17/557/25 16/29/21
f 62/113/80 32/30/22 64/32/24
f 19/36/27 16/33/21 20/35/26
f 22/558/209 19/36/27 23/37/28
f 80/123/41 42/41/32 79/43/34
f 59/98/78 24/44/35 60/46/37
f 22/558/209 23/37/28 25/48/39
f 43/559/216 41/49/40 80/51/41
f 32/272/22 40/52/42 44/54/44
f 36/78/61 33/55/45 37/57/47
f 44/54/44 47/53/43 48/59/49
f 39/560/53 29/60/50 46/62/52
f 45/61/51 29/60/50 44/63/44
f 40/52/42 39/64/53 47/53/43
f 55/74/58 51/66/48 54/68/55
f 45/61/51 44/63/44 49/70/56
f 47/53/43 46/65/52 51/58/48
f 50/561/54 46/62/52 49/70/56
f 54/68/55 50/67/54 53/73/57
f 48/76/49 51/66/48 52/75/59
f 53/73/57 49/72/56 52/75/59
f 43/559/216 80/51/41 81/83/65
f 85/562/135 82/87/64 86/89/70
f 31/122/92 176/90/71 175/92/73
f 31/122/92 28/93/74 40/52/42
f 28/93/74 25/48/39 39/64/53
f 26/47/38 29/563/50 39/64/53
f 33/55/45 175/92/73 34/56/46
f 42/564/32 66/94/75 58/42/33
f 60/46/37 27/45/36 76/97/15
f 26/99/38 60/46/37 29/60/50
f 23/120/28 59/98/78 26/99/38
f 186/277/190 185/100/79 67/102/81
f 61/31/23 30/103/82 64/32/24
f 68/109/87 65/105/84 72/107/86
f 71/115/67 67/108/81 72/107/86
f 67/108/81 62/113/80 68/109/87
f 64/32/24 63/104/83 68/109/87
f 72/107/86 69/106/85 71/115/67
f 73/176/11 6/25/10 2/119/91
f 75/565/199 30/103/82 76/97/15
f 78/40/31 21/39/30 59/98/78
f 20/566/26 78/40/31 23/120/28
f 20/566/26 17/121/25 78/40/31
f 82/87/64 80/123/41 83/88/69
f 124/178/133 120/124/93 123/126/95
f 130/188/138 126/127/96 127/129/98
f 85/567/135 86/130/70 88/132/100
f 92/145/110 91/136/104 94/138/106
f 99/147/112 94/142/106 98/144/107
f 93/134/102 92/145/110 98/139/107
f 95/160/118 99/147/112 97/148/113
f 98/139/107 96/146/111 97/153/113
f 96/146/111 99/154/112 100/152/117
f 92/145/110 94/138/106 96/146/111
f 107/568/327 108/166/125 116/151/116
f 107/568/327 116/151/116 106/167/126
f 113/158/120 115/149/114 106/167/126
f 103/569/266 114/133/101 110/168/127
f 224/570/123 237/163/122 240/174/131
f 91/571/104 73/176/11 90/177/105
f 121/192/140 124/178/133 122/179/134
f 119/269/94 85/180/135 118/182/97
f 119/125/94 118/185/97 123/126/95
f 87/572/185 84/183/128 117/186/136
f 121/192/140 117/186/136 124/178/133
f 129/194/141 125/187/137 130/188/138
f 118/573/97 117/189/136 127/191/98
f 122/179/134 126/127/96 121/192/140
f 128/574/139 117/193/136 129/194/141
f 134/575/145 129/194/141 137/196/143
f 131/202/147 133/197/144 132/199/146
f 128/574/139 129/194/141 133/201/144
f 127/191/98 128/190/139 131/202/147
f 132/576/146 130/188/138 131/203/147
f 140/211/152 136/204/148 142/206/150
f 129/194/141 130/207/138 135/195/142
f 136/204/148 130/207/138 138/205/149
f 138/214/149 132/199/146 137/209/143
f 135/195/142 136/204/148 139/210/151
f 137/196/143 135/195/142 141/213/154
f 142/254/150 138/214/149 141/215/154
f 146/226/160 148/216/155 161/218/157
f 141/213/154 139/210/151 145/220/159
f 144/230/165 140/211/152 146/223/160
f 145/220/159 143/219/158 149/225/162
f 148/216/155 142/227/150 167/229/164
f 152/237/168 149/231/162 156/233/167
f 151/236/169 147/212/153 152/235/168
f 143/219/158 147/212/153 150/224/161
f 148/216/155 145/222/159 152/237/168
f 162/247/175 160/238/170 164/240/172
f 149/225/162 150/224/161 153/242/166
f 155/244/174 151/236/169 156/243/167
f 150/224/161 151/236/169 154/241/173
f 160/238/170 147/212/153 159/239/171
f 159/239/171 144/230/165 161/245/157
f 148/234/155 147/212/153 158/246/156
f 158/246/156 160/238/170 163/248/176
f 164/240/172 159/239/171 165/251/178
f 161/218/157 158/217/156 165/253/178
f 168/577/163 142/254/150 169/255/179
f 169/260/179 141/221/154 167/229/164
f 168/577/163 169/255/179 171/257/181
f 172/264/180 169/260/179 170/261/183
f 170/261/183 167/229/164 171/262/181
f 118/573/97 88/266/100 117/189/136
f 120/578/93 82/268/64 119/269/94
f 224/171/123 240/270/131 238/172/129
f 34/279/46 183/274/188 37/276/47
f 67/102/81 71/85/67 186/277/190
f 174/284/72 188/278/191 34/279/46
f 4/6/6 3/116/7 179/280/192
f 9/5/5 180/4/4 12/281/17
f 185/100/79 189/282/193 62/101/80
f 32/283/22 189/282/193 174/284/72
f 77/285/20 14/3/3 18/38/29
f 182/2/2 18/38/29 14/3/3
f 178/386/90 190/288/194 179/290/192
f 196/579/241 16/291/21 197/293/196
f 5/303/13 7/294/8 190/296/194
f 7/294/8 8/297/9 191/295/195
f 192/528/246 230/299/198 10/301/16
f 193/298/197 8/305/9 194/307/201
f 194/307/201 11/306/18 195/309/203
f 232/322/211 219/310/204 21/312/30
f 195/309/203 13/308/202 16/291/21
f 16/291/21 196/579/241 231/313/205
f 221/377/242 201/314/206 223/316/208
f 179/290/192 191/289/195 180/318/4
f 197/293/196 19/292/27 198/320/210
f 58/543/33 206/323/212 79/325/34
f 219/310/204 220/326/214 24/311/35
f 22/319/209 25/328/39 198/320/210
f 206/551/212 41/111/40 233/331/213
f 201/531/206 207/332/217 205/334/219
f 202/372/238 33/335/45 203/337/220
f 207/332/217 211/338/221 210/333/218
f 204/580/226 209/340/223 200/342/225
f 201/314/206 200/342/225 207/343/217
f 205/334/219 210/333/218 204/345/226
f 213/353/230 214/346/222 217/348/228
f 208/341/224 212/349/229 207/343/217
f 210/333/218 214/339/222 209/344/223
f 208/341/224 209/340/223 212/349/229
f 212/356/229 213/353/230 216/354/231
f 211/581/221 215/355/232 214/346/222
f 211/581/221 212/356/229 215/355/232
f 228/382/244 227/357/233 69/359/85
f 43/330/216 81/363/65 233/331/213
f 87/361/185 236/360/234 264/367/237
f 204/345/226 28/368/74 205/334/219
f 199/329/215 25/328/39 204/345/226
f 28/368/74 204/345/226 25/328/39
f 321/373/239 175/371/73 202/372/238
f 31/369/92 175/371/73 322/374/240
f 18/321/29 196/375/241 232/322/211
f 199/378/215 200/342/225 220/326/214
f 198/395/210 199/378/215 219/310/204
f 222/537/207 185/100/79 225/379/243
f 221/377/242 223/316/208 30/381/82
f 226/385/245 228/382/244 65/383/84
f 226/385/245 225/384/243 228/382/244
f 223/316/208 222/315/207 226/385/245
f 223/316/208 226/385/245 63/380/83
f 225/379/243 186/277/190 227/365/233
f 15/394/19 192/388/246 2/390/91
f 221/377/242 30/381/82 230/391/198
f 74/582/77 230/393/198 15/394/19
f 197/376/196 198/395/210 232/322/211
f 79/325/34 233/324/213 83/397/69
f 266/583/277 267/398/247 270/400/249
f 265/454/236 273/401/250 274/403/252
f 237/584/122 238/172/129 241/406/130
f 240/174/131 241/173/130 245/411/256
f 240/270/131 245/408/256 239/271/186
f 245/411/256 246/410/258 244/414/261
f 245/408/256 244/418/261 243/412/259
f 243/412/259 247/419/265 246/421/258
f 239/271/186 243/412/259 241/406/130
f 258/416/263 255/428/270 263/417/264
f 260/424/267 263/417/264 253/430/272
f 252/427/269 262/415/262 253/430/272
f 250/548/325 257/431/273 261/404/253
f 2/390/91 229/389/63 237/435/122
f 220/326/214 230/391/198 27/327/36
f 182/585/2 195/438/203 18/321/29
f 231/437/205 196/375/241 18/321/29
f 270/400/249 271/399/248 269/440/275
f 236/586/234 235/441/276 265/443/236
f 235/587/276 236/444/234 86/130/70
f 266/583/277 270/400/249 265/445/236
f 267/398/247 264/448/237 271/399/248
f 273/401/250 272/450/278 277/402/251
f 265/366/236 274/452/252 264/367/237
f 272/450/278 273/401/250 268/439/274
f 272/450/278 264/455/237 276/451/279
f 281/588/284 284/457/281 276/459/279
f 278/465/286 279/460/283 280/462/285
f 275/456/280 280/463/285 276/451/279
f 274/452/252 278/465/286 275/453/280
f 274/403/252 277/402/251 278/467/286
f 285/471/290 283/468/287 289/470/289
f 276/459/279 282/458/282 277/402/251
f 279/589/283 277/402/251 285/471/290
f 281/461/284 279/460/283 284/473/281
f 282/458/282 286/474/291 283/468/287
f 284/457/281 288/476/293 282/458/282
f 284/473/281 285/472/290 288/478/293
f 293/490/300 308/479/294 295/481/296
f 288/476/293 292/482/297 286/474/291
f 289/470/289 287/469/288 293/487/300
f 292/482/297 296/488/301 290/483/298
f 295/481/296 314/492/303 289/491/289
f 299/499/308 303/494/305 296/496/301
f 295/590/296 294/475/292 299/498/308
f 290/483/298 297/489/302 294/475/292
f 295/481/296 299/499/308 292/485/297
f 306/507/314 307/500/309 311/502/311
f 296/488/301 300/503/306 297/489/302
f 299/498/308 298/497/307 303/506/305
f 297/489/302 301/504/312 298/497/307
f 291/486/299 294/475/292 306/507/314
f 293/487/300 291/486/299 308/508/294
f 295/590/296 305/509/295 294/475/292
f 305/509/295 310/510/315 307/500/309
f 308/508/294 306/507/314 312/513/317
f 308/479/294 312/514/317 305/480/295
f 288/478/293 289/477/289 316/517/318
f 295/481/296 288/484/293 314/492/303
f 315/516/304 318/519/319 316/517/318
f 314/492/303 316/518/318 317/524/322
f 315/493/304 314/492/303 318/525/319
f 10/301/16 57/79/12 192/528/246
f 235/441/276 234/529/235 266/442/277
f 202/534/238 203/533/220 183/274/188
f 321/538/239 202/534/238 188/278/191
f 182/585/2 181/535/1 195/438/203
f 193/317/197 194/536/201 180/318/4
f 201/591/206 189/282/193 222/537/207
f 201/591/206 321/538/239 189/282/193
f 87/592/185 264/448/237 84/446/128
f 83/397/69 234/396/235 86/541/70
f 56/162/76 224/164/123 58/543/33
f 66/156/75 91/136/104 93/134/102
f 94/142/106 90/177/105 93/143/102
