v -0.060044 -0.172874 0.006006
v 0.126255 -0.129668 0.027701
v -0.000369 -0.080930 0.164214
v -0.163594 -0.027233 0.077500
v -0.137845 -0.042786 -0.112606
v 0.041290 -0.106093 -0.143381
v 0.137845 0.042676 0.112606
v -0.041290 0.105984 0.143381
v -0.126255 0.129559 -0.027701
v 0.000369 0.080821 -0.164214
v 0.163594 0.027124 -0.077500
v 0.060044 0.172765 -0.006006
vt 0.386864 0.162439
vt 0.420370 0.171564
vt 0.404543 0.178763
vt 0.457854 0.162439
vt 0.437234 0.176672
vt 0.391864 0.186615
vt 0.379156 0.185491
vt 0.450146 0.185491
vt 0.427359 0.193267
vt 0.414651 0.194392
vt 0.401739 0.203211
vt 0.384875 0.208318
vt 0.440037 0.201119
vt 0.455865 0.208318
vt 0.422359 0.217443
vn 0.150900 -0.878400 0.453600
vn 0.246400 -0.936000 -0.251300
vn -0.513300 -0.643600 0.567700
vn -0.828400 -0.556200 -0.066700
vn -0.358900 -0.736900 -0.572900
vn 0.758800 -0.477700 -0.442700
vn 0.604400 -0.384400 0.697800
vn -0.470300 -0.004600 0.882500
vn -0.980100 0.136800 -0.143900
vn -0.220400 -0.155600 -0.962900
vn 0.980100 -0.136800 0.143900
vn 0.220400 0.155600 0.962900
vn -0.758800 0.477700 0.442700
vn -0.604400 0.384400 -0.697800
vn 0.470300 0.004600 -0.882500
vn 0.828400 0.556200 0.066700
vn 0.358900 0.736900 0.572900
vn -0.246400 0.936000 0.251300
vn -0.150900 0.878400 -0.453600
vn 0.513300 0.643600 -0.567700
s off
f 1/1/1 2/2/1 3/3/1
f 2/2/2 1/4/2 6/5/2
f 1/1/3 3/3/3 4/6/3
f 1/1/4 4/6/4 5/7/4
f 1/4/5 5/8/5 6/5/5
f 2/2/6 6/5/6 11/9/6
f 3/3/7 2/2/7 7/10/7
f 4/6/8 3/3/8 8/11/8
f 5/7/9 4/6/9 9/12/9
f 6/5/10 5/8/10 10/13/10
f 2/2/11 11/9/11 7/10/11
f 3/3/12 7/10/12 8/11/12
f 4/6/13 8/11/13 9/12/13
f 5/8/14 9/14/14 10/13/14
f 6/5/15 10/13/15 11/9/15
f 7/10/16 11/9/16 12/15/16
f 8/11/17 7/10/17 12/15/17
f 9/14/18 8/11/18 12/15/18
f 10/13/19 9/14/19 12/15/19
f 11/9/20 10/13/20 12/15/20
v -0.110941 -0.217152 0.117123
v 0.170500 -0.192123 0.084824
v 0.032752 -0.023187 0.267483
v -0.218826 0.043544 0.152876
v -0.236557 -0.084153 -0.100616
v 0.004059 -0.229801 -0.142672
v 0.236557 0.084043 0.100616
v -0.004059 0.229692 0.142672
v -0.170500 0.192013 -0.084824
v -0.032752 0.023078 -0.267483
v 0.218826 -0.043654 -0.152876
v 0.110941 0.217042 -0.117123
vt 0.436894 0.681291
vt 0.490014 0.689372
vt 0.461930 0.729426
vt 0.615623 0.681291
vt 0.547019 0.676559
vt 0.431128 0.743508
vt 0.402342 0.716310
vt 0.581071 0.716310
vt 0.520492 0.725087
vt 0.491707 0.752285
vt 0.457655 0.792036
vt 0.400650 0.779223
vt 0.551294 0.739169
vt 0.372565 0.739169
vt 0.526258 0.787304
vt 0.579379 0.779223
vn 0.143200 -0.670400 0.728000
vn 0.098700 -0.990900 0.091900
vn -0.460600 -0.304900 0.833600
vn -0.878300 -0.399500 0.262700
vn -0.532600 -0.823400 -0.195700
vn 0.610100 -0.721800 -0.326800
vn 0.682100 -0.203300 0.702400
vn -0.294900 0.388100 0.873200
vn -0.970700 0.235100 -0.050500
vn -0.411400 -0.450900 -0.792200
vn 0.970700 -0.235100 0.050500
vn 0.411400 0.450900 0.792200
vn -0.610100 0.721800 0.326800
vn -0.682100 0.203300 -0.702400
vn 0.294900 -0.388100 -0.873200
vn 0.878300 0.399500 -0.262700
vn 0.532600 0.823400 0.195700
vn -0.098700 0.990900 -0.091900
vn -0.143200 0.670400 -0.728000
vn 0.460600 0.304900 -0.833600
s off
f 13/16/21 14/17/21 15/18/21
f 14/17/22 13/19/22 18/20/22
f 13/16/23 15/18/23 16/21/23
f 13/16/24 16/21/24 17/22/24
f 13/19/25 17/23/25 18/20/25
f 14/17/26 18/20/26 23/24/26
f 15/18/27 14/17/27 19/25/27
f 16/21/28 15/18/28 20/26/28
f 17/22/29 16/21/29 21/27/29
f 18/20/30 17/23/30 22/28/30
f 14/17/31 23/24/31 19/25/31
f 15/18/32 19/25/32 20/26/32
f 16/21/33 20/26/33 21/27/33
f 17/22/34 21/27/34 22/29/34
f 18/20/35 22/28/35 23/24/35
f 19/25/36 23/24/36 24/30/36
f 20/26/37 19/25/37 24/30/37
f 21/31/38 20/26/38 24/30/38
f 22/28/39 21/31/39 24/30/39
f 23/24/40 22/28/40 24/30/40
v 0.000000 -0.190491 0.000000
v 0.137800 -0.085221 0.100117
v -0.052634 -0.085221 0.161993
v -0.170332 -0.085221 0.000000
v -0.052634 -0.085221 -0.161993
v 0.137800 -0.085221 -0.100117
v 0.052634 0.085112 0.161993
v -0.137800 0.085112 0.100117
v -0.137800 0.085112 -0.100117
v 0.052634 0.085112 -0.161993
v 0.170332 0.085112 0.000000
v 0.000000 0.190383 0.000000
vt 0.905377 0.256761
vt 0.937766 0.280058
vt 0.922307 0.282019
vt 0.877436 0.280458
vt 0.907458 0.283568
vt 0.892691 0.282639
vt 0.861617 0.280058
vt 0.869384 0.302369
vt 0.846158 0.282019
vt 0.854616 0.303299
vt 0.831309 0.283568
vt 0.839362 0.305479
vt 0.899691 0.305880
vt 0.884233 0.303919
vt 0.915511 0.305479
vt 0.867302 0.329177
vn 0.187600 -0.794700 0.577400
vn 0.607100 -0.794700 0.000000
vn -0.491100 -0.794700 0.356800
vn -0.491100 -0.794700 -0.356800
vn 0.187600 -0.794700 -0.577400
vn 0.982200 -0.187600 0.000000
vn 0.303500 -0.187600 0.934200
vn -0.794600 -0.187600 0.577400
vn -0.794600 -0.187600 -0.577400
vn 0.303500 -0.187600 -0.934200
vn 0.794600 0.187600 0.577400
vn -0.303500 0.187600 0.934200
vn -0.982200 0.187600 0.000000
vn -0.303500 0.187600 -0.934200
vn 0.794600 0.187600 -0.577400
vn 0.491100 0.794700 0.356800
vn -0.187600 0.794700 0.577400
vn -0.607100 0.794700 0.000000
vn -0.187600 0.794700 -0.577400
vn 0.491100 0.794700 -0.356800
s off
f 25/32/41 26/33/41 27/34/41
f 26/33/42 25/32/42 30/35/42
f 25/32/43 27/34/43 28/36/43
f 25/32/44 28/36/44 29/37/44
f 25/32/45 29/37/45 30/35/45
f 26/38/46 30/35/46 35/39/46
f 27/40/47 26/38/47 31/41/47
f 28/42/48 27/40/48 32/43/48
f 29/37/49 28/36/49 33/44/49
f 30/35/50 29/37/50 34/45/50
f 26/38/51 35/39/51 31/41/51
f 27/40/52 31/41/52 32/43/52
f 28/36/53 32/46/53 33/44/53
f 29/37/54 33/44/54 34/45/54
f 30/35/55 34/45/55 35/39/55
f 31/41/56 35/39/56 36/47/56
f 32/43/57 31/41/57 36/47/57
f 33/44/58 32/46/58 36/47/58
f 34/45/59 33/44/59 36/47/59
f 35/39/60 34/45/60 36/47/60
v 0.044516 -0.000241 -0.155209
v -0.061726 -0.116975 -0.092685
v -0.112105 0.044489 -0.107328
v 0.019954 0.144282 -0.069572
v 0.151949 0.044489 -0.031595
v 0.101468 -0.116975 -0.045880
v -0.151949 -0.044599 0.031595
v -0.101468 0.116866 0.045880
v 0.061726 0.116866 0.092685
v 0.112105 -0.044599 0.107328
v -0.019954 -0.144392 0.069572
v -0.044516 0.000131 0.155209
vt 0.628894 0.500204
vt 0.641274 0.475735
vt 0.644957 0.507635
vt 0.615973 0.476930
vt 0.629693 0.532761
vt 0.612931 0.509033
vt 0.675913 0.467239
vt 0.659152 0.490967
vt 0.662194 0.523070
vt 0.595053 0.524265
vt 0.598736 0.492365
vt 0.583472 0.467239
vt 0.566711 0.490967
vt 0.582673 0.499796
vt 0.569753 0.523070
vn -0.336000 -0.188500 -0.922800
vn 0.218900 -0.608000 -0.763200
vn -0.123800 0.490200 -0.862800
vn 0.562200 0.490200 -0.666000
vn 0.774000 -0.188500 -0.604500
vn 0.051400 -0.982500 -0.179200
vn -0.846300 -0.303800 -0.437500
vn -0.503000 0.794400 -0.340400
vn 0.607000 0.794400 -0.022000
vn 0.949600 -0.303800 0.077600
vn -0.607000 -0.794400 0.022000
vn -0.949600 0.303800 -0.077600
vn -0.051400 0.982500 0.179200
vn 0.846300 0.303800 0.437500
vn 0.503000 -0.794400 0.340400
vn -0.562200 -0.490200 0.666000
vn -0.774000 0.188500 0.604500
vn -0.218900 0.608000 0.763200
vn 0.336000 0.188500 0.922800
vn 0.123800 -0.490200 0.862800
s off
f 37/48/61 38/49/61 39/50/61
f 38/49/62 37/48/62 42/51/62
f 37/48/63 39/50/63 40/52/63
f 37/48/64 40/52/64 41/53/64
f 37/48/65 41/53/65 42/51/65
f 38/49/66 42/51/66 47/54/66
f 39/50/67 38/49/67 43/55/67
f 40/52/68 39/50/68 44/56/68
f 41/53/69 40/52/69 45/57/69
f 42/51/70 41/53/70 46/58/70
f 38/49/71 47/54/71 43/55/71
f 39/50/72 43/55/72 44/56/72
f 40/52/73 44/56/73 45/57/73
f 41/53/74 45/57/74 46/58/74
f 42/51/75 46/58/75 47/59/75
f 43/60/76 47/59/76 48/61/76
f 44/62/77 43/60/77 48/61/77
f 45/57/78 44/62/78 48/61/78
f 46/58/79 45/57/79 48/61/79
f 47/59/80 46/58/80 48/61/80
v 0.000000 -0.248449 0.000000
v 0.179738 -0.111140 0.130586
v -0.068653 -0.111140 0.211294
v -0.222170 -0.111140 0.000000
v -0.068653 -0.111140 -0.211294
v 0.179738 -0.111140 -0.130586
v 0.068653 0.111031 0.211294
v -0.179738 0.111031 0.130586
v -0.179738 0.111031 -0.130586
v 0.068653 0.111031 -0.211294
v 0.222170 0.111031 0.000000
v 0.000000 0.248340 0.000000
vt 0.359891 0.282727
vt 0.327086 0.313203
vt 0.401136 0.312724
vt 0.345696 0.314910
vt 0.382287 0.314155
vt 0.363934 0.315483
vt 0.335735 0.341499
vt 0.308033 0.312724
vt 0.317383 0.340170
vt 0.289183 0.314155
vt 0.299144 0.340744
vt 0.270831 0.315483
vt 0.280534 0.342450
vt 0.354584 0.342930
vt 0.373637 0.342450
vt 0.313339 0.372926
vn 0.187600 -0.794700 0.577400
vn 0.607100 -0.794700 0.000000
vn -0.491100 -0.794700 0.356800
vn -0.491100 -0.794700 -0.356800
vn 0.187600 -0.794700 -0.577400
vn 0.982200 -0.187600 0.000000
vn 0.303500 -0.187600 0.934200
vn -0.794600 -0.187600 0.577400
vn -0.794600 -0.187600 -0.577400
vn 0.303500 -0.187600 -0.934200
vn 0.794600 0.187600 0.577400
vn -0.303500 0.187600 0.934200
vn -0.982200 0.187600 0.000000
vn -0.303500 0.187600 -0.934200
vn 0.794600 0.187600 -0.577400
vn 0.491100 0.794700 0.356800
vn -0.187600 0.794700 0.577400
vn -0.607100 0.794700 0.000000
vn -0.187600 0.794700 -0.577400
vn 0.491100 0.794700 -0.356800
s off
f 49/63/81 50/64/81 51/65/81
f 50/64/82 49/63/82 54/66/82
f 49/63/83 51/65/83 52/67/83
f 49/63/84 52/67/84 53/68/84
f 49/63/85 53/68/85 54/66/85
f 50/64/86 54/66/86 59/69/86
f 51/70/87 50/64/87 55/71/87
f 52/72/88 51/70/88 56/73/88
f 53/74/89 52/72/89 57/75/89
f 54/66/90 53/68/90 58/76/90
f 50/64/91 59/69/91 55/71/91
f 51/70/92 55/71/92 56/73/92
f 52/72/93 56/73/93 57/75/93
f 53/68/94 57/77/94 58/76/94
f 54/66/95 58/76/95 59/69/95
f 55/71/96 59/69/96 60/78/96
f 56/73/97 55/71/97 60/78/97
f 57/75/98 56/73/98 60/78/98
f 58/76/99 57/77/99 60/78/99
f 59/69/100 58/76/100 60/78/100
v 0.000000 -0.130055 0.000000
v 0.094068 -0.058193 0.068344
v -0.035930 -0.058193 0.110583
v -0.116275 -0.058193 0.000000
v -0.035930 -0.058193 -0.110583
v 0.094068 -0.058193 -0.068344
v 0.035930 0.058083 0.110583
v -0.094068 0.058083 0.068344
v -0.094068 0.058083 -0.068344
v 0.035930 0.058083 -0.110583
v 0.116275 0.058083 0.000000
v 0.000000 0.129945 0.000000
vt 0.269486 0.323805
vt 0.288781 0.344408
vt 0.274896 0.349079
vt 0.304396 0.340507
vt 0.261308 0.348442
vt 0.247203 0.343279
vt 0.215595 0.344408
vt 0.231210 0.340507
vt 0.224715 0.363221
vt 0.201711 0.349079
vt 0.210610 0.368384
vt 0.267803 0.371157
vt 0.252188 0.367255
vt 0.238304 0.362585
vt 0.283795 0.368384
vt 0.232893 0.387859
vn 0.187600 -0.794700 0.577400
vn 0.607100 -0.794700 0.000000
vn -0.491100 -0.794700 0.356800
vn -0.491100 -0.794700 -0.356800
vn 0.187600 -0.794700 -0.577400
vn 0.982200 -0.187600 0.000000
vn 0.303500 -0.187600 0.934200
vn -0.794600 -0.187600 0.577400
vn -0.794600 -0.187600 -0.577400
vn 0.303500 -0.187600 -0.934200
vn 0.794600 0.187600 0.577400
vn -0.303500 0.187600 0.934200
vn -0.982200 0.187600 0.000000
vn -0.303500 0.187600 -0.934200
vn 0.794600 0.187600 -0.577400
vn 0.491100 0.794700 0.356800
vn -0.187600 0.794700 0.577400
vn -0.607100 0.794700 0.000000
vn -0.187600 0.794700 -0.577400
vn 0.491100 0.794700 -0.356800
s off
f 61/79/101 62/80/101 63/81/101
f 62/80/102 61/79/102 66/82/102
f 61/79/103 63/81/103 64/83/103
f 61/79/104 64/83/104 65/84/104
f 61/79/105 65/84/105 66/82/105
f 62/85/106 66/86/106 71/87/106
f 63/88/107 62/85/107 67/89/107
f 64/83/108 63/81/108 68/90/108
f 65/84/109 64/83/109 69/91/109
f 66/86/110 65/84/110 70/92/110
f 62/85/111 71/87/111 67/89/111
f 63/81/112 67/93/112 68/90/112
f 64/83/113 68/90/113 69/91/113
f 65/84/114 69/91/114 70/92/114
f 66/86/115 70/92/115 71/87/115
f 67/89/116 71/87/116 72/94/116
f 68/90/117 67/93/117 72/94/117
f 69/91/118 68/90/118 72/94/118
f 70/92/119 69/91/119 72/94/119
f 71/87/120 70/92/120 72/94/120
v 0.000000 -1.186410 0.000000
v 0.975998 -0.530611 0.709096
v -0.276388 -0.411792 0.850649
v -1.153553 -0.531071 0.000000
v -0.372791 -0.530611 -1.147352
v 0.975998 -0.530611 -0.709096
v 0.299268 0.425885 0.921068
v -0.749189 0.426243 0.544311
v -1.010502 0.549282 -0.734164
v 0.276388 0.411682 -0.850649
v 1.194335 0.549742 0.000000
v 0.000000 1.229315 0.000000
v -0.314029 -0.780103 0.966497
v -0.219119 -1.009232 0.674391
v -0.100090 -1.149384 0.308051
v 0.271309 -1.190011 0.197115
v 0.440359 -0.810900 0.319936
v 0.609547 -0.605406 0.442856
v 0.742844 -0.617021 0.951997
v 0.274911 -0.483655 0.846073
v -0.041391 -0.617021 1.206815
v 1.134959 -0.617019 -0.412293
v 0.850648 -0.484078 0.000000
v 0.841462 -0.478847 0.305675
v 0.271309 -1.190011 -0.197115
v 0.425323 -0.783217 -0.309011
v 0.660007 -0.626254 -0.479517
v -1.006077 -0.808374 0.000000
v -0.525730 -0.783215 0.000000
v -0.262652 -0.890430 0.000000
v -0.652778 -0.595958 0.966499
v -0.918945 -0.646370 0.667650
v -1.109709 -0.617557 0.318943
v -0.241052 -0.626802 -0.741896
v -0.175904 -0.810194 -0.541386
v -0.108376 -1.188979 -0.333553
v -1.160545 -0.617017 -0.333554
v -0.712519 -0.501186 -0.517673
v -0.483971 -0.462503 -0.716565
v -0.041391 -0.617021 -1.206815
v 0.272162 -0.501187 -0.837613
v 0.742844 -0.617021 -0.951997
v 0.990445 0.239347 0.152837
v 1.226592 -0.000054 0.398538
v 1.160905 -0.298002 0.597324
v 1.149297 -0.308805 -0.591351
v 0.951058 -0.000055 -0.309013
v 0.990445 0.239347 -0.152837
v 0.155215 0.231170 0.955422
v 0.000000 -0.000047 1.045810
v -0.168064 -0.239235 1.034514
v 0.687159 -0.231280 0.681715
v 0.636444 -0.000042 0.875989
v 0.436007 0.231171 0.864188
v -0.900126 0.230979 0.463145
v -0.951058 -0.000055 0.309013
v -0.990445 -0.239448 0.152837
v -0.582204 -0.308806 1.153957
v -0.587786 -0.000055 0.809017
v -0.959602 0.308451 0.952001
v -0.744043 0.239152 -0.738149
v -0.792802 -0.000046 -1.091198
v -0.472101 -0.239236 -0.935728
v -1.335908 -0.308529 -0.206146
v -0.984680 -0.000050 -0.319937
v -1.160905 0.297911 -0.597324
v 0.608874 0.308451 -1.206820
v 0.608566 -0.000050 -0.837618
v 0.917568 -0.308806 -0.910300
v -0.155215 -0.231280 -0.955422
v 0.000000 -0.000050 -1.035353
v 0.160702 0.239349 -0.989199
v 0.831051 0.462391 0.238853
v 0.918945 0.646272 0.667650
v 0.624184 0.596373 0.924163
v 0.038226 0.596373 1.114550
v -0.284630 0.500664 0.875984
v -0.710305 0.617463 0.910296
v -1.085244 0.617461 0.394233
v -0.921067 0.500662 0.000000
v -0.841462 0.478747 -0.305675
v -0.710305 0.617463 -0.910296
v -0.354556 0.623671 -1.091191
v 0.038226 0.596373 -1.114550
v 0.652778 0.595867 -0.966499
v 0.712519 0.501086 -0.517673
v 0.869121 0.462001 -0.249795
v 0.108376 1.188897 0.333553
v 0.175904 0.810110 0.541386
v 0.314029 0.780012 0.966497
v 1.006077 0.808276 0.000000
v 0.525730 0.783106 0.000000
v 0.350721 1.188896 0.000000
v -0.210364 0.922607 0.152837
v -0.425323 0.783108 0.309011
v -0.822154 0.780011 0.597323
v -0.220001 0.921820 -0.159838
v -0.460532 0.810110 -0.334592
v -0.631096 0.626702 -0.458513
v 0.108376 1.188897 -0.333553
v 0.168199 0.810800 -0.517672
v 0.300273 0.780676 -0.924161
v 0.068084 -0.859261 0.887562
v 0.192992 -1.098673 0.593951
v 0.391756 -0.689199 0.636437
v 0.670817 -0.666254 -0.162457
v 0.865162 -0.859259 0.209524
v 0.603196 -1.061164 0.000001
v -0.660757 -0.689800 0.272157
v -0.378376 -0.822801 0.274906
v -0.576773 -0.859259 0.678039
v -0.463021 -0.689802 -0.544313
v -0.378375 -0.822802 -0.274904
v -0.860794 -0.858510 -0.354548
v 0.391754 -0.689200 -0.636437
v 0.178234 -1.062087 -0.548543
v 0.054655 -0.689801 -0.712516
v 1.289713 -0.000054 0.000000
v 1.264822 -0.339840 0.216931
v 1.264822 -0.339840 -0.216931
v 0.431536 -0.000041 1.328130
v 0.143085 -0.263514 0.984677
v 0.484237 -0.263279 0.921067
v -0.875991 -0.000042 0.636441
v -0.861803 -0.254522 0.425324
v -0.670819 -0.254522 0.688191
v -1.080289 -0.000049 -0.784872
v -0.895750 -0.339842 -0.918947
v -1.111479 -0.328243 -0.548546
v 0.412633 -0.000049 -1.269953
v 0.447216 -0.254523 -0.850648
v 0.143085 -0.263514 -0.984677
v 0.904799 0.327861 0.928227
v 1.080289 -0.000051 0.784871
v 0.861804 0.254410 0.425323
v -0.467703 0.254202 0.889617
v -0.323173 -0.000047 0.994625
v -0.178237 0.328136 1.226588
v -0.990605 0.254201 -0.169900
v -1.045810 -0.000046 0.000000
v -1.264821 0.339743 0.216931
v -0.186402 0.327862 -1.282779
v -0.412632 -0.000050 -1.269954
v -0.603202 0.327862 -1.147351
v 1.111480 0.328136 -0.548543
v 1.043403 -0.000054 -0.758070
v 0.865166 0.328137 -0.887567
v 0.466619 1.061980 0.339018
v 0.463019 0.689702 0.544314
v 0.638194 0.666144 0.262864
v -0.184536 1.099531 0.567933
v -0.378378 0.665580 0.614705
v -0.052790 0.666146 0.688185
v -0.597163 1.099530 0.000000
v -0.701547 0.665579 -0.169899
v -0.936781 0.888775 0.226868
v -0.178235 1.061980 -0.548540
v -0.054656 0.689703 -0.712514
v -0.487999 0.858422 -0.792793
v 0.505247 1.098592 -0.367083
v 0.891224 0.888774 -0.367084
v 0.624518 0.888776 -0.734168
vt 0.377882 0.000000
vt 0.650001 0.087438
vt 0.450001 0.087438
vt 0.650001 0.362676
vt 0.650001 0.284555
vt 0.694543 0.343676
vt 0.250000 0.087439
vt 0.049999 0.087438
vt 1.049999 0.087438
vt 0.849999 0.087438
vt 0.674369 0.425361
vt 0.450001 0.362676
vt 0.494544 0.343675
vt 0.474368 0.425360
vt 0.250000 0.362677
vt 0.294542 0.343676
vt 0.274367 0.425361
vt 0.049999 0.362676
vt 0.094543 0.343675
vt 0.074367 0.425360
vt 0.849999 0.362676
vt 0.894542 0.343675
vt 0.874367 0.425360
vt 0.625633 0.425360
vt 0.425633 0.425360
vt 0.225633 0.425361
vt 0.025632 0.425360
vt 0.825631 0.425361
vt 0.549999 0.637324
vt 0.594543 0.656325
vt 0.549999 0.715446
vt 0.349999 0.637324
vt 0.394542 0.656325
vt 0.349999 0.715446
vt 0.150001 0.637324
vt 0.194543 0.656324
vt 0.150001 0.715446
vt 0.950001 0.637324
vt 0.994544 0.656325
vt 0.950001 0.715446
vt 0.750000 0.637323
vt 0.794542 0.656324
vt 0.750000 0.715444
vt 0.450001 0.284554
vt 0.450001 0.188183
vt 0.512185 0.255633
vt 0.550001 0.158365
vt 0.550001 0.335332
vt 0.587817 0.255634
vt 0.605458 0.343675
vt 0.650001 0.188183
vt 0.805457 0.343676
vt 0.849999 0.284554
vt 0.750000 0.335333
vt 0.787816 0.255634
vt 0.712184 0.255634
vt 0.849999 0.188183
vt 0.750000 0.158365
vt 0.250000 0.284556
vt 0.250000 0.188184
vt 0.312184 0.255634
vt 0.350000 0.158365
vt 0.350000 0.335333
vt 0.387816 0.255634
vt 0.405458 0.343675
vt 0.049999 0.284554
vt 0.049999 0.188182
vt 0.112184 0.255633
vt 0.150000 0.158365
vt 0.150000 0.335333
vt 0.187817 0.255634
vt 0.205458 0.343676
vt 0.912183 0.255633
vt 0.949999 0.158365
vt 0.949999 0.335332
vt 0.987815 0.255634
vt 1.005456 0.343675
vt 1.049999 0.188182
vt 1.049999 0.284554
vt 0.005456 0.343675
vt 0.725633 0.574639
vt 0.774367 0.574639
vt 0.700001 0.500000
vt 0.750000 0.500000
vt 0.722966 0.417608
vt 0.799999 0.500000
vt 0.777034 0.417608
vt 0.525632 0.574640
vt 0.574367 0.574640
vt 0.500000 0.500000
vt 0.550000 0.500000
vt 0.522966 0.417608
vt 0.600000 0.500000
vt 0.577035 0.417608
vt 0.325631 0.574639
vt 0.374367 0.574640
vt 0.299999 0.500000
vt 0.350000 0.500000
vt 0.322966 0.417608
vt 0.400000 0.500000
vt 0.377034 0.417608
vt 0.125633 0.574640
vt 0.174369 0.574639
vt 0.100000 0.500000
vt 0.150000 0.500000
vt 0.122966 0.417608
vt 0.200001 0.500000
vt 0.177034 0.417608
vt 0.925633 0.574640
vt 0.974368 0.574640
vt 0.900000 0.500000
vt 0.950000 0.500000
vt 0.922965 0.417608
vt 1.000000 0.500000
vt 0.977034 0.417608
vt 1.025632 0.425360
vt 0.622966 0.582392
vt 0.650000 0.499999
vt 0.650000 0.664668
vt 0.677035 0.582391
vt 0.705458 0.656324
vt 0.422965 0.582392
vt 0.450000 0.500000
vt 0.449999 0.664668
vt 0.477034 0.582392
vt 0.505456 0.656325
vt 0.222966 0.582392
vt 0.250000 0.500000
vt 0.250000 0.664667
vt 0.277034 0.582392
vt 0.305457 0.656324
vt 1.022966 0.582392
vt 0.050000 0.500000
vt 0.000000 0.500000
vt 1.050001 0.664668
vt 0.022966 0.582392
vt 0.077035 0.582392
vt 0.050001 0.664668
vt 0.105458 0.656325
vt 0.822965 0.582392
vt 0.849999 0.500000
vt 0.850000 0.664667
vt 0.877034 0.582392
vt 0.905457 0.656325
vt 0.549999 0.912562
vt 0.750000 0.912561
vt 0.877882 1.000000
vt 0.549999 0.811818
vt 0.650000 0.841635
vt 0.612184 0.744367
vt 0.750000 0.811816
vt 0.687816 0.744366
vt 1.349999 0.912562
vt 0.349999 0.811817
vt 0.449999 0.841636
vt 0.349999 0.912562
vt 0.412183 0.744367
vt 0.487815 0.744367
vt 1.150001 0.912562
vt 0.150001 0.811817
vt 0.250000 0.841635
vt 0.150001 0.912562
vt 0.212184 0.744366
vt 0.287816 0.744366
vt 0.950001 0.912562
vt 0.950001 0.811817
vt 1.050001 0.841636
vt 1.012185 0.744367
vt 0.050001 0.841636
vt 0.012185 0.744367
vt 0.087817 0.744367
vt 0.850000 0.841635
vt 0.812184 0.744366
vt 0.887816 0.744367
vn -0.080800 -0.992400 0.093000
vn 0.355100 -0.904900 -0.234500
vn -0.738200 -0.655100 -0.161100
vn -0.725900 -0.644200 0.240800
vn -0.006200 -0.999900 0.009700
vn 0.666400 -0.678400 -0.309300
vn -0.844300 -0.039400 0.534400
vn -0.895800 0.382200 0.226800
vn -0.960800 -0.166500 -0.221600
vn 0.736200 -0.338000 -0.586400
vn 0.206900 0.285200 0.935900
vn 0.291400 -0.777200 0.557700
vn -0.724100 0.044300 0.688300
vn -0.065200 0.571800 -0.817800
vn 0.770500 -0.304800 -0.559800
vn 0.058500 -0.129400 0.989900
vn -0.948300 -0.228600 0.220200
vn -0.394300 0.869100 0.298600
vn 0.660300 -0.187600 -0.727200
vn 0.502700 0.366100 -0.783100
vn -0.722900 0.273500 0.634500
vn -0.038300 -0.792200 0.609000
vn -0.142700 -0.939000 0.312900
vn -0.043600 -0.803000 0.594400
vn 0.763300 -0.361100 0.535700
vn -0.049500 -0.784300 0.618400
vn 0.683700 -0.395500 0.613300
vn 0.678100 -0.299200 0.671300
vn -0.341800 -0.759200 0.553900
vn -0.042100 -0.975400 0.216200
vn 0.842600 -0.464200 0.273100
vn 0.845700 -0.441600 0.299700
vn 0.599200 -0.712100 0.365800
vn 0.282200 -0.954600 -0.095700
vn 0.261800 -0.960900 -0.090500
vn 0.062300 -0.948800 -0.309600
vn 0.352300 -0.792200 0.498400
vn 0.998100 0.054800 0.029100
vn 0.037200 -0.991300 -0.126300
vn 0.486800 -0.864400 -0.125700
vn 0.783900 -0.279300 -0.554500
vn 0.736200 -0.361400 -0.572200
vn 0.601800 -0.389800 -0.697000
vn 0.578200 -0.412500 -0.703900
vn 0.568200 -0.168200 0.805500
vn 0.139400 -0.590300 0.795000
vn 0.078900 -0.765300 0.638800
vn 0.578400 -0.473200 0.664500
vn 0.361900 -0.932200 0.000000
vn -0.013300 -0.999900 0.000000
vn -0.882900 -0.469500 -0.006000
vn 0.049100 -0.937000 0.346000
vn -0.376500 -0.923900 0.068800
vn -0.088500 -0.867200 0.490100
vn -0.158400 -0.987400 0.005000
vn -0.424800 -0.899900 0.098100
vn -0.407000 -0.869800 -0.278900
vn -0.507500 -0.827400 -0.240400
vn -0.459600 -0.712900 0.529600
vn -0.744400 -0.649900 -0.153500
vn -0.761200 -0.648500 0.000800
vn -0.375200 -0.888300 -0.265000
vn -0.327000 -0.792200 0.515200
vn -0.395600 -0.727800 0.560100
vn 0.153400 0.282200 0.947000
vn -0.561200 -0.827600 -0.014000
vn -0.308400 -0.749700 -0.585500
vn -0.707900 -0.432600 -0.558300
vn -0.453700 -0.564400 -0.689600
vn -0.490900 -0.554500 -0.672000
vn -0.363900 -0.875500 -0.317900
vn 0.142500 -0.869000 -0.473800
vn -0.311800 -0.284500 -0.906600
vn -0.298300 -0.291200 -0.909000
vn -0.777900 -0.602300 0.179300
vn -0.376500 -0.923900 -0.068800
vn 0.045500 -0.985000 0.166200
vn 0.051600 -0.985700 0.160500
vn -0.626700 -0.765000 -0.148600
vn -0.874400 -0.465000 0.138200
vn 0.313700 -0.948800 0.036500
vn 0.376700 -0.879400 -0.291100
vn 0.829900 -0.416400 -0.371400
vn 0.217800 -0.975800 0.019100
vn -0.322300 -0.779600 -0.537000
vn 0.818800 -0.524100 -0.234400
vn 0.207900 -0.335600 -0.918800
vn 0.164600 -0.669900 -0.723900
vn 0.560600 -0.796600 -0.226200
vn 0.130200 -0.920100 -0.369400
vn -0.369200 -0.496800 -0.785400
vn -0.352600 -0.472700 -0.807600
vn -0.094600 -0.749700 -0.655000
vn -0.197200 -0.974700 -0.105200
vn -0.272900 -0.952200 -0.137200
vn 0.835800 -0.549000 0.000000
vn 0.653000 0.750300 0.103400
vn 0.963100 -0.034300 0.266900
vn 0.624700 0.780900 0.000000
vn 0.631900 0.347800 -0.692600
vn 0.987300 0.027500 0.156400
vn 0.997300 -0.073100 0.000000
vn 0.621000 0.389000 -0.680500
vn 0.746500 0.641300 -0.177200
vn 0.342600 -0.919100 0.194700
vn 0.316700 -0.948200 0.025700
vn 0.328900 -0.944400 0.000000
vn 0.519200 -0.641400 0.564800
vn 0.926900 -0.219800 -0.304200
vn 0.785200 -0.338000 -0.518900
vn 0.308400 -0.060700 0.949300
vn -0.449600 0.570500 0.687300
vn 0.145100 -0.148200 0.978300
vn 0.143800 0.885200 0.442500
vn 0.707500 0.629700 0.320700
vn -0.491300 -0.441100 0.751000
vn 0.103000 -0.829100 0.549500
vn 0.828700 -0.414900 0.375600
vn 0.741600 -0.328700 0.584800
vn 0.175300 0.456600 0.872200
vn 0.746400 0.028300 0.664900
vn 0.163700 -0.453600 0.876100
vn -0.245500 -0.095100 0.964700
vn 0.622700 0.507300 0.595700
vn 0.500100 0.544200 0.673600
vn -0.736100 0.649000 -0.192400
vn -0.972600 0.065700 0.223000
vn -0.899900 -0.124600 0.417900
vn -0.980900 -0.171600 -0.092100
vn -0.360200 -0.713000 0.601600
vn -0.947900 -0.233100 0.217300
vn -0.714000 -0.470200 0.518800
vn -0.499600 -0.233100 0.834300
vn -0.954900 0.213500 0.206600
vn -0.806100 0.432000 0.404500
vn -0.788700 0.402400 0.464700
vn -0.728900 0.433800 0.529600
vn -0.711500 0.421000 0.562600
vn -0.974000 0.110000 0.198100
vn 0.481300 -0.559000 0.675100
vn -0.342500 -0.282800 -0.895900
vn -0.476400 0.757000 -0.447100
vn 0.076600 -0.469200 -0.879800
vn -0.220500 0.476200 -0.851300
vn -0.912000 -0.364800 0.187500
vn -0.723500 -0.125000 -0.679000
vn -0.836700 -0.265400 -0.479000
vn -0.952900 0.231700 0.195900
vn -0.663800 0.582900 -0.468600
vn 0.137800 -0.697600 -0.703200
vn -0.121400 -0.938900 -0.322100
vn -0.377800 -0.905800 -0.191700
vn -0.183500 -0.566800 -0.803200
vn -0.816500 -0.249000 -0.520900
vn -0.829800 -0.535900 0.155500
vn -0.389300 0.721600 -0.572500
vn 0.816300 -0.443600 -0.370000
vn -0.111100 0.121000 -0.986400
vn -0.446000 0.442900 -0.777800
vn -0.442200 0.446800 -0.777700
vn 0.795900 -0.486200 -0.360700
vn 0.252100 -0.817900 -0.517200
vn -0.453100 -0.399400 -0.797000
vn -0.121300 -0.250600 -0.960500
vn -0.101900 0.189900 -0.976500
vn -0.211900 0.099000 -0.972300
vn 0.389700 -0.322200 -0.862700
vn 0.760400 0.011200 -0.649300
vn -0.024000 0.540900 -0.840800
vn -0.008600 0.544200 -0.838900
vn 0.102100 -0.212200 0.971900
vn -0.123700 -0.056600 0.990700
vn 0.158600 -0.614500 0.772800
vn -0.113600 -0.103700 0.988100
vn 0.501500 0.534500 0.680300
vn 0.191500 -0.305300 0.932800
vn 0.843800 0.516000 -0.147500
vn 0.992400 -0.101400 -0.070000
vn 0.981400 -0.025500 -0.190300
vn 0.079400 -0.515600 0.853200
vn 0.934800 0.030100 0.354000
vn 0.569300 0.793400 0.215600
vn 0.568500 0.791400 0.224700
vn 0.818800 0.445600 0.361900
vn 0.538200 0.060400 0.840700
vn -0.772700 0.592600 -0.227600
vn 0.081900 -0.336100 0.938200
vn -0.425900 0.670700 0.607200
vn 0.129000 0.029700 0.991200
vn 0.079300 -0.003800 0.996800
vn -0.574200 0.011700 0.818600
vn -0.734800 -0.144000 0.662800
vn -0.692900 0.541100 0.476500
vn -0.562600 0.661300 0.496100
vn 0.218300 0.296600 0.929700
vn -0.156100 0.063100 0.985700
vn -0.132400 -0.532400 0.836000
vn 0.609600 -0.101900 0.786100
vn 0.596500 -0.152300 0.788000
vn 0.488700 -0.212200 0.846300
vn -0.691600 0.617700 0.374500
vn -0.913300 -0.222600 0.341100
vn -0.677700 0.723800 -0.129500
vn -0.677600 0.653700 0.336800
vn -0.869400 0.422200 -0.256700
vn -0.978500 0.087500 -0.187000
vn -0.820700 -0.183500 -0.541200
vn -0.613700 0.558100 -0.558500
vn -0.594600 0.669100 -0.445800
vn -0.721600 0.246200 0.647000
vn -0.955500 -0.033900 0.293000
vn -0.745300 -0.626300 0.228500
vn -0.593600 -0.352000 0.723700
vn -0.581900 -0.135700 0.801900
vn -0.428200 -0.044200 0.902600
vn 0.751100 0.026100 -0.659600
vn 0.588400 -0.246500 -0.770000
vn 0.417800 -0.534400 -0.734800
vn 0.637300 -0.051400 -0.768900
vn -0.012700 0.538500 -0.842500
vn 0.462800 -0.351100 -0.814000
vn -0.304300 0.173300 -0.936700
vn -0.282800 0.403000 -0.870400
vn -0.402900 0.485900 -0.775600
vn -0.015900 -0.811800 -0.583800
vn -0.278000 -0.757100 -0.591200
vn -0.423800 0.090700 -0.901200
vn -0.863100 0.465400 -0.196200
vn -0.938400 -0.070200 -0.338200
vn -0.415100 -0.345900 -0.841400
vn 0.611100 -0.011700 -0.791500
vn 0.930100 -0.295400 0.218200
vn 0.895000 0.406300 0.184000
vn 0.747400 0.561700 0.354700
vn 0.389800 0.916100 -0.094200
vn 0.929700 -0.314900 0.191200
vn 0.792200 0.203100 -0.575500
vn 0.366000 0.891800 -0.265900
vn 0.779000 0.626400 0.028600
vn 0.808400 -0.039900 -0.587300
vn 0.166400 0.380700 -0.909600
vn 0.172800 -0.278900 -0.944600
vn 0.650800 -0.582900 -0.486500
vn 0.707400 0.386700 -0.591700
vn -0.488900 0.602300 -0.631000
vn 0.114100 0.990000 0.082900
vn 0.163000 0.496800 0.852400
vn 0.386600 0.920300 -0.060400
vn 0.321500 0.917600 0.233600
vn 0.905900 0.390700 -0.163400
vn 0.189500 0.472700 0.860600
vn 0.828600 0.264200 0.493600
vn 0.886500 0.421200 -0.191900
vn -0.047400 0.904900 0.422900
vn 0.509000 0.860700 -0.004500
vn 0.031700 0.973700 0.225800
vn 0.100400 0.994700 -0.020800
vn 0.637700 0.651900 -0.410300
vn 0.457900 0.336500 0.822800
vn 0.460100 0.335000 0.822300
vn -0.706600 0.637600 0.306900
vn -0.652200 0.711100 -0.262500
vn 0.224900 0.920600 0.319400
vn -0.497700 0.808600 -0.313700
vn 0.448600 0.490100 0.747400
vn -0.861100 0.416100 0.292200
vn -0.216100 0.199500 0.955800
vn 0.342500 0.346400 0.873300
vn -0.426200 0.882000 0.200900
vn 0.215800 0.895900 0.388200
vn 0.270300 0.855000 0.442700
vn -0.128200 0.817200 0.561800
vn -0.431600 0.871000 0.234700
vn -0.447300 0.862500 0.236600
vn 0.534500 -0.129400 0.835200
vn -0.818900 0.573500 0.023800
vn 0.097700 0.772100 -0.628000
vn -0.618300 0.744700 -0.251200
vn 0.420900 0.907000 -0.015300
vn 0.048100 0.711100 0.701400
vn -0.668800 0.405000 -0.623400
vn -0.668200 0.405100 -0.624000
vn 0.032700 0.707300 0.706100
vn 0.161000 0.959300 0.231900
vn -0.674100 0.692200 -0.257800
vn -0.691800 0.684700 -0.229300
vn -0.719900 0.328300 -0.611500
vn -0.877200 0.215300 -0.429100
vn -0.683300 0.615900 0.392200
vn -0.502400 -0.228600 0.833800
vn -0.692800 0.653800 -0.304300
vn 0.398600 0.451700 -0.798100
vn -0.343500 0.921700 -0.179900
vn -0.535500 0.811200 0.235000
vn -0.543500 0.806600 0.232400
vn 0.415900 0.478700 -0.773200
vn 0.334500 0.470700 -0.816500
vn -0.609200 0.784000 0.119200
vn -0.764500 0.634700 0.112800
vn -0.397900 0.869100 -0.293700
vn 0.055100 0.975300 -0.213700
vn 0.395100 0.799600 -0.452300
vn -0.352500 0.652400 -0.670900
vn -0.758100 0.641000 0.119800
vn -0.211900 0.977100 0.017200
vn 0.114100 0.990000 -0.082900
vn 0.882100 0.380400 0.277700
vn -0.050900 0.972100 0.229100
vn 0.207200 0.966600 -0.150600
vn 0.024500 0.440800 -0.897300
vn 0.386000 0.710100 0.588800
vn 0.451200 0.830000 -0.327800
vn -0.387100 0.740700 -0.549100
vn -0.234100 0.961000 -0.147300
vn 0.936400 -0.137300 -0.323100
vn 0.836400 -0.185100 -0.516000
vn 0.800700 -0.143100 -0.581700
vn 0.980900 0.169800 -0.094700
vn 0.233800 0.618000 -0.750600
vn -0.208800 -0.178100 -0.961600
s off
f 73/95/121 88/96/121 87/97/121
f 74/98/122 90/99/122 96/100/122
f 73/95/123 87/97/123 102/101/123
f 73/95/124 102/101/124 108/102/124
f 73/95/125 108/103/125 97/104/125
f 74/98/126 96/100/126 117/105/126
f 75/106/127 93/107/127 123/108/127
f 76/109/128 105/110/128 129/111/128
f 77/112/129 111/113/129 135/114/129
f 78/115/130 114/116/130 141/117/130
f 74/98/131 117/105/131 124/118/131
f 75/106/132 123/108/132 130/119/132
f 76/109/133 129/111/133 136/120/133
f 77/112/134 135/114/134 142/121/134
f 78/115/135 141/117/135 118/122/135
f 79/123/136 147/124/136 162/125/136
f 80/126/137 150/127/137 168/128/137
f 81/129/138 153/130/138 171/131/138
f 82/132/139 156/133/139 174/134/139
f 83/135/140 159/136/140 163/137/140
f 85/138/141 93/107/141 75/106/141
f 86/139/142 175/140/142 85/138/142
f 87/97/143 176/141/143 86/139/143
f 85/138/144 175/140/144 93/107/144
f 175/140/145 92/142/145 93/107/145
f 86/139/146 176/141/146 175/140/146
f 176/141/147 177/143/147 175/140/147
f 175/140/148 177/143/148 92/142/148
f 177/143/149 91/144/149 92/142/149
f 87/97/150 88/96/150 176/141/150
f 88/96/151 89/145/151 176/141/151
f 176/141/152 89/145/152 177/143/152
f 89/145/153 90/99/153 177/143/153
f 177/143/154 90/99/154 91/144/154
f 90/99/155 74/98/155 91/144/155
f 94/146/156 99/147/156 78/115/156
f 95/148/157 178/149/157 94/146/157
f 96/100/158 179/150/158 95/148/158
f 94/146/159 178/149/159 99/147/159
f 178/149/160 98/151/160 99/147/160
f 95/148/161 179/150/161 178/149/161
f 179/150/162 180/152/162 178/149/162
f 178/149/163 180/152/163 98/151/163
f 180/152/164 97/104/164 98/151/164
f 96/100/165 90/99/165 179/150/165
f 90/99/166 89/145/166 179/150/166
f 179/150/167 89/145/167 180/152/167
f 89/145/168 88/96/168 180/152/168
f 180/152/169 88/96/169 97/104/169
f 88/96/170 73/95/170 97/104/170
f 100/153/171 105/110/171 76/109/171
f 101/154/172 181/155/172 100/153/172
f 102/101/173 182/156/173 101/154/173
f 100/153/174 181/155/174 105/110/174
f 181/155/175 104/157/175 105/110/175
f 101/154/176 182/156/176 181/155/176
f 182/156/177 183/158/177 181/155/177
f 181/155/178 183/158/178 104/157/178
f 183/158/179 103/159/179 104/157/179
f 102/101/180 87/97/180 182/156/180
f 87/97/181 86/139/181 182/156/181
f 182/156/182 86/139/182 183/158/182
f 86/139/183 85/138/183 183/158/183
f 183/158/184 85/138/184 103/159/184
f 85/138/185 75/106/185 103/159/185
f 106/160/186 111/113/186 77/112/186
f 107/161/187 184/162/187 106/160/187
f 108/102/188 185/163/188 107/161/188
f 106/160/189 184/162/189 111/113/189
f 184/162/190 110/164/190 111/113/190
f 107/161/191 185/163/191 184/162/191
f 185/163/192 186/165/192 184/162/192
f 184/162/193 186/165/193 110/164/193
f 186/165/194 109/166/194 110/164/194
f 108/102/195 102/101/195 185/163/195
f 102/101/196 101/154/196 185/163/196
f 185/163/197 101/154/197 186/165/197
f 101/154/198 100/153/198 186/165/198
f 186/165/199 100/153/199 109/166/199
f 100/153/200 76/109/200 109/166/200
f 99/147/201 114/116/201 78/115/201
f 98/151/202 187/167/202 99/147/202
f 97/104/203 188/168/203 98/151/203
f 99/147/204 187/167/204 114/116/204
f 187/167/205 113/169/205 114/116/205
f 98/151/206 188/168/206 187/167/206
f 188/168/207 189/170/207 187/167/207
f 187/167/208 189/170/208 113/169/208
f 189/170/209 112/171/209 113/169/209
f 97/104/210 108/103/210 188/168/210
f 108/103/211 107/172/211 188/168/211
f 188/168/212 107/172/212 189/170/212
f 107/172/213 106/173/213 189/170/213
f 189/170/214 106/173/214 112/171/214
f 106/160/215 77/112/215 112/174/215
f 115/175/216 120/176/216 83/135/216
f 116/177/217 190/178/217 115/175/217
f 117/105/218 191/179/218 116/177/218
f 115/175/219 190/178/219 120/176/219
f 190/178/220 119/180/220 120/176/220
f 116/177/221 191/179/221 190/178/221
f 191/179/222 192/181/222 190/178/222
f 190/178/223 192/181/223 119/180/223
f 192/181/224 118/122/224 119/180/224
f 117/105/225 96/100/225 191/179/225
f 96/100/226 95/148/226 191/179/226
f 191/179/227 95/148/227 192/181/227
f 95/148/228 94/146/228 192/181/228
f 192/181/229 94/146/229 118/122/229
f 94/146/230 78/115/230 118/122/230
f 121/182/231 126/183/231 79/123/231
f 122/184/232 193/185/232 121/182/232
f 123/108/233 194/186/233 122/184/233
f 121/182/234 193/185/234 126/183/234
f 193/185/235 125/187/235 126/183/235
f 122/184/236 194/186/236 193/185/236
f 194/186/237 195/188/237 193/185/237
f 193/185/238 195/188/238 125/187/238
f 195/188/239 124/118/239 125/187/239
f 123/108/240 93/107/240 194/186/240
f 93/107/241 92/142/241 194/186/241
f 194/186/242 92/142/242 195/188/242
f 92/142/243 91/144/243 195/188/243
f 195/188/244 91/144/244 124/118/244
f 91/144/245 74/98/245 124/118/245
f 127/189/246 132/190/246 80/126/246
f 128/191/247 196/192/247 127/189/247
f 129/111/248 197/193/248 128/191/248
f 127/189/249 196/192/249 132/190/249
f 196/192/250 131/194/250 132/190/250
f 128/191/251 197/193/251 196/192/251
f 197/193/252 198/195/252 196/192/252
f 196/192/253 198/195/253 131/194/253
f 198/195/254 130/119/254 131/194/254
f 129/111/255 105/110/255 197/193/255
f 105/110/256 104/157/256 197/193/256
f 197/193/257 104/157/257 198/195/257
f 104/157/258 103/159/258 198/195/258
f 198/195/259 103/159/259 130/119/259
f 103/159/260 75/106/260 130/119/260
f 133/196/261 138/197/261 81/129/261
f 134/198/262 199/199/262 133/196/262
f 135/114/263 200/200/263 134/198/263
f 133/196/264 199/199/264 138/197/264
f 199/199/265 137/201/265 138/197/265
f 134/198/266 200/200/266 199/199/266
f 200/200/267 201/202/267 199/199/267
f 199/199/268 201/202/268 137/201/268
f 201/202/269 136/120/269 137/201/269
f 135/114/270 111/113/270 200/200/270
f 111/113/271 110/164/271 200/200/271
f 200/200/272 110/164/272 201/202/272
f 110/164/273 109/166/273 201/202/273
f 201/202/274 109/166/274 136/120/274
f 109/166/275 76/109/275 136/120/275
f 139/203/276 144/204/276 82/132/276
f 140/205/277 202/206/277 139/203/277
f 141/117/278 203/207/278 140/205/278
f 139/203/279 202/206/279 144/204/279
f 202/206/280 143/208/280 144/204/280
f 140/205/281 203/207/281 202/206/281
f 203/207/282 204/209/282 202/206/282
f 202/206/283 204/209/283 143/208/283
f 204/209/284 142/210/284 143/208/284
f 141/117/285 114/116/285 203/207/285
f 114/116/286 113/169/286 203/207/286
f 203/207/287 113/169/287 204/209/287
f 113/169/288 112/171/288 204/209/288
f 204/209/289 112/171/289 142/210/289
f 112/174/290 77/112/290 142/121/290
f 126/183/291 147/124/291 79/123/291
f 125/187/292 205/211/292 126/183/292
f 124/118/293 206/212/293 125/187/293
f 126/183/294 205/211/294 147/124/294
f 205/211/295 146/213/295 147/124/295
f 125/187/296 206/212/296 205/211/296
f 206/212/297 207/214/297 205/211/297
f 205/211/298 207/214/298 146/213/298
f 207/214/299 145/215/299 146/213/299
f 124/118/300 117/105/300 206/212/300
f 117/105/301 116/177/301 206/212/301
f 206/212/302 116/177/302 207/214/302
f 116/177/303 115/175/303 207/214/303
f 207/214/304 115/175/304 145/215/304
f 115/175/305 83/135/305 145/215/305
f 132/190/306 150/127/306 80/126/306
f 131/194/307 208/216/307 132/190/307
f 130/119/308 209/217/308 131/194/308
f 132/190/309 208/216/309 150/127/309
f 208/216/310 149/218/310 150/127/310
f 131/194/311 209/217/311 208/216/311
f 209/217/312 210/219/312 208/216/312
f 208/216/313 210/219/313 149/218/313
f 210/219/314 148/220/314 149/218/314
f 130/119/315 123/108/315 209/217/315
f 123/108/316 122/184/316 209/217/316
f 209/217/317 122/184/317 210/219/317
f 122/184/318 121/182/318 210/219/318
f 210/219/319 121/182/319 148/220/319
f 121/182/320 79/123/320 148/220/320
f 138/197/321 153/130/321 81/129/321
f 137/201/322 211/221/322 138/197/322
f 136/120/323 212/222/323 137/201/323
f 138/197/324 211/221/324 153/130/324
f 211/221/325 152/223/325 153/130/325
f 137/201/326 212/222/326 211/221/326
f 212/222/327 213/224/327 211/221/327
f 211/221/328 213/224/328 152/223/328
f 213/224/329 151/225/329 152/223/329
f 136/120/330 129/111/330 212/222/330
f 129/111/331 128/191/331 212/222/331
f 212/222/332 128/191/332 213/224/332
f 128/191/333 127/189/333 213/224/333
f 213/224/334 127/189/334 151/225/334
f 127/189/335 80/126/335 151/225/335
f 144/204/336 156/133/336 82/132/336
f 143/208/337 214/226/337 144/204/337
f 142/121/338 215/227/338 143/228/338
f 144/204/339 214/226/339 156/133/339
f 214/226/340 155/229/340 156/133/340
f 143/228/341 215/227/341 214/230/341
f 215/227/342 216/231/342 214/230/342
f 214/230/343 216/231/343 155/232/343
f 216/231/344 154/233/344 155/232/344
f 142/121/345 135/114/345 215/227/345
f 135/114/346 134/198/346 215/227/346
f 215/227/347 134/198/347 216/231/347
f 134/198/348 133/196/348 216/231/348
f 216/231/349 133/196/349 154/233/349
f 133/196/350 81/129/350 154/233/350
f 120/176/351 159/136/351 83/135/351
f 119/180/352 217/234/352 120/176/352
f 118/122/353 218/235/353 119/180/353
f 120/176/354 217/234/354 159/136/354
f 217/234/355 158/236/355 159/136/355
f 119/180/356 218/235/356 217/234/356
f 218/235/357 219/237/357 217/234/357
f 217/234/358 219/237/358 158/236/358
f 219/237/359 157/238/359 158/236/359
f 118/122/360 141/117/360 218/235/360
f 141/117/361 140/205/361 218/235/361
f 218/235/362 140/205/362 219/237/362
f 140/205/363 139/203/363 219/237/363
f 219/237/364 139/203/364 157/238/364
f 139/203/365 82/132/365 157/238/365
f 160/239/366 165/240/366 84/241/366
f 161/242/367 220/243/367 160/239/367
f 162/125/368 221/244/368 161/242/368
f 160/239/369 220/243/369 165/240/369
f 220/243/370 164/245/370 165/240/370
f 161/242/371 221/244/371 220/243/371
f 221/244/372 222/246/372 220/243/372
f 220/243/373 222/246/373 164/245/373
f 222/246/374 163/137/374 164/245/374
f 162/125/375 147/124/375 221/244/375
f 147/124/376 146/213/376 221/244/376
f 221/244/377 146/213/377 222/246/377
f 146/213/378 145/215/378 222/246/378
f 222/246/379 145/215/379 163/137/379
f 145/215/380 83/135/380 163/137/380
f 166/247/381 160/239/381 84/241/381
f 167/248/382 223/249/382 166/250/382
f 168/128/383 224/251/383 167/248/383
f 166/250/384 223/249/384 160/239/384
f 223/249/385 161/242/385 160/239/385
f 167/248/386 224/251/386 223/249/386
f 224/251/387 225/252/387 223/249/387
f 223/249/388 225/252/388 161/242/388
f 225/252/389 162/125/389 161/242/389
f 168/128/390 150/127/390 224/251/390
f 150/127/391 149/218/391 224/251/391
f 224/251/392 149/218/392 225/252/392
f 149/218/393 148/220/393 225/252/393
f 225/252/394 148/220/394 162/125/394
f 148/220/395 79/123/395 162/125/395
f 169/253/396 166/247/396 84/241/396
f 170/254/397 226/255/397 169/256/397
f 171/131/398 227/257/398 170/254/398
f 169/256/399 226/255/399 166/250/399
f 226/255/400 167/248/400 166/250/400
f 170/254/401 227/257/401 226/255/401
f 227/257/402 228/258/402 226/255/402
f 226/255/403 228/258/403 167/248/403
f 228/258/404 168/128/404 167/248/404
f 171/131/405 153/130/405 227/257/405
f 153/130/406 152/223/406 227/257/406
f 227/257/407 152/223/407 228/258/407
f 152/223/408 151/225/408 228/258/408
f 228/258/409 151/225/409 168/128/409
f 151/225/410 80/126/410 168/128/410
f 172/259/411 169/253/411 84/241/411
f 173/260/412 229/261/412 172/259/412
f 174/134/413 230/262/413 173/260/413
f 172/259/414 229/261/414 169/253/414
f 229/263/415 170/254/415 169/256/415
f 173/260/416 230/262/416 229/261/416
f 230/264/417 231/265/417 229/263/417
f 229/263/418 231/265/418 170/254/418
f 231/265/419 171/131/419 170/254/419
f 174/134/420 156/133/420 230/262/420
f 156/133/421 155/229/421 230/262/421
f 230/264/422 155/232/422 231/265/422
f 155/232/423 154/233/423 231/265/423
f 231/265/424 154/233/424 171/131/424
f 154/233/425 81/129/425 171/131/425
f 165/240/426 172/259/426 84/241/426
f 164/245/427 232/266/427 165/240/427
f 163/137/428 233/267/428 164/245/428
f 165/240/429 232/266/429 172/259/429
f 232/266/430 173/260/430 172/259/430
f 164/245/431 233/267/431 232/266/431
f 233/267/432 234/268/432 232/266/432
f 232/266/433 234/268/433 173/260/433
f 234/268/434 174/134/434 173/260/434
f 163/137/435 159/136/435 233/267/435
f 159/136/436 158/236/436 233/267/436
f 233/267/437 158/236/437 234/268/437
f 158/236/438 157/238/438 234/268/438
f 234/268/439 157/238/439 174/134/439
f 157/238/440 82/132/440 174/134/440
