v 0.139450 1.281077 -0.286963
v 0.001996 1.094443 -0.086358
v 0.009176 1.296068 -0.243533
v -0.033019 1.296198 -0.175704
v 0.120062 1.308818 -0.226704
v -0.071190 1.051833 0.032671
v 0.099854 1.316921 -0.166517
v 0.085973 1.328534 -0.124413
v -0.118806 1.288373 -0.169473
v 0.001074 1.055706 0.059175
v 0.072755 1.324987 -0.086160
v -0.114925 1.283401 -0.131656
v 0.059185 1.310783 -0.048216
v -0.057676 1.277862 -0.073521
v 0.001996 1.106818 -0.034400
v 0.045489 1.306261 -0.008684
v -0.162765 1.266262 -0.054840
v 0.044986 1.227354 -0.037544
v 0.033625 1.289742 0.023974
v -0.154400 1.259409 -0.030616
v 0.027302 1.177904 -0.018637
v 0.024145 1.277053 0.050133
v -0.082649 1.237722 0.022370
v 0.008891 1.167937 0.004776
v 0.011499 1.276756 0.087122
v -0.119327 1.225695 0.040911
v 0.004486 1.147035 -0.000640
v -0.001264 1.247734 0.120840
v -0.102696 1.194114 0.078487
v 0.002553 1.115688 0.056138
v -0.019105 1.229898 0.170832
v -0.090697 1.146277 0.091011
v -0.044481 1.182716 0.239190
v -0.082676 1.132280 0.189247
v 0.001030 0.876610 -0.027249
v -0.060997 1.133949 0.281411
v -0.087223 1.098094 0.244991
v -0.065419 1.045473 0.283223
v -0.098068 1.204634 0.090999
v -0.086338 1.195674 0.121913
v 0.002778 0.852787 -0.137699
v -0.096882 0.880412 -0.169916
v 0.003812 0.838210 -0.141572
v -0.196257 1.180387 0.102421
v -0.189351 1.196137 0.080468
v -0.190243 1.217403 0.092459
v -0.196118 1.204211 0.117172
v -0.224000 1.165061 0.104393
v -0.212372 1.191409 0.058315
v -0.213380 1.235595 0.082435
v -0.222928 1.205897 0.130631
v -0.245170 1.177447 0.096385
v -0.237399 1.195428 0.065103
v -0.238046 1.225351 0.081563
v -0.245166 1.206249 0.113645
v 0.001996 1.035650 -0.188551
v 0.000670 0.974344 0.052818
v 0.001996 0.915293 -0.236311
v -0.069548 1.209445 0.007548
v -0.069906 1.170608 0.025173
v -0.060669 1.148065 0.043987
v -0.091826 1.118317 0.122709
v -0.001698 1.069488 0.090048
v -0.069688 1.093170 0.076064
v -0.021799 1.054901 0.149348
v -0.053803 0.986525 -0.158358
v -0.069188 1.087575 0.155719
v -0.051945 1.068426 0.138103
v -0.039873 1.020006 0.191953
v -0.062390 1.029090 0.251112
v -0.071348 1.043592 0.198159
v -0.058822 1.041983 0.173231
v -0.148880 0.996718 0.002154
v 0.001997 1.128986 -0.001283
v 0.001997 1.127071 0.048322
v -0.035500 1.121168 0.030678
v -0.085819 1.271595 -0.055629
v -0.066159 1.221057 -0.023979
v 0.001400 0.873567 -0.241201
v -0.088762 0.851188 -0.170714
v 0.007850 0.822796 -0.127750
v -0.109650 0.812401 -0.149960
v -0.001066 0.821851 -0.253682
v 0.018923 0.766145 -0.102567
v -0.107421 0.742283 -0.133232
v 0.003576 0.733645 -0.210830
v 0.024460 0.715430 -0.115950
v -0.043317 0.701404 -0.138584
v 0.014684 0.703287 -0.177094
v -0.183021 1.015907 -0.045159
v -0.191337 0.946799 -0.015740
v -0.234744 0.874536 0.021661
v -0.259658 0.869463 -0.015478
v -0.255837 0.888336 0.014646
v -0.631837 0.668521 0.303942
v -0.414364 0.732170 0.217924
v -0.630245 0.652044 0.284806
v -0.432508 0.724679 0.188784
v -0.429625 0.742378 0.210963
v -0.619749 0.657516 0.315903
v -0.918917 0.532130 0.357728
v -0.098724 0.939866 -0.014128
v -0.427939 0.535557 -0.797934
v -0.657264 0.514879 0.228261
v -0.602327 0.463954 0.087669
v -0.660473 0.416010 -0.036009
v -0.752738 0.453168 -0.237438
v -0.653246 0.614073 -0.137870
v -0.569830 0.803500 -0.242959
v -0.351421 0.718739 -0.544042
v -0.512988 0.683921 -0.048541
v -0.425221 0.884098 -0.340787
v -0.464731 0.579345 0.049276
v -0.356049 0.857667 -0.301679
v -0.524921 0.511719 0.096589
v -0.461737 0.609636 0.012554
v -0.045850 0.684970 -0.011037
v -0.101116 0.660279 -0.003559
v -0.095659 0.724985 -0.018576
v -0.049188 0.731214 0.001105
v -0.055802 0.679381 0.055231
v -0.107471 0.668675 0.048620
v -0.104423 0.713565 0.030850
v -0.064874 0.713067 0.045994
v -0.054217 0.641871 0.032883
v -0.086088 0.639064 0.034800
v -0.048632 0.569202 -0.055505
v -0.021937 0.570499 -0.056480
v -0.023043 0.554770 -0.038751
v -0.042639 0.550648 -0.039118
v -0.048335 0.546750 -0.075426
v -0.039947 0.528262 -0.050084
v -0.014679 0.548085 -0.074927
v -0.014020 0.532204 -0.048095
v -0.060967 0.419615 0.109931
v -0.093541 0.413495 0.102552
v -0.052163 0.412028 0.093154
v -0.088604 0.405890 0.084335
v -0.070747 0.267238 0.231401
v -0.105033 0.259995 0.223905
v -0.059675 0.254592 0.213590
v -0.100762 0.249855 0.204398
v -0.051171 0.270980 0.292260
v -0.136272 0.230101 0.282869
v -0.030372 0.240894 0.279142
v -0.125663 0.196596 0.263898
v -0.091268 0.242389 0.304192
v -0.075473 0.210628 0.288382
v -0.028719 0.251974 0.313112
v -0.048251 0.279296 0.330755
v -0.089146 0.250779 0.337696
v -0.074266 0.221502 0.321921
v -0.014839 0.235782 0.345712
v -0.026969 0.252987 0.373582
v -0.066135 0.225777 0.377232
v -0.059125 0.208008 0.349853
v 0.002717 0.123744 0.437961
v -0.091316 0.201540 0.326070
v -0.151943 0.219443 0.327937
v -0.106162 0.224319 0.351232
v -0.141871 0.193869 0.300495
v -0.118668 0.183077 0.369342
v -0.106923 0.172251 0.345597
v -0.153642 0.183562 0.352488
v -0.145683 0.169717 0.327564
v -0.139704 0.062514 0.415582
v -0.065472 0.202551 0.213938
v -0.103417 0.232774 0.188071
v -0.050785 0.239516 0.191944
v -0.019045 0.187594 0.200093
v -0.049582 0.192379 0.172961
v -0.015339 0.219205 0.176757
v 0.029692 0.123671 0.174760
v -0.092687 1.128768 0.137245
v -0.028472 1.194662 0.193822
v -0.071904 1.162348 0.136316
v -0.249037 1.201281 0.087535
v 0.118523 1.287127 -0.224929
v 0.094436 1.285153 -0.154651
v 0.083980 1.276824 -0.125085
v 0.071598 1.273116 -0.089299
v 0.058878 1.263742 -0.053237
v -0.037635 1.119953 0.211246
v -0.053679 1.094040 0.254961
v -0.019442 1.122668 0.151098
v -0.029247 1.086236 0.172191
v -0.045243 1.041802 0.208331
v -0.018881 1.125666 0.159995
v 0.001072 1.140831 0.109286
v 0.196151 1.283118 -0.198266
v 0.194061 1.282394 -0.116239
v 0.068687 1.049705 0.034336
v 0.262584 1.268587 -0.063686
v 0.237888 1.265012 -0.033118
v 0.156888 1.265027 -0.014568
v 0.236138 1.245481 0.056820
v 0.215139 1.240348 0.072274
v 0.124109 1.225317 0.075334
v 0.145565 1.213965 0.111535
v 0.107549 1.187332 0.135497
v 0.088108 1.141202 0.132299
v 0.014118 1.128832 0.221736
v -0.020842 1.095241 0.267663
v 0.098017 1.199608 0.143286
v 0.070527 1.195027 0.163640
v 0.101271 0.883169 -0.175742
v 0.173892 1.173805 0.207523
v 0.181347 1.186835 0.183837
v 0.178776 1.210113 0.192881
v 0.177588 1.194824 0.205855
v 0.195779 1.158670 0.225273
v 0.213139 1.179242 0.177021
v 0.207299 1.227268 0.194576
v 0.189909 1.206710 0.242905
v 0.220312 1.169848 0.228564
v 0.232120 1.183807 0.195748
v 0.228134 1.216428 0.207720
v 0.216326 1.202469 0.240536
v 0.111577 1.204703 0.055519
v 0.094509 1.173564 0.055402
v 0.076314 1.152025 0.062352
v 0.061958 1.113197 0.169569
v 0.066879 1.088841 0.113633
v 0.053051 0.990838 -0.161922
v 0.011476 1.084607 0.187649
v 0.009032 1.065968 0.162106
v -0.019052 1.041249 0.218424
v -0.011626 1.039868 0.191519
v 0.140346 0.983616 0.012613
v 0.039667 1.124209 0.029617
v 0.171115 1.256684 0.015490
v 0.126803 1.216130 0.031314
v 0.093648 0.856253 -0.180990
v 0.118620 0.828355 -0.178116
v 0.130643 0.765967 -0.172292
v 0.078651 0.714619 -0.159865
v 0.184131 0.983616 -0.023274
v 0.175502 0.929524 -0.005784
v 0.215813 0.856018 0.032645
v 0.242316 0.850919 -0.003374
v 0.237455 0.869502 0.026781
v 0.567628 0.650541 0.350664
v 0.365516 0.720112 0.250349
v 0.564834 0.632389 0.333259
v 0.380235 0.713656 0.221214
v 0.377453 0.731630 0.238780
v 0.559310 0.639316 0.365330
v 0.869369 0.551414 0.417791
v 0.093517 0.936771 -0.013396
v 0.559809 0.517568 -0.720814
v 0.582927 0.498923 0.266046
v 0.501130 0.422595 0.142955
v 0.570996 0.368847 0.035792
v 0.685796 0.406626 -0.144519
v 0.592462 0.564375 -0.044226
v 0.567153 0.766190 -0.139427
v 0.468884 0.722628 -0.472300
v 0.461683 0.645074 0.022846
v 0.479454 0.860579 -0.254019
v 0.387344 0.548169 0.096252
v 0.393835 0.850907 -0.254130
v 0.422040 0.482523 0.150158
v 0.396914 0.584861 0.058472
v 0.125899 0.703714 -0.042935
v 0.178603 0.709392 -0.067544
v 0.162130 0.754040 -0.063521
v 0.125357 0.748271 -0.029655
v 0.159155 0.688303 0.006382
v 0.204242 0.695676 -0.022671
v 0.190537 0.743825 -0.014144
v 0.158904 0.733680 0.008695
v 0.151301 0.665286 -0.033026
v 0.180905 0.672208 -0.044102
v 0.114763 0.650961 -0.142770
v 0.089810 0.645379 -0.134996
v 0.098790 0.624074 -0.130503
v 0.116817 0.625875 -0.138919
v 0.108321 0.632371 -0.177341
v 0.113507 0.605752 -0.154093
v 0.077603 0.625897 -0.165228
v 0.089918 0.604546 -0.142761
v 0.209503 0.536696 0.008906
v 0.238575 0.534143 -0.008450
v 0.197735 0.524323 -0.002272
v 0.229925 0.522024 -0.022320
v 0.290516 0.418370 0.142029
v 0.321248 0.415105 0.123519
v 0.277116 0.404545 0.130563
v 0.313344 0.400799 0.108162
v 0.285665 0.424654 0.201183
v 0.372748 0.396940 0.175791
v 0.269202 0.388480 0.198113
v 0.364980 0.359018 0.165780
v 0.332508 0.405941 0.205949
v 0.320271 0.370001 0.199567
v 0.273112 0.407170 0.229204
v 0.290778 0.439553 0.237338
v 0.336928 0.419304 0.235937
v 0.324001 0.385938 0.224901
v 0.272110 0.395953 0.268164
v 0.287914 0.419660 0.289055
v 0.331118 0.400126 0.283447
v 0.320610 0.375629 0.262435
v 0.305366 0.304968 0.378959
v 0.346894 0.371579 0.234913
v 0.400914 0.399086 0.215948
v 0.362992 0.401503 0.250657
v 0.389405 0.366589 0.197143
v 0.388698 0.367583 0.271120
v 0.373144 0.350285 0.254148
v 0.416578 0.369751 0.244121
v 0.405149 0.349631 0.225666
v 0.446387 0.264476 0.327114
v 0.293934 0.347299 0.133728
v 0.315570 0.378711 0.094083
v 0.266648 0.376999 0.112197
v 0.249938 0.322306 0.138108
v 0.270510 0.325642 0.102651
v 0.233733 0.347195 0.112117
v 0.210508 0.247802 0.139437
v 0.061874 1.123313 0.178992
v 0.043106 1.161538 0.172303
v 0.231624 1.192823 0.220779
v -0.061950 0.882158 -0.111198
v 0.065595 0.882913 -0.112884
v 0.101905 0.923942 -0.093604
v -0.099613 0.924765 -0.093419
vt 0.474247 1.000024
vt 0.432881 1.000024
vt 0.434057 0.893539
vt 0.509861 1.000024
vt 0.500227 0.768354
vt 0.559969 0.937079
vt 0.645064 0.954173
vt 0.560228 0.940601
vt 0.583639 0.999781
vt 0.500485 0.773130
vt 0.557266 0.999781
vt 0.078178 0.645053
vt 0.145329 0.600948
vt 0.009554 0.578044
vt 0.629598 0.999781
vt 0.656534 0.999781
vt 0.043058 0.667957
vt 0.009554 0.620213
vt 0.512543 0.981892
vt 0.471564 0.821771
vt 0.527454 0.989559
vt 0.480692 0.821771
vt 0.462656 0.892018
vt 0.010156 0.671319
vt 0.079997 0.644406
vt 0.044254 0.667717
vt 0.462330 0.893296
vt 0.363979 0.871999
vt 0.417906 0.999781
vt 0.180894 0.905878
vt 0.211214 0.926339
vt 0.151369 0.927184
vt 0.432105 0.999781
vt 0.359627 0.798296
vt 0.329341 0.825147
vt 0.386839 0.999781
vt 0.298881 0.891138
vt 0.380070 1.000024
vt 0.307338 1.000024
vt 0.334880 0.898555
vt 0.095969 0.432562
vt 0.010156 0.431276
vt 0.010156 0.398660
vt 0.265186 1.000024
vt 0.239898 1.000024
vt 0.239968 0.910398
vt 0.267768 0.860783
vt 0.297710 0.999781
vt 0.009554 0.431384
vt 0.093871 0.436902
vt 0.086972 0.413221
vt 0.202414 0.914836
vt 0.196688 0.802296
vt 0.184322 0.800589
vt 0.117628 0.999781
vt 0.102109 0.947707
vt 0.039265 0.964220
vt 0.191148 0.775024
vt 0.167133 0.773191
vt 0.225497 0.888506
vt 0.213084 0.801976
vt 0.224475 0.802438
vt 0.186573 0.800832
vt 0.225358 0.895351
vt 0.222224 0.802195
vt 0.819590 0.933905
vt 0.741830 1.002771
vt 0.745676 0.981737
vt 0.169384 0.773434
vt 0.219437 0.773434
vt 0.241200 0.775024
vt 0.678604 0.929671
vt 0.702745 0.932100
vt 0.798477 0.934975
vt 0.755545 0.885339
vt 0.756364 0.860805
vt 0.008395 0.999781
vt 0.050191 0.999781
vt 0.006807 0.579017
vt 0.088521 0.542699
vt 0.142997 0.606255
vt 0.106762 0.390629
vt 0.009554 0.409522
vt 0.821998 0.059350
vt 0.793626 0.064078
vt 0.821998 0.017938
vt 0.109088 0.385467
vt 0.010156 0.356430
vt 0.010156 0.294247
vt 0.164845 0.936891
vt 0.132684 0.917898
vt 0.158955 0.999781
vt 0.251493 0.999781
vt 0.121032 0.522092
vt 0.010156 0.538976
vt 0.229751 1.000024
vt 0.202874 0.960390
vt 0.297894 0.904225
vt 0.270019 0.861025
vt 0.821997 0.148207
vt 0.768986 0.140328
vt 0.781726 0.108721
vt 0.175211 1.000024
vt 0.138634 1.000024
vt 0.092576 1.000024
vt 0.033907 1.000024
vt 0.054982 0.974363
vt 0.091565 0.955891
vt 0.098755 0.966742
vt 0.006807 0.497303
vt 0.006807 0.433747
vt 0.061283 0.470065
vt 0.131496 0.917612
vt 0.004047 1.000024
vt 0.032968 0.971590
vt 0.648570 0.954416
vt 0.658785 1.000024
vt 0.609179 1.000024
vt 0.010156 0.635279
vt 0.299877 0.892636
vt 0.355604 0.794775
vt 0.202357 0.999781
vt 0.088947 0.408461
vt 0.428579 0.656093
vt 0.423662 0.696384
vt 0.468944 0.689061
vt 0.531845 0.681720
vt 0.536419 0.712644
vt 0.610352 0.692828
vt 0.102623 0.365689
vt 0.112804 0.333641
vt 0.080802 0.297116
vt 0.248096 0.339680
vt 0.277080 0.531051
vt 0.282148 0.327738
vt 0.196955 0.568250
vt 0.171694 0.589610
vt 0.275180 0.560080
vt 0.523059 0.538596
vt 0.753690 0.411864
vt 0.394870 0.237242
vt 0.280495 0.557925
vt 0.282428 0.528381
vt 0.532773 0.536061
vt 0.269459 0.553689
vt 0.519237 0.554218
vt 0.535788 0.556253
vt 0.716599 0.481061
vt 0.595223 0.398790
vt 0.437154 0.342183
vt 0.464362 0.360988
vt 0.701500 0.500488
vt 0.703680 0.484556
vt 0.526021 0.558436
vt 0.709844 0.503462
vt 0.127878 0.521223
vt 0.090830 0.544067
vt 0.505343 0.387091
vt 0.948055 0.392623
vt 0.722873 0.500303
vt 0.965311 0.387497
vt 0.008771 0.540307
vt 0.173246 0.589150
vt 0.118191 0.524020
vt 0.665937 0.364567
vt 0.539998 0.204645
vt 0.660993 0.264792
vt 0.287140 0.166653
vt 0.009554 0.494631
vt 0.009554 0.385842
vt 0.124838 0.524541
vt 0.197472 0.569937
vt 0.278223 0.559193
vt 0.280150 0.529746
vt 0.065707 0.507251
vt 0.148340 0.599519
vt 0.175172 0.587980
vt 0.469280 0.659417
vt 0.505147 0.691113
vt 0.358231 0.813259
vt 0.396762 0.861519
vt 0.463835 0.781576
vt 0.334361 0.622665
vt 0.318366 0.723370
vt 0.458201 0.720399
vt 0.455465 0.629717
vt 0.535658 0.660000
vt 0.620783 0.673963
vt 0.453440 0.629177
vt 0.584055 0.653212
vt 0.584827 0.677850
vt 0.503016 0.653376
vt 0.539342 0.629326
vt 0.620698 0.651899
vt 0.732105 0.651967
vt 0.728838 0.643284
vt 0.621615 0.624442
vt 0.632604 0.637198
vt 0.636322 0.685307
vt 0.636814 0.636255
vt 0.621290 0.624515
vt 0.619952 0.697967
vt 0.621630 0.699173
vt 0.734007 0.671131
vt 0.729414 0.682004
vt 0.844311 0.686359
vt 0.621380 0.674077
vt 0.636178 0.688381
vt 0.733584 0.644686
vt 0.849901 0.650483
vt 0.851008 0.673148
vt 0.928244 0.660805
vt 0.843633 0.637183
vt 0.730695 0.682992
vt 0.844925 0.638417
vt 0.740409 0.775706
vt 0.713106 0.780706
vt 0.704568 0.818200
vt 0.896603 0.625215
vt 0.878631 0.609036
vt 0.785632 0.738775
vt 0.737278 0.738859
vt 0.880723 0.715185
vt 0.913616 0.613223
vt 0.897236 0.601821
vt 0.730897 0.812957
vt 0.780941 0.817868
vt 0.792510 0.817868
vt 0.790023 0.778792
vt 0.898074 0.698036
vt 0.711846 0.726905
vt 0.683097 0.727238
vt 0.685751 0.762377
vt 0.965266 0.662943
vt 0.955920 0.640956
vt 0.937049 0.627702
vt 0.714789 0.764119
vt 0.941121 0.702714
vt 0.919603 0.714522
vt 0.932540 0.731689
vt 0.929544 0.592491
vt 0.912862 0.581726
vt 0.967203 0.616180
vt 0.950630 0.603144
vt 0.902827 0.726042
vt 0.957928 0.692611
vt 0.950735 0.721911
vt 0.964856 0.713499
vt 0.615440 0.761890
vt 0.984016 0.535583
vt 0.918749 0.741460
vt 0.685114 0.782002
vt 0.679087 0.810945
vt 0.847072 0.686366
vt 0.914720 0.615321
vt 0.929979 0.594898
vt 0.950087 0.605671
vt 0.608583 0.784975
vt 0.984016 0.786714
vt 0.799318 0.743667
vt 0.831117 0.767611
vt 0.823981 0.791937
vt 0.982769 0.539053
vt 0.825639 0.742255
vt 0.886191 0.771748
vt 0.391135 0.800147
vt 0.375753 0.599215
vt 0.324001 0.784547
vt 0.429296 0.757561
vt 0.279186 0.533620
vt 0.270107 0.551779
vt 0.178643 0.905635
vt 0.750796 0.933481
vt 0.821997 0.285131
vt 0.821997 0.331456
vt 0.791374 0.330169
vt 0.821998 0.110806
vt 0.821997 0.238271
vt 0.779153 0.273656
vt 0.544401 1.000024
vt 0.473816 0.822014
vt 0.821997 0.190377
vt 0.754407 0.181463
vt 0.759288 0.228469
vt 0.375409 0.872242
vt 0.334031 0.621557
vt 0.821996 0.381399
vt 0.647236 0.956984
vt 0.563654 0.943411
vt 0.541813 1.000083
vt 0.434491 1.000083
vt 0.389226 1.000083
vt 0.329218 0.822939
vt 0.586026 1.000083
vt 0.561360 0.944666
vt 0.644941 0.954474
vt 0.559653 1.000083
vt 0.500362 0.770922
vt 0.043124 0.669810
vt 0.006807 0.660730
vt 0.006807 0.624413
vt 0.658921 1.000083
vt 0.631985 1.000083
vt 0.064720 0.466534
vt 0.558639 0.973714
vt 0.530104 0.984870
vt 0.473951 0.822073
vt 0.493413 0.964305
vt 0.434192 0.893597
vt 0.295305 0.904284
vt 0.262597 1.000083
vt 0.304749 1.000083
vt 0.376800 0.873555
vt 0.178305 0.905936
vt 0.128907 0.917671
vt 0.148780 0.927242
vt 0.502657 0.770922
vt 0.507272 1.000083
vt 0.353495 1.000083
vt 0.300013 0.892694
vt 0.377481 1.000083
vt 0.332291 0.898614
vt 0.094303 0.434241
vt 0.087304 0.410219
vt 0.008771 0.400451
vt 0.237380 0.910457
vt 0.237309 1.000083
vt 0.300096 1.000083
vt 0.270155 0.861084
vt 0.006807 0.415589
vt 0.088521 0.415589
vt 0.186709 0.800890
vt 0.199074 0.802597
vt 0.204801 0.915138
vt 0.120014 1.000083
vt 0.052578 1.000083
vt 0.041652 0.964521
vt 0.169520 0.773492
vt 0.193534 0.775326
vt 0.221886 0.802496
vt 0.210495 0.802034
vt 0.222908 0.888565
vt 0.183984 0.800890
vt 0.224610 0.802496
vt 0.227744 0.895652
vt 0.818979 0.933781
vt 0.797866 0.934852
vt 0.745065 0.981613
vt 0.216848 0.773492
vt 0.166795 0.773492
vt 0.243587 0.775326
vt 0.240862 0.775326
vt 0.741219 1.002647
vt 0.702134 0.931977
vt 0.754934 0.885215
vt 0.677993 0.929547
vt 0.030379 0.971649
vt 0.004640 1.000083
vt 0.031318 1.000083
vt 0.390828 0.798355
vt 0.376482 0.598671
vt 0.336115 0.622653
vt 0.006807 0.406510
vt 0.106679 0.388351
vt 0.851059 0.063308
vt 0.457276 0.719815
vt 0.453813 0.628344
vt 0.253879 1.000083
vt 0.204744 1.000083
vt 0.225632 0.888565
vt 0.161342 1.000083
vt 0.104496 0.948009
vt 0.135070 0.918200
vt 0.167232 0.937192
vt 0.355525 0.798597
vt 0.332768 0.820429
vt 0.208625 0.926398
vt 0.267430 0.861084
vt 0.864773 0.108127
vt 0.136045 1.000083
vt 0.172622 1.000083
vt 0.052394 0.974421
vt 0.089988 1.000083
vt 0.088976 0.955950
vt 0.096166 0.966800
vt 0.606590 1.000083
vt 0.656197 1.000083
vt 0.078383 0.645391
vt 0.146502 0.600651
vt 0.008771 0.636294
vt 0.200285 0.960449
vt 0.180124 1.000083
vt 0.042758 0.668625
vt 0.008771 0.672215
vt 0.297289 0.892694
vt 0.107379 0.387301
vt 0.008771 0.358360
vt 0.428686 0.656513
vt 0.468892 0.659410
vt 0.468203 0.688038
vt 0.531875 0.681591
vt 0.621501 0.673619
vt 0.608476 0.692734
vt 0.251948 0.333875
vt 0.279186 0.324796
vt 0.279186 0.560858
vt 0.760390 0.406510
vt 0.524328 0.542699
vt 0.397217 0.234002
vt 0.532678 0.557526
vt 0.529674 0.537400
vt 0.524328 0.551779
vt 0.719149 0.501760
vt 0.712896 0.482582
vt 0.596962 0.397430
vt 0.442614 0.342954
vt 0.469852 0.361113
vt 0.714994 0.488223
vt 0.705914 0.497303
vt 0.714994 0.506382
vt 0.533407 0.560858
vt 0.185212 0.068914
vt 0.118861 0.520693
vt 0.506169 0.388351
vt 0.960135 0.388351
vt 0.960792 0.389324
vt 0.669597 0.361113
vt 0.542487 0.197685
vt 0.705914 0.097813
vt 0.669597 0.261240
vt 0.288266 0.161368
vt 0.117270 0.522284
vt 0.006807 0.379272
vt 0.198872 0.567482
vt 0.136648 0.556264
vt 0.227162 1.000083
vt 0.376585 0.873555
vt 0.431468 0.893597
vt 0.502840 0.652110
vt 0.505978 0.691525
vt 0.357939 0.812192
vt 0.429570 0.757383
vt 0.464592 0.782081
vt 0.086436 0.358292
vt 0.458958 0.720904
vt 0.335392 0.623349
vt 0.318170 0.722492
vt 0.453772 0.629519
vt 0.502319 0.652263
vt 0.535541 0.658953
vt 0.620485 0.651860
vt 0.585286 0.677959
vt 0.585036 0.653036
vt 0.537196 0.712397
vt 0.539568 0.628809
vt 0.609924 0.637981
vt 0.736240 0.644628
vt 0.738065 0.654240
vt 0.620479 0.651731
vt 0.636644 0.688789
vt 0.634341 0.636845
vt 0.620659 0.626212
vt 0.621630 0.626169
vt 0.634415 0.636711
vt 0.621747 0.698284
vt 0.637904 0.688632
vt 0.622722 0.698509
vt 0.739936 0.673088
vt 0.855011 0.675072
vt 0.848424 0.688066
vt 0.735290 0.683841
vt 0.733904 0.683902
vt 0.735955 0.644357
vt 0.853922 0.652780
vt 0.930976 0.662932
vt 0.847757 0.639699
vt 0.846770 0.687464
vt 0.844901 0.639940
vt 0.705288 0.816480
vt 0.713826 0.778987
vt 0.740720 0.773576
vt 0.882179 0.612015
vt 0.899856 0.627928
vt 0.785942 0.736645
vt 0.737589 0.736729
vt 0.901302 0.699551
vt 0.884237 0.716418
vt 0.900479 0.604918
vt 0.916589 0.616133
vt 0.731208 0.810827
vt 0.781252 0.815738
vt 0.790334 0.776663
vt 0.792820 0.815738
vt 0.685652 0.759838
vt 0.682998 0.724699
vt 0.711337 0.723956
vt 0.939637 0.630374
vt 0.958197 0.643410
vt 0.714280 0.761171
vt 0.943641 0.704152
vt 0.953097 0.723032
vt 0.935201 0.732650
vt 0.915847 0.585154
vt 0.932255 0.595743
vt 0.952994 0.606220
vt 0.969294 0.619042
vt 0.922477 0.715765
vt 0.905978 0.727096
vt 0.960172 0.694215
vt 0.966986 0.714759
vt 0.617389 0.759351
vt 0.985830 0.539770
vt 0.921638 0.742261
vt 0.680217 0.809225
vt 0.686244 0.780282
vt 0.937908 0.632033
vt 0.914075 0.616766
vt 0.799629 0.741538
vt 0.950384 0.606690
vt 0.929177 0.595962
vt 0.606845 0.782846
vt 0.985831 0.786770
vt 0.825950 0.740125
vt 0.831428 0.765482
vt 0.824292 0.789807
vt 0.983405 0.540292
vt 0.886502 0.769618
vt 0.079441 0.642572
vt 0.323805 0.783669
vt 0.434321 0.717690
vt 0.181030 0.905936
vt 0.750185 0.933357
vt 0.852619 0.330170
vt 0.864841 0.273657
vt 0.471659 1.000083
vt 0.471227 0.822073
vt 0.875009 0.140328
vt 0.884706 0.228470
vt 0.005478 0.997961
vt 0.114251 0.350647
vt 0.008771 0.296380
vt 0.128249 0.435302
vt 0.008771 0.432960
vt 0.118380 0.522092
vt 0.175368 0.588619
vt 0.080720 0.522092
vt 0.116882 0.518706
vt 0.184949 0.068196
vt 0.118473 0.523480
vt 0.062823 0.510229
vt 0.088521 0.433747
vt 0.009554 0.660973
vt 0.474881 0.981892
vt 0.498876 0.974226
vt 0.010156 0.675711
vt 0.499828 0.971670
vt 0.345428 0.798296
vt 0.351108 0.999781
vt 0.009554 0.417542
vt 0.227609 0.895594
vt 0.243451 0.775267
vt 0.115982 0.348692
vt 0.223246 0.888263
vt 0.129915 0.437866
vt 0.182713 1.000024
vt 0.326573 0.827899
vt 0.051738 0.313685
vt 0.695543 0.105347
vt 0.187334 0.073157
vt 0.119252 0.520838
vt 0.200882 0.566241
vt 0.375541 0.599880
vt 0.459519 0.720731
vt 0.609394 0.637996
vt 0.636730 0.636125
vt 0.637405 0.688736
vt 0.938273 0.630062
vt 0.434214 0.717270
vt 0.356995 0.797342
vt 0.225020 0.895652
vt 0.755753 0.860681
vt 0.008771 0.676593
vt 0.423936 0.696206
vt 0.170235 0.588096
vt 0.430293 1.000083
vt 0.396997 0.861241
vt 0.057372 0.374862
vt 0.634627 0.636963
vt 0.637990 0.688597
vt 0.967389 0.665035
vt 0.889587 0.181464
vt 0.376483 0.598964
vn -0.008200 -0.987700 -0.155800
vn 0.130300 -0.789800 -0.599300
vn -0.882800 0.103000 -0.458200
vn 0.001100 -0.979200 -0.202600
vn -0.844800 -0.007700 -0.535100
vn -0.191900 0.056200 -0.979800
vn -0.681000 -0.028800 -0.731700
vn 0.127400 0.982200 -0.138100
vn 0.087100 0.994100 -0.063500
vn -0.651500 0.446000 0.613600
vn -0.518800 0.051500 0.853400
vn -0.015000 -0.359000 0.933200
vn 0.154700 0.960100 -0.233000
vn 0.315000 -0.214300 -0.924600
vn -0.972700 -0.231700 0.005700
vn 0.000400 0.061700 0.998100
vn -0.945500 -0.135700 0.296000
vn -0.002000 0.972300 0.233700
vn 0.026200 0.895500 -0.444300
vn -0.110500 0.354800 -0.928400
vn -0.007300 0.971100 0.238600
vn -0.917100 -0.375500 -0.133600
vn -0.723500 -0.541900 -0.427700
vn -0.563700 -0.623800 -0.541300
vn -0.870400 0.160100 -0.465500
vn -0.876000 -0.056300 0.478900
vn -0.077200 0.878000 0.472400
vn -0.786300 0.617700 -0.008700
vn 0.222900 -0.501600 -0.835900
vn 0.149500 -0.756100 -0.637100
vn -0.344300 -0.792100 -0.504000
vn -0.992600 -0.086300 -0.085600
vn -0.016400 0.270900 -0.962400
vn -0.029700 0.157900 -0.987000
vn 0.064400 -0.399000 -0.914700
vn 0.070200 0.022200 -0.997300
vn -0.614200 -0.475200 -0.629900
vn -0.935900 0.293900 -0.193900
vn -0.048300 0.944600 0.324500
vn 0.035400 -0.731200 0.681200
vn -0.987200 0.150200 0.052300
vn -0.553300 0.385700 0.738200
vn 0.278000 0.262800 0.923900
vn 0.271200 -0.925900 0.263000
vn -0.142100 0.853000 0.502200
vn -0.959500 -0.274200 -0.064800
vn -0.890200 -0.414700 -0.188500
vn -0.079600 0.201000 0.976300
vn -0.058800 -0.962900 0.263300
vn -0.777400 -0.170000 -0.605600
vn 0.398900 -0.237300 -0.885700
vn 0.414400 0.900700 -0.130400
vn -0.369500 0.893800 0.254200
vn 0.157000 0.956400 -0.246400
vn -0.590400 0.751100 -0.295500
vn 0.220300 -0.276300 -0.935400
vn -0.547900 -0.161800 -0.820700
vn -0.776100 0.265100 0.572200
vn -0.757300 -0.651900 0.038200
vn -0.151000 -0.933700 0.324600
vn -0.270500 0.453500 0.849200
vn 0.650100 -0.695600 0.305600
vn 0.488100 0.029000 0.872300
vn -0.912500 0.408000 -0.028800
vn 0.052500 0.519800 0.852700
vn -0.157200 0.849300 0.503900
vn -0.963400 0.004100 0.267800
vn -0.363300 -0.129200 0.922600
vn -0.076700 -0.096800 -0.992300
vn -0.093300 -0.540600 -0.836100
vn -0.847000 0.291600 0.444500
vn -0.855900 -0.517000 -0.011400
vn -0.183800 0.782600 0.594800
vn -0.127000 0.854500 0.503700
vn -0.720600 -0.058500 -0.690800
vn 0.030800 0.616000 -0.787100
vn -0.058500 0.558900 -0.827200
vn -0.630100 -0.451000 -0.632100
vn -0.179500 0.784300 0.593800
vn -0.901500 0.177600 0.394600
vn -0.886300 0.112900 0.449000
vn 0.116500 -0.714500 -0.689800
vn 0.125400 -0.851400 -0.509200
vn 0.124900 -0.906600 -0.403100
vn 0.030000 -0.981100 -0.191000
vn -0.572900 -0.641500 -0.510100
vn -0.541400 -0.763700 -0.351500
vn -0.000200 -0.870200 0.492600
vn 0.695800 -0.691600 0.193400
vn -0.070200 -0.997400 0.013900
vn 0.062700 0.955000 -0.289800
vn -0.190200 0.754400 0.628200
vn 0.506000 0.641500 0.576500
vn -0.792500 0.555000 0.252600
vn -0.734100 0.575200 0.360800
vn -0.452800 -0.671500 0.586500
vn -0.877100 -0.353600 -0.324900
vn -0.759800 0.156700 -0.631000
vn 0.049000 -0.928300 -0.368400
vn -0.200800 -0.910100 -0.362500
vn -0.193300 -0.922500 0.333900
vn 0.240200 -0.837400 -0.490900
vn 0.167100 -0.912200 0.374000
vn 0.421800 -0.193300 0.885800
vn -0.737000 0.673100 -0.061300
vn -0.529300 0.750600 0.395500
vn 0.389400 -0.881300 -0.267600
vn 0.516400 -0.485400 0.705400
vn 0.595700 -0.767700 -0.236200
vn 0.821100 -0.274100 0.500600
vn 0.657200 -0.237600 0.715300
vn -0.307500 0.913000 0.268100
vn 0.441100 -0.876000 0.194700
vn 0.694300 -0.642500 0.324100
vn 0.554400 -0.446300 -0.702400
vn 0.643000 -0.483700 -0.593800
vn 0.371600 -0.227600 0.900100
vn -0.358400 0.924900 0.126900
vn -0.669800 -0.665900 0.328400
vn 0.792200 -0.606900 -0.063800
vn 0.372500 -0.419500 0.827800
vn 0.813100 0.576900 0.078000
vn 0.744000 0.081800 -0.663100
vn 0.488400 -0.837400 0.245400
vn 0.651700 -0.147300 -0.744000
vn 0.675400 -0.657700 -0.333400
vn -0.398000 0.822900 -0.405500
vn 0.109500 0.485700 0.867200
vn -0.528400 -0.270900 0.804600
vn 0.541800 0.726000 0.423500
vn -0.221400 -0.803400 -0.552700
vn -0.959400 -0.217000 -0.179800
vn 0.346600 0.609800 0.712700
vn -0.741900 -0.201300 0.639500
vn -0.851200 -0.345000 -0.395500
vn 0.956400 -0.291500 0.019600
vn 0.637300 -0.355900 0.683400
vn -0.877700 -0.082200 0.472100
vn 0.734200 0.493100 -0.466700
vn 0.571700 0.002900 0.820400
vn 0.801900 0.169000 0.573000
vn 0.375600 0.603600 0.703300
vn 0.914200 -0.350800 -0.202600
vn 0.663000 -0.046900 -0.747200
vn 0.895400 -0.410800 -0.171700
vn -0.535400 -0.664100 -0.521900
vn -0.635900 -0.146300 -0.757700
vn -0.849400 0.432900 0.301700
vn -0.560900 -0.469700 -0.681800
vn -0.782300 -0.209700 -0.586500
vn 0.291800 0.893700 0.340700
vn -0.840500 0.529300 0.115700
vn -0.506000 0.798400 0.326300
vn 0.949400 0.185500 -0.253400
vn 0.460900 -0.887100 0.023300
vn 0.888800 -0.435800 0.141800
vn -0.600100 -0.643800 -0.474700
vn 0.160700 0.971900 -0.171900
vn 0.947100 -0.235600 -0.217900
vn -0.365600 -0.779400 -0.508800
vn 0.090500 0.987900 0.125800
vn 0.973500 0.031100 -0.226500
vn -0.877900 -0.002700 -0.478800
vn -0.063000 -0.837500 0.542800
vn -0.825100 0.538000 -0.172300
vn 0.931100 -0.052800 -0.360900
vn -0.379800 -0.853600 -0.356600
vn -0.370600 -0.927100 0.055600
vn -0.904800 0.305700 0.296600
vn 0.336000 0.601900 0.724400
vn -0.828400 0.530400 0.179900
vn -0.899400 0.194900 0.391100
vn 0.384300 0.708600 0.591700
vn -0.753100 0.062000 0.654900
vn 0.329800 0.291900 0.897800
vn 0.872300 -0.459600 -0.166800
vn 0.326400 -0.766500 0.553000
vn -0.480900 -0.586100 -0.652100
vn 0.588900 0.738400 -0.328600
vn 0.624000 0.687800 -0.370700
vn -0.432100 -0.519500 -0.737100
vn -0.067000 -0.862300 0.501900
vn 0.230500 -0.232700 0.944800
vn 0.601700 -0.792000 -0.103000
vn 0.152200 -0.908000 0.390300
vn -0.866600 -0.257600 0.427200
vn -0.979900 0.079600 -0.182500
vn 0.071700 -0.942600 -0.326000
vn 0.195500 -0.722400 -0.663300
vn -0.272000 0.605900 0.747500
vn 0.006300 -0.989600 -0.143300
vn -0.020100 -0.989100 -0.146000
vn -0.262800 -0.355900 0.896800
vn 0.962600 -0.166400 -0.213700
vn 0.705800 -0.101100 -0.701100
vn 0.466700 -0.168400 0.868300
vn 0.993700 -0.112000 -0.002100
vn 0.940200 -0.272600 -0.204400
vn 0.071400 -0.993200 0.092200
vn -0.679000 -0.702500 0.212900
vn 0.621200 -0.228000 0.749700
vn 0.005800 0.969200 0.246200
vn 0.992700 -0.080000 0.089500
vn 0.734200 -0.613800 -0.290000
vn 0.612300 0.248300 -0.750600
vn 0.862700 -0.458900 0.212600
vn 0.555300 0.135300 0.820600
vn 0.683100 -0.708200 -0.178100
vn 0.000200 0.970500 0.240800
vn 0.853500 0.391900 0.343300
vn 0.417600 -0.873000 -0.251600
vn 0.993000 -0.060400 -0.101400
vn 0.956300 0.292400 -0.006900
vn 0.712900 -0.515800 -0.475000
vn 0.950500 0.141000 0.276700
vn 0.034900 0.315400 0.948300
vn -0.512800 -0.717500 0.471400
vn -0.749000 0.250600 0.613200
vn 0.163700 0.401400 0.901100
vn 0.780800 -0.490600 0.386800
vn -0.245000 -0.893600 0.376000
vn -0.457000 0.364500 0.811400
vn -0.446000 0.840400 -0.307900
vn 0.100700 -0.346500 -0.932600
vn 0.938700 -0.254500 -0.232600
vn 0.270500 0.882700 0.384100
vn 0.415800 0.296800 0.859600
vn 0.740600 0.670800 -0.037800
vn 0.264000 -0.389900 -0.882200
vn 0.083300 0.912700 -0.399900
vn 0.866100 -0.297700 -0.401500
vn 0.544200 -0.673200 0.500600
vn 0.527100 -0.065500 0.847300
vn 0.269500 -0.859200 -0.434900
vn 0.776300 0.571600 -0.265700
vn 0.811900 -0.008900 -0.583700
vn -0.802900 -0.391700 0.449400
vn 0.770400 -0.339700 0.539500
vn 0.674200 -0.574400 0.464200
vn 0.457200 0.220400 0.861600
vn 0.996500 0.034000 0.076000
vn 0.725400 -0.646700 -0.235400
vn 0.378900 0.111700 0.918700
vn 0.715000 -0.699000 -0.012200
vn 0.588500 -0.805600 0.068300
vn 0.687800 0.420200 0.591800
vn -0.423300 0.535500 0.730800
vn -0.149200 0.373900 0.915400
vn 0.692900 0.643900 0.324400
vn 0.693900 -0.717700 -0.058000
vn 0.984000 0.081100 -0.158200
vn 0.384100 0.677000 -0.627800
vn -0.059400 -0.951600 0.301600
vn -0.421000 -0.887700 0.186200
vn -0.530000 -0.418800 0.737300
vn -0.386000 -0.869900 -0.306900
vn -0.608600 -0.662400 -0.436800
vn 0.367400 0.906500 0.207800
vn -0.707100 -0.151600 0.690600
vn 0.333800 0.942300 0.026100
vn -0.412900 -0.886300 0.209400
vn -0.779600 -0.488400 0.392000
vn -0.435300 -0.312200 -0.844400
vn -0.535500 -0.368500 -0.759800
vn -0.378400 -0.173100 0.909300
vn -0.061000 -0.833200 0.549600
vn -0.824300 -0.497100 -0.270700
vn -0.339200 -0.461800 0.819500
vn -0.559900 -0.774400 0.294700
vn -0.509700 0.052800 -0.858700
vn -0.650800 -0.231100 -0.723200
vn -0.691200 -0.559200 -0.457800
vn 0.903100 -0.081000 0.421700
vn -0.155900 -0.467000 0.870400
vn 0.944200 -0.265400 0.194900
vn 0.704800 -0.182900 -0.685400
vn 0.662600 0.748700 0.017600
vn -0.233100 -0.830500 0.505800
vn -0.698100 -0.146600 0.700700
vn -0.884300 0.463000 0.060500
vn -0.824500 -0.531800 0.193100
vn -0.254600 0.679900 0.687600
vn 0.433500 -0.583900 -0.686300
vn -0.775600 -0.630600 0.026700
vn -0.871600 -0.003900 -0.490100
vn 0.303700 0.212300 -0.928800
vn 0.783200 0.614800 -0.092600
vn 0.729100 0.649600 -0.215200
vn 0.574400 -0.182300 -0.798000
vn 0.404100 -0.517100 -0.754500
vn -0.289600 0.903000 0.317400
vn 0.392000 0.915800 0.087400
vn -0.998600 -0.028400 0.044900
vn 0.577400 -0.640200 -0.506700
vn -0.722300 -0.521300 0.454400
vn -0.266500 -0.925900 0.267800
vn -0.878100 -0.474500 0.061600
vn -0.408400 0.883500 -0.229100
vn 0.648100 0.599900 -0.469100
vn 0.371300 -0.798800 -0.473300
vn -0.986400 -0.156400 0.050400
vn -0.251800 0.967800 0.000600
vn 0.422300 -0.662900 0.618200
vn 0.699700 0.041100 -0.713200
vn 0.425200 -0.848800 -0.314100
vn -0.965300 -0.258000 -0.039200
vn 0.874600 0.483800 -0.032100
vn 0.535000 -0.835800 0.123400
vn -0.258300 0.689100 0.677100
vn -0.121600 0.432900 0.893200
vn 0.911100 0.408700 0.053900
vn -0.339300 0.750300 0.567300
vn 0.878200 0.309400 0.364600
vn 0.715600 0.680200 -0.158600
vn -0.767500 -0.609500 0.198600
vn 0.011800 -0.665400 0.746400
vn 0.395600 -0.637000 -0.661500
vn -0.829500 0.489500 -0.268900
vn 0.331500 -0.595000 -0.732100
vn -0.835500 0.476000 -0.274300
vn 0.382700 -0.713000 0.587500
vn 0.085900 -0.055400 0.994800
vn -0.430400 -0.876900 0.213800
vn 0.942000 -0.012500 0.335300
vn -0.005600 -0.814600 0.579900
vn 0.974300 -0.179100 -0.136800
vn 0.711300 -0.341000 -0.614600
s 1
f 181/1/1 182/2/2 14/3/3
f 180/4/4 9/5/5 4/6/6
f 3/7/7 4/8/6 7/9/8
f 4/8/6 9/10/5 8/11/9
f 6/12/10 73/13/11 57/14/12
f 3/7/7 5/15/13 1/16/14
f 76/17/15 6/12/10 10/18/16
f 8/19/9 9/10/5 12/20/17
f 11/21/18 12/22/17 14/23/3
f 15/24/19 6/25/10 76/26/15
f 14/27/3 77/28/20 16/29/21
f 32/30/22 61/31/23 64/32/24
f 16/33/21 17/34/25 20/35/26
f 19/36/27 20/35/26 23/37/28
f 18/38/29 21/39/30 78/40/31
f 42/41/32 58/42/33 79/43/34
f 24/44/35 27/45/36 60/46/37
f 23/37/28 26/47/38 25/48/39
f 41/49/40 42/50/32 80/51/41
f 40/52/42 47/53/43 44/54/44
f 33/55/45 34/56/46 37/57/47
f 47/53/43 51/58/48 48/59/49
f 29/60/50 45/61/51 46/62/52
f 29/60/50 32/30/22 44/63/44
f 39/64/53 46/65/52 47/53/43
f 51/66/48 50/67/54 54/68/55
f 44/63/44 48/69/49 49/70/56
f 46/65/52 50/71/54 51/58/48
f 46/62/52 45/61/51 49/70/56
f 50/67/54 49/72/56 53/73/57
f 51/66/48 55/74/58 52/75/59
f 49/72/56 48/76/49 52/75/59
f 37/57/47 38/77/60 36/78/61
f 57/79/12 249/80/62 229/81/63
f 80/51/41 82/82/64 81/83/65
f 187/84/66 71/85/67 70/86/68
f 82/87/64 83/88/69 86/89/70
f 176/90/71 174/91/72 175/92/73
f 28/93/74 39/64/53 40/52/42
f 26/47/38 39/64/53 25/48/39
f 175/92/73 174/91/72 34/56/46
f 66/94/75 56/95/76 58/42/33
f 27/45/36 74/96/77 76/97/15
f 60/46/37 61/31/23 29/60/50
f 59/98/78 60/46/37 26/99/38
f 29/60/50 61/31/23 32/30/22
f 185/100/79 62/101/80 67/102/81
f 30/103/82 63/104/83 64/32/24
f 65/105/84 69/106/85 72/107/86
f 67/108/81 68/109/87 72/107/86
f 35/110/88 41/111/40 325/112/89
f 62/113/80 64/32/24 68/109/87
f 63/104/83 65/105/84 68/109/87
f 69/106/85 70/114/68 71/115/67
f 3/116/7 1/117/14 178/118/90
f 6/25/10 15/24/19 2/119/91
f 61/31/23 60/46/37 76/97/15
f 30/103/82 61/31/23 76/97/15
f 21/39/30 24/44/35 59/98/78
f 78/40/31 59/98/78 23/120/28
f 17/121/25 18/38/29 78/40/31
f 31/122/92 40/52/42 176/90/71
f 80/123/41 79/43/34 83/88/69
f 120/124/93 119/125/94 123/126/95
f 126/127/96 118/128/97 127/129/98
f 86/130/70 89/131/99 88/132/100
f 114/133/101 93/134/102 112/135/103
f 91/136/104 90/137/105 94/138/106
f 93/134/102 98/139/107 104/140/108
f 112/135/103 93/134/102 109/141/109
f 94/142/106 93/143/102 98/144/107
f 92/145/110 96/146/111 98/139/107
f 99/147/112 98/144/107 97/148/113
f 93/134/102 104/140/108 115/149/114
f 111/150/115 93/134/102 116/151/116
f 96/146/111 100/152/117 97/153/113
f 99/154/112 95/155/118 100/152/117
f 73/13/11 66/156/75 102/157/119
f 93/134/102 113/158/120 116/151/116
f 100/152/117 95/155/118 101/159/121
f 95/160/118 97/148/113 101/161/121
f 97/153/113 100/152/117 101/159/121
f 94/138/106 99/154/112 96/146/111
f 98/139/107 97/153/113 104/140/108
f 56/162/76 237/163/122 224/164/123
f 97/153/113 101/159/121 104/140/108
f 104/140/108 105/165/124 115/149/114
f 108/166/125 111/150/115 116/151/116
f 116/151/116 113/158/120 106/167/126
f 110/168/127 112/135/103 109/141/109
f 115/149/114 105/165/124 106/167/126
f 114/133/101 112/135/103 110/168/127
f 108/166/125 109/141/109 111/150/115
f 57/14/12 73/13/11 102/157/119
f 35/169/88 57/14/12 102/157/119
f 81/83/65 82/82/64 84/170/128
f 109/141/109 93/134/102 111/150/115
f 93/134/102 115/149/114 113/158/120
f 224/171/123 238/172/129 229/81/63
f 237/163/122 241/173/130 240/174/131
f 66/156/75 327/175/132 102/157/119
f 73/176/11 2/119/91 90/177/105
f 124/178/133 123/126/95 122/179/134
f 85/180/135 88/181/100 118/182/97
f 84/183/128 82/184/64 120/124/93
f 118/185/97 122/179/134 123/126/95
f 84/183/128 120/124/93 117/186/136
f 117/186/136 120/124/93 124/178/133
f 125/187/137 126/127/96 130/188/138
f 117/189/136 128/190/139 127/191/98
f 126/127/96 125/187/137 121/192/140
f 122/179/134 118/128/97 126/127/96
f 117/193/136 125/187/137 129/194/141
f 129/194/141 135/195/142 137/196/143
f 117/193/136 121/192/140 125/187/137
f 133/197/144 134/198/145 132/199/146
f 129/194/141 134/200/145 133/201/144
f 128/190/139 133/197/144 131/202/147
f 130/188/138 127/129/98 131/203/147
f 136/204/148 138/205/149 142/206/150
f 130/207/138 136/204/148 135/195/142
f 130/207/138 132/208/146 138/205/149
f 132/199/146 134/198/145 137/209/143
f 139/210/151 140/211/152 147/212/153
f 136/204/148 140/211/152 139/210/151
f 135/195/142 139/210/151 141/213/154
f 138/214/149 137/209/143 141/215/154
f 148/216/155 158/217/156 161/218/157
f 139/210/151 143/219/158 145/220/159
f 141/221/154 145/222/159 148/216/155
f 140/211/152 142/206/150 146/223/160
f 143/219/158 150/224/161 149/225/162
f 146/226/160 142/227/150 148/216/155
f 142/227/150 168/228/163 167/229/164
f 140/211/152 144/230/165 147/212/153
f 143/219/158 139/210/151 147/212/153
f 149/231/162 153/232/166 156/233/167
f 147/212/153 148/234/155 152/235/168
f 147/212/153 151/236/169 150/224/161
f 145/222/159 149/231/162 152/237/168
f 160/238/170 159/239/171 164/240/172
f 150/224/161 154/241/173 153/242/166
f 151/236/169 152/235/168 156/243/167
f 151/236/169 155/244/174 154/241/173
f 147/212/153 144/230/165 159/239/171
f 144/230/165 146/223/160 161/245/157
f 147/212/153 160/238/170 158/246/156
f 160/238/170 162/247/175 163/248/176
f 156/233/167 153/232/166 157/249/177
f 153/242/166 154/241/173 157/250/177
f 155/244/174 156/243/167 157/250/177
f 154/241/173 155/244/174 157/250/177
f 159/239/171 161/245/157 165/251/178
f 158/217/156 163/252/176 165/253/178
f 142/254/150 141/215/154 169/255/179
f 141/221/154 148/216/155 167/229/164
f 169/255/179 172/256/180 171/257/181
f 165/253/178 163/252/176 166/258/182
f 163/248/176 162/247/175 166/259/182
f 162/247/175 164/240/172 166/259/182
f 164/240/172 165/251/178 166/259/182
f 169/260/179 167/229/164 170/261/183
f 167/229/164 168/228/163 171/262/181
f 171/257/181 172/256/180 173/263/184
f 172/264/180 170/261/183 173/265/184
f 170/261/183 171/262/181 173/265/184
f 88/266/100 87/267/185 117/189/136
f 82/268/64 85/180/135 119/269/94
f 240/270/131 239/271/186 238/172/129
f 40/52/42 32/272/22 176/90/71
f 176/90/71 32/272/22 174/91/72
f 54/68/55 53/73/57 177/273/187
f 53/73/57 52/75/59 177/273/187
f 52/75/59 55/74/58 177/273/187
f 55/74/58 54/68/55 177/273/187
f 183/274/188 184/275/189 37/276/47
f 71/85/67 187/84/66 186/277/190
f 188/278/191 183/274/188 34/279/46
f 3/116/7 178/118/90 179/280/192
f 180/4/4 181/1/1 12/281/17
f 189/282/193 32/283/22 62/101/80
f 189/282/193 188/278/191 174/284/72
f 18/38/29 17/121/25 77/285/20
f 88/266/100 89/286/99 87/267/185
f 37/276/47 184/275/189 38/287/60
f 190/288/194 191/289/195 179/290/192
f 16/291/21 19/292/27 197/293/196
f 7/294/8 191/295/195 190/296/194
f 8/297/9 193/298/197 191/295/195
f 230/299/198 75/300/199 10/301/16
f 190/296/194 1/302/14 5/303/13
f 327/175/132 66/156/75 324/304/200
f 8/305/9 11/306/18 194/307/201
f 11/306/18 13/308/202 195/309/203
f 219/310/204 24/311/35 21/312/30
f 16/291/21 231/313/205 195/309/203
f 201/314/206 222/315/207 223/316/208
f 191/289/195 193/317/197 180/318/4
f 19/292/27 22/319/209 198/320/210
f 18/321/29 232/322/211 21/312/30
f 206/323/212 233/324/213 79/325/34
f 220/326/214 27/327/36 24/311/35
f 25/328/39 199/329/215 198/320/210
f 41/111/40 43/330/216 233/331/213
f 207/332/217 210/333/218 205/334/219
f 33/335/45 36/336/61 203/337/220
f 211/338/221 214/339/222 210/333/218
f 209/340/223 208/341/224 200/342/225
f 200/342/225 208/341/224 207/343/217
f 210/333/218 209/344/223 204/345/226
f 214/346/222 218/347/227 217/348/228
f 212/349/229 211/350/221 207/343/217
f 214/339/222 213/351/230 209/344/223
f 209/340/223 213/352/230 212/349/229
f 213/353/230 217/348/228 216/354/231
f 215/355/232 218/347/227 214/346/222
f 212/356/229 216/354/231 215/355/232
f 227/357/233 70/358/68 69/359/85
f 236/360/234 87/361/185 89/362/99
f 81/363/65 234/364/235 233/331/213
f 187/84/66 70/86/68 227/365/233
f 236/360/234 265/366/236 264/367/237
f 28/368/74 31/369/92 205/334/219
f 204/345/226 200/370/225 199/329/215
f 175/371/73 33/335/45 202/372/238
f 175/371/73 321/373/239 322/374/240
f 196/375/241 197/376/196 232/322/211
f 200/342/225 221/377/242 220/326/214
f 199/378/215 220/326/214 219/310/204
f 200/342/225 201/314/206 221/377/242
f 185/100/79 186/277/190 225/379/243
f 223/316/208 63/380/83 30/381/82
f 228/382/244 69/359/85 65/383/84
f 225/384/243 227/357/233 228/382/244
f 222/315/207 225/384/243 226/385/245
f 226/385/245 65/383/84 63/380/83
f 186/277/190 187/84/66 227/365/233
f 190/288/194 178/386/90 1/387/14
f 192/388/246 229/389/63 2/390/91
f 221/377/242 230/391/198 220/326/214
f 30/381/82 75/392/199 230/391/198
f 230/393/198 192/388/246 15/394/19
f 198/395/210 219/310/204 232/322/211
f 31/369/92 322/374/240 205/334/219
f 233/324/213 234/396/235 83/397/69
f 267/398/247 271/399/248 270/400/249
f 273/401/250 277/402/251 274/403/252
f 261/404/253 259/405/254 240/270/131
f 238/172/129 239/271/186 241/406/130
f 240/270/131 251/407/255 245/408/256
f 259/405/254 256/409/257 240/270/131
f 241/173/130 246/410/258 245/411/256
f 245/408/256 243/412/259 239/271/186
f 246/410/258 242/413/260 244/414/261
f 240/270/131 262/415/262 251/407/255
f 258/416/263 263/417/264 240/270/131
f 244/418/261 247/419/265 243/412/259
f 247/419/265 242/420/260 246/421/258
f 103/422/266 66/423/75 114/133/101
f 240/270/131 263/417/264 260/424/267
f 247/419/265 248/425/268 242/420/260
f 242/413/260 248/426/268 244/414/261
f 244/418/261 248/425/268 247/419/265
f 243/412/259 246/421/258 241/406/130
f 245/408/256 251/407/255 244/418/261
f 244/418/261 251/407/255 248/425/268
f 251/407/255 262/415/262 252/427/269
f 255/428/270 254/429/271 263/417/264
f 263/417/264 254/429/271 253/430/272
f 257/431/273 256/409/257 259/405/254
f 262/415/262 260/424/267 253/430/272
f 257/431/273 259/405/254 261/404/253
f 255/428/270 258/416/263 256/409/257
f 66/432/75 93/134/102 114/133/101
f 81/363/65 84/433/128 234/364/235
f 256/409/257 258/416/263 240/270/131
f 240/270/131 260/424/267 262/415/262
f 229/389/63 238/434/129 237/435/122
f 230/391/198 74/436/77 27/327/36
f 231/437/205 18/321/29 195/438/203
f 271/399/248 268/439/274 269/440/275
f 235/441/276 266/442/277 265/443/236
f 236/444/234 89/131/99 86/130/70
f 270/400/249 269/440/275 265/445/236
f 84/446/128 267/398/247 234/447/235
f 264/448/237 268/449/274 271/399/248
f 272/450/278 276/451/279 277/402/251
f 274/452/252 275/453/280 264/367/237
f 273/401/250 269/440/275 268/439/274
f 269/440/275 273/401/250 265/454/236
f 264/455/237 275/456/280 276/451/279
f 284/457/281 282/458/282 276/459/279
f 264/455/237 272/450/278 268/439/274
f 279/460/283 281/461/284 280/462/285
f 280/463/285 281/464/284 276/451/279
f 278/465/286 280/462/285 275/453/280
f 277/402/251 279/466/283 278/467/286
f 283/468/287 287/469/288 289/470/289
f 282/458/282 283/468/287 277/402/251
f 277/402/251 283/468/287 285/471/290
f 279/460/283 285/472/290 284/473/281
f 286/474/291 294/475/292 287/469/288
f 286/474/291 287/469/288 283/468/287
f 288/476/293 286/474/291 282/458/282
f 285/472/290 289/477/289 288/478/293
f 308/479/294 305/480/295 295/481/296
f 292/482/297 290/483/298 286/474/291
f 288/484/293 295/481/296 292/485/297
f 287/469/288 291/486/299 293/487/300
f 296/488/301 297/489/302 290/483/298
f 293/490/300 295/481/296 289/491/289
f 314/492/303 315/493/304 289/491/289
f 287/469/288 294/475/292 291/486/299
f 290/483/298 294/475/292 286/474/291
f 303/494/305 300/495/306 296/496/301
f 294/475/292 298/497/307 299/498/308
f 297/489/302 298/497/307 294/475/292
f 299/499/308 296/496/301 292/485/297
f 307/500/309 309/501/310 311/502/311
f 300/503/306 301/504/312 297/489/302
f 298/497/307 302/505/313 303/506/305
f 301/504/312 302/505/313 298/497/307
f 294/475/292 307/500/309 306/507/314
f 291/486/299 306/507/314 308/508/294
f 305/509/295 307/500/309 294/475/292
f 310/510/315 309/501/310 307/500/309
f 303/494/305 304/511/316 300/495/306
f 300/503/306 304/512/316 301/504/312
f 302/505/313 304/512/316 303/506/305
f 301/504/312 304/512/316 302/505/313
f 306/507/314 311/502/311 312/513/317
f 312/514/317 310/515/315 305/480/295
f 289/477/289 315/516/304 316/517/318
f 288/484/293 316/518/318 314/492/303
f 318/519/319 319/520/320 316/517/318
f 312/514/317 313/521/321 310/515/315
f 310/510/315 313/522/321 309/501/310
f 309/501/310 313/522/321 311/502/311
f 311/502/311 313/522/321 312/513/317
f 316/518/318 319/523/320 317/524/322
f 314/492/303 317/524/322 318/525/319
f 318/519/319 320/526/323 319/520/320
f 319/523/320 320/527/323 317/524/322
f 317/524/322 320/527/323 318/525/319
f 57/79/12 229/81/63 192/528/246
f 234/529/235 267/530/247 266/442/277
f 205/334/219 322/374/240 201/531/206
f 322/374/240 321/373/239 201/531/206
f 217/348/228 323/532/324 216/354/231
f 216/354/231 323/532/324 215/355/232
f 215/355/232 323/532/324 218/347/227
f 218/347/227 323/532/324 217/348/228
f 203/533/220 184/275/189 183/274/188
f 202/534/238 183/274/188 188/278/191
f 181/535/1 194/536/201 195/438/203
f 194/536/201 181/535/1 180/318/4
f 189/282/193 185/100/79 222/537/207
f 321/538/239 188/278/191 189/282/193
f 203/337/220 36/336/61 38/539/60
f 264/448/237 267/398/247 84/446/128
f 203/533/220 38/287/60 184/275/189
f 234/396/235 235/540/276 86/541/70
f 224/164/123 206/542/212 58/543/33
f 91/136/104 92/145/110 93/134/102
f 2/119/91 56/95/76 90/177/105
f 90/177/105 66/544/75 93/143/102
f 2/390/91 237/545/122 56/162/76
f 66/156/75 73/13/11 91/136/104
f 56/95/76 66/546/75 90/177/105
f 224/547/123 261/404/253 240/270/131
f 250/548/325 261/404/253 224/549/123
f 229/81/63 249/80/62 224/171/123
f 249/80/62 35/110/88 326/550/326
f 35/110/88 249/80/62 57/79/12
f 66/156/75 42/50/32 324/304/200
f 42/50/32 41/49/40 324/304/200
f 41/49/40 35/169/88 324/304/200
f 41/111/40 206/551/212 325/112/89
f 206/551/212 224/171/123 325/112/89
f 326/550/326 35/110/88 325/112/89
f 224/171/123 249/80/62 326/550/326
f 224/171/123 326/550/326 325/112/89
f 35/169/88 327/175/132 324/304/200
f 327/175/132 35/169/88 102/157/119
f 12/281/17 181/1/1 14/3/3
f 179/280/192 180/4/4 4/6/6
f 5/15/13 3/7/7 7/9/8
f 7/9/8 4/8/6 8/11/9
f 10/18/16 6/12/10 57/14/12
f 75/552/199 76/17/15 10/18/16
f 11/553/18 8/19/9 12/20/17
f 13/554/202 11/21/18 14/23/3
f 74/555/77 15/24/19 76/26/15
f 16/29/21 13/556/202 14/27/3
f 77/28/20 17/557/25 16/29/21
f 62/113/80 32/30/22 64/32/24
f 19/36/27 16/33/21 20/35/26
f 22/558/209 19/36/27 23/37/28
f 80/123/41 42/41/32 79/43/34
f 59/98/78 24/44/35 60/46/37
f 22/558/209 23/37/28 25/48/39
f 43/559/216 41/49/40 80/51/41
f 32/272/22 40/52/42 44/54/44
f 36/78/61 33/55/45 37/57/47
f 44/54/44 47/53/43 48/59/49
f 39/560/53 29/60/50 46/62/52
f 45/61/51 29/60/50 44/63/44
f 40/52/42 39/64/53 47/53/43
f 55/74/58 51/66/48 54/68/55
f 45/61/51 44/63/44 49/70/56
f 47/53/43 46/65/52 51/58/48
f 50/561/54 46/62/52 49/70/56
f 54/68/55 50/67/54 53/73/57
f 48/76/49 51/66/48 52/75/59
f 53/73/57 49/72/56 52/75/59
f 43/559/216 80/51/41 81/83/65
f 85/562/135 82/87/64 86/89/70
f 31/122/92 176/90/71 175/92/73
f 31/122/92 28/93/74 40/52/42
f 28/93/74 25/48/39 39/64/53
f 26/47/38 29/563/50 39/64/53
f 33/55/45 175/92/73 34/56/46
f 42/564/32 66/94/75 58/42/33
f 60/46/37 27/45/36 76/97/15
f 26/99/38 60/46/37 29/60/50
f 23/120/28 59/98/78 26/99/38
f 186/277/190 185/100/79 67/102/81
f 61/31/23 30/103/82 64/32/24
f 68/109/87 65/105/84 72/107/86
f 71/115/67 67/108/81 72/107/86
f 67/108/81 62/113/80 68/109/87
f 64/32/24 63/104/83 68/109/87
f 72/107/86 69/106/85 71/115/67
f 73/176/11 6/25/10 2/119/91
f 75/565/199 30/103/82 76/97/15
f 78/40/31 21/39/30 59/98/78
f 20/566/26 78/40/31 23/120/28
f 20/566/26 17/121/25 78/40/31
f 82/87/64 80/123/41 83/88/69
f 124/178/133 120/124/93 123/126/95
f 130/188/138 126/127/96 127/129/98
f 85/567/135 86/130/70 88/132/100
f 92/145/110 91/136/104 94/138/106
f 99/147/112 94/142/106 98/144/107
f 93/134/102 92/145/110 98/139/107
f 95/160/118 99/147/112 97/148/113
f 98/139/107 96/146/111 97/153/113
f 96/146/111 99/154/112 100/152/117
f 92/145/110 94/138/106 96/146/111
f 107/568/327 108/166/125 116/151/116
f 107/568/327 116/151/116 106/167/126
f 113/158/120 115/149/114 106/167/126
f 103/569/266 114/133/101 110/168/127
f 224/570/123 237/163/122 240/174/131
f 91/571/104 73/176/11 90/177/105
f 121/192/140 124/178/133 122/179/134
f 119/269/94 85/180/135 118/182/97
f 119/125/94 118/185/97 123/126/95
f 87/572/185 84/183/128 117/186/136
f 121/192/140 117/186/136 124/178/133
f 129/194/141 125/187/137 130/188/138
f 118/573/97 117/189/136 127/191/98
f 122/179/134 126/127/96 121/192/140
f 128/574/139 117/193/136 129/194/141
f 134/575/145 129/194/141 137/196/143
f 131/202/147 133/197/144 132/199/146
f 128/574/139 129/194/141 133/201/144
f 127/191/98 128/190/139 131/202/147
f 132/576/146 130/188/138 131/203/147
f 140/211/152 136/204/148 142/206/150
f 129/194/141 130/207/138 135/195/142
f 136/204/148 130/207/138 138/205/149
f 138/214/149 132/199/146 137/209/143
f 135/195/142 136/204/148 139/210/151
f 137/196/143 135/195/142 141/213/154
f 142/254/150 138/214/149 141/215/154
f 146/226/160 148/216/155 161/218/157
f 141/213/154 139/210/151 145/220/159
f 144/230/165 140/211/152 146/223/160
f 145/220/159 143/219/158 149/225/162
f 148/216/155 142/227/150 167/229/164
f 152/237/168 149/231/162 156/233/167
f 151/236/169 147/212/153 152/235/168
f 143/219/158 147/212/153 150/224/161
f 148/216/155 145/222/159 152/237/168
f 162/247/175 160/238/170 164/240/172
f 149/225/162 150/224/161 153/242/166
f 155/244/174 151/236/169 156/243/167
f 150/224/161 151/236/169 154/241/173
f 160/238/170 147/212/153 159/239/171
f 159/239/171 144/230/165 161/245/157
f 148/234/155 147/212/153 158/246/156
f 158/246/156 160/238/170 163/248/176
f 164/240/172 159/239/171 165/251/178
f 161/218/157 158/217/156 165/253/178
f 168/577/163 142/254/150 169/255/179
f 169/260/179 141/221/154 167/229/164
f 168/577/163 169/255/179 171/257/181
f 172/264/180 169/260/179 170/261/183
f 170/261/183 167/229/164 171/262/181
f 118/573/97 88/266/100 117/189/136
f 120/578/93 82/268/64 119/269/94
f 224/171/123 240/270/131 238/172/129
f 34/279/46 183/274/188 37/276/47
f 67/102/81 71/85/67 186/277/190
f 174/284/72 188/278/191 34/279/46
f 4/6/6 3/116/7 179/280/192
f 9/5/5 180/4/4 12/281/17
f 185/100/79 189/282/193 62/101/80
f 32/283/22 189/282/193 174/284/72
f 77/285/20 14/3/3 18/38/29
f 182/2/2 18/38/29 14/3/3
f 178/386/90 190/288/194 179/290/192
f 196/579/241 16/291/21 197/293/196
f 5/303/13 7/294/8 190/296/194
f 7/294/8 8/297/9 191/295/195
f 192/528/246 230/299/198 10/301/16
f 193/298/197 8/305/9 194/307/201
f 194/307/201 11/306/18 195/309/203
f 232/322/211 219/310/204 21/312/30
f 195/309/203 13/308/202 16/291/21
f 16/291/21 196/579/241 231/313/205
f 221/377/242 201/314/206 223/316/208
f 179/290/192 191/289/195 180/318/4
f 197/293/196 19/292/27 198/320/210
f 58/543/33 206/323/212 79/325/34
f 219/310/204 220/326/214 24/311/35
f 22/319/209 25/328/39 198/320/210
f 206/551/212 41/111/40 233/331/213
f 201/531/206 207/332/217 205/334/219
f 202/372/238 33/335/45 203/337/220
f 207/332/217 211/338/221 210/333/218
f 204/580/226 209/340/223 200/342/225
f 201/314/206 200/342/225 207/343/217
f 205/334/219 210/333/218 204/345/226
f 213/353/230 214/346/222 217/348/228
f 208/341/224 212/349/229 207/343/217
f 210/333/218 214/339/222 209/344/223
f 208/341/224 209/340/223 212/349/229
f 212/356/229 213/353/230 216/354/231
f 211/581/221 215/355/232 214/346/222
f 211/581/221 212/356/229 215/355/232
f 228/382/244 227/357/233 69/359/85
f 43/330/216 81/363/65 233/331/213
f 87/361/185 236/360/234 264/367/237
f 204/345/226 28/368/74 205/334/219
f 199/329/215 25/328/39 204/345/226
f 28/368/74 204/345/226 25/328/39
f 321/373/239 175/371/73 202/372/238
f 31/369/92 175/371/73 322/374/240
f 18/321/29 196/375/241 232/322/211
f 199/378/215 200/342/225 220/326/214
f 198/395/210 199/378/215 219/310/204
f 222/537/207 185/100/79 225/379/243
f 221/377/242 223/316/208 30/381/82
f 226/385/245 228/382/244 65/383/84
f 226/385/245 225/384/243 228/382/244
f 223/316/208 222/315/207 226/385/245
f 223/316/208 226/385/245 63/380/83
f 225/379/243 186/277/190 227/365/233
f 15/394/19 192/388/246 2/390/91
f 221/377/242 30/381/82 230/391/198
f 74/582/77 230/393/198 15/394/19
f 197/376/196 198/395/210 232/322/211
f 79/325/34 233/324/213 83/397/69
f 266/583/277 267/398/247 270/400/249
f 265/454/236 273/401/250 274/403/252
f 237/584/122 238/172/129 241/406/130
f 240/174/131 241/173/130 245/411/256
f 240/270/131 245/408/256 239/271/186
f 245/411/256 246/410/258 244/414/261
f 245/408/256 244/418/261 243/412/259
f 243/412/259 247/419/265 246/421/258
f 239/271/186 243/412/259 241/406/130
f 258/416/263 255/428/270 263/417/264
f 260/424/267 263/417/264 253/430/272
f 252/427/269 262/415/262 253/430/272
f 250/548/325 257/431/273 261/404/253
f 2/390/91 229/389/63 237/435/122
f 220/326/214 230/391/198 27/327/36
f 182/585/2 195/438/203 18/321/29
f 231/437/205 196/375/241 18/321/29
f 270/400/249 271/399/248 269/440/275
f 236/586/234 235/441/276 265/443/236
f 235/587/276 236/444/234 86/130/70
f 266/583/277 270/400/249 265/445/236
f 267/398/247 264/448/237 271/399/248
f 273/401/250 272/450/278 277/402/251
f 265/366/236 274/452/252 264/367/237
f 272/450/278 273/401/250 268/439/274
f 272/450/278 264/455/237 276/451/279
f 281/588/284 284/457/281 276/459/279
f 278/465/286 279/460/283 280/462/285
f 275/456/280 280/463/285 276/451/279
f 274/452/252 278/465/286 275/453/280
f 274/403/252 277/402/251 278/467/286
f 285/471/290 283/468/287 289/470/289
f 276/459/279 282/458/282 277/402/251
f 279/589/283 277/402/251 285/471/290
f 281/461/284 279/460/283 284/473/281
f 282/458/282 286/474/291 283/468/287
f 284/457/281 288/476/293 282/458/282
f 284/473/281 285/472/290 288/478/293
f 293/490/300 308/479/294 295/481/296
f 288/476/293 292/482/297 286/474/291
f 289/470/289 287/469/288 293/487/300
f 292/482/297 296/488/301 290/483/298
f 295/481/296 314/492/303 289/491/289
f 299/499/308 303/494/305 296/496/301
f 295/590/296 294/475/292 299/498/308
f 290/483/298 297/489/302 294/475/292
f 295/481/296 299/499/308 292/485/297
f 306/507/314 307/500/309 311/502/311
f 296/488/301 300/503/306 297/489/302
f 299/498/308 298/497/307 303/506/305
f 297/489/302 301/504/312 298/497/307
f 291/486/299 294/475/292 306/507/314
f 293/487/300 291/486/299 308/508/294
f 295/590/296 305/509/295 294/475/292
f 305/509/295 310/510/315 307/500/309
f 308/508/294 306/507/314 312/513/317
f 308/479/294 312/514/317 305/480/295
f 288/478/293 289/477/289 316/517/318
f 295/481/296 288/484/293 314/492/303
f 315/516/304 318/519/319 316/517/318
f 314/492/303 316/518/318 317/524/322
f 315/493/304 314/492/303 318/525/319
f 10/301/16 57/79/12 192/528/246
f 235/441/276 234/529/235 266/442/277
f 202/534/238 203/533/220 183/274/188
f 321/538/239 202/534/238 188/278/191
f 182/585/2 181/535/1 195/438/203
f 193/317/197 194/536/201 180/318/4
f 201/591/206 189/282/193 222/537/207
f 201/591/206 321/538/239 189/282/193
f 87/592/185 264/448/237 84/446/128
f 83/397/69 234/396/235 86/541/70
f 56/162/76 224/164/123 58/543/33
f 66/156/75 91/136/104 93/134/102
f 94/142/106 90/177/105 93/143/102
