v -0.124672 0.283865 -0.296304
v -0.335412 0.460324 -0.283809
v -0.088328 0.290979 -0.405076
v -0.237442 0.518879 -0.492071
v -0.000584 0.326566 -0.474939
v 0.002498 0.534504 -0.616035
v 0.087160 0.361589 -0.498477
v 0.238912 0.607037 -0.489171
v 0.123504 0.315675 -0.409684
v 0.339999 0.492216 -0.316606
v 0.087160 0.280024 -0.245010
v 0.240195 0.492059 -0.077650
v -0.000584 0.303700 -0.137989
v 0.002304 0.527084 0.059190
v -0.088328 0.307032 -0.147139
v -0.236536 0.545563 -0.065815
v -0.330393 0.597666 -0.286526
v -0.231946 0.571779 -0.502574
v -0.001096 0.605307 -0.589513
v 0.227196 0.658816 -0.484423
v 0.311598 0.670385 -0.270188
v 0.208767 0.701625 -0.049884
v -0.022307 0.704137 0.031752
v -0.244786 0.656363 -0.067988
v -0.315444 0.683926 -0.301447
v -0.223143 0.669846 -0.494161
v -0.017974 0.704419 -0.566612
v 0.180443 0.753265 -0.472421
v 0.251659 0.786020 -0.278906
v 0.158284 0.804420 -0.085718
v -0.045812 0.784786 -0.011439
v -0.242878 0.733183 -0.100553
v -0.247015 0.943057 -0.233085
v -0.199560 0.974158 -0.329641
v -0.092084 1.007245 -0.357363
v 0.010282 1.022951 -0.308874
v 0.051614 1.012045 -0.221335
v 0.010838 0.980893 -0.132088
v -0.093530 0.947783 -0.096445
v -0.200678 0.932113 -0.137437
v -0.272902 1.112439 -0.186353
v -0.230956 1.139230 -0.235960
v -0.142660 1.166995 -0.241929
v -0.060020 1.179504 -0.200999
v -0.031129 1.169467 -0.138429
v -0.073336 1.142727 -0.089720
v -0.162345 1.114927 -0.083864
v -0.244247 1.102368 -0.123682
v -0.311188 1.207308 -0.122858
v -0.276659 1.248797 -0.148107
v -0.191669 1.282853 -0.143264
v -0.106065 1.289668 -0.111219
v -0.069989 1.265425 -0.070781
v -0.104474 1.224108 -0.045554
v -0.189350 1.189914 -0.050327
v -0.275010 1.182912 -0.082350
v -0.327842 1.208797 -0.047275
v -0.304597 1.261868 -0.033538
v -0.224002 1.300942 -0.012556
v -0.134112 1.303146 0.003211
v -0.086700 1.267234 0.004712
v -0.109922 1.214222 -0.009019
v -0.190135 1.175156 -0.029923
v -0.280435 1.172898 -0.045778
v -0.285044 1.212159 0.043396
v -0.272216 1.240039 0.050743
v -0.227958 1.259555 0.062170
v -0.182169 1.259051 0.070147
v -0.157859 1.240006 0.070802
v -0.170507 1.212756 0.063492
v -0.212750 1.192997 0.052490
v -0.260393 1.192607 0.044124
v -0.333760 1.205425 0.127754
v -0.318245 1.252237 0.151968
v -0.250859 1.274980 0.175152
v -0.178326 1.260282 0.182166
v -0.148216 1.216985 0.167795
v -0.164430 1.170600 0.143423
v -0.232383 1.147381 0.120120
v -0.304144 1.161653 0.113275
v -0.287349 1.151116 0.206242
v -0.282920 1.151213 0.232923
v -0.261830 1.157521 0.248105
v -0.235973 1.152933 0.243052
v -0.220957 1.153517 0.220568
v -0.225386 1.153437 0.193887
v -0.246667 1.152727 0.178638
v -0.272335 1.151777 0.183754
v -0.301572 1.101099 0.202363
v -0.297175 1.103908 0.253056
v -0.267078 1.109847 0.280136
v -0.230159 1.106409 0.267513
v -0.205094 1.104697 0.223175
v -0.204978 1.106512 0.173434
v -0.237938 1.106038 0.145710
v -0.279333 1.103746 0.157392
v -0.301148 1.041314 0.194626
v -0.296016 1.039604 0.245499
v -0.263451 1.035606 0.273160
v -0.221646 1.042528 0.261543
v -0.195995 1.045256 0.217313
v -0.201213 1.046864 0.166422
v -0.234174 1.046375 0.138697
v -0.275568 1.044076 0.150380
v -0.258884 0.995579 0.203966
v -0.259393 0.994394 0.222924
v -0.251785 0.988199 0.232489
v -0.242759 0.996024 0.226506
v -0.234174 1.001297 0.206756
v -0.234590 0.997236 0.190143
v -0.241473 0.997232 0.180761
v -0.251480 0.996578 0.186499
v -0.272886 0.941687 0.196282
v -0.270100 0.941754 0.239654
v -0.253892 0.947765 0.259726
v -0.232443 0.956979 0.247823
v -0.215481 0.962125 0.208551
v -0.216663 0.960221 0.165406
v -0.232951 0.954084 0.144156
v -0.256432 0.946365 0.156904
v -0.236717 0.895693 0.214608
v -0.234683 0.898180 0.234668
v -0.221677 0.903973 0.245575
v -0.205319 0.909679 0.240938
v -0.195190 0.911954 0.223474
v -0.197236 0.909473 0.203411
v -0.195355 0.864605 0.195892
v -0.226595 0.897946 0.197143
v -0.331464 0.714926 0.184184
v -0.296186 0.705633 0.310196
v -0.218527 0.777512 0.388399
v -0.063223 0.799987 0.359882
v -0.001985 0.848206 0.254459
v -0.025811 0.828180 0.131049
v -0.133383 0.755307 0.113677
v -0.258381 0.733787 0.079481
v -0.315628 0.551234 0.168860
v -0.298783 0.570232 0.286429
v -0.126169 0.618003 0.426583
v 0.044740 0.730085 0.336956
v 0.098611 0.722484 0.260883
v 0.058157 0.682327 0.133340
v -0.083387 0.626667 0.124093
v -0.217040 0.569995 0.072687
v -0.229359 0.482309 0.202929
v -0.197345 0.493013 0.296098
v -0.090691 0.513409 0.374045
v 0.019698 0.581607 0.342385
v 0.078145 0.611604 0.268483
v 0.036790 0.592862 0.185504
v -0.064525 0.554297 0.169951
v -0.161950 0.512887 0.143115
v -0.049412 0.483920 0.246236
v 0.073259 0.525686 0.321384
v -0.182339 0.420843 0.265653
v -0.150982 0.365225 0.261448
v 0.119503 0.536545 0.290149
v -0.219042 0.372043 0.213510
v 0.070887 0.523909 0.272849
v -0.147521 0.350409 0.218470
v -0.201351 0.325978 0.271913
v -0.196701 0.306072 0.214169
v -0.177025 0.349274 0.277335
v -0.171253 0.324567 0.205666
v -0.069776 0.361533 0.319623
v -0.054309 0.324583 0.197481
v -0.207531 0.242378 0.326071
v -0.182304 0.220406 0.212633
v -0.138861 0.321332 0.366178
v -0.122322 0.250524 0.160784
v 0.000011 0.284766 0.352002
v 0.014726 0.245807 0.229849
v -0.129875 0.154286 0.361856
v -0.120234 0.162169 0.244158
v -0.070370 0.245198 0.392590
v -0.076394 0.223700 0.189065
v -0.029174 0.173479 0.311234
v 0.016923 0.403120 0.268630
v -0.053284 0.376238 0.248681
v -0.037836 0.390156 0.213419
v -0.017681 0.395240 0.258720
v -0.063115 0.466224 0.214724
v 0.087015 0.480020 0.306896
v 0.168532 0.483674 0.296688
v 0.145379 0.488964 0.335384
v 0.112183 0.476481 0.275821
v 0.111877 0.486584 0.333854
v 0.147591 0.478425 0.274165
v 0.022374 0.420255 0.329038
v 0.238035 0.409966 0.288872
v 0.190670 0.429696 0.397690
v 0.079307 0.403025 0.224635
v 0.086434 0.428782 0.392720
v 0.190263 0.401804 0.232107
v 0.019353 0.303608 0.346895
v 0.240286 0.292540 0.308107
v 0.183619 0.316274 0.416765
v 0.076405 0.285611 0.242641
v 0.074981 0.301456 0.431284
v 0.188438 0.283677 0.245591
v 0.129119 0.239857 0.342554
v -0.088636 0.464234 0.162214
v -0.105698 0.445565 0.202913
v -0.015431 0.480988 0.227785
v 0.025211 0.509487 0.189288
v 0.029691 0.506104 0.234621
v 0.051885 0.427102 0.234933
v 0.055350 0.427505 0.274103
v 0.061982 0.260612 0.382203
v 0.012175 0.268332 0.367983
v 0.033122 0.258842 0.345703
v 0.027054 0.275737 0.372871
v 0.086306 0.277749 0.358723
v 0.080711 0.282572 0.384264
v 0.117781 0.157977 0.371745
v 0.083870 0.151312 0.361705
v 0.089937 0.167673 0.339393
v 0.099889 0.156875 0.366364
v 0.137743 0.182868 0.351223
v 0.133815 0.173610 0.374427
v -0.235980 0.737210 0.374805
v -0.133144 0.796262 0.364078
v -0.242717 0.564065 0.375497
v -0.103821 0.662918 0.444694
v -0.030943 0.749984 0.384147
v -0.180316 0.716179 0.427719
v -0.284998 0.639946 0.340999
v -0.119263 0.702547 0.421333
v -0.226700 0.675637 0.396969
v -0.142137 0.613735 0.591862
v -0.286899 0.610061 0.538332
v -0.029547 0.696208 0.465403
v -0.138082 0.839537 0.494941
v -0.156709 0.764093 0.375583
v -0.193500 0.631335 0.445422
v -0.304192 0.746722 0.584984
v -0.292029 0.703006 0.440446
v 0.114663 0.284395 -0.115697
v 0.216736 0.411156 -0.045926
v 0.074292 0.288898 -0.070365
v 0.146159 0.404001 0.038175
v 0.201742 0.352614 -0.124858
v 0.073119 0.345400 0.028599
v -0.079299 0.343017 0.005604
v -0.148619 0.497048 0.079934
v -0.126999 0.328988 -0.033580
v -0.236772 0.482806 -0.013324
v -0.079511 0.425237 0.075989
v -0.217097 0.400843 -0.058377
v 0.164914 0.214494 -0.134188
v 0.288502 0.375433 -0.025661
v 0.105584 0.212215 -0.075600
v 0.210305 0.372569 0.086721
v 0.280493 0.312799 -0.127636
v 0.103862 0.284077 0.068163
v -0.106026 0.273648 0.037854
v -0.208022 0.506755 0.149180
v -0.172971 0.264638 -0.012567
v -0.320861 0.471424 0.024017
v -0.106339 0.399558 0.144107
v -0.296143 0.362851 -0.034986
v 0.184745 0.151236 -0.088424
v 0.313168 0.309849 0.025206
v 0.125416 0.148957 -0.029836
v 0.230136 0.301070 0.114219
v 0.302160 0.249551 -0.091339
v 0.136086 0.217060 0.102404
v -0.126623 0.257814 0.095609
v -0.222785 0.460935 0.195721
v -0.185105 0.233710 0.062228
v -0.342019 0.428201 0.095563
v -0.139995 0.352070 0.197703
v -0.309221 0.319175 0.022574
v 0.192605 0.150290 -0.024359
v 0.255771 0.227592 0.019338
v 0.167245 0.149316 0.000684
v 0.212007 0.215856 0.069481
v 0.236547 0.188112 -0.016286
v 0.165335 0.173550 0.062181
v -0.198325 0.265153 0.153705
v -0.244915 0.379221 0.191939
v -0.228288 0.256142 0.128871
v -0.298152 0.356084 0.142730
v -0.196959 0.316105 0.201401
v -0.273134 0.301246 0.126531
v 0.256114 0.136359 0.024633
v 0.273705 0.205555 0.053357
v 0.220302 0.114093 0.033117
v 0.243473 0.202462 0.097684
v 0.277138 0.173123 0.031602
v 0.185048 0.160074 0.081262
v -0.232496 0.255213 0.205192
v -0.267693 0.365660 0.238403
v -0.275778 0.255667 0.163177
v -0.309088 0.354596 0.190323
v -0.195329 0.306007 0.239433
v -0.284870 0.270450 0.185581
v 0.229682 0.003972 0.063315
v 0.295040 0.164915 0.091912
v 0.261327 0.155891 0.132231
v 0.311426 0.088529 0.093818
v 0.243689 0.075333 0.136986
v -0.182737 0.178405 0.243274
v -0.281732 0.342717 0.269330
v -0.313829 0.334994 0.236728
v -0.248574 0.265249 0.298972
v -0.279844 0.254524 0.240231
v -0.115835 0.255831 -0.325380
v -0.210567 0.349491 -0.336953
v -0.090881 0.261534 -0.395510
v -0.173652 0.371670 -0.418422
v 0.119817 0.366845 -0.506944
v 0.207371 0.465487 -0.471216
v 0.143987 0.333999 -0.449856
v 0.232352 0.430854 -0.429745
v -0.173555 0.297796 -0.305576
v -0.121912 0.322434 -0.428244
v 0.151370 0.432466 -0.508823
v 0.200457 0.365792 -0.417267
v -0.125302 0.190332 -0.322244
v -0.300234 0.364669 -0.338212
v -0.079222 0.201279 -0.434534
v -0.225497 0.388776 -0.465617
v 0.082357 0.305547 -0.586201
v 0.256352 0.484165 -0.514910
v 0.131115 0.245786 -0.484787
v 0.306903 0.436482 -0.438164
v -0.231889 0.267545 -0.286773
v -0.136524 0.313736 -0.494981
v 0.146007 0.438165 -0.590204
v 0.242356 0.308951 -0.423826
v -0.171556 0.137904 -0.376478
v -0.334171 0.285925 -0.384241
v -0.125349 0.142832 -0.480122
v -0.266004 0.325893 -0.522629
v 0.131450 0.271670 -0.642561
v 0.295286 0.456014 -0.583097
v 0.169523 0.214584 -0.542050
v 0.345837 0.386079 -0.502352
v -0.265825 0.187905 -0.337642
v -0.170460 0.234974 -0.540767
v 0.184941 0.393388 -0.666268
v 0.281290 0.258548 -0.488014
v -0.195246 0.162339 -0.421814
v -0.315859 0.193856 -0.429745
v -0.191937 0.170852 -0.477649
v -0.295985 0.228718 -0.499440
v 0.187426 0.277327 -0.646637
v 0.295352 0.328889 -0.634433
v 0.204901 0.243410 -0.605809
v 0.310228 0.290870 -0.602500
v -0.261241 0.168511 -0.405991
v -0.231161 0.213436 -0.508293
v 0.234471 0.320625 -0.655436
v 0.264483 0.249623 -0.589254
v 0.245708 0.276882 -0.691080
v 0.322311 0.320396 -0.667152
v 0.267068 0.242773 -0.631883
v 0.341886 0.270367 -0.625131
v 0.276772 0.309220 -0.690197
v 0.304297 0.250414 -0.616878
v 0.230629 0.158573 -0.766695
v 0.333249 0.286172 -0.688651
v -0.258265 0.140924 -0.446238
v 0.341482 0.264111 -0.670787
v 0.279588 0.246645 -0.738316
v 0.293684 0.188876 -0.683007
v -0.341100 0.172916 -0.451193
v -0.241033 0.127782 -0.519117
v -0.324320 0.198783 -0.508250
v -0.300773 0.143786 -0.426880
v -0.275663 0.191132 -0.534060
v -0.201346 0.011714 -0.550389
v -0.350060 0.131299 -0.487282
v -0.338837 0.147606 -0.525035
v -0.284283 0.063836 -0.487814
v -0.265779 0.086980 -0.544411
v -0.251196 0.465090 0.194642
v 0.107416 0.623158 0.275194
vt 0.639038 0.667232
vt 0.569494 0.686580
vt 0.595985 0.633488
vt 0.243676 0.116714
vt 0.295031 0.196246
vt 0.213922 0.172681
vt 0.132813 0.196246
vt 0.184167 0.116714
vt 0.732454 0.126028
vt 0.742444 0.126644
vt 0.737801 0.140414
vt 0.724659 0.188247
vt 0.652169 0.194542
vt 0.703271 0.123392
vt 0.668630 0.149577
vt 0.292391 0.216490
vt 0.213922 0.210475
vt 0.661122 0.600269
vt 0.713884 0.673732
vt 0.191799 0.599053
vt 0.222426 0.597912
vt 0.194950 0.590054
vt 0.265739 0.601808
vt 0.253053 0.599053
vt 0.612480 0.261448
vt 0.643935 0.255524
vt 0.656404 0.288865
vt 0.643978 0.721930
vt 0.792014 0.206985
vt 0.795815 0.226921
vt 0.719875 0.241223
vt 0.755197 0.656741
vt 0.754864 0.742813
vt 0.722387 0.736696
vt 0.738596 0.775730
vt 0.706414 0.836129
vt 0.693198 0.839216
vt 0.283840 0.257507
vt 0.213922 0.252975
vt 0.724409 0.278090
vt 0.709512 0.771121
vt 0.639296 0.759995
vt 0.569081 0.748869
vt 0.792414 0.267314
vt 0.135452 0.216490
vt 0.706113 0.897887
vt 0.686785 0.904433
vt 0.144004 0.257507
vt 0.213922 0.364057
vt 0.628235 0.293329
vt 0.672205 0.354816
vt 0.250816 0.361021
vt 0.703109 0.362034
vt 0.661289 0.846668
vt 0.629381 0.854121
vt 0.734012 0.369252
vt 0.244316 0.416941
vt 0.244316 0.455131
vt 0.213922 0.459882
vt 0.667458 0.910979
vt 0.697134 0.424320
vt 0.714118 0.895175
vt 0.177028 0.361021
vt 0.213922 0.419608
vt 0.659404 0.351826
vt 0.659696 0.411640
vt 0.678415 0.417980
vt 0.183528 0.455131
vt 0.213922 0.466072
vt 0.654043 0.450631
vt 0.722939 0.926480
vt 0.711950 0.938145
vt 0.700962 0.949810
vt 0.664685 0.461929
vt 0.727490 0.921649
vt 0.183528 0.416941
vt 0.643400 0.439334
vt 0.638992 0.434654
vt 0.742836 0.960935
vt 0.741602 0.954413
vt 0.767629 0.942661
vt 0.222425 0.924397
vt 0.253711 0.929288
vt 0.253711 0.925685
vt 0.244316 0.459658
vt 0.628209 0.451137
vt 0.735645 0.922921
vt 0.738624 0.938667
vt 0.625324 0.466387
vt 0.734411 0.916399
vt 0.600117 0.455005
vt 0.599489 0.458327
vt 0.560971 0.463246
vt 0.631094 0.435887
vt 0.601634 0.446984
vt 0.764495 0.926099
vt 0.766062 0.934380
vt 0.763847 0.922669
vt 0.624129 0.472704
vt 0.632289 0.429570
vt 0.603152 0.438964
vt 0.247499 0.947751
vt 0.230819 0.911234
vt 0.234293 0.911363
vt 0.577540 0.426830
vt 0.580383 0.420582
vt 0.805112 0.944718
vt 0.808046 0.951170
vt 0.570677 0.441914
vt 0.790939 0.913570
vt 0.798025 0.929144
vt 0.563814 0.456998
vt 0.788004 0.907119
vt 0.529014 0.420025
vt 0.536333 0.419918
vt 0.536037 0.405531
vt 0.222431 0.909688
vt 0.222431 0.911545
vt 0.214044 0.911492
vt 0.222431 0.954282
vt 0.222431 0.913122
vt 0.247499 0.916219
vt 0.230819 0.911492
vt 0.197364 0.947751
vt 0.214044 0.911234
vt 0.255842 0.931985
vt 0.189312 0.931985
vt 0.197364 0.916219
vt 0.210570 0.911363
vt 0.222392 0.895299
vt 0.235677 0.894950
vt 0.235677 0.874126
vt 0.528603 0.421276
vt 0.521484 0.407511
vt 0.535611 0.406811
vt 0.543211 0.421062
vt 0.535907 0.421169
vt 0.543651 0.419810
vt 0.550192 0.406125
vt 0.877696 0.669450
vt 0.877659 0.654169
vt 0.865164 0.653841
vt 0.877696 0.670933
vt 0.877659 0.655218
vt 0.888585 0.653720
vt 0.869806 0.669157
vt 0.866060 0.653720
vt 0.865164 0.634254
vt 0.877659 0.634582
vt 0.877659 0.618379
vt 0.865164 0.632672
vt 0.877659 0.630884
vt 0.521881 0.406232
vt 0.533729 0.388167
vt 0.519181 0.390181
vt 0.533308 0.389481
vt 0.547436 0.388782
vt 0.547885 0.387466
vt 0.527896 0.376025
vt 0.519727 0.363947
vt 0.531910 0.363343
vt 0.877659 0.615331
vt 0.880499 0.617648
vt 0.890154 0.634254
vt 0.880499 0.618253
vt 0.874819 0.617648
vt 0.519574 0.388868
vt 0.533013 0.375806
vt 0.533308 0.375757
vt 0.538720 0.375488
vt 0.539152 0.374147
vt 0.873998 0.602470
vt 0.867323 0.602734
vt 0.872200 0.585784
vt 0.873642 0.617951
vt 0.863752 0.603920
vt 0.544534 0.361373
vt 0.532328 0.361977
vt 0.873853 0.604885
vt 0.866710 0.604602
vt 0.880995 0.603238
vt 0.880995 0.604602
vt 0.528306 0.374684
vt 0.877478 0.585787
vt 0.898503 0.539310
vt 0.882756 0.585784
vt 0.535264 0.345894
vt 0.529678 0.345888
vt 0.529265 0.347286
vt 0.544055 0.362293
vt 0.534840 0.347291
vt 0.540851 0.345899
vt 0.877478 0.572002
vt 0.565849 0.298483
vt 0.552622 0.268791
vt 0.532167 0.307657
vt 0.919529 0.542616
vt 0.835426 0.532297
vt 0.861315 0.533115
vt 0.872283 0.542989
vt 0.497574 0.309103
vt 0.531749 0.309130
vt 0.540416 0.347297
vt 0.877478 0.533538
vt 0.835426 0.542616
vt 0.493801 0.259313
vt 0.527669 0.262903
vt 0.530936 0.234983
vt 0.877478 0.488098
vt 0.827905 0.488113
vt 0.858007 0.512645
vt 0.832727 0.510142
vt 0.841095 0.495950
vt 0.927051 0.488113
vt 0.924620 0.512550
vt 0.894883 0.507510
vt 0.923692 0.493793
vt 0.498484 0.307630
vt 0.492900 0.260881
vt 0.526209 0.264464
vt 0.558593 0.264357
vt 0.565364 0.299974
vt 0.509458 0.237701
vt 0.530521 0.236600
vt 0.546173 0.210174
vt 0.534472 0.211723
vt 0.531070 0.236093
vt 0.877478 0.461902
vt 0.841814 0.461913
vt 0.882913 0.482386
vt 0.877478 0.447126
vt 0.916593 0.456007
vt 0.913142 0.461913
vt 0.838446 0.481065
vt 0.838362 0.456007
vt 0.822160 0.460668
vt 0.805873 0.429698
vt 0.812819 0.459554
vt 0.555502 0.230851
vt 0.532505 0.210339
vt 0.827352 0.434257
vt 0.942469 0.434430
vt 0.955953 0.414902
vt 0.947518 0.414430
vt 0.877478 0.435024
vt 0.509832 0.236087
vt 0.524129 0.209803
vt 0.852022 0.431379
vt 0.932796 0.460668
vt 0.530762 0.194876
vt 0.541148 0.196616
vt 0.815702 0.413679
vt 0.824675 0.413745
vt 0.795775 0.404196
vt 0.807420 0.406117
vt 0.825393 0.383109
vt 0.936292 0.415427
vt 0.952106 0.492162
vt 0.942885 0.461920
vt 0.777572 0.384357
vt 0.782949 0.345534
vt 0.816973 0.357269
vt 0.834989 0.390689
vt 0.812218 0.390892
vt 0.786225 0.403653
vt 0.792021 0.377602
vt 0.791904 0.407389
vt 0.773769 0.378571
vt 0.533691 0.182581
vt 0.522756 0.184315
vt 0.523696 0.210049
vt 0.533322 0.183087
vt 0.521681 0.185988
vt 0.780510 0.350620
vt 0.840283 0.356421
vt 0.830117 0.348451
vt 0.800330 0.360992
vt 0.981402 0.338008
vt 0.972092 0.346949
vt 0.946506 0.325876
vt 0.938436 0.347021
vt 0.915518 0.351209
vt 0.970640 0.344962
vt 0.940207 0.345027
vt 0.947504 0.325907
vt 0.928522 0.342325
vt 0.960257 0.337103
vt 0.925514 0.344033
vt 0.960609 0.338257
vt 0.967231 0.402467
vt 0.984943 0.375834
vt 0.965841 0.376056
vt 0.943685 0.397376
vt 0.948762 0.395631
vt 0.933253 0.376300
vt 0.820377 0.410917
vt 0.946531 0.381722
vt 0.964988 0.371282
vt 0.958745 0.394745
vt 0.962272 0.397253
vt 0.952617 0.397967
vt 0.942283 0.404913
vt 0.920761 0.388530
vt 0.945430 0.387602
vt 0.962838 0.404777
vt 0.978360 0.383069
vt 0.885982 0.430393
vt 0.886362 0.400009
vt 0.901267 0.401557
vt 0.885762 0.347456
vt 0.894493 0.351286
vt 0.930745 0.381606
vt 0.562847 0.142872
vt 0.554739 0.138564
vt 0.510340 0.214315
vt 0.522915 0.210686
vt 0.868042 0.430659
vt 0.857304 0.400751
vt 0.903401 0.432264
vt 0.899606 0.435479
vt 0.524913 0.208145
vt 0.511509 0.212653
vt 0.809684 0.334185
vt 0.868552 0.349863
vt 0.871218 0.354732
vt 0.872052 0.309174
vt 0.886596 0.309430
vt 0.893677 0.311744
vt 0.534452 0.181209
vt 0.555674 0.136784
vt 0.871012 0.400185
vt 0.865522 0.355126
vt 0.563290 0.138015
vt 0.532620 0.183587
vt 0.894716 0.314680
vt 0.866356 0.310274
vt 0.869387 0.314818
vt 0.893882 0.349897
vt 0.557096 0.102961
vt 0.549355 0.107557
vt 0.556040 0.103538
vt 0.811646 0.408898
vt 0.802822 0.408833
vt 0.808535 0.408963
vt 0.798824 0.408411
vt 0.545697 0.196493
vt 0.929198 0.432682
vt 0.940627 0.418054
vt 0.951485 0.417251
vt 0.547307 0.197205
vt 0.529477 0.235614
vt 0.532745 0.209199
vt 0.531479 0.190365
vt 0.548189 0.193726
vt 0.816818 0.492041
vt 0.804599 0.412210
vt 0.919529 0.532297
vt 0.910573 0.549586
vt 0.888295 0.531951
vt 0.878722 0.518710
vt 0.865633 0.493903
vt 0.855461 0.538441
vt 0.844602 0.527541
vt 0.888150 0.478532
vt 0.896176 0.492965
vt 0.941791 0.498803
vt 0.139479 0.638965
vt 0.107561 0.633032
vt 0.150019 0.623116
vt 0.691183 0.122300
vt 0.666808 0.126308
vt 0.612158 0.178086
vt 0.616572 0.160658
vt 0.222425 0.656222
vt 0.248561 0.601419
vt 0.248152 0.616743
vt 0.170725 0.630747
vt 0.185512 0.589344
vt 0.293048 0.626423
vt 0.320536 0.612057
vt 0.280193 0.577769
vt 0.718785 0.639695
vt 0.750252 0.631576
vt 0.692810 0.618517
vt 0.194876 0.607766
vt 0.178300 0.590818
vt 0.185621 0.563314
vt 0.327016 0.639233
vt 0.338697 0.618290
vt 0.331784 0.591272
vt 0.161152 0.564437
vt 0.155999 0.542196
vt 0.109782 0.581446
vt 0.258882 0.599287
vt 0.259484 0.576766
vt 0.266406 0.554526
vt 0.098948 0.612954
vt 0.262653 0.602101
vt 0.146851 0.617526
vt 0.119260 0.601896
vt 0.297752 0.644808
vt 0.273433 0.638005
vt 0.296037 0.630533
vt 0.176898 0.567775
vt 0.144866 0.600875
vt 0.138186 0.570392
vt 0.311907 0.581799
vt 0.142945 0.545310
vt 0.127292 0.560129
vt 0.281006 0.554543
vt 0.280340 0.562785
vt 0.270130 0.577830
vt 0.302959 0.608292
vt 0.179140 0.546825
vt 0.287115 0.555528
vt 0.296631 0.577525
vt 0.307614 0.572751
vt 0.322261 0.576942
vt 0.153404 0.544831
vt 0.154515 0.530596
vt 0.289858 0.554972
vt 0.294966 0.542064
vt 0.282465 0.541459
vt 0.153881 0.554726
vt 0.154449 0.546308
vt 0.118559 0.575555
vt 0.305197 0.568144
vt 0.129191 0.565625
vt 0.114742 0.568606
vt 0.107515 0.558457
vt 0.313846 0.561102
vt 0.325613 0.564394
vt 0.302800 0.497091
vt 0.139745 0.531273
vt 0.319333 0.562744
vt 0.282102 0.555053
vt 0.111848 0.554965
vt 0.322803 0.544818
vt 0.124290 0.554044
vt 0.118706 0.540286
vt 0.299159 0.538287
vt 0.142950 0.529581
vt 0.144803 0.499799
vt 0.303305 0.635725
vt 0.292136 0.616845
vt 0.307224 0.598443
vt 0.149131 0.625384
vt 0.162016 0.632681
vt 0.143919 0.638490
vt 0.748985 0.158477
vt 0.191799 0.604563
vt 0.179112 0.601808
vt 0.182197 0.592427
vt 0.253053 0.604563
vt 0.264452 0.604284
vt 0.272888 0.602452
vt 0.600859 0.605712
vt 0.592765 0.616479
vt 0.761636 0.128663
vt 0.771850 0.147953
vt 0.630991 0.602991
vt 0.630777 0.608062
vt 0.268395 0.569408
vt 0.275465 0.624725
vt 0.294558 0.640679
vt 0.312109 0.640101
vt 0.251376 0.573104
vt 0.264966 0.547612
vt 0.281985 0.543916
vt 0.273593 0.614339
vt 0.325700 0.621031
vt 0.287183 0.588847
vt 0.194977 0.573153
vt 0.183131 0.545505
vt 0.163130 0.584550
vt 0.117832 0.630518
vt 0.141688 0.596465
vt 0.190907 0.594318
vt 0.174975 0.612198
vt 0.162050 0.606943
vt 0.178892 0.569661
vt 0.180076 0.615463
vt 0.329754 0.636529
vt 0.320814 0.572952
vt 0.314947 0.555006
vt 0.330915 0.566038
vt 0.288051 0.555170
vt 0.294150 0.550573
vt 0.325722 0.573259
vt 0.304472 0.567513
vt 0.343344 0.611038
vt 0.167047 0.542013
vt 0.129780 0.616346
vt 0.105987 0.602870
vt 0.129843 0.568817
vt 0.112379 0.570579
vt 0.102345 0.559651
vt 0.126849 0.548385
vt 0.320953 0.541672
vt 0.119315 0.582509
vt 0.141942 0.577144
vt 0.140344 0.568089
vt 0.341965 0.556188
vt 0.335132 0.565690
vt 0.154479 0.559606
vt 0.131443 0.561814
vt 0.160598 0.565223
vt 0.329572 0.518879
vt 0.345666 0.546801
vt 0.285560 0.541887
vt 0.293586 0.535837
vt 0.307168 0.558130
vt 0.315787 0.535337
vt 0.337768 0.553455
vt 0.156458 0.545547
vt 0.303131 0.499768
vt 0.111261 0.574985
vt 0.164323 0.552766
vt 0.119729 0.522043
vt 0.099064 0.545592
vt 0.105735 0.557065
vt 0.133224 0.541748
vt 0.141711 0.503045
vt 0.621897 0.626279
vt 0.213922 0.117822
vt 0.643164 0.167166
vt 0.222426 0.605704
vt 0.565570 0.707163
vt 0.651943 0.409014
vt 0.183528 0.459658
vt 0.768277 0.946091
vt 0.222425 0.919082
vt 0.603780 0.435642
vt 0.222392 0.874474
vt 0.549739 0.407404
vt 0.869806 0.669399
vt 0.885585 0.669157
vt 0.874819 0.618254
vt 0.890154 0.632672
vt 0.520122 0.362582
vt 0.570710 0.280977
vt 0.573340 0.280372
vt 0.802706 0.492161
vt 0.924689 0.432869
vt 0.958937 0.402003
vt 0.924224 0.382561
vt 0.976308 0.377624
vt 0.952160 0.405567
vt 0.857107 0.435481
vt 0.563821 0.134620
vt 0.562358 0.143221
vt 0.550265 0.105564
vt 0.533263 0.194411
vt 0.545379 0.213233
vt 0.653501 0.125655
vt 0.690409 0.592134
vt 0.766021 0.163216
vt 0.604257 0.595592
vt 0.761852 0.128396
vt 0.624945 0.593724
vn -0.927900 -0.372200 0.022800
vn -0.672600 -0.264100 -0.691300
vn -0.505600 0.352100 -0.787600
vn 0.461000 -0.707900 -0.535100
vn -0.010700 -0.089500 -0.995900
vn 0.704100 0.054900 -0.707900
vn 0.052200 -0.698800 -0.713400
vn 0.146500 -0.966300 -0.211400
vn -0.309600 -0.900500 0.305200
vn 0.414200 -0.609200 0.676100
vn 0.955500 -0.286100 -0.071500
vn 0.851600 -0.094200 0.515700
vn 0.193600 -0.975300 -0.106400
vn 0.579200 0.126100 -0.805400
vn -0.658900 0.012600 -0.752100
vn -0.013300 0.272100 -0.962200
vn -0.316400 -0.940600 0.122800
vn -0.846100 -0.002700 0.533000
vn -0.115400 -0.948200 0.295700
vn 0.767000 -0.602500 0.220700
vn -0.037100 0.269300 0.962300
vn 0.647900 0.249400 0.719700
vn 0.571300 0.542700 0.615600
vn -0.995900 0.087900 -0.018400
vn 0.675900 0.309200 -0.669000
vn 0.955100 0.293700 0.038900
vn 0.152500 0.094900 0.983700
vn -0.722800 0.124200 0.679800
vn -0.110500 0.421000 0.900300
vn -0.081800 0.184600 0.979400
vn -0.675300 0.062400 0.734900
vn -0.641500 0.252500 -0.724300
vn -0.031400 0.377800 -0.925300
vn 0.829300 0.556700 -0.047900
vn -0.762000 0.251900 0.596500
vn -0.972100 0.205700 -0.112800
vn 0.554300 0.510300 -0.657500
vn -0.657200 -0.402400 0.637200
vn -0.966400 -0.135500 -0.218100
vn -0.049500 0.570200 -0.819900
vn 0.540600 0.365400 0.757800
vn -0.644900 0.371900 -0.667700
vn 0.808300 0.584600 0.069400
vn -0.993100 0.116600 -0.007400
vn 0.511900 0.653600 -0.557300
vn -0.534300 0.344900 -0.771700
vn -0.553300 0.623200 -0.552600
vn -0.093400 0.850800 -0.517100
vn 0.544400 0.646400 -0.534600
vn -0.131800 -0.292500 0.947100
vn 0.008700 0.606500 -0.795000
vn 0.477400 -0.104500 0.872400
vn 0.909600 0.371300 0.186200
vn 0.387600 0.854900 -0.344800
vn -0.258000 0.954700 0.147900
vn 0.901500 0.407400 0.146100
vn -0.482700 -0.852100 0.202100
vn -0.961700 -0.051600 -0.269300
vn 0.178300 -0.951700 0.249900
vn 0.679300 -0.572000 0.459600
vn -0.735000 0.670800 0.098500
vn -0.678100 0.732800 0.055900
vn 0.674200 -0.718200 0.171800
vn 0.868900 0.200100 0.452800
vn -0.298500 -0.953900 -0.031700
vn -0.966800 -0.248900 0.057000
vn 0.260700 0.910700 0.320400
vn 0.263200 -0.951100 -0.161500
vn 0.278600 0.905200 0.320800
vn -0.228300 0.961400 0.153600
vn -0.157300 0.892900 0.421800
vn 0.880900 0.207300 0.425300
vn -0.275600 -0.947000 -0.165100
vn -0.973200 -0.218200 -0.072500
vn 0.253900 -0.960200 -0.116000
vn 0.676600 -0.735000 0.043900
vn 0.506000 0.692500 0.514100
vn 0.518300 0.380800 0.765700
vn 0.938500 -0.032700 0.343600
vn 0.718100 -0.695400 0.028000
vn 0.125400 -0.961300 -0.245100
vn -0.736400 0.644500 0.205700
vn 0.931000 0.031100 0.363700
vn -0.590000 -0.775300 -0.225100
vn -0.994900 -0.072700 -0.069400
vn 0.888300 -0.406400 -0.213600
vn 0.938900 0.230300 0.255700
vn 0.183500 -0.646900 -0.740200
vn -0.683100 -0.467800 -0.560800
vn -0.188100 0.539100 0.820900
vn -0.809200 0.353200 0.469500
vn -0.993700 -0.087500 -0.070100
vn 0.185000 0.348700 -0.918800
vn 0.850900 0.319800 -0.416800
vn 0.850400 -0.259400 -0.457700
vn -0.614400 0.262800 -0.743900
vn -0.972000 0.158500 -0.173500
vn 0.596000 0.213600 0.774100
vn -0.197700 0.239500 0.950500
vn -0.875300 0.158900 0.456700
vn -0.562100 -0.302900 -0.769600
vn 0.213100 -0.255800 -0.942900
vn 0.180400 -0.085900 -0.979800
vn -0.837400 -0.367800 0.404200
vn -0.178500 -0.422700 0.888500
vn 0.938400 -0.286400 0.193200
vn -0.916500 -0.336300 -0.216500
vn 0.623900 -0.317000 0.714300
vn -0.754700 -0.199400 -0.624900
vn -0.672700 -0.195900 -0.713500
vn -0.952300 -0.229300 -0.201400
vn -0.255400 0.150200 0.955100
vn 0.787000 -0.090400 0.610200
vn 0.968300 -0.007700 -0.249500
vn -0.925400 -0.271500 0.264200
vn 0.965800 -0.181400 0.185000
vn -0.942500 -0.255100 -0.215800
vn -0.290300 0.071500 0.954300
vn -0.903900 -0.177900 0.389000
vn -0.885300 -0.047400 0.462500
vn 0.561000 0.380900 0.734900
vn 0.893400 0.416500 0.168400
vn 0.120300 0.068400 -0.990400
vn 0.840400 0.316200 -0.440000
vn -0.227100 0.292400 0.928900
vn -0.259600 0.789400 0.556300
vn 0.360500 0.632800 0.685200
vn 0.611900 0.776200 0.151500
vn 0.745700 0.486400 -0.455200
vn -0.668900 -0.257100 -0.697400
vn -0.977100 -0.079200 -0.197600
vn 0.079900 0.323500 -0.942800
vn 0.411800 0.814400 0.408800
vn 0.696800 0.318700 0.642600
vn 0.556500 0.815300 0.160000
vn 0.361100 0.589000 -0.722900
vn -0.936000 0.235700 0.261200
vn -0.841400 0.444600 0.307300
vn -0.322700 0.754400 0.571600
vn -0.368800 0.296500 -0.880900
vn -0.968900 0.194200 -0.152900
vn 0.090200 0.295900 -0.950900
vn 0.662000 -0.071500 -0.746100
vn 0.952900 0.297400 0.058600
vn 0.577600 -0.421700 -0.699000
vn 0.299400 -0.243300 -0.922600
vn -0.106600 -0.387800 -0.915500
vn -0.393500 -0.158700 0.905500
vn -0.980600 0.034100 0.192800
vn -0.176300 -0.039200 0.983500
vn 0.511400 0.610600 0.604600
vn 0.031100 0.548200 0.835700
vn 0.427400 -0.114200 0.896800
vn -0.845500 -0.430000 -0.316500
vn -0.881300 -0.385700 0.272800
vn 0.151100 -0.646800 -0.747500
vn 0.265900 -0.564100 -0.781700
vn -0.615600 0.009800 0.788000
vn 0.754100 0.608500 -0.247000
vn 0.959000 -0.017000 -0.283000
vn 0.378200 -0.539800 -0.752000
vn 0.138100 -0.607100 0.782500
vn 0.195000 -0.728000 0.657200
vn 0.500900 -0.505800 0.702300
vn 0.610500 -0.455300 -0.648000
vn -0.231700 -0.813700 0.533000
vn -0.138800 -0.846800 0.513500
vn -0.759300 0.188400 -0.622900
vn -0.432800 -0.597800 -0.674700
vn -0.659600 -0.136000 -0.739200
vn 0.352100 0.455000 0.817900
vn 0.691800 0.699500 -0.179000
vn 0.282300 0.520400 -0.805900
vn 0.386600 -0.922200 -0.006300
vn 0.805600 -0.089900 0.585600
vn -0.492500 -0.853900 0.167900
vn -0.294600 0.360300 -0.885100
vn -0.979200 0.201500 0.020100
vn -0.337500 0.528100 0.779200
vn 0.328000 0.939500 0.099000
vn -0.158400 0.269100 -0.950000
vn 0.147100 0.755500 -0.638400
vn 0.464500 0.592500 -0.658100
vn -0.899200 -0.193400 0.392500
vn -0.275700 -0.773100 0.571200
vn 0.184300 -0.065300 0.980700
vn 0.331300 0.891900 0.307700
vn -0.321700 0.497200 0.805800
vn -0.830500 -0.120800 -0.543700
vn -0.081100 -0.194800 -0.977500
vn -0.935000 0.139900 0.325900
vn -0.711100 -0.502000 -0.492200
vn 0.577300 0.521300 0.628400
vn 0.576000 -0.312300 -0.755400
vn 0.984600 0.174700 0.007800
vn 0.617100 0.665000 0.420700
vn 0.366700 -0.424000 -0.828100
vn -0.152700 -0.903700 -0.399900
vn 0.800500 0.267500 0.536200
vn 0.890700 -0.125000 -0.437100
vn 0.314800 -0.513400 -0.798300
vn 0.885900 -0.463100 -0.024000
vn 0.511900 -0.266400 0.816700
vn 0.008900 -0.989900 0.141500
vn -0.384400 -0.322000 0.865200
vn -0.918600 -0.377800 0.115500
vn -0.456300 -0.543600 -0.704500
vn 0.388100 -0.564400 -0.728600
vn 0.930200 0.316000 -0.186800
vn 0.434600 0.217700 -0.873900
vn -0.446200 0.220400 -0.867300
vn -0.384300 0.487000 0.784300
vn 0.345300 0.748200 0.566500
vn -0.341300 0.454900 0.822500
vn -0.921400 0.379700 0.082900
vn 0.517600 0.442800 0.732100
vn -0.620000 -0.744600 -0.247500
vn -0.947100 -0.312800 0.071800
vn -0.853900 -0.342300 0.391900
vn 0.306000 0.451600 0.838100
vn 0.351400 0.465100 0.812500
vn 0.356300 -0.187400 -0.915300
vn 0.333400 -0.054500 -0.941200
vn -0.885900 -0.376400 0.271100
vn 0.252700 -0.146100 -0.956500
vn 0.622500 -0.767100 0.154700
vn 0.790400 -0.389500 0.472800
vn -0.285000 -0.949500 0.130900
vn 0.739400 -0.277300 0.613500
vn 0.690200 -0.147900 -0.708300
vn -0.817000 -0.238000 0.525200
vn 0.645400 -0.061700 -0.761300
vn -0.337800 -0.920700 0.195400
vn 0.328200 -0.142700 -0.933700
vn -0.304700 0.554100 0.774700
vn 0.089300 0.458000 0.884500
vn 0.220100 0.406300 0.886800
vn -0.268900 -0.189300 0.944300
vn -0.441800 0.106500 0.890700
vn -0.436200 0.136000 0.889500
vn -0.049000 -0.324700 0.944500
vn 0.673800 -0.078000 0.734800
vn -0.782500 0.594400 -0.185100
vn -0.717200 0.614900 -0.327800
vn 0.044600 0.899500 0.434600
vn -0.236500 -0.759000 -0.606600
vn 0.127800 0.469100 0.873800
vn -0.775700 -0.622600 0.103200
vn -0.755300 -0.185200 0.628700
vn 0.168200 0.862100 0.477900
vn 0.834700 0.190500 0.516700
vn 0.586600 0.238400 -0.774000
vn -0.181700 -0.361500 -0.914500
vn -0.527600 -0.164800 -0.833300
vn 0.756000 -0.072700 0.650500
vn 0.062400 -0.891900 -0.447800
vn 0.769400 -0.620700 -0.150400
vn 0.729200 0.682300 -0.051500
vn 0.932500 0.027500 0.360200
vn 0.841700 -0.378200 -0.385400
vn 0.042300 -0.737500 -0.674000
vn -0.079800 -0.993400 -0.082200
vn -0.788900 -0.565800 -0.239500
vn -0.772100 -0.001400 0.635500
vn -0.835800 -0.421400 -0.351900
vn -0.616600 -0.786100 -0.041900
vn -0.941100 0.208800 0.265900
vn -0.615400 -0.176700 -0.768100
vn 0.882800 0.434800 0.177400
vn 0.133600 0.643400 0.753700
vn 0.555300 -0.113500 0.823900
vn -0.121100 0.471800 0.873300
vn -0.209300 0.511000 0.833600
vn 0.956900 -0.179400 0.228400
vn -0.289600 -0.951800 -0.100600
vn -0.821100 -0.547500 -0.161300
vn -0.297600 -0.950500 0.089700
vn -0.466600 -0.621200 0.629600
vn -0.422700 -0.371000 0.826800
vn 0.333300 0.019000 0.942600
vn 0.643400 -0.705600 0.296900
vn 0.103300 -0.856800 -0.505200
vn 0.279100 0.075400 0.957300
vn 0.021100 0.751600 0.659300
vn 0.739200 0.668100 0.084400
vn 0.401600 -0.824600 0.398400
vn 0.922100 -0.348000 -0.169000
vn 0.245200 -0.922500 -0.298100
vn 0.516800 -0.390700 -0.761700
vn -0.494500 -0.708400 -0.503600
vn 0.727100 -0.126100 0.674900
vn 0.935900 0.079800 0.343200
vn -0.962400 -0.096900 0.253700
vn 0.773700 -0.536300 -0.337200
vn 0.044200 0.890200 0.453400
vn -0.880300 0.466500 -0.086300
vn -0.929800 0.171400 0.325700
vn 0.142800 0.333000 0.932000
vn 0.872000 0.407400 0.271400
vn -0.281100 -0.937300 -0.206200
vn -0.619100 -0.695100 -0.365300
vn 0.857100 0.036600 -0.513800
vn -0.781100 -0.149200 0.606300
vn -0.926900 -0.343200 -0.151700
vn 0.940800 -0.319800 0.112400
vn -0.286600 0.475000 0.832000
vn -0.794600 -0.556100 0.243700
vn -0.245000 -0.416900 0.875300
vn 0.025400 -0.250000 0.967900
vn 0.669900 -0.733100 0.117500
vn 0.972700 0.064300 0.222700
vn 0.218600 -0.390500 0.894300
vn -0.936300 0.119100 0.330300
vn -0.082600 0.936200 -0.341400
vn 0.009200 -0.908200 0.418400
vn 0.749700 -0.140800 0.646600
vn -0.922700 -0.046400 -0.382600
vn 0.745700 0.310400 -0.589500
vn -0.615300 0.612000 -0.496800
vn -0.109000 -0.170700 0.979200
vn -0.578500 -0.624000 0.525200
vn 0.622300 0.561200 -0.545600
vn 0.157700 0.986600 0.041800
vn -0.977200 -0.108600 -0.182300
vn -0.495800 -0.478600 -0.724700
vn -0.173400 -0.984700 0.017700
vn -0.604100 0.736600 -0.304000
vn 0.550600 0.704200 -0.448100
vn -0.179400 0.392600 -0.902000
vn 0.964400 -0.235800 -0.119200
vn 0.380800 -0.800000 -0.463700
vn 0.209400 -0.154300 -0.965500
vn -0.577700 0.670600 0.465300
vn -0.200500 -0.016000 0.979500
vn 0.994900 0.070300 0.072500
vn 0.640700 0.470400 -0.606700
vn 0.527500 -0.477500 0.702600
vn 0.592900 0.465000 0.657400
vn 0.566700 -0.715300 0.408700
vn 0.373500 -0.921000 0.110300
vn 0.938900 -0.135400 0.316400
vn -0.171400 -0.486200 -0.856800
vn -0.026800 -0.909500 -0.414900
vn 0.660400 0.625600 -0.415400
vn -0.086400 0.313800 -0.945500
vn 0.984200 0.073500 0.161000
vn 0.065800 -0.966900 0.246500
vn -0.449900 0.427700 -0.784000
vn -0.981800 0.100200 0.160900
vn -0.496600 -0.605500 0.621800
vn -0.915300 -0.067700 0.397100
vn -0.891200 0.181300 0.415700
vn -0.296900 -0.478500 0.826300
vn 0.424900 -0.676900 0.601000
vn -0.654300 0.373800 -0.657400
vn 0.034200 -0.138600 -0.989700
vn 0.056900 0.353100 -0.933800
vn 0.875400 -0.194600 0.442500
vn 0.556000 0.797200 -0.235400
vn -0.150500 -0.973500 -0.171900
vn -0.269600 -0.864300 0.424600
vn 0.085800 -0.850700 -0.518600
vn 0.426500 -0.890000 0.161200
vn 0.959200 -0.237000 -0.153800
vn -0.788100 0.171100 -0.591300
vn -0.288800 -0.925400 0.245300
vn -0.113600 0.733700 -0.669900
vn 0.233800 0.229300 -0.944800
vn 0.760500 0.302300 -0.574600
vn 0.402200 -0.729300 0.553500
vn -0.391200 -0.666900 -0.634200
vn -0.707400 0.567400 -0.421300
vn 0.855100 0.051200 -0.515900
vn -0.378500 -0.860100 0.342000
vn -0.937500 -0.344200 0.050000
vn -0.741100 -0.024300 -0.670900
vn -0.235500 -0.200100 -0.951000
vn 0.544300 -0.746700 -0.382400
vn 0.026600 -0.853200 -0.520900
s 1
f 2/1/1 4/2/2 311/3/3
f 3/4/4 4/5/2 6/6/5
f 6/6/5 8/7/6 7/8/7
f 9/9/8 314/10/9 319/11/10
f 10/12/11 12/13/12 11/14/13
f 11/14/13 12/13/12 242/15/14
f 4/5/2 18/16/15 19/17/16
f 15/18/17 16/19/18 2/1/1
f 15/20/17 13/21/19 244/22/20
f 9/23/8 11/24/13 15/20/17
f 23/25/21 22/26/22 30/27/23
f 8/7/6 6/6/5 19/17/16
f 4/2/2 2/1/1 17/28/24
f 8/29/6 20/30/25 21/31/26
f 12/13/12 10/12/11 21/31/26
f 12/13/12 22/26/22 23/25/21
f 16/19/18 14/32/27 23/33/21
f 16/19/18 24/34/28 17/28/24
f 31/35/29 39/36/30 40/37/31
f 18/16/15 26/38/32 27/39/33
f 22/26/22 21/31/26 29/40/34
f 24/34/28 32/41/35 25/42/36
f 17/28/24 25/42/36 26/43/32
f 21/31/26 20/30/25 28/44/37
f 23/33/21 31/35/29 32/41/35
f 20/45/25 19/17/16 27/39/33
f 40/37/31 48/46/38 41/47/39
f 28/48/37 27/39/33 35/49/40
f 31/50/29 30/27/23 38/51/41
f 26/38/32 34/52/42 35/49/40
f 30/27/23 29/40/34 37/53/43
f 32/41/35 40/37/31 33/54/44
f 25/42/36 33/54/44 34/55/42
f 29/40/34 28/44/37 36/56/45
f 42/57/46 50/58/47 51/59/48
f 33/54/44 41/47/39 42/60/46
f 37/53/43 36/56/45 44/61/49
f 39/36/30 47/62/50 48/46/38
f 36/63/45 35/49/40 43/64/51
f 39/65/30 38/51/41 46/66/52
f 34/52/42 42/57/46 43/64/51
f 38/51/41 37/53/43 45/67/53
f 52/68/54 51/59/48 59/69/55
f 46/66/52 45/67/53 53/70/56
f 48/46/38 56/71/57 49/72/58
f 41/47/39 49/72/58 50/73/47
f 45/67/53 44/61/49 52/74/54
f 48/46/38 47/62/50 55/75/59
f 44/76/49 43/64/51 51/59/48
f 46/66/52 54/77/60 55/78/59
f 59/79/55 58/80/61 66/81/62
f 55/82/59 54/83/60 62/84/63
f 50/58/47 58/85/61 59/69/55
f 54/77/60 53/70/56 61/86/64
f 56/71/57 64/87/65 57/88/66
f 49/72/58 57/88/66 58/80/61
f 53/70/56 52/74/54 60/89/67
f 55/75/59 63/90/68 64/87/65
f 68/91/69 67/92/70 75/93/71
f 62/94/63 61/86/64 69/95/72
f 64/87/65 72/96/73 65/97/74
f 58/80/61 57/88/66 65/97/74
f 60/89/67 68/91/69 69/95/72
f 63/90/68 71/98/75 72/96/73
f 59/99/55 67/92/70 68/91/69
f 63/100/68 62/94/63 70/101/76
f 76/102/77 84/103/78 85/104/79
f 70/101/76 78/105/80 79/106/81
f 66/81/62 74/107/82 75/108/71
f 69/95/72 77/109/83 78/105/80
f 65/97/74 72/96/73 80/110/84
f 66/81/62 65/97/74 73/111/85
f 68/91/69 76/112/77 77/109/83
f 72/96/73 71/98/75 79/113/81
f 86/114/86 85/115/79 93/116/87
f 79/117/81 87/118/88 88/119/89
f 75/120/71 83/121/90 84/103/78
f 79/117/81 78/122/80 86/123/86
f 75/120/71 74/124/82 82/125/91
f 77/126/83 85/104/79 86/123/86
f 73/127/85 80/128/84 88/119/89
f 74/124/82 73/127/85 81/129/92
f 95/130/93 94/131/94 102/132/95
f 88/133/89 96/134/96 89/135/97
f 82/136/91 81/137/92 89/135/97
f 84/138/78 92/139/98 93/116/87
f 87/140/88 95/141/93 96/142/96
f 83/143/90 91/144/99 92/145/98
f 87/118/88 86/123/86 94/131/94
f 82/146/91 90/147/100 91/144/99
f 104/148/101 103/149/102 111/150/103
f 90/147/100 98/151/104 99/152/105
f 94/153/94 93/116/87 101/154/106
f 96/134/96 104/155/101 97/156/107
f 89/135/97 97/156/107 98/157/104
f 93/116/87 92/139/98 100/158/108
f 95/141/93 103/149/102 104/148/101
f 92/145/98 91/144/99 99/152/105
f 112/159/109 120/160/110 113/161/111
f 99/152/105 107/162/112 108/163/113
f 102/164/95 110/165/114 111/150/103
f 99/152/105 98/151/104 106/166/115
f 102/167/95 101/154/106 109/168/116
f 97/156/107 104/155/101 112/159/109
f 97/156/107 105/169/117 106/170/115
f 100/158/108 108/171/113 109/168/116
f 115/172/118 114/173/119 122/174/120
f 106/166/115 105/175/117 113/176/111
f 108/171/113 116/177/121 117/178/122
f 111/150/103 119/179/123 120/180/110
f 107/162/112 115/172/118 116/181/121
f 111/150/103 110/165/114 118/182/124
f 107/162/112 106/166/115 114/173/119
f 110/183/114 109/168/116 117/178/122
f 123/184/125 222/185/126 124/186/127
f 117/178/122 125/187/128 126/188/129
f 113/161/111 120/160/110 128/189/130
f 114/190/119 113/161/111 121/191/131
f 117/178/122 116/177/121 124/192/127
f 119/179/123 127/193/132 128/174/130
f 116/181/121 115/172/118 123/184/125
f 119/179/123 118/182/124 126/186/129
f 132/194/133 140/195/134 133/196/135
f 127/193/132 126/186/129 134/197/136
f 130/198/137 221/199/138 131/200/139
f 126/188/129 125/187/128 133/196/135
f 128/189/130 136/201/140 129/202/141
f 122/203/120 121/191/131 129/202/141
f 124/192/127 132/194/133 133/196/135
f 127/193/132 135/204/142 136/205/140
f 142/206/143 141/207/144 149/208/145
f 135/204/142 143/209/146 144/210/147
f 229/211/148 227/212/149 231/213/150
f 135/204/142 134/197/136 142/214/143
f 225/215/151 228/216/152 232/217/153
f 134/218/136 133/196/135 141/207/144
f 136/201/140 144/219/147 137/220/154
f 129/202/141 138/221/155 130/222/137
f 144/219/147 152/223/156 145/224/157
f 154/225/158 157/226/159 379/227/160
f 143/209/146 151/228/161 152/229/156
f 139/230/162 147/231/163 148/232/164
f 143/209/146 142/214/143 150/233/165
f 223/234/166 146/235/167 147/231/163
f 145/236/157 158/237/168 378/238/169
f 140/195/134 148/239/164 154/225/158
f 149/208/145 159/240/170 154/225/158
f 145/236/157 146/235/167 155/241/171
f 157/242/159 184/243/172 188/244/173
f 151/228/161 150/233/165 153/245/174
f 147/231/163 146/235/167 153/245/174
f 150/246/165 149/208/145 206/247/175
f 153/245/174 145/236/157 203/248/176
f 146/235/167 145/236/157 153/245/174
f 149/249/145 148/232/164 153/245/174
f 152/229/156 151/228/161 153/245/174
f 148/232/164 147/231/163 153/245/174
f 159/240/170 186/250/177 183/251/178
f 155/241/171 163/252/179 156/253/180
f 164/254/181 160/255/182 166/256/183
f 157/242/159 188/244/173 186/257/177
f 141/258/144 379/259/160 149/249/145
f 167/260/184 173/261/185 175/262/186
f 165/263/187 169/264/188 175/262/186
f 162/265/189 164/254/181 170/266/190
f 161/267/191 167/260/184 169/264/188
f 161/267/191 162/265/189 168/268/192
f 206/247/175 208/269/193 207/270/194
f 182/271/195 181/272/196 180/273/197
f 167/260/184 168/268/192 174/274/198
f 166/256/183 165/263/187 171/275/199
f 166/256/183 172/276/200 176/277/201
f 168/268/192 170/266/190 176/277/201
f 196/278/202 197/279/203 201/280/204
f 199/281/205 195/282/206 201/280/204
f 197/283/203 199/284/205 201/285/204
f 198/286/207 200/287/208 201/285/204
f 195/282/206 198/288/207 201/280/204
f 200/289/208 196/278/202 201/280/204
f 184/290/172 190/291/209 194/292/210
f 183/293/178 186/294/177 192/295/211
f 158/237/168 156/253/180 160/296/182
f 193/297/212 199/284/205 197/283/203
f 194/298/210 200/287/208 198/286/207
f 188/299/173 194/298/210 192/295/211
f 185/300/213 187/301/214 193/297/212
f 183/302/178 189/303/215 193/304/212
f 184/290/172 185/305/213 191/306/216
f 204/307/217 178/308/218 208/309/193
f 178/308/218 209/310/219 214/311/220
f 193/304/212 189/303/215 195/282/206
f 190/291/209 191/306/216 197/279/203
f 192/312/211 198/288/207 195/282/206
f 194/292/210 190/291/209 196/278/202
f 181/272/196 212/313/221 211/314/222
f 152/223/156 202/315/223 203/316/176
f 152/229/156 153/245/174 182/317/195
f 182/317/195 203/248/176 179/318/224
f 153/245/174 204/307/217 206/319/175
f 150/233/165 205/320/225 204/307/217
f 204/321/217 205/322/225 207/270/194
f 176/277/201 172/276/200 177/323/226
f 172/276/200 171/275/199 177/323/226
f 174/274/198 176/277/201 177/323/226
f 171/275/199 175/262/186 177/323/226
f 175/262/186 173/261/185 177/323/226
f 173/261/185 174/274/198 177/323/226
f 203/316/176 202/315/223 180/273/197
f 211/324/222 212/325/221 218/326/227
f 209/310/219 215/327/228 220/328/229
f 178/329/218 207/270/194 213/330/230
f 181/331/196 179/318/224 210/332/231
f 208/269/193 214/333/220 213/330/230
f 179/334/224 180/273/197 211/314/222
f 219/335/232 220/328/229 215/327/228
f 216/336/233 217/337/234 218/326/227
f 209/310/219 213/338/230 219/335/232
f 212/325/221 210/332/231 216/336/233
f 213/330/230 214/333/220 220/339/229
f 211/314/222 217/340/234 216/341/233
f 156/342/180 163/343/179 169/264/188
f 158/237/168 164/344/181 162/345/189
f 156/342/180 165/263/187 166/256/183
f 157/226/159 154/225/158 185/346/213
f 154/347/158 187/348/214 185/349/213
f 154/225/158 183/251/178 187/350/214
f 137/220/154 378/351/169 138/221/155
f 158/352/168 162/353/189 161/354/191
f 146/235/167 138/355/155 155/241/171
f 155/241/171 161/356/191 163/252/179
f 132/357/133 222/185/126 233/358/235
f 222/185/126 131/200/139 234/359/236
f 226/360/237 229/211/148 235/361/238
f 131/200/139 221/199/138 236/362/239
f 221/199/138 130/198/137 237/363/240
f 228/216/152 226/360/237 230/364/241
f 226/360/237 139/230/162 230/364/241
f 139/230/162 224/365/242 230/364/241
f 224/365/242 228/216/152 230/364/241
f 227/212/149 138/355/155 231/213/150
f 138/355/155 223/234/166 231/213/150
f 223/234/166 229/211/148 231/213/150
f 228/216/152 224/365/242 232/217/153
f 224/365/242 140/366/134 232/217/153
f 140/366/134 225/215/151 232/217/153
f 222/185/126 228/216/152 233/358/235
f 228/216/152 225/215/151 233/358/235
f 225/215/151 132/357/133 233/358/235
f 131/200/139 226/360/237 234/359/236
f 226/360/237 228/216/152 234/359/236
f 228/216/152 222/185/126 234/359/236
f 229/211/148 223/234/166 235/361/238
f 223/234/166 139/230/162 235/361/238
f 139/230/162 226/360/237 235/361/238
f 221/199/138 229/211/148 236/362/239
f 229/211/148 226/360/237 236/362/239
f 226/360/237 131/200/139 236/362/239
f 130/198/137 227/212/149 237/363/240
f 227/212/149 229/211/148 237/363/240
f 229/211/148 221/199/138 237/363/240
f 247/367/243 259/368/244 257/369/245
f 13/370/19 11/14/13 238/371/246
f 12/13/12 14/372/27 241/373/247
f 14/374/27 240/375/248 243/376/249
f 245/377/250 257/369/245 260/378/251
f 242/379/14 254/380/252 250/381/253
f 16/19/18 247/382/243 245/383/250
f 15/18/17 249/384/254 16/19/18
f 14/374/27 248/385/255 13/21/19
f 246/386/256 244/22/20 256/387/257
f 251/388/258 263/389/259 266/390/260
f 258/391/261 270/392/262 273/393/263
f 255/394/264 252/395/265 264/396/266
f 257/369/245 259/368/244 271/397/267
f 238/398/246 250/381/253 252/395/265
f 247/367/243 249/399/254 261/400/268
f 249/399/254 246/386/256 258/391/261
f 242/379/14 239/401/269 251/388/258
f 239/401/269 241/402/247 253/403/270
f 241/402/247 243/376/249 255/394/264
f 240/375/248 252/395/265 255/394/264
f 244/22/20 248/385/255 260/378/251
f 272/404/271 269/405/272 281/406/273
f 266/390/260 263/389/259 275/407/274
f 270/392/262 282/408/275 285/409/276
f 264/396/266 276/410/277 279/411/278
f 260/378/251 257/369/245 269/405/272
f 255/394/264 267/412/279 265/413/280
f 261/400/268 273/393/263 271/397/267
f 250/381/253 254/380/252 266/390/260
f 260/378/251 272/404/271 268/414/281
f 252/395/265 250/381/253 262/415/282
f 256/387/257 268/414/281 270/392/262
f 253/403/270 265/413/280 263/389/259
f 277/416/283 289/417/284 287/418/285
f 282/408/275 280/419/286 292/420/287
f 274/421/288 286/422/289 288/423/290
f 284/424/291 296/425/292 292/420/287
f 267/412/279 279/411/278 277/416/283
f 273/393/263 285/409/276 283/426/293
f 262/415/282 266/390/260 278/427/294
f 272/404/271 284/424/291 280/419/286
f 264/396/266 262/415/282 274/421/288
f 270/392/262 268/414/281 280/419/286
f 265/413/280 277/416/283 275/407/274
f 271/397/267 283/426/293 281/406/273
f 293/428/295 295/429/296 305/430/297
f 289/417/284 300/431/298 299/432/299
f 288/423/290 286/422/289 298/433/300
f 281/406/273 283/426/293 295/429/296
f 279/411/278 276/410/277 288/423/290
f 285/409/276 282/408/275 294/434/301
f 275/407/274 287/418/285 290/435/302
f 284/424/291 281/406/273 293/428/295
f 277/416/283 279/411/278 291/436/303
f 285/409/276 297/437/304 295/429/296
f 278/427/294 290/435/302 286/422/289
f 301/438/305 299/432/299 300/431/298
f 304/439/306 305/430/297 307/440/307
f 298/433/300 301/438/305 302/441/308
f 288/423/290 298/433/300 302/441/308
f 290/435/302 287/418/285 299/432/299
f 296/425/292 293/428/295 304/439/306
f 291/436/303 302/441/308 300/431/298
f 297/437/304 307/440/307 305/430/297
f 286/422/289 290/435/302 301/438/305
f 292/420/287 296/425/292 306/442/309
f 294/434/301 292/420/287 303/443/310
f 303/443/310 306/442/309 307/440/307
f 294/434/301 303/443/310 307/440/307
f 315/444/311 319/445/10 331/446/312
f 309/447/313 311/448/3 323/449/314
f 8/29/6 10/12/11 315/450/311
f 3/451/4 1/452/315 308/453/316
f 7/454/7 312/455/317 314/456/9
f 4/2/2 3/457/4 317/458/318
f 7/459/7 8/29/6 318/460/319
f 1/461/315 2/1/1 316/462/320
f 314/456/9 326/463/321 331/446/312
f 318/464/319 313/465/322 325/466/323
f 324/467/324 336/468/325 338/469/326
f 330/470/327 325/466/323 337/471/328
f 324/467/324 330/470/327 342/472/329
f 322/473/330 334/474/331 341/475/332
f 309/447/313 321/476/333 328/477/334
f 310/478/335 322/473/330 329/479/336
f 316/480/320 328/477/334 320/481/337
f 312/455/317 318/464/319 330/470/327
f 311/448/3 317/482/318 329/479/336
f 312/455/317 324/467/324 326/463/321
f 315/444/311 327/483/338 325/466/323
f 310/478/335 308/453/316 320/481/337
f 343/484/339 355/485/340 351/486/341
f 336/468/325 348/487/342 350/488/343
f 342/472/329 337/471/328 349/489/344
f 342/472/329 354/490/345 348/487/342
f 331/446/312 343/484/339 339/491/346
f 325/466/323 327/483/338 339/491/346
f 322/473/330 320/481/337 332/492/347
f 326/463/321 338/469/326 343/484/339
f 323/449/314 335/493/348 333/494/349
f 320/481/337 328/477/334 340/495/350
f 328/477/334 321/476/333 333/494/349
f 329/479/336 341/475/332 335/493/348
f 345/496/351 368/497/352 371/498/353
f 351/486/341 355/485/340 361/499/354
f 347/500/355 353/501/356 372/502/357
f 351/486/341 359/503/358 357/504/359
f 339/491/346 351/486/341 349/489/344
f 334/474/331 332/492/347 344/505/360
f 338/469/326 350/488/343 355/485/340
f 333/494/349 335/493/348 347/500/355
f 332/492/347 340/495/350 352/506/361
f 340/495/350 333/494/349 345/496/351
f 335/493/348 341/475/332 353/501/356
f 341/475/332 334/474/331 346/507/362
f 361/499/354 367/508/363 365/509/364
f 357/504/359 359/503/358 365/509/364
f 348/487/342 356/510/365 358/511/366
f 349/489/344 357/504/359 360/512/367
f 354/490/345 360/512/367 356/510/365
f 355/485/340 350/488/343 358/511/366
f 366/513/368 363/514/369 365/509/364
f 352/506/361 371/498/353 364/515/370
f 360/512/367 357/504/359 363/514/369
f 356/510/365 360/512/367 366/513/368
f 362/516/371 366/513/368 367/508/363
f 358/511/366 356/510/365 362/516/371
f 358/511/366 362/516/371 367/508/363
f 345/496/351 347/500/355 370/517/372
f 346/507/362 344/505/360 364/515/370
f 353/501/356 346/507/362 369/518/373
f 376/519/374 374/520/375 375/521/376
f 370/517/372 375/521/376 374/520/375
f 372/502/357 377/522/377 375/521/376
f 364/515/370 371/498/353 376/519/374
f 371/498/353 368/497/352 374/520/375
f 369/518/373 364/515/370 373/523/378
f 369/518/373 373/523/378 377/522/377
f 373/523/378 376/519/374 377/522/377
f 309/524/313 2/1/1 311/3/3
f 5/525/379 3/4/4 6/6/5
f 5/525/379 6/6/5 7/8/7
f 10/12/11 9/9/8 319/11/10
f 319/11/10 315/450/311 10/12/11
f 9/9/8 10/12/11 11/14/13
f 12/13/12 239/526/269 242/15/14
f 242/15/14 238/371/246 11/14/13
f 6/6/5 4/5/2 19/17/16
f 1/461/315 15/18/17 2/1/1
f 246/386/256 15/20/17 244/22/20
f 15/20/17 1/452/315 7/454/7
f 3/451/4 5/527/379 7/454/7
f 7/454/7 9/23/8 15/20/17
f 11/24/13 13/21/19 15/20/17
f 1/452/315 3/451/4 7/454/7
f 31/50/29 23/25/21 30/27/23
f 20/45/25 8/7/6 19/17/16
f 18/528/15 4/2/2 17/28/24
f 10/12/11 8/29/6 21/31/26
f 22/26/22 12/13/12 21/31/26
f 14/372/27 12/13/12 23/25/21
f 24/34/28 16/19/18 23/33/21
f 2/1/1 16/19/18 17/28/24
f 32/41/35 31/35/29 40/37/31
f 19/17/16 18/16/15 27/39/33
f 30/27/23 22/26/22 29/40/34
f 17/28/24 24/34/28 25/42/36
f 18/528/15 17/28/24 26/43/32
f 29/40/34 21/31/26 28/44/37
f 24/34/28 23/33/21 32/41/35
f 28/48/37 20/45/25 27/39/33
f 33/54/44 40/37/31 41/47/39
f 36/63/45 28/48/37 35/49/40
f 39/65/30 31/50/29 38/51/41
f 27/39/33 26/38/32 35/49/40
f 38/51/41 30/27/23 37/53/43
f 25/42/36 32/41/35 33/54/44
f 26/43/32 25/42/36 34/55/42
f 37/53/43 29/40/34 36/56/45
f 43/64/51 42/57/46 51/59/48
f 34/55/42 33/54/44 42/60/46
f 45/67/53 37/53/43 44/61/49
f 40/37/31 39/36/30 48/46/38
f 44/76/49 36/63/45 43/64/51
f 47/529/50 39/65/30 46/66/52
f 35/49/40 34/52/42 43/64/51
f 46/66/52 38/51/41 45/67/53
f 60/530/67 52/68/54 59/69/55
f 54/77/60 46/66/52 53/70/56
f 41/47/39 48/46/38 49/72/58
f 42/60/46 41/47/39 50/73/47
f 53/70/56 45/67/53 52/74/54
f 56/71/57 48/46/38 55/75/59
f 52/68/54 44/76/49 51/59/48
f 47/529/50 46/66/52 55/78/59
f 67/531/70 59/79/55 66/81/62
f 63/532/68 55/82/59 62/84/63
f 51/59/48 50/58/47 59/69/55
f 62/94/63 54/77/60 61/86/64
f 49/72/58 56/71/57 57/88/66
f 50/73/47 49/72/58 58/80/61
f 61/86/64 53/70/56 60/89/67
f 56/71/57 55/75/59 64/87/65
f 76/112/77 68/91/69 75/93/71
f 70/101/76 62/94/63 69/95/72
f 57/88/66 64/87/65 65/97/74
f 66/81/62 58/80/61 65/97/74
f 61/86/64 60/89/67 69/95/72
f 64/87/65 63/90/68 72/96/73
f 60/89/67 59/99/55 68/91/69
f 71/533/75 63/100/68 70/101/76
f 77/126/83 76/102/77 85/104/79
f 71/533/75 70/101/76 79/106/81
f 67/531/70 66/81/62 75/108/71
f 70/101/76 69/95/72 78/105/80
f 73/111/85 65/97/74 80/110/84
f 74/107/82 66/81/62 73/111/85
f 69/95/72 68/91/69 77/109/83
f 80/110/84 72/96/73 79/113/81
f 94/153/94 86/114/86 93/116/87
f 80/128/84 79/117/81 88/119/89
f 76/102/77 75/120/71 84/103/78
f 87/118/88 79/117/81 86/123/86
f 83/121/90 75/120/71 82/125/91
f 78/122/80 77/126/83 86/123/86
f 81/129/92 73/127/85 88/119/89
f 82/125/91 74/124/82 81/129/92
f 103/534/102 95/130/93 102/132/95
f 81/137/92 88/133/89 89/135/97
f 90/535/100 82/136/91 89/135/97
f 85/115/79 84/138/78 93/116/87
f 88/536/89 87/140/88 96/142/96
f 84/537/78 83/143/90 92/145/98
f 95/130/93 87/118/88 94/131/94
f 83/143/90 82/146/91 91/144/99
f 112/538/109 104/148/101 111/150/103
f 91/144/99 90/147/100 99/152/105
f 102/167/95 94/153/94 101/154/106
f 89/135/97 96/134/96 97/156/107
f 90/535/100 89/135/97 98/157/104
f 101/154/106 93/116/87 100/158/108
f 96/142/96 95/141/93 104/148/101
f 100/539/108 92/145/98 99/152/105
f 105/169/117 112/159/109 113/161/111
f 100/539/108 99/152/105 108/163/113
f 103/149/102 102/164/95 111/150/103
f 107/162/112 99/152/105 106/166/115
f 110/183/114 102/167/95 109/168/116
f 105/169/117 97/156/107 112/159/109
f 98/157/104 97/156/107 106/170/115
f 101/154/106 100/158/108 109/168/116
f 123/184/125 115/172/118 122/174/120
f 114/173/119 106/166/115 113/176/111
f 109/168/116 108/171/113 117/178/122
f 112/538/109 111/150/103 120/180/110
f 108/163/113 107/162/112 116/181/121
f 119/179/123 111/150/103 118/182/124
f 115/172/118 107/162/112 114/173/119
f 118/540/124 110/183/114 117/178/122
f 132/357/133 124/186/127 222/185/126
f 123/184/125 131/200/139 222/185/126
f 118/540/124 117/178/122 126/188/129
f 121/191/131 113/161/111 128/189/130
f 122/203/120 114/190/119 121/191/131
f 125/187/128 117/178/122 124/192/127
f 120/180/110 119/179/123 128/174/130
f 124/186/127 116/181/121 123/184/125
f 127/193/132 119/179/123 126/186/129
f 141/207/144 133/196/135 140/195/134
f 132/194/133 225/541/151 140/195/134
f 135/204/142 127/193/132 134/197/136
f 131/200/139 123/184/125 122/174/120
f 122/174/120 130/198/137 131/200/139
f 134/218/136 126/188/129 133/196/135
f 121/191/131 128/189/130 129/202/141
f 130/222/137 122/203/120 129/202/141
f 125/187/128 124/192/127 133/196/135
f 128/174/130 127/193/132 136/205/140
f 150/246/165 142/206/143 149/208/145
f 136/205/140 135/204/142 144/210/147
f 143/209/146 135/204/142 142/214/143
f 142/206/143 134/218/136 141/207/144
f 129/202/141 136/201/140 137/220/154
f 227/542/149 130/222/137 138/221/155
f 129/202/141 137/220/154 138/221/155
f 137/220/154 144/219/147 145/224/157
f 379/227/160 141/207/144 140/195/134
f 140/195/134 154/225/158 379/227/160
f 144/210/147 143/209/146 152/229/156
f 148/232/164 140/366/134 224/365/242
f 224/365/242 139/230/162 148/232/164
f 151/228/161 143/209/146 150/233/165
f 147/231/163 139/230/162 223/234/166
f 223/234/166 138/355/155 146/235/167
f 378/238/169 137/543/154 145/236/157
f 145/236/157 156/253/180 158/237/168
f 148/239/164 149/208/145 154/225/158
f 156/253/180 145/236/157 155/241/171
f 205/322/225 150/246/165 206/247/175
f 182/317/195 153/245/174 203/248/176
f 154/225/158 159/240/170 183/251/178
f 170/266/190 164/254/181 166/256/183
f 159/544/170 157/242/159 186/257/177
f 159/544/170 149/249/145 157/242/159
f 379/259/160 157/242/159 149/249/145
f 169/264/188 167/260/184 175/262/186
f 171/275/199 165/263/187 175/262/186
f 168/268/192 162/265/189 170/266/190
f 163/343/179 161/267/191 169/264/188
f 167/260/184 161/267/191 168/268/192
f 205/322/225 206/247/175 207/270/194
f 202/315/223 182/271/195 180/273/197
f 173/261/185 167/260/184 174/274/198
f 172/276/200 166/256/183 171/275/199
f 170/266/190 166/256/183 176/277/201
f 174/274/198 168/268/192 176/277/201
f 188/545/173 184/290/172 194/292/210
f 189/546/215 183/293/178 192/295/211
f 164/344/181 158/237/168 160/296/182
f 191/547/216 193/297/212 197/283/203
f 192/295/211 194/298/210 198/286/207
f 186/294/177 188/299/173 192/295/211
f 191/547/216 185/300/213 193/297/212
f 187/548/214 183/302/178 193/304/212
f 190/291/209 184/290/172 191/306/216
f 206/319/175 204/307/217 208/309/193
f 208/309/193 178/308/218 214/311/220
f 199/281/205 193/304/212 195/282/206
f 196/278/202 190/291/209 197/279/203
f 189/303/215 192/312/211 195/282/206
f 200/289/208 194/292/210 196/278/202
f 180/273/197 181/272/196 211/314/222
f 145/224/157 152/223/156 203/316/176
f 202/549/223 152/229/156 182/317/195
f 181/331/196 182/317/195 179/318/224
f 149/249/145 153/245/174 206/319/175
f 153/245/174 150/233/165 204/307/217
f 178/329/218 204/321/217 207/270/194
f 179/334/224 203/316/176 180/273/197
f 217/337/234 211/324/222 218/326/227
f 214/311/220 209/310/219 220/328/229
f 209/550/219 178/329/218 213/330/230
f 212/325/221 181/331/196 210/332/231
f 207/270/194 208/269/193 213/330/230
f 210/551/231 179/334/224 211/314/222
f 215/327/228 209/310/219 219/335/232
f 218/326/227 212/325/221 216/336/233
f 219/552/232 213/330/230 220/339/229
f 210/551/231 211/314/222 216/341/233
f 165/263/187 156/342/180 169/264/188
f 160/255/182 156/342/180 166/256/183
f 184/553/172 157/226/159 185/346/213
f 155/554/171 138/221/155 378/351/169
f 378/351/169 158/352/168 155/554/171
f 155/554/171 158/352/168 161/354/191
f 245/377/250 247/367/243 257/369/245
f 240/555/248 13/370/19 238/371/246
f 239/526/269 12/13/12 241/373/247
f 14/374/27 13/21/19 240/375/248
f 243/376/249 241/402/247 14/374/27
f 248/385/255 245/377/250 260/378/251
f 238/398/246 242/379/14 250/381/253
f 14/32/27 16/19/18 245/383/250
f 247/382/243 16/19/18 249/384/254
f 15/18/17 246/556/256 249/384/254
f 244/22/20 13/21/19 248/385/255
f 14/374/27 245/377/250 248/385/255
f 258/391/261 246/386/256 256/387/257
f 254/380/252 251/388/258 266/390/260
f 261/400/268 258/391/261 273/393/263
f 267/412/279 255/394/264 264/396/266
f 269/405/272 257/369/245 271/397/267
f 240/375/248 238/398/246 252/395/265
f 259/368/244 247/367/243 261/400/268
f 261/400/268 249/399/254 258/391/261
f 254/380/252 242/379/14 251/388/258
f 251/388/258 239/401/269 253/403/270
f 253/403/270 241/402/247 255/394/264
f 243/376/249 240/375/248 255/394/264
f 256/387/257 244/22/20 260/378/251
f 284/424/291 272/404/271 281/406/273
f 278/427/294 266/390/260 275/407/274
f 273/393/263 270/392/262 285/409/276
f 267/412/279 264/396/266 279/411/278
f 272/404/271 260/378/251 269/405/272
f 253/403/270 255/394/264 265/413/280
f 259/368/244 261/400/268 271/397/267
f 262/415/282 250/381/253 266/390/260
f 256/387/257 260/378/251 268/414/281
f 264/396/266 252/395/265 262/415/282
f 258/391/261 256/387/257 270/392/262
f 251/388/258 253/403/270 263/389/259
f 275/407/274 277/416/283 287/418/285
f 294/434/301 282/408/275 292/420/287
f 276/410/277 274/421/288 288/423/290
f 280/419/286 284/424/291 292/420/287
f 265/413/280 267/412/279 277/416/283
f 271/397/267 273/393/263 283/426/293
f 274/421/288 262/415/282 278/427/294
f 268/414/281 272/404/271 280/419/286
f 276/410/277 264/396/266 274/421/288
f 282/408/275 270/392/262 280/419/286
f 263/389/259 265/413/280 275/407/274
f 269/405/272 271/397/267 281/406/273
f 304/439/306 293/428/295 305/430/297
f 287/418/285 289/417/284 299/432/299
f 293/428/295 281/406/273 295/429/296
f 291/436/303 279/411/278 288/423/290
f 297/437/304 285/409/276 294/434/301
f 278/427/294 275/407/274 290/435/302
f 296/425/292 284/424/291 293/428/295
f 289/417/284 277/416/283 291/436/303
f 283/426/293 285/409/276 295/429/296
f 274/421/288 278/427/294 286/422/289
f 302/441/308 301/438/305 300/431/298
f 306/442/309 304/439/306 307/440/307
f 291/436/303 288/423/290 302/441/308
f 301/438/305 290/435/302 299/432/299
f 306/442/309 296/425/292 304/439/306
f 289/417/284 291/436/303 300/431/298
f 295/429/296 297/437/304 305/430/297
f 298/433/300 286/422/289 301/438/305
f 303/443/310 292/420/287 306/442/309
f 297/437/304 294/434/301 307/440/307
f 327/483/338 315/444/311 331/446/312
f 321/476/333 309/447/313 323/449/314
f 313/557/322 8/29/6 315/450/311
f 310/478/335 3/451/4 308/453/316
f 9/23/8 7/454/7 314/456/9
f 3/457/4 310/558/335 317/458/318
f 317/458/318 311/3/3 4/2/2
f 8/29/6 313/557/322 318/460/319
f 318/460/319 312/559/317 7/459/7
f 2/1/1 309/524/313 316/462/320
f 316/462/320 308/560/316 1/461/315
f 319/445/10 314/456/9 331/446/312
f 330/470/327 318/464/319 325/466/323
f 326/463/321 324/467/324 338/469/326
f 342/472/329 330/470/327 337/471/328
f 336/468/325 324/467/324 342/472/329
f 329/479/336 322/473/330 341/475/332
f 316/480/320 309/447/313 328/477/334
f 317/482/318 310/478/335 329/479/336
f 308/453/316 316/480/320 320/481/337
f 324/467/324 312/455/317 330/470/327
f 323/449/314 311/448/3 329/479/336
f 314/456/9 312/455/317 326/463/321
f 313/465/322 315/444/311 325/466/323
f 322/473/330 310/478/335 320/481/337
f 339/491/346 343/484/339 351/486/341
f 338/469/326 336/468/325 350/488/343
f 354/490/345 342/472/329 349/489/344
f 336/468/325 342/472/329 348/487/342
f 327/483/338 331/446/312 339/491/346
f 337/471/328 325/466/323 339/491/346
f 334/474/331 322/473/330 332/492/347
f 331/446/312 326/463/321 343/484/339
f 321/476/333 323/449/314 333/494/349
f 332/492/347 320/481/337 340/495/350
f 340/495/350 328/477/334 333/494/349
f 323/449/314 329/479/336 335/493/348
f 352/506/361 345/496/351 371/498/353
f 359/503/358 351/486/341 361/499/354
f 370/517/372 347/500/355 372/502/357
f 349/489/344 351/486/341 357/504/359
f 337/471/328 339/491/346 349/489/344
f 346/507/362 334/474/331 344/505/360
f 343/484/339 338/469/326 355/485/340
f 345/496/351 333/494/349 347/500/355
f 344/505/360 332/492/347 352/506/361
f 352/506/361 340/495/350 345/496/351
f 347/500/355 335/493/348 353/501/356
f 353/501/356 341/475/332 346/507/362
f 359/503/358 361/499/354 365/509/364
f 363/514/369 357/504/359 365/509/364
f 350/488/343 348/487/342 358/511/366
f 354/490/345 349/489/344 360/512/367
f 348/487/342 354/490/345 356/510/365
f 361/499/354 355/485/340 358/511/366
f 367/508/363 366/513/368 365/509/364
f 344/505/360 352/506/361 364/515/370
f 366/513/368 360/512/367 363/514/369
f 362/516/371 356/510/365 366/513/368
f 361/499/354 358/511/366 367/508/363
f 368/497/352 345/496/351 370/517/372
f 369/518/373 346/507/362 364/515/370
f 372/502/357 353/501/356 369/518/373
f 377/522/377 376/519/374 375/521/376
f 368/497/352 370/517/372 374/520/375
f 370/517/372 372/502/357 375/521/376
f 373/523/378 364/515/370 376/519/374
f 376/519/374 371/498/353 374/520/375
f 372/502/357 369/518/373 377/522/377
