# Blender v2.76 (sub 0) OBJ File: 'npc_zerogmut.blend'
# www.blender.org
v -2.724828 -1.564610 -1.657447
v -2.617742 -1.416129 -1.502505
v -2.886656 -1.475866 -1.567320
v -2.947404 -1.553419 -1.789106
v -2.716030 -1.541609 -1.861358
v -2.512290 -1.456760 -1.684229
v -2.774136 -1.313170 -1.538404
v -2.977876 -1.398020 -1.715533
v -2.872424 -1.438650 -1.897257
v -2.603511 -1.378913 -1.832442
v -2.542762 -1.301361 -1.610656
v -2.765338 -1.290169 -1.742315
vt 0.386864 0.162439
vt 0.420370 0.171564
vt 0.404543 0.178763
vt 0.457854 0.162439
vt 0.437234 0.176672
vt 0.391864 0.186615
vt 0.379156 0.185491
vt 0.450146 0.185491
vt 0.427359 0.193267
vt 0.414651 0.194392
vt 0.401739 0.203211
vt 0.384875 0.208318
vt 0.440037 0.201119
vt 0.455865 0.208318
vt 0.422359 0.217443
vn -0.007600 -0.719300 0.694600
vn 0.450400 -0.779400 0.435600
vn -0.271000 -0.883100 0.383000
vn 0.015900 -0.993600 -0.111400
vn 0.442800 -0.892900 -0.081600
vn 0.855100 -0.075200 0.513000
vn -0.231600 -0.012700 0.972700
vn -0.870100 -0.339700 0.357100
vn -0.212200 -0.593200 -0.776600
vn 0.692600 -0.368800 -0.620000
vn 0.212200 0.593200 0.776600
vn -0.692600 0.368800 0.620000
vn -0.855100 0.075200 -0.513000
vn 0.231600 0.012700 -0.972700
vn 0.870100 0.339700 -0.357100
vn -0.015900 0.993600 0.111400
vn -0.442800 0.892900 0.081600
vn -0.450400 0.779400 -0.435600
vn 0.007600 0.719300 -0.694600
vn 0.271000 0.883100 -0.383000
s off
f 1/1/1 2/2/1 3/3/1
f 2/2/2 1/4/2 6/5/2
f 1/1/3 3/3/3 4/6/3
f 1/1/4 4/6/4 5/7/4
f 1/4/5 5/8/5 6/5/5
f 2/2/6 6/5/6 11/9/6
f 3/3/7 2/2/7 7/10/7
f 4/6/8 3/3/8 8/11/8
f 5/7/9 4/6/9 9/12/9
f 6/5/10 5/8/10 10/13/10
f 2/2/11 11/9/11 7/10/11
f 3/3/12 7/10/12 8/11/12
f 4/6/13 8/11/13 9/12/13
f 5/8/14 9/14/14 10/13/14
f 6/5/15 10/13/15 11/9/15
f 7/10/16 11/9/16 12/15/16
f 8/11/17 7/10/17 12/15/17
f 9/14/18 8/11/18 12/15/18
f 10/13/19 9/14/19 12/15/19
f 11/9/20 10/13/20 12/15/20
v 2.232518 -1.568491 -2.395212
v 2.187438 -1.520282 -2.634005
v 2.437359 -1.498404 -2.561053
v 2.398546 -1.465732 -2.271832
v 2.124633 -1.467417 -2.166040
v 1.994165 -1.501131 -2.389876
v 2.325606 -1.387726 -2.658209
v 2.456074 -1.354012 -2.434373
v 2.262800 -1.334862 -2.190244
v 2.012880 -1.356739 -2.263196
v 2.051693 -1.389411 -2.552417
v 2.217720 -1.286652 -2.429037
vt 0.436894 0.681291
vt 0.490014 0.689372
vt 0.461930 0.729426
vt 0.615623 0.681291
vt 0.547019 0.676559
vt 0.431128 0.743508
vt 0.402342 0.716310
vt 0.581071 0.716310
vt 0.520492 0.725087
vt 0.491707 0.752285
vt 0.457655 0.792036
vt 0.400650 0.779223
vt 0.551294 0.739169
vt 0.372565 0.739169
vt 0.526258 0.787304
vt 0.579379 0.779223
vn 0.149300 -0.963400 -0.222700
vn -0.272200 -0.951900 -0.140800
vn 0.431900 -0.887900 0.158300
vn 0.186300 -0.863600 0.468600
vn -0.254500 -0.923400 0.287400
vn -0.728400 -0.416400 -0.544000
vn 0.286200 -0.452500 -0.844600
vn 0.952300 -0.261500 0.157300
vn 0.353900 -0.202200 0.913200
vn -0.786900 -0.346200 0.510800
vn -0.353900 0.202200 -0.913200
vn 0.786900 0.346200 -0.510800
vn 0.728400 0.416400 0.544000
vn -0.286200 0.452500 0.844600
vn -0.952300 0.261500 -0.157300
vn -0.186300 0.863600 -0.468600
vn 0.254500 0.923400 -0.287400
vn 0.272200 0.951900 0.140800
vn -0.149300 0.963400 0.222700
vn -0.431900 0.887900 -0.158300
s off
f 13/16/21 14/17/21 15/18/21
f 14/17/22 13/19/22 18/20/22
f 13/16/23 15/18/23 16/21/23
f 13/16/24 16/21/24 17/22/24
f 13/19/25 17/23/25 18/20/25
f 14/17/26 18/20/26 23/24/26
f 15/18/27 14/17/27 19/25/27
f 16/21/28 15/18/28 20/26/28
f 17/22/29 16/21/29 21/27/29
f 18/20/30 17/23/30 22/28/30
f 14/17/31 23/24/31 19/25/31
f 15/18/32 19/25/32 20/26/32
f 16/21/33 20/26/33 21/27/33
f 17/22/34 21/27/34 22/29/34
f 18/20/35 22/28/35 23/24/35
f 19/25/36 23/24/36 24/30/36
f 20/26/37 19/25/37 24/30/37
f 21/31/38 20/26/38 24/30/38
f 22/28/39 21/31/39 24/30/39
f 23/24/40 22/28/40 24/30/40
v 0.711136 -1.532121 0.902676
v 0.869739 -1.415275 1.085610
v 0.639143 -1.433668 1.198673
v 0.496624 -1.445036 0.902676
v 0.639143 -1.433668 0.606679
v 0.869739 -1.415275 0.719742
v 0.753249 -1.255974 1.198673
v 0.522653 -1.274367 1.085610
v 0.522653 -1.274367 0.719742
v 0.753249 -1.255974 0.606679
v 0.895769 -1.244606 0.902676
v 0.681256 -1.157520 0.902676
vt 0.905377 0.256761
vt 0.937766 0.280058
vt 0.922307 0.282019
vt 0.877436 0.280458
vt 0.907458 0.283568
vt 0.892691 0.282639
vt 0.861617 0.280058
vt 0.869384 0.302369
vt 0.846158 0.282019
vt 0.854616 0.303299
vt 0.831309 0.283568
vt 0.839362 0.305479
vt 0.899691 0.305880
vt 0.884233 0.303919
vt 0.915511 0.305479
vt 0.867302 0.329177
vn 0.248000 -0.899600 0.359500
vn 0.593100 -0.805100 0.000000
vn -0.367600 -0.905500 0.211800
vn -0.367600 -0.905500 -0.211800
vn 0.248000 -0.899600 -0.359500
vn 0.988600 -0.150800 0.000000
vn 0.440400 -0.282800 0.852100
vn -0.848200 -0.321600 0.420800
vn -0.848200 -0.321600 -0.420800
vn 0.440400 -0.282800 -0.852100
vn 0.848200 0.321600 0.420800
vn -0.440400 0.282800 0.852100
vn -0.988600 0.150800 0.000000
vn -0.440400 0.282800 -0.852100
vn 0.848200 0.321600 -0.420800
vn 0.367600 0.905500 0.211800
vn -0.248000 0.899600 0.359500
vn -0.593100 0.805100 0.000000
vn -0.248000 0.899600 -0.359500
vn 0.367600 0.905500 -0.211800
s off
f 25/32/41 26/33/41 27/34/41
f 26/33/42 25/32/42 30/35/42
f 25/32/43 27/34/43 28/36/43
f 25/32/44 28/36/44 29/37/44
f 25/32/45 29/37/45 30/35/45
f 26/38/46 30/35/46 35/39/46
f 27/40/47 26/38/47 31/41/47
f 28/42/48 27/40/48 32/43/48
f 29/37/49 28/36/49 33/44/49
f 30/35/50 29/37/50 34/45/50
f 26/38/51 35/39/51 31/41/51
f 27/40/52 31/41/52 32/43/52
f 28/36/53 32/46/53 33/44/53
f 29/37/54 33/44/54 34/45/54
f 30/35/55 34/45/55 35/39/55
f 31/41/56 35/39/56 36/47/56
f 32/43/57 31/41/57 36/47/57
f 33/44/58 32/46/58 36/47/58
f 34/45/59 33/44/59 36/47/59
f 35/39/60 34/45/60 36/47/60
v -2.405145 -1.275730 -0.155646
v -2.218895 -1.259399 -0.091027
v -2.364313 -1.428881 -0.104627
v -2.545584 -1.413913 -0.069831
v -2.512192 -1.235177 -0.034726
v -2.310288 -1.139684 -0.047826
v -2.244224 -1.387489 0.034726
v -2.446128 -1.482982 0.047826
v -2.537521 -1.363267 0.091026
v -2.392103 -1.193785 0.104627
v -2.210832 -1.208753 0.069831
v -2.351271 -1.346936 0.155646
vt 0.628894 0.500204
vt 0.641274 0.475735
vt 0.644957 0.507635
vt 0.615973 0.476930
vt 0.629693 0.532761
vt 0.612931 0.509033
vt 0.675913 0.467239
vt 0.659152 0.490967
vt 0.662194 0.523070
vt 0.595053 0.524265
vt 0.598736 0.492365
vt 0.583472 0.467239
vt 0.566711 0.490967
vt 0.582673 0.499796
vt 0.569753 0.523070
vn 0.336900 -0.215500 -0.916500
vn 0.247000 0.490200 -0.835900
vn -0.204400 -0.358000 -0.911100
vn -0.677500 0.261600 -0.687500
vn -0.379200 0.722500 -0.578000
vn 0.728400 0.642200 -0.238700
vn 0.700200 -0.565900 -0.435300
vn -0.151700 -0.903000 -0.401900
vn -0.982600 0.185400 -0.009100
vn -0.420600 0.902300 0.094500
vn 0.982600 -0.185400 0.009100
vn 0.420600 -0.902300 -0.094500
vn -0.728400 -0.642200 0.238700
vn -0.700200 0.565900 0.435300
vn 0.151700 0.903000 0.401900
vn 0.677500 -0.261600 0.687500
vn 0.379200 -0.722500 0.578000
vn -0.247000 -0.490200 0.835900
vn -0.336900 0.215500 0.916500
vn 0.204400 0.358000 0.911100
s off
f 37/48/61 38/49/61 39/50/61
f 38/49/62 37/48/62 42/51/62
f 37/48/63 39/50/63 40/52/63
f 37/48/64 40/52/64 41/53/64
f 37/48/65 41/53/65 42/51/65
f 38/49/66 42/51/66 47/54/66
f 39/50/67 38/49/67 43/55/67
f 40/52/68 39/50/68 44/56/68
f 41/53/69 40/52/69 45/57/69
f 42/51/70 41/53/70 46/58/70
f 38/49/71 47/54/71 43/55/71
f 39/50/72 43/55/72 44/56/72
f 40/52/73 44/56/73 45/57/73
f 41/53/74 45/57/74 46/58/74
f 42/51/75 46/58/75 47/59/75
f 43/60/76 47/59/76 48/61/76
f 44/62/77 43/60/77 48/61/77
f 45/57/78 44/62/78 48/61/78
f 46/58/79 45/57/79 48/61/79
f 47/59/80 46/58/80 48/61/80
v -0.876882 -1.482301 2.050590
v -0.766225 -1.443075 2.262392
v -1.030778 -1.424749 2.238464
v -1.076875 -1.382789 1.970033
v -0.840807 -1.375184 1.828064
v -0.648818 -1.412442 2.008753
v -0.897829 -1.319320 2.312738
v -1.089819 -1.282061 2.132049
v -0.972412 -1.251429 1.878410
v -0.707859 -1.269755 1.902337
v -0.661761 -1.311714 2.170769
v -0.861755 -1.212203 2.090212
vt 0.359891 0.282727
vt 0.327086 0.313203
vt 0.401136 0.312724
vt 0.345696 0.314910
vt 0.382287 0.314155
vt 0.363934 0.315483
vt 0.335735 0.341499
vt 0.308033 0.312724
vt 0.317383 0.340170
vt 0.289183 0.314155
vt 0.299144 0.340744
vt 0.270831 0.315483
vt 0.280534 0.342450
vt 0.354584 0.342930
vt 0.373637 0.342450
vt 0.313339 0.372926
vn -0.087600 -0.970300 0.225500
vn 0.296500 -0.954800 0.021900
vn -0.422100 -0.904000 -0.068800
vn -0.244500 -0.857600 -0.452500
vn 0.201100 -0.895000 -0.398200
vn 0.837300 -0.431900 0.335400
vn -0.111800 -0.474200 0.873300
vn -0.945200 -0.305700 0.114500
vn -0.501500 -0.189900 -0.844100
vn 0.628200 -0.281100 -0.725500
vn 0.501500 0.189900 0.844100
vn -0.628200 0.281100 0.725500
vn -0.837300 0.431900 -0.335400
vn 0.111800 0.474200 -0.873300
vn 0.945200 0.305700 -0.114500
vn 0.244500 0.857600 0.452500
vn -0.201100 0.895000 0.398200
vn -0.296500 0.954800 -0.021900
vn 0.087600 0.970300 -0.225500
vn 0.422100 0.904000 0.068800
s off
f 49/63/81 50/64/81 51/65/81
f 50/64/82 49/63/82 54/66/82
f 49/63/83 51/65/83 52/67/83
f 49/63/84 52/67/84 53/68/84
f 49/63/85 53/68/85 54/66/85
f 50/64/86 54/66/86 59/69/86
f 51/70/87 50/64/87 55/71/87
f 52/72/88 51/70/88 56/73/88
f 53/74/89 52/72/89 57/75/89
f 54/66/90 53/68/90 58/76/90
f 50/64/91 59/69/91 55/71/91
f 51/70/92 55/71/92 56/73/92
f 52/72/93 56/73/93 57/75/93
f 53/68/94 57/77/94 58/76/94
f 54/66/95 58/76/95 59/69/95
f 55/71/96 59/69/96 60/78/96
f 56/73/97 55/71/97 60/78/97
f 57/75/98 56/73/98 60/78/98
f 58/76/99 57/77/99 60/78/99
f 59/69/100 58/76/100 60/78/100
v 3.281899 -1.158688 0.179804
v 3.136370 -1.237266 0.277772
v 3.296441 -1.213379 0.389456
v 3.446805 -1.204955 0.215991
v 3.379661 -1.223637 -0.002900
v 3.187803 -1.243606 0.035285
v 3.211334 -1.332098 0.374508
v 3.403193 -1.312129 0.336323
v 3.454625 -1.318469 0.093837
v 3.294555 -1.342356 -0.017847
v 3.144190 -1.350780 0.155617
v 3.309096 -1.397047 0.191805
vt 0.269486 0.323805
vt 0.288781 0.344408
vt 0.274896 0.349079
vt 0.304396 0.340507
vt 0.261308 0.348442
vt 0.247203 0.343279
vt 0.215595 0.344408
vt 0.231210 0.340507
vt 0.224715 0.363221
vt 0.201711 0.349079
vt 0.210610 0.368384
vt 0.267803 0.371157
vt 0.252188 0.367255
vt 0.238304 0.362585
vt 0.283795 0.368384
vt 0.232893 0.387859
vn -0.317400 0.912000 0.259900
vn -0.540100 0.830500 -0.136300
vn 0.215100 0.948500 0.232500
vn 0.301000 0.937900 -0.172400
vn -0.175000 0.894400 -0.411600
vn -0.965100 0.158200 -0.208800
vn -0.574100 0.316500 0.755100
vn 0.680200 0.407400 0.609400
vn 0.873200 0.383600 -0.300600
vn -0.215000 0.272200 -0.937900
vn -0.873200 -0.383600 0.300600
vn 0.215000 -0.272200 0.937900
vn 0.965100 -0.158200 0.208800
vn 0.574100 -0.316500 -0.755100
vn -0.680200 -0.407400 -0.609400
vn -0.301000 -0.937900 0.172400
vn 0.175000 -0.894400 0.411600
vn 0.540100 -0.830500 0.136300
vn 0.317400 -0.912000 -0.259900
vn -0.215100 -0.948500 -0.232500
s off
f 61/79/101 62/80/101 63/81/101
f 62/80/102 61/79/102 66/82/102
f 61/79/103 63/81/103 64/83/103
f 61/79/104 64/83/104 65/84/104
f 61/79/105 65/84/105 66/82/105
f 62/85/106 66/86/106 71/87/106
f 63/88/107 62/85/107 67/89/107
f 64/83/108 63/81/108 68/90/108
f 65/84/109 64/83/109 69/91/109
f 66/86/110 65/84/110 70/92/110
f 62/85/111 71/87/111 67/89/111
f 63/81/112 67/93/112 68/90/112
f 64/83/113 68/90/113 69/91/113
f 65/84/114 69/91/114 70/92/114
f 66/86/115 70/92/115 71/87/115
f 67/89/116 71/87/116 72/94/116
f 68/90/117 67/93/117 72/94/117
f 69/91/118 68/90/118 72/94/118
f 70/92/119 69/91/119 72/94/119
f 71/87/120 70/92/120 72/94/120
v 0.000000 -1.414803 0.000000
v 0.835410 -1.203443 0.550368
v -0.276388 -1.204539 0.850649
v -1.047004 -1.268036 0.000000
v -0.300546 -1.178478 -0.890523
v 0.835410 -1.192032 -0.550368
v 0.296239 -0.864614 0.877764
v -0.783780 -0.809779 0.543206
v -0.870949 -0.831836 -0.568668
v 0.276388 -0.782330 -0.850649
v 1.091605 -0.919563 0.000000
v 0.000000 -0.508355 0.000000
v -0.253171 -1.298715 0.750152
v -0.176655 -1.372660 0.523432
v -0.081353 -1.409492 0.250382
v 0.220070 -1.451641 0.159888
v 0.439663 -1.408734 0.319286
v 0.618615 -1.281585 0.442856
v 0.605435 -1.234388 0.737397
v 0.272683 -1.264675 0.807935
v -0.033302 -1.202828 0.934773
v 1.011990 -1.289922 -0.319354
v 0.923227 -1.257236 0.000000
v 0.907971 -1.250866 0.305054
v 0.220070 -1.435881 -0.159888
v 0.425419 -1.359721 -0.309011
v 0.668434 -1.261526 -0.456972
v -0.875145 -1.308562 0.000000
v -0.528163 -1.365284 0.000000
v -0.260523 -1.428296 0.000000
v -0.528732 -1.221308 0.750153
v -0.780853 -1.227699 0.541559
v -0.993379 -1.278259 0.258708
v -0.240563 -1.269013 -0.740389
v -0.174124 -1.355689 -0.515933
v -0.087196 -1.414860 -0.258363
v -1.041468 -1.296512 -0.258364
v -0.737592 -1.212227 -0.516622
v -0.484901 -1.198587 -0.716565
v -0.033302 -1.170571 -0.934773
v 0.271609 -1.188059 -0.835911
v 0.605435 -1.182042 -0.737397
v 1.119601 -1.017367 0.152527
v 1.131700 -1.126507 0.323928
v 1.044607 -1.192203 0.463616
v 1.039329 -1.191734 -0.479670
v 1.066277 -1.098394 -0.309013
v 1.119601 -1.017172 -0.152527
v 0.155215 -0.918126 0.955422
v 0.000000 -0.984784 0.998669
v -0.166363 -1.103666 0.985876
v 0.708433 -1.107930 0.681715
v 0.641639 -1.015455 0.834804
v 0.436175 -0.954980 0.864188
v -0.982962 -0.958780 0.442268
v -1.066277 -1.092289 0.309013
v -1.119601 -1.217800 0.152527
v -0.472914 -1.123601 0.936023
v -0.594570 -0.994929 0.809017
v -0.815678 -0.900216 0.737400
v -0.769492 -0.893744 -0.703445
v -0.652088 -0.987701 -0.846939
v -0.467892 -1.101840 -0.891734
v -1.239717 -1.265745 -0.159676
v -1.111424 -1.110470 -0.319287
v -1.044607 -0.981912 -0.463616
v 0.490967 -0.855367 -0.934777
v 0.616145 -0.964565 -0.835916
v 0.779418 -1.095614 -0.738382
v -0.155215 -1.077763 -0.955422
v 0.000000 -0.955634 -1.033250
v 0.160376 -0.849327 -0.987190
v 0.895853 -0.829064 0.238853
v 0.780853 -0.783444 0.541559
v 0.508986 -0.828899 0.751153
v 0.031070 -0.776352 0.905898
v -0.281749 -0.772249 0.834799
v -0.581897 -0.771364 0.738379
v -0.965108 -0.838012 0.319779
v -1.009980 -0.847289 0.000000
v -0.907971 -0.820923 -0.305054
v -0.581897 -0.784717 -0.738379
v -0.285845 -0.798696 -0.846934
v 0.031070 -0.750055 -0.905898
v 0.528732 -0.759133 -0.750153
v 0.737592 -0.762017 -0.516622
v 0.939316 -0.841791 -0.238536
v 0.087196 -0.537598 0.258363
v 0.174124 -0.630723 0.515933
v 0.253171 -0.761015 0.750152
v 0.875145 -0.739497 0.000000
v 0.528163 -0.635601 0.000000
v 0.282179 -0.561959 0.000000
v -0.209937 -0.552534 0.152526
v -0.425419 -0.638380 0.309011
v -0.679521 -0.708495 0.463615
v -0.217774 -0.560315 -0.152323
v -0.456257 -0.636473 -0.318861
v -0.641424 -0.710294 -0.457581
v 0.087196 -0.526044 -0.258363
v 0.167857 -0.591911 -0.516620
v 0.244060 -0.689757 -0.751151
v 0.055339 -1.299578 0.721404
v 0.155275 -1.411060 0.460062
v 0.387793 -1.366214 0.606515
v 0.688937 -1.290760 -0.162457
v 0.727904 -1.304405 0.170299
v 0.487289 -1.397076 0.000001
v -0.675528 -1.308403 0.271604
v -0.375309 -1.410249 0.262515
v -0.469394 -1.330667 0.551105
v -0.462560 -1.309859 -0.543207
v -0.375308 -1.392187 -0.262513
v -0.716668 -1.295436 -0.275184
v 0.387792 -1.295399 -0.606515
v 0.144867 -1.358848 -0.445851
v 0.054544 -1.269887 -0.711068
v 1.203473 -1.155908 0.000000
v 1.172489 -1.259138 0.175962
v 1.172489 -1.259054 -0.175962
v 0.347200 -1.068143 1.028741
v 0.142794 -1.133202 0.982677
v 0.480154 -1.165634 0.877763
v -0.946450 -1.046238 0.606519
v -0.938931 -1.154830 0.425324
v -0.688939 -1.105019 0.688191
v -0.959401 -1.050542 -0.636642
v -0.756925 -1.108330 -0.745396
v -0.998051 -1.177045 -0.445854
v 0.334704 -0.959130 -1.030112
v 0.447492 -1.077245 -0.850648
v 0.142794 -1.067096 -0.982677
v 0.760545 -0.896862 0.720448
v 0.959401 -1.058018 0.636642
v 0.938932 -0.938938 0.425323
v -0.464422 -0.891879 0.849517
v -0.320554 -1.015172 0.949791
v -0.144870 -0.872026 0.996962
v -1.111275 -0.999588 -0.162241
v -1.188344 -1.141233 0.000000
v -1.172489 -1.019169 0.175962
v -0.150278 -0.873265 -0.995635
v -0.334703 -1.008326 -1.030112
v -0.487294 -0.896049 -0.890522
v 0.998052 -0.957384 -0.445852
v 0.919609 -1.037403 -0.616154
v 0.727908 -0.867391 -0.721408
v 0.379264 -0.638169 0.275551
v 0.462558 -0.720142 0.543209
v 0.650980 -0.694148 0.262864
v -0.149685 -0.573412 0.460674
v -0.375311 -0.696362 0.586996
v -0.052790 -0.669383 0.688185
v -0.485324 -0.598479 0.000000
v -0.718955 -0.688541 -0.162241
v -0.791591 -0.681826 0.175727
v -0.144868 -0.599417 -0.445849
v -0.054545 -0.656759 -0.711067
v -0.393432 -0.716467 -0.615330
v 0.406529 -0.590891 -0.284334
v 0.745003 -0.672013 -0.284336
v 0.503946 -0.656934 -0.568671
vt 0.377882 0.000000
vt 0.650001 0.087438
vt 0.450001 0.087438
vt 0.650001 0.362676
vt 0.650001 0.284555
vt 0.694543 0.343676
vt 0.250000 0.087439
vt 0.049999 0.087438
vt 1.049999 0.087438
vt 0.849999 0.087438
vt 0.674369 0.425361
vt 0.450001 0.362676
vt 0.494544 0.343675
vt 0.474368 0.425360
vt 0.250000 0.362677
vt 0.294542 0.343676
vt 0.274367 0.425361
vt 0.049999 0.362676
vt 0.094543 0.343675
vt 0.074367 0.425360
vt 0.849999 0.362676
vt 0.894542 0.343675
vt 0.874367 0.425360
vt 0.625633 0.425360
vt 0.425633 0.425360
vt 0.225633 0.425361
vt 0.025632 0.425360
vt 0.825631 0.425361
vt 0.549999 0.637324
vt 0.594543 0.656325
vt 0.549999 0.715446
vt 0.349999 0.637324
vt 0.394542 0.656325
vt 0.349999 0.715446
vt 0.150001 0.637324
vt 0.194543 0.656324
vt 0.150001 0.715446
vt 0.950001 0.637324
vt 0.994544 0.656325
vt 0.950001 0.715446
vt 0.750000 0.637323
vt 0.794542 0.656324
vt 0.750000 0.715444
vt 0.450001 0.284554
vt 0.450001 0.188183
vt 0.512185 0.255633
vt 0.550001 0.158365
vt 0.550001 0.335332
vt 0.587817 0.255634
vt 0.605458 0.343675
vt 0.650001 0.188183
vt 0.805457 0.343676
vt 0.849999 0.284554
vt 0.750000 0.335333
vt 0.787816 0.255634
vt 0.712184 0.255634
vt 0.849999 0.188183
vt 0.750000 0.158365
vt 0.250000 0.284556
vt 0.250000 0.188184
vt 0.312184 0.255634
vt 0.350000 0.158365
vt 0.350000 0.335333
vt 0.387816 0.255634
vt 0.405458 0.343675
vt 0.049999 0.284554
vt 0.049999 0.188182
vt 0.112184 0.255633
vt 0.150000 0.158365
vt 0.150000 0.335333
vt 0.187817 0.255634
vt 0.205458 0.343676
vt 0.912183 0.255633
vt 0.949999 0.158365
vt 0.949999 0.335332
vt 0.987815 0.255634
vt 1.005456 0.343675
vt 1.049999 0.188182
vt 1.049999 0.284554
vt 0.005456 0.343675
vt 0.725633 0.574639
vt 0.774367 0.574639
vt 0.700001 0.500000
vt 0.750000 0.500000
vt 0.722966 0.417608
vt 0.799999 0.500000
vt 0.777034 0.417608
vt 0.525632 0.574640
vt 0.574367 0.574640
vt 0.500000 0.500000
vt 0.550000 0.500000
vt 0.522966 0.417608
vt 0.600000 0.500000
vt 0.577035 0.417608
vt 0.325631 0.574639
vt 0.374367 0.574640
vt 0.299999 0.500000
vt 0.350000 0.500000
vt 0.322966 0.417608
vt 0.400000 0.500000
vt 0.377034 0.417608
vt 0.125633 0.574640
vt 0.174369 0.574639
vt 0.100000 0.500000
vt 0.150000 0.500000
vt 0.122966 0.417608
vt 0.200001 0.500000
vt 0.177034 0.417608
vt 0.925633 0.574640
vt 0.974368 0.574640
vt 0.900000 0.500000
vt 0.950000 0.500000
vt 0.922965 0.417608
vt 1.000000 0.500000
vt 0.977034 0.417608
vt 1.025632 0.425360
vt 0.622966 0.582392
vt 0.650000 0.499999
vt 0.650000 0.664668
vt 0.677035 0.582391
vt 0.705458 0.656324
vt 0.422965 0.582392
vt 0.450000 0.500000
vt 0.449999 0.664668
vt 0.477034 0.582392
vt 0.505456 0.656325
vt 0.222966 0.582392
vt 0.250000 0.500000
vt 0.250000 0.664667
vt 0.277034 0.582392
vt 0.305457 0.656324
vt 1.022966 0.582392
vt 0.050000 0.500000
vt 0.000000 0.500000
vt 1.050001 0.664668
vt 0.022966 0.582392
vt 0.077035 0.582392
vt 0.050001 0.664668
vt 0.105458 0.656325
vt 0.822965 0.582392
vt 0.849999 0.500000
vt 0.850000 0.664667
vt 0.877034 0.582392
vt 0.905457 0.656325
vt 0.549999 0.912562
vt 0.750000 0.912561
vt 0.877882 1.000000
vt 0.549999 0.811818
vt 0.650000 0.841635
vt 0.612184 0.744367
vt 0.750000 0.811816
vt 0.687816 0.744366
vt 1.349999 0.912562
vt 0.349999 0.811817
vt 0.449999 0.841636
vt 0.349999 0.912562
vt 0.412183 0.744367
vt 0.487815 0.744367
vt 1.150001 0.912562
vt 0.150001 0.811817
vt 0.250000 0.841635
vt 0.150001 0.912562
vt 0.212184 0.744366
vt 0.287816 0.744366
vt 0.950001 0.912562
vt 0.950001 0.811817
vt 1.050001 0.841636
vt 1.012185 0.744367
vt 0.050001 0.841636
vt 0.012185 0.744367
vt 0.087817 0.744367
vt 0.850000 0.841635
vt 0.812184 0.744366
vt 0.887816 0.744367
vn -0.146200 -0.988900 -0.026500
vn 0.217900 -0.944200 0.247000
vn 0.051700 -0.997900 0.038000
vn 0.051700 -0.998500 -0.017200
vn -0.076500 -0.996700 0.026000
vn 0.146800 -0.962200 0.229400
vn -0.236500 -0.676700 0.697200
vn -0.474100 -0.878200 0.063600
vn -0.363000 -0.800300 -0.477200
vn 0.380600 -0.771900 -0.509200
vn 0.340000 -0.573300 0.745500
vn -0.050600 -0.780400 0.623300
vn -0.195100 -0.955400 0.221800
vn -0.159200 -0.362100 -0.918400
vn 0.170900 -0.855100 -0.489400
vn 0.208100 0.792600 0.573200
vn -0.496000 0.791400 0.357300
vn -0.428500 0.898300 -0.097400
vn 0.237900 0.748400 -0.619100
vn 0.631700 0.759400 -0.155700
vn -0.216500 -0.736800 0.640500
vn 0.027000 -0.947600 0.318200
vn -0.095400 -0.990400 0.100300
vn 0.037100 -0.904200 0.425400
vn -0.015600 -0.913100 0.407500
vn -0.034100 -0.923900 0.381100
vn -0.056600 -0.926000 0.373400
vn -0.029400 -0.899200 0.436500
vn 0.186900 -0.830100 0.525300
vn -0.104900 -0.988300 0.111000
vn 0.082800 -0.985100 0.151000
vn 0.087900 -0.983000 0.161400
vn 0.465000 -0.859700 0.211200
vn 0.438500 -0.884100 0.161300
vn 0.261500 -0.951200 0.164100
vn 0.110700 -0.881900 -0.458300
vn 0.059900 -0.991200 0.118100
vn 0.261900 -0.964500 0.033200
vn -0.043900 -0.994400 -0.095700
vn 0.311000 -0.943400 -0.115300
vn 0.183200 -0.981100 -0.061700
vn 0.410100 -0.908100 -0.085300
vn 0.341500 -0.922500 -0.179900
vn 0.236700 -0.957800 -0.163200
vn 0.175600 -0.972700 0.151800
vn 0.440800 -0.862400 0.249000
vn 0.348400 -0.937200 0.017700
vn 0.196300 -0.980500 -0.006500
vn 0.171900 -0.983900 -0.048500
vn -0.130300 -0.990300 -0.048800
vn -0.229500 -0.973300 0.009100
vn -0.160200 -0.980000 0.118300
vn -0.229000 -0.972800 -0.033300
vn -0.097100 -0.992700 0.071900
vn -0.101400 -0.963300 0.248400
vn -0.320500 -0.946900 0.024400
vn -0.313100 -0.936800 0.156300
vn -0.314300 -0.936200 0.157200
vn -0.299900 -0.871000 0.389100
vn 0.005500 -0.997500 0.071000
vn 0.008200 -0.990600 0.136500
vn -0.117100 -0.966500 0.228400
vn -0.111100 -0.955300 0.274100
vn -0.246800 -0.878500 0.409100
vn -0.207100 -0.737300 0.643100
vn -0.289400 -0.866400 -0.406900
vn -0.118000 -0.937600 -0.327100
vn -0.074000 -0.977100 -0.199500
vn -0.285100 -0.822900 -0.491500
vn -0.334500 -0.812100 -0.478100
vn -0.129900 -0.961600 -0.241700
vn -0.260600 -0.945300 -0.196200
vn -0.345100 -0.896200 -0.278900
vn -0.013700 -0.945700 -0.324700
vn -0.076600 -0.991700 -0.102900
vn -0.229000 -0.972800 -0.033700
vn -0.270200 -0.961000 -0.058800
vn -0.159800 -0.977400 -0.138600
vn 0.000900 -0.998900 -0.047100
vn -0.228300 -0.968200 0.101800
vn 0.212100 -0.926700 -0.310300
vn 0.238400 -0.942600 -0.233900
vn 0.139300 -0.946400 -0.291600
vn 0.279500 -0.905500 -0.319400
vn 0.158100 -0.861200 -0.483000
vn 0.105700 -0.969100 -0.222900
vn 0.030300 -0.944500 -0.327100
vn 0.074200 -0.888300 -0.453200
vn 0.089000 -0.896900 -0.433100
vn 0.018900 -0.964200 -0.264700
vn 0.042500 -0.970500 -0.237300
vn 0.064800 -0.939200 -0.337100
vn 0.033900 -0.928900 -0.368700
vn 0.038900 -0.907500 -0.418200
vn -0.057000 -0.864900 -0.498800
vn 0.961300 0.275400 0.000200
vn 0.914600 0.367300 0.169300
vn 0.870900 -0.221600 0.438700
vn 0.855600 0.517600 0.000300
vn 0.914700 0.133900 -0.381200
vn 0.975500 0.065500 0.210200
vn 0.957800 -0.287600 -0.000100
vn 0.889400 0.308500 -0.337400
vn 0.890500 0.325000 -0.318400
vn 0.100700 -0.958200 0.267700
vn -0.021600 -0.999600 0.019800
vn -0.007500 -1.000000 -0.000200
vn 0.079900 -0.989100 0.123500
vn 0.497400 -0.775000 -0.389900
vn 0.172200 -0.852800 -0.493000
vn 0.330400 0.381900 0.863100
vn 0.038900 0.478500 0.877200
vn 0.000100 -0.107100 0.994300
vn 0.301700 0.701600 0.645600
vn 0.299200 0.703000 0.645200
vn -0.140500 -0.238800 0.960900
vn 0.113300 -0.786200 0.607500
vn 0.554700 -0.385500 0.737400
vn 0.630700 -0.511100 0.583900
vn -0.038600 -0.498200 0.866200
vn 0.118800 -0.749000 0.651800
vn 0.133000 -0.742000 0.657100
vn 0.192800 -0.802200 0.565000
vn 0.666800 -0.231200 0.708400
vn 0.634800 -0.187000 0.749700
vn -0.654700 0.720700 0.228100
vn -0.912800 0.239700 0.330600
vn -0.717100 -0.403700 0.568100
vn -0.831600 0.392000 0.393600
vn -0.424300 -0.363400 0.829400
vn -0.658000 -0.657600 0.366800
vn -0.336100 -0.813900 0.473900
vn -0.363900 -0.529300 0.766500
vn -0.754600 -0.069300 0.652500
vn -0.690800 -0.454500 0.562400
vn -0.651400 -0.492100 0.577400
vn -0.653000 -0.327100 0.683000
vn -0.573900 -0.414300 0.706400
vn -0.626800 -0.596200 0.501600
vn -0.139400 -0.858700 0.493200
vn -0.678600 0.323600 -0.659400
vn -0.573400 0.386700 -0.722300
vn -0.417900 -0.344500 -0.840700
vn -0.642000 0.549900 -0.534300
vn -0.900100 -0.020600 -0.435100
vn -0.512300 -0.247100 -0.822500
vn -0.488400 -0.678400 -0.548800
vn -0.769900 -0.448800 -0.453600
vn -0.756100 -0.046400 -0.652800
vn -0.228000 -0.842800 -0.487600
vn -0.254300 -0.888500 -0.382000
vn -0.225900 -0.894000 -0.386900
vn -0.258600 -0.786400 -0.561000
vn -0.391100 -0.732500 -0.557300
vn -0.100300 -0.989200 0.106900
vn 0.095400 0.859200 -0.502600
vn 0.564100 -0.095900 -0.820100
vn 0.288600 -0.313700 -0.904600
vn 0.140900 0.546400 -0.825600
vn 0.012600 0.381400 -0.924300
vn 0.451600 -0.588200 -0.670900
vn 0.252000 -0.728000 -0.637500
vn 0.004300 -0.408600 -0.912700
vn -0.063000 -0.478200 -0.876000
vn 0.249700 -0.512000 -0.821900
vn 0.252000 -0.509400 -0.822800
vn 0.305900 -0.585300 -0.750900
vn 0.195300 -0.665800 -0.720100
vn -0.075600 -0.310100 -0.947700
vn -0.139600 -0.386200 -0.911800
vn 0.387200 0.481400 0.786400
vn 0.268200 0.515700 0.813700
vn 0.257800 -0.773100 0.579500
vn 0.248300 0.563200 0.788100
vn 0.280500 0.795900 0.536500
vn 0.536600 0.241600 0.808500
vn 0.674100 0.669500 0.312000
vn 0.775200 0.490000 0.398700
vn 0.756600 0.624700 0.193300
vn 0.258700 -0.697400 0.668300
vn 0.863700 -0.090800 0.495800
vn 0.740800 0.613300 0.273900
vn 0.741800 0.588200 0.322200
vn 0.678100 0.690900 0.250500
vn 0.679400 0.668000 0.303700
vn -0.459600 0.831600 0.311800
vn -0.304300 0.009900 0.952500
vn -0.385000 0.437900 0.812400
vn -0.275200 0.493000 0.825400
vn -0.263000 0.502900 0.823400
vn -0.435200 0.205100 0.876600
vn -0.419700 0.225400 0.879200
vn -0.357200 0.630300 0.689300
vn -0.124600 0.794700 0.594100
vn -0.166500 0.109500 0.979900
vn -0.160700 0.119500 0.979700
vn -0.134200 -0.157600 0.978300
vn 0.168100 0.230500 0.958500
vn 0.191400 0.468800 0.862300
vn 0.257300 0.511600 0.819800
vn -0.691300 0.711400 -0.126500
vn -0.942400 0.273800 -0.192400
vn -0.832000 0.534300 -0.149000
vn -0.699600 0.705500 -0.113400
vn -0.718200 0.671600 -0.182100
vn -0.938300 0.282800 -0.198800
vn -0.930200 0.335500 -0.148900
vn -0.773600 0.625100 -0.103800
vn -0.685100 0.724600 0.075100
vn -0.924400 -0.093000 0.369900
vn -0.923000 -0.077800 0.376900
vn -0.800700 -0.456100 0.388500
vn -0.801800 -0.089400 0.590900
vn -0.744500 0.526400 0.410500
vn -0.668900 0.575700 0.470100
vn 0.233400 0.779800 -0.580900
vn -0.006400 0.405700 -0.914000
vn 0.089200 -0.613400 -0.784700
vn -0.025800 0.613000 -0.789600
vn -0.229000 0.770400 -0.595100
vn -0.059600 0.322600 -0.944700
vn -0.278600 0.576500 -0.768200
vn -0.238900 0.763100 -0.600500
vn -0.207200 0.723600 -0.658400
vn -0.060300 -0.799200 -0.598100
vn -0.466900 -0.456100 -0.757600
vn -0.437300 0.404300 -0.803300
vn -0.473000 0.508200 -0.719700
vn -0.454500 0.560200 -0.692500
vn -0.472800 0.609800 -0.636100
vn 0.734300 0.624900 -0.265100
vn 0.926400 0.094300 -0.364600
vn 0.864600 0.370700 -0.339300
vn 0.727100 0.666300 -0.165500
vn 0.623400 0.744600 -0.238600
vn 0.903900 0.022900 -0.427100
vn 0.704600 0.459800 -0.540600
vn 0.618700 0.686300 -0.382400
vn 0.479500 0.770900 -0.419300
vn 0.679400 -0.114100 -0.724900
vn 0.604700 0.175100 -0.777000
vn 0.606000 0.207900 -0.767900
vn 0.668600 0.099300 -0.736900
vn 0.471200 0.739000 -0.481600
vn 0.109800 0.872000 -0.477000
vn 0.186400 0.981300 0.048200
vn 0.304600 0.924000 0.231300
vn 0.234300 0.881000 0.411000
vn 0.314100 0.937700 0.148700
vn 0.283000 0.945400 0.161700
vn 0.272300 0.940500 0.203300
vn 0.206700 0.951700 0.227100
vn 0.205700 0.971200 0.120200
vn 0.285900 0.955000 0.079100
vn 0.232500 0.882200 0.409500
vn 0.178700 0.887700 0.424400
vn 0.191500 0.957100 0.217400
vn 0.485900 0.872400 0.053100
vn 0.484800 0.831900 0.269900
vn 0.622900 0.748700 0.226800
vn -0.101300 0.984100 0.145600
vn -0.290300 0.949300 0.121100
vn -0.129700 0.965700 0.224800
vn -0.079400 0.993400 0.082800
vn 0.115700 0.946000 0.303000
vn -0.350800 0.902100 0.251400
vn -0.215300 0.863600 0.456000
vn 0.105500 0.931500 0.348000
vn 0.177300 0.884200 0.432000
vn -0.147500 0.951500 0.270100
vn -0.102100 0.939700 0.326300
vn -0.187000 0.917300 0.351500
vn -0.094900 0.878500 0.468200
vn 0.196900 0.907800 0.370200
vn 0.317800 0.785800 0.530600
vn -0.219300 0.975500 -0.019300
vn -0.214700 0.967300 -0.134800
vn -0.273100 0.951500 -0.141800
vn -0.153000 0.988000 -0.021300
vn -0.254100 0.951700 0.172200
vn -0.271200 0.952500 -0.138200
vn -0.306600 0.948100 -0.084700
vn -0.173200 0.971900 0.159100
vn -0.172600 0.972400 0.157300
vn -0.465500 0.865300 -0.185900
vn -0.518900 0.848900 -0.100100
vn -0.529900 0.838000 -0.130500
vn -0.636200 0.768600 0.067000
vn -0.508100 0.816700 0.273500
vn -0.521000 0.790100 0.323000
vn -0.151400 0.981400 -0.118300
vn -0.084300 0.958900 -0.270900
vn 0.052900 0.927600 -0.369800
vn -0.168600 0.970700 -0.171200
vn -0.186500 0.966700 -0.175100
vn -0.076600 0.968800 -0.235500
vn -0.243500 0.927500 -0.283500
vn -0.232100 0.925600 -0.298900
vn -0.160100 0.944000 -0.288600
vn 0.044600 0.908500 -0.415400
vn -0.221400 0.838100 -0.498600
vn -0.273500 0.859300 -0.432100
vn -0.092400 0.924000 -0.371000
vn -0.157100 0.945900 -0.284000
vn -0.325600 0.894600 -0.306100
vn 0.186600 0.982400 -0.004300
vn 0.286700 0.957600 0.027900
vn 0.285500 0.953600 0.095600
vn 0.198000 0.980100 -0.013200
vn 0.180500 0.965100 -0.189700
vn 0.232700 0.971100 0.053100
vn 0.230600 0.962300 -0.144500
vn 0.161700 0.972000 -0.170400
vn 0.126100 0.929400 -0.346800
vn 0.669700 0.730600 -0.133100
vn 0.667700 0.686700 -0.287400
vn 0.447600 0.828900 -0.335500
vn 0.448600 0.803600 -0.391300
vn 0.212100 0.863600 -0.457400
vn 0.184700 0.748700 -0.636600
s off
f 73/95/121 88/96/121 87/97/121
f 74/98/122 90/99/122 96/100/122
f 73/95/123 87/97/123 102/101/123
f 73/95/124 102/101/124 108/102/124
f 73/95/125 108/103/125 97/104/125
f 74/98/126 96/100/126 117/105/126
f 75/106/127 93/107/127 123/108/127
f 76/109/128 105/110/128 129/111/128
f 77/112/129 111/113/129 135/114/129
f 78/115/130 114/116/130 141/117/130
f 74/98/131 117/105/131 124/118/131
f 75/106/132 123/108/132 130/119/132
f 76/109/133 129/111/133 136/120/133
f 77/112/134 135/114/134 142/121/134
f 78/115/135 141/117/135 118/122/135
f 79/123/136 147/124/136 162/125/136
f 80/126/137 150/127/137 168/128/137
f 81/129/138 153/130/138 171/131/138
f 82/132/139 156/133/139 174/134/139
f 83/135/140 159/136/140 163/137/140
f 85/138/141 93/107/141 75/106/141
f 86/139/142 175/140/142 85/138/142
f 87/97/143 176/141/143 86/139/143
f 85/138/144 175/140/144 93/107/144
f 175/140/145 92/142/145 93/107/145
f 86/139/146 176/141/146 175/140/146
f 176/141/147 177/143/147 175/140/147
f 175/140/148 177/143/148 92/142/148
f 177/143/149 91/144/149 92/142/149
f 87/97/150 88/96/150 176/141/150
f 88/96/151 89/145/151 176/141/151
f 176/141/152 89/145/152 177/143/152
f 89/145/153 90/99/153 177/143/153
f 177/143/154 90/99/154 91/144/154
f 90/99/155 74/98/155 91/144/155
f 94/146/156 99/147/156 78/115/156
f 95/148/157 178/149/157 94/146/157
f 96/100/158 179/150/158 95/148/158
f 94/146/159 178/149/159 99/147/159
f 178/149/160 98/151/160 99/147/160
f 95/148/161 179/150/161 178/149/161
f 179/150/162 180/152/162 178/149/162
f 178/149/163 180/152/163 98/151/163
f 180/152/164 97/104/164 98/151/164
f 96/100/165 90/99/165 179/150/165
f 90/99/166 89/145/166 179/150/166
f 179/150/167 89/145/167 180/152/167
f 89/145/168 88/96/168 180/152/168
f 180/152/169 88/96/169 97/104/169
f 88/96/170 73/95/170 97/104/170
f 100/153/171 105/110/171 76/109/171
f 101/154/172 181/155/172 100/153/172
f 102/101/173 182/156/173 101/154/173
f 100/153/174 181/155/174 105/110/174
f 181/155/175 104/157/175 105/110/175
f 101/154/176 182/156/176 181/155/176
f 182/156/177 183/158/177 181/155/177
f 181/155/178 183/158/178 104/157/178
f 183/158/179 103/159/179 104/157/179
f 102/101/180 87/97/180 182/156/180
f 87/97/181 86/139/181 182/156/181
f 182/156/182 86/139/182 183/158/182
f 86/139/183 85/138/183 183/158/183
f 183/158/184 85/138/184 103/159/184
f 85/138/185 75/106/185 103/159/185
f 106/160/186 111/113/186 77/112/186
f 107/161/187 184/162/187 106/160/187
f 108/102/188 185/163/188 107/161/188
f 106/160/189 184/162/189 111/113/189
f 184/162/190 110/164/190 111/113/190
f 107/161/191 185/163/191 184/162/191
f 185/163/192 186/165/192 184/162/192
f 184/162/193 186/165/193 110/164/193
f 186/165/194 109/166/194 110/164/194
f 108/102/195 102/101/195 185/163/195
f 102/101/196 101/154/196 185/163/196
f 185/163/197 101/154/197 186/165/197
f 101/154/198 100/153/198 186/165/198
f 186/165/199 100/153/199 109/166/199
f 100/153/200 76/109/200 109/166/200
f 99/147/201 114/116/201 78/115/201
f 98/151/202 187/167/202 99/147/202
f 97/104/203 188/168/203 98/151/203
f 99/147/204 187/167/204 114/116/204
f 187/167/205 113/169/205 114/116/205
f 98/151/206 188/168/206 187/167/206
f 188/168/207 189/170/207 187/167/207
f 187/167/208 189/170/208 113/169/208
f 189/170/209 112/171/209 113/169/209
f 97/104/210 108/103/210 188/168/210
f 108/103/211 107/172/211 188/168/211
f 188/168/212 107/172/212 189/170/212
f 107/172/213 106/173/213 189/170/213
f 189/170/214 106/173/214 112/171/214
f 106/160/215 77/112/215 112/174/215
f 115/175/216 120/176/216 83/135/216
f 116/177/217 190/178/217 115/175/217
f 117/105/218 191/179/218 116/177/218
f 115/175/219 190/178/219 120/176/219
f 190/178/220 119/180/220 120/176/220
f 116/177/221 191/179/221 190/178/221
f 191/179/222 192/181/222 190/178/222
f 190/178/223 192/181/223 119/180/223
f 192/181/224 118/122/224 119/180/224
f 117/105/225 96/100/225 191/179/225
f 96/100/226 95/148/226 191/179/226
f 191/179/227 95/148/227 192/181/227
f 95/148/228 94/146/228 192/181/228
f 192/181/229 94/146/229 118/122/229
f 94/146/230 78/115/230 118/122/230
f 121/182/231 126/183/231 79/123/231
f 122/184/232 193/185/232 121/182/232
f 123/108/233 194/186/233 122/184/233
f 121/182/234 193/185/234 126/183/234
f 193/185/235 125/187/235 126/183/235
f 122/184/236 194/186/236 193/185/236
f 194/186/237 195/188/237 193/185/237
f 193/185/238 195/188/238 125/187/238
f 195/188/239 124/118/239 125/187/239
f 123/108/240 93/107/240 194/186/240
f 93/107/241 92/142/241 194/186/241
f 194/186/242 92/142/242 195/188/242
f 92/142/243 91/144/243 195/188/243
f 195/188/244 91/144/244 124/118/244
f 91/144/245 74/98/245 124/118/245
f 127/189/246 132/190/246 80/126/246
f 128/191/247 196/192/247 127/189/247
f 129/111/248 197/193/248 128/191/248
f 127/189/249 196/192/249 132/190/249
f 196/192/250 131/194/250 132/190/250
f 128/191/251 197/193/251 196/192/251
f 197/193/252 198/195/252 196/192/252
f 196/192/253 198/195/253 131/194/253
f 198/195/254 130/119/254 131/194/254
f 129/111/255 105/110/255 197/193/255
f 105/110/256 104/157/256 197/193/256
f 197/193/257 104/157/257 198/195/257
f 104/157/258 103/159/258 198/195/258
f 198/195/259 103/159/259 130/119/259
f 103/159/260 75/106/260 130/119/260
f 133/196/261 138/197/261 81/129/261
f 134/198/262 199/199/262 133/196/262
f 135/114/263 200/200/263 134/198/263
f 133/196/264 199/199/264 138/197/264
f 199/199/265 137/201/265 138/197/265
f 134/198/266 200/200/266 199/199/266
f 200/200/267 201/202/267 199/199/267
f 199/199/268 201/202/268 137/201/268
f 201/202/269 136/120/269 137/201/269
f 135/114/270 111/113/270 200/200/270
f 111/113/271 110/164/271 200/200/271
f 200/200/272 110/164/272 201/202/272
f 110/164/273 109/166/273 201/202/273
f 201/202/274 109/166/274 136/120/274
f 109/166/275 76/109/275 136/120/275
f 139/203/276 144/204/276 82/132/276
f 140/205/277 202/206/277 139/203/277
f 141/117/278 203/207/278 140/205/278
f 139/203/279 202/206/279 144/204/279
f 202/206/280 143/208/280 144/204/280
f 140/205/281 203/207/281 202/206/281
f 203/207/282 204/209/282 202/206/282
f 202/206/283 204/209/283 143/208/283
f 204/209/284 142/210/284 143/208/284
f 141/117/285 114/116/285 203/207/285
f 114/116/286 113/169/286 203/207/286
f 203/207/287 113/169/287 204/209/287
f 113/169/288 112/171/288 204/209/288
f 204/209/289 112/171/289 142/210/289
f 112/174/290 77/112/290 142/121/290
f 126/183/291 147/124/291 79/123/291
f 125/187/292 205/211/292 126/183/292
f 124/118/293 206/212/293 125/187/293
f 126/183/294 205/211/294 147/124/294
f 205/211/295 146/213/295 147/124/295
f 125/187/296 206/212/296 205/211/296
f 206/212/297 207/214/297 205/211/297
f 205/211/298 207/214/298 146/213/298
f 207/214/299 145/215/299 146/213/299
f 124/118/300 117/105/300 206/212/300
f 117/105/301 116/177/301 206/212/301
f 206/212/302 116/177/302 207/214/302
f 116/177/303 115/175/303 207/214/303
f 207/214/304 115/175/304 145/215/304
f 115/175/305 83/135/305 145/215/305
f 132/190/306 150/127/306 80/126/306
f 131/194/307 208/216/307 132/190/307
f 130/119/308 209/217/308 131/194/308
f 132/190/309 208/216/309 150/127/309
f 208/216/310 149/218/310 150/127/310
f 131/194/311 209/217/311 208/216/311
f 209/217/312 210/219/312 208/216/312
f 208/216/313 210/219/313 149/218/313
f 210/219/314 148/220/314 149/218/314
f 130/119/315 123/108/315 209/217/315
f 123/108/316 122/184/316 209/217/316
f 209/217/317 122/184/317 210/219/317
f 122/184/318 121/182/318 210/219/318
f 210/219/319 121/182/319 148/220/319
f 121/182/320 79/123/320 148/220/320
f 138/197/321 153/130/321 81/129/321
f 137/201/322 211/221/322 138/197/322
f 136/120/323 212/222/323 137/201/323
f 138/197/324 211/221/324 153/130/324
f 211/221/325 152/223/325 153/130/325
f 137/201/326 212/222/326 211/221/326
f 212/222/327 213/224/327 211/221/327
f 211/221/328 213/224/328 152/223/328
f 213/224/329 151/225/329 152/223/329
f 136/120/330 129/111/330 212/222/330
f 129/111/331 128/191/331 212/222/331
f 212/222/332 128/191/332 213/224/332
f 128/191/333 127/189/333 213/224/333
f 213/224/334 127/189/334 151/225/334
f 127/189/335 80/126/335 151/225/335
f 144/204/336 156/133/336 82/132/336
f 143/208/337 214/226/337 144/204/337
f 142/121/338 215/227/338 143/228/338
f 144/204/339 214/226/339 156/133/339
f 214/226/340 155/229/340 156/133/340
f 143/228/341 215/227/341 214/230/341
f 215/227/342 216/231/342 214/230/342
f 214/230/343 216/231/343 155/232/343
f 216/231/344 154/233/344 155/232/344
f 142/121/345 135/114/345 215/227/345
f 135/114/346 134/198/346 215/227/346
f 215/227/347 134/198/347 216/231/347
f 134/198/348 133/196/348 216/231/348
f 216/231/349 133/196/349 154/233/349
f 133/196/350 81/129/350 154/233/350
f 120/176/351 159/136/351 83/135/351
f 119/180/352 217/234/352 120/176/352
f 118/122/353 218/235/353 119/180/353
f 120/176/354 217/234/354 159/136/354
f 217/234/355 158/236/355 159/136/355
f 119/180/356 218/235/356 217/234/356
f 218/235/357 219/237/357 217/234/357
f 217/234/358 219/237/358 158/236/358
f 219/237/359 157/238/359 158/236/359
f 118/122/360 141/117/360 218/235/360
f 141/117/361 140/205/361 218/235/361
f 218/235/362 140/205/362 219/237/362
f 140/205/363 139/203/363 219/237/363
f 219/237/364 139/203/364 157/238/364
f 139/203/365 82/132/365 157/238/365
f 160/239/366 165/240/366 84/241/366
f 161/242/367 220/243/367 160/239/367
f 162/125/368 221/244/368 161/242/368
f 160/239/369 220/243/369 165/240/369
f 220/243/370 164/245/370 165/240/370
f 161/242/371 221/244/371 220/243/371
f 221/244/372 222/246/372 220/243/372
f 220/243/373 222/246/373 164/245/373
f 222/246/374 163/137/374 164/245/374
f 162/125/375 147/124/375 221/244/375
f 147/124/376 146/213/376 221/244/376
f 221/244/377 146/213/377 222/246/377
f 146/213/378 145/215/378 222/246/378
f 222/246/379 145/215/379 163/137/379
f 145/215/380 83/135/380 163/137/380
f 166/247/381 160/239/381 84/241/381
f 167/248/382 223/249/382 166/250/382
f 168/128/383 224/251/383 167/248/383
f 166/250/384 223/249/384 160/239/384
f 223/249/385 161/242/385 160/239/385
f 167/248/386 224/251/386 223/249/386
f 224/251/387 225/252/387 223/249/387
f 223/249/388 225/252/388 161/242/388
f 225/252/389 162/125/389 161/242/389
f 168/128/390 150/127/390 224/251/390
f 150/127/391 149/218/391 224/251/391
f 224/251/392 149/218/392 225/252/392
f 149/218/393 148/220/393 225/252/393
f 225/252/394 148/220/394 162/125/394
f 148/220/395 79/123/395 162/125/395
f 169/253/396 166/247/396 84/241/396
f 170/254/397 226/255/397 169/256/397
f 171/131/398 227/257/398 170/254/398
f 169/256/399 226/255/399 166/250/399
f 226/255/400 167/248/400 166/250/400
f 170/254/401 227/257/401 226/255/401
f 227/257/402 228/258/402 226/255/402
f 226/255/403 228/258/403 167/248/403
f 228/258/404 168/128/404 167/248/404
f 171/131/405 153/130/405 227/257/405
f 153/130/406 152/223/406 227/257/406
f 227/257/407 152/223/407 228/258/407
f 152/223/408 151/225/408 228/258/408
f 228/258/409 151/225/409 168/128/409
f 151/225/410 80/126/410 168/128/410
f 172/259/411 169/253/411 84/241/411
f 173/260/412 229/261/412 172/259/412
f 174/134/413 230/262/413 173/260/413
f 172/259/414 229/261/414 169/253/414
f 229/263/415 170/254/415 169/256/415
f 173/260/416 230/262/416 229/261/416
f 230/264/417 231/265/417 229/263/417
f 229/263/418 231/265/418 170/254/418
f 231/265/419 171/131/419 170/254/419
f 174/134/420 156/133/420 230/262/420
f 156/133/421 155/229/421 230/262/421
f 230/264/422 155/232/422 231/265/422
f 155/232/423 154/233/423 231/265/423
f 231/265/424 154/233/424 171/131/424
f 154/233/425 81/129/425 171/131/425
f 165/240/426 172/259/426 84/241/426
f 164/245/427 232/266/427 165/240/427
f 163/137/428 233/267/428 164/245/428
f 165/240/429 232/266/429 172/259/429
f 232/266/430 173/260/430 172/259/430
f 164/245/431 233/267/431 232/266/431
f 233/267/432 234/268/432 232/266/432
f 232/266/433 234/268/433 173/260/433
f 234/268/434 174/134/434 173/260/434
f 163/137/435 159/136/435 233/267/435
f 159/136/436 158/236/436 233/267/436
f 233/267/437 158/236/437 234/268/437
f 158/236/438 157/238/438 234/268/438
f 234/268/439 157/238/439 174/134/439
f 157/238/440 82/132/440 174/134/440
