# Blender v2.76 (sub 0) OBJ File: 'npc_invisomut.blend'
# www.blender.org
v -0.869988 0.479441 -0.053925
v -0.869988 0.479441 0.048239
v 0.884917 0.566713 -0.123538
v 0.883233 0.567498 -0.021390
v 0.835164 0.576701 -0.217379
v 0.681074 0.609716 -0.281035
v 0.514177 0.644975 -0.291790
v 0.358917 0.670657 -0.257535
v 0.209167 0.704103 -0.224522
v 0.020782 0.782552 -0.445952
v -0.020925 0.782552 -0.445952
v -0.236055 0.696125 -0.203112
v -0.389867 0.659023 -0.205756
v -0.539654 0.621967 -0.223055
v -0.682193 0.562391 -0.205808
v -0.822696 0.498958 -0.145587
v -0.822352 0.497835 0.147940
v -0.686481 0.578448 0.190070
v -0.540674 0.631405 0.205469
v -0.388288 0.657437 0.233278
v -0.231953 0.657499 0.323046
v -0.076219 0.626368 0.410344
v 0.078627 0.628941 0.409871
v 0.243851 0.651755 0.359258
v 0.407143 0.664301 0.225438
v 0.550184 0.651886 0.135455
v 0.684365 0.623363 0.074945
v 0.831920 0.578352 0.035092
v 0.124108 0.735096 -0.281165
v 0.160798 0.640987 0.386342
v -0.131632 0.736917 -0.276323
v -0.153308 0.634159 0.390570
v -0.870320 0.480516 -0.028384
v -0.870437 0.480893 -0.002843
v -0.870320 0.480516 0.022698
v 0.883776 0.568421 -0.046934
v 0.884239 0.568616 -0.072473
v 0.884618 0.568028 -0.098007
v -0.824471 0.504682 0.074558
v -0.825367 0.507580 0.001176
v -0.824471 0.504682 -0.072205
v -0.688445 0.584548 0.091101
v -0.688448 0.582757 -0.007869
v -0.686207 0.577243 -0.106839
v -0.541698 0.642925 0.098357
v -0.541104 0.646093 -0.008780
v -0.541479 0.638223 -0.115918
v -0.390464 0.678409 0.123760
v -0.391823 0.687456 0.014067
v -0.390958 0.679253 -0.095845
v -0.235264 0.699255 0.191481
v -0.238329 0.729926 0.060076
v -0.238218 0.721983 -0.072446
v -0.063030 0.698475 0.234134
v -0.051854 0.763923 0.050226
v -0.036020 0.772852 -0.118544
v 0.064092 0.698841 0.233563
v 0.050929 0.765084 0.049525
v 0.033343 0.774142 -0.118882
v 0.246940 0.697193 0.205977
v 0.239756 0.735091 0.053318
v 0.221362 0.730889 -0.089005
v 0.396452 0.688938 0.102284
v 0.384852 0.702341 -0.019376
v 0.371541 0.693449 -0.138284
v 0.541108 0.664064 0.029082
v 0.530914 0.668142 -0.076763
v 0.522444 0.660858 -0.184646
v 0.684745 0.629942 -0.013036
v 0.685771 0.630596 -0.101878
v 0.684056 0.623457 -0.191782
v 0.833534 0.583195 -0.027736
v 0.834813 0.584956 -0.090546
v 0.835567 0.582290 -0.153425
v 0.156266 0.691949 0.212312
v 0.148214 0.763583 0.035877
v 0.131299 0.748943 -0.123245
v -0.150019 0.687326 0.219495
v -0.150047 0.756615 0.050097
v -0.142697 0.740691 -0.119275
v 0.809611 0.529630 -0.048130
v 0.860050 0.514783 -0.066234
v 0.860080 0.514261 -0.048612
v 0.808322 0.525409 0.005702
v -0.832930 0.434789 -0.000059
v -0.787861 0.458345 0.053050
v -0.785242 0.452301 0.114895
v -0.832283 0.434897 0.015798
v -0.656542 0.534833 0.068165
v -0.656031 0.529947 0.155050
v -0.521343 0.588560 0.068652
v -0.521089 0.578943 0.162173
v -0.369108 0.627297 0.078161
v -0.368841 0.607546 0.173564
v -0.220555 0.589963 0.127598
v -0.220244 0.611237 0.247181
v -0.145874 0.543574 0.147046
v -0.063470 0.530818 0.117691
v -0.075753 0.579424 0.325541
v -0.150423 0.588807 0.307111
v 0.066771 0.533818 0.116194
v 0.079475 0.581784 0.325354
v 0.156976 0.558560 0.135278
v 0.231774 0.590925 0.137786
v 0.232737 0.605266 0.282886
v 0.160741 0.595768 0.302788
v 0.372380 0.637258 0.056086
v 0.383404 0.614381 0.165986
v 0.520061 0.609113 -0.000606
v 0.528395 0.598840 0.091842
v 0.662130 0.575638 -0.035659
v 0.661882 0.570168 0.040797
v 0.810588 0.524612 -0.178541
v 0.856578 0.515484 -0.094514
v 0.857231 0.515705 -0.077824
v 0.810667 0.529626 -0.123801
v 0.858902 0.514937 -0.072514
v 0.810286 0.530972 -0.084013
v -0.833308 0.434294 -0.021319
v -0.788960 0.452294 -0.103265
v -0.790166 0.457887 -0.039340
v -0.833653 0.434369 -0.005533
v -0.789727 0.459857 0.008577
v -0.833635 0.433932 -0.002831
v -0.653713 0.515171 -0.151209
v -0.655745 0.528322 -0.064224
v -0.655601 0.533347 0.002617
v -0.519230 0.572313 -0.163250
v -0.520570 0.585977 -0.068694
v -0.520338 0.590370 -0.002492
v -0.372029 0.608661 -0.138611
v -0.370833 0.626576 -0.045175
v -0.367725 0.632022 0.009138
v -0.217814 0.644521 -0.130435
v -0.218401 0.615278 -0.017212
v -0.219231 0.594167 0.039806
v -0.118565 0.665650 -0.213543
v -0.018347 0.705480 -0.388148
v -0.031995 0.618718 -0.186043
v -0.130482 0.593932 -0.062637
v -0.053133 0.556735 -0.025971
v -0.141369 0.572878 0.038620
v 0.018205 0.704364 -0.388224
v 0.029194 0.617976 -0.186644
v 0.047428 0.559350 -0.028727
v 0.107780 0.666490 -0.218617
v 0.194965 0.651810 -0.156947
v 0.206922 0.623928 -0.038291
v 0.115059 0.603769 -0.077366
v 0.218711 0.601848 0.031884
v 0.138772 0.583857 0.021116
v 0.350208 0.619457 -0.191113
v 0.359456 0.639640 -0.088724
v 0.362850 0.645743 -0.025558
v 0.503052 0.593093 -0.232738
v 0.509518 0.606910 -0.137035
v 0.512760 0.611435 -0.072308
v 0.662123 0.558176 -0.230058
v 0.663846 0.570393 -0.152081
v 0.663464 0.575692 -0.092679
v 0.695770 0.581288 -0.276561
v 0.852165 0.547026 -0.212059
v 0.081772 0.605164 0.408354
v -0.078545 0.602577 0.408610
v -0.394007 0.633483 -0.192511
v -0.234293 0.671237 -0.186869
v -0.881228 0.448402 -0.019870
v -0.880884 0.447828 -0.042852
v 0.902085 0.537592 -0.031598
v 0.848664 0.548836 0.030088
v -0.391660 0.632066 0.225305
v -0.548988 0.603225 0.203452
v 0.020167 0.763347 -0.462259
v 0.120620 0.708354 -0.277553
v 0.695910 0.594304 0.072259
v 0.558466 0.624854 0.131003
v -0.129101 0.709659 -0.272877
v -0.020325 0.763347 -0.462259
v -0.831245 0.466265 0.145154
v -0.880352 0.448136 0.034602
v 0.902040 0.538459 -0.073295
v 0.902375 0.538296 -0.055602
v 0.526355 0.618162 -0.286731
v 0.246226 0.626914 0.358460
v 0.165795 0.617167 0.383559
v 0.207895 0.678788 -0.211241
v -0.881279 0.448371 -0.004164
v -0.547385 0.594880 -0.215833
v 0.901237 0.537755 -0.113925
v 0.901390 0.538540 -0.090447
v -0.233545 0.632929 0.316213
v -0.156910 0.610326 0.387237
v -0.832921 0.465826 -0.139395
v -0.693526 0.546917 0.190913
v 0.365952 0.644874 -0.246843
v 0.410963 0.638946 0.220441
v -0.690204 0.531718 -0.199546
v -0.880853 0.448616 0.011581
vt 0.281556 0.946625
vt 0.314598 0.946625
vt 0.284400 0.973717
vt 0.270963 0.973717
vt 0.270963 0.032688
vt 0.284400 0.032688
vt 0.336850 0.059640
vt 0.298246 0.059640
vt 0.359014 0.140589
vt 0.306948 0.140589
vt 0.367128 0.221162
vt 0.310766 0.221162
vt 0.382066 0.301735
vt 0.324244 0.301735
vt 0.430287 0.382308
vt 0.360482 0.382308
vt 0.375818 0.425484
vt 0.466321 0.422594
vt 0.476927 0.462881
vt 0.383761 0.470194
vt 0.476927 0.543454
vt 0.383761 0.536141
vt 0.375818 0.580851
vt 0.466321 0.583741
vt 0.455627 0.624027
vt 0.379487 0.624027
vt 0.401923 0.704600
vt 0.339137 0.704600
vt 0.367128 0.785173
vt 0.310766 0.785173
vt 0.337866 0.865746
vt 0.291087 0.865746
vt 0.182432 0.946625
vt 0.215473 0.946625
vt 0.244090 0.973717
vt 0.230653 0.973717
vt 0.248515 0.946625
vt 0.257526 0.973717
vt 0.230653 0.032688
vt 0.244090 0.032688
vt 0.221036 0.059640
vt 0.182432 0.059640
vt 0.257526 0.032688
vt 0.259641 0.059640
vt 0.202817 0.140589
vt 0.150751 0.140589
vt 0.254882 0.140589
vt 0.198040 0.221162
vt 0.141678 0.221162
vt 0.254403 0.221162
vt 0.208600 0.301735
vt 0.150778 0.301735
vt 0.266422 0.301735
vt 0.220872 0.382308
vt 0.151068 0.382308
vt 0.290677 0.382308
vt 0.104308 0.434153
vt 0.194811 0.431263
vt 0.193764 0.484821
vt 0.011262 0.492134
vt 0.285314 0.428373
vt 0.284716 0.477508
vt 0.193764 0.521514
vt 0.011262 0.514201
vt 0.284716 0.528827
vt 0.104308 0.572182
vt 0.194811 0.575072
vt 0.227207 0.624027
vt 0.151068 0.624027
vt 0.285314 0.577962
vt 0.303347 0.624027
vt 0.213565 0.704600
vt 0.150778 0.704600
vt 0.276351 0.704600
vt 0.198040 0.785173
vt 0.141678 0.785173
vt 0.254403 0.785173
vt 0.197530 0.865746
vt 0.150751 0.865746
vt 0.244309 0.865746
vt 0.744386 0.087215
vt 0.734842 0.061296
vt 0.743669 0.061100
vt 0.771352 0.087163
vt 0.733119 0.937328
vt 0.759732 0.912122
vt 0.790723 0.911761
vt 0.741065 0.937001
vt 0.767306 0.837253
vt 0.810845 0.837285
vt 0.767551 0.761708
vt 0.814415 0.762324
vt 0.772322 0.683357
vt 0.820367 0.684106
vt 0.797585 0.608380
vt 0.858114 0.609568
vt 0.808091 0.572409
vt 0.793668 0.531812
vt 0.898169 0.538401
vt 0.888657 0.575495
vt 0.793936 0.468602
vt 0.898430 0.461735
vt 0.808473 0.427692
vt 0.815111 0.391773
vt 0.882996 0.390622
vt 0.889464 0.424305
vt 0.785929 0.317568
vt 0.839156 0.316925
vt 0.766526 0.239862
vt 0.813624 0.239521
vt 0.752030 0.163489
vt 0.790888 0.163520
vt 0.679318 0.087446
vt 0.720705 0.063319
vt 0.729062 0.062859
vt 0.706465 0.087342
vt 0.731706 0.061934
vt 0.726408 0.087261
vt 0.722466 0.937584
vt 0.681402 0.913442
vt 0.713435 0.913300
vt 0.730376 0.937739
vt 0.737447 0.912795
vt 0.731730 0.937795
vt 0.657377 0.837930
vt 0.700966 0.837646
vt 0.734460 0.837276
vt 0.651343 0.761926
vt 0.698726 0.761543
vt 0.731900 0.760987
vt 0.663690 0.685405
vt 0.710511 0.684244
vt 0.737728 0.682553
vt 0.668141 0.606210
vt 0.724524 0.605696
vt 0.753165 0.606406
vt 0.626903 0.559161
vt 0.538967 0.509586
vt 0.642919 0.516322
vt 0.702043 0.561685
vt 0.720444 0.524324
vt 0.752706 0.567265
vt 0.538967 0.491165
vt 0.642919 0.484430
vt 0.720681 0.476346
vt 0.626240 0.441863
vt 0.666541 0.395045
vt 0.728939 0.395582
vt 0.701270 0.439480
vt 0.764286 0.394449
vt 0.753021 0.433639
vt 0.662781 0.315251
vt 0.713909 0.316414
vt 0.745495 0.318176
vt 0.650461 0.238188
vt 0.698163 0.238741
vt 0.730065 0.240010
vt 0.655335 0.162486
vt 0.694183 0.162780
vt 0.723559 0.163289
vt 0.916964 0.136641
vt 0.908385 0.055220
vt 0.894321 0.075173
vt 0.903140 0.152818
vt 0.940117 0.461210
vt 0.939763 0.543345
vt 0.927382 0.541783
vt 0.927700 0.462456
vt 0.941075 0.704226
vt 0.954822 0.620738
vt 0.942352 0.611946
vt 0.927913 0.693891
vt 0.906245 0.976525
vt 0.905908 0.976443
vt 0.891919 0.954825
vt 0.892009 0.954985
vt 0.905876 0.027300
vt 0.908490 0.055069
vt 0.894230 0.074880
vt 0.891550 0.047912
vt 0.942942 0.703531
vt 0.933424 0.786497
vt 0.919277 0.773481
vt 0.929515 0.692547
vt 0.936232 0.491884
vt 0.956454 0.435920
vt 0.943989 0.441894
vt 0.923753 0.492908
vt 0.922866 0.137194
vt 0.932360 0.218973
vt 0.918353 0.232527
vt 0.908651 0.153887
vt 0.956533 0.569110
vt 0.936232 0.513000
vt 0.923753 0.511968
vt 0.944149 0.563264
vt 0.907439 0.948872
vt 0.905979 0.976130
vt 0.892060 0.954221
vt 0.893477 0.928105
vt 0.906447 0.027746
vt 0.906328 0.027405
vt 0.891870 0.048115
vt 0.891904 0.048775
vt 0.928814 0.218259
vt 0.915200 0.231148
vt 0.945008 0.382048
vt 0.943299 0.420626
vt 0.930725 0.423726
vt 0.932069 0.388874
vt 0.954693 0.384416
vt 0.942094 0.393451
vt 0.906237 0.976556
vt 0.891789 0.955043
vt 0.928944 0.786284
vt 0.915461 0.773069
vt 0.906163 0.028488
vt 0.906504 0.028242
vt 0.892223 0.049732
vt 0.892123 0.050209
vt 0.948881 0.622535
vt 0.936079 0.615421
vt 0.941746 0.583749
vt 0.929294 0.580165
vt 0.907447 0.949772
vt 0.893493 0.929844
vt 0.924302 0.867719
vt 0.910069 0.851044
vt 0.939451 0.300607
vt 0.926190 0.310886
vt 0.940413 0.301503
vt 0.927041 0.312618
vt 0.915625 0.868064
vt 0.901989 0.851711
vt 0.906294 0.976305
vt 0.892106 0.954560
vt 0.930788 0.145080
vt 0.922449 0.065365
vt 0.952533 0.462732
vt 0.952144 0.542145
vt 0.954237 0.700971
vt 0.967292 0.621558
vt 0.920481 0.966144
vt 0.919898 0.966144
vt 0.920202 0.038663
vt 0.922750 0.065365
vt 0.956370 0.700971
vt 0.947570 0.780384
vt 0.948711 0.491564
vt 0.968918 0.434417
vt 0.937082 0.145080
vt 0.946367 0.224493
vt 0.968918 0.570459
vt 0.948711 0.513313
vt 0.921400 0.939580
vt 0.920990 0.038663
vt 0.920786 0.038663
vt 0.942429 0.224493
vt 0.957946 0.383319
vt 0.955874 0.423025
vt 0.967292 0.383319
vt 0.920685 0.966144
vt 0.942427 0.780384
vt 0.961683 0.621558
vt 0.954198 0.581851
vt 0.938534 0.859797
vt 0.952711 0.303906
vt 0.953786 0.303906
vt 0.929262 0.859797
vn 0.292400 0.953800 0.069400
vn -0.518800 0.851100 0.081000
vn -0.519000 0.851400 0.076200
vn -0.360100 0.929100 0.084700
vn -0.221200 0.964000 0.147800
vn -0.190700 0.948900 0.251300
vn -0.089300 0.938300 0.334200
vn -0.008300 0.927500 0.373700
vn -0.034000 0.958700 0.282500
vn 0.167500 0.956700 0.237900
vn 0.203800 0.969200 0.137900
vn 0.248000 0.965300 0.082100
vn 0.307600 0.948500 0.075900
vn 0.055000 0.944800 0.323000
vn 0.030900 0.953700 0.299100
vn 0.340000 0.937600 -0.072700
vn 0.317500 0.947700 -0.030800
vn 0.298200 0.954100 0.027000
vn -0.505100 0.860200 -0.069900
vn -0.499100 0.865900 -0.033800
vn -0.503600 0.863300 0.033700
vn -0.468000 0.875500 -0.120200
vn -0.478700 0.876500 -0.051500
vn -0.494100 0.869400 0.008200
vn -0.394200 0.907000 -0.148100
vn -0.392700 0.917500 -0.063100
vn -0.382500 0.923900 0.005100
vn -0.229000 0.959400 -0.164400
vn -0.254700 0.964300 -0.072000
vn -0.255700 0.965200 0.055300
vn -0.232800 0.954600 -0.186000
vn -0.253700 0.965100 -0.065300
vn -0.255100 0.953300 0.161700
vn -0.341700 0.939800 -0.007000
vn -0.188900 0.981400 -0.033300
vn -0.120500 0.928800 0.350400
vn -0.011500 0.999600 0.027600
vn -0.013900 0.998500 0.053300
vn -0.004400 0.941500 0.337000
vn 0.338500 0.928800 -0.151000
vn 0.271600 0.958000 -0.091700
vn 0.101700 0.945300 0.309900
vn 0.171700 0.963700 -0.204300
vn 0.201800 0.976700 -0.073400
vn 0.231400 0.959000 0.163500
vn 0.138200 0.974100 -0.179200
vn 0.189200 0.978000 -0.087900
vn 0.221900 0.973600 0.053600
vn 0.214900 0.963800 -0.157700
vn 0.221700 0.971600 -0.082300
vn 0.236100 0.971600 0.012500
vn 0.273600 0.953500 -0.126300
vn 0.286500 0.956000 -0.063200
vn 0.296400 0.954900 0.019700
vn 0.357000 0.933800 -0.025000
vn 0.132600 0.990700 -0.030900
vn 0.105700 0.930800 0.349800
vn -0.344500 0.932100 -0.111800
vn -0.262900 0.961300 -0.082500
vn -0.112800 0.942600 0.314400
vn -0.291200 -0.954200 -0.068400
vn 0.521000 -0.849100 -0.086800
vn 0.519300 -0.851400 -0.073500
vn 0.356300 -0.931300 -0.076400
vn 0.223300 -0.963100 -0.150300
vn -0.115500 -0.993300 0.007300
vn -0.119100 -0.963400 0.240300
vn 0.019600 -0.974000 0.225500
vn 0.287600 -0.945700 0.151600
vn 0.160100 -0.986300 -0.040500
vn -0.206700 -0.968500 -0.138900
vn -0.242600 -0.966900 -0.078500
vn -0.305200 -0.949400 -0.074200
vn 0.219600 -0.953600 0.206000
vn -0.506100 -0.840800 0.192300
vn -0.335500 -0.939300 0.072300
vn -0.311700 -0.949900 0.021100
vn -0.299400 -0.953700 -0.030500
vn 0.501300 -0.862400 0.071100
vn 0.496500 -0.867800 0.021800
vn 0.507400 -0.860800 -0.039500
vn 0.465600 -0.877000 0.118900
vn 0.476300 -0.877800 0.051100
vn 0.492000 -0.870600 -0.004300
vn 0.395100 -0.907700 0.141400
vn 0.391500 -0.918000 0.063900
vn 0.379000 -0.925400 0.003200
vn 0.222900 -0.961300 0.161700
vn 0.254100 -0.964500 0.071700
vn 0.257400 -0.965400 -0.040600
vn 0.086100 -0.994800 -0.054800
vn -0.134000 -0.981700 -0.135400
vn -0.229900 -0.971400 -0.059300
vn -0.332400 -0.851200 -0.406200
vn -0.282100 -0.903800 -0.321800
vn -0.280000 -0.934200 -0.221100
vn -0.020200 -0.918800 -0.394200
vn 0.003500 -0.935000 -0.354600
vn 0.020700 -0.984200 -0.176100
vn 0.216900 -0.916700 -0.335600
vn 0.286400 -0.913800 -0.287800
vn 0.318600 -0.927000 -0.197800
vn -0.061900 -0.997700 -0.028800
vn 0.148000 -0.979800 -0.134300
vn 0.241900 -0.961700 -0.128700
vn -0.137200 -0.974400 0.178100
vn -0.189600 -0.977600 0.091100
vn -0.220000 -0.974500 -0.044500
vn -0.213800 -0.964600 0.154700
vn -0.220700 -0.971900 0.082000
vn -0.231400 -0.972800 -0.007200
vn -0.274400 -0.953100 0.127500
vn -0.286200 -0.956200 0.061900
vn -0.294800 -0.955300 -0.020700
vn 0.364900 -0.846500 -0.387600
vn 0.343900 -0.880600 -0.326000
vn 0.334600 -0.914400 -0.227900
vn -0.245700 -0.901500 -0.356200
vn -0.309600 -0.912900 -0.266100
vn -0.383200 -0.908500 -0.166500
vn -0.003800 -0.867600 -0.497200
vn 0.015500 -0.962800 0.269800
vn 0.220700 -0.851900 -0.474900
vn -0.282100 -0.959300 0.011000
vn 0.279200 -0.863600 0.419900
vn 0.104500 -0.856100 0.506100
vn 0.536500 -0.700100 -0.471200
vn 0.042100 -0.832300 0.552800
vn -0.529100 -0.697700 -0.483000
vn -0.155500 -0.959700 0.234000
vn 0.485400 -0.873300 -0.041600
vn -0.166000 -0.849200 -0.501200
vn 0.190900 -0.952000 0.239500
vn 0.141800 -0.859800 -0.490500
vn -0.282600 -0.958900 -0.024900
vn 0.283800 -0.819300 -0.498200
vn 0.456500 -0.889600 0.013100
vn -0.153800 -0.937300 0.312700
vn -0.044400 -0.730600 0.681300
vn -0.443200 -0.875000 0.194700
vn -0.012000 -0.785100 -0.619200
vn 0.457800 -0.885400 -0.080800
vn -0.122000 -0.958800 -0.256500
vn 0.231500 -0.735700 0.636500
vn -0.266500 -0.836100 -0.479500
vn 0.263200 -0.932300 0.248300
vn 0.219400 -0.943500 0.248100
vn 0.299400 -0.809200 -0.505500
vn -0.275500 -0.958500 0.073900
vn 0.315600 -0.913400 -0.257000
vn -0.171900 -0.952600 0.251000
vn -0.154100 -0.858700 -0.488700
vn -0.271700 -0.962400 -0.001200
vn 0.241800 -0.755400 0.609000
vn 0.135100 -0.904100 0.405300
vn -0.281700 -0.835700 -0.471400
vn 0.491100 -0.870800 -0.022600
vn 0.200700 -0.846800 -0.492700
vn 0.391800 0.058900 -0.918200
vn 0.003400 -0.068100 0.997700
vn 0.143000 -0.504600 -0.851400
vn -0.948100 0.317000 -0.024000
vn 0.742500 0.290200 0.603800
vn -0.129700 -0.154400 0.979500
vn 0.869700 0.057800 -0.490200
vn 0.406900 0.027600 0.913100
vn -0.860200 0.081400 -0.503400
vn -0.905500 0.176500 0.386000
vn 0.856500 0.516100 0.006800
vn 0.027800 -0.156900 -0.987200
vn 0.306700 -0.023600 0.951500
vn 0.477400 -0.310400 -0.822000
vn -0.948000 0.318300 -0.006500
vn 0.218400 -0.396100 -0.891900
vn 0.872300 0.488500 -0.018300
vn -0.487300 -0.203300 0.849200
vn 0.263700 0.000700 0.964600
vn -0.676800 -0.081000 0.731700
vn 0.000000 0.647300 -0.762300
vn 0.865700 0.500500 -0.011500
vn -0.891600 0.180100 -0.415400
vn -0.335000 0.055600 0.940600
vn -0.269900 -0.365400 -0.890900
vn 0.638500 -0.010000 0.769600
vn 0.284100 -0.038000 0.958100
vn -0.018900 -0.222400 -0.974800
vn -0.949800 0.312500 0.013500
vn 0.838600 0.376200 -0.394000
vn -0.261800 -0.069800 0.962600
vn -0.482100 -0.343900 -0.805800
vn -0.952100 0.304600 0.026100
vn -0.097900 0.005600 0.995200
vn 0.523000 -0.032800 0.851700
vn -0.285400 -0.433300 -0.854900
vn 0.852400 0.521900 0.031500
vn -0.359200 -0.078800 -0.929900
s off
f 72/1/1 28/2/1 4/3/1 36/4/1
f 35/5/2 2/6/2 17/7/2 39/8/2
f 39/8/3 17/7/3 18/9/3 42/10/3
f 42/10/4 18/9/4 19/11/4 45/12/4
f 45/12/5 19/11/5 20/13/5 48/14/5
f 48/14/6 20/13/6 21/15/6 51/16/6
f 78/17/7 32/18/7 22/19/7 54/20/7
f 54/20/8 22/19/8 23/21/8 57/22/8
f 75/23/9 30/24/9 24/25/9 60/26/9
f 60/26/10 24/25/10 25/27/10 63/28/10
f 63/28/11 25/27/11 26/29/11 66/30/11
f 66/30/12 26/29/12 27/31/12 69/32/12
f 69/32/13 27/31/13 28/2/13 72/1/13
f 57/22/14 23/21/14 30/24/14 75/23/14
f 51/16/15 21/15/15 32/18/15 78/17/15
f 5/33/16 74/34/16 38/35/16 3/36/16
f 74/34/17 73/37/17 37/38/17 38/35/17
f 73/37/18 72/1/18 36/4/18 37/38/18
f 1/39/19 33/40/19 41/41/19 16/42/19
f 33/40/20 34/43/20 40/44/20 41/41/20
f 34/43/21 35/5/21 39/8/21 40/44/21
f 16/42/22 41/41/22 44/45/22 15/46/22
f 41/41/23 40/44/23 43/47/23 44/45/23
f 40/44/24 39/8/24 42/10/24 43/47/24
f 15/46/25 44/45/25 47/48/25 14/49/25
f 44/45/26 43/47/26 46/50/26 47/48/26
f 43/47/27 42/10/27 45/12/27 46/50/27
f 14/49/28 47/48/28 50/51/28 13/52/28
f 47/48/29 46/50/29 49/53/29 50/51/29
f 46/50/30 45/12/30 48/14/30 49/53/30
f 13/52/31 50/51/31 53/54/31 12/55/31
f 50/51/32 49/53/32 52/56/32 53/54/32
f 49/53/33 48/14/33 51/16/33 52/56/33
f 31/57/34 80/58/34 56/59/34 11/60/34
f 80/58/35 79/61/35 55/62/35 56/59/35
f 79/61/36 78/17/36 54/20/36 55/62/36
f 11/60/37 56/59/37 59/63/37 10/64/37
f 56/59/38 55/62/38 58/65/38 59/63/38
f 55/62/39 54/20/39 57/22/39 58/65/39
f 29/66/40 77/67/40 62/68/40 9/69/40
f 77/67/41 76/70/41 61/71/41 62/68/41
f 76/70/42 75/23/42 60/26/42 61/71/42
f 9/69/43 62/68/43 65/72/43 8/73/43
f 62/68/44 61/71/44 64/74/44 65/72/44
f 61/71/45 60/26/45 63/28/45 64/74/45
f 8/73/46 65/72/46 68/75/46 7/76/46
f 65/72/47 64/74/47 67/77/47 68/75/47
f 64/74/48 63/28/48 66/30/48 67/77/48
f 7/76/49 68/75/49 71/78/49 6/79/49
f 68/75/50 67/77/50 70/80/50 71/78/50
f 67/77/51 66/30/51 69/32/51 70/80/51
f 6/79/52 71/78/52 74/34/52 5/33/52
f 71/78/53 70/80/53 73/37/53 74/34/53
f 70/80/54 69/32/54 72/1/54 73/37/54
f 10/64/55 59/63/55 77/67/55 29/66/55
f 59/63/56 58/65/56 76/70/56 77/67/56
f 58/65/57 57/22/57 75/23/57 76/70/57
f 12/55/58 53/54/58 80/58/58 31/57/58
f 53/54/59 52/56/59 79/61/59 80/58/59
f 52/56/60 51/16/60 78/17/60 79/61/60
f 81/81/61 82/82/61 83/83/61 84/84/61
f 85/85/62 86/86/62 87/87/62 88/88/62
f 86/86/63 89/89/63 90/90/63 87/87/63
f 89/89/64 91/91/64 92/92/64 90/90/64
f 91/91/65 93/93/65 94/94/65 92/92/65
f 93/93/66 95/95/66 96/96/66 94/94/66
f 97/97/67 98/98/67 99/99/67 100/100/67
f 98/98/68 101/101/68 102/102/68 99/99/68
f 103/103/69 104/104/69 105/105/69 106/106/69
f 104/104/70 107/107/70 108/108/70 105/105/70
f 107/107/71 109/109/71 110/110/71 108/108/71
f 109/109/72 111/111/72 112/112/72 110/110/72
f 111/111/73 81/81/73 84/84/73 112/112/73
f 101/101/74 103/103/74 106/106/74 102/102/74
f 95/95/75 97/97/75 100/100/75 96/96/75
f 113/113/76 114/114/76 115/115/76 116/116/76
f 116/116/77 115/115/77 117/117/77 118/118/77
f 118/118/78 117/117/78 82/82/78 81/81/78
f 119/119/79 120/120/79 121/121/79 122/122/79
f 122/122/80 121/121/80 123/123/80 124/124/80
f 124/124/81 123/123/81 86/86/81 85/85/81
f 120/120/82 125/125/82 126/126/82 121/121/82
f 121/121/83 126/126/83 127/127/83 123/123/83
f 123/123/84 127/127/84 89/89/84 86/86/84
f 125/125/85 128/128/85 129/129/85 126/126/85
f 126/126/86 129/129/86 130/130/86 127/127/86
f 127/127/87 130/130/87 91/91/87 89/89/87
f 128/128/88 131/131/88 132/132/88 129/129/88
f 129/129/89 132/132/89 133/133/89 130/130/89
f 130/130/90 133/133/90 93/93/90 91/91/90
f 131/131/91 134/134/91 135/135/91 132/132/91
f 132/132/92 135/135/92 136/136/92 133/133/92
f 133/133/93 136/136/93 95/95/93 93/93/93
f 137/137/94 138/138/94 139/139/94 140/140/94
f 140/140/95 139/139/95 141/141/95 142/142/95
f 142/142/96 141/141/96 98/98/96 97/97/96
f 138/138/97 143/143/97 144/144/97 139/139/97
f 139/139/98 144/144/98 145/145/98 141/141/98
f 141/141/99 145/145/99 101/101/99 98/98/99
f 146/146/100 147/147/100 148/148/100 149/149/100
f 149/149/101 148/148/101 150/150/101 151/151/101
f 151/151/102 150/150/102 104/104/102 103/103/102
f 147/147/103 152/152/103 153/153/103 148/148/103
f 148/148/104 153/153/104 154/154/104 150/150/104
f 150/150/105 154/154/105 107/107/105 104/104/105
f 152/152/106 155/155/106 156/156/106 153/153/106
f 153/153/107 156/156/107 157/157/107 154/154/107
f 154/154/108 157/157/108 109/109/108 107/107/108
f 155/155/109 158/158/109 159/159/109 156/156/109
f 156/156/110 159/159/110 160/160/110 157/157/110
f 157/157/111 160/160/111 111/111/111 109/109/111
f 158/158/112 113/113/112 116/116/112 159/159/112
f 159/159/113 116/116/113 118/118/113 160/160/113
f 160/160/114 118/118/114 81/81/114 111/111/114
f 143/143/115 146/146/115 149/149/115 144/144/115
f 144/144/116 149/149/116 151/151/116 145/145/116
f 145/145/117 151/151/117 103/103/117 101/101/117
f 134/134/118 137/137/118 140/140/118 135/135/118
f 135/135/119 140/140/119 142/142/119 136/136/119
f 136/136/120 142/142/120 97/97/120 95/95/120
f 161/161/121 162/162/121 113/163/121 158/164/121
f 163/165/122 164/166/122 99/167/122 102/168/122
f 165/169/123 166/170/123 134/171/123 131/172/123
f 167/173/124 168/174/124 119/175/124 122/176/124
f 169/177/125 170/178/125 84/179/125 83/180/125
f 171/181/126 172/182/126 92/183/126 94/184/126
f 173/185/127 174/186/127 146/187/127 143/188/127
f 175/189/128 176/190/128 110/191/128 112/192/128
f 177/193/129 178/194/129 138/195/129 137/196/129
f 179/197/130 180/198/130 88/199/130 87/200/130
f 181/201/131 182/202/131 82/203/131 117/204/131
f 183/205/132 161/161/132 158/164/132 155/206/132
f 184/207/133 185/208/133 106/209/133 105/210/133
f 174/186/134 186/211/134 147/212/134 146/187/134
f 187/213/135 167/173/135 122/176/135 124/214/135
f 188/215/136 165/169/136 131/172/136 128/216/136
f 189/217/137 190/218/137 115/219/137 114/220/137
f 191/221/138 171/181/138 94/184/138 96/222/138
f 170/178/139 175/189/139 112/192/139 84/179/139
f 192/223/140 191/221/140 96/222/140 100/224/140
f 178/194/141 173/185/141 143/188/141 138/195/141
f 190/218/142 181/201/142 117/204/142 115/219/142
f 168/174/143 193/225/143 120/226/143 119/175/143
f 194/227/144 179/197/144 87/200/144 90/228/144
f 195/229/145 183/205/145 155/206/145 152/230/145
f 196/231/146 184/207/146 105/210/146 108/232/146
f 185/208/147 163/165/147 102/168/147 106/209/147
f 197/233/148 188/215/148 128/216/148 125/234/148
f 198/235/149 187/213/149 124/214/149 85/236/149
f 162/162/150 189/217/150 114/220/150 113/163/150
f 164/166/151 192/223/151 100/224/151 99/167/151
f 166/170/152 177/193/152 137/196/152 134/171/152
f 180/198/153 198/235/153 85/236/153 88/199/153
f 172/182/154 194/227/154 90/228/154 92/183/154
f 176/190/155 196/231/155 108/232/155 110/191/155
f 186/211/156 195/229/156 152/230/156 147/212/156
f 182/202/157 169/177/157 83/180/157 82/203/157
f 193/225/158 197/233/158 125/234/158 120/226/158
f 6/237/159 5/238/159 162/162/159 161/161/159
f 23/239/160 22/240/160 164/166/160 163/165/160
f 13/241/161 12/242/161 166/170/161 165/169/161
f 33/243/162 1/244/162 168/174/162 167/173/162
f 4/245/163 28/246/163 170/178/163 169/177/163
f 20/247/164 19/248/164 172/182/164 171/181/164
f 10/249/165 29/250/165 174/186/165 173/185/165
f 27/251/166 26/252/166 176/190/166 175/189/166
f 31/253/167 11/254/167 178/194/167 177/193/167
f 17/255/168 2/244/168 180/198/168 179/197/168
f 37/256/169 36/257/169 182/202/169 181/201/169
f 7/258/170 6/237/170 161/161/170 183/205/170
f 24/259/171 30/260/171 185/208/171 184/207/171
f 29/250/172 9/261/172 186/211/172 174/186/172
f 34/262/173 33/243/173 167/173/173 187/213/173
f 14/263/174 13/241/174 165/169/174 188/215/174
f 3/245/175 38/257/175 190/218/175 189/217/175
f 21/264/176 20/247/176 171/181/176 191/221/176
f 28/246/177 27/251/177 175/189/177 170/178/177
f 32/265/178 21/264/178 191/221/178 192/223/178
f 11/254/179 10/249/179 173/185/179 178/194/179
f 38/257/180 37/256/180 181/201/180 190/218/180
f 1/244/181 16/255/181 193/225/181 168/174/181
f 18/266/182 17/255/182 179/197/182 194/227/182
f 8/267/183 7/258/183 183/205/183 195/229/183
f 25/268/184 24/259/184 184/207/184 196/231/184
f 30/260/185 23/239/185 163/165/185 185/208/185
f 15/269/186 14/263/186 188/215/186 197/233/186
f 35/243/187 34/262/187 187/213/187 198/235/187
f 5/238/188 3/245/188 189/217/188 162/162/188
f 22/240/189 32/265/189 192/223/189 164/166/189
f 12/242/190 31/253/190 177/193/190 166/170/190
f 2/244/191 35/243/191 198/235/191 180/198/191
f 19/248/192 18/266/192 194/227/192 172/182/192
f 26/252/193 25/268/193 196/231/193 176/190/193
f 9/261/194 8/267/194 195/229/194 186/211/194
f 36/257/195 4/245/195 169/177/195 182/202/195
f 16/255/196 15/269/196 197/233/196 193/225/196
