# Blender v2.76 (sub 0) OBJ File: 'npc_zerogmut.blend'
# www.blender.org
v -2.745786 -1.565584 -1.700591
v -2.573410 -1.492310 -1.465012
v -2.930836 -1.492310 -1.541243
v -3.032531 -1.492310 -1.837691
v -2.737949 -1.492310 -1.944670
v -2.454200 -1.492310 -1.714341
v -2.753623 -1.373750 -1.456513
v -3.037371 -1.373750 -1.686842
v -2.918161 -1.373750 -1.936171
v -2.560735 -1.373750 -1.859940
v -2.459040 -1.373750 -1.563492
v -2.745786 -1.300477 -1.700591
vt 0.386864 0.162439
vt 0.420370 0.171564
vt 0.404543 0.178763
vt 0.457854 0.162439
vt 0.437234 0.176672
vt 0.391864 0.186615
vt 0.379156 0.185491
vt 0.450146 0.185491
vt 0.427359 0.193267
vt 0.414651 0.194392
vt 0.401739 0.203211
vt 0.384875 0.208318
vt 0.440037 0.201119
vt 0.455865 0.208318
vt 0.422359 0.217443
vn -0.073600 -0.935800 0.344900
vn 0.247200 -0.961700 0.118200
vn -0.290900 -0.951500 0.099800
vn -0.105000 -0.951500 -0.289000
vn 0.222200 -0.935800 -0.273800
vn 0.803000 -0.455700 0.384000
vn -0.194500 -0.361000 0.912000
vn -0.862100 -0.411500 0.295700
vn -0.311100 -0.411500 -0.856700
vn 0.587700 -0.361000 -0.724000
vn 0.311100 0.411500 0.856700
vn -0.587700 0.361000 0.724000
vn -0.803000 0.455700 -0.384000
vn 0.194500 0.361000 -0.912000
vn 0.862100 0.411500 -0.295700
vn 0.105000 0.951500 0.289000
vn -0.222200 0.935800 0.273800
vn -0.247200 0.961700 -0.118200
vn 0.073600 0.935800 -0.344900
vn 0.290900 0.951500 -0.099800
s off
f 1/1/1 2/2/1 3/3/1
f 2/2/2 1/4/2 6/5/2
f 1/1/3 3/3/3 4/6/3
f 1/1/4 4/6/4 5/7/4
f 1/4/5 5/8/5 6/5/5
f 2/2/6 6/5/6 11/9/6
f 3/3/7 2/2/7 7/10/7
f 4/6/8 3/3/8 8/11/8
f 5/7/9 4/6/9 9/12/9
f 6/5/10 5/8/10 10/13/10
f 2/2/11 11/9/11 7/10/11
f 3/3/12 7/10/12 8/11/12
f 4/6/13 8/11/13 9/12/13
f 5/8/14 9/14/14 10/13/14
f 6/5/15 10/13/15 11/9/15
f 7/10/16 11/9/16 12/15/16
f 8/11/17 7/10/17 12/15/17
f 9/14/18 8/11/18 12/15/18
f 10/13/19 9/14/19 12/15/19
f 11/9/20 10/13/20 12/15/20
v 2.223591 -1.554247 -2.408409
v 2.167417 -1.502855 -2.726208
v 2.510622 -1.496464 -2.624522
v 2.455744 -1.499704 -2.223798
v 2.078617 -1.508096 -2.077830
v 1.900425 -1.510044 -2.388336
v 2.364853 -1.416549 -2.738010
v 2.543044 -1.414601 -2.427503
v 2.276053 -1.421791 -2.089632
v 1.932848 -1.428181 -2.191318
v 1.987726 -1.424941 -2.592042
v 2.219878 -1.370398 -2.407431
vt 0.436894 0.681291
vt 0.490014 0.689372
vt 0.461930 0.729426
vt 0.615623 0.681291
vt 0.547019 0.676559
vt 0.431128 0.743508
vt 0.402342 0.716310
vt 0.581071 0.716310
vt 0.520492 0.725087
vt 0.491707 0.752285
vt 0.457655 0.792036
vt 0.400650 0.779223
vt 0.551294 0.739169
vt 0.372565 0.739169
vt 0.526258 0.787304
vt 0.579379 0.779223
vn 0.069000 -0.982800 -0.171100
vn -0.142400 -0.980800 -0.133400
vn 0.212600 -0.976900 0.021200
vn 0.090100 -0.980200 0.176300
vn -0.130100 -0.988200 0.080900
vn -0.634000 -0.578300 -0.513300
vn 0.231300 -0.630400 -0.741000
vn 0.810100 -0.576600 0.106300
vn 0.302800 -0.590300 0.748300
vn -0.654200 -0.654300 0.379500
vn -0.302800 0.590300 -0.748300
vn 0.654200 0.654300 -0.379500
vn 0.634000 0.578300 0.513300
vn -0.231300 0.630400 0.741000
vn -0.810100 0.576600 -0.106300
vn -0.090100 0.980200 -0.176300
vn 0.130100 0.988200 -0.080900
vn 0.142400 0.980800 0.133400
vn -0.069000 0.982800 0.171100
vn -0.212600 0.976900 -0.021200
s off
f 13/16/21 14/17/21 15/18/21
f 14/17/22 13/19/22 18/20/22
f 13/16/23 15/18/23 16/21/23
f 13/16/24 16/21/24 17/22/24
f 13/19/25 17/23/25 18/20/25
f 14/17/26 18/20/26 23/24/26
f 15/18/27 14/17/27 19/25/27
f 16/21/28 15/18/28 20/26/28
f 17/22/29 16/21/29 21/27/29
f 18/20/30 17/23/30 22/28/30
f 14/17/31 23/24/31 19/25/31
f 15/18/32 19/25/32 20/26/32
f 16/21/33 20/26/33 21/27/33
f 17/22/34 21/27/34 22/29/34
f 18/20/35 22/28/35 23/24/35
f 19/25/36 23/24/36 24/30/36
f 20/26/37 19/25/37 24/30/37
f 21/31/38 20/26/38 24/30/38
f 22/28/39 21/31/39 24/30/39
f 23/24/40 22/28/40 24/30/40
v 0.698897 -1.522097 0.911389
v 0.893811 -1.438901 1.125818
v 0.622690 -1.443208 1.258346
v 0.455124 -1.445870 0.911389
v 0.622690 -1.443208 0.564432
v 0.893811 -1.438901 0.696960
v 0.770501 -1.311255 1.258346
v 0.499381 -1.315562 1.125818
v 0.499381 -1.315562 0.696960
v 0.770501 -1.311255 0.564432
v 0.938067 -1.308594 0.911389
v 0.694294 -1.232366 0.911389
vt 0.905377 0.256761
vt 0.937766 0.280058
vt 0.922307 0.282019
vt 0.877436 0.280458
vt 0.907458 0.283568
vt 0.892691 0.282639
vt 0.861617 0.280058
vt 0.869384 0.302369
vt 0.846158 0.282019
vt 0.854616 0.303299
vt 0.831309 0.283568
vt 0.839362 0.305479
vt 0.899691 0.305880
vt 0.884233 0.303919
vt 0.915511 0.305479
vt 0.867302 0.329177
vn 0.136500 -0.959100 0.248100
vn 0.392600 -0.919700 0.000000
vn -0.295100 -0.943700 0.149800
vn -0.295100 -0.943700 -0.149800
vn 0.136500 -0.959100 -0.248000
vn 0.946900 -0.321600 0.000000
vn 0.398700 -0.446600 0.801000
vn -0.830700 -0.382900 0.404100
vn -0.830700 -0.382900 -0.404100
vn 0.398700 -0.446600 -0.801000
vn 0.830700 0.382900 0.404100
vn -0.398700 0.446600 0.801000
vn -0.946900 0.321600 0.000000
vn -0.398700 0.446600 -0.801000
vn 0.830700 0.382900 -0.404100
vn 0.295100 0.943700 0.149800
vn -0.136500 0.959100 0.248100
vn -0.392600 0.919700 0.000000
vn -0.136500 0.959100 -0.248100
vn 0.295100 0.943700 -0.149800
s off
f 25/32/41 26/33/41 27/34/41
f 26/33/42 25/32/42 30/35/42
f 25/32/43 27/34/43 28/36/43
f 25/32/44 28/36/44 29/37/44
f 25/32/45 29/37/45 30/35/45
f 26/38/46 30/35/46 35/39/46
f 27/40/47 26/38/47 31/41/47
f 28/42/48 27/40/48 32/43/48
f 29/37/49 28/36/49 33/44/49
f 30/35/50 29/37/50 34/45/50
f 26/38/51 35/39/51 31/41/51
f 27/40/52 31/41/52 32/43/52
f 28/36/53 32/46/53 33/44/53
f 29/37/54 33/44/54 34/45/54
f 30/35/55 34/45/55 35/39/55
f 31/41/56 35/39/56 36/47/56
f 32/43/57 31/41/57 36/47/57
f 33/44/58 32/46/58 36/47/58
f 34/45/59 33/44/59 36/47/59
f 35/39/60 34/45/60 36/47/60
v -2.418661 -1.352870 -0.205575
v -2.196642 -1.404498 -0.110908
v -2.473843 -1.493305 -0.121748
v -2.666884 -1.431501 -0.094404
v -2.508983 -1.304497 -0.066666
v -2.218360 -1.287809 -0.076866
v -2.307651 -1.515037 0.058770
v -2.598274 -1.531725 0.068971
v -2.619992 -1.415036 0.103013
v -2.342791 -1.326229 0.113852
v -2.149750 -1.388033 0.086509
v -2.397973 -1.466664 0.197680
vt 0.628894 0.500204
vt 0.641274 0.475735
vt 0.644957 0.507635
vt 0.615973 0.476930
vt 0.629693 0.532761
vt 0.612931 0.509033
vt 0.675913 0.467239
vt 0.659152 0.490967
vt 0.662194 0.523070
vt 0.595053 0.524265
vt 0.598736 0.492365
vt 0.583472 0.467239
vt 0.566711 0.490967
vt 0.582673 0.499796
vt 0.569753 0.523070
vn 0.211000 -0.560800 -0.800600
vn 0.433900 0.325800 -0.840000
vn -0.257400 -0.418700 -0.870900
vn -0.465100 0.697400 -0.545300
vn -0.066200 0.928200 -0.366200
vn 0.938300 0.245600 -0.243400
vn 0.295800 -0.877300 -0.378000
vn -0.330400 -0.860000 -0.388800
vn -0.633600 0.768800 0.086400
vn -0.050800 0.984900 0.165300
vn 0.633600 -0.768800 -0.086400
vn 0.050800 -0.984900 -0.165300
vn -0.938300 -0.245600 0.243400
vn -0.295800 0.877300 0.378000
vn 0.330400 0.860000 0.388800
vn 0.465100 -0.697400 0.545300
vn 0.066200 -0.928200 0.366200
vn -0.433900 -0.325800 0.840000
vn -0.211000 0.560800 0.800600
vn 0.257400 0.418700 0.870900
s off
f 37/48/61 38/49/61 39/50/61
f 38/49/62 37/48/62 42/51/62
f 37/48/63 39/50/63 40/52/63
f 37/48/64 40/52/64 41/53/64
f 37/48/65 41/53/65 42/51/65
f 38/49/66 42/51/66 47/54/66
f 39/50/67 38/49/67 43/55/67
f 40/52/68 39/50/68 44/56/68
f 41/53/69 40/52/69 45/57/69
f 42/51/70 41/53/70 46/58/70
f 38/49/71 47/54/71 43/55/71
f 39/50/72 43/55/72 44/56/72
f 40/52/73 44/56/73 45/57/73
f 41/53/74 45/57/74 46/58/74
f 42/51/75 46/58/75 47/59/75
f 43/60/76 47/59/76 48/61/76
f 44/62/77 43/60/77 48/61/77
f 45/57/78 44/62/78 48/61/78
f 46/58/79 45/57/79 48/61/79
f 47/59/80 46/58/80 48/61/80
v -0.876112 -1.498541 2.071023
v -0.748279 -1.436710 2.304227
v -1.053598 -1.419899 2.271877
v -1.108449 -1.418429 1.961476
v -0.837024 -1.434331 1.801992
v -0.614430 -1.445629 2.013824
v -0.901613 -1.318383 2.338810
v -1.124206 -1.307085 2.126978
v -0.990357 -1.316004 1.836575
v -0.685039 -1.332815 1.868925
v -0.630188 -1.334286 2.179326
v -0.862525 -1.254174 2.069779
vt 0.359891 0.282727
vt 0.327086 0.313203
vt 0.401136 0.312724
vt 0.345696 0.314910
vt 0.382287 0.314155
vt 0.363934 0.315483
vt 0.335735 0.341499
vt 0.308033 0.312724
vt 0.317383 0.340170
vt 0.289183 0.314155
vt 0.299144 0.340744
vt 0.270831 0.315483
vt 0.280534 0.342450
vt 0.354584 0.342930
vt 0.373637 0.342450
vt 0.313339 0.372926
vn -0.083900 -0.950800 0.298100
vn 0.224300 -0.965400 0.133000
vn -0.349500 -0.935200 0.057300
vn -0.205400 -0.944800 -0.255300
vn 0.149700 -0.966400 -0.208900
vn 0.802400 -0.457000 0.383900
vn -0.118400 -0.416900 0.901200
vn -0.916100 -0.367700 0.160100
vn -0.482200 -0.396600 -0.781100
vn 0.598000 -0.464600 -0.653100
vn 0.482200 0.396600 0.781100
vn -0.598000 0.464600 0.653100
vn -0.802400 0.457000 -0.383900
vn 0.118400 0.416900 -0.901200
vn 0.916100 0.367700 -0.160100
vn 0.205400 0.944800 0.255300
vn -0.149700 0.966400 0.208900
vn -0.224300 0.965400 -0.133000
vn 0.083900 0.950800 -0.298100
vn 0.349500 0.935200 -0.057300
s off
f 49/63/81 50/64/81 51/65/81
f 50/64/82 49/63/82 54/66/82
f 49/63/83 51/65/83 52/67/83
f 49/63/84 52/67/84 53/68/84
f 49/63/85 53/68/85 54/66/85
f 50/64/86 54/66/86 59/69/86
f 51/70/87 50/64/87 55/71/87
f 52/72/88 51/70/88 56/73/88
f 53/74/89 52/72/89 57/75/89
f 54/66/90 53/68/90 58/76/90
f 50/64/91 59/69/91 55/71/91
f 51/70/92 55/71/92 56/73/92
f 52/72/93 56/73/93 57/75/93
f 53/68/94 57/77/94 58/76/94
f 54/66/95 58/76/95 59/69/95
f 55/71/96 59/69/96 60/78/96
f 56/73/97 55/71/97 60/78/97
f 57/75/98 56/73/98 60/78/98
f 58/76/99 57/77/99 60/78/99
f 59/69/100 58/76/100 60/78/100
v 3.273939 -1.282591 0.180397
v 3.097315 -1.357164 0.297015
v 3.289047 -1.328543 0.430958
v 3.469265 -1.318462 0.222764
v 3.388908 -1.340853 -0.039850
v 3.159031 -1.364772 0.006042
v 3.183480 -1.439123 0.411458
v 3.413356 -1.415205 0.365566
v 3.475072 -1.422812 0.074593
v 3.283340 -1.451433 -0.059350
v 3.103122 -1.461514 0.148844
v 3.298448 -1.497385 0.191211
vt 0.269486 0.323805
vt 0.288781 0.344408
vt 0.274896 0.349079
vt 0.304396 0.340507
vt 0.261308 0.348442
vt 0.247203 0.343279
vt 0.215595 0.344408
vt 0.231210 0.340507
vt 0.224715 0.363221
vt 0.201711 0.349079
vt 0.210610 0.368384
vt 0.267803 0.371157
vt 0.252188 0.367255
vt 0.238304 0.362585
vt 0.283795 0.368384
vt 0.232893 0.387859
vn -0.273100 0.943100 0.189400
vn -0.451800 0.884100 -0.119000
vn 0.142100 0.975100 0.170300
vn 0.209300 0.966800 -0.146500
vn -0.162800 0.929500 -0.330900
vn -0.947900 0.241700 -0.207400
vn -0.562600 0.410500 0.717600
vn 0.647900 0.488400 0.584500
vn 0.834500 0.465400 -0.295000
vn -0.218700 0.368200 -0.903700
vn -0.834500 -0.465400 0.295000
vn 0.218700 -0.368200 0.903700
vn 0.947900 -0.241700 0.207400
vn 0.562600 -0.410500 -0.717600
vn -0.647900 -0.488400 -0.584500
vn -0.209300 -0.966800 0.146500
vn 0.162800 -0.929500 0.330900
vn 0.451800 -0.884100 0.119000
vn 0.273100 -0.943100 -0.189400
vn -0.142100 -0.975100 -0.170300
s off
f 61/79/101 62/80/101 63/81/101
f 62/80/102 61/79/102 66/82/102
f 61/79/103 63/81/103 64/83/103
f 61/79/104 64/83/104 65/84/104
f 61/79/105 65/84/105 66/82/105
f 62/85/106 66/86/106 71/87/106
f 63/88/107 62/85/107 67/89/107
f 64/83/108 63/81/108 68/90/108
f 65/84/109 64/83/109 69/91/109
f 66/86/110 65/84/110 70/92/110
f 62/85/111 71/87/111 67/89/111
f 63/81/112 67/93/112 68/90/112
f 64/83/113 68/90/113 69/91/113
f 65/84/114 69/91/114 70/92/114
f 66/86/115 70/92/115 71/87/115
f 67/89/116 71/87/116 72/94/116
f 68/90/117 67/93/117 72/94/117
f 69/91/118 68/90/118 72/94/118
f 70/92/119 69/91/119 72/94/119
f 71/87/120 70/92/120 72/94/120
v 0.000000 -1.506376 0.000000
v 0.990509 -1.355927 0.555097
v -0.276388 -1.352924 0.850649
v -1.355140 -1.433293 0.000000
v -0.305178 -1.321823 -0.898174
v 0.990509 -1.343705 -0.555097
v 0.290620 -1.107665 0.855327
v -0.840509 -1.039915 0.529335
v -1.003169 -1.067623 -0.558909
v 0.276388 -1.005825 -0.850649
v 1.371798 -1.163938 0.000000
v 0.000000 -0.794565 0.000000
v -0.257073 -1.428844 0.756597
v -0.179378 -1.482976 0.527930
v -0.082054 -1.505771 0.252540
v 0.216299 -1.537595 0.157149
v 0.428654 -1.512730 0.311133
v 0.642435 -1.408153 0.442856
v 0.617251 -1.371846 0.724742
v 0.274520 -1.411268 0.807913
v -0.032951 -1.332983 0.918731
v 1.247054 -1.430137 -0.313873
v 1.113879 -1.401954 0.000000
v 1.035619 -1.379830 0.297265
v 0.216299 -1.519401 -0.157149
v 0.425671 -1.467631 -0.309011
v 0.688761 -1.373769 -0.445292
v -0.997659 -1.422685 0.000000
v -0.534553 -1.474236 0.000000
v -0.262278 -1.529157 0.000000
v -0.544800 -1.361284 0.756598
v -0.848425 -1.355610 0.532279
v -1.199099 -1.413202 0.254275
v -0.234420 -1.382959 -0.721483
v -0.170821 -1.448866 -0.502745
v -0.086279 -1.495094 -0.253929
v -1.299248 -1.438021 -0.253930
v -0.774399 -1.338182 -0.503430
v -0.487344 -1.336367 -0.716565
v -0.032951 -1.295486 -0.918731
v 0.264674 -1.312665 -0.814567
v 0.617251 -1.309057 -0.724742
v 1.400011 -1.236634 0.148632
v 1.507110 -1.343373 0.326720
v 1.367128 -1.381820 0.467600
v 1.279616 -1.356274 -0.471450
v 1.368936 -1.303981 -0.309013
v 1.400011 -1.236252 -0.148632
v 0.155215 -1.133251 0.955422
v 0.000000 -1.169115 0.998643
v -0.163207 -1.262399 0.960676
v 0.764317 -1.272020 0.681715
v 0.654625 -1.207208 0.813466
v 0.436618 -1.177003 0.864188
v -1.235043 -1.185412 0.442256
v -1.368936 -1.296734 0.309013
v -1.400011 -1.381720 0.148632
v -0.466022 -1.287733 0.919984
v -0.612392 -1.181149 0.809017
v -0.912732 -1.112965 0.724745
v -0.828866 -1.104800 -0.685465
v -0.701307 -1.172492 -0.854216
v -0.459992 -1.262805 -0.868941
v -1.646936 -1.448837 -0.156936
v -1.385670 -1.301115 -0.311134
v -1.367128 -1.219117 -0.467600
v 0.488172 -1.063552 -0.918735
v 0.617845 -1.145052 -0.814572
v 0.846269 -1.249165 -0.725730
v -0.155215 -1.236207 -0.955422
v 0.000000 -1.134868 -1.006866
v 0.156281 -1.055751 -0.961982
v 1.066077 -1.070798 0.238853
v 0.848425 -1.026472 0.532279
v 0.518308 -1.070386 0.757627
v 0.031338 -1.008967 0.913706
v -0.276404 -1.015199 0.813461
v -0.584204 -1.011640 0.725727
v -1.150012 -1.080141 0.314300
v -1.223842 -1.092929 0.000000
v -1.035620 -1.057248 -0.297265
v -0.584204 -1.027348 -0.725727
v -0.290251 -1.040265 -0.854210
v 0.031338 -0.977453 -0.913706
v 0.544800 -0.987803 -0.756598
v 0.774399 -0.999153 -0.503430
v 1.156719 -1.089652 -0.238529
v 0.086279 -0.822680 0.253929
v 0.170821 -0.907919 0.502745
v 0.257073 -1.018885 0.756597
v 0.997659 -0.995106 0.000000
v 0.534553 -0.901153 0.000000
v 0.279212 -0.851453 0.000000
v -0.204576 -0.838758 0.148631
v -0.425671 -0.904453 0.309011
v -0.740242 -0.955805 0.467598
v -0.213643 -0.847717 -0.148430
v -0.448226 -0.916959 -0.310711
v -0.648401 -0.967646 -0.445897
v 0.086279 -0.809239 -0.253929
v 0.163571 -0.863380 -0.503428
v 0.246163 -0.932745 -0.757625
v 0.055815 -1.417637 0.727621
v 0.153642 -1.504119 0.452166
v 0.380436 -1.485060 0.591012
v 0.736534 -1.407655 -0.162457
v 0.803900 -1.423842 0.171767
v 0.498150 -1.502391 0.000001
v -0.691291 -1.417685 0.264669
v -0.377837 -1.520063 0.262508
v -0.475290 -1.453719 0.555855
v -0.451414 -1.420968 -0.529337
v -0.377837 -1.498625 -0.262506
v -0.795490 -1.413864 -0.277549
v 0.380434 -1.402920 -0.591012
v 0.146116 -1.458176 -0.449694
v 0.053152 -1.372079 -0.692912
v 1.632452 -1.378127 0.000000
v 1.514107 -1.430864 0.172946
v 1.514107 -1.430700 -0.172947
v 0.343549 -1.266869 1.011086
v 0.139148 -1.291673 0.957585
v 0.472509 -1.333379 0.855327
v -1.113949 -1.232457 0.591016
v -1.141531 -1.323349 0.425324
v -0.736537 -1.264215 0.688191
v -1.140158 -1.238069 -0.625733
v -0.812951 -1.261440 -0.732623
v -1.266598 -1.354542 -0.449697
v 0.328969 -1.139372 -1.012461
v 0.448218 -1.231241 -0.850648
v 0.139148 -1.216012 -0.957585
v 0.864487 -1.114530 0.726638
v 1.140158 -1.247105 0.625733
v 1.141533 -1.162309 0.425323
v -0.469085 -1.106055 0.849494
v -0.322713 -1.205410 0.949766
v -0.146119 -1.083361 1.005555
v -1.466077 -1.238841 -0.162237
v -1.601774 -1.359316 0.000000
v -1.514106 -1.250122 0.172947
v -0.152594 -1.085303 -1.004190
v -0.328968 -1.196683 -1.012461
v -0.498155 -1.110600 -0.898174
v 1.266600 -1.190028 -0.449695
v 1.125573 -1.236262 -0.621465
v 0.803906 -1.079219 -0.727625
v 0.382535 -0.912731 0.277926
v 0.451413 -0.992344 0.529338
v 0.684566 -0.948767 0.262864
v -0.147120 -0.850991 0.452780
v -0.377839 -0.951391 0.586981
v -0.052790 -0.919366 0.688185
v -0.478785 -0.881927 0.000000
v -0.788014 -0.942659 -0.162237
v -0.874779 -0.944072 0.172711
v -0.146117 -0.867012 -0.449692
v -0.053152 -0.915313 -0.692910
v -0.399535 -0.975883 -0.620617
v 0.402290 -0.872281 -0.279455
v 0.804364 -0.933175 -0.279456
v 0.501917 -0.917802 -0.558912
vt 0.377882 0.000000
vt 0.650001 0.087438
vt 0.450001 0.087438
vt 0.650001 0.362676
vt 0.650001 0.284555
vt 0.694543 0.343676
vt 0.250000 0.087439
vt 0.049999 0.087438
vt 1.049999 0.087438
vt 0.849999 0.087438
vt 0.674369 0.425361
vt 0.450001 0.362676
vt 0.494544 0.343675
vt 0.474368 0.425360
vt 0.250000 0.362677
vt 0.294542 0.343676
vt 0.274367 0.425361
vt 0.049999 0.362676
vt 0.094543 0.343675
vt 0.074367 0.425360
vt 0.849999 0.362676
vt 0.894542 0.343675
vt 0.874367 0.425360
vt 0.625633 0.425360
vt 0.425633 0.425360
vt 0.225633 0.425361
vt 0.025632 0.425360
vt 0.825631 0.425361
vt 0.549999 0.637324
vt 0.594543 0.656325
vt 0.549999 0.715446
vt 0.349999 0.637324
vt 0.394542 0.656325
vt 0.349999 0.715446
vt 0.150001 0.637324
vt 0.194543 0.656324
vt 0.150001 0.715446
vt 0.950001 0.637324
vt 0.994544 0.656325
vt 0.950001 0.715446
vt 0.750000 0.637323
vt 0.794542 0.656324
vt 0.750000 0.715444
vt 0.450001 0.284554
vt 0.450001 0.188183
vt 0.512185 0.255633
vt 0.550001 0.158365
vt 0.550001 0.335332
vt 0.587817 0.255634
vt 0.605458 0.343675
vt 0.650001 0.188183
vt 0.805457 0.343676
vt 0.849999 0.284554
vt 0.750000 0.335333
vt 0.787816 0.255634
vt 0.712184 0.255634
vt 0.849999 0.188183
vt 0.750000 0.158365
vt 0.250000 0.284556
vt 0.250000 0.188184
vt 0.312184 0.255634
vt 0.350000 0.158365
vt 0.350000 0.335333
vt 0.387816 0.255634
vt 0.405458 0.343675
vt 0.049999 0.284554
vt 0.049999 0.188182
vt 0.112184 0.255633
vt 0.150000 0.158365
vt 0.150000 0.335333
vt 0.187817 0.255634
vt 0.205458 0.343676
vt 0.912183 0.255633
vt 0.949999 0.158365
vt 0.949999 0.335332
vt 0.987815 0.255634
vt 1.005456 0.343675
vt 1.049999 0.188182
vt 1.049999 0.284554
vt 0.005456 0.343675
vt 0.725633 0.574639
vt 0.774367 0.574639
vt 0.700001 0.500000
vt 0.750000 0.500000
vt 0.722966 0.417608
vt 0.799999 0.500000
vt 0.777034 0.417608
vt 0.525632 0.574640
vt 0.574367 0.574640
vt 0.500000 0.500000
vt 0.550000 0.500000
vt 0.522966 0.417608
vt 0.600000 0.500000
vt 0.577035 0.417608
vt 0.325631 0.574639
vt 0.374367 0.574640
vt 0.299999 0.500000
vt 0.350000 0.500000
vt 0.322966 0.417608
vt 0.400000 0.500000
vt 0.377034 0.417608
vt 0.125633 0.574640
vt 0.174369 0.574639
vt 0.100000 0.500000
vt 0.150000 0.500000
vt 0.122966 0.417608
vt 0.200001 0.500000
vt 0.177034 0.417608
vt 0.925633 0.574640
vt 0.974368 0.574640
vt 0.900000 0.500000
vt 0.950000 0.500000
vt 0.922965 0.417608
vt 1.000000 0.500000
vt 0.977034 0.417608
vt 1.025632 0.425360
vt 0.622966 0.582392
vt 0.650000 0.499999
vt 0.650000 0.664668
vt 0.677035 0.582391
vt 0.705458 0.656324
vt 0.422965 0.582392
vt 0.450000 0.500000
vt 0.449999 0.664668
vt 0.477034 0.582392
vt 0.505456 0.656325
vt 0.222966 0.582392
vt 0.250000 0.500000
vt 0.250000 0.664667
vt 0.277034 0.582392
vt 0.305457 0.656324
vt 1.022966 0.582392
vt 0.050000 0.500000
vt 0.000000 0.500000
vt 1.050001 0.664668
vt 0.022966 0.582392
vt 0.077035 0.582392
vt 0.050001 0.664668
vt 0.105458 0.656325
vt 0.822965 0.582392
vt 0.849999 0.500000
vt 0.850000 0.664667
vt 0.877034 0.582392
vt 0.905457 0.656325
vt 0.549999 0.912562
vt 0.750000 0.912561
vt 0.877882 1.000000
vt 0.549999 0.811818
vt 0.650000 0.841635
vt 0.612184 0.744367
vt 0.750000 0.811816
vt 0.687816 0.744366
vt 1.349999 0.912562
vt 0.349999 0.811817
vt 0.449999 0.841636
vt 0.349999 0.912562
vt 0.412183 0.744367
vt 0.487815 0.744367
vt 1.150001 0.912562
vt 0.150001 0.811817
vt 0.250000 0.841635
vt 0.150001 0.912562
vt 0.212184 0.744366
vt 0.287816 0.744366
vt 0.950001 0.912562
vt 0.950001 0.811817
vt 1.050001 0.841636
vt 1.012185 0.744367
vt 0.050001 0.841636
vt 0.012185 0.744367
vt 0.087817 0.744367
vt 0.850000 0.841635
vt 0.812184 0.744366
vt 0.887816 0.744367
vn -0.117300 -0.992500 -0.035700
vn 0.112300 -0.987400 0.111200
vn 0.086500 -0.995800 0.030500
vn 0.086300 -0.993600 -0.073500
vn -0.074000 -0.997100 -0.019200
vn -0.049000 -0.995300 0.083700
vn -0.142900 -0.687100 0.712400
vn -0.272600 -0.931500 0.240900
vn -0.390900 -0.799500 -0.456100
vn 0.200200 -0.775400 -0.598900
vn 0.106400 -0.730700 0.674300
vn -0.023700 -0.759900 0.649600
vn -0.108800 -0.948800 0.296400
vn -0.252300 -0.192200 -0.948400
vn 0.126600 -0.818400 -0.560500
vn 0.147300 0.759800 0.633200
vn -0.414100 0.805200 0.424500
vn -0.250100 0.965700 -0.069300
vn 0.234700 0.800000 -0.552200
vn 0.409800 0.908100 -0.086700
vn -0.106700 -0.784300 0.611200
vn 0.057600 -0.966900 0.248500
vn -0.048400 -0.996700 0.065400
vn 0.072200 -0.899100 0.431800
vn -0.105700 -0.926400 0.361300
vn 0.008200 -0.953200 0.302200
vn -0.085200 -0.958900 0.270800
vn -0.077500 -0.954800 0.287000
vn 0.200300 -0.893600 0.401800
vn -0.074900 -0.992500 0.096700
vn 0.029900 -0.992400 0.119000
vn 0.021200 -0.994600 0.102000
vn 0.356800 -0.921600 0.152600
vn 0.355900 -0.922300 0.150600
vn 0.103900 -0.985200 0.136200
vn -0.021000 -0.948100 -0.317300
vn -0.019800 -0.996500 0.081100
vn 0.129100 -0.985800 0.107400
vn -0.075100 -0.991500 -0.106100
vn 0.258300 -0.953100 -0.157800
vn 0.039300 -0.997600 -0.056200
vn 0.303400 -0.946800 -0.107000
vn 0.262700 -0.950000 -0.168500
vn 0.138800 -0.980000 -0.142800
vn 0.118100 -0.984800 0.127300
vn 0.306000 -0.922400 0.235700
vn 0.237800 -0.971100 0.020800
vn 0.120600 -0.992700 -0.006000
vn 0.092100 -0.994100 -0.057500
vn -0.101600 -0.993200 -0.057500
vn 0.029600 -0.997700 0.060700
vn -0.109500 -0.983300 0.145300
vn -0.197500 -0.978900 -0.053000
vn -0.009400 -0.999500 0.029800
vn -0.013100 -0.975700 0.218600
vn -0.310300 -0.950400 0.019300
vn -0.307800 -0.944900 0.111400
vn -0.257900 -0.963500 0.072100
vn -0.259500 -0.908200 0.328300
vn 0.050100 -0.997100 0.056600
vn 0.051400 -0.993600 0.100400
vn -0.078200 -0.977700 0.195100
vn -0.077100 -0.975800 0.204800
vn -0.214400 -0.913300 0.346300
vn -0.183800 -0.783000 0.594300
vn -0.179900 -0.949600 -0.256500
vn -0.070000 -0.960600 -0.269100
vn 0.017400 -0.981900 -0.188400
vn -0.174900 -0.909400 -0.377400
vn -0.258700 -0.897900 -0.356100
vn -0.071000 -0.962800 -0.260600
vn -0.185800 -0.956000 -0.227000
vn -0.259100 -0.908300 -0.328500
vn 0.030700 -0.948600 -0.315000
vn 0.015600 -0.992400 -0.122300
vn -0.197700 -0.979900 -0.027000
vn -0.197900 -0.979900 -0.027100
vn -0.109900 -0.987700 -0.111500
vn 0.048100 -0.998800 0.003300
vn 0.029700 -0.999200 0.025100
vn 0.013700 -0.973400 -0.228900
vn 0.207700 -0.945600 -0.250300
vn 0.079000 -0.971800 -0.222300
vn 0.217500 -0.937200 -0.272700
vn 0.117000 -0.898400 -0.423300
vn 0.086000 -0.968000 -0.235900
vn 0.017100 -0.940500 -0.339400
vn 0.034500 -0.920400 -0.389500
vn 0.065900 -0.937000 -0.343000
vn -0.014200 -0.979400 -0.201600
vn 0.001800 -0.983100 -0.183300
vn 0.030000 -0.938600 -0.343700
vn 0.066300 -0.949900 -0.305500
vn 0.069600 -0.936300 -0.344100
vn 0.064100 -0.934900 -0.349100
vn 0.931900 0.362600 0.000500
vn 0.577000 0.805400 0.135700
vn 0.604200 -0.680500 0.414600
vn 0.520500 0.853900 0.001100
vn 0.649900 0.646800 -0.399100
vn 0.756500 -0.553000 0.349100
vn 0.406500 -0.913600 -0.000400
vn 0.766500 0.237400 -0.596700
vn 0.781800 0.322500 -0.533700
vn -0.072100 -0.989100 0.128700
vn -0.093200 -0.994400 0.049500
vn -0.071800 -0.997400 -0.000500
vn -0.040300 -0.996600 0.072400
vn 0.199600 -0.902500 -0.381800
vn 0.079000 -0.908800 -0.409700
vn 0.310500 0.731500 0.607100
vn 0.116500 0.517400 0.847800
vn -0.023400 -0.341400 0.939600
vn 0.315100 0.707600 0.632500
vn 0.246800 0.749200 0.614700
vn -0.167500 -0.478800 0.861800
vn 0.007200 -0.917500 0.397700
vn 0.523500 -0.535900 0.662300
vn 0.515300 -0.517100 0.683400
vn -0.047100 -0.573100 0.818100
vn 0.037800 -0.763700 0.644400
vn 0.119600 -0.720100 0.683500
vn 0.215800 -0.845600 0.488200
vn 0.523200 -0.462100 0.716000
vn 0.411100 -0.224900 0.883400
vn -0.377400 0.904500 0.198600
vn -0.749900 0.124300 0.649800
vn -0.344700 -0.800200 0.490800
vn -0.657200 0.375200 0.653700
vn -0.330600 -0.399900 0.854800
vn -0.346400 -0.797000 0.494800
vn -0.199000 -0.844900 0.496600
vn -0.237600 -0.669100 0.704100
vn -0.652100 -0.115400 0.749300
vn -0.395400 -0.751700 0.527900
vn -0.278200 -0.808600 0.518400
vn -0.310000 -0.706300 0.636500
vn -0.510100 -0.530500 0.677000
vn -0.525200 -0.652100 0.546800
vn -0.133700 -0.877900 0.459700
vn -0.411100 0.549200 -0.727600
vn -0.410900 0.695500 -0.589500
vn -0.281000 -0.633200 -0.721200
vn -0.400600 0.643500 -0.652200
vn -0.389300 -0.796100 -0.463300
vn -0.280800 -0.633300 -0.721100
vn -0.265100 -0.705500 -0.657200
vn -0.773800 -0.104200 -0.624800
vn -0.620900 0.385900 -0.682300
vn -0.178600 -0.873100 -0.453600
vn -0.202100 -0.938400 -0.280200
vn -0.003100 -0.948400 -0.317000
vn -0.012500 -0.919000 -0.394000
vn -0.084000 -0.911500 -0.402700
vn 0.038600 -0.998900 0.027100
vn 0.083200 0.872700 -0.481100
vn 0.555900 -0.158500 -0.816000
vn 0.287900 -0.172300 -0.942000
vn 0.111200 0.671800 -0.732400
vn -0.007800 0.505000 -0.863100
vn 0.445300 -0.597100 -0.667200
vn 0.158800 -0.803800 -0.573400
vn -0.021700 -0.545900 -0.837600
vn 0.026800 -0.484900 -0.874200
vn 0.182200 -0.708100 -0.682200
vn 0.180800 -0.709400 -0.681200
vn 0.192500 -0.726300 -0.659800
vn 0.188200 -0.729200 -0.657900
vn 0.026900 -0.485400 -0.873900
vn -0.010900 -0.542500 -0.840000
vn 0.234200 0.591600 0.771500
vn 0.254700 0.288100 0.923100
vn 0.133900 -0.840500 0.525000
vn 0.149100 0.639500 0.754200
vn 0.151000 0.905100 0.397600
vn 0.363700 0.048100 0.930300
vn 0.505600 0.793300 0.339100
vn 0.492700 0.807200 0.325000
vn 0.476000 0.850300 0.224600
vn 0.155100 -0.631000 0.760100
vn 0.650100 0.255300 0.715700
vn 0.489600 0.801800 0.342600
vn 0.480000 0.849200 0.220300
vn 0.481100 0.848200 0.221600
vn 0.488500 0.816800 0.306800
vn -0.286700 0.927300 0.240700
vn -0.270700 -0.002400 0.962700
vn -0.383300 0.359400 0.850800
vn -0.209800 0.673400 0.708900
vn -0.192100 0.685900 0.701900
vn -0.398300 0.291200 0.869800
vn -0.436300 0.234100 0.868800
vn -0.294800 0.819800 0.490900
vn -0.155700 0.892900 0.422400
vn -0.119700 -0.146900 0.981900
vn -0.128500 -0.172700 0.976600
vn -0.114200 -0.271600 0.955600
vn 0.200900 0.266400 0.942700
vn 0.222200 0.502000 0.835800
vn 0.388900 0.617200 0.683900
vn -0.401200 0.912000 -0.085900
vn -0.868900 -0.388700 -0.306600
vn -0.588600 0.763400 -0.266100
vn -0.407000 0.910500 -0.073100
vn -0.426500 0.889600 -0.163300
vn -0.821000 0.209600 -0.531000
vn -0.712800 0.696900 -0.078700
vn -0.494900 0.868000 -0.041700
vn -0.443600 0.893700 0.067800
vn -0.472100 -0.700300 0.535400
vn -0.441400 -0.754700 0.485400
vn -0.692100 -0.398000 0.602100
vn -0.689600 -0.036300 0.723300
vn -0.501000 0.801500 0.326500
vn -0.394000 0.820800 0.413500
vn 0.243100 0.759800 -0.603000
vn 0.094900 0.342700 -0.934600
vn 0.125300 -0.594900 -0.793900
vn 0.054500 0.585600 -0.808800
vn -0.253100 0.837700 -0.483900
vn 0.004300 0.067200 -0.997700
vn -0.285900 0.512800 -0.809500
vn -0.200700 0.872200 -0.446100
vn -0.181000 0.847300 -0.499400
vn -0.052100 -0.888100 -0.456700
vn -0.308800 -0.724800 -0.615900
vn -0.320400 0.465600 -0.825000
vn -0.349900 0.747700 -0.564400
vn -0.333500 0.773000 -0.539600
vn -0.324600 0.687900 -0.649200
vn 0.568200 0.777200 -0.270300
vn 0.867300 0.375600 -0.326700
vn 0.777900 0.330700 -0.534200
vn 0.543100 0.832000 -0.112900
vn 0.373600 0.898000 -0.232400
vn 0.780000 -0.067600 -0.622200
vn 0.503500 0.636100 -0.584600
vn 0.373600 0.888000 -0.268000
vn 0.347100 0.896700 -0.274600
vn 0.312500 -0.558900 -0.768100
vn 0.350800 -0.029100 -0.936000
vn 0.374800 0.149200 -0.915000
vn 0.486400 -0.282800 -0.826700
vn 0.338000 0.801900 -0.492700
vn 0.097700 0.888100 -0.449100
vn 0.199500 0.979100 0.040600
vn 0.265900 0.936100 0.230300
vn 0.245600 0.916100 0.317000
vn 0.281300 0.953800 0.105700
vn 0.189100 0.971400 0.143900
vn 0.261000 0.938600 0.225700
vn 0.127300 0.955100 0.267600
vn 0.123100 0.986500 0.108400
vn 0.198400 0.978000 0.063900
vn 0.185300 0.945200 0.268800
vn 0.079400 0.950100 0.301500
vn 0.081700 0.969800 0.230000
vn 0.308400 0.947400 0.085700
vn 0.309900 0.928300 0.205400
vn 0.405400 0.898400 0.168600
vn -0.107000 0.983600 0.145200
vn -0.228600 0.970000 0.082200
vn -0.070600 0.981500 0.177900
vn -0.074600 0.995700 0.054100
vn 0.125800 0.950800 0.283000
vn -0.286500 0.935400 0.207300
vn -0.198000 0.917200 0.345800
vn 0.137300 0.964600 0.225100
vn 0.223100 0.918700 0.325800
vn -0.099800 0.958300 0.267600
vn -0.074900 0.950600 0.301400
vn -0.198400 0.916600 0.347100
vn -0.152900 0.897500 0.413600
vn 0.236600 0.930000 0.281200
vn 0.403200 0.744300 0.532300
vn -0.226700 0.973700 -0.022400
vn -0.197600 0.971800 -0.129000
vn -0.142100 0.977500 -0.156100
vn -0.142000 0.989500 -0.025500
vn -0.211000 0.971600 0.107100
vn -0.128400 0.984000 -0.123600
vn -0.172100 0.984300 -0.040400
vn -0.115100 0.989100 0.091900
vn -0.302400 0.924900 -0.230300
vn -0.362900 0.924200 -0.118800
vn -0.353700 0.931200 -0.087700
vn -0.416900 0.906900 0.061000
vn -0.351300 0.915400 0.196700
vn -0.406500 0.803600 0.434700
vn -0.165400 0.979800 -0.112800
vn -0.050800 0.972600 -0.226800
vn -0.000800 0.964700 -0.263500
vn -0.160800 0.982000 -0.098900
vn -0.211000 0.971300 -0.109500
vn -0.048300 0.976000 -0.212300
vn -0.220300 0.937200 -0.270300
vn -0.256500 0.941300 -0.219300
vn -0.109800 0.973200 -0.202300
vn -0.002700 0.962300 -0.271900
vn -0.241300 0.906200 -0.347300
vn -0.232900 0.904200 -0.358100
vn -0.091200 0.948300 -0.304000
vn -0.133900 0.962500 -0.236100
vn -0.189400 0.950500 -0.246200
vn 0.199600 0.979800 0.011200
vn 0.191000 0.981500 0.011000
vn 0.198200 0.976900 0.079400
vn 0.196700 0.980400 0.013600
vn 0.181300 0.971200 -0.154600
vn 0.149700 0.988200 0.031300
vn 0.148900 0.983000 -0.107100
vn 0.140200 0.984000 -0.110300
vn 0.118600 0.967000 -0.225400
vn 0.412600 0.907000 -0.084400
vn 0.415800 0.855800 -0.307700
vn 0.329100 0.893000 -0.307100
vn 0.323700 0.911800 -0.252700
vn 0.174200 0.939500 -0.294900
vn 0.149600 0.800500 -0.580300
s off
f 73/95/121 88/96/121 87/97/121
f 74/98/122 90/99/122 96/100/122
f 73/95/123 87/97/123 102/101/123
f 73/95/124 102/101/124 108/102/124
f 73/95/125 108/103/125 97/104/125
f 74/98/126 96/100/126 117/105/126
f 75/106/127 93/107/127 123/108/127
f 76/109/128 105/110/128 129/111/128
f 77/112/129 111/113/129 135/114/129
f 78/115/130 114/116/130 141/117/130
f 74/98/131 117/105/131 124/118/131
f 75/106/132 123/108/132 130/119/132
f 76/109/133 129/111/133 136/120/133
f 77/112/134 135/114/134 142/121/134
f 78/115/135 141/117/135 118/122/135
f 79/123/136 147/124/136 162/125/136
f 80/126/137 150/127/137 168/128/137
f 81/129/138 153/130/138 171/131/138
f 82/132/139 156/133/139 174/134/139
f 83/135/140 159/136/140 163/137/140
f 85/138/141 93/107/141 75/106/141
f 86/139/142 175/140/142 85/138/142
f 87/97/143 176/141/143 86/139/143
f 85/138/144 175/140/144 93/107/144
f 175/140/145 92/142/145 93/107/145
f 86/139/146 176/141/146 175/140/146
f 176/141/147 177/143/147 175/140/147
f 175/140/148 177/143/148 92/142/148
f 177/143/149 91/144/149 92/142/149
f 87/97/150 88/96/150 176/141/150
f 88/96/151 89/145/151 176/141/151
f 176/141/152 89/145/152 177/143/152
f 89/145/153 90/99/153 177/143/153
f 177/143/154 90/99/154 91/144/154
f 90/99/155 74/98/155 91/144/155
f 94/146/156 99/147/156 78/115/156
f 95/148/157 178/149/157 94/146/157
f 96/100/158 179/150/158 95/148/158
f 94/146/159 178/149/159 99/147/159
f 178/149/160 98/151/160 99/147/160
f 95/148/161 179/150/161 178/149/161
f 179/150/162 180/152/162 178/149/162
f 178/149/163 180/152/163 98/151/163
f 180/152/164 97/104/164 98/151/164
f 96/100/165 90/99/165 179/150/165
f 90/99/166 89/145/166 179/150/166
f 179/150/167 89/145/167 180/152/167
f 89/145/168 88/96/168 180/152/168
f 180/152/169 88/96/169 97/104/169
f 88/96/170 73/95/170 97/104/170
f 100/153/171 105/110/171 76/109/171
f 101/154/172 181/155/172 100/153/172
f 102/101/173 182/156/173 101/154/173
f 100/153/174 181/155/174 105/110/174
f 181/155/175 104/157/175 105/110/175
f 101/154/176 182/156/176 181/155/176
f 182/156/177 183/158/177 181/155/177
f 181/155/178 183/158/178 104/157/178
f 183/158/179 103/159/179 104/157/179
f 102/101/180 87/97/180 182/156/180
f 87/97/181 86/139/181 182/156/181
f 182/156/182 86/139/182 183/158/182
f 86/139/183 85/138/183 183/158/183
f 183/158/184 85/138/184 103/159/184
f 85/138/185 75/106/185 103/159/185
f 106/160/186 111/113/186 77/112/186
f 107/161/187 184/162/187 106/160/187
f 108/102/188 185/163/188 107/161/188
f 106/160/189 184/162/189 111/113/189
f 184/162/190 110/164/190 111/113/190
f 107/161/191 185/163/191 184/162/191
f 185/163/192 186/165/192 184/162/192
f 184/162/193 186/165/193 110/164/193
f 186/165/194 109/166/194 110/164/194
f 108/102/195 102/101/195 185/163/195
f 102/101/196 101/154/196 185/163/196
f 185/163/197 101/154/197 186/165/197
f 101/154/198 100/153/198 186/165/198
f 186/165/199 100/153/199 109/166/199
f 100/153/200 76/109/200 109/166/200
f 99/147/201 114/116/201 78/115/201
f 98/151/202 187/167/202 99/147/202
f 97/104/203 188/168/203 98/151/203
f 99/147/204 187/167/204 114/116/204
f 187/167/205 113/169/205 114/116/205
f 98/151/206 188/168/206 187/167/206
f 188/168/207 189/170/207 187/167/207
f 187/167/208 189/170/208 113/169/208
f 189/170/209 112/171/209 113/169/209
f 97/104/210 108/103/210 188/168/210
f 108/103/211 107/172/211 188/168/211
f 188/168/212 107/172/212 189/170/212
f 107/172/213 106/173/213 189/170/213
f 189/170/214 106/173/214 112/171/214
f 106/160/215 77/112/215 112/174/215
f 115/175/216 120/176/216 83/135/216
f 116/177/217 190/178/217 115/175/217
f 117/105/218 191/179/218 116/177/218
f 115/175/219 190/178/219 120/176/219
f 190/178/220 119/180/220 120/176/220
f 116/177/221 191/179/221 190/178/221
f 191/179/222 192/181/222 190/178/222
f 190/178/223 192/181/223 119/180/223
f 192/181/224 118/122/224 119/180/224
f 117/105/225 96/100/225 191/179/225
f 96/100/226 95/148/226 191/179/226
f 191/179/227 95/148/227 192/181/227
f 95/148/228 94/146/228 192/181/228
f 192/181/229 94/146/229 118/122/229
f 94/146/230 78/115/230 118/122/230
f 121/182/231 126/183/231 79/123/231
f 122/184/232 193/185/232 121/182/232
f 123/108/233 194/186/233 122/184/233
f 121/182/234 193/185/234 126/183/234
f 193/185/235 125/187/235 126/183/235
f 122/184/236 194/186/236 193/185/236
f 194/186/237 195/188/237 193/185/237
f 193/185/238 195/188/238 125/187/238
f 195/188/239 124/118/239 125/187/239
f 123/108/240 93/107/240 194/186/240
f 93/107/241 92/142/241 194/186/241
f 194/186/242 92/142/242 195/188/242
f 92/142/243 91/144/243 195/188/243
f 195/188/244 91/144/244 124/118/244
f 91/144/245 74/98/245 124/118/245
f 127/189/246 132/190/246 80/126/246
f 128/191/247 196/192/247 127/189/247
f 129/111/248 197/193/248 128/191/248
f 127/189/249 196/192/249 132/190/249
f 196/192/250 131/194/250 132/190/250
f 128/191/251 197/193/251 196/192/251
f 197/193/252 198/195/252 196/192/252
f 196/192/253 198/195/253 131/194/253
f 198/195/254 130/119/254 131/194/254
f 129/111/255 105/110/255 197/193/255
f 105/110/256 104/157/256 197/193/256
f 197/193/257 104/157/257 198/195/257
f 104/157/258 103/159/258 198/195/258
f 198/195/259 103/159/259 130/119/259
f 103/159/260 75/106/260 130/119/260
f 133/196/261 138/197/261 81/129/261
f 134/198/262 199/199/262 133/196/262
f 135/114/263 200/200/263 134/198/263
f 133/196/264 199/199/264 138/197/264
f 199/199/265 137/201/265 138/197/265
f 134/198/266 200/200/266 199/199/266
f 200/200/267 201/202/267 199/199/267
f 199/199/268 201/202/268 137/201/268
f 201/202/269 136/120/269 137/201/269
f 135/114/270 111/113/270 200/200/270
f 111/113/271 110/164/271 200/200/271
f 200/200/272 110/164/272 201/202/272
f 110/164/273 109/166/273 201/202/273
f 201/202/274 109/166/274 136/120/274
f 109/166/275 76/109/275 136/120/275
f 139/203/276 144/204/276 82/132/276
f 140/205/277 202/206/277 139/203/277
f 141/117/278 203/207/278 140/205/278
f 139/203/279 202/206/279 144/204/279
f 202/206/280 143/208/280 144/204/280
f 140/205/281 203/207/281 202/206/281
f 203/207/282 204/209/282 202/206/282
f 202/206/283 204/209/283 143/208/283
f 204/209/284 142/210/284 143/208/284
f 141/117/285 114/116/285 203/207/285
f 114/116/286 113/169/286 203/207/286
f 203/207/287 113/169/287 204/209/287
f 113/169/288 112/171/288 204/209/288
f 204/209/289 112/171/289 142/210/289
f 112/174/290 77/112/290 142/121/290
f 126/183/291 147/124/291 79/123/291
f 125/187/292 205/211/292 126/183/292
f 124/118/293 206/212/293 125/187/293
f 126/183/294 205/211/294 147/124/294
f 205/211/295 146/213/295 147/124/295
f 125/187/296 206/212/296 205/211/296
f 206/212/297 207/214/297 205/211/297
f 205/211/298 207/214/298 146/213/298
f 207/214/299 145/215/299 146/213/299
f 124/118/300 117/105/300 206/212/300
f 117/105/301 116/177/301 206/212/301
f 206/212/302 116/177/302 207/214/302
f 116/177/303 115/175/303 207/214/303
f 207/214/304 115/175/304 145/215/304
f 115/175/305 83/135/305 145/215/305
f 132/190/306 150/127/306 80/126/306
f 131/194/307 208/216/307 132/190/307
f 130/119/308 209/217/308 131/194/308
f 132/190/309 208/216/309 150/127/309
f 208/216/310 149/218/310 150/127/310
f 131/194/311 209/217/311 208/216/311
f 209/217/312 210/219/312 208/216/312
f 208/216/313 210/219/313 149/218/313
f 210/219/314 148/220/314 149/218/314
f 130/119/315 123/108/315 209/217/315
f 123/108/316 122/184/316 209/217/316
f 209/217/317 122/184/317 210/219/317
f 122/184/318 121/182/318 210/219/318
f 210/219/319 121/182/319 148/220/319
f 121/182/320 79/123/320 148/220/320
f 138/197/321 153/130/321 81/129/321
f 137/201/322 211/221/322 138/197/322
f 136/120/323 212/222/323 137/201/323
f 138/197/324 211/221/324 153/130/324
f 211/221/325 152/223/325 153/130/325
f 137/201/326 212/222/326 211/221/326
f 212/222/327 213/224/327 211/221/327
f 211/221/328 213/224/328 152/223/328
f 213/224/329 151/225/329 152/223/329
f 136/120/330 129/111/330 212/222/330
f 129/111/331 128/191/331 212/222/331
f 212/222/332 128/191/332 213/224/332
f 128/191/333 127/189/333 213/224/333
f 213/224/334 127/189/334 151/225/334
f 127/189/335 80/126/335 151/225/335
f 144/204/336 156/133/336 82/132/336
f 143/208/337 214/226/337 144/204/337
f 142/121/338 215/227/338 143/228/338
f 144/204/339 214/226/339 156/133/339
f 214/226/340 155/229/340 156/133/340
f 143/228/341 215/227/341 214/230/341
f 215/227/342 216/231/342 214/230/342
f 214/230/343 216/231/343 155/232/343
f 216/231/344 154/233/344 155/232/344
f 142/121/345 135/114/345 215/227/345
f 135/114/346 134/198/346 215/227/346
f 215/227/347 134/198/347 216/231/347
f 134/198/348 133/196/348 216/231/348
f 216/231/349 133/196/349 154/233/349
f 133/196/350 81/129/350 154/233/350
f 120/176/351 159/136/351 83/135/351
f 119/180/352 217/234/352 120/176/352
f 118/122/353 218/235/353 119/180/353
f 120/176/354 217/234/354 159/136/354
f 217/234/355 158/236/355 159/136/355
f 119/180/356 218/235/356 217/234/356
f 218/235/357 219/237/357 217/234/357
f 217/234/358 219/237/358 158/236/358
f 219/237/359 157/238/359 158/236/359
f 118/122/360 141/117/360 218/235/360
f 141/117/361 140/205/361 218/235/361
f 218/235/362 140/205/362 219/237/362
f 140/205/363 139/203/363 219/237/363
f 219/237/364 139/203/364 157/238/364
f 139/203/365 82/132/365 157/238/365
f 160/239/366 165/240/366 84/241/366
f 161/242/367 220/243/367 160/239/367
f 162/125/368 221/244/368 161/242/368
f 160/239/369 220/243/369 165/240/369
f 220/243/370 164/245/370 165/240/370
f 161/242/371 221/244/371 220/243/371
f 221/244/372 222/246/372 220/243/372
f 220/243/373 222/246/373 164/245/373
f 222/246/374 163/137/374 164/245/374
f 162/125/375 147/124/375 221/244/375
f 147/124/376 146/213/376 221/244/376
f 221/244/377 146/213/377 222/246/377
f 146/213/378 145/215/378 222/246/378
f 222/246/379 145/215/379 163/137/379
f 145/215/380 83/135/380 163/137/380
f 166/247/381 160/239/381 84/241/381
f 167/248/382 223/249/382 166/250/382
f 168/128/383 224/251/383 167/248/383
f 166/250/384 223/249/384 160/239/384
f 223/249/385 161/242/385 160/239/385
f 167/248/386 224/251/386 223/249/386
f 224/251/387 225/252/387 223/249/387
f 223/249/388 225/252/388 161/242/388
f 225/252/389 162/125/389 161/242/389
f 168/128/390 150/127/390 224/251/390
f 150/127/391 149/218/391 224/251/391
f 224/251/392 149/218/392 225/252/392
f 149/218/393 148/220/393 225/252/393
f 225/252/394 148/220/394 162/125/394
f 148/220/395 79/123/395 162/125/395
f 169/253/396 166/247/396 84/241/396
f 170/254/397 226/255/397 169/256/397
f 171/131/398 227/257/398 170/254/398
f 169/256/399 226/255/399 166/250/399
f 226/255/400 167/248/400 166/250/400
f 170/254/401 227/257/401 226/255/401
f 227/257/402 228/258/402 226/255/402
f 226/255/403 228/258/403 167/248/403
f 228/258/403 168/128/403 167/248/403
f 171/131/404 153/130/404 227/257/404
f 153/130/405 152/223/405 227/257/405
f 227/257/406 152/223/406 228/258/406
f 152/223/407 151/225/407 228/258/407
f 228/258/408 151/225/408 168/128/408
f 151/225/409 80/126/409 168/128/409
f 172/259/410 169/253/410 84/241/410
f 173/260/411 229/261/411 172/259/411
f 174/134/412 230/262/412 173/260/412
f 172/259/413 229/261/413 169/253/413
f 229/263/414 170/254/414 169/256/414
f 173/260/415 230/262/415 229/261/415
f 230/264/416 231/265/416 229/263/416
f 229/263/417 231/265/417 170/254/417
f 231/265/418 171/131/418 170/254/418
f 174/134/419 156/133/419 230/262/419
f 156/133/420 155/229/420 230/262/420
f 230/264/421 155/232/421 231/265/421
f 155/232/422 154/233/422 231/265/422
f 231/265/423 154/233/423 171/131/423
f 154/233/424 81/129/424 171/131/424
f 165/240/425 172/259/425 84/241/425
f 164/245/426 232/266/426 165/240/426
f 163/137/427 233/267/427 164/245/427
f 165/240/428 232/266/428 172/259/428
f 232/266/429 173/260/429 172/259/429
f 164/245/430 233/267/430 232/266/430
f 233/267/431 234/268/431 232/266/431
f 232/266/432 234/268/432 173/260/432
f 234/268/433 174/134/433 173/260/433
f 163/137/434 159/136/434 233/267/434
f 159/136/435 158/236/435 233/267/435
f 233/267/436 158/236/436 234/268/436
f 158/236/437 157/238/437 234/268/437
f 234/268/438 157/238/438 174/134/438
f 157/238/439 82/132/439 174/134/439
