# Blender v2.76 (sub 0) OBJ File: 'npc_zerogmut.blend'
# www.blender.org
v -0.060044 -0.172860 0.006006
v 0.126255 -0.129654 0.027701
v -0.000369 -0.080916 0.164214
v -0.163594 -0.027219 0.077500
v -0.137845 -0.042771 -0.112606
v 0.041290 -0.106079 -0.143381
v 0.137845 0.042691 0.112606
v -0.041290 0.105999 0.143381
v -0.126255 0.129573 -0.027701
v 0.000369 0.080836 -0.164214
v 0.163594 0.027138 -0.077500
v 0.060044 0.172779 -0.006006
vt 0.386864 0.162439
vt 0.420370 0.171564
vt 0.404543 0.178763
vt 0.457854 0.162439
vt 0.437234 0.176672
vt 0.391864 0.186615
vt 0.379156 0.185491
vt 0.450146 0.185491
vt 0.427359 0.193267
vt 0.414651 0.194392
vt 0.401739 0.203211
vt 0.384875 0.208318
vt 0.440037 0.201119
vt 0.455865 0.208318
vt 0.422359 0.217443
vn 0.150900 -0.878400 0.453600
vn 0.246400 -0.936000 -0.251300
vn -0.513300 -0.643600 0.567700
vn -0.828400 -0.556200 -0.066700
vn -0.358900 -0.736900 -0.572900
vn 0.758800 -0.477700 -0.442700
vn 0.604400 -0.384400 0.697800
vn -0.470300 -0.004600 0.882500
vn -0.980100 0.136800 -0.143900
vn -0.220400 -0.155600 -0.962900
vn 0.980100 -0.136800 0.143900
vn 0.220400 0.155600 0.962900
vn -0.758800 0.477700 0.442700
vn -0.604400 0.384400 -0.697800
vn 0.470300 0.004600 -0.882500
vn 0.828400 0.556200 0.066700
vn 0.358900 0.736900 0.572900
vn -0.246400 0.936000 0.251300
vn -0.150900 0.878400 -0.453600
vn 0.513300 0.643600 -0.567700
s off
f 1/1/1 2/2/1 3/3/1
f 2/2/2 1/4/2 6/5/2
f 1/1/3 3/3/3 4/6/3
f 1/1/4 4/6/4 5/7/4
f 1/4/5 5/8/5 6/5/5
f 2/2/6 6/5/6 11/9/6
f 3/3/7 2/2/7 7/10/7
f 4/6/8 3/3/8 8/11/8
f 5/7/9 4/6/9 9/12/9
f 6/5/10 5/8/10 10/13/10
f 2/2/11 11/9/11 7/10/11
f 3/3/12 7/10/12 8/11/12
f 4/6/13 8/11/13 9/12/13
f 5/8/14 9/14/14 10/13/14
f 6/5/15 10/13/15 11/9/15
f 7/10/16 11/9/16 12/15/16
f 8/11/17 7/10/17 12/15/17
f 9/14/18 8/11/18 12/15/18
f 10/13/19 9/14/19 12/15/19
f 11/9/20 10/13/20 12/15/20
v -0.110941 -0.217137 0.117123
v 0.170500 -0.192108 0.084824
v 0.032752 -0.023172 0.267483
v -0.218826 0.043559 0.152876
v -0.236557 -0.084138 -0.100616
v 0.004059 -0.229787 -0.142672
v 0.236557 0.084058 0.100616
v -0.004059 0.229706 0.142672
v -0.170500 0.192028 -0.084824
v -0.032752 0.023092 -0.267483
v 0.218826 -0.043639 -0.152876
v 0.110941 0.217057 -0.117123
vt 0.436894 0.681291
vt 0.490014 0.689372
vt 0.461930 0.729426
vt 0.615623 0.681291
vt 0.547019 0.676559
vt 0.431128 0.743508
vt 0.402342 0.716310
vt 0.581071 0.716310
vt 0.520492 0.725087
vt 0.491707 0.752285
vt 0.457655 0.792036
vt 0.400650 0.779223
vt 0.551294 0.739169
vt 0.372565 0.739169
vt 0.526258 0.787304
vt 0.579379 0.779223
vn 0.143200 -0.670400 0.728000
vn 0.098700 -0.990900 0.091900
vn -0.460600 -0.304900 0.833600
vn -0.878300 -0.399500 0.262700
vn -0.532600 -0.823400 -0.195700
vn 0.610100 -0.721800 -0.326800
vn 0.682100 -0.203300 0.702400
vn -0.294900 0.388100 0.873200
vn -0.970700 0.235100 -0.050500
vn -0.411400 -0.450900 -0.792200
vn 0.970700 -0.235100 0.050500
vn 0.411400 0.450900 0.792200
vn -0.610100 0.721800 0.326800
vn -0.682100 0.203300 -0.702400
vn 0.294900 -0.388100 -0.873200
vn 0.878300 0.399500 -0.262700
vn 0.532600 0.823400 0.195700
vn -0.098700 0.990900 -0.091900
vn -0.143200 0.670400 -0.728000
vn 0.460600 0.304900 -0.833600
s off
f 13/16/21 14/17/21 15/18/21
f 14/17/22 13/19/22 18/20/22
f 13/16/23 15/18/23 16/21/23
f 13/16/24 16/21/24 17/22/24
f 13/19/25 17/23/25 18/20/25
f 14/17/26 18/20/26 23/24/26
f 15/18/27 14/17/27 19/25/27
f 16/21/28 15/18/28 20/26/28
f 17/22/29 16/21/29 21/27/29
f 18/20/30 17/23/30 22/28/30
f 14/17/31 23/24/31 19/25/31
f 15/18/32 19/25/32 20/26/32
f 16/21/33 20/26/33 21/27/33
f 17/22/34 21/27/34 22/29/34
f 18/20/35 22/28/35 23/24/35
f 19/25/36 23/24/36 24/30/36
f 20/26/37 19/25/37 24/30/37
f 21/31/38 20/26/38 24/30/38
f 22/28/39 21/31/39 24/30/39
f 23/24/40 22/28/40 24/30/40
v 0.000000 -0.190453 0.000000
v 0.137800 -0.085182 0.100117
v -0.052634 -0.085182 0.161993
v -0.170332 -0.085182 0.000000
v -0.052634 -0.085182 -0.161993
v 0.137800 -0.085182 -0.100117
v 0.052634 0.085150 0.161993
v -0.137800 0.085150 0.100117
v -0.137800 0.085150 -0.100117
v 0.052634 0.085150 -0.161993
v 0.170332 0.085150 0.000000
v 0.000000 0.190421 0.000000
vt 0.905377 0.256761
vt 0.937766 0.280058
vt 0.922307 0.282019
vt 0.877436 0.280458
vt 0.907458 0.283568
vt 0.892691 0.282639
vt 0.861617 0.280058
vt 0.869384 0.302369
vt 0.846158 0.282019
vt 0.854616 0.303299
vt 0.831309 0.283568
vt 0.839362 0.305479
vt 0.899691 0.305880
vt 0.884233 0.303919
vt 0.915511 0.305479
vt 0.867302 0.329177
vn 0.187600 -0.794700 0.577400
vn 0.607100 -0.794700 0.000000
vn -0.491100 -0.794700 0.356800
vn -0.491100 -0.794700 -0.356800
vn 0.187600 -0.794700 -0.577400
vn 0.982200 -0.187600 0.000000
vn 0.303500 -0.187600 0.934200
vn -0.794600 -0.187600 0.577400
vn -0.794600 -0.187600 -0.577400
vn 0.303500 -0.187600 -0.934200
vn 0.794600 0.187600 0.577400
vn -0.303500 0.187600 0.934200
vn -0.982200 0.187600 0.000000
vn -0.303500 0.187600 -0.934200
vn 0.794600 0.187600 -0.577400
vn 0.491100 0.794700 0.356800
vn -0.187600 0.794700 0.577400
vn -0.607100 0.794700 0.000000
vn -0.187600 0.794700 -0.577400
vn 0.491100 0.794700 -0.356800
s off
f 25/32/41 26/33/41 27/34/41
f 26/33/42 25/32/42 30/35/42
f 25/32/43 27/34/43 28/36/43
f 25/32/44 28/36/44 29/37/44
f 25/32/45 29/37/45 30/35/45
f 26/38/46 30/35/46 35/39/46
f 27/40/47 26/38/47 31/41/47
f 28/42/48 27/40/48 32/43/48
f 29/37/49 28/36/49 33/44/49
f 30/35/50 29/37/50 34/45/50
f 26/38/51 35/39/51 31/41/51
f 27/40/52 31/41/52 32/43/52
f 28/36/53 32/46/53 33/44/53
f 29/37/54 33/44/54 34/45/54
f 30/35/55 34/45/55 35/39/55
f 31/41/56 35/39/56 36/47/56
f 32/43/57 31/41/57 36/47/57
f 33/44/58 32/46/58 36/47/58
f 34/45/59 33/44/59 36/47/59
f 35/39/60 34/45/60 36/47/60
v 0.044516 -0.000226 -0.155209
v -0.061726 -0.116961 -0.092685
v -0.112105 0.044504 -0.107328
v 0.019954 0.144297 -0.069572
v 0.151949 0.044504 -0.031595
v 0.101468 -0.116961 -0.045880
v -0.151949 -0.044584 0.031595
v -0.101468 0.116880 0.045880
v 0.061726 0.116880 0.092685
v 0.112105 -0.044584 0.107328
v -0.019954 -0.144377 0.069572
v -0.044516 0.000146 0.155209
vt 0.628894 0.500204
vt 0.641274 0.475735
vt 0.644957 0.507635
vt 0.615973 0.476930
vt 0.629693 0.532761
vt 0.612931 0.509033
vt 0.675913 0.467239
vt 0.659152 0.490967
vt 0.662194 0.523070
vt 0.595053 0.524265
vt 0.598736 0.492365
vt 0.583472 0.467239
vt 0.566711 0.490967
vt 0.582673 0.499796
vt 0.569753 0.523070
vn -0.336000 -0.188500 -0.922800
vn 0.218900 -0.608000 -0.763200
vn -0.123800 0.490200 -0.862800
vn 0.562200 0.490200 -0.666000
vn 0.774000 -0.188500 -0.604500
vn 0.051400 -0.982500 -0.179200
vn -0.846300 -0.303800 -0.437500
vn -0.503000 0.794400 -0.340400
vn 0.607000 0.794400 -0.022000
vn 0.949600 -0.303800 0.077600
vn -0.607000 -0.794400 0.022000
vn -0.949600 0.303800 -0.077600
vn -0.051400 0.982500 0.179200
vn 0.846300 0.303800 0.437500
vn 0.503000 -0.794400 0.340400
vn -0.562200 -0.490200 0.666000
vn -0.774000 0.188500 0.604500
vn -0.218900 0.608000 0.763200
vn 0.336000 0.188500 0.922800
vn 0.123800 -0.490200 0.862800
s off
f 37/48/61 38/49/61 39/50/61
f 38/49/62 37/48/62 42/51/62
f 37/48/63 39/50/63 40/52/63
f 37/48/64 40/52/64 41/53/64
f 37/48/65 41/53/65 42/51/65
f 38/49/66 42/51/66 47/54/66
f 39/50/67 38/49/67 43/55/67
f 40/52/68 39/50/68 44/56/68
f 41/53/69 40/52/69 45/57/69
f 42/51/70 41/53/70 46/58/70
f 38/49/71 47/54/71 43/55/71
f 39/50/72 43/55/72 44/56/72
f 40/52/73 44/56/73 45/57/73
f 41/53/74 45/57/74 46/58/74
f 42/51/75 46/58/75 47/59/75
f 43/60/76 47/59/76 48/61/76
f 44/62/77 43/60/77 48/61/77
f 45/57/78 44/62/78 48/61/78
f 46/58/79 45/57/79 48/61/79
f 47/59/80 46/58/80 48/61/80
v 0.000000 -0.248410 0.000000
v 0.179738 -0.111102 0.130586
v -0.068653 -0.111102 0.211294
v -0.222170 -0.111102 0.000000
v -0.068653 -0.111102 -0.211294
v 0.179738 -0.111102 -0.130586
v 0.068653 0.111070 0.211294
v -0.179738 0.111070 0.130586
v -0.179738 0.111070 -0.130586
v 0.068653 0.111070 -0.211294
v 0.222170 0.111070 0.000000
v 0.000000 0.248379 0.000000
vt 0.359891 0.282727
vt 0.327086 0.313203
vt 0.401136 0.312724
vt 0.345696 0.314910
vt 0.382287 0.314155
vt 0.363934 0.315483
vt 0.335735 0.341499
vt 0.308033 0.312724
vt 0.317383 0.340170
vt 0.289183 0.314155
vt 0.299144 0.340744
vt 0.270831 0.315483
vt 0.280534 0.342450
vt 0.354584 0.342930
vt 0.373637 0.342450
vt 0.313339 0.372926
vn 0.187600 -0.794700 0.577400
vn 0.607100 -0.794700 0.000000
vn -0.491100 -0.794700 0.356800
vn -0.491100 -0.794700 -0.356800
vn 0.187600 -0.794700 -0.577400
vn 0.982200 -0.187600 0.000000
vn 0.303500 -0.187600 0.934200
vn -0.794600 -0.187600 0.577400
vn -0.794600 -0.187600 -0.577400
vn 0.303500 -0.187600 -0.934200
vn 0.794600 0.187600 0.577400
vn -0.303500 0.187600 0.934200
vn -0.982200 0.187600 0.000000
vn -0.303500 0.187600 -0.934200
vn 0.794600 0.187600 -0.577400
vn 0.491100 0.794700 0.356800
vn -0.187600 0.794700 0.577400
vn -0.607100 0.794700 0.000000
vn -0.187600 0.794700 -0.577400
vn 0.491100 0.794700 -0.356800
s off
f 49/63/81 50/64/81 51/65/81
f 50/64/82 49/63/82 54/66/82
f 49/63/83 51/65/83 52/67/83
f 49/63/84 52/67/84 53/68/84
f 49/63/85 53/68/85 54/66/85
f 50/64/86 54/66/86 59/69/86
f 51/70/87 50/64/87 55/71/87
f 52/72/88 51/70/88 56/73/88
f 53/74/89 52/72/89 57/75/89
f 54/66/90 53/68/90 58/76/90
f 50/64/91 59/69/91 55/71/91
f 51/70/92 55/71/92 56/73/92
f 52/72/93 56/73/93 57/75/93
f 53/68/94 57/77/94 58/76/94
f 54/66/95 58/76/95 59/69/95
f 55/71/96 59/69/96 60/78/96
f 56/73/97 55/71/97 60/78/97
f 57/75/98 56/73/98 60/78/98
f 58/76/99 57/77/99 60/78/99
f 59/69/100 58/76/100 60/78/100
v 0.000000 -0.130040 0.000000
v 0.094068 -0.058178 0.068344
v -0.035930 -0.058178 0.110583
v -0.116275 -0.058178 0.000000
v -0.035930 -0.058178 -0.110583
v 0.094068 -0.058178 -0.068344
v 0.035930 0.058098 0.110583
v -0.094068 0.058098 0.068344
v -0.094068 0.058098 -0.068344
v 0.035930 0.058098 -0.110583
v 0.116275 0.058098 0.000000
v 0.000000 0.129960 0.000000
vt 0.269486 0.323805
vt 0.288781 0.344408
vt 0.274896 0.349079
vt 0.304396 0.340507
vt 0.261308 0.348442
vt 0.247203 0.343279
vt 0.215595 0.344408
vt 0.231210 0.340507
vt 0.224715 0.363221
vt 0.201711 0.349079
vt 0.210610 0.368384
vt 0.267803 0.371157
vt 0.252188 0.367255
vt 0.238304 0.362585
vt 0.283795 0.368384
vt 0.232893 0.387859
vn 0.187600 -0.794700 0.577400
vn 0.607100 -0.794700 0.000000
vn -0.491100 -0.794700 0.356800
vn -0.491100 -0.794700 -0.356800
vn 0.187600 -0.794700 -0.577400
vn 0.982200 -0.187600 0.000000
vn 0.303500 -0.187600 0.934200
vn -0.794600 -0.187600 0.577400
vn -0.794600 -0.187600 -0.577400
vn 0.303500 -0.187600 -0.934200
vn 0.794600 0.187600 0.577400
vn -0.303500 0.187600 0.934200
vn -0.982200 0.187600 0.000000
vn -0.303500 0.187600 -0.934200
vn 0.794600 0.187600 -0.577400
vn 0.491100 0.794700 0.356800
vn -0.187600 0.794700 0.577400
vn -0.607100 0.794700 0.000000
vn -0.187600 0.794700 -0.577400
vn 0.491100 0.794700 -0.356800
s off
f 61/79/101 62/80/101 63/81/101
f 62/80/102 61/79/102 66/82/102
f 61/79/103 63/81/103 64/83/103
f 61/79/104 64/83/104 65/84/104
f 61/79/105 65/84/105 66/82/105
f 62/85/106 66/86/106 71/87/106
f 63/88/107 62/85/107 67/89/107
f 64/83/108 63/81/108 68/90/108
f 65/84/109 64/83/109 69/91/109
f 66/86/110 65/84/110 70/92/110
f 62/85/111 71/87/111 67/89/111
f 63/81/112 67/93/112 68/90/112
f 64/83/113 68/90/113 69/91/113
f 65/84/114 69/91/114 70/92/114
f 66/86/115 70/92/115 71/87/115
f 67/89/116 71/87/116 72/94/116
f 68/90/117 67/93/117 72/94/117
f 69/91/118 68/90/118 72/94/118
f 70/92/119 69/91/119 72/94/119
f 71/87/120 70/92/120 72/94/120
v 0.000000 -0.990850 0.000000
v 0.778820 -0.443096 0.566255
v -0.276388 -0.411792 0.850649
v -0.918659 -0.422888 0.000000
v -0.297477 -0.443096 -0.916228
v 0.778820 -0.443096 -0.566255
v 0.316981 0.464932 0.969396
v -0.791941 0.443618 0.571303
v -0.852368 0.477588 -0.615346
v 0.276388 0.411682 -0.850649
v 1.005413 0.455692 0.000000
v 0.000000 1.018882 0.000000
v -0.250586 -0.651483 0.771805
v -0.174851 -0.842862 0.538541
v -0.079709 -0.915296 0.245324
v 0.228393 -0.986110 0.164762
v 0.465488 -0.843805 0.335801
v 0.609547 -0.605406 0.442856
v 0.626596 -0.536154 0.797925
v 0.275463 -0.507215 0.848395
v -0.034913 -0.536154 1.011503
v 0.957348 -0.536153 -0.345567
v 0.850648 -0.484078 0.000000
v 0.889480 -0.498256 0.320833
v 0.228393 -0.986110 -0.164762
v 0.425323 -0.783217 -0.309011
v 0.699071 -0.683414 -0.504677
v -0.846934 -0.669832 0.000000
v -0.525730 -0.783215 0.000000
v -0.263180 -0.933847 0.000000
v -0.520899 -0.497677 0.771807
v -0.773585 -0.535573 0.558065
v -0.934173 -0.511694 0.266593
v -0.254808 -0.652225 -0.778685
v -0.186315 -0.884173 -0.569793
v -0.091416 -1.033296 -0.279570
v -0.978930 -0.536151 -0.279571
v -0.753179 -0.521503 -0.543344
v -0.483971 -0.462503 -0.716565
v -0.034913 -0.536154 -1.011503
v 0.287693 -0.521504 -0.879149
v 0.626596 -0.536154 -0.797925
v 1.046965 0.249127 0.160416
v 0.976825 -0.000000 0.317385
v 0.926370 -0.248810 0.476999
v 0.967499 -0.255819 -0.494289
v 0.951058 -0.000055 -0.309013
v 1.046965 0.249127 -0.160416
v 0.155215 0.231170 0.955422
v 0.000000 -0.000000 1.048681
v -0.178012 -0.261006 1.088795
v 0.687159 -0.231280 0.681715
v 0.674114 0.000059 0.921952
v 0.436007 0.231171 0.864188
v -0.901934 0.242302 0.464416
v -0.951058 -0.000055 0.309013
v -1.046965 -0.249127 0.160416
v -0.490110 -0.255820 0.964552
v -0.587786 -0.000055 0.809017
v -0.809433 0.268259 0.797928
v -0.788082 0.261124 -0.776880
v -0.632635 0.000057 -0.871386
v -0.500043 -0.261007 -0.984825
v -1.126850 -0.268015 -0.172783
v -1.040871 0.000000 -0.335802
v -0.926370 0.248924 -0.476999
v 0.513591 0.268259 -1.011507
v 0.643293 -0.000000 -0.879154
v 0.772426 -0.255820 -0.760887
v -0.155215 -0.231280 -0.955422
v 0.000000 0.000000 -1.086694
v 0.169873 0.249129 -1.038252
v 0.831051 0.462391 0.238853
v 0.773585 0.535691 0.558065
v 0.497084 0.474978 0.735978
v 0.030442 0.474978 0.887598
v -0.301476 0.546549 0.921946
v -0.597948 0.511815 0.760884
v -0.913578 0.511814 0.329526
v -0.975583 0.546547 0.000000
v -0.889480 0.498256 -0.320833
v -0.597948 0.511815 -0.760884
v -0.282926 0.521014 -0.871381
v 0.030442 0.474978 -0.887598
v 0.520899 0.497792 -0.771807
v 0.753179 0.521503 -0.543344
v 0.870867 0.484602 -0.250481
v 0.091416 1.033538 0.279570
v 0.186315 0.884291 0.569793
v 0.250586 0.651598 0.771805
v 0.846934 0.669950 0.000000
v 0.525730 0.783106 0.000000
v 0.295837 1.033537 0.000000
v -0.222368 0.960155 0.160416
v -0.425323 0.783108 0.309011
v -0.656056 0.651597 0.476998
v -0.233022 1.006216 -0.168225
v -0.487790 0.884290 -0.352148
v -0.667109 0.652224 -0.481250
v 0.091416 1.033538 -0.279570
v 0.177797 0.843805 -0.543342
v 0.239129 0.621752 -0.735977
v 0.054221 -0.684249 0.706830
v 0.162790 -0.954803 0.497825
v 0.414943 -0.752115 0.669831
v 0.670817 -0.666254 -0.162457
v 0.688992 -0.684248 0.166859
v 0.481334 -0.886238 0.000001
v -0.698463 -0.717783 0.285653
v -0.379135 -0.862916 0.275661
v -0.459327 -0.684248 0.539972
v -0.489443 -0.717785 -0.571305
v -0.379135 -0.862917 -0.275659
v -0.686890 -0.716972 -0.283128
v 0.414942 -0.752115 -0.669831
v 0.141941 -0.845775 -0.436845
v 0.057774 -0.717784 -0.747848
v 1.027093 0.000000 0.000000
v 1.064750 -0.281540 0.181325
v 1.064750 -0.281540 -0.181325
v 0.364004 0.000121 1.113184
v 0.151250 -0.274172 1.033506
v 0.512898 -0.287249 0.969395
v -0.927839 0.000059 0.669835
v -0.861803 -0.254522 0.425324
v -0.670819 -0.254522 0.688191
v -0.909407 0.000059 -0.656046
v -0.754059 -0.281541 -0.768115
v -0.885152 -0.261361 -0.436847
v 0.347362 0.000059 -1.061509
v 0.447216 -0.254523 -0.850648
v 0.151250 -0.274172 -1.033506
v 0.722005 0.273940 0.741244
v 0.909407 0.000057 0.656046
v 0.861804 0.254410 0.425323
v -0.468642 0.266659 0.892059
v -0.323822 -0.000001 0.997355
v -0.141943 0.261362 0.976822
v -0.992595 0.266658 -0.170366
v -1.047910 0.000001 0.000000
v -1.064750 0.281658 0.181325
v -0.148743 0.273941 -1.024375
v -0.347361 0.000058 -1.061509
v -0.481338 0.273941 -0.916228
v 0.885153 0.261361 -0.436845
v 0.830938 0.000000 -0.603707
v 0.688995 0.261362 -0.706834
v 0.371603 0.845775 0.269985
v 0.489442 0.717785 0.571306
v 0.638194 0.666144 0.262864
v -0.155346 0.911324 0.474715
v -0.379138 0.698118 0.616392
v -0.052790 0.666146 0.688185
v -0.502703 0.911324 0.000000
v -0.702956 0.698117 -0.170366
v -0.790183 0.772673 0.190151
v -0.141941 0.845775 -0.436843
v -0.057775 0.717786 -0.747847
v -0.389410 0.717090 -0.633092
v 0.426180 0.955045 -0.307673
v 0.751755 0.772672 -0.307675
v 0.526787 0.772674 -0.615350
vt 0.377882 0.000000
vt 0.650001 0.087438
vt 0.450001 0.087438
vt 0.650001 0.362676
vt 0.650001 0.284555
vt 0.694543 0.343676
vt 0.250000 0.087439
vt 0.049999 0.087438
vt 1.049999 0.087438
vt 0.849999 0.087438
vt 0.674369 0.425361
vt 0.450001 0.362676
vt 0.494544 0.343675
vt 0.474368 0.425360
vt 0.250000 0.362677
vt 0.294542 0.343676
vt 0.274367 0.425361
vt 0.049999 0.362676
vt 0.094543 0.343675
vt 0.074367 0.425360
vt 0.849999 0.362676
vt 0.894542 0.343675
vt 0.874367 0.425360
vt 0.625633 0.425360
vt 0.425633 0.425360
vt 0.225633 0.425361
vt 0.025632 0.425360
vt 0.825631 0.425361
vt 0.549999 0.637324
vt 0.594543 0.656325
vt 0.549999 0.715446
vt 0.349999 0.637324
vt 0.394542 0.656325
vt 0.349999 0.715446
vt 0.150001 0.637324
vt 0.194543 0.656324
vt 0.150001 0.715446
vt 0.950001 0.637324
vt 0.994544 0.656325
vt 0.950001 0.715446
vt 0.750000 0.637323
vt 0.794542 0.656324
vt 0.750000 0.715444
vt 0.450001 0.284554
vt 0.450001 0.188183
vt 0.512185 0.255633
vt 0.550001 0.158365
vt 0.550001 0.335332
vt 0.587817 0.255634
vt 0.605458 0.343675
vt 0.650001 0.188183
vt 0.805457 0.343676
vt 0.849999 0.284554
vt 0.750000 0.335333
vt 0.787816 0.255634
vt 0.712184 0.255634
vt 0.849999 0.188183
vt 0.750000 0.158365
vt 0.250000 0.284556
vt 0.250000 0.188184
vt 0.312184 0.255634
vt 0.350000 0.158365
vt 0.350000 0.335333
vt 0.387816 0.255634
vt 0.405458 0.343675
vt 0.049999 0.284554
vt 0.049999 0.188182
vt 0.112184 0.255633
vt 0.150000 0.158365
vt 0.150000 0.335333
vt 0.187817 0.255634
vt 0.205458 0.343676
vt 0.912183 0.255633
vt 0.949999 0.158365
vt 0.949999 0.335332
vt 0.987815 0.255634
vt 1.005456 0.343675
vt 1.049999 0.188182
vt 1.049999 0.284554
vt 0.005456 0.343675
vt 0.725633 0.574639
vt 0.774367 0.574639
vt 0.700001 0.500000
vt 0.750000 0.500000
vt 0.722966 0.417608
vt 0.799999 0.500000
vt 0.777034 0.417608
vt 0.525632 0.574640
vt 0.574367 0.574640
vt 0.500000 0.500000
vt 0.550000 0.500000
vt 0.522966 0.417608
vt 0.600000 0.500000
vt 0.577035 0.417608
vt 0.325631 0.574639
vt 0.374367 0.574640
vt 0.299999 0.500000
vt 0.350000 0.500000
vt 0.322966 0.417608
vt 0.400000 0.500000
vt 0.377034 0.417608
vt 0.125633 0.574640
vt 0.174369 0.574639
vt 0.100000 0.500000
vt 0.150000 0.500000
vt 0.122966 0.417608
vt 0.200001 0.500000
vt 0.177034 0.417608
vt 0.925633 0.574640
vt 0.974368 0.574640
vt 0.900000 0.500000
vt 0.950000 0.500000
vt 0.922965 0.417608
vt 1.000000 0.500000
vt 0.977034 0.417608
vt 1.025632 0.425360
vt 0.622966 0.582392
vt 0.650000 0.499999
vt 0.650000 0.664668
vt 0.677035 0.582391
vt 0.705458 0.656324
vt 0.422965 0.582392
vt 0.450000 0.500000
vt 0.449999 0.664668
vt 0.477034 0.582392
vt 0.505456 0.656325
vt 0.222966 0.582392
vt 0.250000 0.500000
vt 0.250000 0.664667
vt 0.277034 0.582392
vt 0.305457 0.656324
vt 1.022966 0.582392
vt 0.050000 0.500000
vt 0.000000 0.500000
vt 1.050001 0.664668
vt 0.022966 0.582392
vt 0.077035 0.582392
vt 0.050001 0.664668
vt 0.105458 0.656325
vt 0.822965 0.582392
vt 0.849999 0.500000
vt 0.850000 0.664667
vt 0.877034 0.582392
vt 0.905457 0.656325
vt 0.549999 0.912562
vt 0.750000 0.912561
vt 0.877882 1.000000
vt 0.549999 0.811818
vt 0.650000 0.841635
vt 0.612184 0.744367
vt 0.750000 0.811816
vt 0.687816 0.744366
vt 1.349999 0.912562
vt 0.349999 0.811817
vt 0.449999 0.841636
vt 0.349999 0.912562
vt 0.412183 0.744367
vt 0.487815 0.744367
vt 1.150001 0.912562
vt 0.150001 0.811817
vt 0.250000 0.841635
vt 0.150001 0.912562
vt 0.212184 0.744366
vt 0.287816 0.744366
vt 0.950001 0.912562
vt 0.950001 0.811817
vt 1.050001 0.841636
vt 1.012185 0.744367
vt 0.050001 0.841636
vt 0.012185 0.744367
vt 0.087817 0.744367
vt 0.850000 0.841635
vt 0.812184 0.744366
vt 0.887816 0.744367
vn -0.156200 -0.957100 0.244000
vn 0.472600 -0.789900 0.390700
vn -0.206200 -0.952000 0.226200
vn -0.206800 -0.955000 0.212600
vn 0.104100 -0.987800 0.115900
vn 0.798600 -0.399800 0.449900
vn -0.643600 -0.498000 0.581200
vn -0.867700 -0.454300 -0.201800
vn -0.472400 -0.718100 -0.511100
vn 0.835200 -0.382300 -0.395300
vn 0.638300 -0.136700 0.757600
vn -0.247300 -0.769200 0.589200
vn -0.687800 -0.696500 0.204400
vn 0.103500 -0.247800 -0.963300
vn 0.696200 -0.505700 -0.509400
vn 0.560000 0.687900 0.461700
vn -0.647900 0.622400 0.439100
vn -0.627200 0.767400 -0.132900
vn 0.252700 0.497700 -0.829700
vn 0.755700 0.558900 -0.341400
vn -0.631500 -0.302800 0.713900
vn 0.055200 -0.763000 0.644000
vn -0.296800 -0.945000 0.137200
vn -0.003700 -0.899800 0.436300
vn 0.332300 -0.806400 0.489200
vn -0.119100 -0.636500 0.762000
vn -0.036300 -0.620000 0.783800
vn -0.031000 -0.600300 0.799200
vn 0.072400 -0.560400 0.825100
vn -0.211200 -0.976100 0.050100
vn 0.416600 -0.893800 0.166100
vn 0.465500 -0.833000 0.299100
vn 0.762800 -0.584800 0.276000
vn 0.676700 -0.728100 0.109500
vn 0.641600 -0.758100 0.117000
vn 0.632800 -0.382500 -0.673200
vn 0.541800 -0.790200 0.286400
vn 0.722400 -0.681400 -0.117500
vn 0.455000 -0.886700 0.082000
vn 0.390400 -0.917300 0.078200
vn 0.743200 -0.664600 -0.077300
vn 0.726400 -0.682900 -0.077400
vn 0.565300 -0.746300 -0.351300
vn 0.533400 -0.768700 -0.353000
vn 0.467200 -0.805500 0.364600
vn 0.709400 -0.596900 0.374700
vn 0.637800 -0.759800 0.126100
vn 0.437700 -0.889200 0.133000
vn 0.367300 -0.930100 0.000000
vn 0.020700 -0.999800 0.000000
vn -0.949900 -0.275900 -0.147200
vn -0.332800 -0.942900 0.014700
vn -0.497600 -0.867300 0.013900
vn -0.652400 -0.726100 0.217200
vn -0.642200 -0.707100 0.295900
vn -0.414500 -0.909100 -0.042400
vn -0.358800 -0.820200 0.445600
vn -0.361300 -0.818000 0.447500
vn -0.336000 -0.775300 0.534700
vn -0.151000 -0.970800 0.186300
vn -0.150400 -0.970000 0.190800
vn -0.443600 -0.799200 0.405700
vn -0.423000 -0.763100 0.488700
vn -0.430000 -0.755700 0.494000
vn -0.184900 -0.325000 0.927500
vn -0.597300 -0.522200 -0.608700
vn -0.369900 -0.679700 -0.633400
vn -0.494100 -0.828300 -0.264100
vn -0.537900 -0.408200 -0.737600
vn -0.414300 -0.443400 -0.794800
vn -0.465700 -0.850700 -0.243800
vn -0.406400 -0.871000 -0.276000
vn -0.575600 -0.717500 -0.392300
vn -0.474500 -0.757600 -0.448200
vn -0.509600 -0.860400 -0.007000
vn -0.497600 -0.867300 -0.013900
vn -0.428900 -0.902700 0.032900
vn -0.332700 -0.942500 -0.031100
vn -0.521400 -0.839100 -0.155000
vn -0.914600 -0.265700 0.304800
vn 0.835900 -0.379100 -0.397000
vn 0.283400 -0.954700 -0.090400
vn 0.400300 -0.756400 -0.517300
vn 0.462100 -0.741500 -0.486500
vn 0.158700 -0.614100 -0.773100
vn 0.253400 -0.963100 -0.090300
vn -0.006100 -0.925300 -0.379100
vn 0.105900 -0.635600 -0.764700
vn 0.283700 -0.740200 -0.609600
vn 0.302200 -0.804700 -0.511100
vn 0.301400 -0.804400 -0.511900
vn 0.274300 -0.860900 -0.428500
vn -0.070300 -0.678900 -0.730800
vn -0.122900 -0.836900 -0.533300
vn -0.450400 -0.552900 -0.701000
vn 0.980400 0.197200 0.000000
vn 0.972100 -0.176700 0.154000
vn 0.906100 0.082400 0.414900
vn 0.996800 -0.079500 0.000000
vn 0.946100 -0.225300 -0.232700
vn 0.962000 0.226800 0.152400
vn 0.991200 0.132600 0.000000
vn 0.934100 0.273000 -0.229900
vn 0.929400 0.253800 -0.267900
vn 0.817800 -0.387400 0.425600
vn 0.733400 -0.669400 -0.118400
vn 0.687200 -0.726500 0.000000
vn 0.780100 -0.536600 0.321700
vn 0.931800 -0.195900 -0.305600
vn 0.634100 -0.380200 -0.673300
vn 0.298300 -0.261300 0.918000
vn -0.155300 0.457500 0.875500
vn 0.166900 0.037600 0.985300
vn 0.226400 0.680500 0.696900
vn 0.419300 0.601800 0.679700
vn -0.172500 -0.149000 0.973700
vn 0.148100 -0.380100 0.913000
vn 0.518800 -0.152200 0.841300
vn 0.819200 -0.390300 0.420300
vn 0.155100 -0.191600 0.969100
vn 0.456400 -0.391400 0.799000
vn 0.122400 -0.576500 0.807900
vn 0.075600 -0.542000 0.837000
vn 0.852400 0.029700 0.522100
vn 0.825200 0.050500 0.562500
vn -0.900500 0.374900 0.220600
vn -0.985200 0.159100 0.063300
vn -0.819600 -0.025900 0.572300
vn -0.925800 0.297100 0.233700
vn -0.365300 -0.264900 0.892400
vn -0.950300 -0.305300 0.061200
vn -0.639600 -0.612300 0.464700
vn -0.361300 -0.301100 0.882500
vn -0.836900 0.013200 0.547300
vn -0.814800 -0.120700 0.567100
vn -0.876500 -0.048900 0.478900
vn -0.808800 0.023700 0.587600
vn -0.629800 -0.124700 0.766700
vn -0.795800 -0.312200 0.518900
vn -0.034900 -0.620100 0.783700
vn -0.908000 0.041500 -0.417000
vn -0.612100 -0.079700 -0.786700
vn -0.649100 0.000900 -0.760700
vn -0.887800 0.227400 -0.400200
vn -0.905300 0.205600 -0.371600
vn -0.613900 -0.024700 -0.789000
vn -0.876700 -0.354200 -0.325400
vn -0.857600 -0.374800 -0.352100
vn -0.724300 -0.173500 -0.667300
vn -0.397000 -0.745100 -0.535900
vn -0.304100 -0.651800 -0.694700
vn -0.889000 -0.314800 -0.332600
vn -0.751500 -0.115300 -0.649600
vn -0.729200 -0.135100 -0.670800
vn -0.734800 -0.558600 0.384700
vn 0.009300 0.753100 -0.657800
vn 0.517500 -0.164200 -0.839800
vn 0.252900 -0.297900 -0.920500
vn 0.069000 0.141400 -0.987600
vn 0.071500 0.143200 -0.987100
vn 0.469300 -0.446800 -0.761700
vn 0.494800 -0.430900 -0.754600
vn 0.071500 -0.151800 -0.985800
vn -0.276100 -0.327600 -0.903600
vn 0.266000 -0.011000 -0.963900
vn 0.231500 -0.034500 -0.972200
vn 0.522900 -0.224700 -0.822200
vn 0.370500 -0.336000 -0.865900
vn -0.234700 0.085500 -0.968300
vn -0.326700 0.044700 -0.944100
vn 0.783000 0.124400 0.609500
vn 0.279900 0.494100 0.823100
vn 0.629100 -0.542600 0.556700
vn 0.317400 0.377900 0.869800
vn 0.402100 0.470500 0.785500
vn 0.716100 0.292900 0.633600
vn 0.822800 0.458500 0.335800
vn 0.912300 0.098500 0.397600
vn 0.962000 0.246700 0.116500
vn 0.557900 -0.459300 0.691200
vn 0.978100 -0.073400 0.194700
vn 0.922600 0.339200 0.183600
vn 0.814100 0.127700 0.566500
vn 0.699000 0.531900 0.478000
vn 0.695500 0.522800 0.493000
vn -0.645900 0.627100 0.435400
vn -0.262800 -0.177900 0.948300
vn -0.560300 0.263500 0.785200
vn -0.247600 0.352300 0.902500
vn -0.485700 0.199200 0.851100
vn -0.580800 0.006000 0.814000
vn -0.240100 0.240900 0.940400
vn -0.250200 0.046100 0.967100
vn 0.156600 0.270400 0.949900
vn -0.365500 0.119200 0.923100
vn -0.151600 0.250300 0.956200
vn -0.153900 0.183400 0.970900
vn 0.099900 0.313800 0.944200
vn -0.268100 0.128400 0.954800
vn -0.963700 0.228700 -0.137500
vn -0.927700 0.303100 -0.217900
vn -0.955500 0.294300 -0.020000
vn -0.936300 0.275200 -0.218100
vn -0.930800 0.229700 -0.284400
vn -0.981500 0.190500 -0.020600
vn -0.976400 0.072600 -0.203400
vn -0.961400 0.183300 -0.205100
vn -0.873800 0.438300 0.210600
vn -0.964600 0.140100 0.223300
vn -0.937600 0.185700 0.293900
vn -0.925800 -0.242100 0.290100
vn -0.867100 -0.132200 0.480300
vn -0.832400 0.218900 0.509200
vn -0.849500 0.206300 0.485600
vn 0.273200 0.644800 -0.713800
vn -0.026400 0.208100 -0.977800
vn -0.064300 -0.459600 -0.885800
vn 0.007300 0.558000 -0.829800
vn 0.035800 0.540100 -0.840800
vn -0.071000 0.184400 -0.980300
vn -0.291600 0.333000 -0.896700
vn -0.285000 0.388000 -0.876500
vn -0.312900 0.407000 -0.858200
vn 0.108900 -0.338200 -0.934700
vn -0.552800 0.079700 -0.829500
vn -0.546700 0.167700 -0.820300
vn -0.415000 0.080900 -0.906200
vn -0.398800 0.356300 -0.845000
vn -0.492300 0.421900 -0.761300
vn 0.804700 0.456600 -0.379500
vn 0.862000 -0.030100 -0.505900
vn 0.878600 0.315900 -0.358100
vn 0.790700 0.421400 -0.444200
vn 0.891700 0.322300 -0.317700
vn 0.924900 0.048800 -0.377000
vn 0.792200 0.203100 -0.575500
vn 0.797600 0.167400 -0.579500
vn 0.659300 0.276700 -0.699100
vn 0.794500 0.175500 -0.581400
vn 0.816500 0.155000 -0.556200
vn 0.806000 0.221100 -0.549100
vn 0.855300 0.172500 -0.488500
vn 0.784100 0.436100 -0.441500
vn -0.031700 0.722400 -0.690800
vn -0.049400 0.998100 -0.036200
vn 0.546700 0.803800 0.234600
vn 0.362600 0.666000 0.651800
vn 0.523300 0.761400 0.382600
vn 0.712300 0.653900 0.254900
vn 0.472800 0.862300 0.181400
vn 0.556400 0.820500 0.130900
vn 0.556600 0.821000 0.127200
vn 0.320200 0.908800 0.267400
vn 0.467900 0.506100 0.724500
vn 0.374200 0.528500 0.762000
vn 0.539600 0.833200 0.120700
vn 0.724300 0.688900 -0.027800
vn 0.648800 0.552500 0.523200
vn 0.698400 0.516600 0.495300
vn -0.237200 0.971100 0.026700
vn -0.532600 0.811700 0.239700
vn -0.301200 0.906500 0.295900
vn -0.297000 0.931900 0.208100
vn -0.061900 0.879200 0.472400
vn -0.552600 0.778200 0.298200
vn -0.108400 0.626600 0.771800
vn -0.168300 0.606300 0.777200
vn -0.181900 0.615500 0.766900
vn -0.371200 0.800700 0.470200
vn -0.357600 0.797200 0.486400
vn -0.010600 0.894700 0.446500
vn 0.225900 0.748600 0.623300
vn -0.165300 0.676600 0.717600
vn -0.177700 0.684800 0.706700
vn -0.155700 0.977500 0.142100
vn -0.378400 0.921600 -0.086800
vn -0.726700 0.662500 -0.181600
vn -0.248400 0.958200 0.142300
vn -0.390100 0.811800 0.434500
vn -0.691800 0.717200 -0.084300
vn -0.566700 0.768900 -0.296100
vn -0.159900 0.896900 0.412200
vn -0.171700 0.876300 0.450200
vn -0.645800 0.741100 -0.183900
vn -0.592100 0.758200 -0.273000
vn -0.599500 0.742600 -0.298600
vn -0.835400 0.507700 0.210700
vn -0.618600 0.577400 0.532900
vn -0.615100 0.621700 0.484800
vn -0.074400 0.996800 0.027900
vn -0.200000 0.763200 -0.614500
vn 0.245600 0.673000 -0.697600
vn -0.258000 0.788400 -0.558400
vn -0.032500 0.853200 -0.520600
vn -0.130100 0.904000 -0.407200
vn -0.143600 0.900900 -0.409600
vn -0.032100 0.853900 -0.519400
vn -0.468400 0.677400 -0.567200
vn 0.208300 0.543700 -0.813000
vn 0.029900 0.506700 -0.861600
vn -0.236100 0.695900 -0.678200
vn -0.258600 0.686000 -0.680100
vn -0.442400 0.752800 -0.487400
vn -0.384800 0.783200 -0.488400
vn -0.049400 0.998100 0.036200
vn 0.729600 0.669800 0.138200
vn 0.325000 0.922700 0.207500
vn 0.213100 0.964500 -0.155800
vn 0.147700 0.825200 -0.545200
vn 0.464200 0.828600 0.312900
vn 0.460200 0.821600 -0.336500
vn 0.075900 0.868400 -0.489900
vn -0.023700 0.651400 -0.758400
vn 0.922200 0.347700 -0.169200
vn 0.895900 0.306600 -0.321400
vn 0.704800 0.487500 -0.515300
vn 0.630800 0.373600 -0.680100
vn 0.105600 0.490200 -0.865200
vn 0.106000 0.490900 -0.864800
s off
f 73/95/121 88/96/121 87/97/121
f 74/98/122 90/99/122 96/100/122
f 73/95/123 87/97/123 102/101/123
f 73/95/124 102/101/124 108/102/124
f 73/95/125 108/103/125 97/104/125
f 74/98/126 96/100/126 117/105/126
f 75/106/127 93/107/127 123/108/127
f 76/109/128 105/110/128 129/111/128
f 77/112/129 111/113/129 135/114/129
f 78/115/130 114/116/130 141/117/130
f 74/98/131 117/105/131 124/118/131
f 75/106/132 123/108/132 130/119/132
f 76/109/133 129/111/133 136/120/133
f 77/112/134 135/114/134 142/121/134
f 78/115/135 141/117/135 118/122/135
f 79/123/136 147/124/136 162/125/136
f 80/126/137 150/127/137 168/128/137
f 81/129/138 153/130/138 171/131/138
f 82/132/139 156/133/139 174/134/139
f 83/135/140 159/136/140 163/137/140
f 85/138/141 93/107/141 75/106/141
f 86/139/142 175/140/142 85/138/142
f 87/97/143 176/141/143 86/139/143
f 85/138/144 175/140/144 93/107/144
f 175/140/145 92/142/145 93/107/145
f 86/139/146 176/141/146 175/140/146
f 176/141/147 177/143/147 175/140/147
f 175/140/148 177/143/148 92/142/148
f 177/143/149 91/144/149 92/142/149
f 87/97/150 88/96/150 176/141/150
f 88/96/151 89/145/151 176/141/151
f 176/141/152 89/145/152 177/143/152
f 89/145/153 90/99/153 177/143/153
f 177/143/154 90/99/154 91/144/154
f 90/99/155 74/98/155 91/144/155
f 94/146/156 99/147/156 78/115/156
f 95/148/157 178/149/157 94/146/157
f 96/100/158 179/150/158 95/148/158
f 94/146/159 178/149/159 99/147/159
f 178/149/160 98/151/160 99/147/160
f 95/148/161 179/150/161 178/149/161
f 179/150/162 180/152/162 178/149/162
f 178/149/163 180/152/163 98/151/163
f 180/152/164 97/104/164 98/151/164
f 96/100/165 90/99/165 179/150/165
f 90/99/166 89/145/166 179/150/166
f 179/150/167 89/145/167 180/152/167
f 89/145/168 88/96/168 180/152/168
f 180/152/169 88/96/169 97/104/169
f 88/96/170 73/95/170 97/104/170
f 100/153/171 105/110/171 76/109/171
f 101/154/172 181/155/172 100/153/172
f 102/101/173 182/156/173 101/154/173
f 100/153/174 181/155/174 105/110/174
f 181/155/175 104/157/175 105/110/175
f 101/154/176 182/156/176 181/155/176
f 182/156/177 183/158/177 181/155/177
f 181/155/178 183/158/178 104/157/178
f 183/158/179 103/159/179 104/157/179
f 102/101/180 87/97/180 182/156/180
f 87/97/181 86/139/181 182/156/181
f 182/156/182 86/139/182 183/158/182
f 86/139/183 85/138/183 183/158/183
f 183/158/184 85/138/184 103/159/184
f 85/138/185 75/106/185 103/159/185
f 106/160/186 111/113/186 77/112/186
f 107/161/187 184/162/187 106/160/187
f 108/102/188 185/163/188 107/161/188
f 106/160/189 184/162/189 111/113/189
f 184/162/190 110/164/190 111/113/190
f 107/161/191 185/163/191 184/162/191
f 185/163/192 186/165/192 184/162/192
f 184/162/193 186/165/193 110/164/193
f 186/165/194 109/166/194 110/164/194
f 108/102/195 102/101/195 185/163/195
f 102/101/196 101/154/196 185/163/196
f 185/163/197 101/154/197 186/165/197
f 101/154/198 100/153/198 186/165/198
f 186/165/199 100/153/199 109/166/199
f 100/153/200 76/109/200 109/166/200
f 99/147/201 114/116/201 78/115/201
f 98/151/202 187/167/202 99/147/202
f 97/104/203 188/168/203 98/151/203
f 99/147/204 187/167/204 114/116/204
f 187/167/205 113/169/205 114/116/205
f 98/151/206 188/168/206 187/167/206
f 188/168/207 189/170/207 187/167/207
f 187/167/208 189/170/208 113/169/208
f 189/170/209 112/171/209 113/169/209
f 97/104/210 108/103/210 188/168/210
f 108/103/211 107/172/211 188/168/211
f 188/168/212 107/172/212 189/170/212
f 107/172/213 106/173/213 189/170/213
f 189/170/214 106/173/214 112/171/214
f 106/160/215 77/112/215 112/174/215
f 115/175/216 120/176/216 83/135/216
f 116/177/217 190/178/217 115/175/217
f 117/105/218 191/179/218 116/177/218
f 115/175/219 190/178/219 120/176/219
f 190/178/220 119/180/220 120/176/220
f 116/177/221 191/179/221 190/178/221
f 191/179/222 192/181/222 190/178/222
f 190/178/223 192/181/223 119/180/223
f 192/181/224 118/122/224 119/180/224
f 117/105/225 96/100/225 191/179/225
f 96/100/226 95/148/226 191/179/226
f 191/179/227 95/148/227 192/181/227
f 95/148/228 94/146/228 192/181/228
f 192/181/229 94/146/229 118/122/229
f 94/146/230 78/115/230 118/122/230
f 121/182/231 126/183/231 79/123/231
f 122/184/232 193/185/232 121/182/232
f 123/108/233 194/186/233 122/184/233
f 121/182/234 193/185/234 126/183/234
f 193/185/235 125/187/235 126/183/235
f 122/184/236 194/186/236 193/185/236
f 194/186/237 195/188/237 193/185/237
f 193/185/238 195/188/238 125/187/238
f 195/188/239 124/118/239 125/187/239
f 123/108/240 93/107/240 194/186/240
f 93/107/241 92/142/241 194/186/241
f 194/186/242 92/142/242 195/188/242
f 92/142/243 91/144/243 195/188/243
f 195/188/244 91/144/244 124/118/244
f 91/144/245 74/98/245 124/118/245
f 127/189/246 132/190/246 80/126/246
f 128/191/247 196/192/247 127/189/247
f 129/111/248 197/193/248 128/191/248
f 127/189/249 196/192/249 132/190/249
f 196/192/250 131/194/250 132/190/250
f 128/191/251 197/193/251 196/192/251
f 197/193/252 198/195/252 196/192/252
f 196/192/253 198/195/253 131/194/253
f 198/195/254 130/119/254 131/194/254
f 129/111/255 105/110/255 197/193/255
f 105/110/256 104/157/256 197/193/256
f 197/193/257 104/157/257 198/195/257
f 104/157/258 103/159/258 198/195/258
f 198/195/259 103/159/259 130/119/259
f 103/159/260 75/106/260 130/119/260
f 133/196/261 138/197/261 81/129/261
f 134/198/262 199/199/262 133/196/262
f 135/114/263 200/200/263 134/198/263
f 133/196/264 199/199/264 138/197/264
f 199/199/265 137/201/265 138/197/265
f 134/198/266 200/200/266 199/199/266
f 200/200/267 201/202/267 199/199/267
f 199/199/268 201/202/268 137/201/268
f 201/202/269 136/120/269 137/201/269
f 135/114/270 111/113/270 200/200/270
f 111/113/271 110/164/271 200/200/271
f 200/200/272 110/164/272 201/202/272
f 110/164/273 109/166/273 201/202/273
f 201/202/274 109/166/274 136/120/274
f 109/166/275 76/109/275 136/120/275
f 139/203/276 144/204/276 82/132/276
f 140/205/277 202/206/277 139/203/277
f 141/117/278 203/207/278 140/205/278
f 139/203/279 202/206/279 144/204/279
f 202/206/280 143/208/280 144/204/280
f 140/205/281 203/207/281 202/206/281
f 203/207/282 204/209/282 202/206/282
f 202/206/283 204/209/283 143/208/283
f 204/209/284 142/210/284 143/208/284
f 141/117/285 114/116/285 203/207/285
f 114/116/286 113/169/286 203/207/286
f 203/207/287 113/169/287 204/209/287
f 113/169/288 112/171/288 204/209/288
f 204/209/289 112/171/289 142/210/289
f 112/174/290 77/112/290 142/121/290
f 126/183/291 147/124/291 79/123/291
f 125/187/292 205/211/292 126/183/292
f 124/118/293 206/212/293 125/187/293
f 126/183/294 205/211/294 147/124/294
f 205/211/295 146/213/295 147/124/295
f 125/187/296 206/212/296 205/211/296
f 206/212/297 207/214/297 205/211/297
f 205/211/298 207/214/298 146/213/298
f 207/214/299 145/215/299 146/213/299
f 124/118/300 117/105/300 206/212/300
f 117/105/301 116/177/301 206/212/301
f 206/212/302 116/177/302 207/214/302
f 116/177/303 115/175/303 207/214/303
f 207/214/304 115/175/304 145/215/304
f 115/175/305 83/135/305 145/215/305
f 132/190/306 150/127/306 80/126/306
f 131/194/307 208/216/307 132/190/307
f 130/119/308 209/217/308 131/194/308
f 132/190/309 208/216/309 150/127/309
f 208/216/310 149/218/310 150/127/310
f 131/194/311 209/217/311 208/216/311
f 209/217/312 210/219/312 208/216/312
f 208/216/313 210/219/313 149/218/313
f 210/219/314 148/220/314 149/218/314
f 130/119/315 123/108/315 209/217/315
f 123/108/316 122/184/316 209/217/316
f 209/217/317 122/184/317 210/219/317
f 122/184/318 121/182/318 210/219/318
f 210/219/318 121/182/318 148/220/318
f 121/182/319 79/123/319 148/220/319
f 138/197/320 153/130/320 81/129/320
f 137/201/321 211/221/321 138/197/321
f 136/120/322 212/222/322 137/201/322
f 138/197/323 211/221/323 153/130/323
f 211/221/324 152/223/324 153/130/324
f 137/201/325 212/222/325 211/221/325
f 212/222/326 213/224/326 211/221/326
f 211/221/327 213/224/327 152/223/327
f 213/224/328 151/225/328 152/223/328
f 136/120/329 129/111/329 212/222/329
f 129/111/330 128/191/330 212/222/330
f 212/222/331 128/191/331 213/224/331
f 128/191/332 127/189/332 213/224/332
f 213/224/333 127/189/333 151/225/333
f 127/189/334 80/126/334 151/225/334
f 144/204/335 156/133/335 82/132/335
f 143/208/336 214/226/336 144/204/336
f 142/121/337 215/227/337 143/228/337
f 144/204/338 214/226/338 156/133/338
f 214/226/339 155/229/339 156/133/339
f 143/228/340 215/227/340 214/230/340
f 215/227/341 216/231/341 214/230/341
f 214/230/342 216/231/342 155/232/342
f 216/231/343 154/233/343 155/232/343
f 142/121/344 135/114/344 215/227/344
f 135/114/345 134/198/345 215/227/345
f 215/227/346 134/198/346 216/231/346
f 134/198/347 133/196/347 216/231/347
f 216/231/348 133/196/348 154/233/348
f 133/196/349 81/129/349 154/233/349
f 120/176/350 159/136/350 83/135/350
f 119/180/351 217/234/351 120/176/351
f 118/122/352 218/235/352 119/180/352
f 120/176/353 217/234/353 159/136/353
f 217/234/354 158/236/354 159/136/354
f 119/180/355 218/235/355 217/234/355
f 218/235/356 219/237/356 217/234/356
f 217/234/357 219/237/357 158/236/357
f 219/237/358 157/238/358 158/236/358
f 118/122/359 141/117/359 218/235/359
f 141/117/360 140/205/360 218/235/360
f 218/235/361 140/205/361 219/237/361
f 140/205/362 139/203/362 219/237/362
f 219/237/363 139/203/363 157/238/363
f 139/203/364 82/132/364 157/238/364
f 160/239/365 165/240/365 84/241/365
f 161/242/366 220/243/366 160/239/366
f 162/125/367 221/244/367 161/242/367
f 160/239/368 220/243/368 165/240/368
f 220/243/369 164/245/369 165/240/369
f 161/242/370 221/244/370 220/243/370
f 221/244/371 222/246/371 220/243/371
f 220/243/372 222/246/372 164/245/372
f 222/246/373 163/137/373 164/245/373
f 162/125/374 147/124/374 221/244/374
f 147/124/375 146/213/375 221/244/375
f 221/244/376 146/213/376 222/246/376
f 146/213/377 145/215/377 222/246/377
f 222/246/378 145/215/378 163/137/378
f 145/215/379 83/135/379 163/137/379
f 166/247/380 160/239/380 84/241/380
f 167/248/381 223/249/381 166/250/381
f 168/128/382 224/251/382 167/248/382
f 166/250/383 223/249/383 160/239/383
f 223/249/384 161/242/384 160/239/384
f 167/248/385 224/251/385 223/249/385
f 224/251/386 225/252/386 223/249/386
f 223/249/387 225/252/387 161/242/387
f 225/252/388 162/125/388 161/242/388
f 168/128/389 150/127/389 224/251/389
f 150/127/390 149/218/390 224/251/390
f 224/251/391 149/218/391 225/252/391
f 149/218/392 148/220/392 225/252/392
f 225/252/393 148/220/393 162/125/393
f 148/220/394 79/123/394 162/125/394
f 169/253/395 166/247/395 84/241/395
f 170/254/396 226/255/396 169/256/396
f 171/131/397 227/257/397 170/254/397
f 169/256/398 226/255/398 166/250/398
f 226/255/399 167/248/399 166/250/399
f 170/254/400 227/257/400 226/255/400
f 227/257/401 228/258/401 226/255/401
f 226/255/402 228/258/402 167/248/402
f 228/258/403 168/128/403 167/248/403
f 171/131/404 153/130/404 227/257/404
f 153/130/405 152/223/405 227/257/405
f 227/257/406 152/223/406 228/258/406
f 152/223/407 151/225/407 228/258/407
f 228/258/408 151/225/408 168/128/408
f 151/225/409 80/126/409 168/128/409
f 172/259/410 169/253/410 84/241/410
f 173/260/411 229/261/411 172/259/411
f 174/134/412 230/262/412 173/260/412
f 172/259/413 229/261/413 169/253/413
f 229/263/414 170/254/414 169/256/414
f 173/260/415 230/262/415 229/261/415
f 230/264/416 231/265/416 229/263/416
f 229/263/417 231/265/417 170/254/417
f 231/265/418 171/131/418 170/254/418
f 174/134/419 156/133/419 230/262/419
f 156/133/420 155/229/420 230/262/420
f 230/264/421 155/232/421 231/265/421
f 155/232/422 154/233/422 231/265/422
f 231/265/423 154/233/423 171/131/423
f 154/233/424 81/129/424 171/131/424
f 165/240/425 172/259/425 84/241/425
f 164/245/426 232/266/426 165/240/426
f 163/137/427 233/267/427 164/245/427
f 165/240/428 232/266/428 172/259/428
f 232/266/429 173/260/429 172/259/429
f 164/245/430 233/267/430 232/266/430
f 233/267/431 234/268/431 232/266/431
f 232/266/432 234/268/432 173/260/432
f 234/268/433 174/134/433 173/260/433
f 163/137/434 159/136/434 233/267/434
f 159/136/435 158/236/435 233/267/435
f 233/267/436 158/236/436 234/268/436
f 158/236/437 157/238/437 234/268/437
f 234/268/438 157/238/438 174/134/438
f 157/238/439 82/132/439 174/134/439
