v -0.038760 0.730358 -0.221271
v 0.001996 0.736863 0.014906
v -0.110206 0.774862 -0.120596
v -0.132981 0.768413 -0.045146
v -0.045215 0.765530 -0.162128
v -0.086191 0.663118 0.084637
v -0.046377 0.781966 -0.100281
v -0.048793 0.799132 -0.057857
v -0.210535 0.741234 -0.016209
v 0.001733 0.587954 0.081720
v -0.047188 0.801286 -0.017319
v -0.196183 0.739364 0.018281
v -0.042715 0.793233 0.024404
v -0.126321 0.750167 0.056892
v 0.001996 0.695112 0.077743
v -0.040825 0.794642 0.066419
v -0.218811 0.714816 0.098028
v -0.016738 0.720986 0.055916
v -0.035818 0.783618 0.102937
v -0.202914 0.713162 0.118309
v -0.002565 0.684767 0.089684
v -0.031954 0.775303 0.132111
v -0.115988 0.715163 0.146458
v 0.000151 0.690544 0.124319
v -0.031246 0.780373 0.170867
v -0.145764 0.698510 0.171060
v 0.001611 0.674060 0.112291
v -0.022851 0.757580 0.210263
v -0.112860 0.679165 0.205068
v 0.003823 0.621434 0.148372
v -0.017195 0.747808 0.265109
v -0.086642 0.638763 0.217137
v -0.003316 0.712712 0.343331
v -0.039837 0.644367 0.317558
v 0.001467 0.533073 -0.061710
v 0.010545 0.672323 0.394421
v -0.013634 0.623860 0.375273
v 0.034425 0.588222 0.408835
v -0.108380 0.692117 0.214798
v -0.087992 0.691557 0.241861
v 0.001290 0.565929 -0.139965
v -0.097788 0.606651 -0.174214
v 0.000354 0.553180 -0.149130
v -0.193692 0.653099 0.254442
v -0.195632 0.665231 0.230031
v -0.199393 0.687460 0.239092
v -0.196716 0.678449 0.265579
v -0.216616 0.634876 0.265102
v -0.221338 0.653656 0.214939
v -0.228215 0.699476 0.233005
v -0.221927 0.680120 0.283366
v -0.241721 0.641959 0.261524
v -0.244900 0.654707 0.227488
v -0.249474 0.685756 0.239822
v -0.245734 0.672980 0.273985
v 0.001996 0.747038 -0.103892
v 0.001550 0.549190 0.037112
v 0.001996 0.653089 -0.213435
v -0.100849 0.687977 0.133579
v -0.086579 0.653402 0.151655
v -0.066909 0.637164 0.165229
v -0.066908 0.591617 0.219454
v 0.013857 0.595727 0.140899
v -0.058660 0.598867 0.159289
v 0.026157 0.559761 0.164482
v -0.044810 0.703757 -0.112185
v -0.018905 0.554114 0.202994
v -0.008305 0.559967 0.174477
v 0.038235 0.503356 0.169789
v 0.045166 0.463275 0.219132
v 0.009340 0.499575 0.196922
v 0.008552 0.519368 0.177211
v -0.163928 0.712752 0.034425
v 0.001944 0.668197 0.106857
v 0.002111 0.621442 0.127362
v -0.038479 0.642545 0.118784
v -0.147517 0.737653 0.078930
v -0.109294 0.695727 0.103559
v 0.002452 0.612099 -0.228401
v -0.090653 0.580874 -0.189991
v -0.002332 0.536684 -0.146528
v -0.117179 0.548841 -0.203352
v 0.002970 0.571296 -0.254774
v -0.007984 0.504526 -0.140182
v -0.126896 0.487848 -0.191493
v -0.005662 0.456488 -0.247933
v -0.007802 0.453808 -0.140579
v -0.070805 0.440240 -0.174532
v -0.006347 0.426240 -0.200911
v -0.162094 0.764205 0.011254
v -0.211130 0.759248 0.021298
v -0.278787 0.804727 0.064415
v -0.284217 0.831709 0.028803
v -0.264136 0.825336 0.057688
v -0.617633 1.060541 0.381334
v -0.433069 0.966959 0.266352
v -0.627520 1.059835 0.358053
v -0.439114 0.988916 0.239380
v -0.425221 0.985765 0.262727
v -0.620669 1.040756 0.384438
v -0.924073 1.008088 0.487103
v -0.134600 0.624514 -0.012604
v -0.630675 0.719380 -0.660601
v -0.721994 1.096843 0.311301
v -0.689181 1.096456 0.145591
v -0.769755 1.074527 0.017969
v -0.902401 1.035524 -0.143623
v -0.684098 1.117485 -0.168321
v -0.506682 1.143373 -0.290997
v -0.432976 0.978049 -0.506191
v -0.499780 1.052584 -0.077430
v -0.341602 1.013128 -0.265590
v -0.540246 1.030192 0.046054
v -0.284773 0.925007 -0.266087
v -0.605977 1.067292 0.130277
v -0.526639 1.011062 -0.007276
v -0.101457 0.460176 -0.053145
v -0.156699 0.464929 -0.071542
v -0.142133 0.504183 -0.079451
v -0.100816 0.506243 -0.051340
v -0.126988 0.454834 0.001497
v -0.175718 0.456960 -0.022262
v -0.162928 0.505741 -0.025582
v -0.128066 0.501394 -0.005460
v -0.123331 0.426707 -0.035485
v -0.154310 0.431775 -0.043915
v -0.100420 0.400770 -0.147346
v -0.074467 0.396817 -0.142243
v -0.081838 0.375722 -0.134267
v -0.100895 0.376268 -0.140430
v -0.098022 0.372890 -0.180401
v -0.098654 0.352095 -0.153666
v -0.065619 0.369184 -0.172102
v -0.073560 0.353284 -0.145880
v -0.164964 0.351131 0.040359
v -0.196311 0.342825 0.030293
v -0.154673 0.335041 0.033167
v -0.189534 0.326005 0.021063
v -0.219362 0.296669 0.220212
v -0.252505 0.287301 0.209679
v -0.207422 0.279167 0.213115
v -0.246513 0.268643 0.199556
v -0.209677 0.242951 0.283090
v -0.296194 0.236741 0.244598
v -0.190565 0.229224 0.255393
v -0.286621 0.224239 0.212432
v -0.254029 0.222974 0.271048
v -0.239608 0.210054 0.240677
v -0.192889 0.211533 0.284870
v -0.211849 0.218472 0.316708
v -0.256113 0.204166 0.298253
v -0.242257 0.193698 0.267595
v -0.185782 0.176068 0.290098
v -0.199980 0.164092 0.319192
v -0.241864 0.154856 0.297899
v -0.232870 0.165895 0.269911
v -0.193208 0.045512 0.230618
v -0.261975 0.180946 0.252158
v -0.319684 0.199429 0.266516
v -0.277747 0.175564 0.284184
v -0.308406 0.205208 0.230154
v -0.294436 0.141235 0.257208
v -0.281802 0.155713 0.236981
v -0.328142 0.158879 0.249960
v -0.318841 0.171916 0.225690
v -0.321258 0.048206 0.169141
v -0.220190 0.229393 0.216727
v -0.248621 0.252428 0.185556
v -0.197024 0.260667 0.195496
v -0.174587 0.207330 0.215064
v -0.198952 0.211895 0.182257
v -0.162571 0.234914 0.189550
v -0.132909 0.149113 0.242011
v -0.069646 0.622254 0.263899
v -0.007307 0.717537 0.294157
v -0.059515 0.664392 0.258116
v -0.253019 0.662472 0.251188
v -0.039338 0.745104 -0.157201
v -0.037613 0.753393 -0.083367
v -0.034866 0.749730 -0.051244
v -0.033259 0.751372 -0.013264
v -0.030120 0.747653 0.025805
v 0.013127 0.648823 0.322965
v 0.020854 0.630441 0.372384
v 0.014843 0.603516 0.215028
v 0.024090 0.562830 0.203736
v 0.036861 0.505088 0.197488
v 0.010087 0.646680 0.268147
v 0.002907 0.653170 0.209552
v 0.039977 0.766219 -0.161263
v 0.064796 0.783694 -0.085027
v 0.090679 0.656910 0.084009
v 0.147332 0.799251 -0.060665
v 0.136193 0.796845 -0.022887
v 0.069679 0.781435 0.024479
v 0.169662 0.798467 0.062848
v 0.157435 0.792049 0.085553
v 0.081580 0.756492 0.124329
v 0.115960 0.759228 0.150979
v 0.097871 0.730343 0.190567
v 0.094664 0.673607 0.210569
v 0.059326 0.671678 0.312508
v 0.053971 0.642428 0.371610
v 0.088072 0.741380 0.199752
v 0.071447 0.735024 0.229319
v 0.100954 0.605378 -0.171971
v 0.184653 0.750066 0.233600
v 0.179670 0.758772 0.207413
v 0.173117 0.782160 0.213766
v 0.181911 0.756566 0.250311
v 0.214632 0.745140 0.243612
v 0.208766 0.756027 0.193599
v 0.193908 0.805642 0.202494
v 0.200269 0.793034 0.255985
v 0.234207 0.762381 0.236050
v 0.229888 0.770942 0.199728
v 0.220135 0.803463 0.208129
v 0.224455 0.794902 0.244451
v 0.083144 0.727581 0.124731
v 0.087220 0.695243 0.153105
v 0.074158 0.665805 0.159856
v 0.092605 0.620665 0.222121
v 0.082130 0.623197 0.160839
v 0.050687 0.699251 -0.111936
v 0.066531 0.572343 0.205436
v 0.056130 0.573761 0.176314
v 0.064159 0.511486 0.198897
v 0.058026 0.530117 0.178993
v 0.169506 0.706909 0.034812
v 0.042199 0.641839 0.118917
v 0.094680 0.783857 0.047815
v 0.084463 0.737605 0.090441
v 0.092799 0.577937 -0.186855
v 0.113966 0.542218 -0.196818
v 0.115210 0.479183 -0.181458
v 0.053567 0.436973 -0.168651
v 0.161037 0.767696 0.009942
v 0.213530 0.766272 0.033367
v 0.275615 0.815268 0.080799
v 0.280744 0.843524 0.046142
v 0.259842 0.834956 0.073854
v 0.550258 1.053120 0.460876
v 0.386890 0.960838 0.312775
v 0.562886 1.052999 0.438950
v 0.396807 0.983565 0.290586
v 0.380957 0.979965 0.309956
v 0.550780 1.032942 0.462578
v 0.825063 1.094823 0.628576
v 0.139936 0.619039 -0.013339
v 0.627288 0.706577 -0.681198
v 0.674775 1.086100 0.398819
v 0.666944 1.101890 0.215113
v 0.756756 1.092409 0.081944
v 0.896929 1.066154 -0.071526
v 0.683438 1.140439 -0.113595
v 0.515315 1.160526 -0.262265
v 0.437870 0.975266 -0.513175
v 0.499307 1.067068 -0.035663
v 0.351382 1.005501 -0.269033
v 0.528650 1.042360 0.091732
v 0.289283 0.913438 -0.276964
v 0.585034 1.071737 0.189881
v 0.519281 1.024021 0.035639
v 0.073889 0.455078 -0.045034
v 0.130648 0.455315 -0.058799
v 0.120397 0.495095 -0.067813
v 0.077090 0.500986 -0.043572
v 0.093946 0.448017 0.011354
v 0.144556 0.445830 -0.008158
v 0.136373 0.495596 -0.011999
v 0.099628 0.494451 0.004653
v 0.091083 0.420236 -0.026020
v 0.122990 0.422583 -0.031756
v 0.075744 0.396420 -0.139718
v 0.049216 0.394764 -0.137133
v 0.054066 0.373644 -0.128685
v 0.073489 0.371976 -0.132953
v 0.073946 0.370155 -0.172255
v 0.070355 0.350811 -0.141169
v 0.040808 0.369970 -0.166666
v 0.045068 0.355332 -0.137035
v 0.119553 0.349509 0.054720
v 0.150837 0.338473 0.047474
v 0.108593 0.334301 0.046649
v 0.143481 0.322221 0.037685
v 0.152980 0.292032 0.238744
v 0.185997 0.279782 0.231158
v 0.140280 0.275764 0.230536
v 0.179352 0.261644 0.220522
v 0.137425 0.244646 0.305479
v 0.224156 0.232178 0.269163
v 0.117816 0.233007 0.277403
v 0.214097 0.219831 0.236827
v 0.180369 0.221937 0.294407
v 0.165568 0.210894 0.263498
v 0.118354 0.215979 0.306049
v 0.137705 0.218908 0.338107
v 0.181013 0.203101 0.318374
v 0.166683 0.201433 0.284378
v 0.109588 0.178209 0.312017
v 0.124131 0.163239 0.340383
v 0.165377 0.155332 0.317657
v 0.155966 0.166668 0.288998
v 0.114602 0.045608 0.252669
v 0.186536 0.177475 0.277124
v 0.245353 0.193208 0.291986
v 0.202590 0.171106 0.309550
v 0.233490 0.199608 0.255027
v 0.216649 0.135133 0.282534
v 0.204478 0.151449 0.263032
v 0.251495 0.150248 0.274140
v 0.242527 0.165060 0.250484
v 0.230810 0.041315 0.192467
v 0.148250 0.224900 0.235539
v 0.181352 0.245053 0.206767
v 0.130001 0.257669 0.211943
v 0.101388 0.206495 0.229420
v 0.128950 0.208720 0.198975
v 0.094159 0.234813 0.202897
v 0.051541 0.151417 0.252678
v 0.087471 0.656817 0.259035
v 0.060016 0.698763 0.251743
v 0.234743 0.785020 0.221781
v -0.067704 0.588868 -0.112319
v 0.070801 0.587717 -0.111418
v 0.113846 0.621679 -0.086834
v -0.110680 0.624563 -0.086009
vt 0.474247 1.000024
vt 0.432881 1.000024
vt 0.434057 0.893539
vt 0.509861 1.000024
vt 0.500227 0.768354
vt 0.559969 0.937079
vt 0.645064 0.954173
vt 0.560228 0.940601
vt 0.583639 0.999781
vt 0.500485 0.773130
vt 0.557266 0.999781
vt 0.078178 0.645053
vt 0.145329 0.600948
vt 0.009554 0.578044
vt 0.629598 0.999781
vt 0.656534 0.999781
vt 0.043058 0.667957
vt 0.009554 0.620213
vt 0.512543 0.981892
vt 0.471564 0.821771
vt 0.527454 0.989559
vt 0.480692 0.821771
vt 0.462656 0.892018
vt 0.010156 0.671319
vt 0.079997 0.644406
vt 0.044254 0.667717
vt 0.462330 0.893296
vt 0.363979 0.871999
vt 0.417906 0.999781
vt 0.180894 0.905878
vt 0.211214 0.926339
vt 0.151369 0.927184
vt 0.432105 0.999781
vt 0.359627 0.798296
vt 0.329341 0.825147
vt 0.386839 0.999781
vt 0.298881 0.891138
vt 0.380070 1.000024
vt 0.307338 1.000024
vt 0.334880 0.898555
vt 0.095969 0.432562
vt 0.010156 0.431276
vt 0.010156 0.398660
vt 0.265186 1.000024
vt 0.239898 1.000024
vt 0.239968 0.910398
vt 0.267768 0.860783
vt 0.297710 0.999781
vt 0.009554 0.431384
vt 0.093871 0.436902
vt 0.086972 0.413221
vt 0.202414 0.914836
vt 0.196688 0.802296
vt 0.184322 0.800589
vt 0.117628 0.999781
vt 0.102109 0.947707
vt 0.039265 0.964220
vt 0.191148 0.775024
vt 0.167133 0.773191
vt 0.225497 0.888506
vt 0.213084 0.801976
vt 0.224475 0.802438
vt 0.186573 0.800832
vt 0.225358 0.895351
vt 0.222224 0.802195
vt 0.819590 0.933905
vt 0.741830 1.002771
vt 0.745676 0.981737
vt 0.169384 0.773434
vt 0.219437 0.773434
vt 0.241200 0.775024
vt 0.678604 0.929671
vt 0.702745 0.932100
vt 0.798477 0.934975
vt 0.755545 0.885339
vt 0.756364 0.860805
vt 0.008395 0.999781
vt 0.050191 0.999781
vt 0.006807 0.579017
vt 0.088521 0.542699
vt 0.142997 0.606255
vt 0.106762 0.390629
vt 0.009554 0.409522
vt 0.821998 0.059350
vt 0.793626 0.064078
vt 0.821998 0.017938
vt 0.109088 0.385467
vt 0.010156 0.356430
vt 0.010156 0.294247
vt 0.164845 0.936891
vt 0.132684 0.917898
vt 0.158955 0.999781
vt 0.251493 0.999781
vt 0.121032 0.522092
vt 0.010156 0.538976
vt 0.229751 1.000024
vt 0.202874 0.960390
vt 0.297894 0.904225
vt 0.270019 0.861025
vt 0.821997 0.148207
vt 0.768986 0.140328
vt 0.781726 0.108721
vt 0.175211 1.000024
vt 0.138634 1.000024
vt 0.092576 1.000024
vt 0.033907 1.000024
vt 0.054982 0.974363
vt 0.091565 0.955891
vt 0.098755 0.966742
vt 0.006807 0.497303
vt 0.006807 0.433747
vt 0.061283 0.470065
vt 0.131496 0.917612
vt 0.004047 1.000024
vt 0.032968 0.971590
vt 0.648570 0.954416
vt 0.658785 1.000024
vt 0.609179 1.000024
vt 0.010156 0.635279
vt 0.299877 0.892636
vt 0.355604 0.794775
vt 0.202357 0.999781
vt 0.088947 0.408461
vt 0.428579 0.656093
vt 0.423662 0.696384
vt 0.468944 0.689061
vt 0.531845 0.681720
vt 0.536419 0.712644
vt 0.610352 0.692828
vt 0.102623 0.365689
vt 0.112804 0.333641
vt 0.080802 0.297116
vt 0.248096 0.339680
vt 0.277080 0.531051
vt 0.282148 0.327738
vt 0.196955 0.568250
vt 0.171694 0.589610
vt 0.275180 0.560080
vt 0.523059 0.538596
vt 0.753690 0.411864
vt 0.394870 0.237242
vt 0.280495 0.557925
vt 0.282428 0.528381
vt 0.532773 0.536061
vt 0.269459 0.553689
vt 0.519237 0.554218
vt 0.535788 0.556253
vt 0.716599 0.481061
vt 0.595223 0.398790
vt 0.437154 0.342183
vt 0.464362 0.360988
vt 0.701500 0.500488
vt 0.703680 0.484556
vt 0.526021 0.558436
vt 0.709844 0.503462
vt 0.127878 0.521223
vt 0.090830 0.544067
vt 0.505343 0.387091
vt 0.948055 0.392623
vt 0.722873 0.500303
vt 0.965311 0.387497
vt 0.008771 0.540307
vt 0.173246 0.589150
vt 0.118191 0.524020
vt 0.665937 0.364567
vt 0.539998 0.204645
vt 0.660993 0.264792
vt 0.287140 0.166653
vt 0.009554 0.494631
vt 0.009554 0.385842
vt 0.124838 0.524541
vt 0.197472 0.569937
vt 0.278223 0.559193
vt 0.280150 0.529746
vt 0.065707 0.507251
vt 0.148340 0.599519
vt 0.175172 0.587980
vt 0.469280 0.659417
vt 0.505147 0.691113
vt 0.358231 0.813259
vt 0.396762 0.861519
vt 0.463835 0.781576
vt 0.334361 0.622665
vt 0.318366 0.723370
vt 0.458201 0.720399
vt 0.455465 0.629717
vt 0.535658 0.660000
vt 0.620783 0.673963
vt 0.453440 0.629177
vt 0.584055 0.653212
vt 0.584827 0.677850
vt 0.503016 0.653376
vt 0.539342 0.629326
vt 0.620698 0.651899
vt 0.732105 0.651967
vt 0.728838 0.643284
vt 0.621615 0.624442
vt 0.632604 0.637198
vt 0.636322 0.685307
vt 0.636814 0.636255
vt 0.621290 0.624515
vt 0.619952 0.697967
vt 0.621630 0.699173
vt 0.734007 0.671131
vt 0.729414 0.682004
vt 0.844311 0.686359
vt 0.621380 0.674077
vt 0.636178 0.688381
vt 0.733584 0.644686
vt 0.849901 0.650483
vt 0.851008 0.673148
vt 0.928244 0.660805
vt 0.843633 0.637183
vt 0.730695 0.682992
vt 0.844925 0.638417
vt 0.740409 0.775706
vt 0.713106 0.780706
vt 0.704568 0.818200
vt 0.896603 0.625215
vt 0.878631 0.609036
vt 0.785632 0.738775
vt 0.737278 0.738859
vt 0.880723 0.715185
vt 0.913616 0.613223
vt 0.897236 0.601821
vt 0.730897 0.812957
vt 0.780941 0.817868
vt 0.792510 0.817868
vt 0.790023 0.778792
vt 0.898074 0.698036
vt 0.711846 0.726905
vt 0.683097 0.727238
vt 0.685751 0.762377
vt 0.965266 0.662943
vt 0.955920 0.640956
vt 0.937049 0.627702
vt 0.714789 0.764119
vt 0.941121 0.702714
vt 0.919603 0.714522
vt 0.932540 0.731689
vt 0.929544 0.592491
vt 0.912862 0.581726
vt 0.967203 0.616180
vt 0.950630 0.603144
vt 0.902827 0.726042
vt 0.957928 0.692611
vt 0.950735 0.721911
vt 0.964856 0.713499
vt 0.615440 0.761890
vt 0.984016 0.535583
vt 0.918749 0.741460
vt 0.685114 0.782002
vt 0.679087 0.810945
vt 0.847072 0.686366
vt 0.914720 0.615321
vt 0.929979 0.594898
vt 0.950087 0.605671
vt 0.608583 0.784975
vt 0.984016 0.786714
vt 0.799318 0.743667
vt 0.831117 0.767611
vt 0.823981 0.791937
vt 0.982769 0.539053
vt 0.825639 0.742255
vt 0.886191 0.771748
vt 0.391135 0.800147
vt 0.375753 0.599215
vt 0.324001 0.784547
vt 0.429296 0.757561
vt 0.279186 0.533620
vt 0.270107 0.551779
vt 0.178643 0.905635
vt 0.750796 0.933481
vt 0.821997 0.285131
vt 0.821997 0.331456
vt 0.791374 0.330169
vt 0.821998 0.110806
vt 0.821997 0.238271
vt 0.779153 0.273656
vt 0.544401 1.000024
vt 0.473816 0.822014
vt 0.821997 0.190377
vt 0.754407 0.181463
vt 0.759288 0.228469
vt 0.375409 0.872242
vt 0.334031 0.621557
vt 0.821996 0.381399
vt 0.647236 0.956984
vt 0.563654 0.943411
vt 0.541813 1.000083
vt 0.434491 1.000083
vt 0.389226 1.000083
vt 0.329218 0.822939
vt 0.586026 1.000083
vt 0.561360 0.944666
vt 0.644941 0.954474
vt 0.559653 1.000083
vt 0.500362 0.770922
vt 0.043124 0.669810
vt 0.006807 0.660730
vt 0.006807 0.624413
vt 0.658921 1.000083
vt 0.631985 1.000083
vt 0.064720 0.466534
vt 0.558639 0.973714
vt 0.530104 0.984870
vt 0.473951 0.822073
vt 0.493413 0.964305
vt 0.434192 0.893597
vt 0.295305 0.904284
vt 0.262597 1.000083
vt 0.304749 1.000083
vt 0.376800 0.873555
vt 0.178305 0.905936
vt 0.128907 0.917671
vt 0.148780 0.927242
vt 0.502657 0.770922
vt 0.507272 1.000083
vt 0.353495 1.000083
vt 0.300013 0.892694
vt 0.377481 1.000083
vt 0.332291 0.898614
vt 0.094303 0.434241
vt 0.087304 0.410219
vt 0.008771 0.400451
vt 0.237380 0.910457
vt 0.237309 1.000083
vt 0.300096 1.000083
vt 0.270155 0.861084
vt 0.006807 0.415589
vt 0.088521 0.415589
vt 0.186709 0.800890
vt 0.199074 0.802597
vt 0.204801 0.915138
vt 0.120014 1.000083
vt 0.052578 1.000083
vt 0.041652 0.964521
vt 0.169520 0.773492
vt 0.193534 0.775326
vt 0.221886 0.802496
vt 0.210495 0.802034
vt 0.222908 0.888565
vt 0.183984 0.800890
vt 0.224610 0.802496
vt 0.227744 0.895652
vt 0.818979 0.933781
vt 0.797866 0.934852
vt 0.745065 0.981613
vt 0.216848 0.773492
vt 0.166795 0.773492
vt 0.243587 0.775326
vt 0.240862 0.775326
vt 0.741219 1.002647
vt 0.702134 0.931977
vt 0.754934 0.885215
vt 0.677993 0.929547
vt 0.030379 0.971649
vt 0.004640 1.000083
vt 0.031318 1.000083
vt 0.390828 0.798355
vt 0.376482 0.598671
vt 0.336115 0.622653
vt 0.006807 0.406510
vt 0.106679 0.388351
vt 0.851059 0.063308
vt 0.457276 0.719815
vt 0.453813 0.628344
vt 0.253879 1.000083
vt 0.204744 1.000083
vt 0.225632 0.888565
vt 0.161342 1.000083
vt 0.104496 0.948009
vt 0.135070 0.918200
vt 0.167232 0.937192
vt 0.355525 0.798597
vt 0.332768 0.820429
vt 0.208625 0.926398
vt 0.267430 0.861084
vt 0.864773 0.108127
vt 0.136045 1.000083
vt 0.172622 1.000083
vt 0.052394 0.974421
vt 0.089988 1.000083
vt 0.088976 0.955950
vt 0.096166 0.966800
vt 0.606590 1.000083
vt 0.656197 1.000083
vt 0.078383 0.645391
vt 0.146502 0.600651
vt 0.008771 0.636294
vt 0.200285 0.960449
vt 0.180124 1.000083
vt 0.042758 0.668625
vt 0.008771 0.672215
vt 0.297289 0.892694
vt 0.107379 0.387301
vt 0.008771 0.358360
vt 0.428686 0.656513
vt 0.468892 0.659410
vt 0.468203 0.688038
vt 0.531875 0.681591
vt 0.621501 0.673619
vt 0.608476 0.692734
vt 0.251948 0.333875
vt 0.279186 0.324796
vt 0.279186 0.560858
vt 0.760390 0.406510
vt 0.524328 0.542699
vt 0.397217 0.234002
vt 0.532678 0.557526
vt 0.529674 0.537400
vt 0.524328 0.551779
vt 0.719149 0.501760
vt 0.712896 0.482582
vt 0.596962 0.397430
vt 0.442614 0.342954
vt 0.469852 0.361113
vt 0.714994 0.488223
vt 0.705914 0.497303
vt 0.714994 0.506382
vt 0.533407 0.560858
vt 0.185212 0.068914
vt 0.118861 0.520693
vt 0.506169 0.388351
vt 0.960135 0.388351
vt 0.960792 0.389324
vt 0.669597 0.361113
vt 0.542487 0.197685
vt 0.705914 0.097813
vt 0.669597 0.261240
vt 0.288266 0.161368
vt 0.117270 0.522284
vt 0.006807 0.379272
vt 0.198872 0.567482
vt 0.136648 0.556264
vt 0.227162 1.000083
vt 0.376585 0.873555
vt 0.431468 0.893597
vt 0.502840 0.652110
vt 0.505978 0.691525
vt 0.357939 0.812192
vt 0.429570 0.757383
vt 0.464592 0.782081
vt 0.086436 0.358292
vt 0.458958 0.720904
vt 0.335392 0.623349
vt 0.318170 0.722492
vt 0.453772 0.629519
vt 0.502319 0.652263
vt 0.535541 0.658953
vt 0.620485 0.651860
vt 0.585286 0.677959
vt 0.585036 0.653036
vt 0.537196 0.712397
vt 0.539568 0.628809
vt 0.609924 0.637981
vt 0.736240 0.644628
vt 0.738065 0.654240
vt 0.620479 0.651731
vt 0.636644 0.688789
vt 0.634341 0.636845
vt 0.620659 0.626212
vt 0.621630 0.626169
vt 0.634415 0.636711
vt 0.621747 0.698284
vt 0.637904 0.688632
vt 0.622722 0.698509
vt 0.739936 0.673088
vt 0.855011 0.675072
vt 0.848424 0.688066
vt 0.735290 0.683841
vt 0.733904 0.683902
vt 0.735955 0.644357
vt 0.853922 0.652780
vt 0.930976 0.662932
vt 0.847757 0.639699
vt 0.846770 0.687464
vt 0.844901 0.639940
vt 0.705288 0.816480
vt 0.713826 0.778987
vt 0.740720 0.773576
vt 0.882179 0.612015
vt 0.899856 0.627928
vt 0.785942 0.736645
vt 0.737589 0.736729
vt 0.901302 0.699551
vt 0.884237 0.716418
vt 0.900479 0.604918
vt 0.916589 0.616133
vt 0.731208 0.810827
vt 0.781252 0.815738
vt 0.790334 0.776663
vt 0.792820 0.815738
vt 0.685652 0.759838
vt 0.682998 0.724699
vt 0.711337 0.723956
vt 0.939637 0.630374
vt 0.958197 0.643410
vt 0.714280 0.761171
vt 0.943641 0.704152
vt 0.953097 0.723032
vt 0.935201 0.732650
vt 0.915847 0.585154
vt 0.932255 0.595743
vt 0.952994 0.606220
vt 0.969294 0.619042
vt 0.922477 0.715765
vt 0.905978 0.727096
vt 0.960172 0.694215
vt 0.966986 0.714759
vt 0.617389 0.759351
vt 0.985830 0.539770
vt 0.921638 0.742261
vt 0.680217 0.809225
vt 0.686244 0.780282
vt 0.937908 0.632033
vt 0.914075 0.616766
vt 0.799629 0.741538
vt 0.950384 0.606690
vt 0.929177 0.595962
vt 0.606845 0.782846
vt 0.985831 0.786770
vt 0.825950 0.740125
vt 0.831428 0.765482
vt 0.824292 0.789807
vt 0.983405 0.540292
vt 0.886502 0.769618
vt 0.079441 0.642572
vt 0.323805 0.783669
vt 0.434321 0.717690
vt 0.181030 0.905936
vt 0.750185 0.933357
vt 0.852619 0.330170
vt 0.864841 0.273657
vt 0.471659 1.000083
vt 0.471227 0.822073
vt 0.875009 0.140328
vt 0.884706 0.228470
vt 0.005478 0.997961
vt 0.114251 0.350647
vt 0.008771 0.296380
vt 0.128249 0.435302
vt 0.008771 0.432960
vt 0.118380 0.522092
vt 0.175368 0.588619
vt 0.080720 0.522092
vt 0.116882 0.518706
vt 0.184949 0.068196
vt 0.118473 0.523480
vt 0.062823 0.510229
vt 0.088521 0.433747
vt 0.009554 0.660973
vt 0.474881 0.981892
vt 0.498876 0.974226
vt 0.010156 0.675711
vt 0.499828 0.971670
vt 0.345428 0.798296
vt 0.351108 0.999781
vt 0.009554 0.417542
vt 0.227609 0.895594
vt 0.243451 0.775267
vt 0.115982 0.348692
vt 0.223246 0.888263
vt 0.129915 0.437866
vt 0.182713 1.000024
vt 0.326573 0.827899
vt 0.051738 0.313685
vt 0.695543 0.105347
vt 0.187334 0.073157
vt 0.119252 0.520838
vt 0.200882 0.566241
vt 0.375541 0.599880
vt 0.459519 0.720731
vt 0.609394 0.637996
vt 0.636730 0.636125
vt 0.637405 0.688736
vt 0.938273 0.630062
vt 0.434214 0.717270
vt 0.356995 0.797342
vt 0.225020 0.895652
vt 0.755753 0.860681
vt 0.008771 0.676593
vt 0.423936 0.696206
vt 0.170235 0.588096
vt 0.430293 1.000083
vt 0.396997 0.861241
vt 0.057372 0.374862
vt 0.634627 0.636963
vt 0.637990 0.688597
vt 0.967389 0.665035
vt 0.889587 0.181464
vt 0.376483 0.598964
vn 0.162100 -0.986700 -0.006500
vn 0.062700 -0.918900 -0.389500
vn -0.961900 0.108900 -0.250600
vn 0.100300 -0.991100 -0.087200
vn -0.959800 -0.136000 -0.245500
vn -0.537900 0.387100 -0.748800
vn -0.922600 0.168500 -0.347100
vn -0.075000 0.961900 -0.262800
vn -0.182000 0.959900 -0.213200
vn -0.583300 0.006700 0.812200
vn -0.779700 -0.139700 0.610300
vn -0.015400 -0.900100 0.435300
vn -0.081500 0.905900 -0.415500
vn -0.088600 -0.398900 -0.912700
vn -0.908500 -0.417400 0.020800
vn -0.018500 -0.783800 0.620700
vn -0.787700 -0.220100 0.575300
vn -0.168100 0.981800 0.088500
vn 0.024500 0.791300 0.610900
vn -0.360400 0.168800 -0.917400
vn -0.195900 0.974900 0.105500
vn -0.689700 -0.685600 0.232600
vn -0.686500 -0.572500 -0.448300
vn -0.618000 -0.389900 -0.682600
vn -0.976800 -0.080800 -0.198200
vn -0.660900 -0.165900 0.731900
vn -0.171800 0.918500 0.356100
vn -0.877800 0.470600 0.089400
vn 0.066300 -0.710100 -0.701000
vn 0.185500 -0.912500 -0.364400
vn -0.234700 -0.931900 -0.276600
vn -0.985000 0.012200 -0.171800
vn 0.010500 0.583900 -0.811700
vn 0.019400 0.441600 -0.897000
vn 0.174500 -0.554100 -0.813900
vn -0.050200 0.567500 -0.821800
vn -0.547700 -0.691500 -0.471000
vn -0.999000 0.042800 -0.007800
vn -0.222500 0.953900 0.201200
vn -0.008200 -0.969000 0.247000
vn -0.959400 0.279500 0.037200
vn -0.440600 0.377400 0.814500
vn 0.409400 0.451600 0.792700
vn 0.498700 -0.806600 0.317200
vn -0.219000 0.886100 0.408300
vn -0.798300 -0.494100 0.344200
vn -0.726200 -0.652300 0.217100
vn 0.060100 0.397000 0.915800
vn 0.201100 -0.891000 0.407000
vn -0.819900 -0.452300 -0.350900
vn 0.228100 -0.326200 -0.917400
vn 0.174200 0.921600 -0.346800
vn -0.494100 0.837900 0.232000
vn -0.108000 0.906400 -0.408300
vn -0.789100 0.563100 -0.245400
vn 0.061400 -0.390400 -0.918600
vn -0.660800 -0.404200 -0.632400
vn -0.672400 0.212700 0.709000
vn -0.558300 -0.763200 0.325200
vn 0.257200 -0.843300 0.471900
vn -0.107800 0.555300 0.824600
vn 0.882900 -0.469400 0.011700
vn 0.836500 -0.104700 0.537800
vn -0.765700 0.525700 -0.370600
vn -0.004100 0.159100 0.987200
vn -0.072800 0.172200 0.982400
vn -0.693900 -0.628600 0.351100
vn 0.154300 -0.805300 0.572300
vn 0.041200 0.276400 -0.960100
vn 0.007100 -0.498600 -0.866800
vn -0.707400 0.133100 0.694100
vn -0.600800 -0.740900 0.299900
vn -0.192100 0.831200 0.521700
vn -0.208100 0.894500 0.395500
vn -0.766200 0.351300 -0.538000
vn 0.006000 0.873200 -0.487200
vn 0.019500 0.992800 0.118000
vn -0.535700 -0.700500 -0.471500
vn -0.001000 -0.099500 0.995000
vn -0.588800 -0.504500 0.631500
vn -0.570000 -0.641300 0.513700
vn -0.009400 -0.509400 -0.860400
vn 0.042500 -0.187500 -0.981300
vn 0.108800 -0.296900 -0.948700
vn 0.140100 -0.503600 -0.852500
vn -0.599400 -0.384000 -0.702300
vn -0.512100 -0.554000 -0.656300
vn -0.011900 -0.995300 -0.096100
vn 0.717800 -0.679400 -0.152300
vn -0.023700 -0.983900 0.176700
vn 0.001900 0.894600 0.446800
vn -0.190000 0.807800 0.557900
vn 0.506200 0.693300 0.512900
vn -0.672700 0.737500 -0.058200
vn -0.663000 0.697600 0.271800
vn -0.666600 -0.736000 0.117900
vn -0.899900 -0.104000 -0.423400
vn -0.466200 0.583100 -0.665300
vn -0.002600 -0.982500 -0.185900
vn -0.290000 -0.942700 -0.164500
vn -0.839200 -0.457800 0.293300
vn -0.689400 -0.489900 -0.533500
vn -0.721600 -0.692100 0.015200
vn -0.473800 -0.800200 0.367600
vn 0.316700 0.766800 0.558300
vn 0.752500 0.504800 0.423000
vn -0.700500 -0.691100 -0.178000
vn -0.261900 -0.923600 -0.279800
vn -0.493500 -0.858700 -0.137600
vn -0.254000 -0.840500 0.478500
vn -0.005600 -0.823000 0.568000
vn 0.714900 0.542100 0.441600
vn -0.488200 -0.594300 -0.639000
vn -0.453700 -0.890900 -0.020200
vn -0.346600 -0.825000 -0.446300
vn -0.356500 -0.914400 -0.191800
vn 0.172400 -0.797800 0.577700
vn 0.332500 0.759000 0.559800
vn -0.892600 -0.450300 0.019600
vn -0.452600 -0.886600 0.095400
vn -0.089500 -0.853300 -0.513700
vn -0.418900 0.746700 0.516600
vn 0.789700 0.323600 -0.521200
vn -0.307000 -0.943100 0.127700
vn 0.064500 -0.817300 -0.572600
vn -0.209400 -0.914900 0.345100
vn -0.841100 -0.061300 0.537400
vn -0.024600 0.510800 0.859300
vn 0.411000 -0.802100 0.433100
vn -0.812700 0.445900 0.375000
vn 0.756500 -0.481200 -0.442800
vn -0.857600 -0.113500 -0.501600
vn 0.255800 0.570500 0.780400
vn -0.895800 -0.252700 0.365600
vn -0.786600 -0.312700 -0.532300
vn 0.857800 -0.262700 0.441600
vn 0.311300 -0.762600 0.567000
vn -0.992100 0.042000 -0.118200
vn 0.859100 0.490100 -0.147300
vn 0.278100 -0.314000 0.907700
vn 0.842000 -0.006200 0.539400
vn 0.334500 0.884300 0.325600
vn 0.862800 -0.442200 0.244900
vn 0.791600 -0.094800 -0.603600
vn 0.757800 -0.650200 0.054600
vn -0.513000 -0.752300 -0.413200
vn -0.442700 0.020400 -0.896400
vn -0.812800 0.548600 -0.195700
vn -0.495200 -0.758100 -0.424300
vn -0.563800 -0.163700 -0.809500
vn 0.202200 0.841500 0.500800
vn -0.732000 0.676300 0.082700
vn -0.488200 0.444700 0.750900
vn 0.989100 0.147300 0.002300
vn 0.339500 -0.761300 -0.552400
vn 0.806900 -0.532900 -0.255000
vn -0.584200 0.137300 -0.799900
vn 0.268700 0.761500 0.589800
vn 0.951600 -0.174400 -0.252800
vn -0.394300 -0.200200 -0.896800
vn 0.173800 0.484200 0.857500
vn 0.994800 0.047200 -0.090400
vn -0.814900 -0.019300 -0.579200
vn 0.085500 -0.868400 0.488300
vn -0.680600 0.694200 0.234200
vn 0.969500 0.109100 -0.219600
vn -0.439800 -0.045000 -0.896900
vn -0.511500 -0.518700 -0.685000
vn -0.892600 0.127100 0.432600
vn 0.279200 -0.324400 0.903700
vn -0.782600 0.314400 0.537200
vn -0.913800 -0.152900 0.376200
vn 0.357400 -0.223500 0.906800
vn -0.818000 -0.409100 0.404400
vn 0.266200 -0.686100 0.677100
vn 0.857500 -0.157600 -0.489700
vn 0.164300 -0.873800 -0.457700
vn -0.477700 0.336000 -0.811700
vn 0.669800 0.677700 -0.303400
vn 0.809700 0.463600 -0.359800
vn -0.258900 -0.615900 -0.744000
vn -0.119800 -0.823300 -0.554900
vn -0.220600 0.082000 0.971900
vn 0.486800 -0.732200 0.476200
vn -0.062000 -0.787400 0.613300
vn 0.295100 -0.855500 0.425500
vn -0.986500 -0.157200 0.045000
vn 0.250900 -0.945300 -0.208200
vn 0.183400 -0.784800 -0.592000
vn 0.010300 -0.184700 0.982700
vn 0.226800 -0.973700 0.021600
vn 0.010200 -0.999700 -0.022900
vn 0.147500 -0.702600 0.696100
vn 0.843900 0.027900 -0.535800
vn 0.436700 -0.083700 -0.895700
vn 0.736100 0.197500 0.647300
vn 0.923200 0.134900 -0.359900
vn 0.870000 -0.444200 0.213900
vn -0.018600 -0.952200 0.304700
vn -0.733700 -0.664400 -0.142400
vn 0.868100 0.106200 0.484800
vn -0.159700 0.981700 0.103700
vn 0.955600 0.159800 -0.247400
vn 0.737200 -0.475600 -0.479800
vn 0.244200 0.154400 -0.957300
vn 0.947400 -0.248000 0.202400
vn 0.712800 -0.201400 0.671800
vn 0.721500 -0.185900 -0.667000
vn -0.212000 0.972400 0.096700
vn 0.689100 0.715700 0.113600
vn 0.594000 -0.761700 -0.258800
vn 0.985700 -0.001600 -0.168700
vn 0.985000 0.169300 0.032400
vn 0.828600 -0.420100 -0.369900
vn 0.866200 0.483700 -0.125200
vn -0.000400 -0.188300 0.982100
vn 0.022900 -0.998400 0.052600
vn -0.374200 -0.300700 0.877200
vn 0.278500 0.658400 0.699200
vn 0.975400 -0.183400 0.122000
vn 0.327800 -0.817600 0.473400
vn -0.171100 0.520600 0.836500
vn -0.697900 0.647700 -0.305700
vn -0.073900 -0.480600 -0.873800
vn 0.912500 -0.048600 -0.406200
vn 0.113300 0.978000 0.175100
vn 0.558100 0.576300 0.596900
vn 0.444000 0.803700 -0.396100
vn 0.075400 -0.562300 -0.823500
vn -0.341100 0.776400 -0.529900
vn 0.711900 -0.158500 -0.684100
vn 0.856600 -0.384600 0.343900
vn 0.866600 -0.287400 0.407900
vn 0.233600 -0.963100 -0.133600
vn 0.861600 0.403500 -0.307900
vn 0.923000 -0.184000 -0.338000
vn -0.912100 -0.183500 0.366400
vn 0.978100 0.030100 0.205700
vn 0.849300 -0.440700 0.290400
vn 0.627700 0.425500 0.651800
vn 0.893700 0.305200 -0.328800
vn 0.845700 -0.267500 -0.461700
vn 0.747200 -0.360700 0.558200
vn 0.751700 -0.090200 -0.653200
vn 0.717700 -0.287400 -0.634200
vn 0.597000 -0.038400 0.801300
vn -0.488400 0.739900 0.462600
vn -0.274400 0.596200 0.754400
vn 0.692500 0.639000 0.334800
vn 0.587300 -0.791300 0.169800
vn 0.996600 -0.069300 -0.044900
vn 0.575000 0.543300 -0.611700
vn 0.826700 -0.459700 0.324300
vn 0.748600 -0.658500 0.076900
vn 0.330400 -0.942700 -0.046600
vn 0.748100 -0.641600 -0.169600
vn 0.560100 -0.820400 -0.114600
vn -0.781600 0.521800 0.341700
vn -0.085400 -0.850900 0.518300
vn -0.532300 0.703100 0.471300
vn 0.589800 -0.665100 -0.458000
vn 0.468300 -0.882700 -0.038600
vn 0.398100 -0.811700 -0.427400
vn 0.392600 -0.901600 -0.181600
vn -0.141300 -0.829500 0.540300
vn -0.761000 0.037700 0.647600
vn 0.457900 -0.884900 0.085200
vn 0.251900 -0.960900 -0.114500
vn 0.324000 -0.943100 0.075300
vn 0.019100 -0.817900 -0.575100
vn 0.044600 -0.973200 -0.225500
vn 0.213100 -0.931800 0.293600
vn 0.843300 -0.105700 0.526800
vn -0.381100 -0.286200 0.879100
vn 0.835500 -0.329400 0.439600
vn 0.796800 -0.407000 -0.446500
vn 0.737800 0.674900 0.009800
vn -0.423200 -0.733300 0.532100
vn -0.882600 0.112600 0.456400
vn -0.795800 0.567800 -0.210300
vn -0.918100 -0.357900 0.170500
vn -0.284500 0.917300 0.278500
vn 0.464500 -0.824100 -0.324100
vn -0.843500 -0.536100 0.033700
vn -0.739200 -0.047800 -0.671700
vn 0.510100 -0.059900 -0.858000
vn 0.867100 0.481200 -0.128900
vn 0.766200 0.633400 0.107900
vn 0.614000 -0.241800 -0.751400
vn 0.467100 -0.802900 -0.370300
vn -0.175300 0.877600 0.446200
vn 0.487900 0.434200 0.757200
vn -0.974100 0.209900 -0.084500
vn 0.584500 0.082100 -0.807200
vn -0.843300 -0.477400 -0.246700
vn -0.394400 -0.777200 -0.490300
vn -0.964300 -0.102800 -0.244100
vn -0.208800 0.794000 0.570800
vn 0.710700 0.663000 0.235300
vn 0.412500 -0.255100 -0.874500
vn -0.988600 0.123500 -0.085800
vn -0.142600 0.467000 0.872700
vn -0.116600 -0.825300 0.552400
vn 0.859600 -0.094100 -0.502200
vn 0.403900 -0.064300 -0.912500
vn -0.974200 0.134100 -0.181100
vn 0.908500 0.066000 0.412700
vn 0.432200 -0.605600 -0.668200
vn -0.292100 -0.296400 0.909300
vn -0.291300 -0.663100 0.689500
vn 0.910500 -0.222600 0.348400
vn -0.337400 -0.234100 0.911800
vn 0.824400 -0.421800 0.377500
vn 0.799300 0.272100 0.535700
vn -0.878700 -0.105100 -0.465700
vn -0.180600 -0.876600 -0.446100
vn 0.493000 0.300000 -0.816600
vn -0.581200 0.725800 -0.368100
vn 0.275500 -0.641800 -0.715600
vn -0.729700 0.529400 -0.432700
vn 0.018500 -0.823700 -0.566700
vn 0.137000 0.067300 0.988300
vn -0.592000 -0.683700 0.426600
vn 0.955100 0.292900 -0.043000
vn 0.769200 0.008500 0.638900
vn 0.844400 -0.120700 -0.521900
vn 0.004700 -0.981900 -0.189100
s 1
f 181/1/1 182/2/2 14/3/3
f 180/4/4 9/5/5 4/6/6
f 3/7/7 4/8/6 7/9/8
f 4/8/6 9/10/5 8/11/9
f 6/12/10 73/13/11 57/14/12
f 3/7/7 5/15/13 1/16/14
f 76/17/15 6/12/10 10/18/16
f 8/19/9 9/10/5 12/20/17
f 11/21/18 12/22/17 14/23/3
f 15/24/19 6/25/10 76/26/15
f 14/27/3 77/28/20 16/29/21
f 32/30/22 61/31/23 64/32/24
f 16/33/21 17/34/25 20/35/26
f 19/36/27 20/35/26 23/37/28
f 18/38/29 21/39/30 78/40/31
f 42/41/32 58/42/33 79/43/34
f 24/44/35 27/45/36 60/46/37
f 23/37/28 26/47/38 25/48/39
f 41/49/40 42/50/32 80/51/41
f 40/52/42 47/53/43 44/54/44
f 33/55/45 34/56/46 37/57/47
f 47/53/43 51/58/48 48/59/49
f 29/60/50 45/61/51 46/62/52
f 29/60/50 32/30/22 44/63/44
f 39/64/53 46/65/52 47/53/43
f 51/66/48 50/67/54 54/68/55
f 44/63/44 48/69/49 49/70/56
f 46/65/52 50/71/54 51/58/48
f 46/62/52 45/61/51 49/70/56
f 50/67/54 49/72/56 53/73/57
f 51/66/48 55/74/58 52/75/59
f 49/72/56 48/76/49 52/75/59
f 37/57/47 38/77/60 36/78/61
f 57/79/12 249/80/62 229/81/63
f 80/51/41 82/82/64 81/83/65
f 187/84/66 71/85/67 70/86/68
f 82/87/64 83/88/69 86/89/70
f 176/90/71 174/91/72 175/92/73
f 28/93/74 39/64/53 40/52/42
f 26/47/38 39/64/53 25/48/39
f 175/92/73 174/91/72 34/56/46
f 66/94/75 56/95/76 58/42/33
f 27/45/36 74/96/77 76/97/15
f 60/46/37 61/31/23 29/60/50
f 59/98/78 60/46/37 26/99/38
f 29/60/50 61/31/23 32/30/22
f 185/100/79 62/101/80 67/102/81
f 30/103/82 63/104/83 64/32/24
f 65/105/84 69/106/85 72/107/86
f 67/108/81 68/109/87 72/107/86
f 35/110/88 41/111/40 325/112/89
f 62/113/80 64/32/24 68/109/87
f 63/104/83 65/105/84 68/109/87
f 69/106/85 70/114/68 71/115/67
f 3/116/7 1/117/14 178/118/90
f 6/25/10 15/24/19 2/119/91
f 61/31/23 60/46/37 76/97/15
f 30/103/82 61/31/23 76/97/15
f 21/39/30 24/44/35 59/98/78
f 78/40/31 59/98/78 23/120/28
f 17/121/25 18/38/29 78/40/31
f 31/122/92 40/52/42 176/90/71
f 80/123/41 79/43/34 83/88/69
f 120/124/93 119/125/94 123/126/95
f 126/127/96 118/128/97 127/129/98
f 86/130/70 89/131/99 88/132/100
f 114/133/101 93/134/102 112/135/103
f 91/136/104 90/137/105 94/138/106
f 93/134/102 98/139/107 104/140/108
f 112/135/103 93/134/102 109/141/109
f 94/142/106 93/143/102 98/144/107
f 92/145/110 96/146/111 98/139/107
f 99/147/112 98/144/107 97/148/113
f 93/134/102 104/140/108 115/149/114
f 111/150/115 93/134/102 116/151/116
f 96/146/111 100/152/117 97/153/113
f 99/154/112 95/155/118 100/152/117
f 73/13/11 66/156/75 102/157/119
f 93/134/102 113/158/120 116/151/116
f 100/152/117 95/155/118 101/159/121
f 95/160/118 97/148/113 101/161/121
f 97/153/113 100/152/117 101/159/121
f 94/138/106 99/154/112 96/146/111
f 98/139/107 97/153/113 104/140/108
f 56/162/76 237/163/122 224/164/123
f 97/153/113 101/159/121 104/140/108
f 104/140/108 105/165/124 115/149/114
f 108/166/125 111/150/115 116/151/116
f 116/151/116 113/158/120 106/167/126
f 110/168/127 112/135/103 109/141/109
f 115/149/114 105/165/124 106/167/126
f 114/133/101 112/135/103 110/168/127
f 108/166/125 109/141/109 111/150/115
f 57/14/12 73/13/11 102/157/119
f 35/169/88 57/14/12 102/157/119
f 81/83/65 82/82/64 84/170/128
f 109/141/109 93/134/102 111/150/115
f 93/134/102 115/149/114 113/158/120
f 224/171/123 238/172/129 229/81/63
f 237/163/122 241/173/130 240/174/131
f 66/156/75 327/175/132 102/157/119
f 73/176/11 2/119/91 90/177/105
f 124/178/133 123/126/95 122/179/134
f 85/180/135 88/181/100 118/182/97
f 84/183/128 82/184/64 120/124/93
f 118/185/97 122/179/134 123/126/95
f 84/183/128 120/124/93 117/186/136
f 117/186/136 120/124/93 124/178/133
f 125/187/137 126/127/96 130/188/138
f 117/189/136 128/190/139 127/191/98
f 126/127/96 125/187/137 121/192/140
f 122/179/134 118/128/97 126/127/96
f 117/193/136 125/187/137 129/194/141
f 129/194/141 135/195/142 137/196/143
f 117/193/136 121/192/140 125/187/137
f 133/197/144 134/198/145 132/199/146
f 129/194/141 134/200/145 133/201/144
f 128/190/139 133/197/144 131/202/147
f 130/188/138 127/129/98 131/203/147
f 136/204/148 138/205/149 142/206/150
f 130/207/138 136/204/148 135/195/142
f 130/207/138 132/208/146 138/205/149
f 132/199/146 134/198/145 137/209/143
f 139/210/151 140/211/152 147/212/153
f 136/204/148 140/211/152 139/210/151
f 135/195/142 139/210/151 141/213/154
f 138/214/149 137/209/143 141/215/154
f 148/216/155 158/217/156 161/218/157
f 139/210/151 143/219/158 145/220/159
f 141/221/154 145/222/159 148/216/155
f 140/211/152 142/206/150 146/223/160
f 143/219/158 150/224/161 149/225/162
f 146/226/160 142/227/150 148/216/155
f 142/227/150 168/228/163 167/229/164
f 140/211/152 144/230/165 147/212/153
f 143/219/158 139/210/151 147/212/153
f 149/231/162 153/232/166 156/233/167
f 147/212/153 148/234/155 152/235/168
f 147/212/153 151/236/169 150/224/161
f 145/222/159 149/231/162 152/237/168
f 160/238/170 159/239/171 164/240/172
f 150/224/161 154/241/173 153/242/166
f 151/236/169 152/235/168 156/243/167
f 151/236/169 155/244/174 154/241/173
f 147/212/153 144/230/165 159/239/171
f 144/230/165 146/223/160 161/245/157
f 147/212/153 160/238/170 158/246/156
f 160/238/170 162/247/175 163/248/176
f 156/233/167 153/232/166 157/249/177
f 153/242/166 154/241/173 157/250/177
f 155/244/174 156/243/167 157/250/177
f 154/241/173 155/244/174 157/250/177
f 159/239/171 161/245/157 165/251/178
f 158/217/156 163/252/176 165/253/178
f 142/254/150 141/215/154 169/255/179
f 141/221/154 148/216/155 167/229/164
f 169/255/179 172/256/180 171/257/181
f 165/253/178 163/252/176 166/258/182
f 163/248/176 162/247/175 166/259/182
f 162/247/175 164/240/172 166/259/182
f 164/240/172 165/251/178 166/259/182
f 169/260/179 167/229/164 170/261/183
f 167/229/164 168/228/163 171/262/181
f 171/257/181 172/256/180 173/263/184
f 172/264/180 170/261/183 173/265/184
f 170/261/183 171/262/181 173/265/184
f 88/266/100 87/267/185 117/189/136
f 82/268/64 85/180/135 119/269/94
f 240/270/131 239/271/186 238/172/129
f 40/52/42 32/272/22 176/90/71
f 176/90/71 32/272/22 174/91/72
f 54/68/55 53/73/57 177/273/187
f 53/73/57 52/75/59 177/273/187
f 52/75/59 55/74/58 177/273/187
f 55/74/58 54/68/55 177/273/187
f 183/274/188 184/275/189 37/276/47
f 71/85/67 187/84/66 186/277/190
f 188/278/191 183/274/188 34/279/46
f 3/116/7 178/118/90 179/280/192
f 180/4/4 181/1/1 12/281/17
f 189/282/193 32/283/22 62/101/80
f 189/282/193 188/278/191 174/284/72
f 18/38/29 17/121/25 77/285/20
f 88/266/100 89/286/99 87/267/185
f 37/276/47 184/275/189 38/287/60
f 190/288/194 191/289/195 179/290/192
f 16/291/21 19/292/27 197/293/196
f 7/294/8 191/295/195 190/296/194
f 8/297/9 193/298/197 191/295/195
f 230/299/198 75/300/199 10/301/16
f 190/296/194 1/302/14 5/303/13
f 327/175/132 66/156/75 324/304/200
f 8/305/9 11/306/18 194/307/201
f 11/306/18 13/308/202 195/309/203
f 219/310/204 24/311/35 21/312/30
f 16/291/21 231/313/205 195/309/203
f 201/314/206 222/315/207 223/316/208
f 191/289/195 193/317/197 180/318/4
f 19/292/27 22/319/209 198/320/210
f 18/321/29 232/322/211 21/312/30
f 206/323/212 233/324/213 79/325/34
f 220/326/214 27/327/36 24/311/35
f 25/328/39 199/329/215 198/320/210
f 41/111/40 43/330/216 233/331/213
f 207/332/217 210/333/218 205/334/219
f 33/335/45 36/336/61 203/337/220
f 211/338/221 214/339/222 210/333/218
f 209/340/223 208/341/224 200/342/225
f 200/342/225 208/341/224 207/343/217
f 210/333/218 209/344/223 204/345/226
f 214/346/222 218/347/227 217/348/228
f 212/349/229 211/350/221 207/343/217
f 214/339/222 213/351/230 209/344/223
f 209/340/223 213/352/230 212/349/229
f 213/353/230 217/348/228 216/354/231
f 215/355/232 218/347/227 214/346/222
f 212/356/229 216/354/231 215/355/232
f 227/357/233 70/358/68 69/359/85
f 236/360/234 87/361/185 89/362/99
f 81/363/65 234/364/235 233/331/213
f 187/84/66 70/86/68 227/365/233
f 236/360/234 265/366/236 264/367/237
f 28/368/74 31/369/92 205/334/219
f 204/345/226 200/370/225 199/329/215
f 175/371/73 33/335/45 202/372/238
f 175/371/73 321/373/239 322/374/240
f 196/375/241 197/376/196 232/322/211
f 200/342/225 221/377/242 220/326/214
f 199/378/215 220/326/214 219/310/204
f 200/342/225 201/314/206 221/377/242
f 185/100/79 186/277/190 225/379/243
f 223/316/208 63/380/83 30/381/82
f 228/382/244 69/359/85 65/383/84
f 225/384/243 227/357/233 228/382/244
f 222/315/207 225/384/243 226/385/245
f 226/385/245 65/383/84 63/380/83
f 186/277/190 187/84/66 227/365/233
f 190/288/194 178/386/90 1/387/14
f 192/388/246 229/389/63 2/390/91
f 221/377/242 230/391/198 220/326/214
f 30/381/82 75/392/199 230/391/198
f 230/393/198 192/388/246 15/394/19
f 198/395/210 219/310/204 232/322/211
f 31/369/92 322/374/240 205/334/219
f 233/324/213 234/396/235 83/397/69
f 267/398/247 271/399/248 270/400/249
f 273/401/250 277/402/251 274/403/252
f 261/404/253 259/405/254 240/270/131
f 238/172/129 239/271/186 241/406/130
f 240/270/131 251/407/255 245/408/256
f 259/405/254 256/409/257 240/270/131
f 241/173/130 246/410/258 245/411/256
f 245/408/256 243/412/259 239/271/186
f 246/410/258 242/413/260 244/414/261
f 240/270/131 262/415/262 251/407/255
f 258/416/263 263/417/264 240/270/131
f 244/418/261 247/419/265 243/412/259
f 247/419/265 242/420/260 246/421/258
f 103/422/266 66/423/75 114/133/101
f 240/270/131 263/417/264 260/424/267
f 247/419/265 248/425/268 242/420/260
f 242/413/260 248/426/268 244/414/261
f 244/418/261 248/425/268 247/419/265
f 243/412/259 246/421/258 241/406/130
f 245/408/256 251/407/255 244/418/261
f 244/418/261 251/407/255 248/425/268
f 251/407/255 262/415/262 252/427/269
f 255/428/270 254/429/271 263/417/264
f 263/417/264 254/429/271 253/430/272
f 257/431/273 256/409/257 259/405/254
f 262/415/262 260/424/267 253/430/272
f 257/431/273 259/405/254 261/404/253
f 255/428/270 258/416/263 256/409/257
f 66/432/75 93/134/102 114/133/101
f 81/363/65 84/433/128 234/364/235
f 256/409/257 258/416/263 240/270/131
f 240/270/131 260/424/267 262/415/262
f 229/389/63 238/434/129 237/435/122
f 230/391/198 74/436/77 27/327/36
f 231/437/205 18/321/29 195/438/203
f 271/399/248 268/439/274 269/440/275
f 235/441/276 266/442/277 265/443/236
f 236/444/234 89/131/99 86/130/70
f 270/400/249 269/440/275 265/445/236
f 84/446/128 267/398/247 234/447/235
f 264/448/237 268/449/274 271/399/248
f 272/450/278 276/451/279 277/402/251
f 274/452/252 275/453/280 264/367/237
f 273/401/250 269/440/275 268/439/274
f 269/440/275 273/401/250 265/454/236
f 264/455/237 275/456/280 276/451/279
f 284/457/281 282/458/282 276/459/279
f 264/455/237 272/450/278 268/439/274
f 279/460/283 281/461/284 280/462/285
f 280/463/285 281/464/284 276/451/279
f 278/465/286 280/462/285 275/453/280
f 277/402/251 279/466/283 278/467/286
f 283/468/287 287/469/288 289/470/289
f 282/458/282 283/468/287 277/402/251
f 277/402/251 283/468/287 285/471/290
f 279/460/283 285/472/290 284/473/281
f 286/474/291 294/475/292 287/469/288
f 286/474/291 287/469/288 283/468/287
f 288/476/293 286/474/291 282/458/282
f 285/472/290 289/477/289 288/478/293
f 308/479/294 305/480/295 295/481/296
f 292/482/297 290/483/298 286/474/291
f 288/484/293 295/481/296 292/485/297
f 287/469/288 291/486/299 293/487/300
f 296/488/301 297/489/302 290/483/298
f 293/490/300 295/481/296 289/491/289
f 314/492/303 315/493/304 289/491/289
f 287/469/288 294/475/292 291/486/299
f 290/483/298 294/475/292 286/474/291
f 303/494/305 300/495/306 296/496/301
f 294/475/292 298/497/307 299/498/308
f 297/489/302 298/497/307 294/475/292
f 299/499/308 296/496/301 292/485/297
f 307/500/309 309/501/310 311/502/311
f 300/503/306 301/504/312 297/489/302
f 298/497/307 302/505/313 303/506/305
f 301/504/312 302/505/313 298/497/307
f 294/475/292 307/500/309 306/507/314
f 291/486/299 306/507/314 308/508/294
f 305/509/295 307/500/309 294/475/292
f 310/510/315 309/501/310 307/500/309
f 303/494/305 304/511/316 300/495/306
f 300/503/306 304/512/316 301/504/312
f 302/505/313 304/512/316 303/506/305
f 301/504/312 304/512/316 302/505/313
f 306/507/314 311/502/311 312/513/317
f 312/514/317 310/515/315 305/480/295
f 289/477/289 315/516/304 316/517/318
f 288/484/293 316/518/318 314/492/303
f 318/519/319 319/520/320 316/517/318
f 312/514/317 313/521/321 310/515/315
f 310/510/315 313/522/321 309/501/310
f 309/501/310 313/522/321 311/502/311
f 311/502/311 313/522/321 312/513/317
f 316/518/318 319/523/320 317/524/322
f 314/492/303 317/524/322 318/525/319
f 318/519/319 320/526/323 319/520/320
f 319/523/320 320/527/323 317/524/322
f 317/524/322 320/527/323 318/525/319
f 57/79/12 229/81/63 192/528/246
f 234/529/235 267/530/247 266/442/277
f 205/334/219 322/374/240 201/531/206
f 322/374/240 321/373/239 201/531/206
f 217/348/228 323/532/324 216/354/231
f 216/354/231 323/532/324 215/355/232
f 215/355/232 323/532/324 218/347/227
f 218/347/227 323/532/324 217/348/228
f 203/533/220 184/275/189 183/274/188
f 202/534/238 183/274/188 188/278/191
f 181/535/1 194/536/201 195/438/203
f 194/536/201 181/535/1 180/318/4
f 189/282/193 185/100/79 222/537/207
f 321/538/239 188/278/191 189/282/193
f 203/337/220 36/336/61 38/539/60
f 264/448/237 267/398/247 84/446/128
f 203/533/220 38/287/60 184/275/189
f 234/396/235 235/540/276 86/541/70
f 224/164/123 206/542/212 58/543/33
f 91/136/104 92/145/110 93/134/102
f 2/119/91 56/95/76 90/177/105
f 90/177/105 66/544/75 93/143/102
f 2/390/91 237/545/122 56/162/76
f 66/156/75 73/13/11 91/136/104
f 56/95/76 66/546/75 90/177/105
f 224/547/123 261/404/253 240/270/131
f 250/548/325 261/404/253 224/549/123
f 229/81/63 249/80/62 224/171/123
f 249/80/62 35/110/88 326/550/326
f 35/110/88 249/80/62 57/79/12
f 66/156/75 42/50/32 324/304/200
f 42/50/32 41/49/40 324/304/200
f 41/49/40 35/169/88 324/304/200
f 41/111/40 206/551/212 325/112/89
f 206/551/212 224/171/123 325/112/89
f 326/550/326 35/110/88 325/112/89
f 224/171/123 249/80/62 326/550/326
f 224/171/123 326/550/326 325/112/89
f 35/169/88 327/175/132 324/304/200
f 327/175/132 35/169/88 102/157/119
f 12/281/17 181/1/1 14/3/3
f 179/280/192 180/4/4 4/6/6
f 5/15/13 3/7/7 7/9/8
f 7/9/8 4/8/6 8/11/9
f 10/18/16 6/12/10 57/14/12
f 75/552/199 76/17/15 10/18/16
f 11/553/18 8/19/9 12/20/17
f 13/554/202 11/21/18 14/23/3
f 74/555/77 15/24/19 76/26/15
f 16/29/21 13/556/202 14/27/3
f 77/28/20 17/557/25 16/29/21
f 62/113/80 32/30/22 64/32/24
f 19/36/27 16/33/21 20/35/26
f 22/558/209 19/36/27 23/37/28
f 80/123/41 42/41/32 79/43/34
f 59/98/78 24/44/35 60/46/37
f 22/558/209 23/37/28 25/48/39
f 43/559/216 41/49/40 80/51/41
f 32/272/22 40/52/42 44/54/44
f 36/78/61 33/55/45 37/57/47
f 44/54/44 47/53/43 48/59/49
f 39/560/53 29/60/50 46/62/52
f 45/61/51 29/60/50 44/63/44
f 40/52/42 39/64/53 47/53/43
f 55/74/58 51/66/48 54/68/55
f 45/61/51 44/63/44 49/70/56
f 47/53/43 46/65/52 51/58/48
f 50/561/54 46/62/52 49/70/56
f 54/68/55 50/67/54 53/73/57
f 48/76/49 51/66/48 52/75/59
f 53/73/57 49/72/56 52/75/59
f 43/559/216 80/51/41 81/83/65
f 85/562/135 82/87/64 86/89/70
f 31/122/92 176/90/71 175/92/73
f 31/122/92 28/93/74 40/52/42
f 28/93/74 25/48/39 39/64/53
f 26/47/38 29/563/50 39/64/53
f 33/55/45 175/92/73 34/56/46
f 42/564/32 66/94/75 58/42/33
f 60/46/37 27/45/36 76/97/15
f 26/99/38 60/46/37 29/60/50
f 23/120/28 59/98/78 26/99/38
f 186/277/190 185/100/79 67/102/81
f 61/31/23 30/103/82 64/32/24
f 68/109/87 65/105/84 72/107/86
f 71/115/67 67/108/81 72/107/86
f 67/108/81 62/113/80 68/109/87
f 64/32/24 63/104/83 68/109/87
f 72/107/86 69/106/85 71/115/67
f 73/176/11 6/25/10 2/119/91
f 75/565/199 30/103/82 76/97/15
f 78/40/31 21/39/30 59/98/78
f 20/566/26 78/40/31 23/120/28
f 20/566/26 17/121/25 78/40/31
f 82/87/64 80/123/41 83/88/69
f 124/178/133 120/124/93 123/126/95
f 130/188/138 126/127/96 127/129/98
f 85/567/135 86/130/70 88/132/100
f 92/145/110 91/136/104 94/138/106
f 99/147/112 94/142/106 98/144/107
f 93/134/102 92/145/110 98/139/107
f 95/160/118 99/147/112 97/148/113
f 98/139/107 96/146/111 97/153/113
f 96/146/111 99/154/112 100/152/117
f 92/145/110 94/138/106 96/146/111
f 107/568/327 108/166/125 116/151/116
f 107/568/327 116/151/116 106/167/126
f 113/158/120 115/149/114 106/167/126
f 103/569/266 114/133/101 110/168/127
f 224/570/123 237/163/122 240/174/131
f 91/571/104 73/176/11 90/177/105
f 121/192/140 124/178/133 122/179/134
f 119/269/94 85/180/135 118/182/97
f 119/125/94 118/185/97 123/126/95
f 87/572/185 84/183/128 117/186/136
f 121/192/140 117/186/136 124/178/133
f 129/194/141 125/187/137 130/188/138
f 118/573/97 117/189/136 127/191/98
f 122/179/134 126/127/96 121/192/140
f 128/574/139 117/193/136 129/194/141
f 134/575/145 129/194/141 137/196/143
f 131/202/147 133/197/144 132/199/146
f 128/574/139 129/194/141 133/201/144
f 127/191/98 128/190/139 131/202/147
f 132/576/146 130/188/138 131/203/147
f 140/211/152 136/204/148 142/206/150
f 129/194/141 130/207/138 135/195/142
f 136/204/148 130/207/138 138/205/149
f 138/214/149 132/199/146 137/209/143
f 135/195/142 136/204/148 139/210/151
f 137/196/143 135/195/142 141/213/154
f 142/254/150 138/214/149 141/215/154
f 146/226/160 148/216/155 161/218/157
f 141/213/154 139/210/151 145/220/159
f 144/230/165 140/211/152 146/223/160
f 145/220/159 143/219/158 149/225/162
f 148/216/155 142/227/150 167/229/164
f 152/237/168 149/231/162 156/233/167
f 151/236/169 147/212/153 152/235/168
f 143/219/158 147/212/153 150/224/161
f 148/216/155 145/222/159 152/237/168
f 162/247/175 160/238/170 164/240/172
f 149/225/162 150/224/161 153/242/166
f 155/244/174 151/236/169 156/243/167
f 150/224/161 151/236/169 154/241/173
f 160/238/170 147/212/153 159/239/171
f 159/239/171 144/230/165 161/245/157
f 148/234/155 147/212/153 158/246/156
f 158/246/156 160/238/170 163/248/176
f 164/240/172 159/239/171 165/251/178
f 161/218/157 158/217/156 165/253/178
f 168/577/163 142/254/150 169/255/179
f 169/260/179 141/221/154 167/229/164
f 168/577/163 169/255/179 171/257/181
f 172/264/180 169/260/179 170/261/183
f 170/261/183 167/229/164 171/262/181
f 118/573/97 88/266/100 117/189/136
f 120/578/93 82/268/64 119/269/94
f 224/171/123 240/270/131 238/172/129
f 34/279/46 183/274/188 37/276/47
f 67/102/81 71/85/67 186/277/190
f 174/284/72 188/278/191 34/279/46
f 4/6/6 3/116/7 179/280/192
f 9/5/5 180/4/4 12/281/17
f 185/100/79 189/282/193 62/101/80
f 32/283/22 189/282/193 174/284/72
f 77/285/20 14/3/3 18/38/29
f 182/2/2 18/38/29 14/3/3
f 178/386/90 190/288/194 179/290/192
f 196/579/241 16/291/21 197/293/196
f 5/303/13 7/294/8 190/296/194
f 7/294/8 8/297/9 191/295/195
f 192/528/246 230/299/198 10/301/16
f 193/298/197 8/305/9 194/307/201
f 194/307/201 11/306/18 195/309/203
f 232/322/211 219/310/204 21/312/30
f 195/309/203 13/308/202 16/291/21
f 16/291/21 196/579/241 231/313/205
f 221/377/242 201/314/206 223/316/208
f 179/290/192 191/289/195 180/318/4
f 197/293/196 19/292/27 198/320/210
f 58/543/33 206/323/212 79/325/34
f 219/310/204 220/326/214 24/311/35
f 22/319/209 25/328/39 198/320/210
f 206/551/212 41/111/40 233/331/213
f 201/531/206 207/332/217 205/334/219
f 202/372/238 33/335/45 203/337/220
f 207/332/217 211/338/221 210/333/218
f 204/580/226 209/340/223 200/342/225
f 201/314/206 200/342/225 207/343/217
f 205/334/219 210/333/218 204/345/226
f 213/353/230 214/346/222 217/348/228
f 208/341/224 212/349/229 207/343/217
f 210/333/218 214/339/222 209/344/223
f 208/341/224 209/340/223 212/349/229
f 212/356/229 213/353/230 216/354/231
f 211/581/221 215/355/232 214/346/222
f 211/581/221 212/356/229 215/355/232
f 228/382/244 227/357/233 69/359/85
f 43/330/216 81/363/65 233/331/213
f 87/361/185 236/360/234 264/367/237
f 204/345/226 28/368/74 205/334/219
f 199/329/215 25/328/39 204/345/226
f 28/368/74 204/345/226 25/328/39
f 321/373/239 175/371/73 202/372/238
f 31/369/92 175/371/73 322/374/240
f 18/321/29 196/375/241 232/322/211
f 199/378/215 200/342/225 220/326/214
f 198/395/210 199/378/215 219/310/204
f 222/537/207 185/100/79 225/379/243
f 221/377/242 223/316/208 30/381/82
f 226/385/245 228/382/244 65/383/84
f 226/385/245 225/384/243 228/382/244
f 223/316/208 222/315/207 226/385/245
f 223/316/208 226/385/245 63/380/83
f 225/379/243 186/277/190 227/365/233
f 15/394/19 192/388/246 2/390/91
f 221/377/242 30/381/82 230/391/198
f 74/582/77 230/393/198 15/394/19
f 197/376/196 198/395/210 232/322/211
f 79/325/34 233/324/213 83/397/69
f 266/583/277 267/398/247 270/400/249
f 265/454/236 273/401/250 274/403/252
f 237/584/122 238/172/129 241/406/130
f 240/174/131 241/173/130 245/411/256
f 240/270/131 245/408/256 239/271/186
f 245/411/256 246/410/258 244/414/261
f 245/408/256 244/418/261 243/412/259
f 243/412/259 247/419/265 246/421/258
f 239/271/186 243/412/259 241/406/130
f 258/416/263 255/428/270 263/417/264
f 260/424/267 263/417/264 253/430/272
f 252/427/269 262/415/262 253/430/272
f 250/548/325 257/431/273 261/404/253
f 2/390/91 229/389/63 237/435/122
f 220/326/214 230/391/198 27/327/36
f 182/585/2 195/438/203 18/321/29
f 231/437/205 196/375/241 18/321/29
f 270/400/249 271/399/248 269/440/275
f 236/586/234 235/441/276 265/443/236
f 235/587/276 236/444/234 86/130/70
f 266/583/277 270/400/249 265/445/236
f 267/398/247 264/448/237 271/399/248
f 273/401/250 272/450/278 277/402/251
f 265/366/236 274/452/252 264/367/237
f 272/450/278 273/401/250 268/439/274
f 272/450/278 264/455/237 276/451/279
f 281/588/284 284/457/281 276/459/279
f 278/465/286 279/460/283 280/462/285
f 275/456/280 280/463/285 276/451/279
f 274/452/252 278/465/286 275/453/280
f 274/403/252 277/402/251 278/467/286
f 285/471/290 283/468/287 289/470/289
f 276/459/279 282/458/282 277/402/251
f 279/589/283 277/402/251 285/471/290
f 281/461/284 279/460/283 284/473/281
f 282/458/282 286/474/291 283/468/287
f 284/457/281 288/476/293 282/458/282
f 284/473/281 285/472/290 288/478/293
f 293/490/300 308/479/294 295/481/296
f 288/476/293 292/482/297 286/474/291
f 289/470/289 287/469/288 293/487/300
f 292/482/297 296/488/301 290/483/298
f 295/481/296 314/492/303 289/491/289
f 299/499/308 303/494/305 296/496/301
f 295/590/296 294/475/292 299/498/308
f 290/483/298 297/489/302 294/475/292
f 295/481/296 299/499/308 292/485/297
f 306/507/314 307/500/309 311/502/311
f 296/488/301 300/503/306 297/489/302
f 299/498/308 298/497/307 303/506/305
f 297/489/302 301/504/312 298/497/307
f 291/486/299 294/475/292 306/507/314
f 293/487/300 291/486/299 308/508/294
f 295/590/296 305/509/295 294/475/292
f 305/509/295 310/510/315 307/500/309
f 308/508/294 306/507/314 312/513/317
f 308/479/294 312/514/317 305/480/295
f 288/478/293 289/477/289 316/517/318
f 295/481/296 288/484/293 314/492/303
f 315/516/304 318/519/319 316/517/318
f 314/492/303 316/518/318 317/524/322
f 315/493/304 314/492/303 318/525/319
f 10/301/16 57/79/12 192/528/246
f 235/441/276 234/529/235 266/442/277
f 202/534/238 203/533/220 183/274/188
f 321/538/239 202/534/238 188/278/191
f 182/585/2 181/535/1 195/438/203
f 193/317/197 194/536/201 180/318/4
f 201/591/206 189/282/193 222/537/207
f 201/591/206 321/538/239 189/282/193
f 87/592/185 264/448/237 84/446/128
f 83/397/69 234/396/235 86/541/70
f 56/162/76 224/164/123 58/543/33
f 66/156/75 91/136/104 93/134/102
f 94/142/106 90/177/105 93/143/102
