# Blender v2.76 (sub 0) OBJ File: 'npc_invisomut.blend'
# www.blender.org
v -0.889867 0.507546 -0.052897
v -0.890270 0.513185 0.049111
v 0.889132 0.511788 -0.053027
v 0.889508 0.517428 0.048981
v 0.837904 0.513854 -0.144755
v 0.685926 0.534943 -0.205675
v 0.535039 0.564778 -0.224039
v 0.384152 0.594336 -0.207785
v 0.231357 0.626309 -0.209661
v 0.020783 0.573170 -0.475048
v -0.020925 0.573170 -0.475048
v -0.233729 0.628119 -0.209479
v -0.386142 0.597975 -0.207919
v -0.536428 0.564034 -0.224007
v -0.686868 0.530009 -0.205452
v -0.838847 0.508584 -0.144556
v -0.840005 0.524783 0.148522
v -0.689554 0.569679 0.188830
v -0.538686 0.597414 0.203324
v -0.386764 0.622974 0.230376
v -0.231113 0.633230 0.319486
v -0.076218 0.615437 0.408245
v 0.076237 0.616823 0.408301
v 0.229888 0.628580 0.367954
v 0.384527 0.620543 0.268305
v 0.536980 0.596641 0.203428
v 0.687897 0.566684 0.148788
v 0.838860 0.528303 0.106057
v 0.131006 0.622997 -0.300323
v 0.152987 0.623746 0.388027
v -0.131309 0.623081 -0.300448
v -0.153082 0.619584 0.388117
v -0.890038 0.510077 -0.027457
v -0.890164 0.511879 -0.001977
v -0.890240 0.512896 0.023547
v 0.889476 0.517140 0.023417
v 0.889403 0.516122 -0.002107
v 0.889288 0.514320 -0.027587
v -0.840204 0.528477 0.074823
v -0.840105 0.527450 0.001386
v -0.839625 0.520378 -0.071716
v -0.689680 0.572395 0.089558
v -0.689342 0.567777 -0.009307
v -0.688337 0.552561 -0.107583
v -0.539045 0.603344 0.095711
v -0.538854 0.601108 -0.011467
v -0.537888 0.586577 -0.117962
v -0.388121 0.637147 0.119869
v -0.388741 0.640218 0.009846
v -0.387716 0.625691 -0.099384
v -0.233446 0.661842 0.185984
v -0.235516 0.682840 0.053896
v -0.235376 0.666777 -0.078075
v -0.062750 0.668041 0.226051
v -0.049635 0.705007 0.047032
v -0.035582 0.700247 -0.133982
v 0.062422 0.667882 0.226021
v 0.048533 0.704877 0.046875
v 0.034628 0.700029 -0.134069
v 0.231344 0.655946 0.222227
v 0.232458 0.678113 0.078119
v 0.232253 0.664439 -0.066289
v 0.385889 0.635277 0.148247
v 0.386792 0.640207 0.028723
v 0.385733 0.624540 -0.089913
v 0.537305 0.602390 0.095775
v 0.537145 0.600730 -0.011434
v 0.536310 0.586774 -0.117961
v 0.687989 0.569413 0.059581
v 0.687735 0.565820 -0.029276
v 0.687003 0.553542 -0.117651
v 0.838922 0.530177 0.043050
v 0.838815 0.528960 -0.019786
v 0.838460 0.523241 -0.082373
v 0.148206 0.655456 0.213583
v 0.144047 0.704549 0.043111
v 0.137116 0.677130 -0.130436
v -0.149088 0.654368 0.213580
v -0.146689 0.706655 0.043264
v -0.140602 0.679166 -0.129219
v 0.817479 0.474508 0.025767
v 0.868257 0.461463 0.007225
v 0.868676 0.461797 0.024848
v 0.817524 0.472837 0.079754
v -0.864539 0.458500 0.003863
v -0.815409 0.473742 0.056405
v -0.814526 0.470675 0.118517
v -0.863947 0.459329 0.019700
v -0.669249 0.516343 0.069766
v -0.669213 0.514092 0.156909
v -0.520975 0.546801 0.069156
v -0.521912 0.541553 0.163107
v -0.367615 0.583072 0.077306
v -0.368096 0.569146 0.173893
v -0.218815 0.547835 0.129785
v -0.219371 0.579979 0.247781
v -0.145060 0.505139 0.153563
v -0.063374 0.490784 0.125763
v -0.075686 0.560124 0.328439
v -0.150114 0.565711 0.309325
v 0.063725 0.491445 0.126223
v 0.076832 0.561373 0.328927
v 0.146250 0.512014 0.153797
v 0.217937 0.542591 0.165067
v 0.219168 0.574298 0.297841
v 0.151765 0.569549 0.310751
v 0.365629 0.580567 0.104534
v 0.366348 0.566201 0.211606
v 0.518090 0.546154 0.067157
v 0.518654 0.540977 0.161610
v 0.668040 0.513282 0.039450
v 0.667906 0.511024 0.117239
v 0.816297 0.462902 -0.103637
v 0.864171 0.460611 -0.020968
v 0.865154 0.461674 -0.004327
v 0.816979 0.470897 -0.049824
v 0.866973 0.461252 0.000973
v 0.817344 0.474145 -0.010145
v -0.864939 0.456935 -0.017344
v -0.816997 0.458457 -0.099311
v -0.817393 0.468738 -0.035858
v -0.865319 0.457960 -0.001593
v -0.816693 0.473191 0.011889
v -0.865414 0.457681 0.001129
v -0.668301 0.481579 -0.148019
v -0.669051 0.501763 -0.062019
v -0.669042 0.512785 0.004315
v -0.519424 0.516415 -0.161409
v -0.519915 0.536226 -0.067812
v -0.519417 0.545353 -0.002011
v -0.370030 0.551811 -0.138063
v -0.368895 0.575575 -0.045815
v -0.365922 0.584056 0.008105
v -0.215487 0.584684 -0.131161
v -0.215689 0.564085 -0.016865
v -0.216694 0.546150 0.041345
v -0.118014 0.580706 -0.215462
v -0.018347 0.530089 -0.388876
v -0.031913 0.533834 -0.181199
v -0.127953 0.538875 -0.060669
v -0.050586 0.504397 -0.023748
v -0.138894 0.525025 0.041590
v 0.018205 0.530089 -0.388876
v 0.031961 0.533832 -0.181004
v 0.048690 0.502557 -0.023422
v 0.117134 0.580029 -0.216497
v 0.211834 0.581997 -0.134530
v 0.211816 0.560970 -0.008018
v 0.123572 0.536271 -0.062769
v 0.213716 0.543459 0.063596
v 0.136074 0.524376 0.042137
v 0.368578 0.547546 -0.139691
v 0.367489 0.573845 -0.038971
v 0.364490 0.583605 0.023618
v 0.519640 0.516296 -0.163168
v 0.519665 0.535839 -0.068913
v 0.517669 0.544668 -0.005633
v 0.668378 0.485379 -0.152268
v 0.668749 0.501868 -0.075538
v 0.668251 0.510526 -0.017302
v 0.700641 0.507694 -0.200220
v 0.855859 0.485957 -0.139394
v 0.079170 0.592906 0.409158
v -0.078537 0.591548 0.408846
v -0.390962 0.572927 -0.193294
v -0.232018 0.605239 -0.190159
v -0.908214 0.481930 -0.017446
v -0.907923 0.480025 -0.040357
v 0.909716 0.488091 0.039766
v 0.857050 0.499496 0.102068
v -0.390497 0.596734 0.223985
v -0.548701 0.569449 0.202802
v 0.020167 0.548699 -0.481043
v 0.128188 0.599690 -0.287963
v 0.701484 0.538328 0.146841
v 0.546171 0.568924 0.202014
v -0.128762 0.599946 -0.287407
v -0.020325 0.548699 -0.481043
v -0.856085 0.496672 0.147222
v -0.907639 0.484473 0.036972
v 0.908768 0.486935 -0.001914
v 0.909475 0.487647 0.015755
v 0.545553 0.538232 -0.216360
v 0.232183 0.603719 0.369457
v 0.157558 0.599545 0.387807
v 0.229132 0.603057 -0.192074
v -0.908332 0.482779 -0.001763
v -0.546096 0.537726 -0.215363
v 0.907169 0.484224 -0.042436
v 0.907763 0.486151 -0.019030
v -0.232796 0.608142 0.314719
v -0.156698 0.595467 0.387036
v -0.856686 0.480876 -0.136893
v -0.702993 0.541412 0.191183
v 0.389286 0.569105 -0.194132
v 0.388526 0.594606 0.266009
v -0.701061 0.503146 -0.197752
v -0.907923 0.483786 0.013952
vt 0.281556 0.946625
vt 0.314598 0.946625
vt 0.284400 0.973717
vt 0.270963 0.973717
vt 0.270963 0.032688
vt 0.284400 0.032688
vt 0.336850 0.059640
vt 0.298246 0.059640
vt 0.359014 0.140589
vt 0.306948 0.140589
vt 0.367128 0.221162
vt 0.310766 0.221162
vt 0.382066 0.301735
vt 0.324244 0.301735
vt 0.430287 0.382308
vt 0.360482 0.382308
vt 0.375818 0.425484
vt 0.466321 0.422594
vt 0.476927 0.462881
vt 0.383761 0.470194
vt 0.476927 0.543454
vt 0.383761 0.536141
vt 0.375818 0.580851
vt 0.466321 0.583741
vt 0.455627 0.624027
vt 0.379487 0.624027
vt 0.401923 0.704600
vt 0.339137 0.704600
vt 0.367128 0.785173
vt 0.310766 0.785173
vt 0.337866 0.865746
vt 0.291087 0.865746
vt 0.182432 0.946625
vt 0.215473 0.946625
vt 0.244090 0.973717
vt 0.230653 0.973717
vt 0.248515 0.946625
vt 0.257526 0.973717
vt 0.230653 0.032688
vt 0.244090 0.032688
vt 0.221036 0.059640
vt 0.182432 0.059640
vt 0.257526 0.032688
vt 0.259641 0.059640
vt 0.202817 0.140589
vt 0.150751 0.140589
vt 0.254882 0.140589
vt 0.198040 0.221162
vt 0.141678 0.221162
vt 0.254403 0.221162
vt 0.208600 0.301735
vt 0.150778 0.301735
vt 0.266422 0.301735
vt 0.220872 0.382308
vt 0.151068 0.382308
vt 0.290677 0.382308
vt 0.104308 0.434153
vt 0.194811 0.431263
vt 0.193764 0.484821
vt 0.011262 0.492134
vt 0.285314 0.428373
vt 0.284716 0.477508
vt 0.193764 0.521514
vt 0.011262 0.514201
vt 0.284716 0.528827
vt 0.104308 0.572182
vt 0.194811 0.575072
vt 0.227207 0.624027
vt 0.151068 0.624027
vt 0.285314 0.577962
vt 0.303347 0.624027
vt 0.213565 0.704600
vt 0.150778 0.704600
vt 0.276351 0.704600
vt 0.198040 0.785173
vt 0.141678 0.785173
vt 0.254403 0.785173
vt 0.197530 0.865746
vt 0.150751 0.865746
vt 0.244309 0.865746
vt 0.744386 0.087215
vt 0.734842 0.061296
vt 0.743669 0.061100
vt 0.771352 0.087163
vt 0.733119 0.937328
vt 0.759732 0.912122
vt 0.790723 0.911761
vt 0.741065 0.937001
vt 0.767306 0.837253
vt 0.810845 0.837285
vt 0.767551 0.761708
vt 0.814415 0.762324
vt 0.772322 0.683357
vt 0.820367 0.684106
vt 0.797585 0.608380
vt 0.858114 0.609568
vt 0.808091 0.572409
vt 0.793668 0.531812
vt 0.898169 0.538401
vt 0.888657 0.575495
vt 0.793936 0.468602
vt 0.898430 0.461735
vt 0.808473 0.427692
vt 0.815111 0.391773
vt 0.882996 0.390622
vt 0.889464 0.424305
vt 0.785929 0.317568
vt 0.839156 0.316925
vt 0.766526 0.239862
vt 0.813624 0.239521
vt 0.752030 0.163489
vt 0.790888 0.163520
vt 0.679318 0.087446
vt 0.720705 0.063319
vt 0.729062 0.062859
vt 0.706465 0.087342
vt 0.731706 0.061934
vt 0.726408 0.087261
vt 0.722466 0.937584
vt 0.681402 0.913442
vt 0.713435 0.913300
vt 0.730376 0.937739
vt 0.737447 0.912795
vt 0.731730 0.937795
vt 0.657377 0.837930
vt 0.700966 0.837646
vt 0.734460 0.837276
vt 0.651343 0.761926
vt 0.698726 0.761543
vt 0.731900 0.760987
vt 0.663690 0.685405
vt 0.710511 0.684244
vt 0.737728 0.682553
vt 0.668141 0.606210
vt 0.724524 0.605696
vt 0.753165 0.606406
vt 0.626903 0.559161
vt 0.538967 0.509586
vt 0.642919 0.516322
vt 0.702043 0.561685
vt 0.720444 0.524324
vt 0.752706 0.567265
vt 0.538967 0.491165
vt 0.642919 0.484430
vt 0.720681 0.476346
vt 0.626240 0.441863
vt 0.666541 0.395045
vt 0.728939 0.395582
vt 0.701270 0.439480
vt 0.764286 0.394449
vt 0.753021 0.433639
vt 0.662781 0.315251
vt 0.713909 0.316414
vt 0.745495 0.318176
vt 0.650461 0.238188
vt 0.698163 0.238741
vt 0.730065 0.240010
vt 0.655335 0.162486
vt 0.694183 0.162780
vt 0.723559 0.163289
vt 0.916964 0.136641
vt 0.908385 0.055220
vt 0.894321 0.075173
vt 0.903140 0.152818
vt 0.940117 0.461210
vt 0.939763 0.543345
vt 0.927382 0.541783
vt 0.927700 0.462456
vt 0.941075 0.704226
vt 0.954822 0.620738
vt 0.942352 0.611946
vt 0.927913 0.693891
vt 0.906245 0.976525
vt 0.905908 0.976443
vt 0.891919 0.954825
vt 0.892009 0.954985
vt 0.905876 0.027300
vt 0.908490 0.055069
vt 0.894230 0.074880
vt 0.891550 0.047912
vt 0.942942 0.703531
vt 0.933424 0.786497
vt 0.919277 0.773481
vt 0.929515 0.692547
vt 0.936232 0.491884
vt 0.956454 0.435920
vt 0.943989 0.441894
vt 0.923753 0.492908
vt 0.922866 0.137194
vt 0.932360 0.218973
vt 0.918353 0.232527
vt 0.908651 0.153887
vt 0.956533 0.569110
vt 0.936232 0.513000
vt 0.923753 0.511968
vt 0.944149 0.563264
vt 0.907439 0.948872
vt 0.905979 0.976130
vt 0.892060 0.954221
vt 0.893477 0.928105
vt 0.906447 0.027746
vt 0.906328 0.027405
vt 0.891870 0.048115
vt 0.891904 0.048775
vt 0.928814 0.218259
vt 0.915200 0.231148
vt 0.945008 0.382048
vt 0.943299 0.420626
vt 0.930725 0.423726
vt 0.932069 0.388874
vt 0.954693 0.384416
vt 0.942094 0.393451
vt 0.906237 0.976556
vt 0.891789 0.955043
vt 0.928944 0.786284
vt 0.915461 0.773069
vt 0.906163 0.028488
vt 0.906504 0.028242
vt 0.892223 0.049732
vt 0.892123 0.050209
vt 0.948881 0.622535
vt 0.936079 0.615421
vt 0.941746 0.583749
vt 0.929294 0.580165
vt 0.907447 0.949772
vt 0.893493 0.929844
vt 0.924302 0.867719
vt 0.910069 0.851044
vt 0.939451 0.300607
vt 0.926190 0.310886
vt 0.940413 0.301503
vt 0.927041 0.312618
vt 0.915625 0.868064
vt 0.901989 0.851711
vt 0.906294 0.976305
vt 0.892106 0.954560
vt 0.930788 0.145080
vt 0.922449 0.065365
vt 0.952533 0.462732
vt 0.952144 0.542145
vt 0.954237 0.700971
vt 0.967292 0.621558
vt 0.920481 0.966144
vt 0.919898 0.966144
vt 0.920202 0.038663
vt 0.922750 0.065365
vt 0.956370 0.700971
vt 0.947570 0.780384
vt 0.948711 0.491564
vt 0.968918 0.434417
vt 0.937082 0.145080
vt 0.946367 0.224493
vt 0.968918 0.570459
vt 0.948711 0.513313
vt 0.921400 0.939580
vt 0.920990 0.038663
vt 0.920786 0.038663
vt 0.942429 0.224493
vt 0.957946 0.383319
vt 0.955874 0.423025
vt 0.967292 0.383319
vt 0.920685 0.966144
vt 0.942427 0.780384
vt 0.961683 0.621558
vt 0.954198 0.581851
vt 0.938534 0.859797
vt 0.952711 0.303906
vt 0.953786 0.303906
vt 0.929262 0.859797
vn 0.242400 0.970000 0.017400
vn -0.307500 0.951000 0.033200
vn -0.288900 0.956700 0.036000
vn -0.193600 0.980200 0.041400
vn -0.206400 0.974200 0.091400
vn -0.194900 0.965600 0.172300
vn -0.102800 0.967300 0.231900
vn -0.004300 0.961800 0.273600
vn -0.019700 0.983200 0.181600
vn 0.177700 0.971700 0.155800
vn 0.216100 0.972300 0.089100
vn 0.216300 0.975400 0.042500
vn 0.254300 0.966700 0.029500
vn 0.077500 0.972100 0.221500
vn 0.007900 0.979400 0.201600
vn 0.290100 0.948000 -0.131000
vn 0.265700 0.960400 -0.083400
vn 0.247300 0.968600 -0.025000
vn -0.294100 0.945400 -0.140600
vn -0.281700 0.955500 -0.087700
vn -0.287000 0.957700 -0.020300
vn -0.230700 0.953300 -0.194800
vn -0.250000 0.959900 -0.127000
vn -0.268700 0.962700 -0.032200
vn -0.234900 0.948400 -0.213100
vn -0.221800 0.964700 -0.142300
vn -0.208200 0.977500 -0.033100
vn -0.205500 0.952200 -0.225900
vn -0.233400 0.963400 -0.131900
vn -0.236000 0.971700 0.004200
vn -0.203300 0.943000 -0.263600
vn -0.237600 0.963500 -0.123300
vn -0.246100 0.964200 0.098600
vn -0.158100 0.927400 -0.339000
vn -0.095800 0.990800 -0.095800
vn -0.084900 0.966300 0.243100
vn 0.001600 0.937200 -0.348900
vn 0.002000 0.999600 -0.026500
vn 0.001400 0.979300 0.202200
vn 0.264400 0.923500 -0.277900
vn 0.273100 0.953300 -0.129300
vn 0.091200 0.971400 0.219200
vn 0.204400 0.946500 -0.249500
vn 0.219200 0.969600 -0.109200
vn 0.224300 0.969200 0.101300
vn 0.180700 0.957400 -0.225500
vn 0.219000 0.967200 -0.129100
vn 0.237500 0.971300 0.014800
vn 0.212400 0.956000 -0.202500
vn 0.211300 0.968400 -0.132100
vn 0.215200 0.976200 -0.026600
vn 0.219700 0.958700 -0.180800
vn 0.231700 0.965800 -0.116800
vn 0.243500 0.969400 -0.031300
vn 0.163500 0.927900 -0.335100
vn 0.115900 0.988500 -0.096800
vn 0.089000 0.968200 0.233800
vn -0.248800 0.921700 -0.297500
vn -0.237400 0.960900 -0.142300
vn -0.114000 0.965600 0.233900
vn -0.241200 -0.970300 -0.016500
vn 0.307400 -0.951000 -0.033100
vn 0.288700 -0.956700 -0.035900
vn 0.192900 -0.980400 -0.039600
vn 0.208300 -0.973300 -0.096400
vn -0.116600 -0.989700 0.083500
vn -0.101100 -0.936900 0.334700
vn 0.005400 -0.945700 0.324900
vn 0.239400 -0.929500 0.280700
vn 0.135200 -0.988300 0.070400
vn -0.216800 -0.971800 -0.092900
vn -0.214900 -0.975700 -0.041600
vn -0.253800 -0.966800 -0.029000
vn 0.151200 -0.934200 0.323200
vn -0.491100 -0.828100 0.270400
vn -0.285700 -0.949600 0.128800
vn -0.260100 -0.962800 0.073100
vn -0.248600 -0.968400 0.021500
vn 0.288900 -0.947300 0.138100
vn 0.278800 -0.957300 0.075800
vn 0.291300 -0.956500 0.014400
vn 0.229600 -0.953300 0.196100
vn 0.250100 -0.959600 0.128600
vn 0.268700 -0.962700 0.033300
vn 0.234300 -0.948600 0.212900
vn 0.222200 -0.964000 0.146100
vn 0.207700 -0.977400 0.038500
vn 0.203600 -0.953400 0.222800
vn 0.232600 -0.963200 0.134900
vn 0.236900 -0.971500 0.008700
vn 0.067600 -0.997600 0.015000
vn -0.144500 -0.986200 -0.080600
vn -0.238000 -0.971300 -0.001400
vn -0.436700 -0.891300 -0.122000
vn -0.321900 -0.927200 -0.191300
vn -0.273400 -0.951400 -0.141700
vn -0.000100 -0.999800 0.018000
vn -0.010500 -0.981900 -0.189300
vn -0.004900 -0.996600 -0.082300
vn 0.300600 -0.927700 -0.221400
vn 0.328000 -0.927200 -0.181200
vn 0.330400 -0.940400 -0.080700
vn -0.066300 -0.997500 0.022800
vn 0.157700 -0.985900 -0.055700
vn 0.244300 -0.969300 -0.027900
vn -0.179300 -0.957900 0.224200
vn -0.217600 -0.966800 0.134100
vn -0.234900 -0.972000 -0.007400
vn -0.211300 -0.956300 0.202000
vn -0.211800 -0.968000 0.134900
vn -0.213500 -0.976400 0.032300
vn -0.218600 -0.958800 0.181600
vn -0.231700 -0.965700 0.117100
vn -0.243300 -0.969400 0.032400
vn 0.433100 -0.892900 -0.123000
vn 0.319200 -0.928800 -0.188300
vn 0.298800 -0.947500 -0.114000
vn -0.302400 -0.925900 -0.226200
vn -0.313800 -0.926700 -0.206900
vn -0.372800 -0.922600 -0.099200
vn 0.033900 -0.890600 -0.453600
vn 0.006900 -0.931000 0.364900
vn 0.199300 -0.897800 -0.392900
vn -0.499400 -0.864500 0.056900
vn 0.333500 -0.826400 0.453700
vn 0.087900 -0.825100 0.558100
vn 0.614300 -0.777800 -0.133000
vn 0.036800 -0.799800 0.599100
vn -0.613700 -0.778400 -0.131900
vn -0.377400 -0.882200 0.281600
vn 0.530400 -0.847700 -0.011400
vn -0.136200 -0.876500 -0.461800
vn 0.135800 -0.925800 0.352800
vn 0.245800 -0.938600 -0.242200
vn -0.499700 -0.865900 0.021000
vn 0.264800 -0.854300 -0.447400
vn 0.503500 -0.862800 0.044600
vn -0.143200 -0.909800 0.389600
vn 0.014200 -0.703100 0.710900
vn -0.422700 -0.860000 0.285900
vn 0.000000 -0.980200 -0.197900
vn 0.502600 -0.863100 -0.049400
vn -0.350900 -0.913200 -0.207100
vn 0.034500 -0.742100 0.669500
vn -0.240800 -0.859200 -0.451500
vn 0.178700 -0.912200 0.368700
vn 0.179200 -0.919300 0.350400
vn 0.154600 -0.878600 -0.451900
vn -0.493100 -0.861700 0.119700
vn 0.360400 -0.906600 -0.219300
vn -0.151200 -0.924900 0.348800
vn -0.253700 -0.938900 -0.232500
vn -0.490000 -0.870500 0.045000
vn 0.100900 -0.755900 0.646900
vn 0.039600 -0.867900 0.495100
vn -0.201500 -0.890700 -0.407400
vn 0.536300 -0.844000 0.007300
vn -0.022300 -0.900200 -0.434900
vn 0.372900 0.039100 -0.927100
vn -0.001500 0.030500 0.999500
vn 0.120200 -0.579000 -0.806400
vn -0.847100 0.528400 -0.056600
vn 0.738200 0.357500 0.572100
vn -0.137900 -0.090800 0.986300
vn 0.867900 -0.126300 -0.480400
vn 0.351500 0.086900 0.932200
vn -0.867600 -0.128400 -0.480300
vn -0.838500 0.408200 0.360900
vn 0.827700 0.560000 -0.037300
vn 0.069500 -0.205700 -0.976100
vn 0.242100 0.059200 0.968500
vn 0.606400 -0.475600 -0.637300
vn -0.846700 0.530600 -0.039200
vn 0.210600 -0.452100 -0.866700
vn 0.844500 0.532100 -0.061500
vn -0.486000 -0.136400 0.863200
vn 0.288200 0.060900 0.955600
vn -0.676100 -0.014700 0.736600
vn 0.000000 0.238000 -0.971300
vn 0.837300 0.544000 -0.055100
vn -0.817800 0.370300 -0.440600
vn -0.312300 0.181000 0.932600
vn -0.194200 -0.423300 -0.885000
vn 0.548100 0.054900 0.834600
vn 0.254500 0.052500 0.965600
vn -0.052800 -0.271700 -0.960900
vn -0.849900 0.526500 -0.019000
vn 0.808400 0.400600 -0.431300
vn -0.260000 0.022500 0.965400
vn -0.599300 -0.496900 -0.627600
vn -0.854100 0.520000 -0.006000
vn -0.098300 0.073300 0.992400
vn 0.387900 0.031600 0.921200
vn -0.114900 -0.542900 -0.831900
vn 0.823800 0.566700 -0.012900
vn -0.361400 -0.050000 -0.931100
s off
f 72/1/1 28/2/1 4/3/1 36/4/1
f 35/5/2 2/6/2 17/7/2 39/8/2
f 39/8/3 17/7/3 18/9/3 42/10/3
f 42/10/4 18/9/4 19/11/4 45/12/4
f 45/12/5 19/11/5 20/13/5 48/14/5
f 48/14/6 20/13/6 21/15/6 51/16/6
f 78/17/7 32/18/7 22/19/7 54/20/7
f 54/20/8 22/19/8 23/21/8 57/22/8
f 75/23/9 30/24/9 24/25/9 60/26/9
f 60/26/10 24/25/10 25/27/10 63/28/10
f 63/28/11 25/27/11 26/29/11 66/30/11
f 66/30/12 26/29/12 27/31/12 69/32/12
f 69/32/13 27/31/13 28/2/13 72/1/13
f 57/22/14 23/21/14 30/24/14 75/23/14
f 51/16/15 21/15/15 32/18/15 78/17/15
f 5/33/16 74/34/16 38/35/16 3/36/16
f 74/34/17 73/37/17 37/38/17 38/35/17
f 73/37/18 72/1/18 36/4/18 37/38/18
f 1/39/19 33/40/19 41/41/19 16/42/19
f 33/40/20 34/43/20 40/44/20 41/41/20
f 34/43/21 35/5/21 39/8/21 40/44/21
f 16/42/22 41/41/22 44/45/22 15/46/22
f 41/41/23 40/44/23 43/47/23 44/45/23
f 40/44/24 39/8/24 42/10/24 43/47/24
f 15/46/25 44/45/25 47/48/25 14/49/25
f 44/45/26 43/47/26 46/50/26 47/48/26
f 43/47/27 42/10/27 45/12/27 46/50/27
f 14/49/28 47/48/28 50/51/28 13/52/28
f 47/48/29 46/50/29 49/53/29 50/51/29
f 46/50/30 45/12/30 48/14/30 49/53/30
f 13/52/31 50/51/31 53/54/31 12/55/31
f 50/51/32 49/53/32 52/56/32 53/54/32
f 49/53/33 48/14/33 51/16/33 52/56/33
f 31/57/34 80/58/34 56/59/34 11/60/34
f 80/58/35 79/61/35 55/62/35 56/59/35
f 79/61/36 78/17/36 54/20/36 55/62/36
f 11/60/37 56/59/37 59/63/37 10/64/37
f 56/59/38 55/62/38 58/65/38 59/63/38
f 55/62/39 54/20/39 57/22/39 58/65/39
f 29/66/40 77/67/40 62/68/40 9/69/40
f 77/67/41 76/70/41 61/71/41 62/68/41
f 76/70/42 75/23/42 60/26/42 61/71/42
f 9/69/43 62/68/43 65/72/43 8/73/43
f 62/68/44 61/71/44 64/74/44 65/72/44
f 61/71/45 60/26/45 63/28/45 64/74/45
f 8/73/46 65/72/46 68/75/46 7/76/46
f 65/72/47 64/74/47 67/77/47 68/75/47
f 64/74/48 63/28/48 66/30/48 67/77/48
f 7/76/49 68/75/49 71/78/49 6/79/49
f 68/75/50 67/77/50 70/80/50 71/78/50
f 67/77/51 66/30/51 69/32/51 70/80/51
f 6/79/52 71/78/52 74/34/52 5/33/52
f 71/78/53 70/80/53 73/37/53 74/34/53
f 70/80/54 69/32/54 72/1/54 73/37/54
f 10/64/55 59/63/55 77/67/55 29/66/55
f 59/63/56 58/65/56 76/70/56 77/67/56
f 58/65/57 57/22/57 75/23/57 76/70/57
f 12/55/58 53/54/58 80/58/58 31/57/58
f 53/54/59 52/56/59 79/61/59 80/58/59
f 52/56/60 51/16/60 78/17/60 79/61/60
f 81/81/61 82/82/61 83/83/61 84/84/61
f 85/85/62 86/86/62 87/87/62 88/88/62
f 86/86/63 89/89/63 90/90/63 87/87/63
f 89/89/64 91/91/64 92/92/64 90/90/64
f 91/91/65 93/93/65 94/94/65 92/92/65
f 93/93/66 95/95/66 96/96/66 94/94/66
f 97/97/67 98/98/67 99/99/67 100/100/67
f 98/98/68 101/101/68 102/102/68 99/99/68
f 103/103/69 104/104/69 105/105/69 106/106/69
f 104/104/70 107/107/70 108/108/70 105/105/70
f 107/107/71 109/109/71 110/110/71 108/108/71
f 109/109/72 111/111/72 112/112/72 110/110/72
f 111/111/73 81/81/73 84/84/73 112/112/73
f 101/101/74 103/103/74 106/106/74 102/102/74
f 95/95/75 97/97/75 100/100/75 96/96/75
f 113/113/76 114/114/76 115/115/76 116/116/76
f 116/116/77 115/115/77 117/117/77 118/118/77
f 118/118/78 117/117/78 82/82/78 81/81/78
f 119/119/79 120/120/79 121/121/79 122/122/79
f 122/122/80 121/121/80 123/123/80 124/124/80
f 124/124/81 123/123/81 86/86/81 85/85/81
f 120/120/82 125/125/82 126/126/82 121/121/82
f 121/121/83 126/126/83 127/127/83 123/123/83
f 123/123/84 127/127/84 89/89/84 86/86/84
f 125/125/85 128/128/85 129/129/85 126/126/85
f 126/126/86 129/129/86 130/130/86 127/127/86
f 127/127/87 130/130/87 91/91/87 89/89/87
f 128/128/88 131/131/88 132/132/88 129/129/88
f 129/129/89 132/132/89 133/133/89 130/130/89
f 130/130/90 133/133/90 93/93/90 91/91/90
f 131/131/91 134/134/91 135/135/91 132/132/91
f 132/132/92 135/135/92 136/136/92 133/133/92
f 133/133/93 136/136/93 95/95/93 93/93/93
f 137/137/94 138/138/94 139/139/94 140/140/94
f 140/140/95 139/139/95 141/141/95 142/142/95
f 142/142/96 141/141/96 98/98/96 97/97/96
f 138/138/97 143/143/97 144/144/97 139/139/97
f 139/139/98 144/144/98 145/145/98 141/141/98
f 141/141/99 145/145/99 101/101/99 98/98/99
f 146/146/100 147/147/100 148/148/100 149/149/100
f 149/149/101 148/148/101 150/150/101 151/151/101
f 151/151/102 150/150/102 104/104/102 103/103/102
f 147/147/103 152/152/103 153/153/103 148/148/103
f 148/148/104 153/153/104 154/154/104 150/150/104
f 150/150/105 154/154/105 107/107/105 104/104/105
f 152/152/106 155/155/106 156/156/106 153/153/106
f 153/153/107 156/156/107 157/157/107 154/154/107
f 154/154/108 157/157/108 109/109/108 107/107/108
f 155/155/109 158/158/109 159/159/109 156/156/109
f 156/156/110 159/159/110 160/160/110 157/157/110
f 157/157/111 160/160/111 111/111/111 109/109/111
f 158/158/112 113/113/112 116/116/112 159/159/112
f 159/159/113 116/116/113 118/118/113 160/160/113
f 160/160/114 118/118/114 81/81/114 111/111/114
f 143/143/115 146/146/115 149/149/115 144/144/115
f 144/144/116 149/149/116 151/151/116 145/145/116
f 145/145/117 151/151/117 103/103/117 101/101/117
f 134/134/118 137/137/118 140/140/118 135/135/118
f 135/135/119 140/140/119 142/142/119 136/136/119
f 136/136/120 142/142/120 97/97/120 95/95/120
f 161/161/121 162/162/121 113/163/121 158/164/121
f 163/165/122 164/166/122 99/167/122 102/168/122
f 165/169/123 166/170/123 134/171/123 131/172/123
f 167/173/124 168/174/124 119/175/124 122/176/124
f 169/177/125 170/178/125 84/179/125 83/180/125
f 171/181/126 172/182/126 92/183/126 94/184/126
f 173/185/127 174/186/127 146/187/127 143/188/127
f 175/189/128 176/190/128 110/191/128 112/192/128
f 177/193/129 178/194/129 138/195/129 137/196/129
f 179/197/130 180/198/130 88/199/130 87/200/130
f 181/201/131 182/202/131 82/203/131 117/204/131
f 183/205/132 161/161/132 158/164/132 155/206/132
f 184/207/133 185/208/133 106/209/133 105/210/133
f 174/186/134 186/211/134 147/212/134 146/187/134
f 187/213/135 167/173/135 122/176/135 124/214/135
f 188/215/136 165/169/136 131/172/136 128/216/136
f 189/217/137 190/218/137 115/219/137 114/220/137
f 191/221/138 171/181/138 94/184/138 96/222/138
f 170/178/139 175/189/139 112/192/139 84/179/139
f 192/223/140 191/221/140 96/222/140 100/224/140
f 178/194/141 173/185/141 143/188/141 138/195/141
f 190/218/142 181/201/142 117/204/142 115/219/142
f 168/174/143 193/225/143 120/226/143 119/175/143
f 194/227/144 179/197/144 87/200/144 90/228/144
f 195/229/145 183/205/145 155/206/145 152/230/145
f 196/231/146 184/207/146 105/210/146 108/232/146
f 185/208/147 163/165/147 102/168/147 106/209/147
f 197/233/148 188/215/148 128/216/148 125/234/148
f 198/235/149 187/213/149 124/214/149 85/236/149
f 162/162/150 189/217/150 114/220/150 113/163/150
f 164/166/151 192/223/151 100/224/151 99/167/151
f 166/170/152 177/193/152 137/196/152 134/171/152
f 180/198/153 198/235/153 85/236/153 88/199/153
f 172/182/154 194/227/154 90/228/154 92/183/154
f 176/190/155 196/231/155 108/232/155 110/191/155
f 186/211/156 195/229/156 152/230/156 147/212/156
f 182/202/157 169/177/157 83/180/157 82/203/157
f 193/225/158 197/233/158 125/234/158 120/226/158
f 6/237/159 5/238/159 162/162/159 161/161/159
f 23/239/160 22/240/160 164/166/160 163/165/160
f 13/241/161 12/242/161 166/170/161 165/169/161
f 33/243/162 1/244/162 168/174/162 167/173/162
f 4/245/163 28/246/163 170/178/163 169/177/163
f 20/247/164 19/248/164 172/182/164 171/181/164
f 10/249/165 29/250/165 174/186/165 173/185/165
f 27/251/166 26/252/166 176/190/166 175/189/166
f 31/253/167 11/254/167 178/194/167 177/193/167
f 17/255/168 2/244/168 180/198/168 179/197/168
f 37/256/169 36/257/169 182/202/169 181/201/169
f 7/258/170 6/237/170 161/161/170 183/205/170
f 24/259/171 30/260/171 185/208/171 184/207/171
f 29/250/172 9/261/172 186/211/172 174/186/172
f 34/262/173 33/243/173 167/173/173 187/213/173
f 14/263/174 13/241/174 165/169/174 188/215/174
f 3/245/175 38/257/175 190/218/175 189/217/175
f 21/264/176 20/247/176 171/181/176 191/221/176
f 28/246/177 27/251/177 175/189/177 170/178/177
f 32/265/178 21/264/178 191/221/178 192/223/178
f 11/254/179 10/249/179 173/185/179 178/194/179
f 38/257/180 37/256/180 181/201/180 190/218/180
f 1/244/181 16/255/181 193/225/181 168/174/181
f 18/266/182 17/255/182 179/197/182 194/227/182
f 8/267/183 7/258/183 183/205/183 195/229/183
f 25/268/184 24/259/184 184/207/184 196/231/184
f 30/260/185 23/239/185 163/165/185 185/208/185
f 15/269/186 14/263/186 188/215/186 197/233/186
f 35/243/187 34/262/187 187/213/187 198/235/187
f 5/238/188 3/245/188 189/217/188 162/162/188
f 22/240/189 32/265/189 192/223/189 164/166/189
f 12/242/190 31/253/190 177/193/190 166/170/190
f 2/244/191 35/243/191 198/235/191 180/198/191
f 19/248/192 18/266/192 194/227/192 172/182/192
f 26/252/193 25/268/193 196/231/193 176/190/193
f 9/261/194 8/267/194 195/229/194 186/211/194
f 36/257/195 4/245/195 169/177/195 182/202/195
f 16/255/196 15/269/196 197/233/196 193/225/196
