v -0.208455 0.284872 -0.419615
v -0.350022 0.386431 -0.447609
v -0.259495 0.246349 -0.493859
v -0.321719 0.421857 -0.646389
v -0.082235 0.244136 -0.528201
v -0.048487 0.345123 -0.736470
v 0.133542 0.344498 -0.498273
v 0.116797 0.588073 -0.662902
v 0.173870 0.404459 -0.422391
v 0.195328 0.682233 -0.463433
v 0.157377 0.420212 -0.353259
v 0.080590 0.680246 -0.251740
v 0.124030 0.405774 -0.325016
v -0.036118 0.476007 -0.114190
v 0.066684 0.350599 -0.366897
v -0.146777 0.290032 -0.253689
v -0.343150 0.376159 -0.471028
v -0.307582 0.448888 -0.673363
v -0.093403 0.436810 -0.759216
v 0.076254 0.618599 -0.687889
v 0.078585 0.784947 -0.479765
v -0.059287 0.794879 -0.262675
v -0.254966 0.641549 -0.167300
v -0.358593 0.429093 -0.255835
v -0.405794 0.455110 -0.510920
v -0.301901 0.491351 -0.703565
v -0.139309 0.560343 -0.780507
v -0.022529 0.717881 -0.707201
v -0.022565 0.844672 -0.518584
v -0.136433 0.842323 -0.325599
v -0.311000 0.711241 -0.242003
v -0.421265 0.532574 -0.319021
v -0.490506 0.710493 -0.522834
v -0.450166 0.739024 -0.620745
v -0.419728 0.830535 -0.649322
v -0.376067 0.916684 -0.602045
v -0.313876 0.936929 -0.514610
v -0.332604 0.903777 -0.422990
v -0.401008 0.826927 -0.385224
v -0.469511 0.747793 -0.425754
v -0.551777 0.686356 -0.470045
v -0.571805 0.722025 -0.510423
v -0.586963 0.801396 -0.511538
v -0.579757 0.890832 -0.472143
v -0.553073 0.918617 -0.411685
v -0.528822 0.872209 -0.368270
v -0.519198 0.782372 -0.367713
v -0.529614 0.709271 -0.412083
v -0.663062 0.659308 -0.429368
v -0.688266 0.697713 -0.417774
v -0.694671 0.774932 -0.384216
v -0.669962 0.842408 -0.334459
v -0.618477 0.849474 -0.288720
v -0.584100 0.798739 -0.294570
v -0.586622 0.721091 -0.346668
v -0.621516 0.668829 -0.401210
v -0.657973 0.611695 -0.390675
v -0.689964 0.631984 -0.346746
v -0.681991 0.690322 -0.280271
v -0.644003 0.755127 -0.229467
v -0.594713 0.787737 -0.226897
v -0.562684 0.766885 -0.271710
v -0.567824 0.703532 -0.341282
v -0.607646 0.642722 -0.387656
v -0.616941 0.592614 -0.311981
v -0.632530 0.604459 -0.287381
v -0.625593 0.638023 -0.250735
v -0.602410 0.663669 -0.221508
v -0.575481 0.677533 -0.219129
v -0.560526 0.667154 -0.244071
v -0.566065 0.638064 -0.281595
v -0.589308 0.606472 -0.309566
v -0.647916 0.514676 -0.284709
v -0.680136 0.532495 -0.244217
v -0.665262 0.567102 -0.180143
v -0.612174 0.594086 -0.134895
v -0.558218 0.598429 -0.141222
v -0.527743 0.582193 -0.183799
v -0.547458 0.545407 -0.247191
v -0.596259 0.518580 -0.290984
v -0.601198 0.462697 -0.216933
v -0.612528 0.451619 -0.196028
v -0.609844 0.456156 -0.168926
v -0.591348 0.468360 -0.155028
v -0.569418 0.487665 -0.161184
v -0.564159 0.501947 -0.184212
v -0.573413 0.500167 -0.208908
v -0.587730 0.482463 -0.220953
v -0.573308 0.421488 -0.230577
v -0.601394 0.401134 -0.193638
v -0.604630 0.405894 -0.153463
v -0.577034 0.426122 -0.134607
v -0.538306 0.458041 -0.146308
v -0.512658 0.484104 -0.179816
v -0.514126 0.482456 -0.222564
v -0.539567 0.456081 -0.244964
v -0.530083 0.379473 -0.233250
v -0.556124 0.356323 -0.195751
v -0.553046 0.353096 -0.152975
v -0.530930 0.383850 -0.129375
v -0.494361 0.418392 -0.139459
v -0.468256 0.441354 -0.177022
v -0.467906 0.439466 -0.220052
v -0.493515 0.413834 -0.243342
v -0.485214 0.359000 -0.194127
v -0.494783 0.348008 -0.183001
v -0.488738 0.338126 -0.174638
v -0.489127 0.353027 -0.167926
v -0.478438 0.372972 -0.173882
v -0.466343 0.377544 -0.185004
v -0.464451 0.379122 -0.196136
v -0.472057 0.371301 -0.200101
v -0.449918 0.339055 -0.230663
v -0.460091 0.302996 -0.211649
v -0.459852 0.291271 -0.189856
v -0.452939 0.309907 -0.171240
v -0.436280 0.349526 -0.172022
v -0.423865 0.384176 -0.189879
v -0.422567 0.397087 -0.214484
v -0.433263 0.377889 -0.231487
v -0.397662 0.313449 -0.218741
v -0.403275 0.296860 -0.208443
v -0.402965 0.291779 -0.191246
v -0.396912 0.301181 -0.177224
v -0.388663 0.319560 -0.174592
v -0.383551 0.336130 -0.185182
v -0.348842 0.331566 -0.207111
v -0.389698 0.331236 -0.216502
v -0.242320 0.248539 -0.379921
v -0.209654 0.151537 -0.302522
v -0.286486 0.132914 -0.195721
v -0.298304 0.236021 -0.092842
v -0.314215 0.362743 -0.094349
v -0.255740 0.455740 -0.138872
v -0.217580 0.407463 -0.239007
v -0.234661 0.375096 -0.363115
v -0.022146 0.238717 -0.374787
v -0.059986 0.146348 -0.306328
v -0.144310 0.114180 -0.087671
v -0.256000 0.299892 -0.006066
v -0.237964 0.390319 0.007157
v -0.144111 0.467654 -0.073357
v -0.078726 0.395384 -0.194454
v -0.021584 0.369461 -0.333369
v 0.046744 0.236287 -0.270610
v 0.016308 0.168559 -0.202446
v -0.029566 0.153868 -0.065178
v -0.116336 0.254142 0.018560
v -0.135115 0.351539 0.024872
v -0.080285 0.396201 -0.041345
v -0.019819 0.350038 -0.141242
v 0.028549 0.322142 -0.237696
v 0.022232 0.276584 -0.071545
v -0.090638 0.300104 0.096938
v 0.094187 0.189834 -0.196831
v 0.147714 0.197916 -0.162699
v -0.120397 0.348885 0.105861
v 0.152973 0.217079 -0.243801
v -0.069611 0.341330 0.080219
v 0.169218 0.236781 -0.172978
v 0.187695 0.164542 -0.201098
v 0.216588 0.216760 -0.214909
v 0.162373 0.171594 -0.179351
v 0.198234 0.236405 -0.196491
v 0.136706 0.173805 -0.066315
v 0.192400 0.287015 -0.090909
v 0.261363 0.101372 -0.177803
v 0.300272 0.212147 -0.192021
v 0.172784 0.100200 -0.109174
v 0.275556 0.285938 -0.158297
v 0.202601 0.159563 0.018929
v 0.260321 0.272239 -0.006130
v 0.337358 0.085395 -0.082719
v 0.348547 0.198299 -0.116418
v 0.239127 0.091055 -0.027321
v 0.294443 0.273283 -0.102513
v 0.320691 0.171611 -0.009503
v 0.087389 0.271229 0.013698
v 0.131101 0.249030 -0.068811
v 0.123891 0.289104 -0.071164
v 0.107977 0.257788 -0.035025
v 0.050753 0.291800 -0.101549
v -0.067798 0.320370 0.136703
v -0.123857 0.365775 0.176179
v -0.123990 0.320732 0.170470
v -0.072750 0.359460 0.144390
v -0.098467 0.307211 0.153261
v -0.098262 0.376690 0.162069
v 0.007579 0.272752 0.153774
v -0.123771 0.404989 0.269919
v -0.139645 0.286151 0.259940
v 0.013680 0.391860 0.168408
v -0.064234 0.244160 0.201284
v -0.065954 0.434643 0.233189
v 0.076829 0.257390 0.248129
v -0.058198 0.390756 0.368211
v -0.070001 0.267848 0.349900
v 0.083277 0.376431 0.263470
v 0.010640 0.206686 0.305303
v 0.004862 0.423753 0.328088
v 0.041238 0.311270 0.357499
v 0.066745 0.326997 -0.149487
v 0.077312 0.280570 -0.145000
v 0.025612 0.308096 -0.047397
v 0.002686 0.367602 -0.030526
v -0.006270 0.330171 -0.005736
v 0.068882 0.321040 0.026207
v 0.058746 0.287917 0.044982
v 0.192183 0.166113 0.129097
v 0.206667 0.151532 0.054595
v 0.219113 0.178489 0.066270
v 0.197396 0.154523 0.068940
v 0.178975 0.200635 0.137548
v 0.168647 0.176647 0.142104
v 0.287811 0.181743 0.195179
v 0.317111 0.167217 0.134742
v 0.305386 0.192371 0.129028
v 0.309628 0.170567 0.150271
v 0.266907 0.213090 0.199338
v 0.270475 0.189396 0.207336
v -0.243777 0.128635 -0.222329
v -0.286108 0.195812 -0.129263
v -0.071077 0.092648 -0.213075
v -0.192673 0.118234 -0.068369
v -0.269947 0.224809 -0.051122
v -0.232919 0.106103 -0.150071
v -0.139520 0.117975 -0.274793
v -0.223328 0.139025 -0.098585
v -0.185097 0.102840 -0.200331
v -0.180862 -0.036006 -0.028016
v -0.152555 -0.059998 -0.183816
v -0.238548 0.144422 -0.001510
v -0.359674 0.092363 -0.086678
v -0.262499 0.169355 -0.147041
v -0.154690 0.067880 -0.143353
v -0.295936 -0.081413 -0.191479
v -0.222802 0.040290 -0.241006
v 0.163388 0.453438 -0.256646
v 0.126053 0.617612 -0.211713
v 0.137256 0.433364 -0.214443
v 0.087521 0.568764 -0.124909
v 0.165518 0.562451 -0.278763
v 0.095322 0.476202 -0.126420
v 0.163208 0.369191 -0.250510
v 0.020414 0.312302 -0.135440
v 0.158191 0.325756 -0.296486
v -0.011916 0.236191 -0.235174
v 0.100707 0.369850 -0.155331
v 0.060560 0.251733 -0.303224
v 0.250320 0.445665 -0.268286
v 0.198145 0.657047 -0.193797
v 0.210340 0.407449 -0.205845
v 0.144534 0.610479 -0.076792
v 0.248004 0.596637 -0.284630
v 0.149162 0.471116 -0.076621
v 0.234248 0.330244 -0.243569
v 0.029553 0.245454 -0.076098
v 0.217675 0.269662 -0.299784
v 0.009167 0.145885 -0.215085
v 0.145601 0.332461 -0.104715
v 0.098831 0.163872 -0.301788
v 0.308454 0.428271 -0.215303
v 0.260801 0.642675 -0.135789
v 0.268473 0.390056 -0.152862
v 0.208668 0.586754 -0.040659
v 0.307936 0.579246 -0.241122
v 0.214073 0.460432 -0.033166
v 0.262438 0.300617 -0.195214
v 0.083801 0.219172 -0.046947
v 0.266349 0.244268 -0.239088
v 0.067091 0.110460 -0.161937
v 0.200431 0.286483 -0.070949
v 0.154472 0.138117 -0.261383
v 0.309877 0.443270 -0.152534
v 0.287806 0.546463 -0.125348
v 0.292787 0.426935 -0.125844
v 0.265571 0.513037 -0.070982
v 0.308278 0.501780 -0.153307
v 0.268824 0.449752 -0.068591
v 0.260685 0.223630 -0.143832
v 0.156405 0.187473 -0.077031
v 0.257323 0.196168 -0.172647
v 0.155713 0.138419 -0.135207
v 0.226393 0.225398 -0.083055
v 0.206886 0.158102 -0.165029
v 0.357732 0.490634 -0.106771
v 0.313865 0.551561 -0.089859
v 0.351450 0.450532 -0.092535
v 0.294002 0.533043 -0.043480
v 0.342421 0.530730 -0.106814
v 0.290445 0.459325 -0.049222
v 0.279350 0.182200 -0.100792
v 0.178872 0.157426 -0.038898
v 0.260010 0.145029 -0.144187
v 0.168983 0.121416 -0.091369
v 0.247068 0.220874 -0.049842
v 0.250997 0.135119 -0.119214
v 0.439962 0.393576 -0.047278
v 0.356071 0.548348 -0.047413
v 0.338815 0.522863 -0.003866
v 0.425042 0.513583 -0.035522
v 0.389126 0.459808 0.013919
v 0.370746 0.216512 -0.083611
v 0.207156 0.136757 -0.017619
v 0.200016 0.108349 -0.053602
v 0.294116 0.155730 -0.010044
v 0.282472 0.131079 -0.071689
v -0.251630 0.247969 -0.422543
v -0.330698 0.340307 -0.456353
v -0.267552 0.222114 -0.476174
v -0.326699 0.336583 -0.530065
v 0.175824 0.377010 -0.502082
v 0.170049 0.503432 -0.551527
v 0.189806 0.407825 -0.449504
v 0.190832 0.525326 -0.501559
v -0.281756 0.295611 -0.420050
v -0.287135 0.276513 -0.525169
v 0.163012 0.429903 -0.550409
v 0.199750 0.477429 -0.452715
v -0.305766 0.184826 -0.387775
v -0.445231 0.379782 -0.451767
v -0.271240 0.152252 -0.496059
v -0.376670 0.350541 -0.580225
v 0.214748 0.278369 -0.516120
v 0.213558 0.524068 -0.599135
v 0.241870 0.336249 -0.405903
v 0.245368 0.575929 -0.515364
v -0.374232 0.284801 -0.381720
v -0.307403 0.252707 -0.586531
v 0.189417 0.385619 -0.613643
v 0.263024 0.476160 -0.413528
v -0.370968 0.129670 -0.422188
v -0.499144 0.301259 -0.472607
v -0.331349 0.094855 -0.522786
v -0.432942 0.284541 -0.616597
v 0.292132 0.264566 -0.539686
v 0.285213 0.499854 -0.634305
v 0.310375 0.316029 -0.430922
v 0.327684 0.542770 -0.532716
v -0.450051 0.207958 -0.399564
v -0.359883 0.173615 -0.607555
v 0.273467 0.348882 -0.643519
v 0.345340 0.443002 -0.430879
v -0.391813 0.144845 -0.472674
v -0.503408 0.198399 -0.489471
v -0.390305 0.136278 -0.528579
v -0.481089 0.206900 -0.566266
v 0.331374 0.303260 -0.551718
v 0.376401 0.408922 -0.587270
v 0.346171 0.320183 -0.500558
v 0.395200 0.417250 -0.539692
v -0.453927 0.169509 -0.459359
v -0.421588 0.175953 -0.570271
v 0.345256 0.352110 -0.591548
v 0.379317 0.372698 -0.498071
v 0.392118 0.318782 -0.589685
v 0.414033 0.405432 -0.608273
v 0.402358 0.348125 -0.525203
v 0.438770 0.416390 -0.545664
v 0.396486 0.356503 -0.613549
v 0.419093 0.385318 -0.522719
v 0.477320 0.208895 -0.565042
v 0.449653 0.384250 -0.602300
v -0.459325 0.131711 -0.489885
v 0.460543 0.388454 -0.575146
v 0.452710 0.301353 -0.607524
v 0.472320 0.311871 -0.529422
v -0.533769 0.178294 -0.503948
v -0.449835 0.095055 -0.555819
v -0.515559 0.182643 -0.566042
v -0.498991 0.149151 -0.472213
v -0.471301 0.157563 -0.588498
v -0.437372 -0.030864 -0.552096
v -0.553491 0.131177 -0.526437
v -0.541493 0.133274 -0.567288
v -0.503464 0.053643 -0.507358
v -0.484112 0.055204 -0.568222
v 0.065924 0.232325 -0.291792
v -0.158656 0.359898 0.039667
vt 0.639038 0.667232
vt 0.569494 0.686580
vt 0.595985 0.633488
vt 0.243676 0.116714
vt 0.295031 0.196246
vt 0.213922 0.172681
vt 0.132813 0.196246
vt 0.184167 0.116714
vt 0.732454 0.126028
vt 0.742444 0.126644
vt 0.737801 0.140414
vt 0.724659 0.188247
vt 0.652169 0.194542
vt 0.703271 0.123392
vt 0.668630 0.149577
vt 0.292391 0.216490
vt 0.213922 0.210475
vt 0.661122 0.600269
vt 0.713884 0.673732
vt 0.191799 0.599053
vt 0.222426 0.597912
vt 0.194950 0.590054
vt 0.265739 0.601808
vt 0.253053 0.599053
vt 0.612480 0.261448
vt 0.643935 0.255524
vt 0.656404 0.288865
vt 0.643978 0.721930
vt 0.792014 0.206985
vt 0.795815 0.226921
vt 0.719875 0.241223
vt 0.755197 0.656741
vt 0.754864 0.742813
vt 0.722387 0.736696
vt 0.738596 0.775730
vt 0.706414 0.836129
vt 0.693198 0.839216
vt 0.283840 0.257507
vt 0.213922 0.252975
vt 0.724409 0.278090
vt 0.709512 0.771121
vt 0.639296 0.759995
vt 0.569081 0.748869
vt 0.792414 0.267314
vt 0.135452 0.216490
vt 0.706113 0.897887
vt 0.686785 0.904433
vt 0.144004 0.257507
vt 0.213922 0.364057
vt 0.628235 0.293329
vt 0.672205 0.354816
vt 0.250816 0.361021
vt 0.703109 0.362034
vt 0.661289 0.846668
vt 0.629381 0.854121
vt 0.734012 0.369252
vt 0.244316 0.416941
vt 0.244316 0.455131
vt 0.213922 0.459882
vt 0.667458 0.910979
vt 0.697134 0.424320
vt 0.714118 0.895175
vt 0.177028 0.361021
vt 0.213922 0.419608
vt 0.659404 0.351826
vt 0.659696 0.411640
vt 0.678415 0.417980
vt 0.183528 0.455131
vt 0.213922 0.466072
vt 0.654043 0.450631
vt 0.722939 0.926480
vt 0.711950 0.938145
vt 0.700962 0.949810
vt 0.664685 0.461929
vt 0.727490 0.921649
vt 0.183528 0.416941
vt 0.643400 0.439334
vt 0.638992 0.434654
vt 0.742836 0.960935
vt 0.741602 0.954413
vt 0.767629 0.942661
vt 0.222425 0.924397
vt 0.253711 0.929288
vt 0.253711 0.925685
vt 0.244316 0.459658
vt 0.628209 0.451137
vt 0.735645 0.922921
vt 0.738624 0.938667
vt 0.625324 0.466387
vt 0.734411 0.916399
vt 0.600117 0.455005
vt 0.599489 0.458327
vt 0.560971 0.463246
vt 0.631094 0.435887
vt 0.601634 0.446984
vt 0.764495 0.926099
vt 0.766062 0.934380
vt 0.763847 0.922669
vt 0.624129 0.472704
vt 0.632289 0.429570
vt 0.603152 0.438964
vt 0.247499 0.947751
vt 0.230819 0.911234
vt 0.234293 0.911363
vt 0.577540 0.426830
vt 0.580383 0.420582
vt 0.805112 0.944718
vt 0.808046 0.951170
vt 0.570677 0.441914
vt 0.790939 0.913570
vt 0.798025 0.929144
vt 0.563814 0.456998
vt 0.788004 0.907119
vt 0.529014 0.420025
vt 0.536333 0.419918
vt 0.536037 0.405531
vt 0.222431 0.909688
vt 0.222431 0.911545
vt 0.214044 0.911492
vt 0.222431 0.954282
vt 0.222431 0.913122
vt 0.247499 0.916219
vt 0.230819 0.911492
vt 0.197364 0.947751
vt 0.214044 0.911234
vt 0.255842 0.931985
vt 0.189312 0.931985
vt 0.197364 0.916219
vt 0.210570 0.911363
vt 0.222392 0.895299
vt 0.235677 0.894950
vt 0.235677 0.874126
vt 0.528603 0.421276
vt 0.521484 0.407511
vt 0.535611 0.406811
vt 0.543211 0.421062
vt 0.535907 0.421169
vt 0.543651 0.419810
vt 0.550192 0.406125
vt 0.877696 0.669450
vt 0.877659 0.654169
vt 0.865164 0.653841
vt 0.877696 0.670933
vt 0.877659 0.655218
vt 0.888585 0.653720
vt 0.869806 0.669157
vt 0.866060 0.653720
vt 0.865164 0.634254
vt 0.877659 0.634582
vt 0.877659 0.618379
vt 0.865164 0.632672
vt 0.877659 0.630884
vt 0.521881 0.406232
vt 0.533729 0.388167
vt 0.519181 0.390181
vt 0.533308 0.389481
vt 0.547436 0.388782
vt 0.547885 0.387466
vt 0.527896 0.376025
vt 0.519727 0.363947
vt 0.531910 0.363343
vt 0.877659 0.615331
vt 0.880499 0.617648
vt 0.890154 0.634254
vt 0.880499 0.618253
vt 0.874819 0.617648
vt 0.519574 0.388868
vt 0.533013 0.375806
vt 0.533308 0.375757
vt 0.538720 0.375488
vt 0.539152 0.374147
vt 0.873998 0.602470
vt 0.867323 0.602734
vt 0.872200 0.585784
vt 0.873642 0.617951
vt 0.863752 0.603920
vt 0.544534 0.361373
vt 0.532328 0.361977
vt 0.873853 0.604885
vt 0.866710 0.604602
vt 0.880995 0.603238
vt 0.880995 0.604602
vt 0.528306 0.374684
vt 0.877478 0.585787
vt 0.898503 0.539310
vt 0.882756 0.585784
vt 0.535264 0.345894
vt 0.529678 0.345888
vt 0.529265 0.347286
vt 0.544055 0.362293
vt 0.534840 0.347291
vt 0.540851 0.345899
vt 0.877478 0.572002
vt 0.565849 0.298483
vt 0.552622 0.268791
vt 0.532167 0.307657
vt 0.919529 0.542616
vt 0.835426 0.532297
vt 0.861315 0.533115
vt 0.872283 0.542989
vt 0.497574 0.309103
vt 0.531749 0.309130
vt 0.540416 0.347297
vt 0.877478 0.533538
vt 0.835426 0.542616
vt 0.493801 0.259313
vt 0.527669 0.262903
vt 0.530936 0.234983
vt 0.877478 0.488098
vt 0.827905 0.488113
vt 0.858007 0.512645
vt 0.832727 0.510142
vt 0.841095 0.495950
vt 0.927051 0.488113
vt 0.924620 0.512550
vt 0.894883 0.507510
vt 0.923692 0.493793
vt 0.498484 0.307630
vt 0.492900 0.260881
vt 0.526209 0.264464
vt 0.558593 0.264357
vt 0.565364 0.299974
vt 0.509458 0.237701
vt 0.530521 0.236600
vt 0.546173 0.210174
vt 0.534472 0.211723
vt 0.531070 0.236093
vt 0.877478 0.461902
vt 0.841814 0.461913
vt 0.882913 0.482386
vt 0.877478 0.447126
vt 0.916593 0.456007
vt 0.913142 0.461913
vt 0.838446 0.481065
vt 0.838362 0.456007
vt 0.822160 0.460668
vt 0.805873 0.429698
vt 0.812819 0.459554
vt 0.555502 0.230851
vt 0.532505 0.210339
vt 0.827352 0.434257
vt 0.942469 0.434430
vt 0.955953 0.414902
vt 0.947518 0.414430
vt 0.877478 0.435024
vt 0.509832 0.236087
vt 0.524129 0.209803
vt 0.852022 0.431379
vt 0.932796 0.460668
vt 0.530762 0.194876
vt 0.541148 0.196616
vt 0.815702 0.413679
vt 0.824675 0.413745
vt 0.795775 0.404196
vt 0.807420 0.406117
vt 0.825393 0.383109
vt 0.936292 0.415427
vt 0.952106 0.492162
vt 0.942885 0.461920
vt 0.777572 0.384357
vt 0.782949 0.345534
vt 0.816973 0.357269
vt 0.834989 0.390689
vt 0.812218 0.390892
vt 0.786225 0.403653
vt 0.792021 0.377602
vt 0.791904 0.407389
vt 0.773769 0.378571
vt 0.533691 0.182581
vt 0.522756 0.184315
vt 0.523696 0.210049
vt 0.533322 0.183087
vt 0.521681 0.185988
vt 0.780510 0.350620
vt 0.840283 0.356421
vt 0.830117 0.348451
vt 0.800330 0.360992
vt 0.981402 0.338008
vt 0.972092 0.346949
vt 0.946506 0.325876
vt 0.938436 0.347021
vt 0.915518 0.351209
vt 0.970640 0.344962
vt 0.940207 0.345027
vt 0.947504 0.325907
vt 0.928522 0.342325
vt 0.960257 0.337103
vt 0.925514 0.344033
vt 0.960609 0.338257
vt 0.967231 0.402467
vt 0.984943 0.375834
vt 0.965841 0.376056
vt 0.943685 0.397376
vt 0.948762 0.395631
vt 0.933253 0.376300
vt 0.820377 0.410917
vt 0.946531 0.381722
vt 0.964988 0.371282
vt 0.958745 0.394745
vt 0.962272 0.397253
vt 0.952617 0.397967
vt 0.942283 0.404913
vt 0.920761 0.388530
vt 0.945430 0.387602
vt 0.962838 0.404777
vt 0.978360 0.383069
vt 0.885982 0.430393
vt 0.886362 0.400009
vt 0.901267 0.401557
vt 0.885762 0.347456
vt 0.894493 0.351286
vt 0.930745 0.381606
vt 0.562847 0.142872
vt 0.554739 0.138564
vt 0.510340 0.214315
vt 0.522915 0.210686
vt 0.868042 0.430659
vt 0.857304 0.400751
vt 0.903401 0.432264
vt 0.899606 0.435479
vt 0.524913 0.208145
vt 0.511509 0.212653
vt 0.809684 0.334185
vt 0.868552 0.349863
vt 0.871218 0.354732
vt 0.872052 0.309174
vt 0.886596 0.309430
vt 0.893677 0.311744
vt 0.534452 0.181209
vt 0.555674 0.136784
vt 0.871012 0.400185
vt 0.865522 0.355126
vt 0.563290 0.138015
vt 0.532620 0.183587
vt 0.894716 0.314680
vt 0.866356 0.310274
vt 0.869387 0.314818
vt 0.893882 0.349897
vt 0.557096 0.102961
vt 0.549355 0.107557
vt 0.556040 0.103538
vt 0.811646 0.408898
vt 0.802822 0.408833
vt 0.808535 0.408963
vt 0.798824 0.408411
vt 0.545697 0.196493
vt 0.929198 0.432682
vt 0.940627 0.418054
vt 0.951485 0.417251
vt 0.547307 0.197205
vt 0.529477 0.235614
vt 0.532745 0.209199
vt 0.531479 0.190365
vt 0.548189 0.193726
vt 0.816818 0.492041
vt 0.804599 0.412210
vt 0.919529 0.532297
vt 0.910573 0.549586
vt 0.888295 0.531951
vt 0.878722 0.518710
vt 0.865633 0.493903
vt 0.855461 0.538441
vt 0.844602 0.527541
vt 0.888150 0.478532
vt 0.896176 0.492965
vt 0.941791 0.498803
vt 0.139479 0.638965
vt 0.107561 0.633032
vt 0.150019 0.623116
vt 0.691183 0.122300
vt 0.666808 0.126308
vt 0.612158 0.178086
vt 0.616572 0.160658
vt 0.222425 0.656222
vt 0.248561 0.601419
vt 0.248152 0.616743
vt 0.170725 0.630747
vt 0.185512 0.589344
vt 0.293048 0.626423
vt 0.320536 0.612057
vt 0.280193 0.577769
vt 0.718785 0.639695
vt 0.750252 0.631576
vt 0.692810 0.618517
vt 0.194876 0.607766
vt 0.178300 0.590818
vt 0.185621 0.563314
vt 0.327016 0.639233
vt 0.338697 0.618290
vt 0.331784 0.591272
vt 0.161152 0.564437
vt 0.155999 0.542196
vt 0.109782 0.581446
vt 0.258882 0.599287
vt 0.259484 0.576766
vt 0.266406 0.554526
vt 0.098948 0.612954
vt 0.262653 0.602101
vt 0.146851 0.617526
vt 0.119260 0.601896
vt 0.297752 0.644808
vt 0.273433 0.638005
vt 0.296037 0.630533
vt 0.176898 0.567775
vt 0.144866 0.600875
vt 0.138186 0.570392
vt 0.311907 0.581799
vt 0.142945 0.545310
vt 0.127292 0.560129
vt 0.281006 0.554543
vt 0.280340 0.562785
vt 0.270130 0.577830
vt 0.302959 0.608292
vt 0.179140 0.546825
vt 0.287115 0.555528
vt 0.296631 0.577525
vt 0.307614 0.572751
vt 0.322261 0.576942
vt 0.153404 0.544831
vt 0.154515 0.530596
vt 0.289858 0.554972
vt 0.294966 0.542064
vt 0.282465 0.541459
vt 0.153881 0.554726
vt 0.154449 0.546308
vt 0.118559 0.575555
vt 0.305197 0.568144
vt 0.129191 0.565625
vt 0.114742 0.568606
vt 0.107515 0.558457
vt 0.313846 0.561102
vt 0.325613 0.564394
vt 0.302800 0.497091
vt 0.139745 0.531273
vt 0.319333 0.562744
vt 0.282102 0.555053
vt 0.111848 0.554965
vt 0.322803 0.544818
vt 0.124290 0.554044
vt 0.118706 0.540286
vt 0.299159 0.538287
vt 0.142950 0.529581
vt 0.144803 0.499799
vt 0.303305 0.635725
vt 0.292136 0.616845
vt 0.307224 0.598443
vt 0.149131 0.625384
vt 0.162016 0.632681
vt 0.143919 0.638490
vt 0.748985 0.158477
vt 0.191799 0.604563
vt 0.179112 0.601808
vt 0.182197 0.592427
vt 0.253053 0.604563
vt 0.264452 0.604284
vt 0.272888 0.602452
vt 0.600859 0.605712
vt 0.592765 0.616479
vt 0.761636 0.128663
vt 0.771850 0.147953
vt 0.630991 0.602991
vt 0.630777 0.608062
vt 0.268395 0.569408
vt 0.275465 0.624725
vt 0.294558 0.640679
vt 0.312109 0.640101
vt 0.251376 0.573104
vt 0.264966 0.547612
vt 0.281985 0.543916
vt 0.273593 0.614339
vt 0.325700 0.621031
vt 0.287183 0.588847
vt 0.194977 0.573153
vt 0.183131 0.545505
vt 0.163130 0.584550
vt 0.117832 0.630518
vt 0.141688 0.596465
vt 0.190907 0.594318
vt 0.174975 0.612198
vt 0.162050 0.606943
vt 0.178892 0.569661
vt 0.180076 0.615463
vt 0.329754 0.636529
vt 0.320814 0.572952
vt 0.314947 0.555006
vt 0.330915 0.566038
vt 0.288051 0.555170
vt 0.294150 0.550573
vt 0.325722 0.573259
vt 0.304472 0.567513
vt 0.343344 0.611038
vt 0.167047 0.542013
vt 0.129780 0.616346
vt 0.105987 0.602870
vt 0.129843 0.568817
vt 0.112379 0.570579
vt 0.102345 0.559651
vt 0.126849 0.548385
vt 0.320953 0.541672
vt 0.119315 0.582509
vt 0.141942 0.577144
vt 0.140344 0.568089
vt 0.341965 0.556188
vt 0.335132 0.565690
vt 0.154479 0.559606
vt 0.131443 0.561814
vt 0.160598 0.565223
vt 0.329572 0.518879
vt 0.345666 0.546801
vt 0.285560 0.541887
vt 0.293586 0.535837
vt 0.307168 0.558130
vt 0.315787 0.535337
vt 0.337768 0.553455
vt 0.156458 0.545547
vt 0.303131 0.499768
vt 0.111261 0.574985
vt 0.164323 0.552766
vt 0.119729 0.522043
vt 0.099064 0.545592
vt 0.105735 0.557065
vt 0.133224 0.541748
vt 0.141711 0.503045
vt 0.621897 0.626279
vt 0.213922 0.117822
vt 0.643164 0.167166
vt 0.222426 0.605704
vt 0.565570 0.707163
vt 0.651943 0.409014
vt 0.183528 0.459658
vt 0.768277 0.946091
vt 0.222425 0.919082
vt 0.603780 0.435642
vt 0.222392 0.874474
vt 0.549739 0.407404
vt 0.869806 0.669399
vt 0.885585 0.669157
vt 0.874819 0.618254
vt 0.890154 0.632672
vt 0.520122 0.362582
vt 0.570710 0.280977
vt 0.573340 0.280372
vt 0.802706 0.492161
vt 0.924689 0.432869
vt 0.958937 0.402003
vt 0.924224 0.382561
vt 0.976308 0.377624
vt 0.952160 0.405567
vt 0.857107 0.435481
vt 0.563821 0.134620
vt 0.562358 0.143221
vt 0.550265 0.105564
vt 0.533263 0.194411
vt 0.545379 0.213233
vt 0.653501 0.125655
vt 0.690409 0.592134
vt 0.766021 0.163216
vt 0.604257 0.595592
vt 0.761852 0.128396
vt 0.624945 0.593724
vn -0.381500 0.757000 0.530600
vn -0.877800 -0.137800 -0.458700
vn -0.512400 0.478400 -0.713200
vn 0.286400 -0.848400 -0.445100
vn 0.207800 -0.573700 -0.792200
vn 0.743800 0.111300 -0.659100
vn 0.545700 -0.826700 -0.136600
vn 0.787200 -0.493600 0.369600
vn 0.048400 -0.454500 0.889400
vn 0.232500 0.305100 0.923500
vn 0.901100 0.433400 -0.012000
vn 0.550700 0.626000 0.552000
vn 0.857400 -0.454800 0.240900
vn 0.222200 0.395100 -0.891300
vn -0.748400 -0.294100 -0.594400
vn 0.010000 -0.216900 -0.976100
vn 0.386400 -0.882400 -0.268300
vn -0.398900 -0.883500 0.245300
vn 0.783400 -0.618900 0.056000
vn 0.552600 0.825100 -0.117300
vn -0.319200 0.237900 0.917300
vn 0.252600 0.715200 0.651700
vn 0.102700 0.864800 0.491500
vn 0.397200 -0.915000 0.069900
vn 0.588100 0.279100 -0.759100
vn 0.618500 0.782100 -0.076000
vn -0.117700 -0.013000 0.993000
vn -0.646900 -0.472100 0.598800
vn -0.480300 0.449500 0.753100
vn -0.168100 0.305500 0.937200
vn -0.214500 -0.645300 0.733200
vn -0.517000 -0.351500 -0.780400
vn -0.036900 0.034200 -0.998700
vn 0.430700 0.884100 -0.181400
vn -0.892600 -0.156900 0.422700
vn -0.829200 -0.510600 -0.227400
vn 0.367500 0.529400 -0.764600
vn 0.499000 -0.773000 0.391600
vn 0.135200 -0.969000 -0.206600
vn -0.416200 0.341700 -0.842600
vn 0.020400 0.823300 0.567200
vn -0.674300 -0.201800 -0.710300
vn 0.127300 0.991200 -0.035000
vn -0.566800 -0.788000 -0.240400
vn -0.133200 0.815900 -0.562700
vn -0.514800 -0.499300 -0.696800
vn -0.851300 -0.071600 -0.519800
vn -0.950400 0.207300 -0.231700
vn -0.566900 0.679300 -0.466000
vn 0.330400 -0.227000 0.916100
vn -0.696600 0.132100 -0.705200
vn 0.335300 0.449300 0.828100
vn -0.194400 0.964100 0.180900
vn -0.777700 0.603300 0.176900
vn -0.881500 -0.131200 0.453600
vn -0.033800 0.750400 0.660100
vn 0.602500 -0.637300 -0.480400
vn -0.307500 -0.512300 -0.801800
vn 0.995400 -0.068100 -0.067300
vn 0.913600 0.290700 0.284200
vn -0.879800 -0.472200 0.054300
vn -0.975200 -0.217900 -0.037400
vn 0.940900 0.332200 0.066300
vn 0.317100 0.506000 0.802100
vn 0.640300 -0.366400 -0.675100
vn -0.205400 -0.815900 -0.540400
vn -0.565800 0.185400 0.803400
vn 0.853800 0.132200 -0.503600
vn -0.533000 0.320400 0.783100
vn -0.917100 0.060400 0.394100
vn -0.886900 0.139100 0.440400
vn 0.444900 0.404900 0.798800
vn 0.693700 -0.368100 -0.619000
vn -0.192300 -0.667900 -0.719000
vn 0.946400 -0.080200 -0.312800
vn 0.980100 0.181600 0.080000
vn -0.319400 0.318900 0.892300
vn -0.313200 0.091400 0.945200
vn 0.447600 0.288900 0.846200
vn 0.975900 0.011700 0.217700
vn 0.878700 -0.292800 -0.377000
vn -0.975600 -0.165600 -0.144000
vn 0.482600 0.295000 0.824600
vn 0.331700 -0.569200 -0.752300
vn -0.504600 -0.524700 -0.685600
vn 0.931700 0.312900 0.184400
vn 0.168800 0.483900 0.858700
vn 0.831500 0.029100 -0.554700
vn 0.259600 -0.252200 -0.932200
vn -0.847900 -0.132800 0.513200
vn -0.887000 -0.401000 -0.229000
vn -0.396700 -0.447700 -0.801300
vn 0.409800 0.766200 -0.494900
vn 0.464800 0.818400 0.337800
vn 0.852200 0.391700 0.346900
vn -0.046600 0.249500 -0.967300
vn -0.496700 -0.239000 -0.834400
vn -0.297500 0.084500 0.951000
vn -0.807700 -0.327700 0.490100
vn -0.813100 -0.468000 -0.346000
vn 0.380000 -0.130800 -0.915600
vn 0.830000 0.332200 -0.448000
vn 0.480800 0.774000 -0.412000
vn -0.418800 -0.833600 -0.360200
vn -0.341600 -0.818600 0.461700
vn 0.525300 0.112600 0.843400
vn -0.104300 -0.562000 -0.820500
vn 0.082200 -0.282600 0.955700
vn -0.091300 -0.042500 -0.994900
vn -0.063700 0.418700 -0.905900
vn -0.326000 -0.104600 -0.939500
vn -0.583600 -0.691500 0.425600
vn 0.224000 -0.220100 0.949400
vn 0.571500 0.491300 0.657300
vn -0.422600 -0.720100 -0.550400
vn 0.537800 0.086900 0.838600
vn -0.272100 -0.428300 -0.861700
vn -0.437500 -0.887600 0.143700
vn -0.487000 -0.588800 -0.645100
vn -0.441200 -0.671300 -0.595500
vn -0.127400 -0.410900 0.902700
vn 0.155700 0.229900 0.960700
vn 0.230800 0.942000 -0.243800
vn 0.275600 0.712000 0.645800
vn -0.472900 -0.844600 0.251000
vn -0.836300 -0.542700 -0.077800
vn -0.445300 -0.360200 0.819700
vn -0.439600 0.304200 0.845100
vn -0.044200 0.792200 0.608700
vn -0.035600 0.338500 -0.940300
vn -0.347400 -0.097400 -0.932600
vn -0.180300 0.942600 -0.281000
vn -0.891200 -0.075100 0.447300
vn -0.633500 -0.142300 0.760500
vn -0.791300 0.325700 0.517300
vn -0.397700 0.913700 -0.084000
vn -0.360100 -0.596500 -0.717200
vn -0.578800 -0.549900 -0.602100
vn -0.879200 -0.475500 -0.028800
vn -0.301800 0.634700 -0.711300
vn -0.399600 -0.268400 -0.876500
vn -0.169300 0.927900 -0.332200
vn 0.245400 0.943500 0.222600
vn -0.450500 0.470500 0.758700
vn 0.555100 0.721200 0.414400
vn 0.427400 0.897700 -0.106900
vn 0.510300 0.678500 -0.528400
vn -0.047800 -0.995500 0.081100
vn -0.095300 -0.608800 -0.787500
vn -0.176700 -0.940200 0.291000
vn -0.814800 -0.142800 0.561800
vn -0.765300 -0.582800 0.273100
vn -0.147400 -0.559700 0.815400
vn 0.427900 -0.178400 -0.886000
vn 0.305600 -0.701600 -0.643600
vn 0.786800 0.603400 -0.129700
vn 0.678200 0.734600 -0.018900
vn 0.214900 -0.972200 -0.093400
vn -0.829300 0.545200 -0.122600
vn -0.114400 0.803100 0.584700
vn 0.689600 0.715100 0.114400
vn 0.380600 -0.727100 0.571400
vn 0.541100 -0.618800 0.569400
vn 0.263800 -0.447800 0.854300
vn 0.537000 0.752500 0.381200
vn 0.674200 -0.730300 0.110000
vn 0.723200 -0.661200 0.199600
vn -0.038500 0.310000 -0.949900
vn 0.695000 0.333400 -0.637000
vn 0.796300 0.309000 -0.520000
vn -0.596000 -0.557300 0.578100
vn -0.863800 0.456700 -0.212400
vn -0.252400 0.838300 -0.483100
vn 0.867900 0.013800 0.496500
vn -0.174300 -0.155700 0.972300
vn 0.804100 -0.537600 -0.253600
vn 0.278900 0.660100 -0.697500
vn 0.568300 -0.471000 -0.674600
vn -0.628300 -0.771600 -0.098900
vn -0.962000 0.155300 0.224400
vn -0.100600 0.849700 -0.517600
vn -0.646800 0.740700 -0.181200
vn -0.502400 0.855100 0.127900
vn 0.180400 -0.718000 -0.672300
vn 0.683000 -0.729400 0.037600
vn -0.109800 -0.843200 0.526200
vn -0.949200 -0.043200 0.311500
vn -0.603400 -0.794200 -0.071300
vn 0.259500 0.179600 -0.948900
vn 0.359000 0.843800 -0.398800
vn -0.133100 -0.627600 -0.767100
vn 0.619500 0.124600 -0.775000
vn -0.712200 -0.219700 0.666700
vn 0.462400 0.843000 0.274900
vn -0.068200 0.498600 0.864100
vn -0.779200 -0.010600 0.626600
vn 0.583500 0.809000 0.070900
vn 0.965200 0.192200 -0.177100
vn -0.401400 -0.163200 0.901200
vn 0.141000 0.713800 0.686000
vn 0.618500 0.782700 0.069500
vn -0.323200 0.424100 0.845900
vn -0.467900 -0.498300 0.729800
vn 0.566800 -0.106000 0.817000
vn 0.179600 -0.940200 0.289300
vn 0.842700 -0.506400 -0.182600
vn 0.899100 0.436300 -0.035500
vn 0.327600 0.834600 0.442900
vn -0.788000 0.576400 0.216400
vn -0.146500 0.972200 -0.182700
vn 0.467800 0.573700 -0.672300
vn -0.300500 -0.881400 -0.364300
vn -0.902600 -0.365800 -0.226600
vn -0.325500 -0.895600 -0.303300
vn 0.380600 -0.491200 -0.783500
vn -0.888200 -0.432100 0.156100
vn 0.864500 -0.177600 -0.470100
vn 0.374000 -0.540100 -0.753900
vn 0.319000 -0.786500 -0.528800
vn -0.675400 -0.517000 0.525900
vn -0.650300 -0.503800 0.568500
vn 0.351900 0.936000 -0.005500
vn 0.249500 0.966200 -0.065000
vn 0.365900 -0.674100 -0.641700
vn 0.395900 0.911600 -0.110400
vn 0.691100 -0.014500 0.722600
vn 0.226500 -0.161300 0.960500
vn 0.910600 -0.413300 -0.006000
vn 0.037900 -0.254700 0.966200
vn 0.247700 0.902800 0.351600
vn 0.178100 -0.847700 -0.499600
vn 0.183000 0.945000 0.271000
vn 0.879700 -0.466200 -0.093100
vn 0.313100 0.948600 -0.046400
vn -0.683800 -0.727000 0.061500
vn -0.614300 -0.629000 0.476400
vn -0.550500 -0.605500 0.574700
vn -0.008800 -0.978000 0.208200
vn -0.290300 -0.956800 -0.011300
vn -0.305200 -0.952200 0.007700
vn 0.072000 -0.899500 0.431000
vn -0.165600 -0.309500 0.936300
vn -0.745200 -0.655500 -0.122400
vn -0.761400 -0.623200 -0.178300
vn -0.691700 0.075500 0.718200
vn 0.487400 -0.718500 -0.496000
vn -0.504100 0.467700 0.726000
vn -0.085200 -0.989300 0.118000
vn -0.270300 -0.630500 0.727500
vn -0.510600 0.075100 0.856500
vn 0.118300 0.775500 0.620200
vn 0.233600 0.479000 -0.846100
vn 0.219700 -0.497800 -0.839000
vn -0.201100 -0.382700 -0.901700
vn 0.335100 0.737900 0.585700
vn 0.426200 0.315700 -0.847700
vn 0.664600 0.698300 -0.265800
vn -0.074500 0.976100 -0.204100
vn 0.545600 0.788000 0.285300
vn 0.852500 0.352600 -0.385800
vn 0.506800 0.033300 -0.861400
vn 0.902500 -0.194600 -0.384300
vn 0.340400 -0.817600 -0.464200
vn -0.569600 -0.504300 0.649000
vn -0.197500 -0.955500 -0.218800
vn 0.211200 -0.970100 0.119700
vn -0.271300 -0.932900 0.236600
vn -0.140200 -0.528500 -0.837200
vn 0.192400 0.979600 0.058600
vn -0.489600 0.599400 0.633100
vn 0.431300 0.426900 0.794800
vn -0.215400 -0.170200 0.961500
vn -0.277900 -0.246900 0.928300
vn 0.731900 0.656600 0.182100
vn 0.824500 -0.393300 -0.406800
vn 0.340300 -0.856900 -0.387100
vn 0.534300 -0.807600 0.249500
vn 0.137500 -0.651500 0.746100
vn -0.059800 -0.428800 0.901400
vn 0.121000 0.406700 0.905500
vn 0.854100 0.505200 0.123100
vn 0.757700 -0.530300 -0.380200
vn 0.055500 0.404000 0.913100
vn -0.608100 0.583200 0.538700
vn -0.047900 0.996500 -0.068400
vn 0.957100 0.239200 0.163400
vn 0.427500 0.884200 -0.188100
vn 0.884700 -0.431400 -0.176600
vn 0.680500 0.039300 -0.731700
vn 0.262900 -0.896300 -0.357100
vn 0.428000 0.613200 0.663900
vn 0.171800 0.887100 0.428400
vn 0.010700 -0.991300 0.131100
vn 0.927400 0.209100 -0.310200
vn -0.704500 0.099200 0.702700
vn -0.605800 -0.795400 -0.015100
vn -0.217000 -0.934200 0.283100
vn -0.227400 0.456300 0.860300
vn 0.224300 0.963700 0.144700
vn 0.554600 -0.830900 -0.045500
vn 0.453700 -0.651100 -0.608400
vn 0.552400 0.604000 -0.574500
vn -0.423700 -0.602100 0.676700
vn 0.133100 -0.936200 -0.325300
vn 0.837300 0.539400 0.089500
vn -0.256700 -0.327200 0.909400
vn 0.468500 -0.883400 -0.002800
vn 0.105200 -0.317400 0.942400
vn 0.517000 -0.130000 0.846000
vn 0.833100 0.550500 -0.053300
vn 0.563700 0.825300 -0.031200
vn -0.039600 0.431800 0.901100
vn -0.591200 0.426800 0.684300
vn 0.091800 0.792000 -0.603600
vn 0.127300 -0.535900 0.834600
vn 0.664600 -0.427400 0.612800
vn -0.415800 -0.907100 -0.065700
vn 0.617300 -0.245200 -0.747500
vn -0.412800 -0.393100 -0.821600
vn 0.128400 0.295400 0.946700
vn -0.304500 -0.406700 0.861300
vn 0.341800 0.385300 -0.857100
vn -0.446800 0.623200 -0.641800
vn -0.576300 -0.816700 0.029500
vn 0.199200 -0.965300 -0.168700
vn 0.410500 -0.599300 0.687200
vn -0.721500 -0.207600 -0.660500
vn 0.194100 0.484600 -0.852900
vn 0.020300 -0.411200 -0.911300
vn 0.882300 -0.467700 -0.053000
vn 0.175000 -0.961500 -0.211800
vn 0.111400 -0.463000 -0.879300
vn -0.405100 0.862500 0.303200
vn -0.041000 0.337300 0.940500
vn 0.951600 -0.285700 -0.113200
vn 0.685700 0.127700 -0.716600
vn 0.443800 -0.383500 0.809900
vn -0.102500 0.986800 0.125200
vn 0.640600 0.248500 0.726500
vn 0.735300 -0.145900 0.661800
vn 0.628600 0.741100 0.236000
vn 0.493200 -0.819600 -0.291500
vn 0.651900 -0.694700 0.303900
vn 0.304000 0.537600 -0.786400
vn 0.149300 -0.410600 -0.899500
vn 0.609500 0.792400 -0.022500
vn -0.122900 -0.841800 0.525600
vn -0.398700 0.276000 -0.874500
vn -0.912900 0.372500 0.166900
vn -0.552900 -0.223800 0.802600
vn -0.882400 0.249200 0.399200
vn -0.805700 0.481700 0.344700
vn -0.338000 -0.148200 0.929400
vn 0.437800 0.274500 0.856100
vn -0.601400 0.306100 -0.737900
vn -0.057800 -0.416900 -0.907100
vn 0.070900 0.053100 -0.996100
vn 0.563700 0.736100 0.374700
vn 0.059900 0.649000 -0.758400
vn -0.361500 -0.924900 0.117400
vn -0.417400 -0.628100 0.656600
vn -0.126900 -0.959900 -0.249800
vn 0.736000 -0.067000 0.673600
vn 0.891100 0.451400 -0.045000
vn -0.426500 -0.768500 -0.476900
vn 0.201100 -0.525900 0.826400
vn -0.214800 -0.071600 -0.974000
vn 0.428500 -0.234500 -0.872500
vn 0.620300 0.359000 -0.697400
vn 0.274500 -0.612500 0.741300
vn 0.342400 -0.939400 0.014100
vn -0.597900 0.565400 -0.568100
vn 0.812800 -0.285000 -0.508100
vn -0.527900 -0.623800 0.576300
vn -0.983800 -0.102400 0.147000
vn -0.770300 -0.050500 -0.635600
vn -0.331300 -0.404400 -0.852400
vn 0.350800 -0.924500 -0.149300
vn 0.180900 -0.966500 0.181900
s 1
f 2/1/1 4/2/2 311/3/3
f 3/4/4 4/5/2 6/6/5
f 6/6/5 8/7/6 7/8/7
f 9/9/8 314/10/9 319/11/10
f 10/12/11 12/13/12 11/14/13
f 11/14/13 12/13/12 242/15/14
f 4/5/2 18/16/15 19/17/16
f 15/18/17 16/19/18 2/1/1
f 15/20/17 13/21/19 244/22/20
f 9/23/8 11/24/13 15/20/17
f 23/25/21 22/26/22 30/27/23
f 8/7/6 6/6/5 19/17/16
f 4/2/2 2/1/1 17/28/24
f 8/29/6 20/30/25 21/31/26
f 12/13/12 10/12/11 21/31/26
f 12/13/12 22/26/22 23/25/21
f 16/19/18 14/32/27 23/33/21
f 16/19/18 24/34/28 17/28/24
f 31/35/29 39/36/30 40/37/31
f 18/16/15 26/38/32 27/39/33
f 22/26/22 21/31/26 29/40/34
f 24/34/28 32/41/35 25/42/36
f 17/28/24 25/42/36 26/43/32
f 21/31/26 20/30/25 28/44/37
f 23/33/21 31/35/29 32/41/35
f 20/45/25 19/17/16 27/39/33
f 40/37/31 48/46/38 41/47/39
f 28/48/37 27/39/33 35/49/40
f 31/50/29 30/27/23 38/51/41
f 26/38/32 34/52/42 35/49/40
f 30/27/23 29/40/34 37/53/43
f 32/41/35 40/37/31 33/54/44
f 25/42/36 33/54/44 34/55/42
f 29/40/34 28/44/37 36/56/45
f 42/57/46 50/58/47 51/59/48
f 33/54/44 41/47/39 42/60/46
f 37/53/43 36/56/45 44/61/49
f 39/36/30 47/62/50 48/46/38
f 36/63/45 35/49/40 43/64/51
f 39/65/30 38/51/41 46/66/52
f 34/52/42 42/57/46 43/64/51
f 38/51/41 37/53/43 45/67/53
f 52/68/54 51/59/48 59/69/55
f 46/66/52 45/67/53 53/70/56
f 48/46/38 56/71/57 49/72/58
f 41/47/39 49/72/58 50/73/47
f 45/67/53 44/61/49 52/74/54
f 48/46/38 47/62/50 55/75/59
f 44/76/49 43/64/51 51/59/48
f 46/66/52 54/77/60 55/78/59
f 59/79/55 58/80/61 66/81/62
f 55/82/59 54/83/60 62/84/63
f 50/58/47 58/85/61 59/69/55
f 54/77/60 53/70/56 61/86/64
f 56/71/57 64/87/65 57/88/66
f 49/72/58 57/88/66 58/80/61
f 53/70/56 52/74/54 60/89/67
f 55/75/59 63/90/68 64/87/65
f 68/91/69 67/92/70 75/93/71
f 62/94/63 61/86/64 69/95/72
f 64/87/65 72/96/73 65/97/74
f 58/80/61 57/88/66 65/97/74
f 60/89/67 68/91/69 69/95/72
f 63/90/68 71/98/75 72/96/73
f 59/99/55 67/92/70 68/91/69
f 63/100/68 62/94/63 70/101/76
f 76/102/77 84/103/78 85/104/79
f 70/101/76 78/105/80 79/106/81
f 66/81/62 74/107/82 75/108/71
f 69/95/72 77/109/83 78/105/80
f 65/97/74 72/96/73 80/110/84
f 66/81/62 65/97/74 73/111/85
f 68/91/69 76/112/77 77/109/83
f 72/96/73 71/98/75 79/113/81
f 86/114/86 85/115/79 93/116/87
f 79/117/81 87/118/88 88/119/89
f 75/120/71 83/121/90 84/103/78
f 79/117/81 78/122/80 86/123/86
f 75/120/71 74/124/82 82/125/91
f 77/126/83 85/104/79 86/123/86
f 73/127/85 80/128/84 88/119/89
f 74/124/82 73/127/85 81/129/92
f 95/130/93 94/131/94 102/132/95
f 88/133/89 96/134/96 89/135/97
f 82/136/91 81/137/92 89/135/97
f 84/138/78 92/139/98 93/116/87
f 87/140/88 95/141/93 96/142/96
f 83/143/90 91/144/99 92/145/98
f 87/118/88 86/123/86 94/131/94
f 82/146/91 90/147/100 91/144/99
f 104/148/101 103/149/102 111/150/103
f 90/147/100 98/151/104 99/152/105
f 94/153/94 93/116/87 101/154/106
f 96/134/96 104/155/101 97/156/107
f 89/135/97 97/156/107 98/157/104
f 93/116/87 92/139/98 100/158/108
f 95/141/93 103/149/102 104/148/101
f 92/145/98 91/144/99 99/152/105
f 112/159/109 120/160/110 113/161/111
f 99/152/105 107/162/112 108/163/113
f 102/164/95 110/165/114 111/150/103
f 99/152/105 98/151/104 106/166/115
f 102/167/95 101/154/106 109/168/116
f 97/156/107 104/155/101 112/159/109
f 97/156/107 105/169/117 106/170/115
f 100/158/108 108/171/113 109/168/116
f 115/172/118 114/173/119 122/174/120
f 106/166/115 105/175/117 113/176/111
f 108/171/113 116/177/121 117/178/122
f 111/150/103 119/179/123 120/180/110
f 107/162/112 115/172/118 116/181/121
f 111/150/103 110/165/114 118/182/124
f 107/162/112 106/166/115 114/173/119
f 110/183/114 109/168/116 117/178/122
f 123/184/125 222/185/126 124/186/127
f 117/178/122 125/187/128 126/188/129
f 113/161/111 120/160/110 128/189/130
f 114/190/119 113/161/111 121/191/131
f 117/178/122 116/177/121 124/192/127
f 119/179/123 127/193/132 128/174/130
f 116/181/121 115/172/118 123/184/125
f 119/179/123 118/182/124 126/186/129
f 132/194/133 140/195/134 133/196/135
f 127/193/132 126/186/129 134/197/136
f 130/198/137 221/199/138 131/200/139
f 126/188/129 125/187/128 133/196/135
f 128/189/130 136/201/140 129/202/141
f 122/203/120 121/191/131 129/202/141
f 124/192/127 132/194/133 133/196/135
f 127/193/132 135/204/142 136/205/140
f 142/206/143 141/207/144 149/208/145
f 135/204/142 143/209/146 144/210/147
f 229/211/148 227/212/149 231/213/150
f 135/204/142 134/197/136 142/214/143
f 225/215/151 228/216/152 232/217/153
f 134/218/136 133/196/135 141/207/144
f 136/201/140 144/219/147 137/220/154
f 129/202/141 138/221/155 130/222/137
f 144/219/147 152/223/156 145/224/157
f 154/225/158 157/226/159 379/227/160
f 143/209/146 151/228/161 152/229/156
f 139/230/162 147/231/163 148/232/164
f 143/209/146 142/214/143 150/233/165
f 223/234/166 146/235/167 147/231/163
f 145/236/157 158/237/168 378/238/169
f 140/195/134 148/239/164 154/225/158
f 149/208/145 159/240/170 154/225/158
f 145/236/157 146/235/167 155/241/171
f 157/242/159 184/243/172 188/244/173
f 151/228/161 150/233/165 153/245/174
f 147/231/163 146/235/167 153/245/174
f 150/246/165 149/208/145 206/247/175
f 153/245/174 145/236/157 203/248/176
f 146/235/167 145/236/157 153/245/174
f 149/249/145 148/232/164 153/245/174
f 152/229/156 151/228/161 153/245/174
f 148/232/164 147/231/163 153/245/174
f 159/240/170 186/250/177 183/251/178
f 155/241/171 163/252/179 156/253/180
f 164/254/181 160/255/182 166/256/183
f 157/242/159 188/244/173 186/257/177
f 141/258/144 379/259/160 149/249/145
f 167/260/184 173/261/185 175/262/186
f 165/263/187 169/264/188 175/262/186
f 162/265/189 164/254/181 170/266/190
f 161/267/191 167/260/184 169/264/188
f 161/267/191 162/265/189 168/268/192
f 206/247/175 208/269/193 207/270/194
f 182/271/195 181/272/196 180/273/197
f 167/260/184 168/268/192 174/274/198
f 166/256/183 165/263/187 171/275/199
f 166/256/183 172/276/200 176/277/201
f 168/268/192 170/266/190 176/277/201
f 196/278/202 197/279/203 201/280/204
f 199/281/205 195/282/206 201/280/204
f 197/283/203 199/284/205 201/285/204
f 198/286/207 200/287/208 201/285/204
f 195/282/206 198/288/207 201/280/204
f 200/289/208 196/278/202 201/280/204
f 184/290/172 190/291/209 194/292/210
f 183/293/178 186/294/177 192/295/211
f 158/237/168 156/253/180 160/296/182
f 193/297/212 199/284/205 197/283/203
f 194/298/210 200/287/208 198/286/207
f 188/299/173 194/298/210 192/295/211
f 185/300/213 187/301/214 193/297/212
f 183/302/178 189/303/215 193/304/212
f 184/290/172 185/305/213 191/306/216
f 204/307/217 178/308/218 208/309/193
f 178/308/218 209/310/219 214/311/220
f 193/304/212 189/303/215 195/282/206
f 190/291/209 191/306/216 197/279/203
f 192/312/211 198/288/207 195/282/206
f 194/292/210 190/291/209 196/278/202
f 181/272/196 212/313/221 211/314/222
f 152/223/156 202/315/223 203/316/176
f 152/229/156 153/245/174 182/317/195
f 182/317/195 203/248/176 179/318/224
f 153/245/174 204/307/217 206/319/175
f 150/233/165 205/320/225 204/307/217
f 204/321/217 205/322/225 207/270/194
f 176/277/201 172/276/200 177/323/226
f 172/276/200 171/275/199 177/323/226
f 174/274/198 176/277/201 177/323/226
f 171/275/199 175/262/186 177/323/226
f 175/262/186 173/261/185 177/323/226
f 173/261/185 174/274/198 177/323/226
f 203/316/176 202/315/223 180/273/197
f 211/324/222 212/325/221 218/326/227
f 209/310/219 215/327/228 220/328/229
f 178/329/218 207/270/194 213/330/230
f 181/331/196 179/318/224 210/332/231
f 208/269/193 214/333/220 213/330/230
f 179/334/224 180/273/197 211/314/222
f 219/335/232 220/328/229 215/327/228
f 216/336/233 217/337/234 218/326/227
f 209/310/219 213/338/230 219/335/232
f 212/325/221 210/332/231 216/336/233
f 213/330/230 214/333/220 220/339/229
f 211/314/222 217/340/234 216/341/233
f 156/342/180 163/343/179 169/264/188
f 158/237/168 164/344/181 162/345/189
f 156/342/180 165/263/187 166/256/183
f 157/226/159 154/225/158 185/346/213
f 154/347/158 187/348/214 185/349/213
f 154/225/158 183/251/178 187/350/214
f 137/220/154 378/351/169 138/221/155
f 158/352/168 162/353/189 161/354/191
f 146/235/167 138/355/155 155/241/171
f 155/241/171 161/356/191 163/252/179
f 132/357/133 222/185/126 233/358/235
f 222/185/126 131/200/139 234/359/236
f 226/360/237 229/211/148 235/361/238
f 131/200/139 221/199/138 236/362/239
f 221/199/138 130/198/137 237/363/240
f 228/216/152 226/360/237 230/364/241
f 226/360/237 139/230/162 230/364/241
f 139/230/162 224/365/242 230/364/241
f 224/365/242 228/216/152 230/364/241
f 227/212/149 138/355/155 231/213/150
f 138/355/155 223/234/166 231/213/150
f 223/234/166 229/211/148 231/213/150
f 228/216/152 224/365/242 232/217/153
f 224/365/242 140/366/134 232/217/153
f 140/366/134 225/215/151 232/217/153
f 222/185/126 228/216/152 233/358/235
f 228/216/152 225/215/151 233/358/235
f 225/215/151 132/357/133 233/358/235
f 131/200/139 226/360/237 234/359/236
f 226/360/237 228/216/152 234/359/236
f 228/216/152 222/185/126 234/359/236
f 229/211/148 223/234/166 235/361/238
f 223/234/166 139/230/162 235/361/238
f 139/230/162 226/360/237 235/361/238
f 221/199/138 229/211/148 236/362/239
f 229/211/148 226/360/237 236/362/239
f 226/360/237 131/200/139 236/362/239
f 130/198/137 227/212/149 237/363/240
f 227/212/149 229/211/148 237/363/240
f 229/211/148 221/199/138 237/363/240
f 247/367/243 259/368/244 257/369/245
f 13/370/19 11/14/13 238/371/246
f 12/13/12 14/372/27 241/373/247
f 14/374/27 240/375/248 243/376/249
f 245/377/250 257/369/245 260/378/251
f 242/379/14 254/380/252 250/381/253
f 16/19/18 247/382/243 245/383/250
f 15/18/17 249/384/254 16/19/18
f 14/374/27 248/385/255 13/21/19
f 246/386/256 244/22/20 256/387/257
f 251/388/258 263/389/259 266/390/260
f 258/391/261 270/392/262 273/393/263
f 255/394/264 252/395/265 264/396/266
f 257/369/245 259/368/244 271/397/267
f 238/398/246 250/381/253 252/395/265
f 247/367/243 249/399/254 261/400/268
f 249/399/254 246/386/256 258/391/261
f 242/379/14 239/401/269 251/388/258
f 239/401/269 241/402/247 253/403/270
f 241/402/247 243/376/249 255/394/264
f 240/375/248 252/395/265 255/394/264
f 244/22/20 248/385/255 260/378/251
f 272/404/271 269/405/272 281/406/273
f 266/390/260 263/389/259 275/407/274
f 270/392/262 282/408/275 285/409/276
f 264/396/266 276/410/277 279/411/278
f 260/378/251 257/369/245 269/405/272
f 255/394/264 267/412/279 265/413/280
f 261/400/268 273/393/263 271/397/267
f 250/381/253 254/380/252 266/390/260
f 260/378/251 272/404/271 268/414/281
f 252/395/265 250/381/253 262/415/282
f 256/387/257 268/414/281 270/392/262
f 253/403/270 265/413/280 263/389/259
f 277/416/283 289/417/284 287/418/285
f 282/408/275 280/419/286 292/420/287
f 274/421/288 286/422/289 288/423/290
f 284/424/291 296/425/292 292/420/287
f 267/412/279 279/411/278 277/416/283
f 273/393/263 285/409/276 283/426/293
f 262/415/282 266/390/260 278/427/294
f 272/404/271 284/424/291 280/419/286
f 264/396/266 262/415/282 274/421/288
f 270/392/262 268/414/281 280/419/286
f 265/413/280 277/416/283 275/407/274
f 271/397/267 283/426/293 281/406/273
f 293/428/295 295/429/296 305/430/297
f 289/417/284 300/431/298 299/432/299
f 288/423/290 286/422/289 298/433/300
f 281/406/273 283/426/293 295/429/296
f 279/411/278 276/410/277 288/423/290
f 285/409/276 282/408/275 294/434/301
f 275/407/274 287/418/285 290/435/302
f 284/424/291 281/406/273 293/428/295
f 277/416/283 279/411/278 291/436/303
f 285/409/276 297/437/304 295/429/296
f 278/427/294 290/435/302 286/422/289
f 301/438/305 299/432/299 300/431/298
f 304/439/306 305/430/297 307/440/307
f 298/433/300 301/438/305 302/441/308
f 288/423/290 298/433/300 302/441/308
f 290/435/302 287/418/285 299/432/299
f 296/425/292 293/428/295 304/439/306
f 291/436/303 302/441/308 300/431/298
f 297/437/304 307/440/307 305/430/297
f 286/422/289 290/435/302 301/438/305
f 292/420/287 296/425/292 306/442/309
f 294/434/301 292/420/287 303/443/310
f 303/443/310 306/442/309 307/440/307
f 294/434/301 303/443/310 307/440/307
f 315/444/311 319/445/10 331/446/312
f 309/447/313 311/448/3 323/449/314
f 8/29/6 10/12/11 315/450/311
f 3/451/4 1/452/315 308/453/316
f 7/454/7 312/455/317 314/456/9
f 4/2/2 3/457/4 317/458/318
f 7/459/7 8/29/6 318/460/319
f 1/461/315 2/1/1 316/462/320
f 314/456/9 326/463/321 331/446/312
f 318/464/319 313/465/322 325/466/323
f 324/467/324 336/468/325 338/469/326
f 330/470/327 325/466/323 337/471/328
f 324/467/324 330/470/327 342/472/329
f 322/473/330 334/474/331 341/475/332
f 309/447/313 321/476/333 328/477/334
f 310/478/335 322/473/330 329/479/336
f 316/480/320 328/477/334 320/481/337
f 312/455/317 318/464/319 330/470/327
f 311/448/3 317/482/318 329/479/336
f 312/455/317 324/467/324 326/463/321
f 315/444/311 327/483/338 325/466/323
f 310/478/335 308/453/316 320/481/337
f 343/484/339 355/485/340 351/486/341
f 336/468/325 348/487/342 350/488/343
f 342/472/329 337/471/328 349/489/344
f 342/472/329 354/490/345 348/487/342
f 331/446/312 343/484/339 339/491/346
f 325/466/323 327/483/338 339/491/346
f 322/473/330 320/481/337 332/492/347
f 326/463/321 338/469/326 343/484/339
f 323/449/314 335/493/348 333/494/349
f 320/481/337 328/477/334 340/495/350
f 328/477/334 321/476/333 333/494/349
f 329/479/336 341/475/332 335/493/348
f 345/496/351 368/497/352 371/498/353
f 351/486/341 355/485/340 361/499/354
f 347/500/355 353/501/356 372/502/357
f 351/486/341 359/503/358 357/504/359
f 339/491/346 351/486/341 349/489/344
f 334/474/331 332/492/347 344/505/360
f 338/469/326 350/488/343 355/485/340
f 333/494/349 335/493/348 347/500/355
f 332/492/347 340/495/350 352/506/361
f 340/495/350 333/494/349 345/496/351
f 335/493/348 341/475/332 353/501/356
f 341/475/332 334/474/331 346/507/362
f 361/499/354 367/508/363 365/509/364
f 357/504/359 359/503/358 365/509/364
f 348/487/342 356/510/365 358/511/366
f 349/489/344 357/504/359 360/512/367
f 354/490/345 360/512/367 356/510/365
f 355/485/340 350/488/343 358/511/366
f 366/513/368 363/514/369 365/509/364
f 352/506/361 371/498/353 364/515/370
f 360/512/367 357/504/359 363/514/369
f 356/510/365 360/512/367 366/513/368
f 362/516/371 366/513/368 367/508/363
f 358/511/366 356/510/365 362/516/371
f 358/511/366 362/516/371 367/508/363
f 345/496/351 347/500/355 370/517/372
f 346/507/362 344/505/360 364/515/370
f 353/501/356 346/507/362 369/518/373
f 376/519/374 374/520/375 375/521/376
f 370/517/372 375/521/376 374/520/375
f 372/502/357 377/522/377 375/521/376
f 364/515/370 371/498/353 376/519/374
f 371/498/353 368/497/352 374/520/375
f 369/518/373 364/515/370 373/523/378
f 369/518/373 373/523/378 377/522/377
f 373/523/378 376/519/374 377/522/377
f 309/524/313 2/1/1 311/3/3
f 5/525/379 3/4/4 6/6/5
f 5/525/379 6/6/5 7/8/7
f 10/12/11 9/9/8 319/11/10
f 319/11/10 315/450/311 10/12/11
f 9/9/8 10/12/11 11/14/13
f 12/13/12 239/526/269 242/15/14
f 242/15/14 238/371/246 11/14/13
f 6/6/5 4/5/2 19/17/16
f 1/461/315 15/18/17 2/1/1
f 246/386/256 15/20/17 244/22/20
f 15/20/17 1/452/315 7/454/7
f 3/451/4 5/527/379 7/454/7
f 7/454/7 9/23/8 15/20/17
f 11/24/13 13/21/19 15/20/17
f 1/452/315 3/451/4 7/454/7
f 31/50/29 23/25/21 30/27/23
f 20/45/25 8/7/6 19/17/16
f 18/528/15 4/2/2 17/28/24
f 10/12/11 8/29/6 21/31/26
f 22/26/22 12/13/12 21/31/26
f 14/372/27 12/13/12 23/25/21
f 24/34/28 16/19/18 23/33/21
f 2/1/1 16/19/18 17/28/24
f 32/41/35 31/35/29 40/37/31
f 19/17/16 18/16/15 27/39/33
f 30/27/23 22/26/22 29/40/34
f 17/28/24 24/34/28 25/42/36
f 18/528/15 17/28/24 26/43/32
f 29/40/34 21/31/26 28/44/37
f 24/34/28 23/33/21 32/41/35
f 28/48/37 20/45/25 27/39/33
f 33/54/44 40/37/31 41/47/39
f 36/63/45 28/48/37 35/49/40
f 39/65/30 31/50/29 38/51/41
f 27/39/33 26/38/32 35/49/40
f 38/51/41 30/27/23 37/53/43
f 25/42/36 32/41/35 33/54/44
f 26/43/32 25/42/36 34/55/42
f 37/53/43 29/40/34 36/56/45
f 43/64/51 42/57/46 51/59/48
f 34/55/42 33/54/44 42/60/46
f 45/67/53 37/53/43 44/61/49
f 40/37/31 39/36/30 48/46/38
f 44/76/49 36/63/45 43/64/51
f 47/529/50 39/65/30 46/66/52
f 35/49/40 34/52/42 43/64/51
f 46/66/52 38/51/41 45/67/53
f 60/530/67 52/68/54 59/69/55
f 54/77/60 46/66/52 53/70/56
f 41/47/39 48/46/38 49/72/58
f 42/60/46 41/47/39 50/73/47
f 53/70/56 45/67/53 52/74/54
f 56/71/57 48/46/38 55/75/59
f 52/68/54 44/76/49 51/59/48
f 47/529/50 46/66/52 55/78/59
f 67/531/70 59/79/55 66/81/62
f 63/532/68 55/82/59 62/84/63
f 51/59/48 50/58/47 59/69/55
f 62/94/63 54/77/60 61/86/64
f 49/72/58 56/71/57 57/88/66
f 50/73/47 49/72/58 58/80/61
f 61/86/64 53/70/56 60/89/67
f 56/71/57 55/75/59 64/87/65
f 76/112/77 68/91/69 75/93/71
f 70/101/76 62/94/63 69/95/72
f 57/88/66 64/87/65 65/97/74
f 66/81/62 58/80/61 65/97/74
f 61/86/64 60/89/67 69/95/72
f 64/87/65 63/90/68 72/96/73
f 60/89/67 59/99/55 68/91/69
f 71/533/75 63/100/68 70/101/76
f 77/126/83 76/102/77 85/104/79
f 71/533/75 70/101/76 79/106/81
f 67/531/70 66/81/62 75/108/71
f 70/101/76 69/95/72 78/105/80
f 73/111/85 65/97/74 80/110/84
f 74/107/82 66/81/62 73/111/85
f 69/95/72 68/91/69 77/109/83
f 80/110/84 72/96/73 79/113/81
f 94/153/94 86/114/86 93/116/87
f 80/128/84 79/117/81 88/119/89
f 76/102/77 75/120/71 84/103/78
f 87/118/88 79/117/81 86/123/86
f 83/121/90 75/120/71 82/125/91
f 78/122/80 77/126/83 86/123/86
f 81/129/92 73/127/85 88/119/89
f 82/125/91 74/124/82 81/129/92
f 103/534/102 95/130/93 102/132/95
f 81/137/92 88/133/89 89/135/97
f 90/535/100 82/136/91 89/135/97
f 85/115/79 84/138/78 93/116/87
f 88/536/89 87/140/88 96/142/96
f 84/537/78 83/143/90 92/145/98
f 95/130/93 87/118/88 94/131/94
f 83/143/90 82/146/91 91/144/99
f 112/538/109 104/148/101 111/150/103
f 91/144/99 90/147/100 99/152/105
f 102/167/95 94/153/94 101/154/106
f 89/135/97 96/134/96 97/156/107
f 90/535/100 89/135/97 98/157/104
f 101/154/106 93/116/87 100/158/108
f 96/142/96 95/141/93 104/148/101
f 100/539/108 92/145/98 99/152/105
f 105/169/117 112/159/109 113/161/111
f 100/539/108 99/152/105 108/163/113
f 103/149/102 102/164/95 111/150/103
f 107/162/112 99/152/105 106/166/115
f 110/183/114 102/167/95 109/168/116
f 105/169/117 97/156/107 112/159/109
f 98/157/104 97/156/107 106/170/115
f 101/154/106 100/158/108 109/168/116
f 123/184/125 115/172/118 122/174/120
f 114/173/119 106/166/115 113/176/111
f 109/168/116 108/171/113 117/178/122
f 112/538/109 111/150/103 120/180/110
f 108/163/113 107/162/112 116/181/121
f 119/179/123 111/150/103 118/182/124
f 115/172/118 107/162/112 114/173/119
f 118/540/124 110/183/114 117/178/122
f 132/357/133 124/186/127 222/185/126
f 123/184/125 131/200/139 222/185/126
f 118/540/124 117/178/122 126/188/129
f 121/191/131 113/161/111 128/189/130
f 122/203/120 114/190/119 121/191/131
f 125/187/128 117/178/122 124/192/127
f 120/180/110 119/179/123 128/174/130
f 124/186/127 116/181/121 123/184/125
f 127/193/132 119/179/123 126/186/129
f 141/207/144 133/196/135 140/195/134
f 132/194/133 225/541/151 140/195/134
f 135/204/142 127/193/132 134/197/136
f 131/200/139 123/184/125 122/174/120
f 122/174/120 130/198/137 131/200/139
f 134/218/136 126/188/129 133/196/135
f 121/191/131 128/189/130 129/202/141
f 130/222/137 122/203/120 129/202/141
f 125/187/128 124/192/127 133/196/135
f 128/174/130 127/193/132 136/205/140
f 150/246/165 142/206/143 149/208/145
f 136/205/140 135/204/142 144/210/147
f 143/209/146 135/204/142 142/214/143
f 142/206/143 134/218/136 141/207/144
f 129/202/141 136/201/140 137/220/154
f 227/542/149 130/222/137 138/221/155
f 129/202/141 137/220/154 138/221/155
f 137/220/154 144/219/147 145/224/157
f 379/227/160 141/207/144 140/195/134
f 140/195/134 154/225/158 379/227/160
f 144/210/147 143/209/146 152/229/156
f 148/232/164 140/366/134 224/365/242
f 224/365/242 139/230/162 148/232/164
f 151/228/161 143/209/146 150/233/165
f 147/231/163 139/230/162 223/234/166
f 223/234/166 138/355/155 146/235/167
f 378/238/169 137/543/154 145/236/157
f 145/236/157 156/253/180 158/237/168
f 148/239/164 149/208/145 154/225/158
f 156/253/180 145/236/157 155/241/171
f 205/322/225 150/246/165 206/247/175
f 182/317/195 153/245/174 203/248/176
f 154/225/158 159/240/170 183/251/178
f 170/266/190 164/254/181 166/256/183
f 159/544/170 157/242/159 186/257/177
f 159/544/170 149/249/145 157/242/159
f 379/259/160 157/242/159 149/249/145
f 169/264/188 167/260/184 175/262/186
f 171/275/199 165/263/187 175/262/186
f 168/268/192 162/265/189 170/266/190
f 163/343/179 161/267/191 169/264/188
f 167/260/184 161/267/191 168/268/192
f 205/322/225 206/247/175 207/270/194
f 202/315/223 182/271/195 180/273/197
f 173/261/185 167/260/184 174/274/198
f 172/276/200 166/256/183 171/275/199
f 170/266/190 166/256/183 176/277/201
f 174/274/198 168/268/192 176/277/201
f 188/545/173 184/290/172 194/292/210
f 189/546/215 183/293/178 192/295/211
f 164/344/181 158/237/168 160/296/182
f 191/547/216 193/297/212 197/283/203
f 192/295/211 194/298/210 198/286/207
f 186/294/177 188/299/173 192/295/211
f 191/547/216 185/300/213 193/297/212
f 187/548/214 183/302/178 193/304/212
f 190/291/209 184/290/172 191/306/216
f 206/319/175 204/307/217 208/309/193
f 208/309/193 178/308/218 214/311/220
f 199/281/205 193/304/212 195/282/206
f 196/278/202 190/291/209 197/279/203
f 189/303/215 192/312/211 195/282/206
f 200/289/208 194/292/210 196/278/202
f 180/273/197 181/272/196 211/314/222
f 145/224/157 152/223/156 203/316/176
f 202/549/223 152/229/156 182/317/195
f 181/331/196 182/317/195 179/318/224
f 149/249/145 153/245/174 206/319/175
f 153/245/174 150/233/165 204/307/217
f 178/329/218 204/321/217 207/270/194
f 179/334/224 203/316/176 180/273/197
f 217/337/234 211/324/222 218/326/227
f 214/311/220 209/310/219 220/328/229
f 209/550/219 178/329/218 213/330/230
f 212/325/221 181/331/196 210/332/231
f 207/270/194 208/269/193 213/330/230
f 210/551/231 179/334/224 211/314/222
f 215/327/228 209/310/219 219/335/232
f 218/326/227 212/325/221 216/336/233
f 219/552/232 213/330/230 220/339/229
f 210/551/231 211/314/222 216/341/233
f 165/263/187 156/342/180 169/264/188
f 160/255/182 156/342/180 166/256/183
f 184/553/172 157/226/159 185/346/213
f 155/554/171 138/221/155 378/351/169
f 378/351/169 158/352/168 155/554/171
f 155/554/171 158/352/168 161/354/191
f 245/377/250 247/367/243 257/369/245
f 240/555/248 13/370/19 238/371/246
f 239/526/269 12/13/12 241/373/247
f 14/374/27 13/21/19 240/375/248
f 243/376/249 241/402/247 14/374/27
f 248/385/255 245/377/250 260/378/251
f 238/398/246 242/379/14 250/381/253
f 14/32/27 16/19/18 245/383/250
f 247/382/243 16/19/18 249/384/254
f 15/18/17 246/556/256 249/384/254
f 244/22/20 13/21/19 248/385/255
f 14/374/27 245/377/250 248/385/255
f 258/391/261 246/386/256 256/387/257
f 254/380/252 251/388/258 266/390/260
f 261/400/268 258/391/261 273/393/263
f 267/412/279 255/394/264 264/396/266
f 269/405/272 257/369/245 271/397/267
f 240/375/248 238/398/246 252/395/265
f 259/368/244 247/367/243 261/400/268
f 261/400/268 249/399/254 258/391/261
f 254/380/252 242/379/14 251/388/258
f 251/388/258 239/401/269 253/403/270
f 253/403/270 241/402/247 255/394/264
f 243/376/249 240/375/248 255/394/264
f 256/387/257 244/22/20 260/378/251
f 284/424/291 272/404/271 281/406/273
f 278/427/294 266/390/260 275/407/274
f 273/393/263 270/392/262 285/409/276
f 267/412/279 264/396/266 279/411/278
f 272/404/271 260/378/251 269/405/272
f 253/403/270 255/394/264 265/413/280
f 259/368/244 261/400/268 271/397/267
f 262/415/282 250/381/253 266/390/260
f 256/387/257 260/378/251 268/414/281
f 264/396/266 252/395/265 262/415/282
f 258/391/261 256/387/257 270/392/262
f 251/388/258 253/403/270 263/389/259
f 275/407/274 277/416/283 287/418/285
f 294/434/301 282/408/275 292/420/287
f 276/410/277 274/421/288 288/423/290
f 280/419/286 284/424/291 292/420/287
f 265/413/280 267/412/279 277/416/283
f 271/397/267 273/393/263 283/426/293
f 274/421/288 262/415/282 278/427/294
f 268/414/281 272/404/271 280/419/286
f 276/410/277 264/396/266 274/421/288
f 282/408/275 270/392/262 280/419/286
f 263/389/259 265/413/280 275/407/274
f 269/405/272 271/397/267 281/406/273
f 304/439/306 293/428/295 305/430/297
f 287/418/285 289/417/284 299/432/299
f 293/428/295 281/406/273 295/429/296
f 291/436/303 279/411/278 288/423/290
f 297/437/304 285/409/276 294/434/301
f 278/427/294 275/407/274 290/435/302
f 296/425/292 284/424/291 293/428/295
f 289/417/284 277/416/283 291/436/303
f 283/426/293 285/409/276 295/429/296
f 274/421/288 278/427/294 286/422/289
f 302/441/308 301/438/305 300/431/298
f 306/442/309 304/439/306 307/440/307
f 291/436/303 288/423/290 302/441/308
f 301/438/305 290/435/302 299/432/299
f 306/442/309 296/425/292 304/439/306
f 289/417/284 291/436/303 300/431/298
f 295/429/296 297/437/304 305/430/297
f 298/433/300 286/422/289 301/438/305
f 303/443/310 292/420/287 306/442/309
f 297/437/304 294/434/301 307/440/307
f 327/483/338 315/444/311 331/446/312
f 321/476/333 309/447/313 323/449/314
f 313/557/322 8/29/6 315/450/311
f 310/478/335 3/451/4 308/453/316
f 9/23/8 7/454/7 314/456/9
f 3/457/4 310/558/335 317/458/318
f 317/458/318 311/3/3 4/2/2
f 8/29/6 313/557/322 318/460/319
f 318/460/319 312/559/317 7/459/7
f 2/1/1 309/524/313 316/462/320
f 316/462/320 308/560/316 1/461/315
f 319/445/10 314/456/9 331/446/312
f 330/470/327 318/464/319 325/466/323
f 326/463/321 324/467/324 338/469/326
f 342/472/329 330/470/327 337/471/328
f 336/468/325 324/467/324 342/472/329
f 329/479/336 322/473/330 341/475/332
f 316/480/320 309/447/313 328/477/334
f 317/482/318 310/478/335 329/479/336
f 308/453/316 316/480/320 320/481/337
f 324/467/324 312/455/317 330/470/327
f 323/449/314 311/448/3 329/479/336
f 314/456/9 312/455/317 326/463/321
f 313/465/322 315/444/311 325/466/323
f 322/473/330 310/478/335 320/481/337
f 339/491/346 343/484/339 351/486/341
f 338/469/326 336/468/325 350/488/343
f 354/490/345 342/472/329 349/489/344
f 336/468/325 342/472/329 348/487/342
f 327/483/338 331/446/312 339/491/346
f 337/471/328 325/466/323 339/491/346
f 334/474/331 322/473/330 332/492/347
f 331/446/312 326/463/321 343/484/339
f 321/476/333 323/449/314 333/494/349
f 332/492/347 320/481/337 340/495/350
f 340/495/350 328/477/334 333/494/349
f 323/449/314 329/479/336 335/493/348
f 352/506/361 345/496/351 371/498/353
f 359/503/358 351/486/341 361/499/354
f 370/517/372 347/500/355 372/502/357
f 349/489/344 351/486/341 357/504/359
f 337/471/328 339/491/346 349/489/344
f 346/507/362 334/474/331 344/505/360
f 343/484/339 338/469/326 355/485/340
f 345/496/351 333/494/349 347/500/355
f 344/505/360 332/492/347 352/506/361
f 352/506/361 340/495/350 345/496/351
f 347/500/355 335/493/348 353/501/356
f 353/501/356 341/475/332 346/507/362
f 359/503/358 361/499/354 365/509/364
f 363/514/369 357/504/359 365/509/364
f 350/488/343 348/487/342 358/511/366
f 354/490/345 349/489/344 360/512/367
f 348/487/342 354/490/345 356/510/365
f 361/499/354 355/485/340 358/511/366
f 367/508/363 366/513/368 365/509/364
f 344/505/360 352/506/361 364/515/370
f 366/513/368 360/512/367 363/514/369
f 362/516/371 356/510/365 366/513/368
f 361/499/354 358/511/366 367/508/363
f 368/497/352 345/496/351 370/517/372
f 369/518/373 346/507/362 364/515/370
f 372/502/357 353/501/356 369/518/373
f 377/522/377 376/519/374 375/521/376
f 368/497/352 370/517/372 374/520/375
f 370/517/372 372/502/357 375/521/376
f 373/523/378 364/515/370 376/519/374
f 376/519/374 371/498/353 374/520/375
f 372/502/357 369/518/373 377/522/377
