v -0.117561 0.337019 -0.394829
v -0.329345 0.530332 -0.412107
v -0.074940 0.321855 -0.474227
v -0.230411 0.531290 -0.616105
v 0.008962 0.316725 -0.511867
v 0.006318 0.434897 -0.714867
v 0.090563 0.320364 -0.476146
v 0.243137 0.527085 -0.616756
v 0.137503 0.340913 -0.394822
v 0.341062 0.533253 -0.410230
v 0.137517 0.362851 -0.325680
v 0.251010 0.627177 -0.210145
v 0.008886 0.342013 -0.291748
v -0.005074 0.530196 -0.074391
v -0.104061 0.345747 -0.330298
v -0.244135 0.590494 -0.211449
v -0.315469 0.692738 -0.431230
v -0.223647 0.586707 -0.640959
v 0.005708 0.545462 -0.730243
v 0.235225 0.582571 -0.641959
v 0.324041 0.686101 -0.431741
v 0.222640 0.779638 -0.217609
v -0.001108 0.799973 -0.125406
v -0.226706 0.771156 -0.216532
v -0.283192 0.785527 -0.466607
v -0.197726 0.700138 -0.655186
v 0.006988 0.668010 -0.734991
v 0.211799 0.703155 -0.656109
v 0.290302 0.787307 -0.467675
v 0.199741 0.864157 -0.277880
v -0.000070 0.888667 -0.196915
v -0.201941 0.859833 -0.276424
v -0.153888 1.033772 -0.469155
v -0.104681 1.018183 -0.562875
v 0.004708 1.023744 -0.600070
v 0.110152 1.041496 -0.560435
v 0.152258 1.047072 -0.467766
v 0.106687 1.046676 -0.373584
v -0.002037 1.044701 -0.334678
v -0.110200 1.040629 -0.374228
v -0.163489 1.195439 -0.485831
v -0.124751 1.192951 -0.544764
v -0.037312 1.207745 -0.568723
v 0.049903 1.232167 -0.540608
v 0.083421 1.249289 -0.480465
v 0.043493 1.250844 -0.423223
v -0.046321 1.236131 -0.402154
v -0.131087 1.212625 -0.427038
v -0.195334 1.310891 -0.475787
v -0.161325 1.332917 -0.519337
v -0.075032 1.359254 -0.535582
v 0.012997 1.374472 -0.515005
v 0.051195 1.369658 -0.469659
v 0.017185 1.347632 -0.426109
v -0.069108 1.321296 -0.409864
v -0.157136 1.306077 -0.430442
v -0.206107 1.349163 -0.409410
v -0.179848 1.400650 -0.423675
v -0.096886 1.439674 -0.427590
v -0.005511 1.442141 -0.419353
v 0.040422 1.407931 -0.403283
v 0.014148 1.356508 -0.389007
v -0.068942 1.317995 -0.384888
v -0.160174 1.314953 -0.393339
v -0.156096 1.390631 -0.332967
v -0.142335 1.417844 -0.339800
v -0.098842 1.438744 -0.339962
v -0.050662 1.439705 -0.337502
v -0.026446 1.421537 -0.329752
v -0.040230 1.394392 -0.322635
v -0.083927 1.374136 -0.320402
v -0.131905 1.372537 -0.324923
v -0.188922 1.400393 -0.243141
v -0.177105 1.453194 -0.237601
v -0.111762 1.488074 -0.233095
v -0.038149 1.484982 -0.233881
v -0.004026 1.443379 -0.238340
v -0.015769 1.390064 -0.243501
v -0.080558 1.352510 -0.247825
v -0.155480 1.357011 -0.246957
v -0.123849 1.380717 -0.160808
v -0.115797 1.388800 -0.136255
v -0.093233 1.398124 -0.126541
v -0.068249 1.392191 -0.133664
v -0.056794 1.388890 -0.157758
v -0.064418 1.381236 -0.182369
v -0.086848 1.373178 -0.192992
v -0.111336 1.371181 -0.183734
v -0.140345 1.334471 -0.148522
v -0.128553 1.351063 -0.101808
v -0.094517 1.362156 -0.081722
v -0.059985 1.352809 -0.097521
v -0.041355 1.337346 -0.142404
v -0.048190 1.325104 -0.190121
v -0.084675 1.318706 -0.211909
v -0.123970 1.322279 -0.194705
v -0.144492 1.275649 -0.138839
v -0.131959 1.287849 -0.090737
v -0.095350 1.288971 -0.067446
v -0.056008 1.288622 -0.085777
v -0.037081 1.276742 -0.131824
v -0.049614 1.264543 -0.179926
v -0.086266 1.259169 -0.201905
v -0.125565 1.263769 -0.184886
v -0.103444 1.230926 -0.122195
v -0.101094 1.235574 -0.103928
v -0.093033 1.231196 -0.093927
v -0.083830 1.235750 -0.102801
v -0.078366 1.235019 -0.124327
v -0.081381 1.226526 -0.138868
v -0.089505 1.224527 -0.146901
v -0.098644 1.226350 -0.139995
v -0.133596 1.188368 -0.116146
v -0.125506 1.197354 -0.074512
v -0.106285 1.201581 -0.057472
v -0.083948 1.199283 -0.072131
v -0.072200 1.188993 -0.112137
v -0.078434 1.178519 -0.153316
v -0.098999 1.173998 -0.171548
v -0.121848 1.178078 -0.156152
v -0.115751 1.138736 -0.088990
v -0.110359 1.144482 -0.070264
v -0.094837 1.146998 -0.061639
v -0.078277 1.144809 -0.068169
v -0.070380 1.139198 -0.086027
v -0.075772 1.133453 -0.104753
v -0.091694 1.090872 -0.101012
v -0.107854 1.133126 -0.106848
v -0.274365 1.008463 -0.070717
v -0.229280 1.013010 0.052357
v -0.120899 1.063091 0.107692
v 0.026328 1.015613 0.069051
v 0.087119 1.012143 -0.047108
v 0.041733 0.977393 -0.160861
v -0.086682 0.951239 -0.155990
v -0.213750 0.974223 -0.179387
v -0.321093 0.855443 -0.046587
v -0.285482 0.888402 0.062600
v -0.091472 0.892111 0.180605
v 0.095982 0.905426 0.060233
v 0.132733 0.861136 -0.013487
v 0.064061 0.814262 -0.125752
v -0.087940 0.818724 -0.116056
v -0.237142 0.810627 -0.147264
v -0.263851 0.768768 -0.000289
v -0.220252 0.780593 0.087575
v -0.105143 0.771839 0.154663
v 0.017512 0.783014 0.103103
v 0.072398 0.772192 0.021671
v 0.017433 0.753825 -0.052471
v -0.091346 0.754440 -0.053885
v -0.199350 0.751617 -0.066629
v -0.096765 0.697177 0.038019
v 0.057235 0.706071 0.096000
v -0.252174 0.707150 0.073227
v -0.260191 0.644139 0.080673
v 0.100243 0.699712 0.058738
v -0.314748 0.680391 0.031597
v 0.046602 0.692628 0.050169
v -0.270540 0.623151 0.041545
v -0.322599 0.645135 0.097735
v -0.336504 0.616937 0.045163
v -0.288829 0.649839 0.098904
v -0.306088 0.614841 0.033654
v -0.191182 0.602717 0.139956
v -0.213045 0.543762 0.027842
v -0.371087 0.592402 0.167222
v -0.375422 0.540863 0.060863
v -0.265458 0.620247 0.192223
v -0.314920 0.519946 0.005228
v -0.176916 0.506373 0.188183
v -0.200564 0.446287 0.076442
v -0.356806 0.483058 0.221176
v -0.356556 0.463515 0.104445
v -0.252476 0.524158 0.234453
v -0.290895 0.476322 0.039116
v -0.269908 0.429506 0.169673
v -0.071273 0.597783 0.078455
v -0.159249 0.597610 0.067393
v -0.143489 0.594539 0.029921
v -0.117762 0.597102 0.072927
v -0.123741 0.675926 0.013374
v 0.062126 0.656515 0.093553
v 0.140928 0.642073 0.074996
v 0.124631 0.661368 0.112726
v 0.081751 0.640458 0.062430
v 0.091292 0.665001 0.115123
v 0.116431 0.635237 0.056925
v -0.007155 0.617659 0.137496
v 0.196358 0.557151 0.081368
v 0.168626 0.612689 0.184424
v 0.030947 0.563832 0.037052
v 0.065873 0.630090 0.189881
v 0.140296 0.543790 0.033937
v -0.025606 0.512221 0.187264
v 0.183136 0.450340 0.132166
v 0.146907 0.511377 0.234845
v 0.012515 0.457683 0.087163
v 0.040480 0.521426 0.263215
v 0.122161 0.435601 0.079822
v 0.071221 0.430084 0.190345
v -0.153834 0.676061 -0.036959
v -0.172232 0.676732 0.006984
v -0.069409 0.676533 0.019844
v -0.024850 0.678176 -0.025925
v -0.016239 0.681721 0.019053
v -0.033119 0.596492 0.039313
v -0.025758 0.601978 0.077529
v -0.081209 0.474575 0.221732
v -0.142280 0.495273 0.207601
v -0.131510 0.472315 0.187926
v -0.125089 0.494800 0.210691
v -0.054633 0.473676 0.194468
v -0.054443 0.485453 0.218287
v -0.078312 0.357321 0.234671
v -0.139626 0.358355 0.227320
v -0.128781 0.364885 0.201902
v -0.122425 0.355688 0.230595
v -0.051906 0.365730 0.208549
v -0.056682 0.364074 0.233353
v -0.153880 1.031122 0.105039
v -0.038597 1.040912 0.076494
v -0.224981 0.879319 0.148491
v -0.051716 0.927205 0.186329
v 0.040137 0.963224 0.103722
v -0.104000 1.001513 0.159493
v -0.239919 0.956544 0.097899
v -0.053956 0.963771 0.154506
v -0.165794 0.977177 0.141296
v -0.086430 0.929688 0.342323
v -0.227504 0.972465 0.296464
v 0.031625 0.931874 0.195598
v -0.010045 1.109280 0.192799
v -0.070885 1.023914 0.096385
v -0.145786 0.934718 0.197948
v -0.185867 1.111276 0.308693
v -0.209784 1.036739 0.178993
v 0.195930 0.404809 -0.228332
v 0.254348 0.554531 -0.174920
v 0.151409 0.392632 -0.185737
v 0.188524 0.519582 -0.088808
v 0.256663 0.494284 -0.245119
v 0.132210 0.441239 -0.093979
v -0.120221 0.331806 -0.209432
v -0.177161 0.466658 -0.092472
v -0.164982 0.336662 -0.254869
v -0.259546 0.495212 -0.191372
v -0.116006 0.390584 -0.113871
v -0.242924 0.424832 -0.260024
v 0.264050 0.351070 -0.243330
v 0.337618 0.551446 -0.157363
v 0.209819 0.337709 -0.181376
v 0.265512 0.529715 -0.040884
v 0.345489 0.478927 -0.252573
v 0.187459 0.411988 -0.047024
v -0.158047 0.260084 -0.202976
v -0.246412 0.460415 -0.032110
v -0.219571 0.275807 -0.258408
v -0.347802 0.479992 -0.169892
v -0.156755 0.347003 -0.063023
v -0.328370 0.391918 -0.257903
v 0.303067 0.301473 -0.193260
v 0.382091 0.501580 -0.102294
v 0.248836 0.288112 -0.131306
v 0.308057 0.478298 -0.008104
v 0.385974 0.428889 -0.212024
v 0.242785 0.369762 -0.006662
v -0.186479 0.230538 -0.154714
v -0.271021 0.405148 -0.003415
v -0.243130 0.225737 -0.198108
v -0.381225 0.420515 -0.117165
v -0.200992 0.290592 -0.029538
v -0.352308 0.335131 -0.217978
v 0.312750 0.309543 -0.129950
v 0.351469 0.406018 -0.097264
v 0.289570 0.303831 -0.103469
v 0.314647 0.387323 -0.043765
v 0.343746 0.359159 -0.127956
v 0.282396 0.332726 -0.044423
v -0.262987 0.229671 -0.102600
v -0.301147 0.332141 -0.034133
v -0.290802 0.232691 -0.131113
v -0.350761 0.332309 -0.091836
v -0.261510 0.263229 -0.041407
v -0.330067 0.282036 -0.122494
v 0.378961 0.319921 -0.083731
v 0.376123 0.393838 -0.062502
v 0.351613 0.289191 -0.071159
v 0.349490 0.386702 -0.016370
v 0.388356 0.361735 -0.081385
v 0.305771 0.327650 -0.025394
v -0.303513 0.209410 -0.059419
v -0.330243 0.308433 0.003987
v -0.341580 0.228336 -0.102215
v -0.366997 0.318057 -0.048016
v -0.265185 0.242028 -0.008421
v -0.351476 0.236777 -0.077037
v 0.394063 0.190364 -0.031689
v 0.409666 0.365435 -0.021742
v 0.381347 0.351227 0.021151
v 0.447979 0.297780 -0.013875
v 0.388496 0.269981 0.034238
v -0.266718 0.118714 -0.043733
v -0.349978 0.279363 0.025092
v -0.378904 0.286226 -0.010531
v -0.328723 0.192830 0.031373
v -0.354254 0.204613 -0.029885
v -0.104882 0.305027 -0.401759
v -0.198869 0.395632 -0.429844
v -0.077211 0.295445 -0.458029
v -0.160925 0.396800 -0.505201
v 0.122413 0.319095 -0.476182
v 0.209457 0.417352 -0.510971
v 0.150136 0.330722 -0.420286
v 0.234587 0.416689 -0.458352
v -0.163544 0.350516 -0.395495
v -0.108933 0.346875 -0.503767
v 0.154773 0.369180 -0.518219
v 0.204917 0.375118 -0.415602
v -0.111075 0.242827 -0.371936
v -0.286842 0.408221 -0.424710
v -0.065468 0.227800 -0.482025
v -0.213281 0.402172 -0.554575
v 0.084799 0.221978 -0.500589
v 0.260389 0.405329 -0.553612
v 0.132109 0.238049 -0.383384
v 0.309813 0.415501 -0.463210
v -0.219112 0.325253 -0.359320
v -0.124046 0.322771 -0.566484
v 0.150051 0.323005 -0.585387
v 0.243651 0.324890 -0.373498
v -0.156874 0.179295 -0.409881
v -0.320559 0.320649 -0.450385
v -0.111575 0.160111 -0.512261
v -0.253834 0.327529 -0.594939
v 0.133891 0.160155 -0.522997
v 0.299477 0.340680 -0.588975
v 0.170555 0.177811 -0.408303
v 0.348607 0.335919 -0.481599
v -0.251153 0.236537 -0.382867
v -0.157826 0.235337 -0.592291
v 0.188998 0.240440 -0.616573
v 0.282445 0.245308 -0.391887
v -0.181111 0.192361 -0.459435
v -0.302000 0.220588 -0.473321
v -0.178331 0.187621 -0.515744
v -0.282952 0.238312 -0.549420
v 0.189959 0.161777 -0.528977
v 0.298400 0.209217 -0.550086
v 0.206734 0.160540 -0.475687
v 0.312592 0.199247 -0.501243
v -0.247011 0.201745 -0.444844
v -0.218102 0.221689 -0.555095
v 0.237578 0.189974 -0.562184
v 0.266264 0.175416 -0.465813
v 0.248551 0.133498 -0.562732
v 0.325491 0.182082 -0.570067
v 0.269076 0.143520 -0.494892
v 0.344166 0.168962 -0.505794
v 0.279991 0.159214 -0.581750
v 0.306283 0.158657 -0.487411
v 0.232611 -0.006095 -0.548532
v 0.336176 0.141860 -0.565466
v -0.244185 0.165540 -0.477568
v 0.344017 0.135663 -0.537650
v 0.282409 0.080274 -0.580460
v 0.295416 0.069390 -0.501041
v -0.327276 0.195103 -0.489043
v -0.227478 0.135830 -0.545533
v -0.311154 0.207014 -0.550722
v -0.286548 0.172643 -0.458998
v -0.262666 0.193779 -0.574509
v -0.187261 0.015856 -0.549240
v -0.336255 0.146169 -0.514333
v -0.325461 0.153266 -0.554957
v -0.270024 0.080755 -0.499749
v -0.252155 0.090135 -0.560364
v -0.292038 0.764177 -0.004566
v 0.103068 0.776284 0.022987
vt 0.639038 0.667232
vt 0.569494 0.686580
vt 0.595985 0.633488
vt 0.243676 0.116714
vt 0.295031 0.196246
vt 0.213922 0.172681
vt 0.132813 0.196246
vt 0.184167 0.116714
vt 0.732454 0.126028
vt 0.742444 0.126644
vt 0.737801 0.140414
vt 0.724659 0.188247
vt 0.652169 0.194542
vt 0.703271 0.123392
vt 0.668630 0.149577
vt 0.292391 0.216490
vt 0.213922 0.210475
vt 0.661122 0.600269
vt 0.713884 0.673732
vt 0.191799 0.599053
vt 0.222426 0.597912
vt 0.194950 0.590054
vt 0.265739 0.601808
vt 0.253053 0.599053
vt 0.612480 0.261448
vt 0.643935 0.255524
vt 0.656404 0.288865
vt 0.643978 0.721930
vt 0.792014 0.206985
vt 0.795815 0.226921
vt 0.719875 0.241223
vt 0.755197 0.656741
vt 0.754864 0.742813
vt 0.722387 0.736696
vt 0.738596 0.775730
vt 0.706414 0.836129
vt 0.693198 0.839216
vt 0.283840 0.257507
vt 0.213922 0.252975
vt 0.724409 0.278090
vt 0.709512 0.771121
vt 0.639296 0.759995
vt 0.569081 0.748869
vt 0.792414 0.267314
vt 0.135452 0.216490
vt 0.706113 0.897887
vt 0.686785 0.904433
vt 0.144004 0.257507
vt 0.213922 0.364057
vt 0.628235 0.293329
vt 0.672205 0.354816
vt 0.250816 0.361021
vt 0.703109 0.362034
vt 0.661289 0.846668
vt 0.629381 0.854121
vt 0.734012 0.369252
vt 0.244316 0.416941
vt 0.244316 0.455131
vt 0.213922 0.459882
vt 0.667458 0.910979
vt 0.697134 0.424320
vt 0.714118 0.895175
vt 0.177028 0.361021
vt 0.213922 0.419608
vt 0.659404 0.351826
vt 0.659696 0.411640
vt 0.678415 0.417980
vt 0.183528 0.455131
vt 0.213922 0.466072
vt 0.654043 0.450631
vt 0.722939 0.926480
vt 0.711950 0.938145
vt 0.700962 0.949810
vt 0.664685 0.461929
vt 0.727490 0.921649
vt 0.183528 0.416941
vt 0.643400 0.439334
vt 0.638992 0.434654
vt 0.742836 0.960935
vt 0.741602 0.954413
vt 0.767629 0.942661
vt 0.222425 0.924397
vt 0.253711 0.929288
vt 0.253711 0.925685
vt 0.244316 0.459658
vt 0.628209 0.451137
vt 0.735645 0.922921
vt 0.738624 0.938667
vt 0.625324 0.466387
vt 0.734411 0.916399
vt 0.600117 0.455005
vt 0.599489 0.458327
vt 0.560971 0.463246
vt 0.631094 0.435887
vt 0.601634 0.446984
vt 0.764495 0.926099
vt 0.766062 0.934380
vt 0.763847 0.922669
vt 0.624129 0.472704
vt 0.632289 0.429570
vt 0.603152 0.438964
vt 0.247499 0.947751
vt 0.230819 0.911234
vt 0.234293 0.911363
vt 0.577540 0.426830
vt 0.580383 0.420582
vt 0.805112 0.944718
vt 0.808046 0.951170
vt 0.570677 0.441914
vt 0.790939 0.913570
vt 0.798025 0.929144
vt 0.563814 0.456998
vt 0.788004 0.907119
vt 0.529014 0.420025
vt 0.536333 0.419918
vt 0.536037 0.405531
vt 0.222431 0.909688
vt 0.222431 0.911545
vt 0.214044 0.911492
vt 0.222431 0.954282
vt 0.222431 0.913122
vt 0.247499 0.916219
vt 0.230819 0.911492
vt 0.197364 0.947751
vt 0.214044 0.911234
vt 0.255842 0.931985
vt 0.189312 0.931985
vt 0.197364 0.916219
vt 0.210570 0.911363
vt 0.222392 0.895299
vt 0.235677 0.894950
vt 0.235677 0.874126
vt 0.528603 0.421276
vt 0.521484 0.407511
vt 0.535611 0.406811
vt 0.543211 0.421062
vt 0.535907 0.421169
vt 0.543651 0.419810
vt 0.550192 0.406125
vt 0.877696 0.669450
vt 0.877659 0.654169
vt 0.865164 0.653841
vt 0.877696 0.670933
vt 0.877659 0.655218
vt 0.888585 0.653720
vt 0.869806 0.669157
vt 0.866060 0.653720
vt 0.865164 0.634254
vt 0.877659 0.634582
vt 0.877659 0.618379
vt 0.865164 0.632672
vt 0.877659 0.630884
vt 0.521881 0.406232
vt 0.533729 0.388167
vt 0.519181 0.390181
vt 0.533308 0.389481
vt 0.547436 0.388782
vt 0.547885 0.387466
vt 0.527896 0.376025
vt 0.519727 0.363947
vt 0.531910 0.363343
vt 0.877659 0.615331
vt 0.880499 0.617648
vt 0.890154 0.634254
vt 0.880499 0.618253
vt 0.874819 0.617648
vt 0.519574 0.388868
vt 0.533013 0.375806
vt 0.533308 0.375757
vt 0.538720 0.375488
vt 0.539152 0.374147
vt 0.873998 0.602470
vt 0.867323 0.602734
vt 0.872200 0.585784
vt 0.873642 0.617951
vt 0.863752 0.603920
vt 0.544534 0.361373
vt 0.532328 0.361977
vt 0.873853 0.604885
vt 0.866710 0.604602
vt 0.880995 0.603238
vt 0.880995 0.604602
vt 0.528306 0.374684
vt 0.877478 0.585787
vt 0.898503 0.539310
vt 0.882756 0.585784
vt 0.535264 0.345894
vt 0.529678 0.345888
vt 0.529265 0.347286
vt 0.544055 0.362293
vt 0.534840 0.347291
vt 0.540851 0.345899
vt 0.877478 0.572002
vt 0.565849 0.298483
vt 0.552622 0.268791
vt 0.532167 0.307657
vt 0.919529 0.542616
vt 0.835426 0.532297
vt 0.861315 0.533115
vt 0.872283 0.542989
vt 0.497574 0.309103
vt 0.531749 0.309130
vt 0.540416 0.347297
vt 0.877478 0.533538
vt 0.835426 0.542616
vt 0.493801 0.259313
vt 0.527669 0.262903
vt 0.530936 0.234983
vt 0.877478 0.488098
vt 0.827905 0.488113
vt 0.858007 0.512645
vt 0.832727 0.510142
vt 0.841095 0.495950
vt 0.927051 0.488113
vt 0.924620 0.512550
vt 0.894883 0.507510
vt 0.923692 0.493793
vt 0.498484 0.307630
vt 0.492900 0.260881
vt 0.526209 0.264464
vt 0.558593 0.264357
vt 0.565364 0.299974
vt 0.509458 0.237701
vt 0.530521 0.236600
vt 0.546173 0.210174
vt 0.534472 0.211723
vt 0.531070 0.236093
vt 0.877478 0.461902
vt 0.841814 0.461913
vt 0.882913 0.482386
vt 0.877478 0.447126
vt 0.916593 0.456007
vt 0.913142 0.461913
vt 0.838446 0.481065
vt 0.838362 0.456007
vt 0.822160 0.460668
vt 0.805873 0.429698
vt 0.812819 0.459554
vt 0.555502 0.230851
vt 0.532505 0.210339
vt 0.827352 0.434257
vt 0.942469 0.434430
vt 0.955953 0.414902
vt 0.947518 0.414430
vt 0.877478 0.435024
vt 0.509832 0.236087
vt 0.524129 0.209803
vt 0.852022 0.431379
vt 0.932796 0.460668
vt 0.530762 0.194876
vt 0.541148 0.196616
vt 0.815702 0.413679
vt 0.824675 0.413745
vt 0.795775 0.404196
vt 0.807420 0.406117
vt 0.825393 0.383109
vt 0.936292 0.415427
vt 0.952106 0.492162
vt 0.942885 0.461920
vt 0.777572 0.384357
vt 0.782949 0.345534
vt 0.816973 0.357269
vt 0.834989 0.390689
vt 0.812218 0.390892
vt 0.786225 0.403653
vt 0.792021 0.377602
vt 0.791904 0.407389
vt 0.773769 0.378571
vt 0.533691 0.182581
vt 0.522756 0.184315
vt 0.523696 0.210049
vt 0.533322 0.183087
vt 0.521681 0.185988
vt 0.780510 0.350620
vt 0.840283 0.356421
vt 0.830117 0.348451
vt 0.800330 0.360992
vt 0.981402 0.338008
vt 0.972092 0.346949
vt 0.946506 0.325876
vt 0.938436 0.347021
vt 0.915518 0.351209
vt 0.970640 0.344962
vt 0.940207 0.345027
vt 0.947504 0.325907
vt 0.928522 0.342325
vt 0.960257 0.337103
vt 0.925514 0.344033
vt 0.960609 0.338257
vt 0.967231 0.402467
vt 0.984943 0.375834
vt 0.965841 0.376056
vt 0.943685 0.397376
vt 0.948762 0.395631
vt 0.933253 0.376300
vt 0.820377 0.410917
vt 0.946531 0.381722
vt 0.964988 0.371282
vt 0.958745 0.394745
vt 0.962272 0.397253
vt 0.952617 0.397967
vt 0.942283 0.404913
vt 0.920761 0.388530
vt 0.945430 0.387602
vt 0.962838 0.404777
vt 0.978360 0.383069
vt 0.885982 0.430393
vt 0.886362 0.400009
vt 0.901267 0.401557
vt 0.885762 0.347456
vt 0.894493 0.351286
vt 0.930745 0.381606
vt 0.562847 0.142872
vt 0.554739 0.138564
vt 0.510340 0.214315
vt 0.522915 0.210686
vt 0.868042 0.430659
vt 0.857304 0.400751
vt 0.903401 0.432264
vt 0.899606 0.435479
vt 0.524913 0.208145
vt 0.511509 0.212653
vt 0.809684 0.334185
vt 0.868552 0.349863
vt 0.871218 0.354732
vt 0.872052 0.309174
vt 0.886596 0.309430
vt 0.893677 0.311744
vt 0.534452 0.181209
vt 0.555674 0.136784
vt 0.871012 0.400185
vt 0.865522 0.355126
vt 0.563290 0.138015
vt 0.532620 0.183587
vt 0.894716 0.314680
vt 0.866356 0.310274
vt 0.869387 0.314818
vt 0.893882 0.349897
vt 0.557096 0.102961
vt 0.549355 0.107557
vt 0.556040 0.103538
vt 0.811646 0.408898
vt 0.802822 0.408833
vt 0.808535 0.408963
vt 0.798824 0.408411
vt 0.545697 0.196493
vt 0.929198 0.432682
vt 0.940627 0.418054
vt 0.951485 0.417251
vt 0.547307 0.197205
vt 0.529477 0.235614
vt 0.532745 0.209199
vt 0.531479 0.190365
vt 0.548189 0.193726
vt 0.816818 0.492041
vt 0.804599 0.412210
vt 0.919529 0.532297
vt 0.910573 0.549586
vt 0.888295 0.531951
vt 0.878722 0.518710
vt 0.865633 0.493903
vt 0.855461 0.538441
vt 0.844602 0.527541
vt 0.888150 0.478532
vt 0.896176 0.492965
vt 0.941791 0.498803
vt 0.139479 0.638965
vt 0.107561 0.633032
vt 0.150019 0.623116
vt 0.691183 0.122300
vt 0.666808 0.126308
vt 0.612158 0.178086
vt 0.616572 0.160658
vt 0.222425 0.656222
vt 0.248561 0.601419
vt 0.248152 0.616743
vt 0.170725 0.630747
vt 0.185512 0.589344
vt 0.293048 0.626423
vt 0.320536 0.612057
vt 0.280193 0.577769
vt 0.718785 0.639695
vt 0.750252 0.631576
vt 0.692810 0.618517
vt 0.194876 0.607766
vt 0.178300 0.590818
vt 0.185621 0.563314
vt 0.327016 0.639233
vt 0.338697 0.618290
vt 0.331784 0.591272
vt 0.161152 0.564437
vt 0.155999 0.542196
vt 0.109782 0.581446
vt 0.258882 0.599287
vt 0.259484 0.576766
vt 0.266406 0.554526
vt 0.098948 0.612954
vt 0.262653 0.602101
vt 0.146851 0.617526
vt 0.119260 0.601896
vt 0.297752 0.644808
vt 0.273433 0.638005
vt 0.296037 0.630533
vt 0.176898 0.567775
vt 0.144866 0.600875
vt 0.138186 0.570392
vt 0.311907 0.581799
vt 0.142945 0.545310
vt 0.127292 0.560129
vt 0.281006 0.554543
vt 0.280340 0.562785
vt 0.270130 0.577830
vt 0.302959 0.608292
vt 0.179140 0.546825
vt 0.287115 0.555528
vt 0.296631 0.577525
vt 0.307614 0.572751
vt 0.322261 0.576942
vt 0.153404 0.544831
vt 0.154515 0.530596
vt 0.289858 0.554972
vt 0.294966 0.542064
vt 0.282465 0.541459
vt 0.153881 0.554726
vt 0.154449 0.546308
vt 0.118559 0.575555
vt 0.305197 0.568144
vt 0.129191 0.565625
vt 0.114742 0.568606
vt 0.107515 0.558457
vt 0.313846 0.561102
vt 0.325613 0.564394
vt 0.302800 0.497091
vt 0.139745 0.531273
vt 0.319333 0.562744
vt 0.282102 0.555053
vt 0.111848 0.554965
vt 0.322803 0.544818
vt 0.124290 0.554044
vt 0.118706 0.540286
vt 0.299159 0.538287
vt 0.142950 0.529581
vt 0.144803 0.499799
vt 0.303305 0.635725
vt 0.292136 0.616845
vt 0.307224 0.598443
vt 0.149131 0.625384
vt 0.162016 0.632681
vt 0.143919 0.638490
vt 0.748985 0.158477
vt 0.191799 0.604563
vt 0.179112 0.601808
vt 0.182197 0.592427
vt 0.253053 0.604563
vt 0.264452 0.604284
vt 0.272888 0.602452
vt 0.600859 0.605712
vt 0.592765 0.616479
vt 0.761636 0.128663
vt 0.771850 0.147953
vt 0.630991 0.602991
vt 0.630777 0.608062
vt 0.268395 0.569408
vt 0.275465 0.624725
vt 0.294558 0.640679
vt 0.312109 0.640101
vt 0.251376 0.573104
vt 0.264966 0.547612
vt 0.281985 0.543916
vt 0.273593 0.614339
vt 0.325700 0.621031
vt 0.287183 0.588847
vt 0.194977 0.573153
vt 0.183131 0.545505
vt 0.163130 0.584550
vt 0.117832 0.630518
vt 0.141688 0.596465
vt 0.190907 0.594318
vt 0.174975 0.612198
vt 0.162050 0.606943
vt 0.178892 0.569661
vt 0.180076 0.615463
vt 0.329754 0.636529
vt 0.320814 0.572952
vt 0.314947 0.555006
vt 0.330915 0.566038
vt 0.288051 0.555170
vt 0.294150 0.550573
vt 0.325722 0.573259
vt 0.304472 0.567513
vt 0.343344 0.611038
vt 0.167047 0.542013
vt 0.129780 0.616346
vt 0.105987 0.602870
vt 0.129843 0.568817
vt 0.112379 0.570579
vt 0.102345 0.559651
vt 0.126849 0.548385
vt 0.320953 0.541672
vt 0.119315 0.582509
vt 0.141942 0.577144
vt 0.140344 0.568089
vt 0.341965 0.556188
vt 0.335132 0.565690
vt 0.154479 0.559606
vt 0.131443 0.561814
vt 0.160598 0.565223
vt 0.329572 0.518879
vt 0.345666 0.546801
vt 0.285560 0.541887
vt 0.293586 0.535837
vt 0.307168 0.558130
vt 0.315787 0.535337
vt 0.337768 0.553455
vt 0.156458 0.545547
vt 0.303131 0.499768
vt 0.111261 0.574985
vt 0.164323 0.552766
vt 0.119729 0.522043
vt 0.099064 0.545592
vt 0.105735 0.557065
vt 0.133224 0.541748
vt 0.141711 0.503045
vt 0.621897 0.626279
vt 0.213922 0.117822
vt 0.643164 0.167166
vt 0.222426 0.605704
vt 0.565570 0.707163
vt 0.651943 0.409014
vt 0.183528 0.459658
vt 0.768277 0.946091
vt 0.222425 0.919082
vt 0.603780 0.435642
vt 0.222392 0.874474
vt 0.549739 0.407404
vt 0.869806 0.669399
vt 0.885585 0.669157
vt 0.874819 0.618254
vt 0.890154 0.632672
vt 0.520122 0.362582
vt 0.570710 0.280977
vt 0.573340 0.280372
vt 0.802706 0.492161
vt 0.924689 0.432869
vt 0.958937 0.402003
vt 0.924224 0.382561
vt 0.976308 0.377624
vt 0.952160 0.405567
vt 0.857107 0.435481
vt 0.563821 0.134620
vt 0.562358 0.143221
vt 0.550265 0.105564
vt 0.533263 0.194411
vt 0.545379 0.213233
vt 0.653501 0.125655
vt 0.690409 0.592134
vt 0.766021 0.163216
vt 0.604257 0.595592
vt 0.761852 0.128396
vt 0.624945 0.593724
vn -0.945400 -0.324700 0.027800
vn -0.708600 -0.385600 -0.590900
vn -0.492200 0.154600 -0.856700
vn 0.223900 -0.898000 -0.378600
vn -0.005100 -0.547000 -0.837100
vn 0.709600 -0.367100 -0.601400
vn 0.105300 -0.976500 -0.187800
vn 0.283300 -0.888400 0.361300
vn -0.372300 -0.372400 0.850100
vn 0.288200 0.044000 0.956500
vn 0.954100 -0.292100 0.065900
vn 0.802900 0.151800 0.576400
vn 0.438000 -0.873500 0.212300
vn 0.306100 0.275800 -0.911100
vn -0.688200 -0.090400 -0.719900
vn -0.004600 -0.109200 -0.994000
vn -0.314700 -0.948700 -0.030900
vn -0.821900 0.084700 0.563300
vn 0.136100 -0.986500 0.090500
vn 0.569400 -0.819900 0.059200
vn -0.007400 0.399000 0.916900
vn 0.666500 0.361100 0.652200
vn 0.667400 0.547900 0.504300
vn -0.982500 0.179500 -0.050000
vn 0.686500 -0.094200 -0.720900
vn 0.980400 0.192400 -0.041700
vn -0.012100 -0.072200 0.997300
vn -0.689000 0.316400 0.651900
vn -0.001600 0.630200 0.776400
vn -0.008100 0.512400 0.858700
vn -0.617200 0.415200 0.668400
vn -0.612900 0.199300 -0.764600
vn -0.000900 0.136600 -0.990600
vn 0.920000 0.361900 -0.150000
vn -0.679200 0.544800 0.491700
vn -0.916000 0.357400 -0.182200
vn 0.622500 0.197000 -0.757400
vn -0.619200 0.005800 0.785200
vn -0.988500 -0.132800 -0.072500
vn 0.008800 0.274500 -0.961500
vn 0.587100 0.500100 0.636600
vn -0.600400 0.231500 -0.765500
vn 0.900100 0.435000 -0.025800
vn -0.965600 0.249500 -0.073100
vn 0.611700 0.348600 -0.710100
vn -0.585700 0.004800 -0.810500
vn -0.571000 0.314700 -0.758200
vn -0.099700 0.503900 -0.857900
vn 0.555500 0.264800 -0.788200
vn -0.065100 0.197600 0.978100
vn -0.017100 0.172400 -0.984900
vn 0.530900 0.270500 0.803100
vn 0.946800 0.320200 -0.030900
vn 0.393400 0.555800 -0.732300
vn -0.212800 0.926000 -0.311900
vn 0.921500 0.370400 -0.116700
vn -0.504100 -0.612400 0.608900
vn -0.978500 -0.113200 -0.172000
vn 0.152500 -0.720700 0.676200
vn 0.690600 -0.312300 0.652300
vn -0.700500 0.687100 -0.193000
vn -0.671100 0.726700 -0.146100
vn 0.655500 -0.596600 0.463000
vn 0.908500 0.326000 0.261200
vn -0.337000 -0.833200 0.438300
vn -0.969000 -0.121900 0.214600
vn 0.323700 0.931200 -0.167700
vn 0.214200 -0.929900 0.298900
vn 0.277500 0.952500 -0.125100
vn -0.221800 0.949700 -0.221000
vn -0.219000 0.963700 0.152700
vn 0.920700 0.353800 0.164600
vn -0.311700 -0.923600 0.223200
vn -0.987500 -0.099900 0.121600
vn 0.221700 -0.952100 0.210300
vn 0.683600 -0.686800 0.246800
vn 0.437900 0.882000 0.173800
vn 0.611500 0.577900 0.540500
vn 0.976900 0.090000 0.193900
vn 0.820100 -0.556300 0.134000
vn 0.228200 -0.973400 0.017700
vn -0.789600 0.599200 0.132100
vn 0.949200 0.260900 0.175700
vn -0.499300 -0.859400 0.110300
vn -0.974300 -0.182600 0.131400
vn 0.883700 -0.427200 -0.191200
vn 0.975800 0.208300 0.066400
vn 0.274500 -0.797300 -0.537600
vn -0.752500 -0.572800 -0.325000
vn -0.060600 0.759600 0.647500
vn -0.729400 0.500500 0.466300
vn -0.984000 -0.125100 0.126700
vn 0.065700 0.061800 -0.995900
vn 0.796300 0.109500 -0.594800
vn 0.758200 -0.456300 -0.465700
vn -0.700100 0.107700 -0.705800
vn -0.976100 0.192000 -0.101700
vn 0.707500 0.373800 0.599700
vn -0.047200 0.513600 0.856700
vn -0.790700 0.354900 0.498900
vn -0.685500 -0.447600 -0.574100
vn 0.056400 -0.526000 -0.848600
vn 0.136100 -0.366600 -0.920300
vn -0.784100 -0.165300 0.598300
vn -0.062500 -0.140300 0.988100
vn 0.939000 -0.310200 0.148500
vn -0.954700 -0.297300 0.005900
vn 0.706600 -0.161600 0.688800
vn -0.850800 -0.165700 -0.498600
vn -0.786300 -0.091900 -0.611000
vn -0.989700 0.102900 -0.098800
vn 0.012800 0.427400 0.904000
vn 0.864500 -0.110200 0.490400
vn 0.915300 -0.283800 -0.285500
vn -0.888700 0.017500 0.458100
vn 0.940700 -0.314100 0.127800
vn -0.996800 -0.066700 -0.044400
vn -0.129600 0.384700 0.913800
vn -0.851600 0.265600 0.451800
vn -0.771400 0.405400 0.490500
vn 0.753000 0.284500 0.593200
vn 0.996400 0.081100 0.025800
vn 0.010900 -0.201100 -0.979500
vn 0.835900 -0.114500 -0.536800
vn 0.018300 0.545900 0.837600
vn 0.130700 0.926300 0.353300
vn 0.657100 0.566400 0.497400
vn 0.872900 0.483500 -0.065600
vn 0.811500 0.042800 -0.582800
vn -0.797800 -0.117500 -0.591300
vn -0.951900 0.274200 -0.136700
vn 0.071400 0.056900 -0.995800
vn 0.737500 0.650300 0.182200
vn 0.843300 0.147000 0.517000
vn 0.838300 0.541200 -0.065000
vn 0.459800 0.229200 -0.857900
vn -0.736600 0.637000 0.227100
vn -0.564800 0.796100 0.217200
vn 0.061800 0.922900 0.379900
vn -0.342500 0.222800 -0.912700
vn -0.837300 0.522000 -0.162100
vn 0.071700 0.027000 -0.997000
vn 0.484800 -0.485400 -0.727600
vn 0.993200 -0.108400 -0.041600
vn 0.291600 -0.776400 -0.558700
vn 0.065100 -0.528900 -0.846100
vn -0.366600 -0.500500 -0.784300
vn -0.303700 0.206500 0.930100
vn -0.862500 0.459700 0.211200
vn -0.050800 0.243400 0.968600
vn 0.777100 0.470100 0.418300
vn 0.342900 0.654500 0.673800
vn 0.464600 -0.081300 0.881800
vn -0.977400 -0.120500 -0.173500
vn -0.921900 0.064200 0.382100
vn -0.222500 -0.781900 -0.582300
vn -0.119100 -0.807000 -0.578300
vn -0.500100 0.302200 0.811500
vn 0.802100 0.361500 -0.475300
vn 0.828900 -0.411300 -0.379200
vn 0.048700 -0.779700 -0.624200
vn -0.001600 -0.428400 0.903600
vn -0.012100 -0.574900 0.818100
vn 0.346300 -0.502000 0.792500
vn 0.314000 -0.776400 -0.546400
vn -0.453000 -0.519400 0.724600
vn -0.384200 -0.603000 0.699100
vn -0.549900 0.495800 -0.672100
vn -0.691400 -0.456700 -0.559700
vn -0.785100 -0.172100 -0.594900
vn 0.665900 0.209300 0.716000
vn 0.759000 0.487500 -0.431500
vn 0.241600 0.233400 -0.941900
vn -0.007800 -0.976000 0.217300
vn 0.778600 -0.282000 0.560600
vn -0.824900 -0.401300 0.398000
vn -0.356400 0.166800 -0.919300
vn -0.926100 0.371600 0.065400
vn 0.119300 0.747900 0.653000
vn 0.825100 0.558800 -0.082900
vn -0.068000 0.147800 -0.986700
vn 0.495100 0.398200 -0.772200
vn 0.653100 0.076400 -0.753300
vn -0.795000 0.450700 0.405900
vn -0.616600 -0.345500 0.707400
vn 0.210600 0.005400 0.977500
vn 0.821500 0.554800 0.131600
vn 0.116700 0.718700 0.685400
vn -0.790800 0.314800 -0.524900
vn -0.280200 -0.270500 -0.921000
vn -0.633900 0.725500 0.268100
vn -0.916400 -0.053700 -0.396600
vn 0.818700 0.300500 0.489300
vn 0.284600 -0.675800 -0.679900
vn 0.939200 -0.335300 0.073300
vn 0.913100 0.309500 0.265400
vn -0.021900 -0.694000 -0.719600
vn -0.694600 -0.686100 -0.216200
vn 0.855000 -0.176100 0.487800
vn 0.596500 -0.703200 -0.386900
vn -0.131000 -0.726100 -0.675000
vn 0.791000 -0.611400 0.021100
vn 0.575700 -0.138800 0.805800
vn -0.124200 -0.903800 0.409500
vn -0.302200 -0.011000 0.953200
vn -0.940000 -0.156300 0.303000
vn -0.630700 -0.610800 -0.478700
vn 0.188100 -0.795000 -0.576600
vn 0.931600 0.077200 -0.355200
vn 0.333900 -0.099500 -0.937300
vn -0.525900 0.069800 -0.847700
vn -0.188500 0.735300 0.651000
vn 0.533700 0.790500 0.300400
vn -0.144800 0.707000 0.692200
vn -0.830200 0.554000 0.061700
vn 0.678900 0.510800 0.527400
vn -0.898900 -0.436600 -0.035700
vn -0.972300 0.175800 0.154100
vn -0.864000 0.172900 0.472800
vn 0.573500 0.415300 0.706100
vn 0.629400 0.362700 0.687200
vn 0.107600 -0.509000 -0.854000
vn 0.150300 -0.384300 -0.910900
vn -0.917100 0.190200 0.350500
vn 0.081200 -0.438200 -0.895200
vn 0.065100 -0.946800 0.315000
vn 0.540400 -0.642400 0.543300
vn -0.657700 -0.665600 0.352600
vn 0.608500 -0.457900 0.648100
vn 0.463500 -0.582300 -0.667900
vn -0.759900 0.314900 0.568700
vn 0.454700 -0.500800 -0.736500
vn -0.726100 -0.563200 0.394300
vn 0.103200 -0.461900 -0.880900
vn 0.029100 0.780100 0.624900
vn 0.367700 0.560900 0.741700
vn 0.469100 0.463100 0.751900
vn -0.196900 0.137700 0.970700
vn -0.250600 0.459300 0.852200
vn -0.234600 0.483300 0.843400
vn -0.045500 -0.070300 0.996500
vn 0.683300 -0.180300 0.707500
vn -0.721900 0.689900 -0.054300
vn -0.618900 0.766500 -0.171400
vn 0.072700 0.700300 0.710100
vn 0.106700 -0.780900 -0.615400
vn -0.172800 0.592700 0.786600
vn -0.335600 -0.927600 0.164000
vn -0.496100 -0.502100 0.708300
vn 0.100800 0.521400 0.847300
vn 0.775000 -0.113300 0.621600
vn 0.453200 0.322000 -0.831200
vn -0.094700 -0.486800 -0.868300
vn -0.318000 0.221900 -0.921700
vn 0.610100 -0.388500 0.690500
vn 0.030500 -0.638600 -0.768900
vn 0.710200 -0.645500 -0.280900
vn 0.451500 0.880600 -0.144200
vn 0.884700 0.348600 0.309600
vn 0.904100 -0.154400 -0.398400
vn 0.038000 -0.495400 -0.867800
vn -0.175200 -0.902200 -0.394000
vn -0.813100 -0.355400 -0.461000
vn -0.702600 -0.188900 0.686000
vn -0.644900 -0.711000 -0.280300
vn -0.345600 -0.936400 0.060700
vn -0.937200 0.244300 0.248800
vn -0.534800 0.149400 -0.831600
vn 0.636100 0.759500 0.136300
vn -0.111300 0.741600 0.661500
vn 0.445400 -0.430200 0.785200
vn -0.166300 0.198900 0.965800
vn -0.244900 0.259800 0.934100
vn 0.973400 0.132200 0.186800
vn -0.376000 -0.829100 -0.413700
vn -0.851600 -0.357200 -0.383400
vn -0.000100 -0.981200 0.193100
vn -0.243000 -0.661100 0.709800
vn -0.248300 -0.378900 0.891500
vn 0.333100 0.241300 0.911400
vn 0.528000 -0.842400 0.107500
vn 0.337300 -0.837200 -0.430500
vn 0.272600 0.252800 0.928300
vn -0.182700 0.789500 0.585900
vn 0.510500 0.859600 -0.020400
vn 0.265100 -0.952600 0.148800
vn 0.893000 -0.402300 -0.201800
vn 0.498300 -0.836700 -0.227000
vn 0.586400 -0.300200 -0.752300
vn -0.277300 -0.870200 -0.407100
vn 0.630300 -0.420500 0.652600
vn 0.895200 -0.154400 0.418000
vn -0.989400 -0.037800 0.140200
vn 0.887400 -0.319500 -0.332200
vn 0.088000 0.697800 0.710800
vn -0.810700 0.585400 0.000100
vn -0.936600 0.189400 0.294600
vn 0.065400 0.455400 0.887800
vn 0.720000 0.669900 0.181300
vn 0.002900 -0.994600 -0.103200
vn -0.645200 -0.462500 -0.608100
vn 0.792200 0.231200 -0.564700
vn -0.683600 -0.306500 0.662400
vn -0.935600 -0.153000 -0.318200
vn 0.996200 -0.018100 0.085300
vn -0.324900 0.236700 0.915600
vn -0.871200 -0.490900 -0.000600
vn -0.084500 -0.376700 0.922500
vn -0.108600 -0.530700 0.840500
vn 0.571100 -0.818000 -0.069100
vn 0.972200 0.213900 0.095500
vn 0.168700 0.281000 0.944700
vn -0.948200 0.235300 0.213400
vn -0.092000 0.829100 -0.551400
vn -0.079900 -0.707800 0.701900
vn 0.714300 0.225400 0.662500
vn -0.905000 -0.380800 -0.189500
vn 0.736400 0.161100 -0.657000
vn -0.514600 0.081700 -0.853500
vn 0.116300 0.284600 0.951500
vn -0.590200 -0.136200 0.795700
vn 0.590400 0.089100 -0.802100
vn 0.171200 0.796600 -0.579800
vn -0.977100 -0.193700 -0.088000
vn -0.496200 -0.823100 -0.276100
vn -0.185200 -0.759000 0.624100
vn -0.593100 0.390200 -0.704200
vn 0.562200 0.269900 -0.781700
vn -0.168200 -0.252900 -0.952700
vn 0.965400 -0.251900 -0.067200
vn 0.382400 -0.884300 -0.267900
vn 0.202300 -0.374500 -0.904900
vn -0.568700 0.756100 0.324000
vn -0.143100 0.250500 0.957500
vn 0.987500 0.128700 0.090200
vn 0.632400 0.318800 -0.706000
vn 0.541700 -0.232800 0.807700
vn 0.588100 0.772500 0.239600
vn 0.555200 -0.308500 0.772400
vn 0.361700 -0.654300 0.664100
vn 0.934900 0.086200 0.344200
vn -0.170900 -0.912900 -0.370600
vn -0.034600 -0.970000 0.240600
vn 0.670700 0.228100 -0.705700
vn -0.075800 -0.342100 -0.936600
vn 0.983800 0.152900 0.093100
vn 0.076800 -0.878800 0.470900
vn -0.459400 0.230800 -0.857700
vn -0.979500 0.132900 0.151600
vn -0.478800 -0.428500 0.766200
vn -0.911400 0.022600 0.410900
vn -0.888900 0.269100 0.370600
vn -0.286600 -0.273800 0.918100
vn 0.412400 -0.158100 0.897100
vn -0.662300 0.206900 -0.720100
vn 0.026800 -0.365700 -0.930300
vn 0.046600 0.125600 -0.991000
vn 0.869800 0.118700 0.478900
vn 0.567100 0.475000 -0.672900
vn -0.145300 -0.987500 0.061400
vn -0.260100 -0.742500 0.617200
vn 0.087300 -0.947800 -0.306600
vn 0.414700 -0.598500 0.685400
vn 0.957400 -0.285900 0.039500
vn -0.781700 -0.230100 -0.579600
vn -0.301600 -0.570500 0.763900
vn -0.100000 0.158200 -0.982300
vn 0.243400 -0.409400 -0.879300
vn 0.768200 -0.124500 -0.628000
vn 0.411800 -0.578100 0.704400
vn -0.394500 -0.914800 -0.086800
vn -0.714800 0.450100 -0.535200
vn 0.850400 -0.066500 -0.521900
vn -0.369700 -0.758300 0.536900
vn -0.934700 -0.327400 0.138100
vn -0.746500 -0.183800 -0.639500
vn -0.242000 -0.417700 -0.875700
vn 0.546100 -0.812700 -0.202900
vn -0.007400 -0.960800 -0.277200
s 1
f 2/1/1 4/2/2 311/3/3
f 3/4/4 4/5/2 6/6/5
f 6/6/5 8/7/6 7/8/7
f 9/9/8 314/10/9 319/11/10
f 10/12/11 12/13/12 11/14/13
f 11/14/13 12/13/12 242/15/14
f 4/5/2 18/16/15 19/17/16
f 15/18/17 16/19/18 2/1/1
f 15/20/17 13/21/19 244/22/20
f 9/23/8 11/24/13 15/20/17
f 23/25/21 22/26/22 30/27/23
f 8/7/6 6/6/5 19/17/16
f 4/2/2 2/1/1 17/28/24
f 8/29/6 20/30/25 21/31/26
f 12/13/12 10/12/11 21/31/26
f 12/13/12 22/26/22 23/25/21
f 16/19/18 14/32/27 23/33/21
f 16/19/18 24/34/28 17/28/24
f 31/35/29 39/36/30 40/37/31
f 18/16/15 26/38/32 27/39/33
f 22/26/22 21/31/26 29/40/34
f 24/34/28 32/41/35 25/42/36
f 17/28/24 25/42/36 26/43/32
f 21/31/26 20/30/25 28/44/37
f 23/33/21 31/35/29 32/41/35
f 20/45/25 19/17/16 27/39/33
f 40/37/31 48/46/38 41/47/39
f 28/48/37 27/39/33 35/49/40
f 31/50/29 30/27/23 38/51/41
f 26/38/32 34/52/42 35/49/40
f 30/27/23 29/40/34 37/53/43
f 32/41/35 40/37/31 33/54/44
f 25/42/36 33/54/44 34/55/42
f 29/40/34 28/44/37 36/56/45
f 42/57/46 50/58/47 51/59/48
f 33/54/44 41/47/39 42/60/46
f 37/53/43 36/56/45 44/61/49
f 39/36/30 47/62/50 48/46/38
f 36/63/45 35/49/40 43/64/51
f 39/65/30 38/51/41 46/66/52
f 34/52/42 42/57/46 43/64/51
f 38/51/41 37/53/43 45/67/53
f 52/68/54 51/59/48 59/69/55
f 46/66/52 45/67/53 53/70/56
f 48/46/38 56/71/57 49/72/58
f 41/47/39 49/72/58 50/73/47
f 45/67/53 44/61/49 52/74/54
f 48/46/38 47/62/50 55/75/59
f 44/76/49 43/64/51 51/59/48
f 46/66/52 54/77/60 55/78/59
f 59/79/55 58/80/61 66/81/62
f 55/82/59 54/83/60 62/84/63
f 50/58/47 58/85/61 59/69/55
f 54/77/60 53/70/56 61/86/64
f 56/71/57 64/87/65 57/88/66
f 49/72/58 57/88/66 58/80/61
f 53/70/56 52/74/54 60/89/67
f 55/75/59 63/90/68 64/87/65
f 68/91/69 67/92/70 75/93/71
f 62/94/63 61/86/64 69/95/72
f 64/87/65 72/96/73 65/97/74
f 58/80/61 57/88/66 65/97/74
f 60/89/67 68/91/69 69/95/72
f 63/90/68 71/98/75 72/96/73
f 59/99/55 67/92/70 68/91/69
f 63/100/68 62/94/63 70/101/76
f 76/102/77 84/103/78 85/104/79
f 70/101/76 78/105/80 79/106/81
f 66/81/62 74/107/82 75/108/71
f 69/95/72 77/109/83 78/105/80
f 65/97/74 72/96/73 80/110/84
f 66/81/62 65/97/74 73/111/85
f 68/91/69 76/112/77 77/109/83
f 72/96/73 71/98/75 79/113/81
f 86/114/86 85/115/79 93/116/87
f 79/117/81 87/118/88 88/119/89
f 75/120/71 83/121/90 84/103/78
f 79/117/81 78/122/80 86/123/86
f 75/120/71 74/124/82 82/125/91
f 77/126/83 85/104/79 86/123/86
f 73/127/85 80/128/84 88/119/89
f 74/124/82 73/127/85 81/129/92
f 95/130/93 94/131/94 102/132/95
f 88/133/89 96/134/96 89/135/97
f 82/136/91 81/137/92 89/135/97
f 84/138/78 92/139/98 93/116/87
f 87/140/88 95/141/93 96/142/96
f 83/143/90 91/144/99 92/145/98
f 87/118/88 86/123/86 94/131/94
f 82/146/91 90/147/100 91/144/99
f 104/148/101 103/149/102 111/150/103
f 90/147/100 98/151/104 99/152/105
f 94/153/94 93/116/87 101/154/106
f 96/134/96 104/155/101 97/156/107
f 89/135/97 97/156/107 98/157/104
f 93/116/87 92/139/98 100/158/108
f 95/141/93 103/149/102 104/148/101
f 92/145/98 91/144/99 99/152/105
f 112/159/109 120/160/110 113/161/111
f 99/152/105 107/162/112 108/163/113
f 102/164/95 110/165/114 111/150/103
f 99/152/105 98/151/104 106/166/115
f 102/167/95 101/154/106 109/168/116
f 97/156/107 104/155/101 112/159/109
f 97/156/107 105/169/117 106/170/115
f 100/158/108 108/171/113 109/168/116
f 115/172/118 114/173/119 122/174/120
f 106/166/115 105/175/117 113/176/111
f 108/171/113 116/177/121 117/178/122
f 111/150/103 119/179/123 120/180/110
f 107/162/112 115/172/118 116/181/121
f 111/150/103 110/165/114 118/182/124
f 107/162/112 106/166/115 114/173/119
f 110/183/114 109/168/116 117/178/122
f 123/184/125 222/185/126 124/186/127
f 117/178/122 125/187/128 126/188/129
f 113/161/111 120/160/110 128/189/130
f 114/190/119 113/161/111 121/191/131
f 117/178/122 116/177/121 124/192/127
f 119/179/123 127/193/132 128/174/130
f 116/181/121 115/172/118 123/184/125
f 119/179/123 118/182/124 126/186/129
f 132/194/133 140/195/134 133/196/135
f 127/193/132 126/186/129 134/197/136
f 130/198/137 221/199/138 131/200/139
f 126/188/129 125/187/128 133/196/135
f 128/189/130 136/201/140 129/202/141
f 122/203/120 121/191/131 129/202/141
f 124/192/127 132/194/133 133/196/135
f 127/193/132 135/204/142 136/205/140
f 142/206/143 141/207/144 149/208/145
f 135/204/142 143/209/146 144/210/147
f 229/211/148 227/212/149 231/213/150
f 135/204/142 134/197/136 142/214/143
f 225/215/151 228/216/152 232/217/153
f 134/218/136 133/196/135 141/207/144
f 136/201/140 144/219/147 137/220/154
f 129/202/141 138/221/155 130/222/137
f 144/219/147 152/223/156 145/224/157
f 154/225/158 157/226/159 379/227/160
f 143/209/146 151/228/161 152/229/156
f 139/230/162 147/231/163 148/232/164
f 143/209/146 142/214/143 150/233/165
f 223/234/166 146/235/167 147/231/163
f 145/236/157 158/237/168 378/238/169
f 140/195/134 148/239/164 154/225/158
f 149/208/145 159/240/170 154/225/158
f 145/236/157 146/235/167 155/241/171
f 157/242/159 184/243/172 188/244/173
f 151/228/161 150/233/165 153/245/174
f 147/231/163 146/235/167 153/245/174
f 150/246/165 149/208/145 206/247/175
f 153/245/174 145/236/157 203/248/176
f 146/235/167 145/236/157 153/245/174
f 149/249/145 148/232/164 153/245/174
f 152/229/156 151/228/161 153/245/174
f 148/232/164 147/231/163 153/245/174
f 159/240/170 186/250/177 183/251/178
f 155/241/171 163/252/179 156/253/180
f 164/254/181 160/255/182 166/256/183
f 157/242/159 188/244/173 186/257/177
f 141/258/144 379/259/160 149/249/145
f 167/260/184 173/261/185 175/262/186
f 165/263/187 169/264/188 175/262/186
f 162/265/189 164/254/181 170/266/190
f 161/267/191 167/260/184 169/264/188
f 161/267/191 162/265/189 168/268/192
f 206/247/175 208/269/193 207/270/194
f 182/271/195 181/272/196 180/273/197
f 167/260/184 168/268/192 174/274/198
f 166/256/183 165/263/187 171/275/199
f 166/256/183 172/276/200 176/277/201
f 168/268/192 170/266/190 176/277/201
f 196/278/202 197/279/203 201/280/204
f 199/281/205 195/282/206 201/280/204
f 197/283/203 199/284/205 201/285/204
f 198/286/207 200/287/208 201/285/204
f 195/282/206 198/288/207 201/280/204
f 200/289/208 196/278/202 201/280/204
f 184/290/172 190/291/209 194/292/210
f 183/293/178 186/294/177 192/295/211
f 158/237/168 156/253/180 160/296/182
f 193/297/212 199/284/205 197/283/203
f 194/298/210 200/287/208 198/286/207
f 188/299/173 194/298/210 192/295/211
f 185/300/213 187/301/214 193/297/212
f 183/302/178 189/303/215 193/304/212
f 184/290/172 185/305/213 191/306/216
f 204/307/217 178/308/218 208/309/193
f 178/308/218 209/310/219 214/311/220
f 193/304/212 189/303/215 195/282/206
f 190/291/209 191/306/216 197/279/203
f 192/312/211 198/288/207 195/282/206
f 194/292/210 190/291/209 196/278/202
f 181/272/196 212/313/221 211/314/222
f 152/223/156 202/315/223 203/316/176
f 152/229/156 153/245/174 182/317/195
f 182/317/195 203/248/176 179/318/224
f 153/245/174 204/307/217 206/319/175
f 150/233/165 205/320/225 204/307/217
f 204/321/217 205/322/225 207/270/194
f 176/277/201 172/276/200 177/323/226
f 172/276/200 171/275/199 177/323/226
f 174/274/198 176/277/201 177/323/226
f 171/275/199 175/262/186 177/323/226
f 175/262/186 173/261/185 177/323/226
f 173/261/185 174/274/198 177/323/226
f 203/316/176 202/315/223 180/273/197
f 211/324/222 212/325/221 218/326/227
f 209/310/219 215/327/228 220/328/229
f 178/329/218 207/270/194 213/330/230
f 181/331/196 179/318/224 210/332/231
f 208/269/193 214/333/220 213/330/230
f 179/334/224 180/273/197 211/314/222
f 219/335/232 220/328/229 215/327/228
f 216/336/233 217/337/234 218/326/227
f 209/310/219 213/338/230 219/335/232
f 212/325/221 210/332/231 216/336/233
f 213/330/230 214/333/220 220/339/229
f 211/314/222 217/340/234 216/341/233
f 156/342/180 163/343/179 169/264/188
f 158/237/168 164/344/181 162/345/189
f 156/342/180 165/263/187 166/256/183
f 157/226/159 154/225/158 185/346/213
f 154/347/158 187/348/214 185/349/213
f 154/225/158 183/251/178 187/350/214
f 137/220/154 378/351/169 138/221/155
f 158/352/168 162/353/189 161/354/191
f 146/235/167 138/355/155 155/241/171
f 155/241/171 161/356/191 163/252/179
f 132/357/133 222/185/126 233/358/235
f 222/185/126 131/200/139 234/359/236
f 226/360/237 229/211/148 235/361/238
f 131/200/139 221/199/138 236/362/239
f 221/199/138 130/198/137 237/363/240
f 228/216/152 226/360/237 230/364/241
f 226/360/237 139/230/162 230/364/241
f 139/230/162 224/365/242 230/364/241
f 224/365/242 228/216/152 230/364/241
f 227/212/149 138/355/155 231/213/150
f 138/355/155 223/234/166 231/213/150
f 223/234/166 229/211/148 231/213/150
f 228/216/152 224/365/242 232/217/153
f 224/365/242 140/366/134 232/217/153
f 140/366/134 225/215/151 232/217/153
f 222/185/126 228/216/152 233/358/235
f 228/216/152 225/215/151 233/358/235
f 225/215/151 132/357/133 233/358/235
f 131/200/139 226/360/237 234/359/236
f 226/360/237 228/216/152 234/359/236
f 228/216/152 222/185/126 234/359/236
f 229/211/148 223/234/166 235/361/238
f 223/234/166 139/230/162 235/361/238
f 139/230/162 226/360/237 235/361/238
f 221/199/138 229/211/148 236/362/239
f 229/211/148 226/360/237 236/362/239
f 226/360/237 131/200/139 236/362/239
f 130/198/137 227/212/149 237/363/240
f 227/212/149 229/211/148 237/363/240
f 229/211/148 221/199/138 237/363/240
f 247/367/243 259/368/244 257/369/245
f 13/370/19 11/14/13 238/371/246
f 12/13/12 14/372/27 241/373/247
f 14/374/27 240/375/248 243/376/249
f 245/377/250 257/369/245 260/378/251
f 242/379/14 254/380/252 250/381/253
f 16/19/18 247/382/243 245/383/250
f 15/18/17 249/384/254 16/19/18
f 14/374/27 248/385/255 13/21/19
f 246/386/256 244/22/20 256/387/257
f 251/388/258 263/389/259 266/390/260
f 258/391/261 270/392/262 273/393/263
f 255/394/264 252/395/265 264/396/266
f 257/369/245 259/368/244 271/397/267
f 238/398/246 250/381/253 252/395/265
f 247/367/243 249/399/254 261/400/268
f 249/399/254 246/386/256 258/391/261
f 242/379/14 239/401/269 251/388/258
f 239/401/269 241/402/247 253/403/270
f 241/402/247 243/376/249 255/394/264
f 240/375/248 252/395/265 255/394/264
f 244/22/20 248/385/255 260/378/251
f 272/404/271 269/405/272 281/406/273
f 266/390/260 263/389/259 275/407/274
f 270/392/262 282/408/275 285/409/276
f 264/396/266 276/410/277 279/411/278
f 260/378/251 257/369/245 269/405/272
f 255/394/264 267/412/279 265/413/280
f 261/400/268 273/393/263 271/397/267
f 250/381/253 254/380/252 266/390/260
f 260/378/251 272/404/271 268/414/281
f 252/395/265 250/381/253 262/415/282
f 256/387/257 268/414/281 270/392/262
f 253/403/270 265/413/280 263/389/259
f 277/416/283 289/417/284 287/418/285
f 282/408/275 280/419/286 292/420/287
f 274/421/288 286/422/289 288/423/290
f 284/424/291 296/425/292 292/420/287
f 267/412/279 279/411/278 277/416/283
f 273/393/263 285/409/276 283/426/293
f 262/415/282 266/390/260 278/427/294
f 272/404/271 284/424/291 280/419/286
f 264/396/266 262/415/282 274/421/288
f 270/392/262 268/414/281 280/419/286
f 265/413/280 277/416/283 275/407/274
f 271/397/267 283/426/293 281/406/273
f 293/428/295 295/429/296 305/430/297
f 289/417/284 300/431/298 299/432/299
f 288/423/290 286/422/289 298/433/300
f 281/406/273 283/426/293 295/429/296
f 279/411/278 276/410/277 288/423/290
f 285/409/276 282/408/275 294/434/301
f 275/407/274 287/418/285 290/435/302
f 284/424/291 281/406/273 293/428/295
f 277/416/283 279/411/278 291/436/303
f 285/409/276 297/437/304 295/429/296
f 278/427/294 290/435/302 286/422/289
f 301/438/305 299/432/299 300/431/298
f 304/439/306 305/430/297 307/440/307
f 298/433/300 301/438/305 302/441/308
f 288/423/290 298/433/300 302/441/308
f 290/435/302 287/418/285 299/432/299
f 296/425/292 293/428/295 304/439/306
f 291/436/303 302/441/308 300/431/298
f 297/437/304 307/440/307 305/430/297
f 286/422/289 290/435/302 301/438/305
f 292/420/287 296/425/292 306/442/309
f 294/434/301 292/420/287 303/443/310
f 303/443/310 306/442/309 307/440/307
f 294/434/301 303/443/310 307/440/307
f 315/444/311 319/445/10 331/446/312
f 309/447/313 311/448/3 323/449/314
f 8/29/6 10/12/11 315/450/311
f 3/451/4 1/452/315 308/453/316
f 7/454/7 312/455/317 314/456/9
f 4/2/2 3/457/4 317/458/318
f 7/459/7 8/29/6 318/460/319
f 1/461/315 2/1/1 316/462/320
f 314/456/9 326/463/321 331/446/312
f 318/464/319 313/465/322 325/466/323
f 324/467/324 336/468/325 338/469/326
f 330/470/327 325/466/323 337/471/328
f 324/467/324 330/470/327 342/472/329
f 322/473/330 334/474/331 341/475/332
f 309/447/313 321/476/333 328/477/334
f 310/478/335 322/473/330 329/479/336
f 316/480/320 328/477/334 320/481/337
f 312/455/317 318/464/319 330/470/327
f 311/448/3 317/482/318 329/479/336
f 312/455/317 324/467/324 326/463/321
f 315/444/311 327/483/338 325/466/323
f 310/478/335 308/453/316 320/481/337
f 343/484/339 355/485/340 351/486/341
f 336/468/325 348/487/342 350/488/343
f 342/472/329 337/471/328 349/489/344
f 342/472/329 354/490/345 348/487/342
f 331/446/312 343/484/339 339/491/346
f 325/466/323 327/483/338 339/491/346
f 322/473/330 320/481/337 332/492/347
f 326/463/321 338/469/326 343/484/339
f 323/449/314 335/493/348 333/494/349
f 320/481/337 328/477/334 340/495/350
f 328/477/334 321/476/333 333/494/349
f 329/479/336 341/475/332 335/493/348
f 345/496/351 368/497/352 371/498/353
f 351/486/341 355/485/340 361/499/354
f 347/500/355 353/501/356 372/502/357
f 351/486/341 359/503/358 357/504/359
f 339/491/346 351/486/341 349/489/344
f 334/474/331 332/492/347 344/505/360
f 338/469/326 350/488/343 355/485/340
f 333/494/349 335/493/348 347/500/355
f 332/492/347 340/495/350 352/506/361
f 340/495/350 333/494/349 345/496/351
f 335/493/348 341/475/332 353/501/356
f 341/475/332 334/474/331 346/507/362
f 361/499/354 367/508/363 365/509/364
f 357/504/359 359/503/358 365/509/364
f 348/487/342 356/510/365 358/511/366
f 349/489/344 357/504/359 360/512/367
f 354/490/345 360/512/367 356/510/365
f 355/485/340 350/488/343 358/511/366
f 366/513/368 363/514/369 365/509/364
f 352/506/361 371/498/353 364/515/370
f 360/512/367 357/504/359 363/514/369
f 356/510/365 360/512/367 366/513/368
f 362/516/371 366/513/368 367/508/363
f 358/511/366 356/510/365 362/516/371
f 358/511/366 362/516/371 367/508/363
f 345/496/351 347/500/355 370/517/372
f 346/507/362 344/505/360 364/515/370
f 353/501/356 346/507/362 369/518/373
f 376/519/374 374/520/375 375/521/376
f 370/517/372 375/521/376 374/520/375
f 372/502/357 377/522/377 375/521/376
f 364/515/370 371/498/353 376/519/374
f 371/498/353 368/497/352 374/520/375
f 369/518/373 364/515/370 373/523/378
f 369/518/373 373/523/378 377/522/377
f 373/523/378 376/519/374 377/522/377
f 309/524/313 2/1/1 311/3/3
f 5/525/379 3/4/4 6/6/5
f 5/525/379 6/6/5 7/8/7
f 10/12/11 9/9/8 319/11/10
f 319/11/10 315/450/311 10/12/11
f 9/9/8 10/12/11 11/14/13
f 12/13/12 239/526/269 242/15/14
f 242/15/14 238/371/246 11/14/13
f 6/6/5 4/5/2 19/17/16
f 1/461/315 15/18/17 2/1/1
f 246/386/256 15/20/17 244/22/20
f 15/20/17 1/452/315 7/454/7
f 3/451/4 5/527/379 7/454/7
f 7/454/7 9/23/8 15/20/17
f 11/24/13 13/21/19 15/20/17
f 1/452/315 3/451/4 7/454/7
f 31/50/29 23/25/21 30/27/23
f 20/45/25 8/7/6 19/17/16
f 18/528/15 4/2/2 17/28/24
f 10/12/11 8/29/6 21/31/26
f 22/26/22 12/13/12 21/31/26
f 14/372/27 12/13/12 23/25/21
f 24/34/28 16/19/18 23/33/21
f 2/1/1 16/19/18 17/28/24
f 32/41/35 31/35/29 40/37/31
f 19/17/16 18/16/15 27/39/33
f 30/27/23 22/26/22 29/40/34
f 17/28/24 24/34/28 25/42/36
f 18/528/15 17/28/24 26/43/32
f 29/40/34 21/31/26 28/44/37
f 24/34/28 23/33/21 32/41/35
f 28/48/37 20/45/25 27/39/33
f 33/54/44 40/37/31 41/47/39
f 36/63/45 28/48/37 35/49/40
f 39/65/30 31/50/29 38/51/41
f 27/39/33 26/38/32 35/49/40
f 38/51/41 30/27/23 37/53/43
f 25/42/36 32/41/35 33/54/44
f 26/43/32 25/42/36 34/55/42
f 37/53/43 29/40/34 36/56/45
f 43/64/51 42/57/46 51/59/48
f 34/55/42 33/54/44 42/60/46
f 45/67/53 37/53/43 44/61/49
f 40/37/31 39/36/30 48/46/38
f 44/76/49 36/63/45 43/64/51
f 47/529/50 39/65/30 46/66/52
f 35/49/40 34/52/42 43/64/51
f 46/66/52 38/51/41 45/67/53
f 60/530/67 52/68/54 59/69/55
f 54/77/60 46/66/52 53/70/56
f 41/47/39 48/46/38 49/72/58
f 42/60/46 41/47/39 50/73/47
f 53/70/56 45/67/53 52/74/54
f 56/71/57 48/46/38 55/75/59
f 52/68/54 44/76/49 51/59/48
f 47/529/50 46/66/52 55/78/59
f 67/531/70 59/79/55 66/81/62
f 63/532/68 55/82/59 62/84/63
f 51/59/48 50/58/47 59/69/55
f 62/94/63 54/77/60 61/86/64
f 49/72/58 56/71/57 57/88/66
f 50/73/47 49/72/58 58/80/61
f 61/86/64 53/70/56 60/89/67
f 56/71/57 55/75/59 64/87/65
f 76/112/77 68/91/69 75/93/71
f 70/101/76 62/94/63 69/95/72
f 57/88/66 64/87/65 65/97/74
f 66/81/62 58/80/61 65/97/74
f 61/86/64 60/89/67 69/95/72
f 64/87/65 63/90/68 72/96/73
f 60/89/67 59/99/55 68/91/69
f 71/533/75 63/100/68 70/101/76
f 77/126/83 76/102/77 85/104/79
f 71/533/75 70/101/76 79/106/81
f 67/531/70 66/81/62 75/108/71
f 70/101/76 69/95/72 78/105/80
f 73/111/85 65/97/74 80/110/84
f 74/107/82 66/81/62 73/111/85
f 69/95/72 68/91/69 77/109/83
f 80/110/84 72/96/73 79/113/81
f 94/153/94 86/114/86 93/116/87
f 80/128/84 79/117/81 88/119/89
f 76/102/77 75/120/71 84/103/78
f 87/118/88 79/117/81 86/123/86
f 83/121/90 75/120/71 82/125/91
f 78/122/80 77/126/83 86/123/86
f 81/129/92 73/127/85 88/119/89
f 82/125/91 74/124/82 81/129/92
f 103/534/102 95/130/93 102/132/95
f 81/137/92 88/133/89 89/135/97
f 90/535/100 82/136/91 89/135/97
f 85/115/79 84/138/78 93/116/87
f 88/536/89 87/140/88 96/142/96
f 84/537/78 83/143/90 92/145/98
f 95/130/93 87/118/88 94/131/94
f 83/143/90 82/146/91 91/144/99
f 112/538/109 104/148/101 111/150/103
f 91/144/99 90/147/100 99/152/105
f 102/167/95 94/153/94 101/154/106
f 89/135/97 96/134/96 97/156/107
f 90/535/100 89/135/97 98/157/104
f 101/154/106 93/116/87 100/158/108
f 96/142/96 95/141/93 104/148/101
f 100/539/108 92/145/98 99/152/105
f 105/169/117 112/159/109 113/161/111
f 100/539/108 99/152/105 108/163/113
f 103/149/102 102/164/95 111/150/103
f 107/162/112 99/152/105 106/166/115
f 110/183/114 102/167/95 109/168/116
f 105/169/117 97/156/107 112/159/109
f 98/157/104 97/156/107 106/170/115
f 101/154/106 100/158/108 109/168/116
f 123/184/125 115/172/118 122/174/120
f 114/173/119 106/166/115 113/176/111
f 109/168/116 108/171/113 117/178/122
f 112/538/109 111/150/103 120/180/110
f 108/163/113 107/162/112 116/181/121
f 119/179/123 111/150/103 118/182/124
f 115/172/118 107/162/112 114/173/119
f 118/540/124 110/183/114 117/178/122
f 132/357/133 124/186/127 222/185/126
f 123/184/125 131/200/139 222/185/126
f 118/540/124 117/178/122 126/188/129
f 121/191/131 113/161/111 128/189/130
f 122/203/120 114/190/119 121/191/131
f 125/187/128 117/178/122 124/192/127
f 120/180/110 119/179/123 128/174/130
f 124/186/127 116/181/121 123/184/125
f 127/193/132 119/179/123 126/186/129
f 141/207/144 133/196/135 140/195/134
f 132/194/133 225/541/151 140/195/134
f 135/204/142 127/193/132 134/197/136
f 131/200/139 123/184/125 122/174/120
f 122/174/120 130/198/137 131/200/139
f 134/218/136 126/188/129 133/196/135
f 121/191/131 128/189/130 129/202/141
f 130/222/137 122/203/120 129/202/141
f 125/187/128 124/192/127 133/196/135
f 128/174/130 127/193/132 136/205/140
f 150/246/165 142/206/143 149/208/145
f 136/205/140 135/204/142 144/210/147
f 143/209/146 135/204/142 142/214/143
f 142/206/143 134/218/136 141/207/144
f 129/202/141 136/201/140 137/220/154
f 227/542/149 130/222/137 138/221/155
f 129/202/141 137/220/154 138/221/155
f 137/220/154 144/219/147 145/224/157
f 379/227/160 141/207/144 140/195/134
f 140/195/134 154/225/158 379/227/160
f 144/210/147 143/209/146 152/229/156
f 148/232/164 140/366/134 224/365/242
f 224/365/242 139/230/162 148/232/164
f 151/228/161 143/209/146 150/233/165
f 147/231/163 139/230/162 223/234/166
f 223/234/166 138/355/155 146/235/167
f 378/238/169 137/543/154 145/236/157
f 145/236/157 156/253/180 158/237/168
f 148/239/164 149/208/145 154/225/158
f 156/253/180 145/236/157 155/241/171
f 205/322/225 150/246/165 206/247/175
f 182/317/195 153/245/174 203/248/176
f 154/225/158 159/240/170 183/251/178
f 170/266/190 164/254/181 166/256/183
f 159/544/170 157/242/159 186/257/177
f 159/544/170 149/249/145 157/242/159
f 379/259/160 157/242/159 149/249/145
f 169/264/188 167/260/184 175/262/186
f 171/275/199 165/263/187 175/262/186
f 168/268/192 162/265/189 170/266/190
f 163/343/179 161/267/191 169/264/188
f 167/260/184 161/267/191 168/268/192
f 205/322/225 206/247/175 207/270/194
f 202/315/223 182/271/195 180/273/197
f 173/261/185 167/260/184 174/274/198
f 172/276/200 166/256/183 171/275/199
f 170/266/190 166/256/183 176/277/201
f 174/274/198 168/268/192 176/277/201
f 188/545/173 184/290/172 194/292/210
f 189/546/215 183/293/178 192/295/211
f 164/344/181 158/237/168 160/296/182
f 191/547/216 193/297/212 197/283/203
f 192/295/211 194/298/210 198/286/207
f 186/294/177 188/299/173 192/295/211
f 191/547/216 185/300/213 193/297/212
f 187/548/214 183/302/178 193/304/212
f 190/291/209 184/290/172 191/306/216
f 206/319/175 204/307/217 208/309/193
f 208/309/193 178/308/218 214/311/220
f 199/281/205 193/304/212 195/282/206
f 196/278/202 190/291/209 197/279/203
f 189/303/215 192/312/211 195/282/206
f 200/289/208 194/292/210 196/278/202
f 180/273/197 181/272/196 211/314/222
f 145/224/157 152/223/156 203/316/176
f 202/549/223 152/229/156 182/317/195
f 181/331/196 182/317/195 179/318/224
f 149/249/145 153/245/174 206/319/175
f 153/245/174 150/233/165 204/307/217
f 178/329/218 204/321/217 207/270/194
f 179/334/224 203/316/176 180/273/197
f 217/337/234 211/324/222 218/326/227
f 214/311/220 209/310/219 220/328/229
f 209/550/219 178/329/218 213/330/230
f 212/325/221 181/331/196 210/332/231
f 207/270/194 208/269/193 213/330/230
f 210/551/231 179/334/224 211/314/222
f 215/327/228 209/310/219 219/335/232
f 218/326/227 212/325/221 216/336/233
f 219/552/232 213/330/230 220/339/229
f 210/551/231 211/314/222 216/341/233
f 165/263/187 156/342/180 169/264/188
f 160/255/182 156/342/180 166/256/183
f 184/553/172 157/226/159 185/346/213
f 155/554/171 138/221/155 378/351/169
f 378/351/169 158/352/168 155/554/171
f 155/554/171 158/352/168 161/354/191
f 245/377/250 247/367/243 257/369/245
f 240/555/248 13/370/19 238/371/246
f 239/526/269 12/13/12 241/373/247
f 14/374/27 13/21/19 240/375/248
f 243/376/249 241/402/247 14/374/27
f 248/385/255 245/377/250 260/378/251
f 238/398/246 242/379/14 250/381/253
f 14/32/27 16/19/18 245/383/250
f 247/382/243 16/19/18 249/384/254
f 15/18/17 246/556/256 249/384/254
f 244/22/20 13/21/19 248/385/255
f 14/374/27 245/377/250 248/385/255
f 258/391/261 246/386/256 256/387/257
f 254/380/252 251/388/258 266/390/260
f 261/400/268 258/391/261 273/393/263
f 267/412/279 255/394/264 264/396/266
f 269/405/272 257/369/245 271/397/267
f 240/375/248 238/398/246 252/395/265
f 259/368/244 247/367/243 261/400/268
f 261/400/268 249/399/254 258/391/261
f 254/380/252 242/379/14 251/388/258
f 251/388/258 239/401/269 253/403/270
f 253/403/270 241/402/247 255/394/264
f 243/376/249 240/375/248 255/394/264
f 256/387/257 244/22/20 260/378/251
f 284/424/291 272/404/271 281/406/273
f 278/427/294 266/390/260 275/407/274
f 273/393/263 270/392/262 285/409/276
f 267/412/279 264/396/266 279/411/278
f 272/404/271 260/378/251 269/405/272
f 253/403/270 255/394/264 265/413/280
f 259/368/244 261/400/268 271/397/267
f 262/415/282 250/381/253 266/390/260
f 256/387/257 260/378/251 268/414/281
f 264/396/266 252/395/265 262/415/282
f 258/391/261 256/387/257 270/392/262
f 251/388/258 253/403/270 263/389/259
f 275/407/274 277/416/283 287/418/285
f 294/434/301 282/408/275 292/420/287
f 276/410/277 274/421/288 288/423/290
f 280/419/286 284/424/291 292/420/287
f 265/413/280 267/412/279 277/416/283
f 271/397/267 273/393/263 283/426/293
f 274/421/288 262/415/282 278/427/294
f 268/414/281 272/404/271 280/419/286
f 276/410/277 264/396/266 274/421/288
f 282/408/275 270/392/262 280/419/286
f 263/389/259 265/413/280 275/407/274
f 269/405/272 271/397/267 281/406/273
f 304/439/306 293/428/295 305/430/297
f 287/418/285 289/417/284 299/432/299
f 293/428/295 281/406/273 295/429/296
f 291/436/303 279/411/278 288/423/290
f 297/437/304 285/409/276 294/434/301
f 278/427/294 275/407/274 290/435/302
f 296/425/292 284/424/291 293/428/295
f 289/417/284 277/416/283 291/436/303
f 283/426/293 285/409/276 295/429/296
f 274/421/288 278/427/294 286/422/289
f 302/441/308 301/438/305 300/431/298
f 306/442/309 304/439/306 307/440/307
f 291/436/303 288/423/290 302/441/308
f 301/438/305 290/435/302 299/432/299
f 306/442/309 296/425/292 304/439/306
f 289/417/284 291/436/303 300/431/298
f 295/429/296 297/437/304 305/430/297
f 298/433/300 286/422/289 301/438/305
f 303/443/310 292/420/287 306/442/309
f 297/437/304 294/434/301 307/440/307
f 327/483/338 315/444/311 331/446/312
f 321/476/333 309/447/313 323/449/314
f 313/557/322 8/29/6 315/450/311
f 310/478/335 3/451/4 308/453/316
f 9/23/8 7/454/7 314/456/9
f 3/457/4 310/558/335 317/458/318
f 317/458/318 311/3/3 4/2/2
f 8/29/6 313/557/322 318/460/319
f 318/460/319 312/559/317 7/459/7
f 2/1/1 309/524/313 316/462/320
f 316/462/320 308/560/316 1/461/315
f 319/445/10 314/456/9 331/446/312
f 330/470/327 318/464/319 325/466/323
f 326/463/321 324/467/324 338/469/326
f 342/472/329 330/470/327 337/471/328
f 336/468/325 324/467/324 342/472/329
f 329/479/336 322/473/330 341/475/332
f 316/480/320 309/447/313 328/477/334
f 317/482/318 310/478/335 329/479/336
f 308/453/316 316/480/320 320/481/337
f 324/467/324 312/455/317 330/470/327
f 323/449/314 311/448/3 329/479/336
f 314/456/9 312/455/317 326/463/321
f 313/465/322 315/444/311 325/466/323
f 322/473/330 310/478/335 320/481/337
f 339/491/346 343/484/339 351/486/341
f 338/469/326 336/468/325 350/488/343
f 354/490/345 342/472/329 349/489/344
f 336/468/325 342/472/329 348/487/342
f 327/483/338 331/446/312 339/491/346
f 337/471/328 325/466/323 339/491/346
f 334/474/331 322/473/330 332/492/347
f 331/446/312 326/463/321 343/484/339
f 321/476/333 323/449/314 333/494/349
f 332/492/347 320/481/337 340/495/350
f 340/495/350 328/477/334 333/494/349
f 323/449/314 329/479/336 335/493/348
f 352/506/361 345/496/351 371/498/353
f 359/503/358 351/486/341 361/499/354
f 370/517/372 347/500/355 372/502/357
f 349/489/344 351/486/341 357/504/359
f 337/471/328 339/491/346 349/489/344
f 346/507/362 334/474/331 344/505/360
f 343/484/339 338/469/326 355/485/340
f 345/496/351 333/494/349 347/500/355
f 344/505/360 332/492/347 352/506/361
f 352/506/361 340/495/350 345/496/351
f 347/500/355 335/493/348 353/501/356
f 353/501/356 341/475/332 346/507/362
f 359/503/358 361/499/354 365/509/364
f 363/514/369 357/504/359 365/509/364
f 350/488/343 348/487/342 358/511/366
f 354/490/345 349/489/344 360/512/367
f 348/487/342 354/490/345 356/510/365
f 361/499/354 355/485/340 358/511/366
f 367/508/363 366/513/368 365/509/364
f 344/505/360 352/506/361 364/515/370
f 366/513/368 360/512/367 363/514/369
f 362/516/371 356/510/365 366/513/368
f 361/499/354 358/511/366 367/508/363
f 368/497/352 345/496/351 370/517/372
f 369/518/373 346/507/362 364/515/370
f 372/502/357 353/501/356 369/518/373
f 377/522/377 376/519/374 375/521/376
f 368/497/352 370/517/372 374/520/375
f 370/517/372 372/502/357 375/521/376
f 373/523/378 364/515/370 376/519/374
f 376/519/374 371/498/353 374/520/375
f 372/502/357 369/518/373 377/522/377
