v -0.060044 -0.172851 0.006006
v 0.126255 -0.129645 0.027701
v -0.000369 -0.080908 0.164214
v -0.163594 -0.027211 0.077500
v -0.137845 -0.042763 -0.112606
v 0.041290 -0.106071 -0.143381
v 0.137845 0.042699 0.112606
v -0.041290 0.106007 0.143381
v -0.126255 0.129581 -0.027701
v 0.000369 0.080844 -0.164214
v 0.163594 0.027147 -0.077500
v 0.060044 0.172787 -0.006006
vt 0.386864 0.162439
vt 0.420370 0.171564
vt 0.404543 0.178763
vt 0.457854 0.162439
vt 0.437234 0.176672
vt 0.391864 0.186615
vt 0.379156 0.185491
vt 0.450146 0.185491
vt 0.427359 0.193267
vt 0.414651 0.194392
vt 0.401739 0.203211
vt 0.384875 0.208318
vt 0.440037 0.201119
vt 0.455865 0.208318
vt 0.422359 0.217443
vn 0.150900 -0.878400 0.453600
vn 0.246400 -0.936000 -0.251300
vn -0.513300 -0.643600 0.567700
vn -0.828400 -0.556200 -0.066700
vn -0.358900 -0.736900 -0.572900
vn 0.758800 -0.477700 -0.442700
vn 0.604400 -0.384400 0.697800
vn -0.470300 -0.004600 0.882500
vn -0.980100 0.136800 -0.143900
vn -0.220400 -0.155600 -0.962900
vn 0.980100 -0.136800 0.143900
vn 0.220400 0.155600 0.962900
vn -0.758800 0.477700 0.442700
vn -0.604400 0.384400 -0.697800
vn 0.470300 0.004600 -0.882500
vn 0.828400 0.556200 0.066700
vn 0.358900 0.736900 0.572900
vn -0.246400 0.936000 0.251300
vn -0.150900 0.878400 -0.453600
vn 0.513300 0.643600 -0.567700
s off
f 1/1/1 2/2/1 3/3/1
f 2/2/2 1/4/2 6/5/2
f 1/1/3 3/3/3 4/6/3
f 1/1/4 4/6/4 5/7/4
f 1/4/5 5/8/5 6/5/5
f 2/2/6 6/5/6 11/9/6
f 3/3/7 2/2/7 7/10/7
f 4/6/8 3/3/8 8/11/8
f 5/7/9 4/6/9 9/12/9
f 6/5/10 5/8/10 10/13/10
f 2/2/11 11/9/11 7/10/11
f 3/3/12 7/10/12 8/11/12
f 4/6/13 8/11/13 9/12/13
f 5/8/14 9/14/14 10/13/14
f 6/5/15 10/13/15 11/9/15
f 7/10/16 11/9/16 12/15/16
f 8/11/17 7/10/17 12/15/17
f 9/14/18 8/11/18 12/15/18
f 10/13/19 9/14/19 12/15/19
f 11/9/20 10/13/20 12/15/20
v -0.110941 -0.217129 0.117123
v 0.170500 -0.192100 0.084824
v 0.032752 -0.023164 0.267483
v -0.218826 0.043567 0.152876
v -0.236557 -0.084130 -0.100616
v 0.004059 -0.229778 -0.142672
v 0.236557 0.084066 0.100616
v -0.004059 0.229715 0.142672
v -0.170500 0.192036 -0.084824
v -0.032752 0.023100 -0.267483
v 0.218826 -0.043631 -0.152876
v 0.110941 0.217065 -0.117123
vt 0.436894 0.681291
vt 0.490014 0.689372
vt 0.461930 0.729426
vt 0.615623 0.681291
vt 0.547019 0.676559
vt 0.431128 0.743508
vt 0.402342 0.716310
vt 0.581071 0.716310
vt 0.520492 0.725087
vt 0.491707 0.752285
vt 0.457655 0.792036
vt 0.400650 0.779223
vt 0.551294 0.739169
vt 0.372565 0.739169
vt 0.526258 0.787304
vt 0.579379 0.779223
vn 0.143200 -0.670400 0.728000
vn 0.098700 -0.990900 0.091900
vn -0.460600 -0.304900 0.833600
vn -0.878300 -0.399500 0.262700
vn -0.532600 -0.823400 -0.195700
vn 0.610100 -0.721800 -0.326800
vn 0.682100 -0.203300 0.702400
vn -0.294900 0.388100 0.873200
vn -0.970700 0.235100 -0.050500
vn -0.411400 -0.450900 -0.792200
vn 0.970700 -0.235100 0.050500
vn 0.411400 0.450900 0.792200
vn -0.610100 0.721800 0.326800
vn -0.682100 0.203300 -0.702400
vn 0.294900 -0.388100 -0.873200
vn 0.878300 0.399500 -0.262700
vn 0.532600 0.823400 0.195700
vn -0.098700 0.990900 -0.091900
vn -0.143200 0.670400 -0.728000
vn 0.460600 0.304900 -0.833600
s off
f 13/16/21 14/17/21 15/18/21
f 14/17/22 13/19/22 18/20/22
f 13/16/23 15/18/23 16/21/23
f 13/16/24 16/21/24 17/22/24
f 13/19/25 17/23/25 18/20/25
f 14/17/26 18/20/26 23/24/26
f 15/18/27 14/17/27 19/25/27
f 16/21/28 15/18/28 20/26/28
f 17/22/29 16/21/29 21/27/29
f 18/20/30 17/23/30 22/28/30
f 14/17/31 23/24/31 19/25/31
f 15/18/32 19/25/32 20/26/32
f 16/21/33 20/26/33 21/27/33
f 17/22/34 21/27/34 22/29/34
f 18/20/35 22/28/35 23/24/35
f 19/25/36 23/24/36 24/30/36
f 20/26/37 19/25/37 24/30/37
f 21/31/38 20/26/38 24/30/38
f 22/28/39 21/31/39 24/30/39
f 23/24/40 22/28/40 24/30/40
v 0.000000 -0.190446 0.000000
v 0.137800 -0.085175 0.100117
v -0.052634 -0.085175 0.161993
v -0.170332 -0.085175 0.000000
v -0.052634 -0.085175 -0.161993
v 0.137800 -0.085175 -0.100117
v 0.052634 0.085158 0.161993
v -0.137800 0.085158 0.100117
v -0.137800 0.085158 -0.100117
v 0.052634 0.085158 -0.161993
v 0.170332 0.085158 0.000000
v 0.000000 0.190428 0.000000
vt 0.905377 0.256761
vt 0.937766 0.280058
vt 0.922307 0.282019
vt 0.877436 0.280458
vt 0.907458 0.283568
vt 0.892691 0.282639
vt 0.861617 0.280058
vt 0.869384 0.302369
vt 0.846158 0.282019
vt 0.854616 0.303299
vt 0.831309 0.283568
vt 0.839362 0.305479
vt 0.899691 0.305880
vt 0.884233 0.303919
vt 0.915511 0.305479
vt 0.867302 0.329177
vn 0.187600 -0.794700 0.577400
vn 0.607100 -0.794700 0.000000
vn -0.491100 -0.794700 0.356800
vn -0.491100 -0.794700 -0.356800
vn 0.187600 -0.794700 -0.577400
vn 0.982200 -0.187600 0.000000
vn 0.303500 -0.187600 0.934200
vn -0.794600 -0.187600 0.577400
vn -0.794600 -0.187600 -0.577400
vn 0.303500 -0.187600 -0.934200
vn 0.794600 0.187600 0.577400
vn -0.303500 0.187600 0.934200
vn -0.982200 0.187600 0.000000
vn -0.303500 0.187600 -0.934200
vn 0.794600 0.187600 -0.577400
vn 0.491100 0.794700 0.356800
vn -0.187600 0.794700 0.577400
vn -0.607100 0.794700 0.000000
vn -0.187600 0.794700 -0.577400
vn 0.491100 0.794700 -0.356800
s off
f 25/32/41 26/33/41 27/34/41
f 26/33/42 25/32/42 30/35/42
f 25/32/43 27/34/43 28/36/43
f 25/32/44 28/36/44 29/37/44
f 25/32/45 29/37/45 30/35/45
f 26/38/46 30/35/46 35/39/46
f 27/40/47 26/38/47 31/41/47
f 28/42/48 27/40/48 32/43/48
f 29/37/49 28/36/49 33/44/49
f 30/35/50 29/37/50 34/45/50
f 26/38/51 35/39/51 31/41/51
f 27/40/52 31/41/52 32/43/52
f 28/36/53 32/46/53 33/44/53
f 29/37/54 33/44/54 34/45/54
f 30/35/55 34/45/55 35/39/55
f 31/41/56 35/39/56 36/47/56
f 32/43/57 31/41/57 36/47/57
f 33/44/58 32/46/58 36/47/58
f 34/45/59 33/44/59 36/47/59
f 35/39/60 34/45/60 36/47/60
v 0.044516 -0.000218 -0.155209
v -0.061726 -0.116953 -0.092685
v -0.112105 0.044512 -0.107328
v 0.019954 0.144305 -0.069572
v 0.151949 0.044512 -0.031595
v 0.101468 -0.116953 -0.045880
v -0.151949 -0.044576 0.031595
v -0.101468 0.116889 0.045880
v 0.061726 0.116889 0.092685
v 0.112105 -0.044576 0.107328
v -0.019954 -0.144369 0.069572
v -0.044516 0.000154 0.155209
vt 0.628894 0.500204
vt 0.641274 0.475735
vt 0.644957 0.507635
vt 0.615973 0.476930
vt 0.629693 0.532761
vt 0.612931 0.509033
vt 0.675913 0.467239
vt 0.659152 0.490967
vt 0.662194 0.523070
vt 0.595053 0.524265
vt 0.598736 0.492365
vt 0.583472 0.467239
vt 0.566711 0.490967
vt 0.582673 0.499796
vt 0.569753 0.523070
vn -0.336000 -0.188500 -0.922800
vn 0.218900 -0.608000 -0.763200
vn -0.123800 0.490200 -0.862800
vn 0.562200 0.490200 -0.666000
vn 0.774000 -0.188500 -0.604500
vn 0.051400 -0.982500 -0.179200
vn -0.846300 -0.303800 -0.437500
vn -0.503000 0.794400 -0.340400
vn 0.607000 0.794400 -0.022000
vn 0.949600 -0.303800 0.077600
vn -0.607000 -0.794400 0.022000
vn -0.949600 0.303800 -0.077600
vn -0.051400 0.982500 0.179200
vn 0.846300 0.303800 0.437500
vn 0.503000 -0.794400 0.340400
vn -0.562200 -0.490200 0.666000
vn -0.774000 0.188500 0.604500
vn -0.218900 0.608000 0.763200
vn 0.336000 0.188500 0.922800
vn 0.123800 -0.490200 0.862800
s off
f 37/48/61 38/49/61 39/50/61
f 38/49/62 37/48/62 42/51/62
f 37/48/63 39/50/63 40/52/63
f 37/48/64 40/52/64 41/53/64
f 37/48/65 41/53/65 42/51/65
f 38/49/66 42/51/66 47/54/66
f 39/50/67 38/49/67 43/55/67
f 40/52/68 39/50/68 44/56/68
f 41/53/69 40/52/69 45/57/69
f 42/51/70 41/53/70 46/58/70
f 38/49/71 47/54/71 43/55/71
f 39/50/72 43/55/72 44/56/72
f 40/52/73 44/56/73 45/57/73
f 41/53/74 45/57/74 46/58/74
f 42/51/75 46/58/75 47/59/75
f 43/60/76 47/59/76 48/61/76
f 44/62/77 43/60/77 48/61/77
f 45/57/78 44/62/78 48/61/78
f 46/58/79 45/57/79 48/61/79
f 47/59/80 46/58/80 48/61/80
v 0.000000 -0.248403 0.000000
v 0.179738 -0.111095 0.130586
v -0.068653 -0.111095 0.211294
v -0.222170 -0.111095 0.000000
v -0.068653 -0.111095 -0.211294
v 0.179738 -0.111095 -0.130586
v 0.068653 0.111077 0.211294
v -0.179738 0.111077 0.130586
v -0.179738 0.111077 -0.130586
v 0.068653 0.111077 -0.211294
v 0.222170 0.111077 0.000000
v 0.000000 0.248386 0.000000
vt 0.359891 0.282727
vt 0.327086 0.313203
vt 0.401136 0.312724
vt 0.345696 0.314910
vt 0.382287 0.314155
vt 0.363934 0.315483
vt 0.335735 0.341499
vt 0.308033 0.312724
vt 0.317383 0.340170
vt 0.289183 0.314155
vt 0.299144 0.340744
vt 0.270831 0.315483
vt 0.280534 0.342450
vt 0.354584 0.342930
vt 0.373637 0.342450
vt 0.313339 0.372926
vn 0.187600 -0.794700 0.577400
vn 0.607100 -0.794700 0.000000
vn -0.491100 -0.794700 0.356800
vn -0.491100 -0.794700 -0.356800
vn 0.187600 -0.794700 -0.577400
vn 0.982200 -0.187600 0.000000
vn 0.303500 -0.187600 0.934200
vn -0.794600 -0.187600 0.577400
vn -0.794600 -0.187600 -0.577400
vn 0.303500 -0.187600 -0.934200
vn 0.794600 0.187600 0.577400
vn -0.303500 0.187600 0.934200
vn -0.982200 0.187600 0.000000
vn -0.303500 0.187600 -0.934200
vn 0.794600 0.187600 -0.577400
vn 0.491100 0.794700 0.356800
vn -0.187600 0.794700 0.577400
vn -0.607100 0.794700 0.000000
vn -0.187600 0.794700 -0.577400
vn 0.491100 0.794700 -0.356800
s off
f 49/63/81 50/64/81 51/65/81
f 50/64/82 49/63/82 54/66/82
f 49/63/83 51/65/83 52/67/83
f 49/63/84 52/67/84 53/68/84
f 49/63/85 53/68/85 54/66/85
f 50/64/86 54/66/86 59/69/86
f 51/70/87 50/64/87 55/71/87
f 52/72/88 51/70/88 56/73/88
f 53/74/89 52/72/89 57/75/89
f 54/66/90 53/68/90 58/76/90
f 50/64/91 59/69/91 55/71/91
f 51/70/92 55/71/92 56/73/92
f 52/72/93 56/73/93 57/75/93
f 53/68/94 57/77/94 58/76/94
f 54/66/95 58/76/95 59/69/95
f 55/71/96 59/69/96 60/78/96
f 56/73/97 55/71/97 60/78/97
f 57/75/98 56/73/98 60/78/98
f 58/76/99 57/77/99 60/78/99
f 59/69/100 58/76/100 60/78/100
v 0.000000 -0.130032 0.000000
v 0.094068 -0.058170 0.068344
v -0.035930 -0.058170 0.110583
v -0.116275 -0.058170 0.000000
v -0.035930 -0.058170 -0.110583
v 0.094068 -0.058170 -0.068344
v 0.035930 0.058106 0.110583
v -0.094068 0.058106 0.068344
v -0.094068 0.058106 -0.068344
v 0.035930 0.058106 -0.110583
v 0.116275 0.058106 0.000000
v 0.000000 0.129968 0.000000
vt 0.269486 0.323805
vt 0.288781 0.344408
vt 0.274896 0.349079
vt 0.304396 0.340507
vt 0.261308 0.348442
vt 0.247203 0.343279
vt 0.215595 0.344408
vt 0.231210 0.340507
vt 0.224715 0.363221
vt 0.201711 0.349079
vt 0.210610 0.368384
vt 0.267803 0.371157
vt 0.252188 0.367255
vt 0.238304 0.362585
vt 0.283795 0.368384
vt 0.232893 0.387859
vn 0.187600 -0.794700 0.577400
vn 0.607100 -0.794700 0.000000
vn -0.491100 -0.794700 0.356800
vn -0.491100 -0.794700 -0.356800
vn 0.187600 -0.794700 -0.577400
vn 0.982200 -0.187600 0.000000
vn 0.303500 -0.187600 0.934200
vn -0.794600 -0.187600 0.577400
vn -0.794600 -0.187600 -0.577400
vn 0.303500 -0.187600 -0.934200
vn 0.794600 0.187600 0.577400
vn -0.303500 0.187600 0.934200
vn -0.982200 0.187600 0.000000
vn -0.303500 0.187600 -0.934200
vn 0.794600 0.187600 -0.577400
vn 0.491100 0.794700 0.356800
vn -0.187600 0.794700 0.577400
vn -0.607100 0.794700 0.000000
vn -0.187600 0.794700 -0.577400
vn 0.491100 0.794700 -0.356800
s off
f 61/79/101 62/80/101 63/81/101
f 62/80/102 61/79/102 66/82/102
f 61/79/103 63/81/103 64/83/103
f 61/79/104 64/83/104 65/84/104
f 61/79/105 65/84/105 66/82/105
f 62/85/106 66/86/106 71/87/106
f 63/88/107 62/85/107 67/89/107
f 64/83/108 63/81/108 68/90/108
f 65/84/109 64/83/109 69/91/109
f 66/86/110 65/84/110 70/92/110
f 62/85/111 71/87/111 67/89/111
f 63/81/112 67/93/112 68/90/112
f 64/83/113 68/90/113 69/91/113
f 65/84/114 69/91/114 70/92/114
f 66/86/115 70/92/115 71/87/115
f 67/89/116 71/87/116 72/94/116
f 68/90/117 67/93/117 72/94/117
f 69/91/118 68/90/118 72/94/118
f 70/92/119 69/91/119 72/94/119
f 71/87/120 70/92/120 72/94/120
v 0.000000 -0.947426 0.000000
v 0.744688 -0.423676 0.541642
v -0.276388 -0.411792 0.850649
v -0.903776 -0.416037 0.000000
v -0.284440 -0.423677 -0.876404
v 0.744688 -0.423676 -0.541642
v 0.338671 0.504586 1.043497
v -0.870575 0.495362 0.632502
v -0.895938 0.509927 -0.651652
v 0.276388 0.411682 -0.850649
v 1.087337 0.500602 0.000000
v 0.000000 1.119294 0.000000
v -0.239604 -0.622931 0.738258
v -0.167188 -0.805924 0.515133
v -0.078418 -0.900468 0.241350
v 0.247003 -1.083291 0.179456
v 0.511708 -0.942227 0.371773
v 0.609547 -0.605406 0.442856
v 0.658625 -0.572450 0.845003
v 0.267728 -0.492973 0.824882
v -0.036698 -0.572451 1.071182
v 1.006285 -0.572449 -0.365956
v 0.850648 -0.484078 0.000000
v 0.977798 -0.556373 0.355202
v 0.247003 -1.083291 -0.179456
v 0.425323 -0.783217 -0.309011
v 0.746905 -0.741698 -0.543255
v -0.915945 -0.735844 0.000000
v -0.525730 -0.783215 0.000000
v -0.255790 -0.907625 0.000000
v -0.498071 -0.475866 0.738260
v -0.836619 -0.588353 0.607837
v -1.010293 -0.562121 0.290370
v -0.280109 -0.728301 -0.862100
v -0.199064 -0.959579 -0.613347
v -0.096089 -1.103251 -0.296065
v -1.028969 -0.572447 -0.296066
v -0.827964 -0.582331 -0.601548
v -0.483971 -0.462503 -0.716565
v -0.036698 -0.572451 -1.071182
v 0.316259 -0.582333 -0.973325
v 0.658625 -0.572450 -0.845003
v 1.150921 0.278186 0.177600
v 0.961000 -0.000000 0.312243
v 0.885773 -0.237905 0.456266
v 1.046334 -0.281029 -0.538374
v 0.951058 -0.000055 -0.309013
v 1.150921 0.278186 -0.177600
v 0.155215 0.231170 0.955422
v 0.000000 -0.000000 1.019617
v -0.190192 -0.283265 1.172022
v 0.687159 -0.231280 0.681715
v 0.720240 0.000066 0.992426
v 0.436007 0.231171 0.864188
v -0.876609 0.235499 0.451545
v -0.951058 -0.000055 0.309013
v -1.150921 -0.278186 0.177600
v -0.530045 -0.281031 1.050577
v -0.587786 -0.000055 0.809017
v -0.850809 0.286426 0.845007
v -0.842007 0.283397 -0.836265
v -0.604910 0.000056 -0.833511
v -0.534259 -0.283265 -1.060105
v -1.184451 -0.286157 -0.182977
v -1.144222 0.000000 -0.371774
v -0.885773 0.238016 -0.456266
v 0.539844 0.286426 -1.071187
v 0.707167 -0.000000 -0.973332
v 0.835366 -0.281031 -0.828749
v -0.155215 -0.231280 -0.955422
v 0.000000 0.000000 -1.203104
v 0.186740 0.278188 -1.149472
v 0.831051 0.462391 0.238853
v 0.836619 0.588485 0.607837
v 0.489031 0.467283 0.724055
v 0.029949 0.467283 0.873218
v -0.322105 0.593164 0.992420
v -0.646671 0.562256 0.828745
v -0.988020 0.562255 0.358915
v -1.042337 0.593162 0.000000
v -0.977798 0.556373 -0.355202
v -0.646671 0.562256 -0.828745
v -0.270527 0.498182 -0.833506
v 0.029949 0.467283 -0.873218
v 0.498071 0.475977 -0.738260
v 0.827964 0.582331 -0.601548
v 0.846414 0.470995 -0.243539
v 0.096089 1.103517 0.296065
v 0.199064 0.959711 0.613347
v 0.239604 0.623043 0.738258
v 0.915945 0.735975 0.000000
v 0.525730 0.783106 0.000000
v 0.310959 1.103516 0.000000
v -0.244448 1.072149 0.177600
v -0.425323 0.783108 0.309011
v -0.627305 0.623042 0.456265
v -0.248967 1.092035 -0.181084
v -0.521167 0.959710 -0.379066
v -0.733348 0.728300 -0.532802
v 0.096089 1.103517 -0.296065
v 0.195451 0.942227 -0.601546
v 0.235255 0.611679 -0.724054
v 0.053342 -0.673164 0.695379
v 0.171111 -1.019444 0.527198
v 0.443336 -0.816258 0.721032
v 0.670817 -0.666254 -0.162457
v 0.677830 -0.673163 0.164156
v 0.460240 -0.847399 0.000001
v -0.767815 -0.801505 0.316252
v -0.368490 -0.838687 0.268021
v -0.451886 -0.673163 0.531224
v -0.538041 -0.801508 -0.632505
v -0.368490 -0.838687 -0.268019
v -0.656787 -0.685551 -0.270821
v 0.443334 -0.816259 -0.721033
v 0.139641 -0.832073 -0.429768
v 0.063511 -0.801507 -0.827960
v 1.010454 0.000000 0.000000
v 1.151510 -0.309285 0.197497
v 1.151510 -0.309285 -0.197497
v 0.382611 0.000133 1.178863
v 0.166268 -0.306152 1.144218
v 0.547994 -0.311746 1.043496
v -0.991327 0.000066 0.721038
v -0.861803 -0.254522 0.425324
v -0.670819 -0.254522 0.688191
v -0.983509 0.000066 -0.714557
v -0.815502 -0.309286 -0.836621
v -0.870812 -0.257127 -0.429770
v 0.375666 0.000066 -1.156182
v 0.447216 -0.254523 -0.850648
v 0.166268 -0.306152 -1.144218
v 0.690364 0.261936 0.709026
v 0.983509 0.000064 0.714557
v 0.861804 0.254410 0.425323
v -0.455483 0.259172 0.867336
v -0.314730 -0.000001 0.969714
v -0.139644 0.257127 0.960997
v -0.964724 0.259171 -0.165645
v -1.018486 0.000001 0.000000
v -1.151509 0.309417 0.197497
v -0.142225 0.261937 -0.979850
v -0.375666 0.000065 -1.156182
v -0.460244 0.261937 -0.876403
v 0.870813 0.257127 -0.429768
v 0.817477 0.000000 -0.593927
v 0.677833 0.257128 -0.695383
v 0.365582 0.832073 0.265611
v 0.538039 0.801508 0.632506
v 0.638194 0.666144 0.262864
v -0.168004 1.001137 0.517053
v -0.368492 0.678516 0.599309
v -0.052790 0.666146 0.688185
v -0.543665 1.001136 0.000000
v -0.683217 0.678515 -0.165644
v -0.830575 0.824990 0.201370
v -0.139642 0.832074 -0.429766
v -0.063511 0.801509 -0.827958
v -0.372344 0.685665 -0.605574
v 0.447965 1.019709 -0.325827
v 0.790182 0.824990 -0.325828
v 0.553714 0.824991 -0.651656
vt 0.377882 0.000000
vt 0.650001 0.087438
vt 0.450001 0.087438
vt 0.650001 0.362676
vt 0.650001 0.284555
vt 0.694543 0.343676
vt 0.250000 0.087439
vt 0.049999 0.087438
vt 1.049999 0.087438
vt 0.849999 0.087438
vt 0.674369 0.425361
vt 0.450001 0.362676
vt 0.494544 0.343675
vt 0.474368 0.425360
vt 0.250000 0.362677
vt 0.294542 0.343676
vt 0.274367 0.425361
vt 0.049999 0.362676
vt 0.094543 0.343675
vt 0.074367 0.425360
vt 0.849999 0.362676
vt 0.894542 0.343675
vt 0.874367 0.425360
vt 0.625633 0.425360
vt 0.425633 0.425360
vt 0.225633 0.425361
vt 0.025632 0.425360
vt 0.825631 0.425361
vt 0.549999 0.637324
vt 0.594543 0.656325
vt 0.549999 0.715446
vt 0.349999 0.637324
vt 0.394542 0.656325
vt 0.349999 0.715446
vt 0.150001 0.637324
vt 0.194543 0.656324
vt 0.150001 0.715446
vt 0.950001 0.637324
vt 0.994544 0.656325
vt 0.950001 0.715446
vt 0.750000 0.637323
vt 0.794542 0.656324
vt 0.750000 0.715444
vt 0.450001 0.284554
vt 0.450001 0.188183
vt 0.512185 0.255633
vt 0.550001 0.158365
vt 0.550001 0.335332
vt 0.587817 0.255634
vt 0.605458 0.343675
vt 0.650001 0.188183
vt 0.805457 0.343676
vt 0.849999 0.284554
vt 0.750000 0.335333
vt 0.787816 0.255634
vt 0.712184 0.255634
vt 0.849999 0.188183
vt 0.750000 0.158365
vt 0.250000 0.284556
vt 0.250000 0.188184
vt 0.312184 0.255634
vt 0.350000 0.158365
vt 0.350000 0.335333
vt 0.387816 0.255634
vt 0.405458 0.343675
vt 0.049999 0.284554
vt 0.049999 0.188182
vt 0.112184 0.255633
vt 0.150000 0.158365
vt 0.150000 0.335333
vt 0.187817 0.255634
vt 0.205458 0.343676
vt 0.912183 0.255633
vt 0.949999 0.158365
vt 0.949999 0.335332
vt 0.987815 0.255634
vt 1.005456 0.343675
vt 1.049999 0.188182
vt 1.049999 0.284554
vt 0.005456 0.343675
vt 0.725633 0.574639
vt 0.774367 0.574639
vt 0.700001 0.500000
vt 0.750000 0.500000
vt 0.722966 0.417608
vt 0.799999 0.500000
vt 0.777034 0.417608
vt 0.525632 0.574640
vt 0.574367 0.574640
vt 0.500000 0.500000
vt 0.550000 0.500000
vt 0.522966 0.417608
vt 0.600000 0.500000
vt 0.577035 0.417608
vt 0.325631 0.574639
vt 0.374367 0.574640
vt 0.299999 0.500000
vt 0.350000 0.500000
vt 0.322966 0.417608
vt 0.400000 0.500000
vt 0.377034 0.417608
vt 0.125633 0.574640
vt 0.174369 0.574639
vt 0.100000 0.500000
vt 0.150000 0.500000
vt 0.122966 0.417608
vt 0.200001 0.500000
vt 0.177034 0.417608
vt 0.925633 0.574640
vt 0.974368 0.574640
vt 0.900000 0.500000
vt 0.950000 0.500000
vt 0.922965 0.417608
vt 1.000000 0.500000
vt 0.977034 0.417608
vt 1.025632 0.425360
vt 0.622966 0.582392
vt 0.650000 0.499999
vt 0.650000 0.664668
vt 0.677035 0.582391
vt 0.705458 0.656324
vt 0.422965 0.582392
vt 0.450000 0.500000
vt 0.449999 0.664668
vt 0.477034 0.582392
vt 0.505456 0.656325
vt 0.222966 0.582392
vt 0.250000 0.500000
vt 0.250000 0.664667
vt 0.277034 0.582392
vt 0.305457 0.656324
vt 1.022966 0.582392
vt 0.050000 0.500000
vt 0.000000 0.500000
vt 1.050001 0.664668
vt 0.022966 0.582392
vt 0.077035 0.582392
vt 0.050001 0.664668
vt 0.105458 0.656325
vt 0.822965 0.582392
vt 0.849999 0.500000
vt 0.850000 0.664667
vt 0.877034 0.582392
vt 0.905457 0.656325
vt 0.549999 0.912562
vt 0.750000 0.912561
vt 0.877882 1.000000
vt 0.549999 0.811818
vt 0.650000 0.841635
vt 0.612184 0.744367
vt 0.750000 0.811816
vt 0.687816 0.744366
vt 1.349999 0.912562
vt 0.349999 0.811817
vt 0.449999 0.841636
vt 0.349999 0.912562
vt 0.412183 0.744367
vt 0.487815 0.744367
vt 1.150001 0.912562
vt 0.150001 0.811817
vt 0.250000 0.841635
vt 0.150001 0.912562
vt 0.212184 0.744366
vt 0.287816 0.744366
vt 0.950001 0.912562
vt 0.950001 0.811817
vt 1.050001 0.841636
vt 1.012185 0.744367
vt 0.050001 0.841636
vt 0.012185 0.744367
vt 0.087817 0.744367
vt 0.850000 0.841635
vt 0.812184 0.744366
vt 0.887816 0.744367
vn -0.488200 -0.872700 0.011200
vn 0.259800 -0.603100 0.754100
vn -0.152200 -0.978300 0.140900
vn -0.133600 -0.858500 0.495200
vn -0.117000 -0.862700 0.492000
vn 0.593300 -0.082600 0.800700
vn -0.737600 -0.535100 0.411800
vn -0.669000 -0.535900 -0.515000
vn -0.176500 -0.883000 -0.434900
vn 0.854700 -0.519000 0.012100
vn 0.722300 -0.252700 0.643800
vn -0.149400 -0.903600 0.401500
vn -0.452000 -0.889900 0.061700
vn 0.292700 -0.524900 -0.799300
vn 0.410700 -0.861600 -0.298400
vn 0.529700 0.834400 0.151900
vn -0.386000 0.913400 0.129000
vn -0.683400 0.668500 -0.293400
vn 0.198900 0.553000 -0.809100
vn 0.609500 0.443800 -0.656900
vn -0.751100 -0.407400 0.519500
vn -0.042100 -0.779200 0.625400
vn -0.533100 -0.838000 0.116500
vn -0.132200 -0.964900 0.226900
vn 0.480900 -0.811200 0.332600
vn -0.345400 -0.502400 0.792600
vn -0.234400 -0.488100 0.840800
vn -0.205000 -0.398500 0.893900
vn -0.121300 -0.362700 0.924000
vn -0.481000 -0.875000 0.055700
vn 0.316700 -0.918300 0.237700
vn 0.365400 -0.850500 0.378300
vn 0.899900 -0.323200 0.292700
vn 0.758800 -0.650100 -0.039300
vn 0.814700 -0.577500 -0.052100
vn 0.560700 0.008100 -0.828000
vn 0.458900 -0.799200 0.388200
vn 0.523500 -0.778700 -0.345900
vn 0.400500 -0.880300 0.254400
vn 0.295700 -0.924100 0.242200
vn 0.724600 -0.688500 -0.030100
vn 0.638500 -0.769100 -0.030000
vn 0.526900 -0.818300 -0.229500
vn 0.799000 -0.564400 -0.207500
vn 0.191100 -0.942000 0.275800
vn 0.897700 -0.323800 0.298700
vn 0.716300 -0.645900 -0.263900
vn 0.600000 -0.751400 -0.274700
vn 0.741800 -0.670600 0.000000
vn -0.482000 -0.876200 0.000000
vn -0.943900 0.035900 -0.328200
vn -0.119200 -0.981800 -0.148000
vn -0.417900 -0.906700 0.057500
vn -0.700400 -0.689400 0.184900
vn -0.682800 -0.657100 0.319200
vn -0.108500 -0.984200 -0.140000
vn -0.015100 -0.848600 0.528900
vn -0.063900 -0.812800 0.579100
vn -0.023300 -0.726300 0.687000
vn -0.190500 -0.967100 0.168700
vn -0.176800 -0.946600 0.269600
vn -0.366500 -0.835500 0.409300
vn -0.333300 -0.779200 0.530800
vn -0.401700 -0.706000 0.583200
vn -0.278000 -0.488700 0.827000
vn -0.619100 -0.045600 -0.784000
vn -0.313700 -0.744200 -0.589700
vn -0.698600 -0.709300 -0.094400
vn -0.649100 -0.083900 -0.756000
vn -0.249100 -0.195500 -0.948600
vn -0.425200 -0.898900 0.106100
vn -0.466200 -0.875400 0.127600
vn -0.597900 -0.799300 0.060000
vn -0.277900 -0.948500 -0.152200
vn -0.687400 -0.718800 0.104200
vn -0.417900 -0.906700 -0.057500
vn -0.466400 -0.879800 -0.091600
vn -0.115400 -0.950900 -0.287100
vn -0.242200 -0.885600 -0.396300
vn -0.927000 0.035300 0.373400
vn 0.961000 0.008100 -0.276600
vn 0.189400 -0.978100 0.086700
vn 0.402700 -0.553900 -0.728700
vn 0.482300 -0.696200 -0.531600
vn 0.289800 -0.624600 -0.725100
vn 0.132900 -0.987500 0.085000
vn -0.018200 -0.997200 -0.073100
vn 0.175100 -0.676400 -0.715400
vn 0.178600 -0.678500 -0.712600
vn 0.286100 -0.612200 -0.737100
vn 0.526200 -0.697400 -0.486600
vn 0.418000 -0.896200 -0.148700
vn -0.092800 -0.744100 -0.661600
vn -0.092600 -0.743600 -0.662100
vn -0.634100 -0.045300 -0.771900
vn 0.961500 0.274900 0.000000
vn 0.847500 -0.513600 0.134200
vn 0.710700 0.186000 0.678500
vn 0.892700 -0.450700 0.000000
vn 0.836000 -0.524700 -0.160600
vn 0.865300 0.482200 0.137000
vn 0.909800 0.415000 0.000000
vn 0.853700 0.494200 -0.164200
vn 0.852700 0.472000 -0.224000
vn 0.693500 -0.028100 0.719900
vn 0.635300 -0.680100 -0.365800
vn 0.502400 -0.864700 0.000000
vn 0.647300 -0.631000 0.427700
vn 0.903000 -0.303800 -0.303800
vn 0.253900 -0.518100 -0.816800
vn 0.274900 -0.456900 0.846000
vn -0.341800 0.457500 0.820900
vn 0.097300 0.420100 0.902300
vn 0.195500 0.774400 0.601700
vn 0.328500 0.733900 0.594600
vn -0.379100 0.164700 0.910600
vn 0.241500 -0.275800 0.930400
vn 0.479700 -0.122700 0.868800
vn 0.866500 -0.440100 0.235400
vn 0.054800 -0.302700 0.951500
vn 0.592300 -0.599200 0.538700
vn 0.127800 -0.837800 0.530800
vn -0.168900 -0.641400 0.748300
vn 0.920400 0.103500 0.377100
vn 0.951200 0.064800 0.301600
vn -0.997300 -0.024600 0.068600
vn -0.932300 0.349900 -0.091200
vn -0.651800 0.114100 0.749800
vn -0.898100 0.439800 0.002000
vn -0.203100 -0.303400 0.931000
vn -0.926100 -0.366200 -0.090400
vn -0.545700 -0.738200 0.396500
vn -0.198300 -0.366900 0.908900
vn -0.921500 0.126300 0.367200
vn -0.649600 -0.019900 0.760000
vn -0.852600 0.199700 0.482900
vn -0.782900 0.251900 0.568800
vn -0.342800 -0.055400 0.937800
vn -0.788200 -0.555100 0.265600
vn -0.022000 -0.849200 0.527500
vn -0.983200 -0.129200 -0.128700
vn -0.290100 -0.251700 -0.923300
vn -0.590600 0.409100 -0.695600
vn -0.902300 0.427900 -0.052800
vn -0.695900 0.639800 -0.326100
vn -0.293100 0.208900 -0.933000
vn -0.887100 -0.457300 -0.062000
vn -0.684100 -0.655000 -0.320900
vn -0.540600 -0.409000 -0.735100
vn -0.251800 -0.872700 -0.418400
vn -0.026500 -0.651500 -0.758200
vn -0.989900 -0.063700 -0.126400
vn -0.819100 0.179800 -0.544800
vn -0.616800 -0.024200 -0.786700
vn -0.619000 -0.555500 0.555200
vn 0.073200 0.902200 -0.425000
vn 0.482900 -0.017000 -0.875500
vn 0.019600 -0.450300 -0.892700
vn 0.209800 0.165700 -0.963600
vn 0.123200 0.107500 -0.986500
vn 0.356200 -0.675200 -0.646000
vn 0.673600 -0.482500 -0.559800
vn 0.123000 -0.122600 -0.984800
vn -0.529700 -0.428500 -0.732000
vn 0.057700 0.020700 -0.998100
vn 0.338000 0.208400 -0.917800
vn 0.724900 -0.032100 -0.688100
vn 0.231900 -0.417700 -0.878500
vn -0.480000 0.127800 -0.867900
vn -0.591400 0.067200 -0.803600
vn 0.905900 0.046400 0.421000
vn 0.298100 0.716500 0.630700
vn 0.506300 -0.716600 0.479700
vn 0.447800 0.379800 0.809400
vn 0.254800 0.180300 0.950000
vn 0.559400 0.637400 0.530000
vn 0.619000 0.700400 0.355500
vn 0.833200 -0.215400 0.509200
vn 0.993500 0.102200 -0.049900
vn 0.510000 -0.720100 0.470500
vn 0.942500 -0.329900 -0.052700
vn 0.922500 0.382600 -0.051700
vn 0.652300 -0.080600 0.753600
vn 0.477900 0.624500 0.617700
vn 0.478900 0.627300 0.614200
vn -0.647500 0.512400 0.564100
vn -0.068200 -0.185700 0.980200
vn -0.427900 0.537000 0.727000
vn -0.049600 0.095300 0.994200
vn -0.432300 -0.159700 0.887500
vn -0.506100 0.064800 0.860000
vn -0.276100 0.219700 0.935700
vn -0.277600 -0.237800 0.930800
vn 0.352200 0.104300 0.930100
vn -0.295000 0.466000 0.834100
vn -0.132100 0.537000 0.833200
vn -0.155100 0.138800 0.978100
vn 0.039700 0.242500 0.969300
vn 0.048600 0.351300 0.935000
vn -0.486700 0.045500 0.872400
vn -0.951800 -0.201700 -0.231200
vn -0.698900 0.674100 -0.238900
vn -0.895600 0.325800 0.302900
vn -0.949600 -0.197200 -0.243600
vn -0.975900 -0.146400 -0.162200
vn -0.879200 0.372400 0.297300
vn -0.890400 -0.099200 -0.444300
vn -0.887800 0.021700 -0.459700
vn -0.873600 0.455400 0.171400
vn -0.882000 0.465700 0.071700
vn -0.837300 0.515300 0.182800
vn -0.853900 -0.486000 0.186200
vn -0.693500 -0.199700 0.692300
vn -0.682200 -0.025400 0.730800
vn -0.915300 -0.215600 0.340200
vn 0.235400 0.859100 -0.454400
vn -0.428600 0.439900 -0.789200
vn -0.088700 -0.699700 -0.708900
vn -0.372000 0.654000 -0.658800
vn -0.062600 0.500800 -0.863300
vn -0.097700 0.614300 -0.783000
vn -0.228100 0.675500 -0.701200
vn -0.285100 0.388100 -0.876400
vn 0.015900 0.166300 -0.985900
vn 0.294500 -0.450600 -0.842700
vn -0.789000 0.251600 -0.560500
vn -0.768100 0.334900 -0.545700
vn -0.109700 -0.101400 -0.988800
vn -0.098800 0.095900 -0.990500
vn -0.581700 0.426100 -0.692800
vn 0.519500 0.618900 -0.589100
vn 0.668500 -0.134800 -0.731400
vn 0.758000 0.547000 -0.355300
vn 0.511700 0.596700 -0.618200
vn 0.992200 0.124100 -0.012500
vn 0.902300 0.082900 -0.423000
vn 0.792200 0.203100 -0.575500
vn 0.792700 -0.199800 -0.575900
vn 0.351200 0.106300 -0.930200
vn 0.711100 0.476900 -0.516600
vn 0.921100 0.282400 -0.267800
vn 0.888000 0.380400 -0.258200
vn 0.866700 0.408500 -0.286400
vn 0.772900 0.588200 -0.237900
vn -0.001100 0.869000 -0.494900
vn 0.050600 0.998000 0.036700
vn 0.711800 0.697200 0.085000
vn 0.114500 0.357700 0.926800
vn 0.651300 0.593600 0.472700
vn 0.771700 0.517300 0.369900
vn 0.425400 0.896300 -0.125300
vn 0.511100 0.842500 -0.170100
vn 0.514800 0.843200 0.154900
vn 0.111700 0.924800 0.363700
vn 0.198900 0.231700 0.952200
vn 0.237900 0.224000 0.945100
vn 0.566900 0.811200 -0.143500
vn 0.689900 0.681700 -0.243400
vn 0.555200 0.442500 0.704200
vn 0.582700 0.424300 0.693100
vn -0.123200 0.988000 0.092700
vn -0.744900 0.599400 0.293100
vn -0.389300 0.839700 0.378700
vn -0.171000 0.956000 0.238500
vn -0.006000 0.910100 0.414400
vn -0.753800 0.557200 0.348300
vn -0.237400 0.375900 0.895700
vn -0.191500 0.393500 0.899200
vn -0.111100 0.333900 0.936000
vn -0.281000 0.949400 0.140300
vn -0.206900 0.950700 0.230800
vn -0.022200 0.976400 0.214600
vn 0.440400 0.702900 0.558500
vn -0.026800 0.675000 0.737400
vn -0.340200 0.834100 0.434100
vn -0.149300 0.987200 0.056600
vn -0.360500 0.924700 -0.122400
vn -0.782800 0.593300 0.187300
vn -0.262300 0.963300 0.056700
vn -0.509000 0.599400 0.617800
vn -0.893200 0.438200 -0.100900
vn -0.679400 0.545700 -0.490600
vn -0.075000 0.801000 0.593900
vn -0.100500 0.739300 0.665800
vn -0.474100 0.861600 0.181600
vn -0.294000 0.943800 -0.151200
vn -0.404600 0.781800 -0.474500
vn -0.796800 0.579700 0.170500
vn -0.300300 0.616400 0.727900
vn -0.242200 0.913300 0.327300
vn -0.057000 0.995800 -0.071600
vn -0.496600 0.690400 -0.526000
vn 0.499600 0.353300 -0.791000
vn -0.270000 0.603900 -0.750000
vn 0.148700 0.715500 -0.682600
vn -0.374000 0.916500 -0.141900
vn -0.441400 0.884300 -0.152300
vn 0.128000 0.672200 -0.729200
vn -0.087800 0.605800 -0.790700
vn 0.452600 0.242800 -0.858000
vn -0.120200 0.100100 -0.987700
vn -0.627600 0.440000 -0.642300
vn 0.127600 0.793200 -0.595400
vn 0.004600 0.872700 -0.488300
vn -0.517100 0.672900 -0.529000
vn 0.050600 0.998000 -0.036700
vn 0.813600 0.545300 0.201800
vn 0.117000 0.968600 0.219500
vn 0.216200 0.963600 -0.156900
vn 0.177700 0.892900 -0.413700
vn 0.440000 0.773300 0.456500
vn 0.465500 0.818100 -0.337800
vn 0.221300 0.867100 -0.446300
vn -0.018200 0.345500 -0.938200
vn 0.936900 0.069200 -0.342700
vn 0.987700 0.156400 -0.002300
vn 0.634000 0.621500 -0.460100
vn 0.327200 0.178100 -0.928000
vn 0.066400 0.230300 -0.970800
vn 0.243000 0.554000 -0.796300
s off
f 73/95/121 88/96/121 87/97/121
f 74/98/122 90/99/122 96/100/122
f 73/95/123 87/97/123 102/101/123
f 73/95/124 102/101/124 108/102/124
f 73/95/125 108/103/125 97/104/125
f 74/98/126 96/100/126 117/105/126
f 75/106/127 93/107/127 123/108/127
f 76/109/128 105/110/128 129/111/128
f 77/112/129 111/113/129 135/114/129
f 78/115/130 114/116/130 141/117/130
f 74/98/131 117/105/131 124/118/131
f 75/106/132 123/108/132 130/119/132
f 76/109/133 129/111/133 136/120/133
f 77/112/134 135/114/134 142/121/134
f 78/115/135 141/117/135 118/122/135
f 79/123/136 147/124/136 162/125/136
f 80/126/137 150/127/137 168/128/137
f 81/129/138 153/130/138 171/131/138
f 82/132/139 156/133/139 174/134/139
f 83/135/140 159/136/140 163/137/140
f 85/138/141 93/107/141 75/106/141
f 86/139/142 175/140/142 85/138/142
f 87/97/143 176/141/143 86/139/143
f 85/138/144 175/140/144 93/107/144
f 175/140/145 92/142/145 93/107/145
f 86/139/146 176/141/146 175/140/146
f 176/141/147 177/143/147 175/140/147
f 175/140/148 177/143/148 92/142/148
f 177/143/149 91/144/149 92/142/149
f 87/97/150 88/96/150 176/141/150
f 88/96/151 89/145/151 176/141/151
f 176/141/152 89/145/152 177/143/152
f 89/145/153 90/99/153 177/143/153
f 177/143/154 90/99/154 91/144/154
f 90/99/155 74/98/155 91/144/155
f 94/146/156 99/147/156 78/115/156
f 95/148/157 178/149/157 94/146/157
f 96/100/158 179/150/158 95/148/158
f 94/146/159 178/149/159 99/147/159
f 178/149/160 98/151/160 99/147/160
f 95/148/161 179/150/161 178/149/161
f 179/150/162 180/152/162 178/149/162
f 178/149/163 180/152/163 98/151/163
f 180/152/164 97/104/164 98/151/164
f 96/100/165 90/99/165 179/150/165
f 90/99/166 89/145/166 179/150/166
f 179/150/167 89/145/167 180/152/167
f 89/145/168 88/96/168 180/152/168
f 180/152/169 88/96/169 97/104/169
f 88/96/170 73/95/170 97/104/170
f 100/153/171 105/110/171 76/109/171
f 101/154/172 181/155/172 100/153/172
f 102/101/173 182/156/173 101/154/173
f 100/153/174 181/155/174 105/110/174
f 181/155/175 104/157/175 105/110/175
f 101/154/176 182/156/176 181/155/176
f 182/156/177 183/158/177 181/155/177
f 181/155/178 183/158/178 104/157/178
f 183/158/179 103/159/179 104/157/179
f 102/101/180 87/97/180 182/156/180
f 87/97/181 86/139/181 182/156/181
f 182/156/182 86/139/182 183/158/182
f 86/139/183 85/138/183 183/158/183
f 183/158/184 85/138/184 103/159/184
f 85/138/185 75/106/185 103/159/185
f 106/160/186 111/113/186 77/112/186
f 107/161/187 184/162/187 106/160/187
f 108/102/188 185/163/188 107/161/188
f 106/160/189 184/162/189 111/113/189
f 184/162/190 110/164/190 111/113/190
f 107/161/191 185/163/191 184/162/191
f 185/163/192 186/165/192 184/162/192
f 184/162/193 186/165/193 110/164/193
f 186/165/194 109/166/194 110/164/194
f 108/102/195 102/101/195 185/163/195
f 102/101/196 101/154/196 185/163/196
f 185/163/197 101/154/197 186/165/197
f 101/154/198 100/153/198 186/165/198
f 186/165/199 100/153/199 109/166/199
f 100/153/200 76/109/200 109/166/200
f 99/147/201 114/116/201 78/115/201
f 98/151/202 187/167/202 99/147/202
f 97/104/203 188/168/203 98/151/203
f 99/147/204 187/167/204 114/116/204
f 187/167/205 113/169/205 114/116/205
f 98/151/206 188/168/206 187/167/206
f 188/168/207 189/170/207 187/167/207
f 187/167/208 189/170/208 113/169/208
f 189/170/209 112/171/209 113/169/209
f 97/104/210 108/103/210 188/168/210
f 108/103/211 107/172/211 188/168/211
f 188/168/212 107/172/212 189/170/212
f 107/172/213 106/173/213 189/170/213
f 189/170/214 106/173/214 112/171/214
f 106/160/215 77/112/215 112/174/215
f 115/175/216 120/176/216 83/135/216
f 116/177/217 190/178/217 115/175/217
f 117/105/218 191/179/218 116/177/218
f 115/175/219 190/178/219 120/176/219
f 190/178/220 119/180/220 120/176/220
f 116/177/221 191/179/221 190/178/221
f 191/179/222 192/181/222 190/178/222
f 190/178/223 192/181/223 119/180/223
f 192/181/224 118/122/224 119/180/224
f 117/105/225 96/100/225 191/179/225
f 96/100/226 95/148/226 191/179/226
f 191/179/227 95/148/227 192/181/227
f 95/148/228 94/146/228 192/181/228
f 192/181/229 94/146/229 118/122/229
f 94/146/230 78/115/230 118/122/230
f 121/182/231 126/183/231 79/123/231
f 122/184/232 193/185/232 121/182/232
f 123/108/233 194/186/233 122/184/233
f 121/182/234 193/185/234 126/183/234
f 193/185/235 125/187/235 126/183/235
f 122/184/236 194/186/236 193/185/236
f 194/186/237 195/188/237 193/185/237
f 193/185/238 195/188/238 125/187/238
f 195/188/239 124/118/239 125/187/239
f 123/108/240 93/107/240 194/186/240
f 93/107/241 92/142/241 194/186/241
f 194/186/242 92/142/242 195/188/242
f 92/142/243 91/144/243 195/188/243
f 195/188/244 91/144/244 124/118/244
f 91/144/245 74/98/245 124/118/245
f 127/189/246 132/190/246 80/126/246
f 128/191/247 196/192/247 127/189/247
f 129/111/248 197/193/248 128/191/248
f 127/189/249 196/192/249 132/190/249
f 196/192/250 131/194/250 132/190/250
f 128/191/251 197/193/251 196/192/251
f 197/193/252 198/195/252 196/192/252
f 196/192/253 198/195/253 131/194/253
f 198/195/254 130/119/254 131/194/254
f 129/111/255 105/110/255 197/193/255
f 105/110/256 104/157/256 197/193/256
f 197/193/257 104/157/257 198/195/257
f 104/157/258 103/159/258 198/195/258
f 198/195/259 103/159/259 130/119/259
f 103/159/260 75/106/260 130/119/260
f 133/196/261 138/197/261 81/129/261
f 134/198/262 199/199/262 133/196/262
f 135/114/263 200/200/263 134/198/263
f 133/196/264 199/199/264 138/197/264
f 199/199/265 137/201/265 138/197/265
f 134/198/266 200/200/266 199/199/266
f 200/200/267 201/202/267 199/199/267
f 199/199/268 201/202/268 137/201/268
f 201/202/269 136/120/269 137/201/269
f 135/114/270 111/113/270 200/200/270
f 111/113/271 110/164/271 200/200/271
f 200/200/272 110/164/272 201/202/272
f 110/164/273 109/166/273 201/202/273
f 201/202/274 109/166/274 136/120/274
f 109/166/275 76/109/275 136/120/275
f 139/203/276 144/204/276 82/132/276
f 140/205/277 202/206/277 139/203/277
f 141/117/278 203/207/278 140/205/278
f 139/203/279 202/206/279 144/204/279
f 202/206/280 143/208/280 144/204/280
f 140/205/281 203/207/281 202/206/281
f 203/207/282 204/209/282 202/206/282
f 202/206/283 204/209/283 143/208/283
f 204/209/284 142/210/284 143/208/284
f 141/117/285 114/116/285 203/207/285
f 114/116/286 113/169/286 203/207/286
f 203/207/287 113/169/287 204/209/287
f 113/169/288 112/171/288 204/209/288
f 204/209/289 112/171/289 142/210/289
f 112/174/290 77/112/290 142/121/290
f 126/183/291 147/124/291 79/123/291
f 125/187/292 205/211/292 126/183/292
f 124/118/293 206/212/293 125/187/293
f 126/183/294 205/211/294 147/124/294
f 205/211/295 146/213/295 147/124/295
f 125/187/296 206/212/296 205/211/296
f 206/212/297 207/214/297 205/211/297
f 205/211/298 207/214/298 146/213/298
f 207/214/299 145/215/299 146/213/299
f 124/118/300 117/105/300 206/212/300
f 117/105/301 116/177/301 206/212/301
f 206/212/302 116/177/302 207/214/302
f 116/177/303 115/175/303 207/214/303
f 207/214/304 115/175/304 145/215/304
f 115/175/305 83/135/305 145/215/305
f 132/190/306 150/127/306 80/126/306
f 131/194/307 208/216/307 132/190/307
f 130/119/308 209/217/308 131/194/308
f 132/190/309 208/216/309 150/127/309
f 208/216/310 149/218/310 150/127/310
f 131/194/311 209/217/311 208/216/311
f 209/217/312 210/219/312 208/216/312
f 208/216/313 210/219/313 149/218/313
f 210/219/314 148/220/314 149/218/314
f 130/119/315 123/108/315 209/217/315
f 123/108/316 122/184/316 209/217/316
f 209/217/317 122/184/317 210/219/317
f 122/184/318 121/182/318 210/219/318
f 210/219/319 121/182/319 148/220/319
f 121/182/320 79/123/320 148/220/320
f 138/197/321 153/130/321 81/129/321
f 137/201/322 211/221/322 138/197/322
f 136/120/323 212/222/323 137/201/323
f 138/197/324 211/221/324 153/130/324
f 211/221/325 152/223/325 153/130/325
f 137/201/326 212/222/326 211/221/326
f 212/222/327 213/224/327 211/221/327
f 211/221/328 213/224/328 152/223/328
f 213/224/329 151/225/329 152/223/329
f 136/120/330 129/111/330 212/222/330
f 129/111/331 128/191/331 212/222/331
f 212/222/332 128/191/332 213/224/332
f 128/191/333 127/189/333 213/224/333
f 213/224/334 127/189/334 151/225/334
f 127/189/335 80/126/335 151/225/335
f 144/204/336 156/133/336 82/132/336
f 143/208/337 214/226/337 144/204/337
f 142/121/338 215/227/338 143/228/338
f 144/204/339 214/226/339 156/133/339
f 214/226/340 155/229/340 156/133/340
f 143/228/341 215/227/341 214/230/341
f 215/227/342 216/231/342 214/230/342
f 214/230/343 216/231/343 155/232/343
f 216/231/344 154/233/344 155/232/344
f 142/121/345 135/114/345 215/227/345
f 135/114/346 134/198/346 215/227/346
f 215/227/347 134/198/347 216/231/347
f 134/198/348 133/196/348 216/231/348
f 216/231/349 133/196/349 154/233/349
f 133/196/350 81/129/350 154/233/350
f 120/176/351 159/136/351 83/135/351
f 119/180/352 217/234/352 120/176/352
f 118/122/353 218/235/353 119/180/353
f 120/176/354 217/234/354 159/136/354
f 217/234/355 158/236/355 159/136/355
f 119/180/356 218/235/356 217/234/356
f 218/235/357 219/237/357 217/234/357
f 217/234/358 219/237/358 158/236/358
f 219/237/359 157/238/359 158/236/359
f 118/122/360 141/117/360 218/235/360
f 141/117/361 140/205/361 218/235/361
f 218/235/362 140/205/362 219/237/362
f 140/205/363 139/203/363 219/237/363
f 219/237/364 139/203/364 157/238/364
f 139/203/365 82/132/365 157/238/365
f 160/239/366 165/240/366 84/241/366
f 161/242/367 220/243/367 160/239/367
f 162/125/368 221/244/368 161/242/368
f 160/239/369 220/243/369 165/240/369
f 220/243/370 164/245/370 165/240/370
f 161/242/371 221/244/371 220/243/371
f 221/244/372 222/246/372 220/243/372
f 220/243/373 222/246/373 164/245/373
f 222/246/374 163/137/374 164/245/374
f 162/125/375 147/124/375 221/244/375
f 147/124/376 146/213/376 221/244/376
f 221/244/377 146/213/377 222/246/377
f 146/213/378 145/215/378 222/246/378
f 222/246/379 145/215/379 163/137/379
f 145/215/380 83/135/380 163/137/380
f 166/247/381 160/239/381 84/241/381
f 167/248/382 223/249/382 166/250/382
f 168/128/383 224/251/383 167/248/383
f 166/250/384 223/249/384 160/239/384
f 223/249/385 161/242/385 160/239/385
f 167/248/386 224/251/386 223/249/386
f 224/251/387 225/252/387 223/249/387
f 223/249/388 225/252/388 161/242/388
f 225/252/389 162/125/389 161/242/389
f 168/128/390 150/127/390 224/251/390
f 150/127/391 149/218/391 224/251/391
f 224/251/392 149/218/392 225/252/392
f 149/218/393 148/220/393 225/252/393
f 225/252/394 148/220/394 162/125/394
f 148/220/395 79/123/395 162/125/395
f 169/253/396 166/247/396 84/241/396
f 170/254/397 226/255/397 169/256/397
f 171/131/398 227/257/398 170/254/398
f 169/256/399 226/255/399 166/250/399
f 226/255/400 167/248/400 166/250/400
f 170/254/401 227/257/401 226/255/401
f 227/257/402 228/258/402 226/255/402
f 226/255/403 228/258/403 167/248/403
f 228/258/404 168/128/404 167/248/404
f 171/131/405 153/130/405 227/257/405
f 153/130/406 152/223/406 227/257/406
f 227/257/407 152/223/407 228/258/407
f 152/223/408 151/225/408 228/258/408
f 228/258/409 151/225/409 168/128/409
f 151/225/410 80/126/410 168/128/410
f 172/259/411 169/253/411 84/241/411
f 173/260/412 229/261/412 172/259/412
f 174/134/413 230/262/413 173/260/413
f 172/259/414 229/261/414 169/253/414
f 229/263/415 170/254/415 169/256/415
f 173/260/416 230/262/416 229/261/416
f 230/264/417 231/265/417 229/263/417
f 229/263/418 231/265/418 170/254/418
f 231/265/419 171/131/419 170/254/419
f 174/134/420 156/133/420 230/262/420
f 156/133/421 155/229/421 230/262/421
f 230/264/422 155/232/422 231/265/422
f 155/232/423 154/233/423 231/265/423
f 231/265/424 154/233/424 171/131/424
f 154/233/425 81/129/425 171/131/425
f 165/240/426 172/259/426 84/241/426
f 164/245/427 232/266/427 165/240/427
f 163/137/428 233/267/428 164/245/428
f 165/240/429 232/266/429 172/259/429
f 232/266/430 173/260/430 172/259/430
f 164/245/431 233/267/431 232/266/431
f 233/267/432 234/268/432 232/266/432
f 232/266/433 234/268/433 173/260/433
f 234/268/434 174/134/434 173/260/434
f 163/137/435 159/136/435 233/267/435
f 159/136/436 158/236/436 233/267/436
f 233/267/437 158/236/437 234/268/437
f 158/236/438 157/238/438 234/268/438
f 234/268/439 157/238/439 174/134/439
f 157/238/440 82/132/440 174/134/440
