v 0.121154 1.228137 -0.272293
v 0.001996 1.057036 -0.072784
v -0.003497 1.246612 -0.223867
v -0.043946 1.245339 -0.154384
v 0.103106 1.256260 -0.211795
v -0.074228 1.008550 0.041850
v 0.084843 1.264729 -0.151039
v 0.072139 1.276603 -0.108637
v -0.129536 1.235006 -0.145777
v 0.001108 1.002876 0.070417
v 0.060427 1.273283 -0.069877
v -0.124516 1.230001 -0.107814
v 0.048682 1.259296 -0.031250
v -0.065486 1.225819 -0.050899
v 0.001996 1.065180 -0.017261
v 0.036568 1.255008 0.008821
v -0.170070 1.210754 -0.029746
v 0.038566 1.176756 -0.018171
v 0.026407 1.238674 0.042140
v -0.160830 1.204228 -0.005665
v 0.024160 1.128495 0.002321
v 0.018275 1.226132 0.068818
v -0.086893 1.184580 0.045410
v 0.008208 1.120354 0.026954
v 0.006988 1.226057 0.106246
v -0.123207 1.171375 0.064442
v 0.004329 1.099366 0.020474
v -0.003646 1.197217 0.140847
v -0.104751 1.140723 0.101926
v 0.002763 1.064267 0.076484
v -0.019110 1.179669 0.191724
v -0.091195 1.093493 0.114570
v -0.040530 1.132862 0.261677
v -0.079112 1.080491 0.213842
v 0.001024 0.835680 -0.028617
v -0.053995 1.084314 0.305213
v -0.080398 1.047089 0.270327
v -0.055611 0.995786 0.308534
v -0.100095 1.151458 0.114223
v -0.087368 1.143149 0.144941
v 0.002650 0.820438 -0.137673
v -0.097137 0.849538 -0.170178
v 0.003495 0.806056 -0.142078
v -0.197776 1.125200 0.128228
v -0.191710 1.140838 0.105941
v -0.192908 1.162216 0.117649
v -0.197990 1.149176 0.142624
v -0.225366 1.109370 0.130936
v -0.215284 1.135491 0.084248
v -0.216897 1.179898 0.107810
v -0.225179 1.150657 0.156251
v -0.247179 1.121272 0.123215
v -0.240432 1.139100 0.091524
v -0.241490 1.169178 0.107602
v -0.247680 1.150328 0.139966
v 0.001996 1.005342 -0.178814
v 0.000712 0.924509 0.057354
v 0.001996 0.886084 -0.233939
v -0.073580 1.156436 0.030671
v -0.072426 1.117607 0.048553
v -0.061949 1.095483 0.067116
v -0.090314 1.062822 0.144594
v 0.000951 1.018160 0.105253
v -0.068385 1.041134 0.095061
v -0.015899 0.999062 0.161969
v -0.053377 0.955725 -0.153436
v -0.064489 1.028867 0.173090
v -0.047099 1.012174 0.153246
v -0.030853 0.959600 0.201691
v -0.051525 0.962154 0.262152
v -0.063062 0.981031 0.211112
v -0.051415 0.982303 0.185742
v -0.154066 0.963329 0.003716
v 0.002002 1.082111 0.018534
v 0.001999 1.073743 0.067937
v -0.035902 1.071155 0.049445
v -0.093124 1.218419 -0.032355
v -0.071442 1.168018 -0.001045
v 0.001491 0.844338 -0.239922
v -0.089217 0.820560 -0.172507
v 0.006924 0.790332 -0.129242
v -0.111035 0.782105 -0.154957
v -0.001004 0.793584 -0.254191
v 0.015930 0.735709 -0.105947
v -0.109974 0.712520 -0.138437
v 0.002082 0.701364 -0.214732
v 0.021158 0.684789 -0.117930
v -0.046280 0.670736 -0.141539
v 0.012456 0.670926 -0.179262
v -0.184603 0.988149 -0.042815
v -0.203340 0.921478 -0.016882
v -0.260301 0.857609 0.017485
v -0.283705 0.856875 -0.020953
v -0.278345 0.874798 0.009514
v -0.694123 0.698273 0.281573
v -0.470429 0.743735 0.201663
v -0.693769 0.682498 0.261793
v -0.488188 0.739756 0.171587
v -0.483910 0.756282 0.194275
v -0.683347 0.685691 0.293230
v -0.986882 0.573287 0.338658
v -0.104414 0.902155 -0.013400
v -0.494182 0.559312 -0.808311
v -0.738338 0.555348 0.201360
v -0.684913 0.506665 0.055757
v -0.735026 0.461507 -0.078235
v -0.801978 0.491732 -0.290080
v -0.703185 0.655348 -0.184846
v -0.598556 0.839482 -0.280734
v -0.374114 0.740274 -0.569447
v -0.561482 0.713696 -0.080567
v -0.431225 0.899160 -0.355373
v -0.535632 0.607134 0.021469
v -0.360221 0.864085 -0.317202
v -0.605001 0.547698 0.068163
v -0.524836 0.635231 -0.016837
v -0.051570 0.658075 -0.013924
v -0.107604 0.636365 -0.009191
v -0.100815 0.698690 -0.023388
v -0.054671 0.704479 -0.002878
v -0.062953 0.652257 0.051697
v -0.114752 0.642843 0.043338
v -0.110554 0.688656 0.026907
v -0.071370 0.687689 0.042508
v -0.061766 0.615444 0.027444
v -0.093770 0.613447 0.028357
v -0.056165 0.547505 -0.064821
v -0.029435 0.548242 -0.065253
v -0.031219 0.531662 -0.048374
v -0.050891 0.528012 -0.049303
v -0.056045 0.524280 -0.086595
v -0.048358 0.505158 -0.060741
v -0.022379 0.525076 -0.085356
v -0.022418 0.508852 -0.058170
v -0.073199 0.406207 0.106409
v -0.105626 0.399728 0.098694
v -0.064055 0.397562 0.090341
v -0.100316 0.390986 0.081103
v -0.086318 0.261760 0.236987
v -0.120468 0.254166 0.229120
v -0.074980 0.248442 0.220127
v -0.115834 0.242955 0.210303
v -0.066457 0.258975 0.299952
v -0.152426 0.220949 0.287098
v -0.046316 0.229887 0.284562
v -0.142462 0.188917 0.265875
v -0.107222 0.230517 0.309527
v -0.092095 0.200027 0.291370
v -0.044505 0.237816 0.319120
v -0.063399 0.263785 0.339290
v -0.105000 0.235808 0.343422
v -0.090772 0.207810 0.325200
v -0.031101 0.218197 0.349646
v -0.042779 0.232564 0.379212
v -0.082651 0.206141 0.379879
v -0.076087 0.191324 0.350947
v -0.016533 0.095701 0.427539
v -0.108324 0.187734 0.327280
v -0.168438 0.206669 0.331087
v -0.122583 0.208046 0.354657
v -0.158995 0.183821 0.301174
v -0.135856 0.165263 0.368065
v -0.124566 0.157084 0.343157
v -0.170971 0.168346 0.351812
v -0.163464 0.157209 0.325486
v -0.158575 0.040371 0.399733
v -0.081341 0.196416 0.220708
v -0.118439 0.225999 0.194245
v -0.065928 0.233097 0.198778
v -0.034868 0.180962 0.207865
v -0.064945 0.185815 0.180237
v -0.030481 0.212317 0.184305
v 0.014085 0.116372 0.188125
v -0.091406 1.075532 0.161410
v -0.026547 1.144545 0.215576
v -0.071447 1.110193 0.159729
v -0.251860 1.144967 0.114116
v 0.102304 1.234563 -0.209634
v 0.080842 1.233010 -0.138500
v 0.071723 1.224853 -0.108448
v 0.060761 1.221356 -0.072180
v 0.049648 1.212192 -0.035538
v -0.032760 1.069887 0.234462
v -0.046406 1.044218 0.279124
v -0.016396 1.066418 0.169962
v -0.023832 1.027786 0.187868
v -0.036544 0.979525 0.220204
v -0.016229 1.075300 0.182436
v 0.000983 1.090162 0.130448
v 0.180930 1.233349 -0.185772
v 0.181827 1.233904 -0.103721
v 0.072587 1.005633 0.043863
v 0.252596 1.223045 -0.053506
v 0.229143 1.219223 -0.022004
v 0.148904 1.217083 -0.000505
v 0.231246 1.201122 0.068224
v 0.210987 1.195607 0.084513
v 0.120635 1.177873 0.091131
v 0.143725 1.167771 0.126691
v 0.107441 1.140392 0.152431
v 0.089123 1.092474 0.151627
v 0.018938 1.080456 0.242933
v -0.013185 1.046623 0.290596
v 0.097822 1.152499 0.160376
v 0.071239 1.147420 0.181790
v 0.101160 0.851911 -0.175288
v 0.176728 1.130065 0.222179
v 0.182917 1.142926 0.198041
v 0.179956 1.166260 0.206817
v 0.179151 1.149264 0.222362
v 0.199700 1.115894 0.239346
v 0.214634 1.135759 0.190448
v 0.207977 1.184299 0.207205
v 0.192987 1.164016 0.256446
v 0.223978 1.127864 0.241566
v 0.234156 1.141636 0.208130
v 0.229598 1.174312 0.219742
v 0.219420 1.160540 0.253177
v 0.109248 1.156248 0.073586
v 0.094116 1.124630 0.076371
v 0.076312 1.101936 0.083484
v 0.065254 1.059217 0.186742
v 0.069609 1.038085 0.128728
v 0.052773 0.959064 -0.156151
v 0.017458 1.026633 0.201778
v 0.014836 1.010303 0.174799
v -0.009996 0.979261 0.229329
v -0.003524 0.980705 0.202184
v 0.148166 0.949753 0.013436
v 0.040024 1.073844 0.048828
v 0.164458 1.209669 0.029136
v 0.123185 1.167719 0.048159
v 0.093438 0.824840 -0.181660
v 0.117891 0.795777 -0.180359
v 0.129056 0.732929 -0.173531
v 0.076209 0.682277 -0.160682
v 0.190716 0.958680 -0.024045
v 0.192762 0.904127 -0.005985
v 0.247462 0.839378 0.030351
v 0.272487 0.838618 -0.007052
v 0.266027 0.856407 0.023281
v 0.639152 0.682147 0.336445
v 0.429087 0.731750 0.239691
v 0.638101 0.664338 0.318502
v 0.444045 0.727670 0.210248
v 0.439530 0.744794 0.228298
v 0.631334 0.669941 0.350594
v 0.945665 0.603262 0.408603
v 0.100323 0.897996 -0.012146
v 0.600049 0.537540 -0.738102
v 0.675386 0.536353 0.251538
v 0.605049 0.459260 0.120117
v 0.668378 0.410126 -0.001170
v 0.756900 0.443942 -0.196099
v 0.664013 0.603480 -0.090262
v 0.609632 0.801757 -0.182070
v 0.483658 0.746481 -0.504803
v 0.527891 0.671890 -0.008081
v 0.486723 0.875102 -0.277266
v 0.476198 0.570553 0.074732
v 0.397434 0.855934 -0.275133
v 0.522208 0.510853 0.130265
v 0.476212 0.605532 0.034504
v 0.120982 0.674315 -0.042562
v 0.174109 0.679602 -0.066297
v 0.158097 0.723772 -0.063728
v 0.120602 0.719171 -0.030539
v 0.153099 0.659673 0.007563
v 0.198776 0.666158 -0.020808
v 0.185423 0.714596 -0.013511
v 0.153251 0.705330 0.008957
v 0.145675 0.636251 -0.031748
v 0.175533 0.642764 -0.042441
v 0.110877 0.621347 -0.142059
v 0.085723 0.616145 -0.134691
v 0.094358 0.594815 -0.129832
v 0.112559 0.596277 -0.137931
v 0.104876 0.601993 -0.176625
v 0.109378 0.575934 -0.152364
v 0.073857 0.596144 -0.164980
v 0.085524 0.575355 -0.141605
v 0.201222 0.513642 0.015764
v 0.230658 0.510142 -0.000796
v 0.189621 0.500851 0.004884
v 0.222237 0.497466 -0.014304
v 0.278399 0.400914 0.155842
v 0.309515 0.396640 0.138199
v 0.265159 0.386703 0.144704
v 0.301839 0.381802 0.123273
v 0.273973 0.401795 0.218593
v 0.360284 0.374201 0.190573
v 0.256465 0.366967 0.212241
v 0.351515 0.337706 0.177307
v 0.320221 0.381470 0.221562
v 0.306953 0.346903 0.211766
v 0.260794 0.381993 0.244585
v 0.279481 0.412607 0.256386
v 0.324942 0.391235 0.252465
v 0.310963 0.359861 0.237674
v 0.259352 0.366340 0.281803
v 0.275963 0.386584 0.305507
v 0.318447 0.366489 0.297072
v 0.307151 0.345249 0.273401
v 0.289415 0.260092 0.378787
v 0.333525 0.343581 0.246390
v 0.388456 0.371212 0.230797
v 0.350581 0.370734 0.265607
v 0.375868 0.341592 0.208267
v 0.374677 0.333382 0.281602
v 0.358651 0.319312 0.262341
v 0.403070 0.337832 0.255422
v 0.391021 0.320862 0.234403
v 0.426300 0.220794 0.323493
v 0.281051 0.329893 0.148112
v 0.303913 0.360315 0.109281
v 0.254547 0.360153 0.126472
v 0.236608 0.305709 0.151665
v 0.257760 0.309036 0.116550
v 0.221170 0.331058 0.125652
v 0.196596 0.232521 0.155976
v 0.064692 1.074103 0.198876
v 0.045198 1.113261 0.191960
v 0.234286 1.151041 0.233023
v -0.062724 0.848683 -0.110933
v 0.066262 0.849258 -0.112281
v 0.103807 0.889081 -0.092208
v -0.101422 0.890209 -0.092193
vt 0.474247 1.000024
vt 0.432881 1.000024
vt 0.434057 0.893539
vt 0.509861 1.000024
vt 0.500227 0.768354
vt 0.559969 0.937079
vt 0.645064 0.954173
vt 0.560228 0.940601
vt 0.583639 0.999781
vt 0.500485 0.773130
vt 0.557266 0.999781
vt 0.078178 0.645053
vt 0.145329 0.600948
vt 0.009554 0.578044
vt 0.629598 0.999781
vt 0.656534 0.999781
vt 0.043058 0.667957
vt 0.009554 0.620213
vt 0.512543 0.981892
vt 0.471564 0.821771
vt 0.527454 0.989559
vt 0.480692 0.821771
vt 0.462656 0.892018
vt 0.010156 0.671319
vt 0.079997 0.644406
vt 0.044254 0.667717
vt 0.462330 0.893296
vt 0.363979 0.871999
vt 0.417906 0.999781
vt 0.180894 0.905878
vt 0.211214 0.926339
vt 0.151369 0.927184
vt 0.432105 0.999781
vt 0.359627 0.798296
vt 0.329341 0.825147
vt 0.386839 0.999781
vt 0.298881 0.891138
vt 0.380070 1.000024
vt 0.307338 1.000024
vt 0.334880 0.898555
vt 0.095969 0.432562
vt 0.010156 0.431276
vt 0.010156 0.398660
vt 0.265186 1.000024
vt 0.239898 1.000024
vt 0.239968 0.910398
vt 0.267768 0.860783
vt 0.297710 0.999781
vt 0.009554 0.431384
vt 0.093871 0.436902
vt 0.086972 0.413221
vt 0.202414 0.914836
vt 0.196688 0.802296
vt 0.184322 0.800589
vt 0.117628 0.999781
vt 0.102109 0.947707
vt 0.039265 0.964220
vt 0.191148 0.775024
vt 0.167133 0.773191
vt 0.225497 0.888506
vt 0.213084 0.801976
vt 0.224475 0.802438
vt 0.186573 0.800832
vt 0.225358 0.895351
vt 0.222224 0.802195
vt 0.819590 0.933905
vt 0.741830 1.002771
vt 0.745676 0.981737
vt 0.169384 0.773434
vt 0.219437 0.773434
vt 0.241200 0.775024
vt 0.678604 0.929671
vt 0.702745 0.932100
vt 0.798477 0.934975
vt 0.755545 0.885339
vt 0.756364 0.860805
vt 0.008395 0.999781
vt 0.050191 0.999781
vt 0.006807 0.579017
vt 0.088521 0.542699
vt 0.142997 0.606255
vt 0.106762 0.390629
vt 0.009554 0.409522
vt 0.821998 0.059350
vt 0.793626 0.064078
vt 0.821998 0.017938
vt 0.109088 0.385467
vt 0.010156 0.356430
vt 0.010156 0.294247
vt 0.164845 0.936891
vt 0.132684 0.917898
vt 0.158955 0.999781
vt 0.251493 0.999781
vt 0.121032 0.522092
vt 0.010156 0.538976
vt 0.229751 1.000024
vt 0.202874 0.960390
vt 0.297894 0.904225
vt 0.270019 0.861025
vt 0.821997 0.148207
vt 0.768986 0.140328
vt 0.781726 0.108721
vt 0.175211 1.000024
vt 0.138634 1.000024
vt 0.092576 1.000024
vt 0.033907 1.000024
vt 0.054982 0.974363
vt 0.091565 0.955891
vt 0.098755 0.966742
vt 0.006807 0.497303
vt 0.006807 0.433747
vt 0.061283 0.470065
vt 0.131496 0.917612
vt 0.004047 1.000024
vt 0.032968 0.971590
vt 0.648570 0.954416
vt 0.658785 1.000024
vt 0.609179 1.000024
vt 0.010156 0.635279
vt 0.299877 0.892636
vt 0.355604 0.794775
vt 0.202357 0.999781
vt 0.088947 0.408461
vt 0.428579 0.656093
vt 0.423662 0.696384
vt 0.468944 0.689061
vt 0.531845 0.681720
vt 0.536419 0.712644
vt 0.610352 0.692828
vt 0.102623 0.365689
vt 0.112804 0.333641
vt 0.080802 0.297116
vt 0.248096 0.339680
vt 0.277080 0.531051
vt 0.282148 0.327738
vt 0.196955 0.568250
vt 0.171694 0.589610
vt 0.275180 0.560080
vt 0.523059 0.538596
vt 0.753690 0.411864
vt 0.394870 0.237242
vt 0.280495 0.557925
vt 0.282428 0.528381
vt 0.532773 0.536061
vt 0.269459 0.553689
vt 0.519237 0.554218
vt 0.535788 0.556253
vt 0.716599 0.481061
vt 0.595223 0.398790
vt 0.437154 0.342183
vt 0.464362 0.360988
vt 0.701500 0.500488
vt 0.703680 0.484556
vt 0.526021 0.558436
vt 0.709844 0.503462
vt 0.127878 0.521223
vt 0.090830 0.544067
vt 0.505343 0.387091
vt 0.948055 0.392623
vt 0.722873 0.500303
vt 0.965311 0.387497
vt 0.008771 0.540307
vt 0.173246 0.589150
vt 0.118191 0.524020
vt 0.665937 0.364567
vt 0.539998 0.204645
vt 0.660993 0.264792
vt 0.287140 0.166653
vt 0.009554 0.494631
vt 0.009554 0.385842
vt 0.124838 0.524541
vt 0.197472 0.569937
vt 0.278223 0.559193
vt 0.280150 0.529746
vt 0.065707 0.507251
vt 0.148340 0.599519
vt 0.175172 0.587980
vt 0.469280 0.659417
vt 0.505147 0.691113
vt 0.358231 0.813259
vt 0.396762 0.861519
vt 0.463835 0.781576
vt 0.334361 0.622665
vt 0.318366 0.723370
vt 0.458201 0.720399
vt 0.455465 0.629717
vt 0.535658 0.660000
vt 0.620783 0.673963
vt 0.453440 0.629177
vt 0.584055 0.653212
vt 0.584827 0.677850
vt 0.503016 0.653376
vt 0.539342 0.629326
vt 0.620698 0.651899
vt 0.732105 0.651967
vt 0.728838 0.643284
vt 0.621615 0.624442
vt 0.632604 0.637198
vt 0.636322 0.685307
vt 0.636814 0.636255
vt 0.621290 0.624515
vt 0.619952 0.697967
vt 0.621630 0.699173
vt 0.734007 0.671131
vt 0.729414 0.682004
vt 0.844311 0.686359
vt 0.621380 0.674077
vt 0.636178 0.688381
vt 0.733584 0.644686
vt 0.849901 0.650483
vt 0.851008 0.673148
vt 0.928244 0.660805
vt 0.843633 0.637183
vt 0.730695 0.682992
vt 0.844925 0.638417
vt 0.740409 0.775706
vt 0.713106 0.780706
vt 0.704568 0.818200
vt 0.896603 0.625215
vt 0.878631 0.609036
vt 0.785632 0.738775
vt 0.737278 0.738859
vt 0.880723 0.715185
vt 0.913616 0.613223
vt 0.897236 0.601821
vt 0.730897 0.812957
vt 0.780941 0.817868
vt 0.792510 0.817868
vt 0.790023 0.778792
vt 0.898074 0.698036
vt 0.711846 0.726905
vt 0.683097 0.727238
vt 0.685751 0.762377
vt 0.965266 0.662943
vt 0.955920 0.640956
vt 0.937049 0.627702
vt 0.714789 0.764119
vt 0.941121 0.702714
vt 0.919603 0.714522
vt 0.932540 0.731689
vt 0.929544 0.592491
vt 0.912862 0.581726
vt 0.967203 0.616180
vt 0.950630 0.603144
vt 0.902827 0.726042
vt 0.957928 0.692611
vt 0.950735 0.721911
vt 0.964856 0.713499
vt 0.615440 0.761890
vt 0.984016 0.535583
vt 0.918749 0.741460
vt 0.685114 0.782002
vt 0.679087 0.810945
vt 0.847072 0.686366
vt 0.914720 0.615321
vt 0.929979 0.594898
vt 0.950087 0.605671
vt 0.608583 0.784975
vt 0.984016 0.786714
vt 0.799318 0.743667
vt 0.831117 0.767611
vt 0.823981 0.791937
vt 0.982769 0.539053
vt 0.825639 0.742255
vt 0.886191 0.771748
vt 0.391135 0.800147
vt 0.375753 0.599215
vt 0.324001 0.784547
vt 0.429296 0.757561
vt 0.279186 0.533620
vt 0.270107 0.551779
vt 0.178643 0.905635
vt 0.750796 0.933481
vt 0.821997 0.285131
vt 0.821997 0.331456
vt 0.791374 0.330169
vt 0.821998 0.110806
vt 0.821997 0.238271
vt 0.779153 0.273656
vt 0.544401 1.000024
vt 0.473816 0.822014
vt 0.821997 0.190377
vt 0.754407 0.181463
vt 0.759288 0.228469
vt 0.375409 0.872242
vt 0.334031 0.621557
vt 0.821996 0.381399
vt 0.647236 0.956984
vt 0.563654 0.943411
vt 0.541813 1.000083
vt 0.434491 1.000083
vt 0.389226 1.000083
vt 0.329218 0.822939
vt 0.586026 1.000083
vt 0.561360 0.944666
vt 0.644941 0.954474
vt 0.559653 1.000083
vt 0.500362 0.770922
vt 0.043124 0.669810
vt 0.006807 0.660730
vt 0.006807 0.624413
vt 0.658921 1.000083
vt 0.631985 1.000083
vt 0.064720 0.466534
vt 0.558639 0.973714
vt 0.530104 0.984870
vt 0.473951 0.822073
vt 0.493413 0.964305
vt 0.434192 0.893597
vt 0.295305 0.904284
vt 0.262597 1.000083
vt 0.304749 1.000083
vt 0.376800 0.873555
vt 0.178305 0.905936
vt 0.128907 0.917671
vt 0.148780 0.927242
vt 0.502657 0.770922
vt 0.507272 1.000083
vt 0.353495 1.000083
vt 0.300013 0.892694
vt 0.377481 1.000083
vt 0.332291 0.898614
vt 0.094303 0.434241
vt 0.087304 0.410219
vt 0.008771 0.400451
vt 0.237380 0.910457
vt 0.237309 1.000083
vt 0.300096 1.000083
vt 0.270155 0.861084
vt 0.006807 0.415589
vt 0.088521 0.415589
vt 0.186709 0.800890
vt 0.199074 0.802597
vt 0.204801 0.915138
vt 0.120014 1.000083
vt 0.052578 1.000083
vt 0.041652 0.964521
vt 0.169520 0.773492
vt 0.193534 0.775326
vt 0.221886 0.802496
vt 0.210495 0.802034
vt 0.222908 0.888565
vt 0.183984 0.800890
vt 0.224610 0.802496
vt 0.227744 0.895652
vt 0.818979 0.933781
vt 0.797866 0.934852
vt 0.745065 0.981613
vt 0.216848 0.773492
vt 0.166795 0.773492
vt 0.243587 0.775326
vt 0.240862 0.775326
vt 0.741219 1.002647
vt 0.702134 0.931977
vt 0.754934 0.885215
vt 0.677993 0.929547
vt 0.030379 0.971649
vt 0.004640 1.000083
vt 0.031318 1.000083
vt 0.390828 0.798355
vt 0.376482 0.598671
vt 0.336115 0.622653
vt 0.006807 0.406510
vt 0.106679 0.388351
vt 0.851059 0.063308
vt 0.457276 0.719815
vt 0.453813 0.628344
vt 0.253879 1.000083
vt 0.204744 1.000083
vt 0.225632 0.888565
vt 0.161342 1.000083
vt 0.104496 0.948009
vt 0.135070 0.918200
vt 0.167232 0.937192
vt 0.355525 0.798597
vt 0.332768 0.820429
vt 0.208625 0.926398
vt 0.267430 0.861084
vt 0.864773 0.108127
vt 0.136045 1.000083
vt 0.172622 1.000083
vt 0.052394 0.974421
vt 0.089988 1.000083
vt 0.088976 0.955950
vt 0.096166 0.966800
vt 0.606590 1.000083
vt 0.656197 1.000083
vt 0.078383 0.645391
vt 0.146502 0.600651
vt 0.008771 0.636294
vt 0.200285 0.960449
vt 0.180124 1.000083
vt 0.042758 0.668625
vt 0.008771 0.672215
vt 0.297289 0.892694
vt 0.107379 0.387301
vt 0.008771 0.358360
vt 0.428686 0.656513
vt 0.468892 0.659410
vt 0.468203 0.688038
vt 0.531875 0.681591
vt 0.621501 0.673619
vt 0.608476 0.692734
vt 0.251948 0.333875
vt 0.279186 0.324796
vt 0.279186 0.560858
vt 0.760390 0.406510
vt 0.524328 0.542699
vt 0.397217 0.234002
vt 0.532678 0.557526
vt 0.529674 0.537400
vt 0.524328 0.551779
vt 0.719149 0.501760
vt 0.712896 0.482582
vt 0.596962 0.397430
vt 0.442614 0.342954
vt 0.469852 0.361113
vt 0.714994 0.488223
vt 0.705914 0.497303
vt 0.714994 0.506382
vt 0.533407 0.560858
vt 0.185212 0.068914
vt 0.118861 0.520693
vt 0.506169 0.388351
vt 0.960135 0.388351
vt 0.960792 0.389324
vt 0.669597 0.361113
vt 0.542487 0.197685
vt 0.705914 0.097813
vt 0.669597 0.261240
vt 0.288266 0.161368
vt 0.117270 0.522284
vt 0.006807 0.379272
vt 0.198872 0.567482
vt 0.136648 0.556264
vt 0.227162 1.000083
vt 0.376585 0.873555
vt 0.431468 0.893597
vt 0.502840 0.652110
vt 0.505978 0.691525
vt 0.357939 0.812192
vt 0.429570 0.757383
vt 0.464592 0.782081
vt 0.086436 0.358292
vt 0.458958 0.720904
vt 0.335392 0.623349
vt 0.318170 0.722492
vt 0.453772 0.629519
vt 0.502319 0.652263
vt 0.535541 0.658953
vt 0.620485 0.651860
vt 0.585286 0.677959
vt 0.585036 0.653036
vt 0.537196 0.712397
vt 0.539568 0.628809
vt 0.609924 0.637981
vt 0.736240 0.644628
vt 0.738065 0.654240
vt 0.620479 0.651731
vt 0.636644 0.688789
vt 0.634341 0.636845
vt 0.620659 0.626212
vt 0.621630 0.626169
vt 0.634415 0.636711
vt 0.621747 0.698284
vt 0.637904 0.688632
vt 0.622722 0.698509
vt 0.739936 0.673088
vt 0.855011 0.675072
vt 0.848424 0.688066
vt 0.735290 0.683841
vt 0.733904 0.683902
vt 0.735955 0.644357
vt 0.853922 0.652780
vt 0.930976 0.662932
vt 0.847757 0.639699
vt 0.846770 0.687464
vt 0.844901 0.639940
vt 0.705288 0.816480
vt 0.713826 0.778987
vt 0.740720 0.773576
vt 0.882179 0.612015
vt 0.899856 0.627928
vt 0.785942 0.736645
vt 0.737589 0.736729
vt 0.901302 0.699551
vt 0.884237 0.716418
vt 0.900479 0.604918
vt 0.916589 0.616133
vt 0.731208 0.810827
vt 0.781252 0.815738
vt 0.790334 0.776663
vt 0.792820 0.815738
vt 0.685652 0.759838
vt 0.682998 0.724699
vt 0.711337 0.723956
vt 0.939637 0.630374
vt 0.958197 0.643410
vt 0.714280 0.761171
vt 0.943641 0.704152
vt 0.953097 0.723032
vt 0.935201 0.732650
vt 0.915847 0.585154
vt 0.932255 0.595743
vt 0.952994 0.606220
vt 0.969294 0.619042
vt 0.922477 0.715765
vt 0.905978 0.727096
vt 0.960172 0.694215
vt 0.966986 0.714759
vt 0.617389 0.759351
vt 0.985830 0.539770
vt 0.921638 0.742261
vt 0.680217 0.809225
vt 0.686244 0.780282
vt 0.937908 0.632033
vt 0.914075 0.616766
vt 0.799629 0.741538
vt 0.950384 0.606690
vt 0.929177 0.595962
vt 0.606845 0.782846
vt 0.985831 0.786770
vt 0.825950 0.740125
vt 0.831428 0.765482
vt 0.824292 0.789807
vt 0.983405 0.540292
vt 0.886502 0.769618
vt 0.079441 0.642572
vt 0.323805 0.783669
vt 0.434321 0.717690
vt 0.181030 0.905936
vt 0.750185 0.933357
vt 0.852619 0.330170
vt 0.864841 0.273657
vt 0.471659 1.000083
vt 0.471227 0.822073
vt 0.875009 0.140328
vt 0.884706 0.228470
vt 0.005478 0.997961
vt 0.114251 0.350647
vt 0.008771 0.296380
vt 0.128249 0.435302
vt 0.008771 0.432960
vt 0.118380 0.522092
vt 0.175368 0.588619
vt 0.080720 0.522092
vt 0.116882 0.518706
vt 0.184949 0.068196
vt 0.118473 0.523480
vt 0.062823 0.510229
vt 0.088521 0.433747
vt 0.009554 0.660973
vt 0.474881 0.981892
vt 0.498876 0.974226
vt 0.010156 0.675711
vt 0.499828 0.971670
vt 0.345428 0.798296
vt 0.351108 0.999781
vt 0.009554 0.417542
vt 0.227609 0.895594
vt 0.243451 0.775267
vt 0.115982 0.348692
vt 0.223246 0.888263
vt 0.129915 0.437866
vt 0.182713 1.000024
vt 0.326573 0.827899
vt 0.051738 0.313685
vt 0.695543 0.105347
vt 0.187334 0.073157
vt 0.119252 0.520838
vt 0.200882 0.566241
vt 0.375541 0.599880
vt 0.459519 0.720731
vt 0.609394 0.637996
vt 0.636730 0.636125
vt 0.637405 0.688736
vt 0.938273 0.630062
vt 0.434214 0.717270
vt 0.356995 0.797342
vt 0.225020 0.895652
vt 0.755753 0.860681
vt 0.008771 0.676593
vt 0.423936 0.696206
vt 0.170235 0.588096
vt 0.430293 1.000083
vt 0.396997 0.861241
vt 0.057372 0.374862
vt 0.634627 0.636963
vt 0.637990 0.688597
vt 0.967389 0.665035
vt 0.889587 0.181464
vt 0.376483 0.598964
vn 0.003400 -0.989700 -0.143300
vn 0.117100 -0.799000 -0.589800
vn -0.900000 0.119100 -0.419300
vn 0.008500 -0.980700 -0.195300
vn -0.860000 -0.015500 -0.510100
vn -0.228400 0.113100 -0.966900
vn -0.709300 -0.000300 -0.704900
vn 0.112200 0.982600 -0.147900
vn 0.066200 0.994900 -0.075800
vn -0.636700 0.413700 0.650700
vn -0.534200 0.014700 0.845200
vn -0.017100 -0.439300 0.898200
vn 0.141800 0.958800 -0.246000
vn 0.278800 -0.229200 -0.932600
vn -0.968600 -0.248400 -0.010000
vn -0.003800 -0.045700 0.998900
vn -0.935400 -0.144700 0.322700
vn -0.014000 0.975100 0.221400
vn 0.025700 0.945100 -0.325800
vn -0.143400 0.364600 -0.920000
vn -0.022100 0.973400 0.227900
vn -0.908600 -0.406600 -0.095100
vn -0.713300 -0.555900 -0.426700
vn -0.562900 -0.602500 -0.565800
vn -0.886700 0.137500 -0.441500
vn -0.860200 -0.072500 0.504700
vn -0.084000 0.882500 0.462700
vn -0.796200 0.604900 0.008100
vn 0.201100 -0.516200 -0.832500
vn 0.140800 -0.777700 -0.612600
vn -0.336500 -0.808300 -0.483100
vn -0.992100 -0.078300 -0.098000
vn -0.013200 0.307500 -0.951400
vn -0.024700 0.190300 -0.981400
vn 0.065700 -0.437900 -0.896600
vn 0.067200 0.089300 -0.993700
vn -0.611000 -0.494400 -0.618200
vn -0.947600 0.265000 -0.178200
vn -0.064000 0.947500 0.313300
vn 0.031500 -0.769200 0.638200
vn -0.985400 0.165300 0.041100
vn -0.544200 0.380000 0.747900
vn 0.283200 0.280000 0.917300
vn 0.293200 -0.917400 0.269300
vn -0.149200 0.856300 0.494400
vn -0.952500 -0.303800 -0.020600
vn -0.883100 -0.445000 -0.148700
vn -0.071800 0.215900 0.973800
vn -0.033200 -0.960200 0.277300
vn -0.784900 -0.199500 -0.586600
vn 0.381900 -0.241100 -0.892100
vn 0.389600 0.909000 -0.148100
vn -0.382900 0.888200 0.253900
vn 0.132200 0.956400 -0.260500
vn -0.610600 0.735800 -0.292800
vn 0.206200 -0.282100 -0.936900
vn -0.559000 -0.183900 -0.808500
vn -0.769600 0.255100 0.585300
vn -0.739900 -0.669800 0.063000
vn -0.110200 -0.932400 0.344200
vn -0.253600 0.458900 0.851500
vn 0.677400 -0.691000 0.252200
vn 0.494200 -0.017700 0.869100
vn -0.906800 0.417300 -0.059600
vn 0.051500 0.492300 0.868900
vn -0.174800 0.791200 0.586000
vn -0.952000 -0.065800 0.299000
vn -0.322800 -0.230100 0.918000
vn -0.069400 -0.053900 -0.996100
vn -0.086800 -0.535100 -0.840300
vn -0.839600 0.273000 0.469600
vn -0.837600 -0.545800 0.023100
vn -0.183700 0.785700 0.590700
vn -0.133800 0.858700 0.494600
vn -0.721100 -0.024000 -0.692400
vn 0.028400 0.651400 -0.758200
vn -0.054700 0.654100 -0.754400
vn -0.622400 -0.477800 -0.619900
vn -0.190600 0.704800 0.683300
vn -0.886700 0.109700 0.449200
vn -0.871200 0.021400 0.490300
vn 0.117400 -0.715300 -0.688800
vn 0.135900 -0.805700 -0.576600
vn 0.145300 -0.863300 -0.483200
vn 0.065100 -0.956900 -0.282800
vn -0.563200 -0.617500 -0.549100
vn -0.527100 -0.750600 -0.398300
vn -0.004100 -0.903900 0.427700
vn 0.696600 -0.702500 0.145200
vn -0.070200 -0.997300 0.022200
vn 0.055500 0.975500 -0.212700
vn -0.189400 0.758100 0.623900
vn 0.506400 0.649400 0.567300
vn -0.787900 0.573700 0.223600
vn -0.724900 0.590900 0.353900
vn -0.479900 -0.689000 0.543000
vn -0.882800 -0.331400 -0.332700
vn -0.739200 0.208500 -0.640300
vn 0.047200 -0.937300 -0.345300
vn -0.205000 -0.918200 -0.339000
vn -0.282500 -0.911100 0.300200
vn 0.154300 -0.854500 -0.496000
vn 0.020300 -0.948700 0.315500
vn 0.374500 -0.306600 0.875000
vn -0.658300 0.751400 -0.044400
vn -0.421800 0.822300 0.382000
vn 0.295800 -0.922700 -0.247000
vn 0.470400 -0.578800 0.666000
vn 0.495100 -0.842200 -0.213200
vn 0.737000 -0.405500 0.540800
vn 0.595100 -0.330800 0.732400
vn -0.205300 0.938500 0.277700
vn 0.363400 -0.922900 0.126800
vn 0.601100 -0.730100 0.324900
vn 0.551100 -0.507100 -0.662600
vn 0.631600 -0.573700 -0.521400
vn 0.353200 -0.284200 0.891300
vn -0.292300 0.943600 0.155200
vn -0.701300 -0.658000 0.274200
vn 0.690800 -0.719800 -0.067200
vn 0.380600 -0.506900 0.773400
vn 0.726300 0.683800 0.069600
vn 0.738000 0.078400 -0.670200
vn 0.409500 -0.875300 0.257200
vn 0.696800 -0.203400 -0.687800
vn 0.635000 -0.738900 -0.225000
vn -0.578400 0.769300 -0.271300
vn 0.099800 0.490300 0.865800
vn -0.454900 -0.371600 0.809300
vn 0.429800 0.812400 0.394100
vn -0.149600 -0.831900 -0.534300
vn -0.948200 -0.221000 -0.228100
vn 0.342000 0.603500 0.720300
vn -0.757000 -0.211300 0.618300
vn -0.846900 -0.342200 -0.407000
vn 0.957200 -0.283900 0.056100
vn 0.611100 -0.408200 0.678100
vn -0.905800 -0.071600 0.417500
vn 0.751900 0.494300 -0.436100
vn 0.550300 -0.036400 0.834100
vn 0.808900 0.150000 0.568400
vn 0.362300 0.643900 0.673800
vn 0.916400 -0.367400 -0.158800
vn 0.671700 -0.047300 -0.739300
vn 0.884600 -0.437300 -0.161800
vn -0.531200 -0.677900 -0.508200
vn -0.622500 -0.120800 -0.773200
vn -0.854500 0.452600 0.254800
vn -0.547600 -0.509600 -0.663600
vn -0.771500 -0.211500 -0.600000
vn 0.285100 0.882800 0.373200
vn -0.831000 0.543500 0.117900
vn -0.493200 0.776500 0.392000
vn 0.955300 0.176500 -0.237100
vn 0.442100 -0.896200 -0.037400
vn 0.877400 -0.469500 0.098500
vn -0.617200 -0.576000 -0.536000
vn 0.184600 0.979500 -0.080500
vn 0.943900 -0.236900 -0.229900
vn -0.383300 -0.736400 -0.557400
vn 0.114100 0.968700 0.220600
vn 0.973900 0.033200 -0.224300
vn -0.873000 -0.004800 -0.487700
vn -0.065300 -0.846400 0.528500
vn -0.810300 0.571800 -0.128300
vn 0.930100 -0.034700 -0.365700
vn -0.405500 -0.797200 -0.447200
vn -0.397500 -0.917100 -0.031300
vn -0.896500 0.299800 0.326200
vn 0.350000 0.513900 0.783200
vn -0.814700 0.530400 0.234100
vn -0.891900 0.167700 0.420000
vn 0.402300 0.627700 0.666500
vn -0.749200 0.007800 0.662300
vn 0.342400 0.178600 0.922400
vn 0.861400 -0.454300 -0.227200
vn 0.306100 -0.836100 0.455100
vn -0.500200 -0.496700 -0.709300
vn 0.595600 0.734200 -0.325900
vn 0.640800 0.669600 -0.375500
vn -0.412800 -0.526100 -0.743500
vn -0.077400 -0.915200 0.395400
vn 0.191300 -0.205900 0.959700
vn 0.600100 -0.798700 -0.042600
vn 0.135600 -0.898300 0.417800
vn -0.785400 -0.397900 0.474100
vn -0.984600 0.053600 -0.166300
vn 0.089200 -0.945300 -0.313600
vn 0.193600 -0.726900 -0.658900
vn -0.268300 0.520900 0.810300
vn 0.025800 -0.991700 -0.125700
vn -0.019400 -0.989900 -0.140600
vn -0.201100 -0.406300 0.891300
vn 0.959000 -0.140600 -0.246200
vn 0.682900 -0.091100 -0.724800
vn 0.502400 -0.136100 0.853800
vn 0.995900 -0.081800 -0.036700
vn 0.958700 -0.230200 -0.166900
vn 0.066400 -0.992600 0.101500
vn -0.683000 -0.711800 0.163900
vn 0.654600 -0.196800 0.729900
vn -0.004900 0.972200 0.233900
vn 0.996800 -0.053900 0.059400
vn 0.746500 -0.589200 -0.309100
vn 0.576700 0.249700 -0.777800
vn 0.873500 -0.431900 0.224500
vn 0.557600 0.084100 0.825800
vn 0.705600 -0.668000 -0.236300
vn -0.017500 0.973800 0.226500
vn 0.843300 0.431700 0.320000
vn 0.435400 -0.863700 -0.253700
vn 0.992200 -0.056300 -0.111300
vn 0.961500 0.274800 -0.000400
vn 0.722700 -0.509400 -0.467100
vn 0.953500 0.180100 0.241600
vn 0.032400 0.274100 0.961100
vn -0.464800 -0.760400 0.453500
vn -0.733000 0.206900 0.648000
vn 0.180800 0.427100 0.885900
vn 0.809200 -0.460100 0.365200
vn -0.191700 -0.896500 0.399500
vn -0.427700 0.369500 0.824900
vn -0.467400 0.827100 -0.312000
vn 0.080400 -0.354200 -0.931700
vn 0.939800 -0.231700 -0.251100
vn 0.257600 0.894500 0.365400
vn 0.437200 0.323300 0.839200
vn 0.717700 0.692300 -0.075100
vn 0.242600 -0.404800 -0.881600
vn 0.040300 0.907200 -0.418800
vn 0.860500 -0.273100 -0.430100
vn 0.582600 -0.646800 0.492100
vn 0.560600 -0.118700 0.819500
vn 0.272000 -0.873700 -0.403400
vn 0.788000 0.551900 -0.272600
vn 0.825700 -0.026200 -0.563400
vn -0.813100 -0.372000 0.447700
vn 0.801400 -0.302200 0.516200
vn 0.692200 -0.565500 0.448300
vn 0.477700 0.237000 0.845900
vn 0.997000 0.067100 0.037100
vn 0.748500 -0.612000 -0.255200
vn 0.399600 0.034100 0.916000
vn 0.743600 -0.660800 -0.101300
vn 0.621400 -0.783300 -0.016800
vn 0.662300 0.396600 0.635600
vn -0.433000 0.557700 0.708100
vn -0.162800 0.397300 0.903100
vn 0.692300 0.645000 0.323400
vn 0.686300 -0.726200 -0.038600
vn 0.985700 0.068800 -0.153500
vn 0.400900 0.666400 -0.628700
vn 0.062700 -0.951900 0.299800
vn -0.242800 -0.952300 0.184700
vn -0.483000 -0.511300 0.710800
vn -0.283300 -0.918900 -0.274400
vn -0.527500 -0.765000 -0.369400
vn 0.250600 0.946800 0.201900
vn -0.658800 -0.244600 0.711400
vn 0.250400 0.967000 0.047200
vn -0.328300 -0.928300 0.174700
vn -0.695400 -0.596500 0.400700
vn -0.471800 -0.383500 -0.793900
vn -0.566100 -0.463100 -0.682000
vn -0.368100 -0.224400 0.902200
vn -0.551500 -0.633000 0.543300
vn -0.739000 -0.629700 -0.239400
vn -0.323800 -0.513800 0.794400
vn -0.475500 -0.824000 0.307900
vn -0.596100 -0.025000 -0.802500
vn -0.704400 -0.318300 -0.634400
vn -0.675200 -0.655600 -0.338100
vn 0.925000 0.069500 0.373500
vn -0.175600 -0.451400 0.874800
vn 0.937100 -0.273400 0.216700
vn 0.716800 -0.206200 -0.666000
vn 0.669100 0.743000 0.013600
vn -0.249400 -0.823400 0.509700
vn -0.720400 -0.120400 0.683000
vn -0.879100 0.475100 0.036700
vn -0.832500 -0.517600 0.197700
vn -0.265400 0.712000 0.650000
vn 0.442800 -0.613400 -0.654000
vn -0.780400 -0.624500 0.031300
vn -0.861300 -0.007300 -0.508000
vn 0.323500 0.186200 -0.927700
vn 0.789000 0.605700 -0.102400
vn 0.737100 0.649500 -0.186400
vn 0.584700 -0.193700 -0.787800
vn 0.417300 -0.552800 -0.721300
vn -0.271300 0.899300 0.343000
vn 0.420900 0.890700 0.171600
vn -0.999400 -0.007300 0.034200
vn 0.559200 -0.593300 -0.579000
vn -0.739300 -0.546200 0.393800
vn -0.291400 -0.936600 0.194400
vn -0.894400 -0.446200 0.030000
vn -0.377900 0.915600 -0.136900
vn 0.661500 0.629500 -0.407600
vn 0.359700 -0.767500 -0.530600
vn -0.991600 -0.125000 0.032000
vn -0.220400 0.968900 0.112500
vn 0.384700 -0.693100 0.609500
vn 0.715500 0.028800 -0.698000
vn 0.398500 -0.814200 -0.422100
vn -0.974400 -0.215100 -0.065600
vn 0.888900 0.457600 0.021900
vn 0.511300 -0.858700 0.032500
vn -0.235500 0.610200 0.756400
vn -0.113900 0.315300 0.942100
vn 0.926300 0.359100 0.114100
vn -0.312000 0.681600 0.661800
vn 0.887600 0.229500 0.399300
vn 0.737400 0.670900 -0.078400
vn -0.795000 -0.596400 0.110700
vn -0.011300 -0.761500 0.648000
vn 0.380700 -0.558500 -0.737000
vn -0.811200 0.514700 -0.277500
vn 0.318800 -0.601200 -0.732700
vn -0.827700 0.482000 -0.287300
vn 0.337400 -0.805000 0.487900
vn 0.089700 -0.039700 0.995100
vn -0.440600 -0.864100 0.243100
vn 0.953500 0.021500 0.300700
vn 0.304700 -0.717300 0.626600
vn 0.964200 -0.185300 -0.189400
vn 0.738500 -0.415900 -0.530600
s 1
f 181/1/1 182/2/2 14/3/3
f 180/4/4 9/5/5 4/6/6
f 3/7/7 4/8/6 7/9/8
f 4/8/6 9/10/5 8/11/9
f 6/12/10 73/13/11 57/14/12
f 3/7/7 5/15/13 1/16/14
f 76/17/15 6/12/10 10/18/16
f 8/19/9 9/10/5 12/20/17
f 11/21/18 12/22/17 14/23/3
f 15/24/19 6/25/10 76/26/15
f 14/27/3 77/28/20 16/29/21
f 32/30/22 61/31/23 64/32/24
f 16/33/21 17/34/25 20/35/26
f 19/36/27 20/35/26 23/37/28
f 18/38/29 21/39/30 78/40/31
f 42/41/32 58/42/33 79/43/34
f 24/44/35 27/45/36 60/46/37
f 23/37/28 26/47/38 25/48/39
f 41/49/40 42/50/32 80/51/41
f 40/52/42 47/53/43 44/54/44
f 33/55/45 34/56/46 37/57/47
f 47/53/43 51/58/48 48/59/49
f 29/60/50 45/61/51 46/62/52
f 29/60/50 32/30/22 44/63/44
f 39/64/53 46/65/52 47/53/43
f 51/66/48 50/67/54 54/68/55
f 44/63/44 48/69/49 49/70/56
f 46/65/52 50/71/54 51/58/48
f 46/62/52 45/61/51 49/70/56
f 50/67/54 49/72/56 53/73/57
f 51/66/48 55/74/58 52/75/59
f 49/72/56 48/76/49 52/75/59
f 37/57/47 38/77/60 36/78/61
f 57/79/12 249/80/62 229/81/63
f 80/51/41 82/82/64 81/83/65
f 187/84/66 71/85/67 70/86/68
f 82/87/64 83/88/69 86/89/70
f 176/90/71 174/91/72 175/92/73
f 28/93/74 39/64/53 40/52/42
f 26/47/38 39/64/53 25/48/39
f 175/92/73 174/91/72 34/56/46
f 66/94/75 56/95/76 58/42/33
f 27/45/36 74/96/77 76/97/15
f 60/46/37 61/31/23 29/60/50
f 59/98/78 60/46/37 26/99/38
f 29/60/50 61/31/23 32/30/22
f 185/100/79 62/101/80 67/102/81
f 30/103/82 63/104/83 64/32/24
f 65/105/84 69/106/85 72/107/86
f 67/108/81 68/109/87 72/107/86
f 35/110/88 41/111/40 325/112/89
f 62/113/80 64/32/24 68/109/87
f 63/104/83 65/105/84 68/109/87
f 69/106/85 70/114/68 71/115/67
f 3/116/7 1/117/14 178/118/90
f 6/25/10 15/24/19 2/119/91
f 61/31/23 60/46/37 76/97/15
f 30/103/82 61/31/23 76/97/15
f 21/39/30 24/44/35 59/98/78
f 78/40/31 59/98/78 23/120/28
f 17/121/25 18/38/29 78/40/31
f 31/122/92 40/52/42 176/90/71
f 80/123/41 79/43/34 83/88/69
f 120/124/93 119/125/94 123/126/95
f 126/127/96 118/128/97 127/129/98
f 86/130/70 89/131/99 88/132/100
f 114/133/101 93/134/102 112/135/103
f 91/136/104 90/137/105 94/138/106
f 93/134/102 98/139/107 104/140/108
f 112/135/103 93/134/102 109/141/109
f 94/142/106 93/143/102 98/144/107
f 92/145/110 96/146/111 98/139/107
f 99/147/112 98/144/107 97/148/113
f 93/134/102 104/140/108 115/149/114
f 111/150/115 93/134/102 116/151/116
f 96/146/111 100/152/117 97/153/113
f 99/154/112 95/155/118 100/152/117
f 73/13/11 66/156/75 102/157/119
f 93/134/102 113/158/120 116/151/116
f 100/152/117 95/155/118 101/159/121
f 95/160/118 97/148/113 101/161/121
f 97/153/113 100/152/117 101/159/121
f 94/138/106 99/154/112 96/146/111
f 98/139/107 97/153/113 104/140/108
f 56/162/76 237/163/122 224/164/123
f 97/153/113 101/159/121 104/140/108
f 104/140/108 105/165/124 115/149/114
f 108/166/125 111/150/115 116/151/116
f 116/151/116 113/158/120 106/167/126
f 110/168/127 112/135/103 109/141/109
f 115/149/114 105/165/124 106/167/126
f 114/133/101 112/135/103 110/168/127
f 108/166/125 109/141/109 111/150/115
f 57/14/12 73/13/11 102/157/119
f 35/169/88 57/14/12 102/157/119
f 81/83/65 82/82/64 84/170/128
f 109/141/109 93/134/102 111/150/115
f 93/134/102 115/149/114 113/158/120
f 224/171/123 238/172/129 229/81/63
f 237/163/122 241/173/130 240/174/131
f 66/156/75 327/175/132 102/157/119
f 73/176/11 2/119/91 90/177/105
f 124/178/133 123/126/95 122/179/134
f 85/180/135 88/181/100 118/182/97
f 84/183/128 82/184/64 120/124/93
f 118/185/97 122/179/134 123/126/95
f 84/183/128 120/124/93 117/186/136
f 117/186/136 120/124/93 124/178/133
f 125/187/137 126/127/96 130/188/138
f 117/189/136 128/190/139 127/191/98
f 126/127/96 125/187/137 121/192/140
f 122/179/134 118/128/97 126/127/96
f 117/193/136 125/187/137 129/194/141
f 129/194/141 135/195/142 137/196/143
f 117/193/136 121/192/140 125/187/137
f 133/197/144 134/198/145 132/199/146
f 129/194/141 134/200/145 133/201/144
f 128/190/139 133/197/144 131/202/147
f 130/188/138 127/129/98 131/203/147
f 136/204/148 138/205/149 142/206/150
f 130/207/138 136/204/148 135/195/142
f 130/207/138 132/208/146 138/205/149
f 132/199/146 134/198/145 137/209/143
f 139/210/151 140/211/152 147/212/153
f 136/204/148 140/211/152 139/210/151
f 135/195/142 139/210/151 141/213/154
f 138/214/149 137/209/143 141/215/154
f 148/216/155 158/217/156 161/218/157
f 139/210/151 143/219/158 145/220/159
f 141/221/154 145/222/159 148/216/155
f 140/211/152 142/206/150 146/223/160
f 143/219/158 150/224/161 149/225/162
f 146/226/160 142/227/150 148/216/155
f 142/227/150 168/228/163 167/229/164
f 140/211/152 144/230/165 147/212/153
f 143/219/158 139/210/151 147/212/153
f 149/231/162 153/232/166 156/233/167
f 147/212/153 148/234/155 152/235/168
f 147/212/153 151/236/169 150/224/161
f 145/222/159 149/231/162 152/237/168
f 160/238/170 159/239/171 164/240/172
f 150/224/161 154/241/173 153/242/166
f 151/236/169 152/235/168 156/243/167
f 151/236/169 155/244/174 154/241/173
f 147/212/153 144/230/165 159/239/171
f 144/230/165 146/223/160 161/245/157
f 147/212/153 160/238/170 158/246/156
f 160/238/170 162/247/175 163/248/176
f 156/233/167 153/232/166 157/249/177
f 153/242/166 154/241/173 157/250/177
f 155/244/174 156/243/167 157/250/177
f 154/241/173 155/244/174 157/250/177
f 159/239/171 161/245/157 165/251/178
f 158/217/156 163/252/176 165/253/178
f 142/254/150 141/215/154 169/255/179
f 141/221/154 148/216/155 167/229/164
f 169/255/179 172/256/180 171/257/181
f 165/253/178 163/252/176 166/258/182
f 163/248/176 162/247/175 166/259/182
f 162/247/175 164/240/172 166/259/182
f 164/240/172 165/251/178 166/259/182
f 169/260/179 167/229/164 170/261/183
f 167/229/164 168/228/163 171/262/181
f 171/257/181 172/256/180 173/263/184
f 172/264/180 170/261/183 173/265/184
f 170/261/183 171/262/181 173/265/184
f 88/266/100 87/267/185 117/189/136
f 82/268/64 85/180/135 119/269/94
f 240/270/131 239/271/186 238/172/129
f 40/52/42 32/272/22 176/90/71
f 176/90/71 32/272/22 174/91/72
f 54/68/55 53/73/57 177/273/187
f 53/73/57 52/75/59 177/273/187
f 52/75/59 55/74/58 177/273/187
f 55/74/58 54/68/55 177/273/187
f 183/274/188 184/275/189 37/276/47
f 71/85/67 187/84/66 186/277/190
f 188/278/191 183/274/188 34/279/46
f 3/116/7 178/118/90 179/280/192
f 180/4/4 181/1/1 12/281/17
f 189/282/193 32/283/22 62/101/80
f 189/282/193 188/278/191 174/284/72
f 18/38/29 17/121/25 77/285/20
f 88/266/100 89/286/99 87/267/185
f 37/276/47 184/275/189 38/287/60
f 190/288/194 191/289/195 179/290/192
f 16/291/21 19/292/27 197/293/196
f 7/294/8 191/295/195 190/296/194
f 8/297/9 193/298/197 191/295/195
f 230/299/198 75/300/199 10/301/16
f 190/296/194 1/302/14 5/303/13
f 327/175/132 66/156/75 324/304/200
f 8/305/9 11/306/18 194/307/201
f 11/306/18 13/308/202 195/309/203
f 219/310/204 24/311/35 21/312/30
f 16/291/21 231/313/205 195/309/203
f 201/314/206 222/315/207 223/316/208
f 191/289/195 193/317/197 180/318/4
f 19/292/27 22/319/209 198/320/210
f 18/321/29 232/322/211 21/312/30
f 206/323/212 233/324/213 79/325/34
f 220/326/214 27/327/36 24/311/35
f 25/328/39 199/329/215 198/320/210
f 41/111/40 43/330/216 233/331/213
f 207/332/217 210/333/218 205/334/219
f 33/335/45 36/336/61 203/337/220
f 211/338/221 214/339/222 210/333/218
f 209/340/223 208/341/224 200/342/225
f 200/342/225 208/341/224 207/343/217
f 210/333/218 209/344/223 204/345/226
f 214/346/222 218/347/227 217/348/228
f 212/349/229 211/350/221 207/343/217
f 214/339/222 213/351/230 209/344/223
f 209/340/223 213/352/230 212/349/229
f 213/353/230 217/348/228 216/354/231
f 215/355/232 218/347/227 214/346/222
f 212/356/229 216/354/231 215/355/232
f 227/357/233 70/358/68 69/359/85
f 236/360/234 87/361/185 89/362/99
f 81/363/65 234/364/235 233/331/213
f 187/84/66 70/86/68 227/365/233
f 236/360/234 265/366/236 264/367/237
f 28/368/74 31/369/92 205/334/219
f 204/345/226 200/370/225 199/329/215
f 175/371/73 33/335/45 202/372/238
f 175/371/73 321/373/239 322/374/240
f 196/375/241 197/376/196 232/322/211
f 200/342/225 221/377/242 220/326/214
f 199/378/215 220/326/214 219/310/204
f 200/342/225 201/314/206 221/377/242
f 185/100/79 186/277/190 225/379/243
f 223/316/208 63/380/83 30/381/82
f 228/382/244 69/359/85 65/383/84
f 225/384/243 227/357/233 228/382/244
f 222/315/207 225/384/243 226/385/245
f 226/385/245 65/383/84 63/380/83
f 186/277/190 187/84/66 227/365/233
f 190/288/194 178/386/90 1/387/14
f 192/388/246 229/389/63 2/390/91
f 221/377/242 230/391/198 220/326/214
f 30/381/82 75/392/199 230/391/198
f 230/393/198 192/388/246 15/394/19
f 198/395/210 219/310/204 232/322/211
f 31/369/92 322/374/240 205/334/219
f 233/324/213 234/396/235 83/397/69
f 267/398/247 271/399/248 270/400/249
f 273/401/250 277/402/251 274/403/252
f 261/404/253 259/405/254 240/270/131
f 238/172/129 239/271/186 241/406/130
f 240/270/131 251/407/255 245/408/256
f 259/405/254 256/409/257 240/270/131
f 241/173/130 246/410/258 245/411/256
f 245/408/256 243/412/259 239/271/186
f 246/410/258 242/413/260 244/414/261
f 240/270/131 262/415/262 251/407/255
f 258/416/263 263/417/264 240/270/131
f 244/418/261 247/419/265 243/412/259
f 247/419/265 242/420/260 246/421/258
f 103/422/266 66/423/75 114/133/101
f 240/270/131 263/417/264 260/424/267
f 247/419/265 248/425/268 242/420/260
f 242/413/260 248/426/268 244/414/261
f 244/418/261 248/425/268 247/419/265
f 243/412/259 246/421/258 241/406/130
f 245/408/256 251/407/255 244/418/261
f 244/418/261 251/407/255 248/425/268
f 251/407/255 262/415/262 252/427/269
f 255/428/270 254/429/271 263/417/264
f 263/417/264 254/429/271 253/430/272
f 257/431/273 256/409/257 259/405/254
f 262/415/262 260/424/267 253/430/272
f 257/431/273 259/405/254 261/404/253
f 255/428/270 258/416/263 256/409/257
f 66/432/75 93/134/102 114/133/101
f 81/363/65 84/433/128 234/364/235
f 256/409/257 258/416/263 240/270/131
f 240/270/131 260/424/267 262/415/262
f 229/389/63 238/434/129 237/435/122
f 230/391/198 74/436/77 27/327/36
f 231/437/205 18/321/29 195/438/203
f 271/399/248 268/439/274 269/440/275
f 235/441/276 266/442/277 265/443/236
f 236/444/234 89/131/99 86/130/70
f 270/400/249 269/440/275 265/445/236
f 84/446/128 267/398/247 234/447/235
f 264/448/237 268/449/274 271/399/248
f 272/450/278 276/451/279 277/402/251
f 274/452/252 275/453/280 264/367/237
f 273/401/250 269/440/275 268/439/274
f 269/440/275 273/401/250 265/454/236
f 264/455/237 275/456/280 276/451/279
f 284/457/281 282/458/282 276/459/279
f 264/455/237 272/450/278 268/439/274
f 279/460/283 281/461/284 280/462/285
f 280/463/285 281/464/284 276/451/279
f 278/465/286 280/462/285 275/453/280
f 277/402/251 279/466/283 278/467/286
f 283/468/287 287/469/288 289/470/289
f 282/458/282 283/468/287 277/402/251
f 277/402/251 283/468/287 285/471/290
f 279/460/283 285/472/290 284/473/281
f 286/474/291 294/475/292 287/469/288
f 286/474/291 287/469/288 283/468/287
f 288/476/293 286/474/291 282/458/282
f 285/472/290 289/477/289 288/478/293
f 308/479/294 305/480/295 295/481/296
f 292/482/297 290/483/298 286/474/291
f 288/484/293 295/481/296 292/485/297
f 287/469/288 291/486/299 293/487/300
f 296/488/301 297/489/302 290/483/298
f 293/490/300 295/481/296 289/491/289
f 314/492/303 315/493/304 289/491/289
f 287/469/288 294/475/292 291/486/299
f 290/483/298 294/475/292 286/474/291
f 303/494/305 300/495/306 296/496/301
f 294/475/292 298/497/307 299/498/308
f 297/489/302 298/497/307 294/475/292
f 299/499/308 296/496/301 292/485/297
f 307/500/309 309/501/310 311/502/311
f 300/503/306 301/504/312 297/489/302
f 298/497/307 302/505/313 303/506/305
f 301/504/312 302/505/313 298/497/307
f 294/475/292 307/500/309 306/507/314
f 291/486/299 306/507/314 308/508/294
f 305/509/295 307/500/309 294/475/292
f 310/510/315 309/501/310 307/500/309
f 303/494/305 304/511/316 300/495/306
f 300/503/306 304/512/316 301/504/312
f 302/505/313 304/512/316 303/506/305
f 301/504/312 304/512/316 302/505/313
f 306/507/314 311/502/311 312/513/317
f 312/514/317 310/515/315 305/480/295
f 289/477/289 315/516/304 316/517/318
f 288/484/293 316/518/318 314/492/303
f 318/519/319 319/520/320 316/517/318
f 312/514/317 313/521/321 310/515/315
f 310/510/315 313/522/321 309/501/310
f 309/501/310 313/522/321 311/502/311
f 311/502/311 313/522/321 312/513/317
f 316/518/318 319/523/320 317/524/322
f 314/492/303 317/524/322 318/525/319
f 318/519/319 320/526/323 319/520/320
f 319/523/320 320/527/323 317/524/322
f 317/524/322 320/527/323 318/525/319
f 57/79/12 229/81/63 192/528/246
f 234/529/235 267/530/247 266/442/277
f 205/334/219 322/374/240 201/531/206
f 322/374/240 321/373/239 201/531/206
f 217/348/228 323/532/324 216/354/231
f 216/354/231 323/532/324 215/355/232
f 215/355/232 323/532/324 218/347/227
f 218/347/227 323/532/324 217/348/228
f 203/533/220 184/275/189 183/274/188
f 202/534/238 183/274/188 188/278/191
f 181/535/1 194/536/201 195/438/203
f 194/536/201 181/535/1 180/318/4
f 189/282/193 185/100/79 222/537/207
f 321/538/239 188/278/191 189/282/193
f 203/337/220 36/336/61 38/539/60
f 264/448/237 267/398/247 84/446/128
f 203/533/220 38/287/60 184/275/189
f 234/396/235 235/540/276 86/541/70
f 224/164/123 206/542/212 58/543/33
f 91/136/104 92/145/110 93/134/102
f 2/119/91 56/95/76 90/177/105
f 90/177/105 66/544/75 93/143/102
f 2/390/91 237/545/122 56/162/76
f 66/156/75 73/13/11 91/136/104
f 56/95/76 66/546/75 90/177/105
f 224/547/123 261/404/253 240/270/131
f 250/548/325 261/404/253 224/549/123
f 229/81/63 249/80/62 224/171/123
f 249/80/62 35/110/88 326/550/326
f 35/110/88 249/80/62 57/79/12
f 66/156/75 42/50/32 324/304/200
f 42/50/32 41/49/40 324/304/200
f 41/49/40 35/169/88 324/304/200
f 41/111/40 206/551/212 325/112/89
f 206/551/212 224/171/123 325/112/89
f 326/550/326 35/110/88 325/112/89
f 224/171/123 249/80/62 326/550/326
f 224/171/123 326/550/326 325/112/89
f 35/169/88 327/175/132 324/304/200
f 327/175/132 35/169/88 102/157/119
f 12/281/17 181/1/1 14/3/3
f 179/280/192 180/4/4 4/6/6
f 5/15/13 3/7/7 7/9/8
f 7/9/8 4/8/6 8/11/9
f 10/18/16 6/12/10 57/14/12
f 75/552/199 76/17/15 10/18/16
f 11/553/18 8/19/9 12/20/17
f 13/554/202 11/21/18 14/23/3
f 74/555/77 15/24/19 76/26/15
f 16/29/21 13/556/202 14/27/3
f 77/28/20 17/557/25 16/29/21
f 62/113/80 32/30/22 64/32/24
f 19/36/27 16/33/21 20/35/26
f 22/558/209 19/36/27 23/37/28
f 80/123/41 42/41/32 79/43/34
f 59/98/78 24/44/35 60/46/37
f 22/558/209 23/37/28 25/48/39
f 43/559/216 41/49/40 80/51/41
f 32/272/22 40/52/42 44/54/44
f 36/78/61 33/55/45 37/57/47
f 44/54/44 47/53/43 48/59/49
f 39/560/53 29/60/50 46/62/52
f 45/61/51 29/60/50 44/63/44
f 40/52/42 39/64/53 47/53/43
f 55/74/58 51/66/48 54/68/55
f 45/61/51 44/63/44 49/70/56
f 47/53/43 46/65/52 51/58/48
f 50/561/54 46/62/52 49/70/56
f 54/68/55 50/67/54 53/73/57
f 48/76/49 51/66/48 52/75/59
f 53/73/57 49/72/56 52/75/59
f 43/559/216 80/51/41 81/83/65
f 85/562/135 82/87/64 86/89/70
f 31/122/92 176/90/71 175/92/73
f 31/122/92 28/93/74 40/52/42
f 28/93/74 25/48/39 39/64/53
f 26/47/38 29/563/50 39/64/53
f 33/55/45 175/92/73 34/56/46
f 42/564/32 66/94/75 58/42/33
f 60/46/37 27/45/36 76/97/15
f 26/99/38 60/46/37 29/60/50
f 23/120/28 59/98/78 26/99/38
f 186/277/190 185/100/79 67/102/81
f 61/31/23 30/103/82 64/32/24
f 68/109/87 65/105/84 72/107/86
f 71/115/67 67/108/81 72/107/86
f 67/108/81 62/113/80 68/109/87
f 64/32/24 63/104/83 68/109/87
f 72/107/86 69/106/85 71/115/67
f 73/176/11 6/25/10 2/119/91
f 75/565/199 30/103/82 76/97/15
f 78/40/31 21/39/30 59/98/78
f 20/566/26 78/40/31 23/120/28
f 20/566/26 17/121/25 78/40/31
f 82/87/64 80/123/41 83/88/69
f 124/178/133 120/124/93 123/126/95
f 130/188/138 126/127/96 127/129/98
f 85/567/135 86/130/70 88/132/100
f 92/145/110 91/136/104 94/138/106
f 99/147/112 94/142/106 98/144/107
f 93/134/102 92/145/110 98/139/107
f 95/160/118 99/147/112 97/148/113
f 98/139/107 96/146/111 97/153/113
f 96/146/111 99/154/112 100/152/117
f 92/145/110 94/138/106 96/146/111
f 107/568/327 108/166/125 116/151/116
f 107/568/327 116/151/116 106/167/126
f 113/158/120 115/149/114 106/167/126
f 103/569/266 114/133/101 110/168/127
f 224/570/123 237/163/122 240/174/131
f 91/571/104 73/176/11 90/177/105
f 121/192/140 124/178/133 122/179/134
f 119/269/94 85/180/135 118/182/97
f 119/125/94 118/185/97 123/126/95
f 87/572/185 84/183/128 117/186/136
f 121/192/140 117/186/136 124/178/133
f 129/194/141 125/187/137 130/188/138
f 118/573/97 117/189/136 127/191/98
f 122/179/134 126/127/96 121/192/140
f 128/574/139 117/193/136 129/194/141
f 134/575/145 129/194/141 137/196/143
f 131/202/147 133/197/144 132/199/146
f 128/574/139 129/194/141 133/201/144
f 127/191/98 128/190/139 131/202/147
f 132/576/146 130/188/138 131/203/147
f 140/211/152 136/204/148 142/206/150
f 129/194/141 130/207/138 135/195/142
f 136/204/148 130/207/138 138/205/149
f 138/214/149 132/199/146 137/209/143
f 135/195/142 136/204/148 139/210/151
f 137/196/143 135/195/142 141/213/154
f 142/254/150 138/214/149 141/215/154
f 146/226/160 148/216/155 161/218/157
f 141/213/154 139/210/151 145/220/159
f 144/230/165 140/211/152 146/223/160
f 145/220/159 143/219/158 149/225/162
f 148/216/155 142/227/150 167/229/164
f 152/237/168 149/231/162 156/233/167
f 151/236/169 147/212/153 152/235/168
f 143/219/158 147/212/153 150/224/161
f 148/216/155 145/222/159 152/237/168
f 162/247/175 160/238/170 164/240/172
f 149/225/162 150/224/161 153/242/166
f 155/244/174 151/236/169 156/243/167
f 150/224/161 151/236/169 154/241/173
f 160/238/170 147/212/153 159/239/171
f 159/239/171 144/230/165 161/245/157
f 148/234/155 147/212/153 158/246/156
f 158/246/156 160/238/170 163/248/176
f 164/240/172 159/239/171 165/251/178
f 161/218/157 158/217/156 165/253/178
f 168/577/163 142/254/150 169/255/179
f 169/260/179 141/221/154 167/229/164
f 168/577/163 169/255/179 171/257/181
f 172/264/180 169/260/179 170/261/183
f 170/261/183 167/229/164 171/262/181
f 118/573/97 88/266/100 117/189/136
f 120/578/93 82/268/64 119/269/94
f 224/171/123 240/270/131 238/172/129
f 34/279/46 183/274/188 37/276/47
f 67/102/81 71/85/67 186/277/190
f 174/284/72 188/278/191 34/279/46
f 4/6/6 3/116/7 179/280/192
f 9/5/5 180/4/4 12/281/17
f 185/100/79 189/282/193 62/101/80
f 32/283/22 189/282/193 174/284/72
f 77/285/20 14/3/3 18/38/29
f 182/2/2 18/38/29 14/3/3
f 178/386/90 190/288/194 179/290/192
f 196/579/241 16/291/21 197/293/196
f 5/303/13 7/294/8 190/296/194
f 7/294/8 8/297/9 191/295/195
f 192/528/246 230/299/198 10/301/16
f 193/298/197 8/305/9 194/307/201
f 194/307/201 11/306/18 195/309/203
f 232/322/211 219/310/204 21/312/30
f 195/309/203 13/308/202 16/291/21
f 16/291/21 196/579/241 231/313/205
f 221/377/242 201/314/206 223/316/208
f 179/290/192 191/289/195 180/318/4
f 197/293/196 19/292/27 198/320/210
f 58/543/33 206/323/212 79/325/34
f 219/310/204 220/326/214 24/311/35
f 22/319/209 25/328/39 198/320/210
f 206/551/212 41/111/40 233/331/213
f 201/531/206 207/332/217 205/334/219
f 202/372/238 33/335/45 203/337/220
f 207/332/217 211/338/221 210/333/218
f 204/580/226 209/340/223 200/342/225
f 201/314/206 200/342/225 207/343/217
f 205/334/219 210/333/218 204/345/226
f 213/353/230 214/346/222 217/348/228
f 208/341/224 212/349/229 207/343/217
f 210/333/218 214/339/222 209/344/223
f 208/341/224 209/340/223 212/349/229
f 212/356/229 213/353/230 216/354/231
f 211/581/221 215/355/232 214/346/222
f 211/581/221 212/356/229 215/355/232
f 228/382/244 227/357/233 69/359/85
f 43/330/216 81/363/65 233/331/213
f 87/361/185 236/360/234 264/367/237
f 204/345/226 28/368/74 205/334/219
f 199/329/215 25/328/39 204/345/226
f 28/368/74 204/345/226 25/328/39
f 321/373/239 175/371/73 202/372/238
f 31/369/92 175/371/73 322/374/240
f 18/321/29 196/375/241 232/322/211
f 199/378/215 200/342/225 220/326/214
f 198/395/210 199/378/215 219/310/204
f 222/537/207 185/100/79 225/379/243
f 221/377/242 223/316/208 30/381/82
f 226/385/245 228/382/244 65/383/84
f 226/385/245 225/384/243 228/382/244
f 223/316/208 222/315/207 226/385/245
f 223/316/208 226/385/245 63/380/83
f 225/379/243 186/277/190 227/365/233
f 15/394/19 192/388/246 2/390/91
f 221/377/242 30/381/82 230/391/198
f 74/582/77 230/393/198 15/394/19
f 197/376/196 198/395/210 232/322/211
f 79/325/34 233/324/213 83/397/69
f 266/583/277 267/398/247 270/400/249
f 265/454/236 273/401/250 274/403/252
f 237/584/122 238/172/129 241/406/130
f 240/174/131 241/173/130 245/411/256
f 240/270/131 245/408/256 239/271/186
f 245/411/256 246/410/258 244/414/261
f 245/408/256 244/418/261 243/412/259
f 243/412/259 247/419/265 246/421/258
f 239/271/186 243/412/259 241/406/130
f 258/416/263 255/428/270 263/417/264
f 260/424/267 263/417/264 253/430/272
f 252/427/269 262/415/262 253/430/272
f 250/548/325 257/431/273 261/404/253
f 2/390/91 229/389/63 237/435/122
f 220/326/214 230/391/198 27/327/36
f 182/585/2 195/438/203 18/321/29
f 231/437/205 196/375/241 18/321/29
f 270/400/249 271/399/248 269/440/275
f 236/586/234 235/441/276 265/443/236
f 235/587/276 236/444/234 86/130/70
f 266/583/277 270/400/249 265/445/236
f 267/398/247 264/448/237 271/399/248
f 273/401/250 272/450/278 277/402/251
f 265/366/236 274/452/252 264/367/237
f 272/450/278 273/401/250 268/439/274
f 272/450/278 264/455/237 276/451/279
f 281/588/284 284/457/281 276/459/279
f 278/465/286 279/460/283 280/462/285
f 275/456/280 280/463/285 276/451/279
f 274/452/252 278/465/286 275/453/280
f 274/403/252 277/402/251 278/467/286
f 285/471/290 283/468/287 289/470/289
f 276/459/279 282/458/282 277/402/251
f 279/589/283 277/402/251 285/471/290
f 281/461/284 279/460/283 284/473/281
f 282/458/282 286/474/291 283/468/287
f 284/457/281 288/476/293 282/458/282
f 284/473/281 285/472/290 288/478/293
f 293/490/300 308/479/294 295/481/296
f 288/476/293 292/482/297 286/474/291
f 289/470/289 287/469/288 293/487/300
f 292/482/297 296/488/301 290/483/298
f 295/481/296 314/492/303 289/491/289
f 299/499/308 303/494/305 296/496/301
f 295/590/296 294/475/292 299/498/308
f 290/483/298 297/489/302 294/475/292
f 295/481/296 299/499/308 292/485/297
f 306/507/314 307/500/309 311/502/311
f 296/488/301 300/503/306 297/489/302
f 299/498/308 298/497/307 303/506/305
f 297/489/302 301/504/312 298/497/307
f 291/486/299 294/475/292 306/507/314
f 293/487/300 291/486/299 308/508/294
f 295/590/296 305/509/295 294/475/292
f 305/509/295 310/510/315 307/500/309
f 308/508/294 306/507/314 312/513/317
f 308/479/294 312/514/317 305/480/295
f 288/478/293 289/477/289 316/517/318
f 295/481/296 288/484/293 314/492/303
f 315/516/304 318/519/319 316/517/318
f 314/492/303 316/518/318 317/524/322
f 315/493/304 314/492/303 318/525/319
f 10/301/16 57/79/12 192/528/246
f 235/441/276 234/529/235 266/442/277
f 202/534/238 203/533/220 183/274/188
f 321/538/239 202/534/238 188/278/191
f 182/585/2 181/535/1 195/438/203
f 193/317/197 194/536/201 180/318/4
f 201/591/206 189/282/193 222/537/207
f 201/591/206 321/538/239 189/282/193
f 87/592/185 264/448/237 84/446/128
f 83/397/69 234/396/235 86/541/70
f 56/162/76 224/164/123 58/543/33
f 66/156/75 91/136/104 93/134/102
f 94/142/106 90/177/105 93/143/102
