v -0.060044 -0.172868 0.006006
v 0.126255 -0.129662 0.027701
v -0.000369 -0.080924 0.164214
v -0.163594 -0.027227 0.077500
v -0.137845 -0.042779 -0.112606
v 0.041290 -0.106087 -0.143381
v 0.137845 0.042683 0.112606
v -0.041290 0.105991 0.143381
v -0.126255 0.129565 -0.027701
v 0.000369 0.080828 -0.164214
v 0.163594 0.027130 -0.077500
v 0.060044 0.172771 -0.006006
vt 0.386864 0.162439
vt 0.420370 0.171564
vt 0.404543 0.178763
vt 0.457854 0.162439
vt 0.437234 0.176672
vt 0.391864 0.186615
vt 0.379156 0.185491
vt 0.450146 0.185491
vt 0.427359 0.193267
vt 0.414651 0.194392
vt 0.401739 0.203211
vt 0.384875 0.208318
vt 0.440037 0.201119
vt 0.455865 0.208318
vt 0.422359 0.217443
vn 0.150900 -0.878400 0.453600
vn 0.246400 -0.936000 -0.251300
vn -0.513300 -0.643600 0.567700
vn -0.828400 -0.556200 -0.066700
vn -0.358900 -0.736900 -0.572900
vn 0.758800 -0.477700 -0.442700
vn 0.604400 -0.384400 0.697800
vn -0.470300 -0.004600 0.882500
vn -0.980100 0.136800 -0.143900
vn -0.220400 -0.155600 -0.962900
vn 0.980100 -0.136800 0.143900
vn 0.220400 0.155600 0.962900
vn -0.758800 0.477700 0.442700
vn -0.604400 0.384400 -0.697800
vn 0.470300 0.004600 -0.882500
vn 0.828400 0.556200 0.066700
vn 0.358900 0.736900 0.572900
vn -0.246400 0.936000 0.251300
vn -0.150900 0.878400 -0.453600
vn 0.513300 0.643600 -0.567700
s off
f 1/1/1 2/2/1 3/3/1
f 2/2/2 1/4/2 6/5/2
f 1/1/3 3/3/3 4/6/3
f 1/1/4 4/6/4 5/7/4
f 1/4/5 5/8/5 6/5/5
f 2/2/6 6/5/6 11/9/6
f 3/3/7 2/2/7 7/10/7
f 4/6/8 3/3/8 8/11/8
f 5/7/9 4/6/9 9/12/9
f 6/5/10 5/8/10 10/13/10
f 2/2/11 11/9/11 7/10/11
f 3/3/12 7/10/12 8/11/12
f 4/6/13 8/11/13 9/12/13
f 5/8/14 9/14/14 10/13/14
f 6/5/15 10/13/15 11/9/15
f 7/10/16 11/9/16 12/15/16
f 8/11/17 7/10/17 12/15/17
f 9/14/18 8/11/18 12/15/18
f 10/13/19 9/14/19 12/15/19
f 11/9/20 10/13/20 12/15/20
v -0.110941 -0.217145 0.117123
v 0.170500 -0.192116 0.084824
v 0.032752 -0.023181 0.267483
v -0.218826 0.043551 0.152876
v -0.236557 -0.084146 -0.100616
v 0.004059 -0.229795 -0.142672
v 0.236557 0.084050 0.100616
v -0.004059 0.229698 0.142672
v -0.170500 0.192020 -0.084824
v -0.032752 0.023084 -0.267483
v 0.218826 -0.043647 -0.152876
v 0.110941 0.217049 -0.117123
vt 0.436894 0.681291
vt 0.490014 0.689372
vt 0.461930 0.729426
vt 0.615623 0.681291
vt 0.547019 0.676559
vt 0.431128 0.743508
vt 0.402342 0.716310
vt 0.581071 0.716310
vt 0.520492 0.725087
vt 0.491707 0.752285
vt 0.457655 0.792036
vt 0.400650 0.779223
vt 0.551294 0.739169
vt 0.372565 0.739169
vt 0.526258 0.787304
vt 0.579379 0.779223
vn 0.143200 -0.670400 0.728000
vn 0.098700 -0.990900 0.091900
vn -0.460600 -0.304900 0.833600
vn -0.878300 -0.399500 0.262700
vn -0.532600 -0.823400 -0.195700
vn 0.610100 -0.721800 -0.326800
vn 0.682100 -0.203300 0.702400
vn -0.294900 0.388100 0.873200
vn -0.970700 0.235100 -0.050500
vn -0.411400 -0.450900 -0.792200
vn 0.970700 -0.235100 0.050500
vn 0.411400 0.450900 0.792200
vn -0.610100 0.721800 0.326800
vn -0.682100 0.203300 -0.702400
vn 0.294900 -0.388100 -0.873200
vn 0.878300 0.399500 -0.262700
vn 0.532600 0.823400 0.195700
vn -0.098700 0.990900 -0.091900
vn -0.143200 0.670400 -0.728000
vn 0.460600 0.304900 -0.833600
s off
f 13/16/21 14/17/21 15/18/21
f 14/17/22 13/19/22 18/20/22
f 13/16/23 15/18/23 16/21/23
f 13/16/24 16/21/24 17/22/24
f 13/19/25 17/23/25 18/20/25
f 14/17/26 18/20/26 23/24/26
f 15/18/27 14/17/27 19/25/27
f 16/21/28 15/18/28 20/26/28
f 17/22/29 16/21/29 21/27/29
f 18/20/30 17/23/30 22/28/30
f 14/17/31 23/24/31 19/25/31
f 15/18/32 19/25/32 20/26/32
f 16/21/33 20/26/33 21/27/33
f 17/22/34 21/27/34 22/29/34
f 18/20/35 22/28/35 23/24/35
f 19/25/36 23/24/36 24/30/36
f 20/26/37 19/25/37 24/30/37
f 21/31/38 20/26/38 24/30/38
f 22/28/39 21/31/39 24/30/39
f 23/24/40 22/28/40 24/30/40
v 0.000000 -0.190465 0.000000
v 0.137800 -0.085194 0.100117
v -0.052634 -0.085194 0.161993
v -0.170332 -0.085194 0.000000
v -0.052634 -0.085194 -0.161993
v 0.137800 -0.085194 -0.100117
v 0.052634 0.085138 0.161993
v -0.137800 0.085138 0.100117
v -0.137800 0.085138 -0.100117
v 0.052634 0.085138 -0.161993
v 0.170332 0.085138 0.000000
v 0.000000 0.190409 0.000000
vt 0.905377 0.256761
vt 0.937766 0.280058
vt 0.922307 0.282019
vt 0.877436 0.280458
vt 0.907458 0.283568
vt 0.892691 0.282639
vt 0.861617 0.280058
vt 0.869384 0.302369
vt 0.846158 0.282019
vt 0.854616 0.303299
vt 0.831309 0.283568
vt 0.839362 0.305479
vt 0.899691 0.305880
vt 0.884233 0.303919
vt 0.915511 0.305479
vt 0.867302 0.329177
vn 0.187600 -0.794700 0.577400
vn 0.607100 -0.794700 0.000000
vn -0.491100 -0.794700 0.356800
vn -0.491100 -0.794700 -0.356800
vn 0.187600 -0.794700 -0.577400
vn 0.982200 -0.187600 0.000000
vn 0.303500 -0.187600 0.934200
vn -0.794600 -0.187600 0.577400
vn -0.794600 -0.187600 -0.577400
vn 0.303500 -0.187600 -0.934200
vn 0.794600 0.187600 0.577400
vn -0.303500 0.187600 0.934200
vn -0.982200 0.187600 0.000000
vn -0.303500 0.187600 -0.934200
vn 0.794600 0.187600 -0.577400
vn 0.491100 0.794700 0.356800
vn -0.187600 0.794700 0.577400
vn -0.607100 0.794700 0.000000
vn -0.187600 0.794700 -0.577400
vn 0.491100 0.794700 -0.356800
s off
f 25/32/41 26/33/41 27/34/41
f 26/33/42 25/32/42 30/35/42
f 25/32/43 27/34/43 28/36/43
f 25/32/44 28/36/44 29/37/44
f 25/32/45 29/37/45 30/35/45
f 26/38/46 30/35/46 35/39/46
f 27/40/47 26/38/47 31/41/47
f 28/42/48 27/40/48 32/43/48
f 29/37/49 28/36/49 33/44/49
f 30/35/50 29/37/50 34/45/50
f 26/38/51 35/39/51 31/41/51
f 27/40/52 31/41/52 32/43/52
f 28/36/53 32/46/53 33/44/53
f 29/37/54 33/44/54 34/45/54
f 30/35/55 34/45/55 35/39/55
f 31/41/56 35/39/56 36/47/56
f 32/43/57 31/41/57 36/47/57
f 33/44/58 32/46/58 36/47/58
f 34/45/59 33/44/59 36/47/59
f 35/39/60 34/45/60 36/47/60
v 0.044516 -0.000234 -0.155209
v -0.061726 -0.116969 -0.092685
v -0.112105 0.044496 -0.107328
v 0.019954 0.144289 -0.069572
v 0.151949 0.044496 -0.031595
v 0.101468 -0.116969 -0.045880
v -0.151949 -0.044592 0.031595
v -0.101468 0.116872 0.045880
v 0.061726 0.116872 0.092685
v 0.112105 -0.044592 0.107328
v -0.019954 -0.144385 0.069572
v -0.044516 0.000138 0.155209
vt 0.628894 0.500204
vt 0.641274 0.475735
vt 0.644957 0.507635
vt 0.615973 0.476930
vt 0.629693 0.532761
vt 0.612931 0.509033
vt 0.675913 0.467239
vt 0.659152 0.490967
vt 0.662194 0.523070
vt 0.595053 0.524265
vt 0.598736 0.492365
vt 0.583472 0.467239
vt 0.566711 0.490967
vt 0.582673 0.499796
vt 0.569753 0.523070
vn -0.336000 -0.188500 -0.922800
vn 0.218900 -0.608000 -0.763200
vn -0.123800 0.490200 -0.862800
vn 0.562200 0.490200 -0.666000
vn 0.774000 -0.188500 -0.604500
vn 0.051400 -0.982500 -0.179200
vn -0.846300 -0.303800 -0.437500
vn -0.503000 0.794400 -0.340400
vn 0.607000 0.794400 -0.022000
vn 0.949600 -0.303800 0.077600
vn -0.607000 -0.794400 0.022000
vn -0.949600 0.303800 -0.077600
vn -0.051400 0.982500 0.179200
vn 0.846300 0.303800 0.437500
vn 0.503000 -0.794400 0.340400
vn -0.562200 -0.490200 0.666000
vn -0.774000 0.188500 0.604500
vn -0.218900 0.608000 0.763200
vn 0.336000 0.188500 0.922800
vn 0.123800 -0.490200 0.862800
s off
f 37/48/61 38/49/61 39/50/61
f 38/49/62 37/48/62 42/51/62
f 37/48/63 39/50/63 40/52/63
f 37/48/64 40/52/64 41/53/64
f 37/48/65 41/53/65 42/51/65
f 38/49/66 42/51/66 47/54/66
f 39/50/67 38/49/67 43/55/67
f 40/52/68 39/50/68 44/56/68
f 41/53/69 40/52/69 45/57/69
f 42/51/70 41/53/70 46/58/70
f 38/49/71 47/54/71 43/55/71
f 39/50/72 43/55/72 44/56/72
f 40/52/73 44/56/73 45/57/73
f 41/53/74 45/57/74 46/58/74
f 42/51/75 46/58/75 47/59/75
f 43/60/76 47/59/76 48/61/76
f 44/62/77 43/60/77 48/61/77
f 45/57/78 44/62/78 48/61/78
f 46/58/79 45/57/79 48/61/79
f 47/59/80 46/58/80 48/61/80
v 0.000000 -0.248423 0.000000
v 0.179738 -0.111114 0.130586
v -0.068653 -0.111114 0.211294
v -0.222170 -0.111114 0.000000
v -0.068653 -0.111114 -0.211294
v 0.179738 -0.111114 -0.130586
v 0.068653 0.111058 0.211294
v -0.179738 0.111058 0.130586
v -0.179738 0.111058 -0.130586
v 0.068653 0.111058 -0.211294
v 0.222170 0.111058 0.000000
v 0.000000 0.248366 0.000000
vt 0.359891 0.282727
vt 0.327086 0.313203
vt 0.401136 0.312724
vt 0.345696 0.314910
vt 0.382287 0.314155
vt 0.363934 0.315483
vt 0.335735 0.341499
vt 0.308033 0.312724
vt 0.317383 0.340170
vt 0.289183 0.314155
vt 0.299144 0.340744
vt 0.270831 0.315483
vt 0.280534 0.342450
vt 0.354584 0.342930
vt 0.373637 0.342450
vt 0.313339 0.372926
vn 0.187600 -0.794700 0.577400
vn 0.607100 -0.794700 0.000000
vn -0.491100 -0.794700 0.356800
vn -0.491100 -0.794700 -0.356800
vn 0.187600 -0.794700 -0.577400
vn 0.982200 -0.187600 0.000000
vn 0.303500 -0.187600 0.934200
vn -0.794600 -0.187600 0.577400
vn -0.794600 -0.187600 -0.577400
vn 0.303500 -0.187600 -0.934200
vn 0.794600 0.187600 0.577400
vn -0.303500 0.187600 0.934200
vn -0.982200 0.187600 0.000000
vn -0.303500 0.187600 -0.934200
vn 0.794600 0.187600 -0.577400
vn 0.491100 0.794700 0.356800
vn -0.187600 0.794700 0.577400
vn -0.607100 0.794700 0.000000
vn -0.187600 0.794700 -0.577400
vn 0.491100 0.794700 -0.356800
s off
f 49/63/81 50/64/81 51/65/81
f 50/64/82 49/63/82 54/66/82
f 49/63/83 51/65/83 52/67/83
f 49/63/84 52/67/84 53/68/84
f 49/63/85 53/68/85 54/66/85
f 50/64/86 54/66/86 59/69/86
f 51/70/87 50/64/87 55/71/87
f 52/72/88 51/70/88 56/73/88
f 53/74/89 52/72/89 57/75/89
f 54/66/90 53/68/90 58/76/90
f 50/64/91 59/69/91 55/71/91
f 51/70/92 55/71/92 56/73/92
f 52/72/93 56/73/93 57/75/93
f 53/68/94 57/77/94 58/76/94
f 54/66/95 58/76/95 59/69/95
f 55/71/96 59/69/96 60/78/96
f 56/73/97 55/71/97 60/78/97
f 57/75/98 56/73/98 60/78/98
f 58/76/99 57/77/99 60/78/99
f 59/69/100 58/76/100 60/78/100
v 0.000000 -0.130048 0.000000
v 0.094068 -0.058186 0.068344
v -0.035930 -0.058186 0.110583
v -0.116275 -0.058186 0.000000
v -0.035930 -0.058186 -0.110583
v 0.094068 -0.058186 -0.068344
v 0.035930 0.058090 0.110583
v -0.094068 0.058090 0.068344
v -0.094068 0.058090 -0.068344
v 0.035930 0.058090 -0.110583
v 0.116275 0.058090 0.000000
v 0.000000 0.129952 0.000000
vt 0.269486 0.323805
vt 0.288781 0.344408
vt 0.274896 0.349079
vt 0.304396 0.340507
vt 0.261308 0.348442
vt 0.247203 0.343279
vt 0.215595 0.344408
vt 0.231210 0.340507
vt 0.224715 0.363221
vt 0.201711 0.349079
vt 0.210610 0.368384
vt 0.267803 0.371157
vt 0.252188 0.367255
vt 0.238304 0.362585
vt 0.283795 0.368384
vt 0.232893 0.387859
vn 0.187600 -0.794700 0.577400
vn 0.607100 -0.794700 0.000000
vn -0.491100 -0.794700 0.356800
vn -0.491100 -0.794700 -0.356800
vn 0.187600 -0.794700 -0.577400
vn 0.982200 -0.187600 0.000000
vn 0.303500 -0.187600 0.934200
vn -0.794600 -0.187600 0.577400
vn -0.794600 -0.187600 -0.577400
vn 0.303500 -0.187600 -0.934200
vn 0.794600 0.187600 0.577400
vn -0.303500 0.187600 0.934200
vn -0.982200 0.187600 0.000000
vn -0.303500 0.187600 -0.934200
vn 0.794600 0.187600 -0.577400
vn 0.491100 0.794700 0.356800
vn -0.187600 0.794700 0.577400
vn -0.607100 0.794700 0.000000
vn -0.187600 0.794700 -0.577400
vn 0.491100 0.794700 -0.356800
s off
f 61/79/101 62/80/101 63/81/101
f 62/80/102 61/79/102 66/82/102
f 61/79/103 63/81/103 64/83/103
f 61/79/104 64/83/104 65/84/104
f 61/79/105 65/84/105 66/82/105
f 62/85/106 66/86/106 71/87/106
f 63/88/107 62/85/107 67/89/107
f 64/83/108 63/81/108 68/90/108
f 65/84/109 64/83/109 69/91/109
f 66/86/110 65/84/110 70/92/110
f 62/85/111 71/87/111 67/89/111
f 63/81/112 67/93/112 68/90/112
f 64/83/113 68/90/113 69/91/113
f 65/84/114 69/91/114 70/92/114
f 66/86/115 70/92/115 71/87/115
f 67/89/116 71/87/116 72/94/116
f 68/90/117 67/93/117 72/94/117
f 69/91/118 68/90/118 72/94/118
f 70/92/119 69/91/119 72/94/119
f 71/87/120 70/92/120 72/94/120
v 0.000000 -1.033770 0.000000
v 0.812554 -0.462289 0.590348
v -0.276388 -0.411792 0.850649
v -0.933103 -0.429538 0.000000
v -0.310362 -0.462290 -0.955213
v 0.812554 -0.462289 -0.590348
v 0.313810 0.443239 0.939079
v -0.763283 0.411737 0.539195
v -0.857107 0.462462 -0.605474
v 0.276388 0.411682 -0.850649
v 0.984266 0.429592 0.000000
v 0.000000 0.960525 0.000000
v -0.261440 -0.679703 0.804644
v -0.182425 -0.879372 0.561456
v -0.080963 -0.929687 0.249181
v 0.223589 -0.929633 0.157947
v 0.448643 -0.783163 0.316929
v 0.609547 -0.605406 0.442856
v 0.630080 -0.519180 0.785123
v 0.282946 -0.520994 0.870802
v -0.035107 -0.519181 0.995274
v 0.962671 -0.519179 -0.340023
v 0.850648 -0.484078 0.000000
v 0.857292 -0.462448 0.302802
v 0.223589 -0.929633 -0.157947
v 0.425323 -0.783217 -0.309011
v 0.692076 -0.651531 -0.488894
v -0.829120 -0.631469 0.000000
v -0.525730 -0.783215 0.000000
v -0.270329 -0.959215 0.000000
v -0.543462 -0.519235 0.804646
v -0.757314 -0.504900 0.534982
v -0.914524 -0.482388 0.255566
v -0.245587 -0.605351 -0.734922
v -0.184451 -0.842924 -0.551972
v -0.091924 -1.000581 -0.275085
v -0.984373 -0.519177 -0.275086
v -0.725923 -0.484024 -0.512807
v -0.483971 -0.462503 -0.716565
v -0.035107 -0.519181 -0.995274
v 0.277282 -0.484025 -0.829740
v 0.630080 -0.519180 -0.785123
v 1.009078 0.231223 0.151401
v 0.992184 -0.000000 0.322375
v 0.966496 -0.259588 0.497294
v 0.947149 -0.241168 -0.473845
v 0.951058 -0.000055 -0.309013
v 1.009078 0.231223 -0.151401
v 0.155215 0.231170 0.955422
v 0.000000 -0.000000 1.076377
v -0.176231 -0.248831 1.054743
v 0.687159 -0.231280 0.681715
v 0.667369 0.000055 0.893118
v 0.436007 0.231171 0.864188
v -0.926435 0.248885 0.476682
v -0.951058 -0.000055 0.309013
v -1.009078 -0.231223 0.151401
v -0.479801 -0.241169 0.924656
v -0.587786 -0.000055 0.809017
v -0.813934 0.259762 0.785126
v -0.780197 0.248940 -0.752583
v -0.660037 0.000059 -0.908463
v -0.495040 -0.248831 -0.954025
v -1.133116 -0.259532 -0.170011
v -1.003205 0.000000 -0.316930
v -0.966496 0.259706 -0.497294
v 0.516447 0.259762 -0.995279
v 0.620014 -0.000000 -0.829745
v 0.756179 -0.241169 -0.729416
v -0.155215 -0.231280 -0.955422
v 0.000000 0.000000 -1.025621
v 0.163726 0.231225 -0.979901
v 0.831051 0.462391 0.238853
v 0.757314 0.505009 0.534982
v 0.504899 0.482446 0.747550
v 0.030921 0.482446 0.901553
v -0.298460 0.521048 0.893113
v -0.585371 0.482501 0.729413
v -0.894363 0.482500 0.315896
v -0.965822 0.521047 0.000000
v -0.857292 0.462448 -0.302802
v -0.585371 0.482501 -0.729413
v -0.295181 0.543581 -0.908457
v 0.030921 0.482446 -0.901553
v 0.543462 0.519353 -0.804646
v 0.725923 0.484024 -0.512807
v 0.894524 0.497766 -0.257096
v 0.091924 1.000808 0.275085
v 0.184451 0.843033 0.551972
v 0.261440 0.679821 0.804644
v 0.829120 0.631578 0.000000
v 0.525730 0.783106 0.000000
v 0.297482 1.000807 0.000000
v -0.214321 0.891152 0.151400
v -0.425323 0.783108 0.309011
v -0.684473 0.679821 0.497293
v -0.230691 0.959270 -0.162963
v -0.482909 0.843033 -0.341135
v -0.642968 0.605351 -0.454203
v 0.091924 1.000808 -0.275085
v 0.171363 0.783163 -0.512806
v 0.242889 0.631528 -0.747549
v 0.055073 -0.695008 0.717944
v 0.163695 -0.924573 0.489839
v 0.410792 -0.717027 0.648882
v 0.670817 -0.666254 -0.162457
v 0.699825 -0.695006 0.169483
v 0.502183 -0.924627 0.000001
v -0.673187 -0.666198 0.269599
v -0.389435 -0.886358 0.282941
v -0.466549 -0.695007 0.548462
v -0.471731 -0.666200 -0.539197
v -0.389435 -0.886358 -0.282939
v -0.716643 -0.748029 -0.295174
v 0.410790 -0.717027 -0.648882
v 0.144173 -0.859073 -0.443713
v 0.055684 -0.666199 -0.705819
v 1.043242 -0.000000 0.000000
v 1.042355 -0.265416 0.173825
v 1.042355 -0.265416 -0.173825
v 0.366028 0.000114 1.095325
v 0.145777 -0.254468 0.975422
v 0.507767 -0.273849 0.939078
v -0.918556 0.000055 0.648886
v -0.861803 -0.254522 0.425324
v -0.670819 -0.254522 0.688191
v -0.890279 0.000055 -0.628911
v -0.738198 -0.265417 -0.736344
v -0.899069 -0.265471 -0.443716
v 0.340056 0.000055 -1.017603
v 0.447216 -0.254523 -0.850648
v 0.145777 -0.254468 -0.975422
v 0.753279 0.285805 0.772783
v 0.890279 0.000053 0.628911
v 0.861804 0.254410 0.425323
v -0.481373 0.273903 0.915618
v -0.332619 -0.000001 1.023695
v -0.144175 0.265471 0.992181
v -1.019559 0.273902 -0.174866
v -1.076377 0.000001 0.000000
v -1.042354 0.265525 0.173825
v -0.155186 0.285806 -1.067961
v -0.340055 0.000054 -1.017603
v -0.502188 0.285806 -0.955212
v 0.899070 0.265470 -0.443714
v 0.844003 -0.000000 -0.613199
v 0.699828 0.265472 -0.717948
v 0.377445 0.859073 0.274230
v 0.471730 0.666200 0.539198
v 0.638194 0.666144 0.262864
v -0.152078 0.859128 0.455080
v -0.389437 0.717083 0.632671
v -0.052790 0.666146 0.688185
v -0.492129 0.859128 0.000000
v -0.722052 0.717081 -0.174865
v -0.794577 0.748203 0.187101
v -0.144173 0.859074 -0.443711
v -0.055684 0.666201 -0.705817
v -0.406277 0.748150 -0.660029
v 0.428550 0.924800 -0.302737
v 0.755935 0.748202 -0.302739
v 0.529716 0.748204 -0.605477
vt 0.377882 0.000000
vt 0.650001 0.087438
vt 0.450001 0.087438
vt 0.650001 0.362676
vt 0.650001 0.284555
vt 0.694543 0.343676
vt 0.250000 0.087439
vt 0.049999 0.087438
vt 1.049999 0.087438
vt 0.849999 0.087438
vt 0.674369 0.425361
vt 0.450001 0.362676
vt 0.494544 0.343675
vt 0.474368 0.425360
vt 0.250000 0.362677
vt 0.294542 0.343676
vt 0.274367 0.425361
vt 0.049999 0.362676
vt 0.094543 0.343675
vt 0.074367 0.425360
vt 0.849999 0.362676
vt 0.894542 0.343675
vt 0.874367 0.425360
vt 0.625633 0.425360
vt 0.425633 0.425360
vt 0.225633 0.425361
vt 0.025632 0.425360
vt 0.825631 0.425361
vt 0.549999 0.637324
vt 0.594543 0.656325
vt 0.549999 0.715446
vt 0.349999 0.637324
vt 0.394542 0.656325
vt 0.349999 0.715446
vt 0.150001 0.637324
vt 0.194543 0.656324
vt 0.150001 0.715446
vt 0.950001 0.637324
vt 0.994544 0.656325
vt 0.950001 0.715446
vt 0.750000 0.637323
vt 0.794542 0.656324
vt 0.750000 0.715444
vt 0.450001 0.284554
vt 0.450001 0.188183
vt 0.512185 0.255633
vt 0.550001 0.158365
vt 0.550001 0.335332
vt 0.587817 0.255634
vt 0.605458 0.343675
vt 0.650001 0.188183
vt 0.805457 0.343676
vt 0.849999 0.284554
vt 0.750000 0.335333
vt 0.787816 0.255634
vt 0.712184 0.255634
vt 0.849999 0.188183
vt 0.750000 0.158365
vt 0.250000 0.284556
vt 0.250000 0.188184
vt 0.312184 0.255634
vt 0.350000 0.158365
vt 0.350000 0.335333
vt 0.387816 0.255634
vt 0.405458 0.343675
vt 0.049999 0.284554
vt 0.049999 0.188182
vt 0.112184 0.255633
vt 0.150000 0.158365
vt 0.150000 0.335333
vt 0.187817 0.255634
vt 0.205458 0.343676
vt 0.912183 0.255633
vt 0.949999 0.158365
vt 0.949999 0.335332
vt 0.987815 0.255634
vt 1.005456 0.343675
vt 1.049999 0.188182
vt 1.049999 0.284554
vt 0.005456 0.343675
vt 0.725633 0.574639
vt 0.774367 0.574639
vt 0.700001 0.500000
vt 0.750000 0.500000
vt 0.722966 0.417608
vt 0.799999 0.500000
vt 0.777034 0.417608
vt 0.525632 0.574640
vt 0.574367 0.574640
vt 0.500000 0.500000
vt 0.550000 0.500000
vt 0.522966 0.417608
vt 0.600000 0.500000
vt 0.577035 0.417608
vt 0.325631 0.574639
vt 0.374367 0.574640
vt 0.299999 0.500000
vt 0.350000 0.500000
vt 0.322966 0.417608
vt 0.400000 0.500000
vt 0.377034 0.417608
vt 0.125633 0.574640
vt 0.174369 0.574639
vt 0.100000 0.500000
vt 0.150000 0.500000
vt 0.122966 0.417608
vt 0.200001 0.500000
vt 0.177034 0.417608
vt 0.925633 0.574640
vt 0.974368 0.574640
vt 0.900000 0.500000
vt 0.950000 0.500000
vt 0.922965 0.417608
vt 1.000000 0.500000
vt 0.977034 0.417608
vt 1.025632 0.425360
vt 0.622966 0.582392
vt 0.650000 0.499999
vt 0.650000 0.664668
vt 0.677035 0.582391
vt 0.705458 0.656324
vt 0.422965 0.582392
vt 0.450000 0.500000
vt 0.449999 0.664668
vt 0.477034 0.582392
vt 0.505456 0.656325
vt 0.222966 0.582392
vt 0.250000 0.500000
vt 0.250000 0.664667
vt 0.277034 0.582392
vt 0.305457 0.656324
vt 1.022966 0.582392
vt 0.050000 0.500000
vt 0.000000 0.500000
vt 1.050001 0.664668
vt 0.022966 0.582392
vt 0.077035 0.582392
vt 0.050001 0.664668
vt 0.105458 0.656325
vt 0.822965 0.582392
vt 0.849999 0.500000
vt 0.850000 0.664667
vt 0.877034 0.582392
vt 0.905457 0.656325
vt 0.549999 0.912562
vt 0.750000 0.912561
vt 0.877882 1.000000
vt 0.549999 0.811818
vt 0.650000 0.841635
vt 0.612184 0.744367
vt 0.750000 0.811816
vt 0.687816 0.744366
vt 1.349999 0.912562
vt 0.349999 0.811817
vt 0.449999 0.841636
vt 0.349999 0.912562
vt 0.412183 0.744367
vt 0.487815 0.744367
vt 1.150001 0.912562
vt 0.150001 0.811817
vt 0.250000 0.841635
vt 0.150001 0.912562
vt 0.212184 0.744366
vt 0.287816 0.744366
vt 0.950001 0.912562
vt 0.950001 0.811817
vt 1.050001 0.841636
vt 1.012185 0.744367
vt 0.050001 0.841636
vt 0.012185 0.744367
vt 0.087817 0.744367
vt 0.850000 0.841635
vt 0.812184 0.744366
vt 0.887816 0.744367
vn 0.125000 -0.900400 0.416700
vn 0.533000 -0.842000 0.083400
vn -0.253500 -0.919100 0.301600
vn -0.265800 -0.963600 -0.027500
vn 0.287700 -0.934600 -0.208900
vn 0.817200 -0.562100 0.127400
vn -0.598000 -0.457000 0.658400
vn -0.935100 -0.354200 -0.005300
vn -0.663500 -0.571300 -0.483200
vn 0.743400 -0.209900 -0.635100
vn 0.548300 -0.032800 0.835600
vn -0.308700 -0.663600 0.681400
vn -0.760200 -0.552400 0.342000
vn -0.004200 0.001900 -1.000000
vn 0.789400 -0.169700 -0.589900
vn 0.560000 0.499500 0.661000
vn -0.749000 0.311600 0.584700
vn -0.554900 0.831900 -0.000300
vn 0.302600 0.442100 -0.844400
vn 0.787800 0.605100 -0.114500
vn -0.561300 -0.170400 0.809900
vn 0.143700 -0.741400 0.655400
vn -0.102900 -0.986700 0.125600
vn 0.113100 -0.822100 0.558000
vn 0.219500 -0.790100 0.572300
vn 0.059400 -0.689300 0.722000
vn 0.099600 -0.677200 0.729000
vn 0.088900 -0.720500 0.687700
vn 0.178100 -0.684300 0.707100
vn 0.005000 -0.999900 0.016100
vn 0.491100 -0.865100 0.101800
vn 0.538700 -0.812400 0.223300
vn 0.640800 -0.735600 0.219600
vn 0.604400 -0.780400 0.160300
vn 0.470400 -0.862000 0.188900
vn 0.586300 -0.639700 -0.497000
vn 0.557600 -0.786700 0.264900
vn 0.821800 -0.569400 0.022600
vn 0.444400 -0.895700 -0.011500
vn 0.436000 -0.899900 -0.012200
vn 0.758500 -0.640200 -0.121700
vn 0.794700 -0.594800 -0.121000
vn 0.589200 -0.669200 -0.452800
vn 0.273600 -0.847100 -0.455700
vn 0.620100 -0.661600 0.421600
vn 0.508500 -0.754400 0.415200
vn 0.510300 -0.749900 0.420900
vn 0.259200 -0.864900 0.429800
vn 0.018000 -0.999800 0.000000
vn 0.422200 -0.906500 0.000000
vn -0.888600 -0.457600 -0.030000
vn -0.442800 -0.885300 0.142100
vn -0.567200 -0.823100 -0.026800
vn -0.596200 -0.764000 0.246400
vn -0.592900 -0.757700 0.272600
vn -0.613200 -0.789900 0.007400
vn -0.583100 -0.729900 0.356700
vn -0.530100 -0.788700 0.311300
vn -0.520100 -0.769100 0.371500
vn -0.114500 -0.972600 0.202300
vn -0.125500 -0.985100 0.118000
vn -0.511800 -0.760600 0.399500
vn -0.501500 -0.741400 0.445800
vn -0.451300 -0.793200 0.408700
vn -0.098900 -0.173800 0.979800
vn -0.499200 -0.786400 -0.363900
vn -0.411200 -0.620200 -0.668000
vn -0.321900 -0.865000 -0.384900
vn -0.417800 -0.610800 -0.672600
vn -0.489100 -0.589300 -0.643000
vn -0.474800 -0.737100 -0.480800
vn -0.303900 -0.768700 -0.562800
vn -0.477300 -0.568900 -0.669800
vn -0.521800 -0.553500 -0.649100
vn -0.354900 -0.930500 -0.090200
vn -0.567200 -0.823100 0.026800
vn -0.389900 -0.909600 0.143800
vn -0.440000 -0.879800 0.179700
vn -0.646500 -0.761000 0.054200
vn -0.848000 -0.436700 0.300300
vn 0.646700 -0.636800 -0.419900
vn 0.325900 -0.925300 -0.194100
vn 0.387000 -0.864400 -0.321000
vn 0.434000 -0.785200 -0.441700
vn 0.041700 -0.597600 -0.800700
vn 0.341000 -0.919900 -0.193700
vn -0.021500 -0.808700 -0.587800
vn 0.043000 -0.597100 -0.801000
vn 0.358100 -0.782300 -0.509700
vn 0.316500 -0.896700 -0.309400
vn 0.131000 -0.842100 -0.523200
vn 0.166700 -0.766500 -0.620300
vn -0.048800 -0.617300 -0.785200
vn -0.141900 -0.899800 -0.412500
vn -0.243900 -0.844500 -0.476700
vn 0.992300 0.124100 0.000000
vn 0.986800 0.043500 0.156300
vn 0.972200 0.056700 0.227000
vn 0.989300 0.146200 0.000000
vn 0.957300 -0.045500 -0.285600
vn 0.982900 0.098700 0.155700
vn 1.000000 -0.003300 0.000000
vn 0.942400 0.181000 -0.281200
vn 0.941800 0.179100 -0.284400
vn 0.775000 -0.601900 0.192600
vn 0.738900 -0.673100 0.031900
vn 0.751900 -0.659200 0.000000
vn 0.823800 -0.468100 0.319700
vn 0.946600 -0.095400 -0.308100
vn 0.815700 -0.213300 -0.537700
vn 0.305200 -0.155900 0.939400
vn -0.045300 0.486800 0.872300
vn 0.228000 -0.243400 0.942700
vn 0.234500 0.651100 0.721900
vn 0.464700 0.551900 0.692400
vn -0.047400 -0.391700 0.918900
vn 0.063300 -0.469500 0.880700
vn 0.547800 -0.182200 0.816500
vn 0.787800 -0.377400 0.486700
vn 0.236800 -0.089200 0.967500
vn 0.357900 -0.175800 0.917100
vn 0.076800 -0.329800 0.940900
vn 0.217500 -0.438700 0.871900
vn 0.816000 0.045200 0.576300
vn 0.709200 0.109500 0.696400
vn -0.730300 0.638100 0.243900
vn -0.994900 0.034300 0.095100
vn -0.880100 -0.096100 0.465000
vn -0.922900 0.198900 0.329600
vn -0.417800 -0.284300 0.862900
vn -0.952000 -0.292300 0.091100
vn -0.663900 -0.571600 0.482300
vn -0.419100 -0.274200 0.865500
vn -0.775800 -0.045600 0.629300
vn -0.877100 -0.139500 0.459700
vn -0.866400 -0.153500 0.475100
vn -0.806400 -0.079900 0.585900
vn -0.781900 -0.105900 0.614400
vn -0.771800 -0.094700 0.628800
vn 0.001400 -0.396500 0.918000
vn -0.799800 0.117500 -0.588600
vn -0.771600 0.025500 -0.635500
vn -0.628600 -0.284200 -0.723900
vn -0.804900 0.062800 -0.590000
vn -0.935300 -0.102900 -0.338600
vn -0.759000 -0.181800 -0.625100
vn -0.837700 -0.293500 -0.460600
vn -0.920900 -0.202000 -0.333400
vn -0.759800 0.012400 -0.650000
vn -0.471600 -0.666300 -0.577600
vn -0.455600 -0.648800 -0.609500
vn -0.770400 -0.476400 -0.423600
vn -0.631500 -0.270600 -0.726600
vn -0.750600 -0.171800 -0.638100
vn -0.757600 -0.565700 0.325600
vn -0.083900 0.614300 -0.784600
vn 0.532600 -0.293500 -0.793800
vn 0.366200 -0.173500 -0.914200
vn -0.053000 0.121200 -0.991200
vn 0.023200 0.178100 -0.983700
vn 0.532200 -0.296200 -0.793200
vn 0.349400 -0.406600 -0.844200
vn 0.023200 -0.180700 -0.983300
vn -0.082700 -0.238200 -0.967700
vn 0.364400 0.021300 -0.931000
vn 0.107100 -0.168600 -0.979800
vn 0.359000 -0.344800 -0.867300
vn 0.474700 -0.261400 -0.840400
vn -0.057200 0.113500 -0.991900
vn -0.126500 0.084100 -0.988400
vn 0.685800 0.143200 0.713600
vn 0.209600 0.325300 0.922100
vn 0.677000 -0.464100 0.571200
vn 0.198500 0.367400 0.908600
vn 0.453900 0.651300 0.608100
vn 0.763600 0.041700 0.644300
vn 0.915400 0.309000 0.258000
vn 0.925700 0.270100 0.264700
vn 0.933000 0.306700 0.188200
vn 0.512700 -0.263700 0.817100
vn 0.942300 0.117800 0.313200
vn 0.893200 0.337600 0.296900
vn 0.859000 0.262300 0.439600
vn 0.795300 0.465600 0.388200
vn 0.783500 0.435900 0.442800
vn -0.621900 0.717000 0.315000
vn -0.348300 -0.219300 0.911400
vn -0.641800 0.078400 0.762800
vn -0.328700 0.532400 0.780000
vn -0.490100 0.431700 0.757300
vn -0.643100 -0.047600 0.764300
vn -0.207700 0.259400 0.943200
vn -0.209200 0.241100 0.947700
vn 0.019800 0.371700 0.928100
vn -0.393200 -0.133600 0.909700
vn -0.156400 0.024900 0.987400
vn -0.152500 0.222600 0.962900
vn 0.155100 0.374200 0.914300
vn 0.148300 0.276900 0.949400
vn -0.108500 0.156800 0.981700
vn -0.880200 0.474600 -0.000500
vn -0.986200 0.025900 -0.163400
vn -0.916700 0.339000 -0.211600
vn -0.798700 0.580900 -0.157000
vn -0.812900 0.443700 -0.377200
vn -0.972700 0.058400 -0.224600
vn -0.984300 0.165600 -0.060400
vn -0.966400 0.250600 -0.057200
vn -0.868200 0.429300 0.248800
vn -0.931400 -0.033800 0.362400
vn -0.926400 -0.023600 0.375700
vn -0.919300 -0.126300 0.372800
vn -0.927000 -0.142000 0.347000
vn -0.864500 0.360000 0.350700
vn -0.685300 0.474400 0.552600
vn 0.299600 0.424800 -0.854300
vn 0.266500 0.001900 -0.963800
vn -0.022700 -0.276400 -0.960800
vn 0.307900 0.427800 -0.849800
vn 0.124000 0.570000 -0.812300
vn -0.023300 -0.158900 -0.987000
vn -0.308900 0.032300 -0.950600
vn -0.284800 0.387700 -0.876600
vn -0.521600 0.538800 -0.661500
vn 0.009100 -0.252800 -0.967500
vn -0.322600 -0.040700 -0.945700
vn -0.322700 0.023500 -0.946200
vn -0.594300 0.200900 -0.778800
vn -0.546800 0.521100 -0.655400
vn -0.402500 0.416600 -0.815100
vn 0.922500 0.300400 -0.242400
vn 0.936100 0.004900 -0.351700
vn 0.922900 0.207000 -0.324800
vn 0.911600 0.268200 -0.311600
vn 0.744100 0.427200 -0.513600
vn 0.943200 0.016300 -0.331900
vn 0.792200 0.203100 -0.575500
vn 0.736300 0.414200 -0.535000
vn 0.814800 0.342000 -0.468000
vn 0.801100 -0.003300 -0.598600
vn 0.692100 0.092900 -0.715800
vn 0.692000 0.093400 -0.715800
vn 0.834200 -0.018700 -0.551200
vn 0.791100 0.306400 -0.529400
vn -0.102900 0.595700 -0.796600
vn -0.133500 0.986000 -0.099800
vn 0.419000 0.842000 0.339800
vn 0.501200 0.788500 0.356600
vn 0.422600 0.849500 0.315800
vn 0.680100 0.713100 0.170200
vn 0.495400 0.776700 0.389100
vn 0.568500 0.748100 0.342300
vn 0.594600 0.797700 0.100500
vn 0.437600 0.876100 0.202600
vn 0.621800 0.633900 0.460000
vn 0.411900 0.715000 0.565000
vn 0.474300 0.832800 0.285500
vn 0.728600 0.679800 0.083600
vn 0.683800 0.598000 0.418100
vn 0.729900 0.560600 0.391200
vn -0.326500 0.944800 -0.029300
vn -0.346700 0.922700 0.168400
vn -0.220300 0.950700 0.218400
vn -0.394000 0.902100 0.175900
vn -0.109000 0.847600 0.519400
vn -0.370900 0.901000 0.224900
vn 0.012300 0.772800 0.634500
vn -0.157800 0.726600 0.668700
vn -0.248000 0.777600 0.577800
vn -0.392500 0.611300 0.687200
vn -0.446000 0.633300 0.632500
vn 0.023200 0.802600 0.596000
vn 0.074000 0.769900 0.633800
vn -0.283800 0.668800 0.687100
vn -0.048500 0.485300 0.873000
vn -0.158500 0.963200 0.217000
vn -0.386300 0.920800 -0.053900
vn -0.637400 0.636100 -0.434900
vn -0.227900 0.949100 0.217500
vn -0.260800 0.922800 0.283400
vn -0.494600 0.867400 -0.054300
vn -0.426600 0.889800 -0.162000
vn -0.179000 0.945700 0.271300
vn -0.179200 0.945500 0.272000
vn -0.690900 0.582300 -0.428500
vn -0.729000 0.574300 -0.372400
vn -0.696800 0.689100 -0.198900
vn -0.860800 0.443900 0.248900
vn -0.786600 0.482300 0.385500
vn -0.772300 0.313400 0.552600
vn -0.087200 0.989400 0.115800
vn 0.032100 0.742500 -0.669100
vn 0.022800 0.842900 -0.537600
vn -0.250500 0.884800 -0.393000
vn -0.156700 0.913900 -0.374400
vn 0.069900 0.814600 -0.575800
vn 0.117800 0.818400 -0.562400
vn -0.139300 0.939500 -0.313000
vn -0.689200 0.632400 -0.353800
vn -0.011700 0.726400 -0.687100
vn 0.154800 0.753500 -0.638900
vn 0.105900 0.790300 -0.603400
vn -0.523700 0.527700 -0.668800
vn -0.704600 0.581300 -0.407000
vn -0.263400 0.859200 -0.438700
vn -0.133500 0.986000 0.099800
vn 0.685500 0.718700 0.116300
vn 0.434800 0.870600 0.230300
vn 0.205600 0.966500 -0.153600
vn 0.116400 0.751600 -0.649300
vn 0.459500 0.851900 0.251200
vn 0.447400 0.829500 -0.334300
vn -0.049900 0.855400 -0.515600
vn -0.062600 0.829500 -0.554900
vn 0.876700 0.480300 -0.026900
vn 0.778600 0.334000 -0.531300
vn 0.747600 0.359300 -0.558600
vn 0.787800 0.430600 -0.440400
vn 0.103100 0.656500 -0.747200
vn -0.014400 0.422800 -0.906100
s off
f 73/95/121 88/96/121 87/97/121
f 74/98/122 90/99/122 96/100/122
f 73/95/123 87/97/123 102/101/123
f 73/95/124 102/101/124 108/102/124
f 73/95/125 108/103/125 97/104/125
f 74/98/126 96/100/126 117/105/126
f 75/106/127 93/107/127 123/108/127
f 76/109/128 105/110/128 129/111/128
f 77/112/129 111/113/129 135/114/129
f 78/115/130 114/116/130 141/117/130
f 74/98/131 117/105/131 124/118/131
f 75/106/132 123/108/132 130/119/132
f 76/109/133 129/111/133 136/120/133
f 77/112/134 135/114/134 142/121/134
f 78/115/135 141/117/135 118/122/135
f 79/123/136 147/124/136 162/125/136
f 80/126/137 150/127/137 168/128/137
f 81/129/138 153/130/138 171/131/138
f 82/132/139 156/133/139 174/134/139
f 83/135/140 159/136/140 163/137/140
f 85/138/141 93/107/141 75/106/141
f 86/139/142 175/140/142 85/138/142
f 87/97/143 176/141/143 86/139/143
f 85/138/144 175/140/144 93/107/144
f 175/140/145 92/142/145 93/107/145
f 86/139/146 176/141/146 175/140/146
f 176/141/147 177/143/147 175/140/147
f 175/140/148 177/143/148 92/142/148
f 177/143/149 91/144/149 92/142/149
f 87/97/150 88/96/150 176/141/150
f 88/96/151 89/145/151 176/141/151
f 176/141/152 89/145/152 177/143/152
f 89/145/153 90/99/153 177/143/153
f 177/143/154 90/99/154 91/144/154
f 90/99/155 74/98/155 91/144/155
f 94/146/156 99/147/156 78/115/156
f 95/148/157 178/149/157 94/146/157
f 96/100/158 179/150/158 95/148/158
f 94/146/159 178/149/159 99/147/159
f 178/149/160 98/151/160 99/147/160
f 95/148/161 179/150/161 178/149/161
f 179/150/162 180/152/162 178/149/162
f 178/149/163 180/152/163 98/151/163
f 180/152/164 97/104/164 98/151/164
f 96/100/165 90/99/165 179/150/165
f 90/99/166 89/145/166 179/150/166
f 179/150/167 89/145/167 180/152/167
f 89/145/168 88/96/168 180/152/168
f 180/152/169 88/96/169 97/104/169
f 88/96/170 73/95/170 97/104/170
f 100/153/171 105/110/171 76/109/171
f 101/154/172 181/155/172 100/153/172
f 102/101/173 182/156/173 101/154/173
f 100/153/174 181/155/174 105/110/174
f 181/155/175 104/157/175 105/110/175
f 101/154/176 182/156/176 181/155/176
f 182/156/177 183/158/177 181/155/177
f 181/155/178 183/158/178 104/157/178
f 183/158/179 103/159/179 104/157/179
f 102/101/180 87/97/180 182/156/180
f 87/97/181 86/139/181 182/156/181
f 182/156/182 86/139/182 183/158/182
f 86/139/183 85/138/183 183/158/183
f 183/158/184 85/138/184 103/159/184
f 85/138/185 75/106/185 103/159/185
f 106/160/186 111/113/186 77/112/186
f 107/161/187 184/162/187 106/160/187
f 108/102/188 185/163/188 107/161/188
f 106/160/189 184/162/189 111/113/189
f 184/162/190 110/164/190 111/113/190
f 107/161/191 185/163/191 184/162/191
f 185/163/192 186/165/192 184/162/192
f 184/162/193 186/165/193 110/164/193
f 186/165/194 109/166/194 110/164/194
f 108/102/195 102/101/195 185/163/195
f 102/101/196 101/154/196 185/163/196
f 185/163/197 101/154/197 186/165/197
f 101/154/198 100/153/198 186/165/198
f 186/165/199 100/153/199 109/166/199
f 100/153/200 76/109/200 109/166/200
f 99/147/201 114/116/201 78/115/201
f 98/151/202 187/167/202 99/147/202
f 97/104/203 188/168/203 98/151/203
f 99/147/204 187/167/204 114/116/204
f 187/167/205 113/169/205 114/116/205
f 98/151/206 188/168/206 187/167/206
f 188/168/207 189/170/207 187/167/207
f 187/167/208 189/170/208 113/169/208
f 189/170/209 112/171/209 113/169/209
f 97/104/210 108/103/210 188/168/210
f 108/103/211 107/172/211 188/168/211
f 188/168/212 107/172/212 189/170/212
f 107/172/213 106/173/213 189/170/213
f 189/170/214 106/173/214 112/171/214
f 106/160/215 77/112/215 112/174/215
f 115/175/216 120/176/216 83/135/216
f 116/177/217 190/178/217 115/175/217
f 117/105/218 191/179/218 116/177/218
f 115/175/219 190/178/219 120/176/219
f 190/178/220 119/180/220 120/176/220
f 116/177/221 191/179/221 190/178/221
f 191/179/222 192/181/222 190/178/222
f 190/178/223 192/181/223 119/180/223
f 192/181/224 118/122/224 119/180/224
f 117/105/225 96/100/225 191/179/225
f 96/100/226 95/148/226 191/179/226
f 191/179/227 95/148/227 192/181/227
f 95/148/228 94/146/228 192/181/228
f 192/181/229 94/146/229 118/122/229
f 94/146/230 78/115/230 118/122/230
f 121/182/231 126/183/231 79/123/231
f 122/184/232 193/185/232 121/182/232
f 123/108/233 194/186/233 122/184/233
f 121/182/234 193/185/234 126/183/234
f 193/185/235 125/187/235 126/183/235
f 122/184/236 194/186/236 193/185/236
f 194/186/237 195/188/237 193/185/237
f 193/185/238 195/188/238 125/187/238
f 195/188/239 124/118/239 125/187/239
f 123/108/240 93/107/240 194/186/240
f 93/107/241 92/142/241 194/186/241
f 194/186/242 92/142/242 195/188/242
f 92/142/243 91/144/243 195/188/243
f 195/188/244 91/144/244 124/118/244
f 91/144/245 74/98/245 124/118/245
f 127/189/246 132/190/246 80/126/246
f 128/191/247 196/192/247 127/189/247
f 129/111/248 197/193/248 128/191/248
f 127/189/249 196/192/249 132/190/249
f 196/192/250 131/194/250 132/190/250
f 128/191/251 197/193/251 196/192/251
f 197/193/252 198/195/252 196/192/252
f 196/192/253 198/195/253 131/194/253
f 198/195/254 130/119/254 131/194/254
f 129/111/255 105/110/255 197/193/255
f 105/110/256 104/157/256 197/193/256
f 197/193/257 104/157/257 198/195/257
f 104/157/258 103/159/258 198/195/258
f 198/195/259 103/159/259 130/119/259
f 103/159/260 75/106/260 130/119/260
f 133/196/261 138/197/261 81/129/261
f 134/198/262 199/199/262 133/196/262
f 135/114/263 200/200/263 134/198/263
f 133/196/264 199/199/264 138/197/264
f 199/199/265 137/201/265 138/197/265
f 134/198/266 200/200/266 199/199/266
f 200/200/267 201/202/267 199/199/267
f 199/199/268 201/202/268 137/201/268
f 201/202/269 136/120/269 137/201/269
f 135/114/270 111/113/270 200/200/270
f 111/113/271 110/164/271 200/200/271
f 200/200/272 110/164/272 201/202/272
f 110/164/273 109/166/273 201/202/273
f 201/202/274 109/166/274 136/120/274
f 109/166/275 76/109/275 136/120/275
f 139/203/276 144/204/276 82/132/276
f 140/205/277 202/206/277 139/203/277
f 141/117/278 203/207/278 140/205/278
f 139/203/279 202/206/279 144/204/279
f 202/206/280 143/208/280 144/204/280
f 140/205/281 203/207/281 202/206/281
f 203/207/282 204/209/282 202/206/282
f 202/206/283 204/209/283 143/208/283
f 204/209/284 142/210/284 143/208/284
f 141/117/285 114/116/285 203/207/285
f 114/116/286 113/169/286 203/207/286
f 203/207/287 113/169/287 204/209/287
f 113/169/288 112/171/288 204/209/288
f 204/209/289 112/171/289 142/210/289
f 112/174/290 77/112/290 142/121/290
f 126/183/291 147/124/291 79/123/291
f 125/187/292 205/211/292 126/183/292
f 124/118/293 206/212/293 125/187/293
f 126/183/294 205/211/294 147/124/294
f 205/211/295 146/213/295 147/124/295
f 125/187/296 206/212/296 205/211/296
f 206/212/297 207/214/297 205/211/297
f 205/211/298 207/214/298 146/213/298
f 207/214/299 145/215/299 146/213/299
f 124/118/300 117/105/300 206/212/300
f 117/105/301 116/177/301 206/212/301
f 206/212/302 116/177/302 207/214/302
f 116/177/303 115/175/303 207/214/303
f 207/214/304 115/175/304 145/215/304
f 115/175/305 83/135/305 145/215/305
f 132/190/306 150/127/306 80/126/306
f 131/194/307 208/216/307 132/190/307
f 130/119/308 209/217/308 131/194/308
f 132/190/309 208/216/309 150/127/309
f 208/216/310 149/218/310 150/127/310
f 131/194/311 209/217/311 208/216/311
f 209/217/312 210/219/312 208/216/312
f 208/216/313 210/219/313 149/218/313
f 210/219/314 148/220/314 149/218/314
f 130/119/315 123/108/315 209/217/315
f 123/108/316 122/184/316 209/217/316
f 209/217/317 122/184/317 210/219/317
f 122/184/318 121/182/318 210/219/318
f 210/219/319 121/182/319 148/220/319
f 121/182/320 79/123/320 148/220/320
f 138/197/321 153/130/321 81/129/321
f 137/201/322 211/221/322 138/197/322
f 136/120/323 212/222/323 137/201/323
f 138/197/324 211/221/324 153/130/324
f 211/221/325 152/223/325 153/130/325
f 137/201/326 212/222/326 211/221/326
f 212/222/327 213/224/327 211/221/327
f 211/221/328 213/224/328 152/223/328
f 213/224/329 151/225/329 152/223/329
f 136/120/330 129/111/330 212/222/330
f 129/111/331 128/191/331 212/222/331
f 212/222/332 128/191/332 213/224/332
f 128/191/333 127/189/333 213/224/333
f 213/224/334 127/189/334 151/225/334
f 127/189/335 80/126/335 151/225/335
f 144/204/336 156/133/336 82/132/336
f 143/208/337 214/226/337 144/204/337
f 142/121/338 215/227/338 143/228/338
f 144/204/339 214/226/339 156/133/339
f 214/226/340 155/229/340 156/133/340
f 143/228/341 215/227/341 214/230/341
f 215/227/342 216/231/342 214/230/342
f 214/230/343 216/231/343 155/232/343
f 216/231/344 154/233/344 155/232/344
f 142/121/345 135/114/345 215/227/345
f 135/114/346 134/198/346 215/227/346
f 215/227/347 134/198/347 216/231/347
f 134/198/348 133/196/348 216/231/348
f 216/231/349 133/196/349 154/233/349
f 133/196/350 81/129/350 154/233/350
f 120/176/351 159/136/351 83/135/351
f 119/180/352 217/234/352 120/176/352
f 118/122/353 218/235/353 119/180/353
f 120/176/354 217/234/354 159/136/354
f 217/234/355 158/236/355 159/136/355
f 119/180/356 218/235/356 217/234/356
f 218/235/357 219/237/357 217/234/357
f 217/234/358 219/237/358 158/236/358
f 219/237/359 157/238/359 158/236/359
f 118/122/360 141/117/360 218/235/360
f 141/117/361 140/205/361 218/235/361
f 218/235/362 140/205/362 219/237/362
f 140/205/363 139/203/363 219/237/363
f 219/237/364 139/203/364 157/238/364
f 139/203/365 82/132/365 157/238/365
f 160/239/366 165/240/366 84/241/366
f 161/242/367 220/243/367 160/239/367
f 162/125/368 221/244/368 161/242/368
f 160/239/369 220/243/369 165/240/369
f 220/243/370 164/245/370 165/240/370
f 161/242/371 221/244/371 220/243/371
f 221/244/372 222/246/372 220/243/372
f 220/243/373 222/246/373 164/245/373
f 222/246/374 163/137/374 164/245/374
f 162/125/375 147/124/375 221/244/375
f 147/124/376 146/213/376 221/244/376
f 221/244/377 146/213/377 222/246/377
f 146/213/378 145/215/378 222/246/378
f 222/246/379 145/215/379 163/137/379
f 145/215/380 83/135/380 163/137/380
f 166/247/381 160/239/381 84/241/381
f 167/248/382 223/249/382 166/250/382
f 168/128/383 224/251/383 167/248/383
f 166/250/384 223/249/384 160/239/384
f 223/249/385 161/242/385 160/239/385
f 167/248/386 224/251/386 223/249/386
f 224/251/387 225/252/387 223/249/387
f 223/249/388 225/252/388 161/242/388
f 225/252/389 162/125/389 161/242/389
f 168/128/390 150/127/390 224/251/390
f 150/127/391 149/218/391 224/251/391
f 224/251/392 149/218/392 225/252/392
f 149/218/393 148/220/393 225/252/393
f 225/252/394 148/220/394 162/125/394
f 148/220/395 79/123/395 162/125/395
f 169/253/396 166/247/396 84/241/396
f 170/254/397 226/255/397 169/256/397
f 171/131/398 227/257/398 170/254/398
f 169/256/399 226/255/399 166/250/399
f 226/255/400 167/248/400 166/250/400
f 170/254/401 227/257/401 226/255/401
f 227/257/402 228/258/402 226/255/402
f 226/255/403 228/258/403 167/248/403
f 228/258/404 168/128/404 167/248/404
f 171/131/405 153/130/405 227/257/405
f 153/130/406 152/223/406 227/257/406
f 227/257/407 152/223/407 228/258/407
f 152/223/408 151/225/408 228/258/408
f 228/258/409 151/225/409 168/128/409
f 151/225/410 80/126/410 168/128/410
f 172/259/411 169/253/411 84/241/411
f 173/260/412 229/261/412 172/259/412
f 174/134/413 230/262/413 173/260/413
f 172/259/414 229/261/414 169/253/414
f 229/263/415 170/254/415 169/256/415
f 173/260/416 230/262/416 229/261/416
f 230/264/417 231/265/417 229/263/417
f 229/263/418 231/265/418 170/254/418
f 231/265/419 171/131/419 170/254/419
f 174/134/420 156/133/420 230/262/420
f 156/133/421 155/229/421 230/262/421
f 230/264/422 155/232/422 231/265/422
f 155/232/423 154/233/423 231/265/423
f 231/265/424 154/233/424 171/131/424
f 154/233/425 81/129/425 171/131/425
f 165/240/426 172/259/426 84/241/426
f 164/245/427 232/266/427 165/240/427
f 163/137/428 233/267/428 164/245/428
f 165/240/429 232/266/429 172/259/429
f 232/266/430 173/260/430 172/259/430
f 164/245/431 233/267/431 232/266/431
f 233/267/432 234/268/432 232/266/432
f 232/266/433 234/268/433 173/260/433
f 234/268/434 174/134/434 173/260/434
f 163/137/435 159/136/435 233/267/435
f 159/136/436 158/236/436 233/267/436
f 233/267/437 158/236/437 234/268/437
f 158/236/438 157/238/438 234/268/438
f 234/268/439 157/238/439 174/134/439
f 157/238/440 82/132/440 174/134/440
