# Blender v2.76 (sub 0) OBJ File: 'npc_humanoidmutant.blend'
# www.blender.org
v 0.059504 0.545036 0.117638
v 0.066539 0.840945 0.072288
v 0.068907 0.799952 0.201084
v 0.006573 0.758974 0.035426
v 0.064406 0.611877 0.029684
v 0.033451 0.560450 0.190546
v 0.046265 0.714393 0.230435
v 0.050705 0.753754 0.220053
v 0.020012 0.807974 0.047834
v 0.035505 0.655642 0.021355
v 0.041207 0.626221 0.229579
v 0.041013 0.569673 0.065507
v 0.049788 0.824347 0.134701
v 0.031670 0.604841 0.098495
v 0.011060 0.736323 0.195464
v 0.018322 0.767190 0.189496
v 0.079851 0.648068 0.248856
v 0.021237 0.637312 0.139302
v 0.113690 0.521841 0.147436
v 0.078238 0.551752 0.237390
v 0.130233 0.696726 0.266688
v 0.109488 0.614131 0.012961
v 0.135950 0.763841 0.238401
v 0.094946 0.635959 0.253897
v 0.112531 0.650036 -0.000109
v 0.095136 0.609290 0.252079
v 0.040096 0.695675 0.225404
v 0.010376 0.696568 0.033099
v 0.014987 0.693437 0.181998
v 0.122067 0.648299 0.271369
v 0.098045 0.699035 -0.010527
v 0.060238 0.602058 0.233212
v 0.170846 0.585526 0.235738
v 0.146573 0.546990 0.248613
v 0.141694 0.604206 0.253227
v 0.149560 0.632652 0.252543
v 0.162744 0.644704 0.244314
v 0.142210 0.831919 0.118763
v 0.139985 0.796291 0.207201
v 0.128591 0.777061 0.018980
v 0.124671 0.837458 0.065497
v 0.107964 0.752936 -0.004319
v 0.254342 -0.123631 -0.190854
v 0.251133 -0.032247 0.003118
v -0.031323 -0.043340 0.024090
v -0.031799 -0.048223 -0.210993
v 0.246757 0.255630 -0.177957
v 0.235285 0.260160 0.046072
v -0.023208 0.256987 0.055868
v -0.035623 0.232796 -0.194239
v 0.339405 0.486429 -0.163326
v 0.336988 0.425835 0.021780
v -0.068283 0.422273 0.034075
v -0.090930 0.489646 -0.155187
v 0.279651 -0.148929 -0.131365
v 0.272862 -0.049756 -0.009055
v -0.079259 -0.056493 -0.023228
v -0.075149 -0.116298 -0.162213
v 0.268786 0.332971 -0.146999
v 0.263126 0.317866 -0.033335
v -0.061094 0.224616 0.008734
v -0.070911 0.221856 -0.155117
v 0.378178 0.476002 -0.142298
v 0.392094 0.418993 -0.036946
v -0.160925 0.504174 -0.008939
v -0.139315 0.480711 -0.126140
v 0.381065 0.273088 -0.169694
v 0.355079 0.337956 -0.049335
v 0.472461 0.320943 -0.165545
v 0.466415 0.346441 -0.088984
v 0.487999 0.037710 -0.137368
v 0.457022 0.073137 -0.088819
v 0.535819 0.094549 -0.142181
v 0.499579 0.120781 -0.105337
v 0.555654 0.105552 0.154710
v 0.509336 0.138434 0.215907
v 0.565430 0.151753 0.136466
v 0.521281 0.172590 0.162628
v 0.558172 0.132213 0.250783
v 0.508104 0.162490 0.265214
v 0.581392 0.172690 0.222863
v 0.536373 0.198520 0.223096
v 0.601320 0.182346 0.309554
v 0.498844 0.199793 0.311997
v 0.583360 0.210417 0.325169
v 0.522010 0.232210 0.309406
v 0.592191 0.169543 0.354807
v 0.498359 0.198140 0.353740
v 0.579181 0.186665 0.379404
v 0.500626 0.214595 0.373481
v 0.583078 0.156129 0.361084
v 0.505210 0.189488 0.360188
v 0.541742 0.135572 0.397233
v 0.489754 0.155129 0.393381
v -0.145433 0.348929 -0.026456
v -0.141833 0.342498 -0.136312
v -0.240802 0.437185 -0.033010
v -0.223717 0.410110 -0.126110
v -0.324291 0.229527 -0.024281
v -0.327637 0.193825 -0.089715
v -0.371588 0.251596 -0.024350
v -0.391889 0.189245 -0.074811
v -0.318596 0.251012 0.063907
v -0.382645 0.175614 0.029815
v -0.361804 0.293745 0.007081
v -0.422182 0.226058 0.028720
v -0.332531 0.372872 0.191159
v -0.377657 0.364503 0.204702
v -0.347386 0.397322 0.155982
v -0.397784 0.392260 0.175205
v 0.134331 -0.108302 -0.217205
v 0.083518 -0.078866 -0.224001
v 0.144534 -0.057528 0.033805
v 0.079147 -0.065872 0.035143
v 0.165051 0.239320 -0.200223
v 0.079052 0.415008 -0.180094
v 0.161913 0.254581 0.077576
v 0.057208 0.304797 0.074238
v 0.211114 0.534780 -0.142982
v 0.003747 0.545112 -0.127682
v 0.216113 0.448351 0.070967
v 0.041893 0.435769 0.074937
v 0.130779 -0.161320 -0.148880
v 0.077459 -0.153268 -0.170411
v 0.147223 -0.086885 0.006446
v 0.051657 -0.073407 0.006704
v -0.012179 0.596722 -0.063473
v 0.250197 0.529102 -0.049633
v 0.028128 0.502958 0.060889
v 0.189158 0.508698 0.049733
v 0.033670 0.603975 -0.034899
v 0.196409 0.577052 -0.018781
v 0.058148 0.546929 0.119541
v 0.168931 0.539540 0.125940
v 0.211105 0.828173 0.066424
v 0.211315 0.786529 0.219854
v 0.064113 0.612036 0.030448
v 0.214262 0.709629 0.243528
v 0.186875 0.536413 0.196339
v 0.161954 0.590889 0.031774
v 0.235333 0.699599 0.036356
v 0.241519 0.774190 0.049585
v 0.219728 0.746689 0.228440
v 0.289464 -0.265980 -0.050357
v 0.284043 -0.192908 0.071238
v -0.077513 -0.230390 0.000222
v -0.072090 -0.254563 -0.113331
v 0.150408 -0.269441 -0.067258
v 0.043290 -0.261158 -0.123281
v 0.161737 -0.216543 0.052139
v 0.030439 -0.244328 -0.002994
v 0.303660 -0.346565 0.016228
v 0.286331 -0.290321 0.121984
v 0.181257 -0.353833 0.012884
v 0.179621 -0.305521 0.109888
v 0.341299 -0.537597 0.010454
v 0.309137 -0.554742 0.137902
v 0.228958 -0.553924 -0.009938
v 0.213451 -0.550594 0.118039
v 0.321027 -0.588443 0.056990
v 0.306916 -0.576025 0.121529
v 0.242111 -0.567742 0.013983
v 0.231012 -0.579661 0.111432
v 0.229290 -0.956024 -0.070830
v 0.232269 -0.895295 0.058783
v 0.313014 -1.001886 0.261314
v 0.217328 -0.994988 0.290225
v 0.237321 -0.970354 0.277500
v 0.227731 0.096151 -0.180641
v 0.231937 0.083465 0.018911
v -0.030578 0.089347 0.030299
v -0.035526 0.117263 -0.176253
v 0.263842 0.083973 -0.146100
v 0.267904 0.088476 -0.018721
v -0.066577 0.101639 -0.006657
v -0.070993 0.096086 -0.140529
v 0.151530 0.076276 0.042042
v 0.062997 0.067884 0.045030
v 0.145191 0.089239 -0.197531
v 0.068452 0.135397 -0.191620
v -0.092400 -0.344891 0.028273
v -0.093990 -0.362899 -0.080508
v 0.023308 -0.367797 -0.085314
v 0.015578 -0.355821 0.028110
v -0.110168 -0.491953 0.027392
v -0.115650 -0.456407 -0.082293
v -0.011278 -0.457384 -0.104670
v -0.006638 -0.487813 0.022694
v -0.116011 -0.514239 0.005180
v -0.118628 -0.482913 -0.079967
v -0.023783 -0.481502 -0.088663
v -0.019734 -0.520218 -0.008242
v -0.083543 -0.855410 -0.189348
v -0.082022 -0.845989 -0.254032
v -0.026003 -0.845526 -0.260944
v -0.015335 -0.859280 -0.199889
v -0.081857 -0.918452 -0.187184
v -0.062744 -0.952608 -0.310403
v -0.018932 -0.955910 -0.292973
v -0.024943 -0.911270 -0.182744
v -0.102013 -1.007945 0.030323
v -0.016172 -1.009341 0.043668
v -0.038654 -0.978252 0.031618
v 0.198293 0.612691 0.219908
v 0.196605 0.621427 0.024710
v 0.289319 -0.111914 -0.061726
v -0.106749 -0.102237 -0.085267
v 0.260892 0.301726 -0.082550
v -0.076223 0.205305 -0.071512
v 0.417598 0.443770 -0.087888
v -0.191090 0.506928 -0.068106
v 0.307874 0.345692 -0.116863
v 0.480356 0.338119 -0.128474
v 0.461691 0.051910 -0.102944
v 0.524824 0.102073 -0.117728
v 0.531408 0.109244 0.178936
v 0.542645 0.171734 0.150963
v 0.560165 0.188311 0.221459
v 0.555464 0.225334 0.327188
v 0.545468 0.207147 0.381122
v 0.527658 0.170393 0.384897
v -0.137765 0.340400 -0.078389
v -0.241700 0.427161 -0.079190
v -0.312059 0.190385 -0.046834
v -0.389434 0.233705 -0.060195
v -0.353019 0.212177 0.051560
v -0.398243 0.267149 0.018621
v -0.354460 0.368911 0.201242
v -0.375500 0.398722 0.159691
v 0.074680 -0.154394 -0.098619
v 0.245770 0.525169 0.008361
v -0.023620 0.560607 0.023541
v 0.190488 0.553382 0.060489
v 0.040873 0.572007 0.067734
v 0.227751 0.816894 0.123759
v 0.196878 0.576593 0.097963
v 0.251994 0.696874 0.177812
v 0.264253 0.774977 0.159863
v 0.305255 -0.239059 0.008442
v -0.105237 -0.248809 -0.064579
v 0.136489 -0.245827 -0.012737
v 0.049239 -0.267530 -0.063539
v 0.309857 -0.324978 0.063041
v 0.158184 -0.331243 0.056494
v 0.347160 -0.544696 0.059673
v 0.205784 -0.549334 0.068861
v 0.322329 -0.582353 0.089143
v 0.205974 -0.586736 0.071015
v 0.322982 -0.927478 0.009590
v 0.210126 -0.917920 0.014862
v 0.281519 0.079389 -0.085823
v -0.082468 0.090036 -0.076134
v -0.121347 -0.354479 -0.038655
v 0.025953 -0.376076 -0.030516
v -0.137315 -0.463834 -0.023359
v 0.018157 -0.476923 -0.031020
v -0.123164 -0.495032 -0.037593
v 0.008359 -0.506118 -0.044955
v -0.092956 -0.846468 -0.224254
v -0.009067 -0.850309 -0.236328
v -0.097954 -0.920919 -0.222968
v 0.228543 0.612852 0.107277
v 0.112530 -0.089018 -0.189838
v 0.118750 -0.068211 0.036773
v 0.115962 0.259523 -0.200789
v 0.116798 0.276374 0.077467
v 0.108778 0.520167 -0.132655
v 0.125401 0.445583 0.074616
v 0.110439 -0.094129 -0.166219
v 0.113353 -0.093128 0.007166
v 0.101753 0.589936 -0.064140
v 0.110151 0.496278 0.092305
v 0.111578 0.602784 -0.037236
v 0.112855 0.521862 0.147438
v 0.108241 0.614117 0.013075
v 0.110942 0.069975 0.045572
v 0.110009 0.094478 -0.190747
v 0.110994 0.650039 0.000036
v 0.110094 -0.105715 -0.100877
v -0.370992 0.420453 0.239874
v -0.325693 0.422780 0.230066
v -0.384461 0.451301 0.216482
v -0.340148 0.453792 0.204874
v -0.364586 0.459589 0.280544
v -0.315289 0.464603 0.288306
v -0.383959 0.493274 0.276791
v -0.312821 0.497274 0.271689
v -0.364243 0.466202 0.310560
v -0.310106 0.467898 0.307970
v -0.377298 0.497172 0.324570
v -0.300532 0.499322 0.314049
v -0.290211 0.417634 0.379058
v -0.343336 0.413759 0.377573
v -0.351574 0.418469 0.236372
v -0.362260 0.454356 0.206887
v -0.341589 0.458556 0.279515
v -0.346216 0.496513 0.269967
v -0.335143 0.465705 0.309763
v -0.332133 0.501122 0.320860
v -0.329474 0.456615 0.339073
v -0.316110 0.442437 0.357960
v 0.015559 -0.066550 -0.247882
v 0.018451 -0.049175 0.038153
v 0.027969 0.268032 -0.196597
v 0.018605 0.276075 0.062139
v -0.030438 0.527596 -0.150206
v -0.021610 0.438054 0.050593
v -0.006960 -0.148008 -0.193085
v -0.018095 -0.080323 0.014433
v -0.110403 0.579105 -0.083601
v -0.042559 0.495132 0.037765
v -0.016346 -0.263802 -0.142365
v -0.021586 -0.232133 0.029678
v 0.013629 0.076562 0.041371
v 0.013782 0.110403 -0.194719
v -0.035728 -0.368988 -0.102175
v -0.031974 -0.342415 0.064924
v -0.062573 -0.443442 -0.141665
v -0.058896 -0.485280 0.064491
v -0.068118 -0.472937 -0.134864
v -0.069255 -0.518096 0.024527
v -0.054901 -0.838088 -0.274472
v -0.052480 -0.851965 -0.173663
v -0.045034 -0.948291 -0.326938
v -0.052938 -0.910789 -0.160804
v -0.077676 -1.008199 0.038321
v -0.073754 -0.987116 0.020523
v -0.092032 0.551796 0.000612
v 0.319809 0.514776 -0.092428
v 0.195405 -0.129677 -0.220419
v 0.194448 -0.039961 0.020014
v 0.207934 0.228047 -0.189468
v 0.199512 0.248251 0.069120
v 0.297216 0.511814 -0.163083
v 0.291383 0.444925 0.044288
v 0.206430 -0.175577 -0.154471
v 0.196627 -0.052232 0.008621
v 0.218276 -0.278878 -0.077402
v 0.214612 -0.185383 0.100462
v 0.242281 -0.350016 0.000909
v 0.237515 -0.280783 0.157613
v 0.287158 -0.555347 -0.019302
v 0.249106 -0.547155 0.159409
v 0.295719 -0.585516 -0.025052
v 0.265859 -0.568197 0.136045
v 0.252190 -0.955222 -0.098030
v 0.260398 -0.895688 0.075937
v 0.190819 0.076919 0.033212
v 0.182404 0.085218 -0.197405
v 0.331040 0.492028 -0.036140
v -0.361831 0.456801 0.338976
v -0.370306 0.477570 0.356257
v -0.293228 0.479637 0.349678
v -0.304853 0.458599 0.333854
v -0.322754 0.481519 0.356590
v -0.293938 0.451211 0.274066
v -0.282793 0.439983 0.260859
v -0.290282 0.480678 0.258240
v -0.278950 0.462178 0.243477
v -0.270590 0.424698 0.297510
v -0.262700 0.429237 0.318588
v -0.281127 0.445399 0.286907
v -0.269083 0.466228 0.283352
v -0.261245 0.455440 0.274292
v -0.274976 0.437050 0.278924
v -0.366579 0.442676 0.261014
v -0.384239 0.475325 0.245904
v -0.325790 0.478216 0.232464
v -0.321877 0.442731 0.254522
v -0.355242 0.477649 0.236403
v -0.347062 0.440420 0.256889
v -0.295890 0.437018 0.244223
v -0.296439 0.459967 0.221767
v -0.303924 0.460239 0.282564
v -0.302321 0.489106 0.260259
v -0.301454 0.477247 0.237215
v -0.302025 0.447779 0.259564
v -0.067170 0.419833 -0.181822
v -0.046342 0.374022 0.051340
v 0.290792 0.363833 0.034396
v 0.309466 0.408868 -0.194916
v -0.119294 0.397532 -0.173935
v -0.107716 0.381797 0.018570
v 0.339172 0.373876 -0.030105
v 0.367768 0.349153 -0.180460
v 0.425347 0.320249 -0.076274
v 0.450806 0.290764 -0.186805
v 0.476345 0.104440 -0.097368
v 0.517842 0.063991 -0.149991
v 0.505671 0.161182 0.205007
v 0.570689 0.128198 0.143087
v 0.512995 0.189082 0.245467
v 0.575182 0.149663 0.237849
v 0.504801 0.219421 0.309078
v 0.246295 -0.944336 0.240620
v -0.184977 0.387471 -0.142612
v -0.183704 0.403141 0.001472
v -0.361976 0.192923 -0.094018
v -0.346078 0.251176 -0.035598
v -0.418040 0.188133 0.030856
v -0.331193 0.284392 0.036906
v -0.388959 0.459482 0.256206
v -0.332290 0.386607 0.171166
v 0.050810 0.364092 0.079121
v 0.191551 0.376150 0.100220
v 0.195318 0.400910 -0.204169
v 0.038338 0.430241 -0.184700
v 0.215123 -0.985462 0.195334
v 0.121855 0.376111 0.100002
v 0.150188 0.484441 -0.155652
v -0.324052 0.434127 0.212106
v -0.379618 0.467667 0.350363
v -0.306448 0.483885 0.289850
v -0.384320 0.482168 0.320312
v -0.296565 0.481654 0.310216
v -0.387823 0.476913 0.281415
v -0.014648 0.401680 -0.184023
v -0.003401 0.370874 0.071299
v 0.245164 0.376812 0.073053
v 0.251030 0.401502 -0.209238
v -0.391276 0.436359 0.230925
v -0.292479 0.467205 0.338583
v -0.277896 0.446583 0.247515
v -0.296046 0.473708 0.278250
v -0.272284 0.433946 0.310258
v -0.278824 0.460775 0.291008
v -0.265359 0.443209 0.273918
v -0.401246 0.379720 0.192533
v -0.294009 0.444233 0.227535
v 0.237668 0.660522 0.032529
v 0.210242 0.689225 0.235518
v 0.236049 0.658546 0.156353
v 0.436801 0.166916 -0.169590
v 0.509609 0.193747 -0.162568
v 0.491059 0.208218 -0.086058
v 0.424621 0.178952 -0.098042
v 0.514164 0.204318 -0.122781
v 0.417166 0.163669 -0.133213
v 0.478855 0.176668 -0.180314
v 0.451364 0.197066 -0.076467
v 0.494992 0.169797 0.280739
v 0.488034 0.158268 0.250109
v 0.493825 0.185577 0.284269
v 0.495121 0.172279 0.240311
v 0.478942 0.174203 0.285242
v -0.015512 -0.996514 -0.040698
v -0.040024 -0.966119 -0.008981
v -0.104390 -0.982152 -0.026398
v -0.110959 -0.996042 -0.045918
v 0.221655 -0.950657 0.219493
v 0.318248 -0.977725 0.192094
v -0.020464 -0.976587 -0.006399
v -0.076247 -0.971194 -0.002720
v -0.067686 -0.994126 -0.065888
v 0.279109 -0.948206 0.243836
v 0.270040 -0.989123 0.175461
v 0.170010 0.585547 0.235741
v 0.145737 0.547011 0.248616
v -0.017704 0.571130 -0.038794
v 0.299604 -0.905528 0.048068
v 0.311068 -0.954758 0.232411
v 0.472126 0.186502 0.320691
v 0.286023 -0.963651 -0.046091
v 0.331410 -0.994792 0.182623
v 0.279156 -1.000911 0.294355
v 0.277338 -0.971672 0.283634
v -0.001539 -0.934045 -0.216530
v 0.142337 0.831717 0.119536
v 0.133899 0.796234 0.208063
v 0.130384 0.764240 0.239245
v 0.126647 0.777352 0.019769
v 0.120658 0.837815 0.066318
v 0.161838 0.645451 0.245079
v 0.129341 0.696259 0.267509
v 0.107308 0.754037 -0.003536
v 0.095245 0.699727 -0.009594
v 0.306033 -0.979710 0.068369
v 0.237795 -0.926595 0.149114
v 0.224471 -0.935213 0.117766
v 0.305101 -0.945989 0.100354
v 0.266605 -0.929005 0.159163
v 0.256729 -0.972969 0.038864
v 0.227664 -0.972221 0.062831
v 0.288297 -0.936893 0.138766
v -0.031115 -0.986323 -0.156652
v -0.103910 -0.982700 -0.153151
v -0.032559 -0.943609 -0.096463
v -0.088543 -0.951707 -0.097051
v -0.064680 -0.949587 -0.082878
v -0.056128 -0.977028 -0.196653
v -0.096594 -0.953026 -0.114921
v -0.016517 -0.951947 -0.110407
v 0.233861 -0.837568 0.034103
v 0.238901 -0.841109 -0.037159
v 0.217088 -0.839651 0.007040
v 0.304121 -0.845755 0.014986
v 0.267227 -0.844478 -0.053974
v 0.257412 -0.838090 0.048320
v 0.288437 -0.841742 0.036349
v 0.291073 -0.849948 -0.013320
v 0.193147 -0.411766 0.161345
v 0.203133 -0.444756 0.029991
v 0.332243 -0.434183 0.039532
v 0.178066 -0.424146 0.100551
v 0.338307 -0.425507 0.097983
v 0.269529 -0.444122 0.019636
v 0.322947 -0.416189 0.142844
v 0.307077 -0.408039 0.183040
v 0.275604 -0.403325 0.193603
v 0.246778 -0.401901 0.206616
v 0.226464 -0.403547 0.194163
v -0.321704 0.236348 0.017277
v -0.369552 0.241017 -0.012417
v -0.397191 0.215217 -0.021103
v -0.339023 0.262571 -0.001793
v -0.356848 0.163791 -0.036485
v -0.334164 0.180264 -0.006171
v -0.392043 0.167545 -0.035189
v -0.318157 0.189102 0.005054
v -0.404908 0.172779 -0.032226
v -0.407685 0.201834 -0.027720
vt 0.069736 0.810409
vt 0.070343 0.836608
vt 0.016229 0.816513
vt 0.108198 0.828833
vt 0.082923 0.858291
vt 0.106675 0.817219
vt 0.100807 0.806030
vt 0.150135 0.804118
vt 0.147186 0.813631
vt 0.174865 0.804059
vt 0.199136 0.770721
vt 0.202768 0.808668
vt 0.238571 0.772226
vt 0.263052 0.806977
vt 0.232791 0.807582
vt 0.219562 0.756768
vt 0.197768 0.831600
vt 0.178180 0.842881
vt 0.234127 0.832144
vt 0.215107 0.851808
vt 0.137368 0.848515
vt 0.110896 0.852930
vt 0.145348 0.858722
vt 0.117053 0.872845
vt 0.102955 0.908822
vt 0.126935 0.911784
vt 0.138976 0.939172
vt 0.152030 0.900103
vt 0.166281 0.939086
vt 0.089864 0.882970
vt 0.149277 0.791186
vt 0.257412 0.845823
vt 0.214501 0.867849
vt 0.213059 0.907146
vt 0.051165 0.936868
vt 0.014365 0.995179
vt 0.015016 0.932731
vt 0.015519 0.884587
vt 0.078700 0.906981
vt 0.119497 0.940371
vt 0.219156 0.966110
vt 0.215077 0.942549
vt 0.015832 0.854569
vt 0.016051 0.833512
vt 0.179234 0.620343
vt 0.197718 0.646091
vt 0.173652 0.698841
vt 0.182928 0.613250
vt 0.178951 0.620309
vt 0.026111 0.589592
vt 0.036575 0.571852
vt 0.091358 0.586156
vt 0.124688 0.593060
vt 0.160572 0.604071
vt 0.170757 0.608279
vt 0.530541 0.500669
vt 0.510531 0.463554
vt 0.551834 0.493069
vt 0.552803 0.545871
vt 0.590385 0.499029
vt 0.586699 0.548165
vt 0.709463 0.233461
vt 0.736981 0.227836
vt 0.754824 0.286062
vt 0.746649 0.660255
vt 0.764971 0.572211
vt 0.792005 0.606361
vt 0.782569 0.517985
vt 0.798161 0.553887
vt 0.756625 0.500475
vt 0.737230 0.581062
vt 0.736075 0.519940
vt 0.733529 0.479446
vt 0.750714 0.455948
vt 0.710553 0.534913
vt 0.713606 0.486083
vt 0.707849 0.591243
vt 0.721914 0.656839
vt 0.056404 0.510554
vt 0.059910 0.459217
vt 0.082250 0.470310
vt 0.111457 0.463904
vt 0.112872 0.507403
vt 0.101446 0.443261
vt 0.056753 0.433066
vt 0.024045 0.465652
vt 0.523770 0.443500
vt 0.557804 0.459512
vt 0.592367 0.472603
vt 0.536472 0.416574
vt 0.563911 0.425104
vt 0.586690 0.416660
vt 0.568725 0.405936
vt 0.575182 0.380223
vt 0.594668 0.441922
vt 0.051716 0.399758
vt 0.024388 0.442698
vt 0.081566 0.396057
vt 0.093588 0.424361
vt 0.128566 0.412255
vt 0.109875 0.389620
vt 0.144957 0.383594
vt 0.141775 0.429221
vt 0.140728 0.456272
vt 0.132597 0.505439
vt 0.682119 0.592684
vt 0.697545 0.666171
vt 0.684063 0.542042
vt 0.648993 0.547098
vt 0.685757 0.487986
vt 0.653522 0.591244
vt 0.623556 0.582985
vt 0.679541 0.670859
vt 0.662650 0.670490
vt 0.157697 0.458631
vt 0.158681 0.391976
vt 0.157741 0.429866
vt 0.177530 0.430906
vt 0.454911 0.444893
vt 0.463736 0.393656
vt 0.479621 0.447783
vt 0.429932 0.441906
vt 0.454684 0.472779
vt 0.434980 0.472434
vt 0.472824 0.476894
vt 0.476425 0.525671
vt 0.456561 0.523166
vt 0.499275 0.486705
vt 0.497959 0.533883
vt 0.650874 0.220393
vt 0.668673 0.225869
vt 0.676740 0.279524
vt 0.688030 0.233060
vt 0.523816 0.542864
vt 0.493663 0.422434
vt 0.474451 0.386123
vt 0.482005 0.375180
vt 0.505422 0.400154
vt 0.514707 0.384843
vt 0.523991 0.369532
vt 0.531331 0.397196
vt 0.491685 0.367753
vt 0.128703 0.369584
vt 0.104505 0.368381
vt 0.099134 0.347142
vt 0.124471 0.341259
vt 0.103840 0.290043
vt 0.125032 0.288667
vt 0.506874 0.315104
vt 0.523971 0.318162
vt 0.260244 0.201008
vt 0.260256 0.148470
vt 0.285563 0.152714
vt 0.307173 0.152925
vt 0.307427 0.206656
vt 0.310405 0.109643
vt 0.286264 0.108735
vt 0.286965 0.064755
vt 0.267247 0.062003
vt 0.295875 0.025083
vt 0.263751 0.105236
vt 0.252893 0.056371
vt 0.440764 0.192044
vt 0.442886 0.130542
vt 0.459726 0.145161
vt 0.438643 0.253546
vt 0.412179 0.246705
vt 0.072435 0.349262
vt 0.073244 0.290649
vt 0.045943 0.349562
vt 0.077001 0.372659
vt 0.598868 0.385923
vt 0.596768 0.413923
vt 0.025330 0.379831
vt 0.048830 0.374660
vt 0.025785 0.349403
vt 0.026752 0.284835
vt 0.049424 0.287418
vt 0.388440 0.194221
vt 0.413018 0.188997
vt 0.545758 0.095983
vt 0.484907 0.101111
vt 0.491324 0.068919
vt 0.543531 0.316131
vt 0.571026 0.317433
vt 0.603411 0.325357
vt 0.336412 0.145885
vt 0.334734 0.199716
vt 0.313637 0.066360
vt 0.339506 0.058746
vt 0.419166 0.101111
vt 0.415550 0.073077
vt 0.418936 0.041329
vt 0.485174 0.030517
vt 0.545250 0.041004
vt 0.555771 0.071660
vt 0.550413 0.377675
vt 0.558050 0.404510
vt 0.731741 0.299501
vt 0.713679 0.331519
vt 0.699831 0.287050
vt 0.699623 0.348759
vt 0.689400 0.321677
vt 0.663804 0.312784
vt 0.654456 0.274483
vt 0.634618 0.311670
vt 0.669502 0.338169
vt 0.604363 0.274181
vt 0.630672 0.275261
vt 0.632768 0.219732
vt 0.612796 0.219139
vt 0.578680 0.274242
vt 0.840163 0.675460
vt 0.805000 0.641210
vt 0.821835 0.616809
vt 0.823287 0.709302
vt 0.792442 0.666262
vt 0.801265 0.732258
vt 0.840971 0.744966
vt 0.781333 0.686390
vt 0.557027 0.277312
vt 0.566024 0.224516
vt 0.589504 0.220607
vt 0.375096 0.492402
vt 0.384961 0.458486
vt 0.405199 0.486941
vt 0.410574 0.526483
vt 0.436273 0.522295
vt 0.410194 0.413373
vt 0.430433 0.380777
vt 0.455808 0.393131
vt 0.165665 0.393959
vt 0.192333 0.391907
vt 0.203471 0.419505
vt 0.207389 0.368304
vt 0.225411 0.391622
vt 0.396034 0.384167
vt 0.373257 0.427405
vt 0.420432 0.356604
vt 0.385943 0.354045
vt 0.365034 0.394965
vt 0.359348 0.362250
vt 0.361655 0.322007
vt 0.331496 0.354320
vt 0.389735 0.318213
vt 0.408299 0.313218
vt 0.407520 0.344510
vt 0.211730 0.328779
vt 0.220254 0.292264
vt 0.240239 0.298890
vt 0.032729 0.262939
vt 0.010266 0.262462
vt 0.022123 0.216488
vt 0.183362 0.259934
vt 0.169879 0.261827
vt 0.170456 0.200058
vt 0.152871 0.212064
vt 0.157816 0.257421
vt 0.131245 0.259389
vt 0.152744 0.212061
vt 0.329851 0.315255
vt 0.305156 0.349663
vt 0.332361 0.395198
vt 0.336616 0.434023
vt 0.342953 0.472564
vt 0.302718 0.434937
vt 0.305443 0.474901
vt 0.344205 0.538039
vt 0.305197 0.529271
vt 0.381368 0.533821
vt 0.526919 0.283769
vt 0.770507 0.751644
vt 0.805920 0.758992
vt 0.759849 0.709726
vt 0.733814 0.766693
vt 0.731822 0.732613
vt 0.715848 0.699675
vt 0.731674 0.685305
vt 0.489862 0.276741
vt 0.503649 0.216719
vt 0.536949 0.224504
vt 0.500193 0.577651
vt 0.546406 0.567669
vt 0.550049 0.651223
vt 0.770277 0.950472
vt 0.741703 0.987031
vt 0.721975 0.973279
vt 0.670795 0.949235
vt 0.691763 0.924160
vt 0.667253 0.759822
vt 0.647596 0.761046
vt 0.661418 0.745912
vt 0.674984 0.731059
vt 0.685126 0.785114
vt 0.727911 0.801324
vt 0.684541 0.813951
vt 0.779951 0.788271
vt 0.812240 0.817931
vt 0.777899 0.838219
vt 0.732181 0.843380
vt 0.684428 0.846295
vt 0.661248 0.840977
vt 0.662804 0.852998
vt 0.662157 0.811417
vt 0.664185 0.784673
vt 0.643244 0.784232
vt 0.590894 0.788058
vt 0.588395 0.804006
vt 0.546988 0.807658
vt 0.648291 0.946686
vt 0.655183 0.935733
vt 0.625362 0.944088
vt 0.565379 0.931164
vt 0.577026 0.913602
vt 0.517318 0.950251
vt 0.518656 0.937728
vt 0.532671 0.916079
vt 0.498534 0.934775
vt 0.508386 0.916362
vt 0.498934 0.958053
vt 0.504952 0.967267
vt 0.538647 0.828159
vt 0.520554 0.803562
vt 0.506540 0.794164
vt 0.512161 0.782695
vt 0.526812 0.792410
vt 0.499805 0.976893
vt 0.490810 0.970078
vt 0.606211 0.225665
vt 0.595724 0.228838
vt 0.600010 0.221730
vt 0.495368 0.986286
vt 0.485546 0.980051
vt 0.476390 0.972088
vt 0.479016 0.958002
vt 0.594230 0.216702
vt 0.592138 0.225545
vt 0.586564 0.214627
vt 0.590529 0.228890
vt 0.597639 0.217468
vt 0.605528 0.228876
vt 0.601098 0.232224
vt 0.604423 0.216146
vt 0.496747 0.782205
vt 0.501342 0.775490
vt 0.492601 0.804070
vt 0.489730 0.787509
vt 0.506750 0.811736
vt 0.492742 0.816421
vt 0.513412 0.828903
vt 0.488759 0.827748
vt 0.474192 0.805949
vt 0.511728 0.849291
vt 0.490026 0.847743
vt 0.536808 0.847447
vt 0.531596 0.867423
vt 0.579848 0.843550
vt 0.583631 0.821038
vt 0.639773 0.808883
vt 0.638068 0.835659
vt 0.640348 0.859960
vt 0.577914 0.864185
vt 0.582099 0.876926
vt 0.584670 0.895647
vt 0.537191 0.899022
vt 0.667339 0.876481
vt 0.668457 0.888449
vt 0.646086 0.879394
vt 0.736172 0.880839
vt 0.740176 0.911475
vt 0.690828 0.897503
vt 0.738403 0.943686
vt 0.778359 0.920543
vt 0.803771 0.938845
vt 0.794015 0.972059
vt 0.784290 0.882232
vt 0.808911 0.904111
vt 0.820719 0.863047
vt 0.834152 0.902731
vt 0.860307 0.861182
vt 0.865071 0.907486
vt 0.854923 0.958699
vt 0.829423 0.947565
vt 0.815176 0.985898
vt 0.887162 0.982680
vt 0.841126 0.997513
vt 0.599526 0.582393
vt 0.641540 0.666649
vt 0.148351 0.505738
vt 0.174193 0.461810
vt 0.207317 0.471588
vt 0.195039 0.515146
vt 0.222404 0.449298
vt 0.239531 0.431097
vt 0.252210 0.395818
vt 0.234712 0.343454
vt 0.265749 0.311085
vt 0.059449 0.258487
vt 0.041224 0.210106
vt 0.046055 0.145057
vt 0.065208 0.145112
vt 0.024679 0.151375
vt 0.162418 0.029328
vt 0.182110 0.066625
vt 0.166653 0.067555
vt 0.184383 0.102727
vt 0.186657 0.138828
vt 0.165079 0.140337
vt 0.141648 0.103851
vt 0.138732 0.067952
vt 0.115723 0.103496
vt 0.111228 0.067117
vt 0.106891 0.104386
vt 0.128518 0.203489
vt 0.120218 0.139876
vt 0.144564 0.139751
vt 0.102553 0.141654
vt 0.109393 0.202459
vt 0.089752 0.204557
vt 0.108356 0.261684
vt 0.084126 0.259809
vt 0.282949 0.354017
vt 0.258549 0.351892
vt 0.279678 0.394818
vt 0.273489 0.435894
vt 0.264764 0.465056
vt 0.236144 0.480843
vt 0.230426 0.525231
vt 0.576400 0.576912
vt 0.612982 0.659816
vt 0.582060 0.650525
vt 0.267987 0.525790
vt 0.305231 0.529680
vt 0.303387 0.392990
vt 0.288143 0.310611
vt 0.305042 0.312138
vt 0.080500 0.144623
vt 0.064947 0.207693
vt 0.555911 0.071265
vt 0.491604 0.068128
vt 0.166360 0.018036
vt 0.194569 0.061886
vt 0.205200 0.106980
vt 0.215831 0.152075
vt 0.145490 0.015442
vt 0.142316 0.025664
vt 0.122222 0.019171
vt 0.183428 0.191935
vt 0.098209 0.061670
vt 0.089191 0.103327
vt 0.904527 0.932446
vt 0.949699 0.948466
vt 0.911335 0.882488
vt 0.856281 0.836740
vt 0.887268 0.835598
vt 0.922921 0.857963
vt 0.965169 0.597470
vt 0.917537 0.577056
vt 0.944867 0.540579
vt 0.978071 0.883628
vt 0.973533 0.894384
vt 0.689807 0.425682
vt 0.723753 0.401854
vt 0.723676 0.441929
vt 0.751080 0.416759
vt 0.743080 0.379427
vt 0.787951 0.419748
vt 0.785654 0.452513
vt 0.788706 0.483118
vt 0.832288 0.454003
vt 0.836262 0.425753
vt 0.780027 0.392874
vt 0.831699 0.398084
vt 0.881984 0.402051
vt 0.879661 0.431814
vt 0.870752 0.458245
vt 0.864071 0.473143
vt 0.827228 0.478044
vt 0.861871 0.491751
vt 0.818704 0.500131
vt 0.958919 0.484608
vt 0.962949 0.502797
vt 0.937394 0.181666
vt 0.769056 0.171862
vt 0.923107 0.165442
vt 0.866430 0.519287
vt 0.825735 0.529120
vt 0.815376 0.348115
vt 0.773877 0.335777
vt 0.788825 0.312483
vt 0.742325 0.347461
vt 0.720633 0.360227
vt 0.774690 0.367418
vt 0.820904 0.374810
vt 0.872377 0.354530
vt 0.878939 0.376376
vt 0.819290 0.317856
vt 0.731418 0.161390
vt 0.740781 0.147624
vt 0.910959 0.146351
vt 0.728397 0.116884
vt 0.914298 0.126964
vt 0.743061 0.135898
vt 0.708508 0.185310
vt 0.696037 0.169448
vt 0.707778 0.159044
vt 0.676057 0.226459
vt 0.677608 0.225465
vt 0.676205 0.240475
vt 0.671792 0.238244
vt 0.671579 0.231190
vt 0.675970 0.223623
vt 0.780888 0.198982
vt 0.721993 0.208356
vt 0.777250 0.185608
vt 0.940749 0.196335
vt 0.683363 0.177018
vt 0.717878 0.068662
vt 0.713329 0.057286
vt 0.765911 0.073368
vt 0.691650 0.061870
vt 0.690905 0.050835
vt 0.704049 0.210128
vt 0.580357 0.233572
vt 0.578678 0.228747
vt 0.590575 0.223615
vt 0.632111 0.223278
vt 0.631029 0.218871
vt 0.633990 0.223808
vt 0.634144 0.230548
vt 0.630419 0.230702
vt 0.627492 0.228454
vt 0.685209 0.070727
vt 0.761098 0.088965
vt 0.932747 0.074007
vt 0.937492 0.094905
vt 0.957631 0.466678
vt 0.967928 0.421502
vt 0.960140 0.443954
vt 0.932725 0.111224
vt 0.750793 0.102746
vt 0.705453 0.080670
vt 0.711538 0.076342
vt 0.680790 0.074556
vt 0.626241 0.226931
vt 0.628045 0.218080
vt 0.582846 0.223738
vt 0.622224 0.225301
vt 0.624718 0.220016
vt 0.697557 0.089662
vt 0.676268 0.086597
vt 0.978665 0.398268
vt 0.692023 0.380408
vt 0.864947 0.581494
vt 0.899554 0.604654
vt 0.958903 0.642431
vt 0.337857 0.805645
vt 0.352329 0.816896
vt 0.335849 0.816248
vt 0.980156 0.877558
vt 0.909464 0.816878
vt 0.926421 0.834067
vt 0.281063 0.862176
vt 0.275086 0.902303
vt 0.214060 0.907716
vt 0.263508 0.936732
vt 0.293204 0.935134
vt 0.312830 0.897319
vt 0.306961 0.939965
vt 0.325778 0.911830
vt 0.378134 0.940095
vt 0.415505 0.929827
vt 0.418784 0.993411
vt 0.352990 0.912880
vt 0.416587 0.879286
vt 0.342977 0.862915
vt 0.334404 0.831281
vt 0.356169 0.822831
vt 0.421828 0.803268
vt 0.423463 0.790571
vt 0.281092 0.802015
vt 0.289344 0.787333
vt 0.914935 0.669173
vt 0.894371 0.655267
vt 0.941248 0.648461
vt 0.865116 0.631419
vt 0.904634 0.714904
vt 0.885904 0.758904
vt 0.900499 0.789879
vt 0.899007 0.788698
vt 0.853737 0.811092
vt 0.829870 0.777931
vt 0.860844 0.709530
vt 0.295623 0.819633
vt 0.287258 0.844412
vt 0.325763 0.856591
vt 0.321747 0.877511
vt 0.342095 0.889562
vt 0.420014 0.823008
vt 0.418443 0.847652
vt 0.214754 0.868398
vt 0.684556 0.874120
vt 0.672119 0.912381
vt 0.652475 0.900602
vt 0.639571 0.922231
vt 0.507622 0.881982
vt 0.511692 0.900015
vt 0.489666 0.900137
vt 0.580288 0.220048
vt 0.602597 0.219251
vt 0.595593 0.231166
vt 0.484047 0.918288
vt 0.483902 0.881354
vt 0.469443 0.898677
vt 0.461404 0.882670
vt 0.450183 0.899039
vt 0.464541 0.917413
vt 0.468275 0.936341
vt 0.471954 0.946277
vt 0.450867 0.951575
vt 0.488129 0.950503
vt 0.459843 0.957822
vt 0.474275 0.794513
vt 0.477930 0.782470
vt 0.464248 0.968801
vt 0.593648 0.229043
vt 0.594800 0.219921
vt 0.444295 0.950359
vt 0.455896 0.935741
vt 0.578071 0.229878
vt 0.581080 0.226636
vt 0.582821 0.231325
vt 0.444016 0.932284
vt 0.589242 0.231216
vt 0.447125 0.916158
vt 0.594684 0.224169
vt 0.596039 0.231008
vt 0.534866 0.881347
vt 0.436167 0.876832
vt 0.451786 0.873540
vt 0.502622 0.869488
vt 0.478622 0.869260
vt 0.600669 0.228516
vt 0.470367 0.846306
vt 0.436632 0.875280
vt 0.588033 0.222815
vt 0.620369 0.220488
vt 0.617885 0.228883
vt 0.604039 0.223910
vt 0.625993 0.229515
vt 0.627942 0.223514
vt 0.630553 0.227391
vt 0.474575 0.826305
vt 0.456368 0.843249
vt 0.468600 0.807609
vt 0.462220 0.823292
vt 0.860756 0.332332
vt 0.993439 0.371060
vt 0.986188 0.383142
vt 0.682025 0.226976
vt 0.679969 0.227249
vt 0.679746 0.240699
vt 0.359744 0.137364
vt 0.391687 0.134896
vt 0.379208 0.097067
vt 0.392501 0.134914
vt 0.338867 0.016386
vt 0.351992 0.060701
vt 0.355868 0.099033
vt 0.358824 0.195455
vt 0.357904 0.253546
vt 0.317688 0.022378
vt 0.316028 0.010349
vt 0.365914 0.059220
vt 0.188288 0.626633
vt 0.020225 0.627476
vt 0.077847 0.729049
vt 0.337959 0.102316
vt 0.605326 0.051490
vt 0.620218 0.074402
vt 0.243365 0.103028
vt 0.606609 0.090856
vt 0.080172 0.144983
vt 0.165866 0.103946
vt 0.385193 0.253546
vt 0.333056 0.253546
vt 0.413857 0.131288
vt 0.459290 0.199353
vt 0.286566 0.257455
vt 0.286064 0.205085
vt 0.260233 0.253546
vt 0.180066 0.618899
vt 0.041004 0.571204
vt 0.031313 0.580504
vt 0.176801 0.615736
vt 0.131432 0.592259
vt 0.168093 0.605199
vt 0.087753 0.577968
vt 0.126587 0.355421
vt 0.542484 0.399799
vt 0.686910 0.758599
vt 0.586835 0.222039
vt 0.016410 0.799097
vt 0.148475 0.720072
vt 0.112435 0.731387
vt 0.084152 0.729883
vt 0.033136 0.705214
vt 0.025959 0.628575
vt 0.025663 0.589717
vt 0.019321 0.677833
vt 0.192463 0.676215
vt 0.778378 0.672029
vt 0.084388 0.511316
vt 0.023385 0.509676
vt 0.024874 0.410259
vt 0.501364 0.360326
vt 0.292615 0.013201
vt 0.157751 0.257609
vt 0.305025 0.313375
vt 0.507675 0.653310
vt 0.608429 0.224637
vt 0.167552 0.508667
vt 0.967338 0.518460
vt 0.937757 0.213909
vt 0.591695 0.226894
vt 0.981627 0.633093
vt 0.446385 0.886139
vt 0.437892 0.943408
vt 0.609547 0.219908
vt 0.459305 0.810763
vt 0.679907 0.223732
vt 0.684787 0.235652
vt 0.107612 0.733849
vt 0.168687 0.701495
vt 0.187110 0.679257
vt 0.192365 0.649132
vt 0.140452 0.724767
vt 0.012425 0.676347
vt 0.026831 0.704379
vt 0.030940 0.580778
vt 0.233836 0.149685
vt 0.307681 0.260387
vt 0.458854 0.253546
vt 0.187870 0.626400
vn -0.418300 -0.577000 -0.701500
vn -0.652800 -0.340300 -0.676800
vn 0.517600 -0.239800 -0.821300
vn -0.983700 -0.178800 0.018800
vn -0.848300 -0.141400 -0.510300
vn -0.955900 -0.243900 -0.163400
vn -0.504500 -0.659000 -0.557800
vn -0.805300 -0.543700 0.236400
vn -0.733100 -0.129500 0.667700
vn -0.537500 -0.202200 0.818700
vn -0.408900 -0.617000 0.672400
vn -0.244400 -0.104300 0.964000
vn 0.454200 -0.665300 0.592500
vn 0.936300 -0.214900 0.277500
vn 0.225000 -0.052800 0.972900
vn 0.355100 -0.914700 -0.193000
vn -0.291100 -0.197200 0.936100
vn -0.434800 -0.018300 0.900300
vn 0.439400 -0.157200 0.884400
vn -0.000400 -0.269600 0.963000
vn -0.703700 -0.029800 0.709800
vn -0.962500 -0.144500 0.229700
vn -0.502500 0.153600 0.850800
vn -0.898700 0.090700 0.429100
vn -0.653100 0.610500 -0.447900
vn -0.783700 0.445400 0.432900
vn -0.443100 0.856200 0.265500
vn -0.408300 0.360500 0.838600
vn -0.266700 0.745000 0.611400
vn -0.827700 0.158700 -0.538200
vn -0.465600 -0.828000 -0.312300
vn 0.911900 0.071800 0.404000
vn 0.206300 0.225900 0.952000
vn 0.410800 0.455400 0.789800
vn -0.214800 0.937000 -0.275400
vn 0.744300 0.656300 0.123200
vn 0.450500 0.787700 -0.420200
vn 0.716900 0.343500 -0.606600
vn 0.661700 0.636900 0.395600
vn 0.248300 0.246300 -0.936800
vn 0.080400 0.004100 -0.996700
vn 0.387200 -0.534700 -0.751100
vn 0.390000 -0.145500 0.909200
vn 0.195400 -0.167500 0.966300
vn 0.792300 0.173500 0.584900
vn 0.901700 0.019300 0.431900
vn 0.996900 0.073800 -0.025700
vn 0.996900 0.058200 -0.053400
vn 0.956400 -0.290300 0.031800
vn 0.878300 0.043900 -0.476100
vn 0.742300 -0.654900 -0.141700
vn -0.505200 -0.334600 -0.795500
vn -0.118800 -0.974400 0.191000
vn 0.006300 -0.005800 -0.999900
vn 0.650300 -0.125700 -0.749200
vn 0.282100 0.025400 -0.959000
vn 0.436600 0.569600 -0.696300
vn 0.597800 0.664200 -0.448800
vn 0.073400 0.103900 -0.991900
vn 0.229500 0.746900 -0.624000
vn 0.269300 -0.047100 -0.961900
vn 0.515400 0.021300 -0.856600
vn 0.850100 -0.266600 -0.454000
vn 0.664400 -0.286000 -0.690500
vn 0.102100 -0.440000 -0.892200
vn 0.178600 0.048100 -0.982700
vn 0.113100 -0.699600 -0.705500
vn 0.750700 -0.349300 -0.560700
vn -0.236300 0.482700 0.843200
vn 0.767000 0.362000 0.529700
vn 0.996400 0.082300 -0.017300
vn -0.056300 0.428700 0.901700
vn 0.794500 0.336900 0.505300
vn 0.941400 0.110700 0.318700
vn 0.659400 0.104100 0.744500
vn 0.600400 -0.380200 0.703500
vn 0.980900 0.189000 0.044800
vn 0.771000 -0.128700 -0.623600
vn 0.074600 -0.471400 -0.878700
vn 0.090700 -0.648400 -0.755900
vn -0.664200 -0.569200 -0.484500
vn -0.647200 -0.493800 -0.580700
vn -0.980100 -0.164300 0.111400
vn -0.693000 -0.561300 -0.452500
vn -0.480800 -0.298700 -0.824400
vn -0.112100 0.022600 -0.993400
vn 0.097100 -0.036800 -0.994600
vn -0.211800 0.202200 -0.956200
vn -0.118200 0.390700 -0.912900
vn 0.065700 0.797600 -0.599600
vn -0.154000 0.026900 -0.987700
vn 0.118700 0.121600 -0.985400
vn 0.003400 0.045400 -0.998900
vn -0.112300 -0.440900 -0.890500
vn -0.263600 -0.917500 0.297700
vn -0.059900 -0.976600 -0.206500
vn 0.651400 -0.563700 -0.507700
vn -0.038700 -0.930500 0.364200
vn -0.212100 -0.473700 0.854700
vn 0.102600 -0.738800 0.666100
vn 0.088700 -0.461700 0.882600
vn -0.129100 -0.533900 0.835700
vn 0.292800 -0.347500 0.890800
vn 0.167500 -0.146900 0.974900
vn 0.040700 -0.118700 0.992100
vn 0.335100 -0.340400 0.878500
vn 0.282000 -0.153000 0.947100
vn 0.375100 -0.198200 0.905500
vn 0.546900 -0.102600 0.830900
vn -0.848300 0.159300 0.505000
vn -0.980800 -0.180700 0.073200
vn -0.833200 0.141600 0.534500
vn -0.830600 -0.066700 0.552800
vn -0.825800 -0.345200 0.445900
vn -0.617300 0.001100 0.786700
vn -0.983800 -0.171500 0.053000
vn -0.699800 -0.121300 -0.704000
vn -0.545300 -0.381700 -0.746200
vn -0.977800 -0.151100 -0.145500
vn -0.693500 -0.422000 -0.583900
vn -0.994900 -0.100400 -0.001700
vn -0.620200 -0.419000 0.663200
vn -0.998200 0.053900 -0.026200
vn -0.999800 -0.016300 -0.007100
vn -0.739500 0.472700 0.479100
vn 0.131100 0.773800 0.619700
vn -0.109000 0.057700 0.992300
vn 0.223100 0.950700 0.215200
vn -0.406100 0.884200 0.231000
vn -0.194900 0.901900 0.385400
vn -0.822400 0.517700 0.235700
vn -0.400700 0.691300 0.601200
vn -0.955300 0.282200 0.087500
vn -0.807900 -0.588800 -0.026100
vn -0.737300 0.161000 -0.656100
vn -0.746000 -0.496400 -0.443900
vn 0.279200 -0.000800 -0.960200
vn -0.022100 0.153800 -0.987900
vn 0.822800 -0.034200 -0.567300
vn 0.086300 0.082300 -0.992900
vn 0.973400 -0.214900 0.079500
vn 0.981200 0.137900 0.135000
vn 0.808400 0.166000 -0.564700
vn 0.914600 -0.278300 0.293400
vn 0.949100 -0.287100 -0.129600
vn 0.874800 0.078300 -0.478100
vn 0.270800 0.186900 -0.944300
vn 0.626900 -0.773200 -0.095100
vn 0.875400 -0.483400 0.003800
vn -0.092400 -0.990200 -0.104600
vn -0.010800 -0.591100 0.806500
vn 0.574700 -0.426500 0.698400
vn 0.788100 0.409100 0.459800
vn 0.645300 0.018500 0.763700
vn 0.259600 0.861300 0.436800
vn 0.711900 0.615800 0.337500
vn 0.723900 -0.551800 0.414100
vn 0.235600 -0.533700 0.812200
vn -0.723200 -0.301200 0.621400
vn -0.666200 -0.743500 -0.057800
vn -0.091300 -0.988600 -0.119700
vn -0.225800 -0.485900 0.844300
vn 0.391800 0.090900 0.915500
vn 0.847700 -0.508300 0.151800
vn 0.703900 -0.400200 0.586700
vn 0.772100 -0.173300 0.611400
vn 0.477200 0.313600 0.820900
vn 0.508000 -0.047800 0.860000
vn 0.200400 0.058600 0.977900
vn 0.050800 -0.185700 0.981300
vn -0.086400 0.053700 0.994800
vn 0.238400 0.352100 0.905100
vn -0.180800 -0.140700 0.973400
vn -0.092700 -0.164100 0.982100
vn -0.046500 -0.088900 0.994900
vn -0.186900 -0.097000 0.977600
vn -0.212400 -0.042500 0.976300
vn -0.315500 -0.010500 0.948900
vn -0.422300 0.027100 0.906000
vn -0.354000 0.147900 0.923500
vn -0.399200 -0.109900 0.910200
vn -0.522200 -0.070100 0.849900
vn -0.172900 -0.073700 0.982100
vn -0.497500 -0.184100 0.847700
vn -0.242300 -0.213000 0.946500
vn -0.095800 -0.362400 0.927100
vn 0.791800 -0.001600 0.610700
vn 0.980900 -0.167400 0.099000
vn 0.910800 -0.360900 0.200500
vn 0.727500 -0.380800 -0.570700
vn 0.980400 -0.187300 0.061500
vn 0.792100 -0.286300 -0.539100
vn 0.818200 -0.056300 0.572200
vn 0.067300 0.183600 0.980700
vn 0.709500 -0.427500 0.560200
vn 0.078400 0.142000 0.986800
vn 0.001300 -0.371200 0.928500
vn 0.000400 -0.660600 0.750700
vn -0.684500 -0.259300 0.681300
vn 0.640900 -0.507400 0.576000
vn 0.986600 -0.158100 -0.040400
vn 0.970200 -0.242300 0.004200
vn 0.773600 -0.206400 -0.599100
vn 0.955200 0.053000 -0.291200
vn 0.868000 -0.049700 0.493900
vn 0.087400 -0.215000 0.972700
vn -0.770100 -0.396600 0.499600
vn -0.997000 -0.035500 0.068100
vn -0.733000 0.197000 0.651100
vn -0.734200 0.163600 0.658900
vn -0.821000 0.022400 0.570500
vn -0.990800 0.048100 -0.126500
vn -0.999500 0.017400 -0.026600
vn -0.883400 0.001700 0.468500
vn -0.996300 0.078600 0.034200
vn -0.830000 -0.196500 0.522000
vn -0.464400 -0.128200 0.876300
vn -0.396000 0.108700 0.911700
vn -0.225000 -0.050100 0.973100
vn -0.291600 -0.626100 0.723100
vn -0.266300 -0.963900 0.001000
vn -0.979700 -0.194700 0.048100
vn -0.858700 -0.224800 -0.460500
vn -0.901000 0.059700 -0.429700
vn 0.686700 -0.723000 0.075400
vn 0.311900 -0.708900 -0.632600
vn 0.962500 0.226000 -0.149900
vn 0.915600 -0.248700 0.315700
vn 0.760100 -0.574000 0.304500
vn 0.329100 0.356200 0.874500
vn -0.725900 0.510400 0.461000
vn -0.500700 0.659400 0.560700
vn -0.502800 0.490300 0.711800
vn -0.367900 0.673000 0.641600
vn -0.699300 0.696300 -0.161400
vn -0.783200 0.546400 -0.296500
vn -0.826800 0.438400 -0.352400
vn -0.741000 0.633000 -0.223900
vn -0.943800 0.220900 -0.245600
vn -0.484100 0.831000 -0.273800
vn 0.561400 0.612300 -0.556600
vn 0.836900 0.429100 -0.339700
vn 0.809700 -0.398900 0.430300
vn 0.945500 0.208300 -0.250200
vn 0.784400 -0.131000 -0.606200
vn 0.385900 -0.885500 0.258700
vn 0.320300 -0.599000 0.733800
vn 0.551100 -0.751300 0.363100
vn 0.185300 -0.640900 0.744900
vn 0.083000 -0.807000 0.584700
vn 0.110000 -0.751900 0.649900
vn 0.282700 -0.954200 0.097800
vn 0.641500 -0.485200 -0.594200
vn 0.208000 0.599500 -0.772800
vn 0.531700 0.286700 -0.796900
vn 0.789900 0.336900 -0.512300
vn 0.731400 -0.496700 -0.467200
vn 0.003600 -1.000000 -0.005900
vn 0.765100 -0.565400 -0.308100
vn -0.067900 -0.991100 -0.114100
vn -0.268000 -0.926800 -0.263100
vn -0.870400 -0.341800 0.354300
vn -0.479300 -0.663700 0.574200
vn -0.756800 -0.005800 0.653600
vn -0.296200 0.445400 0.844900
vn 0.359600 -0.341000 0.868600
vn 0.962500 0.204900 -0.177900
vn 0.563400 0.757700 0.329300
vn 0.583400 0.808300 -0.079800
vn 0.342500 0.767100 -0.542400
vn 0.486300 0.860700 -0.150700
vn 0.048600 0.809500 -0.585100
vn 0.369600 0.912100 -0.177400
vn 0.999700 0.024000 0.007700
vn -0.167000 0.827500 -0.535900
vn -0.082700 0.955000 -0.284900
vn -0.203000 0.728200 -0.654600
vn -0.697600 0.564300 -0.441400
vn -0.338400 0.696800 -0.632400
vn 0.407000 0.664600 -0.626500
vn -0.004600 0.671300 -0.741100
vn -0.690000 0.476800 -0.544500
vn -0.979700 0.130400 -0.152100
vn -0.849700 0.420100 -0.318400
vn -0.918600 -0.140400 0.369300
vn -0.209100 -0.578100 0.788700
vn -0.295800 -0.562100 0.772300
vn -0.760300 -0.623900 -0.180600
vn -0.264100 -0.949500 -0.169300
vn -0.752400 -0.589200 0.294400
vn -0.518800 0.369300 -0.771000
vn -0.286100 0.020000 -0.958000
vn -0.269900 -0.435400 -0.858800
vn -0.408600 -0.581200 -0.703700
vn -0.399900 0.051500 -0.915100
vn -0.105200 0.189600 -0.976200
vn -0.372100 -0.080700 -0.924600
vn -0.492900 0.434900 -0.753500
vn -0.339300 0.401300 -0.850800
vn -0.414400 0.880400 -0.230400
vn -0.006000 0.557200 -0.830300
vn -0.201600 0.978800 -0.035300
vn 0.092200 0.676900 -0.730300
vn 0.035900 0.164300 -0.985700
vn -0.019700 0.131900 -0.991100
vn 0.070300 0.040500 -0.996700
vn 0.019100 0.028400 -0.999400
vn 0.468700 -0.218400 -0.855900
vn -0.133400 -0.116300 -0.984200
vn -0.142800 0.084400 -0.986100
vn -0.197200 -0.428500 -0.881700
vn -0.091200 -0.365200 -0.926400
vn -0.054200 -0.034200 -0.997900
vn 0.703500 -0.286800 -0.650300
vn -0.136000 0.042500 -0.989800
vn 0.711100 0.255000 -0.655200
vn 0.703200 -0.559800 -0.438200
vn 0.067300 -0.307300 -0.949200
vn 0.993000 -0.114900 0.024500
vn 0.128300 0.766800 0.628900
vn 0.791800 0.581000 0.188300
vn 0.143100 0.943300 0.299400
vn 0.949600 0.287900 0.124100
vn 0.753100 0.385500 0.533200
vn -0.186600 0.927900 0.322900
vn -0.343800 0.838200 0.423400
vn -0.455800 0.842400 0.287400
vn -0.772200 0.598300 0.213600
vn -0.835200 0.535800 0.123500
vn -0.815000 -0.118500 0.567200
vn -0.766000 0.469200 0.439500
vn -0.077600 0.724400 0.685000
vn -0.994700 0.015000 -0.101500
vn -0.995300 0.008900 -0.096000
vn -0.815300 0.162400 -0.555800
vn -0.968400 -0.242300 -0.059000
vn -0.910100 0.032100 -0.413000
vn -0.832500 0.165600 -0.528800
vn -0.123900 0.173900 -0.976900
vn -0.652700 0.006000 -0.757600
vn -0.675300 -0.174700 -0.716500
vn -0.771200 -0.137800 -0.621500
vn -0.657000 0.012100 -0.753700
vn -0.558200 -0.000700 -0.829700
vn -0.987300 0.130400 -0.090700
vn -0.604800 -0.550500 -0.575400
vn -0.107200 0.380100 -0.918700
vn -0.763000 -0.634100 -0.125200
vn -0.043600 -0.979700 -0.195500
vn -0.010500 -0.992800 -0.119200
vn 0.461200 -0.880900 -0.105800
vn 0.762300 -0.643800 -0.065500
vn 0.615900 -0.425500 0.663000
vn -0.296200 -0.490200 0.819700
vn -0.359200 0.762800 0.537600
vn -0.704300 -0.360500 0.611500
vn -0.838400 -0.541600 -0.059900
vn -0.030000 0.580800 -0.813400
vn 0.128700 0.840600 -0.526100
vn -0.350300 0.859100 0.373100
vn -0.220200 0.972400 -0.077100
vn 0.208400 0.917800 -0.337800
vn 0.514400 0.845500 -0.143300
vn 0.583600 0.658600 0.475000
vn 0.412500 0.910900 -0.001000
vn 0.554100 0.732000 0.396300
vn 0.431600 0.900500 0.051900
vn 0.764200 0.613500 0.199300
vn 0.650800 0.142100 0.745800
vn 0.924600 0.375500 -0.064100
vn 0.670600 0.351300 -0.653300
vn 0.193300 0.116600 -0.974200
vn 0.796400 0.145200 -0.587100
vn 0.957700 0.216300 0.189900
vn 0.761400 0.197200 0.617500
vn 0.580800 0.052400 0.812300
vn 0.360000 0.513100 0.779200
vn 0.664900 0.737100 0.120500
vn 0.917000 -0.083100 -0.390100
vn 0.513000 -0.557400 -0.652800
vn 0.148200 -0.114300 -0.982300
vn -0.077200 -0.896100 -0.437100
vn -0.513100 -0.331700 -0.791600
vn 0.967400 -0.240000 -0.080700
vn 0.512700 -0.849000 0.127900
vn 0.196300 -0.882700 0.426900
vn -0.245600 -0.925000 0.289800
vn -0.689600 -0.723300 0.034600
vn -0.892900 -0.435500 -0.113700
vn -0.655900 -0.334700 0.676500
vn 0.023300 -0.593200 0.804700
vn 0.481300 -0.493300 0.724600
vn 0.669400 0.062900 0.740200
vn 0.289500 -0.121800 0.949400
vn -0.149200 -0.141300 0.978600
vn -0.930100 -0.143100 0.338100
vn -0.383900 0.508800 0.770500
vn -0.169500 -0.787300 0.592800
vn -0.826300 -0.561500 -0.044400
vn -0.742800 -0.629500 0.227800
vn -0.657900 0.689700 -0.302600
vn -0.942000 0.318200 -0.106600
vn -0.798200 0.447700 -0.402900
vn -0.929000 -0.369000 0.028100
vn -0.777700 0.621600 -0.093300
vn 0.317900 -0.590000 0.742200
vn -0.826100 -0.409600 0.387000
vn 0.273800 0.762100 0.586700
vn 0.920400 0.315300 -0.230900
vn 0.954800 -0.286200 0.079700
vn 0.861600 -0.507500 0.011200
vn -0.930900 -0.361200 -0.053100
vn 0.681000 0.729500 0.063000
vn 0.637000 0.293400 0.712800
vn 0.858100 -0.511000 -0.048900
vn 0.505500 -0.818500 -0.273000
vn -0.592100 -0.600700 -0.537200
vn -0.342300 -0.805900 0.483000
vn -0.320600 -0.656800 0.682500
vn 0.172000 0.602700 0.779200
vn 0.450700 0.829800 -0.329100
vn 0.814500 0.529500 -0.237100
vn 0.239800 0.938600 -0.248000
vn -0.418000 0.894200 -0.159900
vn -0.125200 0.913800 -0.386500
vn -0.200800 0.972800 -0.115400
vn 0.328700 0.941300 0.076100
vn -0.628900 0.606200 0.486700
vn -0.526000 -0.732600 0.431900
vn 0.636300 -0.004300 0.771400
vn 0.956400 0.192900 0.219200
vn 0.766900 0.305300 -0.564500
vn 0.830700 -0.521900 -0.193700
vn -0.165200 0.929000 0.331100
vn -0.242300 0.946300 -0.214100
vn 0.562300 -0.034400 0.826200
vn 0.581900 0.219500 0.783000
vn -0.787400 0.276800 0.550800
vn -0.662700 0.612200 0.431200
vn 0.369400 0.625200 0.687500
vn -0.506300 0.836000 0.211400
vn 0.533000 0.839800 0.102500
vn 0.926300 0.322500 0.194600
vn 0.427200 0.807300 -0.407200
vn 0.732700 0.281900 -0.619300
vn -0.750000 0.637700 -0.175800
vn -0.555600 0.495500 -0.667700
vn 0.796500 -0.171000 -0.579900
vn 0.899200 -0.431300 -0.073800
vn 0.468400 -0.455400 -0.757100
vn -0.661000 -0.168000 -0.731300
vn 0.625000 -0.735200 0.262300
vn 0.633900 -0.761300 0.136300
vn -0.313700 -0.265600 0.911600
vn -0.079600 -0.016600 0.996700
vn -0.517300 -0.626600 0.582800
vn 0.003100 -0.504600 0.863300
vn 0.034200 0.047900 0.998300
vn -0.496800 0.230900 0.836500
vn -0.499500 -0.020500 0.866100
vn -0.621300 0.523400 0.583100
vn -0.453200 0.645900 0.614400
vn -0.265100 0.189100 0.945500
vn -0.193300 0.161400 0.967700
vn 0.766800 -0.234400 0.597500
vn -0.441500 -0.305900 0.843500
vn 0.616800 -0.344300 0.707800
vn 0.928200 -0.336400 0.158700
vn 0.922500 -0.280700 0.265000
vn 0.766000 0.056300 -0.640400
vn -0.873300 -0.090800 -0.478600
vn -0.644600 0.522300 -0.558300
vn -0.752400 -0.197200 0.628400
vn -0.671700 -0.339300 -0.658600
vn 0.170100 -0.980100 -0.102400
vn 0.028400 -0.874900 0.483500
vn 0.379800 -0.660300 0.647800
vn -0.940000 -0.232200 0.249800
vn -0.282200 -0.688000 0.668600
vn -0.314800 -0.841700 0.438600
vn 0.029200 -0.845700 0.532800
vn -0.387200 0.504200 0.771900
vn -0.937100 -0.188500 0.293700
vn 0.041700 -0.896700 0.440600
vn -0.955200 -0.255500 0.149500
vn -0.365800 -0.930600 -0.007500
vn -0.979300 -0.153500 0.131900
vn -0.393000 -0.814000 -0.427700
vn 0.045200 -0.997200 -0.058900
vn 0.328000 -0.821200 0.467000
vn 0.296200 -0.542100 0.786300
vn -0.131400 -0.860700 0.491800
vn 0.490500 0.474300 0.731000
vn 0.929300 -0.155700 -0.334800
vn 0.487600 -0.835200 -0.254200
vn 0.929300 -0.232200 -0.286900
vn 0.294400 -0.752100 0.589600
vn 0.324200 -0.770700 -0.548400
vn 0.006000 -0.849900 -0.526800
vn -0.954600 -0.081300 0.286300
vn -0.529400 0.800300 0.281300
vn -0.687400 0.610400 -0.393400
vn -0.642700 0.742900 -0.187000
vn 0.005100 0.974400 0.224500
vn -0.393900 -0.580800 0.712400
vn 0.085600 0.533500 0.841500
vn 0.689500 0.487300 0.535800
vn 0.625300 0.780300 0.008900
vn -0.327100 0.173700 0.928900
vn 0.986100 -0.024900 -0.164000
vn 0.600600 -0.663000 -0.446900
vn 0.869700 0.487500 0.076700
vn 0.931700 0.346300 0.109200
vn 0.994900 0.086300 0.051000
vn 0.305700 0.605900 0.734500
vn 0.631600 0.754100 0.179800
vn -0.005200 -0.364300 -0.931200
vn 0.327400 0.887100 0.325300
vn -0.727900 0.038300 0.684500
vn -0.049500 0.041100 0.997900
vn 0.788600 0.230000 0.570300
s 1
f 5/1/1 10/2/2 25/3/3
f 18/4/4 28/5/5 10/2/2
f 14/6/6 5/1/1 12/7/7
f 14/6/6 6/8/8 18/4/4
f 14/6/6 18/4/4 10/2/2
f 18/4/4 6/8/8 11/9/9
f 11/9/9 6/8/8 32/10/10
f 6/8/8 20/11/11 32/10/10
f 32/10/10 20/11/11 26/12/12
f 34/13/13 33/14/14 35/15/15
f 34/13/13 20/11/11 19/16/16
f 34/13/13 35/15/15 26/12/12
f 26/12/12 24/17/17 17/18/18
f 24/17/17 36/19/19 30/20/20
f 17/18/18 32/10/10 26/12/12
f 17/18/18 11/9/9 32/10/10
f 17/18/18 27/21/21 11/9/9
f 18/4/4 29/22/22 28/5/5
f 29/22/22 18/4/4 11/9/9
f 27/21/21 7/23/23 15/24/24
f 9/25/25 16/26/26 13/27/27
f 16/26/26 8/28/28 3/29/29
f 15/24/24 7/23/23 8/28/28
f 16/26/26 9/25/25 4/30/30
f 4/30/30 28/5/5 29/22/22
f 1/31/31 14/6/6 12/7/7
f 14/6/6 1/31/31 6/8/8
f 19/16/16 20/11/11 6/8/8
f 35/15/15 36/19/19 24/17/17
f 30/20/20 36/19/19 37/32/32
f 30/20/20 21/33/33 17/18/18
f 7/23/23 27/21/21 17/18/18
f 7/23/23 21/33/33 23/34/34
f 2/35/35 38/36/36 41/37/37
f 40/38/38 9/39/25 2/35/35
f 2/40/35 13/27/27 38/41/36
f 3/29/29 38/41/36 13/27/27
f 3/29/29 39/42/39 38/41/36
f 3/29/29 8/28/28 23/34/34
f 9/39/25 40/38/38 42/43/40
f 42/43/40 31/44/41 28/5/5
f 31/44/41 25/3/3 10/2/2
f 33/14/14 37/32/32 35/15/15
f 37/32/32 36/19/19 35/15/15
f 25/45/3 31/46/41 40/47/38
f 22/48/42 25/49/3 33/50/14
f 22/48/42 34/51/13 19/52/16
f 1/53/31 12/54/7 5/55/1
f 44/56/43 337/57/44 56/58/45
f 44/56/43 56/58/45 174/59/46
f 56/58/45 206/60/47 251/61/48
f 174/62/46 251/63/48 208/64/49
f 173/65/50 59/66/51 208/67/49
f 59/66/51 67/68/52 212/69/53
f 67/68/52 59/66/51 385/70/54
f 59/66/51 47/71/55 381/72/56
f 381/72/56 51/73/57 63/74/58
f 381/72/56 420/75/59 334/76/60
f 420/75/59 381/72/56 47/71/55
f 332/77/61 47/71/55 169/78/62
f 47/71/55 59/66/51 173/65/50
f 173/79/50 55/80/63 43/81/64
f 43/81/64 330/82/65 349/83/66
f 43/81/64 55/80/63 336/84/67
f 336/84/67 55/80/63 144/85/68
f 144/85/68 55/80/63 206/86/47
f 206/86/47 55/80/63 173/79/50
f 56/58/45 339/87/69 145/88/70
f 145/88/70 239/89/71 206/60/47
f 145/88/70 341/90/72 153/91/73
f 507/92/74 508/93/75 157/94/76
f 153/91/73 243/95/77 239/89/71
f 152/96/78 144/85/68 239/97/71
f 340/98/79 338/99/80 144/85/68
f 148/100/81 154/101/82 241/102/83
f 154/101/82 148/100/81 338/99/80
f 148/100/81 123/103/84 336/84/67
f 111/104/85 330/82/65 336/84/67
f 111/104/85 179/105/86 349/83/66
f 115/106/87 332/77/61 349/107/66
f 332/77/61 115/106/87 406/108/88
f 406/108/88 410/109/89 119/110/90
f 410/109/89 265/111/91 116/112/92
f 406/108/88 115/106/87 265/111/91
f 115/106/87 179/113/86 277/114/93
f 179/105/86 111/104/85 263/115/94
f 123/103/84 279/116/95 269/117/96
f 263/115/94 111/104/85 123/103/84
f 263/115/94 269/117/96 124/118/97
f 124/118/97 269/117/96 279/116/95
f 270/119/98 279/120/95 125/121/99
f 279/120/95 270/119/98 126/122/100
f 270/119/98 264/123/101 114/124/102
f 125/121/99 113/125/103 264/123/101
f 113/125/103 177/126/104 276/127/105
f 331/128/106 348/129/107 177/126/104
f 177/130/104 348/131/107 333/132/108
f 333/132/108 348/131/107 170/133/109
f 44/56/43 331/128/106 337/57/44
f 331/128/106 44/56/43 170/134/109
f 337/57/44 125/121/99 150/135/110
f 337/57/44 331/128/106 113/125/103
f 125/121/99 279/120/95 150/135/110
f 279/120/95 241/136/83 150/135/110
f 241/136/83 244/137/111 150/135/110
f 150/135/110 244/137/111 155/138/112
f 501/139/113 159/140/114 511/141/115
f 155/138/112 244/137/111 504/142/116
f 244/143/111 241/102/83 154/101/82
f 502/144/117 158/145/118 246/146/119
f 162/147/120 248/148/121 246/146/119
f 248/149/121 163/150/122 159/140/114
f 495/151/123 250/152/124 165/153/125
f 165/153/125 347/154/126 498/155/127
f 481/156/128 478/157/129 395/158/130
f 395/158/130 450/159/131 168/160/132
f 478/157/129 479/161/133 450/159/131
f 168/160/132 450/159/131 408/162/134
f 494/163/135 164/164/136 250/165/124
f 494/163/135 162/166/120 344/167/137
f 162/147/120 158/145/118 342/168/138
f 344/169/137 342/168/138 156/170/139
f 506/171/140 340/98/79 152/96/78
f 157/94/76 245/172/141 505/173/142
f 505/174/142 503/175/143 152/96/78
f 245/176/141 247/177/144 160/178/145
f 500/179/146 497/180/147 344/167/137
f 477/181/148 464/182/149 456/183/150
f 157/94/76 345/184/151 161/185/152
f 247/186/144 245/172/141 157/94/76
f 347/154/126 460/187/153 499/188/154
f 481/156/128 455/189/155 461/190/156
f 166/191/157 465/192/158 456/183/150
f 465/192/158 167/193/159 408/194/134
f 408/162/134 450/159/131 479/161/133
f 483/195/160 482/196/161 456/183/150
f 345/184/151 157/94/76 343/197/162
f 509/198/163 508/93/75 153/91/73
f 509/198/163 153/91/73 341/90/72
f 511/141/115 159/140/114 343/197/162
f 163/150/122 345/184/151 343/197/162
f 502/144/117 154/101/82 340/98/79
f 339/87/69 337/57/44 150/135/110
f 339/87/69 341/90/72 145/88/70
f 339/87/69 150/135/110 155/138/112
f 337/57/44 339/87/69 56/58/45
f 241/102/83 279/116/95 123/103/84
f 60/199/164 380/200/165 48/201/166
f 48/201/166 170/133/109 174/62/46
f 380/200/165 335/202/167 419/203/168
f 419/203/168 333/132/108 48/201/166
f 405/204/169 117/205/170 333/132/108
f 409/206/171 405/204/169 121/207/172
f 409/206/171 118/208/173 266/209/174
f 266/209/174 117/205/170 405/204/169
f 276/210/105 177/130/104 117/205/170
f 266/209/174 118/208/173 178/211/175
f 178/211/175 118/208/173 305/212/176
f 404/213/177 118/214/173 409/215/171
f 418/216/178 305/217/176 118/214/173
f 379/218/179 418/216/178 307/219/180
f 379/218/179 49/220/181 305/217/176
f 49/221/181 171/222/182 314/223/183
f 45/224/184 309/225/185 303/226/186
f 45/224/184 303/226/186 314/227/183
f 303/226/186 114/124/102 178/228/175
f 114/124/102 264/123/101 276/127/105
f 309/225/185 151/229/187 126/122/100
f 126/122/100 114/124/102 303/226/186
f 151/229/187 242/230/188 230/231/189
f 230/232/189 242/233/188 149/234/190
f 242/233/188 254/235/191 183/236/192
f 184/237/193 151/229/187 313/238/194
f 184/237/193 254/239/191 242/230/188
f 254/239/191 184/237/193 188/240/195
f 317/241/196 184/237/193 313/238/194
f 317/241/196 319/242/197 188/240/195
f 321/243/198 319/242/197 185/244/199
f 321/243/198 192/245/200 188/240/195
f 192/245/200 258/246/201 256/247/202
f 256/248/202 258/249/201 191/250/203
f 191/251/203 258/252/201 260/253/204
f 258/254/201 192/255/200 196/256/205
f 323/257/206 321/258/198 189/259/207
f 323/260/206 196/256/205 192/255/200
f 189/261/207 321/243/198 185/244/199
f 189/261/207 185/244/199 255/262/208
f 255/262/208 185/244/199 181/263/209
f 319/242/197 317/241/196 181/263/209
f 146/264/210 313/238/194 57/265/211
f 181/263/209 317/241/196 313/238/194
f 181/263/209 146/264/210 240/266/212
f 146/264/210 57/265/211 207/267/213
f 57/265/211 175/268/214 252/269/215
f 45/224/184 57/265/211 309/225/185
f 45/224/184 171/270/182 175/268/214
f 171/222/182 49/221/181 61/271/216
f 383/272/217 379/218/179 53/273/218
f 383/272/217 61/274/216 49/220/181
f 383/272/217 397/275/219 95/276/220
f 95/276/220 222/277/221 209/278/222
f 209/279/222 252/280/215 175/281/214
f 209/282/222 62/283/223 176/284/224
f 62/285/223 209/286/222 222/287/221
f 222/287/221 224/288/225 100/289/226
f 512/290/227 103/291/228 519/292/229
f 224/293/225 222/277/221 95/276/220
f 95/276/220 397/275/219 399/294/230
f 397/275/219 97/295/231 101/296/232
f 383/272/217 53/273/218 65/297/233
f 65/297/233 97/295/231 397/275/219
f 65/297/233 328/298/234 211/299/235
f 211/299/235 223/300/236 97/295/231
f 223/300/236 225/301/237 101/296/232
f 514/302/238 225/301/237 521/303/239
f 514/302/238 513/304/240 101/296/232
f 513/304/240 515/305/241 399/294/230
f 401/306/242 103/291/228 512/290/227
f 107/307/243 403/308/244 411/309/245
f 403/308/244 107/307/243 103/291/228
f 519/310/229 517/311/246 224/288/225
f 103/312/228 107/313/243 228/314/247
f 107/313/243 411/315/245 281/316/248
f 107/313/243 281/316/248 294/317/249
f 281/316/248 369/318/250 371/319/251
f 369/318/250 281/316/248 372/320/252
f 281/316/248 411/315/245 429/321/253
f 411/309/245 283/322/254 373/323/255
f 359/324/256 423/325/257 429/326/253
f 423/327/257 357/328/258 372/320/252
f 427/329/259 360/330/260 365/331/261
f 427/332/259 365/333/261 357/328/258
f 365/333/261 362/334/262 356/335/263
f 362/336/262 425/337/264 426/338/265
f 425/337/264 360/330/260 361/339/266
f 362/336/262 365/331/261 360/330/260
f 361/340/266 364/341/267 363/342/268
f 364/341/267 361/340/266 360/343/260
f 364/344/267 427/345/259 423/325/257
f 359/324/256 358/346/269 363/347/268
f 376/348/270 375/349/271 358/346/269
f 359/324/256 373/323/255 376/348/270
f 373/323/255 283/322/254 368/350/272
f 287/351/273 413/352/274 375/349/271
f 375/349/271 376/348/270 368/350/272
f 368/350/272 370/353/275 297/354/276
f 283/322/254 295/355/277 370/353/275
f 370/353/275 295/355/277 282/356/278
f 282/356/278 295/355/277 229/357/279
f 295/355/277 283/322/254 109/358/280
f 109/358/280 283/322/254 411/309/245
f 109/358/280 403/308/244 401/306/242
f 105/359/281 227/360/282 229/357/279
f 227/360/282 106/361/283 110/362/284
f 428/363/285 108/364/286 280/365/287
f 520/366/288 518/367/289 400/368/290
f 98/369/291 396/370/292 398/371/293
f 396/370/292 96/372/294 100/289/226
f 382/373/295 62/285/223 96/372/294
f 382/373/295 378/374/296 50/375/297
f 382/373/295 66/376/298 54/377/299
f 66/376/298 382/373/295 396/370/292
f 98/369/291 223/300/236 211/299/235
f 211/299/235 328/298/234 310/378/300
f 310/378/300 306/379/301 54/377/299
f 310/378/300 127/380/302 120/381/303
f 407/382/304 417/383/305 306/379/301
f 378/374/296 54/377/299 306/379/301
f 417/383/305 304/384/306 50/375/297
f 407/382/304 410/385/89 116/386/92
f 116/386/92 304/384/306 417/383/305
f 304/387/306 116/112/92 180/388/307
f 265/111/91 277/114/93 180/388/307
f 277/389/93 263/115/94 112/390/308
f 112/390/308 302/391/309 315/392/310
f 112/390/308 124/118/97 308/393/311
f 308/393/311 124/118/97 149/234/190
f 312/394/312 149/234/190 183/236/192
f 316/395/313 183/236/192 187/396/314
f 187/396/314 183/236/192 254/235/191
f 187/396/314 191/250/203 320/397/315
f 320/398/315 191/251/203 195/399/316
f 195/399/316 199/400/317 324/401/318
f 195/399/316 260/253/204 467/402/319
f 203/403/320 452/404/321 447/405/322
f 492/406/323 467/407/319 200/408/324
f 489/409/325 453/410/326 447/405/322
f 489/409/325 488/411/327 448/412/328
f 491/413/329 448/412/328 488/411/327
f 193/414/330 323/260/206 189/259/207
f 193/414/330 197/415/331 325/416/332
f 261/417/333 259/418/334 194/419/335
f 261/417/333 197/415/331 193/414/330
f 193/414/330 189/259/207 257/420/336
f 190/421/337 194/419/335 259/418/334
f 194/419/335 190/421/337 320/398/315
f 186/422/338 318/423/339 320/397/315
f 186/422/338 182/424/340 316/395/313
f 147/425/341 312/394/312 316/395/313
f 147/425/341 58/426/342 308/393/311
f 46/427/343 302/391/309 308/393/311
f 46/427/343 172/428/344 315/392/310
f 50/429/297 304/387/306 315/430/310
f 172/431/344 176/284/224 62/283/223
f 46/427/343 58/426/342 176/432/224
f 207/267/213 252/433/215 176/432/224
f 147/425/341 240/266/212 207/267/213
f 182/424/340 253/434/345 240/266/212
f 182/424/340 186/422/338 255/262/208
f 190/435/337 257/436/336 255/262/208
f 198/437/346 261/417/333 194/419/335
f 198/437/346 194/419/335 322/438/347
f 486/181/348 490/439/349 454/440/350
f 485/195/351 446/194/352 454/440/350
f 446/194/352 202/193/353 326/192/354
f 202/441/353 446/442/352 452/404/321
f 485/443/351 199/444/317 467/407/319
f 326/445/354 327/446/355 201/447/356
f 326/445/354 202/441/353 203/403/320
f 467/407/319 260/448/204 196/256/205
f 327/446/355 453/410/326 448/412/328
f 201/447/356 448/412/328 449/449/357
f 449/182/357 454/440/350 326/192/354
f 491/413/329 486/450/348 449/449/357
f 267/451/358 119/452/90 410/385/89
f 267/451/358 410/385/89 407/382/304
f 120/381/303 127/380/302 271/453/359
f 127/380/302 459/454/360 131/455/361
f 131/455/361 273/456/362 271/453/359
f 132/457/363 231/458/364 128/459/365
f 132/460/363 128/461/365 271/453/359
f 271/453/359 128/461/365 119/452/90
f 128/462/365 350/463/366 329/464/367
f 329/464/367 334/76/60 119/110/90
f 329/464/367 63/74/58 51/73/57
f 210/465/368 350/463/366 64/466/369
f 63/74/58 329/464/367 350/463/366
f 213/467/370 69/468/371 63/74/58
f 69/468/371 387/469/372 385/70/54
f 387/469/372 69/468/371 434/470/373
f 69/468/371 213/467/370 437/471/374
f 213/467/370 70/472/375 435/473/376
f 435/473/376 74/474/377 215/475/378
f 73/476/379 434/470/373 437/471/374
f 73/476/379 389/477/380 439/478/381
f 389/477/380 71/479/382 433/480/383
f 391/481/384 75/482/385 71/479/382
f 75/483/385 79/484/386 216/485/387
f 214/486/388 71/479/382 75/482/385
f 214/486/388 438/487/389 433/480/383
f 438/487/389 212/69/53 67/68/52
f 433/480/383 67/68/52 387/469/372
f 436/488/390 68/489/391 212/490/53
f 68/489/391 384/491/392 60/199/164
f 60/199/164 208/64/49 212/490/53
f 60/199/164 384/491/392 380/200/165
f 380/200/165 384/491/392 52/492/393
f 52/492/393 384/491/392 64/466/369
f 384/491/392 68/489/391 386/493/394
f 386/493/394 70/472/375 64/466/369
f 386/493/394 440/494/395 435/473/376
f 386/493/394 68/489/391 436/488/390
f 436/488/390 72/495/396 388/496/397
f 72/495/396 436/488/390 438/497/389
f 80/498/398 442/499/399 76/500/400
f 392/501/401 390/502/402 444/503/403
f 200/408/324 196/256/205 323/260/206
f 76/500/400 442/499/399 444/503/403
f 84/504/404 394/505/405 392/506/401
f 441/507/406 445/508/407 442/509/399
f 80/510/398 392/511/401 443/512/408
f 81/513/409 83/514/410 393/515/411
f 81/513/409 393/515/411 391/516/384
f 79/484/386 393/515/411 83/514/410
f 393/515/411 79/484/386 75/483/385
f 83/514/410 84/504/404 80/498/398
f 394/505/405 84/504/404 88/517/412
f 85/518/413 83/519/410 81/520/409
f 85/518/413 89/521/414 87/522/415
f 87/523/415 88/517/412 84/504/404
f 87/524/415 91/525/416 92/526/417
f 93/527/418 221/528/419 91/529/416
f 91/529/416 87/530/415 89/531/414
f 89/531/414 220/532/420 221/528/419
f 220/533/420 89/521/414 85/518/413
f 85/518/413 81/520/409 218/534/421
f 81/520/409 77/535/422 217/536/423
f 77/537/422 73/476/379 215/475/378
f 391/481/384 389/477/380 73/476/379
f 74/474/377 78/538/424 217/539/423
f 78/540/424 82/541/425 218/534/421
f 82/541/425 86/542/426 219/543/427
f 90/544/428 220/533/420 219/543/427
f 90/545/428 94/546/429 221/528/419
f 92/526/417 91/525/416 221/547/419
f 90/545/428 88/548/412 92/549/417
f 86/542/426 394/550/405 88/551/412
f 86/542/426 82/541/425 392/501/401
f 388/496/397 390/552/402 78/538/424
f 74/474/377 435/473/376 440/494/395
f 70/472/375 213/467/370 210/465/368
f 64/466/369 350/463/366 52/492/393
f 231/553/364 350/463/366 128/462/365
f 231/553/364 121/207/172 335/202/167
f 52/492/393 335/202/167 380/200/165
f 350/463/366 231/553/364 335/202/167
f 121/207/172 405/204/169 419/203/168
f 121/554/172 231/458/364 130/555/430
f 130/555/430 231/458/364 233/556/431
f 233/557/431 140/558/432 236/559/433
f 233/556/431 231/458/364 132/457/363
f 140/560/432 132/460/363 273/456/362
f 131/455/361 137/561/434 275/562/435
f 138/563/436 143/564/437 470/565/438
f 469/42/439 136/566/440 468/41/441
f 470/565/438 143/564/437 136/566/440
f 235/567/442 468/41/441 136/566/440
f 136/566/440 143/564/437 238/568/443
f 135/569/444 468/41/441 235/567/442
f 235/567/442 238/568/443 142/570/445
f 135/571/444 472/572/446 468/573/441
f 135/571/444 142/574/445 471/575/447
f 430/576/448 262/577/449 205/578/450
f 430/576/448 205/578/450 278/579/451
f 140/558/432 275/580/435 278/579/451
f 262/577/449 139/581/452 236/559/433
f 236/559/433 140/558/432 205/578/450
f 236/559/433 139/581/452 134/582/453
f 458/13/454 139/581/452 457/14/455
f 274/583/456 272/584/457 134/585/453
f 274/16/456 134/582/453 139/581/452
f 134/585/453 272/584/457 268/586/458
f 272/584/457 133/587/459 268/586/458
f 268/586/458 133/587/459 129/588/460
f 129/588/460 133/587/459 234/589/461
f 274/583/456 133/587/459 272/584/457
f 234/590/461 232/591/462 129/588/460
f 129/588/460 232/591/462 307/219/180
f 307/219/180 232/591/462 311/592/463
f 311/592/463 232/591/462 328/298/234
f 232/591/462 459/454/360 328/298/234
f 459/454/360 127/380/302 310/378/300
f 459/454/360 232/591/462 131/455/361
f 232/591/462 234/589/461 137/561/434
f 311/592/463 328/298/234 53/273/218
f 53/273/218 328/298/234 65/297/233
f 311/592/463 53/273/218 307/219/180
f 53/273/218 379/218/179 307/219/180
f 307/219/180 122/593/464 129/588/460
f 122/593/464 268/586/458 129/588/460
f 268/586/458 409/215/171 121/554/172
f 122/593/464 404/213/177 409/215/171
f 122/593/464 307/219/180 418/216/178
f 121/554/172 130/555/430 268/586/458
f 130/555/430 134/585/453 268/586/458
f 134/585/453 130/555/430 233/556/431
f 134/582/453 233/557/431 236/559/433
f 139/581/452 204/594/465 457/14/455
f 204/594/465 473/32/466 457/14/455
f 473/32/466 204/594/465 431/595/467
f 262/577/449 430/576/448 432/596/468
f 204/594/465 139/581/452 262/577/449
f 204/594/465 262/577/449 432/596/468
f 431/595/467 432/596/468 237/597/469
f 432/596/468 430/576/448 141/598/470
f 141/598/470 430/576/448 476/599/471
f 141/598/470 475/600/472 471/575/447
f 238/568/443 237/597/469 141/598/470
f 237/597/469 238/568/443 143/564/437
f 431/595/467 138/563/436 474/601/473
f 420/75/59 406/108/88 119/110/90
f 98/369/291 102/602/474 225/301/237
f 518/367/289 516/603/475 104/604/476
f 516/603/475 100/289/226 224/288/225
f 226/605/477 228/314/247 108/364/286
f 228/314/247 294/317/249 280/365/287
f 402/606/478 366/607/479 284/608/480
f 293/609/481 352/610/482 412/611/483
f 280/365/287 294/317/249 371/319/251
f 296/612/484 284/608/480 366/607/479
f 416/613/485 284/608/480 288/614/486
f 414/615/487 288/614/486 351/616/488
f 288/614/486 284/608/480 296/612/484
f 298/617/489 296/612/484 285/618/490
f 296/612/484 371/319/251 369/318/250
f 285/618/490 374/619/491 413/620/274
f 374/619/491 377/621/492 356/335/263
f 374/619/491 285/618/490 369/318/250
f 377/621/492 372/320/252 357/328/258
f 424/622/493 413/620/274 374/619/491
f 424/623/493 358/346/269 375/349/271
f 424/623/493 426/624/265 363/347/268
f 356/335/263 362/334/262 426/625/265
f 363/342/268 426/626/265 425/627/264
f 413/620/274 415/628/494 289/629/495
f 422/630/496 292/631/497 354/632/498
f 354/633/498 289/629/495 415/628/494
f 300/634/499 354/632/498 292/631/497
f 300/635/499 298/617/489 289/629/495
f 300/634/499 293/636/481 351/637/488
f 351/616/488 288/614/486 298/617/489
f 282/356/278 421/638/500 402/606/478
f 421/638/500 280/365/287 366/607/479
f 352/639/482 290/640/501 414/615/487
f 367/641/502 402/606/478 416/613/485
f 110/362/284 428/363/285 421/638/500
f 106/361/283 400/368/290 428/363/285
f 286/642/503 416/613/485 414/615/487
f 351/637/488 293/636/481 412/643/483
f 297/354/276 370/353/275 367/641/502
f 297/354/276 286/642/503 290/640/501
f 299/644/504 290/640/501 352/645/482
f 301/646/505 293/636/481 300/634/499
f 301/647/505 355/648/506 352/649/482
f 353/650/507 292/651/497 422/652/496
f 301/646/505 300/634/499 292/631/497
f 353/650/507 355/648/506 301/647/505
f 291/653/508 299/644/504 355/654/506
f 287/351/273 297/354/276 299/644/504
f 291/653/508 415/655/494 413/352/274
f 415/655/494 291/653/508 353/656/507
f 57/265/211 313/238/194 309/225/185
f 309/225/185 313/238/194 151/229/187
f 72/495/396 214/657/388 216/658/387
f 72/495/396 76/659/400 390/552/402
f 79/484/386 80/498/398 76/500/400
f 390/502/402 392/501/401 82/541/425
f 443/660/408 462/661/509 445/508/407
f 444/662/403 462/661/509 443/660/408
f 444/662/403 442/509/399 445/508/407
f 447/405/322 453/410/326 327/446/355
f 249/663/510 463/664/511 500/179/146
f 477/665/148 463/666/511 249/663/510
f 461/190/156 166/667/157 451/668/512
f 480/669/513 249/663/510 460/187/153
f 499/188/154 496/670/514 247/671/144
f 455/189/155 466/672/515 166/667/157
f 465/673/158 166/667/157 466/672/515
f 465/673/158 466/672/515 168/160/132
f 455/189/155 395/158/130 168/160/132
f 464/674/149 451/668/512 166/667/157
f 400/368/290 104/604/476 108/364/286
f 400/368/290 106/361/283 521/303/239
f 66/376/298 211/299/235 310/378/300
f 267/451/358 120/381/303 271/453/359
f 267/451/358 271/453/359 119/452/90
f 278/675/451 473/676/466 469/677/439
f 451/668/512 480/669/513 484/678/516
f 464/674/149 477/665/148 480/669/513
f 164/679/136 346/680/517 482/196/161
f 483/681/160 479/161/133 250/152/124
f 347/154/126 481/156/128 484/678/516
f 463/682/511 477/181/148 482/196/161
f 165/153/125 250/152/124 479/161/133
f 347/154/126 165/153/125 478/157/129
f 261/417/333 198/683/346 486/450/348
f 446/442/352 485/443/351 492/406/323
f 199/679/317 485/195/351 490/439/349
f 198/682/346 324/680/318 490/439/349
f 491/413/329 488/411/327 197/415/331
f 325/416/332 197/415/331 488/411/327
f 325/416/332 489/409/325 487/684/518
f 452/404/321 492/406/323 487/684/518
f 460/187/153 249/663/510 496/670/514
f 496/670/514 500/179/146 160/685/145
f 498/155/127 499/188/154 161/686/152
f 463/664/511 346/687/517 497/180/147
f 164/164/136 494/163/135 497/180/147
f 162/166/120 494/163/135 495/688/123
f 163/689/122 493/690/519 498/155/127
f 248/691/121 495/151/123 493/690/519
f 68/489/391 60/199/164 212/490/53
f 208/67/49 59/66/51 212/69/53
f 387/469/372 67/68/52 385/70/54
f 275/692/435 458/693/454 457/694/455
f 275/692/435 137/695/434 133/696/459
f 234/697/461 133/696/459 137/695/434
f 458/693/454 275/692/435 274/698/456
f 158/145/118 502/144/117 506/171/140
f 245/176/141 156/170/139 503/175/143
f 506/171/140 503/175/143 156/170/139
f 154/101/82 502/144/117 504/699/116
f 159/140/114 501/139/113 504/142/116
f 341/90/72 511/141/115 510/700/520
f 343/197/162 509/198/163 510/700/520
f 343/197/162 157/94/76 508/93/75
f 153/91/73 508/93/75 507/92/74
f 243/95/77 507/92/74 505/173/142
f 501/139/113 511/141/115 341/90/72
f 515/305/241 512/290/227 99/701/521
f 105/359/281 401/306/242 515/305/241
f 227/360/282 105/359/281 513/304/240
f 104/604/476 516/603/475 517/311/246
f 398/371/293 100/289/226 516/603/475
f 226/605/477 517/311/246 519/310/229
f 99/701/521 512/290/227 519/292/229
f 102/602/474 520/366/288 521/303/239
f 102/602/474 398/371/293 518/367/289
f 514/302/238 521/303/239 106/361/283
f 94/702/429 92/526/417 221/547/419
f 22/703/42 5/1/1 25/3/3
f 5/1/1 14/6/6 10/2/2
f 20/11/11 34/13/13 26/12/12
f 27/21/21 29/22/22 11/9/9
f 29/22/22 27/21/21 15/24/24
f 2/40/35 9/25/25 13/27/27
f 13/27/27 16/26/26 3/29/29
f 16/26/26 15/24/24 8/28/28
f 15/24/24 16/26/26 4/30/30
f 15/24/24 4/30/30 29/22/22
f 1/31/31 19/16/16 6/8/8
f 26/12/12 35/15/15 24/17/17
f 21/33/33 30/20/20 37/32/32
f 24/17/17 30/20/20 17/18/18
f 21/33/33 7/23/23 17/18/18
f 8/28/28 7/23/23 23/34/34
f 41/37/37 40/38/38 2/35/35
f 39/42/39 3/29/29 23/34/34
f 4/30/30 9/39/25 42/43/40
f 4/30/30 42/43/40 28/5/5
f 28/5/5 31/44/41 10/2/2
f 41/704/37 38/705/36 40/47/38
f 39/706/39 23/707/34 37/708/32
f 37/708/32 33/709/14 25/45/3
f 23/707/34 21/710/33 37/708/32
f 40/47/38 38/705/36 39/706/39
f 31/46/41 42/711/40 40/47/38
f 37/708/32 25/45/3 39/706/39
f 40/47/38 39/706/39 25/45/3
f 34/51/13 22/48/42 33/50/14
f 5/55/1 22/48/42 19/52/16
f 19/52/16 1/53/31 5/55/1
f 170/134/109 44/56/43 174/59/46
f 174/59/46 56/58/45 251/61/48
f 60/199/164 174/62/46 208/64/49
f 251/712/48 173/65/50 208/67/49
f 385/70/54 59/66/51 381/72/56
f 385/70/54 381/72/56 63/74/58
f 51/73/57 381/72/56 334/76/60
f 332/77/61 420/75/59 47/71/55
f 349/107/66 332/77/61 169/78/62
f 169/78/62 47/71/55 173/65/50
f 169/713/62 173/79/50 43/81/64
f 169/713/62 43/81/64 349/83/66
f 330/82/65 43/81/64 336/84/67
f 338/99/80 336/84/67 144/85/68
f 239/97/71 144/85/68 206/86/47
f 251/714/48 206/86/47 173/79/50
f 56/58/45 145/88/70 206/60/47
f 145/88/70 153/91/73 239/89/71
f 243/715/77 152/96/78 239/97/71
f 152/96/78 340/98/79 144/85/68
f 340/98/79 154/101/82 338/99/80
f 338/99/80 148/100/81 336/84/67
f 123/103/84 111/104/85 336/84/67
f 330/82/65 111/104/85 349/83/66
f 179/113/86 115/106/87 349/107/66
f 420/75/59 332/77/61 406/108/88
f 410/109/89 406/108/88 265/111/91
f 265/111/91 115/106/87 277/114/93
f 277/389/93 179/105/86 263/115/94
f 269/117/96 263/115/94 123/103/84
f 112/390/308 263/115/94 124/118/97
f 230/232/189 124/118/97 279/116/95
f 230/231/189 279/120/95 126/122/100
f 126/122/100 270/119/98 114/124/102
f 270/119/98 125/121/99 264/123/101
f 264/123/101 113/125/103 276/127/105
f 113/125/103 331/128/106 177/126/104
f 117/205/170 177/130/104 333/132/108
f 48/201/166 333/132/108 170/133/109
f 348/129/107 331/128/106 170/134/109
f 125/121/99 337/57/44 113/125/103
f 501/139/113 155/138/112 504/142/116
f 504/699/116 502/144/117 246/146/119
f 158/145/118 162/147/120 246/146/119
f 246/716/119 248/149/121 159/140/114
f 493/690/519 495/151/123 165/153/125
f 493/690/519 165/153/125 498/155/127
f 455/189/155 481/156/128 395/158/130
f 395/158/130 478/157/129 450/159/131
f 167/717/159 168/160/132 408/162/134
f 495/688/123 494/163/135 250/165/124
f 497/180/147 494/163/135 344/167/137
f 344/169/137 162/147/120 342/168/138
f 160/178/145 344/169/137 156/170/139
f 503/175/143 506/171/140 152/96/78
f 507/92/74 157/94/76 505/173/142
f 243/715/77 505/174/142 152/96/78
f 156/170/139 245/176/141 160/178/145
f 160/685/145 500/179/146 344/167/137
f 482/196/161 477/181/148 456/183/150
f 161/185/152 247/186/144 157/94/76
f 498/155/127 347/154/126 499/188/154
f 484/678/516 481/156/128 461/190/156
f 464/182/149 166/191/157 456/183/150
f 456/183/150 465/192/158 408/194/134
f 483/681/160 408/162/134 479/161/133
f 408/194/134 483/195/160 456/183/150
f 510/700/520 509/198/163 341/90/72
f 510/700/520 511/141/115 343/197/162
f 159/140/114 163/150/122 343/197/162
f 506/171/140 502/144/117 340/98/79
f 341/90/72 339/87/69 155/138/112
f 148/100/81 241/102/83 123/103/84
f 60/199/164 48/201/166 174/62/46
f 380/200/165 419/203/168 48/201/166
f 419/203/168 405/204/169 333/132/108
f 409/206/171 266/209/174 405/204/169
f 266/209/174 276/210/105 117/205/170
f 276/210/105 266/209/174 178/211/175
f 314/223/183 178/211/175 305/212/176
f 404/213/177 418/216/178 118/214/173
f 418/216/178 379/218/179 305/217/176
f 305/212/176 49/221/181 314/223/183
f 171/270/182 45/224/184 314/227/183
f 314/227/183 303/226/186 178/228/175
f 178/228/175 114/124/102 276/127/105
f 309/225/185 126/122/100 303/226/186
f 126/122/100 151/229/187 230/231/189
f 124/118/97 230/232/189 149/234/190
f 149/234/190 242/233/188 183/236/192
f 151/229/187 184/237/193 242/230/188
f 256/247/202 254/239/191 188/240/195
f 184/237/193 317/241/196 188/240/195
f 319/242/197 321/243/198 188/240/195
f 188/240/195 192/245/200 256/247/202
f 187/396/314 256/248/202 191/250/203
f 195/399/316 191/251/203 260/253/204
f 260/448/204 258/254/201 196/256/205
f 321/718/198 323/260/206 192/255/200
f 257/719/336 189/261/207 255/262/208
f 253/434/345 255/262/208 181/263/209
f 185/244/199 319/242/197 181/263/209
f 146/264/210 181/263/209 313/238/194
f 253/434/345 181/263/209 240/266/212
f 240/266/212 146/264/210 207/267/213
f 207/267/213 57/265/211 252/269/215
f 57/265/211 45/224/184 175/268/214
f 175/281/214 171/222/182 61/271/216
f 379/218/179 383/272/217 49/220/181
f 61/274/216 383/272/217 95/276/220
f 61/274/216 95/276/220 209/278/222
f 61/271/216 209/279/222 175/281/214
f 252/720/215 209/282/222 176/284/224
f 96/372/294 62/285/223 222/287/221
f 96/372/294 222/287/221 100/289/226
f 99/701/521 224/293/225 95/276/220
f 99/701/521 95/276/220 399/294/230
f 399/294/230 397/275/219 101/296/232
f 383/272/217 65/297/233 397/275/219
f 65/297/233 211/299/235 97/295/231
f 97/295/231 223/300/236 101/296/232
f 225/301/237 514/302/238 101/296/232
f 101/296/232 513/304/240 399/294/230
f 515/305/241 401/306/242 512/290/227
f 401/306/242 403/308/244 103/291/228
f 226/605/477 103/312/228 228/314/247
f 228/314/247 107/313/243 294/317/249
f 294/317/249 281/316/248 371/319/251
f 377/621/492 369/318/250 372/320/252
f 372/320/252 281/316/248 429/321/253
f 429/326/253 411/309/245 373/323/255
f 373/323/255 359/324/256 429/326/253
f 429/321/253 423/327/257 372/320/252
f 423/327/257 427/332/259 357/328/258
f 357/328/258 365/333/261 356/335/263
f 425/337/264 362/336/262 360/330/260
f 427/721/259 364/341/267 360/343/260
f 359/324/256 364/344/267 423/325/257
f 364/344/267 359/324/256 363/347/268
f 358/346/269 359/324/256 376/348/270
f 376/348/270 373/323/255 368/350/272
f 287/351/273 375/349/271 368/350/272
f 287/351/273 368/350/272 297/354/276
f 368/350/272 283/322/254 370/353/275
f 367/641/502 370/353/275 282/356/278
f 110/362/284 282/356/278 229/357/279
f 229/357/279 295/355/277 109/358/280
f 403/308/244 109/358/280 411/309/245
f 105/359/281 109/358/280 401/306/242
f 109/358/280 105/359/281 229/357/279
f 229/357/279 227/360/282 110/362/284
f 421/638/500 428/363/285 280/365/287
f 102/602/474 98/369/291 398/371/293
f 398/371/293 396/370/292 100/289/226
f 396/370/292 382/373/295 96/372/294
f 62/285/223 382/373/295 50/375/297
f 378/374/296 382/373/295 54/377/299
f 98/369/291 66/376/298 396/370/292
f 66/376/298 98/369/291 211/299/235
f 66/376/298 310/378/300 54/377/299
f 306/379/301 310/378/300 120/381/303
f 120/381/303 407/382/304 306/379/301
f 417/383/305 378/374/296 306/379/301
f 378/374/296 417/383/305 50/375/297
f 407/382/304 116/386/92 417/383/305
f 315/430/310 304/387/306 180/388/307
f 116/112/92 265/111/91 180/388/307
f 180/722/307 277/389/93 112/390/308
f 180/722/307 112/390/308 315/392/310
f 302/391/309 112/390/308 308/393/311
f 312/394/312 308/393/311 149/234/190
f 316/395/313 312/394/312 183/236/192
f 318/423/339 316/395/313 187/396/314
f 256/248/202 187/396/314 254/235/191
f 318/423/339 187/396/314 320/397/315
f 322/438/347 320/398/315 195/399/316
f 322/438/347 195/399/316 324/401/318
f 199/400/317 195/399/316 467/402/319
f 487/684/518 492/406/323 200/408/324
f 487/684/518 489/409/325 447/405/322
f 453/410/326 489/409/325 448/412/328
f 323/260/206 193/414/330 325/416/332
f 259/418/334 261/417/333 193/414/330
f 259/418/334 193/414/330 257/420/336
f 257/420/336 190/421/337 259/418/334
f 322/438/347 194/419/335 320/398/315
f 190/435/337 186/422/338 320/397/315
f 318/423/339 186/422/338 316/395/313
f 182/424/340 147/425/341 316/395/313
f 312/394/312 147/425/341 308/393/311
f 58/426/342 46/427/343 308/393/311
f 302/391/309 46/427/343 315/392/310
f 172/431/344 50/429/297 315/430/310
f 50/429/297 172/431/344 62/283/223
f 172/428/344 46/427/343 176/432/224
f 58/426/342 207/267/213 176/432/224
f 58/426/342 147/425/341 207/267/213
f 147/425/341 182/424/340 240/266/212
f 253/434/345 182/424/340 255/262/208
f 186/422/338 190/435/337 255/262/208
f 324/401/318 198/437/346 322/438/347
f 449/182/357 486/181/348 454/440/350
f 490/439/349 485/195/351 454/440/350
f 454/440/350 446/194/352 326/192/354
f 203/403/320 202/441/353 452/404/321
f 492/406/323 485/443/351 467/407/319
f 327/446/355 326/445/354 203/403/320
f 200/408/324 467/407/319 196/256/205
f 201/447/356 327/446/355 448/412/328
f 201/191/356 449/182/357 326/192/354
f 448/412/328 491/413/329 449/449/357
f 120/381/303 267/451/358 407/382/304
f 127/380/302 131/455/361 271/453/359
f 273/456/362 132/460/363 271/453/359
f 128/462/365 329/464/367 119/110/90
f 334/76/60 329/464/367 51/73/57
f 210/465/368 63/74/58 350/463/366
f 210/465/368 213/467/370 63/74/58
f 63/74/58 69/468/371 385/70/54
f 439/478/381 387/469/372 434/470/373
f 434/470/373 69/468/371 437/471/374
f 437/471/374 213/467/370 435/473/376
f 437/471/374 435/473/376 215/475/378
f 215/475/378 73/476/379 437/471/374
f 434/470/373 73/476/379 439/478/381
f 439/478/381 389/477/380 433/480/383
f 389/477/380 391/481/384 71/479/382
f 216/723/387 214/486/388 75/482/385
f 71/479/382 214/486/388 433/480/383
f 433/480/383 438/487/389 67/68/52
f 439/478/381 433/480/383 387/469/372
f 438/497/389 436/488/390 212/490/53
f 384/491/392 386/493/394 64/466/369
f 70/472/375 386/493/394 435/473/376
f 440/494/395 386/493/394 436/488/390
f 440/494/395 436/488/390 388/496/397
f 214/657/388 72/495/396 438/497/389
f 325/416/332 200/408/324 323/260/206
f 390/502/402 76/500/400 444/503/403
f 80/498/398 84/504/404 392/506/401
f 80/510/398 441/507/406 442/509/399
f 441/507/406 80/510/398 443/512/408
f 77/724/422 81/513/409 391/516/384
f 391/516/384 393/515/411 75/483/385
f 79/484/386 83/514/410 80/498/398
f 83/519/410 85/518/413 87/522/415
f 83/514/410 87/523/415 84/504/404
f 88/725/412 87/524/415 92/526/417
f 93/527/418 91/529/416 89/531/414
f 93/527/418 89/531/414 221/528/419
f 219/543/427 220/533/420 85/518/413
f 219/543/427 85/518/413 218/534/421
f 218/534/421 81/520/409 217/536/423
f 217/539/423 77/537/422 215/475/378
f 77/537/422 391/481/384 73/476/379
f 215/475/378 74/474/377 217/539/423
f 217/536/423 78/540/424 218/534/421
f 218/534/421 82/541/425 219/543/427
f 86/542/426 90/544/428 219/543/427
f 220/532/420 90/545/428 221/528/419
f 94/546/429 90/545/428 92/549/417
f 90/544/428 86/542/426 88/551/412
f 394/550/405 86/542/426 392/501/401
f 74/474/377 388/496/397 78/538/424
f 388/496/397 74/474/377 440/494/395
f 64/466/369 70/472/375 210/465/368
f 52/492/393 350/463/366 335/202/167
f 335/202/167 121/207/172 419/203/168
f 140/726/432 233/556/431 132/457/363
f 275/562/435 140/560/432 273/456/362
f 273/456/362 131/455/361 275/562/435
f 474/601/473 138/563/436 470/565/438
f 469/42/439 470/565/438 136/566/440
f 235/567/442 136/566/440 238/568/443
f 135/569/444 235/567/442 142/570/445
f 472/572/446 135/571/444 471/575/447
f 476/599/471 430/576/448 278/579/451
f 205/578/450 140/558/432 278/579/451
f 262/577/449 236/559/433 205/578/450
f 458/13/454 274/16/456 139/581/452
f 328/298/234 459/454/360 310/378/300
f 131/455/361 232/591/462 137/561/434
f 268/586/458 122/593/464 409/215/171
f 404/213/177 122/593/464 418/216/178
f 431/595/467 204/594/465 432/596/468
f 138/563/436 431/595/467 237/597/469
f 237/597/469 432/596/468 141/598/470
f 475/600/472 141/598/470 476/599/471
f 142/574/445 141/598/470 471/575/447
f 142/570/445 238/568/443 141/598/470
f 138/563/436 237/597/469 143/564/437
f 473/32/466 431/595/467 474/601/473
f 334/76/60 420/75/59 119/110/90
f 223/300/236 98/369/291 225/301/237
f 400/368/290 518/367/289 104/604/476
f 517/311/246 516/603/475 224/288/225
f 104/604/476 226/605/477 108/364/286
f 108/364/286 228/314/247 280/365/287
f 416/613/485 402/606/478 284/608/480
f 366/607/479 280/365/287 371/319/251
f 371/319/251 296/612/484 366/607/479
f 414/615/487 416/613/485 288/614/486
f 412/727/483 414/615/487 351/616/488
f 298/617/489 288/614/486 296/612/484
f 289/629/495 298/617/489 285/618/490
f 285/618/490 296/612/484 369/318/250
f 377/621/492 374/619/491 369/318/250
f 356/335/263 377/621/492 357/328/258
f 356/335/263 424/622/493 374/619/491
f 413/352/274 424/623/493 375/349/271
f 358/346/269 424/623/493 363/347/268
f 424/622/493 356/335/263 426/625/265
f 361/340/266 363/342/268 425/627/264
f 285/618/490 413/620/274 289/629/495
f 422/728/496 354/633/498 415/628/494
f 354/633/498 300/635/499 289/629/495
f 300/635/499 351/616/488 298/617/489
f 367/641/502 282/356/278 402/606/478
f 402/606/478 421/638/500 366/607/479
f 412/727/483 352/639/482 414/615/487
f 286/642/503 367/641/502 416/613/485
f 282/356/278 110/362/284 421/638/500
f 110/362/284 106/361/283 428/363/285
f 290/640/501 286/642/503 414/615/487
f 286/642/503 297/354/276 367/641/502
f 299/644/504 297/354/276 290/640/501
f 355/654/506 299/644/504 352/645/482
f 293/729/481 301/647/505 352/649/482
f 292/651/497 353/650/507 301/647/505
f 353/656/507 291/653/508 355/654/506
f 291/653/508 287/351/273 299/644/504
f 287/351/273 291/653/508 413/352/274
f 422/730/496 415/655/494 353/656/507
f 76/659/400 72/495/396 216/658/387
f 388/496/397 72/495/396 390/552/402
f 216/485/387 79/484/386 76/500/400
f 78/540/424 390/502/402 82/541/425
f 441/731/406 443/660/408 445/508/407
f 392/732/401 444/662/403 443/660/408
f 462/661/509 444/662/403 445/508/407
f 203/403/320 447/405/322 327/446/355
f 496/670/514 249/663/510 500/179/146
f 480/669/513 477/665/148 249/663/510
f 484/678/516 480/669/513 460/187/153
f 161/686/152 499/188/154 247/671/144
f 461/190/156 455/189/155 166/667/157
f 167/717/159 465/673/158 168/160/132
f 466/672/515 455/189/155 168/160/132
f 428/363/285 400/368/290 108/364/286
f 520/366/288 400/368/290 521/303/239
f 469/677/439 468/733/441 471/734/447
f 471/734/447 475/735/472 476/736/471
f 468/733/441 472/737/446 471/734/447
f 474/738/473 470/739/438 473/676/466
f 278/675/451 457/740/455 473/676/466
f 473/676/466 470/739/438 469/677/439
f 469/677/439 471/734/447 278/675/451
f 476/736/471 278/675/451 471/734/447
f 461/190/156 451/668/512 484/678/516
f 451/668/512 464/674/149 480/669/513
f 483/195/160 164/679/136 482/196/161
f 164/741/136 483/681/160 250/152/124
f 460/187/153 347/154/126 484/678/516
f 346/680/517 463/682/511 482/196/161
f 478/157/129 165/153/125 479/161/133
f 481/156/128 347/154/126 478/157/129
f 491/413/329 261/417/333 486/450/348
f 452/404/321 446/442/352 492/406/323
f 324/680/318 199/679/317 490/439/349
f 486/181/348 198/682/346 490/439/349
f 261/417/333 491/413/329 197/415/331
f 489/409/325 325/416/332 488/411/327
f 200/408/324 325/416/332 487/684/518
f 447/405/322 452/404/321 487/684/518
f 499/188/154 460/187/153 496/670/514
f 247/671/144 496/670/514 160/685/145
f 345/742/151 498/155/127 161/686/152
f 500/179/146 463/664/511 497/180/147
f 346/687/517 164/164/136 497/180/147
f 248/743/121 162/166/120 495/688/123
f 345/742/151 163/689/122 498/155/127
f 163/689/122 248/691/121 493/690/519
f 278/744/451 275/692/435 457/694/455
f 274/698/456 275/692/435 133/696/459
f 342/168/138 158/145/118 506/171/140
f 505/174/142 245/176/141 503/175/143
f 342/168/138 506/171/140 156/170/139
f 244/143/111 154/101/82 504/699/116
f 246/716/119 159/140/114 504/142/116
f 509/198/163 343/197/162 508/93/75
f 243/95/77 153/91/73 507/92/74
f 155/138/112 501/139/113 341/90/72
f 399/294/230 515/305/241 99/701/521
f 513/304/240 105/359/281 515/305/241
f 514/302/238 227/360/282 513/304/240
f 226/605/477 104/604/476 517/311/246
f 518/367/289 398/371/293 516/603/475
f 103/312/228 226/605/477 519/310/229
f 224/293/225 99/701/521 519/292/229
f 225/301/237 102/602/474 521/303/239
f 520/366/288 102/602/474 518/367/289
f 227/360/282 514/302/238 106/361/283
