# Blender v2.76 (sub 0) OBJ File: 'npc_humanoidmutant.blend'
# www.blender.org
v -0.065916 -0.082509 1.608623
v -0.064451 -0.031880 1.902427
v -0.074036 -0.161159 1.864093
v -0.117441 0.009087 1.817639
v -0.053840 0.008243 1.673904
v -0.100002 -0.152493 1.623609
v -0.096668 -0.190018 1.778364
v -0.092519 -0.179230 1.817648
v -0.107047 -0.003551 1.867314
v -0.083399 0.019445 1.715693
v -0.098604 -0.190705 1.690067
v -0.079507 -0.026939 1.632229
v -0.086999 -0.092612 1.886466
v -0.093581 -0.058826 1.666796
v -0.128790 -0.151112 1.798308
v -0.122004 -0.145202 1.829295
v -0.062931 -0.213336 1.713678
v -0.109376 -0.098054 1.699223
v -0.014495 -0.118902 1.586795
v -0.060067 -0.204017 1.617159
v -0.016352 -0.235110 1.764473
v -0.007571 0.020868 1.677204
v -0.010026 -0.206002 1.831181
v -0.048034 -0.220183 1.702226
v -0.004358 0.033147 1.712274
v -0.046750 -0.219017 1.675551
v -0.101642 -0.184818 1.759339
v -0.111110 0.010614 1.755697
v -0.122031 -0.139125 1.755337
v -0.023305 -0.240057 1.715883
v -0.019472 0.045437 1.760262
v -0.079240 -0.196838 1.666686
v 0.031010 -0.211103 1.654231
v 0.006861 -0.222311 1.615102
v -0.000414 -0.225062 1.672183
v 0.006507 -0.224526 1.700876
v 0.020053 -0.217417 1.713235
v 0.006265 -0.086084 1.897071
v -0.003890 -0.174632 1.863135
v 0.004926 0.013262 1.839799
v -0.005844 -0.031183 1.900919
v -0.012261 0.038488 1.814522
v 0.170129 0.164592 0.954635
v 0.171696 -0.049946 1.017396
v -0.116999 -0.059685 1.011094
v -0.111056 0.176181 1.003493
v 0.170646 0.164341 1.316103
v 0.136534 -0.055240 1.346115
v -0.131953 -0.040517 1.325247
v -0.117310 0.204740 1.270688
v 0.235008 0.170775 1.589746
v 0.224987 -0.018120 1.537501
v -0.180247 0.021663 1.475160
v -0.185569 0.202990 1.530407
v 0.192583 0.116625 0.920544
v 0.193730 -0.030423 0.988524
v -0.160892 -0.014037 0.984489
v -0.147663 0.133105 0.937739
v 0.185455 0.141561 1.402493
v 0.172579 0.028316 1.404055
v -0.163558 0.005534 1.285761
v -0.156206 0.168205 1.262903
v 0.274346 0.142621 1.591052
v 0.284951 0.038184 1.524786
v -0.268490 0.079907 1.518114
v -0.238051 0.177399 1.566963
v 0.258489 0.235722 1.428521
v 0.240252 0.082432 1.437525
v 0.352473 0.211910 1.456072
v 0.347277 0.123425 1.446024
v 0.314914 0.327054 1.201198
v 0.282331 0.273740 1.192158
v 0.369892 0.291036 1.239302
v 0.329494 0.240140 1.226584
v 0.353557 0.125206 0.985652
v 0.302311 0.066789 0.955107
v 0.368003 0.093974 1.022786
v 0.322338 0.063326 1.016222
v 0.346286 0.054524 0.915665
v 0.296662 0.021519 0.924610
v 0.374873 0.032929 0.956574
v 0.331671 0.010764 0.974909
v 0.385003 -0.018490 0.884054
v 0.284100 -0.033947 0.903836
v 0.366950 -0.050448 0.886723
v 0.309205 -0.061053 0.918977
v 0.369917 -0.029646 0.839974
v 0.278626 -0.053138 0.867131
v 0.355099 -0.056570 0.828886
v 0.279488 -0.077219 0.857913
v 0.359387 -0.021006 0.829164
v 0.284173 -0.048865 0.856437
v 0.312998 -0.020634 0.793304
v 0.263011 -0.035265 0.812982
v -0.250348 0.152846 1.410133
v -0.235924 0.211956 1.420716
v -0.346033 0.155298 1.484545
v -0.322646 0.234556 1.537756
v -0.439447 0.303145 1.338078
v -0.426984 0.381970 1.388275
v -0.481450 0.293448 1.361975
v -0.486041 0.385855 1.382147
v -0.386465 0.308776 1.265819
v -0.436342 0.394439 1.295064
v -0.464282 0.279569 1.269528
v -0.481877 0.368626 1.260067
v -0.353942 0.250037 1.102328
v -0.378092 0.283062 1.077509
v -0.392526 0.227693 1.110570
v -0.418203 0.262165 1.077592
v 0.055696 0.181031 0.951111
v 0.007442 0.186594 0.973530
v 0.061710 -0.075216 1.012134
v -0.005281 -0.074188 1.002913
v 0.087896 0.193263 1.288903
v -0.010079 0.202632 1.459113
v 0.055820 -0.080117 1.335342
v -0.054318 -0.060136 1.377688
v 0.098356 0.168351 1.605716
v -0.095964 0.172924 1.591184
v 0.097667 -0.054422 1.537903
v -0.075198 -0.043098 1.505302
v 0.048572 0.120901 0.904007
v 0.006010 0.133757 0.907744
v 0.067450 -0.049180 0.976322
v -0.030298 -0.045781 0.991040
v -0.118495 0.116674 1.649819
v 0.127989 0.071661 1.616831
v -0.089382 -0.022219 1.569355
v 0.066647 -0.026962 1.584981
v -0.076731 0.083727 1.662095
v 0.070619 0.047352 1.651129
v -0.067220 -0.082825 1.613456
v 0.041017 -0.102107 1.608628
v 0.080231 -0.040083 1.895338
v 0.065970 -0.193797 1.857341
v -0.053787 0.010092 1.675333
v 0.069086 -0.219727 1.781179
v 0.052696 -0.174695 1.606010
v 0.040498 -0.004763 1.657656
v 0.111842 -0.016164 1.767076
v 0.114060 -0.027929 1.842134
v 0.074811 -0.204280 1.818052
v 0.194764 0.071712 0.786209
v 0.195626 -0.065167 0.823397
v -0.131141 -0.004780 0.799195
v -0.122954 0.111114 0.797019
v 0.058936 0.075339 0.790604
v -0.010246 0.112299 0.805284
v 0.073757 -0.050662 0.814244
v -0.023717 -0.004918 0.802722
v 0.202971 0.030007 0.690456
v 0.191491 -0.087346 0.715916
v 0.080865 0.030295 0.690235
v 0.083126 -0.074429 0.710573
v 0.249132 0.085678 0.517913
v 0.221596 -0.031855 0.464273
v 0.139057 0.111276 0.498423
v 0.125560 -0.012415 0.464982
v 0.236114 0.054928 0.455536
v 0.221543 -0.010306 0.448403
v 0.155156 0.091905 0.479710
v 0.146229 0.001638 0.440548
v 0.178436 0.279826 0.129816
v 0.176865 0.138619 0.153599
v 0.269245 -0.029720 0.005279
v 0.173609 -0.057861 -0.004779
v 0.191050 -0.052447 0.024116
v 0.147806 0.145760 1.155035
v 0.135603 -0.054271 1.159821
v -0.128950 -0.037578 1.154778
v -0.116416 0.172862 1.161463
v 0.181069 0.106037 1.147870
v 0.174335 -0.020615 1.162510
v -0.161838 0.008032 1.161695
v -0.155290 0.134970 1.142435
v 0.051906 -0.067381 1.152329
v -0.036652 -0.061901 1.140267
v 0.067981 0.171826 1.138568
v -0.010187 0.179946 1.179378
v -0.127375 -0.007936 0.684242
v -0.125911 0.104595 0.681983
v -0.009370 0.107116 0.694067
v -0.018985 -0.008351 0.688322
v -0.132735 -0.004368 0.564048
v -0.135101 0.112656 0.565818
v -0.030269 0.131523 0.557860
v -0.029201 -0.001194 0.566637
v -0.139238 0.008478 0.539363
v -0.139511 0.099032 0.539861
v -0.044533 0.105073 0.536290
v -0.043055 0.016155 0.527674
v -0.112837 0.071846 0.151748
v -0.109863 0.136069 0.138345
v -0.053735 0.141200 0.135280
v -0.044572 0.078187 0.142945
v -0.112042 0.046746 0.074834
v -0.092909 0.162251 0.026423
v -0.049375 0.144094 0.025223
v -0.054969 0.042486 0.080487
v -0.135092 -0.173906 -0.006406
v -0.049358 -0.187685 -0.009344
v -0.071029 -0.174280 0.021766
v 0.058987 -0.197232 1.683189
v 0.076257 -0.001403 1.688229
v 0.205170 0.040756 0.937223
v -0.180466 0.055853 0.935429
v 0.172564 0.074608 1.376049
v -0.169380 0.083975 1.256085
v 0.312884 0.084020 1.560128
v -0.294097 0.121934 1.553570
v 0.209677 0.134058 1.446980
v 0.361046 0.167193 1.451936
v 0.286813 0.297350 1.191275
v 0.355166 0.262874 1.225793
v 0.326884 0.110239 0.969749
v 0.344840 0.069644 1.023072
v 0.354875 0.020234 0.968213
v 0.339898 -0.064164 0.895936
v 0.322629 -0.074922 0.841847
v 0.302451 -0.044680 0.822860
v -0.238406 0.195318 1.423810
v -0.343788 0.192450 1.513676
v -0.415316 0.356146 1.349263
v -0.493103 0.334600 1.383977
v -0.411574 0.353506 1.274774
v -0.478210 0.322715 1.258975
v -0.363633 0.266953 1.087558
v -0.412116 0.241531 1.095374
v 0.001626 0.059955 0.905393
v 0.119489 0.013387 1.615514
v -0.137781 0.027250 1.621194
v 0.065710 -0.036993 1.625255
v -0.079508 -0.026736 1.637073
v 0.091224 -0.099109 1.886030
v 0.070347 -0.076124 1.645641
v 0.113839 -0.158604 1.768287
v 0.125204 -0.139897 1.846348
v 0.212940 0.008419 0.794965
v -0.156082 0.063238 0.788846
v 0.047070 0.015782 0.802167
v -0.002781 0.056004 0.792007
v 0.211441 -0.020665 0.697755
v 0.060119 -0.018738 0.701463
v 0.256887 0.040152 0.498358
v 0.117227 0.034640 0.479000
v 0.237159 0.022326 0.452677
v 0.121568 0.042851 0.442498
v 0.269759 0.193115 0.144384
v 0.156559 0.187328 0.141538
v 0.193907 0.042762 1.148525
v -0.172553 0.069022 1.140648
v -0.154297 0.061945 0.680978
v -0.005383 0.054226 0.678248
v -0.158238 0.053965 0.575882
v -0.003011 0.053245 0.560518
v -0.145167 0.055209 0.543191
v -0.013905 0.054706 0.527660
v -0.121355 0.108260 0.148401
v -0.037400 0.115700 0.139015
v -0.128045 0.082361 0.070830
v 0.100720 -0.088341 1.681825
v 0.034953 0.151376 0.967166
v 0.035752 -0.077738 1.001710
v 0.034731 0.199617 1.303806
v 0.007835 -0.072658 1.353230
v 0.003599 0.164900 1.571397
v 0.007805 -0.050046 1.515566
v 0.032282 0.127244 0.963240
v 0.033091 -0.049404 0.973168
v -0.008359 0.102555 1.648051
v -0.011851 -0.063460 1.563570
v -0.001332 0.075275 1.663711
v -0.015316 -0.118859 1.587600
v -0.008685 0.022092 1.677651
v 0.010864 -0.066537 1.144771
v 0.032317 0.169799 1.141316
v -0.005686 0.034816 1.712631
v 0.031410 0.058973 0.953850
v -0.366969 0.243257 1.025512
v -0.338884 0.216141 1.050602
v -0.399213 0.218168 1.022178
v -0.372986 0.190916 1.048142
v -0.348353 0.218927 0.977676
v -0.307534 0.192402 0.989750
v -0.374220 0.199793 0.955567
v -0.324110 0.159734 0.986981
v -0.332075 0.221495 0.951729
v -0.292820 0.192473 0.975332
v -0.341903 0.206299 0.920133
v -0.290224 0.163487 0.958924
v -0.222333 0.243364 0.954899
v -0.262654 0.272567 0.935902
v -0.353728 0.234280 1.037231
v -0.388786 0.201995 1.037145
v -0.331172 0.208063 0.988529
v -0.350365 0.176496 0.974797
v -0.310250 0.207217 0.964672
v -0.310739 0.179576 0.939726
v -0.286189 0.219878 0.949354
v -0.261092 0.230061 0.947695
v -0.061309 0.211980 0.981547
v -0.068868 -0.072405 1.016063
v -0.055267 0.207870 1.310772
v -0.091445 -0.042328 1.345019
v -0.126899 0.195067 1.572345
v -0.135961 -0.007515 1.499573
v -0.076886 0.162244 0.911612
v -0.099091 -0.053171 0.976383
v -0.213571 0.139209 1.625902
v -0.156644 0.010486 1.554969
v -0.067663 0.137032 0.799674
v -0.076255 -0.037006 0.801355
v -0.085590 -0.053465 1.145746
v -0.065157 0.182708 1.153340
v -0.067236 0.126278 0.686616
v -0.068024 -0.046467 0.689013
v -0.080489 0.172624 0.560369
v -0.081525 -0.039091 0.572522
v -0.087749 0.152572 0.529242
v -0.092804 -0.011944 0.540730
v -0.082159 0.157239 0.138158
v -0.081991 0.057805 0.159920
v -0.074902 0.178764 0.026827
v -0.083014 0.020740 0.082380
v -0.110796 -0.182017 -0.006926
v -0.106297 -0.163395 0.013314
v -0.203002 0.054933 1.603080
v 0.202826 0.105940 1.615997
v 0.112633 0.192291 0.943852
v 0.112457 -0.063590 1.025422
v 0.128189 0.183654 1.286629
v 0.096469 -0.076243 1.331895
v 0.188654 0.177685 1.603120
v 0.174633 -0.034806 1.549410
v 0.119417 0.139747 0.898693
v 0.117983 -0.051578 0.992994
v 0.123771 0.095631 0.783536
v 0.127825 -0.099690 0.827887
v 0.141385 0.044100 0.694618
v 0.143315 -0.125523 0.718087
v 0.197393 0.119823 0.504761
v 0.160769 -0.053651 0.460024
v 0.209811 0.133436 0.478444
v 0.180078 -0.025738 0.448053
v 0.200890 0.305439 0.140082
v 0.205075 0.121751 0.151180
v 0.092827 -0.064654 1.153117
v 0.104707 0.166521 1.139156
v 0.212475 0.046482 1.600474
v -0.310942 0.235788 0.935894
v -0.312653 0.227608 0.908839
v -0.258382 0.185785 0.944811
v -0.271048 0.204578 0.962546
v -0.277278 0.200801 0.926357
v -0.296163 0.188932 1.016144
v -0.292526 0.189036 1.036428
v -0.310520 0.158528 1.014877
v -0.305742 0.164105 1.040070
v -0.257509 0.205552 1.021367
v -0.240224 0.203638 1.006376
v -0.277272 0.190850 1.014642
v -0.275700 0.166736 1.011887
v -0.272243 0.169254 1.027431
v -0.275108 0.192491 1.027444
v -0.356964 0.228523 1.000153
v -0.387974 0.206293 0.987892
v -0.352170 0.171183 1.020916
v -0.326771 0.204479 1.023621
v -0.372123 0.187370 1.005978
v -0.343943 0.219552 1.012523
v -0.311564 0.193454 1.045096
v -0.331327 0.168702 1.050384
v -0.301123 0.188779 1.001018
v -0.320721 0.158123 1.004114
v -0.330567 0.161176 1.027908
v -0.309998 0.191825 1.025509
v -0.157783 0.218271 1.458019
v -0.159210 -0.019163 1.440906
v 0.187941 -0.031669 1.465977
v 0.218964 0.203132 1.511301
v -0.212842 0.246616 1.505012
v -0.217167 0.048958 1.433366
v 0.237943 0.034632 1.479068
v 0.262865 0.209586 1.492268
v 0.301617 0.124461 1.424150
v 0.328545 0.245276 1.443995
v 0.304394 0.250616 1.213265
v 0.349244 0.317147 1.224813
v 0.301242 0.052436 0.976144
v 0.371109 0.111131 1.004831
v 0.305333 0.008119 0.954043
v 0.365655 0.045595 0.933165
v 0.291458 -0.049619 0.915215
v 0.197168 -0.023932 0.059713
v -0.282528 0.255391 1.525615
v -0.291413 0.150217 1.434815
v -0.458707 0.388964 1.396618
v -0.471427 0.287375 1.332530
v -0.466687 0.399995 1.277153
v -0.420849 0.280184 1.264313
v -0.381291 0.224498 0.986069
v -0.369214 0.233153 1.110701
v -0.063574 -0.055301 1.435140
v 0.079294 -0.089374 1.463675
v 0.112468 0.217148 1.469361
v -0.052210 0.213972 1.474566
v 0.169627 0.031136 0.029334
v 0.006650 -0.082324 1.453213
v 0.050787 0.180046 1.541397
v -0.351256 0.201081 1.059212
v -0.320620 0.238788 0.914412
v -0.304976 0.172545 0.982573
v -0.345811 0.220987 0.927977
v -0.284808 0.175022 0.972348
v -0.370109 0.216450 0.958667
v -0.104452 0.213088 1.440813
v -0.117886 -0.032135 1.434038
v 0.136921 -0.066044 1.473234
v 0.170163 0.214361 1.475204
v -0.391913 0.237802 1.015891
v -0.261096 0.192626 0.959779
v -0.298433 0.177527 1.045273
v -0.301230 0.172591 1.000802
v -0.253696 0.202254 1.006351
v -0.277150 0.178159 1.004769
v -0.272370 0.181271 1.032145
v -0.407276 0.278940 1.069303
v -0.321909 0.182026 1.054916
v 0.115900 -0.013659 1.728033
v 0.066620 -0.211903 1.760458
v 0.101529 -0.136670 1.728905
v 0.289905 0.287092 1.331793
v 0.364870 0.266139 1.335960
v 0.339637 0.192173 1.318843
v 0.271073 0.218378 1.313457
v 0.365960 0.224723 1.326649
v 0.265448 0.256545 1.317282
v 0.334010 0.290418 1.335905
v 0.297555 0.189492 1.313518
v 0.282253 0.007611 0.916530
v 0.278297 0.032835 0.938156
v 0.281574 -0.007840 0.921390
v 0.287266 0.025435 0.952554
v 0.266060 0.001699 0.916901
v -0.048086 -0.102871 0.000017
v -0.071959 -0.133216 0.032266
v -0.136636 -0.116173 0.017106
v -0.143474 -0.097204 0.002596
v 0.173045 -0.001487 0.056935
v 0.271516 0.030527 0.047322
v -0.052671 -0.136310 0.021438
v -0.108317 -0.139514 0.028332
v -0.100097 -0.077370 0.002644
v 0.230230 -0.026542 0.058234
v 0.224457 0.050370 0.036263
v 0.030163 -0.210807 1.655398
v 0.006023 -0.222162 1.616305
v -0.125817 0.089748 1.626613
v 0.244763 0.150573 0.152988
v 0.262559 -0.014312 0.057987
v 0.255838 -0.026452 0.893293
v 0.235875 0.257125 0.121157
v 0.286151 0.043966 0.034698
v 0.235756 -0.061281 -0.005740
v 0.231067 -0.058664 0.024990
v -0.032025 0.074354 0.056053
v 0.006249 -0.085735 1.897584
v -0.010094 -0.173858 1.863900
v -0.015721 -0.205370 1.832539
v 0.002856 0.013603 1.840352
v -0.009996 -0.030425 1.901628
v 0.019017 -0.217627 1.715163
v -0.017354 -0.235213 1.765248
v -0.012993 0.039054 1.815859
v -0.022143 0.046853 1.761161
v 0.258406 0.150652 0.077019
v 0.186180 0.059767 0.100123
v 0.173439 0.092471 0.098975
v 0.254562 0.110793 0.100859
v 0.215197 0.050313 0.097704
v 0.208409 0.178120 0.086705
v 0.179630 0.155280 0.078309
v 0.237331 0.071640 0.097773
v -0.063205 0.010414 0.009407
v -0.135896 0.007765 0.014836
v -0.063651 -0.045005 0.051290
v -0.119843 -0.044697 0.045139
v -0.095976 -0.058797 0.047063
v -0.087778 0.050979 0.016381
v -0.127858 -0.026877 0.043226
v -0.047829 -0.031944 0.043237
v 0.172763 0.146676 0.215305
v 0.177405 0.216077 0.231791
v 0.155994 0.173566 0.219113
v 0.243289 0.166177 0.219285
v 0.205754 0.232714 0.235814
v 0.196403 0.132724 0.213093
v 0.227509 0.144772 0.215830
v 0.230418 0.194709 0.221726
v 0.093376 -0.093008 0.588450
v 0.099449 0.040872 0.593572
v 0.228288 0.030791 0.603624
v 0.076695 -0.032804 0.593202
v 0.236385 -0.027621 0.595608
v 0.165071 0.052215 0.598700
v 0.222298 -0.073094 0.590955
v 0.207841 -0.114018 0.587346
v 0.176706 -0.125738 0.588775
v 0.148381 -0.138880 0.586358
v 0.127587 -0.126677 0.588206
v -0.415032 0.307696 1.301991
v -0.483587 0.298185 1.313195
v -0.496825 0.339637 1.320027
v -0.448497 0.286106 1.298108
v -0.442077 0.392287 1.346630
v -0.424339 0.359825 1.316461
v -0.472636 0.398930 1.341052
v -0.411885 0.342920 1.306974
v -0.484510 0.396867 1.336618
v -0.501294 0.359692 1.326610
vt 0.069736 0.810409
vt 0.070343 0.836608
vt 0.016229 0.816513
vt 0.108198 0.828833
vt 0.082923 0.858291
vt 0.106675 0.817219
vt 0.100807 0.806030
vt 0.150135 0.804118
vt 0.147186 0.813631
vt 0.174865 0.804059
vt 0.199136 0.770721
vt 0.202768 0.808668
vt 0.238571 0.772226
vt 0.263052 0.806977
vt 0.232791 0.807582
vt 0.219562 0.756768
vt 0.197768 0.831600
vt 0.178180 0.842881
vt 0.234127 0.832144
vt 0.215107 0.851808
vt 0.137368 0.848515
vt 0.110896 0.852930
vt 0.145348 0.858722
vt 0.117053 0.872845
vt 0.102955 0.908822
vt 0.126935 0.911784
vt 0.138976 0.939172
vt 0.152030 0.900103
vt 0.166281 0.939086
vt 0.089864 0.882970
vt 0.149277 0.791186
vt 0.257412 0.845823
vt 0.214501 0.867849
vt 0.213059 0.907146
vt 0.051165 0.936868
vt 0.014365 0.995179
vt 0.015016 0.932731
vt 0.015519 0.884587
vt 0.078700 0.906981
vt 0.119497 0.940371
vt 0.219156 0.966110
vt 0.215077 0.942549
vt 0.015832 0.854569
vt 0.016051 0.833512
vt 0.179234 0.620343
vt 0.197718 0.646091
vt 0.173652 0.698841
vt 0.182928 0.613250
vt 0.178951 0.620309
vt 0.026111 0.589592
vt 0.036575 0.571852
vt 0.091358 0.586156
vt 0.124688 0.593060
vt 0.160572 0.604071
vt 0.170757 0.608279
vt 0.530541 0.500669
vt 0.510531 0.463554
vt 0.551834 0.493069
vt 0.552803 0.545871
vt 0.590385 0.499029
vt 0.586699 0.548165
vt 0.709463 0.233461
vt 0.736981 0.227836
vt 0.754824 0.286062
vt 0.746649 0.660255
vt 0.764971 0.572211
vt 0.792005 0.606361
vt 0.782569 0.517985
vt 0.798161 0.553887
vt 0.756625 0.500475
vt 0.737230 0.581062
vt 0.736075 0.519940
vt 0.733529 0.479446
vt 0.750714 0.455948
vt 0.710553 0.534913
vt 0.713606 0.486083
vt 0.707849 0.591243
vt 0.721914 0.656839
vt 0.056404 0.510554
vt 0.059910 0.459217
vt 0.082250 0.470310
vt 0.111457 0.463904
vt 0.112872 0.507403
vt 0.101446 0.443261
vt 0.056753 0.433066
vt 0.024045 0.465652
vt 0.523770 0.443500
vt 0.557804 0.459512
vt 0.592367 0.472603
vt 0.536472 0.416574
vt 0.563911 0.425104
vt 0.586690 0.416660
vt 0.568725 0.405936
vt 0.575182 0.380223
vt 0.594668 0.441922
vt 0.051716 0.399758
vt 0.024388 0.442698
vt 0.081566 0.396057
vt 0.093588 0.424361
vt 0.128566 0.412255
vt 0.109875 0.389620
vt 0.144957 0.383594
vt 0.141775 0.429221
vt 0.140728 0.456272
vt 0.132597 0.505439
vt 0.682119 0.592684
vt 0.697545 0.666171
vt 0.684063 0.542042
vt 0.648993 0.547098
vt 0.685757 0.487986
vt 0.653522 0.591244
vt 0.623556 0.582985
vt 0.679541 0.670859
vt 0.662650 0.670490
vt 0.157697 0.458631
vt 0.158681 0.391976
vt 0.157741 0.429866
vt 0.177530 0.430906
vt 0.454911 0.444893
vt 0.463736 0.393656
vt 0.479621 0.447783
vt 0.429932 0.441906
vt 0.454684 0.472779
vt 0.434980 0.472434
vt 0.472824 0.476894
vt 0.476425 0.525671
vt 0.456561 0.523166
vt 0.499275 0.486705
vt 0.497959 0.533883
vt 0.650874 0.220393
vt 0.668673 0.225869
vt 0.676740 0.279524
vt 0.688030 0.233060
vt 0.523816 0.542864
vt 0.493663 0.422434
vt 0.474451 0.386123
vt 0.482005 0.375180
vt 0.505422 0.400154
vt 0.514707 0.384843
vt 0.523991 0.369532
vt 0.531331 0.397196
vt 0.491685 0.367753
vt 0.128703 0.369584
vt 0.104505 0.368381
vt 0.099134 0.347142
vt 0.124471 0.341259
vt 0.103840 0.290043
vt 0.125032 0.288667
vt 0.506874 0.315104
vt 0.523971 0.318162
vt 0.260244 0.201008
vt 0.260256 0.148470
vt 0.285563 0.152714
vt 0.307173 0.152925
vt 0.307427 0.206656
vt 0.310405 0.109643
vt 0.286264 0.108735
vt 0.286965 0.064755
vt 0.267247 0.062003
vt 0.295875 0.025083
vt 0.263751 0.105236
vt 0.252893 0.056371
vt 0.440764 0.192044
vt 0.442886 0.130542
vt 0.459726 0.145161
vt 0.438643 0.253546
vt 0.412179 0.246705
vt 0.072435 0.349262
vt 0.073244 0.290649
vt 0.045943 0.349562
vt 0.077001 0.372659
vt 0.598868 0.385923
vt 0.596768 0.413923
vt 0.025330 0.379831
vt 0.048830 0.374660
vt 0.025785 0.349403
vt 0.026752 0.284835
vt 0.049424 0.287418
vt 0.388440 0.194221
vt 0.413018 0.188997
vt 0.545758 0.095983
vt 0.484907 0.101111
vt 0.491324 0.068919
vt 0.543531 0.316131
vt 0.571026 0.317433
vt 0.603411 0.325357
vt 0.336412 0.145885
vt 0.334734 0.199716
vt 0.313637 0.066360
vt 0.339506 0.058746
vt 0.419166 0.101111
vt 0.415550 0.073077
vt 0.418936 0.041329
vt 0.485174 0.030517
vt 0.545250 0.041004
vt 0.555771 0.071660
vt 0.550413 0.377675
vt 0.558050 0.404510
vt 0.731741 0.299501
vt 0.713679 0.331519
vt 0.699831 0.287050
vt 0.699623 0.348759
vt 0.689400 0.321677
vt 0.663804 0.312784
vt 0.654456 0.274483
vt 0.634618 0.311670
vt 0.669502 0.338169
vt 0.604363 0.274181
vt 0.630672 0.275261
vt 0.632768 0.219732
vt 0.612796 0.219139
vt 0.578680 0.274242
vt 0.840163 0.675460
vt 0.805000 0.641210
vt 0.821835 0.616809
vt 0.823287 0.709302
vt 0.792442 0.666262
vt 0.801265 0.732258
vt 0.840971 0.744966
vt 0.781333 0.686390
vt 0.557027 0.277312
vt 0.566024 0.224516
vt 0.589504 0.220607
vt 0.375096 0.492402
vt 0.384961 0.458486
vt 0.405199 0.486941
vt 0.410574 0.526483
vt 0.436273 0.522295
vt 0.410194 0.413373
vt 0.430433 0.380777
vt 0.455808 0.393131
vt 0.165665 0.393959
vt 0.192333 0.391907
vt 0.203471 0.419505
vt 0.207389 0.368304
vt 0.225411 0.391622
vt 0.396034 0.384167
vt 0.373257 0.427405
vt 0.420432 0.356604
vt 0.385943 0.354045
vt 0.365034 0.394965
vt 0.359348 0.362250
vt 0.361655 0.322007
vt 0.331496 0.354320
vt 0.389735 0.318213
vt 0.408299 0.313218
vt 0.407520 0.344510
vt 0.211730 0.328779
vt 0.220254 0.292264
vt 0.240239 0.298890
vt 0.032729 0.262939
vt 0.010266 0.262462
vt 0.022123 0.216488
vt 0.183362 0.259934
vt 0.169879 0.261827
vt 0.170456 0.200058
vt 0.152871 0.212064
vt 0.157816 0.257421
vt 0.131245 0.259389
vt 0.152744 0.212061
vt 0.329851 0.315255
vt 0.305156 0.349663
vt 0.332361 0.395198
vt 0.336616 0.434023
vt 0.342953 0.472564
vt 0.302718 0.434937
vt 0.305443 0.474901
vt 0.344205 0.538039
vt 0.305197 0.529271
vt 0.381368 0.533821
vt 0.526919 0.283769
vt 0.770507 0.751644
vt 0.805920 0.758992
vt 0.759849 0.709726
vt 0.733814 0.766693
vt 0.731822 0.732613
vt 0.715848 0.699675
vt 0.731674 0.685305
vt 0.489862 0.276741
vt 0.503649 0.216719
vt 0.536949 0.224504
vt 0.500193 0.577651
vt 0.546406 0.567669
vt 0.550049 0.651223
vt 0.770277 0.950472
vt 0.741703 0.987031
vt 0.721975 0.973279
vt 0.670795 0.949235
vt 0.691763 0.924160
vt 0.667253 0.759822
vt 0.647596 0.761046
vt 0.661418 0.745912
vt 0.674984 0.731059
vt 0.685126 0.785114
vt 0.727911 0.801324
vt 0.684541 0.813951
vt 0.779951 0.788271
vt 0.812240 0.817931
vt 0.777899 0.838219
vt 0.732181 0.843380
vt 0.684428 0.846295
vt 0.661248 0.840977
vt 0.662804 0.852998
vt 0.662157 0.811417
vt 0.664185 0.784673
vt 0.643244 0.784232
vt 0.590894 0.788058
vt 0.588395 0.804006
vt 0.546988 0.807658
vt 0.648291 0.946686
vt 0.655183 0.935733
vt 0.625362 0.944088
vt 0.565379 0.931164
vt 0.577026 0.913602
vt 0.517318 0.950251
vt 0.518656 0.937728
vt 0.532671 0.916079
vt 0.498534 0.934775
vt 0.508386 0.916362
vt 0.498934 0.958053
vt 0.504952 0.967267
vt 0.538647 0.828159
vt 0.520554 0.803562
vt 0.506540 0.794164
vt 0.512161 0.782695
vt 0.526812 0.792410
vt 0.499805 0.976893
vt 0.490810 0.970078
vt 0.606211 0.225665
vt 0.595724 0.228838
vt 0.600010 0.221730
vt 0.495368 0.986286
vt 0.485546 0.980051
vt 0.476390 0.972088
vt 0.479016 0.958002
vt 0.594230 0.216702
vt 0.592138 0.225545
vt 0.586564 0.214627
vt 0.590529 0.228890
vt 0.597639 0.217468
vt 0.605528 0.228876
vt 0.601098 0.232224
vt 0.604423 0.216146
vt 0.496747 0.782205
vt 0.501342 0.775490
vt 0.492601 0.804070
vt 0.489730 0.787509
vt 0.506750 0.811736
vt 0.492742 0.816421
vt 0.513412 0.828903
vt 0.488759 0.827748
vt 0.474192 0.805949
vt 0.511728 0.849291
vt 0.490026 0.847743
vt 0.536808 0.847447
vt 0.531596 0.867423
vt 0.579848 0.843550
vt 0.583631 0.821038
vt 0.639773 0.808883
vt 0.638068 0.835659
vt 0.640348 0.859960
vt 0.577914 0.864185
vt 0.582099 0.876926
vt 0.584670 0.895647
vt 0.537191 0.899022
vt 0.667339 0.876481
vt 0.668457 0.888449
vt 0.646086 0.879394
vt 0.736172 0.880839
vt 0.740176 0.911475
vt 0.690828 0.897503
vt 0.738403 0.943686
vt 0.778359 0.920543
vt 0.803771 0.938845
vt 0.794015 0.972059
vt 0.784290 0.882232
vt 0.808911 0.904111
vt 0.820719 0.863047
vt 0.834152 0.902731
vt 0.860307 0.861182
vt 0.865071 0.907486
vt 0.854923 0.958699
vt 0.829423 0.947565
vt 0.815176 0.985898
vt 0.887162 0.982680
vt 0.841126 0.997513
vt 0.599526 0.582393
vt 0.641540 0.666649
vt 0.148351 0.505738
vt 0.174193 0.461810
vt 0.207317 0.471588
vt 0.195039 0.515146
vt 0.222404 0.449298
vt 0.239531 0.431097
vt 0.252210 0.395818
vt 0.234712 0.343454
vt 0.265749 0.311085
vt 0.059449 0.258487
vt 0.041224 0.210106
vt 0.046055 0.145057
vt 0.065208 0.145112
vt 0.024679 0.151375
vt 0.162418 0.029328
vt 0.182110 0.066625
vt 0.166653 0.067555
vt 0.184383 0.102727
vt 0.186657 0.138828
vt 0.165079 0.140337
vt 0.141648 0.103851
vt 0.138732 0.067952
vt 0.115723 0.103496
vt 0.111228 0.067117
vt 0.106891 0.104386
vt 0.128518 0.203489
vt 0.120218 0.139876
vt 0.144564 0.139751
vt 0.102553 0.141654
vt 0.109393 0.202459
vt 0.089752 0.204557
vt 0.108356 0.261684
vt 0.084126 0.259809
vt 0.282949 0.354017
vt 0.258549 0.351892
vt 0.279678 0.394818
vt 0.273489 0.435894
vt 0.264764 0.465056
vt 0.236144 0.480843
vt 0.230426 0.525231
vt 0.576400 0.576912
vt 0.612982 0.659816
vt 0.582060 0.650525
vt 0.267987 0.525790
vt 0.305231 0.529680
vt 0.303387 0.392990
vt 0.288143 0.310611
vt 0.305042 0.312138
vt 0.080500 0.144623
vt 0.064947 0.207693
vt 0.555911 0.071265
vt 0.491604 0.068128
vt 0.166360 0.018036
vt 0.194569 0.061886
vt 0.205200 0.106980
vt 0.215831 0.152075
vt 0.145490 0.015442
vt 0.142316 0.025664
vt 0.122222 0.019171
vt 0.183428 0.191935
vt 0.098209 0.061670
vt 0.089191 0.103327
vt 0.904527 0.932446
vt 0.949699 0.948466
vt 0.911335 0.882488
vt 0.856281 0.836740
vt 0.887268 0.835598
vt 0.922921 0.857963
vt 0.965169 0.597470
vt 0.917537 0.577056
vt 0.944867 0.540579
vt 0.978071 0.883628
vt 0.973533 0.894384
vt 0.689807 0.425682
vt 0.723753 0.401854
vt 0.723676 0.441929
vt 0.751080 0.416759
vt 0.743080 0.379427
vt 0.787951 0.419748
vt 0.785654 0.452513
vt 0.788706 0.483118
vt 0.832288 0.454003
vt 0.836262 0.425753
vt 0.780027 0.392874
vt 0.831699 0.398084
vt 0.881984 0.402051
vt 0.879661 0.431814
vt 0.870752 0.458245
vt 0.864071 0.473143
vt 0.827228 0.478044
vt 0.861871 0.491751
vt 0.818704 0.500131
vt 0.958919 0.484608
vt 0.962949 0.502797
vt 0.937394 0.181666
vt 0.769056 0.171862
vt 0.923107 0.165442
vt 0.866430 0.519287
vt 0.825735 0.529120
vt 0.815376 0.348115
vt 0.773877 0.335777
vt 0.788825 0.312483
vt 0.742325 0.347461
vt 0.720633 0.360227
vt 0.774690 0.367418
vt 0.820904 0.374810
vt 0.872377 0.354530
vt 0.878939 0.376376
vt 0.819290 0.317856
vt 0.731418 0.161390
vt 0.740781 0.147624
vt 0.910959 0.146351
vt 0.728397 0.116884
vt 0.914298 0.126964
vt 0.743061 0.135898
vt 0.708508 0.185310
vt 0.696037 0.169448
vt 0.707778 0.159044
vt 0.676057 0.226459
vt 0.677608 0.225465
vt 0.676205 0.240475
vt 0.671792 0.238244
vt 0.671579 0.231190
vt 0.675970 0.223623
vt 0.780888 0.198982
vt 0.721993 0.208356
vt 0.777250 0.185608
vt 0.940749 0.196335
vt 0.683363 0.177018
vt 0.717878 0.068662
vt 0.713329 0.057286
vt 0.765911 0.073368
vt 0.691650 0.061870
vt 0.690905 0.050835
vt 0.704049 0.210128
vt 0.580357 0.233572
vt 0.578678 0.228747
vt 0.590575 0.223615
vt 0.632111 0.223278
vt 0.631029 0.218871
vt 0.633990 0.223808
vt 0.634144 0.230548
vt 0.630419 0.230702
vt 0.627492 0.228454
vt 0.685209 0.070727
vt 0.761098 0.088965
vt 0.932747 0.074007
vt 0.937492 0.094905
vt 0.957631 0.466678
vt 0.967928 0.421502
vt 0.960140 0.443954
vt 0.932725 0.111224
vt 0.750793 0.102746
vt 0.705453 0.080670
vt 0.711538 0.076342
vt 0.680790 0.074556
vt 0.626241 0.226931
vt 0.628045 0.218080
vt 0.582846 0.223738
vt 0.622224 0.225301
vt 0.624718 0.220016
vt 0.697557 0.089662
vt 0.676268 0.086597
vt 0.978665 0.398268
vt 0.692023 0.380408
vt 0.864947 0.581494
vt 0.899554 0.604654
vt 0.958903 0.642431
vt 0.337857 0.805645
vt 0.352329 0.816896
vt 0.335849 0.816248
vt 0.980156 0.877558
vt 0.909464 0.816878
vt 0.926421 0.834067
vt 0.281063 0.862176
vt 0.275086 0.902303
vt 0.214060 0.907716
vt 0.263508 0.936732
vt 0.293204 0.935134
vt 0.312830 0.897319
vt 0.306961 0.939965
vt 0.325778 0.911830
vt 0.378134 0.940095
vt 0.415505 0.929827
vt 0.418784 0.993411
vt 0.352990 0.912880
vt 0.416587 0.879286
vt 0.342977 0.862915
vt 0.334404 0.831281
vt 0.356169 0.822831
vt 0.421828 0.803268
vt 0.423463 0.790571
vt 0.281092 0.802015
vt 0.289344 0.787333
vt 0.914935 0.669173
vt 0.894371 0.655267
vt 0.941248 0.648461
vt 0.865116 0.631419
vt 0.904634 0.714904
vt 0.885904 0.758904
vt 0.900499 0.789879
vt 0.899007 0.788698
vt 0.853737 0.811092
vt 0.829870 0.777931
vt 0.860844 0.709530
vt 0.295623 0.819633
vt 0.287258 0.844412
vt 0.325763 0.856591
vt 0.321747 0.877511
vt 0.342095 0.889562
vt 0.420014 0.823008
vt 0.418443 0.847652
vt 0.214754 0.868398
vt 0.684556 0.874120
vt 0.672119 0.912381
vt 0.652475 0.900602
vt 0.639571 0.922231
vt 0.507622 0.881982
vt 0.511692 0.900015
vt 0.489666 0.900137
vt 0.580288 0.220048
vt 0.602597 0.219251
vt 0.595593 0.231166
vt 0.484047 0.918288
vt 0.483902 0.881354
vt 0.469443 0.898677
vt 0.461404 0.882670
vt 0.450183 0.899039
vt 0.464541 0.917413
vt 0.468275 0.936341
vt 0.471954 0.946277
vt 0.450867 0.951575
vt 0.488129 0.950503
vt 0.459843 0.957822
vt 0.474275 0.794513
vt 0.477930 0.782470
vt 0.464248 0.968801
vt 0.593648 0.229043
vt 0.594800 0.219921
vt 0.444295 0.950359
vt 0.455896 0.935741
vt 0.578071 0.229878
vt 0.581080 0.226636
vt 0.582821 0.231325
vt 0.444016 0.932284
vt 0.589242 0.231216
vt 0.447125 0.916158
vt 0.594684 0.224169
vt 0.596039 0.231008
vt 0.534866 0.881347
vt 0.436167 0.876832
vt 0.451786 0.873540
vt 0.502622 0.869488
vt 0.478622 0.869260
vt 0.600669 0.228516
vt 0.470367 0.846306
vt 0.436632 0.875280
vt 0.588033 0.222815
vt 0.620369 0.220488
vt 0.617885 0.228883
vt 0.604039 0.223910
vt 0.625993 0.229515
vt 0.627942 0.223514
vt 0.630553 0.227391
vt 0.474575 0.826305
vt 0.456368 0.843249
vt 0.468600 0.807609
vt 0.462220 0.823292
vt 0.860756 0.332332
vt 0.993439 0.371060
vt 0.986188 0.383142
vt 0.682025 0.226976
vt 0.679969 0.227249
vt 0.679746 0.240699
vt 0.359744 0.137364
vt 0.391687 0.134896
vt 0.379208 0.097067
vt 0.392501 0.134914
vt 0.338867 0.016386
vt 0.351992 0.060701
vt 0.355868 0.099033
vt 0.358824 0.195455
vt 0.357904 0.253546
vt 0.317688 0.022378
vt 0.316028 0.010349
vt 0.365914 0.059220
vt 0.188288 0.626633
vt 0.020225 0.627476
vt 0.077847 0.729049
vt 0.337959 0.102316
vt 0.605326 0.051490
vt 0.620218 0.074402
vt 0.243365 0.103028
vt 0.606609 0.090856
vt 0.080172 0.144983
vt 0.165866 0.103946
vt 0.385193 0.253546
vt 0.333056 0.253546
vt 0.413857 0.131288
vt 0.459290 0.199353
vt 0.286566 0.257455
vt 0.286064 0.205085
vt 0.260233 0.253546
vt 0.180066 0.618899
vt 0.041004 0.571204
vt 0.031313 0.580504
vt 0.176801 0.615736
vt 0.131432 0.592259
vt 0.168093 0.605199
vt 0.087753 0.577968
vt 0.126587 0.355421
vt 0.542484 0.399799
vt 0.686910 0.758599
vt 0.586835 0.222039
vt 0.016410 0.799097
vt 0.148475 0.720072
vt 0.112435 0.731387
vt 0.084152 0.729883
vt 0.033136 0.705214
vt 0.025959 0.628575
vt 0.025663 0.589717
vt 0.019321 0.677833
vt 0.192463 0.676215
vt 0.778378 0.672029
vt 0.084388 0.511316
vt 0.023385 0.509676
vt 0.024874 0.410259
vt 0.501364 0.360326
vt 0.292615 0.013201
vt 0.157751 0.257609
vt 0.305025 0.313375
vt 0.507675 0.653310
vt 0.608429 0.224637
vt 0.167552 0.508667
vt 0.967338 0.518460
vt 0.937757 0.213909
vt 0.591695 0.226894
vt 0.981627 0.633093
vt 0.446385 0.886139
vt 0.437892 0.943408
vt 0.609547 0.219908
vt 0.459305 0.810763
vt 0.679907 0.223732
vt 0.684787 0.235652
vt 0.107612 0.733849
vt 0.168687 0.701495
vt 0.187110 0.679257
vt 0.192365 0.649132
vt 0.140452 0.724767
vt 0.012425 0.676347
vt 0.026831 0.704379
vt 0.030940 0.580778
vt 0.233836 0.149685
vt 0.307681 0.260387
vt 0.458854 0.253546
vt 0.187870 0.626400
vn -0.330200 0.725400 -0.603900
vn -0.571000 0.732000 -0.371500
vn 0.607300 0.761800 -0.225600
vn -0.973200 0.080000 -0.215500
vn -0.786300 0.591800 -0.177100
vn -0.924800 0.253000 -0.284100
vn -0.427400 0.590100 -0.684800
vn -0.807600 -0.160600 -0.567400
vn -0.793900 -0.590800 -0.143500
vn -0.613100 -0.762600 -0.206000
vn -0.456300 -0.639800 -0.618400
vn -0.339200 -0.936000 -0.094100
vn 0.412400 -0.651700 -0.636500
vn 0.908900 -0.378300 -0.175400
vn 0.124800 -0.991900 -0.025500
vn 0.398400 0.134800 -0.907200
vn -0.379600 -0.905600 -0.189100
vn -0.524800 -0.851000 -0.016400
vn 0.350600 -0.928300 -0.123700
vn -0.090900 -0.963800 -0.250400
vn -0.772000 -0.634200 -0.041400
vn -0.975500 -0.132100 -0.176000
vn -0.592900 -0.790800 0.152000
vn -0.940900 -0.332200 0.066500
vn -0.624000 0.525600 0.578200
vn -0.839000 -0.339500 0.425100
vn -0.497100 -0.198500 0.844700
vn -0.505000 -0.783500 0.361900
vn -0.353800 -0.563200 0.746800
vn -0.774700 0.620400 0.121700
vn -0.410400 0.342000 -0.845300
vn 0.861600 -0.494800 0.112800
vn 0.098800 -0.962700 0.252000
vn 0.311100 -0.817000 0.485500
vn -0.216900 0.317800 0.923000
vn 0.704800 -0.183700 0.685200
vn 0.464500 0.390000 0.795000
vn 0.764900 0.533100 0.361600
vn 0.594600 -0.446700 0.668400
vn 0.335500 0.908400 0.249600
vn 0.181800 0.983300 0.002300
vn 0.472800 0.704300 -0.529600
vn 0.462300 -0.880400 -0.105800
vn 0.136700 -0.980500 -0.141200
vn 0.820500 -0.568300 0.061700
vn 0.852000 -0.514300 0.098000
vn 0.998800 0.034000 0.034500
vn 0.995400 -0.034700 0.089500
vn 0.986900 -0.111700 -0.116300
vn 0.922400 0.385000 0.030200
vn 0.944200 -0.056400 -0.324400
vn -0.620800 0.744500 0.245500
vn 0.140000 -0.255200 -0.956700
vn -0.139000 0.914700 0.379500
vn 0.775400 0.607000 -0.173700
vn 0.119200 0.985800 0.117900
vn 0.384700 0.682900 0.621000
vn 0.509600 0.335300 0.792400
vn 0.178100 0.983900 -0.010800
vn 0.103100 0.669800 0.735300
vn 0.362200 0.915300 -0.176200
vn 0.616600 0.786000 -0.044000
vn 0.836600 0.512700 -0.192600
vn 0.664900 0.720500 -0.196800
vn 0.107200 0.927900 -0.357100
vn 0.274500 0.961300 -0.022400
vn 0.080900 0.820600 -0.565800
vn 0.713000 0.661400 -0.232600
vn -0.162600 -0.961300 0.222100
vn 0.806200 -0.575000 0.139000
vn 0.999600 0.023500 0.016100
vn -0.027000 -0.987100 0.157500
vn 0.818300 -0.556100 0.145000
vn 0.948500 -0.312100 0.053300
vn 0.665400 -0.740700 -0.092100
vn 0.643800 -0.579400 -0.499700
vn 0.990900 -0.058600 0.121300
vn 0.748200 0.663400 0.005300
vn 0.020300 0.976700 -0.213500
vn -0.001900 0.910500 -0.413500
vn -0.736400 0.580300 -0.347600
vn -0.700800 0.667200 -0.252100
vn -0.989600 -0.096400 -0.106900
vn -0.756300 0.493400 -0.429600
vn -0.522900 0.796300 -0.304000
vn 0.012200 0.996500 -0.082600
vn 0.139000 0.977800 -0.156900
vn -0.124300 0.987800 0.093400
vn -0.104400 0.956000 0.274100
vn -0.037400 0.686800 0.725900
vn -0.060400 0.993000 -0.101400
vn 0.222100 0.975000 0.007600
vn 0.113000 0.991000 -0.071400
vn -0.112400 0.873000 -0.474600
vn -0.275400 -0.415900 -0.866700
vn -0.044000 0.158800 -0.986300
vn 0.744300 0.486900 -0.457000
vn -0.072400 -0.438800 -0.895600
vn -0.148600 -0.835700 -0.528600
vn 0.089900 -0.706500 -0.701900
vn 0.040100 -0.935200 -0.351700
vn -0.147200 -0.889900 -0.431700
vn 0.185800 -0.960300 -0.207900
vn 0.032700 -0.999300 -0.018800
vn -0.063900 -0.997900 0.009600
vn 0.222900 -0.968500 -0.111200
vn 0.148900 -0.988500 -0.024800
vn 0.279000 -0.958600 -0.057500
vn 0.451100 -0.892200 0.021500
vn -0.821200 -0.567600 0.058800
vn -0.990500 -0.047300 -0.128600
vn -0.814800 -0.579300 0.022300
vn -0.817300 -0.525100 -0.237100
vn -0.785800 -0.320600 -0.528800
vn -0.604900 -0.763800 -0.225000
vn -0.978300 -0.025900 -0.205700
vn -0.729800 0.683000 0.027900
vn -0.514500 0.829100 -0.218800
vn -0.957900 0.192400 -0.212900
vn -0.651200 0.690600 -0.314600
vn -0.979500 0.047800 -0.195700
vn -0.568800 -0.510400 -0.644900
vn -0.999000 0.027700 -0.034700
vn -0.993800 0.027900 -0.107800
vn -0.776500 -0.576200 0.255000
vn 0.063500 -0.805400 0.589300
vn -0.104200 -0.968700 -0.225200
vn 0.133500 -0.462600 0.876400
vn -0.482600 -0.450800 0.750800
vn -0.275700 -0.606700 0.745600
vn -0.865500 -0.350900 0.357400
vn -0.459000 -0.756300 0.466100
vn -0.976800 -0.143900 0.158200
vn -0.748500 0.194200 -0.634100
vn -0.755400 0.599700 0.264000
vn -0.699400 0.573100 -0.427000
vn 0.274100 0.916000 0.292900
vn -0.048200 0.910000 0.411600
vn 0.816600 0.534000 0.219200
vn 0.047600 0.934700 0.352200
vn 0.993100 -0.026900 -0.114000
vn 0.977900 -0.152600 0.143000
vn 0.777600 0.513700 0.362500
vn 0.941800 -0.222100 -0.252300
vn 0.972000 0.187400 -0.142000
vn 0.858300 0.424800 0.287700
vn 0.242100 0.853300 0.461800
vn 0.696200 0.286600 -0.658100
vn 0.917400 0.109700 -0.382400
vn 0.001100 0.364300 -0.931200
vn 0.055200 -0.613000 -0.788100
vn 0.622000 -0.564300 -0.542800
vn 0.750100 -0.565200 0.343300
vn 0.649000 -0.749600 -0.129800
vn 0.180500 -0.652600 0.735800
vn 0.652800 -0.499900 0.569100
vn 0.776900 -0.264800 -0.571200
vn 0.292800 -0.645400 -0.705500
vn -0.685500 -0.507500 -0.522000
vn -0.592600 0.264000 -0.761000
vn 0.001500 0.380100 -0.924900
vn -0.182100 -0.672300 -0.717500
vn 0.407100 -0.899400 -0.159100
vn 0.906800 -0.222300 -0.358100
vn 0.707100 -0.667500 -0.233200
vn 0.704600 -0.708200 -0.043500
vn 0.316100 -0.833500 0.453100
vn 0.422600 -0.900600 0.101300
vn 0.092400 -0.979500 0.179000
vn -0.040700 -0.997500 -0.057800
vn -0.195700 -0.967700 0.159000
vn 0.066500 -0.883800 0.463000
vn -0.333200 -0.942500 -0.024100
vn -0.178500 -0.982900 -0.045400
vn -0.132800 -0.989700 0.052000
vn -0.275100 -0.960700 0.036100
vn -0.381900 -0.922600 0.053600
vn -0.359400 -0.928200 0.096000
vn -0.552000 -0.817000 0.166500
vn -0.514900 -0.833400 0.200600
vn -0.458300 -0.888600 0.018600
vn -0.612900 -0.789900 0.019300
vn -0.237300 -0.968700 0.073200
vn -0.492900 -0.862700 -0.112900
vn -0.209800 -0.931000 -0.298500
vn -0.082000 -0.973300 -0.214200
vn 0.779800 -0.626000 -0.000200
vn 0.995700 -0.092300 -0.009200
vn 0.941000 -0.224300 -0.253500
vn 0.804300 0.585700 -0.099800
vn 0.997000 -0.057300 -0.052200
vn 0.810900 0.584100 -0.036100
vn 0.833300 -0.552200 -0.023500
vn 0.021200 -0.999600 -0.015600
vn 0.710400 -0.636400 -0.300300
vn 0.070700 -0.997400 0.013900
vn 0.010300 -0.944000 -0.329700
vn -0.038900 -0.905600 -0.422300
vn -0.704000 -0.696700 -0.137600
vn 0.616600 -0.730600 -0.293200
vn 0.981200 -0.053700 -0.185100
vn 0.977000 -0.053600 -0.206400
vn 0.783100 0.485500 -0.388400
vn 0.966100 0.254500 -0.043500
vn 0.847500 -0.524200 0.082900
vn 0.051100 -0.995700 0.077300
vn -0.792700 -0.582800 -0.178700
vn -0.996900 -0.002200 -0.077800
vn -0.768200 -0.640000 0.016400
vn -0.757000 -0.647800 -0.085000
vn -0.831400 -0.551600 -0.066900
vn -0.987600 0.133600 -0.082100
vn -0.993600 0.025600 -0.110200
vn -0.927900 -0.372500 0.013500
vn -0.999100 0.036900 0.022100
vn -0.895600 -0.428100 -0.120900
vn -0.784000 -0.601200 -0.154600
vn -0.640600 -0.748100 0.173100
vn -0.480500 -0.699700 -0.528600
vn -0.546500 -0.141200 -0.825400
vn -0.301700 0.164700 -0.939100
vn -0.978600 0.008400 -0.205600
vn -0.799500 0.510600 -0.316300
vn -0.869800 0.491100 -0.046600
vn 0.855000 0.414800 -0.311100
vn 0.512000 0.849700 0.125600
vn 0.702300 -0.491900 0.514600
vn 0.936300 -0.120700 0.329800
vn 0.941100 0.192700 0.277700
vn -0.350900 -0.915500 -0.196800
vn -0.754700 -0.654600 0.043300
vn -0.818500 -0.561400 0.121400
vn -0.670300 -0.741200 0.035300
vn -0.510400 -0.581900 0.633200
vn -0.718700 -0.322900 0.615700
vn -0.758200 -0.198300 0.621100
vn -0.891900 -0.105700 0.439600
vn -0.969300 -0.211600 -0.124900
vn -0.989100 0.123800 -0.079500
vn -0.794200 -0.598400 -0.105300
vn 0.149900 -0.949300 0.276200
vn 0.337400 -0.857000 0.389400
vn 0.976700 0.043200 0.210200
vn 0.517200 -0.709900 0.478000
vn 0.273300 -0.447500 0.851500
vn 0.848200 0.529100 0.024000
vn 0.835400 0.535900 -0.121600
vn 0.832900 0.443800 0.330500
vn 0.751100 0.638800 -0.166400
vn 0.622200 0.782800 -0.004000
vn 0.666900 0.741800 -0.069900
vn 0.525100 0.672000 0.522200
vn 0.265100 -0.081400 0.960800
vn -0.457100 -0.808000 0.371700
vn -0.142300 -0.717800 0.681500
vn 0.209600 -0.810000 0.547700
vn 0.411700 -0.081900 0.907600
vn 0.263200 0.820200 0.508000
vn 0.549600 0.001200 0.835400
vn 0.142300 0.819000 0.555800
vn -0.115200 0.824900 0.553500
vn -0.363100 0.810900 -0.458800
vn 0.149900 0.941600 -0.301600
vn -0.188100 0.559300 -0.807300
vn 0.156800 0.010800 -0.987500
vn 0.877900 0.338900 -0.338400
vn 0.573700 -0.695900 0.431900
vn 0.424000 -0.814400 -0.396100
vn 0.183800 -0.977600 -0.102800
vn -0.262500 -0.950000 0.168700
vn 0.054000 -0.991800 -0.115700
vn -0.522800 -0.850500 0.057700
vn -0.064200 -0.983400 -0.169700
vn 0.759600 -0.514800 0.397400
vn -0.662800 -0.744700 -0.078200
vn -0.483700 -0.823100 -0.297600
vn -0.734200 -0.677300 0.046700
vn -0.941500 -0.238300 -0.238200
vn -0.815900 -0.578100 -0.010600
vn -0.236100 -0.920700 0.310700
vn -0.563800 -0.824700 0.044400
vn -0.946300 -0.200500 -0.253700
vn -0.872700 0.315500 -0.372600
vn -0.945900 -0.013200 -0.324000
vn -0.442500 0.671600 -0.594200
vn 0.461700 0.794800 -0.393800
vn 0.380100 0.820700 -0.426600
vn -0.628300 0.777900 0.007100
vn -0.035400 0.992600 0.115600
vn -0.294000 0.908200 -0.297900
vn -0.373600 0.278300 0.884900
vn 0.241600 0.797400 0.552900
vn -0.136400 0.805500 0.576600
vn -0.188000 0.641200 -0.743900
vn 0.291000 0.925900 0.240700
vn 0.321400 0.939800 0.115600
vn -0.276200 0.935600 -0.219700
vn -0.174200 0.587300 0.790400
vn 0.142900 0.847600 0.511000
vn -0.383300 0.288000 0.877500
vn 0.049300 0.874900 0.481800
vn -0.223100 0.182400 0.957600
vn 0.143700 0.785100 0.602400
vn 0.116800 0.991800 0.051300
vn 0.064400 0.997800 0.014500
vn 0.165800 0.983000 -0.078900
vn 0.105900 0.989700 -0.095900
vn 0.497200 0.825000 -0.268600
vn -0.128300 0.971200 -0.200600
vn -0.056100 0.996800 -0.056500
vn -0.147100 0.915900 -0.373400
vn -0.002300 0.988600 -0.150400
vn -0.026800 0.998100 0.055300
vn 0.762400 0.556700 -0.329900
vn -0.108700 0.946800 -0.302700
vn 0.735300 0.677000 0.030800
vn 0.705900 0.333400 -0.624900
vn 0.070300 0.867200 -0.492900
vn 0.990900 -0.060200 -0.120000
vn 0.144800 -0.597800 0.788400
vn 0.805200 -0.169200 0.568300
vn 0.166300 -0.264600 0.949900
vn 0.950200 -0.122200 0.286600
vn 0.738000 -0.485200 0.469000
vn -0.156900 -0.290000 0.944100
vn -0.325100 -0.390300 0.861400
vn -0.439000 -0.256100 0.861200
vn -0.759700 -0.188400 0.622300
vn -0.820400 -0.102800 0.562400
vn -0.816400 -0.572600 0.074500
vn -0.728900 -0.401300 0.554600
vn -0.060500 -0.586000 0.808000
vn -0.996400 0.080300 0.028000
vn -0.993200 0.116100 -0.008500
vn -0.806500 0.591300 -0.002300
vn -0.972700 -0.003000 -0.232200
vn -0.902200 0.419500 -0.099900
vn -0.811700 0.583800 0.013200
vn -0.053200 0.994400 -0.090600
vn -0.635300 0.772000 0.017500
vn -0.640900 0.757700 -0.122600
vn -0.749200 0.638900 -0.174700
vn -0.616800 0.783200 -0.077900
vn -0.460400 0.875600 -0.145600
vn -0.992700 0.120400 0.005200
vn -0.626700 0.485300 -0.609600
vn -0.080200 0.992600 0.091600
vn -0.800000 0.100800 -0.591500
vn -0.060000 0.106000 -0.992600
vn -0.034300 0.099400 -0.994400
vn 0.461800 0.066800 -0.884400
vn 0.744700 0.045000 -0.665800
vn 0.602900 -0.682600 -0.412900
vn -0.311000 -0.837600 -0.449000
vn -0.342300 -0.504600 0.792600
vn -0.715000 -0.622500 -0.318000
vn -0.848900 0.049300 -0.526200
vn -0.005500 0.869400 0.494000
vn 0.119200 0.577600 0.807500
vn -0.426100 -0.259700 0.866600
vn -0.234100 0.186500 0.954100
vn 0.197700 0.370100 0.907700
vn 0.382700 0.108900 0.917400
vn 0.393800 -0.455800 0.798200
vn 0.219600 0.050000 0.974300
vn 0.370200 -0.396500 0.840100
vn 0.192900 -0.006000 0.981200
vn 0.776200 -0.308900 0.549600
vn 0.669300 -0.742800 0.016400
vn 0.980800 -0.072700 0.180900
vn 0.767600 0.419100 0.484900
vn 0.274700 0.795700 0.539800
vn 0.877900 0.431000 0.208600
vn 0.948800 -0.297400 -0.106100
vn 0.749200 -0.614900 -0.246000
vn 0.499200 -0.764400 -0.408000
vn 0.234300 -0.972100 -0.001600
vn 0.763500 -0.618600 0.185200
vn 0.959400 0.281900 -0.007600
vn 0.535000 0.842200 -0.065700
vn 0.256200 0.914500 0.313000
vn -0.114300 0.952100 -0.283600
vn -0.468000 0.856500 0.217500
vn 0.955300 0.237500 -0.176200
vn 0.444300 0.669900 -0.594900
vn 0.094600 0.554600 -0.826700
vn -0.330300 0.663400 -0.671400
vn -0.783700 0.530100 -0.323700
vn -0.946600 0.310100 -0.088700
vn -0.805400 -0.406300 -0.431400
vn 0.226000 -0.427200 -0.875400
vn 0.617900 -0.593700 -0.515400
vn 0.596600 -0.770800 0.223300
vn 0.253500 -0.767200 -0.589100
vn -0.329400 -0.816200 -0.474700
vn -0.987100 -0.100300 -0.124500
vn -0.608100 -0.793800 -0.006800
vn -0.282100 0.392900 -0.875200
vn -0.845800 0.517400 -0.130100
vn -0.798800 0.441300 -0.408900
vn -0.577700 -0.444000 0.684800
vn -0.903500 -0.216000 0.370200
vn -0.718800 -0.182900 0.670700
vn -0.945200 0.315100 -0.084700
vn -0.725000 -0.487300 0.486700
vn 0.194700 0.143200 -0.970300
vn -0.887600 0.172200 -0.427200
vn 0.245700 -0.954900 -0.166600
vn 0.957500 -0.168200 0.234100
vn 0.921200 0.200800 -0.333300
vn 0.824200 0.427900 -0.370800
vn -0.937200 0.348600 -0.010600
vn 0.709000 -0.671400 0.215500
vn 0.564600 -0.613000 -0.552700
vn 0.827700 0.460700 -0.320400
vn 0.487000 0.841900 -0.232500
vn -0.558000 0.793000 0.244600
vn -0.441600 0.464900 -0.767400
vn -0.435100 0.236500 -0.868700
vn 0.113200 -0.910600 -0.397500
vn 0.532400 -0.562600 0.632400
vn 0.866400 -0.351400 0.354700
vn 0.321600 -0.697600 0.640200
vn -0.343800 -0.696800 0.629500
vn -0.027100 -0.602200 0.797900
vn -0.130600 -0.786800 0.603200
vn 0.370200 -0.858800 0.354000
vn -0.646400 -0.761900 -0.039800
vn -0.613600 0.428100 -0.663400
vn 0.580800 -0.806200 0.112700
vn 0.942900 -0.255400 0.213500
vn 0.818100 0.487500 0.305100
vn 0.836200 0.124100 -0.534200
vn -0.227800 -0.257600 0.939000
vn -0.194300 0.278500 0.940500
vn 0.474500 -0.880200 0.005800
vn 0.489800 -0.832400 0.259200
vn -0.849200 -0.459300 0.260400
vn -0.725100 -0.343700 0.596700
vn 0.274500 -0.704600 0.654400
vn -0.553800 -0.135500 0.821500
vn 0.490400 -0.133900 0.861100
vn 0.889600 -0.279900 0.361000
vn 0.439100 0.382900 0.812700
vn 0.782900 0.548200 0.294200
vn -0.749100 0.269200 0.605200
vn -0.503300 0.731100 0.460600
vn 0.861900 0.481200 -0.159700
vn 0.911500 -0.024000 -0.410500
vn 0.559500 0.685100 -0.466500
vn -0.559500 0.802300 -0.208000
vn 0.621000 -0.337000 -0.707700
vn 0.650700 -0.169700 -0.740100
vn -0.397900 -0.881200 -0.255200
vn -0.183400 -0.983000 0.004500
vn -0.557100 -0.507600 -0.657200
vn -0.076300 -0.868700 -0.489400
vn -0.095200 -0.984600 0.146200
vn -0.586700 -0.769800 0.251100
vn -0.624800 -0.780700 0.010600
vn -0.697000 -0.477600 0.534800
vn -0.563700 -0.484500 0.669000
vn -0.398400 -0.893900 0.205500
vn -0.335600 -0.916000 0.219600
vn 0.708300 -0.679300 -0.191900
vn -0.517000 -0.800600 -0.303000
vn 0.551600 -0.776500 -0.304600
vn 0.917800 -0.262200 -0.298100
vn 0.899100 -0.365800 -0.240100
vn 0.829500 0.553700 0.073000
vn -0.801700 0.585100 -0.122500
vn -0.600400 0.626100 0.497500
vn -0.806200 -0.553000 -0.210100
vn -0.686200 0.569000 0.453100
vn 0.523200 0.851500 0.034600
vn 0.592200 0.805500 -0.021900
vn 0.864300 0.499100 0.062400
vn -0.506900 0.726800 -0.463400
vn 0.362300 0.889300 -0.279000
vn 0.241900 0.969400 -0.041000
vn 0.560700 0.827300 0.032400
vn 0.028700 -0.012200 -0.999500
vn -0.490200 0.701300 -0.517400
vn 0.529200 0.837900 0.133200
vn -0.571600 0.726200 -0.382000
vn -0.037400 0.946300 0.320900
vn -0.627400 0.649300 -0.429800
vn -0.337600 0.749300 0.569700
vn 0.262800 0.782800 0.564100
vn 0.742900 0.640600 0.194100
vn 0.834000 0.513600 -0.201300
vn 0.418100 0.908400 0.004300
vn 0.681000 -0.435200 -0.588900
vn 0.550800 -0.425200 0.718200
vn 0.441400 0.376100 0.814600
vn 0.599400 -0.349000 0.720300
vn 0.771700 0.633800 0.052500
vn 0.125800 0.324000 0.937600
vn -0.082800 0.553400 0.828800
vn -0.536300 0.619800 -0.573000
vn -0.448000 -0.319200 -0.835100
vn -0.917500 -0.268200 -0.293500
vn -0.796300 -0.343300 -0.498000
vn -0.120400 -0.743900 -0.657300
vn 0.274800 0.868500 -0.412500
vn 0.422300 -0.252500 -0.870500
vn 0.713600 -0.598100 -0.364700
vn 0.275600 -0.951200 -0.138600
vn -0.423400 -0.607100 -0.672400
vn 0.982300 0.149000 0.113300
vn 0.656000 0.598700 -0.459500
vn 0.820000 -0.217300 0.529400
vn 0.895400 -0.212400 0.391400
vn 0.982700 -0.087600 0.163200
vn 0.253600 -0.873700 0.415200
vn 0.555800 -0.385000 0.736800
vn 0.020400 0.994900 -0.098400
vn 0.332400 -0.295700 0.895500
vn -0.722000 -0.656400 -0.218500
vn -0.047100 -0.969900 -0.238800
vn 0.682600 -0.507600 -0.525600
s 1
f 5/1/1 10/2/2 25/3/3
f 18/4/4 28/5/5 10/2/2
f 14/6/6 5/1/1 12/7/7
f 14/6/6 6/8/8 18/4/4
f 14/6/6 18/4/4 10/2/2
f 18/4/4 6/8/8 11/9/9
f 11/9/9 6/8/8 32/10/10
f 6/8/8 20/11/11 32/10/10
f 32/10/10 20/11/11 26/12/12
f 34/13/13 33/14/14 35/15/15
f 34/13/13 20/11/11 19/16/16
f 34/13/13 35/15/15 26/12/12
f 26/12/12 24/17/17 17/18/18
f 24/17/17 36/19/19 30/20/20
f 17/18/18 32/10/10 26/12/12
f 17/18/18 11/9/9 32/10/10
f 17/18/18 27/21/21 11/9/9
f 18/4/4 29/22/22 28/5/5
f 29/22/22 18/4/4 11/9/9
f 27/21/21 7/23/23 15/24/24
f 9/25/25 16/26/26 13/27/27
f 16/26/26 8/28/28 3/29/29
f 15/24/24 7/23/23 8/28/28
f 16/26/26 9/25/25 4/30/30
f 4/30/30 28/5/5 29/22/22
f 1/31/31 14/6/6 12/7/7
f 14/6/6 1/31/31 6/8/8
f 19/16/16 20/11/11 6/8/8
f 35/15/15 36/19/19 24/17/17
f 30/20/20 36/19/19 37/32/32
f 30/20/20 21/33/33 17/18/18
f 7/23/23 27/21/21 17/18/18
f 7/23/23 21/33/33 23/34/34
f 2/35/35 38/36/36 41/37/37
f 40/38/38 9/39/25 2/35/35
f 2/40/35 13/27/27 38/41/36
f 3/29/29 38/41/36 13/27/27
f 3/29/29 39/42/39 38/41/36
f 3/29/29 8/28/28 23/34/34
f 9/39/25 40/38/38 42/43/40
f 42/43/40 31/44/41 28/5/5
f 31/44/41 25/3/3 10/2/2
f 33/14/14 37/32/32 35/15/15
f 37/32/32 36/19/19 35/15/15
f 25/45/3 31/46/41 40/47/38
f 22/48/42 25/49/3 33/50/14
f 22/48/42 34/51/13 19/52/16
f 1/53/31 12/54/7 5/55/1
f 44/56/43 337/57/44 56/58/45
f 44/56/43 56/58/45 174/59/46
f 56/58/45 206/60/47 251/61/48
f 174/62/46 251/63/48 208/64/49
f 173/65/50 59/66/51 208/67/49
f 59/66/51 67/68/52 212/69/53
f 67/68/52 59/66/51 385/70/54
f 59/66/51 47/71/55 381/72/56
f 381/72/56 51/73/57 63/74/58
f 381/72/56 420/75/59 334/76/60
f 420/75/59 381/72/56 47/71/55
f 332/77/61 47/71/55 169/78/62
f 47/71/55 59/66/51 173/65/50
f 173/79/50 55/80/63 43/81/64
f 43/81/64 330/82/65 349/83/66
f 43/81/64 55/80/63 336/84/67
f 336/84/67 55/80/63 144/85/68
f 144/85/68 55/80/63 206/86/47
f 206/86/47 55/80/63 173/79/50
f 56/58/45 339/87/69 145/88/70
f 145/88/70 239/89/71 206/60/47
f 145/88/70 341/90/72 153/91/73
f 507/92/74 508/93/75 157/94/76
f 153/91/73 243/95/77 239/89/71
f 152/96/78 144/85/68 239/97/71
f 340/98/79 338/99/80 144/85/68
f 148/100/81 154/101/82 241/102/83
f 154/101/82 148/100/81 338/99/80
f 148/100/81 123/103/84 336/84/67
f 111/104/85 330/82/65 336/84/67
f 111/104/85 179/105/86 349/83/66
f 115/106/87 332/77/61 349/107/66
f 332/77/61 115/106/87 406/108/88
f 406/108/88 410/109/89 119/110/90
f 410/109/89 265/111/91 116/112/92
f 406/108/88 115/106/87 265/111/91
f 115/106/87 179/113/86 277/114/93
f 179/105/86 111/104/85 263/115/94
f 123/103/84 279/116/95 269/117/96
f 263/115/94 111/104/85 123/103/84
f 263/115/94 269/117/96 124/118/97
f 124/118/97 269/117/96 279/116/95
f 270/119/98 279/120/95 125/121/99
f 279/120/95 270/119/98 126/122/100
f 270/119/98 264/123/101 114/124/102
f 125/121/99 113/125/103 264/123/101
f 113/125/103 177/126/104 276/127/105
f 331/128/106 348/129/107 177/126/104
f 177/130/104 348/131/107 333/132/108
f 333/132/108 348/131/107 170/133/109
f 44/56/43 331/128/106 337/57/44
f 331/128/106 44/56/43 170/134/109
f 337/57/44 125/121/99 150/135/110
f 337/57/44 331/128/106 113/125/103
f 125/121/99 279/120/95 150/135/110
f 279/120/95 241/136/83 150/135/110
f 241/136/83 244/137/111 150/135/110
f 150/135/110 244/137/111 155/138/112
f 501/139/113 159/140/114 511/141/115
f 155/138/112 244/137/111 504/142/116
f 244/143/111 241/102/83 154/101/82
f 502/144/117 158/145/118 246/146/119
f 162/147/120 248/148/121 246/146/119
f 248/149/121 163/150/122 159/140/114
f 495/151/123 250/152/124 165/153/125
f 165/153/125 347/154/126 498/155/127
f 481/156/128 478/157/129 395/158/130
f 395/158/130 450/159/131 168/160/132
f 478/157/129 479/161/133 450/159/131
f 168/160/132 450/159/131 408/162/134
f 494/163/135 164/164/136 250/165/124
f 494/163/135 162/166/120 344/167/137
f 162/147/120 158/145/118 342/168/138
f 344/169/137 342/168/138 156/170/139
f 506/171/140 340/98/79 152/96/78
f 157/94/76 245/172/141 505/173/142
f 505/174/142 503/175/143 152/96/78
f 245/176/141 247/177/144 160/178/145
f 500/179/146 497/180/147 344/167/137
f 477/181/148 464/182/149 456/183/150
f 157/94/76 345/184/151 161/185/152
f 247/186/144 245/172/141 157/94/76
f 347/154/126 460/187/153 499/188/154
f 481/156/128 455/189/155 461/190/156
f 166/191/157 465/192/158 456/183/150
f 465/192/158 167/193/159 408/194/134
f 408/162/134 450/159/131 479/161/133
f 483/195/160 482/196/161 456/183/150
f 345/184/151 157/94/76 343/197/162
f 509/198/163 508/93/75 153/91/73
f 509/198/163 153/91/73 341/90/72
f 511/141/115 159/140/114 343/197/162
f 163/150/122 345/184/151 343/197/162
f 502/144/117 154/101/82 340/98/79
f 339/87/69 337/57/44 150/135/110
f 339/87/69 341/90/72 145/88/70
f 339/87/69 150/135/110 155/138/112
f 337/57/44 339/87/69 56/58/45
f 241/102/83 279/116/95 123/103/84
f 60/199/164 380/200/165 48/201/166
f 48/201/166 170/133/109 174/62/46
f 380/200/165 335/202/167 419/203/168
f 419/203/168 333/132/108 48/201/166
f 405/204/169 117/205/170 333/132/108
f 409/206/171 405/204/169 121/207/172
f 409/206/171 118/208/173 266/209/174
f 266/209/174 117/205/170 405/204/169
f 276/210/105 177/130/104 117/205/170
f 266/209/174 118/208/173 178/211/175
f 178/211/175 118/208/173 305/212/176
f 404/213/177 118/214/173 409/215/171
f 418/216/178 305/217/176 118/214/173
f 379/218/179 418/216/178 307/219/180
f 379/218/179 49/220/181 305/217/176
f 49/221/181 171/222/182 314/223/183
f 45/224/184 309/225/185 303/226/186
f 45/224/184 303/226/186 314/227/183
f 303/226/186 114/124/102 178/228/175
f 114/124/102 264/123/101 276/127/105
f 309/225/185 151/229/187 126/122/100
f 126/122/100 114/124/102 303/226/186
f 151/229/187 242/230/188 230/231/189
f 230/232/189 242/233/188 149/234/190
f 242/233/188 254/235/191 183/236/192
f 184/237/193 151/229/187 313/238/194
f 184/237/193 254/239/191 242/230/188
f 254/239/191 184/237/193 188/240/195
f 317/241/196 184/237/193 313/238/194
f 317/241/196 319/242/197 188/240/195
f 321/243/198 319/242/197 185/244/199
f 321/243/198 192/245/200 188/240/195
f 192/245/200 258/246/201 256/247/202
f 256/248/202 258/249/201 191/250/203
f 191/251/203 258/252/201 260/253/204
f 258/254/201 192/255/200 196/256/205
f 323/257/206 321/258/198 189/259/207
f 323/260/206 196/256/205 192/255/200
f 189/261/207 321/243/198 185/244/199
f 189/261/207 185/244/199 255/262/208
f 255/262/208 185/244/199 181/263/209
f 319/242/197 317/241/196 181/263/209
f 146/264/210 313/238/194 57/265/211
f 181/263/209 317/241/196 313/238/194
f 181/263/209 146/264/210 240/266/212
f 146/264/210 57/265/211 207/267/213
f 57/265/211 175/268/214 252/269/215
f 45/224/184 57/265/211 309/225/185
f 45/224/184 171/270/182 175/268/214
f 171/222/182 49/221/181 61/271/216
f 383/272/217 379/218/179 53/273/218
f 383/272/217 61/274/216 49/220/181
f 383/272/217 397/275/219 95/276/220
f 95/276/220 222/277/221 209/278/222
f 209/279/222 252/280/215 175/281/214
f 209/282/222 62/283/223 176/284/224
f 62/285/223 209/286/222 222/287/221
f 222/287/221 224/288/225 100/289/226
f 512/290/227 103/291/228 519/292/229
f 224/293/225 222/277/221 95/276/220
f 95/276/220 397/275/219 399/294/230
f 397/275/219 97/295/231 101/296/232
f 383/272/217 53/273/218 65/297/233
f 65/297/233 97/295/231 397/275/219
f 65/297/233 328/298/234 211/299/235
f 211/299/235 223/300/236 97/295/231
f 223/300/236 225/301/237 101/296/232
f 514/302/238 225/301/237 521/303/239
f 514/302/238 513/304/240 101/296/232
f 513/304/240 515/305/241 399/294/230
f 401/306/242 103/291/228 512/290/227
f 107/307/243 403/308/244 411/309/245
f 403/308/244 107/307/243 103/291/228
f 519/310/229 517/311/246 224/288/225
f 103/312/228 107/313/243 228/314/247
f 107/313/243 411/315/245 281/316/248
f 107/313/243 281/316/248 294/317/249
f 281/316/248 369/318/250 371/319/251
f 369/318/250 281/316/248 372/320/252
f 281/316/248 411/315/245 429/321/253
f 411/309/245 283/322/254 373/323/255
f 359/324/256 423/325/257 429/326/253
f 423/327/257 357/328/258 372/320/252
f 427/329/259 360/330/260 365/331/261
f 427/332/259 365/333/261 357/328/258
f 365/333/261 362/334/262 356/335/263
f 362/336/262 425/337/264 426/338/265
f 425/337/264 360/330/260 361/339/266
f 362/336/262 365/331/261 360/330/260
f 361/340/266 364/341/267 363/342/268
f 364/341/267 361/340/266 360/343/260
f 364/344/267 427/345/259 423/325/257
f 359/324/256 358/346/269 363/347/268
f 376/348/270 375/349/271 358/346/269
f 359/324/256 373/323/255 376/348/270
f 373/323/255 283/322/254 368/350/272
f 287/351/273 413/352/274 375/349/271
f 375/349/271 376/348/270 368/350/272
f 368/350/272 370/353/275 297/354/276
f 283/322/254 295/355/277 370/353/275
f 370/353/275 295/355/277 282/356/278
f 282/356/278 295/355/277 229/357/279
f 295/355/277 283/322/254 109/358/280
f 109/358/280 283/322/254 411/309/245
f 109/358/280 403/308/244 401/306/242
f 105/359/281 227/360/282 229/357/279
f 227/360/282 106/361/283 110/362/284
f 428/363/285 108/364/286 280/365/287
f 520/366/288 518/367/289 400/368/290
f 98/369/291 396/370/292 398/371/293
f 396/370/292 96/372/294 100/289/226
f 382/373/295 62/285/223 96/372/294
f 382/373/295 378/374/296 50/375/297
f 382/373/295 66/376/298 54/377/299
f 66/376/298 382/373/295 396/370/292
f 98/369/291 223/300/236 211/299/235
f 211/299/235 328/298/234 310/378/300
f 310/378/300 306/379/301 54/377/299
f 310/378/300 127/380/302 120/381/303
f 407/382/304 417/383/305 306/379/301
f 378/374/296 54/377/299 306/379/301
f 417/383/305 304/384/306 50/375/297
f 407/382/304 410/385/89 116/386/92
f 116/386/92 304/384/306 417/383/305
f 304/387/306 116/112/92 180/388/307
f 265/111/91 277/114/93 180/388/307
f 277/389/93 263/115/94 112/390/308
f 112/390/308 302/391/309 315/392/310
f 112/390/308 124/118/97 308/393/311
f 308/393/311 124/118/97 149/234/190
f 312/394/312 149/234/190 183/236/192
f 316/395/313 183/236/192 187/396/314
f 187/396/314 183/236/192 254/235/191
f 187/396/314 191/250/203 320/397/315
f 320/398/315 191/251/203 195/399/316
f 195/399/316 199/400/317 324/401/318
f 195/399/316 260/253/204 467/402/319
f 203/403/320 452/404/321 447/405/322
f 492/406/323 467/407/319 200/408/324
f 489/409/325 453/410/326 447/405/322
f 489/409/325 488/411/327 448/412/328
f 491/413/329 448/412/328 488/411/327
f 193/414/330 323/260/206 189/259/207
f 193/414/330 197/415/331 325/416/332
f 261/417/333 259/418/334 194/419/335
f 261/417/333 197/415/331 193/414/330
f 193/414/330 189/259/207 257/420/336
f 190/421/337 194/419/335 259/418/334
f 194/419/335 190/421/337 320/398/315
f 186/422/338 318/423/339 320/397/315
f 186/422/338 182/424/340 316/395/313
f 147/425/341 312/394/312 316/395/313
f 147/425/341 58/426/342 308/393/311
f 46/427/343 302/391/309 308/393/311
f 46/427/343 172/428/344 315/392/310
f 50/429/297 304/387/306 315/430/310
f 172/431/344 176/284/224 62/283/223
f 46/427/343 58/426/342 176/432/224
f 207/267/213 252/433/215 176/432/224
f 147/425/341 240/266/212 207/267/213
f 182/424/340 253/434/345 240/266/212
f 182/424/340 186/422/338 255/262/208
f 190/435/337 257/436/336 255/262/208
f 198/437/346 261/417/333 194/419/335
f 198/437/346 194/419/335 322/438/347
f 486/181/348 490/439/349 454/440/350
f 485/195/351 446/194/352 454/440/350
f 446/194/352 202/193/353 326/192/354
f 202/441/353 446/442/352 452/404/321
f 485/443/351 199/444/317 467/407/319
f 326/445/354 327/446/355 201/447/356
f 326/445/354 202/441/353 203/403/320
f 467/407/319 260/448/204 196/256/205
f 327/446/355 453/410/326 448/412/328
f 201/447/356 448/412/328 449/449/357
f 449/182/357 454/440/350 326/192/354
f 491/413/329 486/450/348 449/449/357
f 267/451/358 119/452/90 410/385/89
f 267/451/358 410/385/89 407/382/304
f 120/381/303 127/380/302 271/453/359
f 127/380/302 459/454/360 131/455/361
f 131/455/361 273/456/362 271/453/359
f 132/457/363 231/458/364 128/459/365
f 132/460/363 128/461/365 271/453/359
f 271/453/359 128/461/365 119/452/90
f 128/462/365 350/463/366 329/464/367
f 329/464/367 334/76/60 119/110/90
f 329/464/367 63/74/58 51/73/57
f 210/465/368 350/463/366 64/466/369
f 63/74/58 329/464/367 350/463/366
f 213/467/370 69/468/371 63/74/58
f 69/468/371 387/469/372 385/70/54
f 387/469/372 69/468/371 434/470/373
f 69/468/371 213/467/370 437/471/374
f 213/467/370 70/472/375 435/473/376
f 435/473/376 74/474/377 215/475/378
f 73/476/379 434/470/373 437/471/374
f 73/476/379 389/477/380 439/478/381
f 389/477/380 71/479/382 433/480/383
f 391/481/384 75/482/385 71/479/382
f 75/483/385 79/484/386 216/485/387
f 214/486/388 71/479/382 75/482/385
f 214/486/388 438/487/389 433/480/383
f 438/487/389 212/69/53 67/68/52
f 433/480/383 67/68/52 387/469/372
f 436/488/390 68/489/391 212/490/53
f 68/489/391 384/491/392 60/199/164
f 60/199/164 208/64/49 212/490/53
f 60/199/164 384/491/392 380/200/165
f 380/200/165 384/491/392 52/492/393
f 52/492/393 384/491/392 64/466/369
f 384/491/392 68/489/391 386/493/394
f 386/493/394 70/472/375 64/466/369
f 386/493/394 440/494/395 435/473/376
f 386/493/394 68/489/391 436/488/390
f 436/488/390 72/495/396 388/496/397
f 72/495/396 436/488/390 438/497/389
f 80/498/398 442/499/399 76/500/400
f 392/501/401 390/502/402 444/503/403
f 200/408/324 196/256/205 323/260/206
f 76/500/400 442/499/399 444/503/403
f 84/504/404 394/505/405 392/506/401
f 441/507/406 445/508/407 442/509/399
f 80/510/398 392/511/401 443/512/408
f 81/513/409 83/514/410 393/515/411
f 81/513/409 393/515/411 391/516/384
f 79/484/386 393/515/411 83/514/410
f 393/515/411 79/484/386 75/483/385
f 83/514/410 84/504/404 80/498/398
f 394/505/405 84/504/404 88/517/412
f 85/518/413 83/519/410 81/520/409
f 85/518/413 89/521/414 87/522/415
f 87/523/415 88/517/412 84/504/404
f 87/524/415 91/525/416 92/526/417
f 93/527/418 221/528/419 91/529/416
f 91/529/416 87/530/415 89/531/414
f 89/531/414 220/532/420 221/528/419
f 220/533/420 89/521/414 85/518/413
f 85/518/413 81/520/409 218/534/421
f 81/520/409 77/535/422 217/536/423
f 77/537/422 73/476/379 215/475/378
f 391/481/384 389/477/380 73/476/379
f 74/474/377 78/538/424 217/539/423
f 78/540/424 82/541/425 218/534/421
f 82/541/425 86/542/426 219/543/427
f 90/544/428 220/533/420 219/543/427
f 90/545/428 94/546/429 221/528/419
f 92/526/417 91/525/416 221/547/419
f 90/545/428 88/548/412 92/549/417
f 86/542/426 394/550/405 88/551/412
f 86/542/426 82/541/425 392/501/401
f 388/496/397 390/552/402 78/538/424
f 74/474/377 435/473/376 440/494/395
f 70/472/375 213/467/370 210/465/368
f 64/466/369 350/463/366 52/492/393
f 231/553/364 350/463/366 128/462/365
f 231/553/364 121/207/172 335/202/167
f 52/492/393 335/202/167 380/200/165
f 350/463/366 231/553/364 335/202/167
f 121/207/172 405/204/169 419/203/168
f 121/554/172 231/458/364 130/555/430
f 130/555/430 231/458/364 233/556/431
f 233/557/431 140/558/432 236/559/433
f 233/556/431 231/458/364 132/457/363
f 140/560/432 132/460/363 273/456/362
f 131/455/361 137/561/434 275/562/435
f 138/563/436 143/564/437 470/565/438
f 469/42/439 136/566/440 468/41/441
f 470/565/438 143/564/437 136/566/440
f 235/567/442 468/41/441 136/566/440
f 136/566/440 143/564/437 238/568/443
f 135/569/444 468/41/441 235/567/442
f 235/567/442 238/568/443 142/570/445
f 135/571/444 472/572/446 468/573/441
f 135/571/444 142/574/445 471/575/447
f 430/576/448 262/577/449 205/578/450
f 430/576/448 205/578/450 278/579/451
f 140/558/432 275/580/435 278/579/451
f 262/577/449 139/581/452 236/559/433
f 236/559/433 140/558/432 205/578/450
f 236/559/433 139/581/452 134/582/453
f 458/13/454 139/581/452 457/14/455
f 274/583/456 272/584/457 134/585/453
f 274/16/456 134/582/453 139/581/452
f 134/585/453 272/584/457 268/586/458
f 272/584/457 133/587/459 268/586/458
f 268/586/458 133/587/459 129/588/460
f 129/588/460 133/587/459 234/589/461
f 274/583/456 133/587/459 272/584/457
f 234/590/461 232/591/462 129/588/460
f 129/588/460 232/591/462 307/219/180
f 307/219/180 232/591/462 311/592/463
f 311/592/463 232/591/462 328/298/234
f 232/591/462 459/454/360 328/298/234
f 459/454/360 127/380/302 310/378/300
f 459/454/360 232/591/462 131/455/361
f 232/591/462 234/589/461 137/561/434
f 311/592/463 328/298/234 53/273/218
f 53/273/218 328/298/234 65/297/233
f 311/592/463 53/273/218 307/219/180
f 53/273/218 379/218/179 307/219/180
f 307/219/180 122/593/464 129/588/460
f 122/593/464 268/586/458 129/588/460
f 268/586/458 409/215/171 121/554/172
f 122/593/464 404/213/177 409/215/171
f 122/593/464 307/219/180 418/216/178
f 121/554/172 130/555/430 268/586/458
f 130/555/430 134/585/453 268/586/458
f 134/585/453 130/555/430 233/556/431
f 134/582/453 233/557/431 236/559/433
f 139/581/452 204/594/465 457/14/455
f 204/594/465 473/32/466 457/14/455
f 473/32/466 204/594/465 431/595/467
f 262/577/449 430/576/448 432/596/468
f 204/594/465 139/581/452 262/577/449
f 204/594/465 262/577/449 432/596/468
f 431/595/467 432/596/468 237/597/469
f 432/596/468 430/576/448 141/598/470
f 141/598/470 430/576/448 476/599/471
f 141/598/470 475/600/472 471/575/447
f 238/568/443 237/597/469 141/598/470
f 237/597/469 238/568/443 143/564/437
f 431/595/467 138/563/436 474/601/473
f 420/75/59 406/108/88 119/110/90
f 98/369/291 102/602/474 225/301/237
f 518/367/289 516/603/475 104/604/476
f 516/603/475 100/289/226 224/288/225
f 226/605/477 228/314/247 108/364/286
f 228/314/247 294/317/249 280/365/287
f 402/606/478 366/607/479 284/608/480
f 293/609/481 352/610/482 412/611/483
f 280/365/287 294/317/249 371/319/251
f 296/612/484 284/608/480 366/607/479
f 416/613/485 284/608/480 288/614/486
f 414/615/487 288/614/486 351/616/488
f 288/614/486 284/608/480 296/612/484
f 298/617/489 296/612/484 285/618/490
f 296/612/484 371/319/251 369/318/250
f 285/618/490 374/619/491 413/620/274
f 374/619/491 377/621/492 356/335/263
f 374/619/491 285/618/490 369/318/250
f 377/621/492 372/320/252 357/328/258
f 424/622/493 413/620/274 374/619/491
f 424/623/493 358/346/269 375/349/271
f 424/623/493 426/624/265 363/347/268
f 356/335/263 362/334/262 426/625/265
f 363/342/268 426/626/265 425/627/264
f 413/620/274 415/628/494 289/629/495
f 422/630/496 292/631/497 354/632/498
f 354/633/498 289/629/495 415/628/494
f 300/634/499 354/632/498 292/631/497
f 300/635/499 298/617/489 289/629/495
f 300/634/499 293/636/481 351/637/488
f 351/616/488 288/614/486 298/617/489
f 282/356/278 421/638/500 402/606/478
f 421/638/500 280/365/287 366/607/479
f 352/639/482 290/640/501 414/615/487
f 367/641/502 402/606/478 416/613/485
f 110/362/284 428/363/285 421/638/500
f 106/361/283 400/368/290 428/363/285
f 286/642/503 416/613/485 414/615/487
f 351/637/488 293/636/481 412/643/483
f 297/354/276 370/353/275 367/641/502
f 297/354/276 286/642/503 290/640/501
f 299/644/504 290/640/501 352/645/482
f 301/646/505 293/636/481 300/634/499
f 301/647/505 355/648/506 352/649/482
f 353/650/507 292/651/497 422/652/496
f 301/646/505 300/634/499 292/631/497
f 353/650/507 355/648/506 301/647/505
f 291/653/508 299/644/504 355/654/506
f 287/351/273 297/354/276 299/644/504
f 291/653/508 415/655/494 413/352/274
f 415/655/494 291/653/508 353/656/507
f 57/265/211 313/238/194 309/225/185
f 309/225/185 313/238/194 151/229/187
f 72/495/396 214/657/388 216/658/387
f 72/495/396 76/659/400 390/552/402
f 79/484/386 80/498/398 76/500/400
f 390/502/402 392/501/401 82/541/425
f 443/660/408 462/661/509 445/508/407
f 444/662/403 462/661/509 443/660/408
f 444/662/403 442/509/399 445/508/407
f 447/405/322 453/410/326 327/446/355
f 249/663/510 463/664/511 500/179/146
f 477/665/148 463/666/511 249/663/510
f 461/190/156 166/667/157 451/668/512
f 480/669/513 249/663/510 460/187/153
f 499/188/154 496/670/514 247/671/144
f 455/189/155 466/672/515 166/667/157
f 465/673/158 166/667/157 466/672/515
f 465/673/158 466/672/515 168/160/132
f 455/189/155 395/158/130 168/160/132
f 464/674/149 451/668/512 166/667/157
f 400/368/290 104/604/476 108/364/286
f 400/368/290 106/361/283 521/303/239
f 66/376/298 211/299/235 310/378/300
f 267/451/358 120/381/303 271/453/359
f 267/451/358 271/453/359 119/452/90
f 278/675/451 473/676/466 469/677/439
f 451/668/512 480/669/513 484/678/516
f 464/674/149 477/665/148 480/669/513
f 164/679/136 346/680/517 482/196/161
f 483/681/160 479/161/133 250/152/124
f 347/154/126 481/156/128 484/678/516
f 463/682/511 477/181/148 482/196/161
f 165/153/125 250/152/124 479/161/133
f 347/154/126 165/153/125 478/157/129
f 261/417/333 198/683/346 486/450/348
f 446/442/352 485/443/351 492/406/323
f 199/679/317 485/195/351 490/439/349
f 198/682/346 324/680/318 490/439/349
f 491/413/329 488/411/327 197/415/331
f 325/416/332 197/415/331 488/411/327
f 325/416/332 489/409/325 487/684/518
f 452/404/321 492/406/323 487/684/518
f 460/187/153 249/663/510 496/670/514
f 496/670/514 500/179/146 160/685/145
f 498/155/127 499/188/154 161/686/152
f 463/664/511 346/687/517 497/180/147
f 164/164/136 494/163/135 497/180/147
f 162/166/120 494/163/135 495/688/123
f 163/689/122 493/690/519 498/155/127
f 248/691/121 495/151/123 493/690/519
f 68/489/391 60/199/164 212/490/53
f 208/67/49 59/66/51 212/69/53
f 387/469/372 67/68/52 385/70/54
f 275/692/435 458/693/454 457/694/455
f 275/692/435 137/695/434 133/696/459
f 234/697/461 133/696/459 137/695/434
f 458/693/454 275/692/435 274/698/456
f 158/145/118 502/144/117 506/171/140
f 245/176/141 156/170/139 503/175/143
f 506/171/140 503/175/143 156/170/139
f 154/101/82 502/144/117 504/699/116
f 159/140/114 501/139/113 504/142/116
f 341/90/72 511/141/115 510/700/520
f 343/197/162 509/198/163 510/700/520
f 343/197/162 157/94/76 508/93/75
f 153/91/73 508/93/75 507/92/74
f 243/95/77 507/92/74 505/173/142
f 501/139/113 511/141/115 341/90/72
f 515/305/241 512/290/227 99/701/521
f 105/359/281 401/306/242 515/305/241
f 227/360/282 105/359/281 513/304/240
f 104/604/476 516/603/475 517/311/246
f 398/371/293 100/289/226 516/603/475
f 226/605/477 517/311/246 519/310/229
f 99/701/521 512/290/227 519/292/229
f 102/602/474 520/366/288 521/303/239
f 102/602/474 398/371/293 518/367/289
f 514/302/238 521/303/239 106/361/283
f 94/702/429 92/526/417 221/547/419
f 22/703/42 5/1/1 25/3/3
f 5/1/1 14/6/6 10/2/2
f 20/11/11 34/13/13 26/12/12
f 27/21/21 29/22/22 11/9/9
f 29/22/22 27/21/21 15/24/24
f 2/40/35 9/25/25 13/27/27
f 13/27/27 16/26/26 3/29/29
f 16/26/26 15/24/24 8/28/28
f 15/24/24 16/26/26 4/30/30
f 15/24/24 4/30/30 29/22/22
f 1/31/31 19/16/16 6/8/8
f 26/12/12 35/15/15 24/17/17
f 21/33/33 30/20/20 37/32/32
f 24/17/17 30/20/20 17/18/18
f 21/33/33 7/23/23 17/18/18
f 8/28/28 7/23/23 23/34/34
f 41/37/37 40/38/38 2/35/35
f 39/42/39 3/29/29 23/34/34
f 4/30/30 9/39/25 42/43/40
f 4/30/30 42/43/40 28/5/5
f 28/5/5 31/44/41 10/2/2
f 41/704/37 38/705/36 40/47/38
f 39/706/39 23/707/34 37/708/32
f 37/708/32 33/709/14 25/45/3
f 23/707/34 21/710/33 37/708/32
f 40/47/38 38/705/36 39/706/39
f 31/46/41 42/711/40 40/47/38
f 37/708/32 25/45/3 39/706/39
f 40/47/38 39/706/39 25/45/3
f 34/51/13 22/48/42 33/50/14
f 5/55/1 22/48/42 19/52/16
f 19/52/16 1/53/31 5/55/1
f 170/134/109 44/56/43 174/59/46
f 174/59/46 56/58/45 251/61/48
f 60/199/164 174/62/46 208/64/49
f 251/712/48 173/65/50 208/67/49
f 385/70/54 59/66/51 381/72/56
f 385/70/54 381/72/56 63/74/58
f 51/73/57 381/72/56 334/76/60
f 332/77/61 420/75/59 47/71/55
f 349/107/66 332/77/61 169/78/62
f 169/78/62 47/71/55 173/65/50
f 169/713/62 173/79/50 43/81/64
f 169/713/62 43/81/64 349/83/66
f 330/82/65 43/81/64 336/84/67
f 338/99/80 336/84/67 144/85/68
f 239/97/71 144/85/68 206/86/47
f 251/714/48 206/86/47 173/79/50
f 56/58/45 145/88/70 206/60/47
f 145/88/70 153/91/73 239/89/71
f 243/715/77 152/96/78 239/97/71
f 152/96/78 340/98/79 144/85/68
f 340/98/79 154/101/82 338/99/80
f 338/99/80 148/100/81 336/84/67
f 123/103/84 111/104/85 336/84/67
f 330/82/65 111/104/85 349/83/66
f 179/113/86 115/106/87 349/107/66
f 420/75/59 332/77/61 406/108/88
f 410/109/89 406/108/88 265/111/91
f 265/111/91 115/106/87 277/114/93
f 277/389/93 179/105/86 263/115/94
f 269/117/96 263/115/94 123/103/84
f 112/390/308 263/115/94 124/118/97
f 230/232/189 124/118/97 279/116/95
f 230/231/189 279/120/95 126/122/100
f 126/122/100 270/119/98 114/124/102
f 270/119/98 125/121/99 264/123/101
f 264/123/101 113/125/103 276/127/105
f 113/125/103 331/128/106 177/126/104
f 117/205/170 177/130/104 333/132/108
f 48/201/166 333/132/108 170/133/109
f 348/129/107 331/128/106 170/134/109
f 125/121/99 337/57/44 113/125/103
f 501/139/113 155/138/112 504/142/116
f 504/699/116 502/144/117 246/146/119
f 158/145/118 162/147/120 246/146/119
f 246/716/119 248/149/121 159/140/114
f 493/690/519 495/151/123 165/153/125
f 493/690/519 165/153/125 498/155/127
f 455/189/155 481/156/128 395/158/130
f 395/158/130 478/157/129 450/159/131
f 167/717/159 168/160/132 408/162/134
f 495/688/123 494/163/135 250/165/124
f 497/180/147 494/163/135 344/167/137
f 344/169/137 162/147/120 342/168/138
f 160/178/145 344/169/137 156/170/139
f 503/175/143 506/171/140 152/96/78
f 507/92/74 157/94/76 505/173/142
f 243/715/77 505/174/142 152/96/78
f 156/170/139 245/176/141 160/178/145
f 160/685/145 500/179/146 344/167/137
f 482/196/161 477/181/148 456/183/150
f 161/185/152 247/186/144 157/94/76
f 498/155/127 347/154/126 499/188/154
f 484/678/516 481/156/128 461/190/156
f 464/182/149 166/191/157 456/183/150
f 456/183/150 465/192/158 408/194/134
f 483/681/160 408/162/134 479/161/133
f 408/194/134 483/195/160 456/183/150
f 510/700/520 509/198/163 341/90/72
f 510/700/520 511/141/115 343/197/162
f 159/140/114 163/150/122 343/197/162
f 506/171/140 502/144/117 340/98/79
f 341/90/72 339/87/69 155/138/112
f 148/100/81 241/102/83 123/103/84
f 60/199/164 48/201/166 174/62/46
f 380/200/165 419/203/168 48/201/166
f 419/203/168 405/204/169 333/132/108
f 409/206/171 266/209/174 405/204/169
f 266/209/174 276/210/105 117/205/170
f 276/210/105 266/209/174 178/211/175
f 314/223/183 178/211/175 305/212/176
f 404/213/177 418/216/178 118/214/173
f 418/216/178 379/218/179 305/217/176
f 305/212/176 49/221/181 314/223/183
f 171/270/182 45/224/184 314/227/183
f 314/227/183 303/226/186 178/228/175
f 178/228/175 114/124/102 276/127/105
f 309/225/185 126/122/100 303/226/186
f 126/122/100 151/229/187 230/231/189
f 124/118/97 230/232/189 149/234/190
f 149/234/190 242/233/188 183/236/192
f 151/229/187 184/237/193 242/230/188
f 256/247/202 254/239/191 188/240/195
f 184/237/193 317/241/196 188/240/195
f 319/242/197 321/243/198 188/240/195
f 188/240/195 192/245/200 256/247/202
f 187/396/314 256/248/202 191/250/203
f 195/399/316 191/251/203 260/253/204
f 260/448/204 258/254/201 196/256/205
f 321/718/198 323/260/206 192/255/200
f 257/719/336 189/261/207 255/262/208
f 253/434/345 255/262/208 181/263/209
f 185/244/199 319/242/197 181/263/209
f 146/264/210 181/263/209 313/238/194
f 253/434/345 181/263/209 240/266/212
f 240/266/212 146/264/210 207/267/213
f 207/267/213 57/265/211 252/269/215
f 57/265/211 45/224/184 175/268/214
f 175/281/214 171/222/182 61/271/216
f 379/218/179 383/272/217 49/220/181
f 61/274/216 383/272/217 95/276/220
f 61/274/216 95/276/220 209/278/222
f 61/271/216 209/279/222 175/281/214
f 252/720/215 209/282/222 176/284/224
f 96/372/294 62/285/223 222/287/221
f 96/372/294 222/287/221 100/289/226
f 99/701/521 224/293/225 95/276/220
f 99/701/521 95/276/220 399/294/230
f 399/294/230 397/275/219 101/296/232
f 383/272/217 65/297/233 397/275/219
f 65/297/233 211/299/235 97/295/231
f 97/295/231 223/300/236 101/296/232
f 225/301/237 514/302/238 101/296/232
f 101/296/232 513/304/240 399/294/230
f 515/305/241 401/306/242 512/290/227
f 401/306/242 403/308/244 103/291/228
f 226/605/477 103/312/228 228/314/247
f 228/314/247 107/313/243 294/317/249
f 294/317/249 281/316/248 371/319/251
f 377/621/492 369/318/250 372/320/252
f 372/320/252 281/316/248 429/321/253
f 429/326/253 411/309/245 373/323/255
f 373/323/255 359/324/256 429/326/253
f 429/321/253 423/327/257 372/320/252
f 423/327/257 427/332/259 357/328/258
f 357/328/258 365/333/261 356/335/263
f 425/337/264 362/336/262 360/330/260
f 427/721/259 364/341/267 360/343/260
f 359/324/256 364/344/267 423/325/257
f 364/344/267 359/324/256 363/347/268
f 358/346/269 359/324/256 376/348/270
f 376/348/270 373/323/255 368/350/272
f 287/351/273 375/349/271 368/350/272
f 287/351/273 368/350/272 297/354/276
f 368/350/272 283/322/254 370/353/275
f 367/641/502 370/353/275 282/356/278
f 110/362/284 282/356/278 229/357/279
f 229/357/279 295/355/277 109/358/280
f 403/308/244 109/358/280 411/309/245
f 105/359/281 109/358/280 401/306/242
f 109/358/280 105/359/281 229/357/279
f 229/357/279 227/360/282 110/362/284
f 421/638/500 428/363/285 280/365/287
f 102/602/474 98/369/291 398/371/293
f 398/371/293 396/370/292 100/289/226
f 396/370/292 382/373/295 96/372/294
f 62/285/223 382/373/295 50/375/297
f 378/374/296 382/373/295 54/377/299
f 98/369/291 66/376/298 396/370/292
f 66/376/298 98/369/291 211/299/235
f 66/376/298 310/378/300 54/377/299
f 306/379/301 310/378/300 120/381/303
f 120/381/303 407/382/304 306/379/301
f 417/383/305 378/374/296 306/379/301
f 378/374/296 417/383/305 50/375/297
f 407/382/304 116/386/92 417/383/305
f 315/430/310 304/387/306 180/388/307
f 116/112/92 265/111/91 180/388/307
f 180/722/307 277/389/93 112/390/308
f 180/722/307 112/390/308 315/392/310
f 302/391/309 112/390/308 308/393/311
f 312/394/312 308/393/311 149/234/190
f 316/395/313 312/394/312 183/236/192
f 318/423/339 316/395/313 187/396/314
f 256/248/202 187/396/314 254/235/191
f 318/423/339 187/396/314 320/397/315
f 322/438/347 320/398/315 195/399/316
f 322/438/347 195/399/316 324/401/318
f 199/400/317 195/399/316 467/402/319
f 487/684/518 492/406/323 200/408/324
f 487/684/518 489/409/325 447/405/322
f 453/410/326 489/409/325 448/412/328
f 323/260/206 193/414/330 325/416/332
f 259/418/334 261/417/333 193/414/330
f 259/418/334 193/414/330 257/420/336
f 257/420/336 190/421/337 259/418/334
f 322/438/347 194/419/335 320/398/315
f 190/435/337 186/422/338 320/397/315
f 318/423/339 186/422/338 316/395/313
f 182/424/340 147/425/341 316/395/313
f 312/394/312 147/425/341 308/393/311
f 58/426/342 46/427/343 308/393/311
f 302/391/309 46/427/343 315/392/310
f 172/431/344 50/429/297 315/430/310
f 50/429/297 172/431/344 62/283/223
f 172/428/344 46/427/343 176/432/224
f 58/426/342 207/267/213 176/432/224
f 58/426/342 147/425/341 207/267/213
f 147/425/341 182/424/340 240/266/212
f 253/434/345 182/424/340 255/262/208
f 186/422/338 190/435/337 255/262/208
f 324/401/318 198/437/346 322/438/347
f 449/182/357 486/181/348 454/440/350
f 490/439/349 485/195/351 454/440/350
f 454/440/350 446/194/352 326/192/354
f 203/403/320 202/441/353 452/404/321
f 492/406/323 485/443/351 467/407/319
f 327/446/355 326/445/354 203/403/320
f 200/408/324 467/407/319 196/256/205
f 201/447/356 327/446/355 448/412/328
f 201/191/356 449/182/357 326/192/354
f 448/412/328 491/413/329 449/449/357
f 120/381/303 267/451/358 407/382/304
f 127/380/302 131/455/361 271/453/359
f 273/456/362 132/460/363 271/453/359
f 128/462/365 329/464/367 119/110/90
f 334/76/60 329/464/367 51/73/57
f 210/465/368 63/74/58 350/463/366
f 210/465/368 213/467/370 63/74/58
f 63/74/58 69/468/371 385/70/54
f 439/478/381 387/469/372 434/470/373
f 434/470/373 69/468/371 437/471/374
f 437/471/374 213/467/370 435/473/376
f 437/471/374 435/473/376 215/475/378
f 215/475/378 73/476/379 437/471/374
f 434/470/373 73/476/379 439/478/381
f 439/478/381 389/477/380 433/480/383
f 389/477/380 391/481/384 71/479/382
f 216/723/387 214/486/388 75/482/385
f 71/479/382 214/486/388 433/480/383
f 433/480/383 438/487/389 67/68/52
f 439/478/381 433/480/383 387/469/372
f 438/497/389 436/488/390 212/490/53
f 384/491/392 386/493/394 64/466/369
f 70/472/375 386/493/394 435/473/376
f 440/494/395 386/493/394 436/488/390
f 440/494/395 436/488/390 388/496/397
f 214/657/388 72/495/396 438/497/389
f 325/416/332 200/408/324 323/260/206
f 390/502/402 76/500/400 444/503/403
f 80/498/398 84/504/404 392/506/401
f 80/510/398 441/507/406 442/509/399
f 441/507/406 80/510/398 443/512/408
f 77/724/422 81/513/409 391/516/384
f 391/516/384 393/515/411 75/483/385
f 79/484/386 83/514/410 80/498/398
f 83/519/410 85/518/413 87/522/415
f 83/514/410 87/523/415 84/504/404
f 88/725/412 87/524/415 92/526/417
f 93/527/418 91/529/416 89/531/414
f 93/527/418 89/531/414 221/528/419
f 219/543/427 220/533/420 85/518/413
f 219/543/427 85/518/413 218/534/421
f 218/534/421 81/520/409 217/536/423
f 217/539/423 77/537/422 215/475/378
f 77/537/422 391/481/384 73/476/379
f 215/475/378 74/474/377 217/539/423
f 217/536/423 78/540/424 218/534/421
f 218/534/421 82/541/425 219/543/427
f 86/542/426 90/544/428 219/543/427
f 220/532/420 90/545/428 221/528/419
f 94/546/429 90/545/428 92/549/417
f 90/544/428 86/542/426 88/551/412
f 394/550/405 86/542/426 392/501/401
f 74/474/377 388/496/397 78/538/424
f 388/496/397 74/474/377 440/494/395
f 64/466/369 70/472/375 210/465/368
f 52/492/393 350/463/366 335/202/167
f 335/202/167 121/207/172 419/203/168
f 140/726/432 233/556/431 132/457/363
f 275/562/435 140/560/432 273/456/362
f 273/456/362 131/455/361 275/562/435
f 474/601/473 138/563/436 470/565/438
f 469/42/439 470/565/438 136/566/440
f 235/567/442 136/566/440 238/568/443
f 135/569/444 235/567/442 142/570/445
f 472/572/446 135/571/444 471/575/447
f 476/599/471 430/576/448 278/579/451
f 205/578/450 140/558/432 278/579/451
f 262/577/449 236/559/433 205/578/450
f 458/13/454 274/16/456 139/581/452
f 328/298/234 459/454/360 310/378/300
f 131/455/361 232/591/462 137/561/434
f 268/586/458 122/593/464 409/215/171
f 404/213/177 122/593/464 418/216/178
f 431/595/467 204/594/465 432/596/468
f 138/563/436 431/595/467 237/597/469
f 237/597/469 432/596/468 141/598/470
f 475/600/472 141/598/470 476/599/471
f 142/574/445 141/598/470 471/575/447
f 142/570/445 238/568/443 141/598/470
f 138/563/436 237/597/469 143/564/437
f 473/32/466 431/595/467 474/601/473
f 334/76/60 420/75/59 119/110/90
f 223/300/236 98/369/291 225/301/237
f 400/368/290 518/367/289 104/604/476
f 517/311/246 516/603/475 224/288/225
f 104/604/476 226/605/477 108/364/286
f 108/364/286 228/314/247 280/365/287
f 416/613/485 402/606/478 284/608/480
f 366/607/479 280/365/287 371/319/251
f 371/319/251 296/612/484 366/607/479
f 414/615/487 416/613/485 288/614/486
f 412/727/483 414/615/487 351/616/488
f 298/617/489 288/614/486 296/612/484
f 289/629/495 298/617/489 285/618/490
f 285/618/490 296/612/484 369/318/250
f 377/621/492 374/619/491 369/318/250
f 356/335/263 377/621/492 357/328/258
f 356/335/263 424/622/493 374/619/491
f 413/352/274 424/623/493 375/349/271
f 358/346/269 424/623/493 363/347/268
f 424/622/493 356/335/263 426/625/265
f 361/340/266 363/342/268 425/627/264
f 285/618/490 413/620/274 289/629/495
f 422/728/496 354/633/498 415/628/494
f 354/633/498 300/635/499 289/629/495
f 300/635/499 351/616/488 298/617/489
f 367/641/502 282/356/278 402/606/478
f 402/606/478 421/638/500 366/607/479
f 412/727/483 352/639/482 414/615/487
f 286/642/503 367/641/502 416/613/485
f 282/356/278 110/362/284 421/638/500
f 110/362/284 106/361/283 428/363/285
f 290/640/501 286/642/503 414/615/487
f 286/642/503 297/354/276 367/641/502
f 299/644/504 297/354/276 290/640/501
f 355/654/506 299/644/504 352/645/482
f 293/729/481 301/647/505 352/649/482
f 292/651/497 353/650/507 301/647/505
f 353/656/507 291/653/508 355/654/506
f 291/653/508 287/351/273 299/644/504
f 287/351/273 291/653/508 413/352/274
f 422/730/496 415/655/494 353/656/507
f 76/659/400 72/495/396 216/658/387
f 388/496/397 72/495/396 390/552/402
f 216/485/387 79/484/386 76/500/400
f 78/540/424 390/502/402 82/541/425
f 441/731/406 443/660/408 445/508/407
f 392/732/401 444/662/403 443/660/408
f 462/661/509 444/662/403 445/508/407
f 203/403/320 447/405/322 327/446/355
f 496/670/514 249/663/510 500/179/146
f 480/669/513 477/665/148 249/663/510
f 484/678/516 480/669/513 460/187/153
f 161/686/152 499/188/154 247/671/144
f 461/190/156 455/189/155 166/667/157
f 167/717/159 465/673/158 168/160/132
f 466/672/515 455/189/155 168/160/132
f 428/363/285 400/368/290 108/364/286
f 520/366/288 400/368/290 521/303/239
f 469/677/439 468/733/441 471/734/447
f 471/734/447 475/735/472 476/736/471
f 468/733/441 472/737/446 471/734/447
f 474/738/473 470/739/438 473/676/466
f 278/675/451 457/740/455 473/676/466
f 473/676/466 470/739/438 469/677/439
f 469/677/439 471/734/447 278/675/451
f 476/736/471 278/675/451 471/734/447
f 461/190/156 451/668/512 484/678/516
f 451/668/512 464/674/149 480/669/513
f 483/195/160 164/679/136 482/196/161
f 164/741/136 483/681/160 250/152/124
f 460/187/153 347/154/126 484/678/516
f 346/680/517 463/682/511 482/196/161
f 478/157/129 165/153/125 479/161/133
f 481/156/128 347/154/126 478/157/129
f 491/413/329 261/417/333 486/450/348
f 452/404/321 446/442/352 492/406/323
f 324/680/318 199/679/317 490/439/349
f 486/181/348 198/682/346 490/439/349
f 261/417/333 491/413/329 197/415/331
f 489/409/325 325/416/332 488/411/327
f 200/408/324 325/416/332 487/684/518
f 447/405/322 452/404/321 487/684/518
f 499/188/154 460/187/153 496/670/514
f 247/671/144 496/670/514 160/685/145
f 345/742/151 498/155/127 161/686/152
f 500/179/146 463/664/511 497/180/147
f 346/687/517 164/164/136 497/180/147
f 248/743/121 162/166/120 495/688/123
f 345/742/151 163/689/122 498/155/127
f 163/689/122 248/691/121 493/690/519
f 278/744/451 275/692/435 457/694/455
f 274/698/456 275/692/435 133/696/459
f 342/168/138 158/145/118 506/171/140
f 505/174/142 245/176/141 503/175/143
f 342/168/138 506/171/140 156/170/139
f 244/143/111 154/101/82 504/699/116
f 246/716/119 159/140/114 504/142/116
f 509/198/163 343/197/162 508/93/75
f 243/95/77 153/91/73 507/92/74
f 155/138/112 501/139/113 341/90/72
f 399/294/230 515/305/241 99/701/521
f 513/304/240 105/359/281 515/305/241
f 514/302/238 227/360/282 513/304/240
f 226/605/477 104/604/476 517/311/246
f 518/367/289 398/371/293 516/603/475
f 103/312/228 226/605/477 519/310/229
f 224/293/225 99/701/521 519/292/229
f 225/301/237 102/602/474 521/303/239
f 520/366/288 102/602/474 518/367/289
f 227/360/282 514/302/238 106/361/283
