v -0.786276 0.244876 -0.201871
v -0.820709 0.244186 -0.105687
v 0.817966 0.218751 0.006937
v 0.771922 0.198742 0.095916
v 0.817399 0.215911 -0.103782
v 0.706597 0.169903 -0.239995
v 0.522730 0.118713 -0.317477
v 0.341804 0.089877 -0.312525
v 0.168232 0.108214 -0.257631
v 0.020783 0.071828 -0.451725
v -0.020925 0.071829 -0.451725
v -0.203937 0.087422 -0.200087
v -0.312231 0.071842 -0.216680
v -0.447336 0.103636 -0.262506
v -0.571491 0.149876 -0.282197
v -0.714468 0.219775 -0.272337
v -0.811908 0.219015 0.003611
v -0.684946 0.164131 0.095795
v -0.537231 0.111212 0.156028
v -0.385536 0.081289 0.223405
v -0.227446 0.098081 0.350370
v -0.076207 0.094003 0.450995
v 0.081174 0.095943 0.447237
v 0.241042 0.099084 0.364978
v 0.370459 0.078572 0.176207
v 0.471584 0.098755 0.098268
v 0.565719 0.123735 0.080483
v 0.704629 0.170428 0.120636
v 0.112586 0.103736 -0.286953
v 0.161162 0.099286 0.410050
v -0.128574 0.102335 -0.279435
v -0.152565 0.094732 0.427814
v -0.794338 0.245667 -0.177622
v -0.802756 0.245831 -0.153506
v -0.811555 0.245322 -0.129530
v 0.782915 0.204742 0.073627
v 0.794245 0.210094 0.051367
v 0.805937 0.214746 0.029138
v -0.783300 0.226784 -0.064464
v -0.757096 0.229876 -0.133005
v -0.733835 0.227776 -0.202637
v -0.649861 0.173640 0.002256
v -0.615479 0.177491 -0.092233
v -0.591913 0.165942 -0.186019
v -0.509716 0.123562 0.051783
v -0.487076 0.128730 -0.053534
v -0.465997 0.119756 -0.157450
v -0.363964 0.097473 0.110178
v -0.340555 0.109094 -0.001922
v -0.325733 0.094515 -0.108748
v -0.221160 0.118179 0.208210
v -0.216551 0.126700 0.062367
v -0.211045 0.117657 -0.071310
v -0.060999 0.167302 0.268000
v -0.033248 0.178437 0.043080
v -0.034572 0.192251 -0.137396
v 0.064708 0.168240 0.266175
v 0.033943 0.181601 0.039469
v 0.030679 0.193860 -0.139236
v 0.240922 0.129422 0.183284
v 0.223680 0.150829 0.000922
v 0.188836 0.146565 -0.137319
v 0.338593 0.105233 0.052010
v 0.327355 0.121955 -0.070720
v 0.332955 0.111987 -0.192173
v 0.475715 0.122689 -0.000655
v 0.484002 0.132150 -0.103556
v 0.500629 0.127928 -0.212464
v 0.594007 0.146246 0.003742
v 0.631466 0.164046 -0.074208
v 0.669852 0.170119 -0.157756
v 0.730468 0.187480 0.065727
v 0.757735 0.201782 0.010938
v 0.787114 0.211885 -0.044060
v 0.154871 0.147034 0.221716
v 0.136040 0.198689 0.005367
v 0.118383 0.170493 -0.144334
v -0.143885 0.138616 0.248899
v -0.131956 0.179441 0.050599
v -0.128866 0.158811 -0.121486
v 0.751287 0.134386 0.041128
v 0.803440 0.151478 0.050090
v 0.796083 0.147643 0.065646
v 0.729254 0.119765 0.088226
v -0.812513 0.187146 -0.154463
v -0.785596 0.168778 -0.088547
v -0.809038 0.162387 -0.031296
v -0.817375 0.186627 -0.139364
v -0.654856 0.117657 -0.024728
v -0.685034 0.108441 0.058246
v -0.507424 0.066530 0.021252
v -0.533281 0.056114 0.111373
v -0.352774 0.041379 0.061519
v -0.372620 0.028205 0.161878
v -0.189776 0.008114 0.138406
v -0.212873 0.046989 0.270698
v -0.129506 -0.002491 0.172570
v -0.054712 0.003820 0.149474
v -0.074633 0.049012 0.363892
v -0.148894 0.045813 0.340973
v 0.063080 0.006798 0.143619
v 0.081432 0.050975 0.360555
v 0.145037 0.008632 0.129078
v 0.215197 0.019908 0.107216
v 0.226117 0.049668 0.281517
v 0.159958 0.052819 0.319441
v 0.326044 0.051832 0.002699
v 0.342138 0.030663 0.118308
v 0.478521 0.067260 -0.032108
v 0.472786 0.046889 0.053431
v 0.614977 0.094420 -0.020881
v 0.588635 0.073693 0.044603
v 0.811148 0.154184 -0.074583
v 0.812860 0.155755 0.023533
v 0.805953 0.153042 0.038498
v 0.784945 0.149593 -0.024926
v 0.805262 0.152232 0.044016
v 0.766642 0.142809 0.009773
v -0.805932 0.187243 -0.174687
v -0.738835 0.164438 -0.237029
v -0.756226 0.170820 -0.176152
v -0.811417 0.187445 -0.159882
v -0.770718 0.171478 -0.130439
v -0.812622 0.187122 -0.157446
v -0.598168 0.096665 -0.234641
v -0.616228 0.111784 -0.150765
v -0.632958 0.120174 -0.087821
v -0.465113 0.049649 -0.205938
v -0.480387 0.064110 -0.113150
v -0.490534 0.069275 -0.048148
v -0.322703 0.021035 -0.152156
v -0.332488 0.041664 -0.060208
v -0.338747 0.048683 -0.006945
v -0.180262 0.046500 -0.125407
v -0.168728 0.021448 -0.016711
v -0.168458 0.002161 0.041759
v -0.110560 0.058634 -0.197379
v -0.018347 0.022386 -0.369040
v -0.030540 0.020462 -0.150252
v -0.081001 0.029088 -0.059835
v -0.019172 0.037940 -0.016764
v -0.088460 0.009496 0.042666
v 0.018205 0.021305 -0.368677
v 0.022101 0.024304 -0.152730
v 0.020138 0.045108 -0.020531
v 0.088449 0.066666 -0.210570
v 0.151644 0.067550 -0.185934
v 0.160638 0.048914 -0.077878
v 0.075580 0.049599 -0.080501
v 0.184046 0.024991 -0.010012
v 0.102415 0.029142 0.000506
v 0.335693 0.036650 -0.247782
v 0.329472 0.056808 -0.143891
v 0.322960 0.062272 -0.080133
v 0.516917 0.061656 -0.262611
v 0.494959 0.069789 -0.168073
v 0.481862 0.072706 -0.101967
v 0.699219 0.108763 -0.198064
v 0.666778 0.109283 -0.126060
v 0.640587 0.105557 -0.071092
v 0.732190 0.153784 -0.226059
v 0.843562 0.201609 -0.085650
v 0.084298 0.072155 0.444798
v -0.078427 0.070213 0.448455
v -0.325658 0.049988 -0.206215
v -0.199364 0.064620 -0.181947
v -0.826593 0.232410 -0.180221
v -0.819034 0.231927 -0.201929
v 0.806155 0.185461 0.098304
v 0.734874 0.155378 0.126580
v -0.395577 0.057201 0.212255
v -0.557769 0.089701 0.148596
v 0.020167 0.047879 -0.459545
v 0.107124 0.081414 -0.275384
v 0.587463 0.105427 0.086100
v 0.484609 0.075427 0.094911
v -0.125076 0.078300 -0.267002
v -0.020325 0.047879 -0.459545
v -0.838306 0.205831 -0.009321
v -0.844589 0.231211 -0.128813
v 0.823778 0.194243 0.061539
v 0.816415 0.190850 0.077270
v 0.545114 0.098431 -0.308945
v 0.242578 0.074123 0.363685
v 0.165859 0.075008 0.405810
v 0.165615 0.085288 -0.242371
v -0.831940 0.232321 -0.165453
v -0.466627 0.083939 -0.259847
v 0.841248 0.201115 0.025490
v 0.830725 0.197299 0.046144
v -0.229546 0.073298 0.342808
v -0.156163 0.070551 0.423649
v -0.743833 0.208597 -0.277675
v -0.710769 0.148804 0.087123
v 0.355730 0.066877 -0.301852
v 0.373047 0.053657 0.170986
v -0.596327 0.135901 -0.285011
v -0.836807 0.232059 -0.150474
vt 0.281556 0.946625
vt 0.314598 0.946625
vt 0.284400 0.973717
vt 0.270963 0.973717
vt 0.270963 0.032688
vt 0.284400 0.032688
vt 0.336850 0.059640
vt 0.298246 0.059640
vt 0.359014 0.140589
vt 0.306948 0.140589
vt 0.367128 0.221162
vt 0.310766 0.221162
vt 0.382066 0.301735
vt 0.324244 0.301735
vt 0.430287 0.382308
vt 0.360482 0.382308
vt 0.375818 0.425484
vt 0.466321 0.422594
vt 0.476927 0.462881
vt 0.383761 0.470194
vt 0.476927 0.543454
vt 0.383761 0.536141
vt 0.375818 0.580851
vt 0.466321 0.583741
vt 0.455627 0.624027
vt 0.379487 0.624027
vt 0.401923 0.704600
vt 0.339137 0.704600
vt 0.367128 0.785173
vt 0.310766 0.785173
vt 0.337866 0.865746
vt 0.291087 0.865746
vt 0.182432 0.946625
vt 0.215473 0.946625
vt 0.244090 0.973717
vt 0.230653 0.973717
vt 0.248515 0.946625
vt 0.257526 0.973717
vt 0.230653 0.032688
vt 0.244090 0.032688
vt 0.221036 0.059640
vt 0.182432 0.059640
vt 0.257526 0.032688
vt 0.259641 0.059640
vt 0.202817 0.140589
vt 0.150751 0.140589
vt 0.254882 0.140589
vt 0.198040 0.221162
vt 0.141678 0.221162
vt 0.254403 0.221162
vt 0.208600 0.301735
vt 0.150778 0.301735
vt 0.266422 0.301735
vt 0.220872 0.382308
vt 0.151068 0.382308
vt 0.290677 0.382308
vt 0.104308 0.434153
vt 0.194811 0.431263
vt 0.193764 0.484821
vt 0.011262 0.492134
vt 0.285314 0.428373
vt 0.284716 0.477508
vt 0.193764 0.521514
vt 0.011262 0.514201
vt 0.284716 0.528827
vt 0.104308 0.572182
vt 0.194811 0.575072
vt 0.227207 0.624027
vt 0.151068 0.624027
vt 0.285314 0.577962
vt 0.303347 0.624027
vt 0.213565 0.704600
vt 0.150778 0.704600
vt 0.276351 0.704600
vt 0.198040 0.785173
vt 0.141678 0.785173
vt 0.254403 0.785173
vt 0.197530 0.865746
vt 0.150751 0.865746
vt 0.244309 0.865746
vt 0.744386 0.087215
vt 0.734842 0.061296
vt 0.743669 0.061100
vt 0.771352 0.087163
vt 0.733119 0.937328
vt 0.759732 0.912122
vt 0.790723 0.911761
vt 0.741065 0.937001
vt 0.767306 0.837253
vt 0.810845 0.837285
vt 0.767551 0.761708
vt 0.814415 0.762324
vt 0.772322 0.683357
vt 0.820367 0.684106
vt 0.797585 0.608380
vt 0.858114 0.609568
vt 0.808091 0.572409
vt 0.793668 0.531812
vt 0.898169 0.538401
vt 0.888657 0.575495
vt 0.793936 0.468602
vt 0.898430 0.461735
vt 0.808473 0.427692
vt 0.815111 0.391773
vt 0.882996 0.390622
vt 0.889464 0.424305
vt 0.785929 0.317568
vt 0.839156 0.316925
vt 0.766526 0.239862
vt 0.813624 0.239521
vt 0.752030 0.163489
vt 0.790888 0.163520
vt 0.679318 0.087446
vt 0.720705 0.063319
vt 0.729062 0.062859
vt 0.706465 0.087342
vt 0.731706 0.061934
vt 0.726408 0.087261
vt 0.722466 0.937584
vt 0.681402 0.913442
vt 0.713435 0.913300
vt 0.730376 0.937739
vt 0.737447 0.912795
vt 0.731730 0.937795
vt 0.657377 0.837930
vt 0.700966 0.837646
vt 0.734460 0.837276
vt 0.651343 0.761926
vt 0.698726 0.761543
vt 0.731900 0.760987
vt 0.663690 0.685405
vt 0.710511 0.684244
vt 0.737728 0.682553
vt 0.668141 0.606210
vt 0.724524 0.605696
vt 0.753165 0.606406
vt 0.626903 0.559161
vt 0.538967 0.509586
vt 0.642919 0.516322
vt 0.702043 0.561685
vt 0.720444 0.524324
vt 0.752706 0.567265
vt 0.538967 0.491165
vt 0.642919 0.484430
vt 0.720681 0.476346
vt 0.626240 0.441863
vt 0.666541 0.395045
vt 0.728939 0.395582
vt 0.701270 0.439480
vt 0.764286 0.394449
vt 0.753021 0.433639
vt 0.662781 0.315251
vt 0.713909 0.316414
vt 0.745495 0.318176
vt 0.650461 0.238188
vt 0.698163 0.238741
vt 0.730065 0.240010
vt 0.655335 0.162486
vt 0.694183 0.162780
vt 0.723559 0.163289
vt 0.916964 0.136641
vt 0.908385 0.055220
vt 0.894321 0.075173
vt 0.903140 0.152818
vt 0.940117 0.461210
vt 0.939763 0.543345
vt 0.927382 0.541783
vt 0.927700 0.462456
vt 0.941075 0.704226
vt 0.954822 0.620738
vt 0.942352 0.611946
vt 0.927913 0.693891
vt 0.906245 0.976525
vt 0.905908 0.976443
vt 0.891919 0.954825
vt 0.892009 0.954985
vt 0.905876 0.027300
vt 0.908490 0.055069
vt 0.894230 0.074880
vt 0.891550 0.047912
vt 0.942942 0.703531
vt 0.933424 0.786497
vt 0.919277 0.773481
vt 0.929515 0.692547
vt 0.936232 0.491884
vt 0.956454 0.435920
vt 0.943989 0.441894
vt 0.923753 0.492908
vt 0.922866 0.137194
vt 0.932360 0.218973
vt 0.918353 0.232527
vt 0.908651 0.153887
vt 0.956533 0.569110
vt 0.936232 0.513000
vt 0.923753 0.511968
vt 0.944149 0.563264
vt 0.907439 0.948872
vt 0.905979 0.976130
vt 0.892060 0.954221
vt 0.893477 0.928105
vt 0.906447 0.027746
vt 0.906328 0.027405
vt 0.891870 0.048115
vt 0.891904 0.048775
vt 0.928814 0.218259
vt 0.915200 0.231148
vt 0.945008 0.382048
vt 0.943299 0.420626
vt 0.930725 0.423726
vt 0.932069 0.388874
vt 0.954693 0.384416
vt 0.942094 0.393451
vt 0.906237 0.976556
vt 0.891789 0.955043
vt 0.928944 0.786284
vt 0.915461 0.773069
vt 0.906163 0.028488
vt 0.906504 0.028242
vt 0.892223 0.049732
vt 0.892123 0.050209
vt 0.948881 0.622535
vt 0.936079 0.615421
vt 0.941746 0.583749
vt 0.929294 0.580165
vt 0.907447 0.949772
vt 0.893493 0.929844
vt 0.924302 0.867719
vt 0.910069 0.851044
vt 0.939451 0.300607
vt 0.926190 0.310886
vt 0.940413 0.301503
vt 0.927041 0.312618
vt 0.915625 0.868064
vt 0.901989 0.851711
vt 0.906294 0.976305
vt 0.892106 0.954560
vt 0.930788 0.145080
vt 0.922449 0.065365
vt 0.952533 0.462732
vt 0.952144 0.542145
vt 0.954237 0.700971
vt 0.967292 0.621558
vt 0.920481 0.966144
vt 0.919898 0.966144
vt 0.920202 0.038663
vt 0.922750 0.065365
vt 0.956370 0.700971
vt 0.947570 0.780384
vt 0.948711 0.491564
vt 0.968918 0.434417
vt 0.937082 0.145080
vt 0.946367 0.224493
vt 0.968918 0.570459
vt 0.948711 0.513313
vt 0.921400 0.939580
vt 0.920990 0.038663
vt 0.920786 0.038663
vt 0.942429 0.224493
vt 0.957946 0.383319
vt 0.955874 0.423025
vt 0.967292 0.383319
vt 0.920685 0.966144
vt 0.942427 0.780384
vt 0.961683 0.621558
vt 0.954198 0.581851
vt 0.938534 0.859797
vt 0.952711 0.303906
vt 0.953786 0.303906
vt 0.929262 0.859797
vn -0.338900 0.933500 0.117100
vn 0.235200 0.953400 0.189000
vn 0.265500 0.942000 0.205300
vn 0.266200 0.945200 0.188700
vn 0.118900 0.980700 0.155500
vn -0.207300 0.971400 0.115400
vn -0.238600 0.928400 0.284900
vn -0.002100 0.928500 0.371300
vn 0.203000 0.958800 0.198800
vn 0.368400 0.920100 0.132900
vn -0.030700 0.974000 0.224700
vn -0.204700 0.955000 0.214700
vn -0.346800 0.928000 0.136300
vn 0.235300 0.928500 0.287200
vn -0.245500 0.952800 0.178400
vn -0.203100 0.979100 -0.008900
vn -0.273000 0.961200 0.038400
vn -0.316500 0.945000 0.082500
vn 0.310100 0.950700 0.001600
vn 0.305900 0.948700 0.080400
vn 0.278500 0.949800 0.142300
vn 0.420100 0.907000 -0.030800
vn 0.368600 0.929200 0.028000
vn 0.301600 0.941200 0.152200
vn 0.359000 0.930000 -0.079000
vn 0.353700 0.935200 -0.017200
vn 0.304700 0.943600 0.129600
vn 0.246000 0.959500 -0.137600
vn 0.180900 0.980300 -0.078700
vn 0.116600 0.988000 0.101000
vn -0.113200 0.967500 -0.226100
vn -0.122700 0.986600 -0.107300
vn -0.176200 0.982700 0.057600
vn -0.329400 0.881000 -0.339700
vn -0.168000 0.985600 -0.019900
vn -0.156400 0.982000 0.105900
vn -0.020200 0.932400 -0.360800
vn -0.032900 0.996800 0.072800
vn -0.019700 0.998300 0.054300
vn 0.247200 0.890900 -0.381000
vn 0.409400 0.895300 -0.175600
vn 0.378300 0.916000 0.133600
vn 0.075800 0.966200 -0.246400
vn 0.210200 0.974600 -0.077100
vn 0.334100 0.938600 0.086100
vn -0.136900 0.978400 -0.154800
vn -0.091500 0.993300 -0.070000
vn -0.059600 0.991500 0.115800
vn -0.213200 0.970100 -0.115900
vn -0.214400 0.975400 -0.051900
vn -0.214600 0.972300 0.092300
vn -0.262100 0.960100 -0.098000
vn -0.288500 0.957000 -0.029400
vn -0.323200 0.943700 0.070600
vn 0.291800 0.879900 -0.375100
vn 0.022700 0.998500 -0.049900
vn 0.076900 0.987700 0.136300
vn -0.507200 0.821200 -0.261400
vn -0.515400 0.851400 -0.097100
vn -0.425500 0.898400 0.108400
vn 0.339600 -0.933400 -0.115700
vn -0.239800 -0.953100 -0.184800
vn -0.264500 -0.942100 -0.206000
vn -0.263200 -0.945400 -0.192400
vn -0.121700 -0.981100 -0.150700
vn -0.097100 -0.991100 0.091600
vn 0.062100 -0.968100 0.242800
vn 0.024500 -0.978900 0.202900
vn 0.140100 -0.972300 0.187200
vn 0.082500 -0.996400 0.021800
vn 0.037600 -0.978300 -0.204000
vn 0.206200 -0.954400 -0.215900
vn 0.343300 -0.928200 -0.143900
vn 0.093000 -0.974600 0.203800
vn -0.281800 -0.931400 0.230200
vn 0.215500 -0.976500 0.000000
vn 0.283600 -0.957800 -0.046900
vn 0.316900 -0.944500 -0.086200
vn -0.314000 -0.949300 -0.012300
vn -0.304800 -0.947900 -0.092800
vn -0.272400 -0.951000 -0.146300
vn -0.414300 -0.909500 0.033600
vn -0.363400 -0.931300 -0.026900
vn -0.299300 -0.942000 -0.151600
vn -0.350500 -0.932200 0.090000
vn -0.340700 -0.939800 0.028000
vn -0.296500 -0.946900 -0.124400
vn -0.225200 -0.962300 0.152200
vn -0.165800 -0.983100 0.078300
vn -0.121100 -0.987700 -0.099200
vn 0.022200 -0.999500 -0.022200
vn -0.163600 -0.979600 -0.116300
vn -0.213300 -0.975500 -0.053700
vn -0.400100 -0.914400 -0.061300
vn 0.149400 -0.988700 -0.011300
vn 0.174700 -0.978800 -0.107200
vn 0.031000 -0.999500 0.003100
vn 0.126900 -0.982400 0.137100
vn 0.049800 -0.975400 -0.214900
vn 0.028500 -0.988600 -0.147800
vn -0.040800 -0.961200 -0.272800
vn 0.023100 -0.993600 -0.110400
vn -0.062200 -0.998000 0.008000
vn 0.079100 -0.985800 -0.148400
vn 0.194000 -0.974900 -0.108800
vn 0.125000 -0.979600 0.157400
vn 0.082600 -0.993600 0.076600
vn 0.063700 -0.992600 -0.103200
vn 0.202700 -0.972300 0.116700
vn 0.201100 -0.977800 0.058700
vn 0.210000 -0.974100 -0.083900
vn 0.264500 -0.959700 0.095400
vn 0.283400 -0.958600 0.028300
vn 0.315800 -0.946400 -0.068400
vn 0.525000 -0.850900 -0.021000
vn 0.073300 -0.997300 -0.006900
vn -0.077600 -0.981600 -0.174600
vn -0.031800 -0.976900 -0.211300
vn 0.028000 -0.972000 -0.233500
vn -0.015600 -0.999400 -0.030900
vn 0.685600 -0.635200 -0.355700
vn 0.017200 -0.969700 0.243600
vn 0.211200 -0.883500 -0.418200
vn -0.854000 -0.427100 -0.297100
vn 0.487500 -0.658600 0.573300
vn -0.311800 -0.844900 0.434700
vn 0.637800 -0.761200 -0.117500
vn 0.251500 -0.798200 0.547500
vn -0.577500 -0.799400 -0.166000
vn -0.850000 -0.523400 -0.059500
vn 0.841400 -0.471100 0.264900
vn 0.411100 -0.762000 -0.500300
vn 0.113500 -0.961300 0.251000
vn 0.142100 -0.965000 -0.220300
vn -0.842000 -0.426100 -0.330900
vn 0.001100 -0.862800 -0.505500
vn 0.805800 -0.510200 0.300800
vn -0.166600 -0.917800 0.360500
vn 0.067700 -0.764500 0.641000
vn -0.306700 -0.917000 0.255000
vn -0.012200 -0.961100 -0.275900
vn 0.845200 -0.487800 0.218500
vn -0.672500 -0.531000 -0.515600
vn -0.611600 -0.663200 0.431500
vn 0.098900 -0.849000 -0.519100
vn 0.217500 -0.942100 0.255100
vn 0.146600 -0.960500 0.236600
vn -0.186200 -0.802700 -0.566600
vn -0.870500 -0.431800 -0.236300
vn 0.836600 -0.547700 0.005200
vn -0.063600 -0.963400 0.260400
vn -0.109600 -0.959800 -0.258300
vn -0.845500 -0.436700 -0.307100
vn -0.455600 -0.745000 0.487300
vn 0.332000 -0.882800 0.332500
vn -0.258700 -0.854500 -0.450500
vn 0.835900 -0.469700 0.284000
vn -0.350300 -0.696600 -0.626100
vn 0.641500 0.403800 -0.652200
vn 0.024300 -0.103600 0.994300
vn 0.211600 -0.556600 -0.803400
vn -0.364400 0.919200 -0.149300
vn 0.112700 0.507700 0.854100
vn -0.400500 -0.102500 0.910500
vn 0.891000 -0.151700 -0.428000
vn 0.095900 0.133600 0.986400
vn -0.866500 -0.120600 -0.484300
vn -0.566900 0.795700 0.213200
vn 0.331200 0.870800 0.363400
vn 0.404200 -0.031400 -0.914100
vn 0.486000 -0.036600 0.873200
vn 0.439600 -0.514900 -0.736000
vn -0.369400 0.919800 -0.132500
vn 0.209500 -0.440700 -0.872900
vn 0.368600 0.860800 0.351000
vn -0.605900 -0.148700 0.781500
vn -0.252300 -0.058400 0.965900
vn -0.729100 -0.078000 0.679900
vn 0.000000 0.310400 -0.950600
vn 0.354300 0.866000 0.352900
vn -0.265700 0.803200 -0.533200
vn -0.491700 0.274500 0.826300
vn 0.032400 -0.382600 -0.923400
vn 0.826200 -0.005300 0.563400
vn 0.427600 -0.055800 0.902300
vn 0.116300 -0.147900 -0.982100
vn -0.381300 0.917200 -0.115600
vn 0.545000 0.838500 -0.004600
vn -0.296500 -0.096800 0.950100
vn -0.590000 -0.510200 -0.625800
vn -0.392600 0.913600 -0.106300
vn -0.360100 0.045800 0.931800
vn 0.580400 0.043200 0.813200
vn -0.303200 -0.524100 -0.795900
vn 0.314500 0.868700 0.382600
vn 0.047400 0.214200 -0.975700
s off
f 72/1/1 28/2/1 4/3/1 36/4/1
f 35/5/2 2/6/2 17/7/2 39/8/2
f 39/8/3 17/7/3 18/9/3 42/10/3
f 42/10/4 18/9/4 19/11/4 45/12/4
f 45/12/5 19/11/5 20/13/5 48/14/5
f 48/14/6 20/13/6 21/15/6 51/16/6
f 78/17/7 32/18/7 22/19/7 54/20/7
f 54/20/8 22/19/8 23/21/8 57/22/8
f 75/23/9 30/24/9 24/25/9 60/26/9
f 60/26/10 24/25/10 25/27/10 63/28/10
f 63/28/11 25/27/11 26/29/11 66/30/11
f 66/30/12 26/29/12 27/31/12 69/32/12
f 69/32/13 27/31/13 28/2/13 72/1/13
f 57/22/14 23/21/14 30/24/14 75/23/14
f 51/16/15 21/15/15 32/18/15 78/17/15
f 5/33/16 74/34/16 38/35/16 3/36/16
f 74/34/17 73/37/17 37/38/17 38/35/17
f 73/37/18 72/1/18 36/4/18 37/38/18
f 1/39/19 33/40/19 41/41/19 16/42/19
f 33/40/20 34/43/20 40/44/20 41/41/20
f 34/43/21 35/5/21 39/8/21 40/44/21
f 16/42/22 41/41/22 44/45/22 15/46/22
f 41/41/23 40/44/23 43/47/23 44/45/23
f 40/44/24 39/8/24 42/10/24 43/47/24
f 15/46/25 44/45/25 47/48/25 14/49/25
f 44/45/26 43/47/26 46/50/26 47/48/26
f 43/47/27 42/10/27 45/12/27 46/50/27
f 14/49/28 47/48/28 50/51/28 13/52/28
f 47/48/29 46/50/29 49/53/29 50/51/29
f 46/50/30 45/12/30 48/14/30 49/53/30
f 13/52/31 50/51/31 53/54/31 12/55/31
f 50/51/32 49/53/32 52/56/32 53/54/32
f 49/53/33 48/14/33 51/16/33 52/56/33
f 31/57/34 80/58/34 56/59/34 11/60/34
f 80/58/35 79/61/35 55/62/35 56/59/35
f 79/61/36 78/17/36 54/20/36 55/62/36
f 11/60/37 56/59/37 59/63/37 10/64/37
f 56/59/38 55/62/38 58/65/38 59/63/38
f 55/62/39 54/20/39 57/22/39 58/65/39
f 29/66/40 77/67/40 62/68/40 9/69/40
f 77/67/41 76/70/41 61/71/41 62/68/41
f 76/70/42 75/23/42 60/26/42 61/71/42
f 9/69/43 62/68/43 65/72/43 8/73/43
f 62/68/44 61/71/44 64/74/44 65/72/44
f 61/71/45 60/26/45 63/28/45 64/74/45
f 8/73/46 65/72/46 68/75/46 7/76/46
f 65/72/47 64/74/47 67/77/47 68/75/47
f 64/74/48 63/28/48 66/30/48 67/77/48
f 7/76/49 68/75/49 71/78/49 6/79/49
f 68/75/50 67/77/50 70/80/50 71/78/50
f 67/77/51 66/30/51 69/32/51 70/80/51
f 6/79/52 71/78/52 74/34/52 5/33/52
f 71/78/53 70/80/53 73/37/53 74/34/53
f 70/80/54 69/32/54 72/1/54 73/37/54
f 10/64/55 59/63/55 77/67/55 29/66/55
f 59/63/56 58/65/56 76/70/56 77/67/56
f 58/65/57 57/22/57 75/23/57 76/70/57
f 12/55/58 53/54/58 80/58/58 31/57/58
f 53/54/59 52/56/59 79/61/59 80/58/59
f 52/56/60 51/16/60 78/17/60 79/61/60
f 81/81/61 82/82/61 83/83/61 84/84/61
f 85/85/62 86/86/62 87/87/62 88/88/62
f 86/86/63 89/89/63 90/90/63 87/87/63
f 89/89/64 91/91/64 92/92/64 90/90/64
f 91/91/65 93/93/65 94/94/65 92/92/65
f 93/93/66 95/95/66 96/96/66 94/94/66
f 97/97/67 98/98/67 99/99/67 100/100/67
f 98/98/68 101/101/68 102/102/68 99/99/68
f 103/103/69 104/104/69 105/105/69 106/106/69
f 104/104/70 107/107/70 108/108/70 105/105/70
f 107/107/71 109/109/71 110/110/71 108/108/71
f 109/109/72 111/111/72 112/112/72 110/110/72
f 111/111/73 81/81/73 84/84/73 112/112/73
f 101/101/74 103/103/74 106/106/74 102/102/74
f 95/95/75 97/97/75 100/100/75 96/96/75
f 113/113/76 114/114/76 115/115/76 116/116/76
f 116/116/77 115/115/77 117/117/77 118/118/77
f 118/118/78 117/117/78 82/82/78 81/81/78
f 119/119/79 120/120/79 121/121/79 122/122/79
f 122/122/80 121/121/80 123/123/80 124/124/80
f 124/124/81 123/123/81 86/86/81 85/85/81
f 120/120/82 125/125/82 126/126/82 121/121/82
f 121/121/83 126/126/83 127/127/83 123/123/83
f 123/123/84 127/127/84 89/89/84 86/86/84
f 125/125/85 128/128/85 129/129/85 126/126/85
f 126/126/86 129/129/86 130/130/86 127/127/86
f 127/127/87 130/130/87 91/91/87 89/89/87
f 128/128/88 131/131/88 132/132/88 129/129/88
f 129/129/89 132/132/89 133/133/89 130/130/89
f 130/130/90 133/133/90 93/93/90 91/91/90
f 131/131/91 134/134/91 135/135/91 132/132/91
f 132/132/92 135/135/92 136/136/92 133/133/92
f 133/133/93 136/136/93 95/95/93 93/93/93
f 137/137/94 138/138/94 139/139/94 140/140/94
f 140/140/95 139/139/95 141/141/95 142/142/95
f 142/142/96 141/141/96 98/98/96 97/97/96
f 138/138/97 143/143/97 144/144/97 139/139/97
f 139/139/98 144/144/98 145/145/98 141/141/98
f 141/141/99 145/145/99 101/101/99 98/98/99
f 146/146/100 147/147/100 148/148/100 149/149/100
f 149/149/101 148/148/101 150/150/101 151/151/101
f 151/151/102 150/150/102 104/104/102 103/103/102
f 147/147/103 152/152/103 153/153/103 148/148/103
f 148/148/104 153/153/104 154/154/104 150/150/104
f 150/150/105 154/154/105 107/107/105 104/104/105
f 152/152/106 155/155/106 156/156/106 153/153/106
f 153/153/107 156/156/107 157/157/107 154/154/107
f 154/154/108 157/157/108 109/109/108 107/107/108
f 155/155/109 158/158/109 159/159/109 156/156/109
f 156/156/110 159/159/110 160/160/110 157/157/110
f 157/157/111 160/160/111 111/111/111 109/109/111
f 158/158/112 113/113/112 116/116/112 159/159/112
f 159/159/113 116/116/113 118/118/113 160/160/113
f 160/160/114 118/118/114 81/81/114 111/111/114
f 143/143/115 146/146/115 149/149/115 144/144/115
f 144/144/116 149/149/116 151/151/116 145/145/116
f 145/145/117 151/151/117 103/103/117 101/101/117
f 134/134/118 137/137/118 140/140/118 135/135/118
f 135/135/119 140/140/119 142/142/119 136/136/119
f 136/136/120 142/142/120 97/97/120 95/95/120
f 161/161/121 162/162/121 113/163/121 158/164/121
f 163/165/122 164/166/122 99/167/122 102/168/122
f 165/169/123 166/170/123 134/171/123 131/172/123
f 167/173/124 168/174/124 119/175/124 122/176/124
f 169/177/125 170/178/125 84/179/125 83/180/125
f 171/181/126 172/182/126 92/183/126 94/184/126
f 173/185/127 174/186/127 146/187/127 143/188/127
f 175/189/128 176/190/128 110/191/128 112/192/128
f 177/193/129 178/194/129 138/195/129 137/196/129
f 179/197/130 180/198/130 88/199/130 87/200/130
f 181/201/131 182/202/131 82/203/131 117/204/131
f 183/205/132 161/161/132 158/164/132 155/206/132
f 184/207/133 185/208/133 106/209/133 105/210/133
f 174/186/134 186/211/134 147/212/134 146/187/134
f 187/213/135 167/173/135 122/176/135 124/214/135
f 188/215/136 165/169/136 131/172/136 128/216/136
f 189/217/137 190/218/137 115/219/137 114/220/137
f 191/221/138 171/181/138 94/184/138 96/222/138
f 170/178/139 175/189/139 112/192/139 84/179/139
f 192/223/140 191/221/140 96/222/140 100/224/140
f 178/194/141 173/185/141 143/188/141 138/195/141
f 190/218/142 181/201/142 117/204/142 115/219/142
f 168/174/143 193/225/143 120/226/143 119/175/143
f 194/227/144 179/197/144 87/200/144 90/228/144
f 195/229/145 183/205/145 155/206/145 152/230/145
f 196/231/146 184/207/146 105/210/146 108/232/146
f 185/208/147 163/165/147 102/168/147 106/209/147
f 197/233/148 188/215/148 128/216/148 125/234/148
f 198/235/149 187/213/149 124/214/149 85/236/149
f 162/162/150 189/217/150 114/220/150 113/163/150
f 164/166/151 192/223/151 100/224/151 99/167/151
f 166/170/152 177/193/152 137/196/152 134/171/152
f 180/198/153 198/235/153 85/236/153 88/199/153
f 172/182/154 194/227/154 90/228/154 92/183/154
f 176/190/155 196/231/155 108/232/155 110/191/155
f 186/211/156 195/229/156 152/230/156 147/212/156
f 182/202/157 169/177/157 83/180/157 82/203/157
f 193/225/158 197/233/158 125/234/158 120/226/158
f 6/237/159 5/238/159 162/162/159 161/161/159
f 23/239/160 22/240/160 164/166/160 163/165/160
f 13/241/161 12/242/161 166/170/161 165/169/161
f 33/243/162 1/244/162 168/174/162 167/173/162
f 4/245/163 28/246/163 170/178/163 169/177/163
f 20/247/164 19/248/164 172/182/164 171/181/164
f 10/249/165 29/250/165 174/186/165 173/185/165
f 27/251/166 26/252/166 176/190/166 175/189/166
f 31/253/167 11/254/167 178/194/167 177/193/167
f 17/255/168 2/244/168 180/198/168 179/197/168
f 37/256/169 36/257/169 182/202/169 181/201/169
f 7/258/170 6/237/170 161/161/170 183/205/170
f 24/259/171 30/260/171 185/208/171 184/207/171
f 29/250/172 9/261/172 186/211/172 174/186/172
f 34/262/173 33/243/173 167/173/173 187/213/173
f 14/263/174 13/241/174 165/169/174 188/215/174
f 3/245/175 38/257/175 190/218/175 189/217/175
f 21/264/176 20/247/176 171/181/176 191/221/176
f 28/246/177 27/251/177 175/189/177 170/178/177
f 32/265/178 21/264/178 191/221/178 192/223/178
f 11/254/179 10/249/179 173/185/179 178/194/179
f 38/257/180 37/256/180 181/201/180 190/218/180
f 1/244/181 16/255/181 193/225/181 168/174/181
f 18/266/182 17/255/182 179/197/182 194/227/182
f 8/267/183 7/258/183 183/205/183 195/229/183
f 25/268/184 24/259/184 184/207/184 196/231/184
f 30/260/185 23/239/185 163/165/185 185/208/185
f 15/269/186 14/263/186 188/215/186 197/233/186
f 35/243/187 34/262/187 187/213/187 198/235/187
f 5/238/188 3/245/188 189/217/188 162/162/188
f 22/240/189 32/265/189 192/223/189 164/166/189
f 12/242/190 31/253/190 177/193/190 166/170/190
f 2/244/191 35/243/191 198/235/191 180/198/191
f 19/248/192 18/266/192 194/227/192 172/182/192
f 26/252/193 25/268/193 196/231/193 176/190/193
f 9/261/194 8/267/194 195/229/194 186/211/194
f 36/257/195 4/245/195 169/177/195 182/202/195
f 16/255/196 15/269/196 197/233/196 193/225/196
