# Blender v2.76 (sub 0) OBJ File: 'npc_plantmutant.blend'
# www.blender.org
v -0.124672 0.284443 -0.304309
v -0.335846 0.461234 -0.286037
v -0.088328 0.294740 -0.412946
v -0.237826 0.524215 -0.492865
v -0.000584 0.327042 -0.478108
v 0.002120 0.532475 -0.617660
v 0.087160 0.355729 -0.493655
v 0.238922 0.601418 -0.490569
v 0.123504 0.311934 -0.402361
v 0.339921 0.489687 -0.314774
v 0.087160 0.280295 -0.238042
v 0.240178 0.496352 -0.075837
v -0.000584 0.301463 -0.138719
v 0.002075 0.523450 0.060243
v -0.088328 0.303594 -0.153425
v -0.236887 0.541184 -0.065723
v -0.330418 0.600640 -0.285151
v -0.232200 0.577321 -0.502153
v -0.001193 0.607054 -0.590473
v 0.227606 0.653987 -0.486669
v 0.313579 0.666216 -0.271179
v 0.211612 0.700179 -0.050879
v -0.019747 0.704264 0.032529
v -0.243623 0.658669 -0.066116
v -0.313641 0.689562 -0.299670
v -0.222023 0.675077 -0.492907
v -0.016482 0.705529 -0.566885
v 0.183122 0.749830 -0.474150
v 0.256127 0.781594 -0.280282
v 0.163669 0.801926 -0.086652
v -0.040935 0.785641 -0.010912
v -0.239450 0.737543 -0.099140
v -0.238171 0.948570 -0.232291
v -0.190776 0.978604 -0.328709
v -0.082785 1.009246 -0.357352
v 0.020445 1.022608 -0.309683
v 0.062133 1.010751 -0.221822
v 0.020899 0.980530 -0.132272
v -0.084131 0.949799 -0.096272
v -0.191752 0.936571 -0.136913
v -0.259099 1.118250 -0.183458
v -0.217409 1.144230 -0.233712
v -0.128647 1.170076 -0.241059
v -0.045091 1.180784 -0.201437
v -0.015430 1.170236 -0.139295
v -0.057376 1.144461 -0.089911
v -0.146820 1.118470 -0.082640
v -0.229614 1.107564 -0.121179
v -0.293923 1.212301 -0.118725
v -0.259468 1.253747 -0.144887
v -0.173971 1.286812 -0.141738
v -0.087758 1.292698 -0.111331
v -0.051307 1.268665 -0.071630
v -0.085579 1.227905 -0.045564
v -0.170620 1.194281 -0.048439
v -0.257069 1.187645 -0.078752
v -0.308940 1.213799 -0.042686
v -0.285196 1.266811 -0.029733
v -0.204096 1.305665 -0.010654
v -0.113835 1.307600 0.003284
v -0.066545 1.271445 0.004047
v -0.090270 1.218474 -0.008899
v -0.170957 1.179674 -0.027912
v -0.261669 1.177698 -0.041941
v -0.264182 1.217320 0.047134
v -0.251170 1.245217 0.054016
v -0.206752 1.264767 0.064342
v -0.160699 1.264284 0.071420
v -0.136390 1.245184 0.071711
v -0.149234 1.217878 0.064853
v -0.191750 1.198114 0.054856
v -0.239551 1.197747 0.047486
v -0.310897 1.210509 0.132659
v -0.295253 1.257705 0.156007
v -0.227578 1.281273 0.177511
v -0.154745 1.267217 0.183194
v -0.124581 1.223938 0.168694
v -0.140958 1.177142 0.145181
v -0.209167 1.153184 0.123586
v -0.281245 1.166830 0.118056
v -0.262242 1.157354 0.210855
v -0.257252 1.157924 0.237432
v -0.235938 1.164731 0.252064
v -0.210136 1.160405 0.246532
v -0.195608 1.160733 0.223728
v -0.200596 1.160229 0.197150
v -0.222186 1.159138 0.182362
v -0.247728 1.157992 0.188032
v -0.275779 1.107037 0.208097
v -0.270360 1.110749 0.258632
v -0.239800 1.117572 0.284960
v -0.203107 1.114467 0.271611
v -0.178969 1.112380 0.226775
v -0.179930 1.113386 0.177018
v -0.213456 1.111989 0.150012
v -0.254555 1.109291 0.162610
v -0.274575 1.047127 0.201355
v -0.268337 1.046367 0.252130
v -0.235058 1.043345 0.279169
v -0.193698 1.050665 0.266535
v -0.169041 1.053040 0.221727
v -0.175354 1.053713 0.170939
v -0.208880 1.052259 0.143935
v -0.249978 1.049531 0.156534
v -0.231421 1.002206 0.210545
v -0.231501 1.001401 0.229529
v -0.223643 0.995401 0.239021
v -0.214761 1.003211 0.232738
v -0.206749 1.008337 0.212713
v -0.207450 1.003990 0.196182
v -0.214523 1.003730 0.186951
v -0.224403 1.003018 0.192910
v -0.246762 0.949083 0.203680
v -0.243050 0.949473 0.246971
v -0.226317 0.955241 0.266614
v -0.204787 0.963787 0.254185
v -0.188650 0.968138 0.214491
v -0.190691 0.965997 0.171431
v -0.207676 0.960074 0.150584
v -0.231067 0.953033 0.163911
v -0.211760 0.902377 0.221521
v -0.209204 0.904945 0.241512
v -0.195791 0.910427 0.252081
v -0.179380 0.915611 0.247038
v -0.169582 0.917460 0.229336
v -0.172143 0.914895 0.209344
v -0.171951 0.869885 0.202096
v -0.201967 0.904220 0.203820
v -0.313721 0.725258 0.194428
v -0.275988 0.715398 0.319660
v -0.193950 0.784780 0.395628
v -0.038637 0.801277 0.363460
v 0.021945 0.846658 0.256379
v -0.005448 0.826764 0.133660
v -0.116072 0.757868 0.119181
v -0.242437 0.740841 0.087975
v -0.304427 0.561513 0.179786
v -0.284295 0.580153 0.296801
v -0.106878 0.622095 0.432703
v 0.066031 0.727159 0.338527
v 0.117826 0.717116 0.261305
v 0.072987 0.677820 0.134965
v -0.070723 0.627491 0.129274
v -0.207440 0.575735 0.081286
v -0.220193 0.489753 0.212305
v -0.185594 0.499145 0.304666
v -0.076481 0.515774 0.380050
v 0.035558 0.579740 0.345461
v 0.093362 0.607135 0.270059
v 0.049468 0.589508 0.188162
v -0.053392 0.554538 0.175177
v -0.152920 0.516839 0.150810
v -0.039219 0.483434 0.251532
v 0.086835 0.521767 0.323667
v -0.175674 0.425955 0.274036
v -0.148111 0.368420 0.269175
v 0.132669 0.530920 0.291282
v -0.216494 0.379538 0.222850
v 0.083236 0.519749 0.275210
v -0.146618 0.353419 0.226148
v -0.200666 0.332524 0.280854
v -0.198659 0.312370 0.223044
v -0.174759 0.354190 0.285681
v -0.172268 0.329176 0.213929
v -0.065989 0.359449 0.325459
v -0.055790 0.321599 0.203039
v -0.211003 0.249490 0.335248
v -0.189894 0.225951 0.221285
v -0.136441 0.323809 0.373652
v -0.129301 0.252121 0.168022
v -0.000602 0.278306 0.356312
v 0.008716 0.238499 0.233902
v -0.138422 0.156534 0.369340
v -0.131021 0.163799 0.251439
v -0.072443 0.243382 0.398570
v -0.084568 0.222365 0.195267
v -0.037888 0.169158 0.316375
v 0.023997 0.399325 0.272821
v -0.048715 0.374485 0.254427
v -0.033390 0.387452 0.218767
v -0.011874 0.391610 0.263592
v -0.054464 0.465459 0.220413
v 0.098780 0.475589 0.309200
v 0.180109 0.476533 0.297060
v 0.158059 0.482825 0.336248
v 0.123080 0.471031 0.277571
v 0.124471 0.481522 0.335519
v 0.158483 0.471816 0.275072
v 0.032787 0.418097 0.333287
v 0.246996 0.400561 0.288163
v 0.202875 0.422533 0.397911
v 0.086653 0.398343 0.227710
v 0.098576 0.424964 0.395388
v 0.197657 0.393577 0.232592
v 0.026430 0.301729 0.352067
v 0.245914 0.283254 0.308203
v 0.192624 0.309528 0.417980
v 0.080394 0.281206 0.246643
v 0.083939 0.298333 0.435146
v 0.192344 0.275663 0.246984
v 0.133951 0.234429 0.345628
v -0.081320 0.464502 0.168495
v -0.098322 0.446879 0.209654
v -0.005807 0.479036 0.232334
v 0.035076 0.505922 0.192768
v 0.040484 0.502495 0.238012
v 0.059278 0.421666 0.238232
v 0.063648 0.421907 0.277307
v 0.065113 0.255006 0.386024
v 0.013847 0.263401 0.372605
v 0.033768 0.252750 0.349888
v 0.029233 0.270032 0.377129
v 0.089685 0.270951 0.361922
v 0.084898 0.276114 0.387558
v 0.115956 0.149736 0.374801
v 0.079190 0.142547 0.365112
v 0.085600 0.158539 0.342610
v 0.095609 0.147272 0.369388
v 0.136585 0.173639 0.353715
v 0.132771 0.164645 0.377047
v -0.213227 0.745076 0.382683
v -0.108492 0.800236 0.369269
v -0.226476 0.572331 0.384615
v -0.082449 0.666232 0.450021
v -0.007750 0.750157 0.387293
v -0.157250 0.722250 0.434447
v -0.266676 0.649548 0.350600
v -0.096916 0.706290 0.426766
v -0.205822 0.683319 0.405009
v -0.119214 0.619332 0.598325
v -0.265198 0.620831 0.548108
v -0.006523 0.696808 0.468833
v -0.108864 0.844361 0.499923
v -0.132989 0.769000 0.381503
v -0.173213 0.638060 0.452976
v -0.276267 0.758300 0.594279
v -0.269048 0.713366 0.449783
v 0.114663 0.289588 -0.107411
v 0.216632 0.417544 -0.041750
v 0.074292 0.294429 -0.062858
v 0.146113 0.411325 0.042438
v 0.201742 0.357496 -0.118650
v 0.073119 0.352129 0.034200
v -0.079299 0.335322 -0.000304
v -0.148627 0.487886 0.078511
v -0.126999 0.322327 -0.039915
v -0.236921 0.475874 -0.015283
v -0.079511 0.416050 0.072667
v -0.217097 0.394824 -0.062760
v 0.164914 0.219157 -0.123762
v 0.288502 0.383328 -0.020191
v 0.105584 0.218664 -0.065132
v 0.210305 0.383167 0.092162
v 0.280493 0.317615 -0.120209
v 0.103862 0.293920 0.076090
v -0.106026 0.265067 0.029989
v -0.208022 0.495064 0.147607
v -0.172971 0.257430 -0.020658
v -0.320861 0.463146 0.021530
v -0.106339 0.388044 0.139624
v -0.296143 0.356215 -0.040401
v 0.184745 0.157323 -0.076092
v 0.313168 0.319325 0.032651
v 0.125416 0.156830 -0.017462
v 0.230136 0.313263 0.121890
v 0.302160 0.255503 -0.082002
v 0.136086 0.228932 0.112641
v -0.126623 0.247670 0.087293
v -0.222785 0.447996 0.192886
v -0.185105 0.224481 0.053269
v -0.342019 0.417996 0.091875
v -0.139995 0.339118 0.191910
v -0.309221 0.310992 0.015952
v 0.192605 0.158330 -0.012028
v 0.255771 0.236928 0.029293
v 0.167245 0.158119 0.013033
v 0.212007 0.226725 0.079771
v 0.236547 0.196379 -0.005111
v 0.165335 0.184216 0.073763
v -0.198325 0.253428 0.145568
v -0.244915 0.366415 0.186885
v -0.228288 0.245095 0.120497
v -0.298152 0.344623 0.137066
v -0.196959 0.303066 0.194629
v -0.273134 0.290246 0.119383
v 0.256114 0.145898 0.037366
v 0.273705 0.215937 0.063967
v 0.220302 0.123901 0.046525
v 0.243473 0.214197 0.108368
v 0.277138 0.182858 0.043211
v 0.185048 0.171328 0.093246
v -0.232496 0.242093 0.196766
v -0.267693 0.351598 0.232964
v -0.275778 0.243688 0.154778
v -0.309088 0.341843 0.184601
v -0.195329 0.291938 0.232373
v -0.284870 0.257857 0.177575
v 0.229682 0.014751 0.080064
v 0.295040 0.176491 0.103743
v 0.261327 0.168700 0.144319
v 0.311426 0.100198 0.107976
v 0.243689 0.088324 0.151526
v -0.182737 0.164279 0.232746
v -0.281732 0.327822 0.263256
v -0.313829 0.320988 0.230456
v -0.248574 0.249578 0.290783
v -0.279844 0.240452 0.231773
v -0.115835 0.257262 -0.334266
v -0.210567 0.351215 -0.343083
v -0.090881 0.265025 -0.404256
v -0.173652 0.375791 -0.423899
v 0.119817 0.360180 -0.501084
v 0.207253 0.459792 -0.468490
v 0.143987 0.329060 -0.443028
v 0.232245 0.426348 -0.425986
v -0.173555 0.298629 -0.313215
v -0.121912 0.326867 -0.435174
v 0.151370 0.425728 -0.504948
v 0.200336 0.361701 -0.411573
v -0.125302 0.191689 -0.333119
v -0.300234 0.366420 -0.343931
v -0.079222 0.205951 -0.445046
v -0.225497 0.394286 -0.470568
v 0.082357 0.296532 -0.578465
v 0.256352 0.477208 -0.512565
v 0.131115 0.239840 -0.475304
v 0.306903 0.431850 -0.434423
v -0.231889 0.267827 -0.295359
v -0.136524 0.320148 -0.502139
v 0.146007 0.428971 -0.586446
v 0.242356 0.304806 -0.416265
v -0.171556 0.140886 -0.388890
v -0.334171 0.289073 -0.392270
v -0.125349 0.148879 -0.492343
v -0.266004 0.333117 -0.529415
v 0.131450 0.260979 -0.633783
v 0.295286 0.447024 -0.579877
v 0.169523 0.206934 -0.531605
v 0.345837 0.379543 -0.497070
v -0.265825 0.189716 -0.348592
v -0.170461 0.242774 -0.550236
v 0.184941 0.381932 -0.661132
v 0.281290 0.252499 -0.478913
v -0.195246 0.166652 -0.433484
v -0.315859 0.198389 -0.440478
v -0.191937 0.176813 -0.489042
v -0.295985 0.235299 -0.509112
v 0.187426 0.266511 -0.638028
v 0.295352 0.318416 -0.627376
v 0.204901 0.233834 -0.596201
v 0.310228 0.281373 -0.594317
v -0.261241 0.172353 -0.417485
v -0.231161 0.220285 -0.518413
v 0.234471 0.309526 -0.648121
v 0.264483 0.240541 -0.579839
v 0.245708 0.264733 -0.682437
v 0.322311 0.308946 -0.659826
v 0.267068 0.232416 -0.622244
v 0.341886 0.260200 -0.616323
v 0.276772 0.297083 -0.682525
v 0.304297 0.240503 -0.607475
v 0.230629 0.144209 -0.754469
v 0.333249 0.274092 -0.680288
v -0.258265 0.145969 -0.458530
v 0.341482 0.252577 -0.661771
v 0.279588 0.233092 -0.728745
v 0.293684 0.177009 -0.671727
v -0.341100 0.178094 -0.462536
v -0.241033 0.134989 -0.531766
v -0.324320 0.205637 -0.518803
v -0.300773 0.148257 -0.439096
v -0.275664 0.198754 -0.544829
v -0.201346 0.019897 -0.566459
v -0.350060 0.137563 -0.499841
v -0.338837 0.154980 -0.537095
v -0.284283 0.070145 -0.502369
v -0.265779 0.094953 -0.558257
v -0.243113 0.473716 0.204577
v 0.123135 0.617701 0.276009
vt 0.639038 0.667232
vt 0.569494 0.686580
vt 0.595985 0.633488
vt 0.243676 0.116714
vt 0.295031 0.196246
vt 0.213922 0.172681
vt 0.132813 0.196246
vt 0.184167 0.116714
vt 0.732454 0.126028
vt 0.742444 0.126644
vt 0.737801 0.140414
vt 0.724659 0.188247
vt 0.652169 0.194542
vt 0.703271 0.123392
vt 0.668630 0.149577
vt 0.292391 0.216490
vt 0.213922 0.210475
vt 0.661122 0.600269
vt 0.713884 0.673732
vt 0.191799 0.599053
vt 0.222426 0.597912
vt 0.194950 0.590054
vt 0.265739 0.601808
vt 0.253053 0.599053
vt 0.612480 0.261448
vt 0.643935 0.255524
vt 0.656404 0.288865
vt 0.643978 0.721930
vt 0.792014 0.206985
vt 0.795815 0.226921
vt 0.719875 0.241223
vt 0.755197 0.656741
vt 0.754864 0.742813
vt 0.722387 0.736696
vt 0.738596 0.775730
vt 0.706414 0.836129
vt 0.693198 0.839216
vt 0.283840 0.257507
vt 0.213922 0.252975
vt 0.724409 0.278090
vt 0.709512 0.771121
vt 0.639296 0.759995
vt 0.569081 0.748869
vt 0.792414 0.267314
vt 0.135452 0.216490
vt 0.706113 0.897887
vt 0.686785 0.904433
vt 0.144004 0.257507
vt 0.213922 0.364057
vt 0.628235 0.293329
vt 0.672205 0.354816
vt 0.250816 0.361021
vt 0.703109 0.362034
vt 0.661289 0.846668
vt 0.629381 0.854121
vt 0.734012 0.369252
vt 0.244316 0.416941
vt 0.244316 0.455131
vt 0.213922 0.459882
vt 0.667458 0.910979
vt 0.697134 0.424320
vt 0.714118 0.895175
vt 0.177028 0.361021
vt 0.213922 0.419608
vt 0.659404 0.351826
vt 0.659696 0.411640
vt 0.678415 0.417980
vt 0.183528 0.455131
vt 0.213922 0.466072
vt 0.654043 0.450631
vt 0.722939 0.926480
vt 0.711950 0.938145
vt 0.700962 0.949810
vt 0.664685 0.461929
vt 0.727490 0.921649
vt 0.183528 0.416941
vt 0.643400 0.439334
vt 0.638992 0.434654
vt 0.742836 0.960935
vt 0.741602 0.954413
vt 0.767629 0.942661
vt 0.222425 0.924397
vt 0.253711 0.929288
vt 0.253711 0.925685
vt 0.244316 0.459658
vt 0.628209 0.451137
vt 0.735645 0.922921
vt 0.738624 0.938667
vt 0.625324 0.466387
vt 0.734411 0.916399
vt 0.600117 0.455005
vt 0.599489 0.458327
vt 0.560971 0.463246
vt 0.631094 0.435887
vt 0.601634 0.446984
vt 0.764495 0.926099
vt 0.766062 0.934380
vt 0.763847 0.922669
vt 0.624129 0.472704
vt 0.632289 0.429570
vt 0.603152 0.438964
vt 0.247499 0.947751
vt 0.230819 0.911234
vt 0.234293 0.911363
vt 0.577540 0.426830
vt 0.580383 0.420582
vt 0.805112 0.944718
vt 0.808046 0.951170
vt 0.570677 0.441914
vt 0.790939 0.913570
vt 0.798025 0.929144
vt 0.563814 0.456998
vt 0.788004 0.907119
vt 0.529014 0.420025
vt 0.536333 0.419918
vt 0.536037 0.405531
vt 0.222431 0.909688
vt 0.222431 0.911545
vt 0.214044 0.911492
vt 0.222431 0.954282
vt 0.222431 0.913122
vt 0.247499 0.916219
vt 0.230819 0.911492
vt 0.197364 0.947751
vt 0.214044 0.911234
vt 0.255842 0.931985
vt 0.189312 0.931985
vt 0.197364 0.916219
vt 0.210570 0.911363
vt 0.222392 0.895299
vt 0.235677 0.894950
vt 0.235677 0.874126
vt 0.528603 0.421276
vt 0.521484 0.407511
vt 0.535611 0.406811
vt 0.543211 0.421062
vt 0.535907 0.421169
vt 0.543651 0.419810
vt 0.550192 0.406125
vt 0.877696 0.669450
vt 0.877659 0.654169
vt 0.865164 0.653841
vt 0.877696 0.670933
vt 0.877659 0.655218
vt 0.888585 0.653720
vt 0.869806 0.669157
vt 0.866060 0.653720
vt 0.865164 0.634254
vt 0.877659 0.634582
vt 0.877659 0.618379
vt 0.865164 0.632672
vt 0.877659 0.630884
vt 0.521881 0.406232
vt 0.533729 0.388167
vt 0.519181 0.390181
vt 0.533308 0.389481
vt 0.547436 0.388782
vt 0.547885 0.387466
vt 0.527896 0.376025
vt 0.519727 0.363947
vt 0.531910 0.363343
vt 0.877659 0.615331
vt 0.880499 0.617648
vt 0.890154 0.634254
vt 0.880499 0.618253
vt 0.874819 0.617648
vt 0.519574 0.388868
vt 0.533013 0.375806
vt 0.533308 0.375757
vt 0.538720 0.375488
vt 0.539152 0.374147
vt 0.873998 0.602470
vt 0.867323 0.602734
vt 0.872200 0.585784
vt 0.873642 0.617951
vt 0.863752 0.603920
vt 0.544534 0.361373
vt 0.532328 0.361977
vt 0.873853 0.604885
vt 0.866710 0.604602
vt 0.880995 0.603238
vt 0.880995 0.604602
vt 0.528306 0.374684
vt 0.877478 0.585787
vt 0.898503 0.539310
vt 0.882756 0.585784
vt 0.535264 0.345894
vt 0.529678 0.345888
vt 0.529265 0.347286
vt 0.544055 0.362293
vt 0.534840 0.347291
vt 0.540851 0.345899
vt 0.877478 0.572002
vt 0.565849 0.298483
vt 0.552622 0.268791
vt 0.532167 0.307657
vt 0.919529 0.542616
vt 0.835426 0.532297
vt 0.861315 0.533115
vt 0.872283 0.542989
vt 0.497574 0.309103
vt 0.531749 0.309130
vt 0.540416 0.347297
vt 0.877478 0.533538
vt 0.835426 0.542616
vt 0.493801 0.259313
vt 0.527669 0.262903
vt 0.530936 0.234983
vt 0.877478 0.488098
vt 0.827905 0.488113
vt 0.858007 0.512645
vt 0.832727 0.510142
vt 0.841095 0.495950
vt 0.927051 0.488113
vt 0.924620 0.512550
vt 0.894883 0.507510
vt 0.923692 0.493793
vt 0.498484 0.307630
vt 0.492900 0.260881
vt 0.526209 0.264464
vt 0.558593 0.264357
vt 0.565364 0.299974
vt 0.509458 0.237701
vt 0.530521 0.236600
vt 0.546173 0.210174
vt 0.534472 0.211723
vt 0.531070 0.236093
vt 0.877478 0.461902
vt 0.841814 0.461913
vt 0.882913 0.482386
vt 0.877478 0.447126
vt 0.916593 0.456007
vt 0.913142 0.461913
vt 0.838446 0.481065
vt 0.838362 0.456007
vt 0.822160 0.460668
vt 0.805873 0.429698
vt 0.812819 0.459554
vt 0.555502 0.230851
vt 0.532505 0.210339
vt 0.827352 0.434257
vt 0.942469 0.434430
vt 0.955953 0.414902
vt 0.947518 0.414430
vt 0.877478 0.435024
vt 0.509832 0.236087
vt 0.524129 0.209803
vt 0.852022 0.431379
vt 0.932796 0.460668
vt 0.530762 0.194876
vt 0.541148 0.196616
vt 0.815702 0.413679
vt 0.824675 0.413745
vt 0.795775 0.404196
vt 0.807420 0.406117
vt 0.825393 0.383109
vt 0.936292 0.415427
vt 0.952106 0.492162
vt 0.942885 0.461920
vt 0.777572 0.384357
vt 0.782949 0.345534
vt 0.816973 0.357269
vt 0.834989 0.390689
vt 0.812218 0.390892
vt 0.786225 0.403653
vt 0.792021 0.377602
vt 0.791904 0.407389
vt 0.773769 0.378571
vt 0.533691 0.182581
vt 0.522756 0.184315
vt 0.523696 0.210049
vt 0.533322 0.183087
vt 0.521681 0.185988
vt 0.780510 0.350620
vt 0.840283 0.356421
vt 0.830117 0.348451
vt 0.800330 0.360992
vt 0.981402 0.338008
vt 0.972092 0.346949
vt 0.946506 0.325876
vt 0.938436 0.347021
vt 0.915518 0.351209
vt 0.970640 0.344962
vt 0.940207 0.345027
vt 0.947504 0.325907
vt 0.928522 0.342325
vt 0.960257 0.337103
vt 0.925514 0.344033
vt 0.960609 0.338257
vt 0.967231 0.402467
vt 0.984943 0.375834
vt 0.965841 0.376056
vt 0.943685 0.397376
vt 0.948762 0.395631
vt 0.933253 0.376300
vt 0.820377 0.410917
vt 0.946531 0.381722
vt 0.964988 0.371282
vt 0.958745 0.394745
vt 0.962272 0.397253
vt 0.952617 0.397967
vt 0.942283 0.404913
vt 0.920761 0.388530
vt 0.945430 0.387602
vt 0.962838 0.404777
vt 0.978360 0.383069
vt 0.885982 0.430393
vt 0.886362 0.400009
vt 0.901267 0.401557
vt 0.885762 0.347456
vt 0.894493 0.351286
vt 0.930745 0.381606
vt 0.562847 0.142872
vt 0.554739 0.138564
vt 0.510340 0.214315
vt 0.522915 0.210686
vt 0.868042 0.430659
vt 0.857304 0.400751
vt 0.903401 0.432264
vt 0.899606 0.435479
vt 0.524913 0.208145
vt 0.511509 0.212653
vt 0.809684 0.334185
vt 0.868552 0.349863
vt 0.871218 0.354732
vt 0.872052 0.309174
vt 0.886596 0.309430
vt 0.893677 0.311744
vt 0.534452 0.181209
vt 0.555674 0.136784
vt 0.871012 0.400185
vt 0.865522 0.355126
vt 0.563290 0.138015
vt 0.532620 0.183587
vt 0.894716 0.314680
vt 0.866356 0.310274
vt 0.869387 0.314818
vt 0.893882 0.349897
vt 0.557096 0.102961
vt 0.549355 0.107557
vt 0.556040 0.103538
vt 0.811646 0.408898
vt 0.802822 0.408833
vt 0.808535 0.408963
vt 0.798824 0.408411
vt 0.545697 0.196493
vt 0.929198 0.432682
vt 0.940627 0.418054
vt 0.951485 0.417251
vt 0.547307 0.197205
vt 0.529477 0.235614
vt 0.532745 0.209199
vt 0.531479 0.190365
vt 0.548189 0.193726
vt 0.816818 0.492041
vt 0.804599 0.412210
vt 0.919529 0.532297
vt 0.910573 0.549586
vt 0.888295 0.531951
vt 0.878722 0.518710
vt 0.865633 0.493903
vt 0.855461 0.538441
vt 0.844602 0.527541
vt 0.888150 0.478532
vt 0.896176 0.492965
vt 0.941791 0.498803
vt 0.139479 0.638965
vt 0.107561 0.633032
vt 0.150019 0.623116
vt 0.691183 0.122300
vt 0.666808 0.126308
vt 0.612158 0.178086
vt 0.616572 0.160658
vt 0.222425 0.656222
vt 0.248561 0.601419
vt 0.248152 0.616743
vt 0.170725 0.630747
vt 0.185512 0.589344
vt 0.293048 0.626423
vt 0.320536 0.612057
vt 0.280193 0.577769
vt 0.718785 0.639695
vt 0.750252 0.631576
vt 0.692810 0.618517
vt 0.194876 0.607766
vt 0.178300 0.590818
vt 0.185621 0.563314
vt 0.327016 0.639233
vt 0.338697 0.618290
vt 0.331784 0.591272
vt 0.161152 0.564437
vt 0.155999 0.542196
vt 0.109782 0.581446
vt 0.258882 0.599287
vt 0.259484 0.576766
vt 0.266406 0.554526
vt 0.098948 0.612954
vt 0.262653 0.602101
vt 0.146851 0.617526
vt 0.119260 0.601896
vt 0.297752 0.644808
vt 0.273433 0.638005
vt 0.296037 0.630533
vt 0.176898 0.567775
vt 0.144866 0.600875
vt 0.138186 0.570392
vt 0.311907 0.581799
vt 0.142945 0.545310
vt 0.127292 0.560129
vt 0.281006 0.554543
vt 0.280340 0.562785
vt 0.270130 0.577830
vt 0.302959 0.608292
vt 0.179140 0.546825
vt 0.287115 0.555528
vt 0.296631 0.577525
vt 0.307614 0.572751
vt 0.322261 0.576942
vt 0.153404 0.544831
vt 0.154515 0.530596
vt 0.289858 0.554972
vt 0.294966 0.542064
vt 0.282465 0.541459
vt 0.153881 0.554726
vt 0.154449 0.546308
vt 0.118559 0.575555
vt 0.305197 0.568144
vt 0.129191 0.565625
vt 0.114742 0.568606
vt 0.107515 0.558457
vt 0.313846 0.561102
vt 0.325613 0.564394
vt 0.302800 0.497091
vt 0.139745 0.531273
vt 0.319333 0.562744
vt 0.282102 0.555053
vt 0.111848 0.554965
vt 0.322803 0.544818
vt 0.124290 0.554044
vt 0.118706 0.540286
vt 0.299159 0.538287
vt 0.142950 0.529581
vt 0.144803 0.499799
vt 0.303305 0.635725
vt 0.292136 0.616845
vt 0.307224 0.598443
vt 0.149131 0.625384
vt 0.162016 0.632681
vt 0.143919 0.638490
vt 0.748985 0.158477
vt 0.191799 0.604563
vt 0.179112 0.601808
vt 0.182197 0.592427
vt 0.253053 0.604563
vt 0.264452 0.604284
vt 0.272888 0.602452
vt 0.600859 0.605712
vt 0.592765 0.616479
vt 0.761636 0.128663
vt 0.771850 0.147953
vt 0.630991 0.602991
vt 0.630777 0.608062
vt 0.268395 0.569408
vt 0.275465 0.624725
vt 0.294558 0.640679
vt 0.312109 0.640101
vt 0.251376 0.573104
vt 0.264966 0.547612
vt 0.281985 0.543916
vt 0.273593 0.614339
vt 0.325700 0.621031
vt 0.287183 0.588847
vt 0.194977 0.573153
vt 0.183131 0.545505
vt 0.163130 0.584550
vt 0.117832 0.630518
vt 0.141688 0.596465
vt 0.190907 0.594318
vt 0.174975 0.612198
vt 0.162050 0.606943
vt 0.178892 0.569661
vt 0.180076 0.615463
vt 0.329754 0.636529
vt 0.320814 0.572952
vt 0.314947 0.555006
vt 0.330915 0.566038
vt 0.288051 0.555170
vt 0.294150 0.550573
vt 0.325722 0.573259
vt 0.304472 0.567513
vt 0.343344 0.611038
vt 0.167047 0.542013
vt 0.129780 0.616346
vt 0.105987 0.602870
vt 0.129843 0.568817
vt 0.112379 0.570579
vt 0.102345 0.559651
vt 0.126849 0.548385
vt 0.320953 0.541672
vt 0.119315 0.582509
vt 0.141942 0.577144
vt 0.140344 0.568089
vt 0.341965 0.556188
vt 0.335132 0.565690
vt 0.154479 0.559606
vt 0.131443 0.561814
vt 0.160598 0.565223
vt 0.329572 0.518879
vt 0.345666 0.546801
vt 0.285560 0.541887
vt 0.293586 0.535837
vt 0.307168 0.558130
vt 0.315787 0.535337
vt 0.337768 0.553455
vt 0.156458 0.545547
vt 0.303131 0.499768
vt 0.111261 0.574985
vt 0.164323 0.552766
vt 0.119729 0.522043
vt 0.099064 0.545592
vt 0.105735 0.557065
vt 0.133224 0.541748
vt 0.141711 0.503045
vt 0.621897 0.626279
vt 0.213922 0.117822
vt 0.643164 0.167166
vt 0.222426 0.605704
vt 0.565570 0.707163
vt 0.651943 0.409014
vt 0.183528 0.459658
vt 0.768277 0.946091
vt 0.222425 0.919082
vt 0.603780 0.435642
vt 0.222392 0.874474
vt 0.549739 0.407404
vt 0.869806 0.669399
vt 0.885585 0.669157
vt 0.874819 0.618254
vt 0.890154 0.632672
vt 0.520122 0.362582
vt 0.570710 0.280977
vt 0.573340 0.280372
vt 0.802706 0.492161
vt 0.924689 0.432869
vt 0.958937 0.402003
vt 0.924224 0.382561
vt 0.976308 0.377624
vt 0.952160 0.405567
vt 0.857107 0.435481
vt 0.563821 0.134620
vt 0.562358 0.143221
vt 0.550265 0.105564
vt 0.533263 0.194411
vt 0.545379 0.213233
vt 0.653501 0.125655
vt 0.690409 0.592134
vt 0.766021 0.163216
vt 0.604257 0.595592
vt 0.761852 0.128396
vt 0.624945 0.593724
vn -0.928500 -0.371100 0.013800
vn -0.678300 -0.244800 -0.692800
vn -0.509400 0.374100 -0.775000
vn 0.420500 -0.707700 -0.567700
vn -0.008300 -0.096900 -0.995200
vn 0.705000 0.034700 -0.708300
vn 0.065800 -0.714600 -0.696400
vn 0.161000 -0.968700 -0.189000
vn -0.309300 -0.891200 0.331700
vn 0.414700 -0.591400 0.691500
vn 0.953800 -0.292900 -0.066400
vn 0.849400 -0.090900 0.519900
vn 0.219300 -0.972800 -0.074600
vn 0.583000 0.099500 -0.806400
vn -0.663800 0.031700 -0.747200
vn -0.011500 0.271500 -0.962400
vn -0.316300 -0.943200 0.101300
vn -0.845500 -0.006400 0.533900
vn -0.089000 -0.953300 0.288600
vn 0.760400 -0.614800 0.209000
vn -0.032300 0.270800 0.962100
vn 0.653300 0.247400 0.715500
vn 0.583300 0.532800 0.613000
vn -0.995200 0.096600 -0.014600
vn 0.677400 0.292100 -0.675100
vn 0.958800 0.281900 0.033700
vn 0.129700 0.090200 0.987400
vn -0.718300 0.132100 0.683100
vn -0.098200 0.425800 0.899400
vn -0.073300 0.186700 0.979700
vn -0.671700 0.078700 0.736700
vn -0.641300 0.267400 -0.719200
vn -0.030200 0.381900 -0.923700
vn 0.839500 0.540800 -0.052500
vn -0.753900 0.272300 0.597900
vn -0.968300 0.225200 -0.108300
vn 0.561200 0.498200 -0.660900
vn -0.654400 -0.388200 0.648900
vn -0.973100 -0.111200 -0.201700
vn -0.043900 0.571900 -0.819100
vn 0.552000 0.351500 0.756100
vn -0.641200 0.387600 -0.662300
vn 0.822400 0.565000 0.065600
vn -0.989800 0.142400 -0.003400
vn 0.522200 0.642200 -0.561000
vn -0.539000 0.359500 -0.761700
vn -0.558300 0.630200 -0.539500
vn -0.090900 0.850700 -0.517700
vn 0.550600 0.632700 -0.544500
vn -0.123100 -0.288700 0.949500
vn 0.010400 0.606700 -0.794800
vn 0.489700 -0.113000 0.864500
vn 0.920900 0.350300 0.171000
vn 0.391800 0.846700 -0.359800
vn -0.250200 0.956900 0.147400
vn 0.909800 0.396900 0.120800
vn -0.482900 -0.848500 0.216200
vn -0.968900 -0.040800 -0.243900
vn 0.176600 -0.951800 0.250600
vn 0.685300 -0.573500 0.448700
vn -0.730400 0.673600 0.112400
vn -0.677400 0.732700 0.065700
vn 0.674200 -0.720100 0.163900
vn 0.878900 0.199700 0.433200
vn -0.302800 -0.952800 -0.021600
vn -0.966200 -0.245200 0.078600
vn 0.271400 0.912300 0.306600
vn 0.256500 -0.953000 -0.160800
vn 0.285800 0.908300 0.305400
vn -0.224600 0.962800 0.150300
vn -0.154900 0.896700 0.414600
vn 0.891700 0.208700 0.401700
vn -0.280200 -0.947800 -0.152300
vn -0.974900 -0.217400 -0.048400
vn 0.249100 -0.961600 -0.114600
vn 0.675700 -0.736300 0.035200
vn 0.511000 0.703200 0.494300
vn 0.529200 0.398900 0.748900
vn 0.945900 -0.016300 0.323900
vn 0.723400 -0.690100 0.021800
vn 0.126900 -0.963200 -0.236700
vn -0.737700 0.639900 0.215100
vn 0.938100 0.042500 0.343600
vn -0.588100 -0.782500 -0.204400
vn -0.995500 -0.081900 -0.046800
vn 0.888000 -0.399100 -0.228200
vn 0.940300 0.249200 0.231700
vn 0.171200 -0.655900 -0.735100
vn -0.687700 -0.485200 -0.540000
vn -0.178800 0.549000 0.816500
vn -0.804200 0.349300 0.480800
vn -0.993800 -0.099900 -0.048700
vn 0.160200 0.335700 -0.928200
vn 0.836900 0.325700 -0.439800
vn 0.844600 -0.254000 -0.471300
vn -0.634100 0.240500 -0.734900
vn -0.977800 0.140500 -0.154900
vn 0.608900 0.235900 0.757300
vn -0.181500 0.252400 0.950400
vn -0.867800 0.153100 0.472700
vn -0.573300 -0.324700 -0.752300
vn 0.197300 -0.268500 -0.942800
vn 0.175500 -0.097400 -0.979600
vn -0.822500 -0.374000 0.428500
vn -0.152500 -0.410000 0.899300
vn 0.946700 -0.268600 0.177900
vn -0.915500 -0.354100 -0.191000
vn 0.644100 -0.294900 0.705800
vn -0.767200 -0.201900 -0.608800
vn -0.692800 -0.184400 -0.697100
vn -0.962200 -0.205300 -0.178700
vn -0.220300 0.164900 0.961400
vn 0.804600 -0.084400 0.587700
vn 0.964000 -0.017200 -0.265200
vn -0.918100 -0.265300 0.294500
vn 0.969500 -0.180500 0.165800
vn -0.948700 -0.252300 -0.190600
vn -0.268200 0.086900 0.959400
vn -0.899700 -0.149700 0.409900
vn -0.875600 -0.014300 0.482800
vn 0.588300 0.369500 0.719200
vn 0.908000 0.392600 0.146100
vn 0.100900 0.057100 -0.993300
vn 0.838900 0.290000 -0.460600
vn -0.196200 0.305000 0.931900
vn -0.217200 0.801900 0.556600
vn 0.397400 0.623700 0.673000
vn 0.641700 0.755300 0.132800
vn 0.751500 0.458400 -0.474400
vn -0.692100 -0.239700 -0.680800
vn -0.983400 -0.046600 -0.175300
vn 0.069300 0.314600 -0.946700
vn 0.451600 0.800100 0.394700
vn 0.722800 0.295400 0.624700
vn 0.590300 0.794500 0.142200
vn 0.366300 0.570800 -0.734800
vn -0.920400 0.272500 0.280300
vn -0.816900 0.477800 0.322900
vn -0.281000 0.769100 0.574000
vn -0.377600 0.305200 -0.874200
vn -0.964200 0.229600 -0.132200
vn 0.079400 0.287100 -0.954600
vn 0.641600 -0.100600 -0.760400
vn 0.964700 0.261100 0.035300
vn 0.546300 -0.446700 -0.708500
vn 0.268800 -0.259100 -0.927600
vn -0.142500 -0.388900 -0.910200
vn -0.378300 -0.138700 0.915200
vn -0.974100 0.072600 0.214100
vn -0.155300 -0.027200 0.987500
vn 0.547800 0.593700 0.589300
vn 0.070900 0.551200 0.831400
vn 0.443100 -0.125400 0.887600
vn -0.868100 -0.399300 -0.295000
vn -0.889200 -0.350100 0.294400
vn 0.106600 -0.655100 -0.747900
vn 0.222700 -0.584600 -0.780100
vn -0.596400 0.034200 0.802000
vn 0.767500 0.581800 -0.269100
vn 0.950400 -0.053200 -0.306300
vn 0.340100 -0.555900 -0.758500
vn 0.132900 -0.607400 0.783200
vn 0.181900 -0.730100 0.658700
vn 0.497400 -0.519300 0.694900
vn 0.578300 -0.479900 -0.659700
vn -0.250200 -0.801400 0.543200
vn -0.157900 -0.838800 0.521000
vn -0.758600 0.238300 -0.606300
vn -0.471400 -0.577400 -0.666600
vn -0.681400 -0.119000 -0.722200
vn 0.407100 0.426600 0.807600
vn 0.709600 0.675500 -0.200300
vn 0.279900 0.505600 -0.816100
vn 0.350200 -0.936600 -0.008000
vn 0.814800 -0.118000 0.567600
vn -0.534200 -0.824200 0.188000
vn -0.303600 0.363700 -0.880600
vn -0.971600 0.233000 0.041600
vn -0.284300 0.548700 0.786100
vn 0.390400 0.916200 0.090100
vn -0.162800 0.279200 -0.946300
vn 0.180800 0.744600 -0.642500
vn 0.486600 0.561300 -0.669500
vn -0.900500 -0.134700 0.413500
vn -0.312000 -0.753700 0.578400
vn 0.202400 -0.077300 0.976200
vn 0.395500 0.868400 0.298800
vn -0.270000 0.516900 0.812400
vn -0.849100 -0.065700 -0.524000
vn -0.116300 -0.188900 -0.975100
vn -0.916200 0.200800 0.346700
vn -0.753400 -0.454700 -0.474900
vn 0.615500 0.495000 0.613300
vn 0.543600 -0.339200 -0.767800
vn 0.992800 0.119500 -0.002300
vn 0.662000 0.631100 0.404300
vn 0.321000 -0.445600 -0.835700
vn -0.220300 -0.891800 -0.395100
vn 0.828500 0.214900 0.517200
vn 0.870300 -0.182500 -0.457500
vn 0.262200 -0.532500 -0.804700
vn 0.869700 -0.491700 -0.041300
vn 0.522200 -0.277500 0.806400
vn -0.019600 -0.988700 0.148600
vn -0.374000 -0.303700 0.876300
vn -0.927300 -0.347100 0.139700
vn -0.490100 -0.533200 -0.689600
vn 0.352300 -0.581500 -0.733300
vn 0.935200 0.284400 -0.210800
vn 0.420600 0.197800 -0.885400
vn -0.459300 0.229000 -0.858200
vn -0.349800 0.504400 0.789500
vn 0.382500 0.740300 0.552700
vn -0.306900 0.471200 0.826900
vn -0.906500 0.409900 0.101600
vn 0.548700 0.430600 0.716500
vn -0.656800 -0.719000 -0.227000
vn -0.958500 -0.268900 0.094100
vn -0.859700 -0.301300 0.412300
vn 0.345700 0.439700 0.828900
vn 0.394500 0.447700 0.802400
vn 0.324500 -0.207500 -0.922800
vn 0.307700 -0.073200 -0.948600
vn -0.898000 -0.328300 0.292700
vn 0.228200 -0.159600 -0.960400
vn 0.574800 -0.806000 0.141200
vn 0.779500 -0.429800 0.455700
vn -0.325200 -0.934900 0.141700
vn 0.739700 -0.308800 0.597800
vn 0.666300 -0.181400 -0.723200
vn -0.816000 -0.193600 0.544700
vn 0.624600 -0.094000 -0.775300
vn -0.381400 -0.901100 0.206200
vn 0.298500 -0.161800 -0.940600
vn -0.265900 0.569500 0.777800
vn 0.126300 0.458700 0.879600
vn 0.255500 0.402100 0.879200
vn -0.254200 -0.174000 0.951400
vn -0.417200 0.127900 0.899800
vn -0.410600 0.157300 0.898100
vn -0.039600 -0.317500 0.947400
vn 0.687000 -0.099300 0.719800
vn -0.786500 0.594400 -0.167700
vn -0.717900 0.622900 -0.310700
vn 0.042900 0.886400 0.460800
vn -0.211400 -0.785100 -0.582100
vn 0.113800 0.507700 0.854000
vn -0.766500 -0.629400 0.127400
vn -0.752400 -0.180900 0.633400
vn 0.153800 0.841700 0.517500
vn 0.834200 0.174600 0.523000
vn 0.586600 0.214700 -0.780900
vn -0.181700 -0.389200 -0.903000
vn -0.525700 -0.140800 -0.838900
vn 0.754500 -0.091400 0.649800
vn 0.062700 -0.879200 -0.472200
vn 0.769400 -0.616400 -0.167300
vn 0.726300 0.683700 -0.070800
vn 0.932200 0.039400 0.359800
vn 0.841700 -0.389800 -0.373700
vn 0.042300 -0.718900 -0.693700
vn -0.079800 -0.990800 -0.109100
vn -0.788900 -0.559100 -0.254800
vn -0.773900 0.020000 0.633000
vn -0.834700 -0.433600 -0.339400
vn -0.616300 -0.787300 -0.018100
vn -0.941100 0.201500 0.271500
vn -0.615500 -0.155900 -0.772600
vn 0.880200 0.444400 0.166600
vn 0.126600 0.670700 0.730800
vn 0.555300 -0.135800 0.820500
vn -0.121100 0.447900 0.885800
vn -0.209300 0.488200 0.847200
vn 0.956900 -0.172400 0.233700
vn -0.289600 -0.948800 -0.126400
vn -0.821100 -0.542900 -0.176100
vn -0.297600 -0.947300 0.118600
vn -0.466600 -0.601700 0.648200
vn -0.422400 -0.343900 0.838600
vn 0.332100 0.050100 0.941900
vn 0.643400 -0.713400 0.277600
vn 0.103300 -0.871800 -0.478800
vn 0.279100 0.104500 0.954500
vn 0.021100 0.771300 0.636100
vn 0.739200 0.670400 0.064000
vn 0.401600 -0.835100 0.375800
vn 0.922100 -0.343300 -0.178400
vn 0.245200 -0.931100 -0.269800
vn 0.516800 -0.413800 -0.749400
vn -0.494500 -0.723400 -0.481800
vn 0.727100 -0.144400 0.671200
vn 0.935900 0.070500 0.345200
vn -0.962400 -0.103800 0.251000
vn 0.773700 -0.546300 -0.320700
vn 0.044200 0.877500 0.477400
vn -0.880300 0.468700 -0.073600
vn -0.929800 0.162500 0.330300
vn 0.142800 0.361200 0.921400
vn 0.872000 0.415400 0.258900
vn -0.281100 -0.943100 -0.177500
vn -0.619100 -0.684900 -0.384100
vn 0.857100 0.020900 -0.514700
vn -0.781100 -0.130700 0.610600
vn -0.926900 -0.338900 -0.161000
vn 0.940800 -0.316300 0.122100
vn -0.286600 0.452300 0.844600
vn -0.794600 -0.562500 0.228500
vn -0.245000 -0.390100 0.887600
vn 0.025400 -0.276200 0.960800
vn 0.669900 -0.736000 0.097600
vn 0.972900 0.072500 0.219500
vn 0.218400 -0.362900 0.905900
vn -0.935600 0.110800 0.335100
vn -0.082600 0.945900 -0.313600
vn -0.010900 -0.920600 0.390400
vn 0.749700 -0.160400 0.642000
vn -0.916900 -0.073900 -0.392300
vn 0.746800 0.330300 -0.577300
vn -0.604100 0.593800 -0.531300
vn -0.110300 -0.201400 0.973300
vn -0.578500 -0.608000 0.543700
vn 0.620900 0.545700 -0.562700
vn 0.157500 0.987400 0.012800
vn -0.977200 -0.114000 -0.179000
vn -0.495800 -0.500100 -0.710000
vn -0.173400 -0.983700 0.047200
vn -0.604100 0.727100 -0.326000
vn 0.550600 0.690500 -0.469000
vn -0.179400 0.365400 -0.913400
vn 0.964400 -0.232200 -0.126100
vn 0.380800 -0.785900 -0.487200
vn 0.209400 -0.125700 -0.969700
vn -0.577800 0.656500 0.484900
vn -0.200800 -0.045100 0.978600
vn 0.994900 0.068100 0.074400
vn 0.640700 0.488100 -0.592500
vn 0.527500 -0.498300 0.688000
vn 0.592100 0.484800 0.643700
vn 0.566700 -0.702700 0.430000
vn 0.373500 -0.917300 0.137900
vn 0.938900 -0.125900 0.320300
vn -0.171400 -0.511700 -0.841900
vn -0.026800 -0.921500 -0.387400
vn 0.660400 0.612800 -0.434000
vn -0.086400 0.285300 -0.954500
vn 0.984200 0.078200 0.158700
vn 0.065800 -0.973800 0.217700
vn -0.449900 0.450700 -0.771000
vn -0.981900 0.095400 0.163800
vn -0.496700 -0.623700 0.603600
vn -0.915300 -0.079400 0.395000
vn -0.891200 0.168900 0.420900
vn -0.296900 -0.502700 0.811900
vn 0.424900 -0.658600 0.621000
vn -0.654300 0.393100 -0.646000
vn 0.034200 -0.109300 -0.993400
vn 0.056900 0.380500 -0.923000
vn 0.875400 -0.181300 0.448100
vn 0.556000 0.789800 -0.259200
vn -0.150500 -0.968000 -0.200700
vn -0.269600 -0.876500 0.398800
vn 0.085800 -0.835000 -0.543500
vn 0.426500 -0.884700 0.187800
vn 0.959200 -0.241500 -0.146700
vn -0.788100 0.153200 -0.596200
vn -0.288800 -0.917600 0.273000
vn -0.113600 0.713300 -0.691600
vn 0.233800 0.200900 -0.951300
vn 0.760500 0.285000 -0.583400
vn 0.402200 -0.745400 0.531600
vn -0.391200 -0.685600 -0.613900
vn -0.707400 0.579600 -0.404400
vn 0.855100 0.066500 -0.514100
vn -0.378500 -0.869800 0.316400
vn -0.937500 -0.345600 0.039800
vn -0.741100 -0.004500 -0.671400
vn -0.235500 -0.171900 -0.956500
vn 0.544300 -0.735000 -0.404300
vn 0.005200 -0.837500 -0.546400
s 1
f 2/1/1 4/2/2 311/3/3
f 3/4/4 4/5/2 6/6/5
f 6/6/5 8/7/6 7/8/7
f 9/9/8 314/10/9 319/11/10
f 10/12/11 12/13/12 11/14/13
f 11/14/13 12/13/12 242/15/14
f 4/5/2 18/16/15 19/17/16
f 15/18/17 16/19/18 2/1/1
f 15/20/17 13/21/19 244/22/20
f 9/23/8 11/24/13 15/20/17
f 23/25/21 22/26/22 30/27/23
f 8/7/6 6/6/5 19/17/16
f 4/2/2 2/1/1 17/28/24
f 8/29/6 20/30/25 21/31/26
f 12/13/12 10/12/11 21/31/26
f 12/13/12 22/26/22 23/25/21
f 16/19/18 14/32/27 23/33/21
f 16/19/18 24/34/28 17/28/24
f 31/35/29 39/36/30 40/37/31
f 18/16/15 26/38/32 27/39/33
f 22/26/22 21/31/26 29/40/34
f 24/34/28 32/41/35 25/42/36
f 17/28/24 25/42/36 26/43/32
f 21/31/26 20/30/25 28/44/37
f 23/33/21 31/35/29 32/41/35
f 20/45/25 19/17/16 27/39/33
f 40/37/31 48/46/38 41/47/39
f 28/48/37 27/39/33 35/49/40
f 31/50/29 30/27/23 38/51/41
f 26/38/32 34/52/42 35/49/40
f 30/27/23 29/40/34 37/53/43
f 32/41/35 40/37/31 33/54/44
f 25/42/36 33/54/44 34/55/42
f 29/40/34 28/44/37 36/56/45
f 42/57/46 50/58/47 51/59/48
f 33/54/44 41/47/39 42/60/46
f 37/53/43 36/56/45 44/61/49
f 39/36/30 47/62/50 48/46/38
f 36/63/45 35/49/40 43/64/51
f 39/65/30 38/51/41 46/66/52
f 34/52/42 42/57/46 43/64/51
f 38/51/41 37/53/43 45/67/53
f 52/68/54 51/59/48 59/69/55
f 46/66/52 45/67/53 53/70/56
f 48/46/38 56/71/57 49/72/58
f 41/47/39 49/72/58 50/73/47
f 45/67/53 44/61/49 52/74/54
f 48/46/38 47/62/50 55/75/59
f 44/76/49 43/64/51 51/59/48
f 46/66/52 54/77/60 55/78/59
f 59/79/55 58/80/61 66/81/62
f 55/82/59 54/83/60 62/84/63
f 50/58/47 58/85/61 59/69/55
f 54/77/60 53/70/56 61/86/64
f 56/71/57 64/87/65 57/88/66
f 49/72/58 57/88/66 58/80/61
f 53/70/56 52/74/54 60/89/67
f 55/75/59 63/90/68 64/87/65
f 68/91/69 67/92/70 75/93/71
f 62/94/63 61/86/64 69/95/72
f 64/87/65 72/96/73 65/97/74
f 58/80/61 57/88/66 65/97/74
f 60/89/67 68/91/69 69/95/72
f 63/90/68 71/98/75 72/96/73
f 59/99/55 67/92/70 68/91/69
f 63/100/68 62/94/63 70/101/76
f 76/102/77 84/103/78 85/104/79
f 70/101/76 78/105/80 79/106/81
f 66/81/62 74/107/82 75/108/71
f 69/95/72 77/109/83 78/105/80
f 65/97/74 72/96/73 80/110/84
f 66/81/62 65/97/74 73/111/85
f 68/91/69 76/112/77 77/109/83
f 72/96/73 71/98/75 79/113/81
f 86/114/86 85/115/79 93/116/87
f 79/117/81 87/118/88 88/119/89
f 75/120/71 83/121/90 84/103/78
f 79/117/81 78/122/80 86/123/86
f 75/120/71 74/124/82 82/125/91
f 77/126/83 85/104/79 86/123/86
f 73/127/85 80/128/84 88/119/89
f 74/124/82 73/127/85 81/129/92
f 95/130/93 94/131/94 102/132/95
f 88/133/89 96/134/96 89/135/97
f 82/136/91 81/137/92 89/135/97
f 84/138/78 92/139/98 93/116/87
f 87/140/88 95/141/93 96/142/96
f 83/143/90 91/144/99 92/145/98
f 87/118/88 86/123/86 94/131/94
f 82/146/91 90/147/100 91/144/99
f 104/148/101 103/149/102 111/150/103
f 90/147/100 98/151/104 99/152/105
f 94/153/94 93/116/87 101/154/106
f 96/134/96 104/155/101 97/156/107
f 89/135/97 97/156/107 98/157/104
f 93/116/87 92/139/98 100/158/108
f 95/141/93 103/149/102 104/148/101
f 92/145/98 91/144/99 99/152/105
f 112/159/109 120/160/110 113/161/111
f 99/152/105 107/162/112 108/163/113
f 102/164/95 110/165/114 111/150/103
f 99/152/105 98/151/104 106/166/115
f 102/167/95 101/154/106 109/168/116
f 97/156/107 104/155/101 112/159/109
f 97/156/107 105/169/117 106/170/115
f 100/158/108 108/171/113 109/168/116
f 115/172/118 114/173/119 122/174/120
f 106/166/115 105/175/117 113/176/111
f 108/171/113 116/177/121 117/178/122
f 111/150/103 119/179/123 120/180/110
f 107/162/112 115/172/118 116/181/121
f 111/150/103 110/165/114 118/182/124
f 107/162/112 106/166/115 114/173/119
f 110/183/114 109/168/116 117/178/122
f 123/184/125 222/185/126 124/186/127
f 117/178/122 125/187/128 126/188/129
f 113/161/111 120/160/110 128/189/130
f 114/190/119 113/161/111 121/191/131
f 117/178/122 116/177/121 124/192/127
f 119/179/123 127/193/132 128/174/130
f 116/181/121 115/172/118 123/184/125
f 119/179/123 118/182/124 126/186/129
f 132/194/133 140/195/134 133/196/135
f 127/193/132 126/186/129 134/197/136
f 130/198/137 221/199/138 131/200/139
f 126/188/129 125/187/128 133/196/135
f 128/189/130 136/201/140 129/202/141
f 122/203/120 121/191/131 129/202/141
f 124/192/127 132/194/133 133/196/135
f 127/193/132 135/204/142 136/205/140
f 142/206/143 141/207/144 149/208/145
f 135/204/142 143/209/146 144/210/147
f 229/211/148 227/212/149 231/213/150
f 135/204/142 134/197/136 142/214/143
f 225/215/151 228/216/152 232/217/153
f 134/218/136 133/196/135 141/207/144
f 136/201/140 144/219/147 137/220/154
f 129/202/141 138/221/155 130/222/137
f 144/219/147 152/223/156 145/224/157
f 154/225/158 157/226/159 379/227/160
f 143/209/146 151/228/161 152/229/156
f 139/230/162 147/231/163 148/232/164
f 143/209/146 142/214/143 150/233/165
f 223/234/166 146/235/167 147/231/163
f 145/236/157 158/237/168 378/238/169
f 140/195/134 148/239/164 154/225/158
f 149/208/145 159/240/170 154/225/158
f 145/236/157 146/235/167 155/241/171
f 157/242/159 184/243/172 188/244/173
f 151/228/161 150/233/165 153/245/174
f 147/231/163 146/235/167 153/245/174
f 150/246/165 149/208/145 206/247/175
f 153/245/174 145/236/157 203/248/176
f 146/235/167 145/236/157 153/245/174
f 149/249/145 148/232/164 153/245/174
f 152/229/156 151/228/161 153/245/174
f 148/232/164 147/231/163 153/245/174
f 159/240/170 186/250/177 183/251/178
f 155/241/171 163/252/179 156/253/180
f 164/254/181 160/255/182 166/256/183
f 157/242/159 188/244/173 186/257/177
f 141/258/144 379/259/160 149/249/145
f 167/260/184 173/261/185 175/262/186
f 165/263/187 169/264/188 175/262/186
f 162/265/189 164/254/181 170/266/190
f 161/267/191 167/260/184 169/264/188
f 161/267/191 162/265/189 168/268/192
f 206/247/175 208/269/193 207/270/194
f 182/271/195 181/272/196 180/273/197
f 167/260/184 168/268/192 174/274/198
f 166/256/183 165/263/187 171/275/199
f 166/256/183 172/276/200 176/277/201
f 168/268/192 170/266/190 176/277/201
f 196/278/202 197/279/203 201/280/204
f 199/281/205 195/282/206 201/280/204
f 197/283/203 199/284/205 201/285/204
f 198/286/207 200/287/208 201/285/204
f 195/282/206 198/288/207 201/280/204
f 200/289/208 196/278/202 201/280/204
f 184/290/172 190/291/209 194/292/210
f 183/293/178 186/294/177 192/295/211
f 158/237/168 156/253/180 160/296/182
f 193/297/212 199/284/205 197/283/203
f 194/298/210 200/287/208 198/286/207
f 188/299/173 194/298/210 192/295/211
f 185/300/213 187/301/214 193/297/212
f 183/302/178 189/303/215 193/304/212
f 184/290/172 185/305/213 191/306/216
f 204/307/217 178/308/218 208/309/193
f 178/308/218 209/310/219 214/311/220
f 193/304/212 189/303/215 195/282/206
f 190/291/209 191/306/216 197/279/203
f 192/312/211 198/288/207 195/282/206
f 194/292/210 190/291/209 196/278/202
f 181/272/196 212/313/221 211/314/222
f 152/223/156 202/315/223 203/316/176
f 152/229/156 153/245/174 182/317/195
f 182/317/195 203/248/176 179/318/224
f 153/245/174 204/307/217 206/319/175
f 150/233/165 205/320/225 204/307/217
f 204/321/217 205/322/225 207/270/194
f 176/277/201 172/276/200 177/323/226
f 172/276/200 171/275/199 177/323/226
f 174/274/198 176/277/201 177/323/226
f 171/275/199 175/262/186 177/323/226
f 175/262/186 173/261/185 177/323/226
f 173/261/185 174/274/198 177/323/226
f 203/316/176 202/315/223 180/273/197
f 211/324/222 212/325/221 218/326/227
f 209/310/219 215/327/228 220/328/229
f 178/329/218 207/270/194 213/330/230
f 181/331/196 179/318/224 210/332/231
f 208/269/193 214/333/220 213/330/230
f 179/334/224 180/273/197 211/314/222
f 219/335/232 220/328/229 215/327/228
f 216/336/233 217/337/234 218/326/227
f 209/310/219 213/338/230 219/335/232
f 212/325/221 210/332/231 216/336/233
f 213/330/230 214/333/220 220/339/229
f 211/314/222 217/340/234 216/341/233
f 156/342/180 163/343/179 169/264/188
f 158/237/168 164/344/181 162/345/189
f 156/342/180 165/263/187 166/256/183
f 157/226/159 154/225/158 185/346/213
f 154/347/158 187/348/214 185/349/213
f 154/225/158 183/251/178 187/350/214
f 137/220/154 378/351/169 138/221/155
f 158/352/168 162/353/189 161/354/191
f 146/235/167 138/355/155 155/241/171
f 155/241/171 161/356/191 163/252/179
f 132/357/133 222/185/126 233/358/235
f 222/185/126 131/200/139 234/359/236
f 226/360/237 229/211/148 235/361/238
f 131/200/139 221/199/138 236/362/239
f 221/199/138 130/198/137 237/363/240
f 228/216/152 226/360/237 230/364/241
f 226/360/237 139/230/162 230/364/241
f 139/230/162 224/365/242 230/364/241
f 224/365/242 228/216/152 230/364/241
f 227/212/149 138/355/155 231/213/150
f 138/355/155 223/234/166 231/213/150
f 223/234/166 229/211/148 231/213/150
f 228/216/152 224/365/242 232/217/153
f 224/365/242 140/366/134 232/217/153
f 140/366/134 225/215/151 232/217/153
f 222/185/126 228/216/152 233/358/235
f 228/216/152 225/215/151 233/358/235
f 225/215/151 132/357/133 233/358/235
f 131/200/139 226/360/237 234/359/236
f 226/360/237 228/216/152 234/359/236
f 228/216/152 222/185/126 234/359/236
f 229/211/148 223/234/166 235/361/238
f 223/234/166 139/230/162 235/361/238
f 139/230/162 226/360/237 235/361/238
f 221/199/138 229/211/148 236/362/239
f 229/211/148 226/360/237 236/362/239
f 226/360/237 131/200/139 236/362/239
f 130/198/137 227/212/149 237/363/240
f 227/212/149 229/211/148 237/363/240
f 229/211/148 221/199/138 237/363/240
f 247/367/243 259/368/244 257/369/245
f 13/370/19 11/14/13 238/371/246
f 12/13/12 14/372/27 241/373/247
f 14/374/27 240/375/248 243/376/249
f 245/377/250 257/369/245 260/378/251
f 242/379/14 254/380/252 250/381/253
f 16/19/18 247/382/243 245/383/250
f 15/18/17 249/384/254 16/19/18
f 14/374/27 248/385/255 13/21/19
f 246/386/256 244/22/20 256/387/257
f 251/388/258 263/389/259 266/390/260
f 258/391/261 270/392/262 273/393/263
f 255/394/264 252/395/265 264/396/266
f 257/369/245 259/368/244 271/397/267
f 238/398/246 250/381/253 252/395/265
f 247/367/243 249/399/254 261/400/268
f 249/399/254 246/386/256 258/391/261
f 242/379/14 239/401/269 251/388/258
f 239/401/269 241/402/247 253/403/270
f 241/402/247 243/376/249 255/394/264
f 240/375/248 252/395/265 255/394/264
f 244/22/20 248/385/255 260/378/251
f 272/404/271 269/405/272 281/406/273
f 266/390/260 263/389/259 275/407/274
f 270/392/262 282/408/275 285/409/276
f 264/396/266 276/410/277 279/411/278
f 260/378/251 257/369/245 269/405/272
f 255/394/264 267/412/279 265/413/280
f 261/400/268 273/393/263 271/397/267
f 250/381/253 254/380/252 266/390/260
f 260/378/251 272/404/271 268/414/281
f 252/395/265 250/381/253 262/415/282
f 256/387/257 268/414/281 270/392/262
f 253/403/270 265/413/280 263/389/259
f 277/416/283 289/417/284 287/418/285
f 282/408/275 280/419/286 292/420/287
f 274/421/288 286/422/289 288/423/290
f 284/424/291 296/425/292 292/420/287
f 267/412/279 279/411/278 277/416/283
f 273/393/263 285/409/276 283/426/293
f 262/415/282 266/390/260 278/427/294
f 272/404/271 284/424/291 280/419/286
f 264/396/266 262/415/282 274/421/288
f 270/392/262 268/414/281 280/419/286
f 265/413/280 277/416/283 275/407/274
f 271/397/267 283/426/293 281/406/273
f 293/428/295 295/429/296 305/430/297
f 289/417/284 300/431/298 299/432/299
f 288/423/290 286/422/289 298/433/300
f 281/406/273 283/426/293 295/429/296
f 279/411/278 276/410/277 288/423/290
f 285/409/276 282/408/275 294/434/301
f 275/407/274 287/418/285 290/435/302
f 284/424/291 281/406/273 293/428/295
f 277/416/283 279/411/278 291/436/303
f 285/409/276 297/437/304 295/429/296
f 278/427/294 290/435/302 286/422/289
f 301/438/305 299/432/299 300/431/298
f 304/439/306 305/430/297 307/440/307
f 298/433/300 301/438/305 302/441/308
f 288/423/290 298/433/300 302/441/308
f 290/435/302 287/418/285 299/432/299
f 296/425/292 293/428/295 304/439/306
f 291/436/303 302/441/308 300/431/298
f 297/437/304 307/440/307 305/430/297
f 286/422/289 290/435/302 301/438/305
f 292/420/287 296/425/292 306/442/309
f 294/434/301 292/420/287 303/443/310
f 303/443/310 306/442/309 307/440/307
f 294/434/301 303/443/310 307/440/307
f 315/444/311 319/445/10 331/446/312
f 309/447/313 311/448/3 323/449/314
f 8/29/6 10/12/11 315/450/311
f 3/451/4 1/452/315 308/453/316
f 7/454/7 312/455/317 314/456/9
f 4/2/2 3/457/4 317/458/318
f 7/459/7 8/29/6 318/460/319
f 1/461/315 2/1/1 316/462/320
f 314/456/9 326/463/321 331/446/312
f 318/464/319 313/465/322 325/466/323
f 324/467/324 336/468/325 338/469/326
f 330/470/327 325/466/323 337/471/328
f 324/467/324 330/470/327 342/472/329
f 322/473/330 334/474/331 341/475/332
f 309/447/313 321/476/333 328/477/334
f 310/478/335 322/473/330 329/479/336
f 316/480/320 328/477/334 320/481/337
f 312/455/317 318/464/319 330/470/327
f 311/448/3 317/482/318 329/479/336
f 312/455/317 324/467/324 326/463/321
f 315/444/311 327/483/338 325/466/323
f 310/478/335 308/453/316 320/481/337
f 343/484/339 355/485/340 351/486/341
f 336/468/325 348/487/342 350/488/343
f 342/472/329 337/471/328 349/489/344
f 342/472/329 354/490/345 348/487/342
f 331/446/312 343/484/339 339/491/346
f 325/466/323 327/483/338 339/491/346
f 322/473/330 320/481/337 332/492/347
f 326/463/321 338/469/326 343/484/339
f 323/449/314 335/493/348 333/494/349
f 320/481/337 328/477/334 340/495/350
f 328/477/334 321/476/333 333/494/349
f 329/479/336 341/475/332 335/493/348
f 345/496/351 368/497/352 371/498/353
f 351/486/341 355/485/340 361/499/354
f 347/500/355 353/501/356 372/502/357
f 351/486/341 359/503/358 357/504/359
f 339/491/346 351/486/341 349/489/344
f 334/474/331 332/492/347 344/505/360
f 338/469/326 350/488/343 355/485/340
f 333/494/349 335/493/348 347/500/355
f 332/492/347 340/495/350 352/506/361
f 340/495/350 333/494/349 345/496/351
f 335/493/348 341/475/332 353/501/356
f 341/475/332 334/474/331 346/507/362
f 361/499/354 367/508/363 365/509/364
f 357/504/359 359/503/358 365/509/364
f 348/487/342 356/510/365 358/511/366
f 349/489/344 357/504/359 360/512/367
f 354/490/345 360/512/367 356/510/365
f 355/485/340 350/488/343 358/511/366
f 366/513/368 363/514/369 365/509/364
f 352/506/361 371/498/353 364/515/370
f 360/512/367 357/504/359 363/514/369
f 356/510/365 360/512/367 366/513/368
f 362/516/371 366/513/368 367/508/363
f 358/511/366 356/510/365 362/516/371
f 358/511/366 362/516/371 367/508/363
f 345/496/351 347/500/355 370/517/372
f 346/507/362 344/505/360 364/515/370
f 353/501/356 346/507/362 369/518/373
f 376/519/374 374/520/375 375/521/376
f 370/517/372 375/521/376 374/520/375
f 372/502/357 377/522/377 375/521/376
f 364/515/370 371/498/353 376/519/374
f 371/498/353 368/497/352 374/520/375
f 369/518/373 364/515/370 373/523/378
f 369/518/373 373/523/378 377/522/377
f 373/523/378 376/519/374 377/522/377
f 309/524/313 2/1/1 311/3/3
f 5/525/379 3/4/4 6/6/5
f 5/525/379 6/6/5 7/8/7
f 10/12/11 9/9/8 319/11/10
f 319/11/10 315/450/311 10/12/11
f 9/9/8 10/12/11 11/14/13
f 12/13/12 239/526/269 242/15/14
f 242/15/14 238/371/246 11/14/13
f 6/6/5 4/5/2 19/17/16
f 1/461/315 15/18/17 2/1/1
f 246/386/256 15/20/17 244/22/20
f 15/20/17 1/452/315 7/454/7
f 3/451/4 5/527/379 7/454/7
f 7/454/7 9/23/8 15/20/17
f 11/24/13 13/21/19 15/20/17
f 1/452/315 3/451/4 7/454/7
f 31/50/29 23/25/21 30/27/23
f 20/45/25 8/7/6 19/17/16
f 18/528/15 4/2/2 17/28/24
f 10/12/11 8/29/6 21/31/26
f 22/26/22 12/13/12 21/31/26
f 14/372/27 12/13/12 23/25/21
f 24/34/28 16/19/18 23/33/21
f 2/1/1 16/19/18 17/28/24
f 32/41/35 31/35/29 40/37/31
f 19/17/16 18/16/15 27/39/33
f 30/27/23 22/26/22 29/40/34
f 17/28/24 24/34/28 25/42/36
f 18/528/15 17/28/24 26/43/32
f 29/40/34 21/31/26 28/44/37
f 24/34/28 23/33/21 32/41/35
f 28/48/37 20/45/25 27/39/33
f 33/54/44 40/37/31 41/47/39
f 36/63/45 28/48/37 35/49/40
f 39/65/30 31/50/29 38/51/41
f 27/39/33 26/38/32 35/49/40
f 38/51/41 30/27/23 37/53/43
f 25/42/36 32/41/35 33/54/44
f 26/43/32 25/42/36 34/55/42
f 37/53/43 29/40/34 36/56/45
f 43/64/51 42/57/46 51/59/48
f 34/55/42 33/54/44 42/60/46
f 45/67/53 37/53/43 44/61/49
f 40/37/31 39/36/30 48/46/38
f 44/76/49 36/63/45 43/64/51
f 47/529/50 39/65/30 46/66/52
f 35/49/40 34/52/42 43/64/51
f 46/66/52 38/51/41 45/67/53
f 60/530/67 52/68/54 59/69/55
f 54/77/60 46/66/52 53/70/56
f 41/47/39 48/46/38 49/72/58
f 42/60/46 41/47/39 50/73/47
f 53/70/56 45/67/53 52/74/54
f 56/71/57 48/46/38 55/75/59
f 52/68/54 44/76/49 51/59/48
f 47/529/50 46/66/52 55/78/59
f 67/531/70 59/79/55 66/81/62
f 63/532/68 55/82/59 62/84/63
f 51/59/48 50/58/47 59/69/55
f 62/94/63 54/77/60 61/86/64
f 49/72/58 56/71/57 57/88/66
f 50/73/47 49/72/58 58/80/61
f 61/86/64 53/70/56 60/89/67
f 56/71/57 55/75/59 64/87/65
f 76/112/77 68/91/69 75/93/71
f 70/101/76 62/94/63 69/95/72
f 57/88/66 64/87/65 65/97/74
f 66/81/62 58/80/61 65/97/74
f 61/86/64 60/89/67 69/95/72
f 64/87/65 63/90/68 72/96/73
f 60/89/67 59/99/55 68/91/69
f 71/533/75 63/100/68 70/101/76
f 77/126/83 76/102/77 85/104/79
f 71/533/75 70/101/76 79/106/81
f 67/531/70 66/81/62 75/108/71
f 70/101/76 69/95/72 78/105/80
f 73/111/85 65/97/74 80/110/84
f 74/107/82 66/81/62 73/111/85
f 69/95/72 68/91/69 77/109/83
f 80/110/84 72/96/73 79/113/81
f 94/153/94 86/114/86 93/116/87
f 80/128/84 79/117/81 88/119/89
f 76/102/77 75/120/71 84/103/78
f 87/118/88 79/117/81 86/123/86
f 83/121/90 75/120/71 82/125/91
f 78/122/80 77/126/83 86/123/86
f 81/129/92 73/127/85 88/119/89
f 82/125/91 74/124/82 81/129/92
f 103/534/102 95/130/93 102/132/95
f 81/137/92 88/133/89 89/135/97
f 90/535/100 82/136/91 89/135/97
f 85/115/79 84/138/78 93/116/87
f 88/536/89 87/140/88 96/142/96
f 84/537/78 83/143/90 92/145/98
f 95/130/93 87/118/88 94/131/94
f 83/143/90 82/146/91 91/144/99
f 112/538/109 104/148/101 111/150/103
f 91/144/99 90/147/100 99/152/105
f 102/167/95 94/153/94 101/154/106
f 89/135/97 96/134/96 97/156/107
f 90/535/100 89/135/97 98/157/104
f 101/154/106 93/116/87 100/158/108
f 96/142/96 95/141/93 104/148/101
f 100/539/108 92/145/98 99/152/105
f 105/169/117 112/159/109 113/161/111
f 100/539/108 99/152/105 108/163/113
f 103/149/102 102/164/95 111/150/103
f 107/162/112 99/152/105 106/166/115
f 110/183/114 102/167/95 109/168/116
f 105/169/117 97/156/107 112/159/109
f 98/157/104 97/156/107 106/170/115
f 101/154/106 100/158/108 109/168/116
f 123/184/125 115/172/118 122/174/120
f 114/173/119 106/166/115 113/176/111
f 109/168/116 108/171/113 117/178/122
f 112/538/109 111/150/103 120/180/110
f 108/163/113 107/162/112 116/181/121
f 119/179/123 111/150/103 118/182/124
f 115/172/118 107/162/112 114/173/119
f 118/540/124 110/183/114 117/178/122
f 132/357/133 124/186/127 222/185/126
f 123/184/125 131/200/139 222/185/126
f 118/540/124 117/178/122 126/188/129
f 121/191/131 113/161/111 128/189/130
f 122/203/120 114/190/119 121/191/131
f 125/187/128 117/178/122 124/192/127
f 120/180/110 119/179/123 128/174/130
f 124/186/127 116/181/121 123/184/125
f 127/193/132 119/179/123 126/186/129
f 141/207/144 133/196/135 140/195/134
f 132/194/133 225/541/151 140/195/134
f 135/204/142 127/193/132 134/197/136
f 131/200/139 123/184/125 122/174/120
f 122/174/120 130/198/137 131/200/139
f 134/218/136 126/188/129 133/196/135
f 121/191/131 128/189/130 129/202/141
f 130/222/137 122/203/120 129/202/141
f 125/187/128 124/192/127 133/196/135
f 128/174/130 127/193/132 136/205/140
f 150/246/165 142/206/143 149/208/145
f 136/205/140 135/204/142 144/210/147
f 143/209/146 135/204/142 142/214/143
f 142/206/143 134/218/136 141/207/144
f 129/202/141 136/201/140 137/220/154
f 227/542/149 130/222/137 138/221/155
f 129/202/141 137/220/154 138/221/155
f 137/220/154 144/219/147 145/224/157
f 379/227/160 141/207/144 140/195/134
f 140/195/134 154/225/158 379/227/160
f 144/210/147 143/209/146 152/229/156
f 148/232/164 140/366/134 224/365/242
f 224/365/242 139/230/162 148/232/164
f 151/228/161 143/209/146 150/233/165
f 147/231/163 139/230/162 223/234/166
f 223/234/166 138/355/155 146/235/167
f 378/238/169 137/543/154 145/236/157
f 145/236/157 156/253/180 158/237/168
f 148/239/164 149/208/145 154/225/158
f 156/253/180 145/236/157 155/241/171
f 205/322/225 150/246/165 206/247/175
f 182/317/195 153/245/174 203/248/176
f 154/225/158 159/240/170 183/251/178
f 170/266/190 164/254/181 166/256/183
f 159/544/170 157/242/159 186/257/177
f 159/544/170 149/249/145 157/242/159
f 379/259/160 157/242/159 149/249/145
f 169/264/188 167/260/184 175/262/186
f 171/275/199 165/263/187 175/262/186
f 168/268/192 162/265/189 170/266/190
f 163/343/179 161/267/191 169/264/188
f 167/260/184 161/267/191 168/268/192
f 205/322/225 206/247/175 207/270/194
f 202/315/223 182/271/195 180/273/197
f 173/261/185 167/260/184 174/274/198
f 172/276/200 166/256/183 171/275/199
f 170/266/190 166/256/183 176/277/201
f 174/274/198 168/268/192 176/277/201
f 188/545/173 184/290/172 194/292/210
f 189/546/215 183/293/178 192/295/211
f 164/344/181 158/237/168 160/296/182
f 191/547/216 193/297/212 197/283/203
f 192/295/211 194/298/210 198/286/207
f 186/294/177 188/299/173 192/295/211
f 191/547/216 185/300/213 193/297/212
f 187/548/214 183/302/178 193/304/212
f 190/291/209 184/290/172 191/306/216
f 206/319/175 204/307/217 208/309/193
f 208/309/193 178/308/218 214/311/220
f 199/281/205 193/304/212 195/282/206
f 196/278/202 190/291/209 197/279/203
f 189/303/215 192/312/211 195/282/206
f 200/289/208 194/292/210 196/278/202
f 180/273/197 181/272/196 211/314/222
f 145/224/157 152/223/156 203/316/176
f 202/549/223 152/229/156 182/317/195
f 181/331/196 182/317/195 179/318/224
f 149/249/145 153/245/174 206/319/175
f 153/245/174 150/233/165 204/307/217
f 178/329/218 204/321/217 207/270/194
f 179/334/224 203/316/176 180/273/197
f 217/337/234 211/324/222 218/326/227
f 214/311/220 209/310/219 220/328/229
f 209/550/219 178/329/218 213/330/230
f 212/325/221 181/331/196 210/332/231
f 207/270/194 208/269/193 213/330/230
f 210/551/231 179/334/224 211/314/222
f 215/327/228 209/310/219 219/335/232
f 218/326/227 212/325/221 216/336/233
f 219/552/232 213/330/230 220/339/229
f 210/551/231 211/314/222 216/341/233
f 165/263/187 156/342/180 169/264/188
f 160/255/182 156/342/180 166/256/183
f 184/553/172 157/226/159 185/346/213
f 155/554/171 138/221/155 378/351/169
f 378/351/169 158/352/168 155/554/171
f 155/554/171 158/352/168 161/354/191
f 245/377/250 247/367/243 257/369/245
f 240/555/248 13/370/19 238/371/246
f 239/526/269 12/13/12 241/373/247
f 14/374/27 13/21/19 240/375/248
f 243/376/249 241/402/247 14/374/27
f 248/385/255 245/377/250 260/378/251
f 238/398/246 242/379/14 250/381/253
f 14/32/27 16/19/18 245/383/250
f 247/382/243 16/19/18 249/384/254
f 15/18/17 246/556/256 249/384/254
f 244/22/20 13/21/19 248/385/255
f 14/374/27 245/377/250 248/385/255
f 258/391/261 246/386/256 256/387/257
f 254/380/252 251/388/258 266/390/260
f 261/400/268 258/391/261 273/393/263
f 267/412/279 255/394/264 264/396/266
f 269/405/272 257/369/245 271/397/267
f 240/375/248 238/398/246 252/395/265
f 259/368/244 247/367/243 261/400/268
f 261/400/268 249/399/254 258/391/261
f 254/380/252 242/379/14 251/388/258
f 251/388/258 239/401/269 253/403/270
f 253/403/270 241/402/247 255/394/264
f 243/376/249 240/375/248 255/394/264
f 256/387/257 244/22/20 260/378/251
f 284/424/291 272/404/271 281/406/273
f 278/427/294 266/390/260 275/407/274
f 273/393/263 270/392/262 285/409/276
f 267/412/279 264/396/266 279/411/278
f 272/404/271 260/378/251 269/405/272
f 253/403/270 255/394/264 265/413/280
f 259/368/244 261/400/268 271/397/267
f 262/415/282 250/381/253 266/390/260
f 256/387/257 260/378/251 268/414/281
f 264/396/266 252/395/265 262/415/282
f 258/391/261 256/387/257 270/392/262
f 251/388/258 253/403/270 263/389/259
f 275/407/274 277/416/283 287/418/285
f 294/434/301 282/408/275 292/420/287
f 276/410/277 274/421/288 288/423/290
f 280/419/286 284/424/291 292/420/287
f 265/413/280 267/412/279 277/416/283
f 271/397/267 273/393/263 283/426/293
f 274/421/288 262/415/282 278/427/294
f 268/414/281 272/404/271 280/419/286
f 276/410/277 264/396/266 274/421/288
f 282/408/275 270/392/262 280/419/286
f 263/389/259 265/413/280 275/407/274
f 269/405/272 271/397/267 281/406/273
f 304/439/306 293/428/295 305/430/297
f 287/418/285 289/417/284 299/432/299
f 293/428/295 281/406/273 295/429/296
f 291/436/303 279/411/278 288/423/290
f 297/437/304 285/409/276 294/434/301
f 278/427/294 275/407/274 290/435/302
f 296/425/292 284/424/291 293/428/295
f 289/417/284 277/416/283 291/436/303
f 283/426/293 285/409/276 295/429/296
f 274/421/288 278/427/294 286/422/289
f 302/441/308 301/438/305 300/431/298
f 306/442/309 304/439/306 307/440/307
f 291/436/303 288/423/290 302/441/308
f 301/438/305 290/435/302 299/432/299
f 306/442/309 296/425/292 304/439/306
f 289/417/284 291/436/303 300/431/298
f 295/429/296 297/437/304 305/430/297
f 298/433/300 286/422/289 301/438/305
f 303/443/310 292/420/287 306/442/309
f 297/437/304 294/434/301 307/440/307
f 327/483/338 315/444/311 331/446/312
f 321/476/333 309/447/313 323/449/314
f 313/557/322 8/29/6 315/450/311
f 310/478/335 3/451/4 308/453/316
f 9/23/8 7/454/7 314/456/9
f 3/457/4 310/558/335 317/458/318
f 317/458/318 311/3/3 4/2/2
f 8/29/6 313/557/322 318/460/319
f 318/460/319 312/559/317 7/459/7
f 2/1/1 309/524/313 316/462/320
f 316/462/320 308/560/316 1/461/315
f 319/445/10 314/456/9 331/446/312
f 330/470/327 318/464/319 325/466/323
f 326/463/321 324/467/324 338/469/326
f 342/472/329 330/470/327 337/471/328
f 336/468/325 324/467/324 342/472/329
f 329/479/336 322/473/330 341/475/332
f 316/480/320 309/447/313 328/477/334
f 317/482/318 310/478/335 329/479/336
f 308/453/316 316/480/320 320/481/337
f 324/467/324 312/455/317 330/470/327
f 323/449/314 311/448/3 329/479/336
f 314/456/9 312/455/317 326/463/321
f 313/465/322 315/444/311 325/466/323
f 322/473/330 310/478/335 320/481/337
f 339/491/346 343/484/339 351/486/341
f 338/469/326 336/468/325 350/488/343
f 354/490/345 342/472/329 349/489/344
f 336/468/325 342/472/329 348/487/342
f 327/483/338 331/446/312 339/491/346
f 337/471/328 325/466/323 339/491/346
f 334/474/331 322/473/330 332/492/347
f 331/446/312 326/463/321 343/484/339
f 321/476/333 323/449/314 333/494/349
f 332/492/347 320/481/337 340/495/350
f 340/495/350 328/477/334 333/494/349
f 323/449/314 329/479/336 335/493/348
f 352/506/361 345/496/351 371/498/353
f 359/503/358 351/486/341 361/499/354
f 370/517/372 347/500/355 372/502/357
f 349/489/344 351/486/341 357/504/359
f 337/471/328 339/491/346 349/489/344
f 346/507/362 334/474/331 344/505/360
f 343/484/339 338/469/326 355/485/340
f 345/496/351 333/494/349 347/500/355
f 344/505/360 332/492/347 352/506/361
f 352/506/361 340/495/350 345/496/351
f 347/500/355 335/493/348 353/501/356
f 353/501/356 341/475/332 346/507/362
f 359/503/358 361/499/354 365/509/364
f 363/514/369 357/504/359 365/509/364
f 350/488/343 348/487/342 358/511/366
f 354/490/345 349/489/344 360/512/367
f 348/487/342 354/490/345 356/510/365
f 361/499/354 355/485/340 358/511/366
f 367/508/363 366/513/368 365/509/364
f 344/505/360 352/506/361 364/515/370
f 366/513/368 360/512/367 363/514/369
f 362/516/371 356/510/365 366/513/368
f 361/499/354 358/511/366 367/508/363
f 368/497/352 345/496/351 370/517/372
f 369/518/373 346/507/362 364/515/370
f 372/502/357 353/501/356 369/518/373
f 377/522/377 376/519/374 375/521/376
f 368/497/352 370/517/372 374/520/375
f 370/517/372 372/502/357 375/521/376
f 373/523/378 364/515/370 376/519/374
f 376/519/374 371/498/353 374/520/375
f 372/502/357 369/518/373 377/522/377
