# Blender v2.76 (sub 0) OBJ File: 'npc_plantmutant.blend'
# www.blender.org
v -0.205880 0.293492 -0.418465
v -0.355170 0.395525 -0.446960
v -0.253890 0.256886 -0.492659
v -0.323325 0.433062 -0.645908
v -0.079486 0.256876 -0.527693
v -0.045353 0.362909 -0.736164
v 0.131034 0.355145 -0.494792
v 0.123255 0.603168 -0.653335
v 0.169550 0.412584 -0.418399
v 0.197843 0.690243 -0.451600
v 0.155544 0.430386 -0.354985
v 0.082459 0.691176 -0.250695
v 0.121651 0.412600 -0.325490
v -0.038160 0.486109 -0.113741
v 0.062291 0.356261 -0.366150
v -0.157449 0.303752 -0.254321
v -0.351083 0.394037 -0.471673
v -0.310042 0.462124 -0.672994
v -0.091024 0.453941 -0.758156
v 0.083741 0.634405 -0.679565
v 0.086127 0.794394 -0.472658
v -0.052541 0.806656 -0.259292
v -0.252235 0.659525 -0.166334
v -0.363378 0.451476 -0.256899
v -0.409264 0.478361 -0.511841
v -0.302618 0.510856 -0.703497
v -0.134969 0.578299 -0.779093
v -0.012766 0.732971 -0.702444
v -0.011334 0.856799 -0.513541
v -0.126593 0.856839 -0.322670
v -0.305366 0.731690 -0.241214
v -0.421522 0.557475 -0.319989
v -0.482429 0.738453 -0.523501
v -0.439981 0.765856 -0.621024
v -0.406076 0.856337 -0.649194
v -0.360112 0.940798 -0.601297
v -0.298225 0.958595 -0.513119
v -0.318870 0.925768 -0.421712
v -0.390200 0.851198 -0.384755
v -0.461037 0.774645 -0.426120
v -0.545342 0.715931 -0.472125
v -0.563755 0.752477 -0.513048
v -0.576089 0.832594 -0.514311
v -0.566848 0.921820 -0.474873
v -0.540433 0.949095 -0.414147
v -0.518222 0.902161 -0.370266
v -0.511218 0.811648 -0.369308
v -0.523132 0.738423 -0.413671
v -0.654753 0.689205 -0.430509
v -0.681211 0.728901 -0.421123
v -0.687473 0.808015 -0.389211
v -0.662681 0.877226 -0.340295
v -0.612351 0.886007 -0.294597
v -0.577666 0.835354 -0.298655
v -0.578670 0.755902 -0.348203
v -0.612746 0.700275 -0.401559
v -0.647592 0.643134 -0.388792
v -0.680267 0.664650 -0.345889
v -0.673885 0.726011 -0.281507
v -0.637800 0.793638 -0.232907
v -0.589052 0.827292 -0.230996
v -0.556230 0.805239 -0.274701
v -0.559468 0.739344 -0.341924
v -0.597839 0.675309 -0.386413
v -0.606268 0.628800 -0.308469
v -0.622346 0.641327 -0.284516
v -0.616380 0.676642 -0.249199
v -0.594149 0.703741 -0.220910
v -0.567623 0.718278 -0.218881
v -0.552238 0.707258 -0.243235
v -0.556741 0.676572 -0.279555
v -0.578983 0.643336 -0.306392
v -0.638249 0.552400 -0.278364
v -0.670755 0.571712 -0.238736
v -0.656297 0.608806 -0.176016
v -0.603519 0.637603 -0.131617
v -0.549653 0.641844 -0.137808
v -0.518929 0.624076 -0.179546
v -0.538201 0.584701 -0.241588
v -0.586513 0.556217 -0.284535
v -0.592688 0.503048 -0.208060
v -0.603825 0.492935 -0.186479
v -0.600863 0.498551 -0.159741
v -0.582155 0.511264 -0.146502
v -0.560507 0.530163 -0.153598
v -0.555312 0.543505 -0.177141
v -0.564465 0.540777 -0.201770
v -0.578812 0.522609 -0.213194
v -0.565338 0.461141 -0.220241
v -0.592915 0.442565 -0.181986
v -0.595471 0.449066 -0.141995
v -0.567465 0.469927 -0.124462
v -0.528780 0.501095 -0.138113
v -0.503516 0.525556 -0.173108
v -0.505639 0.522084 -0.215754
v -0.531560 0.494911 -0.236632
v -0.522468 0.418769 -0.221849
v -0.547961 0.397422 -0.182935
v -0.544164 0.396055 -0.140132
v -0.521443 0.427640 -0.118265
v -0.484868 0.461482 -0.130474
v -0.459312 0.482636 -0.169450
v -0.459740 0.478888 -0.212358
v -0.485900 0.452433 -0.234062
v -0.477020 0.399726 -0.182671
v -0.486448 0.389282 -0.170890
v -0.480395 0.379807 -0.162053
v -0.480563 0.394978 -0.156140
v -0.469809 0.414519 -0.163172
v -0.457890 0.418531 -0.174694
v -0.456184 0.419611 -0.185926
v -0.463905 0.411675 -0.189403
v -0.441735 0.377186 -0.218078
v -0.452158 0.342397 -0.196833
v -0.452035 0.332041 -0.174296
v -0.444956 0.351708 -0.156918
v -0.428028 0.391112 -0.160097
v -0.415349 0.424529 -0.180173
v -0.413961 0.435913 -0.205505
v -0.424806 0.415797 -0.221303
v -0.389643 0.351893 -0.204353
v -0.395405 0.336026 -0.193049
v -0.395162 0.332027 -0.175568
v -0.389056 0.342240 -0.162149
v -0.380664 0.360682 -0.160653
v -0.375426 0.376508 -0.172253
v -0.340954 0.370685 -0.193741
v -0.381554 0.369703 -0.203220
v -0.234263 0.276782 -0.360149
v -0.201951 0.185168 -0.275374
v -0.277882 0.173838 -0.167973
v -0.290278 0.283204 -0.072989
v -0.307058 0.409217 -0.082862
v -0.249031 0.499739 -0.133133
v -0.210191 0.445356 -0.229915
v -0.226895 0.404405 -0.351874
v -0.015342 0.266960 -0.355444
v -0.052608 0.179999 -0.279695
v -0.135038 0.163518 -0.059001
v -0.248631 0.352873 0.009556
v -0.231403 0.443985 0.016997
v -0.137492 0.516821 -0.068308
v -0.071137 0.436873 -0.186037
v -0.014951 0.400691 -0.323900
v 0.054625 0.272284 -0.252137
v 0.024520 0.210173 -0.178675
v -0.020346 0.205504 -0.040062
v -0.108689 0.309792 0.037548
v -0.128304 0.407134 0.037459
v -0.073178 0.448046 -0.031731
v -0.011801 0.395699 -0.130543
v 0.035993 0.360633 -0.225778
v 0.029932 0.327745 -0.055357
v -0.084912 0.361177 0.113579
v 0.101616 0.232304 -0.173879
v 0.154551 0.243485 -0.139690
v -0.115289 0.410193 0.118406
v 0.161053 0.255527 -0.222285
v -0.063798 0.401312 0.094403
v 0.176178 0.281358 -0.152974
v 0.195209 0.206985 -0.174353
v 0.224267 0.257871 -0.192201
v 0.169519 0.215846 -0.153729
v 0.205584 0.279004 -0.175880
v 0.141960 0.227871 -0.041761
v 0.197923 0.338642 -0.075245
v 0.268552 0.146291 -0.144401
v 0.307562 0.255501 -0.167614
v 0.178838 0.150894 -0.077409
v 0.282197 0.331894 -0.140892
v 0.206437 0.221317 0.045482
v 0.264434 0.331521 0.011616
v 0.342964 0.138897 -0.047037
v 0.354581 0.248449 -0.090299
v 0.243813 0.149122 0.006018
v 0.300162 0.324218 -0.083909
v 0.324971 0.231144 0.018065
v 0.094406 0.329143 0.030056
v 0.137791 0.301738 -0.051250
v 0.130449 0.341507 -0.056927
v 0.114413 0.313097 -0.018444
v 0.058036 0.341202 -0.087397
v -0.063216 0.384406 0.152382
v -0.120550 0.431929 0.187266
v -0.120195 0.386598 0.184731
v -0.068654 0.423889 0.157190
v -0.094166 0.372148 0.169109
v -0.094713 0.442072 0.173020
v 0.012105 0.338815 0.174494
v -0.122997 0.477606 0.277999
v -0.137700 0.358216 0.276021
v 0.016924 0.458708 0.180869
v -0.060591 0.312939 0.222218
v -0.064558 0.505163 0.240627
v 0.079213 0.330751 0.271272
v -0.059668 0.470909 0.378539
v -0.070071 0.346914 0.368631
v 0.084362 0.450629 0.278364
v 0.012083 0.283548 0.330316
v 0.004066 0.501612 0.337669
v 0.040613 0.391813 0.375737
v 0.074089 0.372640 -0.138292
v 0.084840 0.326712 -0.130006
v 0.033109 0.360890 -0.033403
v 0.009887 0.421160 -0.020285
v 0.001082 0.385552 0.006993
v 0.075675 0.379625 0.038825
v 0.065529 0.348002 0.059879
v 0.198992 0.233401 0.153202
v 0.212704 0.214684 0.080033
v 0.224967 0.242549 0.089553
v 0.203335 0.218779 0.094015
v 0.185612 0.268397 0.159001
v 0.175373 0.244762 0.165299
v 0.294169 0.254353 0.218200
v 0.322380 0.237188 0.159253
v 0.310632 0.261765 0.151456
v 0.314785 0.241744 0.174397
v 0.273127 0.285833 0.219934
v 0.276764 0.262805 0.229686
v -0.235214 0.168032 -0.193820
v -0.277876 0.240788 -0.106611
v -0.062523 0.133456 -0.182559
v -0.183376 0.168627 -0.039917
v -0.261782 0.275100 -0.030458
v -0.223785 0.150724 -0.120256
v -0.131621 0.153920 -0.245338
v -0.214342 0.186950 -0.071690
v -0.176325 0.144207 -0.169772
v -0.170553 0.017703 0.011158
v -0.143000 -0.016878 -0.141561
v -0.229571 0.198747 0.024725
v -0.350824 0.140086 -0.057195
v -0.253985 0.213506 -0.122301
v -0.145346 0.113546 -0.110813
v -0.286011 -0.039526 -0.148034
v -0.214105 0.078693 -0.205553
v 0.165194 0.465911 -0.260878
v 0.128557 0.629222 -0.213335
v 0.139463 0.444843 -0.218160
v 0.091036 0.579306 -0.126398
v 0.166791 0.574831 -0.281508
v 0.098394 0.486444 -0.128814
v 0.155454 0.371913 -0.249589
v 0.010435 0.320043 -0.135510
v 0.148872 0.328967 -0.295835
v -0.024871 0.245815 -0.235761
v 0.092953 0.374582 -0.154758
v 0.048559 0.258653 -0.303393
v 0.251928 0.458226 -0.273965
v 0.201043 0.668848 -0.196491
v 0.212916 0.419383 -0.211299
v 0.149193 0.620925 -0.079047
v 0.249434 0.609359 -0.288716
v 0.153568 0.481407 -0.080283
v 0.224808 0.330108 -0.242567
v 0.016147 0.252551 -0.076491
v 0.206090 0.270568 -0.299220
v -0.007560 0.154697 -0.216167
v 0.135696 0.335033 -0.104082
v 0.083138 0.169611 -0.302376
v 0.310879 0.440266 -0.222087
v 0.264597 0.653856 -0.139629
v 0.271867 0.401424 -0.159421
v 0.213939 0.596977 -0.044270
v 0.310034 0.591500 -0.246338
v 0.219395 0.470583 -0.038164
v 0.251578 0.299096 -0.194274
v 0.069175 0.223956 -0.047270
v 0.253441 0.242896 -0.238473
v 0.048668 0.116679 -0.162990
v 0.188499 0.286708 -0.070363
v 0.137528 0.141421 -0.261892
v 0.313298 0.454617 -0.159196
v 0.291713 0.557533 -0.130605
v 0.296623 0.438014 -0.132410
v 0.270319 0.523556 -0.076243
v 0.311718 0.513132 -0.159342
v 0.273576 0.460248 -0.074555
v 0.246530 0.221937 -0.143370
v 0.140593 0.189568 -0.077236
v 0.242208 0.194802 -0.172366
v 0.138211 0.140926 -0.135712
v 0.212062 0.224709 -0.082731
v 0.190261 0.158731 -0.165195
v 0.361893 0.501489 -0.113708
v 0.318330 0.562255 -0.095480
v 0.355816 0.461245 -0.099789
v 0.299190 0.543267 -0.048988
v 0.346604 0.541590 -0.113097
v 0.295504 0.469614 -0.055432
v 0.263337 0.179542 -0.100503
v 0.161674 0.158425 -0.039191
v 0.242728 0.143428 -0.144207
v 0.150595 0.123148 -0.091922
v 0.232390 0.219169 -0.049457
v 0.233215 0.133738 -0.119333
v 0.445000 0.403794 -0.056520
v 0.361197 0.558589 -0.053740
v 0.344616 0.532663 -0.010191
v 0.430329 0.523679 -0.043295
v 0.395168 0.469411 0.006148
v 0.355948 0.210083 -0.082725
v 0.189016 0.136520 -0.017918
v 0.180913 0.108633 -0.054104
v 0.276628 0.151968 -0.009857
v 0.264290 0.128166 -0.071700
v -0.246904 0.257094 -0.421384
v -0.328592 0.348109 -0.455051
v -0.261323 0.232415 -0.475026
v -0.323382 0.345448 -0.528675
v 0.173120 0.386887 -0.496860
v 0.171503 0.514862 -0.542033
v 0.186076 0.415836 -0.443557
v 0.191113 0.534655 -0.490975
v -0.279012 0.303684 -0.418861
v -0.282294 0.286400 -0.523905
v 0.162954 0.441762 -0.543569
v 0.197506 0.485246 -0.444280
v -0.298691 0.193741 -0.386711
v -0.443038 0.385408 -0.450292
v -0.263223 0.162525 -0.495059
v -0.373696 0.358229 -0.578805
v 0.210430 0.287995 -0.513312
v 0.216933 0.536505 -0.587215
v 0.235230 0.341247 -0.400251
v 0.247131 0.584597 -0.500647
v -0.370347 0.291467 -0.380489
v -0.301949 0.262213 -0.585318
v 0.190419 0.399229 -0.607554
v 0.259491 0.480849 -0.402058
v -0.362337 0.137242 -0.421237
v -0.494865 0.305602 -0.471293
v -0.321846 0.103666 -0.521908
v -0.428262 0.290888 -0.615317
v 0.288223 0.273376 -0.534965
v 0.289154 0.512027 -0.621020
v 0.304063 0.320461 -0.423866
v 0.329256 0.550307 -0.516653
v -0.443397 0.213432 -0.398447
v -0.352389 0.181849 -0.606510
v 0.274600 0.361778 -0.636149
v 0.341616 0.446559 -0.418064
v -0.383566 0.151986 -0.471691
v -0.496496 0.202702 -0.488375
v -0.381843 0.143579 -0.527613
v -0.474405 0.211934 -0.565151
v 0.328615 0.311618 -0.544343
v 0.376913 0.417493 -0.574568
v 0.342127 0.326353 -0.492161
v 0.394360 0.423684 -0.526156
v -0.446291 0.175024 -0.458324
v -0.414132 0.182529 -0.569222
v 0.344756 0.361563 -0.581898
v 0.376252 0.378010 -0.486716
v 0.390839 0.327179 -0.579815
v 0.415112 0.413948 -0.594510
v 0.399630 0.353940 -0.514009
v 0.438071 0.422094 -0.530805
v 0.396737 0.365635 -0.602126
v 0.417041 0.390646 -0.509641
v 0.472936 0.214646 -0.556613
v 0.450081 0.391795 -0.588223
v -0.450721 0.137165 -0.488930
v 0.460188 0.394775 -0.560609
v 0.451594 0.309094 -0.596400
v 0.468930 0.316350 -0.517395
v -0.526333 0.181857 -0.502895
v -0.440299 0.100904 -0.554942
v -0.508243 0.186803 -0.564979
v -0.490819 0.153547 -0.471221
v -0.463359 0.162911 -0.587488
v -0.424619 -0.024662 -0.551485
v -0.544845 0.134299 -0.525483
v -0.532906 0.136789 -0.566330
v -0.492849 0.058031 -0.506569
v -0.473546 0.060215 -0.567429
v 0.073918 0.266628 -0.272825
v -0.151965 0.416208 0.051199
vt 0.639038 0.667232
vt 0.569494 0.686580
vt 0.595985 0.633488
vt 0.243676 0.116714
vt 0.295031 0.196246
vt 0.213922 0.172681
vt 0.132813 0.196246
vt 0.184167 0.116714
vt 0.732454 0.126028
vt 0.742444 0.126644
vt 0.737801 0.140414
vt 0.724659 0.188247
vt 0.652169 0.194542
vt 0.703271 0.123392
vt 0.668630 0.149577
vt 0.292391 0.216490
vt 0.213922 0.210475
vt 0.661122 0.600269
vt 0.713884 0.673732
vt 0.191799 0.599053
vt 0.222426 0.597912
vt 0.194950 0.590054
vt 0.265739 0.601808
vt 0.253053 0.599053
vt 0.612480 0.261448
vt 0.643935 0.255524
vt 0.656404 0.288865
vt 0.643978 0.721930
vt 0.792014 0.206985
vt 0.795815 0.226921
vt 0.719875 0.241223
vt 0.755197 0.656741
vt 0.754864 0.742813
vt 0.722387 0.736696
vt 0.738596 0.775730
vt 0.706414 0.836129
vt 0.693198 0.839216
vt 0.283840 0.257507
vt 0.213922 0.252975
vt 0.724409 0.278090
vt 0.709512 0.771121
vt 0.639296 0.759995
vt 0.569081 0.748869
vt 0.792414 0.267314
vt 0.135452 0.216490
vt 0.706113 0.897887
vt 0.686785 0.904433
vt 0.144004 0.257507
vt 0.213922 0.364057
vt 0.628235 0.293329
vt 0.672205 0.354816
vt 0.250816 0.361021
vt 0.703109 0.362034
vt 0.661289 0.846668
vt 0.629381 0.854121
vt 0.734012 0.369252
vt 0.244316 0.416941
vt 0.244316 0.455131
vt 0.213922 0.459882
vt 0.667458 0.910979
vt 0.697134 0.424320
vt 0.714118 0.895175
vt 0.177028 0.361021
vt 0.213922 0.419608
vt 0.659404 0.351826
vt 0.659696 0.411640
vt 0.678415 0.417980
vt 0.183528 0.455131
vt 0.213922 0.466072
vt 0.654043 0.450631
vt 0.722939 0.926480
vt 0.711950 0.938145
vt 0.700962 0.949810
vt 0.664685 0.461929
vt 0.727490 0.921649
vt 0.183528 0.416941
vt 0.643400 0.439334
vt 0.638992 0.434654
vt 0.742836 0.960935
vt 0.741602 0.954413
vt 0.767629 0.942661
vt 0.222425 0.924397
vt 0.253711 0.929288
vt 0.253711 0.925685
vt 0.244316 0.459658
vt 0.628209 0.451137
vt 0.735645 0.922921
vt 0.738624 0.938667
vt 0.625324 0.466387
vt 0.734411 0.916399
vt 0.600117 0.455005
vt 0.599489 0.458327
vt 0.560971 0.463246
vt 0.631094 0.435887
vt 0.601634 0.446984
vt 0.764495 0.926099
vt 0.766062 0.934380
vt 0.763847 0.922669
vt 0.624129 0.472704
vt 0.632289 0.429570
vt 0.603152 0.438964
vt 0.247499 0.947751
vt 0.230819 0.911234
vt 0.234293 0.911363
vt 0.577540 0.426830
vt 0.580383 0.420582
vt 0.805112 0.944718
vt 0.808046 0.951170
vt 0.570677 0.441914
vt 0.790939 0.913570
vt 0.798025 0.929144
vt 0.563814 0.456998
vt 0.788004 0.907119
vt 0.529014 0.420025
vt 0.536333 0.419918
vt 0.536037 0.405531
vt 0.222431 0.909688
vt 0.222431 0.911545
vt 0.214044 0.911492
vt 0.222431 0.954282
vt 0.222431 0.913122
vt 0.247499 0.916219
vt 0.230819 0.911492
vt 0.197364 0.947751
vt 0.214044 0.911234
vt 0.255842 0.931985
vt 0.189312 0.931985
vt 0.197364 0.916219
vt 0.210570 0.911363
vt 0.222392 0.895299
vt 0.235677 0.894950
vt 0.235677 0.874126
vt 0.528603 0.421276
vt 0.521484 0.407511
vt 0.535611 0.406811
vt 0.543211 0.421062
vt 0.535907 0.421169
vt 0.543651 0.419810
vt 0.550192 0.406125
vt 0.877696 0.669450
vt 0.877659 0.654169
vt 0.865164 0.653841
vt 0.877696 0.670933
vt 0.877659 0.655218
vt 0.888585 0.653720
vt 0.869806 0.669157
vt 0.866060 0.653720
vt 0.865164 0.634254
vt 0.877659 0.634582
vt 0.877659 0.618379
vt 0.865164 0.632672
vt 0.877659 0.630884
vt 0.521881 0.406232
vt 0.533729 0.388167
vt 0.519181 0.390181
vt 0.533308 0.389481
vt 0.547436 0.388782
vt 0.547885 0.387466
vt 0.527896 0.376025
vt 0.519727 0.363947
vt 0.531910 0.363343
vt 0.877659 0.615331
vt 0.880499 0.617648
vt 0.890154 0.634254
vt 0.880499 0.618253
vt 0.874819 0.617648
vt 0.519574 0.388868
vt 0.533013 0.375806
vt 0.533308 0.375757
vt 0.538720 0.375488
vt 0.539152 0.374147
vt 0.873998 0.602470
vt 0.867323 0.602734
vt 0.872200 0.585784
vt 0.873642 0.617951
vt 0.863752 0.603920
vt 0.544534 0.361373
vt 0.532328 0.361977
vt 0.873853 0.604885
vt 0.866710 0.604602
vt 0.880995 0.603238
vt 0.880995 0.604602
vt 0.528306 0.374684
vt 0.877478 0.585787
vt 0.898503 0.539310
vt 0.882756 0.585784
vt 0.535264 0.345894
vt 0.529678 0.345888
vt 0.529265 0.347286
vt 0.544055 0.362293
vt 0.534840 0.347291
vt 0.540851 0.345899
vt 0.877478 0.572002
vt 0.565849 0.298483
vt 0.552622 0.268791
vt 0.532167 0.307657
vt 0.919529 0.542616
vt 0.835426 0.532297
vt 0.861315 0.533115
vt 0.872283 0.542989
vt 0.497574 0.309103
vt 0.531749 0.309130
vt 0.540416 0.347297
vt 0.877478 0.533538
vt 0.835426 0.542616
vt 0.493801 0.259313
vt 0.527669 0.262903
vt 0.530936 0.234983
vt 0.877478 0.488098
vt 0.827905 0.488113
vt 0.858007 0.512645
vt 0.832727 0.510142
vt 0.841095 0.495950
vt 0.927051 0.488113
vt 0.924620 0.512550
vt 0.894883 0.507510
vt 0.923692 0.493793
vt 0.498484 0.307630
vt 0.492900 0.260881
vt 0.526209 0.264464
vt 0.558593 0.264357
vt 0.565364 0.299974
vt 0.509458 0.237701
vt 0.530521 0.236600
vt 0.546173 0.210174
vt 0.534472 0.211723
vt 0.531070 0.236093
vt 0.877478 0.461902
vt 0.841814 0.461913
vt 0.882913 0.482386
vt 0.877478 0.447126
vt 0.916593 0.456007
vt 0.913142 0.461913
vt 0.838446 0.481065
vt 0.838362 0.456007
vt 0.822160 0.460668
vt 0.805873 0.429698
vt 0.812819 0.459554
vt 0.555502 0.230851
vt 0.532505 0.210339
vt 0.827352 0.434257
vt 0.942469 0.434430
vt 0.955953 0.414902
vt 0.947518 0.414430
vt 0.877478 0.435024
vt 0.509832 0.236087
vt 0.524129 0.209803
vt 0.852022 0.431379
vt 0.932796 0.460668
vt 0.530762 0.194876
vt 0.541148 0.196616
vt 0.815702 0.413679
vt 0.824675 0.413745
vt 0.795775 0.404196
vt 0.807420 0.406117
vt 0.825393 0.383109
vt 0.936292 0.415427
vt 0.952106 0.492162
vt 0.942885 0.461920
vt 0.777572 0.384357
vt 0.782949 0.345534
vt 0.816973 0.357269
vt 0.834989 0.390689
vt 0.812218 0.390892
vt 0.786225 0.403653
vt 0.792021 0.377602
vt 0.791904 0.407389
vt 0.773769 0.378571
vt 0.533691 0.182581
vt 0.522756 0.184315
vt 0.523696 0.210049
vt 0.533322 0.183087
vt 0.521681 0.185988
vt 0.780510 0.350620
vt 0.840283 0.356421
vt 0.830117 0.348451
vt 0.800330 0.360992
vt 0.981402 0.338008
vt 0.972092 0.346949
vt 0.946506 0.325876
vt 0.938436 0.347021
vt 0.915518 0.351209
vt 0.970640 0.344962
vt 0.940207 0.345027
vt 0.947504 0.325907
vt 0.928522 0.342325
vt 0.960257 0.337103
vt 0.925514 0.344033
vt 0.960609 0.338257
vt 0.967231 0.402467
vt 0.984943 0.375834
vt 0.965841 0.376056
vt 0.943685 0.397376
vt 0.948762 0.395631
vt 0.933253 0.376300
vt 0.820377 0.410917
vt 0.946531 0.381722
vt 0.964988 0.371282
vt 0.958745 0.394745
vt 0.962272 0.397253
vt 0.952617 0.397967
vt 0.942283 0.404913
vt 0.920761 0.388530
vt 0.945430 0.387602
vt 0.962838 0.404777
vt 0.978360 0.383069
vt 0.885982 0.430393
vt 0.886362 0.400009
vt 0.901267 0.401557
vt 0.885762 0.347456
vt 0.894493 0.351286
vt 0.930745 0.381606
vt 0.562847 0.142872
vt 0.554739 0.138564
vt 0.510340 0.214315
vt 0.522915 0.210686
vt 0.868042 0.430659
vt 0.857304 0.400751
vt 0.903401 0.432264
vt 0.899606 0.435479
vt 0.524913 0.208145
vt 0.511509 0.212653
vt 0.809684 0.334185
vt 0.868552 0.349863
vt 0.871218 0.354732
vt 0.872052 0.309174
vt 0.886596 0.309430
vt 0.893677 0.311744
vt 0.534452 0.181209
vt 0.555674 0.136784
vt 0.871012 0.400185
vt 0.865522 0.355126
vt 0.563290 0.138015
vt 0.532620 0.183587
vt 0.894716 0.314680
vt 0.866356 0.310274
vt 0.869387 0.314818
vt 0.893882 0.349897
vt 0.557096 0.102961
vt 0.549355 0.107557
vt 0.556040 0.103538
vt 0.811646 0.408898
vt 0.802822 0.408833
vt 0.808535 0.408963
vt 0.798824 0.408411
vt 0.545697 0.196493
vt 0.929198 0.432682
vt 0.940627 0.418054
vt 0.951485 0.417251
vt 0.547307 0.197205
vt 0.529477 0.235614
vt 0.532745 0.209199
vt 0.531479 0.190365
vt 0.548189 0.193726
vt 0.816818 0.492041
vt 0.804599 0.412210
vt 0.919529 0.532297
vt 0.910573 0.549586
vt 0.888295 0.531951
vt 0.878722 0.518710
vt 0.865633 0.493903
vt 0.855461 0.538441
vt 0.844602 0.527541
vt 0.888150 0.478532
vt 0.896176 0.492965
vt 0.941791 0.498803
vt 0.139479 0.638965
vt 0.107561 0.633032
vt 0.150019 0.623116
vt 0.691183 0.122300
vt 0.666808 0.126308
vt 0.612158 0.178086
vt 0.616572 0.160658
vt 0.222425 0.656222
vt 0.248561 0.601419
vt 0.248152 0.616743
vt 0.170725 0.630747
vt 0.185512 0.589344
vt 0.293048 0.626423
vt 0.320536 0.612057
vt 0.280193 0.577769
vt 0.718785 0.639695
vt 0.750252 0.631576
vt 0.692810 0.618517
vt 0.194876 0.607766
vt 0.178300 0.590818
vt 0.185621 0.563314
vt 0.327016 0.639233
vt 0.338697 0.618290
vt 0.331784 0.591272
vt 0.161152 0.564437
vt 0.155999 0.542196
vt 0.109782 0.581446
vt 0.258882 0.599287
vt 0.259484 0.576766
vt 0.266406 0.554526
vt 0.098948 0.612954
vt 0.262653 0.602101
vt 0.146851 0.617526
vt 0.119260 0.601896
vt 0.297752 0.644808
vt 0.273433 0.638005
vt 0.296037 0.630533
vt 0.176898 0.567775
vt 0.144866 0.600875
vt 0.138186 0.570392
vt 0.311907 0.581799
vt 0.142945 0.545310
vt 0.127292 0.560129
vt 0.281006 0.554543
vt 0.280340 0.562785
vt 0.270130 0.577830
vt 0.302959 0.608292
vt 0.179140 0.546825
vt 0.287115 0.555528
vt 0.296631 0.577525
vt 0.307614 0.572751
vt 0.322261 0.576942
vt 0.153404 0.544831
vt 0.154515 0.530596
vt 0.289858 0.554972
vt 0.294966 0.542064
vt 0.282465 0.541459
vt 0.153881 0.554726
vt 0.154449 0.546308
vt 0.118559 0.575555
vt 0.305197 0.568144
vt 0.129191 0.565625
vt 0.114742 0.568606
vt 0.107515 0.558457
vt 0.313846 0.561102
vt 0.325613 0.564394
vt 0.302800 0.497091
vt 0.139745 0.531273
vt 0.319333 0.562744
vt 0.282102 0.555053
vt 0.111848 0.554965
vt 0.322803 0.544818
vt 0.124290 0.554044
vt 0.118706 0.540286
vt 0.299159 0.538287
vt 0.142950 0.529581
vt 0.144803 0.499799
vt 0.303305 0.635725
vt 0.292136 0.616845
vt 0.307224 0.598443
vt 0.149131 0.625384
vt 0.162016 0.632681
vt 0.143919 0.638490
vt 0.748985 0.158477
vt 0.191799 0.604563
vt 0.179112 0.601808
vt 0.182197 0.592427
vt 0.253053 0.604563
vt 0.264452 0.604284
vt 0.272888 0.602452
vt 0.600859 0.605712
vt 0.592765 0.616479
vt 0.761636 0.128663
vt 0.771850 0.147953
vt 0.630991 0.602991
vt 0.630777 0.608062
vt 0.268395 0.569408
vt 0.275465 0.624725
vt 0.294558 0.640679
vt 0.312109 0.640101
vt 0.251376 0.573104
vt 0.264966 0.547612
vt 0.281985 0.543916
vt 0.273593 0.614339
vt 0.325700 0.621031
vt 0.287183 0.588847
vt 0.194977 0.573153
vt 0.183131 0.545505
vt 0.163130 0.584550
vt 0.117832 0.630518
vt 0.141688 0.596465
vt 0.190907 0.594318
vt 0.174975 0.612198
vt 0.162050 0.606943
vt 0.178892 0.569661
vt 0.180076 0.615463
vt 0.329754 0.636529
vt 0.320814 0.572952
vt 0.314947 0.555006
vt 0.330915 0.566038
vt 0.288051 0.555170
vt 0.294150 0.550573
vt 0.325722 0.573259
vt 0.304472 0.567513
vt 0.343344 0.611038
vt 0.167047 0.542013
vt 0.129780 0.616346
vt 0.105987 0.602870
vt 0.129843 0.568817
vt 0.112379 0.570579
vt 0.102345 0.559651
vt 0.126849 0.548385
vt 0.320953 0.541672
vt 0.119315 0.582509
vt 0.141942 0.577144
vt 0.140344 0.568089
vt 0.341965 0.556188
vt 0.335132 0.565690
vt 0.154479 0.559606
vt 0.131443 0.561814
vt 0.160598 0.565223
vt 0.329572 0.518879
vt 0.345666 0.546801
vt 0.285560 0.541887
vt 0.293586 0.535837
vt 0.307168 0.558130
vt 0.315787 0.535337
vt 0.337768 0.553455
vt 0.156458 0.545547
vt 0.303131 0.499768
vt 0.111261 0.574985
vt 0.164323 0.552766
vt 0.119729 0.522043
vt 0.099064 0.545592
vt 0.105735 0.557065
vt 0.133224 0.541748
vt 0.141711 0.503045
vt 0.621897 0.626279
vt 0.213922 0.117822
vt 0.643164 0.167166
vt 0.222426 0.605704
vt 0.565570 0.707163
vt 0.651943 0.409014
vt 0.183528 0.459658
vt 0.768277 0.946091
vt 0.222425 0.919082
vt 0.603780 0.435642
vt 0.222392 0.874474
vt 0.549739 0.407404
vt 0.869806 0.669399
vt 0.885585 0.669157
vt 0.874819 0.618254
vt 0.890154 0.632672
vt 0.520122 0.362582
vt 0.570710 0.280977
vt 0.573340 0.280372
vt 0.802706 0.492161
vt 0.924689 0.432869
vt 0.958937 0.402003
vt 0.924224 0.382561
vt 0.976308 0.377624
vt 0.952160 0.405567
vt 0.857107 0.435481
vt 0.563821 0.134620
vt 0.562358 0.143221
vt 0.550265 0.105564
vt 0.533263 0.194411
vt 0.545379 0.213233
vt 0.653501 0.125655
vt 0.690409 0.592134
vt 0.766021 0.163216
vt 0.604257 0.595592
vt 0.761852 0.128396
vt 0.624945 0.593724
vn -0.607900 0.615200 0.501900
vn -0.846200 -0.213000 -0.488500
vn -0.535000 0.415500 -0.735600
vn 0.297900 -0.841900 -0.449800
vn 0.219600 -0.559900 -0.798900
vn 0.763900 0.107200 -0.636400
vn 0.548600 -0.822900 -0.147600
vn 0.767500 -0.515200 0.381400
vn -0.000100 -0.474200 0.880400
vn 0.181100 0.272300 0.945000
vn 0.912400 0.408700 0.020400
vn 0.554200 0.614600 0.561300
vn 0.863200 -0.448600 0.231600
vn 0.181700 0.396900 -0.899700
vn -0.738600 -0.277000 -0.614600
vn 0.022700 -0.207200 -0.978000
vn 0.387200 -0.879900 -0.275300
vn -0.423300 -0.868600 0.257400
vn 0.787400 -0.613700 0.058500
vn 0.602400 0.791700 -0.101400
vn -0.315700 0.243800 0.917000
vn 0.268400 0.700700 0.661000
vn 0.127300 0.858000 0.497600
vn 0.282000 -0.930100 0.235500
vn 0.612700 0.271800 -0.742100
vn 0.641300 0.764900 -0.059400
vn -0.105200 -0.014100 0.994300
vn -0.667600 -0.442700 0.598600
vn -0.470000 0.462700 0.751600
vn -0.170600 0.311000 0.934900
vn -0.248100 -0.632600 0.733600
vn -0.535000 -0.304300 -0.788200
vn -0.021000 0.043500 -0.998800
vn 0.462700 0.870300 -0.168700
vn -0.899900 -0.121500 0.418800
vn -0.854800 -0.464500 -0.231500
vn 0.394100 0.522000 -0.756400
vn 0.472300 -0.782800 0.405100
vn 0.116100 -0.969600 -0.215300
vn -0.394700 0.358100 -0.846100
vn 0.043700 0.820000 0.570700
vn -0.674700 -0.174200 -0.717200
vn 0.163200 0.986100 -0.030100
vn -0.590400 -0.768400 -0.247100
vn -0.097900 0.821500 -0.561800
vn -0.516700 -0.481600 -0.707800
vn -0.850000 -0.099300 -0.517300
vn -0.946200 0.210400 -0.245700
vn -0.534700 0.695000 -0.480600
vn 0.313200 -0.233500 0.920500
vn -0.678400 0.155800 -0.717900
vn 0.334600 0.441800 0.832300
vn -0.161000 0.972000 0.170800
vn -0.777700 0.612300 0.142200
vn -0.881100 -0.130500 0.454500
vn -0.053400 0.772800 0.632400
vn 0.609300 -0.657300 -0.443500
vn -0.305000 -0.563000 -0.768100
vn 0.996400 -0.068100 -0.050100
vn 0.902800 0.303300 0.304800
vn -0.865600 -0.494900 0.076300
vn -0.972200 -0.230800 -0.039100
vn 0.933700 0.352800 0.060800
vn 0.299100 0.541000 0.786000
vn 0.656500 -0.379900 -0.651600
vn -0.177100 -0.847700 -0.499900
vn -0.580000 0.204700 0.788400
vn 0.853900 0.133600 -0.503000
vn -0.544300 0.342600 0.765700
vn -0.922600 0.060500 0.380900
vn -0.890100 0.155600 0.428200
vn 0.430900 0.440600 0.787500
vn 0.710200 -0.380900 -0.592000
vn -0.163900 -0.700100 -0.694900
vn 0.952500 -0.076500 -0.294700
vn 0.976000 0.200400 0.084400
vn -0.323800 0.352200 0.878100
vn -0.304000 0.131800 0.943500
vn 0.452400 0.321200 0.831900
vn 0.974800 0.024600 0.221500
vn 0.882200 -0.305100 -0.358500
vn -0.975100 -0.167400 -0.145500
vn 0.478000 0.328500 0.814600
vn 0.337400 -0.597600 -0.727300
vn -0.500400 -0.548600 -0.669800
vn 0.931600 0.318400 0.175100
vn 0.185600 0.518000 0.835000
vn 0.833400 0.009900 -0.552500
vn 0.252700 -0.291200 -0.922600
vn -0.842700 -0.108300 0.527400
vn -0.891400 -0.406800 -0.200000
vn -0.408000 -0.483800 -0.774200
vn 0.406000 0.742000 -0.533400
vn 0.475500 0.828500 0.295600
vn 0.860900 0.400100 0.314300
vn -0.060800 0.209400 -0.975900
vn -0.511500 -0.271100 -0.815400
vn -0.281500 0.126500 0.951100
vn -0.801100 -0.301700 0.516900
vn -0.821200 -0.477800 -0.311900
vn 0.362400 -0.172300 -0.915900
vn 0.823600 0.306900 -0.476900
vn 0.483300 0.741600 -0.465200
vn -0.429800 -0.845700 -0.316300
vn -0.337900 -0.795800 0.502400
vn 0.541500 0.144700 0.828100
vn -0.122200 -0.595900 -0.793700
vn 0.098100 -0.242400 0.965200
vn -0.097300 -0.094900 -0.990700
vn -0.058500 0.361400 -0.930500
vn -0.326100 -0.161500 -0.931400
vn -0.588600 -0.664000 0.461100
vn 0.232300 -0.173600 0.957000
vn 0.582400 0.523000 0.622300
vn -0.432300 -0.742500 -0.511600
vn 0.549200 0.126200 0.826100
vn -0.280300 -0.471200 -0.836300
vn -0.445100 -0.873300 0.198200
vn -0.491000 -0.624100 -0.607700
vn -0.440400 -0.707800 -0.552300
vn -0.131200 -0.353500 0.926200
vn 0.157900 0.288000 0.944500
vn 0.240100 0.922500 -0.302000
vn 0.283300 0.747800 0.600400
vn -0.474800 -0.827300 0.300200
vn -0.832500 -0.552500 -0.039700
vn -0.449400 -0.308000 0.838500
vn -0.445400 0.361900 0.818900
vn -0.047900 0.829500 0.556500
vn -0.033300 0.278400 -0.959900
vn -0.344800 -0.154500 -0.925800
vn -0.181800 0.922200 -0.341300
vn -0.892100 -0.050400 0.449000
vn -0.635500 -0.096700 0.766000
vn -0.796300 0.352300 0.491700
vn -0.404700 0.903000 -0.143800
vn -0.360900 -0.649300 -0.669400
vn -0.574400 -0.598300 -0.558500
vn -0.875200 -0.483700 0.006000
vn -0.305000 0.584900 -0.751600
vn -0.399800 -0.328500 -0.855700
vn -0.174000 0.902200 -0.394700
vn 0.238000 0.957700 0.161900
vn -0.456200 0.514200 0.726200
vn 0.552900 0.746300 0.370500
vn 0.422000 0.890400 -0.170600
vn 0.504000 0.638700 -0.581400
vn -0.042500 -0.987300 0.152900
vn -0.099000 -0.667400 -0.738100
vn -0.170200 -0.917000 0.360800
vn -0.813800 -0.113200 0.569900
vn -0.760000 -0.568100 0.315600
vn -0.142800 -0.503500 0.852100
vn 0.420400 -0.244000 -0.873900
vn 0.301800 -0.748000 -0.591000
vn 0.785000 0.592900 -0.179300
vn 0.671900 0.736000 -0.083000
vn 0.227200 -0.973600 -0.019100
vn -0.830400 0.527500 -0.179100
vn -0.121400 0.843200 0.523700
vn 0.687500 0.723500 0.062000
vn 0.386400 -0.683600 0.619100
vn 0.550900 -0.572000 0.607700
vn 0.270500 -0.387800 0.881100
vn 0.530400 0.779400 0.333600
vn 0.678000 -0.717800 0.158100
vn 0.727200 -0.642300 0.242100
vn -0.021900 0.224900 -0.974100
vn 0.697900 0.274800 -0.661300
vn 0.805100 0.278000 -0.524000
vn -0.608700 -0.511300 0.606600
vn -0.862100 0.432500 -0.263900
vn -0.247400 0.800100 -0.546500
vn 0.870600 0.056700 0.488700
vn -0.164500 -0.089300 0.982300
vn 0.812100 -0.545400 -0.207400
vn 0.290300 0.612400 -0.735300
vn 0.588200 -0.511900 -0.626100
vn -0.625700 -0.779000 -0.041400
vn -0.965800 0.171600 0.194500
vn -0.092300 0.801300 -0.591100
vn -0.644500 0.720600 -0.255400
vn -0.505500 0.861700 0.044200
vn 0.192500 -0.773600 -0.603700
vn 0.683200 -0.721500 0.112600
vn -0.117600 -0.794200 0.596100
vn -0.954300 -0.018300 0.298300
vn -0.601100 -0.799000 -0.011500
vn 0.276000 0.096600 -0.956300
vn 0.364600 0.806700 -0.465100
vn -0.119300 -0.693000 -0.710900
vn 0.632200 0.057900 -0.772600
vn -0.712900 -0.173700 0.679300
vn 0.459300 0.862300 0.213100
vn -0.072100 0.584500 0.808200
vn -0.783500 0.037300 0.620200
vn 0.580200 0.814400 0.011200
vn 0.967800 0.178600 -0.177200
vn -0.416300 -0.084700 0.905200
vn 0.128600 0.771400 0.623100
vn 0.616300 0.787400 0.011000
vn -0.346500 0.479200 0.806400
vn -0.481200 -0.450500 0.752000
vn 0.548000 -0.043200 0.835300
vn 0.180000 -0.916000 0.358600
vn 0.850800 -0.509900 -0.127000
vn 0.896200 0.441200 -0.045200
vn 0.310500 0.866600 0.390600
vn -0.797400 0.582700 0.157100
vn -0.149700 0.955600 -0.253800
vn 0.479200 0.529600 -0.699900
vn -0.284900 -0.907600 -0.308400
vn -0.894100 -0.389300 -0.221200
vn -0.311200 -0.917600 -0.247100
vn 0.402900 -0.541200 -0.738100
vn -0.888200 -0.428500 0.165400
vn 0.864100 -0.199000 -0.462300
vn 0.379500 -0.592500 -0.710600
vn 0.324300 -0.822400 -0.467500
vn -0.675400 -0.479500 0.560200
vn -0.652700 -0.459100 0.602600
vn 0.349500 0.933700 -0.077900
vn 0.248600 0.958200 -0.141600
vn 0.372800 -0.722500 -0.582200
vn 0.385700 0.905100 -0.179100
vn 0.678900 0.050600 0.732400
vn 0.220300 -0.082800 0.971900
vn 0.912300 -0.408500 0.028000
vn 0.035200 -0.182000 0.982700
vn 0.242900 0.927300 0.284600
vn 0.183900 -0.884500 -0.428700
vn 0.177900 0.963400 0.200500
vn 0.881800 -0.469000 -0.049300
vn 0.310500 0.942900 -0.120400
vn -0.679700 -0.725400 0.108800
vn -0.608900 -0.598300 0.520700
vn -0.547000 -0.565600 0.617200
vn -0.002900 -0.960300 0.278900
vn -0.284900 -0.956800 0.057400
vn -0.301300 -0.950100 0.081000
vn 0.078400 -0.866600 0.492700
vn -0.162200 -0.247000 0.955300
vn -0.767500 -0.628400 -0.126400
vn -0.785000 -0.591100 -0.185400
vn -0.692000 0.099800 0.715000
vn 0.492100 -0.699700 -0.517800
vn -0.483000 0.461600 0.744000
vn -0.056000 -0.990100 0.128600
vn -0.251200 -0.638700 0.727300
vn -0.510500 0.094800 0.854600
vn 0.145900 0.766400 0.625600
vn 0.218600 0.487400 -0.845300
vn 0.205800 -0.488800 -0.847700
vn -0.213200 -0.369900 -0.904300
vn 0.366600 0.712900 0.597800
vn 0.448400 0.299800 -0.842000
vn 0.693200 0.672700 -0.258700
vn -0.079200 0.977800 -0.193700
vn 0.550200 0.784900 0.284900
vn 0.846500 0.356300 -0.395600
vn 0.511500 0.018200 -0.859100
vn 0.895700 -0.228100 -0.381600
vn 0.309700 -0.827800 -0.467800
vn -0.554200 -0.511800 0.656400
vn -0.198600 -0.953500 -0.226800
vn 0.213300 -0.971200 0.106100
vn -0.309300 -0.922800 0.229800
vn -0.157500 -0.517300 -0.841100
vn 0.188700 0.980000 0.062300
vn -0.478700 0.593700 0.646800
vn 0.444300 0.404600 0.799200
vn -0.226400 -0.167100 0.959600
vn -0.291700 -0.241100 0.925600
vn 0.735000 0.654400 0.177300
vn 0.810000 -0.423400 -0.405700
vn 0.307700 -0.867500 -0.390900
vn 0.537800 -0.810300 0.232700
vn 0.148800 -0.659200 0.737100
vn -0.043400 -0.437400 0.898200
vn 0.136300 0.398000 0.907200
vn 0.873000 0.470000 0.129900
vn 0.751400 -0.526600 -0.397600
vn 0.070100 0.394600 0.916200
vn -0.599200 0.577800 0.554100
vn -0.048400 0.997200 -0.057300
vn 0.965100 0.199900 0.168900
vn 0.463200 0.867600 -0.180900
vn 0.881600 -0.429900 -0.195000
vn 0.668900 0.046600 -0.741900
vn 0.256800 -0.892600 -0.370400
vn 0.449000 0.591800 0.669400
vn 0.205100 0.876900 0.434600
vn -0.029300 -0.991700 0.125100
vn 0.922500 0.212000 -0.322600
vn -0.703100 0.123100 0.700300
vn -0.636900 -0.770600 -0.022500
vn -0.255300 -0.926500 0.276500
vn -0.213600 0.447400 0.868400
vn 0.227100 0.962100 0.151000
vn 0.553400 -0.830500 -0.062800
vn 0.430100 -0.665100 -0.610500
vn 0.543600 0.609700 -0.576900
vn -0.413300 -0.608800 0.677100
vn 0.097200 -0.938800 -0.330400
vn 0.838900 0.538100 0.081900
vn -0.273600 -0.322100 0.906300
vn 0.432900 -0.901400 -0.006200
vn 0.119900 -0.327200 0.937300
vn 0.507600 -0.155500 0.847400
vn 0.854600 0.517200 -0.046400
vn 0.582900 0.812400 0.009600
vn -0.063200 0.399800 0.914400
vn -0.633600 0.354800 0.687500
vn 0.072100 0.796500 -0.600200
vn 0.132600 -0.542700 0.829400
vn 0.674700 -0.412700 0.611900
vn -0.430600 -0.895300 -0.113700
vn 0.627600 -0.223300 -0.745800
vn -0.388400 -0.359500 -0.848400
vn 0.129000 0.301700 0.944600
vn -0.341000 -0.429700 0.836100
vn 0.376900 0.402700 -0.834100
vn -0.413200 0.655600 -0.632000
vn -0.593600 -0.804500 -0.018400
vn 0.184500 -0.962700 -0.197900
vn 0.376100 -0.632600 0.677000
vn -0.704300 -0.167900 -0.689700
vn 0.231000 0.510800 -0.828000
vn 0.040800 -0.378300 -0.924800
vn 0.894000 -0.444800 -0.054000
vn 0.199500 -0.956300 -0.213800
vn 0.123200 -0.458100 -0.880300
vn -0.423600 0.852700 0.305500
vn -0.048200 0.334300 0.941200
vn 0.958900 -0.260000 -0.113700
vn 0.682100 0.146700 -0.716300
vn 0.454000 -0.371800 0.809700
vn -0.086800 0.983400 0.159100
vn 0.622200 0.208000 0.754700
vn 0.710800 -0.185700 0.678400
vn 0.635900 0.718200 0.282500
vn 0.485200 -0.819000 -0.306100
vn 0.627500 -0.719200 0.298100
vn 0.339800 0.559000 -0.756300
vn 0.169200 -0.380900 -0.909000
vn 0.626100 0.779300 0.025600
vn -0.101600 -0.846000 0.523400
vn -0.405600 0.267600 -0.874000
vn -0.922300 0.348400 0.167200
vn -0.547200 -0.239900 0.801800
vn -0.888400 0.225700 0.399700
vn -0.817700 0.460200 0.345800
vn -0.334100 -0.158800 0.929000
vn 0.416100 0.233800 0.878700
vn -0.609100 0.292200 -0.737300
vn -0.047200 -0.416300 -0.908000
vn 0.069400 0.057000 -0.995900
vn 0.566500 0.709600 0.418800
vn 0.097300 0.674500 -0.731800
vn -0.337700 -0.934100 0.115400
vn -0.401200 -0.640000 0.655300
vn -0.102300 -0.962300 -0.251900
vn 0.712700 -0.107300 0.693100
vn 0.901200 0.433300 -0.000800
vn -0.426900 -0.741300 -0.517900
vn 0.163900 -0.559700 0.812300
vn -0.185200 -0.031600 -0.982200
vn 0.451100 -0.212100 -0.866900
vn 0.649300 0.370400 -0.664200
vn 0.290100 -0.606800 0.740000
vn 0.322400 -0.946500 -0.009900
vn -0.612200 0.551100 -0.566900
vn 0.819800 -0.263000 -0.508700
vn -0.511800 -0.638300 0.574900
vn -0.980900 -0.127800 0.146800
vn -0.768800 -0.068800 -0.635700
vn -0.320900 -0.411000 -0.853300
vn 0.374300 -0.914900 -0.151300
vn 0.186600 -0.970800 0.150400
s 1
f 2/1/1 4/2/2 311/3/3
f 3/4/4 4/5/2 6/6/5
f 6/6/5 8/7/6 7/8/7
f 9/9/8 314/10/9 319/11/10
f 10/12/11 12/13/12 11/14/13
f 11/14/13 12/13/12 242/15/14
f 4/5/2 18/16/15 19/17/16
f 15/18/17 16/19/18 2/1/1
f 15/20/17 13/21/19 244/22/20
f 9/23/8 11/24/13 15/20/17
f 23/25/21 22/26/22 30/27/23
f 8/7/6 6/6/5 19/17/16
f 4/2/2 2/1/1 17/28/24
f 8/29/6 20/30/25 21/31/26
f 12/13/12 10/12/11 21/31/26
f 12/13/12 22/26/22 23/25/21
f 16/19/18 14/32/27 23/33/21
f 16/19/18 24/34/28 17/28/24
f 31/35/29 39/36/30 40/37/31
f 18/16/15 26/38/32 27/39/33
f 22/26/22 21/31/26 29/40/34
f 24/34/28 32/41/35 25/42/36
f 17/28/24 25/42/36 26/43/32
f 21/31/26 20/30/25 28/44/37
f 23/33/21 31/35/29 32/41/35
f 20/45/25 19/17/16 27/39/33
f 40/37/31 48/46/38 41/47/39
f 28/48/37 27/39/33 35/49/40
f 31/50/29 30/27/23 38/51/41
f 26/38/32 34/52/42 35/49/40
f 30/27/23 29/40/34 37/53/43
f 32/41/35 40/37/31 33/54/44
f 25/42/36 33/54/44 34/55/42
f 29/40/34 28/44/37 36/56/45
f 42/57/46 50/58/47 51/59/48
f 33/54/44 41/47/39 42/60/46
f 37/53/43 36/56/45 44/61/49
f 39/36/30 47/62/50 48/46/38
f 36/63/45 35/49/40 43/64/51
f 39/65/30 38/51/41 46/66/52
f 34/52/42 42/57/46 43/64/51
f 38/51/41 37/53/43 45/67/53
f 52/68/54 51/59/48 59/69/55
f 46/66/52 45/67/53 53/70/56
f 48/46/38 56/71/57 49/72/58
f 41/47/39 49/72/58 50/73/47
f 45/67/53 44/61/49 52/74/54
f 48/46/38 47/62/50 55/75/59
f 44/76/49 43/64/51 51/59/48
f 46/66/52 54/77/60 55/78/59
f 59/79/55 58/80/61 66/81/62
f 55/82/59 54/83/60 62/84/63
f 50/58/47 58/85/61 59/69/55
f 54/77/60 53/70/56 61/86/64
f 56/71/57 64/87/65 57/88/66
f 49/72/58 57/88/66 58/80/61
f 53/70/56 52/74/54 60/89/67
f 55/75/59 63/90/68 64/87/65
f 68/91/69 67/92/70 75/93/71
f 62/94/63 61/86/64 69/95/72
f 64/87/65 72/96/73 65/97/74
f 58/80/61 57/88/66 65/97/74
f 60/89/67 68/91/69 69/95/72
f 63/90/68 71/98/75 72/96/73
f 59/99/55 67/92/70 68/91/69
f 63/100/68 62/94/63 70/101/76
f 76/102/77 84/103/78 85/104/79
f 70/101/76 78/105/80 79/106/81
f 66/81/62 74/107/82 75/108/71
f 69/95/72 77/109/83 78/105/80
f 65/97/74 72/96/73 80/110/84
f 66/81/62 65/97/74 73/111/85
f 68/91/69 76/112/77 77/109/83
f 72/96/73 71/98/75 79/113/81
f 86/114/86 85/115/79 93/116/87
f 79/117/81 87/118/88 88/119/89
f 75/120/71 83/121/90 84/103/78
f 79/117/81 78/122/80 86/123/86
f 75/120/71 74/124/82 82/125/91
f 77/126/83 85/104/79 86/123/86
f 73/127/85 80/128/84 88/119/89
f 74/124/82 73/127/85 81/129/92
f 95/130/93 94/131/94 102/132/95
f 88/133/89 96/134/96 89/135/97
f 82/136/91 81/137/92 89/135/97
f 84/138/78 92/139/98 93/116/87
f 87/140/88 95/141/93 96/142/96
f 83/143/90 91/144/99 92/145/98
f 87/118/88 86/123/86 94/131/94
f 82/146/91 90/147/100 91/144/99
f 104/148/101 103/149/102 111/150/103
f 90/147/100 98/151/104 99/152/105
f 94/153/94 93/116/87 101/154/106
f 96/134/96 104/155/101 97/156/107
f 89/135/97 97/156/107 98/157/104
f 93/116/87 92/139/98 100/158/108
f 95/141/93 103/149/102 104/148/101
f 92/145/98 91/144/99 99/152/105
f 112/159/109 120/160/110 113/161/111
f 99/152/105 107/162/112 108/163/113
f 102/164/95 110/165/114 111/150/103
f 99/152/105 98/151/104 106/166/115
f 102/167/95 101/154/106 109/168/116
f 97/156/107 104/155/101 112/159/109
f 97/156/107 105/169/117 106/170/115
f 100/158/108 108/171/113 109/168/116
f 115/172/118 114/173/119 122/174/120
f 106/166/115 105/175/117 113/176/111
f 108/171/113 116/177/121 117/178/122
f 111/150/103 119/179/123 120/180/110
f 107/162/112 115/172/118 116/181/121
f 111/150/103 110/165/114 118/182/124
f 107/162/112 106/166/115 114/173/119
f 110/183/114 109/168/116 117/178/122
f 123/184/125 222/185/126 124/186/127
f 117/178/122 125/187/128 126/188/129
f 113/161/111 120/160/110 128/189/130
f 114/190/119 113/161/111 121/191/131
f 117/178/122 116/177/121 124/192/127
f 119/179/123 127/193/132 128/174/130
f 116/181/121 115/172/118 123/184/125
f 119/179/123 118/182/124 126/186/129
f 132/194/133 140/195/134 133/196/135
f 127/193/132 126/186/129 134/197/136
f 130/198/137 221/199/138 131/200/139
f 126/188/129 125/187/128 133/196/135
f 128/189/130 136/201/140 129/202/141
f 122/203/120 121/191/131 129/202/141
f 124/192/127 132/194/133 133/196/135
f 127/193/132 135/204/142 136/205/140
f 142/206/143 141/207/144 149/208/145
f 135/204/142 143/209/146 144/210/147
f 229/211/148 227/212/149 231/213/150
f 135/204/142 134/197/136 142/214/143
f 225/215/151 228/216/152 232/217/153
f 134/218/136 133/196/135 141/207/144
f 136/201/140 144/219/147 137/220/154
f 129/202/141 138/221/155 130/222/137
f 144/219/147 152/223/156 145/224/157
f 154/225/158 157/226/159 379/227/160
f 143/209/146 151/228/161 152/229/156
f 139/230/162 147/231/163 148/232/164
f 143/209/146 142/214/143 150/233/165
f 223/234/166 146/235/167 147/231/163
f 145/236/157 158/237/168 378/238/169
f 140/195/134 148/239/164 154/225/158
f 149/208/145 159/240/170 154/225/158
f 145/236/157 146/235/167 155/241/171
f 157/242/159 184/243/172 188/244/173
f 151/228/161 150/233/165 153/245/174
f 147/231/163 146/235/167 153/245/174
f 150/246/165 149/208/145 206/247/175
f 153/245/174 145/236/157 203/248/176
f 146/235/167 145/236/157 153/245/174
f 149/249/145 148/232/164 153/245/174
f 152/229/156 151/228/161 153/245/174
f 148/232/164 147/231/163 153/245/174
f 159/240/170 186/250/177 183/251/178
f 155/241/171 163/252/179 156/253/180
f 164/254/181 160/255/182 166/256/183
f 157/242/159 188/244/173 186/257/177
f 141/258/144 379/259/160 149/249/145
f 167/260/184 173/261/185 175/262/186
f 165/263/187 169/264/188 175/262/186
f 162/265/189 164/254/181 170/266/190
f 161/267/191 167/260/184 169/264/188
f 161/267/191 162/265/189 168/268/192
f 206/247/175 208/269/193 207/270/194
f 182/271/195 181/272/196 180/273/197
f 167/260/184 168/268/192 174/274/198
f 166/256/183 165/263/187 171/275/199
f 166/256/183 172/276/200 176/277/201
f 168/268/192 170/266/190 176/277/201
f 196/278/202 197/279/203 201/280/204
f 199/281/205 195/282/206 201/280/204
f 197/283/203 199/284/205 201/285/204
f 198/286/207 200/287/208 201/285/204
f 195/282/206 198/288/207 201/280/204
f 200/289/208 196/278/202 201/280/204
f 184/290/172 190/291/209 194/292/210
f 183/293/178 186/294/177 192/295/211
f 158/237/168 156/253/180 160/296/182
f 193/297/212 199/284/205 197/283/203
f 194/298/210 200/287/208 198/286/207
f 188/299/173 194/298/210 192/295/211
f 185/300/213 187/301/214 193/297/212
f 183/302/178 189/303/215 193/304/212
f 184/290/172 185/305/213 191/306/216
f 204/307/217 178/308/218 208/309/193
f 178/308/218 209/310/219 214/311/220
f 193/304/212 189/303/215 195/282/206
f 190/291/209 191/306/216 197/279/203
f 192/312/211 198/288/207 195/282/206
f 194/292/210 190/291/209 196/278/202
f 181/272/196 212/313/221 211/314/222
f 152/223/156 202/315/223 203/316/176
f 152/229/156 153/245/174 182/317/195
f 182/317/195 203/248/176 179/318/224
f 153/245/174 204/307/217 206/319/175
f 150/233/165 205/320/225 204/307/217
f 204/321/217 205/322/225 207/270/194
f 176/277/201 172/276/200 177/323/226
f 172/276/200 171/275/199 177/323/226
f 174/274/198 176/277/201 177/323/226
f 171/275/199 175/262/186 177/323/226
f 175/262/186 173/261/185 177/323/226
f 173/261/185 174/274/198 177/323/226
f 203/316/176 202/315/223 180/273/197
f 211/324/222 212/325/221 218/326/227
f 209/310/219 215/327/228 220/328/229
f 178/329/218 207/270/194 213/330/230
f 181/331/196 179/318/224 210/332/231
f 208/269/193 214/333/220 213/330/230
f 179/334/224 180/273/197 211/314/222
f 219/335/232 220/328/229 215/327/228
f 216/336/233 217/337/234 218/326/227
f 209/310/219 213/338/230 219/335/232
f 212/325/221 210/332/231 216/336/233
f 213/330/230 214/333/220 220/339/229
f 211/314/222 217/340/234 216/341/233
f 156/342/180 163/343/179 169/264/188
f 158/237/168 164/344/181 162/345/189
f 156/342/180 165/263/187 166/256/183
f 157/226/159 154/225/158 185/346/213
f 154/347/158 187/348/214 185/349/213
f 154/225/158 183/251/178 187/350/214
f 137/220/154 378/351/169 138/221/155
f 158/352/168 162/353/189 161/354/191
f 146/235/167 138/355/155 155/241/171
f 155/241/171 161/356/191 163/252/179
f 132/357/133 222/185/126 233/358/235
f 222/185/126 131/200/139 234/359/236
f 226/360/237 229/211/148 235/361/238
f 131/200/139 221/199/138 236/362/239
f 221/199/138 130/198/137 237/363/240
f 228/216/152 226/360/237 230/364/241
f 226/360/237 139/230/162 230/364/241
f 139/230/162 224/365/242 230/364/241
f 224/365/242 228/216/152 230/364/241
f 227/212/149 138/355/155 231/213/150
f 138/355/155 223/234/166 231/213/150
f 223/234/166 229/211/148 231/213/150
f 228/216/152 224/365/242 232/217/153
f 224/365/242 140/366/134 232/217/153
f 140/366/134 225/215/151 232/217/153
f 222/185/126 228/216/152 233/358/235
f 228/216/152 225/215/151 233/358/235
f 225/215/151 132/357/133 233/358/235
f 131/200/139 226/360/237 234/359/236
f 226/360/237 228/216/152 234/359/236
f 228/216/152 222/185/126 234/359/236
f 229/211/148 223/234/166 235/361/238
f 223/234/166 139/230/162 235/361/238
f 139/230/162 226/360/237 235/361/238
f 221/199/138 229/211/148 236/362/239
f 229/211/148 226/360/237 236/362/239
f 226/360/237 131/200/139 236/362/239
f 130/198/137 227/212/149 237/363/240
f 227/212/149 229/211/148 237/363/240
f 229/211/148 221/199/138 237/363/240
f 247/367/243 259/368/244 257/369/245
f 13/370/19 11/14/13 238/371/246
f 12/13/12 14/372/27 241/373/247
f 14/374/27 240/375/248 243/376/249
f 245/377/250 257/369/245 260/378/251
f 242/379/14 254/380/252 250/381/253
f 16/19/18 247/382/243 245/383/250
f 15/18/17 249/384/254 16/19/18
f 14/374/27 248/385/255 13/21/19
f 246/386/256 244/22/20 256/387/257
f 251/388/258 263/389/259 266/390/260
f 258/391/261 270/392/262 273/393/263
f 255/394/264 252/395/265 264/396/266
f 257/369/245 259/368/244 271/397/267
f 238/398/246 250/381/253 252/395/265
f 247/367/243 249/399/254 261/400/268
f 249/399/254 246/386/256 258/391/261
f 242/379/14 239/401/269 251/388/258
f 239/401/269 241/402/247 253/403/270
f 241/402/247 243/376/249 255/394/264
f 240/375/248 252/395/265 255/394/264
f 244/22/20 248/385/255 260/378/251
f 272/404/271 269/405/272 281/406/273
f 266/390/260 263/389/259 275/407/274
f 270/392/262 282/408/275 285/409/276
f 264/396/266 276/410/277 279/411/278
f 260/378/251 257/369/245 269/405/272
f 255/394/264 267/412/279 265/413/280
f 261/400/268 273/393/263 271/397/267
f 250/381/253 254/380/252 266/390/260
f 260/378/251 272/404/271 268/414/281
f 252/395/265 250/381/253 262/415/282
f 256/387/257 268/414/281 270/392/262
f 253/403/270 265/413/280 263/389/259
f 277/416/283 289/417/284 287/418/285
f 282/408/275 280/419/286 292/420/287
f 274/421/288 286/422/289 288/423/290
f 284/424/291 296/425/292 292/420/287
f 267/412/279 279/411/278 277/416/283
f 273/393/263 285/409/276 283/426/293
f 262/415/282 266/390/260 278/427/294
f 272/404/271 284/424/291 280/419/286
f 264/396/266 262/415/282 274/421/288
f 270/392/262 268/414/281 280/419/286
f 265/413/280 277/416/283 275/407/274
f 271/397/267 283/426/293 281/406/273
f 293/428/295 295/429/296 305/430/297
f 289/417/284 300/431/298 299/432/299
f 288/423/290 286/422/289 298/433/300
f 281/406/273 283/426/293 295/429/296
f 279/411/278 276/410/277 288/423/290
f 285/409/276 282/408/275 294/434/301
f 275/407/274 287/418/285 290/435/302
f 284/424/291 281/406/273 293/428/295
f 277/416/283 279/411/278 291/436/303
f 285/409/276 297/437/304 295/429/296
f 278/427/294 290/435/302 286/422/289
f 301/438/305 299/432/299 300/431/298
f 304/439/306 305/430/297 307/440/307
f 298/433/300 301/438/305 302/441/308
f 288/423/290 298/433/300 302/441/308
f 290/435/302 287/418/285 299/432/299
f 296/425/292 293/428/295 304/439/306
f 291/436/303 302/441/308 300/431/298
f 297/437/304 307/440/307 305/430/297
f 286/422/289 290/435/302 301/438/305
f 292/420/287 296/425/292 306/442/309
f 294/434/301 292/420/287 303/443/310
f 303/443/310 306/442/309 307/440/307
f 294/434/301 303/443/310 307/440/307
f 315/444/311 319/445/10 331/446/312
f 309/447/313 311/448/3 323/449/314
f 8/29/6 10/12/11 315/450/311
f 3/451/4 1/452/315 308/453/316
f 7/454/7 312/455/317 314/456/9
f 4/2/2 3/457/4 317/458/318
f 7/459/7 8/29/6 318/460/319
f 1/461/315 2/1/1 316/462/320
f 314/456/9 326/463/321 331/446/312
f 318/464/319 313/465/322 325/466/323
f 324/467/324 336/468/325 338/469/326
f 330/470/327 325/466/323 337/471/328
f 324/467/324 330/470/327 342/472/329
f 322/473/330 334/474/331 341/475/332
f 309/447/313 321/476/333 328/477/334
f 310/478/335 322/473/330 329/479/336
f 316/480/320 328/477/334 320/481/337
f 312/455/317 318/464/319 330/470/327
f 311/448/3 317/482/318 329/479/336
f 312/455/317 324/467/324 326/463/321
f 315/444/311 327/483/338 325/466/323
f 310/478/335 308/453/316 320/481/337
f 343/484/339 355/485/340 351/486/341
f 336/468/325 348/487/342 350/488/343
f 342/472/329 337/471/328 349/489/344
f 342/472/329 354/490/345 348/487/342
f 331/446/312 343/484/339 339/491/346
f 325/466/323 327/483/338 339/491/346
f 322/473/330 320/481/337 332/492/347
f 326/463/321 338/469/326 343/484/339
f 323/449/314 335/493/348 333/494/349
f 320/481/337 328/477/334 340/495/350
f 328/477/334 321/476/333 333/494/349
f 329/479/336 341/475/332 335/493/348
f 345/496/351 368/497/352 371/498/353
f 351/486/341 355/485/340 361/499/354
f 347/500/355 353/501/356 372/502/357
f 351/486/341 359/503/358 357/504/359
f 339/491/346 351/486/341 349/489/344
f 334/474/331 332/492/347 344/505/360
f 338/469/326 350/488/343 355/485/340
f 333/494/349 335/493/348 347/500/355
f 332/492/347 340/495/350 352/506/361
f 340/495/350 333/494/349 345/496/351
f 335/493/348 341/475/332 353/501/356
f 341/475/332 334/474/331 346/507/362
f 361/499/354 367/508/363 365/509/364
f 357/504/359 359/503/358 365/509/364
f 348/487/342 356/510/365 358/511/366
f 349/489/344 357/504/359 360/512/367
f 354/490/345 360/512/367 356/510/365
f 355/485/340 350/488/343 358/511/366
f 366/513/368 363/514/369 365/509/364
f 352/506/361 371/498/353 364/515/370
f 360/512/367 357/504/359 363/514/369
f 356/510/365 360/512/367 366/513/368
f 362/516/371 366/513/368 367/508/363
f 358/511/366 356/510/365 362/516/371
f 358/511/366 362/516/371 367/508/363
f 345/496/351 347/500/355 370/517/372
f 346/507/362 344/505/360 364/515/370
f 353/501/356 346/507/362 369/518/373
f 376/519/374 374/520/375 375/521/376
f 370/517/372 375/521/376 374/520/375
f 372/502/357 377/522/377 375/521/376
f 364/515/370 371/498/353 376/519/374
f 371/498/353 368/497/352 374/520/375
f 369/518/373 364/515/370 373/523/378
f 369/518/373 373/523/378 377/522/377
f 373/523/378 376/519/374 377/522/377
f 309/524/313 2/1/1 311/3/3
f 5/525/379 3/4/4 6/6/5
f 5/525/379 6/6/5 7/8/7
f 10/12/11 9/9/8 319/11/10
f 319/11/10 315/450/311 10/12/11
f 9/9/8 10/12/11 11/14/13
f 12/13/12 239/526/269 242/15/14
f 242/15/14 238/371/246 11/14/13
f 6/6/5 4/5/2 19/17/16
f 1/461/315 15/18/17 2/1/1
f 246/386/256 15/20/17 244/22/20
f 15/20/17 1/452/315 7/454/7
f 3/451/4 5/527/379 7/454/7
f 7/454/7 9/23/8 15/20/17
f 11/24/13 13/21/19 15/20/17
f 1/452/315 3/451/4 7/454/7
f 31/50/29 23/25/21 30/27/23
f 20/45/25 8/7/6 19/17/16
f 18/528/15 4/2/2 17/28/24
f 10/12/11 8/29/6 21/31/26
f 22/26/22 12/13/12 21/31/26
f 14/372/27 12/13/12 23/25/21
f 24/34/28 16/19/18 23/33/21
f 2/1/1 16/19/18 17/28/24
f 32/41/35 31/35/29 40/37/31
f 19/17/16 18/16/15 27/39/33
f 30/27/23 22/26/22 29/40/34
f 17/28/24 24/34/28 25/42/36
f 18/528/15 17/28/24 26/43/32
f 29/40/34 21/31/26 28/44/37
f 24/34/28 23/33/21 32/41/35
f 28/48/37 20/45/25 27/39/33
f 33/54/44 40/37/31 41/47/39
f 36/63/45 28/48/37 35/49/40
f 39/65/30 31/50/29 38/51/41
f 27/39/33 26/38/32 35/49/40
f 38/51/41 30/27/23 37/53/43
f 25/42/36 32/41/35 33/54/44
f 26/43/32 25/42/36 34/55/42
f 37/53/43 29/40/34 36/56/45
f 43/64/51 42/57/46 51/59/48
f 34/55/42 33/54/44 42/60/46
f 45/67/53 37/53/43 44/61/49
f 40/37/31 39/36/30 48/46/38
f 44/76/49 36/63/45 43/64/51
f 47/529/50 39/65/30 46/66/52
f 35/49/40 34/52/42 43/64/51
f 46/66/52 38/51/41 45/67/53
f 60/530/67 52/68/54 59/69/55
f 54/77/60 46/66/52 53/70/56
f 41/47/39 48/46/38 49/72/58
f 42/60/46 41/47/39 50/73/47
f 53/70/56 45/67/53 52/74/54
f 56/71/57 48/46/38 55/75/59
f 52/68/54 44/76/49 51/59/48
f 47/529/50 46/66/52 55/78/59
f 67/531/70 59/79/55 66/81/62
f 63/532/68 55/82/59 62/84/63
f 51/59/48 50/58/47 59/69/55
f 62/94/63 54/77/60 61/86/64
f 49/72/58 56/71/57 57/88/66
f 50/73/47 49/72/58 58/80/61
f 61/86/64 53/70/56 60/89/67
f 56/71/57 55/75/59 64/87/65
f 76/112/77 68/91/69 75/93/71
f 70/101/76 62/94/63 69/95/72
f 57/88/66 64/87/65 65/97/74
f 66/81/62 58/80/61 65/97/74
f 61/86/64 60/89/67 69/95/72
f 64/87/65 63/90/68 72/96/73
f 60/89/67 59/99/55 68/91/69
f 71/533/75 63/100/68 70/101/76
f 77/126/83 76/102/77 85/104/79
f 71/533/75 70/101/76 79/106/81
f 67/531/70 66/81/62 75/108/71
f 70/101/76 69/95/72 78/105/80
f 73/111/85 65/97/74 80/110/84
f 74/107/82 66/81/62 73/111/85
f 69/95/72 68/91/69 77/109/83
f 80/110/84 72/96/73 79/113/81
f 94/153/94 86/114/86 93/116/87
f 80/128/84 79/117/81 88/119/89
f 76/102/77 75/120/71 84/103/78
f 87/118/88 79/117/81 86/123/86
f 83/121/90 75/120/71 82/125/91
f 78/122/80 77/126/83 86/123/86
f 81/129/92 73/127/85 88/119/89
f 82/125/91 74/124/82 81/129/92
f 103/534/102 95/130/93 102/132/95
f 81/137/92 88/133/89 89/135/97
f 90/535/100 82/136/91 89/135/97
f 85/115/79 84/138/78 93/116/87
f 88/536/89 87/140/88 96/142/96
f 84/537/78 83/143/90 92/145/98
f 95/130/93 87/118/88 94/131/94
f 83/143/90 82/146/91 91/144/99
f 112/538/109 104/148/101 111/150/103
f 91/144/99 90/147/100 99/152/105
f 102/167/95 94/153/94 101/154/106
f 89/135/97 96/134/96 97/156/107
f 90/535/100 89/135/97 98/157/104
f 101/154/106 93/116/87 100/158/108
f 96/142/96 95/141/93 104/148/101
f 100/539/108 92/145/98 99/152/105
f 105/169/117 112/159/109 113/161/111
f 100/539/108 99/152/105 108/163/113
f 103/149/102 102/164/95 111/150/103
f 107/162/112 99/152/105 106/166/115
f 110/183/114 102/167/95 109/168/116
f 105/169/117 97/156/107 112/159/109
f 98/157/104 97/156/107 106/170/115
f 101/154/106 100/158/108 109/168/116
f 123/184/125 115/172/118 122/174/120
f 114/173/119 106/166/115 113/176/111
f 109/168/116 108/171/113 117/178/122
f 112/538/109 111/150/103 120/180/110
f 108/163/113 107/162/112 116/181/121
f 119/179/123 111/150/103 118/182/124
f 115/172/118 107/162/112 114/173/119
f 118/540/124 110/183/114 117/178/122
f 132/357/133 124/186/127 222/185/126
f 123/184/125 131/200/139 222/185/126
f 118/540/124 117/178/122 126/188/129
f 121/191/131 113/161/111 128/189/130
f 122/203/120 114/190/119 121/191/131
f 125/187/128 117/178/122 124/192/127
f 120/180/110 119/179/123 128/174/130
f 124/186/127 116/181/121 123/184/125
f 127/193/132 119/179/123 126/186/129
f 141/207/144 133/196/135 140/195/134
f 132/194/133 225/541/151 140/195/134
f 135/204/142 127/193/132 134/197/136
f 131/200/139 123/184/125 122/174/120
f 122/174/120 130/198/137 131/200/139
f 134/218/136 126/188/129 133/196/135
f 121/191/131 128/189/130 129/202/141
f 130/222/137 122/203/120 129/202/141
f 125/187/128 124/192/127 133/196/135
f 128/174/130 127/193/132 136/205/140
f 150/246/165 142/206/143 149/208/145
f 136/205/140 135/204/142 144/210/147
f 143/209/146 135/204/142 142/214/143
f 142/206/143 134/218/136 141/207/144
f 129/202/141 136/201/140 137/220/154
f 227/542/149 130/222/137 138/221/155
f 129/202/141 137/220/154 138/221/155
f 137/220/154 144/219/147 145/224/157
f 379/227/160 141/207/144 140/195/134
f 140/195/134 154/225/158 379/227/160
f 144/210/147 143/209/146 152/229/156
f 148/232/164 140/366/134 224/365/242
f 224/365/242 139/230/162 148/232/164
f 151/228/161 143/209/146 150/233/165
f 147/231/163 139/230/162 223/234/166
f 223/234/166 138/355/155 146/235/167
f 378/238/169 137/543/154 145/236/157
f 145/236/157 156/253/180 158/237/168
f 148/239/164 149/208/145 154/225/158
f 156/253/180 145/236/157 155/241/171
f 205/322/225 150/246/165 206/247/175
f 182/317/195 153/245/174 203/248/176
f 154/225/158 159/240/170 183/251/178
f 170/266/190 164/254/181 166/256/183
f 159/544/170 157/242/159 186/257/177
f 159/544/170 149/249/145 157/242/159
f 379/259/160 157/242/159 149/249/145
f 169/264/188 167/260/184 175/262/186
f 171/275/199 165/263/187 175/262/186
f 168/268/192 162/265/189 170/266/190
f 163/343/179 161/267/191 169/264/188
f 167/260/184 161/267/191 168/268/192
f 205/322/225 206/247/175 207/270/194
f 202/315/223 182/271/195 180/273/197
f 173/261/185 167/260/184 174/274/198
f 172/276/200 166/256/183 171/275/199
f 170/266/190 166/256/183 176/277/201
f 174/274/198 168/268/192 176/277/201
f 188/545/173 184/290/172 194/292/210
f 189/546/215 183/293/178 192/295/211
f 164/344/181 158/237/168 160/296/182
f 191/547/216 193/297/212 197/283/203
f 192/295/211 194/298/210 198/286/207
f 186/294/177 188/299/173 192/295/211
f 191/547/216 185/300/213 193/297/212
f 187/548/214 183/302/178 193/304/212
f 190/291/209 184/290/172 191/306/216
f 206/319/175 204/307/217 208/309/193
f 208/309/193 178/308/218 214/311/220
f 199/281/205 193/304/212 195/282/206
f 196/278/202 190/291/209 197/279/203
f 189/303/215 192/312/211 195/282/206
f 200/289/208 194/292/210 196/278/202
f 180/273/197 181/272/196 211/314/222
f 145/224/157 152/223/156 203/316/176
f 202/549/223 152/229/156 182/317/195
f 181/331/196 182/317/195 179/318/224
f 149/249/145 153/245/174 206/319/175
f 153/245/174 150/233/165 204/307/217
f 178/329/218 204/321/217 207/270/194
f 179/334/224 203/316/176 180/273/197
f 217/337/234 211/324/222 218/326/227
f 214/311/220 209/310/219 220/328/229
f 209/550/219 178/329/218 213/330/230
f 212/325/221 181/331/196 210/332/231
f 207/270/194 208/269/193 213/330/230
f 210/551/231 179/334/224 211/314/222
f 215/327/228 209/310/219 219/335/232
f 218/326/227 212/325/221 216/336/233
f 219/552/232 213/330/230 220/339/229
f 210/551/231 211/314/222 216/341/233
f 165/263/187 156/342/180 169/264/188
f 160/255/182 156/342/180 166/256/183
f 184/553/172 157/226/159 185/346/213
f 155/554/171 138/221/155 378/351/169
f 378/351/169 158/352/168 155/554/171
f 155/554/171 158/352/168 161/354/191
f 245/377/250 247/367/243 257/369/245
f 240/555/248 13/370/19 238/371/246
f 239/526/269 12/13/12 241/373/247
f 14/374/27 13/21/19 240/375/248
f 243/376/249 241/402/247 14/374/27
f 248/385/255 245/377/250 260/378/251
f 238/398/246 242/379/14 250/381/253
f 14/32/27 16/19/18 245/383/250
f 247/382/243 16/19/18 249/384/254
f 15/18/17 246/556/256 249/384/254
f 244/22/20 13/21/19 248/385/255
f 14/374/27 245/377/250 248/385/255
f 258/391/261 246/386/256 256/387/257
f 254/380/252 251/388/258 266/390/260
f 261/400/268 258/391/261 273/393/263
f 267/412/279 255/394/264 264/396/266
f 269/405/272 257/369/245 271/397/267
f 240/375/248 238/398/246 252/395/265
f 259/368/244 247/367/243 261/400/268
f 261/400/268 249/399/254 258/391/261
f 254/380/252 242/379/14 251/388/258
f 251/388/258 239/401/269 253/403/270
f 253/403/270 241/402/247 255/394/264
f 243/376/249 240/375/248 255/394/264
f 256/387/257 244/22/20 260/378/251
f 284/424/291 272/404/271 281/406/273
f 278/427/294 266/390/260 275/407/274
f 273/393/263 270/392/262 285/409/276
f 267/412/279 264/396/266 279/411/278
f 272/404/271 260/378/251 269/405/272
f 253/403/270 255/394/264 265/413/280
f 259/368/244 261/400/268 271/397/267
f 262/415/282 250/381/253 266/390/260
f 256/387/257 260/378/251 268/414/281
f 264/396/266 252/395/265 262/415/282
f 258/391/261 256/387/257 270/392/262
f 251/388/258 253/403/270 263/389/259
f 275/407/274 277/416/283 287/418/285
f 294/434/301 282/408/275 292/420/287
f 276/410/277 274/421/288 288/423/290
f 280/419/286 284/424/291 292/420/287
f 265/413/280 267/412/279 277/416/283
f 271/397/267 273/393/263 283/426/293
f 274/421/288 262/415/282 278/427/294
f 268/414/281 272/404/271 280/419/286
f 276/410/277 264/396/266 274/421/288
f 282/408/275 270/392/262 280/419/286
f 263/389/259 265/413/280 275/407/274
f 269/405/272 271/397/267 281/406/273
f 304/439/306 293/428/295 305/430/297
f 287/418/285 289/417/284 299/432/299
f 293/428/295 281/406/273 295/429/296
f 291/436/303 279/411/278 288/423/290
f 297/437/304 285/409/276 294/434/301
f 278/427/294 275/407/274 290/435/302
f 296/425/292 284/424/291 293/428/295
f 289/417/284 277/416/283 291/436/303
f 283/426/293 285/409/276 295/429/296
f 274/421/288 278/427/294 286/422/289
f 302/441/308 301/438/305 300/431/298
f 306/442/309 304/439/306 307/440/307
f 291/436/303 288/423/290 302/441/308
f 301/438/305 290/435/302 299/432/299
f 306/442/309 296/425/292 304/439/306
f 289/417/284 291/436/303 300/431/298
f 295/429/296 297/437/304 305/430/297
f 298/433/300 286/422/289 301/438/305
f 303/443/310 292/420/287 306/442/309
f 297/437/304 294/434/301 307/440/307
f 327/483/338 315/444/311 331/446/312
f 321/476/333 309/447/313 323/449/314
f 313/557/322 8/29/6 315/450/311
f 310/478/335 3/451/4 308/453/316
f 9/23/8 7/454/7 314/456/9
f 3/457/4 310/558/335 317/458/318
f 317/458/318 311/3/3 4/2/2
f 8/29/6 313/557/322 318/460/319
f 318/460/319 312/559/317 7/459/7
f 2/1/1 309/524/313 316/462/320
f 316/462/320 308/560/316 1/461/315
f 319/445/10 314/456/9 331/446/312
f 330/470/327 318/464/319 325/466/323
f 326/463/321 324/467/324 338/469/326
f 342/472/329 330/470/327 337/471/328
f 336/468/325 324/467/324 342/472/329
f 329/479/336 322/473/330 341/475/332
f 316/480/320 309/447/313 328/477/334
f 317/482/318 310/478/335 329/479/336
f 308/453/316 316/480/320 320/481/337
f 324/467/324 312/455/317 330/470/327
f 323/449/314 311/448/3 329/479/336
f 314/456/9 312/455/317 326/463/321
f 313/465/322 315/444/311 325/466/323
f 322/473/330 310/478/335 320/481/337
f 339/491/346 343/484/339 351/486/341
f 338/469/326 336/468/325 350/488/343
f 354/490/345 342/472/329 349/489/344
f 336/468/325 342/472/329 348/487/342
f 327/483/338 331/446/312 339/491/346
f 337/471/328 325/466/323 339/491/346
f 334/474/331 322/473/330 332/492/347
f 331/446/312 326/463/321 343/484/339
f 321/476/333 323/449/314 333/494/349
f 332/492/347 320/481/337 340/495/350
f 340/495/350 328/477/334 333/494/349
f 323/449/314 329/479/336 335/493/348
f 352/506/361 345/496/351 371/498/353
f 359/503/358 351/486/341 361/499/354
f 370/517/372 347/500/355 372/502/357
f 349/489/344 351/486/341 357/504/359
f 337/471/328 339/491/346 349/489/344
f 346/507/362 334/474/331 344/505/360
f 343/484/339 338/469/326 355/485/340
f 345/496/351 333/494/349 347/500/355
f 344/505/360 332/492/347 352/506/361
f 352/506/361 340/495/350 345/496/351
f 347/500/355 335/493/348 353/501/356
f 353/501/356 341/475/332 346/507/362
f 359/503/358 361/499/354 365/509/364
f 363/514/369 357/504/359 365/509/364
f 350/488/343 348/487/342 358/511/366
f 354/490/345 349/489/344 360/512/367
f 348/487/342 354/490/345 356/510/365
f 361/499/354 355/485/340 358/511/366
f 367/508/363 366/513/368 365/509/364
f 344/505/360 352/506/361 364/515/370
f 366/513/368 360/512/367 363/514/369
f 362/516/371 356/510/365 366/513/368
f 361/499/354 358/511/366 367/508/363
f 368/497/352 345/496/351 370/517/372
f 369/518/373 346/507/362 364/515/370
f 372/502/357 353/501/356 369/518/373
f 377/522/377 376/519/374 375/521/376
f 368/497/352 370/517/372 374/520/375
f 370/517/372 372/502/357 375/521/376
f 373/523/378 364/515/370 376/519/374
f 376/519/374 371/498/353 374/520/375
f 372/502/357 369/518/373 377/522/377
