# Blender v2.76 (sub 0) OBJ File: 'npc_mutant_avian.blend'
# www.blender.org
v 0.113688 1.195852 -0.131793
v 0.001996 0.947286 -0.035942
v 0.003664 1.195419 -0.079886
v -0.036064 1.167563 -0.014426
v 0.100858 1.195210 -0.063884
v -0.083997 0.888943 0.060737
v 0.085976 1.176920 -0.004382
v 0.076191 1.169476 0.039768
v -0.122388 1.161757 -0.005930
v 0.001007 0.842304 0.086454
v 0.065816 1.150023 0.073891
v -0.117416 1.140376 0.026388
v 0.054398 1.121106 0.103202
v -0.058165 1.106954 0.073133
v 0.001996 0.936570 0.031372
v 0.043586 1.100230 0.138104
v -0.162935 1.094673 0.091291
v 0.039458 1.040755 0.077359
v 0.033306 1.071478 0.161509
v -0.153930 1.077780 0.109777
v 0.023688 0.986515 0.074633
v 0.025129 1.048934 0.180485
v -0.080803 1.031943 0.142792
v 0.010490 0.962222 0.092629
v 0.015426 1.032943 0.214813
v -0.118171 1.017096 0.157250
v 0.005910 0.945451 0.078807
v 0.003552 0.992485 0.233894
v -0.102855 0.971756 0.178003
v -0.002929 0.891177 0.119510
v -0.011399 0.955178 0.272886
v -0.094635 0.922105 0.169500
v -0.034246 0.883645 0.316521
v -0.080056 0.861447 0.254050
v 0.000722 0.722190 -0.038734
v -0.050425 0.821797 0.335138
v -0.081619 0.805842 0.289616
v -0.060226 0.741378 0.299253
v -0.097004 0.975885 0.193576
v -0.085152 0.954355 0.217819
v 0.001325 0.729297 -0.138127
v -0.098318 0.762776 -0.173061
v 0.000666 0.715556 -0.144251
v -0.197600 0.958347 0.201605
v -0.189672 0.980901 0.186850
v -0.188429 0.996183 0.206391
v -0.195150 0.974942 0.224711
v -0.227228 0.946743 0.199521
v -0.213817 0.988415 0.165851
v -0.210287 1.020228 0.205641
v -0.222721 0.976951 0.239726
v -0.247661 0.963956 0.198411
v -0.238581 0.992290 0.175557
v -0.236153 1.013851 0.202609
v -0.244931 0.985017 0.225667
v 0.001996 0.916823 -0.150525
v 0.000538 0.780213 0.056756
v 0.001996 0.803507 -0.226747
v -0.071494 1.010194 0.118123
v -0.073963 0.966849 0.117946
v -0.065115 0.937207 0.124347
v -0.096812 0.883301 0.192156
v -0.011233 0.838690 0.138591
v -0.078097 0.871207 0.137320
v -0.027617 0.808679 0.193635
v -0.050899 0.868861 -0.139091
v -0.072248 0.840068 0.214015
v -0.057788 0.826510 0.189877
v -0.044778 0.763190 0.225187
v -0.061961 0.754595 0.286180
v -0.073922 0.785081 0.241213
v -0.063504 0.790678 0.215895
v -0.166585 0.891004 0.003436
v 0.002360 0.932169 0.070603
v 0.001435 0.900652 0.110232
v -0.037747 0.911960 0.093718
v -0.085974 1.094992 0.088255
v -0.069040 1.033933 0.094449
v 0.002156 0.761818 -0.236046
v -0.091219 0.734829 -0.181678
v -0.000709 0.699368 -0.134770
v -0.116760 0.698343 -0.180047
v 0.002368 0.714127 -0.255525
v -0.001808 0.651936 -0.116984
v -0.121490 0.631273 -0.166934
v 0.000251 0.611631 -0.226633
v 0.002387 0.600618 -0.123982
v -0.060809 0.586777 -0.157414
v 0.003333 0.581302 -0.185606
v -0.179649 0.931717 -0.037849
v -0.228166 0.887133 -0.024330
v -0.315380 0.870126 0.000354
v -0.330082 0.883382 -0.040067
v -0.318623 0.894662 -0.008134
v -0.802122 0.931785 0.219521
v -0.574553 0.893950 0.152889
v -0.806397 0.920009 0.197538
v -0.587677 0.902226 0.121278
v -0.578692 0.912520 0.145730
v -0.798076 0.914503 0.229279
v -1.117283 0.874697 0.280061
v -0.124881 0.808379 -0.017454
v -0.611799 0.751999 -0.835503
v -0.899852 0.851720 0.125919
v -0.851775 0.809367 -0.029461
v -0.890857 0.770959 -0.179087
v -0.916431 0.764370 -0.399288
v -0.771112 0.911844 -0.300926
v -0.592489 1.038683 -0.374976
v -0.402432 0.877159 -0.619751
v -0.625953 0.918302 -0.166278
v -0.401750 1.001801 -0.381558
v -0.671207 0.832974 -0.060056
v -0.339532 0.933084 -0.348364
v -0.764311 0.817317 -0.012416
v -0.640609 0.842917 -0.100841
v -0.087763 0.586576 -0.032666
v -0.144490 0.574451 -0.042033
v -0.132687 0.628906 -0.053071
v -0.090410 0.633266 -0.025511
v -0.110307 0.580935 0.028225
v -0.160264 0.575746 0.009284
v -0.151150 0.623449 -0.002257
v -0.115221 0.621064 0.018630
v -0.106662 0.546542 -0.000873
v -0.138370 0.547205 -0.006418
v -0.088244 0.492727 -0.101251
v -0.061837 0.491634 -0.097165
v -0.067268 0.473022 -0.083489
v -0.086628 0.470928 -0.088193
v -0.085353 0.465727 -0.127895
v -0.083225 0.446349 -0.099627
v -0.052418 0.464990 -0.120741
v -0.057982 0.449475 -0.092696
v -0.142063 0.396927 0.085516
v -0.172940 0.388539 0.074150
v -0.130722 0.384059 0.074456
v -0.165109 0.375147 0.060983
v -0.185330 0.295695 0.246851
v -0.217927 0.286183 0.235137
v -0.172034 0.279338 0.236121
v -0.210701 0.270441 0.221062
v -0.173034 0.267080 0.315630
v -0.258230 0.241823 0.282362
v -0.152451 0.244540 0.294406
v -0.247083 0.217887 0.254870
v -0.215718 0.240592 0.311524
v -0.199821 0.217691 0.287171
v -0.154299 0.239357 0.328604
v -0.174397 0.257650 0.354967
v -0.217233 0.233646 0.344489
v -0.202054 0.212800 0.319461
v -0.145210 0.209322 0.349845
v -0.159543 0.211667 0.381420
v -0.200213 0.190548 0.367622
v -0.191049 0.187808 0.336545
v -0.143847 0.065388 0.367774
v -0.220502 0.194300 0.311743
v -0.279787 0.214459 0.316928
v -0.236916 0.203377 0.343242
v -0.267902 0.204071 0.281588
v -0.252328 0.159720 0.336584
v -0.239100 0.162152 0.311661
v -0.285850 0.171030 0.320686
v -0.276136 0.171040 0.292939
v -0.278712 0.034460 0.309493
v -0.180734 0.228151 0.241198
v -0.211523 0.252372 0.207324
v -0.160365 0.261168 0.218739
v -0.133576 0.210073 0.239337
v -0.158548 0.211941 0.206715
v -0.124031 0.237921 0.213062
v -0.085687 0.145579 0.248444
v -0.096264 0.885766 0.206819
v -0.021125 0.913685 0.279336
v -0.072399 0.913998 0.217635
v -0.249473 0.990336 0.199648
v 0.098107 1.174928 -0.071442
v 0.079524 1.143278 -0.006820
v 0.070916 1.123212 0.017182
v 0.061169 1.104661 0.048941
v 0.050752 1.080893 0.078549
v -0.033556 0.839023 0.263839
v -0.047717 0.797113 0.293553
v -0.020310 0.872439 0.215596
v -0.031026 0.831751 0.225496
v -0.047305 0.779097 0.247831
v -0.019288 0.866295 0.218922
v -0.004221 0.902732 0.179107
v 0.177181 1.158017 -0.056803
v 0.181485 1.121908 0.016756
v 0.084620 0.880944 0.063831
v 0.252915 1.085167 0.051334
v 0.230515 1.069274 0.079666
v 0.151378 1.063094 0.104248
v 0.234598 1.012786 0.152231
v 0.214594 1.001946 0.165961
v 0.123322 0.989138 0.171160
v 0.146795 0.962753 0.196705
v 0.109180 0.929242 0.210518
v 0.085115 0.884874 0.194133
v 0.018880 0.841389 0.272374
v -0.013975 0.791954 0.302265
v 0.101076 0.937149 0.223709
v 0.075033 0.924834 0.242711
v 0.100576 0.763744 -0.172957
v 0.179985 0.884374 0.262916
v 0.186363 0.906199 0.246504
v 0.185972 0.923321 0.264861
v 0.181560 0.897346 0.276616
v 0.202205 0.862556 0.270227
v 0.216987 0.902127 0.234117
v 0.215559 0.937401 0.270952
v 0.200756 0.898351 0.307238
v 0.227573 0.870649 0.275579
v 0.237624 0.897165 0.250940
v 0.236640 0.921471 0.276072
v 0.226588 0.894955 0.300710
v 0.112165 0.973726 0.145647
v 0.095602 0.936672 0.137515
v 0.074477 0.914962 0.137945
v 0.058870 0.851723 0.223906
v 0.059752 0.844601 0.163025
v 0.051784 0.868336 -0.139639
v 0.010510 0.823638 0.235798
v 0.004674 0.813870 0.206206
v -0.020519 0.774308 0.254740
v -0.015308 0.780955 0.228103
v 0.168214 0.872330 0.012241
v 0.041117 0.911662 0.094162
v 0.167366 1.042243 0.126274
v 0.126510 0.994595 0.125956
v 0.092381 0.736283 -0.181151
v 0.114574 0.703930 -0.178660
v 0.120953 0.640157 -0.165371
v 0.063562 0.592356 -0.156383
v 0.195703 0.909868 -0.026244
v 0.231591 0.867923 -0.010150
v 0.317162 0.849834 0.019093
v 0.334159 0.863115 -0.020410
v 0.321122 0.874372 0.010920
v 0.762927 0.900986 0.300477
v 0.546744 0.869220 0.207067
v 0.768478 0.886852 0.280237
v 0.560829 0.875231 0.177525
v 0.550287 0.886662 0.197464
v 0.758640 0.884860 0.311960
v 1.074516 0.908373 0.391239
v 0.123554 0.798233 -0.014570
v 0.678618 0.720845 -0.789045
v 0.864363 0.807090 0.211171
v 0.828211 0.741769 0.054489
v 0.880512 0.703816 -0.091898
v 0.920734 0.703655 -0.303618
v 0.786566 0.853980 -0.210591
v 0.638544 1.001809 -0.294496
v 0.486128 0.881280 -0.571749
v 0.637678 0.870308 -0.095971
v 0.462489 0.973249 -0.326759
v 0.659400 0.781806 0.004161
v 0.377703 0.914033 -0.318639
v 0.735784 0.757188 0.065768
v 0.634466 0.799028 -0.040105
v 0.087666 0.593940 -0.032172
v 0.144001 0.597433 -0.047236
v 0.130145 0.640111 -0.050642
v 0.087517 0.639528 -0.024199
v 0.110360 0.581878 0.023013
v 0.160293 0.585118 0.002146
v 0.148307 0.634359 0.004115
v 0.112450 0.628165 0.021524
v 0.108280 0.556963 -0.016186
v 0.139740 0.561921 -0.022301
v 0.091041 0.539457 -0.130423
v 0.064806 0.535626 -0.127143
v 0.071494 0.514259 -0.120279
v 0.090821 0.514517 -0.125294
v 0.089892 0.517581 -0.164899
v 0.089026 0.493635 -0.137609
v 0.057120 0.513914 -0.158288
v 0.063700 0.495116 -0.131436
v 0.147742 0.453072 0.051002
v 0.179350 0.446516 0.040473
v 0.137532 0.439190 0.040066
v 0.172722 0.432296 0.027514
v 0.194259 0.359115 0.216212
v 0.227665 0.351597 0.205023
v 0.182400 0.343931 0.204924
v 0.221882 0.335289 0.190948
v 0.181492 0.342093 0.285303
v 0.269267 0.316993 0.259575
v 0.163169 0.313687 0.267473
v 0.260514 0.287219 0.236229
v 0.225847 0.318317 0.287036
v 0.212239 0.290300 0.266083
v 0.164040 0.316689 0.301768
v 0.182593 0.339255 0.325598
v 0.227036 0.316725 0.318712
v 0.213482 0.294138 0.292383
v 0.157080 0.289269 0.329995
v 0.171635 0.297016 0.361196
v 0.213740 0.277995 0.349129
v 0.204428 0.268351 0.318764
v 0.169466 0.150890 0.376040
v 0.234162 0.272964 0.298160
v 0.291929 0.298515 0.299487
v 0.249966 0.289203 0.327626
v 0.280696 0.280387 0.266452
v 0.268592 0.245838 0.329872
v 0.254935 0.243118 0.304949
v 0.301271 0.256039 0.311419
v 0.291405 0.250462 0.284173
v 0.301471 0.119324 0.326087
v 0.194610 0.288762 0.210601
v 0.224956 0.315492 0.177512
v 0.173326 0.320341 0.185988
v 0.149029 0.267109 0.206779
v 0.175556 0.269897 0.175474
v 0.139087 0.293608 0.179273
v 0.104982 0.199308 0.215222
v 0.059789 0.853167 0.231279
v 0.046331 0.891526 0.238809
v 0.239657 0.894467 0.277335
v -0.065940 0.755713 -0.111433
v 0.068736 0.755244 -0.111499
v 0.110051 0.793918 -0.090229
v -0.107687 0.797409 -0.090948
vt 0.474247 1.000024
vt 0.432881 1.000024
vt 0.434057 0.893539
vt 0.509861 1.000024
vt 0.500227 0.768354
vt 0.559969 0.937079
vt 0.645064 0.954173
vt 0.560228 0.940601
vt 0.583639 0.999781
vt 0.500485 0.773130
vt 0.557266 0.999781
vt 0.078178 0.645053
vt 0.145329 0.600948
vt 0.009554 0.578044
vt 0.629598 0.999781
vt 0.656534 0.999781
vt 0.043058 0.667957
vt 0.009554 0.620213
vt 0.512543 0.981892
vt 0.471564 0.821771
vt 0.527454 0.989559
vt 0.480692 0.821771
vt 0.462656 0.892018
vt 0.010156 0.671319
vt 0.079997 0.644406
vt 0.044254 0.667717
vt 0.462330 0.893296
vt 0.363979 0.871999
vt 0.417906 0.999781
vt 0.180894 0.905878
vt 0.211214 0.926339
vt 0.151369 0.927184
vt 0.432105 0.999781
vt 0.359627 0.798296
vt 0.329341 0.825147
vt 0.386839 0.999781
vt 0.298881 0.891138
vt 0.380070 1.000024
vt 0.307338 1.000024
vt 0.334880 0.898555
vt 0.095969 0.432562
vt 0.010156 0.431276
vt 0.010156 0.398660
vt 0.265186 1.000024
vt 0.239898 1.000024
vt 0.239968 0.910398
vt 0.267768 0.860783
vt 0.297710 0.999781
vt 0.009554 0.431384
vt 0.093871 0.436902
vt 0.086972 0.413221
vt 0.202414 0.914836
vt 0.196688 0.802296
vt 0.184322 0.800589
vt 0.117628 0.999781
vt 0.102109 0.947707
vt 0.039265 0.964220
vt 0.191148 0.775024
vt 0.167133 0.773191
vt 0.225497 0.888506
vt 0.213084 0.801976
vt 0.224475 0.802438
vt 0.186573 0.800832
vt 0.225358 0.895351
vt 0.222224 0.802195
vt 0.819590 0.933905
vt 0.741830 1.002771
vt 0.745676 0.981737
vt 0.169384 0.773434
vt 0.219437 0.773434
vt 0.241200 0.775024
vt 0.678604 0.929671
vt 0.702745 0.932100
vt 0.798477 0.934975
vt 0.755545 0.885339
vt 0.756364 0.860805
vt 0.008395 0.999781
vt 0.050191 0.999781
vt 0.006807 0.579017
vt 0.088521 0.542699
vt 0.142997 0.606255
vt 0.106762 0.390629
vt 0.009554 0.409522
vt 0.821998 0.059350
vt 0.793626 0.064078
vt 0.821998 0.017938
vt 0.109088 0.385467
vt 0.010156 0.356430
vt 0.010156 0.294247
vt 0.164845 0.936891
vt 0.132684 0.917898
vt 0.158955 0.999781
vt 0.251493 0.999781
vt 0.121032 0.522092
vt 0.010156 0.538976
vt 0.229751 1.000024
vt 0.202874 0.960390
vt 0.297894 0.904225
vt 0.270019 0.861025
vt 0.821997 0.148207
vt 0.768986 0.140328
vt 0.781726 0.108721
vt 0.175211 1.000024
vt 0.138634 1.000024
vt 0.092576 1.000024
vt 0.033907 1.000024
vt 0.054982 0.974363
vt 0.091565 0.955891
vt 0.098755 0.966742
vt 0.006807 0.497303
vt 0.006807 0.433747
vt 0.061283 0.470065
vt 0.131496 0.917612
vt 0.004047 1.000024
vt 0.032968 0.971590
vt 0.648570 0.954416
vt 0.658785 1.000024
vt 0.609179 1.000024
vt 0.010156 0.635279
vt 0.299877 0.892636
vt 0.355604 0.794775
vt 0.202357 0.999781
vt 0.088947 0.408461
vt 0.428579 0.656093
vt 0.423662 0.696384
vt 0.468944 0.689061
vt 0.531845 0.681720
vt 0.536419 0.712644
vt 0.610352 0.692828
vt 0.102623 0.365689
vt 0.112804 0.333641
vt 0.080802 0.297116
vt 0.248096 0.339680
vt 0.277080 0.531051
vt 0.282148 0.327738
vt 0.196955 0.568250
vt 0.171694 0.589610
vt 0.275180 0.560080
vt 0.523059 0.538596
vt 0.753690 0.411864
vt 0.394870 0.237242
vt 0.280495 0.557925
vt 0.282428 0.528381
vt 0.532773 0.536061
vt 0.269459 0.553689
vt 0.519237 0.554218
vt 0.535788 0.556253
vt 0.716599 0.481061
vt 0.595223 0.398790
vt 0.437154 0.342183
vt 0.464362 0.360988
vt 0.701500 0.500488
vt 0.703680 0.484556
vt 0.526021 0.558436
vt 0.709844 0.503462
vt 0.127878 0.521223
vt 0.090830 0.544067
vt 0.505343 0.387091
vt 0.948055 0.392623
vt 0.722873 0.500303
vt 0.965311 0.387497
vt 0.008771 0.540307
vt 0.173246 0.589150
vt 0.118191 0.524020
vt 0.665937 0.364567
vt 0.539998 0.204645
vt 0.660993 0.264792
vt 0.287140 0.166653
vt 0.009554 0.494631
vt 0.009554 0.385842
vt 0.124838 0.524541
vt 0.197472 0.569937
vt 0.278223 0.559193
vt 0.280150 0.529746
vt 0.065707 0.507251
vt 0.148340 0.599519
vt 0.175172 0.587980
vt 0.469280 0.659417
vt 0.505147 0.691113
vt 0.358231 0.813259
vt 0.396762 0.861519
vt 0.463835 0.781576
vt 0.334361 0.622665
vt 0.318366 0.723370
vt 0.458201 0.720399
vt 0.455465 0.629717
vt 0.535658 0.660000
vt 0.620783 0.673963
vt 0.453440 0.629177
vt 0.584055 0.653212
vt 0.584827 0.677850
vt 0.503016 0.653376
vt 0.539342 0.629326
vt 0.620698 0.651899
vt 0.732105 0.651967
vt 0.728838 0.643284
vt 0.621615 0.624442
vt 0.632604 0.637198
vt 0.636322 0.685307
vt 0.636814 0.636255
vt 0.621290 0.624515
vt 0.619952 0.697967
vt 0.621630 0.699173
vt 0.734007 0.671131
vt 0.729414 0.682004
vt 0.844311 0.686359
vt 0.621380 0.674077
vt 0.636178 0.688381
vt 0.733584 0.644686
vt 0.849901 0.650483
vt 0.851008 0.673148
vt 0.928244 0.660805
vt 0.843633 0.637183
vt 0.730695 0.682992
vt 0.844925 0.638417
vt 0.740409 0.775706
vt 0.713106 0.780706
vt 0.704568 0.818200
vt 0.896603 0.625215
vt 0.878631 0.609036
vt 0.785632 0.738775
vt 0.737278 0.738859
vt 0.880723 0.715185
vt 0.913616 0.613223
vt 0.897236 0.601821
vt 0.730897 0.812957
vt 0.780941 0.817868
vt 0.792510 0.817868
vt 0.790023 0.778792
vt 0.898074 0.698036
vt 0.711846 0.726905
vt 0.683097 0.727238
vt 0.685751 0.762377
vt 0.965266 0.662943
vt 0.955920 0.640956
vt 0.937049 0.627702
vt 0.714789 0.764119
vt 0.941121 0.702714
vt 0.919603 0.714522
vt 0.932540 0.731689
vt 0.929544 0.592491
vt 0.912862 0.581726
vt 0.967203 0.616180
vt 0.950630 0.603144
vt 0.902827 0.726042
vt 0.957928 0.692611
vt 0.950735 0.721911
vt 0.964856 0.713499
vt 0.615440 0.761890
vt 0.984016 0.535583
vt 0.918749 0.741460
vt 0.685114 0.782002
vt 0.679087 0.810945
vt 0.847072 0.686366
vt 0.914720 0.615321
vt 0.929979 0.594898
vt 0.950087 0.605671
vt 0.608583 0.784975
vt 0.984016 0.786714
vt 0.799318 0.743667
vt 0.831117 0.767611
vt 0.823981 0.791937
vt 0.982769 0.539053
vt 0.825639 0.742255
vt 0.886191 0.771748
vt 0.391135 0.800147
vt 0.375753 0.599215
vt 0.324001 0.784547
vt 0.429296 0.757561
vt 0.279186 0.533620
vt 0.270107 0.551779
vt 0.178643 0.905635
vt 0.750796 0.933481
vt 0.821997 0.285131
vt 0.821997 0.331456
vt 0.791374 0.330169
vt 0.821998 0.110806
vt 0.821997 0.238271
vt 0.779153 0.273656
vt 0.544401 1.000024
vt 0.473816 0.822014
vt 0.821997 0.190377
vt 0.754407 0.181463
vt 0.759288 0.228469
vt 0.375409 0.872242
vt 0.334031 0.621557
vt 0.821996 0.381399
vt 0.647236 0.956984
vt 0.563654 0.943411
vt 0.541813 1.000083
vt 0.434491 1.000083
vt 0.389226 1.000083
vt 0.329218 0.822939
vt 0.586026 1.000083
vt 0.561360 0.944666
vt 0.644941 0.954474
vt 0.559653 1.000083
vt 0.500362 0.770922
vt 0.043124 0.669810
vt 0.006807 0.660730
vt 0.006807 0.624413
vt 0.658921 1.000083
vt 0.631985 1.000083
vt 0.064720 0.466534
vt 0.558639 0.973714
vt 0.530104 0.984870
vt 0.473951 0.822073
vt 0.493413 0.964305
vt 0.434192 0.893597
vt 0.295305 0.904284
vt 0.262597 1.000083
vt 0.304749 1.000083
vt 0.376800 0.873555
vt 0.178305 0.905936
vt 0.128907 0.917671
vt 0.148780 0.927242
vt 0.502657 0.770922
vt 0.507272 1.000083
vt 0.353495 1.000083
vt 0.300013 0.892694
vt 0.377481 1.000083
vt 0.332291 0.898614
vt 0.094303 0.434241
vt 0.087304 0.410219
vt 0.008771 0.400451
vt 0.237380 0.910457
vt 0.237309 1.000083
vt 0.300096 1.000083
vt 0.270155 0.861084
vt 0.006807 0.415589
vt 0.088521 0.415589
vt 0.186709 0.800890
vt 0.199074 0.802597
vt 0.204801 0.915138
vt 0.120014 1.000083
vt 0.052578 1.000083
vt 0.041652 0.964521
vt 0.169520 0.773492
vt 0.193534 0.775326
vt 0.221886 0.802496
vt 0.210495 0.802034
vt 0.222908 0.888565
vt 0.183984 0.800890
vt 0.224610 0.802496
vt 0.227744 0.895652
vt 0.818979 0.933781
vt 0.797866 0.934852
vt 0.745065 0.981613
vt 0.216848 0.773492
vt 0.166795 0.773492
vt 0.243587 0.775326
vt 0.240862 0.775326
vt 0.741219 1.002647
vt 0.702134 0.931977
vt 0.754934 0.885215
vt 0.677993 0.929547
vt 0.030379 0.971649
vt 0.004640 1.000083
vt 0.031318 1.000083
vt 0.390828 0.798355
vt 0.376482 0.598671
vt 0.336115 0.622653
vt 0.006807 0.406510
vt 0.106679 0.388351
vt 0.851059 0.063308
vt 0.457276 0.719815
vt 0.453813 0.628344
vt 0.253879 1.000083
vt 0.204744 1.000083
vt 0.225632 0.888565
vt 0.161342 1.000083
vt 0.104496 0.948009
vt 0.135070 0.918200
vt 0.167232 0.937192
vt 0.355525 0.798597
vt 0.332768 0.820429
vt 0.208625 0.926398
vt 0.267430 0.861084
vt 0.864773 0.108127
vt 0.136045 1.000083
vt 0.172622 1.000083
vt 0.052394 0.974421
vt 0.089988 1.000083
vt 0.088976 0.955950
vt 0.096166 0.966800
vt 0.606590 1.000083
vt 0.656197 1.000083
vt 0.078383 0.645391
vt 0.146502 0.600651
vt 0.008771 0.636294
vt 0.200285 0.960449
vt 0.180124 1.000083
vt 0.042758 0.668625
vt 0.008771 0.672215
vt 0.297289 0.892694
vt 0.107379 0.387301
vt 0.008771 0.358360
vt 0.428686 0.656513
vt 0.468892 0.659410
vt 0.468203 0.688038
vt 0.531875 0.681591
vt 0.621501 0.673619
vt 0.608476 0.692734
vt 0.251948 0.333875
vt 0.279186 0.324796
vt 0.279186 0.560858
vt 0.760390 0.406510
vt 0.524328 0.542699
vt 0.397217 0.234002
vt 0.532678 0.557526
vt 0.529674 0.537400
vt 0.524328 0.551779
vt 0.719149 0.501760
vt 0.712896 0.482582
vt 0.596962 0.397430
vt 0.442614 0.342954
vt 0.469852 0.361113
vt 0.714994 0.488223
vt 0.705914 0.497303
vt 0.714994 0.506382
vt 0.533407 0.560858
vt 0.185212 0.068914
vt 0.118861 0.520693
vt 0.506169 0.388351
vt 0.960135 0.388351
vt 0.960792 0.389324
vt 0.669597 0.361113
vt 0.542487 0.197685
vt 0.705914 0.097813
vt 0.669597 0.261240
vt 0.288266 0.161368
vt 0.117270 0.522284
vt 0.006807 0.379272
vt 0.198872 0.567482
vt 0.136648 0.556264
vt 0.227162 1.000083
vt 0.376585 0.873555
vt 0.431468 0.893597
vt 0.502840 0.652110
vt 0.505978 0.691525
vt 0.357939 0.812192
vt 0.429570 0.757383
vt 0.464592 0.782081
vt 0.086436 0.358292
vt 0.458958 0.720904
vt 0.335392 0.623349
vt 0.318170 0.722492
vt 0.453772 0.629519
vt 0.502319 0.652263
vt 0.535541 0.658953
vt 0.620485 0.651860
vt 0.585286 0.677959
vt 0.585036 0.653036
vt 0.537196 0.712397
vt 0.539568 0.628809
vt 0.609924 0.637981
vt 0.736240 0.644628
vt 0.738065 0.654240
vt 0.620479 0.651731
vt 0.636644 0.688789
vt 0.634341 0.636845
vt 0.620659 0.626212
vt 0.621630 0.626169
vt 0.634415 0.636711
vt 0.621747 0.698284
vt 0.637904 0.688632
vt 0.622722 0.698509
vt 0.739936 0.673088
vt 0.855011 0.675072
vt 0.848424 0.688066
vt 0.735290 0.683841
vt 0.733904 0.683902
vt 0.735955 0.644357
vt 0.853922 0.652780
vt 0.930976 0.662932
vt 0.847757 0.639699
vt 0.846770 0.687464
vt 0.844901 0.639940
vt 0.705288 0.816480
vt 0.713826 0.778987
vt 0.740720 0.773576
vt 0.882179 0.612015
vt 0.899856 0.627928
vt 0.785942 0.736645
vt 0.737589 0.736729
vt 0.901302 0.699551
vt 0.884237 0.716418
vt 0.900479 0.604918
vt 0.916589 0.616133
vt 0.731208 0.810827
vt 0.781252 0.815738
vt 0.790334 0.776663
vt 0.792820 0.815738
vt 0.685652 0.759838
vt 0.682998 0.724699
vt 0.711337 0.723956
vt 0.939637 0.630374
vt 0.958197 0.643410
vt 0.714280 0.761171
vt 0.943641 0.704152
vt 0.953097 0.723032
vt 0.935201 0.732650
vt 0.915847 0.585154
vt 0.932255 0.595743
vt 0.952994 0.606220
vt 0.969294 0.619042
vt 0.922477 0.715765
vt 0.905978 0.727096
vt 0.960172 0.694215
vt 0.966986 0.714759
vt 0.617389 0.759351
vt 0.985830 0.539770
vt 0.921638 0.742261
vt 0.680217 0.809225
vt 0.686244 0.780282
vt 0.937908 0.632033
vt 0.914075 0.616766
vt 0.799629 0.741538
vt 0.950384 0.606690
vt 0.929177 0.595962
vt 0.606845 0.782846
vt 0.985831 0.786770
vt 0.825950 0.740125
vt 0.831428 0.765482
vt 0.824292 0.789807
vt 0.983405 0.540292
vt 0.886502 0.769618
vt 0.079441 0.642572
vt 0.323805 0.783669
vt 0.434321 0.717690
vt 0.181030 0.905936
vt 0.750185 0.933357
vt 0.852619 0.330170
vt 0.864841 0.273657
vt 0.471659 1.000083
vt 0.471227 0.822073
vt 0.875009 0.140328
vt 0.884706 0.228470
vt 0.005478 0.997961
vt 0.114251 0.350647
vt 0.008771 0.296380
vt 0.128249 0.435302
vt 0.008771 0.432960
vt 0.118380 0.522092
vt 0.175368 0.588619
vt 0.080720 0.522092
vt 0.116882 0.518706
vt 0.184949 0.068196
vt 0.118473 0.523480
vt 0.062823 0.510229
vt 0.088521 0.433747
vt 0.009554 0.660973
vt 0.474881 0.981892
vt 0.498876 0.974226
vt 0.010156 0.675711
vt 0.499828 0.971670
vt 0.345428 0.798296
vt 0.351108 0.999781
vt 0.009554 0.417542
vt 0.227609 0.895594
vt 0.243451 0.775267
vt 0.115982 0.348692
vt 0.223246 0.888263
vt 0.129915 0.437866
vt 0.182713 1.000024
vt 0.326573 0.827899
vt 0.051738 0.313685
vt 0.695543 0.105347
vt 0.187334 0.073157
vt 0.119252 0.520838
vt 0.200882 0.566241
vt 0.375541 0.599880
vt 0.459519 0.720731
vt 0.609394 0.637996
vt 0.636730 0.636125
vt 0.637405 0.688736
vt 0.938273 0.630062
vt 0.434214 0.717270
vt 0.356995 0.797342
vt 0.225020 0.895652
vt 0.755753 0.860681
vt 0.008771 0.676593
vt 0.423936 0.696206
vt 0.170235 0.588096
vt 0.430293 1.000083
vt 0.396997 0.861241
vt 0.057372 0.374862
vt 0.634627 0.636963
vt 0.637990 0.688597
vt 0.967389 0.665035
vt 0.889587 0.181464
vt 0.376483 0.598964
vn -0.082700 -0.821900 -0.563500
vn 0.047400 -0.435600 -0.898900
vn -0.894400 0.313300 -0.319200
vn -0.074500 -0.796000 -0.600600
vn -0.862000 0.260400 -0.434800
vn -0.246100 0.457800 -0.854300
vn -0.717500 0.313300 -0.622200
vn 0.175400 0.943000 0.282800
vn 0.142900 0.921100 0.362100
vn -0.595100 0.284000 0.751800
vn -0.615600 -0.043100 0.786800
vn -0.030000 -0.665900 0.745400
vn 0.198200 0.961300 0.191300
vn 0.226400 0.197200 -0.953900
vn -0.988900 -0.103500 0.106900
vn -0.023200 -0.404500 0.914200
vn -0.941500 -0.209200 0.264200
vn 0.068500 0.774800 0.628400
vn 0.038300 0.991900 0.120800
vn -0.109200 0.714000 -0.691500
vn 0.066400 0.773600 0.630200
vn -0.946300 -0.223600 -0.233600
vn -0.782300 -0.287200 -0.552800
vn -0.640400 -0.385900 -0.664000
vn -0.871600 0.388400 -0.298900
vn -0.854700 -0.211200 0.474100
vn 0.002400 0.589200 0.807900
vn -0.752000 0.585900 0.301900
vn 0.142000 -0.074600 -0.987000
vn 0.068200 -0.355300 -0.932200
vn -0.434600 -0.489900 -0.755700
vn -0.989900 -0.044300 -0.134600
vn 0.004200 0.412200 -0.911100
vn 0.006200 0.287300 -0.957800
vn 0.086200 0.062300 -0.994300
vn 0.097700 0.475400 -0.874300
vn -0.671500 -0.133100 -0.728900
vn -0.907200 0.420500 -0.009600
vn 0.035200 0.711400 0.701900
vn 0.006700 -0.867000 0.498200
vn -0.968800 0.247600 0.011000
vn -0.492200 0.101100 0.864600
vn 0.320700 -0.160800 0.933400
vn 0.153800 -0.979800 -0.128000
vn -0.044400 0.552000 0.832600
vn -0.974600 -0.211700 -0.073100
vn -0.925800 -0.274600 -0.259700
vn -0.054400 -0.140000 0.988600
vn -0.171100 -0.978800 -0.112200
vn -0.809700 0.130300 -0.572200
vn 0.344400 0.084500 -0.935000
vn 0.522400 0.829400 0.197700
vn -0.268700 0.742900 0.613100
vn 0.268300 0.955600 0.121400
vn -0.506200 0.861500 0.038200
vn 0.168200 0.092100 -0.981400
vn -0.576300 0.221600 -0.786600
vn -0.738100 0.094800 0.668000
vn -0.821700 -0.546800 -0.160400
vn -0.183300 -0.978500 -0.094100
vn -0.174200 0.047300 0.983600
vn 0.788800 -0.601300 0.127100
vn 0.590700 -0.132500 0.796000
vn -0.852100 0.465100 -0.239900
vn -0.009900 0.401500 0.915800
vn -0.057100 0.658900 0.750100
vn -0.936800 -0.037500 0.347800
vn -0.299300 -0.390900 0.870400
vn 0.017100 0.068700 -0.997500
vn 0.015000 -0.525500 -0.850600
vn -0.785400 0.148200 0.600900
vn -0.913600 -0.382300 -0.138100
vn -0.074600 0.448800 0.890500
vn -0.026200 0.560200 0.827900
vn -0.725700 0.088100 -0.682300
vn 0.027000 0.727900 -0.685100
vn -0.028700 0.946700 -0.320900
vn -0.676700 -0.112200 -0.727600
vn -0.070400 0.563900 0.822800
vn -0.862400 0.093500 0.497500
vn -0.838000 0.008500 0.545500
vn 0.031500 -0.596200 -0.802200
vn 0.017700 -0.673800 -0.738600
vn 0.025500 -0.751100 -0.659600
vn -0.054600 -0.874900 -0.481100
vn -0.653200 -0.429800 -0.623400
vn -0.625400 -0.595200 -0.504500
vn -0.017900 -0.972000 0.234500
vn 0.702500 -0.711300 0.022400
vn -0.137800 -0.901200 -0.411000
vn 0.047800 0.997800 0.045900
vn -0.083900 0.406400 0.909800
vn 0.452100 0.668800 0.590200
vn -0.772000 0.633700 0.047700
vn -0.726100 0.640000 0.251400
vn -0.601300 -0.719600 0.347300
vn -0.856600 -0.257700 -0.447000
vn -0.580400 0.349000 -0.735700
vn 0.058800 -0.961100 -0.269900
vn -0.205000 -0.935300 -0.288400
vn -0.659300 -0.717300 0.225300
vn -0.222400 -0.812000 -0.539600
vn -0.459500 -0.879700 0.122300
vn 0.045800 -0.627900 0.776900
vn -0.266800 0.961500 0.065100
vn 0.081100 0.909100 0.408500
vn -0.153400 -0.961500 -0.228000
vn 0.183700 -0.872200 0.453400
vn 0.040900 -0.980800 -0.190400
vn 0.296400 -0.756300 0.583200
vn 0.290200 -0.612800 0.735000
vn 0.229700 0.906400 0.354400
vn -0.029200 -0.990400 -0.134600
vn 0.143900 -0.958400 0.246400
vn 0.333200 -0.755400 -0.564200
vn 0.326400 -0.877900 -0.350300
vn 0.216400 -0.498300 0.839500
vn 0.023500 0.959400 0.280800
vn -0.826000 -0.544700 0.145200
vn 0.197500 -0.980000 -0.024200
vn 0.238500 -0.844200 0.479900
vn 0.299700 0.945300 0.129000
vn 0.733700 0.109700 -0.670500
vn 0.038400 -0.966500 0.253700
vn 0.636800 -0.538400 -0.551800
vn 0.240400 -0.969800 0.042100
vn -0.690900 0.718900 0.076100
vn -0.014800 0.507000 0.861800
vn -0.110300 -0.650200 0.751700
vn -0.093400 0.918200 0.384900
vn 0.212500 -0.831500 -0.513100
vn -0.895000 -0.222700 -0.386500
vn 0.246600 0.590900 0.768100
vn -0.858900 -0.226600 0.459200
vn -0.782800 -0.320600 -0.533300
vn 0.922100 -0.267900 0.279100
vn 0.444500 -0.551700 0.705700
vn -0.994100 -0.022600 0.106000
vn 0.832000 0.484200 -0.270700
vn 0.378500 -0.143400 0.914400
vn 0.779000 0.112300 0.616800
vn 0.271500 0.805900 0.526100
vn 0.906800 -0.403700 0.121300
vn 0.775700 -0.084600 -0.625400
vn 0.845600 -0.533600 0.010900
vn -0.470900 -0.746300 -0.470400
vn -0.481600 -0.087100 -0.872000
vn -0.862100 0.505000 -0.042300
vn -0.448500 -0.675300 -0.585500
vn -0.627000 -0.236700 -0.742100
vn 0.196200 0.862100 0.467200
vn -0.801100 0.597700 0.031200
vn -0.519000 0.643500 0.562700
vn 0.983500 0.161300 -0.082200
vn 0.406700 -0.878000 -0.252400
vn 0.843200 -0.537500 -0.009900
vn -0.570600 -0.274900 -0.773900
vn 0.222400 0.932300 0.285200
vn 0.961200 -0.207100 -0.181900
vn -0.355400 -0.526400 -0.772400
vn 0.124200 0.809500 0.573700
vn 0.993000 0.047500 -0.107600
vn -0.794500 -0.067100 -0.603500
vn -0.066200 -0.852900 0.517800
vn -0.752700 0.658100 -0.016600
vn 0.964800 0.044700 -0.259300
vn -0.393200 -0.510300 -0.764800
vn -0.436700 -0.801000 -0.409600
vn -0.913400 0.231700 0.334700
vn 0.276000 0.140400 0.950800
vn -0.815100 0.465400 0.345100
vn -0.922400 0.030900 0.385000
vn 0.347100 0.269200 0.898300
vn -0.812700 -0.204800 0.545500
vn 0.258700 -0.243700 0.934700
vn 0.870100 -0.365200 -0.330900
vn 0.223600 -0.972100 0.069900
vn -0.449200 -0.127700 -0.884200
vn 0.654600 0.687600 -0.314200
vn 0.737800 0.570300 -0.361100
vn -0.273000 -0.625900 -0.730500
vn -0.118800 -0.991900 -0.045400
vn -0.054900 -0.014800 0.998400
vn 0.557100 -0.779900 0.285300
vn 0.020600 -0.861900 0.506700
vn -0.357200 -0.769400 0.529500
vn -0.969600 0.226100 -0.093600
vn -0.012900 -0.705600 -0.708500
vn 0.097200 -0.368400 -0.924600
vn -0.169300 0.357400 0.918500
vn -0.073700 -0.813000 -0.577600
vn -0.094100 -0.826100 -0.555500
vn -0.711700 -0.477800 0.515000
vn 0.930600 -0.079300 -0.357300
vn 0.641000 0.196300 -0.742000
vn 0.520500 -0.510900 0.684100
vn 0.981500 -0.122500 -0.147000
vn 0.988300 -0.095500 -0.118500
vn -0.034400 -0.998800 -0.033900
vn -0.707800 -0.705000 0.043800
vn 0.662500 -0.544100 0.514800
vn 0.074300 0.770700 0.632800
vn 0.992100 -0.111500 -0.057100
vn 0.727600 -0.409500 -0.550300
vn 0.567400 0.550200 -0.612500
vn 0.831600 -0.555300 -0.009900
vn 0.607100 -0.145500 0.781200
vn 0.610300 -0.670600 -0.421600
vn 0.073500 0.775300 0.627300
vn 0.841700 0.216000 0.494800
vn 0.386400 -0.677400 -0.625900
vn 0.989200 -0.046700 -0.138800
vn 0.977800 0.209400 0.011400
vn 0.697000 -0.383800 -0.605700
vn 0.966100 0.022900 0.257100
vn 0.000400 0.130100 0.991500
vn -0.479700 -0.871400 -0.102700
vn -0.690900 -0.127600 0.711600
vn 0.240800 -0.001200 0.970500
vn 0.777300 -0.626200 0.059700
vn -0.219100 -0.974900 -0.039400
vn -0.315800 0.001300 0.948800
vn -0.335000 0.936700 0.101400
vn 0.004500 0.084000 -0.996400
vn 0.915600 -0.212800 -0.341000
vn 0.354400 0.619000 0.700800
vn 0.499600 -0.114000 0.858700
vn 0.776000 0.604100 0.181300
vn 0.170000 0.034400 -0.984800
vn 0.109200 0.993700 0.026200
vn 0.808700 -0.119700 -0.575900
vn 0.538000 -0.836400 0.104800
vn 0.585000 -0.346400 0.733300
vn 0.292300 -0.917300 -0.270200
vn 0.851700 0.475300 -0.220400
vn 0.911700 -0.087600 -0.401300
vn -0.888500 -0.301800 0.345500
vn 0.786700 -0.558900 0.262100
vn 0.660700 -0.737600 0.139500
vn 0.536500 -0.157000 0.829200
vn 0.999900 -0.006200 -0.008500
vn 0.660700 -0.596600 -0.455400
vn 0.448000 -0.197100 0.872000
vn 0.660800 -0.691500 -0.291500
vn 0.525500 -0.820700 -0.224300
vn 0.588300 0.262400 0.764900
vn -0.518800 0.631900 0.575800
vn -0.288700 0.473800 0.831900
vn 0.658500 0.643900 0.389500
vn 0.648500 -0.755000 0.097200
vn 0.999400 0.019900 -0.027600
vn 0.522500 0.624500 -0.580400
vn 0.497500 -0.825600 0.266200
vn 0.341000 -0.934000 0.106000
vn -0.208500 -0.805400 0.554900
vn 0.172900 -0.958100 -0.228200
vn -0.072700 -0.965600 -0.249600
vn -0.223200 0.941800 0.251400
vn -0.420000 -0.551400 0.720800
vn -0.109300 0.979500 0.169300
vn 0.059100 -0.998200 -0.005200
vn -0.268300 -0.912900 0.307400
vn -0.341900 -0.681500 -0.646900
vn -0.361200 -0.813200 -0.456300
vn -0.277100 -0.449400 0.849200
vn -0.882100 0.246200 0.401500
vn -0.289800 -0.950600 -0.111200
vn -0.165200 -0.756000 0.633300
vn -0.122600 -0.948500 0.291900
vn -0.633900 -0.421900 -0.648200
vn -0.593400 -0.704200 -0.389800
vn -0.338100 -0.940700 -0.026000
vn 0.880500 0.278000 0.383900
vn -0.333100 -0.394200 0.856500
vn 0.874000 -0.300200 0.382200
vn 0.806700 -0.297700 -0.510500
vn 0.688400 0.721600 0.072800
vn -0.360500 -0.794000 0.489400
vn -0.845000 -0.031900 0.533800
vn -0.846500 0.515600 -0.132300
vn -0.879200 -0.462100 0.115600
vn -0.336100 0.804100 0.490300
vn 0.513000 -0.702600 -0.493100
vn -0.802000 -0.596000 -0.038900
vn -0.762800 -0.017100 -0.646400
vn 0.479800 0.096800 -0.872000
vn 0.823500 0.565600 -0.043400
vn 0.766500 0.642000 -0.016100
vn 0.682800 -0.228400 -0.693900
vn 0.505500 -0.659200 -0.556600
vn -0.258600 0.890500 0.374300
vn 0.446100 0.766100 0.462600
vn -0.992100 0.068500 -0.105000
vn 0.600200 -0.394900 -0.695500
vn -0.810600 -0.577600 0.096600
vn -0.357000 -0.930400 -0.082600
vn -0.926700 -0.336300 -0.167300
vn -0.295400 0.948700 0.112700
vn 0.718700 0.684400 -0.122500
vn 0.409900 -0.634900 -0.654800
vn -0.992700 -0.022800 -0.118400
vn -0.183200 0.884600 0.428900
vn 0.178200 -0.776700 0.604100
vn 0.828100 -0.019600 -0.560200
vn 0.413300 -0.620500 -0.666400
vn -0.970900 -0.073100 -0.227900
vn 0.898900 0.340300 0.276100
vn 0.466100 -0.860300 -0.206300
vn -0.296600 0.310300 0.903200
vn -0.235800 -0.069000 0.969300
vn 0.920100 0.161000 0.357100
vn -0.352900 0.396800 0.847300
vn 0.839000 -0.031700 0.543300
vn 0.774100 0.582400 0.248200
vn -0.845400 -0.480400 -0.233300
vn -0.130200 -0.954800 0.267200
vn 0.460400 -0.266900 -0.846600
vn -0.706000 0.593600 -0.386200
vn 0.359900 -0.624300 -0.693400
vn -0.758200 0.502300 -0.415600
vn 0.172100 -0.975300 0.138500
vn 0.001400 0.012100 0.999900
vn -0.517500 -0.809600 0.276800
vn 0.962800 -0.177700 0.203700
vn 0.799300 -0.163200 0.578300
vn 0.909800 -0.195800 -0.365900
vn 0.557900 -0.768400 -0.313400
s 1
f 181/1/1 182/2/2 14/3/3
f 180/4/4 9/5/5 4/6/6
f 3/7/7 4/8/6 7/9/8
f 4/8/6 9/10/5 8/11/9
f 6/12/10 73/13/11 57/14/12
f 3/7/7 5/15/13 1/16/14
f 76/17/15 6/12/10 10/18/16
f 8/19/9 9/10/5 12/20/17
f 11/21/18 12/22/17 14/23/3
f 15/24/19 6/25/10 76/26/15
f 14/27/3 77/28/20 16/29/21
f 32/30/22 61/31/23 64/32/24
f 16/33/21 17/34/25 20/35/26
f 19/36/27 20/35/26 23/37/28
f 18/38/29 21/39/30 78/40/31
f 42/41/32 58/42/33 79/43/34
f 24/44/35 27/45/36 60/46/37
f 23/37/28 26/47/38 25/48/39
f 41/49/40 42/50/32 80/51/41
f 40/52/42 47/53/43 44/54/44
f 33/55/45 34/56/46 37/57/47
f 47/53/43 51/58/48 48/59/49
f 29/60/50 45/61/51 46/62/52
f 29/60/50 32/30/22 44/63/44
f 39/64/53 46/65/52 47/53/43
f 51/66/48 50/67/54 54/68/55
f 44/63/44 48/69/49 49/70/56
f 46/65/52 50/71/54 51/58/48
f 46/62/52 45/61/51 49/70/56
f 50/67/54 49/72/56 53/73/57
f 51/66/48 55/74/58 52/75/59
f 49/72/56 48/76/49 52/75/59
f 37/57/47 38/77/60 36/78/61
f 57/79/12 249/80/62 229/81/63
f 80/51/41 82/82/64 81/83/65
f 187/84/66 71/85/67 70/86/68
f 82/87/64 83/88/69 86/89/70
f 176/90/71 174/91/72 175/92/73
f 28/93/74 39/64/53 40/52/42
f 26/47/38 39/64/53 25/48/39
f 175/92/73 174/91/72 34/56/46
f 66/94/75 56/95/76 58/42/33
f 27/45/36 74/96/77 76/97/15
f 60/46/37 61/31/23 29/60/50
f 59/98/78 60/46/37 26/99/38
f 29/60/50 61/31/23 32/30/22
f 185/100/79 62/101/80 67/102/81
f 30/103/82 63/104/83 64/32/24
f 65/105/84 69/106/85 72/107/86
f 67/108/81 68/109/87 72/107/86
f 35/110/88 41/111/40 325/112/89
f 62/113/80 64/32/24 68/109/87
f 63/104/83 65/105/84 68/109/87
f 69/106/85 70/114/68 71/115/67
f 3/116/7 1/117/14 178/118/90
f 6/25/10 15/24/19 2/119/91
f 61/31/23 60/46/37 76/97/15
f 30/103/82 61/31/23 76/97/15
f 21/39/30 24/44/35 59/98/78
f 78/40/31 59/98/78 23/120/28
f 17/121/25 18/38/29 78/40/31
f 31/122/92 40/52/42 176/90/71
f 80/123/41 79/43/34 83/88/69
f 120/124/93 119/125/94 123/126/95
f 126/127/96 118/128/97 127/129/98
f 86/130/70 89/131/99 88/132/100
f 114/133/101 93/134/102 112/135/103
f 91/136/104 90/137/105 94/138/106
f 93/134/102 98/139/107 104/140/108
f 112/135/103 93/134/102 109/141/109
f 94/142/106 93/143/102 98/144/107
f 92/145/110 96/146/111 98/139/107
f 99/147/112 98/144/107 97/148/113
f 93/134/102 104/140/108 115/149/114
f 111/150/115 93/134/102 116/151/116
f 96/146/111 100/152/117 97/153/113
f 99/154/112 95/155/118 100/152/117
f 73/13/11 66/156/75 102/157/119
f 93/134/102 113/158/120 116/151/116
f 100/152/117 95/155/118 101/159/121
f 95/160/118 97/148/113 101/161/121
f 97/153/113 100/152/117 101/159/121
f 94/138/106 99/154/112 96/146/111
f 98/139/107 97/153/113 104/140/108
f 56/162/76 237/163/122 224/164/123
f 97/153/113 101/159/121 104/140/108
f 104/140/108 105/165/124 115/149/114
f 108/166/125 111/150/115 116/151/116
f 116/151/116 113/158/120 106/167/126
f 110/168/127 112/135/103 109/141/109
f 115/149/114 105/165/124 106/167/126
f 114/133/101 112/135/103 110/168/127
f 108/166/125 109/141/109 111/150/115
f 57/14/12 73/13/11 102/157/119
f 35/169/88 57/14/12 102/157/119
f 81/83/65 82/82/64 84/170/128
f 109/141/109 93/134/102 111/150/115
f 93/134/102 115/149/114 113/158/120
f 224/171/123 238/172/129 229/81/63
f 237/163/122 241/173/130 240/174/131
f 66/156/75 327/175/132 102/157/119
f 73/176/11 2/119/91 90/177/105
f 124/178/133 123/126/95 122/179/134
f 85/180/135 88/181/100 118/182/97
f 84/183/128 82/184/64 120/124/93
f 118/185/97 122/179/134 123/126/95
f 84/183/128 120/124/93 117/186/136
f 117/186/136 120/124/93 124/178/133
f 125/187/137 126/127/96 130/188/138
f 117/189/136 128/190/139 127/191/98
f 126/127/96 125/187/137 121/192/140
f 122/179/134 118/128/97 126/127/96
f 117/193/136 125/187/137 129/194/141
f 129/194/141 135/195/142 137/196/143
f 117/193/136 121/192/140 125/187/137
f 133/197/144 134/198/145 132/199/146
f 129/194/141 134/200/145 133/201/144
f 128/190/139 133/197/144 131/202/147
f 130/188/138 127/129/98 131/203/147
f 136/204/148 138/205/149 142/206/150
f 130/207/138 136/204/148 135/195/142
f 130/207/138 132/208/146 138/205/149
f 132/199/146 134/198/145 137/209/143
f 139/210/151 140/211/152 147/212/153
f 136/204/148 140/211/152 139/210/151
f 135/195/142 139/210/151 141/213/154
f 138/214/149 137/209/143 141/215/154
f 148/216/155 158/217/156 161/218/157
f 139/210/151 143/219/158 145/220/159
f 141/221/154 145/222/159 148/216/155
f 140/211/152 142/206/150 146/223/160
f 143/219/158 150/224/161 149/225/162
f 146/226/160 142/227/150 148/216/155
f 142/227/150 168/228/163 167/229/164
f 140/211/152 144/230/165 147/212/153
f 143/219/158 139/210/151 147/212/153
f 149/231/162 153/232/166 156/233/167
f 147/212/153 148/234/155 152/235/168
f 147/212/153 151/236/169 150/224/161
f 145/222/159 149/231/162 152/237/168
f 160/238/170 159/239/171 164/240/172
f 150/224/161 154/241/173 153/242/166
f 151/236/169 152/235/168 156/243/167
f 151/236/169 155/244/174 154/241/173
f 147/212/153 144/230/165 159/239/171
f 144/230/165 146/223/160 161/245/157
f 147/212/153 160/238/170 158/246/156
f 160/238/170 162/247/175 163/248/176
f 156/233/167 153/232/166 157/249/177
f 153/242/166 154/241/173 157/250/177
f 155/244/174 156/243/167 157/250/177
f 154/241/173 155/244/174 157/250/177
f 159/239/171 161/245/157 165/251/178
f 158/217/156 163/252/176 165/253/178
f 142/254/150 141/215/154 169/255/179
f 141/221/154 148/216/155 167/229/164
f 169/255/179 172/256/180 171/257/181
f 165/253/178 163/252/176 166/258/182
f 163/248/176 162/247/175 166/259/182
f 162/247/175 164/240/172 166/259/182
f 164/240/172 165/251/178 166/259/182
f 169/260/179 167/229/164 170/261/183
f 167/229/164 168/228/163 171/262/181
f 171/257/181 172/256/180 173/263/184
f 172/264/180 170/261/183 173/265/184
f 170/261/183 171/262/181 173/265/184
f 88/266/100 87/267/185 117/189/136
f 82/268/64 85/180/135 119/269/94
f 240/270/131 239/271/186 238/172/129
f 40/52/42 32/272/22 176/90/71
f 176/90/71 32/272/22 174/91/72
f 54/68/55 53/73/57 177/273/187
f 53/73/57 52/75/59 177/273/187
f 52/75/59 55/74/58 177/273/187
f 55/74/58 54/68/55 177/273/187
f 183/274/188 184/275/189 37/276/47
f 71/85/67 187/84/66 186/277/190
f 188/278/191 183/274/188 34/279/46
f 3/116/7 178/118/90 179/280/192
f 180/4/4 181/1/1 12/281/17
f 189/282/193 32/283/22 62/101/80
f 189/282/193 188/278/191 174/284/72
f 18/38/29 17/121/25 77/285/20
f 88/266/100 89/286/99 87/267/185
f 37/276/47 184/275/189 38/287/60
f 190/288/194 191/289/195 179/290/192
f 16/291/21 19/292/27 197/293/196
f 7/294/8 191/295/195 190/296/194
f 8/297/9 193/298/197 191/295/195
f 230/299/198 75/300/199 10/301/16
f 190/296/194 1/302/14 5/303/13
f 327/175/132 66/156/75 324/304/200
f 8/305/9 11/306/18 194/307/201
f 11/306/18 13/308/202 195/309/203
f 219/310/204 24/311/35 21/312/30
f 16/291/21 231/313/205 195/309/203
f 201/314/206 222/315/207 223/316/208
f 191/289/195 193/317/197 180/318/4
f 19/292/27 22/319/209 198/320/210
f 18/321/29 232/322/211 21/312/30
f 206/323/212 233/324/213 79/325/34
f 220/326/214 27/327/36 24/311/35
f 25/328/39 199/329/215 198/320/210
f 41/111/40 43/330/216 233/331/213
f 207/332/217 210/333/218 205/334/219
f 33/335/45 36/336/61 203/337/220
f 211/338/221 214/339/222 210/333/218
f 209/340/223 208/341/224 200/342/225
f 200/342/225 208/341/224 207/343/217
f 210/333/218 209/344/223 204/345/226
f 214/346/222 218/347/227 217/348/228
f 212/349/229 211/350/221 207/343/217
f 214/339/222 213/351/230 209/344/223
f 209/340/223 213/352/230 212/349/229
f 213/353/230 217/348/228 216/354/231
f 215/355/232 218/347/227 214/346/222
f 212/356/229 216/354/231 215/355/232
f 227/357/233 70/358/68 69/359/85
f 236/360/234 87/361/185 89/362/99
f 81/363/65 234/364/235 233/331/213
f 187/84/66 70/86/68 227/365/233
f 236/360/234 265/366/236 264/367/237
f 28/368/74 31/369/92 205/334/219
f 204/345/226 200/370/225 199/329/215
f 175/371/73 33/335/45 202/372/238
f 175/371/73 321/373/239 322/374/240
f 196/375/241 197/376/196 232/322/211
f 200/342/225 221/377/242 220/326/214
f 199/378/215 220/326/214 219/310/204
f 200/342/225 201/314/206 221/377/242
f 185/100/79 186/277/190 225/379/243
f 223/316/208 63/380/83 30/381/82
f 228/382/244 69/359/85 65/383/84
f 225/384/243 227/357/233 228/382/244
f 222/315/207 225/384/243 226/385/245
f 226/385/245 65/383/84 63/380/83
f 186/277/190 187/84/66 227/365/233
f 190/288/194 178/386/90 1/387/14
f 192/388/246 229/389/63 2/390/91
f 221/377/242 230/391/198 220/326/214
f 30/381/82 75/392/199 230/391/198
f 230/393/198 192/388/246 15/394/19
f 198/395/210 219/310/204 232/322/211
f 31/369/92 322/374/240 205/334/219
f 233/324/213 234/396/235 83/397/69
f 267/398/247 271/399/248 270/400/249
f 273/401/250 277/402/251 274/403/252
f 261/404/253 259/405/254 240/270/131
f 238/172/129 239/271/186 241/406/130
f 240/270/131 251/407/255 245/408/256
f 259/405/254 256/409/257 240/270/131
f 241/173/130 246/410/258 245/411/256
f 245/408/256 243/412/259 239/271/186
f 246/410/258 242/413/260 244/414/261
f 240/270/131 262/415/262 251/407/255
f 258/416/263 263/417/264 240/270/131
f 244/418/261 247/419/265 243/412/259
f 247/419/265 242/420/260 246/421/258
f 103/422/266 66/423/75 114/133/101
f 240/270/131 263/417/264 260/424/267
f 247/419/265 248/425/268 242/420/260
f 242/413/260 248/426/268 244/414/261
f 244/418/261 248/425/268 247/419/265
f 243/412/259 246/421/258 241/406/130
f 245/408/256 251/407/255 244/418/261
f 244/418/261 251/407/255 248/425/268
f 251/407/255 262/415/262 252/427/269
f 255/428/270 254/429/271 263/417/264
f 263/417/264 254/429/271 253/430/272
f 257/431/273 256/409/257 259/405/254
f 262/415/262 260/424/267 253/430/272
f 257/431/273 259/405/254 261/404/253
f 255/428/270 258/416/263 256/409/257
f 66/432/75 93/134/102 114/133/101
f 81/363/65 84/433/128 234/364/235
f 256/409/257 258/416/263 240/270/131
f 240/270/131 260/424/267 262/415/262
f 229/389/63 238/434/129 237/435/122
f 230/391/198 74/436/77 27/327/36
f 231/437/205 18/321/29 195/438/203
f 271/399/248 268/439/274 269/440/275
f 235/441/276 266/442/277 265/443/236
f 236/444/234 89/131/99 86/130/70
f 270/400/249 269/440/275 265/445/236
f 84/446/128 267/398/247 234/447/235
f 264/448/237 268/449/274 271/399/248
f 272/450/278 276/451/279 277/402/251
f 274/452/252 275/453/280 264/367/237
f 273/401/250 269/440/275 268/439/274
f 269/440/275 273/401/250 265/454/236
f 264/455/237 275/456/280 276/451/279
f 284/457/281 282/458/282 276/459/279
f 264/455/237 272/450/278 268/439/274
f 279/460/283 281/461/284 280/462/285
f 280/463/285 281/464/284 276/451/279
f 278/465/286 280/462/285 275/453/280
f 277/402/251 279/466/283 278/467/286
f 283/468/287 287/469/288 289/470/289
f 282/458/282 283/468/287 277/402/251
f 277/402/251 283/468/287 285/471/290
f 279/460/283 285/472/290 284/473/281
f 286/474/291 294/475/292 287/469/288
f 286/474/291 287/469/288 283/468/287
f 288/476/293 286/474/291 282/458/282
f 285/472/290 289/477/289 288/478/293
f 308/479/294 305/480/295 295/481/296
f 292/482/297 290/483/298 286/474/291
f 288/484/293 295/481/296 292/485/297
f 287/469/288 291/486/299 293/487/300
f 296/488/301 297/489/302 290/483/298
f 293/490/300 295/481/296 289/491/289
f 314/492/303 315/493/304 289/491/289
f 287/469/288 294/475/292 291/486/299
f 290/483/298 294/475/292 286/474/291
f 303/494/305 300/495/306 296/496/301
f 294/475/292 298/497/307 299/498/308
f 297/489/302 298/497/307 294/475/292
f 299/499/308 296/496/301 292/485/297
f 307/500/309 309/501/310 311/502/311
f 300/503/306 301/504/312 297/489/302
f 298/497/307 302/505/313 303/506/305
f 301/504/312 302/505/313 298/497/307
f 294/475/292 307/500/309 306/507/314
f 291/486/299 306/507/314 308/508/294
f 305/509/295 307/500/309 294/475/292
f 310/510/315 309/501/310 307/500/309
f 303/494/305 304/511/316 300/495/306
f 300/503/306 304/512/316 301/504/312
f 302/505/313 304/512/316 303/506/305
f 301/504/312 304/512/316 302/505/313
f 306/507/314 311/502/311 312/513/317
f 312/514/317 310/515/315 305/480/295
f 289/477/289 315/516/304 316/517/318
f 288/484/293 316/518/318 314/492/303
f 318/519/319 319/520/320 316/517/318
f 312/514/317 313/521/321 310/515/315
f 310/510/315 313/522/321 309/501/310
f 309/501/310 313/522/321 311/502/311
f 311/502/311 313/522/321 312/513/317
f 316/518/318 319/523/320 317/524/322
f 314/492/303 317/524/322 318/525/319
f 318/519/319 320/526/323 319/520/320
f 319/523/320 320/527/323 317/524/322
f 317/524/322 320/527/323 318/525/319
f 57/79/12 229/81/63 192/528/246
f 234/529/235 267/530/247 266/442/277
f 205/334/219 322/374/240 201/531/206
f 322/374/240 321/373/239 201/531/206
f 217/348/228 323/532/324 216/354/231
f 216/354/231 323/532/324 215/355/232
f 215/355/232 323/532/324 218/347/227
f 218/347/227 323/532/324 217/348/228
f 203/533/220 184/275/189 183/274/188
f 202/534/238 183/274/188 188/278/191
f 181/535/1 194/536/201 195/438/203
f 194/536/201 181/535/1 180/318/4
f 189/282/193 185/100/79 222/537/207
f 321/538/239 188/278/191 189/282/193
f 203/337/220 36/336/61 38/539/60
f 264/448/237 267/398/247 84/446/128
f 203/533/220 38/287/60 184/275/189
f 234/396/235 235/540/276 86/541/70
f 224/164/123 206/542/212 58/543/33
f 91/136/104 92/145/110 93/134/102
f 2/119/91 56/95/76 90/177/105
f 90/177/105 66/544/75 93/143/102
f 2/390/91 237/545/122 56/162/76
f 66/156/75 73/13/11 91/136/104
f 56/95/76 66/546/75 90/177/105
f 224/547/123 261/404/253 240/270/131
f 250/548/325 261/404/253 224/549/123
f 229/81/63 249/80/62 224/171/123
f 249/80/62 35/110/88 326/550/326
f 35/110/88 249/80/62 57/79/12
f 66/156/75 42/50/32 324/304/200
f 42/50/32 41/49/40 324/304/200
f 41/49/40 35/169/88 324/304/200
f 41/111/40 206/551/212 325/112/89
f 206/551/212 224/171/123 325/112/89
f 326/550/326 35/110/88 325/112/89
f 224/171/123 249/80/62 326/550/326
f 224/171/123 326/550/326 325/112/89
f 35/169/88 327/175/132 324/304/200
f 327/175/132 35/169/88 102/157/119
f 12/281/17 181/1/1 14/3/3
f 179/280/192 180/4/4 4/6/6
f 5/15/13 3/7/7 7/9/8
f 7/9/8 4/8/6 8/11/9
f 10/18/16 6/12/10 57/14/12
f 75/552/199 76/17/15 10/18/16
f 11/553/18 8/19/9 12/20/17
f 13/554/202 11/21/18 14/23/3
f 74/555/77 15/24/19 76/26/15
f 16/29/21 13/556/202 14/27/3
f 77/28/20 17/557/25 16/29/21
f 62/113/80 32/30/22 64/32/24
f 19/36/27 16/33/21 20/35/26
f 22/558/209 19/36/27 23/37/28
f 80/123/41 42/41/32 79/43/34
f 59/98/78 24/44/35 60/46/37
f 22/558/209 23/37/28 25/48/39
f 43/559/216 41/49/40 80/51/41
f 32/272/22 40/52/42 44/54/44
f 36/78/61 33/55/45 37/57/47
f 44/54/44 47/53/43 48/59/49
f 39/560/53 29/60/50 46/62/52
f 45/61/51 29/60/50 44/63/44
f 40/52/42 39/64/53 47/53/43
f 55/74/58 51/66/48 54/68/55
f 45/61/51 44/63/44 49/70/56
f 47/53/43 46/65/52 51/58/48
f 50/561/54 46/62/52 49/70/56
f 54/68/55 50/67/54 53/73/57
f 48/76/49 51/66/48 52/75/59
f 53/73/57 49/72/56 52/75/59
f 43/559/216 80/51/41 81/83/65
f 85/562/135 82/87/64 86/89/70
f 31/122/92 176/90/71 175/92/73
f 31/122/92 28/93/74 40/52/42
f 28/93/74 25/48/39 39/64/53
f 26/47/38 29/563/50 39/64/53
f 33/55/45 175/92/73 34/56/46
f 42/564/32 66/94/75 58/42/33
f 60/46/37 27/45/36 76/97/15
f 26/99/38 60/46/37 29/60/50
f 23/120/28 59/98/78 26/99/38
f 186/277/190 185/100/79 67/102/81
f 61/31/23 30/103/82 64/32/24
f 68/109/87 65/105/84 72/107/86
f 71/115/67 67/108/81 72/107/86
f 67/108/81 62/113/80 68/109/87
f 64/32/24 63/104/83 68/109/87
f 72/107/86 69/106/85 71/115/67
f 73/176/11 6/25/10 2/119/91
f 75/565/199 30/103/82 76/97/15
f 78/40/31 21/39/30 59/98/78
f 20/566/26 78/40/31 23/120/28
f 20/566/26 17/121/25 78/40/31
f 82/87/64 80/123/41 83/88/69
f 124/178/133 120/124/93 123/126/95
f 130/188/138 126/127/96 127/129/98
f 85/567/135 86/130/70 88/132/100
f 92/145/110 91/136/104 94/138/106
f 99/147/112 94/142/106 98/144/107
f 93/134/102 92/145/110 98/139/107
f 95/160/118 99/147/112 97/148/113
f 98/139/107 96/146/111 97/153/113
f 96/146/111 99/154/112 100/152/117
f 92/145/110 94/138/106 96/146/111
f 107/568/327 108/166/125 116/151/116
f 107/568/327 116/151/116 106/167/126
f 113/158/120 115/149/114 106/167/126
f 103/569/266 114/133/101 110/168/127
f 224/570/123 237/163/122 240/174/131
f 91/571/104 73/176/11 90/177/105
f 121/192/140 124/178/133 122/179/134
f 119/269/94 85/180/135 118/182/97
f 119/125/94 118/185/97 123/126/95
f 87/572/185 84/183/128 117/186/136
f 121/192/140 117/186/136 124/178/133
f 129/194/141 125/187/137 130/188/138
f 118/573/97 117/189/136 127/191/98
f 122/179/134 126/127/96 121/192/140
f 128/574/139 117/193/136 129/194/141
f 134/575/145 129/194/141 137/196/143
f 131/202/147 133/197/144 132/199/146
f 128/574/139 129/194/141 133/201/144
f 127/191/98 128/190/139 131/202/147
f 132/576/146 130/188/138 131/203/147
f 140/211/152 136/204/148 142/206/150
f 129/194/141 130/207/138 135/195/142
f 136/204/148 130/207/138 138/205/149
f 138/214/149 132/199/146 137/209/143
f 135/195/142 136/204/148 139/210/151
f 137/196/143 135/195/142 141/213/154
f 142/254/150 138/214/149 141/215/154
f 146/226/160 148/216/155 161/218/157
f 141/213/154 139/210/151 145/220/159
f 144/230/165 140/211/152 146/223/160
f 145/220/159 143/219/158 149/225/162
f 148/216/155 142/227/150 167/229/164
f 152/237/168 149/231/162 156/233/167
f 151/236/169 147/212/153 152/235/168
f 143/219/158 147/212/153 150/224/161
f 148/216/155 145/222/159 152/237/168
f 162/247/175 160/238/170 164/240/172
f 149/225/162 150/224/161 153/242/166
f 155/244/174 151/236/169 156/243/167
f 150/224/161 151/236/169 154/241/173
f 160/238/170 147/212/153 159/239/171
f 159/239/171 144/230/165 161/245/157
f 148/234/155 147/212/153 158/246/156
f 158/246/156 160/238/170 163/248/176
f 164/240/172 159/239/171 165/251/178
f 161/218/157 158/217/156 165/253/178
f 168/577/163 142/254/150 169/255/179
f 169/260/179 141/221/154 167/229/164
f 168/577/163 169/255/179 171/257/181
f 172/264/180 169/260/179 170/261/183
f 170/261/183 167/229/164 171/262/181
f 118/573/97 88/266/100 117/189/136
f 120/578/93 82/268/64 119/269/94
f 224/171/123 240/270/131 238/172/129
f 34/279/46 183/274/188 37/276/47
f 67/102/81 71/85/67 186/277/190
f 174/284/72 188/278/191 34/279/46
f 4/6/6 3/116/7 179/280/192
f 9/5/5 180/4/4 12/281/17
f 185/100/79 189/282/193 62/101/80
f 32/283/22 189/282/193 174/284/72
f 77/285/20 14/3/3 18/38/29
f 182/2/2 18/38/29 14/3/3
f 178/386/90 190/288/194 179/290/192
f 196/579/241 16/291/21 197/293/196
f 5/303/13 7/294/8 190/296/194
f 7/294/8 8/297/9 191/295/195
f 192/528/246 230/299/198 10/301/16
f 193/298/197 8/305/9 194/307/201
f 194/307/201 11/306/18 195/309/203
f 232/322/211 219/310/204 21/312/30
f 195/309/203 13/308/202 16/291/21
f 16/291/21 196/579/241 231/313/205
f 221/377/242 201/314/206 223/316/208
f 179/290/192 191/289/195 180/318/4
f 197/293/196 19/292/27 198/320/210
f 58/543/33 206/323/212 79/325/34
f 219/310/204 220/326/214 24/311/35
f 22/319/209 25/328/39 198/320/210
f 206/551/212 41/111/40 233/331/213
f 201/531/206 207/332/217 205/334/219
f 202/372/238 33/335/45 203/337/220
f 207/332/217 211/338/221 210/333/218
f 204/580/226 209/340/223 200/342/225
f 201/314/206 200/342/225 207/343/217
f 205/334/219 210/333/218 204/345/226
f 213/353/230 214/346/222 217/348/228
f 208/341/224 212/349/229 207/343/217
f 210/333/218 214/339/222 209/344/223
f 208/341/224 209/340/223 212/349/229
f 212/356/229 213/353/230 216/354/231
f 211/581/221 215/355/232 214/346/222
f 211/581/221 212/356/229 215/355/232
f 228/382/244 227/357/233 69/359/85
f 43/330/216 81/363/65 233/331/213
f 87/361/185 236/360/234 264/367/237
f 204/345/226 28/368/74 205/334/219
f 199/329/215 25/328/39 204/345/226
f 28/368/74 204/345/226 25/328/39
f 321/373/239 175/371/73 202/372/238
f 31/369/92 175/371/73 322/374/240
f 18/321/29 196/375/241 232/322/211
f 199/378/215 200/342/225 220/326/214
f 198/395/210 199/378/215 219/310/204
f 222/537/207 185/100/79 225/379/243
f 221/377/242 223/316/208 30/381/82
f 226/385/245 228/382/244 65/383/84
f 226/385/245 225/384/243 228/382/244
f 223/316/208 222/315/207 226/385/245
f 223/316/208 226/385/245 63/380/83
f 225/379/243 186/277/190 227/365/233
f 15/394/19 192/388/246 2/390/91
f 221/377/242 30/381/82 230/391/198
f 74/582/77 230/393/198 15/394/19
f 197/376/196 198/395/210 232/322/211
f 79/325/34 233/324/213 83/397/69
f 266/583/277 267/398/247 270/400/249
f 265/454/236 273/401/250 274/403/252
f 237/584/122 238/172/129 241/406/130
f 240/174/131 241/173/130 245/411/256
f 240/270/131 245/408/256 239/271/186
f 245/411/256 246/410/258 244/414/261
f 245/408/256 244/418/261 243/412/259
f 243/412/259 247/419/265 246/421/258
f 239/271/186 243/412/259 241/406/130
f 258/416/263 255/428/270 263/417/264
f 260/424/267 263/417/264 253/430/272
f 252/427/269 262/415/262 253/430/272
f 250/548/325 257/431/273 261/404/253
f 2/390/91 229/389/63 237/435/122
f 220/326/214 230/391/198 27/327/36
f 182/585/2 195/438/203 18/321/29
f 231/437/205 196/375/241 18/321/29
f 270/400/249 271/399/248 269/440/275
f 236/586/234 235/441/276 265/443/236
f 235/587/276 236/444/234 86/130/70
f 266/583/277 270/400/249 265/445/236
f 267/398/247 264/448/237 271/399/248
f 273/401/250 272/450/278 277/402/251
f 265/366/236 274/452/252 264/367/237
f 272/450/278 273/401/250 268/439/274
f 272/450/278 264/455/237 276/451/279
f 281/588/284 284/457/281 276/459/279
f 278/465/286 279/460/283 280/462/285
f 275/456/280 280/463/285 276/451/279
f 274/452/252 278/465/286 275/453/280
f 274/403/252 277/402/251 278/467/286
f 285/471/290 283/468/287 289/470/289
f 276/459/279 282/458/282 277/402/251
f 279/589/283 277/402/251 285/471/290
f 281/461/284 279/460/283 284/473/281
f 282/458/282 286/474/291 283/468/287
f 284/457/281 288/476/293 282/458/282
f 284/473/281 285/472/290 288/478/293
f 293/490/300 308/479/294 295/481/296
f 288/476/293 292/482/297 286/474/291
f 289/470/289 287/469/288 293/487/300
f 292/482/297 296/488/301 290/483/298
f 295/481/296 314/492/303 289/491/289
f 299/499/308 303/494/305 296/496/301
f 295/590/296 294/475/292 299/498/308
f 290/483/298 297/489/302 294/475/292
f 295/481/296 299/499/308 292/485/297
f 306/507/314 307/500/309 311/502/311
f 296/488/301 300/503/306 297/489/302
f 299/498/308 298/497/307 303/506/305
f 297/489/302 301/504/312 298/497/307
f 291/486/299 294/475/292 306/507/314
f 293/487/300 291/486/299 308/508/294
f 295/590/296 305/509/295 294/475/292
f 305/509/295 310/510/315 307/500/309
f 308/508/294 306/507/314 312/513/317
f 308/479/294 312/514/317 305/480/295
f 288/478/293 289/477/289 316/517/318
f 295/481/296 288/484/293 314/492/303
f 315/516/304 318/519/319 316/517/318
f 314/492/303 316/518/318 317/524/322
f 315/493/304 314/492/303 318/525/319
f 10/301/16 57/79/12 192/528/246
f 235/441/276 234/529/235 266/442/277
f 202/534/238 203/533/220 183/274/188
f 321/538/239 202/534/238 188/278/191
f 182/585/2 181/535/1 195/438/203
f 193/317/197 194/536/201 180/318/4
f 201/591/206 189/282/193 222/537/207
f 201/591/206 321/538/239 189/282/193
f 87/592/185 264/448/237 84/446/128
f 83/397/69 234/396/235 86/541/70
f 56/162/76 224/164/123 58/543/33
f 66/156/75 91/136/104 93/134/102
f 94/142/106 90/177/105 93/143/102
