v 0.029115 -0.937231 0.512465
v -0.276011 -0.927899 0.570785
v -0.230688 -0.901439 0.446205
v -0.189246 -0.888438 0.622389
v -0.014487 -0.927228 0.557274
v 0.011848 -0.896827 0.465846
v -0.142224 -0.881423 0.424572
v -0.182194 -0.884089 0.433066
v -0.239389 -0.893106 0.606814
v -0.072595 -0.915567 0.603309
v -0.054092 -0.886358 0.427555
v 0.016892 -0.915552 0.532739
v -0.255464 -0.897537 0.515040
v -0.026837 -0.908834 0.539922
v -0.161728 -0.854252 0.467287
v -0.193378 -0.859413 0.470866
v -0.079043 -0.916122 0.398680
v -0.061611 -0.889090 0.514924
v 0.039232 -0.988407 0.488901
v 0.016436 -0.927982 0.411089
v -0.131900 -0.954620 0.367892
v -0.004858 -0.954874 0.552069
v -0.200258 -0.960113 0.393076
v -0.068362 -0.930632 0.390002
v -0.060087 -0.978935 0.595675
v -0.041939 -0.934177 0.391962
v -0.123174 -0.878829 0.431213
v -0.118653 -0.893326 0.613173
v -0.120003 -0.866147 0.479676
v -0.082750 -0.950830 0.365959
v -0.122332 -0.977723 0.627740
v -0.031884 -0.906316 0.419326
v -0.026675 -1.013657 0.388268
v 0.014596 -0.991218 0.382520
v -0.041607 -0.979135 0.378789
v -0.070714 -0.983776 0.377131
v -0.084352 -0.997246 0.381532
v -0.273045 -0.989559 0.506311
v -0.234095 -0.968503 0.421841
v -0.220851 -1.008145 0.606719
v -0.278748 -0.985841 0.562251
v -0.189566 -0.992225 0.631541
v 0.273469 -0.915215 -0.437838
v 0.297128 -0.812327 -0.376019
v 0.044485 -0.762822 -0.296077
v 0.056257 -0.719762 -0.433181
v 0.374162 -0.769540 -0.062492
v 0.218792 -0.927303 -0.027043
v 0.019492 -0.790728 -0.031027
v 0.148145 -0.583246 -0.098945
v 0.441299 -0.846600 0.187897
v 0.311726 -0.949570 0.147997
v 0.025636 -0.787840 0.139914
v -0.009382 -0.637559 0.142800
v 0.313707 -0.926756 -0.410861
v 0.332011 -0.790952 -0.392034
v 0.020913 -0.719366 -0.321450
v -0.024276 -0.787086 -0.380670
v 0.376177 -0.800110 0.022111
v 0.294752 -0.883241 0.023553
v 0.012166 -0.736938 -0.072418
v 0.093939 -0.599188 -0.103962
v 0.449987 -0.898034 0.182215
v 0.383963 -0.922550 0.154577
v -0.034926 -0.713336 0.223580
v -0.067064 -0.737767 0.139836
v 0.305244 -0.959435 0.040660
v 0.339386 -0.866398 0.090388
v 0.286553 -1.008534 0.137969
v 0.313294 -0.935704 0.163433
v 0.043340 -1.013385 -0.004364
v 0.017736 -0.966893 0.019179
v 0.080795 -1.016472 0.058222
v 0.067493 -0.958394 0.064381
v -0.140594 -1.014942 0.226998
v -0.200573 -0.960970 0.248475
v -0.105800 -0.986460 0.250261
v -0.138976 -0.942168 0.247964
v -0.212801 -0.998781 0.293872
v -0.235212 -0.943241 0.287168
v -0.166239 -0.983284 0.317303
v -0.175971 -0.934109 0.303848
v -0.229070 -0.991183 0.380514
v -0.266537 -0.910222 0.327099
v -0.240328 -0.958615 0.393434
v -0.244294 -0.901277 0.359027
v -0.275616 -0.995702 0.390912
v -0.302925 -0.912055 0.347544
v -0.296180 -0.974806 0.405332
v -0.313427 -0.901683 0.368704
v -0.289075 -0.999832 0.380704
v -0.308543 -0.923214 0.350247
v -0.343347 -0.988592 0.361568
v -0.354465 -0.939399 0.337980
v 0.039899 -0.739593 0.102318
v 0.015559 -0.676956 0.034126
v 0.027390 -0.786907 0.242036
v -0.003814 -0.840254 0.165317
v 0.260149 -0.925520 0.204800
v 0.195857 -0.971338 0.159826
v 0.198997 -0.927601 0.253650
v 0.188691 -1.003334 0.213251
v 0.335118 -0.967566 0.247355
v 0.253287 -1.014140 0.253509
v 0.290034 -0.902445 0.272833
v 0.245670 -0.973415 0.304812
v 0.466794 -0.943376 0.362739
v 0.445681 -0.960729 0.402019
v 0.445010 -0.903982 0.368161
v 0.426094 -0.922263 0.415523
v 0.184662 -0.802783 -0.433185
v 0.170707 -0.744897 -0.429884
v 0.197093 -0.865776 -0.287608
v 0.128094 -0.849135 -0.282978
v 0.320705 -0.698853 -0.086854
v 0.228957 -0.634963 0.080708
v 0.141647 -0.903078 -0.030783
v 0.073553 -0.833520 0.019208
v 0.335908 -0.749163 0.228062
v 0.090075 -0.642103 0.205899
v 0.178616 -0.907841 0.158741
v 0.099543 -0.829177 0.157976
v 0.176650 -0.872588 -0.374929
v 0.117778 -0.830408 -0.413600
v 0.202051 -0.858763 -0.309254
v 0.110972 -0.829565 -0.292451
v 0.071899 -0.686867 0.274281
v 0.293826 -0.843061 0.233514
v 0.094475 -0.795206 0.221666
v 0.174076 -0.870066 0.209879
v 0.125638 -0.711983 0.293191
v 0.239331 -0.823779 0.272508
v 0.069540 -0.820364 0.270917
v 0.100766 -0.898616 0.246172
v 0.226934 -0.913998 0.514089
v 0.091783 -0.995446 0.494709
v 0.140066 -0.767755 0.317871
v 0.058848 -1.007470 0.422229
v 0.050152 -0.951579 0.249656
v 0.185799 -0.838715 0.285955
v 0.239742 -0.912615 0.380461
v 0.246425 -0.928135 0.454566
v 0.081384 -1.005468 0.455682
v 0.399619 -0.969148 -0.302572
v 0.435984 -0.835829 -0.270002
v 0.003486 -0.789262 -0.178978
v -0.049574 -0.865717 -0.247320
v 0.264429 -0.949084 -0.257329
v 0.049980 -0.917815 -0.296289
v 0.319250 -0.854841 -0.211637
v 0.087230 -0.858241 -0.201796
v 0.475274 -0.988427 -0.216283
v 0.494642 -0.880970 -0.186386
v 0.374448 -0.981822 -0.146632
v 0.410336 -0.896424 -0.116964
v 0.486965 -0.907680 -0.276831
v 0.492039 -1.027986 -0.281176
v 0.376278 -0.918742 -0.246953
v 0.405771 -1.034769 -0.235441
v 0.459416 -0.957642 -0.325885
v 0.474781 -1.019337 -0.304059
v 0.384571 -0.936043 -0.276514
v 0.404888 -1.032727 -0.275559
v 0.202673 -0.970269 -0.582816
v 0.272921 -1.018592 -0.652137
v 0.204516 -0.927749 -0.883539
v 0.190335 -1.024423 -0.905728
v 0.218116 -1.009754 -0.892257
v 0.317917 -0.783994 -0.250193
v 0.225312 -0.904412 -0.235022
v 0.012765 -0.760563 -0.204336
v 0.129252 -0.610107 -0.227203
v 0.322466 -0.828511 -0.265621
v 0.267670 -0.899620 -0.246257
v 0.007923 -0.712559 -0.196782
v 0.076358 -0.621065 -0.251961
v 0.151917 -0.883110 -0.215743
v 0.074945 -0.835976 -0.216859
v 0.279640 -0.710802 -0.243667
v 0.226983 -0.655518 -0.192145
v -0.037692 -0.852678 -0.072546
v -0.083874 -0.911743 -0.131214
v 0.009204 -0.980724 -0.149385
v 0.048740 -0.917628 -0.081007
v -0.128297 -0.950401 -0.055004
v -0.066564 -0.881454 -0.083403
v 0.018322 -0.942659 -0.104418
v -0.051665 -1.019507 -0.064388
v -0.134594 -0.944303 -0.088516
v -0.075064 -0.879725 -0.109245
v -0.003484 -0.941311 -0.121680
v -0.063244 -1.006811 -0.110670
v -0.155215 -0.957543 -0.483829
v -0.112716 -0.915771 -0.510274
v -0.069632 -0.951221 -0.518827
v -0.106567 -1.000904 -0.499790
v -0.157485 -0.932994 -0.613141
v -0.071387 -0.945356 -0.591060
v -0.074020 -0.988330 -0.594589
v -0.172328 -0.985214 -0.604962
v -0.251516 -0.921348 -0.832983
v -0.275797 -1.004756 -0.831431
v -0.283373 -0.976452 -0.803887
v 0.051332 -0.977161 0.326130
v 0.216018 -0.865273 0.309299
v 0.346334 -0.858319 -0.395399
v -0.019174 -0.731895 -0.326679
v 0.325324 -0.844603 -0.001907
v 0.043292 -0.657612 -0.106708
v 0.428740 -0.940277 0.170945
v -0.056131 -0.748502 0.218331
v 0.372171 -0.850500 0.057035
v 0.298645 -0.973992 0.161837
v 0.023669 -0.982971 0.002442
v 0.079497 -0.988653 0.063474
v -0.169798 -0.996633 0.226404
v -0.120719 -0.956720 0.254900
v -0.168396 -0.957489 0.312151
v -0.248319 -0.928999 0.385446
v -0.304408 -0.937162 0.396713
v -0.326947 -0.952930 0.366288
v 0.031417 -0.741269 0.069864
v 0.010054 -0.819093 0.212078
v 0.229872 -0.937946 0.170676
v 0.187773 -0.972714 0.237943
v 0.295505 -0.990687 0.254387
v 0.264676 -0.932896 0.297233
v 0.458952 -0.953757 0.383450
v 0.431572 -0.906676 0.393027
v 0.117577 -0.839442 -0.375786
v 0.247014 -0.880772 0.231967
v 0.060071 -0.767438 0.265819
v 0.169756 -0.878700 0.251306
v 0.100831 -0.785370 0.288620
v 0.185949 -0.958529 0.508730
v 0.145209 -0.907764 0.274941
v 0.130667 -1.003049 0.395257
v 0.167065 -1.006945 0.467594
v 0.434625 -0.913297 -0.292806
v -0.054318 -0.819789 -0.208726
v 0.268640 -0.906102 -0.228718
v 0.072641 -0.905762 -0.243806
v 0.495865 -0.947876 -0.209809
v 0.369372 -0.939955 -0.124572
v 0.503968 -0.946640 -0.287486
v 0.382541 -0.992716 -0.234302
v 0.474451 -0.986041 -0.319415
v 0.366542 -1.003780 -0.274093
v 0.268239 -0.923332 -0.627590
v 0.241682 -1.025047 -0.619724
v 0.303013 -0.871521 -0.270860
v 0.033352 -0.654483 -0.248560
v -0.089334 -0.873759 -0.105132
v 0.028787 -0.964167 -0.106486
v -0.112843 -0.898117 -0.057434
v -0.003434 -1.005542 -0.085659
v -0.107462 -0.906728 -0.095922
v -0.016717 -0.999399 -0.121449
v -0.137337 -0.926655 -0.493484
v -0.075721 -0.980456 -0.510967
v -0.129130 -0.918842 -0.594213
v 0.160621 -0.941614 0.306300
v 0.178278 -0.778296 -0.415573
v 0.171133 -0.865629 -0.281063
v 0.279176 -0.662792 -0.070082
v 0.109244 -0.870938 -0.009717
v 0.241502 -0.674912 0.198503
v 0.122800 -0.840214 0.155775
v 0.167163 -0.791384 -0.405412
v 0.167198 -0.862811 -0.297594
v 0.201101 -0.711987 0.273461
v 0.100424 -0.834922 0.208386
v 0.201251 -0.737072 0.291534
v 0.049110 -0.862351 0.238902
v 0.178685 -0.781375 0.312355
v 0.114797 -0.865398 -0.214715
v 0.253663 -0.688137 -0.234747
v 0.193723 -0.777775 0.344372
v 0.144947 -0.830682 -0.369309
v 0.498094 -0.935338 0.433958
v 0.519173 -0.925049 0.393915
v 0.487926 -0.897511 0.446040
v 0.507278 -0.886102 0.406040
v 0.546661 -0.926805 0.462157
v 0.583175 -0.924301 0.427864
v 0.547560 -0.898434 0.488959
v 0.587789 -0.887979 0.430864
v 0.570099 -0.938850 0.477980
v 0.600994 -0.932739 0.433838
v 0.585549 -0.922623 0.506682
v 0.624609 -0.910186 0.440895
v 0.638675 -1.013647 0.430711
v 0.604656 -1.019101 0.471362
v 0.506290 -0.933756 0.415969
v 0.495861 -0.888133 0.424983
v 0.559060 -0.925674 0.442767
v 0.566609 -0.889588 0.456702
v 0.586487 -0.937054 0.453982
v 0.611393 -0.914567 0.470126
v 0.605662 -0.961119 0.459187
v 0.620069 -0.982802 0.451532
v 0.109921 -0.716488 -0.456226
v 0.069298 -0.813126 -0.286776
v 0.186182 -0.623849 -0.066770
v 0.053175 -0.805745 -0.009478
v 0.043517 -0.629897 0.176508
v 0.060318 -0.807798 0.156545
v 0.035268 -0.820257 -0.413092
v 0.049836 -0.799888 -0.297491
v -0.039462 -0.680207 0.244071
v 0.041375 -0.793833 0.206928
v -0.012643 -0.909470 -0.284509
v 0.061593 -0.808968 -0.174086
v 0.039139 -0.799095 -0.211895
v 0.176788 -0.626997 -0.236926
v -0.044977 -0.956527 -0.148919
v 0.028065 -0.865649 -0.058219
v 0.004919 -0.884129 -0.108486
v -0.090366 -0.985037 -0.030457
v -0.004462 -0.878218 -0.135530
v -0.113070 -0.989437 -0.084174
v -0.078802 -0.919804 -0.517295
v -0.140157 -0.988729 -0.474332
v -0.057906 -0.954211 -0.586718
v -0.184630 -0.956908 -0.623662
v -0.261577 -0.944794 -0.835308
v -0.263116 -0.944664 -0.807482
v -0.012397 -0.751760 0.246720
v 0.377253 -0.866095 0.222646
v 0.224464 -0.879007 -0.435546
v 0.244663 -0.853088 -0.319452
v 0.343891 -0.737332 -0.091920
v 0.175945 -0.922282 -0.037147
v 0.412920 -0.806527 0.210286
v 0.260292 -0.937752 0.160833
v 0.250749 -0.930347 -0.380472
v 0.267201 -0.794433 -0.339599
v 0.326387 -0.981723 -0.278726
v 0.387399 -0.806586 -0.221230
v 0.419240 -0.993779 -0.187262
v 0.472313 -0.856672 -0.140858
v 0.420516 -0.894082 -0.277690
v 0.454470 -1.056503 -0.239056
v 0.409964 -0.887812 -0.318256
v 0.447723 -1.043148 -0.278396
v 0.210416 -0.942105 -0.576562
v 0.285390 -1.006603 -0.654510
v 0.186901 -0.893652 -0.229944
v 0.298038 -0.742968 -0.255607
v 0.344973 -0.911881 0.206462
v 0.586611 -0.962842 0.485285
v 0.602476 -0.956524 0.507873
v 0.644352 -0.946426 0.443585
v 0.617511 -0.955008 0.437748
v 0.632463 -0.950674 0.471220
v 0.580210 -0.925629 0.399098
v 0.572885 -0.926408 0.379852
v 0.584646 -0.892296 0.400273
v 0.573171 -0.898064 0.377390
v 0.598146 -0.959377 0.380739
v 0.619066 -0.967463 0.385648
v 0.593889 -0.937041 0.392357
v 0.607764 -0.917348 0.389016
v 0.601492 -0.920376 0.374477
v 0.588426 -0.938815 0.380598
v 0.524806 -0.929311 0.448462
v 0.518569 -0.895083 0.468353
v 0.545188 -0.881442 0.416289
v 0.546777 -0.922828 0.409530
v 0.530249 -0.885948 0.441584
v 0.532520 -0.927582 0.430008
v 0.552597 -0.919934 0.381750
v 0.547193 -0.888293 0.380821
v 0.584060 -0.923831 0.414440
v 0.582636 -0.887344 0.414112
v 0.562316 -0.883536 0.398458
v 0.564114 -0.920474 0.397745
v 0.028444 -0.623482 0.070506
v 0.030369 -0.818580 0.092370
v 0.269096 -0.932075 0.082783
v 0.434902 -0.824294 0.104966
v -0.020365 -0.719155 0.057342
v 0.004916 -0.778922 0.105381
v 0.346462 -0.908318 0.099036
v 0.383861 -0.937350 0.076104
v 0.304148 -0.906558 0.124913
v 0.278820 -1.019285 0.097271
v 0.044391 -0.955928 0.044741
v 0.069326 -1.023551 0.024955
v -0.185210 -0.941282 0.253577
v -0.117137 -1.007716 0.243476
v -0.207586 -0.926157 0.295286
v -0.189150 -0.996722 0.307927
v -0.255157 -0.899425 0.340632
v 0.243002 -1.004140 -0.853958
v -0.005557 -0.818467 0.113603
v 0.059823 -0.741080 0.200737
v 0.186840 -0.997483 0.181733
v 0.245738 -0.900591 0.226004
v 0.236769 -1.007777 0.287363
v 0.324138 -0.925535 0.258072
v 0.515775 -0.914210 0.470751
v 0.459460 -0.920599 0.358762
v 0.082266 -0.831177 0.081944
v 0.147477 -0.919163 0.091309
v 0.371468 -0.717518 0.083503
v 0.146228 -0.619453 0.081259
v 0.192706 -1.021130 -0.810420
v 0.106990 -0.872518 0.092453
v 0.298602 -0.696620 0.168747
v 0.512986 -0.905308 0.388816
v 0.588631 -0.961696 0.508923
v 0.597933 -0.909016 0.428816
v 0.571912 -0.932749 0.504675
v 0.616560 -0.922067 0.429207
v 0.541198 -0.914632 0.487902
v 0.091525 -0.622865 0.055256
v 0.058400 -0.806267 0.092589
v 0.207899 -0.930737 0.092715
v 0.411753 -0.747977 0.092853
v 0.487098 -0.918437 0.452342
v 0.631799 -0.950029 0.433209
v 0.569648 -0.913008 0.372399
v 0.591722 -0.909920 0.411296
v 0.609856 -0.959374 0.391405
v 0.604803 -0.926803 0.398239
v 0.593421 -0.930334 0.372942
v 0.430254 -0.942715 0.421347
v 0.545591 -0.904272 0.375450
v 0.236593 -0.910845 0.341294
v 0.059440 -0.998893 0.401668
v 0.132693 -0.976418 0.356911
v 0.180979 -1.000151 0.020512
v 0.163276 -1.023481 0.092420
v 0.164653 -0.946181 0.112531
v 0.178580 -0.929902 0.042233
v 0.160131 -0.987119 0.114811
v 0.178951 -0.958283 0.016083
v 0.170177 -1.026396 0.053675
v 0.173501 -0.920079 0.079706
v -0.251318 -0.929420 0.291161
v -0.231771 -0.932757 0.264211
v -0.249579 -0.916919 0.301336
v -0.215922 -0.926760 0.271652
v -0.260151 -0.915579 0.285900
v -0.222606 -1.005965 -0.764708
v -0.261391 -0.974069 -0.767715
v -0.226533 -0.915611 -0.776139
v -0.201936 -0.913076 -0.773755
v 0.229598 -1.024847 -0.831936
v 0.224552 -0.922721 -0.813000
v -0.259915 -0.995341 -0.774360
v -0.256125 -0.939647 -0.780540
v -0.196361 -0.955620 -0.752925
v 0.247283 -0.971694 -0.859533
v 0.200915 -0.965451 -0.794398
v 0.018124 -0.960826 0.305690
v -0.012727 -0.945774 0.273109
v 0.065380 -0.715703 0.256672
v 0.284677 -0.955239 -0.654482
v 0.247786 -0.938275 -0.850719
v -0.289089 -0.902637 0.307100
v 0.230363 -0.944369 -0.607399
v 0.210519 -0.905230 -0.805836
v 0.199600 -0.963454 -0.914199
v 0.226782 -0.971157 -0.900971
v -0.135747 -1.013724 -0.596161
v 0.147505 -0.885142 0.534604
v 0.062823 -0.924462 0.513389
v 0.028945 -0.937028 0.486881
v 0.211497 -0.815662 0.469544
v 0.181437 -0.838391 0.536164
v 0.017665 -0.961560 0.366860
v -0.008167 -0.948564 0.424344
v 0.214971 -0.783437 0.445998
v 0.200000 -0.763638 0.393122
v 0.223036 -0.941250 -0.686122
v 0.253915 -1.016934 -0.748825
v 0.239007 -1.020408 -0.724767
v 0.247688 -0.938563 -0.716264
v 0.265745 -1.005768 -0.743619
v 0.211694 -0.981865 -0.654767
v 0.203930 -1.009943 -0.671914
v 0.256429 -0.963958 -0.747974
v -0.150294 -0.999765 -0.671258
v -0.148994 -0.930017 -0.678983
v -0.213706 -0.980460 -0.690017
v -0.199447 -0.929211 -0.700829
v -0.214693 -0.950881 -0.706447
v -0.125093 -0.973044 -0.644804
v -0.184294 -0.922295 -0.690932
v -0.201590 -1.000789 -0.680477
v 0.291515 -1.015430 -0.540576
v 0.269282 -0.956533 -0.531631
v 0.271966 -1.003357 -0.535121
v 0.334030 -0.972560 -0.569775
v 0.284782 -0.933314 -0.543228
v 0.310760 -1.017945 -0.541539
v 0.330417 -0.994859 -0.563372
v 0.312947 -0.957718 -0.559297
v 0.459781 -0.986387 -0.084848
v 0.422685 -0.979156 -0.107265
v 0.532588 -0.975404 -0.174394
v 0.424820 -0.983338 -0.086010
v 0.556313 -0.978322 -0.172455
v 0.475473 -0.975246 -0.141605
v 0.559886 -0.977484 -0.155984
v 0.560587 -0.973124 -0.141488
v 0.539062 -0.970077 -0.121336
v 0.519797 -0.972566 -0.104575
v 0.499676 -0.972135 -0.093682
v 0.298165 -0.945784 0.223488
v 0.247744 -0.913085 0.252003
v 0.231590 -0.954350 0.256933
v 0.285380 -0.912009 0.239171
v 0.232761 -0.998260 0.195726
v 0.270178 -0.968208 0.200576
v 0.219929 -1.008723 0.224731
v 0.286808 -0.953137 0.197654
v 0.214220 -1.006615 0.238683
v 0.223761 -0.975076 0.255398
vt 0.069736 0.810409
vt 0.070343 0.836608
vt 0.016229 0.816513
vt 0.108198 0.828833
vt 0.082923 0.858291
vt 0.106675 0.817219
vt 0.100807 0.806030
vt 0.150135 0.804118
vt 0.147186 0.813631
vt 0.174865 0.804059
vt 0.199136 0.770721
vt 0.202768 0.808668
vt 0.238571 0.772226
vt 0.263052 0.806977
vt 0.232791 0.807582
vt 0.219562 0.756768
vt 0.197768 0.831600
vt 0.178180 0.842881
vt 0.234127 0.832144
vt 0.215107 0.851808
vt 0.137368 0.848515
vt 0.110896 0.852930
vt 0.145348 0.858722
vt 0.117053 0.872845
vt 0.102955 0.908822
vt 0.126935 0.911784
vt 0.138976 0.939172
vt 0.152030 0.900103
vt 0.166281 0.939086
vt 0.089864 0.882970
vt 0.149277 0.791186
vt 0.257412 0.845823
vt 0.214501 0.867849
vt 0.213059 0.907146
vt 0.051165 0.936868
vt 0.014365 0.995179
vt 0.015016 0.932731
vt 0.015519 0.884587
vt 0.078700 0.906981
vt 0.119497 0.940371
vt 0.219156 0.966110
vt 0.215077 0.942549
vt 0.015832 0.854569
vt 0.016051 0.833512
vt 0.179234 0.620343
vt 0.197718 0.646091
vt 0.173652 0.698841
vt 0.182928 0.613250
vt 0.178951 0.620309
vt 0.026111 0.589592
vt 0.036575 0.571852
vt 0.091358 0.586156
vt 0.124688 0.593060
vt 0.160572 0.604071
vt 0.170757 0.608279
vt 0.530541 0.500669
vt 0.510531 0.463554
vt 0.551834 0.493069
vt 0.552803 0.545871
vt 0.590385 0.499029
vt 0.586699 0.548165
vt 0.709463 0.233461
vt 0.736981 0.227836
vt 0.754824 0.286062
vt 0.746649 0.660255
vt 0.764971 0.572211
vt 0.792005 0.606361
vt 0.782569 0.517985
vt 0.798161 0.553887
vt 0.756625 0.500475
vt 0.737230 0.581062
vt 0.736075 0.519940
vt 0.733529 0.479446
vt 0.750714 0.455948
vt 0.710553 0.534913
vt 0.713606 0.486083
vt 0.707849 0.591243
vt 0.721914 0.656839
vt 0.056404 0.510554
vt 0.059910 0.459217
vt 0.082250 0.470310
vt 0.111457 0.463904
vt 0.112872 0.507403
vt 0.101446 0.443261
vt 0.056753 0.433066
vt 0.024045 0.465652
vt 0.523770 0.443500
vt 0.557804 0.459512
vt 0.592367 0.472603
vt 0.536472 0.416574
vt 0.563911 0.425104
vt 0.586690 0.416660
vt 0.568725 0.405936
vt 0.575182 0.380223
vt 0.594668 0.441922
vt 0.051716 0.399758
vt 0.024388 0.442698
vt 0.081566 0.396057
vt 0.093588 0.424361
vt 0.128566 0.412255
vt 0.109875 0.389620
vt 0.144957 0.383594
vt 0.141775 0.429221
vt 0.140728 0.456272
vt 0.132597 0.505439
vt 0.682119 0.592684
vt 0.697545 0.666171
vt 0.684063 0.542042
vt 0.648993 0.547098
vt 0.685757 0.487986
vt 0.653522 0.591244
vt 0.623556 0.582985
vt 0.679541 0.670859
vt 0.662650 0.670490
vt 0.157697 0.458631
vt 0.158681 0.391976
vt 0.157741 0.429866
vt 0.177530 0.430906
vt 0.454911 0.444893
vt 0.463736 0.393656
vt 0.479621 0.447783
vt 0.429932 0.441906
vt 0.454684 0.472779
vt 0.434980 0.472434
vt 0.472824 0.476894
vt 0.476425 0.525671
vt 0.456561 0.523166
vt 0.499275 0.486705
vt 0.497959 0.533883
vt 0.650874 0.220393
vt 0.668673 0.225869
vt 0.676740 0.279524
vt 0.688030 0.233060
vt 0.523816 0.542864
vt 0.493663 0.422434
vt 0.474451 0.386123
vt 0.482005 0.375180
vt 0.505422 0.400154
vt 0.514707 0.384843
vt 0.523991 0.369532
vt 0.531331 0.397196
vt 0.491685 0.367753
vt 0.128703 0.369584
vt 0.104505 0.368381
vt 0.099134 0.347142
vt 0.124471 0.341259
vt 0.103840 0.290043
vt 0.125032 0.288667
vt 0.506874 0.315104
vt 0.523971 0.318162
vt 0.260244 0.201008
vt 0.260256 0.148470
vt 0.285563 0.152714
vt 0.307173 0.152925
vt 0.307427 0.206656
vt 0.310405 0.109643
vt 0.286264 0.108735
vt 0.286965 0.064755
vt 0.267247 0.062003
vt 0.295875 0.025083
vt 0.263751 0.105236
vt 0.252893 0.056371
vt 0.440764 0.192044
vt 0.442886 0.130542
vt 0.459726 0.145161
vt 0.438643 0.253546
vt 0.412179 0.246705
vt 0.072435 0.349262
vt 0.073244 0.290649
vt 0.045943 0.349562
vt 0.077001 0.372659
vt 0.598868 0.385923
vt 0.596768 0.413923
vt 0.025330 0.379831
vt 0.048830 0.374660
vt 0.025785 0.349403
vt 0.026752 0.284835
vt 0.049424 0.287418
vt 0.388440 0.194221
vt 0.413018 0.188997
vt 0.545758 0.095983
vt 0.484907 0.101111
vt 0.491324 0.068919
vt 0.543531 0.316131
vt 0.571026 0.317433
vt 0.603411 0.325357
vt 0.336412 0.145885
vt 0.334734 0.199716
vt 0.313637 0.066360
vt 0.339506 0.058746
vt 0.419166 0.101111
vt 0.415550 0.073077
vt 0.418936 0.041329
vt 0.485174 0.030517
vt 0.545250 0.041004
vt 0.555771 0.071660
vt 0.550413 0.377675
vt 0.558050 0.404510
vt 0.731741 0.299501
vt 0.713679 0.331519
vt 0.699831 0.287050
vt 0.699623 0.348759
vt 0.689400 0.321677
vt 0.663804 0.312784
vt 0.654456 0.274483
vt 0.634618 0.311670
vt 0.669502 0.338169
vt 0.604363 0.274181
vt 0.630672 0.275261
vt 0.632768 0.219732
vt 0.612796 0.219139
vt 0.578680 0.274242
vt 0.840163 0.675460
vt 0.805000 0.641210
vt 0.821835 0.616809
vt 0.823287 0.709302
vt 0.792442 0.666262
vt 0.801265 0.732258
vt 0.840971 0.744966
vt 0.781333 0.686390
vt 0.557027 0.277312
vt 0.566024 0.224516
vt 0.589504 0.220607
vt 0.375096 0.492402
vt 0.384961 0.458486
vt 0.405199 0.486941
vt 0.410574 0.526483
vt 0.436273 0.522295
vt 0.410194 0.413373
vt 0.430433 0.380777
vt 0.455808 0.393131
vt 0.165665 0.393959
vt 0.192333 0.391907
vt 0.203471 0.419505
vt 0.207389 0.368304
vt 0.225411 0.391622
vt 0.396034 0.384167
vt 0.373257 0.427405
vt 0.420432 0.356604
vt 0.385943 0.354045
vt 0.365034 0.394965
vt 0.359348 0.362250
vt 0.361655 0.322007
vt 0.331496 0.354320
vt 0.389735 0.318213
vt 0.408299 0.313218
vt 0.407520 0.344510
vt 0.211730 0.328779
vt 0.220254 0.292264
vt 0.240239 0.298890
vt 0.032729 0.262939
vt 0.010266 0.262462
vt 0.022123 0.216488
vt 0.183362 0.259934
vt 0.169879 0.261827
vt 0.170456 0.200058
vt 0.152871 0.212064
vt 0.157816 0.257421
vt 0.131245 0.259389
vt 0.152744 0.212061
vt 0.329851 0.315255
vt 0.305156 0.349663
vt 0.332361 0.395198
vt 0.336616 0.434023
vt 0.342953 0.472564
vt 0.302718 0.434937
vt 0.305443 0.474901
vt 0.344205 0.538039
vt 0.305197 0.529271
vt 0.381368 0.533821
vt 0.526919 0.283769
vt 0.770507 0.751644
vt 0.805920 0.758992
vt 0.759849 0.709726
vt 0.733814 0.766693
vt 0.731822 0.732613
vt 0.715848 0.699675
vt 0.731674 0.685305
vt 0.489862 0.276741
vt 0.503649 0.216719
vt 0.536949 0.224504
vt 0.500193 0.577651
vt 0.546406 0.567669
vt 0.550049 0.651223
vt 0.770277 0.950472
vt 0.741703 0.987031
vt 0.721975 0.973279
vt 0.670795 0.949235
vt 0.691763 0.924160
vt 0.667253 0.759822
vt 0.647596 0.761046
vt 0.661418 0.745912
vt 0.674984 0.731059
vt 0.685126 0.785114
vt 0.727911 0.801324
vt 0.684541 0.813951
vt 0.779951 0.788271
vt 0.812240 0.817931
vt 0.777899 0.838219
vt 0.732181 0.843380
vt 0.684428 0.846295
vt 0.661248 0.840977
vt 0.662804 0.852998
vt 0.662157 0.811417
vt 0.664185 0.784673
vt 0.643244 0.784232
vt 0.590894 0.788058
vt 0.588395 0.804006
vt 0.546988 0.807658
vt 0.648291 0.946686
vt 0.655183 0.935733
vt 0.625362 0.944088
vt 0.565379 0.931164
vt 0.577026 0.913602
vt 0.517318 0.950251
vt 0.518656 0.937728
vt 0.532671 0.916079
vt 0.498534 0.934775
vt 0.508386 0.916362
vt 0.498934 0.958053
vt 0.504952 0.967267
vt 0.538647 0.828159
vt 0.520554 0.803562
vt 0.506540 0.794164
vt 0.512161 0.782695
vt 0.526812 0.792410
vt 0.499805 0.976893
vt 0.490810 0.970078
vt 0.606211 0.225665
vt 0.595724 0.228838
vt 0.600010 0.221730
vt 0.495368 0.986286
vt 0.485546 0.980051
vt 0.476390 0.972088
vt 0.479016 0.958002
vt 0.594230 0.216702
vt 0.592138 0.225545
vt 0.586564 0.214627
vt 0.590529 0.228890
vt 0.597639 0.217468
vt 0.605528 0.228876
vt 0.601098 0.232224
vt 0.604423 0.216146
vt 0.496747 0.782205
vt 0.501342 0.775490
vt 0.492601 0.804070
vt 0.489730 0.787509
vt 0.506750 0.811736
vt 0.492742 0.816421
vt 0.513412 0.828903
vt 0.488759 0.827748
vt 0.474192 0.805949
vt 0.511728 0.849291
vt 0.490026 0.847743
vt 0.536808 0.847447
vt 0.531596 0.867423
vt 0.579848 0.843550
vt 0.583631 0.821038
vt 0.639773 0.808883
vt 0.638068 0.835659
vt 0.640348 0.859960
vt 0.577914 0.864185
vt 0.582099 0.876926
vt 0.584670 0.895647
vt 0.537191 0.899022
vt 0.667339 0.876481
vt 0.668457 0.888449
vt 0.646086 0.879394
vt 0.736172 0.880839
vt 0.740176 0.911475
vt 0.690828 0.897503
vt 0.738403 0.943686
vt 0.778359 0.920543
vt 0.803771 0.938845
vt 0.794015 0.972059
vt 0.784290 0.882232
vt 0.808911 0.904111
vt 0.820719 0.863047
vt 0.834152 0.902731
vt 0.860307 0.861182
vt 0.865071 0.907486
vt 0.854923 0.958699
vt 0.829423 0.947565
vt 0.815176 0.985898
vt 0.887162 0.982680
vt 0.841126 0.997513
vt 0.599526 0.582393
vt 0.641540 0.666649
vt 0.148351 0.505738
vt 0.174193 0.461810
vt 0.207317 0.471588
vt 0.195039 0.515146
vt 0.222404 0.449298
vt 0.239531 0.431097
vt 0.252210 0.395818
vt 0.234712 0.343454
vt 0.265749 0.311085
vt 0.059449 0.258487
vt 0.041224 0.210106
vt 0.046055 0.145057
vt 0.065208 0.145112
vt 0.024679 0.151375
vt 0.162418 0.029328
vt 0.182110 0.066625
vt 0.166653 0.067555
vt 0.184383 0.102727
vt 0.186657 0.138828
vt 0.165079 0.140337
vt 0.141648 0.103851
vt 0.138732 0.067952
vt 0.115723 0.103496
vt 0.111228 0.067117
vt 0.106891 0.104386
vt 0.128518 0.203489
vt 0.120218 0.139876
vt 0.144564 0.139751
vt 0.102553 0.141654
vt 0.109393 0.202459
vt 0.089752 0.204557
vt 0.108356 0.261684
vt 0.084126 0.259809
vt 0.282949 0.354017
vt 0.258549 0.351892
vt 0.279678 0.394818
vt 0.273489 0.435894
vt 0.264764 0.465056
vt 0.236144 0.480843
vt 0.230426 0.525231
vt 0.576400 0.576912
vt 0.612982 0.659816
vt 0.582060 0.650525
vt 0.267987 0.525790
vt 0.305231 0.529680
vt 0.303387 0.392990
vt 0.288143 0.310611
vt 0.305042 0.312138
vt 0.080500 0.144623
vt 0.064947 0.207693
vt 0.555911 0.071265
vt 0.491604 0.068128
vt 0.166360 0.018036
vt 0.194569 0.061886
vt 0.205200 0.106980
vt 0.215831 0.152075
vt 0.145490 0.015442
vt 0.142316 0.025664
vt 0.122222 0.019171
vt 0.183428 0.191935
vt 0.098209 0.061670
vt 0.089191 0.103327
vt 0.904527 0.932446
vt 0.949699 0.948466
vt 0.911335 0.882488
vt 0.856281 0.836740
vt 0.887268 0.835598
vt 0.922921 0.857963
vt 0.965169 0.597470
vt 0.917537 0.577056
vt 0.944867 0.540579
vt 0.978071 0.883628
vt 0.973533 0.894384
vt 0.689807 0.425682
vt 0.723753 0.401854
vt 0.723676 0.441929
vt 0.751080 0.416759
vt 0.743080 0.379427
vt 0.787951 0.419748
vt 0.785654 0.452513
vt 0.788706 0.483118
vt 0.832288 0.454003
vt 0.836262 0.425753
vt 0.780027 0.392874
vt 0.831699 0.398084
vt 0.881984 0.402051
vt 0.879661 0.431814
vt 0.870752 0.458245
vt 0.864071 0.473143
vt 0.827228 0.478044
vt 0.861871 0.491751
vt 0.818704 0.500131
vt 0.958919 0.484608
vt 0.962949 0.502797
vt 0.937394 0.181666
vt 0.769056 0.171862
vt 0.923107 0.165442
vt 0.866430 0.519287
vt 0.825735 0.529120
vt 0.815376 0.348115
vt 0.773877 0.335777
vt 0.788825 0.312483
vt 0.742325 0.347461
vt 0.720633 0.360227
vt 0.774690 0.367418
vt 0.820904 0.374810
vt 0.872377 0.354530
vt 0.878939 0.376376
vt 0.819290 0.317856
vt 0.731418 0.161390
vt 0.740781 0.147624
vt 0.910959 0.146351
vt 0.728397 0.116884
vt 0.914298 0.126964
vt 0.743061 0.135898
vt 0.708508 0.185310
vt 0.696037 0.169448
vt 0.707778 0.159044
vt 0.676057 0.226459
vt 0.677608 0.225465
vt 0.676205 0.240475
vt 0.671792 0.238244
vt 0.671579 0.231190
vt 0.675970 0.223623
vt 0.780888 0.198982
vt 0.721993 0.208356
vt 0.777250 0.185608
vt 0.940749 0.196335
vt 0.683363 0.177018
vt 0.717878 0.068662
vt 0.713329 0.057286
vt 0.765911 0.073368
vt 0.691650 0.061870
vt 0.690905 0.050835
vt 0.704049 0.210128
vt 0.580357 0.233572
vt 0.578678 0.228747
vt 0.590575 0.223615
vt 0.632111 0.223278
vt 0.631029 0.218871
vt 0.633990 0.223808
vt 0.634144 0.230548
vt 0.630419 0.230702
vt 0.627492 0.228454
vt 0.685209 0.070727
vt 0.761098 0.088965
vt 0.932747 0.074007
vt 0.937492 0.094905
vt 0.957631 0.466678
vt 0.967928 0.421502
vt 0.960140 0.443954
vt 0.932725 0.111224
vt 0.750793 0.102746
vt 0.705453 0.080670
vt 0.711538 0.076342
vt 0.680790 0.074556
vt 0.626241 0.226931
vt 0.628045 0.218080
vt 0.582846 0.223738
vt 0.622224 0.225301
vt 0.624718 0.220016
vt 0.697557 0.089662
vt 0.676268 0.086597
vt 0.978665 0.398268
vt 0.692023 0.380408
vt 0.864947 0.581494
vt 0.899554 0.604654
vt 0.958903 0.642431
vt 0.337857 0.805645
vt 0.352329 0.816896
vt 0.335849 0.816248
vt 0.980156 0.877558
vt 0.909464 0.816878
vt 0.926421 0.834067
vt 0.281063 0.862176
vt 0.275086 0.902303
vt 0.214060 0.907716
vt 0.263508 0.936732
vt 0.293204 0.935134
vt 0.312830 0.897319
vt 0.306961 0.939965
vt 0.325778 0.911830
vt 0.378134 0.940095
vt 0.415505 0.929827
vt 0.418784 0.993411
vt 0.352990 0.912880
vt 0.416587 0.879286
vt 0.342977 0.862915
vt 0.334404 0.831281
vt 0.356169 0.822831
vt 0.421828 0.803268
vt 0.423463 0.790571
vt 0.281092 0.802015
vt 0.289344 0.787333
vt 0.914935 0.669173
vt 0.894371 0.655267
vt 0.941248 0.648461
vt 0.865116 0.631419
vt 0.904634 0.714904
vt 0.885904 0.758904
vt 0.900499 0.789879
vt 0.899007 0.788698
vt 0.853737 0.811092
vt 0.829870 0.777931
vt 0.860844 0.709530
vt 0.295623 0.819633
vt 0.287258 0.844412
vt 0.325763 0.856591
vt 0.321747 0.877511
vt 0.342095 0.889562
vt 0.420014 0.823008
vt 0.418443 0.847652
vt 0.214754 0.868398
vt 0.684556 0.874120
vt 0.672119 0.912381
vt 0.652475 0.900602
vt 0.639571 0.922231
vt 0.507622 0.881982
vt 0.511692 0.900015
vt 0.489666 0.900137
vt 0.580288 0.220048
vt 0.602597 0.219251
vt 0.595593 0.231166
vt 0.484047 0.918288
vt 0.483902 0.881354
vt 0.469443 0.898677
vt 0.461404 0.882670
vt 0.450183 0.899039
vt 0.464541 0.917413
vt 0.468275 0.936341
vt 0.471954 0.946277
vt 0.450867 0.951575
vt 0.488129 0.950503
vt 0.459843 0.957822
vt 0.474275 0.794513
vt 0.477930 0.782470
vt 0.464248 0.968801
vt 0.593648 0.229043
vt 0.594800 0.219921
vt 0.444295 0.950359
vt 0.455896 0.935741
vt 0.578071 0.229878
vt 0.581080 0.226636
vt 0.582821 0.231325
vt 0.444016 0.932284
vt 0.589242 0.231216
vt 0.447125 0.916158
vt 0.594684 0.224169
vt 0.596039 0.231008
vt 0.534866 0.881347
vt 0.436167 0.876832
vt 0.451786 0.873540
vt 0.502622 0.869488
vt 0.478622 0.869260
vt 0.600669 0.228516
vt 0.470367 0.846306
vt 0.436632 0.875280
vt 0.588033 0.222815
vt 0.620369 0.220488
vt 0.617885 0.228883
vt 0.604039 0.223910
vt 0.625993 0.229515
vt 0.627942 0.223514
vt 0.630553 0.227391
vt 0.474575 0.826305
vt 0.456368 0.843249
vt 0.468600 0.807609
vt 0.462220 0.823292
vt 0.860756 0.332332
vt 0.993439 0.371060
vt 0.986188 0.383142
vt 0.682025 0.226976
vt 0.679969 0.227249
vt 0.679746 0.240699
vt 0.359744 0.137364
vt 0.391687 0.134896
vt 0.379208 0.097067
vt 0.392501 0.134914
vt 0.338867 0.016386
vt 0.351992 0.060701
vt 0.355868 0.099033
vt 0.358824 0.195455
vt 0.357904 0.253546
vt 0.317688 0.022378
vt 0.316028 0.010349
vt 0.365914 0.059220
vt 0.188288 0.626633
vt 0.020225 0.627476
vt 0.077847 0.729049
vt 0.337959 0.102316
vt 0.605326 0.051490
vt 0.620218 0.074402
vt 0.243365 0.103028
vt 0.606609 0.090856
vt 0.080172 0.144983
vt 0.165866 0.103946
vt 0.385193 0.253546
vt 0.333056 0.253546
vt 0.413857 0.131288
vt 0.459290 0.199353
vt 0.286566 0.257455
vt 0.286064 0.205085
vt 0.260233 0.253546
vt 0.180066 0.618899
vt 0.041004 0.571204
vt 0.031313 0.580504
vt 0.176801 0.615736
vt 0.131432 0.592259
vt 0.168093 0.605199
vt 0.087753 0.577968
vt 0.126587 0.355421
vt 0.542484 0.399799
vt 0.686910 0.758599
vt 0.586835 0.222039
vt 0.016410 0.799097
vt 0.148475 0.720072
vt 0.112435 0.731387
vt 0.084152 0.729883
vt 0.033136 0.705214
vt 0.025959 0.628575
vt 0.025663 0.589717
vt 0.019321 0.677833
vt 0.192463 0.676215
vt 0.778378 0.672029
vt 0.084388 0.511316
vt 0.023385 0.509676
vt 0.024874 0.410259
vt 0.501364 0.360326
vt 0.292615 0.013201
vt 0.157751 0.257609
vt 0.305025 0.313375
vt 0.507675 0.653310
vt 0.608429 0.224637
vt 0.167552 0.508667
vt 0.967338 0.518460
vt 0.937757 0.213909
vt 0.591695 0.226894
vt 0.981627 0.633093
vt 0.446385 0.886139
vt 0.437892 0.943408
vt 0.609547 0.219908
vt 0.459305 0.810763
vt 0.679907 0.223732
vt 0.684787 0.235652
vt 0.107612 0.733849
vt 0.168687 0.701495
vt 0.187110 0.679257
vt 0.192365 0.649132
vt 0.140452 0.724767
vt 0.012425 0.676347
vt 0.026831 0.704379
vt 0.030940 0.580778
vt 0.233836 0.149685
vt 0.307681 0.260387
vt 0.458854 0.253546
vt 0.187870 0.626400
vn 0.599100 0.368300 0.711000
vn 0.507700 0.455600 0.731200
vn 0.460800 -0.656300 0.597500
vn 0.284900 0.938200 0.196200
vn 0.247800 0.672100 0.697700
vn 0.357800 0.861700 0.359700
vn 0.719900 0.682300 0.127200
vn 0.631100 0.774700 -0.040700
vn 0.227500 0.861100 -0.454700
vn 0.283500 0.701200 -0.654200
vn 0.678900 0.495400 -0.541900
vn 0.164700 0.471700 -0.866200
vn 0.653000 -0.399300 -0.643500
vn 0.127800 -0.893000 -0.431400
vn 0.065900 0.028900 -0.997400
vn 0.631800 -0.743800 0.218200
vn 0.260800 0.499300 -0.826200
vn 0.096400 0.647500 -0.755900
vn 0.144400 -0.211100 -0.966700
vn 0.304000 0.219200 -0.927100
vn 0.128200 0.855300 -0.501900
vn 0.244400 0.969500 0.019600
vn -0.069400 0.718400 -0.692200
vn 0.017800 0.983200 -0.181900
vn -0.551200 0.571000 0.608300
vn -0.346500 0.912200 -0.218600
vn -0.795900 0.586700 -0.149300
vn -0.285300 0.647200 -0.706900
vn -0.690400 0.494400 -0.528000
vn -0.069700 0.643800 0.762000
vn 0.893500 0.252700 0.371100
vn -0.150100 -0.810000 -0.566900
vn -0.210100 0.071700 -0.975000
vn -0.465200 -0.141500 -0.873800
vn -0.919700 0.237000 0.312800
vn -0.724000 -0.611700 -0.318900
vn -0.844800 -0.455300 0.281000
vn -0.323500 -0.825500 0.462500
vn -0.669900 -0.496100 -0.552400
vn -0.086300 -0.499300 0.862100
vn 0.232600 -0.417600 0.878400
vn 0.750100 -0.332000 0.571900
vn -0.312500 -0.344800 -0.885100
vn -0.632600 0.752500 -0.182900
vn 0.027300 0.565800 -0.824100
vn 0.293200 -0.915500 -0.275300
vn 0.010500 0.141500 -0.989900
vn 0.637800 -0.750000 -0.175100
vn 0.692400 -0.685000 -0.226500
vn 0.979100 -0.068100 -0.191500
vn 0.506600 -0.734000 -0.452300
vn 0.337900 -0.401300 -0.851300
vn -0.723300 -0.291800 -0.625800
vn 0.665000 -0.565300 -0.488100
vn 0.959800 0.108300 -0.258900
vn 0.964800 0.042400 -0.259600
vn 0.863100 0.210400 0.459100
vn 0.863300 -0.367800 0.345600
vn 0.812000 0.583300 0.018100
vn 0.664400 0.330000 0.670600
vn 0.815500 0.523600 -0.246600
vn 0.889100 0.305900 -0.340300
vn 0.330200 -0.373900 -0.866700
vn 0.174900 -0.298800 -0.938100
vn -0.422000 -0.093100 -0.901800
vn 0.764600 0.485900 -0.423300
vn -0.441000 -0.854000 -0.275900
vn 0.395900 -0.728300 -0.559300
vn 0.038300 0.939400 0.340700
vn 0.743700 0.578200 -0.335500
vn 0.765600 -0.071500 -0.639400
vn 0.407500 0.748900 0.522600
vn 0.835000 0.504500 -0.219800
vn 0.925100 -0.376500 -0.049200
vn 0.905900 -0.139600 0.399700
vn 0.665300 -0.625400 -0.407700
vn 0.706800 0.046300 -0.705900
vn 0.411000 -0.825800 -0.386100
vn 0.003900 -0.999400 0.033200
vn -0.207700 -0.965900 -0.154100
vn -0.704200 -0.646700 0.292800
vn -0.481100 -0.789600 0.380700
vn -0.742600 0.000000 0.669700
vn -0.739300 -0.623400 -0.254500
vn -0.264700 0.206200 -0.942000
vn 0.632600 0.665600 -0.395900
vn 0.720600 0.666500 -0.190900
vn 0.551000 0.831900 0.065700
vn 0.490800 0.831900 0.258800
vn 0.469100 0.463100 0.751900
vn 0.485300 0.869400 -0.092900
vn 0.336700 0.922500 0.188700
vn 0.507700 0.781000 -0.363600
vn 0.460000 0.012700 -0.887800
vn -0.143400 -0.935200 -0.323700
vn 0.169500 -0.697400 -0.696300
vn 0.243800 -0.633600 -0.734200
vn -0.208700 -0.946700 -0.245400
vn 0.516000 -0.726200 -0.454200
vn 0.378800 -0.844300 -0.379100
vn -0.124500 -0.985200 -0.117400
vn -0.436900 -0.801800 -0.407700
vn 0.066200 -0.962800 -0.261800
vn -0.392500 -0.873400 -0.288200
vn -0.501300 -0.842900 -0.195300
vn -0.278900 -0.593400 -0.755000
vn -0.366700 -0.843000 -0.393600
vn -0.299700 -0.949300 -0.094500
vn -0.125700 -0.934300 -0.333600
vn -0.511000 0.565000 0.647800
vn -0.657600 0.007700 0.753300
vn -0.246300 0.478700 0.842700
vn 0.178000 -0.488700 0.854100
vn -0.562400 -0.787800 0.251100
vn 0.338200 -0.262400 0.903700
vn -0.326200 -0.417600 0.848000
vn -0.752200 -0.523700 0.399900
vn -0.799200 0.587500 0.126800
vn -0.933800 -0.187800 0.304600
vn -0.927700 0.371500 0.035600
vn -0.900700 -0.307200 0.307200
vn -0.431900 -0.901900 0.005800
vn -0.790500 -0.527500 0.311100
vn -0.218900 -0.942200 0.253600
vn 0.413900 -0.906200 -0.086800
vn 0.867200 -0.403400 -0.291800
vn 0.218800 -0.964000 -0.151100
vn 0.939400 -0.294300 -0.175500
vn 0.503900 -0.859500 -0.085400
vn 0.838400 -0.438800 -0.323300
vn 0.298000 -0.940500 -0.163400
vn 0.614500 -0.597700 -0.514800
vn 0.000200 -0.999900 0.012600
vn -0.773400 -0.633600 0.019400
vn -0.824100 0.258400 0.504000
vn -0.876400 -0.196400 0.439700
vn -0.065300 0.988600 -0.135800
vn -0.198200 0.942600 0.268500
vn 0.573100 0.806800 -0.143500
vn 0.473000 -0.102700 0.875000
vn 0.825300 0.237600 -0.512200
vn 0.964400 0.125500 -0.232600
vn 0.260100 0.036100 0.964900
vn 0.809100 -0.037200 -0.586400
vn 0.690800 0.394200 -0.606200
vn 0.475900 0.854100 -0.209700
vn -0.092100 0.993800 -0.062000
vn -0.667600 0.739900 0.082000
vn -0.267300 0.962900 -0.036300
vn -0.983600 0.165100 0.072900
vn 0.081200 -0.954600 -0.286500
vn 0.609600 -0.585100 -0.534800
vn 0.869400 0.354900 -0.343600
vn 0.755200 -0.511100 -0.410200
vn 0.916600 0.021100 -0.399300
vn 0.782600 0.527100 -0.331300
vn -0.334600 0.796600 -0.503400
vn -0.406800 0.287100 -0.867200
vn -0.422700 -0.680900 -0.598100
vn -0.861100 -0.502700 0.075500
vn -0.934400 0.354500 -0.036000
vn 0.060000 -0.991800 0.112700
vn 0.707800 -0.168600 0.686000
vn 0.608300 -0.741800 -0.282200
vn 0.185100 -0.948100 -0.258300
vn 0.179100 -0.980600 -0.080100
vn -0.198700 -0.925700 0.321900
vn -0.153500 -0.986800 0.050300
vn -0.514900 -0.842200 0.159600
vn -0.609200 -0.789200 -0.077400
vn -0.770700 -0.603000 0.205600
vn -0.471100 -0.783300 0.405400
vn -0.781800 -0.622900 0.027500
vn -0.721600 -0.691700 -0.027400
vn -0.646200 -0.753900 -0.118700
vn -0.574300 -0.816800 -0.054800
vn -0.780900 -0.604500 0.157200
vn -0.163000 -0.985500 0.047300
vn -0.321200 -0.944800 0.064400
vn -0.411100 -0.892100 0.187300
vn -0.781900 -0.619900 -0.066000
vn -0.941200 -0.293800 -0.166700
vn -0.780100 -0.613000 -0.125200
vn -0.925400 -0.334700 0.177900
vn 0.394800 0.417500 0.818400
vn -0.609900 -0.758800 -0.228400
vn 0.979400 0.070700 0.189200
vn 0.818800 -0.574000 -0.005800
vn 0.541700 -0.835400 -0.092900
vn 0.245300 -0.880700 -0.405100
vn 0.376700 -0.914100 0.150000
vn 0.055700 -0.995100 0.081900
vn 0.803400 -0.229600 0.549300
vn 0.683700 0.635300 0.359000
vn 0.121900 -0.904700 0.408200
vn 0.448400 0.412100 0.793100
vn -0.255300 -0.378700 0.889600
vn -0.682300 -0.719900 0.127000
vn -0.788200 -0.030300 0.614600
vn -0.122700 -0.987100 -0.103000
vn 0.641100 -0.730700 -0.234500
vn 0.745300 -0.554600 0.370000
vn 0.846000 -0.210600 -0.489700
vn 0.802800 -0.548400 -0.234100
vn 0.116400 -0.993100 -0.013200
vn -0.658600 -0.748500 0.077500
vn -0.996000 0.064500 0.061500
vn -0.557900 0.464000 0.688000
vn -0.228400 0.729800 0.644400
vn -0.139200 0.878400 0.457300
vn -0.561100 -0.055100 0.825900
vn -0.877100 0.479300 0.031300
vn -0.689900 0.703900 -0.168700
vn -0.987400 0.153800 -0.036500
vn -0.780000 0.618100 -0.097500
vn -0.984500 0.161500 0.068500
vn -0.993600 -0.005600 0.112600
vn -0.647100 -0.733000 0.209600
vn 0.404400 0.870200 0.281500
vn -0.006500 0.997800 -0.066000
vn 0.933100 0.194700 0.302300
vn -0.818500 0.560100 0.127700
vn -0.497100 0.858100 0.128600
vn -0.344700 0.897100 -0.276200
vn 0.536100 0.053600 -0.842500
vn 0.172200 -0.436500 -0.883000
vn 0.612300 0.551600 -0.566300
vn 0.635100 -0.357500 -0.684700
vn 0.633700 0.006700 -0.773500
vn 0.427300 0.894500 0.131300
vn -0.072600 0.016900 0.997200
vn -0.114200 0.099400 0.988500
vn -0.835700 0.164700 0.523900
vn -0.562600 -0.540200 0.625800
vn -0.814400 -0.270100 0.513600
vn -0.542600 -0.561000 0.625200
vn -0.451100 -0.424800 0.784800
vn -0.604600 0.203600 0.770000
vn -0.757500 0.032400 0.652000
vn -0.298800 0.802100 0.517000
vn 0.359400 0.829700 -0.427000
vn 0.500200 0.596500 -0.627600
vn 0.592500 -0.525500 -0.610500
vn 0.479600 0.370800 -0.795300
vn -0.005900 0.292600 -0.956200
vn 0.446300 -0.581800 -0.679900
vn 0.419900 -0.894100 -0.155700
vn 0.239200 -0.788000 -0.567300
vn 0.330900 -0.941900 -0.057800
vn 0.088800 -0.989800 -0.111300
vn 0.173200 -0.981400 -0.082600
vn -0.188000 -0.814600 -0.548700
vn -0.238200 -0.010500 -0.971100
vn -0.136100 0.948000 -0.287600
vn -0.099800 0.727300 -0.679000
vn 0.267300 0.618200 -0.739200
vn -0.104400 -0.088200 -0.990600
vn -0.442900 -0.808200 -0.388300
vn -0.007100 -0.234400 -0.972100
vn -0.554400 -0.742400 -0.376100
vn -0.744700 -0.615600 -0.257600
vn -0.423700 -0.535200 0.730700
vn -0.186400 -0.900900 0.391800
vn -0.006000 -0.429500 0.903000
vn 0.593900 -0.146800 0.791000
vn 0.649500 -0.759800 -0.027500
vn 0.537100 0.327100 -0.777500
vn 0.889100 0.457500 -0.015100
vn 0.646200 0.737300 -0.196800
vn 0.172900 0.958300 -0.227700
vn 0.564100 0.815300 -0.130600
vn -0.010400 0.999900 0.006000
vn 0.499900 0.865600 -0.029000
vn 0.604800 0.074700 -0.792800
vn -0.096300 0.973200 0.208900
vn 0.179500 0.935800 0.303300
vn -0.241600 0.959300 0.146300
vn -0.461000 0.672900 0.578500
vn -0.320200 0.912800 0.253300
vn 0.108800 0.927800 -0.356900
vn -0.083600 0.994900 0.055500
vn -0.600100 0.563100 0.568100
vn -0.723700 0.092500 0.683800
vn -0.535900 0.471400 0.700400
vn -0.358700 -0.382600 0.851400
vn 0.155800 -0.940100 0.303100
vn 0.100700 -0.922600 0.372400
vn -0.586300 -0.706400 0.396500
vn -0.056200 -0.990100 -0.128500
vn -0.563400 -0.659400 0.497700
vn -0.719300 -0.691200 0.070200
vn -0.545500 -0.589800 -0.595400
vn -0.235800 -0.843800 -0.482000
vn 0.182600 -0.839200 -0.512200
vn -0.602600 -0.090600 -0.792800
vn -0.499300 0.848200 -0.176500
vn 0.230100 0.971200 0.062100
vn -0.976600 -0.039200 -0.211500
vn -0.608200 0.793100 -0.033500
vn -0.620100 0.451600 0.641400
vn -0.103100 0.954500 0.279700
vn -0.195200 0.344800 0.918100
vn 0.085600 0.901400 0.424400
vn 0.146100 0.985700 -0.083600
vn 0.054300 0.991300 0.119600
vn 0.488300 0.870100 0.067200
vn 0.551100 0.810200 -0.199600
vn 0.600300 0.161200 -0.783300
vn 0.072900 0.392800 -0.916700
vn 0.470600 0.814100 -0.340200
vn -0.349100 -0.468100 -0.811800
vn -0.570200 -0.642800 -0.511500
vn -0.589000 -0.790300 0.168900
vn -0.198200 -0.950400 -0.239700
vn 0.623800 0.763900 -0.165300
vn 0.992900 -0.085800 -0.081800
vn 0.720500 -0.665700 -0.194300
vn 0.939900 0.155600 -0.303900
vn -0.075300 -0.991600 0.104600
vn -0.987400 0.070200 0.141900
vn -0.666300 -0.634800 0.391100
vn -0.868800 0.079200 0.488800
vn -0.525800 -0.805800 0.272300
vn -0.808000 -0.492700 0.323100
vn -0.825600 0.376000 0.420600
vn -0.800100 0.538600 0.264000
vn -0.694800 0.630300 0.346200
vn -0.408400 0.895100 0.178700
vn -0.212100 0.960800 0.178500
vn -0.990800 0.089400 0.100900
vn -0.621500 0.743400 0.247100
vn -0.891900 0.282200 0.353200
vn -0.043200 0.998800 -0.022500
vn -0.689200 0.724500 -0.008500
vn -0.125000 0.988100 -0.089800
vn -0.746900 0.653600 -0.121500
vn -0.310400 0.950600 -0.000500
vn 0.135600 0.399400 0.906600
vn 0.683900 0.436200 0.584700
vn -0.867200 -0.497800 0.006200
vn -0.925900 -0.174100 -0.335300
vn -0.841200 -0.003300 -0.540600
vn -0.498200 0.501800 -0.707000
vn 0.073700 0.947400 -0.311200
vn -0.828700 0.556400 -0.060100
vn 0.546300 0.704100 -0.453600
vn 0.550600 0.810100 -0.201100
vn 0.678200 0.592700 -0.434300
vn 0.741200 -0.047900 -0.669500
vn 0.796300 -0.193200 -0.573100
vn 0.532700 -0.720700 -0.443600
vn 0.353500 -0.875200 -0.330200
vn -0.316300 -0.667500 -0.674000
vn -0.224400 0.213200 -0.950900
vn -0.830300 0.540700 0.135000
vn -0.084000 0.631100 -0.771100
vn 0.590200 0.690500 -0.418000
vn 0.355000 0.861800 0.362200
vn 0.364000 0.613700 0.700600
vn -0.359100 -0.105500 0.927300
vn -0.105700 0.505100 0.856500
vn 0.557900 0.330900 0.761100
vn 0.458700 -0.186900 0.868700
vn 0.041100 -0.690800 0.721900
vn 0.259800 -0.182900 0.948200
vn 0.092300 -0.674300 0.732700
vn 0.251200 -0.216500 0.943400
vn 0.292100 -0.853900 -0.430600
vn 0.005800 -0.410900 0.911600
vn -0.092400 -0.302600 0.948600
vn 0.184800 -0.826700 0.531400
vn 0.338700 -0.929800 -0.144100
vn -0.186300 -0.852700 0.488100
vn -0.395500 -0.207800 0.894600
vn -0.168900 0.426600 0.888500
vn -0.396500 0.460000 0.794400
vn -0.021700 0.698500 0.715200
vn 0.081400 -0.076400 0.993700
vn 0.031200 -0.837300 0.545800
vn 0.007800 -0.985200 -0.171200
vn 0.091000 -0.960200 -0.263900
vn -0.188700 -0.501800 -0.844100
vn 0.210600 -0.496100 -0.842300
vn 0.379200 -0.820200 0.428400
vn -0.181700 -0.977800 -0.103700
vn -0.577800 -0.799900 -0.161800
vn -0.650900 -0.535100 -0.538500
vn -0.439600 0.214600 -0.872200
vn 0.036800 0.284300 -0.958000
vn -0.170000 0.862400 -0.476800
vn 0.564000 0.809300 0.163800
vn 0.964300 -0.190500 -0.184100
vn 0.117900 -0.991800 0.049000
vn -0.147400 0.823200 0.548300
vn -0.218300 0.965900 0.139000
vn -0.398100 0.724000 -0.563200
vn -0.128100 0.986300 -0.104100
vn -0.834800 -0.489600 -0.251700
vn -0.479700 0.128900 -0.867900
vn -0.701300 0.016400 -0.712600
vn 0.222400 0.958900 -0.176100
vn -0.182700 0.865600 -0.466200
vn 0.171700 0.873200 -0.456100
vn -0.519200 0.339500 -0.784300
vn -0.027000 0.982900 -0.182100
vn -0.701400 -0.668500 0.247200
vn -0.797800 0.232900 -0.556100
vn -0.138800 0.375600 0.916300
vn 0.671200 -0.369400 0.642700
vn 0.220700 -0.849100 0.479900
vn 0.168500 -0.951300 0.258100
vn -0.448000 0.348300 -0.823400
vn 0.461100 0.092700 0.882400
vn -0.255700 -0.218700 0.941700
vn 0.217200 -0.950400 0.222600
vn 0.165300 -0.941600 -0.293400
vn 0.022100 -0.044900 -0.998700
vn -0.816600 -0.386500 -0.428600
vn -0.928900 -0.293700 -0.225400
vn -0.396800 0.319700 0.860400
vn 0.736700 0.329100 0.590700
vn 0.705500 -0.141600 0.694400
vn 0.616700 0.546400 0.566600
vn 0.263200 0.949200 0.172600
vn 0.582100 0.775100 0.245500
vn 0.339800 0.863500 0.372700
vn 0.378500 0.484500 0.788600
vn -0.467600 0.859900 0.204500
vn -0.822500 -0.208700 -0.529100
vn -0.202300 -0.978800 0.031500
vn 0.431000 -0.899300 0.072800
vn 0.949600 -0.294400 0.107500
vn 0.504200 -0.544000 -0.670700
vn -0.116400 -0.006400 0.993200
vn 0.438900 0.426700 0.790700
vn -0.396700 -0.917900 0.003300
vn -0.301600 -0.921800 0.243400
vn -0.816300 0.351400 0.458400
vn -0.586400 0.289300 0.756600
vn -0.255500 -0.708800 0.657400
vn -0.279400 0.275300 0.919900
vn 0.356800 -0.538800 0.763100
vn 0.386900 -0.896900 0.214000
vn 0.717600 -0.172600 0.674600
vn 0.952400 -0.292100 0.087300
vn -0.124400 0.697900 0.705200
vn 0.377500 0.787700 0.486800
vn 0.864400 -0.349000 -0.361800
vn 0.453000 -0.688600 -0.566100
vn 0.804500 0.058900 -0.591000
vn 0.228300 0.965300 -0.126600
vn -0.029300 -0.634400 -0.772400
vn 0.101400 -0.556300 -0.824800
vn -0.970500 -0.222800 -0.091900
vn -0.867900 -0.480000 0.128000
vn -0.790800 0.343800 -0.506400
vn -0.838700 -0.276600 -0.469100
vn -0.609800 -0.762400 0.216800
vn -0.853900 0.020000 0.520000
vn -0.833400 -0.550500 0.048000
vn -0.720300 -0.018200 0.693400
vn -0.458000 -0.445500 0.769200
vn -0.214700 -0.939100 0.268100
vn -0.478400 -0.810300 0.338300
vn -0.138500 -0.957400 -0.253300
vn -0.989700 -0.084900 -0.115300
vn -0.329800 -0.886500 -0.324700
vn 0.290400 -0.851200 -0.437200
vn 0.210000 -0.906200 -0.367000
vn 0.945100 -0.293300 -0.144200
vn -0.156700 0.986900 -0.038300
vn 0.245600 0.801400 0.545400
vn -0.953900 0.300100 -0.000300
vn -0.468000 -0.854900 0.223800
vn 0.359700 -0.731000 -0.579800
vn 0.175200 -0.975200 -0.135200
vn 0.433100 -0.800100 -0.415000
vn -0.487200 -0.389800 0.781500
vn -0.017100 -0.963700 0.266300
vn -0.259800 -0.956900 0.129900
vn 0.004900 -0.994300 -0.106300
vn 0.516700 -0.062100 0.853900
vn -0.436500 -0.379600 0.815700
vn -0.072500 -0.981400 -0.177600
vn -0.574300 -0.351300 0.739500
vn -0.631100 -0.773000 -0.064800
vn -0.555400 -0.259600 0.789900
vn -0.880100 -0.435900 -0.188100
vn -0.453000 -0.772600 -0.444700
vn 0.147300 -0.918300 -0.367300
vn 0.467800 -0.879100 -0.090700
vn -0.124000 -0.992200 -0.001100
vn 0.993100 -0.010200 0.116700
vn 0.252200 0.123500 -0.959700
vn -0.253100 -0.501300 -0.827400
vn 0.251000 0.033500 -0.967400
vn 0.241000 -0.935500 -0.258400
vn -0.520200 -0.287800 -0.804100
vn -0.727900 -0.383700 -0.568300
vn -0.404600 -0.289300 0.867500
vn 0.231500 0.454800 0.860000
vn -0.402200 0.683100 0.609600
vn -0.177700 0.673500 0.717500
vn 0.584800 0.661000 0.470300
vn -0.006000 -0.908700 0.417200
vn 0.855300 -0.050500 0.515500
vn 0.983900 0.125500 -0.126800
vn 0.718600 0.665600 -0.201200
vn -0.867200 0.326400 0.376100
vn 0.185500 0.981600 0.045200
vn -0.405700 0.911500 -0.066900
vn 0.693200 0.715900 -0.083400
vn 0.525200 0.848100 -0.069500
vn 0.848200 0.298400 -0.437500
vn 0.708900 0.096100 -0.698700
vn 0.924600 0.357900 -0.130000
vn -0.664800 0.633800 0.395300
vn -0.887900 -0.058000 0.456400
vn -0.334100 -0.938200 0.090100
vn 0.551000 -0.302500 0.777700
vn 0.555400 0.604800 -0.570600
s 1
f 5/1/1 10/2/2 25/3/3
f 18/4/4 28/5/5 10/2/2
f 14/6/6 5/1/1 12/7/7
f 14/6/6 6/8/8 18/4/4
f 14/6/6 18/4/4 10/2/2
f 18/4/4 6/8/8 11/9/9
f 11/9/9 6/8/8 32/10/10
f 6/8/8 20/11/11 32/10/10
f 32/10/10 20/11/11 26/12/12
f 34/13/13 33/14/14 35/15/15
f 34/13/13 20/11/11 19/16/16
f 34/13/13 35/15/15 26/12/12
f 26/12/12 24/17/17 17/18/18
f 24/17/17 36/19/19 30/20/20
f 17/18/18 32/10/10 26/12/12
f 17/18/18 11/9/9 32/10/10
f 17/18/18 27/21/21 11/9/9
f 18/4/4 29/22/22 28/5/5
f 29/22/22 18/4/4 11/9/9
f 27/21/21 7/23/23 15/24/24
f 9/25/25 16/26/26 13/27/27
f 16/26/26 8/28/28 3/29/29
f 15/24/24 7/23/23 8/28/28
f 16/26/26 9/25/25 4/30/30
f 4/30/30 28/5/5 29/22/22
f 1/31/31 14/6/6 12/7/7
f 14/6/6 1/31/31 6/8/8
f 19/16/16 20/11/11 6/8/8
f 35/15/15 36/19/19 24/17/17
f 30/20/20 36/19/19 37/32/32
f 30/20/20 21/33/33 17/18/18
f 7/23/23 27/21/21 17/18/18
f 7/23/23 21/33/33 23/34/34
f 2/35/35 38/36/36 41/37/37
f 40/38/38 9/39/25 2/35/35
f 2/40/35 13/27/27 38/41/36
f 3/29/29 38/41/36 13/27/27
f 3/29/29 39/42/39 38/41/36
f 3/29/29 8/28/28 23/34/34
f 9/39/25 40/38/38 42/43/40
f 42/43/40 31/44/41 28/5/5
f 31/44/41 25/3/3 10/2/2
f 33/14/14 37/32/32 35/15/15
f 37/32/32 36/19/19 35/15/15
f 25/45/3 31/46/41 40/47/38
f 22/48/42 25/49/3 33/50/14
f 22/48/42 34/51/13 19/52/16
f 1/53/31 12/54/7 5/55/1
f 44/56/43 337/57/44 56/58/45
f 44/56/43 56/58/45 174/59/46
f 56/58/45 206/60/47 251/61/48
f 174/62/46 251/63/48 208/64/49
f 173/65/50 59/66/51 208/67/49
f 59/66/51 67/68/52 212/69/53
f 67/68/52 59/66/51 385/70/54
f 59/66/51 47/71/55 381/72/56
f 381/72/56 51/73/57 63/74/58
f 381/72/56 420/75/59 334/76/60
f 420/75/59 381/72/56 47/71/55
f 332/77/61 47/71/55 169/78/62
f 47/71/55 59/66/51 173/65/50
f 173/79/50 55/80/63 43/81/64
f 43/81/64 330/82/65 349/83/66
f 43/81/64 55/80/63 336/84/67
f 336/84/67 55/80/63 144/85/68
f 144/85/68 55/80/63 206/86/47
f 206/86/47 55/80/63 173/79/50
f 56/58/45 339/87/69 145/88/70
f 145/88/70 239/89/71 206/60/47
f 145/88/70 341/90/72 153/91/73
f 507/92/74 508/93/75 157/94/76
f 153/91/73 243/95/77 239/89/71
f 152/96/78 144/85/68 239/97/71
f 340/98/79 338/99/80 144/85/68
f 148/100/81 154/101/82 241/102/83
f 154/101/82 148/100/81 338/99/80
f 148/100/81 123/103/84 336/84/67
f 111/104/85 330/82/65 336/84/67
f 111/104/85 179/105/86 349/83/66
f 115/106/87 332/77/61 349/107/66
f 332/77/61 115/106/87 406/108/88
f 406/108/88 410/109/89 119/110/90
f 410/109/89 265/111/91 116/112/92
f 406/108/88 115/106/87 265/111/91
f 115/106/87 179/113/86 277/114/93
f 179/105/86 111/104/85 263/115/94
f 123/103/84 279/116/95 269/117/96
f 263/115/94 111/104/85 123/103/84
f 263/115/94 269/117/96 124/118/97
f 124/118/97 269/117/96 279/116/95
f 270/119/98 279/120/95 125/121/99
f 279/120/95 270/119/98 126/122/100
f 270/119/98 264/123/101 114/124/102
f 125/121/99 113/125/103 264/123/101
f 113/125/103 177/126/104 276/127/105
f 331/128/106 348/129/107 177/126/104
f 177/130/104 348/131/107 333/132/108
f 333/132/108 348/131/107 170/133/109
f 44/56/43 331/128/106 337/57/44
f 331/128/106 44/56/43 170/134/109
f 337/57/44 125/121/99 150/135/110
f 337/57/44 331/128/106 113/125/103
f 125/121/99 279/120/95 150/135/110
f 279/120/95 241/136/83 150/135/110
f 241/136/83 244/137/111 150/135/110
f 150/135/110 244/137/111 155/138/112
f 501/139/113 159/140/114 511/141/115
f 155/138/112 244/137/111 504/142/116
f 244/143/111 241/102/83 154/101/82
f 502/144/117 158/145/118 246/146/119
f 162/147/120 248/148/121 246/146/119
f 248/149/121 163/150/122 159/140/114
f 495/151/123 250/152/124 165/153/125
f 165/153/125 347/154/126 498/155/127
f 481/156/128 478/157/129 395/158/130
f 395/158/130 450/159/131 168/160/132
f 478/157/129 479/161/133 450/159/131
f 168/160/132 450/159/131 408/162/134
f 494/163/135 164/164/136 250/165/124
f 494/163/135 162/166/120 344/167/137
f 162/147/120 158/145/118 342/168/138
f 344/169/137 342/168/138 156/170/139
f 506/171/140 340/98/79 152/96/78
f 157/94/76 245/172/141 505/173/142
f 505/174/142 503/175/143 152/96/78
f 245/176/141 247/177/144 160/178/145
f 500/179/146 497/180/147 344/167/137
f 477/181/148 464/182/149 456/183/150
f 157/94/76 345/184/151 161/185/152
f 247/186/144 245/172/141 157/94/76
f 347/154/126 460/187/153 499/188/154
f 481/156/128 455/189/155 461/190/156
f 166/191/157 465/192/158 456/183/150
f 465/192/158 167/193/159 408/194/134
f 408/162/134 450/159/131 479/161/133
f 483/195/160 482/196/161 456/183/150
f 345/184/151 157/94/76 343/197/162
f 509/198/163 508/93/75 153/91/73
f 509/198/163 153/91/73 341/90/72
f 511/141/115 159/140/114 343/197/162
f 163/150/122 345/184/151 343/197/162
f 502/144/117 154/101/82 340/98/79
f 339/87/69 337/57/44 150/135/110
f 339/87/69 341/90/72 145/88/70
f 339/87/69 150/135/110 155/138/112
f 337/57/44 339/87/69 56/58/45
f 241/102/83 279/116/95 123/103/84
f 60/199/164 380/200/165 48/201/166
f 48/201/166 170/133/109 174/62/46
f 380/200/165 335/202/167 419/203/168
f 419/203/168 333/132/108 48/201/166
f 405/204/169 117/205/170 333/132/108
f 409/206/171 405/204/169 121/207/172
f 409/206/171 118/208/173 266/209/174
f 266/209/174 117/205/170 405/204/169
f 276/210/105 177/130/104 117/205/170
f 266/209/174 118/208/173 178/211/175
f 178/211/175 118/208/173 305/212/176
f 404/213/177 118/214/173 409/215/171
f 418/216/178 305/217/176 118/214/173
f 379/218/179 418/216/178 307/219/180
f 379/218/179 49/220/181 305/217/176
f 49/221/181 171/222/182 314/223/183
f 45/224/184 309/225/185 303/226/186
f 45/224/184 303/226/186 314/227/183
f 303/226/186 114/124/102 178/228/175
f 114/124/102 264/123/101 276/127/105
f 309/225/185 151/229/187 126/122/100
f 126/122/100 114/124/102 303/226/186
f 151/229/187 242/230/188 230/231/189
f 230/232/189 242/233/188 149/234/190
f 242/233/188 254/235/191 183/236/192
f 184/237/193 151/229/187 313/238/194
f 184/237/193 254/239/191 242/230/188
f 254/239/191 184/237/193 188/240/195
f 317/241/196 184/237/193 313/238/194
f 317/241/196 319/242/197 188/240/195
f 321/243/198 319/242/197 185/244/199
f 321/243/198 192/245/200 188/240/195
f 192/245/200 258/246/201 256/247/202
f 256/248/202 258/249/201 191/250/203
f 191/251/203 258/252/201 260/253/204
f 258/254/201 192/255/200 196/256/205
f 323/257/206 321/258/198 189/259/207
f 323/260/206 196/256/205 192/255/200
f 189/261/207 321/243/198 185/244/199
f 189/261/207 185/244/199 255/262/208
f 255/262/208 185/244/199 181/263/209
f 319/242/197 317/241/196 181/263/209
f 146/264/210 313/238/194 57/265/211
f 181/263/209 317/241/196 313/238/194
f 181/263/209 146/264/210 240/266/212
f 146/264/210 57/265/211 207/267/213
f 57/265/211 175/268/214 252/269/215
f 45/224/184 57/265/211 309/225/185
f 45/224/184 171/270/182 175/268/214
f 171/222/182 49/221/181 61/271/216
f 383/272/217 379/218/179 53/273/218
f 383/272/217 61/274/216 49/220/181
f 383/272/217 397/275/219 95/276/220
f 95/276/220 222/277/221 209/278/222
f 209/279/222 252/280/215 175/281/214
f 209/282/222 62/283/223 176/284/224
f 62/285/223 209/286/222 222/287/221
f 222/287/221 224/288/225 100/289/226
f 512/290/227 103/291/228 519/292/229
f 224/293/225 222/277/221 95/276/220
f 95/276/220 397/275/219 399/294/230
f 397/275/219 97/295/231 101/296/232
f 383/272/217 53/273/218 65/297/233
f 65/297/233 97/295/231 397/275/219
f 65/297/233 328/298/234 211/299/235
f 211/299/235 223/300/236 97/295/231
f 223/300/236 225/301/237 101/296/232
f 514/302/238 225/301/237 521/303/239
f 514/302/238 513/304/240 101/296/232
f 513/304/240 515/305/241 399/294/230
f 401/306/242 103/291/228 512/290/227
f 107/307/243 403/308/244 411/309/245
f 403/308/244 107/307/243 103/291/228
f 519/310/229 517/311/246 224/288/225
f 103/312/228 107/313/243 228/314/247
f 107/313/243 411/315/245 281/316/248
f 107/313/243 281/316/248 294/317/249
f 281/316/248 369/318/250 371/319/251
f 369/318/250 281/316/248 372/320/252
f 281/316/248 411/315/245 429/321/253
f 411/309/245 283/322/254 373/323/255
f 359/324/256 423/325/257 429/326/253
f 423/327/257 357/328/258 372/320/252
f 427/329/259 360/330/260 365/331/261
f 427/332/259 365/333/261 357/328/258
f 365/333/261 362/334/262 356/335/263
f 362/336/262 425/337/264 426/338/265
f 425/337/264 360/330/260 361/339/266
f 362/336/262 365/331/261 360/330/260
f 361/340/266 364/341/267 363/342/268
f 364/341/267 361/340/266 360/343/260
f 364/344/267 427/345/259 423/325/257
f 359/324/256 358/346/269 363/347/268
f 376/348/270 375/349/271 358/346/269
f 359/324/256 373/323/255 376/348/270
f 373/323/255 283/322/254 368/350/272
f 287/351/273 413/352/274 375/349/271
f 375/349/271 376/348/270 368/350/272
f 368/350/272 370/353/275 297/354/276
f 283/322/254 295/355/277 370/353/275
f 370/353/275 295/355/277 282/356/278
f 282/356/278 295/355/277 229/357/279
f 295/355/277 283/322/254 109/358/280
f 109/358/280 283/322/254 411/309/245
f 109/358/280 403/308/244 401/306/242
f 105/359/281 227/360/282 229/357/279
f 227/360/282 106/361/283 110/362/284
f 428/363/285 108/364/286 280/365/287
f 520/366/288 518/367/289 400/368/290
f 98/369/291 396/370/292 398/371/293
f 396/370/292 96/372/294 100/289/226
f 382/373/295 62/285/223 96/372/294
f 382/373/295 378/374/296 50/375/297
f 382/373/295 66/376/298 54/377/299
f 66/376/298 382/373/295 396/370/292
f 98/369/291 223/300/236 211/299/235
f 211/299/235 328/298/234 310/378/300
f 310/378/300 306/379/301 54/377/299
f 310/378/300 127/380/302 120/381/303
f 407/382/304 417/383/305 306/379/301
f 378/374/296 54/377/299 306/379/301
f 417/383/305 304/384/306 50/375/297
f 407/382/304 410/385/89 116/386/92
f 116/386/92 304/384/306 417/383/305
f 304/387/306 116/112/92 180/388/307
f 265/111/91 277/114/93 180/388/307
f 277/389/93 263/115/94 112/390/308
f 112/390/308 302/391/309 315/392/310
f 112/390/308 124/118/97 308/393/311
f 308/393/311 124/118/97 149/234/190
f 312/394/312 149/234/190 183/236/192
f 316/395/313 183/236/192 187/396/314
f 187/396/314 183/236/192 254/235/191
f 187/396/314 191/250/203 320/397/315
f 320/398/315 191/251/203 195/399/316
f 195/399/316 199/400/317 324/401/318
f 195/399/316 260/253/204 467/402/319
f 203/403/320 452/404/321 447/405/322
f 492/406/323 467/407/319 200/408/324
f 489/409/325 453/410/326 447/405/322
f 489/409/325 488/411/327 448/412/328
f 491/413/329 448/412/328 488/411/327
f 193/414/330 323/260/206 189/259/207
f 193/414/330 197/415/331 325/416/332
f 261/417/333 259/418/334 194/419/335
f 261/417/333 197/415/331 193/414/330
f 193/414/330 189/259/207 257/420/336
f 190/421/337 194/419/335 259/418/334
f 194/419/335 190/421/337 320/398/315
f 186/422/338 318/423/339 320/397/315
f 186/422/338 182/424/340 316/395/313
f 147/425/341 312/394/312 316/395/313
f 147/425/341 58/426/342 308/393/311
f 46/427/343 302/391/309 308/393/311
f 46/427/343 172/428/344 315/392/310
f 50/429/297 304/387/306 315/430/310
f 172/431/344 176/284/224 62/283/223
f 46/427/343 58/426/342 176/432/224
f 207/267/213 252/433/215 176/432/224
f 147/425/341 240/266/212 207/267/213
f 182/424/340 253/434/345 240/266/212
f 182/424/340 186/422/338 255/262/208
f 190/435/337 257/436/336 255/262/208
f 198/437/346 261/417/333 194/419/335
f 198/437/346 194/419/335 322/438/347
f 486/181/348 490/439/349 454/440/350
f 485/195/351 446/194/352 454/440/350
f 446/194/352 202/193/353 326/192/354
f 202/441/353 446/442/352 452/404/321
f 485/443/351 199/444/317 467/407/319
f 326/445/354 327/446/355 201/447/356
f 326/445/354 202/441/353 203/403/320
f 467/407/319 260/448/204 196/256/205
f 327/446/355 453/410/326 448/412/328
f 201/447/356 448/412/328 449/449/357
f 449/182/357 454/440/350 326/192/354
f 491/413/329 486/450/348 449/449/357
f 267/451/358 119/452/90 410/385/89
f 267/451/358 410/385/89 407/382/304
f 120/381/303 127/380/302 271/453/359
f 127/380/302 459/454/360 131/455/361
f 131/455/361 273/456/362 271/453/359
f 132/457/363 231/458/364 128/459/365
f 132/460/363 128/461/365 271/453/359
f 271/453/359 128/461/365 119/452/90
f 128/462/365 350/463/366 329/464/367
f 329/464/367 334/76/60 119/110/90
f 329/464/367 63/74/58 51/73/57
f 210/465/368 350/463/366 64/466/369
f 63/74/58 329/464/367 350/463/366
f 213/467/370 69/468/371 63/74/58
f 69/468/371 387/469/372 385/70/54
f 387/469/372 69/468/371 434/470/373
f 69/468/371 213/467/370 437/471/374
f 213/467/370 70/472/375 435/473/376
f 435/473/376 74/474/377 215/475/378
f 73/476/379 434/470/373 437/471/374
f 73/476/379 389/477/380 439/478/381
f 389/477/380 71/479/382 433/480/383
f 391/481/384 75/482/385 71/479/382
f 75/483/385 79/484/386 216/485/387
f 214/486/388 71/479/382 75/482/385
f 214/486/388 438/487/389 433/480/383
f 438/487/389 212/69/53 67/68/52
f 433/480/383 67/68/52 387/469/372
f 436/488/390 68/489/391 212/490/53
f 68/489/391 384/491/392 60/199/164
f 60/199/164 208/64/49 212/490/53
f 60/199/164 384/491/392 380/200/165
f 380/200/165 384/491/392 52/492/393
f 52/492/393 384/491/392 64/466/369
f 384/491/392 68/489/391 386/493/394
f 386/493/394 70/472/375 64/466/369
f 386/493/394 440/494/395 435/473/376
f 386/493/394 68/489/391 436/488/390
f 436/488/390 72/495/396 388/496/397
f 72/495/396 436/488/390 438/497/389
f 80/498/398 442/499/399 76/500/400
f 392/501/401 390/502/402 444/503/403
f 200/408/324 196/256/205 323/260/206
f 76/500/400 442/499/399 444/503/403
f 84/504/404 394/505/405 392/506/401
f 441/507/406 445/508/407 442/509/399
f 80/510/398 392/511/401 443/512/408
f 81/513/409 83/514/410 393/515/411
f 81/513/409 393/515/411 391/516/384
f 79/484/386 393/515/411 83/514/410
f 393/515/411 79/484/386 75/483/385
f 83/514/410 84/504/404 80/498/398
f 394/505/405 84/504/404 88/517/412
f 85/518/413 83/519/410 81/520/409
f 85/518/413 89/521/414 87/522/415
f 87/523/415 88/517/412 84/504/404
f 87/524/415 91/525/416 92/526/417
f 93/527/418 221/528/419 91/529/416
f 91/529/416 87/530/415 89/531/414
f 89/531/414 220/532/420 221/528/419
f 220/533/420 89/521/414 85/518/413
f 85/518/413 81/520/409 218/534/421
f 81/520/409 77/535/422 217/536/423
f 77/537/422 73/476/379 215/475/378
f 391/481/384 389/477/380 73/476/379
f 74/474/377 78/538/424 217/539/423
f 78/540/424 82/541/425 218/534/421
f 82/541/425 86/542/426 219/543/427
f 90/544/428 220/533/420 219/543/427
f 90/545/428 94/546/429 221/528/419
f 92/526/417 91/525/416 221/547/419
f 90/545/428 88/548/412 92/549/417
f 86/542/426 394/550/405 88/551/412
f 86/542/426 82/541/425 392/501/401
f 388/496/397 390/552/402 78/538/424
f 74/474/377 435/473/376 440/494/395
f 70/472/375 213/467/370 210/465/368
f 64/466/369 350/463/366 52/492/393
f 231/553/364 350/463/366 128/462/365
f 231/553/364 121/207/172 335/202/167
f 52/492/393 335/202/167 380/200/165
f 350/463/366 231/553/364 335/202/167
f 121/207/172 405/204/169 419/203/168
f 121/554/172 231/458/364 130/555/430
f 130/555/430 231/458/364 233/556/431
f 233/557/431 140/558/432 236/559/433
f 233/556/431 231/458/364 132/457/363
f 140/560/432 132/460/363 273/456/362
f 131/455/361 137/561/434 275/562/435
f 138/563/436 143/564/437 470/565/438
f 469/42/439 136/566/440 468/41/441
f 470/565/438 143/564/437 136/566/440
f 235/567/442 468/41/441 136/566/440
f 136/566/440 143/564/437 238/568/443
f 135/569/444 468/41/441 235/567/442
f 235/567/442 238/568/443 142/570/445
f 135/571/444 472/572/446 468/573/441
f 135/571/444 142/574/445 471/575/447
f 430/576/448 262/577/449 205/578/450
f 430/576/448 205/578/450 278/579/451
f 140/558/432 275/580/435 278/579/451
f 262/577/449 139/581/452 236/559/433
f 236/559/433 140/558/432 205/578/450
f 236/559/433 139/581/452 134/582/453
f 458/13/454 139/581/452 457/14/455
f 274/583/456 272/584/457 134/585/453
f 274/16/456 134/582/453 139/581/452
f 134/585/453 272/584/457 268/586/458
f 272/584/457 133/587/459 268/586/458
f 268/586/458 133/587/459 129/588/460
f 129/588/460 133/587/459 234/589/461
f 274/583/456 133/587/459 272/584/457
f 234/590/461 232/591/462 129/588/460
f 129/588/460 232/591/462 307/219/180
f 307/219/180 232/591/462 311/592/463
f 311/592/463 232/591/462 328/298/234
f 232/591/462 459/454/360 328/298/234
f 459/454/360 127/380/302 310/378/300
f 459/454/360 232/591/462 131/455/361
f 232/591/462 234/589/461 137/561/434
f 311/592/463 328/298/234 53/273/218
f 53/273/218 328/298/234 65/297/233
f 311/592/463 53/273/218 307/219/180
f 53/273/218 379/218/179 307/219/180
f 307/219/180 122/593/464 129/588/460
f 122/593/464 268/586/458 129/588/460
f 268/586/458 409/215/171 121/554/172
f 122/593/464 404/213/177 409/215/171
f 122/593/464 307/219/180 418/216/178
f 121/554/172 130/555/430 268/586/458
f 130/555/430 134/585/453 268/586/458
f 134/585/453 130/555/430 233/556/431
f 134/582/453 233/557/431 236/559/433
f 139/581/452 204/594/465 457/14/455
f 204/594/465 473/32/466 457/14/455
f 473/32/466 204/594/465 431/595/467
f 262/577/449 430/576/448 432/596/468
f 204/594/465 139/581/452 262/577/449
f 204/594/465 262/577/449 432/596/468
f 431/595/467 432/596/468 237/597/469
f 432/596/468 430/576/448 141/598/470
f 141/598/470 430/576/448 476/599/471
f 141/598/470 475/600/472 471/575/447
f 238/568/443 237/597/469 141/598/470
f 237/597/469 238/568/443 143/564/437
f 431/595/467 138/563/436 474/601/473
f 420/75/59 406/108/88 119/110/90
f 98/369/291 102/602/474 225/301/237
f 518/367/289 516/603/475 104/604/476
f 516/603/475 100/289/226 224/288/225
f 226/605/477 228/314/247 108/364/286
f 228/314/247 294/317/249 280/365/287
f 402/606/478 366/607/479 284/608/480
f 293/609/481 352/610/482 412/611/483
f 280/365/287 294/317/249 371/319/251
f 296/612/484 284/608/480 366/607/479
f 416/613/485 284/608/480 288/614/486
f 414/615/487 288/614/486 351/616/488
f 288/614/486 284/608/480 296/612/484
f 298/617/489 296/612/484 285/618/490
f 296/612/484 371/319/251 369/318/250
f 285/618/490 374/619/491 413/620/274
f 374/619/491 377/621/492 356/335/263
f 374/619/491 285/618/490 369/318/250
f 377/621/492 372/320/252 357/328/258
f 424/622/493 413/620/274 374/619/491
f 424/623/493 358/346/269 375/349/271
f 424/623/493 426/624/265 363/347/268
f 356/335/263 362/334/262 426/625/265
f 363/342/268 426/626/265 425/627/264
f 413/620/274 415/628/494 289/629/495
f 422/630/496 292/631/497 354/632/498
f 354/633/498 289/629/495 415/628/494
f 300/634/499 354/632/498 292/631/497
f 300/635/499 298/617/489 289/629/495
f 300/634/499 293/636/481 351/637/488
f 351/616/488 288/614/486 298/617/489
f 282/356/278 421/638/500 402/606/478
f 421/638/500 280/365/287 366/607/479
f 352/639/482 290/640/501 414/615/487
f 367/641/502 402/606/478 416/613/485
f 110/362/284 428/363/285 421/638/500
f 106/361/283 400/368/290 428/363/285
f 286/642/503 416/613/485 414/615/487
f 351/637/488 293/636/481 412/643/483
f 297/354/276 370/353/275 367/641/502
f 297/354/276 286/642/503 290/640/501
f 299/644/504 290/640/501 352/645/482
f 301/646/505 293/636/481 300/634/499
f 301/647/505 355/648/506 352/649/482
f 353/650/507 292/651/497 422/652/496
f 301/646/505 300/634/499 292/631/497
f 353/650/507 355/648/506 301/647/505
f 291/653/508 299/644/504 355/654/506
f 287/351/273 297/354/276 299/644/504
f 291/653/508 415/655/494 413/352/274
f 415/655/494 291/653/508 353/656/507
f 57/265/211 313/238/194 309/225/185
f 309/225/185 313/238/194 151/229/187
f 72/495/396 214/657/388 216/658/387
f 72/495/396 76/659/400 390/552/402
f 79/484/386 80/498/398 76/500/400
f 390/502/402 392/501/401 82/541/425
f 443/660/408 462/661/509 445/508/407
f 444/662/403 462/661/509 443/660/408
f 444/662/403 442/509/399 445/508/407
f 447/405/322 453/410/326 327/446/355
f 249/663/510 463/664/511 500/179/146
f 477/665/148 463/666/511 249/663/510
f 461/190/156 166/667/157 451/668/512
f 480/669/513 249/663/510 460/187/153
f 499/188/154 496/670/514 247/671/144
f 455/189/155 466/672/515 166/667/157
f 465/673/158 166/667/157 466/672/515
f 465/673/158 466/672/515 168/160/132
f 455/189/155 395/158/130 168/160/132
f 464/674/149 451/668/512 166/667/157
f 400/368/290 104/604/476 108/364/286
f 400/368/290 106/361/283 521/303/239
f 66/376/298 211/299/235 310/378/300
f 267/451/358 120/381/303 271/453/359
f 267/451/358 271/453/359 119/452/90
f 278/675/451 473/676/466 469/677/439
f 451/668/512 480/669/513 484/678/516
f 464/674/149 477/665/148 480/669/513
f 164/679/136 346/680/517 482/196/161
f 483/681/160 479/161/133 250/152/124
f 347/154/126 481/156/128 484/678/516
f 463/682/511 477/181/148 482/196/161
f 165/153/125 250/152/124 479/161/133
f 347/154/126 165/153/125 478/157/129
f 261/417/333 198/683/346 486/450/348
f 446/442/352 485/443/351 492/406/323
f 199/679/317 485/195/351 490/439/349
f 198/682/346 324/680/318 490/439/349
f 491/413/329 488/411/327 197/415/331
f 325/416/332 197/415/331 488/411/327
f 325/416/332 489/409/325 487/684/518
f 452/404/321 492/406/323 487/684/518
f 460/187/153 249/663/510 496/670/514
f 496/670/514 500/179/146 160/685/145
f 498/155/127 499/188/154 161/686/152
f 463/664/511 346/687/517 497/180/147
f 164/164/136 494/163/135 497/180/147
f 162/166/120 494/163/135 495/688/123
f 163/689/122 493/690/519 498/155/127
f 248/691/121 495/151/123 493/690/519
f 68/489/391 60/199/164 212/490/53
f 208/67/49 59/66/51 212/69/53
f 387/469/372 67/68/52 385/70/54
f 275/692/435 458/693/454 457/694/455
f 275/692/435 137/695/434 133/696/459
f 234/697/461 133/696/459 137/695/434
f 458/693/454 275/692/435 274/698/456
f 158/145/118 502/144/117 506/171/140
f 245/176/141 156/170/139 503/175/143
f 506/171/140 503/175/143 156/170/139
f 154/101/82 502/144/117 504/699/116
f 159/140/114 501/139/113 504/142/116
f 341/90/72 511/141/115 510/700/520
f 343/197/162 509/198/163 510/700/520
f 343/197/162 157/94/76 508/93/75
f 153/91/73 508/93/75 507/92/74
f 243/95/77 507/92/74 505/173/142
f 501/139/113 511/141/115 341/90/72
f 515/305/241 512/290/227 99/701/521
f 105/359/281 401/306/242 515/305/241
f 227/360/282 105/359/281 513/304/240
f 104/604/476 516/603/475 517/311/246
f 398/371/293 100/289/226 516/603/475
f 226/605/477 517/311/246 519/310/229
f 99/701/521 512/290/227 519/292/229
f 102/602/474 520/366/288 521/303/239
f 102/602/474 398/371/293 518/367/289
f 514/302/238 521/303/239 106/361/283
f 94/702/429 92/526/417 221/547/419
f 22/703/42 5/1/1 25/3/3
f 5/1/1 14/6/6 10/2/2
f 20/11/11 34/13/13 26/12/12
f 27/21/21 29/22/22 11/9/9
f 29/22/22 27/21/21 15/24/24
f 2/40/35 9/25/25 13/27/27
f 13/27/27 16/26/26 3/29/29
f 16/26/26 15/24/24 8/28/28
f 15/24/24 16/26/26 4/30/30
f 15/24/24 4/30/30 29/22/22
f 1/31/31 19/16/16 6/8/8
f 26/12/12 35/15/15 24/17/17
f 21/33/33 30/20/20 37/32/32
f 24/17/17 30/20/20 17/18/18
f 21/33/33 7/23/23 17/18/18
f 8/28/28 7/23/23 23/34/34
f 41/37/37 40/38/38 2/35/35
f 39/42/39 3/29/29 23/34/34
f 4/30/30 9/39/25 42/43/40
f 4/30/30 42/43/40 28/5/5
f 28/5/5 31/44/41 10/2/2
f 41/704/37 38/705/36 40/47/38
f 39/706/39 23/707/34 37/708/32
f 37/708/32 33/709/14 25/45/3
f 23/707/34 21/710/33 37/708/32
f 40/47/38 38/705/36 39/706/39
f 31/46/41 42/711/40 40/47/38
f 37/708/32 25/45/3 39/706/39
f 40/47/38 39/706/39 25/45/3
f 34/51/13 22/48/42 33/50/14
f 5/55/1 22/48/42 19/52/16
f 19/52/16 1/53/31 5/55/1
f 170/134/109 44/56/43 174/59/46
f 174/59/46 56/58/45 251/61/48
f 60/199/164 174/62/46 208/64/49
f 251/712/48 173/65/50 208/67/49
f 385/70/54 59/66/51 381/72/56
f 385/70/54 381/72/56 63/74/58
f 51/73/57 381/72/56 334/76/60
f 332/77/61 420/75/59 47/71/55
f 349/107/66 332/77/61 169/78/62
f 169/78/62 47/71/55 173/65/50
f 169/713/62 173/79/50 43/81/64
f 169/713/62 43/81/64 349/83/66
f 330/82/65 43/81/64 336/84/67
f 338/99/80 336/84/67 144/85/68
f 239/97/71 144/85/68 206/86/47
f 251/714/48 206/86/47 173/79/50
f 56/58/45 145/88/70 206/60/47
f 145/88/70 153/91/73 239/89/71
f 243/715/77 152/96/78 239/97/71
f 152/96/78 340/98/79 144/85/68
f 340/98/79 154/101/82 338/99/80
f 338/99/80 148/100/81 336/84/67
f 123/103/84 111/104/85 336/84/67
f 330/82/65 111/104/85 349/83/66
f 179/113/86 115/106/87 349/107/66
f 420/75/59 332/77/61 406/108/88
f 410/109/89 406/108/88 265/111/91
f 265/111/91 115/106/87 277/114/93
f 277/389/93 179/105/86 263/115/94
f 269/117/96 263/115/94 123/103/84
f 112/390/308 263/115/94 124/118/97
f 230/232/189 124/118/97 279/116/95
f 230/231/189 279/120/95 126/122/100
f 126/122/100 270/119/98 114/124/102
f 270/119/98 125/121/99 264/123/101
f 264/123/101 113/125/103 276/127/105
f 113/125/103 331/128/106 177/126/104
f 117/205/170 177/130/104 333/132/108
f 48/201/166 333/132/108 170/133/109
f 348/129/107 331/128/106 170/134/109
f 125/121/99 337/57/44 113/125/103
f 501/139/113 155/138/112 504/142/116
f 504/699/116 502/144/117 246/146/119
f 158/145/118 162/147/120 246/146/119
f 246/716/119 248/149/121 159/140/114
f 493/690/519 495/151/123 165/153/125
f 493/690/519 165/153/125 498/155/127
f 455/189/155 481/156/128 395/158/130
f 395/158/130 478/157/129 450/159/131
f 167/717/159 168/160/132 408/162/134
f 495/688/123 494/163/135 250/165/124
f 497/180/147 494/163/135 344/167/137
f 344/169/137 162/147/120 342/168/138
f 160/178/145 344/169/137 156/170/139
f 503/175/143 506/171/140 152/96/78
f 507/92/74 157/94/76 505/173/142
f 243/715/77 505/174/142 152/96/78
f 156/170/139 245/176/141 160/178/145
f 160/685/145 500/179/146 344/167/137
f 482/196/161 477/181/148 456/183/150
f 161/185/152 247/186/144 157/94/76
f 498/155/127 347/154/126 499/188/154
f 484/678/516 481/156/128 461/190/156
f 464/182/149 166/191/157 456/183/150
f 456/183/150 465/192/158 408/194/134
f 483/681/160 408/162/134 479/161/133
f 408/194/134 483/195/160 456/183/150
f 510/700/520 509/198/163 341/90/72
f 510/700/520 511/141/115 343/197/162
f 159/140/114 163/150/122 343/197/162
f 506/171/140 502/144/117 340/98/79
f 341/90/72 339/87/69 155/138/112
f 148/100/81 241/102/83 123/103/84
f 60/199/164 48/201/166 174/62/46
f 380/200/165 419/203/168 48/201/166
f 419/203/168 405/204/169 333/132/108
f 409/206/171 266/209/174 405/204/169
f 266/209/174 276/210/105 117/205/170
f 276/210/105 266/209/174 178/211/175
f 314/223/183 178/211/175 305/212/176
f 404/213/177 418/216/178 118/214/173
f 418/216/178 379/218/179 305/217/176
f 305/212/176 49/221/181 314/223/183
f 171/270/182 45/224/184 314/227/183
f 314/227/183 303/226/186 178/228/175
f 178/228/175 114/124/102 276/127/105
f 309/225/185 126/122/100 303/226/186
f 126/122/100 151/229/187 230/231/189
f 124/118/97 230/232/189 149/234/190
f 149/234/190 242/233/188 183/236/192
f 151/229/187 184/237/193 242/230/188
f 256/247/202 254/239/191 188/240/195
f 184/237/193 317/241/196 188/240/195
f 319/242/197 321/243/198 188/240/195
f 188/240/195 192/245/200 256/247/202
f 187/396/314 256/248/202 191/250/203
f 195/399/316 191/251/203 260/253/204
f 260/448/204 258/254/201 196/256/205
f 321/718/198 323/260/206 192/255/200
f 257/719/336 189/261/207 255/262/208
f 253/434/345 255/262/208 181/263/209
f 185/244/199 319/242/197 181/263/209
f 146/264/210 181/263/209 313/238/194
f 253/434/345 181/263/209 240/266/212
f 240/266/212 146/264/210 207/267/213
f 207/267/213 57/265/211 252/269/215
f 57/265/211 45/224/184 175/268/214
f 175/281/214 171/222/182 61/271/216
f 379/218/179 383/272/217 49/220/181
f 61/274/216 383/272/217 95/276/220
f 61/274/216 95/276/220 209/278/222
f 61/271/216 209/279/222 175/281/214
f 252/720/215 209/282/222 176/284/224
f 96/372/294 62/285/223 222/287/221
f 96/372/294 222/287/221 100/289/226
f 99/701/521 224/293/225 95/276/220
f 99/701/521 95/276/220 399/294/230
f 399/294/230 397/275/219 101/296/232
f 383/272/217 65/297/233 397/275/219
f 65/297/233 211/299/235 97/295/231
f 97/295/231 223/300/236 101/296/232
f 225/301/237 514/302/238 101/296/232
f 101/296/232 513/304/240 399/294/230
f 515/305/241 401/306/242 512/290/227
f 401/306/242 403/308/244 103/291/228
f 226/605/477 103/312/228 228/314/247
f 228/314/247 107/313/243 294/317/249
f 294/317/249 281/316/248 371/319/251
f 377/621/492 369/318/250 372/320/252
f 372/320/252 281/316/248 429/321/253
f 429/326/253 411/309/245 373/323/255
f 373/323/255 359/324/256 429/326/253
f 429/321/253 423/327/257 372/320/252
f 423/327/257 427/332/259 357/328/258
f 357/328/258 365/333/261 356/335/263
f 425/337/264 362/336/262 360/330/260
f 427/721/259 364/341/267 360/343/260
f 359/324/256 364/344/267 423/325/257
f 364/344/267 359/324/256 363/347/268
f 358/346/269 359/324/256 376/348/270
f 376/348/270 373/323/255 368/350/272
f 287/351/273 375/349/271 368/350/272
f 287/351/273 368/350/272 297/354/276
f 368/350/272 283/322/254 370/353/275
f 367/641/502 370/353/275 282/356/278
f 110/362/284 282/356/278 229/357/279
f 229/357/279 295/355/277 109/358/280
f 403/308/244 109/358/280 411/309/245
f 105/359/281 109/358/280 401/306/242
f 109/358/280 105/359/281 229/357/279
f 229/357/279 227/360/282 110/362/284
f 421/638/500 428/363/285 280/365/287
f 102/602/474 98/369/291 398/371/293
f 398/371/293 396/370/292 100/289/226
f 396/370/292 382/373/295 96/372/294
f 62/285/223 382/373/295 50/375/297
f 378/374/296 382/373/295 54/377/299
f 98/369/291 66/376/298 396/370/292
f 66/376/298 98/369/291 211/299/235
f 66/376/298 310/378/300 54/377/299
f 306/379/301 310/378/300 120/381/303
f 120/381/303 407/382/304 306/379/301
f 417/383/305 378/374/296 306/379/301
f 378/374/296 417/383/305 50/375/297
f 407/382/304 116/386/92 417/383/305
f 315/430/310 304/387/306 180/388/307
f 116/112/92 265/111/91 180/388/307
f 180/722/307 277/389/93 112/390/308
f 180/722/307 112/390/308 315/392/310
f 302/391/309 112/390/308 308/393/311
f 312/394/312 308/393/311 149/234/190
f 316/395/313 312/394/312 183/236/192
f 318/423/339 316/395/313 187/396/314
f 256/248/202 187/396/314 254/235/191
f 318/423/339 187/396/314 320/397/315
f 322/438/347 320/398/315 195/399/316
f 322/438/347 195/399/316 324/401/318
f 199/400/317 195/399/316 467/402/319
f 487/684/518 492/406/323 200/408/324
f 487/684/518 489/409/325 447/405/322
f 453/410/326 489/409/325 448/412/328
f 323/260/206 193/414/330 325/416/332
f 259/418/334 261/417/333 193/414/330
f 259/418/334 193/414/330 257/420/336
f 257/420/336 190/421/337 259/418/334
f 322/438/347 194/419/335 320/398/315
f 190/435/337 186/422/338 320/397/315
f 318/423/339 186/422/338 316/395/313
f 182/424/340 147/425/341 316/395/313
f 312/394/312 147/425/341 308/393/311
f 58/426/342 46/427/343 308/393/311
f 302/391/309 46/427/343 315/392/310
f 172/431/344 50/429/297 315/430/310
f 50/429/297 172/431/344 62/283/223
f 172/428/344 46/427/343 176/432/224
f 58/426/342 207/267/213 176/432/224
f 58/426/342 147/425/341 207/267/213
f 147/425/341 182/424/340 240/266/212
f 253/434/345 182/424/340 255/262/208
f 186/422/338 190/435/337 255/262/208
f 324/401/318 198/437/346 322/438/347
f 449/182/357 486/181/348 454/440/350
f 490/439/349 485/195/351 454/440/350
f 454/440/350 446/194/352 326/192/354
f 203/403/320 202/441/353 452/404/321
f 492/406/323 485/443/351 467/407/319
f 327/446/355 326/445/354 203/403/320
f 200/408/324 467/407/319 196/256/205
f 201/447/356 327/446/355 448/412/328
f 201/191/356 449/182/357 326/192/354
f 448/412/328 491/413/329 449/449/357
f 120/381/303 267/451/358 407/382/304
f 127/380/302 131/455/361 271/453/359
f 273/456/362 132/460/363 271/453/359
f 128/462/365 329/464/367 119/110/90
f 334/76/60 329/464/367 51/73/57
f 210/465/368 63/74/58 350/463/366
f 210/465/368 213/467/370 63/74/58
f 63/74/58 69/468/371 385/70/54
f 439/478/381 387/469/372 434/470/373
f 434/470/373 69/468/371 437/471/374
f 437/471/374 213/467/370 435/473/376
f 437/471/374 435/473/376 215/475/378
f 215/475/378 73/476/379 437/471/374
f 434/470/373 73/476/379 439/478/381
f 439/478/381 389/477/380 433/480/383
f 389/477/380 391/481/384 71/479/382
f 216/723/387 214/486/388 75/482/385
f 71/479/382 214/486/388 433/480/383
f 433/480/383 438/487/389 67/68/52
f 439/478/381 433/480/383 387/469/372
f 438/497/389 436/488/390 212/490/53
f 384/491/392 386/493/394 64/466/369
f 70/472/375 386/493/394 435/473/376
f 440/494/395 386/493/394 436/488/390
f 440/494/395 436/488/390 388/496/397
f 214/657/388 72/495/396 438/497/389
f 325/416/332 200/408/324 323/260/206
f 390/502/402 76/500/400 444/503/403
f 80/498/398 84/504/404 392/506/401
f 80/510/398 441/507/406 442/509/399
f 441/507/406 80/510/398 443/512/408
f 77/724/422 81/513/409 391/516/384
f 391/516/384 393/515/411 75/483/385
f 79/484/386 83/514/410 80/498/398
f 83/519/410 85/518/413 87/522/415
f 83/514/410 87/523/415 84/504/404
f 88/725/412 87/524/415 92/526/417
f 93/527/418 91/529/416 89/531/414
f 93/527/418 89/531/414 221/528/419
f 219/543/427 220/533/420 85/518/413
f 219/543/427 85/518/413 218/534/421
f 218/534/421 81/520/409 217/536/423
f 217/539/423 77/537/422 215/475/378
f 77/537/422 391/481/384 73/476/379
f 215/475/378 74/474/377 217/539/423
f 217/536/423 78/540/424 218/534/421
f 218/534/421 82/541/425 219/543/427
f 86/542/426 90/544/428 219/543/427
f 220/532/420 90/545/428 221/528/419
f 94/546/429 90/545/428 92/549/417
f 90/544/428 86/542/426 88/551/412
f 394/550/405 86/542/426 392/501/401
f 74/474/377 388/496/397 78/538/424
f 388/496/397 74/474/377 440/494/395
f 64/466/369 70/472/375 210/465/368
f 52/492/393 350/463/366 335/202/167
f 335/202/167 121/207/172 419/203/168
f 140/726/432 233/556/431 132/457/363
f 275/562/435 140/560/432 273/456/362
f 273/456/362 131/455/361 275/562/435
f 474/601/473 138/563/436 470/565/438
f 469/42/439 470/565/438 136/566/440
f 235/567/442 136/566/440 238/568/443
f 135/569/444 235/567/442 142/570/445
f 472/572/446 135/571/444 471/575/447
f 476/599/471 430/576/448 278/579/451
f 205/578/450 140/558/432 278/579/451
f 262/577/449 236/559/433 205/578/450
f 458/13/454 274/16/456 139/581/452
f 328/298/234 459/454/360 310/378/300
f 131/455/361 232/591/462 137/561/434
f 268/586/458 122/593/464 409/215/171
f 404/213/177 122/593/464 418/216/178
f 431/595/467 204/594/465 432/596/468
f 138/563/436 431/595/467 237/597/469
f 237/597/469 432/596/468 141/598/470
f 475/600/472 141/598/470 476/599/471
f 142/574/445 141/598/470 471/575/447
f 142/570/445 238/568/443 141/598/470
f 138/563/436 237/597/469 143/564/437
f 473/32/466 431/595/467 474/601/473
f 334/76/60 420/75/59 119/110/90
f 223/300/236 98/369/291 225/301/237
f 400/368/290 518/367/289 104/604/476
f 517/311/246 516/603/475 224/288/225
f 104/604/476 226/605/477 108/364/286
f 108/364/286 228/314/247 280/365/287
f 416/613/485 402/606/478 284/608/480
f 366/607/479 280/365/287 371/319/251
f 371/319/251 296/612/484 366/607/479
f 414/615/487 416/613/485 288/614/486
f 412/727/483 414/615/487 351/616/488
f 298/617/489 288/614/486 296/612/484
f 289/629/495 298/617/489 285/618/490
f 285/618/490 296/612/484 369/318/250
f 377/621/492 374/619/491 369/318/250
f 356/335/263 377/621/492 357/328/258
f 356/335/263 424/622/493 374/619/491
f 413/352/274 424/623/493 375/349/271
f 358/346/269 424/623/493 363/347/268
f 424/622/493 356/335/263 426/625/265
f 361/340/266 363/342/268 425/627/264
f 285/618/490 413/620/274 289/629/495
f 422/728/496 354/633/498 415/628/494
f 354/633/498 300/635/499 289/629/495
f 300/635/499 351/616/488 298/617/489
f 367/641/502 282/356/278 402/606/478
f 402/606/478 421/638/500 366/607/479
f 412/727/483 352/639/482 414/615/487
f 286/642/503 367/641/502 416/613/485
f 282/356/278 110/362/284 421/638/500
f 110/362/284 106/361/283 428/363/285
f 290/640/501 286/642/503 414/615/487
f 286/642/503 297/354/276 367/641/502
f 299/644/504 297/354/276 290/640/501
f 355/654/506 299/644/504 352/645/482
f 293/729/481 301/647/505 352/649/482
f 292/651/497 353/650/507 301/647/505
f 353/656/507 291/653/508 355/654/506
f 291/653/508 287/351/273 299/644/504
f 287/351/273 291/653/508 413/352/274
f 422/730/496 415/655/494 353/656/507
f 76/659/400 72/495/396 216/658/387
f 388/496/397 72/495/396 390/552/402
f 216/485/387 79/484/386 76/500/400
f 78/540/424 390/502/402 82/541/425
f 441/731/406 443/660/408 445/508/407
f 392/732/401 444/662/403 443/660/408
f 462/661/509 444/662/403 445/508/407
f 203/403/320 447/405/322 327/446/355
f 496/670/514 249/663/510 500/179/146
f 480/669/513 477/665/148 249/663/510
f 484/678/516 480/669/513 460/187/153
f 161/686/152 499/188/154 247/671/144
f 461/190/156 455/189/155 166/667/157
f 167/717/159 465/673/158 168/160/132
f 466/672/515 455/189/155 168/160/132
f 428/363/285 400/368/290 108/364/286
f 520/366/288 400/368/290 521/303/239
f 469/677/439 468/733/441 471/734/447
f 471/734/447 475/735/472 476/736/471
f 468/733/441 472/737/446 471/734/447
f 474/738/473 470/739/438 473/676/466
f 278/675/451 457/740/455 473/676/466
f 473/676/466 470/739/438 469/677/439
f 469/677/439 471/734/447 278/675/451
f 476/736/471 278/675/451 471/734/447
f 461/190/156 451/668/512 484/678/516
f 451/668/512 464/674/149 480/669/513
f 483/195/160 164/679/136 482/196/161
f 164/741/136 483/681/160 250/152/124
f 460/187/153 347/154/126 484/678/516
f 346/680/517 463/682/511 482/196/161
f 478/157/129 165/153/125 479/161/133
f 481/156/128 347/154/126 478/157/129
f 491/413/329 261/417/333 486/450/348
f 452/404/321 446/442/352 492/406/323
f 324/680/318 199/679/317 490/439/349
f 486/181/348 198/682/346 490/439/349
f 261/417/333 491/413/329 197/415/331
f 489/409/325 325/416/332 488/411/327
f 200/408/324 325/416/332 487/684/518
f 447/405/322 452/404/321 487/684/518
f 499/188/154 460/187/153 496/670/514
f 247/671/144 496/670/514 160/685/145
f 345/742/151 498/155/127 161/686/152
f 500/179/146 463/664/511 497/180/147
f 346/687/517 164/164/136 497/180/147
f 248/743/121 162/166/120 495/688/123
f 345/742/151 163/689/122 498/155/127
f 163/689/122 248/691/121 493/690/519
f 278/744/451 275/692/435 457/694/455
f 274/698/456 275/692/435 133/696/459
f 342/168/138 158/145/118 506/171/140
f 505/174/142 245/176/141 503/175/143
f 342/168/138 506/171/140 156/170/139
f 244/143/111 154/101/82 504/699/116
f 246/716/119 159/140/114 504/142/116
f 509/198/163 343/197/162 508/93/75
f 243/95/77 153/91/73 507/92/74
f 155/138/112 501/139/113 341/90/72
f 399/294/230 515/305/241 99/701/521
f 513/304/240 105/359/281 515/305/241
f 514/302/238 227/360/282 513/304/240
f 226/605/477 104/604/476 517/311/246
f 518/367/289 398/371/293 516/603/475
f 103/312/228 226/605/477 519/310/229
f 224/293/225 99/701/521 519/292/229
f 225/301/237 102/602/474 521/303/239
f 520/366/288 102/602/474 518/367/289
f 227/360/282 514/302/238 106/361/283
