v 0.438035 0.272690 -0.545120
v 0.073000 0.167185 -0.591818
v 0.294458 0.162481 -0.502061
v 0.232249 0.139032 -0.532871
v 0.401065 0.221484 -0.573186
v -0.012689 0.246010 -0.671156
v 0.355541 0.187878 -0.603099
v 0.326301 0.159051 -0.623454
v 0.164043 0.122607 -0.495967
v 0.021306 0.296476 -0.643290
v 0.293555 0.145473 -0.643299
v 0.146874 0.121117 -0.526206
v 0.256387 0.141565 -0.664009
v 0.158390 0.130597 -0.597187
v 0.069939 0.205313 -0.628151
v 0.222169 0.128298 -0.684601
v 0.068953 0.111823 -0.554193
v 0.199057 0.202691 -0.674101
v 0.188296 0.128775 -0.702838
v 0.060229 0.114078 -0.577577
v 0.143380 0.225037 -0.680822
v 0.161402 0.128672 -0.717393
v 0.076863 0.139550 -0.654050
v 0.095956 0.208664 -0.682762
v 0.131110 0.112740 -0.736283
v 0.038924 0.136549 -0.641782
v 0.077809 0.219195 -0.669272
v 0.090891 0.123939 -0.756258
v 0.019342 0.157358 -0.683356
v 0.046565 0.258326 -0.711017
v 0.042307 0.118002 -0.783460
v -0.000573 0.195823 -0.707891
v -0.034122 0.130279 -0.822841
v -0.052045 0.185165 -0.768769
v -0.036785 0.303918 -0.450651
v -0.089934 0.155418 -0.849047
v -0.102362 0.194931 -0.809246
v -0.130207 0.233779 -0.858455
v 0.022341 0.145944 -0.693837
v 0.013419 0.147998 -0.724925
v -0.019241 0.210526 -0.357402
v -0.107721 0.149847 -0.395213
v -0.021607 0.208072 -0.339222
v -0.063970 0.136391 -0.656620
v -0.042361 0.130835 -0.641694
v -0.037547 0.109151 -0.648211
v -0.057999 0.112603 -0.664799
v -0.091298 0.142263 -0.645012
v -0.051176 0.135492 -0.613994
v -0.040384 0.090817 -0.627658
v -0.078856 0.104413 -0.659436
v -0.096841 0.128310 -0.627328
v -0.069694 0.123509 -0.606390
v -0.062331 0.093388 -0.615756
v -0.089053 0.100313 -0.637259
v 0.055338 0.101804 -0.495200
v -0.009125 0.328234 -0.575148
v -0.000658 0.099491 -0.384921
v 0.081180 0.172998 -0.650443
v 0.054080 0.202568 -0.666708
v 0.038209 0.218295 -0.690088
v -0.026722 0.182073 -0.750402
v 0.015951 0.274863 -0.711902
v -0.009961 0.210995 -0.702523
v -0.028627 0.272049 -0.741709
v -0.020694 0.118650 -0.496436
v -0.044763 0.219126 -0.758551
v -0.035653 0.239359 -0.736588
v -0.081172 0.292262 -0.755409
v -0.120061 0.286053 -0.805792
v -0.091911 0.256143 -0.768275
v -0.072254 0.259579 -0.748713
v -0.089505 0.215140 -0.692756
v 0.066552 0.222159 -0.662918
v 0.047558 0.258045 -0.694239
v 0.026328 0.226961 -0.685772
v 0.127306 0.126801 -0.594305
v 0.104722 0.171646 -0.627341
v -0.012198 0.110821 -0.350010
v -0.106710 0.151744 -0.361333
v -0.024624 0.215957 -0.319418
v -0.132204 0.144192 -0.325197
v -0.025199 0.113614 -0.326017
v -0.025409 0.218655 -0.290710
v -0.138410 0.160397 -0.262020
v -0.008181 0.108878 -0.250259
v -0.019884 0.219252 -0.238169
v -0.079180 0.183075 -0.219612
v -0.008378 0.156754 -0.210774
v -0.137089 0.189837 -0.698067
v -0.154737 0.210262 -0.680931
v -0.230179 0.263235 -0.683622
v -0.256419 0.226813 -0.686893
v -0.234917 0.248908 -0.704997
v -0.585922 0.508846 -1.006366
v -0.424031 0.421306 -0.854481
v -0.600450 0.491748 -0.994669
v -0.438644 0.392928 -0.856143
v -0.420803 0.409244 -0.870608
v -0.587319 0.522114 -0.991124
v -0.728207 0.799983 -1.047851
v -0.107475 0.250190 -0.595305
v -0.531810 0.436796 0.086858
v -0.668302 0.510382 -0.918003
v -0.630060 0.455854 -0.708177
v -0.670591 0.487512 -0.486244
v -0.796096 0.492347 -0.301009
v -0.726855 0.349387 -0.450911
v -0.670346 0.247238 -0.492321
v -0.537797 0.306622 -0.243005
v -0.554981 0.292479 -0.577798
v -0.434152 0.278921 -0.482127
v -0.533360 0.371062 -0.620057
v -0.343620 0.244163 -0.437938
v -0.571170 0.422865 -0.692978
v -0.524822 0.344461 -0.572399
v -0.124387 0.300577 -0.246886
v -0.177692 0.290967 -0.227782
v -0.164892 0.264719 -0.282171
v -0.127149 0.296407 -0.293878
v -0.155615 0.357794 -0.259995
v -0.201557 0.335606 -0.245220
v -0.191280 0.310614 -0.287100
v -0.158719 0.337215 -0.291623
v -0.146468 0.344135 -0.218776
v -0.176635 0.334997 -0.214884
v -0.110223 0.275671 -0.134043
v -0.084815 0.283567 -0.136756
v -0.091913 0.302274 -0.124002
v -0.110183 0.296022 -0.118727
v -0.102921 0.262408 -0.112761
v -0.104999 0.289411 -0.097513
v -0.071420 0.273397 -0.113397
v -0.081023 0.299137 -0.100566
v -0.188875 0.428883 0.005659
v -0.218280 0.411962 0.007058
v -0.176575 0.415118 0.014363
v -0.209208 0.395681 0.015225
v -0.254396 0.534766 0.156009
v -0.285978 0.517753 0.157568
v -0.247307 0.509598 0.171987
v -0.279094 0.500830 0.166358
v -0.230386 0.591439 0.186607
v -0.311971 0.561944 0.227137
v -0.208910 0.561699 0.200987
v -0.302298 0.531031 0.239076
v -0.266396 0.587648 0.222474
v -0.251954 0.555916 0.234691
v -0.204623 0.596787 0.206941
v -0.218073 0.626752 0.214721
v -0.254970 0.605987 0.240315
v -0.245640 0.585268 0.241323
v -0.186137 0.582421 0.216788
v -0.182139 0.597412 0.245994
v -0.218863 0.574712 0.266666
v -0.226892 0.561105 0.241320
v -0.147043 0.459117 0.284708
v -0.264237 0.561876 0.247794
v -0.316040 0.580697 0.271368
v -0.265492 0.582938 0.271664
v -0.320462 0.555346 0.245655
v -0.271788 0.540539 0.292956
v -0.273904 0.531041 0.266577
v -0.310300 0.544052 0.295555
v -0.316050 0.531108 0.269899
v -0.277184 0.416883 0.335038
v -0.276643 0.498944 0.210031
v -0.292970 0.488265 0.169424
v -0.252357 0.480634 0.181226
v -0.242090 0.501799 0.229608
v -0.275519 0.475336 0.229778
v -0.234704 0.463227 0.221737
v -0.210755 0.541490 0.289912
v -0.029211 0.197265 -0.742055
v 0.008110 0.139458 -0.798562
v 0.000114 0.178270 -0.740152
v -0.084193 0.109507 -0.616786
v 0.390105 0.240112 -0.576171
v 0.331935 0.211102 -0.612196
v 0.304175 0.205606 -0.628070
v 0.273368 0.193253 -0.646674
v 0.239853 0.185847 -0.665961
v -0.038858 0.198666 -0.814611
v -0.085866 0.202705 -0.839387
v 0.010193 0.231595 -0.779861
v -0.027165 0.253036 -0.776248
v -0.080521 0.279047 -0.779843
v 0.007258 0.216567 -0.789385
v 0.057412 0.224940 -0.767050
v 0.428418 0.251953 -0.647900
v 0.379677 0.222633 -0.707044
v 0.133400 0.264886 -0.614626
v 0.392694 0.231938 -0.793019
v 0.356172 0.218516 -0.799578
v 0.287948 0.193257 -0.759421
v 0.295472 0.203441 -0.867117
v 0.269595 0.197711 -0.865190
v 0.196968 0.189330 -0.808827
v 0.186873 0.191501 -0.851172
v 0.135252 0.198255 -0.846882
v 0.109987 0.249969 -0.818860
v -0.003478 0.199254 -0.855587
v -0.069293 0.204582 -0.870417
v 0.129022 0.182165 -0.844759
v 0.095949 0.172685 -0.842061
v 0.081345 0.182776 -0.354878
v 0.135686 0.199805 -0.945722
v 0.159864 0.198247 -0.931602
v 0.162354 0.173350 -0.933661
v 0.169194 0.201863 -0.918676
v 0.134918 0.212132 -0.975230
v 0.183364 0.227986 -0.942004
v 0.188668 0.163765 -0.951727
v 0.140246 0.160993 -0.978342
v 0.155042 0.206464 -0.992566
v 0.187922 0.208346 -0.974494
v 0.191540 0.173622 -0.976607
v 0.158660 0.171740 -0.994678
v 0.188270 0.216319 -0.772578
v 0.154719 0.252567 -0.732157
v 0.126318 0.265159 -0.730632
v 0.056440 0.295509 -0.813433
v 0.066635 0.310756 -0.749981
v 0.071541 0.152586 -0.456203
v -0.008483 0.287931 -0.794736
v -0.008009 0.291203 -0.763774
v -0.068339 0.301214 -0.792023
v -0.050981 0.300255 -0.770145
v 0.210265 0.198730 -0.545711
v 0.089162 0.265535 -0.672678
v 0.277456 0.193257 -0.792061
v 0.216865 0.216831 -0.764963
v 0.067777 0.185647 -0.336028
v 0.087553 0.194317 -0.324962
v 0.103880 0.182664 -0.277183
v 0.057173 0.163877 -0.224819
v 0.208030 0.136526 -0.537812
v 0.255305 0.143995 -0.505943
v 0.342384 0.116221 -0.493667
v 0.328274 0.075270 -0.481428
v 0.334442 0.096799 -0.509298
v 0.831556 0.265065 -0.557265
v 0.618037 0.157130 -0.551881
v 0.833006 0.256750 -0.533412
v 0.630205 0.136559 -0.528729
v 0.627881 0.139561 -0.553729
v 0.811520 0.267867 -0.556257
v 0.899274 0.568670 -0.464431
v 0.142211 0.276925 -0.488290
v 0.535861 0.245203 0.220722
v 0.842723 0.321106 -0.426987
v 0.768273 0.235582 -0.341161
v 0.781625 0.228877 -0.257627
v 0.942211 0.231688 -0.171123
v 0.833736 0.064326 -0.256902
v 0.742627 -0.051836 -0.245444
v 0.521120 -0.000638 0.003647
v 0.608730 0.034637 -0.308223
v 0.495857 0.068614 -0.250723
v 0.605510 0.119343 -0.340324
v 0.405755 0.088535 -0.257844
v 0.699590 0.185600 -0.366366
v 0.586238 0.103735 -0.305198
v 0.087280 0.265783 -0.166506
v 0.137657 0.269505 -0.201289
v 0.118740 0.279441 -0.222251
v 0.078439 0.295565 -0.198788
v 0.114436 0.298737 -0.131309
v 0.160674 0.290693 -0.158927
v 0.140216 0.322978 -0.190377
v 0.107222 0.331150 -0.168574
v 0.112013 0.254532 -0.147336
v 0.140997 0.256324 -0.162769
v 0.083868 0.173995 -0.230318
v 0.059049 0.171263 -0.220784
v 0.069545 0.157722 -0.204556
v 0.087899 0.156347 -0.212410
v 0.081912 0.139185 -0.247840
v 0.087187 0.130409 -0.214025
v 0.050922 0.137127 -0.234851
v 0.062874 0.132926 -0.204432
v 0.171794 0.166093 -0.034977
v 0.202482 0.158078 -0.047100
v 0.162000 0.148550 -0.038559
v 0.196021 0.139695 -0.052965
v 0.247697 0.142910 0.143873
v 0.280190 0.133871 0.131215
v 0.236290 0.124460 0.141339
v 0.273379 0.115165 0.124631
v 0.249949 0.151069 0.216999
v 0.338423 0.128382 0.167136
v 0.234060 0.118203 0.216104
v 0.328749 0.090313 0.174447
v 0.300892 0.137199 0.213343
v 0.293812 0.109082 0.211353
v 0.240892 0.132910 0.248479
v 0.257401 0.167378 0.246949
v 0.304693 0.149793 0.246053
v 0.294784 0.116045 0.244445
v 0.244942 0.134996 0.291106
v 0.261322 0.165307 0.302561
v 0.304684 0.146150 0.296809
v 0.294034 0.116729 0.286390
v 0.295487 0.077520 0.415321
v 0.335190 0.132352 0.237401
v 0.377314 0.141064 0.190815
v 0.350306 0.163849 0.229623
v 0.364572 0.104235 0.198516
v 0.383098 0.148075 0.254729
v 0.365554 0.125871 0.253262
v 0.405314 0.132936 0.226612
v 0.391153 0.107013 0.225016
v 0.451111 0.086503 0.347834
v 0.233174 0.091543 0.134082
v 0.257494 0.119198 0.109271
v 0.213296 0.127441 0.146449
v 0.168120 0.093679 0.152532
v 0.174680 0.124816 0.127544
v 0.181854 0.124413 0.170315
v 0.095569 0.096057 0.202533
v 0.059530 0.244600 -0.847546
v 0.057826 0.193572 -0.834391
v 0.176917 0.191077 -0.991486
v -0.082318 0.214707 -0.424409
v 0.050142 0.235895 -0.385198
v 0.096572 0.244201 -0.423664
v -0.107925 0.195681 -0.509567
vt 0.474247 1.000024
vt 0.432881 1.000024
vt 0.434057 0.893539
vt 0.509861 1.000024
vt 0.500227 0.768354
vt 0.559969 0.937079
vt 0.645064 0.954173
vt 0.560228 0.940601
vt 0.583639 0.999781
vt 0.500485 0.773130
vt 0.557266 0.999781
vt 0.078178 0.645053
vt 0.145329 0.600948
vt 0.009554 0.578044
vt 0.629598 0.999781
vt 0.656534 0.999781
vt 0.043058 0.667957
vt 0.009554 0.620213
vt 0.512543 0.981892
vt 0.471564 0.821771
vt 0.527454 0.989559
vt 0.480692 0.821771
vt 0.462656 0.892018
vt 0.010156 0.671319
vt 0.079997 0.644406
vt 0.044254 0.667717
vt 0.462330 0.893296
vt 0.363979 0.871999
vt 0.417906 0.999781
vt 0.180894 0.905878
vt 0.211214 0.926339
vt 0.151369 0.927184
vt 0.432105 0.999781
vt 0.359627 0.798296
vt 0.329341 0.825147
vt 0.386839 0.999781
vt 0.298881 0.891138
vt 0.380070 1.000024
vt 0.307338 1.000024
vt 0.334880 0.898555
vt 0.095969 0.432562
vt 0.010156 0.431276
vt 0.010156 0.398660
vt 0.265186 1.000024
vt 0.239898 1.000024
vt 0.239968 0.910398
vt 0.267768 0.860783
vt 0.297710 0.999781
vt 0.009554 0.431384
vt 0.093871 0.436902
vt 0.086972 0.413221
vt 0.202414 0.914836
vt 0.196688 0.802296
vt 0.184322 0.800589
vt 0.117628 0.999781
vt 0.102109 0.947707
vt 0.039265 0.964220
vt 0.191148 0.775024
vt 0.167133 0.773191
vt 0.225497 0.888506
vt 0.213084 0.801976
vt 0.224475 0.802438
vt 0.186573 0.800832
vt 0.225358 0.895351
vt 0.222224 0.802195
vt 0.819590 0.933905
vt 0.741830 1.002771
vt 0.745676 0.981737
vt 0.169384 0.773434
vt 0.219437 0.773434
vt 0.241200 0.775024
vt 0.678604 0.929671
vt 0.702745 0.932100
vt 0.798477 0.934975
vt 0.755545 0.885339
vt 0.756364 0.860805
vt 0.008395 0.999781
vt 0.050191 0.999781
vt 0.006807 0.579017
vt 0.088521 0.542699
vt 0.142997 0.606255
vt 0.106762 0.390629
vt 0.009554 0.409522
vt 0.821998 0.059350
vt 0.793626 0.064078
vt 0.821998 0.017938
vt 0.109088 0.385467
vt 0.010156 0.356430
vt 0.010156 0.294247
vt 0.164845 0.936891
vt 0.132684 0.917898
vt 0.158955 0.999781
vt 0.251493 0.999781
vt 0.121032 0.522092
vt 0.010156 0.538976
vt 0.229751 1.000024
vt 0.202874 0.960390
vt 0.297894 0.904225
vt 0.270019 0.861025
vt 0.821997 0.148207
vt 0.768986 0.140328
vt 0.781726 0.108721
vt 0.175211 1.000024
vt 0.138634 1.000024
vt 0.092576 1.000024
vt 0.033907 1.000024
vt 0.054982 0.974363
vt 0.091565 0.955891
vt 0.098755 0.966742
vt 0.006807 0.497303
vt 0.006807 0.433747
vt 0.061283 0.470065
vt 0.131496 0.917612
vt 0.004047 1.000024
vt 0.032968 0.971590
vt 0.648570 0.954416
vt 0.658785 1.000024
vt 0.609179 1.000024
vt 0.010156 0.635279
vt 0.299877 0.892636
vt 0.355604 0.794775
vt 0.202357 0.999781
vt 0.088947 0.408461
vt 0.428579 0.656093
vt 0.423662 0.696384
vt 0.468944 0.689061
vt 0.531845 0.681720
vt 0.536419 0.712644
vt 0.610352 0.692828
vt 0.102623 0.365689
vt 0.112804 0.333641
vt 0.080802 0.297116
vt 0.248096 0.339680
vt 0.277080 0.531051
vt 0.282148 0.327738
vt 0.196955 0.568250
vt 0.171694 0.589610
vt 0.275180 0.560080
vt 0.523059 0.538596
vt 0.753690 0.411864
vt 0.394870 0.237242
vt 0.280495 0.557925
vt 0.282428 0.528381
vt 0.532773 0.536061
vt 0.269459 0.553689
vt 0.519237 0.554218
vt 0.535788 0.556253
vt 0.716599 0.481061
vt 0.595223 0.398790
vt 0.437154 0.342183
vt 0.464362 0.360988
vt 0.701500 0.500488
vt 0.703680 0.484556
vt 0.526021 0.558436
vt 0.709844 0.503462
vt 0.127878 0.521223
vt 0.090830 0.544067
vt 0.505343 0.387091
vt 0.948055 0.392623
vt 0.722873 0.500303
vt 0.965311 0.387497
vt 0.008771 0.540307
vt 0.173246 0.589150
vt 0.118191 0.524020
vt 0.665937 0.364567
vt 0.539998 0.204645
vt 0.660993 0.264792
vt 0.287140 0.166653
vt 0.009554 0.494631
vt 0.009554 0.385842
vt 0.124838 0.524541
vt 0.197472 0.569937
vt 0.278223 0.559193
vt 0.280150 0.529746
vt 0.065707 0.507251
vt 0.148340 0.599519
vt 0.175172 0.587980
vt 0.469280 0.659417
vt 0.505147 0.691113
vt 0.358231 0.813259
vt 0.396762 0.861519
vt 0.463835 0.781576
vt 0.334361 0.622665
vt 0.318366 0.723370
vt 0.458201 0.720399
vt 0.455465 0.629717
vt 0.535658 0.660000
vt 0.620783 0.673963
vt 0.453440 0.629177
vt 0.584055 0.653212
vt 0.584827 0.677850
vt 0.503016 0.653376
vt 0.539342 0.629326
vt 0.620698 0.651899
vt 0.732105 0.651967
vt 0.728838 0.643284
vt 0.621615 0.624442
vt 0.632604 0.637198
vt 0.636322 0.685307
vt 0.636814 0.636255
vt 0.621290 0.624515
vt 0.619952 0.697967
vt 0.621630 0.699173
vt 0.734007 0.671131
vt 0.729414 0.682004
vt 0.844311 0.686359
vt 0.621380 0.674077
vt 0.636178 0.688381
vt 0.733584 0.644686
vt 0.849901 0.650483
vt 0.851008 0.673148
vt 0.928244 0.660805
vt 0.843633 0.637183
vt 0.730695 0.682992
vt 0.844925 0.638417
vt 0.740409 0.775706
vt 0.713106 0.780706
vt 0.704568 0.818200
vt 0.896603 0.625215
vt 0.878631 0.609036
vt 0.785632 0.738775
vt 0.737278 0.738859
vt 0.880723 0.715185
vt 0.913616 0.613223
vt 0.897236 0.601821
vt 0.730897 0.812957
vt 0.780941 0.817868
vt 0.792510 0.817868
vt 0.790023 0.778792
vt 0.898074 0.698036
vt 0.711846 0.726905
vt 0.683097 0.727238
vt 0.685751 0.762377
vt 0.965266 0.662943
vt 0.955920 0.640956
vt 0.937049 0.627702
vt 0.714789 0.764119
vt 0.941121 0.702714
vt 0.919603 0.714522
vt 0.932540 0.731689
vt 0.929544 0.592491
vt 0.912862 0.581726
vt 0.967203 0.616180
vt 0.950630 0.603144
vt 0.902827 0.726042
vt 0.957928 0.692611
vt 0.950735 0.721911
vt 0.964856 0.713499
vt 0.615440 0.761890
vt 0.984016 0.535583
vt 0.918749 0.741460
vt 0.685114 0.782002
vt 0.679087 0.810945
vt 0.847072 0.686366
vt 0.914720 0.615321
vt 0.929979 0.594898
vt 0.950087 0.605671
vt 0.608583 0.784975
vt 0.984016 0.786714
vt 0.799318 0.743667
vt 0.831117 0.767611
vt 0.823981 0.791937
vt 0.982769 0.539053
vt 0.825639 0.742255
vt 0.886191 0.771748
vt 0.391135 0.800147
vt 0.375753 0.599215
vt 0.324001 0.784547
vt 0.429296 0.757561
vt 0.279186 0.533620
vt 0.270107 0.551779
vt 0.178643 0.905635
vt 0.750796 0.933481
vt 0.821997 0.285131
vt 0.821997 0.331456
vt 0.791374 0.330169
vt 0.821998 0.110806
vt 0.821997 0.238271
vt 0.779153 0.273656
vt 0.544401 1.000024
vt 0.473816 0.822014
vt 0.821997 0.190377
vt 0.754407 0.181463
vt 0.759288 0.228469
vt 0.375409 0.872242
vt 0.334031 0.621557
vt 0.821996 0.381399
vt 0.647236 0.956984
vt 0.563654 0.943411
vt 0.541813 1.000083
vt 0.434491 1.000083
vt 0.389226 1.000083
vt 0.329218 0.822939
vt 0.586026 1.000083
vt 0.561360 0.944666
vt 0.644941 0.954474
vt 0.559653 1.000083
vt 0.500362 0.770922
vt 0.043124 0.669810
vt 0.006807 0.660730
vt 0.006807 0.624413
vt 0.658921 1.000083
vt 0.631985 1.000083
vt 0.064720 0.466534
vt 0.558639 0.973714
vt 0.530104 0.984870
vt 0.473951 0.822073
vt 0.493413 0.964305
vt 0.434192 0.893597
vt 0.295305 0.904284
vt 0.262597 1.000083
vt 0.304749 1.000083
vt 0.376800 0.873555
vt 0.178305 0.905936
vt 0.128907 0.917671
vt 0.148780 0.927242
vt 0.502657 0.770922
vt 0.507272 1.000083
vt 0.353495 1.000083
vt 0.300013 0.892694
vt 0.377481 1.000083
vt 0.332291 0.898614
vt 0.094303 0.434241
vt 0.087304 0.410219
vt 0.008771 0.400451
vt 0.237380 0.910457
vt 0.237309 1.000083
vt 0.300096 1.000083
vt 0.270155 0.861084
vt 0.006807 0.415589
vt 0.088521 0.415589
vt 0.186709 0.800890
vt 0.199074 0.802597
vt 0.204801 0.915138
vt 0.120014 1.000083
vt 0.052578 1.000083
vt 0.041652 0.964521
vt 0.169520 0.773492
vt 0.193534 0.775326
vt 0.221886 0.802496
vt 0.210495 0.802034
vt 0.222908 0.888565
vt 0.183984 0.800890
vt 0.224610 0.802496
vt 0.227744 0.895652
vt 0.818979 0.933781
vt 0.797866 0.934852
vt 0.745065 0.981613
vt 0.216848 0.773492
vt 0.166795 0.773492
vt 0.243587 0.775326
vt 0.240862 0.775326
vt 0.741219 1.002647
vt 0.702134 0.931977
vt 0.754934 0.885215
vt 0.677993 0.929547
vt 0.030379 0.971649
vt 0.004640 1.000083
vt 0.031318 1.000083
vt 0.390828 0.798355
vt 0.376482 0.598671
vt 0.336115 0.622653
vt 0.006807 0.406510
vt 0.106679 0.388351
vt 0.851059 0.063308
vt 0.457276 0.719815
vt 0.453813 0.628344
vt 0.253879 1.000083
vt 0.204744 1.000083
vt 0.225632 0.888565
vt 0.161342 1.000083
vt 0.104496 0.948009
vt 0.135070 0.918200
vt 0.167232 0.937192
vt 0.355525 0.798597
vt 0.332768 0.820429
vt 0.208625 0.926398
vt 0.267430 0.861084
vt 0.864773 0.108127
vt 0.136045 1.000083
vt 0.172622 1.000083
vt 0.052394 0.974421
vt 0.089988 1.000083
vt 0.088976 0.955950
vt 0.096166 0.966800
vt 0.606590 1.000083
vt 0.656197 1.000083
vt 0.078383 0.645391
vt 0.146502 0.600651
vt 0.008771 0.636294
vt 0.200285 0.960449
vt 0.180124 1.000083
vt 0.042758 0.668625
vt 0.008771 0.672215
vt 0.297289 0.892694
vt 0.107379 0.387301
vt 0.008771 0.358360
vt 0.428686 0.656513
vt 0.468892 0.659410
vt 0.468203 0.688038
vt 0.531875 0.681591
vt 0.621501 0.673619
vt 0.608476 0.692734
vt 0.251948 0.333875
vt 0.279186 0.324796
vt 0.279186 0.560858
vt 0.760390 0.406510
vt 0.524328 0.542699
vt 0.397217 0.234002
vt 0.532678 0.557526
vt 0.529674 0.537400
vt 0.524328 0.551779
vt 0.719149 0.501760
vt 0.712896 0.482582
vt 0.596962 0.397430
vt 0.442614 0.342954
vt 0.469852 0.361113
vt 0.714994 0.488223
vt 0.705914 0.497303
vt 0.714994 0.506382
vt 0.533407 0.560858
vt 0.185212 0.068914
vt 0.118861 0.520693
vt 0.506169 0.388351
vt 0.960135 0.388351
vt 0.960792 0.389324
vt 0.669597 0.361113
vt 0.542487 0.197685
vt 0.705914 0.097813
vt 0.669597 0.261240
vt 0.288266 0.161368
vt 0.117270 0.522284
vt 0.006807 0.379272
vt 0.198872 0.567482
vt 0.136648 0.556264
vt 0.227162 1.000083
vt 0.376585 0.873555
vt 0.431468 0.893597
vt 0.502840 0.652110
vt 0.505978 0.691525
vt 0.357939 0.812192
vt 0.429570 0.757383
vt 0.464592 0.782081
vt 0.086436 0.358292
vt 0.458958 0.720904
vt 0.335392 0.623349
vt 0.318170 0.722492
vt 0.453772 0.629519
vt 0.502319 0.652263
vt 0.535541 0.658953
vt 0.620485 0.651860
vt 0.585286 0.677959
vt 0.585036 0.653036
vt 0.537196 0.712397
vt 0.539568 0.628809
vt 0.609924 0.637981
vt 0.736240 0.644628
vt 0.738065 0.654240
vt 0.620479 0.651731
vt 0.636644 0.688789
vt 0.634341 0.636845
vt 0.620659 0.626212
vt 0.621630 0.626169
vt 0.634415 0.636711
vt 0.621747 0.698284
vt 0.637904 0.688632
vt 0.622722 0.698509
vt 0.739936 0.673088
vt 0.855011 0.675072
vt 0.848424 0.688066
vt 0.735290 0.683841
vt 0.733904 0.683902
vt 0.735955 0.644357
vt 0.853922 0.652780
vt 0.930976 0.662932
vt 0.847757 0.639699
vt 0.846770 0.687464
vt 0.844901 0.639940
vt 0.705288 0.816480
vt 0.713826 0.778987
vt 0.740720 0.773576
vt 0.882179 0.612015
vt 0.899856 0.627928
vt 0.785942 0.736645
vt 0.737589 0.736729
vt 0.901302 0.699551
vt 0.884237 0.716418
vt 0.900479 0.604918
vt 0.916589 0.616133
vt 0.731208 0.810827
vt 0.781252 0.815738
vt 0.790334 0.776663
vt 0.792820 0.815738
vt 0.685652 0.759838
vt 0.682998 0.724699
vt 0.711337 0.723956
vt 0.939637 0.630374
vt 0.958197 0.643410
vt 0.714280 0.761171
vt 0.943641 0.704152
vt 0.953097 0.723032
vt 0.935201 0.732650
vt 0.915847 0.585154
vt 0.932255 0.595743
vt 0.952994 0.606220
vt 0.969294 0.619042
vt 0.922477 0.715765
vt 0.905978 0.727096
vt 0.960172 0.694215
vt 0.966986 0.714759
vt 0.617389 0.759351
vt 0.985830 0.539770
vt 0.921638 0.742261
vt 0.680217 0.809225
vt 0.686244 0.780282
vt 0.937908 0.632033
vt 0.914075 0.616766
vt 0.799629 0.741538
vt 0.950384 0.606690
vt 0.929177 0.595962
vt 0.606845 0.782846
vt 0.985831 0.786770
vt 0.825950 0.740125
vt 0.831428 0.765482
vt 0.824292 0.789807
vt 0.983405 0.540292
vt 0.886502 0.769618
vt 0.079441 0.642572
vt 0.323805 0.783669
vt 0.434321 0.717690
vt 0.181030 0.905936
vt 0.750185 0.933357
vt 0.852619 0.330170
vt 0.864841 0.273657
vt 0.471659 1.000083
vt 0.471227 0.822073
vt 0.875009 0.140328
vt 0.884706 0.228470
vt 0.005478 0.997961
vt 0.114251 0.350647
vt 0.008771 0.296380
vt 0.128249 0.435302
vt 0.008771 0.432960
vt 0.118380 0.522092
vt 0.175368 0.588619
vt 0.080720 0.522092
vt 0.116882 0.518706
vt 0.184949 0.068196
vt 0.118473 0.523480
vt 0.062823 0.510229
vt 0.088521 0.433747
vt 0.009554 0.660973
vt 0.474881 0.981892
vt 0.498876 0.974226
vt 0.010156 0.675711
vt 0.499828 0.971670
vt 0.345428 0.798296
vt 0.351108 0.999781
vt 0.009554 0.417542
vt 0.227609 0.895594
vt 0.243451 0.775267
vt 0.115982 0.348692
vt 0.223246 0.888263
vt 0.129915 0.437866
vt 0.182713 1.000024
vt 0.326573 0.827899
vt 0.051738 0.313685
vt 0.695543 0.105347
vt 0.187334 0.073157
vt 0.119252 0.520838
vt 0.200882 0.566241
vt 0.375541 0.599880
vt 0.459519 0.720731
vt 0.609394 0.637996
vt 0.636730 0.636125
vt 0.637405 0.688736
vt 0.938273 0.630062
vt 0.434214 0.717270
vt 0.356995 0.797342
vt 0.225020 0.895652
vt 0.755753 0.860681
vt 0.008771 0.676593
vt 0.423936 0.696206
vt 0.170235 0.588096
vt 0.430293 1.000083
vt 0.396997 0.861241
vt 0.057372 0.374862
vt 0.634627 0.636963
vt 0.637990 0.688597
vt 0.967389 0.665035
vt 0.889587 0.181464
vt 0.376483 0.598964
vn -0.356900 0.932400 0.057200
vn -0.044100 0.952600 0.300900
vn -0.236400 -0.436000 0.868300
vn -0.318900 0.938200 0.134300
vn -0.389200 -0.215300 0.895600
vn 0.431400 -0.296900 0.851900
vn -0.137200 -0.216700 0.966500
vn 0.598100 -0.800000 0.046700
vn 0.529300 -0.845200 0.073900
vn -0.036400 0.205200 -0.978000
vn -0.091600 0.331000 -0.939100
vn -0.131400 0.979100 -0.155300
vn 0.672500 -0.725700 0.145100
vn 0.615900 0.600600 0.509800
vn -0.717400 -0.464900 -0.518800
vn -0.108200 0.837500 -0.535500
vn -0.918600 -0.290900 0.267300
vn 0.302100 -0.947800 -0.102300
vn 0.368800 -0.702500 -0.608600
vn 0.533700 -0.133000 0.835100
vn 0.275000 -0.957100 -0.090800
vn -0.643000 -0.235800 0.728600
vn -0.872600 -0.174600 0.456200
vn -0.542700 -0.128200 0.830100
vn -0.365200 -0.306600 0.878900
vn -0.925600 -0.363700 0.104800
vn 0.059900 -0.969400 -0.238000
vn -0.201700 -0.814400 0.544000
vn 0.254300 0.837500 0.483600
vn -0.057200 0.949300 0.309000
vn -0.325800 0.741100 0.587000
vn -0.972500 -0.220300 -0.074600
vn 0.124600 -0.975000 0.183700
vn 0.130600 -0.950200 0.282800
vn 0.241500 0.491400 0.836800
vn 0.393400 -0.235000 0.888800
vn -0.318100 0.359100 0.877400
vn -0.441300 -0.465400 0.767200
vn 0.177000 -0.980200 -0.088900
vn -0.243400 0.855100 0.457800
vn -0.953300 -0.044500 -0.298700
vn -0.609400 -0.763900 -0.212000
vn -0.160500 -0.521400 -0.838000
vn -0.297800 0.805800 -0.511700
vn -0.041800 -0.985800 -0.162400
vn -0.673700 0.085100 0.734000
vn -0.688000 0.236200 0.686100
vn -0.418100 -0.505500 -0.754700
vn -0.614800 0.731200 -0.295500
vn -0.388100 0.132100 0.912100
vn 0.606100 0.641200 0.470600
vn 0.765900 -0.640000 -0.060900
vn -0.058700 -0.992600 0.106300
vn 0.650600 -0.734400 0.193200
vn -0.009400 -0.781600 0.623600
vn 0.478100 0.625200 0.616900
vn -0.120800 0.218800 0.968200
vn -0.715900 -0.690400 -0.103400
vn -0.905600 0.278100 0.320200
vn -0.674100 0.693100 -0.255100
vn -0.493500 -0.777600 -0.389500
vn 0.702900 0.636300 0.317700
vn 0.871300 0.407500 -0.273400
vn -0.745600 -0.470000 -0.472400
vn -0.172500 0.957000 -0.233000
vn 0.125900 -0.513200 -0.849000
vn -0.769300 -0.634900 -0.070400
vn -0.766900 0.064600 -0.638500
vn 0.054400 -0.998200 -0.025100
vn 0.114800 -0.934700 0.336400
vn -0.722800 -0.635100 0.272200
vn -0.766800 0.261200 0.586200
vn -0.153700 -0.966800 -0.203900
vn -0.036000 -0.979600 -0.197400
vn -0.498100 -0.840700 -0.212600
vn 0.222200 -0.975000 -0.005100
vn 0.403000 -0.914100 -0.043900
vn -0.278000 0.424000 0.861900
vn -0.062000 -0.459100 -0.886200
vn -0.432100 -0.880600 -0.194600
vn -0.738600 -0.615700 -0.274300
vn -0.158100 0.738400 0.655500
vn -0.187800 0.547400 0.815500
vn -0.271300 0.532900 0.801400
vn -0.437900 0.587500 0.680400
vn -0.484400 -0.166900 0.858800
vn -0.621000 -0.050300 0.782200
vn -0.357700 0.837600 0.412800
vn 0.451100 0.597400 0.663000
vn -0.518800 0.854900 0.007800
vn 0.259700 -0.674600 -0.690900
vn -0.196200 -0.954500 -0.224400
vn 0.359300 0.499900 -0.788000
vn -0.792000 -0.199400 -0.577000
vn -0.767700 -0.058600 -0.638100
vn -0.629700 0.500500 0.594000
vn -0.749300 -0.477300 0.459000
vn -0.504300 -0.863200 -0.020600
vn 0.011000 -0.192500 0.981200
vn -0.174400 -0.172500 0.969400
vn 0.314200 0.946600 -0.072300
vn 0.014800 0.842300 0.538700
vn 0.094000 0.986300 -0.135300
vn 0.234300 0.972100 -0.008500
vn -0.120700 -0.439400 -0.890100
vn 0.396600 -0.019000 -0.917800
vn -0.262200 0.480300 0.837000
vn 0.598400 0.718700 0.353900
vn 0.436100 0.677000 0.592900
vn 0.310100 0.748900 0.585700
vn 0.195500 0.850500 0.488300
vn 0.638000 -0.045900 -0.768600
vn 0.302000 0.655200 0.692400
vn 0.547100 0.828900 0.116600
vn 0.445800 0.051100 0.893600
vn 0.641200 0.241200 0.728400
vn 0.431400 0.640100 0.635700
vn 0.373500 -0.075800 -0.924500
vn -0.956800 0.255700 -0.137900
vn 0.611300 0.747400 0.260200
vn 0.728000 0.409400 0.549900
vn 0.199700 -0.604400 -0.771200
vn 0.808600 -0.298400 0.507000
vn 0.474100 0.877800 0.068400
vn 0.476600 -0.427500 0.768200
vn 0.736500 0.554200 0.387900
vn -0.038800 0.959500 -0.278800
vn 0.046700 0.928100 -0.369200
vn 0.506300 0.851600 0.135700
vn 0.036900 -0.248700 -0.967900
vn 0.139600 0.886000 0.442100
vn -0.949200 -0.313900 0.021900
vn 0.131600 0.598200 -0.790400
vn -0.918800 0.376900 0.117100
vn -0.705800 -0.584500 0.400300
vn 0.880800 0.438500 0.178400
vn 0.357600 0.909900 0.210300
vn -0.983300 0.179000 0.030900
vn 0.834300 -0.255700 -0.488300
vn 0.241000 0.949800 -0.199500
vn 0.540000 0.805900 -0.242700
vn 0.233300 0.817600 -0.526400
vn 0.877900 0.075300 0.472900
vn 0.882000 -0.451500 0.134500
vn 0.871000 0.217200 0.440500
vn -0.340000 -0.661200 0.668700
vn -0.335500 -0.911100 0.239200
vn -0.831100 0.058500 -0.553000
vn -0.391200 -0.840600 0.374600
vn -0.766200 -0.580300 -0.275800
vn 0.222900 0.618600 -0.753300
vn -0.856800 0.174000 -0.485400
vn -0.547600 0.821200 -0.160400
vn 0.898100 -0.417500 0.138300
vn 0.444000 -0.404000 0.799800
vn 0.882500 -0.426200 0.198600
vn -0.931700 -0.279900 -0.231400
vn 0.023600 0.500800 -0.865200
vn 0.948600 -0.316400 -0.005900
vn -0.374900 -0.716800 0.587900
vn 0.108400 0.970400 -0.215700
vn 0.674900 0.088000 -0.732600
vn -0.805500 -0.212500 -0.553100
vn -0.602500 0.635100 0.483200
vn -0.819600 0.323400 -0.472900
vn 0.589900 -0.098500 -0.801400
vn -0.719800 -0.641500 -0.265200
vn -0.150900 -0.192100 0.969700
vn -0.666700 0.545900 0.507400
vn 0.631400 0.628000 0.454800
vn -0.639500 0.694400 0.329700
vn -0.586300 0.231200 0.776300
vn 0.694900 0.620500 0.363300
vn -0.360700 0.099600 0.927300
vn 0.740300 0.200700 0.641600
vn 0.627400 -0.457700 -0.630000
vn 0.411800 -0.859600 0.302400
vn -0.791000 -0.474100 -0.386700
vn 0.641400 -0.579300 -0.502900
vn 0.611300 -0.791400 0.006600
vn -0.715700 -0.445000 0.538200
vn 0.116900 -0.905400 0.408100
vn 0.246700 0.871900 -0.423000
vn 0.411300 0.625300 0.663100
vn -0.026900 0.718500 0.695000
vn 0.025400 0.944800 0.326500
vn -0.627400 -0.371900 0.684100
vn -0.149300 0.985200 0.084100
vn 0.224000 0.936700 0.268900
vn -0.204900 -0.368900 -0.906600
vn -0.352900 0.932900 0.071000
vn -0.391700 0.913500 0.109500
vn -0.331000 0.459400 -0.824200
vn 0.739100 0.448100 -0.502900
vn 0.862100 0.505400 0.035000
vn -0.236100 -0.047800 -0.970500
vn 0.662300 0.329900 -0.672700
vn 0.676300 0.733500 -0.067500
vn -0.484700 0.826700 -0.285600
vn -0.910100 0.297400 0.288600
vn -0.080400 0.079100 -0.993600
vn 0.285000 -0.948500 -0.138000
vn 0.558000 0.298000 -0.774400
vn 0.371100 0.899400 -0.230800
vn 0.943800 0.275400 0.182400
vn 0.383100 0.701700 -0.600600
vn 0.040700 0.512600 -0.857600
vn 0.217500 0.946700 0.237700
vn 0.254600 -0.963500 -0.082700
vn 0.594500 -0.183700 -0.782800
vn 0.188500 0.980200 -0.060200
vn 0.915600 0.052800 0.398400
vn 0.904000 0.138700 -0.404300
vn 0.751600 0.597900 0.278600
vn 0.580900 0.024400 -0.813600
vn -0.147900 0.974900 -0.166300
vn -0.485200 -0.615200 -0.621400
vn -0.788400 -0.587500 -0.182200
vn -0.227500 -0.583800 -0.779400
vn 0.132000 0.483400 -0.865400
vn -0.838100 0.512800 -0.185900
vn -0.671700 -0.712900 -0.201400
vn -0.253000 -0.289600 0.923100
vn 0.369800 0.553800 0.746000
vn 0.778500 0.479200 -0.405300
vn 0.301000 -0.856800 -0.418600
vn -0.075300 -0.482200 -0.872800
vn 0.822000 -0.423300 -0.380800
vn 0.445300 0.783700 0.433000
vn 0.655100 -0.678300 0.332600
vn 0.772900 0.495000 -0.396900
vn -0.181500 0.499500 -0.847100
vn -0.101800 0.653800 -0.749700
vn 0.365900 -0.606100 0.706200
vn 0.636900 0.049300 -0.769400
vn 0.888100 -0.156700 -0.432100
vn -0.752800 0.050700 0.656200
vn 0.170800 0.283700 -0.943500
vn 0.003500 0.650100 -0.759800
vn -0.199600 -0.207100 -0.957700
vn 0.683500 0.175300 -0.708600
vn 0.427000 0.903400 0.038100
vn -0.157000 0.484500 -0.860600
vn 0.089100 0.957600 0.274000
vn -0.104800 0.970500 0.217000
vn 0.786500 0.458000 -0.414300
vn -0.652000 0.750500 -0.107300
vn -0.315900 0.929900 0.188200
vn 0.525000 0.761100 -0.380800
vn 0.765500 -0.521200 0.377300
vn 0.987800 0.083100 -0.131900
vn 0.354800 0.299100 -0.885800
vn 0.369500 0.909200 -0.191700
vn 0.341300 0.939900 -0.005600
vn -0.821400 0.562900 -0.092000
vn -0.273900 0.929000 -0.249000
vn 0.013500 0.672600 0.739900
vn 0.165800 -0.638800 -0.751200
vn -0.312500 0.844700 -0.434600
vn 0.590000 -0.249300 -0.767900
vn -0.751400 0.611800 0.247000
vn -0.507700 0.781400 0.362800
vn -0.426100 -0.145900 0.892800
vn -0.515000 0.383800 0.766400
vn -0.629400 0.596600 -0.497800
vn 0.131100 0.944900 -0.299800
vn -0.437100 0.849600 0.295000
vn -0.972600 0.229100 -0.038400
vn -0.621800 0.760700 0.186000
vn -0.241700 -0.147400 0.959100
vn -0.327600 -0.075300 0.941800
vn -0.532200 0.567200 0.628400
vn 0.813500 0.564900 -0.137900
vn -0.145200 0.272400 0.951100
vn 0.938600 0.083900 0.334600
vn 0.836800 -0.534100 -0.119900
vn 0.403400 0.522800 -0.750900
vn -0.077200 -0.404100 0.911400
vn -0.725000 0.192900 0.661200
vn -0.908400 0.350300 -0.228100
vn -0.800900 -0.441200 0.404800
vn -0.363600 0.905400 0.218900
vn 0.531200 -0.808800 -0.252200
vn -0.731200 -0.593300 0.336600
vn -0.827800 -0.368800 -0.422600
vn 0.359100 -0.306400 -0.881600
vn 0.748100 0.556500 -0.361400
vn 0.631900 0.640400 -0.436500
vn 0.595300 -0.632700 -0.495200
vn 0.509500 -0.786500 -0.349000
vn -0.333300 0.940100 0.071800
vn 0.274800 0.957300 0.089300
vn -0.870200 0.303800 0.387800
vn 0.412500 -0.885300 -0.214500
vn -0.412400 -0.201000 0.888500
vn -0.003900 -0.935000 0.354700
vn -0.856100 -0.502800 0.119100
vn -0.498300 0.844100 -0.197600
vn 0.439900 0.453400 -0.775100
vn 0.226200 -0.923300 -0.310200
vn -0.933100 -0.301600 0.196000
vn -0.338200 0.929600 -0.146700
vn -0.123800 -0.992000 -0.024900
vn 0.370200 0.286800 -0.883500
vn 0.461600 -0.879600 -0.114900
vn -0.944200 -0.291500 0.153700
vn 0.863900 0.487200 -0.127800
vn 0.533500 -0.837500 0.118000
vn -0.181000 0.964500 0.192400
vn 0.061900 0.869300 0.490400
vn 0.863200 0.320000 -0.390600
vn -0.324200 0.870800 0.369600
vn 0.886100 0.434300 0.161700
vn 0.527200 0.448500 -0.721700
vn -0.633800 -0.354800 0.687300
vn 0.135300 -0.454200 0.880500
vn 0.317500 -0.905100 -0.282600
vn 0.270100 0.718800 0.640600
vn -0.442900 0.451800 -0.774400
vn 0.329600 0.475800 0.815500
vn 0.491200 -0.317000 0.811300
vn -0.020900 -0.996000 -0.087000
vn -0.826200 -0.178400 0.534300
vn 0.472900 0.106800 -0.874600
vn 0.765800 0.519900 -0.378400
vn 0.680800 0.211000 0.701400
vn 0.675800 -0.100400 0.730200
s 1
f 181/1/1 182/2/2 14/3/3
f 180/4/4 9/5/5 4/6/6
f 3/7/7 4/8/6 7/9/8
f 4/8/6 9/10/5 8/11/9
f 6/12/10 73/13/11 57/14/12
f 3/7/7 5/15/13 1/16/14
f 76/17/15 6/12/10 10/18/16
f 8/19/9 9/10/5 12/20/17
f 11/21/18 12/22/17 14/23/3
f 15/24/19 6/25/10 76/26/15
f 14/27/3 77/28/20 16/29/21
f 32/30/22 61/31/23 64/32/24
f 16/33/21 17/34/25 20/35/26
f 19/36/27 20/35/26 23/37/28
f 18/38/29 21/39/30 78/40/31
f 42/41/32 58/42/33 79/43/34
f 24/44/35 27/45/36 60/46/37
f 23/37/28 26/47/38 25/48/39
f 41/49/40 42/50/32 80/51/41
f 40/52/42 47/53/43 44/54/44
f 33/55/45 34/56/46 37/57/47
f 47/53/43 51/58/48 48/59/49
f 29/60/50 45/61/51 46/62/52
f 29/60/50 32/30/22 44/63/44
f 39/64/53 46/65/52 47/53/43
f 51/66/48 50/67/54 54/68/55
f 44/63/44 48/69/49 49/70/56
f 46/65/52 50/71/54 51/58/48
f 46/62/52 45/61/51 49/70/56
f 50/67/54 49/72/56 53/73/57
f 51/66/48 55/74/58 52/75/59
f 49/72/56 48/76/49 52/75/59
f 37/57/47 38/77/60 36/78/61
f 57/79/12 249/80/62 229/81/63
f 80/51/41 82/82/64 81/83/65
f 187/84/66 71/85/67 70/86/68
f 82/87/64 83/88/69 86/89/70
f 176/90/71 174/91/72 175/92/73
f 28/93/74 39/64/53 40/52/42
f 26/47/38 39/64/53 25/48/39
f 175/92/73 174/91/72 34/56/46
f 66/94/75 56/95/76 58/42/33
f 27/45/36 74/96/77 76/97/15
f 60/46/37 61/31/23 29/60/50
f 59/98/78 60/46/37 26/99/38
f 29/60/50 61/31/23 32/30/22
f 185/100/79 62/101/80 67/102/81
f 30/103/82 63/104/83 64/32/24
f 65/105/84 69/106/85 72/107/86
f 67/108/81 68/109/87 72/107/86
f 35/110/88 41/111/40 325/112/89
f 62/113/80 64/32/24 68/109/87
f 63/104/83 65/105/84 68/109/87
f 69/106/85 70/114/68 71/115/67
f 3/116/7 1/117/14 178/118/90
f 6/25/10 15/24/19 2/119/91
f 61/31/23 60/46/37 76/97/15
f 30/103/82 61/31/23 76/97/15
f 21/39/30 24/44/35 59/98/78
f 78/40/31 59/98/78 23/120/28
f 17/121/25 18/38/29 78/40/31
f 31/122/92 40/52/42 176/90/71
f 80/123/41 79/43/34 83/88/69
f 120/124/93 119/125/94 123/126/95
f 126/127/96 118/128/97 127/129/98
f 86/130/70 89/131/99 88/132/100
f 114/133/101 93/134/102 112/135/103
f 91/136/104 90/137/105 94/138/106
f 93/134/102 98/139/107 104/140/108
f 112/135/103 93/134/102 109/141/109
f 94/142/106 93/143/102 98/144/107
f 92/145/110 96/146/111 98/139/107
f 99/147/112 98/144/107 97/148/113
f 93/134/102 104/140/108 115/149/114
f 111/150/115 93/134/102 116/151/116
f 96/146/111 100/152/117 97/153/113
f 99/154/112 95/155/118 100/152/117
f 73/13/11 66/156/75 102/157/119
f 93/134/102 113/158/120 116/151/116
f 100/152/117 95/155/118 101/159/121
f 95/160/118 97/148/113 101/161/121
f 97/153/113 100/152/117 101/159/121
f 94/138/106 99/154/112 96/146/111
f 98/139/107 97/153/113 104/140/108
f 56/162/76 237/163/122 224/164/123
f 97/153/113 101/159/121 104/140/108
f 104/140/108 105/165/124 115/149/114
f 108/166/125 111/150/115 116/151/116
f 116/151/116 113/158/120 106/167/126
f 110/168/127 112/135/103 109/141/109
f 115/149/114 105/165/124 106/167/126
f 114/133/101 112/135/103 110/168/127
f 108/166/125 109/141/109 111/150/115
f 57/14/12 73/13/11 102/157/119
f 35/169/88 57/14/12 102/157/119
f 81/83/65 82/82/64 84/170/128
f 109/141/109 93/134/102 111/150/115
f 93/134/102 115/149/114 113/158/120
f 224/171/123 238/172/129 229/81/63
f 237/163/122 241/173/130 240/174/131
f 66/156/75 327/175/132 102/157/119
f 73/176/11 2/119/91 90/177/105
f 124/178/133 123/126/95 122/179/134
f 85/180/135 88/181/100 118/182/97
f 84/183/128 82/184/64 120/124/93
f 118/185/97 122/179/134 123/126/95
f 84/183/128 120/124/93 117/186/136
f 117/186/136 120/124/93 124/178/133
f 125/187/137 126/127/96 130/188/138
f 117/189/136 128/190/139 127/191/98
f 126/127/96 125/187/137 121/192/140
f 122/179/134 118/128/97 126/127/96
f 117/193/136 125/187/137 129/194/141
f 129/194/141 135/195/142 137/196/143
f 117/193/136 121/192/140 125/187/137
f 133/197/144 134/198/145 132/199/146
f 129/194/141 134/200/145 133/201/144
f 128/190/139 133/197/144 131/202/147
f 130/188/138 127/129/98 131/203/147
f 136/204/148 138/205/149 142/206/150
f 130/207/138 136/204/148 135/195/142
f 130/207/138 132/208/146 138/205/149
f 132/199/146 134/198/145 137/209/143
f 139/210/151 140/211/152 147/212/153
f 136/204/148 140/211/152 139/210/151
f 135/195/142 139/210/151 141/213/154
f 138/214/149 137/209/143 141/215/154
f 148/216/155 158/217/156 161/218/157
f 139/210/151 143/219/158 145/220/159
f 141/221/154 145/222/159 148/216/155
f 140/211/152 142/206/150 146/223/160
f 143/219/158 150/224/161 149/225/162
f 146/226/160 142/227/150 148/216/155
f 142/227/150 168/228/163 167/229/164
f 140/211/152 144/230/165 147/212/153
f 143/219/158 139/210/151 147/212/153
f 149/231/162 153/232/166 156/233/167
f 147/212/153 148/234/155 152/235/168
f 147/212/153 151/236/169 150/224/161
f 145/222/159 149/231/162 152/237/168
f 160/238/170 159/239/171 164/240/172
f 150/224/161 154/241/173 153/242/166
f 151/236/169 152/235/168 156/243/167
f 151/236/169 155/244/174 154/241/173
f 147/212/153 144/230/165 159/239/171
f 144/230/165 146/223/160 161/245/157
f 147/212/153 160/238/170 158/246/156
f 160/238/170 162/247/175 163/248/176
f 156/233/167 153/232/166 157/249/177
f 153/242/166 154/241/173 157/250/177
f 155/244/174 156/243/167 157/250/177
f 154/241/173 155/244/174 157/250/177
f 159/239/171 161/245/157 165/251/178
f 158/217/156 163/252/176 165/253/178
f 142/254/150 141/215/154 169/255/179
f 141/221/154 148/216/155 167/229/164
f 169/255/179 172/256/180 171/257/181
f 165/253/178 163/252/176 166/258/182
f 163/248/176 162/247/175 166/259/182
f 162/247/175 164/240/172 166/259/182
f 164/240/172 165/251/178 166/259/182
f 169/260/179 167/229/164 170/261/183
f 167/229/164 168/228/163 171/262/181
f 171/257/181 172/256/180 173/263/184
f 172/264/180 170/261/183 173/265/184
f 170/261/183 171/262/181 173/265/184
f 88/266/100 87/267/185 117/189/136
f 82/268/64 85/180/135 119/269/94
f 240/270/131 239/271/186 238/172/129
f 40/52/42 32/272/22 176/90/71
f 176/90/71 32/272/22 174/91/72
f 54/68/55 53/73/57 177/273/187
f 53/73/57 52/75/59 177/273/187
f 52/75/59 55/74/58 177/273/187
f 55/74/58 54/68/55 177/273/187
f 183/274/188 184/275/189 37/276/47
f 71/85/67 187/84/66 186/277/190
f 188/278/191 183/274/188 34/279/46
f 3/116/7 178/118/90 179/280/192
f 180/4/4 181/1/1 12/281/17
f 189/282/193 32/283/22 62/101/80
f 189/282/193 188/278/191 174/284/72
f 18/38/29 17/121/25 77/285/20
f 88/266/100 89/286/99 87/267/185
f 37/276/47 184/275/189 38/287/60
f 190/288/194 191/289/195 179/290/192
f 16/291/21 19/292/27 197/293/196
f 7/294/8 191/295/195 190/296/194
f 8/297/9 193/298/197 191/295/195
f 230/299/198 75/300/199 10/301/16
f 190/296/194 1/302/14 5/303/13
f 327/175/132 66/156/75 324/304/200
f 8/305/9 11/306/18 194/307/201
f 11/306/18 13/308/202 195/309/203
f 219/310/204 24/311/35 21/312/30
f 16/291/21 231/313/205 195/309/203
f 201/314/206 222/315/207 223/316/208
f 191/289/195 193/317/197 180/318/4
f 19/292/27 22/319/209 198/320/210
f 18/321/29 232/322/211 21/312/30
f 206/323/212 233/324/213 79/325/34
f 220/326/214 27/327/36 24/311/35
f 25/328/39 199/329/215 198/320/210
f 41/111/40 43/330/216 233/331/213
f 207/332/217 210/333/218 205/334/219
f 33/335/45 36/336/61 203/337/220
f 211/338/221 214/339/222 210/333/218
f 209/340/223 208/341/224 200/342/225
f 200/342/225 208/341/224 207/343/217
f 210/333/218 209/344/223 204/345/226
f 214/346/222 218/347/227 217/348/228
f 212/349/229 211/350/221 207/343/217
f 214/339/222 213/351/230 209/344/223
f 209/340/223 213/352/230 212/349/229
f 213/353/230 217/348/228 216/354/231
f 215/355/232 218/347/227 214/346/222
f 212/356/229 216/354/231 215/355/232
f 227/357/233 70/358/68 69/359/85
f 236/360/234 87/361/185 89/362/99
f 81/363/65 234/364/235 233/331/213
f 187/84/66 70/86/68 227/365/233
f 236/360/234 265/366/236 264/367/237
f 28/368/74 31/369/92 205/334/219
f 204/345/226 200/370/225 199/329/215
f 175/371/73 33/335/45 202/372/238
f 175/371/73 321/373/239 322/374/240
f 196/375/241 197/376/196 232/322/211
f 200/342/225 221/377/242 220/326/214
f 199/378/215 220/326/214 219/310/204
f 200/342/225 201/314/206 221/377/242
f 185/100/79 186/277/190 225/379/243
f 223/316/208 63/380/83 30/381/82
f 228/382/244 69/359/85 65/383/84
f 225/384/243 227/357/233 228/382/244
f 222/315/207 225/384/243 226/385/245
f 226/385/245 65/383/84 63/380/83
f 186/277/190 187/84/66 227/365/233
f 190/288/194 178/386/90 1/387/14
f 192/388/246 229/389/63 2/390/91
f 221/377/242 230/391/198 220/326/214
f 30/381/82 75/392/199 230/391/198
f 230/393/198 192/388/246 15/394/19
f 198/395/210 219/310/204 232/322/211
f 31/369/92 322/374/240 205/334/219
f 233/324/213 234/396/235 83/397/69
f 267/398/247 271/399/248 270/400/249
f 273/401/250 277/402/251 274/403/252
f 261/404/253 259/405/254 240/270/131
f 238/172/129 239/271/186 241/406/130
f 240/270/131 251/407/255 245/408/256
f 259/405/254 256/409/257 240/270/131
f 241/173/130 246/410/258 245/411/256
f 245/408/256 243/412/259 239/271/186
f 246/410/258 242/413/260 244/414/261
f 240/270/131 262/415/262 251/407/255
f 258/416/263 263/417/264 240/270/131
f 244/418/261 247/419/265 243/412/259
f 247/419/265 242/420/260 246/421/258
f 103/422/266 66/423/75 114/133/101
f 240/270/131 263/417/264 260/424/267
f 247/419/265 248/425/268 242/420/260
f 242/413/260 248/426/268 244/414/261
f 244/418/261 248/425/268 247/419/265
f 243/412/259 246/421/258 241/406/130
f 245/408/256 251/407/255 244/418/261
f 244/418/261 251/407/255 248/425/268
f 251/407/255 262/415/262 252/427/269
f 255/428/270 254/429/271 263/417/264
f 263/417/264 254/429/271 253/430/272
f 257/431/273 256/409/257 259/405/254
f 262/415/262 260/424/267 253/430/272
f 257/431/273 259/405/254 261/404/253
f 255/428/270 258/416/263 256/409/257
f 66/432/75 93/134/102 114/133/101
f 81/363/65 84/433/128 234/364/235
f 256/409/257 258/416/263 240/270/131
f 240/270/131 260/424/267 262/415/262
f 229/389/63 238/434/129 237/435/122
f 230/391/198 74/436/77 27/327/36
f 231/437/205 18/321/29 195/438/203
f 271/399/248 268/439/274 269/440/275
f 235/441/276 266/442/277 265/443/236
f 236/444/234 89/131/99 86/130/70
f 270/400/249 269/440/275 265/445/236
f 84/446/128 267/398/247 234/447/235
f 264/448/237 268/449/274 271/399/248
f 272/450/278 276/451/279 277/402/251
f 274/452/252 275/453/280 264/367/237
f 273/401/250 269/440/275 268/439/274
f 269/440/275 273/401/250 265/454/236
f 264/455/237 275/456/280 276/451/279
f 284/457/281 282/458/282 276/459/279
f 264/455/237 272/450/278 268/439/274
f 279/460/283 281/461/284 280/462/285
f 280/463/285 281/464/284 276/451/279
f 278/465/286 280/462/285 275/453/280
f 277/402/251 279/466/283 278/467/286
f 283/468/287 287/469/288 289/470/289
f 282/458/282 283/468/287 277/402/251
f 277/402/251 283/468/287 285/471/290
f 279/460/283 285/472/290 284/473/281
f 286/474/291 294/475/292 287/469/288
f 286/474/291 287/469/288 283/468/287
f 288/476/293 286/474/291 282/458/282
f 285/472/290 289/477/289 288/478/293
f 308/479/294 305/480/295 295/481/296
f 292/482/297 290/483/298 286/474/291
f 288/484/293 295/481/296 292/485/297
f 287/469/288 291/486/299 293/487/300
f 296/488/301 297/489/302 290/483/298
f 293/490/300 295/481/296 289/491/289
f 314/492/303 315/493/304 289/491/289
f 287/469/288 294/475/292 291/486/299
f 290/483/298 294/475/292 286/474/291
f 303/494/305 300/495/306 296/496/301
f 294/475/292 298/497/307 299/498/308
f 297/489/302 298/497/307 294/475/292
f 299/499/308 296/496/301 292/485/297
f 307/500/309 309/501/310 311/502/311
f 300/503/306 301/504/312 297/489/302
f 298/497/307 302/505/313 303/506/305
f 301/504/312 302/505/313 298/497/307
f 294/475/292 307/500/309 306/507/314
f 291/486/299 306/507/314 308/508/294
f 305/509/295 307/500/309 294/475/292
f 310/510/315 309/501/310 307/500/309
f 303/494/305 304/511/316 300/495/306
f 300/503/306 304/512/316 301/504/312
f 302/505/313 304/512/316 303/506/305
f 301/504/312 304/512/316 302/505/313
f 306/507/314 311/502/311 312/513/317
f 312/514/317 310/515/315 305/480/295
f 289/477/289 315/516/304 316/517/318
f 288/484/293 316/518/318 314/492/303
f 318/519/319 319/520/320 316/517/318
f 312/514/317 313/521/321 310/515/315
f 310/510/315 313/522/321 309/501/310
f 309/501/310 313/522/321 311/502/311
f 311/502/311 313/522/321 312/513/317
f 316/518/318 319/523/320 317/524/322
f 314/492/303 317/524/322 318/525/319
f 318/519/319 320/526/323 319/520/320
f 319/523/320 320/527/323 317/524/322
f 317/524/322 320/527/323 318/525/319
f 57/79/12 229/81/63 192/528/246
f 234/529/235 267/530/247 266/442/277
f 205/334/219 322/374/240 201/531/206
f 322/374/240 321/373/239 201/531/206
f 217/348/228 323/532/324 216/354/231
f 216/354/231 323/532/324 215/355/232
f 215/355/232 323/532/324 218/347/227
f 218/347/227 323/532/324 217/348/228
f 203/533/220 184/275/189 183/274/188
f 202/534/238 183/274/188 188/278/191
f 181/535/1 194/536/201 195/438/203
f 194/536/201 181/535/1 180/318/4
f 189/282/193 185/100/79 222/537/207
f 321/538/239 188/278/191 189/282/193
f 203/337/220 36/336/61 38/539/60
f 264/448/237 267/398/247 84/446/128
f 203/533/220 38/287/60 184/275/189
f 234/396/235 235/540/276 86/541/70
f 224/164/123 206/542/212 58/543/33
f 91/136/104 92/145/110 93/134/102
f 2/119/91 56/95/76 90/177/105
f 90/177/105 66/544/75 93/143/102
f 2/390/91 237/545/122 56/162/76
f 66/156/75 73/13/11 91/136/104
f 56/95/76 66/546/75 90/177/105
f 224/547/123 261/404/253 240/270/131
f 250/548/325 261/404/253 224/549/123
f 229/81/63 249/80/62 224/171/123
f 249/80/62 35/110/88 326/550/326
f 35/110/88 249/80/62 57/79/12
f 66/156/75 42/50/32 324/304/200
f 42/50/32 41/49/40 324/304/200
f 41/49/40 35/169/88 324/304/200
f 41/111/40 206/551/212 325/112/89
f 206/551/212 224/171/123 325/112/89
f 326/550/326 35/110/88 325/112/89
f 224/171/123 249/80/62 326/550/326
f 224/171/123 326/550/326 325/112/89
f 35/169/88 327/175/132 324/304/200
f 327/175/132 35/169/88 102/157/119
f 12/281/17 181/1/1 14/3/3
f 179/280/192 180/4/4 4/6/6
f 5/15/13 3/7/7 7/9/8
f 7/9/8 4/8/6 8/11/9
f 10/18/16 6/12/10 57/14/12
f 75/552/199 76/17/15 10/18/16
f 11/553/18 8/19/9 12/20/17
f 13/554/202 11/21/18 14/23/3
f 74/555/77 15/24/19 76/26/15
f 16/29/21 13/556/202 14/27/3
f 77/28/20 17/557/25 16/29/21
f 62/113/80 32/30/22 64/32/24
f 19/36/27 16/33/21 20/35/26
f 22/558/209 19/36/27 23/37/28
f 80/123/41 42/41/32 79/43/34
f 59/98/78 24/44/35 60/46/37
f 22/558/209 23/37/28 25/48/39
f 43/559/216 41/49/40 80/51/41
f 32/272/22 40/52/42 44/54/44
f 36/78/61 33/55/45 37/57/47
f 44/54/44 47/53/43 48/59/49
f 39/560/53 29/60/50 46/62/52
f 45/61/51 29/60/50 44/63/44
f 40/52/42 39/64/53 47/53/43
f 55/74/58 51/66/48 54/68/55
f 45/61/51 44/63/44 49/70/56
f 47/53/43 46/65/52 51/58/48
f 50/561/54 46/62/52 49/70/56
f 54/68/55 50/67/54 53/73/57
f 48/76/49 51/66/48 52/75/59
f 53/73/57 49/72/56 52/75/59
f 43/559/216 80/51/41 81/83/65
f 85/562/135 82/87/64 86/89/70
f 31/122/92 176/90/71 175/92/73
f 31/122/92 28/93/74 40/52/42
f 28/93/74 25/48/39 39/64/53
f 26/47/38 29/563/50 39/64/53
f 33/55/45 175/92/73 34/56/46
f 42/564/32 66/94/75 58/42/33
f 60/46/37 27/45/36 76/97/15
f 26/99/38 60/46/37 29/60/50
f 23/120/28 59/98/78 26/99/38
f 186/277/190 185/100/79 67/102/81
f 61/31/23 30/103/82 64/32/24
f 68/109/87 65/105/84 72/107/86
f 71/115/67 67/108/81 72/107/86
f 67/108/81 62/113/80 68/109/87
f 64/32/24 63/104/83 68/109/87
f 72/107/86 69/106/85 71/115/67
f 73/176/11 6/25/10 2/119/91
f 75/565/199 30/103/82 76/97/15
f 78/40/31 21/39/30 59/98/78
f 20/566/26 78/40/31 23/120/28
f 20/566/26 17/121/25 78/40/31
f 82/87/64 80/123/41 83/88/69
f 124/178/133 120/124/93 123/126/95
f 130/188/138 126/127/96 127/129/98
f 85/567/135 86/130/70 88/132/100
f 92/145/110 91/136/104 94/138/106
f 99/147/112 94/142/106 98/144/107
f 93/134/102 92/145/110 98/139/107
f 95/160/118 99/147/112 97/148/113
f 98/139/107 96/146/111 97/153/113
f 96/146/111 99/154/112 100/152/117
f 92/145/110 94/138/106 96/146/111
f 107/568/327 108/166/125 116/151/116
f 107/568/327 116/151/116 106/167/126
f 113/158/120 115/149/114 106/167/126
f 103/569/266 114/133/101 110/168/127
f 224/570/123 237/163/122 240/174/131
f 91/571/104 73/176/11 90/177/105
f 121/192/140 124/178/133 122/179/134
f 119/269/94 85/180/135 118/182/97
f 119/125/94 118/185/97 123/126/95
f 87/572/185 84/183/128 117/186/136
f 121/192/140 117/186/136 124/178/133
f 129/194/141 125/187/137 130/188/138
f 118/573/97 117/189/136 127/191/98
f 122/179/134 126/127/96 121/192/140
f 128/574/139 117/193/136 129/194/141
f 134/575/145 129/194/141 137/196/143
f 131/202/147 133/197/144 132/199/146
f 128/574/139 129/194/141 133/201/144
f 127/191/98 128/190/139 131/202/147
f 132/576/146 130/188/138 131/203/147
f 140/211/152 136/204/148 142/206/150
f 129/194/141 130/207/138 135/195/142
f 136/204/148 130/207/138 138/205/149
f 138/214/149 132/199/146 137/209/143
f 135/195/142 136/204/148 139/210/151
f 137/196/143 135/195/142 141/213/154
f 142/254/150 138/214/149 141/215/154
f 146/226/160 148/216/155 161/218/157
f 141/213/154 139/210/151 145/220/159
f 144/230/165 140/211/152 146/223/160
f 145/220/159 143/219/158 149/225/162
f 148/216/155 142/227/150 167/229/164
f 152/237/168 149/231/162 156/233/167
f 151/236/169 147/212/153 152/235/168
f 143/219/158 147/212/153 150/224/161
f 148/216/155 145/222/159 152/237/168
f 162/247/175 160/238/170 164/240/172
f 149/225/162 150/224/161 153/242/166
f 155/244/174 151/236/169 156/243/167
f 150/224/161 151/236/169 154/241/173
f 160/238/170 147/212/153 159/239/171
f 159/239/171 144/230/165 161/245/157
f 148/234/155 147/212/153 158/246/156
f 158/246/156 160/238/170 163/248/176
f 164/240/172 159/239/171 165/251/178
f 161/218/157 158/217/156 165/253/178
f 168/577/163 142/254/150 169/255/179
f 169/260/179 141/221/154 167/229/164
f 168/577/163 169/255/179 171/257/181
f 172/264/180 169/260/179 170/261/183
f 170/261/183 167/229/164 171/262/181
f 118/573/97 88/266/100 117/189/136
f 120/578/93 82/268/64 119/269/94
f 224/171/123 240/270/131 238/172/129
f 34/279/46 183/274/188 37/276/47
f 67/102/81 71/85/67 186/277/190
f 174/284/72 188/278/191 34/279/46
f 4/6/6 3/116/7 179/280/192
f 9/5/5 180/4/4 12/281/17
f 185/100/79 189/282/193 62/101/80
f 32/283/22 189/282/193 174/284/72
f 77/285/20 14/3/3 18/38/29
f 182/2/2 18/38/29 14/3/3
f 178/386/90 190/288/194 179/290/192
f 196/579/241 16/291/21 197/293/196
f 5/303/13 7/294/8 190/296/194
f 7/294/8 8/297/9 191/295/195
f 192/528/246 230/299/198 10/301/16
f 193/298/197 8/305/9 194/307/201
f 194/307/201 11/306/18 195/309/203
f 232/322/211 219/310/204 21/312/30
f 195/309/203 13/308/202 16/291/21
f 16/291/21 196/579/241 231/313/205
f 221/377/242 201/314/206 223/316/208
f 179/290/192 191/289/195 180/318/4
f 197/293/196 19/292/27 198/320/210
f 58/543/33 206/323/212 79/325/34
f 219/310/204 220/326/214 24/311/35
f 22/319/209 25/328/39 198/320/210
f 206/551/212 41/111/40 233/331/213
f 201/531/206 207/332/217 205/334/219
f 202/372/238 33/335/45 203/337/220
f 207/332/217 211/338/221 210/333/218
f 204/580/226 209/340/223 200/342/225
f 201/314/206 200/342/225 207/343/217
f 205/334/219 210/333/218 204/345/226
f 213/353/230 214/346/222 217/348/228
f 208/341/224 212/349/229 207/343/217
f 210/333/218 214/339/222 209/344/223
f 208/341/224 209/340/223 212/349/229
f 212/356/229 213/353/230 216/354/231
f 211/581/221 215/355/232 214/346/222
f 211/581/221 212/356/229 215/355/232
f 228/382/244 227/357/233 69/359/85
f 43/330/216 81/363/65 233/331/213
f 87/361/185 236/360/234 264/367/237
f 204/345/226 28/368/74 205/334/219
f 199/329/215 25/328/39 204/345/226
f 28/368/74 204/345/226 25/328/39
f 321/373/239 175/371/73 202/372/238
f 31/369/92 175/371/73 322/374/240
f 18/321/29 196/375/241 232/322/211
f 199/378/215 200/342/225 220/326/214
f 198/395/210 199/378/215 219/310/204
f 222/537/207 185/100/79 225/379/243
f 221/377/242 223/316/208 30/381/82
f 226/385/245 228/382/244 65/383/84
f 226/385/245 225/384/243 228/382/244
f 223/316/208 222/315/207 226/385/245
f 223/316/208 226/385/245 63/380/83
f 225/379/243 186/277/190 227/365/233
f 15/394/19 192/388/246 2/390/91
f 221/377/242 30/381/82 230/391/198
f 74/582/77 230/393/198 15/394/19
f 197/376/196 198/395/210 232/322/211
f 79/325/34 233/324/213 83/397/69
f 266/583/277 267/398/247 270/400/249
f 265/454/236 273/401/250 274/403/252
f 237/584/122 238/172/129 241/406/130
f 240/174/131 241/173/130 245/411/256
f 240/270/131 245/408/256 239/271/186
f 245/411/256 246/410/258 244/414/261
f 245/408/256 244/418/261 243/412/259
f 243/412/259 247/419/265 246/421/258
f 239/271/186 243/412/259 241/406/130
f 258/416/263 255/428/270 263/417/264
f 260/424/267 263/417/264 253/430/272
f 252/427/269 262/415/262 253/430/272
f 250/548/325 257/431/273 261/404/253
f 2/390/91 229/389/63 237/435/122
f 220/326/214 230/391/198 27/327/36
f 182/585/2 195/438/203 18/321/29
f 231/437/205 196/375/241 18/321/29
f 270/400/249 271/399/248 269/440/275
f 236/586/234 235/441/276 265/443/236
f 235/587/276 236/444/234 86/130/70
f 266/583/277 270/400/249 265/445/236
f 267/398/247 264/448/237 271/399/248
f 273/401/250 272/450/278 277/402/251
f 265/366/236 274/452/252 264/367/237
f 272/450/278 273/401/250 268/439/274
f 272/450/278 264/455/237 276/451/279
f 281/588/284 284/457/281 276/459/279
f 278/465/286 279/460/283 280/462/285
f 275/456/280 280/463/285 276/451/279
f 274/452/252 278/465/286 275/453/280
f 274/403/252 277/402/251 278/467/286
f 285/471/290 283/468/287 289/470/289
f 276/459/279 282/458/282 277/402/251
f 279/589/283 277/402/251 285/471/290
f 281/461/284 279/460/283 284/473/281
f 282/458/282 286/474/291 283/468/287
f 284/457/281 288/476/293 282/458/282
f 284/473/281 285/472/290 288/478/293
f 293/490/300 308/479/294 295/481/296
f 288/476/293 292/482/297 286/474/291
f 289/470/289 287/469/288 293/487/300
f 292/482/297 296/488/301 290/483/298
f 295/481/296 314/492/303 289/491/289
f 299/499/308 303/494/305 296/496/301
f 295/590/296 294/475/292 299/498/308
f 290/483/298 297/489/302 294/475/292
f 295/481/296 299/499/308 292/485/297
f 306/507/314 307/500/309 311/502/311
f 296/488/301 300/503/306 297/489/302
f 299/498/308 298/497/307 303/506/305
f 297/489/302 301/504/312 298/497/307
f 291/486/299 294/475/292 306/507/314
f 293/487/300 291/486/299 308/508/294
f 295/590/296 305/509/295 294/475/292
f 305/509/295 310/510/315 307/500/309
f 308/508/294 306/507/314 312/513/317
f 308/479/294 312/514/317 305/480/295
f 288/478/293 289/477/289 316/517/318
f 295/481/296 288/484/293 314/492/303
f 315/516/304 318/519/319 316/517/318
f 314/492/303 316/518/318 317/524/322
f 315/493/304 314/492/303 318/525/319
f 10/301/16 57/79/12 192/528/246
f 235/441/276 234/529/235 266/442/277
f 202/534/238 203/533/220 183/274/188
f 321/538/239 202/534/238 188/278/191
f 182/585/2 181/535/1 195/438/203
f 193/317/197 194/536/201 180/318/4
f 201/591/206 189/282/193 222/537/207
f 201/591/206 321/538/239 189/282/193
f 87/592/185 264/448/237 84/446/128
f 83/397/69 234/396/235 86/541/70
f 56/162/76 224/164/123 58/543/33
f 66/156/75 91/136/104 93/134/102
f 94/142/106 90/177/105 93/143/102
