v -0.890984 0.558555 -0.053925
v -0.890984 0.558555 0.048239
v 0.887350 0.581862 -0.033302
v 0.861091 0.584572 0.065392
v 0.861450 0.591347 -0.137408
v 0.724829 0.625977 -0.237759
v 0.553578 0.661511 -0.284898
v 0.382907 0.681615 -0.278820
v 0.200201 0.701934 -0.245554
v 0.020782 0.706121 -0.467132
v -0.020925 0.706121 -0.467132
v -0.236359 0.695900 -0.205967
v -0.391387 0.675260 -0.205756
v -0.543816 0.652284 -0.223055
v -0.692908 0.611377 -0.205808
v -0.841301 0.570402 -0.145587
v -0.841150 0.569577 0.147940
v -0.695004 0.628242 0.190070
v -0.543930 0.661811 0.205464
v -0.389519 0.673009 0.233167
v -0.232135 0.666144 0.322593
v -0.076219 0.635561 0.409644
v 0.080250 0.638140 0.408552
v 0.242679 0.660794 0.347811
v 0.391472 0.675189 0.201518
v 0.515236 0.670104 0.137469
v 0.647228 0.644974 0.109238
v 0.797853 0.597099 0.107643
v 0.120117 0.700269 -0.296694
v 0.160941 0.649968 0.380304
v -0.131718 0.700356 -0.290967
v -0.153394 0.642987 0.389940
v -0.891155 0.559668 -0.028384
v -0.891215 0.560057 -0.002843
v -0.891155 0.559668 0.022698
v 0.867794 0.585012 0.040725
v 0.874407 0.584725 0.016053
v 0.880923 0.583656 -0.008623
v -0.842253 0.576834 0.074558
v -0.842713 0.579833 0.001176
v -0.842253 0.576834 -0.072205
v -0.696068 0.635082 0.091101
v -0.696238 0.634054 -0.007869
v -0.694894 0.627154 -0.106839
v -0.544001 0.673615 0.098357
v -0.543397 0.676868 -0.008780
v -0.544128 0.668842 -0.115918
v -0.390527 0.694963 0.123720
v -0.391109 0.705224 0.014067
v -0.391109 0.696042 -0.095845
v -0.235136 0.707733 0.191231
v -0.238563 0.738885 0.060058
v -0.238401 0.730180 -0.073161
v -0.062757 0.707133 0.232390
v -0.047756 0.759863 0.046497
v -0.035866 0.761720 -0.137277
v 0.064827 0.707511 0.231339
v 0.047140 0.761257 0.044811
v 0.032163 0.762411 -0.138257
v 0.246977 0.706100 0.186739
v 0.238644 0.743635 0.028658
v 0.213210 0.738181 -0.112789
v 0.374966 0.700605 0.081612
v 0.374614 0.714369 -0.038018
v 0.378820 0.704884 -0.158874
v 0.521538 0.682267 0.035612
v 0.529351 0.685580 -0.069849
v 0.541357 0.678079 -0.177985
v 0.667666 0.649771 0.024282
v 0.689733 0.648805 -0.061691
v 0.708221 0.640753 -0.150086
v 0.814652 0.600749 0.046997
v 0.831072 0.601323 -0.013665
v 0.846911 0.597520 -0.074516
v 0.157150 0.700585 0.203076
v 0.145964 0.770237 0.022655
v 0.127037 0.742096 -0.140758
v -0.149706 0.695592 0.218625
v -0.147830 0.763200 0.049334
v -0.142497 0.741988 -0.125000
v 0.795487 0.547106 0.022245
v 0.848556 0.531315 0.017083
v 0.844325 0.531122 0.034197
v 0.781184 0.543906 0.074232
v -0.860889 0.508943 -0.000059
v -0.812848 0.525622 0.053050
v -0.811146 0.519259 0.114895
v -0.860233 0.508955 0.015798
v -0.671533 0.581492 0.068165
v -0.671441 0.575960 0.155050
v -0.528727 0.617647 0.068652
v -0.529470 0.607811 0.162173
v -0.373432 0.642885 0.078159
v -0.373654 0.622212 0.173476
v -0.222054 0.598368 0.127419
v -0.221181 0.619493 0.246782
v -0.146625 0.552144 0.146591
v -0.063345 0.540045 0.117183
v -0.075770 0.588622 0.324857
v -0.150844 0.597245 0.306527
v 0.068766 0.543036 0.113954
v 0.081261 0.590984 0.323880
v 0.161561 0.567519 0.122624
v 0.233842 0.599762 0.116053
v 0.231064 0.614165 0.269183
v 0.161633 0.604673 0.294949
v 0.355912 0.648468 0.033506
v 0.364202 0.625284 0.143126
v 0.507814 0.626456 0.003336
v 0.501235 0.616633 0.092475
v 0.650121 0.595121 -0.001961
v 0.632581 0.591325 0.071671
v 0.827724 0.539933 -0.104391
v 0.852018 0.531530 -0.011206
v 0.848630 0.532054 0.005143
v 0.814764 0.545679 -0.050923
v 0.848959 0.531365 0.010710
v 0.804819 0.547771 -0.012429
v -0.861336 0.508509 -0.021319
v -0.814739 0.519499 -0.103265
v -0.815195 0.525507 -0.039340
v -0.861666 0.508634 -0.005533
v -0.814472 0.527391 0.008577
v -0.861712 0.508199 -0.002831
v -0.671052 0.560798 -0.151209
v -0.671575 0.574716 -0.064224
v -0.671004 0.580377 0.002617
v -0.528286 0.600755 -0.163250
v -0.528233 0.614892 -0.068694
v -0.527506 0.619564 -0.002492
v -0.377527 0.623904 -0.138611
v -0.375229 0.642316 -0.045175
v -0.371873 0.647921 0.009138
v -0.218787 0.649153 -0.130759
v -0.219369 0.624360 -0.017212
v -0.220407 0.603091 0.039781
v -0.118741 0.643052 -0.216752
v -0.018347 0.641449 -0.395725
v -0.032017 0.595274 -0.181643
v -0.131151 0.602211 -0.062220
v -0.051337 0.568434 -0.023681
v -0.142023 0.582263 0.038546
v 0.018205 0.640388 -0.395602
v 0.027255 0.596755 -0.182411
v 0.043226 0.571115 -0.028110
v 0.102203 0.647303 -0.225012
v 0.186142 0.654808 -0.175610
v 0.201093 0.633236 -0.058774
v 0.108207 0.609242 -0.083482
v 0.218917 0.610919 0.008809
v 0.139237 0.593165 0.008065
v 0.366801 0.630393 -0.214218
v 0.362478 0.650760 -0.110826
v 0.355941 0.657047 -0.047244
v 0.533143 0.609671 -0.228511
v 0.521308 0.623870 -0.132976
v 0.512685 0.628222 -0.068123
v 0.694837 0.575205 -0.191726
v 0.679235 0.588290 -0.115233
v 0.665163 0.594196 -0.057112
v 0.738547 0.597262 -0.229318
v 0.876520 0.561092 -0.127036
v 0.083538 0.614362 0.406965
v -0.078547 0.611771 0.407912
v -0.397520 0.650157 -0.192511
v -0.234961 0.672079 -0.188475
v -0.906663 0.529504 -0.019870
v -0.906407 0.528886 -0.042852
v 0.881360 0.554255 0.060493
v 0.814828 0.567293 0.107278
v -0.394634 0.648010 0.225207
v -0.554977 0.634619 0.203452
v 0.020167 0.684165 -0.479489
v 0.116219 0.675446 -0.288973
v 0.658239 0.615686 0.109992
v 0.523363 0.643755 0.135228
v -0.129191 0.674268 -0.282945
v -0.020325 0.684165 -0.479489
v -0.854598 0.539830 0.145154
v -0.905836 0.529112 0.034602
v 0.891388 0.554345 0.020011
v 0.887443 0.554508 0.037262
v 0.566290 0.635032 -0.277321
v 0.244800 0.635955 0.346881
v 0.165974 0.626142 0.377196
v 0.199441 0.678015 -0.231478
v -0.906718 0.529481 -0.004164
v -0.554229 0.626103 -0.215833
v 0.900397 0.552893 -0.019596
v 0.894896 0.554113 0.003211
v -0.234029 0.641513 0.315761
v -0.157079 0.619123 0.386610
v -0.856317 0.539625 -0.139395
v -0.706374 0.598276 0.190913
v 0.390663 0.656517 -0.267227
v 0.394238 0.650043 0.196854
v -0.705107 0.582415 -0.199546
v -0.906260 0.529661 0.011581
vt 0.281556 0.946625
vt 0.314598 0.946625
vt 0.284400 0.973717
vt 0.270963 0.973717
vt 0.270963 0.032688
vt 0.284400 0.032688
vt 0.336850 0.059640
vt 0.298246 0.059640
vt 0.359014 0.140589
vt 0.306948 0.140589
vt 0.367128 0.221162
vt 0.310766 0.221162
vt 0.382066 0.301735
vt 0.324244 0.301735
vt 0.430287 0.382308
vt 0.360482 0.382308
vt 0.375818 0.425484
vt 0.466321 0.422594
vt 0.476927 0.462881
vt 0.383761 0.470194
vt 0.476927 0.543454
vt 0.383761 0.536141
vt 0.375818 0.580851
vt 0.466321 0.583741
vt 0.455627 0.624027
vt 0.379487 0.624027
vt 0.401923 0.704600
vt 0.339137 0.704600
vt 0.367128 0.785173
vt 0.310766 0.785173
vt 0.337866 0.865746
vt 0.291087 0.865746
vt 0.182432 0.946625
vt 0.215473 0.946625
vt 0.244090 0.973717
vt 0.230653 0.973717
vt 0.248515 0.946625
vt 0.257526 0.973717
vt 0.230653 0.032688
vt 0.244090 0.032688
vt 0.221036 0.059640
vt 0.182432 0.059640
vt 0.257526 0.032688
vt 0.259641 0.059640
vt 0.202817 0.140589
vt 0.150751 0.140589
vt 0.254882 0.140589
vt 0.198040 0.221162
vt 0.141678 0.221162
vt 0.254403 0.221162
vt 0.208600 0.301735
vt 0.150778 0.301735
vt 0.266422 0.301735
vt 0.220872 0.382308
vt 0.151068 0.382308
vt 0.290677 0.382308
vt 0.104308 0.434153
vt 0.194811 0.431263
vt 0.193764 0.484821
vt 0.011262 0.492134
vt 0.285314 0.428373
vt 0.284716 0.477508
vt 0.193764 0.521514
vt 0.011262 0.514201
vt 0.284716 0.528827
vt 0.104308 0.572182
vt 0.194811 0.575072
vt 0.227207 0.624027
vt 0.151068 0.624027
vt 0.285314 0.577962
vt 0.303347 0.624027
vt 0.213565 0.704600
vt 0.150778 0.704600
vt 0.276351 0.704600
vt 0.198040 0.785173
vt 0.141678 0.785173
vt 0.254403 0.785173
vt 0.197530 0.865746
vt 0.150751 0.865746
vt 0.244309 0.865746
vt 0.744386 0.087215
vt 0.734842 0.061296
vt 0.743669 0.061100
vt 0.771352 0.087163
vt 0.733119 0.937328
vt 0.759732 0.912122
vt 0.790723 0.911761
vt 0.741065 0.937001
vt 0.767306 0.837253
vt 0.810845 0.837285
vt 0.767551 0.761708
vt 0.814415 0.762324
vt 0.772322 0.683357
vt 0.820367 0.684106
vt 0.797585 0.608380
vt 0.858114 0.609568
vt 0.808091 0.572409
vt 0.793668 0.531812
vt 0.898169 0.538401
vt 0.888657 0.575495
vt 0.793936 0.468602
vt 0.898430 0.461735
vt 0.808473 0.427692
vt 0.815111 0.391773
vt 0.882996 0.390622
vt 0.889464 0.424305
vt 0.785929 0.317568
vt 0.839156 0.316925
vt 0.766526 0.239862
vt 0.813624 0.239521
vt 0.752030 0.163489
vt 0.790888 0.163520
vt 0.679318 0.087446
vt 0.720705 0.063319
vt 0.729062 0.062859
vt 0.706465 0.087342
vt 0.731706 0.061934
vt 0.726408 0.087261
vt 0.722466 0.937584
vt 0.681402 0.913442
vt 0.713435 0.913300
vt 0.730376 0.937739
vt 0.737447 0.912795
vt 0.731730 0.937795
vt 0.657377 0.837930
vt 0.700966 0.837646
vt 0.734460 0.837276
vt 0.651343 0.761926
vt 0.698726 0.761543
vt 0.731900 0.760987
vt 0.663690 0.685405
vt 0.710511 0.684244
vt 0.737728 0.682553
vt 0.668141 0.606210
vt 0.724524 0.605696
vt 0.753165 0.606406
vt 0.626903 0.559161
vt 0.538967 0.509586
vt 0.642919 0.516322
vt 0.702043 0.561685
vt 0.720444 0.524324
vt 0.752706 0.567265
vt 0.538967 0.491165
vt 0.642919 0.484430
vt 0.720681 0.476346
vt 0.626240 0.441863
vt 0.666541 0.395045
vt 0.728939 0.395582
vt 0.701270 0.439480
vt 0.764286 0.394449
vt 0.753021 0.433639
vt 0.662781 0.315251
vt 0.713909 0.316414
vt 0.745495 0.318176
vt 0.650461 0.238188
vt 0.698163 0.238741
vt 0.730065 0.240010
vt 0.655335 0.162486
vt 0.694183 0.162780
vt 0.723559 0.163289
vt 0.916964 0.136641
vt 0.908385 0.055220
vt 0.894321 0.075173
vt 0.903140 0.152818
vt 0.940117 0.461210
vt 0.939763 0.543345
vt 0.927382 0.541783
vt 0.927700 0.462456
vt 0.941075 0.704226
vt 0.954822 0.620738
vt 0.942352 0.611946
vt 0.927913 0.693891
vt 0.906245 0.976525
vt 0.905908 0.976443
vt 0.891919 0.954825
vt 0.892009 0.954985
vt 0.905876 0.027300
vt 0.908490 0.055069
vt 0.894230 0.074880
vt 0.891550 0.047912
vt 0.942942 0.703531
vt 0.933424 0.786497
vt 0.919277 0.773481
vt 0.929515 0.692547
vt 0.936232 0.491884
vt 0.956454 0.435920
vt 0.943989 0.441894
vt 0.923753 0.492908
vt 0.922866 0.137194
vt 0.932360 0.218973
vt 0.918353 0.232527
vt 0.908651 0.153887
vt 0.956533 0.569110
vt 0.936232 0.513000
vt 0.923753 0.511968
vt 0.944149 0.563264
vt 0.907439 0.948872
vt 0.905979 0.976130
vt 0.892060 0.954221
vt 0.893477 0.928105
vt 0.906447 0.027746
vt 0.906328 0.027405
vt 0.891870 0.048115
vt 0.891904 0.048775
vt 0.928814 0.218259
vt 0.915200 0.231148
vt 0.945008 0.382048
vt 0.943299 0.420626
vt 0.930725 0.423726
vt 0.932069 0.388874
vt 0.954693 0.384416
vt 0.942094 0.393451
vt 0.906237 0.976556
vt 0.891789 0.955043
vt 0.928944 0.786284
vt 0.915461 0.773069
vt 0.906163 0.028488
vt 0.906504 0.028242
vt 0.892223 0.049732
vt 0.892123 0.050209
vt 0.948881 0.622535
vt 0.936079 0.615421
vt 0.941746 0.583749
vt 0.929294 0.580165
vt 0.907447 0.949772
vt 0.893493 0.929844
vt 0.924302 0.867719
vt 0.910069 0.851044
vt 0.939451 0.300607
vt 0.926190 0.310886
vt 0.940413 0.301503
vt 0.927041 0.312618
vt 0.915625 0.868064
vt 0.901989 0.851711
vt 0.906294 0.976305
vt 0.892106 0.954560
vt 0.930788 0.145080
vt 0.922449 0.065365
vt 0.952533 0.462732
vt 0.952144 0.542145
vt 0.954237 0.700971
vt 0.967292 0.621558
vt 0.920481 0.966144
vt 0.919898 0.966144
vt 0.920202 0.038663
vt 0.922750 0.065365
vt 0.956370 0.700971
vt 0.947570 0.780384
vt 0.948711 0.491564
vt 0.968918 0.434417
vt 0.937082 0.145080
vt 0.946367 0.224493
vt 0.968918 0.570459
vt 0.948711 0.513313
vt 0.921400 0.939580
vt 0.920990 0.038663
vt 0.920786 0.038663
vt 0.942429 0.224493
vt 0.957946 0.383319
vt 0.955874 0.423025
vt 0.967292 0.383319
vt 0.920685 0.966144
vt 0.942427 0.780384
vt 0.961683 0.621558
vt 0.954198 0.581851
vt 0.938534 0.859797
vt 0.952711 0.303906
vt 0.953786 0.303906
vt 0.929262 0.859797
vn 0.282500 0.951300 0.123400
vn -0.388800 0.917600 0.082600
vn -0.384000 0.919900 0.080100
vn -0.236800 0.967500 0.088800
vn -0.130000 0.979600 0.153400
vn -0.145800 0.956000 0.254700
vn -0.090900 0.939500 0.330200
vn -0.006900 0.929200 0.369500
vn -0.014000 0.962000 0.272700
vn 0.180600 0.955600 0.232700
vn 0.149100 0.976000 0.158500
vn 0.217700 0.968700 0.119100
vn 0.298500 0.945400 0.131200
vn 0.076400 0.945700 0.316000
vn 0.033800 0.954300 0.297000
vn 0.359900 0.933000 0.001300
vn 0.330900 0.943100 0.032800
vn 0.298300 0.950800 0.083700
vn -0.374700 0.924100 -0.074700
vn -0.366500 0.929800 -0.033800
vn -0.371300 0.927900 0.033700
vn -0.329300 0.935700 -0.126200
vn -0.342200 0.937900 -0.057400
vn -0.359000 0.933300 0.012000
vn -0.274900 0.949400 -0.152000
vn -0.269600 0.960400 -0.070300
vn -0.258000 0.966100 0.009900
vn -0.139800 0.975800 -0.167900
vn -0.168000 0.982800 -0.077300
vn -0.169600 0.983600 0.061300
vn -0.155400 0.963100 -0.219600
vn -0.200800 0.977000 -0.072000
vn -0.207600 0.963500 0.169100
vn -0.282300 0.938500 -0.198700
vn -0.083100 0.994900 -0.057800
vn -0.060100 0.946300 0.317700
vn -0.007700 0.985800 -0.167500
vn -0.012700 0.999900 0.008300
vn -0.004300 0.961500 0.274900
vn 0.140200 0.953300 -0.267500
vn 0.191500 0.972200 -0.135000
vn 0.126100 0.947800 0.292900
vn 0.096300 0.968100 -0.231400
vn 0.177400 0.981600 -0.070300
vn 0.236200 0.956800 0.169400
vn 0.125500 0.978600 -0.162800
vn 0.162700 0.984800 -0.061500
vn 0.174200 0.981400 0.080200
vn 0.234600 0.964600 -0.120600
vn 0.225100 0.973400 -0.042100
vn 0.220700 0.974200 0.046400
vn 0.311200 0.947900 -0.067500
vn 0.309900 0.950800 -0.004300
vn 0.299600 0.951000 0.076100
vn 0.298800 0.933100 -0.200100
vn 0.047800 0.995500 -0.082200
vn 0.072300 0.947100 0.312800
vn -0.245600 0.936900 -0.248600
vn -0.220800 0.970400 -0.098300
vn -0.094800 0.945600 0.311300
vn -0.281600 -0.951700 -0.122300
vn 0.390600 -0.916500 -0.086800
vn 0.383900 -0.920000 -0.078200
vn 0.233600 -0.968900 -0.081700
vn 0.135200 -0.978200 -0.157400
vn -0.154600 -0.988000 0.002600
vn -0.109400 -0.964400 0.240800
vn 0.021300 -0.974100 0.225100
vn 0.310900 -0.938300 0.151200
vn 0.199400 -0.979200 -0.036900
vn -0.148500 -0.975800 -0.160800
vn -0.211700 -0.970800 -0.112600
vn -0.295700 -0.946700 -0.127700
vn 0.233400 -0.950700 0.204000
vn -0.501200 -0.843300 0.194000
vn -0.355700 -0.934600 0.000700
vn -0.323000 -0.945500 -0.040400
vn -0.298600 -0.950400 -0.087400
vn 0.370300 -0.925900 0.074900
vn 0.363600 -0.931300 0.021800
vn 0.375400 -0.926000 -0.039500
vn 0.326900 -0.936600 0.125800
vn 0.340300 -0.938500 0.057900
vn 0.357300 -0.933900 -0.009100
vn 0.274600 -0.950200 0.147500
vn 0.268200 -0.960700 0.072000
vn 0.254500 -0.967100 -0.002400
vn 0.136000 -0.976500 0.167400
vn 0.168700 -0.982600 0.078100
vn 0.172700 -0.983900 -0.045400
vn 0.026700 -0.999200 -0.031000
vn -0.173800 -0.975700 -0.133700
vn -0.266500 -0.961600 -0.065400
vn -0.393200 -0.888200 -0.237500
vn -0.296700 -0.933100 -0.203400
vn -0.264300 -0.934800 -0.237400
vn 0.002900 -0.978600 -0.205700
vn 0.021100 -0.986000 -0.165500
vn 0.017900 -0.980300 -0.196500
vn 0.265900 -0.934400 -0.237200
vn 0.266000 -0.915300 -0.302500
vn 0.298800 -0.932100 -0.204800
vn -0.021300 -0.999800 -0.004400
vn 0.160300 -0.978000 -0.133300
vn 0.282800 -0.951400 -0.122300
vn -0.125400 -0.979100 0.159900
vn -0.165300 -0.984300 0.062000
vn -0.173700 -0.982100 -0.072300
vn -0.231500 -0.965900 0.116300
vn -0.222200 -0.974200 0.040300
vn -0.215500 -0.975700 -0.040400
vn -0.313400 -0.947100 0.068400
vn -0.308600 -0.951200 0.002000
vn -0.296600 -0.951800 -0.077700
vn 0.457500 -0.862100 -0.218000
vn 0.346600 -0.911600 -0.221000
vn 0.286800 -0.925500 -0.247300
vn -0.305500 -0.921300 -0.240400
vn -0.308600 -0.914300 -0.262200
vn -0.376400 -0.910000 -0.174000
vn 0.100600 -0.875100 -0.473400
vn 0.016600 -0.962800 0.269700
vn 0.146400 -0.886900 -0.438200
vn -0.420000 -0.907500 0.011000
vn 0.155600 -0.858900 0.487900
vn 0.023600 -0.865100 0.501100
vn 0.593100 -0.747400 -0.299500
vn -0.067800 -0.823700 0.563000
vn -0.559700 -0.760700 -0.328700
vn -0.294800 -0.926500 0.234000
vn 0.466900 -0.879700 0.090100
vn -0.053700 -0.854500 -0.516700
vn 0.211700 -0.949200 0.232800
vn 0.264600 -0.906800 -0.328300
vn -0.420500 -0.907000 -0.024900
vn 0.206900 -0.842400 -0.497500
vn 0.425400 -0.894700 0.136400
vn -0.192000 -0.929700 0.314500
vn -0.223800 -0.713900 0.663600
vn -0.442800 -0.873900 0.200700
vn -0.011500 -0.888600 -0.458500
vn 0.449300 -0.892200 0.045600
vn -0.264100 -0.929800 -0.256300
vn 0.116500 -0.764500 0.634000
vn -0.141100 -0.849400 -0.508500
vn 0.303900 -0.925400 0.226500
vn 0.235700 -0.940300 0.245600
vn 0.191000 -0.841600 -0.505200
vn -0.413300 -0.907600 0.073900
vn 0.352100 -0.922000 -0.160800
vn -0.164600 -0.953100 0.254000
vn -0.303000 -0.895400 -0.326200
vn -0.410200 -0.912000 -0.001200
vn 0.140900 -0.781400 0.608000
vn 0.125200 -0.900500 0.416500
vn -0.198800 -0.865400 -0.460000
vn 0.467800 -0.877000 0.109900
vn 0.068000 -0.868900 -0.490300
vn 0.599600 0.037700 -0.799400
vn 0.007500 -0.069500 0.997600
vn 0.081900 -0.535900 -0.840300
vn -0.891200 0.452900 -0.024000
vn 0.579500 0.292400 0.760700
vn -0.142700 -0.142900 0.979400
vn 0.878200 -0.037500 -0.476900
vn 0.204700 0.044300 0.977800
vn -0.861300 -0.010200 -0.508000
vn -0.869400 0.308500 0.386000
vn 0.837800 0.505700 0.205600
vn 0.229600 -0.168300 -0.958600
vn 0.366800 -0.023200 0.930000
vn 0.517000 -0.390100 -0.761900
vn -0.890900 0.454100 -0.006500
vn 0.180200 -0.414200 -0.892200
vn 0.858800 0.477500 0.185400
vn -0.490000 -0.184700 0.851900
vn 0.018900 0.015500 0.999700
vn -0.674300 -0.076300 0.734500
vn 0.000000 0.490500 -0.871500
vn 0.850900 0.489700 0.190300
vn -0.854500 0.311600 -0.415600
vn -0.322000 0.103200 0.941100
vn -0.088400 -0.377700 -0.921700
vn 0.705300 -0.010400 0.708800
vn 0.339200 -0.033400 0.940100
vn -0.047200 -0.219000 -0.974600
vn -0.893600 0.448700 0.013500
vn 0.914800 0.359000 -0.185200
vn -0.260200 -0.069500 0.963000
vn -0.585900 -0.404900 -0.701900
vn -0.897000 0.441200 0.026100
vn -0.095900 0.017300 0.995200
vn 0.443900 -0.026200 0.895700
vn -0.210800 -0.476900 -0.853300
vn 0.828000 0.512100 0.228400
vn -0.366100 -0.027100 -0.930200
s off
f 72/1/1 28/2/1 4/3/1 36/4/1
f 35/5/2 2/6/2 17/7/2 39/8/2
f 39/8/3 17/7/3 18/9/3 42/10/3
f 42/10/4 18/9/4 19/11/4 45/12/4
f 45/12/5 19/11/5 20/13/5 48/14/5
f 48/14/6 20/13/6 21/15/6 51/16/6
f 78/17/7 32/18/7 22/19/7 54/20/7
f 54/20/8 22/19/8 23/21/8 57/22/8
f 75/23/9 30/24/9 24/25/9 60/26/9
f 60/26/10 24/25/10 25/27/10 63/28/10
f 63/28/11 25/27/11 26/29/11 66/30/11
f 66/30/12 26/29/12 27/31/12 69/32/12
f 69/32/13 27/31/13 28/2/13 72/1/13
f 57/22/14 23/21/14 30/24/14 75/23/14
f 51/16/15 21/15/15 32/18/15 78/17/15
f 5/33/16 74/34/16 38/35/16 3/36/16
f 74/34/17 73/37/17 37/38/17 38/35/17
f 73/37/18 72/1/18 36/4/18 37/38/18
f 1/39/19 33/40/19 41/41/19 16/42/19
f 33/40/20 34/43/20 40/44/20 41/41/20
f 34/43/21 35/5/21 39/8/21 40/44/21
f 16/42/22 41/41/22 44/45/22 15/46/22
f 41/41/23 40/44/23 43/47/23 44/45/23
f 40/44/24 39/8/24 42/10/24 43/47/24
f 15/46/25 44/45/25 47/48/25 14/49/25
f 44/45/26 43/47/26 46/50/26 47/48/26
f 43/47/27 42/10/27 45/12/27 46/50/27
f 14/49/28 47/48/28 50/51/28 13/52/28
f 47/48/29 46/50/29 49/53/29 50/51/29
f 46/50/30 45/12/30 48/14/30 49/53/30
f 13/52/31 50/51/31 53/54/31 12/55/31
f 50/51/32 49/53/32 52/56/32 53/54/32
f 49/53/33 48/14/33 51/16/33 52/56/33
f 31/57/34 80/58/34 56/59/34 11/60/34
f 80/58/35 79/61/35 55/62/35 56/59/35
f 79/61/36 78/17/36 54/20/36 55/62/36
f 11/60/37 56/59/37 59/63/37 10/64/37
f 56/59/38 55/62/38 58/65/38 59/63/38
f 55/62/39 54/20/39 57/22/39 58/65/39
f 29/66/40 77/67/40 62/68/40 9/69/40
f 77/67/41 76/70/41 61/71/41 62/68/41
f 76/70/42 75/23/42 60/26/42 61/71/42
f 9/69/43 62/68/43 65/72/43 8/73/43
f 62/68/44 61/71/44 64/74/44 65/72/44
f 61/71/45 60/26/45 63/28/45 64/74/45
f 8/73/46 65/72/46 68/75/46 7/76/46
f 65/72/47 64/74/47 67/77/47 68/75/47
f 64/74/48 63/28/48 66/30/48 67/77/48
f 7/76/49 68/75/49 71/78/49 6/79/49
f 68/75/50 67/77/50 70/80/50 71/78/50
f 67/77/51 66/30/51 69/32/51 70/80/51
f 6/79/52 71/78/52 74/34/52 5/33/52
f 71/78/53 70/80/53 73/37/53 74/34/53
f 70/80/54 69/32/54 72/1/54 73/37/54
f 10/64/55 59/63/55 77/67/55 29/66/55
f 59/63/56 58/65/56 76/70/56 77/67/56
f 58/65/57 57/22/57 75/23/57 76/70/57
f 12/55/58 53/54/58 80/58/58 31/57/58
f 53/54/59 52/56/59 79/61/59 80/58/59
f 52/56/60 51/16/60 78/17/60 79/61/60
f 81/81/61 82/82/61 83/83/61 84/84/61
f 85/85/62 86/86/62 87/87/62 88/88/62
f 86/86/63 89/89/63 90/90/63 87/87/63
f 89/89/64 91/91/64 92/92/64 90/90/64
f 91/91/65 93/93/65 94/94/65 92/92/65
f 93/93/66 95/95/66 96/96/66 94/94/66
f 97/97/67 98/98/67 99/99/67 100/100/67
f 98/98/68 101/101/68 102/102/68 99/99/68
f 103/103/69 104/104/69 105/105/69 106/106/69
f 104/104/70 107/107/70 108/108/70 105/105/70
f 107/107/71 109/109/71 110/110/71 108/108/71
f 109/109/72 111/111/72 112/112/72 110/110/72
f 111/111/73 81/81/73 84/84/73 112/112/73
f 101/101/74 103/103/74 106/106/74 102/102/74
f 95/95/75 97/97/75 100/100/75 96/96/75
f 113/113/76 114/114/76 115/115/76 116/116/76
f 116/116/77 115/115/77 117/117/77 118/118/77
f 118/118/78 117/117/78 82/82/78 81/81/78
f 119/119/79 120/120/79 121/121/79 122/122/79
f 122/122/80 121/121/80 123/123/80 124/124/80
f 124/124/81 123/123/81 86/86/81 85/85/81
f 120/120/82 125/125/82 126/126/82 121/121/82
f 121/121/83 126/126/83 127/127/83 123/123/83
f 123/123/84 127/127/84 89/89/84 86/86/84
f 125/125/85 128/128/85 129/129/85 126/126/85
f 126/126/86 129/129/86 130/130/86 127/127/86
f 127/127/87 130/130/87 91/91/87 89/89/87
f 128/128/88 131/131/88 132/132/88 129/129/88
f 129/129/89 132/132/89 133/133/89 130/130/89
f 130/130/90 133/133/90 93/93/90 91/91/90
f 131/131/91 134/134/91 135/135/91 132/132/91
f 132/132/92 135/135/92 136/136/92 133/133/92
f 133/133/93 136/136/93 95/95/93 93/93/93
f 137/137/94 138/138/94 139/139/94 140/140/94
f 140/140/95 139/139/95 141/141/95 142/142/95
f 142/142/96 141/141/96 98/98/96 97/97/96
f 138/138/97 143/143/97 144/144/97 139/139/97
f 139/139/98 144/144/98 145/145/98 141/141/98
f 141/141/99 145/145/99 101/101/99 98/98/99
f 146/146/100 147/147/100 148/148/100 149/149/100
f 149/149/101 148/148/101 150/150/101 151/151/101
f 151/151/102 150/150/102 104/104/102 103/103/102
f 147/147/103 152/152/103 153/153/103 148/148/103
f 148/148/104 153/153/104 154/154/104 150/150/104
f 150/150/105 154/154/105 107/107/105 104/104/105
f 152/152/106 155/155/106 156/156/106 153/153/106
f 153/153/107 156/156/107 157/157/107 154/154/107
f 154/154/108 157/157/108 109/109/108 107/107/108
f 155/155/109 158/158/109 159/159/109 156/156/109
f 156/156/110 159/159/110 160/160/110 157/157/110
f 157/157/111 160/160/111 111/111/111 109/109/111
f 158/158/112 113/113/112 116/116/112 159/159/112
f 159/159/113 116/116/113 118/118/113 160/160/113
f 160/160/114 118/118/114 81/81/114 111/111/114
f 143/143/115 146/146/115 149/149/115 144/144/115
f 144/144/116 149/149/116 151/151/116 145/145/116
f 145/145/117 151/151/117 103/103/117 101/101/117
f 134/134/118 137/137/118 140/140/118 135/135/118
f 135/135/119 140/140/119 142/142/119 136/136/119
f 136/136/120 142/142/120 97/97/120 95/95/120
f 161/161/121 162/162/121 113/163/121 158/164/121
f 163/165/122 164/166/122 99/167/122 102/168/122
f 165/169/123 166/170/123 134/171/123 131/172/123
f 167/173/124 168/174/124 119/175/124 122/176/124
f 169/177/125 170/178/125 84/179/125 83/180/125
f 171/181/126 172/182/126 92/183/126 94/184/126
f 173/185/127 174/186/127 146/187/127 143/188/127
f 175/189/128 176/190/128 110/191/128 112/192/128
f 177/193/129 178/194/129 138/195/129 137/196/129
f 179/197/130 180/198/130 88/199/130 87/200/130
f 181/201/131 182/202/131 82/203/131 117/204/131
f 183/205/132 161/161/132 158/164/132 155/206/132
f 184/207/133 185/208/133 106/209/133 105/210/133
f 174/186/134 186/211/134 147/212/134 146/187/134
f 187/213/135 167/173/135 122/176/135 124/214/135
f 188/215/136 165/169/136 131/172/136 128/216/136
f 189/217/137 190/218/137 115/219/137 114/220/137
f 191/221/138 171/181/138 94/184/138 96/222/138
f 170/178/139 175/189/139 112/192/139 84/179/139
f 192/223/140 191/221/140 96/222/140 100/224/140
f 178/194/141 173/185/141 143/188/141 138/195/141
f 190/218/142 181/201/142 117/204/142 115/219/142
f 168/174/143 193/225/143 120/226/143 119/175/143
f 194/227/144 179/197/144 87/200/144 90/228/144
f 195/229/145 183/205/145 155/206/145 152/230/145
f 196/231/146 184/207/146 105/210/146 108/232/146
f 185/208/147 163/165/147 102/168/147 106/209/147
f 197/233/148 188/215/148 128/216/148 125/234/148
f 198/235/149 187/213/149 124/214/149 85/236/149
f 162/162/150 189/217/150 114/220/150 113/163/150
f 164/166/151 192/223/151 100/224/151 99/167/151
f 166/170/152 177/193/152 137/196/152 134/171/152
f 180/198/153 198/235/153 85/236/153 88/199/153
f 172/182/154 194/227/154 90/228/154 92/183/154
f 176/190/155 196/231/155 108/232/155 110/191/155
f 186/211/156 195/229/156 152/230/156 147/212/156
f 182/202/157 169/177/157 83/180/157 82/203/157
f 193/225/158 197/233/158 125/234/158 120/226/158
f 6/237/159 5/238/159 162/162/159 161/161/159
f 23/239/160 22/240/160 164/166/160 163/165/160
f 13/241/161 12/242/161 166/170/161 165/169/161
f 33/243/162 1/244/162 168/174/162 167/173/162
f 4/245/163 28/246/163 170/178/163 169/177/163
f 20/247/164 19/248/164 172/182/164 171/181/164
f 10/249/165 29/250/165 174/186/165 173/185/165
f 27/251/166 26/252/166 176/190/166 175/189/166
f 31/253/167 11/254/167 178/194/167 177/193/167
f 17/255/168 2/244/168 180/198/168 179/197/168
f 37/256/169 36/257/169 182/202/169 181/201/169
f 7/258/170 6/237/170 161/161/170 183/205/170
f 24/259/171 30/260/171 185/208/171 184/207/171
f 29/250/172 9/261/172 186/211/172 174/186/172
f 34/262/173 33/243/173 167/173/173 187/213/173
f 14/263/174 13/241/174 165/169/174 188/215/174
f 3/245/175 38/257/175 190/218/175 189/217/175
f 21/264/176 20/247/176 171/181/176 191/221/176
f 28/246/177 27/251/177 175/189/177 170/178/177
f 32/265/178 21/264/178 191/221/178 192/223/178
f 11/254/179 10/249/179 173/185/179 178/194/179
f 38/257/180 37/256/180 181/201/180 190/218/180
f 1/244/181 16/255/181 193/225/181 168/174/181
f 18/266/182 17/255/182 179/197/182 194/227/182
f 8/267/183 7/258/183 183/205/183 195/229/183
f 25/268/184 24/259/184 184/207/184 196/231/184
f 30/260/185 23/239/185 163/165/185 185/208/185
f 15/269/186 14/263/186 188/215/186 197/233/186
f 35/243/187 34/262/187 187/213/187 198/235/187
f 5/238/188 3/245/188 189/217/188 162/162/188
f 22/240/189 32/265/189 192/223/189 164/166/189
f 12/242/190 31/253/190 177/193/190 166/170/190
f 2/244/191 35/243/191 198/235/191 180/198/191
f 19/248/192 18/266/192 194/227/192 172/182/192
f 26/252/193 25/268/193 196/231/193 176/190/193
f 9/261/194 8/267/194 195/229/194 186/211/194
f 36/257/195 4/245/195 169/177/195 182/202/195
f 16/255/196 15/269/196 197/233/196 193/225/196
