v 0.426075 0.435709 -0.992077
v 0.586709 0.219916 -0.984001
v 0.389644 0.411389 -0.917281
v 0.550278 0.195596 -0.909205
v 0.321993 0.361852 -0.895310
v 0.482627 0.146059 -0.887234
v 0.262751 0.316117 -0.939036
v 0.423386 0.100324 -0.930960
v 0.246622 0.300974 -1.022844
v 0.407256 0.085181 -1.014768
v 0.283054 0.325294 -1.097640
v 0.443688 0.109501 -1.089565
v 0.350704 0.374831 -1.119611
v 0.511339 0.159038 -1.111535
v 0.409946 0.420566 -1.075885
v 0.570580 0.204773 -1.067809
v 0.597961 0.262886 -0.775053
v 0.564399 0.272057 -0.759596
v 0.567844 0.354137 -0.800813
v 0.622702 0.280443 -0.798056
v 0.624129 0.314441 -0.815128
v 0.543104 0.336581 -0.777812
v 0.601406 0.344966 -0.816271
v 0.541676 0.302583 -0.760739
v 0.521521 0.379400 -0.785497
v 0.487959 0.388571 -0.770040
v 0.491405 0.470651 -0.811256
v 0.546262 0.396956 -0.808499
v 0.547689 0.430955 -0.825571
v 0.466664 0.453095 -0.788254
v 0.524967 0.461480 -0.826713
v 0.465237 0.419096 -0.771182
v 0.613823 0.621167 -0.511037
v 0.797184 0.374843 -0.501819
v 0.680357 0.693169 -0.623882
v 0.648479 0.671889 -0.558435
v 0.589284 0.628544 -0.539211
v 0.537447 0.588526 -0.577471
v 0.523334 0.575275 -0.650804
v 0.555211 0.596555 -0.716251
v 0.614407 0.639900 -0.735475
v 0.666243 0.679919 -0.697215
v 0.719304 0.695654 -0.618753
v 0.676800 0.667281 -0.531490
v 0.597873 0.609488 -0.505857
v 0.528757 0.556130 -0.556871
v 0.509940 0.538463 -0.654648
v 0.552443 0.566836 -0.741911
v 0.631370 0.624629 -0.767544
v 0.700486 0.677988 -0.716530
v 0.891907 0.408976 -0.613246
v 0.860030 0.387696 -0.547799
v 0.800834 0.344351 -0.528575
v 0.748998 0.304332 -0.566835
v 0.734885 0.291082 -0.640168
v 0.766762 0.312362 -0.705615
v 0.825957 0.355707 -0.724839
v 0.877794 0.395726 -0.686579
v 0.902665 0.449330 -0.609535
v 0.860161 0.420957 -0.522271
v 0.781234 0.363164 -0.496639
v 0.712118 0.309806 -0.547653
v 0.693301 0.292139 -0.645429
v 0.735805 0.320512 -0.732693
v 0.814731 0.378305 -0.758325
v 0.598057 0.232682 -0.868689
v 0.435953 0.450450 -0.876839
v 0.883847 0.431663 -0.707311
v 0.840739 0.449598 -0.632105
v 0.708760 0.342997 -0.855425
v 0.572891 0.525520 -0.862255
v 0.704870 0.632121 -0.638936
v 0.764964 0.362638 -0.545813
v 0.596762 0.588598 -0.554269
v 0.719483 0.687722 -0.346615
v 0.887685 0.461762 -0.338159
v 0.689573 0.690840 -0.230564
v 0.397452 0.454890 -0.724857
v 0.430936 0.386051 -0.601224
v 0.585792 0.201877 -0.715389
v 0.877913 0.437828 -0.221095
v 0.525106 0.259545 -0.596490
v 0.734367 0.428568 -0.242403
v 0.640197 0.555074 -0.247137
v 0.359882 0.154398 -0.888933
v 0.296727 0.239142 -0.889112
v 0.299054 0.240723 -0.961578
v 0.362208 0.155978 -0.961399
v 0.202510 0.036871 -1.006499
v 0.139356 0.121615 -1.006678
v 0.594089 0.328693 -1.004261
v 0.530934 0.413437 -1.004441
v 0.497594 0.388355 -1.116024
v 0.560748 0.303610 -1.115845
v 0.490727 0.251282 -1.185217
v 0.427573 0.336026 -1.185396
v 0.385555 0.172935 -1.170225
v 0.322400 0.257680 -1.170404
v 0.196043 0.206985 -0.885243
v 0.170441 0.187964 -0.857270
v 0.136499 0.162664 -0.860042
v 0.114101 0.145905 -0.891937
v 0.116367 0.147504 -0.934270
v 0.141969 0.166524 -0.962244
v 0.198309 0.208584 -0.927577
v 0.175911 0.191824 -0.959472
v 0.300815 0.066395 -0.884946
v 0.275213 0.047374 -0.856972
v 0.241271 0.022074 -0.859745
v 0.218873 0.005315 -0.891640
v 0.221139 0.006914 -0.933973
v 0.246742 0.025934 -0.961947
v 0.280683 0.051235 -0.959175
v 0.303081 0.067994 -0.927280
v 0.229862 0.189338 -0.877014
v 0.293016 0.104593 -0.876835
v 0.195725 0.163977 -0.839716
v 0.258880 0.079232 -0.839537
v 0.150470 0.130243 -0.843412
v 0.183760 0.023153 -0.885759
v 0.120605 0.107897 -0.885938
v 0.213624 0.045498 -0.843233
v 0.266173 0.084380 -0.975806
v 0.157763 0.135391 -0.979682
v 0.186781 0.025285 -0.942204
v 0.123627 0.110029 -0.942383
v 0.220918 0.050646 -0.979503
v 0.232883 0.191470 -0.933459
v 0.296037 0.106725 -0.933280
v 0.203019 0.169124 -0.975985
v 1.015173 0.673853 -0.293270
v 0.969741 0.536330 -0.200774
v 0.910256 0.519587 -0.080359
v 0.887121 0.536478 -0.152017
v 0.772473 0.704682 -0.087286
v 0.784554 0.674265 -0.157174
v 1.082273 0.704128 -0.270110
v 1.021243 0.519388 -0.145856
v 0.957915 0.750772 -0.296149
v 0.809916 0.751036 -0.208810
v 1.005356 0.807457 -0.273977
v 0.806543 0.807812 -0.156650
v 0.627832 0.406615 -0.806937
v 0.616710 0.409894 -0.801921
v 0.635897 0.412346 -0.814457
v 0.636217 0.423755 -0.820100
v 0.608979 0.420215 -0.802285
v 0.609248 0.431589 -0.807877
v 0.617310 0.437319 -0.815395
v 0.628498 0.434086 -0.820474
v 0.956845 0.653073 -0.248942
v 0.642424 0.399113 -0.780967
v 0.934101 0.659288 -0.238467
v 0.619679 0.405328 -0.770491
v 0.918701 0.679975 -0.239241
v 0.604280 0.426015 -0.771265
v 0.919669 0.703016 -0.250811
v 0.605247 0.449056 -0.782835
v 0.936436 0.714913 -0.266399
v 0.622014 0.460954 -0.798424
v 0.959180 0.708698 -0.276874
v 0.644759 0.454739 -0.808899
v 0.974580 0.688011 -0.276100
v 0.660158 0.434051 -0.808125
v 0.659191 0.411011 -0.796555
v 0.973613 0.664971 -0.264530
v 0.372627 0.460535 -0.997482
v 0.345303 0.442295 -0.941385
v 0.294565 0.405142 -0.924907
v 0.250134 0.370841 -0.957702
v 0.238037 0.359484 -1.020558
v 0.265360 0.377724 -1.076655
v 0.360530 0.449177 -1.060338
v 0.316098 0.414876 -1.093133
v 0.594196 0.162882 -0.986343
v 0.566873 0.144642 -0.930245
v 0.516135 0.107490 -0.913768
v 0.471703 0.073188 -0.946562
v 0.459606 0.061831 -1.009418
v 0.486930 0.080071 -1.065515
v 0.537668 0.117223 -1.081993
v 0.582099 0.151525 -1.049199
v 0.867822 0.659108 -0.199531
v 0.431698 0.306850 -0.937484
v 0.834260 0.668279 -0.184074
v 0.398136 0.316020 -0.922027
v 0.811538 0.698804 -0.185216
v 0.375414 0.346545 -0.923169
v 0.812965 0.732803 -0.202289
v 0.376841 0.380544 -0.940242
v 0.837706 0.750359 -0.225291
v 0.401582 0.398100 -0.963244
v 0.871267 0.741188 -0.240748
v 0.435143 0.388929 -0.978701
v 0.893990 0.710663 -0.239605
v 0.457866 0.358404 -0.977558
v 0.456439 0.324406 -0.960486
v 0.892563 0.676664 -0.222533
v 0.944261 0.542595 -0.189088
v 0.508137 0.190336 -0.927041
v 0.910699 0.551766 -0.173631
v 0.474576 0.199507 -0.911584
v 0.887977 0.582291 -0.174773
v 0.451853 0.230032 -0.912727
v 0.889404 0.616289 -0.191846
v 0.453280 0.264031 -0.929799
v 0.914145 0.633845 -0.214848
v 0.478021 0.281587 -0.952801
v 0.947707 0.624675 -0.230305
v 0.511583 0.272416 -0.968258
v 0.970429 0.594149 -0.229162
v 0.534305 0.241890 -0.967115
v 0.532878 0.207892 -0.950043
v 0.969002 0.560151 -0.212090
vt 0.220090 0.413110
vt 0.231649 0.387130
vt 0.231637 0.387130
vt 0.220078 0.413109
vt 0.152717 0.387130
vt 0.164277 0.413110
vt 0.164265 0.413109
vt 0.152705 0.387130
vt 0.164277 0.413110
vt 0.192183 0.423871
vt 0.192171 0.423870
vt 0.164265 0.413109
vt 0.192171 0.423870
vt 0.192169 0.414685
vt 0.171239 0.406615
vt 0.164265 0.413109
vt 0.220090 0.361151
vt 0.213115 0.367646
vt 0.192185 0.359575
vt 0.192183 0.350390
vt 0.192183 0.423871
vt 0.220090 0.413110
vt 0.220078 0.413109
vt 0.192171 0.423870
vt 0.220090 0.361151
vt 0.192183 0.350390
vt 0.192171 0.350390
vt 0.220078 0.361151
vt 0.231649 0.387130
vt 0.220090 0.361151
vt 0.220078 0.361151
vt 0.231637 0.387130
vt 0.192183 0.350390
vt 0.164277 0.361151
vt 0.164265 0.361151
vt 0.192171 0.350390
vt 0.164277 0.361151
vt 0.152717 0.387130
vt 0.152705 0.387130
vt 0.164265 0.361151
vt 0.250763 0.536678
vt 0.250750 0.536678
vt 0.263976 0.568807
vt 0.263990 0.568807
vt 0.208311 0.421288
vt 0.198929 0.421288
vt 0.198929 0.481685
vt 0.208311 0.481685
vt 0.218831 0.614245
vt 0.218818 0.614245
vt 0.193338 0.603626
vt 0.186885 0.600937
vt 0.186899 0.600937
vt 0.193352 0.603626
vt 0.202534 0.421288
vt 0.189267 0.421288
vt 0.189267 0.481685
vt 0.202534 0.481685
vt 0.250763 0.600937
vt 0.250750 0.600937
vt 0.218818 0.614245
vt 0.218831 0.614245
vt 0.211916 0.421288
vt 0.202534 0.421288
vt 0.202534 0.481685
vt 0.211916 0.481685
vt 0.263990 0.568807
vt 0.252701 0.568807
vt 0.242781 0.544711
vt 0.250763 0.536678
vt 0.186885 0.536678
vt 0.194868 0.544710
vt 0.218817 0.534729
vt 0.218818 0.523370
vt 0.189271 0.421287
vt 0.202538 0.421287
vt 0.202538 0.481684
vt 0.189271 0.481684
vt 0.186899 0.536678
vt 0.194883 0.544711
vt 0.184963 0.568807
vt 0.173672 0.568807
vt 0.218818 0.614245
vt 0.218817 0.602886
vt 0.194868 0.592904
vt 0.186885 0.600937
vt 0.193338 0.603626
vt 0.163241 0.488324
vt 0.202476 0.452357
vt 0.241710 0.488324
vt 0.241710 0.584769
vt 0.193356 0.584769
vt 0.193356 0.674450
vt 0.163241 0.701795
vt 0.194868 0.544710
vt 0.184947 0.568807
vt 0.194868 0.592904
vt 0.218817 0.602886
vt 0.242766 0.592904
vt 0.252686 0.568807
vt 0.242766 0.544710
vt 0.218817 0.534729
vt 0.176283 0.421287
vt 0.185666 0.421287
vt 0.185666 0.481685
vt 0.176283 0.481685
vt 0.250750 0.536678
vt 0.242766 0.544710
vt 0.252686 0.568807
vt 0.263976 0.568807
vt 0.218831 0.523370
vt 0.218818 0.523370
vt 0.250750 0.536678
vt 0.250763 0.536678
vt 0.179887 0.421287
vt 0.179888 0.421287
vt 0.179888 0.481684
vt 0.179887 0.481684
vt 0.250763 0.600937
vt 0.242781 0.592904
vt 0.252701 0.568807
vt 0.263990 0.568807
vt 0.193344 0.584769
vt 0.193356 0.584769
vt 0.241710 0.584769
vt 0.241700 0.584769
vt 0.163227 0.701795
vt 0.163241 0.701795
vt 0.193356 0.674450
vt 0.193344 0.674450
vt 0.186899 0.600937
vt 0.194883 0.592904
vt 0.218832 0.602886
vt 0.218831 0.614245
vt 0.193352 0.603626
vt 0.250763 0.536678
vt 0.242781 0.544711
vt 0.218832 0.534729
vt 0.218831 0.523370
vt 0.128722 0.532050
vt 0.123310 0.506280
vt 0.056389 0.506280
vt 0.050970 0.532050
vt 0.252701 0.568807
vt 0.242781 0.592904
vt 0.218832 0.602886
vt 0.194883 0.592904
vt 0.184963 0.568807
vt 0.194883 0.544711
vt 0.218832 0.534729
vt 0.242781 0.544711
vt 0.055130 0.601152
vt 0.124568 0.601152
vt 0.124568 0.665407
vt 0.055130 0.665407
vt 0.263976 0.568807
vt 0.252686 0.568807
vt 0.242766 0.592904
vt 0.250750 0.600937
vt 0.186899 0.600937
vt 0.186885 0.600937
vt 0.173659 0.568807
vt 0.173672 0.568807
vt 0.218831 0.614245
vt 0.218832 0.602886
vt 0.242781 0.592904
vt 0.250763 0.600937
vt 0.173672 0.568807
vt 0.173659 0.568807
vt 0.186885 0.536678
vt 0.186899 0.536678
vt 0.218818 0.523370
vt 0.218817 0.534729
vt 0.242766 0.544710
vt 0.250750 0.536678
vt 0.176282 0.421287
vt 0.176283 0.421287
vt 0.176283 0.481685
vt 0.176282 0.481685
vt 0.198929 0.421288
vt 0.185662 0.421288
vt 0.185662 0.481685
vt 0.198929 0.481685
vt 0.163227 0.701795
vt 0.163227 0.488324
vt 0.134288 0.518600
vt 0.134288 0.671520
vt 0.263990 0.568807
vt 0.263976 0.568807
vt 0.250750 0.600937
vt 0.250763 0.600937
vt 0.186885 0.600937
vt 0.194868 0.592904
vt 0.184947 0.568807
vt 0.173659 0.568807
vt 0.173672 0.568807
vt 0.184963 0.568807
vt 0.194883 0.592904
vt 0.186899 0.600937
vt 0.218831 0.523370
vt 0.218832 0.534729
vt 0.194883 0.544711
vt 0.186899 0.536678
vt 0.186899 0.536678
vt 0.186885 0.536678
vt 0.218818 0.523370
vt 0.218831 0.523370
vt 0.109282 0.553742
vt 0.070406 0.553742
vt 0.070406 0.663307
vt 0.109282 0.663307
vt 0.050970 0.685000
vt 0.128722 0.685000
vt 0.109282 0.663307
vt 0.070406 0.663307
vt 0.163241 0.488324
vt 0.163241 0.701795
vt 0.134295 0.671520
vt 0.134295 0.518600
vt 0.123310 0.506280
vt 0.117899 0.532050
vt 0.061808 0.532050
vt 0.056389 0.506280
vt 0.061808 0.532050
vt 0.117899 0.532050
vt 0.117899 0.601152
vt 0.061808 0.601152
vt 0.208313 0.421288
vt 0.208311 0.421288
vt 0.208311 0.481685
vt 0.208313 0.481685
vt 0.179888 0.421287
vt 0.189271 0.421287
vt 0.189271 0.481684
vt 0.179888 0.481684
vt 0.250750 0.600937
vt 0.242766 0.592904
vt 0.218817 0.602886
vt 0.218818 0.614245
vt 0.202538 0.421287
vt 0.211918 0.421288
vt 0.211918 0.481685
vt 0.202538 0.481684
vt 0.185662 0.421288
vt 0.176282 0.421287
vt 0.176282 0.481685
vt 0.185662 0.481685
vt 0.185666 0.421287
vt 0.198933 0.421287
vt 0.198933 0.481685
vt 0.185666 0.481685
vt 0.211918 0.421288
vt 0.211916 0.421288
vt 0.211916 0.481685
vt 0.211918 0.481685
vt 0.173659 0.568807
vt 0.184947 0.568807
vt 0.194868 0.544710
vt 0.186885 0.536678
vt 0.198933 0.421287
vt 0.208313 0.421288
vt 0.208313 0.481685
vt 0.198933 0.481685
vt 0.193344 0.584769
vt 0.241700 0.584769
vt 0.241700 0.488324
vt 0.202464 0.452357
vt 0.163227 0.488324
vt 0.163227 0.701795
vt 0.193344 0.674450
vt 0.189267 0.421288
vt 0.179887 0.421287
vt 0.179887 0.481684
vt 0.189267 0.481685
vt 0.203464 0.308940
vt 0.190761 0.311157
vt 0.194636 0.333357
vt 0.207338 0.331141
vt 0.094416 0.360993
vt 0.075805 0.368845
vt 0.075800 0.368845
vt 0.094412 0.360993
vt 0.113028 0.406756
vt 0.108377 0.402017
vt 0.114159 0.387801
vt 0.120737 0.387801
vt 0.128722 0.532050
vt 0.050970 0.532050
vt 0.070406 0.553742
vt 0.109282 0.553742
vt 0.113023 0.406756
vt 0.108369 0.402017
vt 0.094410 0.407906
vt 0.094412 0.414608
vt 0.075805 0.406756
vt 0.080459 0.402017
vt 0.094418 0.407906
vt 0.094416 0.414608
vt 0.075805 0.368845
vt 0.080459 0.373584
vt 0.074677 0.387801
vt 0.068095 0.387801
vt 0.120732 0.387801
vt 0.114151 0.387801
vt 0.108369 0.402017
vt 0.113023 0.406756
vt 0.068095 0.387801
vt 0.074677 0.387801
vt 0.080459 0.402017
vt 0.075805 0.406756
vt 0.075800 0.368845
vt 0.080451 0.373584
vt 0.094410 0.367695
vt 0.094412 0.360993
vt 0.076809 0.474674
vt 0.076809 0.445335
vt 0.102850 0.445335
vt 0.102850 0.474674
vt 0.113023 0.368845
vt 0.108369 0.373584
vt 0.114151 0.387801
vt 0.120732 0.387801
vt 0.143822 0.319348
vt 0.204227 0.308807
vt 0.208101 0.331008
vt 0.147696 0.341549
vt 0.120737 0.387801
vt 0.114159 0.387801
vt 0.108377 0.373584
vt 0.113028 0.368845
vt 0.068091 0.387801
vt 0.074669 0.387801
vt 0.080451 0.373584
vt 0.075800 0.368845
vt 0.094416 0.414608
vt 0.094418 0.407906
vt 0.108377 0.402017
vt 0.113028 0.406756
vt 0.108369 0.373584
vt 0.094410 0.367695
vt 0.080451 0.373584
vt 0.074669 0.387801
vt 0.080451 0.402017
vt 0.094410 0.407906
vt 0.108369 0.402017
vt 0.114151 0.387801
vt 0.094416 0.360993
vt 0.094418 0.367695
vt 0.080459 0.373584
vt 0.075805 0.368845
vt 0.120968 0.323336
vt 0.138369 0.320300
vt 0.142243 0.342500
vt 0.124843 0.345537
vt 0.111115 0.347932
vt 0.167537 0.338086
vt 0.163663 0.315886
vt 0.107241 0.325732
vt 0.075800 0.406756
vt 0.080451 0.402017
vt 0.074669 0.387801
vt 0.068091 0.387801
vt 0.113028 0.368845
vt 0.094416 0.360993
vt 0.089754 0.349040
vt 0.185414 0.319402
vt 0.231357 0.329546
vt 0.252893 0.363566
vt 0.254187 0.406756
vt 0.151775 0.387762
vt 0.142530 0.412324
vt 0.113028 0.406756
vt 0.120737 0.387801
vt 0.190761 0.311157
vt 0.163663 0.315886
vt 0.167537 0.338086
vt 0.194636 0.333357
vt 0.094412 0.360993
vt 0.094410 0.367695
vt 0.108369 0.373584
vt 0.113023 0.368845
vt 0.138369 0.320300
vt 0.143822 0.319348
vt 0.147696 0.341549
vt 0.142243 0.342500
vt 0.075805 0.368845
vt 0.068095 0.387801
vt 0.068091 0.387801
vt 0.075800 0.368845
vt 0.113865 0.347452
vt 0.111115 0.347932
vt 0.107241 0.325732
vt 0.109991 0.325252
vt 0.094416 0.414608
vt 0.113028 0.406756
vt 0.113023 0.406756
vt 0.094412 0.414608
vt 0.094412 0.414608
vt 0.094410 0.407906
vt 0.080451 0.402017
vt 0.075800 0.406756
vt 0.114159 0.387801
vt 0.108377 0.402017
vt 0.094418 0.407906
vt 0.080459 0.402017
vt 0.074677 0.387801
vt 0.080459 0.373584
vt 0.094418 0.367695
vt 0.108377 0.373584
vt 0.120732 0.387801
vt 0.113023 0.406756
vt 0.142525 0.412324
vt 0.151770 0.387762
vt 0.254182 0.406756
vt 0.252888 0.363566
vt 0.231352 0.329546
vt 0.185409 0.319402
vt 0.089749 0.349040
vt 0.094412 0.360993
vt 0.113023 0.368845
vt 0.075805 0.406756
vt 0.094416 0.414608
vt 0.094412 0.414608
vt 0.075800 0.406756
vt 0.113028 0.368845
vt 0.108377 0.373584
vt 0.094418 0.367695
vt 0.094416 0.360993
vt 0.249667 0.738561
vt 0.249671 0.738561
vt 0.197812 0.738561
vt 0.168858 0.738561
vt 0.168850 0.738561
vt 0.197800 0.738561
vt 0.156297 0.756093
vt 0.195192 0.756093
vt 0.264856 0.756093
vt 0.264850 0.756093
vt 0.195176 0.756093
vt 0.156286 0.756093
vt 0.156297 0.756093
vt 0.156286 0.756093
vt 0.168850 0.738561
vt 0.168858 0.738561
vt 0.168858 0.738561
vt 0.197812 0.738561
vt 0.195192 0.756093
vt 0.156297 0.756093
vt 0.218867 0.514299
vt 0.221114 0.505895
vt 0.225610 0.505895
vt 0.227858 0.514299
vt 0.264850 0.756093
vt 0.264856 0.756093
vt 0.249671 0.738561
vt 0.249667 0.738561
vt 0.218864 0.514299
vt 0.221113 0.505895
vt 0.217935 0.505895
vt 0.212508 0.514299
vt 0.234214 0.514299
vt 0.228788 0.505895
vt 0.225608 0.505895
vt 0.227856 0.514299
vt 0.227858 0.514299
vt 0.225610 0.505895
vt 0.228788 0.505895
vt 0.234215 0.514299
vt 0.212508 0.514299
vt 0.217935 0.505895
vt 0.217935 0.505895
vt 0.212509 0.514299
vt 0.195176 0.756093
vt 0.264850 0.756093
vt 0.249667 0.738561
vt 0.197800 0.738561
vt 0.156286 0.756093
vt 0.195176 0.756093
vt 0.197800 0.738561
vt 0.168850 0.738561
vt 0.264856 0.756093
vt 0.195192 0.756093
vt 0.197812 0.738561
vt 0.249671 0.738561
vt 0.234215 0.514299
vt 0.228788 0.505895
vt 0.228788 0.505895
vt 0.234214 0.514299
vt 0.220078 0.361151
vt 0.213099 0.367645
vt 0.221768 0.387130
vt 0.231637 0.387130
vt 0.152705 0.387130
vt 0.162570 0.387130
vt 0.171239 0.367645
vt 0.164265 0.361151
vt 0.218867 0.514299
vt 0.227858 0.514299
vt 0.227858 0.737010
vt 0.218867 0.737010
vt 0.231637 0.387130
vt 0.221768 0.387130
vt 0.213099 0.406615
vt 0.220078 0.413109
vt 0.220078 0.413109
vt 0.213099 0.406615
vt 0.192169 0.414685
vt 0.192171 0.423870
vt 0.225610 0.505895
vt 0.221114 0.505895
vt 0.217935 0.505895
vt 0.217935 0.505895
vt 0.221113 0.505895
vt 0.225608 0.505895
vt 0.228788 0.505895
vt 0.228788 0.505895
vt 0.234215 0.737010
vt 0.234214 0.737010
vt 0.227856 0.737010
vt 0.218864 0.737010
vt 0.212508 0.737010
vt 0.212509 0.737010
vt 0.218867 0.737010
vt 0.227858 0.737010
vt 0.227856 0.514299
vt 0.218864 0.514299
vt 0.218864 0.737010
vt 0.227856 0.737010
vt 0.212508 0.514299
vt 0.212509 0.514299
vt 0.212509 0.737010
vt 0.212508 0.737010
vt 0.221461 0.605987
vt 0.227818 0.605987
vt 0.227818 0.736637
vt 0.221461 0.736637
vt 0.192183 0.350390
vt 0.192185 0.359575
vt 0.171255 0.367646
vt 0.164277 0.361151
vt 0.212509 0.514299
vt 0.217935 0.505895
vt 0.221114 0.505895
vt 0.218867 0.514299
vt 0.164265 0.361151
vt 0.171239 0.367645
vt 0.192169 0.359575
vt 0.192171 0.350390
vt 0.227856 0.514299
vt 0.225608 0.505895
vt 0.221113 0.505895
vt 0.218864 0.514299
vt 0.152717 0.387130
vt 0.162586 0.387130
vt 0.171255 0.406615
vt 0.164277 0.413110
vt 0.227858 0.514299
vt 0.234215 0.514299
vt 0.234215 0.737010
vt 0.227858 0.737010
vt 0.192171 0.350390
vt 0.192169 0.359575
vt 0.213099 0.367645
vt 0.220078 0.361151
vt 0.234214 0.514299
vt 0.227856 0.514299
vt 0.227856 0.737010
vt 0.234214 0.737010
vt 0.220090 0.413110
vt 0.213115 0.406615
vt 0.221785 0.387130
vt 0.231649 0.387130
vt 0.212509 0.514299
vt 0.218867 0.514299
vt 0.218867 0.737010
vt 0.212509 0.737010
vt 0.164265 0.413109
vt 0.171239 0.406615
vt 0.162570 0.387130
vt 0.152705 0.387130
vt 0.213099 0.367645
vt 0.192169 0.359575
vt 0.171239 0.367645
vt 0.162570 0.387130
vt 0.171239 0.406615
vt 0.192169 0.414685
vt 0.213099 0.406615
vt 0.221768 0.387130
vt 0.164277 0.361151
vt 0.171255 0.367646
vt 0.162586 0.387130
vt 0.152717 0.387130
vt 0.231649 0.387130
vt 0.221785 0.387130
vt 0.213115 0.367646
vt 0.220090 0.361151
vt 0.218864 0.514299
vt 0.212508 0.514299
vt 0.212508 0.737010
vt 0.218864 0.737010
vt 0.192183 0.423871
vt 0.192185 0.414685
vt 0.213115 0.406615
vt 0.220090 0.413110
vt 0.164277 0.413110
vt 0.171255 0.406615
vt 0.192185 0.414685
vt 0.192183 0.423871
vt 0.000000 0.000000
vt 0.000000 0.000000
vt 0.000000 0.000000
vt 0.000000 0.000000
vt 0.000000 0.000000
vt 0.000000 0.000000
vt 0.000000 0.000000
vt 0.000000 0.000000
vt 0.221785 0.387130
vt 0.213115 0.406615
vt 0.192185 0.414685
vt 0.171255 0.406615
vt 0.162586 0.387130
vt 0.171255 0.367646
vt 0.192185 0.359575
vt 0.213115 0.367646
vt 0.198933 0.421287
vt 0.185666 0.421287
vt 0.176283 0.421287
vt 0.176282 0.421287
vt 0.185662 0.421288
vt 0.198929 0.421288
vt 0.208311 0.421288
vt 0.208313 0.421288
vt 0.225114 0.592691
vt 0.234495 0.592691
vt 0.234494 0.736587
vt 0.225114 0.736587
vt 0.189271 0.481684
vt 0.202538 0.481684
vt 0.202538 0.737010
vt 0.189271 0.737010
vt 0.202534 0.481685
vt 0.189267 0.481685
vt 0.189267 0.737010
vt 0.202534 0.737010
vt 0.208313 0.737010
vt 0.208311 0.737010
vt 0.198929 0.737010
vt 0.185662 0.737010
vt 0.176282 0.737010
vt 0.176283 0.737010
vt 0.185666 0.737010
vt 0.198933 0.737010
vt 0.198933 0.481685
vt 0.208313 0.481685
vt 0.208313 0.737010
vt 0.198933 0.737010
vt 0.179888 0.481684
vt 0.189271 0.481684
vt 0.189271 0.737010
vt 0.179888 0.737010
vt 0.000000 0.000000
vt 0.000000 0.000000
vt 0.000000 0.000000
vt 0.000000 0.000000
vt 0.000000 0.000000
vt 0.000000 0.000000
vt 0.000000 0.000000
vt 0.000000 0.000000
vt 0.190778 0.592691
vt 0.200158 0.592691
vt 0.200157 0.736587
vt 0.190777 0.736587
vt 0.208311 0.481685
vt 0.198929 0.481685
vt 0.198929 0.737010
vt 0.208311 0.737010
vt 0.068095 0.387801
vt 0.075805 0.406756
vt 0.075800 0.406756
vt 0.068091 0.387801
vt 0.189267 0.481685
vt 0.179887 0.481684
vt 0.179887 0.737010
vt 0.189267 0.737010
vt 0.211916 0.481685
vt 0.202534 0.481685
vt 0.202534 0.737010
vt 0.211916 0.737010
vt 0.202538 0.481684
vt 0.211918 0.481685
vt 0.211918 0.737010
vt 0.202538 0.737010
vt 0.185662 0.481685
vt 0.176282 0.481685
vt 0.176282 0.737010
vt 0.185662 0.737010
vt 0.185666 0.481685
vt 0.198933 0.481685
vt 0.198933 0.737010
vt 0.185666 0.737010
vt 0.198929 0.481685
vt 0.185662 0.481685
vt 0.185662 0.737010
vt 0.198929 0.737010
vt 0.176282 0.481685
vt 0.176283 0.481685
vt 0.176283 0.737010
vt 0.176282 0.737010
vt 0.179887 0.481684
vt 0.179888 0.481684
vt 0.179888 0.737010
vt 0.179887 0.737010
vt 0.176283 0.481685
vt 0.185666 0.481685
vt 0.185666 0.737010
vt 0.176283 0.737010
vn 0.780479 0.571495 -0.253467
f 2/1/1 16/2/1 15/3/1
f 2/1/1 15/3/1 1/4/1
vn -0.420305 -0.280577 0.862914
f 8/5/2 6/6/2 5/7/2
f 8/5/2 5/7/2 7/8/2
vn 0.186079 0.174701 0.966879
f 6/9/3 4/10/3 3/11/3
f 6/9/3 3/11/3 5/12/3
vn -0.102126 0.516533 0.850155
f 3/13/4 168/14/4 169/15/4
f 3/13/4 169/15/4 5/16/4
vn 0.111147 -0.525809 -0.843310
f 14/17/5 181/18/5 180/19/5
f 14/17/5 180/19/5 12/20/5
vn 0.683462 0.527641 0.504455
f 4/21/6 2/22/6 1/23/6
f 4/21/6 1/23/6 3/24/6
vn -0.186080 -0.174700 -0.966879
f 14/25/7 12/26/7 11/27/7
f 14/25/7 11/27/7 13/28/7
vn 0.420302 0.280575 -0.862916
f 16/29/8 14/30/8 13/31/8
f 16/29/8 13/31/8 15/32/8
vn -0.683461 -0.527641 -0.504456
f 12/33/9 10/34/9 9/35/9
f 12/33/9 9/35/9 11/36/9
vn -0.780478 -0.571495 0.253471
f 10/37/10 8/38/10 7/39/10
f 10/37/10 7/39/10 9/40/10
vn 0.420303 0.280576 -0.862915
f 65/41/11 49/42/11 50/43/11
f 65/41/11 50/43/11 68/44/11
vn 0.037491 0.893027 -0.448439
f 210/45/12 208/46/12 19/47/12
f 210/45/12 19/47/12 23/48/12
vn 0.186081 0.174703 0.966878
f 60/49/13 44/50/13 33/51/13
f 60/49/13 33/51/13 45/52/13
f 60/49/13 45/52/13 61/53/13
f 60/49/13 61/53/13 34/54/13
vn -0.596845 0.801795 -0.030003
f 192/55/14 190/56/14 30/57/14
f 192/55/14 30/57/14 27/58/14
vn 0.683462 0.527641 0.504456
f 59/59/15 43/60/15 44/61/15
f 59/59/15 44/61/15 60/62/15
vn 0.037488 0.893027 -0.448438
f 194/63/16 192/64/16 27/65/16
f 194/63/16 27/65/16 31/66/16
vn 0.727116 -0.430819 -0.534506
f 68/67/17 58/68/17 57/69/17
f 68/67/17 57/69/17 65/70/17
vn -0.881106 0.353405 -0.314257
f 47/71/18 39/72/18 40/73/18
f 47/71/18 40/73/18 48/74/18
vn 0.596844 -0.801796 0.030004
f 184/75/19 197/76/19 28/77/19
f 184/75/19 28/77/19 25/78/19
vn -0.048556 -0.981228 0.186640
f 63/79/20 55/80/20 54/81/20
f 63/79/20 54/81/20 62/82/20
vn -0.381765 0.756730 0.530674
f 44/83/21 36/84/21 37/85/21
f 44/83/21 37/85/21 45/86/21
f 44/83/21 45/86/21 33/87/21
vn 0.708398 -0.700780 -0.084140
f 80/88/22 66/89/22 70/90/22
f 80/88/22 70/90/22 69/91/22
f 80/88/22 69/91/22 73/92/22
f 80/88/22 73/92/22 76/93/22
f 80/88/22 76/93/22 81/94/22
vn -0.596848 0.801793 -0.030004
f 39/95/23 38/96/23 37/97/23
f 39/95/23 37/97/23 36/98/23
f 39/95/23 36/98/23 35/99/23
f 39/95/23 35/99/23 42/100/23
f 39/95/23 42/100/23 41/101/23
f 39/95/23 41/101/23 40/102/23
vn -0.037488 -0.893028 0.448437
f 202/103/24 200/104/24 17/105/24
f 202/103/24 17/105/24 18/106/24
vn -0.247258 0.817530 -0.520105
f 49/107/25 41/108/25 42/109/25
f 49/107/25 42/109/25 50/110/25
vn -0.186082 -0.174702 -0.966878
f 64/111/26 48/112/26 49/113/26
f 64/111/26 49/113/26 65/114/26
vn -0.649857 -0.461139 0.604182
f 188/115/27 186/116/27 26/117/27
f 188/115/27 26/117/27 32/118/27
vn 0.959776 -0.242893 -0.140828
f 59/119/28 51/120/28 58/121/28
f 59/119/28 58/121/28 68/122/28
vn 0.470592 0.380104 0.796282
f 74/123/29 73/124/29 69/125/29
f 74/123/29 69/125/29 72/126/29
vn 0.784748 0.591133 0.186367
f 77/127/30 81/128/30 76/129/30
f 77/127/30 76/129/30 75/130/30
vn 0.575815 -0.499211 0.647476
f 61/131/31 53/132/31 52/133/31
f 61/131/31 52/133/31 60/134/31
f 61/131/31 60/134/31 34/135/31
vn 0.335409 -0.724914 -0.601664
f 65/136/32 57/137/32 56/138/32
f 65/136/32 56/138/32 64/139/32
vn -0.785531 -0.591541 -0.181714
f 78/140/33 67/141/33 66/142/33
f 78/140/33 66/142/33 80/143/33
vn 0.596843 -0.801797 0.030006
f 58/144/34 51/145/34 52/146/34
f 58/144/34 52/146/34 53/147/34
f 58/144/34 53/147/34 54/148/34
f 58/144/34 54/148/34 55/149/34
f 58/144/34 55/149/34 56/150/34
f 58/144/34 56/150/34 57/151/34
vn 0.649859 0.461136 -0.604182
f 73/152/35 74/153/35 75/154/35
f 73/152/35 75/154/35 76/155/35
vn -0.040422 0.984594 -0.170122
f 50/156/36 42/157/36 35/158/36
f 50/156/36 35/158/36 43/159/36
vn -0.420302 -0.280575 0.862916
f 61/160/37 45/161/37 46/162/37
f 61/160/37 46/162/37 62/163/37
vn 0.897106 -0.271225 0.348767
f 60/164/38 52/165/38 51/166/38
f 60/164/38 51/166/38 59/167/38
vn -0.780479 -0.571495 0.253468
f 62/168/39 46/169/39 47/170/39
f 62/168/39 47/170/39 63/171/39
vn -0.595482 0.556083 -0.579804
f 48/172/40 40/173/40 41/174/40
f 48/172/40 41/174/40 49/175/40
vn -0.649864 -0.461131 0.604181
f 204/176/41 202/177/41 18/178/41
f 204/176/41 18/178/41 24/179/41
vn -0.596844 0.801796 -0.030004
f 208/180/42 206/181/42 22/182/42
f 208/180/42 22/182/42 19/183/42
vn -0.879675 0.272332 0.389880
f 77/184/43 78/185/43 79/186/43
f 77/184/43 79/186/43 84/187/43
vn 0.780480 0.571495 -0.253467
f 68/188/44 50/189/44 43/190/44
f 68/188/44 43/190/44 59/191/44
vn -0.729987 0.495285 0.470969
f 45/192/45 37/193/45 38/194/45
f 45/192/45 38/194/45 46/195/45
vn 0.184112 -0.793305 0.580318
f 62/196/46 54/197/46 53/198/46
f 62/196/46 53/198/46 61/199/46
vn 0.014130 -0.952900 -0.302955
f 64/200/47 56/201/47 55/202/47
f 64/200/47 55/202/47 63/203/47
vn -0.683459 -0.527640 -0.504459
f 63/204/48 47/205/48 48/206/48
f 63/204/48 48/206/48 64/207/48
vn -0.649859 -0.461137 0.604182
f 79/208/49 82/209/49 83/210/49
f 79/208/49 83/210/49 84/211/49
vn -0.142132 -0.068847 0.987451
f 81/212/50 77/213/50 84/214/50
f 81/212/50 84/214/50 83/215/50
vn -0.006266 -0.900992 0.433791
f 80/216/51 81/217/51 83/218/51
f 80/216/51 83/218/51 82/219/51
vn 0.089798 0.029589 -0.995520
f 67/220/52 71/221/52 70/222/52
f 67/220/52 70/222/52 66/223/52
vn 0.649858 0.461138 -0.604182
f 70/224/53 71/225/53 72/226/53
f 70/224/53 72/226/53 69/227/53
vn 0.649865 0.461128 -0.604182
f 212/228/54 210/229/54 23/230/54
f 212/228/54 23/230/54 21/231/54
vn -0.037490 -0.893027 0.448439
f 186/232/55 184/233/55 25/234/55
f 186/232/55 25/234/55 26/235/55
vn -0.096139 0.959410 0.265121
f 43/236/56 35/237/56 36/238/56
f 43/236/56 36/238/56 44/239/56
vn 0.881553 -0.240884 -0.406005
f 197/240/57 196/241/57 29/242/57
f 197/240/57 29/242/57 28/243/57
vn -0.881553 0.240881 0.406006
f 206/244/58 204/245/58 24/246/58
f 206/244/58 24/246/58 22/247/58
vn 0.596847 -0.801794 0.030002
f 200/248/59 213/249/59 20/250/59
f 200/248/59 20/250/59 17/251/59
vn 0.649858 0.461138 -0.604182
f 196/252/60 194/253/60 31/254/60
f 196/252/60 31/254/60 29/255/60
vn -0.936818 0.328228 0.120993
f 46/256/61 38/257/61 39/258/61
f 46/256/61 39/258/61 47/259/61
vn 0.881553 -0.240877 -0.406009
f 213/260/62 212/261/62 21/262/62
f 213/260/62 21/262/62 20/263/62
vn -0.464000 0.874203 -0.143081
f 74/264/63 72/265/63 71/266/63
f 74/264/63 71/266/63 67/267/63
f 74/264/63 67/267/63 78/268/63
f 74/264/63 78/268/63 77/269/63
f 74/264/63 77/269/63 75/270/63
vn -0.881552 0.240885 0.406005
f 190/271/64 188/272/64 32/273/64
f 190/271/64 32/273/64 30/274/64
vn 0.499242 0.370396 -0.783303
f 94/275/65 95/276/65 96/277/65
f 94/275/65 96/277/65 93/278/65
vn -0.527954 -0.395037 -0.751805
f 127/279/66 125/280/66 126/281/66
f 127/279/66 126/281/66 124/282/66
vn 0.980450 0.187535 0.059562
f 116/283/67 107/284/67 114/285/67
f 116/283/67 114/285/67 129/286/67
vn -0.794592 -0.595848 -0.116567
f 78/287/68 80/288/68 82/289/68
f 78/287/68 82/289/68 79/290/68
vn 0.207065 0.710457 0.672588
f 115/291/69 99/292/69 100/293/69
f 115/291/69 100/293/69 117/294/69
vn 0.212211 -0.383197 0.898959
f 122/295/70 109/296/70 108/297/70
f 122/295/70 108/297/70 118/298/70
vn -0.459877 -0.886081 -0.058083
f 125/299/71 111/300/71 110/301/71
f 125/299/71 110/301/71 120/302/71
vn 0.450761 0.890773 0.057775
f 128/303/72 105/304/72 99/305/72
f 128/303/72 99/305/72 115/306/72
vn -0.282937 -0.752850 0.594276
f 120/307/73 110/308/73 109/309/73
f 120/307/73 109/309/73 122/310/73
vn -0.738642 0.002840 -0.674091
f 126/311/74 103/312/74 104/313/74
f 126/311/74 104/313/74 124/314/74
vn 0.751404 0.559227 -0.350225
f 91/315/75 94/316/75 93/317/75
f 91/315/75 93/317/75 92/318/75
vn 0.274711 0.758205 -0.591320
f 130/319/76 106/320/76 105/321/76
f 130/319/76 105/321/76 128/322/76
vn 0.116581 0.088971 0.989188
f 88/323/77 91/324/77 92/325/77
f 88/323/77 92/325/77 87/326/77
vn 0.803515 0.054299 -0.592803
f 129/327/78 114/328/78 113/329/78
f 129/327/78 113/329/78 123/330/78
vn -0.982339 -0.177471 -0.059282
f 121/331/79 102/332/79 103/333/79
f 121/331/79 103/333/79 126/334/79
vn 0.735523 0.006324 0.677471
f 118/335/80 108/336/80 107/337/80
f 118/335/80 107/337/80 116/338/80
vn -0.597547 0.801832 -0.001691
f 106/339/81 104/340/81 103/341/81
f 106/339/81 103/341/81 102/342/81
f 106/339/81 102/342/81 101/343/81
f 106/339/81 101/343/81 100/344/81
f 106/339/81 100/344/81 99/345/81
f 106/339/81 99/345/81 105/346/81
vn -0.214951 -0.704860 -0.675995
f 127/347/82 112/348/82 111/349/82
f 127/347/82 111/349/82 125/350/82
vn 0.114136 0.087150 0.989635
f 116/351/83 85/352/83 86/353/83
f 116/351/83 86/353/83 115/354/83
vn -0.466771 -0.349570 -0.812358
f 90/355/84 98/356/84 97/357/84
f 90/355/84 97/357/84 89/358/84
vn -0.806290 -0.044904 0.589814
f 119/359/85 101/360/85 102/361/85
f 119/359/85 102/361/85 121/362/85
vn 0.597548 -0.801831 0.001701
f 123/363/86 127/364/86 89/365/86
f 123/363/86 89/365/86 97/366/86
f 123/363/86 97/366/86 95/367/86
f 123/363/86 95/367/86 94/368/86
f 123/363/86 94/368/86 91/369/86
f 123/363/86 91/369/86 88/370/86
f 123/363/86 88/370/86 85/371/86
f 123/363/86 85/371/86 116/372/86
f 123/363/86 116/372/86 129/373/86
vn -0.090060 -0.069215 -0.993528
f 95/374/87 97/375/87 98/376/87
f 95/374/87 98/376/87 96/377/87
vn -0.217948 0.390413 -0.894470
f 124/378/88 104/379/88 106/380/88
f 124/378/88 106/380/88 130/381/88
vn 0.801190 0.597154 0.038745
f 85/382/89 88/383/89 87/384/89
f 85/382/89 87/384/89 86/385/89
vn -0.800051 -0.596361 -0.065351
f 125/386/90 120/387/90 121/388/90
f 125/386/90 121/388/90 126/389/90
vn -0.611107 -0.454048 0.648374
f 124/390/91 90/391/91 89/392/91
f 124/390/91 89/392/91 127/393/91
vn 0.527955 0.395038 0.751804
f 118/394/92 116/395/92 115/396/92
f 118/394/92 115/396/92 117/397/92
vn -0.313623 0.322894 0.892962
f 117/398/93 100/399/93 101/400/93
f 117/398/93 101/400/93 119/401/93
vn 0.597547 -0.801832 0.001694
f 114/402/94 107/403/94 108/404/94
f 114/402/94 108/404/94 109/405/94
f 114/402/94 109/405/94 110/406/94
f 114/402/94 110/406/94 111/407/94
f 114/402/94 111/407/94 112/408/94
f 114/402/94 112/408/94 113/409/94
vn -0.597549 0.801831 -0.001695
f 128/410/95 115/411/95 86/412/95
f 128/410/95 86/412/95 87/413/95
f 128/410/95 87/413/95 92/414/95
f 128/410/95 92/414/95 93/415/95
f 128/410/95 93/415/95 96/416/95
f 128/410/95 96/416/95 98/417/95
f 128/410/95 98/417/95 90/418/95
f 128/410/95 90/418/95 124/419/95
f 128/410/95 124/419/95 130/420/95
vn -0.053408 -0.037693 0.997861
f 122/421/96 118/422/96 117/423/96
f 122/421/96 117/423/96 119/424/96
vn 0.308365 -0.315340 -0.897481
f 123/425/97 113/426/97 112/427/97
f 123/425/97 112/427/97 127/428/97
vn -0.470593 -0.380104 -0.796281
f 139/429/98 131/430/98 132/431/98
f 139/429/98 132/431/98 134/432/98
f 139/429/98 134/432/98 136/433/98
f 139/429/98 136/433/98 140/434/98
vn 0.470588 0.380108 0.796282
f 133/435/99 138/436/99 137/437/99
f 133/435/99 137/437/99 141/438/99
f 133/435/99 141/438/99 142/439/99
f 133/435/99 142/439/99 135/440/99
vn -0.798603 -0.590026 0.118751
f 133/441/100 135/442/100 136/443/100
f 133/441/100 136/443/100 134/444/100
vn -0.115326 -0.974502 -0.192471
f 134/445/101 132/446/101 138/447/101
f 134/445/101 138/447/101 133/448/101
vn 0.255215 -0.881198 -0.397938
f 152/449/102 143/450/102 145/451/102
f 152/449/102 145/451/102 165/452/102
vn 0.258357 0.156644 -0.953265
f 141/453/103 137/454/103 131/455/103
f 141/453/103 131/455/103 139/456/103
vn -0.990684 -0.040496 -0.130024
f 158/457/104 148/458/104 147/459/104
f 158/457/104 147/459/104 156/460/104
vn -0.187156 0.588263 -0.786714
f 162/461/105 150/462/105 149/463/105
f 162/461/105 149/463/105 160/464/105
vn 0.549011 -0.382890 -0.742955
f 165/465/106 145/466/106 146/467/106
f 165/465/106 146/467/106 164/468/106
vn -0.800178 -0.599694 -0.009087
f 156/469/107 147/470/107 144/471/107
f 156/469/107 144/471/107 154/472/107
vn -0.403519 0.605896 -0.685611
f 142/473/108 141/474/108 139/475/108
f 142/473/108 139/475/108 140/476/108
vn -0.958961 0.158821 -0.234884
f 135/477/109 142/478/109 140/479/109
f 135/477/109 140/479/109 136/480/109
vn 0.488426 -0.592330 -0.640770
f 137/481/110 138/482/110 132/483/110
f 137/481/110 132/483/110 131/484/110
vn 0.353723 0.231520 -0.906244
f 164/485/111 146/486/111 150/487/111
f 164/485/111 150/487/111 162/488/111
vn 0.107089 0.611102 -0.784274
f 13/489/112 174/490/112 173/491/112
f 13/489/112 173/491/112 15/492/112
vn -0.965489 -0.149990 0.212916
f 7/493/113 170/494/113 171/495/113
f 7/493/113 171/495/113 9/496/113
vn 0.596845 -0.801796 0.030004
f 152/497/114 165/498/114 166/499/114
f 152/497/114 166/499/114 151/500/114
vn 0.428802 0.870964 -0.239897
f 15/501/115 173/502/115 167/503/115
f 15/501/115 167/503/115 1/504/115
vn 0.342149 0.831789 0.437106
f 1/505/116 167/506/116 168/507/116
f 1/505/116 168/507/116 3/508/116
vn -0.471106 -0.380904 -0.795595
f 145/509/117 143/510/117 144/511/117
f 145/509/117 144/511/117 147/512/117
f 145/509/117 147/512/117 148/513/117
f 145/509/117 148/513/117 149/514/117
f 145/509/117 149/514/117 150/515/117
f 145/509/117 150/515/117 146/516/117
vn 0.470591 0.380101 0.796283
f 163/517/118 161/518/118 159/519/118
f 163/517/118 159/519/118 157/520/118
f 163/517/118 157/520/118 155/521/118
f 163/517/118 155/521/118 153/522/118
f 163/517/118 153/522/118 151/523/118
f 163/517/118 151/523/118 166/524/118
vn -0.596848 0.801793 -0.030001
f 160/525/119 158/526/119 157/527/119
f 160/525/119 157/527/119 159/528/119
vn -0.649855 -0.461142 0.604182
f 156/529/120 154/530/120 153/531/120
f 156/529/120 153/531/120 155/532/120
vn 0.649861 0.461134 -0.604182
f 164/533/121 162/534/121 161/535/121
f 164/533/121 161/535/121 163/536/121
vn -0.329815 -0.838709 -0.433347
f 12/537/122 180/538/122 179/539/122
f 12/537/122 179/539/122 10/540/122
vn -0.324810 -0.939838 -0.105839
f 154/541/123 144/542/123 143/543/123
f 154/541/123 143/543/123 152/544/123
vn -0.878829 -0.110820 -0.464089
f 9/545/124 171/546/124 172/547/124
f 9/545/124 172/547/124 11/548/124
vn -0.756706 0.473939 -0.450309
f 160/549/125 149/550/125 148/551/125
f 160/549/125 148/551/125 158/552/125
vn -0.096513 -0.619669 0.778907
f 8/553/126 178/554/126 177/555/126
f 8/553/126 177/555/126 6/556/126
vn 0.881553 -0.240877 -0.406008
f 165/557/127 164/558/127 163/559/127
f 165/557/127 163/559/127 166/560/127
vn -0.434558 0.204433 -0.877135
f 11/561/128 172/562/128 174/563/128
f 11/561/128 174/563/128 13/564/128
vn 0.037493 0.893026 -0.448441
f 162/565/129 160/566/129 159/567/129
f 162/565/129 159/567/129 161/568/129
vn 0.968052 0.135737 -0.210834
f 2/569/130 175/570/130 182/571/130
f 2/569/130 182/571/130 16/572/130
vn -0.037489 -0.893027 0.448438
f 154/573/131 152/574/131 151/575/131
f 154/573/131 151/575/131 153/576/131
vn -0.643770 0.109867 0.757291
f 5/577/132 169/578/132 170/579/132
f 5/577/132 170/579/132 7/580/132
vn -0.596849 0.801792 -0.030010
f 174/581/133 172/582/133 171/583/133
f 174/581/133 171/583/133 170/584/133
f 174/581/133 170/584/133 169/585/133
f 174/581/133 169/585/133 168/586/133
f 174/581/133 168/586/133 167/587/133
f 174/581/133 167/587/133 173/588/133
vn -0.415823 -0.877590 0.238593
f 10/589/134 179/590/134 178/591/134
f 10/589/134 178/591/134 8/592/134
vn 0.648736 -0.122183 -0.751141
f 16/593/135 182/594/135 181/595/135
f 16/593/135 181/595/135 14/596/135
vn -0.881553 0.240886 0.406004
f 158/597/136 156/598/136 155/599/136
f 158/597/136 155/599/136 157/600/136
vn 0.882041 0.096857 0.461111
f 4/601/137 176/602/137 175/603/137
f 4/601/137 175/603/137 2/604/137
vn 0.441084 -0.216041 0.871075
f 6/605/138 177/606/138 176/607/138
f 6/605/138 176/607/138 4/608/138
vn 0.470591 0.380104 0.796282
f 195/609/139 193/610/139 191/611/139
f 195/609/139 191/611/139 189/612/139
f 195/609/139 189/612/139 187/613/139
f 195/609/139 187/613/139 185/614/139
f 195/609/139 185/614/139 183/615/139
f 195/609/139 183/615/139 198/616/139
vn 0.596848 -0.801793 0.030005
f 182/617/140 175/618/140 176/619/140
f 182/617/140 176/619/140 177/620/140
f 182/617/140 177/620/140 178/621/140
f 182/617/140 178/621/140 179/622/140
f 182/617/140 179/622/140 180/623/140
f 182/617/140 180/623/140 181/624/140
vn -0.470593 -0.380107 -0.796279
f 213/625/141 200/626/141 202/627/141
f 213/625/141 202/627/141 204/628/141
f 213/625/141 204/628/141 206/629/141
f 213/625/141 206/629/141 208/630/141
f 213/625/141 208/630/141 210/631/141
f 213/625/141 210/631/141 212/632/141
vn 0.649859 0.461136 -0.604183
f 29/633/142 31/634/142 193/635/142
f 29/633/142 193/635/142 195/636/142
vn 0.596844 -0.801796 0.030004
f 25/637/143 28/638/143 198/639/143
f 25/637/143 198/639/143 183/640/143
vn -0.596846 0.801795 -0.030003
f 27/641/144 30/642/144 189/643/144
f 27/641/144 189/643/144 191/644/144
vn 0.470590 0.380106 0.796282
f 211/645/145 209/646/145 207/647/145
f 211/645/145 207/647/145 205/648/145
f 211/645/145 205/648/145 203/649/145
f 211/645/145 203/649/145 201/650/145
f 211/645/145 201/650/145 199/651/145
f 211/645/145 199/651/145 214/652/145
vn 0.881553 -0.240879 -0.406008
f 20/653/146 21/654/146 211/655/146
f 20/653/146 211/655/146 214/656/146
vn -0.037491 -0.893027 0.448439
f 26/657/147 25/658/147 183/659/147
f 26/657/147 183/659/147 185/660/147
vn -0.470589 -0.380108 -0.796282
f 197/661/148 184/662/148 186/663/148
f 197/661/148 186/663/148 188/664/148
f 197/661/148 188/664/148 190/665/148
f 197/661/148 190/665/148 192/666/148
f 197/661/148 192/666/148 194/667/148
f 197/661/148 194/667/148 196/668/148
vn 0.649865 0.461129 -0.604182
f 21/669/149 23/670/149 209/671/149
f 21/669/149 209/671/149 211/672/149
vn 0.037486 0.893028 -0.448437
f 23/673/150 19/674/150 207/675/150
f 23/673/150 207/675/150 209/676/150
vn -0.603487 -0.448344 0.659387
f 120/677/151 122/678/151 119/679/151
f 120/677/151 119/679/151 121/680/151
vn -0.881553 0.240883 0.406005
f 30/681/152 32/682/152 187/683/152
f 30/681/152 187/683/152 189/684/152
vn 0.037491 0.893027 -0.448439
f 31/685/153 27/686/153 191/687/153
f 31/685/153 191/687/153 193/688/153
vn 0.881553 -0.240882 -0.406006
f 28/689/154 29/690/154 195/691/154
f 28/689/154 195/691/154 198/692/154
vn -0.881553 0.240882 0.406006
f 22/693/155 24/694/155 203/695/155
f 22/693/155 203/695/155 205/696/155
vn 0.596848 -0.801794 0.030001
f 17/697/156 20/698/156 214/699/156
f 17/697/156 214/699/156 199/700/156
vn -0.596844 0.801796 -0.030005
f 19/701/157 22/702/157 205/703/157
f 19/701/157 205/703/157 207/704/157
vn -0.649866 -0.461127 0.604182
f 24/705/158 18/706/158 201/707/158
f 24/705/158 201/707/158 203/708/158
vn -0.649861 -0.461135 0.604182
f 32/709/159 26/710/159 185/711/159
f 32/709/159 185/711/159 187/712/159
vn -0.037488 -0.893027 0.448438
f 18/713/160 17/714/160 199/715/160
f 18/713/160 199/715/160 201/716/160
