# Blender v2.76 (sub 0) OBJ File: 'npc_humanoidmutant.blend'
# www.blender.org
v -0.055580 -0.271963 1.473435
v -0.057459 -0.249033 1.771997
v -0.054742 -0.374403 1.721505
v -0.114570 -0.205549 1.691241
v -0.052133 -0.189328 1.546833
v -0.082627 -0.345570 1.482507
v -0.074913 -0.397029 1.633326
v -0.071629 -0.389674 1.673475
v -0.102757 -0.221729 1.739554
v -0.082325 -0.184033 1.590197
v -0.077209 -0.389505 1.545356
v -0.074455 -0.221655 1.501353
v -0.074134 -0.309860 1.750238
v -0.085129 -0.257100 1.533633
v -0.110533 -0.363469 1.656741
v -0.104194 -0.359905 1.688178
v -0.039407 -0.410736 1.566860
v -0.096865 -0.300129 1.562603
v -0.000913 -0.300450 1.449729
v -0.037929 -0.392054 1.471678
v 0.009302 -0.432652 1.615553
v -0.007192 -0.173262 1.551721
v 0.013125 -0.409541 1.684753
v -0.023977 -0.414997 1.554873
v -0.005009 -0.162945 1.588582
v -0.022942 -0.411184 1.528435
v -0.080458 -0.390547 1.614860
v -0.108804 -0.198578 1.629333
v -0.105172 -0.346858 1.615132
v 0.002618 -0.433604 1.566684
v -0.020942 -0.156099 1.637762
v -0.057460 -0.391495 1.521581
v 0.053589 -0.393827 1.508296
v 0.030438 -0.403539 1.468176
v 0.023743 -0.412390 1.524705
v 0.030721 -0.413920 1.553349
v 0.043581 -0.406746 1.566385
v 0.018119 -0.295418 1.761813
v 0.016369 -0.380906 1.719570
v 0.006939 -0.191672 1.714240
v 0.000800 -0.242554 1.770811
v -0.012756 -0.166431 1.691320
v 0.155006 0.104584 0.891271
v 0.159202 -0.118554 0.860737
v -0.127848 -0.124025 0.907968
v -0.126727 0.095606 0.881523
v 0.148891 0.043011 1.217427
v 0.136810 -0.180543 1.204692
v -0.128812 -0.187948 1.188465
v -0.138661 0.063377 1.182823
v 0.222689 0.007740 1.476060
v 0.228749 -0.170135 1.392943
v -0.171576 -0.175212 1.359639
v -0.202240 0.005674 1.434187
v 0.177820 0.077226 0.843850
v 0.179636 -0.085742 0.833962
v -0.174045 -0.079370 0.898907
v -0.163035 0.025752 0.807123
v 0.167645 0.006043 1.296219
v 0.164918 -0.105958 1.274885
v -0.165328 -0.138157 1.158594
v -0.173872 0.025525 1.167892
v 0.264670 -0.014358 1.469412
v 0.281920 -0.107815 1.389222
v -0.259818 -0.143775 1.434208
v -0.256121 -0.023821 1.417802
v 0.216475 0.081471 1.307455
v 0.224216 -0.066598 1.313176
v 0.314451 0.071183 1.322393
v 0.323131 -0.015012 1.312697
v 0.238986 0.179285 1.071056
v 0.208735 0.128257 1.060577
v 0.295465 0.147493 1.108878
v 0.249853 0.092941 1.101367
v 0.285227 -0.040126 0.871773
v 0.231660 -0.095435 0.839475
v 0.292641 -0.069911 0.912033
v 0.245001 -0.096495 0.902475
v 0.277903 -0.114522 0.805753
v 0.224549 -0.141988 0.811306
v 0.299910 -0.135808 0.850694
v 0.253067 -0.152460 0.865604
v 0.312011 -0.192893 0.782867
v 0.208589 -0.197337 0.792657
v 0.290642 -0.222740 0.785497
v 0.229177 -0.225567 0.811980
v 0.300373 -0.205627 0.738174
v 0.204913 -0.218441 0.756789
v 0.284096 -0.231741 0.727195
v 0.204255 -0.243081 0.749169
v 0.291909 -0.196808 0.725806
v 0.211908 -0.215469 0.746512
v 0.249628 -0.194565 0.685243
v 0.196698 -0.203001 0.700313
v -0.212817 -0.112749 1.290772
v -0.234659 -0.003051 1.285857
v -0.305754 -0.137358 1.340232
v -0.304737 -0.041320 1.318444
v -0.289922 -0.180660 1.094514
v -0.303938 -0.081598 1.086907
v -0.346452 -0.173622 1.122017
v -0.357722 -0.096915 1.067600
v -0.254616 -0.214768 1.015465
v -0.310119 -0.133420 1.003302
v -0.323076 -0.241616 1.054386
v -0.356861 -0.176777 1.001330
v -0.240677 -0.353958 0.907442
v -0.274980 -0.342615 0.876066
v -0.271905 -0.370060 0.936102
v -0.309425 -0.362282 0.897801
v 0.039153 0.117338 0.871781
v -0.010211 0.113449 0.879715
v 0.050276 -0.146201 0.867713
v -0.015770 -0.142593 0.871284
v 0.064453 0.067784 1.197957
v -0.029300 0.035194 1.367231
v 0.060031 -0.210977 1.190971
v -0.049256 -0.210576 1.236921
v 0.088412 -0.013455 1.499002
v -0.110525 -0.026502 1.490099
v 0.105347 -0.219719 1.394216
v -0.069180 -0.220851 1.367174
v 0.032970 0.078185 0.819097
v -0.010605 0.050440 0.797975
v 0.053672 -0.110868 0.835479
v -0.043074 -0.112183 0.871049
v -0.128077 -0.094229 1.536731
v 0.128190 -0.106459 1.490753
v -0.085218 -0.211917 1.434813
v 0.073221 -0.202949 1.450511
v -0.082541 -0.124063 1.542695
v 0.073187 -0.140163 1.525458
v -0.057009 -0.273989 1.475137
v 0.053357 -0.280908 1.471181
v 0.087473 -0.243606 1.764130
v 0.087876 -0.393470 1.711068
v -0.052437 -0.190099 1.546925
v 0.093052 -0.411329 1.632730
v 0.071427 -0.351006 1.462805
v 0.044300 -0.190870 1.529455
v 0.115920 -0.204199 1.638989
v 0.119678 -0.223051 1.712525
v 0.097467 -0.399120 1.670971
v 0.177711 0.105319 0.705841
v 0.178425 -0.031821 0.670075
v -0.147010 -0.171782 0.765932
v -0.140204 -0.077678 0.698288
v 0.041834 0.098435 0.708491
v -0.027598 -0.050471 0.703182
v 0.056506 -0.020904 0.671188
v -0.039564 -0.161447 0.761790
v 0.184201 0.116995 0.602027
v 0.172495 0.002382 0.565909
v 0.062098 0.115596 0.603213
v 0.064131 0.015892 0.569526
v 0.227901 0.250773 0.476757
v 0.198936 0.173546 0.373361
v 0.117659 0.282218 0.473776
v 0.103021 0.189941 0.384919
v 0.213746 0.253772 0.407352
v 0.198741 0.200032 0.369862
v 0.133364 0.274228 0.447676
v 0.123372 0.214038 0.369967
v 0.151778 0.604286 0.215715
v 0.150587 0.461886 0.208476
v 0.240696 0.306712 0.047398
v 0.144949 0.279312 0.036398
v 0.162892 0.282024 0.065366
v 0.129648 0.047356 1.060339
v 0.133888 -0.149169 1.020615
v -0.131002 -0.148453 1.023406
v -0.134766 0.056782 1.063843
v 0.166289 0.011682 1.044645
v 0.170030 -0.114889 1.029922
v -0.165588 -0.113413 1.037488
v -0.170629 0.025725 1.036744
v 0.052017 -0.164521 1.013232
v -0.036669 -0.163762 1.003442
v 0.046742 0.073113 1.047959
v -0.031618 0.067087 1.088732
v -0.144906 -0.246337 0.672411
v -0.144675 -0.154862 0.612857
v -0.028018 -0.144963 0.618509
v -0.036471 -0.243614 0.673950
v -0.152684 -0.296438 0.537142
v -0.155156 -0.182256 0.541216
v -0.050503 -0.162656 0.531877
v -0.049138 -0.292408 0.537148
v -0.159691 -0.280238 0.510014
v -0.159958 -0.189738 0.518131
v -0.065057 -0.183195 0.513463
v -0.063739 -0.270985 0.496913
v -0.140177 -0.181723 0.128931
v -0.137441 -0.116879 0.121096
v -0.081375 -0.111409 0.117509
v -0.072076 -0.174114 0.119739
v -0.140403 -0.200568 0.069576
v -0.122640 -0.091312 0.002439
v -0.079075 -0.109640 0.002186
v -0.083210 -0.203403 0.075399
v -0.163567 -0.434169 0.044480
v -0.077820 -0.448125 0.043322
v -0.099025 -0.427779 0.070772
v 0.080288 -0.380344 1.537404
v 0.079042 -0.186390 1.561155
v 0.190310 0.003485 0.821335
v -0.195055 -0.042403 0.843357
v 0.160836 -0.055744 1.258263
v -0.179268 -0.056546 1.144932
v 0.306930 -0.063110 1.427700
v -0.298632 -0.095033 1.423111
v 0.190319 -0.013461 1.331679
v 0.330037 0.029237 1.317623
v 0.214119 0.150718 1.059590
v 0.278360 0.114287 1.100712
v 0.258908 -0.053582 0.854036
v 0.267225 -0.091867 0.911297
v 0.277664 -0.145714 0.860870
v 0.261555 -0.233163 0.792572
v 0.248800 -0.245996 0.737689
v 0.233792 -0.215384 0.714886
v -0.212023 -0.060049 1.285093
v -0.314821 -0.092396 1.328824
v -0.276280 -0.122854 1.086336
v -0.365488 -0.134725 1.098623
v -0.282652 -0.175632 1.005395
v -0.346995 -0.213198 1.026347
v -0.256034 -0.349147 0.889023
v -0.296258 -0.368655 0.921572
v -0.013601 -0.016715 0.803000
v 0.125095 -0.163834 1.480363
v -0.138676 -0.177727 1.494604
v 0.073093 -0.217015 1.492268
v -0.074683 -0.224050 1.503508
v 0.104049 -0.300088 1.749077
v 0.080235 -0.256067 1.511106
v 0.131637 -0.345203 1.626123
v 0.141580 -0.333289 1.705695
v 0.195684 0.046213 0.681733
v -0.172885 -0.122835 0.719559
v 0.029943 0.040154 0.691530
v -0.019534 -0.110157 0.719237
v 0.192514 0.069366 0.583037
v 0.041272 0.067041 0.589087
v 0.235118 0.220336 0.437453
v 0.095144 0.224355 0.420056
v 0.214587 0.226812 0.389326
v 0.098949 0.249112 0.391963
v 0.243257 0.516699 0.206104
v 0.130039 0.510759 0.204898
v 0.184385 -0.050103 1.030281
v -0.183011 -0.036038 1.027612
v -0.172619 -0.191265 0.634240
v -0.023692 -0.198270 0.632970
v -0.178042 -0.240265 0.550496
v -0.023113 -0.238578 0.532367
v -0.165556 -0.233684 0.517669
v -0.034591 -0.232543 0.499827
v -0.148755 -0.145492 0.128829
v -0.064979 -0.136786 0.118630
v -0.156669 -0.166670 0.058017
v 0.111329 -0.268337 1.546978
v 0.018429 0.083034 0.874061
v 0.024307 -0.145863 0.862707
v 0.012978 0.066505 1.214596
v 0.012614 -0.212154 1.210489
v -0.008518 -0.021257 1.469426
v 0.014244 -0.222200 1.380021
v 0.016535 0.060160 0.865536
v 0.019621 -0.112308 0.840724
v -0.015252 -0.094580 1.533143
v -0.003491 -0.243537 1.428335
v -0.005730 -0.122451 1.544330
v -0.001749 -0.300446 1.449724
v -0.008461 -0.173363 1.551660
v 0.011182 -0.164917 1.006952
v 0.011225 0.068389 1.049607
v -0.006547 -0.163075 1.588528
v 0.016876 -0.004899 0.844255
v -0.265567 -0.404136 0.852862
v -0.228607 -0.410229 0.880255
v -0.292202 -0.428675 0.872062
v -0.256850 -0.434502 0.900714
v -0.251292 -0.450123 0.822727
v -0.204504 -0.462328 0.836050
v -0.276324 -0.480072 0.822009
v -0.214426 -0.491738 0.855702
v -0.240751 -0.461755 0.796300
v -0.192913 -0.469534 0.820618
v -0.252810 -0.492846 0.781681
v -0.187535 -0.502461 0.822364
v -0.138840 -0.434931 0.758535
v -0.186918 -0.424447 0.738090
v -0.248924 -0.403952 0.863642
v -0.276250 -0.432717 0.890049
v -0.230630 -0.451726 0.832802
v -0.245249 -0.486651 0.843750
v -0.214558 -0.464660 0.808678
v -0.213944 -0.501552 0.803654
v -0.196644 -0.461463 0.783326
v -0.174801 -0.452442 0.769992
v -0.077747 0.132191 0.875802
v -0.077794 -0.142438 0.894858
v -0.075171 0.063098 1.220864
v -0.085111 -0.195050 1.210258
v -0.145146 -0.001405 1.474633
v -0.130448 -0.194489 1.372623
v -0.093085 0.057883 0.785972
v -0.112350 -0.117639 0.870660
v -0.227983 -0.071575 1.517606
v -0.154417 -0.186229 1.428856
v -0.085204 -0.045339 0.686237
v -0.091803 -0.191814 0.780660
v -0.086404 -0.159431 1.011169
v -0.086223 0.075016 1.059106
v -0.086168 -0.134058 0.604766
v -0.085068 -0.274672 0.695890
v -0.100715 -0.122846 0.536292
v -0.101098 -0.330293 0.554790
v -0.108388 -0.135321 0.511452
v -0.113224 -0.301030 0.509772
v -0.109743 -0.095734 0.122310
v -0.109196 -0.196715 0.135097
v -0.104673 -0.074490 0.001455
v -0.111090 -0.224100 0.083057
v -0.139238 -0.442137 0.045449
v -0.134496 -0.419253 0.060630
v -0.206849 -0.153026 1.486169
v 0.199400 -0.064430 1.492167
v 0.096848 0.133596 0.883937
v 0.100897 -0.137067 0.877543
v 0.104044 0.060851 1.192526
v 0.099423 -0.202360 1.187711
v 0.177055 0.006462 1.493373
v 0.181027 -0.194018 1.404319
v 0.104099 0.105592 0.831581
v 0.104019 -0.110626 0.834579
v 0.106774 0.124566 0.714283
v 0.110527 -0.066256 0.658272
v 0.122763 0.126962 0.613626
v 0.124158 -0.032000 0.549685
v 0.176130 0.286803 0.482489
v 0.137942 0.156420 0.360079
v 0.188197 0.311392 0.465723
v 0.157199 0.186549 0.362780
v 0.174447 0.625801 0.232693
v 0.178684 0.448212 0.198446
v 0.092192 -0.160503 1.012653
v 0.084373 0.068734 1.048685
v 0.213969 -0.118739 1.465689
v -0.226076 -0.457705 0.770417
v -0.230911 -0.479935 0.753558
v -0.163839 -0.490179 0.790773
v -0.176642 -0.465497 0.798192
v -0.188341 -0.489619 0.772816
v -0.188148 -0.449391 0.856127
v -0.181047 -0.437509 0.871395
v -0.196118 -0.475946 0.875190
v -0.188139 -0.456711 0.891156
v -0.153305 -0.430297 0.841325
v -0.138943 -0.439291 0.825833
v -0.170600 -0.447452 0.848977
v -0.164749 -0.468673 0.859320
v -0.159151 -0.457528 0.869535
v -0.166561 -0.438672 0.857800
v -0.257500 -0.430010 0.837838
v -0.285111 -0.457215 0.848021
v -0.237699 -0.464835 0.884067
v -0.219414 -0.434376 0.861730
v -0.262827 -0.461382 0.868576
v -0.240955 -0.429466 0.849194
v -0.198727 -0.430182 0.880926
v -0.211868 -0.448723 0.903614
v -0.195593 -0.458458 0.845367
v -0.207783 -0.483073 0.869428
v -0.213637 -0.467649 0.889434
v -0.200386 -0.442579 0.865683
v -0.176091 0.037253 1.367114
v -0.155555 -0.192002 1.304746
v 0.188482 -0.175712 1.322886
v 0.196932 0.049719 1.404444
v -0.222812 0.032390 1.345311
v -0.203153 -0.157371 1.319321
v 0.231831 -0.109360 1.345236
v 0.233062 0.057963 1.372503
v 0.275817 -0.020566 1.295647
v 0.284290 0.100198 1.313438
v 0.226607 0.104663 1.085153
v 0.273316 0.171045 1.095064
v 0.227039 -0.108118 0.861096
v 0.299252 -0.054421 0.893521
v 0.228823 -0.154058 0.842242
v 0.294416 -0.123995 0.825721
v 0.213146 -0.212800 0.805671
v 0.169590 0.307056 0.103394
v -0.268033 -0.012629 1.313623
v -0.236650 -0.152962 1.332807
v -0.336357 -0.079839 1.077284
v -0.319189 -0.198824 1.106272
v -0.344710 -0.141099 0.992759
v -0.282285 -0.241273 1.038573
v -0.282643 -0.442909 0.835034
v -0.250517 -0.364005 0.927207
v -0.056989 -0.219410 1.296076
v 0.086927 -0.242952 1.315178
v 0.088257 0.059411 1.374145
v -0.071581 0.040133 1.382779
v 0.141409 0.364659 0.078865
v 0.014510 -0.242161 1.308686
v 0.035627 0.003984 1.441157
v -0.235976 -0.418458 0.898476
v -0.239831 -0.468117 0.754092
v -0.199343 -0.482518 0.840301
v -0.258118 -0.476598 0.781095
v -0.182233 -0.485011 0.825521
v -0.275145 -0.464395 0.814472
v -0.122843 0.040325 1.350449
v -0.107926 -0.209626 1.306029
v 0.141934 -0.215878 1.326274
v 0.146375 0.062915 1.377047
v -0.290222 -0.415703 0.854566
v -0.165154 -0.476220 0.799808
v -0.182857 -0.442278 0.886213
v -0.192494 -0.471848 0.853923
v -0.151649 -0.441311 0.830062
v -0.169702 -0.463467 0.847847
v -0.160839 -0.445006 0.866889
v -0.303734 -0.352557 0.879292
v -0.204655 -0.434616 0.897637
v 0.119501 -0.197470 1.600402
v 0.089729 -0.401771 1.612874
v 0.117052 -0.320775 1.589052
v 0.227302 0.134669 1.206690
v 0.304585 0.126053 1.202389
v 0.289822 0.048915 1.187194
v 0.217846 0.063726 1.189658
v 0.310748 0.085087 1.192812
v 0.206461 0.100584 1.194537
v 0.270342 0.145084 1.206011
v 0.248082 0.039496 1.186533
v 0.209691 -0.155004 0.802579
v 0.206157 -0.128071 0.822115
v 0.206969 -0.169945 0.808252
v 0.212842 -0.135261 0.837804
v 0.193028 -0.159321 0.801572
v -0.076872 -0.363499 0.032354
v -0.100009 -0.385399 0.071288
v -0.165035 -0.372517 0.053709
v -0.172232 -0.357525 0.035256
v 0.145379 0.329578 0.103182
v 0.243603 0.362709 0.094921
v -0.080893 -0.390935 0.061149
v -0.136393 -0.392502 0.069616
v -0.128975 -0.338176 0.029827
v 0.202625 0.304716 0.101093
v 0.196318 0.383344 0.086623
v 0.052752 -0.393823 1.508292
v 0.029602 -0.403536 1.468171
v -0.132947 -0.116622 1.509597
v 0.218461 0.473771 0.208969
v 0.234922 0.317029 0.101440
v 0.182431 -0.187961 0.778730
v 0.209015 0.585754 0.199362
v 0.257986 0.377337 0.083374
v 0.207075 0.276220 0.034025
v 0.202930 0.275894 0.064942
v -0.060885 -0.177432 0.043247
v 0.018247 -0.296175 1.761557
v 0.010283 -0.381703 1.719262
v 0.007543 -0.410359 1.684916
v 0.004981 -0.192462 1.714411
v -0.003228 -0.243361 1.770983
v 0.042648 -0.407555 1.567044
v 0.008419 -0.433427 1.614999
v -0.013452 -0.167288 1.692337
v -0.023769 -0.157054 1.638295
v 0.230765 0.485246 0.134169
v 0.159107 0.389601 0.148302
v 0.146324 0.420569 0.152627
v 0.227443 0.438381 0.155375
v 0.187994 0.385345 0.138893
v 0.180922 0.511524 0.148647
v 0.152025 0.489495 0.137748
v 0.210207 0.400879 0.147442
v -0.092554 -0.248996 0.010621
v -0.165120 -0.250613 0.018027
v -0.091883 -0.295168 0.068468
v -0.148187 -0.296328 0.062778
v -0.124205 -0.309586 0.067759
v -0.117211 -0.207717 0.009599
v -0.156334 -0.279440 0.056915
v -0.076303 -0.284201 0.055900
v 0.147194 0.452428 0.249211
v 0.152336 0.506397 0.291248
v 0.130595 0.475246 0.264383
v 0.217851 0.469755 0.259935
v 0.180809 0.519830 0.301313
v 0.170694 0.440268 0.238351
v 0.201935 0.451240 0.248080
v 0.205091 0.492212 0.272058
v 0.072376 0.059963 0.454189
v 0.079212 0.173591 0.523815
v 0.208150 0.161145 0.526176
v 0.056077 0.109088 0.487799
v 0.215819 0.114046 0.490352
v 0.144974 0.182120 0.533350
v 0.201424 0.076602 0.464142
v 0.186699 0.042603 0.441058
v 0.155529 0.031588 0.437008
v 0.127101 0.021191 0.428887
v 0.106403 0.030892 0.436822
v -0.272161 -0.197074 1.054850
v -0.331046 -0.203968 1.086627
v -0.351405 -0.171176 1.060782
v -0.300439 -0.219188 1.072196
v -0.305149 -0.107374 1.044609
v -0.277931 -0.148536 1.045356
v -0.337874 -0.110352 1.034333
v -0.261708 -0.165598 1.049781
v -0.350458 -0.115599 1.033553
v -0.359200 -0.153330 1.050025
vt 0.069736 0.810409
vt 0.070343 0.836608
vt 0.016229 0.816513
vt 0.108198 0.828833
vt 0.082923 0.858291
vt 0.106675 0.817219
vt 0.100807 0.806030
vt 0.150135 0.804118
vt 0.147186 0.813631
vt 0.174865 0.804059
vt 0.199136 0.770721
vt 0.202768 0.808668
vt 0.238571 0.772226
vt 0.263052 0.806977
vt 0.232791 0.807582
vt 0.219562 0.756768
vt 0.197768 0.831600
vt 0.178180 0.842881
vt 0.234127 0.832144
vt 0.215107 0.851808
vt 0.137368 0.848515
vt 0.110896 0.852930
vt 0.145348 0.858722
vt 0.117053 0.872845
vt 0.102955 0.908822
vt 0.126935 0.911784
vt 0.138976 0.939172
vt 0.152030 0.900103
vt 0.166281 0.939086
vt 0.089864 0.882970
vt 0.149277 0.791186
vt 0.257412 0.845823
vt 0.214501 0.867849
vt 0.213059 0.907146
vt 0.051165 0.936868
vt 0.014365 0.995179
vt 0.015016 0.932731
vt 0.015519 0.884587
vt 0.078700 0.906981
vt 0.119497 0.940371
vt 0.219156 0.966110
vt 0.215077 0.942549
vt 0.015832 0.854569
vt 0.016051 0.833512
vt 0.179234 0.620343
vt 0.197718 0.646091
vt 0.173652 0.698841
vt 0.182928 0.613250
vt 0.178951 0.620309
vt 0.026111 0.589592
vt 0.036575 0.571852
vt 0.091358 0.586156
vt 0.124688 0.593060
vt 0.160572 0.604071
vt 0.170757 0.608279
vt 0.530541 0.500669
vt 0.510531 0.463554
vt 0.551834 0.493069
vt 0.552803 0.545871
vt 0.590385 0.499029
vt 0.586699 0.548165
vt 0.709463 0.233461
vt 0.736981 0.227836
vt 0.754824 0.286062
vt 0.746649 0.660255
vt 0.764971 0.572211
vt 0.792005 0.606361
vt 0.782569 0.517985
vt 0.798161 0.553887
vt 0.756625 0.500475
vt 0.737230 0.581062
vt 0.736075 0.519940
vt 0.733529 0.479446
vt 0.750714 0.455948
vt 0.710553 0.534913
vt 0.713606 0.486083
vt 0.707849 0.591243
vt 0.721914 0.656839
vt 0.056404 0.510554
vt 0.059910 0.459217
vt 0.082250 0.470310
vt 0.111457 0.463904
vt 0.112872 0.507403
vt 0.101446 0.443261
vt 0.056753 0.433066
vt 0.024045 0.465652
vt 0.523770 0.443500
vt 0.557804 0.459512
vt 0.592367 0.472603
vt 0.536472 0.416574
vt 0.563911 0.425104
vt 0.586690 0.416660
vt 0.568725 0.405936
vt 0.575182 0.380223
vt 0.594668 0.441922
vt 0.051716 0.399758
vt 0.024388 0.442698
vt 0.081566 0.396057
vt 0.093588 0.424361
vt 0.128566 0.412255
vt 0.109875 0.389620
vt 0.144957 0.383594
vt 0.141775 0.429221
vt 0.140728 0.456272
vt 0.132597 0.505439
vt 0.682119 0.592684
vt 0.697545 0.666171
vt 0.684063 0.542042
vt 0.648993 0.547098
vt 0.685757 0.487986
vt 0.653522 0.591244
vt 0.623556 0.582985
vt 0.679541 0.670859
vt 0.662650 0.670490
vt 0.157697 0.458631
vt 0.158681 0.391976
vt 0.157741 0.429866
vt 0.177530 0.430906
vt 0.454911 0.444893
vt 0.463736 0.393656
vt 0.479621 0.447783
vt 0.429932 0.441906
vt 0.454684 0.472779
vt 0.434980 0.472434
vt 0.472824 0.476894
vt 0.476425 0.525671
vt 0.456561 0.523166
vt 0.499275 0.486705
vt 0.497959 0.533883
vt 0.650874 0.220393
vt 0.668673 0.225869
vt 0.676740 0.279524
vt 0.688030 0.233060
vt 0.523816 0.542864
vt 0.493663 0.422434
vt 0.474451 0.386123
vt 0.482005 0.375180
vt 0.505422 0.400154
vt 0.514707 0.384843
vt 0.523991 0.369532
vt 0.531331 0.397196
vt 0.491685 0.367753
vt 0.128703 0.369584
vt 0.104505 0.368381
vt 0.099134 0.347142
vt 0.124471 0.341259
vt 0.103840 0.290043
vt 0.125032 0.288667
vt 0.506874 0.315104
vt 0.523971 0.318162
vt 0.260244 0.201008
vt 0.260256 0.148470
vt 0.285563 0.152714
vt 0.307173 0.152925
vt 0.307427 0.206656
vt 0.310405 0.109643
vt 0.286264 0.108735
vt 0.286965 0.064755
vt 0.267247 0.062003
vt 0.295875 0.025083
vt 0.263751 0.105236
vt 0.252893 0.056371
vt 0.440764 0.192044
vt 0.442886 0.130542
vt 0.459726 0.145161
vt 0.438643 0.253546
vt 0.412179 0.246705
vt 0.072435 0.349262
vt 0.073244 0.290649
vt 0.045943 0.349562
vt 0.077001 0.372659
vt 0.598868 0.385923
vt 0.596768 0.413923
vt 0.025330 0.379831
vt 0.048830 0.374660
vt 0.025785 0.349403
vt 0.026752 0.284835
vt 0.049424 0.287418
vt 0.388440 0.194221
vt 0.413018 0.188997
vt 0.545758 0.095983
vt 0.484907 0.101111
vt 0.491324 0.068919
vt 0.543531 0.316131
vt 0.571026 0.317433
vt 0.603411 0.325357
vt 0.336412 0.145885
vt 0.334734 0.199716
vt 0.313637 0.066360
vt 0.339506 0.058746
vt 0.419166 0.101111
vt 0.415550 0.073077
vt 0.418936 0.041329
vt 0.485174 0.030517
vt 0.545250 0.041004
vt 0.555771 0.071660
vt 0.550413 0.377675
vt 0.558050 0.404510
vt 0.731741 0.299501
vt 0.713679 0.331519
vt 0.699831 0.287050
vt 0.699623 0.348759
vt 0.689400 0.321677
vt 0.663804 0.312784
vt 0.654456 0.274483
vt 0.634618 0.311670
vt 0.669502 0.338169
vt 0.604363 0.274181
vt 0.630672 0.275261
vt 0.632768 0.219732
vt 0.612796 0.219139
vt 0.578680 0.274242
vt 0.840163 0.675460
vt 0.805000 0.641210
vt 0.821835 0.616809
vt 0.823287 0.709302
vt 0.792442 0.666262
vt 0.801265 0.732258
vt 0.840971 0.744966
vt 0.781333 0.686390
vt 0.557027 0.277312
vt 0.566024 0.224516
vt 0.589504 0.220607
vt 0.375096 0.492402
vt 0.384961 0.458486
vt 0.405199 0.486941
vt 0.410574 0.526483
vt 0.436273 0.522295
vt 0.410194 0.413373
vt 0.430433 0.380777
vt 0.455808 0.393131
vt 0.165665 0.393959
vt 0.192333 0.391907
vt 0.203471 0.419505
vt 0.207389 0.368304
vt 0.225411 0.391622
vt 0.396034 0.384167
vt 0.373257 0.427405
vt 0.420432 0.356604
vt 0.385943 0.354045
vt 0.365034 0.394965
vt 0.359348 0.362250
vt 0.361655 0.322007
vt 0.331496 0.354320
vt 0.389735 0.318213
vt 0.408299 0.313218
vt 0.407520 0.344510
vt 0.211730 0.328779
vt 0.220254 0.292264
vt 0.240239 0.298890
vt 0.032729 0.262939
vt 0.010266 0.262462
vt 0.022123 0.216488
vt 0.183362 0.259934
vt 0.169879 0.261827
vt 0.170456 0.200058
vt 0.152871 0.212064
vt 0.157816 0.257421
vt 0.131245 0.259389
vt 0.152744 0.212061
vt 0.329851 0.315255
vt 0.305156 0.349663
vt 0.332361 0.395198
vt 0.336616 0.434023
vt 0.342953 0.472564
vt 0.302718 0.434937
vt 0.305443 0.474901
vt 0.344205 0.538039
vt 0.305197 0.529271
vt 0.381368 0.533821
vt 0.526919 0.283769
vt 0.770507 0.751644
vt 0.805920 0.758992
vt 0.759849 0.709726
vt 0.733814 0.766693
vt 0.731822 0.732613
vt 0.715848 0.699675
vt 0.731674 0.685305
vt 0.489862 0.276741
vt 0.503649 0.216719
vt 0.536949 0.224504
vt 0.500193 0.577651
vt 0.546406 0.567669
vt 0.550049 0.651223
vt 0.770277 0.950472
vt 0.741703 0.987031
vt 0.721975 0.973279
vt 0.670795 0.949235
vt 0.691763 0.924160
vt 0.667253 0.759822
vt 0.647596 0.761046
vt 0.661418 0.745912
vt 0.674984 0.731059
vt 0.685126 0.785114
vt 0.727911 0.801324
vt 0.684541 0.813951
vt 0.779951 0.788271
vt 0.812240 0.817931
vt 0.777899 0.838219
vt 0.732181 0.843380
vt 0.684428 0.846295
vt 0.661248 0.840977
vt 0.662804 0.852998
vt 0.662157 0.811417
vt 0.664185 0.784673
vt 0.643244 0.784232
vt 0.590894 0.788058
vt 0.588395 0.804006
vt 0.546988 0.807658
vt 0.648291 0.946686
vt 0.655183 0.935733
vt 0.625362 0.944088
vt 0.565379 0.931164
vt 0.577026 0.913602
vt 0.517318 0.950251
vt 0.518656 0.937728
vt 0.532671 0.916079
vt 0.498534 0.934775
vt 0.508386 0.916362
vt 0.498934 0.958053
vt 0.504952 0.967267
vt 0.538647 0.828159
vt 0.520554 0.803562
vt 0.506540 0.794164
vt 0.512161 0.782695
vt 0.526812 0.792410
vt 0.499805 0.976893
vt 0.490810 0.970078
vt 0.606211 0.225665
vt 0.595724 0.228838
vt 0.600010 0.221730
vt 0.495368 0.986286
vt 0.485546 0.980051
vt 0.476390 0.972088
vt 0.479016 0.958002
vt 0.594230 0.216702
vt 0.592138 0.225545
vt 0.586564 0.214627
vt 0.590529 0.228890
vt 0.597639 0.217468
vt 0.605528 0.228876
vt 0.601098 0.232224
vt 0.604423 0.216146
vt 0.496747 0.782205
vt 0.501342 0.775490
vt 0.492601 0.804070
vt 0.489730 0.787509
vt 0.506750 0.811736
vt 0.492742 0.816421
vt 0.513412 0.828903
vt 0.488759 0.827748
vt 0.474192 0.805949
vt 0.511728 0.849291
vt 0.490026 0.847743
vt 0.536808 0.847447
vt 0.531596 0.867423
vt 0.579848 0.843550
vt 0.583631 0.821038
vt 0.639773 0.808883
vt 0.638068 0.835659
vt 0.640348 0.859960
vt 0.577914 0.864185
vt 0.582099 0.876926
vt 0.584670 0.895647
vt 0.537191 0.899022
vt 0.667339 0.876481
vt 0.668457 0.888449
vt 0.646086 0.879394
vt 0.736172 0.880839
vt 0.740176 0.911475
vt 0.690828 0.897503
vt 0.738403 0.943686
vt 0.778359 0.920543
vt 0.803771 0.938845
vt 0.794015 0.972059
vt 0.784290 0.882232
vt 0.808911 0.904111
vt 0.820719 0.863047
vt 0.834152 0.902731
vt 0.860307 0.861182
vt 0.865071 0.907486
vt 0.854923 0.958699
vt 0.829423 0.947565
vt 0.815176 0.985898
vt 0.887162 0.982680
vt 0.841126 0.997513
vt 0.599526 0.582393
vt 0.641540 0.666649
vt 0.148351 0.505738
vt 0.174193 0.461810
vt 0.207317 0.471588
vt 0.195039 0.515146
vt 0.222404 0.449298
vt 0.239531 0.431097
vt 0.252210 0.395818
vt 0.234712 0.343454
vt 0.265749 0.311085
vt 0.059449 0.258487
vt 0.041224 0.210106
vt 0.046055 0.145057
vt 0.065208 0.145112
vt 0.024679 0.151375
vt 0.162418 0.029328
vt 0.182110 0.066625
vt 0.166653 0.067555
vt 0.184383 0.102727
vt 0.186657 0.138828
vt 0.165079 0.140337
vt 0.141648 0.103851
vt 0.138732 0.067952
vt 0.115723 0.103496
vt 0.111228 0.067117
vt 0.106891 0.104386
vt 0.128518 0.203489
vt 0.120218 0.139876
vt 0.144564 0.139751
vt 0.102553 0.141654
vt 0.109393 0.202459
vt 0.089752 0.204557
vt 0.108356 0.261684
vt 0.084126 0.259809
vt 0.282949 0.354017
vt 0.258549 0.351892
vt 0.279678 0.394818
vt 0.273489 0.435894
vt 0.264764 0.465056
vt 0.236144 0.480843
vt 0.230426 0.525231
vt 0.576400 0.576912
vt 0.612982 0.659816
vt 0.582060 0.650525
vt 0.267987 0.525790
vt 0.305231 0.529680
vt 0.303387 0.392990
vt 0.288143 0.310611
vt 0.305042 0.312138
vt 0.080500 0.144623
vt 0.064947 0.207693
vt 0.555911 0.071265
vt 0.491604 0.068128
vt 0.166360 0.018036
vt 0.194569 0.061886
vt 0.205200 0.106980
vt 0.215831 0.152075
vt 0.145490 0.015442
vt 0.142316 0.025664
vt 0.122222 0.019171
vt 0.183428 0.191935
vt 0.098209 0.061670
vt 0.089191 0.103327
vt 0.904527 0.932446
vt 0.949699 0.948466
vt 0.911335 0.882488
vt 0.856281 0.836740
vt 0.887268 0.835598
vt 0.922921 0.857963
vt 0.965169 0.597470
vt 0.917537 0.577056
vt 0.944867 0.540579
vt 0.978071 0.883628
vt 0.973533 0.894384
vt 0.689807 0.425682
vt 0.723753 0.401854
vt 0.723676 0.441929
vt 0.751080 0.416759
vt 0.743080 0.379427
vt 0.787951 0.419748
vt 0.785654 0.452513
vt 0.788706 0.483118
vt 0.832288 0.454003
vt 0.836262 0.425753
vt 0.780027 0.392874
vt 0.831699 0.398084
vt 0.881984 0.402051
vt 0.879661 0.431814
vt 0.870752 0.458245
vt 0.864071 0.473143
vt 0.827228 0.478044
vt 0.861871 0.491751
vt 0.818704 0.500131
vt 0.958919 0.484608
vt 0.962949 0.502797
vt 0.937394 0.181666
vt 0.769056 0.171862
vt 0.923107 0.165442
vt 0.866430 0.519287
vt 0.825735 0.529120
vt 0.815376 0.348115
vt 0.773877 0.335777
vt 0.788825 0.312483
vt 0.742325 0.347461
vt 0.720633 0.360227
vt 0.774690 0.367418
vt 0.820904 0.374810
vt 0.872377 0.354530
vt 0.878939 0.376376
vt 0.819290 0.317856
vt 0.731418 0.161390
vt 0.740781 0.147624
vt 0.910959 0.146351
vt 0.728397 0.116884
vt 0.914298 0.126964
vt 0.743061 0.135898
vt 0.708508 0.185310
vt 0.696037 0.169448
vt 0.707778 0.159044
vt 0.676057 0.226459
vt 0.677608 0.225465
vt 0.676205 0.240475
vt 0.671792 0.238244
vt 0.671579 0.231190
vt 0.675970 0.223623
vt 0.780888 0.198982
vt 0.721993 0.208356
vt 0.777250 0.185608
vt 0.940749 0.196335
vt 0.683363 0.177018
vt 0.717878 0.068662
vt 0.713329 0.057286
vt 0.765911 0.073368
vt 0.691650 0.061870
vt 0.690905 0.050835
vt 0.704049 0.210128
vt 0.580357 0.233572
vt 0.578678 0.228747
vt 0.590575 0.223615
vt 0.632111 0.223278
vt 0.631029 0.218871
vt 0.633990 0.223808
vt 0.634144 0.230548
vt 0.630419 0.230702
vt 0.627492 0.228454
vt 0.685209 0.070727
vt 0.761098 0.088965
vt 0.932747 0.074007
vt 0.937492 0.094905
vt 0.957631 0.466678
vt 0.967928 0.421502
vt 0.960140 0.443954
vt 0.932725 0.111224
vt 0.750793 0.102746
vt 0.705453 0.080670
vt 0.711538 0.076342
vt 0.680790 0.074556
vt 0.626241 0.226931
vt 0.628045 0.218080
vt 0.582846 0.223738
vt 0.622224 0.225301
vt 0.624718 0.220016
vt 0.697557 0.089662
vt 0.676268 0.086597
vt 0.978665 0.398268
vt 0.692023 0.380408
vt 0.864947 0.581494
vt 0.899554 0.604654
vt 0.958903 0.642431
vt 0.337857 0.805645
vt 0.352329 0.816896
vt 0.335849 0.816248
vt 0.980156 0.877558
vt 0.909464 0.816878
vt 0.926421 0.834067
vt 0.281063 0.862176
vt 0.275086 0.902303
vt 0.214060 0.907716
vt 0.263508 0.936732
vt 0.293204 0.935134
vt 0.312830 0.897319
vt 0.306961 0.939965
vt 0.325778 0.911830
vt 0.378134 0.940095
vt 0.415505 0.929827
vt 0.418784 0.993411
vt 0.352990 0.912880
vt 0.416587 0.879286
vt 0.342977 0.862915
vt 0.334404 0.831281
vt 0.356169 0.822831
vt 0.421828 0.803268
vt 0.423463 0.790571
vt 0.281092 0.802015
vt 0.289344 0.787333
vt 0.914935 0.669173
vt 0.894371 0.655267
vt 0.941248 0.648461
vt 0.865116 0.631419
vt 0.904634 0.714904
vt 0.885904 0.758904
vt 0.900499 0.789879
vt 0.899007 0.788698
vt 0.853737 0.811092
vt 0.829870 0.777931
vt 0.860844 0.709530
vt 0.295623 0.819633
vt 0.287258 0.844412
vt 0.325763 0.856591
vt 0.321747 0.877511
vt 0.342095 0.889562
vt 0.420014 0.823008
vt 0.418443 0.847652
vt 0.214754 0.868398
vt 0.684556 0.874120
vt 0.672119 0.912381
vt 0.652475 0.900602
vt 0.639571 0.922231
vt 0.507622 0.881982
vt 0.511692 0.900015
vt 0.489666 0.900137
vt 0.580288 0.220048
vt 0.602597 0.219251
vt 0.595593 0.231166
vt 0.484047 0.918288
vt 0.483902 0.881354
vt 0.469443 0.898677
vt 0.461404 0.882670
vt 0.450183 0.899039
vt 0.464541 0.917413
vt 0.468275 0.936341
vt 0.471954 0.946277
vt 0.450867 0.951575
vt 0.488129 0.950503
vt 0.459843 0.957822
vt 0.474275 0.794513
vt 0.477930 0.782470
vt 0.464248 0.968801
vt 0.593648 0.229043
vt 0.594800 0.219921
vt 0.444295 0.950359
vt 0.455896 0.935741
vt 0.578071 0.229878
vt 0.581080 0.226636
vt 0.582821 0.231325
vt 0.444016 0.932284
vt 0.589242 0.231216
vt 0.447125 0.916158
vt 0.594684 0.224169
vt 0.596039 0.231008
vt 0.534866 0.881347
vt 0.436167 0.876832
vt 0.451786 0.873540
vt 0.502622 0.869488
vt 0.478622 0.869260
vt 0.600669 0.228516
vt 0.470367 0.846306
vt 0.436632 0.875280
vt 0.588033 0.222815
vt 0.620369 0.220488
vt 0.617885 0.228883
vt 0.604039 0.223910
vt 0.625993 0.229515
vt 0.627942 0.223514
vt 0.630553 0.227391
vt 0.474575 0.826305
vt 0.456368 0.843249
vt 0.468600 0.807609
vt 0.462220 0.823292
vt 0.860756 0.332332
vt 0.993439 0.371060
vt 0.986188 0.383142
vt 0.682025 0.226976
vt 0.679969 0.227249
vt 0.679746 0.240699
vt 0.359744 0.137364
vt 0.391687 0.134896
vt 0.379208 0.097067
vt 0.392501 0.134914
vt 0.338867 0.016386
vt 0.351992 0.060701
vt 0.355868 0.099033
vt 0.358824 0.195455
vt 0.357904 0.253546
vt 0.317688 0.022378
vt 0.316028 0.010349
vt 0.365914 0.059220
vt 0.188288 0.626633
vt 0.020225 0.627476
vt 0.077847 0.729049
vt 0.337959 0.102316
vt 0.605326 0.051490
vt 0.620218 0.074402
vt 0.243365 0.103028
vt 0.606609 0.090856
vt 0.080172 0.144983
vt 0.165866 0.103946
vt 0.385193 0.253546
vt 0.333056 0.253546
vt 0.413857 0.131288
vt 0.459290 0.199353
vt 0.286566 0.257455
vt 0.286064 0.205085
vt 0.260233 0.253546
vt 0.180066 0.618899
vt 0.041004 0.571204
vt 0.031313 0.580504
vt 0.176801 0.615736
vt 0.131432 0.592259
vt 0.168093 0.605199
vt 0.087753 0.577968
vt 0.126587 0.355421
vt 0.542484 0.399799
vt 0.686910 0.758599
vt 0.586835 0.222039
vt 0.016410 0.799097
vt 0.148475 0.720072
vt 0.112435 0.731387
vt 0.084152 0.729883
vt 0.033136 0.705214
vt 0.025959 0.628575
vt 0.025663 0.589717
vt 0.019321 0.677833
vt 0.192463 0.676215
vt 0.778378 0.672029
vt 0.084388 0.511316
vt 0.023385 0.509676
vt 0.024874 0.410259
vt 0.501364 0.360326
vt 0.292615 0.013201
vt 0.157751 0.257609
vt 0.305025 0.313375
vt 0.507675 0.653310
vt 0.608429 0.224637
vt 0.167552 0.508667
vt 0.967338 0.518460
vt 0.937757 0.213909
vt 0.591695 0.226894
vt 0.981627 0.633093
vt 0.446385 0.886139
vt 0.437892 0.943408
vt 0.609547 0.219908
vt 0.459305 0.810763
vt 0.679907 0.223732
vt 0.684787 0.235652
vt 0.107612 0.733849
vt 0.168687 0.701495
vt 0.187110 0.679257
vt 0.192365 0.649132
vt 0.140452 0.724767
vt 0.012425 0.676347
vt 0.026831 0.704379
vt 0.030940 0.580778
vt 0.233836 0.149685
vt 0.307681 0.260387
vt 0.458854 0.253546
vt 0.187870 0.626400
vn -0.395100 0.746800 -0.535000
vn -0.637000 0.706600 -0.308100
vn 0.531000 0.831700 -0.162100
vn -0.977800 0.004100 -0.209700
vn -0.839700 0.527500 -0.128400
vn -0.946600 0.190300 -0.260000
vn -0.479700 0.610500 -0.630200
vn -0.789600 -0.187200 -0.584300
vn -0.733500 -0.649000 -0.201800
vn -0.536800 -0.796000 -0.279600
vn -0.394300 -0.620200 -0.678100
vn -0.248000 -0.951100 -0.184100
vn 0.470600 -0.545000 -0.693900
vn 0.940600 -0.269300 -0.206700
vn 0.219500 -0.968300 -0.119100
vn 0.385300 0.257900 -0.886000
vn -0.291600 -0.915800 -0.276000
vn -0.440500 -0.892200 -0.099400
vn 0.437700 -0.874200 -0.209900
vn 0.001100 -0.939900 -0.341300
vn -0.707500 -0.698800 -0.104800
vn -0.959100 -0.209000 -0.190700
vn -0.513200 -0.855100 0.073600
vn -0.904100 -0.426100 0.030600
vn -0.668600 0.407000 0.622300
vn -0.800300 -0.457600 0.387300
vn -0.471500 -0.324800 0.819800
vn -0.425400 -0.859400 0.283700
vn -0.294200 -0.663000 0.688300
vn -0.828400 0.532700 0.173400
vn -0.437300 0.378000 -0.816000
vn 0.906300 -0.416900 0.069000
vn 0.192300 -0.968200 0.159700
vn 0.390700 -0.825600 0.407000
vn -0.242000 0.206300 0.948100
vn 0.722600 -0.179200 0.667600
vn 0.428700 0.355600 0.830500
vn 0.710200 0.572300 0.410000
vn 0.638600 -0.448600 0.625200
vn 0.247300 0.913200 0.323700
vn 0.087400 0.992800 0.081600
vn 0.406700 0.785900 -0.465700
vn 0.507200 -0.795100 -0.332500
vn 0.106200 -0.868100 -0.484800
vn 0.812100 -0.548200 -0.199800
vn 0.887300 -0.461000 -0.010100
vn 0.999600 0.015000 0.023900
vn 0.997100 0.011300 0.074800
vn 0.991800 -0.000900 -0.128100
vn 0.897500 0.423900 0.121300
vn 0.927300 0.076800 -0.366200
vn -0.683200 0.662400 0.307100
vn 0.033300 -0.146000 -0.988700
vn -0.134300 0.910400 0.391300
vn 0.690700 0.720200 -0.064200
vn 0.132800 0.956100 0.261000
vn 0.354500 0.613000 0.706100
vn 0.559000 0.302300 0.772100
vn 0.077700 0.982300 0.170200
vn 0.092800 0.538900 0.837200
vn 0.274800 0.961400 -0.009200
vn 0.560800 0.818300 0.125600
vn 0.834500 0.549100 0.045800
vn 0.635800 0.768600 0.071000
vn 0.086200 0.995800 -0.031500
vn 0.223800 0.958500 0.176300
vn 0.066400 0.983700 -0.166800
vn 0.701500 0.701700 0.124300
vn -0.138100 -0.944500 -0.298000
vn 0.810900 -0.556800 -0.179700
vn 0.999800 0.015600 0.009600
vn -0.028200 -0.933800 -0.356500
vn 0.817700 -0.552100 -0.162800
vn 0.947800 -0.295200 -0.120900
vn 0.661100 -0.598400 -0.452500
vn 0.633600 -0.263400 -0.727400
vn 0.992300 -0.107700 0.060300
vn 0.751400 0.575700 0.322300
vn 0.005800 0.951600 0.307200
vn -0.051900 0.992400 0.111100
vn -0.767900 0.640400 0.009600
vn -0.710200 0.690600 0.136700
vn -0.990000 -0.047700 -0.132600
vn -0.808300 0.560000 -0.181600
vn -0.543600 0.828600 -0.133700
vn -0.038800 0.993700 0.105300
vn 0.073500 0.996900 0.028400
vn -0.226000 0.933800 0.277300
vn -0.176600 0.873600 0.453500
vn -0.053800 0.535000 0.843100
vn -0.151900 0.984100 0.091900
vn 0.131200 0.973100 0.189200
vn 0.031100 0.992800 0.115400
vn -0.186500 0.925200 -0.330500
vn -0.238600 -0.287500 -0.927600
vn -0.017600 0.316700 -0.948400
vn 0.622300 0.482700 -0.616200
vn -0.258800 -0.257100 -0.931100
vn -0.225600 -0.608700 -0.760600
vn 0.100300 -0.726900 -0.679300
vn -0.067500 -0.843400 -0.533000
vn -0.248700 -0.771300 -0.585800
vn 0.116700 -0.901600 -0.416500
vn 0.076400 -0.977300 -0.197400
vn 0.004100 -0.982100 -0.188100
vn 0.217700 -0.929100 -0.298900
vn 0.190900 -0.962200 -0.193900
vn 0.367500 -0.900000 -0.234500
vn 0.506700 -0.850900 -0.138700
vn -0.803400 -0.544500 -0.240900
vn -0.992600 0.020500 -0.119300
vn -0.813700 -0.516800 -0.265800
vn -0.823600 -0.345000 -0.450200
vn -0.795700 -0.027300 -0.605100
vn -0.613000 -0.557100 -0.560300
vn -0.981700 0.073000 -0.175800
vn -0.730300 0.575100 0.368600
vn -0.514300 0.830100 0.215200
vn -0.960200 0.268300 -0.077100
vn -0.654300 0.752900 0.071200
vn -0.981400 0.131900 -0.139300
vn -0.576600 -0.130600 -0.806500
vn -0.997600 0.066300 0.017900
vn -0.994800 0.063900 -0.079700
vn -0.775600 -0.622200 0.105700
vn 0.106400 -0.888100 0.447200
vn -0.122600 -0.781100 -0.612200
vn 0.123800 -0.533700 0.836500
vn -0.298800 -0.536100 0.789500
vn -0.240900 -0.646700 0.723600
vn -0.850600 -0.381700 0.361400
vn -0.449200 -0.798700 0.400300
vn -0.965600 -0.181100 0.186300
vn -0.761700 0.242700 -0.600700
vn -0.730500 0.438800 0.523200
vn -0.691400 0.674100 -0.259700
vn 0.284900 0.658400 0.696600
vn -0.036500 0.601900 0.797700
vn 0.822700 0.366200 0.434700
vn 0.051200 0.645200 0.762300
vn 0.990900 0.035100 -0.129600
vn 0.979200 -0.199500 0.035000
vn 0.784900 0.276600 0.554400
vn 0.935300 -0.066300 -0.347500
vn 0.970900 0.234500 -0.049000
vn 0.846300 0.286400 0.449200
vn 0.243600 0.587600 0.771600
vn 0.662300 0.363800 -0.654900
vn 0.912400 0.135400 -0.386100
vn -0.015300 0.434800 -0.900400
vn 0.041200 -0.149400 -0.987900
vn 0.609700 -0.223300 -0.760500
vn 0.757700 -0.616600 0.213700
vn 0.672600 -0.599900 -0.433300
vn 0.190900 -0.678800 0.709000
vn 0.643400 -0.538700 0.543800
vn 0.767100 -0.206700 -0.607300
vn 0.281400 -0.574500 -0.768600
vn -0.693700 -0.458100 -0.555700
vn -0.590200 0.353700 -0.725600
vn -0.031300 0.523700 -0.851300
vn -0.196300 -0.240900 -0.950500
vn 0.400900 -0.704600 -0.585400
vn 0.913500 -0.056300 -0.402900
vn 0.754700 -0.539000 -0.373900
vn 0.770000 -0.614600 -0.171100
vn 0.427800 -0.856500 0.288600
vn 0.513600 -0.854500 -0.077500
vn 0.197400 -0.980300 -0.010300
vn 0.054900 -0.966400 -0.251000
vn -0.094000 -0.995100 -0.030900
vn 0.188200 -0.935800 0.298100
vn -0.207400 -0.954600 -0.213900
vn -0.086200 -0.967200 -0.238900
vn -0.067100 -0.981700 -0.178300
vn -0.198000 -0.965500 -0.168900
vn -0.246700 -0.961000 -0.125100
vn -0.303800 -0.949700 -0.075800
vn -0.471400 -0.880600 -0.047100
vn -0.393000 -0.917700 0.058400
vn -0.408500 -0.895500 -0.176400
vn -0.534400 -0.824200 -0.187500
vn -0.201600 -0.961900 -0.184500
vn -0.535800 -0.808600 -0.242800
vn -0.219600 -0.967200 0.127800
vn -0.192000 -0.878100 -0.438100
vn 0.801700 -0.450800 0.392500
vn 0.997700 -0.061700 0.028900
vn 0.949700 -0.196300 -0.243800
vn 0.728100 0.447000 -0.519600
vn 0.995800 -0.086800 -0.026900
vn 0.824000 0.417700 -0.382700
vn 0.822700 -0.496500 0.276700
vn 0.105400 -0.753700 0.648700
vn 0.707000 -0.675300 -0.209800
vn 0.081600 -0.837200 0.540800
vn 0.017000 -0.999200 -0.036800
vn -0.029300 -0.905400 -0.423500
vn -0.689300 -0.722600 -0.051600
vn 0.611700 -0.705300 -0.358300
vn 0.978400 -0.026500 -0.205000
vn 0.974800 -0.102500 -0.198100
vn 0.770300 0.504900 -0.389400
vn 0.960100 0.273000 -0.059200
vn 0.859600 -0.508300 0.050700
vn 0.064100 -0.996900 0.044800
vn -0.791900 -0.569100 -0.221300
vn -0.996400 -0.076800 -0.034200
vn -0.735600 -0.566800 0.371000
vn -0.716300 -0.598000 0.359500
vn -0.830200 -0.554900 0.053700
vn -0.989500 0.057500 -0.132100
vn -0.996400 0.025400 -0.080400
vn -0.882300 -0.463900 -0.080100
vn -0.999200 -0.013000 0.036600
vn -0.868000 -0.459300 -0.188600
vn -0.559200 -0.787600 -0.258800
vn -0.449100 -0.893100 0.027400
vn -0.047000 -0.996000 -0.075900
vn -0.120400 -0.751300 -0.648900
vn -0.168400 0.118400 -0.978600
vn -0.992000 -0.040000 -0.119300
vn -0.882800 0.440200 -0.163800
vn -0.885000 0.463300 0.044300
vn 0.933200 0.256100 -0.252100
vn 0.458600 0.784800 -0.416800
vn 0.796400 -0.315000 0.516200
vn 0.996300 0.074600 0.042000
vn 0.974900 0.222000 0.014700
vn -0.019200 -0.900100 0.435100
vn -0.720600 -0.661300 0.208100
vn -0.784100 -0.568700 0.248800
vn -0.558900 -0.753500 0.346000
vn -0.418400 -0.679700 0.602400
vn -0.899700 -0.021100 0.436000
vn -0.982000 0.045700 0.183200
vn -0.995000 -0.058800 0.080700
vn -0.924300 -0.363100 0.117500
vn -0.991600 -0.108600 -0.069900
vn -0.614600 -0.687100 0.387500
vn 0.389000 -0.637300 0.665200
vn 0.567000 -0.493800 0.659200
vn 0.969800 0.218400 -0.108800
vn 0.725600 -0.275600 0.630500
vn 0.504700 0.136400 0.852400
vn 0.742700 0.532800 -0.405600
vn 0.676800 0.421700 -0.603400
vn 0.772500 0.605800 -0.190100
vn 0.566100 0.477000 -0.672300
vn 0.442000 0.679200 -0.585900
vn 0.481500 0.611000 -0.628300
vn 0.464400 0.882100 -0.079000
vn 0.443000 0.498100 0.745400
vn -0.212300 -0.479600 0.851400
vn 0.128100 -0.208700 0.969500
vn 0.461800 -0.337800 0.820100
vn 0.574900 0.476800 0.664900
vn 0.179900 0.978400 -0.101900
vn 0.678200 0.512700 0.526400
vn 0.072200 0.996900 -0.031400
vn -0.177400 0.983600 0.030500
vn -0.594000 0.379300 -0.709500
vn -0.097800 0.609100 -0.787000
vn -0.437200 -0.014100 -0.899200
vn -0.027200 -0.543800 -0.838700
vn 0.717500 0.141600 -0.682000
vn 0.769100 -0.286700 0.571200
vn 0.500900 -0.865400 0.009700
vn 0.354400 -0.847400 0.395200
vn -0.032600 -0.699000 0.714300
vn 0.230000 -0.874800 0.426300
vn -0.323100 -0.697600 0.639500
vn 0.104700 -0.906400 0.409200
vn 0.905700 -0.146000 0.397800
vn -0.503300 -0.697500 0.510000
vn -0.354200 -0.875100 0.329500
vn -0.563400 -0.575700 0.592600
vn -0.901800 -0.391900 0.182000
vn -0.672100 -0.532400 0.514500
vn 0.012200 -0.592300 0.805600
vn -0.400100 -0.684400 0.609500
vn -0.930000 -0.327000 0.167800
vn -0.973400 0.014200 -0.228600
vn -0.967200 -0.253900 -0.006700
vn -0.668300 0.182300 -0.721200
vn 0.215800 0.452900 -0.865000
vn 0.125800 0.453700 -0.882200
vn -0.718000 0.536200 -0.443600
vn -0.114000 0.822600 -0.557000
vn -0.509000 0.542700 -0.668100
vn -0.816400 0.563100 0.127700
vn -0.587400 0.807100 -0.059200
vn -0.235700 0.909500 -0.342400
vn -0.558000 0.684900 -0.468600
vn -0.502200 0.860500 0.086100
vn -0.103000 0.961200 0.255700
vn -0.373500 0.927500 -0.011300
vn -0.676300 0.641900 0.361200
vn -0.357000 0.823600 0.440600
vn -0.492600 0.161600 0.855100
vn -0.021200 0.780300 0.625000
vn -0.226200 -0.034100 0.973500
vn 0.087400 0.667500 0.739400
vn 0.034600 0.974400 0.222100
vn -0.025900 0.980500 0.194800
vn 0.076800 0.989900 0.119400
vn 0.046300 0.993700 0.102300
vn 0.448500 0.876000 -0.177400
vn -0.143600 0.971900 -0.186300
vn -0.136400 0.981000 0.137900
vn -0.179900 0.734600 -0.654200
vn -0.110800 0.677100 -0.727500
vn -0.052400 0.902600 -0.427200
vn 0.713400 0.524600 -0.464600
vn -0.129600 0.973700 -0.187400
vn 0.728200 0.683800 0.046000
vn 0.678700 0.261400 -0.686300
vn 0.057800 0.831400 -0.552600
vn 0.987500 -0.064900 -0.143500
vn 0.161900 -0.394300 0.904600
vn 0.815800 -0.027600 0.577700
vn 0.183000 -0.028900 0.982700
vn 0.961700 -0.047600 0.269700
vn 0.769700 -0.414900 0.485100
vn -0.147300 -0.052800 0.987700
vn -0.307400 -0.172900 0.935700
vn -0.419600 -0.039900 0.906800
vn -0.746100 -0.033700 0.665000
vn -0.811400 0.035900 0.583400
vn -0.825900 -0.560300 0.063000
vn -0.746800 -0.289700 0.598600
vn -0.043800 -0.461200 0.886200
vn -0.993100 0.114500 0.023900
vn -0.992700 0.118900 0.020100
vn -0.801100 0.596900 0.041900
vn -0.977200 0.017300 -0.211600
vn -0.900900 0.433700 -0.016100
vn -0.822200 0.569100 -0.007600
vn -0.077600 0.989800 -0.119200
vn -0.654300 0.660700 -0.367900
vn -0.666400 0.519000 -0.535300
vn -0.760400 0.523900 -0.383800
vn -0.687400 0.717500 -0.112500
vn -0.531200 0.846300 0.038100
vn -0.996800 0.077600 -0.019100
vn -0.625400 0.415200 -0.660600
vn -0.078300 0.988600 0.128900
vn -0.789100 -0.047600 -0.612400
vn -0.085200 -0.078800 -0.993200
vn -0.052200 -0.159800 -0.985700
vn 0.421400 -0.145200 -0.895100
vn 0.735100 -0.120900 -0.667000
vn 0.599600 -0.759900 -0.250900
vn -0.314000 -0.920400 -0.232700
vn -0.325700 -0.303400 0.895400
vn -0.716900 -0.681100 -0.148900
vn -0.860400 -0.085100 -0.502400
vn -0.070800 0.762600 0.642900
vn 0.077200 0.451800 0.888800
vn -0.373300 -0.433000 0.820400
vn -0.246200 0.002400 0.969200
vn 0.165300 0.266200 0.949600
vn 0.423400 0.042200 0.904900
vn 0.488000 -0.538900 0.686600
vn 0.278800 -0.090500 0.956100
vn 0.463900 -0.483700 0.742100
vn 0.270000 -0.154300 0.950400
vn 0.856900 -0.246900 0.452400
vn 0.739500 -0.666300 -0.095200
vn 0.992700 0.095600 0.073600
vn 0.745300 0.542500 0.387600
vn 0.217800 0.842000 0.493500
vn 0.816500 0.566900 0.109000
vn 0.963100 -0.144300 -0.227200
vn 0.809600 -0.483200 -0.333000
vn 0.564600 -0.669700 -0.482300
vn 0.125200 -0.991100 -0.043900
vn 0.789000 -0.606900 0.095700
vn 0.931500 0.348400 -0.104200
vn 0.483400 0.868600 -0.108500
vn 0.137000 0.949100 0.283600
vn -0.149600 0.943000 -0.297200
vn -0.572000 0.776500 0.264200
vn 0.986400 0.139300 -0.087000
vn 0.567200 0.586900 -0.577700
vn 0.232600 0.484000 -0.843500
vn -0.192600 0.643800 -0.740500
vn -0.771600 0.536900 -0.340900
vn -0.988800 0.149200 0.007000
vn -0.785100 -0.531100 -0.318500
vn 0.225400 -0.351400 -0.908700
vn 0.623400 -0.462800 -0.630200
vn 0.680700 -0.730300 0.056300
vn 0.291100 -0.725300 -0.623800
vn -0.243500 -0.865000 -0.438600
vn -0.994400 -0.006900 -0.105800
vn -0.696900 -0.717000 0.010400
vn -0.151600 0.355700 -0.922200
vn -0.771800 0.584600 -0.250300
vn -0.704900 0.485100 -0.517500
vn -0.685500 -0.338600 0.644500
vn -0.953200 -0.103600 0.283800
vn -0.797300 -0.066900 0.599900
vn -0.895200 0.396300 -0.203700
vn -0.815700 -0.381500 0.434800
vn 0.304500 0.056000 -0.950800
vn -0.818300 0.224900 -0.528900
vn 0.163300 -0.983100 -0.082200
vn 0.907300 -0.241100 0.344600
vn 0.965500 0.089200 -0.244500
vn 0.896300 0.321200 -0.305600
vn -0.891300 0.433900 -0.131400
vn 0.612300 -0.718600 0.329600
vn 0.552200 -0.700700 -0.451700
vn 0.898000 0.357000 -0.257200
vn 0.590500 0.773800 -0.229000
vn -0.496600 0.857200 0.135900
vn -0.313100 0.449700 -0.836500
vn -0.319600 0.215200 -0.922800
vn 0.059800 -0.942700 -0.328100
vn 0.406600 -0.564800 0.718100
vn 0.785900 -0.405800 0.466500
vn 0.183600 -0.678100 0.711600
vn -0.473700 -0.615600 0.629700
vn -0.167800 -0.539700 0.824900
vn -0.269300 -0.726900 0.631700
vn 0.244100 -0.863100 0.442100
vn -0.712900 -0.698400 -0.063000
vn -0.497500 0.436700 -0.749500
vn 0.641300 -0.767100 -0.015500
vn 0.956100 -0.217800 0.196200
vn 0.760800 0.533200 0.369900
vn 0.833300 0.243300 -0.496400
vn -0.194100 -0.398400 0.896400
vn -0.262400 0.145700 0.953900
vn 0.557100 -0.826600 -0.079300
vn 0.569100 -0.802800 0.177600
vn -0.799600 -0.562500 0.210300
vn -0.684600 -0.469600 0.557500
vn 0.344700 -0.736000 0.582600
vn -0.533600 -0.268700 0.801800
vn 0.505800 -0.170400 0.845600
vn 0.914400 -0.227100 0.335100
vn 0.404700 0.341300 0.848400
vn 0.728000 0.589400 0.350100
vn -0.768200 0.134600 0.625800
vn -0.565900 0.633900 0.527100
vn 0.804700 0.584100 -0.106100
vn 0.909800 0.102000 -0.402200
vn 0.480800 0.785300 -0.389900
vn -0.648900 0.748900 -0.134100
vn 0.646300 -0.209100 -0.733900
vn 0.660900 -0.064600 -0.747600
vn -0.311600 -0.886100 -0.343100
vn -0.085900 -0.991900 -0.093900
vn -0.498000 -0.528300 -0.687600
vn 0.017700 -0.823000 -0.567700
vn 0.017000 -0.999600 -0.021700
vn -0.510100 -0.846700 0.151200
vn -0.514800 -0.850500 -0.108000
vn -0.641900 -0.615400 0.457400
vn -0.478000 -0.656400 0.583600
vn -0.297400 -0.951100 0.083400
vn -0.224300 -0.972000 0.070100
vn 0.769400 -0.585500 -0.255300
vn -0.437800 -0.813900 -0.381900
vn 0.622200 -0.685800 -0.377600
vn 0.937100 -0.141800 -0.318800
vn 0.928900 -0.251900 -0.271500
vn 0.768400 0.627000 0.127800
vn -0.866600 0.492400 -0.081100
vn -0.656500 0.523700 0.542900
vn -0.750400 -0.604700 -0.267000
vn -0.799600 0.543600 -0.254900
vn 0.490000 0.718200 -0.494100
vn 0.407000 0.660200 -0.631200
vn 0.746800 0.457400 -0.482700
vn -0.716500 0.298400 -0.630500
vn 0.121200 0.592900 -0.796100
vn 0.031600 0.786300 -0.617000
vn 0.380400 0.732500 -0.564600
vn -0.148100 -0.577800 -0.802600
vn -0.705000 0.247800 -0.664500
vn 0.365800 0.796600 -0.481200
vn -0.764200 0.340100 -0.548000
vn -0.168300 0.955700 -0.241600
vn -0.811000 0.246300 -0.530600
vn -0.373600 0.916600 0.142000
vn 0.197000 0.979700 -0.036700
vn 0.622100 0.683500 -0.381900
vn 0.664800 0.360000 -0.654600
vn 0.221700 0.773600 -0.593600
vn 0.638200 -0.648100 -0.415600
vn 0.743800 0.096700 0.661300
vn 0.495200 0.801000 0.336400
vn 0.775800 0.163400 0.609400
vn 0.625900 0.599000 -0.499400
vn 0.223500 0.808000 0.545100
vn -0.042800 0.920300 0.388800
vn -0.742900 0.146400 -0.653200
vn -0.516600 -0.766400 -0.381600
vn -0.882600 -0.446400 0.147500
vn -0.787200 -0.616600 -0.007700
vn -0.084300 -0.991800 -0.096000
vn 0.017200 0.494100 -0.869200
vn 0.302200 -0.675600 -0.672400
vn 0.742200 -0.651500 -0.156700
vn 0.431200 -0.840300 0.328400
vn -0.413100 -0.609900 -0.676300
vn 0.975900 0.147500 0.161000
vn 0.619300 0.713900 -0.326800
vn 0.825100 -0.261400 0.500800
vn 0.891300 -0.256600 0.373800
vn 0.978600 -0.117400 0.168700
vn 0.262600 -0.908200 0.325900
vn 0.404200 -0.525000 0.749000
vn 0.020400 0.979900 0.198500
vn 0.366400 -0.070700 0.927700
vn -0.753000 -0.463700 -0.466900
vn -0.055800 -0.728800 -0.682400
vn 0.810600 -0.508000 0.291100
s 1
f 5/1/1 10/2/2 25/3/3
f 18/4/4 28/5/5 10/2/2
f 14/6/6 5/1/1 12/7/7
f 14/6/6 6/8/8 18/4/4
f 14/6/6 18/4/4 10/2/2
f 18/4/4 6/8/8 11/9/9
f 11/9/9 6/8/8 32/10/10
f 6/8/8 20/11/11 32/10/10
f 32/10/10 20/11/11 26/12/12
f 34/13/13 33/14/14 35/15/15
f 34/13/13 20/11/11 19/16/16
f 34/13/13 35/15/15 26/12/12
f 26/12/12 24/17/17 17/18/18
f 24/17/17 36/19/19 30/20/20
f 17/18/18 32/10/10 26/12/12
f 17/18/18 11/9/9 32/10/10
f 17/18/18 27/21/21 11/9/9
f 18/4/4 29/22/22 28/5/5
f 29/22/22 18/4/4 11/9/9
f 27/21/21 7/23/23 15/24/24
f 9/25/25 16/26/26 13/27/27
f 16/26/26 8/28/28 3/29/29
f 15/24/24 7/23/23 8/28/28
f 16/26/26 9/25/25 4/30/30
f 4/30/30 28/5/5 29/22/22
f 1/31/31 14/6/6 12/7/7
f 14/6/6 1/31/31 6/8/8
f 19/16/16 20/11/11 6/8/8
f 35/15/15 36/19/19 24/17/17
f 30/20/20 36/19/19 37/32/32
f 30/20/20 21/33/33 17/18/18
f 7/23/23 27/21/21 17/18/18
f 7/23/23 21/33/33 23/34/34
f 2/35/35 38/36/36 41/37/37
f 40/38/38 9/39/25 2/35/35
f 2/40/35 13/27/27 38/41/36
f 3/29/29 38/41/36 13/27/27
f 3/29/29 39/42/39 38/41/36
f 3/29/29 8/28/28 23/34/34
f 9/39/25 40/38/38 42/43/40
f 42/43/40 31/44/41 28/5/5
f 31/44/41 25/3/3 10/2/2
f 33/14/14 37/32/32 35/15/15
f 37/32/32 36/19/19 35/15/15
f 25/45/3 31/46/41 40/47/38
f 22/48/42 25/49/3 33/50/14
f 22/48/42 34/51/13 19/52/16
f 1/53/31 12/54/7 5/55/1
f 44/56/43 337/57/44 56/58/45
f 44/56/43 56/58/45 174/59/46
f 56/58/45 206/60/47 251/61/48
f 174/62/46 251/63/48 208/64/49
f 173/65/50 59/66/51 208/67/49
f 59/66/51 67/68/52 212/69/53
f 67/68/52 59/66/51 385/70/54
f 59/66/51 47/71/55 381/72/56
f 381/72/56 51/73/57 63/74/58
f 381/72/56 420/75/59 334/76/60
f 420/75/59 381/72/56 47/71/55
f 332/77/61 47/71/55 169/78/62
f 47/71/55 59/66/51 173/65/50
f 173/79/50 55/80/63 43/81/64
f 43/81/64 330/82/65 349/83/66
f 43/81/64 55/80/63 336/84/67
f 336/84/67 55/80/63 144/85/68
f 144/85/68 55/80/63 206/86/47
f 206/86/47 55/80/63 173/79/50
f 56/58/45 339/87/69 145/88/70
f 145/88/70 239/89/71 206/60/47
f 145/88/70 341/90/72 153/91/73
f 507/92/74 508/93/75 157/94/76
f 153/91/73 243/95/77 239/89/71
f 152/96/78 144/85/68 239/97/71
f 340/98/79 338/99/80 144/85/68
f 148/100/81 154/101/82 241/102/83
f 154/101/82 148/100/81 338/99/80
f 148/100/81 123/103/84 336/84/67
f 111/104/85 330/82/65 336/84/67
f 111/104/85 179/105/86 349/83/66
f 115/106/87 332/77/61 349/107/66
f 332/77/61 115/106/87 406/108/88
f 406/108/88 410/109/89 119/110/90
f 410/109/89 265/111/91 116/112/92
f 406/108/88 115/106/87 265/111/91
f 115/106/87 179/113/86 277/114/93
f 179/105/86 111/104/85 263/115/94
f 123/103/84 279/116/95 269/117/96
f 263/115/94 111/104/85 123/103/84
f 263/115/94 269/117/96 124/118/97
f 124/118/97 269/117/96 279/116/95
f 270/119/98 279/120/95 125/121/99
f 279/120/95 270/119/98 126/122/100
f 270/119/98 264/123/101 114/124/102
f 125/121/99 113/125/103 264/123/101
f 113/125/103 177/126/104 276/127/105
f 331/128/106 348/129/107 177/126/104
f 177/130/104 348/131/107 333/132/108
f 333/132/108 348/131/107 170/133/109
f 44/56/43 331/128/106 337/57/44
f 331/128/106 44/56/43 170/134/109
f 337/57/44 125/121/99 150/135/110
f 337/57/44 331/128/106 113/125/103
f 125/121/99 279/120/95 150/135/110
f 279/120/95 241/136/83 150/135/110
f 241/136/83 244/137/111 150/135/110
f 150/135/110 244/137/111 155/138/112
f 501/139/113 159/140/114 511/141/115
f 155/138/112 244/137/111 504/142/116
f 244/143/111 241/102/83 154/101/82
f 502/144/117 158/145/118 246/146/119
f 162/147/120 248/148/121 246/146/119
f 248/149/121 163/150/122 159/140/114
f 495/151/123 250/152/124 165/153/125
f 165/153/125 347/154/126 498/155/127
f 481/156/128 478/157/129 395/158/130
f 395/158/130 450/159/131 168/160/132
f 478/157/129 479/161/133 450/159/131
f 168/160/132 450/159/131 408/162/134
f 494/163/135 164/164/136 250/165/124
f 494/163/135 162/166/120 344/167/137
f 162/147/120 158/145/118 342/168/138
f 344/169/137 342/168/138 156/170/139
f 506/171/140 340/98/79 152/96/78
f 157/94/76 245/172/141 505/173/142
f 505/174/142 503/175/143 152/96/78
f 245/176/141 247/177/144 160/178/145
f 500/179/146 497/180/147 344/167/137
f 477/181/148 464/182/149 456/183/150
f 157/94/76 345/184/151 161/185/152
f 247/186/144 245/172/141 157/94/76
f 347/154/126 460/187/153 499/188/154
f 481/156/128 455/189/155 461/190/156
f 166/191/157 465/192/158 456/183/150
f 465/192/158 167/193/159 408/194/134
f 408/162/134 450/159/131 479/161/133
f 483/195/160 482/196/161 456/183/150
f 345/184/151 157/94/76 343/197/162
f 509/198/163 508/93/75 153/91/73
f 509/198/163 153/91/73 341/90/72
f 511/141/115 159/140/114 343/197/162
f 163/150/122 345/184/151 343/197/162
f 502/144/117 154/101/82 340/98/79
f 339/87/69 337/57/44 150/135/110
f 339/87/69 341/90/72 145/88/70
f 339/87/69 150/135/110 155/138/112
f 337/57/44 339/87/69 56/58/45
f 241/102/83 279/116/95 123/103/84
f 60/199/164 380/200/165 48/201/166
f 48/201/166 170/133/109 174/62/46
f 380/200/165 335/202/167 419/203/168
f 419/203/168 333/132/108 48/201/166
f 405/204/169 117/205/170 333/132/108
f 409/206/171 405/204/169 121/207/172
f 409/206/171 118/208/173 266/209/174
f 266/209/174 117/205/170 405/204/169
f 276/210/105 177/130/104 117/205/170
f 266/209/174 118/208/173 178/211/175
f 178/211/175 118/208/173 305/212/176
f 404/213/177 118/214/173 409/215/171
f 418/216/178 305/217/176 118/214/173
f 379/218/179 418/216/178 307/219/180
f 379/218/179 49/220/181 305/217/176
f 49/221/181 171/222/182 314/223/183
f 45/224/184 309/225/185 303/226/186
f 45/224/184 303/226/186 314/227/183
f 303/226/186 114/124/102 178/228/175
f 114/124/102 264/123/101 276/127/105
f 309/225/185 151/229/187 126/122/100
f 126/122/100 114/124/102 303/226/186
f 151/229/187 242/230/188 230/231/189
f 230/232/189 242/233/188 149/234/190
f 242/233/188 254/235/191 183/236/192
f 184/237/193 151/229/187 313/238/194
f 184/237/193 254/239/191 242/230/188
f 254/239/191 184/237/193 188/240/195
f 317/241/196 184/237/193 313/238/194
f 317/241/196 319/242/197 188/240/195
f 321/243/198 319/242/197 185/244/199
f 321/243/198 192/245/200 188/240/195
f 192/245/200 258/246/201 256/247/202
f 256/248/202 258/249/201 191/250/203
f 191/251/203 258/252/201 260/253/204
f 258/254/201 192/255/200 196/256/205
f 323/257/206 321/258/198 189/259/207
f 323/260/206 196/256/205 192/255/200
f 189/261/207 321/243/198 185/244/199
f 189/261/207 185/244/199 255/262/208
f 255/262/208 185/244/199 181/263/209
f 319/242/197 317/241/196 181/263/209
f 146/264/210 313/238/194 57/265/211
f 181/263/209 317/241/196 313/238/194
f 181/263/209 146/264/210 240/266/212
f 146/264/210 57/265/211 207/267/213
f 57/265/211 175/268/214 252/269/215
f 45/224/184 57/265/211 309/225/185
f 45/224/184 171/270/182 175/268/214
f 171/222/182 49/221/181 61/271/216
f 383/272/217 379/218/179 53/273/218
f 383/272/217 61/274/216 49/220/181
f 383/272/217 397/275/219 95/276/220
f 95/276/220 222/277/221 209/278/222
f 209/279/222 252/280/215 175/281/214
f 209/282/222 62/283/223 176/284/224
f 62/285/223 209/286/222 222/287/221
f 222/287/221 224/288/225 100/289/226
f 512/290/227 103/291/228 519/292/229
f 224/293/225 222/277/221 95/276/220
f 95/276/220 397/275/219 399/294/230
f 397/275/219 97/295/231 101/296/232
f 383/272/217 53/273/218 65/297/233
f 65/297/233 97/295/231 397/275/219
f 65/297/233 328/298/234 211/299/235
f 211/299/235 223/300/236 97/295/231
f 223/300/236 225/301/237 101/296/232
f 514/302/238 225/301/237 521/303/239
f 514/302/238 513/304/240 101/296/232
f 513/304/240 515/305/241 399/294/230
f 401/306/242 103/291/228 512/290/227
f 107/307/243 403/308/244 411/309/245
f 403/308/244 107/307/243 103/291/228
f 519/310/229 517/311/246 224/288/225
f 103/312/228 107/313/243 228/314/247
f 107/313/243 411/315/245 281/316/248
f 107/313/243 281/316/248 294/317/249
f 281/316/248 369/318/250 371/319/251
f 369/318/250 281/316/248 372/320/252
f 281/316/248 411/315/245 429/321/253
f 411/309/245 283/322/254 373/323/255
f 359/324/256 423/325/257 429/326/253
f 423/327/257 357/328/258 372/320/252
f 427/329/259 360/330/260 365/331/261
f 427/332/259 365/333/261 357/328/258
f 365/333/261 362/334/262 356/335/263
f 362/336/262 425/337/264 426/338/265
f 425/337/264 360/330/260 361/339/266
f 362/336/262 365/331/261 360/330/260
f 361/340/266 364/341/267 363/342/268
f 364/341/267 361/340/266 360/343/260
f 364/344/267 427/345/259 423/325/257
f 359/324/256 358/346/269 363/347/268
f 376/348/270 375/349/271 358/346/269
f 359/324/256 373/323/255 376/348/270
f 373/323/255 283/322/254 368/350/272
f 287/351/273 413/352/274 375/349/271
f 375/349/271 376/348/270 368/350/272
f 368/350/272 370/353/275 297/354/276
f 283/322/254 295/355/277 370/353/275
f 370/353/275 295/355/277 282/356/278
f 282/356/278 295/355/277 229/357/279
f 295/355/277 283/322/254 109/358/280
f 109/358/280 283/322/254 411/309/245
f 109/358/280 403/308/244 401/306/242
f 105/359/281 227/360/282 229/357/279
f 227/360/282 106/361/283 110/362/284
f 428/363/285 108/364/286 280/365/287
f 520/366/288 518/367/289 400/368/290
f 98/369/291 396/370/292 398/371/293
f 396/370/292 96/372/294 100/289/226
f 382/373/295 62/285/223 96/372/294
f 382/373/295 378/374/296 50/375/297
f 382/373/295 66/376/298 54/377/299
f 66/376/298 382/373/295 396/370/292
f 98/369/291 223/300/236 211/299/235
f 211/299/235 328/298/234 310/378/300
f 310/378/300 306/379/301 54/377/299
f 310/378/300 127/380/302 120/381/303
f 407/382/304 417/383/305 306/379/301
f 378/374/296 54/377/299 306/379/301
f 417/383/305 304/384/306 50/375/297
f 407/382/304 410/385/89 116/386/92
f 116/386/92 304/384/306 417/383/305
f 304/387/306 116/112/92 180/388/307
f 265/111/91 277/114/93 180/388/307
f 277/389/93 263/115/94 112/390/308
f 112/390/308 302/391/309 315/392/310
f 112/390/308 124/118/97 308/393/311
f 308/393/311 124/118/97 149/234/190
f 312/394/312 149/234/190 183/236/192
f 316/395/313 183/236/192 187/396/314
f 187/396/314 183/236/192 254/235/191
f 187/396/314 191/250/203 320/397/315
f 320/398/315 191/251/203 195/399/316
f 195/399/316 199/400/317 324/401/318
f 195/399/316 260/253/204 467/402/319
f 203/403/320 452/404/321 447/405/322
f 492/406/323 467/407/319 200/408/324
f 489/409/325 453/410/326 447/405/322
f 489/409/325 488/411/327 448/412/328
f 491/413/329 448/412/328 488/411/327
f 193/414/330 323/260/206 189/259/207
f 193/414/330 197/415/331 325/416/332
f 261/417/333 259/418/334 194/419/335
f 261/417/333 197/415/331 193/414/330
f 193/414/330 189/259/207 257/420/336
f 190/421/337 194/419/335 259/418/334
f 194/419/335 190/421/337 320/398/315
f 186/422/338 318/423/339 320/397/315
f 186/422/338 182/424/340 316/395/313
f 147/425/341 312/394/312 316/395/313
f 147/425/341 58/426/342 308/393/311
f 46/427/343 302/391/309 308/393/311
f 46/427/343 172/428/344 315/392/310
f 50/429/297 304/387/306 315/430/310
f 172/431/344 176/284/224 62/283/223
f 46/427/343 58/426/342 176/432/224
f 207/267/213 252/433/215 176/432/224
f 147/425/341 240/266/212 207/267/213
f 182/424/340 253/434/345 240/266/212
f 182/424/340 186/422/338 255/262/208
f 190/435/337 257/436/336 255/262/208
f 198/437/346 261/417/333 194/419/335
f 198/437/346 194/419/335 322/438/347
f 486/181/348 490/439/349 454/440/350
f 485/195/351 446/194/352 454/440/350
f 446/194/352 202/193/353 326/192/354
f 202/441/353 446/442/352 452/404/321
f 485/443/351 199/444/317 467/407/319
f 326/445/354 327/446/355 201/447/356
f 326/445/354 202/441/353 203/403/320
f 467/407/319 260/448/204 196/256/205
f 327/446/355 453/410/326 448/412/328
f 201/447/356 448/412/328 449/449/357
f 449/182/357 454/440/350 326/192/354
f 491/413/329 486/450/348 449/449/357
f 267/451/358 119/452/90 410/385/89
f 267/451/358 410/385/89 407/382/304
f 120/381/303 127/380/302 271/453/359
f 127/380/302 459/454/360 131/455/361
f 131/455/361 273/456/362 271/453/359
f 132/457/363 231/458/364 128/459/365
f 132/460/363 128/461/365 271/453/359
f 271/453/359 128/461/365 119/452/90
f 128/462/365 350/463/366 329/464/367
f 329/464/367 334/76/60 119/110/90
f 329/464/367 63/74/58 51/73/57
f 210/465/368 350/463/366 64/466/369
f 63/74/58 329/464/367 350/463/366
f 213/467/370 69/468/371 63/74/58
f 69/468/371 387/469/372 385/70/54
f 387/469/372 69/468/371 434/470/373
f 69/468/371 213/467/370 437/471/374
f 213/467/370 70/472/375 435/473/376
f 435/473/376 74/474/377 215/475/378
f 73/476/379 434/470/373 437/471/374
f 73/476/379 389/477/380 439/478/381
f 389/477/380 71/479/382 433/480/383
f 391/481/384 75/482/385 71/479/382
f 75/483/385 79/484/386 216/485/387
f 214/486/388 71/479/382 75/482/385
f 214/486/388 438/487/389 433/480/383
f 438/487/389 212/69/53 67/68/52
f 433/480/383 67/68/52 387/469/372
f 436/488/390 68/489/391 212/490/53
f 68/489/391 384/491/392 60/199/164
f 60/199/164 208/64/49 212/490/53
f 60/199/164 384/491/392 380/200/165
f 380/200/165 384/491/392 52/492/393
f 52/492/393 384/491/392 64/466/369
f 384/491/392 68/489/391 386/493/394
f 386/493/394 70/472/375 64/466/369
f 386/493/394 440/494/395 435/473/376
f 386/493/394 68/489/391 436/488/390
f 436/488/390 72/495/396 388/496/397
f 72/495/396 436/488/390 438/497/389
f 80/498/398 442/499/399 76/500/400
f 392/501/401 390/502/402 444/503/403
f 200/408/324 196/256/205 323/260/206
f 76/500/400 442/499/399 444/503/403
f 84/504/404 394/505/405 392/506/401
f 441/507/406 445/508/407 442/509/399
f 80/510/398 392/511/401 443/512/408
f 81/513/409 83/514/410 393/515/411
f 81/513/409 393/515/411 391/516/384
f 79/484/386 393/515/411 83/514/410
f 393/515/411 79/484/386 75/483/385
f 83/514/410 84/504/404 80/498/398
f 394/505/405 84/504/404 88/517/412
f 85/518/413 83/519/410 81/520/409
f 85/518/413 89/521/414 87/522/415
f 87/523/415 88/517/412 84/504/404
f 87/524/415 91/525/416 92/526/417
f 93/527/418 221/528/419 91/529/416
f 91/529/416 87/530/415 89/531/414
f 89/531/414 220/532/420 221/528/419
f 220/533/420 89/521/414 85/518/413
f 85/518/413 81/520/409 218/534/421
f 81/520/409 77/535/422 217/536/423
f 77/537/422 73/476/379 215/475/378
f 391/481/384 389/477/380 73/476/379
f 74/474/377 78/538/424 217/539/423
f 78/540/424 82/541/425 218/534/421
f 82/541/425 86/542/426 219/543/427
f 90/544/428 220/533/420 219/543/427
f 90/545/428 94/546/429 221/528/419
f 92/526/417 91/525/416 221/547/419
f 90/545/428 88/548/412 92/549/417
f 86/542/426 394/550/405 88/551/412
f 86/542/426 82/541/425 392/501/401
f 388/496/397 390/552/402 78/538/424
f 74/474/377 435/473/376 440/494/395
f 70/472/375 213/467/370 210/465/368
f 64/466/369 350/463/366 52/492/393
f 231/553/364 350/463/366 128/462/365
f 231/553/364 121/207/172 335/202/167
f 52/492/393 335/202/167 380/200/165
f 350/463/366 231/553/364 335/202/167
f 121/207/172 405/204/169 419/203/168
f 121/554/172 231/458/364 130/555/430
f 130/555/430 231/458/364 233/556/431
f 233/557/431 140/558/432 236/559/433
f 233/556/431 231/458/364 132/457/363
f 140/560/432 132/460/363 273/456/362
f 131/455/361 137/561/434 275/562/435
f 138/563/436 143/564/437 470/565/438
f 469/42/439 136/566/440 468/41/441
f 470/565/438 143/564/437 136/566/440
f 235/567/442 468/41/441 136/566/440
f 136/566/440 143/564/437 238/568/443
f 135/569/444 468/41/441 235/567/442
f 235/567/442 238/568/443 142/570/445
f 135/571/444 472/572/446 468/573/441
f 135/571/444 142/574/445 471/575/447
f 430/576/448 262/577/449 205/578/450
f 430/576/448 205/578/450 278/579/451
f 140/558/432 275/580/435 278/579/451
f 262/577/449 139/581/452 236/559/433
f 236/559/433 140/558/432 205/578/450
f 236/559/433 139/581/452 134/582/453
f 458/13/454 139/581/452 457/14/455
f 274/583/456 272/584/457 134/585/453
f 274/16/456 134/582/453 139/581/452
f 134/585/453 272/584/457 268/586/458
f 272/584/457 133/587/459 268/586/458
f 268/586/458 133/587/459 129/588/460
f 129/588/460 133/587/459 234/589/461
f 274/583/456 133/587/459 272/584/457
f 234/590/461 232/591/462 129/588/460
f 129/588/460 232/591/462 307/219/180
f 307/219/180 232/591/462 311/592/463
f 311/592/463 232/591/462 328/298/234
f 232/591/462 459/454/360 328/298/234
f 459/454/360 127/380/302 310/378/300
f 459/454/360 232/591/462 131/455/361
f 232/591/462 234/589/461 137/561/434
f 311/592/463 328/298/234 53/273/218
f 53/273/218 328/298/234 65/297/233
f 311/592/463 53/273/218 307/219/180
f 53/273/218 379/218/179 307/219/180
f 307/219/180 122/593/464 129/588/460
f 122/593/464 268/586/458 129/588/460
f 268/586/458 409/215/171 121/554/172
f 122/593/464 404/213/177 409/215/171
f 122/593/464 307/219/180 418/216/178
f 121/554/172 130/555/430 268/586/458
f 130/555/430 134/585/453 268/586/458
f 134/585/453 130/555/430 233/556/431
f 134/582/453 233/557/431 236/559/433
f 139/581/452 204/594/465 457/14/455
f 204/594/465 473/32/466 457/14/455
f 473/32/466 204/594/465 431/595/467
f 262/577/449 430/576/448 432/596/468
f 204/594/465 139/581/452 262/577/449
f 204/594/465 262/577/449 432/596/468
f 431/595/467 432/596/468 237/597/469
f 432/596/468 430/576/448 141/598/470
f 141/598/470 430/576/448 476/599/471
f 141/598/470 475/600/472 471/575/447
f 238/568/443 237/597/469 141/598/470
f 237/597/469 238/568/443 143/564/437
f 431/595/467 138/563/436 474/601/473
f 420/75/59 406/108/88 119/110/90
f 98/369/291 102/602/474 225/301/237
f 518/367/289 516/603/475 104/604/476
f 516/603/475 100/289/226 224/288/225
f 226/605/477 228/314/247 108/364/286
f 228/314/247 294/317/249 280/365/287
f 402/606/478 366/607/479 284/608/480
f 293/609/481 352/610/482 412/611/483
f 280/365/287 294/317/249 371/319/251
f 296/612/484 284/608/480 366/607/479
f 416/613/485 284/608/480 288/614/486
f 414/615/487 288/614/486 351/616/488
f 288/614/486 284/608/480 296/612/484
f 298/617/489 296/612/484 285/618/490
f 296/612/484 371/319/251 369/318/250
f 285/618/490 374/619/491 413/620/274
f 374/619/491 377/621/492 356/335/263
f 374/619/491 285/618/490 369/318/250
f 377/621/492 372/320/252 357/328/258
f 424/622/493 413/620/274 374/619/491
f 424/623/493 358/346/269 375/349/271
f 424/623/493 426/624/265 363/347/268
f 356/335/263 362/334/262 426/625/265
f 363/342/268 426/626/265 425/627/264
f 413/620/274 415/628/494 289/629/495
f 422/630/496 292/631/497 354/632/498
f 354/633/498 289/629/495 415/628/494
f 300/634/499 354/632/498 292/631/497
f 300/635/499 298/617/489 289/629/495
f 300/634/499 293/636/481 351/637/488
f 351/616/488 288/614/486 298/617/489
f 282/356/278 421/638/500 402/606/478
f 421/638/500 280/365/287 366/607/479
f 352/639/482 290/640/501 414/615/487
f 367/641/502 402/606/478 416/613/485
f 110/362/284 428/363/285 421/638/500
f 106/361/283 400/368/290 428/363/285
f 286/642/503 416/613/485 414/615/487
f 351/637/488 293/636/481 412/643/483
f 297/354/276 370/353/275 367/641/502
f 297/354/276 286/642/503 290/640/501
f 299/644/504 290/640/501 352/645/482
f 301/646/505 293/636/481 300/634/499
f 301/647/505 355/648/506 352/649/482
f 353/650/507 292/651/497 422/652/496
f 301/646/505 300/634/499 292/631/497
f 353/650/507 355/648/506 301/647/505
f 291/653/508 299/644/504 355/654/506
f 287/351/273 297/354/276 299/644/504
f 291/653/508 415/655/494 413/352/274
f 415/655/494 291/653/508 353/656/507
f 57/265/211 313/238/194 309/225/185
f 309/225/185 313/238/194 151/229/187
f 72/495/396 214/657/388 216/658/387
f 72/495/396 76/659/400 390/552/402
f 79/484/386 80/498/398 76/500/400
f 390/502/402 392/501/401 82/541/425
f 443/660/408 462/661/509 445/508/407
f 444/662/403 462/661/509 443/660/408
f 444/662/403 442/509/399 445/508/407
f 447/405/322 453/410/326 327/446/355
f 249/663/510 463/664/511 500/179/146
f 477/665/148 463/666/511 249/663/510
f 461/190/156 166/667/157 451/668/512
f 480/669/513 249/663/510 460/187/153
f 499/188/154 496/670/514 247/671/144
f 455/189/155 466/672/515 166/667/157
f 465/673/158 166/667/157 466/672/515
f 465/673/158 466/672/515 168/160/132
f 455/189/155 395/158/130 168/160/132
f 464/674/149 451/668/512 166/667/157
f 400/368/290 104/604/476 108/364/286
f 400/368/290 106/361/283 521/303/239
f 66/376/298 211/299/235 310/378/300
f 267/451/358 120/381/303 271/453/359
f 267/451/358 271/453/359 119/452/90
f 278/675/451 473/676/466 469/677/439
f 451/668/512 480/669/513 484/678/516
f 464/674/149 477/665/148 480/669/513
f 164/679/136 346/680/517 482/196/161
f 483/681/160 479/161/133 250/152/124
f 347/154/126 481/156/128 484/678/516
f 463/682/511 477/181/148 482/196/161
f 165/153/125 250/152/124 479/161/133
f 347/154/126 165/153/125 478/157/129
f 261/417/333 198/683/346 486/450/348
f 446/442/352 485/443/351 492/406/323
f 199/679/317 485/195/351 490/439/349
f 198/682/346 324/680/318 490/439/349
f 491/413/329 488/411/327 197/415/331
f 325/416/332 197/415/331 488/411/327
f 325/416/332 489/409/325 487/684/518
f 452/404/321 492/406/323 487/684/518
f 460/187/153 249/663/510 496/670/514
f 496/670/514 500/179/146 160/685/145
f 498/155/127 499/188/154 161/686/152
f 463/664/511 346/687/517 497/180/147
f 164/164/136 494/163/135 497/180/147
f 162/166/120 494/163/135 495/688/123
f 163/689/122 493/690/519 498/155/127
f 248/691/121 495/151/123 493/690/519
f 68/489/391 60/199/164 212/490/53
f 208/67/49 59/66/51 212/69/53
f 387/469/372 67/68/52 385/70/54
f 275/692/435 458/693/454 457/694/455
f 275/692/435 137/695/434 133/696/459
f 234/697/461 133/696/459 137/695/434
f 458/693/454 275/692/435 274/698/456
f 158/145/118 502/144/117 506/171/140
f 245/176/141 156/170/139 503/175/143
f 506/171/140 503/175/143 156/170/139
f 154/101/82 502/144/117 504/699/116
f 159/140/114 501/139/113 504/142/116
f 341/90/72 511/141/115 510/700/520
f 343/197/162 509/198/163 510/700/520
f 343/197/162 157/94/76 508/93/75
f 153/91/73 508/93/75 507/92/74
f 243/95/77 507/92/74 505/173/142
f 501/139/113 511/141/115 341/90/72
f 515/305/241 512/290/227 99/701/521
f 105/359/281 401/306/242 515/305/241
f 227/360/282 105/359/281 513/304/240
f 104/604/476 516/603/475 517/311/246
f 398/371/293 100/289/226 516/603/475
f 226/605/477 517/311/246 519/310/229
f 99/701/521 512/290/227 519/292/229
f 102/602/474 520/366/288 521/303/239
f 102/602/474 398/371/293 518/367/289
f 514/302/238 521/303/239 106/361/283
f 94/702/429 92/526/417 221/547/419
f 22/703/42 5/1/1 25/3/3
f 5/1/1 14/6/6 10/2/2
f 20/11/11 34/13/13 26/12/12
f 27/21/21 29/22/22 11/9/9
f 29/22/22 27/21/21 15/24/24
f 2/40/35 9/25/25 13/27/27
f 13/27/27 16/26/26 3/29/29
f 16/26/26 15/24/24 8/28/28
f 15/24/24 16/26/26 4/30/30
f 15/24/24 4/30/30 29/22/22
f 1/31/31 19/16/16 6/8/8
f 26/12/12 35/15/15 24/17/17
f 21/33/33 30/20/20 37/32/32
f 24/17/17 30/20/20 17/18/18
f 21/33/33 7/23/23 17/18/18
f 8/28/28 7/23/23 23/34/34
f 41/37/37 40/38/38 2/35/35
f 39/42/39 3/29/29 23/34/34
f 4/30/30 9/39/25 42/43/40
f 4/30/30 42/43/40 28/5/5
f 28/5/5 31/44/41 10/2/2
f 41/704/37 38/705/36 40/47/38
f 39/706/39 23/707/34 37/708/32
f 37/708/32 33/709/14 25/45/3
f 23/707/34 21/710/33 37/708/32
f 40/47/38 38/705/36 39/706/39
f 31/46/41 42/711/40 40/47/38
f 37/708/32 25/45/3 39/706/39
f 40/47/38 39/706/39 25/45/3
f 34/51/13 22/48/42 33/50/14
f 5/55/1 22/48/42 19/52/16
f 19/52/16 1/53/31 5/55/1
f 170/134/109 44/56/43 174/59/46
f 174/59/46 56/58/45 251/61/48
f 60/199/164 174/62/46 208/64/49
f 251/712/48 173/65/50 208/67/49
f 385/70/54 59/66/51 381/72/56
f 385/70/54 381/72/56 63/74/58
f 51/73/57 381/72/56 334/76/60
f 332/77/61 420/75/59 47/71/55
f 349/107/66 332/77/61 169/78/62
f 169/78/62 47/71/55 173/65/50
f 169/713/62 173/79/50 43/81/64
f 169/713/62 43/81/64 349/83/66
f 330/82/65 43/81/64 336/84/67
f 338/99/80 336/84/67 144/85/68
f 239/97/71 144/85/68 206/86/47
f 251/714/48 206/86/47 173/79/50
f 56/58/45 145/88/70 206/60/47
f 145/88/70 153/91/73 239/89/71
f 243/715/77 152/96/78 239/97/71
f 152/96/78 340/98/79 144/85/68
f 340/98/79 154/101/82 338/99/80
f 338/99/80 148/100/81 336/84/67
f 123/103/84 111/104/85 336/84/67
f 330/82/65 111/104/85 349/83/66
f 179/113/86 115/106/87 349/107/66
f 420/75/59 332/77/61 406/108/88
f 410/109/89 406/108/88 265/111/91
f 265/111/91 115/106/87 277/114/93
f 277/389/93 179/105/86 263/115/94
f 269/117/96 263/115/94 123/103/84
f 112/390/308 263/115/94 124/118/97
f 230/232/189 124/118/97 279/116/95
f 230/231/189 279/120/95 126/122/100
f 126/122/100 270/119/98 114/124/102
f 270/119/98 125/121/99 264/123/101
f 264/123/101 113/125/103 276/127/105
f 113/125/103 331/128/106 177/126/104
f 117/205/170 177/130/104 333/132/108
f 48/201/166 333/132/108 170/133/109
f 348/129/107 331/128/106 170/134/109
f 125/121/99 337/57/44 113/125/103
f 501/139/113 155/138/112 504/142/116
f 504/699/116 502/144/117 246/146/119
f 158/145/118 162/147/120 246/146/119
f 246/716/119 248/149/121 159/140/114
f 493/690/519 495/151/123 165/153/125
f 493/690/519 165/153/125 498/155/127
f 455/189/155 481/156/128 395/158/130
f 395/158/130 478/157/129 450/159/131
f 167/717/159 168/160/132 408/162/134
f 495/688/123 494/163/135 250/165/124
f 497/180/147 494/163/135 344/167/137
f 344/169/137 162/147/120 342/168/138
f 160/178/145 344/169/137 156/170/139
f 503/175/143 506/171/140 152/96/78
f 507/92/74 157/94/76 505/173/142
f 243/715/77 505/174/142 152/96/78
f 156/170/139 245/176/141 160/178/145
f 160/685/145 500/179/146 344/167/137
f 482/196/161 477/181/148 456/183/150
f 161/185/152 247/186/144 157/94/76
f 498/155/127 347/154/126 499/188/154
f 484/678/516 481/156/128 461/190/156
f 464/182/149 166/191/157 456/183/150
f 456/183/150 465/192/158 408/194/134
f 483/681/160 408/162/134 479/161/133
f 408/194/134 483/195/160 456/183/150
f 510/700/520 509/198/163 341/90/72
f 510/700/520 511/141/115 343/197/162
f 159/140/114 163/150/122 343/197/162
f 506/171/140 502/144/117 340/98/79
f 341/90/72 339/87/69 155/138/112
f 148/100/81 241/102/83 123/103/84
f 60/199/164 48/201/166 174/62/46
f 380/200/165 419/203/168 48/201/166
f 419/203/168 405/204/169 333/132/108
f 409/206/171 266/209/174 405/204/169
f 266/209/174 276/210/105 117/205/170
f 276/210/105 266/209/174 178/211/175
f 314/223/183 178/211/175 305/212/176
f 404/213/177 418/216/178 118/214/173
f 418/216/178 379/218/179 305/217/176
f 305/212/176 49/221/181 314/223/183
f 171/270/182 45/224/184 314/227/183
f 314/227/183 303/226/186 178/228/175
f 178/228/175 114/124/102 276/127/105
f 309/225/185 126/122/100 303/226/186
f 126/122/100 151/229/187 230/231/189
f 124/118/97 230/232/189 149/234/190
f 149/234/190 242/233/188 183/236/192
f 151/229/187 184/237/193 242/230/188
f 256/247/202 254/239/191 188/240/195
f 184/237/193 317/241/196 188/240/195
f 319/242/197 321/243/198 188/240/195
f 188/240/195 192/245/200 256/247/202
f 187/396/314 256/248/202 191/250/203
f 195/399/316 191/251/203 260/253/204
f 260/448/204 258/254/201 196/256/205
f 321/718/198 323/260/206 192/255/200
f 257/719/336 189/261/207 255/262/208
f 253/434/345 255/262/208 181/263/209
f 185/244/199 319/242/197 181/263/209
f 146/264/210 181/263/209 313/238/194
f 253/434/345 181/263/209 240/266/212
f 240/266/212 146/264/210 207/267/213
f 207/267/213 57/265/211 252/269/215
f 57/265/211 45/224/184 175/268/214
f 175/281/214 171/222/182 61/271/216
f 379/218/179 383/272/217 49/220/181
f 61/274/216 383/272/217 95/276/220
f 61/274/216 95/276/220 209/278/222
f 61/271/216 209/279/222 175/281/214
f 252/720/215 209/282/222 176/284/224
f 96/372/294 62/285/223 222/287/221
f 96/372/294 222/287/221 100/289/226
f 99/701/521 224/293/225 95/276/220
f 99/701/521 95/276/220 399/294/230
f 399/294/230 397/275/219 101/296/232
f 383/272/217 65/297/233 397/275/219
f 65/297/233 211/299/235 97/295/231
f 97/295/231 223/300/236 101/296/232
f 225/301/237 514/302/238 101/296/232
f 101/296/232 513/304/240 399/294/230
f 515/305/241 401/306/242 512/290/227
f 401/306/242 403/308/244 103/291/228
f 226/605/477 103/312/228 228/314/247
f 228/314/247 107/313/243 294/317/249
f 294/317/249 281/316/248 371/319/251
f 377/621/492 369/318/250 372/320/252
f 372/320/252 281/316/248 429/321/253
f 429/326/253 411/309/245 373/323/255
f 373/323/255 359/324/256 429/326/253
f 429/321/253 423/327/257 372/320/252
f 423/327/257 427/332/259 357/328/258
f 357/328/258 365/333/261 356/335/263
f 425/337/264 362/336/262 360/330/260
f 427/721/259 364/341/267 360/343/260
f 359/324/256 364/344/267 423/325/257
f 364/344/267 359/324/256 363/347/268
f 358/346/269 359/324/256 376/348/270
f 376/348/270 373/323/255 368/350/272
f 287/351/273 375/349/271 368/350/272
f 287/351/273 368/350/272 297/354/276
f 368/350/272 283/322/254 370/353/275
f 367/641/502 370/353/275 282/356/278
f 110/362/284 282/356/278 229/357/279
f 229/357/279 295/355/277 109/358/280
f 403/308/244 109/358/280 411/309/245
f 105/359/281 109/358/280 401/306/242
f 109/358/280 105/359/281 229/357/279
f 229/357/279 227/360/282 110/362/284
f 421/638/500 428/363/285 280/365/287
f 102/602/474 98/369/291 398/371/293
f 398/371/293 396/370/292 100/289/226
f 396/370/292 382/373/295 96/372/294
f 62/285/223 382/373/295 50/375/297
f 378/374/296 382/373/295 54/377/299
f 98/369/291 66/376/298 396/370/292
f 66/376/298 98/369/291 211/299/235
f 66/376/298 310/378/300 54/377/299
f 306/379/301 310/378/300 120/381/303
f 120/381/303 407/382/304 306/379/301
f 417/383/305 378/374/296 306/379/301
f 378/374/296 417/383/305 50/375/297
f 407/382/304 116/386/92 417/383/305
f 315/430/310 304/387/306 180/388/307
f 116/112/92 265/111/91 180/388/307
f 180/722/307 277/389/93 112/390/308
f 180/722/307 112/390/308 315/392/310
f 302/391/309 112/390/308 308/393/311
f 312/394/312 308/393/311 149/234/190
f 316/395/313 312/394/312 183/236/192
f 318/423/339 316/395/313 187/396/314
f 256/248/202 187/396/314 254/235/191
f 318/423/339 187/396/314 320/397/315
f 322/438/347 320/398/315 195/399/316
f 322/438/347 195/399/316 324/401/318
f 199/400/317 195/399/316 467/402/319
f 487/684/518 492/406/323 200/408/324
f 487/684/518 489/409/325 447/405/322
f 453/410/326 489/409/325 448/412/328
f 323/260/206 193/414/330 325/416/332
f 259/418/334 261/417/333 193/414/330
f 259/418/334 193/414/330 257/420/336
f 257/420/336 190/421/337 259/418/334
f 322/438/347 194/419/335 320/398/315
f 190/435/337 186/422/338 320/397/315
f 318/423/339 186/422/338 316/395/313
f 182/424/340 147/425/341 316/395/313
f 312/394/312 147/425/341 308/393/311
f 58/426/342 46/427/343 308/393/311
f 302/391/309 46/427/343 315/392/310
f 172/431/344 50/429/297 315/430/310
f 50/429/297 172/431/344 62/283/223
f 172/428/344 46/427/343 176/432/224
f 58/426/342 207/267/213 176/432/224
f 58/426/342 147/425/341 207/267/213
f 147/425/341 182/424/340 240/266/212
f 253/434/345 182/424/340 255/262/208
f 186/422/338 190/435/337 255/262/208
f 324/401/318 198/437/346 322/438/347
f 449/182/357 486/181/348 454/440/350
f 490/439/349 485/195/351 454/440/350
f 454/440/350 446/194/352 326/192/354
f 203/403/320 202/441/353 452/404/321
f 492/406/323 485/443/351 467/407/319
f 327/446/355 326/445/354 203/403/320
f 200/408/324 467/407/319 196/256/205
f 201/447/356 327/446/355 448/412/328
f 201/191/356 449/182/357 326/192/354
f 448/412/328 491/413/329 449/449/357
f 120/381/303 267/451/358 407/382/304
f 127/380/302 131/455/361 271/453/359
f 273/456/362 132/460/363 271/453/359
f 128/462/365 329/464/367 119/110/90
f 334/76/60 329/464/367 51/73/57
f 210/465/368 63/74/58 350/463/366
f 210/465/368 213/467/370 63/74/58
f 63/74/58 69/468/371 385/70/54
f 439/478/381 387/469/372 434/470/373
f 434/470/373 69/468/371 437/471/374
f 437/471/374 213/467/370 435/473/376
f 437/471/374 435/473/376 215/475/378
f 215/475/378 73/476/379 437/471/374
f 434/470/373 73/476/379 439/478/381
f 439/478/381 389/477/380 433/480/383
f 389/477/380 391/481/384 71/479/382
f 216/723/387 214/486/388 75/482/385
f 71/479/382 214/486/388 433/480/383
f 433/480/383 438/487/389 67/68/52
f 439/478/381 433/480/383 387/469/372
f 438/497/389 436/488/390 212/490/53
f 384/491/392 386/493/394 64/466/369
f 70/472/375 386/493/394 435/473/376
f 440/494/395 386/493/394 436/488/390
f 440/494/395 436/488/390 388/496/397
f 214/657/388 72/495/396 438/497/389
f 325/416/332 200/408/324 323/260/206
f 390/502/402 76/500/400 444/503/403
f 80/498/398 84/504/404 392/506/401
f 80/510/398 441/507/406 442/509/399
f 441/507/406 80/510/398 443/512/408
f 77/724/422 81/513/409 391/516/384
f 391/516/384 393/515/411 75/483/385
f 79/484/386 83/514/410 80/498/398
f 83/519/410 85/518/413 87/522/415
f 83/514/410 87/523/415 84/504/404
f 88/725/412 87/524/415 92/526/417
f 93/527/418 91/529/416 89/531/414
f 93/527/418 89/531/414 221/528/419
f 219/543/427 220/533/420 85/518/413
f 219/543/427 85/518/413 218/534/421
f 218/534/421 81/520/409 217/536/423
f 217/539/423 77/537/422 215/475/378
f 77/537/422 391/481/384 73/476/379
f 215/475/378 74/474/377 217/539/423
f 217/536/423 78/540/424 218/534/421
f 218/534/421 82/541/425 219/543/427
f 86/542/426 90/544/428 219/543/427
f 220/532/420 90/545/428 221/528/419
f 94/546/429 90/545/428 92/549/417
f 90/544/428 86/542/426 88/551/412
f 394/550/405 86/542/426 392/501/401
f 74/474/377 388/496/397 78/538/424
f 388/496/397 74/474/377 440/494/395
f 64/466/369 70/472/375 210/465/368
f 52/492/393 350/463/366 335/202/167
f 335/202/167 121/207/172 419/203/168
f 140/726/432 233/556/431 132/457/363
f 275/562/435 140/560/432 273/456/362
f 273/456/362 131/455/361 275/562/435
f 474/601/473 138/563/436 470/565/438
f 469/42/439 470/565/438 136/566/440
f 235/567/442 136/566/440 238/568/443
f 135/569/444 235/567/442 142/570/445
f 472/572/446 135/571/444 471/575/447
f 476/599/471 430/576/448 278/579/451
f 205/578/450 140/558/432 278/579/451
f 262/577/449 236/559/433 205/578/450
f 458/13/454 274/16/456 139/581/452
f 328/298/234 459/454/360 310/378/300
f 131/455/361 232/591/462 137/561/434
f 268/586/458 122/593/464 409/215/171
f 404/213/177 122/593/464 418/216/178
f 431/595/467 204/594/465 432/596/468
f 138/563/436 431/595/467 237/597/469
f 237/597/469 432/596/468 141/598/470
f 475/600/472 141/598/470 476/599/471
f 142/574/445 141/598/470 471/575/447
f 142/570/445 238/568/443 141/598/470
f 138/563/436 237/597/469 143/564/437
f 473/32/466 431/595/467 474/601/473
f 334/76/60 420/75/59 119/110/90
f 223/300/236 98/369/291 225/301/237
f 400/368/290 518/367/289 104/604/476
f 517/311/246 516/603/475 224/288/225
f 104/604/476 226/605/477 108/364/286
f 108/364/286 228/314/247 280/365/287
f 416/613/485 402/606/478 284/608/480
f 366/607/479 280/365/287 371/319/251
f 371/319/251 296/612/484 366/607/479
f 414/615/487 416/613/485 288/614/486
f 412/727/483 414/615/487 351/616/488
f 298/617/489 288/614/486 296/612/484
f 289/629/495 298/617/489 285/618/490
f 285/618/490 296/612/484 369/318/250
f 377/621/492 374/619/491 369/318/250
f 356/335/263 377/621/492 357/328/258
f 356/335/263 424/622/493 374/619/491
f 413/352/274 424/623/493 375/349/271
f 358/346/269 424/623/493 363/347/268
f 424/622/493 356/335/263 426/625/265
f 361/340/266 363/342/268 425/627/264
f 285/618/490 413/620/274 289/629/495
f 422/728/496 354/633/498 415/628/494
f 354/633/498 300/635/499 289/629/495
f 300/635/499 351/616/488 298/617/489
f 367/641/502 282/356/278 402/606/478
f 402/606/478 421/638/500 366/607/479
f 412/727/483 352/639/482 414/615/487
f 286/642/503 367/641/502 416/613/485
f 282/356/278 110/362/284 421/638/500
f 110/362/284 106/361/283 428/363/285
f 290/640/501 286/642/503 414/615/487
f 286/642/503 297/354/276 367/641/502
f 299/644/504 297/354/276 290/640/501
f 355/654/506 299/644/504 352/645/482
f 293/729/481 301/647/505 352/649/482
f 292/651/497 353/650/507 301/647/505
f 353/656/507 291/653/508 355/654/506
f 291/653/508 287/351/273 299/644/504
f 287/351/273 291/653/508 413/352/274
f 422/730/496 415/655/494 353/656/507
f 76/659/400 72/495/396 216/658/387
f 388/496/397 72/495/396 390/552/402
f 216/485/387 79/484/386 76/500/400
f 78/540/424 390/502/402 82/541/425
f 441/731/406 443/660/408 445/508/407
f 392/732/401 444/662/403 443/660/408
f 462/661/509 444/662/403 445/508/407
f 203/403/320 447/405/322 327/446/355
f 496/670/514 249/663/510 500/179/146
f 480/669/513 477/665/148 249/663/510
f 484/678/516 480/669/513 460/187/153
f 161/686/152 499/188/154 247/671/144
f 461/190/156 455/189/155 166/667/157
f 167/717/159 465/673/158 168/160/132
f 466/672/515 455/189/155 168/160/132
f 428/363/285 400/368/290 108/364/286
f 520/366/288 400/368/290 521/303/239
f 469/677/439 468/733/441 471/734/447
f 471/734/447 475/735/472 476/736/471
f 468/733/441 472/737/446 471/734/447
f 474/738/473 470/739/438 473/676/466
f 278/675/451 457/740/455 473/676/466
f 473/676/466 470/739/438 469/677/439
f 469/677/439 471/734/447 278/675/451
f 476/736/471 278/675/451 471/734/447
f 461/190/156 451/668/512 484/678/516
f 451/668/512 464/674/149 480/669/513
f 483/195/160 164/679/136 482/196/161
f 164/741/136 483/681/160 250/152/124
f 460/187/153 347/154/126 484/678/516
f 346/680/517 463/682/511 482/196/161
f 478/157/129 165/153/125 479/161/133
f 481/156/128 347/154/126 478/157/129
f 491/413/329 261/417/333 486/450/348
f 452/404/321 446/442/352 492/406/323
f 324/680/318 199/679/317 490/439/349
f 486/181/348 198/682/346 490/439/349
f 261/417/333 491/413/329 197/415/331
f 489/409/325 325/416/332 488/411/327
f 200/408/324 325/416/332 487/684/518
f 447/405/322 452/404/321 487/684/518
f 499/188/154 460/187/153 496/670/514
f 247/671/144 496/670/514 160/685/145
f 345/742/151 498/155/127 161/686/152
f 500/179/146 463/664/511 497/180/147
f 346/687/517 164/164/136 497/180/147
f 248/743/121 162/166/120 495/688/123
f 345/742/151 163/689/122 498/155/127
f 163/689/122 248/691/121 493/690/519
f 278/744/451 275/692/435 457/694/455
f 274/698/456 275/692/435 133/696/459
f 342/168/138 158/145/118 506/171/140
f 505/174/142 245/176/141 503/175/143
f 342/168/138 506/171/140 156/170/139
f 244/143/111 154/101/82 504/699/116
f 246/716/119 159/140/114 504/142/116
f 509/198/163 343/197/162 508/93/75
f 243/95/77 153/91/73 507/92/74
f 155/138/112 501/139/113 341/90/72
f 399/294/230 515/305/241 99/701/521
f 513/304/240 105/359/281 515/305/241
f 514/302/238 227/360/282 513/304/240
f 226/605/477 104/604/476 517/311/246
f 518/367/289 398/371/293 516/603/475
f 103/312/228 226/605/477 519/310/229
f 224/293/225 99/701/521 519/292/229
f 225/301/237 102/602/474 521/303/239
f 520/366/288 102/602/474 518/367/289
f 227/360/282 514/302/238 106/361/283
