v -0.880287 0.473216 -0.053925
v -0.880287 0.473216 0.048239
v 0.872504 0.462921 -0.053925
v 0.872504 0.462921 0.048240
v 0.826178 0.486110 -0.145587
v 0.687034 0.553147 -0.205808
v 0.542631 0.610474 -0.223055
v 0.392260 0.647263 -0.205801
v 0.237300 0.687750 -0.206575
v 0.020783 0.677755 -0.475819
v -0.020925 0.677755 -0.475819
v -0.243714 0.685406 -0.206387
v -0.399389 0.649374 -0.205756
v -0.549869 0.615555 -0.223055
v -0.692646 0.556769 -0.205808
v -0.833037 0.492911 -0.145587
v -0.832675 0.491697 0.147940
v -0.696879 0.572732 0.190070
v -0.550698 0.625155 0.205470
v -0.396276 0.650060 0.233315
v -0.235304 0.657154 0.323198
v -0.076222 0.630491 0.410578
v 0.076527 0.632492 0.410727
v 0.232128 0.650100 0.371237
v 0.389692 0.646428 0.270983
v 0.542908 0.617900 0.205465
v 0.690431 0.563318 0.149872
v 0.825739 0.484347 0.105642
v 0.132322 0.699460 -0.297266
v 0.154135 0.642759 0.391006
v -0.132882 0.700165 -0.297131
v -0.154221 0.637286 0.390781
v -0.880620 0.474291 -0.028384
v -0.880737 0.474667 -0.002843
v -0.880620 0.474291 0.022698
v 0.872873 0.463984 0.022698
v 0.873002 0.464356 -0.002843
v 0.872873 0.463984 -0.028384
v -0.834791 0.498495 0.074558
v -0.835689 0.501392 0.001176
v -0.834791 0.498495 -0.072206
v -0.698827 0.578689 0.091101
v -0.698833 0.576690 -0.007869
v -0.696603 0.571487 -0.106839
v -0.551600 0.636591 0.098357
v -0.550879 0.639716 -0.008780
v -0.551475 0.631903 -0.115918
v -0.399259 0.669720 0.123773
v -0.400951 0.678667 0.014067
v -0.400301 0.669620 -0.095845
v -0.242189 0.695431 0.191565
v -0.250355 0.722711 0.060082
v -0.249459 0.714174 -0.072801
v -0.063540 0.702106 0.233837
v -0.051714 0.758571 0.048557
v -0.037688 0.762213 -0.129108
v 0.062883 0.701913 0.233824
v 0.049709 0.758443 0.048435
v 0.034788 0.762186 -0.129323
v 0.236559 0.690111 0.227523
v 0.241213 0.721387 0.084041
v 0.240527 0.716057 -0.061341
v 0.392864 0.667312 0.152025
v 0.395329 0.677842 0.032939
v 0.394085 0.668943 -0.086408
v 0.544328 0.628775 0.098358
v 0.543553 0.631929 -0.008780
v 0.544538 0.625693 -0.115918
v 0.692817 0.568937 0.060952
v 0.693241 0.570101 -0.027968
v 0.690905 0.565235 -0.116888
v 0.827495 0.489408 0.042835
v 0.828234 0.491541 -0.019973
v 0.827536 0.489578 -0.082780
v 0.150934 0.691373 0.219555
v 0.151538 0.753980 0.049369
v 0.140134 0.737659 -0.126019
v -0.153029 0.688781 0.219483
v -0.159957 0.754157 0.049779
v -0.150993 0.736187 -0.123700
v 0.791897 0.442783 0.022426
v 0.837468 0.417233 0.003380
v 0.837633 0.416521 0.020995
v 0.790469 0.438357 0.076239
v -0.843192 0.428595 -0.000059
v -0.798142 0.452189 0.053050
v -0.795518 0.446147 0.114895
v -0.842544 0.428704 0.015798
v -0.666953 0.528916 0.068165
v -0.666540 0.524193 0.155050
v -0.532037 0.581929 0.068652
v -0.531898 0.572379 0.162173
v -0.378970 0.617834 0.078162
v -0.377532 0.599600 0.173594
v -0.225012 0.585708 0.127658
v -0.223711 0.609999 0.247314
v -0.147376 0.545044 0.147198
v -0.064134 0.534644 0.117741
v -0.075897 0.583503 0.325769
v -0.151706 0.591191 0.307306
v 0.064305 0.535344 0.118416
v 0.077132 0.585104 0.326414
v 0.148101 0.553441 0.148819
v 0.220852 0.581493 0.162626
v 0.221077 0.602522 0.296820
v 0.152942 0.596449 0.309163
v 0.370167 0.615999 0.105184
v 0.369461 0.596256 0.211033
v 0.520771 0.575393 0.066608
v 0.520309 0.566410 0.160596
v 0.658653 0.520476 0.037680
v 0.657801 0.515890 0.115224
v 0.790551 0.439706 -0.107425
v 0.833835 0.419009 -0.024833
v 0.834761 0.418891 -0.008155
v 0.791840 0.443390 -0.053250
v 0.836294 0.417709 -0.002879
v 0.792341 0.444342 -0.013451
v -0.843570 0.428100 -0.021319
v -0.799269 0.446217 -0.103265
v -0.800447 0.451728 -0.039340
v -0.843915 0.428174 -0.005533
v -0.800010 0.453699 0.008577
v -0.843896 0.427738 -0.002831
v -0.664289 0.509468 -0.151209
v -0.666192 0.522462 -0.064224
v -0.665945 0.527300 0.002617
v -0.530061 0.565632 -0.163250
v -0.531294 0.579367 -0.068694
v -0.531015 0.583665 -0.002492
v -0.381834 0.598826 -0.138611
v -0.380735 0.617075 -0.045175
v -0.377749 0.622852 0.009138
v -0.224467 0.637208 -0.130804
v -0.224501 0.609261 -0.017212
v -0.224168 0.588327 0.039814
v -0.120140 0.647669 -0.217489
v -0.018347 0.623290 -0.396352
v -0.032148 0.600001 -0.186864
v -0.134790 0.592490 -0.062674
v -0.053118 0.559466 -0.025542
v -0.144702 0.572334 0.038645
v 0.018205 0.623035 -0.396319
v 0.032415 0.599786 -0.186544
v 0.049754 0.557566 -0.025189
v 0.118982 0.647238 -0.218135
v 0.216689 0.638747 -0.134489
v 0.216901 0.609148 -0.008401
v 0.126642 0.592208 -0.065633
v 0.217774 0.587959 0.062010
v 0.139551 0.572948 0.039446
v 0.373138 0.596955 -0.140425
v 0.372653 0.616600 -0.038394
v 0.369781 0.623005 0.024639
v 0.521722 0.560588 -0.165009
v 0.522718 0.573313 -0.069817
v 0.520604 0.576748 -0.006154
v 0.657587 0.506177 -0.155284
v 0.659732 0.517023 -0.077759
v 0.659410 0.521073 -0.019137
v 0.694561 0.522204 -0.201812
v 0.835263 0.452384 -0.141708
v 0.079446 0.608657 0.409286
v -0.078567 0.606695 0.408843
v -0.403746 0.624042 -0.192511
v -0.241320 0.661184 -0.188618
v -0.891501 0.442167 -0.019870
v -0.891157 0.441594 -0.042852
v 0.884035 0.429671 0.037493
v 0.835377 0.451890 0.100135
v -0.400040 0.624566 0.225338
v -0.559450 0.597043 0.203452
v 0.020167 0.654335 -0.485106
v 0.129511 0.674719 -0.287422
v 0.696325 0.531702 0.146412
v 0.549883 0.589938 0.202575
v -0.130240 0.675393 -0.286877
v -0.020325 0.654335 -0.485106
v -0.841533 0.460073 0.145154
v -0.890625 0.441902 0.034602
v 0.883587 0.430993 -0.004190
v 0.884130 0.430561 0.013493
v 0.550300 0.583130 -0.216811
v 0.234070 0.625205 0.370637
v 0.158583 0.618768 0.388586
v 0.234505 0.663248 -0.190623
v -0.891552 0.442136 -0.004164
v -0.557948 0.588694 -0.215833
v 0.882063 0.430941 -0.044806
v 0.882726 0.431408 -0.021328
v -0.236653 0.632486 0.316365
v -0.157781 0.613377 0.387446
v -0.843209 0.459636 -0.139395
v -0.703955 0.541136 0.190913
v 0.395953 0.621548 -0.193520
v 0.392707 0.620628 0.267082
v -0.700690 0.526027 -0.199546
v -0.891126 0.442382 0.011581
vt 0.281556 0.946625
vt 0.314598 0.946625
vt 0.284400 0.973717
vt 0.270963 0.973717
vt 0.270963 0.032688
vt 0.284400 0.032688
vt 0.336850 0.059640
vt 0.298246 0.059640
vt 0.359014 0.140589
vt 0.306948 0.140589
vt 0.367128 0.221162
vt 0.310766 0.221162
vt 0.382066 0.301735
vt 0.324244 0.301735
vt 0.430287 0.382308
vt 0.360482 0.382308
vt 0.375818 0.425484
vt 0.466321 0.422594
vt 0.476927 0.462881
vt 0.383761 0.470194
vt 0.476927 0.543454
vt 0.383761 0.536141
vt 0.375818 0.580851
vt 0.466321 0.583741
vt 0.455627 0.624027
vt 0.379487 0.624027
vt 0.401923 0.704600
vt 0.339137 0.704600
vt 0.367128 0.785173
vt 0.310766 0.785173
vt 0.337866 0.865746
vt 0.291087 0.865746
vt 0.182432 0.946625
vt 0.215473 0.946625
vt 0.244090 0.973717
vt 0.230653 0.973717
vt 0.248515 0.946625
vt 0.257526 0.973717
vt 0.230653 0.032688
vt 0.244090 0.032688
vt 0.221036 0.059640
vt 0.182432 0.059640
vt 0.257526 0.032688
vt 0.259641 0.059640
vt 0.202817 0.140589
vt 0.150751 0.140589
vt 0.254882 0.140589
vt 0.198040 0.221162
vt 0.141678 0.221162
vt 0.254403 0.221162
vt 0.208600 0.301735
vt 0.150778 0.301735
vt 0.266422 0.301735
vt 0.220872 0.382308
vt 0.151068 0.382308
vt 0.290677 0.382308
vt 0.104308 0.434153
vt 0.194811 0.431263
vt 0.193764 0.484821
vt 0.011262 0.492134
vt 0.285314 0.428373
vt 0.284716 0.477508
vt 0.193764 0.521514
vt 0.011262 0.514201
vt 0.284716 0.528827
vt 0.104308 0.572182
vt 0.194811 0.575072
vt 0.227207 0.624027
vt 0.151068 0.624027
vt 0.285314 0.577962
vt 0.303347 0.624027
vt 0.213565 0.704600
vt 0.150778 0.704600
vt 0.276351 0.704600
vt 0.198040 0.785173
vt 0.141678 0.785173
vt 0.254403 0.785173
vt 0.197530 0.865746
vt 0.150751 0.865746
vt 0.244309 0.865746
vt 0.744386 0.087215
vt 0.734842 0.061296
vt 0.743669 0.061100
vt 0.771352 0.087163
vt 0.733119 0.937328
vt 0.759732 0.912122
vt 0.790723 0.911761
vt 0.741065 0.937001
vt 0.767306 0.837253
vt 0.810845 0.837285
vt 0.767551 0.761708
vt 0.814415 0.762324
vt 0.772322 0.683357
vt 0.820367 0.684106
vt 0.797585 0.608380
vt 0.858114 0.609568
vt 0.808091 0.572409
vt 0.793668 0.531812
vt 0.898169 0.538401
vt 0.888657 0.575495
vt 0.793936 0.468602
vt 0.898430 0.461735
vt 0.808473 0.427692
vt 0.815111 0.391773
vt 0.882996 0.390622
vt 0.889464 0.424305
vt 0.785929 0.317568
vt 0.839156 0.316925
vt 0.766526 0.239862
vt 0.813624 0.239521
vt 0.752030 0.163489
vt 0.790888 0.163520
vt 0.679318 0.087446
vt 0.720705 0.063319
vt 0.729062 0.062859
vt 0.706465 0.087342
vt 0.731706 0.061934
vt 0.726408 0.087261
vt 0.722466 0.937584
vt 0.681402 0.913442
vt 0.713435 0.913300
vt 0.730376 0.937739
vt 0.737447 0.912795
vt 0.731730 0.937795
vt 0.657377 0.837930
vt 0.700966 0.837646
vt 0.734460 0.837276
vt 0.651343 0.761926
vt 0.698726 0.761543
vt 0.731900 0.760987
vt 0.663690 0.685405
vt 0.710511 0.684244
vt 0.737728 0.682553
vt 0.668141 0.606210
vt 0.724524 0.605696
vt 0.753165 0.606406
vt 0.626903 0.559161
vt 0.538967 0.509586
vt 0.642919 0.516322
vt 0.702043 0.561685
vt 0.720444 0.524324
vt 0.752706 0.567265
vt 0.538967 0.491165
vt 0.642919 0.484430
vt 0.720681 0.476346
vt 0.626240 0.441863
vt 0.666541 0.395045
vt 0.728939 0.395582
vt 0.701270 0.439480
vt 0.764286 0.394449
vt 0.753021 0.433639
vt 0.662781 0.315251
vt 0.713909 0.316414
vt 0.745495 0.318176
vt 0.650461 0.238188
vt 0.698163 0.238741
vt 0.730065 0.240010
vt 0.655335 0.162486
vt 0.694183 0.162780
vt 0.723559 0.163289
vt 0.916964 0.136641
vt 0.908385 0.055220
vt 0.894321 0.075173
vt 0.903140 0.152818
vt 0.940117 0.461210
vt 0.939763 0.543345
vt 0.927382 0.541783
vt 0.927700 0.462456
vt 0.941075 0.704226
vt 0.954822 0.620738
vt 0.942352 0.611946
vt 0.927913 0.693891
vt 0.906245 0.976525
vt 0.905908 0.976443
vt 0.891919 0.954825
vt 0.892009 0.954985
vt 0.905876 0.027300
vt 0.908490 0.055069
vt 0.894230 0.074880
vt 0.891550 0.047912
vt 0.942942 0.703531
vt 0.933424 0.786497
vt 0.919277 0.773481
vt 0.929515 0.692547
vt 0.936232 0.491884
vt 0.956454 0.435920
vt 0.943989 0.441894
vt 0.923753 0.492908
vt 0.922866 0.137194
vt 0.932360 0.218973
vt 0.918353 0.232527
vt 0.908651 0.153887
vt 0.956533 0.569110
vt 0.936232 0.513000
vt 0.923753 0.511968
vt 0.944149 0.563264
vt 0.907439 0.948872
vt 0.905979 0.976130
vt 0.892060 0.954221
vt 0.893477 0.928105
vt 0.906447 0.027746
vt 0.906328 0.027405
vt 0.891870 0.048115
vt 0.891904 0.048775
vt 0.928814 0.218259
vt 0.915200 0.231148
vt 0.945008 0.382048
vt 0.943299 0.420626
vt 0.930725 0.423726
vt 0.932069 0.388874
vt 0.954693 0.384416
vt 0.942094 0.393451
vt 0.906237 0.976556
vt 0.891789 0.955043
vt 0.928944 0.786284
vt 0.915461 0.773069
vt 0.906163 0.028488
vt 0.906504 0.028242
vt 0.892223 0.049732
vt 0.892123 0.050209
vt 0.948881 0.622535
vt 0.936079 0.615421
vt 0.941746 0.583749
vt 0.929294 0.580165
vt 0.907447 0.949772
vt 0.893493 0.929844
vt 0.924302 0.867719
vt 0.910069 0.851044
vt 0.939451 0.300607
vt 0.926190 0.310886
vt 0.940413 0.301503
vt 0.927041 0.312618
vt 0.915625 0.868064
vt 0.901989 0.851711
vt 0.906294 0.976305
vt 0.892106 0.954560
vt 0.930788 0.145080
vt 0.922449 0.065365
vt 0.952533 0.462732
vt 0.952144 0.542145
vt 0.954237 0.700971
vt 0.967292 0.621558
vt 0.920481 0.966144
vt 0.919898 0.966144
vt 0.920202 0.038663
vt 0.922750 0.065365
vt 0.956370 0.700971
vt 0.947570 0.780384
vt 0.948711 0.491564
vt 0.968918 0.434417
vt 0.937082 0.145080
vt 0.946367 0.224493
vt 0.968918 0.570459
vt 0.948711 0.513313
vt 0.921400 0.939580
vt 0.920990 0.038663
vt 0.920786 0.038663
vt 0.942429 0.224493
vt 0.957946 0.383319
vt 0.955874 0.423025
vt 0.967292 0.383319
vt 0.920685 0.966144
vt 0.942427 0.780384
vt 0.961683 0.621558
vt 0.954198 0.581851
vt 0.938534 0.859797
vt 0.952711 0.303906
vt 0.953786 0.303906
vt 0.929262 0.859797
vn 0.499400 0.863400 0.071900
vn -0.519300 0.850800 0.080600
vn -0.520800 0.850400 0.075200
vn -0.356400 0.930600 0.083500
vn -0.207800 0.967700 0.142600
vn -0.215000 0.947600 0.236400
vn -0.103500 0.939000 0.328000
vn -0.006200 0.928800 0.370400
vn -0.016200 0.962600 0.270600
vn 0.207200 0.951700 0.226600
vn 0.264600 0.954200 0.139400
vn 0.382300 0.920100 0.084800
vn 0.517600 0.852400 0.074100
vn 0.066700 0.946000 0.317300
vn -0.010100 0.958700 0.284300
vn 0.534500 0.843500 -0.053700
vn 0.521400 0.852900 -0.027400
vn 0.504600 0.862900 0.029400
vn -0.505400 0.860100 -0.068600
vn -0.499800 0.865500 -0.033800
vn -0.504300 0.862900 0.033700
vn -0.470000 0.874600 -0.118600
vn -0.480100 0.875800 -0.049900
vn -0.495300 0.868700 0.007100
vn -0.389800 0.909000 -0.147500
vn -0.389200 0.919100 -0.061100
vn -0.379200 0.925300 0.003700
vn -0.208200 0.964100 -0.165000
vn -0.236000 0.968800 -0.075300
vn -0.239900 0.969200 0.055000
vn -0.235700 0.951500 -0.198000
vn -0.266200 0.961300 -0.071300
vn -0.272200 0.949900 0.153800
vn -0.206400 0.950100 -0.233900
vn -0.137400 0.989300 -0.049400
vn -0.105800 0.941000 0.321500
vn -0.000200 0.971600 -0.236700
vn 0.000900 0.999800 0.020800
vn 0.001500 0.956500 0.291600
vn 0.306600 0.929300 -0.206000
vn 0.309800 0.947800 -0.075600
vn 0.114000 0.951200 0.286600
vn 0.255000 0.949200 -0.184200
vn 0.270000 0.961400 -0.053600
vn 0.267800 0.950300 0.158600
vn 0.230500 0.959800 -0.160100
vn 0.271300 0.960300 -0.064500
vn 0.288400 0.955600 0.060000
vn 0.378500 0.915200 -0.138600
vn 0.378000 0.924200 -0.054900
vn 0.380900 0.924400 0.019700
vn 0.485300 0.868000 -0.105700
vn 0.498900 0.865300 -0.048900
vn 0.506200 0.862100 0.022600
vn 0.208300 0.949700 -0.233700
vn 0.139400 0.989200 -0.045600
vn 0.096600 0.944800 0.313100
vn -0.310900 0.924800 -0.219300
vn -0.298600 0.949900 -0.091800
vn -0.159200 0.941300 0.297600
vn -0.498400 -0.864000 -0.071000
vn 0.521700 -0.848700 -0.086800
vn 0.521200 -0.850400 -0.072200
vn 0.352300 -0.932900 -0.074900
vn 0.208400 -0.967400 -0.144000
vn -0.082000 -0.996200 0.029100
vn -0.092800 -0.965100 0.245000
vn 0.006900 -0.973000 0.230600
vn 0.228500 -0.952100 0.203100
vn 0.097100 -0.995300 0.005500
vn -0.264000 -0.954500 -0.138800
vn -0.374400 -0.924200 -0.076000
vn -0.513200 -0.855600 -0.067600
vn 0.157700 -0.959400 0.234100
vn -0.456400 -0.864000 0.212600
vn -0.530900 -0.845400 0.059200
vn -0.516100 -0.856300 0.018900
vn -0.505600 -0.862100 -0.032900
vn 0.501700 -0.862200 0.070000
vn 0.497200 -0.867300 0.021800
vn 0.508100 -0.860400 -0.039500
vn 0.467700 -0.876100 0.117000
vn 0.477500 -0.877200 0.049200
vn 0.493100 -0.869900 -0.003000
vn 0.390800 -0.909700 0.140700
vn 0.388200 -0.919500 0.061600
vn 0.375700 -0.926700 0.004800
vn 0.202600 -0.965400 0.164400
vn 0.236600 -0.968800 0.074600
vn 0.240700 -0.969700 -0.042900
vn 0.102200 -0.993600 -0.047100
vn -0.109900 -0.985300 -0.130900
vn -0.199000 -0.978700 -0.050300
vn -0.403300 -0.887600 -0.222700
vn -0.264800 -0.932200 -0.246600
vn -0.238300 -0.948400 -0.209200
vn -0.004200 -0.993900 -0.110300
vn -0.011200 -0.968600 -0.248500
vn -0.004400 -0.986800 -0.161800
vn 0.257000 -0.922600 -0.287500
vn 0.288000 -0.928000 -0.236500
vn 0.301400 -0.944100 -0.133500
vn -0.114200 -0.992500 -0.043400
vn 0.112800 -0.987800 -0.107700
vn 0.201300 -0.976500 -0.076500
vn -0.226600 -0.961000 0.158300
vn -0.272500 -0.960000 0.063800
vn -0.287400 -0.956400 -0.051100
vn -0.373400 -0.918200 0.132100
vn -0.372500 -0.926700 0.049300
vn -0.373200 -0.927600 -0.015700
vn -0.487500 -0.866400 0.108300
vn -0.496800 -0.866700 0.044900
vn -0.502400 -0.864300 -0.026600
vn 0.407400 -0.887300 -0.216300
vn 0.287500 -0.925600 -0.246200
vn 0.280900 -0.942500 -0.181100
vn -0.233900 -0.925000 -0.299300
vn -0.251600 -0.933000 -0.257300
vn -0.320100 -0.935700 -0.148200
vn -0.213000 -0.832700 -0.511100
vn 0.010100 -0.962500 0.271100
vn 0.220300 -0.862200 -0.456100
vn -0.281300 -0.959600 0.011000
vn 0.084800 -0.908800 0.408600
vn 0.095400 -0.856000 0.508100
vn 0.591700 -0.769700 -0.239500
vn -0.118000 -0.824600 0.553200
vn -0.593000 -0.768500 -0.240300
vn -0.154700 -0.959900 0.234000
vn 0.277000 -0.959200 -0.056300
vn -0.288600 -0.810200 -0.510200
vn 0.138700 -0.954600 0.263500
vn 0.207000 -0.919400 -0.334300
vn -0.281800 -0.959100 -0.024900
vn 0.266000 -0.825100 -0.498500
vn 0.245900 -0.969300 -0.001300
vn -0.118700 -0.935500 0.332700
vn -0.197900 -0.708700 0.677200
vn -0.408600 -0.887400 0.213600
vn -0.003000 -0.943500 -0.331300
vn 0.246700 -0.964400 -0.095100
vn -0.120400 -0.959000 -0.256500
vn 0.233100 -0.734600 0.637100
vn -0.281300 -0.816300 -0.504600
vn 0.151200 -0.942100 0.299200
vn 0.194200 -0.946400 0.258000
vn 0.295700 -0.810000 -0.506400
vn -0.274700 -0.958700 0.073900
vn 0.094600 -0.957600 -0.272300
vn -0.154500 -0.954000 0.257000
vn -0.183200 -0.923700 -0.336600
vn -0.270900 -0.962600 -0.001200
vn 0.239100 -0.756200 0.609200
vn -0.010600 -0.896200 0.443600
vn -0.236400 -0.850300 -0.470100
vn 0.283300 -0.958300 -0.037400
vn 0.203000 -0.845800 -0.493300
vn 0.390000 -0.011900 -0.920700
vn -0.001100 -0.066500 0.997800
vn 0.130400 -0.529700 -0.838100
vn -0.948400 0.316200 -0.024000
vn 0.797200 0.110000 0.593700
vn -0.129800 -0.152400 0.979800
vn 0.863700 -0.067200 -0.499500
vn 0.346800 -0.025000 0.937600
vn -0.863200 -0.068100 -0.500300
vn -0.905700 0.175500 0.386000
vn 0.950300 0.311300 -0.003300
vn 0.043900 -0.161800 -0.985900
vn 0.241000 -0.028400 0.970100
vn 0.574400 -0.430200 -0.696400
vn -0.948200 0.317500 -0.006500
vn 0.209700 -0.399900 -0.892300
vn 0.959200 0.281200 -0.029000
vn -0.469400 -0.205700 0.858700
vn 0.277500 -0.066900 0.958400
vn -0.664700 -0.088100 0.741900
vn 0.000000 0.368600 -0.929600
vn 0.955500 0.294300 -0.021900
vn -0.891900 0.178700 -0.415300
vn -0.335300 0.055600 0.940500
vn -0.210200 -0.362100 -0.908100
vn 0.541200 -0.021700 0.840600
vn 0.254300 -0.038800 0.966400
vn -0.019800 -0.222600 -0.974700
vn -0.950100 0.311700 0.013500
vn 0.898600 0.175400 -0.402300
vn -0.258500 -0.070400 0.963400
vn -0.540600 -0.458900 -0.705100
vn -0.952400 0.303800 0.026100
vn -0.098000 0.006400 0.995200
vn 0.378400 -0.046500 0.924500
vn -0.132400 -0.487600 -0.863000
vn 0.948000 0.317600 0.021400
vn -0.359400 -0.078600 -0.929900
s off
f 72/1/1 28/2/1 4/3/1 36/4/1
f 35/5/2 2/6/2 17/7/2 39/8/2
f 39/8/3 17/7/3 18/9/3 42/10/3
f 42/10/4 18/9/4 19/11/4 45/12/4
f 45/12/5 19/11/5 20/13/5 48/14/5
f 48/14/6 20/13/6 21/15/6 51/16/6
f 78/17/7 32/18/7 22/19/7 54/20/7
f 54/20/8 22/19/8 23/21/8 57/22/8
f 75/23/9 30/24/9 24/25/9 60/26/9
f 60/26/10 24/25/10 25/27/10 63/28/10
f 63/28/11 25/27/11 26/29/11 66/30/11
f 66/30/12 26/29/12 27/31/12 69/32/12
f 69/32/13 27/31/13 28/2/13 72/1/13
f 57/22/14 23/21/14 30/24/14 75/23/14
f 51/16/15 21/15/15 32/18/15 78/17/15
f 5/33/16 74/34/16 38/35/16 3/36/16
f 74/34/17 73/37/17 37/38/17 38/35/17
f 73/37/18 72/1/18 36/4/18 37/38/18
f 1/39/19 33/40/19 41/41/19 16/42/19
f 33/40/20 34/43/20 40/44/20 41/41/20
f 34/43/21 35/5/21 39/8/21 40/44/21
f 16/42/22 41/41/22 44/45/22 15/46/22
f 41/41/23 40/44/23 43/47/23 44/45/23
f 40/44/24 39/8/24 42/10/24 43/47/24
f 15/46/25 44/45/25 47/48/25 14/49/25
f 44/45/26 43/47/26 46/50/26 47/48/26
f 43/47/27 42/10/27 45/12/27 46/50/27
f 14/49/28 47/48/28 50/51/28 13/52/28
f 47/48/29 46/50/29 49/53/29 50/51/29
f 46/50/30 45/12/30 48/14/30 49/53/30
f 13/52/31 50/51/31 53/54/31 12/55/31
f 50/51/32 49/53/32 52/56/32 53/54/32
f 49/53/33 48/14/33 51/16/33 52/56/33
f 31/57/34 80/58/34 56/59/34 11/60/34
f 80/58/35 79/61/35 55/62/35 56/59/35
f 79/61/36 78/17/36 54/20/36 55/62/36
f 11/60/37 56/59/37 59/63/37 10/64/37
f 56/59/38 55/62/38 58/65/38 59/63/38
f 55/62/39 54/20/39 57/22/39 58/65/39
f 29/66/40 77/67/40 62/68/40 9/69/40
f 77/67/41 76/70/41 61/71/41 62/68/41
f 76/70/42 75/23/42 60/26/42 61/71/42
f 9/69/43 62/68/43 65/72/43 8/73/43
f 62/68/44 61/71/44 64/74/44 65/72/44
f 61/71/45 60/26/45 63/28/45 64/74/45
f 8/73/46 65/72/46 68/75/46 7/76/46
f 65/72/47 64/74/47 67/77/47 68/75/47
f 64/74/48 63/28/48 66/30/48 67/77/48
f 7/76/49 68/75/49 71/78/49 6/79/49
f 68/75/50 67/77/50 70/80/50 71/78/50
f 67/77/51 66/30/51 69/32/51 70/80/51
f 6/79/52 71/78/52 74/34/52 5/33/52
f 71/78/53 70/80/53 73/37/53 74/34/53
f 70/80/54 69/32/54 72/1/54 73/37/54
f 10/64/55 59/63/55 77/67/55 29/66/55
f 59/63/56 58/65/56 76/70/56 77/67/56
f 58/65/57 57/22/57 75/23/57 76/70/57
f 12/55/58 53/54/58 80/58/58 31/57/58
f 53/54/59 52/56/59 79/61/59 80/58/59
f 52/56/60 51/16/60 78/17/60 79/61/60
f 81/81/61 82/82/61 83/83/61 84/84/61
f 85/85/62 86/86/62 87/87/62 88/88/62
f 86/86/63 89/89/63 90/90/63 87/87/63
f 89/89/64 91/91/64 92/92/64 90/90/64
f 91/91/65 93/93/65 94/94/65 92/92/65
f 93/93/66 95/95/66 96/96/66 94/94/66
f 97/97/67 98/98/67 99/99/67 100/100/67
f 98/98/68 101/101/68 102/102/68 99/99/68
f 103/103/69 104/104/69 105/105/69 106/106/69
f 104/104/70 107/107/70 108/108/70 105/105/70
f 107/107/71 109/109/71 110/110/71 108/108/71
f 109/109/72 111/111/72 112/112/72 110/110/72
f 111/111/73 81/81/73 84/84/73 112/112/73
f 101/101/74 103/103/74 106/106/74 102/102/74
f 95/95/75 97/97/75 100/100/75 96/96/75
f 113/113/76 114/114/76 115/115/76 116/116/76
f 116/116/77 115/115/77 117/117/77 118/118/77
f 118/118/78 117/117/78 82/82/78 81/81/78
f 119/119/79 120/120/79 121/121/79 122/122/79
f 122/122/80 121/121/80 123/123/80 124/124/80
f 124/124/81 123/123/81 86/86/81 85/85/81
f 120/120/82 125/125/82 126/126/82 121/121/82
f 121/121/83 126/126/83 127/127/83 123/123/83
f 123/123/84 127/127/84 89/89/84 86/86/84
f 125/125/85 128/128/85 129/129/85 126/126/85
f 126/126/86 129/129/86 130/130/86 127/127/86
f 127/127/87 130/130/87 91/91/87 89/89/87
f 128/128/88 131/131/88 132/132/88 129/129/88
f 129/129/89 132/132/89 133/133/89 130/130/89
f 130/130/90 133/133/90 93/93/90 91/91/90
f 131/131/91 134/134/91 135/135/91 132/132/91
f 132/132/92 135/135/92 136/136/92 133/133/92
f 133/133/93 136/136/93 95/95/93 93/93/93
f 137/137/94 138/138/94 139/139/94 140/140/94
f 140/140/95 139/139/95 141/141/95 142/142/95
f 142/142/96 141/141/96 98/98/96 97/97/96
f 138/138/97 143/143/97 144/144/97 139/139/97
f 139/139/98 144/144/98 145/145/98 141/141/98
f 141/141/99 145/145/99 101/101/99 98/98/99
f 146/146/100 147/147/100 148/148/100 149/149/100
f 149/149/101 148/148/101 150/150/101 151/151/101
f 151/151/102 150/150/102 104/104/102 103/103/102
f 147/147/103 152/152/103 153/153/103 148/148/103
f 148/148/104 153/153/104 154/154/104 150/150/104
f 150/150/105 154/154/105 107/107/105 104/104/105
f 152/152/106 155/155/106 156/156/106 153/153/106
f 153/153/107 156/156/107 157/157/107 154/154/107
f 154/154/108 157/157/108 109/109/108 107/107/108
f 155/155/109 158/158/109 159/159/109 156/156/109
f 156/156/110 159/159/110 160/160/110 157/157/110
f 157/157/111 160/160/111 111/111/111 109/109/111
f 158/158/112 113/113/112 116/116/112 159/159/112
f 159/159/113 116/116/113 118/118/113 160/160/113
f 160/160/114 118/118/114 81/81/114 111/111/114
f 143/143/115 146/146/115 149/149/115 144/144/115
f 144/144/116 149/149/116 151/151/116 145/145/116
f 145/145/117 151/151/117 103/103/117 101/101/117
f 134/134/118 137/137/118 140/140/118 135/135/118
f 135/135/119 140/140/119 142/142/119 136/136/119
f 136/136/120 142/142/120 97/97/120 95/95/120
f 161/161/121 162/162/121 113/163/121 158/164/121
f 163/165/122 164/166/122 99/167/122 102/168/122
f 165/169/123 166/170/123 134/171/123 131/172/123
f 167/173/124 168/174/124 119/175/124 122/176/124
f 169/177/125 170/178/125 84/179/125 83/180/125
f 171/181/126 172/182/126 92/183/126 94/184/126
f 173/185/127 174/186/127 146/187/127 143/188/127
f 175/189/128 176/190/128 110/191/128 112/192/128
f 177/193/129 178/194/129 138/195/129 137/196/129
f 179/197/130 180/198/130 88/199/130 87/200/130
f 181/201/131 182/202/131 82/203/131 117/204/131
f 183/205/132 161/161/132 158/164/132 155/206/132
f 184/207/133 185/208/133 106/209/133 105/210/133
f 174/186/134 186/211/134 147/212/134 146/187/134
f 187/213/135 167/173/135 122/176/135 124/214/135
f 188/215/136 165/169/136 131/172/136 128/216/136
f 189/217/137 190/218/137 115/219/137 114/220/137
f 191/221/138 171/181/138 94/184/138 96/222/138
f 170/178/139 175/189/139 112/192/139 84/179/139
f 192/223/140 191/221/140 96/222/140 100/224/140
f 178/194/141 173/185/141 143/188/141 138/195/141
f 190/218/142 181/201/142 117/204/142 115/219/142
f 168/174/143 193/225/143 120/226/143 119/175/143
f 194/227/144 179/197/144 87/200/144 90/228/144
f 195/229/145 183/205/145 155/206/145 152/230/145
f 196/231/146 184/207/146 105/210/146 108/232/146
f 185/208/147 163/165/147 102/168/147 106/209/147
f 197/233/148 188/215/148 128/216/148 125/234/148
f 198/235/149 187/213/149 124/214/149 85/236/149
f 162/162/150 189/217/150 114/220/150 113/163/150
f 164/166/151 192/223/151 100/224/151 99/167/151
f 166/170/152 177/193/152 137/196/152 134/171/152
f 180/198/153 198/235/153 85/236/153 88/199/153
f 172/182/154 194/227/154 90/228/154 92/183/154
f 176/190/155 196/231/155 108/232/155 110/191/155
f 186/211/156 195/229/156 152/230/156 147/212/156
f 182/202/157 169/177/157 83/180/157 82/203/157
f 193/225/158 197/233/158 125/234/158 120/226/158
f 6/237/159 5/238/159 162/162/159 161/161/159
f 23/239/160 22/240/160 164/166/160 163/165/160
f 13/241/161 12/242/161 166/170/161 165/169/161
f 33/243/162 1/244/162 168/174/162 167/173/162
f 4/245/163 28/246/163 170/178/163 169/177/163
f 20/247/164 19/248/164 172/182/164 171/181/164
f 10/249/165 29/250/165 174/186/165 173/185/165
f 27/251/166 26/252/166 176/190/166 175/189/166
f 31/253/167 11/254/167 178/194/167 177/193/167
f 17/255/168 2/244/168 180/198/168 179/197/168
f 37/256/169 36/257/169 182/202/169 181/201/169
f 7/258/170 6/237/170 161/161/170 183/205/170
f 24/259/171 30/260/171 185/208/171 184/207/171
f 29/250/172 9/261/172 186/211/172 174/186/172
f 34/262/173 33/243/173 167/173/173 187/213/173
f 14/263/174 13/241/174 165/169/174 188/215/174
f 3/245/175 38/257/175 190/218/175 189/217/175
f 21/264/176 20/247/176 171/181/176 191/221/176
f 28/246/177 27/251/177 175/189/177 170/178/177
f 32/265/178 21/264/178 191/221/178 192/223/178
f 11/254/179 10/249/179 173/185/179 178/194/179
f 38/257/180 37/256/180 181/201/180 190/218/180
f 1/244/181 16/255/181 193/225/181 168/174/181
f 18/266/182 17/255/182 179/197/182 194/227/182
f 8/267/183 7/258/183 183/205/183 195/229/183
f 25/268/184 24/259/184 184/207/184 196/231/184
f 30/260/185 23/239/185 163/165/185 185/208/185
f 15/269/186 14/263/186 188/215/186 197/233/186
f 35/243/187 34/262/187 187/213/187 198/235/187
f 5/238/188 3/245/188 189/217/188 162/162/188
f 22/240/189 32/265/189 192/223/189 164/166/189
f 12/242/190 31/253/190 177/193/190 166/170/190
f 2/244/191 35/243/191 198/235/191 180/198/191
f 19/248/192 18/266/192 194/227/192 172/182/192
f 26/252/193 25/268/193 196/231/193 176/190/193
f 9/261/194 8/267/194 195/229/194 186/211/194
f 36/257/195 4/245/195 169/177/195 182/202/195
f 16/255/196 15/269/196 197/233/196 193/225/196
