v -0.044858 0.821340 -0.331944
v 0.003436 0.697573 -0.133146
v -0.106605 0.813835 -0.247146
v -0.132651 0.793693 -0.174509
v -0.050102 0.838348 -0.265162
v -0.088656 0.638113 -0.049564
v -0.051244 0.836341 -0.201199
v -0.053285 0.840697 -0.155623
v -0.212551 0.765888 -0.154949
v -0.006963 0.554001 -0.053766
v -0.052195 0.830996 -0.116187
v -0.199752 0.756172 -0.120438
v -0.048882 0.811019 -0.078563
v -0.131121 0.754597 -0.076787
v -0.001155 0.658133 -0.055682
v -0.047576 0.800163 -0.037926
v -0.226649 0.717141 -0.049738
v -0.025677 0.724958 -0.074670
v -0.043828 0.778810 -0.006143
v -0.211695 0.710305 -0.029804
v -0.011562 0.670013 -0.053053
v -0.040939 0.762231 0.019390
v -0.125975 0.700630 0.000336
v -0.003967 0.643805 -0.020763
v -0.040539 0.755885 0.057963
v -0.158305 0.683312 0.019988
v -0.002368 0.627562 -0.028165
v -0.034171 0.722245 0.089104
v -0.128458 0.656139 0.051876
v -0.008313 0.578518 0.012092
v -0.029989 0.696777 0.138799
v -0.105414 0.612322 0.059250
v -0.019511 0.639868 0.203563
v -0.060218 0.585877 0.159899
v -0.007154 0.474948 -0.161382
v -0.008941 0.585705 0.240822
v -0.035713 0.546414 0.208584
v 0.009553 0.499686 0.230347
v -0.123842 0.667261 0.064351
v -0.105176 0.661289 0.092380
v -0.003840 0.491347 -0.257229
v -0.101208 0.531332 -0.297157
v -0.005532 0.483043 -0.271967
v -0.212892 0.628000 0.091346
v -0.212795 0.643972 0.068814
v -0.215750 0.665302 0.081458
v -0.214967 0.652126 0.106833
v -0.237161 0.609686 0.097597
v -0.238082 0.636522 0.049944
v -0.243321 0.680580 0.075303
v -0.240400 0.653764 0.123762
v -0.261517 0.619150 0.093378
v -0.262133 0.637356 0.061022
v -0.265598 0.667239 0.078285
v -0.264311 0.649207 0.110910
v 0.006763 0.673929 -0.251719
v -0.008321 0.514034 -0.079460
v 0.001879 0.563981 -0.335832
v -0.112300 0.675710 -0.013726
v -0.100651 0.636221 -0.001996
v -0.081895 0.613637 0.009464
v -0.092711 0.580307 0.093704
v -0.001578 0.545371 0.035086
v -0.075170 0.557873 0.036617
v 0.002210 0.529299 0.091237
v -0.042835 0.629308 -0.252484
v -0.048105 0.547519 0.116228
v -0.033020 0.535173 0.091887
v 0.007079 0.487283 0.130834
v 0.002554 0.484749 0.194572
v -0.025560 0.500680 0.149291
v -0.021383 0.504709 0.121956
v -0.167563 0.673605 -0.101598
v -0.003145 0.625746 -0.030639
v -0.006472 0.577888 -0.015610
v -0.044657 0.603084 -0.021865
v -0.153792 0.739213 -0.059037
v -0.119336 0.690753 -0.041059
v -0.000580 0.524867 -0.349266
v -0.095960 0.507739 -0.316058
v -0.008550 0.478941 -0.280913
v -0.124419 0.484269 -0.339047
v -0.004026 0.491009 -0.385791
v -0.013368 0.459131 -0.281033
v -0.133413 0.431139 -0.323573
v -0.013009 0.393313 -0.379341
v -0.012210 0.410092 -0.273205
v -0.075847 0.389845 -0.302257
v -0.011887 0.372050 -0.327597
v -0.176749 0.716729 -0.141581
v -0.220128 0.707452 -0.122790
v -0.293321 0.750714 -0.087069
v -0.302288 0.769757 -0.126853
v -0.281562 0.771494 -0.097772
v -0.665888 1.009078 0.185760
v -0.468848 0.924829 0.085470
v -0.675386 1.002913 0.163132
v -0.477685 0.940576 0.055136
v -0.463657 0.943578 0.078396
v -0.666022 0.989904 0.192289
v -0.947189 0.899140 0.315546
v -0.138404 0.578268 -0.128831
v -0.679176 0.448676 -0.785066
v -0.773325 1.009102 0.118597
v -0.747066 0.970020 -0.035956
v -0.830527 0.892100 -0.142091
v -0.958150 0.784759 -0.277694
v -0.766338 0.907121 -0.333455
v -0.601797 0.936344 -0.465872
v -0.513784 0.740381 -0.649377
v -0.565257 0.905920 -0.252090
v -0.392586 0.818691 -0.437256
v -0.594659 0.910710 -0.128345
v -0.317329 0.736291 -0.441975
v -0.661094 0.955312 -0.050818
v -0.582293 0.880216 -0.175986
v -0.103585 0.431207 -0.185689
v -0.159317 0.432379 -0.203309
v -0.145703 0.469253 -0.218285
v -0.103701 0.476792 -0.192258
v -0.127571 0.435229 -0.130469
v -0.176923 0.432632 -0.152904
v -0.165089 0.480279 -0.164873
v -0.129635 0.480014 -0.145420
v -0.124361 0.401276 -0.162292
v -0.155627 0.404453 -0.170642
v -0.103835 0.357290 -0.268931
v -0.077694 0.354594 -0.263968
v -0.084483 0.335036 -0.252377
v -0.103697 0.334288 -0.258008
v -0.101780 0.324167 -0.296868
v -0.101363 0.308249 -0.266997
v -0.069115 0.322358 -0.288977
v -0.076105 0.311083 -0.260245
v -0.162714 0.340473 -0.073962
v -0.194154 0.330121 -0.081533
v -0.152325 0.323504 -0.078506
v -0.187316 0.312029 -0.087857
v -0.211571 0.317772 0.114121
v -0.244798 0.306268 0.106314
v -0.199508 0.299527 0.109825
v -0.238736 0.286223 0.099433
v -0.199283 0.274234 0.184363
v -0.286650 0.261171 0.149695
v -0.180659 0.256880 0.158479
v -0.277700 0.244240 0.119558
v -0.243567 0.252099 0.176686
v -0.229716 0.235075 0.148197
v -0.181889 0.243675 0.190286
v -0.200130 0.254921 0.221294
v -0.244598 0.237470 0.206346
v -0.231361 0.222797 0.177234
v -0.174006 0.209473 0.200341
v -0.187219 0.201694 0.231263
v -0.229466 0.188774 0.212796
v -0.221413 0.195770 0.183192
v -0.180577 0.071080 0.161730
v -0.251254 0.207656 0.164327
v -0.308881 0.227169 0.177510
v -0.266081 0.206789 0.197230
v -0.298668 0.227776 0.140395
v -0.282787 0.168794 0.176187
v -0.270969 0.180210 0.153615
v -0.317022 0.184560 0.167267
v -0.308611 0.194005 0.141049
v -0.309785 0.062907 0.104213
v -0.211290 0.250917 0.121957
v -0.240914 0.267936 0.088363
v -0.189237 0.278507 0.095224
v -0.165358 0.229463 0.122700
v -0.190633 0.228199 0.090290
v -0.154493 0.252592 0.092645
v -0.121955 0.176357 0.157023
v -0.092585 0.590964 0.109136
v -0.022421 0.658873 0.157873
v -0.078467 0.626441 0.107020
v -0.271037 0.642268 0.085574
v -0.045555 0.817041 -0.266340
v -0.044501 0.803619 -0.193252
v -0.042492 0.790707 -0.163553
v -0.041391 0.781253 -0.126713
v -0.039104 0.766265 -0.090378
v -0.006659 0.583636 0.165620
v -0.000848 0.551370 0.207632
v -0.011114 0.594695 0.103308
v -0.004964 0.555312 0.120027
v 0.002053 0.505283 0.151398
v -0.009425 0.598890 0.113634
v -0.016316 0.625302 0.064237
v 0.034950 0.833412 -0.264333
v 0.059572 0.826629 -0.186352
v 0.083552 0.622340 -0.045771
v 0.142505 0.829310 -0.158733
v 0.130643 0.816845 -0.123223
v 0.062572 0.792669 -0.082149
v 0.162784 0.791637 -0.040732
v 0.149831 0.779740 -0.020810
v 0.071351 0.739367 0.006256
v 0.105407 0.732159 0.032486
v 0.084970 0.694303 0.062117
v 0.076820 0.637436 0.072425
v 0.040698 0.606480 0.162713
v 0.032944 0.560970 0.210267
v 0.075716 0.702825 0.074115
v 0.058268 0.689291 0.100637
v 0.097488 0.520724 -0.292258
v 0.172097 0.695330 0.108807
v 0.168068 0.711495 0.086249
v 0.162849 0.732431 0.099085
v 0.166004 0.707940 0.130661
v 0.201559 0.685862 0.116906
v 0.196885 0.713442 0.069685
v 0.185203 0.756809 0.095005
v 0.189938 0.728976 0.142583
v 0.222263 0.703285 0.114585
v 0.219048 0.722184 0.082278
v 0.211157 0.751460 0.099713
v 0.214372 0.732561 0.132020
v 0.073627 0.704267 -0.006389
v 0.078971 0.648414 0.013075
v 0.063318 0.620134 0.023227
v 0.066836 0.604322 0.108494
v 0.065756 0.576600 0.049906
v 0.052627 0.623556 -0.244338
v 0.037619 0.563641 0.123260
v 0.031628 0.547194 0.097241
v 0.029428 0.511101 0.153609
v 0.028243 0.514113 0.125853
v 0.169626 0.651995 -0.092888
v 0.034745 0.598115 -0.019517
v 0.087301 0.786703 -0.059163
v 0.076340 0.722926 -0.037382
v 0.087490 0.498497 -0.311696
v 0.106844 0.477738 -0.335768
v 0.108964 0.426168 -0.318673
v 0.048637 0.388932 -0.299773
v 0.169962 0.705166 -0.132291
v 0.223324 0.703079 -0.110975
v 0.292529 0.754014 -0.077490
v 0.298394 0.773572 -0.117601
v 0.278384 0.773369 -0.087972
v 0.623709 0.985160 0.255384
v 0.438295 0.911224 0.123938
v 0.635207 0.977912 0.234042
v 0.452799 0.926515 0.098188
v 0.437148 0.930414 0.117662
v 0.619456 0.966134 0.260880
v 0.905936 0.990081 0.415707
v 0.132605 0.560222 -0.124004
v 0.638782 0.459535 -0.773044
v 0.748570 0.987534 0.185401
v 0.730887 0.988249 -0.006504
v 0.805862 0.949602 -0.141642
v 0.932168 0.870668 -0.287797
v 0.733407 0.968392 -0.340000
v 0.576349 0.985363 -0.474435
v 0.496204 0.780914 -0.660034
v 0.542876 0.941496 -0.247807
v 0.403159 0.861678 -0.434091
v 0.573232 0.939611 -0.119943
v 0.331060 0.780561 -0.425657
v 0.642454 0.971303 -0.026165
v 0.558486 0.912349 -0.171411
v 0.071821 0.428539 -0.181888
v 0.128275 0.427841 -0.197343
v 0.117040 0.464625 -0.212510
v 0.074268 0.473983 -0.188482
v 0.093415 0.431233 -0.125946
v 0.143569 0.426664 -0.146250
v 0.134425 0.474936 -0.158067
v 0.098141 0.476204 -0.140432
v 0.090142 0.397847 -0.158434
v 0.121863 0.399737 -0.165407
v 0.072523 0.356496 -0.266747
v 0.046098 0.354890 -0.263248
v 0.051526 0.335428 -0.251774
v 0.070865 0.333368 -0.256225
v 0.070384 0.325175 -0.294632
v 0.067901 0.311288 -0.260602
v 0.037405 0.325500 -0.288210
v 0.042658 0.316139 -0.256682
v 0.122150 0.345474 -0.069028
v 0.153416 0.333697 -0.075081
v 0.111242 0.328943 -0.073953
v 0.146084 0.315875 -0.081613
v 0.161273 0.322096 0.121258
v 0.194284 0.309084 0.115037
v 0.148640 0.304483 0.116435
v 0.187670 0.289281 0.107976
v 0.148295 0.285570 0.195264
v 0.234230 0.268862 0.158758
v 0.128145 0.269656 0.169867
v 0.223524 0.251690 0.129063
v 0.191310 0.262036 0.186522
v 0.175881 0.246300 0.158115
v 0.129739 0.257099 0.200698
v 0.149885 0.265008 0.231377
v 0.192916 0.247016 0.212929
v 0.177714 0.240130 0.180021
v 0.121784 0.220501 0.212381
v 0.137333 0.210206 0.242245
v 0.178092 0.199391 0.219841
v 0.167723 0.206241 0.189993
v 0.127520 0.080185 0.174310
v 0.197795 0.215568 0.175855
v 0.256700 0.234054 0.186530
v 0.214808 0.214307 0.208394
v 0.243739 0.234749 0.149412
v 0.228655 0.175054 0.186779
v 0.215748 0.188013 0.165320
v 0.263058 0.188964 0.175111
v 0.253247 0.199993 0.149725
v 0.241466 0.068411 0.112135
v 0.157588 0.255504 0.129683
v 0.189588 0.270742 0.097133
v 0.138180 0.283552 0.101457
v 0.110900 0.235734 0.128064
v 0.137616 0.233144 0.096902
v 0.102504 0.259097 0.097383
v 0.062621 0.184016 0.160896
v 0.065917 0.616120 0.118603
v 0.044300 0.648904 0.111692
v 0.224399 0.728992 0.107440
v -0.071829 0.517685 -0.225512
v 0.066498 0.509024 -0.221785
v 0.110439 0.547491 -0.197514
v -0.114554 0.561276 -0.202613
vt 0.474247 1.000024
vt 0.432881 1.000024
vt 0.434057 0.893539
vt 0.509861 1.000024
vt 0.500227 0.768354
vt 0.559969 0.937079
vt 0.645064 0.954173
vt 0.560228 0.940601
vt 0.583639 0.999781
vt 0.500485 0.773130
vt 0.557266 0.999781
vt 0.078178 0.645053
vt 0.145329 0.600948
vt 0.009554 0.578044
vt 0.629598 0.999781
vt 0.656534 0.999781
vt 0.043058 0.667957
vt 0.009554 0.620213
vt 0.512543 0.981892
vt 0.471564 0.821771
vt 0.527454 0.989559
vt 0.480692 0.821771
vt 0.462656 0.892018
vt 0.010156 0.671319
vt 0.079997 0.644406
vt 0.044254 0.667717
vt 0.462330 0.893296
vt 0.363979 0.871999
vt 0.417906 0.999781
vt 0.180894 0.905878
vt 0.211214 0.926339
vt 0.151369 0.927184
vt 0.432105 0.999781
vt 0.359627 0.798296
vt 0.329341 0.825147
vt 0.386839 0.999781
vt 0.298881 0.891138
vt 0.380070 1.000024
vt 0.307338 1.000024
vt 0.334880 0.898555
vt 0.095969 0.432562
vt 0.010156 0.431276
vt 0.010156 0.398660
vt 0.265186 1.000024
vt 0.239898 1.000024
vt 0.239968 0.910398
vt 0.267768 0.860783
vt 0.297710 0.999781
vt 0.009554 0.431384
vt 0.093871 0.436902
vt 0.086972 0.413221
vt 0.202414 0.914836
vt 0.196688 0.802296
vt 0.184322 0.800589
vt 0.117628 0.999781
vt 0.102109 0.947707
vt 0.039265 0.964220
vt 0.191148 0.775024
vt 0.167133 0.773191
vt 0.225497 0.888506
vt 0.213084 0.801976
vt 0.224475 0.802438
vt 0.186573 0.800832
vt 0.225358 0.895351
vt 0.222224 0.802195
vt 0.819590 0.933905
vt 0.741830 1.002771
vt 0.745676 0.981737
vt 0.169384 0.773434
vt 0.219437 0.773434
vt 0.241200 0.775024
vt 0.678604 0.929671
vt 0.702745 0.932100
vt 0.798477 0.934975
vt 0.755545 0.885339
vt 0.756364 0.860805
vt 0.008395 0.999781
vt 0.050191 0.999781
vt 0.006807 0.579017
vt 0.088521 0.542699
vt 0.142997 0.606255
vt 0.106762 0.390629
vt 0.009554 0.409522
vt 0.821998 0.059350
vt 0.793626 0.064078
vt 0.821998 0.017938
vt 0.109088 0.385467
vt 0.010156 0.356430
vt 0.010156 0.294247
vt 0.164845 0.936891
vt 0.132684 0.917898
vt 0.158955 0.999781
vt 0.251493 0.999781
vt 0.121032 0.522092
vt 0.010156 0.538976
vt 0.229751 1.000024
vt 0.202874 0.960390
vt 0.297894 0.904225
vt 0.270019 0.861025
vt 0.821997 0.148207
vt 0.768986 0.140328
vt 0.781726 0.108721
vt 0.175211 1.000024
vt 0.138634 1.000024
vt 0.092576 1.000024
vt 0.033907 1.000024
vt 0.054982 0.974363
vt 0.091565 0.955891
vt 0.098755 0.966742
vt 0.006807 0.497303
vt 0.006807 0.433747
vt 0.061283 0.470065
vt 0.131496 0.917612
vt 0.004047 1.000024
vt 0.032968 0.971590
vt 0.648570 0.954416
vt 0.658785 1.000024
vt 0.609179 1.000024
vt 0.010156 0.635279
vt 0.299877 0.892636
vt 0.355604 0.794775
vt 0.202357 0.999781
vt 0.088947 0.408461
vt 0.428579 0.656093
vt 0.423662 0.696384
vt 0.468944 0.689061
vt 0.531845 0.681720
vt 0.536419 0.712644
vt 0.610352 0.692828
vt 0.102623 0.365689
vt 0.112804 0.333641
vt 0.080802 0.297116
vt 0.248096 0.339680
vt 0.277080 0.531051
vt 0.282148 0.327738
vt 0.196955 0.568250
vt 0.171694 0.589610
vt 0.275180 0.560080
vt 0.523059 0.538596
vt 0.753690 0.411864
vt 0.394870 0.237242
vt 0.280495 0.557925
vt 0.282428 0.528381
vt 0.532773 0.536061
vt 0.269459 0.553689
vt 0.519237 0.554218
vt 0.535788 0.556253
vt 0.716599 0.481061
vt 0.595223 0.398790
vt 0.437154 0.342183
vt 0.464362 0.360988
vt 0.701500 0.500488
vt 0.703680 0.484556
vt 0.526021 0.558436
vt 0.709844 0.503462
vt 0.127878 0.521223
vt 0.090830 0.544067
vt 0.505343 0.387091
vt 0.948055 0.392623
vt 0.722873 0.500303
vt 0.965311 0.387497
vt 0.008771 0.540307
vt 0.173246 0.589150
vt 0.118191 0.524020
vt 0.665937 0.364567
vt 0.539998 0.204645
vt 0.660993 0.264792
vt 0.287140 0.166653
vt 0.009554 0.494631
vt 0.009554 0.385842
vt 0.124838 0.524541
vt 0.197472 0.569937
vt 0.278223 0.559193
vt 0.280150 0.529746
vt 0.065707 0.507251
vt 0.148340 0.599519
vt 0.175172 0.587980
vt 0.469280 0.659417
vt 0.505147 0.691113
vt 0.358231 0.813259
vt 0.396762 0.861519
vt 0.463835 0.781576
vt 0.334361 0.622665
vt 0.318366 0.723370
vt 0.458201 0.720399
vt 0.455465 0.629717
vt 0.535658 0.660000
vt 0.620783 0.673963
vt 0.453440 0.629177
vt 0.584055 0.653212
vt 0.584827 0.677850
vt 0.503016 0.653376
vt 0.539342 0.629326
vt 0.620698 0.651899
vt 0.732105 0.651967
vt 0.728838 0.643284
vt 0.621615 0.624442
vt 0.632604 0.637198
vt 0.636322 0.685307
vt 0.636814 0.636255
vt 0.621290 0.624515
vt 0.619952 0.697967
vt 0.621630 0.699173
vt 0.734007 0.671131
vt 0.729414 0.682004
vt 0.844311 0.686359
vt 0.621380 0.674077
vt 0.636178 0.688381
vt 0.733584 0.644686
vt 0.849901 0.650483
vt 0.851008 0.673148
vt 0.928244 0.660805
vt 0.843633 0.637183
vt 0.730695 0.682992
vt 0.844925 0.638417
vt 0.740409 0.775706
vt 0.713106 0.780706
vt 0.704568 0.818200
vt 0.896603 0.625215
vt 0.878631 0.609036
vt 0.785632 0.738775
vt 0.737278 0.738859
vt 0.880723 0.715185
vt 0.913616 0.613223
vt 0.897236 0.601821
vt 0.730897 0.812957
vt 0.780941 0.817868
vt 0.792510 0.817868
vt 0.790023 0.778792
vt 0.898074 0.698036
vt 0.711846 0.726905
vt 0.683097 0.727238
vt 0.685751 0.762377
vt 0.965266 0.662943
vt 0.955920 0.640956
vt 0.937049 0.627702
vt 0.714789 0.764119
vt 0.941121 0.702714
vt 0.919603 0.714522
vt 0.932540 0.731689
vt 0.929544 0.592491
vt 0.912862 0.581726
vt 0.967203 0.616180
vt 0.950630 0.603144
vt 0.902827 0.726042
vt 0.957928 0.692611
vt 0.950735 0.721911
vt 0.964856 0.713499
vt 0.615440 0.761890
vt 0.984016 0.535583
vt 0.918749 0.741460
vt 0.685114 0.782002
vt 0.679087 0.810945
vt 0.847072 0.686366
vt 0.914720 0.615321
vt 0.929979 0.594898
vt 0.950087 0.605671
vt 0.608583 0.784975
vt 0.984016 0.786714
vt 0.799318 0.743667
vt 0.831117 0.767611
vt 0.823981 0.791937
vt 0.982769 0.539053
vt 0.825639 0.742255
vt 0.886191 0.771748
vt 0.391135 0.800147
vt 0.375753 0.599215
vt 0.324001 0.784547
vt 0.429296 0.757561
vt 0.279186 0.533620
vt 0.270107 0.551779
vt 0.178643 0.905635
vt 0.750796 0.933481
vt 0.821997 0.285131
vt 0.821997 0.331456
vt 0.791374 0.330169
vt 0.821998 0.110806
vt 0.821997 0.238271
vt 0.779153 0.273656
vt 0.544401 1.000024
vt 0.473816 0.822014
vt 0.821997 0.190377
vt 0.754407 0.181463
vt 0.759288 0.228469
vt 0.375409 0.872242
vt 0.334031 0.621557
vt 0.821996 0.381399
vt 0.647236 0.956984
vt 0.563654 0.943411
vt 0.541813 1.000083
vt 0.434491 1.000083
vt 0.389226 1.000083
vt 0.329218 0.822939
vt 0.586026 1.000083
vt 0.561360 0.944666
vt 0.644941 0.954474
vt 0.559653 1.000083
vt 0.500362 0.770922
vt 0.043124 0.669810
vt 0.006807 0.660730
vt 0.006807 0.624413
vt 0.658921 1.000083
vt 0.631985 1.000083
vt 0.064720 0.466534
vt 0.558639 0.973714
vt 0.530104 0.984870
vt 0.473951 0.822073
vt 0.493413 0.964305
vt 0.434192 0.893597
vt 0.295305 0.904284
vt 0.262597 1.000083
vt 0.304749 1.000083
vt 0.376800 0.873555
vt 0.178305 0.905936
vt 0.128907 0.917671
vt 0.148780 0.927242
vt 0.502657 0.770922
vt 0.507272 1.000083
vt 0.353495 1.000083
vt 0.300013 0.892694
vt 0.377481 1.000083
vt 0.332291 0.898614
vt 0.094303 0.434241
vt 0.087304 0.410219
vt 0.008771 0.400451
vt 0.237380 0.910457
vt 0.237309 1.000083
vt 0.300096 1.000083
vt 0.270155 0.861084
vt 0.006807 0.415589
vt 0.088521 0.415589
vt 0.186709 0.800890
vt 0.199074 0.802597
vt 0.204801 0.915138
vt 0.120014 1.000083
vt 0.052578 1.000083
vt 0.041652 0.964521
vt 0.169520 0.773492
vt 0.193534 0.775326
vt 0.221886 0.802496
vt 0.210495 0.802034
vt 0.222908 0.888565
vt 0.183984 0.800890
vt 0.224610 0.802496
vt 0.227744 0.895652
vt 0.818979 0.933781
vt 0.797866 0.934852
vt 0.745065 0.981613
vt 0.216848 0.773492
vt 0.166795 0.773492
vt 0.243587 0.775326
vt 0.240862 0.775326
vt 0.741219 1.002647
vt 0.702134 0.931977
vt 0.754934 0.885215
vt 0.677993 0.929547
vt 0.030379 0.971649
vt 0.004640 1.000083
vt 0.031318 1.000083
vt 0.390828 0.798355
vt 0.376482 0.598671
vt 0.336115 0.622653
vt 0.006807 0.406510
vt 0.106679 0.388351
vt 0.851059 0.063308
vt 0.457276 0.719815
vt 0.453813 0.628344
vt 0.253879 1.000083
vt 0.204744 1.000083
vt 0.225632 0.888565
vt 0.161342 1.000083
vt 0.104496 0.948009
vt 0.135070 0.918200
vt 0.167232 0.937192
vt 0.355525 0.798597
vt 0.332768 0.820429
vt 0.208625 0.926398
vt 0.267430 0.861084
vt 0.864773 0.108127
vt 0.136045 1.000083
vt 0.172622 1.000083
vt 0.052394 0.974421
vt 0.089988 1.000083
vt 0.088976 0.955950
vt 0.096166 0.966800
vt 0.606590 1.000083
vt 0.656197 1.000083
vt 0.078383 0.645391
vt 0.146502 0.600651
vt 0.008771 0.636294
vt 0.200285 0.960449
vt 0.180124 1.000083
vt 0.042758 0.668625
vt 0.008771 0.672215
vt 0.297289 0.892694
vt 0.107379 0.387301
vt 0.008771 0.358360
vt 0.428686 0.656513
vt 0.468892 0.659410
vt 0.468203 0.688038
vt 0.531875 0.681591
vt 0.621501 0.673619
vt 0.608476 0.692734
vt 0.251948 0.333875
vt 0.279186 0.324796
vt 0.279186 0.560858
vt 0.760390 0.406510
vt 0.524328 0.542699
vt 0.397217 0.234002
vt 0.532678 0.557526
vt 0.529674 0.537400
vt 0.524328 0.551779
vt 0.719149 0.501760
vt 0.712896 0.482582
vt 0.596962 0.397430
vt 0.442614 0.342954
vt 0.469852 0.361113
vt 0.714994 0.488223
vt 0.705914 0.497303
vt 0.714994 0.506382
vt 0.533407 0.560858
vt 0.185212 0.068914
vt 0.118861 0.520693
vt 0.506169 0.388351
vt 0.960135 0.388351
vt 0.960792 0.389324
vt 0.669597 0.361113
vt 0.542487 0.197685
vt 0.705914 0.097813
vt 0.669597 0.261240
vt 0.288266 0.161368
vt 0.117270 0.522284
vt 0.006807 0.379272
vt 0.198872 0.567482
vt 0.136648 0.556264
vt 0.227162 1.000083
vt 0.376585 0.873555
vt 0.431468 0.893597
vt 0.502840 0.652110
vt 0.505978 0.691525
vt 0.357939 0.812192
vt 0.429570 0.757383
vt 0.464592 0.782081
vt 0.086436 0.358292
vt 0.458958 0.720904
vt 0.335392 0.623349
vt 0.318170 0.722492
vt 0.453772 0.629519
vt 0.502319 0.652263
vt 0.535541 0.658953
vt 0.620485 0.651860
vt 0.585286 0.677959
vt 0.585036 0.653036
vt 0.537196 0.712397
vt 0.539568 0.628809
vt 0.609924 0.637981
vt 0.736240 0.644628
vt 0.738065 0.654240
vt 0.620479 0.651731
vt 0.636644 0.688789
vt 0.634341 0.636845
vt 0.620659 0.626212
vt 0.621630 0.626169
vt 0.634415 0.636711
vt 0.621747 0.698284
vt 0.637904 0.688632
vt 0.622722 0.698509
vt 0.739936 0.673088
vt 0.855011 0.675072
vt 0.848424 0.688066
vt 0.735290 0.683841
vt 0.733904 0.683902
vt 0.735955 0.644357
vt 0.853922 0.652780
vt 0.930976 0.662932
vt 0.847757 0.639699
vt 0.846770 0.687464
vt 0.844901 0.639940
vt 0.705288 0.816480
vt 0.713826 0.778987
vt 0.740720 0.773576
vt 0.882179 0.612015
vt 0.899856 0.627928
vt 0.785942 0.736645
vt 0.737589 0.736729
vt 0.901302 0.699551
vt 0.884237 0.716418
vt 0.900479 0.604918
vt 0.916589 0.616133
vt 0.731208 0.810827
vt 0.781252 0.815738
vt 0.790334 0.776663
vt 0.792820 0.815738
vt 0.685652 0.759838
vt 0.682998 0.724699
vt 0.711337 0.723956
vt 0.939637 0.630374
vt 0.958197 0.643410
vt 0.714280 0.761171
vt 0.943641 0.704152
vt 0.953097 0.723032
vt 0.935201 0.732650
vt 0.915847 0.585154
vt 0.932255 0.595743
vt 0.952994 0.606220
vt 0.969294 0.619042
vt 0.922477 0.715765
vt 0.905978 0.727096
vt 0.960172 0.694215
vt 0.966986 0.714759
vt 0.617389 0.759351
vt 0.985830 0.539770
vt 0.921638 0.742261
vt 0.680217 0.809225
vt 0.686244 0.780282
vt 0.937908 0.632033
vt 0.914075 0.616766
vt 0.799629 0.741538
vt 0.950384 0.606690
vt 0.929177 0.595962
vt 0.606845 0.782846
vt 0.985831 0.786770
vt 0.825950 0.740125
vt 0.831428 0.765482
vt 0.824292 0.789807
vt 0.983405 0.540292
vt 0.886502 0.769618
vt 0.079441 0.642572
vt 0.323805 0.783669
vt 0.434321 0.717690
vt 0.181030 0.905936
vt 0.750185 0.933357
vt 0.852619 0.330170
vt 0.864841 0.273657
vt 0.471659 1.000083
vt 0.471227 0.822073
vt 0.875009 0.140328
vt 0.884706 0.228470
vt 0.005478 0.997961
vt 0.114251 0.350647
vt 0.008771 0.296380
vt 0.128249 0.435302
vt 0.008771 0.432960
vt 0.118380 0.522092
vt 0.175368 0.588619
vt 0.080720 0.522092
vt 0.116882 0.518706
vt 0.184949 0.068196
vt 0.118473 0.523480
vt 0.062823 0.510229
vt 0.088521 0.433747
vt 0.009554 0.660973
vt 0.474881 0.981892
vt 0.498876 0.974226
vt 0.010156 0.675711
vt 0.499828 0.971670
vt 0.345428 0.798296
vt 0.351108 0.999781
vt 0.009554 0.417542
vt 0.227609 0.895594
vt 0.243451 0.775267
vt 0.115982 0.348692
vt 0.223246 0.888263
vt 0.129915 0.437866
vt 0.182713 1.000024
vt 0.326573 0.827899
vt 0.051738 0.313685
vt 0.695543 0.105347
vt 0.187334 0.073157
vt 0.119252 0.520838
vt 0.200882 0.566241
vt 0.375541 0.599880
vt 0.459519 0.720731
vt 0.609394 0.637996
vt 0.636730 0.636125
vt 0.637405 0.688736
vt 0.938273 0.630062
vt 0.434214 0.717270
vt 0.356995 0.797342
vt 0.225020 0.895652
vt 0.755753 0.860681
vt 0.008771 0.676593
vt 0.423936 0.696206
vt 0.170235 0.588096
vt 0.430293 1.000083
vt 0.396997 0.861241
vt 0.057372 0.374862
vt 0.634627 0.636963
vt 0.637990 0.688597
vt 0.967389 0.665035
vt 0.889587 0.181464
vt 0.376483 0.598964
vn 0.169600 -0.939500 -0.297700
vn 0.102100 -0.691400 -0.715200
vn -0.914300 0.009100 -0.404900
vn 0.146200 -0.925600 -0.349000
vn -0.927400 -0.132200 -0.350000
vn -0.387400 0.072900 -0.919000
vn -0.899300 -0.113400 -0.422200
vn -0.189100 0.981800 -0.014300
vn -0.198600 0.978200 0.059800
vn -0.479400 0.194900 0.855700
vn -0.723500 0.016600 0.690100
vn -0.068000 -0.756500 0.650400
vn -0.193000 0.973100 -0.126100
vn -0.066000 -0.084000 -0.994300
vn -0.804500 -0.591300 -0.055500
vn -0.073900 -0.668600 0.739900
vn -0.802200 -0.404500 0.439000
vn -0.181400 0.907900 0.377800
vn 0.052200 0.782700 0.620200
vn -0.297700 0.378500 -0.876400
vn -0.196500 0.907500 0.371300
vn -0.837000 -0.547100 0.011300
vn -0.634200 -0.623100 -0.457700
vn -0.550100 -0.705100 -0.447400
vn -0.961300 -0.006300 -0.275200
vn -0.699800 -0.325600 0.635800
vn -0.176100 0.771600 0.611200
vn -0.917400 0.355200 0.179500
vn 0.071000 -0.381300 -0.921700
vn 0.124400 -0.609900 -0.782600
vn -0.279200 -0.816100 -0.506000
vn -0.985100 0.031200 -0.169200
vn 0.055500 0.492900 -0.868300
vn 0.058700 0.561300 -0.825500
vn 0.153400 -0.136100 -0.978700
vn 0.112100 0.522300 -0.845300
vn -0.563200 -0.549000 -0.617500
vn -0.991000 0.106800 -0.080200
vn -0.196000 0.863800 0.464200
vn -0.052000 -0.985500 0.161300
vn -0.952200 0.280600 0.120500
vn -0.496100 0.272300 0.824400
vn 0.402900 0.286400 0.869300
vn 0.435400 -0.876200 0.206400
vn -0.168300 0.741200 0.649800
vn -0.822200 -0.537100 0.188600
vn -0.767800 -0.640400 0.019000
vn 0.026200 0.256800 0.966100
vn 0.120600 -0.954500 0.272600
vn -0.822000 -0.341300 -0.455900
vn 0.287700 -0.191800 -0.938300
vn 0.265000 0.944500 -0.193700
vn -0.485200 0.799000 0.355300
vn -0.024600 0.962100 -0.271400
vn -0.743000 0.637500 -0.203700
vn 0.104700 -0.248300 -0.963000
vn -0.645000 -0.256500 -0.719800
vn -0.713900 0.143700 0.685300
vn -0.627900 -0.759700 0.168800
vn 0.197900 -0.957800 0.208400
vn -0.086900 0.300300 0.949900
vn 0.832600 -0.524200 0.178900
vn 0.771500 -0.074600 0.631800
vn -0.688900 0.535500 -0.488500
vn -0.066700 -0.550800 0.831900
vn -0.189600 0.727100 0.659700
vn -0.802100 -0.287500 0.523500
vn -0.017500 -0.302200 0.953100
vn 0.041300 0.370700 -0.927800
vn -0.007500 -0.585500 -0.810600
vn -0.755100 0.124800 0.643500
vn -0.755800 -0.639700 0.139400
vn -0.146900 0.664100 0.733100
vn -0.172000 0.760000 0.626700
vn -0.750800 0.251200 -0.610900
vn 0.075000 0.736900 -0.671800
vn 0.000000 0.947200 0.320600
vn -0.564300 -0.535200 -0.628600
vn -0.161900 0.591200 0.790100
vn -0.771100 -0.048300 0.634800
vn -0.699900 -0.179800 0.691200
vn 0.060900 -0.833200 -0.549600
vn 0.163000 -0.806800 -0.567800
vn 0.209800 -0.826400 -0.522500
vn 0.200900 -0.914900 -0.350000
vn -0.530600 -0.729800 -0.431100
vn -0.454200 -0.851300 -0.262500
vn -0.063100 -0.985700 0.155900
vn 0.672800 -0.739400 -0.023000
vn 0.109000 -0.987100 -0.116900
vn 0.040800 0.974500 0.220400
vn -0.149000 0.621300 0.769300
vn 0.509400 0.785900 0.350400
vn -0.673000 0.715400 -0.187500
vn -0.666800 0.726600 0.165400
vn -0.650200 -0.714500 0.258100
vn -0.910500 -0.183400 -0.370600
vn -0.492500 0.458300 -0.739900
vn 0.007500 -0.999900 -0.005100
vn -0.274000 -0.961500 0.020800
vn -0.686100 -0.499200 0.529100
vn -0.627300 -0.716800 -0.304400
vn -0.592400 -0.752500 0.287700
vn -0.302400 -0.714300 0.631100
vn 0.266400 0.935000 0.234100
vn 0.678900 0.667200 0.306400
vn -0.563400 -0.826000 0.017500
vn -0.053100 -0.995200 -0.081300
vn -0.328000 -0.937600 0.115700
vn -0.138500 -0.764700 0.629300
vn 0.109200 -0.700100 0.705600
vn 0.628700 0.706800 0.324200
vn -0.374300 -0.797800 -0.472600
vn -0.244300 -0.932800 0.264700
vn -0.178900 -0.961800 -0.207100
vn -0.138500 -0.986600 0.086300
vn 0.342400 -0.637100 0.690500
vn 0.175300 0.892400 0.415700
vn -0.891900 -0.427500 0.147200
vn -0.230300 -0.894800 0.382500
vn 0.112200 -0.912800 -0.392600
vn -0.317400 0.884500 0.341700
vn 0.828500 0.150600 -0.539400
vn -0.081200 -0.902400 0.423100
vn 0.235100 -0.886100 -0.399400
vn 0.031600 -0.812200 0.582400
vn -0.697300 -0.213100 0.684400
vn -0.024100 0.513400 0.857800
vn 0.359300 -0.708500 0.607300
vn -0.715700 0.630100 0.301200
vn 0.670200 -0.657200 -0.344600
vn -0.881300 -0.180600 -0.436600
vn 0.266300 0.702900 0.659600
vn -0.881400 -0.198600 0.428500
vn -0.793700 -0.394700 -0.462800
vn 0.871200 -0.168300 0.461100
vn 0.336800 -0.653200 0.678100
vn -0.995100 0.007800 -0.098600
vn 0.845500 0.470700 -0.252000
vn 0.305700 -0.150100 0.940200
vn 0.856800 0.095800 0.506600
vn 0.326900 0.932100 0.156000
vn 0.876300 -0.381200 0.294400
vn 0.777500 -0.186000 -0.600700
vn 0.769600 -0.622000 0.144500
vn -0.510000 -0.819200 -0.262400
vn -0.465700 -0.138600 -0.874000
vn -0.827100 0.495000 -0.266100
vn -0.492200 -0.827300 -0.270800
vn -0.575200 -0.301600 -0.760400
vn 0.197800 0.915400 0.350500
vn -0.740600 0.671900 -0.006000
vn -0.476700 0.545100 0.689600
vn 0.985500 0.163200 -0.046600
vn 0.338200 -0.829600 -0.444100
vn 0.809600 -0.552500 -0.198200
vn -0.607200 0.012400 -0.794400
vn 0.269500 0.844900 0.462100
vn 0.948000 -0.195400 -0.251200
vn -0.413800 -0.335800 -0.846100
vn 0.187200 0.606400 0.772800
vn 0.991100 0.048400 -0.124300
vn -0.830000 -0.126800 -0.543200
vn 0.125600 -0.767700 0.628300
vn -0.685400 0.712900 0.148000
vn 0.960800 0.089300 -0.262300
vn -0.460400 -0.183300 -0.868600
vn -0.520700 -0.619100 -0.587800
vn -0.883100 0.176500 0.434600
vn 0.308700 -0.184700 0.933000
vn -0.773800 0.378300 0.508100
vn -0.901300 -0.108600 0.419300
vn 0.385300 -0.080800 0.919200
vn -0.800500 -0.355000 0.482900
vn 0.296200 -0.571900 0.765000
vn 0.847100 -0.215600 -0.485700
vn 0.168300 -0.931400 -0.322800
vn -0.504600 0.203600 -0.839000
vn 0.647800 0.628300 -0.430600
vn 0.790500 0.411100 -0.454000
vn -0.269700 -0.732500 -0.625000
vn -0.115900 -0.900800 -0.418400
vn -0.189100 0.235000 0.953400
vn 0.511600 -0.643700 0.569000
vn -0.035200 -0.668300 0.743000
vn 0.194600 -0.802600 0.563800
vn -0.995100 -0.096100 -0.024900
vn 0.190700 -0.850700 -0.489800
vn 0.144800 -0.591300 -0.793300
vn -0.155200 0.441400 0.883800
vn 0.178100 -0.919900 -0.349200
vn 0.121000 -0.948500 -0.292600
vn -0.027400 -0.559400 0.828400
vn 0.852400 0.127800 -0.507000
vn 0.444900 0.150200 -0.882900
vn 0.718700 0.001100 0.695300
vn 0.935200 0.174500 -0.307900
vn 0.791100 -0.570500 0.220400
vn -0.060400 -0.954600 0.291500
vn -0.747700 -0.661300 -0.060000
vn 0.865200 -0.092400 0.492900
vn -0.193100 0.905400 0.378000
vn 0.942200 0.232900 -0.240900
vn 0.793300 -0.255600 -0.552600
vn 0.259900 0.471000 -0.843000
vn 0.954200 -0.244200 0.172600
vn 0.631200 0.211900 0.746100
vn 0.779000 -0.539600 -0.319300
vn -0.208000 0.907700 0.364300
vn 0.672300 0.645800 0.361800
vn 0.619600 -0.620500 -0.480700
vn 0.979300 -0.111100 -0.169300
vn 0.996200 -0.033900 0.080700
vn 0.864900 -0.337000 -0.371900
vn 0.865500 0.498200 0.050600
vn -0.048800 -0.884200 0.464500
vn -0.079500 -0.995600 -0.050000
vn -0.434900 -0.194600 0.879100
vn 0.265900 0.423800 0.865800
vn 0.960600 -0.271200 0.059600
vn 0.237300 -0.944600 0.226700
vn -0.107900 0.279000 0.954200
vn -0.587300 0.793800 -0.157700
vn -0.118400 -0.236900 -0.964300
vn 0.961500 0.002300 -0.274900
vn 0.148000 0.895800 0.418900
vn 0.582500 0.344100 0.736400
vn 0.498300 0.854100 -0.148900
vn 0.054900 -0.245400 -0.967800
vn -0.279400 0.922800 -0.265100
vn 0.734300 -0.010900 -0.678700
vn 0.825300 -0.523100 0.212600
vn 0.763800 0.010000 0.645300
vn 0.237300 -0.970700 0.036500
vn 0.764500 0.445700 -0.465700
vn 0.919800 -0.217900 -0.326300
vn -0.896500 -0.130900 0.423300
vn 0.965700 -0.136300 0.220800
vn 0.890200 -0.397400 0.222600
vn 0.622100 0.314900 0.716800
vn 0.907300 0.359900 -0.217600
vn 0.842100 -0.465000 -0.273100
vn 0.598400 0.070600 0.798100
vn 0.820700 -0.469200 -0.326000
vn 0.756100 -0.630200 -0.176600
vn 0.473800 0.093800 0.875600
vn -0.490300 0.810600 0.320000
vn -0.264900 0.712100 0.650100
vn 0.688700 0.696000 0.202800
vn 0.605500 -0.746900 0.274700
vn 0.995600 -0.064900 -0.067700
vn 0.548900 0.450400 -0.704100
vn 0.740000 -0.505600 0.443400
vn 0.660100 -0.713900 0.233600
vn 0.168000 -0.985200 0.033900
vn 0.595400 -0.801000 -0.062300
vn 0.440700 -0.893900 0.081900
vn -0.623200 0.749000 0.224900
vn -0.272000 -0.690800 0.669900
vn -0.331200 0.885600 0.325600
vn 0.434300 -0.812500 -0.388900
vn 0.319300 -0.947100 0.032000
vn 0.267500 -0.931200 -0.247600
vn 0.250700 -0.968000 -0.003900
vn -0.320700 -0.657000 0.682200
vn -0.678900 -0.021300 0.733900
vn 0.328500 -0.922100 0.204400
vn 0.079900 -0.996300 -0.029800
vn 0.153300 -0.976400 0.152000
vn -0.134400 -0.903200 -0.407600
vn -0.117700 -0.992800 -0.022600
vn 0.073400 -0.890700 0.448700
vn 0.800700 -0.141600 0.582000
vn -0.352800 -0.146000 0.924200
vn 0.851200 -0.243500 0.464900
vn 0.785700 -0.467500 -0.405200
vn 0.706400 0.690800 -0.154100
vn -0.393400 -0.648900 0.651200
vn -0.876500 0.173900 0.448900
vn -0.809400 0.517700 -0.277000
vn -0.907300 -0.332500 0.257100
vn -0.292600 0.948900 0.118300
vn 0.469500 -0.862400 -0.189000
vn -0.832800 -0.533200 0.149000
vn -0.754300 -0.167800 -0.634700
vn 0.489600 -0.194300 -0.850000
vn 0.855100 0.460900 -0.237300
vn 0.756100 0.654100 -0.019400
vn 0.593200 -0.357500 -0.721300
vn 0.470700 -0.850400 -0.234900
vn -0.177400 0.938200 0.297100
vn 0.500600 0.551800 0.667000
vn -0.978900 0.184000 -0.089400
vn 0.561000 -0.030200 -0.827300
vn -0.841400 -0.519400 -0.149100
vn -0.393200 -0.848500 -0.354200
vn -0.969200 -0.148200 -0.196700
vn -0.205800 0.869700 0.448600
vn 0.703400 0.702000 0.110800
vn 0.393800 -0.378800 -0.837500
vn -0.992500 0.097500 -0.074000
vn -0.127100 0.589700 0.797500
vn -0.096300 -0.717000 0.690300
vn 0.848400 -0.167700 -0.502000
vn 0.378700 -0.196500 -0.904400
vn -0.980600 0.092400 -0.172700
vn 0.918000 0.138700 0.371500
vn 0.424800 -0.692300 -0.583300
vn -0.262800 -0.161000 0.951300
vn -0.262800 -0.552200 0.791200
vn 0.923200 -0.157400 0.350600
vn -0.309500 -0.096300 0.946000
vn 0.841800 -0.347800 0.412700
vn 0.808600 0.359200 0.465900
vn -0.888700 -0.183400 -0.420200
vn -0.177100 -0.938000 -0.298000
vn 0.466300 0.177300 -0.866700
vn -0.599700 0.649100 -0.468000
vn 0.270400 -0.748000 -0.606100
vn -0.747900 0.443200 -0.494100
vn 0.013000 -0.902200 -0.431000
vn 0.153000 0.230200 0.961000
vn -0.568900 -0.616900 0.543900
vn 0.971700 0.232400 0.040900
vn 0.738000 -0.022400 0.674400
vn 0.871300 -0.277000 -0.405000
vn 0.237000 -0.970900 0.035200
s 1
f 181/1/1 182/2/2 14/3/3
f 180/4/4 9/5/5 4/6/6
f 3/7/7 4/8/6 7/9/8
f 4/8/6 9/10/5 8/11/9
f 6/12/10 73/13/11 57/14/12
f 3/7/7 5/15/13 1/16/14
f 76/17/15 6/12/10 10/18/16
f 8/19/9 9/10/5 12/20/17
f 11/21/18 12/22/17 14/23/3
f 15/24/19 6/25/10 76/26/15
f 14/27/3 77/28/20 16/29/21
f 32/30/22 61/31/23 64/32/24
f 16/33/21 17/34/25 20/35/26
f 19/36/27 20/35/26 23/37/28
f 18/38/29 21/39/30 78/40/31
f 42/41/32 58/42/33 79/43/34
f 24/44/35 27/45/36 60/46/37
f 23/37/28 26/47/38 25/48/39
f 41/49/40 42/50/32 80/51/41
f 40/52/42 47/53/43 44/54/44
f 33/55/45 34/56/46 37/57/47
f 47/53/43 51/58/48 48/59/49
f 29/60/50 45/61/51 46/62/52
f 29/60/50 32/30/22 44/63/44
f 39/64/53 46/65/52 47/53/43
f 51/66/48 50/67/54 54/68/55
f 44/63/44 48/69/49 49/70/56
f 46/65/52 50/71/54 51/58/48
f 46/62/52 45/61/51 49/70/56
f 50/67/54 49/72/56 53/73/57
f 51/66/48 55/74/58 52/75/59
f 49/72/56 48/76/49 52/75/59
f 37/57/47 38/77/60 36/78/61
f 57/79/12 249/80/62 229/81/63
f 80/51/41 82/82/64 81/83/65
f 187/84/66 71/85/67 70/86/68
f 82/87/64 83/88/69 86/89/70
f 176/90/71 174/91/72 175/92/73
f 28/93/74 39/64/53 40/52/42
f 26/47/38 39/64/53 25/48/39
f 175/92/73 174/91/72 34/56/46
f 66/94/75 56/95/76 58/42/33
f 27/45/36 74/96/77 76/97/15
f 60/46/37 61/31/23 29/60/50
f 59/98/78 60/46/37 26/99/38
f 29/60/50 61/31/23 32/30/22
f 185/100/79 62/101/80 67/102/81
f 30/103/82 63/104/83 64/32/24
f 65/105/84 69/106/85 72/107/86
f 67/108/81 68/109/87 72/107/86
f 35/110/88 41/111/40 325/112/89
f 62/113/80 64/32/24 68/109/87
f 63/104/83 65/105/84 68/109/87
f 69/106/85 70/114/68 71/115/67
f 3/116/7 1/117/14 178/118/90
f 6/25/10 15/24/19 2/119/91
f 61/31/23 60/46/37 76/97/15
f 30/103/82 61/31/23 76/97/15
f 21/39/30 24/44/35 59/98/78
f 78/40/31 59/98/78 23/120/28
f 17/121/25 18/38/29 78/40/31
f 31/122/92 40/52/42 176/90/71
f 80/123/41 79/43/34 83/88/69
f 120/124/93 119/125/94 123/126/95
f 126/127/96 118/128/97 127/129/98
f 86/130/70 89/131/99 88/132/100
f 114/133/101 93/134/102 112/135/103
f 91/136/104 90/137/105 94/138/106
f 93/134/102 98/139/107 104/140/108
f 112/135/103 93/134/102 109/141/109
f 94/142/106 93/143/102 98/144/107
f 92/145/110 96/146/111 98/139/107
f 99/147/112 98/144/107 97/148/113
f 93/134/102 104/140/108 115/149/114
f 111/150/115 93/134/102 116/151/116
f 96/146/111 100/152/117 97/153/113
f 99/154/112 95/155/118 100/152/117
f 73/13/11 66/156/75 102/157/119
f 93/134/102 113/158/120 116/151/116
f 100/152/117 95/155/118 101/159/121
f 95/160/118 97/148/113 101/161/121
f 97/153/113 100/152/117 101/159/121
f 94/138/106 99/154/112 96/146/111
f 98/139/107 97/153/113 104/140/108
f 56/162/76 237/163/122 224/164/123
f 97/153/113 101/159/121 104/140/108
f 104/140/108 105/165/124 115/149/114
f 108/166/125 111/150/115 116/151/116
f 116/151/116 113/158/120 106/167/126
f 110/168/127 112/135/103 109/141/109
f 115/149/114 105/165/124 106/167/126
f 114/133/101 112/135/103 110/168/127
f 108/166/125 109/141/109 111/150/115
f 57/14/12 73/13/11 102/157/119
f 35/169/88 57/14/12 102/157/119
f 81/83/65 82/82/64 84/170/128
f 109/141/109 93/134/102 111/150/115
f 93/134/102 115/149/114 113/158/120
f 224/171/123 238/172/129 229/81/63
f 237/163/122 241/173/130 240/174/131
f 66/156/75 327/175/132 102/157/119
f 73/176/11 2/119/91 90/177/105
f 124/178/133 123/126/95 122/179/134
f 85/180/135 88/181/100 118/182/97
f 84/183/128 82/184/64 120/124/93
f 118/185/97 122/179/134 123/126/95
f 84/183/128 120/124/93 117/186/136
f 117/186/136 120/124/93 124/178/133
f 125/187/137 126/127/96 130/188/138
f 117/189/136 128/190/139 127/191/98
f 126/127/96 125/187/137 121/192/140
f 122/179/134 118/128/97 126/127/96
f 117/193/136 125/187/137 129/194/141
f 129/194/141 135/195/142 137/196/143
f 117/193/136 121/192/140 125/187/137
f 133/197/144 134/198/145 132/199/146
f 129/194/141 134/200/145 133/201/144
f 128/190/139 133/197/144 131/202/147
f 130/188/138 127/129/98 131/203/147
f 136/204/148 138/205/149 142/206/150
f 130/207/138 136/204/148 135/195/142
f 130/207/138 132/208/146 138/205/149
f 132/199/146 134/198/145 137/209/143
f 139/210/151 140/211/152 147/212/153
f 136/204/148 140/211/152 139/210/151
f 135/195/142 139/210/151 141/213/154
f 138/214/149 137/209/143 141/215/154
f 148/216/155 158/217/156 161/218/157
f 139/210/151 143/219/158 145/220/159
f 141/221/154 145/222/159 148/216/155
f 140/211/152 142/206/150 146/223/160
f 143/219/158 150/224/161 149/225/162
f 146/226/160 142/227/150 148/216/155
f 142/227/150 168/228/163 167/229/164
f 140/211/152 144/230/165 147/212/153
f 143/219/158 139/210/151 147/212/153
f 149/231/162 153/232/166 156/233/167
f 147/212/153 148/234/155 152/235/168
f 147/212/153 151/236/169 150/224/161
f 145/222/159 149/231/162 152/237/168
f 160/238/170 159/239/171 164/240/172
f 150/224/161 154/241/173 153/242/166
f 151/236/169 152/235/168 156/243/167
f 151/236/169 155/244/174 154/241/173
f 147/212/153 144/230/165 159/239/171
f 144/230/165 146/223/160 161/245/157
f 147/212/153 160/238/170 158/246/156
f 160/238/170 162/247/175 163/248/176
f 156/233/167 153/232/166 157/249/177
f 153/242/166 154/241/173 157/250/177
f 155/244/174 156/243/167 157/250/177
f 154/241/173 155/244/174 157/250/177
f 159/239/171 161/245/157 165/251/178
f 158/217/156 163/252/176 165/253/178
f 142/254/150 141/215/154 169/255/179
f 141/221/154 148/216/155 167/229/164
f 169/255/179 172/256/180 171/257/181
f 165/253/178 163/252/176 166/258/182
f 163/248/176 162/247/175 166/259/182
f 162/247/175 164/240/172 166/259/182
f 164/240/172 165/251/178 166/259/182
f 169/260/179 167/229/164 170/261/183
f 167/229/164 168/228/163 171/262/181
f 171/257/181 172/256/180 173/263/184
f 172/264/180 170/261/183 173/265/184
f 170/261/183 171/262/181 173/265/184
f 88/266/100 87/267/185 117/189/136
f 82/268/64 85/180/135 119/269/94
f 240/270/131 239/271/186 238/172/129
f 40/52/42 32/272/22 176/90/71
f 176/90/71 32/272/22 174/91/72
f 54/68/55 53/73/57 177/273/187
f 53/73/57 52/75/59 177/273/187
f 52/75/59 55/74/58 177/273/187
f 55/74/58 54/68/55 177/273/187
f 183/274/188 184/275/189 37/276/47
f 71/85/67 187/84/66 186/277/190
f 188/278/191 183/274/188 34/279/46
f 3/116/7 178/118/90 179/280/192
f 180/4/4 181/1/1 12/281/17
f 189/282/193 32/283/22 62/101/80
f 189/282/193 188/278/191 174/284/72
f 18/38/29 17/121/25 77/285/20
f 88/266/100 89/286/99 87/267/185
f 37/276/47 184/275/189 38/287/60
f 190/288/194 191/289/195 179/290/192
f 16/291/21 19/292/27 197/293/196
f 7/294/8 191/295/195 190/296/194
f 8/297/9 193/298/197 191/295/195
f 230/299/198 75/300/199 10/301/16
f 190/296/194 1/302/14 5/303/13
f 327/175/132 66/156/75 324/304/200
f 8/305/9 11/306/18 194/307/201
f 11/306/18 13/308/202 195/309/203
f 219/310/204 24/311/35 21/312/30
f 16/291/21 231/313/205 195/309/203
f 201/314/206 222/315/207 223/316/208
f 191/289/195 193/317/197 180/318/4
f 19/292/27 22/319/209 198/320/210
f 18/321/29 232/322/211 21/312/30
f 206/323/212 233/324/213 79/325/34
f 220/326/214 27/327/36 24/311/35
f 25/328/39 199/329/215 198/320/210
f 41/111/40 43/330/216 233/331/213
f 207/332/217 210/333/218 205/334/219
f 33/335/45 36/336/61 203/337/220
f 211/338/221 214/339/222 210/333/218
f 209/340/223 208/341/224 200/342/225
f 200/342/225 208/341/224 207/343/217
f 210/333/218 209/344/223 204/345/226
f 214/346/222 218/347/227 217/348/228
f 212/349/229 211/350/221 207/343/217
f 214/339/222 213/351/230 209/344/223
f 209/340/223 213/352/230 212/349/229
f 213/353/230 217/348/228 216/354/231
f 215/355/232 218/347/227 214/346/222
f 212/356/229 216/354/231 215/355/232
f 227/357/233 70/358/68 69/359/85
f 236/360/234 87/361/185 89/362/99
f 81/363/65 234/364/235 233/331/213
f 187/84/66 70/86/68 227/365/233
f 236/360/234 265/366/236 264/367/237
f 28/368/74 31/369/92 205/334/219
f 204/345/226 200/370/225 199/329/215
f 175/371/73 33/335/45 202/372/238
f 175/371/73 321/373/239 322/374/240
f 196/375/241 197/376/196 232/322/211
f 200/342/225 221/377/242 220/326/214
f 199/378/215 220/326/214 219/310/204
f 200/342/225 201/314/206 221/377/242
f 185/100/79 186/277/190 225/379/243
f 223/316/208 63/380/83 30/381/82
f 228/382/244 69/359/85 65/383/84
f 225/384/243 227/357/233 228/382/244
f 222/315/207 225/384/243 226/385/245
f 226/385/245 65/383/84 63/380/83
f 186/277/190 187/84/66 227/365/233
f 190/288/194 178/386/90 1/387/14
f 192/388/246 229/389/63 2/390/91
f 221/377/242 230/391/198 220/326/214
f 30/381/82 75/392/199 230/391/198
f 230/393/198 192/388/246 15/394/19
f 198/395/210 219/310/204 232/322/211
f 31/369/92 322/374/240 205/334/219
f 233/324/213 234/396/235 83/397/69
f 267/398/247 271/399/248 270/400/249
f 273/401/250 277/402/251 274/403/252
f 261/404/253 259/405/254 240/270/131
f 238/172/129 239/271/186 241/406/130
f 240/270/131 251/407/255 245/408/256
f 259/405/254 256/409/257 240/270/131
f 241/173/130 246/410/258 245/411/256
f 245/408/256 243/412/259 239/271/186
f 246/410/258 242/413/260 244/414/261
f 240/270/131 262/415/262 251/407/255
f 258/416/263 263/417/264 240/270/131
f 244/418/261 247/419/265 243/412/259
f 247/419/265 242/420/260 246/421/258
f 103/422/266 66/423/75 114/133/101
f 240/270/131 263/417/264 260/424/267
f 247/419/265 248/425/268 242/420/260
f 242/413/260 248/426/268 244/414/261
f 244/418/261 248/425/268 247/419/265
f 243/412/259 246/421/258 241/406/130
f 245/408/256 251/407/255 244/418/261
f 244/418/261 251/407/255 248/425/268
f 251/407/255 262/415/262 252/427/269
f 255/428/270 254/429/271 263/417/264
f 263/417/264 254/429/271 253/430/272
f 257/431/273 256/409/257 259/405/254
f 262/415/262 260/424/267 253/430/272
f 257/431/273 259/405/254 261/404/253
f 255/428/270 258/416/263 256/409/257
f 66/432/75 93/134/102 114/133/101
f 81/363/65 84/433/128 234/364/235
f 256/409/257 258/416/263 240/270/131
f 240/270/131 260/424/267 262/415/262
f 229/389/63 238/434/129 237/435/122
f 230/391/198 74/436/77 27/327/36
f 231/437/205 18/321/29 195/438/203
f 271/399/248 268/439/274 269/440/275
f 235/441/276 266/442/277 265/443/236
f 236/444/234 89/131/99 86/130/70
f 270/400/249 269/440/275 265/445/236
f 84/446/128 267/398/247 234/447/235
f 264/448/237 268/449/274 271/399/248
f 272/450/278 276/451/279 277/402/251
f 274/452/252 275/453/280 264/367/237
f 273/401/250 269/440/275 268/439/274
f 269/440/275 273/401/250 265/454/236
f 264/455/237 275/456/280 276/451/279
f 284/457/281 282/458/282 276/459/279
f 264/455/237 272/450/278 268/439/274
f 279/460/283 281/461/284 280/462/285
f 280/463/285 281/464/284 276/451/279
f 278/465/286 280/462/285 275/453/280
f 277/402/251 279/466/283 278/467/286
f 283/468/287 287/469/288 289/470/289
f 282/458/282 283/468/287 277/402/251
f 277/402/251 283/468/287 285/471/290
f 279/460/283 285/472/290 284/473/281
f 286/474/291 294/475/292 287/469/288
f 286/474/291 287/469/288 283/468/287
f 288/476/293 286/474/291 282/458/282
f 285/472/290 289/477/289 288/478/293
f 308/479/294 305/480/295 295/481/296
f 292/482/297 290/483/298 286/474/291
f 288/484/293 295/481/296 292/485/297
f 287/469/288 291/486/299 293/487/300
f 296/488/301 297/489/302 290/483/298
f 293/490/300 295/481/296 289/491/289
f 314/492/303 315/493/304 289/491/289
f 287/469/288 294/475/292 291/486/299
f 290/483/298 294/475/292 286/474/291
f 303/494/305 300/495/306 296/496/301
f 294/475/292 298/497/307 299/498/308
f 297/489/302 298/497/307 294/475/292
f 299/499/308 296/496/301 292/485/297
f 307/500/309 309/501/310 311/502/311
f 300/503/306 301/504/312 297/489/302
f 298/497/307 302/505/313 303/506/305
f 301/504/312 302/505/313 298/497/307
f 294/475/292 307/500/309 306/507/314
f 291/486/299 306/507/314 308/508/294
f 305/509/295 307/500/309 294/475/292
f 310/510/315 309/501/310 307/500/309
f 303/494/305 304/511/316 300/495/306
f 300/503/306 304/512/316 301/504/312
f 302/505/313 304/512/316 303/506/305
f 301/504/312 304/512/316 302/505/313
f 306/507/314 311/502/311 312/513/317
f 312/514/317 310/515/315 305/480/295
f 289/477/289 315/516/304 316/517/318
f 288/484/293 316/518/318 314/492/303
f 318/519/319 319/520/320 316/517/318
f 312/514/317 313/521/321 310/515/315
f 310/510/315 313/522/321 309/501/310
f 309/501/310 313/522/321 311/502/311
f 311/502/311 313/522/321 312/513/317
f 316/518/318 319/523/320 317/524/322
f 314/492/303 317/524/322 318/525/319
f 318/519/319 320/526/323 319/520/320
f 319/523/320 320/527/323 317/524/322
f 317/524/322 320/527/323 318/525/319
f 57/79/12 229/81/63 192/528/246
f 234/529/235 267/530/247 266/442/277
f 205/334/219 322/374/240 201/531/206
f 322/374/240 321/373/239 201/531/206
f 217/348/228 323/532/324 216/354/231
f 216/354/231 323/532/324 215/355/232
f 215/355/232 323/532/324 218/347/227
f 218/347/227 323/532/324 217/348/228
f 203/533/220 184/275/189 183/274/188
f 202/534/238 183/274/188 188/278/191
f 181/535/1 194/536/201 195/438/203
f 194/536/201 181/535/1 180/318/4
f 189/282/193 185/100/79 222/537/207
f 321/538/239 188/278/191 189/282/193
f 203/337/220 36/336/61 38/539/60
f 264/448/237 267/398/247 84/446/128
f 203/533/220 38/287/60 184/275/189
f 234/396/235 235/540/276 86/541/70
f 224/164/123 206/542/212 58/543/33
f 91/136/104 92/145/110 93/134/102
f 2/119/91 56/95/76 90/177/105
f 90/177/105 66/544/75 93/143/102
f 2/390/91 237/545/122 56/162/76
f 66/156/75 73/13/11 91/136/104
f 56/95/76 66/546/75 90/177/105
f 224/547/123 261/404/253 240/270/131
f 250/548/325 261/404/253 224/549/123
f 229/81/63 249/80/62 224/171/123
f 249/80/62 35/110/88 326/550/326
f 35/110/88 249/80/62 57/79/12
f 66/156/75 42/50/32 324/304/200
f 42/50/32 41/49/40 324/304/200
f 41/49/40 35/169/88 324/304/200
f 41/111/40 206/551/212 325/112/89
f 206/551/212 224/171/123 325/112/89
f 326/550/326 35/110/88 325/112/89
f 224/171/123 249/80/62 326/550/326
f 224/171/123 326/550/326 325/112/89
f 35/169/88 327/175/132 324/304/200
f 327/175/132 35/169/88 102/157/119
f 12/281/17 181/1/1 14/3/3
f 179/280/192 180/4/4 4/6/6
f 5/15/13 3/7/7 7/9/8
f 7/9/8 4/8/6 8/11/9
f 10/18/16 6/12/10 57/14/12
f 75/552/199 76/17/15 10/18/16
f 11/553/18 8/19/9 12/20/17
f 13/554/202 11/21/18 14/23/3
f 74/555/77 15/24/19 76/26/15
f 16/29/21 13/556/202 14/27/3
f 77/28/20 17/557/25 16/29/21
f 62/113/80 32/30/22 64/32/24
f 19/36/27 16/33/21 20/35/26
f 22/558/209 19/36/27 23/37/28
f 80/123/41 42/41/32 79/43/34
f 59/98/78 24/44/35 60/46/37
f 22/558/209 23/37/28 25/48/39
f 43/559/216 41/49/40 80/51/41
f 32/272/22 40/52/42 44/54/44
f 36/78/61 33/55/45 37/57/47
f 44/54/44 47/53/43 48/59/49
f 39/560/53 29/60/50 46/62/52
f 45/61/51 29/60/50 44/63/44
f 40/52/42 39/64/53 47/53/43
f 55/74/58 51/66/48 54/68/55
f 45/61/51 44/63/44 49/70/56
f 47/53/43 46/65/52 51/58/48
f 50/561/54 46/62/52 49/70/56
f 54/68/55 50/67/54 53/73/57
f 48/76/49 51/66/48 52/75/59
f 53/73/57 49/72/56 52/75/59
f 43/559/216 80/51/41 81/83/65
f 85/562/135 82/87/64 86/89/70
f 31/122/92 176/90/71 175/92/73
f 31/122/92 28/93/74 40/52/42
f 28/93/74 25/48/39 39/64/53
f 26/47/38 29/563/50 39/64/53
f 33/55/45 175/92/73 34/56/46
f 42/564/32 66/94/75 58/42/33
f 60/46/37 27/45/36 76/97/15
f 26/99/38 60/46/37 29/60/50
f 23/120/28 59/98/78 26/99/38
f 186/277/190 185/100/79 67/102/81
f 61/31/23 30/103/82 64/32/24
f 68/109/87 65/105/84 72/107/86
f 71/115/67 67/108/81 72/107/86
f 67/108/81 62/113/80 68/109/87
f 64/32/24 63/104/83 68/109/87
f 72/107/86 69/106/85 71/115/67
f 73/176/11 6/25/10 2/119/91
f 75/565/199 30/103/82 76/97/15
f 78/40/31 21/39/30 59/98/78
f 20/566/26 78/40/31 23/120/28
f 20/566/26 17/121/25 78/40/31
f 82/87/64 80/123/41 83/88/69
f 124/178/133 120/124/93 123/126/95
f 130/188/138 126/127/96 127/129/98
f 85/567/135 86/130/70 88/132/100
f 92/145/110 91/136/104 94/138/106
f 99/147/112 94/142/106 98/144/107
f 93/134/102 92/145/110 98/139/107
f 95/160/118 99/147/112 97/148/113
f 98/139/107 96/146/111 97/153/113
f 96/146/111 99/154/112 100/152/117
f 92/145/110 94/138/106 96/146/111
f 107/568/327 108/166/125 116/151/116
f 107/568/327 116/151/116 106/167/126
f 113/158/120 115/149/114 106/167/126
f 103/569/266 114/133/101 110/168/127
f 224/570/123 237/163/122 240/174/131
f 91/571/104 73/176/11 90/177/105
f 121/192/140 124/178/133 122/179/134
f 119/269/94 85/180/135 118/182/97
f 119/125/94 118/185/97 123/126/95
f 87/572/185 84/183/128 117/186/136
f 121/192/140 117/186/136 124/178/133
f 129/194/141 125/187/137 130/188/138
f 118/573/97 117/189/136 127/191/98
f 122/179/134 126/127/96 121/192/140
f 128/574/139 117/193/136 129/194/141
f 134/575/145 129/194/141 137/196/143
f 131/202/147 133/197/144 132/199/146
f 128/574/139 129/194/141 133/201/144
f 127/191/98 128/190/139 131/202/147
f 132/576/146 130/188/138 131/203/147
f 140/211/152 136/204/148 142/206/150
f 129/194/141 130/207/138 135/195/142
f 136/204/148 130/207/138 138/205/149
f 138/214/149 132/199/146 137/209/143
f 135/195/142 136/204/148 139/210/151
f 137/196/143 135/195/142 141/213/154
f 142/254/150 138/214/149 141/215/154
f 146/226/160 148/216/155 161/218/157
f 141/213/154 139/210/151 145/220/159
f 144/230/165 140/211/152 146/223/160
f 145/220/159 143/219/158 149/225/162
f 148/216/155 142/227/150 167/229/164
f 152/237/168 149/231/162 156/233/167
f 151/236/169 147/212/153 152/235/168
f 143/219/158 147/212/153 150/224/161
f 148/216/155 145/222/159 152/237/168
f 162/247/175 160/238/170 164/240/172
f 149/225/162 150/224/161 153/242/166
f 155/244/174 151/236/169 156/243/167
f 150/224/161 151/236/169 154/241/173
f 160/238/170 147/212/153 159/239/171
f 159/239/171 144/230/165 161/245/157
f 148/234/155 147/212/153 158/246/156
f 158/246/156 160/238/170 163/248/176
f 164/240/172 159/239/171 165/251/178
f 161/218/157 158/217/156 165/253/178
f 168/577/163 142/254/150 169/255/179
f 169/260/179 141/221/154 167/229/164
f 168/577/163 169/255/179 171/257/181
f 172/264/180 169/260/179 170/261/183
f 170/261/183 167/229/164 171/262/181
f 118/573/97 88/266/100 117/189/136
f 120/578/93 82/268/64 119/269/94
f 224/171/123 240/270/131 238/172/129
f 34/279/46 183/274/188 37/276/47
f 67/102/81 71/85/67 186/277/190
f 174/284/72 188/278/191 34/279/46
f 4/6/6 3/116/7 179/280/192
f 9/5/5 180/4/4 12/281/17
f 185/100/79 189/282/193 62/101/80
f 32/283/22 189/282/193 174/284/72
f 77/285/20 14/3/3 18/38/29
f 182/2/2 18/38/29 14/3/3
f 178/386/90 190/288/194 179/290/192
f 196/579/241 16/291/21 197/293/196
f 5/303/13 7/294/8 190/296/194
f 7/294/8 8/297/9 191/295/195
f 192/528/246 230/299/198 10/301/16
f 193/298/197 8/305/9 194/307/201
f 194/307/201 11/306/18 195/309/203
f 232/322/211 219/310/204 21/312/30
f 195/309/203 13/308/202 16/291/21
f 16/291/21 196/579/241 231/313/205
f 221/377/242 201/314/206 223/316/208
f 179/290/192 191/289/195 180/318/4
f 197/293/196 19/292/27 198/320/210
f 58/543/33 206/323/212 79/325/34
f 219/310/204 220/326/214 24/311/35
f 22/319/209 25/328/39 198/320/210
f 206/551/212 41/111/40 233/331/213
f 201/531/206 207/332/217 205/334/219
f 202/372/238 33/335/45 203/337/220
f 207/332/217 211/338/221 210/333/218
f 204/580/226 209/340/223 200/342/225
f 201/314/206 200/342/225 207/343/217
f 205/334/219 210/333/218 204/345/226
f 213/353/230 214/346/222 217/348/228
f 208/341/224 212/349/229 207/343/217
f 210/333/218 214/339/222 209/344/223
f 208/341/224 209/340/223 212/349/229
f 212/356/229 213/353/230 216/354/231
f 211/581/221 215/355/232 214/346/222
f 211/581/221 212/356/229 215/355/232
f 228/382/244 227/357/233 69/359/85
f 43/330/216 81/363/65 233/331/213
f 87/361/185 236/360/234 264/367/237
f 204/345/226 28/368/74 205/334/219
f 199/329/215 25/328/39 204/345/226
f 28/368/74 204/345/226 25/328/39
f 321/373/239 175/371/73 202/372/238
f 31/369/92 175/371/73 322/374/240
f 18/321/29 196/375/241 232/322/211
f 199/378/215 200/342/225 220/326/214
f 198/395/210 199/378/215 219/310/204
f 222/537/207 185/100/79 225/379/243
f 221/377/242 223/316/208 30/381/82
f 226/385/245 228/382/244 65/383/84
f 226/385/245 225/384/243 228/382/244
f 223/316/208 222/315/207 226/385/245
f 223/316/208 226/385/245 63/380/83
f 225/379/243 186/277/190 227/365/233
f 15/394/19 192/388/246 2/390/91
f 221/377/242 30/381/82 230/391/198
f 74/582/77 230/393/198 15/394/19
f 197/376/196 198/395/210 232/322/211
f 79/325/34 233/324/213 83/397/69
f 266/583/277 267/398/247 270/400/249
f 265/454/236 273/401/250 274/403/252
f 237/584/122 238/172/129 241/406/130
f 240/174/131 241/173/130 245/411/256
f 240/270/131 245/408/256 239/271/186
f 245/411/256 246/410/258 244/414/261
f 245/408/256 244/418/261 243/412/259
f 243/412/259 247/419/265 246/421/258
f 239/271/186 243/412/259 241/406/130
f 258/416/263 255/428/270 263/417/264
f 260/424/267 263/417/264 253/430/272
f 252/427/269 262/415/262 253/430/272
f 250/548/325 257/431/273 261/404/253
f 2/390/91 229/389/63 237/435/122
f 220/326/214 230/391/198 27/327/36
f 182/585/2 195/438/203 18/321/29
f 231/437/205 196/375/241 18/321/29
f 270/400/249 271/399/248 269/440/275
f 236/586/234 235/441/276 265/443/236
f 235/587/276 236/444/234 86/130/70
f 266/583/277 270/400/249 265/445/236
f 267/398/247 264/448/237 271/399/248
f 273/401/250 272/450/278 277/402/251
f 265/366/236 274/452/252 264/367/237
f 272/450/278 273/401/250 268/439/274
f 272/450/278 264/455/237 276/451/279
f 281/588/284 284/457/281 276/459/279
f 278/465/286 279/460/283 280/462/285
f 275/456/280 280/463/285 276/451/279
f 274/452/252 278/465/286 275/453/280
f 274/403/252 277/402/251 278/467/286
f 285/471/290 283/468/287 289/470/289
f 276/459/279 282/458/282 277/402/251
f 279/589/283 277/402/251 285/471/290
f 281/461/284 279/460/283 284/473/281
f 282/458/282 286/474/291 283/468/287
f 284/457/281 288/476/293 282/458/282
f 284/473/281 285/472/290 288/478/293
f 293/490/300 308/479/294 295/481/296
f 288/476/293 292/482/297 286/474/291
f 289/470/289 287/469/288 293/487/300
f 292/482/297 296/488/301 290/483/298
f 295/481/296 314/492/303 289/491/289
f 299/499/308 303/494/305 296/496/301
f 295/590/296 294/475/292 299/498/308
f 290/483/298 297/489/302 294/475/292
f 295/481/296 299/499/308 292/485/297
f 306/507/314 307/500/309 311/502/311
f 296/488/301 300/503/306 297/489/302
f 299/498/308 298/497/307 303/506/305
f 297/489/302 301/504/312 298/497/307
f 291/486/299 294/475/292 306/507/314
f 293/487/300 291/486/299 308/508/294
f 295/590/296 305/509/295 294/475/292
f 305/509/295 310/510/315 307/500/309
f 308/508/294 306/507/314 312/513/317
f 308/479/294 312/514/317 305/480/295
f 288/478/293 289/477/289 316/517/318
f 295/481/296 288/484/293 314/492/303
f 315/516/304 318/519/319 316/517/318
f 314/492/303 316/518/318 317/524/322
f 315/493/304 314/492/303 318/525/319
f 10/301/16 57/79/12 192/528/246
f 235/441/276 234/529/235 266/442/277
f 202/534/238 203/533/220 183/274/188
f 321/538/239 202/534/238 188/278/191
f 182/585/2 181/535/1 195/438/203
f 193/317/197 194/536/201 180/318/4
f 201/591/206 189/282/193 222/537/207
f 201/591/206 321/538/239 189/282/193
f 87/592/185 264/448/237 84/446/128
f 83/397/69 234/396/235 86/541/70
f 56/162/76 224/164/123 58/543/33
f 66/156/75 91/136/104 93/134/102
f 94/142/106 90/177/105 93/143/102
