v -0.598329 -0.445756 0.270108
v -0.511538 -0.430635 0.375891
v -0.599541 -0.485899 0.276841
v -0.512750 -0.470778 0.382623
v -0.523925 -0.448208 0.268879
v -0.479899 -0.434556 0.358206
v -0.525137 -0.488351 0.275612
v -0.481111 -0.474699 0.364938
v -0.548143 -0.510430 0.139820
v -0.546931 -0.470287 0.133088
v -0.495001 -0.505589 0.178253
v -0.493789 -0.465446 0.171521
v -0.385294 -0.515464 0.139115
v -0.384082 -0.475321 0.132382
v -0.390518 -0.510787 0.166066
v -0.389306 -0.470644 0.159333
vt 0.848404 0.872421
vt 0.848404 0.869367
vt 0.872477 0.843118
vt 0.872477 0.846172
vt 0.531997 0.361554
vt 0.553212 0.361554
vt 0.565199 0.339507
vt 0.556071 0.335305
vt 0.553212 0.361554
vt 0.553212 0.364609
vt 0.565199 0.342561
vt 0.565199 0.339507
vt 0.553212 0.364609
vt 0.531997 0.364609
vt 0.556071 0.338359
vt 0.565199 0.342561
vt 0.553212 0.364609
vt 0.562412 0.388323
vt 0.547507 0.397947
vt 0.531997 0.364609
vt 0.565199 0.339507
vt 0.565199 0.342561
vt 0.556071 0.338359
vt 0.556071 0.335305
vt 0.562412 0.385268
vt 0.592268 0.387830
vt 0.592268 0.390884
vt 0.562412 0.388323
vt 0.531997 0.361554
vt 0.547507 0.394893
vt 0.562412 0.385268
vt 0.553212 0.361554
vt 0.848404 0.872421
vt 0.863913 0.905760
vt 0.863913 0.902705
vt 0.848404 0.869367
vt 0.553212 0.361554
vt 0.562412 0.385268
vt 0.562412 0.388323
vt 0.553212 0.364609
vt 0.593926 0.394407
vt 0.593926 0.397461
vt 0.592268 0.390884
vt 0.592268 0.387830
vt 0.863913 0.905760
vt 0.910332 0.905274
vt 0.910332 0.902219
vt 0.863913 0.902705
vt 0.562412 0.388323
vt 0.592268 0.390884
vt 0.593926 0.397461
vt 0.547507 0.397947
vt 0.547507 0.394893
vt 0.593926 0.394407
vt 0.592268 0.387830
vt 0.562412 0.385268
vn -0.775655 0.127096 0.618229
f 1/1/1 3/2/1 4/3/1
f 1/1/1 4/3/1 2/4/1
vn -0.029757 -0.985790 0.165325
f 3/5/2 7/6/2 8/7/2
f 3/5/2 8/7/2 4/8/2
vn 0.898486 -0.098855 -0.427726
f 7/9/3 5/10/3 6/11/3
f 7/9/3 6/11/3 8/12/3
vn 0.029757 0.985790 -0.165325
f 5/13/4 1/14/4 2/15/4
f 5/13/4 2/15/4 6/16/4
vn 0.029759 0.985790 -0.165326
f 5/17/5 12/18/5 10/19/5
f 5/17/5 10/19/5 1/20/5
vn 0.495966 0.129041 0.858700
f 8/21/6 6/22/6 2/23/6
f 8/21/6 2/23/6 4/24/6
vn 0.122231 0.160570 0.979427
f 11/25/7 15/26/7 16/27/7
f 11/25/7 16/27/7 12/28/7
vn -0.029756 -0.985790 0.165327
f 3/29/8 9/30/8 11/31/8
f 3/29/8 11/31/8 7/32/8
vn -0.937622 -0.029788 -0.346379
f 1/33/9 10/34/9 9/35/9
f 1/33/9 9/35/9 3/36/9
vn 0.956090 0.020174 0.292376
f 7/37/10 11/38/10 12/39/10
f 7/37/10 12/39/10 5/40/10
vn 0.981800 0.002212 0.189905
f 13/41/11 14/42/11 16/43/11
f 13/41/11 16/43/11 15/44/11
vn -0.009376 -0.165117 -0.986229
f 10/45/12 14/46/12 13/47/12
f 10/45/12 13/47/12 9/48/12
vn 0.029757 0.985790 -0.165326
f 12/49/13 16/50/13 14/51/13
f 12/49/13 14/51/13 10/52/13
vn -0.029757 -0.985790 0.165326
f 9/53/14 13/54/14 15/55/14
f 9/53/14 15/55/14 11/56/14
