v -0.639744 0.002321 0.000946
v -0.591027 0.247238 0.075772
v -0.452293 0.454869 0.075772
v -0.244662 0.593604 0.075772
v 0.000256 0.642321 0.000946
v 0.245173 0.593605 0.075772
v 0.452804 0.454870 0.000946
v 0.452804 0.454870 0.075772
v 0.591539 0.247239 0.000946
v -0.379180 0.159488 0.301646
v -0.402719 0.169238 0.276549
v -0.426257 0.178988 0.251452
v -0.449796 0.188738 0.226355
v -0.473334 0.198488 0.201258
v -0.496873 0.208238 0.176160
v -0.520411 0.217988 0.151063
v -0.543950 0.227738 0.125966
v -0.567488 0.237488 0.100869
v -0.614266 0.002321 0.100869
v -0.588788 0.002321 0.125966
v -0.563310 0.002321 0.151063
v -0.537832 0.002321 0.176160
v -0.512354 0.002321 0.201258
v -0.486876 0.002321 0.226355
v -0.461398 0.002321 0.251452
v -0.435921 0.002321 0.276549
v -0.410443 0.002321 0.301646
v -0.156912 0.381757 0.301646
v -0.166662 0.405296 0.276549
v -0.176412 0.428834 0.251452
v -0.186162 0.452373 0.226355
v -0.195912 0.475911 0.201258
v -0.205662 0.499450 0.176160
v -0.215412 0.522988 0.151063
v -0.225162 0.546527 0.125966
v -0.234912 0.570065 0.100869
v -0.434277 0.436854 0.100869
v -0.416261 0.418838 0.125966
v -0.398246 0.400822 0.151063
v -0.380230 0.382807 0.176160
v -0.362215 0.364791 0.201258
v -0.344199 0.346776 0.226355
v -0.326183 0.328760 0.251452
v -0.308167 0.310744 0.276549
v -0.290152 0.292729 0.301646
v 0.235423 0.570066 0.100869
v 0.225673 0.546527 0.125966
v 0.215923 0.522989 0.151063
v 0.206173 0.499450 0.176160
v 0.196423 0.475912 0.201257
v 0.186673 0.452373 0.226355
v 0.167174 0.405296 0.276549
v 0.000256 0.413020 0.301646
v 0.000256 0.438498 0.276549
v 0.000256 0.463976 0.251452
v 0.000256 0.489454 0.226355
v 0.000256 0.514932 0.201258
v 0.000256 0.540410 0.176160
v 0.000256 0.565888 0.151063
v 0.000256 0.591365 0.125966
v 0.000256 0.616843 0.100869
v 0.255477 0.257413 0.326743
v 0.138373 0.312783 0.326743
v 0.333724 0.140309 0.326743
v 0.355780 0.149445 0.301646
v 0.420931 0.422930 0.100869
v 0.527108 0.220480 0.125966
v 0.488117 0.204261 0.151063
v 0.479363 0.200694 0.176160
v 0.456677 0.191297 0.201258
v 0.421949 0.176853 0.226355
v 0.414744 0.173946 0.251452
v 0.391868 0.164470 0.276549
v 0.272359 0.274294 0.301646
v 0.299981 0.301989 0.276549
v 0.317489 0.319497 0.251452
v 0.349583 0.351574 0.201258
v 0.366946 0.368937 0.176160
v 0.373645 0.375580 0.151063
v 0.403489 0.405489 0.125966
v 0.227920 0.551896 0.100869
v 0.189306 0.458668 0.201257
v 0.174917 0.423884 0.226355
v -0.591027 0.247238 0.000946
v -0.639744 0.002321 0.075772
v -0.452293 0.454869 0.000946
v -0.244662 0.593604 0.000946
v 0.000256 0.642321 0.075772
v 0.245173 0.593605 0.000946
v 0.591539 0.247239 0.075772
v -0.355641 0.149738 0.326743
v -0.384965 0.002321 0.326743
v -0.272136 0.274713 0.326743
v -0.147162 0.358219 0.326743
v 0.000256 0.387542 0.326743
v 0.147674 0.333805 0.326743
v 0.157424 0.381757 0.301646
v 0.176923 0.428834 0.251452
v 0.229733 0.556221 0.075772
v 0.424288 0.426223 0.075772
v 0.549499 0.238832 0.075772
v 0.147509 0.357715 0.301646
v 0.093589 0.211551 0.326743
v 0.218480 0.529108 0.125966
v 0.202325 0.490052 0.151063
v 0.198703 0.481353 0.176160
v 0.171938 0.416751 0.251452
v 0.162463 0.393875 0.276549
v 0.549897 0.229920 0.100869
v 0.323002 0.324937 0.226355
v 0.172792 0.174101 0.326743
v 0.225714 0.094898 0.326743
vt 0.871101 0.694767
vt 0.871101 0.708733
vt 0.916812 0.708733
vt 0.916812 0.694767
vt 0.916812 0.694767
vt 0.916812 0.708733
vt 0.955563 0.708733
vt 0.955563 0.694767
vt 0.955563 0.694767
vt 0.955563 0.708733
vt 0.981455 0.708733
vt 0.981455 0.694767
vt 0.981455 0.694767
vt 0.981455 0.708733
vt 0.990548 0.708733
vt 0.990548 0.694767
vt 0.990548 0.694767
vt 0.990548 0.708733
vt 0.981456 0.708733
vt 0.981456 0.694767
vt 0.981456 0.694767
vt 0.981456 0.708733
vt 0.955563 0.708733
vt 0.955563 0.694767
vt 0.955563 0.694767
vt 0.955563 0.708733
vt 0.916812 0.708733
vt 0.916812 0.694767
vt 0.845306 0.627837
vt 0.845306 0.610749
vt 0.851690 0.612184
vt 0.851690 0.628211
vt 0.845306 0.662027
vt 0.845306 0.645843
vt 0.851690 0.645101
vt 0.851690 0.660281
vt 0.845306 0.673926
vt 0.845306 0.662027
vt 0.851690 0.660281
vt 0.851690 0.671441
vt 0.845306 0.645843
vt 0.845306 0.627837
vt 0.851690 0.628211
vt 0.851690 0.645101
vt 0.845306 0.679726
vt 0.845306 0.673926
vt 0.851690 0.671441
vt 0.851690 0.674501
vt 0.787847 0.705326
vt 0.787847 0.696287
vt 0.794231 0.693803
vt 0.794231 0.702482
vt 0.794231 0.702482
vt 0.794231 0.693803
vt 0.800616 0.691318
vt 0.800616 0.699637
vt 0.800616 0.699637
vt 0.800616 0.691318
vt 0.807000 0.688833
vt 0.807000 0.696793
vt 0.807000 0.696793
vt 0.807000 0.688833
vt 0.813384 0.686349
vt 0.813384 0.693948
vt 0.813384 0.693948
vt 0.813384 0.686349
vt 0.819769 0.683864
vt 0.819769 0.691104
vt 0.819769 0.691104
vt 0.819769 0.683864
vt 0.826153 0.681379
vt 0.826153 0.688259
vt 0.826153 0.688259
vt 0.826153 0.681379
vt 0.832537 0.678895
vt 0.832537 0.685415
vt 0.832537 0.685415
vt 0.832537 0.678895
vt 0.838922 0.676410
vt 0.838922 0.682570
vt 0.838922 0.682570
vt 0.838922 0.676410
vt 0.845306 0.673926
vt 0.845306 0.679726
vt 0.787847 0.652526
vt 0.787847 0.624466
vt 0.794231 0.624841
vt 0.794231 0.651784
vt 0.794231 0.651784
vt 0.794231 0.624841
vt 0.800616 0.625215
vt 0.800616 0.651041
vt 0.800616 0.651041
vt 0.800616 0.625215
vt 0.807000 0.625590
vt 0.807000 0.650299
vt 0.807000 0.650299
vt 0.807000 0.625590
vt 0.813384 0.625964
vt 0.813384 0.649556
vt 0.813384 0.649556
vt 0.813384 0.625964
vt 0.819769 0.626339
vt 0.819769 0.648814
vt 0.819769 0.648814
vt 0.819769 0.626339
vt 0.826153 0.626713
vt 0.826153 0.648071
vt 0.826153 0.648071
vt 0.826153 0.626713
vt 0.832537 0.627088
vt 0.832537 0.647328
vt 0.832537 0.647328
vt 0.832537 0.627088
vt 0.838922 0.627462
vt 0.838922 0.646586
vt 0.838922 0.646586
vt 0.838922 0.627462
vt 0.845306 0.627837
vt 0.845306 0.645843
vt 0.787847 0.696287
vt 0.787847 0.677746
vt 0.794231 0.676000
vt 0.794231 0.693803
vt 0.794231 0.693803
vt 0.794231 0.676000
vt 0.800616 0.674253
vt 0.800616 0.691318
vt 0.800616 0.691318
vt 0.800616 0.674253
vt 0.807000 0.672507
vt 0.807000 0.688833
vt 0.807000 0.688833
vt 0.807000 0.672507
vt 0.813384 0.670760
vt 0.813384 0.686349
vt 0.813384 0.686349
vt 0.813384 0.670760
vt 0.819769 0.669014
vt 0.819769 0.683864
vt 0.819769 0.683864
vt 0.819769 0.669014
vt 0.826153 0.667267
vt 0.826153 0.681379
vt 0.826153 0.681379
vt 0.826153 0.667267
vt 0.832537 0.665521
vt 0.832537 0.678895
vt 0.832537 0.678895
vt 0.832537 0.665521
vt 0.838922 0.663774
vt 0.838922 0.676410
vt 0.838922 0.676410
vt 0.838922 0.663774
vt 0.845306 0.662027
vt 0.845306 0.673926
vt 0.513835 0.802590
vt 0.516200 0.803207
vt 0.516200 0.803207
vt 0.513922 0.802613
vt 0.517075 0.805365
vt 0.516902 0.805705
vt 0.516902 0.805705
vt 0.517075 0.805365
vt 0.517247 0.805026
vt 0.517075 0.805365
vt 0.517075 0.805365
vt 0.517247 0.805026
vt 0.517419 0.804686
vt 0.517247 0.805026
vt 0.517247 0.805026
vt 0.517419 0.804686
vt 0.516200 0.803207
vt 0.517591 0.804347
vt 0.517591 0.804347
vt 0.516200 0.803207
vt 0.517591 0.804347
vt 0.517419 0.804686
vt 0.517419 0.804686
vt 0.517591 0.804347
vt 0.787847 0.677746
vt 0.787847 0.652526
vt 0.794231 0.651784
vt 0.794231 0.676000
vt 0.794231 0.676000
vt 0.794231 0.651784
vt 0.800616 0.651041
vt 0.800616 0.674253
vt 0.800616 0.674253
vt 0.800616 0.651041
vt 0.807000 0.650299
vt 0.807000 0.672507
vt 0.807000 0.672507
vt 0.807000 0.650299
vt 0.813384 0.649556
vt 0.813384 0.670760
vt 0.813384 0.670760
vt 0.813384 0.649556
vt 0.819769 0.648814
vt 0.819769 0.669014
vt 0.819769 0.669014
vt 0.819769 0.648814
vt 0.826153 0.648071
vt 0.826153 0.667267
vt 0.826153 0.667267
vt 0.826153 0.648071
vt 0.832537 0.647328
vt 0.832537 0.665521
vt 0.832537 0.665521
vt 0.832537 0.647328
vt 0.838922 0.646586
vt 0.838922 0.663774
vt 0.838922 0.663774
vt 0.838922 0.646586
vt 0.845306 0.645843
vt 0.845306 0.662027
vt 0.516213 0.807062
vt 0.516041 0.807401
vt 0.516041 0.807401
vt 0.516213 0.807062
vt 0.516386 0.806723
vt 0.516213 0.807062
vt 0.516213 0.807062
vt 0.516386 0.806723
vt 0.516558 0.806383
vt 0.516386 0.806723
vt 0.516386 0.806723
vt 0.516558 0.806383
vt 0.787847 0.624466
vt 0.787847 0.597839
vt 0.794231 0.599273
vt 0.794231 0.624841
vt 0.794231 0.624841
vt 0.794231 0.599273
vt 0.800616 0.600708
vt 0.800616 0.625215
vt 0.800616 0.625215
vt 0.800616 0.600708
vt 0.807000 0.602142
vt 0.807000 0.625590
vt 0.807000 0.625590
vt 0.807000 0.602142
vt 0.813384 0.603577
vt 0.813384 0.625964
vt 0.813384 0.625964
vt 0.813384 0.603577
vt 0.819769 0.605011
vt 0.819769 0.626339
vt 0.819769 0.626339
vt 0.819769 0.605011
vt 0.826153 0.606446
vt 0.826153 0.626713
vt 0.826153 0.626713
vt 0.826153 0.606446
vt 0.832537 0.607880
vt 0.832537 0.627088
vt 0.832537 0.627088
vt 0.832537 0.607880
vt 0.838922 0.609315
vt 0.838922 0.627462
vt 0.838922 0.627462
vt 0.838922 0.609315
vt 0.845306 0.610749
vt 0.845306 0.627837
vt 0.516730 0.806044
vt 0.516558 0.806383
vt 0.516558 0.806383
vt 0.516730 0.806044
vt 0.516041 0.807401
vt 0.515869 0.807741
vt 0.515869 0.807741
vt 0.516041 0.807401
vt 0.516902 0.805705
vt 0.516730 0.806044
vt 0.516730 0.806044
vt 0.516902 0.805705
vt 0.200326 0.934638
vt 0.220577 0.934638
vt 0.209669 0.940170
vt 0.196228 0.940170
vt 0.170018 0.934638
vt 0.200326 0.934638
vt 0.196228 0.940170
vt 0.167801 0.940170
vt 0.191717 0.934654
vt 0.237207 0.934654
vt 0.236408 0.940186
vt 0.189554 0.940186
vt 0.189554 0.948975
vt 0.236408 0.948975
vt 0.232174 0.954507
vt 0.187262 0.954507
vt 0.187262 0.954507
vt 0.232174 0.954507
vt 0.224913 0.960039
vt 0.183325 0.960039
vt 0.183325 0.934648
vt 0.224913 0.934648
vt 0.223301 0.940180
vt 0.182459 0.940180
vt 0.182459 0.965571
vt 0.223301 0.965571
vt 0.219086 0.971103
vt 0.180178 0.971103
vt 0.180178 0.971103
vt 0.219086 0.971103
vt 0.212620 0.976635
vt 0.176672 0.976635
vt 0.176672 0.934643
vt 0.212620 0.934643
vt 0.211299 0.940175
vt 0.175966 0.940175
vt 0.175966 0.982167
vt 0.211299 0.982167
vt 0.207049 0.987700
vt 0.173666 0.987700
vt 0.173666 0.987700
vt 0.207049 0.987700
vt 0.200326 0.993232
vt 0.170018 0.993232
vt 0.237207 0.934654
vt 0.268764 0.934654
vt 0.267714 0.940186
vt 0.236408 0.940186
vt 0.236408 0.948975
vt 0.267714 0.948975
vt 0.262183 0.954507
vt 0.232174 0.954507
vt 0.232174 0.954507
vt 0.262183 0.954507
vt 0.252702 0.960039
vt 0.224913 0.960039
vt 0.224913 0.934648
vt 0.252702 0.934648
vt 0.250590 0.940180
vt 0.223301 0.940180
vt 0.223301 0.965571
vt 0.250590 0.965571
vt 0.245083 0.971103
vt 0.219086 0.971103
vt 0.219086 0.971103
vt 0.245083 0.971103
vt 0.236639 0.976635
vt 0.212620 0.976635
vt 0.212620 0.934643
vt 0.236639 0.934643
vt 0.234908 0.940175
vt 0.211299 0.940175
vt 0.211299 0.982167
vt 0.234908 0.982167
vt 0.229354 0.987700
vt 0.207049 0.987700
vt 0.207049 0.987700
vt 0.229354 0.987700
vt 0.220577 0.993232
vt 0.200326 0.993232
vt 0.380466 0.685021
vt 0.386579 0.685021
vt 0.386579 0.685021
vt 0.380466 0.685021
vt 0.386579 0.685021
vt 0.389469 0.685021
vt 0.389469 0.685021
vt 0.386579 0.685021
vt 0.361014 0.763119
vt 0.354380 0.759328
vt 0.366248 0.716625
vt 0.355261 0.719690
vt 0.366248 0.716625
vt 0.354380 0.759328
vt 0.351215 0.753237
vt 0.355261 0.719690
vt 0.351215 0.753237
vt 0.339586 0.735947
vt 0.345950 0.726387
vt 0.339586 0.735947
vt 0.351215 0.753237
vt 0.343098 0.757508
vt 0.337206 0.747193
vt 0.343098 0.757508
vt 0.341402 0.758401
vt 0.337206 0.747193
vt 0.894906 0.073489
vt 0.940502 0.103786
vt 0.971035 0.149232
vt 0.981855 0.202909
vt 0.971316 0.256644
vt 0.941022 0.302257
vt 0.895585 0.332803
vt 0.841187 0.062953
vt 0.320745 0.697686
vt 0.317478 0.694061
vt 0.314211 0.690437
vt 0.310944 0.686812
vt 0.307677 0.683187
vt 0.304410 0.679563
vt 0.301143 0.675938
vt 0.297876 0.672313
vt 0.294609 0.668689
vt 0.291342 0.665064
vt 0.288075 0.661439
vt 0.456319 0.661481
vt 0.455778 0.665105
vt 0.452227 0.668728
vt 0.446148 0.672350
vt 0.444787 0.675973
vt 0.441253 0.679596
vt 0.435838 0.683219
vt 0.434720 0.686843
vt 0.431156 0.690466
vt 0.425528 0.694088
vt 0.422092 0.697711
vt 0.405225 0.697705
vt 0.375681 0.779143
vt 0.348630 0.779136
vt 0.348631 0.777399
vt 0.376639 0.777406
vt 0.376638 0.779144
vn -0.980785 0.195090 -0.000000
f 1/1/1 85/2/1 2/3/1
f 1/1/1 2/3/1 84/4/1
vn -0.831470 0.555569 0.000000
f 84/5/2 2/6/2 3/7/2
f 84/5/2 3/7/2 86/8/2
vn -0.555571 0.831469 0.000000
f 86/9/3 3/10/3 4/11/3
f 86/9/3 4/11/3 87/12/3
vn -0.195092 0.980785 0.000000
f 87/13/4 4/14/4 88/15/4
f 87/13/4 88/15/4 5/16/4
vn 0.195089 0.980785 0.000000
f 5/17/5 88/18/5 6/19/5
f 5/17/5 6/19/5 89/20/5
vn 0.555570 0.831470 0.000001
f 89/21/6 6/22/6 8/23/6
f 89/21/6 8/23/6 7/24/6
vn 0.831469 0.555571 -0.000000
f 7/25/7 8/26/7 90/27/7
f 7/25/7 90/27/7 9/28/7
vn -0.695024 0.138249 0.705570
f 10/29/8 27/30/8 92/31/8
f 10/29/8 92/31/8 91/32/8
vn -0.393699 0.589212 0.705571
f 28/33/9 45/34/9 93/35/9
f 28/33/9 93/35/9 94/36/9
vn -0.138249 0.695024 0.705570
f 53/37/10 28/38/10 94/39/10
f 53/37/10 94/39/10 95/40/10
vn -0.589213 0.393699 0.705570
f 45/41/11 10/42/11 91/43/11
f 45/41/11 91/43/11 93/44/11
vn 0.138248 0.695024 0.705570
f 97/45/12 53/46/12 95/47/12
f 97/45/12 95/47/12 96/48/12
vn 0.138249 0.695024 0.705570
f 6/49/13 88/50/13 61/51/13
f 6/49/13 61/51/13 46/52/13
vn 0.138248 0.695023 0.705571
f 46/53/14 61/54/14 60/55/14
f 46/53/14 60/55/14 47/56/14
vn 0.138249 0.695024 0.705570
f 47/57/15 60/58/15 59/59/15
f 47/57/15 59/59/15 48/60/15
vn 0.138249 0.695024 0.705570
f 48/61/16 59/62/16 58/63/16
f 48/61/16 58/63/16 49/64/16
vn 0.138248 0.695024 0.705570
f 49/65/17 58/66/17 57/67/17
f 49/65/17 57/67/17 50/68/17
vn 0.138248 0.695023 0.705571
f 50/69/18 57/70/18 56/71/18
f 50/69/18 56/71/18 51/72/18
vn 0.138248 0.695024 0.705570
f 51/73/19 56/74/19 55/75/19
f 51/73/19 55/75/19 98/76/19
vn 0.138248 0.695024 0.705570
f 98/77/20 55/78/20 54/79/20
f 98/77/20 54/79/20 52/80/20
vn 0.138248 0.695024 0.705570
f 52/81/21 54/82/21 53/83/21
f 52/81/21 53/83/21 97/84/21
vn -0.589213 0.393698 0.705571
f 3/85/22 2/86/22 18/87/22
f 3/85/22 18/87/22 37/88/22
vn -0.589213 0.393699 0.705570
f 37/89/23 18/90/23 17/91/23
f 37/89/23 17/91/23 38/92/23
vn -0.589213 0.393699 0.705570
f 38/93/24 17/94/24 16/95/24
f 38/93/24 16/95/24 39/96/24
vn -0.589213 0.393699 0.705570
f 39/97/25 16/98/25 15/99/25
f 39/97/25 15/99/25 40/100/25
vn -0.589213 0.393699 0.705570
f 40/101/26 15/102/26 14/103/26
f 40/101/26 14/103/26 41/104/26
vn -0.589213 0.393699 0.705570
f 41/105/27 14/106/27 13/107/27
f 41/105/27 13/107/27 42/108/27
vn -0.589213 0.393699 0.705570
f 42/109/28 13/110/28 12/111/28
f 42/109/28 12/111/28 43/112/28
vn -0.589213 0.393699 0.705570
f 43/113/29 12/114/29 11/115/29
f 43/113/29 11/115/29 44/116/29
vn -0.589213 0.393699 0.705570
f 44/117/30 11/118/30 10/119/30
f 44/117/30 10/119/30 45/120/30
vn -0.138250 0.695023 0.705571
f 88/121/31 4/122/31 36/123/31
f 88/121/31 36/123/31 61/124/31
vn -0.138250 0.695024 0.705570
f 61/125/32 36/126/32 35/127/32
f 61/125/32 35/127/32 60/128/32
vn -0.138250 0.695024 0.705570
f 60/129/33 35/130/33 34/131/33
f 60/129/33 34/131/33 59/132/33
vn -0.138250 0.695024 0.705570
f 59/133/34 34/134/34 33/135/34
f 59/133/34 33/135/34 58/136/34
vn -0.138250 0.695024 0.705570
f 58/137/35 33/138/35 32/139/35
f 58/137/35 32/139/35 57/140/35
vn -0.138250 0.695023 0.705570
f 57/141/36 32/142/36 31/143/36
f 57/141/36 31/143/36 56/144/36
vn -0.138250 0.695024 0.705570
f 56/145/37 31/146/37 30/147/37
f 56/145/37 30/147/37 55/148/37
vn -0.138250 0.695024 0.705570
f 55/149/38 30/150/38 29/151/38
f 55/149/38 29/151/38 54/152/38
vn -0.138250 0.695024 0.705570
f 54/153/39 29/154/39 28/155/39
f 54/153/39 28/155/39 53/156/39
vn 0.000000 -0.000000 1.000000
f 90/157/40 8/158/40 100/159/40
f 90/157/40 100/159/40 101/160/40
vn 0.924340 -0.381568 0.001224
f 48/161/41 49/162/41 106/163/41
f 48/161/41 106/163/41 105/164/41
vn 0.924319 -0.381618 0.001169
f 47/165/42 48/166/42 105/167/42
f 47/165/42 105/167/42 104/168/42
vn 0.924301 -0.381664 0.001119
f 46/169/43 47/170/43 104/171/43
f 46/169/43 104/171/43 81/172/43
vn -0.000001 0.000000 1.000000
f 8/173/44 6/174/44 99/175/44
f 8/173/44 99/175/44 100/176/44
vn 0.924283 -0.381707 0.001071
f 6/177/45 46/178/45 81/179/45
f 6/177/45 81/179/45 99/180/45
vn -0.393699 0.589212 0.705570
f 4/181/46 3/182/46 37/183/46
f 4/181/46 37/183/46 36/184/46
vn -0.393699 0.589213 0.705570
f 36/185/47 37/186/47 38/187/47
f 36/185/47 38/187/47 35/188/47
vn -0.393699 0.589212 0.705571
f 35/189/48 38/190/48 39/191/48
f 35/189/48 39/191/48 34/192/48
vn -0.393699 0.589212 0.705570
f 34/193/49 39/194/49 40/195/49
f 34/193/49 40/195/49 33/196/49
vn -0.393700 0.589213 0.705570
f 33/197/50 40/198/50 41/199/50
f 33/197/50 41/199/50 32/200/50
vn -0.393699 0.589212 0.705571
f 32/201/51 41/202/51 42/203/51
f 32/201/51 42/203/51 31/204/51
vn -0.393699 0.589212 0.705571
f 31/205/52 42/206/52 43/207/52
f 31/205/52 43/207/52 30/208/52
vn -0.393700 0.589213 0.705570
f 30/209/53 43/210/53 44/211/53
f 30/209/53 44/211/53 29/212/53
vn -0.393700 0.589213 0.705570
f 29/213/54 44/214/54 45/215/54
f 29/213/54 45/215/54 28/216/54
vn 0.924481 -0.381224 0.001601
f 52/217/55 97/218/55 102/219/55
f 52/217/55 102/219/55 108/220/55
vn 0.924446 -0.381310 0.001507
f 98/221/56 52/222/56 108/223/56
f 98/221/56 108/223/56 107/224/56
vn 0.924415 -0.381385 0.001426
f 51/225/57 98/226/57 107/227/57
f 51/225/57 107/227/57 83/228/57
vn -0.695024 0.138249 0.705570
f 2/229/58 85/230/58 19/231/58
f 2/229/58 19/231/58 18/232/58
vn -0.695024 0.138249 0.705570
f 18/233/59 19/234/59 20/235/59
f 18/233/59 20/235/59 17/236/59
vn -0.695024 0.138249 0.705570
f 17/237/60 20/238/60 21/239/60
f 17/237/60 21/239/60 16/240/60
vn -0.695024 0.138249 0.705570
f 16/241/61 21/242/61 22/243/61
f 16/241/61 22/243/61 15/244/61
vn -0.695024 0.138249 0.705570
f 15/245/62 22/246/62 23/247/62
f 15/245/62 23/247/62 14/248/62
vn -0.695023 0.138249 0.705571
f 14/249/63 23/250/63 24/251/63
f 14/249/63 24/251/63 13/252/63
vn -0.695023 0.138249 0.705571
f 13/253/64 24/254/64 25/255/64
f 13/253/64 25/255/64 12/256/64
vn -0.695024 0.138249 0.705570
f 12/257/65 25/258/65 26/259/65
f 12/257/65 26/259/65 11/260/65
vn -0.695024 0.138249 0.705570
f 11/261/66 26/262/66 27/263/66
f 11/261/66 27/263/66 10/264/66
vn 0.924388 -0.381452 0.001352
f 50/265/67 51/266/67 83/267/67
f 50/265/67 83/267/67 82/268/67
vn 0.843843 -0.373311 -0.385445
f 97/269/68 96/270/68 63/271/68
f 97/269/68 63/271/68 102/272/68
vn 0.924363 -0.381513 0.001284
f 49/273/69 50/274/69 82/275/69
f 49/273/69 82/275/69 106/276/69
vn 0.282815 0.423264 0.860734
f 74/277/70 102/278/70 63/279/70
f 74/277/70 63/279/70 62/280/70
vn 0.607962 0.406228 0.682174
f 65/281/71 74/282/71 62/283/71
f 65/281/71 62/283/71 64/284/71
vn 0.817723 0.546386 0.181084
f 101/285/72 100/286/72 66/287/72
f 101/285/72 66/287/72 109/288/72
vn 0.598634 0.399995 0.694004
f 109/289/73 66/290/73 80/291/73
f 109/289/73 80/291/73 67/292/73
vn 0.430793 0.287847 0.855313
f 67/293/74 80/294/74 79/295/74
f 67/293/74 79/295/74 68/296/74
vn 0.780061 0.521221 0.346171
f 68/297/75 79/298/75 78/299/75
f 68/297/75 78/299/75 69/300/75
vn 0.599934 0.400863 0.692379
f 69/301/76 78/302/76 77/303/76
f 69/301/76 77/303/76 70/304/76
vn 0.467603 0.312443 0.826878
f 70/305/77 77/306/77 110/307/77
f 70/305/77 110/307/77 71/308/77
vn 0.795730 0.531690 0.290033
f 71/309/78 110/310/78 76/311/78
f 71/309/78 76/311/78 72/312/78
vn 0.597534 0.399260 0.695373
f 72/313/79 76/314/79 75/315/79
f 72/313/79 75/315/79 73/316/79
vn 0.455270 0.304202 0.836774
f 73/317/80 75/318/80 74/319/80
f 73/317/80 74/319/80 65/320/80
vn 0.546453 0.817826 0.180414
f 100/321/81 99/322/81 81/323/81
f 100/321/81 81/323/81 66/324/81
vn 0.399993 0.598635 0.694004
f 66/325/82 81/326/82 104/327/82
f 66/325/82 104/327/82 80/328/82
vn 0.287756 0.430660 0.855411
f 80/329/83 104/330/83 105/331/83
f 80/329/83 105/331/83 79/332/83
vn 0.521322 0.780215 0.345669
f 79/333/84 105/334/84 106/335/84
f 79/333/84 106/335/84 78/336/84
vn 0.400862 0.599935 0.692378
f 78/337/85 106/338/85 82/339/85
f 78/337/85 82/339/85 77/340/85
vn 0.312354 0.467472 0.826986
f 77/341/86 82/342/86 83/343/86
f 77/341/86 83/343/86 110/344/86
vn 0.531806 0.795905 0.289340
f 110/345/87 83/346/87 107/347/87
f 110/345/87 107/347/87 76/348/87
vn 0.399259 0.597535 0.695373
f 76/349/88 107/350/88 108/351/88
f 76/349/88 108/351/88 75/352/88
vn 0.304091 0.455105 0.836904
f 75/353/89 108/354/89 102/355/89
f 75/353/89 102/355/89 74/356/89
vn 0.000000 0.000000 1.000000
f 64/357/90 62/358/90 111/359/90
f 64/357/90 111/359/90 112/360/90
vn 0.000000 0.000000 1.000000
f 62/361/91 63/362/91 103/363/91
f 62/361/91 103/363/91 111/364/91
vn 0.000000 0.000000 1.000000
f 112/365/92 111/366/92 92/367/92
vn 0.000000 -0.000000 1.000000
f 91/368/93 92/369/93 111/370/93
f 91/368/93 111/370/93 103/371/93
vn 0.000000 -0.000000 1.000000
f 91/372/94 103/373/94 94/374/94
f 91/372/94 94/374/94 93/375/94
vn 0.000000 -0.000000 1.000000
f 94/376/95 103/377/95 63/378/95
f 94/376/95 63/378/95 95/379/95
vn 0.000000 -0.000000 1.000000
f 63/380/96 96/381/96 95/382/96
vn -0.000001 0.000000 -1.000000
f 84/383/97 86/384/97 87/385/97
f 84/383/97 87/385/97 5/386/97
f 84/383/97 5/386/97 89/387/97
f 84/383/97 89/387/97 7/388/97
f 84/383/97 7/388/97 9/389/97
f 84/383/97 9/389/97 1/390/97
vn 0.415128 -0.806268 -0.421427
f 92/391/98 27/392/98 26/393/98
f 92/391/98 26/393/98 25/394/98
f 92/391/98 25/394/98 24/395/98
f 92/391/98 24/395/98 23/396/98
f 92/391/98 23/396/98 22/397/98
f 92/391/98 22/397/98 21/398/98
f 92/391/98 21/398/98 20/399/98
f 92/391/98 20/399/98 19/400/98
f 92/391/98 19/400/98 85/401/98
f 92/391/98 85/401/98 101/402/98
f 92/391/98 101/402/98 109/403/98
f 92/391/98 109/403/98 67/404/98
f 92/391/98 67/404/98 68/405/98
f 92/391/98 68/405/98 69/406/98
f 92/391/98 69/406/98 70/407/98
f 92/391/98 70/407/98 71/408/98
f 92/391/98 71/408/98 72/409/98
f 92/391/98 72/409/98 73/410/98
f 92/391/98 73/410/98 65/411/98
f 92/391/98 65/411/98 64/412/98
f 92/391/98 64/412/98 112/413/98
vn 0.195055 -0.980792 0.000001
f 101/414/99 85/415/99 1/416/99
f 101/414/99 1/416/99 9/417/99
f 101/414/99 9/417/99 90/418/99
