# Blender v2.76 (sub 0) OBJ File: 'npc_invisomut.blend'
# www.blender.org
v -0.891975 0.513024 -0.053925
v -0.891975 0.513024 0.048239
v 0.889972 0.520472 -0.053925
v 0.889972 0.520472 0.048240
v 0.838767 0.524805 -0.145587
v 0.685900 0.540891 -0.205808
v 0.533612 0.563344 -0.223055
v 0.381318 0.583177 -0.205775
v 0.228835 0.611284 -0.205870
v 0.020783 0.575406 -0.473192
v -0.020925 0.575406 -0.473192
v -0.230534 0.606063 -0.205740
v -0.383458 0.579258 -0.205756
v -0.535747 0.556480 -0.223055
v -0.688035 0.531086 -0.205808
v -0.841034 0.515922 -0.145587
v -0.841034 0.515922 0.147940
v -0.688035 0.548971 0.190070
v -0.535729 0.566175 0.205512
v -0.383036 0.578169 0.234288
v -0.229442 0.572323 0.327181
v -0.076216 0.542364 0.416723
v 0.076101 0.544748 0.416620
v 0.228574 0.566104 0.375440
v 0.381202 0.578115 0.272087
v 0.533606 0.570609 0.205516
v 0.685900 0.553030 0.149872
v 0.838767 0.525386 0.105642
v 0.130476 0.614390 -0.295978
v 0.152327 0.556004 0.396154
v -0.130825 0.613588 -0.296065
v -0.152627 0.549613 0.396311
v -0.891975 0.514150 -0.028384
v -0.891975 0.514543 -0.002843
v -0.891975 0.514150 0.022698
v 0.889972 0.521597 0.022699
v 0.889972 0.521991 -0.002843
v 0.889972 0.521597 -0.028384
v -0.841034 0.523693 0.074558
v -0.841034 0.526727 0.001176
v -0.841034 0.523693 -0.072205
v -0.688035 0.557178 0.091101
v -0.688035 0.558024 -0.007869
v -0.688035 0.548236 -0.106838
v -0.535747 0.578207 0.098357
v -0.535747 0.581896 -0.008780
v -0.535747 0.573247 -0.115918
v -0.383308 0.600091 0.124120
v -0.383459 0.610252 0.014067
v -0.383458 0.601070 -0.095845
v -0.230218 0.613394 0.193760
v -0.231104 0.643957 0.060235
v -0.231062 0.635507 -0.072608
v -0.062543 0.614093 0.239383
v -0.049171 0.672704 0.048886
v -0.035089 0.679921 -0.125868
v 0.062265 0.614328 0.239393
v 0.048197 0.673621 0.048857
v 0.034542 0.680549 -0.125918
v 0.228763 0.610091 0.230003
v 0.228954 0.646393 0.084406
v 0.228951 0.641389 -0.060753
v 0.381275 0.603027 0.152469
v 0.381323 0.616461 0.032939
v 0.381323 0.606989 -0.086408
v 0.533612 0.583326 0.098358
v 0.533612 0.587594 -0.008780
v 0.533612 0.579529 -0.115918
v 0.685900 0.560692 0.060952
v 0.685900 0.562013 -0.027968
v 0.685900 0.554622 -0.116888
v 0.838767 0.530744 0.042835
v 0.838767 0.533001 -0.019972
v 0.838767 0.530744 -0.082780
v 0.146946 0.606096 0.223717
v 0.141686 0.674714 0.050001
v 0.136022 0.657860 -0.123565
v -0.147666 0.601959 0.223766
v -0.143525 0.669943 0.050117
v -0.137727 0.653392 -0.122767
v 0.820418 0.475027 0.022426
v 0.871847 0.465824 0.003380
v 0.872236 0.465206 0.020995
v 0.820520 0.470377 0.076239
v -0.869761 0.459418 -0.000059
v -0.819744 0.468610 0.053050
v -0.819028 0.462062 0.114895
v -0.869111 0.459330 0.015798
v -0.671185 0.501133 0.068165
v -0.671250 0.494066 0.155050
v -0.521287 0.522195 0.068652
v -0.522509 0.511827 0.162173
v -0.365809 0.547919 0.078184
v -0.366969 0.527430 0.174369
v -0.216362 0.503850 0.129232
v -0.217884 0.525532 0.250812
v -0.143939 0.458324 0.151187
v -0.062827 0.446501 0.122874
v -0.075586 0.495383 0.331769
v -0.149571 0.503753 0.312429
v 0.063095 0.448896 0.123312
v 0.076641 0.497514 0.332203
v 0.144547 0.471555 0.151355
v 0.215925 0.503070 0.164213
v 0.217971 0.519128 0.300570
v 0.151032 0.510369 0.313867
v 0.363312 0.550741 0.105429
v 0.364519 0.528032 0.211904
v 0.517526 0.527793 0.066608
v 0.518204 0.516905 0.160596
v 0.669070 0.504754 0.037680
v 0.669010 0.498192 0.115225
v 0.819958 0.470552 -0.107425
v 0.867832 0.466312 -0.024833
v 0.868745 0.466504 -0.008155
v 0.820166 0.475582 -0.053250
v 0.870581 0.465890 -0.002879
v 0.820327 0.476645 -0.013451
v -0.870269 0.459057 -0.021318
v -0.822364 0.462094 -0.103265
v -0.822082 0.468853 -0.039340
v -0.870576 0.459230 -0.005533
v -0.821081 0.470605 0.008577
v -0.870688 0.458808 -0.002831
v -0.672530 0.478481 -0.151209
v -0.671967 0.493882 -0.064224
v -0.671232 0.501196 0.002617
v -0.521719 0.504465 -0.163250
v -0.520958 0.519169 -0.068694
v -0.519856 0.524592 -0.002492
v -0.369881 0.528484 -0.138611
v -0.367579 0.547343 -0.045175
v -0.364223 0.552949 0.009138
v -0.212325 0.557391 -0.130075
v -0.211719 0.529387 -0.017212
v -0.213032 0.508183 0.040036
v -0.117239 0.565271 -0.213820
v -0.018347 0.527267 -0.389741
v -0.031791 0.518331 -0.182232
v -0.124160 0.507704 -0.062266
v -0.048914 0.472299 -0.025357
v -0.135180 0.487478 0.039293
v 0.018205 0.527267 -0.389741
v 0.031636 0.518538 -0.182076
v 0.047572 0.473911 -0.024908
v 0.116225 0.566314 -0.214944
v 0.209452 0.562686 -0.133427
v 0.208540 0.535332 -0.008400
v 0.121241 0.513797 -0.064263
v 0.210764 0.513180 0.062227
v 0.132986 0.495535 0.039804
v 0.367937 0.532023 -0.140425
v 0.365629 0.552861 -0.038394
v 0.362132 0.559140 0.024639
v 0.520849 0.510823 -0.165009
v 0.519752 0.525124 -0.069817
v 0.517234 0.530316 -0.006154
v 0.671061 0.487562 -0.155284
v 0.670478 0.499775 -0.077759
v 0.669468 0.505158 -0.019137
v 0.702083 0.514226 -0.201812
v 0.858220 0.497678 -0.141708
v 0.079021 0.520953 0.415155
v -0.078525 0.518569 0.414972
v -0.389702 0.553871 -0.192511
v -0.229007 0.581895 -0.187761
v -0.911883 0.486690 -0.019870
v -0.911724 0.486041 -0.042851
v 0.911763 0.492839 0.037493
v 0.858511 0.497881 0.100135
v -0.387994 0.552860 0.226201
v -0.547470 0.539113 0.203452
v 0.020167 0.551337 -0.480635
v 0.127607 0.590350 -0.285034
v 0.701022 0.525611 0.146412
v 0.544196 0.543922 0.202575
v -0.128253 0.589660 -0.284420
v -0.020325 0.551337 -0.480635
v -0.858853 0.488992 0.145154
v -0.911125 0.486177 0.034603
v 0.910907 0.493941 -0.004190
v 0.911562 0.493711 0.013494
v 0.545565 0.537084 -0.216811
v 0.231012 0.541252 0.374825
v 0.156934 0.532133 0.393675
v 0.226746 0.586984 -0.189653
v -0.911941 0.486676 -0.004164
v -0.547061 0.530473 -0.215833
v 0.909485 0.493392 -0.044806
v 0.909957 0.494051 -0.021327
v -0.231322 0.547688 0.320337
v -0.156278 0.525740 0.392950
v -0.860579 0.489008 -0.139395
v -0.703227 0.521518 0.190913
v 0.387649 0.557600 -0.193520
v 0.385818 0.552806 0.268111
v -0.703889 0.504783 -0.199546
v -0.911461 0.486784 0.011581
vt 0.281556 0.946625
vt 0.314598 0.946625
vt 0.284400 0.973717
vt 0.270963 0.973717
vt 0.270963 0.032688
vt 0.284400 0.032688
vt 0.336850 0.059640
vt 0.298246 0.059640
vt 0.359014 0.140589
vt 0.306948 0.140589
vt 0.367128 0.221162
vt 0.310766 0.221162
vt 0.382066 0.301735
vt 0.324244 0.301735
vt 0.430287 0.382308
vt 0.360482 0.382308
vt 0.375818 0.425484
vt 0.466321 0.422594
vt 0.476927 0.462881
vt 0.383761 0.470194
vt 0.476927 0.543454
vt 0.383761 0.536141
vt 0.375818 0.580851
vt 0.466321 0.583741
vt 0.455627 0.624027
vt 0.379487 0.624027
vt 0.401923 0.704600
vt 0.339137 0.704600
vt 0.367128 0.785173
vt 0.310766 0.785173
vt 0.337866 0.865746
vt 0.291087 0.865746
vt 0.182432 0.946625
vt 0.215473 0.946625
vt 0.244090 0.973717
vt 0.230653 0.973717
vt 0.248515 0.946625
vt 0.257526 0.973717
vt 0.230653 0.032688
vt 0.244090 0.032688
vt 0.221036 0.059640
vt 0.182432 0.059640
vt 0.257526 0.032688
vt 0.259641 0.059640
vt 0.202817 0.140589
vt 0.150751 0.140589
vt 0.254882 0.140589
vt 0.198040 0.221162
vt 0.141678 0.221162
vt 0.254403 0.221162
vt 0.208600 0.301735
vt 0.150778 0.301735
vt 0.266422 0.301735
vt 0.220872 0.382308
vt 0.151068 0.382308
vt 0.290677 0.382308
vt 0.104308 0.434153
vt 0.194811 0.431263
vt 0.193764 0.484821
vt 0.011262 0.492134
vt 0.285314 0.428373
vt 0.284716 0.477508
vt 0.193764 0.521514
vt 0.011262 0.514201
vt 0.284716 0.528827
vt 0.104308 0.572182
vt 0.194811 0.575072
vt 0.227207 0.624027
vt 0.151068 0.624027
vt 0.285314 0.577962
vt 0.303347 0.624027
vt 0.213565 0.704600
vt 0.150778 0.704600
vt 0.276351 0.704600
vt 0.198040 0.785173
vt 0.141678 0.785173
vt 0.254403 0.785173
vt 0.197530 0.865746
vt 0.150751 0.865746
vt 0.244309 0.865746
vt 0.744386 0.087215
vt 0.734842 0.061296
vt 0.743669 0.061100
vt 0.771352 0.087163
vt 0.733119 0.937328
vt 0.759732 0.912122
vt 0.790723 0.911761
vt 0.741065 0.937001
vt 0.767306 0.837253
vt 0.810845 0.837285
vt 0.767551 0.761708
vt 0.814415 0.762324
vt 0.772322 0.683357
vt 0.820367 0.684106
vt 0.797585 0.608380
vt 0.858114 0.609568
vt 0.808091 0.572409
vt 0.793668 0.531812
vt 0.898169 0.538401
vt 0.888657 0.575495
vt 0.793936 0.468602
vt 0.898430 0.461735
vt 0.808473 0.427692
vt 0.815111 0.391773
vt 0.882996 0.390622
vt 0.889464 0.424305
vt 0.785929 0.317568
vt 0.839156 0.316925
vt 0.766526 0.239862
vt 0.813624 0.239521
vt 0.752030 0.163489
vt 0.790888 0.163520
vt 0.679318 0.087446
vt 0.720705 0.063319
vt 0.729062 0.062859
vt 0.706465 0.087342
vt 0.731706 0.061934
vt 0.726408 0.087261
vt 0.722466 0.937584
vt 0.681402 0.913442
vt 0.713435 0.913300
vt 0.730376 0.937739
vt 0.737447 0.912795
vt 0.731730 0.937795
vt 0.657377 0.837930
vt 0.700966 0.837646
vt 0.734460 0.837276
vt 0.651343 0.761926
vt 0.698726 0.761543
vt 0.731900 0.760987
vt 0.663690 0.685405
vt 0.710511 0.684244
vt 0.737728 0.682553
vt 0.668141 0.606210
vt 0.724524 0.605696
vt 0.753165 0.606406
vt 0.626903 0.559161
vt 0.538967 0.509586
vt 0.642919 0.516322
vt 0.702043 0.561685
vt 0.720444 0.524324
vt 0.752706 0.567265
vt 0.538967 0.491165
vt 0.642919 0.484430
vt 0.720681 0.476346
vt 0.626240 0.441863
vt 0.666541 0.395045
vt 0.728939 0.395582
vt 0.701270 0.439480
vt 0.764286 0.394449
vt 0.753021 0.433639
vt 0.662781 0.315251
vt 0.713909 0.316414
vt 0.745495 0.318176
vt 0.650461 0.238188
vt 0.698163 0.238741
vt 0.730065 0.240010
vt 0.655335 0.162486
vt 0.694183 0.162780
vt 0.723559 0.163289
vt 0.916964 0.136641
vt 0.908385 0.055220
vt 0.894321 0.075173
vt 0.903140 0.152818
vt 0.940117 0.461210
vt 0.939763 0.543345
vt 0.927382 0.541783
vt 0.927700 0.462456
vt 0.941075 0.704226
vt 0.954822 0.620738
vt 0.942352 0.611946
vt 0.927913 0.693891
vt 0.906245 0.976525
vt 0.905908 0.976443
vt 0.891919 0.954825
vt 0.892009 0.954985
vt 0.905876 0.027300
vt 0.908490 0.055069
vt 0.894230 0.074880
vt 0.891550 0.047912
vt 0.942942 0.703531
vt 0.933424 0.786497
vt 0.919277 0.773481
vt 0.929515 0.692547
vt 0.936232 0.491884
vt 0.956454 0.435920
vt 0.943989 0.441894
vt 0.923753 0.492908
vt 0.922866 0.137194
vt 0.932360 0.218973
vt 0.918353 0.232527
vt 0.908651 0.153887
vt 0.956533 0.569110
vt 0.936232 0.513000
vt 0.923753 0.511968
vt 0.944149 0.563264
vt 0.907439 0.948872
vt 0.905979 0.976130
vt 0.892060 0.954221
vt 0.893477 0.928105
vt 0.906447 0.027746
vt 0.906328 0.027405
vt 0.891870 0.048115
vt 0.891904 0.048775
vt 0.928814 0.218259
vt 0.915200 0.231148
vt 0.945008 0.382048
vt 0.943299 0.420626
vt 0.930725 0.423726
vt 0.932069 0.388874
vt 0.954693 0.384416
vt 0.942094 0.393451
vt 0.906237 0.976556
vt 0.891789 0.955043
vt 0.928944 0.786284
vt 0.915461 0.773069
vt 0.906163 0.028488
vt 0.906504 0.028242
vt 0.892223 0.049732
vt 0.892123 0.050209
vt 0.948881 0.622535
vt 0.936079 0.615421
vt 0.941746 0.583749
vt 0.929294 0.580165
vt 0.907447 0.949772
vt 0.893493 0.929844
vt 0.924302 0.867719
vt 0.910069 0.851044
vt 0.939451 0.300607
vt 0.926190 0.310886
vt 0.940413 0.301503
vt 0.927041 0.312618
vt 0.915625 0.868064
vt 0.901989 0.851711
vt 0.906294 0.976305
vt 0.892106 0.954560
vt 0.930788 0.145080
vt 0.922449 0.065365
vt 0.952533 0.462732
vt 0.952144 0.542145
vt 0.954237 0.700971
vt 0.967292 0.621558
vt 0.920481 0.966144
vt 0.919898 0.966144
vt 0.920202 0.038663
vt 0.922750 0.065365
vt 0.956370 0.700971
vt 0.947570 0.780384
vt 0.948711 0.491564
vt 0.968918 0.434417
vt 0.937082 0.145080
vt 0.946367 0.224493
vt 0.968918 0.570459
vt 0.948711 0.513313
vt 0.921400 0.939580
vt 0.920990 0.038663
vt 0.920786 0.038663
vt 0.942429 0.224493
vt 0.957946 0.383319
vt 0.955874 0.423025
vt 0.967292 0.383319
vt 0.920685 0.966144
vt 0.942427 0.780384
vt 0.961683 0.621558
vt 0.954198 0.581851
vt 0.938534 0.859797
vt 0.952711 0.303906
vt 0.953786 0.303906
vt 0.929262 0.859797
vn 0.188900 0.979400 0.071900
vn -0.247000 0.965100 0.086800
vn -0.228000 0.969500 0.089900
vn -0.131100 0.986600 0.096900
vn -0.136000 0.978800 0.153100
vn -0.154700 0.956300 0.248000
vn -0.101500 0.939300 0.327700
vn -0.008700 0.928900 0.370200
vn -0.059400 0.956900 0.284200
vn 0.132300 0.959300 0.249500
vn 0.151200 0.975200 0.161900
vn 0.160800 0.981700 0.102000
vn 0.200900 0.976000 0.083700
vn 0.054300 0.945600 0.320700
vn 0.023100 0.956100 0.292200
vn 0.237800 0.968200 -0.077400
vn 0.212700 0.976700 -0.029300
vn 0.193900 0.980600 0.029400
vn -0.234000 0.968300 -0.087100
vn -0.221000 0.974700 -0.033800
vn -0.226100 0.973500 0.033700
vn -0.170300 0.975300 -0.141000
vn -0.189100 0.979300 -0.072900
vn -0.207600 0.978000 0.022000
vn -0.174600 0.971600 -0.159900
vn -0.160700 0.983100 -0.087900
vn -0.146300 0.989000 0.021800
vn -0.140700 0.974800 -0.173300
vn -0.169800 0.982200 -0.080700
vn -0.172100 0.983100 0.062800
vn -0.177600 0.962800 -0.203400
vn -0.202200 0.976800 -0.071000
vn -0.209900 0.964200 0.162100
vn -0.176700 0.946600 -0.269600
vn -0.147700 0.988400 -0.035000
vn -0.103900 0.941000 0.322100
vn -0.005500 0.957300 -0.289000
vn -0.009200 0.999100 0.040400
vn -0.004900 0.955300 0.295600
vn 0.273100 0.936100 -0.221800
vn 0.276400 0.958500 -0.070600
vn 0.061700 0.948500 0.310700
vn 0.181100 0.963600 -0.196500
vn 0.193200 0.979700 -0.053600
vn 0.193600 0.964200 0.181100
vn 0.125200 0.977000 -0.172500
vn 0.164100 0.983500 -0.076200
vn 0.180400 0.980600 0.076600
vn 0.159700 0.975900 -0.148900
vn 0.158000 0.984400 -0.077600
vn 0.161400 0.986500 0.028100
vn 0.166900 0.977800 -0.126800
vn 0.178500 0.982000 -0.062400
vn 0.190000 0.981500 0.023100
vn 0.162300 0.947100 -0.276900
vn 0.110600 0.993300 -0.034400
vn 0.064500 0.942600 0.327600
vn -0.281600 0.934400 -0.218000
vn -0.261100 0.961700 -0.083600
vn -0.116300 0.946100 0.302300
vn -0.187600 -0.979700 -0.071000
vn 0.246900 -0.965100 -0.086800
vn 0.227900 -0.969500 -0.089800
vn 0.130700 -0.986900 -0.094400
vn 0.140900 -0.977500 -0.157200
vn -0.153700 -0.988100 0.003500
vn -0.111700 -0.964300 0.240200
vn 0.015100 -0.973700 0.227200
vn 0.276200 -0.946700 0.165900
vn 0.174700 -0.984200 -0.029300
vn -0.155200 -0.974500 -0.161900
vn -0.160000 -0.982100 -0.099300
vn -0.200400 -0.976200 -0.083300
vn 0.204400 -0.955200 0.213900
vn -0.511600 -0.838800 0.186100
vn -0.233300 -0.969500 0.075200
vn -0.206900 -0.978200 0.018900
vn -0.195100 -0.980200 -0.032900
vn 0.228700 -0.969800 0.084400
vn 0.218000 -0.975700 0.021800
vn 0.230500 -0.972300 -0.039500
vn 0.169200 -0.975300 0.142300
vn 0.189200 -0.979100 0.074500
vn 0.207500 -0.978000 -0.020900
vn 0.173800 -0.971700 0.159900
vn 0.161100 -0.982700 0.091800
vn 0.145700 -0.989200 -0.016300
vn 0.139600 -0.975200 0.171800
vn 0.170100 -0.981900 0.083600
vn 0.174300 -0.983500 -0.048400
vn 0.040100 -0.998200 -0.044800
vn -0.173800 -0.975700 -0.133200
vn -0.266400 -0.961700 -0.065200
vn -0.418500 -0.888500 -0.188300
vn -0.299700 -0.915800 -0.267400
vn -0.274000 -0.935800 -0.221600
vn 0.002100 -0.999100 -0.042500
vn 0.012000 -0.960700 -0.277300
vn 0.018400 -0.985400 -0.169000
vn 0.296200 -0.916200 -0.269800
vn 0.329600 -0.913700 -0.237700
vn 0.345200 -0.922200 -0.174300
vn -0.045000 -0.998600 -0.029300
vn 0.176200 -0.977700 -0.114400
vn 0.266000 -0.958100 -0.106200
vn -0.124400 -0.977200 0.172000
vn -0.163500 -0.983200 0.081300
vn -0.179600 -0.981400 -0.068100
vn -0.158600 -0.976100 0.148300
vn -0.158500 -0.984100 0.080500
vn -0.159700 -0.986900 -0.022400
vn -0.165900 -0.977900 0.127600
vn -0.178500 -0.981900 0.062800
vn -0.189900 -0.981600 -0.022000
vn 0.432400 -0.884900 -0.173500
vn 0.352000 -0.900800 -0.254200
vn 0.357700 -0.910200 -0.209000
vn -0.281500 -0.911000 -0.301500
vn -0.307100 -0.914800 -0.262500
vn -0.376400 -0.909900 -0.174200
vn 0.082900 -0.860900 -0.501900
vn 0.013500 -0.962700 0.270200
vn 0.175500 -0.876100 -0.449100
vn -0.552900 -0.833200 0.011000
vn 0.378000 -0.830800 0.408600
vn 0.024900 -0.864600 0.501800
vn 0.614300 -0.768600 -0.178800
vn 0.082300 -0.829700 0.552100
vn -0.611500 -0.770100 -0.181900
vn -0.432000 -0.871000 0.234000
vn 0.576100 -0.815500 -0.056300
vn -0.087500 -0.855600 -0.510100
vn 0.177500 -0.952000 0.249400
vn 0.241000 -0.923400 -0.298600
vn -0.553300 -0.832600 -0.024900
vn 0.206200 -0.844100 -0.494900
vn 0.550000 -0.835100 -0.001300
vn -0.194300 -0.930700 0.309800
vn 0.052200 -0.739600 0.671100
vn -0.449400 -0.871500 0.196100
vn 0.000000 -0.966700 -0.256000
vn 0.549200 -0.830300 -0.095100
vn -0.407800 -0.876500 -0.255800
vn -0.012000 -0.778700 0.627300
vn -0.190300 -0.845700 -0.498500
vn 0.239600 -0.932000 0.272000
vn 0.214600 -0.943800 0.251200
vn 0.098300 -0.859900 -0.500900
vn -0.546300 -0.834300 0.073900
vn 0.409700 -0.872000 -0.267700
vn -0.166600 -0.953000 0.253100
vn -0.209900 -0.927800 -0.308300
vn -0.543900 -0.839200 -0.001200
vn 0.053400 -0.795400 0.603800
vn 0.101600 -0.899300 0.425400
vn -0.179300 -0.870700 -0.457900
vn 0.581800 -0.812500 -0.037400
vn -0.079200 -0.871500 -0.483900
vn 0.370800 0.110600 -0.922100
vn 0.000800 -0.067400 0.997700
vn 0.106600 -0.537300 -0.836600
vn -0.812200 0.582900 -0.024000
vn 0.717100 0.365200 0.593700
vn -0.149800 -0.141800 0.978500
vn 0.868700 -0.098200 -0.485400
vn 0.345100 0.053100 0.937100
vn -0.868200 -0.099900 -0.486100
vn -0.811000 0.439600 0.386200
vn 0.795800 0.605600 -0.003300
vn 0.081300 -0.147500 -0.985700
vn 0.257300 -0.024200 0.966000
vn 0.608800 -0.435200 -0.663400
vn -0.811700 0.584100 -0.006500
vn 0.179000 -0.416200 -0.891500
vn 0.814100 0.580000 -0.029000
vn -0.512500 -0.180800 0.839500
vn 0.283800 0.023600 0.958600
vn -0.691800 -0.072300 0.718400
vn 0.000000 0.295400 -0.955400
vn 0.806200 0.591200 -0.021900
vn -0.793000 0.444800 -0.416300
vn -0.299900 0.148400 0.942400
vn -0.168600 -0.383500 -0.908000
vn 0.564000 0.003700 0.825800
vn 0.267500 -0.037400 0.962800
vn -0.070200 -0.214700 -0.974200
vn -0.815100 0.579200 0.013500
vn 0.785500 0.467500 -0.405500
vn -0.270800 -0.069100 0.960200
vn -0.586500 -0.460400 -0.666400
vn -0.819700 0.572200 0.026100
vn -0.093100 0.023800 0.995400
vn 0.390800 -0.008200 0.920400
vn -0.102000 -0.499700 -0.860200
vn 0.791500 0.610800 0.021400
vn -0.364300 0.024400 -0.931000
s off
f 72/1/1 28/2/1 4/3/1 36/4/1
f 35/5/2 2/6/2 17/7/2 39/8/2
f 39/8/3 17/7/3 18/9/3 42/10/3
f 42/10/4 18/9/4 19/11/4 45/12/4
f 45/12/5 19/11/5 20/13/5 48/14/5
f 48/14/6 20/13/6 21/15/6 51/16/6
f 78/17/7 32/18/7 22/19/7 54/20/7
f 54/20/8 22/19/8 23/21/8 57/22/8
f 75/23/9 30/24/9 24/25/9 60/26/9
f 60/26/10 24/25/10 25/27/10 63/28/10
f 63/28/11 25/27/11 26/29/11 66/30/11
f 66/30/12 26/29/12 27/31/12 69/32/12
f 69/32/13 27/31/13 28/2/13 72/1/13
f 57/22/14 23/21/14 30/24/14 75/23/14
f 51/16/15 21/15/15 32/18/15 78/17/15
f 5/33/16 74/34/16 38/35/16 3/36/16
f 74/34/17 73/37/17 37/38/17 38/35/17
f 73/37/18 72/1/18 36/4/18 37/38/18
f 1/39/19 33/40/19 41/41/19 16/42/19
f 33/40/20 34/43/20 40/44/20 41/41/20
f 34/43/21 35/5/21 39/8/21 40/44/21
f 16/42/22 41/41/22 44/45/22 15/46/22
f 41/41/23 40/44/23 43/47/23 44/45/23
f 40/44/24 39/8/24 42/10/24 43/47/24
f 15/46/25 44/45/25 47/48/25 14/49/25
f 44/45/26 43/47/26 46/50/26 47/48/26
f 43/47/27 42/10/27 45/12/27 46/50/27
f 14/49/28 47/48/28 50/51/28 13/52/28
f 47/48/29 46/50/29 49/53/29 50/51/29
f 46/50/30 45/12/30 48/14/30 49/53/30
f 13/52/31 50/51/31 53/54/31 12/55/31
f 50/51/32 49/53/32 52/56/32 53/54/32
f 49/53/33 48/14/33 51/16/33 52/56/33
f 31/57/34 80/58/34 56/59/34 11/60/34
f 80/58/35 79/61/35 55/62/35 56/59/35
f 79/61/36 78/17/36 54/20/36 55/62/36
f 11/60/37 56/59/37 59/63/37 10/64/37
f 56/59/38 55/62/38 58/65/38 59/63/38
f 55/62/39 54/20/39 57/22/39 58/65/39
f 29/66/40 77/67/40 62/68/40 9/69/40
f 77/67/41 76/70/41 61/71/41 62/68/41
f 76/70/42 75/23/42 60/26/42 61/71/42
f 9/69/43 62/68/43 65/72/43 8/73/43
f 62/68/44 61/71/44 64/74/44 65/72/44
f 61/71/45 60/26/45 63/28/45 64/74/45
f 8/73/46 65/72/46 68/75/46 7/76/46
f 65/72/47 64/74/47 67/77/47 68/75/47
f 64/74/48 63/28/48 66/30/48 67/77/48
f 7/76/49 68/75/49 71/78/49 6/79/49
f 68/75/50 67/77/50 70/80/50 71/78/50
f 67/77/51 66/30/51 69/32/51 70/80/51
f 6/79/52 71/78/52 74/34/52 5/33/52
f 71/78/53 70/80/53 73/37/53 74/34/53
f 70/80/54 69/32/54 72/1/54 73/37/54
f 10/64/55 59/63/55 77/67/55 29/66/55
f 59/63/56 58/65/56 76/70/56 77/67/56
f 58/65/57 57/22/57 75/23/57 76/70/57
f 12/55/58 53/54/58 80/58/58 31/57/58
f 53/54/59 52/56/59 79/61/59 80/58/59
f 52/56/60 51/16/60 78/17/60 79/61/60
f 81/81/61 82/82/61 83/83/61 84/84/61
f 85/85/62 86/86/62 87/87/62 88/88/62
f 86/86/63 89/89/63 90/90/63 87/87/63
f 89/89/64 91/91/64 92/92/64 90/90/64
f 91/91/65 93/93/65 94/94/65 92/92/65
f 93/93/66 95/95/66 96/96/66 94/94/66
f 97/97/67 98/98/67 99/99/67 100/100/67
f 98/98/68 101/101/68 102/102/68 99/99/68
f 103/103/69 104/104/69 105/105/69 106/106/69
f 104/104/70 107/107/70 108/108/70 105/105/70
f 107/107/71 109/109/71 110/110/71 108/108/71
f 109/109/72 111/111/72 112/112/72 110/110/72
f 111/111/73 81/81/73 84/84/73 112/112/73
f 101/101/74 103/103/74 106/106/74 102/102/74
f 95/95/75 97/97/75 100/100/75 96/96/75
f 113/113/76 114/114/76 115/115/76 116/116/76
f 116/116/77 115/115/77 117/117/77 118/118/77
f 118/118/78 117/117/78 82/82/78 81/81/78
f 119/119/79 120/120/79 121/121/79 122/122/79
f 122/122/80 121/121/80 123/123/80 124/124/80
f 124/124/81 123/123/81 86/86/81 85/85/81
f 120/120/82 125/125/82 126/126/82 121/121/82
f 121/121/83 126/126/83 127/127/83 123/123/83
f 123/123/84 127/127/84 89/89/84 86/86/84
f 125/125/85 128/128/85 129/129/85 126/126/85
f 126/126/86 129/129/86 130/130/86 127/127/86
f 127/127/87 130/130/87 91/91/87 89/89/87
f 128/128/88 131/131/88 132/132/88 129/129/88
f 129/129/89 132/132/89 133/133/89 130/130/89
f 130/130/90 133/133/90 93/93/90 91/91/90
f 131/131/91 134/134/91 135/135/91 132/132/91
f 132/132/92 135/135/92 136/136/92 133/133/92
f 133/133/93 136/136/93 95/95/93 93/93/93
f 137/137/94 138/138/94 139/139/94 140/140/94
f 140/140/95 139/139/95 141/141/95 142/142/95
f 142/142/96 141/141/96 98/98/96 97/97/96
f 138/138/97 143/143/97 144/144/97 139/139/97
f 139/139/98 144/144/98 145/145/98 141/141/98
f 141/141/99 145/145/99 101/101/99 98/98/99
f 146/146/100 147/147/100 148/148/100 149/149/100
f 149/149/101 148/148/101 150/150/101 151/151/101
f 151/151/102 150/150/102 104/104/102 103/103/102
f 147/147/103 152/152/103 153/153/103 148/148/103
f 148/148/104 153/153/104 154/154/104 150/150/104
f 150/150/105 154/154/105 107/107/105 104/104/105
f 152/152/106 155/155/106 156/156/106 153/153/106
f 153/153/107 156/156/107 157/157/107 154/154/107
f 154/154/108 157/157/108 109/109/108 107/107/108
f 155/155/109 158/158/109 159/159/109 156/156/109
f 156/156/110 159/159/110 160/160/110 157/157/110
f 157/157/111 160/160/111 111/111/111 109/109/111
f 158/158/112 113/113/112 116/116/112 159/159/112
f 159/159/113 116/116/113 118/118/113 160/160/113
f 160/160/114 118/118/114 81/81/114 111/111/114
f 143/143/115 146/146/115 149/149/115 144/144/115
f 144/144/116 149/149/116 151/151/116 145/145/116
f 145/145/117 151/151/117 103/103/117 101/101/117
f 134/134/118 137/137/118 140/140/118 135/135/118
f 135/135/119 140/140/119 142/142/119 136/136/119
f 136/136/120 142/142/120 97/97/120 95/95/120
f 161/161/121 162/162/121 113/163/121 158/164/121
f 163/165/122 164/166/122 99/167/122 102/168/122
f 165/169/123 166/170/123 134/171/123 131/172/123
f 167/173/124 168/174/124 119/175/124 122/176/124
f 169/177/125 170/178/125 84/179/125 83/180/125
f 171/181/126 172/182/126 92/183/126 94/184/126
f 173/185/127 174/186/127 146/187/127 143/188/127
f 175/189/128 176/190/128 110/191/128 112/192/128
f 177/193/129 178/194/129 138/195/129 137/196/129
f 179/197/130 180/198/130 88/199/130 87/200/130
f 181/201/131 182/202/131 82/203/131 117/204/131
f 183/205/132 161/161/132 158/164/132 155/206/132
f 184/207/133 185/208/133 106/209/133 105/210/133
f 174/186/134 186/211/134 147/212/134 146/187/134
f 187/213/135 167/173/135 122/176/135 124/214/135
f 188/215/136 165/169/136 131/172/136 128/216/136
f 189/217/137 190/218/137 115/219/137 114/220/137
f 191/221/138 171/181/138 94/184/138 96/222/138
f 170/178/139 175/189/139 112/192/139 84/179/139
f 192/223/140 191/221/140 96/222/140 100/224/140
f 178/194/141 173/185/141 143/188/141 138/195/141
f 190/218/142 181/201/142 117/204/142 115/219/142
f 168/174/143 193/225/143 120/226/143 119/175/143
f 194/227/144 179/197/144 87/200/144 90/228/144
f 195/229/145 183/205/145 155/206/145 152/230/145
f 196/231/146 184/207/146 105/210/146 108/232/146
f 185/208/147 163/165/147 102/168/147 106/209/147
f 197/233/148 188/215/148 128/216/148 125/234/148
f 198/235/149 187/213/149 124/214/149 85/236/149
f 162/162/150 189/217/150 114/220/150 113/163/150
f 164/166/151 192/223/151 100/224/151 99/167/151
f 166/170/152 177/193/152 137/196/152 134/171/152
f 180/198/153 198/235/153 85/236/153 88/199/153
f 172/182/154 194/227/154 90/228/154 92/183/154
f 176/190/155 196/231/155 108/232/155 110/191/155
f 186/211/156 195/229/156 152/230/156 147/212/156
f 182/202/157 169/177/157 83/180/157 82/203/157
f 193/225/158 197/233/158 125/234/158 120/226/158
f 6/237/159 5/238/159 162/162/159 161/161/159
f 23/239/160 22/240/160 164/166/160 163/165/160
f 13/241/161 12/242/161 166/170/161 165/169/161
f 33/243/162 1/244/162 168/174/162 167/173/162
f 4/245/163 28/246/163 170/178/163 169/177/163
f 20/247/164 19/248/164 172/182/164 171/181/164
f 10/249/165 29/250/165 174/186/165 173/185/165
f 27/251/166 26/252/166 176/190/166 175/189/166
f 31/253/167 11/254/167 178/194/167 177/193/167
f 17/255/168 2/244/168 180/198/168 179/197/168
f 37/256/169 36/257/169 182/202/169 181/201/169
f 7/258/170 6/237/170 161/161/170 183/205/170
f 24/259/171 30/260/171 185/208/171 184/207/171
f 29/250/172 9/261/172 186/211/172 174/186/172
f 34/262/173 33/243/173 167/173/173 187/213/173
f 14/263/174 13/241/174 165/169/174 188/215/174
f 3/245/175 38/257/175 190/218/175 189/217/175
f 21/264/176 20/247/176 171/181/176 191/221/176
f 28/246/177 27/251/177 175/189/177 170/178/177
f 32/265/178 21/264/178 191/221/178 192/223/178
f 11/254/179 10/249/179 173/185/179 178/194/179
f 38/257/180 37/256/180 181/201/180 190/218/180
f 1/244/181 16/255/181 193/225/181 168/174/181
f 18/266/182 17/255/182 179/197/182 194/227/182
f 8/267/183 7/258/183 183/205/183 195/229/183
f 25/268/184 24/259/184 184/207/184 196/231/184
f 30/260/185 23/239/185 163/165/185 185/208/185
f 15/269/186 14/263/186 188/215/186 197/233/186
f 35/243/187 34/262/187 187/213/187 198/235/187
f 5/238/188 3/245/188 189/217/188 162/162/188
f 22/240/189 32/265/189 192/223/189 164/166/189
f 12/242/190 31/253/190 177/193/190 166/170/190
f 2/244/191 35/243/191 198/235/191 180/198/191
f 19/248/192 18/266/192 194/227/192 172/182/192
f 26/252/193 25/268/193 196/231/193 176/190/193
f 9/261/194 8/267/194 195/229/194 186/211/194
f 36/257/195 4/245/195 169/177/195 182/202/195
f 16/255/196 15/269/196 197/233/196 193/225/196
