v 19.524021 -2.464579 23.391571
v 20.411005 -0.863618 22.136303
v 17.936146 -1.292137 20.083607
v 17.158834 -2.695131 21.183659
v 17.871347 -0.559265 24.653801
v 18.758331 1.041696 23.398529
v 16.298677 -0.255679 20.248444
v 15.521371 -1.658675 21.348495
v 18.875784 -4.282000 17.418526
v 18.317383 -5.289878 18.208773
v 17.626274 -4.042530 16.841022
v 17.067875 -5.050410 17.631273
v 19.524021 -2.464579 23.391571
v 19.524021 -2.464579 23.391571
v 17.871347 -0.559265 24.653801
v 17.871347 -0.559265 24.653801
v 18.758331 1.041696 23.398529
v 18.758331 1.041696 23.398529
v 20.411005 -0.863618 22.136303
v 20.411005 -0.863618 22.136303
v 16.298677 -0.255679 20.248444
v 16.298677 -0.255679 20.248444
v 17.936146 -1.292137 20.083607
v 17.936146 -1.292137 20.083607
v 15.521371 -1.658675 21.348495
v 15.521371 -1.658675 21.348495
v 17.158834 -2.695131 21.183659
v 17.158834 -2.695131 21.183659
v 17.626274 -4.042530 16.841022
v 17.626274 -4.042530 16.841022
v 18.875784 -4.282000 17.418526
v 18.875784 -4.282000 17.418526
v 17.067875 -5.050410 17.631273
v 17.067875 -5.050410 17.631273
v 18.317383 -5.289878 18.208773
v 18.317383 -5.289878 18.208773
vt 0.764282 0.775667
vt 0.764282 0.799351
vt 0.743959 0.799313
vt 0.743959 0.775629
vt 0.712586 0.801335
vt 0.733405 0.816340
vt 0.714295 0.839146
vt 0.696749 0.836460
vt 0.314649 0.870248
vt 0.316739 0.838818
vt 0.327406 0.838819
vt 0.329498 0.870248
vt 0.579043 0.958619
vt 0.596587 0.956232
vt 0.615618 0.978904
vt 0.594676 0.993495
vt 0.310519 0.978252
vt 0.312501 0.954746
vt 0.326543 0.953708
vt 0.326543 0.977067
vt 0.532820 0.901785
vt 0.530315 0.870548
vt 0.550571 0.870905
vt 0.550571 0.902098
vt 0.605835 0.898125
vt 0.605835 0.910945
vt 0.593703 0.910768
vt 0.593703 0.897949
vt 0.579043 0.958619
vt 0.604307 0.918911
vt 0.615618 0.924908
vt 0.596587 0.956232
vt 0.512675 0.941277
vt 0.515173 0.893044
vt 0.527968 0.893044
vt 0.530485 0.941277
vt 0.714295 0.839146
vt 0.733405 0.871608
vt 0.722012 0.877448
vt 0.696749 0.836460
vn 0.704922 0.152563 0.692683
f 15/1/1 13/2/1 19/3/1
f 15/1/1 19/3/1 17/4/1
vn 0.369399 0.714243 -0.594475
f 18/5/2 20/6/2 23/7/2
f 18/5/2 23/7/2 21/8/2
vn 0.880314 -0.130010 0.456229
f 28/9/3 36/10/3 32/11/3
f 28/9/3 32/11/3 24/12/3
vn -0.417105 -0.742360 0.524334
f 26/13/4 27/14/4 14/15/4
f 26/13/4 14/15/4 16/16/4
vn 0.531678 -0.685052 -0.498017
f 1/17/5 4/18/5 3/19/5
f 1/17/5 3/19/5 2/20/5
vn -0.715807 0.631036 0.299023
f 25/21/6 5/22/6 6/23/6
f 25/21/6 6/23/6 22/24/6
vn 0.201223 -0.671012 -0.713619
f 29/25/7 31/26/7 35/27/7
f 29/25/7 35/27/7 33/28/7
vn -0.388613 -0.755405 0.527583
f 26/29/8 34/30/8 10/31/8
f 26/29/8 10/31/8 27/32/8
vn -0.874959 0.116206 -0.470046
f 7/33/9 30/34/9 12/35/9
f 7/33/9 12/35/9 8/36/9
vn 0.412192 0.675005 -0.611936
f 23/37/10 9/38/10 11/39/10
f 23/37/10 11/39/10 21/40/10
