v -0.060913 0.613311 0.082461
v -0.061873 0.905516 0.021042
v -0.066795 0.871835 0.151869
v -0.116086 0.819253 -0.014937
v -0.052307 0.675364 -0.010122
v -0.092507 0.631064 0.152807
v -0.088196 0.787174 0.184564
v -0.084521 0.826049 0.172236
v -0.105363 0.869364 -0.004486
v -0.082283 0.716909 -0.022178
v -0.089903 0.698956 0.188482
v -0.076579 0.634698 0.027081
v -0.082224 0.891720 0.083066
v -0.089548 0.670647 0.057838
v -0.121718 0.805676 0.146130
v -0.115216 0.836438 0.138877
v -0.053507 0.723401 0.208976
v -0.103995 0.704583 0.096225
v -0.008146 0.593258 0.117494
v -0.050752 0.626613 0.203025
v -0.006304 0.774992 0.227254
v -0.006502 0.678370 -0.024288
v -0.001164 0.840619 0.195568
v -0.038351 0.712217 0.215696
v -0.003784 0.713165 -0.038395
v -0.037047 0.685519 0.215443
v -0.093306 0.767969 0.180228
v -0.109722 0.757224 -0.014070
v -0.115289 0.762308 0.135459
v -0.012966 0.726604 0.234181
v -0.019399 0.760723 -0.052120
v -0.070281 0.675831 0.194759
v 0.040433 0.664009 0.205550
v 0.016786 0.625282 0.219000
v 0.009481 0.682418 0.219960
v 0.016312 0.711081 0.218152
v 0.029571 0.723190 0.210130
v 0.010726 0.902180 0.072865
v 0.003785 0.871433 0.162877
v 0.006009 0.841379 -0.024256
v -0.003324 0.904043 0.018324
v -0.012024 0.815198 -0.047753
v 0.169639 -0.045365 -0.165391
v 0.172337 0.017396 0.049194
v -0.116103 0.011094 0.060783
v -0.111706 0.003493 -0.175509
v 0.165850 0.315128 -0.169556
v 0.139681 0.345327 0.051092
v -0.127968 0.325098 0.045773
v -0.122057 0.270628 -0.199834
v 0.232161 0.584999 -0.178874
v 0.228221 0.533263 0.010306
v -0.178142 0.474255 -0.014294
v -0.190319 0.529240 -0.195763
v 0.192507 -0.079456 -0.116879
v 0.193956 -0.011476 0.030033
v -0.160739 -0.015511 0.014452
v -0.147710 -0.062261 -0.132995
v 0.181601 0.400940 -0.147392
v 0.172492 0.402183 -0.033759
v -0.161174 0.285581 0.000784
v -0.159578 0.262786 -0.161959
v 0.272556 0.585618 -0.152146
v 0.285795 0.518839 -0.048416
v -0.269225 0.516325 -0.070057
v -0.241421 0.564997 -0.168530
v 0.248848 0.425323 -0.246037
v 0.237491 0.433082 -0.091549
v 0.344271 0.450298 -0.226090
v 0.342669 0.439145 -0.137328
v 0.298438 0.196873 -0.343520
v 0.265940 0.186325 -0.291591
v 0.353044 0.235319 -0.307500
v 0.309966 0.223291 -0.256059
v 0.339664 -0.014911 -0.137064
v 0.287026 -0.047424 -0.080994
v 0.350579 0.023219 -0.105600
v 0.303760 0.014658 -0.077274
v 0.332220 -0.084462 -0.065971
v 0.280552 -0.077711 -0.035694
v 0.357554 -0.041943 -0.043447
v 0.312388 -0.025598 -0.023780
v 0.368599 -0.113336 0.009342
v 0.266162 -0.098537 0.019308
v 0.348788 -0.111263 0.040287
v 0.289025 -0.081872 0.047482
v 0.355176 -0.158009 0.020261
v 0.261537 -0.135277 0.038653
v 0.339544 -0.169562 0.046521
v 0.261598 -0.144197 0.062862
v 0.345667 -0.169425 0.011225
v 0.267828 -0.145718 0.034809
v 0.301215 -0.207591 0.008909
v 0.249609 -0.190325 0.020684
v -0.250280 0.408093 -0.142862
v -0.238945 0.419170 -0.202809
v -0.347150 0.480520 -0.144583
v -0.325565 0.533411 -0.224563
v -0.435758 0.331535 -0.292290
v -0.428550 0.379847 -0.370287
v -0.480785 0.354334 -0.279864
v -0.489234 0.372051 -0.372358
v -0.385304 0.257479 -0.299131
v -0.443081 0.282839 -0.380880
v -0.459155 0.265369 -0.261632
v -0.486757 0.250555 -0.347823
v -0.349806 0.097292 -0.233426
v -0.378120 0.071087 -0.261736
v -0.385382 0.108104 -0.207477
v -0.415556 0.073711 -0.236492
v 0.054816 -0.048889 -0.181356
v 0.006104 -0.026470 -0.186526
v 0.062682 0.012134 0.074980
v -0.004004 0.002913 0.074484
v 0.082547 0.288636 -0.195546
v -0.015064 0.459139 -0.201407
v 0.060366 0.335226 0.078864
v -0.049886 0.377839 0.062873
v 0.095975 0.603521 -0.171559
v -0.100066 0.590668 -0.168817
v 0.102247 0.537556 0.051367
v -0.071320 0.505891 0.046521
v 0.048361 -0.095993 -0.121017
v 0.005566 -0.092256 -0.133683
v 0.067783 -0.023678 0.049055
v -0.029836 -0.008960 0.046023
v -0.121101 0.649034 -0.111975
v 0.129348 0.614458 -0.076165
v -0.086515 0.570287 0.025325
v 0.070493 0.586227 0.024002
v -0.078110 0.661659 -0.081215
v 0.072593 0.650695 -0.051030
v -0.062295 0.617294 0.083348
v 0.046880 0.613990 0.098372
v 0.083065 0.898876 0.024915
v 0.074330 0.866195 0.180256
v -0.052434 0.676479 -0.010954
v 0.078528 0.790977 0.208669
v 0.060940 0.614342 0.170310
v 0.042982 0.659673 0.000018
v 0.114091 0.769896 0.004327
v 0.116559 0.845318 0.013412
v 0.083623 0.827300 0.191767
v 0.194755 -0.213791 -0.071933
v 0.195789 -0.176603 0.064945
v -0.131103 -0.200805 0.004862
v -0.122979 -0.202981 -0.111036
v 0.058899 -0.209396 -0.075416
v -0.010348 -0.194716 -0.112225
v 0.073902 -0.185756 0.050593
v -0.023652 -0.197278 0.004968
v 0.203014 -0.309544 -0.030238
v 0.191682 -0.284084 0.087129
v 0.080908 -0.309765 -0.030373
v 0.083301 -0.289427 0.074349
v 0.249105 -0.482088 -0.085968
v 0.221717 -0.535727 0.031600
v 0.138997 -0.501577 -0.111427
v 0.125657 -0.535018 0.012281
v 0.236126 -0.544464 -0.055201
v 0.221637 -0.551597 0.010051
v 0.155121 -0.520290 -0.092076
v 0.146308 -0.559452 -0.001798
v 0.178164 -0.870183 -0.280026
v 0.176771 -0.846401 -0.138818
v 0.269363 -0.994721 0.029405
v 0.173763 -1.004779 0.057666
v 0.191197 -0.975883 0.052230
v 0.145254 0.155035 -0.149829
v 0.139179 0.159802 0.050814
v -0.125751 0.154778 0.042177
v -0.119735 0.161432 -0.168456
v 0.179855 0.147870 -0.111031
v 0.176957 0.162503 0.016015
v -0.159864 0.161671 -0.002135
v -0.157344 0.142405 -0.129594
v 0.056114 0.152329 0.066325
v -0.032513 0.140267 0.063695
v 0.064331 0.138568 -0.173414
v -0.014248 0.179378 -0.178826
v -0.127335 -0.315758 0.008016
v -0.125933 -0.318017 -0.104516
v -0.009393 -0.305934 -0.107100
v -0.018945 -0.311678 0.008373
v -0.132698 -0.435952 0.004451
v -0.135128 -0.434182 -0.112572
v -0.030306 -0.442140 -0.131496
v -0.029165 -0.433363 0.001220
v -0.139207 -0.460637 -0.008391
v -0.139530 -0.460139 -0.098945
v -0.044555 -0.463710 -0.105038
v -0.043029 -0.472327 -0.016121
v -0.112841 -0.848252 -0.071774
v -0.109902 -0.861655 -0.135998
v -0.053777 -0.864720 -0.141160
v -0.044580 -0.857055 -0.078152
v -0.112032 -0.925166 -0.046674
v -0.092963 -0.973577 -0.162189
v -0.049418 -0.974777 -0.144056
v -0.054957 -0.919513 -0.042445
v -0.134962 -1.006406 0.173990
v -0.049221 -1.009344 0.187723
v -0.070899 -0.978234 0.174329
v 0.067854 0.692260 0.189937
v 0.078299 0.690381 -0.005976
v 0.205200 -0.062777 -0.040990
v -0.180462 -0.064571 -0.055744
v 0.171111 0.374869 -0.079992
v -0.169827 0.255995 -0.077369
v 0.312661 0.553803 -0.095155
v -0.296329 0.550934 -0.112318
v 0.205544 0.443943 -0.141306
v 0.354677 0.445293 -0.181714
v 0.271127 0.185714 -0.314755
v 0.337081 0.223141 -0.277877
v 0.313074 -0.031994 -0.123297
v 0.326190 0.022576 -0.082506
v 0.336362 -0.031204 -0.031952
v 0.320629 -0.103296 0.052467
v 0.305551 -0.158079 0.063003
v 0.287958 -0.178367 0.032000
v -0.239621 0.421701 -0.185761
v -0.345831 0.509322 -0.182035
v -0.415402 0.341477 -0.344455
v -0.493920 0.375280 -0.321192
v -0.414677 0.264395 -0.341497
v -0.478168 0.252432 -0.302108
v -0.361693 0.081739 -0.248089
v -0.406755 0.092618 -0.217941
v 0.001646 -0.094607 -0.059827
v 0.122849 0.613923 -0.017805
v -0.137091 0.620571 -0.022072
v 0.069675 0.627769 0.032514
v -0.076717 0.638850 0.027724
v 0.096158 0.891622 0.083801
v 0.075184 0.650260 0.070105
v 0.121120 0.776026 0.146481
v 0.131646 0.853406 0.124703
v 0.213010 -0.205035 -0.008663
v -0.156081 -0.211154 -0.063142
v 0.047131 -0.197833 -0.015817
v -0.002771 -0.207993 -0.055950
v 0.211548 -0.302245 0.020423
v 0.060224 -0.298537 0.018687
v 0.256917 -0.501642 -0.040451
v 0.117264 -0.521000 -0.034764
v 0.237211 -0.547323 -0.022600
v 0.121595 -0.557502 -0.042980
v 0.269596 -0.855616 -0.193430
v 0.156404 -0.858462 -0.187501
v 0.194675 0.148525 -0.047991
v -0.172636 0.140634 -0.063267
v -0.154296 -0.319022 -0.061850
v -0.005377 -0.321752 -0.054213
v -0.158232 -0.424118 -0.053868
v -0.003005 -0.439482 -0.053232
v -0.145162 -0.456809 -0.055119
v -0.013900 -0.472340 -0.054688
v -0.121379 -0.851599 -0.108183
v -0.037428 -0.860985 -0.115669
v -0.128055 -0.929170 -0.082280
v 0.105715 0.687178 0.079748
v 0.034062 -0.032834 -0.151579
v 0.036748 0.001710 0.077678
v 0.029797 0.303778 -0.200052
v 0.012400 0.353349 0.073211
v 0.000474 0.571023 -0.164482
v 0.011894 0.517821 0.050547
v 0.031723 -0.036760 -0.127387
v 0.033502 -0.026832 0.049376
v -0.009950 0.647688 -0.103086
v -0.007318 0.567016 0.063376
v -0.002062 0.663674 -0.076536
v -0.008964 0.593947 0.117587
v -0.007693 0.678759 -0.024935
v 0.015147 0.144771 0.066777
v 0.028672 0.141316 -0.170183
v -0.005219 0.713509 -0.039304
v 0.031417 -0.046150 -0.058987
v -0.363631 0.021498 -0.219988
v -0.332081 0.047472 -0.197998
v -0.392846 0.020757 -0.191245
v -0.363108 0.047665 -0.168970
v -0.343387 -0.025172 -0.194713
v -0.299541 -0.012593 -0.173859
v -0.367360 -0.045215 -0.171312
v -0.312313 -0.012734 -0.139415
v -0.328078 -0.051697 -0.197328
v -0.285248 -0.027411 -0.174610
v -0.336779 -0.081931 -0.178997
v -0.279698 -0.041958 -0.145052
v -0.221529 -0.053183 -0.231631
v -0.265339 -0.072857 -0.254723
v -0.349196 0.033385 -0.213388
v -0.380310 0.036437 -0.177415
v -0.324841 -0.014141 -0.186627
v -0.340577 -0.025212 -0.152229
v -0.304483 -0.038495 -0.186526
v -0.302336 -0.061557 -0.157370
v -0.282372 -0.055306 -0.200751
v -0.258652 -0.058363 -0.213570
v -0.062194 -0.018453 -0.211560
v -0.067205 0.016063 0.073582
v -0.059914 0.310709 -0.205098
v -0.087333 0.344982 0.046349
v -0.131691 0.571702 -0.189727
v -0.133188 0.499137 0.013163
v -0.077102 -0.088388 -0.162047
v -0.098798 -0.023617 0.053504
v -0.216939 0.624550 -0.130941
v -0.154913 0.554185 -0.004292
v -0.067720 -0.200326 -0.136964
v -0.076199 -0.198645 0.037058
v -0.081831 0.145746 0.056768
v -0.068946 0.153340 -0.179963
v -0.067270 -0.313384 -0.126230
v -0.067963 -0.310987 0.046514
v -0.080548 -0.439631 -0.172570
v -0.081468 -0.427478 0.039146
v -0.087797 -0.470758 -0.152514
v -0.092763 -0.459270 0.012006
v -0.082209 -0.861843 -0.157183
v -0.081988 -0.840079 -0.057749
v -0.074964 -0.973173 -0.178713
v -0.082990 -0.917620 -0.020684
v -0.110662 -1.006926 0.182088
v -0.106172 -0.986686 0.163464
v -0.203285 0.601831 -0.047072
v 0.202953 0.611900 -0.113005
v 0.111949 -0.056148 -0.192836
v 0.113325 0.025422 0.063037
v 0.122802 0.286206 -0.187468
v 0.100634 0.331515 0.073504
v 0.185855 0.599203 -0.184123
v 0.178716 0.546659 0.028862
v 0.119228 -0.101307 -0.139998
v 0.118253 -0.007006 0.051363
v 0.123732 -0.216464 -0.095762
v 0.128032 -0.172113 0.099554
v 0.141410 -0.305382 -0.044254
v 0.143554 -0.281913 0.125366
v 0.197323 -0.495239 -0.120047
v 0.160918 -0.539976 0.053473
v 0.209724 -0.521557 -0.133675
v 0.180192 -0.551947 0.025535
v 0.200586 -0.859918 -0.305667
v 0.205003 -0.848820 -0.121985
v 0.096805 0.153117 0.062430
v 0.101410 0.139156 -0.169248
v 0.214517 0.596301 -0.053921
v -0.309074 -0.069046 -0.212804
v -0.310421 -0.095447 -0.202656
v -0.250940 -0.058426 -0.169791
v -0.265292 -0.041593 -0.188198
v -0.271831 -0.077260 -0.181280
v -0.287277 0.013626 -0.173507
v -0.283236 0.033745 -0.175407
v -0.298073 0.014770 -0.141660
v -0.293421 0.039394 -0.149448
v -0.250682 0.016616 -0.194710
v -0.233621 0.001281 -0.193744
v -0.268768 0.011449 -0.177443
v -0.264498 0.010230 -0.153530
v -0.261017 0.025468 -0.157477
v -0.266529 0.024047 -0.180188
v -0.352553 -0.003127 -0.204784
v -0.381065 -0.012994 -0.178406
v -0.340759 0.021189 -0.149906
v -0.319297 0.020966 -0.185967
v -0.362758 0.005817 -0.162675
v -0.338323 0.009415 -0.198208
v -0.302463 0.042660 -0.178224
v -0.319135 0.050132 -0.151816
v -0.292514 -0.001306 -0.171762
v -0.308390 0.004360 -0.139370
v -0.318003 0.028183 -0.142907
v -0.301146 0.023184 -0.175449
v -0.162659 0.457186 -0.212047
v -0.155821 0.440295 0.025464
v 0.190452 0.463004 0.025462
v 0.213315 0.507293 -0.210479
v -0.216965 0.503133 -0.238123
v -0.215394 0.432065 -0.040355
v 0.238034 0.474474 -0.042945
v 0.255996 0.488225 -0.219157
v 0.296491 0.418380 -0.136681
v 0.318654 0.439290 -0.258560
v 0.285856 0.208718 -0.267613
v 0.332381 0.221028 -0.333292
v 0.284156 -0.026325 -0.066983
v 0.355473 0.005273 -0.122344
v 0.287025 -0.047744 -0.022237
v 0.350195 -0.065915 -0.056275
v 0.272112 -0.086642 0.035194
v 0.197279 -0.940287 0.023708
v -0.285644 0.521970 -0.245664
v -0.291437 0.431945 -0.139512
v -0.461159 0.387231 -0.376786
v -0.466437 0.327467 -0.273030
v -0.474573 0.265244 -0.381900
v -0.416202 0.258854 -0.266798
v -0.376557 -0.016199 -0.197082
v -0.362854 0.107194 -0.215534
v -0.059208 0.435491 0.058513
v 0.084300 0.463613 0.087442
v 0.105844 0.467358 -0.220389
v -0.057191 0.474536 -0.211187
v 0.169669 -0.970666 -0.031326
v 0.011675 0.454106 0.083200
v 0.046812 0.540353 -0.181204
v -0.342453 0.057406 -0.182260
v -0.319496 -0.090384 -0.213217
v -0.294876 -0.018529 -0.153976
v -0.342177 -0.074952 -0.193649
v -0.275352 -0.029482 -0.158014
v -0.365122 -0.043332 -0.188499
v -0.109195 0.440407 -0.208709
v -0.113945 0.433992 0.037397
v 0.140952 0.471653 0.061831
v 0.163671 0.471933 -0.219766
v -0.387987 0.012989 -0.211104
v -0.254096 -0.043864 -0.177287
v -0.287590 0.043492 -0.163933
v -0.290766 -0.000460 -0.155690
v -0.246842 0.001742 -0.190847
v -0.267404 0.002427 -0.164203
v -0.262420 0.029388 -0.169697
v -0.406809 0.064028 -0.253790
v -0.311213 0.053505 -0.166397
v 0.118144 0.730794 0.003027
v 0.075832 0.769996 0.201656
v 0.108128 0.735898 0.126366
v 0.275492 0.328677 -0.300185
v 0.351333 0.330733 -0.282396
v 0.328844 0.313163 -0.207659
v 0.259144 0.309813 -0.230980
v 0.353753 0.320910 -0.241118
v 0.251944 0.314316 -0.268847
v 0.319454 0.331773 -0.305345
v 0.286683 0.308841 -0.203265
v 0.265858 -0.086371 -0.022449
v 0.262148 -0.065228 -0.048114
v 0.264129 -0.081396 -0.007116
v 0.269986 -0.050320 -0.040444
v 0.249380 -0.086762 -0.017387
v -0.047995 -0.999983 0.102908
v -0.071851 -0.967735 0.133266
v -0.136537 -0.982894 0.116258
v -0.143385 -0.997404 0.097293
v 0.173128 -0.943065 0.001293
v 0.271558 -0.952678 -0.030845
v -0.052561 -0.978562 0.136349
v -0.108206 -0.971668 0.139584
v -0.100019 -0.997356 0.077435
v 0.230344 -0.941766 0.026276
v 0.224475 -0.963737 -0.050629
v 0.039589 0.664926 0.205474
v 0.015952 0.626225 0.219017
v -0.127354 0.625814 -0.084762
v 0.244654 -0.847012 -0.150857
v 0.262658 -0.942013 0.014006
v 0.238894 -0.110573 0.010494
v 0.235632 -0.878843 -0.257398
v 0.286177 -0.965302 -0.044303
v 0.235914 -1.005740 0.061008
v 0.231222 -0.975010 0.058397
v -0.032030 -0.943947 -0.074326
v 0.010738 0.902626 0.073053
v -0.002405 0.871989 0.162808
v -0.006846 0.841729 0.195562
v 0.003960 0.841995 -0.024070
v -0.007461 0.904742 0.018247
v 0.028561 0.724879 0.210620
v -0.007275 0.775506 0.227745
v -0.012770 0.816623 -0.047751
v -0.022170 0.761675 -0.052604
v 0.258296 -0.922981 -0.150953
v 0.186186 -0.899877 -0.059977
v 0.173404 -0.901024 -0.092665
v 0.254503 -0.899141 -0.111089
v 0.215214 -0.902296 -0.050560
v 0.208266 -0.913295 -0.178358
v 0.179515 -0.921691 -0.155482
v 0.237321 -0.902226 -0.071915
v -0.063176 -0.990593 -0.010369
v -0.135865 -0.985164 -0.007680
v -0.063591 -0.948710 0.045050
v -0.119783 -0.954861 0.044773
v -0.095908 -0.952938 0.058860
v -0.087771 -0.983619 -0.050920
v -0.127808 -0.956775 0.026958
v -0.047777 -0.956763 0.031981
v 0.172659 -0.784695 -0.146869
v 0.177213 -0.768209 -0.216276
v 0.155856 -0.780887 -0.173738
v 0.243161 -0.780715 -0.166460
v 0.205541 -0.764186 -0.232949
v 0.196317 -0.786907 -0.132947
v 0.227408 -0.784170 -0.145034
v 0.230253 -0.778274 -0.194975
v 0.093574 -0.411550 0.092915
v 0.099479 -0.406428 -0.040973
v 0.228330 -0.396376 -0.031054
v 0.076817 -0.406798 0.032731
v 0.236501 -0.404392 0.027348
v 0.165086 -0.401300 -0.052399
v 0.222471 -0.409045 0.072838
v 0.208066 -0.412654 0.113780
v 0.176946 -0.411225 0.125540
v 0.148637 -0.413642 0.138717
v 0.127828 -0.411794 0.126540
v -0.412461 0.294598 -0.297388
v -0.480605 0.306953 -0.282494
v -0.497200 0.311790 -0.323254
v -0.443564 0.292877 -0.272151
v -0.445420 0.336062 -0.380791
v -0.425065 0.307251 -0.348861
v -0.477203 0.330004 -0.385009
v -0.411178 0.298486 -0.332682
v -0.489391 0.325587 -0.381717
v -0.503165 0.317411 -0.343348
vt 0.069736 0.810409
vt 0.070343 0.836608
vt 0.016229 0.816513
vt 0.108198 0.828833
vt 0.082923 0.858291
vt 0.106675 0.817219
vt 0.100807 0.806030
vt 0.150135 0.804118
vt 0.147186 0.813631
vt 0.174865 0.804059
vt 0.199136 0.770721
vt 0.202768 0.808668
vt 0.238571 0.772226
vt 0.263052 0.806977
vt 0.232791 0.807582
vt 0.219562 0.756768
vt 0.197768 0.831600
vt 0.178180 0.842881
vt 0.234127 0.832144
vt 0.215107 0.851808
vt 0.137368 0.848515
vt 0.110896 0.852930
vt 0.145348 0.858722
vt 0.117053 0.872845
vt 0.102955 0.908822
vt 0.126935 0.911784
vt 0.138976 0.939172
vt 0.152030 0.900103
vt 0.166281 0.939086
vt 0.089864 0.882970
vt 0.149277 0.791186
vt 0.257412 0.845823
vt 0.214501 0.867849
vt 0.213059 0.907146
vt 0.051165 0.936868
vt 0.014365 0.995179
vt 0.015016 0.932731
vt 0.015519 0.884587
vt 0.078700 0.906981
vt 0.119497 0.940371
vt 0.219156 0.966110
vt 0.215077 0.942549
vt 0.015832 0.854569
vt 0.016051 0.833512
vt 0.179234 0.620343
vt 0.197718 0.646091
vt 0.173652 0.698841
vt 0.182928 0.613250
vt 0.178951 0.620309
vt 0.026111 0.589592
vt 0.036575 0.571852
vt 0.091358 0.586156
vt 0.124688 0.593060
vt 0.160572 0.604071
vt 0.170757 0.608279
vt 0.530541 0.500669
vt 0.510531 0.463554
vt 0.551834 0.493069
vt 0.552803 0.545871
vt 0.590385 0.499029
vt 0.586699 0.548165
vt 0.709463 0.233461
vt 0.736981 0.227836
vt 0.754824 0.286062
vt 0.746649 0.660255
vt 0.764971 0.572211
vt 0.792005 0.606361
vt 0.782569 0.517985
vt 0.798161 0.553887
vt 0.756625 0.500475
vt 0.737230 0.581062
vt 0.736075 0.519940
vt 0.733529 0.479446
vt 0.750714 0.455948
vt 0.710553 0.534913
vt 0.713606 0.486083
vt 0.707849 0.591243
vt 0.721914 0.656839
vt 0.056404 0.510554
vt 0.059910 0.459217
vt 0.082250 0.470310
vt 0.111457 0.463904
vt 0.112872 0.507403
vt 0.101446 0.443261
vt 0.056753 0.433066
vt 0.024045 0.465652
vt 0.523770 0.443500
vt 0.557804 0.459512
vt 0.592367 0.472603
vt 0.536472 0.416574
vt 0.563911 0.425104
vt 0.586690 0.416660
vt 0.568725 0.405936
vt 0.575182 0.380223
vt 0.594668 0.441922
vt 0.051716 0.399758
vt 0.024388 0.442698
vt 0.081566 0.396057
vt 0.093588 0.424361
vt 0.128566 0.412255
vt 0.109875 0.389620
vt 0.144957 0.383594
vt 0.141775 0.429221
vt 0.140728 0.456272
vt 0.132597 0.505439
vt 0.682119 0.592684
vt 0.697545 0.666171
vt 0.684063 0.542042
vt 0.648993 0.547098
vt 0.685757 0.487986
vt 0.653522 0.591244
vt 0.623556 0.582985
vt 0.679541 0.670859
vt 0.662650 0.670490
vt 0.157697 0.458631
vt 0.158681 0.391976
vt 0.157741 0.429866
vt 0.177530 0.430906
vt 0.454911 0.444893
vt 0.463736 0.393656
vt 0.479621 0.447783
vt 0.429932 0.441906
vt 0.454684 0.472779
vt 0.434980 0.472434
vt 0.472824 0.476894
vt 0.476425 0.525671
vt 0.456561 0.523166
vt 0.499275 0.486705
vt 0.497959 0.533883
vt 0.650874 0.220393
vt 0.668673 0.225869
vt 0.676740 0.279524
vt 0.688030 0.233060
vt 0.523816 0.542864
vt 0.493663 0.422434
vt 0.474451 0.386123
vt 0.482005 0.375180
vt 0.505422 0.400154
vt 0.514707 0.384843
vt 0.523991 0.369532
vt 0.531331 0.397196
vt 0.491685 0.367753
vt 0.128703 0.369584
vt 0.104505 0.368381
vt 0.099134 0.347142
vt 0.124471 0.341259
vt 0.103840 0.290043
vt 0.125032 0.288667
vt 0.506874 0.315104
vt 0.523971 0.318162
vt 0.260244 0.201008
vt 0.260256 0.148470
vt 0.285563 0.152714
vt 0.307173 0.152925
vt 0.307427 0.206656
vt 0.310405 0.109643
vt 0.286264 0.108735
vt 0.286965 0.064755
vt 0.267247 0.062003
vt 0.295875 0.025083
vt 0.263751 0.105236
vt 0.252893 0.056371
vt 0.440764 0.192044
vt 0.442886 0.130542
vt 0.459726 0.145161
vt 0.438643 0.253546
vt 0.412179 0.246705
vt 0.072435 0.349262
vt 0.073244 0.290649
vt 0.045943 0.349562
vt 0.077001 0.372659
vt 0.598868 0.385923
vt 0.596768 0.413923
vt 0.025330 0.379831
vt 0.048830 0.374660
vt 0.025785 0.349403
vt 0.026752 0.284835
vt 0.049424 0.287418
vt 0.388440 0.194221
vt 0.413018 0.188997
vt 0.545758 0.095983
vt 0.484907 0.101111
vt 0.491324 0.068919
vt 0.543531 0.316131
vt 0.571026 0.317433
vt 0.603411 0.325357
vt 0.336412 0.145885
vt 0.334734 0.199716
vt 0.313637 0.066360
vt 0.339506 0.058746
vt 0.419166 0.101111
vt 0.415550 0.073077
vt 0.418936 0.041329
vt 0.485174 0.030517
vt 0.545250 0.041004
vt 0.555771 0.071660
vt 0.550413 0.377675
vt 0.558050 0.404510
vt 0.731741 0.299501
vt 0.713679 0.331519
vt 0.699831 0.287050
vt 0.699623 0.348759
vt 0.689400 0.321677
vt 0.663804 0.312784
vt 0.654456 0.274483
vt 0.634618 0.311670
vt 0.669502 0.338169
vt 0.604363 0.274181
vt 0.630672 0.275261
vt 0.632768 0.219732
vt 0.612796 0.219139
vt 0.578680 0.274242
vt 0.840163 0.675460
vt 0.805000 0.641210
vt 0.821835 0.616809
vt 0.823287 0.709302
vt 0.792442 0.666262
vt 0.801265 0.732258
vt 0.840971 0.744966
vt 0.781333 0.686390
vt 0.557027 0.277312
vt 0.566024 0.224516
vt 0.589504 0.220607
vt 0.375096 0.492402
vt 0.384961 0.458486
vt 0.405199 0.486941
vt 0.410574 0.526483
vt 0.436273 0.522295
vt 0.410194 0.413373
vt 0.430433 0.380777
vt 0.455808 0.393131
vt 0.165665 0.393959
vt 0.192333 0.391907
vt 0.203471 0.419505
vt 0.207389 0.368304
vt 0.225411 0.391622
vt 0.396034 0.384167
vt 0.373257 0.427405
vt 0.420432 0.356604
vt 0.385943 0.354045
vt 0.365034 0.394965
vt 0.359348 0.362250
vt 0.361655 0.322007
vt 0.331496 0.354320
vt 0.389735 0.318213
vt 0.408299 0.313218
vt 0.407520 0.344510
vt 0.211730 0.328779
vt 0.220254 0.292264
vt 0.240239 0.298890
vt 0.032729 0.262939
vt 0.010266 0.262462
vt 0.022123 0.216488
vt 0.183362 0.259934
vt 0.169879 0.261827
vt 0.170456 0.200058
vt 0.152871 0.212064
vt 0.157816 0.257421
vt 0.131245 0.259389
vt 0.152744 0.212061
vt 0.329851 0.315255
vt 0.305156 0.349663
vt 0.332361 0.395198
vt 0.336616 0.434023
vt 0.342953 0.472564
vt 0.302718 0.434937
vt 0.305443 0.474901
vt 0.344205 0.538039
vt 0.305197 0.529271
vt 0.381368 0.533821
vt 0.526919 0.283769
vt 0.770507 0.751644
vt 0.805920 0.758992
vt 0.759849 0.709726
vt 0.733814 0.766693
vt 0.731822 0.732613
vt 0.715848 0.699675
vt 0.731674 0.685305
vt 0.489862 0.276741
vt 0.503649 0.216719
vt 0.536949 0.224504
vt 0.500193 0.577651
vt 0.546406 0.567669
vt 0.550049 0.651223
vt 0.770277 0.950472
vt 0.741703 0.987031
vt 0.721975 0.973279
vt 0.670795 0.949235
vt 0.691763 0.924160
vt 0.667253 0.759822
vt 0.647596 0.761046
vt 0.661418 0.745912
vt 0.674984 0.731059
vt 0.685126 0.785114
vt 0.727911 0.801324
vt 0.684541 0.813951
vt 0.779951 0.788271
vt 0.812240 0.817931
vt 0.777899 0.838219
vt 0.732181 0.843380
vt 0.684428 0.846295
vt 0.661248 0.840977
vt 0.662804 0.852998
vt 0.662157 0.811417
vt 0.664185 0.784673
vt 0.643244 0.784232
vt 0.590894 0.788058
vt 0.588395 0.804006
vt 0.546988 0.807658
vt 0.648291 0.946686
vt 0.655183 0.935733
vt 0.625362 0.944088
vt 0.565379 0.931164
vt 0.577026 0.913602
vt 0.517318 0.950251
vt 0.518656 0.937728
vt 0.532671 0.916079
vt 0.498534 0.934775
vt 0.508386 0.916362
vt 0.498934 0.958053
vt 0.504952 0.967267
vt 0.538647 0.828159
vt 0.520554 0.803562
vt 0.506540 0.794164
vt 0.512161 0.782695
vt 0.526812 0.792410
vt 0.499805 0.976893
vt 0.490810 0.970078
vt 0.606211 0.225665
vt 0.595724 0.228838
vt 0.600010 0.221730
vt 0.495368 0.986286
vt 0.485546 0.980051
vt 0.476390 0.972088
vt 0.479016 0.958002
vt 0.594230 0.216702
vt 0.592138 0.225545
vt 0.586564 0.214627
vt 0.590529 0.228890
vt 0.597639 0.217468
vt 0.605528 0.228876
vt 0.601098 0.232224
vt 0.604423 0.216146
vt 0.496747 0.782205
vt 0.501342 0.775490
vt 0.492601 0.804070
vt 0.489730 0.787509
vt 0.506750 0.811736
vt 0.492742 0.816421
vt 0.513412 0.828903
vt 0.488759 0.827748
vt 0.474192 0.805949
vt 0.511728 0.849291
vt 0.490026 0.847743
vt 0.536808 0.847447
vt 0.531596 0.867423
vt 0.579848 0.843550
vt 0.583631 0.821038
vt 0.639773 0.808883
vt 0.638068 0.835659
vt 0.640348 0.859960
vt 0.577914 0.864185
vt 0.582099 0.876926
vt 0.584670 0.895647
vt 0.537191 0.899022
vt 0.667339 0.876481
vt 0.668457 0.888449
vt 0.646086 0.879394
vt 0.736172 0.880839
vt 0.740176 0.911475
vt 0.690828 0.897503
vt 0.738403 0.943686
vt 0.778359 0.920543
vt 0.803771 0.938845
vt 0.794015 0.972059
vt 0.784290 0.882232
vt 0.808911 0.904111
vt 0.820719 0.863047
vt 0.834152 0.902731
vt 0.860307 0.861182
vt 0.865071 0.907486
vt 0.854923 0.958699
vt 0.829423 0.947565
vt 0.815176 0.985898
vt 0.887162 0.982680
vt 0.841126 0.997513
vt 0.599526 0.582393
vt 0.641540 0.666649
vt 0.148351 0.505738
vt 0.174193 0.461810
vt 0.207317 0.471588
vt 0.195039 0.515146
vt 0.222404 0.449298
vt 0.239531 0.431097
vt 0.252210 0.395818
vt 0.234712 0.343454
vt 0.265749 0.311085
vt 0.059449 0.258487
vt 0.041224 0.210106
vt 0.046055 0.145057
vt 0.065208 0.145112
vt 0.024679 0.151375
vt 0.162418 0.029328
vt 0.182110 0.066625
vt 0.166653 0.067555
vt 0.184383 0.102727
vt 0.186657 0.138828
vt 0.165079 0.140337
vt 0.141648 0.103851
vt 0.138732 0.067952
vt 0.115723 0.103496
vt 0.111228 0.067117
vt 0.106891 0.104386
vt 0.128518 0.203489
vt 0.120218 0.139876
vt 0.144564 0.139751
vt 0.102553 0.141654
vt 0.109393 0.202459
vt 0.089752 0.204557
vt 0.108356 0.261684
vt 0.084126 0.259809
vt 0.282949 0.354017
vt 0.258549 0.351892
vt 0.279678 0.394818
vt 0.273489 0.435894
vt 0.264764 0.465056
vt 0.236144 0.480843
vt 0.230426 0.525231
vt 0.576400 0.576912
vt 0.612982 0.659816
vt 0.582060 0.650525
vt 0.267987 0.525790
vt 0.305231 0.529680
vt 0.303387 0.392990
vt 0.288143 0.310611
vt 0.305042 0.312138
vt 0.080500 0.144623
vt 0.064947 0.207693
vt 0.555911 0.071265
vt 0.491604 0.068128
vt 0.166360 0.018036
vt 0.194569 0.061886
vt 0.205200 0.106980
vt 0.215831 0.152075
vt 0.145490 0.015442
vt 0.142316 0.025664
vt 0.122222 0.019171
vt 0.183428 0.191935
vt 0.098209 0.061670
vt 0.089191 0.103327
vt 0.904527 0.932446
vt 0.949699 0.948466
vt 0.911335 0.882488
vt 0.856281 0.836740
vt 0.887268 0.835598
vt 0.922921 0.857963
vt 0.965169 0.597470
vt 0.917537 0.577056
vt 0.944867 0.540579
vt 0.978071 0.883628
vt 0.973533 0.894384
vt 0.689807 0.425682
vt 0.723753 0.401854
vt 0.723676 0.441929
vt 0.751080 0.416759
vt 0.743080 0.379427
vt 0.787951 0.419748
vt 0.785654 0.452513
vt 0.788706 0.483118
vt 0.832288 0.454003
vt 0.836262 0.425753
vt 0.780027 0.392874
vt 0.831699 0.398084
vt 0.881984 0.402051
vt 0.879661 0.431814
vt 0.870752 0.458245
vt 0.864071 0.473143
vt 0.827228 0.478044
vt 0.861871 0.491751
vt 0.818704 0.500131
vt 0.958919 0.484608
vt 0.962949 0.502797
vt 0.937394 0.181666
vt 0.769056 0.171862
vt 0.923107 0.165442
vt 0.866430 0.519287
vt 0.825735 0.529120
vt 0.815376 0.348115
vt 0.773877 0.335777
vt 0.788825 0.312483
vt 0.742325 0.347461
vt 0.720633 0.360227
vt 0.774690 0.367418
vt 0.820904 0.374810
vt 0.872377 0.354530
vt 0.878939 0.376376
vt 0.819290 0.317856
vt 0.731418 0.161390
vt 0.740781 0.147624
vt 0.910959 0.146351
vt 0.728397 0.116884
vt 0.914298 0.126964
vt 0.743061 0.135898
vt 0.708508 0.185310
vt 0.696037 0.169448
vt 0.707778 0.159044
vt 0.676057 0.226459
vt 0.677608 0.225465
vt 0.676205 0.240475
vt 0.671792 0.238244
vt 0.671579 0.231190
vt 0.675970 0.223623
vt 0.780888 0.198982
vt 0.721993 0.208356
vt 0.777250 0.185608
vt 0.940749 0.196335
vt 0.683363 0.177018
vt 0.717878 0.068662
vt 0.713329 0.057286
vt 0.765911 0.073368
vt 0.691650 0.061870
vt 0.690905 0.050835
vt 0.704049 0.210128
vt 0.580357 0.233572
vt 0.578678 0.228747
vt 0.590575 0.223615
vt 0.632111 0.223278
vt 0.631029 0.218871
vt 0.633990 0.223808
vt 0.634144 0.230548
vt 0.630419 0.230702
vt 0.627492 0.228454
vt 0.685209 0.070727
vt 0.761098 0.088965
vt 0.932747 0.074007
vt 0.937492 0.094905
vt 0.957631 0.466678
vt 0.967928 0.421502
vt 0.960140 0.443954
vt 0.932725 0.111224
vt 0.750793 0.102746
vt 0.705453 0.080670
vt 0.711538 0.076342
vt 0.680790 0.074556
vt 0.626241 0.226931
vt 0.628045 0.218080
vt 0.582846 0.223738
vt 0.622224 0.225301
vt 0.624718 0.220016
vt 0.697557 0.089662
vt 0.676268 0.086597
vt 0.978665 0.398268
vt 0.692023 0.380408
vt 0.864947 0.581494
vt 0.899554 0.604654
vt 0.958903 0.642431
vt 0.337857 0.805645
vt 0.352329 0.816896
vt 0.335849 0.816248
vt 0.980156 0.877558
vt 0.909464 0.816878
vt 0.926421 0.834067
vt 0.281063 0.862176
vt 0.275086 0.902303
vt 0.214060 0.907716
vt 0.263508 0.936732
vt 0.293204 0.935134
vt 0.312830 0.897319
vt 0.306961 0.939965
vt 0.325778 0.911830
vt 0.378134 0.940095
vt 0.415505 0.929827
vt 0.418784 0.993411
vt 0.352990 0.912880
vt 0.416587 0.879286
vt 0.342977 0.862915
vt 0.334404 0.831281
vt 0.356169 0.822831
vt 0.421828 0.803268
vt 0.423463 0.790571
vt 0.281092 0.802015
vt 0.289344 0.787333
vt 0.914935 0.669173
vt 0.894371 0.655267
vt 0.941248 0.648461
vt 0.865116 0.631419
vt 0.904634 0.714904
vt 0.885904 0.758904
vt 0.900499 0.789879
vt 0.899007 0.788698
vt 0.853737 0.811092
vt 0.829870 0.777931
vt 0.860844 0.709530
vt 0.295623 0.819633
vt 0.287258 0.844412
vt 0.325763 0.856591
vt 0.321747 0.877511
vt 0.342095 0.889562
vt 0.420014 0.823008
vt 0.418443 0.847652
vt 0.214754 0.868398
vt 0.684556 0.874120
vt 0.672119 0.912381
vt 0.652475 0.900602
vt 0.639571 0.922231
vt 0.507622 0.881982
vt 0.511692 0.900015
vt 0.489666 0.900137
vt 0.580288 0.220048
vt 0.602597 0.219251
vt 0.595593 0.231166
vt 0.484047 0.918288
vt 0.483902 0.881354
vt 0.469443 0.898677
vt 0.461404 0.882670
vt 0.450183 0.899039
vt 0.464541 0.917413
vt 0.468275 0.936341
vt 0.471954 0.946277
vt 0.450867 0.951575
vt 0.488129 0.950503
vt 0.459843 0.957822
vt 0.474275 0.794513
vt 0.477930 0.782470
vt 0.464248 0.968801
vt 0.593648 0.229043
vt 0.594800 0.219921
vt 0.444295 0.950359
vt 0.455896 0.935741
vt 0.578071 0.229878
vt 0.581080 0.226636
vt 0.582821 0.231325
vt 0.444016 0.932284
vt 0.589242 0.231216
vt 0.447125 0.916158
vt 0.594684 0.224169
vt 0.596039 0.231008
vt 0.534866 0.881347
vt 0.436167 0.876832
vt 0.451786 0.873540
vt 0.502622 0.869488
vt 0.478622 0.869260
vt 0.600669 0.228516
vt 0.470367 0.846306
vt 0.436632 0.875280
vt 0.588033 0.222815
vt 0.620369 0.220488
vt 0.617885 0.228883
vt 0.604039 0.223910
vt 0.625993 0.229515
vt 0.627942 0.223514
vt 0.630553 0.227391
vt 0.474575 0.826305
vt 0.456368 0.843249
vt 0.468600 0.807609
vt 0.462220 0.823292
vt 0.860756 0.332332
vt 0.993439 0.371060
vt 0.986188 0.383142
vt 0.682025 0.226976
vt 0.679969 0.227249
vt 0.679746 0.240699
vt 0.359744 0.137364
vt 0.391687 0.134896
vt 0.379208 0.097067
vt 0.392501 0.134914
vt 0.338867 0.016386
vt 0.351992 0.060701
vt 0.355868 0.099033
vt 0.358824 0.195455
vt 0.357904 0.253546
vt 0.317688 0.022378
vt 0.316028 0.010349
vt 0.365914 0.059220
vt 0.188288 0.626633
vt 0.020225 0.627476
vt 0.077847 0.729049
vt 0.337959 0.102316
vt 0.605326 0.051490
vt 0.620218 0.074402
vt 0.243365 0.103028
vt 0.606609 0.090856
vt 0.080172 0.144983
vt 0.165866 0.103946
vt 0.385193 0.253546
vt 0.333056 0.253546
vt 0.413857 0.131288
vt 0.459290 0.199353
vt 0.286566 0.257455
vt 0.286064 0.205085
vt 0.260233 0.253546
vt 0.180066 0.618899
vt 0.041004 0.571204
vt 0.031313 0.580504
vt 0.176801 0.615736
vt 0.131432 0.592259
vt 0.168093 0.605199
vt 0.087753 0.577968
vt 0.126587 0.355421
vt 0.542484 0.399799
vt 0.686910 0.758599
vt 0.586835 0.222039
vt 0.016410 0.799097
vt 0.148475 0.720072
vt 0.112435 0.731387
vt 0.084152 0.729883
vt 0.033136 0.705214
vt 0.025959 0.628575
vt 0.025663 0.589717
vt 0.019321 0.677833
vt 0.192463 0.676215
vt 0.778378 0.672029
vt 0.084388 0.511316
vt 0.023385 0.509676
vt 0.024874 0.410259
vt 0.501364 0.360326
vt 0.292615 0.013201
vt 0.157751 0.257609
vt 0.305025 0.313375
vt 0.507675 0.653310
vt 0.608429 0.224637
vt 0.167552 0.508667
vt 0.967338 0.518460
vt 0.937757 0.213909
vt 0.591695 0.226894
vt 0.981627 0.633093
vt 0.446385 0.886139
vt 0.437892 0.943408
vt 0.609547 0.219908
vt 0.459305 0.810763
vt 0.679907 0.223732
vt 0.684787 0.235652
vt 0.107612 0.733849
vt 0.168687 0.701495
vt 0.187110 0.679257
vt 0.192365 0.649132
vt 0.140452 0.724767
vt 0.012425 0.676347
vt 0.026831 0.704379
vt 0.030940 0.580778
vt 0.233836 0.149685
vt 0.307681 0.260387
vt 0.458854 0.253546
vt 0.187870 0.626400
vn -0.351700 -0.630700 -0.691800
vn -0.594100 -0.400400 -0.697600
vn 0.580800 -0.256900 -0.772500
vn -0.975100 -0.218700 -0.037100
vn -0.806100 -0.201000 -0.556700
vn -0.932600 -0.293100 -0.210700
vn -0.444300 -0.706900 -0.550300
vn -0.799700 -0.562200 0.210900
vn -0.772100 -0.122700 0.623600
vn -0.584900 -0.178900 0.791100
vn -0.431500 -0.595400 0.677700
vn -0.305700 -0.060800 0.950200
vn 0.436900 -0.612400 0.658900
vn 0.922300 -0.160900 0.351400
vn 0.159800 0.010300 0.987100
vn 0.397700 -0.910100 -0.116400
vn -0.347000 -0.156900 0.924600
vn -0.494400 0.013600 0.869100
vn 0.383500 -0.089900 0.919100
vn -0.056200 -0.215700 0.974800
vn -0.749000 -0.019400 0.662300
vn -0.969800 -0.171700 0.173000
vn -0.564900 0.179700 0.805400
vn -0.928700 0.077400 0.362700
vn -0.643400 0.558000 -0.524000
vn -0.827500 0.436200 0.353600
vn -0.491700 0.850700 0.185600
vn -0.477800 0.389300 0.787500
vn -0.335300 0.766100 0.548200
vn -0.795700 0.097100 -0.597900
vn -0.417500 -0.859100 -0.296100
vn 0.878500 0.131400 0.459300
vn 0.132200 0.286400 0.948900
vn 0.338700 0.514800 0.787500
vn -0.230100 0.910800 -0.342800
vn 0.709300 0.692100 0.133900
vn 0.448600 0.781000 -0.434400
vn 0.744300 0.341400 -0.574000
vn 0.608600 0.684600 0.401100
vn 0.302600 0.212500 -0.929100
vn 0.147300 -0.038300 -0.988300
vn 0.451100 -0.556500 -0.697700
vn 0.467000 -0.096700 0.878900
vn 0.140200 -0.137900 0.980400
vn 0.821100 0.062500 0.567300
vn 0.867600 0.100700 0.486800
vn 0.998700 0.034100 -0.035800
vn 0.996100 0.087800 0.005000
vn 0.990300 -0.113500 0.079500
vn 0.910500 0.030500 -0.412300
vn 0.945100 -0.325800 0.024800
vn -0.651300 0.274500 -0.707400
vn 0.132500 -0.959500 0.248700
vn -0.178700 0.394300 -0.901400
vn 0.750200 -0.174600 -0.637700
vn 0.078400 0.116000 -0.990100
vn 0.371200 0.613000 -0.697400
vn 0.511200 0.783900 -0.352200
vn 0.140800 -0.014500 -0.989900
vn 0.092200 0.732500 -0.674400
vn 0.328600 -0.176900 -0.927800
vn 0.591000 -0.045600 -0.805400
vn 0.836500 -0.192800 -0.512900
vn 0.661500 -0.201100 -0.722500
vn 0.104500 -0.362300 -0.926200
vn 0.246800 -0.027000 -0.968700
vn 0.080100 -0.567300 -0.819600
vn 0.712200 -0.232700 -0.662200
vn -0.161400 0.222500 0.961500
vn 0.806900 0.139100 0.574100
vn 0.999500 0.016100 -0.024800
vn -0.025800 0.157500 0.987200
vn 0.819000 0.145000 0.555100
vn 0.948900 0.053300 0.310900
vn 0.666300 -0.092100 0.739900
vn 0.644600 -0.499700 0.578500
vn 0.990900 0.121300 0.057300
vn 0.747400 0.005300 -0.664400
vn 0.019100 -0.213500 -0.976700
vn -0.002800 -0.414000 -0.910300
vn -0.737100 -0.348300 -0.579100
vn -0.701700 -0.252200 -0.666300
vn -0.989400 -0.107000 0.098000
vn -0.757000 -0.432800 -0.489600
vn -0.525400 -0.312400 -0.791400
vn -0.020200 -0.085100 -0.996200
vn 0.103800 -0.157800 -0.982000
vn -0.161900 0.094000 -0.982300
vn -0.134800 0.274100 -0.952200
vn -0.048100 0.725200 -0.686800
vn -0.096200 -0.101600 -0.990100
vn 0.187200 0.007100 -0.982300
vn 0.081800 -0.069400 -0.994200
vn -0.120300 -0.478000 -0.870100
vn -0.274500 -0.867000 0.415800
vn -0.043700 -0.986500 -0.157800
vn 0.743700 -0.453800 -0.490900
vn -0.071100 -0.895600 0.439000
vn -0.146500 -0.528500 0.836200
vn 0.094500 -0.703500 0.704300
vn 0.046700 -0.351800 0.934900
vn -0.137500 -0.432900 0.890900
vn 0.192000 -0.207400 0.959200
vn 0.061800 -0.013800 0.998000
vn -0.033400 0.010700 0.999400
vn 0.230200 -0.103300 0.967600
vn 0.177800 -0.016800 0.983900
vn 0.313700 -0.057000 0.947800
vn 0.477200 0.028400 0.878400
vn -0.820400 0.059100 0.568700
vn -0.990500 -0.128600 0.048600
vn -0.814100 0.022300 0.580300
vn -0.816600 -0.237100 0.526100
vn -0.785400 -0.528800 0.321600
vn -0.603900 -0.225000 0.764600
vn -0.978200 -0.205700 0.027200
vn -0.730700 0.027900 -0.682100
vn -0.515600 -0.218800 -0.828400
vn -0.958200 -0.212900 -0.191200
vn -0.652000 -0.314600 -0.689800
vn -0.979600 -0.195700 -0.046600
vn -0.568100 -0.644900 0.511100
vn -0.999000 -0.034700 -0.026400
vn -0.993800 -0.107800 -0.026700
vn -0.775800 0.255000 0.577100
vn 0.064500 0.589300 0.805400
vn -0.102900 -0.225200 0.968800
vn 0.134100 0.876400 0.462400
vn -0.482100 0.750800 0.451400
vn -0.275000 0.745600 0.607000
vn -0.865100 0.357400 0.351900
vn -0.458100 0.466100 0.756900
vn -0.976700 0.158200 0.145100
vn -0.748700 -0.634100 -0.193200
vn -0.756200 0.264000 -0.598700
vn -0.700100 -0.427000 -0.572200
vn 0.272900 0.292900 -0.916300
vn -0.049300 0.411600 -0.910000
vn 0.815900 0.219200 -0.535100
vn 0.046400 0.352200 -0.934800
vn 0.993100 -0.114000 0.025600
vn 0.978100 0.143000 0.151400
vn 0.776900 0.362500 -0.514700
vn 0.942000 -0.252300 0.221000
vn 0.971700 -0.142000 -0.188600
vn 0.857800 0.287700 -0.425900
vn 0.241000 0.461800 -0.853600
vn 0.695900 -0.658100 -0.287500
vn 0.917300 -0.382400 -0.110900
vn 0.000700 -0.931200 -0.364300
vn 0.055900 -0.788100 0.612900
vn 0.622700 -0.542800 0.563500
vn 0.750800 0.343300 0.564300
vn 0.649900 -0.129800 0.748800
vn 0.181300 0.735800 0.652400
vn 0.653400 0.569100 0.499100
vn 0.777200 -0.571200 0.263800
vn 0.293600 -0.705500 0.645000
vn -0.684800 -0.522000 0.508300
vn -0.593000 -0.761000 -0.263200
vn 0.001100 -0.924900 -0.380100
vn -0.181200 -0.717500 0.672600
vn 0.408300 -0.159100 0.898900
vn 0.911900 -0.363400 0.190800
vn 0.729000 -0.241500 0.640500
vn 0.729800 -0.042700 0.682300
vn 0.359100 0.450400 0.817400
vn 0.460000 0.098400 0.882400
vn 0.132300 0.180500 0.974600
vn -0.004500 -0.058600 0.998300
vn -0.160100 0.159200 0.974200
vn 0.111100 0.467200 0.877100
vn -0.301200 -0.026100 0.953200
vn -0.144000 -0.046700 0.988500
vn -0.102500 0.048000 0.993600
vn -0.244500 0.034200 0.969000
vn -0.351000 0.053200 0.934800
vn -0.332200 0.094200 0.938500
vn -0.528700 0.163500 0.832900
vn -0.487000 0.200800 0.850000
vn -0.429000 0.018000 0.903100
vn -0.586700 0.017200 0.809600
vn -0.209600 0.065800 0.975600
vn -0.487700 -0.123300 0.864300
vn -0.209500 -0.305600 0.928800
vn -0.075100 -0.228100 0.970700
vn 0.780200 -0.001100 0.625500
vn 0.995800 -0.009200 0.091100
vn 0.941900 -0.253500 0.220400
vn 0.803800 -0.098600 -0.586700
vn 0.997000 -0.052200 0.056700
vn 0.810500 -0.035900 -0.584600
vn 0.833600 -0.023600 0.551800
vn 0.021400 -0.016600 0.999600
vn 0.710800 -0.300300 0.636000
vn 0.071200 0.013900 0.997300
vn 0.010800 -0.329700 0.944000
vn -0.038400 -0.422300 0.905600
vn -0.703600 -0.137600 0.697000
vn 0.617000 -0.293200 0.730300
vn 0.981300 -0.185100 0.053200
vn 0.977000 -0.206400 0.053100
vn 0.782900 -0.388400 -0.486000
vn 0.965900 -0.043500 -0.255000
vn 0.847800 0.082900 0.523800
vn 0.051600 0.077300 0.995600
vn -0.792400 -0.178700 0.583200
vn -0.996900 -0.077800 0.002800
vn -0.767800 0.016400 0.640400
vn -0.756700 -0.085400 0.648100
vn -0.829800 -0.071500 0.553500
vn -0.987700 -0.082100 -0.133100
vn -0.993500 -0.111100 -0.025600
vn -0.915300 0.015200 0.402400
vn -0.999600 0.025900 -0.007000
vn -0.881400 -0.118400 0.457200
vn -0.765500 -0.160300 0.623200
vn -0.617000 0.168600 0.768700
vn -0.461300 -0.536000 0.707000
vn -0.541200 -0.825000 0.162400
vn -0.306800 -0.940600 -0.145500
vn -0.979300 -0.200900 0.025000
vn -0.819100 -0.312400 -0.481100
vn -0.883900 -0.042700 -0.465700
vn 0.850600 -0.291800 -0.437400
vn 0.493700 0.132100 -0.859500
vn 0.754400 0.514400 0.407700
vn 0.953600 0.301000 0.001800
vn 0.929800 0.225000 -0.291300
vn -0.263000 -0.211900 0.941200
vn -0.749400 0.034300 0.661200
vn -0.801700 0.099500 0.589400
vn -0.654000 0.031200 0.755800
vn -0.495400 0.629600 0.598500
vn -0.723900 0.606100 0.329400
vn -0.768800 0.607500 0.199400
vn -0.893200 0.431900 0.125200
vn -0.951300 -0.105800 0.289500
vn -0.996500 -0.067600 -0.048400
vn -0.738800 -0.077400 0.669500
vn 0.249300 0.336300 0.908100
vn 0.440600 0.434900 0.785300
vn 0.969600 0.178100 -0.167700
vn 0.605500 0.508000 0.612600
vn 0.341300 0.870500 0.354500
vn 0.794900 -0.016800 -0.606500
vn 0.765900 -0.181200 -0.616800
vn 0.783400 0.276300 -0.556600
vn 0.669100 -0.229700 -0.706800
vn 0.528000 -0.073400 -0.846100
vn 0.575700 -0.137700 -0.806000
vn 0.455600 0.461500 -0.761100
vn 0.293400 0.955800 -0.014900
vn -0.353100 0.437000 0.827200
vn -0.044100 0.730900 0.681100
vn 0.313000 0.593000 0.741800
vn 0.438000 0.898600 -0.027300
vn 0.178300 0.445300 -0.877400
vn 0.563900 0.817000 -0.120300
vn 0.059400 0.496700 -0.865900
vn -0.197100 0.501500 -0.842400
vn -0.463600 -0.500000 -0.731400
vn 0.034200 -0.366700 -0.929700
vn -0.268600 -0.836200 -0.478000
vn 0.133100 -0.990300 0.038900
vn 0.825600 -0.385400 -0.412100
vn 0.659000 0.459400 0.595400
vn 0.506000 -0.354300 0.786400
vn 0.292500 -0.044000 0.955200
vn -0.148000 0.238100 0.959900
vn 0.165000 -0.052200 0.984900
vn -0.420400 0.128500 0.898200
vn 0.045400 -0.103100 0.993600
vn 0.822100 0.407700 0.397300
vn -0.574400 -0.009900 0.818500
vn -0.392300 -0.228900 0.890900
vn -0.650400 0.112400 0.751200
vn -0.912900 -0.194400 0.358900
vn -0.744100 0.051100 0.666000
vn -0.122000 0.377000 0.918100
vn -0.462800 0.123100 0.877900
vn -0.923700 -0.214100 0.317500
vn -0.908900 -0.368600 -0.195100
vn -0.945000 -0.294500 0.141900
vn -0.529600 -0.623800 -0.574700
vn 0.359000 -0.459300 -0.812400
vn 0.274000 -0.490300 -0.827300
vn -0.683400 -0.012300 -0.729900
vn -0.107400 0.073500 -0.991500
vn -0.396200 -0.349000 -0.849200
vn -0.394800 0.874100 -0.283000
vn 0.219400 0.550200 -0.805700
vn -0.164300 0.561300 -0.811100
vn -0.163600 -0.757300 -0.632300
vn 0.271000 0.243300 -0.931300
vn 0.292200 0.116900 -0.949200
vn -0.310100 -0.218400 -0.925200
vn -0.204700 0.783100 -0.587100
vn 0.109600 0.514800 -0.850200
vn -0.401800 0.873900 -0.273600
vn 0.015200 0.482300 -0.875800
vn -0.236700 0.956000 -0.173400
vn 0.110200 0.601400 -0.791300
vn 0.082700 0.054400 -0.995100
vn 0.030700 0.015400 -0.999400
vn 0.133300 -0.078500 -0.987900
vn 0.073400 -0.094200 -0.992800
vn 0.492400 -0.261600 -0.830100
vn -0.129500 -0.193900 -0.972400
vn -0.085000 -0.049500 -0.995100
vn -0.147100 -0.372400 -0.916300
vn -0.002200 -0.149700 -0.988700
vn -0.027300 0.055400 -0.998100
vn 0.762100 -0.329900 -0.557100
vn -0.109300 -0.302700 -0.946800
vn 0.734900 0.030800 -0.677400
vn 0.705700 -0.624900 -0.333800
vn 0.069800 -0.492900 -0.867300
vn 0.991000 -0.120000 0.059600
vn 0.145100 0.788400 0.597700
vn 0.805300 0.568300 0.168800
vn 0.166500 0.949900 0.264500
vn 0.950300 0.286600 0.121700
vn 0.738200 0.469000 0.484700
vn -0.156700 0.944100 0.290000
vn -0.324900 0.861400 0.390500
vn -0.438800 0.861200 0.256400
vn -0.759600 0.622300 0.188800
vn -0.820400 0.562400 0.103200
vn -0.816100 0.074500 0.573100
vn -0.728700 0.554600 0.401700
vn -0.060200 0.808000 0.586100
vn -0.996400 0.028000 -0.079700
vn -0.993300 -0.008500 -0.115500
vn -0.806800 -0.002300 -0.590800
vn -0.972600 -0.232200 0.003500
vn -0.902500 -0.099900 -0.419000
vn -0.812000 0.013200 -0.583400
vn -0.053700 -0.090600 -0.994400
vn -0.635800 0.017500 -0.771700
vn -0.641200 -0.122500 -0.757500
vn -0.749200 -0.173000 -0.639300
vn -0.623800 -0.072000 -0.778200
vn -0.489700 -0.139400 -0.860700
vn -0.992800 0.005200 -0.119900
vn -0.627000 -0.609600 -0.485000
vn -0.080700 0.091600 -0.992500
vn -0.800000 -0.591500 -0.100300
vn -0.060100 -0.992600 -0.105900
vn -0.034300 -0.994400 -0.099400
vn 0.461800 -0.884400 -0.067100
vn 0.744700 -0.665800 -0.045400
vn 0.603300 -0.412900 0.682200
vn -0.310600 -0.449000 0.837800
vn -0.342100 0.792600 0.504700
vn -0.714700 -0.318100 0.622900
vn -0.848900 -0.526200 -0.048800
vn -0.033900 0.489800 -0.871200
vn 0.098100 0.799600 -0.592500
vn -0.420500 0.865400 0.272500
vn -0.249200 0.949900 -0.188800
vn 0.181600 0.899400 -0.397600
vn 0.394000 0.907200 -0.147500
vn 0.426300 0.793000 0.435200
vn 0.236700 0.969300 -0.065700
vn 0.403300 0.832600 0.379500
vn 0.212000 0.977200 -0.003900
vn 0.800100 0.530100 0.280700
vn 0.699400 -0.003600 0.714700
vn 0.987200 0.155900 0.032000
vn 0.760400 0.472600 -0.445400
vn 0.252100 0.545900 -0.798900
vn 0.864300 0.191500 -0.465000
vn 0.956900 -0.137200 0.255900
vn 0.768500 -0.272100 0.579000
vn 0.521400 -0.436700 0.733000
vn 0.177400 -0.030200 0.983600
vn 0.763300 0.157400 0.626600
vn 0.956100 -0.023200 -0.292100
vn 0.531700 -0.062600 -0.844600
vn 0.224600 0.316300 -0.921700
vn -0.107200 -0.278300 -0.954500
vn -0.497900 0.238500 -0.833800
vn 0.973600 -0.130200 -0.187400
vn 0.508000 -0.576500 -0.640000
vn 0.164700 -0.826400 -0.538400
vn -0.261100 -0.693700 -0.671200
vn -0.767300 -0.332200 -0.548500
vn -0.960600 -0.063900 -0.270500
vn -0.800500 -0.415100 0.432200
vn 0.216900 -0.887300 0.406900
vn 0.630800 -0.530700 0.566000
vn 0.631600 0.211900 0.745800
vn 0.271400 -0.605800 0.747900
vn -0.305600 -0.479600 0.822500
vn -0.990100 -0.131300 0.049500
vn -0.650200 -0.022200 0.759400
vn -0.217000 -0.892300 -0.395900
vn -0.810000 -0.178000 -0.558800
vn -0.753100 -0.453300 -0.476800
vn -0.633700 0.659100 0.404900
vn -0.930900 0.326100 0.164400
vn -0.760100 0.635200 0.136900
vn -0.922000 -0.135600 -0.362500
vn -0.772900 0.454200 0.442900
vn 0.250200 -0.960600 -0.120600
vn -0.854900 -0.473300 -0.212400
vn 0.203500 -0.144400 0.968400
vn 0.934500 0.284000 0.214500
vn 0.946000 -0.288200 -0.148700
vn 0.863000 -0.332900 -0.380000
vn -0.916000 -0.061600 -0.396500
vn 0.661300 0.257900 0.704400
vn 0.558700 -0.517100 0.648400
vn 0.865600 -0.282700 -0.413200
vn 0.541400 -0.216000 -0.812600
vn -0.527300 0.208000 -0.823800
vn -0.377700 -0.793400 -0.477300
vn -0.378100 -0.892000 -0.247600
vn 0.085200 -0.382100 0.920200
vn 0.469900 0.664200 0.581300
vn 0.827800 0.401700 0.391600
vn 0.252300 0.662700 0.705100
vn -0.410800 0.618200 0.670100
vn -0.098500 0.801500 0.589800
vn -0.201500 0.603700 0.771300
vn 0.306600 0.380900 0.872300
vn -0.682600 -0.064900 0.727900
vn -0.556400 -0.697900 -0.450800
vn 0.603200 0.123600 0.787900
vn 0.947100 0.227100 0.226800
vn 0.796900 0.294500 -0.527500
vn 0.837900 -0.529800 -0.131100
vn -0.223300 0.943800 0.243500
vn -0.223600 0.928100 -0.297600
vn 0.505300 0.036600 0.862100
vn 0.518400 0.288200 0.805100
vn -0.833000 0.275300 0.479800
vn -0.713600 0.607700 0.348500
vn 0.297800 0.678600 0.671400
vn -0.550500 0.825100 0.126600
vn 0.493000 0.865700 0.086700
vn 0.898100 0.371300 0.235600
vn 0.423500 0.799400 -0.426000
vn 0.762300 0.275900 -0.585400
vn -0.759500 0.594800 -0.263200
vn -0.528700 0.434000 -0.729400
vn 0.842800 -0.175200 -0.508900
vn 0.913500 -0.406700 0.006600
vn 0.533200 -0.488300 -0.690800
vn -0.592200 -0.237200 -0.770000
vn 0.633800 -0.694400 0.340700
vn 0.657700 -0.730600 0.183300
vn -0.365600 -0.225200 0.903100
vn -0.147800 0.038100 0.988300
vn -0.534000 -0.631600 0.562000
vn -0.039600 -0.456600 0.888700
vn -0.055200 0.154900 0.986400
vn -0.560200 0.270100 0.783000
vn -0.588900 0.019600 0.807900
vn -0.681200 0.543800 0.490100
vn -0.547600 0.667500 0.504500
vn -0.366600 0.206000 0.907300
vn -0.307300 0.223800 0.924900
vn 0.732300 -0.167600 0.660000
vn -0.487200 -0.275300 0.828700
vn 0.579400 -0.277100 0.766500
vn 0.927200 -0.287900 0.239700
vn 0.912000 -0.226500 0.341800
vn 0.807800 0.053300 -0.587000
vn -0.826200 -0.147400 -0.543700
vn -0.623400 0.470500 -0.624500
vn -0.785700 -0.191700 0.588100
vn -0.709800 0.437000 -0.552400
vn 0.465200 0.007000 -0.885200
vn 0.493900 -0.104100 -0.863200
vn 0.805900 -0.013800 -0.591800
vn -0.596900 -0.494900 -0.631500
vn 0.251700 -0.347100 -0.903400
vn 0.128100 -0.111400 -0.985500
vn 0.462600 -0.038100 -0.885700
vn 0.008200 -0.997000 0.077100
vn -0.578600 -0.547500 -0.604400
vn 0.432300 0.062600 -0.899500
vn -0.659300 -0.411700 -0.629100
vn -0.138900 0.259300 -0.955700
vn -0.706900 -0.452700 -0.543400
vn -0.408900 0.529200 -0.743400
vn 0.183400 0.503800 -0.844100
vn 0.668500 0.129900 -0.732300
vn 0.765000 -0.258800 -0.589700
vn 0.311100 -0.067300 -0.948000
vn 0.713500 -0.578900 0.394600
vn 0.611400 0.728000 0.310200
vn 0.412900 0.775000 -0.478300
vn 0.651000 0.723700 0.229000
vn 0.694800 -0.011700 -0.719100
vn 0.108100 0.910300 -0.399400
vn -0.127800 0.792900 -0.595800
vn -0.616200 -0.596200 -0.514600
vn -0.426400 -0.798900 0.424100
vn -0.886800 -0.248300 0.389700
vn -0.762200 -0.450900 0.464400
vn -0.048400 -0.603500 0.795900
vn 0.164200 -0.476300 -0.863800
vn 0.429500 -0.864200 0.261900
vn 0.769500 -0.345600 0.537000
vn 0.379900 -0.084200 0.921200
vn -0.420500 -0.686800 0.592900
vn 0.982100 0.113300 -0.150200
vn 0.655300 -0.459500 -0.599500
vn 0.820300 0.529400 0.216300
vn 0.895600 0.391400 0.211300
vn 0.982800 0.163200 0.086400
vn 0.254700 0.415200 0.873300
vn 0.556300 0.736800 0.384300
vn 0.019200 -0.098400 -0.994900
vn 0.332600 0.895500 0.295500
vn -0.721200 -0.218500 0.657300
vn -0.045900 -0.238800 0.970000
vn 0.731900 -0.491900 0.471500
s 1
f 5/1/1 10/2/2 25/3/3
f 18/4/4 28/5/5 10/2/2
f 14/6/6 5/1/1 12/7/7
f 14/6/6 6/8/8 18/4/4
f 14/6/6 18/4/4 10/2/2
f 18/4/4 6/8/8 11/9/9
f 11/9/9 6/8/8 32/10/10
f 6/8/8 20/11/11 32/10/10
f 32/10/10 20/11/11 26/12/12
f 34/13/13 33/14/14 35/15/15
f 34/13/13 20/11/11 19/16/16
f 34/13/13 35/15/15 26/12/12
f 26/12/12 24/17/17 17/18/18
f 24/17/17 36/19/19 30/20/20
f 17/18/18 32/10/10 26/12/12
f 17/18/18 11/9/9 32/10/10
f 17/18/18 27/21/21 11/9/9
f 18/4/4 29/22/22 28/5/5
f 29/22/22 18/4/4 11/9/9
f 27/21/21 7/23/23 15/24/24
f 9/25/25 16/26/26 13/27/27
f 16/26/26 8/28/28 3/29/29
f 15/24/24 7/23/23 8/28/28
f 16/26/26 9/25/25 4/30/30
f 4/30/30 28/5/5 29/22/22
f 1/31/31 14/6/6 12/7/7
f 14/6/6 1/31/31 6/8/8
f 19/16/16 20/11/11 6/8/8
f 35/15/15 36/19/19 24/17/17
f 30/20/20 36/19/19 37/32/32
f 30/20/20 21/33/33 17/18/18
f 7/23/23 27/21/21 17/18/18
f 7/23/23 21/33/33 23/34/34
f 2/35/35 38/36/36 41/37/37
f 40/38/38 9/39/25 2/35/35
f 2/40/35 13/27/27 38/41/36
f 3/29/29 38/41/36 13/27/27
f 3/29/29 39/42/39 38/41/36
f 3/29/29 8/28/28 23/34/34
f 9/39/25 40/38/38 42/43/40
f 42/43/40 31/44/41 28/5/5
f 31/44/41 25/3/3 10/2/2
f 33/14/14 37/32/32 35/15/15
f 37/32/32 36/19/19 35/15/15
f 25/45/3 31/46/41 40/47/38
f 22/48/42 25/49/3 33/50/14
f 22/48/42 34/51/13 19/52/16
f 1/53/31 12/54/7 5/55/1
f 44/56/43 337/57/44 56/58/45
f 44/56/43 56/58/45 174/59/46
f 56/58/45 206/60/47 251/61/48
f 174/62/46 251/63/48 208/64/49
f 173/65/50 59/66/51 208/67/49
f 59/66/51 67/68/52 212/69/53
f 67/68/52 59/66/51 385/70/54
f 59/66/51 47/71/55 381/72/56
f 381/72/56 51/73/57 63/74/58
f 381/72/56 420/75/59 334/76/60
f 420/75/59 381/72/56 47/71/55
f 332/77/61 47/71/55 169/78/62
f 47/71/55 59/66/51 173/65/50
f 173/79/50 55/80/63 43/81/64
f 43/81/64 330/82/65 349/83/66
f 43/81/64 55/80/63 336/84/67
f 336/84/67 55/80/63 144/85/68
f 144/85/68 55/80/63 206/86/47
f 206/86/47 55/80/63 173/79/50
f 56/58/45 339/87/69 145/88/70
f 145/88/70 239/89/71 206/60/47
f 145/88/70 341/90/72 153/91/73
f 507/92/74 508/93/75 157/94/76
f 153/91/73 243/95/77 239/89/71
f 152/96/78 144/85/68 239/97/71
f 340/98/79 338/99/80 144/85/68
f 148/100/81 154/101/82 241/102/83
f 154/101/82 148/100/81 338/99/80
f 148/100/81 123/103/84 336/84/67
f 111/104/85 330/82/65 336/84/67
f 111/104/85 179/105/86 349/83/66
f 115/106/87 332/77/61 349/107/66
f 332/77/61 115/106/87 406/108/88
f 406/108/88 410/109/89 119/110/90
f 410/109/89 265/111/91 116/112/92
f 406/108/88 115/106/87 265/111/91
f 115/106/87 179/113/86 277/114/93
f 179/105/86 111/104/85 263/115/94
f 123/103/84 279/116/95 269/117/96
f 263/115/94 111/104/85 123/103/84
f 263/115/94 269/117/96 124/118/97
f 124/118/97 269/117/96 279/116/95
f 270/119/98 279/120/95 125/121/99
f 279/120/95 270/119/98 126/122/100
f 270/119/98 264/123/101 114/124/102
f 125/121/99 113/125/103 264/123/101
f 113/125/103 177/126/104 276/127/105
f 331/128/106 348/129/107 177/126/104
f 177/130/104 348/131/107 333/132/108
f 333/132/108 348/131/107 170/133/109
f 44/56/43 331/128/106 337/57/44
f 331/128/106 44/56/43 170/134/109
f 337/57/44 125/121/99 150/135/110
f 337/57/44 331/128/106 113/125/103
f 125/121/99 279/120/95 150/135/110
f 279/120/95 241/136/83 150/135/110
f 241/136/83 244/137/111 150/135/110
f 150/135/110 244/137/111 155/138/112
f 501/139/113 159/140/114 511/141/115
f 155/138/112 244/137/111 504/142/116
f 244/143/111 241/102/83 154/101/82
f 502/144/117 158/145/118 246/146/119
f 162/147/120 248/148/121 246/146/119
f 248/149/121 163/150/122 159/140/114
f 495/151/123 250/152/124 165/153/125
f 165/153/125 347/154/126 498/155/127
f 481/156/128 478/157/129 395/158/130
f 395/158/130 450/159/131 168/160/132
f 478/157/129 479/161/133 450/159/131
f 168/160/132 450/159/131 408/162/134
f 494/163/135 164/164/136 250/165/124
f 494/163/135 162/166/120 344/167/137
f 162/147/120 158/145/118 342/168/138
f 344/169/137 342/168/138 156/170/139
f 506/171/140 340/98/79 152/96/78
f 157/94/76 245/172/141 505/173/142
f 505/174/142 503/175/143 152/96/78
f 245/176/141 247/177/144 160/178/145
f 500/179/146 497/180/147 344/167/137
f 477/181/148 464/182/149 456/183/150
f 157/94/76 345/184/151 161/185/152
f 247/186/144 245/172/141 157/94/76
f 347/154/126 460/187/153 499/188/154
f 481/156/128 455/189/155 461/190/156
f 166/191/157 465/192/158 456/183/150
f 465/192/158 167/193/159 408/194/134
f 408/162/134 450/159/131 479/161/133
f 483/195/160 482/196/161 456/183/150
f 345/184/151 157/94/76 343/197/162
f 509/198/163 508/93/75 153/91/73
f 509/198/163 153/91/73 341/90/72
f 511/141/115 159/140/114 343/197/162
f 163/150/122 345/184/151 343/197/162
f 502/144/117 154/101/82 340/98/79
f 339/87/69 337/57/44 150/135/110
f 339/87/69 341/90/72 145/88/70
f 339/87/69 150/135/110 155/138/112
f 337/57/44 339/87/69 56/58/45
f 241/102/83 279/116/95 123/103/84
f 60/199/164 380/200/165 48/201/166
f 48/201/166 170/133/109 174/62/46
f 380/200/165 335/202/167 419/203/168
f 419/203/168 333/132/108 48/201/166
f 405/204/169 117/205/170 333/132/108
f 409/206/171 405/204/169 121/207/172
f 409/206/171 118/208/173 266/209/174
f 266/209/174 117/205/170 405/204/169
f 276/210/105 177/130/104 117/205/170
f 266/209/174 118/208/173 178/211/175
f 178/211/175 118/208/173 305/212/176
f 404/213/177 118/214/173 409/215/171
f 418/216/178 305/217/176 118/214/173
f 379/218/179 418/216/178 307/219/180
f 379/218/179 49/220/181 305/217/176
f 49/221/181 171/222/182 314/223/183
f 45/224/184 309/225/185 303/226/186
f 45/224/184 303/226/186 314/227/183
f 303/226/186 114/124/102 178/228/175
f 114/124/102 264/123/101 276/127/105
f 309/225/185 151/229/187 126/122/100
f 126/122/100 114/124/102 303/226/186
f 151/229/187 242/230/188 230/231/189
f 230/232/189 242/233/188 149/234/190
f 242/233/188 254/235/191 183/236/192
f 184/237/193 151/229/187 313/238/194
f 184/237/193 254/239/191 242/230/188
f 254/239/191 184/237/193 188/240/195
f 317/241/196 184/237/193 313/238/194
f 317/241/196 319/242/197 188/240/195
f 321/243/198 319/242/197 185/244/199
f 321/243/198 192/245/200 188/240/195
f 192/245/200 258/246/201 256/247/202
f 256/248/202 258/249/201 191/250/203
f 191/251/203 258/252/201 260/253/204
f 258/254/201 192/255/200 196/256/205
f 323/257/206 321/258/198 189/259/207
f 323/260/206 196/256/205 192/255/200
f 189/261/207 321/243/198 185/244/199
f 189/261/207 185/244/199 255/262/208
f 255/262/208 185/244/199 181/263/209
f 319/242/197 317/241/196 181/263/209
f 146/264/210 313/238/194 57/265/211
f 181/263/209 317/241/196 313/238/194
f 181/263/209 146/264/210 240/266/212
f 146/264/210 57/265/211 207/267/213
f 57/265/211 175/268/214 252/269/215
f 45/224/184 57/265/211 309/225/185
f 45/224/184 171/270/182 175/268/214
f 171/222/182 49/221/181 61/271/216
f 383/272/217 379/218/179 53/273/218
f 383/272/217 61/274/216 49/220/181
f 383/272/217 397/275/219 95/276/220
f 95/276/220 222/277/221 209/278/222
f 209/279/222 252/280/215 175/281/214
f 209/282/222 62/283/223 176/284/224
f 62/285/223 209/286/222 222/287/221
f 222/287/221 224/288/225 100/289/226
f 512/290/227 103/291/228 519/292/229
f 224/293/225 222/277/221 95/276/220
f 95/276/220 397/275/219 399/294/230
f 397/275/219 97/295/231 101/296/232
f 383/272/217 53/273/218 65/297/233
f 65/297/233 97/295/231 397/275/219
f 65/297/233 328/298/234 211/299/235
f 211/299/235 223/300/236 97/295/231
f 223/300/236 225/301/237 101/296/232
f 514/302/238 225/301/237 521/303/239
f 514/302/238 513/304/240 101/296/232
f 513/304/240 515/305/241 399/294/230
f 401/306/242 103/291/228 512/290/227
f 107/307/243 403/308/244 411/309/245
f 403/308/244 107/307/243 103/291/228
f 519/310/229 517/311/246 224/288/225
f 103/312/228 107/313/243 228/314/247
f 107/313/243 411/315/245 281/316/248
f 107/313/243 281/316/248 294/317/249
f 281/316/248 369/318/250 371/319/251
f 369/318/250 281/316/248 372/320/252
f 281/316/248 411/315/245 429/321/253
f 411/309/245 283/322/254 373/323/255
f 359/324/256 423/325/257 429/326/253
f 423/327/257 357/328/258 372/320/252
f 427/329/259 360/330/260 365/331/261
f 427/332/259 365/333/261 357/328/258
f 365/333/261 362/334/262 356/335/263
f 362/336/262 425/337/264 426/338/265
f 425/337/264 360/330/260 361/339/266
f 362/336/262 365/331/261 360/330/260
f 361/340/266 364/341/267 363/342/268
f 364/341/267 361/340/266 360/343/260
f 364/344/267 427/345/259 423/325/257
f 359/324/256 358/346/269 363/347/268
f 376/348/270 375/349/271 358/346/269
f 359/324/256 373/323/255 376/348/270
f 373/323/255 283/322/254 368/350/272
f 287/351/273 413/352/274 375/349/271
f 375/349/271 376/348/270 368/350/272
f 368/350/272 370/353/275 297/354/276
f 283/322/254 295/355/277 370/353/275
f 370/353/275 295/355/277 282/356/278
f 282/356/278 295/355/277 229/357/279
f 295/355/277 283/322/254 109/358/280
f 109/358/280 283/322/254 411/309/245
f 109/358/280 403/308/244 401/306/242
f 105/359/281 227/360/282 229/357/279
f 227/360/282 106/361/283 110/362/284
f 428/363/285 108/364/286 280/365/287
f 520/366/288 518/367/289 400/368/290
f 98/369/291 396/370/292 398/371/293
f 396/370/292 96/372/294 100/289/226
f 382/373/295 62/285/223 96/372/294
f 382/373/295 378/374/296 50/375/297
f 382/373/295 66/376/298 54/377/299
f 66/376/298 382/373/295 396/370/292
f 98/369/291 223/300/236 211/299/235
f 211/299/235 328/298/234 310/378/300
f 310/378/300 306/379/301 54/377/299
f 310/378/300 127/380/302 120/381/303
f 407/382/304 417/383/305 306/379/301
f 378/374/296 54/377/299 306/379/301
f 417/383/305 304/384/306 50/375/297
f 407/382/304 410/385/89 116/386/92
f 116/386/92 304/384/306 417/383/305
f 304/387/306 116/112/92 180/388/307
f 265/111/91 277/114/93 180/388/307
f 277/389/93 263/115/94 112/390/308
f 112/390/308 302/391/309 315/392/310
f 112/390/308 124/118/97 308/393/311
f 308/393/311 124/118/97 149/234/190
f 312/394/312 149/234/190 183/236/192
f 316/395/313 183/236/192 187/396/314
f 187/396/314 183/236/192 254/235/191
f 187/396/314 191/250/203 320/397/315
f 320/398/315 191/251/203 195/399/316
f 195/399/316 199/400/317 324/401/318
f 195/399/316 260/253/204 467/402/319
f 203/403/320 452/404/321 447/405/322
f 492/406/323 467/407/319 200/408/324
f 489/409/325 453/410/326 447/405/322
f 489/409/325 488/411/327 448/412/328
f 491/413/329 448/412/328 488/411/327
f 193/414/330 323/260/206 189/259/207
f 193/414/330 197/415/331 325/416/332
f 261/417/333 259/418/334 194/419/335
f 261/417/333 197/415/331 193/414/330
f 193/414/330 189/259/207 257/420/336
f 190/421/337 194/419/335 259/418/334
f 194/419/335 190/421/337 320/398/315
f 186/422/338 318/423/339 320/397/315
f 186/422/338 182/424/340 316/395/313
f 147/425/341 312/394/312 316/395/313
f 147/425/341 58/426/342 308/393/311
f 46/427/343 302/391/309 308/393/311
f 46/427/343 172/428/344 315/392/310
f 50/429/297 304/387/306 315/430/310
f 172/431/344 176/284/224 62/283/223
f 46/427/343 58/426/342 176/432/224
f 207/267/213 252/433/215 176/432/224
f 147/425/341 240/266/212 207/267/213
f 182/424/340 253/434/345 240/266/212
f 182/424/340 186/422/338 255/262/208
f 190/435/337 257/436/336 255/262/208
f 198/437/346 261/417/333 194/419/335
f 198/437/346 194/419/335 322/438/347
f 486/181/348 490/439/349 454/440/350
f 485/195/351 446/194/352 454/440/350
f 446/194/352 202/193/353 326/192/354
f 202/441/353 446/442/352 452/404/321
f 485/443/351 199/444/317 467/407/319
f 326/445/354 327/446/355 201/447/356
f 326/445/354 202/441/353 203/403/320
f 467/407/319 260/448/204 196/256/205
f 327/446/355 453/410/326 448/412/328
f 201/447/356 448/412/328 449/449/357
f 449/182/357 454/440/350 326/192/354
f 491/413/329 486/450/348 449/449/357
f 267/451/358 119/452/90 410/385/89
f 267/451/358 410/385/89 407/382/304
f 120/381/303 127/380/302 271/453/359
f 127/380/302 459/454/360 131/455/361
f 131/455/361 273/456/362 271/453/359
f 132/457/363 231/458/364 128/459/365
f 132/460/363 128/461/365 271/453/359
f 271/453/359 128/461/365 119/452/90
f 128/462/365 350/463/366 329/464/367
f 329/464/367 334/76/60 119/110/90
f 329/464/367 63/74/58 51/73/57
f 210/465/368 350/463/366 64/466/369
f 63/74/58 329/464/367 350/463/366
f 213/467/370 69/468/371 63/74/58
f 69/468/371 387/469/372 385/70/54
f 387/469/372 69/468/371 434/470/373
f 69/468/371 213/467/370 437/471/374
f 213/467/370 70/472/375 435/473/376
f 435/473/376 74/474/377 215/475/378
f 73/476/379 434/470/373 437/471/374
f 73/476/379 389/477/380 439/478/381
f 389/477/380 71/479/382 433/480/383
f 391/481/384 75/482/385 71/479/382
f 75/483/385 79/484/386 216/485/387
f 214/486/388 71/479/382 75/482/385
f 214/486/388 438/487/389 433/480/383
f 438/487/389 212/69/53 67/68/52
f 433/480/383 67/68/52 387/469/372
f 436/488/390 68/489/391 212/490/53
f 68/489/391 384/491/392 60/199/164
f 60/199/164 208/64/49 212/490/53
f 60/199/164 384/491/392 380/200/165
f 380/200/165 384/491/392 52/492/393
f 52/492/393 384/491/392 64/466/369
f 384/491/392 68/489/391 386/493/394
f 386/493/394 70/472/375 64/466/369
f 386/493/394 440/494/395 435/473/376
f 386/493/394 68/489/391 436/488/390
f 436/488/390 72/495/396 388/496/397
f 72/495/396 436/488/390 438/497/389
f 80/498/398 442/499/399 76/500/400
f 392/501/401 390/502/402 444/503/403
f 200/408/324 196/256/205 323/260/206
f 76/500/400 442/499/399 444/503/403
f 84/504/404 394/505/405 392/506/401
f 441/507/406 445/508/407 442/509/399
f 80/510/398 392/511/401 443/512/408
f 81/513/409 83/514/410 393/515/411
f 81/513/409 393/515/411 391/516/384
f 79/484/386 393/515/411 83/514/410
f 393/515/411 79/484/386 75/483/385
f 83/514/410 84/504/404 80/498/398
f 394/505/405 84/504/404 88/517/412
f 85/518/413 83/519/410 81/520/409
f 85/518/413 89/521/414 87/522/415
f 87/523/415 88/517/412 84/504/404
f 87/524/415 91/525/416 92/526/417
f 93/527/418 221/528/419 91/529/416
f 91/529/416 87/530/415 89/531/414
f 89/531/414 220/532/420 221/528/419
f 220/533/420 89/521/414 85/518/413
f 85/518/413 81/520/409 218/534/421
f 81/520/409 77/535/422 217/536/423
f 77/537/422 73/476/379 215/475/378
f 391/481/384 389/477/380 73/476/379
f 74/474/377 78/538/424 217/539/423
f 78/540/424 82/541/425 218/534/421
f 82/541/425 86/542/426 219/543/427
f 90/544/428 220/533/420 219/543/427
f 90/545/428 94/546/429 221/528/419
f 92/526/417 91/525/416 221/547/419
f 90/545/428 88/548/412 92/549/417
f 86/542/426 394/550/405 88/551/412
f 86/542/426 82/541/425 392/501/401
f 388/496/397 390/552/402 78/538/424
f 74/474/377 435/473/376 440/494/395
f 70/472/375 213/467/370 210/465/368
f 64/466/369 350/463/366 52/492/393
f 231/553/364 350/463/366 128/462/365
f 231/553/364 121/207/172 335/202/167
f 52/492/393 335/202/167 380/200/165
f 350/463/366 231/553/364 335/202/167
f 121/207/172 405/204/169 419/203/168
f 121/554/172 231/458/364 130/555/430
f 130/555/430 231/458/364 233/556/431
f 233/557/431 140/558/432 236/559/433
f 233/556/431 231/458/364 132/457/363
f 140/560/432 132/460/363 273/456/362
f 131/455/361 137/561/434 275/562/435
f 138/563/436 143/564/437 470/565/438
f 469/42/439 136/566/440 468/41/441
f 470/565/438 143/564/437 136/566/440
f 235/567/442 468/41/441 136/566/440
f 136/566/440 143/564/437 238/568/443
f 135/569/444 468/41/441 235/567/442
f 235/567/442 238/568/443 142/570/445
f 135/571/444 472/572/446 468/573/441
f 135/571/444 142/574/445 471/575/447
f 430/576/448 262/577/449 205/578/450
f 430/576/448 205/578/450 278/579/451
f 140/558/432 275/580/435 278/579/451
f 262/577/449 139/581/452 236/559/433
f 236/559/433 140/558/432 205/578/450
f 236/559/433 139/581/452 134/582/453
f 458/13/454 139/581/452 457/14/455
f 274/583/456 272/584/457 134/585/453
f 274/16/456 134/582/453 139/581/452
f 134/585/453 272/584/457 268/586/458
f 272/584/457 133/587/459 268/586/458
f 268/586/458 133/587/459 129/588/460
f 129/588/460 133/587/459 234/589/461
f 274/583/456 133/587/459 272/584/457
f 234/590/461 232/591/462 129/588/460
f 129/588/460 232/591/462 307/219/180
f 307/219/180 232/591/462 311/592/463
f 311/592/463 232/591/462 328/298/234
f 232/591/462 459/454/360 328/298/234
f 459/454/360 127/380/302 310/378/300
f 459/454/360 232/591/462 131/455/361
f 232/591/462 234/589/461 137/561/434
f 311/592/463 328/298/234 53/273/218
f 53/273/218 328/298/234 65/297/233
f 311/592/463 53/273/218 307/219/180
f 53/273/218 379/218/179 307/219/180
f 307/219/180 122/593/464 129/588/460
f 122/593/464 268/586/458 129/588/460
f 268/586/458 409/215/171 121/554/172
f 122/593/464 404/213/177 409/215/171
f 122/593/464 307/219/180 418/216/178
f 121/554/172 130/555/430 268/586/458
f 130/555/430 134/585/453 268/586/458
f 134/585/453 130/555/430 233/556/431
f 134/582/453 233/557/431 236/559/433
f 139/581/452 204/594/465 457/14/455
f 204/594/465 473/32/466 457/14/455
f 473/32/466 204/594/465 431/595/467
f 262/577/449 430/576/448 432/596/468
f 204/594/465 139/581/452 262/577/449
f 204/594/465 262/577/449 432/596/468
f 431/595/467 432/596/468 237/597/469
f 432/596/468 430/576/448 141/598/470
f 141/598/470 430/576/448 476/599/471
f 141/598/470 475/600/472 471/575/447
f 238/568/443 237/597/469 141/598/470
f 237/597/469 238/568/443 143/564/437
f 431/595/467 138/563/436 474/601/473
f 420/75/59 406/108/88 119/110/90
f 98/369/291 102/602/474 225/301/237
f 518/367/289 516/603/475 104/604/476
f 516/603/475 100/289/226 224/288/225
f 226/605/477 228/314/247 108/364/286
f 228/314/247 294/317/249 280/365/287
f 402/606/478 366/607/479 284/608/480
f 293/609/481 352/610/482 412/611/483
f 280/365/287 294/317/249 371/319/251
f 296/612/484 284/608/480 366/607/479
f 416/613/485 284/608/480 288/614/486
f 414/615/487 288/614/486 351/616/488
f 288/614/486 284/608/480 296/612/484
f 298/617/489 296/612/484 285/618/490
f 296/612/484 371/319/251 369/318/250
f 285/618/490 374/619/491 413/620/274
f 374/619/491 377/621/492 356/335/263
f 374/619/491 285/618/490 369/318/250
f 377/621/492 372/320/252 357/328/258
f 424/622/493 413/620/274 374/619/491
f 424/623/493 358/346/269 375/349/271
f 424/623/493 426/624/265 363/347/268
f 356/335/263 362/334/262 426/625/265
f 363/342/268 426/626/265 425/627/264
f 413/620/274 415/628/494 289/629/495
f 422/630/496 292/631/497 354/632/498
f 354/633/498 289/629/495 415/628/494
f 300/634/499 354/632/498 292/631/497
f 300/635/499 298/617/489 289/629/495
f 300/634/499 293/636/481 351/637/488
f 351/616/488 288/614/486 298/617/489
f 282/356/278 421/638/500 402/606/478
f 421/638/500 280/365/287 366/607/479
f 352/639/482 290/640/501 414/615/487
f 367/641/502 402/606/478 416/613/485
f 110/362/284 428/363/285 421/638/500
f 106/361/283 400/368/290 428/363/285
f 286/642/503 416/613/485 414/615/487
f 351/637/488 293/636/481 412/643/483
f 297/354/276 370/353/275 367/641/502
f 297/354/276 286/642/503 290/640/501
f 299/644/504 290/640/501 352/645/482
f 301/646/505 293/636/481 300/634/499
f 301/647/505 355/648/506 352/649/482
f 353/650/507 292/651/497 422/652/496
f 301/646/505 300/634/499 292/631/497
f 353/650/507 355/648/506 301/647/505
f 291/653/508 299/644/504 355/654/506
f 287/351/273 297/354/276 299/644/504
f 291/653/508 415/655/494 413/352/274
f 415/655/494 291/653/508 353/656/507
f 57/265/211 313/238/194 309/225/185
f 309/225/185 313/238/194 151/229/187
f 72/495/396 214/657/388 216/658/387
f 72/495/396 76/659/400 390/552/402
f 79/484/386 80/498/398 76/500/400
f 390/502/402 392/501/401 82/541/425
f 443/660/408 462/661/509 445/508/407
f 444/662/403 462/661/509 443/660/408
f 444/662/403 442/509/399 445/508/407
f 447/405/322 453/410/326 327/446/355
f 249/663/510 463/664/511 500/179/146
f 477/665/148 463/666/511 249/663/510
f 461/190/156 166/667/157 451/668/512
f 480/669/513 249/663/510 460/187/153
f 499/188/154 496/670/514 247/671/144
f 455/189/155 466/672/515 166/667/157
f 465/673/158 166/667/157 466/672/515
f 465/673/158 466/672/515 168/160/132
f 455/189/155 395/158/130 168/160/132
f 464/674/149 451/668/512 166/667/157
f 400/368/290 104/604/476 108/364/286
f 400/368/290 106/361/283 521/303/239
f 66/376/298 211/299/235 310/378/300
f 267/451/358 120/381/303 271/453/359
f 267/451/358 271/453/359 119/452/90
f 278/675/451 473/676/466 469/677/439
f 451/668/512 480/669/513 484/678/516
f 464/674/149 477/665/148 480/669/513
f 164/679/136 346/680/517 482/196/161
f 483/681/160 479/161/133 250/152/124
f 347/154/126 481/156/128 484/678/516
f 463/682/511 477/181/148 482/196/161
f 165/153/125 250/152/124 479/161/133
f 347/154/126 165/153/125 478/157/129
f 261/417/333 198/683/346 486/450/348
f 446/442/352 485/443/351 492/406/323
f 199/679/317 485/195/351 490/439/349
f 198/682/346 324/680/318 490/439/349
f 491/413/329 488/411/327 197/415/331
f 325/416/332 197/415/331 488/411/327
f 325/416/332 489/409/325 487/684/518
f 452/404/321 492/406/323 487/684/518
f 460/187/153 249/663/510 496/670/514
f 496/670/514 500/179/146 160/685/145
f 498/155/127 499/188/154 161/686/152
f 463/664/511 346/687/517 497/180/147
f 164/164/136 494/163/135 497/180/147
f 162/166/120 494/163/135 495/688/123
f 163/689/122 493/690/519 498/155/127
f 248/691/121 495/151/123 493/690/519
f 68/489/391 60/199/164 212/490/53
f 208/67/49 59/66/51 212/69/53
f 387/469/372 67/68/52 385/70/54
f 275/692/435 458/693/454 457/694/455
f 275/692/435 137/695/434 133/696/459
f 234/697/461 133/696/459 137/695/434
f 458/693/454 275/692/435 274/698/456
f 158/145/118 502/144/117 506/171/140
f 245/176/141 156/170/139 503/175/143
f 506/171/140 503/175/143 156/170/139
f 154/101/82 502/144/117 504/699/116
f 159/140/114 501/139/113 504/142/116
f 341/90/72 511/141/115 510/700/520
f 343/197/162 509/198/163 510/700/520
f 343/197/162 157/94/76 508/93/75
f 153/91/73 508/93/75 507/92/74
f 243/95/77 507/92/74 505/173/142
f 501/139/113 511/141/115 341/90/72
f 515/305/241 512/290/227 99/701/521
f 105/359/281 401/306/242 515/305/241
f 227/360/282 105/359/281 513/304/240
f 104/604/476 516/603/475 517/311/246
f 398/371/293 100/289/226 516/603/475
f 226/605/477 517/311/246 519/310/229
f 99/701/521 512/290/227 519/292/229
f 102/602/474 520/366/288 521/303/239
f 102/602/474 398/371/293 518/367/289
f 514/302/238 521/303/239 106/361/283
f 94/702/429 92/526/417 221/547/419
f 22/703/42 5/1/1 25/3/3
f 5/1/1 14/6/6 10/2/2
f 20/11/11 34/13/13 26/12/12
f 27/21/21 29/22/22 11/9/9
f 29/22/22 27/21/21 15/24/24
f 2/40/35 9/25/25 13/27/27
f 13/27/27 16/26/26 3/29/29
f 16/26/26 15/24/24 8/28/28
f 15/24/24 16/26/26 4/30/30
f 15/24/24 4/30/30 29/22/22
f 1/31/31 19/16/16 6/8/8
f 26/12/12 35/15/15 24/17/17
f 21/33/33 30/20/20 37/32/32
f 24/17/17 30/20/20 17/18/18
f 21/33/33 7/23/23 17/18/18
f 8/28/28 7/23/23 23/34/34
f 41/37/37 40/38/38 2/35/35
f 39/42/39 3/29/29 23/34/34
f 4/30/30 9/39/25 42/43/40
f 4/30/30 42/43/40 28/5/5
f 28/5/5 31/44/41 10/2/2
f 41/704/37 38/705/36 40/47/38
f 39/706/39 23/707/34 37/708/32
f 37/708/32 33/709/14 25/45/3
f 23/707/34 21/710/33 37/708/32
f 40/47/38 38/705/36 39/706/39
f 31/46/41 42/711/40 40/47/38
f 37/708/32 25/45/3 39/706/39
f 40/47/38 39/706/39 25/45/3
f 34/51/13 22/48/42 33/50/14
f 5/55/1 22/48/42 19/52/16
f 19/52/16 1/53/31 5/55/1
f 170/134/109 44/56/43 174/59/46
f 174/59/46 56/58/45 251/61/48
f 60/199/164 174/62/46 208/64/49
f 251/712/48 173/65/50 208/67/49
f 385/70/54 59/66/51 381/72/56
f 385/70/54 381/72/56 63/74/58
f 51/73/57 381/72/56 334/76/60
f 332/77/61 420/75/59 47/71/55
f 349/107/66 332/77/61 169/78/62
f 169/78/62 47/71/55 173/65/50
f 169/713/62 173/79/50 43/81/64
f 169/713/62 43/81/64 349/83/66
f 330/82/65 43/81/64 336/84/67
f 338/99/80 336/84/67 144/85/68
f 239/97/71 144/85/68 206/86/47
f 251/714/48 206/86/47 173/79/50
f 56/58/45 145/88/70 206/60/47
f 145/88/70 153/91/73 239/89/71
f 243/715/77 152/96/78 239/97/71
f 152/96/78 340/98/79 144/85/68
f 340/98/79 154/101/82 338/99/80
f 338/99/80 148/100/81 336/84/67
f 123/103/84 111/104/85 336/84/67
f 330/82/65 111/104/85 349/83/66
f 179/113/86 115/106/87 349/107/66
f 420/75/59 332/77/61 406/108/88
f 410/109/89 406/108/88 265/111/91
f 265/111/91 115/106/87 277/114/93
f 277/389/93 179/105/86 263/115/94
f 269/117/96 263/115/94 123/103/84
f 112/390/308 263/115/94 124/118/97
f 230/232/189 124/118/97 279/116/95
f 230/231/189 279/120/95 126/122/100
f 126/122/100 270/119/98 114/124/102
f 270/119/98 125/121/99 264/123/101
f 264/123/101 113/125/103 276/127/105
f 113/125/103 331/128/106 177/126/104
f 117/205/170 177/130/104 333/132/108
f 48/201/166 333/132/108 170/133/109
f 348/129/107 331/128/106 170/134/109
f 125/121/99 337/57/44 113/125/103
f 501/139/113 155/138/112 504/142/116
f 504/699/116 502/144/117 246/146/119
f 158/145/118 162/147/120 246/146/119
f 246/716/119 248/149/121 159/140/114
f 493/690/519 495/151/123 165/153/125
f 493/690/519 165/153/125 498/155/127
f 455/189/155 481/156/128 395/158/130
f 395/158/130 478/157/129 450/159/131
f 167/717/159 168/160/132 408/162/134
f 495/688/123 494/163/135 250/165/124
f 497/180/147 494/163/135 344/167/137
f 344/169/137 162/147/120 342/168/138
f 160/178/145 344/169/137 156/170/139
f 503/175/143 506/171/140 152/96/78
f 507/92/74 157/94/76 505/173/142
f 243/715/77 505/174/142 152/96/78
f 156/170/139 245/176/141 160/178/145
f 160/685/145 500/179/146 344/167/137
f 482/196/161 477/181/148 456/183/150
f 161/185/152 247/186/144 157/94/76
f 498/155/127 347/154/126 499/188/154
f 484/678/516 481/156/128 461/190/156
f 464/182/149 166/191/157 456/183/150
f 456/183/150 465/192/158 408/194/134
f 483/681/160 408/162/134 479/161/133
f 408/194/134 483/195/160 456/183/150
f 510/700/520 509/198/163 341/90/72
f 510/700/520 511/141/115 343/197/162
f 159/140/114 163/150/122 343/197/162
f 506/171/140 502/144/117 340/98/79
f 341/90/72 339/87/69 155/138/112
f 148/100/81 241/102/83 123/103/84
f 60/199/164 48/201/166 174/62/46
f 380/200/165 419/203/168 48/201/166
f 419/203/168 405/204/169 333/132/108
f 409/206/171 266/209/174 405/204/169
f 266/209/174 276/210/105 117/205/170
f 276/210/105 266/209/174 178/211/175
f 314/223/183 178/211/175 305/212/176
f 404/213/177 418/216/178 118/214/173
f 418/216/178 379/218/179 305/217/176
f 305/212/176 49/221/181 314/223/183
f 171/270/182 45/224/184 314/227/183
f 314/227/183 303/226/186 178/228/175
f 178/228/175 114/124/102 276/127/105
f 309/225/185 126/122/100 303/226/186
f 126/122/100 151/229/187 230/231/189
f 124/118/97 230/232/189 149/234/190
f 149/234/190 242/233/188 183/236/192
f 151/229/187 184/237/193 242/230/188
f 256/247/202 254/239/191 188/240/195
f 184/237/193 317/241/196 188/240/195
f 319/242/197 321/243/198 188/240/195
f 188/240/195 192/245/200 256/247/202
f 187/396/314 256/248/202 191/250/203
f 195/399/316 191/251/203 260/253/204
f 260/448/204 258/254/201 196/256/205
f 321/718/198 323/260/206 192/255/200
f 257/719/336 189/261/207 255/262/208
f 253/434/345 255/262/208 181/263/209
f 185/244/199 319/242/197 181/263/209
f 146/264/210 181/263/209 313/238/194
f 253/434/345 181/263/209 240/266/212
f 240/266/212 146/264/210 207/267/213
f 207/267/213 57/265/211 252/269/215
f 57/265/211 45/224/184 175/268/214
f 175/281/214 171/222/182 61/271/216
f 379/218/179 383/272/217 49/220/181
f 61/274/216 383/272/217 95/276/220
f 61/274/216 95/276/220 209/278/222
f 61/271/216 209/279/222 175/281/214
f 252/720/215 209/282/222 176/284/224
f 96/372/294 62/285/223 222/287/221
f 96/372/294 222/287/221 100/289/226
f 99/701/521 224/293/225 95/276/220
f 99/701/521 95/276/220 399/294/230
f 399/294/230 397/275/219 101/296/232
f 383/272/217 65/297/233 397/275/219
f 65/297/233 211/299/235 97/295/231
f 97/295/231 223/300/236 101/296/232
f 225/301/237 514/302/238 101/296/232
f 101/296/232 513/304/240 399/294/230
f 515/305/241 401/306/242 512/290/227
f 401/306/242 403/308/244 103/291/228
f 226/605/477 103/312/228 228/314/247
f 228/314/247 107/313/243 294/317/249
f 294/317/249 281/316/248 371/319/251
f 377/621/492 369/318/250 372/320/252
f 372/320/252 281/316/248 429/321/253
f 429/326/253 411/309/245 373/323/255
f 373/323/255 359/324/256 429/326/253
f 429/321/253 423/327/257 372/320/252
f 423/327/257 427/332/259 357/328/258
f 357/328/258 365/333/261 356/335/263
f 425/337/264 362/336/262 360/330/260
f 427/721/259 364/341/267 360/343/260
f 359/324/256 364/344/267 423/325/257
f 364/344/267 359/324/256 363/347/268
f 358/346/269 359/324/256 376/348/270
f 376/348/270 373/323/255 368/350/272
f 287/351/273 375/349/271 368/350/272
f 287/351/273 368/350/272 297/354/276
f 368/350/272 283/322/254 370/353/275
f 367/641/502 370/353/275 282/356/278
f 110/362/284 282/356/278 229/357/279
f 229/357/279 295/355/277 109/358/280
f 403/308/244 109/358/280 411/309/245
f 105/359/281 109/358/280 401/306/242
f 109/358/280 105/359/281 229/357/279
f 229/357/279 227/360/282 110/362/284
f 421/638/500 428/363/285 280/365/287
f 102/602/474 98/369/291 398/371/293
f 398/371/293 396/370/292 100/289/226
f 396/370/292 382/373/295 96/372/294
f 62/285/223 382/373/295 50/375/297
f 378/374/296 382/373/295 54/377/299
f 98/369/291 66/376/298 396/370/292
f 66/376/298 98/369/291 211/299/235
f 66/376/298 310/378/300 54/377/299
f 306/379/301 310/378/300 120/381/303
f 120/381/303 407/382/304 306/379/301
f 417/383/305 378/374/296 306/379/301
f 378/374/296 417/383/305 50/375/297
f 407/382/304 116/386/92 417/383/305
f 315/430/310 304/387/306 180/388/307
f 116/112/92 265/111/91 180/388/307
f 180/722/307 277/389/93 112/390/308
f 180/722/307 112/390/308 315/392/310
f 302/391/309 112/390/308 308/393/311
f 312/394/312 308/393/311 149/234/190
f 316/395/313 312/394/312 183/236/192
f 318/423/339 316/395/313 187/396/314
f 256/248/202 187/396/314 254/235/191
f 318/423/339 187/396/314 320/397/315
f 322/438/347 320/398/315 195/399/316
f 322/438/347 195/399/316 324/401/318
f 199/400/317 195/399/316 467/402/319
f 487/684/518 492/406/323 200/408/324
f 487/684/518 489/409/325 447/405/322
f 453/410/326 489/409/325 448/412/328
f 323/260/206 193/414/330 325/416/332
f 259/418/334 261/417/333 193/414/330
f 259/418/334 193/414/330 257/420/336
f 257/420/336 190/421/337 259/418/334
f 322/438/347 194/419/335 320/398/315
f 190/435/337 186/422/338 320/397/315
f 318/423/339 186/422/338 316/395/313
f 182/424/340 147/425/341 316/395/313
f 312/394/312 147/425/341 308/393/311
f 58/426/342 46/427/343 308/393/311
f 302/391/309 46/427/343 315/392/310
f 172/431/344 50/429/297 315/430/310
f 50/429/297 172/431/344 62/283/223
f 172/428/344 46/427/343 176/432/224
f 58/426/342 207/267/213 176/432/224
f 58/426/342 147/425/341 207/267/213
f 147/425/341 182/424/340 240/266/212
f 253/434/345 182/424/340 255/262/208
f 186/422/338 190/435/337 255/262/208
f 324/401/318 198/437/346 322/438/347
f 449/182/357 486/181/348 454/440/350
f 490/439/349 485/195/351 454/440/350
f 454/440/350 446/194/352 326/192/354
f 203/403/320 202/441/353 452/404/321
f 492/406/323 485/443/351 467/407/319
f 327/446/355 326/445/354 203/403/320
f 200/408/324 467/407/319 196/256/205
f 201/447/356 327/446/355 448/412/328
f 201/191/356 449/182/357 326/192/354
f 448/412/328 491/413/329 449/449/357
f 120/381/303 267/451/358 407/382/304
f 127/380/302 131/455/361 271/453/359
f 273/456/362 132/460/363 271/453/359
f 128/462/365 329/464/367 119/110/90
f 334/76/60 329/464/367 51/73/57
f 210/465/368 63/74/58 350/463/366
f 210/465/368 213/467/370 63/74/58
f 63/74/58 69/468/371 385/70/54
f 439/478/381 387/469/372 434/470/373
f 434/470/373 69/468/371 437/471/374
f 437/471/374 213/467/370 435/473/376
f 437/471/374 435/473/376 215/475/378
f 215/475/378 73/476/379 437/471/374
f 434/470/373 73/476/379 439/478/381
f 439/478/381 389/477/380 433/480/383
f 389/477/380 391/481/384 71/479/382
f 216/723/387 214/486/388 75/482/385
f 71/479/382 214/486/388 433/480/383
f 433/480/383 438/487/389 67/68/52
f 439/478/381 433/480/383 387/469/372
f 438/497/389 436/488/390 212/490/53
f 384/491/392 386/493/394 64/466/369
f 70/472/375 386/493/394 435/473/376
f 440/494/395 386/493/394 436/488/390
f 440/494/395 436/488/390 388/496/397
f 214/657/388 72/495/396 438/497/389
f 325/416/332 200/408/324 323/260/206
f 390/502/402 76/500/400 444/503/403
f 80/498/398 84/504/404 392/506/401
f 80/510/398 441/507/406 442/509/399
f 441/507/406 80/510/398 443/512/408
f 77/724/422 81/513/409 391/516/384
f 391/516/384 393/515/411 75/483/385
f 79/484/386 83/514/410 80/498/398
f 83/519/410 85/518/413 87/522/415
f 83/514/410 87/523/415 84/504/404
f 88/725/412 87/524/415 92/526/417
f 93/527/418 91/529/416 89/531/414
f 93/527/418 89/531/414 221/528/419
f 219/543/427 220/533/420 85/518/413
f 219/543/427 85/518/413 218/534/421
f 218/534/421 81/520/409 217/536/423
f 217/539/423 77/537/422 215/475/378
f 77/537/422 391/481/384 73/476/379
f 215/475/378 74/474/377 217/539/423
f 217/536/423 78/540/424 218/534/421
f 218/534/421 82/541/425 219/543/427
f 86/542/426 90/544/428 219/543/427
f 220/532/420 90/545/428 221/528/419
f 94/546/429 90/545/428 92/549/417
f 90/544/428 86/542/426 88/551/412
f 394/550/405 86/542/426 392/501/401
f 74/474/377 388/496/397 78/538/424
f 388/496/397 74/474/377 440/494/395
f 64/466/369 70/472/375 210/465/368
f 52/492/393 350/463/366 335/202/167
f 335/202/167 121/207/172 419/203/168
f 140/726/432 233/556/431 132/457/363
f 275/562/435 140/560/432 273/456/362
f 273/456/362 131/455/361 275/562/435
f 474/601/473 138/563/436 470/565/438
f 469/42/439 470/565/438 136/566/440
f 235/567/442 136/566/440 238/568/443
f 135/569/444 235/567/442 142/570/445
f 472/572/446 135/571/444 471/575/447
f 476/599/471 430/576/448 278/579/451
f 205/578/450 140/558/432 278/579/451
f 262/577/449 236/559/433 205/578/450
f 458/13/454 274/16/456 139/581/452
f 328/298/234 459/454/360 310/378/300
f 131/455/361 232/591/462 137/561/434
f 268/586/458 122/593/464 409/215/171
f 404/213/177 122/593/464 418/216/178
f 431/595/467 204/594/465 432/596/468
f 138/563/436 431/595/467 237/597/469
f 237/597/469 432/596/468 141/598/470
f 475/600/472 141/598/470 476/599/471
f 142/574/445 141/598/470 471/575/447
f 142/570/445 238/568/443 141/598/470
f 138/563/436 237/597/469 143/564/437
f 473/32/466 431/595/467 474/601/473
f 334/76/60 420/75/59 119/110/90
f 223/300/236 98/369/291 225/301/237
f 400/368/290 518/367/289 104/604/476
f 517/311/246 516/603/475 224/288/225
f 104/604/476 226/605/477 108/364/286
f 108/364/286 228/314/247 280/365/287
f 416/613/485 402/606/478 284/608/480
f 366/607/479 280/365/287 371/319/251
f 371/319/251 296/612/484 366/607/479
f 414/615/487 416/613/485 288/614/486
f 412/727/483 414/615/487 351/616/488
f 298/617/489 288/614/486 296/612/484
f 289/629/495 298/617/489 285/618/490
f 285/618/490 296/612/484 369/318/250
f 377/621/492 374/619/491 369/318/250
f 356/335/263 377/621/492 357/328/258
f 356/335/263 424/622/493 374/619/491
f 413/352/274 424/623/493 375/349/271
f 358/346/269 424/623/493 363/347/268
f 424/622/493 356/335/263 426/625/265
f 361/340/266 363/342/268 425/627/264
f 285/618/490 413/620/274 289/629/495
f 422/728/496 354/633/498 415/628/494
f 354/633/498 300/635/499 289/629/495
f 300/635/499 351/616/488 298/617/489
f 367/641/502 282/356/278 402/606/478
f 402/606/478 421/638/500 366/607/479
f 412/727/483 352/639/482 414/615/487
f 286/642/503 367/641/502 416/613/485
f 282/356/278 110/362/284 421/638/500
f 110/362/284 106/361/283 428/363/285
f 290/640/501 286/642/503 414/615/487
f 286/642/503 297/354/276 367/641/502
f 299/644/504 297/354/276 290/640/501
f 355/654/506 299/644/504 352/645/482
f 293/729/481 301/647/505 352/649/482
f 292/651/497 353/650/507 301/647/505
f 353/656/507 291/653/508 355/654/506
f 291/653/508 287/351/273 299/644/504
f 287/351/273 291/653/508 413/352/274
f 422/730/496 415/655/494 353/656/507
f 76/659/400 72/495/396 216/658/387
f 388/496/397 72/495/396 390/552/402
f 216/485/387 79/484/386 76/500/400
f 78/540/424 390/502/402 82/541/425
f 441/731/406 443/660/408 445/508/407
f 392/732/401 444/662/403 443/660/408
f 462/661/509 444/662/403 445/508/407
f 203/403/320 447/405/322 327/446/355
f 496/670/514 249/663/510 500/179/146
f 480/669/513 477/665/148 249/663/510
f 484/678/516 480/669/513 460/187/153
f 161/686/152 499/188/154 247/671/144
f 461/190/156 455/189/155 166/667/157
f 167/717/159 465/673/158 168/160/132
f 466/672/515 455/189/155 168/160/132
f 428/363/285 400/368/290 108/364/286
f 520/366/288 400/368/290 521/303/239
f 469/677/439 468/733/441 471/734/447
f 471/734/447 475/735/472 476/736/471
f 468/733/441 472/737/446 471/734/447
f 474/738/473 470/739/438 473/676/466
f 278/675/451 457/740/455 473/676/466
f 473/676/466 470/739/438 469/677/439
f 469/677/439 471/734/447 278/675/451
f 476/736/471 278/675/451 471/734/447
f 461/190/156 451/668/512 484/678/516
f 451/668/512 464/674/149 480/669/513
f 483/195/160 164/679/136 482/196/161
f 164/741/136 483/681/160 250/152/124
f 460/187/153 347/154/126 484/678/516
f 346/680/517 463/682/511 482/196/161
f 478/157/129 165/153/125 479/161/133
f 481/156/128 347/154/126 478/157/129
f 491/413/329 261/417/333 486/450/348
f 452/404/321 446/442/352 492/406/323
f 324/680/318 199/679/317 490/439/349
f 486/181/348 198/682/346 490/439/349
f 261/417/333 491/413/329 197/415/331
f 489/409/325 325/416/332 488/411/327
f 200/408/324 325/416/332 487/684/518
f 447/405/322 452/404/321 487/684/518
f 499/188/154 460/187/153 496/670/514
f 247/671/144 496/670/514 160/685/145
f 345/742/151 498/155/127 161/686/152
f 500/179/146 463/664/511 497/180/147
f 346/687/517 164/164/136 497/180/147
f 248/743/121 162/166/120 495/688/123
f 345/742/151 163/689/122 498/155/127
f 163/689/122 248/691/121 493/690/519
f 278/744/451 275/692/435 457/694/455
f 274/698/456 275/692/435 133/696/459
f 342/168/138 158/145/118 506/171/140
f 505/174/142 245/176/141 503/175/143
f 342/168/138 506/171/140 156/170/139
f 244/143/111 154/101/82 504/699/116
f 246/716/119 159/140/114 504/142/116
f 509/198/163 343/197/162 508/93/75
f 243/95/77 153/91/73 507/92/74
f 155/138/112 501/139/113 341/90/72
f 399/294/230 515/305/241 99/701/521
f 513/304/240 105/359/281 515/305/241
f 514/302/238 227/360/282 513/304/240
f 226/605/477 104/604/476 517/311/246
f 518/367/289 398/371/293 516/603/475
f 103/312/228 226/605/477 519/310/229
f 224/293/225 99/701/521 519/292/229
f 225/301/237 102/602/474 521/303/239
f 520/366/288 102/602/474 518/367/289
f 227/360/282 514/302/238 106/361/283
