# Blender v2.76 (sub 0) OBJ File: 'npc_humanoidmutant.blend'
# www.blender.org
v -0.037590 0.581553 0.328093
v -0.032036 0.879975 0.303963
v -0.030566 0.829935 0.429535
v -0.091144 0.800492 0.260803
v -0.032324 0.654510 0.245163
v -0.064396 0.591592 0.401662
v -0.052925 0.742377 0.452515
v -0.048643 0.782402 0.444999
v -0.078130 0.848561 0.276790
v -0.061427 0.698590 0.239694
v -0.057412 0.654462 0.445345
v -0.055768 0.609731 0.277673
v -0.049243 0.858883 0.364877
v -0.065632 0.642409 0.312988
v -0.087953 0.766537 0.418861
v -0.080834 0.797792 0.415171
v -0.019084 0.675103 0.466490
v -0.076639 0.671834 0.355900
v 0.016472 0.556608 0.356676
v -0.019978 0.579839 0.448191
v 0.030824 0.722656 0.488210
v 0.012724 0.658213 0.229078
v 0.036367 0.791646 0.464821
v -0.003957 0.662753 0.470799
v 0.015823 0.694967 0.218614
v -0.003581 0.636282 0.467092
v -0.058929 0.724029 0.446108
v -0.086922 0.738432 0.254081
v -0.083631 0.724741 0.402418
v 0.022926 0.673973 0.489359
v 0.001119 0.744500 0.211570
v -0.038261 0.630211 0.447430
v 0.072423 0.614175 0.449818
v 0.048282 0.574683 0.459691
v 0.042997 0.631396 0.468314
v 0.050687 0.659863 0.469729
v 0.063867 0.672546 0.462502
v 0.043269 0.868099 0.350390
v 0.040475 0.826256 0.436047
v 0.030900 0.820402 0.246836
v 0.026175 0.877313 0.297490
v 0.010637 0.797878 0.221687
v 0.156056 -0.062200 -0.029105
v 0.163793 0.008468 0.175385
v -0.125162 -0.011360 0.193508
v -0.121952 0.025958 -0.040568
v 0.160416 0.319270 0.014154
v 0.148041 0.307738 0.237757
v -0.117902 0.298160 0.245223
v -0.127910 0.291755 -0.006077
v 0.240811 0.575015 0.047396
v 0.244100 0.495495 0.226708
v -0.158371 0.466398 0.231828
v -0.185205 0.544854 0.050613
v 0.178247 -0.096977 0.026054
v 0.183831 -0.012444 0.160225
v -0.171875 -0.026505 0.141834
v -0.159992 -0.044898 -0.012323
v 0.181130 0.397718 0.050804
v 0.177882 0.376909 0.162891
v -0.155154 0.269008 0.195551
v -0.163479 0.277858 0.031833
v 0.282679 0.566904 0.068946
v 0.296782 0.492772 0.166934
v -0.251946 0.524701 0.192297
v -0.228913 0.549098 0.076902
v 0.239258 0.386480 -0.005215
v 0.239084 0.415956 0.134595
v 0.337345 0.402000 0.009316
v 0.340752 0.408404 0.093127
v 0.267149 0.133487 -0.053702
v 0.234112 0.134692 -0.002573
v 0.321916 0.177803 -0.027973
v 0.273355 0.183235 0.023642
v 0.300666 -0.004871 0.211840
v 0.244044 -0.022810 0.270524
v 0.306558 0.041661 0.230896
v 0.257501 0.038575 0.256422
v 0.289066 -0.050150 0.299944
v 0.234303 -0.038451 0.322214
v 0.310010 -0.001066 0.310395
v 0.262370 0.017042 0.320212
v 0.318751 -0.052234 0.383273
v 0.215272 -0.042763 0.379530
v 0.295784 -0.042419 0.410301
v 0.234339 -0.016743 0.403059
v 0.306294 -0.092416 0.406192
v 0.210332 -0.072213 0.408748
v 0.288574 -0.096656 0.433312
v 0.208299 -0.073403 0.434441
v 0.298288 -0.106695 0.400325
v 0.217449 -0.082831 0.408838
v 0.256070 -0.146975 0.406081
v 0.202803 -0.130843 0.407590
v -0.191769 0.402440 0.141308
v -0.209458 0.412989 0.044889
v -0.285578 0.433828 0.134510
v -0.263721 0.455163 0.040993
v -0.251180 0.226049 0.060610
v -0.240094 0.223914 -0.018847
v -0.304230 0.218360 0.064879
v -0.289397 0.181942 -0.015743
v -0.193382 0.202081 0.124385
v -0.223671 0.132035 0.053508
v -0.275716 0.211194 0.132155
v -0.271291 0.125081 0.097618
v -0.161449 0.186952 0.297557
v -0.175837 0.141766 0.303957
v -0.204480 0.201135 0.299283
v -0.219395 0.150690 0.312246
v 0.041391 -0.040471 -0.052439
v -0.006805 -0.008913 -0.057002
v 0.053744 -0.012961 0.203282
v -0.012868 -0.023573 0.203209
v 0.075603 0.301614 -0.010351
v -0.013716 0.474421 0.022113
v 0.070947 0.296055 0.268244
v -0.037162 0.344710 0.267656
v 0.106972 0.602488 0.069486
v -0.092136 0.598901 0.083203
v 0.121310 0.498143 0.276170
v -0.053919 0.475362 0.277537
v 0.033726 -0.096997 0.010470
v -0.008830 -0.081088 -0.017882
v 0.056560 -0.040120 0.173787
v -0.040481 -0.030486 0.173539
v -0.108709 0.645906 0.150858
v 0.146540 0.593625 0.162524
v -0.068185 0.543441 0.268202
v 0.090595 0.555152 0.259174
v -0.062831 0.650868 0.179915
v 0.092421 0.629823 0.196087
v -0.038976 0.583298 0.330112
v 0.071258 0.576623 0.337049
v 0.112655 0.868480 0.298570
v 0.111749 0.816027 0.448646
v -0.032625 0.654612 0.245934
v 0.114975 0.737656 0.466820
v 0.089120 0.568082 0.407179
v 0.063647 0.634742 0.246776
v 0.137973 0.742512 0.259667
v 0.143563 0.816007 0.278223
v 0.120340 0.775727 0.454457
v 0.175195 -0.223727 0.091568
v 0.178982 -0.166344 0.221338
v -0.150186 -0.207609 0.096742
v -0.141326 -0.188148 -0.017476
v 0.039686 -0.211523 0.078464
v -0.028572 -0.184620 -0.017068
v 0.056617 -0.174210 0.202967
v -0.042634 -0.208749 0.097465
v 0.179762 -0.312359 0.147417
v 0.170532 -0.268945 0.259585
v 0.057769 -0.307105 0.145953
v 0.061915 -0.271497 0.247961
v 0.218040 -0.493177 0.118419
v 0.189430 -0.527152 0.242823
v 0.106991 -0.511539 0.096448
v 0.093322 -0.525243 0.223827
v 0.202705 -0.549554 0.158323
v 0.188493 -0.546087 0.223933
v 0.122477 -0.527781 0.118381
v 0.112799 -0.552395 0.213575
v 0.129093 -0.902777 -0.014343
v 0.129929 -0.857835 0.121624
v 0.217626 -0.982801 0.310208
v 0.121934 -0.984334 0.339873
v 0.140526 -0.957374 0.330077
v 0.137004 0.156557 0.000777
v 0.140754 0.128866 0.199136
v -0.124242 0.132191 0.208404
v -0.126112 0.177730 0.004832
v 0.173307 0.141527 0.034748
v 0.177081 0.136347 0.162362
v -0.158122 0.148068 0.170540
v -0.162749 0.153091 0.040712
v 0.058573 0.119963 0.220468
v -0.030397 0.110804 0.221781
v 0.053991 0.150267 -0.017684
v -0.023243 0.195014 -0.009408
v -0.151328 -0.322619 0.079347
v -0.149122 -0.301499 -0.030429
v -0.032164 -0.294154 -0.031132
v -0.042863 -0.323185 0.080194
v -0.162013 -0.446974 0.041683
v -0.162495 -0.398923 -0.064638
v -0.057769 -0.402995 -0.085459
v -0.058422 -0.447774 0.039280
v -0.169291 -0.464574 0.018554
v -0.168051 -0.426101 -0.063575
v -0.073194 -0.430772 -0.070695
v -0.073522 -0.476039 0.006335
v -0.156868 -0.790253 -0.202407
v -0.153360 -0.775640 -0.266217
v -0.097315 -0.778621 -0.272234
v -0.088894 -0.798281 -0.212069
v -0.159153 -0.863190 -0.208212
v -0.140555 -0.872226 -0.334717
v -0.097354 -0.881576 -0.318045
v -0.101942 -0.861323 -0.202458
v -0.187909 -1.003598 -0.020548
v -0.102523 -1.014044 -0.008341
v -0.122756 -0.979492 -0.012072
v 0.099838 0.642554 0.436218
v 0.099168 0.665549 0.242170
v 0.192275 -0.070396 0.099336
v -0.193352 -0.060391 0.063086
v 0.173383 0.360193 0.112743
v -0.169437 0.255369 0.113996
v 0.323479 0.526956 0.120216
v -0.281671 0.527298 0.132908
v 0.205996 0.430265 0.074235
v 0.350245 0.405564 0.050864
v 0.240717 0.128283 -0.024008
v 0.302989 0.177427 0.004755
v 0.273593 -0.018941 0.227886
v 0.279973 0.046191 0.250927
v 0.287285 0.011031 0.316209
v 0.266190 -0.033267 0.417026
v 0.252582 -0.083299 0.442545
v 0.239206 -0.113224 0.417890
v -0.184808 0.410059 0.090657
v -0.284449 0.442363 0.088037
v -0.221387 0.212893 0.022171
v -0.311139 0.209480 0.020133
v -0.207219 0.162079 0.092552
v -0.279091 0.165984 0.121532
v -0.166048 0.163496 0.302743
v -0.219344 0.177886 0.305966
v -0.012598 -0.096817 0.053606
v 0.143193 0.583545 0.219939
v -0.120916 0.603585 0.235133
v 0.091507 0.596955 0.273071
v -0.055943 0.611899 0.280059
v 0.128856 0.853246 0.355112
v 0.099120 0.615767 0.312047
v 0.153377 0.729825 0.400722
v 0.165298 0.809077 0.388488
v 0.194349 -0.206315 0.152860
v -0.175086 -0.203824 0.028031
v 0.028862 -0.193283 0.135800
v -0.021819 -0.208621 0.035631
v 0.189034 -0.297841 0.196365
v 0.037992 -0.287963 0.192530
v 0.225413 -0.505927 0.166359
v 0.085121 -0.518167 0.175218
v 0.203951 -0.547484 0.190978
v 0.087835 -0.555645 0.172627
v 0.221806 -0.879207 0.068843
v 0.108650 -0.876245 0.075378
v 0.191260 0.132012 0.094893
v -0.175845 0.139748 0.105311
v -0.177850 -0.310325 0.011018
v -0.029238 -0.320846 0.017532
v -0.186129 -0.412025 -0.006758
v -0.031640 -0.432636 -0.013013
v -0.174297 -0.441263 -0.022410
v -0.043761 -0.461065 -0.028678
v -0.164912 -0.777738 -0.236743
v -0.081270 -0.786600 -0.247684
v -0.174904 -0.855750 -0.243445
v 0.131099 0.650902 0.324174
v 0.021321 -0.023739 -0.023461
v 0.027347 -0.024600 0.205117
v 0.024473 0.319730 -0.009331
v 0.024031 0.316752 0.269342
v 0.009336 0.575366 0.077406
v 0.029882 0.486231 0.278707
v 0.019267 -0.030966 -0.000400
v 0.022097 -0.046968 0.173316
v 0.004197 0.639525 0.150472
v 0.013358 0.535056 0.299849
v 0.013997 0.650583 0.178298
v 0.015637 0.556624 0.356672
v 0.011454 0.658184 0.229180
v 0.017527 0.113127 0.222923
v 0.018597 0.154475 -0.011015
v 0.014285 0.694951 0.218744
v 0.019149 -0.050435 0.063894
v -0.169490 0.155385 0.368657
v -0.150015 0.196487 0.359442
v -0.206026 0.168198 0.382117
v -0.188460 0.209384 0.372132
v -0.152836 0.159210 0.422830
v -0.119809 0.196876 0.425296
v -0.180388 0.159916 0.450478
v -0.142782 0.220072 0.442140
v -0.134379 0.149076 0.445224
v -0.104329 0.193712 0.438516
v -0.144719 0.145791 0.479982
v -0.106767 0.211993 0.466372
v -0.023112 0.156688 0.435572
v -0.054525 0.113717 0.438067
v -0.159476 0.171423 0.362679
v -0.200566 0.191268 0.376438
v -0.139328 0.177392 0.418594
v -0.163739 0.194123 0.444624
v -0.117256 0.172207 0.440810
v -0.121727 0.184792 0.475569
v -0.089888 0.159898 0.449374
v -0.063132 0.156092 0.446933
v -0.073557 0.008960 -0.080471
v -0.074825 -0.011070 0.207092
v -0.062740 0.329698 -0.005936
v -0.073742 0.318608 0.251970
v -0.126787 0.585863 0.060043
v -0.116106 0.480665 0.252215
v -0.090599 -0.068066 -0.045628
v -0.110401 -0.044476 0.178495
v -0.209693 0.629039 0.130393
v -0.138772 0.537408 0.244050
v -0.085848 -0.182991 -0.042444
v -0.095473 -0.213920 0.128716
v -0.079952 0.119103 0.218698
v -0.078368 0.171451 -0.012633
v -0.090138 -0.294800 -0.050702
v -0.092100 -0.328071 0.117599
v -0.107208 -0.382270 -0.121883
v -0.110913 -0.451837 0.078804
v -0.115859 -0.415365 -0.116692
v -0.123174 -0.473643 0.037914
v -0.125337 -0.768072 -0.285535
v -0.125971 -0.790174 -0.186177
v -0.122314 -0.866580 -0.350157
v -0.130120 -0.864587 -0.181045
v -0.163745 -1.007484 -0.012974
v -0.158218 -0.982909 -0.024898
v -0.190682 0.594686 0.211819
v 0.217676 0.593114 0.119961
v 0.097994 -0.062047 -0.058231
v 0.104977 0.004565 0.191514
v 0.115456 0.294399 -0.002278
v 0.110244 0.291780 0.259641
v 0.195490 0.594088 0.048942
v 0.196890 0.507268 0.250234
v 0.103976 -0.113734 0.001866
v 0.108292 -0.008963 0.179225
v 0.103977 -0.225565 0.065183
v 0.111732 -0.154829 0.253118
v 0.118270 -0.307719 0.133064
v 0.122871 -0.258934 0.297153
v 0.165456 -0.509098 0.086841
v 0.128697 -0.525416 0.265218
v 0.176616 -0.537686 0.077338
v 0.147205 -0.542301 0.239380
v 0.151706 -0.897491 -0.041293
v 0.158178 -0.858889 0.138567
v 0.098846 0.121333 0.212471
v 0.091491 0.146855 -0.017274
v 0.231477 0.566912 0.174458
v -0.109466 0.134456 0.453424
v -0.110751 0.128999 0.481180
v -0.069839 0.193676 0.469704
v -0.079510 0.182496 0.445014
v -0.083515 0.168106 0.478772
v -0.111590 0.214310 0.403697
v -0.109639 0.224148 0.385695
v -0.132034 0.236731 0.418238
v -0.128179 0.244303 0.393410
v -0.070796 0.211127 0.392588
v -0.053199 0.210009 0.407294
v -0.092673 0.216297 0.404698
v -0.096138 0.236257 0.418156
v -0.093464 0.241843 0.403271
v -0.091228 0.221115 0.392616
v -0.160925 0.159030 0.398214
v -0.194934 0.165651 0.418356
v -0.170307 0.218984 0.405930
v -0.138606 0.197232 0.389107
v -0.185037 0.193737 0.411305
v -0.151177 0.175306 0.391649
v -0.127898 0.219866 0.375430
v -0.152901 0.239107 0.381413
v -0.115248 0.206525 0.417093
v -0.141193 0.229923 0.427716
v -0.152004 0.235705 0.404866
v -0.125171 0.212847 0.393653
v -0.160738 0.477024 0.019304
v -0.141741 0.415086 0.248808
v 0.202311 0.426049 0.233112
v 0.214162 0.501435 0.006816
v -0.188949 0.488717 0.014068
v -0.189619 0.426536 0.208599
v 0.246171 0.447949 0.168262
v 0.253752 0.457730 0.006028
v 0.293096 0.392411 0.098907
v 0.308793 0.387697 -0.019178
v 0.250738 0.164506 0.015065
v 0.301049 0.159058 -0.049197
v 0.238801 0.001254 0.277094
v 0.313952 0.019922 0.220939
v 0.238003 -0.005429 0.326326
v 0.305096 -0.028265 0.304965
v 0.219013 -0.026232 0.391445
v 0.147858 -0.926805 0.296470
v -0.224535 0.461265 0.025346
v -0.220641 0.424421 0.164548
v -0.269005 0.208056 -0.028736
v -0.285022 0.225683 0.073673
v -0.250809 0.110567 0.067355
v -0.232903 0.218253 0.137749
v -0.184350 0.150631 0.411894
v -0.180625 0.201805 0.297346
v -0.043582 0.403866 0.276472
v 0.100930 0.419681 0.299720
v 0.104016 0.476232 -0.003031
v -0.054911 0.493053 0.018453
v 0.118515 -0.963955 0.246744
v 0.028374 0.414992 0.298954
v 0.052761 0.545905 0.052279
v -0.165995 0.210532 0.358271
v -0.116529 0.120017 0.470911
v -0.121042 0.211400 0.440784
v -0.145969 0.135723 0.466212
v -0.100069 0.209284 0.449332
v -0.173033 0.147853 0.440263
v -0.107921 0.459027 0.016301
v -0.095189 0.413382 0.266988
v 0.155969 0.430147 0.272764
v 0.161874 0.478822 -0.006392
v -0.194179 0.150081 0.378996
v -0.072190 0.193857 0.453192
v -0.118578 0.236709 0.382885
v -0.118835 0.220391 0.424640
v -0.066606 0.208114 0.407564
v -0.094513 0.222863 0.419259
v -0.091364 0.233544 0.393609
v -0.204476 0.134976 0.312309
v -0.141216 0.231779 0.371589
v 0.140592 0.703821 0.253093
v 0.111157 0.717851 0.457341
v 0.137871 0.693031 0.376442
v 0.253452 0.276060 -0.036656
v 0.330133 0.273933 -0.023231
v 0.311118 0.272962 0.054474
v 0.240069 0.272176 0.035581
v 0.334011 0.272052 0.018930
v 0.230737 0.270176 -0.002151
v 0.296996 0.273767 -0.044470
v 0.268922 0.273766 0.061509
v 0.218726 -0.043787 0.336186
v 0.216735 -0.031686 0.305055
v 0.215205 -0.034570 0.349050
v 0.223064 -0.014622 0.308417
v 0.201848 -0.043857 0.339713
v -0.099937 -0.980460 -0.086751
v -0.122804 -0.957463 -0.048294
v -0.187855 -0.964254 -0.068925
v -0.195071 -0.972311 -0.091289
v 0.123418 -0.931905 0.274788
v 0.221073 -0.950506 0.244270
v -0.104009 -0.969527 -0.048516
v -0.159360 -0.961518 -0.043365
v -0.151512 -0.968325 -0.110309
v 0.180853 -0.929301 0.299162
v 0.173395 -0.962398 0.226495
v 0.071587 0.614191 0.449814
v 0.047446 0.574699 0.459687
v -0.114424 0.618847 0.173738
v 0.197619 -0.863186 0.109671
v 0.213020 -0.932795 0.287002
v 0.189625 -0.058881 0.372564
v 0.186338 -0.910374 0.009214
v 0.235028 -0.965642 0.232853
v 0.184016 -0.987453 0.343189
v 0.180604 -0.957300 0.335954
v -0.079668 -0.876413 -0.240465
v 0.043390 0.867842 0.351148
v 0.034383 0.826103 0.436845
v 0.030792 0.791951 0.465639
v 0.028946 0.820625 0.247625
v 0.022152 0.877588 0.298296
v 0.062950 0.673231 0.463309
v 0.029928 0.722127 0.488987
v 0.009967 0.798916 0.222540
v -0.001694 0.745107 0.212523
v 0.208039 -0.938808 0.121075
v 0.137758 -0.899102 0.207646
v 0.124657 -0.904638 0.175538
v 0.205601 -0.909062 0.156868
v 0.166739 -0.901314 0.217259
v 0.158227 -0.931241 0.092625
v 0.129346 -0.934828 0.116573
v 0.188644 -0.905433 0.196094
v -0.113466 -0.939140 -0.194012
v -0.185898 -0.931617 -0.189679
v -0.112760 -0.914069 -0.127209
v -0.169161 -0.917722 -0.129367
v -0.145388 -0.920924 -0.115294
v -0.137262 -0.919067 -0.230606
v -0.177049 -0.913995 -0.146964
v -0.097159 -0.919131 -0.142379
v 0.128357 -0.797943 0.104310
v 0.133003 -0.792375 0.033195
v 0.111498 -0.797529 0.077210
v 0.198792 -0.800017 0.084191
v 0.161330 -0.792149 0.016045
v 0.152020 -0.799036 0.118356
v 0.183093 -0.799503 0.105926
v 0.185752 -0.801371 0.055663
v 0.067181 -0.389721 0.284835
v 0.072145 -0.405030 0.150622
v 0.201380 -0.399320 0.159734
v 0.050119 -0.393461 0.223415
v 0.209710 -0.398738 0.218658
v 0.137802 -0.404693 0.139519
v 0.195891 -0.395836 0.264357
v 0.181700 -0.392576 0.305404
v 0.150771 -0.388043 0.316877
v 0.122501 -0.387214 0.330329
v 0.101684 -0.386338 0.318058
v -0.222770 0.212203 0.089709
v -0.289120 0.195663 0.084413
v -0.293897 0.166661 0.055971
v -0.259261 0.219150 0.102584
v -0.234925 0.169608 0.002720
v -0.217564 0.179080 0.042179
v -0.261950 0.148886 0.005423
v -0.207149 0.189381 0.058306
v -0.273433 0.142290 0.011685
v -0.294856 0.155396 0.039324
vt 0.069736 0.810409
vt 0.070343 0.836608
vt 0.016229 0.816513
vt 0.108198 0.828833
vt 0.082923 0.858291
vt 0.106675 0.817219
vt 0.100807 0.806030
vt 0.150135 0.804118
vt 0.147186 0.813631
vt 0.174865 0.804059
vt 0.199136 0.770721
vt 0.202768 0.808668
vt 0.238571 0.772226
vt 0.263052 0.806977
vt 0.232791 0.807582
vt 0.219562 0.756768
vt 0.197768 0.831600
vt 0.178180 0.842881
vt 0.234127 0.832144
vt 0.215107 0.851808
vt 0.137368 0.848515
vt 0.110896 0.852930
vt 0.145348 0.858722
vt 0.117053 0.872845
vt 0.102955 0.908822
vt 0.126935 0.911784
vt 0.138976 0.939172
vt 0.152030 0.900103
vt 0.166281 0.939086
vt 0.089864 0.882970
vt 0.149277 0.791186
vt 0.257412 0.845823
vt 0.214501 0.867849
vt 0.213059 0.907146
vt 0.051165 0.936868
vt 0.014365 0.995179
vt 0.015016 0.932731
vt 0.015519 0.884587
vt 0.078700 0.906981
vt 0.119497 0.940371
vt 0.219156 0.966110
vt 0.215077 0.942549
vt 0.015832 0.854569
vt 0.016051 0.833512
vt 0.179234 0.620343
vt 0.197718 0.646091
vt 0.173652 0.698841
vt 0.182928 0.613250
vt 0.178951 0.620309
vt 0.026111 0.589592
vt 0.036575 0.571852
vt 0.091358 0.586156
vt 0.124688 0.593060
vt 0.160572 0.604071
vt 0.170757 0.608279
vt 0.530541 0.500669
vt 0.510531 0.463554
vt 0.551834 0.493069
vt 0.552803 0.545871
vt 0.590385 0.499029
vt 0.586699 0.548165
vt 0.709463 0.233461
vt 0.736981 0.227836
vt 0.754824 0.286062
vt 0.746649 0.660255
vt 0.764971 0.572211
vt 0.792005 0.606361
vt 0.782569 0.517985
vt 0.798161 0.553887
vt 0.756625 0.500475
vt 0.737230 0.581062
vt 0.736075 0.519940
vt 0.733529 0.479446
vt 0.750714 0.455948
vt 0.710553 0.534913
vt 0.713606 0.486083
vt 0.707849 0.591243
vt 0.721914 0.656839
vt 0.056404 0.510554
vt 0.059910 0.459217
vt 0.082250 0.470310
vt 0.111457 0.463904
vt 0.112872 0.507403
vt 0.101446 0.443261
vt 0.056753 0.433066
vt 0.024045 0.465652
vt 0.523770 0.443500
vt 0.557804 0.459512
vt 0.592367 0.472603
vt 0.536472 0.416574
vt 0.563911 0.425104
vt 0.586690 0.416660
vt 0.568725 0.405936
vt 0.575182 0.380223
vt 0.594668 0.441922
vt 0.051716 0.399758
vt 0.024388 0.442698
vt 0.081566 0.396057
vt 0.093588 0.424361
vt 0.128566 0.412255
vt 0.109875 0.389620
vt 0.144957 0.383594
vt 0.141775 0.429221
vt 0.140728 0.456272
vt 0.132597 0.505439
vt 0.682119 0.592684
vt 0.697545 0.666171
vt 0.684063 0.542042
vt 0.648993 0.547098
vt 0.685757 0.487986
vt 0.653522 0.591244
vt 0.623556 0.582985
vt 0.679541 0.670859
vt 0.662650 0.670490
vt 0.157697 0.458631
vt 0.158681 0.391976
vt 0.157741 0.429866
vt 0.177530 0.430906
vt 0.454911 0.444893
vt 0.463736 0.393656
vt 0.479621 0.447783
vt 0.429932 0.441906
vt 0.454684 0.472779
vt 0.434980 0.472434
vt 0.472824 0.476894
vt 0.476425 0.525671
vt 0.456561 0.523166
vt 0.499275 0.486705
vt 0.497959 0.533883
vt 0.650874 0.220393
vt 0.668673 0.225869
vt 0.676740 0.279524
vt 0.688030 0.233060
vt 0.523816 0.542864
vt 0.493663 0.422434
vt 0.474451 0.386123
vt 0.482005 0.375180
vt 0.505422 0.400154
vt 0.514707 0.384843
vt 0.523991 0.369532
vt 0.531331 0.397196
vt 0.491685 0.367753
vt 0.128703 0.369584
vt 0.104505 0.368381
vt 0.099134 0.347142
vt 0.124471 0.341259
vt 0.103840 0.290043
vt 0.125032 0.288667
vt 0.506874 0.315104
vt 0.523971 0.318162
vt 0.260244 0.201008
vt 0.260256 0.148470
vt 0.285563 0.152714
vt 0.307173 0.152925
vt 0.307427 0.206656
vt 0.310405 0.109643
vt 0.286264 0.108735
vt 0.286965 0.064755
vt 0.267247 0.062003
vt 0.295875 0.025083
vt 0.263751 0.105236
vt 0.252893 0.056371
vt 0.440764 0.192044
vt 0.442886 0.130542
vt 0.459726 0.145161
vt 0.438643 0.253546
vt 0.412179 0.246705
vt 0.072435 0.349262
vt 0.073244 0.290649
vt 0.045943 0.349562
vt 0.077001 0.372659
vt 0.598868 0.385923
vt 0.596768 0.413923
vt 0.025330 0.379831
vt 0.048830 0.374660
vt 0.025785 0.349403
vt 0.026752 0.284835
vt 0.049424 0.287418
vt 0.388440 0.194221
vt 0.413018 0.188997
vt 0.545758 0.095983
vt 0.484907 0.101111
vt 0.491324 0.068919
vt 0.543531 0.316131
vt 0.571026 0.317433
vt 0.603411 0.325357
vt 0.336412 0.145885
vt 0.334734 0.199716
vt 0.313637 0.066360
vt 0.339506 0.058746
vt 0.419166 0.101111
vt 0.415550 0.073077
vt 0.418936 0.041329
vt 0.485174 0.030517
vt 0.545250 0.041004
vt 0.555771 0.071660
vt 0.550413 0.377675
vt 0.558050 0.404510
vt 0.731741 0.299501
vt 0.713679 0.331519
vt 0.699831 0.287050
vt 0.699623 0.348759
vt 0.689400 0.321677
vt 0.663804 0.312784
vt 0.654456 0.274483
vt 0.634618 0.311670
vt 0.669502 0.338169
vt 0.604363 0.274181
vt 0.630672 0.275261
vt 0.632768 0.219732
vt 0.612796 0.219139
vt 0.578680 0.274242
vt 0.840163 0.675460
vt 0.805000 0.641210
vt 0.821835 0.616809
vt 0.823287 0.709302
vt 0.792442 0.666262
vt 0.801265 0.732258
vt 0.840971 0.744966
vt 0.781333 0.686390
vt 0.557027 0.277312
vt 0.566024 0.224516
vt 0.589504 0.220607
vt 0.375096 0.492402
vt 0.384961 0.458486
vt 0.405199 0.486941
vt 0.410574 0.526483
vt 0.436273 0.522295
vt 0.410194 0.413373
vt 0.430433 0.380777
vt 0.455808 0.393131
vt 0.165665 0.393959
vt 0.192333 0.391907
vt 0.203471 0.419505
vt 0.207389 0.368304
vt 0.225411 0.391622
vt 0.396034 0.384167
vt 0.373257 0.427405
vt 0.420432 0.356604
vt 0.385943 0.354045
vt 0.365034 0.394965
vt 0.359348 0.362250
vt 0.361655 0.322007
vt 0.331496 0.354320
vt 0.389735 0.318213
vt 0.408299 0.313218
vt 0.407520 0.344510
vt 0.211730 0.328779
vt 0.220254 0.292264
vt 0.240239 0.298890
vt 0.032729 0.262939
vt 0.010266 0.262462
vt 0.022123 0.216488
vt 0.183362 0.259934
vt 0.169879 0.261827
vt 0.170456 0.200058
vt 0.152871 0.212064
vt 0.157816 0.257421
vt 0.131245 0.259389
vt 0.152744 0.212061
vt 0.329851 0.315255
vt 0.305156 0.349663
vt 0.332361 0.395198
vt 0.336616 0.434023
vt 0.342953 0.472564
vt 0.302718 0.434937
vt 0.305443 0.474901
vt 0.344205 0.538039
vt 0.305197 0.529271
vt 0.381368 0.533821
vt 0.526919 0.283769
vt 0.770507 0.751644
vt 0.805920 0.758992
vt 0.759849 0.709726
vt 0.733814 0.766693
vt 0.731822 0.732613
vt 0.715848 0.699675
vt 0.731674 0.685305
vt 0.489862 0.276741
vt 0.503649 0.216719
vt 0.536949 0.224504
vt 0.500193 0.577651
vt 0.546406 0.567669
vt 0.550049 0.651223
vt 0.770277 0.950472
vt 0.741703 0.987031
vt 0.721975 0.973279
vt 0.670795 0.949235
vt 0.691763 0.924160
vt 0.667253 0.759822
vt 0.647596 0.761046
vt 0.661418 0.745912
vt 0.674984 0.731059
vt 0.685126 0.785114
vt 0.727911 0.801324
vt 0.684541 0.813951
vt 0.779951 0.788271
vt 0.812240 0.817931
vt 0.777899 0.838219
vt 0.732181 0.843380
vt 0.684428 0.846295
vt 0.661248 0.840977
vt 0.662804 0.852998
vt 0.662157 0.811417
vt 0.664185 0.784673
vt 0.643244 0.784232
vt 0.590894 0.788058
vt 0.588395 0.804006
vt 0.546988 0.807658
vt 0.648291 0.946686
vt 0.655183 0.935733
vt 0.625362 0.944088
vt 0.565379 0.931164
vt 0.577026 0.913602
vt 0.517318 0.950251
vt 0.518656 0.937728
vt 0.532671 0.916079
vt 0.498534 0.934775
vt 0.508386 0.916362
vt 0.498934 0.958053
vt 0.504952 0.967267
vt 0.538647 0.828159
vt 0.520554 0.803562
vt 0.506540 0.794164
vt 0.512161 0.782695
vt 0.526812 0.792410
vt 0.499805 0.976893
vt 0.490810 0.970078
vt 0.606211 0.225665
vt 0.595724 0.228838
vt 0.600010 0.221730
vt 0.495368 0.986286
vt 0.485546 0.980051
vt 0.476390 0.972088
vt 0.479016 0.958002
vt 0.594230 0.216702
vt 0.592138 0.225545
vt 0.586564 0.214627
vt 0.590529 0.228890
vt 0.597639 0.217468
vt 0.605528 0.228876
vt 0.601098 0.232224
vt 0.604423 0.216146
vt 0.496747 0.782205
vt 0.501342 0.775490
vt 0.492601 0.804070
vt 0.489730 0.787509
vt 0.506750 0.811736
vt 0.492742 0.816421
vt 0.513412 0.828903
vt 0.488759 0.827748
vt 0.474192 0.805949
vt 0.511728 0.849291
vt 0.490026 0.847743
vt 0.536808 0.847447
vt 0.531596 0.867423
vt 0.579848 0.843550
vt 0.583631 0.821038
vt 0.639773 0.808883
vt 0.638068 0.835659
vt 0.640348 0.859960
vt 0.577914 0.864185
vt 0.582099 0.876926
vt 0.584670 0.895647
vt 0.537191 0.899022
vt 0.667339 0.876481
vt 0.668457 0.888449
vt 0.646086 0.879394
vt 0.736172 0.880839
vt 0.740176 0.911475
vt 0.690828 0.897503
vt 0.738403 0.943686
vt 0.778359 0.920543
vt 0.803771 0.938845
vt 0.794015 0.972059
vt 0.784290 0.882232
vt 0.808911 0.904111
vt 0.820719 0.863047
vt 0.834152 0.902731
vt 0.860307 0.861182
vt 0.865071 0.907486
vt 0.854923 0.958699
vt 0.829423 0.947565
vt 0.815176 0.985898
vt 0.887162 0.982680
vt 0.841126 0.997513
vt 0.599526 0.582393
vt 0.641540 0.666649
vt 0.148351 0.505738
vt 0.174193 0.461810
vt 0.207317 0.471588
vt 0.195039 0.515146
vt 0.222404 0.449298
vt 0.239531 0.431097
vt 0.252210 0.395818
vt 0.234712 0.343454
vt 0.265749 0.311085
vt 0.059449 0.258487
vt 0.041224 0.210106
vt 0.046055 0.145057
vt 0.065208 0.145112
vt 0.024679 0.151375
vt 0.162418 0.029328
vt 0.182110 0.066625
vt 0.166653 0.067555
vt 0.184383 0.102727
vt 0.186657 0.138828
vt 0.165079 0.140337
vt 0.141648 0.103851
vt 0.138732 0.067952
vt 0.115723 0.103496
vt 0.111228 0.067117
vt 0.106891 0.104386
vt 0.128518 0.203489
vt 0.120218 0.139876
vt 0.144564 0.139751
vt 0.102553 0.141654
vt 0.109393 0.202459
vt 0.089752 0.204557
vt 0.108356 0.261684
vt 0.084126 0.259809
vt 0.282949 0.354017
vt 0.258549 0.351892
vt 0.279678 0.394818
vt 0.273489 0.435894
vt 0.264764 0.465056
vt 0.236144 0.480843
vt 0.230426 0.525231
vt 0.576400 0.576912
vt 0.612982 0.659816
vt 0.582060 0.650525
vt 0.267987 0.525790
vt 0.305231 0.529680
vt 0.303387 0.392990
vt 0.288143 0.310611
vt 0.305042 0.312138
vt 0.080500 0.144623
vt 0.064947 0.207693
vt 0.555911 0.071265
vt 0.491604 0.068128
vt 0.166360 0.018036
vt 0.194569 0.061886
vt 0.205200 0.106980
vt 0.215831 0.152075
vt 0.145490 0.015442
vt 0.142316 0.025664
vt 0.122222 0.019171
vt 0.183428 0.191935
vt 0.098209 0.061670
vt 0.089191 0.103327
vt 0.904527 0.932446
vt 0.949699 0.948466
vt 0.911335 0.882488
vt 0.856281 0.836740
vt 0.887268 0.835598
vt 0.922921 0.857963
vt 0.965169 0.597470
vt 0.917537 0.577056
vt 0.944867 0.540579
vt 0.978071 0.883628
vt 0.973533 0.894384
vt 0.689807 0.425682
vt 0.723753 0.401854
vt 0.723676 0.441929
vt 0.751080 0.416759
vt 0.743080 0.379427
vt 0.787951 0.419748
vt 0.785654 0.452513
vt 0.788706 0.483118
vt 0.832288 0.454003
vt 0.836262 0.425753
vt 0.780027 0.392874
vt 0.831699 0.398084
vt 0.881984 0.402051
vt 0.879661 0.431814
vt 0.870752 0.458245
vt 0.864071 0.473143
vt 0.827228 0.478044
vt 0.861871 0.491751
vt 0.818704 0.500131
vt 0.958919 0.484608
vt 0.962949 0.502797
vt 0.937394 0.181666
vt 0.769056 0.171862
vt 0.923107 0.165442
vt 0.866430 0.519287
vt 0.825735 0.529120
vt 0.815376 0.348115
vt 0.773877 0.335777
vt 0.788825 0.312483
vt 0.742325 0.347461
vt 0.720633 0.360227
vt 0.774690 0.367418
vt 0.820904 0.374810
vt 0.872377 0.354530
vt 0.878939 0.376376
vt 0.819290 0.317856
vt 0.731418 0.161390
vt 0.740781 0.147624
vt 0.910959 0.146351
vt 0.728397 0.116884
vt 0.914298 0.126964
vt 0.743061 0.135898
vt 0.708508 0.185310
vt 0.696037 0.169448
vt 0.707778 0.159044
vt 0.676057 0.226459
vt 0.677608 0.225465
vt 0.676205 0.240475
vt 0.671792 0.238244
vt 0.671579 0.231190
vt 0.675970 0.223623
vt 0.780888 0.198982
vt 0.721993 0.208356
vt 0.777250 0.185608
vt 0.940749 0.196335
vt 0.683363 0.177018
vt 0.717878 0.068662
vt 0.713329 0.057286
vt 0.765911 0.073368
vt 0.691650 0.061870
vt 0.690905 0.050835
vt 0.704049 0.210128
vt 0.580357 0.233572
vt 0.578678 0.228747
vt 0.590575 0.223615
vt 0.632111 0.223278
vt 0.631029 0.218871
vt 0.633990 0.223808
vt 0.634144 0.230548
vt 0.630419 0.230702
vt 0.627492 0.228454
vt 0.685209 0.070727
vt 0.761098 0.088965
vt 0.932747 0.074007
vt 0.937492 0.094905
vt 0.957631 0.466678
vt 0.967928 0.421502
vt 0.960140 0.443954
vt 0.932725 0.111224
vt 0.750793 0.102746
vt 0.705453 0.080670
vt 0.711538 0.076342
vt 0.680790 0.074556
vt 0.626241 0.226931
vt 0.628045 0.218080
vt 0.582846 0.223738
vt 0.622224 0.225301
vt 0.624718 0.220016
vt 0.697557 0.089662
vt 0.676268 0.086597
vt 0.978665 0.398268
vt 0.692023 0.380408
vt 0.864947 0.581494
vt 0.899554 0.604654
vt 0.958903 0.642431
vt 0.337857 0.805645
vt 0.352329 0.816896
vt 0.335849 0.816248
vt 0.980156 0.877558
vt 0.909464 0.816878
vt 0.926421 0.834067
vt 0.281063 0.862176
vt 0.275086 0.902303
vt 0.214060 0.907716
vt 0.263508 0.936732
vt 0.293204 0.935134
vt 0.312830 0.897319
vt 0.306961 0.939965
vt 0.325778 0.911830
vt 0.378134 0.940095
vt 0.415505 0.929827
vt 0.418784 0.993411
vt 0.352990 0.912880
vt 0.416587 0.879286
vt 0.342977 0.862915
vt 0.334404 0.831281
vt 0.356169 0.822831
vt 0.421828 0.803268
vt 0.423463 0.790571
vt 0.281092 0.802015
vt 0.289344 0.787333
vt 0.914935 0.669173
vt 0.894371 0.655267
vt 0.941248 0.648461
vt 0.865116 0.631419
vt 0.904634 0.714904
vt 0.885904 0.758904
vt 0.900499 0.789879
vt 0.899007 0.788698
vt 0.853737 0.811092
vt 0.829870 0.777931
vt 0.860844 0.709530
vt 0.295623 0.819633
vt 0.287258 0.844412
vt 0.325763 0.856591
vt 0.321747 0.877511
vt 0.342095 0.889562
vt 0.420014 0.823008
vt 0.418443 0.847652
vt 0.214754 0.868398
vt 0.684556 0.874120
vt 0.672119 0.912381
vt 0.652475 0.900602
vt 0.639571 0.922231
vt 0.507622 0.881982
vt 0.511692 0.900015
vt 0.489666 0.900137
vt 0.580288 0.220048
vt 0.602597 0.219251
vt 0.595593 0.231166
vt 0.484047 0.918288
vt 0.483902 0.881354
vt 0.469443 0.898677
vt 0.461404 0.882670
vt 0.450183 0.899039
vt 0.464541 0.917413
vt 0.468275 0.936341
vt 0.471954 0.946277
vt 0.450867 0.951575
vt 0.488129 0.950503
vt 0.459843 0.957822
vt 0.474275 0.794513
vt 0.477930 0.782470
vt 0.464248 0.968801
vt 0.593648 0.229043
vt 0.594800 0.219921
vt 0.444295 0.950359
vt 0.455896 0.935741
vt 0.578071 0.229878
vt 0.581080 0.226636
vt 0.582821 0.231325
vt 0.444016 0.932284
vt 0.589242 0.231216
vt 0.447125 0.916158
vt 0.594684 0.224169
vt 0.596039 0.231008
vt 0.534866 0.881347
vt 0.436167 0.876832
vt 0.451786 0.873540
vt 0.502622 0.869488
vt 0.478622 0.869260
vt 0.600669 0.228516
vt 0.470367 0.846306
vt 0.436632 0.875280
vt 0.588033 0.222815
vt 0.620369 0.220488
vt 0.617885 0.228883
vt 0.604039 0.223910
vt 0.625993 0.229515
vt 0.627942 0.223514
vt 0.630553 0.227391
vt 0.474575 0.826305
vt 0.456368 0.843249
vt 0.468600 0.807609
vt 0.462220 0.823292
vt 0.860756 0.332332
vt 0.993439 0.371060
vt 0.986188 0.383142
vt 0.682025 0.226976
vt 0.679969 0.227249
vt 0.679746 0.240699
vt 0.359744 0.137364
vt 0.391687 0.134896
vt 0.379208 0.097067
vt 0.392501 0.134914
vt 0.338867 0.016386
vt 0.351992 0.060701
vt 0.355868 0.099033
vt 0.358824 0.195455
vt 0.357904 0.253546
vt 0.317688 0.022378
vt 0.316028 0.010349
vt 0.365914 0.059220
vt 0.188288 0.626633
vt 0.020225 0.627476
vt 0.077847 0.729049
vt 0.337959 0.102316
vt 0.605326 0.051490
vt 0.620218 0.074402
vt 0.243365 0.103028
vt 0.606609 0.090856
vt 0.080172 0.144983
vt 0.165866 0.103946
vt 0.385193 0.253546
vt 0.333056 0.253546
vt 0.413857 0.131288
vt 0.459290 0.199353
vt 0.286566 0.257455
vt 0.286064 0.205085
vt 0.260233 0.253546
vt 0.180066 0.618899
vt 0.041004 0.571204
vt 0.031313 0.580504
vt 0.176801 0.615736
vt 0.131432 0.592259
vt 0.168093 0.605199
vt 0.087753 0.577968
vt 0.126587 0.355421
vt 0.542484 0.399799
vt 0.686910 0.758599
vt 0.586835 0.222039
vt 0.016410 0.799097
vt 0.148475 0.720072
vt 0.112435 0.731387
vt 0.084152 0.729883
vt 0.033136 0.705214
vt 0.025959 0.628575
vt 0.025663 0.589717
vt 0.019321 0.677833
vt 0.192463 0.676215
vt 0.778378 0.672029
vt 0.084388 0.511316
vt 0.023385 0.509676
vt 0.024874 0.410259
vt 0.501364 0.360326
vt 0.292615 0.013201
vt 0.157751 0.257609
vt 0.305025 0.313375
vt 0.507675 0.653310
vt 0.608429 0.224637
vt 0.167552 0.508667
vt 0.967338 0.518460
vt 0.937757 0.213909
vt 0.591695 0.226894
vt 0.981627 0.633093
vt 0.446385 0.886139
vt 0.437892 0.943408
vt 0.609547 0.219908
vt 0.459305 0.810763
vt 0.679907 0.223732
vt 0.684787 0.235652
vt 0.107612 0.733849
vt 0.168687 0.701495
vt 0.187110 0.679257
vt 0.192365 0.649132
vt 0.140452 0.724767
vt 0.012425 0.676347
vt 0.026831 0.704379
vt 0.030940 0.580778
vt 0.233836 0.149685
vt 0.307681 0.260387
vt 0.458854 0.253546
vt 0.187870 0.626400
vn -0.408400 -0.527900 -0.744600
vn -0.644500 -0.295000 -0.705400
vn 0.526700 -0.178600 -0.831000
vn -0.982700 -0.185300 -0.003200
vn -0.842700 -0.109600 -0.527000
vn -0.952800 -0.237200 -0.189300
vn -0.495300 -0.620500 -0.608000
vn -0.803900 -0.563700 0.189600
vn -0.738200 -0.180900 0.649800
vn -0.543500 -0.262900 0.797100
vn -0.411100 -0.665600 0.622900
vn -0.252400 -0.174000 0.951800
vn 0.453200 -0.703200 0.547800
vn 0.935200 -0.228900 0.270100
vn 0.216600 -0.120600 0.968700
vn 0.363100 -0.896300 -0.254400
vn -0.298300 -0.265000 0.916900
vn -0.442800 -0.084800 0.892600
vn 0.432400 -0.217200 0.875100
vn -0.007300 -0.337400 0.941300
vn -0.709900 -0.084300 0.699200
vn -0.963600 -0.166000 0.209700
vn -0.511200 0.089800 0.854800
vn -0.903100 0.054800 0.425900
vn -0.653000 0.637100 -0.409500
vn -0.790400 0.409000 0.456000
vn -0.450900 0.832600 0.321500
vn -0.418100 0.297600 0.858200
vn -0.276900 0.698100 0.660300
vn -0.823800 0.191800 -0.533400
vn -0.457500 -0.806400 -0.374700
vn 0.907800 0.048100 0.416700
vn 0.196300 0.158800 0.967600
vn 0.400800 0.400400 0.824000
vn -0.218300 0.953000 -0.210100
vn 0.739000 0.650100 0.176500
vn 0.449200 0.818100 -0.358900
vn 0.720100 0.389900 -0.573900
vn 0.654000 0.610900 0.446100
vn 0.255200 0.313800 -0.914500
vn 0.089300 0.075400 -0.993100
vn 0.394900 -0.478900 -0.784000
vn 0.411600 -0.207600 0.887400
vn 0.186400 -0.230400 0.955100
vn 0.830000 0.063400 0.554000
vn 0.898200 -0.013700 0.439400
vn 0.998600 -0.006500 -0.052000
vn 0.997600 0.045900 -0.051900
vn 0.986700 -0.162500 -0.001400
vn 0.879400 0.057100 -0.472600
vn 0.884500 -0.461300 -0.068600
vn -0.601200 0.130100 -0.788400
vn -0.019900 -0.983700 0.178600
vn -0.011500 0.237000 -0.971400
vn 0.670100 -0.063300 -0.739500
vn 0.210800 0.203700 -0.956100
vn 0.370200 0.686300 -0.626100
vn 0.592200 0.727800 -0.345700
vn 0.077600 0.167100 -0.982900
vn 0.117500 0.827200 -0.549500
vn 0.266300 0.012100 -0.963800
vn 0.522400 0.069200 -0.849900
vn 0.822400 -0.278400 -0.496100
vn 0.652900 -0.248500 -0.715500
vn 0.085100 -0.352900 -0.931800
vn 0.188700 0.115500 -0.975200
vn 0.054300 -0.627600 -0.776600
vn 0.703700 -0.360500 -0.612200
vn -0.172200 0.394500 0.902600
vn 0.809400 0.200300 0.552000
vn 0.999100 -0.030800 -0.028900
vn -0.012700 0.311900 0.950000
vn 0.829200 0.192000 0.524900
vn 0.953000 0.058800 0.297200
vn 0.668200 -0.007500 0.743900
vn 0.627900 -0.433600 0.646300
vn 0.995600 0.085800 0.036100
vn 0.741300 -0.127800 -0.658900
vn 0.015200 -0.363300 -0.931500
vn 0.012100 -0.554400 -0.832100
vn -0.730200 -0.418300 -0.540200
vn -0.708400 -0.333800 -0.621800
vn -0.993700 -0.049200 0.100700
vn -0.738100 -0.452800 -0.500100
vn -0.500600 -0.205800 -0.840800
vn -0.100200 0.094400 -0.990400
vn 0.083300 0.032400 -0.996000
vn -0.217100 0.273700 -0.936900
vn -0.164100 0.452700 -0.876400
vn -0.033000 0.841900 -0.538600
vn -0.151700 0.093000 -0.984000
vn 0.128900 0.189000 -0.973400
vn 0.017700 0.119400 -0.992700
vn -0.115500 -0.331600 -0.936300
vn -0.322900 -0.916300 0.236900
vn -0.087600 -0.946000 -0.312100
vn 0.729500 -0.380300 -0.568400
vn -0.013600 -0.958800 0.283600
vn -0.197600 -0.524300 0.828300
vn 0.103100 -0.822900 0.558700
vn 0.090800 -0.525300 0.846100
vn -0.104500 -0.596300 0.795900
vn 0.268800 -0.405400 0.873700
vn 0.149100 -0.210800 0.966100
vn 0.029300 -0.185000 0.982300
vn 0.298000 -0.360800 0.883700
vn 0.262500 -0.213800 0.940900
vn 0.367600 -0.255400 0.894200
vn 0.532400 -0.156200 0.831900
vn -0.828100 0.195700 0.525200
vn -0.994900 -0.074200 0.068100
vn -0.811200 0.154800 0.563800
vn -0.822700 -0.119200 0.555800
vn -0.804400 -0.439300 0.399800
vn -0.606400 -0.080300 0.791100
vn -0.985900 -0.157100 0.056500
vn -0.728200 -0.045600 -0.683800
vn -0.530500 -0.320600 -0.784700
vn -0.967800 -0.198700 -0.154100
vn -0.670700 -0.387100 -0.632700
vn -0.987300 -0.158100 -0.014300
vn -0.590400 -0.535000 0.604300
vn -0.999800 0.004700 -0.018700
vn -0.997700 -0.067700 -0.007900
vn -0.759300 0.372700 0.533400
vn 0.096300 0.701100 0.706400
vn -0.103900 -0.071200 0.992000
vn 0.175000 0.929800 0.323800
vn -0.446000 0.830700 0.333300
vn -0.238000 0.840100 0.487400
vn -0.846100 0.443500 0.295500
vn -0.431400 0.594700 0.678300
vn -0.967800 0.220300 0.121500
vn -0.776500 -0.623200 -0.093100
vn -0.749500 0.202600 -0.630200
vn -0.722500 -0.478200 -0.499300
vn 0.277100 0.138600 -0.950800
vn -0.039800 0.270700 -0.961800
vn 0.819700 0.100200 -0.563900
vn 0.060400 0.203800 -0.977100
vn 0.987600 -0.151500 0.040500
vn 0.984500 0.122100 0.125800
vn 0.787100 0.246500 -0.565400
vn 0.932400 -0.256300 0.254700
vn 0.963200 -0.210700 -0.167000
vn 0.865400 0.182700 -0.466500
vn 0.252900 0.316400 -0.914300
vn 0.664900 -0.723400 -0.185800
vn 0.899300 -0.433900 -0.053500
vn -0.041800 -0.974900 -0.218800
vn 0.027900 -0.687800 0.725300
vn 0.604100 -0.477500 0.638100
vn 0.769500 0.392200 0.504000
vn 0.650300 -0.042700 0.758400
vn 0.217800 0.817700 0.532800
vn 0.681200 0.609500 0.405500
vn 0.754600 -0.557600 0.345800
vn 0.269100 -0.611600 0.744000
vn -0.701800 -0.409000 0.583200
vn -0.626800 -0.765800 -0.143400
vn -0.041300 -0.971000 -0.235400
vn -0.205500 -0.598800 0.774000
vn 0.409000 -0.038500 0.911700
vn 0.905100 -0.420500 0.063000
vn 0.745700 -0.382900 0.545300
vn 0.766400 -0.202000 0.609800
vn 0.432100 0.286500 0.855000
vn 0.510600 -0.083700 0.855700
vn 0.197400 -0.011900 0.980200
vn 0.050200 -0.251800 0.966400
vn -0.093600 -0.024700 0.995300
vn 0.195100 0.297300 0.934600
vn -0.209900 -0.208800 0.955100
vn -0.092000 -0.232800 0.968200
vn -0.050800 -0.153400 0.986800
vn -0.201800 -0.162000 0.965900
vn -0.241100 -0.115600 0.963600
vn -0.308400 -0.076400 0.948200
vn -0.503200 -0.044300 0.863000
vn -0.387600 0.065600 0.919500
vn -0.416400 -0.154800 0.895900
vn -0.543800 -0.124800 0.829900
vn -0.169100 -0.134500 0.976300
vn -0.490000 -0.281900 0.824900
vn -0.226000 -0.477700 0.848900
vn -0.067600 -0.433100 0.898800
vn 0.775700 -0.150800 0.612800
vn 0.994100 -0.068100 0.084500
vn 0.930100 -0.329000 0.163100
vn 0.801100 -0.021500 -0.598100
vn 0.993100 -0.107100 0.046800
vn 0.820000 0.046500 -0.570500
vn 0.822500 -0.176200 0.540800
vn 0.013100 -0.202700 0.979200
vn 0.689800 -0.528800 0.494400
vn 0.064500 -0.199900 0.977700
vn -0.010600 -0.590500 0.806900
vn -0.063000 -0.745400 0.663600
vn -0.714900 -0.353100 0.603500
vn 0.593400 -0.597300 0.539400
vn 0.972400 -0.230700 -0.033700
vn 0.966700 -0.255200 -0.015400
vn 0.772500 -0.196700 -0.603800
vn 0.965600 0.020800 -0.259200
vn 0.847000 -0.165100 0.505300
vn 0.043000 -0.326800 0.944100
vn -0.808300 -0.377300 0.452000
vn -0.999300 -0.037900 -0.004100
vn -0.766200 -0.090500 0.636100
vn -0.765400 -0.170500 0.620500
vn -0.834600 -0.145900 0.531100
vn -0.988700 -0.014600 -0.148800
vn -0.997100 -0.059300 -0.047300
vn -0.889700 -0.033100 0.455300
vn -0.996600 0.065300 0.049400
vn -0.885600 -0.140000 0.442900
vn -0.725400 -0.271800 0.632300
vn -0.489000 0.010500 0.872200
vn -0.420300 -0.543100 0.726800
vn -0.484000 -0.669200 0.563700
vn -0.154600 -0.984400 -0.083400
vn -0.997400 -0.059800 0.040200
vn -0.896800 -0.110300 -0.428500
vn -0.901500 0.082900 -0.424600
vn 0.986600 0.009000 -0.162600
vn 0.620900 -0.024200 -0.783500
vn 0.447100 0.886200 -0.121100
vn 0.857900 0.487700 -0.161600
vn 0.951400 0.162400 -0.261800
vn -0.288800 0.112000 0.950800
vn -0.860400 -0.115400 0.496300
vn -0.876900 -0.042100 0.478700
vn -0.701100 0.135300 0.700100
vn -0.454500 0.573900 0.681100
vn -0.930200 0.366600 0.016500
vn -0.971000 0.145800 -0.189300
vn -0.971700 -0.035400 -0.233600
vn -0.945300 -0.225900 0.235300
vn -0.873800 -0.483700 -0.049700
vn -0.905300 0.118800 0.407800
vn -0.181900 0.973000 0.141800
vn 0.100500 0.994100 0.039300
vn 0.943100 0.280100 -0.179100
vn 0.311800 0.946000 -0.088200
vn 0.101600 0.831000 -0.546900
vn 0.909300 -0.202800 -0.363400
vn 0.939200 -0.325400 -0.109300
vn 0.880200 -0.044800 -0.472400
vn 0.882300 -0.454900 -0.120900
vn 0.775000 -0.536000 -0.334600
vn 0.814900 -0.519900 -0.256100
vn 0.614800 -0.226400 -0.755500
vn 0.164000 0.561800 -0.810800
vn -0.649000 0.760400 0.023400
vn -0.347800 0.893300 -0.284500
vn -0.014600 0.993400 -0.113400
vn 0.310800 0.571900 -0.759100
vn 0.393100 -0.420700 -0.817600
vn 0.468800 0.499300 -0.728700
vn 0.271400 -0.425900 -0.863100
vn 0.022300 -0.490900 -0.870900
vn -0.141500 -0.989500 0.029600
vn 0.373400 -0.914500 -0.155200
vn 0.002000 -0.888400 0.459100
vn 0.233300 -0.416400 0.878700
vn 0.954400 -0.243900 0.172000
vn 0.373500 0.926100 -0.051900
vn 0.267900 0.623000 0.734900
vn -0.024300 0.840600 0.541100
vn -0.474300 0.836600 0.274100
vn -0.152700 0.817400 0.555300
vn -0.697200 0.641300 0.320400
vn -0.261600 0.758900 0.596200
vn 0.596300 0.796700 -0.098200
vn -0.799700 0.456900 0.389300
vn -0.625000 0.467200 0.625400
vn -0.864600 0.438400 0.245400
vn -0.948800 -0.116200 0.293700
vn -0.918100 0.308300 0.249100
vn -0.453500 0.880900 0.135100
vn -0.746600 0.627300 0.221200
vn -0.952100 -0.158500 0.261600
vn -0.733300 -0.663400 0.149000
vn -0.897700 -0.351100 0.266200
vn -0.239100 -0.948100 0.209800
vn 0.651500 -0.758600 0.004900
vn 0.581200 -0.813600 0.017500
vn -0.347400 -0.780000 -0.520500
vn 0.192000 -0.657100 -0.728900
vn -0.039700 -0.980200 -0.193800
vn -0.682300 0.322100 -0.656200
vn -0.206900 0.139500 -0.968400
vn -0.145100 -0.064900 -0.987300
vn 0.216700 -0.217000 -0.951800
vn -0.125900 0.301300 -0.945100
vn 0.142200 0.283600 -0.948300
vn -0.378500 -0.015200 -0.925400
vn -0.567300 0.515900 -0.641800
vn -0.256300 0.515400 -0.817700
vn -0.486400 0.865000 -0.123400
vn -0.008100 0.635700 -0.771900
vn -0.199400 0.979500 0.028700
vn 0.101600 0.736800 -0.668400
vn 0.038000 0.253500 -0.966600
vn -0.015500 0.200500 -0.979600
vn 0.083400 0.109100 -0.990500
vn 0.014400 0.098300 -0.995000
vn 0.486900 -0.116300 -0.865600
vn -0.123200 0.016000 -0.992200
vn -0.145400 0.155700 -0.977000
vn -0.153500 -0.184600 -0.970700
vn -0.000500 0.031400 -0.999500
vn -0.021900 0.287900 -0.957400
vn 0.743200 -0.160100 -0.649600
vn -0.112400 0.124700 -0.985800
vn 0.743900 0.270800 -0.611000
vn 0.678300 -0.509000 -0.529800
vn 0.062000 -0.150800 -0.986600
vn 0.983900 -0.178400 0.009200
vn 0.170300 0.573400 0.801400
vn 0.825800 0.460200 0.325800
vn 0.201600 0.824700 0.528400
vn 0.962200 0.191100 0.194100
vn 0.759700 0.239400 0.604600
vn -0.124900 0.825600 0.550200
vn -0.293600 0.724400 0.623700
vn -0.405000 0.768900 0.494700
vn -0.734900 0.573600 0.361800
vn -0.798700 0.542100 0.261100
vn -0.827100 -0.124100 0.548100
vn -0.723100 0.421300 0.547300
vn -0.035600 0.575300 0.817100
vn -0.992100 0.096800 -0.079100
vn -0.990500 0.083500 -0.109300
vn -0.794300 0.272800 -0.542800
vn -0.980800 -0.170700 -0.094300
vn -0.897900 0.130700 -0.420300
vn -0.805300 0.258500 -0.533500
vn -0.048300 0.285500 -0.957100
vn -0.634400 0.211100 -0.743600
vn -0.638400 0.042600 -0.768500
vn -0.752000 -0.009200 -0.659100
vn -0.636200 0.117100 -0.762600
vn -0.553000 0.048600 -0.831700
vn -0.992200 0.071000 -0.102600
vn -0.639100 -0.384700 -0.665900
vn -0.060500 0.484600 -0.872600
vn -0.813100 -0.514700 -0.271800
vn -0.102500 -0.906200 -0.410200
vn -0.074100 -0.923800 -0.375600
vn 0.415400 -0.850100 -0.323600
vn 0.718300 -0.655200 -0.233800
vn 0.578000 -0.618900 0.531800
vn -0.338300 -0.659900 0.670900
vn -0.315200 0.625100 0.714000
vn -0.734300 -0.454900 0.503800
vn -0.870100 -0.452400 -0.195200
vn -0.056000 0.641600 -0.765000
vn 0.098400 0.884600 -0.455700
vn -0.351100 0.829000 0.435200
vn -0.219800 0.975500 -0.007400
vn 0.188800 0.944100 -0.270000
vn 0.445800 0.893900 -0.045800
vn 0.504200 0.676900 0.536200
vn 0.302000 0.949400 0.086000
vn 0.475100 0.741600 0.473500
vn 0.300000 0.943100 0.143300
vn 0.855900 0.468900 0.218200
vn 0.711400 -0.030200 0.702200
vn 0.996500 0.065300 -0.052400
vn 0.780800 0.280800 -0.558100
vn 0.281600 0.315700 -0.906100
vn 0.846900 0.010300 -0.531600
vn 0.952600 -0.191000 0.236700
vn 0.779700 -0.238100 0.579100
vn 0.522100 -0.346300 0.779400
vn 0.098500 0.145300 0.984400
vn 0.756300 0.235500 0.610300
vn 0.946300 -0.167200 -0.276600
vn 0.525400 -0.286700 -0.801000
vn 0.188500 0.106300 -0.976300
vn -0.102700 -0.500700 -0.859500
vn -0.526500 0.105400 -0.843600
vn 0.992300 -0.108600 -0.059800
vn 0.596900 -0.700300 -0.391300
vn 0.256300 -0.935500 -0.243000
vn -0.159200 -0.880600 -0.446200
vn -0.740100 -0.468100 -0.482700
vn -0.978500 -0.035600 -0.202900
vn -0.812900 -0.214900 0.541200
vn 0.194300 -0.847500 0.494000
vn 0.587500 -0.609200 0.532600
vn 0.675300 0.051800 0.735700
vn 0.236300 -0.478800 0.845500
vn -0.288700 -0.270500 0.918400
vn -0.993300 -0.112800 -0.024700
vn -0.714900 0.145400 0.684000
vn -0.134700 -0.983600 -0.119900
vn -0.739200 -0.397500 -0.543600
vn -0.678800 -0.630400 -0.376500
vn -0.701000 0.701500 0.128100
vn -0.956600 0.290400 -0.022600
vn -0.797900 0.588800 -0.129200
vn -0.872700 -0.306400 -0.379900
vn -0.834100 0.507800 0.215300
vn 0.304200 -0.931100 0.201400
vn -0.806300 -0.577300 -0.128400
vn 0.108900 0.169300 0.979500
vn 0.893700 0.403900 0.195200
vn 0.968200 -0.248600 0.027300
vn 0.911600 -0.366800 -0.185200
vn -0.866500 -0.245800 -0.434300
vn 0.572900 0.506300 0.644500
vn 0.511600 -0.255100 0.820500
vn 0.915400 -0.328900 -0.231900
vn 0.631300 -0.409800 -0.658300
vn -0.448400 -0.089200 -0.889300
vn -0.290500 -0.926000 -0.241100
vn -0.310100 -0.950700 0.006900
vn 0.007000 -0.080000 0.996800
vn 0.377200 0.841300 0.387100
vn 0.763600 0.562400 0.317100
vn 0.148100 0.861400 0.485800
vn -0.504900 0.759100 0.410700
vn -0.194600 0.932200 0.305000
vn -0.306900 0.791200 0.529000
vn 0.197700 0.647500 0.736000
vn -0.750400 0.106800 0.652300
vn -0.475100 -0.840500 -0.260300
vn 0.640800 -0.028400 0.767100
vn 0.960700 0.173200 0.217000
vn 0.769700 0.348700 -0.534700
vn 0.820600 -0.518000 -0.241200
vn -0.171000 0.902800 0.394500
vn -0.238600 0.959500 -0.149600
vn 0.555100 -0.089800 0.826900
vn 0.573400 0.166600 0.802100
vn -0.794100 0.232400 0.561600
vn -0.670500 0.576200 0.467400
vn 0.359200 0.576800 0.733600
vn -0.513500 0.815900 0.265500
vn 0.526700 0.833400 0.167000
vn 0.922500 0.313200 0.225700
vn 0.425700 0.836600 -0.344700
vn 0.736500 0.329500 -0.590800
vn -0.752400 0.644200 -0.137200
vn -0.552700 0.538500 -0.636000
vn 0.801800 -0.128400 -0.583600
vn 0.899500 -0.425200 -0.100300
vn 0.470900 -0.405000 -0.783700
vn -0.652100 -0.120900 -0.748400
vn 0.627800 -0.748900 0.212000
vn 0.642100 -0.763600 0.067600
vn -0.320000 -0.331700 0.887400
vn -0.088200 -0.087800 0.992200
vn -0.514900 -0.672900 0.531000
vn 0.003700 -0.564700 0.825300
vn 0.016900 -0.017900 0.999700
vn -0.506100 0.167300 0.846100
vn -0.505600 -0.090900 0.857900
vn -0.625600 0.477000 0.617300
vn -0.456400 0.597400 0.659400
vn -0.287000 0.087600 0.953900
vn -0.213400 0.081500 0.973500
vn 0.762800 -0.272000 0.586500
vn -0.447100 -0.367700 0.815400
vn 0.612600 -0.390200 0.687300
vn 0.928900 -0.341500 0.143100
vn 0.921800 -0.293500 0.253000
vn 0.771300 0.106100 -0.627500
vn -0.868400 -0.061500 -0.492000
vn -0.642800 0.557000 -0.525800
vn -0.756700 -0.245800 0.605700
vn -0.564000 -0.331200 -0.756400
vn 0.657800 -0.380000 -0.650200
vn 0.722800 -0.591500 -0.357200
vn 0.948900 -0.250200 -0.192400
vn -0.299300 -0.951800 0.067800
vn 0.567000 -0.810800 -0.145500
vn 0.448300 -0.800800 -0.397300
vn 0.722000 -0.572100 -0.389000
vn 0.104600 -0.431100 0.896200
vn -0.284300 -0.950100 0.127900
vn 0.685600 -0.543300 -0.484500
vn -0.368900 -0.929400 -0.006200
vn 0.142700 -0.682400 -0.716900
vn -0.436000 -0.897200 0.069700
vn -0.211800 -0.469100 -0.857400
vn 0.380200 -0.363300 -0.850600
vn 0.846000 -0.296700 -0.442900
vn 0.938700 -0.343400 -0.030600
vn 0.602900 -0.687400 -0.404900
vn 0.615300 0.267600 0.741400
vn 0.387000 0.815400 -0.430500
vn 0.446200 0.141200 -0.883700
vn 0.450600 0.761700 -0.465600
vn 0.883800 -0.347800 -0.312900
vn 0.118000 0.169200 -0.978500
vn -0.026700 -0.125400 -0.991700
vn -0.342300 -0.915100 0.213200
vn -0.438600 -0.201000 0.875900
vn -0.927500 -0.109600 0.357200
vn -0.809600 -0.108600 0.576800
vn -0.225800 0.320400 0.919900
vn 0.487900 -0.872600 -0.019700
vn 0.425500 -0.075700 0.901800
vn 0.594100 0.516300 0.616700
vn 0.073500 0.822700 0.563600
vn -0.448000 -0.505700 0.737200
vn 0.984700 0.046800 -0.167800
vn 0.630100 -0.572900 -0.524200
vn 0.843800 0.520200 0.131600
vn 0.913100 0.379900 0.147500
vn 0.989500 0.132000 0.058500
vn 0.279500 0.531400 0.799600
vn 0.590200 0.761900 0.266800
vn 0.006400 -0.248800 -0.968500
vn 0.373000 0.754200 0.540500
vn -0.724100 -0.085100 0.684400
vn -0.047500 -0.086900 0.995100
vn 0.678700 0.306100 0.667500
s 1
f 5/1/1 10/2/2 25/3/3
f 18/4/4 28/5/5 10/2/2
f 14/6/6 5/1/1 12/7/7
f 14/6/6 6/8/8 18/4/4
f 14/6/6 18/4/4 10/2/2
f 18/4/4 6/8/8 11/9/9
f 11/9/9 6/8/8 32/10/10
f 6/8/8 20/11/11 32/10/10
f 32/10/10 20/11/11 26/12/12
f 34/13/13 33/14/14 35/15/15
f 34/13/13 20/11/11 19/16/16
f 34/13/13 35/15/15 26/12/12
f 26/12/12 24/17/17 17/18/18
f 24/17/17 36/19/19 30/20/20
f 17/18/18 32/10/10 26/12/12
f 17/18/18 11/9/9 32/10/10
f 17/18/18 27/21/21 11/9/9
f 18/4/4 29/22/22 28/5/5
f 29/22/22 18/4/4 11/9/9
f 27/21/21 7/23/23 15/24/24
f 9/25/25 16/26/26 13/27/27
f 16/26/26 8/28/28 3/29/29
f 15/24/24 7/23/23 8/28/28
f 16/26/26 9/25/25 4/30/30
f 4/30/30 28/5/5 29/22/22
f 1/31/31 14/6/6 12/7/7
f 14/6/6 1/31/31 6/8/8
f 19/16/16 20/11/11 6/8/8
f 35/15/15 36/19/19 24/17/17
f 30/20/20 36/19/19 37/32/32
f 30/20/20 21/33/33 17/18/18
f 7/23/23 27/21/21 17/18/18
f 7/23/23 21/33/33 23/34/34
f 2/35/35 38/36/36 41/37/37
f 40/38/38 9/39/25 2/35/35
f 2/40/35 13/27/27 38/41/36
f 3/29/29 38/41/36 13/27/27
f 3/29/29 39/42/39 38/41/36
f 3/29/29 8/28/28 23/34/34
f 9/39/25 40/38/38 42/43/40
f 42/43/40 31/44/41 28/5/5
f 31/44/41 25/3/3 10/2/2
f 33/14/14 37/32/32 35/15/15
f 37/32/32 36/19/19 35/15/15
f 25/45/3 31/46/41 40/47/38
f 22/48/42 25/49/3 33/50/14
f 22/48/42 34/51/13 19/52/16
f 1/53/31 12/54/7 5/55/1
f 44/56/43 337/57/44 56/58/45
f 44/56/43 56/58/45 174/59/46
f 56/58/45 206/60/47 251/61/48
f 174/62/46 251/63/48 208/64/49
f 173/65/50 59/66/51 208/67/49
f 59/66/51 67/68/52 212/69/53
f 67/68/52 59/66/51 385/70/54
f 59/66/51 47/71/55 381/72/56
f 381/72/56 51/73/57 63/74/58
f 381/72/56 420/75/59 334/76/60
f 420/75/59 381/72/56 47/71/55
f 332/77/61 47/71/55 169/78/62
f 47/71/55 59/66/51 173/65/50
f 173/79/50 55/80/63 43/81/64
f 43/81/64 330/82/65 349/83/66
f 43/81/64 55/80/63 336/84/67
f 336/84/67 55/80/63 144/85/68
f 144/85/68 55/80/63 206/86/47
f 206/86/47 55/80/63 173/79/50
f 56/58/45 339/87/69 145/88/70
f 145/88/70 239/89/71 206/60/47
f 145/88/70 341/90/72 153/91/73
f 507/92/74 508/93/75 157/94/76
f 153/91/73 243/95/77 239/89/71
f 152/96/78 144/85/68 239/97/71
f 340/98/79 338/99/80 144/85/68
f 148/100/81 154/101/82 241/102/83
f 154/101/82 148/100/81 338/99/80
f 148/100/81 123/103/84 336/84/67
f 111/104/85 330/82/65 336/84/67
f 111/104/85 179/105/86 349/83/66
f 115/106/87 332/77/61 349/107/66
f 332/77/61 115/106/87 406/108/88
f 406/108/88 410/109/89 119/110/90
f 410/109/89 265/111/91 116/112/92
f 406/108/88 115/106/87 265/111/91
f 115/106/87 179/113/86 277/114/93
f 179/105/86 111/104/85 263/115/94
f 123/103/84 279/116/95 269/117/96
f 263/115/94 111/104/85 123/103/84
f 263/115/94 269/117/96 124/118/97
f 124/118/97 269/117/96 279/116/95
f 270/119/98 279/120/95 125/121/99
f 279/120/95 270/119/98 126/122/100
f 270/119/98 264/123/101 114/124/102
f 125/121/99 113/125/103 264/123/101
f 113/125/103 177/126/104 276/127/105
f 331/128/106 348/129/107 177/126/104
f 177/130/104 348/131/107 333/132/108
f 333/132/108 348/131/107 170/133/109
f 44/56/43 331/128/106 337/57/44
f 331/128/106 44/56/43 170/134/109
f 337/57/44 125/121/99 150/135/110
f 337/57/44 331/128/106 113/125/103
f 125/121/99 279/120/95 150/135/110
f 279/120/95 241/136/83 150/135/110
f 241/136/83 244/137/111 150/135/110
f 150/135/110 244/137/111 155/138/112
f 501/139/113 159/140/114 511/141/115
f 155/138/112 244/137/111 504/142/116
f 244/143/111 241/102/83 154/101/82
f 502/144/117 158/145/118 246/146/119
f 162/147/120 248/148/121 246/146/119
f 248/149/121 163/150/122 159/140/114
f 495/151/123 250/152/124 165/153/125
f 165/153/125 347/154/126 498/155/127
f 481/156/128 478/157/129 395/158/130
f 395/158/130 450/159/131 168/160/132
f 478/157/129 479/161/133 450/159/131
f 168/160/132 450/159/131 408/162/134
f 494/163/135 164/164/136 250/165/124
f 494/163/135 162/166/120 344/167/137
f 162/147/120 158/145/118 342/168/138
f 344/169/137 342/168/138 156/170/139
f 506/171/140 340/98/79 152/96/78
f 157/94/76 245/172/141 505/173/142
f 505/174/142 503/175/143 152/96/78
f 245/176/141 247/177/144 160/178/145
f 500/179/146 497/180/147 344/167/137
f 477/181/148 464/182/149 456/183/150
f 157/94/76 345/184/151 161/185/152
f 247/186/144 245/172/141 157/94/76
f 347/154/126 460/187/153 499/188/154
f 481/156/128 455/189/155 461/190/156
f 166/191/157 465/192/158 456/183/150
f 465/192/158 167/193/159 408/194/134
f 408/162/134 450/159/131 479/161/133
f 483/195/160 482/196/161 456/183/150
f 345/184/151 157/94/76 343/197/162
f 509/198/163 508/93/75 153/91/73
f 509/198/163 153/91/73 341/90/72
f 511/141/115 159/140/114 343/197/162
f 163/150/122 345/184/151 343/197/162
f 502/144/117 154/101/82 340/98/79
f 339/87/69 337/57/44 150/135/110
f 339/87/69 341/90/72 145/88/70
f 339/87/69 150/135/110 155/138/112
f 337/57/44 339/87/69 56/58/45
f 241/102/83 279/116/95 123/103/84
f 60/199/164 380/200/165 48/201/166
f 48/201/166 170/133/109 174/62/46
f 380/200/165 335/202/167 419/203/168
f 419/203/168 333/132/108 48/201/166
f 405/204/169 117/205/170 333/132/108
f 409/206/171 405/204/169 121/207/172
f 409/206/171 118/208/173 266/209/174
f 266/209/174 117/205/170 405/204/169
f 276/210/105 177/130/104 117/205/170
f 266/209/174 118/208/173 178/211/175
f 178/211/175 118/208/173 305/212/176
f 404/213/177 118/214/173 409/215/171
f 418/216/178 305/217/176 118/214/173
f 379/218/179 418/216/178 307/219/180
f 379/218/179 49/220/181 305/217/176
f 49/221/181 171/222/182 314/223/183
f 45/224/184 309/225/185 303/226/186
f 45/224/184 303/226/186 314/227/183
f 303/226/186 114/124/102 178/228/175
f 114/124/102 264/123/101 276/127/105
f 309/225/185 151/229/187 126/122/100
f 126/122/100 114/124/102 303/226/186
f 151/229/187 242/230/188 230/231/189
f 230/232/189 242/233/188 149/234/190
f 242/233/188 254/235/191 183/236/192
f 184/237/193 151/229/187 313/238/194
f 184/237/193 254/239/191 242/230/188
f 254/239/191 184/237/193 188/240/195
f 317/241/196 184/237/193 313/238/194
f 317/241/196 319/242/197 188/240/195
f 321/243/198 319/242/197 185/244/199
f 321/243/198 192/245/200 188/240/195
f 192/245/200 258/246/201 256/247/202
f 256/248/202 258/249/201 191/250/203
f 191/251/203 258/252/201 260/253/204
f 258/254/201 192/255/200 196/256/205
f 323/257/206 321/258/198 189/259/207
f 323/260/206 196/256/205 192/255/200
f 189/261/207 321/243/198 185/244/199
f 189/261/207 185/244/199 255/262/208
f 255/262/208 185/244/199 181/263/209
f 319/242/197 317/241/196 181/263/209
f 146/264/210 313/238/194 57/265/211
f 181/263/209 317/241/196 313/238/194
f 181/263/209 146/264/210 240/266/212
f 146/264/210 57/265/211 207/267/213
f 57/265/211 175/268/214 252/269/215
f 45/224/184 57/265/211 309/225/185
f 45/224/184 171/270/182 175/268/214
f 171/222/182 49/221/181 61/271/216
f 383/272/217 379/218/179 53/273/218
f 383/272/217 61/274/216 49/220/181
f 383/272/217 397/275/219 95/276/220
f 95/276/220 222/277/221 209/278/222
f 209/279/222 252/280/215 175/281/214
f 209/282/222 62/283/223 176/284/224
f 62/285/223 209/286/222 222/287/221
f 222/287/221 224/288/225 100/289/226
f 512/290/227 103/291/228 519/292/229
f 224/293/225 222/277/221 95/276/220
f 95/276/220 397/275/219 399/294/230
f 397/275/219 97/295/231 101/296/232
f 383/272/217 53/273/218 65/297/233
f 65/297/233 97/295/231 397/275/219
f 65/297/233 328/298/234 211/299/235
f 211/299/235 223/300/236 97/295/231
f 223/300/236 225/301/237 101/296/232
f 514/302/238 225/301/237 521/303/239
f 514/302/238 513/304/240 101/296/232
f 513/304/240 515/305/241 399/294/230
f 401/306/242 103/291/228 512/290/227
f 107/307/243 403/308/244 411/309/245
f 403/308/244 107/307/243 103/291/228
f 519/310/229 517/311/246 224/288/225
f 103/312/228 107/313/243 228/314/247
f 107/313/243 411/315/245 281/316/248
f 107/313/243 281/316/248 294/317/249
f 281/316/248 369/318/250 371/319/251
f 369/318/250 281/316/248 372/320/252
f 281/316/248 411/315/245 429/321/253
f 411/309/245 283/322/254 373/323/255
f 359/324/256 423/325/257 429/326/253
f 423/327/257 357/328/258 372/320/252
f 427/329/259 360/330/260 365/331/261
f 427/332/259 365/333/261 357/328/258
f 365/333/261 362/334/262 356/335/263
f 362/336/262 425/337/264 426/338/265
f 425/337/264 360/330/260 361/339/266
f 362/336/262 365/331/261 360/330/260
f 361/340/266 364/341/267 363/342/268
f 364/341/267 361/340/266 360/343/260
f 364/344/267 427/345/259 423/325/257
f 359/324/256 358/346/269 363/347/268
f 376/348/270 375/349/271 358/346/269
f 359/324/256 373/323/255 376/348/270
f 373/323/255 283/322/254 368/350/272
f 287/351/273 413/352/274 375/349/271
f 375/349/271 376/348/270 368/350/272
f 368/350/272 370/353/275 297/354/276
f 283/322/254 295/355/277 370/353/275
f 370/353/275 295/355/277 282/356/278
f 282/356/278 295/355/277 229/357/279
f 295/355/277 283/322/254 109/358/280
f 109/358/280 283/322/254 411/309/245
f 109/358/280 403/308/244 401/306/242
f 105/359/281 227/360/282 229/357/279
f 227/360/282 106/361/283 110/362/284
f 428/363/285 108/364/286 280/365/287
f 520/366/288 518/367/289 400/368/290
f 98/369/291 396/370/292 398/371/293
f 396/370/292 96/372/294 100/289/226
f 382/373/295 62/285/223 96/372/294
f 382/373/295 378/374/296 50/375/297
f 382/373/295 66/376/298 54/377/299
f 66/376/298 382/373/295 396/370/292
f 98/369/291 223/300/236 211/299/235
f 211/299/235 328/298/234 310/378/300
f 310/378/300 306/379/301 54/377/299
f 310/378/300 127/380/302 120/381/303
f 407/382/304 417/383/305 306/379/301
f 378/374/296 54/377/299 306/379/301
f 417/383/305 304/384/306 50/375/297
f 407/382/304 410/385/89 116/386/92
f 116/386/92 304/384/306 417/383/305
f 304/387/306 116/112/92 180/388/307
f 265/111/91 277/114/93 180/388/307
f 277/389/93 263/115/94 112/390/308
f 112/390/308 302/391/309 315/392/310
f 112/390/308 124/118/97 308/393/311
f 308/393/311 124/118/97 149/234/190
f 312/394/312 149/234/190 183/236/192
f 316/395/313 183/236/192 187/396/314
f 187/396/314 183/236/192 254/235/191
f 187/396/314 191/250/203 320/397/315
f 320/398/315 191/251/203 195/399/316
f 195/399/316 199/400/317 324/401/318
f 195/399/316 260/253/204 467/402/319
f 203/403/320 452/404/321 447/405/322
f 492/406/323 467/407/319 200/408/324
f 489/409/325 453/410/326 447/405/322
f 489/409/325 488/411/327 448/412/328
f 491/413/329 448/412/328 488/411/327
f 193/414/330 323/260/206 189/259/207
f 193/414/330 197/415/331 325/416/332
f 261/417/333 259/418/334 194/419/335
f 261/417/333 197/415/331 193/414/330
f 193/414/330 189/259/207 257/420/336
f 190/421/337 194/419/335 259/418/334
f 194/419/335 190/421/337 320/398/315
f 186/422/338 318/423/339 320/397/315
f 186/422/338 182/424/340 316/395/313
f 147/425/341 312/394/312 316/395/313
f 147/425/341 58/426/342 308/393/311
f 46/427/343 302/391/309 308/393/311
f 46/427/343 172/428/344 315/392/310
f 50/429/297 304/387/306 315/430/310
f 172/431/344 176/284/224 62/283/223
f 46/427/343 58/426/342 176/432/224
f 207/267/213 252/433/215 176/432/224
f 147/425/341 240/266/212 207/267/213
f 182/424/340 253/434/345 240/266/212
f 182/424/340 186/422/338 255/262/208
f 190/435/337 257/436/336 255/262/208
f 198/437/346 261/417/333 194/419/335
f 198/437/346 194/419/335 322/438/347
f 486/181/348 490/439/349 454/440/350
f 485/195/351 446/194/352 454/440/350
f 446/194/352 202/193/353 326/192/354
f 202/441/353 446/442/352 452/404/321
f 485/443/351 199/444/317 467/407/319
f 326/445/354 327/446/355 201/447/356
f 326/445/354 202/441/353 203/403/320
f 467/407/319 260/448/204 196/256/205
f 327/446/355 453/410/326 448/412/328
f 201/447/356 448/412/328 449/449/357
f 449/182/357 454/440/350 326/192/354
f 491/413/329 486/450/348 449/449/357
f 267/451/358 119/452/90 410/385/89
f 267/451/358 410/385/89 407/382/304
f 120/381/303 127/380/302 271/453/359
f 127/380/302 459/454/360 131/455/361
f 131/455/361 273/456/362 271/453/359
f 132/457/363 231/458/364 128/459/365
f 132/460/363 128/461/365 271/453/359
f 271/453/359 128/461/365 119/452/90
f 128/462/365 350/463/366 329/464/367
f 329/464/367 334/76/60 119/110/90
f 329/464/367 63/74/58 51/73/57
f 210/465/368 350/463/366 64/466/369
f 63/74/58 329/464/367 350/463/366
f 213/467/370 69/468/371 63/74/58
f 69/468/371 387/469/372 385/70/54
f 387/469/372 69/468/371 434/470/373
f 69/468/371 213/467/370 437/471/374
f 213/467/370 70/472/375 435/473/376
f 435/473/376 74/474/377 215/475/378
f 73/476/379 434/470/373 437/471/374
f 73/476/379 389/477/380 439/478/381
f 389/477/380 71/479/382 433/480/383
f 391/481/384 75/482/385 71/479/382
f 75/483/385 79/484/386 216/485/387
f 214/486/388 71/479/382 75/482/385
f 214/486/388 438/487/389 433/480/383
f 438/487/389 212/69/53 67/68/52
f 433/480/383 67/68/52 387/469/372
f 436/488/390 68/489/391 212/490/53
f 68/489/391 384/491/392 60/199/164
f 60/199/164 208/64/49 212/490/53
f 60/199/164 384/491/392 380/200/165
f 380/200/165 384/491/392 52/492/393
f 52/492/393 384/491/392 64/466/369
f 384/491/392 68/489/391 386/493/394
f 386/493/394 70/472/375 64/466/369
f 386/493/394 440/494/395 435/473/376
f 386/493/394 68/489/391 436/488/390
f 436/488/390 72/495/396 388/496/397
f 72/495/396 436/488/390 438/497/389
f 80/498/398 442/499/399 76/500/400
f 392/501/401 390/502/402 444/503/403
f 200/408/324 196/256/205 323/260/206
f 76/500/400 442/499/399 444/503/403
f 84/504/404 394/505/405 392/506/401
f 441/507/406 445/508/407 442/509/399
f 80/510/398 392/511/401 443/512/408
f 81/513/409 83/514/410 393/515/411
f 81/513/409 393/515/411 391/516/384
f 79/484/386 393/515/411 83/514/410
f 393/515/411 79/484/386 75/483/385
f 83/514/410 84/504/404 80/498/398
f 394/505/405 84/504/404 88/517/412
f 85/518/413 83/519/410 81/520/409
f 85/518/413 89/521/414 87/522/415
f 87/523/415 88/517/412 84/504/404
f 87/524/415 91/525/416 92/526/417
f 93/527/418 221/528/419 91/529/416
f 91/529/416 87/530/415 89/531/414
f 89/531/414 220/532/420 221/528/419
f 220/533/420 89/521/414 85/518/413
f 85/518/413 81/520/409 218/534/421
f 81/520/409 77/535/422 217/536/423
f 77/537/422 73/476/379 215/475/378
f 391/481/384 389/477/380 73/476/379
f 74/474/377 78/538/424 217/539/423
f 78/540/424 82/541/425 218/534/421
f 82/541/425 86/542/426 219/543/427
f 90/544/428 220/533/420 219/543/427
f 90/545/428 94/546/429 221/528/419
f 92/526/417 91/525/416 221/547/419
f 90/545/428 88/548/412 92/549/417
f 86/542/426 394/550/405 88/551/412
f 86/542/426 82/541/425 392/501/401
f 388/496/397 390/552/402 78/538/424
f 74/474/377 435/473/376 440/494/395
f 70/472/375 213/467/370 210/465/368
f 64/466/369 350/463/366 52/492/393
f 231/553/364 350/463/366 128/462/365
f 231/553/364 121/207/172 335/202/167
f 52/492/393 335/202/167 380/200/165
f 350/463/366 231/553/364 335/202/167
f 121/207/172 405/204/169 419/203/168
f 121/554/172 231/458/364 130/555/430
f 130/555/430 231/458/364 233/556/431
f 233/557/431 140/558/432 236/559/433
f 233/556/431 231/458/364 132/457/363
f 140/560/432 132/460/363 273/456/362
f 131/455/361 137/561/434 275/562/435
f 138/563/436 143/564/437 470/565/438
f 469/42/439 136/566/440 468/41/441
f 470/565/438 143/564/437 136/566/440
f 235/567/442 468/41/441 136/566/440
f 136/566/440 143/564/437 238/568/443
f 135/569/444 468/41/441 235/567/442
f 235/567/442 238/568/443 142/570/445
f 135/571/444 472/572/446 468/573/441
f 135/571/444 142/574/445 471/575/447
f 430/576/448 262/577/449 205/578/450
f 430/576/448 205/578/450 278/579/451
f 140/558/432 275/580/435 278/579/451
f 262/577/449 139/581/452 236/559/433
f 236/559/433 140/558/432 205/578/450
f 236/559/433 139/581/452 134/582/453
f 458/13/454 139/581/452 457/14/455
f 274/583/456 272/584/457 134/585/453
f 274/16/456 134/582/453 139/581/452
f 134/585/453 272/584/457 268/586/458
f 272/584/457 133/587/459 268/586/458
f 268/586/458 133/587/459 129/588/460
f 129/588/460 133/587/459 234/589/461
f 274/583/456 133/587/459 272/584/457
f 234/590/461 232/591/462 129/588/460
f 129/588/460 232/591/462 307/219/180
f 307/219/180 232/591/462 311/592/463
f 311/592/463 232/591/462 328/298/234
f 232/591/462 459/454/360 328/298/234
f 459/454/360 127/380/302 310/378/300
f 459/454/360 232/591/462 131/455/361
f 232/591/462 234/589/461 137/561/434
f 311/592/463 328/298/234 53/273/218
f 53/273/218 328/298/234 65/297/233
f 311/592/463 53/273/218 307/219/180
f 53/273/218 379/218/179 307/219/180
f 307/219/180 122/593/464 129/588/460
f 122/593/464 268/586/458 129/588/460
f 268/586/458 409/215/171 121/554/172
f 122/593/464 404/213/177 409/215/171
f 122/593/464 307/219/180 418/216/178
f 121/554/172 130/555/430 268/586/458
f 130/555/430 134/585/453 268/586/458
f 134/585/453 130/555/430 233/556/431
f 134/582/453 233/557/431 236/559/433
f 139/581/452 204/594/465 457/14/455
f 204/594/465 473/32/466 457/14/455
f 473/32/466 204/594/465 431/595/467
f 262/577/449 430/576/448 432/596/468
f 204/594/465 139/581/452 262/577/449
f 204/594/465 262/577/449 432/596/468
f 431/595/467 432/596/468 237/597/469
f 432/596/468 430/576/448 141/598/470
f 141/598/470 430/576/448 476/599/471
f 141/598/470 475/600/472 471/575/447
f 238/568/443 237/597/469 141/598/470
f 237/597/469 238/568/443 143/564/437
f 431/595/467 138/563/436 474/601/473
f 420/75/59 406/108/88 119/110/90
f 98/369/291 102/602/474 225/301/237
f 518/367/289 516/603/475 104/604/476
f 516/603/475 100/289/226 224/288/225
f 226/605/477 228/314/247 108/364/286
f 228/314/247 294/317/249 280/365/287
f 402/606/478 366/607/479 284/608/480
f 293/609/481 352/610/482 412/611/483
f 280/365/287 294/317/249 371/319/251
f 296/612/484 284/608/480 366/607/479
f 416/613/485 284/608/480 288/614/486
f 414/615/487 288/614/486 351/616/488
f 288/614/486 284/608/480 296/612/484
f 298/617/489 296/612/484 285/618/490
f 296/612/484 371/319/251 369/318/250
f 285/618/490 374/619/491 413/620/274
f 374/619/491 377/621/492 356/335/263
f 374/619/491 285/618/490 369/318/250
f 377/621/492 372/320/252 357/328/258
f 424/622/493 413/620/274 374/619/491
f 424/623/493 358/346/269 375/349/271
f 424/623/493 426/624/265 363/347/268
f 356/335/263 362/334/262 426/625/265
f 363/342/268 426/626/265 425/627/264
f 413/620/274 415/628/494 289/629/495
f 422/630/496 292/631/497 354/632/498
f 354/633/498 289/629/495 415/628/494
f 300/634/499 354/632/498 292/631/497
f 300/635/499 298/617/489 289/629/495
f 300/634/499 293/636/481 351/637/488
f 351/616/488 288/614/486 298/617/489
f 282/356/278 421/638/500 402/606/478
f 421/638/500 280/365/287 366/607/479
f 352/639/482 290/640/501 414/615/487
f 367/641/502 402/606/478 416/613/485
f 110/362/284 428/363/285 421/638/500
f 106/361/283 400/368/290 428/363/285
f 286/642/503 416/613/485 414/615/487
f 351/637/488 293/636/481 412/643/483
f 297/354/276 370/353/275 367/641/502
f 297/354/276 286/642/503 290/640/501
f 299/644/504 290/640/501 352/645/482
f 301/646/505 293/636/481 300/634/499
f 301/647/505 355/648/506 352/649/482
f 353/650/507 292/651/497 422/652/496
f 301/646/505 300/634/499 292/631/497
f 353/650/507 355/648/506 301/647/505
f 291/653/508 299/644/504 355/654/506
f 287/351/273 297/354/276 299/644/504
f 291/653/508 415/655/494 413/352/274
f 415/655/494 291/653/508 353/656/507
f 57/265/211 313/238/194 309/225/185
f 309/225/185 313/238/194 151/229/187
f 72/495/396 214/657/388 216/658/387
f 72/495/396 76/659/400 390/552/402
f 79/484/386 80/498/398 76/500/400
f 390/502/402 392/501/401 82/541/425
f 443/660/408 462/661/509 445/508/407
f 444/662/403 462/661/509 443/660/408
f 444/662/403 442/509/399 445/508/407
f 447/405/322 453/410/326 327/446/355
f 249/663/510 463/664/511 500/179/146
f 477/665/148 463/666/511 249/663/510
f 461/190/156 166/667/157 451/668/512
f 480/669/513 249/663/510 460/187/153
f 499/188/154 496/670/514 247/671/144
f 455/189/155 466/672/515 166/667/157
f 465/673/158 166/667/157 466/672/515
f 465/673/158 466/672/515 168/160/132
f 455/189/155 395/158/130 168/160/132
f 464/674/149 451/668/512 166/667/157
f 400/368/290 104/604/476 108/364/286
f 400/368/290 106/361/283 521/303/239
f 66/376/298 211/299/235 310/378/300
f 267/451/358 120/381/303 271/453/359
f 267/451/358 271/453/359 119/452/90
f 278/675/451 473/676/466 469/677/439
f 451/668/512 480/669/513 484/678/516
f 464/674/149 477/665/148 480/669/513
f 164/679/136 346/680/517 482/196/161
f 483/681/160 479/161/133 250/152/124
f 347/154/126 481/156/128 484/678/516
f 463/682/511 477/181/148 482/196/161
f 165/153/125 250/152/124 479/161/133
f 347/154/126 165/153/125 478/157/129
f 261/417/333 198/683/346 486/450/348
f 446/442/352 485/443/351 492/406/323
f 199/679/317 485/195/351 490/439/349
f 198/682/346 324/680/318 490/439/349
f 491/413/329 488/411/327 197/415/331
f 325/416/332 197/415/331 488/411/327
f 325/416/332 489/409/325 487/684/518
f 452/404/321 492/406/323 487/684/518
f 460/187/153 249/663/510 496/670/514
f 496/670/514 500/179/146 160/685/145
f 498/155/127 499/188/154 161/686/152
f 463/664/511 346/687/517 497/180/147
f 164/164/136 494/163/135 497/180/147
f 162/166/120 494/163/135 495/688/123
f 163/689/122 493/690/519 498/155/127
f 248/691/121 495/151/123 493/690/519
f 68/489/391 60/199/164 212/490/53
f 208/67/49 59/66/51 212/69/53
f 387/469/372 67/68/52 385/70/54
f 275/692/435 458/693/454 457/694/455
f 275/692/435 137/695/434 133/696/459
f 234/697/461 133/696/459 137/695/434
f 458/693/454 275/692/435 274/698/456
f 158/145/118 502/144/117 506/171/140
f 245/176/141 156/170/139 503/175/143
f 506/171/140 503/175/143 156/170/139
f 154/101/82 502/144/117 504/699/116
f 159/140/114 501/139/113 504/142/116
f 341/90/72 511/141/115 510/700/520
f 343/197/162 509/198/163 510/700/520
f 343/197/162 157/94/76 508/93/75
f 153/91/73 508/93/75 507/92/74
f 243/95/77 507/92/74 505/173/142
f 501/139/113 511/141/115 341/90/72
f 515/305/241 512/290/227 99/701/521
f 105/359/281 401/306/242 515/305/241
f 227/360/282 105/359/281 513/304/240
f 104/604/476 516/603/475 517/311/246
f 398/371/293 100/289/226 516/603/475
f 226/605/477 517/311/246 519/310/229
f 99/701/521 512/290/227 519/292/229
f 102/602/474 520/366/288 521/303/239
f 102/602/474 398/371/293 518/367/289
f 514/302/238 521/303/239 106/361/283
f 94/702/429 92/526/417 221/547/419
f 22/703/42 5/1/1 25/3/3
f 5/1/1 14/6/6 10/2/2
f 20/11/11 34/13/13 26/12/12
f 27/21/21 29/22/22 11/9/9
f 29/22/22 27/21/21 15/24/24
f 2/40/35 9/25/25 13/27/27
f 13/27/27 16/26/26 3/29/29
f 16/26/26 15/24/24 8/28/28
f 15/24/24 16/26/26 4/30/30
f 15/24/24 4/30/30 29/22/22
f 1/31/31 19/16/16 6/8/8
f 26/12/12 35/15/15 24/17/17
f 21/33/33 30/20/20 37/32/32
f 24/17/17 30/20/20 17/18/18
f 21/33/33 7/23/23 17/18/18
f 8/28/28 7/23/23 23/34/34
f 41/37/37 40/38/38 2/35/35
f 39/42/39 3/29/29 23/34/34
f 4/30/30 9/39/25 42/43/40
f 4/30/30 42/43/40 28/5/5
f 28/5/5 31/44/41 10/2/2
f 41/704/37 38/705/36 40/47/38
f 39/706/39 23/707/34 37/708/32
f 37/708/32 33/709/14 25/45/3
f 23/707/34 21/710/33 37/708/32
f 40/47/38 38/705/36 39/706/39
f 31/46/41 42/711/40 40/47/38
f 37/708/32 25/45/3 39/706/39
f 40/47/38 39/706/39 25/45/3
f 34/51/13 22/48/42 33/50/14
f 5/55/1 22/48/42 19/52/16
f 19/52/16 1/53/31 5/55/1
f 170/134/109 44/56/43 174/59/46
f 174/59/46 56/58/45 251/61/48
f 60/199/164 174/62/46 208/64/49
f 251/712/48 173/65/50 208/67/49
f 385/70/54 59/66/51 381/72/56
f 385/70/54 381/72/56 63/74/58
f 51/73/57 381/72/56 334/76/60
f 332/77/61 420/75/59 47/71/55
f 349/107/66 332/77/61 169/78/62
f 169/78/62 47/71/55 173/65/50
f 169/713/62 173/79/50 43/81/64
f 169/713/62 43/81/64 349/83/66
f 330/82/65 43/81/64 336/84/67
f 338/99/80 336/84/67 144/85/68
f 239/97/71 144/85/68 206/86/47
f 251/714/48 206/86/47 173/79/50
f 56/58/45 145/88/70 206/60/47
f 145/88/70 153/91/73 239/89/71
f 243/715/77 152/96/78 239/97/71
f 152/96/78 340/98/79 144/85/68
f 340/98/79 154/101/82 338/99/80
f 338/99/80 148/100/81 336/84/67
f 123/103/84 111/104/85 336/84/67
f 330/82/65 111/104/85 349/83/66
f 179/113/86 115/106/87 349/107/66
f 420/75/59 332/77/61 406/108/88
f 410/109/89 406/108/88 265/111/91
f 265/111/91 115/106/87 277/114/93
f 277/389/93 179/105/86 263/115/94
f 269/117/96 263/115/94 123/103/84
f 112/390/308 263/115/94 124/118/97
f 230/232/189 124/118/97 279/116/95
f 230/231/189 279/120/95 126/122/100
f 126/122/100 270/119/98 114/124/102
f 270/119/98 125/121/99 264/123/101
f 264/123/101 113/125/103 276/127/105
f 113/125/103 331/128/106 177/126/104
f 117/205/170 177/130/104 333/132/108
f 48/201/166 333/132/108 170/133/109
f 348/129/107 331/128/106 170/134/109
f 125/121/99 337/57/44 113/125/103
f 501/139/113 155/138/112 504/142/116
f 504/699/116 502/144/117 246/146/119
f 158/145/118 162/147/120 246/146/119
f 246/716/119 248/149/121 159/140/114
f 493/690/519 495/151/123 165/153/125
f 493/690/519 165/153/125 498/155/127
f 455/189/155 481/156/128 395/158/130
f 395/158/130 478/157/129 450/159/131
f 167/717/159 168/160/132 408/162/134
f 495/688/123 494/163/135 250/165/124
f 497/180/147 494/163/135 344/167/137
f 344/169/137 162/147/120 342/168/138
f 160/178/145 344/169/137 156/170/139
f 503/175/143 506/171/140 152/96/78
f 507/92/74 157/94/76 505/173/142
f 243/715/77 505/174/142 152/96/78
f 156/170/139 245/176/141 160/178/145
f 160/685/145 500/179/146 344/167/137
f 482/196/161 477/181/148 456/183/150
f 161/185/152 247/186/144 157/94/76
f 498/155/127 347/154/126 499/188/154
f 484/678/516 481/156/128 461/190/156
f 464/182/149 166/191/157 456/183/150
f 456/183/150 465/192/158 408/194/134
f 483/681/160 408/162/134 479/161/133
f 408/194/134 483/195/160 456/183/150
f 510/700/520 509/198/163 341/90/72
f 510/700/520 511/141/115 343/197/162
f 159/140/114 163/150/122 343/197/162
f 506/171/140 502/144/117 340/98/79
f 341/90/72 339/87/69 155/138/112
f 148/100/81 241/102/83 123/103/84
f 60/199/164 48/201/166 174/62/46
f 380/200/165 419/203/168 48/201/166
f 419/203/168 405/204/169 333/132/108
f 409/206/171 266/209/174 405/204/169
f 266/209/174 276/210/105 117/205/170
f 276/210/105 266/209/174 178/211/175
f 314/223/183 178/211/175 305/212/176
f 404/213/177 418/216/178 118/214/173
f 418/216/178 379/218/179 305/217/176
f 305/212/176 49/221/181 314/223/183
f 171/270/182 45/224/184 314/227/183
f 314/227/183 303/226/186 178/228/175
f 178/228/175 114/124/102 276/127/105
f 309/225/185 126/122/100 303/226/186
f 126/122/100 151/229/187 230/231/189
f 124/118/97 230/232/189 149/234/190
f 149/234/190 242/233/188 183/236/192
f 151/229/187 184/237/193 242/230/188
f 256/247/202 254/239/191 188/240/195
f 184/237/193 317/241/196 188/240/195
f 319/242/197 321/243/198 188/240/195
f 188/240/195 192/245/200 256/247/202
f 187/396/314 256/248/202 191/250/203
f 195/399/316 191/251/203 260/253/204
f 260/448/204 258/254/201 196/256/205
f 321/718/198 323/260/206 192/255/200
f 257/719/336 189/261/207 255/262/208
f 253/434/345 255/262/208 181/263/209
f 185/244/199 319/242/197 181/263/209
f 146/264/210 181/263/209 313/238/194
f 253/434/345 181/263/209 240/266/212
f 240/266/212 146/264/210 207/267/213
f 207/267/213 57/265/211 252/269/215
f 57/265/211 45/224/184 175/268/214
f 175/281/214 171/222/182 61/271/216
f 379/218/179 383/272/217 49/220/181
f 61/274/216 383/272/217 95/276/220
f 61/274/216 95/276/220 209/278/222
f 61/271/216 209/279/222 175/281/214
f 252/720/215 209/282/222 176/284/224
f 96/372/294 62/285/223 222/287/221
f 96/372/294 222/287/221 100/289/226
f 99/701/521 224/293/225 95/276/220
f 99/701/521 95/276/220 399/294/230
f 399/294/230 397/275/219 101/296/232
f 383/272/217 65/297/233 397/275/219
f 65/297/233 211/299/235 97/295/231
f 97/295/231 223/300/236 101/296/232
f 225/301/237 514/302/238 101/296/232
f 101/296/232 513/304/240 399/294/230
f 515/305/241 401/306/242 512/290/227
f 401/306/242 403/308/244 103/291/228
f 226/605/477 103/312/228 228/314/247
f 228/314/247 107/313/243 294/317/249
f 294/317/249 281/316/248 371/319/251
f 377/621/492 369/318/250 372/320/252
f 372/320/252 281/316/248 429/321/253
f 429/326/253 411/309/245 373/323/255
f 373/323/255 359/324/256 429/326/253
f 429/321/253 423/327/257 372/320/252
f 423/327/257 427/332/259 357/328/258
f 357/328/258 365/333/261 356/335/263
f 425/337/264 362/336/262 360/330/260
f 427/721/259 364/341/267 360/343/260
f 359/324/256 364/344/267 423/325/257
f 364/344/267 359/324/256 363/347/268
f 358/346/269 359/324/256 376/348/270
f 376/348/270 373/323/255 368/350/272
f 287/351/273 375/349/271 368/350/272
f 287/351/273 368/350/272 297/354/276
f 368/350/272 283/322/254 370/353/275
f 367/641/502 370/353/275 282/356/278
f 110/362/284 282/356/278 229/357/279
f 229/357/279 295/355/277 109/358/280
f 403/308/244 109/358/280 411/309/245
f 105/359/281 109/358/280 401/306/242
f 109/358/280 105/359/281 229/357/279
f 229/357/279 227/360/282 110/362/284
f 421/638/500 428/363/285 280/365/287
f 102/602/474 98/369/291 398/371/293
f 398/371/293 396/370/292 100/289/226
f 396/370/292 382/373/295 96/372/294
f 62/285/223 382/373/295 50/375/297
f 378/374/296 382/373/295 54/377/299
f 98/369/291 66/376/298 396/370/292
f 66/376/298 98/369/291 211/299/235
f 66/376/298 310/378/300 54/377/299
f 306/379/301 310/378/300 120/381/303
f 120/381/303 407/382/304 306/379/301
f 417/383/305 378/374/296 306/379/301
f 378/374/296 417/383/305 50/375/297
f 407/382/304 116/386/92 417/383/305
f 315/430/310 304/387/306 180/388/307
f 116/112/92 265/111/91 180/388/307
f 180/722/307 277/389/93 112/390/308
f 180/722/307 112/390/308 315/392/310
f 302/391/309 112/390/308 308/393/311
f 312/394/312 308/393/311 149/234/190
f 316/395/313 312/394/312 183/236/192
f 318/423/339 316/395/313 187/396/314
f 256/248/202 187/396/314 254/235/191
f 318/423/339 187/396/314 320/397/315
f 322/438/347 320/398/315 195/399/316
f 322/438/347 195/399/316 324/401/318
f 199/400/317 195/399/316 467/402/319
f 487/684/518 492/406/323 200/408/324
f 487/684/518 489/409/325 447/405/322
f 453/410/326 489/409/325 448/412/328
f 323/260/206 193/414/330 325/416/332
f 259/418/334 261/417/333 193/414/330
f 259/418/334 193/414/330 257/420/336
f 257/420/336 190/421/337 259/418/334
f 322/438/347 194/419/335 320/398/315
f 190/435/337 186/422/338 320/397/315
f 318/423/339 186/422/338 316/395/313
f 182/424/340 147/425/341 316/395/313
f 312/394/312 147/425/341 308/393/311
f 58/426/342 46/427/343 308/393/311
f 302/391/309 46/427/343 315/392/310
f 172/431/344 50/429/297 315/430/310
f 50/429/297 172/431/344 62/283/223
f 172/428/344 46/427/343 176/432/224
f 58/426/342 207/267/213 176/432/224
f 58/426/342 147/425/341 207/267/213
f 147/425/341 182/424/340 240/266/212
f 253/434/345 182/424/340 255/262/208
f 186/422/338 190/435/337 255/262/208
f 324/401/318 198/437/346 322/438/347
f 449/182/357 486/181/348 454/440/350
f 490/439/349 485/195/351 454/440/350
f 454/440/350 446/194/352 326/192/354
f 203/403/320 202/441/353 452/404/321
f 492/406/323 485/443/351 467/407/319
f 327/446/355 326/445/354 203/403/320
f 200/408/324 467/407/319 196/256/205
f 201/447/356 327/446/355 448/412/328
f 201/191/356 449/182/357 326/192/354
f 448/412/328 491/413/329 449/449/357
f 120/381/303 267/451/358 407/382/304
f 127/380/302 131/455/361 271/453/359
f 273/456/362 132/460/363 271/453/359
f 128/462/365 329/464/367 119/110/90
f 334/76/60 329/464/367 51/73/57
f 210/465/368 63/74/58 350/463/366
f 210/465/368 213/467/370 63/74/58
f 63/74/58 69/468/371 385/70/54
f 439/478/381 387/469/372 434/470/373
f 434/470/373 69/468/371 437/471/374
f 437/471/374 213/467/370 435/473/376
f 437/471/374 435/473/376 215/475/378
f 215/475/378 73/476/379 437/471/374
f 434/470/373 73/476/379 439/478/381
f 439/478/381 389/477/380 433/480/383
f 389/477/380 391/481/384 71/479/382
f 216/723/387 214/486/388 75/482/385
f 71/479/382 214/486/388 433/480/383
f 433/480/383 438/487/389 67/68/52
f 439/478/381 433/480/383 387/469/372
f 438/497/389 436/488/390 212/490/53
f 384/491/392 386/493/394 64/466/369
f 70/472/375 386/493/394 435/473/376
f 440/494/395 386/493/394 436/488/390
f 440/494/395 436/488/390 388/496/397
f 214/657/388 72/495/396 438/497/389
f 325/416/332 200/408/324 323/260/206
f 390/502/402 76/500/400 444/503/403
f 80/498/398 84/504/404 392/506/401
f 80/510/398 441/507/406 442/509/399
f 441/507/406 80/510/398 443/512/408
f 77/724/422 81/513/409 391/516/384
f 391/516/384 393/515/411 75/483/385
f 79/484/386 83/514/410 80/498/398
f 83/519/410 85/518/413 87/522/415
f 83/514/410 87/523/415 84/504/404
f 88/725/412 87/524/415 92/526/417
f 93/527/418 91/529/416 89/531/414
f 93/527/418 89/531/414 221/528/419
f 219/543/427 220/533/420 85/518/413
f 219/543/427 85/518/413 218/534/421
f 218/534/421 81/520/409 217/536/423
f 217/539/423 77/537/422 215/475/378
f 77/537/422 391/481/384 73/476/379
f 215/475/378 74/474/377 217/539/423
f 217/536/423 78/540/424 218/534/421
f 218/534/421 82/541/425 219/543/427
f 86/542/426 90/544/428 219/543/427
f 220/532/420 90/545/428 221/528/419
f 94/546/429 90/545/428 92/549/417
f 90/544/428 86/542/426 88/551/412
f 394/550/405 86/542/426 392/501/401
f 74/474/377 388/496/397 78/538/424
f 388/496/397 74/474/377 440/494/395
f 64/466/369 70/472/375 210/465/368
f 52/492/393 350/463/366 335/202/167
f 335/202/167 121/207/172 419/203/168
f 140/726/432 233/556/431 132/457/363
f 275/562/435 140/560/432 273/456/362
f 273/456/362 131/455/361 275/562/435
f 474/601/473 138/563/436 470/565/438
f 469/42/439 470/565/438 136/566/440
f 235/567/442 136/566/440 238/568/443
f 135/569/444 235/567/442 142/570/445
f 472/572/446 135/571/444 471/575/447
f 476/599/471 430/576/448 278/579/451
f 205/578/450 140/558/432 278/579/451
f 262/577/449 236/559/433 205/578/450
f 458/13/454 274/16/456 139/581/452
f 328/298/234 459/454/360 310/378/300
f 131/455/361 232/591/462 137/561/434
f 268/586/458 122/593/464 409/215/171
f 404/213/177 122/593/464 418/216/178
f 431/595/467 204/594/465 432/596/468
f 138/563/436 431/595/467 237/597/469
f 237/597/469 432/596/468 141/598/470
f 475/600/472 141/598/470 476/599/471
f 142/574/445 141/598/470 471/575/447
f 142/570/445 238/568/443 141/598/470
f 138/563/436 237/597/469 143/564/437
f 473/32/466 431/595/467 474/601/473
f 334/76/60 420/75/59 119/110/90
f 223/300/236 98/369/291 225/301/237
f 400/368/290 518/367/289 104/604/476
f 517/311/246 516/603/475 224/288/225
f 104/604/476 226/605/477 108/364/286
f 108/364/286 228/314/247 280/365/287
f 416/613/485 402/606/478 284/608/480
f 366/607/479 280/365/287 371/319/251
f 371/319/251 296/612/484 366/607/479
f 414/615/487 416/613/485 288/614/486
f 412/727/483 414/615/487 351/616/488
f 298/617/489 288/614/486 296/612/484
f 289/629/495 298/617/489 285/618/490
f 285/618/490 296/612/484 369/318/250
f 377/621/492 374/619/491 369/318/250
f 356/335/263 377/621/492 357/328/258
f 356/335/263 424/622/493 374/619/491
f 413/352/274 424/623/493 375/349/271
f 358/346/269 424/623/493 363/347/268
f 424/622/493 356/335/263 426/625/265
f 361/340/266 363/342/268 425/627/264
f 285/618/490 413/620/274 289/629/495
f 422/728/496 354/633/498 415/628/494
f 354/633/498 300/635/499 289/629/495
f 300/635/499 351/616/488 298/617/489
f 367/641/502 282/356/278 402/606/478
f 402/606/478 421/638/500 366/607/479
f 412/727/483 352/639/482 414/615/487
f 286/642/503 367/641/502 416/613/485
f 282/356/278 110/362/284 421/638/500
f 110/362/284 106/361/283 428/363/285
f 290/640/501 286/642/503 414/615/487
f 286/642/503 297/354/276 367/641/502
f 299/644/504 297/354/276 290/640/501
f 355/654/506 299/644/504 352/645/482
f 293/729/481 301/647/505 352/649/482
f 292/651/497 353/650/507 301/647/505
f 353/656/507 291/653/508 355/654/506
f 291/653/508 287/351/273 299/644/504
f 287/351/273 291/653/508 413/352/274
f 422/730/496 415/655/494 353/656/507
f 76/659/400 72/495/396 216/658/387
f 388/496/397 72/495/396 390/552/402
f 216/485/387 79/484/386 76/500/400
f 78/540/424 390/502/402 82/541/425
f 441/731/406 443/660/408 445/508/407
f 392/732/401 444/662/403 443/660/408
f 462/661/509 444/662/403 445/508/407
f 203/403/320 447/405/322 327/446/355
f 496/670/514 249/663/510 500/179/146
f 480/669/513 477/665/148 249/663/510
f 484/678/516 480/669/513 460/187/153
f 161/686/152 499/188/154 247/671/144
f 461/190/156 455/189/155 166/667/157
f 167/717/159 465/673/158 168/160/132
f 466/672/515 455/189/155 168/160/132
f 428/363/285 400/368/290 108/364/286
f 520/366/288 400/368/290 521/303/239
f 469/677/439 468/733/441 471/734/447
f 471/734/447 475/735/472 476/736/471
f 468/733/441 472/737/446 471/734/447
f 474/738/473 470/739/438 473/676/466
f 278/675/451 457/740/455 473/676/466
f 473/676/466 470/739/438 469/677/439
f 469/677/439 471/734/447 278/675/451
f 476/736/471 278/675/451 471/734/447
f 461/190/156 451/668/512 484/678/516
f 451/668/512 464/674/149 480/669/513
f 483/195/160 164/679/136 482/196/161
f 164/741/136 483/681/160 250/152/124
f 460/187/153 347/154/126 484/678/516
f 346/680/517 463/682/511 482/196/161
f 478/157/129 165/153/125 479/161/133
f 481/156/128 347/154/126 478/157/129
f 491/413/329 261/417/333 486/450/348
f 452/404/321 446/442/352 492/406/323
f 324/680/318 199/679/317 490/439/349
f 486/181/348 198/682/346 490/439/349
f 261/417/333 491/413/329 197/415/331
f 489/409/325 325/416/332 488/411/327
f 200/408/324 325/416/332 487/684/518
f 447/405/322 452/404/321 487/684/518
f 499/188/154 460/187/153 496/670/514
f 247/671/144 496/670/514 160/685/145
f 345/742/151 498/155/127 161/686/152
f 500/179/146 463/664/511 497/180/147
f 346/687/517 164/164/136 497/180/147
f 248/743/121 162/166/120 495/688/123
f 345/742/151 163/689/122 498/155/127
f 163/689/122 248/691/121 493/690/519
f 278/744/451 275/692/435 457/694/455
f 274/698/456 275/692/435 133/696/459
f 342/168/138 158/145/118 506/171/140
f 505/174/142 245/176/141 503/175/143
f 342/168/138 506/171/140 156/170/139
f 244/143/111 154/101/82 504/699/116
f 246/716/119 159/140/114 504/142/116
f 509/198/163 343/197/162 508/93/75
f 243/95/77 153/91/73 507/92/74
f 155/138/112 501/139/113 341/90/72
f 399/294/230 515/305/241 99/701/521
f 513/304/240 105/359/281 515/305/241
f 514/302/238 227/360/282 513/304/240
f 226/605/477 104/604/476 517/311/246
f 518/367/289 398/371/293 516/603/475
f 103/312/228 226/605/477 519/310/229
f 224/293/225 99/701/521 519/292/229
f 225/301/237 102/602/474 521/303/239
f 520/366/288 102/602/474 518/367/289
f 227/360/282 514/302/238 106/361/283
