v 0.651033 -0.108925 0.000077
v 0.657596 -0.071702 0.080353
v 0.680933 0.060645 0.000077
v 0.674369 0.023422 0.080353
v 0.820602 -0.138824 0.000077
v 0.809463 -0.098480 0.080353
v 0.850502 0.030745 0.000077
v 0.826236 -0.003356 0.080353
v 0.665983 -0.024140 0.080353
v 0.665983 -0.024140 0.000077
v 0.868511 -0.059851 0.080353
v 0.935805 -0.071717 0.000077
v 0.651262 -0.107624 0.016889
v 0.680703 0.059344 0.016889
v 0.850204 0.029456 0.016889
v 0.820764 -0.137511 0.016889
v 0.935794 -0.071715 0.016889
v 0.665983 -0.024140 0.016889
v 0.702929 0.011679 0.079169
v 0.786844 -0.003118 0.079169
v 0.688543 -0.069912 0.079169
v 0.772457 -0.084709 0.079169
v 0.709926 0.002384 0.129481
v 0.726754 -0.002952 0.144264
v 0.759452 -0.008717 0.144264
v 0.777090 -0.009459 0.129481
v 0.715780 -0.065193 0.144071
v 0.698166 -0.064258 0.129276
v 0.765348 -0.076104 0.129276
v 0.748477 -0.070958 0.144071
v 0.753680 0.053280 0.130487
v 0.721913 -0.126885 0.130487
v 0.766079 0.051093 0.124893
v 0.734311 -0.129071 0.124893
v 0.770950 0.050234 0.112035
v 0.739183 -0.129930 0.112035
v 0.765441 0.051206 0.099445
v 0.733674 -0.128959 0.099445
v 0.752779 0.053439 0.094498
v 0.721011 -0.126726 0.094498
v 0.740380 0.055625 0.100092
v 0.708613 -0.124540 0.100093
v 0.735509 0.056484 0.112950
v 0.703741 -0.123681 0.112950
v 0.741018 0.055512 0.125540
v 0.709250 -0.124652 0.125540
v 0.563070 -0.098877 0.116482
v 0.594838 0.081288 0.116482
v 0.569563 -0.100022 0.128578
v 0.601331 0.080143 0.128578
v 0.535384 -0.041358 0.135109
v 0.558051 -0.045354 0.153685
v 0.539221 -0.042034 0.145210
v 0.547518 -0.043497 0.152009
v 0.553370 -0.044529 0.109163
v 0.535076 -0.041303 0.132180
v 0.543423 -0.042775 0.113060
v 0.536727 -0.041594 0.121484
v 0.550276 -0.089449 0.153685
v 0.527609 -0.085452 0.135109
v 0.539743 -0.087592 0.152009
v 0.531446 -0.086129 0.145210
v 0.527301 -0.085398 0.132180
v 0.545595 -0.088624 0.109163
v 0.528952 -0.085689 0.121484
v 0.535648 -0.086870 0.113060
v 0.565731 -0.099346 0.141794
v 0.597499 0.080819 0.141794
v 0.553819 -0.097245 0.148387
v 0.585586 0.082919 0.148387
v 0.557016 0.081326 0.135109
v 0.579683 0.077329 0.153685
v 0.560854 0.080649 0.145210
v 0.569150 0.079186 0.152009
v 0.575003 0.078154 0.109163
v 0.556709 0.081380 0.132180
v 0.565055 0.079908 0.113060
v 0.558359 0.081089 0.121484
v 0.571908 0.033235 0.153685
v 0.549241 0.037231 0.135109
v 0.561375 0.035092 0.152009
v 0.553079 0.036555 0.145210
v 0.548934 0.037286 0.132180
v 0.567228 0.034060 0.109163
v 0.550584 0.036995 0.121484
v 0.557280 0.035814 0.113060
v 0.724516 -0.120172 0.089768
v 0.746609 -0.124068 0.107873
v 0.734783 -0.121982 0.091401
v 0.742869 -0.123408 0.098028
v 0.747028 -0.124142 0.111856
v 0.729197 -0.120998 0.134289
v 0.745419 -0.123858 0.122281
v 0.738893 -0.122707 0.130492
v 0.754384 -0.079973 0.107873
v 0.732291 -0.076078 0.089768
v 0.750644 -0.079314 0.098028
v 0.742558 -0.077888 0.091401
v 0.736972 -0.076903 0.134289
v 0.754803 -0.080047 0.111856
v 0.746668 -0.078613 0.130492
v 0.753194 -0.079763 0.122281
v 0.768660 -0.001458 0.111856
v 0.750830 0.001686 0.134289
v 0.767051 -0.001174 0.122281
v 0.760525 -0.000024 0.130492
v 0.746149 0.002511 0.089768
v 0.768242 -0.001384 0.107873
v 0.756415 0.000701 0.091401
v 0.764502 -0.000725 0.098028
v 0.776017 0.042710 0.107873
v 0.753924 0.046606 0.089768
v 0.772277 0.043370 0.098028
v 0.764190 0.044796 0.091401
v 0.758605 0.045780 0.134289
v 0.776435 0.042636 0.111856
v 0.768300 0.044071 0.130492
v 0.774826 0.042920 0.122281
v 0.581823 0.083583 0.112591
v 0.550055 -0.096582 0.112591
v 0.569910 0.085683 0.119184
v 0.538142 -0.094481 0.119184
v 0.566078 0.086359 0.132400
v 0.534310 -0.093806 0.132400
v 0.572572 0.085214 0.144496
v 0.540804 -0.094950 0.144496
v 0.588512 0.016814 0.177124
v 0.579191 -0.036053 0.177124
v 0.527537 -0.026945 0.165692
v 0.536859 0.025921 0.165692
v 0.540404 0.025296 0.149176
v 0.531082 -0.027570 0.149176
v 0.592057 0.016188 0.160607
v 0.582736 -0.036678 0.160607
v 0.536817 -0.028581 0.122453
v 0.565460 -0.033632 0.103778
v 0.542531 -0.029589 0.111211
v 0.553015 -0.031437 0.104375
v 0.570080 -0.034447 0.104801
v 0.588471 -0.037689 0.133885
v 0.581152 -0.036399 0.110602
v 0.587883 -0.037586 0.121248
v 0.574782 0.019235 0.103778
v 0.546139 0.024285 0.122453
v 0.562336 0.021429 0.104375
v 0.551853 0.023278 0.111211
v 0.597793 0.015177 0.133885
v 0.579402 0.018420 0.104801
v 0.597205 0.015281 0.121248
v 0.590474 0.016468 0.110602
v 0.647596 -0.003386 0.190570
v 0.640000 0.007735 0.188518
v 0.630678 -0.045132 0.188518
v 0.641619 -0.037280 0.190570
v 0.645164 -0.037905 0.174054
v 0.634223 -0.045757 0.172002
v 0.643545 0.007110 0.172002
v 0.651141 -0.004011 0.174054
v 0.627894 -0.021451 0.221606
v 0.604291 -0.017290 0.237628
v 0.623300 -0.020641 0.231071
v 0.614661 -0.019118 0.236935
v 0.600423 -0.016608 0.236847
v 0.584645 -0.013826 0.212880
v 0.591102 -0.014964 0.232182
v 0.585327 -0.013946 0.223410
v 0.605566 -0.010060 0.237628
v 0.629169 -0.014222 0.221606
v 0.615935 -0.011889 0.236935
v 0.624575 -0.013412 0.231071
v 0.585920 -0.006596 0.212880
v 0.601698 -0.009378 0.236847
v 0.586602 -0.006716 0.223410
v 0.592377 -0.007735 0.232182
v 0.634856 -0.022679 0.186024
v 0.636131 -0.015450 0.186024
v 0.591607 -0.015053 0.177299
v 0.592882 -0.007824 0.177299
v 0.498149 0.032747 0.485421
v 0.526276 0.027788 0.467082
v 0.510370 0.030592 0.484835
v 0.520665 0.028777 0.478122
v 0.474622 0.036896 0.455650
v 0.492682 0.033711 0.484211
v 0.475199 0.036794 0.468060
v 0.481809 0.035628 0.478514
v 0.516954 -0.025079 0.467082
v 0.488828 -0.020120 0.485421
v 0.511343 -0.024090 0.478122
v 0.501048 -0.022274 0.484835
v 0.483360 -0.019156 0.484211
v 0.465300 -0.015971 0.455650
v 0.472488 -0.017238 0.478514
v 0.465877 -0.016073 0.468060
v 0.622603 -0.001766 0.241426
v 0.622603 -0.001766 0.407046
v 0.626001 -0.017090 0.241426
v 0.626001 -0.017090 0.407046
v 0.609365 0.006668 0.407046
v 0.609365 0.006668 0.241426
v 0.594041 0.003271 0.407046
v 0.594041 0.003271 0.241426
v 0.585607 -0.009968 0.407046
v 0.585607 -0.009968 0.241426
v 0.589004 -0.025292 0.407046
v 0.589004 -0.025292 0.241426
v 0.602242 -0.033726 0.407046
v 0.602242 -0.033726 0.241426
v 0.617567 -0.030328 0.407046
v 0.617567 -0.030328 0.241426
v 0.589361 -0.019725 0.219808
v 0.603013 -0.022133 0.205941
v 0.591189 -0.020048 0.212875
v 0.596186 -0.020929 0.207800
v 0.605696 -0.022606 0.205940
v 0.619352 -0.025014 0.219803
v 0.612523 -0.023810 0.207796
v 0.617522 -0.024691 0.212870
v 0.603880 -0.017216 0.205941
v 0.590228 -0.014808 0.219808
v 0.597053 -0.016012 0.207800
v 0.592056 -0.015131 0.212875
v 0.620219 -0.020097 0.219803
v 0.606563 -0.017689 0.205940
v 0.618389 -0.019774 0.212870
v 0.613390 -0.018892 0.207796
v 0.589366 -0.019726 0.245661
v 0.590233 -0.014809 0.245661
v 0.619357 -0.025015 0.245655
v 0.620224 -0.020097 0.245655
v 0.591515 -0.007514 0.219808
v 0.605166 -0.009921 0.205941
v 0.593342 -0.007836 0.212875
v 0.598339 -0.008718 0.207800
v 0.607849 -0.010394 0.205940
v 0.621506 -0.012802 0.219803
v 0.614676 -0.011598 0.207796
v 0.619675 -0.012480 0.212870
v 0.606033 -0.005004 0.205941
v 0.592382 -0.002597 0.219808
v 0.599207 -0.003801 0.207800
v 0.594209 -0.002919 0.212875
v 0.622373 -0.007885 0.219803
v 0.608716 -0.005477 0.205940
v 0.620542 -0.007563 0.212870
v 0.615543 -0.006681 0.207796
v 0.591519 -0.007515 0.245661
v 0.592386 -0.002598 0.245661
v 0.621510 -0.012803 0.245655
v 0.622377 -0.007886 0.245655
v 0.620807 -0.034955 0.317068
v 0.620807 -0.034955 0.513580
v 0.601262 -0.039288 0.317068
v 0.601262 -0.039288 0.513580
v 0.631563 -0.018071 0.513580
v 0.631563 -0.018071 0.317068
v 0.627230 0.001474 0.513580
v 0.627230 0.001474 0.317068
v 0.610346 0.012231 0.513580
v 0.610346 0.012231 0.317068
v 0.590801 0.007898 0.513580
v 0.590801 0.007898 0.317068
v 0.580044 -0.008987 0.513580
v 0.580044 -0.008987 0.317068
v 0.584377 -0.028532 0.513580
v 0.584377 -0.028532 0.317068
v 0.523691 0.056379 0.457681
v 0.504733 -0.051137 0.457681
v 0.518499 0.057295 0.444953
v 0.499541 -0.050221 0.444953
v 0.499541 -0.050221 0.470409
v 0.518499 0.057295 0.470409
v 0.487006 -0.048011 0.475681
v 0.505964 0.059505 0.475681
v 0.505964 0.059505 0.439681
v 0.487006 -0.048011 0.439681
v 0.493430 0.061715 0.444953
v 0.474472 -0.045801 0.444953
v 0.488238 0.062631 0.457681
v 0.469280 -0.044885 0.457681
v 0.493430 0.061715 0.470409
v 0.474472 -0.045801 0.470409
v 0.086742 0.113656 0.393361
v 0.409427 0.056758 0.571624
v 0.089849 0.112423 0.387343
v 0.412534 0.055525 0.565606
v 0.092603 0.109908 0.381556
v 0.415288 0.053010 0.559819
v 0.094897 0.106208 0.376223
v 0.417582 0.049310 0.554486
v 0.096643 0.101466 0.371548
v 0.419328 0.044568 0.549811
v 0.097774 0.095862 0.367712
v 0.420459 0.038964 0.545975
v 0.098247 0.089614 0.364861
v 0.420932 0.032716 0.543124
v 0.098044 0.082960 0.363106
v 0.420729 0.026062 0.541369
v 0.097172 0.076157 0.362513
v 0.419857 0.019259 0.540776
v 0.095665 0.069466 0.363106
v 0.418350 0.012568 0.541369
v 0.093580 0.063144 0.364861
v 0.416265 0.006246 0.543124
v 0.090999 0.057434 0.367712
v 0.413683 0.000536 0.545975
v 0.088019 0.052556 0.371548
v 0.410704 -0.004342 0.549811
v 0.084756 0.048696 0.376223
v 0.407441 -0.008202 0.554486
v 0.081335 0.046004 0.381556
v 0.404020 -0.010894 0.559819
v 0.077887 0.044583 0.387343
v 0.400572 -0.012315 0.565606
v 0.074546 0.044487 0.393361
v 0.397231 -0.012411 0.571624
v 0.071439 0.045720 0.399379
v 0.394123 -0.011178 0.577643
v 0.068685 0.048235 0.405166
v 0.391370 -0.008663 0.583430
v 0.066391 0.051934 0.410500
v 0.389076 -0.004964 0.588763
v 0.064645 0.056677 0.415174
v 0.387330 -0.000221 0.593437
v 0.063514 0.062280 0.419010
v 0.386198 0.005382 0.597274
v 0.063041 0.068529 0.421861
v 0.385725 0.011631 0.600125
v 0.063244 0.075183 0.423617
v 0.385929 0.018285 0.601880
v 0.064116 0.081986 0.424209
v 0.386801 0.025088 0.602473
v 0.065623 0.088677 0.423617
v 0.388308 0.031779 0.601880
v 0.067708 0.094999 0.421861
v 0.390393 0.038101 0.600125
v 0.070290 0.100709 0.419010
v 0.392974 0.043811 0.597274
v 0.073269 0.105587 0.415174
v 0.395954 0.048689 0.593437
v 0.076532 0.109447 0.410500
v 0.399217 0.052548 0.588763
v 0.079953 0.112139 0.405166
v 0.402638 0.055241 0.583430
v 0.083401 0.113560 0.399379
v 0.406085 0.056662 0.577643
v 0.362223 -0.032275 0.497916
v 0.362223 -0.032275 0.622403
v 0.383325 0.087397 0.497916
v 0.383325 0.087397 0.622403
v 0.606779 -0.075397 0.497916
v 0.606779 -0.075397 0.641495
v 0.627881 0.044275 0.497916
v 0.627881 0.044275 0.641495
v 0.924747 -0.050693 0.355347
v 0.902313 -0.046737 0.323646
v 0.918223 -0.087691 0.355347
v 0.895789 -0.083735 0.323646
v 0.366915 -0.005667 0.628068
v 0.378633 0.060789 0.628068
v 0.378633 0.060789 0.503582
v 0.366915 -0.005667 0.503582
v 0.623189 0.017667 0.647161
v 0.611471 -0.048789 0.647161
v 0.611471 -0.048789 0.503582
v 0.623189 0.017667 0.503582
v 0.928030 -0.059754 0.355769
v 0.924407 -0.080299 0.355769
v 0.901973 -0.076344 0.324069
v 0.905596 -0.055798 0.324069
v 0.478234 0.070662 0.641495
v 0.478234 0.070662 0.497916
v 0.457132 -0.049010 0.641495
v 0.457132 -0.049010 0.497916
v 0.461824 -0.022402 0.647161
v 0.473542 0.044053 0.647161
v 0.461824 -0.022402 0.503582
v 0.473542 0.044053 0.503582
v 0.157084 0.065091 0.462141
v 0.137138 0.068609 0.473397
v 0.114468 0.072606 0.476044
v 0.092526 0.076475 0.469681
v 0.074653 0.079626 0.455276
v 0.063569 0.081581 0.435022
v 0.162870 0.080389 0.456221
v 0.147828 0.096874 0.462456
v 0.128436 0.109537 0.461750
v 0.107645 0.116449 0.454209
v 0.088621 0.116557 0.440982
v 0.074259 0.109847 0.424082
v 0.066747 0.097338 0.406082
v 0.171257 0.085669 0.441927
v 0.163325 0.106631 0.436045
v 0.148684 0.122284 0.427241
v 0.129561 0.130246 0.416857
v 0.108868 0.129305 0.406473
v 0.089756 0.119603 0.397670
v 0.075134 0.102618 0.391788
v 0.067228 0.080936 0.389723
v 0.171270 0.062590 0.443992
v 0.177332 0.077839 0.427633
v 0.174551 0.092162 0.409633
v 0.163351 0.103380 0.392733
v 0.145436 0.109785 0.379505
v 0.123535 0.110401 0.371965
v 0.100982 0.105135 0.371258
v 0.081209 0.094788 0.377494
v 0.177537 0.061485 0.421712
v 0.174929 0.061945 0.398693
v 0.163845 0.063899 0.378439
v 0.145971 0.067051 0.364034
v 0.124030 0.070920 0.357671
v 0.101360 0.074917 0.360318
v 0.081414 0.078434 0.371573
v 0.171751 0.046188 0.427633
v 0.164239 0.033679 0.409633
v 0.149877 0.026968 0.392733
v 0.130853 0.027077 0.379505
v 0.110062 0.033989 0.371965
v 0.090670 0.046651 0.371258
v 0.075628 0.063137 0.377494
v 0.163364 0.040908 0.441927
v 0.148742 0.023923 0.436045
v 0.129629 0.014221 0.427241
v 0.108937 0.013279 0.416857
v 0.089814 0.021242 0.406473
v 0.075173 0.036895 0.397670
v 0.067241 0.057857 0.391788
v 0.157289 0.048738 0.456221
v 0.137516 0.038391 0.462456
v 0.114962 0.033125 0.461750
v 0.093061 0.033741 0.454209
v 0.075147 0.040145 0.440982
v 0.063947 0.051363 0.424082
v 0.061166 0.065687 0.406082
v 0.060961 0.082041 0.412003
v 0.604355 0.018571 0.454187
v 0.630766 0.013914 0.464762
v 0.614633 0.016759 0.452631
v 0.624300 0.015054 0.456502
v 0.590322 0.021045 0.482601
v 0.600737 0.019209 0.455783
v 0.588790 0.021316 0.472165
v 0.592602 0.020644 0.462348
v 0.604625 0.041256 0.455783
v 0.594210 0.043093 0.482601
v 0.596490 0.042691 0.462348
v 0.592678 0.043363 0.472165
v 0.634653 0.035961 0.464762
v 0.608242 0.040618 0.454187
v 0.628187 0.037102 0.456502
v 0.618520 0.038806 0.452631
v 0.645000 0.011404 0.498036
v 0.648888 0.033452 0.498036
v 0.604556 0.018536 0.515875
v 0.608444 0.040583 0.515875
v 0.603808 -0.044629 0.452631
v 0.613476 -0.046334 0.456502
v 0.593530 -0.042817 0.454187
v 0.619942 -0.047474 0.464762
v 0.577966 -0.040072 0.472165
v 0.581778 -0.040745 0.462348
v 0.579498 -0.040343 0.482601
v 0.589913 -0.042179 0.455783
v 0.577890 -0.062792 0.462348
v 0.574078 -0.062120 0.472165
v 0.586025 -0.064226 0.455783
v 0.575610 -0.062390 0.482601
v 0.609588 -0.068381 0.456502
v 0.599921 -0.066676 0.452631
v 0.616054 -0.069521 0.464762
v 0.589643 -0.064864 0.454187
v 0.455796 -0.038137 0.458690
v 0.484582 -0.043213 0.429110
v 0.459590 -0.038806 0.443964
v 0.470126 -0.040664 0.433137
v 0.490272 -0.044216 0.429075
v 0.519403 -0.049353 0.458305
v 0.504774 -0.046773 0.432927
v 0.515437 -0.048653 0.443626
v 0.488256 -0.022374 0.429110
v 0.459470 -0.017299 0.458690
v 0.473800 -0.019825 0.433137
v 0.463264 -0.017968 0.443964
v 0.523077 -0.028514 0.458305
v 0.493946 -0.023378 0.429075
v 0.519111 -0.027815 0.443626
v 0.508448 -0.025935 0.432927
v 0.504153 0.034508 0.429075
v 0.533284 0.029372 0.458305
v 0.518655 0.031951 0.432927
v 0.529318 0.030071 0.443626
v 0.469677 0.040587 0.458690
v 0.498463 0.035512 0.429110
v 0.473471 0.039918 0.443964
v 0.484007 0.038061 0.433137
v 0.502138 0.056350 0.429110
v 0.473352 0.061426 0.458690
v 0.487682 0.058899 0.433137
v 0.477145 0.060757 0.443964
v 0.536958 0.050210 0.458305
v 0.507827 0.055347 0.429075
v 0.532992 0.050909 0.443626
v 0.522330 0.052790 0.432927
v 0.456103 -0.038191 0.511020
v 0.459777 -0.017353 0.511020
v 0.519709 -0.049407 0.510635
v 0.523384 -0.028568 0.510635
v 0.533591 0.029318 0.510635
v 0.537265 0.050156 0.510635
v 0.469984 0.040533 0.511020
v 0.473659 0.061372 0.511020
v 0.630178 0.038047 0.473461
v 0.611068 -0.070331 0.473461
v 0.625895 0.038802 0.462963
v 0.606785 -0.069576 0.462963
v 0.606785 -0.069576 0.483960
v 0.625895 0.038802 0.483960
v 0.596446 -0.067752 0.488309
v 0.615556 0.040625 0.488309
v 0.615556 0.040625 0.458614
v 0.596446 -0.067752 0.458614
v 0.605217 0.042448 0.462963
v 0.586107 -0.065929 0.462963
v 0.600934 0.043204 0.473461
v 0.581824 -0.065174 0.473461
v 0.605217 0.042448 0.483960
v 0.586107 -0.065929 0.483960
v 0.593732 -0.042853 0.515875
v 0.589845 -0.064900 0.515875
v 0.634176 -0.049984 0.498036
v 0.630288 -0.072031 0.498036
vt 0.069985 0.936648
vt 0.087915 0.936648
vt 0.087915 0.918717
vt 0.069985 0.918717
vt 0.052054 0.936648
vt 0.087915 0.936648
vt 0.087915 0.918717
vt 0.052054 0.918717
vt 0.034123 0.936648
vt 0.016193 0.936648
vt 0.016193 0.918717
vt 0.034123 0.918717
vt 0.052054 0.936648
vt 0.016193 0.936648
vt 0.016193 0.918717
vt 0.052054 0.918717
vt 0.022298 0.683452
vt 0.022298 0.701383
vt 0.058160 0.701383
vt 0.058160 0.683452
vt 0.052054 0.972510
vt 0.052054 0.990440
vt 0.016193 0.990440
vt 0.016193 0.972510
vt 0.052054 0.954579
vt 0.052054 0.972510
vt 0.016193 0.972510
vt 0.016193 0.954579
vt 0.022298 0.665522
vt 0.022298 0.683452
vt 0.058160 0.683452
vt 0.058160 0.665522
vt 0.052054 0.936648
vt 0.034123 0.936648
vt 0.034123 0.918717
vt 0.052054 0.918717
vt 0.052054 0.936648
vt 0.069985 0.936648
vt 0.069985 0.918717
vt 0.052054 0.918717
vt 0.052054 0.954579
vt 0.069985 0.954579
vt 0.069985 0.936648
vt 0.052054 0.936648
vt 0.052054 0.954579
vt 0.034123 0.954579
vt 0.034123 0.936648
vt 0.052054 0.936648
vt 0.052054 0.954579
vt 0.016193 0.954579
vt 0.016193 0.936648
vt 0.052054 0.936648
vt 0.034123 0.954579
vt 0.016193 0.954579
vt 0.016193 0.936648
vt 0.034123 0.936648
vt 0.052054 0.954579
vt 0.087915 0.954579
vt 0.087915 0.936648
vt 0.052054 0.936648
vt 0.069985 0.954579
vt 0.087915 0.954579
vt 0.087915 0.936648
vt 0.069985 0.936648
vt 0.445654 0.757660
vt 0.445654 0.795397
vt 0.373819 0.795397
vt 0.373819 0.757660
vt 0.445654 0.796070
vt 0.428605 0.812446
vt 0.390868 0.812446
vt 0.373819 0.796070
vt 0.373819 0.740611
vt 0.445654 0.740611
vt 0.373819 0.796132
vt 0.390868 0.812446
vt 0.428605 0.812446
vt 0.445654 0.796132
vt 0.445654 0.740611
vt 0.373819 0.740611
vt 0.373819 0.740611
vt 0.373819 0.812446
vt 0.445654 0.812446
vt 0.445654 0.740611
vt 0.373819 0.796132
vt 0.445654 0.796070
vt 0.445654 0.740611
vt 0.373819 0.740611
vt 0.373819 0.795397
vt 0.445654 0.795397
vt 0.445654 0.796070
vt 0.373819 0.796132
vt 0.445654 0.757660
vt 0.373819 0.757660
vt 0.373819 0.740611
vt 0.445654 0.740611
vt 0.445654 0.796070
vt 0.373819 0.796132
vt 0.373819 0.740611
vt 0.445654 0.740611
vt 0.823819 0.606131
vt 0.823819 0.573880
vt 0.827953 0.573880
vt 0.827953 0.606131
vt 0.810888 0.583727
vt 0.778637 0.583727
vt 0.778637 0.579593
vt 0.810888 0.579593
vt 0.810888 0.579593
vt 0.778637 0.579593
vt 0.778637 0.575460
vt 0.810888 0.575460
vt 0.827953 0.606131
vt 0.827953 0.573880
vt 0.823819 0.573880
vt 0.823819 0.606131
vt 0.823819 0.606131
vt 0.823819 0.573880
vt 0.819686 0.573880
vt 0.819686 0.606131
vt 0.810888 0.575460
vt 0.778637 0.575460
vt 0.778637 0.579593
vt 0.810888 0.579593
vt 0.827953 0.630664
vt 0.823819 0.632376
vt 0.819686 0.630664
vt 0.817974 0.626530
vt 0.819686 0.622397
vt 0.823819 0.620685
vt 0.827953 0.622397
vt 0.829665 0.626530
vt 0.819686 0.606131
vt 0.819686 0.573880
vt 0.823819 0.573880
vt 0.823819 0.606131
vt 0.810888 0.579593
vt 0.778637 0.579593
vt 0.778637 0.583727
vt 0.810888 0.583727
vt 0.823819 0.632376
vt 0.827953 0.630664
vt 0.829665 0.626530
vt 0.827953 0.622397
vt 0.823819 0.620685
vt 0.819686 0.622397
vt 0.817974 0.626530
vt 0.819686 0.630664
vt 0.672143 0.980344
vt 0.672492 0.987494
vt 0.673445 0.992729
vt 0.674746 0.994644
vt 0.700221 0.994644
vt 0.701489 0.992777
vt 0.702417 0.987676
vt 0.702757 0.980707
vt 0.702757 0.977968
vt 0.702417 0.970999
vt 0.701489 0.965898
vt 0.700221 0.964031
vt 0.674746 0.964031
vt 0.673445 0.965946
vt 0.672492 0.971181
vt 0.672143 0.978330
vt 0.884699 0.970223
vt 0.915313 0.970223
vt 0.915313 0.968209
vt 0.884699 0.968209
vt 0.887302 0.953909
vt 0.887302 0.984523
vt 0.912776 0.984523
vt 0.912776 0.953909
vt 0.702757 0.980707
vt 0.672143 0.980707
vt 0.672143 0.977968
vt 0.702757 0.977968
vt 0.700221 0.964031
vt 0.700221 0.994644
vt 0.674746 0.994644
vt 0.674746 0.964031
vt 0.887302 0.984523
vt 0.887302 0.953909
vt 0.886000 0.953909
vt 0.886000 0.984523
vt 0.886000 0.984523
vt 0.886000 0.953909
vt 0.884699 0.953909
vt 0.884699 0.984523
vt 0.915313 0.961059
vt 0.884699 0.961059
vt 0.884699 0.968209
vt 0.915313 0.968209
vt 0.674746 0.964031
vt 0.674746 0.994644
vt 0.673445 0.994644
vt 0.673445 0.964031
vt 0.673445 0.964031
vt 0.673445 0.994644
vt 0.672143 0.994644
vt 0.672143 0.964031
vt 0.884699 0.977373
vt 0.915313 0.977373
vt 0.915313 0.970223
vt 0.884699 0.970223
vt 0.702757 0.980707
vt 0.672143 0.980707
vt 0.672143 0.977968
vt 0.702757 0.977968
vt 0.887302 0.984523
vt 0.887302 0.953909
vt 0.886000 0.953909
vt 0.886000 0.984523
vt 0.672143 0.980344
vt 0.672492 0.987494
vt 0.673445 0.992729
vt 0.674746 0.994644
vt 0.700221 0.994644
vt 0.701489 0.992777
vt 0.702417 0.987676
vt 0.702757 0.980707
vt 0.702757 0.977968
vt 0.702417 0.970999
vt 0.701489 0.965898
vt 0.700221 0.964031
vt 0.674746 0.964031
vt 0.673445 0.965946
vt 0.672492 0.971181
vt 0.672143 0.978330
vt 0.884699 0.977373
vt 0.915313 0.977373
vt 0.915313 0.970223
vt 0.884699 0.970223
vt 0.887302 0.953909
vt 0.887302 0.984523
vt 0.912776 0.984523
vt 0.912776 0.953909
vt 0.673445 0.964031
vt 0.673445 0.994644
vt 0.672143 0.994644
vt 0.672143 0.964031
vt 0.700221 0.964031
vt 0.700221 0.994644
vt 0.674746 0.994644
vt 0.674746 0.964031
vt 0.674746 0.964031
vt 0.674746 0.994644
vt 0.673445 0.994644
vt 0.673445 0.964031
vt 0.884699 0.970223
vt 0.915313 0.970223
vt 0.915313 0.968209
vt 0.884699 0.968209
vt 0.915313 0.961059
vt 0.884699 0.961059
vt 0.884699 0.968209
vt 0.915313 0.968209
vt 0.702757 0.980707
vt 0.702418 0.987676
vt 0.701489 0.992777
vt 0.700221 0.994644
vt 0.674746 0.994644
vt 0.673445 0.992729
vt 0.672492 0.987494
vt 0.672143 0.980344
vt 0.672143 0.978330
vt 0.672492 0.971181
vt 0.673445 0.965946
vt 0.674746 0.964031
vt 0.700221 0.964031
vt 0.701489 0.965898
vt 0.702417 0.970999
vt 0.702757 0.977968
vt 0.816228 0.606975
vt 0.816228 0.574724
vt 0.820362 0.574724
vt 0.820362 0.606975
vt 0.886000 0.984523
vt 0.886000 0.953909
vt 0.884699 0.953909
vt 0.884699 0.984523
vt 0.700221 0.994644
vt 0.700221 0.964031
vt 0.701489 0.964031
vt 0.701489 0.994644
vt 0.701489 0.994644
vt 0.701489 0.964031
vt 0.702757 0.964031
vt 0.702757 0.994644
vt 0.702757 0.987676
vt 0.672143 0.987676
vt 0.672143 0.980707
vt 0.702757 0.980707
vt 0.700221 0.964031
vt 0.700221 0.994644
vt 0.701489 0.994644
vt 0.701489 0.964030
vt 0.701489 0.964030
vt 0.701489 0.994644
vt 0.702757 0.994644
vt 0.702757 0.964031
vt 0.672143 0.970999
vt 0.702757 0.970999
vt 0.702757 0.977968
vt 0.672143 0.977968
vt 0.700221 0.964031
vt 0.700221 0.994644
vt 0.701489 0.994644
vt 0.701489 0.964030
vt 0.701489 0.964030
vt 0.701489 0.994644
vt 0.702757 0.994644
vt 0.702757 0.964031
vt 0.672143 0.970999
vt 0.702757 0.970999
vt 0.702757 0.977968
vt 0.672143 0.977968
vt 0.700221 0.994644
vt 0.700221 0.964031
vt 0.701489 0.964031
vt 0.701489 0.994644
vt 0.701489 0.994644
vt 0.701489 0.964031
vt 0.702757 0.964031
vt 0.702757 0.994644
vt 0.702757 0.987676
vt 0.672143 0.987676
vt 0.672143 0.980707
vt 0.702757 0.980707
vt 0.702757 0.980707
vt 0.702418 0.987676
vt 0.701489 0.992777
vt 0.700221 0.994644
vt 0.674746 0.994644
vt 0.673445 0.992729
vt 0.672492 0.987494
vt 0.672143 0.980344
vt 0.672143 0.978330
vt 0.672492 0.971181
vt 0.673445 0.965946
vt 0.674746 0.964031
vt 0.700221 0.964031
vt 0.701489 0.965898
vt 0.702417 0.970999
vt 0.702757 0.977968
vt 0.803297 0.584570
vt 0.771046 0.584570
vt 0.771046 0.580437
vt 0.803297 0.580437
vt 0.803297 0.580437
vt 0.771046 0.580437
vt 0.771046 0.576303
vt 0.803297 0.576303
vt 0.986526 0.606975
vt 0.986526 0.574724
vt 0.982392 0.574724
vt 0.982392 0.606975
vt 0.982392 0.606975
vt 0.982392 0.574724
vt 0.978259 0.574724
vt 0.978259 0.606975
vt 0.969461 0.576303
vt 0.937210 0.576303
vt 0.937210 0.580437
vt 0.969461 0.580437
vt 0.820362 0.631508
vt 0.816228 0.633220
vt 0.812095 0.631508
vt 0.810382 0.627374
vt 0.812095 0.623240
vt 0.816228 0.621528
vt 0.820362 0.623240
vt 0.822074 0.627374
vt 0.812095 0.606975
vt 0.812095 0.574724
vt 0.816228 0.574724
vt 0.816228 0.606975
vt 0.969461 0.580437
vt 0.937210 0.580437
vt 0.937210 0.584570
vt 0.969461 0.584570
vt 0.816228 0.633220
vt 0.820362 0.631508
vt 0.822074 0.627374
vt 0.820362 0.623240
vt 0.816228 0.621528
vt 0.812095 0.623240
vt 0.810382 0.627374
vt 0.812095 0.631508
vt 0.687483 0.994644
vt 0.700221 0.994644
vt 0.701489 0.992777
vt 0.702417 0.987676
vt 0.702757 0.980707
vt 0.702757 0.977968
vt 0.702417 0.970999
vt 0.701489 0.965898
vt 0.700221 0.964031
vt 0.687483 0.964031
vt 0.900039 0.953909
vt 0.900039 0.984523
vt 0.912776 0.984523
vt 0.912776 0.953909
vt 0.915313 0.970585
vt 0.884699 0.970585
vt 0.884699 0.967847
vt 0.915313 0.967847
vt 0.674746 0.994644
vt 0.674746 0.994644
vt 0.674746 0.964031
vt 0.674746 0.964031
vt 0.700221 0.994644
vt 0.700221 0.964031
vt 0.701489 0.964031
vt 0.701489 0.994644
vt 0.914044 0.984523
vt 0.914044 0.953909
vt 0.915313 0.953909
vt 0.915313 0.984523
vt 0.915313 0.977554
vt 0.884699 0.977554
vt 0.884699 0.970585
vt 0.915313 0.970585
vt 0.912776 0.953909
vt 0.912776 0.984523
vt 0.914044 0.984523
vt 0.914044 0.953909
vt 0.914044 0.953909
vt 0.914044 0.984523
vt 0.915313 0.984523
vt 0.915313 0.953909
vt 0.884699 0.960878
vt 0.915313 0.960878
vt 0.915313 0.967847
vt 0.884699 0.967847
vt 0.674746 0.980958
vt 0.674767 0.992363
vt 0.674984 0.994033
vt 0.675223 0.994644
vt 0.681115 0.994644
vt 0.681115 0.964031
vt 0.675223 0.964031
vt 0.674984 0.965864
vt 0.674810 0.970874
vt 0.674746 0.977717
vt 0.700221 0.964031
vt 0.700221 0.994644
vt 0.687483 0.994644
vt 0.687483 0.964031
vt 0.893670 0.953909
vt 0.893670 0.984523
vt 0.900039 0.984523
vt 0.900039 0.953909
vt 0.702757 0.980707
vt 0.702418 0.987676
vt 0.701489 0.992777
vt 0.700221 0.994644
vt 0.687483 0.994644
vt 0.687483 0.964031
vt 0.700221 0.964031
vt 0.701489 0.965898
vt 0.702417 0.970999
vt 0.702757 0.977968
vt 0.681115 0.994644
vt 0.687483 0.994644
vt 0.687483 0.964031
vt 0.681115 0.964031
vt 0.887778 0.953909
vt 0.887778 0.984523
vt 0.893670 0.984523
vt 0.893670 0.953909
vt 0.681115 0.964031
vt 0.681115 0.994644
vt 0.675223 0.994644
vt 0.674984 0.973624
vt 0.674767 0.971954
vt 0.674746 0.980958
vt 0.674746 0.977717
vt 0.674810 0.970874
vt 0.674984 0.965864
vt 0.675223 0.964031
vt 0.687483 0.964031
vt 0.687483 0.994644
vt 0.681115 0.994644
vt 0.681115 0.964031
vt 0.687483 0.969524
vt 0.687483 0.989151
vt 0.681115 0.989151
vt 0.681115 0.969524
vt 0.681115 0.994644
vt 0.681115 0.964031
vt 0.681115 0.964031
vt 0.681115 0.969524
vt 0.681115 0.989151
vt 0.681115 0.994644
vt 0.937152 0.960657
vt 0.937152 0.991270
vt 0.937152 0.991270
vt 0.937152 0.985777
vt 0.937152 0.966150
vt 0.937152 0.960657
vt 0.681115 0.994644
vt 0.687483 0.994644
vt 0.687483 0.994644
vt 0.681115 0.994644
vt 0.687483 0.969524
vt 0.681115 0.969524
vt 0.681115 0.964031
vt 0.687483 0.964031
vt 0.687483 0.994644
vt 0.681115 0.994644
vt 0.681115 0.989151
vt 0.687483 0.989151
vt 0.687483 0.994644
vt 0.681115 0.994644
vt 0.681115 0.994644
vt 0.687483 0.994644
vt 0.687483 0.964031
vt 0.687483 0.994644
vt 0.700221 0.994644
vt 0.701489 0.992777
vt 0.702417 0.987676
vt 0.702757 0.980707
vt 0.702757 0.977968
vt 0.702417 0.970999
vt 0.701489 0.965898
vt 0.700221 0.964031
vt 0.900039 0.953909
vt 0.900039 0.984523
vt 0.912776 0.984523
vt 0.912776 0.953909
vt 0.702757 0.980707
vt 0.672143 0.980707
vt 0.672143 0.977968
vt 0.702757 0.977968
vt 0.700221 0.994644
vt 0.700221 0.964031
vt 0.701489 0.964031
vt 0.701489 0.994644
vt 0.701489 0.994644
vt 0.701489 0.964031
vt 0.702757 0.964031
vt 0.702757 0.994644
vt 0.702757 0.987676
vt 0.672143 0.987676
vt 0.672143 0.980707
vt 0.702757 0.980707
vt 0.700221 0.964031
vt 0.700221 0.994644
vt 0.701489 0.994644
vt 0.701489 0.964030
vt 0.701489 0.964030
vt 0.701489 0.994644
vt 0.702757 0.994644
vt 0.702757 0.964031
vt 0.672143 0.970999
vt 0.702757 0.970999
vt 0.702757 0.977968
vt 0.672143 0.977968
vt 0.700221 0.964031
vt 0.700221 0.994644
vt 0.687483 0.994644
vt 0.687483 0.964031
vt 0.702757 0.980707
vt 0.702418 0.987676
vt 0.701489 0.992777
vt 0.700221 0.994644
vt 0.687483 0.994644
vt 0.687483 0.964031
vt 0.700221 0.964031
vt 0.701489 0.965898
vt 0.702417 0.970999
vt 0.702757 0.977968
vt 0.887778 0.984523
vt 0.887778 0.953909
vt 0.887540 0.953909
vt 0.887540 0.984523
vt 0.887540 0.984523
vt 0.887540 0.953909
vt 0.887302 0.953909
vt 0.887302 0.984523
vt 0.674746 0.994644
vt 0.674746 0.964031
vt 0.674746 0.964031
vt 0.674746 0.994644
vt 0.675223 0.964031
vt 0.675223 0.994644
vt 0.674984 0.994033
vt 0.674984 0.973624
vt 0.674984 0.973624
vt 0.674984 0.994033
vt 0.674767 0.992363
vt 0.674767 0.971954
vt 0.674767 0.971954
vt 0.674767 0.992363
vt 0.674746 0.994644
vt 0.674746 0.964031
vt 0.681115 0.964031
vt 0.681115 0.994644
vt 0.675223 0.994644
vt 0.675223 0.964031
vt 0.843628 0.624534
vt 0.843628 0.567440
vt 0.855869 0.567440
vt 0.855869 0.624534
vt 0.855869 0.624534
vt 0.855869 0.567440
vt 0.862606 0.567440
vt 0.862606 0.624534
vt 0.862606 0.624534
vt 0.862606 0.567440
vt 0.859892 0.567440
vt 0.859892 0.624534
vt 0.859892 0.624534
vt 0.859892 0.567440
vt 0.849317 0.567440
vt 0.849317 0.624534
vt 0.849317 0.624534
vt 0.849317 0.567440
vt 0.837076 0.567440
vt 0.837076 0.624534
vt 0.837076 0.624534
vt 0.837076 0.567440
vt 0.830339 0.567440
vt 0.830339 0.624534
vt 0.888683 0.638255
vt 0.884549 0.639968
vt 0.880416 0.638255
vt 0.878704 0.634122
vt 0.880416 0.629988
vt 0.884549 0.628276
vt 0.888683 0.629988
vt 0.890395 0.634122
vt 0.833053 0.624534
vt 0.833053 0.567440
vt 0.843628 0.567440
vt 0.843628 0.624534
vt 0.830339 0.624534
vt 0.830339 0.567440
vt 0.833053 0.567440
vt 0.833053 0.624534
vt 0.850811 0.636594
vt 0.854944 0.634881
vt 0.856656 0.630748
vt 0.854944 0.626614
vt 0.850811 0.624902
vt 0.846677 0.626614
vt 0.844965 0.630748
vt 0.846677 0.634881
vt 0.687483 0.964031
vt 0.687483 0.994644
vt 0.700221 0.994644
vt 0.701489 0.992777
vt 0.702417 0.987676
vt 0.702757 0.980707
vt 0.702757 0.977968
vt 0.702417 0.970999
vt 0.701489 0.965898
vt 0.700221 0.964031
vt 0.900039 0.953909
vt 0.900039 0.984523
vt 0.912776 0.984523
vt 0.912776 0.953909
vt 0.702757 0.980707
vt 0.672143 0.980707
vt 0.672143 0.977968
vt 0.702757 0.977968
vt 0.700221 0.994644
vt 0.700221 0.964031
vt 0.701489 0.964031
vt 0.701489 0.994644
vt 0.701489 0.994644
vt 0.701489 0.964031
vt 0.702757 0.964031
vt 0.702757 0.994644
vt 0.702757 0.987676
vt 0.672143 0.987676
vt 0.672143 0.980707
vt 0.702757 0.980707
vt 0.700221 0.964031
vt 0.700221 0.994644
vt 0.701489 0.994644
vt 0.701489 0.964030
vt 0.701489 0.964030
vt 0.701489 0.994644
vt 0.702757 0.994644
vt 0.702757 0.964031
vt 0.672143 0.970999
vt 0.702757 0.970999
vt 0.702757 0.977968
vt 0.672143 0.977968
vt 0.700221 0.964031
vt 0.700221 0.994644
vt 0.687483 0.994644
vt 0.687483 0.964031
vt 0.702757 0.980707
vt 0.702418 0.987676
vt 0.701489 0.992777
vt 0.700221 0.994644
vt 0.687483 0.994644
vt 0.687483 0.964031
vt 0.700221 0.964031
vt 0.701489 0.965898
vt 0.702417 0.970999
vt 0.702757 0.977968
vt 0.687483 0.964031
vt 0.687483 0.994644
vt 0.700221 0.994644
vt 0.701489 0.992777
vt 0.702417 0.987676
vt 0.702757 0.980707
vt 0.702757 0.977968
vt 0.702417 0.970999
vt 0.701489 0.965898
vt 0.700221 0.964031
vt 0.900039 0.953909
vt 0.900039 0.984523
vt 0.912776 0.984523
vt 0.912776 0.953909
vt 0.702757 0.980707
vt 0.672143 0.980707
vt 0.672143 0.977968
vt 0.702757 0.977968
vt 0.700221 0.994644
vt 0.700221 0.964031
vt 0.701489 0.964031
vt 0.701489 0.994644
vt 0.701489 0.994644
vt 0.701489 0.964031
vt 0.702757 0.964031
vt 0.702757 0.994644
vt 0.702757 0.987676
vt 0.672143 0.987676
vt 0.672143 0.980707
vt 0.702757 0.980707
vt 0.700221 0.964031
vt 0.700221 0.994644
vt 0.701489 0.994644
vt 0.701489 0.964030
vt 0.701489 0.964030
vt 0.701489 0.994644
vt 0.702757 0.994644
vt 0.702757 0.964031
vt 0.672143 0.970999
vt 0.702757 0.970999
vt 0.702757 0.977968
vt 0.672143 0.977968
vt 0.700221 0.964031
vt 0.700221 0.994644
vt 0.687483 0.994644
vt 0.687483 0.964031
vt 0.702757 0.980707
vt 0.702418 0.987676
vt 0.701489 0.992777
vt 0.700221 0.994644
vt 0.687483 0.994644
vt 0.687483 0.964031
vt 0.700221 0.964031
vt 0.701489 0.965898
vt 0.702417 0.970999
vt 0.702757 0.977968
vt 0.818759 0.612036
vt 0.818759 0.579784
vt 0.822892 0.579784
vt 0.822892 0.612036
vt 0.805827 0.589631
vt 0.773576 0.589631
vt 0.773576 0.585498
vt 0.805827 0.585498
vt 0.805827 0.585498
vt 0.773576 0.585498
vt 0.773576 0.581364
vt 0.805827 0.581364
vt 0.822892 0.612036
vt 0.822892 0.579784
vt 0.818759 0.579784
vt 0.818759 0.612036
vt 0.818759 0.612036
vt 0.818759 0.579784
vt 0.814625 0.579784
vt 0.814625 0.612036
vt 0.969461 0.576303
vt 0.937210 0.576303
vt 0.937210 0.580437
vt 0.969461 0.580437
vt 0.888683 0.638255
vt 0.884549 0.639968
vt 0.880416 0.638255
vt 0.878704 0.634122
vt 0.880416 0.629988
vt 0.884549 0.628276
vt 0.888683 0.629988
vt 0.890395 0.634122
vt 0.814625 0.612036
vt 0.814625 0.579784
vt 0.818759 0.579784
vt 0.818759 0.612036
vt 0.969461 0.580437
vt 0.937210 0.580437
vt 0.937210 0.584570
vt 0.969461 0.584570
vt 0.818759 0.638281
vt 0.822892 0.636568
vt 0.824604 0.632435
vt 0.822892 0.628301
vt 0.818759 0.626589
vt 0.814625 0.628301
vt 0.812913 0.632435
vt 0.814625 0.636568
vt 0.821289 0.603601
vt 0.821289 0.571350
vt 0.825422 0.571350
vt 0.825422 0.603601
vt 0.808358 0.581196
vt 0.776106 0.581196
vt 0.776106 0.577063
vt 0.808358 0.577063
vt 0.808358 0.577063
vt 0.776106 0.577063
vt 0.776106 0.572929
vt 0.808358 0.572929
vt 0.986526 0.606975
vt 0.986526 0.574724
vt 0.982392 0.574724
vt 0.982392 0.606975
vt 0.982392 0.606975
vt 0.982392 0.574724
vt 0.978259 0.574724
vt 0.978259 0.606975
vt 0.969461 0.576303
vt 0.937210 0.576303
vt 0.937210 0.580437
vt 0.969461 0.580437
vt 0.825422 0.628134
vt 0.821289 0.629846
vt 0.817155 0.628134
vt 0.815443 0.624000
vt 0.817155 0.619867
vt 0.821289 0.618154
vt 0.825422 0.619867
vt 0.827135 0.624000
vt 0.817155 0.603601
vt 0.817155 0.571350
vt 0.821289 0.571350
vt 0.821289 0.603601
vt 0.969461 0.580437
vt 0.937210 0.580437
vt 0.937210 0.584570
vt 0.969461 0.584570
vt 0.821289 0.629846
vt 0.825422 0.628134
vt 0.827135 0.624000
vt 0.825422 0.619867
vt 0.821289 0.618154
vt 0.817155 0.619867
vt 0.815443 0.624000
vt 0.817155 0.628134
vt 0.385452 0.481867
vt 0.385452 0.554370
vt 0.373253 0.554370
vt 0.373253 0.481867
vt 0.373253 0.481867
vt 0.373253 0.554370
vt 0.361053 0.554370
vt 0.361053 0.481867
vt 0.361053 0.481867
vt 0.361053 0.554370
vt 0.348854 0.554370
vt 0.348854 0.481867
vt 0.348854 0.481867
vt 0.348854 0.554370
vt 0.336654 0.554370
vt 0.336654 0.481867
vt 0.336654 0.481867
vt 0.336654 0.554370
vt 0.324455 0.554370
vt 0.324455 0.481867
vt 0.324455 0.481867
vt 0.324455 0.554370
vt 0.312255 0.554370
vt 0.312255 0.481867
vt 0.312255 0.481867
vt 0.312255 0.554370
vt 0.300056 0.554370
vt 0.300056 0.481867
vt 0.300056 0.481867
vt 0.300056 0.554370
vt 0.287856 0.554370
vt 0.287856 0.481867
vt 0.287856 0.481867
vt 0.287856 0.554370
vt 0.275656 0.554370
vt 0.275656 0.481867
vt 0.275656 0.481867
vt 0.275656 0.554370
vt 0.263457 0.554370
vt 0.263457 0.481867
vt 0.263457 0.481867
vt 0.263457 0.554370
vt 0.251257 0.554370
vt 0.251257 0.481867
vt 0.251257 0.481867
vt 0.251257 0.554370
vt 0.239057 0.554370
vt 0.239057 0.481867
vt 0.239057 0.481867
vt 0.239057 0.554370
vt 0.226858 0.554370
vt 0.226858 0.481867
vt 0.226858 0.481867
vt 0.226858 0.554370
vt 0.214658 0.554370
vt 0.214658 0.481867
vt 0.214658 0.481867
vt 0.214658 0.554370
vt 0.202459 0.554370
vt 0.202459 0.481867
vt 0.202459 0.481867
vt 0.202459 0.554370
vt 0.190259 0.554370
vt 0.190259 0.481867
vt 0.190259 0.481867
vt 0.190259 0.554370
vt 0.178059 0.554370
vt 0.178059 0.481867
vt 0.178059 0.481867
vt 0.178059 0.554370
vt 0.165860 0.554370
vt 0.165860 0.481867
vt 0.165860 0.481867
vt 0.165860 0.554370
vt 0.153660 0.554370
vt 0.153660 0.481867
vt 0.153660 0.481867
vt 0.153660 0.554370
vt 0.141461 0.554370
vt 0.141461 0.481867
vt 0.141461 0.481867
vt 0.141461 0.554370
vt 0.129261 0.554370
vt 0.129261 0.481867
vt 0.129261 0.481867
vt 0.129261 0.554370
vt 0.117061 0.554370
vt 0.117061 0.481867
vt 0.117061 0.481867
vt 0.117061 0.554370
vt 0.104862 0.554370
vt 0.104862 0.481867
vt 0.104862 0.481867
vt 0.104862 0.554370
vt 0.092662 0.554370
vt 0.092662 0.481867
vt 0.092662 0.481867
vt 0.092662 0.554370
vt 0.080463 0.554370
vt 0.080463 0.481867
vt 0.080463 0.481867
vt 0.080463 0.554370
vt 0.068263 0.554370
vt 0.068263 0.481867
vt 0.068263 0.481867
vt 0.068263 0.554370
vt 0.056063 0.554370
vt 0.056063 0.481867
vt 0.056063 0.481867
vt 0.056063 0.554370
vt 0.043864 0.554370
vt 0.043864 0.481867
vt 0.043864 0.481867
vt 0.043864 0.554370
vt 0.031664 0.554370
vt 0.031664 0.481867
vt 0.031664 0.481867
vt 0.031664 0.554370
vt 0.019465 0.554370
vt 0.019465 0.481867
vt 0.397652 0.481867
vt 0.397652 0.554370
vt 0.385452 0.554370
vt 0.385452 0.481867
vt 0.019465 0.481867
vt 0.019465 0.554370
vt 0.007265 0.554370
vt 0.007265 0.481867
vt 0.810223 0.994956
vt 0.856804 0.994956
vt 0.856804 0.855212
vt 0.810223 0.855212
vt 0.786932 0.994956
vt 0.856804 0.994956
vt 0.856804 0.855212
vt 0.786932 0.855212
vt 0.856804 0.948375
vt 0.856804 0.994956
vt 0.856804 0.994956
vt 0.856804 0.948375
vt 0.786932 0.994956
vt 0.717060 0.994956
vt 0.717060 0.855212
vt 0.786932 0.855212
vt 0.786932 0.948375
vt 0.786932 0.994956
vt 0.856804 0.994956
vt 0.856804 0.948375
vt 0.556258 0.627666
vt 0.556258 0.640449
vt 0.537083 0.640449
vt 0.537083 0.627666
vt 0.763641 0.994956
vt 0.717060 0.994956
vt 0.717060 0.855212
vt 0.763641 0.855212
vt 0.575434 0.614882
vt 0.575434 0.602098
vt 0.575434 0.602098
vt 0.575434 0.614882
vt 0.856804 0.855212
vt 0.856804 0.994956
vt 0.856804 0.994956
vt 0.856804 0.855212
vt 0.856804 0.994956
vt 0.856804 0.855212
vt 0.856804 0.855212
vt 0.856804 0.994956
vt 0.575434 0.640449
vt 0.575434 0.627666
vt 0.575434 0.627666
vt 0.575434 0.640449
vt 0.575434 0.627666
vt 0.575434 0.614882
vt 0.575434 0.614882
vt 0.575434 0.627666
vt 0.856804 0.994956
vt 0.810223 0.994956
vt 0.810223 0.855212
vt 0.856804 0.855212
vt 0.810223 0.994956
vt 0.763641 0.994956
vt 0.763641 0.855212
vt 0.810223 0.855212
vt 0.556258 0.602098
vt 0.556258 0.614882
vt 0.537083 0.614882
vt 0.537083 0.602098
vt 0.556258 0.614882
vt 0.556258 0.627666
vt 0.537083 0.627666
vt 0.537083 0.614882
vt 0.786932 0.855212
vt 0.786932 0.901793
vt 0.856804 0.901793
vt 0.856804 0.855212
vt 0.786932 0.901793
vt 0.786932 0.948375
vt 0.856804 0.948375
vt 0.856804 0.901793
vt 0.856804 0.855212
vt 0.856804 0.901793
vt 0.856804 0.901793
vt 0.856804 0.855212
vt 0.856804 0.901793
vt 0.856804 0.948375
vt 0.856804 0.948375
vt 0.856804 0.901793
vt 0.717060 0.994956
vt 0.763641 0.994956
vt 0.763641 0.855212
vt 0.717060 0.855212
vt 0.763641 0.994956
vt 0.810223 0.994956
vt 0.810223 0.855212
vt 0.763641 0.855212
vt 0.717060 0.901793
vt 0.717060 0.948375
vt 0.786932 0.948375
vt 0.786932 0.901793
vt 0.717060 0.855212
vt 0.717060 0.901793
vt 0.786932 0.901793
vt 0.786932 0.855212
vt 0.575434 0.614882
vt 0.575434 0.627666
vt 0.556258 0.627666
vt 0.556258 0.614882
vt 0.575434 0.602098
vt 0.575434 0.614882
vt 0.556258 0.614882
vt 0.556258 0.602098
vt 0.575434 0.627666
vt 0.575434 0.640449
vt 0.556258 0.640449
vt 0.556258 0.627666
vt 0.717060 0.948375
vt 0.717060 0.994956
vt 0.786932 0.994956
vt 0.786932 0.948375
vt 0.856804 0.994956
vt 0.786932 0.994956
vt 0.786932 0.855212
vt 0.856804 0.855212
vt 0.717060 0.994956
vt 0.786932 0.994956
vt 0.786932 0.855212
vt 0.717060 0.855212
vt 0.507324 0.714115
vt 0.516598 0.714115
vt 0.516598 0.751215
vt 0.504083 0.747744
vt 0.525873 0.714115
vt 0.535148 0.714115
vt 0.539162 0.738848
vt 0.529114 0.747744
vt 0.498049 0.714115
vt 0.507324 0.714115
vt 0.504083 0.747744
vt 0.494035 0.738848
vt 0.516598 0.714115
vt 0.525873 0.714115
vt 0.529114 0.747744
vt 0.516598 0.751215
vt 0.535148 0.714115
vt 0.544423 0.714115
vt 0.546969 0.727059
vt 0.539162 0.738848
vt 0.494035 0.738848
vt 0.504083 0.747744
vt 0.479499 0.769765
vt 0.479499 0.751215
vt 0.516598 0.751215
vt 0.529114 0.747744
vt 0.553698 0.769765
vt 0.516598 0.788315
vt 0.539162 0.738848
vt 0.546969 0.727059
vt 0.553698 0.732665
vt 0.553698 0.751215
vt 0.486228 0.727059
vt 0.494035 0.738848
vt 0.479499 0.751215
vt 0.479499 0.732665
vt 0.504083 0.747744
vt 0.516598 0.751215
vt 0.516598 0.788315
vt 0.479499 0.769765
vt 0.529114 0.747744
vt 0.539162 0.738848
vt 0.553698 0.751215
vt 0.553698 0.769765
vt 0.553698 0.751215
vt 0.553698 0.732665
vt 0.560428 0.727059
vt 0.568235 0.738848
vt 0.627898 0.732665
vt 0.627898 0.751215
vt 0.613361 0.738848
vt 0.621168 0.727059
vt 0.627898 0.769765
vt 0.664998 0.788315
vt 0.590798 0.751215
vt 0.603314 0.747744
vt 0.553698 0.769765
vt 0.553698 0.751215
vt 0.568235 0.738848
vt 0.578283 0.747744
vt 0.627898 0.751215
vt 0.627898 0.769765
vt 0.603314 0.747744
vt 0.613361 0.738848
vt 0.516598 0.788315
vt 0.553698 0.769765
vt 0.578283 0.747744
vt 0.590798 0.751215
vt 0.621168 0.727059
vt 0.613361 0.738848
vt 0.609348 0.714115
vt 0.618623 0.714115
vt 0.603314 0.747744
vt 0.590798 0.751215
vt 0.590798 0.714115
vt 0.600073 0.714115
vt 0.578283 0.747744
vt 0.568235 0.738848
vt 0.572248 0.714115
vt 0.581523 0.714115
vt 0.613361 0.738848
vt 0.603314 0.747744
vt 0.600073 0.714115
vt 0.609348 0.714115
vt 0.590798 0.751215
vt 0.578283 0.747744
vt 0.581523 0.714115
vt 0.590798 0.714115
vt 0.568235 0.738848
vt 0.560428 0.727059
vt 0.562973 0.714115
vt 0.572248 0.714115
vt 0.609348 0.714115
vt 0.600073 0.714115
vt 0.603314 0.680487
vt 0.613361 0.689382
vt 0.590798 0.714115
vt 0.581523 0.714115
vt 0.578283 0.680487
vt 0.590798 0.677015
vt 0.572248 0.714115
vt 0.562973 0.714115
vt 0.560428 0.701172
vt 0.568235 0.689382
vt 0.618623 0.714115
vt 0.609348 0.714115
vt 0.613361 0.689382
vt 0.621168 0.701172
vt 0.600073 0.714115
vt 0.590798 0.714115
vt 0.590798 0.677015
vt 0.603314 0.680487
vt 0.581523 0.714115
vt 0.572248 0.714115
vt 0.568235 0.689382
vt 0.578283 0.680487
vt 0.613361 0.689382
vt 0.603314 0.680487
vt 0.627898 0.658465
vt 0.627898 0.677015
vt 0.590798 0.677015
vt 0.578283 0.680487
vt 0.553698 0.658465
vt 0.656854 0.639915
vt 0.568235 0.689382
vt 0.560428 0.701172
vt 0.553698 0.695565
vt 0.553698 0.677015
vt 0.621168 0.701172
vt 0.613361 0.689382
vt 0.627898 0.677015
vt 0.627898 0.695565
vt 0.603314 0.680487
vt 0.590798 0.677015
vt 0.656854 0.639915
vt 0.627898 0.658465
vt 0.578283 0.680487
vt 0.568235 0.689382
vt 0.553698 0.677015
vt 0.553698 0.658465
vt 0.479499 0.695565
vt 0.479499 0.677015
vt 0.494035 0.689382
vt 0.486228 0.701172
vt 0.479499 0.658465
vt 0.508455 0.639915
vt 0.516598 0.677015
vt 0.504083 0.680487
vt 0.553698 0.658465
vt 0.553698 0.677015
vt 0.539162 0.689382
vt 0.529114 0.680487
vt 0.479499 0.677015
vt 0.479499 0.658465
vt 0.504083 0.680487
vt 0.494035 0.689382
vt 0.508455 0.639915
vt 0.553698 0.658465
vt 0.529114 0.680487
vt 0.516598 0.677015
vt 0.553698 0.677015
vt 0.553698 0.695565
vt 0.546969 0.701172
vt 0.539162 0.689382
vt 0.544423 0.714115
vt 0.553698 0.714115
vt 0.546969 0.727059
vt 0.479499 0.714115
vt 0.488774 0.714115
vt 0.486228 0.727059
vt 0.488774 0.714115
vt 0.498049 0.714115
vt 0.494035 0.738848
vt 0.486228 0.727059
vt 0.479499 0.714115
vt 0.486228 0.727059
vt 0.479499 0.732665
vt 0.546969 0.727059
vt 0.553698 0.714115
vt 0.553698 0.732665
vt 0.553698 0.732665
vt 0.553698 0.714115
vt 0.560428 0.727059
vt 0.627898 0.714115
vt 0.627898 0.732665
vt 0.621168 0.727059
vt 0.560428 0.727059
vt 0.553698 0.714115
vt 0.562973 0.714115
vt 0.627898 0.714115
vt 0.621168 0.727059
vt 0.618623 0.714115
vt 0.562973 0.714115
vt 0.553698 0.714115
vt 0.560428 0.701172
vt 0.627898 0.714115
vt 0.618623 0.714115
vt 0.621168 0.701172
vt 0.560428 0.701172
vt 0.553698 0.714115
vt 0.553698 0.695565
vt 0.627898 0.714115
vt 0.621168 0.701172
vt 0.627898 0.695565
vt 0.553698 0.695565
vt 0.553698 0.714115
vt 0.546969 0.701172
vt 0.479499 0.714115
vt 0.479499 0.695565
vt 0.486228 0.701172
vt 0.504083 0.680487
vt 0.516598 0.677015
vt 0.516598 0.714115
vt 0.507324 0.714115
vt 0.529114 0.680487
vt 0.539162 0.689382
vt 0.535148 0.714115
vt 0.525873 0.714115
vt 0.546969 0.701172
vt 0.553698 0.714115
vt 0.544423 0.714115
vt 0.479499 0.714115
vt 0.486228 0.701172
vt 0.488774 0.714115
vt 0.494035 0.689382
vt 0.504083 0.680487
vt 0.507324 0.714115
vt 0.498049 0.714115
vt 0.516598 0.677015
vt 0.529114 0.680487
vt 0.525873 0.714115
vt 0.516598 0.714115
vt 0.539162 0.689382
vt 0.546969 0.701172
vt 0.544423 0.714115
vt 0.535148 0.714115
vt 0.486228 0.701172
vt 0.494035 0.689382
vt 0.498049 0.714115
vt 0.488774 0.714115
vt 0.702757 0.980707
vt 0.672143 0.980707
vt 0.672143 0.977968
vt 0.702757 0.977968
vt 0.687483 0.964031
vt 0.687483 0.994644
vt 0.700221 0.994644
vt 0.701489 0.992777
vt 0.702417 0.987676
vt 0.702757 0.980707
vt 0.702757 0.977968
vt 0.702417 0.970999
vt 0.701489 0.965898
vt 0.700221 0.964031
vt 0.900039 0.953909
vt 0.900039 0.984523
vt 0.912776 0.984523
vt 0.912776 0.953909
vt 0.700221 0.964031
vt 0.700221 0.994644
vt 0.701489 0.994644
vt 0.701489 0.964030
vt 0.701489 0.964030
vt 0.701489 0.994644
vt 0.702757 0.994644
vt 0.702757 0.964031
vt 0.672143 0.970999
vt 0.702757 0.970999
vt 0.702757 0.977968
vt 0.672143 0.977968
vt 0.700221 0.994644
vt 0.700221 0.964031
vt 0.701489 0.964031
vt 0.701489 0.994644
vt 0.701489 0.994644
vt 0.701489 0.964031
vt 0.702757 0.964031
vt 0.702757 0.994644
vt 0.702757 0.987676
vt 0.672143 0.987676
vt 0.672143 0.980707
vt 0.702757 0.980707
vt 0.700221 0.964031
vt 0.700221 0.994644
vt 0.687483 0.994644
vt 0.687483 0.964031
vt 0.702757 0.980707
vt 0.702418 0.987676
vt 0.701489 0.992777
vt 0.700221 0.994644
vt 0.687483 0.994644
vt 0.687483 0.964031
vt 0.700221 0.964031
vt 0.701489 0.965898
vt 0.702417 0.970999
vt 0.702757 0.977968
vt 0.700221 0.964031
vt 0.700221 0.994644
vt 0.687483 0.994644
vt 0.687483 0.964031
vt 0.702757 0.987676
vt 0.672143 0.987676
vt 0.672143 0.980707
vt 0.702757 0.980707
vt 0.701489 0.994644
vt 0.701489 0.964031
vt 0.702757 0.964031
vt 0.702757 0.994644
vt 0.700221 0.994644
vt 0.700221 0.964031
vt 0.701489 0.964031
vt 0.701489 0.994644
vt 0.672143 0.970999
vt 0.702757 0.970999
vt 0.702757 0.977968
vt 0.672143 0.977968
vt 0.701489 0.964030
vt 0.701489 0.994644
vt 0.702757 0.994644
vt 0.702757 0.964031
vt 0.700221 0.964031
vt 0.700221 0.994644
vt 0.701489 0.994644
vt 0.701489 0.964030
vt 0.900039 0.953909
vt 0.900039 0.984523
vt 0.912776 0.984523
vt 0.912776 0.953909
vt 0.687483 0.964031
vt 0.687483 0.994644
vt 0.700221 0.994644
vt 0.701489 0.992777
vt 0.702417 0.987676
vt 0.702757 0.980707
vt 0.702757 0.977968
vt 0.702417 0.970999
vt 0.701489 0.965898
vt 0.700221 0.964031
vt 0.702757 0.980707
vt 0.672143 0.980707
vt 0.672143 0.977968
vt 0.702757 0.977968
vt 0.687483 0.964031
vt 0.687483 0.994644
vt 0.700221 0.994644
vt 0.701489 0.992777
vt 0.702417 0.987676
vt 0.702757 0.980707
vt 0.702757 0.977968
vt 0.702417 0.970999
vt 0.701489 0.965898
vt 0.700221 0.964031
vt 0.900039 0.953909
vt 0.900039 0.984523
vt 0.912776 0.984523
vt 0.912776 0.953909
vt 0.702757 0.980707
vt 0.672143 0.980707
vt 0.672143 0.977968
vt 0.702757 0.977968
vt 0.702757 0.980707
vt 0.672143 0.980707
vt 0.672143 0.977968
vt 0.702757 0.977968
vt 0.687483 0.964031
vt 0.687483 0.994644
vt 0.700221 0.994644
vt 0.701489 0.992777
vt 0.702417 0.987676
vt 0.702757 0.980707
vt 0.702757 0.977968
vt 0.702417 0.970999
vt 0.701489 0.965898
vt 0.700221 0.964031
vt 0.900039 0.953909
vt 0.900039 0.984523
vt 0.912776 0.984523
vt 0.912776 0.953909
vt 0.700221 0.994644
vt 0.700221 0.964031
vt 0.701489 0.964031
vt 0.701489 0.994644
vt 0.701489 0.994644
vt 0.701489 0.964031
vt 0.702757 0.964031
vt 0.702757 0.994644
vt 0.702757 0.987676
vt 0.672143 0.987676
vt 0.672143 0.980707
vt 0.702757 0.980707
vt 0.700221 0.964031
vt 0.700221 0.994644
vt 0.701489 0.994644
vt 0.701489 0.964030
vt 0.701489 0.964030
vt 0.701489 0.994644
vt 0.702757 0.994644
vt 0.702757 0.964031
vt 0.672143 0.970999
vt 0.702757 0.970999
vt 0.702757 0.977968
vt 0.672143 0.977968
vt 0.700221 0.964031
vt 0.700221 0.994644
vt 0.701489 0.994644
vt 0.701489 0.964030
vt 0.701489 0.964030
vt 0.701489 0.994644
vt 0.702757 0.994644
vt 0.702757 0.964031
vt 0.672143 0.970999
vt 0.702757 0.970999
vt 0.702757 0.977968
vt 0.672143 0.977968
vt 0.700221 0.994644
vt 0.700221 0.964031
vt 0.701489 0.964031
vt 0.701489 0.994644
vt 0.701489 0.994644
vt 0.701489 0.964031
vt 0.702757 0.964031
vt 0.702757 0.994644
vt 0.702757 0.987676
vt 0.672143 0.987676
vt 0.672143 0.980707
vt 0.702757 0.980707
vt 0.700221 0.964031
vt 0.700221 0.994644
vt 0.687483 0.994644
vt 0.687483 0.964031
vt 0.700221 0.964031
vt 0.700221 0.994644
vt 0.687483 0.994644
vt 0.687483 0.964031
vt 0.702757 0.980707
vt 0.702418 0.987676
vt 0.701489 0.992777
vt 0.700221 0.994644
vt 0.687483 0.994644
vt 0.687483 0.964031
vt 0.700221 0.964031
vt 0.701489 0.965898
vt 0.702417 0.970999
vt 0.702757 0.977968
vt 0.702757 0.980707
vt 0.702418 0.987676
vt 0.701489 0.992777
vt 0.700221 0.994644
vt 0.687483 0.994644
vt 0.687483 0.964031
vt 0.700221 0.964031
vt 0.701489 0.965898
vt 0.702417 0.970999
vt 0.702757 0.977968
vt 0.821289 0.603601
vt 0.821289 0.571350
vt 0.825422 0.571350
vt 0.825422 0.603601
vt 0.808358 0.581196
vt 0.776106 0.581196
vt 0.776106 0.577063
vt 0.808358 0.577063
vt 0.808358 0.577063
vt 0.776106 0.577063
vt 0.776106 0.572929
vt 0.808358 0.572929
vt 0.986526 0.606975
vt 0.986526 0.574724
vt 0.982392 0.574724
vt 0.982392 0.606975
vt 0.982392 0.606975
vt 0.982392 0.574724
vt 0.978259 0.574724
vt 0.978259 0.606975
vt 0.969461 0.576303
vt 0.937210 0.576303
vt 0.937210 0.580437
vt 0.969461 0.580437
vt 0.825422 0.628134
vt 0.821289 0.629846
vt 0.817155 0.628134
vt 0.815443 0.624000
vt 0.817155 0.619867
vt 0.821289 0.618154
vt 0.825422 0.619867
vt 0.827135 0.624000
vt 0.817155 0.603601
vt 0.817155 0.571350
vt 0.821289 0.571350
vt 0.821289 0.603601
vt 0.969461 0.580437
vt 0.937210 0.580437
vt 0.937210 0.584570
vt 0.969461 0.584570
vt 0.821289 0.629846
vt 0.825422 0.628134
vt 0.827135 0.624000
vt 0.825422 0.619867
vt 0.821289 0.618154
vt 0.817155 0.619867
vt 0.815443 0.624000
vt 0.817155 0.628134
vt 0.702757 0.980707
vt 0.702418 0.987676
vt 0.701489 0.992777
vt 0.700221 0.994644
vt 0.687483 0.994644
vt 0.687483 0.964031
vt 0.700221 0.964031
vt 0.701489 0.965898
vt 0.702417 0.970999
vt 0.702757 0.977968
vn -0.984808 0.173648 0.000001
f 18/1/1 14/2/1 3/3/1
f 18/1/1 3/3/1 10/4/1
vn 0.173114 0.981781 0.078348
f 14/5/2 15/6/2 7/7/2
f 14/5/2 7/7/2 3/8/2
vn 0.495523 -0.866313 0.062919
f 17/9/3 16/10/3 5/11/3
f 17/9/3 5/11/3 12/12/3
vn -0.173114 -0.981781 0.078346
f 16/13/4 13/14/4 1/15/4
f 16/13/4 1/15/4 5/16/4
vn 0.000000 0.000000 -1.000000
f 10/17/5 3/18/5 7/19/5
f 10/17/5 7/19/5 12/20/5
vn 0.000000 0.000000 1.000000
f 11/21/6 8/22/6 4/23/6
f 11/21/6 4/23/6 9/24/6
vn 0.000000 -0.000000 1.000000
f 6/25/7 11/26/7 9/27/7
f 6/25/7 9/27/7 2/28/7
vn 0.000000 0.000000 -1.000000
f 1/29/8 10/30/8 12/31/8
f 1/29/8 12/31/8 5/32/8
vn 0.763448 0.645869 0.000438
f 15/33/9 17/34/9 12/35/9
f 15/33/9 12/35/9 7/36/9
vn -0.984808 0.173648 0.000000
f 13/37/10 18/38/10 10/39/10
f 13/37/10 10/39/10 1/40/10
vn -0.984808 0.173648 0.000000
f 2/41/11 9/42/11 18/43/11
f 2/41/11 18/43/11 13/44/11
vn 0.644573 0.482336 0.593193
f 8/45/12 11/46/12 17/47/12
f 8/45/12 17/47/12 15/48/12
vn -0.150553 -0.853829 0.498307
f 6/49/13 2/50/13 13/51/13
f 6/49/13 13/51/13 16/52/13
vn 0.466916 -0.713728 0.522094
f 11/53/14 6/54/14 16/55/14
f 11/53/14 16/55/14 17/56/14
vn 0.150553 0.853829 0.498307
f 4/57/15 8/58/15 15/59/15
f 4/57/15 15/59/15 14/60/15
vn -0.984808 0.173648 -0.000000
f 9/61/16 4/62/16 14/63/16
f 9/61/16 14/63/16 18/64/16
vn -0.000531 -0.003012 0.999995
f 27/65/17 30/66/17 25/67/17
f 27/65/17 25/67/17 24/68/17
vn -0.171864 -0.974687 0.142998
f 29/69/18 30/70/18 27/71/18
f 29/69/18 27/71/18 28/72/18
f 29/69/18 28/72/18 21/73/18
f 29/69/18 21/73/18 22/74/18
vn 0.171526 0.972774 0.155855
f 23/75/19 24/76/19 25/77/19
f 23/75/19 25/77/19 26/78/19
f 23/75/19 26/78/19 20/79/19
f 23/75/19 20/79/19 19/80/19
vn 0.000000 0.000000 -1.000000
f 19/81/20 20/82/20 22/83/20
f 19/81/20 22/83/20 21/84/20
vn 0.970879 -0.171567 0.167210
f 26/85/21 29/86/21 22/87/21
f 26/85/21 22/87/21 20/88/21
vn 0.635070 -0.114352 0.763944
f 25/89/22 30/90/22 29/91/22
f 25/89/22 29/91/22 26/92/22
vn -0.636122 0.109794 0.763737
f 27/93/23 24/94/23 23/95/23
f 27/93/23 23/95/23 28/96/23
vn -0.971105 0.170859 0.166619
f 28/97/24 23/98/24 19/99/24
f 28/97/24 19/99/24 21/100/24
vn 0.399883 -0.070510 0.913850
f 31/101/25 32/102/25 34/103/25
f 31/101/25 34/103/25 33/104/25
vn 0.919135 -0.162068 0.359062
f 33/105/26 34/106/26 36/107/26
f 33/105/26 36/107/26 35/108/26
vn 0.899967 -0.158688 -0.406051
f 35/109/27 36/110/27 38/111/27
f 35/109/27 38/111/27 37/112/27
vn 0.353610 -0.062351 -0.933313
f 37/113/28 38/114/28 40/115/28
f 37/113/28 40/115/28 39/116/28
vn -0.399889 0.070511 -0.913847
f 39/117/29 40/118/29 42/119/29
f 39/117/29 42/119/29 41/120/29
vn -0.919132 0.162068 -0.359069
f 41/121/30 42/122/30 44/123/30
f 41/121/30 44/123/30 43/124/30
vn -0.173648 -0.984808 0.000007
f 34/125/31 32/126/31 46/127/31
f 34/125/31 46/127/31 44/128/31
f 34/125/31 44/128/31 42/129/31
f 34/125/31 42/129/31 40/130/31
f 34/125/31 40/130/31 38/131/31
f 34/125/31 38/131/31 36/132/31
vn -0.353613 0.062352 0.933312
f 45/133/32 46/134/32 32/135/32
f 45/133/32 32/135/32 31/136/32
vn -0.899965 0.158688 0.406056
f 43/137/33 44/138/33 46/139/33
f 43/137/33 46/139/33 45/140/33
vn 0.173650 0.984807 0.000002
f 31/141/34 33/142/34 35/143/34
f 31/141/34 35/143/34 37/144/34
f 31/141/34 37/144/34 39/145/34
f 31/141/34 39/145/34 41/146/34
f 31/141/34 41/146/34 43/147/34
f 31/141/34 43/147/34 45/148/34
vn 0.173648 0.984808 -0.000001
f 51/149/35 53/150/35 54/151/35
f 51/149/35 54/151/35 52/152/35
f 51/149/35 52/152/35 99/153/35
f 51/149/35 99/153/35 101/154/35
f 51/149/35 101/154/35 102/155/35
f 51/149/35 102/155/35 100/156/35
f 51/149/35 100/156/35 95/157/35
f 51/149/35 95/157/35 97/158/35
f 51/149/35 97/158/35 98/159/35
f 51/149/35 98/159/35 96/160/35
f 51/149/35 96/160/35 55/161/35
f 51/149/35 55/161/35 57/162/35
f 51/149/35 57/162/35 58/163/35
f 51/149/35 58/163/35 56/164/35
vn -0.979243 0.172667 0.106157
f 60/165/36 51/166/36 56/167/36
f 60/165/36 56/167/36 63/168/36
vn -0.104541 0.018433 -0.994350
f 64/169/37 55/170/37 96/171/37
f 64/169/37 96/171/37 87/172/37
vn 0.979242 -0.172667 -0.106162
f 100/173/38 91/174/38 88/175/38
f 100/173/38 88/175/38 95/176/38
vn 0.104541 -0.018433 0.994350
f 92/177/39 99/178/39 52/179/39
f 92/177/39 52/179/39 59/180/39
vn -0.354429 0.062496 -0.932992
f 55/181/40 64/182/40 66/183/40
f 55/181/40 66/183/40 57/184/40
vn -0.766349 0.135128 -0.628052
f 57/185/41 66/186/41 65/187/41
f 57/185/41 65/187/41 58/188/41
vn -0.972932 0.171555 -0.154829
f 58/189/42 65/190/42 63/191/42
f 58/189/42 63/191/42 56/192/42
vn -0.152469 0.026884 0.987943
f 59/193/43 52/194/43 54/195/43
f 59/193/43 54/195/43 61/196/43
vn -0.618505 0.109059 0.778176
f 61/197/44 54/198/44 53/199/44
f 61/197/44 53/199/44 62/200/44
vn -0.918819 0.162013 0.359894
f 62/201/45 53/202/45 51/203/45
f 62/201/45 51/203/45 60/204/45
vn 0.979243 -0.172666 -0.106161
f 116/205/46 103/206/46 108/207/46
f 116/205/46 108/207/46 111/208/46
vn -0.354429 0.062495 -0.932992
f 75/209/47 84/210/47 86/211/47
f 75/209/47 86/211/47 77/212/47
vn 0.173649 0.984808 -0.000000
f 71/213/48 73/214/48 74/215/48
f 71/213/48 74/215/48 72/216/48
f 71/213/48 72/216/48 115/217/48
f 71/213/48 115/217/48 117/218/48
f 71/213/48 117/218/48 118/219/48
f 71/213/48 118/219/48 116/220/48
f 71/213/48 116/220/48 111/221/48
f 71/213/48 111/221/48 113/222/48
f 71/213/48 113/222/48 114/223/48
f 71/213/48 114/223/48 112/224/48
f 71/213/48 112/224/48 75/225/48
f 71/213/48 75/225/48 77/226/48
f 71/213/48 77/226/48 78/227/48
f 71/213/48 78/227/48 76/228/48
vn -0.918819 0.162012 0.359894
f 82/229/49 73/230/49 71/231/49
f 82/229/49 71/231/49 80/232/49
vn -0.104541 0.018433 -0.994350
f 84/233/50 75/234/50 112/235/50
f 84/233/50 112/235/50 107/236/50
vn -0.618505 0.109059 0.778176
f 81/237/51 74/238/51 73/239/51
f 81/237/51 73/239/51 82/240/51
vn 0.104541 -0.018433 0.994350
f 104/241/52 115/242/52 72/243/52
f 104/241/52 72/243/52 79/244/52
vn -0.152469 0.026884 0.987943
f 79/245/53 72/246/53 74/247/53
f 79/245/53 74/247/53 81/248/53
vn -0.979243 0.172666 0.106157
f 80/249/54 71/250/54 76/251/54
f 80/249/54 76/251/54 83/252/54
vn -0.972932 0.171553 -0.154829
f 78/253/55 85/254/55 83/255/55
f 78/253/55 83/255/55 76/256/55
vn -0.173648 -0.984808 -0.000000
f 103/257/56 105/258/56 106/259/56
f 103/257/56 106/259/56 104/260/56
f 103/257/56 104/260/56 79/261/56
f 103/257/56 79/261/56 81/262/56
f 103/257/56 81/262/56 82/263/56
f 103/257/56 82/263/56 80/264/56
f 103/257/56 80/264/56 83/265/56
f 103/257/56 83/265/56 85/266/56
f 103/257/56 85/266/56 86/267/56
f 103/257/56 86/267/56 84/268/56
f 103/257/56 84/268/56 107/269/56
f 103/257/56 107/269/56 109/270/56
f 103/257/56 109/270/56 110/271/56
f 103/257/56 110/271/56 108/272/56
vn 0.471323 -0.083107 0.878037
f 70/273/57 69/274/57 67/275/57
f 70/273/57 67/275/57 68/276/57
vn -0.766349 0.135127 -0.628052
f 77/277/58 86/278/58 85/279/58
f 77/277/58 85/279/58 78/280/58
vn 0.354427 -0.062495 0.932993
f 99/281/59 92/282/59 94/283/59
f 99/281/59 94/283/59 101/284/59
vn 0.766352 -0.135129 0.628049
f 101/285/60 94/286/60 93/287/60
f 101/285/60 93/287/60 102/288/60
vn 0.972933 -0.171555 0.154827
f 102/289/61 93/290/61 91/291/61
f 102/289/61 91/291/61 100/292/61
vn 0.152467 -0.026884 -0.987943
f 87/293/62 96/294/62 98/295/62
f 87/293/62 98/295/62 89/296/62
vn 0.618509 -0.109060 -0.778173
f 89/297/63 98/298/63 97/299/63
f 89/297/63 97/299/63 90/300/63
vn 0.918819 -0.162013 -0.359894
f 90/301/64 97/302/64 95/303/64
f 90/301/64 95/303/64 88/304/64
vn 0.152467 -0.026884 -0.987943
f 107/305/65 112/306/65 114/307/65
f 107/305/65 114/307/65 109/308/65
vn 0.618509 -0.109059 -0.778173
f 109/309/66 114/310/66 113/311/66
f 109/309/66 113/311/66 110/312/66
vn 0.918819 -0.162012 -0.359894
f 110/313/67 113/314/67 111/315/67
f 110/313/67 111/315/67 108/316/67
vn 0.354427 -0.062495 0.932993
f 115/317/68 104/318/68 106/319/68
f 115/317/68 106/319/68 117/320/68
vn 0.766352 -0.135128 0.628049
f 117/321/69 106/322/69 105/323/69
f 117/321/69 105/323/69 118/324/69
vn 0.972933 -0.171553 0.154827
f 118/325/70 105/326/70 103/327/70
f 118/325/70 103/327/70 116/328/70
vn -0.173653 -0.984807 -0.000001
f 91/329/71 93/330/71 94/331/71
f 91/329/71 94/331/71 92/332/71
f 91/329/71 92/332/71 59/333/71
f 91/329/71 59/333/71 61/334/71
f 91/329/71 61/334/71 62/335/71
f 91/329/71 62/335/71 60/336/71
f 91/329/71 60/336/71 63/337/71
f 91/329/71 63/337/71 65/338/71
f 91/329/71 65/338/71 66/339/71
f 91/329/71 66/339/71 64/340/71
f 91/329/71 64/340/71 87/341/71
f 91/329/71 87/341/71 89/342/71
f 91/329/71 89/342/71 90/343/71
f 91/329/71 90/343/71 88/344/71
vn 0.944708 -0.166577 0.282451
f 68/345/72 67/346/72 49/347/72
f 68/345/72 49/347/72 50/348/72
vn 0.864696 -0.152469 -0.478597
f 50/349/73 49/350/73 47/351/73
f 50/349/73 47/351/73 48/352/73
vn 0.278158 -0.049047 -0.959282
f 48/353/74 47/354/74 120/355/74
f 48/353/74 120/355/74 119/356/74
vn -0.471322 0.083107 -0.878037
f 119/357/75 120/358/75 122/359/75
f 119/357/75 122/359/75 121/360/75
vn -0.944709 0.166578 -0.282447
f 121/361/76 122/362/76 124/363/76
f 121/361/76 124/363/76 123/364/76
vn -0.173649 -0.984808 0.000002
f 67/365/77 69/366/77 126/367/77
f 67/365/77 126/367/77 124/368/77
f 67/365/77 124/368/77 122/369/77
f 67/365/77 122/369/77 120/370/77
f 67/365/77 120/370/77 47/371/77
f 67/365/77 47/371/77 49/372/77
vn -0.278156 0.049047 0.959283
f 125/373/78 126/374/78 69/375/78
f 125/373/78 69/375/78 70/376/78
vn -0.864696 0.152469 0.478595
f 123/377/79 124/378/79 126/379/79
f 123/377/79 126/379/79 125/380/79
vn 0.173648 0.984808 -0.000000
f 70/381/80 68/382/80 50/383/80
f 70/381/80 50/383/80 48/384/80
f 70/381/80 48/384/80 119/385/80
f 70/381/80 119/385/80 121/386/80
f 70/381/80 121/386/80 123/387/80
f 70/381/80 123/387/80 125/388/80
vn 0.173644 0.984808 -0.000000
f 133/389/81 147/390/81 149/391/81
f 133/389/81 149/391/81 150/392/81
f 133/389/81 150/392/81 148/393/81
f 133/389/81 148/393/81 143/394/81
f 133/389/81 143/394/81 145/395/81
f 133/389/81 145/395/81 146/396/81
f 133/389/81 146/396/81 144/397/81
f 133/389/81 144/397/81 131/398/81
vn -0.962219 0.169665 -0.212952
f 132/399/82 131/400/82 144/401/82
f 132/399/82 144/401/82 135/402/82
vn 0.209719 -0.036979 -0.977062
f 148/403/83 139/404/83 136/405/83
f 148/403/83 136/405/83 143/406/83
vn -0.209718 0.036979 0.977062
f 179/407/84 184/408/84 191/409/84
f 179/407/84 191/409/84 188/410/84
vn 0.983711 -0.173455 -0.047185
f 147/411/85 140/412/85 142/413/85
f 147/411/85 142/413/85 149/414/85
vn 0.828683 -0.146119 -0.540308
f 149/415/86 142/416/86 141/417/86
f 149/415/86 141/417/86 150/418/86
vn 0.451608 -0.079631 -0.888656
f 150/419/87 141/420/87 139/421/87
f 150/419/87 139/421/87 148/422/87
vn -0.875156 0.154314 -0.458573
f 135/423/88 144/424/88 146/425/88
f 135/423/88 146/425/88 137/426/88
vn -0.532100 0.093824 -0.841467
f 137/427/89 146/428/89 145/429/89
f 137/427/89 145/429/89 138/430/89
vn -0.046466 0.008193 -0.998886
f 138/431/90 145/432/90 143/433/90
f 138/431/90 143/433/90 136/434/90
vn 0.173646 0.984808 -0.000002
f 179/435/91 181/436/91 182/437/91
f 179/435/91 182/437/91 180/438/91
f 179/435/91 180/438/91 127/439/91
f 179/435/91 127/439/91 130/440/91
f 179/435/91 130/440/91 183/441/91
f 179/435/91 183/441/91 185/442/91
f 179/435/91 185/442/91 186/443/91
f 179/435/91 186/443/91 184/444/91
vn 0.962219 -0.169665 0.212952
f 140/445/92 147/446/92 133/447/92
f 140/445/92 133/447/92 134/448/92
vn -0.962219 0.169665 -0.212950
f 129/449/93 130/450/93 131/451/93
f 129/449/93 131/451/93 132/452/93
vn -0.173649 -0.984808 -0.000001
f 139/453/94 141/454/94 142/455/94
f 139/453/94 142/455/94 140/456/94
f 139/453/94 140/456/94 134/457/94
f 139/453/94 134/457/94 132/458/94
f 139/453/94 132/458/94 135/459/94
f 139/453/94 135/459/94 137/460/94
f 139/453/94 137/460/94 138/461/94
f 139/453/94 138/461/94 136/462/94
vn 0.173648 0.984808 -0.000001
f 127/463/95 133/464/95 131/465/95
f 127/463/95 131/465/95 130/466/95
vn -0.962219 0.169665 -0.212952
f 192/467/96 183/468/96 130/469/96
f 192/467/96 130/469/96 129/470/96
vn -0.173648 -0.984808 0.000000
f 129/471/97 128/472/97 187/473/97
f 129/471/97 187/473/97 189/474/97
f 129/471/97 189/474/97 190/475/97
f 129/471/97 190/475/97 188/476/97
f 129/471/97 188/476/97 191/477/97
f 129/471/97 191/477/97 193/478/97
f 129/471/97 193/478/97 194/479/97
f 129/471/97 194/479/97 192/480/97
vn -0.173648 -0.984808 -0.000000
f 132/481/98 134/482/98 128/483/98
f 132/481/98 128/483/98 129/484/98
vn 0.962218 -0.169666 0.212953
f 155/485/99 158/486/99 151/487/99
f 155/485/99 151/487/99 154/488/99
vn -0.209716 0.036979 0.977063
f 127/489/100 128/490/100 153/491/100
f 127/489/100 153/491/100 154/492/100
f 127/489/100 154/492/100 151/493/100
f 127/489/100 151/493/100 152/494/100
vn 0.209716 -0.036979 -0.977063
f 134/495/101 133/496/101 157/497/101
f 134/495/101 157/497/101 158/498/101
f 134/495/101 158/498/101 155/499/101
f 134/495/101 155/499/101 156/500/101
vn -0.173648 -0.984808 -0.000000
f 128/501/102 134/502/102 156/503/102
f 128/501/102 156/503/102 153/504/102
vn 0.557606 -0.816334 0.150581
f 155/505/103 154/506/103 153/507/103
f 155/505/103 153/507/103 156/508/103
vn 0.803181 0.576390 0.150582
f 157/509/104 152/510/104 151/511/104
f 157/509/104 151/511/104 158/512/104
vn 0.173649 0.984808 -0.000001
f 133/513/105 127/514/105 152/515/105
f 133/513/105 152/515/105 157/516/105
vn 0.173648 0.984808 0.000001
f 176/517/106 178/518/106 171/519/106
f 176/517/106 171/519/106 173/520/106
f 176/517/106 173/520/106 174/521/106
f 176/517/106 174/521/106 172/522/106
f 176/517/106 172/522/106 167/523/106
f 176/517/106 167/523/106 169/524/106
f 176/517/106 169/524/106 170/525/106
f 176/517/106 170/525/106 168/526/106
vn 0.965926 -0.170316 0.194883
f 175/527/107 176/528/107 168/529/107
f 175/527/107 168/529/107 159/530/107
vn -0.191916 0.033838 0.980828
f 172/531/108 163/532/108 160/533/108
f 172/531/108 160/533/108 167/534/108
vn -0.982686 0.173271 0.065612
f 171/535/109 164/536/109 166/537/109
f 171/535/109 166/537/109 173/538/109
vn -0.818723 0.144361 0.555744
f 173/539/110 166/540/110 165/541/110
f 173/539/110 165/541/110 174/542/110
vn -0.435379 0.076768 0.896968
f 174/543/111 165/544/111 163/545/111
f 174/543/111 163/545/111 172/546/111
vn 0.883342 -0.155755 0.442093
f 159/547/112 168/548/112 170/549/112
f 159/547/112 170/549/112 161/550/112
vn 0.547299 -0.096502 0.831355
f 161/551/113 170/552/113 169/553/113
f 161/551/113 169/553/113 162/554/113
vn 0.064616 -0.011393 0.997845
f 162/555/114 169/556/114 167/557/114
f 162/555/114 167/557/114 160/558/114
vn -0.965926 0.170316 -0.194881
f 164/559/115 171/560/115 178/561/115
f 164/559/115 178/561/115 177/562/115
vn -0.173648 -0.984808 0.000002
f 163/563/116 165/564/116 166/565/116
f 163/563/116 166/565/116 164/566/116
f 163/563/116 164/566/116 177/567/116
f 163/563/116 177/567/116 175/568/116
f 163/563/116 175/568/116 159/569/116
f 163/563/116 159/569/116 161/570/116
f 163/563/116 161/570/116 162/571/116
f 163/563/116 162/571/116 160/572/116
vn -0.983711 0.173455 0.047183
f 183/573/117 192/574/117 194/575/117
f 183/573/117 194/575/117 185/576/117
vn -0.828682 0.146119 0.540310
f 185/577/118 194/578/118 193/579/118
f 185/577/118 193/579/118 186/580/118
vn -0.451610 0.079631 0.888655
f 186/581/119 193/582/119 191/583/119
f 186/581/119 191/583/119 184/584/119
vn 0.875153 -0.154313 0.458579
f 187/585/120 180/586/120 182/587/120
f 187/585/120 182/587/120 189/588/120
vn 0.532096 -0.093824 0.841470
f 189/589/121 182/590/121 181/591/121
f 189/589/121 181/591/121 190/592/121
vn 0.046472 -0.008194 0.998886
f 190/593/122 181/594/122 179/595/122
f 190/593/122 179/595/122 188/596/122
vn 0.962219 -0.169665 0.212952
f 128/597/123 127/598/123 180/599/123
f 128/597/123 180/599/123 187/600/123
vn 0.976295 0.216444 0.000000
f 198/601/124 197/602/124 195/603/124
f 198/601/124 195/603/124 196/604/124
vn 0.537303 0.843389 0.000000
f 196/605/125 195/606/125 200/607/125
f 196/605/125 200/607/125 199/608/125
vn -0.216440 0.976296 0.000000
f 199/609/126 200/610/126 202/611/126
f 199/609/126 202/611/126 201/612/126
vn -0.843391 0.537301 0.000000
f 201/613/127 202/614/127 204/615/127
f 201/613/127 204/615/127 203/616/127
vn -0.976296 -0.216441 -0.000000
f 203/617/128 204/618/128 206/619/128
f 203/617/128 206/619/128 205/620/128
vn -0.537301 -0.843390 -0.000000
f 205/621/129 206/622/129 208/623/129
f 205/621/129 208/623/129 207/624/129
vn 0.000002 -0.000000 -1.000000
f 195/625/130 197/626/130 210/627/130
f 195/625/130 210/627/130 208/628/130
f 195/625/130 208/628/130 206/629/130
f 195/625/130 206/629/130 204/630/130
f 195/625/130 204/630/130 202/631/130
f 195/625/130 202/631/130 200/632/130
vn 0.843389 -0.537303 0.000000
f 209/633/131 210/634/131 197/635/131
f 209/633/131 197/635/131 198/636/131
vn 0.216443 -0.976295 0.000000
f 207/637/132 208/638/132 210/639/132
f 207/637/132 210/639/132 209/640/132
vn 0.000000 0.000000 1.000000
f 198/641/133 196/642/133 199/643/133
f 198/641/133 199/643/133 201/644/133
f 198/641/133 201/644/133 203/645/133
f 198/641/133 203/645/133 205/646/133
f 198/641/133 205/646/133 207/647/133
f 198/641/133 207/647/133 209/648/133
vn 0.173648 0.984808 -0.000000
f 228/649/134 230/650/134 223/651/134
f 228/649/134 223/651/134 225/652/134
f 228/649/134 225/652/134 226/653/134
f 228/649/134 226/653/134 224/654/134
f 228/649/134 224/654/134 219/655/134
f 228/649/134 219/655/134 221/656/134
f 228/649/134 221/656/134 222/657/134
f 228/649/134 222/657/134 220/658/134
vn -0.984808 0.173647 0.000173
f 227/659/135 228/660/135 220/661/135
f 227/659/135 220/661/135 211/662/135
vn -0.000183 0.000032 -1.000000
f 224/663/136 215/664/136 212/665/136
f 224/663/136 212/665/136 219/666/136
vn 0.951209 -0.167723 -0.258979
f 223/667/137 216/668/137 218/669/137
f 223/667/137 218/669/137 225/670/137
vn 0.696240 -0.122765 -0.707233
f 225/671/138 218/672/138 217/673/138
f 225/671/138 217/673/138 226/674/138
vn 0.254708 -0.044912 -0.965975
f 226/675/139 217/676/139 215/677/139
f 226/675/139 215/677/139 224/678/139
vn -0.951305 0.167740 -0.258617
f 211/679/140 220/680/140 222/681/140
f 211/679/140 222/681/140 213/682/140
vn -0.696481 0.122808 -0.706989
f 213/683/141 222/684/141 221/685/141
f 213/683/141 221/685/141 214/686/141
vn -0.255059 0.044973 -0.965879
f 214/687/142 221/688/142 219/689/142
f 214/687/142 219/689/142 212/690/142
vn 0.984808 -0.173647 -0.000180
f 216/691/143 223/692/143 230/693/143
f 216/691/143 230/693/143 229/694/143
vn -0.173641 -0.984809 -0.000013
f 215/695/144 217/696/144 218/697/144
f 215/695/144 218/697/144 216/698/144
f 215/695/144 216/698/144 229/699/144
f 215/695/144 229/699/144 227/700/144
f 215/695/144 227/700/144 211/701/144
f 215/695/144 211/701/144 213/702/144
f 215/695/144 213/702/144 214/703/144
f 215/695/144 214/703/144 212/704/144
vn 0.173647 0.984808 -0.000000
f 248/705/145 250/706/145 243/707/145
f 248/705/145 243/707/145 245/708/145
f 248/705/145 245/708/145 246/709/145
f 248/705/145 246/709/145 244/710/145
f 248/705/145 244/710/145 239/711/145
f 248/705/145 239/711/145 241/712/145
f 248/705/145 241/712/145 242/713/145
f 248/705/145 242/713/145 240/714/145
vn -0.984808 0.173647 0.000173
f 247/715/146 248/716/146 240/717/146
f 247/715/146 240/717/146 231/718/146
vn -0.000183 0.000032 -1.000000
f 244/719/147 235/720/147 232/721/147
f 244/719/147 232/721/147 239/722/147
vn 0.951209 -0.167723 -0.258979
f 243/723/148 236/724/148 238/725/148
f 243/723/148 238/725/148 245/726/148
vn 0.696241 -0.122765 -0.707232
f 245/727/149 238/728/149 237/729/149
f 245/727/149 237/729/149 246/730/149
vn 0.254707 -0.044912 -0.965975
f 246/731/150 237/732/150 235/733/150
f 246/731/150 235/733/150 244/734/150
vn -0.951305 0.167740 -0.258617
f 231/735/151 240/736/151 242/737/151
f 231/735/151 242/737/151 233/738/151
vn -0.696476 0.122807 -0.706993
f 233/739/152 242/740/152 241/741/152
f 233/739/152 241/741/152 234/742/152
vn -0.255059 0.044977 -0.965879
f 234/743/153 241/744/153 239/745/153
f 234/743/153 239/745/153 232/746/153
vn 0.984808 -0.173647 -0.000180
f 236/747/154 243/748/154 250/749/154
f 236/747/154 250/749/154 249/750/154
vn -0.173649 -0.984808 0.000001
f 235/751/155 237/752/155 238/753/155
f 235/751/155 238/753/155 236/754/155
f 235/751/155 236/754/155 249/755/155
f 235/751/155 249/755/155 247/756/155
f 235/751/155 247/756/155 231/757/155
f 235/751/155 231/757/155 233/758/155
f 235/751/155 233/758/155 234/759/155
f 235/751/155 234/759/155 232/760/155
vn 0.216441 -0.976296 0.000000
f 254/761/156 253/762/156 251/763/156
f 254/761/156 251/763/156 252/764/156
vn 0.843388 -0.537305 -0.000000
f 252/765/157 251/766/157 256/767/157
f 252/765/157 256/767/157 255/768/157
vn 0.976295 0.216446 -0.000000
f 255/769/158 256/770/158 258/771/158
f 255/769/158 258/771/158 257/772/158
vn 0.537301 0.843391 -0.000000
f 257/773/159 258/774/159 260/775/159
f 257/773/159 260/775/159 259/776/159
vn -0.216438 0.976296 -0.000000
f 259/777/160 260/778/160 262/779/160
f 259/777/160 262/779/160 261/780/160
vn -0.843392 0.537298 0.000000
f 261/781/161 262/782/161 264/783/161
f 261/781/161 264/783/161 263/784/161
vn -0.000000 0.000000 -1.000000
f 251/785/162 253/786/162 266/787/162
f 251/785/162 266/787/162 264/788/162
f 251/785/162 264/788/162 262/789/162
f 251/785/162 262/789/162 260/790/162
f 251/785/162 260/790/162 258/791/162
f 251/785/162 258/791/162 256/792/162
vn -0.537298 -0.843392 0.000000
f 265/793/163 266/794/163 253/795/163
f 265/793/163 253/795/163 254/796/163
vn -0.976296 -0.216438 0.000000
f 263/797/164 264/798/164 266/799/164
f 263/797/164 266/799/164 265/800/164
vn 0.000000 0.000000 1.000000
f 254/801/165 252/802/165 255/803/165
f 254/801/165 255/803/165 257/804/165
f 254/801/165 257/804/165 259/805/165
f 254/801/165 259/805/165 261/806/165
f 254/801/165 261/806/165 263/807/165
f 254/801/165 263/807/165 265/808/165
vn 0.376870 -0.066452 0.923879
f 274/809/166 273/810/166 271/811/166
f 274/809/166 271/811/166 272/812/166
vn 0.909844 -0.160430 0.382683
f 272/813/167 271/814/167 268/815/167
f 272/813/167 268/815/167 267/816/167
vn 0.909844 -0.160430 -0.382683
f 267/817/168 268/818/168 270/819/168
f 267/817/168 270/819/168 269/820/168
vn 0.376870 -0.066452 -0.923879
f 269/821/169 270/822/169 276/823/169
f 269/821/169 276/823/169 275/824/169
vn -0.376870 0.066452 -0.923879
f 275/825/170 276/826/170 278/827/170
f 275/825/170 278/827/170 277/828/170
vn -0.909844 0.160430 -0.382683
f 277/829/171 278/830/171 280/831/171
f 277/829/171 280/831/171 279/832/171
vn -0.173650 -0.984807 0.000000
f 271/833/172 273/834/172 282/835/172
f 271/833/172 282/835/172 280/836/172
f 271/833/172 280/836/172 278/837/172
f 271/833/172 278/837/172 276/838/172
f 271/833/172 276/838/172 270/839/172
f 271/833/172 270/839/172 268/840/172
vn -0.376870 0.066452 0.923879
f 281/841/173 282/842/173 273/843/173
f 281/841/173 273/843/173 274/844/173
vn -0.909844 0.160430 0.382683
f 279/845/174 280/846/174 282/847/174
f 279/845/174 282/847/174 281/848/174
vn 0.173649 0.984808 0.000001
f 274/849/175 272/850/175 267/851/175
f 274/849/175 267/851/175 269/852/175
f 274/849/175 269/852/175 275/853/175
f 274/849/175 275/853/175 277/854/175
f 274/849/175 277/854/175 279/855/175
f 274/849/175 279/855/175 281/856/175
vn 0.218944 0.971931 -0.086103
f 283/857/176 284/858/176 286/859/176
f 283/857/176 286/859/176 285/860/176
vn 0.302790 0.918312 -0.254992
f 285/861/177 286/862/177 288/863/177
f 285/861/177 288/863/177 287/864/177
vn 0.374999 0.829407 -0.414077
f 287/865/178 288/866/178 290/867/178
f 287/865/178 290/867/178 289/868/178
vn 0.432800 0.708624 -0.557258
f 289/869/179 290/870/179 292/871/179
f 289/869/179 292/871/179 291/872/179
vn 0.473970 0.560603 -0.679027
f 291/873/180 292/874/180 294/875/180
f 291/873/180 294/875/180 293/876/180
vn 0.496922 0.391053 -0.774691
f 293/877/181 294/878/181 296/879/181
f 293/877/181 296/879/181 295/880/181
vn 0.500779 0.206460 -0.840592
f 295/881/182 296/882/182 298/883/182
f 295/881/182 298/883/182 297/884/182
vn 0.485391 0.013941 -0.874186
f 297/885/183 298/886/183 300/887/183
f 297/885/183 300/887/183 299/888/183
vn 0.451349 -0.179121 -0.874185
f 299/889/184 300/890/184 302/891/184
f 299/889/184 302/891/184 301/892/184
vn 0.399968 -0.365278 -0.840594
f 301/893/185 302/894/185 304/895/185
f 301/893/185 304/895/185 303/896/185
vn 0.333206 -0.537427 -0.774691
f 303/897/186 304/898/186 306/899/186
f 303/897/186 306/899/186 305/900/186
vn 0.253647 -0.688904 -0.679025
f 305/901/187 306/902/187 308/903/187
f 305/901/187 308/903/187 307/904/187
vn 0.164335 -0.813916 -0.557257
f 307/905/188 308/906/188 310/907/188
f 307/905/188 310/907/188 309/908/188
vn 0.068713 -0.907642 -0.414082
f 309/909/189 310/910/189 312/911/189
f 309/909/189 312/911/189 311/912/189
vn -0.029554 -0.966493 -0.254987
f 311/913/190 312/914/190 314/915/190
f 311/913/190 314/915/190 313/916/190
vn -0.126682 -0.988200 -0.086100
f 313/917/191 314/918/191 316/919/191
f 313/917/191 316/919/191 315/920/191
vn -0.218941 -0.971932 0.086096
f 315/921/192 316/922/192 318/923/192
f 315/921/192 318/923/192 317/924/192
vn -0.302791 -0.918312 0.254993
f 317/925/193 318/926/193 320/927/193
f 317/925/193 320/927/193 319/928/193
vn -0.374998 -0.829409 0.414075
f 319/929/194 320/930/194 322/931/194
f 319/929/194 322/931/194 321/932/194
vn -0.432805 -0.708610 0.557272
f 321/933/195 322/934/195 324/935/195
f 321/933/195 324/935/195 323/936/195
vn -0.473968 -0.560611 0.679021
f 323/937/196 324/938/196 326/939/196
f 323/937/196 326/939/196 325/940/196
vn -0.496922 -0.391053 0.774691
f 325/941/197 326/942/197 328/943/197
f 325/941/197 328/943/197 327/944/197
vn -0.500780 -0.206467 0.840590
f 327/945/198 328/946/198 330/947/198
f 327/945/198 330/947/198 329/948/198
vn -0.485391 -0.013936 0.874186
f 329/949/199 330/950/199 332/951/199
f 329/949/199 332/951/199 331/952/199
vn -0.451351 0.179111 0.874186
f 331/953/200 332/954/200 334/955/200
f 331/953/200 334/955/200 333/956/200
vn -0.399964 0.365289 0.840591
f 333/957/201 334/958/201 336/959/201
f 333/957/201 336/959/201 335/960/201
vn -0.333206 0.537427 0.774691
f 335/961/202 336/962/202 338/963/202
f 335/961/202 338/963/202 337/964/202
vn -0.253640 0.688915 0.679016
f 337/965/203 338/966/203 340/967/203
f 337/965/203 340/967/203 339/968/203
vn -0.164343 0.813905 0.557270
f 339/969/204 340/970/204 342/971/204
f 339/969/204 342/971/204 341/972/204
vn -0.068710 0.907645 0.414077
f 341/973/205 342/974/205 344/975/205
f 341/973/205 344/975/205 343/976/205
vn 0.126682 0.988200 0.086100
f 345/977/206 346/978/206 284/979/206
f 345/977/206 284/979/206 283/980/206
vn 0.029552 0.966492 0.254990
f 343/981/207 344/982/207 346/983/207
f 343/981/207 346/983/207 345/984/207
vn -0.984808 0.173648 0.000000
f 360/985/208 350/986/208 349/987/208
f 360/985/208 349/987/208 361/988/208
vn 0.173648 0.984808 0.000000
f 371/989/209 354/990/209 353/991/209
f 371/989/209 353/991/209 372/992/209
vn -0.552952 -0.079107 -0.829449
f 366/993/210 353/994/210 356/995/210
f 366/993/210 356/995/210 370/996/210
vn -0.173648 -0.984808 0.000000
f 373/997/211 348/998/211 347/999/211
f 373/997/211 347/999/211 374/1000/211
vn -0.035637 -0.202106 -0.978715
f 378/1001/212 372/1002/212 353/1003/212
f 378/1001/212 353/1003/212 366/1004/212
vn -0.152468 0.231464 0.960822
f 376/1005/213 371/1006/213 350/1007/213
f 376/1005/213 350/1007/213 360/1008/213
vn 0.662992 -0.524079 -0.534587
f 368/1009/214 357/1010/214 358/1011/214
f 368/1009/214 358/1011/214 369/1012/214
vn 0.646433 -0.266226 0.715016
f 364/1013/215 352/1014/215 357/1015/215
f 364/1013/215 357/1015/215 368/1016/215
vn 0.304690 0.952452 -0.000000
f 353/1017/216 354/1018/216 355/1019/216
f 353/1017/216 355/1019/216 356/1020/216
vn -0.028838 -0.999584 -0.000000
f 352/1021/217 351/1022/217 358/1023/217
f 352/1021/217 358/1023/217 357/1024/217
vn 0.694698 0.030522 0.718653
f 354/1025/218 363/1026/218 367/1027/218
f 354/1025/218 367/1027/218 355/1028/218
vn 0.670289 -0.118190 0.732628
f 363/1029/219 364/1030/219 368/1031/219
f 363/1029/219 368/1031/219 367/1032/219
vn 0.802256 0.265716 -0.534584
f 355/1033/220 367/1034/220 370/1035/220
f 355/1033/220 370/1035/220 356/1036/220
vn 0.799737 -0.141015 -0.583554
f 367/1037/221 368/1038/221 369/1039/221
f 367/1037/221 369/1039/221 370/1040/221
vn -0.222438 -0.165357 0.960822
f 373/1041/222 375/1042/222 359/1043/222
f 373/1041/222 359/1043/222 348/1044/222
vn -0.191378 0.033745 0.980936
f 375/1045/223 376/1046/223 360/1047/223
f 375/1045/223 360/1047/223 359/1048/223
vn 0.035637 0.202106 -0.978715
f 374/1049/224 377/1050/224 365/1051/224
f 374/1049/224 365/1051/224 351/1052/224
vn 0.000000 0.000000 -1.000000
f 377/1053/225 378/1054/225 366/1055/225
f 377/1053/225 366/1055/225 365/1056/225
vn -0.488933 0.263286 -0.831640
f 351/1057/226 365/1058/226 369/1059/226
f 351/1057/226 369/1059/226 358/1060/226
vn -0.517210 0.091198 -0.850986
f 365/1061/227 366/1062/227 370/1063/227
f 365/1061/227 370/1063/227 369/1064/227
vn -0.984808 0.173648 0.000000
f 348/1065/228 359/1066/228 362/1067/228
f 348/1065/228 362/1067/228 347/1068/228
vn -0.984808 0.173648 0.000000
f 359/1069/229 360/1070/229 361/1071/229
f 359/1069/229 361/1071/229 362/1072/229
vn 0.000000 0.000000 -1.000000
f 362/1073/230 361/1074/230 378/1075/230
f 362/1073/230 378/1075/230 377/1076/230
vn 0.035637 0.202105 -0.978715
f 347/1077/231 362/1078/231 377/1079/231
f 347/1077/231 377/1079/231 374/1080/231
vn 0.000000 -0.000000 1.000000
f 364/1081/232 363/1082/232 376/1083/232
f 364/1081/232 376/1083/232 375/1084/232
vn -0.035637 -0.202106 0.978715
f 352/1085/233 364/1086/233 375/1087/233
f 352/1085/233 375/1087/233 373/1088/233
vn 0.035637 0.202106 0.978715
f 363/1089/234 354/1090/234 371/1091/234
f 363/1089/234 371/1091/234 376/1092/234
vn -0.035637 -0.202106 -0.978715
f 361/1093/235 349/1094/235 372/1095/235
f 361/1093/235 372/1095/235 378/1096/235
vn -0.173648 -0.984808 0.000000
f 352/1097/236 373/1098/236 374/1099/236
f 352/1097/236 374/1099/236 351/1100/236
vn 0.173648 0.984808 0.000000
f 350/1101/237 371/1102/237 372/1103/237
f 350/1101/237 372/1103/237 349/1104/237
vn -0.501857 0.470677 0.725674
f 383/1105/238 382/1106/238 388/1107/238
f 383/1105/238 388/1107/238 389/1108/238
vn 0.162939 0.301927 0.939303
f 381/1109/239 380/1110/239 386/1111/239
f 381/1109/239 386/1111/239 387/1112/239
vn -0.757359 0.464201 0.459266
f 384/1113/240 383/1114/240 389/1115/240
f 384/1113/240 389/1115/240 390/1116/240
vn -0.185196 0.414841 0.890848
f 382/1117/241 381/1118/241 387/1119/241
f 382/1117/241 387/1119/241 388/1120/241
vn 0.505119 0.138658 0.851839
f 380/1121/242 379/1122/242 385/1123/242
f 380/1121/242 385/1123/242 386/1124/242
vn -0.470165 0.881182 0.049635
f 390/1125/243 389/1126/243 396/1127/243
f 390/1125/243 396/1127/243 397/1128/243
vn 0.146753 0.896804 0.417379
f 388/1129/244 387/1130/244 394/1131/244
f 388/1129/244 394/1131/244 395/1132/244
vn 0.702908 0.425831 0.569727
f 386/1133/245 385/1134/245 392/1135/245
f 386/1133/245 392/1135/245 393/1136/245
vn -0.716706 0.676146 -0.170760
f 391/1137/246 390/1138/246 397/1139/246
f 391/1137/246 397/1139/246 398/1140/246
vn -0.169909 0.952640 0.252205
f 389/1141/247 388/1142/247 395/1143/247
f 389/1141/247 395/1143/247 396/1144/247
vn 0.450132 0.718908 0.529672
f 387/1145/248 386/1146/248 393/1147/248
f 387/1145/248 393/1147/248 394/1148/248
vn 0.904739 0.390243 0.170759
f 393/1149/249 392/1150/249 401/1151/249
f 393/1149/249 401/1151/249 402/1152/249
vn -0.514876 0.640558 -0.569725
f 398/1153/250 397/1154/250 406/1155/250
f 398/1153/250 406/1155/250 407/1156/250
vn 0.168822 0.892913 -0.417380
f 396/1157/251 395/1158/251 404/1159/251
f 396/1157/251 404/1159/251 405/1160/251
vn 0.743192 0.667234 -0.049635
f 394/1161/252 393/1162/252 402/1163/252
f 394/1161/252 402/1163/252 403/1164/252
vn -0.177104 0.829507 -0.529671
f 397/1165/253 396/1166/253 405/1167/253
f 397/1165/253 405/1167/253 406/1168/253
vn 0.485485 0.837077 -0.252204
f 395/1169/254 394/1170/254 403/1171/254
f 395/1169/254 403/1171/254 404/1172/254
vn -0.427234 0.303055 -0.851838
f 407/1173/255 406/1174/255 413/1175/255
f 407/1173/255 413/1175/255 414/1176/255
vn 0.315910 0.326483 -0.890848
f 405/1177/256 404/1178/256 411/1179/256
f 405/1177/256 411/1179/256 412/1180/256
vn 0.870450 0.177173 -0.459267
f 403/1181/257 402/1182/257 409/1183/257
f 403/1181/257 409/1183/257 410/1184/257
vn -0.049845 0.339448 -0.939303
f 406/1185/258 405/1186/258 412/1187/258
f 406/1185/258 412/1187/258 413/1188/258
vn 0.632574 0.270648 -0.725672
f 404/1189/259 403/1190/259 410/1191/259
f 404/1189/259 410/1191/259 411/1192/259
vn 0.992380 0.052741 -0.111353
f 402/1193/260 401/1194/260 408/1195/260
f 402/1193/260 408/1195/260 409/1196/260
vn -0.162939 -0.301928 -0.939303
f 413/1197/261 412/1198/261 419/1199/261
f 413/1197/261 419/1199/261 420/1200/261
vn 0.501857 -0.470678 -0.725673
f 411/1201/262 410/1202/262 417/1203/262
f 411/1201/262 417/1203/262 418/1204/262
vn 0.914494 -0.388974 -0.111355
f 409/1205/263 408/1206/263 415/1207/263
f 409/1205/263 415/1207/263 416/1208/263
vn -0.505120 -0.138656 -0.851838
f 414/1209/264 413/1210/264 420/1211/264
f 414/1209/264 420/1211/264 421/1212/264
vn 0.185197 -0.414842 -0.890847
f 412/1213/265 411/1214/265 418/1215/265
f 412/1213/265 418/1215/265 419/1216/265
vn 0.757360 -0.464200 -0.459265
f 410/1217/266 409/1218/266 416/1219/266
f 410/1217/266 416/1219/266 417/1220/266
vn -0.450131 -0.718909 -0.529671
f 420/1221/267 419/1222/267 426/1223/267
f 420/1221/267 426/1223/267 427/1224/267
vn 0.169910 -0.952640 -0.252205
f 418/1225/268 417/1226/268 424/1227/268
f 418/1225/268 424/1227/268 425/1228/268
vn 0.716706 -0.676147 0.170758
f 416/1229/269 415/1230/269 422/1231/269
f 416/1229/269 422/1231/269 423/1232/269
vn -0.702909 -0.425830 -0.569726
f 421/1233/270 420/1234/270 427/1235/270
f 421/1233/270 427/1235/270 428/1236/270
vn -0.146754 -0.896804 -0.417380
f 419/1237/271 418/1238/271 425/1239/271
f 419/1237/271 425/1239/271 426/1240/271
vn 0.470165 -0.881182 -0.049635
f 417/1241/272 416/1242/272 423/1243/272
f 417/1241/272 423/1243/272 424/1244/272
vn -0.904739 -0.390242 -0.170760
f 428/1245/273 427/1246/273 434/1247/273
f 428/1245/273 434/1247/273 435/1248/273
vn -0.485483 -0.837077 0.252206
f 426/1249/274 425/1250/274 432/1251/274
f 426/1249/274 432/1251/274 433/1252/274
vn 0.177106 -0.829507 0.529672
f 424/1253/275 423/1254/275 430/1255/275
f 424/1253/275 430/1255/275 431/1256/275
vn -0.743193 -0.667234 0.049635
f 427/1257/276 426/1258/276 433/1259/276
f 427/1257/276 433/1259/276 434/1260/276
vn -0.168822 -0.892913 0.417380
f 425/1261/277 424/1262/277 431/1263/277
f 425/1261/277 431/1263/277 432/1264/277
vn 0.514873 -0.640560 0.569727
f 423/1265/278 422/1266/278 429/1267/278
f 423/1265/278 429/1267/278 430/1268/278
vn 0.782853 -0.056249 0.619659
f 379/1269/279 400/1270/279 385/1271/279
vn -0.929883 0.245753 -0.273720
f 399/1272/280 436/1273/280 391/1274/280
vn -0.914495 0.388973 0.111352
f 436/1275/281 384/1276/281 390/1277/281
f 436/1275/281 390/1277/281 391/1278/281
vn -0.858845 0.348895 -0.375044
f 399/1279/282 391/1280/282 398/1281/282
vn 0.853890 0.046891 0.518337
f 385/1282/283 400/1283/283 392/1284/283
vn 0.926379 0.034109 0.375044
f 392/1285/284 400/1286/284 401/1287/284
vn -0.786356 0.336113 -0.518336
f 399/1288/285 398/1289/285 407/1290/285
vn 0.957856 -0.087106 0.273722
f 401/1291/286 400/1292/286 408/1293/286
vn -0.754878 0.214894 -0.619660
f 399/1294/287 407/1295/287 414/1296/287
vn 0.929883 -0.245752 0.273722
f 408/1297/288 400/1298/288 415/1299/288
vn -0.782852 0.056249 -0.619661
f 399/1300/289 414/1301/289 421/1302/289
vn 0.858846 -0.348892 0.375043
f 415/1303/290 400/1304/290 422/1305/290
vn -0.853890 -0.046894 -0.518336
f 399/1306/291 421/1307/291 428/1308/291
vn 0.786357 -0.336110 0.518337
f 422/1309/292 400/1310/292 429/1311/292
vn -0.926379 -0.034112 -0.375044
f 399/1312/293 428/1313/293 435/1314/293
vn -0.632573 -0.270647 0.725673
f 433/1315/294 432/1316/294 382/1317/294
f 433/1315/294 382/1317/294 383/1318/294
vn 0.049846 -0.339447 0.939304
f 431/1319/295 430/1320/295 380/1321/295
f 431/1319/295 380/1321/295 381/1322/295
vn 0.754880 -0.214894 0.619659
f 429/1323/296 400/1324/296 379/1325/296
vn -0.957857 0.087107 -0.273720
f 399/1326/297 435/1327/297 436/1328/297
vn -0.870450 -0.177174 0.459267
f 434/1329/298 433/1330/298 383/1331/298
f 434/1329/298 383/1331/298 384/1332/298
vn -0.315909 -0.326484 0.890848
f 432/1333/299 431/1334/299 381/1335/299
f 432/1333/299 381/1335/299 382/1336/299
vn 0.427233 -0.303056 0.851838
f 430/1337/300 429/1338/300 379/1339/300
f 430/1337/300 379/1339/300 380/1340/300
vn -0.992381 -0.052739 0.111352
f 435/1341/301 434/1342/301 384/1343/301
f 435/1341/301 384/1343/301 436/1344/301
vn -0.392374 0.069186 -0.917200
f 450/1345/302 437/1346/302 442/1347/302
f 450/1345/302 442/1347/302 445/1348/302
vn 0.173648 0.984808 -0.000000
f 456/1349/303 454/1350/303 449/1351/303
f 456/1349/303 449/1351/303 451/1352/303
f 456/1349/303 451/1352/303 452/1353/303
f 456/1349/303 452/1353/303 450/1354/303
f 456/1349/303 450/1354/303 445/1355/303
f 456/1349/303 445/1355/303 447/1356/303
f 456/1349/303 447/1356/303 448/1357/303
f 456/1349/303 448/1357/303 446/1358/303
vn -0.903268 0.159271 0.398421
f 455/1359/304 456/1360/304 446/1361/304
f 455/1359/304 446/1361/304 441/1362/304
vn -0.974042 0.171750 0.147462
f 441/1363/305 446/1364/305 448/1365/305
f 441/1363/305 448/1365/305 443/1366/305
vn -0.916154 0.161543 -0.366833
f 443/1367/306 448/1368/306 447/1369/306
f 443/1367/306 447/1369/306 444/1370/306
vn -0.612778 0.108050 -0.782834
f 444/1371/307 447/1372/307 445/1373/307
f 444/1371/307 445/1373/307 442/1374/307
vn 0.770939 -0.135938 -0.622233
f 449/1375/308 438/1376/308 440/1377/308
f 449/1375/308 440/1377/308 451/1378/308
vn 0.361260 -0.063700 -0.930287
f 451/1379/309 440/1380/309 439/1381/309
f 451/1379/309 439/1381/309 452/1382/309
vn -0.145218 0.025606 -0.989068
f 452/1383/310 439/1384/310 437/1385/310
f 452/1383/310 437/1385/310 450/1386/310
vn 0.903268 -0.159271 -0.398422
f 438/1387/311 449/1388/311 454/1389/311
f 438/1387/311 454/1389/311 453/1390/311
vn -0.173647 -0.984808 -0.000007
f 437/1391/312 439/1392/312 440/1393/312
f 437/1391/312 440/1393/312 438/1394/312
f 437/1391/312 438/1394/312 453/1395/312
f 437/1391/312 453/1395/312 455/1396/312
f 437/1391/312 455/1396/312 441/1397/312
f 437/1391/312 441/1397/312 443/1398/312
f 437/1391/312 443/1398/312 444/1399/312
f 437/1391/312 444/1399/312 442/1400/312
vn 0.903268 -0.159271 -0.398422
f 471/1401/313 460/1402/313 531/1403/313
f 471/1401/313 531/1403/313 532/1404/313
vn -0.145218 0.025606 -0.989068
f 457/1405/314 470/1406/314 472/1407/314
f 457/1405/314 472/1407/314 459/1408/314
vn 0.361261 -0.063700 -0.930287
f 458/1409/315 469/1410/315 470/1411/315
f 458/1409/315 470/1411/315 457/1412/315
vn 0.770939 -0.135938 -0.622233
f 460/1413/316 471/1414/316 469/1415/316
f 460/1413/316 469/1415/316 458/1416/316
vn -0.612778 0.108050 -0.782834
f 465/1417/317 462/1418/317 464/1419/317
f 465/1417/317 464/1419/317 467/1420/317
vn -0.916153 0.161543 -0.366833
f 466/1421/318 461/1422/318 462/1423/318
f 466/1421/318 462/1423/318 465/1424/318
vn -0.974042 0.171750 0.147462
f 468/1425/319 463/1426/319 461/1427/319
f 468/1425/319 461/1427/319 466/1428/319
vn -0.903268 0.159271 0.398421
f 530/1429/320 529/1430/320 463/1431/320
f 530/1429/320 463/1431/320 468/1432/320
vn 0.173649 0.984808 0.000000
f 529/1433/321 531/1434/321 460/1435/321
f 529/1433/321 460/1435/321 458/1436/321
f 529/1433/321 458/1436/321 457/1437/321
f 529/1433/321 457/1437/321 459/1438/321
f 529/1433/321 459/1438/321 464/1439/321
f 529/1433/321 464/1439/321 462/1440/321
f 529/1433/321 462/1440/321 461/1441/321
f 529/1433/321 461/1441/321 463/1442/321
vn -0.392375 0.069187 -0.917200
f 459/1443/322 472/1444/322 467/1445/322
f 459/1443/322 467/1445/322 464/1446/322
vn 0.173648 0.984808 0.000000
f 506/1447/323 508/1448/323 485/1449/323
f 506/1447/323 485/1449/323 487/1450/323
f 506/1447/323 487/1450/323 488/1451/323
f 506/1447/323 488/1451/323 486/1452/323
f 506/1447/323 486/1452/323 481/1453/323
f 506/1447/323 481/1453/323 483/1454/323
f 506/1447/323 483/1454/323 484/1455/323
f 506/1447/323 484/1455/323 482/1456/323
vn -0.984789 0.173651 0.005956
f 505/1457/324 506/1458/324 482/1459/324
f 505/1457/324 482/1459/324 473/1460/324
vn -0.005868 0.001035 -0.999982
f 486/1461/325 477/1462/325 474/1463/325
f 486/1461/325 474/1463/325 481/1464/325
vn -0.005868 0.001035 -0.999982
f 502/1465/326 489/1466/326 494/1467/326
f 502/1465/326 494/1467/326 497/1468/326
vn 0.173648 0.984808 0.000000
f 512/1469/327 510/1470/327 501/1471/327
f 512/1469/327 501/1471/327 503/1472/327
f 512/1469/327 503/1472/327 504/1473/327
f 512/1469/327 504/1473/327 502/1474/327
f 512/1469/327 502/1474/327 497/1475/327
f 512/1469/327 497/1475/327 499/1476/327
f 512/1469/327 499/1476/327 500/1477/327
f 512/1469/327 500/1477/327 498/1478/327
vn -0.984790 0.173646 0.005956
f 511/1479/328 512/1480/328 498/1481/328
f 511/1479/328 498/1481/328 493/1482/328
vn 0.949716 -0.167459 -0.264569
f 485/1483/329 478/1484/329 480/1485/329
f 485/1483/329 480/1485/329 487/1486/329
vn 0.692202 -0.122054 -0.711308
f 487/1487/330 480/1488/330 479/1489/330
f 487/1487/330 479/1489/330 488/1490/330
vn 0.249216 -0.043944 -0.967450
f 488/1491/331 479/1492/331 477/1493/331
f 488/1491/331 477/1493/331 486/1494/331
vn -0.952752 0.167996 -0.253062
f 473/1495/332 482/1496/332 484/1497/332
f 473/1495/332 484/1497/332 475/1498/332
vn -0.700499 0.123517 -0.702883
f 475/1499/333 484/1500/333 483/1501/333
f 475/1499/333 483/1501/333 476/1502/333
vn -0.260546 0.045941 -0.964368
f 476/1503/334 483/1504/334 481/1505/334
f 476/1503/334 481/1505/334 474/1506/334
vn -0.952752 0.167997 -0.253063
f 493/1507/335 498/1508/335 500/1509/335
f 493/1507/335 500/1509/335 495/1510/335
vn -0.700502 0.123520 -0.702880
f 495/1511/336 500/1512/336 499/1513/336
f 495/1511/336 499/1513/336 496/1514/336
vn -0.260543 0.045941 -0.964369
f 496/1515/337 499/1516/337 497/1517/337
f 496/1515/337 497/1517/337 494/1518/337
vn 0.949717 -0.167461 -0.264566
f 501/1519/338 490/1520/338 492/1521/338
f 501/1519/338 492/1521/338 503/1522/338
vn 0.692206 -0.122055 -0.711304
f 503/1523/339 492/1524/339 491/1525/339
f 503/1523/339 491/1525/339 504/1526/339
vn 0.249213 -0.043943 -0.967451
f 504/1527/340 491/1528/340 489/1529/340
f 504/1527/340 489/1529/340 502/1530/340
vn 0.984791 -0.173643 -0.005955
f 478/1531/341 485/1532/341 508/1533/341
f 478/1531/341 508/1533/341 507/1534/341
vn 0.984790 -0.173646 -0.005955
f 490/1535/342 501/1536/342 510/1537/342
f 490/1535/342 510/1537/342 509/1538/342
vn -0.173649 -0.984808 0.000001
f 489/1539/343 491/1540/343 492/1541/343
f 489/1539/343 492/1541/343 490/1542/343
f 489/1539/343 490/1542/343 509/1543/343
f 489/1539/343 509/1543/343 511/1544/343
f 489/1539/343 511/1544/343 493/1545/343
f 489/1539/343 493/1545/343 495/1546/343
f 489/1539/343 495/1546/343 496/1547/343
f 489/1539/343 496/1547/343 494/1548/343
vn -0.173646 -0.984808 -0.000003
f 477/1549/344 479/1550/344 480/1551/344
f 477/1549/344 480/1551/344 478/1552/344
f 477/1549/344 478/1552/344 507/1553/344
f 477/1549/344 507/1553/344 505/1554/344
f 477/1549/344 505/1554/344 473/1555/344
f 477/1549/344 473/1555/344 475/1556/344
f 477/1549/344 475/1556/344 476/1557/344
f 477/1549/344 476/1557/344 474/1558/344
vn 0.376870 -0.066452 0.923879
f 520/1559/345 519/1560/345 517/1561/345
f 520/1559/345 517/1561/345 518/1562/345
vn 0.909845 -0.160430 0.382679
f 518/1563/346 517/1564/346 514/1565/346
f 518/1563/346 514/1565/346 513/1566/346
vn 0.909845 -0.160430 -0.382679
f 513/1567/347 514/1568/347 516/1569/347
f 513/1567/347 516/1569/347 515/1570/347
vn 0.376870 -0.066452 -0.923879
f 515/1571/348 516/1572/348 522/1573/348
f 515/1571/348 522/1573/348 521/1574/348
vn -0.376869 0.066452 -0.923880
f 521/1575/349 522/1576/349 524/1577/349
f 521/1575/349 524/1577/349 523/1578/349
vn -0.909845 0.160430 -0.382679
f 523/1579/350 524/1580/350 526/1581/350
f 523/1579/350 526/1581/350 525/1582/350
vn -0.173647 -0.984808 0.000005
f 517/1583/351 519/1584/351 528/1585/351
f 517/1583/351 528/1585/351 526/1586/351
f 517/1583/351 526/1586/351 524/1587/351
f 517/1583/351 524/1587/351 522/1588/351
f 517/1583/351 522/1588/351 516/1589/351
f 517/1583/351 516/1589/351 514/1590/351
vn -0.376869 0.066452 0.923880
f 527/1591/352 528/1592/352 519/1593/352
f 527/1591/352 519/1593/352 520/1594/352
vn -0.909845 0.160430 0.382679
f 525/1595/353 526/1596/353 528/1597/353
f 525/1595/353 528/1597/353 527/1598/353
vn 0.173649 0.984808 -0.000000
f 520/1599/354 518/1600/354 513/1601/354
f 520/1599/354 513/1601/354 515/1602/354
f 520/1599/354 515/1602/354 521/1603/354
f 520/1599/354 521/1603/354 523/1604/354
f 520/1599/354 523/1604/354 525/1605/354
f 520/1599/354 525/1605/354 527/1606/354
vn -0.173648 -0.984808 0.000004
f 472/1607/355 470/1608/355 469/1609/355
f 472/1607/355 469/1609/355 471/1610/355
f 472/1607/355 471/1610/355 532/1611/355
f 472/1607/355 532/1611/355 530/1612/355
f 472/1607/355 530/1612/355 468/1613/355
f 472/1607/355 468/1613/355 466/1614/355
f 472/1607/355 466/1614/355 465/1615/355
f 472/1607/355 465/1615/355 467/1616/355
