v 0.025615 1.021913 -0.413510
v 0.001996 0.926986 -0.185948
v -0.065603 1.066086 -0.325772
v -0.093627 1.060273 -0.251538
v 0.021475 1.051667 -0.351268
v -0.088193 0.856261 -0.119782
v 0.017526 1.061784 -0.288192
v 0.014707 1.074804 -0.244341
v -0.176980 1.047451 -0.229254
v 0.001613 0.827396 -0.083814
v 0.012280 1.072539 -0.203851
v -0.165291 1.040750 -0.193507
v 0.009974 1.059607 -0.163192
v -0.096735 1.035221 -0.148424
v 0.001996 0.911978 -0.144095
v 0.007474 1.056410 -0.121307
v -0.197128 1.015916 -0.110493
v 0.009002 0.983001 -0.141017
v 0.005530 1.040988 -0.086113
v -0.183463 1.008791 -0.089163
v 0.006563 0.944302 -0.115657
v 0.003968 1.029177 -0.057949
v -0.100539 0.989161 -0.052921
v 0.004298 0.955776 -0.084324
v 0.001592 1.030119 -0.018940
v -0.133951 0.972876 -0.029651
v 0.002978 0.937391 -0.097717
v -0.000302 1.002231 0.017948
v -0.108234 0.941910 0.000959
v 0.002921 0.889862 -0.058220
v -0.003348 0.986073 0.071476
v -0.091331 0.896268 0.005976
v -0.007297 0.941189 0.145724
v -0.055738 0.885981 0.108232
v 0.001168 0.716365 -0.261324
v -0.009550 0.893845 0.192491
v -0.042617 0.855299 0.165646
v -0.008826 0.805446 0.198493
v -0.101805 0.951590 0.012646
v -0.083780 0.941973 0.039162
v 0.001310 0.770418 -0.372534
v -0.098303 0.814399 -0.386120
v 0.000609 0.768935 -0.382722
v -0.196820 0.923044 0.038865
v -0.194620 0.939576 0.018092
v -0.194790 0.959222 0.030631
v -0.195962 0.945031 0.053915
v -0.224361 0.907451 0.043978
v -0.222015 0.935632 0.000267
v -0.221388 0.976387 0.025686
v -0.224196 0.945407 0.069001
v -0.248021 0.919092 0.040554
v -0.246398 0.938291 0.010951
v -0.245970 0.965874 0.028267
v -0.247721 0.945818 0.057799
v 0.001996 0.939409 -0.303153
v 0.001309 0.757140 -0.135043
v 0.001996 0.872078 -0.411232
v -0.089451 0.962783 -0.071377
v -0.084007 0.924765 -0.056670
v -0.069033 0.904638 -0.043322
v -0.083035 0.849569 -0.000485
v 0.006098 0.851562 -0.068591
v -0.066456 0.866917 -0.054782
v 0.001055 0.804942 -0.049446
v -0.047650 0.891012 -0.310858
v -0.047600 0.807530 -0.016477
v -0.032457 0.813570 -0.043015
v -0.003200 0.747194 -0.051204
v -0.013182 0.701449 -0.007648
v -0.035048 0.748653 -0.027350
v -0.028151 0.769971 -0.044049
v -0.164598 0.868922 -0.189981
v 0.001996 0.919850 -0.105132
v 0.001996 0.898740 -0.059942
v -0.038620 0.902118 -0.080142
v -0.121175 1.025801 -0.125999
v -0.093581 0.975051 -0.101991
v 0.002199 0.840345 -0.443491
v -0.091236 0.797611 -0.405793
v -0.000914 0.769593 -0.370191
v -0.116935 0.771783 -0.404328
v 0.002537 0.790015 -0.482345
v -0.002011 0.736165 -0.331070
v -0.121963 0.711362 -0.381053
v -0.000478 0.681470 -0.430019
v 0.001913 0.685351 -0.329817
v -0.061497 0.667818 -0.361119
v 0.002483 0.658938 -0.387581
v -0.171751 0.920400 -0.218192
v -0.221611 0.881146 -0.231768
v -0.313094 0.870215 -0.235804
v -0.315272 0.896510 -0.272268
v -0.312420 0.896358 -0.236629
v -0.843651 0.906699 -0.152856
v -0.606355 0.894100 -0.165963
v -0.841213 0.895317 -0.175322
v -0.608770 0.909191 -0.196406
v -0.607830 0.915077 -0.170602
v -0.839907 0.889662 -0.142559
v -1.084133 0.686806 -0.110922
v -0.121229 0.793405 -0.222807
v -0.540388 0.947516 -1.062054
v -0.913478 0.851399 -0.274106
v -0.819965 0.868356 -0.402713
v -0.823517 0.885080 -0.533849
v -0.866460 0.929403 -0.728457
v -0.691784 1.042034 -0.616539
v -0.511112 1.162267 -0.616886
v -0.352572 1.060271 -0.805253
v -0.561619 1.002806 -0.453462
v -0.351305 1.099952 -0.544858
v -0.632011 0.897252 -0.393841
v -0.293881 1.022593 -0.526549
v -0.734376 0.875965 -0.371747
v -0.592372 0.919082 -0.421964
v -0.087893 0.683898 -0.238157
v -0.144749 0.683316 -0.253166
v -0.132678 0.725170 -0.262071
v -0.090272 0.730076 -0.235710
v -0.110294 0.677030 -0.181856
v -0.160366 0.675568 -0.202557
v -0.150900 0.724914 -0.207604
v -0.114928 0.722875 -0.188943
v -0.107048 0.648172 -0.218178
v -0.138776 0.651017 -0.224671
v -0.089390 0.619710 -0.330167
v -0.062984 0.617488 -0.326560
v -0.068552 0.596277 -0.317501
v -0.087941 0.595475 -0.322487
v -0.086979 0.591622 -0.362670
v -0.084814 0.571162 -0.335595
v -0.054009 0.590236 -0.356072
v -0.059500 0.574143 -0.329138
v -0.141664 0.563037 -0.139248
v -0.172710 0.552458 -0.148031
v -0.130510 0.547880 -0.147146
v -0.165094 0.536327 -0.157820
v -0.183423 0.502300 0.041845
v -0.216202 0.490534 0.032775
v -0.170421 0.485036 0.034351
v -0.209245 0.472293 0.022271
v -0.170869 0.472657 0.114185
v -0.256548 0.448656 0.081198
v -0.150604 0.450358 0.092517
v -0.245845 0.425547 0.054300
v -0.213856 0.446960 0.110262
v -0.198296 0.424267 0.085510
v -0.152350 0.444757 0.126568
v -0.171946 0.461463 0.154120
v -0.215183 0.439290 0.142995
v -0.200473 0.419437 0.117290
v -0.143392 0.414075 0.144419
v -0.157241 0.411258 0.175886
v -0.198414 0.394937 0.157677
v -0.189670 0.395831 0.129452
v -0.144176 0.277083 0.112533
v -0.219137 0.400242 0.108299
v -0.278084 0.420117 0.115166
v -0.235005 0.405039 0.140148
v -0.266802 0.413151 0.079002
v -0.250922 0.359690 0.124246
v -0.238071 0.369829 0.101910
v -0.284580 0.375394 0.113471
v -0.275287 0.380858 0.087191
v -0.278880 0.251155 0.055506
v -0.179314 0.434466 0.042972
v -0.210568 0.454384 0.009710
v -0.159288 0.465856 0.017868
v -0.132353 0.415986 0.040784
v -0.158078 0.416087 0.008714
v -0.123256 0.442130 0.012692
v -0.085807 0.380752 0.084185
v -0.082199 0.872080 0.048277
v -0.004492 0.951614 0.097343
v -0.062911 0.911958 0.050680
v -0.254869 0.942282 0.034174
v 0.021567 1.030039 -0.348392
v 0.017065 1.030419 -0.274212
v 0.015242 1.023082 -0.242658
v 0.012975 1.020572 -0.204759
v 0.010744 1.012408 -0.166309
v -0.004903 0.877502 0.119169
v -0.007469 0.853058 0.166452
v -0.004003 0.844072 0.005717
v -0.004759 0.803986 -0.010437
v -0.007326 0.746085 -0.023747
v -0.001514 0.880725 0.063552
v 0.001784 0.892507 0.003184
v 0.103582 1.030384 -0.343257
v 0.123310 1.033440 -0.263665
v 0.091783 0.852901 -0.119887
v 0.203905 1.024862 -0.230824
v 0.188393 1.021749 -0.194676
v 0.115295 1.019413 -0.155224
v 0.211498 1.006420 -0.106901
v 0.195625 1.001188 -0.086240
v 0.109536 0.982706 -0.058512
v 0.140354 0.973934 -0.028966
v 0.111439 0.946966 0.005172
v 0.094103 0.896319 0.014065
v 0.046773 0.888299 0.114942
v 0.027453 0.856162 0.169895
v 0.103697 0.959206 0.014787
v 0.082842 0.954498 0.041878
v 0.100585 0.814258 -0.385991
v 0.195074 0.939498 0.057340
v 0.195324 0.951684 0.032085
v 0.194057 0.975242 0.040672
v 0.193744 0.949555 0.071366
v 0.221620 0.926098 0.069132
v 0.224196 0.942386 0.020601
v 0.221100 0.993579 0.034107
v 0.218186 0.974644 0.086007
v 0.245547 0.938387 0.065376
v 0.247525 0.951245 0.030134
v 0.245194 0.984208 0.041592
v 0.243215 0.971351 0.076834
v 0.099336 0.964616 -0.059541
v 0.092096 0.946752 -0.040051
v 0.075798 0.922978 -0.040023
v 0.077930 0.840101 0.016829
v 0.075999 0.860104 -0.041832
v 0.049485 0.890293 -0.310089
v 0.038230 0.800903 -0.003996
v 0.032343 0.808602 -0.033662
v 0.020322 0.744326 -0.019205
v 0.021820 0.766066 -0.036699
v 0.167729 0.859428 -0.194446
v 0.042372 0.903855 -0.079315
v 0.137374 1.013067 -0.129773
v 0.106621 0.975451 -0.089079
v 0.092362 0.798293 -0.406046
v 0.114410 0.776759 -0.404524
v 0.120501 0.719051 -0.380645
v 0.062890 0.673341 -0.360482
v 0.182536 0.910982 -0.226113
v 0.225364 0.873588 -0.234700
v 0.317067 0.863905 -0.235962
v 0.320097 0.891157 -0.271654
v 0.316074 0.890050 -0.236146
v 0.826837 0.891138 -0.076732
v 0.593765 0.892126 -0.131949
v 0.829415 0.888397 -0.101753
v 0.602427 0.899485 -0.163223
v 0.597043 0.909984 -0.140858
v 0.813367 0.876075 -0.075338
v 1.080690 0.696690 -0.020800
v 0.121971 0.787595 -0.224252
v 0.502851 0.905277 -1.079309
v 0.910376 0.817974 -0.199692
v 0.839511 0.843189 -0.354866
v 0.847551 0.868823 -0.490678
v 0.908330 0.944049 -0.669118
v 0.719236 1.023613 -0.570206
v 0.534165 1.147182 -0.585367
v 0.355394 1.063108 -0.805493
v 0.583666 0.977172 -0.421052
v 0.371843 1.085745 -0.543573
v 0.643411 0.878614 -0.367528
v 0.302368 1.014897 -0.531037
v 0.749104 0.853763 -0.334339
v 0.601552 0.894177 -0.394216
v 0.087417 0.693299 -0.237936
v 0.143661 0.708333 -0.254465
v 0.130063 0.737172 -0.261251
v 0.087512 0.738434 -0.236072
v 0.110187 0.683049 -0.187009
v 0.160048 0.688824 -0.208106
v 0.148394 0.737067 -0.206091
v 0.112571 0.732703 -0.187965
v 0.107716 0.664389 -0.230136
v 0.139171 0.671126 -0.236866
v 0.089800 0.671077 -0.347130
v 0.063542 0.666888 -0.344733
v 0.070057 0.645002 -0.342308
v 0.089369 0.645617 -0.347048
v 0.088332 0.649923 -0.384801
v 0.087437 0.627640 -0.355233
v 0.055555 0.646946 -0.378465
v 0.062115 0.630496 -0.350831
v 0.146462 0.637518 -0.161756
v 0.178028 0.628315 -0.170234
v 0.136187 0.621286 -0.168645
v 0.171328 0.611212 -0.178991
v 0.193062 0.590127 0.022278
v 0.226421 0.579816 0.013414
v 0.181126 0.572657 0.015381
v 0.220537 0.560680 0.003934
v 0.180922 0.566796 0.096419
v 0.268234 0.545274 0.066256
v 0.162183 0.542733 0.075559
v 0.259008 0.519882 0.040374
v 0.225103 0.543329 0.094347
v 0.211075 0.519451 0.070106
v 0.163434 0.539751 0.108761
v 0.182537 0.556428 0.136662
v 0.226680 0.536241 0.124680
v 0.212525 0.520194 0.094138
v 0.156673 0.508099 0.130155
v 0.171812 0.504267 0.161378
v 0.213480 0.492480 0.141301
v 0.203646 0.491129 0.112648
v 0.167968 0.367926 0.105737
v 0.233297 0.495830 0.096930
v 0.291284 0.519697 0.102694
v 0.249693 0.503487 0.128666
v 0.279344 0.509961 0.066264
v 0.267617 0.457298 0.115016
v 0.253688 0.466392 0.092439
v 0.300350 0.474198 0.102658
v 0.290088 0.477907 0.076271
v 0.297228 0.346599 0.051050
v 0.193069 0.521393 0.026681
v 0.223252 0.541531 -0.007500
v 0.171561 0.550074 -0.000424
v 0.147358 0.499714 0.025274
v 0.173458 0.499510 -0.006511
v 0.137112 0.523618 -0.004411
v 0.101673 0.463094 0.072096
v 0.079075 0.872383 0.058045
v 0.060431 0.920389 0.058694
v 0.253212 0.961402 0.054063
v -0.064489 0.774057 -0.332428
v 0.067392 0.772080 -0.332830
v 0.106203 0.802202 -0.293882
v -0.103874 0.804414 -0.293230
vt 0.474247 1.000024
vt 0.432881 1.000024
vt 0.434057 0.893539
vt 0.509861 1.000024
vt 0.500227 0.768354
vt 0.559969 0.937079
vt 0.645064 0.954173
vt 0.560228 0.940601
vt 0.583639 0.999781
vt 0.500485 0.773130
vt 0.557266 0.999781
vt 0.078178 0.645053
vt 0.145329 0.600948
vt 0.009554 0.578044
vt 0.629598 0.999781
vt 0.656534 0.999781
vt 0.043058 0.667957
vt 0.009554 0.620213
vt 0.512543 0.981892
vt 0.471564 0.821771
vt 0.527454 0.989559
vt 0.480692 0.821771
vt 0.462656 0.892018
vt 0.010156 0.671319
vt 0.079997 0.644406
vt 0.044254 0.667717
vt 0.462330 0.893296
vt 0.363979 0.871999
vt 0.417906 0.999781
vt 0.180894 0.905878
vt 0.211214 0.926339
vt 0.151369 0.927184
vt 0.432105 0.999781
vt 0.359627 0.798296
vt 0.329341 0.825147
vt 0.386839 0.999781
vt 0.298881 0.891138
vt 0.380070 1.000024
vt 0.307338 1.000024
vt 0.334880 0.898555
vt 0.095969 0.432562
vt 0.010156 0.431276
vt 0.010156 0.398660
vt 0.265186 1.000024
vt 0.239898 1.000024
vt 0.239968 0.910398
vt 0.267768 0.860783
vt 0.297710 0.999781
vt 0.009554 0.431384
vt 0.093871 0.436902
vt 0.086972 0.413221
vt 0.202414 0.914836
vt 0.196688 0.802296
vt 0.184322 0.800589
vt 0.117628 0.999781
vt 0.102109 0.947707
vt 0.039265 0.964220
vt 0.191148 0.775024
vt 0.167133 0.773191
vt 0.225497 0.888506
vt 0.213084 0.801976
vt 0.224475 0.802438
vt 0.186573 0.800832
vt 0.225358 0.895351
vt 0.222224 0.802195
vt 0.819590 0.933905
vt 0.741830 1.002771
vt 0.745676 0.981737
vt 0.169384 0.773434
vt 0.219437 0.773434
vt 0.241200 0.775024
vt 0.678604 0.929671
vt 0.702745 0.932100
vt 0.798477 0.934975
vt 0.755545 0.885339
vt 0.756364 0.860805
vt 0.008395 0.999781
vt 0.050191 0.999781
vt 0.006807 0.579017
vt 0.088521 0.542699
vt 0.142997 0.606255
vt 0.106762 0.390629
vt 0.009554 0.409522
vt 0.821998 0.059350
vt 0.793626 0.064078
vt 0.821998 0.017938
vt 0.109088 0.385467
vt 0.010156 0.356430
vt 0.010156 0.294247
vt 0.164845 0.936891
vt 0.132684 0.917898
vt 0.158955 0.999781
vt 0.251493 0.999781
vt 0.121032 0.522092
vt 0.010156 0.538976
vt 0.229751 1.000024
vt 0.202874 0.960390
vt 0.297894 0.904225
vt 0.270019 0.861025
vt 0.821997 0.148207
vt 0.768986 0.140328
vt 0.781726 0.108721
vt 0.175211 1.000024
vt 0.138634 1.000024
vt 0.092576 1.000024
vt 0.033907 1.000024
vt 0.054982 0.974363
vt 0.091565 0.955891
vt 0.098755 0.966742
vt 0.006807 0.497303
vt 0.006807 0.433747
vt 0.061283 0.470065
vt 0.131496 0.917612
vt 0.004047 1.000024
vt 0.032968 0.971590
vt 0.648570 0.954416
vt 0.658785 1.000024
vt 0.609179 1.000024
vt 0.010156 0.635279
vt 0.299877 0.892636
vt 0.355604 0.794775
vt 0.202357 0.999781
vt 0.088947 0.408461
vt 0.428579 0.656093
vt 0.423662 0.696384
vt 0.468944 0.689061
vt 0.531845 0.681720
vt 0.536419 0.712644
vt 0.610352 0.692828
vt 0.102623 0.365689
vt 0.112804 0.333641
vt 0.080802 0.297116
vt 0.248096 0.339680
vt 0.277080 0.531051
vt 0.282148 0.327738
vt 0.196955 0.568250
vt 0.171694 0.589610
vt 0.275180 0.560080
vt 0.523059 0.538596
vt 0.753690 0.411864
vt 0.394870 0.237242
vt 0.280495 0.557925
vt 0.282428 0.528381
vt 0.532773 0.536061
vt 0.269459 0.553689
vt 0.519237 0.554218
vt 0.535788 0.556253
vt 0.716599 0.481061
vt 0.595223 0.398790
vt 0.437154 0.342183
vt 0.464362 0.360988
vt 0.701500 0.500488
vt 0.703680 0.484556
vt 0.526021 0.558436
vt 0.709844 0.503462
vt 0.127878 0.521223
vt 0.090830 0.544067
vt 0.505343 0.387091
vt 0.948055 0.392623
vt 0.722873 0.500303
vt 0.965311 0.387497
vt 0.008771 0.540307
vt 0.173246 0.589150
vt 0.118191 0.524020
vt 0.665937 0.364567
vt 0.539998 0.204645
vt 0.660993 0.264792
vt 0.287140 0.166653
vt 0.009554 0.494631
vt 0.009554 0.385842
vt 0.124838 0.524541
vt 0.197472 0.569937
vt 0.278223 0.559193
vt 0.280150 0.529746
vt 0.065707 0.507251
vt 0.148340 0.599519
vt 0.175172 0.587980
vt 0.469280 0.659417
vt 0.505147 0.691113
vt 0.358231 0.813259
vt 0.396762 0.861519
vt 0.463835 0.781576
vt 0.334361 0.622665
vt 0.318366 0.723370
vt 0.458201 0.720399
vt 0.455465 0.629717
vt 0.535658 0.660000
vt 0.620783 0.673963
vt 0.453440 0.629177
vt 0.584055 0.653212
vt 0.584827 0.677850
vt 0.503016 0.653376
vt 0.539342 0.629326
vt 0.620698 0.651899
vt 0.732105 0.651967
vt 0.728838 0.643284
vt 0.621615 0.624442
vt 0.632604 0.637198
vt 0.636322 0.685307
vt 0.636814 0.636255
vt 0.621290 0.624515
vt 0.619952 0.697967
vt 0.621630 0.699173
vt 0.734007 0.671131
vt 0.729414 0.682004
vt 0.844311 0.686359
vt 0.621380 0.674077
vt 0.636178 0.688381
vt 0.733584 0.644686
vt 0.849901 0.650483
vt 0.851008 0.673148
vt 0.928244 0.660805
vt 0.843633 0.637183
vt 0.730695 0.682992
vt 0.844925 0.638417
vt 0.740409 0.775706
vt 0.713106 0.780706
vt 0.704568 0.818200
vt 0.896603 0.625215
vt 0.878631 0.609036
vt 0.785632 0.738775
vt 0.737278 0.738859
vt 0.880723 0.715185
vt 0.913616 0.613223
vt 0.897236 0.601821
vt 0.730897 0.812957
vt 0.780941 0.817868
vt 0.792510 0.817868
vt 0.790023 0.778792
vt 0.898074 0.698036
vt 0.711846 0.726905
vt 0.683097 0.727238
vt 0.685751 0.762377
vt 0.965266 0.662943
vt 0.955920 0.640956
vt 0.937049 0.627702
vt 0.714789 0.764119
vt 0.941121 0.702714
vt 0.919603 0.714522
vt 0.932540 0.731689
vt 0.929544 0.592491
vt 0.912862 0.581726
vt 0.967203 0.616180
vt 0.950630 0.603144
vt 0.902827 0.726042
vt 0.957928 0.692611
vt 0.950735 0.721911
vt 0.964856 0.713499
vt 0.615440 0.761890
vt 0.984016 0.535583
vt 0.918749 0.741460
vt 0.685114 0.782002
vt 0.679087 0.810945
vt 0.847072 0.686366
vt 0.914720 0.615321
vt 0.929979 0.594898
vt 0.950087 0.605671
vt 0.608583 0.784975
vt 0.984016 0.786714
vt 0.799318 0.743667
vt 0.831117 0.767611
vt 0.823981 0.791937
vt 0.982769 0.539053
vt 0.825639 0.742255
vt 0.886191 0.771748
vt 0.391135 0.800147
vt 0.375753 0.599215
vt 0.324001 0.784547
vt 0.429296 0.757561
vt 0.279186 0.533620
vt 0.270107 0.551779
vt 0.178643 0.905635
vt 0.750796 0.933481
vt 0.821997 0.285131
vt 0.821997 0.331456
vt 0.791374 0.330169
vt 0.821998 0.110806
vt 0.821997 0.238271
vt 0.779153 0.273656
vt 0.544401 1.000024
vt 0.473816 0.822014
vt 0.821997 0.190377
vt 0.754407 0.181463
vt 0.759288 0.228469
vt 0.375409 0.872242
vt 0.334031 0.621557
vt 0.821996 0.381399
vt 0.647236 0.956984
vt 0.563654 0.943411
vt 0.541813 1.000083
vt 0.434491 1.000083
vt 0.389226 1.000083
vt 0.329218 0.822939
vt 0.586026 1.000083
vt 0.561360 0.944666
vt 0.644941 0.954474
vt 0.559653 1.000083
vt 0.500362 0.770922
vt 0.043124 0.669810
vt 0.006807 0.660730
vt 0.006807 0.624413
vt 0.658921 1.000083
vt 0.631985 1.000083
vt 0.064720 0.466534
vt 0.558639 0.973714
vt 0.530104 0.984870
vt 0.473951 0.822073
vt 0.493413 0.964305
vt 0.434192 0.893597
vt 0.295305 0.904284
vt 0.262597 1.000083
vt 0.304749 1.000083
vt 0.376800 0.873555
vt 0.178305 0.905936
vt 0.128907 0.917671
vt 0.148780 0.927242
vt 0.502657 0.770922
vt 0.507272 1.000083
vt 0.353495 1.000083
vt 0.300013 0.892694
vt 0.377481 1.000083
vt 0.332291 0.898614
vt 0.094303 0.434241
vt 0.087304 0.410219
vt 0.008771 0.400451
vt 0.237380 0.910457
vt 0.237309 1.000083
vt 0.300096 1.000083
vt 0.270155 0.861084
vt 0.006807 0.415589
vt 0.088521 0.415589
vt 0.186709 0.800890
vt 0.199074 0.802597
vt 0.204801 0.915138
vt 0.120014 1.000083
vt 0.052578 1.000083
vt 0.041652 0.964521
vt 0.169520 0.773492
vt 0.193534 0.775326
vt 0.221886 0.802496
vt 0.210495 0.802034
vt 0.222908 0.888565
vt 0.183984 0.800890
vt 0.224610 0.802496
vt 0.227744 0.895652
vt 0.818979 0.933781
vt 0.797866 0.934852
vt 0.745065 0.981613
vt 0.216848 0.773492
vt 0.166795 0.773492
vt 0.243587 0.775326
vt 0.240862 0.775326
vt 0.741219 1.002647
vt 0.702134 0.931977
vt 0.754934 0.885215
vt 0.677993 0.929547
vt 0.030379 0.971649
vt 0.004640 1.000083
vt 0.031318 1.000083
vt 0.390828 0.798355
vt 0.376482 0.598671
vt 0.336115 0.622653
vt 0.006807 0.406510
vt 0.106679 0.388351
vt 0.851059 0.063308
vt 0.457276 0.719815
vt 0.453813 0.628344
vt 0.253879 1.000083
vt 0.204744 1.000083
vt 0.225632 0.888565
vt 0.161342 1.000083
vt 0.104496 0.948009
vt 0.135070 0.918200
vt 0.167232 0.937192
vt 0.355525 0.798597
vt 0.332768 0.820429
vt 0.208625 0.926398
vt 0.267430 0.861084
vt 0.864773 0.108127
vt 0.136045 1.000083
vt 0.172622 1.000083
vt 0.052394 0.974421
vt 0.089988 1.000083
vt 0.088976 0.955950
vt 0.096166 0.966800
vt 0.606590 1.000083
vt 0.656197 1.000083
vt 0.078383 0.645391
vt 0.146502 0.600651
vt 0.008771 0.636294
vt 0.200285 0.960449
vt 0.180124 1.000083
vt 0.042758 0.668625
vt 0.008771 0.672215
vt 0.297289 0.892694
vt 0.107379 0.387301
vt 0.008771 0.358360
vt 0.428686 0.656513
vt 0.468892 0.659410
vt 0.468203 0.688038
vt 0.531875 0.681591
vt 0.621501 0.673619
vt 0.608476 0.692734
vt 0.251948 0.333875
vt 0.279186 0.324796
vt 0.279186 0.560858
vt 0.760390 0.406510
vt 0.524328 0.542699
vt 0.397217 0.234002
vt 0.532678 0.557526
vt 0.529674 0.537400
vt 0.524328 0.551779
vt 0.719149 0.501760
vt 0.712896 0.482582
vt 0.596962 0.397430
vt 0.442614 0.342954
vt 0.469852 0.361113
vt 0.714994 0.488223
vt 0.705914 0.497303
vt 0.714994 0.506382
vt 0.533407 0.560858
vt 0.185212 0.068914
vt 0.118861 0.520693
vt 0.506169 0.388351
vt 0.960135 0.388351
vt 0.960792 0.389324
vt 0.669597 0.361113
vt 0.542487 0.197685
vt 0.705914 0.097813
vt 0.669597 0.261240
vt 0.288266 0.161368
vt 0.117270 0.522284
vt 0.006807 0.379272
vt 0.198872 0.567482
vt 0.136648 0.556264
vt 0.227162 1.000083
vt 0.376585 0.873555
vt 0.431468 0.893597
vt 0.502840 0.652110
vt 0.505978 0.691525
vt 0.357939 0.812192
vt 0.429570 0.757383
vt 0.464592 0.782081
vt 0.086436 0.358292
vt 0.458958 0.720904
vt 0.335392 0.623349
vt 0.318170 0.722492
vt 0.453772 0.629519
vt 0.502319 0.652263
vt 0.535541 0.658953
vt 0.620485 0.651860
vt 0.585286 0.677959
vt 0.585036 0.653036
vt 0.537196 0.712397
vt 0.539568 0.628809
vt 0.609924 0.637981
vt 0.736240 0.644628
vt 0.738065 0.654240
vt 0.620479 0.651731
vt 0.636644 0.688789
vt 0.634341 0.636845
vt 0.620659 0.626212
vt 0.621630 0.626169
vt 0.634415 0.636711
vt 0.621747 0.698284
vt 0.637904 0.688632
vt 0.622722 0.698509
vt 0.739936 0.673088
vt 0.855011 0.675072
vt 0.848424 0.688066
vt 0.735290 0.683841
vt 0.733904 0.683902
vt 0.735955 0.644357
vt 0.853922 0.652780
vt 0.930976 0.662932
vt 0.847757 0.639699
vt 0.846770 0.687464
vt 0.844901 0.639940
vt 0.705288 0.816480
vt 0.713826 0.778987
vt 0.740720 0.773576
vt 0.882179 0.612015
vt 0.899856 0.627928
vt 0.785942 0.736645
vt 0.737589 0.736729
vt 0.901302 0.699551
vt 0.884237 0.716418
vt 0.900479 0.604918
vt 0.916589 0.616133
vt 0.731208 0.810827
vt 0.781252 0.815738
vt 0.790334 0.776663
vt 0.792820 0.815738
vt 0.685652 0.759838
vt 0.682998 0.724699
vt 0.711337 0.723956
vt 0.939637 0.630374
vt 0.958197 0.643410
vt 0.714280 0.761171
vt 0.943641 0.704152
vt 0.953097 0.723032
vt 0.935201 0.732650
vt 0.915847 0.585154
vt 0.932255 0.595743
vt 0.952994 0.606220
vt 0.969294 0.619042
vt 0.922477 0.715765
vt 0.905978 0.727096
vt 0.960172 0.694215
vt 0.966986 0.714759
vt 0.617389 0.759351
vt 0.985830 0.539770
vt 0.921638 0.742261
vt 0.680217 0.809225
vt 0.686244 0.780282
vt 0.937908 0.632033
vt 0.914075 0.616766
vt 0.799629 0.741538
vt 0.950384 0.606690
vt 0.929177 0.595962
vt 0.606845 0.782846
vt 0.985831 0.786770
vt 0.825950 0.740125
vt 0.831428 0.765482
vt 0.824292 0.789807
vt 0.983405 0.540292
vt 0.886502 0.769618
vt 0.079441 0.642572
vt 0.323805 0.783669
vt 0.434321 0.717690
vt 0.181030 0.905936
vt 0.750185 0.933357
vt 0.852619 0.330170
vt 0.864841 0.273657
vt 0.471659 1.000083
vt 0.471227 0.822073
vt 0.875009 0.140328
vt 0.884706 0.228470
vt 0.005478 0.997961
vt 0.114251 0.350647
vt 0.008771 0.296380
vt 0.128249 0.435302
vt 0.008771 0.432960
vt 0.118380 0.522092
vt 0.175368 0.588619
vt 0.080720 0.522092
vt 0.116882 0.518706
vt 0.184949 0.068196
vt 0.118473 0.523480
vt 0.062823 0.510229
vt 0.088521 0.433747
vt 0.009554 0.660973
vt 0.474881 0.981892
vt 0.498876 0.974226
vt 0.010156 0.675711
vt 0.499828 0.971670
vt 0.345428 0.798296
vt 0.351108 0.999781
vt 0.009554 0.417542
vt 0.227609 0.895594
vt 0.243451 0.775267
vt 0.115982 0.348692
vt 0.223246 0.888263
vt 0.129915 0.437866
vt 0.182713 1.000024
vt 0.326573 0.827899
vt 0.051738 0.313685
vt 0.695543 0.105347
vt 0.187334 0.073157
vt 0.119252 0.520838
vt 0.200882 0.566241
vt 0.375541 0.599880
vt 0.459519 0.720731
vt 0.609394 0.637996
vt 0.636730 0.636125
vt 0.637405 0.688736
vt 0.938273 0.630062
vt 0.434214 0.717270
vt 0.356995 0.797342
vt 0.225020 0.895652
vt 0.755753 0.860681
vt 0.008771 0.676593
vt 0.423936 0.696206
vt 0.170235 0.588096
vt 0.430293 1.000083
vt 0.396997 0.861241
vt 0.057372 0.374862
vt 0.634627 0.636963
vt 0.637990 0.688597
vt 0.967389 0.665035
vt 0.889587 0.181464
vt 0.376483 0.598964
vn -0.059900 -0.992000 -0.111000
vn -0.078800 -0.860400 -0.503400
vn -0.936700 0.294400 -0.189300
vn -0.089800 -0.978400 -0.186000
vn -0.943000 0.061500 -0.327000
vn -0.401400 0.477400 -0.781600
vn -0.843600 0.258300 -0.470800
vn 0.149800 0.974100 -0.169300
vn 0.074600 0.991500 -0.106000
vn -0.692200 0.081200 0.717100
vn -0.766400 -0.246700 0.593000
vn -0.009800 -0.805400 0.592600
vn 0.162800 0.940100 -0.299400
vn -0.014100 -0.277600 -0.960600
vn -0.941400 -0.213900 -0.260600
vn -0.006600 -0.461600 0.887100
vn -0.860100 -0.097000 0.500700
vn 0.057400 0.980000 0.190200
vn 0.011800 0.995200 0.096600
vn -0.298100 0.442700 -0.845600
vn 0.038700 0.976800 0.210300
vn -0.817800 -0.571500 0.068400
vn -0.741800 -0.404800 -0.534500
vn -0.612000 -0.118800 -0.781900
vn -0.956200 0.147100 -0.253100
vn -0.745000 -0.091200 0.660800
vn 0.021400 0.895200 0.445100
vn -0.749600 0.645500 0.146100
vn -0.006800 -0.634500 -0.772900
vn 0.024500 -0.919700 -0.391900
vn -0.383900 -0.831500 -0.401500
vn -0.990000 0.025600 -0.138700
vn 0.006200 0.805600 -0.592400
vn 0.005100 0.660600 -0.750700
vn 0.049300 -0.758000 -0.650400
vn 0.015500 0.433000 -0.901200
vn -0.629900 -0.522100 -0.575000
vn -0.972100 0.234400 0.006900
vn -0.006900 0.953900 0.300100
vn 0.000500 -0.985300 -0.171000
vn -0.905000 0.417800 -0.080300
vn -0.414200 0.301400 0.858800
vn 0.351800 0.230800 0.907100
vn 0.315600 -0.933500 0.170100
vn -0.044000 0.870100 0.491000
vn -0.932000 -0.304100 0.197200
vn -0.884800 -0.459900 0.075400
vn 0.023400 0.163400 0.986300
vn 0.017700 -0.975600 0.218900
vn -0.853600 -0.194500 -0.483300
vn 0.226300 -0.174000 -0.958300
vn 0.321200 0.937700 -0.132500
vn -0.327600 0.867200 0.375000
vn 0.080500 0.975600 -0.204000
vn -0.639900 0.752900 -0.153800
vn 0.066000 -0.212500 -0.974900
vn -0.652400 -0.145700 -0.743700
vn -0.670900 0.196300 0.715000
vn -0.693900 -0.708500 0.128700
vn -0.012000 -0.922600 0.385400
vn -0.058900 0.481900 0.874200
vn 0.805000 -0.592800 -0.025100
vn 0.794000 -0.278500 0.540400
vn -0.815500 0.465000 -0.344500
vn -0.002000 0.890000 0.455900
vn -0.139600 0.073000 0.987500
vn -0.874800 -0.440800 0.200600
vn -0.136500 -0.875800 0.463000
vn 0.015700 0.115600 -0.993200
vn 0.012900 -0.661900 -0.749500
vn -0.716500 0.169000 0.676800
vn -0.744900 -0.646700 0.164100
vn -0.058900 0.799900 0.597200
vn -0.047500 0.870800 0.489300
vn -0.726700 0.327000 -0.604100
vn 0.012700 0.922500 -0.385800
vn -0.019800 0.817700 -0.575300
vn -0.652600 -0.519900 -0.551100
vn -0.124800 -0.162700 0.978700
vn -0.767100 -0.433000 0.473300
vn -0.774600 -0.515900 0.365900
vn 0.068800 -0.148100 -0.986600
vn 0.101800 -0.101400 -0.989600
vn 0.129400 -0.188000 -0.973600
vn 0.099500 -0.422600 -0.900800
vn -0.594300 -0.118000 -0.795500
vn -0.541300 -0.285100 -0.791000
vn -0.011300 -0.998800 -0.047800
vn 0.677700 -0.677600 -0.285600
vn -0.190200 -0.980000 0.057600
vn 0.025800 0.941600 0.335600
vn -0.068500 0.775400 0.627800
vn 0.484100 0.727300 0.486500
vn -0.713200 0.700500 -0.025500
vn -0.694800 0.654600 0.297700
vn -0.611600 -0.770400 0.179900
vn -0.908000 -0.170400 -0.382600
vn -0.544200 0.527300 -0.652500
vn 0.057600 -0.989400 -0.132900
vn -0.216500 -0.965400 -0.145000
vn -0.740000 -0.672500 0.008900
vn -0.084800 -0.598800 -0.796400
vn -0.486500 -0.837400 -0.249000
vn -0.176000 -0.855700 0.486600
vn -0.262800 0.880000 0.395700
vn 0.008800 0.723100 0.690700
vn -0.066100 -0.924300 -0.375700
vn 0.363700 -0.931200 0.022200
vn 0.014600 -0.920900 -0.389600
vn 0.065000 -0.922100 0.381500
vn 0.104400 -0.751600 0.651300
vn 0.087400 0.843700 0.529500
vn 0.156300 -0.894500 -0.418800
vn 0.118200 -0.984000 -0.133000
vn 0.414400 -0.605600 -0.679300
vn 0.381700 -0.729100 -0.567900
vn 0.213500 -0.360100 0.908100
vn -0.334900 0.911000 0.240500
vn -0.826200 -0.563000 -0.018400
vn 0.186000 -0.929300 -0.319000
vn 0.620700 -0.775300 -0.116600
vn 0.269100 0.875700 0.400700
vn 0.731100 0.297300 -0.614000
vn 0.121000 -0.988400 -0.091600
vn 0.605500 -0.527100 -0.596100
vn 0.236100 -0.942700 -0.235800
vn -0.911000 0.302300 0.280300
vn -0.017000 0.728900 0.684300
vn 0.164900 -0.866800 0.470500
vn -0.063900 0.718500 0.692600
vn 0.105400 -0.615800 -0.780800
vn -0.903100 -0.094800 -0.418700
vn 0.255000 0.587900 0.767700
vn -0.856100 -0.297600 0.422500
vn -0.779900 -0.406800 -0.475600
vn 0.899300 -0.213400 0.381800
vn 0.394100 -0.722000 0.568600
vn -0.998700 -0.020300 -0.046400
vn 0.818600 0.534300 -0.210900
vn 0.351100 -0.277800 0.894100
vn 0.861000 0.053900 0.505800
vn 0.280400 0.903200 0.325000
vn 0.904900 -0.376300 0.198900
vn 0.763100 -0.052200 -0.644100
vn 0.805200 -0.592700 0.016900
vn -0.482000 -0.785000 -0.389000
vn -0.490300 -0.024400 -0.871200
vn -0.860700 0.486400 -0.150300
vn -0.455100 -0.788000 -0.414600
vn -0.639500 -0.312300 -0.702500
vn 0.187300 0.913100 0.362200
vn -0.785400 0.618800 -0.017100
vn -0.517500 0.635900 0.572600
vn 0.982800 0.169500 -0.073400
vn 0.392200 -0.884200 -0.253500
vn 0.837200 -0.544900 -0.045800
vn -0.591600 -0.201500 -0.780600
vn 0.228700 0.926700 0.298200
vn 0.958800 -0.214100 -0.186800
vn -0.371300 -0.523900 -0.766500
vn 0.141200 0.766400 0.626600
vn 0.992100 0.062300 -0.108700
vn -0.821300 -0.114200 -0.558900
vn 0.004300 -0.823000 0.568000
vn -0.735200 0.677800 -0.003800
vn 0.970900 0.090700 -0.221700
vn -0.465900 -0.327000 -0.822200
vn -0.474500 -0.769200 -0.427900
vn -0.899500 0.224600 0.374700
vn 0.285700 0.013000 0.958200
vn -0.802300 0.441800 0.401400
vn -0.902100 -0.069300 0.425800
vn 0.354700 0.054500 0.933400
vn -0.783400 -0.337500 0.521800
vn 0.277200 -0.487700 0.827800
vn 0.874800 -0.270900 -0.401700
vn 0.209600 -0.936100 -0.282300
vn -0.484900 0.087500 -0.870100
vn 0.623500 0.682900 -0.380600
vn 0.794900 0.427700 -0.430200
vn -0.182000 -0.719600 -0.670000
vn -0.128600 -0.912900 -0.387400
vn -0.378500 0.188300 0.906200
vn 0.563600 -0.478300 0.673500
vn 0.023300 -0.782400 0.622300
vn -0.085900 -0.940100 0.329900
vn -0.999000 0.029000 -0.032800
vn 0.037800 -0.956300 -0.289700
vn 0.049500 -0.744500 -0.665800
vn -0.159800 -0.289400 0.943800
vn 0.009600 -0.999000 -0.043000
vn -0.153200 -0.980000 -0.127100
vn -0.063300 -0.765700 0.640100
vn 0.878900 -0.137900 -0.456500
vn 0.499400 -0.105800 -0.859900
vn 0.691800 -0.120200 0.712000
vn 0.962100 -0.072300 -0.262900
vn 0.986700 -0.131500 -0.095200
vn 0.089000 -0.935900 -0.340900
vn -0.685600 -0.673700 -0.275700
vn 0.808200 -0.167500 0.564500
vn 0.075800 0.975600 0.206200
vn 0.988400 -0.084600 -0.125900
vn 0.525700 -0.748200 -0.404700
vn 0.376500 0.173600 -0.910000
vn 0.857400 -0.486700 0.166800
vn 0.604700 -0.453800 0.654500
vn 0.721100 -0.261700 -0.641500
vn 0.030400 0.979300 0.199900
vn 0.936600 0.308700 0.165900
vn 0.346800 -0.904200 -0.249100
vn 0.988900 0.017200 -0.147500
vn 0.906600 0.410500 -0.097700
vn 0.597800 -0.628200 -0.497900
vn 0.989400 0.138200 -0.043600
vn -0.455700 0.297300 0.839000
vn -0.274000 -0.957700 0.087500
vn -0.540000 -0.127800 0.831900
vn 0.363700 0.475700 0.800900
vn 0.880000 -0.439000 0.181100
vn 0.023300 -0.907600 0.419200
vn -0.144700 0.447900 0.882300
vn -0.469900 0.834900 -0.286500
vn -0.092800 -0.354000 -0.930600
vn 0.827700 -0.251200 -0.501700
vn 0.325600 0.899700 0.290600
vn 0.612800 0.353300 0.706900
vn 0.669100 0.697300 -0.257100
vn 0.026000 -0.488600 -0.872100
vn -0.079200 0.884900 -0.459100
vn 0.723900 -0.263100 -0.637700
vn 0.692900 -0.620900 0.366500
vn 0.702800 -0.564500 0.432900
vn 0.302300 -0.946200 -0.115000
vn 0.813300 0.473300 -0.338500
vn 0.941300 0.011600 -0.337300
vn -0.841000 -0.302500 0.448500
vn 0.920900 -0.251600 0.297600
vn 0.698000 -0.664700 0.266200
vn 0.630700 0.172200 0.756600
vn 0.976600 0.063300 -0.205500
vn 0.772900 -0.400800 -0.491800
vn 0.540100 -0.604000 0.586000
vn 0.770700 -0.226200 -0.595600
vn 0.680400 -0.395300 -0.617100
vn 0.708600 0.070600 0.702000
vn -0.530300 0.705200 0.470600
vn -0.274300 0.525000 0.805700
vn 0.650000 0.669000 0.360400
vn 0.647100 -0.760500 -0.052800
vn 0.981900 0.009900 -0.189200
vn 0.495700 0.736900 -0.459700
vn 0.679600 -0.733400 -0.014000
vn 0.460200 -0.852000 -0.249500
vn -0.382300 -0.914500 0.132500
vn 0.057300 -0.982800 -0.175700
vn 0.005700 -0.895100 -0.445700
vn -0.095700 0.944300 0.314800
vn -0.207300 -0.569400 0.795500
vn 0.187200 0.795900 0.575700
vn -0.185600 -0.936000 -0.299100
vn -0.135700 -0.976500 -0.167500
vn -0.405700 -0.543400 -0.734900
vn -0.340700 -0.738900 -0.581300
vn -0.396800 -0.652600 0.645500
vn -0.909100 0.097700 0.404800
vn -0.155200 -0.948600 -0.275600
vn -0.608500 -0.791500 0.056900
vn -0.147400 -0.978300 -0.145400
vn -0.522600 -0.525100 -0.671700
vn -0.423700 -0.681700 -0.596500
vn -0.232100 -0.900900 -0.366700
vn 0.971300 0.051800 0.232000
vn -0.304900 -0.469600 0.828500
vn 0.866200 -0.351700 0.354900
vn 0.800300 -0.401600 -0.445200
vn 0.615700 0.787500 -0.027200
vn -0.294500 -0.895500 0.333600
vn -0.914000 0.004700 0.405700
vn -0.822300 0.565500 -0.063800
vn -0.883500 -0.408600 0.228900
vn -0.333500 0.909000 0.249800
vn 0.495900 -0.790700 -0.358900
vn -0.800800 -0.596500 0.053200
vn -0.758800 -0.011500 -0.651200
vn 0.475200 0.086500 -0.875600
vn 0.821500 0.535100 -0.197100
vn 0.750300 0.657400 -0.069300
vn 0.663600 -0.318500 -0.676900
vn 0.501800 -0.784500 -0.364300
vn -0.229200 0.928600 0.291700
vn 0.462600 0.700100 0.543900
vn -0.991500 0.097600 -0.085200
vn 0.593500 -0.234500 -0.769900
vn -0.816100 -0.577800 -0.004700
vn -0.364400 -0.917800 -0.157200
vn -0.944300 -0.280500 -0.172200
vn -0.267900 0.933000 0.240200
vn 0.696200 0.716600 -0.040200
vn 0.419400 -0.559400 -0.714900
vn -0.993700 0.024500 -0.109400
vn -0.169000 0.771700 0.613100
vn 0.086700 -0.760900 0.643000
vn 0.834200 -0.094600 -0.543300
vn 0.445300 -0.347200 -0.825300
vn -0.985600 0.022900 -0.167600
vn 0.899800 0.272100 0.341000
vn 0.465500 -0.814700 -0.345700
vn -0.276100 0.061100 0.959200
vn -0.237300 -0.451200 0.860300
vn 0.914900 -0.007500 0.403600
vn -0.317700 0.052700 0.946700
vn 0.831600 -0.247300 0.497200
vn 0.778600 0.505800 0.371300
vn -0.869100 -0.334100 -0.364700
vn -0.138900 -0.965800 -0.218600
vn 0.467200 0.062600 -0.881900
vn -0.670900 0.602200 -0.432800
vn 0.236600 -0.746200 -0.622200
vn -0.815100 0.349800 -0.461600
vn 0.148700 -0.926900 -0.344400
vn 0.356400 0.274000 0.893200
vn -0.537600 -0.472800 0.698100
vn 0.996500 0.040800 0.072300
vn 0.926600 -0.107600 0.360300
vn 0.908700 -0.082500 -0.409100
vn 0.508300 -0.715900 -0.478600
s 1
f 181/1/1 182/2/2 14/3/3
f 180/4/4 9/5/5 4/6/6
f 3/7/7 4/8/6 7/9/8
f 4/8/6 9/10/5 8/11/9
f 6/12/10 73/13/11 57/14/12
f 3/7/7 5/15/13 1/16/14
f 76/17/15 6/12/10 10/18/16
f 8/19/9 9/10/5 12/20/17
f 11/21/18 12/22/17 14/23/3
f 15/24/19 6/25/10 76/26/15
f 14/27/3 77/28/20 16/29/21
f 32/30/22 61/31/23 64/32/24
f 16/33/21 17/34/25 20/35/26
f 19/36/27 20/35/26 23/37/28
f 18/38/29 21/39/30 78/40/31
f 42/41/32 58/42/33 79/43/34
f 24/44/35 27/45/36 60/46/37
f 23/37/28 26/47/38 25/48/39
f 41/49/40 42/50/32 80/51/41
f 40/52/42 47/53/43 44/54/44
f 33/55/45 34/56/46 37/57/47
f 47/53/43 51/58/48 48/59/49
f 29/60/50 45/61/51 46/62/52
f 29/60/50 32/30/22 44/63/44
f 39/64/53 46/65/52 47/53/43
f 51/66/48 50/67/54 54/68/55
f 44/63/44 48/69/49 49/70/56
f 46/65/52 50/71/54 51/58/48
f 46/62/52 45/61/51 49/70/56
f 50/67/54 49/72/56 53/73/57
f 51/66/48 55/74/58 52/75/59
f 49/72/56 48/76/49 52/75/59
f 37/57/47 38/77/60 36/78/61
f 57/79/12 249/80/62 229/81/63
f 80/51/41 82/82/64 81/83/65
f 187/84/66 71/85/67 70/86/68
f 82/87/64 83/88/69 86/89/70
f 176/90/71 174/91/72 175/92/73
f 28/93/74 39/64/53 40/52/42
f 26/47/38 39/64/53 25/48/39
f 175/92/73 174/91/72 34/56/46
f 66/94/75 56/95/76 58/42/33
f 27/45/36 74/96/77 76/97/15
f 60/46/37 61/31/23 29/60/50
f 59/98/78 60/46/37 26/99/38
f 29/60/50 61/31/23 32/30/22
f 185/100/79 62/101/80 67/102/81
f 30/103/82 63/104/83 64/32/24
f 65/105/84 69/106/85 72/107/86
f 67/108/81 68/109/87 72/107/86
f 35/110/88 41/111/40 325/112/89
f 62/113/80 64/32/24 68/109/87
f 63/104/83 65/105/84 68/109/87
f 69/106/85 70/114/68 71/115/67
f 3/116/7 1/117/14 178/118/90
f 6/25/10 15/24/19 2/119/91
f 61/31/23 60/46/37 76/97/15
f 30/103/82 61/31/23 76/97/15
f 21/39/30 24/44/35 59/98/78
f 78/40/31 59/98/78 23/120/28
f 17/121/25 18/38/29 78/40/31
f 31/122/92 40/52/42 176/90/71
f 80/123/41 79/43/34 83/88/69
f 120/124/93 119/125/94 123/126/95
f 126/127/96 118/128/97 127/129/98
f 86/130/70 89/131/99 88/132/100
f 114/133/101 93/134/102 112/135/103
f 91/136/104 90/137/105 94/138/106
f 93/134/102 98/139/107 104/140/108
f 112/135/103 93/134/102 109/141/109
f 94/142/106 93/143/102 98/144/107
f 92/145/110 96/146/111 98/139/107
f 99/147/112 98/144/107 97/148/113
f 93/134/102 104/140/108 115/149/114
f 111/150/115 93/134/102 116/151/116
f 96/146/111 100/152/117 97/153/113
f 99/154/112 95/155/118 100/152/117
f 73/13/11 66/156/75 102/157/119
f 93/134/102 113/158/120 116/151/116
f 100/152/117 95/155/118 101/159/121
f 95/160/118 97/148/113 101/161/121
f 97/153/113 100/152/117 101/159/121
f 94/138/106 99/154/112 96/146/111
f 98/139/107 97/153/113 104/140/108
f 56/162/76 237/163/122 224/164/123
f 97/153/113 101/159/121 104/140/108
f 104/140/108 105/165/124 115/149/114
f 108/166/125 111/150/115 116/151/116
f 116/151/116 113/158/120 106/167/126
f 110/168/127 112/135/103 109/141/109
f 115/149/114 105/165/124 106/167/126
f 114/133/101 112/135/103 110/168/127
f 108/166/125 109/141/109 111/150/115
f 57/14/12 73/13/11 102/157/119
f 35/169/88 57/14/12 102/157/119
f 81/83/65 82/82/64 84/170/128
f 109/141/109 93/134/102 111/150/115
f 93/134/102 115/149/114 113/158/120
f 224/171/123 238/172/129 229/81/63
f 237/163/122 241/173/130 240/174/131
f 66/156/75 327/175/132 102/157/119
f 73/176/11 2/119/91 90/177/105
f 124/178/133 123/126/95 122/179/134
f 85/180/135 88/181/100 118/182/97
f 84/183/128 82/184/64 120/124/93
f 118/185/97 122/179/134 123/126/95
f 84/183/128 120/124/93 117/186/136
f 117/186/136 120/124/93 124/178/133
f 125/187/137 126/127/96 130/188/138
f 117/189/136 128/190/139 127/191/98
f 126/127/96 125/187/137 121/192/140
f 122/179/134 118/128/97 126/127/96
f 117/193/136 125/187/137 129/194/141
f 129/194/141 135/195/142 137/196/143
f 117/193/136 121/192/140 125/187/137
f 133/197/144 134/198/145 132/199/146
f 129/194/141 134/200/145 133/201/144
f 128/190/139 133/197/144 131/202/147
f 130/188/138 127/129/98 131/203/147
f 136/204/148 138/205/149 142/206/150
f 130/207/138 136/204/148 135/195/142
f 130/207/138 132/208/146 138/205/149
f 132/199/146 134/198/145 137/209/143
f 139/210/151 140/211/152 147/212/153
f 136/204/148 140/211/152 139/210/151
f 135/195/142 139/210/151 141/213/154
f 138/214/149 137/209/143 141/215/154
f 148/216/155 158/217/156 161/218/157
f 139/210/151 143/219/158 145/220/159
f 141/221/154 145/222/159 148/216/155
f 140/211/152 142/206/150 146/223/160
f 143/219/158 150/224/161 149/225/162
f 146/226/160 142/227/150 148/216/155
f 142/227/150 168/228/163 167/229/164
f 140/211/152 144/230/165 147/212/153
f 143/219/158 139/210/151 147/212/153
f 149/231/162 153/232/166 156/233/167
f 147/212/153 148/234/155 152/235/168
f 147/212/153 151/236/169 150/224/161
f 145/222/159 149/231/162 152/237/168
f 160/238/170 159/239/171 164/240/172
f 150/224/161 154/241/173 153/242/166
f 151/236/169 152/235/168 156/243/167
f 151/236/169 155/244/174 154/241/173
f 147/212/153 144/230/165 159/239/171
f 144/230/165 146/223/160 161/245/157
f 147/212/153 160/238/170 158/246/156
f 160/238/170 162/247/175 163/248/176
f 156/233/167 153/232/166 157/249/177
f 153/242/166 154/241/173 157/250/177
f 155/244/174 156/243/167 157/250/177
f 154/241/173 155/244/174 157/250/177
f 159/239/171 161/245/157 165/251/178
f 158/217/156 163/252/176 165/253/178
f 142/254/150 141/215/154 169/255/179
f 141/221/154 148/216/155 167/229/164
f 169/255/179 172/256/180 171/257/181
f 165/253/178 163/252/176 166/258/182
f 163/248/176 162/247/175 166/259/182
f 162/247/175 164/240/172 166/259/182
f 164/240/172 165/251/178 166/259/182
f 169/260/179 167/229/164 170/261/183
f 167/229/164 168/228/163 171/262/181
f 171/257/181 172/256/180 173/263/184
f 172/264/180 170/261/183 173/265/184
f 170/261/183 171/262/181 173/265/184
f 88/266/100 87/267/185 117/189/136
f 82/268/64 85/180/135 119/269/94
f 240/270/131 239/271/186 238/172/129
f 40/52/42 32/272/22 176/90/71
f 176/90/71 32/272/22 174/91/72
f 54/68/55 53/73/57 177/273/187
f 53/73/57 52/75/59 177/273/187
f 52/75/59 55/74/58 177/273/187
f 55/74/58 54/68/55 177/273/187
f 183/274/188 184/275/189 37/276/47
f 71/85/67 187/84/66 186/277/190
f 188/278/191 183/274/188 34/279/46
f 3/116/7 178/118/90 179/280/192
f 180/4/4 181/1/1 12/281/17
f 189/282/193 32/283/22 62/101/80
f 189/282/193 188/278/191 174/284/72
f 18/38/29 17/121/25 77/285/20
f 88/266/100 89/286/99 87/267/185
f 37/276/47 184/275/189 38/287/60
f 190/288/194 191/289/195 179/290/192
f 16/291/21 19/292/27 197/293/196
f 7/294/8 191/295/195 190/296/194
f 8/297/9 193/298/197 191/295/195
f 230/299/198 75/300/199 10/301/16
f 190/296/194 1/302/14 5/303/13
f 327/175/132 66/156/75 324/304/200
f 8/305/9 11/306/18 194/307/201
f 11/306/18 13/308/202 195/309/203
f 219/310/204 24/311/35 21/312/30
f 16/291/21 231/313/205 195/309/203
f 201/314/206 222/315/207 223/316/208
f 191/289/195 193/317/197 180/318/4
f 19/292/27 22/319/209 198/320/210
f 18/321/29 232/322/211 21/312/30
f 206/323/212 233/324/213 79/325/34
f 220/326/214 27/327/36 24/311/35
f 25/328/39 199/329/215 198/320/210
f 41/111/40 43/330/216 233/331/213
f 207/332/217 210/333/218 205/334/219
f 33/335/45 36/336/61 203/337/220
f 211/338/221 214/339/222 210/333/218
f 209/340/223 208/341/224 200/342/225
f 200/342/225 208/341/224 207/343/217
f 210/333/218 209/344/223 204/345/226
f 214/346/222 218/347/227 217/348/228
f 212/349/229 211/350/221 207/343/217
f 214/339/222 213/351/230 209/344/223
f 209/340/223 213/352/230 212/349/229
f 213/353/230 217/348/228 216/354/231
f 215/355/232 218/347/227 214/346/222
f 212/356/229 216/354/231 215/355/232
f 227/357/233 70/358/68 69/359/85
f 236/360/234 87/361/185 89/362/99
f 81/363/65 234/364/235 233/331/213
f 187/84/66 70/86/68 227/365/233
f 236/360/234 265/366/236 264/367/237
f 28/368/74 31/369/92 205/334/219
f 204/345/226 200/370/225 199/329/215
f 175/371/73 33/335/45 202/372/238
f 175/371/73 321/373/239 322/374/240
f 196/375/241 197/376/196 232/322/211
f 200/342/225 221/377/242 220/326/214
f 199/378/215 220/326/214 219/310/204
f 200/342/225 201/314/206 221/377/242
f 185/100/79 186/277/190 225/379/243
f 223/316/208 63/380/83 30/381/82
f 228/382/244 69/359/85 65/383/84
f 225/384/243 227/357/233 228/382/244
f 222/315/207 225/384/243 226/385/245
f 226/385/245 65/383/84 63/380/83
f 186/277/190 187/84/66 227/365/233
f 190/288/194 178/386/90 1/387/14
f 192/388/246 229/389/63 2/390/91
f 221/377/242 230/391/198 220/326/214
f 30/381/82 75/392/199 230/391/198
f 230/393/198 192/388/246 15/394/19
f 198/395/210 219/310/204 232/322/211
f 31/369/92 322/374/240 205/334/219
f 233/324/213 234/396/235 83/397/69
f 267/398/247 271/399/248 270/400/249
f 273/401/250 277/402/251 274/403/252
f 261/404/253 259/405/254 240/270/131
f 238/172/129 239/271/186 241/406/130
f 240/270/131 251/407/255 245/408/256
f 259/405/254 256/409/257 240/270/131
f 241/173/130 246/410/258 245/411/256
f 245/408/256 243/412/259 239/271/186
f 246/410/258 242/413/260 244/414/261
f 240/270/131 262/415/262 251/407/255
f 258/416/263 263/417/264 240/270/131
f 244/418/261 247/419/265 243/412/259
f 247/419/265 242/420/260 246/421/258
f 103/422/266 66/423/75 114/133/101
f 240/270/131 263/417/264 260/424/267
f 247/419/265 248/425/268 242/420/260
f 242/413/260 248/426/268 244/414/261
f 244/418/261 248/425/268 247/419/265
f 243/412/259 246/421/258 241/406/130
f 245/408/256 251/407/255 244/418/261
f 244/418/261 251/407/255 248/425/268
f 251/407/255 262/415/262 252/427/269
f 255/428/270 254/429/271 263/417/264
f 263/417/264 254/429/271 253/430/272
f 257/431/273 256/409/257 259/405/254
f 262/415/262 260/424/267 253/430/272
f 257/431/273 259/405/254 261/404/253
f 255/428/270 258/416/263 256/409/257
f 66/432/75 93/134/102 114/133/101
f 81/363/65 84/433/128 234/364/235
f 256/409/257 258/416/263 240/270/131
f 240/270/131 260/424/267 262/415/262
f 229/389/63 238/434/129 237/435/122
f 230/391/198 74/436/77 27/327/36
f 231/437/205 18/321/29 195/438/203
f 271/399/248 268/439/274 269/440/275
f 235/441/276 266/442/277 265/443/236
f 236/444/234 89/131/99 86/130/70
f 270/400/249 269/440/275 265/445/236
f 84/446/128 267/398/247 234/447/235
f 264/448/237 268/449/274 271/399/248
f 272/450/278 276/451/279 277/402/251
f 274/452/252 275/453/280 264/367/237
f 273/401/250 269/440/275 268/439/274
f 269/440/275 273/401/250 265/454/236
f 264/455/237 275/456/280 276/451/279
f 284/457/281 282/458/282 276/459/279
f 264/455/237 272/450/278 268/439/274
f 279/460/283 281/461/284 280/462/285
f 280/463/285 281/464/284 276/451/279
f 278/465/286 280/462/285 275/453/280
f 277/402/251 279/466/283 278/467/286
f 283/468/287 287/469/288 289/470/289
f 282/458/282 283/468/287 277/402/251
f 277/402/251 283/468/287 285/471/290
f 279/460/283 285/472/290 284/473/281
f 286/474/291 294/475/292 287/469/288
f 286/474/291 287/469/288 283/468/287
f 288/476/293 286/474/291 282/458/282
f 285/472/290 289/477/289 288/478/293
f 308/479/294 305/480/295 295/481/296
f 292/482/297 290/483/298 286/474/291
f 288/484/293 295/481/296 292/485/297
f 287/469/288 291/486/299 293/487/300
f 296/488/301 297/489/302 290/483/298
f 293/490/300 295/481/296 289/491/289
f 314/492/303 315/493/304 289/491/289
f 287/469/288 294/475/292 291/486/299
f 290/483/298 294/475/292 286/474/291
f 303/494/305 300/495/306 296/496/301
f 294/475/292 298/497/307 299/498/308
f 297/489/302 298/497/307 294/475/292
f 299/499/308 296/496/301 292/485/297
f 307/500/309 309/501/310 311/502/311
f 300/503/306 301/504/312 297/489/302
f 298/497/307 302/505/313 303/506/305
f 301/504/312 302/505/313 298/497/307
f 294/475/292 307/500/309 306/507/314
f 291/486/299 306/507/314 308/508/294
f 305/509/295 307/500/309 294/475/292
f 310/510/315 309/501/310 307/500/309
f 303/494/305 304/511/316 300/495/306
f 300/503/306 304/512/316 301/504/312
f 302/505/313 304/512/316 303/506/305
f 301/504/312 304/512/316 302/505/313
f 306/507/314 311/502/311 312/513/317
f 312/514/317 310/515/315 305/480/295
f 289/477/289 315/516/304 316/517/318
f 288/484/293 316/518/318 314/492/303
f 318/519/319 319/520/320 316/517/318
f 312/514/317 313/521/321 310/515/315
f 310/510/315 313/522/321 309/501/310
f 309/501/310 313/522/321 311/502/311
f 311/502/311 313/522/321 312/513/317
f 316/518/318 319/523/320 317/524/322
f 314/492/303 317/524/322 318/525/319
f 318/519/319 320/526/323 319/520/320
f 319/523/320 320/527/323 317/524/322
f 317/524/322 320/527/323 318/525/319
f 57/79/12 229/81/63 192/528/246
f 234/529/235 267/530/247 266/442/277
f 205/334/219 322/374/240 201/531/206
f 322/374/240 321/373/239 201/531/206
f 217/348/228 323/532/324 216/354/231
f 216/354/231 323/532/324 215/355/232
f 215/355/232 323/532/324 218/347/227
f 218/347/227 323/532/324 217/348/228
f 203/533/220 184/275/189 183/274/188
f 202/534/238 183/274/188 188/278/191
f 181/535/1 194/536/201 195/438/203
f 194/536/201 181/535/1 180/318/4
f 189/282/193 185/100/79 222/537/207
f 321/538/239 188/278/191 189/282/193
f 203/337/220 36/336/61 38/539/60
f 264/448/237 267/398/247 84/446/128
f 203/533/220 38/287/60 184/275/189
f 234/396/235 235/540/276 86/541/70
f 224/164/123 206/542/212 58/543/33
f 91/136/104 92/145/110 93/134/102
f 2/119/91 56/95/76 90/177/105
f 90/177/105 66/544/75 93/143/102
f 2/390/91 237/545/122 56/162/76
f 66/156/75 73/13/11 91/136/104
f 56/95/76 66/546/75 90/177/105
f 224/547/123 261/404/253 240/270/131
f 250/548/325 261/404/253 224/549/123
f 229/81/63 249/80/62 224/171/123
f 249/80/62 35/110/88 326/550/326
f 35/110/88 249/80/62 57/79/12
f 66/156/75 42/50/32 324/304/200
f 42/50/32 41/49/40 324/304/200
f 41/49/40 35/169/88 324/304/200
f 41/111/40 206/551/212 325/112/89
f 206/551/212 224/171/123 325/112/89
f 326/550/326 35/110/88 325/112/89
f 224/171/123 249/80/62 326/550/326
f 224/171/123 326/550/326 325/112/89
f 35/169/88 327/175/132 324/304/200
f 327/175/132 35/169/88 102/157/119
f 12/281/17 181/1/1 14/3/3
f 179/280/192 180/4/4 4/6/6
f 5/15/13 3/7/7 7/9/8
f 7/9/8 4/8/6 8/11/9
f 10/18/16 6/12/10 57/14/12
f 75/552/199 76/17/15 10/18/16
f 11/553/18 8/19/9 12/20/17
f 13/554/202 11/21/18 14/23/3
f 74/555/77 15/24/19 76/26/15
f 16/29/21 13/556/202 14/27/3
f 77/28/20 17/557/25 16/29/21
f 62/113/80 32/30/22 64/32/24
f 19/36/27 16/33/21 20/35/26
f 22/558/209 19/36/27 23/37/28
f 80/123/41 42/41/32 79/43/34
f 59/98/78 24/44/35 60/46/37
f 22/558/209 23/37/28 25/48/39
f 43/559/216 41/49/40 80/51/41
f 32/272/22 40/52/42 44/54/44
f 36/78/61 33/55/45 37/57/47
f 44/54/44 47/53/43 48/59/49
f 39/560/53 29/60/50 46/62/52
f 45/61/51 29/60/50 44/63/44
f 40/52/42 39/64/53 47/53/43
f 55/74/58 51/66/48 54/68/55
f 45/61/51 44/63/44 49/70/56
f 47/53/43 46/65/52 51/58/48
f 50/561/54 46/62/52 49/70/56
f 54/68/55 50/67/54 53/73/57
f 48/76/49 51/66/48 52/75/59
f 53/73/57 49/72/56 52/75/59
f 43/559/216 80/51/41 81/83/65
f 85/562/135 82/87/64 86/89/70
f 31/122/92 176/90/71 175/92/73
f 31/122/92 28/93/74 40/52/42
f 28/93/74 25/48/39 39/64/53
f 26/47/38 29/563/50 39/64/53
f 33/55/45 175/92/73 34/56/46
f 42/564/32 66/94/75 58/42/33
f 60/46/37 27/45/36 76/97/15
f 26/99/38 60/46/37 29/60/50
f 23/120/28 59/98/78 26/99/38
f 186/277/190 185/100/79 67/102/81
f 61/31/23 30/103/82 64/32/24
f 68/109/87 65/105/84 72/107/86
f 71/115/67 67/108/81 72/107/86
f 67/108/81 62/113/80 68/109/87
f 64/32/24 63/104/83 68/109/87
f 72/107/86 69/106/85 71/115/67
f 73/176/11 6/25/10 2/119/91
f 75/565/199 30/103/82 76/97/15
f 78/40/31 21/39/30 59/98/78
f 20/566/26 78/40/31 23/120/28
f 20/566/26 17/121/25 78/40/31
f 82/87/64 80/123/41 83/88/69
f 124/178/133 120/124/93 123/126/95
f 130/188/138 126/127/96 127/129/98
f 85/567/135 86/130/70 88/132/100
f 92/145/110 91/136/104 94/138/106
f 99/147/112 94/142/106 98/144/107
f 93/134/102 92/145/110 98/139/107
f 95/160/118 99/147/112 97/148/113
f 98/139/107 96/146/111 97/153/113
f 96/146/111 99/154/112 100/152/117
f 92/145/110 94/138/106 96/146/111
f 107/568/327 108/166/125 116/151/116
f 107/568/327 116/151/116 106/167/126
f 113/158/120 115/149/114 106/167/126
f 103/569/266 114/133/101 110/168/127
f 224/570/123 237/163/122 240/174/131
f 91/571/104 73/176/11 90/177/105
f 121/192/140 124/178/133 122/179/134
f 119/269/94 85/180/135 118/182/97
f 119/125/94 118/185/97 123/126/95
f 87/572/185 84/183/128 117/186/136
f 121/192/140 117/186/136 124/178/133
f 129/194/141 125/187/137 130/188/138
f 118/573/97 117/189/136 127/191/98
f 122/179/134 126/127/96 121/192/140
f 128/574/139 117/193/136 129/194/141
f 134/575/145 129/194/141 137/196/143
f 131/202/147 133/197/144 132/199/146
f 128/574/139 129/194/141 133/201/144
f 127/191/98 128/190/139 131/202/147
f 132/576/146 130/188/138 131/203/147
f 140/211/152 136/204/148 142/206/150
f 129/194/141 130/207/138 135/195/142
f 136/204/148 130/207/138 138/205/149
f 138/214/149 132/199/146 137/209/143
f 135/195/142 136/204/148 139/210/151
f 137/196/143 135/195/142 141/213/154
f 142/254/150 138/214/149 141/215/154
f 146/226/160 148/216/155 161/218/157
f 141/213/154 139/210/151 145/220/159
f 144/230/165 140/211/152 146/223/160
f 145/220/159 143/219/158 149/225/162
f 148/216/155 142/227/150 167/229/164
f 152/237/168 149/231/162 156/233/167
f 151/236/169 147/212/153 152/235/168
f 143/219/158 147/212/153 150/224/161
f 148/216/155 145/222/159 152/237/168
f 162/247/175 160/238/170 164/240/172
f 149/225/162 150/224/161 153/242/166
f 155/244/174 151/236/169 156/243/167
f 150/224/161 151/236/169 154/241/173
f 160/238/170 147/212/153 159/239/171
f 159/239/171 144/230/165 161/245/157
f 148/234/155 147/212/153 158/246/156
f 158/246/156 160/238/170 163/248/176
f 164/240/172 159/239/171 165/251/178
f 161/218/157 158/217/156 165/253/178
f 168/577/163 142/254/150 169/255/179
f 169/260/179 141/221/154 167/229/164
f 168/577/163 169/255/179 171/257/181
f 172/264/180 169/260/179 170/261/183
f 170/261/183 167/229/164 171/262/181
f 118/573/97 88/266/100 117/189/136
f 120/578/93 82/268/64 119/269/94
f 224/171/123 240/270/131 238/172/129
f 34/279/46 183/274/188 37/276/47
f 67/102/81 71/85/67 186/277/190
f 174/284/72 188/278/191 34/279/46
f 4/6/6 3/116/7 179/280/192
f 9/5/5 180/4/4 12/281/17
f 185/100/79 189/282/193 62/101/80
f 32/283/22 189/282/193 174/284/72
f 77/285/20 14/3/3 18/38/29
f 182/2/2 18/38/29 14/3/3
f 178/386/90 190/288/194 179/290/192
f 196/579/241 16/291/21 197/293/196
f 5/303/13 7/294/8 190/296/194
f 7/294/8 8/297/9 191/295/195
f 192/528/246 230/299/198 10/301/16
f 193/298/197 8/305/9 194/307/201
f 194/307/201 11/306/18 195/309/203
f 232/322/211 219/310/204 21/312/30
f 195/309/203 13/308/202 16/291/21
f 16/291/21 196/579/241 231/313/205
f 221/377/242 201/314/206 223/316/208
f 179/290/192 191/289/195 180/318/4
f 197/293/196 19/292/27 198/320/210
f 58/543/33 206/323/212 79/325/34
f 219/310/204 220/326/214 24/311/35
f 22/319/209 25/328/39 198/320/210
f 206/551/212 41/111/40 233/331/213
f 201/531/206 207/332/217 205/334/219
f 202/372/238 33/335/45 203/337/220
f 207/332/217 211/338/221 210/333/218
f 204/580/226 209/340/223 200/342/225
f 201/314/206 200/342/225 207/343/217
f 205/334/219 210/333/218 204/345/226
f 213/353/230 214/346/222 217/348/228
f 208/341/224 212/349/229 207/343/217
f 210/333/218 214/339/222 209/344/223
f 208/341/224 209/340/223 212/349/229
f 212/356/229 213/353/230 216/354/231
f 211/581/221 215/355/232 214/346/222
f 211/581/221 212/356/229 215/355/232
f 228/382/244 227/357/233 69/359/85
f 43/330/216 81/363/65 233/331/213
f 87/361/185 236/360/234 264/367/237
f 204/345/226 28/368/74 205/334/219
f 199/329/215 25/328/39 204/345/226
f 28/368/74 204/345/226 25/328/39
f 321/373/239 175/371/73 202/372/238
f 31/369/92 175/371/73 322/374/240
f 18/321/29 196/375/241 232/322/211
f 199/378/215 200/342/225 220/326/214
f 198/395/210 199/378/215 219/310/204
f 222/537/207 185/100/79 225/379/243
f 221/377/242 223/316/208 30/381/82
f 226/385/245 228/382/244 65/383/84
f 226/385/245 225/384/243 228/382/244
f 223/316/208 222/315/207 226/385/245
f 223/316/208 226/385/245 63/380/83
f 225/379/243 186/277/190 227/365/233
f 15/394/19 192/388/246 2/390/91
f 221/377/242 30/381/82 230/391/198
f 74/582/77 230/393/198 15/394/19
f 197/376/196 198/395/210 232/322/211
f 79/325/34 233/324/213 83/397/69
f 266/583/277 267/398/247 270/400/249
f 265/454/236 273/401/250 274/403/252
f 237/584/122 238/172/129 241/406/130
f 240/174/131 241/173/130 245/411/256
f 240/270/131 245/408/256 239/271/186
f 245/411/256 246/410/258 244/414/261
f 245/408/256 244/418/261 243/412/259
f 243/412/259 247/419/265 246/421/258
f 239/271/186 243/412/259 241/406/130
f 258/416/263 255/428/270 263/417/264
f 260/424/267 263/417/264 253/430/272
f 252/427/269 262/415/262 253/430/272
f 250/548/325 257/431/273 261/404/253
f 2/390/91 229/389/63 237/435/122
f 220/326/214 230/391/198 27/327/36
f 182/585/2 195/438/203 18/321/29
f 231/437/205 196/375/241 18/321/29
f 270/400/249 271/399/248 269/440/275
f 236/586/234 235/441/276 265/443/236
f 235/587/276 236/444/234 86/130/70
f 266/583/277 270/400/249 265/445/236
f 267/398/247 264/448/237 271/399/248
f 273/401/250 272/450/278 277/402/251
f 265/366/236 274/452/252 264/367/237
f 272/450/278 273/401/250 268/439/274
f 272/450/278 264/455/237 276/451/279
f 281/588/284 284/457/281 276/459/279
f 278/465/286 279/460/283 280/462/285
f 275/456/280 280/463/285 276/451/279
f 274/452/252 278/465/286 275/453/280
f 274/403/252 277/402/251 278/467/286
f 285/471/290 283/468/287 289/470/289
f 276/459/279 282/458/282 277/402/251
f 279/589/283 277/402/251 285/471/290
f 281/461/284 279/460/283 284/473/281
f 282/458/282 286/474/291 283/468/287
f 284/457/281 288/476/293 282/458/282
f 284/473/281 285/472/290 288/478/293
f 293/490/300 308/479/294 295/481/296
f 288/476/293 292/482/297 286/474/291
f 289/470/289 287/469/288 293/487/300
f 292/482/297 296/488/301 290/483/298
f 295/481/296 314/492/303 289/491/289
f 299/499/308 303/494/305 296/496/301
f 295/590/296 294/475/292 299/498/308
f 290/483/298 297/489/302 294/475/292
f 295/481/296 299/499/308 292/485/297
f 306/507/314 307/500/309 311/502/311
f 296/488/301 300/503/306 297/489/302
f 299/498/308 298/497/307 303/506/305
f 297/489/302 301/504/312 298/497/307
f 291/486/299 294/475/292 306/507/314
f 293/487/300 291/486/299 308/508/294
f 295/590/296 305/509/295 294/475/292
f 305/509/295 310/510/315 307/500/309
f 308/508/294 306/507/314 312/513/317
f 308/479/294 312/514/317 305/480/295
f 288/478/293 289/477/289 316/517/318
f 295/481/296 288/484/293 314/492/303
f 315/516/304 318/519/319 316/517/318
f 314/492/303 316/518/318 317/524/322
f 315/493/304 314/492/303 318/525/319
f 10/301/16 57/79/12 192/528/246
f 235/441/276 234/529/235 266/442/277
f 202/534/238 203/533/220 183/274/188
f 321/538/239 202/534/238 188/278/191
f 182/585/2 181/535/1 195/438/203
f 193/317/197 194/536/201 180/318/4
f 201/591/206 189/282/193 222/537/207
f 201/591/206 321/538/239 189/282/193
f 87/592/185 264/448/237 84/446/128
f 83/397/69 234/396/235 86/541/70
f 56/162/76 224/164/123 58/543/33
f 66/156/75 91/136/104 93/134/102
f 94/142/106 90/177/105 93/143/102
