# Blender v2.76 (sub 0) OBJ File: 'npc_zerogmut.blend'
# www.blender.org
v -0.060044 -0.172826 0.006006
v 0.126255 -0.129620 0.027701
v -0.000369 -0.080882 0.164214
v -0.163594 -0.027185 0.077500
v -0.137845 -0.042737 -0.112606
v 0.041290 -0.106045 -0.143381
v 0.137845 0.042725 0.112606
v -0.041290 0.106032 0.143381
v -0.126255 0.129607 -0.027701
v 0.000369 0.080869 -0.164214
v 0.163594 0.027172 -0.077500
v 0.060044 0.172813 -0.006006
vt 0.386864 0.162439
vt 0.420370 0.171564
vt 0.404543 0.178763
vt 0.457854 0.162439
vt 0.437234 0.176672
vt 0.391864 0.186615
vt 0.379156 0.185491
vt 0.450146 0.185491
vt 0.427359 0.193267
vt 0.414651 0.194392
vt 0.401739 0.203211
vt 0.384875 0.208318
vt 0.440037 0.201119
vt 0.455865 0.208318
vt 0.422359 0.217443
vn 0.150900 -0.878400 0.453600
vn 0.246400 -0.936000 -0.251300
vn -0.513300 -0.643600 0.567700
vn -0.828400 -0.556200 -0.066700
vn -0.358900 -0.736900 -0.572900
vn 0.758800 -0.477700 -0.442700
vn 0.604400 -0.384400 0.697800
vn -0.470300 -0.004600 0.882500
vn -0.980100 0.136800 -0.143900
vn -0.220400 -0.155600 -0.962900
vn 0.980100 -0.136800 0.143900
vn 0.220400 0.155600 0.962900
vn -0.758800 0.477700 0.442700
vn -0.604400 0.384400 -0.697800
vn 0.470300 0.004600 -0.882500
vn 0.828400 0.556200 0.066700
vn 0.358900 0.736900 0.572900
vn -0.246400 0.936000 0.251300
vn -0.150900 0.878400 -0.453600
vn 0.513300 0.643600 -0.567700
s off
f 1/1/1 2/2/1 3/3/1
f 2/2/2 1/4/2 6/5/2
f 1/1/3 3/3/3 4/6/3
f 1/1/4 4/6/4 5/7/4
f 1/4/5 5/8/5 6/5/5
f 2/2/6 6/5/6 11/9/6
f 3/3/7 2/2/7 7/10/7
f 4/6/8 3/3/8 8/11/8
f 5/7/9 4/6/9 9/12/9
f 6/5/10 5/8/10 10/13/10
f 2/2/11 11/9/11 7/10/11
f 3/3/12 7/10/12 8/11/12
f 4/6/13 8/11/13 9/12/13
f 5/8/14 9/14/14 10/13/14
f 6/5/15 10/13/15 11/9/15
f 7/10/16 11/9/16 12/15/16
f 8/11/17 7/10/17 12/15/17
f 9/14/18 8/11/18 12/15/18
f 10/13/19 9/14/19 12/15/19
f 11/9/20 10/13/20 12/15/20
v -0.110941 -0.217103 0.117123
v 0.170500 -0.192074 0.084824
v 0.032752 -0.023139 0.267483
v -0.218826 0.043593 0.152876
v -0.236557 -0.084104 -0.100616
v 0.004059 -0.229753 -0.142672
v 0.236557 0.084092 0.100616
v -0.004059 0.229740 0.142672
v -0.170500 0.192062 -0.084824
v -0.032752 0.023126 -0.267483
v 0.218826 -0.043605 -0.152876
v 0.110941 0.217091 -0.117123
vt 0.436894 0.681291
vt 0.490014 0.689372
vt 0.461930 0.729426
vt 0.615623 0.681291
vt 0.547019 0.676559
vt 0.431128 0.743508
vt 0.402342 0.716310
vt 0.581071 0.716310
vt 0.520492 0.725087
vt 0.491707 0.752285
vt 0.457655 0.792036
vt 0.400650 0.779223
vt 0.551294 0.739169
vt 0.372565 0.739169
vt 0.526258 0.787304
vt 0.579379 0.779223
vn 0.143200 -0.670400 0.728000
vn 0.098700 -0.990900 0.091900
vn -0.460600 -0.304900 0.833600
vn -0.878300 -0.399500 0.262700
vn -0.532600 -0.823400 -0.195700
vn 0.610100 -0.721800 -0.326800
vn 0.682100 -0.203300 0.702400
vn -0.294900 0.388100 0.873200
vn -0.970700 0.235100 -0.050500
vn -0.411400 -0.450900 -0.792200
vn 0.970700 -0.235100 0.050500
vn 0.411400 0.450900 0.792200
vn -0.610100 0.721800 0.326800
vn -0.682100 0.203300 -0.702400
vn 0.294900 -0.388100 -0.873200
vn 0.878300 0.399500 -0.262700
vn 0.532600 0.823400 0.195700
vn -0.098700 0.990900 -0.091900
vn -0.143200 0.670400 -0.728000
vn 0.460600 0.304900 -0.833600
s off
f 13/16/21 14/17/21 15/18/21
f 14/17/22 13/19/22 18/20/22
f 13/16/23 15/18/23 16/21/23
f 13/16/24 16/21/24 17/22/24
f 13/19/25 17/23/25 18/20/25
f 14/17/26 18/20/26 23/24/26
f 15/18/27 14/17/27 19/25/27
f 16/21/28 15/18/28 20/26/28
f 17/22/29 16/21/29 21/27/29
f 18/20/30 17/23/30 22/28/30
f 14/17/31 23/24/31 19/25/31
f 15/18/32 19/25/32 20/26/32
f 16/21/33 20/26/33 21/27/33
f 17/22/34 21/27/34 22/29/34
f 18/20/35 22/28/35 23/24/35
f 19/25/36 23/24/36 24/30/36
f 20/26/37 19/25/37 24/30/37
f 21/31/38 20/26/38 24/30/38
f 22/28/39 21/31/39 24/30/39
f 23/24/40 22/28/40 24/30/40
v 0.000000 -0.190437 0.000000
v 0.137800 -0.085167 0.100117
v -0.052634 -0.085167 0.161993
v -0.170332 -0.085167 0.000000
v -0.052634 -0.085167 -0.161993
v 0.137800 -0.085167 -0.100117
v 0.052634 0.085166 0.161993
v -0.137800 0.085166 0.100117
v -0.137800 0.085166 -0.100117
v 0.052634 0.085166 -0.161993
v 0.170332 0.085166 0.000000
v 0.000000 0.190437 0.000000
vt 0.905377 0.256761
vt 0.937766 0.280058
vt 0.922307 0.282019
vt 0.877436 0.280458
vt 0.907458 0.283568
vt 0.892691 0.282639
vt 0.861617 0.280058
vt 0.869384 0.302369
vt 0.846158 0.282019
vt 0.854616 0.303299
vt 0.831309 0.283568
vt 0.839362 0.305479
vt 0.899691 0.305880
vt 0.884233 0.303919
vt 0.915511 0.305479
vt 0.867302 0.329177
vn 0.187600 -0.794700 0.577400
vn 0.607100 -0.794700 0.000000
vn -0.491100 -0.794700 0.356800
vn -0.491100 -0.794700 -0.356800
vn 0.187600 -0.794700 -0.577400
vn 0.982200 -0.187600 0.000000
vn 0.303500 -0.187600 0.934200
vn -0.794600 -0.187600 0.577400
vn -0.794600 -0.187600 -0.577400
vn 0.303500 -0.187600 -0.934200
vn 0.794600 0.187600 0.577400
vn -0.303500 0.187600 0.934200
vn -0.982200 0.187600 0.000000
vn -0.303500 0.187600 -0.934200
vn 0.794600 0.187600 -0.577400
vn 0.491100 0.794700 0.356800
vn -0.187600 0.794700 0.577400
vn -0.607100 0.794700 0.000000
vn -0.187600 0.794700 -0.577400
vn 0.491100 0.794700 -0.356800
s off
f 25/32/41 26/33/41 27/34/41
f 26/33/42 25/32/42 30/35/42
f 25/32/43 27/34/43 28/36/43
f 25/32/44 28/36/44 29/37/44
f 25/32/45 29/37/45 30/35/45
f 26/38/46 30/35/46 35/39/46
f 27/40/47 26/38/47 31/41/47
f 28/42/48 27/40/48 32/43/48
f 29/37/49 28/36/49 33/44/49
f 30/35/50 29/37/50 34/45/50
f 26/38/51 35/39/51 31/41/51
f 27/40/52 31/41/52 32/43/52
f 28/36/53 32/46/53 33/44/53
f 29/37/54 33/44/54 34/45/54
f 30/35/55 34/45/55 35/39/55
f 31/41/56 35/39/56 36/47/56
f 32/43/57 31/41/57 36/47/57
f 33/44/58 32/46/58 36/47/58
f 34/45/59 33/44/59 36/47/59
f 35/39/60 34/45/60 36/47/60
v 0.044516 -0.000192 -0.155209
v -0.061726 -0.116927 -0.092685
v -0.112105 0.044538 -0.107328
v 0.019954 0.144331 -0.069572
v 0.151949 0.044538 -0.031595
v 0.101468 -0.116927 -0.045880
v -0.151949 -0.044550 0.031595
v -0.101468 0.116914 0.045880
v 0.061726 0.116914 0.092685
v 0.112105 -0.044550 0.107328
v -0.019954 -0.144343 0.069572
v -0.044516 0.000179 0.155209
vt 0.628894 0.500204
vt 0.641274 0.475735
vt 0.644957 0.507635
vt 0.615973 0.476930
vt 0.629693 0.532761
vt 0.612931 0.509033
vt 0.675913 0.467239
vt 0.659152 0.490967
vt 0.662194 0.523070
vt 0.595053 0.524265
vt 0.598736 0.492365
vt 0.583472 0.467239
vt 0.566711 0.490967
vt 0.582673 0.499796
vt 0.569753 0.523070
vn -0.336000 -0.188500 -0.922800
vn 0.218900 -0.608000 -0.763200
vn -0.123800 0.490200 -0.862800
vn 0.562200 0.490200 -0.666000
vn 0.774000 -0.188500 -0.604500
vn 0.051400 -0.982500 -0.179200
vn -0.846300 -0.303800 -0.437500
vn -0.503000 0.794400 -0.340400
vn 0.607000 0.794400 -0.022000
vn 0.949600 -0.303800 0.077600
vn -0.607000 -0.794400 0.022000
vn -0.949600 0.303800 -0.077600
vn -0.051400 0.982500 0.179200
vn 0.846300 0.303800 0.437500
vn 0.503000 -0.794400 0.340400
vn -0.562200 -0.490200 0.666000
vn -0.774000 0.188500 0.604500
vn -0.218900 0.608000 0.763200
vn 0.336000 0.188500 0.922800
vn 0.123800 -0.490200 0.862800
s off
f 37/48/61 38/49/61 39/50/61
f 38/49/62 37/48/62 42/51/62
f 37/48/63 39/50/63 40/52/63
f 37/48/64 40/52/64 41/53/64
f 37/48/65 41/53/65 42/51/65
f 38/49/66 42/51/66 47/54/66
f 39/50/67 38/49/67 43/55/67
f 40/52/68 39/50/68 44/56/68
f 41/53/69 40/52/69 45/57/69
f 42/51/70 41/53/70 46/58/70
f 38/49/71 47/54/71 43/55/71
f 39/50/72 43/55/72 44/56/72
f 40/52/73 44/56/73 45/57/73
f 41/53/74 45/57/74 46/58/74
f 42/51/75 46/58/75 47/59/75
f 43/60/76 47/59/76 48/61/76
f 44/62/77 43/60/77 48/61/77
f 45/57/78 44/62/78 48/61/78
f 46/58/79 45/57/79 48/61/79
f 47/59/80 46/58/80 48/61/80
v 0.000000 -0.248395 0.000000
v 0.179738 -0.111086 0.130586
v -0.068653 -0.111086 0.211294
v -0.222170 -0.111086 0.000000
v -0.068653 -0.111086 -0.211294
v 0.179738 -0.111086 -0.130586
v 0.068653 0.111085 0.211294
v -0.179738 0.111085 0.130586
v -0.179738 0.111085 -0.130586
v 0.068653 0.111085 -0.211294
v 0.222170 0.111085 0.000000
v 0.000000 0.248394 0.000000
vt 0.359891 0.282727
vt 0.327086 0.313203
vt 0.401136 0.312724
vt 0.345696 0.314910
vt 0.382287 0.314155
vt 0.363934 0.315483
vt 0.335735 0.341499
vt 0.308033 0.312724
vt 0.317383 0.340170
vt 0.289183 0.314155
vt 0.299144 0.340744
vt 0.270831 0.315483
vt 0.280534 0.342450
vt 0.354584 0.342930
vt 0.373637 0.342450
vt 0.313339 0.372926
vn 0.187600 -0.794700 0.577400
vn 0.607100 -0.794700 0.000000
vn -0.491100 -0.794700 0.356800
vn -0.491100 -0.794700 -0.356800
vn 0.187600 -0.794700 -0.577400
vn 0.982200 -0.187600 0.000000
vn 0.303500 -0.187600 0.934200
vn -0.794600 -0.187600 0.577400
vn -0.794600 -0.187600 -0.577400
vn 0.303500 -0.187600 -0.934200
vn 0.794600 0.187600 0.577400
vn -0.303500 0.187600 0.934200
vn -0.982200 0.187600 0.000000
vn -0.303500 0.187600 -0.934200
vn 0.794600 0.187600 -0.577400
vn 0.491100 0.794700 0.356800
vn -0.187600 0.794700 0.577400
vn -0.607100 0.794700 0.000000
vn -0.187600 0.794700 -0.577400
vn 0.491100 0.794700 -0.356800
s off
f 49/63/81 50/64/81 51/65/81
f 50/64/82 49/63/82 54/66/82
f 49/63/83 51/65/83 52/67/83
f 49/63/84 52/67/84 53/68/84
f 49/63/85 53/68/85 54/66/85
f 50/64/86 54/66/86 59/69/86
f 51/70/87 50/64/87 55/71/87
f 52/72/88 51/70/88 56/73/88
f 53/74/89 52/72/89 57/75/89
f 54/66/90 53/68/90 58/76/90
f 50/64/91 59/69/91 55/71/91
f 51/70/92 55/71/92 56/73/92
f 52/72/93 56/73/93 57/75/93
f 53/68/94 57/77/94 58/76/94
f 54/66/95 58/76/95 59/69/95
f 55/71/96 59/69/96 60/78/96
f 56/73/97 55/71/97 60/78/97
f 57/75/98 56/73/98 60/78/98
f 58/76/99 57/77/99 60/78/99
f 59/69/100 58/76/100 60/78/100
v 0.000000 -0.130006 0.000000
v 0.094068 -0.058144 0.068344
v -0.035930 -0.058144 0.110583
v -0.116275 -0.058144 0.000000
v -0.035930 -0.058144 -0.110583
v 0.094068 -0.058144 -0.068344
v 0.035930 0.058132 0.110583
v -0.094068 0.058132 0.068344
v -0.094068 0.058132 -0.068344
v 0.035930 0.058132 -0.110583
v 0.116275 0.058132 0.000000
v 0.000000 0.129994 0.000000
vt 0.269486 0.323805
vt 0.288781 0.344408
vt 0.274896 0.349079
vt 0.304396 0.340507
vt 0.261308 0.348442
vt 0.247203 0.343279
vt 0.215595 0.344408
vt 0.231210 0.340507
vt 0.224715 0.363221
vt 0.201711 0.349079
vt 0.210610 0.368384
vt 0.267803 0.371157
vt 0.252188 0.367255
vt 0.238304 0.362585
vt 0.283795 0.368384
vt 0.232893 0.387859
vn 0.187600 -0.794700 0.577400
vn 0.607100 -0.794700 0.000000
vn -0.491100 -0.794700 0.356800
vn -0.491100 -0.794700 -0.356800
vn 0.187600 -0.794700 -0.577400
vn 0.982200 -0.187600 0.000000
vn 0.303500 -0.187600 0.934200
vn -0.794600 -0.187600 0.577400
vn -0.794600 -0.187600 -0.577400
vn 0.303500 -0.187600 -0.934200
vn 0.794600 0.187600 0.577400
vn -0.303500 0.187600 0.934200
vn -0.982200 0.187600 0.000000
vn -0.303500 0.187600 -0.934200
vn 0.794600 0.187600 -0.577400
vn 0.491100 0.794700 0.356800
vn -0.187600 0.794700 0.577400
vn -0.607100 0.794700 0.000000
vn -0.187600 0.794700 -0.577400
vn 0.491100 0.794700 -0.356800
s off
f 61/79/101 62/80/101 63/81/101
f 62/80/102 61/79/102 66/82/102
f 61/79/103 63/81/103 64/83/103
f 61/79/104 64/83/104 65/84/104
f 61/79/105 65/84/105 66/82/105
f 62/85/106 66/86/106 71/87/106
f 63/88/107 62/85/107 67/89/107
f 64/83/108 63/81/108 68/90/108
f 65/84/109 64/83/109 69/91/109
f 66/86/110 65/84/110 70/92/110
f 62/85/111 71/87/111 67/89/111
f 63/81/112 67/93/112 68/90/112
f 64/83/113 68/90/113 69/91/113
f 65/84/114 69/91/114 70/92/114
f 66/86/115 70/92/115 71/87/115
f 67/89/116 71/87/116 72/94/116
f 68/90/117 67/93/117 72/94/117
f 69/91/118 68/90/118 72/94/118
f 70/92/119 69/91/119 72/94/119
f 71/87/120 70/92/120 72/94/120
v 0.000000 -0.920724 0.000000
v 0.723701 -0.411736 0.525868
v -0.276388 -0.411792 0.850649
v -0.894468 -0.411753 0.000000
v -0.276424 -0.411736 -0.850879
v 0.723701 -0.411736 -0.525868
v 0.278030 0.414238 0.855823
v -0.727846 0.414149 0.528805
v -0.727940 0.414312 -0.528948
v 0.276388 0.411682 -0.850649
v 0.899707 0.414219 0.000000
v 0.000000 0.926150 0.000000
v -0.232852 -0.605375 0.716757
v -0.162477 -0.783210 0.500131
v -0.077610 -0.891194 0.238864
v 0.204381 -0.896358 0.148489
v 0.427814 -0.787750 0.310821
v 0.609547 -0.605406 0.442856
v 0.535126 -0.465108 0.685891
v 0.262891 -0.484065 0.809193
v -0.029817 -0.465108 0.869481
v 0.817596 -0.465107 -0.297047
v 0.850648 -0.484078 0.000000
v 0.817490 -0.465156 0.296967
v 0.204381 -0.896358 -0.148489
v 0.425323 -0.783217 -0.309011
v 0.613168 -0.608892 -0.445550
v -0.757890 -0.608866 0.000000
v -0.525730 -0.783215 0.000000
v -0.251168 -0.891225 0.000000
v -0.484034 -0.462454 0.716758
v -0.692253 -0.486827 0.502949
v -0.835957 -0.465121 0.240264
v -0.234185 -0.608897 -0.720760
v -0.163421 -0.787761 -0.503036
v -0.078071 -0.896378 -0.240317
v -0.836027 -0.465105 -0.240317
v -0.692220 -0.486859 -0.502926
v -0.483971 -0.462503 -0.716565
v -0.029817 -0.465108 -0.869481
v 0.264408 -0.486860 -0.813750
v 0.535126 -0.465108 -0.685891
v 0.962229 0.232577 0.148483
v 0.951102 -0.000000 0.309027
v 0.860809 -0.231200 0.442977
v 0.865780 -0.232535 -0.445472
v 0.951058 -0.000055 -0.309013
v 0.962229 0.232577 -0.148483
v 0.155215 0.231170 0.955422
v 0.000000 -0.000000 1.000224
v -0.156137 -0.232544 0.961233
v 0.687159 -0.231280 0.681715
v 0.591277 0.000055 0.813937
v 0.436007 0.231171 0.864188
v -0.860769 0.231244 0.442957
v -0.951058 -0.000055 0.309013
v -0.962229 -0.232577 0.148483
v -0.438581 -0.232536 0.869290
v -0.587786 -0.000055 0.809017
v -0.691273 0.232720 0.685894
v -0.691241 0.232654 -0.685862
v -0.587862 0.000055 -0.809236
v -0.438597 -0.232544 -0.869444
v -0.962354 -0.232498 -0.148523
v -0.956628 0.000000 -0.310823
v -0.860809 0.231309 -0.442977
v 0.438618 0.232720 -0.869485
v 0.591228 -0.000000 -0.813755
v 0.691216 -0.232536 -0.685740
v -0.155215 -0.231280 -0.955422
v 0.000000 0.000000 -1.005857
v 0.156124 0.232579 -0.961018
v 0.831051 0.462391 0.238853
v 0.692253 0.486937 0.502949
v 0.483994 0.462470 0.716598
v 0.029641 0.462471 0.864225
v -0.264430 0.486956 0.813932
v -0.535082 0.465234 0.685738
v -0.817528 0.465233 0.296981
v -0.855701 0.486954 0.000000
v -0.817490 0.465156 -0.296967
v -0.535082 0.465234 -0.685737
v -0.262903 0.484143 -0.809231
v 0.029641 0.462471 -0.864225
v 0.484034 0.462564 -0.716758
v 0.692220 0.486859 -0.502926
v 0.831120 0.462484 -0.238907
v 0.078071 0.896598 0.240317
v 0.163421 0.787871 0.503036
v 0.232852 0.605484 0.716757
v 0.757890 0.608976 0.000000
v 0.525730 0.783106 0.000000
v 0.252651 0.896597 0.000000
v -0.204371 0.896372 0.148482
v -0.425323 0.783108 0.309011
v -0.609626 0.605484 0.442976
v -0.204388 0.896501 -0.148516
v -0.427849 0.787870 -0.310891
v -0.613117 0.608897 -0.445450
v 0.078071 0.896598 -0.240317
v 0.163407 0.787750 -0.502924
v 0.232832 0.605380 -0.716597
v 0.052793 -0.666231 0.688218
v 0.139026 -0.828285 0.427928
v 0.363954 -0.670102 0.591354
v 0.670817 -0.666254 -0.162457
v 0.670849 -0.666230 0.162465
v 0.447269 -0.823516 0.000001
v -0.641933 -0.670100 0.264403
v -0.361831 -0.823532 0.262923
v -0.447231 -0.666230 0.525753
v -0.449830 -0.670102 -0.528806
v -0.361831 -0.823533 -0.262921
v -0.638278 -0.666230 -0.262934
v 0.363953 -0.670102 -0.591354
v 0.138203 -0.823503 -0.425341
v 0.053098 -0.670101 -0.692217
v 1.000047 0.000000 0.000000
v 0.952806 -0.255914 0.163417
v 0.952806 -0.255914 -0.163417
v 0.310868 0.000110 0.956886
v 0.139009 -0.255958 0.956625
v 0.449872 -0.255925 0.855822
v -0.813825 0.000055 0.591358
v -0.861803 -0.254522 0.425324
v -0.670819 -0.254522 0.688191
v -0.813795 0.000055 -0.591254
v -0.674780 -0.255915 -0.692254
v -0.861843 -0.254479 -0.425344
v 0.310842 0.000055 -0.956672
v 0.447216 -0.254523 -0.850648
v 0.139009 -0.255958 -0.956625
v 0.670907 0.254554 0.688376
v 0.813795 0.000053 0.591253
v 0.861804 0.254410 0.425323
v -0.447253 0.254488 0.850839
v -0.309043 -0.000001 0.951269
v -0.138206 0.254479 0.951100
v -0.947292 0.254488 -0.162494
v -1.000083 0.000001 0.000000
v -0.952806 0.256025 0.163417
v -0.138216 0.254555 -0.951312
v -0.310841 0.000055 -0.956672
v -0.447273 0.254555 -0.850879
v 0.861845 0.254479 -0.425342
v 0.809057 0.000000 -0.587810
v 0.670852 0.254480 -0.688221
v 0.361817 0.823503 0.262875
v 0.449829 0.670102 0.528807
v 0.638194 0.666144 0.262864
v -0.139013 0.828382 0.427831
v -0.361834 0.666256 0.587910
v -0.052790 0.666146 0.688185
v -0.449850 0.828382 0.000000
v -0.670872 0.666254 -0.162493
v -0.674833 0.670298 0.163453
v -0.138204 0.823504 -0.425339
v -0.053099 0.670103 -0.692216
v -0.361851 0.666342 -0.587938
v 0.363967 0.828505 -0.264474
v 0.642015 0.670297 -0.264475
v 0.449887 0.670299 -0.528951
vt 0.377882 0.000000
vt 0.650001 0.087438
vt 0.450001 0.087438
vt 0.650001 0.362676
vt 0.650001 0.284555
vt 0.694543 0.343676
vt 0.250000 0.087439
vt 0.049999 0.087438
vt 1.049999 0.087438
vt 0.849999 0.087438
vt 0.674369 0.425361
vt 0.450001 0.362676
vt 0.494544 0.343675
vt 0.474368 0.425360
vt 0.250000 0.362677
vt 0.294542 0.343676
vt 0.274367 0.425361
vt 0.049999 0.362676
vt 0.094543 0.343675
vt 0.074367 0.425360
vt 0.849999 0.362676
vt 0.894542 0.343675
vt 0.874367 0.425360
vt 0.625633 0.425360
vt 0.425633 0.425360
vt 0.225633 0.425361
vt 0.025632 0.425360
vt 0.825631 0.425361
vt 0.549999 0.637324
vt 0.594543 0.656325
vt 0.549999 0.715446
vt 0.349999 0.637324
vt 0.394542 0.656325
vt 0.349999 0.715446
vt 0.150001 0.637324
vt 0.194543 0.656324
vt 0.150001 0.715446
vt 0.950001 0.637324
vt 0.994544 0.656325
vt 0.950001 0.715446
vt 0.750000 0.637323
vt 0.794542 0.656324
vt 0.750000 0.715444
vt 0.450001 0.284554
vt 0.450001 0.188183
vt 0.512185 0.255633
vt 0.550001 0.158365
vt 0.550001 0.335332
vt 0.587817 0.255634
vt 0.605458 0.343675
vt 0.650001 0.188183
vt 0.805457 0.343676
vt 0.849999 0.284554
vt 0.750000 0.335333
vt 0.787816 0.255634
vt 0.712184 0.255634
vt 0.849999 0.188183
vt 0.750000 0.158365
vt 0.250000 0.284556
vt 0.250000 0.188184
vt 0.312184 0.255634
vt 0.350000 0.158365
vt 0.350000 0.335333
vt 0.387816 0.255634
vt 0.405458 0.343675
vt 0.049999 0.284554
vt 0.049999 0.188182
vt 0.112184 0.255633
vt 0.150000 0.158365
vt 0.150000 0.335333
vt 0.187817 0.255634
vt 0.205458 0.343676
vt 0.912183 0.255633
vt 0.949999 0.158365
vt 0.949999 0.335332
vt 0.987815 0.255634
vt 1.005456 0.343675
vt 1.049999 0.188182
vt 1.049999 0.284554
vt 0.005456 0.343675
vt 0.725633 0.574639
vt 0.774367 0.574639
vt 0.700001 0.500000
vt 0.750000 0.500000
vt 0.722966 0.417608
vt 0.799999 0.500000
vt 0.777034 0.417608
vt 0.525632 0.574640
vt 0.574367 0.574640
vt 0.500000 0.500000
vt 0.550000 0.500000
vt 0.522966 0.417608
vt 0.600000 0.500000
vt 0.577035 0.417608
vt 0.325631 0.574639
vt 0.374367 0.574640
vt 0.299999 0.500000
vt 0.350000 0.500000
vt 0.322966 0.417608
vt 0.400000 0.500000
vt 0.377034 0.417608
vt 0.125633 0.574640
vt 0.174369 0.574639
vt 0.100000 0.500000
vt 0.150000 0.500000
vt 0.122966 0.417608
vt 0.200001 0.500000
vt 0.177034 0.417608
vt 0.925633 0.574640
vt 0.974368 0.574640
vt 0.900000 0.500000
vt 0.950000 0.500000
vt 0.922965 0.417608
vt 1.000000 0.500000
vt 0.977034 0.417608
vt 1.025632 0.425360
vt 0.622966 0.582392
vt 0.650000 0.499999
vt 0.650000 0.664668
vt 0.677035 0.582391
vt 0.705458 0.656324
vt 0.422965 0.582392
vt 0.450000 0.500000
vt 0.449999 0.664668
vt 0.477034 0.582392
vt 0.505456 0.656325
vt 0.222966 0.582392
vt 0.250000 0.500000
vt 0.250000 0.664667
vt 0.277034 0.582392
vt 0.305457 0.656324
vt 1.022966 0.582392
vt 0.050000 0.500000
vt 0.000000 0.500000
vt 1.050001 0.664668
vt 0.022966 0.582392
vt 0.077035 0.582392
vt 0.050001 0.664668
vt 0.105458 0.656325
vt 0.822965 0.582392
vt 0.849999 0.500000
vt 0.850000 0.664667
vt 0.877034 0.582392
vt 0.905457 0.656325
vt 0.549999 0.912562
vt 0.750000 0.912561
vt 0.877882 1.000000
vt 0.549999 0.811818
vt 0.650000 0.841635
vt 0.612184 0.744367
vt 0.750000 0.811816
vt 0.687816 0.744366
vt 1.349999 0.912562
vt 0.349999 0.811817
vt 0.449999 0.841636
vt 0.349999 0.912562
vt 0.412183 0.744367
vt 0.487815 0.744367
vt 1.150001 0.912562
vt 0.150001 0.811817
vt 0.250000 0.841635
vt 0.150001 0.912562
vt 0.212184 0.744366
vt 0.287816 0.744366
vt 0.950001 0.912562
vt 0.950001 0.811817
vt 1.050001 0.841636
vt 1.012185 0.744367
vt 0.050001 0.841636
vt 0.012185 0.744367
vt 0.087817 0.744367
vt 0.850000 0.841635
vt 0.812184 0.744366
vt 0.887816 0.744367
vn 0.023600 -0.991200 0.130200
vn 0.691300 -0.587700 0.420400
vn -0.116200 -0.989600 0.084600
vn -0.116400 -0.991200 -0.062600
vn 0.036600 -0.993000 -0.112500
vn 0.803900 -0.414800 0.426200
vn -0.162100 -0.437100 0.884700
vn -0.891500 -0.436700 0.120100
vn -0.405300 -0.449300 -0.796100
vn 0.650800 -0.436400 -0.621400
vn 0.764700 -0.325400 0.556100
vn -0.289500 -0.354400 0.889200
vn -0.935300 -0.353900 0.000300
vn -0.271700 -0.339200 -0.900600
vn 0.756800 -0.353400 -0.549900
vn 0.344400 0.604000 0.718700
vn -0.593000 0.604800 0.531500
vn -0.703700 0.587000 -0.400300
vn 0.164300 0.586100 -0.793400
vn 0.803300 0.584900 -0.112400
vn -0.187100 -0.586900 0.787700
vn -0.106300 -0.785200 0.610000
vn -0.050900 -0.928700 0.367300
vn -0.073200 -0.684100 0.725700
vn 0.115400 -0.638400 0.761000
vn -0.000400 -0.849000 0.528400
vn 0.164200 -0.812100 0.560000
vn 0.205800 -0.694900 0.689000
vn 0.358900 -0.621000 0.696800
vn 0.062400 -0.966200 0.250000
vn 0.245000 -0.927200 0.283200
vn 0.292800 -0.856200 0.425700
vn 0.464100 -0.774200 0.430300
vn 0.504800 -0.671600 0.542300
vn 0.613700 -0.587700 0.527200
vn 0.706400 -0.568100 -0.422300
vn 0.759600 -0.638200 -0.125300
vn 0.759700 -0.638000 0.125500
vn 0.679000 -0.680200 -0.276100
vn 0.541200 -0.795800 -0.271500
vn 0.711700 -0.702500 -0.000000
vn 0.575400 -0.817900 0.000000
vn 0.495500 -0.856100 -0.146800
vn 0.364900 -0.919500 -0.145800
vn 0.667700 -0.683800 0.294300
vn 0.564000 -0.772800 0.291000
vn 0.505700 -0.852900 0.129800
vn 0.356300 -0.925500 0.128800
vn 0.287300 -0.957900 0.000000
vn 0.118400 -0.993000 0.000000
vn -0.819700 -0.568000 0.073500
vn -0.598700 -0.797200 0.077900
vn -0.364800 -0.927200 0.085200
vn -0.726000 -0.667900 0.163700
vn -0.704000 -0.627100 0.333300
vn -0.473400 -0.865800 0.162300
vn -0.449200 -0.823400 0.346800
vn -0.559600 -0.710000 0.427400
vn -0.517200 -0.633200 0.575900
vn -0.216100 -0.963600 0.157100
vn -0.193600 -0.927300 0.320400
vn -0.314800 -0.856000 0.410100
vn -0.272500 -0.785200 0.556100
vn -0.380200 -0.668100 0.639600
vn -0.333400 -0.585900 0.738700
vn -0.345100 -0.567400 -0.747700
vn -0.272400 -0.785000 -0.556400
vn -0.212600 -0.925500 -0.313600
vn -0.392800 -0.651600 -0.649000
vn -0.528000 -0.615800 -0.584900
vn -0.319100 -0.862700 -0.392200
vn -0.468500 -0.823400 -0.320100
vn -0.579400 -0.709900 -0.400400
vn -0.692200 -0.644000 -0.325700
vn -0.234800 -0.960600 -0.148500
vn -0.364800 -0.927200 -0.085200
vn -0.487100 -0.856100 -0.172400
vn -0.597600 -0.795800 -0.098200
vn -0.711800 -0.680100 -0.175400
vn -0.819800 -0.568000 -0.073300
vn 0.620000 -0.568100 -0.541200
vn 0.438500 -0.797300 -0.414700
vn 0.251400 -0.919500 -0.302100
vn 0.491200 -0.668000 -0.559100
vn 0.373300 -0.627000 -0.683700
vn 0.287400 -0.865900 -0.409400
vn 0.172500 -0.829200 -0.531600
vn 0.219700 -0.702400 -0.677100
vn 0.099900 -0.627400 -0.772300
vn 0.088900 -0.957800 -0.273300
vn -0.012100 -0.925500 -0.378700
vn 0.027800 -0.862800 -0.504800
vn -0.106600 -0.785000 -0.610200
vn -0.068800 -0.668300 -0.740700
vn -0.183500 -0.568600 -0.801900
vn 0.945600 0.325500 0.000000
vn 0.985900 0.060600 0.156100
vn 0.930200 -0.176900 0.321700
vn 0.987000 0.160500 0.000000
vn 0.985900 0.060500 -0.156300
vn 0.984300 -0.082200 0.155900
vn 0.983400 -0.181500 0.000000
vn 0.984300 -0.082100 -0.156000
vn 0.938300 -0.166200 -0.303300
vn 0.875500 -0.361900 0.320100
vn 0.868000 -0.479900 0.127500
vn 0.912700 -0.408600 0.000000
vn 0.868100 -0.479800 -0.127200
vn 0.877000 -0.374200 -0.301600
vn 0.792000 -0.436500 -0.426800
vn 0.295100 0.296200 0.908400
vn 0.137400 0.098800 0.985600
vn 0.002200 -0.166800 0.986000
vn 0.302200 0.209400 0.930000
vn 0.451400 0.110700 0.885400
vn 0.137500 -0.093300 0.986100
vn 0.302000 -0.203600 0.931300
vn 0.451700 -0.104500 0.886000
vn 0.593000 -0.200000 0.779900
vn -0.015200 -0.374100 0.927300
vn 0.147200 -0.479300 0.865200
vn 0.281600 -0.408300 0.868300
vn 0.389500 -0.479900 0.786100
vn 0.575700 -0.361200 0.733500
vn 0.654200 -0.414100 0.632900
vn -0.780000 0.312300 0.542300
vn -0.895100 0.097500 0.435000
vn -0.929400 -0.178400 0.323000
vn -0.804700 0.196200 0.560300
vn -0.691800 0.072500 0.718500
vn -0.893400 -0.114900 0.434300
vn -0.788300 -0.225000 0.572700
vn -0.689100 -0.114900 0.715500
vn -0.594500 -0.178300 0.784100
vn -0.884100 -0.364900 0.291800
vn -0.798800 -0.449400 0.399900
vn -0.752700 -0.366600 0.546900
vn -0.609800 -0.459000 0.646100
vn -0.544100 -0.386500 0.744700
vn -0.404400 -0.448800 0.796900
vn -0.780000 0.311300 -0.542800
vn -0.692500 0.072900 -0.717700
vn -0.581100 -0.166700 -0.796600
vn -0.804600 0.195900 -0.560600
vn -0.885800 0.109200 -0.451100
vn -0.691300 -0.092700 -0.716600
vn -0.800500 -0.213800 -0.559900
vn -0.883900 -0.126600 -0.450200
vn -0.925800 -0.200700 -0.320200
vn -0.525400 -0.396700 -0.752700
vn -0.600500 -0.479300 -0.640000
vn -0.759300 -0.377300 -0.530200
vn -0.798700 -0.449400 -0.400100
vn -0.884100 -0.364900 -0.292000
vn -0.891500 -0.436900 -0.119800
vn 0.288000 0.354700 -0.889500
vn 0.452500 0.084200 -0.887800
vn 0.560900 -0.201000 -0.803100
vn 0.302900 0.184100 -0.935100
vn 0.155700 0.085200 -0.984100
vn 0.450400 -0.126800 -0.883800
vn 0.318500 -0.214000 -0.923500
vn 0.155500 -0.104500 -0.982300
vn -0.020800 -0.199700 -0.979600
vn 0.543800 -0.364500 -0.756000
vn 0.410800 -0.449200 -0.793400
vn 0.302700 -0.377200 -0.875300
vn 0.130700 -0.469400 -0.873300
vn -0.034100 -0.360800 -0.932000
vn -0.157200 -0.413900 -0.896700
vn 0.440300 0.416300 0.795500
vn 0.572000 0.212000 0.792400
vn 0.703100 -0.110100 0.702500
vn 0.531400 0.374600 0.759800
vn 0.609000 0.459800 0.646300
vn 0.701700 0.126400 0.701200
vn 0.788800 0.224400 0.572300
vn 0.753000 0.366700 0.546300
vn 0.803300 0.459000 0.379500
vn 0.791000 -0.208100 0.575300
vn 0.895000 -0.097200 0.435400
vn 0.893300 0.114900 0.434600
vn 0.929400 0.178500 0.323100
vn 0.876100 0.387100 0.287300
vn 0.883100 0.439100 0.165300
vn -0.636100 0.427800 0.642100
vn -0.561900 0.177500 0.807900
vn -0.453700 -0.060700 0.889100
vn -0.543400 0.365500 0.755700
vn -0.411600 0.449500 0.792800
vn -0.452100 0.104100 0.885900
vn -0.302100 0.203400 0.931300
vn -0.287100 0.366300 0.885100
vn -0.112500 0.458900 0.881300
vn -0.305500 -0.160700 0.938500
vn -0.156200 -0.060400 0.985900
vn -0.155600 0.105100 0.982200
vn 0.000600 0.189900 0.981800
vn 0.016100 0.374300 0.927200
vn 0.111400 0.416300 0.902400
vn -0.819700 0.404800 -0.405200
vn -0.929000 0.211200 -0.303900
vn -0.987800 -0.072100 -0.138100
vn -0.885600 0.352700 -0.302200
vn -0.881200 0.449500 -0.146400
vn -0.983700 0.116200 -0.137500
vn -0.981200 0.192400 -0.017500
vn -0.926000 0.377000 -0.017400
vn -0.870700 0.469600 0.146300
vn -0.987000 -0.160400 0.000400
vn -0.985800 -0.060600 0.156400
vn -0.984300 0.082100 0.156200
vn -0.930100 0.176700 0.321900
vn -0.875600 0.361600 0.320300
vn -0.819300 0.404800 0.406100
vn 0.141000 0.449100 -0.882300
vn -0.017300 0.200500 -0.979500
vn -0.155400 -0.109800 -0.981700
vn -0.001500 0.387400 -0.921900
vn -0.129300 0.470100 -0.873100
vn -0.155000 0.125800 -0.979900
vn -0.301200 0.223800 -0.926900
vn -0.284900 0.387800 -0.876600
vn -0.393200 0.460100 -0.796100
vn -0.283900 -0.196100 -0.938600
vn -0.468600 -0.072800 -0.880400
vn -0.466700 0.114300 -0.877000
vn -0.562200 0.178400 -0.807500
vn -0.543800 0.365500 -0.755400
vn -0.635600 0.427100 -0.643100
vn 0.883300 0.438900 -0.164900
vn 0.929500 0.178200 -0.322900
vn 0.889400 -0.060300 -0.453000
vn 0.876300 0.386800 -0.287100
vn 0.802900 0.459200 -0.380000
vn 0.886200 0.104300 -0.451400
vn 0.792200 0.203100 -0.575500
vn 0.752600 0.366800 -0.546800
vn 0.609900 0.459000 -0.646000
vn 0.798600 -0.160300 -0.580200
vn 0.718000 -0.072300 -0.692200
vn 0.715000 0.116300 -0.689300
vn 0.591100 0.200500 -0.781300
vn 0.544600 0.386900 -0.744200
vn 0.403600 0.449700 -0.796800
vn 0.115800 0.989700 0.084100
vn 0.213400 0.925300 0.313600
vn 0.266700 0.774200 0.574000
vn 0.233200 0.957600 0.169400
vn 0.382000 0.919100 0.096900
vn 0.319500 0.862700 0.391900
vn 0.468800 0.823400 0.319800
vn 0.487400 0.856000 0.172400
vn 0.597100 0.796100 0.098800
vn 0.373600 0.655300 0.656500
vn 0.527700 0.615900 0.585000
vn 0.579300 0.710300 0.399800
vn 0.707900 0.633100 0.313200
vn 0.724500 0.663900 0.185500
vn 0.803200 0.584900 0.112900
vn -0.045100 0.989600 0.136400
vn -0.264300 0.921000 0.286000
vn -0.444400 0.785700 0.430400
vn -0.083400 0.963600 0.254000
vn 0.031300 0.927100 0.373500
vn -0.311300 0.849100 0.426600
vn -0.182300 0.806200 0.562800
vn -0.019400 0.845700 0.533400
vn 0.101400 0.772800 0.626500
vn -0.486000 0.683800 0.544300
vn -0.369000 0.644100 0.670000
vn -0.214600 0.718100 0.662100
vn -0.078900 0.633400 0.769800
vn 0.067700 0.668000 0.741100
vn 0.143800 0.604000 0.783900
vn -0.143900 0.989600 0.000400
vn -0.345200 0.927200 -0.145300
vn -0.558600 0.783300 -0.272800
vn -0.267200 0.963700 0.000400
vn -0.353700 0.921000 0.163000
vn -0.512800 0.845900 -0.146500
vn -0.583100 0.812200 -0.017200
vn -0.484400 0.859300 0.164300
vn -0.535100 0.786900 0.307300
vn -0.679100 0.680000 -0.276500
vn -0.751300 0.644000 -0.143900
vn -0.704000 0.710000 -0.017400
vn -0.765700 0.626800 0.144300
vn -0.672200 0.671200 0.312400
vn -0.688700 0.604900 0.399700
vn -0.044600 0.989700 -0.136200
vn 0.012000 0.925100 -0.379500
vn 0.122300 0.774200 -0.621000
vn -0.089300 0.957600 -0.273900
vn -0.232200 0.925400 -0.299500
vn -0.027600 0.862800 -0.504700
vn -0.190400 0.823600 -0.534200
vn -0.279100 0.853100 -0.440700
vn -0.432300 0.783300 -0.446600
vn 0.084400 0.655400 -0.750600
vn -0.102500 0.610100 -0.785700
vn -0.237600 0.695100 -0.678500
vn -0.354500 0.637900 -0.683700
vn -0.473100 0.680000 -0.560200
vn -0.598300 0.587100 -0.545300
vn 0.115800 0.989700 -0.084100
vn 0.382700 0.920800 -0.076000
vn 0.598200 0.797600 -0.077200
vn 0.216200 0.963600 -0.157100
vn 0.193600 0.927000 -0.321300
vn 0.488800 0.859100 -0.151500
vn 0.465400 0.818000 -0.338100
vn 0.313800 0.856300 -0.410300
vn 0.265200 0.774200 -0.574600
vn 0.739000 0.651200 -0.172800
vn 0.719600 0.615300 -0.321800
vn 0.576300 0.701900 -0.418600
vn 0.528600 0.615400 -0.584600
vn 0.372200 0.655400 -0.657200
vn 0.332700 0.586100 -0.738800
s off
f 73/95/121 88/96/121 87/97/121
f 74/98/122 90/99/122 96/100/122
f 73/95/123 87/97/123 102/101/123
f 73/95/124 102/101/124 108/102/124
f 73/95/125 108/103/125 97/104/125
f 74/98/126 96/100/126 117/105/126
f 75/106/127 93/107/127 123/108/127
f 76/109/128 105/110/128 129/111/128
f 77/112/129 111/113/129 135/114/129
f 78/115/130 114/116/130 141/117/130
f 74/98/131 117/105/131 124/118/131
f 75/106/132 123/108/132 130/119/132
f 76/109/133 129/111/133 136/120/133
f 77/112/134 135/114/134 142/121/134
f 78/115/135 141/117/135 118/122/135
f 79/123/136 147/124/136 162/125/136
f 80/126/137 150/127/137 168/128/137
f 81/129/138 153/130/138 171/131/138
f 82/132/139 156/133/139 174/134/139
f 83/135/140 159/136/140 163/137/140
f 85/138/141 93/107/141 75/106/141
f 86/139/142 175/140/142 85/138/142
f 87/97/143 176/141/143 86/139/143
f 85/138/144 175/140/144 93/107/144
f 175/140/145 92/142/145 93/107/145
f 86/139/146 176/141/146 175/140/146
f 176/141/147 177/143/147 175/140/147
f 175/140/148 177/143/148 92/142/148
f 177/143/149 91/144/149 92/142/149
f 87/97/150 88/96/150 176/141/150
f 88/96/151 89/145/151 176/141/151
f 176/141/152 89/145/152 177/143/152
f 89/145/153 90/99/153 177/143/153
f 177/143/154 90/99/154 91/144/154
f 90/99/155 74/98/155 91/144/155
f 94/146/156 99/147/156 78/115/156
f 95/148/157 178/149/157 94/146/157
f 96/100/158 179/150/158 95/148/158
f 94/146/159 178/149/159 99/147/159
f 178/149/160 98/151/160 99/147/160
f 95/148/161 179/150/161 178/149/161
f 179/150/162 180/152/162 178/149/162
f 178/149/163 180/152/163 98/151/163
f 180/152/164 97/104/164 98/151/164
f 96/100/165 90/99/165 179/150/165
f 90/99/166 89/145/166 179/150/166
f 179/150/167 89/145/167 180/152/167
f 89/145/168 88/96/168 180/152/168
f 180/152/169 88/96/169 97/104/169
f 88/96/170 73/95/170 97/104/170
f 100/153/171 105/110/171 76/109/171
f 101/154/172 181/155/172 100/153/172
f 102/101/173 182/156/173 101/154/173
f 100/153/174 181/155/174 105/110/174
f 181/155/175 104/157/175 105/110/175
f 101/154/176 182/156/176 181/155/176
f 182/156/177 183/158/177 181/155/177
f 181/155/178 183/158/178 104/157/178
f 183/158/179 103/159/179 104/157/179
f 102/101/180 87/97/180 182/156/180
f 87/97/181 86/139/181 182/156/181
f 182/156/182 86/139/182 183/158/182
f 86/139/183 85/138/183 183/158/183
f 183/158/184 85/138/184 103/159/184
f 85/138/185 75/106/185 103/159/185
f 106/160/186 111/113/186 77/112/186
f 107/161/187 184/162/187 106/160/187
f 108/102/188 185/163/188 107/161/188
f 106/160/189 184/162/189 111/113/189
f 184/162/190 110/164/190 111/113/190
f 107/161/191 185/163/191 184/162/191
f 185/163/192 186/165/192 184/162/192
f 184/162/193 186/165/193 110/164/193
f 186/165/194 109/166/194 110/164/194
f 108/102/195 102/101/195 185/163/195
f 102/101/196 101/154/196 185/163/196
f 185/163/197 101/154/197 186/165/197
f 101/154/198 100/153/198 186/165/198
f 186/165/199 100/153/199 109/166/199
f 100/153/200 76/109/200 109/166/200
f 99/147/201 114/116/201 78/115/201
f 98/151/202 187/167/202 99/147/202
f 97/104/203 188/168/203 98/151/203
f 99/147/204 187/167/204 114/116/204
f 187/167/205 113/169/205 114/116/205
f 98/151/206 188/168/206 187/167/206
f 188/168/207 189/170/207 187/167/207
f 187/167/208 189/170/208 113/169/208
f 189/170/209 112/171/209 113/169/209
f 97/104/210 108/103/210 188/168/210
f 108/103/211 107/172/211 188/168/211
f 188/168/212 107/172/212 189/170/212
f 107/172/213 106/173/213 189/170/213
f 189/170/214 106/173/214 112/171/214
f 106/160/215 77/112/215 112/174/215
f 115/175/216 120/176/216 83/135/216
f 116/177/217 190/178/217 115/175/217
f 117/105/218 191/179/218 116/177/218
f 115/175/219 190/178/219 120/176/219
f 190/178/220 119/180/220 120/176/220
f 116/177/221 191/179/221 190/178/221
f 191/179/222 192/181/222 190/178/222
f 190/178/223 192/181/223 119/180/223
f 192/181/224 118/122/224 119/180/224
f 117/105/225 96/100/225 191/179/225
f 96/100/226 95/148/226 191/179/226
f 191/179/227 95/148/227 192/181/227
f 95/148/228 94/146/228 192/181/228
f 192/181/229 94/146/229 118/122/229
f 94/146/230 78/115/230 118/122/230
f 121/182/231 126/183/231 79/123/231
f 122/184/232 193/185/232 121/182/232
f 123/108/233 194/186/233 122/184/233
f 121/182/234 193/185/234 126/183/234
f 193/185/235 125/187/235 126/183/235
f 122/184/236 194/186/236 193/185/236
f 194/186/237 195/188/237 193/185/237
f 193/185/238 195/188/238 125/187/238
f 195/188/239 124/118/239 125/187/239
f 123/108/240 93/107/240 194/186/240
f 93/107/241 92/142/241 194/186/241
f 194/186/242 92/142/242 195/188/242
f 92/142/243 91/144/243 195/188/243
f 195/188/244 91/144/244 124/118/244
f 91/144/245 74/98/245 124/118/245
f 127/189/246 132/190/246 80/126/246
f 128/191/247 196/192/247 127/189/247
f 129/111/248 197/193/248 128/191/248
f 127/189/249 196/192/249 132/190/249
f 196/192/250 131/194/250 132/190/250
f 128/191/251 197/193/251 196/192/251
f 197/193/252 198/195/252 196/192/252
f 196/192/253 198/195/253 131/194/253
f 198/195/254 130/119/254 131/194/254
f 129/111/255 105/110/255 197/193/255
f 105/110/256 104/157/256 197/193/256
f 197/193/257 104/157/257 198/195/257
f 104/157/258 103/159/258 198/195/258
f 198/195/259 103/159/259 130/119/259
f 103/159/260 75/106/260 130/119/260
f 133/196/261 138/197/261 81/129/261
f 134/198/262 199/199/262 133/196/262
f 135/114/263 200/200/263 134/198/263
f 133/196/264 199/199/264 138/197/264
f 199/199/265 137/201/265 138/197/265
f 134/198/266 200/200/266 199/199/266
f 200/200/267 201/202/267 199/199/267
f 199/199/268 201/202/268 137/201/268
f 201/202/269 136/120/269 137/201/269
f 135/114/270 111/113/270 200/200/270
f 111/113/271 110/164/271 200/200/271
f 200/200/272 110/164/272 201/202/272
f 110/164/273 109/166/273 201/202/273
f 201/202/274 109/166/274 136/120/274
f 109/166/275 76/109/275 136/120/275
f 139/203/276 144/204/276 82/132/276
f 140/205/277 202/206/277 139/203/277
f 141/117/278 203/207/278 140/205/278
f 139/203/279 202/206/279 144/204/279
f 202/206/280 143/208/280 144/204/280
f 140/205/281 203/207/281 202/206/281
f 203/207/282 204/209/282 202/206/282
f 202/206/283 204/209/283 143/208/283
f 204/209/284 142/210/284 143/208/284
f 141/117/285 114/116/285 203/207/285
f 114/116/286 113/169/286 203/207/286
f 203/207/287 113/169/287 204/209/287
f 113/169/288 112/171/288 204/209/288
f 204/209/289 112/171/289 142/210/289
f 112/174/290 77/112/290 142/121/290
f 126/183/291 147/124/291 79/123/291
f 125/187/292 205/211/292 126/183/292
f 124/118/293 206/212/293 125/187/293
f 126/183/294 205/211/294 147/124/294
f 205/211/295 146/213/295 147/124/295
f 125/187/296 206/212/296 205/211/296
f 206/212/297 207/214/297 205/211/297
f 205/211/298 207/214/298 146/213/298
f 207/214/299 145/215/299 146/213/299
f 124/118/300 117/105/300 206/212/300
f 117/105/301 116/177/301 206/212/301
f 206/212/302 116/177/302 207/214/302
f 116/177/303 115/175/303 207/214/303
f 207/214/304 115/175/304 145/215/304
f 115/175/305 83/135/305 145/215/305
f 132/190/306 150/127/306 80/126/306
f 131/194/307 208/216/307 132/190/307
f 130/119/308 209/217/308 131/194/308
f 132/190/309 208/216/309 150/127/309
f 208/216/310 149/218/310 150/127/310
f 131/194/311 209/217/311 208/216/311
f 209/217/312 210/219/312 208/216/312
f 208/216/313 210/219/313 149/218/313
f 210/219/314 148/220/314 149/218/314
f 130/119/315 123/108/315 209/217/315
f 123/108/316 122/184/316 209/217/316
f 209/217/317 122/184/317 210/219/317
f 122/184/318 121/182/318 210/219/318
f 210/219/319 121/182/319 148/220/319
f 121/182/320 79/123/320 148/220/320
f 138/197/321 153/130/321 81/129/321
f 137/201/322 211/221/322 138/197/322
f 136/120/323 212/222/323 137/201/323
f 138/197/324 211/221/324 153/130/324
f 211/221/325 152/223/325 153/130/325
f 137/201/326 212/222/326 211/221/326
f 212/222/327 213/224/327 211/221/327
f 211/221/328 213/224/328 152/223/328
f 213/224/329 151/225/329 152/223/329
f 136/120/330 129/111/330 212/222/330
f 129/111/331 128/191/331 212/222/331
f 212/222/332 128/191/332 213/224/332
f 128/191/333 127/189/333 213/224/333
f 213/224/334 127/189/334 151/225/334
f 127/189/335 80/126/335 151/225/335
f 144/204/336 156/133/336 82/132/336
f 143/208/337 214/226/337 144/204/337
f 142/121/338 215/227/338 143/228/338
f 144/204/339 214/226/339 156/133/339
f 214/226/340 155/229/340 156/133/340
f 143/228/341 215/227/341 214/230/341
f 215/227/342 216/231/342 214/230/342
f 214/230/343 216/231/343 155/232/343
f 216/231/344 154/233/344 155/232/344
f 142/121/345 135/114/345 215/227/345
f 135/114/346 134/198/346 215/227/346
f 215/227/347 134/198/347 216/231/347
f 134/198/348 133/196/348 216/231/348
f 216/231/349 133/196/349 154/233/349
f 133/196/350 81/129/350 154/233/350
f 120/176/351 159/136/351 83/135/351
f 119/180/352 217/234/352 120/176/352
f 118/122/353 218/235/353 119/180/353
f 120/176/354 217/234/354 159/136/354
f 217/234/355 158/236/355 159/136/355
f 119/180/356 218/235/356 217/234/356
f 218/235/357 219/237/357 217/234/357
f 217/234/358 219/237/358 158/236/358
f 219/237/359 157/238/359 158/236/359
f 118/122/360 141/117/360 218/235/360
f 141/117/361 140/205/361 218/235/361
f 218/235/362 140/205/362 219/237/362
f 140/205/363 139/203/363 219/237/363
f 219/237/364 139/203/364 157/238/364
f 139/203/365 82/132/365 157/238/365
f 160/239/366 165/240/366 84/241/366
f 161/242/367 220/243/367 160/239/367
f 162/125/368 221/244/368 161/242/368
f 160/239/369 220/243/369 165/240/369
f 220/243/370 164/245/370 165/240/370
f 161/242/371 221/244/371 220/243/371
f 221/244/372 222/246/372 220/243/372
f 220/243/373 222/246/373 164/245/373
f 222/246/374 163/137/374 164/245/374
f 162/125/375 147/124/375 221/244/375
f 147/124/376 146/213/376 221/244/376
f 221/244/377 146/213/377 222/246/377
f 146/213/378 145/215/378 222/246/378
f 222/246/379 145/215/379 163/137/379
f 145/215/380 83/135/380 163/137/380
f 166/247/381 160/239/381 84/241/381
f 167/248/382 223/249/382 166/250/382
f 168/128/383 224/251/383 167/248/383
f 166/250/384 223/249/384 160/239/384
f 223/249/385 161/242/385 160/239/385
f 167/248/386 224/251/386 223/249/386
f 224/251/387 225/252/387 223/249/387
f 223/249/388 225/252/388 161/242/388
f 225/252/389 162/125/389 161/242/389
f 168/128/390 150/127/390 224/251/390
f 150/127/391 149/218/391 224/251/391
f 224/251/392 149/218/392 225/252/392
f 149/218/393 148/220/393 225/252/393
f 225/252/394 148/220/394 162/125/394
f 148/220/395 79/123/395 162/125/395
f 169/253/396 166/247/396 84/241/396
f 170/254/397 226/255/397 169/256/397
f 171/131/398 227/257/398 170/254/398
f 169/256/399 226/255/399 166/250/399
f 226/255/400 167/248/400 166/250/400
f 170/254/401 227/257/401 226/255/401
f 227/257/402 228/258/402 226/255/402
f 226/255/403 228/258/403 167/248/403
f 228/258/404 168/128/404 167/248/404
f 171/131/405 153/130/405 227/257/405
f 153/130/406 152/223/406 227/257/406
f 227/257/407 152/223/407 228/258/407
f 152/223/408 151/225/408 228/258/408
f 228/258/409 151/225/409 168/128/409
f 151/225/410 80/126/410 168/128/410
f 172/259/411 169/253/411 84/241/411
f 173/260/412 229/261/412 172/259/412
f 174/134/413 230/262/413 173/260/413
f 172/259/414 229/261/414 169/253/414
f 229/263/415 170/254/415 169/256/415
f 173/260/416 230/262/416 229/261/416
f 230/264/417 231/265/417 229/263/417
f 229/263/418 231/265/418 170/254/418
f 231/265/419 171/131/419 170/254/419
f 174/134/420 156/133/420 230/262/420
f 156/133/421 155/229/421 230/262/421
f 230/264/422 155/232/422 231/265/422
f 155/232/423 154/233/423 231/265/423
f 231/265/424 154/233/424 171/131/424
f 154/233/425 81/129/425 171/131/425
f 165/240/426 172/259/426 84/241/426
f 164/245/427 232/266/427 165/240/427
f 163/137/428 233/267/428 164/245/428
f 165/240/429 232/266/429 172/259/429
f 232/266/430 173/260/430 172/259/430
f 164/245/431 233/267/431 232/266/431
f 233/267/432 234/268/432 232/266/432
f 232/266/433 234/268/433 173/260/433
f 234/268/434 174/134/434 173/260/434
f 163/137/435 159/136/435 233/267/435
f 159/136/436 158/236/436 233/267/436
f 233/267/437 158/236/437 234/268/437
f 158/236/438 157/238/438 234/268/438
f 234/268/439 157/238/439 174/134/439
f 157/238/440 82/132/440 174/134/440
