v -0.864479 0.602816 -0.161811
v -0.882746 0.602749 -0.061293
v 0.854472 0.605446 -0.186222
v 0.877888 0.605425 -0.086777
v 0.783431 0.605467 -0.263663
v 0.619978 0.608093 -0.287043
v 0.466410 0.615436 -0.268339
v 0.327731 0.618391 -0.214774
v 0.213083 0.637090 -0.189074
v 0.020782 0.778832 -0.394186
v -0.020925 0.778832 -0.394186
v -0.215257 0.635919 -0.193635
v -0.338182 0.620489 -0.217760
v -0.481466 0.613587 -0.263852
v -0.635890 0.602739 -0.274642
v -0.797919 0.601246 -0.242880
v -0.850399 0.600983 0.045918
v -0.705037 0.620214 0.115166
v -0.555574 0.622563 0.157693
v -0.384444 0.612224 0.207272
v -0.187248 0.580474 0.262799
v -0.052611 0.551222 0.289701
v 0.053274 0.553076 0.294780
v 0.187113 0.574185 0.297799
v 0.378947 0.606906 0.246504
v 0.559494 0.622037 0.152372
v 0.700437 0.619976 0.059421
v 0.840975 0.605763 -0.019113
v 0.127837 0.688410 -0.245613
v 0.116452 0.562331 0.296057
v -0.129485 0.692903 -0.242188
v -0.111692 0.557351 0.288043
v -0.868946 0.603920 -0.136663
v -0.873477 0.604295 -0.111526
v -0.878079 0.603886 -0.086403
v 0.871937 0.606551 -0.111615
v 0.866049 0.606948 -0.136468
v 0.860229 0.606561 -0.161338
v -0.836585 0.608734 -0.026151
v -0.823195 0.611803 -0.098299
v -0.810345 0.608830 -0.170549
v -0.686613 0.628346 0.017929
v -0.668873 0.629101 -0.079437
v -0.652022 0.619648 -0.176972
v -0.536511 0.634958 0.052585
v -0.516939 0.638653 -0.052748
v -0.498712 0.630183 -0.158333
v -0.380912 0.637872 0.105946
v -0.369110 0.651103 -0.002655
v -0.352764 0.642034 -0.109255
v -0.202106 0.623335 0.173535
v -0.214803 0.667529 0.060718
v -0.215028 0.659966 -0.069628
v -0.044354 0.595326 0.171466
v -0.046419 0.670289 0.049173
v -0.032950 0.697164 -0.084715
v 0.044153 0.595073 0.171196
v 0.045622 0.669831 0.049834
v 0.033934 0.697719 -0.083845
v 0.201527 0.615266 0.203414
v 0.213389 0.660705 0.084975
v 0.214672 0.658090 -0.053711
v 0.385127 0.634455 0.134186
v 0.371677 0.651149 0.016889
v 0.347865 0.641757 -0.098357
v 0.537673 0.635079 0.044826
v 0.512582 0.639206 -0.059332
v 0.489004 0.631431 -0.163850
v 0.679433 0.627473 -0.026983
v 0.658940 0.628799 -0.113509
v 0.639143 0.621651 -0.200201
v 0.826117 0.611112 -0.080138
v 0.811527 0.613374 -0.141227
v 0.797325 0.611155 -0.202409
v 0.115941 0.597657 0.178710
v 0.126781 0.676411 0.051952
v 0.130661 0.672548 -0.092031
v -0.114943 0.595654 0.176772
v -0.127082 0.679492 0.049182
v -0.126264 0.668056 -0.106587
v 0.808460 0.553991 -0.096960
v 0.854751 0.549393 -0.127428
v 0.859219 0.548808 -0.110383
v 0.821294 0.549358 -0.044698
v -0.857123 0.547379 -0.105763
v -0.816791 0.551961 -0.044452
v -0.827730 0.545334 0.016413
v -0.859328 0.547222 -0.090047
v -0.671060 0.570965 -0.002595
v -0.687342 0.564010 0.082751
v -0.522672 0.577763 0.024870
v -0.541596 0.567552 0.116478
v -0.368571 0.587107 0.063328
v -0.370267 0.563350 0.153802
v -0.201073 0.525640 0.121581
v -0.184800 0.542032 0.209785
v -0.117263 0.481172 0.126254
v -0.046967 0.469641 0.097008
v -0.052683 0.514831 0.235743
v -0.114154 0.521329 0.236407
v 0.048450 0.470136 0.098513
v 0.054243 0.516005 0.239349
v 0.129962 0.487704 0.136385
v 0.204366 0.520544 0.154761
v 0.185477 0.535261 0.247780
v 0.119565 0.525593 0.244280
v 0.370162 0.582651 0.091194
v 0.372335 0.558664 0.191501
v 0.520655 0.578081 0.016204
v 0.542674 0.567419 0.109719
v 0.662651 0.570166 -0.046952
v 0.681005 0.563795 0.028390
v 0.778659 0.549628 -0.223345
v 0.844351 0.549528 -0.153963
v 0.849042 0.549797 -0.137933
v 0.790823 0.554537 -0.170552
v 0.852084 0.549347 -0.133230
v 0.800009 0.555602 -0.131828
v -0.853851 0.547080 -0.126776
v -0.792004 0.545875 -0.198826
v -0.802541 0.552475 -0.135765
v -0.856960 0.547270 -0.111297
v -0.809971 0.554098 -0.088412
v -0.857589 0.546857 -0.108665
v -0.635279 0.548852 -0.219074
v -0.648825 0.563950 -0.133116
v -0.659351 0.570971 -0.067088
v -0.483611 0.560380 -0.203399
v -0.498084 0.574829 -0.110259
v -0.508332 0.580009 -0.044832
v -0.340444 0.568493 -0.150316
v -0.350106 0.586927 -0.058428
v -0.355224 0.592122 -0.005180
v -0.203373 0.580698 -0.125847
v -0.207690 0.552928 -0.016593
v -0.209408 0.531534 0.040564
v -0.115341 0.609812 -0.195612
v -0.018347 0.691025 -0.354547
v -0.031759 0.561806 -0.175588
v -0.123194 0.522263 -0.062124
v -0.049324 0.474641 -0.025257
v -0.131338 0.503495 0.038623
v 0.018205 0.689894 -0.354870
v 0.031677 0.558428 -0.176750
v 0.048621 0.473250 -0.024856
v 0.113516 0.605921 -0.197452
v 0.200728 0.580041 -0.126675
v 0.206049 0.551544 -0.008359
v 0.121527 0.522702 -0.063784
v 0.209223 0.529642 0.063083
v 0.132567 0.504214 0.039423
v 0.332690 0.565882 -0.149783
v 0.347701 0.586224 -0.050093
v 0.357364 0.592069 0.011539
v 0.472608 0.561830 -0.210291
v 0.491804 0.575776 -0.117160
v 0.503446 0.580457 -0.054496
v 0.622001 0.553577 -0.235625
v 0.638059 0.565554 -0.159759
v 0.649992 0.570655 -0.102342
v 0.638986 0.582958 -0.287419
v 0.805539 0.580003 -0.264889
v 0.055515 0.536321 0.295324
v -0.054258 0.534755 0.289951
v -0.348146 0.595900 -0.206411
v -0.215635 0.610484 -0.179130
v -0.892422 0.578374 -0.132292
v -0.888215 0.577728 -0.154886
v 0.898939 0.579837 -0.102780
v 0.861230 0.580121 -0.029545
v -0.393175 0.589347 0.199473
v -0.570683 0.597213 0.153166
v 0.020167 0.763638 -0.414283
v 0.125141 0.660743 -0.247125
v 0.716748 0.593956 0.052020
v 0.574077 0.597094 0.145853
v -0.127149 0.665520 -0.244204
v -0.020325 0.763638 -0.414283
v -0.869761 0.575747 0.039551
v -0.901464 0.577758 -0.078571
v 0.888460 0.580867 -0.143135
v 0.893168 0.580692 -0.126076
v 0.481835 0.590625 -0.265823
v 0.190406 0.554773 0.298318
v 0.120963 0.544761 0.296324
v 0.212867 0.611004 -0.177309
v -0.895288 0.578354 -0.116849
v -0.496167 0.588857 -0.259450
v 0.877819 0.580202 -0.182356
v 0.883602 0.580896 -0.159597
v -0.190426 0.560752 0.258239
v -0.114994 0.540124 0.287194
v -0.820576 0.576110 -0.240721
v -0.722570 0.594217 0.112819
v 0.337674 0.593617 -0.205213
v 0.388027 0.583885 0.242530
v -0.654938 0.577941 -0.271755
v -0.897624 0.578408 -0.101271
vt 0.281556 0.946625
vt 0.314598 0.946625
vt 0.284400 0.973717
vt 0.270963 0.973717
vt 0.270963 0.032688
vt 0.284400 0.032688
vt 0.336850 0.059640
vt 0.298246 0.059640
vt 0.359014 0.140589
vt 0.306948 0.140589
vt 0.367128 0.221162
vt 0.310766 0.221162
vt 0.382066 0.301735
vt 0.324244 0.301735
vt 0.430287 0.382308
vt 0.360482 0.382308
vt 0.375818 0.425484
vt 0.466321 0.422594
vt 0.476927 0.462881
vt 0.383761 0.470194
vt 0.476927 0.543454
vt 0.383761 0.536141
vt 0.375818 0.580851
vt 0.466321 0.583741
vt 0.455627 0.624027
vt 0.379487 0.624027
vt 0.401923 0.704600
vt 0.339137 0.704600
vt 0.367128 0.785173
vt 0.310766 0.785173
vt 0.337866 0.865746
vt 0.291087 0.865746
vt 0.182432 0.946625
vt 0.215473 0.946625
vt 0.244090 0.973717
vt 0.230653 0.973717
vt 0.248515 0.946625
vt 0.257526 0.973717
vt 0.230653 0.032688
vt 0.244090 0.032688
vt 0.221036 0.059640
vt 0.182432 0.059640
vt 0.257526 0.032688
vt 0.259641 0.059640
vt 0.202817 0.140589
vt 0.150751 0.140589
vt 0.254882 0.140589
vt 0.198040 0.221162
vt 0.141678 0.221162
vt 0.254403 0.221162
vt 0.208600 0.301735
vt 0.150778 0.301735
vt 0.266422 0.301735
vt 0.220872 0.382308
vt 0.151068 0.382308
vt 0.290677 0.382308
vt 0.104308 0.434153
vt 0.194811 0.431263
vt 0.193764 0.484821
vt 0.011262 0.492134
vt 0.285314 0.428373
vt 0.284716 0.477508
vt 0.193764 0.521514
vt 0.011262 0.514201
vt 0.284716 0.528827
vt 0.104308 0.572182
vt 0.194811 0.575072
vt 0.227207 0.624027
vt 0.151068 0.624027
vt 0.285314 0.577962
vt 0.303347 0.624027
vt 0.213565 0.704600
vt 0.150778 0.704600
vt 0.276351 0.704600
vt 0.198040 0.785173
vt 0.141678 0.785173
vt 0.254403 0.785173
vt 0.197530 0.865746
vt 0.150751 0.865746
vt 0.244309 0.865746
vt 0.744386 0.087215
vt 0.734842 0.061296
vt 0.743669 0.061100
vt 0.771352 0.087163
vt 0.733119 0.937328
vt 0.759732 0.912122
vt 0.790723 0.911761
vt 0.741065 0.937001
vt 0.767306 0.837253
vt 0.810845 0.837285
vt 0.767551 0.761708
vt 0.814415 0.762324
vt 0.772322 0.683357
vt 0.820367 0.684106
vt 0.797585 0.608380
vt 0.858114 0.609568
vt 0.808091 0.572409
vt 0.793668 0.531812
vt 0.898169 0.538401
vt 0.888657 0.575495
vt 0.793936 0.468602
vt 0.898430 0.461735
vt 0.808473 0.427692
vt 0.815111 0.391773
vt 0.882996 0.390622
vt 0.889464 0.424305
vt 0.785929 0.317568
vt 0.839156 0.316925
vt 0.766526 0.239862
vt 0.813624 0.239521
vt 0.752030 0.163489
vt 0.790888 0.163520
vt 0.679318 0.087446
vt 0.720705 0.063319
vt 0.729062 0.062859
vt 0.706465 0.087342
vt 0.731706 0.061934
vt 0.726408 0.087261
vt 0.722466 0.937584
vt 0.681402 0.913442
vt 0.713435 0.913300
vt 0.730376 0.937739
vt 0.737447 0.912795
vt 0.731730 0.937795
vt 0.657377 0.837930
vt 0.700966 0.837646
vt 0.734460 0.837276
vt 0.651343 0.761926
vt 0.698726 0.761543
vt 0.731900 0.760987
vt 0.663690 0.685405
vt 0.710511 0.684244
vt 0.737728 0.682553
vt 0.668141 0.606210
vt 0.724524 0.605696
vt 0.753165 0.606406
vt 0.626903 0.559161
vt 0.538967 0.509586
vt 0.642919 0.516322
vt 0.702043 0.561685
vt 0.720444 0.524324
vt 0.752706 0.567265
vt 0.538967 0.491165
vt 0.642919 0.484430
vt 0.720681 0.476346
vt 0.626240 0.441863
vt 0.666541 0.395045
vt 0.728939 0.395582
vt 0.701270 0.439480
vt 0.764286 0.394449
vt 0.753021 0.433639
vt 0.662781 0.315251
vt 0.713909 0.316414
vt 0.745495 0.318176
vt 0.650461 0.238188
vt 0.698163 0.238741
vt 0.730065 0.240010
vt 0.655335 0.162486
vt 0.694183 0.162780
vt 0.723559 0.163289
vt 0.916964 0.136641
vt 0.908385 0.055220
vt 0.894321 0.075173
vt 0.903140 0.152818
vt 0.940117 0.461210
vt 0.939763 0.543345
vt 0.927382 0.541783
vt 0.927700 0.462456
vt 0.941075 0.704226
vt 0.954822 0.620738
vt 0.942352 0.611946
vt 0.927913 0.693891
vt 0.906245 0.976525
vt 0.905908 0.976443
vt 0.891919 0.954825
vt 0.892009 0.954985
vt 0.905876 0.027300
vt 0.908490 0.055069
vt 0.894230 0.074880
vt 0.891550 0.047912
vt 0.942942 0.703531
vt 0.933424 0.786497
vt 0.919277 0.773481
vt 0.929515 0.692547
vt 0.936232 0.491884
vt 0.956454 0.435920
vt 0.943989 0.441894
vt 0.923753 0.492908
vt 0.922866 0.137194
vt 0.932360 0.218973
vt 0.918353 0.232527
vt 0.908651 0.153887
vt 0.956533 0.569110
vt 0.936232 0.513000
vt 0.923753 0.511968
vt 0.944149 0.563264
vt 0.907439 0.948872
vt 0.905979 0.976130
vt 0.892060 0.954221
vt 0.893477 0.928105
vt 0.906447 0.027746
vt 0.906328 0.027405
vt 0.891870 0.048115
vt 0.891904 0.048775
vt 0.928814 0.218259
vt 0.915200 0.231148
vt 0.945008 0.382048
vt 0.943299 0.420626
vt 0.930725 0.423726
vt 0.932069 0.388874
vt 0.954693 0.384416
vt 0.942094 0.393451
vt 0.906237 0.976556
vt 0.891789 0.955043
vt 0.928944 0.786284
vt 0.915461 0.773069
vt 0.906163 0.028488
vt 0.906504 0.028242
vt 0.892223 0.049732
vt 0.892123 0.050209
vt 0.948881 0.622535
vt 0.936079 0.615421
vt 0.941746 0.583749
vt 0.929294 0.580165
vt 0.907447 0.949772
vt 0.893493 0.929844
vt 0.924302 0.867719
vt 0.910069 0.851044
vt 0.939451 0.300607
vt 0.926190 0.310886
vt 0.940413 0.301503
vt 0.927041 0.312618
vt 0.915625 0.868064
vt 0.901989 0.851711
vt 0.906294 0.976305
vt 0.892106 0.954560
vt 0.930788 0.145080
vt 0.922449 0.065365
vt 0.952533 0.462732
vt 0.952144 0.542145
vt 0.954237 0.700971
vt 0.967292 0.621558
vt 0.920481 0.966144
vt 0.919898 0.966144
vt 0.920202 0.038663
vt 0.922750 0.065365
vt 0.956370 0.700971
vt 0.947570 0.780384
vt 0.948711 0.491564
vt 0.968918 0.434417
vt 0.937082 0.145080
vt 0.946367 0.224493
vt 0.968918 0.570459
vt 0.948711 0.513313
vt 0.921400 0.939580
vt 0.920990 0.038663
vt 0.920786 0.038663
vt 0.942429 0.224493
vt 0.957946 0.383319
vt 0.955874 0.423025
vt 0.967292 0.383319
vt 0.920685 0.966144
vt 0.942427 0.780384
vt 0.961683 0.621558
vt 0.954198 0.581851
vt 0.938534 0.859797
vt 0.952711 0.303906
vt 0.953786 0.303906
vt 0.929262 0.859797
vn 0.115000 0.992300 0.046900
vn -0.171200 0.983600 0.057400
vn -0.153900 0.986100 0.063200
vn -0.053200 0.994400 0.091000
vn -0.033600 0.983500 0.177600
vn 0.005200 0.941100 0.338000
vn 0.056300 0.939300 0.338500
vn -0.016100 0.941900 0.335400
vn -0.227300 0.920700 0.317300
vn -0.031100 0.949500 0.312200
vn 0.051400 0.982700 0.177800
vn 0.084400 0.992700 0.086500
vn 0.130400 0.990000 0.054500
vn -0.103000 0.945900 0.307700
vn 0.223300 0.910400 0.348300
vn 0.128900 0.985800 -0.107300
vn 0.115200 0.991700 -0.056800
vn 0.110000 0.993900 0.004500
vn -0.127300 0.985800 -0.109900
vn -0.123700 0.990700 -0.056100
vn -0.140800 0.990000 0.009400
vn -0.056000 0.986900 -0.151600
vn -0.085800 0.992500 -0.087600
vn -0.120500 0.992700 0.000300
vn -0.052000 0.983900 -0.170800
vn -0.051100 0.994000 -0.096500
vn -0.055800 0.998400 0.011600
vn -0.005800 0.984300 -0.176300
vn -0.051700 0.994500 -0.090600
vn -0.073500 0.995000 0.067900
vn -0.077100 0.977500 -0.196400
vn -0.090100 0.993000 -0.075800
vn -0.103800 0.962600 0.250100
vn -0.379500 0.901500 0.208200
vn -0.119400 0.991700 0.047000
vn 0.071900 0.843700 0.532100
vn -0.007000 0.967200 0.254000
vn -0.002500 0.979700 0.200500
vn 0.002200 0.852000 0.523500
vn 0.372900 0.927600 -0.022200
vn 0.181800 0.983100 -0.019200
vn -0.155600 0.887000 0.434800
vn 0.087300 0.979700 -0.180200
vn 0.067900 0.996300 -0.053100
vn 0.074700 0.964400 0.253700
vn -0.025800 0.985000 -0.170500
vn 0.035700 0.995700 -0.085500
vn 0.082900 0.993400 0.079000
vn 0.026900 0.987000 -0.158300
vn 0.041200 0.995400 -0.087000
vn 0.067800 0.997600 0.012300
vn 0.049500 0.989000 -0.139600
vn 0.075200 0.993900 -0.080200
vn 0.105400 0.994400 -0.000900
vn 0.391600 0.903300 0.175300
vn 0.106400 0.990900 0.082700
vn -0.083700 0.849300 0.521300
vn -0.346100 0.938200 0.007500
vn -0.130500 0.989200 -0.066000
vn 0.101100 0.882400 0.459500
vn -0.113600 -0.992400 -0.046400
vn 0.171400 -0.983500 -0.057700
vn 0.153700 -0.986100 -0.063000
vn 0.052900 -0.994900 -0.086000
vn 0.056700 -0.982600 -0.176900
vn -0.221500 -0.974900 -0.022100
vn -0.055900 -0.944600 0.323300
vn 0.000000 -0.950800 0.309700
vn 0.238500 -0.930400 0.278400
vn 0.226900 -0.973500 -0.027100
vn -0.068900 -0.983500 -0.167200
vn -0.082400 -0.993300 -0.080500
vn -0.129100 -0.990200 -0.053800
vn 0.081500 -0.944100 0.319400
vn -0.421100 -0.860600 0.286500
vn -0.124800 -0.986600 0.104800
vn -0.111900 -0.992700 0.045600
vn -0.112100 -0.993700 -0.007600
vn 0.122400 -0.986700 0.106600
vn 0.122700 -0.991500 0.043800
vn 0.146200 -0.989200 -0.014300
vn 0.054600 -0.986800 0.152500
vn 0.085400 -0.992300 0.089200
vn 0.120000 -0.992800 0.000900
vn 0.051200 -0.984100 0.170400
vn 0.050600 -0.993700 0.100200
vn 0.053900 -0.998500 -0.006300
vn 0.005100 -0.984400 0.175600
vn 0.051500 -0.994300 0.093600
vn 0.078900 -0.996200 -0.036500
vn -0.065700 -0.996500 -0.050800
vn -0.264900 -0.951600 -0.156000
vn -0.338700 -0.937500 -0.079800
vn -0.309700 -0.771200 -0.556100
vn -0.350800 -0.849400 -0.394300
vn -0.311000 -0.945300 -0.098700
vn -0.045100 -0.806800 -0.589000
vn -0.028000 -0.868300 -0.495200
vn -0.004300 -0.999400 -0.033000
vn 0.308200 -0.863500 -0.399200
vn 0.412500 -0.879600 -0.237000
vn 0.384000 -0.916800 -0.109300
vn 0.064500 -0.997000 -0.043300
vn 0.273400 -0.951500 -0.141200
vn 0.329000 -0.937100 -0.116500
vn 0.026300 -0.985000 0.170500
vn -0.034300 -0.995300 0.090200
vn -0.083500 -0.994600 -0.061400
vn -0.025700 -0.987300 0.156800
vn -0.040600 -0.995200 0.089000
vn -0.064100 -0.997900 -0.007500
vn -0.048500 -0.988900 0.140400
vn -0.074900 -0.994000 0.080200
vn -0.104600 -0.994500 0.001300
vn 0.308700 -0.773300 -0.553800
vn 0.368800 -0.846300 -0.384400
vn 0.325600 -0.942100 -0.079800
vn -0.290100 -0.858700 -0.422500
vn -0.392600 -0.885200 -0.249700
vn -0.405400 -0.908800 -0.098200
vn 0.038500 -0.849700 -0.525900
vn -0.002300 -0.939300 0.343000
vn 0.177700 -0.858400 -0.481300
vn -0.618000 -0.779600 -0.101600
vn 0.531900 -0.794000 0.294300
vn -0.146900 -0.860100 0.488500
vn 0.483900 -0.595300 -0.641400
vn 0.289100 -0.819200 0.495400
vn -0.503700 -0.588200 -0.632700
vn -0.542800 -0.828300 0.138600
vn 0.616000 -0.761100 -0.203000
vn -0.120600 -0.860100 -0.495700
vn 0.121400 -0.931200 0.343600
vn 0.164700 -0.768500 -0.618300
vn -0.611900 -0.779000 -0.137000
vn 0.214600 -0.858100 -0.466400
vn 0.605100 -0.783000 -0.144000
vn -0.223400 -0.904900 0.362200
vn 0.267800 -0.731700 0.626800
vn -0.365700 -0.878200 0.308200
vn -0.012500 -0.631300 -0.775400
vn 0.582400 -0.778200 -0.235000
vn -0.431600 -0.835900 -0.339000
vn -0.192600 -0.774400 0.602700
vn -0.219500 -0.857600 -0.465000
vn 0.227000 -0.907400 0.353600
vn 0.113400 -0.934100 0.338600
vn 0.106700 -0.865300 -0.489700
vn -0.622900 -0.781300 -0.038600
vn 0.410500 -0.832400 -0.372300
vn -0.096600 -0.934600 0.342400
vn -0.107700 -0.773900 -0.624000
vn -0.607500 -0.786400 -0.112100
vn -0.129400 -0.796900 0.590100
vn 0.259400 -0.874200 0.410400
vn -0.202700 -0.842600 -0.499000
vn 0.625700 -0.757600 -0.185900
vn -0.067500 -0.860300 -0.505200
vn 0.138700 0.143800 -0.979800
vn -0.048800 0.023000 0.998500
vn 0.226900 -0.483800 -0.845300
vn -0.739500 0.654200 -0.158300
vn 0.799800 0.427300 0.421700
vn -0.268900 -0.111600 0.956700
vn 0.863400 0.172400 -0.474200
vn 0.548300 0.105800 0.829600
vn -0.862500 0.185100 -0.471000
vn -0.824600 0.510800 0.243000
vn 0.718500 0.673800 -0.172500
vn -0.133800 -0.134300 -0.981900
vn -0.029000 0.015100 0.999500
vn 0.505400 -0.188000 -0.842200
vn -0.742100 0.655300 -0.141000
vn 0.309600 -0.426300 -0.849900
vn 0.732600 0.650000 -0.202100
vn -0.296100 -0.188900 0.936300
vn 0.492800 0.048900 0.868800
vn -0.355800 -0.074000 0.931600
vn 0.000000 0.797700 -0.603100
vn 0.725600 0.660400 -0.193200
vn -0.663400 0.514600 -0.543200
vn -0.449300 0.174600 0.876200
vn -0.352100 -0.387600 -0.851900
vn 0.265300 -0.001100 0.964200
vn -0.020400 0.019600 0.999600
vn 0.086000 -0.202200 -0.975600
vn -0.749400 0.650700 -0.122100
vn 0.629100 0.534600 -0.564200
vn -0.038000 -0.012200 0.999200
vn -0.427800 -0.223000 -0.875900
vn -0.756800 0.644200 -0.110600
vn -0.265600 0.039900 0.963300
vn 0.459500 0.032500 0.887600
vn -0.257900 -0.415100 -0.872400
vn 0.719600 0.678600 -0.147300
vn -0.188500 0.058300 -0.980300
s off
f 72/1/1 28/2/1 4/3/1 36/4/1
f 35/5/2 2/6/2 17/7/2 39/8/2
f 39/8/3 17/7/3 18/9/3 42/10/3
f 42/10/4 18/9/4 19/11/4 45/12/4
f 45/12/5 19/11/5 20/13/5 48/14/5
f 48/14/6 20/13/6 21/15/6 51/16/6
f 78/17/7 32/18/7 22/19/7 54/20/7
f 54/20/8 22/19/8 23/21/8 57/22/8
f 75/23/9 30/24/9 24/25/9 60/26/9
f 60/26/10 24/25/10 25/27/10 63/28/10
f 63/28/11 25/27/11 26/29/11 66/30/11
f 66/30/12 26/29/12 27/31/12 69/32/12
f 69/32/13 27/31/13 28/2/13 72/1/13
f 57/22/14 23/21/14 30/24/14 75/23/14
f 51/16/15 21/15/15 32/18/15 78/17/15
f 5/33/16 74/34/16 38/35/16 3/36/16
f 74/34/17 73/37/17 37/38/17 38/35/17
f 73/37/18 72/1/18 36/4/18 37/38/18
f 1/39/19 33/40/19 41/41/19 16/42/19
f 33/40/20 34/43/20 40/44/20 41/41/20
f 34/43/21 35/5/21 39/8/21 40/44/21
f 16/42/22 41/41/22 44/45/22 15/46/22
f 41/41/23 40/44/23 43/47/23 44/45/23
f 40/44/24 39/8/24 42/10/24 43/47/24
f 15/46/25 44/45/25 47/48/25 14/49/25
f 44/45/26 43/47/26 46/50/26 47/48/26
f 43/47/27 42/10/27 45/12/27 46/50/27
f 14/49/28 47/48/28 50/51/28 13/52/28
f 47/48/29 46/50/29 49/53/29 50/51/29
f 46/50/30 45/12/30 48/14/30 49/53/30
f 13/52/31 50/51/31 53/54/31 12/55/31
f 50/51/32 49/53/32 52/56/32 53/54/32
f 49/53/33 48/14/33 51/16/33 52/56/33
f 31/57/34 80/58/34 56/59/34 11/60/34
f 80/58/35 79/61/35 55/62/35 56/59/35
f 79/61/36 78/17/36 54/20/36 55/62/36
f 11/60/37 56/59/37 59/63/37 10/64/37
f 56/59/38 55/62/38 58/65/38 59/63/38
f 55/62/39 54/20/39 57/22/39 58/65/39
f 29/66/40 77/67/40 62/68/40 9/69/40
f 77/67/41 76/70/41 61/71/41 62/68/41
f 76/70/42 75/23/42 60/26/42 61/71/42
f 9/69/43 62/68/43 65/72/43 8/73/43
f 62/68/44 61/71/44 64/74/44 65/72/44
f 61/71/45 60/26/45 63/28/45 64/74/45
f 8/73/46 65/72/46 68/75/46 7/76/46
f 65/72/47 64/74/47 67/77/47 68/75/47
f 64/74/48 63/28/48 66/30/48 67/77/48
f 7/76/49 68/75/49 71/78/49 6/79/49
f 68/75/50 67/77/50 70/80/50 71/78/50
f 67/77/51 66/30/51 69/32/51 70/80/51
f 6/79/52 71/78/52 74/34/52 5/33/52
f 71/78/53 70/80/53 73/37/53 74/34/53
f 70/80/54 69/32/54 72/1/54 73/37/54
f 10/64/55 59/63/55 77/67/55 29/66/55
f 59/63/56 58/65/56 76/70/56 77/67/56
f 58/65/57 57/22/57 75/23/57 76/70/57
f 12/55/58 53/54/58 80/58/58 31/57/58
f 53/54/59 52/56/59 79/61/59 80/58/59
f 52/56/60 51/16/60 78/17/60 79/61/60
f 81/81/61 82/82/61 83/83/61 84/84/61
f 85/85/62 86/86/62 87/87/62 88/88/62
f 86/86/63 89/89/63 90/90/63 87/87/63
f 89/89/64 91/91/64 92/92/64 90/90/64
f 91/91/65 93/93/65 94/94/65 92/92/65
f 93/93/66 95/95/66 96/96/66 94/94/66
f 97/97/67 98/98/67 99/99/67 100/100/67
f 98/98/68 101/101/68 102/102/68 99/99/68
f 103/103/69 104/104/69 105/105/69 106/106/69
f 104/104/70 107/107/70 108/108/70 105/105/70
f 107/107/71 109/109/71 110/110/71 108/108/71
f 109/109/72 111/111/72 112/112/72 110/110/72
f 111/111/73 81/81/73 84/84/73 112/112/73
f 101/101/74 103/103/74 106/106/74 102/102/74
f 95/95/75 97/97/75 100/100/75 96/96/75
f 113/113/76 114/114/76 115/115/76 116/116/76
f 116/116/77 115/115/77 117/117/77 118/118/77
f 118/118/78 117/117/78 82/82/78 81/81/78
f 119/119/79 120/120/79 121/121/79 122/122/79
f 122/122/80 121/121/80 123/123/80 124/124/80
f 124/124/81 123/123/81 86/86/81 85/85/81
f 120/120/82 125/125/82 126/126/82 121/121/82
f 121/121/83 126/126/83 127/127/83 123/123/83
f 123/123/84 127/127/84 89/89/84 86/86/84
f 125/125/85 128/128/85 129/129/85 126/126/85
f 126/126/86 129/129/86 130/130/86 127/127/86
f 127/127/87 130/130/87 91/91/87 89/89/87
f 128/128/88 131/131/88 132/132/88 129/129/88
f 129/129/89 132/132/89 133/133/89 130/130/89
f 130/130/90 133/133/90 93/93/90 91/91/90
f 131/131/91 134/134/91 135/135/91 132/132/91
f 132/132/92 135/135/92 136/136/92 133/133/92
f 133/133/93 136/136/93 95/95/93 93/93/93
f 137/137/94 138/138/94 139/139/94 140/140/94
f 140/140/95 139/139/95 141/141/95 142/142/95
f 142/142/96 141/141/96 98/98/96 97/97/96
f 138/138/97 143/143/97 144/144/97 139/139/97
f 139/139/98 144/144/98 145/145/98 141/141/98
f 141/141/99 145/145/99 101/101/99 98/98/99
f 146/146/100 147/147/100 148/148/100 149/149/100
f 149/149/101 148/148/101 150/150/101 151/151/101
f 151/151/102 150/150/102 104/104/102 103/103/102
f 147/147/103 152/152/103 153/153/103 148/148/103
f 148/148/104 153/153/104 154/154/104 150/150/104
f 150/150/105 154/154/105 107/107/105 104/104/105
f 152/152/106 155/155/106 156/156/106 153/153/106
f 153/153/107 156/156/107 157/157/107 154/154/107
f 154/154/108 157/157/108 109/109/108 107/107/108
f 155/155/109 158/158/109 159/159/109 156/156/109
f 156/156/110 159/159/110 160/160/110 157/157/110
f 157/157/111 160/160/111 111/111/111 109/109/111
f 158/158/112 113/113/112 116/116/112 159/159/112
f 159/159/113 116/116/113 118/118/113 160/160/113
f 160/160/114 118/118/114 81/81/114 111/111/114
f 143/143/115 146/146/115 149/149/115 144/144/115
f 144/144/116 149/149/116 151/151/116 145/145/116
f 145/145/117 151/151/117 103/103/117 101/101/117
f 134/134/118 137/137/118 140/140/118 135/135/118
f 135/135/119 140/140/119 142/142/119 136/136/119
f 136/136/120 142/142/120 97/97/120 95/95/120
f 161/161/121 162/162/121 113/163/121 158/164/121
f 163/165/122 164/166/122 99/167/122 102/168/122
f 165/169/123 166/170/123 134/171/123 131/172/123
f 167/173/124 168/174/124 119/175/124 122/176/124
f 169/177/125 170/178/125 84/179/125 83/180/125
f 171/181/126 172/182/126 92/183/126 94/184/126
f 173/185/127 174/186/127 146/187/127 143/188/127
f 175/189/128 176/190/128 110/191/128 112/192/128
f 177/193/129 178/194/129 138/195/129 137/196/129
f 179/197/130 180/198/130 88/199/130 87/200/130
f 181/201/131 182/202/131 82/203/131 117/204/131
f 183/205/132 161/161/132 158/164/132 155/206/132
f 184/207/133 185/208/133 106/209/133 105/210/133
f 174/186/134 186/211/134 147/212/134 146/187/134
f 187/213/135 167/173/135 122/176/135 124/214/135
f 188/215/136 165/169/136 131/172/136 128/216/136
f 189/217/137 190/218/137 115/219/137 114/220/137
f 191/221/138 171/181/138 94/184/138 96/222/138
f 170/178/139 175/189/139 112/192/139 84/179/139
f 192/223/140 191/221/140 96/222/140 100/224/140
f 178/194/141 173/185/141 143/188/141 138/195/141
f 190/218/142 181/201/142 117/204/142 115/219/142
f 168/174/143 193/225/143 120/226/143 119/175/143
f 194/227/144 179/197/144 87/200/144 90/228/144
f 195/229/145 183/205/145 155/206/145 152/230/145
f 196/231/146 184/207/146 105/210/146 108/232/146
f 185/208/147 163/165/147 102/168/147 106/209/147
f 197/233/148 188/215/148 128/216/148 125/234/148
f 198/235/149 187/213/149 124/214/149 85/236/149
f 162/162/150 189/217/150 114/220/150 113/163/150
f 164/166/151 192/223/151 100/224/151 99/167/151
f 166/170/152 177/193/152 137/196/152 134/171/152
f 180/198/153 198/235/153 85/236/153 88/199/153
f 172/182/154 194/227/154 90/228/154 92/183/154
f 176/190/155 196/231/155 108/232/155 110/191/155
f 186/211/156 195/229/156 152/230/156 147/212/156
f 182/202/157 169/177/157 83/180/157 82/203/157
f 193/225/158 197/233/158 125/234/158 120/226/158
f 6/237/159 5/238/159 162/162/159 161/161/159
f 23/239/160 22/240/160 164/166/160 163/165/160
f 13/241/161 12/242/161 166/170/161 165/169/161
f 33/243/162 1/244/162 168/174/162 167/173/162
f 4/245/163 28/246/163 170/178/163 169/177/163
f 20/247/164 19/248/164 172/182/164 171/181/164
f 10/249/165 29/250/165 174/186/165 173/185/165
f 27/251/166 26/252/166 176/190/166 175/189/166
f 31/253/167 11/254/167 178/194/167 177/193/167
f 17/255/168 2/244/168 180/198/168 179/197/168
f 37/256/169 36/257/169 182/202/169 181/201/169
f 7/258/170 6/237/170 161/161/170 183/205/170
f 24/259/171 30/260/171 185/208/171 184/207/171
f 29/250/172 9/261/172 186/211/172 174/186/172
f 34/262/173 33/243/173 167/173/173 187/213/173
f 14/263/174 13/241/174 165/169/174 188/215/174
f 3/245/175 38/257/175 190/218/175 189/217/175
f 21/264/176 20/247/176 171/181/176 191/221/176
f 28/246/177 27/251/177 175/189/177 170/178/177
f 32/265/178 21/264/178 191/221/178 192/223/178
f 11/254/179 10/249/179 173/185/179 178/194/179
f 38/257/180 37/256/180 181/201/180 190/218/180
f 1/244/181 16/255/181 193/225/181 168/174/181
f 18/266/182 17/255/182 179/197/182 194/227/182
f 8/267/183 7/258/183 183/205/183 195/229/183
f 25/268/184 24/259/184 184/207/184 196/231/184
f 30/260/185 23/239/185 163/165/185 185/208/185
f 15/269/186 14/263/186 188/215/186 197/233/186
f 35/243/187 34/262/187 187/213/187 198/235/187
f 5/238/188 3/245/188 189/217/188 162/162/188
f 22/240/189 32/265/189 192/223/189 164/166/189
f 12/242/190 31/253/190 177/193/190 166/170/190
f 2/244/191 35/243/191 198/235/191 180/198/191
f 19/248/192 18/266/192 194/227/192 172/182/192
f 26/252/193 25/268/193 196/231/193 176/190/193
f 9/261/194 8/267/194 195/229/194 186/211/194
f 36/257/195 4/245/195 169/177/195 182/202/195
f 16/255/196 15/269/196 197/233/196 193/225/196
