v -0.046615 -0.036349 0.005546
v -0.046615 -0.012118 0.002280
v 0.085000 0.110000 0.004964
v -0.084632 0.110000 0.001779
v 0.085000 -0.109418 0.000000
v -0.084632 -0.109418 0.000533
v 0.085000 -0.084953 0.000000
v 0.085000 -0.060749 0.001112
v 0.085000 -0.036667 0.000791
v 0.085000 -0.012222 0.002388
v 0.085000 0.012222 0.001600
v 0.085000 0.036667 0.002696
v 0.085000 0.061111 0.001802
v 0.085000 0.085556 0.000144
v 0.066111 0.110000 0.001458
v 0.047222 0.110000 0.002744
v 0.028333 0.110000 0.002966
v 0.009783 0.110000 0.000274
v -0.008964 0.110000 0.001102
v -0.027742 0.110000 0.002848
v -0.046615 0.110000 0.003368
v -0.065626 0.110000 0.002225
v -0.084632 0.085556 0.003469
v -0.084632 0.061111 0.004204
v -0.084632 0.036667 0.004419
v -0.084632 -0.011938 0.001795
v -0.084632 -0.035879 0.003615
v -0.084632 -0.060749 0.001579
v -0.084632 -0.084953 0.001434
v -0.065626 -0.109418 0.000168
v -0.046615 -0.109418 0.001515
v -0.027742 -0.109418 0.000047
v -0.008964 -0.109418 0.000393
v 0.009783 -0.109418 0.000354
v 0.029124 -0.109418 0.000691
v 0.047628 -0.109418 0.000474
v 0.066216 -0.109418 0.000000
v 0.066111 0.085556 0.002213
v 0.066111 0.061111 0.002431
v 0.066111 0.036667 0.001615
v 0.066111 0.012222 0.000842
v 0.066111 -0.012222 0.004430
v 0.066111 -0.036667 0.002634
v 0.066139 -0.060749 0.000781
v 0.066192 -0.084953 0.000229
v 0.047222 0.085556 0.001437
v 0.047222 0.061111 0.000470
v 0.047222 0.036667 0.001197
v 0.047222 0.012222 0.004192
v 0.047222 -0.012222 0.002673
v 0.047280 -0.036667 0.003584
v 0.047428 -0.060749 0.000578
v 0.047574 -0.084953 0.000150
v 0.028333 0.085556 0.003304
v 0.028333 0.061111 0.001640
v 0.028333 0.036667 0.005850
v 0.028333 0.012222 0.007625
v 0.028367 -0.012222 0.000217
v 0.028567 -0.036667 0.001073
v 0.028848 -0.060749 0.002957
v 0.029067 -0.084953 0.002937
v 0.009783 0.085556 0.002384
v 0.009783 0.061111 0.006323
v 0.009783 0.036667 0.003395
v 0.009783 0.012222 0.007703
v 0.009783 -0.012222 0.008511
v 0.009783 -0.036672 0.006641
v 0.009783 -0.060749 0.001563
v 0.009783 -0.084953 0.003152
v -0.008964 0.085556 0.002875
v -0.008964 0.061111 0.004938
v -0.008964 0.036667 0.005654
v -0.008964 0.012222 0.000257
v -0.008964 -0.012219 0.001484
v -0.008964 -0.036646 0.000317
v -0.008964 -0.060749 0.002562
v -0.008964 -0.084953 0.002786
v -0.027742 0.085556 0.003100
v -0.027742 0.061111 0.006467
v -0.027742 0.036667 0.010270
v -0.027742 0.012222 0.013016
v -0.027742 -0.012189 0.001149
v -0.027742 -0.036543 0.003905
v -0.027742 -0.060749 0.000255
v -0.027742 -0.084953 0.004331
v -0.046615 0.085556 0.003814
v -0.046615 0.061111 0.006680
v -0.046615 0.036667 0.002310
v -0.046615 0.012228 0.007875
v -0.046615 -0.012118 0.002280
v -0.046615 -0.036349 0.005546
v -0.046615 -0.060749 0.000846
v -0.046615 -0.084953 0.001042
v -0.065626 0.085556 0.004680
v -0.065626 0.061111 0.001149
v -0.065626 0.036667 0.007441
v -0.065626 0.012243 0.002914
v -0.065626 -0.012022 0.001141
v -0.065626 -0.036100 0.000997
v -0.065626 -0.060749 0.001426
v -0.065626 -0.084953 0.002122
v -0.046615 0.012228 0.007875
v -0.046615 0.036667 0.002310
v -0.046615 0.061111 0.006680
v -0.046615 0.085556 0.003814
v -0.027742 -0.084953 0.004331
v -0.027742 -0.060749 0.000255
v -0.027742 -0.036543 0.003905
v -0.027742 -0.012189 0.001149
v -0.027742 0.012222 0.013016
v -0.027742 0.036667 0.010270
v -0.027742 0.061111 0.006467
v -0.027742 0.085556 0.003100
v -0.008964 -0.084953 0.002786
v -0.008964 -0.060749 0.002562
v -0.008964 -0.036646 0.000317
v -0.008964 -0.012219 0.001484
v -0.008964 0.012222 0.000257
v -0.008964 0.036667 0.005654
v -0.008964 0.061111 0.004938
v -0.008964 0.085556 0.002875
v 0.009783 -0.084953 0.003152
v 0.009783 -0.060749 0.001563
v 0.009783 -0.036672 0.006641
v 0.009783 -0.012222 0.008511
v 0.009783 0.012222 0.007703
v 0.009783 0.036667 0.003395
v 0.009783 0.061111 0.006323
v 0.009783 0.085556 0.002384
v 0.029067 -0.084953 0.002937
v 0.028848 -0.060749 0.002957
v 0.028567 -0.036667 0.001073
v 0.028367 -0.012222 0.000217
v 0.028333 0.012222 0.007625
v 0.028333 0.036667 0.005850
v 0.028333 0.061111 0.001640
v 0.028333 0.085556 0.003304
v 0.047574 -0.084953 0.000150
v 0.047428 -0.060749 0.000578
v 0.047280 -0.036667 0.003584
v 0.047222 -0.012222 0.002673
v 0.047222 0.012222 0.004192
v 0.047222 0.036667 0.001197
v 0.047222 0.061111 0.000470
v 0.047222 0.085556 0.001437
v 0.066192 -0.084953 0.000229
v 0.066139 -0.060749 0.000781
v 0.066111 -0.036667 0.002634
v 0.066111 -0.012222 0.004430
v 0.066111 0.012222 0.000842
v 0.066111 0.036667 0.001615
v 0.066111 0.061111 0.002431
v 0.066111 0.085556 0.002213
v 0.066216 -0.109418 0.000000
v 0.047628 -0.109418 0.000474
v 0.029124 -0.109418 0.000691
v 0.009783 -0.109418 0.000354
v -0.008964 -0.109418 0.000393
v -0.027742 -0.109418 0.000047
v -0.046615 -0.109418 0.001515
v -0.065626 -0.109418 0.000168
v -0.084632 -0.084953 0.001434
v -0.084632 -0.060749 0.001579
v -0.084632 -0.035879 0.003615
v -0.084632 -0.011938 0.001795
v -0.084632 0.036667 0.004419
v -0.084632 0.061111 0.004204
v -0.084632 0.085556 0.003469
v -0.065626 0.110000 0.002225
v -0.046615 0.110000 0.003368
v -0.027742 0.110000 0.002848
v -0.008964 0.110000 0.001102
v 0.009783 0.110000 0.000274
v 0.028333 0.110000 0.002966
v 0.047222 0.110000 0.002744
v 0.066111 0.110000 0.001458
v 0.085000 0.085556 0.000144
v 0.085000 0.061111 0.001802
v 0.085000 0.036667 0.002696
v 0.085000 0.012222 0.001600
v 0.085000 -0.012222 0.002388
v 0.085000 -0.036667 0.000791
v 0.085000 -0.060749 0.001112
v 0.085000 -0.084953 0.000000
v -0.084632 -0.109418 0.000533
v 0.085000 -0.109418 0.000000
v -0.084632 0.110000 0.001779
v 0.085000 0.110000 0.004964
v -0.046615 -0.060749 0.000846
v -0.046615 -0.084953 0.001042
v -0.065626 0.085556 0.004680
v -0.065626 0.061111 0.001149
v -0.065626 0.036667 0.007441
v -0.065626 0.012243 0.002914
v -0.065626 -0.012022 0.001141
v -0.065626 -0.036100 0.000997
v -0.065626 -0.060749 0.001426
v -0.065626 -0.084953 0.002122
vt 0.219473 0.549596
vt 0.192296 0.549596
vt 0.219473 0.584766
vt 0.137942 0.619936
vt 0.110766 0.655106
vt 0.137942 0.655106
vt 0.110766 0.619936
vt 0.083589 0.619936
vt 0.580667 0.998694
vt 0.553490 0.998694
vt 0.580667 0.963524
vt 0.607844 0.717334
vt 0.635021 0.682164
vt 0.635021 0.717334
vt 0.607844 0.893184
vt 0.635021 0.928354
vt 0.607844 0.928354
vt 0.553490 0.717334
vt 0.526313 0.717334
vt 0.553490 0.682164
vt 0.716551 0.963524
vt 0.743728 0.963524
vt 0.716551 0.998694
vt 0.743728 0.928354
vt 0.526313 0.858014
vt 0.499136 0.893184
vt 0.499136 0.822844
vt 0.716551 0.893184
vt 0.743728 0.893184
vt 0.743728 0.858014
vt 0.689374 0.717334
vt 0.716551 0.717334
vt 0.716551 0.752504
vt 0.743728 0.752504
vt 0.743728 0.787674
vt 0.110766 0.408916
vt 0.083589 0.373746
vt 0.083589 0.408916
vt 0.743728 0.717334
vt 0.689374 0.963524
vt 0.716551 0.928354
vt 0.246650 0.619936
vt 0.219473 0.619936
vt 0.246650 0.655106
vt 0.029235 0.444086
vt 0.029235 0.479256
vt 0.056412 0.444086
vt 0.689374 0.858014
vt 0.716551 0.822844
vt 0.716551 0.858014
vt 0.056412 0.408916
vt 0.056412 0.655106
vt 0.056412 0.619936
vt 0.029235 0.619936
vt 0.662197 0.928354
vt 0.689374 0.893184
vt 0.689374 0.928354
vt 0.165119 0.655106
vt 0.165119 0.690276
vt 0.192296 0.655106
vt 0.662197 0.893184
vt 0.553490 0.893184
vt 0.553490 0.858014
vt 0.580667 0.893184
vt 0.662197 0.822844
vt 0.689374 0.822844
vt 0.662197 0.998694
vt 0.635021 0.963524
vt 0.662197 0.963524
vt 0.689374 0.752504
vt 0.716551 0.787674
vt 0.635021 0.858014
vt 0.635021 0.822844
vt 0.662197 0.858014
vt 0.165119 0.514426
vt 0.137942 0.514426
vt 0.165119 0.549596
vt 0.580667 0.787674
vt 0.580667 0.752504
vt 0.607844 0.787674
vt 0.635021 0.787674
vt 0.662197 0.787674
vt 0.635021 0.998694
vt 0.607844 0.998694
vt 0.635021 0.893184
vt 0.499136 0.717334
vt 0.499136 0.682164
vt 0.526313 0.682164
vt 0.635021 0.752504
vt 0.580667 0.928354
vt 0.607844 0.822844
vt 0.716551 0.682164
vt 0.743728 0.682164
vt 0.689374 0.998694
vt 0.580667 0.822844
vt 0.029235 0.584766
vt 0.056412 0.584766
vt 0.029235 0.549596
vt 0.580667 0.858014
vt 0.553490 0.822844
vt 0.526313 0.963524
vt 0.553490 0.928354
vt 0.553490 0.963524
vt 0.110766 0.690276
vt 0.083589 0.655106
vt 0.083589 0.690276
vt 0.029235 0.373746
vt 0.002058 0.373746
vt 0.002058 0.408916
vt 0.246650 0.444086
vt 0.246650 0.408916
vt 0.219473 0.408916
vt 0.499136 0.928354
vt 0.526313 0.928354
vt 0.526313 0.893184
vt 0.526313 0.787674
vt 0.526313 0.822844
vt 0.499136 0.787674
vt 0.499136 0.752504
vt 0.526313 0.752504
vt 0.192296 0.514426
vt 0.219473 0.514426
vt 0.219473 0.479256
vt 0.219473 0.444086
vt 0.192296 0.444086
vt 0.192296 0.408916
vt 0.689374 0.787674
vt 0.002058 0.444086
vt 0.165119 0.584766
vt 0.110766 0.444086
vt 0.137942 0.444086
vt 0.165119 0.444086
vt 0.137942 0.479256
vt 0.137942 0.373746
vt 0.137942 0.408916
vt 0.165119 0.373746
vt 0.137942 0.584766
vt 0.110766 0.584766
vt 0.110766 0.479256
vt 0.110766 0.514426
vt 0.110766 0.373746
vt 0.083589 0.584766
vt 0.083589 0.444086
vt 0.056412 0.479256
vt 0.056412 0.514426
vt 0.083589 0.479256
vt 0.246650 0.584766
vt 0.029235 0.514426
vt 0.192296 0.690276
vt 0.029235 0.408916
vt 0.056412 0.373746
vt 0.662197 0.682164
vt 0.689374 0.682164
vt 0.002058 0.584766
vt 0.580667 0.717334
vt 0.002058 0.549596
vt 0.002058 0.514426
vt 0.002058 0.479256
vt 0.192296 0.584766
vt 0.192296 0.619936
vt 0.219473 0.655106
vt 0.165119 0.619936
vt 0.580667 0.682164
vt 0.137942 0.549596
vt 0.219473 0.690276
vt 0.110766 0.549596
vt 0.083589 0.549596
vt 0.219473 0.373746
vt 0.246650 0.373746
vt 0.246650 0.479256
vt 0.607844 0.682164
vt 0.662197 0.717334
vt 0.165119 0.479256
vt 0.607844 0.752504
vt 0.553490 0.787674
vt 0.743728 0.822844
vt 0.607844 0.858014
vt 0.192296 0.373746
vt 0.056412 0.549596
vt 0.499136 0.963524
vt 0.526313 0.998694
vt 0.662197 0.752504
vt 0.607844 0.963524
vt 0.165119 0.408916
vt 0.553490 0.752504
vt 0.056412 0.690276
vt 0.499136 0.998694
vt 0.192296 0.479256
vt 0.083589 0.514426
vt 0.137942 0.690276
vt 0.246650 0.549596
vt 0.029235 0.655106
vt 0.002058 0.655106
vt 0.029235 0.690276
vt 0.002058 0.619936
vt 0.246650 0.690276
vt 0.743728 0.998694
vt 0.002058 0.690276
vn 0.001800 0.027700 -0.999600
vn 0.037300 0.047300 -0.998200
vn 0.016300 0.018600 -0.999700
vn 0.020400 -0.082000 -0.996400
vn 0.005500 0.041800 -0.999100
vn -0.023100 0.057700 -0.998000
vn 0.012100 -0.013500 -0.999800
vn -0.008800 -0.018600 -0.999800
vn 0.043300 0.028400 0.998700
vn 0.008100 0.039700 0.999200
vn 0.030900 0.066900 0.997300
vn 0.023100 -0.057700 0.998000
vn -0.006000 -0.102500 0.994700
vn -0.005500 -0.041800 0.999100
vn 0.134200 0.006500 0.990900
vn 0.066600 0.083000 0.994300
vn 0.006900 0.075600 0.997100
vn -0.013100 0.011600 0.999800
vn -0.003100 -0.011100 0.999900
vn 0.030200 -0.009400 0.999500
vn 0.026000 0.028400 0.999200
vn 0.048000 0.001800 0.998800
vn -0.019300 -0.059400 0.998000
vn 0.030300 0.014700 0.999400
vn -0.062400 -0.070100 0.995600
vn -0.122100 -0.060200 0.990700
vn 0.029200 0.005300 0.999500
vn -0.036900 -0.015100 0.999200
vn -0.057100 -0.004100 0.998400
vn -0.043600 -0.002400 0.999000
vn 0.057500 -0.018000 0.998200
vn 0.003900 -0.016100 0.999800
vn -0.001300 -0.036000 0.999300
vn -0.011300 -0.009600 0.999900
vn 0.072800 -0.051700 0.996000
vn -0.001000 -0.065900 -0.997800
vn 0.046600 -0.034900 -0.998300
vn -0.015300 0.036700 -0.999200
vn 0.009600 -0.025700 0.999600
vn 0.029700 -0.031300 0.999100
vn -0.028500 -0.019200 0.999400
vn -0.034900 0.015000 -0.999300
vn -0.017300 -0.015100 -0.999700
vn 0.015200 0.023800 -0.999600
vn 0.028500 0.019200 -0.999400
vn 0.036900 0.015100 -0.999200
vn 0.012200 0.014000 -0.999800
vn 0.123900 0.017300 0.992100
vn 0.050200 0.021800 0.998500
vn 0.061600 0.062100 0.996200
vn -0.029700 0.031300 -0.999100
vn -0.057500 0.018000 -0.998200
vn -0.066700 0.060800 -0.995900
vn 0.001300 0.036000 -0.999300
vn 0.145100 0.066100 0.987200
vn 0.110400 0.072800 0.991200
vn -0.012200 -0.014000 0.999800
vn 0.065900 0.026100 -0.997500
vn 0.002000 0.095100 -0.995500
vn 0.013100 -0.011600 -0.999800
vn 0.100300 0.099800 0.989900
vn -0.118600 -0.037500 0.992200
vn -0.240500 -0.054800 0.969100
vn -0.023200 0.102600 0.994400
vn 0.155900 -0.104400 0.982200
vn -0.111400 -0.012900 0.993700
vn -0.046600 0.034900 0.998300
vn 0.001000 0.065900 0.997800
vn 0.015300 -0.036700 0.999200
vn 0.066700 -0.060800 0.995900
vn 0.068200 -0.080400 0.994400
vn -0.147100 0.035400 0.988500
vn -0.013200 -0.069800 0.997500
vn 0.135100 -0.060000 0.989000
vn -0.112800 0.196700 -0.973900
vn -0.038600 0.152500 -0.987500
vn -0.058700 0.062600 -0.996300
vn 0.106600 -0.044100 0.993300
vn -0.033800 0.020200 0.999200
vn -0.061000 -0.055600 0.996600
vn -0.007000 -0.119800 0.992800
vn 0.039700 0.015700 0.999100
vn -0.049500 0.085900 0.995100
vn 0.064400 0.076200 0.995000
vn -0.005700 0.027300 0.999600
vn -0.015200 -0.023800 0.999600
vn 0.019100 -0.036800 0.999100
vn -0.037200 -0.067100 0.997000
vn -0.012100 0.013500 0.999800
vn 0.065600 0.123900 0.990100
vn -0.165200 0.018600 0.986100
vn 0.015300 -0.006600 0.999800
vn 0.000000 0.000000 1.000000
vn 0.058000 -0.033800 0.997700
vn 0.058700 -0.062600 0.996300
vn -0.068200 0.080400 -0.994400
vn 0.029400 0.030300 -0.999100
vn -0.050200 -0.021800 -0.998500
vn 0.112800 -0.196700 0.973900
vn -0.037300 -0.047300 0.998200
vn -0.031900 0.029200 0.999100
vn -0.088800 0.043200 0.995100
vn 0.038800 0.070300 0.996800
vn 0.006000 0.102500 -0.994700
vn -0.074800 0.051200 -0.995900
vn -0.025800 0.060600 -0.997800
vn 0.019300 0.059400 -0.998000
vn 0.179100 0.190300 -0.965200
vn -0.048000 -0.001800 -0.998800
vn -0.045800 -0.040900 -0.998100
vn 0.055000 -0.058500 -0.996800
vn 0.031900 -0.029200 -0.999100
vn 0.045800 0.040900 0.998100
vn -0.060100 0.052700 0.996800
vn 0.027300 -0.060900 0.997800
vn -0.016300 -0.018600 0.999700
vn -0.001800 -0.027700 0.999600
vn 0.114200 -0.025600 0.993100
vn 0.034900 -0.015000 0.999300
vn 0.017300 0.015100 0.999700
vn 0.240500 0.054800 -0.969100
vn 0.062400 0.070100 -0.995600
vn -0.027300 0.060900 -0.997800
vn 0.060100 -0.052700 -0.996800
vn 0.088800 -0.043200 -0.995100
vn -0.038800 -0.070300 -0.996800
vn -0.029400 -0.030300 0.999100
vn -0.030300 -0.014700 -0.999400
vn -0.106600 0.044100 -0.993300
vn -0.066600 -0.083000 -0.994300
vn -0.006900 -0.075600 -0.997100
vn -0.065600 -0.123900 -0.990100
vn -0.134200 -0.006500 -0.990900
vn -0.064400 -0.076200 -0.995000
vn -0.027400 -0.069200 -0.997200
vn -0.043300 -0.028400 -0.998700
vn 0.061000 0.055600 -0.996600
vn 0.007000 0.119800 -0.992800
vn 0.005700 -0.027300 -0.999600
vn 0.147100 -0.035400 -0.988500
vn 0.049500 -0.085900 -0.995100
vn -0.039700 -0.015700 -0.999100
vn -0.145100 -0.066100 -0.987200
vn -0.110400 -0.072800 -0.991200
vn -0.123900 -0.017300 -0.992100
vn -0.100300 -0.099800 -0.989900
vn -0.114200 0.025600 -0.993100
vn -0.061600 -0.062100 -0.996200
vn -0.030200 0.009400 -0.999500
vn -0.026000 -0.028400 -0.999200
vn -0.058000 0.033800 -0.997700
vn 0.025800 -0.060600 0.997800
vn 0.012500 0.006600 0.999900
vn -0.072800 0.051700 -0.996000
vn -0.065900 -0.026100 0.997500
vn -0.074600 -0.014300 -0.997100
vn 0.043600 0.002400 -0.999000
vn 0.057100 0.004100 -0.998400
vn 0.073100 0.027700 -0.996900
vn -0.008200 0.055000 -0.998400
vn 0.003100 0.011100 -0.999900
vn 0.033800 -0.020200 -0.999200
vn -0.002000 -0.095100 0.995500
vn 0.165200 -0.018600 -0.986100
vn 0.037200 0.067100 -0.997000
vn 0.013200 0.069800 -0.997500
vn -0.155900 0.104400 -0.982200
vn 0.049900 -0.090800 -0.994600
vn 0.023300 -0.068900 -0.997300
vn 0.122100 0.060200 -0.990700
vn -0.008100 -0.097300 0.995200
vn 0.074800 -0.051200 0.995900
vn 0.023200 -0.102600 -0.994400
vn -0.020400 0.082000 0.996400
vn -0.073100 -0.027700 0.996900
vn 0.074600 0.014300 0.997100
vn 0.038600 -0.152500 0.987500
vn -0.008100 -0.039700 -0.999200
vn 0.111400 0.012900 -0.993700
vn -0.055000 0.058500 0.996800
vn -0.049900 0.090800 0.994600
vn 0.008800 0.018600 0.999800
vn 0.027400 0.069200 0.997200
vn -0.030900 -0.066900 -0.997300
vn 0.008200 -0.055000 0.998400
vn -0.012500 -0.006600 -0.999900
vn -0.023300 0.068900 0.997300
vn 0.118600 0.037500 -0.992200
vn -0.135100 0.060000 -0.989000
vn 0.008100 0.097300 -0.995200
vn -0.029200 -0.005300 -0.999500
vn -0.003900 0.016100 -0.999800
vn -0.009600 0.025700 -0.999600
vn -0.015300 0.006600 -0.999800
vn 0.011300 0.009600 -0.999900
vn -0.019100 0.036800 -0.999100
vn -0.179100 -0.190300 0.965200
vn 0.000000 0.000000 -1.000000
s 1
f 195/1/1 2/2/2 196/3/3
f 115/4/4 122/5/5 114/6/6
f 123/7/7 131/8/8 122/5/5
f 20/9/9 21/10/10 78/11/11
f 77/12/12 34/13/13 69/14/14
f 72/15/15 63/16/16 71/17/17
f 93/18/18 101/19/19 31/20/20
f 38/21/21 14/22/22 15/23/23
f 38/21/21 13/24/24 14/22/22
f 97/25/25 25/26/26 26/27/27
f 40/28/28 12/29/29 13/24/24
f 11/30/30 12/29/29 40/28/28
f 53/31/31 45/32/32 44/33/33
f 44/33/33 8/34/34 9/35/35
f 129/36/36 174/37/37 137/38/38
f 45/32/32 7/39/39 8/34/34
f 46/40/40 38/21/21 15/23/23
f 46/40/40 39/41/41 38/21/21
f 163/42/42 197/43/43 162/44/44
f 152/45/45 151/46/46 144/47/47
f 49/48/48 42/49/49 41/50/50
f 145/51/51 152/45/45 144/47/47
f 138/52/52 139/53/53 147/54/54
f 55/55/55 48/56/56 47/57/57
f 106/58/58 159/59/59 190/60/60
f 56/61/61 49/48/48 48/56/56
f 88/62/62 89/63/63 80/64/64
f 58/65/65 50/66/66 49/48/48
f 17/67/67 62/68/68 54/69/69
f 52/70/70 44/33/33 43/71/71
f 55/55/55 54/69/69 62/68/68
f 65/72/72 66/73/73 57/74/74
f 65/72/72 57/74/74 56/61/61
f 110/75/75 118/76/76 109/77/77
f 83/78/78 84/79/79 75/80/80
f 67/81/81 59/82/82 58/65/65
f 18/83/83 19/84/84 62/68/68
f 44/33/33 45/32/32 8/34/34
f 72/15/15 65/72/72 64/85/85
f 40/28/28 39/41/41 47/57/57
f 29/86/86 6/87/87 30/88/88
f 67/81/81 75/80/80 68/89/89
f 79/90/90 72/15/15 71/17/17
f 58/65/65 57/74/74 66/73/73
f 83/78/78 75/80/80 74/91/91
f 37/92/92 5/93/93 7/39/39
f 46/40/40 16/94/94 54/69/69
f 83/78/78 74/91/91 82/95/95
f 148/96/96 140/97/97 149/98/98
f 89/63/63 81/99/99 80/64/64
f 90/100/100 83/78/78 82/95/95
f 66/73/73 67/81/81 58/65/65
f 94/101/101 87/102/102 86/103/103
f 157/104/104 130/105/105 156/106/106
f 88/62/62 97/25/25 89/63/63
f 176/107/107 188/108/108 177/109/109
f 62/68/68 63/16/16 55/55/55
f 167/110/110 168/111/111 191/112/112
f 24/113/113 95/114/114 94/101/101
f 25/26/26 97/25/25 96/115/115
f 99/116/116 98/117/117 27/118/118
f 99/116/116 28/119/119 100/120/120
f 29/86/86 101/19/19 100/120/120
f 102/121/121 2/2/2 194/122/122
f 96/115/115 97/25/25 88/62/62
f 193/123/123 192/124/124 104/125/125
f 191/112/112 105/126/126 104/125/125
f 51/127/127 43/71/71 42/49/49
f 152/45/45 178/128/128 151/46/46
f 2/2/2 109/77/77 108/129/129
f 97/25/25 90/100/100 89/63/63
f 129/36/36 128/130/130 120/131/131
f 112/132/132 120/131/131 119/133/133
f 172/134/134 121/135/135 171/136/136
f 116/137/137 124/138/138 123/7/7
f 127/139/139 126/140/140 119/133/133
f 172/134/134 173/141/141 129/36/36
f 124/138/138 132/142/142 123/7/7
f 122/5/5 157/104/104 114/6/6
f 137/38/38 136/143/143 129/36/36
f 143/144/144 142/145/145 135/146/146
f 144/47/47 143/144/144 136/143/143
f 54/69/69 16/94/94 17/67/67
f 195/1/1 196/3/3 164/147/147
f 142/145/145 150/148/148 149/98/98
f 190/60/60 159/59/59 160/149/149
f 48/56/56 55/55/55 56/61/61
f 39/41/41 46/40/40 47/57/57
f 145/51/51 153/150/150 152/45/45
f 176/107/107 145/51/51 175/151/151
f 35/152/152 36/153/153 53/31/31
f 148/96/96 182/154/154 147/54/54
f 84/79/79 93/18/18 85/155/155
f 149/98/98 181/156/156 148/96/96
f 180/157/157 151/46/46 179/158/158
f 153/150/150 177/109/109 178/128/128
f 196/3/3 2/2/2 1/159/159
f 176/107/107 177/109/109 153/150/150
f 197/43/43 189/160/160 190/60/60
f 198/161/161 190/60/60 160/149/149
f 107/162/162 115/4/4 106/58/58
f 106/58/58 114/6/6 159/59/59
f 32/163/163 85/155/155 93/18/18
f 85/155/155 32/163/163 77/12/12
f 156/106/106 130/105/105 138/52/52
f 118/76/76 126/140/140 117/164/164
f 162/44/44 198/161/161 161/165/165
f 124/138/138 125/166/166 133/167/167
f 80/64/64 87/102/102 88/62/62
f 169/168/168 168/111/111 187/169/169
f 32/163/163 93/18/18 31/20/20
f 166/170/170 193/123/123 194/122/122
f 45/32/32 37/92/92 7/39/39
f 53/31/31 36/153/153 45/32/32
f 32/163/163 33/171/171 77/12/12
f 34/13/13 61/172/172 69/14/14
f 77/12/12 33/171/171 34/13/13
f 104/125/125 112/132/132 111/173/173
f 36/153/153 37/92/92 45/32/32
f 69/14/14 76/174/174 77/12/12
f 40/28/28 13/24/24 39/41/41
f 136/143/143 145/51/51 144/47/47
f 72/15/15 79/90/90 80/64/64
f 110/75/75 111/173/173 119/133/133
f 83/78/78 90/100/100 91/175/175
f 43/71/71 10/176/176 42/49/49
f 72/15/15 73/177/177 65/72/72
f 44/33/33 9/35/35 43/71/71
f 173/141/141 174/37/37 129/36/36
f 119/133/133 118/76/76 110/75/75
f 46/40/40 15/23/23 16/94/94
f 78/11/11 21/10/10 86/103/103
f 50/66/66 42/49/49 49/48/48
f 51/127/127 42/49/49 50/66/66
f 17/67/67 18/83/83 62/68/68
f 52/70/70 53/31/31 44/33/33
f 55/55/55 46/40/40 54/69/69
f 170/178/178 191/112/112 169/168/168
f 197/43/43 190/60/60 198/161/161
f 57/74/74 58/65/65 49/48/48
f 141/179/179 140/97/97 132/142/142
f 63/16/16 62/68/68 71/17/17
f 23/180/180 94/101/101 22/181/181
f 65/72/72 56/61/61 64/85/85
f 75/80/80 67/81/81 74/91/91
f 140/97/97 139/53/53 131/8/8
f 2/2/2 108/129/129 1/159/159
f 68/89/89 69/14/14 60/182/182
f 64/85/85 56/61/61 63/16/16
f 70/183/183 62/68/68 19/84/84
f 171/136/136 121/135/135 113/184/184
f 98/117/117 99/116/116 90/100/100
f 93/18/18 84/79/79 92/185/185
f 71/17/17 78/11/11 79/90/90
f 90/100/100 82/95/95 89/63/63
f 108/129/129 117/164/164 116/137/137
f 94/101/101 95/114/114 87/102/102
f 95/114/114 96/115/115 87/102/102
f 192/124/124 193/123/123 167/110/110
f 133/167/167 141/179/179 132/142/142
f 1/159/159 189/160/160 196/3/3
f 90/100/100 97/25/25 98/117/117
f 156/106/106 138/52/52 155/186/186
f 23/180/180 22/181/181 4/187/187
f 55/55/55 63/16/16 56/61/61
f 21/10/10 94/101/101 86/103/103
f 194/122/122 2/2/2 195/1/1
f 115/4/4 116/137/137 123/7/7
f 121/135/135 129/36/36 120/131/131
f 194/122/122 103/188/188 102/121/121
f 192/124/124 191/112/112 104/125/125
f 133/167/167 134/189/189 142/145/145
f 84/79/79 76/174/174 75/80/80
f 166/170/170 167/110/110 193/123/123
f 102/121/121 111/173/173 110/75/75
f 39/41/41 13/24/24 38/21/21
f 164/147/147 196/3/3 163/42/42
f 174/37/37 175/151/151 137/38/38
f 106/58/58 115/4/4 114/6/6
f 113/184/184 120/131/131 112/132/132
f 159/59/59 114/6/6 158/190/190
f 128/130/130 127/139/139 119/133/133
f 172/134/134 129/36/36 121/135/135
f 29/86/86 30/88/88 101/19/19
f 190/60/60 107/162/162 106/58/58
f 123/7/7 132/142/142 131/8/8
f 124/138/138 133/167/167 132/142/142
f 125/166/166 134/189/189 133/167/167
f 126/140/140 135/146/146 134/189/189
f 164/147/147 165/191/191 195/1/1
f 2/2/2 102/121/121 109/77/77
f 130/105/105 139/53/53 138/52/52
f 30/88/88 31/20/20 101/19/19
f 120/131/131 128/130/130 119/133/133
f 109/77/77 117/164/164 108/129/129
f 104/125/125 103/188/188 193/123/123
f 146/192/192 138/52/52 147/54/54
f 146/192/192 184/193/193 154/194/194
f 103/188/188 194/122/122 193/123/123
f 143/144/144 150/148/148 142/145/145
f 150/148/148 181/156/156 149/98/98
f 77/12/12 76/174/174 85/155/155
f 176/107/107 153/150/150 145/51/51
f 66/73/73 65/72/72 74/91/91
f 146/192/192 183/195/195 184/193/193
f 183/195/195 147/54/54 182/154/154
f 41/50/50 42/49/49 10/176/176
f 151/46/46 180/157/157 150/148/148
f 151/46/46 178/128/128 179/158/158
f 125/166/166 117/164/164 126/140/140
f 114/6/6 157/104/104 158/190/190
f 191/112/112 168/111/111 169/168/168
f 191/112/112 192/124/124 167/110/110
f 68/89/89 60/182/182 59/82/82
f 194/122/122 195/1/1 165/191/191
f 163/42/42 196/3/3 197/43/43
f 197/43/43 198/161/161 162/44/44
f 103/188/188 104/125/125 111/173/173
f 10/176/176 11/30/30 41/50/50
f 81/99/99 82/95/95 73/177/177
f 41/50/50 11/30/30 40/28/28
f 60/182/182 52/70/70 51/127/127
f 73/177/177 74/91/91 65/72/72
f 69/14/14 61/172/172 60/182/182
f 49/48/48 41/50/50 48/56/56
f 135/146/146 128/130/130 136/143/143
f 51/127/127 52/70/70 43/71/71
f 29/86/86 100/120/120 28/119/119
f 125/166/166 124/138/138 117/164/164
f 19/84/84 20/9/9 70/183/183
f 113/184/184 121/135/135 120/131/131
f 146/192/192 154/194/194 155/186/186
f 89/63/63 82/95/95 81/99/99
f 87/102/102 80/64/64 79/90/90
f 102/121/121 103/188/188 111/173/173
f 81/99/99 73/177/177 72/15/15
f 131/8/8 132/142/142 140/97/97
f 96/115/115 95/114/114 24/113/113
f 51/127/127 50/66/66 59/82/82
f 92/185/185 99/116/116 100/120/120
f 122/5/5 130/105/105 157/104/104
f 108/129/129 116/137/137 107/162/162
f 23/180/180 24/113/113 94/101/101
f 115/4/4 123/7/7 122/5/5
f 83/78/78 92/185/185 84/79/79
f 102/121/121 110/75/75 109/77/77
f 162/44/44 161/165/165 185/196/196
f 126/140/140 134/189/189 125/166/166
f 127/139/139 135/146/146 126/140/140
f 43/71/71 9/35/35 10/176/176
f 131/8/8 139/53/53 130/105/105
f 92/185/185 91/175/175 99/116/116
f 137/38/38 145/51/51 136/143/143
f 197/43/43 196/3/3 189/160/160
f 141/179/179 149/98/98 140/97/97
f 143/144/144 135/146/146 136/143/143
f 94/101/101 21/10/10 22/181/181
f 147/54/54 183/195/195 146/192/192
f 41/50/50 40/28/28 48/56/56
f 138/52/52 146/192/192 155/186/186
f 191/112/112 170/178/178 105/126/126
f 26/27/27 27/118/118 98/117/117
f 170/178/178 171/136/136 113/184/184
f 128/130/130 135/146/146 127/139/139
f 70/183/183 78/11/11 71/17/17
f 116/137/137 115/4/4 107/162/162
f 3/197/197 15/23/23 14/22/22
f 189/160/160 107/162/162 190/60/60
f 143/144/144 144/47/47 151/46/46
f 140/97/97 148/96/96 139/53/53
f 56/61/61 57/74/74 49/48/48
f 189/160/160 1/159/159 108/129/129
f 105/126/126 112/132/132 104/125/125
f 61/172/172 52/70/70 60/182/182
f 105/126/126 113/184/184 112/132/132
f 150/148/148 180/157/157 181/156/156
f 67/81/81 68/89/89 59/82/82
f 75/80/80 76/174/174 68/89/89
f 78/11/11 70/183/183 20/9/9
f 80/64/64 81/99/99 72/15/15
f 139/53/53 148/96/96 147/54/54
f 59/82/82 60/182/182 51/127/127
f 99/116/116 91/175/175 90/100/100
f 100/120/120 93/18/18 92/185/185
f 112/132/132 119/133/133 111/173/173
f 87/102/102 96/115/115 88/62/62
f 93/18/18 100/120/120 101/19/19
f 198/161/161 160/149/149 161/165/165
f 194/122/122 165/191/191 166/170/170
f 27/118/118 28/119/119 99/116/116
f 40/28/28 47/57/57 48/56/56
f 24/113/113 25/26/26 96/115/115
f 170/178/178 113/184/184 105/126/126
f 84/79/79 85/155/155 76/174/174
f 61/172/172 35/152/152 53/31/31
f 151/46/46 150/148/148 143/144/144
f 153/150/150 178/128/128 152/45/45
f 109/77/77 118/76/76 117/164/164
f 50/66/66 58/65/65 59/82/82
f 55/55/55 47/57/57 46/40/40
f 119/133/133 126/140/140 118/76/76
f 79/90/90 78/11/11 86/103/103
f 122/5/5 131/8/8 130/105/105
f 91/175/175 92/185/185 83/78/78
f 128/130/130 129/36/36 136/143/143
f 61/172/172 53/31/31 52/70/70
f 134/189/189 135/146/146 142/145/145
f 148/96/96 181/156/156 182/154/154
f 61/172/172 34/13/13 35/152/152
f 70/183/183 71/17/17 62/68/68
f 142/145/145 149/98/98 141/179/179
f 74/91/91 67/81/81 66/73/73
f 72/15/15 64/85/85 63/16/16
f 87/102/102 79/90/90 86/103/103
f 117/164/164 124/138/138 116/137/137
f 68/89/89 76/174/174 69/14/14
f 82/95/95 74/91/91 73/177/177
f 97/25/25 26/27/27 98/117/117
f 189/160/160 108/129/129 107/162/162
f 186/198/198 154/194/194 184/193/193
f 142/145/145 141/179/179 133/167/167
f 175/151/151 145/51/51 137/38/38
