# Blender v2.76 (sub 0) OBJ File: 'patch.blend'
# www.blender.org
v -0.007091 -0.078980 -0.047197
v -0.009648 -0.068751 -0.047197
v -0.018115 -0.045917 -0.047197
v -0.022694 -0.016093 -0.047197
v -0.022688 0.016181 -0.047197
v -0.018097 0.045991 -0.047197
v -0.009621 0.068800 -0.047197
v -0.006945 0.078996 -0.047197
v 0.007091 0.078980 -0.047197
v 0.009648 0.068751 -0.047197
v 0.018115 0.045917 -0.047197
v 0.022694 0.016093 -0.047197
v 0.022688 -0.016181 -0.047197
v 0.018097 -0.045991 -0.047197
v 0.009621 -0.068800 -0.047197
v 0.006945 -0.078997 -0.047197
v -0.007091 -0.078980 0.044653
v -0.009648 -0.068751 0.044653
v -0.018115 -0.045917 0.044653
v -0.022694 -0.016093 0.044653
v -0.022688 0.016181 0.044653
v -0.018097 0.045991 0.044653
v -0.009621 0.068800 0.044653
v -0.006945 0.078996 0.044653
v 0.007091 0.078980 0.044653
v 0.009648 0.068751 0.044653
v 0.018115 0.045917 0.044653
v 0.022694 0.016093 0.044653
v 0.022688 -0.016181 0.044653
v 0.018097 -0.045991 0.044653
v 0.009621 -0.068800 0.044653
v 0.006945 -0.078997 0.044653
v -0.006945 0.102158 -0.047197
v 0.006945 -0.102158 -0.047197
v -0.006945 0.102158 0.044653
v 0.006945 -0.102158 0.044653
v -0.003619 -0.074538 0.063090
v -0.007091 -0.078980 0.058645
v -0.005395 -0.067435 0.063090
v -0.009648 -0.068751 0.058645
v -0.013790 -0.044796 0.063090
v -0.018115 -0.045917 0.058645
v -0.018249 -0.015755 0.063090
v -0.022694 -0.016093 0.058645
v -0.018242 0.015840 0.063090
v -0.022688 0.016181 0.058645
v -0.013772 0.044867 0.063090
v -0.018097 0.045991 0.058645
v -0.005377 0.067458 0.063090
v -0.009621 0.068800 0.058645
v -0.003517 0.074547 0.063090
v -0.006945 0.078996 0.058645
v 0.003619 0.074538 0.063090
v 0.007091 0.078980 0.058645
v 0.005395 0.067435 0.063090
v 0.009648 0.068751 0.058645
v 0.013790 0.044796 0.063090
v 0.018115 0.045917 0.058645
v 0.018249 0.015755 0.063090
v 0.022694 0.016093 0.058645
v 0.018242 -0.015840 0.063090
v 0.022688 -0.016181 0.058645
v 0.013772 -0.044867 0.063090
v 0.018097 -0.045991 0.058645
v 0.005377 -0.067458 0.063090
v 0.009621 -0.068800 0.058645
v 0.003517 -0.074547 0.063090
v 0.006945 -0.078997 0.058645
v -0.003619 -0.074538 -0.065277
v -0.007091 -0.078980 -0.060831
v -0.009648 -0.068751 -0.060832
v -0.005395 -0.067435 -0.065277
v -0.018115 -0.045917 -0.060832
v -0.013790 -0.044796 -0.065277
v -0.022694 -0.016093 -0.060832
v -0.018249 -0.015755 -0.065277
v -0.022688 0.016181 -0.060832
v -0.018242 0.015840 -0.065277
v -0.018097 0.045991 -0.060832
v -0.013772 0.044867 -0.065277
v -0.009621 0.068800 -0.060832
v -0.005377 0.067458 -0.065277
v -0.006945 0.078996 -0.060831
v -0.003517 0.074547 -0.065277
v 0.007091 0.078980 -0.060831
v 0.003619 0.074538 -0.065277
v 0.009648 0.068751 -0.060832
v 0.005395 0.067435 -0.065277
v 0.018115 0.045917 -0.060832
v 0.013790 0.044796 -0.065277
v 0.022694 0.016093 -0.060832
v 0.018249 0.015755 -0.065277
v 0.022688 -0.016181 -0.060832
v 0.018242 -0.015840 -0.065277
v 0.018097 -0.045991 -0.060832
v 0.013772 -0.044867 -0.065277
v 0.009621 -0.068800 -0.060832
v 0.005377 -0.067458 -0.065277
v 0.006945 -0.078997 -0.060831
v 0.003517 -0.074547 -0.065277
v 0.002961 -0.101208 -0.047197
v -0.006684 -0.091233 -0.047197
v -0.002961 0.101208 -0.047197
v 0.005640 0.091233 -0.047197
v -0.006684 -0.091233 0.044653
v 0.002961 -0.101208 0.044653
v 0.005640 0.091233 0.044653
v -0.002961 0.101208 0.044653
v -0.006945 0.078996 -0.047197
v -0.006945 0.078996 -0.047197
v 0.007091 0.078980 -0.047197
v 0.007091 0.078980 -0.047197
v 0.006945 -0.078997 -0.047197
v 0.006945 -0.078997 -0.047197
v -0.007091 -0.078980 -0.047197
v -0.007091 -0.078980 -0.047197
v -0.006945 0.078996 0.044653
v -0.006945 0.078996 0.044653
v 0.007091 0.078980 0.044653
v 0.007091 0.078980 0.044653
v 0.006945 -0.078997 0.044653
v 0.006945 -0.078997 0.044653
v -0.007091 -0.078980 0.044653
v -0.007091 -0.078980 0.044653
v -0.006945 0.102158 0.044653
v -0.006945 0.102158 0.044653
v -0.006945 0.102158 -0.047197
v -0.006945 0.102158 -0.047197
v 0.006945 -0.102158 0.044653
v 0.006945 -0.102158 0.044653
v 0.006945 -0.102158 -0.047197
v 0.006945 -0.102158 -0.047197
v -0.009648 -0.068751 0.058645
v -0.007091 -0.078980 0.058645
v -0.007091 -0.078980 0.058645
v -0.007091 -0.078980 0.058645
v -0.003619 -0.074538 0.063090
v -0.003619 -0.074538 0.063090
v -0.005395 -0.067435 0.063090
v -0.018115 -0.045917 0.058645
v -0.013790 -0.044796 0.063090
v -0.022694 -0.016093 0.058645
v -0.018249 -0.015755 0.063090
v -0.022688 0.016181 0.058645
v -0.018242 0.015840 0.063090
v -0.018097 0.045991 0.058645
v -0.013772 0.044867 0.063090
v -0.009621 0.068800 0.058645
v -0.005377 0.067458 0.063090
v -0.003517 0.074547 0.063090
v -0.003517 0.074547 0.063090
v -0.006945 0.078996 0.058645
v -0.006945 0.078996 0.058645
v -0.006945 0.078996 0.058645
v 0.003619 0.074538 0.063090
v 0.003619 0.074538 0.063090
v 0.007091 0.078980 0.058645
v 0.007091 0.078980 0.058645
v 0.007091 0.078980 0.058645
v 0.009648 0.068751 0.058645
v 0.005395 0.067435 0.063090
v 0.018115 0.045917 0.058645
v 0.013790 0.044796 0.063090
v 0.022694 0.016093 0.058645
v 0.018249 0.015755 0.063090
v 0.022688 -0.016181 0.058645
v 0.018242 -0.015840 0.063090
v 0.018097 -0.045991 0.058645
v 0.013772 -0.044867 0.063090
v 0.009621 -0.068800 0.058645
v 0.005377 -0.067458 0.063090
v 0.003517 -0.074547 0.063090
v 0.003517 -0.074547 0.063090
v 0.006945 -0.078997 0.058645
v 0.006945 -0.078997 0.058645
v 0.006945 -0.078997 0.058645
v -0.003619 -0.074538 -0.065277
v -0.003619 -0.074538 -0.065277
v -0.007091 -0.078980 -0.060831
v -0.007091 -0.078980 -0.060831
v -0.007091 -0.078980 -0.060831
v -0.009648 -0.068751 -0.060832
v -0.005395 -0.067435 -0.065277
v -0.018115 -0.045917 -0.060832
v -0.013790 -0.044796 -0.065277
v -0.022694 -0.016093 -0.060832
v -0.018249 -0.015755 -0.065277
v -0.022688 0.016181 -0.060832
v -0.018242 0.015840 -0.065277
v -0.018097 0.045991 -0.060832
v -0.013772 0.044867 -0.065277
v -0.009621 0.068800 -0.060832
v -0.005377 0.067458 -0.065277
v -0.006945 0.078996 -0.060831
v -0.006945 0.078996 -0.060831
v -0.006945 0.078996 -0.060831
v -0.003517 0.074547 -0.065277
v -0.003517 0.074547 -0.065277
v 0.007091 0.078980 -0.060831
v 0.007091 0.078980 -0.060831
v 0.007091 0.078980 -0.060831
v 0.003619 0.074538 -0.065277
v 0.003619 0.074538 -0.065277
v 0.009648 0.068751 -0.060832
v 0.005395 0.067435 -0.065277
v 0.018115 0.045917 -0.060832
v 0.013790 0.044796 -0.065277
v 0.022694 0.016093 -0.060832
v 0.018249 0.015755 -0.065277
v 0.022688 -0.016181 -0.060832
v 0.018242 -0.015840 -0.065277
v 0.018097 -0.045991 -0.060832
v 0.013772 -0.044867 -0.065277
v 0.009621 -0.068800 -0.060832
v 0.005377 -0.067458 -0.065277
v 0.006945 -0.078997 -0.060831
v 0.006945 -0.078997 -0.060831
v 0.006945 -0.078997 -0.060831
v 0.003517 -0.074547 -0.065277
v 0.003517 -0.074547 -0.065277
v -0.002961 0.101208 0.044653
v 0.005640 0.091233 0.044653
v 0.005640 0.091233 -0.047197
v -0.002961 0.101208 -0.047197
v -0.006684 -0.091233 -0.047197
v 0.002961 -0.101208 -0.047197
v 0.002961 -0.101208 0.044653
v -0.006684 -0.091233 0.044653
vt 0.697475 0.977253
vt 0.807153 0.977253
vt 0.807153 0.910818
vt 0.673097 0.974218
vt 0.560022 0.974218
vt 0.560022 0.904370
vt 0.437657 0.974218
vt 0.437657 0.904370
vt 0.324632 0.974218
vt 0.324632 0.904370
vt 0.238154 0.974218
vt 0.238154 0.904370
vt 0.204182 0.974218
vt 0.204182 0.904370
vt 0.303996 0.976146
vt 0.194317 0.976146
vt 0.194317 0.909711
vt 0.238341 0.974218
vt 0.238341 0.904370
vt 0.324912 0.974218
vt 0.324912 0.904370
vt 0.437988 0.974218
vt 0.437988 0.904370
vt 0.560352 0.974218
vt 0.560352 0.904370
vt 0.673377 0.974218
vt 0.673377 0.904370
vt 0.759855 0.974218
vt 0.759855 0.904370
vt 0.793827 0.974218
vt 0.793827 0.904370
vt 0.759668 0.974218
vt 0.759668 0.904370
vt 0.673097 0.904370
vt 0.260357 0.473659
vt 0.231755 0.466759
vt 0.231758 0.473677
vt 0.673097 0.539604
vt 0.673097 0.466941
vt 0.759668 0.466941
vt 0.759668 0.539604
vt 0.560022 0.539604
vt 0.437657 0.539604
vt 0.324632 0.539604
vt 0.238154 0.539604
vt 0.204182 0.539604
vt 0.238341 0.539604
vt 0.324912 0.539604
vt 0.437988 0.539604
vt 0.560352 0.539604
vt 0.673377 0.539604
vt 0.759855 0.539604
vt 0.878285 0.854907
vt 0.938911 0.821152
vt 0.962936 0.898841
vt 0.793827 0.539604
vt 0.178500 0.525932
vt 0.080681 0.525932
vt 0.080681 0.890698
vt 0.823106 0.528276
vt 0.916945 0.528276
vt 0.916945 0.893042
vt 0.877276 0.520585
vt 0.902529 0.602243
vt 0.966252 0.566764
vt 0.084980 0.785689
vt 0.063892 0.785689
vt 0.063892 0.562768
vt 0.823161 0.893042
vt 0.989023 0.893042
vt 0.989023 0.528276
vt 0.966012 0.601478
vt 0.940759 0.519821
vt 0.877036 0.555300
vt 0.096752 0.867277
vt 0.036454 0.900850
vt 0.012558 0.823581
vt 0.178444 0.890698
vt 0.005546 0.890698
vt 0.005546 0.525932
vt 0.704899 0.540248
vt 0.704899 0.467359
vt 0.793884 0.467359
vt 0.238341 0.466941
vt 0.204246 0.466941
vt 0.560352 0.466941
vt 0.437988 0.466941
vt 0.437657 0.466941
vt 0.560022 0.466941
vt 0.793827 0.466941
vt 0.324912 0.466941
vt 0.673377 0.466941
vt 0.324632 0.466941
vt 0.203421 0.539737
vt 0.203421 0.466691
vt 0.292406 0.466691
vt 0.759855 0.466941
vt 0.238154 0.466941
vt 0.782553 0.996410
vt 0.759668 0.996410
vt 0.674704 0.996410
vt 0.671402 0.996410
vt 0.558734 0.996410
vt 0.438946 0.996410
vt 0.436384 0.996410
vt 0.326329 0.996410
vt 0.323023 0.996410
vt 0.238154 0.996410
vt 0.215248 0.996410
vt 0.277166 0.997253
vt 0.221405 0.997253
vt 0.215456 0.996410
vt 0.238341 0.996410
vt 0.323305 0.996410
vt 0.326607 0.996410
vt 0.439276 0.996410
vt 0.559064 0.996410
vt 0.561626 0.996410
vt 0.671680 0.996410
vt 0.674986 0.996410
vt 0.759855 0.996410
vt 0.782762 0.996410
vt 0.724305 0.998361
vt 0.780066 0.998361
vt 0.759668 0.443249
vt 0.782553 0.443249
vt 0.674704 0.443249
vt 0.561295 0.443249
vt 0.671402 0.443249
vt 0.438946 0.443249
vt 0.326329 0.443249
vt 0.238154 0.443249
vt 0.323023 0.443249
vt 0.215248 0.443249
vt 0.225398 0.442875
vt 0.238341 0.443249
vt 0.215456 0.443249
vt 0.323305 0.443250
vt 0.436715 0.443249
vt 0.326607 0.443249
vt 0.559064 0.443249
vt 0.671680 0.443249
vt 0.759855 0.443249
vt 0.674986 0.443249
vt 0.782762 0.443249
vt 0.726876 0.443594
vt 0.643074 0.155403
vt 0.920822 0.155222
vt 0.920856 0.222412
vt 0.005638 0.525932
vt 0.005638 0.890698
vt 0.941757 0.893084
vt 0.823325 0.893084
vt 0.823325 0.528331
vt 0.988690 0.893084
vt 0.941757 0.528331
vt 0.697475 0.910818
vt 0.303996 0.909711
vt 0.242805 0.486533
vt 0.249328 0.486531
vt 0.251467 0.484975
vt 0.234556 0.480033
vt 0.240629 0.484980
vt 0.260354 0.466740
vt 0.251483 0.455437
vt 0.249307 0.453885
vt 0.240645 0.455442
vt 0.234547 0.460400
vt 0.257565 0.480018
vt 0.257556 0.460384
vt 0.242784 0.453887
vt 0.962936 0.821140
vt 0.878285 0.898867
vt 0.178500 0.890698
vt 0.823106 0.893042
vt 0.966252 0.520557
vt 0.877276 0.602256
vt 0.084980 0.562768
vt 0.823161 0.528276
vt 0.877036 0.601506
vt 0.966012 0.519808
vt 0.012558 0.900862
vt 0.096752 0.823554
vt 0.178444 0.525932
vt 0.793884 0.540248
vt 0.292406 0.539737
vt 0.561295 0.996410
vt 0.436715 0.996410
vt 0.558734 0.443249
vt 0.436384 0.443249
vt 0.270638 0.442875
vt 0.439276 0.443249
vt 0.561626 0.443249
vt 0.772116 0.443594
vt 0.834514 0.332318
vt 0.813742 0.347425
vt 0.750387 0.347444
vt 0.893737 0.284173
vt 0.643107 0.222594
vt 0.893651 0.093491
vt 0.670193 0.093643
vt 0.750187 0.030391
vt 0.813543 0.030372
vt 0.729415 0.045498
vt 0.834675 0.045448
vt 0.670278 0.284325
vt 0.729254 0.332368
vt 0.988690 0.528331
vn -0.001200 -1.000000 0.000000
vn -0.968000 -0.251000 0.000000
vn -0.997100 -0.076000 0.000000
vn -0.997100 0.076400 0.000000
vn -0.967800 0.251600 0.000000
vn -0.953500 0.301400 0.000000
vn -0.967200 0.253800 0.000000
vn -0.985400 0.170400 0.000000
vn 0.001200 1.000000 0.000000
vn 0.970100 0.242500 0.000000
vn 0.955300 0.295500 0.000000
vn 0.968000 0.251000 0.000000
vn 0.997100 0.076000 0.000000
vn 0.997100 -0.076400 0.000000
vn 0.967800 -0.251600 0.000000
vn 0.953500 -0.301400 0.000000
vn 0.967200 -0.253800 0.000000
vn 0.985400 -0.170400 0.000000
vn -0.970100 -0.242500 0.000000
vn -0.955300 -0.295500 0.000000
vn 0.000000 0.000000 -1.000000
vn -0.984800 -0.173600 0.000000
vn 0.979500 0.201200 0.000000
vn 0.000000 0.000000 1.000000
vn 0.915200 0.402900 0.000000
vn -0.920700 -0.390200 0.000000
vn 0.231800 0.972700 0.000000
vn 0.519800 0.854300 0.000000
vn 1.000000 0.000000 0.000000
vn -1.000000 0.000000 0.000000
vn -0.675000 -0.208800 0.707600
vn -0.686000 -0.171500 0.707100
vn -0.682700 -0.177000 0.708900
vn -0.704000 -0.053700 0.708100
vn -0.704000 0.054000 0.708100
vn -0.682600 0.177400 0.708900
vn -0.673800 0.213000 0.707500
vn -0.684000 0.179400 0.707100
vn 0.000800 0.707100 0.707100
vn 0.675000 0.208800 0.707600
vn 0.686000 0.171500 0.707100
vn 0.682700 0.177000 0.708900
vn 0.704000 0.053700 0.708100
vn 0.704000 -0.054000 0.708100
vn 0.682600 -0.177400 0.708900
vn 0.673800 -0.213000 0.707500
vn 0.683900 -0.179400 0.707100
vn -0.000800 -0.707100 0.707100
vn -0.675000 -0.208800 -0.707600
vn -0.686000 -0.171500 -0.707100
vn -0.682700 -0.177000 -0.708900
vn -0.704000 -0.053700 -0.708100
vn -0.704000 0.054000 -0.708100
vn -0.682600 0.177400 -0.708900
vn -0.673800 0.213000 -0.707500
vn -0.684000 0.179400 -0.707100
vn 0.000800 0.707100 -0.707100
vn 0.675000 0.208800 -0.707600
vn 0.686000 0.171500 -0.707100
vn 0.682700 0.177000 -0.708900
vn 0.704000 0.053700 -0.708100
vn 0.704000 -0.054000 -0.708100
vn 0.682600 -0.177400 -0.708900
vn 0.673800 -0.213000 -0.707500
vn 0.683900 -0.179400 -0.707100
vn -0.000800 -0.707100 -0.707100
vn -0.495200 -0.868700 0.000000
vn -0.231800 -0.972700 0.000000
vn 0.684000 -0.179400 0.707100
s 1
f 176/1/1 136/2/1 124/3/1
f 42/4/2 44/5/3 20/6/3
f 44/5/3 46/7/4 21/8/4
f 46/7/4 48/9/5 22/10/5
f 48/9/5 50/11/6 23/12/6
f 50/11/6 153/13/7 117/14/8
f 154/15/9 158/16/9 120/17/9
f 159/13/10 56/18/11 26/19/11
f 56/18/11 58/20/12 27/21/12
f 58/20/12 60/22/13 28/23/13
f 60/22/13 62/24/14 29/25/14
f 62/24/14 64/26/15 30/27/15
f 64/26/15 66/28/16 31/29/16
f 66/28/16 175/30/17 121/31/18
f 134/30/19 40/32/20 18/33/20
f 40/32/20 42/4/2 19/34/2
f 76/35/21 92/36/21 94/37/21
f 3/38/2 184/39/2 182/40/20
f 123/31/22 18/33/20 2/41/20
f 18/33/20 19/34/2 3/38/2
f 19/34/2 20/6/3 4/42/3
f 20/6/3 21/8/4 5/43/4
f 21/8/4 22/10/5 6/44/5
f 22/10/5 23/12/6 7/45/6
f 23/12/6 117/14/8 109/46/8
f 119/14/23 26/19/11 10/47/11
f 26/19/11 27/21/12 11/48/12
f 27/21/12 28/23/13 12/49/13
f 28/23/13 29/25/14 13/50/14
f 29/25/14 30/27/15 14/51/15
f 30/27/15 31/29/16 15/52/16
f 222/53/24 221/54/24 24/55/24
f 31/29/16 121/31/18 113/56/18
f 112/57/23 223/58/25 107/59/25
f 115/60/22 102/61/26 105/62/26
f 114/63/21 226/64/21 225/65/21
f 125/66/27 108/67/28 103/68/28
f 121/69/18 129/70/29 131/71/29
f 110/72/21 224/73/21 104/74/21
f 228/75/24 106/76/24 32/77/24
f 117/78/8 35/79/30 33/80/30
f 1/81/1 181/82/1 218/83/1
f 10/47/11 204/84/11 201/85/10
f 13/50/14 210/86/14 208/87/13
f 5/43/4 188/88/4 186/89/3
f 15/52/16 113/56/18 216/90/17
f 7/45/6 109/46/8 194/85/7
f 11/48/12 206/91/12 204/84/11
f 14/51/15 212/92/15 210/86/14
f 6/44/5 190/93/5 188/88/4
f 9/94/9 199/95/9 196/96/9
f 12/49/13 208/87/13 206/91/12
f 4/42/3 186/89/3 184/39/2
f 15/52/16 214/97/16 212/92/15
f 7/45/6 192/98/6 190/93/5
f 2/41/20 182/40/20 180/90/19
f 133/32/31 135/30/32 137/99/32
f 133/32/31 139/100/31 141/101/33
f 142/5/34 140/4/33 141/102/33
f 142/5/34 143/103/34 145/104/35
f 144/7/35 145/105/35 147/106/36
f 148/11/37 146/9/36 147/107/36
f 148/11/37 149/108/37 150/109/38
f 52/15/39 151/110/39 155/111/39
f 160/18/40 54/13/41 156/112/41
f 160/18/40 161/113/40 163/114/42
f 164/22/43 162/20/42 163/115/42
f 164/22/43 165/116/43 167/117/44
f 166/24/44 167/118/44 169/119/45
f 170/28/46 168/26/45 169/120/45
f 170/28/46 171/121/46 172/122/47
f 68/1/48 173/123/48 138/124/48
f 71/40/49 183/125/49 177/126/50
f 71/40/49 73/39/51 185/127/51
f 75/89/52 187/128/52 185/129/51
f 75/89/52 77/88/53 189/130/53
f 77/88/53 79/93/54 191/131/54
f 81/98/55 193/132/55 191/133/54
f 81/98/55 195/85/56 197/134/56
f 83/96/57 200/95/57 202/135/57
f 87/84/58 205/136/58 86/137/59
f 87/84/58 89/91/60 207/138/60
f 91/87/61 209/139/61 207/140/60
f 91/87/61 93/86/62 211/141/62
f 93/86/62 95/92/63 213/142/63
f 97/97/64 215/143/64 213/144/63
f 97/97/64 217/90/65 219/145/65
f 99/83/66 70/82/66 69/146/66
f 59/147/24 45/148/24 43/149/24
f 223/58/25 103/150/28 108/151/28
f 227/152/67 105/153/26 102/154/26
f 36/155/68 227/152/67 101/156/67
f 122/157/1 176/1/1 124/3/1
f 19/34/2 42/4/2 20/6/3
f 20/6/3 44/5/3 21/8/4
f 21/8/4 46/7/4 22/10/5
f 22/10/5 48/9/5 23/12/6
f 23/12/6 50/11/6 117/14/8
f 118/158/9 154/15/9 120/17/9
f 119/14/23 159/13/10 26/19/11
f 26/19/11 56/18/11 27/21/12
f 27/21/12 58/20/12 28/23/13
f 28/23/13 60/22/13 29/25/14
f 29/25/14 62/24/14 30/27/15
f 30/27/15 64/26/15 31/29/16
f 31/29/16 66/28/16 121/31/18
f 123/31/22 134/30/19 18/33/20
f 18/33/20 40/32/20 19/34/2
f 220/159/21 178/160/21 72/161/21
f 72/161/21 96/162/21 98/163/21
f 76/35/21 78/164/21 92/36/21
f 82/165/21 198/166/21 88/167/21
f 78/164/21 90/168/21 92/36/21
f 220/159/21 72/161/21 98/163/21
f 94/37/21 74/169/21 76/35/21
f 72/161/21 74/169/21 96/162/21
f 80/170/21 82/165/21 88/167/21
f 88/167/21 90/168/21 80/170/21
f 198/166/21 203/171/21 88/167/21
f 96/162/21 74/169/21 94/37/21
f 90/168/21 78/164/21 80/170/21
f 2/41/20 3/38/2 182/40/20
f 115/56/22 123/31/22 2/41/20
f 2/41/20 18/33/20 3/38/2
f 3/38/2 19/34/2 4/42/3
f 4/42/3 20/6/3 5/43/4
f 5/43/4 21/8/4 6/44/5
f 6/44/5 22/10/5 7/45/6
f 7/45/6 23/12/6 109/46/8
f 112/46/23 119/14/23 10/47/11
f 10/47/11 26/19/11 11/48/12
f 11/48/12 27/21/12 12/49/13
f 12/49/13 28/23/13 13/50/14
f 13/50/14 29/25/14 14/51/15
f 14/51/15 30/27/15 15/52/16
f 126/172/24 24/55/24 221/54/24
f 25/173/24 222/53/24 24/55/24
f 15/52/16 31/29/16 113/56/18
f 119/174/23 112/57/23 107/59/25
f 123/175/22 115/60/22 105/62/26
f 225/65/21 116/176/21 114/63/21
f 114/63/21 132/177/21 226/64/21
f 127/178/27 125/66/27 103/68/28
f 113/179/18 121/69/18 131/71/29
f 104/74/21 111/180/21 110/72/21
f 110/72/21 128/181/21 224/73/21
f 130/182/24 32/77/24 106/76/24
f 17/183/24 228/75/24 32/77/24
f 109/184/8 117/78/8 33/80/30
f 16/185/1 1/81/1 218/83/1
f 112/46/23 10/47/11 201/85/10
f 12/49/13 13/50/14 208/87/13
f 4/42/3 5/43/4 186/89/3
f 214/97/16 15/52/16 216/90/17
f 192/98/6 7/45/6 194/85/7
f 10/47/11 11/48/12 204/84/11
f 13/50/14 14/51/15 210/86/14
f 5/43/4 6/44/5 188/88/4
f 8/186/9 9/94/9 196/96/9
f 11/48/12 12/49/13 206/91/12
f 3/38/2 4/42/3 184/39/2
f 14/51/15 15/52/16 212/92/15
f 6/44/5 7/45/6 190/93/5
f 115/56/22 2/41/20 180/90/19
f 139/100/31 133/32/31 137/99/32
f 140/4/33 133/32/31 141/101/33
f 143/187/34 142/5/34 141/102/33
f 144/7/35 142/5/34 145/104/35
f 146/9/36 144/7/35 147/106/36
f 149/108/37 148/11/37 147/107/36
f 152/13/38 148/11/37 150/109/38
f 157/16/39 52/15/39 155/111/39
f 161/113/40 160/18/40 156/112/41
f 162/20/42 160/18/40 163/114/42
f 165/188/43 164/22/43 163/115/42
f 166/24/44 164/22/43 167/117/44
f 168/26/45 166/24/44 169/119/45
f 171/121/46 170/28/46 169/120/45
f 174/30/69 170/28/46 172/122/47
f 38/2/48 68/1/48 138/124/48
f 179/90/50 71/40/49 177/126/50
f 183/125/49 71/40/49 185/127/51
f 73/39/51 75/89/52 185/129/51
f 187/189/52 75/89/52 189/130/53
f 189/190/53 77/88/53 191/131/54
f 79/93/54 81/98/55 191/133/54
f 193/132/55 81/98/55 197/134/56
f 84/191/57 83/96/57 202/135/57
f 85/85/59 87/84/58 86/137/59
f 205/136/58 87/84/58 207/138/60
f 89/91/60 91/87/61 207/140/60
f 209/192/61 91/87/61 211/141/62
f 211/193/62 93/86/62 213/142/63
f 95/92/63 97/97/64 213/144/63
f 215/143/64 97/97/64 219/145/65
f 100/194/66 99/83/66 69/146/66
f 39/195/24 37/196/24 67/197/24
f 43/149/24 41/198/24 61/199/24
f 47/200/24 45/148/24 57/201/24
f 53/202/24 51/203/24 55/204/24
f 49/205/24 47/200/24 55/204/24
f 41/198/24 39/195/24 63/206/24
f 65/207/24 63/206/24 39/195/24
f 39/195/24 67/197/24 65/207/24
f 51/203/24 49/205/24 55/204/24
f 59/147/24 57/201/24 45/148/24
f 55/204/24 47/200/24 57/201/24
f 41/198/24 63/206/24 61/199/24
f 61/199/24 59/147/24 43/149/24
f 107/59/25 223/58/25 108/151/28
f 101/156/67 227/152/67 102/154/26
f 34/208/68 36/155/68 101/156/67
