# Blender v2.76 (sub 0) OBJ File: 'pinetreem.blend'
# www.blender.org
v 0.080128 -0.053858 0.000000
v 0.080128 0.043671 0.000000
v -0.004262 -0.000660 0.000000
v 0.029494 0.008206 1.725293
v 0.029494 -0.018393 1.725293
v 0.012616 -0.018393 2.205630
v -0.088652 -0.053858 0.000000
v -0.004262 -0.098189 0.000000
v -0.004262 0.025939 1.725293
v 0.012616 0.008206 2.205630
v -0.004262 -0.036125 1.725293
v -0.029579 -0.018393 1.725293
v -0.021140 -0.018393 2.205630
v -0.029579 0.008206 1.725293
v -0.004262 0.025939 1.725293
v -0.004262 0.017072 2.205630
v -0.004262 -0.036125 1.725293
v 0.029494 -0.018393 1.725293
v 0.029494 -0.027259 1.146928
v -0.004262 0.034805 1.146928
v -0.004262 0.052538 0.098028
v 0.046372 0.025939 0.098028
v 1.042176 -0.000660 0.509746
v 1.033737 -0.257783 0.401915
v 0.552713 -0.248916 0.529351
v 0.029494 0.017072 1.146928
v 0.046372 -0.036125 0.098028
v -0.038018 0.017072 1.146928
v -0.038018 -0.027259 1.146928
v -0.054896 -0.036125 0.098028
v -0.004262 -0.044992 1.146928
v 0.029494 -0.027259 1.146928
v -0.004262 -0.062724 0.098028
v -0.004262 0.034805 1.146928
v -0.054896 0.025939 0.098028
v 0.029494 0.008206 1.725293
v 0.029494 0.017072 1.146928
v -0.029579 -0.018393 1.725293
v -0.038018 -0.027259 1.146928
v -0.038018 0.017072 1.146928
v -0.004262 -0.044992 1.146928
v -0.004262 0.025939 1.725293
v -0.004262 0.034805 1.146928
v -0.004262 0.025939 1.725293
v -0.029579 0.008206 1.725293
v -0.350262 0.043671 0.980280
v -0.324944 0.478119 0.715605
v -0.021140 0.460387 0.823435
v 0.434567 0.965765 0.990083
v 0.687737 0.841637 0.813633
v 0.459884 0.380590 0.960675
v 0.282665 0.451520 0.715605
v 0.257347 0.017072 0.980280
v 0.004177 0.265328 1.656673
v 0.164518 0.495852 1.529237
v 0.282665 0.424922 1.646871
v 0.561152 0.017072 0.646985
v 0.029494 0.025939 0.872449
v 0.046372 0.291927 0.784224
v 0.569591 0.283061 0.558760
v 0.021055 -0.240050 0.754816
v 0.417689 0.345125 1.578251
v 0.265787 0.114602 1.656673
v -0.046457 -0.585835 0.745013
v -0.038018 -0.027259 1.039097
v 0.265787 -0.036125 0.980280
v -0.063335 -1.171010 0.539154
v 0.257347 -0.585835 0.597971
v 0.223591 -0.497172 1.637068
v 0.105445 -0.257782 1.725293
v 0.240469 -0.204585 1.666476
v -0.451530 -0.310980 0.862647
v -0.012701 -0.053858 1.186139
v 0.130762 -0.284381 1.068505
v -0.898797 -0.585835 0.705802
v -1.042261 -0.355311 0.539154
v -0.594993 -0.071590 0.764619
v -0.004262 -0.036125 2.401686
v -0.063335 -0.036125 2.382081
v -0.054896 -0.000660 2.460503
v 0.451445 -0.213451 0.931266
v 0.341738 -0.461707 0.843041
v -0.080213 -0.240050 1.156731
v -0.384018 0.123468 1.499829
v -0.316505 0.309660 1.450815
v 0.037933 0.176666 1.637068
v -0.004262 0.336259 1.548843
v -0.029579 0.025939 1.764504
v -0.215237 0.025939 1.715490
v -0.299627 -0.541504 0.764619
v 0.206713 0.504718 1.107717
v 0.232030 -0.089323 1.293970
v -0.012701 0.034805 1.323378
v -0.265871 0.150067 1.293970
v -0.046457 0.619980 0.960675
v 0.493640 0.034805 1.254759
v 0.502079 -0.222317 1.166533
v 0.029494 -0.231184 1.441012
v 0.021055 0.025939 1.490026
v 0.012616 0.283061 1.441012
v 0.915591 0.052537 1.156731
v 0.924030 -0.204585 1.029294
v 0.029494 -0.443974 1.186139
v -0.029579 -0.036125 1.421406
v 0.232030 -0.000660 1.372392
v -0.291188 -0.071590 1.372392
v -0.232115 -0.479439 1.068505
v 0.080128 -0.949353 1.068505
v 0.291104 -0.408509 1.068505
v -0.510603 -0.107055 1.097914
v -0.038018 0.017072 1.401801
v 0.029494 -0.240050 1.303773
v -0.105530 0.274195 1.235153
v -0.578115 0.150067 0.990083
v -0.966309 -0.231183 1.009689
v 0.485201 0.637712 1.293970
v 0.679298 0.495852 1.186139
v 0.417689 0.194398 1.333181
v -0.316505 0.389456 1.274364
v -0.105530 0.540183 1.166533
v 0.164518 0.141200 1.480223
v -0.046457 -0.009526 1.548843
v -0.257432 -0.160253 1.480223
v 0.012616 -0.062724 2.195827
v -0.071774 -0.098189 2.087997
v -0.105530 -0.027259 2.127208
v 0.029494 0.008206 1.244956
v 0.147640 0.265328 1.156731
v 0.915590 -0.435108 0.833238
v 0.797444 -0.692231 0.666590
v -0.350262 -0.576969 0.597971
v -0.080213 0.256462 1.823321
v -0.029579 0.017072 1.989969
v -0.181481 -0.018393 1.950758
v -0.139286 -0.018393 2.029180
v -0.012701 0.008206 2.097800
v -0.004262 -0.089323 2.097800
v -0.004262 0.619980 1.480223
v 0.198274 0.619980 1.333181
v 0.189835 0.327392 1.499829
v 0.341738 -0.080457 1.568448
v 0.282665 -0.266649 1.490026
v -0.029579 -0.169120 1.803715
v 0.274226 -0.036125 1.833124
v 0.021055 0.017072 2.038983
v 0.046372 0.167799 2.009574
v 0.653981 -0.160253 1.480223
v 0.392372 0.105735 1.441012
v 0.594908 -0.346445 1.342984
v 0.164518 -0.381910 1.372392
v -0.012701 -0.036125 1.607659
v 0.181396 0.052538 1.578251
v -0.139286 0.096869 1.793913
v 0.130762 0.194398 1.725293
v -0.164603 -0.222317 1.852730
v -0.265871 -0.133654 1.735096
v -0.105530 0.052538 1.989969
v 0.097006 -0.124788 2.009574
v -0.063335 -0.319846 1.764504
v -0.189920 0.345125 1.470420
v -0.341823 -0.426242 1.744899
v -0.434652 -0.337579 1.578251
v -0.021140 0.008206 2.205630
v -0.004262 0.017072 2.205630
v -0.004262 0.008206 2.352672
v -0.004262 -0.027259 2.205630
v -0.021140 -0.018393 2.205630
v -0.012701 -0.009526 2.352672
v 0.012616 -0.018393 2.205630
v 0.004177 -0.009526 2.352672
v 0.004177 -0.000660 2.352672
v -0.012701 -0.000660 2.352672
v 0.012616 0.008206 2.205630
v -0.004262 0.008206 2.352672
v -0.004262 -0.009526 2.352672
v -0.130847 0.486986 1.764504
v -0.223676 0.220997 1.764504
v -0.535920 0.061404 1.676279
v -0.519042 0.212131 1.588054
v -0.240554 0.167799 1.666476
v 0.071689 0.291927 1.784110
v 0.113884 0.043671 1.970363
v 0.046372 -0.036125 2.391883
v 0.021055 0.025939 2.411489
v 0.046372 0.043671 2.333067
v 0.527396 -0.071590 1.774307
v 0.299542 0.114602 1.735096
v 0.493640 -0.222317 1.656673
v 0.248908 -0.186852 1.764504
v -0.738456 0.256462 1.411603
v -0.662505 0.442654 1.284167
v -0.206798 -0.284381 1.588054
v -0.333383 -0.169120 1.431209
v -0.122408 0.079136 1.764504
v -0.426213 -0.541504 1.450815
v -0.071774 -0.399643 1.480223
v 0.122323 -0.053858 1.833124
v -0.139286 0.052538 2.078194
v -0.054896 0.088003 2.176222
v -0.012701 -0.089323 2.372278
v -0.046457 -0.071590 2.195827
v -0.071774 0.025939 2.254644
v -0.257432 -0.036125 1.950758
v -0.122408 -0.115922 1.970363
v 0.130762 -0.036125 2.107602
v 0.198274 -0.107056 2.038983
v 0.139201 -0.169120 2.087997
v 0.080128 0.096869 2.117405
v -0.012701 0.017072 2.195827
v -0.071774 0.088003 2.166419
v 0.004177 -0.071590 2.333067
v -0.054896 -0.062724 2.313461
v -0.113969 -0.115922 2.038983
v -0.021140 -0.133654 2.097800
v -0.046457 -0.257782 2.029180
v -0.147725 0.079136 1.960560
v -0.029579 0.096869 2.068391
v -0.097091 -0.000660 2.176222
v 0.181396 0.167799 2.048785
v 0.021055 0.167799 2.058588
v 0.223591 -0.115922 1.980166
v 0.113884 -0.071590 2.048785
v 0.156079 0.017072 1.989969
v 0.004177 -0.018393 2.166419
v 0.097006 -0.036125 2.137011
v 0.037933 0.061404 2.127208
v -0.105530 0.229863 1.989969
v -0.021140 0.265328 1.931152
v 0.029494 0.150067 1.999771
v -0.265871 0.061404 1.891941
v -0.054896 0.114602 2.058588
v 0.080128 0.043671 2.107602
v 0.147640 0.017072 2.058588
v 0.071689 -0.151387 2.029180
v -0.021140 0.114602 2.205630
v 0.029494 0.096869 2.362475
v 0.088567 -0.062724 2.205630
v 0.097006 -0.151387 2.107602
v 0.004177 -0.177986 2.156616
v 0.113884 0.114602 2.146813
v 0.046372 0.061404 2.254644
v -0.029579 0.123468 2.205630
v 0.071689 -0.098189 2.156616
v 0.012616 -0.151387 2.097800
v -0.063335 -0.089323 2.195827
v -0.139286 0.034805 2.127208
v -0.012701 -0.000660 2.372278
v -0.080213 0.070270 2.342869
v -0.097091 -0.169120 2.107602
v -0.105530 -0.071590 2.205630
v -0.004262 -0.027259 2.225236
v 0.054811 0.034805 2.225236
v -0.552798 -0.426242 1.235153
v -0.198359 -0.062724 2.058588
v -0.012701 -0.036125 1.921349
v 0.130762 0.025939 1.852730
v -0.054896 -0.018393 2.333067
v -0.029579 -0.009526 2.411489
v -0.012701 -0.053858 2.382081
v -0.038018 0.052538 2.382081
v -0.004262 -0.009526 2.480109
v 0.004177 -0.044992 2.470306
v 0.004177 0.025939 2.470306
v -0.265871 0.017072 1.754701
v -0.004262 0.132334 1.891941
v -0.012701 -0.009526 2.470306
v 0.021055 0.025939 2.460503
v -0.147725 -0.089323 1.833124
v 0.080128 0.283061 0.941069
v -0.021140 0.034805 1.048900
v -0.485286 0.229863 0.754816
v -0.375578 0.478119 0.646985
v -0.932553 0.416055 0.646985
v -0.586554 -0.018393 0.646985
v 0.485201 0.291927 1.166533
v -0.105530 -0.204585 1.637068
v -0.459969 -0.071590 1.450815
v 0.240469 0.318526 1.382195
v -0.012701 0.034805 1.607659
v -0.189920 0.158933 1.509631
v -0.282749 -0.124788 1.656673
v -0.299627 1.010096 0.568562
v 0.004177 0.992364 0.715605
v 0.307982 0.983498 0.568562
v 0.333299 -0.718829 1.274364
v 0.358616 -0.293248 1.382195
v -0.350262 -0.018393 0.980280
v -0.156164 0.185532 1.068505
v -0.122408 -0.213451 0.921463
v 0.569591 0.043671 0.843041
v 1.025298 -0.177986 0.666590
v -0.552798 0.708643 1.166533
v -0.535920 0.238730 1.166533
v -0.012701 -0.000660 2.489911
v -0.063335 0.034805 2.470306
v 0.021055 -0.053858 2.489911
v -0.341822 0.859370 0.970477
v -0.443091 -0.364178 0.990083
v 0.172957 -0.089323 1.568448
v 0.063250 0.433788 1.274364
v 0.316421 0.744108 1.127322
v 0.164518 0.017072 1.744899
v -0.004262 -0.133654 2.009574
v 0.071689 0.203264 1.784110
v 0.080128 0.043671 0.000000
v -0.004262 0.088003 0.000000
v 0.139201 -0.160253 1.793913
v 0.021055 0.522451 1.656673
v -0.021140 0.034805 2.382081
v -0.232115 -0.523771 1.597857
v 0.088567 -0.027259 2.195827
v 0.046372 -0.071590 2.362475
v 0.189835 -0.204585 1.921349
v 0.080128 -0.160253 1.980166
v -0.097091 -0.036125 2.137011
v -0.147725 0.079136 1.999771
v -0.198359 0.185532 1.931152
v -0.038018 -0.115922 2.087997
v 0.054811 -0.053858 2.195827
v -0.223676 0.017072 2.019377
v -0.097091 0.132334 2.087997
v -0.004262 -0.089323 2.264447
v -0.113969 -0.000660 2.352672
v 0.080128 -0.222317 2.038983
v -0.004262 -0.000660 2.499714
v 0.037933 -0.009526 2.372278
v -0.004262 -0.098189 0.000000
v -0.004262 0.052538 0.098028
v -0.088652 0.043671 0.000000
v -0.088652 -0.053858 0.000000
v -0.004262 0.088003 0.000000
v 0.080128 -0.053858 0.000000
v 0.198274 -0.009526 0.382309
v 0.206713 -0.009526 0.392112
v 0.282665 -0.009526 0.352901
v 0.291104 -0.009526 0.343098
v 0.307981 -0.044992 0.352901
v 0.282665 -0.009526 0.352901
v 0.029494 0.008206 0.441126
v 0.021055 -0.000660 0.441126
v 0.198274 -0.000660 0.382309
v 0.198274 -0.009526 0.382309
v 0.274226 -0.009526 0.343098
v 0.274226 -0.009526 0.343098
v 0.291104 -0.009526 0.343098
v 0.021055 -0.009526 0.441126
v 0.198274 -0.009526 0.382309
v 0.198274 -0.000660 0.382309
v 0.274226 -0.000660 0.343098
v 0.274226 0.008206 0.343098
v 0.274226 -0.000660 0.343098
v 0.282665 0.043671 0.313690
v 0.274226 0.008206 0.343098
v 0.198274 -0.009526 0.382309
v 0.021055 -0.009526 0.441126
v 0.029494 -0.018393 0.441126
v 0.198274 -0.000660 0.382309
v 0.282665 -0.000660 0.352901
v 0.291104 0.008206 0.343098
v 0.291104 -0.000660 0.343098
v 0.198274 -0.009526 0.382309
v 0.029494 -0.009526 0.450929
v 0.198274 -0.009526 0.382309
v 0.274226 -0.009526 0.343098
v 0.291104 -0.009526 0.333295
v 0.206713 -0.009526 0.392112
v 0.029494 -0.000660 0.450929
v 0.206713 -0.000660 0.392112
v 0.198274 -0.000660 0.382309
v 0.291104 0.008206 0.343098
v 0.291104 -0.009526 0.343098
v 0.274226 -0.009526 0.343098
v 0.291104 -0.009526 0.343098
v 0.291104 -0.009526 0.343098
v 0.307981 -0.009526 0.333295
v 0.291104 -0.009526 0.333295
v 0.291104 -0.000660 0.333295
v 0.274226 -0.000660 0.343098
v 0.291104 -0.000660 0.343098
v 0.291104 -0.009526 0.343098
v 0.291104 -0.009526 0.333295
v 0.291104 -0.000660 0.333295
v 0.291104 0.008206 0.343098
v -0.164603 0.229863 0.401915
v -0.130847 0.167799 0.431323
v -0.122408 0.167799 0.441126
v -0.029579 0.025939 0.480337
v -0.029579 0.025939 0.470534
v -0.130847 0.158933 0.431323
v -0.029579 -0.036125 0.362704
v -0.113969 -0.186852 0.294084
v -0.029579 -0.036125 0.352901
v -0.029579 0.025939 0.480337
v -0.139286 0.167799 0.441126
v -0.130847 0.167799 0.441126
v -0.021140 -0.044992 0.352901
v -0.139286 0.158933 0.441126
v -0.130847 0.158933 0.431323
v -0.173042 0.229863 0.401915
v -0.012701 0.034805 0.480337
v -0.122408 0.167799 0.441126
v -0.130847 0.167799 0.431323
v -0.021140 -0.044992 0.352901
v -0.021140 -0.044992 0.362704
v -0.181481 0.238730 0.401915
v -0.173042 0.220997 0.411718
v -0.021140 -0.044992 0.372506
v -0.021140 0.034805 0.480337
v -0.029579 -0.044992 0.372506
v -0.139286 0.167799 0.441126
v -0.164603 0.229863 0.411718
v -0.130847 0.167799 0.441126
v -0.122408 0.265328 0.382309
v -0.164603 0.229863 0.401915
v -0.164603 0.229863 0.411718
v -0.173042 0.229863 0.401915
v -0.130847 0.158933 0.431323
v -0.139286 0.158933 0.441126
v -0.029579 0.025939 0.470534
v -0.021140 0.025939 0.470534
v -0.164603 0.229863 0.411718
v -0.173042 0.238730 0.392112
v -0.164603 0.247596 0.401915
v -0.173042 0.238730 0.392112
v -0.122408 0.265328 0.382309
v -0.173042 0.247596 0.401915
v -0.173042 0.229863 0.411718
v -0.122408 0.265328 0.382309
v -0.122408 0.265328 0.382309
v -0.105530 0.274195 0.382309
v -0.181481 0.238730 0.392112
v -0.181481 0.238730 0.401915
v -0.181481 0.238730 0.401915
v -0.181481 0.238730 0.392112
v -0.122408 0.265328 0.392112
v -0.181481 0.238730 0.401915
v -0.181481 0.238730 0.401915
v -0.240554 0.247596 0.421520
v -0.240554 0.238730 0.421520
v -0.173042 0.220997 0.411718
v -0.122408 0.274195 0.382309
v -0.122408 0.265328 0.382309
v -0.122408 0.265328 0.392112
v -0.240554 0.247596 0.421520
v -0.240554 0.238730 0.431323
v -0.240554 0.238730 0.421520
v -0.173042 0.229863 0.411718
v -0.240554 0.238730 0.431323
v -0.173042 0.220997 0.411718
v 0.004177 -0.044992 0.607774
v 0.012616 -0.044992 0.607774
v 0.105445 -0.195718 0.539154
v 0.105445 -0.186852 0.529351
v 0.012616 -0.036125 0.588168
v 0.004177 -0.044992 0.588168
v 0.021055 -0.036125 0.597971
v 0.097006 -0.195718 0.529351
v 0.004177 -0.044992 0.588168
v 0.004177 -0.044992 0.597971
v 0.097006 -0.195718 0.529351
v 0.105445 -0.186852 0.529351
v 0.105445 -0.186852 0.529351
v 0.097006 -0.195718 0.529351
v 0.105445 -0.195718 0.539154
v -0.164603 -0.009526 0.235267
v -0.054896 -0.000660 0.284281
v -0.054896 -0.009526 0.284281
v -0.156164 -0.009526 0.235267
v -0.046457 -0.009526 0.264676
v -0.046457 -0.000660 0.274478
v -0.046457 -0.009526 0.274478
v -0.156164 -0.009526 0.235267
v -0.046457 -0.000660 0.274478
v -0.046457 -0.000660 0.274478
v -0.164603 -0.009526 0.235267
v -0.156164 -0.009526 0.235267
v -0.156164 -0.009526 0.235267
v -0.164603 -0.009526 0.235267
v -0.156164 -0.009526 0.235267
v -0.088652 0.043671 0.000000
v -0.012701 -0.000660 2.372278
v 0.080128 0.008206 2.382081
v -0.029579 -0.018393 1.911546
v -0.046457 -0.169120 1.872335
v -0.021140 -0.461707 1.352787
v -0.198359 -0.115922 1.539040
v 0.097006 -0.541504 1.539040
v -0.021140 -0.319846 1.637068
v 1.042176 -0.000660 0.509746
v 0.561152 0.017072 0.646985
v 0.552713 -0.248916 0.529351
v -0.350262 0.043671 0.980280
v -0.046457 0.034805 1.088111
v -0.021140 0.460387 0.823435
v 0.434567 0.965765 0.990083
v 0.206713 0.504718 1.107717
v 0.459884 0.380590 0.960675
v 0.257347 0.017072 0.980280
v 0.004177 0.265328 1.656673
v 0.130762 0.194398 1.725293
v 0.282665 0.424922 1.646871
v 0.569591 0.283061 0.558760
v 0.046372 0.291927 0.784224
v 1.050615 0.274195 0.431323
v 0.029494 0.025939 0.872449
v 0.021055 -0.240050 0.754816
v 0.265787 0.114602 1.656673
v -0.046457 -0.585835 0.745013
v 0.257347 -0.585835 0.597971
v 0.265787 -0.036125 0.980280
v -0.063335 -1.171010 0.539154
v 0.240469 -1.171010 0.392112
v 0.223591 -0.497172 1.637068
v 0.350177 -0.426242 1.568448
v 0.240469 -0.204585 1.666476
v -0.451530 -0.310980 0.862647
v -0.299627 -0.541504 0.764619
v 0.130762 -0.284381 1.068505
v -0.898797 -0.585835 0.705802
v -0.594993 -0.071590 0.764619
v -0.004262 -0.036125 2.401686
v -0.012701 -0.009526 2.470306
v -0.054896 -0.000660 2.460503
v 0.451445 -0.213451 0.931266
v 0.029494 0.008206 1.244956
v -0.080213 -0.240050 1.156731
v -0.384018 0.123468 1.499829
v -0.029579 -0.009526 1.656673
v 0.037933 0.176666 1.637068
v -0.004262 0.336259 1.548843
v -0.189920 0.345125 1.470420
v -0.215237 0.025939 1.715490
v -0.755334 -0.825225 0.539154
v -0.012701 0.034805 1.323378
v 0.232030 -0.089323 1.293970
v -0.046457 0.619980 0.960675
v -0.265871 0.150067 1.293970
v 0.181396 1.089893 0.813633
v 0.493640 0.034805 1.254759
v 0.021055 0.025939 1.490026
v 0.029494 -0.231184 1.441012
v 0.485201 0.291927 1.166533
v 0.012616 0.283061 1.441012
v 0.915591 0.052537 1.156731
v 0.502079 -0.222317 1.166533
v 0.029494 -0.443974 1.186139
v 0.291104 -0.408509 1.068505
v 0.232030 -0.000660 1.372392
v -0.291188 -0.071590 1.372392
v -0.232115 -0.479439 1.068505
v -0.181481 -0.984818 0.892055
v 0.080128 -0.949353 1.068505
v 0.341738 -0.913888 0.892055
v -0.510603 -0.107055 1.097914
v -0.443091 -0.364178 0.990083
v 0.029494 -0.240050 1.303773
v -0.105530 0.274195 1.235153
v -0.578115 0.150067 0.990083
v -1.033822 0.025939 0.833238
v -0.966309 -0.231183 1.009689
v 0.485201 0.637712 1.293970
v 0.240469 0.318526 1.382195
v 0.417689 0.194398 1.333181
v -0.316505 0.389456 1.274364
v -0.046457 -0.009526 1.548843
v 0.164518 0.141200 1.480223
v -0.535920 0.238730 1.166533
v -0.257432 -0.160253 1.480223
v 0.012616 -0.062724 2.195827
v -0.021140 0.008206 2.195827
v -0.105530 -0.027259 2.127208
v 0.569591 0.043671 0.843041
v 0.147640 0.265328 1.156731
v 0.915590 -0.435108 0.833238
v 0.341738 -0.461707 0.843041
v -0.350262 -0.576969 0.597971
v -0.367140 -1.162143 0.392112
v -0.080213 0.256462 1.823321
v -0.223676 0.220997 1.764504
v -0.181481 -0.018393 1.950758
v -0.139286 -0.018393 2.029180
v -0.122408 -0.115922 1.970363
v -0.004262 -0.089323 2.097800
v -0.004262 0.619980 1.480223
v 0.189835 0.327392 1.499829
v 0.341738 -0.080457 1.568448
v 0.021055 0.017072 1.833124
v -0.029579 -0.169120 1.803715
v 0.274226 -0.036125 1.833124
v 0.299542 0.114602 1.735096
v 0.046372 0.167799 2.009574
v 0.653981 -0.160253 1.480223
v 0.696176 0.025939 1.333181
v 0.392372 0.105735 1.441012
v 0.282665 -0.266649 1.490026
v 0.164518 -0.381910 1.372392
v 0.358616 -0.293248 1.382195
v 0.181396 0.052538 1.578251
v -0.139286 0.096869 1.793913
v -0.012701 0.025939 1.891941
v -0.164603 -0.222317 1.852730
v -0.004262 -0.036125 2.029180
v -0.105530 0.052538 1.989969
v 0.097006 -0.124788 2.009574
v -0.189920 0.628846 1.303773
v -0.341823 -0.426242 1.744899
v -0.265871 -0.133654 1.735096
v -0.130847 0.486986 1.764504
v -0.274310 0.451520 1.627265
v -0.535920 0.061404 1.676279
v -0.265871 0.017072 1.754701
v -0.240554 0.167799 1.666476
v -0.029579 0.017072 1.989969
v 0.113884 0.043671 1.970363
v 0.046372 -0.036125 2.391883
v 0.063250 -0.018393 2.303658
v 0.046372 0.043671 2.333067
v 0.527396 -0.071590 1.774307
v 0.544274 0.079136 1.656673
v 0.248908 -0.186852 1.764504
v -0.738456 0.256462 1.411603
v -0.316505 0.309660 1.450815
v -0.206798 -0.284381 1.588054
v 0.004177 -0.036125 1.823321
v -0.122408 0.079136 1.764504
v -0.426213 -0.541504 1.450815
v -0.291188 -0.665632 1.264561
v -0.071774 -0.399643 1.480223
v 0.122323 -0.053858 1.833124
v -0.054896 0.088003 2.176222
v -0.012701 -0.089323 2.372278
v -0.004262 0.008206 2.372278
v -0.071774 0.025939 2.254644
v -0.257432 -0.036125 1.950758
v -0.240554 -0.133654 1.901744
v 0.130762 -0.036125 2.107602
v 0.071689 -0.098189 2.156616
v 0.139201 -0.169120 2.087997
v 0.080128 0.096869 2.117405
v 0.021055 0.167799 2.058588
v -0.071774 0.088003 2.166419
v 0.004177 -0.071590 2.333067
v -0.063335 -0.036125 2.382081
v -0.113969 -0.115922 2.038983
v -0.139286 -0.240050 1.970363
v -0.046457 -0.257782 2.029180
v -0.012701 0.008206 2.097800
v -0.029579 0.096869 2.068391
v -0.021140 -0.133654 2.097800
v 0.004177 -0.018393 2.166419
v -0.097091 -0.000660 2.176222
v 0.181396 0.167799 2.048785
v 0.113884 0.238730 1.989969
v 0.223591 -0.115922 1.980166
v 0.265787 -0.027259 1.921349
v 0.156079 0.017072 1.989969
v 0.071689 -0.151387 2.029180
v 0.097006 -0.036125 2.137011
v 0.037933 0.061404 2.127208
v 0.004177 -0.027259 2.127208
v 0.113884 -0.071590 2.048785
v -0.105530 0.229863 1.989969
v -0.054896 0.114602 2.058588
v 0.029494 0.150067 1.999771
v -0.147725 0.079136 1.960560
v -0.004262 0.008206 2.137011
v 0.080128 0.043671 2.107602
v 0.147640 0.017072 2.058588
v 0.240469 0.096869 1.989969
v 0.054811 -0.266649 1.960560
v 0.029494 0.096869 2.362475
v 0.088567 -0.062724 2.205630
v -0.004262 -0.089323 2.264447
v 0.004177 -0.177986 2.156616
v 0.113884 0.114602 2.146813
v 0.029494 0.176666 2.097800
v -0.029579 0.123468 2.205630
v -0.004262 -0.027259 2.225236
v -0.063335 -0.089323 2.195827
v -0.139286 0.034805 2.127208
v -0.122408 -0.062724 2.078194
v -0.046457 -0.071590 2.195827
v 0.046372 0.061404 2.254644
v -0.080213 0.070270 2.342869
v -0.105530 -0.071590 2.205630
v 0.054811 0.034805 2.225236
v -0.333383 -0.169120 1.431209
v -0.198359 -0.062724 2.058588
v -0.164603 -0.133654 2.009574
v -0.071774 -0.098189 2.087997
v 0.105445 -0.257782 1.725293
v 0.130762 0.025939 1.852730
v -0.054896 -0.018393 2.333067
v -0.038018 -0.053858 2.313461
v -0.012701 -0.053858 2.382081
v -0.012701 0.070270 2.303658
v -0.038018 0.052538 2.382081
v -0.029579 -0.009526 2.411489
v 0.004177 -0.044992 2.470306
v 0.004177 0.025939 2.470306
v -0.021140 0.034805 2.382081
v -0.029579 -0.018393 1.911546
v -0.004262 0.132334 1.891941
v 0.037933 -0.009526 2.372278
v 0.021055 0.025939 2.460503
v -0.147725 -0.089323 1.833124
v -0.021140 -0.319846 1.637068
v 0.080128 0.283061 0.941069
v -0.375578 0.478119 0.646985
v -0.485286 0.229863 0.754816
v -0.831285 0.664311 0.548957
v -0.932553 0.416055 0.646985
v -1.042261 0.167799 0.548957
v -0.586554 -0.018393 0.646985
v 0.907152 0.309660 1.029294
v -0.105530 -0.204585 1.637068
v 0.063250 0.433788 1.274364
v -0.189920 0.158933 1.509631
v -0.561237 -0.089323 1.568448
v -0.282749 -0.124788 1.656673
v -0.324944 0.478119 0.715605
v 0.004177 0.992364 0.715605
v 0.282665 0.451520 0.715605
v 0.333299 -0.718829 1.274364
v 0.527396 -0.630166 1.225350
v -0.805968 0.061404 1.284167
v -0.459969 -0.071590 1.450815
v -0.038018 -0.027259 1.039097
v -0.350262 -0.018393 0.980280
v -0.012701 -0.053858 1.186139
v -0.156164 0.185532 1.068505
v -0.122408 -0.213451 0.921463
v -0.552798 0.708643 1.166533
v -0.763773 0.557916 0.970477
v 0.021055 0.025939 2.411489
v -0.063335 0.034805 2.470306
v 0.021055 -0.053858 2.489911
v -0.105530 0.540183 1.166533
v -0.907237 -0.497172 0.833238
v -0.012701 0.034805 1.607659
v 0.172957 -0.089323 1.568448
v -0.029579 0.025939 1.764504
v 0.164518 0.017072 1.744899
v 0.021055 0.017072 2.038983
v -0.004262 -0.133654 2.009574
v 0.071689 0.203264 1.784110
v 0.139201 -0.160253 1.793913
v 0.071689 0.291927 1.784110
v -0.038018 0.025939 2.313461
v -0.063335 -0.319846 1.764504
v 0.088567 -0.027259 2.195827
v 0.156079 0.025939 2.087997
v -0.012701 -0.000660 2.372278
v 0.046372 -0.071590 2.362475
v 0.080128 -0.160253 1.980166
v -0.097091 -0.036125 2.137011
v -0.147725 0.079136 1.999771
v -0.038018 -0.115922 2.087997
v 0.054811 -0.053858 2.195827
v -0.139286 0.052538 2.078194
v -0.021140 0.114602 2.205630
v -0.012701 -0.000660 2.372278
v -0.113969 -0.000660 2.352672
v 0.012616 -0.151387 2.097800
v 0.046372 -0.036125 2.303658
v 0.080128 0.008206 2.382081
v -0.046457 -0.169120 1.872335
v -0.021140 -0.461707 1.352787
v 0.147640 -0.798626 1.186139
v -0.012701 -0.036125 1.607659
v -0.198359 -0.115922 1.539040
v -0.004262 0.017072 2.205630
v -0.004262 -0.027259 2.205630
v -0.021140 0.008206 2.205630
v -0.004262 0.034805 1.146928
v -0.046457 0.034805 1.088111
v 1.050615 0.274195 0.431323
v 0.240469 -1.171010 0.392112
v 0.350177 -0.426242 1.568448
v -0.029579 -0.009526 1.656673
v -0.755334 -0.825225 0.539154
v 0.181396 1.089893 0.813633
v -0.181481 -0.984818 0.892055
v 0.341738 -0.913888 0.892055
v -1.033822 0.025939 0.833238
v -0.021140 0.008206 2.195827
v -0.367140 -1.162143 0.392112
v 0.021055 0.017072 1.833124
v 0.696176 0.025939 1.333181
v -0.012701 0.025939 1.891941
v -0.004262 -0.036125 2.029180
v -0.189920 0.628846 1.303773
v -0.004262 0.017072 2.205630
v -0.274310 0.451520 1.627265
v 0.063250 -0.018393 2.303658
v 0.544274 0.079136 1.656673
v 0.004177 -0.036125 1.823321
v -0.291188 -0.665632 1.264561
v -0.004262 0.008206 2.372278
v -0.240554 -0.133654 1.901744
v -0.139286 -0.240050 1.970363
v 0.113884 0.238730 1.989969
v 0.265787 -0.027259 1.921349
v 0.004177 -0.027259 2.127208
v -0.004262 0.008206 2.137011
v 0.240469 0.096869 1.989969
v 0.054811 -0.266649 1.960560
v 0.029494 0.176666 2.097800
v -0.122408 -0.062724 2.078194
v -0.164603 -0.133654 2.009574
v -0.038018 -0.053858 2.313461
v -0.012701 0.070270 2.303658
v -0.831285 0.664311 0.548957
v -1.042261 0.167799 0.548957
v 0.907152 0.309660 1.029294
v -0.561237 -0.089323 1.568448
v 0.527396 -0.630166 1.225350
v -0.805968 0.061404 1.284167
v -0.763773 0.557916 0.970477
v -0.907237 -0.497172 0.833238
v -0.038018 0.025939 2.313461
v 0.156079 0.025939 2.087997
v 0.046372 -0.036125 2.303658
v -0.004262 0.088003 0.000000
v 0.291104 -0.009526 0.333295
v 0.291104 -0.000660 0.333295
v 0.206713 -0.000660 0.392112
v 0.291104 -0.009526 0.343098
v -0.181481 0.238730 0.392112
v -0.130847 0.158933 0.431323
v -0.122408 0.265328 0.382309
v -0.122408 0.274195 0.382309
v -0.164603 0.247596 0.401915
v -0.181481 0.238730 0.401915
v -0.173042 0.238730 0.392112
v -0.173042 0.247596 0.401915
v -0.164603 0.247596 0.401915
v -0.173042 0.238730 0.392112
v -0.240554 0.238730 0.421520
v -0.240554 0.238730 0.421520
v -0.240554 0.238730 0.421520
v 0.097006 -0.195718 0.539154
v 0.097006 -0.195718 0.529351
v 0.097006 -0.195718 0.539154
v 0.105445 -0.186852 0.529351
v 0.097006 -0.195718 0.529351
v -0.164603 -0.009526 0.235267
v -0.156164 -0.009526 0.235267
v -0.164603 -0.009526 0.235267
v -0.164603 -0.009526 0.235267
v -0.156164 -0.009526 0.235267
v 0.147640 -0.798626 1.186139
v 1.033737 -0.257783 0.401915
v 0.687737 0.841637 0.813633
v 0.164518 0.495852 1.529237
v 0.417689 0.345125 1.578251
v -1.042261 -0.355311 0.539154
v 0.924030 -0.204585 1.029294
v -0.029579 -0.036125 1.421406
v -0.038018 0.017072 1.401801
v 0.679298 0.495852 1.186139
v 0.797444 -0.692231 0.666590
v 0.198274 0.619980 1.333181
v 0.594908 -0.346445 1.342984
v -0.434652 -0.337579 1.578251
v -0.519042 0.212131 1.588054
v 0.493640 -0.222317 1.656673
v -0.662505 0.442654 1.284167
v 0.198274 -0.107056 2.038983
v -0.012701 0.017072 2.195827
v -0.054896 -0.062724 2.313461
v -0.021140 0.265328 1.931152
v -0.265871 0.061404 1.891941
v 0.097006 -0.151387 2.107602
v -0.097091 -0.169120 2.107602
v -0.552798 -0.426242 1.235153
v -0.012701 -0.036125 1.921349
v -0.004262 -0.009526 2.480109
v -0.021140 0.034805 1.048900
v -0.299627 1.010096 0.568562
v 0.307982 0.983498 0.568562
v 1.025298 -0.177986 0.666590
v -0.012701 -0.000660 2.489911
v -0.341822 0.859370 0.970477
v 0.316421 0.744108 1.127322
v 0.021055 0.522451 1.656673
v -0.232115 -0.523771 1.597857
v 0.189835 -0.204585 1.921349
v -0.198359 0.185532 1.931152
v -0.223676 0.017072 2.019377
v -0.097091 0.132334 2.087997
v 0.080128 -0.222317 2.038983
v 0.097006 -0.541504 1.539040
vt 0.100000 0.075000
vt 0.070833 0.091667
vt 0.100000 0.108333
vt 0.533333 0.127083
vt 0.527083 0.464583
vt 0.504167 0.464583
vt 0.070833 0.058333
vt 0.041667 0.075000
vt 0.510417 0.127083
vt 0.483333 0.464583
vt 0.575000 0.127083
vt 0.577083 0.464583
vt 0.552083 0.464583
vt 0.614583 0.127083
vt 0.622917 0.464583
vt 0.600000 0.464583
vt 0.710417 0.012500
vt 0.716667 0.291667
vt 0.737500 0.291667
vt 0.827083 0.052083
vt 0.800000 0.054167
vt 0.825000 0.466667
vt 0.500000 0.518750
vt 0.000000 0.518750
vt 0.000000 0.758333
vt 0.852083 0.052083
vt 0.839583 0.466667
vt 0.895833 0.052083
vt 0.889583 0.466667
vt 0.906250 0.466667
vt 0.856250 0.466667
vt 0.872917 0.466667
vt 0.872917 0.052083
vt 0.920833 0.052083
vt 0.920833 0.466667
vt 0.683333 0.012500
vt 0.693750 0.291667
vt 0.791667 0.012500
vt 0.764583 0.012500
vt 0.758333 0.291667
vt 0.737500 0.012500
vt 0.656250 0.012500
vt 0.672917 0.291667
vt 0.781250 0.291667
vt 0.800000 0.291667
vt 0.500000 0.758333
vt 0.500000 0.995833
vt 0.997917 0.995833
vt 0.997917 0.518750
vt 0.000000 0.995833
vt 0.997917 0.758333
vt 0.443750 0.514583
vt 0.222917 0.514583
vt 0.222917 0.366667
vt 0.566667 0.758333
vt 0.566667 0.995833
vt 0.566667 0.518750
vt 0.222917 0.214583
vt 0.443750 0.214583
vt 0.443750 0.366667
vt 0.710417 0.370833
vt 0.681250 0.283333
vt 0.697917 0.277083
vt 0.729167 0.366667
vt 0.718750 0.275000
vt 0.735417 0.272917
vt 0.758333 0.368750
vt 0.747917 0.366667
vt 0.756250 0.275000
vt 0.718750 0.368750
vt 0.766667 0.370833
vt 0.777083 0.277083
vt 0.737500 0.364583
vt 0.000000 0.366667
vt 0.000000 0.214583
vt 0.000000 0.514583
vt 0.825000 0.012500
vt 0.070833 0.125000
vt 0.737500 0.462500
vt 0.872917 0.012500
vt 0.920833 0.012500
vt 0.945833 0.054167
vt 0.895833 0.012500
vt 0.797917 0.014583
vt 0.850000 0.012500
vt 0.347917 0.060417
vt 0.345833 0.172917
vt 0.333333 0.172917
vt 0.270833 0.145833
vt 0.270833 0.193750
vt 0.258333 0.152083
vt 0.791667 0.014583
vt 0.791667 0.227083
vt 0.777083 0.227083
vt 0.337500 0.060417
vt 0.318750 0.170833
vt 0.335417 0.039583
vt 0.325000 0.058333
vt 0.804167 0.014583
vt 0.808333 0.225000
vt 0.368750 0.060417
vt 0.381250 0.060417
vt 0.387500 0.170833
vt 0.220833 0.070833
vt 0.243750 0.129167
vt 0.212500 0.072917
vt 0.733333 0.227083
vt 0.716667 0.225000
vt 0.720833 0.014583
vt 0.360417 0.064583
vt 0.372917 0.172917
vt 0.362500 0.043750
vt 0.372917 0.039583
vt 0.745833 0.227083
vt 0.733333 0.014583
vt 0.393750 0.060417
vt 0.400000 0.170833
vt 0.391667 0.035417
vt 0.762500 0.227083
vt 0.747917 0.014583
vt 0.358333 0.175000
vt 0.777083 0.014583
vt 0.237500 0.072917
vt 0.250000 0.156250
vt 0.293750 0.156250
vt 0.279167 0.145833
vt 0.316667 0.081250
vt 0.289583 0.137500
vt 0.308333 0.079167
vt 0.247917 0.072917
vt 0.264583 0.072917
vt 0.302083 0.072917
vt 0.291667 0.072917
vt 0.275000 0.079167
vt 0.266667 0.081250
vt 0.283333 0.072917
vt 0.550000 0.164583
vt 0.535417 0.018750
vt 0.543750 0.164583
vt 0.762500 0.016667
vt 0.556250 0.162500
vt 0.522917 0.164583
vt 0.516667 0.164583
vt 0.529167 0.164583
vt 0.535417 0.164583
vt 0.452083 0.068750
vt 0.437500 0.066667
vt 0.439583 0.158333
vt 0.412500 0.077083
vt 0.475000 0.164583
vt 0.487500 0.077083
vt 0.472917 0.077083
vt 0.266667 0.060417
vt 0.256250 0.016667
vt 0.241667 0.031250
vt 0.431250 0.016667
vt 0.416667 0.027083
vt 0.447917 0.027083
vt 0.450000 0.158333
vt 0.164583 0.187500
vt 0.168750 0.085417
vt 0.154167 0.085417
vt 0.129167 0.083333
vt 0.145833 0.189583
vt 0.293750 0.031250
vt 0.285417 0.029167
vt 0.268750 0.014583
vt 0.127083 0.064583
vt 0.150000 0.072917
vt 0.150000 0.025000
vt 0.177083 0.189583
vt 0.191667 0.083333
vt 0.206250 0.085417
vt 0.175000 0.037500
vt 0.208333 0.037500
vt 0.175000 0.056250
vt 0.191667 0.066667
vt 0.041667 0.108333
vt 0.491667 0.127083
vt 0.552083 0.127083
vt 0.593750 0.127083
vt 0.818750 0.012500
vt 0.793750 0.283333
vt 0.947917 0.014583
vt 0.325000 0.035417
vt 0.379167 0.035417
vt 0.347917 0.043750
vt 0.427083 0.166667
vt 0.466667 0.164583
vt 0.416667 0.043750
vt 0.447917 0.043750
vt 0.431250 0.054167
vt 0.158333 0.185417
vt 0.127083 0.016667
vt 0.185417 0.189583
vt 0.191667 0.027083
vt 0.208333 0.056250
vn 0.000000 0.000000 -1.000000
vn 0.999400 0.000000 0.035100
vn 0.465000 0.885200 0.016300
vn -0.573700 -0.819000 0.010100
vn 0.465000 -0.885200 0.016300
vn -0.573600 0.819000 0.015100
vn 0.465000 -0.885200 0.013600
vn 0.465000 0.885200 0.015000
vn 0.230000 -0.382800 0.894800
vn 0.999900 0.000000 0.016100
vn -0.999900 0.000000 0.016100
vn 0.465000 -0.885200 0.015000
vn -0.465000 -0.885200 0.015000
vn -0.465000 0.885200 0.015000
vn 1.000000 0.000000 0.000000
vn -0.999900 0.000000 0.014600
vn -0.573600 -0.819000 0.012600
vn 0.465000 0.885200 0.013600
vn -0.573600 0.818900 0.020900
vn -0.260300 0.513400 0.817700
vn 0.566100 -0.016900 0.824200
vn 0.305500 0.482400 0.821000
vn -0.331800 0.622600 0.708700
vn 0.379800 0.269400 0.885000
vn 0.272200 0.295100 0.915900
vn 0.354400 -0.387600 0.851000
vn 0.454700 0.003400 0.890700
vn 0.155600 -0.462000 0.873100
vn 0.413800 -0.312700 0.855000
vn 0.434400 -0.114900 0.893400
vn -0.253300 -0.560100 0.788800
vn -0.552200 0.234700 0.800000
vn -0.139500 -0.896500 0.420500
vn 0.367400 -0.451400 0.813200
vn -0.329400 0.350200 0.876800
vn -0.209800 0.569500 0.794800
vn -0.057500 -0.422500 0.904500
vn 0.578400 0.266400 0.771000
vn 0.070300 0.388800 0.918600
vn -0.327700 0.382400 0.863900
vn 0.487500 -0.269000 0.830700
vn 0.435400 0.182300 0.881600
vn 0.297000 -0.416200 0.859400
vn 0.223500 -0.462600 0.858000
vn -0.091700 -0.507500 0.856800
vn -0.369600 -0.245600 0.896100
vn 0.423000 -0.165000 0.891000
vn -0.411600 -0.417000 0.810400
vn -0.570300 0.336100 0.749600
vn -0.262200 0.313900 0.912600
vn 0.487300 0.003000 0.873200
vn -0.027100 0.606400 0.794700
vn -0.464900 0.266300 0.844400
vn -0.530700 -0.589300 0.609200
vn 0.597000 0.001000 0.802300
vn 0.040000 -0.556300 0.830000
vn -0.423800 -0.289700 0.858200
vn -0.323600 0.493500 0.807300
vn -0.469600 -0.040600 0.882000
vn 0.537000 0.405800 0.739600
vn 0.550200 -0.466300 0.692700
vn 0.635800 0.043600 0.770600
vn 0.348600 0.463000 0.814900
vn 0.198100 -0.621500 0.757900
vn 0.319000 -0.415900 0.851600
vn -0.043800 0.653200 0.756000
vn -0.796400 -0.124400 0.591900
vn -0.126100 -0.734300 0.667000
vn -0.370900 0.218300 0.902700
vn -0.795300 0.225300 0.562900
vn -0.464400 0.884000 0.053300
vn -0.463600 -0.882500 0.079800
vn 0.998400 0.000000 0.057300
vn -0.998400 0.000000 0.057300
vn 0.721800 0.687100 0.082900
vn 0.462400 -0.880300 0.106200
vn -0.405300 0.141400 0.903200
vn -0.156400 0.511900 0.844700
vn 0.063300 0.605800 0.793100
vn 0.901100 0.257300 0.349100
vn 0.261800 0.494900 0.828600
vn 0.234800 -0.630200 0.740100
vn -0.148600 0.599100 0.786700
vn -0.807600 -0.095000 0.582000
vn 0.160200 -0.567700 0.807500
vn 0.570200 0.310900 0.760400
vn -0.767900 0.066400 0.637100
vn -0.932800 -0.329800 0.145300
vn -0.416200 -0.521300 0.745000
vn 0.676800 -0.065100 0.733200
vn 0.232000 0.531100 0.815000
vn -0.244700 -0.913800 0.324100
vn -0.550200 -0.315300 0.773300
vn -0.650100 0.398800 0.646800
vn -0.496800 -0.633500 0.593200
vn 0.045800 0.660000 0.749900
vn 0.582400 0.238400 0.777200
vn 0.162100 -0.530800 0.831800
vn 0.766000 0.060000 0.640000
vn 0.287500 0.580000 0.762200
vn -0.502800 0.414100 0.758800
vn 0.148700 0.737900 0.658300
vn 0.597800 -0.082000 0.797400
vn 0.450700 -0.500500 0.739100
vn -0.743300 0.594300 0.307100
vn 0.497600 -0.621600 0.605000
vn 0.277500 0.781200 0.559200
vn 0.121000 -0.793600 0.596200
vn -0.803200 -0.446400 0.394500
vn 0.453700 0.673700 0.583300
vn -0.368600 -0.674700 0.639500
vn 0.399100 -0.379900 0.834500
vn -0.782700 0.225700 0.580000
vn -0.334400 -0.572800 0.748400
vn 0.528700 -0.386600 0.755700
vn -0.798100 -0.513300 0.315700
vn 0.267000 0.917800 0.293700
vn -0.893800 -0.303800 0.329800
vn -0.893800 0.303800 0.329800
vn -0.564200 0.485600 0.667700
vn 0.728400 -0.603900 0.323700
vn -0.173800 -0.702800 0.689800
vn -0.314600 0.483200 0.817000
vn -0.046300 0.415100 0.908600
vn -0.327500 -0.260800 0.908100
vn 0.201200 0.323800 0.924500
vn -0.475400 -0.035800 0.879100
vn 0.001700 0.621200 0.783600
vn -0.316000 -0.513600 0.797700
vn -0.408100 0.261200 0.874800
vn 0.430100 0.221400 0.875200
vn 0.064800 -0.248700 0.966400
vn -0.284500 -0.128000 0.950100
vn -0.384000 -0.521500 0.762000
vn -0.568000 -0.003400 0.823000
vn -0.578100 -0.173500 0.797300
vn 0.475200 0.326700 0.816900
vn -0.432400 -0.015500 0.901500
vn 0.393100 0.806000 0.442600
vn 0.741300 0.470400 0.478700
vn 0.237200 0.629900 0.739600
vn -0.067700 -0.400900 0.913600
vn 0.448300 0.308900 0.838800
vn -0.328200 0.609600 0.721600
vn 0.222500 0.593000 0.773900
vn 0.586200 -0.415200 0.695700
vn 0.742800 0.228700 0.629300
vn 0.945500 0.000000 0.325600
vn -0.119000 -0.749100 0.651700
vn 0.416500 0.508200 0.753800
vn -0.905300 0.340700 0.253700
vn 0.230300 -0.722900 0.651400
vn 0.838400 0.038300 0.543800
vn 0.923400 0.241700 0.298100
vn 0.182600 -0.590800 0.785900
vn -0.592000 0.496200 0.635100
vn -0.594200 0.216700 0.774500
vn 0.362300 -0.652800 0.665300
vn 0.391100 0.372200 0.841700
vn -0.612800 0.183300 0.768700
vn -0.687500 0.506600 0.520300
vn -0.372000 -0.844200 0.385900
vn -0.033700 -0.656700 0.753400
vn -0.723700 0.688800 0.041500
vn 0.723700 0.688800 0.041500
vn 0.672400 -0.620600 0.403400
vn 0.000000 -0.998200 0.060200
vn -0.442900 -0.843100 0.305000
vn -0.442900 0.843100 0.305000
vn -0.945500 0.000000 0.325600
vn 0.442900 0.843100 0.305000
vn 0.442900 -0.843100 0.305000
vn -0.999800 0.000000 0.017600
vn -0.000000 -1.000000 0.000000
vn 0.666600 0.475800 0.573800
vn -0.301700 0.287200 -0.909100
vn 0.000000 0.000000 1.000000
vn -0.315000 0.000000 -0.949100
vn -0.458700 0.000000 -0.888600
vn -0.961200 0.000000 -0.275800
vn -0.301700 -0.287200 -0.909100
vn 0.195200 0.805100 0.560100
vn 0.263100 -0.715500 0.647200
vn -0.502200 0.000000 -0.864700
vn 0.315000 0.000000 0.949100
vn 0.458700 0.000000 0.888600
vn 0.757900 0.000000 0.652400
vn 0.263100 0.715500 0.647200
vn 0.000000 0.638300 0.769800
vn 0.000000 -0.266400 -0.963900
vn -0.666600 -0.475800 0.573800
vn 0.983600 0.133700 -0.121000
vn -0.453100 -0.431300 -0.780200
vn 0.502200 0.000000 0.864700
vn 0.363000 0.691100 -0.625000
vn 0.753900 0.102500 -0.649000
vn -0.795600 -0.605800 0.000000
vn -0.872500 0.488500 0.000000
vn 0.000000 0.266400 0.963900
vn 0.243200 0.231400 -0.942000
vn -0.614600 -0.585000 -0.529100
vn 0.695500 0.397200 -0.598800
vn 0.836800 -0.547600 0.000000
vn 0.000000 0.282800 0.959200
vn 0.000000 -0.483800 0.875200
vn -0.656900 0.000000 0.754000
vn 0.000000 0.428200 0.903700
vn -0.881800 0.349700 0.316300
vn 0.643400 -0.765500 0.000000
vn 0.571800 0.000000 -0.820400
vn 0.192100 -0.639900 -0.744100
vn -0.488500 0.813600 -0.315400
vn 0.000000 0.483800 0.875200
vn 0.000000 -0.741600 -0.670800
vn -0.261100 -0.559200 -0.786800
vn 0.000000 0.741600 0.670800
vn 0.465100 -0.885300 0.000000
vn -1.000000 0.000000 0.000000
vn 0.257300 0.816400 0.516900
vn 0.278900 0.000000 0.960300
vn 0.000000 -0.414300 0.910100
vn -0.235400 0.224100 -0.945700
vn 0.614600 0.585000 -0.529100
vn -0.851500 -0.524400 0.000000
vn 0.715700 0.085200 0.693200
vn 0.614600 -0.585000 -0.529100
vn -0.407900 0.000000 0.913000
vn 0.177000 0.729900 -0.660200
vn -0.058200 0.997000 -0.050100
vn 0.006600 -0.772100 0.635400
vn -0.562300 -0.148700 0.813500
vn 0.015400 -0.272200 0.962100
vn 0.092400 -0.435100 0.895600
vn -0.390000 -0.538300 0.747100
vn -0.237900 0.399200 -0.885500
vn 0.272200 -0.519800 -0.809800
vn -0.493900 0.022300 -0.869200
vn -0.317200 -0.487200 -0.813700
vn 0.223000 -0.442400 -0.868600
vn -0.383900 -0.279700 -0.880000
vn -0.251800 -0.258400 -0.932600
vn -0.354400 0.387600 -0.851000
vn -0.454700 -0.003400 -0.890700
vn -0.368200 0.534700 -0.760700
vn -0.413800 0.312700 -0.855000
vn -0.522500 0.115100 -0.844900
vn 0.263600 0.519400 -0.812900
vn 0.399400 -0.132200 -0.907200
vn 0.265400 0.909500 -0.319900
vn -0.367400 0.451400 -0.813200
vn 0.326500 -0.215300 -0.920400
vn 0.287600 -0.597500 -0.748500
vn 0.036200 0.585500 -0.809900
vn -0.261900 -0.298900 -0.917700
vn 0.163200 -0.620300 -0.767200
vn 0.362300 -0.433800 -0.825000
vn -0.442700 0.153900 -0.883400
vn -0.475000 -0.299500 -0.827500
vn -0.227500 0.309400 -0.923300
vn -0.409800 0.506100 -0.758900
vn 0.258600 0.601000 -0.756300
vn 0.496700 0.330000 -0.802700
vn -0.565800 0.220700 -0.794500
vn 0.412500 0.442300 -0.796400
vn 0.494200 -0.222600 -0.840300
vn 0.397500 -0.446000 -0.801900
vn -0.292300 -0.040000 -0.955500
vn 0.095100 -0.519700 -0.849000
vn 0.555400 -0.238600 -0.796600
vn 0.542000 0.257900 -0.799800
vn -0.597000 -0.001000 -0.802300
vn -0.032100 0.347300 -0.937200
vn 0.423800 0.289700 -0.858200
vn 0.431300 -0.505400 -0.747300
vn 0.585600 0.490500 -0.645300
vn -0.248200 -0.227700 -0.941600
vn -0.560600 0.275800 -0.780800
vn -0.732000 -0.280800 -0.620800
vn -0.403600 -0.509000 -0.760300
vn -0.144700 0.422700 -0.894600
vn -0.150500 0.428100 -0.891100
vn 0.098900 -0.741100 -0.664000
vn 0.547800 0.276500 -0.789600
vn 0.292700 0.512800 -0.807100
vn 0.622500 -0.396400 -0.674900
vn 0.664800 -0.196700 -0.720600
vn 0.701100 -0.244700 -0.669700
vn 0.158900 -0.518500 -0.840200
vn -0.006000 -0.572200 -0.820100
vn -0.963200 -0.159400 -0.216300
vn -0.325400 -0.558900 -0.762800
vn -0.146700 0.430200 -0.890800
vn 0.125200 -0.294800 -0.947300
vn 0.581400 0.242100 -0.776800
vn -0.234800 0.721700 -0.651200
vn -0.531600 -0.322200 -0.783300
vn 0.612800 0.065700 -0.787500
vn 0.860000 -0.074400 -0.504800
vn 0.390900 0.466400 -0.793500
vn -0.676800 0.065100 -0.733200
vn -0.177800 -0.711700 -0.679700
vn 0.146000 0.886100 -0.440000
vn 0.550200 0.315300 -0.773300
vn 0.498200 -0.186100 -0.846900
vn 0.006200 0.510500 -0.859800
vn -0.045700 -0.663100 -0.747200
vn -0.582400 -0.238400 -0.777200
vn -0.347300 0.680200 -0.645500
vn -0.516400 0.196600 -0.833500
vn -0.287500 -0.580000 -0.762200
vn 0.539300 -0.452900 -0.710000
vn -0.025800 -0.601000 -0.798800
vn -0.643100 0.094600 -0.759900
vn -0.453800 0.504000 -0.734900
vn 0.786600 -0.355300 -0.505000
vn -0.536100 0.631000 -0.560800
vn -0.271100 -0.796000 -0.541200
vn -0.195500 0.565700 -0.801100
vn 0.790200 0.378800 -0.481700
vn -0.371500 -0.811200 -0.451500
vn 0.442800 0.709300 -0.548500
vn -0.751200 0.224900 -0.620600
vn 0.681500 -0.206800 -0.702000
vn 0.339400 0.638700 -0.690600
vn -0.492900 0.392700 -0.776400
vn 0.791000 0.537800 -0.291800
vn -0.267000 -0.917800 -0.293700
vn 0.858700 0.467000 -0.211200
vn 0.886000 -0.361400 -0.290600
vn 0.521800 -0.195600 -0.830300
vn -0.668900 0.636600 -0.383900
vn 0.156300 0.688300 -0.708400
vn 0.313800 -0.491500 -0.812300
vn 0.042600 -0.381900 -0.923200
vn 0.295300 0.235200 -0.926000
vn -0.261800 -0.435500 -0.861300
vn 0.385800 -0.057700 -0.920800
vn 0.024200 -0.662900 -0.748300
vn 0.317700 0.515800 -0.795600
vn 0.317000 -0.202900 -0.926500
vn -0.334000 -0.172000 -0.926800
vn -0.342800 0.249800 -0.905600
vn 0.510800 0.339300 -0.789900
vn 0.177200 0.456400 -0.872000
vn 0.604200 -0.029200 -0.796300
vn 0.546100 0.136300 -0.826600
vn -0.288700 -0.189400 -0.938500
vn 0.671200 0.024100 -0.740900
vn -0.282400 -0.921600 -0.266300
vn -0.915200 -0.282500 -0.287500
vn -0.157800 -0.418900 -0.894200
vn 0.113400 0.566600 -0.816100
vn -0.398700 -0.325500 -0.857400
vn 0.248300 -0.430200 -0.867900
vn -0.108500 -0.561300 -0.820400
vn -0.579100 0.248700 -0.776400
vn -0.641300 -0.027500 -0.766800
vn 0.295700 0.512600 -0.806100
vn -0.178200 -0.279800 -0.943400
vn 0.894800 -0.414300 -0.166500
vn -0.159400 0.566100 -0.808800
vn -0.838400 -0.038300 -0.543800
vn -0.662800 -0.471600 -0.581700
vn -0.199700 0.646100 -0.736600
vn 0.238800 -0.500000 -0.832500
vn 0.579800 -0.213400 -0.786300
vn -0.351900 0.513600 -0.782600
vn -0.763900 -0.192200 -0.616000
vn 0.630100 -0.195100 -0.751600
vn 0.680700 -0.611600 -0.403200
vn 0.121000 0.771400 -0.624800
vn 0.046600 0.717100 -0.695400
vn -0.730700 0.601500 -0.323000
vn -0.456400 0.817800 -0.350600
vn 0.663100 0.370500 -0.650400
vn 0.182000 0.507700 -0.842100
vn 0.051400 0.579700 -0.813200
vn 0.339200 0.468100 -0.816000
vn -0.465000 -0.885200 0.016300
vn -0.465000 0.885300 0.008200
vn 0.237900 -0.399200 0.885500
vn -0.465000 -0.885100 0.020400
vn -0.465000 0.885200 0.013600
vn -0.272200 0.519800 0.809800
vn 0.493900 -0.022300 0.869200
vn 0.317200 0.487200 0.813700
vn -0.223000 0.442400 0.868600
vn 0.383900 0.279700 0.880000
vn 0.251800 0.258400 0.932600
vn 0.368200 -0.534700 0.760700
vn 0.522500 -0.115100 0.844900
vn -0.263600 -0.519400 0.812900
vn -0.399400 0.132200 0.907200
vn -0.265400 -0.909500 0.319900
vn -0.326500 0.215300 0.920400
vn -0.287600 0.597500 0.748500
vn -0.036200 -0.585500 0.809900
vn 0.261900 0.298900 0.917700
vn -0.163200 0.620300 0.767200
vn -0.362300 0.433800 0.825000
vn 0.442700 -0.153900 0.883400
vn 0.475000 0.299500 0.827500
vn 0.227500 -0.309400 0.923300
vn 0.409800 -0.506100 0.758900
vn -0.258600 -0.601000 0.756300
vn -0.496700 -0.330000 0.802700
vn 0.565800 -0.220700 0.794500
vn -0.412500 -0.442300 0.796400
vn -0.494200 0.222600 0.840300
vn -0.397500 0.446000 0.801900
vn 0.292300 0.040000 0.955500
vn -0.095100 0.519700 0.849000
vn -0.555400 0.238600 0.796600
vn -0.542000 -0.257900 0.799800
vn 0.032100 -0.347300 0.937200
vn -0.431300 0.505400 0.747300
vn -0.585600 -0.490500 0.645300
vn 0.248200 0.227700 0.941600
vn 0.560600 -0.275800 0.780800
vn 0.732000 0.280800 0.620800
vn 0.403600 0.509000 0.760300
vn 0.144700 -0.422700 0.894600
vn 0.150500 -0.428100 0.891100
vn -0.098900 0.741100 0.664000
vn -0.547800 -0.276500 0.789600
vn -0.292700 -0.512800 0.807100
vn -0.622500 0.396400 0.674900
vn -0.664800 0.196700 0.720600
vn -0.721900 0.687100 0.082900
vn 0.000000 -0.992800 0.119700
vn 0.464400 0.884000 0.053300
vn -0.701100 0.244700 0.669700
vn -0.158900 0.518500 0.840200
vn 0.006000 0.572200 0.820100
vn 0.963200 0.159400 0.216300
vn 0.325400 0.558900 0.762800
vn 0.146700 -0.430200 0.890800
vn -0.125200 0.294800 0.947300
vn -0.581400 -0.242100 0.776800
vn 0.234800 -0.721700 0.651200
vn 0.531600 0.322200 0.783300
vn -0.612800 -0.065700 0.787500
vn -0.860000 0.074400 0.504800
vn -0.390900 -0.466400 0.793500
vn 0.177800 0.711700 0.679700
vn -0.146000 -0.886100 0.440000
vn -0.498200 0.186100 0.846900
vn -0.006200 -0.510500 0.859800
vn 0.045700 0.663100 0.747200
vn 0.347300 -0.680200 0.645500
vn 0.516400 -0.196600 0.833500
vn -0.539300 0.452900 0.710000
vn 0.025800 0.601000 0.798800
vn 0.643100 -0.094600 0.759900
vn 0.453800 -0.504000 0.734900
vn -0.786600 0.355300 0.505000
vn 0.536100 -0.631000 0.560800
vn 0.271100 0.796000 0.541200
vn 0.195500 -0.565700 0.801100
vn -0.790200 -0.378800 0.481700
vn 0.371500 0.811200 0.451500
vn -0.442800 -0.709300 0.548500
vn 0.751200 -0.224900 0.620600
vn -0.681500 0.206800 0.702000
vn -0.339400 -0.638700 0.690600
vn 0.492900 -0.392700 0.776400
vn -0.791000 -0.537800 0.291800
vn -0.858700 -0.467000 0.211200
vn -0.886000 0.361400 0.290600
vn -0.521800 0.195600 0.830300
vn 0.668900 -0.636600 0.383900
vn -0.156300 -0.688300 0.708400
vn -0.313800 0.491500 0.812300
vn -0.042600 0.381900 0.923200
vn -0.295300 -0.235200 0.926000
vn 0.261800 0.435500 0.861300
vn -0.385800 0.057700 0.920800
vn -0.024200 0.662900 0.748300
vn -0.317700 -0.515800 0.795600
vn -0.317000 0.202900 0.926500
vn 0.334000 0.172000 0.926800
vn 0.342800 -0.249800 0.905600
vn -0.510800 -0.339300 0.789900
vn -0.177200 -0.456400 0.872000
vn -0.604200 0.029200 0.796300
vn -0.546100 -0.136300 0.826600
vn 0.288700 0.189400 0.938500
vn -0.671200 -0.024100 0.740900
vn 0.282400 0.921600 0.266300
vn 0.915200 0.282500 0.287500
vn 0.157800 0.418900 0.894200
vn -0.113400 -0.566600 0.816100
vn 0.398700 0.325500 0.857400
vn -0.248300 0.430200 0.867900
vn 0.108500 0.561300 0.820400
vn 0.579100 -0.248700 0.776400
vn 0.641300 0.027500 0.766800
vn -0.295700 -0.512600 0.806100
vn 0.178200 0.279800 0.943400
vn -0.894800 0.414300 0.166500
vn 0.159400 -0.566100 0.808800
vn 0.662800 0.471600 0.581700
vn 0.199700 -0.646100 0.736600
vn -0.238800 0.500000 0.832500
vn -0.579800 0.213400 0.786300
vn 0.351900 -0.513600 0.782600
vn 0.763900 0.192200 0.616000
vn -0.630100 0.195100 0.751600
vn -0.680700 0.611600 0.403200
vn -0.121000 -0.771400 0.624800
vn -0.046600 -0.717100 0.695400
vn 0.730700 -0.601500 0.323000
vn 0.000000 1.000000 -0.000000
vn 0.431700 0.821900 0.371700
vn 0.827000 0.562200 0.000000
vn -0.586700 -0.632900 -0.505100
vn -0.161700 0.154000 0.974700
vn 0.603900 0.258700 -0.753900
vn -0.724400 -0.689400 0.000000
vn 0.000000 -0.428200 -0.903700
vn -0.336600 0.000000 0.941700
vn 0.361100 0.000000 -0.932500
vn -0.421400 0.000000 -0.906900
vn -0.453100 0.431300 0.780200
vn -0.614600 0.585000 -0.529100
vn 0.000000 0.741700 -0.670800
vn -0.154000 0.732800 0.662800
vn 0.316700 0.703500 0.636200
vn -0.254000 -0.967200 0.000000
vn 0.861900 0.376000 0.340100
vn 0.000000 0.975400 -0.220500
vn 0.456400 -0.817800 0.350600
vn -0.663100 -0.370500 0.650400
vn -0.182000 -0.507700 0.842100
vn -0.051400 -0.579700 0.813200
vn -0.339200 -0.468100 0.816000
vn -0.230000 0.382800 -0.894800
vn 0.260300 -0.513400 -0.817700
vn -0.566100 0.016900 -0.824200
vn -0.305500 -0.482400 -0.821000
vn 0.331800 -0.622600 -0.708700
vn -0.379800 -0.269400 -0.885000
vn -0.272200 -0.295100 -0.915900
vn -0.155600 0.462000 -0.873100
vn -0.434400 0.114900 -0.893400
vn 0.253300 0.560100 -0.788800
vn 0.552200 -0.234700 -0.800000
vn 0.139500 0.896500 -0.420500
vn 0.329400 -0.350200 -0.876800
vn 0.209800 -0.569500 -0.794800
vn 0.057500 0.422500 -0.904500
vn -0.578400 -0.266400 -0.771000
vn -0.070300 -0.388800 -0.918600
vn 0.327700 -0.382400 -0.863900
vn -0.487500 0.269000 -0.830700
vn -0.435400 -0.182300 -0.881600
vn -0.297000 0.416200 -0.859400
vn -0.223500 0.462600 -0.858000
vn 0.091700 0.507500 -0.856800
vn 0.369600 0.245600 -0.896100
vn -0.423000 0.165000 -0.891000
vn 0.411600 0.417000 -0.810400
vn 0.570300 -0.336100 -0.749600
vn 0.262200 -0.313900 -0.912600
vn -0.487300 -0.003000 -0.873200
vn 0.027100 -0.606400 -0.794700
vn 0.464900 -0.266300 -0.844400
vn 0.530700 0.589300 -0.609200
vn -0.040000 0.556300 -0.830000
vn 0.323600 -0.493500 -0.807300
vn 0.469600 0.040600 -0.882000
vn -0.537000 -0.405800 -0.739600
vn -0.550200 0.466300 -0.692700
vn -0.635800 -0.043600 -0.770600
vn -0.348600 -0.463000 -0.814900
vn -0.198100 0.621500 -0.757900
vn -0.319000 0.415900 -0.851600
vn 0.043800 -0.653200 -0.756000
vn 0.796400 0.124400 -0.591900
vn 0.126100 0.734300 -0.667000
vn 0.370900 -0.218300 -0.902700
vn 0.795300 -0.225300 -0.562900
vn 0.405300 -0.141400 -0.903200
vn 0.156400 -0.511900 -0.844700
vn -0.063300 -0.605800 -0.793100
vn -0.901100 -0.257300 -0.349100
vn -0.261800 -0.494900 -0.828600
vn -0.234800 0.630200 -0.740100
vn 0.148600 -0.599100 -0.786700
vn 0.807600 0.095000 -0.582000
vn -0.160200 0.567700 -0.807500
vn -0.570200 -0.310900 -0.760400
vn 0.767900 -0.066400 -0.637100
vn 0.932800 0.329800 -0.145300
vn 0.416200 0.521300 -0.745000
vn -0.232000 -0.531100 -0.815000
vn 0.244700 0.913800 -0.324100
vn 0.650100 -0.398800 -0.646800
vn 0.496800 0.633500 -0.593200
vn -0.045800 -0.660000 -0.749900
vn -0.162100 0.530800 -0.831800
vn -0.766000 -0.060000 -0.640000
vn 0.502800 -0.414100 -0.758800
vn -0.148700 -0.737900 -0.658300
vn -0.597800 0.082000 -0.797400
vn -0.450700 0.500500 -0.739100
vn 0.743300 -0.594300 -0.307100
vn -0.497600 0.621600 -0.605000
vn -0.277500 -0.781200 -0.559200
vn -0.121000 0.793600 -0.596200
vn 0.803200 0.446400 -0.394500
vn -0.453700 -0.673700 -0.583300
vn 0.368600 0.674700 -0.639500
vn -0.399100 0.379900 -0.834500
vn 0.782700 -0.225700 -0.580000
vn 0.334400 0.572800 -0.748400
vn -0.528700 0.386600 -0.755700
vn 0.798100 0.513300 -0.315700
vn 0.893800 0.303800 -0.329800
vn 0.893800 -0.303800 -0.329800
vn 0.564200 -0.485600 -0.667700
vn -0.728400 0.603900 -0.323700
vn 0.173800 0.702800 -0.689800
vn 0.314600 -0.483200 -0.817000
vn 0.046300 -0.415100 -0.908600
vn 0.327500 0.260800 -0.908100
vn -0.201200 -0.323800 -0.924500
vn 0.475400 0.035800 -0.879100
vn -0.001700 -0.621200 -0.783600
vn 0.316000 0.513600 -0.797700
vn 0.408100 -0.261200 -0.874800
vn -0.430100 -0.221400 -0.875200
vn -0.064800 0.248700 -0.966400
vn 0.284500 0.128000 -0.950100
vn 0.384000 0.521500 -0.762000
vn 0.568000 0.003400 -0.823000
vn 0.578100 0.173500 -0.797300
vn -0.475200 -0.326700 -0.816900
vn 0.432400 0.015500 -0.901500
vn -0.393100 -0.806000 -0.442600
vn -0.741300 -0.470400 -0.478700
vn -0.237200 -0.629900 -0.739600
vn 0.067700 0.400900 -0.913600
vn -0.448300 -0.308900 -0.838800
vn 0.328200 -0.609600 -0.721600
vn -0.222500 -0.593000 -0.773900
vn -0.586200 0.415200 -0.695700
vn -0.742800 -0.228700 -0.629300
vn 0.119000 0.749100 -0.651700
vn -0.416500 -0.508200 -0.753800
vn 0.905300 -0.340700 -0.253700
vn -0.230300 0.722900 -0.651400
vn -0.923400 -0.241700 -0.298100
vn -0.182600 0.590800 -0.785900
vn 0.592000 -0.496200 -0.635100
vn 0.594200 -0.216700 -0.774500
vn -0.362300 0.652800 -0.665300
vn -0.391100 -0.372200 -0.841700
vn 0.612800 -0.183300 -0.768700
vn 0.687500 -0.506600 -0.520300
vn 0.372000 0.844200 -0.385900
vn 0.033700 0.656700 -0.753400
vn -0.672400 0.620600 -0.403400
vn -0.006600 0.772100 -0.635400
vn 0.562300 0.148700 -0.813500
vn -0.015400 0.272200 -0.962100
vn -0.092400 0.435100 -0.895600
vn 0.390000 0.538300 -0.747100
s off
f 1/1/1 3/2/1 2/3/1
f 6/4/2 5/5/2 4/6/2
f 3/2/1 8/7/1 7/8/1
f 10/9/3 4/6/3 9/10/3
f 13/11/4 12/12/4 11/13/4
f 11/13/5 5/5/5 6/4/5
f 16/14/6 15/15/6 14/16/6
f 19/17/7 18/18/7 17/19/7
f 22/20/8 21/21/8 20/22/8
f 25/23/9 24/24/9 23/25/9
f 27/26/10 22/20/10 26/27/10
f 30/28/11 29/29/11 28/30/11
f 27/26/12 32/31/12 31/32/12
f 33/33/13 31/32/13 29/29/13
f 35/34/14 28/30/14 34/35/14
f 37/36/15 36/37/15 18/18/15
f 40/38/16 39/39/16 38/40/16
f 41/41/17 17/19/17 38/40/17
f 43/42/18 42/43/18 36/37/18
f 40/38/19 45/44/19 44/45/19
f 48/46/20 47/47/20 46/48/20
f 51/23/21 50/24/21 49/25/21
f 53/49/22 52/23/22 48/46/22
f 56/25/23 55/50/23 54/47/23
f 59/48/24 58/51/24 57/46/24
f 60/47/25 57/46/25 23/25/25
f 61/49/26 25/23/26 57/46/26
f 63/23/27 62/24/27 56/25/27
f 66/49/28 65/51/28 64/46/28
f 68/23/29 64/46/29 67/25/29
f 71/23/30 70/46/30 69/25/30
f 74/48/31 73/51/31 72/46/31
f 77/23/32 76/24/32 75/25/32
f 80/52/33 79/53/33 78/54/33
f 83/49/34 82/23/34 81/46/34
f 86/49/35 85/23/35 84/46/35
f 89/48/36 88/51/36 87/46/36
f 90/47/37 72/46/37 75/25/37
f 92/49/38 51/23/38 91/46/38
f 94/48/39 93/51/39 91/46/39
f 95/47/40 91/46/40 49/25/40
f 98/49/41 97/23/41 96/46/41
f 100/48/42 99/51/42 96/46/42
f 97/23/43 102/24/43 101/25/43
f 105/49/44 104/51/44 103/55/44
f 103/55/45 104/51/45 106/48/45
f 108/25/46 103/55/46 107/56/46
f 109/57/47 103/55/47 108/25/47
f 112/49/48 111/51/48 110/46/48
f 110/46/49 111/51/49 113/48/49
f 115/25/50 110/46/50 114/47/50
f 118/23/51 117/24/51 116/25/51
f 121/49/52 120/23/52 119/46/52
f 123/48/53 122/51/53 119/46/53
f 126/54/54 125/58/54 124/59/54
f 128/48/55 127/51/55 81/46/55
f 82/23/56 130/24/56 129/25/56
f 67/25/57 64/46/57 131/47/57
f 134/48/58 133/51/58 132/46/58
f 137/59/59 136/60/59 135/54/59
f 140/23/60 139/24/60 138/25/60
f 143/49/61 142/23/61 141/46/61
f 146/48/62 145/51/62 144/46/62
f 148/47/63 141/46/63 147/25/63
f 142/23/64 149/24/64 147/25/64
f 152/49/65 151/51/65 150/46/65
f 154/46/66 54/47/66 153/48/66
f 157/49/67 156/23/67 155/46/67
f 155/46/68 159/47/68 158/48/68
f 160/47/69 87/46/69 138/25/69
f 156/23/70 162/24/70 161/25/70
f 165/61/71 164/62/71 163/63/71
f 168/64/72 167/65/72 166/66/72
f 171/67/73 170/68/73 169/69/73
f 168/64/74 172/70/74 163/63/74
f 174/71/75 171/67/75 173/72/75
f 175/73/76 166/66/76 169/69/76
f 177/47/77 132/46/77 176/25/77
f 180/23/78 179/24/78 178/25/78
f 182/49/79 181/23/79 132/46/79
f 185/74/80 184/54/80 183/58/80
f 187/47/81 144/46/81 186/25/81
f 189/23/82 188/24/82 186/25/82
f 85/23/83 191/24/83 190/25/83
f 194/49/84 193/23/84 192/46/84
f 196/47/85 192/46/85 195/25/85
f 197/49/86 63/23/86 154/46/86
f 199/52/87 198/53/87 126/54/87
f 202/54/88 201/58/88 200/59/88
f 204/58/89 135/54/89 203/74/89
f 207/74/90 206/75/90 205/58/90
f 210/52/91 209/60/91 208/54/91
f 79/53/92 212/76/92 211/74/92
f 215/74/93 214/54/93 213/58/93
f 217/52/94 216/53/94 135/54/94
f 218/59/95 213/58/95 214/54/95
f 220/53/96 208/54/96 219/74/96
f 223/58/97 222/54/97 221/74/97
f 225/52/98 224/60/98 214/54/98
f 222/54/99 223/58/99 226/59/99
f 229/53/100 228/76/100 227/74/100
f 216/53/101 230/76/101 203/74/101
f 232/52/102 229/53/102 231/54/102
f 219/74/103 208/54/103 233/58/103
f 234/53/104 214/54/104 215/74/104
f 236/52/105 235/53/105 202/54/105
f 239/74/106 238/75/106 237/58/106
f 242/53/107 241/54/107 240/74/107
f 245/52/108 244/53/108 243/54/108
f 201/58/109 202/54/109 246/74/109
f 248/52/110 247/60/110 241/54/110
f 250/53/111 249/76/111 239/74/111
f 252/59/112 251/60/112 243/54/112
f 193/23/113 253/24/113 195/25/113
f 125/58/114 126/54/114 254/74/114
f 256/49/115 255/51/115 70/46/115
f 259/53/116 258/54/116 257/74/116
f 260/53/117 184/54/117 185/74/117
f 262/52/118 261/60/118 258/54/118
f 258/54/119 261/60/119 263/59/119
f 265/49/120 180/23/120 264/46/120
f 267/59/121 266/60/121 78/54/121
f 70/46/122 255/51/122 268/48/122
f 271/46/123 270/51/123 269/48/123
f 273/25/124 271/46/124 272/47/124
f 274/23/125 271/46/125 273/25/125
f 275/47/126 96/46/126 101/25/126
f 84/46/127 277/47/127 276/48/127
f 280/48/128 279/51/128 278/46/128
f 281/47/129 264/46/129 178/25/129
f 283/25/130 282/50/130 47/47/130
f 52/23/131 284/24/131 283/25/131
f 286/23/132 150/46/132 285/25/132
f 277/47/133 84/46/133 190/25/133
f 287/48/134 131/47/134 64/46/134
f 288/49/135 77/23/135 72/46/135
f 289/49/136 270/51/136 271/46/136
f 129/25/137 291/50/137 290/47/137
f 293/47/138 119/46/138 292/25/138
f 295/52/139 294/60/139 184/54/139
f 184/54/140 294/60/140 296/59/140
f 120/23/141 297/24/141 292/25/141
f 298/23/142 110/46/142 115/25/142
f 299/49/143 118/23/143 278/46/143
f 116/25/144 301/50/144 300/47/144
f 302/49/145 140/23/145 87/46/145
f 303/49/146 189/23/146 144/46/146
f 141/46/147 148/47/147 304/48/147
f 305/77/148 22/20/148 27/26/148
f 306/78/1 2/3/1 3/2/1
f 192/46/149 196/47/149 307/48/149
f 181/23/150 308/24/150 176/25/150
f 257/74/151 258/54/151 309/58/151
f 161/25/152 310/50/152 159/47/152
f 240/74/153 241/54/153 311/58/153
f 312/59/154 311/58/154 241/54/154
f 314/53/155 313/76/155 221/74/155
f 231/54/156 316/58/156 315/59/156
f 227/74/157 317/75/157 316/58/157
f 318/52/158 314/53/158 222/54/158
f 208/54/159 209/60/159 319/59/159
f 198/53/160 320/76/160 254/74/160
f 235/53/161 321/76/161 246/74/161
f 323/52/162 250/53/162 322/54/162
f 244/53/163 324/76/163 207/74/163
f 172/70/164 325/79/164 165/61/164
f 168/64/74 325/79/74 172/70/74
f 174/71/165 325/79/165 171/67/165
f 171/67/73 325/79/73 170/68/73
f 326/58/166 78/54/166 211/74/166
f 170/68/167 325/79/167 175/73/167
f 175/73/167 325/79/167 168/64/167
f 327/80/168 33/33/168 30/28/168
f 329/81/169 35/34/169 328/82/169
f 330/83/170 30/28/170 35/34/170
f 331/84/171 21/21/171 22/20/171
f 327/80/172 332/85/172 27/26/172
f 14/16/173 12/12/173 13/11/173
f 335/86/174 334/87/174 333/88/174
f 338/89/175 337/90/175 336/91/175
f 341/92/176 340/93/176 339/94/176
f 343/95/177 333/88/177 342/96/177
f 345/97/177 343/95/177 344/98/177
f 347/99/178 346/100/178 340/93/178
f 350/101/179 349/102/179 348/103/179
f 353/104/180 352/105/180 351/106/180
f 356/107/181 355/108/181 354/109/181
f 358/110/182 350/101/182 357/111/182
f 360/112/177 359/113/177 350/101/177
f 362/114/183 356/107/183 361/115/183
f 364/116/179 363/117/179 348/103/179
f 365/118/184 364/116/184 349/102/184
f 367/119/185 362/114/185 366/120/185
f 358/110/186 368/121/186 334/87/186
f 360/112/187 358/110/187 335/86/187
f 369/122/188 339/94/188 367/119/188
f 370/123/189 352/105/189 353/104/189
f 336/91/177 337/90/177 371/124/177
f 373/125/190 337/90/190 372/126/190
f 372/126/191 337/90/191 338/89/191
f 376/127/174 375/128/174 374/129/174
f 377/130/192 352/105/192 370/123/192
f 378/131/193 352/105/193 377/130/193
f 380/132/194 375/128/194 379/133/194
f 382/134/1 375/128/1 381/135/1
f 383/136/195 375/128/195 382/134/195
f 379/133/194 375/128/194 383/136/194
f 374/129/177 375/128/177 380/132/177
f 386/111/196 385/103/196 384/102/196
f 389/109/197 388/108/197 387/107/197
f 392/137/198 391/138/198 390/139/198
f 395/140/199 394/120/199 393/114/199
f 396/141/200 391/138/200 392/137/200
f 399/98/201 398/96/201 397/88/201
f 402/92/202 401/122/202 400/94/202
f 404/142/203 391/138/203 403/143/203
f 399/98/201 406/95/201 405/97/201
f 407/144/203 391/138/203 404/142/203
f 401/122/204 395/140/204 408/119/204
f 409/145/205 391/138/205 407/144/205
f 406/95/206 397/88/206 410/87/206
f 412/121/207 386/111/207 411/101/207
f 390/139/208 391/138/208 409/145/208
f 415/146/209 414/147/209 413/148/209
f 385/103/210 417/117/210 416/116/210
f 418/115/177 387/107/177 393/114/177
f 402/92/190 420/93/190 419/100/190
f 410/87/207 412/121/207 421/110/207
f 413/148/211 414/147/211 422/149/211
f 425/150/212 424/151/212 423/152/212
f 426/112/177 421/110/177 411/101/177
f 427/86/213 421/110/213 426/112/213
f 430/153/177 429/154/177 428/155/177
f 433/156/177 432/157/177 431/158/177
f 384/102/214 416/116/214 434/118/214
f 423/152/213 415/146/213 435/159/213
f 438/160/177 437/161/177 436/162/177
f 436/162/215 440/163/215 439/164/215
f 430/153/1 442/165/1 441/166/1
f 430/153/216 441/166/216 443/167/216
f 430/153/217 443/167/217 429/154/217
f 446/168/218 445/169/218 444/170/218
f 448/171/219 447/172/219 437/161/219
f 449/173/220 447/172/220 448/171/220
f 452/140/221 451/119/221 450/114/221
f 455/100/222 454/93/222 453/92/222
f 453/92/223 454/93/223 456/94/223
f 459/107/224 458/108/224 457/109/224
f 450/114/224 459/107/224 460/115/224
f 461/122/225 456/94/225 451/119/225
f 464/174/226 463/175/226 462/176/226
f 467/119/227 466/114/227 465/120/227
f 470/100/228 469/93/228 468/92/228
f 468/92/174 469/93/174 471/94/174
f 474/107/177 473/108/177 472/109/177
f 466/114/229 474/107/229 475/115/229
f 476/122/174 471/94/174 467/119/174
f 479/176/177 478/174/177 477/177/177
f 1/1/1 8/7/1 3/2/1
f 480/178/1 3/2/1 7/8/1
f 480/178/1 306/78/1 3/2/1
f 482/59/230 481/60/230 322/54/230
f 484/48/231 483/51/231 264/46/231
f 285/25/232 150/46/232 485/47/232
f 486/48/233 485/47/233 150/46/233
f 488/47/234 487/50/234 69/25/234
f 491/23/235 490/46/235 489/25/235
f 494/46/236 493/51/236 492/48/236
f 497/23/237 496/46/237 495/25/237
f 498/49/238 493/51/238 494/46/238
f 501/25/239 500/46/239 499/47/239
f 503/48/240 502/47/240 490/46/240
f 502/47/241 504/50/241 489/25/241
f 506/49/242 505/51/242 490/46/242
f 507/23/243 500/46/243 501/25/243
f 510/49/244 509/23/244 508/46/244
f 509/23/245 512/24/245 511/25/245
f 515/23/246 514/24/246 513/25/246
f 518/48/247 517/47/247 516/46/247
f 520/23/248 516/46/248 519/25/248
f 523/52/249 522/60/249 521/54/249
f 526/49/250 525/51/250 524/46/250
f 529/49/251 528/51/251 527/46/251
f 532/48/252 531/47/252 530/46/252
f 517/47/253 533/50/253 519/25/253
f 535/49/254 534/51/254 496/46/254
f 537/48/255 536/47/255 496/46/255
f 536/47/256 538/50/256 495/25/256
f 541/49/257 540/51/257 539/46/257
f 543/48/258 542/47/258 539/46/258
f 545/23/259 539/46/259 544/25/259
f 548/49/260 547/57/260 546/55/260
f 546/55/261 550/56/261 549/48/261
f 552/25/262 551/50/262 550/56/262
f 547/57/263 553/24/263 552/25/263
f 556/49/264 555/23/264 554/46/264
f 554/46/265 558/47/265 557/48/265
f 560/25/266 559/50/266 558/47/266
f 563/23/267 562/46/267 561/25/267
f 566/49/268 565/51/268 564/46/268
f 568/48/269 567/47/269 564/46/269
f 571/54/270 570/60/270 569/59/270
f 573/48/271 572/47/271 524/46/271
f 575/23/272 524/46/272 574/25/272
f 511/25/273 577/50/273 576/47/273
f 580/48/274 579/47/274 578/46/274
f 583/59/275 582/58/275 581/54/275
f 585/23/276 530/46/276 584/25/276
f 588/49/277 587/51/277 586/46/277
f 591/48/278 590/47/278 589/46/278
f 594/47/279 593/50/279 592/25/279
f 595/23/280 586/46/280 592/25/280
f 598/49/281 597/23/281 596/46/281
f 500/46/282 600/51/282 599/48/282
f 603/49/283 602/51/283 601/46/283
f 601/46/284 602/51/284 604/48/284
f 531/47/285 605/50/285 584/25/285
f 607/23/286 601/46/286 606/25/286
f 579/47/287 609/50/287 608/25/287
f 612/23/288 611/46/288 610/25/288
f 614/49/289 613/51/289 578/46/289
f 617/74/290 616/75/290 615/58/290
f 590/47/291 619/50/291 618/25/291
f 620/23/292 589/46/292 618/25/292
f 622/23/293 527/46/293 621/25/293
f 625/49/294 624/51/294 623/46/294
f 628/47/295 627/50/295 626/25/295
f 629/49/296 600/51/296 500/46/296
f 630/52/297 570/60/297 571/54/297
f 633/54/298 632/60/298 631/59/298
f 582/58/299 635/75/299 634/74/299
f 638/74/300 637/54/300 636/58/300
f 641/52/301 640/53/301 639/54/301
f 643/53/302 521/54/302 642/74/302
f 646/74/303 645/75/303 644/58/303
f 648/52/304 647/60/304 581/54/304
f 651/59/305 650/60/305 649/54/305
f 640/53/306 653/76/306 652/74/306
f 656/58/307 655/75/307 654/74/307
f 658/52/308 657/53/308 649/54/308
f 661/54/309 660/60/309 659/59/309
f 664/53/310 663/54/310 662/74/310
f 665/53/311 581/54/311 634/74/311
f 667/52/312 666/60/312 663/54/312
f 652/74/313 669/75/313 668/58/313
f 657/53/314 670/76/314 646/74/314
f 671/52/315 632/60/315 633/54/315
f 674/74/316 673/54/316 672/58/316
f 677/53/317 676/76/317 675/74/317
f 679/52/318 678/60/318 637/54/318
f 682/58/319 681/75/319 680/74/319
f 684/52/320 677/53/320 683/54/320
f 685/53/321 673/54/321 674/74/321
f 686/59/322 636/58/322 637/54/322
f 687/23/323 623/46/323 626/25/323
f 690/58/324 689/75/324 688/74/324
f 692/49/325 515/23/325 691/46/325
f 695/53/326 694/76/326 693/74/326
f 697/53/327 696/76/327 617/74/327
f 699/52/328 695/53/328 698/54/328
f 698/54/329 701/58/329 700/59/329
f 703/49/330 702/51/330 611/46/330
f 705/59/331 704/58/331 521/54/331
f 691/46/332 707/47/332 706/48/332
f 710/46/333 709/47/333 708/48/333
f 712/25/334 711/50/334 709/47/334
f 714/23/335 713/24/335 712/25/335
f 542/47/336 715/50/336 544/25/336
f 527/46/337 528/51/337 716/48/337
f 718/48/338 717/47/338 562/46/338
f 720/47/339 719/50/339 610/25/339
f 722/25/340 494/46/340 721/47/340
f 723/23/341 494/46/341 722/25/341
f 597/23/342 725/24/342 724/25/342
f 727/47/343 726/50/343 621/25/343
f 729/48/344 728/51/344 508/46/344
f 731/49/345 730/51/345 516/46/345
f 732/49/346 714/23/346 710/46/346
f 574/25/347 524/46/347 572/47/347
f 567/47/348 734/50/348 733/25/348
f 736/52/349 697/53/349 735/54/349
f 735/54/350 615/58/350 737/59/350
f 738/23/351 564/46/351 733/25/351
f 555/23/352 739/24/352 560/25/352
f 741/49/353 740/51/353 562/46/353
f 561/25/354 562/46/354 717/47/354
f 743/49/355 742/51/355 530/46/355
f 745/49/356 744/51/356 589/46/356
f 586/46/357 587/51/357 746/48/357
f 623/46/358 624/51/358 747/48/358
f 748/23/359 578/46/359 608/25/359
f 693/74/360 749/75/360 701/58/360
f 606/25/361 601/46/361 750/47/361
f 675/74/362 752/75/362 751/58/362
f 754/59/363 753/60/363 683/54/363
f 755/53/364 661/54/364 654/74/364
f 663/54/365 666/60/365 756/59/365
f 662/74/366 663/54/366 757/58/366
f 758/52/367 660/60/367 661/54/367
f 639/54/368 668/58/368 759/59/368
f 760/53/369 571/54/369 688/74/369
f 761/53/370 633/54/370 680/74/370
f 763/52/371 762/60/371 673/54/371
f 764/53/372 637/54/372 638/74/372
f 704/58/373 765/75/373 642/74/373
f 766/59/374 672/58/374 673/54/374
f 767/48/375 720/47/375 611/46/375
f 724/25/376 769/50/376 768/47/376
f 771/48/377 770/51/377 596/46/377
f 707/47/378 691/46/378 513/25/378
f 10/9/2 6/4/2 4/6/2
f 772/179/3 10/9/3 9/10/3
f 773/180/379 13/11/379 11/13/379
f 773/180/5 11/13/5 6/4/5
f 774/181/380 16/14/380 14/16/380
f 41/41/7 19/17/7 17/19/7
f 26/27/8 22/20/8 20/22/8
f 57/46/381 25/23/381 23/25/381
f 32/31/10 27/26/10 26/27/10
f 35/34/11 30/28/11 28/30/11
f 33/33/12 27/26/12 31/32/12
f 30/28/13 33/33/13 29/29/13
f 328/82/14 35/34/14 34/35/14
f 19/17/15 37/36/15 18/18/15
f 45/44/16 40/38/16 38/40/16
f 39/39/382 41/41/382 38/40/382
f 37/36/18 43/42/18 36/37/18
f 775/182/383 40/38/383 44/45/383
f 776/51/384 48/46/384 46/48/384
f 91/46/385 51/23/385 49/25/385
f 776/51/386 53/49/386 48/46/386
f 154/46/387 56/25/387 54/47/387
f 60/47/388 59/48/388 57/46/388
f 777/50/389 60/47/389 23/25/389
f 58/51/26 61/49/26 57/46/26
f 154/46/27 63/23/27 56/25/27
f 68/23/390 66/49/390 64/46/390
f 778/24/29 68/23/29 67/25/29
f 779/24/391 71/23/391 69/25/391
f 90/47/392 74/48/392 72/46/392
f 72/46/393 77/23/393 75/25/393
f 266/60/394 80/52/394 78/54/394
f 127/51/34 83/49/34 81/46/34
f 780/51/395 86/49/395 84/46/395
f 160/47/396 89/48/396 87/46/396
f 781/50/397 90/47/397 75/25/397
f 93/51/398 92/49/398 91/46/398
f 95/47/399 94/48/399 91/46/399
f 782/50/400 95/47/400 49/25/400
f 99/51/401 98/49/401 96/46/401
f 275/47/402 100/48/402 96/46/402
f 96/46/403 97/23/403 101/25/403
f 109/57/404 105/49/404 103/55/404
f 107/56/405 103/55/405 106/48/405
f 783/50/406 108/25/406 107/56/406
f 784/24/407 109/57/407 108/25/407
f 298/23/408 112/49/408 110/46/408
f 114/47/409 110/46/409 113/48/409
f 785/50/410 115/25/410 114/47/410
f 278/46/411 118/23/411 116/25/411
f 122/51/412 121/49/412 119/46/412
f 293/47/413 123/48/413 119/46/413
f 786/60/414 126/54/414 124/59/414
f 290/47/55 128/48/55 81/46/55
f 81/46/415 82/23/415 129/25/415
f 787/50/57 67/25/57 131/47/57
f 177/47/416 134/48/416 132/46/416
f 204/58/417 137/59/417 135/54/417
f 87/46/418 140/23/418 138/25/418
f 788/51/419 143/49/419 141/46/419
f 187/47/420 146/48/420 144/46/420
f 789/50/421 148/47/421 147/25/421
f 141/46/422 142/23/422 147/25/422
f 286/23/423 152/49/423 150/46/423
f 790/51/424 154/46/424 153/48/424
f 791/51/425 157/49/425 155/46/425
f 791/51/426 155/46/426 158/48/426
f 792/50/427 160/47/427 138/25/427
f 155/46/428 156/23/428 161/25/428
f 172/70/429 165/61/429 163/63/429
f 175/73/430 168/64/430 166/66/430
f 173/72/73 171/67/73 169/69/73
f 167/65/74 168/64/74 163/63/74
f 793/183/431 174/71/431 173/72/431
f 170/68/167 175/73/167 169/69/167
f 794/50/432 177/47/432 176/25/432
f 264/46/433 180/23/433 178/25/433
f 133/51/434 182/49/434 132/46/434
f 795/75/435 185/74/435 183/58/435
f 796/50/436 187/47/436 186/25/436
f 144/46/437 189/23/437 186/25/437
f 84/46/438 85/23/438 190/25/438
f 797/51/439 194/49/439 192/46/439
f 798/50/440 196/47/440 195/25/440
f 790/51/441 197/49/441 154/46/441
f 786/60/442 199/52/442 126/54/442
f 799/60/443 202/54/443 200/59/443
f 800/75/444 204/58/444 203/74/444
f 243/54/90 207/74/90 205/58/90
f 220/53/445 210/52/445 208/54/445
f 78/54/446 79/53/446 211/74/446
f 801/75/93 215/74/93 213/58/93
f 136/60/447 217/52/447 135/54/447
f 224/60/448 218/59/448 214/54/448
f 802/76/449 220/53/449 219/74/449
f 803/75/97 223/58/97 221/74/97
f 234/53/450 225/52/450 214/54/450
f 804/60/451 222/54/451 226/59/451
f 231/54/100 229/53/100 227/74/100
f 135/54/452 216/53/452 203/74/452
f 805/60/453 232/52/453 231/54/453
f 806/75/454 219/74/454 233/58/454
f 807/76/455 234/53/455 215/74/455
f 799/60/456 236/52/456 202/54/456
f 322/54/457 239/74/457 237/58/457
f 808/76/458 242/53/458 240/74/458
f 251/60/459 245/52/459 243/54/459
f 809/75/460 201/58/460 246/74/460
f 242/53/461 248/52/461 241/54/461
f 322/54/462 250/53/462 239/74/462
f 205/58/463 252/59/463 243/54/463
f 192/46/464 193/23/464 195/25/464
f 810/75/465 125/58/465 254/74/465
f 71/23/466 256/49/466 70/46/466
f 811/76/467 259/53/467 257/74/467
f 812/76/117 260/53/117 185/74/117
f 259/53/468 262/52/468 258/54/468
f 309/58/469 258/54/469 263/59/469
f 483/51/470 265/49/470 264/46/470
f 326/58/471 267/59/471 78/54/471
f 488/47/472 70/46/472 268/48/472
f 272/47/473 271/46/473 269/48/473
f 813/50/474 273/25/474 272/47/474
f 814/24/475 274/23/475 273/25/475
f 815/50/476 275/47/476 101/25/476
f 780/51/477 84/46/477 276/48/477
f 300/47/478 280/48/478 278/46/478
f 816/50/479 281/47/479 178/25/479
f 48/46/480 283/25/480 47/47/480
f 48/46/481 52/23/481 283/25/481
f 817/24/482 286/23/482 285/25/482
f 818/50/483 277/47/483 190/25/483
f 65/51/484 287/48/484 64/46/484
f 73/51/485 288/49/485 72/46/485
f 274/23/486 289/49/486 271/46/486
f 81/46/487 129/25/487 290/47/487
f 819/50/488 293/47/488 292/25/488
f 260/53/489 295/52/489 184/54/489
f 183/58/490 184/54/490 296/59/490
f 119/46/491 120/23/491 292/25/491
f 820/24/492 298/23/492 115/25/492
f 279/51/493 299/49/493 278/46/493
f 278/46/494 116/25/494 300/47/494
f 88/51/495 302/49/495 87/46/495
f 145/51/496 303/49/496 144/46/496
f 788/51/497 141/46/497 304/48/497
f 332/85/148 305/77/148 27/26/148
f 797/51/498 192/46/498 307/48/498
f 132/46/499 181/23/499 176/25/499
f 821/75/500 257/74/500 309/58/500
f 155/46/501 161/25/501 159/47/501
f 822/75/153 240/74/153 311/58/153
f 247/60/502 312/59/502 241/54/502
f 222/54/503 314/53/503 221/74/503
f 805/60/504 231/54/504 315/59/504
f 231/54/505 227/74/505 316/58/505
f 804/60/506 318/52/506 222/54/506
f 233/58/507 208/54/507 319/59/507
f 126/54/508 198/53/508 254/74/508
f 202/54/509 235/53/509 246/74/509
f 481/60/510 323/52/510 322/54/510
f 243/54/511 244/53/511 207/74/511
f 823/75/512 326/58/512 211/74/512
f 330/83/168 327/80/168 30/28/168
f 824/184/169 329/81/169 328/82/169
f 329/81/170 330/83/170 35/34/170
f 305/77/171 331/84/171 22/20/171
f 33/33/172 327/80/172 27/26/172
f 774/181/173 14/16/173 13/11/173
f 343/95/174 335/86/174 333/88/174
f 369/122/177 341/92/177 339/94/177
f 344/98/177 343/95/177 342/96/177
f 825/185/174 345/97/174 344/98/174
f 341/92/178 347/99/178 340/93/178
f 357/111/177 350/101/177 348/103/177
f 361/115/177 356/107/177 354/109/177
f 368/121/513 358/110/513 357/111/513
f 358/110/514 360/112/514 350/101/514
f 366/120/174 362/114/174 361/115/174
f 349/102/179 364/116/179 348/103/179
f 826/186/184 365/118/184 349/102/184
f 827/140/185 367/119/185 366/120/185
f 335/86/186 358/110/186 334/87/186
f 828/187/187 360/112/187 335/86/187
f 827/140/513 369/122/513 367/119/513
f 411/101/515 386/111/515 384/102/515
f 418/115/516 389/109/516 387/107/516
f 408/119/517 395/140/517 393/114/517
f 406/95/201 399/98/201 397/88/201
f 420/93/518 402/92/518 400/94/518
f 829/185/519 399/98/519 405/97/519
f 400/94/204 401/122/204 408/119/204
f 427/86/206 406/95/206 410/87/206
f 421/110/177 412/121/177 411/101/177
f 435/159/209 415/146/209 413/148/209
f 384/102/520 385/103/520 416/116/520
f 394/120/521 418/115/521 393/114/521
f 830/99/522 402/92/522 419/100/522
f 427/86/207 410/87/207 421/110/207
f 831/188/177 413/148/177 422/149/177
f 832/189/523 425/150/523 423/152/523
f 833/113/213 426/112/213 411/101/213
f 834/187/524 427/86/524 426/112/524
f 836/190/525 835/191/525 432/157/525
f 837/192/526 835/191/526 836/190/526
f 431/158/513 432/157/513 835/191/513
f 838/186/214 384/102/214 434/118/214
f 832/189/527 423/152/527 435/159/527
f 839/193/178 438/160/178 436/162/178
f 839/193/177 436/162/177 439/164/177
f 840/194/177 446/168/177 444/170/177
f 438/160/528 448/171/528 437/161/528
f 841/195/529 449/173/529 448/171/529
f 842/120/221 452/140/221 450/114/221
f 843/99/222 455/100/222 453/92/222
f 461/122/177 453/92/177 456/94/177
f 460/115/177 459/107/177 457/109/177
f 842/120/224 450/114/224 460/115/224
f 452/140/530 461/122/530 451/119/530
f 844/196/174 463/175/174 464/174/174
f 846/197/177 845/177/177 463/175/177
f 462/176/177 463/175/177 845/177/177
f 847/140/177 467/119/177 465/120/177
f 848/99/177 470/100/177 468/92/177
f 476/122/177 468/92/177 471/94/177
f 475/115/531 474/107/531 472/109/531
f 465/120/177 466/114/177 475/115/177
f 847/140/174 476/122/174 467/119/174
f 849/196/177 477/177/177 478/174/177
f 850/175/177 477/177/177 849/196/177
f 851/197/177 477/177/177 850/175/177
f 237/58/532 482/59/532 322/54/532
f 281/47/533 484/48/533 264/46/533
f 852/50/534 285/25/534 485/47/534
f 151/51/535 486/48/535 150/46/535
f 70/46/536 488/47/536 69/25/536
f 853/24/537 491/23/537 489/25/537
f 721/47/538 494/46/538 492/48/538
f 854/24/539 497/23/539 495/25/539
f 723/23/540 498/49/540 494/46/540
f 855/50/541 501/25/541 499/47/541
f 505/51/542 503/48/542 490/46/542
f 490/46/543 502/47/543 489/25/543
f 491/23/242 506/49/242 490/46/242
f 856/24/243 507/23/243 501/25/243
f 728/51/544 510/49/544 508/46/544
f 508/46/245 509/23/245 511/25/245
f 691/46/545 515/23/545 513/25/545
f 730/51/546 518/48/546 516/46/546
f 857/24/547 520/23/547 519/25/547
f 643/53/548 523/52/548 521/54/548
f 575/23/250 526/49/250 524/46/250
f 622/23/549 529/49/549 527/46/549
f 742/51/550 532/48/550 530/46/550
f 516/46/551 517/47/551 519/25/551
f 497/23/552 535/49/552 496/46/552
f 534/51/553 537/48/553 496/46/553
f 496/46/554 536/47/554 495/25/554
f 545/23/555 541/49/555 539/46/555
f 540/51/556 543/48/556 539/46/556
f 858/24/557 545/23/557 544/25/557
f 859/51/558 548/49/558 546/55/558
f 859/51/559 546/55/559 549/48/559
f 546/55/560 552/25/560 550/56/560
f 546/55/561 547/57/561 552/25/561
f 860/51/562 556/49/562 554/46/562
f 860/51/563 554/46/563 557/48/563
f 554/46/564 560/25/564 558/47/564
f 861/24/565 563/23/565 561/25/565
f 738/23/566 566/49/566 564/46/566
f 565/51/567 568/48/567 564/46/567
f 690/58/568 571/54/568 569/59/568
f 525/51/271 573/48/271 524/46/271
f 862/24/569 575/23/569 574/25/569
f 508/46/273 511/25/273 576/47/273
f 613/51/570 580/48/570 578/46/570
f 647/60/571 583/59/571 581/54/571
f 863/24/572 585/23/572 584/25/572
f 595/23/573 588/49/573 586/46/573
f 744/51/574 591/48/574 589/46/574
f 586/46/575 594/47/575 592/25/575
f 864/24/576 595/23/576 592/25/576
f 770/51/577 598/49/577 596/46/577
f 499/47/578 500/46/578 599/48/578
f 607/23/579 603/49/579 601/46/579
f 750/47/580 601/46/580 604/48/580
f 530/46/581 531/47/581 584/25/581
f 865/24/582 607/23/582 606/25/582
f 578/46/583 579/47/583 608/25/583
f 866/24/584 612/23/584 610/25/584
f 748/23/585 614/49/585 578/46/585
f 735/54/586 617/74/586 615/58/586
f 589/46/587 590/47/587 618/25/587
f 867/24/588 620/23/588 618/25/588
f 868/24/589 622/23/589 621/25/589
f 687/23/590 625/49/590 623/46/590
f 623/46/591 628/47/591 626/25/591
f 507/23/592 629/49/592 500/46/592
f 760/53/593 630/52/593 571/54/593
f 682/58/594 633/54/594 631/59/594
f 581/54/595 582/58/595 634/74/595
f 869/75/300 638/74/300 636/58/300
f 870/60/596 641/52/596 639/54/596
f 871/76/597 643/53/597 642/74/597
f 649/54/303 646/74/303 644/58/303
f 665/53/598 648/52/598 581/54/598
f 644/58/599 651/59/599 649/54/599
f 639/54/600 640/53/600 652/74/600
f 661/54/307 656/58/307 654/74/307
f 650/60/601 658/52/601 649/54/601
f 656/58/602 661/54/602 659/59/602
f 872/76/310 664/53/310 662/74/310
f 873/76/603 665/53/603 634/74/603
f 664/53/604 667/52/604 663/54/604
f 639/54/605 652/74/605 668/58/605
f 649/54/606 657/53/606 646/74/606
f 761/53/607 671/52/607 633/54/607
f 874/75/608 674/74/608 672/58/608
f 683/54/609 677/53/609 675/74/609
f 764/53/610 679/52/610 637/54/610
f 633/54/611 682/58/611 680/74/611
f 753/60/612 684/52/612 683/54/612
f 875/76/613 685/53/613 674/74/613
f 678/60/614 686/59/614 637/54/614
f 876/24/615 687/23/615 626/25/615
f 571/54/616 690/58/616 688/74/616
f 877/51/617 692/49/617 691/46/617
f 698/54/618 695/53/618 693/74/618
f 735/54/327 697/53/327 617/74/327
f 878/60/619 699/52/619 698/54/619
f 878/60/620 698/54/620 700/59/620
f 612/23/621 703/49/621 611/46/621
f 522/60/622 705/59/622 521/54/622
f 877/51/623 691/46/623 706/48/623
f 879/51/624 710/46/624 708/48/624
f 710/46/625 712/25/625 709/47/625
f 710/46/626 714/23/626 712/25/626
f 539/46/627 542/47/627 544/25/627
f 727/47/628 527/46/628 716/48/628
f 740/51/629 718/48/629 562/46/629
f 611/46/630 720/47/630 610/25/630
f 880/50/631 722/25/631 721/47/631
f 881/24/632 723/23/632 722/25/632
f 596/46/633 597/23/633 724/25/633
f 527/46/634 727/47/634 621/25/634
f 576/47/635 729/48/635 508/46/635
f 520/23/636 731/49/636 516/46/636
f 879/51/637 732/49/637 710/46/637
f 882/50/638 574/25/638 572/47/638
f 564/46/639 567/47/639 733/25/639
f 883/60/640 736/52/640 735/54/640
f 883/60/641 735/54/641 737/59/641
f 884/24/642 738/23/642 733/25/642
f 554/46/643 555/23/643 560/25/643
f 563/23/644 741/49/644 562/46/644
f 885/50/645 561/25/645 717/47/645
f 585/23/646 743/49/646 530/46/646
f 620/23/647 745/49/647 589/46/647
f 594/47/648 586/46/648 746/48/648
f 628/47/649 623/46/649 747/48/649
f 886/24/650 748/23/650 608/25/650
f 698/54/651 693/74/651 701/58/651
f 887/50/652 606/25/652 750/47/652
f 683/54/362 675/74/362 751/58/362
f 751/58/653 754/59/653 683/54/653
f 888/76/654 755/53/654 654/74/654
f 757/58/655 663/54/655 756/59/655
f 889/75/656 662/74/656 757/58/656
f 755/53/657 758/52/657 661/54/657
f 870/60/658 639/54/658 759/59/658
f 890/76/659 760/53/659 688/74/659
f 891/76/660 761/53/660 680/74/660
f 685/53/661 763/52/661 673/54/661
f 892/76/662 764/53/662 638/74/662
f 521/54/663 704/58/663 642/74/663
f 762/60/664 766/59/664 673/54/664
f 702/51/665 767/48/665 611/46/665
f 596/46/666 724/25/666 768/47/666
f 768/47/667 771/48/667 596/46/667
f 893/50/668 707/47/668 513/25/668
