v -0.000000 1.279999 -1.280000
v -0.000000 1.279999 1.280000
v 0.249715 1.255404 -1.280000
v 0.249715 1.255404 1.280000
v 0.489835 1.182565 -1.280000
v 0.489835 1.182565 1.280000
v 0.711130 1.064280 -1.280000
v 0.711130 1.064280 1.280000
v 0.905096 0.905096 -1.280000
v 0.905096 0.905096 1.280000
v 1.064281 0.711129 -1.280000
v 1.064281 0.711129 1.280000
v 1.182565 0.489834 -1.280000
v 1.182565 0.489834 1.280000
v 1.255405 0.249715 -1.280000
v 1.255405 0.249715 1.280000
v 1.280000 -0.000001 -1.280000
v 1.280000 -0.000001 1.280000
v 1.255405 -0.249716 -1.280000
v 1.255405 -0.249716 1.280000
v 1.182566 -0.489835 -1.280000
v 1.182566 -0.489835 1.280000
v 1.064281 -0.711131 -1.280000
v 1.064281 -0.711131 1.280000
v 0.905096 -0.905097 -1.280000
v 0.905096 -0.905097 1.280000
v 0.711129 -1.064282 -1.280000
v 0.711129 -1.064282 1.280000
v 0.489834 -1.182567 -1.280000
v 0.489834 -1.182567 1.280000
v 0.249715 -1.255406 -1.280000
v 0.249715 -1.255406 1.280000
v -0.000001 -1.280001 -1.280000
v -0.000001 -1.280001 1.280000
v -0.249717 -1.255406 -1.280000
v -0.249717 -1.255406 1.280000
v -0.489836 -1.182566 -1.280000
v -0.489836 -1.182566 1.280000
v -0.711131 -1.064281 -1.280000
v -0.711131 -1.064281 1.280000
v -0.905097 -0.905097 -1.280000
v -0.905097 -0.905097 1.280000
v -1.064282 -0.711130 -1.280000
v -1.064282 -0.711130 1.280000
v -1.182566 -0.489834 -1.280000
v -1.182566 -0.489834 1.280000
v -1.255406 -0.249715 -1.280000
v -1.255406 -0.249715 1.280000
v -1.280000 0.000001 -1.280000
v -1.280000 0.000001 1.280000
v -1.255405 0.249716 -1.280000
v -1.255405 0.249716 1.280000
v -1.182565 0.489836 -1.280000
v -1.182565 0.489836 1.280000
v -1.064280 0.711131 -1.280000
v -1.064280 0.711131 1.280000
v -0.905096 0.905097 -1.280000
v -0.905096 0.905097 1.280000
v -0.711129 1.064281 -1.280000
v -0.711129 1.064281 1.280000
v -0.489833 1.182566 -1.280000
v -0.489833 1.182566 1.280000
v -0.249714 1.255405 -1.280000
v -0.249714 1.255405 1.280000
v -0.000000 1.279999 -1.280000
v 0.249715 1.255404 -1.280000
v 0.249715 1.255404 1.280000
v -0.000000 1.279999 1.280000
v 0.489835 1.182565 -1.280000
v 0.489835 1.182565 1.280000
v 0.711130 1.064280 -1.280000
v 0.711130 1.064280 1.280000
v 0.905096 0.905096 -1.280000
v 0.905096 0.905096 1.280000
v 1.064281 0.711129 -1.280000
v 1.064281 0.711129 1.280000
v 1.182565 0.489834 -1.280000
v 1.182565 0.489834 1.280000
v 1.255405 0.249715 -1.280000
v 1.255405 0.249715 1.280000
v 1.280000 -0.000001 -1.280000
v 1.280000 -0.000001 1.280000
v 1.255405 -0.249716 -1.280000
v 1.255405 -0.249716 1.280000
v 1.182566 -0.489835 -1.280000
v 1.182566 -0.489835 1.280000
v 1.064281 -0.711131 -1.280000
v 1.064281 -0.711131 1.280000
v 0.905096 -0.905097 -1.280000
v 0.905096 -0.905097 1.280000
v 0.711129 -1.064282 -1.280000
v 0.711129 -1.064282 1.280000
v 0.489834 -1.182567 -1.280000
v 0.489834 -1.182567 1.280000
v 0.249715 -1.255406 -1.280000
v 0.249715 -1.255406 1.280000
v -0.000001 -1.280001 -1.280000
v -0.000001 -1.280001 1.280000
v -0.249717 -1.255406 -1.280000
v -0.249717 -1.255406 1.280000
v -0.489836 -1.182566 -1.280000
v -0.489836 -1.182566 1.280000
v -0.711131 -1.064281 -1.280000
v -0.711131 -1.064281 1.280000
v -0.905097 -0.905097 -1.280000
v -0.905097 -0.905097 1.280000
v -1.064282 -0.711130 -1.280000
v -1.064282 -0.711130 1.280000
v -1.182566 -0.489834 -1.280000
v -1.182566 -0.489834 1.280000
v -1.255406 -0.249715 -1.280000
v -1.255406 -0.249715 1.280000
v -1.280000 0.000001 -1.280000
v -1.280000 0.000001 1.280000
v -1.255405 0.249716 -1.280000
v -1.255405 0.249716 1.280000
v -1.182565 0.489836 -1.280000
v -1.182565 0.489836 1.280000
v -1.064280 0.711131 -1.280000
v -1.064280 0.711131 1.280000
v -0.905096 0.905097 -1.280000
v -0.905096 0.905097 1.280000
v -0.711129 1.064281 -1.280000
v -0.711129 1.064281 1.280000
v -0.489833 1.182566 -1.280000
v -0.489833 1.182566 1.280000
v -0.249714 1.255405 -1.280000
v -0.249714 1.255405 1.280000
vt 0.500000 0.000000
vt 0.402455 0.000000
vt 0.402455 1.000000
vt 0.308658 0.000000
vt 0.308658 1.000000
vt 0.222215 0.000000
vt 0.222215 1.000000
vt 0.146447 0.000000
vt 0.146447 1.000000
vt 0.084265 0.000000
vt 0.084265 1.000000
vt 0.038060 0.000000
vt 0.038060 1.000000
vt 0.009607 0.000000
vt 0.009607 1.000000
vt 0.000000 0.000000
vt 0.000000 1.000000
vt 0.500000 1.000000
vt 0.597545 0.000000
vt 0.597545 1.000000
vt 0.691342 0.000000
vt 0.691342 1.000000
vt 0.777785 0.000000
vt 0.777785 1.000000
vt 0.853554 0.000000
vt 0.853554 1.000000
vt 0.915735 0.000000
vt 0.915735 1.000000
vt 0.961940 0.000000
vt 0.961940 1.000000
vt 0.990393 0.000000
vt 0.990393 1.000000
vt 1.000000 0.000000
vt 1.000000 1.000000
vt 0.004136 0.317878
vt 0.004136 0.939681
vt 0.004136 0.682122
vt 0.995864 0.592845
vt 0.995864 0.033238
vt 0.995864 0.407156
vt 0.004136 0.592845
vt 0.004136 0.500000
vt 0.004136 0.407156
vt 0.004136 0.235601
vt 0.004136 0.163484
vt 0.004136 0.104299
vt 0.004136 0.060320
vt 0.004136 0.033238
vt 0.004136 0.024094
vt 0.004136 0.764400
vt 0.004136 0.836517
vt 0.004136 0.895702
vt 0.004136 0.966762
vt 0.004136 0.975906
vt 0.995864 0.500000
vt 0.995864 0.682122
vt 0.995864 0.764400
vt 0.995864 0.836517
vt 0.995864 0.895702
vt 0.995864 0.939681
vt 0.995864 0.966762
vt 0.995864 0.975906
vt 0.995864 0.317878
vt 0.995864 0.235600
vt 0.995864 0.163483
vt 0.995864 0.104298
vt 0.995864 0.060320
vt 0.995864 0.024094
vn 0.000000 1.000000 0.000000
vn 0.195100 0.980800 0.000000
vn 0.382700 0.923900 0.000000
vn 0.555600 0.831400 0.000000
vn 0.707100 0.707100 0.000000
vn 0.831400 0.555600 0.000000
vn 0.923900 0.382700 0.000000
vn 0.980800 0.195100 0.000000
vn 1.000000 0.000000 0.000000
vn 0.980800 -0.195100 0.000000
vn 0.923900 -0.382700 0.000000
vn 0.831400 -0.555600 0.000000
vn 0.707100 -0.707100 0.000000
vn 0.555600 -0.831400 0.000000
vn 0.382700 -0.923900 0.000000
vn 0.195100 -0.980800 0.000000
vn 0.000000 -1.000000 0.000000
vn -0.195100 -0.980800 0.000000
vn -0.382700 -0.923900 0.000000
vn -0.555600 -0.831400 0.000000
vn -0.707100 -0.707100 0.000000
vn -0.831400 -0.555600 0.000000
vn -0.923900 -0.382700 0.000000
vn -0.980800 -0.195100 0.000000
vn -1.000000 0.000000 0.000000
vn -0.980800 0.195100 0.000000
vn -0.923900 0.382700 0.000000
vn -0.831400 0.555600 0.000000
vn -0.707100 0.707100 0.000000
vn -0.555600 0.831400 0.000000
vn -0.382700 0.923900 0.000000
vn 0.000000 0.000000 1.000000
vn -0.195100 0.980800 0.000000
vn 0.000000 0.000000 -1.000000
s 1
f 68/1/1 67/2/2 66/3/2
f 67/2/2 70/4/3 69/5/3
f 70/4/3 72/6/4 71/7/4
f 72/6/4 74/8/5 73/9/5
f 74/8/5 76/10/6 75/11/6
f 76/10/6 78/12/7 77/13/7
f 78/12/7 80/14/8 79/15/8
f 80/14/8 82/16/9 81/17/9
f 82/16/9 84/14/10 83/15/10
f 84/14/10 86/12/11 85/13/11
f 86/12/11 88/10/12 87/11/12
f 88/10/12 90/8/13 89/9/13
f 90/8/13 92/6/14 91/7/14
f 92/6/14 94/4/15 93/5/15
f 94/4/15 96/2/16 95/3/16
f 96/2/16 98/1/17 97/18/17
f 98/1/17 100/19/18 99/20/18
f 100/19/18 102/21/19 101/22/19
f 102/21/19 104/23/20 103/24/20
f 104/23/20 106/25/21 105/26/21
f 106/25/21 108/27/22 107/28/22
f 108/27/22 110/29/23 109/30/23
f 110/29/23 112/31/24 111/32/24
f 112/31/24 114/33/25 113/34/25
f 114/33/25 116/31/26 115/32/26
f 116/31/26 118/29/27 117/30/27
f 118/29/27 120/27/28 119/28/28
f 120/27/28 122/25/29 121/26/29
f 122/25/29 124/23/30 123/24/30
f 124/23/30 126/21/31 125/22/31
f 38/35/32 22/36/32 6/37/32
f 126/21/31 64/19/33 127/20/33
f 64/19/33 68/1/1 65/18/1
f 31/38/34 47/39/34 63/40/34
f 65/18/1 68/1/1 66/3/2
f 66/3/2 67/2/2 69/5/3
f 69/5/3 70/4/3 71/7/4
f 71/7/4 72/6/4 73/9/5
f 73/9/5 74/8/5 75/11/6
f 75/11/6 76/10/6 77/13/7
f 77/13/7 78/12/7 79/15/8
f 79/15/8 80/14/8 81/17/9
f 81/17/9 82/16/9 83/15/10
f 83/15/10 84/14/10 85/13/11
f 85/13/11 86/12/11 87/11/12
f 87/11/12 88/10/12 89/9/13
f 89/9/13 90/8/13 91/7/14
f 91/7/14 92/6/14 93/5/15
f 93/5/15 94/4/15 95/3/16
f 95/3/16 96/2/16 97/18/17
f 97/18/17 98/1/17 99/20/18
f 99/20/18 100/19/18 101/22/19
f 101/22/19 102/21/19 103/24/20
f 103/24/20 104/23/20 105/26/21
f 105/26/21 106/25/21 107/28/22
f 107/28/22 108/27/22 109/30/23
f 109/30/23 110/29/23 111/32/24
f 111/32/24 112/31/24 113/34/25
f 113/34/25 114/33/25 115/32/26
f 115/32/26 116/31/26 117/30/27
f 117/30/27 118/29/27 119/28/28
f 119/28/28 120/27/28 121/26/29
f 121/26/29 122/25/29 123/24/30
f 123/24/30 124/23/30 125/22/31
f 6/37/32 4/41/32 2/42/32
f 2/42/32 128/43/32 6/37/32
f 62/35/32 60/44/32 58/45/32
f 58/45/32 56/46/32 54/47/32
f 54/47/32 52/48/32 46/47/32
f 50/49/32 48/48/32 46/47/32
f 46/47/32 44/46/32 42/45/32
f 42/45/32 40/44/32 38/35/32
f 38/35/32 36/43/32 34/42/32
f 34/42/32 32/41/32 38/35/32
f 30/37/32 28/50/32 22/36/32
f 26/51/32 24/52/32 22/36/32
f 22/36/32 20/53/32 18/54/32
f 18/54/32 16/53/32 22/36/32
f 14/36/32 12/52/32 10/51/32
f 10/51/32 8/50/32 6/37/32
f 6/37/32 128/43/32 62/35/32
f 62/35/32 58/45/32 6/37/32
f 52/48/32 50/49/32 46/47/32
f 46/47/32 42/45/32 38/35/32
f 38/35/32 32/41/32 30/37/32
f 28/50/32 26/51/32 22/36/32
f 22/36/32 16/53/32 14/36/32
f 14/36/32 10/51/32 6/37/32
f 6/37/32 58/45/32 54/47/32
f 54/47/32 46/47/32 38/35/32
f 38/35/32 30/37/32 22/36/32
f 22/36/32 14/36/32 6/37/32
f 6/37/32 54/47/32 38/35/32
f 125/22/31 126/21/31 127/20/33
f 127/20/33 64/19/33 65/18/1
f 63/40/34 1/55/34 3/38/34
f 3/38/34 5/56/34 63/40/34
f 7/57/34 9/58/34 11/59/34
f 11/59/34 13/60/34 7/57/34
f 15/61/34 17/62/34 19/61/34
f 19/61/34 21/60/34 15/61/34
f 23/59/34 25/58/34 27/57/34
f 27/57/34 29/56/34 31/38/34
f 31/38/34 33/55/34 35/40/34
f 35/40/34 37/63/34 31/38/34
f 39/64/34 41/65/34 43/66/34
f 43/66/34 45/67/34 47/39/34
f 47/39/34 49/68/34 51/39/34
f 51/39/34 53/67/34 55/66/34
f 55/66/34 57/65/34 63/40/34
f 59/64/34 61/63/34 63/40/34
f 63/40/34 5/56/34 7/57/34
f 7/57/34 13/60/34 15/61/34
f 15/61/34 21/60/34 23/59/34
f 23/59/34 27/57/34 31/38/34
f 31/38/34 37/63/34 39/64/34
f 39/64/34 43/66/34 47/39/34
f 47/39/34 51/39/34 63/40/34
f 57/65/34 59/64/34 63/40/34
f 63/40/34 7/57/34 15/61/34
f 15/61/34 23/59/34 63/40/34
f 31/38/34 39/64/34 47/39/34
f 51/39/34 55/66/34 63/40/34
f 63/40/34 23/59/34 31/38/34
