# Blender v2.76 (sub 0) OBJ File: 'reac2_6.blend'
# www.blender.org
v 1.060010 -1.300000 0.739990
v 0.977538 -1.320000 -0.020152
v 0.399994 -1.320000 0.579991
v 0.399994 -1.320000 -0.020152
v 1.280000 -1.260000 -0.020152
v 1.140006 -1.260000 -0.240007
v 1.140006 -1.260000 -0.020152
v -1.280000 -1.260000 -1.280000
v -1.059994 -1.260000 1.060000
v 1.120007 -1.261000 -0.020152
v 1.120007 -1.261000 -0.240007
v 1.140006 -1.260000 1.060000
v 1.140006 -1.260000 -1.119961
v 1.080009 -1.272487 -0.020152
v 1.100008 -1.265192 -0.020152
v 1.060010 -1.290830 -0.240007
v 1.080009 -1.272487 -0.240007
v 1.100008 -1.265192 -0.240007
v -1.059994 -1.260000 -1.139942
v -1.139982 -1.260000 1.060000
v -1.139982 -1.260000 -1.139942
v 1.020012 -1.260000 -1.119961
v 1.080009 -1.272487 -1.119961
v 1.100008 -1.265192 -1.119961
v 1.120007 -1.261000 -1.119961
v 1.080009 -1.272487 1.060000
v 1.100008 -1.265192 1.060000
v 1.120007 -1.261000 1.060000
v -1.079990 -1.272487 1.060000
v -1.099987 -1.265192 1.060000
v -1.119984 -1.261000 1.060000
v -1.059994 -1.290830 -1.139942
v -1.079991 -1.272487 -1.139942
v -1.099987 -1.265192 -1.139942
v -1.119984 -1.261000 -1.139942
v 0.399994 -1.260000 0.279987
v 0.979992 -1.240000 0.899999
v 1.000013 -1.260000 0.760027
v -1.059994 -1.300000 -0.940014
v 0.399994 -1.240000 0.780023
v 0.940163 -1.260000 0.860007
v 0.480063 -1.260000 -0.240007
v 0.979992 -1.240000 -0.299937
v 0.940163 -1.260000 -0.080112
v 0.959974 -1.240000 -0.060125
v 0.460046 -1.260000 -0.080112
v 0.460046 -1.260000 -0.820004
v 0.399994 -1.240000 -0.860004
v 1.000013 -1.260000 -0.580000
v 1.280000 -1.240000 -0.240007
v 1.280000 -1.240000 -0.020152
v -1.059994 -1.300000 0.019994
v -1.059994 -1.300000 0.619991
v -1.059994 -1.300000 0.939989
v -1.059994 -1.300000 0.739990
v 1.280000 -1.260000 -1.280000
v 1.280000 -1.260000 1.280000
v 1.060010 -1.300000 0.619991
v 1.060010 -1.320000 -0.240007
v -1.059994 -1.320000 -1.139942
v 1.000013 -1.320000 -0.320090
v 1.060010 -1.320000 0.920010
v -1.059994 -1.320000 0.599991
v 1.000013 -1.320000 -0.880005
v 0.399994 -1.260000 -0.020152
v -1.059993 -1.320000 -1.080000
v 0.399994 -1.260000 0.579991
v 0.399994 -1.260000 -0.880005
v -1.280000 -1.280000 -1.280000
v -1.280000 -1.280000 1.280000
v 1.280000 -1.280000 1.280000
v 1.060010 -1.290830 -0.020152
v 1.060010 -1.260000 1.060000
v 1.020012 -1.260000 -1.139942
v 0.480063 -1.260000 -0.800004
v 0.759996 -1.260000 0.359988
v -1.059993 -1.300000 -1.060002
v 0.399994 -1.240000 -0.299937
v 0.979992 -1.240000 0.559990
v 0.460046 -1.260000 0.339988
v 0.959974 -1.240000 0.800019
v 0.940163 -1.260000 -0.259983
v 0.750001 -1.240000 0.539990
v 0.750001 -1.240000 0.880003
v 0.499998 -1.280000 0.479989
v 0.499998 -1.280000 0.379988
v 0.959974 -1.240000 -0.279960
v 1.000013 -1.260000 -0.880005
v 0.440029 -1.240000 0.539990
v 0.940163 -1.260000 -0.820004
v 0.940163 -1.240000 -0.620001
v 0.750001 -1.240000 -0.860004
v 0.750001 -1.240000 -0.840004
v 1.019921 -1.240000 -0.240007
v -1.059994 -1.320000 0.920010
v -1.059994 -1.320000 0.760027
v 1.060010 -1.320000 0.760027
v 0.399994 -1.320000 0.760027
v 0.399994 -1.320000 -0.320090
v 1.000013 -1.320000 -0.580000
v 1.060010 -1.320000 -1.080000
v 1.060010 -1.320000 -1.119961
v 1.020012 -1.320000 -1.139942
v 1.020012 -1.320000 -1.119961
v 1.000013 -1.320000 0.760027
v 1.060010 -1.300000 0.179969
v 1.000013 -1.320000 -0.240007
v 1.000013 -1.260000 0.920010
v 1.000013 -1.320000 0.920010
v 1.060010 -1.290830 1.060000
v -1.280000 -1.260000 1.280000
v 0.399994 -1.240000 0.899999
v 1.000013 -1.260000 0.579990
v 0.480063 -1.260000 0.499990
v 0.480063 -1.260000 0.359988
v 0.979992 -1.240000 -0.040139
v 1.000013 -1.260000 -0.020152
v 0.959974 -1.240000 0.880003
v 0.940163 -1.260000 0.339988
v 0.959974 -1.240000 0.539990
v 0.399994 -1.260000 -0.320090
v 0.759996 -1.260000 0.499990
v 0.399994 -1.240000 -0.040139
v 1.000013 -1.260000 -0.320090
v 1.000013 -1.260000 -0.240007
v 0.480063 -1.260000 -0.100099
v 0.759996 -1.260000 -0.100099
v 0.460046 -1.260000 0.519990
v 0.440029 -1.240000 0.800019
v 0.440029 -1.240000 0.880003
v 0.940163 -1.260000 -0.640001
v 0.399994 -1.240000 -0.600001
v 0.750001 -1.260000 -0.820004
v 0.499998 -1.280000 -0.680002
v 0.740005 -1.280000 -0.680002
v 0.959974 -1.240000 -0.840004
v 1.280000 -1.280000 -1.280000
v 1.060010 -1.300000 0.939989
v 1.060010 -1.300000 0.019994
v -1.059994 -1.320000 -0.000079
v 1.060010 -1.300000 1.060000
v 0.399994 -1.320000 0.279987
v 1.060010 -1.320000 0.599991
v -1.059994 -1.320000 -0.920016
v 1.060010 -1.320000 -0.920016
v 0.399994 -1.260000 0.760027
v -1.059994 -1.290830 1.060000
v 0.499998 -1.280000 -0.780003
v 0.740005 -1.280000 -0.780003
v 0.959974 -1.240000 0.319988
v 0.399994 -1.240000 0.299988
v 0.399994 -1.240000 0.559990
v 1.000013 -1.260000 0.279987
v 0.979992 -1.240000 0.780023
v 0.399994 -1.260000 0.920010
v 0.460046 -1.260000 -0.259983
v 0.440029 -1.240000 0.319988
v 0.959974 -1.240000 -0.670002
v 0.759996 -1.260000 -0.800004
v 0.759996 -1.260000 -0.660002
v 0.440029 -1.240000 -0.840004
v 0.440029 -1.240000 -0.620001
v 0.979992 -1.240000 -0.860005
v 0.979992 -1.240000 -0.600001
v 0.480063 -1.260000 -0.660002
v 1.019921 -1.240000 -0.020152
v -1.059994 -1.320000 0.200008
v -1.059994 -1.300000 0.179969
v -1.059994 -1.300000 1.060000
v -1.059994 -1.320000 0.346238
v 1.060010 -1.320000 0.200008
v 1.060010 -1.320000 -0.020152
v 1.060010 -1.320000 -0.000079
v 1.000013 -1.320000 0.279987
v 0.399994 -1.320000 0.920010
v 1.000013 -1.320000 0.579990
v 0.469119 -1.320000 0.599991
v 0.399994 -1.320000 -0.580000
v 0.399994 -1.320000 -0.880005
v 1.060010 -1.300000 -0.940014
v 0.467340 -1.320000 -0.920016
v 1.280000 -1.260000 -0.240007
v 0.440029 -1.240000 -0.279960
v 0.499998 -1.280000 -0.220020
v 1.060010 -1.260000 -1.119961
v 0.940163 -1.260000 0.820015
v 0.740005 -1.280000 0.479989
v 1.060010 -1.300000 -1.060002
v 0.940163 -1.260000 0.519990
v 0.979992 -1.240000 0.299988
v 1.060010 -1.290830 -1.119961
v 0.750001 -1.240000 0.899999
v 0.750001 -1.240000 0.559990
v 0.759996 -1.260000 -0.240007
v 0.740005 -1.280000 0.379988
v 0.460046 -1.260000 0.860007
v 0.460046 -1.260000 0.820015
v 0.399994 -1.260000 -0.580000
v 0.499998 -1.280000 -0.120086
v 0.740005 -1.280000 -0.220020
v 0.740005 -1.280000 -0.120086
v 0.440029 -1.240000 -0.060125
v 0.959974 -1.240000 -0.640001
v 0.460046 -1.260000 -0.640001
v 0.750001 -1.260000 -0.640001
vt 0.000000 0.406247
vt 0.000000 0.492128
vt 0.914060 0.742184
vt 0.914060 0.635249
vt 0.914060 0.570300
vt 0.085934 0.914062
vt 0.085934 0.492128
vt 0.085934 0.742184
vt 0.085934 0.867183
vt 0.085934 0.789059
vt 0.109370 0.859379
vt 0.343752 0.859379
vt 0.043185 0.365017
vt 0.043185 0.373686
vt 0.043185 0.375851
vt 0.000000 0.000000
vt 0.343362 0.726559
vt 0.343362 0.718746
vt 0.054685 0.062515
vt 0.062497 0.062515
vt 0.054685 0.406247
vt 0.125010 0.171873
vt 0.117190 0.164061
vt 0.207031 0.164061
vt 0.914060 0.867183
vt 0.914060 0.578128
vt 0.085934 0.578128
vt 0.000000 1.000000
vt 0.914060 0.914062
vt 0.109370 0.796886
vt 0.085934 0.796886
vt 0.203126 0.460899
vt 0.210935 0.453092
vt 0.312475 0.460899
vt 0.207031 0.250000
vt 0.320294 0.250000
vt 0.328114 0.257812
vt 0.343752 0.265625
vt 0.343752 0.273437
vt 0.117190 0.265625
vt 0.162104 0.225814
vt 0.162104 0.206801
vt 0.085934 0.570300
vt 0.117190 0.484321
vt 0.117190 0.382837
vt 0.125010 0.476514
vt 0.328114 0.843751
vt 0.328114 0.812507
vt 0.341292 0.804696
vt 0.341292 0.851562
vt 0.207031 0.851562
vt 0.320295 0.703121
vt 0.203126 0.695308
vt 0.312475 0.695308
vt 0.085934 0.507810
vt 0.343362 0.859379
vt 0.343362 0.851562
vt 0.132749 0.250000
vt 0.125010 0.250000
vt 0.125010 0.238281
vt 0.043321 0.380579
vt 0.043062 0.383217
vt 0.043062 0.382966
vt 0.343362 0.156248
vt 0.343362 0.273437
vt 0.343362 0.265625
vt 0.341292 0.796885
vt 1.000000 0.000000
vt 1.000000 1.000000
vt 0.945305 0.914062
vt 0.320294 0.179686
vt 0.312475 0.187499
vt 0.160151 0.658215
vt 0.160151 0.685526
vt 0.945305 0.054710
vt 0.914060 0.054710
vt 0.125010 0.710934
vt 0.117190 0.718746
vt 0.117190 0.617183
vt 0.085934 0.859379
vt 0.109370 0.273437
vt 0.085934 0.062515
vt 0.085934 0.406247
vt 0.078121 0.406247
vt 0.207031 0.843751
vt 0.125010 0.843751
vt 0.054685 0.914062
vt 0.101558 0.054710
vt 0.082436 0.075669
vt 0.110735 0.055983
vt 0.111614 0.055032
vt 0.106934 0.056641
vt 0.320294 0.398444
vt 0.312475 0.406248
vt 0.203126 0.406247
vt 0.210935 0.414055
vt 0.132749 0.703121
vt 0.203126 0.640620
vt 0.070309 0.062515
vt 0.062497 0.406247
vt 0.117190 0.804696
vt 0.343752 0.796885
vt 0.070309 0.492128
vt 0.070309 0.914062
vt 0.062497 0.492128
vt 0.343362 0.617183
vt 0.914060 0.734371
vt 0.343752 0.726559
vt 0.043185 0.378015
vt 0.043185 0.380180
vt 0.000507 0.491938
vt 0.000507 0.406495
vt 0.101583 0.406495
vt 0.101558 0.062515
vt 0.328114 0.171873
vt 0.343752 0.164061
vt 0.085934 0.140619
vt 0.109370 0.156248
vt 0.132749 0.468706
vt 0.320294 0.468706
vt 0.132749 0.257812
vt 0.085934 0.499969
vt 0.125010 0.812507
vt 0.914060 0.796886
vt 0.914060 0.859379
vt 0.132749 0.835940
vt 0.132749 0.820318
vt 0.320294 0.835940
vt 0.203126 0.187499
vt 0.203126 0.242187
vt 0.343362 0.374965
vt 0.343362 0.492128
vt 0.343362 0.382837
vt 0.914060 0.085937
vt 0.914060 0.132807
vt 0.085934 0.132807
vt 0.914060 0.789059
vt 0.109370 0.374965
vt 0.085934 0.734371
vt 0.316718 0.734371
vt 0.043185 0.362594
vt 0.043185 0.371521
vt 0.317445 0.140619
vt 0.343752 0.156248
vt 0.073259 0.056978
vt 0.057635 0.056978
vt 0.132749 0.179686
vt 0.207031 0.179686
vt 0.914060 0.499969
vt 0.340901 0.796885
vt 0.109370 0.609370
vt 0.343752 0.609370
vt 0.132749 0.632808
vt 0.320295 0.632808
vt 0.078121 0.062515
vt 0.328114 0.476514
vt 0.210935 0.687496
vt 0.914060 0.078125
vt 0.085934 0.078125
vt 0.343752 0.617183
vt 0.328114 0.624995
vt 0.914060 0.140619
vt 0.343752 0.374965
vt 0.207031 0.171873
vt 0.109370 0.726559
vt 0.207031 0.718746
vt 0.914060 0.507810
vt 0.132749 0.398444
vt 0.125010 0.390641
vt 0.210935 0.195311
vt 0.304688 0.195311
vt 0.210935 0.234374
vt 0.328114 0.710934
vt 0.937494 0.914062
vt 0.937494 0.054710
vt 0.085934 0.085937
vt 0.043062 0.383720
vt 0.043062 0.383468
vt 0.304688 0.234374
vt 0.207031 0.710934
vt 0.160151 0.414307
vt 0.160151 0.404015
vt 0.109370 0.406247
vt 0.118149 0.492128
vt 0.343362 0.609370
vt 0.328114 0.390641
vt 0.343752 0.718746
vt 0.320295 0.820318
vt 0.043062 0.383971
vt 0.078121 0.914062
vt 0.078121 0.492128
vt 0.921871 0.054710
vt 0.107453 0.492128
vt 0.107453 0.406247
vt 0.109370 0.492128
vt 0.145991 0.834888
vt 0.145991 0.822353
vt 0.043418 0.386539
vt 0.043660 0.386534
vt 0.043660 0.400075
vt 0.316750 0.734371
vt 0.312475 0.640620
vt 0.343752 0.492128
vt 0.343752 0.382837
vt 0.343362 0.484321
vt 0.125010 0.624995
vt 0.117190 0.851562
vt 0.312475 0.242187
vt 0.070309 0.406247
vt 0.210935 0.648433
vt 0.304688 0.648433
vt 0.340901 0.804696
vt 0.343362 0.164061
vt 0.304688 0.414055
vt 0.929682 0.914062
vt 0.929683 0.054710
vt 0.304688 0.687496
vt 0.062497 0.914062
vt 0.054685 0.492128
vt 0.101583 0.491938
vt 0.043185 0.395333
vt 0.343752 0.484321
vt 0.304688 0.453092
vt 0.921871 0.914062
vt 0.343362 0.796885
vn 0.904500 0.301500 -0.301500
vn 0.577300 0.577300 -0.577300
vn 0.577300 0.577300 0.577300
vn 0.804200 0.549100 -0.227400
vn 0.707100 0.707100 0.000000
vn 0.804000 0.549400 0.227200
vn -0.844500 0.371300 -0.385900
vn -0.537000 0.236100 0.809800
vn -0.804200 0.549100 -0.227500
vn -0.804200 0.549000 -0.227500
vn -0.804000 0.549400 0.227200
vn 0.378000 0.912400 -0.156800
vn -0.378000 0.912400 -0.156800
vn -0.298000 0.717100 0.630100
vn -0.341200 0.561600 0.753700
vn -0.189600 0.663700 0.723500
vn -0.577300 0.577300 0.577300
vn -0.577300 0.577300 -0.577300
vn -0.707100 0.000000 -0.707100
vn -0.301500 0.904500 0.301500
vn -0.630200 0.297100 0.717300
vn -0.630200 0.717300 0.297100
vn -0.012500 0.998200 0.058400
vn -0.127900 0.991800 0.000000
vn -0.025000 0.999500 -0.015900
vn -0.110300 0.987700 0.110600
vn 0.300000 0.905500 -0.300200
vn 0.000000 0.923900 -0.382700
vn 0.804200 0.549000 -0.227500
vn 0.904500 0.301500 0.301500
vn 0.707100 0.000000 -0.707100
vn 0.630300 0.717400 0.296700
vn -0.630300 0.717400 0.296700
vn 0.000000 0.707100 -0.707100
vn 0.377800 0.912600 0.156000
vn -0.630300 0.717300 0.296700
vn -0.110100 0.987800 -0.110100
vn -0.300300 0.905300 -0.300300
vn 0.110200 0.987800 -0.110200
vn 0.110000 0.987800 -0.110000
vn 0.300000 0.905500 0.300200
vn 0.301500 0.904500 0.301500
vn 0.301500 0.904500 -0.301500
vn 0.650700 0.391400 -0.650700
vn 0.299900 0.905400 0.300400
vn 0.300100 0.905900 -0.298500
vn -0.110400 0.987700 -0.110600
vn 0.110000 0.987800 0.110000
vn -0.630200 0.717200 -0.297100
vn -0.630300 0.717300 0.297000
vn 0.000000 0.923900 0.382500
vn -0.110000 0.987800 -0.110000
vn 0.110100 0.987800 -0.110200
vn -0.803900 0.549600 -0.227100
vn -0.630200 0.297200 0.717200
vn -0.343500 0.874900 -0.341300
vn -0.291600 0.951000 -0.102300
vn -0.384900 0.922900 0.000000
vn 0.548600 0.682300 -0.483200
vn -0.341200 0.561600 -0.753700
vn -0.537000 0.236100 -0.809800
vn -0.301500 0.904500 -0.301500
vn -0.377800 0.912600 0.156000
vn 0.012500 0.998200 -0.058400
vn 0.110100 0.987800 0.110200
vn 0.012500 0.998200 0.058400
vn 0.000000 0.707100 0.707100
vn -0.110300 0.987700 -0.110600
vn 0.299900 0.905500 0.300200
vn -0.630200 0.717200 -0.297300
vn 0.650700 0.391400 0.650700
vn -0.844500 0.371300 0.385900
vn -0.012500 0.998200 -0.058400
vn 0.844500 0.371300 0.385900
vn 0.844500 0.371300 -0.385900
vn 0.300000 0.905400 0.300500
vn 0.110200 0.987800 0.110200
vn -0.110100 0.987800 0.110100
vn -0.300300 0.905300 0.300300
vn -0.302300 0.904800 -0.299900
vn -0.110000 0.987800 0.110000
vn -0.274600 0.961500 0.000000
vn -0.088100 0.682900 -0.725200
vn 0.299900 0.905500 -0.300200
vn -0.630300 0.297100 -0.717300
vn -0.088100 0.682900 0.725200
vn 0.650700 0.391500 0.650700
vn -0.630200 0.717300 -0.297100
vn 0.630200 0.717300 -0.297100
vn -0.017500 0.701200 0.712800
vn -0.298000 0.717100 -0.630100
vn -0.302300 0.904700 -0.300100
vn 0.300000 0.905400 -0.300300
vn -0.102300 0.951900 -0.288700
vn -0.630400 0.717400 -0.296400
vn 0.630300 0.717300 0.296700
vn 0.630200 0.717200 -0.297300
vn -0.302300 0.904800 -0.300000
vn -0.302300 0.904800 0.300000
vn 0.300000 0.905400 -0.300200
vn -0.630600 0.717600 -0.295600
vn 0.804200 0.549100 -0.227500
vn 0.804200 0.549100 0.227500
vn -0.804200 0.549100 0.227500
vn 0.804100 0.549400 0.227300
vn -0.083600 0.469400 0.879000
vn 0.000000 0.923900 0.382700
vn -0.630200 0.297100 -0.717300
vn -0.302300 0.904800 0.299900
vn 0.630400 0.717400 -0.296400
vn -0.519300 0.854600 0.000000
vn -0.300300 0.905400 -0.300200
vn 0.630200 0.717300 0.297100
vn 0.650300 0.392000 -0.650600
vn -0.629900 0.298600 -0.716900
vn -0.707100 0.000000 0.707100
vn 0.803900 0.549600 -0.227100
vn -0.302300 0.904700 0.300200
vn -0.110400 0.987700 0.110600
vn -0.300300 0.905400 0.300100
vn 0.300900 0.905200 0.300100
vn -0.300300 0.905400 -0.300100
vn 0.127900 0.991800 0.000000
vn -0.189600 0.663700 -0.723500
vn 0.300900 0.905200 -0.300100
vn 0.110100 0.987800 0.110000
vn 0.300000 0.905400 0.300200
vn -0.519200 0.854600 0.000000
vn 0.519300 0.854600 0.000000
vn 0.707100 0.000000 0.707100
vn -0.630300 0.297000 0.717300
vn -0.630200 0.717200 0.297200
vn 0.300000 0.905500 0.300100
vn 0.300900 0.905100 0.300200
vn 0.274600 0.961500 0.000000
vn 0.300900 0.905100 -0.300200
s 1
f 182/1/1 50/1/2 51/2/3
f 53/3/4 170/4/5 168/5/6
f 110/6/7 72/7/8 58/8/9
f 138/9/10 110/6/7 1/10/11
f 109/11/12 175/12/13 138/9/10
f 166/13/14 14/14/15 15/15/16
f 111/16/17 8/16/18 69/16/19
f 3/17/20 67/17/21 152/18/22
f 13/19/23 25/20/24 6/21/25
f 138/9/10 141/6/18 110/6/7
f 136/22/26 163/23/27 92/24/28
f 54/25/29 138/9/10 175/12/13
f 5/2/30 182/1/1 51/2/3
f 56/16/2 182/16/1 137/16/31
f 167/26/32 171/27/33 168/5/6
f 57/28/3 73/6/34 9/29/34
f 105/30/35 97/31/36 1/10/11
f 127/32/37 201/33/38 126/34/39
f 205/35/28 204/36/27 162/37/40
f 132/38/22 198/39/21 164/40/41
f 100/41/42 64/42/43 88/42/44
f 106/43/11 58/8/9 72/7/8
f 116/44/45 43/45/46 45/46/47
f 130/47/40 129/48/48 40/49/49
f 130/47/40 112/50/50 192/51/51
f 128/52/27 122/53/52 114/54/53
f 139/55/54 106/43/11 72/7/8
f 175/56/13 155/56/55 112/57/50
f 131/58/56 203/59/57 158/60/58
f 169/29/2 141/6/18 138/9/10
f 125/61/59 17/62/60 16/63/61
f 179/64/62 178/65/20 132/66/22
f 1/10/11 98/67/63 105/30/35
f 8/68/18 111/69/17 20/70/64
f 47/71/41 204/36/27 75/72/65
f 174/73/43 153/73/44 176/74/42
f 21/75/66 19/76/67 8/68/18
f 120/77/68 79/78/69 190/79/27
f 97/31/36 62/80/70 138/9/10
f 198/39/21 49/81/71 164/40/41
f 191/82/72 16/83/61 17/84/60
f 84/85/28 192/51/51 118/86/68
f 57/28/3 12/87/73 73/6/34
f 8/68/18 19/76/67 74/88/20
f 191/89/72 13/89/23 185/89/67
f 32/90/74 19/90/67 21/90/66
f 147/91/75 20/91/64 9/91/34
f 110/92/7 73/92/34 12/92/73
f 156/93/76 126/34/39 42/94/77
f 194/95/78 200/96/79 127/32/37
f 189/97/80 76/98/81 122/53/52
f 25/20/24 24/99/82 11/100/83
f 154/101/84 38/30/44 146/102/85
f 15/103/16 27/104/82 10/105/86
f 155/12/55 108/11/87 192/51/51
f 152/18/22 151/106/88 3/17/20
f 63/107/89 3/108/20 170/4/5
f 10/109/86 7/110/90 166/13/14
f 51/111/3 50/112/2 94/113/91
f 22/114/17 185/82/67 74/88/20
f 161/115/48 92/24/28 48/116/88
f 25/20/24 11/100/83 6/21/25
f 145/117/22 64/118/43 100/81/42
f 45/46/47 44/119/92 46/120/93
f 103/88/17 74/88/20 60/76/3
f 164/40/41 91/121/94 162/37/40
f 198/65/21 132/66/22 178/65/20
f 72/7/8 173/122/95 139/55/54
f 81/123/26 118/86/68 154/101/84
f 98/67/63 96/124/96 95/125/97
f 41/126/98 186/127/99 196/128/100
f 168/5/6 106/43/11 139/55/54
f 159/129/81 160/130/52 131/58/56
f 99/131/62 4/132/20 78/133/101
f 77/134/102 39/135/103 180/136/104
f 58/8/9 53/3/4 55/137/105
f 61/138/43 59/83/18 100/81/42
f 58/8/9 143/139/88 177/140/28
f 59/63/18 107/61/2 16/63/61
f 2/141/67 72/142/8 117/13/106
f 1/10/11 97/31/36 138/9/10
f 181/143/107 179/144/62 64/118/43
f 68/144/108 48/116/88 92/24/28
f 64/118/43 179/144/62 68/144/108
f 58/8/9 1/10/11 110/6/7
f 40/49/49 154/101/84 146/102/85
f 103/88/17 104/114/20 22/114/17
f 104/145/20 102/146/17 185/146/67
f 90/147/109 133/148/107 159/129/81
f 139/55/54 173/122/95 140/149/110
f 112/57/50 98/150/63 175/56/13
f 161/115/48 48/116/88 132/38/22
f 175/12/13 98/67/63 95/125/97
f 41/126/98 196/128/100 84/85/28
f 174/151/43 143/139/88 171/27/33
f 153/151/44 36/152/108 190/79/27
f 119/153/109 80/154/41 76/98/81
f 6/21/25 182/1/1 13/19/23
f 54/25/29 169/29/2 138/9/10
f 23/155/111 191/82/72 17/84/60
f 74/88/20 19/76/67 60/76/3
f 202/156/40 45/46/47 46/120/93
f 2/141/67 172/142/17 72/142/8
f 122/53/52 76/98/81 187/157/112
f 159/129/81 133/148/107 75/72/65
f 104/114/20 66/158/89 101/159/88
f 151/160/88 157/161/48 190/79/27
f 144/162/113 181/143/107 39/135/103
f 43/45/46 124/138/114 121/163/115
f 147/29/75 169/29/2 54/25/29
f 93/164/107 161/115/48 47/71/41
f 111/69/17 57/28/3 9/29/34
f 67/108/21 113/165/71 193/166/107
f 75/72/65 133/148/107 47/71/41
f 57/16/3 111/16/17 70/16/116
f 168/5/6 52/167/117 147/29/75
f 82/168/118 87/169/119 156/93/76
f 149/170/120 148/171/121 135/172/122
f 1/10/11 55/137/105 98/67/63
f 145/117/22 180/136/104 181/143/107
f 171/27/33 143/139/88 58/8/9
f 89/173/40 157/161/48 151/160/88
f 20/70/64 31/174/123 35/175/123
f 191/82/72 101/159/88 188/176/9
f 125/61/59 11/177/83 18/178/124
f 180/136/104 39/135/103 181/143/107
f 67/108/21 3/108/20 176/165/42
f 160/130/52 205/35/28 131/58/56
f 148/171/121 75/72/65 134/179/125
f 168/5/6 147/29/75 53/3/4
f 62/80/70 97/31/36 109/11/12
f 144/162/113 140/149/110 178/39/20
f 193/166/107 83/180/28 89/173/40
f 57/28/3 5/2/30 12/87/73
f 107/181/2 61/182/43 124/182/114
f 154/101/84 129/48/48 81/123/26
f 45/46/47 202/156/40 116/44/45
f 15/15/16 10/109/86 166/13/14
f 69/16/19 8/16/18 56/16/2
f 118/86/68 81/123/26 41/126/98
f 116/44/45 125/183/59 43/45/46
f 182/16/1 5/16/30 137/16/31
f 172/7/17 2/184/67 173/122/95
f 47/71/41 161/115/48 204/36/27
f 84/85/28 118/86/68 41/126/98
f 142/185/62 3/17/20 151/106/88
f 80/154/41 157/161/48 128/52/27
f 127/32/37 44/119/92 82/168/118
f 61/138/43 107/183/2 59/83/18
f 183/186/126 87/169/119 43/45/46
f 54/25/29 96/124/96 55/137/105
f 131/58/56 205/35/28 91/121/94
f 122/53/52 187/157/112 114/54/53
f 89/173/40 151/160/88 152/187/22
f 186/127/99 81/123/26 197/188/127
f 125/61/59 6/189/25 11/177/83
f 189/97/80 128/52/27 83/180/28
f 90/147/109 136/22/26 93/164/107
f 26/190/128 14/191/15 110/6/7
f 32/76/74 33/192/129 147/29/75
f 71/16/130 137/16/31 5/16/30
f 166/193/14 94/194/91 117/195/106
f 126/34/39 46/120/93 127/32/37
f 109/196/12 105/197/35 38/197/44
f 164/40/41 203/59/57 91/121/94
f 83/180/28 120/77/68 189/97/80
f 15/103/16 14/191/15 27/104/82
f 46/120/93 44/119/92 127/32/37
f 52/167/117 39/135/103 32/76/74
f 145/117/22 181/143/107 64/118/43
f 125/198/59 94/199/91 182/200/1
f 70/16/116 111/16/17 69/16/19
f 90/147/109 131/58/56 158/60/58
f 133/148/107 90/147/109 93/164/107
f 176/165/42 177/201/28 143/139/88
f 115/202/65 80/154/41 128/52/27
f 14/191/15 72/7/8 110/6/7
f 120/77/68 193/166/107 79/78/69
f 61/138/43 99/163/62 121/163/115
f 105/30/35 98/67/63 146/102/85
f 92/24/28 93/164/107 136/22/26
f 74/88/20 56/16/2 8/68/18
f 117/195/106 65/203/131 2/184/67
f 193/166/107 152/187/22 67/108/21
f 52/167/117 140/149/110 39/135/103
f 78/204/101 183/186/126 43/45/46
f 62/80/70 109/11/12 138/9/10
f 97/31/36 105/30/35 109/11/12
f 63/107/89 53/3/4 177/140/28
f 4/132/20 65/132/131 123/205/132
f 147/29/75 54/25/29 55/137/105
f 180/136/104 16/83/61 191/82/72
f 128/52/27 189/97/80 122/53/52
f 119/153/109 150/206/26 80/154/41
f 37/207/133 154/101/84 118/86/68
f 140/149/110 144/162/113 39/135/103
f 16/63/61 107/61/2 125/61/59
f 120/77/68 83/180/28 193/166/107
f 140/149/110 173/122/95 4/203/20
f 175/12/13 95/125/97 54/25/29
f 160/130/52 135/172/122 165/208/53
f 164/40/41 158/60/58 203/59/57
f 178/39/20 100/81/42 49/81/71
f 164/40/41 49/81/71 88/118/44
f 190/79/27 79/78/69 153/151/44
f 123/205/132 78/133/101 4/132/20
f 169/29/2 9/29/34 141/6/18
f 36/185/108 142/185/62 151/106/88
f 198/39/21 178/39/20 49/81/71
f 118/86/68 192/51/51 37/207/133
f 17/84/60 18/209/124 24/99/82
f 96/124/96 98/67/63 55/137/105
f 13/19/23 182/1/1 56/16/2
f 65/203/131 4/203/20 2/184/67
f 204/36/27 205/35/28 165/208/53
f 77/134/102 66/158/89 32/76/74
f 23/155/111 17/84/60 24/99/82
f 195/210/120 86/211/121 187/157/112
f 158/60/58 136/22/26 90/147/109
f 140/149/110 4/203/20 99/163/62
f 98/150/63 112/57/50 40/212/49
f 132/66/22 48/213/88 179/64/62
f 150/206/26 120/77/68 190/79/27
f 184/214/134 200/96/79 42/94/77
f 74/88/20 13/19/23 56/16/2
f 179/144/62 181/143/107 144/162/113
f 130/47/40 84/85/28 196/128/100
f 104/114/20 103/88/17 60/76/3
f 124/138/114 61/138/43 121/163/115
f 5/16/30 57/16/3 71/16/130
f 72/7/8 172/7/17 173/122/95
f 185/82/67 13/19/23 74/88/20
f 101/159/88 66/158/89 188/176/9
f 59/83/18 16/83/61 145/117/22
f 43/45/46 87/169/119 45/46/47
f 89/173/40 83/180/28 128/52/27
f 178/39/20 179/144/62 144/162/113
f 125/61/59 18/178/124 17/62/60
f 150/206/26 119/153/109 120/77/68
f 191/82/72 188/176/9 180/136/104
f 99/163/62 61/138/43 100/81/42
f 202/156/40 183/186/126 78/204/101
f 153/73/44 113/74/71 176/74/42
f 132/38/22 164/40/41 162/37/40
f 101/159/88 102/82/17 104/114/20
f 159/129/81 149/170/120 160/130/52
f 30/215/135 34/216/135 31/174/123
f 114/54/53 115/202/65 128/52/27
f 45/46/47 87/169/119 44/119/92
f 186/127/99 197/188/127 196/128/100
f 59/83/18 145/117/22 100/81/42
f 205/35/28 160/130/52 165/208/53
f 99/163/62 178/39/20 140/149/110
f 155/12/55 175/12/13 108/11/87
f 175/12/13 109/11/12 108/11/87
f 174/151/43 176/165/42 143/139/88
f 22/145/17 104/145/20 185/146/67
f 36/152/108 151/160/88 190/79/27
f 66/158/89 60/76/3 32/76/74
f 86/211/121 115/202/65 85/217/125
f 180/136/104 145/117/22 16/83/61
f 60/76/3 66/158/89 104/114/20
f 63/107/89 177/140/28 3/108/20
f 99/163/62 100/81/42 178/39/20
f 152/187/22 193/166/107 89/173/40
f 32/76/74 147/29/75 52/167/117
f 79/78/69 113/165/71 153/151/44
f 125/181/59 107/181/2 124/182/114
f 156/93/76 183/186/126 46/120/93
f 76/98/81 195/210/120 187/157/112
f 167/26/32 142/152/62 171/27/33
f 28/218/24 12/87/73 7/219/90
f 79/78/69 193/166/107 113/165/71
f 81/123/26 186/127/99 41/126/98
f 162/37/40 91/121/94 205/35/28
f 192/51/51 84/85/28 130/47/40
f 148/171/121 149/170/120 75/72/65
f 136/22/26 158/60/58 163/23/27
f 27/104/82 28/218/24 10/105/86
f 163/23/27 164/40/41 88/118/44
f 108/196/87 109/196/12 38/197/44
f 87/169/119 183/186/126 156/93/76
f 153/151/44 174/151/43 36/152/108
f 52/167/117 139/55/54 140/149/110
f 189/97/80 119/153/109 76/98/81
f 24/99/82 18/209/124 11/100/83
f 173/122/95 2/184/67 4/203/20
f 93/164/107 47/71/41 133/148/107
f 49/41/71 100/41/42 88/42/44
f 9/29/34 73/6/34 141/6/18
f 106/43/11 171/27/33 58/8/9
f 171/27/33 142/152/62 174/151/43
f 8/68/18 20/70/64 21/75/66
f 142/152/62 170/4/5 3/108/20
f 167/26/32 170/4/5 142/152/62
f 124/138/114 43/45/46 125/183/59
f 150/206/26 157/161/48 80/154/41
f 119/153/109 189/97/80 120/77/68
f 66/158/89 77/134/102 188/176/9
f 88/118/44 68/144/108 92/24/28
f 81/123/26 129/48/48 197/188/127
f 156/93/76 46/120/93 126/34/39
f 116/44/45 117/195/106 125/183/59
f 191/82/72 102/82/17 101/159/88
f 166/220/14 51/111/3 94/113/91
f 86/211/121 195/210/120 115/202/65
f 111/69/17 9/29/34 20/70/64
f 21/75/66 20/70/64 35/175/123
f 7/110/90 5/221/30 51/221/3
f 158/60/58 164/40/41 163/23/27
f 55/137/105 53/3/4 147/29/75
f 82/168/118 156/93/76 194/95/78
f 58/8/9 177/140/28 53/3/4
f 38/30/44 154/101/84 37/207/133
f 176/165/42 3/108/20 177/201/28
f 130/47/40 40/49/49 112/50/50
f 154/101/84 40/49/49 129/48/48
f 37/207/133 192/51/51 108/11/87
f 117/13/106 72/142/8 166/13/14
f 170/4/5 167/26/32 168/5/6
f 1/10/11 58/8/9 55/137/105
f 202/156/40 78/204/101 123/222/132
f 187/157/112 85/217/125 114/54/53
f 195/210/120 76/98/81 115/202/65
f 188/176/9 77/134/102 180/136/104
f 115/202/65 114/54/53 85/217/125
f 71/16/130 57/16/3 70/16/116
f 52/167/117 168/5/6 139/55/54
f 74/88/20 103/88/17 22/114/17
f 86/211/121 85/217/125 187/157/112
f 184/214/134 199/223/136 201/33/38
f 200/96/79 194/95/78 42/94/77
f 42/94/77 126/34/39 199/223/136
f 201/33/38 199/223/136 126/34/39
f 174/151/43 142/152/62 36/152/108
f 116/44/45 123/222/132 65/203/131
f 48/213/88 68/64/108 179/64/62
f 42/94/77 194/95/78 156/93/76
f 183/186/126 202/156/40 46/120/93
f 14/191/15 26/190/128 27/104/82
f 112/50/50 155/12/55 192/51/51
f 63/107/89 170/4/5 53/3/4
f 87/169/119 82/168/118 44/119/92
f 93/164/107 92/24/28 161/115/48
f 171/27/33 106/43/11 168/5/6
f 29/224/129 33/192/129 34/216/135
f 92/24/28 163/23/27 88/118/44
f 202/156/40 123/222/132 116/44/45
f 200/96/79 201/33/38 127/32/37
f 157/161/48 89/173/40 128/52/27
f 196/128/100 197/188/127 129/48/48
f 88/118/44 64/118/43 68/144/108
f 72/142/8 14/14/15 166/13/14
f 149/170/120 135/172/122 160/130/52
f 148/171/121 134/179/125 135/172/122
f 34/216/135 35/175/123 31/174/123
f 5/2/30 7/219/90 12/87/73
f 113/165/71 67/108/21 176/165/42
f 10/105/86 28/218/24 7/219/90
f 149/170/120 159/129/81 75/72/65
f 75/72/65 165/208/53 134/179/125
f 135/172/122 134/179/125 165/208/53
f 204/36/27 165/208/53 75/72/65
f 132/38/22 162/37/40 161/115/48
f 38/30/44 105/30/35 146/102/85
f 131/58/56 90/147/109 159/129/81
f 121/131/115 99/131/62 78/133/101
f 137/16/31 69/16/19 56/16/2
f 184/214/134 42/94/77 199/223/136
f 190/79/27 157/161/48 150/206/26
f 117/195/106 116/44/45 65/203/131
f 33/192/129 29/224/129 147/29/75
f 108/11/87 38/30/44 37/207/133
f 130/47/40 196/128/100 129/48/48
f 203/59/57 131/58/56 91/121/94
f 200/96/79 184/214/134 201/33/38
f 39/135/103 77/134/102 32/76/74
f 161/115/48 162/37/40 204/36/27
f 194/95/78 127/32/37 82/168/118
f 94/194/91 125/183/59 117/195/106
f 80/154/41 115/202/65 76/98/81
f 54/25/29 95/125/97 96/124/96
f 7/110/90 51/221/3 166/13/14
f 146/225/85 98/150/63 40/212/49
f 30/215/135 29/224/129 34/216/135
f 78/204/101 43/45/46 121/163/115
f 94/199/91 50/200/2 182/200/1
