v 0.540020 1.280000 -1.280000
v -0.399975 1.280000 -1.280000
v 0.540020 1.280000 -0.000010
v -0.399975 1.280000 -0.000010
v -0.399975 1.220000 -1.280000
v 0.540020 1.220000 -1.280000
v 0.540020 1.220000 -0.000010
v -0.399975 1.220000 -0.000010
v -0.265690 1.220000 -1.280000
v -0.220929 1.180000 -1.280000
v -0.176167 1.170000 -1.280000
v -0.131405 1.180000 -1.280000
v -0.086644 1.220000 -1.280000
v -0.041882 1.180000 -1.280000
v 0.002880 1.170000 -1.280000
v 0.047641 1.180000 -1.280000
v 0.092403 1.220000 -1.280000
v 0.137165 1.220000 -1.280000
v 0.181926 1.180000 -1.280000
v 0.226688 1.170000 -1.280000
v 0.271450 1.180000 -1.280000
v 0.316212 1.220000 -1.280000
v 0.316212 1.220000 -0.000010
v 0.271450 1.180000 -0.000010
v 0.226688 1.170000 -0.000010
v 0.181926 1.180000 -0.000010
v 0.137165 1.220000 -0.000010
v 0.092403 1.220000 -0.000010
v 0.047641 1.180000 -0.000010
v 0.002880 1.170000 -0.000010
v -0.041882 1.180000 -0.000010
v -0.086644 1.220000 -0.000010
v -0.131405 1.180000 -0.000010
v -0.176167 1.170000 -0.000010
v -0.220929 1.180000 -0.000010
v -0.265690 1.220000 -0.000010
v -1.280000 1.280000 -1.280000
v 1.280000 1.280000 -1.280000
v 0.459990 1.240000 -0.020010
v 0.340001 1.240000 -0.019984
v 0.340001 1.240000 -0.240006
v -1.240071 1.240000 -0.240006
v -1.280000 1.240000 -0.240007
v -1.280000 1.240000 -0.019921
v 1.280000 1.240000 -0.020152
v 1.280000 1.240000 -0.240007
v -1.190039 1.240000 -0.289968
v -0.859998 1.240000 -0.620008
v -1.280000 1.280000 -0.000010
v -0.099992 1.240000 -0.639992
v -0.099992 1.240000 -1.280000
v -0.859998 1.240000 -1.280000
v -1.280000 1.260000 -1.280000
v 0.699999 1.260000 -1.280000
v 1.280000 1.260000 -1.280000
v -0.859998 1.260000 -1.280000
v -0.099992 1.260000 -1.280000
v -0.099992 1.260000 -0.639992
v -1.280000 1.260000 -0.240007
v -1.190039 1.260000 -0.289968
v -0.859998 1.260000 -0.620008
v 1.280000 1.260000 -0.240007
v -0.099992 1.260000 -0.240006
v -1.280000 1.260000 -0.000010
v -1.280000 1.260000 -0.019921
v 1.280000 1.260000 -0.020152
v -1.240071 1.260000 -0.240006
v 0.340001 1.260000 -0.240006
v 0.459990 1.260000 -0.020010
v 0.340001 1.260000 -1.280000
v 0.340001 1.260000 -0.719995
v 0.699999 1.260000 -1.020005
v 0.399990 1.260000 -0.719995
v 0.340001 1.240000 -0.719995
v 0.340001 1.240000 -1.280000
v 0.699999 1.240000 -1.280000
v 0.699999 1.240000 -1.020005
v 0.399990 1.240000 -0.719995
v 0.459990 1.260000 -0.000010
v -1.000075 1.240000 -0.000010
v -0.739974 1.260000 -0.000010
v 1.280000 1.280000 -0.000010
v -0.099992 1.260000 -0.000010
v -1.260088 1.240000 -0.000010
v -0.900081 1.260000 -0.000010
v -1.000075 1.260000 -0.000010
v -0.739974 1.240000 -0.000010
v -1.260088 1.260000 -0.000010
v 1.280000 1.260000 -0.000010
v -0.900081 1.240000 -0.000010
v 0.539650 1.280000 -0.000010
v 0.539650 1.260000 -0.000010
v -0.399729 1.280000 -0.000010
v -0.399729 1.260000 -0.000010
vt 0.710945 0.000000
vt 0.710945 0.460205
vt 0.623520 0.460205
vt 0.709891 0.460205
vt 0.709891 0.000000
vt 0.344813 0.000000
vt 0.344813 0.460205
vt 0.007778 0.499996
vt 0.000000 0.492218
vt 0.015597 0.406247
vt 0.396215 0.000000
vt 0.396215 0.460205
vt 0.343759 0.460205
vt 0.413700 0.000000
vt 0.413700 0.460205
vt 0.431185 0.000000
vt 0.431185 0.460205
vt 0.448670 0.000000
vt 0.448670 0.460205
vt 0.466155 0.000000
vt 0.466155 0.460205
vt 0.483640 0.000000
vt 0.483640 0.460205
vt 0.501125 0.000000
vt 0.501125 0.460205
vt 0.518610 0.000000
vt 0.518610 0.460205
vt 0.536095 0.000000
vt 0.536095 0.460205
vt 0.553580 0.000000
vt 0.553580 0.460205
vt 0.571065 0.000000
vt 0.571065 0.460205
vt 0.588550 0.000000
vt 0.588550 0.460205
vt 0.606035 0.000000
vt 0.606035 0.460205
vt 0.623520 0.000000
vt 1.000000 0.406247
vt 1.000000 0.492128
vt 0.679683 0.492184
vt 0.592155 0.415548
vt 0.592155 0.409170
vt 0.594292 0.426709
vt 0.656246 0.218752
vt 0.632813 0.000000
vt 0.773437 0.101561
vt 0.460941 0.250003
vt 0.210948 0.499996
vt 0.164063 0.257810
vt 0.035141 0.386731
vt 0.148406 0.499996
vt 0.000000 0.000000
vt 0.710801 0.499035
vt 0.480472 0.406248
vt 0.480472 0.499996
vt 0.363387 0.499996
vt 0.935351 0.007813
vt 0.921363 0.007813
vt 0.896884 0.007813
vt 0.632813 0.218752
vt 0.109346 0.499996
vt 0.632813 0.406247
vt 0.000000 0.703125
vt 0.793945 0.078097
vt 0.793945 0.035183
vt 0.164063 0.000000
vt 0.000000 0.406247
vt 0.529300 0.211698
vt 0.529300 0.114476
vt 0.000000 0.507531
vt 0.222388 0.518829
vt 0.252013 0.489204
vt 0.710801 0.500000
vt 1.000000 0.500000
vt 1.000000 0.507531
vt 0.343760 0.000000
vt 0.632813 0.492194
vt 0.594292 0.393226
vt 0.592155 0.421926
vt 0.590730 0.420331
vt 0.590374 0.418737
vt 0.592155 0.426709
vt 0.592155 0.401198
vt 0.592155 0.393226
vt 0.590374 0.404387
vt 0.590730 0.402793
vt 0.592155 0.407576
vt 0.590730 0.405982
vt 0.590374 0.412359
vt 0.590730 0.410765
vt 0.590730 0.413954
vt 0.590730 0.417143
vt 0.773437 0.000000
vt 0.460941 0.000000
vt 0.679683 0.499012
vt 0.230479 0.499996
vt 0.480472 0.250003
vt 0.907375 0.007813
vt 0.970321 0.007813
vt 0.952836 0.007813
vt 0.949339 0.007813
vt 0.945842 0.007813
vt 0.942345 0.007813
vt 0.938848 0.007813
vt 0.931854 0.007813
vt 0.928357 0.007813
vt 0.924860 0.007813
vt 0.917866 0.007813
vt 0.914369 0.007813
vt 0.910872 0.007813
vt 1.000000 0.000000
vt 0.460941 0.406248
vt 0.343856 0.507531
vt 0.007778 0.492469
vt 0.109346 0.492469
vt 0.000000 0.500000
vt 0.343856 0.500000
vt 0.148406 0.492469
vt 0.210948 0.492469
vt 0.710801 0.507531
vn 0.000000 -1.000000 -0.000000
vn 1.000000 0.000000 0.000000
vn -1.000000 0.000000 0.000000
vn -0.666300 -0.745700 0.000000
vn -0.218000 -0.975900 0.000000
vn 0.218000 -0.975900 0.000000
vn 0.666300 -0.745700 -0.000000
vn 0.000000 0.000000 1.000000
vn -0.707100 0.000000 0.707100
vn 0.000000 0.000000 -1.000000
vn 0.707100 0.000000 -0.707100
vn 0.000200 0.000000 1.000000
vn -0.707100 0.000000 -0.707100
vn 0.707100 0.000000 0.707100
s off
f 6/1/1 7/2/1 23/3/1
f 3/4/2 7/4/2 6/5/2
f 2/6/3 5/6/3 8/7/3
f 84/8/1 44/9/1 42/10/1
f 9/11/1 36/12/1 8/13/1
f 10/14/4 35/15/4 36/12/4
f 11/16/5 34/17/5 35/15/5
f 12/18/6 33/19/6 34/17/6
f 13/20/7 32/21/7 33/19/7
f 14/22/4 31/23/4 32/21/4
f 15/24/5 30/25/5 31/23/5
f 16/26/6 29/27/6 30/25/6
f 17/28/7 28/29/7 29/27/7
f 18/30/1 27/31/1 28/29/1
f 19/32/4 26/33/4 27/31/4
f 20/34/5 25/35/5 26/33/5
f 21/36/6 24/37/6 25/35/6
f 22/38/7 23/3/7 24/37/7
f 46/39/1 45/40/1 39/41/1
f 32/42/8 28/43/8 4/44/8
f 78/45/1 75/46/1 77/47/1
f 50/48/1 87/49/1 48/50/1
f 60/51/9 47/51/9 90/52/9
f 37/53/3 59/53/3 49/53/3
f 92/54/1 69/41/1 66/40/1
f 63/55/1 83/56/1 94/57/1
f 38/53/10 57/53/10 37/53/10
f 17/58/10 13/59/10 2/60/10
f 71/61/8 74/61/8 78/45/8
f 60/51/1 53/53/1 61/50/1
f 86/62/11 80/62/11 42/10/11
f 69/41/12 39/41/12 45/40/12
f 73/45/1 68/63/1 71/61/1
f 62/39/10 46/39/10 41/63/10
f 88/8/1 64/64/1 65/9/1
f 72/65/2 77/65/2 76/66/2
f 61/50/13 48/50/13 47/51/13
f 56/67/3 52/67/3 48/50/3
f 73/45/14 78/45/14 77/47/14
f 67/10/10 42/10/10 43/68/10
f 82/53/2 66/53/2 62/53/2
f 70/46/3 75/46/3 74/61/3
f 58/69/2 50/69/2 51/70/2
f 86/62/8 85/52/8 49/71/8
f 65/9/9 44/9/9 84/8/9
f 87/72/14 50/73/14 58/73/14
f 92/74/8 89/75/8 82/76/8
f 22/38/1 6/1/1 23/3/1
f 1/5/2 3/4/2 6/5/2
f 4/7/3 2/6/3 8/7/3
f 43/68/1 42/10/1 44/9/1
f 80/62/1 84/8/1 42/10/1
f 5/77/1 9/11/1 8/13/1
f 9/11/4 10/14/4 36/12/4
f 10/14/5 11/16/5 35/15/5
f 11/16/6 12/18/6 34/17/6
f 12/18/7 13/20/7 33/19/7
f 13/20/4 14/22/4 32/21/4
f 14/22/5 15/24/5 31/23/5
f 15/24/6 16/26/6 30/25/6
f 16/26/7 17/28/7 29/27/7
f 17/28/1 18/30/1 28/29/1
f 18/30/4 19/32/4 27/31/4
f 19/32/5 20/34/5 26/33/5
f 20/34/6 21/36/6 25/35/6
f 21/36/7 22/38/7 24/37/7
f 39/41/1 40/78/1 41/63/1
f 41/63/1 46/39/1 39/41/1
f 3/79/8 4/44/8 28/43/8
f 36/80/8 35/81/8 34/82/8
f 4/44/8 8/83/8 36/80/8
f 23/84/8 7/85/8 3/79/8
f 25/86/8 24/87/8 23/84/8
f 27/88/8 26/89/8 25/86/8
f 30/90/8 29/91/8 28/43/8
f 27/88/8 25/86/8 23/84/8
f 31/92/8 30/90/8 32/42/8
f 28/43/8 27/88/8 3/79/8
f 36/80/8 34/82/8 32/42/8
f 27/88/8 23/84/8 3/79/8
f 34/82/8 33/93/8 32/42/8
f 32/42/8 30/90/8 28/43/8
f 4/44/8 36/80/8 32/42/8
f 76/94/1 77/47/1 75/46/1
f 78/45/1 74/61/1 75/46/1
f 48/50/1 52/67/1 50/48/1
f 51/95/1 50/48/1 52/67/1
f 87/49/1 90/52/1 48/50/1
f 47/51/1 48/50/1 90/52/1
f 85/52/9 60/51/9 90/52/9
f 64/53/3 49/53/3 65/53/3
f 37/53/3 53/53/3 59/53/3
f 59/53/3 43/53/3 44/53/3
f 65/53/3 49/53/3 59/53/3
f 59/53/3 44/53/3 65/53/3
f 66/40/1 89/75/1 92/54/1
f 92/54/1 79/96/1 69/41/1
f 94/57/1 81/97/1 58/98/1
f 58/98/1 63/55/1 94/57/1
f 53/53/10 37/53/10 56/53/10
f 38/53/10 55/53/10 54/53/10
f 54/53/10 76/53/10 75/53/10
f 57/53/10 51/53/10 52/53/10
f 54/53/10 75/53/10 70/53/10
f 57/53/10 52/53/10 56/53/10
f 54/53/10 70/53/10 38/53/10
f 56/53/10 37/53/10 57/53/10
f 38/53/10 70/53/10 57/53/10
f 5/60/10 2/60/10 9/99/10
f 1/100/10 6/100/10 22/101/10
f 22/101/10 21/102/10 20/103/10
f 20/103/10 19/104/10 18/105/10
f 17/58/10 16/106/10 15/107/10
f 22/101/10 20/103/10 18/105/10
f 17/58/10 15/107/10 13/59/10
f 22/101/10 18/105/10 1/100/10
f 9/99/10 2/60/10 13/59/10
f 1/100/10 18/105/10 17/58/10
f 15/107/10 14/108/10 13/59/10
f 13/59/10 12/109/10 11/110/10
f 11/110/10 10/111/10 9/99/10
f 1/100/10 17/58/10 2/60/10
f 13/59/10 11/110/10 9/99/10
f 73/45/8 71/61/8 78/45/8
f 60/51/1 85/52/1 86/62/1
f 56/67/1 61/50/1 53/53/1
f 59/68/1 53/53/1 60/51/1
f 60/51/1 86/62/1 67/10/1
f 67/10/1 59/68/1 60/51/1
f 67/10/11 86/62/11 42/10/11
f 66/40/12 69/41/12 45/40/12
f 72/47/1 54/94/1 55/112/1
f 57/95/1 70/46/1 71/61/1
f 73/45/1 72/47/1 62/39/1
f 58/48/1 57/95/1 71/61/1
f 72/47/1 55/112/1 62/39/1
f 58/48/1 71/61/1 68/63/1
f 68/63/1 63/113/1 58/48/1
f 73/45/1 62/39/1 68/63/1
f 68/63/10 62/39/10 41/63/10
f 54/66/2 72/65/2 76/66/2
f 60/51/13 61/50/13 47/51/13
f 61/50/3 56/67/3 48/50/3
f 72/47/14 73/45/14 77/47/14
f 59/68/10 67/10/10 43/68/10
f 55/53/2 38/53/2 62/53/2
f 82/53/2 89/53/2 66/53/2
f 66/53/2 45/53/2 46/53/2
f 62/53/2 38/53/2 82/53/2
f 66/53/2 46/53/2 62/53/2
f 71/61/3 70/46/3 74/61/3
f 57/70/2 58/69/2 51/70/2
f 93/114/8 49/71/8 85/52/8
f 88/8/8 84/115/8 80/116/8
f 49/71/8 64/117/8 88/8/8
f 81/49/8 94/118/8 93/114/8
f 90/119/8 87/120/8 81/49/8
f 88/8/8 80/116/8 86/62/8
f 85/52/8 90/119/8 81/49/8
f 88/8/8 86/62/8 49/71/8
f 85/52/8 81/49/8 93/114/8
f 88/8/9 65/9/9 84/8/9
f 81/72/14 87/72/14 58/73/14
f 91/121/8 92/74/8 82/76/8
