# Blender v2.76 (sub 0) OBJ File: 'sci1_3.blend'
# www.blender.org
v -1.280000 1.280000 -1.280000
v -1.280000 1.240000 -1.240084
v -1.280000 1.280000 1.280087
v -1.280000 1.240000 1.239913
v -1.280000 1.250000 1.260000
v -1.280000 1.240000 -1.120023
v -1.280000 1.240000 1.039850
v -1.280000 1.200000 0.999865
v -1.280000 1.200000 -1.120023
v -1.280000 1.220000 1.039850
v 0.720000 1.239999 0.879918
v 0.720000 1.279999 -0.799991
v 0.720000 1.279999 0.840002
v 0.720000 1.279999 0.960064
v 1.280000 1.280000 -1.280000
v 1.280000 1.240000 -0.840167
v 1.280000 1.250000 -0.820080
v 1.280000 1.240000 -1.240084
v 1.280000 1.280000 0.840000
v 1.280000 1.280000 1.280087
v 1.280000 1.240000 1.239913
v 1.280000 1.250000 1.260000
v 1.280000 1.240000 0.879916
v 1.280000 1.240000 1.199999
v 1.280000 1.280000 -0.799993
v 0.060303 1.240000 -1.000019
v 0.060303 1.240000 0.919806
v 0.060303 1.240000 0.840001
v 0.060303 1.239999 0.959881
v 0.060303 1.239999 0.999866
v 0.060303 1.239999 1.039851
v 0.060303 1.240000 -1.120022
v -0.020998 1.200000 0.819353
v -1.280000 1.200000 0.819352
v 0.679896 1.239999 -0.840165
v 0.679896 1.239999 0.919807
v 0.679896 1.239999 1.200001
v 0.679896 1.239999 0.879918
v 0.699948 1.249999 -0.820066
v 0.699948 1.249999 0.860004
v 0.440000 1.240000 0.840001
v 0.440000 1.240000 -1.000019
v 0.060303 1.240000 -0.419966
v 0.440000 1.239999 -0.419966
v 0.060303 1.239999 0.260058
v 0.440000 1.239999 0.260058
v 0.299997 1.159999 0.740092
v 0.299997 1.159999 0.380078
v 0.299997 1.159999 -0.880032
v 0.299997 1.159999 -0.520243
v -0.020998 1.200000 0.299742
v -1.280000 1.200000 -0.960027
v -1.280000 1.200000 -0.440073
v -0.020998 1.219999 1.039851
v -0.020998 1.200000 -1.120022
v -0.020998 1.199999 0.999866
v -0.020998 1.240000 -1.120022
v -0.020998 1.200000 -0.960027
v -0.020998 1.200000 -0.440072
v 0.060303 1.240000 -1.201323
v -0.020998 1.240000 -1.201323
v -0.740210 1.200000 -0.840166
v -0.800319 1.200000 -0.779877
v -0.577490 1.200000 -0.440072
v -0.680147 1.200000 -0.520243
v -0.800319 1.200000 -0.660064
v -0.740210 1.200000 -0.580307
v -0.580055 1.200000 -0.960027
v -0.679681 1.200001 -0.899157
v -0.577490 1.200000 0.299742
v -0.680147 1.200000 0.362077
v -0.740210 1.200000 0.440141
v -0.779321 1.200002 0.497508
v -0.577490 1.160000 0.740092
v -0.577490 1.200000 0.819353
v -0.577490 1.160000 0.380077
v -0.680147 1.200000 0.758092
v -0.740210 1.200000 0.680028
v -0.779321 1.200001 0.619074
v -0.696709 1.159999 0.484747
v -0.642307 1.160000 0.688253
v -0.740210 1.160000 0.527732
v -0.740210 1.160000 0.596239
v -0.642306 1.160000 0.432359
v -0.696709 1.159999 0.639230
v -0.642306 1.160000 -0.840166
v -0.696709 1.160000 -0.640938
v -0.696709 1.160000 -0.799993
v -0.740210 1.160000 -0.702343
v -0.740210 1.160000 -0.744470
v -0.642306 1.160000 -0.584941
v -0.577490 1.160000 -0.520243
v -0.580055 1.160000 -0.880032
v -1.119854 1.220000 0.119892
v -1.160389 1.200000 0.160427
v -1.160389 1.200000 -0.240606
v -1.119854 1.220000 -0.200072
v -0.180031 1.220000 0.119892
v -0.180031 1.220000 -0.200072
v -0.140273 1.200000 0.160427
v -0.140273 1.200000 -0.240606
v 1.080000 1.280000 0.960062
v 0.920000 1.240000 -1.200062
v 1.240000 1.240000 1.200000
v 1.160000 1.240000 1.200000
v 1.080000 1.240000 1.200000
v 1.000000 1.240000 1.200000
v 0.920001 1.240000 1.200001
v 0.840001 1.240000 1.200001
v 1.160000 1.240000 -0.920028
v 0.760000 1.239999 1.200001
v 1.240000 1.280000 0.960062
v 0.720000 1.279999 -1.160042
v 1.080000 1.280000 -0.920028
v 1.080000 1.240000 -0.920028
v 1.200000 1.280000 0.960062
v 1.040000 1.280000 0.960063
v 0.760000 1.279999 1.200001
v 0.880001 1.279999 0.960063
v 0.920001 1.279999 1.200001
v 1.000000 1.240000 -0.920028
v 0.720000 1.279999 1.200001
v 1.080000 1.280000 1.200000
v 0.840000 1.240000 -1.200062
v 0.920001 1.240000 -0.920028
v 1.240000 1.280000 1.200000
v 1.240000 1.240000 0.919805
v 1.160000 1.240000 0.919806
v 1.080000 1.240000 0.919806
v 1.000000 1.240000 0.919806
v 0.920001 1.240000 0.919806
v 0.840001 1.240000 0.919807
v 0.760000 1.240000 0.919807
v 0.760000 1.240000 -1.200062
v 1.160000 1.240000 -0.840166
v 1.080000 1.240000 -0.840166
v 1.040000 1.240000 -0.840166
v 1.240000 1.240000 -1.200063
v 0.840001 1.240000 -0.920027
v 1.200000 1.280000 -1.160042
v 0.760000 1.240000 -0.920027
v 1.160000 1.240000 -1.200063
v 1.080000 1.240000 -1.200063
v 0.679896 1.239999 -1.200062
v 0.679896 1.239999 -0.920027
v 1.000000 1.240000 -1.200063
v 1.240000 1.240000 -0.920028
v 0.920001 1.279999 0.960063
v 1.040000 1.280000 -0.920028
v 0.920001 1.280000 -0.920028
v 0.760000 1.279999 -1.160042
v 0.760000 1.279999 -0.920027
v 0.880000 1.279999 -1.160042
v 1.040000 1.280000 -1.160042
v 1.240000 1.280000 -1.160042
v 0.720000 1.279999 -0.920027
v 1.240000 1.280000 -0.920028
v 1.080000 1.280000 -1.160042
v 0.920000 1.280000 -1.160042
v 0.880001 1.279999 -0.920027
v 1.200000 1.280000 -0.920028
v 1.200000 1.280000 1.200000
v 1.040000 1.280000 1.200000
v 0.880001 1.279999 1.200001
v 0.760000 1.279999 0.960064
v -1.280000 1.280000 -1.280000
v -1.280000 1.240000 -1.240084
v -1.280000 1.240000 -1.240084
v -1.280000 1.250000 1.260000
v -1.280000 1.250000 1.260000
v -1.280000 1.280000 1.280087
v -1.280000 1.240000 1.239913
v -1.280000 1.240000 1.239913
v -1.280000 1.240000 -1.120023
v -1.280000 1.240000 -1.120023
v -1.280000 1.200000 -1.120023
v -1.280000 1.200000 -1.120023
v -1.280000 1.240000 1.039850
v -1.280000 1.240000 1.039850
v -1.280000 1.220000 1.039850
v -1.280000 1.220000 1.039850
v 0.699948 1.239999 0.919807
v -1.280000 1.200000 0.999865
v -1.280000 1.200000 0.999865
v 0.720000 1.279999 0.840002
v 0.720000 1.279999 0.840002
v 0.699948 1.239999 0.879918
v 0.720000 1.239999 0.879918
v 1.280000 1.240000 -1.240084
v 1.280000 1.240000 -1.240084
v 1.280000 1.280000 -1.280000
v 1.280000 1.250000 -0.820080
v 1.280000 1.250000 -0.820080
v 1.280000 1.240000 -0.840167
v 1.280000 1.240000 -0.840167
v 1.280000 1.280000 0.840000
v 1.280000 1.280000 0.840000
v 1.280000 1.250000 1.260000
v 1.280000 1.250000 1.260000
v 1.280000 1.240000 1.239913
v 1.280000 1.240000 1.239913
v 1.280000 1.280000 1.280087
v 1.280000 1.240000 0.879916
v 1.280000 1.240000 0.879916
v 1.280000 1.280000 -0.799993
v 1.280000 1.280000 -0.799993
v 0.760000 1.239999 1.200001
v 0.760000 1.239999 1.200001
v 0.760000 1.279999 0.960064
v 0.760000 1.279999 0.960064
v 0.720000 1.279999 0.960064
v 0.720000 1.279999 0.960064
v 0.679896 1.239999 -1.240082
v 0.060303 1.239999 1.039851
v 0.060303 1.239999 1.039851
v 0.060303 1.240000 -1.201323
v 0.060303 1.240000 -1.201323
v 0.060303 1.240000 -1.120022
v 0.060303 1.240000 -1.120022
v 0.060303 1.240000 0.840001
v 0.060303 1.240000 0.840001
v 0.060303 1.239999 0.999866
v -0.020998 1.200000 -1.120022
v -0.020998 1.200000 -1.120022
v -0.020998 1.200000 -1.120022
v -0.020998 1.200000 -1.120022
v -0.020998 1.200000 -1.120022
v -0.020998 1.200000 -1.120022
v 1.000000 1.240000 0.919806
v 1.000000 1.240000 0.919806
v 1.040000 1.280000 0.960063
v 1.040000 1.280000 0.960063
v 0.760000 1.240000 0.919807
v 0.760000 1.240000 0.919807
v 0.760000 1.279999 1.200001
v 0.760000 1.279999 1.200001
v -0.020998 1.219999 1.039851
v -0.020998 1.219999 1.039851
v 0.679896 1.239999 1.239915
v 0.699948 1.239999 -1.240082
v 0.679896 1.239999 0.919807
v 0.679896 1.239999 0.919807
v 0.679896 1.239999 0.879918
v 0.679896 1.239999 0.879918
v 0.679896 1.239999 1.200001
v 0.679896 1.239999 1.200001
v 0.679896 1.239999 -0.840165
v 0.679896 1.239999 -0.840165
v 0.840001 1.240000 0.919807
v 0.840001 1.240000 0.919807
v 0.880001 1.279999 0.960063
v 0.880001 1.279999 0.960063
v 0.699948 1.249999 -0.820066
v 0.699948 1.249999 -0.820066
v 0.699948 1.249999 -0.820066
v 0.299997 1.159999 0.740092
v 0.299997 1.159999 0.740092
v 0.720000 1.279999 -0.799991
v 0.720000 1.279999 -0.799991
v 0.699948 1.249999 0.860004
v 0.699948 1.249999 0.860004
v 0.699948 1.249999 0.860004
v 0.440000 1.240000 -1.000019
v 0.440000 1.240000 -1.000019
v 0.440000 1.239999 -0.419966
v 0.440000 1.239999 -0.419966
v 0.440000 1.240000 0.840001
v 0.440000 1.240000 0.840001
v 0.060303 1.240000 -0.419966
v 0.060303 1.240000 -0.419966
v 0.060303 1.239999 0.260058
v 0.060303 1.239999 0.260058
v 0.440000 1.239999 0.260058
v 0.440000 1.239999 0.260058
v 0.299997 1.159999 0.380078
v 0.299997 1.159999 0.380078
v 0.060303 1.240000 -1.000019
v 0.060303 1.240000 -1.000019
v 1.280000 1.240000 -0.880033
v -0.577490 1.200000 0.819353
v -0.020998 1.200000 0.819353
v -0.020998 1.200000 0.819353
v 0.679896 1.239999 -1.200062
v 0.679896 1.239999 -1.200062
v -0.577490 1.200000 0.299742
v -0.020998 1.200000 0.299742
v -0.020998 1.200000 0.299742
v 0.060303 1.239999 0.960063
v -0.020998 1.199999 0.999866
v -0.020998 1.199999 0.999866
v -0.020998 1.240000 -1.120022
v -0.020998 1.240000 -1.120022
v -0.020998 1.240000 -1.120022
v -0.020998 1.160000 0.740092
v -0.580055 1.200000 -0.960027
v -0.020998 1.200000 -0.960027
v -0.020998 1.200000 -0.960027
v -0.577490 1.200000 -0.440072
v -0.020998 1.200000 -0.440072
v -0.020998 1.200000 -0.440072
v -0.020998 1.240000 -1.201323
v -0.020998 1.240000 -1.201323
v -0.020998 1.160000 0.380078
v 0.299997 1.159999 -0.520243
v 0.299997 1.159999 -0.520243
v -0.020998 1.160000 -0.520243
v 0.299997 1.159999 -0.880032
v 0.299997 1.159999 -0.880032
v -0.020998 1.160000 -0.880032
v -0.800319 1.200000 -0.660064
v -0.800319 1.200000 -0.779877
v -0.740210 1.200000 -0.580307
v -0.740210 1.200000 -0.840166
v -0.679681 1.200001 -0.899157
v -0.740210 1.160000 0.527732
v -0.740210 1.160000 0.527732
v -0.696709 1.159999 0.484747
v -0.740210 1.200000 0.440141
v -0.779321 1.200002 0.497508
v -0.779321 1.200002 0.497508
v -0.577490 1.160000 0.740092
v -0.577490 1.160000 0.380077
v -0.740210 1.160000 0.596239
v -0.740210 1.160000 0.596239
v -0.779321 1.200001 0.619074
v -0.779321 1.200001 0.619074
v -0.740210 1.200000 0.680028
v -0.680147 1.200000 0.758092
v -0.696709 1.159999 0.639230
v -0.642307 1.160000 0.688253
v -0.642306 1.160000 0.432359
v -0.680147 1.200000 -0.520243
v -0.680147 1.200000 0.362077
v -0.740210 1.160000 -0.702343
v -0.696709 1.160000 -0.640938
v -0.740210 1.160000 -0.744470
v -0.696709 1.160000 -0.799993
v -0.642306 1.160000 -0.840166
v -0.642306 1.160000 -0.584941
v -0.577490 1.160000 -0.520243
v -0.580055 1.160000 -0.880032
v -1.160389 1.200000 0.160427
v -1.160389 1.200000 0.160427
v -1.160389 1.200000 -0.240606
v -1.160389 1.200000 -0.240606
v -1.119854 1.220000 0.119892
v -1.119854 1.220000 0.119892
v -1.119854 1.220000 -0.200072
v -1.119854 1.220000 -0.200072
v -0.180031 1.220000 -0.200072
v -0.180031 1.220000 -0.200072
v -0.180031 1.220000 0.119892
v -0.180031 1.220000 0.119892
v -0.140273 1.200000 0.160427
v -0.140273 1.200000 0.160427
v -0.140273 1.200000 -0.240606
v -0.140273 1.200000 -0.240606
v 0.699948 1.239999 -1.200062
v 0.760000 1.279999 -1.160042
v 0.760000 1.279999 -1.160042
v 1.240000 1.240000 1.200000
v 1.240000 1.240000 1.200000
v 1.160000 1.240000 1.200000
v 1.160000 1.240000 1.200000
v 0.760000 1.279999 -0.920027
v 0.760000 1.279999 -0.920027
v 0.720000 1.279999 -0.920027
v 0.720000 1.279999 -0.920027
v 1.080000 1.240000 1.200000
v 1.080000 1.240000 1.200000
v 1.000000 1.240000 1.200000
v 1.000000 1.240000 1.200000
v 0.920001 1.240000 1.200001
v 0.920001 1.240000 1.200001
v 0.840001 1.240000 1.200001
v 0.840001 1.240000 1.200001
v 1.160000 1.240000 -0.920028
v 1.160000 1.240000 -0.920028
v 1.080000 1.240000 -0.920028
v 1.080000 1.240000 -0.920028
v 0.840000 1.240000 -1.200062
v 0.840000 1.240000 -1.200062
v 1.000000 1.240000 -0.920028
v 1.000000 1.240000 -0.920028
v 0.920000 1.240000 -1.240083
v 0.880000 1.239999 -1.240083
v 0.920001 1.240000 -0.920028
v 0.920001 1.240000 -0.920028
v 1.080000 1.240000 0.879916
v 0.920001 1.240000 0.879917
v 0.880001 1.239999 0.879917
v 0.760000 1.240000 -1.200062
v 0.760000 1.240000 -1.200062
v 1.240000 1.240000 0.919805
v 1.240000 1.240000 0.919805
v 1.160000 1.240000 0.919806
v 1.160000 1.240000 0.919806
v 1.080000 1.240000 0.919806
v 1.080000 1.240000 0.919806
v 0.920001 1.240000 0.919806
v 0.920001 1.240000 0.919806
v 0.880001 1.239999 0.919806
v 0.880001 1.279999 -0.920027
v 0.880001 1.279999 -0.920027
v 0.840001 1.240000 -0.920027
v 0.840001 1.240000 -0.920027
v 0.880000 1.239999 -1.200062
v 0.760000 1.240000 -0.920027
v 0.760000 1.240000 -0.920027
v 1.240000 1.280000 1.200000
v 1.240000 1.280000 1.200000
v 0.920000 1.240000 -1.200062
v 0.920000 1.240000 -1.200062
v 1.000000 1.240000 -1.200063
v 1.000000 1.240000 -1.200063
v 1.080000 1.240000 -1.200063
v 1.080000 1.240000 -1.200063
v 0.720000 1.279999 -1.160042
v 0.720000 1.279999 -1.160042
v 0.720000 1.279999 1.200001
v 0.720000 1.279999 1.200001
v 0.679896 1.239999 -0.920027
v 0.679896 1.239999 -0.920027
v 0.920001 1.280000 -0.920028
v 0.920001 1.280000 -0.920028
v 1.160000 1.240000 -1.200063
v 1.160000 1.240000 -1.200063
v 1.240000 1.240000 -1.200063
v 1.240000 1.240000 -1.200063
v 0.920001 1.279999 1.200001
v 0.920001 1.279999 1.200001
v 0.720000 1.239999 -0.920027
v 1.080000 1.280000 -0.920028
v 1.080000 1.280000 -0.920028
v 1.240000 1.280000 -0.920028
v 1.240000 1.280000 -0.920028
v 1.040000 1.280000 -0.920028
v 1.040000 1.280000 -0.920028
v 1.240000 1.280000 0.960062
v 1.240000 1.280000 0.960062
v 1.080000 1.280000 0.960062
v 1.080000 1.280000 0.960062
v 0.920001 1.279999 0.960063
v 0.920001 1.279999 0.960063
v 1.200000 1.280000 -1.160042
v 1.200000 1.280000 -1.160042
v 1.040000 1.240000 -0.920028
v 1.200000 1.280000 0.960062
v 1.200000 1.280000 0.960062
v 1.200000 1.240000 -0.920028
v 1.240000 1.280000 -1.160042
v 1.240000 1.280000 -1.160042
v 1.240000 1.240000 -0.920028
v 1.240000 1.240000 -0.920028
v 0.880001 1.279999 1.200001
v 0.880001 1.279999 1.200001
v 1.040000 1.280000 1.200000
v 1.040000 1.280000 1.200000
v 1.040000 1.280000 -1.160042
v 1.040000 1.280000 -1.160042
v 1.080000 1.280000 1.200000
v 1.080000 1.280000 1.200000
v 1.080000 1.280000 -1.160042
v 1.080000 1.280000 -1.160042
v 0.920000 1.280000 -1.160042
v 0.920000 1.280000 -1.160042
v 1.200000 1.280000 -0.920028
v 1.200000 1.280000 -0.920028
v 1.200000 1.280000 1.200000
v 1.200000 1.280000 1.200000
v 0.880000 1.279999 -1.160042
v 0.880000 1.279999 -1.160042
v 0.699948 1.259999 -0.920027
vt 0.367247 0.815622
vt 0.320804 0.820487
vt 0.348083 0.789834
vt 0.768508 0.879693
vt 0.778327 0.889549
vt 0.768508 0.948294
vt 1.000000 0.171804
vt 1.000000 0.179650
vt 0.773417 0.179656
vt 1.000000 0.843688
vt 1.000000 0.968716
vt 0.984375 0.859269
vt 0.491798 0.789071
vt 0.617186 0.789071
vt 0.523556 0.828097
vt 0.880287 0.091903
vt 0.880287 0.081642
vt 0.859375 0.140609
vt 0.843750 0.140609
vt 0.843750 0.046857
vt 0.792026 0.864926
vt 0.792026 0.869495
vt 0.787486 0.869495
vt 0.217651 0.203934
vt 0.217651 0.218374
vt 0.197046 0.191797
vt 0.765584 0.843689
vt 0.773417 0.843689
vt 0.765584 0.859270
vt 0.491798 0.156232
vt 0.491798 0.124985
vt 0.523556 0.109364
vt 0.859375 0.859269
vt 0.890625 0.859269
vt 0.890625 0.968717
vt 0.000000 0.984307
vt 1.000000 0.984307
vt 0.000000 0.992153
vt 0.491798 0.062489
vt 1.000000 0.999999
vt 1.000000 0.828096
vt 0.921875 0.031224
vt 0.890625 0.031225
vt 0.859375 0.015592
vt 0.953125 0.859269
vt 0.921875 0.843688
vt 0.781250 0.828097
vt 0.781250 0.187497
vt 0.000000 0.906160
vt 0.000000 0.999999
vt 0.859375 0.843688
vt 0.984375 0.140609
vt 0.968750 0.140609
vt 0.968750 0.046857
vt 0.193103 0.641414
vt 0.169640 0.671907
vt 0.046723 0.562647
vt 1.000000 0.187496
vt 0.491798 0.890542
vt 0.491798 0.820031
vt 0.491798 0.906160
vt 0.523556 0.890542
vt 0.796875 0.031225
vt 0.773417 0.031225
vt 0.773417 0.015592
vt 0.316260 0.125656
vt 0.310618 0.152674
vt 0.283245 0.125637
vt 0.273416 0.124985
vt 0.970753 0.036165
vt 0.978674 0.036165
vt 0.974713 0.040127
vt 0.617186 0.296770
vt 0.617186 0.156232
vt 0.671875 0.335939
vt 0.671875 0.828097
vt 0.274418 0.296770
vt 0.233203 0.328085
vt 0.000000 0.328085
vt 0.193103 0.296770
vt 0.429675 0.421832
vt 0.445206 0.405999
vt 0.429675 0.546814
vt 0.866606 0.091903
vt 0.866606 0.081642
vt 0.796875 0.140609
vt 0.828125 0.140609
vt 0.046723 0.405999
vt 0.062557 0.421832
vt 0.227848 0.249625
vt 0.210855 0.225639
vt 0.227848 0.187496
vt 0.274418 0.820031
vt 0.000000 0.890541
vt 0.765584 0.015592
vt 1.000000 0.015592
vt 0.000000 0.015592
vt 0.000000 0.000000
vt 0.210855 0.209184
vt 0.209569 0.267797
vt 0.205953 0.268766
vt 0.208616 0.258210
vt 0.778327 0.948294
vt 0.249099 0.271498
vt 0.274418 0.156232
vt 0.000000 0.124985
vt 0.146160 0.195354
vt 0.146160 0.242154
vt 1.000000 0.992153
vt 0.523556 0.906161
vt 0.968494 0.864004
vt 0.982895 0.864004
vt 0.975695 0.871251
vt 0.782933 0.864926
vt 0.169640 0.273308
vt 0.921875 0.859269
vt 0.796875 0.859270
vt 0.773417 0.859270
vt 0.887127 0.091903
vt 0.885417 0.091903
vt 0.968750 0.968716
vt 0.968750 0.874994
vt 0.984375 0.968716
vt 0.734594 0.912344
vt 0.734594 0.936477
vt 0.734594 0.915811
vt 0.274418 0.789071
vt 0.249099 0.668867
vt 0.274418 0.648445
vt 0.748375 0.912344
vt 0.748375 0.936477
vt 0.748375 0.915811
vt 0.894009 0.054916
vt 0.902866 0.063777
vt 0.894009 0.116917
vt 0.617186 0.648445
vt 0.859375 0.031225
vt 0.523556 0.601564
vt 0.671875 0.601564
vt 0.062557 0.546814
vt 0.921875 0.171804
vt 0.906250 0.171804
vt 0.906250 0.140609
vt 0.984375 0.031224
vt 0.953125 0.031224
vt 0.491798 0.030732
vt 0.291809 0.152973
vt 0.291306 0.125700
vt 0.324416 0.154575
vt 0.000000 0.062489
vt 0.773417 0.835910
vt 0.765584 0.171805
vt 0.859375 0.046857
vt 0.523556 0.335939
vt 0.491798 0.296770
vt 0.154363 0.694315
vt 0.000000 0.820031
vt 1.000000 0.156232
vt 0.831213 0.880898
vt 0.840662 0.890408
vt 0.831213 0.947088
vt 0.671875 0.109364
vt 0.523556 0.030732
vt 0.523556 0.062489
vt 0.514534 0.036849
vt 0.509326 0.042057
vt 0.509326 0.036849
vt 0.487441 0.054873
vt 0.487441 0.049344
vt 0.274418 0.328085
vt 0.210855 0.732880
vt 0.210855 0.706121
vt 0.227848 0.689330
vt 0.741484 0.936477
vt 0.744929 0.936477
vt 0.765584 0.984308
vt 0.773417 0.968717
vt 0.796875 0.968717
vt 0.765585 0.031225
vt 0.491798 0.328085
vt 0.274418 0.617065
vt 0.491798 0.617065
vt 0.276839 0.125590
vt 0.310094 0.125654
vt 0.283572 0.151996
vt 0.491798 0.648445
vt 0.781250 0.843689
vt 0.249099 0.171804
vt 1.000000 0.000000
vt 0.828125 0.968717
vt 0.284449 0.149065
vt 0.953125 0.968717
vt 0.921875 0.968717
vt 0.349493 0.790229
vt 0.354252 0.819917
vt 0.318473 0.810556
vt 0.304732 0.648138
vt 0.281279 0.643598
vt 0.282394 0.617788
vt 0.196966 0.231329
vt 0.196966 0.192002
vt 0.217248 0.201780
vt 0.315719 0.789167
vt 0.449582 0.647898
vt 0.439944 0.652321
vt 0.440396 0.617884
vt 0.347390 0.811236
vt 0.322500 0.809202
vt 0.324745 0.790569
vt 0.419420 0.617585
vt 0.457894 0.617727
vt 0.445053 0.652558
vt 0.336911 0.125602
vt 0.310935 0.148768
vt 0.197046 0.232867
vt 0.290688 0.326945
vt 0.286671 0.297945
vt 0.324000 0.300721
vt 0.205888 0.258563
vt 0.302699 0.326956
vt 0.297820 0.298218
vt 0.328315 0.298501
vt 0.843750 0.015592
vt 0.843750 0.031225
vt 0.828125 0.031225
vt 0.765584 0.968717
vt 0.372252 0.571426
vt 0.387698 0.589467
vt 0.301968 0.589467
vt 0.445206 0.562647
vt 0.887127 0.081642
vt 0.887127 0.079931
vt 0.873447 0.079931
vt 0.873447 0.091903
vt 0.873447 0.081642
vt 0.796875 0.874995
vt 0.781250 0.874995
vt 0.864896 0.091903
vt 0.227848 0.749673
vt 0.720812 0.936477
vt 0.720812 0.915811
vt 0.953125 0.140609
vt 0.921875 0.140609
vt 0.984375 0.874994
vt 0.906250 0.046857
vt 0.335879 0.326784
vt 0.783480 0.037053
vt 0.791287 0.037053
vt 0.787389 0.040953
vt 0.906250 0.874994
vt 0.921875 0.874994
vt 0.843750 0.874994
vt 0.859375 0.874994
vt 0.859375 0.968717
vt 0.840304 0.116484
vt 0.831571 0.116484
vt 0.840304 0.064087
vt 0.322072 0.788187
vt 0.880287 0.079931
vt 0.415892 0.648087
vt 0.169640 0.765609
vt 0.193103 0.796102
vt 0.890625 0.140609
vt 0.920402 0.034348
vt 0.920402 0.041944
vt 0.912810 0.041944
vt 0.840662 0.947088
vt 0.866606 0.079931
vt 0.864039 0.091903
vt 0.233203 0.820031
vt 0.720812 0.912344
vt 0.871737 0.091903
vt 0.843750 0.843688
vt 0.249099 0.768822
vt 0.765584 0.140610
vt 0.842068 0.035664
vt 0.855570 0.035664
vt 0.848819 0.042418
vt 0.953125 0.171804
vt 0.154363 0.741800
vt 0.240145 0.571426
vt 0.902866 0.116917
vt 0.341567 0.326747
vt 0.905217 0.034348
vt 0.193285 0.148762
vt 0.169640 0.171804
vt 0.958191 0.066689
vt 0.963684 0.072185
vt 0.958191 0.105144
vt 0.731148 0.936477
vt 0.843750 0.968717
vt 0.233203 0.617065
vt 0.781250 0.968717
vt 0.727703 0.936477
vt 0.956544 0.883220
vt 0.965331 0.892063
vt 0.956544 0.944765
vt 0.771451 0.096707
vt 0.771451 0.069672
vt 0.775323 0.073536
vt 0.902666 0.892883
vt 0.902667 0.943615
vt 0.894209 0.943615
vt 0.841268 0.863140
vt 0.855162 0.863140
vt 0.848215 0.870132
vt 0.965331 0.944765
vt 0.878577 0.091903
vt 0.454426 0.617727
vt 0.345630 0.787641
vt 0.828125 0.859270
vt 0.963684 0.105144
vt 0.232201 0.124985
vt 0.906250 0.968717
vt 0.781250 0.140610
vt 0.781250 0.046857
vt 0.309514 0.617740
vt 0.217248 0.223942
vt 0.984375 0.046857
vt 0.707031 0.936477
vt 0.707031 0.915811
vt 0.921875 0.046857
vt 0.703586 0.936477
vt 0.903934 0.863470
vt 0.918487 0.863470
vt 0.911211 0.870793
vt 0.855162 0.870131
vt 0.843750 0.859270
vt 0.705962 0.913591
vt 0.918487 0.870793
vt 0.775323 0.096707
vt 0.894209 0.884371
vt 0.876867 0.091903
vt 0.870027 0.091903
vt 0.978674 0.040127
vt 0.701859 0.936477
vt 0.759001 0.115446
vt 0.756825 0.115446
vt 0.757909 0.109348
vt 0.796875 0.046857
vt 0.713922 0.936477
vt 0.717367 0.936477
vt 0.883707 0.091903
vt 0.791287 0.040953
vt 0.831571 0.055350
vt 0.855570 0.042418
vt 0.982895 0.871251
vn -0.107600 -0.887600 0.447900
vn -0.320400 -0.879100 0.352900
vn -0.158100 -0.890500 0.426500
vn 0.706200 -0.708000 0.000000
vn 0.000000 -0.895200 0.445600
vn 0.000000 -0.895300 0.445400
vn 0.000000 -1.000000 0.000000
vn 0.059000 -0.859400 0.507800
vn 0.000000 -0.780600 0.625000
vn 0.065700 -0.804300 0.590600
vn -1.000000 0.000000 0.000000
vn 0.000000 -0.709300 0.704800
vn -0.492100 -0.854900 -0.163800
vn -0.490200 -0.863300 0.119900
vn -0.457600 -0.866000 -0.201400
vn 0.036000 -0.874400 -0.483900
vn 0.124700 -0.887400 -0.443700
vn 0.039800 -0.843600 -0.535500
vn 0.000000 -0.895200 0.445700
vn 0.441500 -0.897300 0.000000
vn 1.000000 0.000000 0.000000
vn 0.433000 -0.880000 0.195200
vn 0.368100 -0.876500 0.310100
vn 0.370200 -0.926700 0.064200
vn -0.307100 -0.865400 -0.395900
vn -0.308000 -0.857700 -0.411600
vn -0.373200 -0.846900 -0.378600
vn 0.000000 -0.707300 0.706900
vn 0.496100 -0.868200 0.000000
vn -0.449400 -0.893300 0.000000
vn 0.000000 -0.894300 0.447300
vn 0.000000 -0.896800 0.442500
vn 0.000000 -0.706400 -0.707800
vn -0.363500 -0.875100 0.319200
vn -0.462600 -0.869500 0.173000
vn -0.370300 -0.876800 0.306800
vn 0.000000 -0.556400 0.830900
vn 0.000000 -0.556100 0.831100
vn 0.238900 -0.971000 0.000000
vn 0.000000 0.000000 -1.000000
vn 0.707100 -0.707100 0.000000
vn 0.174100 -0.879100 0.443600
vn 0.040500 -0.843800 -0.535000
vn 0.000000 -0.832100 -0.554600
vn -0.152300 -0.885400 -0.439200
vn 0.831400 -0.555700 0.000000
vn 0.067300 -0.805800 0.588300
vn 0.059800 -0.861200 0.504600
vn 0.000000 -0.781700 0.623600
vn 0.000000 -0.832000 -0.554700
vn 0.000000 -0.897300 -0.441500
vn 0.000000 0.000000 1.000000
vn -0.108600 -0.889100 -0.444600
vn -0.158900 -0.892400 -0.422200
vn -0.107800 -0.890000 -0.443100
vn 0.126200 -0.888000 -0.442100
vn -0.128800 -0.887300 0.442700
vn -0.199700 -0.885200 0.420200
vn 0.036500 -0.874900 -0.482900
vn 0.085700 -0.703800 -0.705200
vn 0.111900 -0.701900 -0.703400
vn 0.330900 -0.666600 -0.668000
vn -0.388800 -0.828200 -0.403500
vn -0.338000 -0.873500 0.350200
vn -0.424800 -0.828800 0.364100
vn -0.412800 -0.826200 -0.383300
vn -0.444600 -0.774600 -0.449900
vn -0.450500 -0.811600 -0.372000
vn -0.715000 -0.699100 0.000000
vn -0.338500 -0.876100 -0.343300
vn -0.320300 -0.880000 -0.350700
vn -0.557400 -0.749200 0.357600
vn -0.477200 -0.793100 0.378600
vn -0.412700 -0.850800 -0.325300
vn -0.338600 -0.868600 0.361600
vn -0.341800 -0.876400 0.339300
vn 0.176400 -0.880800 0.439400
vn 0.000000 -0.896800 -0.442500
vn 0.442500 -0.896800 0.000000
vn -0.382500 -0.830000 0.405900
vn 0.446300 -0.894900 0.000000
vn 0.000000 1.000000 0.000000
vn 0.000000 -0.893600 -0.448700
s 1
f 75/1/1 77/2/2 74/3/3
f 36/4/4 212/5/4 246/6/4
f 194/7/5 192/8/5 254/9/6
f 23/10/7 24/11/7 394/12/7
f 294/13/8 256/14/9 221/15/10
f 114/16/11 158/17/11 115/16/11
f 424/18/7 403/19/7 472/20/7
f 233/21/12 209/22/12 211/23/12
f 90/24/13 334/25/14 63/26/15
f 243/27/7 187/28/7 241/29/7
f 309/30/16 296/31/17 277/32/18
f 400/33/7 230/34/7 372/35/7
f 173/36/19 21/37/19 170/38/19
f 278/32/20 297/31/20 224/39/20
f 200/37/11 202/40/11 196/41/11
f 416/42/7 414/43/7 385/44/7
f 23/10/7 396/45/7 389/46/7
f 13/47/7 12/48/7 197/41/7
f 178/49/11 172/36/11 171/50/11
f 390/51/7 389/46/7 230/34/7
f 435/52/7 468/53/7 445/54/7
f 333/55/7 318/56/7 342/57/7
f 25/58/21 17/8/21 16/7/21
f 289/59/22 33/60/20 220/15/20
f 238/61/23 289/59/22 222/62/24
f 392/63/7 358/64/7 240/65/7
f 69/66/25 86/67/26 62/68/27
f 55/39/7 58/31/7 68/69/7
f 142/70/28 429/71/28 140/72/28
f 305/73/29 308/74/29 44/75/29
f 256/14/9 268/76/9 221/15/10
f 49/74/7 50/73/7 340/77/7
f 64/78/7 53/79/7 332/80/7
f 351/81/30 357/82/30 98/83/30
f 409/84/11 366/84/11 359/85/11
f 290/59/31 54/61/31 10/49/31
f 265/75/7 408/86/7 405/87/7
f 96/88/32 101/82/32 97/89/32
f 335/90/7 89/91/7 337/92/7
f 280/93/7 56/59/7 8/94/7
f 213/95/7 240/65/7 358/64/7
f 189/96/33 168/97/33 1/98/33
f 336/99/7 337/92/7 89/91/7
f 67/100/34 66/101/35 87/102/36
f 212/5/4 421/103/4 246/6/4
f 340/77/7 339/104/7 341/105/7
f 52/106/7 311/107/7 310/108/7
f 21/37/19 199/109/19 170/38/19
f 193/8/37 205/58/37 258/48/38
f 31/110/39 238/61/23 222/62/24
f 128/111/12 127/112/12 116/113/12
f 242/114/12 233/21/12 211/23/12
f 332/80/7 53/79/7 312/115/7
f 312/115/7 53/79/7 310/108/7
f 389/46/7 398/116/7 230/34/7
f 234/117/7 182/118/7 187/28/7
f 157/119/40 147/119/40 161/120/40
f 470/121/7 449/122/7 411/123/7
f 399/124/11 106/125/11 441/126/11
f 321/127/7 331/128/7 76/129/7
f 395/130/11 104/131/11 439/132/11
f 146/133/41 154/134/41 384/135/41
f 41/76/29 257/14/29 275/136/29
f 390/51/7 230/34/7 400/33/7
f 22/109/37 20/40/37 5/38/37
f 282/60/42 294/13/8 221/15/10
f 23/10/7 394/12/7 396/45/7
f 414/43/7 412/137/7 385/44/7
f 272/138/43 46/139/44 48/136/44
f 352/83/7 347/140/7 348/89/7
f 136/141/7 137/142/7 447/143/7
f 18/96/7 428/144/7 426/145/7
f 301/146/7 2/97/7 213/95/7
f 86/147/26 69/148/25 93/149/45
f 184/94/31 290/59/31 10/49/31
f 68/69/7 9/150/7 55/39/7
f 178/49/11 166/98/11 174/150/11
f 261/151/46 255/9/46 259/48/46
f 398/116/7 389/46/7 396/45/7
f 35/152/6 194/7/5 254/9/6
f 466/153/7 424/18/7 472/20/7
f 270/154/47 306/155/48 304/73/49
f 342/57/7 319/156/7 34/157/7
f 292/39/40 223/39/40 177/150/40
f 18/96/7 279/158/7 428/144/7
f 249/159/41 251/160/41 376/161/41
f 264/162/50 307/74/50 277/32/18
f 226/39/20 217/163/20 32/164/20
f 60/165/51 227/166/51 302/167/51
f 293/168/11 61/169/11 225/168/11
f 218/164/52 291/39/52 228/39/52
f 64/170/7 356/82/7 344/88/7
f 324/171/7 82/172/7 80/173/7
f 362/131/40 363/174/40 469/175/40
f 239/176/7 245/177/7 207/178/7
f 237/61/52 214/110/52 7/49/52
f 283/179/7 213/95/7 358/64/7
f 59/180/20 43/154/20 45/138/20
f 93/105/45 295/69/53 296/31/17
f 322/129/54 285/181/55 286/182/56
f 298/170/57 92/77/58 306/155/48
f 271/138/7 269/154/7 265/75/7
f 63/183/15 62/184/27 90/185/13
f 196/41/11 203/10/11 200/37/11
f 303/186/59 286/182/56 272/138/43
f 186/47/60 188/187/61 40/151/62
f 187/28/7 182/118/7 241/29/7
f 339/104/7 335/90/7 338/188/7
f 15/189/21 25/58/21 16/7/21
f 207/178/7 375/190/7 239/176/7
f 86/67/26 88/191/63 62/68/27
f 341/105/7 49/74/7 340/77/7
f 308/74/29 42/162/29 44/75/29
f 396/45/7 364/192/7 398/116/7
f 364/192/7 369/193/7 398/116/7
f 74/127/3 294/13/8 282/60/42
f 330/194/64 77/195/2 78/196/65
f 317/197/66 315/198/67 320/199/68
f 326/200/69 73/201/69 316/202/69
f 24/11/7 361/123/7 394/12/7
f 77/2/2 330/203/64 74/3/3
f 322/204/54 84/205/70 71/206/71
f 78/207/65 79/208/72 83/209/73
f 12/48/7 206/58/7 197/41/7
f 72/210/74 71/211/71 84/212/70
f 69/148/25 295/213/53 93/149/45
f 222/62/24 289/59/22 220/15/20
f 62/184/27 88/214/63 90/185/13
f 334/25/14 66/215/35 63/26/15
f 65/216/75 91/217/76 92/218/58
f 66/101/35 334/219/14 87/102/36
f 67/220/34 87/221/36 91/222/76
f 270/154/47 299/180/77 306/155/48
f 386/223/7 407/224/7 381/225/7
f 267/76/7 245/226/7 215/110/7
f 354/227/7 51/228/7 70/229/7
f 346/140/78 353/83/78 355/230/78
f 349/89/79 94/140/79 95/57/79
f 357/82/30 100/230/30 98/83/30
f 101/82/32 99/81/32 97/89/32
f 451/231/11 138/232/11 454/119/11
f 413/233/11 125/234/11 465/235/11
f 165/236/7 236/178/7 14/237/7
f 174/150/11 176/150/11 183/94/11
f 34/157/7 53/79/7 342/57/7
f 368/238/40 152/84/40 141/84/40
f 329/239/7 324/171/7 80/173/7
f 53/79/7 344/88/7 342/57/7
f 318/56/7 319/156/7 342/57/7
f 453/52/7 279/158/7 195/7/7
f 108/240/11 120/240/11 443/241/11
f 364/192/7 361/123/7 201/37/7
f 426/145/7 377/242/7 379/243/7
f 449/122/7 440/244/7 411/123/7
f 433/243/7 437/143/7 459/245/7
f 392/63/7 386/223/7 381/225/7
f 47/14/7 321/127/7 76/129/7
f 65/246/75 67/220/34 91/222/76
f 144/247/28 134/248/28 113/249/28
f 204/10/33 188/187/61 186/47/60
f 232/250/7 442/251/7 461/193/7
f 119/252/7 148/253/7 430/254/7
f 379/243/7 136/141/7 447/143/7
f 160/255/41 139/256/41 471/257/41
f 287/182/20 59/180/20 45/138/20
f 85/258/80 330/194/64 78/196/65
f 310/108/7 53/79/7 52/106/7
f 16/7/21 190/96/21 15/189/21
f 158/17/11 143/259/11 115/16/11
f 317/260/66 72/210/74 84/212/70
f 76/129/7 276/136/7 47/14/7
f 263/162/7 216/163/7 213/95/7
f 327/261/7 328/262/7 34/157/7
f 373/254/7 400/33/7 372/35/7
f 436/119/11 451/231/11 454/119/11
f 253/9/81 262/151/81 244/27/81
f 273/139/7 271/138/7 265/75/7
f 279/158/7 453/52/7 428/144/7
f 307/74/50 309/30/16 277/32/18
f 39/9/38 193/8/37 258/48/38
f 265/75/7 405/87/7 387/18/7
f 387/18/7 412/137/7 383/263/7
f 303/186/59 322/129/54 286/182/56
f 417/264/28 463/265/28 460/266/28
f 185/47/46 261/151/46 259/48/46
f 392/63/7 240/65/7 386/223/7
f 169/38/11 171/50/11 172/36/11
f 372/35/7 369/193/7 201/37/7
f 263/162/7 213/95/7 283/179/7
f 166/98/11 167/97/11 174/150/11
f 251/160/41 456/267/41 376/161/41
f 141/84/40 432/238/40 368/238/40
f 393/268/11 409/84/11 359/85/11
f 178/49/11 171/50/11 166/98/11
f 473/269/40 368/238/40 432/238/40
f 266/75/49 270/154/47 304/73/49
f 328/262/7 280/270/7 34/157/7
f 131/271/11 108/240/11 443/241/11
f 274/139/29 41/76/29 275/136/29
f 425/234/40 388/234/40 404/272/40
f 234/117/7 187/28/7 391/273/7
f 106/125/11 123/125/11 441/126/11
f 426/145/7 379/243/7 416/42/7
f 4/36/7 179/49/7 215/110/7
f 81/274/7 329/239/7 80/173/7
f 408/86/7 392/63/7 381/225/7
f 410/131/40 362/131/40 469/175/40
f 200/37/11 198/109/11 202/40/11
f 337/92/7 338/188/7 335/90/7
f 104/131/11 126/131/11 439/132/11
f 300/180/7 51/182/7 356/82/7
f 408/86/7 381/225/7 405/87/7
f 51/182/7 354/230/7 356/82/7
f 265/75/7 263/162/7 422/275/7
f 64/170/7 300/180/7 356/82/7
f 386/223/7 385/44/7 412/137/7
f 124/276/28 103/277/28 153/278/28
f 377/242/7 135/279/7 136/141/7
f 319/156/7 325/280/7 34/157/7
f 273/139/7 265/75/7 387/18/7
f 215/110/7 28/15/7 267/76/7
f 342/281/7 354/227/7 70/229/7
f 154/134/41 438/282/41 384/135/41
f 195/7/7 450/53/7 453/52/7
f 273/139/7 387/18/7 243/27/7
f 369/193/7 364/192/7 201/37/7
f 383/263/7 412/137/7 414/43/7
f 377/242/7 136/141/7 379/243/7
f 299/180/77 298/170/57 306/155/48
f 377/242/7 450/53/7 135/279/7
f 298/283/57 65/216/75 92/218/58
f 174/150/11 183/94/11 178/49/11
f 415/284/28 417/264/28 460/266/28
f 52/106/7 314/285/7 313/286/7
f 309/30/16 93/105/45 296/31/17
f 183/94/11 180/49/11 178/49/11
f 247/152/82 243/27/7 387/18/7
f 427/287/41 446/288/41 378/289/41
f 52/106/7 313/286/7 311/107/7
f 462/125/40 370/125/40 458/290/40
f 331/128/7 321/127/7 81/274/7
f 455/291/7 119/252/7 430/254/7
f 342/57/7 70/292/7 333/55/7
f 236/178/7 122/293/7 14/237/7
f 407/224/7 386/223/7 412/137/7
f 370/125/40 371/294/40 458/290/40
f 263/162/7 26/32/7 216/163/7
f 80/173/7 331/128/7 81/274/7
f 385/44/7 18/96/7 416/42/7
f 397/295/41 448/296/41 105/297/41
f 6/150/40 292/39/40 177/150/40
f 191/189/33 189/96/33 1/98/33
f 248/152/81 253/9/81 244/27/81
f 423/298/4 284/299/4 419/300/4
f 301/146/7 57/39/7 175/150/7
f 231/301/41 457/302/41 107/303/41
f 132/304/12 401/305/12 252/306/12
f 383/263/7 137/142/7 387/18/7
f 448/296/41 162/307/41 105/297/41
f 181/49/52 237/61/52 7/49/52
f 267/76/7 241/29/7 245/226/7
f 391/273/7 390/51/7 400/33/7
f 301/146/7 175/150/7 2/97/7
f 219/164/20 278/32/20 224/39/20
f 434/16/40 380/16/40 149/308/40
f 18/96/7 426/145/7 416/42/7
f 137/142/7 247/152/82 387/18/7
f 280/93/7 281/60/7 56/59/7
f 20/40/37 3/50/37 5/38/37
f 383/263/7 447/143/7 137/142/7
f 285/309/55 322/204/54 71/206/71
f 85/310/80 78/207/65 83/209/73
f 373/254/7 239/176/7 375/190/7
f 68/69/7 52/106/7 9/150/7
f 234/117/7 250/311/7 375/190/7
f 8/94/7 34/157/7 280/93/7
f 446/288/41 467/312/41 378/289/41
f 263/162/7 283/179/7 422/275/7
f 52/106/7 68/313/7 314/285/7
f 163/314/7 232/250/7 461/193/7
f 265/75/7 422/275/7 408/86/7
f 53/79/7 64/170/7 344/88/7
f 365/86/7 367/315/7 418/316/7
f 72/317/74 317/197/66 320/199/68
f 325/280/7 327/261/7 34/157/7
f 323/318/69 326/200/69 316/202/69
f 260/151/83 11/187/83 38/27/83
f 19/41/33 204/10/33 186/47/60
f 452/319/7 435/52/7 445/54/7
f 239/176/7 215/110/7 245/226/7
f 372/35/7 239/176/7 373/254/7
f 201/37/7 239/176/7 372/35/7
f 75/93/1 74/127/3 282/60/42
f 239/176/7 4/36/7 215/110/7
f 208/320/11 235/320/11 210/321/11
f 464/322/7 433/243/7 459/245/7
f 118/320/40 111/320/40 420/323/40
f 207/178/7 234/117/7 375/190/7
f 338/188/7 341/105/7 339/104/7
f 303/186/59 272/138/43 48/136/44
f 130/324/12 129/325/12 117/326/12
f 401/305/12 444/327/12 252/306/12
f 402/328/7 391/273/7 400/33/7
f 234/117/7 391/273/7 250/311/7
f 133/329/11 208/320/11 210/321/11
f 129/325/12 102/330/12 117/326/12
f 156/331/4 423/298/4 419/300/4
f 391/273/7 402/328/7 250/311/7
f 273/139/7 243/27/7 267/76/7
f 229/332/41 231/301/41 107/303/41
f 361/123/7 24/11/7 201/37/7
f 350/81/7 352/83/7 348/89/7
f 380/16/40 121/333/40 149/308/40
f 388/234/40 406/334/40 404/272/40
f 429/71/28 155/335/28 140/72/28
f 243/27/7 241/29/7 267/76/7
f 125/234/11 150/234/11 465/235/11
f 111/320/40 37/336/40 420/323/40
f 432/337/40 145/338/40 473/339/40
f 195/7/7 135/279/7 450/53/7
f 360/340/7 365/86/7 418/316/7
f 345/88/79 349/89/79 95/57/79
f 343/57/78 346/140/78 355/230/78
f 109/341/40 164/342/40 374/240/40
f 216/163/7 301/146/7 213/95/7
f 147/119/40 110/343/40 161/120/40
f 134/248/28 151/344/28 113/249/28
f 139/256/41 382/345/41 471/257/41
f 103/277/28 159/346/28 153/278/28
f 127/112/12 112/347/12 116/113/12
f 164/342/40 431/240/40 374/240/40
