# Blender v2.76 (sub 0) OBJ File: 'sci1_9.blend'
# www.blender.org
v 1.280000 1.280000 -1.280000
v 1.280000 1.240000 -0.840167
v 1.280000 1.250000 -0.820080
v 1.280000 1.240000 -1.240084
v 1.280000 1.280000 0.840000
v 1.280000 1.280000 1.280087
v 1.280000 1.240000 1.239913
v 1.280000 1.250000 1.260000
v 1.280000 1.240000 0.879916
v 1.280000 1.280000 -0.799993
v 0.999981 1.280000 0.959880
v -1.280000 1.280000 -0.799993
v -1.280000 1.240000 0.879916
v -1.280000 1.250000 1.260000
v -1.280000 1.240000 1.239913
v -1.280000 1.280000 1.280087
v -1.280000 1.280000 0.840000
v -1.280000 1.240000 -1.240084
v -1.280000 1.250000 -0.820080
v -1.280000 1.240000 -0.840167
v -1.280000 1.280000 -1.280000
v 0.959978 1.240000 0.919805
v 0.959978 1.240000 1.199999
v 1.199995 1.240000 0.919805
v 1.119989 1.240000 0.919805
v 1.039984 1.240000 0.919805
v 1.199995 1.240000 1.199999
v 1.119989 1.240000 1.199999
v 1.039984 1.240000 1.199999
v 1.159992 1.280000 0.959880
v -0.140100 1.240000 0.919805
v -0.140100 1.240000 1.200000
v 0.099984 1.240000 0.919805
v 0.099984 1.240000 1.199999
v 0.019956 1.240000 0.919805
v -0.060072 1.240000 0.919805
v 0.019956 1.240000 1.199999
v -0.060072 1.240000 1.200000
v -0.940005 1.240000 0.919805
v -0.940005 1.240000 1.200000
v -1.179998 1.240000 0.919805
v -1.179998 1.240000 1.200000
v -1.020003 1.240000 0.919805
v -1.100001 1.240000 0.919805
v -1.020003 1.240000 1.200000
v -1.100001 1.240000 1.200000
v -0.980004 1.240000 1.239913
v -0.980004 1.280000 0.959880
v -1.139999 1.280000 0.959880
v -0.980003 1.240000 -1.240084
v 0.999981 1.280000 -0.884838
v 1.039984 1.280000 -0.884838
v -0.140100 1.240000 -1.240084
v 0.099984 1.280000 -0.884838
v 1.039984 1.280000 1.199999
v 1.199995 1.280000 1.199999
v 1.199995 1.280000 0.959880
v -1.179998 1.240000 -0.884838
v -1.100001 1.240000 -0.884838
v -1.020003 1.240000 -0.884838
v -0.940005 1.240000 -0.884838
v -0.140100 1.240000 -0.884838
v -0.060072 1.240000 -0.884838
v 0.019956 1.240000 -0.884838
v 0.099984 1.240000 -0.884838
v 0.959979 1.240000 -0.884838
v 1.039984 1.240000 -0.884838
v 1.119990 1.240000 -0.884838
v 1.199995 1.240000 -0.884838
v -1.179998 1.240000 -1.195575
v -1.100001 1.240000 -1.195575
v -1.020003 1.240000 -1.195575
v -0.940005 1.240000 -1.195575
v -0.140100 1.240000 -1.195575
v -0.060072 1.240000 -1.195575
v 0.019956 1.240000 -1.195575
v 0.099984 1.240000 -1.195575
v 0.959979 1.240000 -1.195575
v 1.039984 1.240000 -1.195575
v 1.119990 1.240000 -1.195575
v 1.199995 1.240000 -1.195575
v -0.980004 1.280000 -1.150930
v 1.199995 1.280000 -0.884838
v 1.159993 1.280000 -0.884838
v -1.139999 1.280000 -0.884838
v -1.100001 1.280000 -0.884838
v 0.099984 1.280000 0.959880
v 0.099984 1.280000 1.199999
v -0.940005 1.280000 -0.884838
v -0.060072 1.280000 0.959880
v -0.060072 1.280000 1.200000
v 0.059970 1.280000 0.959880
v 0.059970 1.280000 1.199999
v -0.100086 1.280000 0.959880
v -0.060072 1.280000 -0.884838
v -0.940005 1.280000 1.200000
v -1.100001 1.280000 1.200000
v -0.980004 1.280000 1.200000
v -1.139999 1.280000 1.200000
v -1.139999 1.280000 -1.150930
v -0.940005 1.280000 -1.150930
v -0.100086 1.280000 -1.150930
v -0.060072 1.280000 -1.150930
v 0.059970 1.280000 -1.150930
v 0.999981 1.280000 -1.150930
v 1.159993 1.280000 -1.150930
v 1.199995 1.280000 -1.150930
v 1.039984 1.280000 -1.150930
v 0.059970 1.280000 -0.884838
v -0.100086 1.280000 -0.884838
v 0.099984 1.280000 -1.150930
v -1.100001 1.280000 -1.150930
v -0.980003 1.280000 -0.884838
v -0.940005 1.280000 0.959880
v -1.100001 1.280000 0.959880
v -0.100086 1.280000 1.200000
v 0.999981 1.280000 1.199999
v 1.159992 1.280000 1.199999
v 1.039984 1.280000 0.959880
vt 0.953121 0.046962
vt 0.968746 0.046962
vt 0.968746 0.140601
vt 0.070310 0.968713
vt 0.070310 0.859266
vt 0.101559 0.859266
vt 0.476532 0.031251
vt 0.445271 0.015588
vt 0.507793 0.031251
vt 0.890616 0.874920
vt 0.890616 0.968713
vt 0.874989 0.968713
vt 0.914294 0.899674
vt 0.914128 0.883746
vt 0.911475 0.899674
vt 0.914128 0.899674
vt 0.507793 0.859266
vt 0.539054 0.859266
vt 0.523423 0.874920
vt -0.000002 0.156322
vt -0.000002 0.015588
vt 0.039061 0.140601
vt 0.002427 0.843685
vt 0.002427 0.984304
vt 0.002427 0.828093
vt 0.999998 0.828155
vt -0.000002 0.828155
vt -0.000002 0.171837
vt 0.539054 0.968713
vt 0.999998 0.984304
vt 0.919775 0.051721
vt 0.919497 0.048167
vt 0.919775 0.072904
vt 0.523423 0.046962
vt 0.507793 0.140601
vt 0.070310 0.874920
vt 0.054686 0.874920
vt 0.117184 0.140601
vt 0.117184 0.046962
vt 0.132808 0.046962
vt 0.002427 0.999996
vt 0.933637 0.072904
vt 0.930754 0.072729
vt 0.930102 0.072904
vt 0.916614 0.072729
vt 0.915962 0.072904
vt 0.919497 0.072904
vt -0.000002 0.992150
vt 0.117184 0.984304
vt 0.999998 0.992150
vt 0.132808 0.031251
vt 0.906242 0.874920
vt 0.906242 0.968713
vt 0.445271 0.031251
vt 0.445271 0.140601
vt 0.070310 0.140601
vt 0.070310 0.031251
vt 0.101559 0.031251
vt 0.874990 0.140601
vt 0.906242 0.140601
vt 0.999998 0.156322
vt 0.906242 0.031251
vt 0.906242 0.046962
vt 0.890616 0.046962
vt 0.999998 0.015588
vt 0.523423 0.968713
vt 0.507793 0.968713
vt 0.937494 0.031251
vt 0.937494 0.140601
vt 0.054686 0.046962
vt 0.054686 0.140601
vt 0.054686 0.968713
vt 0.890616 0.140601
vt 0.911807 0.899465
vt 0.132808 0.140601
vt 0.101559 0.968713
vt 0.132808 0.968713
vt 0.476532 0.046962
vt 0.460902 0.046962
vt 0.874990 0.031251
vt 0.002427 0.156349
vt 0.002427 0.163419
vt 0.002427 0.170489
vt 0.968746 0.859266
vt 0.968746 0.874920
vt 0.953120 0.874920
vt 0.460902 0.140601
vt 0.874989 0.859266
vt 0.906242 0.859266
vt 0.078876 0.915082
vt 0.081900 0.915082
vt 0.523423 0.140601
vt 0.117184 0.015588
vt -0.000002 -0.000004
vt 0.924909 0.899674
vt 0.924909 0.883746
vt -0.000002 0.163390
vt 0.999998 0.163390
vt 0.999998 0.170459
vt 0.039061 0.031251
vt 0.539054 0.140601
vt 0.178767 0.074886
vt 0.178409 0.047666
vt 0.503204 0.918149
vt 0.502999 0.914849
vt 0.492815 0.946575
vt 0.101559 0.140601
vt 0.174890 0.074171
vt 0.173867 0.074886
vt 0.178409 0.074886
vt 0.002427 -0.000004
vt 0.997569 0.999996
vt 0.997569 0.984304
vt 0.997569 0.828093
vt 0.539054 0.031251
vt 0.539054 0.874920
vt 0.997569 0.992150
vt 0.937494 0.859266
vt 0.999998 0.843685
vt 0.132808 0.859266
vt 0.445271 0.859266
vt 0.445271 0.968713
vt 0.117184 0.874920
vt 0.564849 0.126543
vt 0.561096 0.126085
vt 0.559964 0.126543
vt 0.492243 0.933253
vt 0.493070 0.933253
vt 0.565233 0.126543
vt 0.565233 0.097282
vt -0.000002 0.170459
vt -0.000002 0.843685
vt 0.039061 0.859266
vt 0.564849 0.092373
vt 0.953120 0.968713
vt 0.937494 0.968713
vt 0.476532 0.859266
vt 0.476532 0.874920
vt 0.460902 0.874920
vt -0.000002 0.828093
vt 0.953121 0.140601
vt 0.476532 0.968713
vt 0.039061 0.968713
vt 0.999998 0.171837
vt 0.922089 0.899674
vt 0.924743 0.899674
vt 0.070310 0.046962
vt 0.541559 0.126085
vt 0.540428 0.126543
vt 0.545312 0.126543
vt 0.093996 0.915082
vt 0.091522 0.914751
vt 0.090972 0.915082
vt 0.493295 0.951339
vt 0.489819 0.918149
vt 0.545697 0.126543
vt 0.545312 0.097282
vt 0.160599 0.074886
vt 0.160599 0.047666
vt -0.000002 0.984304
vt 0.094056 0.915082
vt 0.094294 0.896928
vt 0.968746 0.968713
vt 0.476532 0.140601
vt 0.997569 0.015588
vt 0.997569 -0.000004
vt 0.997569 0.156349
vt 0.999998 -0.000004
vt 0.160241 0.043099
vt 0.002427 0.992150
vt 0.486960 0.936493
vt 0.491345 0.934258
vt 0.493113 0.934258
vt 0.933915 0.051721
vt 0.933637 0.048167
vt 0.933915 0.072904
vt 0.997569 0.170489
vt 0.924743 0.881087
vt 0.968746 0.031251
vt 0.460902 0.968713
vt 0.914128 0.881087
vt 0.545312 0.092373
vt 0.079506 0.914609
vt 0.117184 0.968713
vt 0.132808 0.874920
vt 0.539054 0.046962
vt 0.999998 0.999996
vt 0.999998 0.828093
vt -0.000002 0.999996
vt 0.922422 0.899465
vt 0.997569 0.163419
vt 0.500139 0.936493
vt 0.094294 0.893899
vt 0.081960 0.915082
vt 0.082197 0.896928
vt 0.002427 0.015588
vt 0.155700 0.074886
vt 0.160241 0.074886
vt 0.489819 0.914849
vt 0.156723 0.074171
vt 0.082197 0.893899
vt 0.178409 0.043099
vt 0.997569 0.843685
vn 0.000000 -1.000000 0.000000
vn 0.707100 -0.707100 0.000000
vn -1.000000 0.000000 0.000000
vn 0.000000 0.000000 -1.000000
vn 0.000000 -0.707800 0.706400
vn 0.707000 -0.707200 0.000000
vn 0.000000 -0.895200 0.445700
vn 0.000000 -0.744800 0.667300
vn 0.000000 -0.706400 -0.707800
vn 0.000000 -0.556400 0.830900
vn 1.000000 0.000000 0.000000
vn 0.000000 -0.706400 -0.707900
vn 0.000000 -1.000000 -0.000100
vn 0.000000 -1.000000 0.000100
s off
f 106/1/1 107/2/1 83/3/1
f 46/4/1 44/5/1 43/6/1
f 75/7/1 53/8/1 76/9/1
f 11/10/2 117/11/2 23/12/2
f 29/13/3 55/13/3 119/14/3
f 117/15/4 55/16/4 29/16/4
f 35/17/5 33/18/5 92/19/5
f 20/20/1 18/21/1 58/22/1
f 13/23/3 15/24/3 17/25/3
f 5/26/1 17/27/1 12/28/1
f 34/29/1 23/12/1 7/30/1
f 108/31/3 79/32/3 67/33/3
f 76/9/6 104/34/6 64/35/6
f 115/36/1 97/4/1 49/37/1
f 113/38/1 82/39/1 101/40/1
f 16/41/3 17/25/3 15/24/3
f 69/42/4 68/43/4 84/44/4
f 66/45/4 51/46/4 67/47/4
f 14/48/7 47/49/7 8/50/7
f 101/40/8 82/39/8 73/51/8
f 119/52/1 55/53/1 11/10/1
f 7/30/1 23/12/1 29/53/1
f 73/51/1 74/54/1 62/55/1
f 59/56/1 71/57/1 72/58/1
f 66/59/1 67/60/1 2/61/1
f 79/62/8 108/63/8 105/64/8
f 69/3/1 4/65/1 2/61/1
f 92/19/6 93/66/6 37/67/6
f 80/68/1 68/69/1 67/60/1
f 100/70/2 85/71/2 58/22/2
f 97/4/1 99/72/1 49/37/1
f 105/64/2 51/73/2 66/59/2
f 23/74/4 117/15/4 29/16/4
f 89/75/1 113/38/1 101/40/1
f 45/76/1 40/77/1 47/49/1
f 103/78/8 102/79/8 75/7/8
f 4/65/1 78/80/1 53/8/1
f 82/39/8 72/58/8 73/51/8
f 20/81/3 19/82/3 12/83/3
f 24/84/5 57/85/5 30/86/5
f 102/79/6 110/87/6 62/55/6
f 22/88/5 26/89/5 11/10/5
f 99/90/4 97/91/4 46/91/4
f 104/34/6 109/92/6 64/35/6
f 50/93/9 18/21/9 21/94/9
f 27/95/3 56/95/3 57/96/3
f 61/75/1 73/51/1 62/55/1
f 19/97/10 3/98/10 10/99/10
f 18/21/1 70/100/1 58/22/1
f 65/101/1 66/59/1 2/61/1
f 61/102/3 89/102/3 101/103/3
f 87/104/3 33/105/3 34/106/3
f 59/56/1 72/58/1 60/107/1
f 60/108/4 113/109/4 61/110/4
f 34/29/1 7/30/1 47/49/1
f 12/83/3 21/111/3 20/81/3
f 6/112/11 7/113/11 5/114/11
f 104/34/8 76/9/8 77/115/8
f 33/18/5 87/116/5 92/19/5
f 6/112/11 8/117/11 7/113/11
f 50/93/9 21/94/9 53/8/9
f 24/84/1 25/118/1 9/119/1
f 39/120/1 31/121/1 32/122/1
f 110/87/1 102/79/1 103/78/1
f 45/76/2 43/6/2 48/123/2
f 65/124/4 64/125/4 109/126/4
f 25/118/5 24/84/5 30/86/5
f 93/127/4 88/128/4 34/128/4
f 20/20/1 60/107/1 61/75/1
f 54/129/3 111/130/3 65/129/3
f 12/131/10 19/97/10 10/99/10
f 13/132/1 44/5/1 41/133/1
f 111/130/3 77/134/3 65/129/3
f 92/19/1 87/116/1 88/29/1
f 93/66/1 92/19/1 88/29/1
f 118/135/1 30/86/1 57/85/1
f 48/123/5 43/6/5 39/120/5
f 19/97/7 20/20/7 3/98/7
f 7/30/1 29/53/1 28/136/1
f 36/137/5 90/138/5 94/139/5
f 88/106/3 87/104/3 34/106/3
f 39/120/1 43/6/1 13/132/1
f 78/80/2 105/64/2 66/59/2
f 13/132/12 17/140/12 9/119/12
f 2/61/1 64/35/1 65/101/1
f 9/119/1 33/18/1 35/17/1
f 84/141/1 106/1/1 83/3/1
f 22/88/2 11/10/2 23/12/2
f 20/20/7 2/61/7 3/98/7
f 50/93/1 53/8/1 73/51/1
f 35/17/1 36/137/1 13/132/1
f 37/67/1 38/142/1 36/137/1
f 41/133/2 49/37/2 42/143/2
f 68/69/2 80/68/2 106/1/2
f 10/144/1 5/26/1 12/28/1
f 37/67/13 47/49/13 38/142/13
f 118/145/4 56/146/4 27/146/4
f 51/46/4 52/47/4 67/47/4
f 85/71/1 100/70/1 112/147/1
f 61/75/1 62/55/1 20/20/1
f 113/109/4 89/110/4 61/110/4
f 62/148/4 110/149/4 63/150/4
f 9/119/1 26/89/1 22/88/1
f 40/151/4 45/152/4 98/153/4
f 74/54/6 102/79/6 62/55/6
f 38/154/3 91/154/3 90/155/3
f 47/49/1 32/122/1 38/142/1
f 63/156/3 95/156/3 103/157/3
f 51/73/1 105/64/1 108/63/1
f 40/77/1 32/122/1 47/49/1
f 59/158/3 86/158/3 112/159/3
f 42/143/1 46/4/1 15/160/1
f 40/161/3 96/161/3 114/162/3
f 20/20/1 58/22/1 59/56/1
f 27/163/1 9/119/1 7/30/1
f 53/8/1 75/7/1 74/54/1
f 65/101/1 77/115/1 66/59/1
f 95/164/1 110/87/1 103/78/1
f 4/165/11 1/166/11 2/167/11
f 21/94/9 1/168/9 53/8/9
f 71/169/3 59/158/3 112/159/3
f 49/37/2 99/72/2 42/143/2
f 78/80/8 79/62/8 105/64/8
f 7/30/7 8/50/7 47/49/7
f 26/89/5 119/52/5 11/10/5
f 14/170/3 16/41/3 15/24/3
f 32/171/4 116/172/4 38/173/4
f 107/174/3 81/175/3 69/176/3
f 52/33/3 108/31/3 67/33/3
f 10/177/11 2/167/11 1/166/11
f 53/8/1 74/54/1 73/51/1
f 35/17/1 37/67/1 36/137/1
f 20/20/1 64/35/1 2/61/1
f 24/178/3 27/95/3 57/96/3
f 52/60/1 51/73/1 108/63/1
f 69/3/1 81/179/1 4/65/1
f 46/4/1 47/49/1 15/160/1
f 82/39/2 113/38/2 60/107/2
f 94/139/6 116/180/6 32/122/6
f 47/49/1 46/4/1 45/76/1
f 26/181/3 29/13/3 119/14/3
f 77/115/1 76/9/1 53/8/1
f 75/182/3 63/156/3 103/157/3
f 81/179/8 107/2/8 106/1/8
f 42/183/4 99/90/4 46/91/4
f 96/77/1 98/184/1 114/185/1
f 54/124/4 65/124/4 109/126/4
f 20/20/1 59/56/1 60/107/1
f 72/58/2 82/39/2 60/107/2
f 104/34/1 111/186/1 54/101/1
f 14/48/7 15/160/7 47/49/7
f 46/4/1 43/6/1 45/76/1
f 49/37/5 41/133/5 44/5/5
f 114/185/5 48/123/5 39/120/5
f 14/48/10 8/50/10 6/187/10
f 28/136/2 25/118/2 30/86/2
f 112/147/8 100/70/8 71/57/8
f 110/149/4 95/150/4 63/150/4
f 4/65/1 81/179/1 80/68/1
f 17/140/9 5/188/9 9/119/9
f 91/142/1 116/180/1 94/139/1
f 56/163/1 118/135/1 57/85/1
f 16/189/10 14/48/10 6/187/10
f 116/172/4 91/173/4 38/173/4
f 76/9/1 64/35/1 75/7/1
f 28/190/4 118/145/4 27/146/4
f 18/21/1 50/93/1 71/57/1
f 23/12/1 34/29/1 33/18/1
f 70/100/1 18/21/1 71/57/1
f 118/135/2 28/136/2 30/86/2
f 64/35/1 20/20/1 63/164/1
f 27/163/1 24/84/1 9/119/1
f 28/136/1 27/163/1 7/30/1
f 10/177/11 3/191/11 2/167/11
f 37/192/4 93/127/4 34/128/4
f 39/193/3 40/161/3 114/162/3
f 15/160/1 13/132/1 42/143/1
f 40/77/1 39/120/1 32/122/1
f 72/58/1 71/57/1 50/93/1
f 44/5/1 13/132/1 43/6/1
f 111/186/8 104/34/8 77/115/8
f 80/68/1 67/60/1 79/62/1
f 96/151/4 40/151/4 98/153/4
f 84/141/2 68/69/2 106/1/2
f 102/79/8 74/54/8 75/7/8
f 80/68/8 81/179/8 106/1/8
f 46/194/3 97/194/3 115/195/3
f 18/196/3 20/81/3 21/111/3
f 26/89/1 25/118/1 28/136/1
f 35/17/6 92/19/6 37/67/6
f 79/62/1 78/80/1 4/65/1
f 4/65/1 80/68/1 79/62/1
f 37/67/14 34/29/14 47/49/14
f 36/137/14 31/121/14 13/132/14
f 85/197/4 86/198/4 59/198/4
f 20/20/1 62/55/1 63/164/1
f 109/92/1 104/34/1 54/101/1
f 25/118/1 26/89/1 9/119/1
f 64/35/1 63/164/1 75/7/1
f 70/100/2 100/70/2 58/22/2
f 36/199/3 38/154/3 90/155/3
f 83/176/3 107/174/3 69/176/3
f 67/60/1 68/69/1 2/61/1
f 83/42/4 69/42/4 84/44/4
f 22/88/1 33/18/1 9/119/1
f 98/184/2 45/76/2 48/123/2
f 13/132/1 41/133/1 42/143/1
f 58/200/4 85/197/4 59/198/4
f 44/201/3 46/194/3 115/195/3
f 50/93/1 73/51/1 72/58/1
f 55/53/1 117/11/1 11/10/1
f 86/56/1 85/71/1 112/147/1
f 77/115/1 78/80/1 66/59/1
f 98/184/1 48/123/1 114/185/1
f 31/121/6 94/139/6 32/122/6
f 31/121/5 36/137/5 94/139/5
f 73/202/3 61/102/3 101/103/3
f 9/203/11 5/114/11 7/113/11
f 39/120/1 13/132/1 31/121/1
f 29/53/1 26/89/1 28/136/1
f 4/65/9 53/8/9 1/168/9
f 69/3/1 2/61/1 68/69/1
f 22/88/1 23/12/1 33/18/1
f 13/132/1 9/119/1 35/17/1
f 90/138/1 91/142/1 94/139/1
f 115/36/5 49/37/5 44/5/5
f 100/70/8 70/100/8 71/57/8
f 78/80/1 77/115/1 53/8/1
