# Blender v2.76 (sub 0) OBJ File: 'sci1_6_slice45.blend'
# www.blender.org
v -1.280000 1.280000 -1.280000
v -1.280000 1.280000 1.280000
v 1.280000 1.280000 1.280000
v -1.239980 1.260000 1.240101
v 1.260066 1.280000 1.260051
v -1.259990 1.280000 1.260051
v -1.239980 1.260000 -1.239982
v -1.259990 1.280000 -1.259991
v 1.239993 1.260000 1.240101
v -1.239980 1.260000 0.960041
v 1.000002 1.260000 1.200093
v 1.199848 1.260000 1.200093
v 1.079940 1.260000 1.200093
v 1.159878 1.260000 1.200093
v -0.919996 1.260000 0.920033
v -0.919996 1.260000 1.200093
v -1.079988 1.260000 0.920033
v -1.079988 1.260000 0.960041
v -1.079988 1.260000 1.200093
v -1.159984 1.260000 0.920033
v -1.159984 1.260000 0.960041
v -1.159984 1.260000 1.200093
v -0.999992 1.260000 0.920033
v -0.999992 1.260000 0.960041
v -0.999992 1.260000 1.200093
v -0.959994 1.260000 1.240101
v -0.959994 1.260000 0.920033
v -0.959994 1.280000 0.960041
v -0.959994 1.260000 1.200093
v -1.119986 1.260000 0.920033
v -1.119986 1.280000 0.960041
v -1.079988 1.260000 -0.940016
v -1.159984 1.260000 -0.940016
v -0.999992 1.260000 -0.940016
v -1.079988 1.280000 -0.940016
v -1.119986 1.280000 1.200093
v 1.039971 1.280000 1.200093
v -0.959994 1.280000 1.200093
v -1.079988 1.280000 0.960041
v -1.079988 1.280000 1.200093
v -0.919996 1.280000 0.960041
v -0.919996 1.280000 1.200093
v 1.079940 1.280000 1.200093
v -0.959994 1.280000 -0.940016
v 1.199848 1.280000 1.200093
v -1.119986 1.280000 -0.940016
v -0.940017 1.260000 -0.940016
v 1.039971 1.280000 1.039972
v 1.000002 1.260000 1.000003
v -1.159984 1.260000 -1.159984
v 1.079940 1.280000 1.079941
v -1.119986 1.280000 -1.119986
v -1.079988 1.280000 -1.079988
v -0.959994 1.280000 -0.959994
v 1.079940 1.260000 1.079941
v -1.079988 1.260000 -1.079988
v 1.159878 1.260000 1.159879
v -0.940017 1.280000 -0.940016
v -0.999992 1.260000 -0.999992
vt 0.078129 0.132806
vt 0.109378 0.132806
vt 0.109378 0.859388
vt 0.953078 0.968786
vt 0.968691 0.968786
vt 0.984372 0.984415
vt 0.109378 0.875016
vt 0.078129 0.875016
vt 0.992213 0.992207
vt 0.125002 0.984415
vt 0.078129 0.968786
vt 0.109378 0.968786
vt 0.890626 0.968786
vt 0.921852 0.968786
vt 0.078129 0.859388
vt 0.062505 0.859388
vt 0.007816 0.992207
vt 1.000000 1.000000
vt 0.000000 1.000000
vt 0.046881 0.968786
vt 0.015633 0.984415
vt 0.140626 0.859388
vt 0.125002 0.859388
vt 0.132806 0.132806
vt 0.890626 0.890626
vt 0.906239 0.968786
vt 0.046881 0.859388
vt 0.046881 0.132806
vt 0.140626 0.875016
vt 0.140626 0.968786
vt 0.921852 0.921852
vt 0.015633 0.875016
vt 0.007816 0.007816
vt 0.078129 0.078130
vt 0.062505 0.875016
vt 0.109378 0.109378
vt 0.125002 0.125002
vt 0.062505 0.968786
vt 0.046881 0.875016
vt 0.015633 0.015632
vt 0.125002 0.968786
vt 0.125002 0.875016
vt 0.046881 0.046881
vt 0.000000 0.000000
vt 0.906239 0.906239
vt 0.062505 0.132806
vt 0.953078 0.953078
vt 0.062505 0.062506
vt 0.046881 0.133783
vt 0.125002 0.132806
vt 0.109378 0.133294
vn 0.000000 -1.000000 0.000000
vn 0.000000 -0.706200 0.708000
vn 0.707100 0.000000 -0.707100
vn 0.000000 0.000000 -1.000000
vn -1.000000 0.000000 0.000000
vn -0.706900 -0.707300 -0.000000
vn 0.000000 -0.894500 0.447100
vn 0.447200 -0.894400 0.000000
vn 0.408300 -0.816500 0.408200
vn 0.447500 -0.894300 0.000000
vn 0.705600 -0.001300 -0.708600
vn 0.705900 0.000000 -0.708300
vn 0.707800 0.005800 -0.706400
s off
f 32/1/1 34/2/1 23/3/1
f 14/4/1 12/5/1 9/6/1
f 23/3/1 24/7/1 18/8/1
f 9/6/2 5/9/2 26/10/2
f 19/11/1 24/7/1 25/12/1
f 11/13/1 13/14/1 9/6/1
f 17/15/1 30/16/1 32/1/1
f 6/17/1 3/18/1 2/19/1
f 6/17/1 5/9/1 3/18/1
f 22/20/1 19/11/1 4/21/1
f 15/22/1 27/23/1 47/24/1
f 47/24/3 58/24/3 49/25/3
f 19/11/1 25/12/1 26/10/1
f 13/14/4 11/13/4 37/26/4
f 30/16/1 20/27/1 33/28/1
f 17/15/5 18/8/5 39/8/5
f 41/29/5 15/22/5 16/30/5
f 43/14/5 51/31/5 13/14/5
f 10/32/6 4/21/6 6/17/6
f 10/32/6 6/17/6 8/33/6
f 53/34/5 56/34/5 35/1/5
f 30/16/7 17/15/7 31/35/7
f 59/36/8 54/37/8 34/2/8
f 4/21/2 26/10/2 6/17/2
f 40/11/4 19/11/4 36/38/4
f 13/14/1 14/4/1 9/6/1
f 10/32/1 21/39/1 22/20/1
f 10/32/1 7/40/1 33/28/1
f 26/10/1 29/41/1 16/30/1
f 33/28/1 32/1/1 30/16/1
f 19/11/1 18/8/1 24/7/1
f 25/12/1 29/41/1 26/10/1
f 34/2/1 47/24/1 27/23/1
f 15/22/7 41/29/7 28/42/7
f 7/40/3 8/33/3 50/43/3
f 2/19/1 1/44/1 8/33/1
f 11/13/1 16/30/1 49/25/1
f 20/27/1 10/32/1 33/28/1
f 49/25/1 16/30/1 15/22/1
f 29/41/4 25/12/4 38/41/4
f 20/27/1 30/16/1 21/39/1
f 17/15/7 39/8/7 31/35/7
f 47/24/1 49/25/1 15/22/1
f 48/45/1 51/31/1 37/26/1
f 38/41/4 16/30/4 29/41/4
f 26/10/1 16/30/1 11/13/1
f 8/33/6 7/40/6 10/32/6
f 36/38/8 22/20/8 21/39/8
f 38/41/8 25/12/8 24/7/8
f 46/46/4 35/1/4 32/1/4
f 43/14/4 13/14/4 37/26/4
f 28/42/8 38/41/8 24/7/8
f 5/9/2 6/17/2 26/10/2
f 39/8/1 40/11/1 31/35/1
f 55/31/3 51/31/3 57/47/3
f 27/23/9 28/42/9 24/7/9
f 30/16/9 31/35/9 21/39/9
f 56/34/3 53/34/3 59/36/3
f 49/25/10 48/45/10 11/13/10
f 42/30/5 41/29/5 16/30/5
f 27/23/7 15/22/7 28/42/7
f 42/30/1 38/41/1 28/42/1
f 40/11/1 36/38/1 31/35/1
f 45/5/11 5/9/11 9/6/11
f 7/40/1 50/43/1 33/28/1
f 52/48/1 53/34/1 46/46/1
f 12/5/12 45/5/12 9/6/12
f 4/21/1 10/32/1 22/20/1
f 23/3/1 18/8/1 17/15/1
f 56/34/1 59/36/1 32/1/1
f 53/34/3 54/37/3 59/36/3
f 18/8/5 19/11/5 40/11/5
f 13/14/1 57/47/1 14/4/1
f 23/3/1 27/23/1 24/7/1
f 41/29/1 42/30/1 28/42/1
f 8/33/3 52/48/3 50/43/3
f 19/11/4 22/20/4 36/38/4
f 27/23/1 23/3/1 34/2/1
f 13/14/1 55/31/1 57/47/1
f 33/49/4 46/46/4 32/1/4
f 31/35/8 36/38/8 21/39/8
f 51/31/13 45/5/13 57/47/13
f 50/43/8 52/48/8 33/28/8
f 58/24/3 48/45/3 49/25/3
f 58/24/4 47/24/4 44/50/4
f 14/4/4 45/5/4 12/5/4
f 38/41/4 42/30/4 16/30/4
f 20/27/1 21/39/1 10/32/1
f 2/19/1 8/33/1 6/17/1
f 47/24/4 34/51/4 44/50/4
f 26/10/1 4/21/1 19/11/1
f 51/31/5 55/31/5 13/14/5
f 9/6/1 26/10/1 11/13/1
f 48/45/10 37/26/10 11/13/10
f 54/37/1 58/24/1 44/50/1
f 53/34/1 35/1/1 46/46/1
f 40/11/5 39/8/5 18/8/5
f 59/36/1 34/2/1 32/1/1
f 54/37/8 44/50/8 34/2/8
f 52/48/8 46/46/8 33/28/8
f 51/31/1 43/14/1 37/26/1
f 57/47/10 45/5/10 14/4/10
f 56/34/5 32/1/5 35/1/5
f 23/3/1 17/15/1 32/1/1
