# Blender v2.76 (sub 0) OBJ File: 'sci1_2_slice45_lh.blend'
# www.blender.org
v 1.280000 1.280000 -1.280000
v -1.280000 1.280000 -1.280000
v -1.280000 1.280000 -0.799993
v -1.280000 1.240000 -0.840167
v -1.280000 1.250000 -0.820080
v -1.280000 1.240000 -1.240084
v -1.280000 1.240000 -1.160120
v -1.280000 1.280000 0.840000
v -1.280000 1.280000 1.280087
v -1.280000 1.240000 1.239913
v -1.280000 1.250000 1.260000
v -1.280000 1.240000 0.879916
v -1.219998 1.240000 -1.200195
v -1.219998 1.240000 -1.160120
v -1.219998 1.240000 -0.920000
v -1.179904 1.225000 -1.160120
v -1.179904 1.225000 -0.959896
v -0.539977 1.240000 -1.200195
v -0.539977 1.240000 -1.160120
v -0.539977 1.240000 -0.920000
v -0.580055 1.225000 -1.160120
v -0.580055 1.225000 -0.959896
v 0.339911 1.240000 -1.200195
v 0.339911 1.240000 -0.920000
v -0.340000 1.240000 -1.200195
v -0.340000 1.240000 -1.160120
v -0.340000 1.240000 -0.920000
v -0.300006 1.225000 -1.160120
v -0.300006 1.225000 -0.959896
v 0.299964 1.225000 -1.160119
v 0.299964 1.225000 -0.959896
v 0.579927 1.240000 -1.200195
v 0.579927 1.240000 -0.920000
v 0.620057 1.225000 -1.160120
v 0.620057 1.225000 -0.959896
v -1.280000 1.240000 -1.180157
v -1.219998 1.240000 -1.180157
v -0.539977 1.240000 -1.180157
v -0.340000 1.240000 -1.180157
v 1.179878 1.230000 -1.180157
v -0.320003 1.230000 -0.939948
v -0.320003 1.230000 -1.180157
v 0.319938 1.230000 -0.939948
v 0.319938 1.230000 -1.180157
v 0.599992 1.230000 -0.939948
v 0.599992 1.230000 -1.180157
v 1.199941 1.240000 -1.200195
v -0.560016 1.230000 -0.939948
v -0.560016 1.230000 -1.180157
v -1.199951 1.230000 -0.939948
v -1.199951 1.230000 -1.180157
v -1.119964 1.220000 0.979880
v -1.139964 1.240000 0.959880
v 0.959983 1.225000 -0.959896
v -0.839913 1.280000 0.840000
v 1.160207 1.225000 -1.160120
v -1.139964 1.240000 1.140050
v 0.800080 1.280000 -0.799993
v 0.920087 1.240000 -0.920000
v 0.840254 1.240000 -0.840167
v -1.239826 1.240000 1.239913
v -0.959793 1.240000 0.959880
v 1.240171 1.240000 -1.240084
v 0.820167 1.250000 -0.820080
v -1.259913 1.250000 1.260000
v -1.119964 1.220000 1.120050
v 0.940035 1.230000 -0.939948
v -0.879829 1.240000 0.879916
v -0.979793 1.220000 0.979880
vt 0.000000 0.000000
vt 0.000000 0.039000
vt 0.000000 0.046827
vt 0.000000 0.828097
vt 0.000000 0.843689
vt 0.000000 0.984308
vt 0.859409 0.140620
vt 0.874993 0.125037
vt 0.953206 0.046827
vt 0.000000 0.171804
vt 0.023438 0.140620
vt 0.289071 0.140620
vt 0.015693 0.984308
vt 0.054702 0.945300
vt 0.023438 0.046827
vt 0.289071 0.031173
vt 0.289071 0.039000
vt 0.281244 0.039000
vt 0.367187 0.140620
vt 0.374999 0.132828
vt 0.632777 0.140620
vt 0.367187 0.031173
vt 0.000000 0.015592
vt 0.984442 0.015592
vt 0.374999 0.039000
vt 0.367187 0.046827
vt 0.968727 0.031173
vt 0.726534 0.031173
vt 0.726534 0.140620
vt 0.734372 0.132828
vt 0.140186 0.874924
vt 0.186609 0.828097
vt 0.070146 0.945300
vt 0.023438 0.039000
vt 0.007846 0.992154
vt 0.734372 0.039000
vt 0.820378 0.179650
vt 0.812531 0.187496
vt 0.000000 0.179650
vt 1.000000 0.000000
vt 0.031269 0.132828
vt 0.281244 0.132828
vt 0.273416 0.046827
vt 0.171909 0.828097
vt 0.156317 0.843689
vt 0.273416 0.125037
vt 0.039100 0.125037
vt 0.039100 0.046827
vt 0.960890 0.039000
vt 0.031269 0.039000
vt 0.632778 0.031173
vt 0.742210 0.046827
vt 0.742210 0.125037
vt 0.289071 0.046827
vt 0.132712 0.882736
vt 0.828224 0.171804
vt 0.000000 0.187496
vt 0.023438 0.031173
vt 0.054702 0.874924
vt 0.171152 0.843689
vt 0.367187 0.039000
vt 0.016188 1.000000
vt 0.617173 0.125037
vt 0.382810 0.125037
vt 0.382810 0.046827
vt 0.867201 0.132828
vt 0.624975 0.132828
vt 0.624976 0.039000
vt 0.125081 0.874924
vt 0.133571 0.882736
vt 0.078817 0.882736
vt 0.141383 0.874924
vt 0.000000 0.992154
vt 0.000000 1.000000
vt 0.031745 0.984308
vt 0.617173 0.046827
vt 0.023966 0.992154
vt 0.071004 0.874924
vt 0.078817 0.937488
vt 0.077958 0.937488
vt 0.071004 0.945300
vn -1.000000 0.000000 0.000000
vn 0.707100 0.000000 0.707100
vn -0.000000 -1.000000 0.000000
vn 0.446500 -0.894800 0.000000
vn 0.000000 -0.894000 0.448100
vn -0.447300 -0.894400 0.000000
vn 0.000000 -0.895200 0.445700
vn -0.446000 -0.895000 0.000000
vn 0.000000 -0.556400 0.830900
vn 0.707500 -0.006200 0.706700
vn -0.000000 -0.894000 0.448200
vn 0.242100 -0.970300 0.000000
vn 0.000000 -0.706400 -0.707800
vn 0.000000 -0.894800 -0.446500
vn -0.242000 -0.970300 0.000000
vn -0.241800 -0.970300 0.000000
vn 0.707200 0.000400 0.707000
vn 0.000000 -0.970200 -0.242100
vn 0.000000 -0.706400 -0.707900
vn -0.000000 -0.970000 0.243100
vn -0.446400 -0.894900 0.000000
vn -0.446100 -0.895000 -0.000000
vn 0.704100 0.007500 0.710100
vn -0.446400 -0.894800 0.000000
vn 0.000000 -0.707100 -0.707100
vn 0.447700 -0.894200 -0.000000
vn 0.719500 -0.056500 0.692200
vn 0.242800 -0.970100 -0.000000
vn 0.000000 -0.970300 -0.242100
vn -0.242600 -0.970100 0.000000
vn -0.707100 -0.707100 0.000000
vn 0.707500 0.013800 0.706600
s off
f 2/1/1 36/2/1 7/3/1
f 8/4/1 12/5/1 10/6/1
f 59/7/2 54/8/2 56/9/2
f 4/10/3 15/11/3 20/12/3
f 61/13/3 10/6/3 57/14/3
f 14/15/3 7/3/3 36/2/3
f 18/16/4 38/17/4 49/18/4
f 27/19/5 41/20/5 24/21/5
f 25/22/3 6/23/3 63/24/3
f 42/25/6 41/20/6 26/26/6
f 63/24/3 47/27/3 32/28/3
f 59/7/5 33/29/5 45/30/5
f 62/31/2 55/32/2 57/33/2
f 37/34/3 14/15/3 36/2/3
f 61/13/7 65/35/7 10/6/7
f 46/36/8 45/30/8 33/29/8
f 4/10/3 7/3/3 15/11/3
f 64/37/9 58/38/9 5/39/9
f 47/27/10 1/40/10 59/7/10
f 20/12/11 15/11/11 50/41/11
f 49/18/12 48/42/12 21/43/12
f 32/28/3 33/29/3 24/21/3
f 55/44/13 68/45/13 8/4/13
f 22/46/3 17/47/3 16/48/3
f 40/49/14 46/36/14 47/27/14
f 51/50/15 16/48/15 50/41/15
f 42/25/14 25/22/14 23/51/14
f 34/52/16 35/53/16 45/30/16
f 20/12/3 19/54/3 27/19/3
f 26/26/3 19/54/3 38/17/3
f 57/33/2 69/55/2 62/31/2
f 1/40/17 58/38/17 59/7/17
f 34/52/18 46/36/18 40/49/18
f 1/40/19 63/24/19 2/1/19
f 58/38/2 60/56/2 59/7/2
f 58/38/3 55/44/3 3/57/3
f 51/50/14 13/58/14 18/16/14
f 53/59/3 57/14/3 12/5/3
f 68/60/2 55/32/2 62/31/2
f 25/22/3 39/61/3 38/17/3
f 42/25/6 26/26/6 39/61/6
f 56/9/3 54/8/3 34/52/3
f 12/5/3 68/45/3 53/59/3
f 9/62/2 57/33/2 55/32/2
f 5/39/7 4/10/7 64/37/7
f 31/63/3 29/64/3 28/65/3
f 48/42/4 49/18/4 19/54/4
f 67/66/20 45/30/20 35/53/20
f 41/20/20 29/64/20 43/67/20
f 39/61/3 26/26/3 38/17/3
f 19/54/4 20/12/4 48/42/4
f 51/50/21 14/15/21 37/34/21
f 46/36/16 34/52/16 45/30/16
f 59/7/2 67/66/2 54/8/2
f 16/48/18 51/50/18 49/18/18
f 32/28/22 46/36/22 33/29/22
f 42/25/18 44/68/18 28/65/18
f 68/45/3 62/69/3 53/59/3
f 33/29/3 60/56/3 24/21/3
f 63/24/23 1/40/23 47/27/23
f 39/61/6 25/22/6 42/25/6
f 57/14/3 10/6/3 12/5/3
f 27/19/6 26/26/6 41/20/6
f 48/42/5 20/12/5 50/41/5
f 15/11/24 14/15/24 50/41/24
f 7/3/3 14/15/3 15/11/3
f 29/64/20 31/63/20 43/67/20
f 4/10/1 5/39/1 3/57/1
f 38/17/4 19/54/4 49/18/4
f 46/36/14 32/28/14 47/27/14
f 3/57/1 2/1/1 7/3/1
f 44/68/14 42/25/14 23/51/14
f 17/47/20 22/46/20 48/42/20
f 13/58/3 37/34/3 36/2/3
f 33/29/3 59/7/3 60/56/3
f 23/51/3 25/22/3 63/24/3
f 49/18/14 51/50/14 18/16/14
f 7/3/1 4/10/1 3/57/1
f 60/56/3 27/19/3 24/21/3
f 69/70/25 52/71/25 62/72/25
f 58/38/2 64/37/2 60/56/2
f 44/68/26 23/51/26 24/21/26
f 54/8/20 67/66/20 35/53/20
f 43/67/26 44/68/26 24/21/26
f 10/6/1 11/73/1 9/74/1
f 48/42/12 22/46/12 21/43/12
f 19/54/3 26/26/3 27/19/3
f 56/9/18 34/52/18 40/49/18
f 4/10/3 27/19/3 60/56/3
f 9/62/2 61/75/2 57/33/2
f 67/66/11 59/7/11 45/30/11
f 24/21/3 23/51/3 32/28/3
f 6/23/1 36/2/1 2/1/1
f 56/9/27 40/49/27 47/27/27
f 30/76/3 31/63/3 28/65/3
f 44/68/28 43/67/28 30/76/28
f 44/68/29 30/76/29 28/65/29
f 41/20/11 43/67/11 24/21/11
f 50/41/20 17/47/20 48/42/20
f 42/25/30 28/65/30 41/20/30
f 25/22/3 38/17/3 18/16/3
f 43/67/28 31/63/28 30/76/28
f 20/12/3 27/19/3 4/10/3
f 4/10/7 60/56/7 64/37/7
f 28/65/30 29/64/30 41/20/30
f 25/22/3 18/16/3 6/23/3
f 16/48/15 17/47/15 50/41/15
f 21/43/3 22/46/3 16/48/3
f 9/62/2 65/77/2 61/75/2
f 52/71/25 53/78/25 62/72/25
f 13/58/3 36/2/3 6/23/3
f 37/34/24 13/58/24 51/50/24
f 68/45/13 12/5/13 8/4/13
f 55/44/3 8/4/3 3/57/3
f 58/38/9 3/57/9 5/39/9
f 66/79/3 52/71/3 69/70/3
f 51/50/24 50/41/24 14/15/24
f 9/74/1 8/4/1 10/6/1
f 53/78/31 52/71/31 66/79/31
f 23/51/3 63/24/3 32/28/3
f 9/74/9 11/73/9 65/35/9
f 21/43/18 16/48/18 49/18/18
f 54/8/3 35/53/3 34/52/3
f 57/33/2 66/80/2 69/55/2
f 59/7/32 56/9/32 47/27/32
f 57/81/31 53/78/31 66/79/31
f 65/35/7 11/73/7 10/6/7
f 18/16/3 13/58/3 6/23/3
f 63/24/13 6/23/13 2/1/13
