# Blender v2.76 (sub 0) OBJ File: 'sec1_1c_slice64highrh.blend'
# www.blender.org
v 1.280000 1.280000 1.280000
v -1.280000 1.280000 1.280000
v 1.080035 1.120021 1.340000
v 1.119900 1.159798 1.280000
v 1.099865 1.139743 1.300000
v 1.280000 0.640000 1.280000
v 1.099865 0.685034 1.300000
v -0.799194 1.159798 1.280000
v -0.640087 1.120021 1.340000
v 1.119900 0.680025 1.280000
v 1.080035 0.689991 1.340000
v -0.718972 1.139743 1.300000
v -1.280000 1.280000 1.340000
v 1.280000 0.640000 1.340000
vt 0.937461 0.953046
vt 1.000000 1.000000
vt 1.000000 0.750000
vt 0.929635 0.945212
vt 0.937461 0.765635
vt 0.921889 0.937508
vt 0.929635 0.767591
vt 0.249966 0.937508
vt 0.921889 0.769528
vt 0.187815 0.953046
vt 0.219151 0.945212
vt 1.000202 0.733138
vt -0.000039 0.978011
vt 0.000000 1.000000
vn 0.000000 0.000000 -1.000000
vn -0.706500 0.000000 -0.707700
vn -0.895900 0.000000 -0.444200
vn 0.000000 -0.896900 -0.442200
vn 0.000000 -0.706100 -0.708100
vn -0.242500 -0.970100 0.000000
s off
f 4/1/1 1/2/1 6/3/1
f 5/4/2 4/1/2 10/5/2
f 3/6/3 5/4/3 7/7/3
f 5/4/4 3/6/4 9/8/4
f 9/8/1 3/6/1 11/9/1
f 1/2/1 4/1/1 8/10/1
f 4/1/5 5/4/5 12/11/5
f 14/12/6 7/7/6 10/5/6
f 13/13/6 8/10/6 9/8/6
f 10/5/1 4/1/1 6/3/1
f 7/7/2 5/4/2 10/5/2
f 11/9/3 3/6/3 7/7/3
f 12/11/4 5/4/4 9/8/4
f 2/14/1 1/2/1 8/10/1
f 8/10/5 4/1/5 12/11/5
f 10/5/6 6/3/6 14/12/6
f 14/12/6 11/9/6 7/7/6
f 12/11/6 9/8/6 8/10/6
f 13/13/6 2/14/6 8/10/6
