# Blender v2.76 (sub 0) OBJ File: 'sparkingwire.blend'
# www.blender.org
v -0.013681 -0.142390 -0.037588
v 0.000000 0.000077 -0.040000
v -0.013681 -0.284856 -0.037588
v 0.013681 0.000077 -0.037588
v -0.006802 -0.428216 -0.037588
v 0.025712 0.000077 -0.030642
v 0.005617 -0.570140 -0.037588
v 0.034641 0.000077 -0.020000
v 0.029710 -0.711755 -0.037588
v 0.039392 0.000077 -0.006946
v 0.067719 -0.851099 -0.037588
v 0.039392 0.000077 0.006946
v 0.093234 -0.841219 -0.037588
v 0.034641 0.000077 0.020000
v 0.056641 -0.706919 -0.037588
v 0.025712 0.000077 0.030642
v 0.032875 -0.567755 -0.037588
v 0.013681 0.000077 0.037588
v 0.020455 -0.425831 -0.037588
v 0.000000 0.000077 0.040000
v 0.013681 -0.284856 -0.037588
v -0.013681 0.000077 0.037588
v 0.013681 -0.142390 -0.037588
v -0.025711 0.000077 0.030642
v 0.000000 -0.142390 -0.040000
v -0.034641 0.000077 0.020000
v 0.000000 -0.284856 -0.040000
v -0.039392 0.000077 0.006946
v 0.006827 -0.427024 -0.040000
v -0.039392 0.000077 -0.006946
v 0.019246 -0.568947 -0.040000
v -0.034641 0.000077 -0.020000
v 0.043176 -0.709337 -0.040000
v -0.025712 0.000077 -0.030642
v 0.080476 -0.846159 -0.040000
v -0.013681 0.000077 -0.037588
v 0.129154 -0.971873 -0.034441
v 0.128486 -0.970148 -0.040000
v 0.141534 -0.971222 -0.032364
v 0.142725 -0.969033 -0.037588
v 0.152385 -0.970560 -0.026383
v 0.155121 -0.967727 -0.030642
v 0.160333 -0.969792 -0.017220
v 0.164091 -0.966164 -0.020000
v 0.164491 -0.969201 -0.005981
v 0.168654 -0.964790 -0.006946
v 0.164537 -0.969319 0.005981
v 0.168654 -0.964790 0.006946
v 0.160722 -0.970796 0.017220
v 0.164223 -0.966505 0.020000
v 0.153506 -0.973455 0.026383
v 0.155896 -0.969730 0.030642
v 0.143503 -0.976309 0.032364
v 0.144545 -0.973732 0.037588
v 0.131741 -0.978553 0.034441
v 0.131144 -0.977011 0.040000
v 0.119564 -0.979729 0.032364
v 0.117209 -0.978913 0.037588
v 0.108510 -0.979867 0.026383
v 0.104509 -0.979432 0.030642
v 0.100134 -0.979528 0.017220
v 0.094820 -0.979137 0.020000
v 0.095802 -0.979671 0.005981
v 0.089708 -0.979095 0.006946
v 0.095802 -0.979671 -0.005981
v 0.089708 -0.979095 -0.006946
v 0.099617 -0.978194 -0.017220
v 0.094139 -0.977379 -0.020000
v 0.106787 -0.975417 -0.026383
v 0.102466 -0.974155 -0.030642
v 0.116963 -0.973011 -0.032364
v 0.114366 -0.971569 -0.037588
v 0.025712 -0.142390 -0.030642
v 0.025712 -0.284856 -0.030642
v 0.032440 -0.424782 -0.030642
v 0.044859 -0.566706 -0.030642
v 0.068482 -0.704793 -0.030642
v 0.104453 -0.836875 -0.030642
v 0.034641 -0.142390 -0.020000
v 0.034641 -0.284856 -0.020000
v 0.041336 -0.424004 -0.020000
v 0.053755 -0.565928 -0.020000
v 0.077271 -0.703215 -0.020000
v 0.112780 -0.833651 -0.020000
v 0.039392 -0.142390 -0.006946
v 0.039392 -0.284856 -0.006946
v 0.046069 -0.423590 -0.006946
v 0.058488 -0.565513 -0.006946
v 0.081948 -0.702375 -0.006946
v 0.117211 -0.831935 -0.006946
v 0.039392 -0.142390 0.006946
v 0.039392 -0.284856 0.006946
v 0.046069 -0.423590 0.006946
v 0.058488 -0.565513 0.006946
v 0.081948 -0.702375 0.006946
v 0.117211 -0.831935 0.006946
v 0.034641 -0.142390 0.020000
v 0.034641 -0.284856 0.020000
v 0.041336 -0.424004 0.020000
v 0.053755 -0.565928 0.020000
v 0.077271 -0.703215 0.020000
v 0.112780 -0.833651 0.020000
v 0.025712 -0.142390 0.030642
v 0.025712 -0.284856 0.030642
v 0.032440 -0.424782 0.030642
v 0.044859 -0.566706 0.030642
v 0.068482 -0.704793 0.030642
v 0.104453 -0.836875 0.030642
v 0.013681 -0.142390 0.037588
v 0.013681 -0.284856 0.037588
v 0.020455 -0.425831 0.037588
v 0.032875 -0.567755 0.037588
v 0.056641 -0.706919 0.037588
v 0.093234 -0.841219 0.037588
v 0.000000 -0.142390 0.040000
v 0.000000 -0.284856 0.040000
v 0.006827 -0.427024 0.040000
v 0.019246 -0.568947 0.040000
v 0.043176 -0.709337 0.040000
v 0.080476 -0.846159 0.040000
v -0.013681 -0.142390 0.037588
v -0.013681 -0.284856 0.037588
v -0.006802 -0.428216 0.037588
v 0.005617 -0.570140 0.037588
v 0.029710 -0.711755 0.037588
v 0.067719 -0.851099 0.037588
v -0.025711 -0.142390 0.030642
v -0.025711 -0.284856 0.030642
v -0.018787 -0.429265 0.030642
v -0.006368 -0.571189 0.030642
v 0.017869 -0.713881 0.030642
v 0.056500 -0.855444 0.030642
v -0.034641 -0.142390 0.020000
v -0.034641 -0.284856 0.020000
v -0.027683 -0.430043 0.020000
v -0.015263 -0.571967 0.020000
v 0.009080 -0.715460 0.020000
v 0.048173 -0.858668 0.020000
v -0.039392 -0.142390 0.006946
v -0.039392 -0.284856 0.006946
v -0.032416 -0.430458 0.006946
v -0.019996 -0.572381 0.006946
v 0.004403 -0.716299 0.006946
v 0.043742 -0.860384 0.006946
v -0.039392 -0.142390 -0.006946
v -0.039392 -0.284856 -0.006946
v -0.032416 -0.430458 -0.006946
v -0.019996 -0.572381 -0.006946
v 0.004403 -0.716299 -0.006946
v 0.043742 -0.860384 -0.006946
v -0.034641 -0.142390 -0.020000
v -0.034641 -0.284856 -0.020000
v -0.027683 -0.430043 -0.020000
v -0.015263 -0.571967 -0.020000
v 0.009080 -0.715460 -0.020000
v 0.048173 -0.858668 -0.020000
v -0.025712 -0.142390 -0.030642
v -0.025712 -0.284856 -0.030642
v -0.018787 -0.429265 -0.030642
v -0.006368 -0.571189 -0.030642
v 0.017869 -0.713881 -0.030642
v 0.056500 -0.855444 -0.030642
vt 0.326351 1.000000
vt 0.500000 1.000000
vt 0.500000 0.000000
vt 0.826352 1.000000
vt 0.939692 1.000000
vt 0.939692 0.000000
vt 1.000000 1.000000
vt 1.000000 0.000000
vt 0.826352 0.000000
vt 0.673648 1.000000
vt 0.673648 0.000000
vt 0.326351 0.000000
vt 0.173648 1.000000
vt 0.173648 0.000000
vt 0.060308 1.000000
vt 0.060308 0.000000
vt 0.000000 1.000000
vt 0.000000 0.000000
vt 0.052137 0.000000
vt 0.052137 1.000000
vt 0.225785 1.000000
vt 0.308508 0.490224
vt 0.308337 0.489989
vt 0.307276 0.490082
vt 0.309592 0.489911
vt 0.309270 0.489719
vt 0.310396 0.489432
vt 0.309963 0.489307
vt 0.310824 0.488844
vt 0.310331 0.488800
vt 0.310824 0.488218
vt 0.310331 0.488262
vt 0.310396 0.487630
vt 0.309963 0.487755
vt 0.309592 0.487151
vt 0.309270 0.487343
vt 0.308508 0.486838
vt 0.308337 0.487073
vt 0.307276 0.486729
vt 0.307276 0.486980
vt 0.306044 0.486838
vt 0.306215 0.487073
vt 0.304960 0.487151
vt 0.305282 0.487343
vt 0.304156 0.487630
vt 0.304589 0.487755
vt 0.303728 0.488218
vt 0.304221 0.488262
vt 0.303728 0.488844
vt 0.304221 0.488800
vt 0.304156 0.489432
vt 0.304589 0.489307
vt 0.304960 0.489911
vt 0.305282 0.489719
vt 0.306044 0.490224
vt 0.306215 0.489989
vt 0.307276 0.490333
vt 0.500289 0.510165
vt 0.491494 0.512704
vt 0.520292 0.537644
vt 0.687019 1.000000
vt 0.860668 1.000000
vt 0.860668 0.000000
vt 1.006921 1.000000
vt 1.180569 1.000000
vt 1.180569 0.000000
vt 0.150568 1.000000
vt 0.324217 1.000000
vt 0.324217 0.000000
vt 0.824823 1.000000
vt 0.998471 1.000000
vt 0.998471 0.000000
vt 0.225785 0.000000
vt 0.378489 1.000000
vt 1.013371 1.000000
vt 1.013371 0.000000
vt 1.333273 1.000000
vt 1.333273 0.000000
vt 0.476920 1.000000
vt 0.476920 0.000000
vt 1.151175 1.000000
vt 1.151175 0.000000
vt -0.274215 0.000000
vt -0.274215 1.000000
vt -0.121511 1.000000
vt 0.360667 1.000000
vt 0.513371 1.000000
vt 0.513371 0.000000
vt 0.680569 0.000000
vt 0.680569 1.000000
vt 0.833272 1.000000
vt -0.175784 0.000000
vt -0.175784 1.000000
vt -0.023080 1.000000
vt 0.498471 1.000000
vt 0.651174 1.000000
vt 0.651174 0.000000
vt -0.387557 1.000000
vt 0.247326 1.000000
vt 0.360667 0.000000
vt 0.567228 1.000000
vt -0.289124 1.000000
vt 0.385130 1.000000
vt 0.498471 0.000000
vt -0.447863 1.000000
vt -0.387557 0.000000
vt 0.187020 1.000000
vt 0.247326 0.000000
vt 0.506921 1.000000
vt 0.567228 0.000000
vt -0.349431 1.000000
vt -0.289124 0.000000
vt 0.324823 1.000000
vt 0.385130 0.000000
vt -0.447863 0.000000
vt 0.187020 0.000000
vt 0.506921 0.000000
vt -0.349431 0.000000
vt 0.324823 0.000000
vt -0.121511 0.000000
vt 0.833272 0.000000
vt -0.023080 0.000000
vt 0.687019 0.000000
vt 1.006921 0.000000
vt 0.150568 0.000000
vt 0.824823 0.000000
vt 0.491829 1.000000
vt 0.378489 0.000000
vt 1.126711 1.000000
vt 1.446613 1.000000
vt 0.590260 1.000000
vt 1.264515 1.000000
vt 0.552137 1.000000
vt 0.491829 0.000000
vt 1.187020 1.000000
vt 1.126711 0.000000
vt 1.506921 1.000000
vt 1.446613 0.000000
vt 0.650569 1.000000
vt 0.590260 0.000000
vt 1.324823 1.000000
vt 1.264515 0.000000
vt 0.552137 0.000000
vt 1.187020 0.000000
vt 1.506921 0.000000
vt 0.650569 0.000000
vt 1.324823 0.000000
vt 0.500289 0.537644
vt 0.510290 0.538526
vt 0.484966 0.531215
vt 0.529087 0.535105
vt 0.535615 0.531215
vt 0.539088 0.526444
vt 0.539088 0.521366
vt 0.535615 0.516594
vt 0.510290 0.509284
vt 0.529087 0.512704
vt 0.520292 0.510165
vt 0.484966 0.516594
vt 0.481493 0.526444
vt 0.481493 0.521366
vt 0.491494 0.535105
vn -0.253900 0.670000 -0.697600
vn 0.000000 0.670000 -0.742300
vn 0.000000 0.000000 -1.000000
vn 0.477200 0.670000 -0.568700
vn 0.642900 0.670000 -0.371200
vn 0.866000 0.000000 -0.500000
vn 0.731000 0.670000 -0.128900
vn 0.984800 0.000000 -0.173600
vn 0.731000 0.670000 0.128900
vn 0.984800 0.000000 0.173600
vn 0.642900 0.670000 0.371200
vn 0.866000 0.000000 0.500000
vn 0.477200 0.670000 0.568700
vn 0.642800 0.000000 0.766000
vn 0.253900 0.670000 0.697600
vn 0.342000 0.000000 0.939700
vn 0.000000 0.670000 0.742300
vn 0.000000 0.000000 1.000000
vn -0.253900 0.670000 0.697600
vn -0.342000 0.000000 0.939700
vn -0.477200 0.670000 0.568700
vn -0.642800 0.000000 0.766000
vn -0.642900 0.670000 0.371200
vn -0.866000 0.000000 0.500000
vn -0.731000 0.670000 0.128900
vn -0.984800 0.000000 0.173600
vn -0.731000 0.670000 -0.128900
vn -0.984800 0.000000 -0.173600
vn -0.642900 0.670000 -0.371200
vn -0.866000 0.000000 -0.500000
vn -0.477200 0.670000 -0.568700
vn -0.642800 0.000000 -0.766000
vn -0.342000 0.000000 -0.939700
vn 0.066300 -0.552500 -0.830900
vn -0.005500 -0.001500 -1.000000
vn 0.320400 0.105600 -0.941400
vn 0.253900 0.670000 -0.697600
vn 0.642800 0.000000 -0.766000
vn 0.342000 0.000000 -0.939700
vn 0.341400 -0.473700 -0.811800
vn 0.150500 -0.958900 -0.240400
vn 0.086800 -0.969900 -0.227200
vn 0.621600 -0.377500 -0.686300
vn 0.276600 -0.934000 -0.226200
vn 0.847500 -0.273400 -0.454900
vn 0.377900 -0.913800 -0.148900
vn 0.969800 -0.181400 -0.162700
vn 0.492300 -0.867700 -0.068100
vn 0.975300 -0.163600 0.148300
vn 0.524800 -0.850900 0.021200
vn 0.878700 -0.201000 0.433000
vn 0.497800 -0.861400 0.100800
vn 0.689300 -0.290000 0.663900
vn 0.419600 -0.895900 0.145900
vn 0.423900 -0.437400 0.793100
vn 0.283700 -0.950300 0.128500
vn 0.113500 -0.574300 0.810700
vn 0.158300 -0.979800 0.122300
vn -0.177300 -0.674600 0.716500
vn 0.051300 -0.997300 0.051800
vn -0.401700 -0.733700 0.548000
vn 0.009300 -0.999900 0.001000
vn -0.551300 -0.756200 0.352500
vn -0.056600 -0.998100 0.024300
vn -0.630700 -0.766200 0.122900
vn -0.034300 -0.999400 0.009200
vn -0.611500 -0.776900 -0.150000
vn 0.019800 -0.997300 -0.070300
vn -0.515800 -0.739800 -0.431900
vn 0.052200 -0.984800 -0.165700
vn -0.368400 -0.664600 -0.650100
vn 0.056900 -0.964000 -0.259500
vn -0.168200 -0.607800 -0.776000
vn 0.048000 -0.957500 -0.284200
vn -0.005200 -0.001300 -1.000000
vn 0.329600 0.072700 -0.941300
vn -0.004500 -0.000700 -1.000000
vn 0.335500 0.043200 -0.941000
vn -0.002200 -0.000100 -1.000000
vn 0.339400 0.023000 -0.940400
vn -0.002600 -0.000100 -1.000000
vn 0.339600 0.008100 -0.940500
vn 0.607800 0.199900 -0.768500
vn 0.624800 0.138100 -0.768400
vn 0.635100 0.082000 -0.768000
vn 0.640100 0.043400 -0.767100
vn 0.641100 0.015400 -0.767300
vn -0.614200 -0.202000 -0.762800
vn -0.330100 -0.108300 -0.937700
vn -0.631000 -0.139400 -0.763100
vn -0.338800 -0.075000 -0.937800
vn -0.640400 -0.082300 -0.763600
vn -0.343300 -0.044300 -0.938100
vn -0.642700 -0.043500 -0.764900
vn -0.343200 -0.023200 -0.939000
vn -0.644200 -0.015400 -0.764600
vn -0.344300 -0.008300 -0.938800
vn -0.824200 -0.271400 -0.497100
vn -0.847200 -0.186900 -0.497400
vn -0.860200 -0.110400 -0.497800
vn -0.864600 -0.058500 -0.499000
vn -0.866500 -0.020700 -0.498700
vn -0.935500 -0.308200 -0.172500
vn -0.961900 -0.212100 -0.172600
vn -0.977000 -0.125200 -0.172800
vn -0.982600 -0.066500 -0.173200
vn -0.984600 -0.023500 -0.173100
vn -0.935500 -0.308200 0.172500
vn -0.961900 -0.212100 0.172600
vn -0.977000 -0.125200 0.172800
vn -0.982600 -0.066500 0.173200
vn -0.984600 -0.023500 0.173100
vn -0.824200 -0.271300 0.497100
vn -0.847100 -0.187000 0.497400
vn -0.860200 -0.110300 0.497800
vn -0.864600 -0.058500 0.499000
vn -0.866500 -0.020700 0.498700
vn -0.614200 -0.202000 0.762800
vn -0.631000 -0.139400 0.763100
vn -0.640400 -0.082300 0.763600
vn -0.642700 -0.043500 0.764900
vn -0.644200 -0.015400 0.764600
vn -0.330100 -0.108300 0.937700
vn -0.338800 -0.075000 0.937800
vn -0.343300 -0.044300 0.938100
vn -0.343200 -0.023200 0.939000
vn -0.344300 -0.008300 0.938800
vn -0.005500 -0.001500 1.000000
vn -0.005200 -0.001300 1.000000
vn -0.004400 -0.000700 1.000000
vn -0.002200 -0.000100 1.000000
vn -0.002600 -0.000100 1.000000
vn 0.320400 0.105500 0.941400
vn 0.329600 0.072800 0.941300
vn 0.335500 0.043100 0.941000
vn 0.339400 0.023000 0.940400
vn 0.339600 0.008100 0.940500
vn 0.607900 0.199800 0.768500
vn 0.624800 0.138200 0.768400
vn 0.635100 0.081900 0.768000
vn 0.640100 0.043400 0.767100
vn 0.641100 0.015400 0.767300
vn 0.821600 0.269900 0.502000
vn 0.844400 0.187000 0.502000
vn 0.857900 0.110900 0.501700
vn 0.863500 0.058500 0.500900
vn 0.865100 0.020800 0.501100
vn 0.935500 0.307200 0.174400
vn 0.961400 0.212900 0.174400
vn 0.976500 0.126300 0.174300
vn 0.982500 0.066600 0.174000
vn 0.984400 0.023700 0.174000
vn 0.935500 0.307200 -0.174400
vn 0.961400 0.212900 -0.174400
vn 0.976500 0.126400 -0.174300
vn 0.982500 0.066500 -0.174000
vn 0.984400 0.023700 -0.174000
vn 0.821600 0.269900 -0.502000
vn 0.844400 0.186900 -0.502000
vn 0.857900 0.110900 -0.501700
vn 0.863500 0.058500 -0.500900
vn 0.865100 0.020800 -0.501000
s 1
f 36/1/1 2/2/2 25/3/3
f 6/4/4 8/5/5 79/6/6
f 8/5/5 10/7/7 85/8/8
f 10/7/7 12/7/9 91/8/10
f 12/7/9 14/5/11 97/6/12
f 14/5/11 16/4/13 103/9/14
f 16/4/13 18/10/15 109/11/16
f 18/10/15 20/2/17 115/3/18
f 20/2/17 22/1/19 121/12/20
f 22/1/19 24/13/21 127/14/22
f 24/13/21 26/15/23 133/16/24
f 26/15/23 28/17/25 139/18/26
f 28/17/25 30/17/27 145/18/28
f 30/17/27 32/15/29 151/16/30
f 32/15/29 34/13/31 157/14/32
f 34/13/31 36/1/1 1/12/33
f 34/13/31 18/10/15 10/7/7
f 38/19/34 35/20/35 13/21/36
f 4/10/37 6/4/4 73/9/38
f 2/2/2 4/10/37 23/11/39
f 40/22/40 39/23/41 37/24/42
f 42/25/43 41/26/44 39/23/41
f 44/27/45 43/28/46 41/26/44
f 46/29/47 45/30/48 43/28/46
f 48/31/49 47/32/50 45/30/48
f 50/33/51 49/34/52 47/32/50
f 50/33/51 52/35/53 51/36/54
f 52/35/53 54/37/55 53/38/56
f 54/37/55 56/39/57 55/40/58
f 56/39/57 58/41/59 57/42/60
f 58/41/59 60/43/61 59/44/62
f 60/43/61 62/45/63 61/46/64
f 62/45/63 64/47/65 63/48/66
f 66/49/67 65/50/68 63/48/66
f 68/51/69 67/52/70 65/50/68
f 70/53/71 69/54/72 67/52/70
f 72/55/73 71/56/74 69/54/72
f 38/57/34 37/24/42 71/56/74
f 57/58/60 59/59/62 39/60/41
f 33/61/75 15/62/76 13/63/36
f 31/2/77 17/10/78 15/11/76
f 29/64/79 19/65/80 17/66/78
f 27/67/81 21/68/82 19/69/80
f 25/70/3 23/71/39 21/72/82
f 40/73/40 13/21/36 78/74/83
f 15/62/76 77/75/84 78/76/83
f 17/10/78 76/4/85 77/9/84
f 19/65/80 75/77/86 76/78/85
f 21/68/82 74/79/87 75/80/86
f 23/71/39 73/81/38 74/82/87
f 70/83/71 162/84/88 11/85/89
f 161/86/90 9/87/91 11/88/89
f 161/14/90 160/13/92 7/1/93
f 160/89/92 159/90/94 5/91/95
f 159/92/94 158/93/96 3/94/97
f 157/95/32 1/96/33 3/97/97
f 156/98/98 162/84/88 70/83/71
f 155/99/99 161/86/90 162/100/88
f 154/15/100 160/13/92 161/14/90
f 153/101/101 159/90/94 160/89/92
f 152/102/102 158/93/96 159/92/94
f 151/103/30 157/95/32 158/104/96
f 150/105/103 156/98/98 68/106/69
f 149/107/104 155/99/99 156/108/98
f 148/17/105 154/15/100 155/16/99
f 147/109/106 153/101/101 154/110/100
f 146/111/107 152/102/102 153/112/101
f 145/113/28 151/103/30 152/114/102
f 144/105/108 150/105/103 66/115/67
f 143/107/109 149/107/104 150/116/103
f 142/17/110 148/17/105 149/18/104
f 141/109/111 147/109/106 148/117/105
f 140/111/112 146/111/107 147/118/106
f 139/113/26 145/113/28 146/119/107
f 138/98/113 144/105/108 64/115/65
f 137/99/114 143/107/109 144/116/108
f 136/15/115 142/17/110 143/18/109
f 135/101/116 141/109/111 142/117/110
f 134/102/117 140/111/112 141/118/111
f 133/103/24 139/113/26 140/119/112
f 132/84/118 138/98/113 62/106/63
f 131/86/119 137/99/114 138/108/113
f 130/13/120 136/15/115 137/16/114
f 129/90/121 135/101/116 136/110/115
f 128/93/122 134/102/117 135/112/116
f 127/95/22 133/103/24 134/114/117
f 126/85/123 132/84/118 60/83/61
f 125/87/124 131/86/119 132/100/118
f 124/1/125 130/13/120 131/14/119
f 123/91/126 129/90/121 130/89/120
f 122/94/127 128/93/122 129/92/121
f 121/96/20 127/95/22 128/104/122
f 120/20/128 126/85/123 58/120/59
f 119/61/129 125/87/124 126/88/123
f 118/2/130 124/1/125 125/12/124
f 117/64/131 123/91/126 124/121/125
f 116/67/132 122/94/127 123/122/126
f 115/70/18 121/96/20 122/97/127
f 114/21/133 120/20/128 56/19/57
f 113/62/134 119/61/129 120/123/128
f 112/10/135 118/2/130 119/3/129
f 111/65/136 117/64/131 118/124/130
f 110/68/137 116/67/132 117/125/131
f 109/71/16 115/70/18 116/126/132
f 108/74/138 114/21/133 54/73/55
f 107/75/139 113/62/134 114/63/133
f 106/4/140 112/10/135 113/11/134
f 105/77/141 111/65/136 112/66/135
f 104/79/142 110/68/137 111/69/136
f 103/81/14 109/71/16 110/72/137
f 102/127/143 108/74/138 52/128/53
f 101/129/144 107/75/139 108/76/138
f 100/5/145 106/4/140 107/9/139
f 99/130/146 105/77/141 106/78/140
f 98/131/147 104/79/142 105/80/141
f 97/132/12 103/81/14 104/82/142
f 96/133/148 102/127/143 50/134/51
f 95/135/149 101/129/144 102/136/143
f 94/7/150 100/5/145 101/6/144
f 93/137/151 99/130/146 100/138/145
f 92/139/152 98/131/147 99/140/146
f 91/141/10 97/132/12 98/142/147
f 90/133/153 96/133/148 48/143/49
f 89/135/154 95/135/149 96/144/148
f 88/7/155 94/7/150 95/8/149
f 87/137/156 93/137/151 94/145/150
f 86/139/157 92/139/152 93/146/151
f 85/141/8 91/141/10 92/147/152
f 44/134/45 84/127/158 90/133/153
f 83/129/159 89/135/154 90/144/153
f 82/5/160 88/7/155 89/8/154
f 81/130/161 87/137/156 88/145/155
f 80/131/162 86/139/157 87/146/156
f 79/132/6 85/141/8 86/147/157
f 42/128/43 78/74/83 84/127/158
f 77/75/84 83/129/159 84/136/158
f 76/4/85 82/5/160 83/6/159
f 75/77/86 81/130/161 82/138/160
f 74/79/87 80/131/162 81/140/161
f 73/81/38 79/132/6 80/142/162
f 72/120/73 11/85/89 35/20/35
f 9/87/91 33/61/75 35/123/35
f 7/1/93 31/2/77 33/3/75
f 5/91/95 29/64/79 31/124/77
f 3/94/97 27/67/81 29/125/79
f 1/96/33 25/70/3 27/126/81
f 1/12/33 36/1/1 25/3/3
f 73/9/38 6/4/4 79/6/6
f 79/6/6 8/5/5 85/8/8
f 85/8/8 10/7/7 91/8/10
f 91/8/10 12/7/9 97/6/12
f 97/6/12 14/5/11 103/9/14
f 103/9/14 16/4/13 109/11/16
f 109/11/16 18/10/15 115/3/18
f 115/3/18 20/2/17 121/12/20
f 121/12/20 22/1/19 127/14/22
f 127/14/22 24/13/21 133/16/24
f 133/16/24 26/15/23 139/18/26
f 139/18/26 28/17/25 145/18/28
f 145/18/28 30/17/27 151/16/30
f 151/16/30 32/15/29 157/14/32
f 157/14/32 34/13/31 1/12/33
f 6/4/4 4/10/37 2/2/2
f 2/2/2 36/1/1 34/13/31
f 34/13/31 32/15/29 26/15/23
f 30/17/27 28/17/25 26/15/23
f 26/15/23 24/13/21 22/1/19
f 22/1/19 20/2/17 18/10/15
f 18/10/15 16/4/13 10/7/7
f 14/5/11 12/7/9 10/7/7
f 10/7/7 8/5/5 6/4/4
f 6/4/4 2/2/2 10/7/7
f 32/15/29 30/17/27 26/15/23
f 26/15/23 22/1/19 18/10/15
f 16/4/13 14/5/11 10/7/7
f 10/7/7 2/2/2 34/13/31
f 34/13/31 26/15/23 18/10/15
f 40/73/40 38/19/34 13/21/36
f 23/11/39 4/10/37 73/9/38
f 25/3/3 2/2/2 23/11/39
f 38/57/34 40/22/40 37/24/42
f 40/22/40 42/25/43 39/23/41
f 42/25/43 44/27/45 41/26/44
f 44/27/45 46/29/47 43/28/46
f 46/29/47 48/31/49 45/30/48
f 48/31/49 50/33/51 47/32/50
f 49/34/52 50/33/51 51/36/54
f 51/36/54 52/35/53 53/38/56
f 53/38/56 54/37/55 55/40/58
f 55/40/58 56/39/57 57/42/60
f 57/42/60 58/41/59 59/44/62
f 59/44/62 60/43/61 61/46/64
f 61/46/64 62/45/63 63/48/66
f 64/47/65 66/49/67 63/48/66
f 66/49/67 68/51/69 65/50/68
f 68/51/69 70/53/71 67/52/70
f 70/53/71 72/55/73 69/54/72
f 72/55/73 38/57/34 71/56/74
f 71/148/74 37/149/42 67/150/70
f 39/60/41 41/151/44 57/58/60
f 43/152/46 45/153/48 47/154/50
f 47/154/50 49/155/52 55/156/58
f 51/157/54 53/158/56 49/155/52
f 55/156/58 41/151/44 47/154/50
f 59/59/62 61/159/64 65/160/68
f 63/161/66 65/160/68 61/159/64
f 67/150/70 69/162/72 71/148/74
f 37/149/42 39/60/41 59/59/62
f 43/152/46 47/154/50 41/151/44
f 53/158/56 55/156/58 49/155/52
f 59/59/62 65/160/68 67/150/70
f 67/150/70 37/149/42 59/59/62
f 55/156/58 57/58/60 41/151/44
f 35/123/35 33/61/75 13/63/36
f 33/3/75 31/2/77 15/11/76
f 31/124/77 29/64/79 17/66/78
f 29/125/79 27/67/81 19/69/80
f 27/126/81 25/70/3 21/72/82
f 42/128/43 40/73/40 78/74/83
f 13/63/36 15/62/76 78/76/83
f 15/11/76 17/10/78 77/9/84
f 17/66/78 19/65/80 76/78/85
f 19/69/80 21/68/82 75/80/86
f 21/72/82 23/71/39 74/82/87
f 72/120/73 70/83/71 11/85/89
f 162/100/88 161/86/90 11/88/89
f 9/12/91 161/14/90 7/1/93
f 7/121/93 160/89/92 5/91/95
f 5/122/95 159/92/94 3/94/97
f 158/104/96 157/95/32 3/97/97
f 68/106/69 156/98/98 70/83/71
f 156/108/98 155/99/99 162/100/88
f 155/16/99 154/15/100 161/14/90
f 154/110/100 153/101/101 160/89/92
f 153/112/101 152/102/102 159/92/94
f 152/114/102 151/103/30 158/104/96
f 66/115/67 150/105/103 68/106/69
f 150/116/103 149/107/104 156/108/98
f 149/18/104 148/17/105 155/16/99
f 148/117/105 147/109/106 154/110/100
f 147/118/106 146/111/107 153/112/101
f 146/119/107 145/113/28 152/114/102
f 64/115/65 144/105/108 66/115/67
f 144/116/108 143/107/109 150/116/103
f 143/18/109 142/17/110 149/18/104
f 142/117/110 141/109/111 148/117/105
f 141/118/111 140/111/112 147/118/106
f 140/119/112 139/113/26 146/119/107
f 62/106/63 138/98/113 64/115/65
f 138/108/113 137/99/114 144/116/108
f 137/16/114 136/15/115 143/18/109
f 136/110/115 135/101/116 142/117/110
f 135/112/116 134/102/117 141/118/111
f 134/114/117 133/103/24 140/119/112
f 60/83/61 132/84/118 62/106/63
f 132/100/118 131/86/119 138/108/113
f 131/14/119 130/13/120 137/16/114
f 130/89/120 129/90/121 136/110/115
f 129/92/121 128/93/122 135/112/116
f 128/104/122 127/95/22 134/114/117
f 58/120/59 126/85/123 60/83/61
f 126/88/123 125/87/124 132/100/118
f 125/12/124 124/1/125 131/14/119
f 124/121/125 123/91/126 130/89/120
f 123/122/126 122/94/127 129/92/121
f 122/97/127 121/96/20 128/104/122
f 56/19/57 120/20/128 58/120/59
f 120/123/128 119/61/129 126/88/123
f 119/3/129 118/2/130 125/12/124
f 118/124/130 117/64/131 124/121/125
f 117/125/131 116/67/132 123/122/126
f 116/126/132 115/70/18 122/97/127
f 54/73/55 114/21/133 56/19/57
f 114/63/133 113/62/134 120/123/128
f 113/11/134 112/10/135 119/3/129
f 112/66/135 111/65/136 118/124/130
f 111/69/136 110/68/137 117/125/131
f 110/72/137 109/71/16 116/126/132
f 52/128/53 108/74/138 54/73/55
f 108/76/138 107/75/139 114/63/133
f 107/9/139 106/4/140 113/11/134
f 106/78/140 105/77/141 112/66/135
f 105/80/141 104/79/142 111/69/136
f 104/82/142 103/81/14 110/72/137
f 50/134/51 102/127/143 52/128/53
f 102/136/143 101/129/144 108/76/138
f 101/6/144 100/5/145 107/9/139
f 100/138/145 99/130/146 106/78/140
f 99/140/146 98/131/147 105/80/141
f 98/142/147 97/132/12 104/82/142
f 48/143/49 96/133/148 50/134/51
f 96/144/148 95/135/149 102/136/143
f 95/8/149 94/7/150 101/6/144
f 94/145/150 93/137/151 100/138/145
f 93/146/151 92/139/152 99/140/146
f 92/147/152 91/141/10 98/142/147
f 46/143/47 90/133/153 48/143/49
f 90/144/153 89/135/154 96/144/148
f 89/8/154 88/7/155 95/8/149
f 88/145/155 87/137/156 94/145/150
f 87/146/156 86/139/157 93/146/151
f 86/147/157 85/141/8 92/147/152
f 46/143/47 44/134/45 90/133/153
f 84/136/158 83/129/159 90/144/153
f 83/6/159 82/5/160 89/8/154
f 82/138/160 81/130/161 88/145/155
f 81/140/161 80/131/162 87/146/156
f 80/142/162 79/132/6 86/147/157
f 44/134/45 42/128/43 84/127/158
f 78/76/83 77/75/84 84/136/158
f 77/9/84 76/4/85 83/6/159
f 76/78/85 75/77/86 82/138/160
f 75/80/86 74/79/87 81/140/161
f 74/82/87 73/81/38 80/142/162
f 38/19/34 72/120/73 35/20/35
f 11/88/89 9/87/91 35/123/35
f 9/12/91 7/1/93 33/3/75
f 7/121/93 5/91/95 31/124/77
f 5/122/95 3/94/97 29/125/79
f 3/97/97 1/96/33 27/126/81
