# Blender v2.76 (sub 0) OBJ File: 'sparkingwire.blend'
# www.blender.org
v -0.013366 -0.143807 -0.037588
v 0.000000 0.000077 -0.040000
v 0.001526 -0.285493 -0.037588
v 0.013681 0.000077 -0.037588
v 0.003180 -0.425143 -0.037588
v 0.025712 0.000077 -0.030642
v -0.005927 -0.567317 -0.037588
v 0.034641 0.000077 -0.020000
v -0.019081 -0.708731 -0.037588
v 0.039392 0.000077 -0.006946
v -0.045373 -0.845136 -0.037588
v 0.039392 0.000077 0.006946
v -0.019243 -0.853252 -0.037588
v 0.034641 0.000077 0.020000
v 0.008155 -0.711349 -0.037588
v 0.025712 0.000077 0.030642
v 0.021378 -0.569066 -0.037588
v 0.013681 0.000077 0.037588
v 0.030485 -0.426892 -0.037588
v 0.000000 0.000077 0.040000
v 0.028738 -0.282633 -0.037588
v -0.013681 0.000077 0.037588
v 0.013846 -0.140947 -0.037588
v -0.025711 0.000077 0.030642
v 0.000240 -0.142377 -0.040000
v -0.034641 0.000077 0.020000
v 0.015132 -0.284063 -0.040000
v -0.039392 0.000077 0.006946
v 0.016833 -0.426017 -0.040000
v -0.039392 0.000077 -0.006946
v 0.007725 -0.568192 -0.040000
v -0.034641 0.000077 -0.020000
v -0.005463 -0.710040 -0.040000
v -0.025712 0.000077 -0.030642
v -0.032308 -0.849194 -0.040000
v -0.013681 0.000077 -0.037588
v -0.072296 -0.977936 -0.034441
v -0.071747 -0.976169 -0.040000
v -0.062193 -0.985119 -0.032364
v -0.059899 -0.984144 -0.037588
v -0.053279 -0.991344 -0.026383
v -0.049376 -0.990825 -0.030642
v -0.046576 -0.995682 -0.017220
v -0.041377 -0.995174 -0.020000
v -0.042951 -0.997803 -0.005981
v -0.036948 -0.996933 -0.006946
v -0.042988 -0.997924 0.005981
v -0.036948 -0.996933 0.006946
v -0.046895 -0.996710 0.017220
v -0.041485 -0.995524 0.020000
v -0.054200 -0.994308 0.026383
v -0.050013 -0.992875 0.030642
v -0.063811 -0.990328 0.032364
v -0.061394 -0.988957 0.037588
v -0.074421 -0.984777 0.034441
v -0.073930 -0.983198 0.040000
v -0.084691 -0.978131 0.032364
v -0.086029 -0.976028 0.037588
v -0.093438 -0.971369 0.026383
v -0.096301 -0.968542 0.030642
v -0.099789 -0.965898 0.017220
v -0.103710 -0.962289 0.020000
v -0.103272 -0.963318 0.005981
v -0.107688 -0.959080 0.006946
v -0.103272 -0.963318 -0.005981
v -0.107688 -0.959080 -0.006946
v -0.099365 -0.964532 -0.017220
v -0.103151 -0.960489 -0.020000
v -0.092022 -0.966812 -0.026383
v -0.094623 -0.963138 -0.030642
v -0.082554 -0.971251 -0.032364
v -0.083693 -0.968507 -0.037588
v 0.025810 -0.139689 -0.030642
v 0.040703 -0.281375 -0.030642
v 0.042491 -0.427661 -0.030642
v 0.033384 -0.569835 -0.030642
v 0.020131 -0.712500 -0.030642
v -0.007753 -0.856821 -0.030642
v 0.034691 -0.138756 -0.020000
v 0.049583 -0.280442 -0.020000
v 0.051403 -0.428231 -0.020000
v 0.042296 -0.570406 -0.020000
v 0.029019 -0.713354 -0.020000
v 0.000774 -0.859470 -0.020000
v 0.039416 -0.138259 -0.006946
v 0.054308 -0.279945 -0.006946
v 0.056144 -0.428535 -0.006946
v 0.047037 -0.570710 -0.006946
v 0.033749 -0.713809 -0.006946
v 0.005312 -0.860879 -0.006946
v 0.039416 -0.138259 0.006946
v 0.054308 -0.279945 0.006946
v 0.056144 -0.428535 0.006946
v 0.047037 -0.570710 0.006946
v 0.033749 -0.713809 0.006946
v 0.005312 -0.860879 0.006946
v 0.034691 -0.138756 0.020000
v 0.049583 -0.280442 0.020000
v 0.051403 -0.428231 0.020000
v 0.042296 -0.570406 0.020000
v 0.029019 -0.713354 0.020000
v 0.000774 -0.859470 0.020000
v 0.025810 -0.139689 0.030642
v 0.040703 -0.281375 0.030642
v 0.042491 -0.427661 0.030642
v 0.033384 -0.569835 0.030642
v 0.020131 -0.712500 0.030642
v -0.007753 -0.856821 0.030642
v 0.013846 -0.140947 0.037588
v 0.028738 -0.282633 0.037588
v 0.030485 -0.426892 0.037588
v 0.021378 -0.569066 0.037588
v 0.008155 -0.711349 0.037588
v -0.019243 -0.853252 0.037588
v 0.000240 -0.142377 0.040000
v 0.015132 -0.284063 0.040000
v 0.016833 -0.426017 0.040000
v 0.007725 -0.568192 0.040000
v -0.005463 -0.710040 0.040000
v -0.032308 -0.849194 0.040000
v -0.013366 -0.143807 0.037588
v 0.001526 -0.285493 0.037588
v 0.003180 -0.425142 0.037588
v -0.005927 -0.567317 0.037588
v -0.019081 -0.708731 0.037588
v -0.045373 -0.845136 0.037588
v -0.025331 -0.145065 0.030642
v -0.010439 -0.286750 0.030642
v -0.008826 -0.424373 0.030642
v -0.017934 -0.566548 0.030642
v -0.031057 -0.707580 0.030642
v -0.056862 -0.841568 0.030642
v -0.034212 -0.145998 0.020000
v -0.019319 -0.287684 0.020000
v -0.017738 -0.423803 0.020000
v -0.026845 -0.565977 0.020000
v -0.039945 -0.706725 0.020000
v -0.065390 -0.838919 0.020000
v -0.038937 -0.146495 0.006946
v -0.024045 -0.288180 0.006946
v -0.022479 -0.423499 0.006946
v -0.031586 -0.565674 0.006946
v -0.044675 -0.706271 0.006946
v -0.069927 -0.837509 0.006946
v -0.038937 -0.146495 -0.006946
v -0.024045 -0.288180 -0.006946
v -0.022479 -0.423499 -0.006946
v -0.031586 -0.565674 -0.006946
v -0.044675 -0.706271 -0.006946
v -0.069927 -0.837509 -0.006946
v -0.034212 -0.145998 -0.020000
v -0.019319 -0.287684 -0.020000
v -0.017738 -0.423803 -0.020000
v -0.026845 -0.565977 -0.020000
v -0.039945 -0.706725 -0.020000
v -0.065390 -0.838919 -0.020000
v -0.025331 -0.145065 -0.030642
v -0.010439 -0.286750 -0.030642
v -0.008826 -0.424373 -0.030642
v -0.017934 -0.566548 -0.030642
v -0.031057 -0.707580 -0.030642
v -0.056862 -0.841568 -0.030642
vt 0.326351 0.000000
vt 0.326351 1.000000
vt 0.500000 1.000000
vt 0.500000 0.000000
vt 0.826352 0.000000
vt 0.826352 1.000000
vt 0.939692 1.000000
vt 0.939692 0.000000
vt 1.000000 1.000000
vt 1.000000 0.000000
vt 0.673648 1.000000
vt 0.673648 0.000000
vt 0.173648 1.000000
vt 0.173648 0.000000
vt 0.060308 1.000000
vt 0.060308 0.000000
vt 0.000000 1.000000
vt 0.000000 0.000000
vt 0.052137 0.000000
vt 0.052137 1.000000
vt 0.225785 1.000000
vt 0.225785 0.000000
vt 0.307276 0.490333
vt 0.308508 0.490224
vt 0.308337 0.489989
vt 0.307276 0.490082
vt 0.309592 0.489911
vt 0.309270 0.489719
vt 0.310396 0.489432
vt 0.309963 0.489307
vt 0.310824 0.488844
vt 0.310331 0.488800
vt 0.310824 0.488218
vt 0.310331 0.488262
vt 0.310396 0.487630
vt 0.309963 0.487755
vt 0.309592 0.487151
vt 0.309270 0.487343
vt 0.308508 0.486838
vt 0.308337 0.487073
vt 0.307276 0.486729
vt 0.307276 0.486980
vt 0.306044 0.486838
vt 0.306215 0.487073
vt 0.304960 0.487151
vt 0.305282 0.487343
vt 0.304156 0.487630
vt 0.304589 0.487755
vt 0.303728 0.488218
vt 0.304221 0.488262
vt 0.303728 0.488844
vt 0.304221 0.488800
vt 0.304156 0.489432
vt 0.304589 0.489307
vt 0.304960 0.489911
vt 0.305282 0.489719
vt 0.306044 0.490224
vt 0.306215 0.489989
vt 0.510290 0.538526
vt 0.520292 0.537644
vt 0.529087 0.535105
vt 0.535615 0.531215
vt 0.539088 0.526444
vt 0.539088 0.521366
vt 0.535615 0.516594
vt 0.529087 0.512704
vt 0.520292 0.510165
vt 0.510290 0.509284
vt 0.500289 0.510165
vt 0.491494 0.512704
vt 0.484966 0.516594
vt 0.481493 0.521366
vt 0.481493 0.526444
vt 0.484966 0.531215
vt 0.491494 0.535105
vt 0.500289 0.537644
vt 0.687019 0.000000
vt 0.687019 1.000000
vt 0.860668 1.000000
vt 0.860668 0.000000
vt 1.006921 0.000000
vt 1.006921 1.000000
vt 1.180569 1.000000
vt 1.180569 0.000000
vt 0.150568 0.000000
vt 0.150568 1.000000
vt 0.324217 1.000000
vt 0.324217 0.000000
vt 0.824823 0.000000
vt 0.824823 1.000000
vt 0.998471 1.000000
vt 0.998471 0.000000
vt 0.378489 1.000000
vt 0.378489 0.000000
vt 1.013371 1.000000
vt 1.013371 0.000000
vt 1.333273 1.000000
vt 1.333273 0.000000
vt 0.476920 1.000000
vt 0.476920 0.000000
vt 1.151175 1.000000
vt 1.151175 0.000000
vt -0.274215 0.000000
vt -0.274215 1.000000
vt -0.121511 1.000000
vt -0.121511 0.000000
vt 0.360667 0.000000
vt 0.360667 1.000000
vt 0.513371 1.000000
vt 0.513371 0.000000
vt 0.680569 0.000000
vt 0.680569 1.000000
vt 0.833272 1.000000
vt 0.833272 0.000000
vt -0.175784 0.000000
vt -0.175784 1.000000
vt -0.023080 1.000000
vt -0.023080 0.000000
vt 0.498471 0.000000
vt 0.498471 1.000000
vt 0.651174 1.000000
vt 0.651174 0.000000
vt -0.387557 0.000000
vt -0.387557 1.000000
vt 0.247326 0.000000
vt 0.247326 1.000000
vt 0.567228 0.000000
vt 0.567228 1.000000
vt -0.289124 0.000000
vt -0.289124 1.000000
vt 0.385130 0.000000
vt 0.385130 1.000000
vt -0.447863 0.000000
vt -0.447863 1.000000
vt 0.187020 0.000000
vt 0.187020 1.000000
vt 0.506921 0.000000
vt 0.506921 1.000000
vt -0.349431 0.000000
vt -0.349431 1.000000
vt 0.324823 0.000000
vt 0.324823 1.000000
vt 0.491829 0.000000
vt 0.491829 1.000000
vt 1.126711 0.000000
vt 1.126711 1.000000
vt 1.446613 0.000000
vt 1.446613 1.000000
vt 0.590260 0.000000
vt 0.590260 1.000000
vt 1.264515 0.000000
vt 1.264515 1.000000
vt 0.552137 0.000000
vt 0.552137 1.000000
vt 1.187020 0.000000
vt 1.187020 1.000000
vt 1.506921 0.000000
vt 1.506921 1.000000
vt 0.650569 0.000000
vt 0.650569 1.000000
vt 1.324823 0.000000
vt 1.324823 1.000000
vn -0.346500 -0.018300 -0.937800
vn -0.254700 0.669800 -0.697500
vn -0.000100 0.670000 -0.742300
vn -0.005700 -0.000000 -1.000000
vn 0.638500 0.033700 -0.768900
vn 0.477700 0.670200 -0.567900
vn 0.643200 0.670100 -0.370400
vn 0.863400 0.045200 -0.502500
vn 0.731000 0.670100 -0.128600
vn 0.983300 0.051300 -0.174600
vn 0.731000 0.670100 0.128600
vn 0.983300 0.051300 0.174600
vn 0.643200 0.670100 0.370400
vn 0.863400 0.045200 0.502500
vn 0.477700 0.670200 0.567900
vn 0.638500 0.033700 0.768900
vn 0.254300 0.670200 0.697300
vn 0.336400 0.018000 0.941500
vn -0.000100 0.670000 0.742300
vn -0.005700 -0.000000 1.000000
vn -0.254700 0.669800 0.697500
vn -0.346500 -0.018300 0.937800
vn -0.478300 0.669400 0.568400
vn -0.645100 -0.034600 0.763300
vn -0.644100 0.669100 0.370800
vn -0.866100 -0.046800 0.497600
vn -0.732100 0.668900 0.128700
vn -0.983500 -0.053300 0.172700
vn -0.732100 0.668900 -0.128700
vn -0.983500 -0.053300 -0.172700
vn -0.644100 0.669100 -0.370800
vn -0.866100 -0.046800 -0.497600
vn -0.478300 0.669400 -0.568400
vn -0.645100 -0.034600 -0.763300
vn 0.254300 0.670200 -0.697300
vn -0.290200 -0.469800 -0.833700
vn 0.006000 -0.001200 -1.000000
vn 0.337300 -0.084400 -0.937600
vn -0.023600 -0.579100 -0.814900
vn 0.336400 0.018000 -0.941500
vn -0.457800 -0.858500 -0.231000
vn -0.518400 -0.828300 -0.212600
vn 0.257300 -0.677400 -0.689100
vn -0.362200 -0.904200 -0.226400
vn 0.499000 -0.736700 -0.456300
vn -0.254000 -0.950700 -0.177600
vn 0.645300 -0.747100 -0.159200
vn -0.176100 -0.980100 -0.091300
vn 0.661500 -0.734900 0.149000
vn -0.155300 -0.987800 0.004400
vn 0.563200 -0.704400 0.432100
vn -0.184900 -0.978600 0.089600
vn 0.360400 -0.658600 0.660600
vn -0.259500 -0.954200 0.148700
vn 0.063600 -0.601500 0.796300
vn -0.371800 -0.914100 0.161400
vn -0.265500 -0.515000 0.815000
vn -0.483800 -0.866400 0.123500
vn -0.557100 -0.413300 0.720200
vn -0.558800 -0.827100 0.059600
vn -0.771100 -0.320400 0.550100
vn -0.593200 -0.805000 0.002600
vn -0.902900 -0.246400 0.352200
vn -0.603800 -0.796900 -0.019300
vn -0.969500 -0.211600 0.123500
vn -0.609600 -0.792200 -0.027300
vn -0.961900 -0.228600 -0.150000
vn -0.605900 -0.791500 -0.079800
vn -0.863900 -0.259100 -0.431900
vn -0.578100 -0.800100 -0.159900
vn -0.700900 -0.295000 -0.649400
vn -0.548800 -0.811100 -0.202200
vn -0.510400 -0.368300 -0.777000
vn -0.539600 -0.816800 -0.203900
vn 0.005300 -0.001000 -1.000000
vn 0.343700 -0.049300 -0.937800
vn 0.001600 -0.000100 -1.000000
vn 0.342400 -0.026900 -0.939200
vn 0.004200 0.000000 -1.000000
vn 0.345900 -0.008800 -0.938200
vn 0.005100 0.000100 -1.000000
vn 0.346100 0.020000 -0.938000
vn 0.627300 -0.157400 -0.762700
vn 0.640000 -0.091400 -0.762900
vn 0.641700 -0.050400 -0.765300
vn 0.645400 -0.016600 -0.763600
vn 0.644900 0.037700 -0.763300
vn -0.620300 0.155600 -0.768700
vn -0.326700 0.082200 -0.941500
vn -0.633700 0.090300 -0.768200
vn -0.334300 0.047500 -0.941300
vn -0.639900 0.050200 -0.766800
vn -0.339500 0.026600 -0.940200
vn -0.640500 0.016700 -0.767800
vn -0.338500 0.008900 -0.940900
vn -0.638900 -0.037200 -0.768400
vn -0.337100 -0.019800 -0.941300
vn -0.838800 0.210100 -0.502200
vn -0.856300 0.122100 -0.501800
vn -0.862900 0.067800 -0.500700
vn -0.864900 0.022500 -0.501400
vn -0.863400 -0.050100 -0.502000
vn -0.955200 0.239100 -0.174500
vn -0.974800 0.139000 -0.174300
vn -0.981700 0.077100 -0.173900
vn -0.984400 0.025600 -0.174200
vn -0.983000 -0.057000 -0.174400
vn -0.955200 0.239100 0.174500
vn -0.974800 0.139000 0.174300
vn -0.981700 0.077100 0.173900
vn -0.984400 0.025600 0.174200
vn -0.983000 -0.057000 0.174400
vn -0.838800 0.210100 0.502200
vn -0.856300 0.122100 0.501800
vn -0.862900 0.067800 0.500700
vn -0.864900 0.022500 0.501400
vn -0.863400 -0.050100 0.502000
vn -0.620300 0.155600 0.768700
vn -0.633700 0.090300 0.768200
vn -0.639900 0.050200 0.766800
vn -0.640500 0.016700 0.767800
vn -0.638900 -0.037200 0.768400
vn -0.326700 0.082200 0.941500
vn -0.334300 0.047500 0.941300
vn -0.339500 0.026600 0.940200
vn -0.338500 0.008900 0.940900
vn -0.337100 -0.019800 0.941300
vn 0.006000 -0.001200 1.000000
vn 0.005300 -0.001000 1.000000
vn 0.001600 -0.000100 1.000000
vn 0.004200 0.000000 1.000000
vn 0.005100 0.000100 1.000000
vn 0.337300 -0.084400 0.937600
vn 0.343700 -0.049300 0.937800
vn 0.342400 -0.026900 0.939200
vn 0.345900 -0.008800 0.938200
vn 0.346100 0.020000 0.938000
vn 0.627300 -0.157400 0.762700
vn 0.640000 -0.091400 0.762900
vn 0.641700 -0.050400 0.765300
vn 0.645400 -0.016600 0.763600
vn 0.644900 0.037700 0.763300
vn 0.841600 -0.211500 0.497000
vn 0.859000 -0.122500 0.497100
vn 0.863800 -0.067800 0.499300
vn 0.867000 -0.022500 0.497800
vn 0.865900 0.050800 0.497500
vn 0.955300 -0.240200 0.172400
vn 0.975200 -0.139000 0.172500
vn 0.981800 -0.077000 0.173400
vn 0.984600 -0.025500 0.172800
vn 0.983300 0.057800 0.172600
vn 0.955300 -0.240200 -0.172400
vn 0.975200 -0.139000 -0.172500
vn 0.981800 -0.077000 -0.173400
vn 0.984600 -0.025500 -0.172800
vn 0.983300 0.057800 -0.172600
vn 0.841600 -0.211500 -0.497000
vn 0.859000 -0.122500 -0.497100
vn 0.863800 -0.067800 -0.499300
vn 0.867000 -0.022500 -0.497800
vn 0.865900 0.050800 -0.497500
s 1
f 1/1/1 36/2/2 2/3/3 25/4/4
f 73/5/5 6/6/6 8/7/7 79/8/8
f 79/8/8 8/7/7 10/9/9 85/10/10
f 85/10/10 10/9/9 12/9/11 91/10/12
f 91/10/12 12/9/11 14/7/13 97/8/14
f 97/8/14 14/7/13 16/6/15 103/5/16
f 103/5/16 16/6/15 18/11/17 109/12/18
f 109/12/18 18/11/17 20/3/19 115/4/20
f 115/4/20 20/3/19 22/2/21 121/1/22
f 121/1/22 22/2/21 24/13/23 127/14/24
f 127/14/24 24/13/23 26/15/25 133/16/26
f 133/16/26 26/15/25 28/17/27 139/18/28
f 139/18/28 28/17/27 30/17/29 145/18/30
f 145/18/30 30/17/29 32/15/31 151/16/32
f 151/16/32 32/15/31 34/13/33 157/14/34
f 157/14/34 34/13/33 36/2/2 1/1/1
f 4/11/35 2/3/3 36/2/2 34/13/33 32/15/31 30/17/29 28/17/27 26/15/25 24/13/23 22/2/21 20/3/19 18/11/17 16/6/15 14/7/13 12/9/11 10/9/9 8/7/7 6/6/6
f 38/19/36 35/20/37 13/21/38 40/22/39
f 23/12/40 4/11/35 6/6/6 73/5/5
f 25/4/4 2/3/3 4/11/35 23/12/40
f 38/23/36 40/24/39 39/25/41 37/26/42
f 40/24/39 42/27/43 41/28/44 39/25/41
f 42/27/43 44/29/45 43/30/46 41/28/44
f 44/29/45 46/31/47 45/32/48 43/30/46
f 46/31/47 48/33/49 47/34/50 45/32/48
f 48/33/49 50/35/51 49/36/52 47/34/50
f 50/35/51 52/37/53 51/38/54 49/36/52
f 52/37/53 54/39/55 53/40/56 51/38/54
f 54/39/55 56/41/57 55/42/58 53/40/56
f 56/41/57 58/43/59 57/44/60 55/42/58
f 58/43/59 60/45/61 59/46/62 57/44/60
f 60/45/61 62/47/63 61/48/64 59/46/62
f 62/47/63 64/49/65 63/50/66 61/48/64
f 64/49/65 66/51/67 65/52/68 63/50/66
f 66/51/67 68/53/69 67/54/70 65/52/68
f 68/53/69 70/55/71 69/56/72 67/54/70
f 70/55/71 72/57/73 71/58/74 69/56/72
f 72/57/73 38/23/36 37/26/42 71/58/74
f 37/59/42 39/60/41 41/61/44 43/62/46 45/63/48 47/64/50 49/65/52 51/66/54 53/67/56 55/68/58 57/69/60 59/70/62 61/71/64 63/72/66 65/73/68 67/74/70 69/75/72 71/76/74
f 35/77/37 33/78/75 15/79/76 13/80/38
f 33/4/75 31/3/77 17/11/78 15/12/76
f 31/81/77 29/82/79 19/83/80 17/84/78
f 29/85/79 27/86/81 21/87/82 19/88/80
f 27/89/81 25/90/4 23/91/40 21/92/82
f 40/22/39 13/21/38 78/93/83 42/94/43
f 13/80/38 15/79/76 77/95/84 78/96/83
f 15/12/76 17/11/78 76/6/85 77/5/84
f 17/84/78 19/83/80 75/97/86 76/98/85
f 19/88/80 21/87/82 74/99/87 75/100/86
f 21/92/82 23/91/40 73/101/5 74/102/87
f 70/103/71 162/104/88 11/105/89 72/106/73
f 162/107/88 161/108/90 9/109/91 11/110/89
f 161/14/90 160/13/92 7/2/93 9/1/91
f 160/111/92 159/112/94 5/113/95 7/114/93
f 159/115/94 158/116/96 3/117/97 5/118/95
f 158/119/96 157/120/34 1/121/1 3/122/97
f 68/123/69 156/124/98 162/104/88 70/103/71
f 156/125/98 155/126/99 161/108/90 162/107/88
f 155/16/99 154/15/100 160/13/92 161/14/90
f 154/127/100 153/128/101 159/112/94 160/111/92
f 153/129/101 152/130/102 158/116/96 159/115/94
f 152/131/102 151/132/32 157/120/34 158/119/96
f 66/133/67 150/134/103 156/124/98 68/123/69
f 150/135/103 149/136/104 155/126/99 156/125/98
f 149/18/104 148/17/105 154/15/100 155/16/99
f 148/137/105 147/138/106 153/128/101 154/127/100
f 147/139/106 146/140/107 152/130/102 153/129/101
f 146/141/107 145/142/30 151/132/32 152/131/102
f 64/133/65 144/134/108 150/134/103 66/133/67
f 144/135/108 143/136/109 149/136/104 150/135/103
f 143/18/109 142/17/110 148/17/105 149/18/104
f 142/137/110 141/138/111 147/138/106 148/137/105
f 141/139/111 140/140/112 146/140/107 147/139/106
f 140/141/112 139/142/28 145/142/30 146/141/107
f 62/123/63 138/124/113 144/134/108 64/133/65
f 138/125/113 137/126/114 143/136/109 144/135/108
f 137/16/114 136/15/115 142/17/110 143/18/109
f 136/127/115 135/128/116 141/138/111 142/137/110
f 135/129/116 134/130/117 140/140/112 141/139/111
f 134/131/117 133/132/26 139/142/28 140/141/112
f 60/103/61 132/104/118 138/124/113 62/123/63
f 132/107/118 131/108/119 137/126/114 138/125/113
f 131/14/119 130/13/120 136/15/115 137/16/114
f 130/111/120 129/112/121 135/128/116 136/127/115
f 129/115/121 128/116/122 134/130/117 135/129/116
f 128/119/122 127/120/24 133/132/26 134/131/117
f 58/106/59 126/105/123 132/104/118 60/103/61
f 126/110/123 125/109/124 131/108/119 132/107/118
f 125/1/124 124/2/125 130/13/120 131/14/119
f 124/114/125 123/113/126 129/112/121 130/111/120
f 123/118/126 122/117/127 128/116/122 129/115/121
f 122/122/127 121/121/22 127/120/24 128/119/122
f 56/19/57 120/20/128 126/105/123 58/106/59
f 120/77/128 119/78/129 125/109/124 126/110/123
f 119/4/129 118/3/130 124/2/125 125/1/124
f 118/81/130 117/82/131 123/113/126 124/114/125
f 117/85/131 116/86/132 122/117/127 123/118/126
f 116/89/132 115/90/20 121/121/22 122/122/127
f 54/22/55 114/21/133 120/20/128 56/19/57
f 114/80/133 113/79/134 119/78/129 120/77/128
f 113/12/134 112/11/135 118/3/130 119/4/129
f 112/84/135 111/83/136 117/82/131 118/81/130
f 111/88/136 110/87/137 116/86/132 117/85/131
f 110/92/137 109/91/18 115/90/20 116/89/132
f 52/94/53 108/93/138 114/21/133 54/22/55
f 108/96/138 107/95/139 113/79/134 114/80/133
f 107/5/139 106/6/140 112/11/135 113/12/134
f 106/98/140 105/97/141 111/83/136 112/84/135
f 105/100/141 104/99/142 110/87/137 111/88/136
f 104/102/142 103/101/16 109/91/18 110/92/137
f 50/143/51 102/144/143 108/93/138 52/94/53
f 102/145/143 101/146/144 107/95/139 108/96/138
f 101/8/144 100/7/145 106/6/140 107/5/139
f 100/147/145 99/148/146 105/97/141 106/98/140
f 99/149/146 98/150/147 104/99/142 105/100/141
f 98/151/147 97/152/14 103/101/16 104/102/142
f 48/153/49 96/154/148 102/144/143 50/143/51
f 96/155/148 95/156/149 101/146/144 102/145/143
f 95/10/149 94/9/150 100/7/145 101/8/144
f 94/157/150 93/158/151 99/148/146 100/147/145
f 93/159/151 92/160/152 98/150/147 99/149/146
f 92/161/152 91/162/12 97/152/14 98/151/147
f 46/153/47 90/154/153 96/154/148 48/153/49
f 90/155/153 89/156/154 95/156/149 96/155/148
f 89/10/154 88/9/155 94/9/150 95/10/149
f 88/157/155 87/158/156 93/158/151 94/157/150
f 87/159/156 86/160/157 92/160/152 93/159/151
f 86/161/157 85/162/10 91/162/12 92/161/152
f 44/143/45 84/144/158 90/154/153 46/153/47
f 84/145/158 83/146/159 89/156/154 90/155/153
f 83/8/159 82/7/160 88/9/155 89/10/154
f 82/147/160 81/148/161 87/158/156 88/157/155
f 81/149/161 80/150/162 86/160/157 87/159/156
f 80/151/162 79/152/8 85/162/10 86/161/157
f 42/94/43 78/93/83 84/144/158 44/143/45
f 78/96/83 77/95/84 83/146/159 84/145/158
f 77/5/84 76/6/85 82/7/160 83/8/159
f 76/98/85 75/97/86 81/148/161 82/147/160
f 75/100/86 74/99/87 80/150/162 81/149/161
f 74/102/87 73/101/5 79/152/8 80/151/162
f 72/106/73 11/105/89 35/20/37 38/19/36
f 11/110/89 9/109/91 33/78/75 35/77/37
f 9/1/91 7/2/93 31/3/77 33/4/75
f 7/114/93 5/113/95 29/82/79 31/81/77
f 5/118/95 3/117/97 27/86/81 29/85/79
f 3/122/97 1/121/1 25/90/4 27/89/81
