# Blender v2.76 (sub 0) OBJ File: 'sparkingwire.blend'
# www.blender.org
v -0.013188 -0.144397 -0.037588
v 0.000000 0.000077 -0.040000
v 0.007980 -0.285282 -0.037588
v 0.013681 0.000077 -0.037588
v 0.012591 -0.424018 -0.037588
v 0.025712 0.000077 -0.030642
v 0.003867 -0.566217 -0.037588
v 0.034641 0.000077 -0.020000
v -0.010881 -0.707250 -0.037588
v 0.039392 0.000077 -0.006946
v -0.042304 -0.841244 -0.037588
v 0.039392 0.000077 0.006946
v -0.016823 -0.851213 -0.037588
v 0.034641 0.000077 0.020000
v 0.016319 -0.710220 -0.037588
v 0.025712 0.000077 0.030642
v 0.031177 -0.567892 -0.037588
v 0.013681 0.000077 0.037588
v 0.039901 -0.425693 -0.037588
v 0.000000 0.000077 0.040000
v 0.035038 -0.281216 -0.037588
v -0.013681 0.000077 0.037588
v 0.013870 -0.140331 -0.037588
v -0.025711 0.000077 0.030642
v 0.000341 -0.142364 -0.040000
v -0.034641 0.000077 0.020000
v 0.021509 -0.283249 -0.040000
v -0.039392 0.000077 0.006946
v 0.026246 -0.424856 -0.040000
v -0.039392 0.000077 -0.006946
v 0.017522 -0.567055 -0.040000
v -0.034641 0.000077 -0.020000
v 0.002719 -0.708735 -0.040000
v -0.025712 0.000077 -0.030642
v -0.029564 -0.846229 -0.040000
v -0.013681 0.000077 -0.037588
v -0.078679 -0.971772 -0.034441
v -0.078004 -0.970049 -0.040000
v -0.069116 -0.979661 -0.032364
v -0.066758 -0.978853 -0.037588
v -0.060672 -0.986509 -0.026383
v -0.056742 -0.986271 -0.030642
v -0.054297 -0.991316 -0.017220
v -0.049075 -0.991183 -0.020000
v -0.050833 -0.993692 -0.005981
v -0.044783 -0.993255 -0.006946
v -0.050879 -0.993810 0.005981
v -0.044783 -0.993255 0.006946
v -0.054689 -0.992319 0.017220
v -0.049208 -0.991524 0.020000
v -0.061803 -0.989400 0.026383
v -0.057524 -0.988271 0.030642
v -0.071103 -0.984741 0.032364
v -0.068594 -0.983547 0.037588
v -0.081288 -0.978444 0.034441
v -0.080686 -0.976904 0.040000
v -0.091056 -0.971078 0.032364
v -0.092239 -0.968885 0.037588
v -0.099295 -0.963707 0.026383
v -0.101949 -0.960682 0.030642
v -0.105238 -0.957795 0.017220
v -0.108890 -0.953914 0.020000
v -0.108527 -0.954972 0.005981
v -0.112628 -0.950428 0.006946
v -0.108527 -0.954972 -0.005981
v -0.112628 -0.950428 -0.006946
v -0.104717 -0.956462 -0.017220
v -0.108203 -0.952159 -0.020000
v -0.097557 -0.959263 -0.026383
v -0.099887 -0.955412 -0.030642
v -0.088431 -0.964370 -0.032364
v -0.089370 -0.961551 -0.037588
v 0.025767 -0.138544 -0.030642
v 0.046935 -0.279428 -0.030642
v 0.051910 -0.426430 -0.030642
v 0.043185 -0.568629 -0.030642
v 0.028278 -0.711526 -0.030642
v -0.005620 -0.855596 -0.030642
v 0.034597 -0.137217 -0.020000
v 0.055766 -0.278102 -0.020000
v 0.060822 -0.426977 -0.020000
v 0.052098 -0.569176 -0.020000
v 0.037155 -0.712495 -0.020000
v 0.002696 -0.858849 -0.020000
v 0.039296 -0.136511 -0.006946
v 0.060464 -0.277396 -0.006946
v 0.065565 -0.427268 -0.006946
v 0.056840 -0.569467 -0.006946
v 0.041878 -0.713011 -0.006946
v 0.007121 -0.860580 -0.006946
v 0.039296 -0.136511 0.006946
v 0.060464 -0.277396 0.006946
v 0.065565 -0.427268 0.006946
v 0.056840 -0.569467 0.006946
v 0.041878 -0.713011 0.006946
v 0.007121 -0.860580 0.006946
v 0.034597 -0.137217 0.020000
v 0.055766 -0.278102 0.020000
v 0.060822 -0.426977 0.020000
v 0.052098 -0.569176 0.020000
v 0.037155 -0.712495 0.020000
v 0.002696 -0.858849 0.020000
v 0.025767 -0.138544 0.030642
v 0.046935 -0.279428 0.030642
v 0.051910 -0.426430 0.030642
v 0.043185 -0.568629 0.030642
v 0.028278 -0.711526 0.030642
v -0.005620 -0.855596 0.030642
v 0.013870 -0.140331 0.037588
v 0.035038 -0.281216 0.037588
v 0.039901 -0.425693 0.037588
v 0.031177 -0.567892 0.037588
v 0.016319 -0.710220 0.037588
v -0.016823 -0.851213 0.037588
v 0.000341 -0.142364 0.040000
v 0.021509 -0.283249 0.040000
v 0.026246 -0.424856 0.040000
v 0.017522 -0.567054 0.040000
v 0.002719 -0.708735 0.040000
v -0.029564 -0.846229 0.040000
v -0.013188 -0.144397 0.037588
v 0.007980 -0.285282 0.037588
v 0.012591 -0.424018 0.037588
v 0.003867 -0.566217 0.037588
v -0.010881 -0.707250 0.037588
v -0.042304 -0.841244 0.037588
v -0.025085 -0.146184 0.030642
v -0.003917 -0.287069 0.030642
v 0.000583 -0.423281 0.030642
v -0.008141 -0.565480 0.030642
v -0.022841 -0.705944 0.030642
v -0.053508 -0.836861 0.030642
v -0.033916 -0.147511 0.020000
v -0.012747 -0.288396 0.020000
v -0.008330 -0.422734 0.020000
v -0.017054 -0.564933 0.020000
v -0.031718 -0.704975 0.020000
v -0.061824 -0.833608 0.020000
v -0.038614 -0.148217 0.006946
v -0.017446 -0.289102 0.006946
v -0.013072 -0.422443 0.006946
v -0.021796 -0.564642 0.006946
v -0.036441 -0.704459 0.006946
v -0.066249 -0.831877 0.006946
v -0.038614 -0.148217 -0.006946
v -0.017446 -0.289102 -0.006946
v -0.013072 -0.422443 -0.006946
v -0.021796 -0.564642 -0.006946
v -0.036441 -0.704459 -0.006946
v -0.066249 -0.831877 -0.006946
v -0.033916 -0.147511 -0.020000
v -0.012747 -0.288396 -0.020000
v -0.008330 -0.422734 -0.020000
v -0.017054 -0.564933 -0.020000
v -0.031718 -0.704975 -0.020000
v -0.061824 -0.833608 -0.020000
v -0.025085 -0.146184 -0.030642
v -0.003917 -0.287069 -0.030642
v 0.000583 -0.423281 -0.030642
v -0.008141 -0.565480 -0.030642
v -0.022841 -0.705944 -0.030642
v -0.053508 -0.836861 -0.030642
vt 0.326351 0.000000
vt 0.326351 1.000000
vt 0.500000 1.000000
vt 0.500000 0.000000
vt 0.826352 0.000000
vt 0.826352 1.000000
vt 0.939692 1.000000
vt 0.939692 0.000000
vt 1.000000 1.000000
vt 1.000000 0.000000
vt 0.673648 1.000000
vt 0.673648 0.000000
vt 0.173648 1.000000
vt 0.173648 0.000000
vt 0.060308 1.000000
vt 0.060308 0.000000
vt 0.000000 1.000000
vt 0.000000 0.000000
vt 0.052137 0.000000
vt 0.052137 1.000000
vt 0.225785 1.000000
vt 0.225785 0.000000
vt 0.307276 0.490333
vt 0.308508 0.490224
vt 0.308337 0.489989
vt 0.307276 0.490082
vt 0.309592 0.489911
vt 0.309270 0.489719
vt 0.310396 0.489432
vt 0.309963 0.489307
vt 0.310824 0.488844
vt 0.310331 0.488800
vt 0.310824 0.488218
vt 0.310331 0.488262
vt 0.310396 0.487630
vt 0.309963 0.487755
vt 0.309592 0.487151
vt 0.309270 0.487343
vt 0.308508 0.486838
vt 0.308337 0.487073
vt 0.307276 0.486729
vt 0.307276 0.486980
vt 0.306044 0.486838
vt 0.306215 0.487073
vt 0.304960 0.487151
vt 0.305282 0.487343
vt 0.304156 0.487630
vt 0.304589 0.487755
vt 0.303728 0.488218
vt 0.304221 0.488262
vt 0.303728 0.488844
vt 0.304221 0.488800
vt 0.304156 0.489432
vt 0.304589 0.489307
vt 0.304960 0.489911
vt 0.305282 0.489719
vt 0.306044 0.490224
vt 0.306215 0.489989
vt 0.510290 0.538526
vt 0.520292 0.537644
vt 0.529087 0.535105
vt 0.535615 0.531215
vt 0.539088 0.526444
vt 0.539088 0.521366
vt 0.535615 0.516594
vt 0.529087 0.512704
vt 0.520292 0.510165
vt 0.510290 0.509284
vt 0.500289 0.510165
vt 0.491494 0.512704
vt 0.484966 0.516594
vt 0.481493 0.521366
vt 0.481493 0.526444
vt 0.484966 0.531215
vt 0.491494 0.535105
vt 0.500289 0.537644
vt 0.687019 0.000000
vt 0.687019 1.000000
vt 0.860668 1.000000
vt 0.860668 0.000000
vt 1.006921 0.000000
vt 1.006921 1.000000
vt 1.180569 1.000000
vt 1.180569 0.000000
vt 0.150568 0.000000
vt 0.150568 1.000000
vt 0.324217 1.000000
vt 0.324217 0.000000
vt 0.824823 0.000000
vt 0.824823 1.000000
vt 0.998471 1.000000
vt 0.998471 0.000000
vt 0.378489 1.000000
vt 0.378489 0.000000
vt 1.013371 1.000000
vt 1.013371 0.000000
vt 1.333273 1.000000
vt 1.333273 0.000000
vt 0.476920 1.000000
vt 0.476920 0.000000
vt 1.151175 1.000000
vt 1.151175 0.000000
vt -0.274215 0.000000
vt -0.274215 1.000000
vt -0.121511 1.000000
vt -0.121511 0.000000
vt 0.360667 0.000000
vt 0.360667 1.000000
vt 0.513371 1.000000
vt 0.513371 0.000000
vt 0.680569 0.000000
vt 0.680569 1.000000
vt 0.833272 1.000000
vt 0.833272 0.000000
vt -0.175784 0.000000
vt -0.175784 1.000000
vt -0.023080 1.000000
vt -0.023080 0.000000
vt 0.498471 0.000000
vt 0.498471 1.000000
vt 0.651174 1.000000
vt 0.651174 0.000000
vt -0.387557 0.000000
vt -0.387557 1.000000
vt 0.247326 0.000000
vt 0.247326 1.000000
vt 0.567228 0.000000
vt 0.567228 1.000000
vt -0.289124 0.000000
vt -0.289124 1.000000
vt 0.385130 0.000000
vt 0.385130 1.000000
vt -0.447863 0.000000
vt -0.447863 1.000000
vt 0.187020 0.000000
vt 0.187020 1.000000
vt 0.506921 0.000000
vt 0.506921 1.000000
vt -0.349431 0.000000
vt -0.349431 1.000000
vt 0.324823 0.000000
vt 0.324823 1.000000
vt 0.491829 0.000000
vt 0.491829 1.000000
vt 1.126711 0.000000
vt 1.126711 1.000000
vt 1.446613 0.000000
vt 1.446613 1.000000
vt 0.590260 0.000000
vt 0.590260 1.000000
vt 1.264515 0.000000
vt 1.264515 1.000000
vt 0.552137 0.000000
vt 0.552137 1.000000
vt 1.187020 0.000000
vt 1.187020 1.000000
vt 1.506921 0.000000
vt 1.506921 1.000000
vt 0.650569 0.000000
vt 0.650569 1.000000
vt 1.324823 0.000000
vt 1.324823 1.000000
vn -0.348100 -0.026100 -0.937100
vn -0.255400 0.669600 -0.697400
vn -0.000200 0.670000 -0.742300
vn -0.008100 -0.000100 -0.999900
vn 0.636100 0.047700 -0.770100
vn 0.478500 0.670100 -0.567400
vn 0.643800 0.669900 -0.369700
vn 0.861600 0.063900 -0.503600
vn 0.731400 0.669700 -0.128300
vn 0.981900 0.072500 -0.175100
vn 0.731400 0.669700 0.128300
vn 0.981900 0.072500 0.175100
vn 0.643800 0.669900 0.369700
vn 0.861600 0.063900 0.503600
vn 0.478500 0.670100 0.567400
vn 0.636100 0.047700 0.770100
vn 0.254900 0.670200 0.697000
vn 0.333800 0.025500 0.942300
vn -0.000200 0.670000 0.742300
vn -0.008100 -0.000100 0.999900
vn -0.255400 0.669600 0.697400
vn -0.348100 -0.026100 0.937100
vn -0.479300 0.669000 0.568000
vn -0.645500 -0.049400 0.762100
vn -0.645000 0.668400 0.370300
vn -0.865400 -0.067000 0.496600
vn -0.732900 0.668100 0.128500
vn -0.982100 -0.076400 0.172300
vn -0.732900 0.668100 -0.128500
vn -0.982100 -0.076400 -0.172300
vn -0.645000 0.668400 -0.370300
vn -0.865400 -0.067000 -0.496600
vn -0.479300 0.669000 -0.568000
vn -0.645500 -0.049400 -0.762100
vn 0.254900 0.670200 -0.697000
vn -0.323100 -0.447800 -0.833700
vn 0.007700 -0.001800 -0.999900
vn 0.333800 -0.103400 -0.936900
vn -0.065000 -0.575900 -0.814900
vn 0.333800 0.025500 -0.942300
vn -0.518200 -0.823500 -0.231000
vn -0.576400 -0.789000 -0.212600
vn 0.208100 -0.694100 -0.689100
vn -0.426100 -0.875900 -0.226400
vn 0.444900 -0.770600 -0.456300
vn -0.321500 -0.930100 -0.177600
vn 0.590100 -0.791400 -0.159200
vn -0.245900 -0.965000 -0.091300
vn 0.607100 -0.780400 0.149000
vn -0.225700 -0.974200 0.004400
vn 0.511200 -0.742900 0.432100
vn -0.254600 -0.962900 0.089600
vn 0.312200 -0.682700 0.660600
vn -0.327300 -0.933100 0.148700
vn 0.020300 -0.604500 0.796300
vn -0.436400 -0.885100 0.161400
vn -0.301700 -0.494600 0.815000
vn -0.544700 -0.829500 0.123500
vn -0.585300 -0.372300 0.720200
vn -0.616700 -0.784900 0.059600
vn -0.792100 -0.264300 0.550100
vn -0.649400 -0.760400 0.002600
vn -0.918200 -0.181100 0.352200
vn -0.659400 -0.751500 -0.019300
vn -0.982200 -0.141500 0.123500
vn -0.664800 -0.746500 -0.027300
vn -0.975800 -0.159100 -0.150000
vn -0.661100 -0.746000 -0.079800
vn -0.880200 -0.196400 -0.431900
vn -0.634000 -0.756600 -0.159900
vn -0.720200 -0.244000 -0.649400
vn -0.605600 -0.769600 -0.202200
vn -0.535400 -0.330800 -0.777100
vn -0.596800 -0.776000 -0.204000
vn 0.006900 -0.001600 -1.000000
vn 0.344000 -0.058500 -0.937100
vn 0.002300 -0.000200 -1.000000
vn 0.342900 -0.028400 -0.938900
vn 0.005200 0.000200 -1.000000
vn 0.347100 -0.004500 -0.937800
vn 0.006400 0.000200 -1.000000
vn 0.346500 0.031400 -0.937500
vn 0.618700 -0.192500 -0.761600
vn 0.638700 -0.108200 -0.761800
vn 0.642000 -0.053200 -0.764900
vn 0.646400 -0.008800 -0.763000
vn 0.644200 0.059000 -0.762600
vn -0.609900 0.189700 -0.769400
vn -0.320300 0.100000 -0.942000
vn -0.630700 0.106400 -0.768700
vn -0.331900 0.055800 -0.941600
vn -0.639200 0.053000 -0.767200
vn -0.338800 0.028000 -0.940400
vn -0.640200 0.009000 -0.768100
vn -0.337800 0.004900 -0.941200
vn -0.636700 -0.058100 -0.768900
vn -0.335200 -0.030900 -0.941600
vn -0.825500 0.256300 -0.502800
vn -0.852700 0.144100 -0.502100
vn -0.862500 0.071600 -0.501000
vn -0.865000 0.012100 -0.501600
vn -0.861000 -0.078300 -0.502400
vn -0.940400 0.291700 -0.174700
vn -0.970900 0.164100 -0.174400
vn -0.981400 0.081500 -0.174000
vn -0.984600 0.013800 -0.174300
vn -0.980600 -0.089100 -0.174600
vn -0.940400 0.291700 0.174700
vn -0.970900 0.164100 0.174400
vn -0.981400 0.081500 0.174000
vn -0.984600 0.013800 0.174300
vn -0.980600 -0.089100 0.174600
vn -0.825500 0.256300 0.502800
vn -0.852700 0.144100 0.502100
vn -0.862500 0.071600 0.501000
vn -0.865000 0.012100 0.501600
vn -0.861000 -0.078300 0.502400
vn -0.609900 0.189700 0.769400
vn -0.630700 0.106400 0.768700
vn -0.639200 0.053000 0.767200
vn -0.640200 0.009000 0.768100
vn -0.636700 -0.058100 0.768900
vn -0.320300 0.100000 0.942000
vn -0.331900 0.055800 0.941600
vn -0.338800 0.028000 0.940400
vn -0.337800 0.004900 0.941200
vn -0.335200 -0.030900 0.941600
vn 0.007700 -0.001800 0.999900
vn 0.006900 -0.001600 1.000000
vn 0.002300 -0.000200 1.000000
vn 0.005200 0.000200 1.000000
vn 0.006400 0.000200 1.000000
vn 0.333800 -0.103400 0.936900
vn 0.344000 -0.058500 0.937100
vn 0.342900 -0.028400 0.938900
vn 0.347100 -0.004500 0.937800
vn 0.346500 0.031400 0.937500
vn 0.618700 -0.192500 0.761600
vn 0.638700 -0.108200 0.761800
vn 0.642000 -0.053200 0.764900
vn 0.646400 -0.008800 0.763000
vn 0.644200 0.059000 0.762600
vn 0.828900 -0.258500 0.496000
vn 0.856100 -0.144600 0.496100
vn 0.863600 -0.071400 0.499000
vn 0.867500 -0.011900 0.497100
vn 0.864200 0.079500 0.496900
vn 0.940300 -0.293600 0.172000
vn 0.971300 -0.163900 0.172000
vn 0.981500 -0.081200 0.173200
vn 0.984900 -0.013600 0.172500
vn 0.980900 0.090400 0.172400
vn 0.940300 -0.293600 -0.172000
vn 0.971300 -0.163900 -0.172000
vn 0.981500 -0.081200 -0.173200
vn 0.984900 -0.013600 -0.172500
vn 0.980900 0.090400 -0.172400
vn 0.828900 -0.258500 -0.496000
vn 0.856100 -0.144600 -0.496100
vn 0.863600 -0.071400 -0.499000
vn 0.867500 -0.011900 -0.497100
vn 0.864200 0.079500 -0.496900
s 1
f 1/1/1 36/2/2 2/3/3 25/4/4
f 73/5/5 6/6/6 8/7/7 79/8/8
f 79/8/8 8/7/7 10/9/9 85/10/10
f 85/10/10 10/9/9 12/9/11 91/10/12
f 91/10/12 12/9/11 14/7/13 97/8/14
f 97/8/14 14/7/13 16/6/15 103/5/16
f 103/5/16 16/6/15 18/11/17 109/12/18
f 109/12/18 18/11/17 20/3/19 115/4/20
f 115/4/20 20/3/19 22/2/21 121/1/22
f 121/1/22 22/2/21 24/13/23 127/14/24
f 127/14/24 24/13/23 26/15/25 133/16/26
f 133/16/26 26/15/25 28/17/27 139/18/28
f 139/18/28 28/17/27 30/17/29 145/18/30
f 145/18/30 30/17/29 32/15/31 151/16/32
f 151/16/32 32/15/31 34/13/33 157/14/34
f 157/14/34 34/13/33 36/2/2 1/1/1
f 4/11/35 2/3/3 36/2/2 34/13/33 32/15/31 30/17/29 28/17/27 26/15/25 24/13/23 22/2/21 20/3/19 18/11/17 16/6/15 14/7/13 12/9/11 10/9/9 8/7/7 6/6/6
f 38/19/36 35/20/37 13/21/38 40/22/39
f 23/12/40 4/11/35 6/6/6 73/5/5
f 25/4/4 2/3/3 4/11/35 23/12/40
f 38/23/36 40/24/39 39/25/41 37/26/42
f 40/24/39 42/27/43 41/28/44 39/25/41
f 42/27/43 44/29/45 43/30/46 41/28/44
f 44/29/45 46/31/47 45/32/48 43/30/46
f 46/31/47 48/33/49 47/34/50 45/32/48
f 48/33/49 50/35/51 49/36/52 47/34/50
f 50/35/51 52/37/53 51/38/54 49/36/52
f 52/37/53 54/39/55 53/40/56 51/38/54
f 54/39/55 56/41/57 55/42/58 53/40/56
f 56/41/57 58/43/59 57/44/60 55/42/58
f 58/43/59 60/45/61 59/46/62 57/44/60
f 60/45/61 62/47/63 61/48/64 59/46/62
f 62/47/63 64/49/65 63/50/66 61/48/64
f 64/49/65 66/51/67 65/52/68 63/50/66
f 66/51/67 68/53/69 67/54/70 65/52/68
f 68/53/69 70/55/71 69/56/72 67/54/70
f 70/55/71 72/57/73 71/58/74 69/56/72
f 72/57/73 38/23/36 37/26/42 71/58/74
f 37/59/42 39/60/41 41/61/44 43/62/46 45/63/48 47/64/50 49/65/52 51/66/54 53/67/56 55/68/58 57/69/60 59/70/62 61/71/64 63/72/66 65/73/68 67/74/70 69/75/72 71/76/74
f 35/77/37 33/78/75 15/79/76 13/80/38
f 33/4/75 31/3/77 17/11/78 15/12/76
f 31/81/77 29/82/79 19/83/80 17/84/78
f 29/85/79 27/86/81 21/87/82 19/88/80
f 27/89/81 25/90/4 23/91/40 21/92/82
f 40/22/39 13/21/38 78/93/83 42/94/43
f 13/80/38 15/79/76 77/95/84 78/96/83
f 15/12/76 17/11/78 76/6/85 77/5/84
f 17/84/78 19/83/80 75/97/86 76/98/85
f 19/88/80 21/87/82 74/99/87 75/100/86
f 21/92/82 23/91/40 73/101/5 74/102/87
f 70/103/71 162/104/88 11/105/89 72/106/73
f 162/107/88 161/108/90 9/109/91 11/110/89
f 161/14/90 160/13/92 7/2/93 9/1/91
f 160/111/92 159/112/94 5/113/95 7/114/93
f 159/115/94 158/116/96 3/117/97 5/118/95
f 158/119/96 157/120/34 1/121/1 3/122/97
f 68/123/69 156/124/98 162/104/88 70/103/71
f 156/125/98 155/126/99 161/108/90 162/107/88
f 155/16/99 154/15/100 160/13/92 161/14/90
f 154/127/100 153/128/101 159/112/94 160/111/92
f 153/129/101 152/130/102 158/116/96 159/115/94
f 152/131/102 151/132/32 157/120/34 158/119/96
f 66/133/67 150/134/103 156/124/98 68/123/69
f 150/135/103 149/136/104 155/126/99 156/125/98
f 149/18/104 148/17/105 154/15/100 155/16/99
f 148/137/105 147/138/106 153/128/101 154/127/100
f 147/139/106 146/140/107 152/130/102 153/129/101
f 146/141/107 145/142/30 151/132/32 152/131/102
f 64/133/65 144/134/108 150/134/103 66/133/67
f 144/135/108 143/136/109 149/136/104 150/135/103
f 143/18/109 142/17/110 148/17/105 149/18/104
f 142/137/110 141/138/111 147/138/106 148/137/105
f 141/139/111 140/140/112 146/140/107 147/139/106
f 140/141/112 139/142/28 145/142/30 146/141/107
f 62/123/63 138/124/113 144/134/108 64/133/65
f 138/125/113 137/126/114 143/136/109 144/135/108
f 137/16/114 136/15/115 142/17/110 143/18/109
f 136/127/115 135/128/116 141/138/111 142/137/110
f 135/129/116 134/130/117 140/140/112 141/139/111
f 134/131/117 133/132/26 139/142/28 140/141/112
f 60/103/61 132/104/118 138/124/113 62/123/63
f 132/107/118 131/108/119 137/126/114 138/125/113
f 131/14/119 130/13/120 136/15/115 137/16/114
f 130/111/120 129/112/121 135/128/116 136/127/115
f 129/115/121 128/116/122 134/130/117 135/129/116
f 128/119/122 127/120/24 133/132/26 134/131/117
f 58/106/59 126/105/123 132/104/118 60/103/61
f 126/110/123 125/109/124 131/108/119 132/107/118
f 125/1/124 124/2/125 130/13/120 131/14/119
f 124/114/125 123/113/126 129/112/121 130/111/120
f 123/118/126 122/117/127 128/116/122 129/115/121
f 122/122/127 121/121/22 127/120/24 128/119/122
f 56/19/57 120/20/128 126/105/123 58/106/59
f 120/77/128 119/78/129 125/109/124 126/110/123
f 119/4/129 118/3/130 124/2/125 125/1/124
f 118/81/130 117/82/131 123/113/126 124/114/125
f 117/85/131 116/86/132 122/117/127 123/118/126
f 116/89/132 115/90/20 121/121/22 122/122/127
f 54/22/55 114/21/133 120/20/128 56/19/57
f 114/80/133 113/79/134 119/78/129 120/77/128
f 113/12/134 112/11/135 118/3/130 119/4/129
f 112/84/135 111/83/136 117/82/131 118/81/130
f 111/88/136 110/87/137 116/86/132 117/85/131
f 110/92/137 109/91/18 115/90/20 116/89/132
f 52/94/53 108/93/138 114/21/133 54/22/55
f 108/96/138 107/95/139 113/79/134 114/80/133
f 107/5/139 106/6/140 112/11/135 113/12/134
f 106/98/140 105/97/141 111/83/136 112/84/135
f 105/100/141 104/99/142 110/87/137 111/88/136
f 104/102/142 103/101/16 109/91/18 110/92/137
f 50/143/51 102/144/143 108/93/138 52/94/53
f 102/145/143 101/146/144 107/95/139 108/96/138
f 101/8/144 100/7/145 106/6/140 107/5/139
f 100/147/145 99/148/146 105/97/141 106/98/140
f 99/149/146 98/150/147 104/99/142 105/100/141
f 98/151/147 97/152/14 103/101/16 104/102/142
f 48/153/49 96/154/148 102/144/143 50/143/51
f 96/155/148 95/156/149 101/146/144 102/145/143
f 95/10/149 94/9/150 100/7/145 101/8/144
f 94/157/150 93/158/151 99/148/146 100/147/145
f 93/159/151 92/160/152 98/150/147 99/149/146
f 92/161/152 91/162/12 97/152/14 98/151/147
f 46/153/47 90/154/153 96/154/148 48/153/49
f 90/155/153 89/156/154 95/156/149 96/155/148
f 89/10/154 88/9/155 94/9/150 95/10/149
f 88/157/155 87/158/156 93/158/151 94/157/150
f 87/159/156 86/160/157 92/160/152 93/159/151
f 86/161/157 85/162/10 91/162/12 92/161/152
f 44/143/45 84/144/158 90/154/153 46/153/47
f 84/145/158 83/146/159 89/156/154 90/155/153
f 83/8/159 82/7/160 88/9/155 89/10/154
f 82/147/160 81/148/161 87/158/156 88/157/155
f 81/149/161 80/150/162 86/160/157 87/159/156
f 80/151/162 79/152/8 85/162/10 86/161/157
f 42/94/43 78/93/83 84/144/158 44/143/45
f 78/96/83 77/95/84 83/146/159 84/145/158
f 77/5/84 76/6/85 82/7/160 83/8/159
f 76/98/85 75/97/86 81/148/161 82/147/160
f 75/100/86 74/99/87 80/150/162 81/149/161
f 74/102/87 73/101/5 79/152/8 80/151/162
f 72/106/73 11/105/89 35/20/37 38/19/36
f 11/110/89 9/109/91 33/78/75 35/77/37
f 9/1/91 7/2/93 31/3/77 33/4/75
f 7/114/93 5/113/95 29/82/79 31/81/77
f 5/118/95 3/117/97 27/86/81 29/85/79
f 3/122/97 1/121/1 25/90/4 27/89/81
