# Blender v2.76 (sub 0) OBJ File: 'stor1_6.blend'
# www.blender.org
v -1.280000 1.280000 -1.280000
v 1.280000 1.280000 -1.280000
v -1.280000 1.280000 1.280000
v 1.280000 1.280000 1.280000
v -0.679513 1.265563 -1.280000
v -0.679513 1.265563 1.280000
v 0.698638 1.265563 -1.280000
v 0.698638 1.265563 1.280000
v 0.337835 1.251654 1.280000
v 0.337835 1.251654 -1.280000
v -0.318709 1.251654 1.280000
v -0.318709 1.251654 -1.280000
v -0.679513 1.265563 0.922309
v 0.698638 1.265563 0.922309
v 0.337835 1.251654 0.922309
v -0.318709 1.251654 0.922309
v -0.679513 1.265397 0.042567
v 0.698638 1.265397 0.042567
v 0.337835 1.251455 0.042567
v -0.318709 1.251455 0.042567
v -0.679513 1.265563 -0.916885
v 0.698638 1.265563 -0.916885
v 0.337835 1.251654 -0.916885
v -0.318709 1.251654 -0.916885
v -1.015429 1.280000 1.280000
v -1.015429 1.280000 -1.280000
v -1.015429 1.280000 0.042567
v 1.036777 1.280000 -1.280000
v 1.036777 1.280000 1.280000
v 1.036777 1.280000 0.042567
v 0.924064 1.230000 1.280000
v 0.811351 1.225014 1.280000
v 0.924064 1.280000 0.042567
v 0.811351 1.274969 0.042567
v 0.811351 1.225014 -1.280000
v 0.924064 1.230000 -1.280000
v 0.458103 1.215233 -1.280000
v 0.578371 1.219675 -1.280000
v 0.578371 1.219675 1.280000
v 0.458103 1.215233 1.280000
v 0.578371 1.259806 0.922309
v 0.458103 1.255373 0.922309
v 0.578371 1.259806 -0.916885
v 0.458103 1.255373 -0.916885
v -0.187400 1.207888 -1.280000
v -0.056092 1.184607 -1.280000
v 0.075217 1.184607 -1.280000
v 0.206526 1.207888 -1.280000
v 0.206526 1.207888 1.280000
v 0.075217 1.184607 1.280000
v -0.056092 1.184607 1.280000
v -0.187400 1.207888 1.280000
v 0.206526 1.247848 0.042567
v 0.075217 1.244607 0.042567
v -0.056092 1.244607 0.042567
v -0.187400 1.247848 0.042567
v -0.438977 1.215233 1.280000
v -0.559245 1.219675 1.280000
v -0.559245 1.219675 -1.280000
v -0.438977 1.215233 -1.280000
v -0.438977 1.255373 0.922309
v -0.559245 1.259806 0.922309
v -0.438977 1.255373 -0.916885
v -0.559245 1.259806 -0.916885
v -0.903457 1.230000 -1.280000
v -0.791485 1.224892 -1.280000
v -0.791485 1.224892 1.280000
v -0.903457 1.230000 1.280000
v -0.791485 1.274848 0.042567
v -0.903457 1.280000 0.042567
v -0.679513 1.265563 0.854410
v 0.698638 1.265563 0.854410
v 0.337835 1.251654 0.854410
v -0.318709 1.251654 0.854410
v 0.458103 1.255373 0.854410
v 0.578371 1.259806 0.854410
v -0.559245 1.259806 0.854410
v -0.438977 1.255373 0.854410
v -0.679513 1.265563 0.996828
v 0.698638 1.265563 0.996828
v 0.337835 1.251654 0.996828
v -0.318709 1.251654 0.996828
v 0.458103 1.215233 0.996828
v 0.578371 1.219675 0.996828
v -0.559245 1.219675 0.996828
v -0.438977 1.215233 0.996828
v -0.679513 1.265563 -0.833969
v 0.698638 1.265563 -0.833969
v 0.337835 1.251654 -0.833969
v -0.318709 1.251654 -0.833969
v 0.458103 1.255373 -0.833969
v 0.578371 1.259806 -0.833969
v -0.559245 1.259806 -0.833969
v -0.438977 1.255373 -0.833969
v -0.679513 1.265563 -0.991294
v 0.698638 1.265563 -0.991294
v 0.337835 1.251654 -0.991294
v -0.318709 1.251654 -0.991294
v 0.458103 1.215233 -0.991294
v 0.578371 1.219675 -0.991294
v -0.559245 1.219675 -0.991294
v -0.438977 1.215233 -0.991294
v -0.679513 1.265563 -0.043310
v 0.698638 1.265563 -0.043310
v 0.337835 1.251654 -0.043310
v -0.318709 1.251654 -0.043310
v -1.015429 1.280000 -0.043310
v 1.036777 1.280000 -0.043310
v 0.811351 1.235014 -0.043310
v 0.924064 1.240000 -0.043310
v -0.187400 1.207888 -0.043310
v -0.056092 1.184607 -0.043310
v 0.075217 1.184607 -0.043310
v 0.206526 1.207888 -0.043310
v -0.903457 1.240000 -0.043310
v -0.791485 1.234892 -0.043310
v -0.679513 1.265563 0.128492
v 0.698638 1.265563 0.128492
v 0.337835 1.251654 0.128492
v -0.318709 1.251654 0.128492
v -1.015429 1.280000 0.128492
v 1.036777 1.280000 0.128492
v 0.811351 1.235014 0.128492
v 0.924064 1.240000 0.128492
v -0.187400 1.207888 0.128492
v -0.056092 1.184607 0.128492
v 0.075217 1.184607 0.128492
v 0.206526 1.207888 0.128492
v -0.903457 1.240000 0.128492
v -0.791485 1.234892 0.128492
v -0.679513 1.265563 0.491451
v 0.698638 1.265563 0.491451
v 0.337835 1.251654 0.491451
v -0.318709 1.251654 0.491451
v -1.015429 1.280000 0.491451
v 1.036777 1.280000 0.491451
v 0.811351 1.235014 0.491451
v 0.924064 1.240000 0.491451
v 0.458103 1.205233 0.491451
v 0.578371 1.209675 0.491451
v -0.559245 1.209675 0.491451
v -0.438977 1.205233 0.491451
v -0.903457 1.240000 0.491451
v -0.791485 1.234892 0.491451
v -0.679513 1.265563 -0.438640
v 0.698638 1.265563 -0.438640
v 0.337835 1.251654 -0.438640
v -0.318709 1.251654 -0.438640
v -1.015429 1.280000 -0.438640
v 1.036777 1.280000 -0.438640
v 0.811351 1.235014 -0.438640
v 0.924064 1.240000 -0.438640
v 0.458103 1.205233 -0.438640
v 0.578371 1.209675 -0.438640
v -0.559245 1.209675 -0.438640
v -0.438977 1.205233 -0.438640
v -0.903457 1.240000 -0.438640
v -0.791485 1.234892 -0.438640
v -0.679513 1.265563 0.817281
v 0.698638 1.265563 0.817281
v 0.337835 1.251654 0.817281
v -0.318709 1.251654 0.817281
v -1.015429 1.280000 0.817281
v 1.036777 1.280000 0.817281
v 0.811351 1.225014 0.817281
v 0.924064 1.230000 0.817281
v 0.458103 1.215233 0.817281
v 0.578371 1.219675 0.817281
v -0.559245 1.219675 0.817281
v -0.438977 1.215233 0.817281
v -0.903457 1.230000 0.817281
v -0.791485 1.224892 0.817281
v -0.679513 1.265563 -0.795616
v 0.698638 1.265563 -0.795616
v 0.337835 1.251654 -0.795616
v -0.318709 1.251654 -0.795616
v -1.015429 1.280000 -0.795616
v 1.036777 1.280000 -0.795616
v 0.811351 1.225014 -0.795616
v 0.924064 1.230000 -0.795616
v 0.458103 1.215233 -0.795616
v 0.578371 1.219675 -0.795616
v -0.559245 1.219675 -0.795616
v -0.438977 1.215233 -0.795616
v -0.903457 1.230000 -0.795616
v -0.791485 1.224892 -0.795616
vt 0.234565 0.833754
vt 0.281545 0.833754
vt 0.234565 0.860277
vt 0.375504 0.112776
vt 0.375504 0.000000
vt 0.426797 0.000000
vt 0.772906 0.889386
vt 0.772906 1.000000
vt 0.725926 1.000000
vt 0.328525 0.112776
vt 0.328525 0.141842
vt 0.375504 0.889386
vt 0.375504 1.000000
vt 0.328525 1.000000
vt 0.375504 0.189212
vt 0.375504 0.174231
vt 0.328525 0.328656
vt 0.375504 0.328656
vt 0.375504 0.483082
vt 0.772906 0.833754
vt 0.772906 0.860277
vt 0.725926 0.860277
vt 0.816934 0.819250
vt 0.904991 0.516628
vt 1.000000 0.000000
vt 1.000000 1.000000
vt 0.631967 0.000000
vt 0.580674 0.000000
vt 0.234565 0.483082
vt 0.234565 0.516628
vt 0.190826 0.516628
vt 0.725926 0.328656
vt 0.772906 0.483082
vt 0.772906 0.516628
vt 0.631967 0.483082
vt 0.631967 0.516628
vt 0.580674 0.516628
vt 0.375504 0.516628
vt 0.375504 0.141842
vt 0.234565 0.000000
vt 0.281545 0.000000
vt 0.234565 0.112776
vt 0.772906 0.112776
vt 0.772906 0.141842
vt 0.725926 0.141842
vt 0.234565 0.174231
vt 0.234565 0.189212
vt 0.190826 0.189212
vt 0.328525 0.000000
vt 0.281545 0.112776
vt 0.678946 0.328656
vt 0.678946 0.691973
vt 0.860963 0.000000
vt 0.816934 0.000000
vt 0.772906 0.000000
vt 0.375504 0.691973
vt 0.426797 0.550192
vt 0.375504 0.819250
vt 0.529382 0.000000
vt 0.478089 0.000000
vt 0.904991 0.483082
vt 0.860963 0.516628
vt 0.725926 0.174231
vt 0.678946 0.174231
vt 0.678946 0.141842
vt 0.816934 1.000000
vt 0.328525 0.691973
vt 0.375504 0.550192
vt 0.529382 0.483082
vt 0.580674 0.483082
vt 0.529382 0.516628
vt 0.816934 0.483082
vt 0.816934 0.516628
vt 0.860963 0.483082
vt 0.375504 0.833754
vt 0.426797 1.000000
vt 0.631967 0.112776
vt 0.678946 0.112776
vt 0.725926 0.112776
vt 0.631967 0.328656
vt 0.725926 0.691973
vt 0.631967 0.174231
vt 0.678946 0.889386
vt 0.678946 1.000000
vt 0.631967 1.000000
vt 0.725926 0.889386
vt 0.234565 0.889386
vt 0.234565 1.000000
vt 0.190826 1.000000
vt 0.147087 0.189212
vt 0.147087 0.000000
vt 0.860963 0.189212
vt 0.904991 0.000000
vt 0.147087 0.516628
vt 0.147087 0.483082
vt 0.426797 0.483082
vt 0.426797 0.516628
vt 0.478089 0.483082
vt 0.478089 0.516628
vt 0.281545 0.889386
vt 0.190826 0.000000
vt 0.631967 0.141842
vt 0.631967 0.550192
vt 0.478089 1.000000
vt 0.478089 0.550192
vt 0.529382 0.550192
vt 0.328525 0.889386
vt 0.281545 1.000000
vt 0.281545 0.141842
vt 0.234565 0.328656
vt 0.281545 0.328656
vt 0.281545 0.691973
vt 0.281545 0.860277
vt 0.580674 1.000000
vt 0.529382 1.000000
vt 0.103348 0.483082
vt 0.190826 0.483082
vt 0.580674 0.550192
vt 0.725926 0.000000
vt 0.678946 0.000000
vt 0.328525 0.833754
vt 0.375504 0.860277
vt 0.281545 0.819250
vt 0.328524 0.819250
vt 0.234565 0.819250
vt 0.904991 0.189212
vt 0.103348 0.000000
vt 0.725926 0.819250
vt 0.725926 0.833754
vt 0.678946 0.833754
vt 0.631967 0.819250
vt 0.678946 0.819250
vt 0.147087 1.000000
vt 0.147087 0.819250
vt 0.190826 0.819250
vt 0.234565 0.141842
vt 0.772906 0.819250
vt 0.631967 0.691973
vt 0.631967 0.189212
vt 0.328525 0.860277
vt 0.103348 0.516628
vt 0.328525 0.174231
vt 0.631967 0.833754
vt 0.678946 0.860277
vt 0.631967 0.889386
vt 0.281545 0.174231
vt 0.631967 0.860277
vt 0.816934 0.189212
vt 0.772906 0.174231
vt 0.190826 0.328656
vt 0.147087 0.328656
vt 0.772906 0.550192
vt 0.904991 0.819250
vt 0.904991 0.691973
vt 0.772906 0.328656
vt 0.860963 0.328656
vt 0.816934 0.328656
vt 0.904991 0.328656
vt 0.103348 0.550192
vt 0.103348 0.691973
vt 0.000000 1.000000
vt 0.860963 1.000000
vt 0.904991 0.550192
vt 0.234565 0.550192
vt 0.816934 0.550192
vt 0.860963 0.550192
vt 0.772906 0.691973
vt 0.147087 0.550192
vt 0.190826 0.550192
vt 0.103348 1.000000
vt 0.103348 0.819250
vt 0.234565 0.691973
vt 0.190826 0.691973
vt 0.860963 0.691973
vt 0.816934 0.691973
vt 0.904991 1.000000
vt 0.147087 0.691973
vt 0.725926 0.189212
vt 0.772906 0.189212
vt 0.328525 0.189212
vt 0.678946 0.189212
vt 0.281545 0.189212
vt 0.103348 0.189212
vt 0.860963 0.819250
vt 0.103348 0.328656
vt 0.000000 0.000000
vn -0.047800 -0.998900 0.000000
vn -0.316200 -0.948700 0.000000
vn 0.356500 -0.934300 0.000000
vn 0.257500 -0.850400 0.458800
vn 0.289800 -0.957100 0.000000
vn 0.360100 -0.932900 0.000000
vn 0.047800 -0.998900 0.000000
vn -0.338500 -0.941000 0.000000
vn 0.000000 -1.000000 0.000000
vn 0.000000 0.000000 -1.000000
vn -0.084100 -0.996500 -0.001900
vn 0.426100 -0.904700 -0.001700
vn 0.027500 -0.999600 -0.002300
vn 0.366200 -0.930500 -0.002200
vn -0.030900 -0.999500 0.000000
vn -0.356500 -0.934300 0.000000
vn 0.341400 -0.939900 0.000000
vn -0.036900 -0.999300 0.000000
vn 0.036900 -0.999300 -0.000000
vn -0.366200 -0.930500 -0.002100
vn 0.036800 -0.999300 0.000000
vn 0.358700 -0.933400 0.000000
vn 0.143800 -0.811200 0.566800
vn -0.238600 -0.880500 0.409600
vn 0.040400 -0.905700 0.421900
vn 0.040100 -0.905900 0.421500
vn -0.257500 -0.850400 0.458800
vn 0.032400 -0.879700 0.474400
vn -0.360100 -0.932900 0.000000
vn 0.030900 -0.999500 0.000000
vn -0.289800 -0.957100 0.000000
vn -0.045600 -0.999000 0.000000
vn 0.405500 -0.914100 0.000000
vn -0.041700 -0.905700 0.421900
vn -0.289300 -0.867900 0.403900
vn -0.143800 -0.811200 0.566800
vn 0.000000 -0.819700 0.572700
vn 0.022400 -0.906400 0.421800
vn 0.306200 -0.862900 0.401900
vn -0.365700 -0.930700 0.002100
vn -0.318300 -0.834400 0.450000
vn -0.032500 -0.879600 0.474500
vn -0.421400 -0.906900 0.000000
vn 0.174600 -0.984600 0.000000
vn -0.426100 -0.904700 -0.001700
vn -0.308100 -0.862400 0.401700
vn -0.041300 -0.905900 0.421500
vn -0.027500 -0.999600 -0.002300
vn -0.025100 -0.678800 0.733900
vn -0.250800 -0.657400 0.710600
vn 0.025000 -0.678900 0.733800
vn -0.201400 -0.665100 0.719100
vn 0.241000 -0.879900 0.409400
vn -0.036800 -0.999300 0.000000
vn 0.316200 -0.948700 0.000000
vn -0.032500 -0.879900 -0.474000
vn -0.318400 -0.834600 -0.449500
vn 0.032400 -0.880000 -0.473900
vn -0.257600 -0.850700 -0.458200
vn 0.044200 -0.999000 0.000000
vn -0.174600 -0.984600 0.000000
vn 0.365700 -0.930700 0.002100
vn -0.336400 -0.941700 0.000000
vn 0.425700 -0.904800 0.001700
vn 0.201400 -0.665100 0.719100
vn 0.318300 -0.834400 0.450000
vn 0.421400 -0.906900 0.000000
vn -0.261600 -0.965200 0.000000
vn 0.334400 -0.942400 0.000000
vn 0.264200 -0.964500 0.000000
vn 0.027500 -0.999600 0.002300
vn -0.084100 -0.996500 0.001900
vn -0.238700 -0.880600 -0.409500
vn 0.040400 -0.905800 -0.421700
vn -0.289300 -0.868000 -0.403700
vn -0.143900 -0.811400 -0.566600
vn 0.000000 -0.819900 -0.572500
vn 0.022400 -0.906500 -0.421600
vn -0.308100 -0.862500 -0.401500
vn -0.041300 -0.906000 -0.421300
vn -0.407700 -0.913100 0.000000
vn 0.289300 -0.867900 0.403900
vn 0.032500 -0.879600 0.474500
vn 0.420400 -0.907300 -0.000000
vn 0.250800 -0.657400 0.710600
vn -0.022400 -0.906400 0.421800
vn 0.257600 -0.850700 -0.458200
vn -0.338400 -0.940600 0.026400
vn 0.044200 -0.998600 0.028000
vn -0.360000 -0.932600 -0.026100
vn 0.036900 -0.998900 -0.028000
vn 0.025100 -0.678800 0.733900
vn 0.032500 -0.879900 -0.474000
vn -0.421300 -0.906600 -0.025400
vn -0.036900 -0.998900 -0.028000
vn -0.407600 -0.912800 0.025600
vn -0.045600 -0.998600 0.028000
vn -0.032400 -0.879700 0.474400
vn -0.338400 -0.940600 -0.028900
vn 0.044200 -0.998600 -0.030600
vn -0.359900 -0.932500 0.028600
vn 0.036900 -0.998800 0.030700
vn -0.425700 -0.904800 0.001700
vn -0.420400 -0.907300 0.000000
vn -0.421300 -0.906500 0.027800
vn -0.036900 -0.998800 0.030700
vn -0.407600 -0.912700 -0.028000
vn -0.045600 -0.998500 -0.030600
vn -0.025500 -0.690600 -0.722800
vn -0.254900 -0.668100 -0.699100
vn 0.318400 -0.834600 -0.449500
vn -0.032400 -0.880000 -0.473900
vn -0.358700 -0.933400 0.000000
vn 0.025500 -0.690700 -0.722700
vn -0.204800 -0.676200 -0.707700
vn -0.025000 -0.678900 0.733800
vn 0.000000 0.000000 1.000000
vn 0.084600 -0.996400 -0.001900
vn 0.289300 -0.868000 -0.403700
vn 0.241100 -0.880000 -0.409200
vn 0.306300 -0.863000 -0.401800
vn 0.084600 -0.996400 0.001900
vn 0.040100 -0.906000 -0.421300
vn -0.027500 -0.999600 0.002300
vn -0.022400 -0.906500 -0.421600
vn 0.143900 -0.811400 -0.566600
vn -0.041700 -0.905800 -0.421700
vn 0.341300 -0.939600 0.026300
vn 0.421300 -0.906600 -0.025400
vn 0.360000 -0.932600 -0.026100
vn 0.405400 -0.913800 0.025600
vn 0.359900 -0.932500 0.028600
vn 0.421300 -0.906500 0.027800
vn 0.341300 -0.939500 -0.028800
vn 0.405300 -0.913700 -0.028000
vn -0.025500 -0.690700 -0.722700
vn 0.025500 -0.690600 -0.722800
vn 0.204800 -0.676200 -0.707700
vn 0.254900 -0.668100 -0.699100
s off
f 71/1/1 77/2/1 13/3/1
f 98/4/2 12/5/2 45/6/2
f 80/7/3 8/8/3 39/9/3
f 102/10/4 98/4/4 63/11/4
f 82/12/5 11/13/5 57/14/5
f 45/6/2 176/15/2 90/16/2
f 156/17/6 148/18/6 106/19/6
f 72/20/7 14/21/7 41/22/7
f 72/20/8 165/23/8 14/21/8
f 30/24/9 2/25/9 4/26/9
f 10/27/10 48/28/10 45/6/10
f 103/29/11 17/30/11 69/31/11
f 154/32/12 104/33/12 18/34/12
f 105/35/13 19/36/13 53/37/13
f 156/17/14 106/19/14 20/38/14
f 98/4/15 24/39/15 63/11/15
f 5/40/16 59/41/16 95/42/16
f 96/43/7 22/44/7 43/45/7
f 87/46/17 173/47/17 186/48/17
f 59/41/18 60/49/18 101/50/18
f 153/51/19 154/32/19 139/52/19
f 19/36/20 105/35/20 153/51/20
f 36/53/10 35/54/10 7/55/10
f 134/56/2 125/57/2 162/58/2
f 48/28/10 47/59/10 46/60/10
f 108/61/9 30/24/9 33/62/9
f 92/63/21 91/64/21 44/65/21
f 32/66/8 80/7/8 165/23/8
f 20/38/22 142/67/22 156/17/22
f 10/27/10 45/6/10 12/5/10
f 134/56/6 142/67/6 120/68/6
f 113/69/23 114/70/23 54/71/23
f 104/33/24 109/72/24 34/73/24
f 110/74/25 33/62/25 34/73/25
f 74/75/2 162/58/2 52/76/2
f 109/72/26 110/74/26 34/73/26
f 97/77/27 99/78/27 44/65/27
f 100/79/28 43/45/28 44/65/28
f 105/35/29 147/80/29 153/51/29
f 154/32/19 140/81/19 139/52/19
f 44/65/30 91/64/30 89/82/30
f 90/16/2 24/39/2 45/6/2
f 83/83/31 40/84/31 9/85/31
f 84/86/19 39/9/19 40/84/19
f 79/87/17 6/88/17 67/89/17
f 186/48/32 185/90/32 65/91/32
f 180/92/33 36/53/33 28/93/33
f 70/94/34 115/95/34 69/31/34
f 106/19/35 111/96/35 56/97/35
f 111/96/36 112/98/36 55/99/36
f 113/69/37 54/71/37 55/99/37
f 114/70/38 53/37/38 54/71/38
f 79/87/16 85/100/16 6/88/16
f 110/74/39 108/61/39 33/62/39
f 44/65/21 43/45/21 92/63/21
f 66/101/17 95/42/17 186/48/17
f 89/82/30 23/102/30 44/65/30
f 139/52/40 119/103/40 19/36/40
f 51/104/9 126/105/9 127/106/9
f 85/100/18 86/107/18 58/108/18
f 95/42/41 101/50/41 64/109/41
f 101/50/42 102/10/42 63/11/42
f 103/29/43 145/110/43 155/111/43
f 156/17/18 142/67/18 141/112/18
f 77/2/1 62/113/1 13/3/1
f 106/19/2 148/18/2 111/96/2
f 85/100/16 58/108/16 6/88/16
f 86/107/18 57/14/18 58/108/18
f 49/114/44 50/115/44 127/106/44
f 17/30/45 103/29/45 155/111/45
f 107/116/46 115/95/46 70/94/46
f 115/95/47 116/117/47 69/31/47
f 114/70/44 113/69/44 48/28/44
f 20/38/48 106/19/48 56/97/48
f 128/118/44 49/114/44 127/106/44
f 38/119/10 37/120/10 10/27/10
f 83/83/19 84/86/19 40/84/19
f 78/121/15 74/75/15 16/122/15
f 169/123/49 170/124/49 78/121/49
f 159/125/50 169/123/50 77/2/50
f 178/126/33 180/92/33 28/93/33
f 37/120/19 38/119/19 99/78/19
f 5/40/10 26/127/10 7/55/10
f 52/76/2 162/58/2 125/57/2
f 168/128/51 76/129/51 75/130/51
f 161/131/52 167/132/52 75/130/52
f 67/89/32 68/133/32 171/134/32
f 172/135/17 159/125/17 71/1/17
f 116/117/53 103/29/53 69/31/53
f 62/113/54 77/2/54 78/121/54
f 21/136/1 95/42/1 64/109/1
f 48/28/55 97/77/55 23/102/55
f 160/137/7 72/20/7 76/129/7
f 161/131/55 49/114/55 128/118/55
f 162/58/15 74/75/15 78/121/15
f 119/103/55 133/138/55 128/118/55
f 114/70/55 48/28/55 175/139/55
f 61/140/56 86/107/56 85/100/56
f 62/113/57 85/100/57 79/87/57
f 27/141/9 107/116/9 70/94/9
f 64/109/54 63/11/54 94/142/54
f 155/111/18 156/17/18 141/112/18
f 161/131/55 73/143/55 49/114/55
f 42/144/58 41/22/58 84/86/58
f 42/144/59 83/83/59 81/145/59
f 94/142/54 93/146/54 64/109/54
f 50/115/9 51/104/9 127/106/9
f 15/147/55 81/145/55 49/114/55
f 35/54/8 179/148/8 96/43/8
f 61/140/15 16/122/15 82/12/15
f 112/98/37 113/69/37 55/99/37
f 41/22/7 14/21/7 80/7/7
f 71/1/17 13/3/17 172/135/17
f 36/53/60 180/92/60 35/54/60
f 66/101/32 186/48/32 65/91/32
f 113/69/44 47/59/44 48/28/44
f 78/121/54 61/140/54 62/113/54
f 64/109/1 93/146/1 87/46/1
f 71/1/1 159/125/1 77/2/1
f 73/143/55 15/147/55 49/114/55
f 5/40/10 65/91/10 26/127/10
f 12/5/10 59/41/10 5/40/10
f 24/39/15 94/142/15 63/11/15
f 148/18/2 176/15/2 111/96/2
f 180/92/60 179/148/60 35/54/60
f 73/143/30 161/131/30 75/130/30
f 172/135/32 67/89/32 171/134/32
f 13/3/1 62/113/1 79/87/1
f 24/39/2 98/4/2 45/6/2
f 10/27/31 37/120/31 97/77/31
f 22/44/7 88/149/7 92/63/7
f 128/118/55 133/138/55 161/131/55
f 80/7/8 14/21/8 165/23/8
f 133/138/29 119/103/29 139/52/29
f 32/66/8 8/8/8 80/7/8
f 60/49/18 102/10/18 101/50/18
f 59/41/16 101/50/16 95/42/16
f 5/40/17 95/42/17 66/101/17
f 22/44/8 96/43/8 179/148/8
f 46/60/61 112/98/61 111/96/61
f 89/82/55 175/139/55 48/28/55
f 38/119/19 100/79/19 99/78/19
f 37/120/31 99/78/31 97/77/31
f 23/102/55 89/82/55 48/28/55
f 88/149/8 22/44/8 179/148/8
f 20/38/62 120/68/62 142/67/62
f 67/89/17 172/135/17 79/87/17
f 46/60/10 45/6/10 48/28/10
f 21/136/17 87/46/17 186/48/17
f 38/119/3 7/55/3 96/43/3
f 16/122/2 74/75/2 52/76/2
f 12/5/5 98/4/5 102/10/5
f 158/150/32 116/117/32 115/95/32
f 157/151/63 115/95/63 107/116/63
f 18/34/64 118/152/64 140/81/64
f 4/26/9 164/153/9 136/154/9
f 23/102/30 97/77/30 44/65/30
f 170/124/65 162/58/65 78/121/65
f 160/137/8 165/23/8 72/20/8
f 100/79/66 96/43/66 43/45/66
f 154/32/67 146/155/67 104/33/67
f 84/86/3 80/7/3 39/9/3
f 152/156/60 110/74/60 109/72/60
f 151/157/68 109/72/68 104/33/68
f 150/158/69 108/61/69 110/74/69
f 121/159/9 135/160/9 3/161/9
f 76/129/21 42/144/21 75/130/21
f 31/162/60 32/66/60 165/23/60
f 28/93/9 2/25/9 178/126/9
f 145/110/70 103/29/70 116/117/70
f 21/136/1 64/109/1 87/46/1
f 111/96/2 176/15/2 45/6/2
f 53/37/71 19/36/71 119/103/71
f 136/154/9 122/163/9 4/26/9
f 69/31/72 17/30/72 117/164/72
f 24/39/15 90/16/15 94/142/15
f 16/122/15 61/140/15 78/121/15
f 33/62/9 30/24/9 122/163/9
f 34/73/73 123/165/73 118/152/73
f 34/73/74 33/62/74 124/166/74
f 76/129/7 72/20/7 41/22/7
f 122/163/9 30/24/9 4/26/9
f 56/97/75 125/57/75 120/68/75
f 55/99/76 126/105/76 125/57/76
f 54/71/77 127/106/77 126/105/77
f 54/71/78 53/37/78 128/118/78
f 108/61/9 150/158/9 2/25/9
f 132/167/67 140/81/67 118/152/67
f 70/94/79 129/168/79 121/159/79
f 69/31/80 130/169/80 129/168/80
f 86/107/5 82/12/5 57/14/5
f 25/170/81 163/171/81 171/134/81
f 178/126/9 2/25/9 150/158/9
f 117/164/70 131/172/70 144/173/70
f 43/45/7 22/44/7 92/63/7
f 15/147/30 42/144/30 81/145/30
f 122/163/69 136/154/69 138/174/69
f 123/165/68 137/175/68 132/167/68
f 124/166/60 138/174/60 137/175/60
f 4/26/9 29/176/9 164/153/9
f 114/70/82 105/35/82 53/37/82
f 131/172/43 117/164/43 141/112/43
f 13/3/17 79/87/17 172/135/17
f 113/69/9 112/98/9 46/60/9
f 99/78/83 100/79/83 44/65/83
f 2/25/9 30/24/9 108/61/9
f 18/34/84 140/81/84 154/32/84
f 129/168/63 143/177/63 135/160/63
f 130/169/32 144/173/32 143/177/32
f 168/128/85 160/137/85 76/129/85
f 173/47/70 145/110/70 158/150/70
f 182/178/3 174/179/3 146/155/3
f 56/97/86 111/96/86 55/99/86
f 184/180/5 176/15/5 148/18/5
f 86/107/87 61/140/87 82/12/87
f 178/126/69 150/158/69 152/156/69
f 174/179/88 179/148/88 151/157/88
f 180/92/89 152/156/89 151/157/89
f 181/181/90 153/51/90 147/80/90
f 181/181/91 182/178/91 154/32/91
f 9/85/55 49/114/55 81/145/55
f 167/132/92 168/128/92 75/130/92
f 83/83/93 42/144/93 84/86/93
f 147/80/55 105/35/55 114/70/55
f 183/182/94 155/111/94 145/110/94
f 184/180/95 156/17/95 155/111/95
f 177/183/96 185/90/96 157/151/96
f 185/90/97 186/48/97 158/150/97
f 134/56/5 162/58/5 170/124/5
f 64/109/98 101/50/98 63/11/98
f 132/167/3 160/137/3 168/128/3
f 144/173/70 131/172/70 159/125/70
f 45/6/61 46/60/61 111/96/61
f 60/49/5 12/5/5 102/10/5
f 138/174/69 136/154/69 164/153/69
f 137/175/99 165/23/99 160/137/99
f 137/175/100 138/174/100 166/184/100
f 133/138/101 139/52/101 167/132/101
f 140/81/102 168/128/102 167/132/102
f 141/112/103 117/164/103 17/30/103
f 10/27/55 97/77/55 48/28/55
f 100/79/3 38/119/3 96/43/3
f 155/111/104 141/112/104 17/30/104
f 131/172/105 141/112/105 169/123/105
f 141/112/106 142/67/106 170/124/106
f 143/177/107 171/134/107 163/171/107
f 144/173/108 172/135/108 171/134/108
f 114/70/55 175/139/55 147/80/55
f 12/5/10 60/49/10 59/41/10
f 94/142/109 184/180/109 183/182/109
f 93/146/110 183/182/110 173/47/110
f 81/145/31 83/83/31 9/85/31
f 84/86/111 41/22/111 80/7/111
f 62/113/112 61/140/112 85/100/112
f 153/51/113 139/52/113 19/36/113
f 91/64/114 92/63/114 182/178/114
f 91/64/115 181/181/115 175/139/115
f 77/2/116 169/123/116 78/121/116
f 164/153/33 29/176/33 31/162/33
f 51/104/61 52/76/61 125/57/61
f 149/185/63 157/151/63 107/116/63
f 94/142/15 90/16/15 176/15/15
f 66/101/10 65/91/10 5/40/10
f 92/63/7 88/149/7 174/179/7
f 174/179/8 88/149/8 179/148/8
f 7/55/8 35/54/8 96/43/8
f 7/55/10 38/119/10 10/27/10
f 28/93/10 36/53/10 7/55/10
f 11/13/117 49/114/117 9/85/117
f 26/127/81 65/91/81 185/90/81
f 26/127/10 28/93/10 7/55/10
f 120/68/2 125/57/2 134/56/2
f 18/34/118 104/33/118 34/73/118
f 186/48/17 95/42/17 21/136/17
f 52/76/2 11/13/2 82/12/2
f 7/55/10 10/27/10 12/5/10
f 12/5/10 5/40/10 7/55/10
f 52/76/2 82/12/2 16/122/2
f 157/151/32 158/150/32 115/95/32
f 151/157/60 152/156/60 109/72/60
f 146/155/68 151/157/68 104/33/68
f 152/156/69 150/158/69 110/74/69
f 27/141/9 121/159/9 3/161/9
f 149/185/9 107/116/9 1/186/9
f 26/127/9 177/183/9 1/186/9
f 3/161/9 1/186/9 27/141/9
f 163/171/9 25/170/9 3/161/9
f 177/183/9 149/185/9 1/186/9
f 135/160/9 163/171/9 3/161/9
f 1/186/9 107/116/9 27/141/9
f 73/143/30 75/130/30 42/144/30
f 76/129/21 41/22/21 42/144/21
f 42/144/30 15/147/30 73/143/30
f 166/184/60 31/162/60 165/23/60
f 158/150/70 145/110/70 116/117/70
f 128/118/119 53/37/119 119/103/119
f 130/169/120 69/31/120 117/164/120
f 124/166/121 33/62/121 122/163/121
f 18/34/122 34/73/122 118/152/122
f 123/165/123 34/73/123 124/166/123
f 20/38/124 56/97/124 120/68/124
f 56/97/125 55/99/125 125/57/125
f 55/99/77 54/71/77 126/105/77
f 127/106/126 54/71/126 128/118/126
f 27/141/9 70/94/9 121/159/9
f 70/94/127 69/31/127 129/168/127
f 68/133/81 25/170/81 171/134/81
f 130/169/70 117/164/70 144/173/70
f 124/166/69 122/163/69 138/174/69
f 118/152/68 123/165/68 132/167/68
f 123/165/60 124/166/60 137/175/60
f 47/59/9 113/69/9 46/60/9
f 121/159/63 129/168/63 135/160/63
f 129/168/32 130/169/32 143/177/32
f 186/48/128 173/47/128 158/150/128
f 154/32/129 182/178/129 146/155/129
f 156/17/130 184/180/130 148/18/130
f 180/92/131 178/126/131 152/156/131
f 146/155/68 174/179/68 151/157/68
f 179/148/89 180/92/89 151/157/89
f 175/139/31 181/181/31 147/80/31
f 153/51/91 181/181/91 154/32/91
f 173/47/16 183/182/16 145/110/16
f 183/182/95 184/180/95 155/111/95
f 149/185/63 177/183/63 157/151/63
f 157/151/97 185/90/97 158/150/97
f 142/67/132 134/56/132 170/124/132
f 140/81/133 132/167/133 168/128/133
f 172/135/134 144/173/134 159/125/134
f 166/184/135 138/174/135 164/153/135
f 132/167/68 137/175/68 160/137/68
f 165/23/100 137/175/100 166/184/100
f 161/131/31 133/138/31 167/132/31
f 139/52/102 140/81/102 167/132/102
f 159/125/16 131/172/16 169/123/16
f 169/123/106 141/112/106 170/124/106
f 135/160/63 143/177/63 163/171/63
f 143/177/108 144/173/108 171/134/108
f 93/146/136 94/142/136 183/182/136
f 87/46/1 93/146/1 173/47/1
f 181/181/137 91/64/137 182/178/137
f 89/82/30 91/64/30 175/139/30
f 166/184/33 164/153/33 31/162/33
f 126/105/61 51/104/61 125/57/61
f 184/180/138 94/142/138 176/15/138
f 182/178/139 92/63/139 174/179/139
f 25/170/117 68/133/117 6/88/117
f 32/66/117 31/162/117 8/8/117
f 68/133/117 67/89/117 6/88/117
f 8/8/117 31/162/117 29/176/117
f 29/176/117 25/170/117 8/8/117
f 6/88/117 58/108/117 11/13/117
f 11/13/117 52/76/117 49/114/117
f 58/108/117 57/14/117 11/13/117
f 8/8/117 25/170/117 6/88/117
f 40/84/117 39/9/117 9/85/117
f 50/115/117 49/114/117 52/76/117
f 9/85/117 39/9/117 8/8/117
f 8/8/117 6/88/117 11/13/117
f 52/76/117 51/104/117 50/115/117
f 9/85/117 8/8/117 11/13/117
f 177/183/81 26/127/81 185/90/81
