# Blender v2.76 (sub 0) OBJ File: 'v_pipe.blend'
# www.blender.org
v 0.348511 -0.358979 -0.613748
v -0.486543 -0.908965 -0.627891
v 0.354009 -0.367243 -0.616990
v -0.481045 -0.917229 -0.631133
v 0.358888 -0.374505 -0.622690
v -0.476166 -0.924491 -0.636834
v 0.362817 -0.380269 -0.630461
v -0.472237 -0.930256 -0.644604
v 0.365526 -0.384143 -0.639771
v -0.469528 -0.934130 -0.653914
v 0.366832 -0.385864 -0.649987
v -0.468222 -0.935850 -0.664131
v 0.366646 -0.385312 -0.660413
v -0.468408 -0.935299 -0.674556
v 0.364979 -0.382527 -0.670338
v -0.470075 -0.932514 -0.684481
v 0.361947 -0.377698 -0.679086
v -0.473107 -0.927684 -0.693229
v 0.357755 -0.371154 -0.686060
v -0.477299 -0.921140 -0.700203
v 0.352689 -0.363341 -0.690786
v -0.482365 -0.913327 -0.704929
v 0.347095 -0.354791 -0.692940
v -0.487960 -0.904778 -0.707083
v 0.341353 -0.346088 -0.692377
v -0.493701 -0.896074 -0.706520
v 0.335855 -0.337823 -0.689135
v -0.499199 -0.887810 -0.703278
v 0.330975 -0.330562 -0.683435
v -0.504079 -0.880548 -0.697578
v 0.327047 -0.324797 -0.675665
v -0.508007 -0.874784 -0.689808
v 0.324338 -0.320923 -0.666354
v -0.510716 -0.870909 -0.680497
v 0.323032 -0.319203 -0.656138
v -0.512022 -0.869189 -0.670281
v 0.323218 -0.319754 -0.645712
v -0.511836 -0.869740 -0.659855
v 0.324884 -0.322539 -0.635787
v -0.510170 -0.872525 -0.649930
v 0.327917 -0.327368 -0.627039
v -0.507137 -0.877355 -0.641182
v 0.332109 -0.333912 -0.620065
v -0.502945 -0.883899 -0.634208
v 0.337175 -0.341725 -0.615340
v -0.497879 -0.891712 -0.629483
v 0.342769 -0.350275 -0.613185
v -0.492285 -0.900261 -0.627328
v 0.347912 -0.357900 -0.620325
v 0.352490 -0.364782 -0.623025
v 0.356554 -0.370829 -0.627772
v 0.359825 -0.375629 -0.634242
v 0.362081 -0.378855 -0.641995
v 0.363168 -0.380288 -0.650502
v 0.363013 -0.379829 -0.659184
v 0.361626 -0.377509 -0.667448
v 0.359100 -0.373488 -0.674732
v 0.355610 -0.368039 -0.680540
v 0.351391 -0.361533 -0.684475
v 0.346733 -0.354413 -0.686269
v 0.341951 -0.347166 -0.685800
v 0.337373 -0.340284 -0.683100
v 0.333310 -0.334237 -0.678354
v 0.330039 -0.329437 -0.671883
v 0.327783 -0.326211 -0.664130
v 0.326695 -0.324779 -0.655623
v 0.326851 -0.325238 -0.646942
v 0.328238 -0.327557 -0.638677
v 0.330763 -0.331578 -0.631393
v 0.334254 -0.337028 -0.625585
v 0.338472 -0.343533 -0.621651
v 0.343131 -0.350653 -0.619856
v 0.253764 -0.412579 -0.654607
v -0.487139 -0.907891 -0.634440
v -0.482557 -0.914779 -0.637142
v -0.478491 -0.920831 -0.641893
v -0.475216 -0.925635 -0.648369
v -0.472958 -0.928864 -0.656128
v -0.471870 -0.930298 -0.664643
v -0.472026 -0.929838 -0.673332
v -0.473414 -0.927517 -0.681604
v -0.475942 -0.923492 -0.688894
v -0.479435 -0.918038 -0.694706
v -0.483657 -0.911527 -0.698645
v -0.488320 -0.904401 -0.700440
v -0.493105 -0.897148 -0.699971
v -0.497687 -0.890260 -0.697269
v -0.501754 -0.884208 -0.692518
v -0.505027 -0.879404 -0.686042
v -0.507286 -0.876175 -0.678283
v -0.508374 -0.874741 -0.669769
v -0.508219 -0.875201 -0.661079
v -0.506830 -0.877522 -0.652808
v -0.504303 -0.881547 -0.645518
v -0.500809 -0.887001 -0.639705
v -0.496587 -0.893512 -0.635767
v -0.491924 -0.900637 -0.633971
v -0.382799 -0.831834 -0.665388
v 0.348511 -0.358979 -0.613748
v 0.354009 -0.367243 -0.616990
v -0.481045 -0.917229 -0.631133
v -0.486543 -0.908965 -0.627891
v 0.358888 -0.374505 -0.622690
v -0.476166 -0.924491 -0.636834
v 0.362817 -0.380269 -0.630461
v -0.472237 -0.930256 -0.644604
v 0.365526 -0.384143 -0.639771
v -0.469528 -0.934130 -0.653914
v 0.366832 -0.385864 -0.649987
v -0.468222 -0.935850 -0.664131
v 0.366646 -0.385312 -0.660413
v -0.468408 -0.935299 -0.674556
v 0.364979 -0.382527 -0.670338
v -0.470075 -0.932514 -0.684481
v 0.361947 -0.377698 -0.679086
v -0.473107 -0.927684 -0.693229
v 0.357755 -0.371154 -0.686060
v -0.477299 -0.921140 -0.700203
v 0.352689 -0.363341 -0.690786
v -0.482365 -0.913327 -0.704929
v 0.347095 -0.354791 -0.692940
v -0.487960 -0.904778 -0.707083
v 0.341353 -0.346088 -0.692377
v -0.493701 -0.896074 -0.706520
v 0.335855 -0.337823 -0.689135
v -0.499199 -0.887810 -0.703278
v 0.330975 -0.330562 -0.683435
v -0.504079 -0.880548 -0.697578
v 0.327047 -0.324797 -0.675665
v -0.508007 -0.874784 -0.689808
v 0.324338 -0.320923 -0.666354
v -0.510716 -0.870909 -0.680497
v 0.323032 -0.319203 -0.656138
v -0.512022 -0.869189 -0.670281
v 0.323218 -0.319754 -0.645712
v -0.511836 -0.869740 -0.659855
v 0.324884 -0.322539 -0.635787
v -0.510170 -0.872525 -0.649930
v 0.327917 -0.327368 -0.627039
v -0.507137 -0.877355 -0.641182
v 0.332109 -0.333912 -0.620065
v -0.502945 -0.883899 -0.634208
v 0.337175 -0.341725 -0.615340
v -0.497879 -0.891712 -0.629483
v 0.342769 -0.350275 -0.613185
v -0.492285 -0.900261 -0.627328
v 0.347912 -0.357900 -0.620325
v 0.352490 -0.364782 -0.623025
v 0.356554 -0.370829 -0.627772
v 0.359825 -0.375629 -0.634242
v 0.362081 -0.378855 -0.641995
v 0.363168 -0.380288 -0.650502
v 0.363013 -0.379829 -0.659184
v 0.361626 -0.377509 -0.667448
v 0.359100 -0.373488 -0.674732
v 0.355610 -0.368039 -0.680540
v 0.351391 -0.361533 -0.684475
v 0.346733 -0.354413 -0.686269
v 0.341951 -0.347166 -0.685800
v 0.337373 -0.340284 -0.683100
v 0.333310 -0.334237 -0.678354
v 0.330039 -0.329437 -0.671883
v 0.327783 -0.326211 -0.664130
v 0.326695 -0.324779 -0.655623
v 0.326851 -0.325238 -0.646942
v 0.328238 -0.327557 -0.638677
v 0.330763 -0.331578 -0.631393
v 0.334254 -0.337028 -0.625585
v 0.338472 -0.343533 -0.621651
v 0.343131 -0.350653 -0.619856
v -0.482557 -0.914779 -0.637142
v -0.487139 -0.907891 -0.634440
v -0.478491 -0.920831 -0.641893
v -0.475216 -0.925635 -0.648369
v -0.472958 -0.928864 -0.656128
v -0.471870 -0.930298 -0.664643
v -0.472026 -0.929838 -0.673332
v -0.473414 -0.927517 -0.681604
v -0.475942 -0.923492 -0.688894
v -0.479435 -0.918038 -0.694706
v -0.483657 -0.911527 -0.698645
v -0.488320 -0.904401 -0.700440
v -0.493105 -0.897148 -0.699971
v -0.497687 -0.890260 -0.697269
v -0.501754 -0.884208 -0.692518
v -0.505027 -0.879404 -0.686042
v -0.507286 -0.876175 -0.678283
v -0.508374 -0.874741 -0.669769
v -0.508219 -0.875201 -0.661079
v -0.506830 -0.877522 -0.652808
v -0.504303 -0.881547 -0.645518
v -0.500809 -0.887001 -0.639705
v -0.496587 -0.893512 -0.635767
v -0.491924 -0.900637 -0.633971
vt 0.500465 0.000000
vt 0.512163 0.000000
vt 0.512163 1.000000
vt 0.523064 0.000000
vt 0.523064 1.000000
vt 0.532425 0.000000
vt 0.532425 1.000000
vt 0.539607 0.000000
vt 0.539607 1.000000
vt 0.546930 0.000000
vt 0.546930 0.007751
vt 0.554053 0.007751
vt 0.554053 1.007751
vt 0.554053 0.000000
vt 0.547199 0.000000
vt 0.547199 1.000000
vt 0.500465 1.000000
vt 0.488767 0.000000
vt 0.477866 0.000000
vt 0.477866 1.000000
vt 0.468505 0.000000
vt 0.468505 1.000000
vt 0.461323 0.000000
vt 0.453146 0.000000
vt 0.453146 1.000000
vt 0.453146 1.007862
vt 0.453146 0.007862
vt 0.446877 0.007862
vt 0.446877 0.000000
vt 0.453731 0.000000
vt 0.453731 1.000000
vt 0.461323 1.000000
vt 0.188512 0.942384
vt 0.175262 0.934734
vt 0.182909 0.916272
vt 0.488767 1.000000
vt 0.154934 0.816215
vt 0.174002 0.830846
vt 0.163111 0.841738
vt 0.188634 0.941983
vt 0.175295 0.934282
vt 0.182954 0.915792
vt 0.062866 0.975683
vt 0.043798 0.961051
vt 0.054689 0.950160
vt 0.029166 0.849914
vt 0.042505 0.857616
vt 0.034846 0.876106
vt 0.108900 0.988018
vt 0.085071 0.984880
vt 0.089057 0.970003
vt 0.132729 0.807017
vt 0.128742 0.821895
vt 0.108900 0.819283
vt 0.200969 0.895949
vt 0.185566 0.895949
vt 0.182954 0.876106
vt 0.154934 0.975683
vt 0.132729 0.984880
vt 0.128742 0.970003
vt 0.019968 0.919778
vt 0.016831 0.895949
vt 0.032234 0.895949
vt 0.062866 0.816215
vt 0.085071 0.807017
vt 0.089057 0.821895
vt 0.188634 0.849914
vt 0.175295 0.857616
vt 0.174002 0.961051
vt 0.163111 0.950160
vt 0.029166 0.941983
vt 0.042505 0.934282
vt 0.043798 0.830846
vt 0.054689 0.841738
vt 0.147233 0.829554
vt 0.197831 0.919778
vt 0.108900 0.972615
vt 0.070567 0.962344
vt 0.019968 0.872120
vt 0.108900 0.803880
vt 0.197831 0.872120
vt 0.147233 0.962344
vt 0.034846 0.915792
vt 0.070567 0.829554
vt 0.107272 0.598059
vt 0.107272 0.578007
vt 0.016452 0.639838
vt 0.107271 0.739994
vt 0.107271 0.743294
vt 0.016452 0.659284
vt 0.107271 0.730322
vt 0.107272 0.621411
vt 0.107272 0.562619
vt 0.016452 0.637091
vt 0.107271 0.714935
vt 0.016452 0.657959
vt 0.107271 0.646470
vt 0.016452 0.643037
vt 0.107272 0.552947
vt 0.016452 0.634982
vt 0.107271 0.694882
vt 0.016452 0.655851
vt 0.107272 0.671530
vt 0.016452 0.646470
vt 0.107272 0.549648
vt 0.016452 0.633657
vt 0.016452 0.653103
vt 0.016452 0.649904
vt 0.016452 0.633205
vt 0.016452 0.659736
vt 0.173916 0.831513
vt 0.163097 0.842332
vt 0.147243 0.830167
vt 0.044022 0.831513
vt 0.063044 0.816916
vt 0.070695 0.830167
vt 0.020250 0.920232
vt 0.035029 0.916272
vt 0.042676 0.934734
vt 0.154893 0.976003
vt 0.147243 0.962753
vt 0.163097 0.950588
vt 0.188512 0.850535
vt 0.197688 0.872688
vt 0.182909 0.876648
vt 0.132741 0.985179
vt 0.108969 0.988309
vt 0.108969 0.973008
vt 0.085197 0.807741
vt 0.108969 0.804611
vt 0.108969 0.819911
vt 0.020250 0.872688
vt 0.035029 0.876648
vt 0.032421 0.896460
vt 0.063044 0.976003
vt 0.070695 0.962752
vt 0.089157 0.970400
vt 0.200818 0.896460
vt 0.197688 0.920232
vt 0.132741 0.807741
vt 0.154893 0.816916
vt 0.054841 0.842332
vt 0.042676 0.858186
vt 0.029425 0.942384
vt 0.054841 0.950588
vt 0.173916 0.961407
vt 0.175262 0.858186
vt 0.089157 0.822520
vt 0.017120 0.896460
vt 0.085197 0.985179
vt 0.128781 0.970400
vt 0.185517 0.896460
vt 0.128781 0.822520
vt 0.029425 0.850535
vt 0.044022 0.961407
vt 0.109859 0.547112
vt 0.109859 0.550510
vt 0.014630 0.633231
vt 0.109859 0.560472
vt 0.014630 0.635053
vt 0.109859 0.672644
vt 0.109859 0.696695
vt 0.014630 0.650355
vt 0.109859 0.733196
vt 0.109859 0.717348
vt 0.014630 0.658615
vt 0.109859 0.576320
vt 0.014630 0.637215
vt 0.109859 0.646834
vt 0.014630 0.646834
vt 0.109859 0.743158
vt 0.014630 0.659974
vt 0.109859 0.596973
vt 0.014630 0.640032
vt 0.109859 0.621024
vt 0.014630 0.643313
vt 0.109859 0.746556
vt 0.014630 0.660437
vt 0.014630 0.656453
vt 0.014630 0.653635
vt 0.014630 0.633694
vt 0.546930 1.000000
vt 0.546930 1.007751
vt 0.554053 1.000000
vt 0.446877 1.007861
vt 0.446877 1.000000
vn 0.089400 -0.161100 0.982800
vn 0.226900 -0.367700 0.901800
vn 0.348900 -0.549300 0.759300
vn 0.447100 -0.693400 0.565000
vn 0.514800 -0.790200 0.332300
vn 0.547500 -0.833200 0.076900
vn 0.542800 -0.819500 -0.183800
vn 0.501200 -0.749800 -0.431900
vn 0.425400 -0.629100 -0.650600
vn 0.320600 -0.465500 -0.824900
vn 0.193900 -0.270200 -0.943100
vn 0.054000 -0.056400 -0.996900
vn -0.089500 0.161100 -0.982800
vn -0.089400 0.161100 -0.982800
vn -0.226900 0.367700 -0.901800
vn -0.348900 0.549300 -0.759300
vn -0.447100 0.693400 -0.565000
vn -0.514800 0.790200 -0.332300
vn -0.547500 0.833200 -0.076900
vn -0.547500 0.833200 -0.076800
vn -0.542800 0.819500 0.183800
vn -0.501200 0.749800 0.431900
vn -0.425400 0.629100 0.650600
vn -0.320600 0.465500 0.824900
vn -0.193900 0.270200 0.943100
vn -0.835000 -0.549900 -0.014100
vn -0.835000 -0.550000 -0.014100
vn -0.054000 0.056400 0.996900
vn 0.835000 0.550000 0.014100
vn 0.835000 0.549900 0.014100
vn -0.163200 0.762200 0.626400
vn -0.062900 0.605700 0.793100
vn 0.295400 0.106500 -0.949400
vn 0.158100 0.314600 -0.935900
vn 0.026600 0.512200 -0.858400
vn -0.090000 0.685800 -0.722100
vn 0.736100 -0.595400 0.321900
vn 0.767300 -0.636500 0.077600
vn 0.058200 0.418900 0.906100
vn -0.184000 0.823700 -0.536300
vn 0.762900 -0.623300 -0.171600
vn 0.192000 0.214500 0.957700
vn -0.248800 0.916300 -0.313700
vn 0.723000 -0.556700 -0.408900
vn 0.329200 0.006300 0.944200
vn -0.280000 0.957500 -0.069400
vn 0.650500 -0.441200 -0.618100
vn 0.460700 -0.191200 0.866700
vn -0.275500 0.944300 0.179900
vn 0.550300 -0.284800 -0.784900
vn 0.577400 -0.364900 0.730400
vn -0.235700 0.877700 0.417200
vn 0.429200 -0.097900 -0.897900
vn 0.671300 -0.502700 0.544600
vn -0.835000 -0.550000 -0.014200
vn -0.835000 -0.549900 -0.014200
vn -0.296300 0.017900 -0.954900
vn -0.157300 -0.192700 -0.968500
vn -0.547400 0.393600 -0.738500
vn -0.429300 0.217900 -0.876500
vn 0.320300 -0.944600 0.070900
vn 0.288700 -0.903000 0.318100
vn -0.397400 0.123400 0.909300
vn -0.519900 0.312500 0.794900
vn -0.642400 0.533100 -0.550500
vn 0.315800 -0.931300 -0.181400
vn -0.262000 -0.083400 0.961400
vn -0.708000 0.626900 -0.325200
vn 0.275500 -0.863900 -0.421600
vn -0.123000 -0.294000 0.947800
vn -0.739600 0.668500 -0.077900
vn 0.202100 -0.747100 -0.633300
vn 0.010000 -0.494000 0.869400
vn -0.735100 0.655100 0.174300
vn 0.100600 -0.588700 -0.802100
vn 0.128100 -0.669800 0.731400
vn -0.694800 0.587700 0.414500
vn -0.021900 -0.399600 -0.916400
vn 0.223100 -0.809300 0.543400
vn -0.621400 0.470900 0.626200
vn 0.547500 -0.833200 0.076800
s 1
f 102/1/1 101/2/2 100/3/2
f 101/2/2 104/4/3 103/5/3
f 104/4/3 106/6/4 105/7/4
f 105/7/4 106/6/4 108/8/5
f 107/9/5 108/8/5 110/10/6
f 110/11/6 112/12/7 111/13/7
f 112/14/7 114/15/8 113/16/8
f 113/16/8 114/15/8 116/8/9
f 116/8/9 118/6/10 117/7/10
f 118/6/10 120/4/11 119/5/11
f 120/4/11 122/2/12 121/3/12
f 122/2/12 124/1/13 123/17/14
f 123/17/14 124/1/13 126/18/15
f 126/18/15 128/19/16 127/20/16
f 128/19/16 130/21/17 129/22/17
f 129/22/17 130/21/17 132/23/18
f 132/23/18 134/24/19 133/25/20
f 133/26/20 134/27/19 136/28/21
f 136/29/21 138/30/22 137/31/22
f 138/30/22 140/23/23 139/32/23
f 140/23/23 142/21/24 141/22/24
f 141/22/24 142/21/24 144/19/25
f 10/33/26 175/34/26 176/35/27
f 145/36/28 146/18/28 102/1/1
f 143/20/25 144/19/25 146/18/28
f 29/37/29 31/38/29 162/39/29
f 41/40/29 167/41/29 166/42/29
f 5/43/29 7/44/30 150/45/30
f 17/46/29 155/47/29 154/48/29
f 1/49/29 3/50/29 148/51/29
f 27/52/29 160/53/29 159/54/29
f 37/55/29 165/56/30 164/57/29
f 45/58/29 47/59/29 170/60/29
f 11/61/29 13/62/29 153/63/29
f 21/64/29 23/65/29 158/66/29
f 33/67/29 163/68/29 162/39/29
f 43/69/29 168/70/29 167/41/29
f 7/44/30 9/71/29 151/72/29
f 19/73/29 156/74/29 155/47/29
f 29/37/29 161/75/29 160/53/29
f 37/55/29 39/76/29 166/42/29
f 47/59/29 1/49/29 147/77/29
f 5/43/29 149/78/29 148/51/29
f 13/62/29 15/79/30 154/48/29
f 25/80/29 159/54/29 158/66/29
f 33/67/29 35/81/29 164/57/29
f 43/69/29 45/58/29 169/82/29
f 9/71/29 11/61/29 152/83/29
f 19/73/29 21/64/29 157/84/29
f 57/85/31 58/86/32 73/87/29
f 72/88/33 49/89/34 73/90/29
f 50/88/35 51/91/36 73/90/29
f 65/85/37 66/92/38 73/87/29
f 58/86/32 59/93/39 73/94/29
f 51/91/36 52/95/40 73/96/29
f 66/92/38 67/97/41 73/98/29
f 59/93/39 60/99/42 73/100/29
f 52/95/40 53/101/43 73/102/29
f 67/97/41 68/103/44 73/104/29
f 60/99/42 61/105/45 73/106/29
f 53/101/43 54/103/46 73/107/29
f 68/103/44 69/101/47 73/108/29
f 61/105/45 62/99/48 73/109/29
f 54/103/46 55/97/49 73/108/29
f 69/101/47 70/95/50 73/107/29
f 62/99/48 63/93/51 73/106/29
f 55/97/49 56/92/52 73/104/29
f 70/95/50 71/91/53 73/102/29
f 63/93/51 64/86/54 73/100/29
f 56/92/52 57/85/31 73/98/29
f 71/91/53 72/88/33 73/96/29
f 49/89/34 50/88/35 73/110/29
f 64/86/54 65/85/37 73/94/29
f 20/111/27 180/112/27 181/113/27
f 32/114/27 30/115/27 185/116/27
f 40/117/27 190/118/55 191/119/27
f 6/120/56 173/121/26 174/122/55
f 18/123/27 16/124/27 178/125/27
f 4/126/27 2/127/27 172/128/27
f 28/129/27 26/130/27 183/131/27
f 36/132/27 188/133/27 189/134/27
f 46/135/27 193/136/27 194/137/55
f 14/138/26 12/139/27 176/35/27
f 24/140/27 22/141/27 181/113/27
f 32/114/27 186/142/27 187/143/27
f 42/144/27 191/119/27 192/145/27
f 8/146/55 174/122/55 175/34/26
f 20/111/27 18/123/27 179/147/27
f 28/129/27 184/148/27 185/116/27
f 40/117/27 38/149/26 189/134/27
f 48/150/55 194/137/55 172/128/27
f 4/126/27 171/151/27 173/121/26
f 16/124/27 14/138/26 177/152/26
f 24/140/27 182/153/27 183/131/27
f 36/132/27 34/154/27 187/143/27
f 46/135/27 44/155/26 192/145/27
f 74/156/57 97/157/58 98/158/27
f 76/159/59 75/157/60 98/160/27
f 91/161/61 90/162/62 98/163/27
f 84/164/63 83/165/64 98/166/27
f 77/167/65 76/159/59 98/168/27
f 92/169/66 91/161/61 98/170/27
f 85/171/67 84/164/63 98/172/27
f 78/173/68 77/167/65 98/174/27
f 93/175/69 92/169/66 98/176/27
f 86/177/70 85/171/67 98/178/27
f 79/175/71 78/173/68 98/176/27
f 94/173/72 93/175/69 98/174/27
f 87/171/73 86/177/70 98/172/27
f 80/169/74 79/175/71 98/170/27
f 95/167/75 94/173/72 98/168/27
f 88/164/76 87/171/73 98/166/27
f 81/161/77 80/169/74 98/163/27
f 96/159/78 95/167/75 98/160/27
f 89/165/79 88/164/76 98/179/27
f 82/162/80 81/161/77 98/180/27
f 97/157/58 96/159/78 98/181/27
f 75/157/60 74/156/57 98/181/27
f 90/162/62 89/165/79 98/180/27
f 83/165/64 82/162/80 98/179/27
f 99/17/1 102/1/1 100/3/2
f 100/3/2 101/2/2 103/5/3
f 103/5/3 104/4/3 105/7/4
f 107/9/5 105/7/4 108/8/5
f 109/182/81 107/9/5 110/10/6
f 109/183/81 110/11/6 111/13/7
f 111/184/7 112/14/7 113/16/8
f 115/9/9 113/16/8 116/8/9
f 115/9/9 116/8/9 117/7/10
f 117/7/10 118/6/10 119/5/11
f 119/5/11 120/4/11 121/3/12
f 121/3/12 122/2/12 123/17/14
f 125/36/15 123/17/14 126/18/15
f 125/36/15 126/18/15 127/20/16
f 127/20/16 128/19/16 129/22/17
f 131/32/18 129/22/17 132/23/18
f 131/32/18 132/23/18 133/25/20
f 135/185/21 133/26/20 136/28/21
f 135/186/21 136/29/21 137/31/22
f 137/31/22 138/30/22 139/32/23
f 139/32/23 140/23/23 141/22/24
f 143/20/25 141/22/24 144/19/25
f 12/139/27 10/33/26 176/35/27
f 99/17/1 145/36/28 102/1/1
f 145/36/28 143/20/25 146/18/28
f 161/75/29 29/37/29 162/39/29
f 39/76/29 41/40/29 166/42/29
f 149/78/29 5/43/29 150/45/30
f 15/79/30 17/46/29 154/48/29
f 147/77/29 1/49/29 148/51/29
f 25/80/29 27/52/29 159/54/29
f 35/81/29 37/55/29 164/57/29
f 169/82/29 45/58/29 170/60/29
f 152/83/29 11/61/29 153/63/29
f 157/84/29 21/64/29 158/66/29
f 31/38/29 33/67/29 162/39/29
f 41/40/29 43/69/29 167/41/29
f 150/45/30 7/44/30 151/72/29
f 17/46/29 19/73/29 155/47/29
f 27/52/29 29/37/29 160/53/29
f 165/56/30 37/55/29 166/42/29
f 170/60/29 47/59/29 147/77/29
f 3/50/29 5/43/29 148/51/29
f 153/63/29 13/62/29 154/48/29
f 23/65/29 25/80/29 158/66/29
f 163/68/29 33/67/29 164/57/29
f 168/70/29 43/69/29 169/82/29
f 151/72/29 9/71/29 152/83/29
f 156/74/29 19/73/29 157/84/29
f 22/141/27 20/111/27 181/113/27
f 186/142/27 32/114/27 185/116/27
f 42/144/27 40/117/27 191/119/27
f 8/146/55 6/120/56 174/122/55
f 179/147/27 18/123/27 178/125/27
f 171/151/27 4/126/27 172/128/27
f 184/148/27 28/129/27 183/131/27
f 38/149/26 36/132/27 189/134/27
f 48/150/55 46/135/27 194/137/55
f 177/152/26 14/138/26 176/35/27
f 182/153/27 24/140/27 181/113/27
f 34/154/27 32/114/27 187/143/27
f 44/155/26 42/144/27 192/145/27
f 10/33/26 8/146/55 175/34/26
f 180/112/27 20/111/27 179/147/27
f 30/115/27 28/129/27 185/116/27
f 190/118/55 40/117/27 189/134/27
f 2/127/27 48/150/55 172/128/27
f 6/120/56 4/126/27 173/121/26
f 178/125/27 16/124/27 177/152/26
f 26/130/27 24/140/27 183/131/27
f 188/133/27 36/132/27 187/143/27
f 193/136/27 46/135/27 192/145/27
