v -0.205412 -0.547360 -0.596213
v -1.441795 -1.148696 -0.607906
v -0.209514 -0.538920 -0.598261
v -1.444058 -1.144040 -0.609035
v -0.213701 -0.530443 -0.596562
v -1.446368 -1.139364 -0.608098
v -0.217333 -0.523222 -0.591375
v -1.448372 -1.135380 -0.605237
v -0.219860 -0.518354 -0.583489
v -1.449765 -1.132694 -0.600886
v -0.220895 -0.516581 -0.574106
v -1.450336 -1.131716 -0.595710
v -0.220281 -0.518173 -0.564654
v -1.449998 -1.132594 -0.590496
v -0.218112 -0.522887 -0.556571
v -1.448801 -1.135195 -0.586037
v -0.214719 -0.530006 -0.551089
v -1.446929 -1.139123 -0.583012
v -0.210616 -0.538446 -0.549041
v -1.444666 -1.143779 -0.581883
v -0.206430 -0.546922 -0.550741
v -1.442356 -1.148455 -0.582820
v -0.202797 -0.554144 -0.555928
v -1.440352 -1.152439 -0.585682
v -0.200271 -0.559012 -0.563813
v -1.438959 -1.155124 -0.590032
v -0.199236 -0.560785 -0.573196
v -1.438388 -1.156102 -0.595208
v -0.199849 -0.559193 -0.582648
v -1.438726 -1.155224 -0.600423
v -0.202018 -0.554479 -0.590731
v -1.439923 -1.152624 -0.604882
v -0.197176 -0.562718 -0.636148
v -0.208539 -0.539338 -0.641819
v -0.220135 -0.515860 -0.637113
v -0.230198 -0.495855 -0.622745
v -0.237196 -0.482371 -0.600902
v -0.240063 -0.477460 -0.574911
v -0.238364 -0.481869 -0.548728
v -0.232356 -0.494928 -0.526340
v -0.222955 -0.514648 -0.511154
v -0.211591 -0.538027 -0.505483
v -0.199995 -0.561506 -0.510189
v -0.189933 -0.581510 -0.524558
v -0.182935 -0.594995 -0.546400
v -0.180067 -0.599906 -0.572391
v -0.181767 -0.595496 -0.598574
v -0.187775 -0.582438 -0.620962
v -1.471749 -1.162235 -0.606062
v -1.473583 -1.158464 -0.606977
v -1.475453 -1.154676 -0.606217
v -1.477076 -1.151449 -0.603900
v -1.478205 -1.149274 -0.600376
v -1.478668 -1.148482 -0.596183
v -1.478394 -1.149193 -0.591959
v -1.477425 -1.151300 -0.588347
v -1.475908 -1.154481 -0.585898
v -1.474075 -1.158252 -0.584983
v -1.472204 -1.162040 -0.585742
v -1.470581 -1.165267 -0.588060
v -1.469452 -1.167442 -0.591584
v -1.468989 -1.168235 -0.595776
v -1.469264 -1.167523 -0.600000
v -1.470233 -1.165417 -0.603612
v -0.181571 -0.555066 -0.635872
v -0.192934 -0.531687 -0.641544
v -0.204530 -0.508208 -0.636837
v -0.214593 -0.488203 -0.622469
v -0.221590 -0.474719 -0.600627
v -0.224458 -0.469808 -0.574636
v -0.222758 -0.474218 -0.548453
v -0.216751 -0.487276 -0.526064
v -0.207349 -0.506996 -0.510878
v -0.195986 -0.530375 -0.505207
v -0.184390 -0.553854 -0.509914
v -0.174327 -0.573858 -0.524282
v -0.167330 -0.587343 -0.546124
v -0.164462 -0.592254 -0.572115
v -0.166162 -0.587844 -0.598298
v -0.172169 -0.574786 -0.620687
v -0.180148 -0.541660 -0.609586
v -0.186754 -0.528069 -0.612883
v -0.193495 -0.514420 -0.610147
v -0.199345 -0.502790 -0.601794
v -0.203413 -0.494952 -0.589097
v -0.205080 -0.492097 -0.573987
v -0.204092 -0.494660 -0.558767
v -0.200600 -0.502252 -0.545751
v -0.195134 -0.513715 -0.536923
v -0.188528 -0.527306 -0.533626
v -0.181787 -0.540955 -0.536363
v -0.175938 -0.552585 -0.544715
v -0.171870 -0.560423 -0.557413
v -0.170203 -0.563278 -0.572522
v -0.171191 -0.560715 -0.587743
v -0.174683 -0.553123 -0.600758
v -0.182179 -0.537873 -0.599740
v -0.186995 -0.527965 -0.602143
v -0.191909 -0.518016 -0.600148
v -0.196173 -0.509538 -0.594060
v -0.199139 -0.503824 -0.584803
v -0.200354 -0.501743 -0.573789
v -0.199634 -0.503611 -0.562693
v -0.197088 -0.509145 -0.553205
v -0.193104 -0.517502 -0.546770
v -0.188288 -0.527410 -0.544367
v -0.183374 -0.537359 -0.546361
v -0.179110 -0.545837 -0.552450
v -0.176144 -0.551551 -0.561706
v -0.174929 -0.553632 -0.572721
v -0.175649 -0.551764 -0.583817
v -0.178195 -0.546230 -0.593304
v -0.037438 -0.466900 -0.597182
v -0.042254 -0.456993 -0.599586
v -0.047168 -0.447043 -0.597591
v -0.051432 -0.438566 -0.591502
v -0.054398 -0.432852 -0.582246
v -0.055613 -0.430770 -0.571232
v -0.054893 -0.432639 -0.560136
v -0.052347 -0.438173 -0.550648
v -0.048363 -0.446530 -0.544213
v -0.043547 -0.456437 -0.541809
v -0.038633 -0.466387 -0.543804
v -0.034369 -0.474864 -0.549893
v -0.031403 -0.480579 -0.559149
v -0.030188 -0.482660 -0.570163
v -0.030908 -0.480791 -0.581259
v -0.033454 -0.475257 -0.590747
v -0.029114 -0.459161 -0.589477
v -0.032560 -0.452071 -0.591197
v -0.036077 -0.444950 -0.589769
v -0.039129 -0.438883 -0.585412
v -0.041251 -0.434794 -0.578788
v -0.042121 -0.433305 -0.570905
v -0.041605 -0.434642 -0.562965
v -0.039783 -0.438602 -0.556175
v -0.036932 -0.444583 -0.551569
v -0.033486 -0.451673 -0.549849
v -0.029969 -0.458793 -0.551277
v -0.026917 -0.464860 -0.555634
v -0.024795 -0.468950 -0.562258
v -0.023926 -0.470439 -0.570141
v -0.024441 -0.469102 -0.578081
v -0.026263 -0.465141 -0.584871
v -0.131022 -0.445240 -0.524549
v -0.121621 -0.464960 -0.509364
v -0.110258 -0.488339 -0.503692
v -0.098100 -0.436510 -0.533214
v -0.089664 -0.454226 -0.518998
v -0.079266 -0.475601 -0.514296
v -0.055404 -0.434496 -0.559205
v -0.048932 -0.448135 -0.546962
v -0.040499 -0.465432 -0.544234
v -0.194882 -0.532266 -0.515211
v -0.205376 -0.510677 -0.520448
v -0.121199 -0.469401 -0.518960
v -0.110668 -0.490921 -0.513733
v -0.214057 -0.492466 -0.534471
v -0.129806 -0.451197 -0.532957
v -0.092520 -0.459755 -0.527579
v -0.082832 -0.479272 -0.523351
v -0.100070 -0.443494 -0.540665
v -0.053338 -0.453884 -0.554457
v -0.045510 -0.469409 -0.552231
v -0.058898 -0.441620 -0.565679
v -0.205412 -0.547360 -0.596213
v -0.209514 -0.538920 -0.598261
v -0.213701 -0.530443 -0.596562
v -0.217333 -0.523222 -0.591375
v -0.219860 -0.518354 -0.583489
v -0.220895 -0.516581 -0.574106
v -0.220281 -0.518173 -0.564654
v -0.218112 -0.522887 -0.556571
v -0.214719 -0.530006 -0.551089
v -0.210616 -0.538446 -0.549041
v -0.206430 -0.546922 -0.550741
v -0.202797 -0.554144 -0.555928
v -0.200271 -0.559012 -0.563813
v -0.199236 -0.560785 -0.573196
v -0.199849 -0.559193 -0.582648
v -0.202018 -0.554479 -0.590731
v -0.197176 -0.562718 -0.636148
v -0.208539 -0.539338 -0.641819
v -0.220135 -0.515860 -0.637113
v -0.230198 -0.495855 -0.622745
v -0.237196 -0.482371 -0.600902
v -0.240063 -0.477460 -0.574911
v -0.238364 -0.481869 -0.548728
v -0.232356 -0.494928 -0.526340
v -0.222955 -0.514648 -0.511154
v -0.211591 -0.538027 -0.505483
v -0.199995 -0.561506 -0.510189
v -0.189933 -0.581510 -0.524558
v -0.182935 -0.594995 -0.546400
v -0.180067 -0.599906 -0.572391
v -0.181767 -0.595496 -0.598574
v -0.187775 -0.582438 -0.620962
v -1.473583 -1.158464 -0.606977
v -1.471749 -1.162235 -0.606062
v -1.475453 -1.154676 -0.606217
v -1.477076 -1.151449 -0.603900
v -1.478205 -1.149274 -0.600376
v -1.478668 -1.148482 -0.596183
v -1.478394 -1.149193 -0.591959
v -1.477425 -1.151300 -0.588347
v -1.475908 -1.154481 -0.585898
v -1.474075 -1.158252 -0.584983
v -1.472204 -1.162040 -0.585742
v -1.470581 -1.165267 -0.588060
v -1.469452 -1.167442 -0.591584
v -1.468989 -1.168235 -0.595776
v -1.469264 -1.167523 -0.600000
v -1.470233 -1.165417 -0.603612
v -0.181571 -0.555066 -0.635872
v -0.192934 -0.531687 -0.641544
v -0.204530 -0.508208 -0.636837
v -0.214593 -0.488203 -0.622469
v -0.221590 -0.474719 -0.600627
v -0.224458 -0.469808 -0.574636
v -0.222758 -0.474218 -0.548453
v -0.216751 -0.487276 -0.526064
v -0.216751 -0.487276 -0.526064
v -0.216751 -0.487276 -0.526064
v -0.216751 -0.487276 -0.526064
v -0.207349 -0.506996 -0.510878
v -0.207349 -0.506996 -0.510878
v -0.207349 -0.506996 -0.510878
v -0.195986 -0.530375 -0.505207
v -0.195986 -0.530375 -0.505207
v -0.195986 -0.530375 -0.505207
v -0.195986 -0.530375 -0.505207
v -0.184390 -0.553854 -0.509914
v -0.174327 -0.573858 -0.524282
v -0.167330 -0.587343 -0.546124
v -0.164462 -0.592254 -0.572115
v -0.166162 -0.587844 -0.598298
v -0.172169 -0.574786 -0.620687
v -0.182179 -0.537873 -0.599740
v -0.186995 -0.527965 -0.602143
v -0.191909 -0.518016 -0.600148
v -0.196173 -0.509538 -0.594060
v -0.199139 -0.503824 -0.584803
v -0.200354 -0.501743 -0.573789
v -0.199634 -0.503611 -0.562693
v -0.197088 -0.509145 -0.553205
v -0.193104 -0.517502 -0.546770
v -0.188288 -0.527410 -0.544367
v -0.183374 -0.537359 -0.546361
v -0.179110 -0.545837 -0.552450
v -0.176144 -0.551551 -0.561706
v -0.174929 -0.553632 -0.572721
v -0.175649 -0.551764 -0.583817
v -0.178195 -0.546230 -0.593304
v -0.037438 -0.466900 -0.597182
v -0.042254 -0.456993 -0.599586
v -0.047168 -0.447043 -0.597591
v -0.051432 -0.438566 -0.591502
v -0.054398 -0.432852 -0.582246
v -0.055613 -0.430770 -0.571232
v -0.054893 -0.432639 -0.560136
v -0.052347 -0.438173 -0.550648
v -0.048363 -0.446530 -0.544213
v -0.043547 -0.456437 -0.541809
v -0.038633 -0.466387 -0.543804
v -0.034369 -0.474864 -0.549893
v -0.031403 -0.480579 -0.559149
v -0.030188 -0.482660 -0.570163
v -0.030908 -0.480791 -0.581259
v -0.033454 -0.475257 -0.590747
v -0.029114 -0.459161 -0.589477
v -0.032560 -0.452071 -0.591197
v -0.036077 -0.444950 -0.589769
v -0.039129 -0.438883 -0.585412
v -0.041251 -0.434794 -0.578788
v -0.042121 -0.433305 -0.570905
v -0.041605 -0.434642 -0.562965
v -0.039783 -0.438602 -0.556175
v -0.036932 -0.444583 -0.551569
v -0.033486 -0.451673 -0.549849
v -0.029969 -0.458793 -0.551277
v -0.026917 -0.464860 -0.555634
v -0.024795 -0.468950 -0.562258
v -0.023926 -0.470439 -0.570141
v -0.024441 -0.469102 -0.578081
v -0.026263 -0.465141 -0.584871
v -0.110258 -0.488339 -0.503692
v -0.131022 -0.445240 -0.524549
v -0.079266 -0.475601 -0.514296
v -0.098100 -0.436510 -0.533214
v -0.055404 -0.434496 -0.559205
v -0.055404 -0.434496 -0.559205
v -0.048932 -0.448135 -0.546962
v -0.040499 -0.465432 -0.544234
v -0.040499 -0.465432 -0.544234
v -0.205376 -0.510677 -0.520448
v -0.194882 -0.532266 -0.515211
v -0.194882 -0.532266 -0.515211
v -0.110668 -0.490921 -0.513733
v -0.214057 -0.492466 -0.534471
v -0.214057 -0.492466 -0.534471
v -0.129806 -0.451197 -0.532957
v -0.082832 -0.479272 -0.523351
v -0.100070 -0.443494 -0.540665
v -0.053338 -0.453884 -0.554457
v -0.045510 -0.469409 -0.552231
v -0.045510 -0.469409 -0.552231
v -0.058898 -0.441620 -0.565679
v -0.058898 -0.441620 -0.565679
vt 0.000279 0.693228
vt 0.878256 0.693114
vt 0.878256 0.699227
vt 0.000279 0.699332
vt 0.878256 0.716634
vt 0.000279 0.716715
vt 0.878256 0.742686
vt 0.000279 0.742730
vt 0.878256 0.773417
vt 0.000279 0.773418
vt 0.878256 0.804148
vt 0.000279 0.804105
vt 0.878256 0.830200
vt 0.000279 0.830121
vt 0.878256 0.847608
vt 0.000279 0.847503
vt 0.878256 0.853720
vt 0.000279 0.853607
vt 0.895358 0.713323
vt 0.895358 0.727423
vt 0.641239 0.514579
vt 0.628601 0.533492
vt 0.701564 0.606454
vt 0.736568 0.554066
vt 0.587379 0.550566
vt 0.565070 0.546129
vt 0.525583 0.641459
vt 0.587379 0.653751
vt 0.533520 0.514579
vt 0.529082 0.492270
vt 0.425898 0.492270
vt 0.438190 0.554066
vt 0.641239 0.469960
vt 0.645676 0.492270
vt 0.748860 0.492270
vt 0.736568 0.430474
vt 0.546157 0.451048
vt 0.565070 0.438410
vt 0.525583 0.343080
vt 0.473195 0.378085
vt 0.609689 0.546129
vt 0.649175 0.641459
vt 0.546157 0.533492
vt 0.473195 0.606454
vt 0.609689 0.438410
vt 0.628601 0.451048
vt 0.701564 0.378085
vt 0.649175 0.343081
vt 0.533520 0.469960
vt 0.438190 0.430474
vt 0.587379 0.433973
vt 0.587379 0.330789
vt 0.919436 0.768072
vt 0.919436 0.767591
vt 0.919436 0.769440
vt 0.919436 0.771489
vt 0.919436 0.773905
vt 0.919436 0.776322
vt 0.919436 0.778370
vt 0.919436 0.779739
vt 0.919436 0.780220
vt 0.895358 0.773417
vt 0.895358 0.748525
vt 0.895358 0.798310
vt 0.895358 0.708371
vt 0.895358 0.833512
vt 0.895358 0.838463
vt 0.895358 0.819412
vt 0.207072 0.653717
vt 0.183987 0.653717
vt 0.183987 0.596723
vt 0.207072 0.596723
vt 0.108685 0.653717
vt 0.149438 0.653717
vt 0.149438 0.596723
vt 0.108685 0.596723
vt 0.033383 0.653717
vt 0.067932 0.653717
vt 0.067932 0.596723
vt 0.033383 0.596723
vt 0.283493 0.644166
vt 0.240535 0.644166
vt 0.240535 0.615315
vt 0.283493 0.615315
vt 0.010298 0.653717
vt 0.010298 0.596723
vt 0.215179 0.653717
vt 0.215179 0.596723
vt 0.326451 0.644166
vt 0.326451 0.615315
vt 0.149327 0.635129
vt 0.108461 0.635129
vt 0.108461 0.623032
vt 0.149266 0.623032
vt 0.183972 0.635129
vt 0.207120 0.635129
vt 0.206973 0.623032
vt 0.183859 0.623032
vt 0.032951 0.635129
vt 0.067595 0.635129
vt 0.067656 0.623032
vt 0.033063 0.623032
vt 0.001674 0.635129
vt 0.009802 0.635129
vt 0.009949 0.623032
vt 0.001833 0.623032
vt 0.215249 0.635129
vt 0.215090 0.623032
vt 0.108912 0.631179
vt 0.067694 0.631179
vt 0.078865 0.631179
vt 0.208424 0.631179
vt 0.216623 0.631179
vt 0.187431 0.631179
vt 0.181454 0.631179
vt 0.185075 0.631179
vt 0.150131 0.631179
vt 0.138960 0.631179
vt 0.164433 0.631179
vt 0.009401 0.631179
vt 0.032750 0.631179
vt 0.053392 0.631179
vt 0.036371 0.631179
vt 0.001202 0.631179
vt 0.030394 0.631179
vt 0.070430 0.594531
vt 0.036388 0.594531
vt 0.036388 0.350440
vt 0.070430 0.350440
vt 0.150740 0.594531
vt 0.110585 0.594531
vt 0.110585 0.350440
vt 0.150740 0.350440
vt 0.184781 0.594531
vt 0.207527 0.594531
vt 0.207527 0.350440
vt 0.184781 0.350440
vt 0.005655 0.594531
vt 0.013642 0.594531
vt 0.013642 0.350440
vt 0.005655 0.350440
vt 0.215514 0.594531
vt 0.215514 0.350440
vt 0.041209 0.333782
vt 0.057487 0.333782
vt 0.081848 0.333782
vt 0.110585 0.333782
vt 0.185677 0.333782
vt 0.179960 0.333782
vt 0.139321 0.333782
vt 0.163683 0.333782
vt 0.035493 0.333782
vt 0.368010 0.500831
vt 0.376809 0.502581
vt 0.384269 0.507565
vt 0.389253 0.515025
vt 0.391004 0.523824
vt 0.389253 0.532623
vt 0.384269 0.540083
vt 0.376809 0.545067
vt 0.368010 0.546817
vt 0.359211 0.545067
vt 0.351751 0.540083
vt 0.346767 0.532623
vt 0.345017 0.523824
vt 0.346767 0.515025
vt 0.351751 0.507565
vt 0.359211 0.502581
vt 0.240743 0.615275
vt 0.240743 0.458903
vt 0.283475 0.458903
vt 0.326206 0.458903
vt 0.326206 0.615275
vt 0.244716 0.404435
vt 0.283475 0.404435
vt 0.322233 0.404435
vt 0.252802 0.340889
vt 0.283475 0.340889
vt 0.314147 0.340889
vt 0.330804 0.615275
vt 0.367960 0.615275
vt 0.367960 0.461732
vt 0.330874 0.461628
vt 0.405117 0.615275
vt 0.405047 0.461628
vt 0.367960 0.412842
vt 0.334557 0.412558
vt 0.401363 0.412558
vt 0.367960 0.351705
vt 0.342017 0.351330
vt 0.393904 0.351330
vt 0.080077 0.928920
vt 0.080077 0.931239
vt 0.083028 0.927636
vt 0.082926 0.925442
vt 0.127747 0.979814
vt 0.117618 0.971675
vt 0.119282 0.969643
vt 0.129041 0.977486
vt 0.136428 0.982708
vt 0.136863 0.980089
vt 0.161353 0.982708
vt 0.161353 0.980086
vt 0.154949 0.950127
vt 0.154949 0.947808
vt 0.154949 0.943320
vt 0.154949 0.945462
vn 0.181800 -0.356000 -0.916600
vn 0.150200 -0.371100 -0.916300
vn -0.016300 -0.028500 -0.999500
vn 0.015200 -0.013100 -0.999800
vn -0.186200 0.315400 -0.930500
vn -0.154900 0.331200 -0.930800
vn -0.333600 0.608500 -0.720000
vn -0.302400 0.624500 -0.720100
vn -0.436100 0.806100 -0.399900
vn -0.405000 0.822300 -0.399700
vn -0.478100 0.878000 -0.019100
vn -0.447100 0.894300 -0.018600
vn -0.453200 0.813400 0.364500
vn -0.422200 0.829600 0.365300
vn -0.365200 0.622100 0.692500
vn -0.334100 0.638100 0.693700
vn -0.227500 0.333200 0.915000
vn -0.196200 0.348900 0.916300
vn -0.061000 -0.009300 0.998100
vn -0.029600 0.006100 0.999500
vn 0.108900 -0.353300 0.929100
vn 0.140400 -0.338200 0.930500
vn 0.256300 -0.646400 0.718600
vn 0.288000 -0.631600 0.719800
vn 0.358900 -0.844000 0.398600
vn 0.390600 -0.829300 0.399500
vn 0.400900 -0.916000 0.017800
vn 0.432700 -0.901300 0.018300
vn 0.376000 -0.851300 -0.365800
vn 0.407800 -0.836700 -0.365600
vn -0.048000 -0.044100 -0.997900
vn -0.217600 0.299200 -0.929000
vn 0.319700 -0.645200 -0.693900
vn 0.287900 -0.660000 -0.693800
vn -0.897700 -0.440200 -0.015800
vn 0.326300 -0.857800 0.397200
vn 0.368200 -0.929600 0.017200
vn -0.467000 0.788800 -0.399600
vn -0.508900 0.860600 -0.019700
vn 0.255500 -0.674200 -0.692900
vn 0.118100 -0.385900 -0.914900
vn -0.396200 0.605200 0.690500
vn -0.258800 0.316900 0.912400
vn 0.076800 -0.368100 0.926600
vn 0.224000 -0.660600 0.716500
vn -0.364700 0.591600 -0.719000
vn 0.343400 -0.865100 -0.365600
vn -0.484100 0.796100 0.363100
vn -0.092700 -0.024900 0.995400
vn 0.022400 -0.009600 -0.999700
vn -0.147600 0.334700 -0.930700
vn 0.397900 -0.825800 0.399600
vn 0.439900 -0.897800 0.018500
vn 0.147700 -0.334700 0.930700
vn 0.295200 -0.628100 0.720000
vn -0.189000 0.352500 0.916500
vn -0.022400 0.009600 0.999700
vn -0.415000 0.833200 0.365500
vn -0.326900 0.641700 0.693800
vn -0.397900 0.825800 -0.399600
vn -0.439900 0.897800 -0.018500
vn 0.326900 -0.641700 -0.693800
vn 0.189000 -0.352500 -0.916500
vn -0.295200 0.628100 -0.720000
vn 0.415000 -0.833200 -0.365500
vn 0.791700 0.586900 -0.169800
vn 0.765300 0.637700 -0.087400
vn 0.830300 0.555700 -0.042500
vn 0.845200 0.526900 -0.089100
vn 0.974300 0.211200 -0.078600
vn 0.951600 0.260400 -0.163000
vn 0.935800 0.342100 -0.085200
vn 0.948600 0.314300 -0.037500
vn 0.873300 0.422900 -0.241700
vn 0.829600 0.511500 -0.223900
vn 0.866700 0.484200 -0.119700
vn 0.891400 0.434100 -0.129800
vn 0.969800 0.213100 0.118100
vn 0.980700 0.194600 0.020100
vn 0.952200 0.304900 0.018400
vn 0.946100 0.315300 0.073800
vn 0.905500 0.339300 0.254600
vn 0.943500 0.263900 0.200400
vn 0.931200 0.344100 0.120400
vn 0.909700 0.386800 0.151100
vn 0.819000 0.516000 0.251000
vn 0.861800 0.427900 0.272300
vn 0.884900 0.436900 0.161100
vn 0.860700 0.486800 0.149100
vn 0.760900 0.639600 0.109300
vn 0.783500 0.590400 0.193700
vn 0.840600 0.528900 0.116600
vn 0.827800 0.556700 0.068800
vn 0.754400 0.656200 0.010600
vn 0.824200 0.566100 0.013000
vn 0.916200 0.334800 -0.220300
vn 0.915700 0.384200 -0.117600
vn 0.897700 0.440200 0.015800
vn 0.147600 -0.334700 0.930700
vn 0.204700 0.930900 0.302300
vn 0.275300 0.777500 0.565400
vn 0.218400 0.925000 -0.310700
vn 0.184700 0.982800 -0.005300
vn 0.799100 -0.250700 -0.546400
vn 0.688600 -0.019000 -0.724800
vn 0.418900 0.531600 -0.736200
vn 0.300600 0.766600 -0.567300
vn 0.889600 -0.455900 0.024300
vn 0.869700 -0.404100 -0.283300
vn 0.555100 0.255700 -0.791500
vn 0.773700 -0.239800 0.586300
vn 0.856000 -0.398200 0.329700
vn 0.519200 0.271100 0.810400
vn 0.655500 -0.004800 0.755200
vn 0.385700 0.545800 0.743800
vn -0.107800 0.184600 0.976900
vn 0.039200 0.248700 0.967800
vn -0.042700 0.418500 0.907200
vn -0.117500 0.574000 0.810300
vn -0.263000 0.506800 0.820900
vn 0.344600 0.353400 0.869700
vn 0.260700 0.519400 0.813700
vn 0.191200 0.671900 0.715500
vn 0.489300 0.388300 0.780900
vn 0.422700 0.551600 0.719000
vn 0.341200 0.695700 0.632100
vn 0.107800 -0.184500 -0.976900
vn 0.042900 -0.418300 -0.907300
vn -0.039100 -0.248600 -0.967800
vn 0.263000 -0.506800 -0.820900
vn 0.117600 -0.574000 -0.810300
vn -0.259800 -0.519200 -0.814200
vn -0.345000 -0.353500 -0.869500
vn -0.191600 -0.672000 -0.715400
vn -0.422600 -0.551600 -0.719100
vn -0.489200 -0.388400 -0.780900
vn -0.341200 -0.695600 -0.632200
vn 0.879100 -0.022900 -0.476100
vn 0.821300 0.126500 -0.556300
vn -0.365000 0.727500 -0.580900
vn -0.384900 0.719500 -0.578000
vn -0.365200 0.727400 -0.580800
vn 0.393700 -0.896300 0.204000
vn 0.413300 -0.888100 0.201000
vn 0.413200 -0.888200 0.201000
vn 0.737100 0.271800 -0.618700
vn -0.348900 0.737600 -0.578100
vn 0.430100 -0.879300 0.204400
vn -0.352500 0.740100 -0.572600
vn 0.427600 -0.879000 0.210900
s 1
f 166/1/1 2/2/2 4/3/3 167/4/4
f 167/4/4 4/3/3 6/5/5 168/6/6
f 168/6/6 6/5/5 8/7/7 169/8/8
f 169/8/8 8/7/7 10/9/9 170/10/10
f 170/10/10 10/9/9 12/11/11 171/12/12
f 171/12/12 12/11/11 14/13/13 172/14/14
f 172/14/14 14/13/13 16/15/15 173/16/16
f 173/16/16 16/15/15 18/17/17 174/18/18
f 174/18/18 18/17/17 20/15/19 175/16/20
f 175/16/20 20/15/19 22/13/21 176/14/22
f 176/14/22 22/13/21 24/11/23 177/12/24
f 177/12/24 24/11/23 26/9/25 178/10/26
f 178/10/26 26/9/25 28/7/27 179/8/28
f 179/8/28 28/7/27 30/5/29 180/6/30
f 6/5/5 4/3/3 50/19/31 200/20/32
f 181/4/33 32/3/34 2/2/2 166/1/1
f 180/6/30 30/5/29 32/3/34 181/4/33
f 11/21/35 13/22/35 188/23/35 187/24/35
f 17/25/35 19/26/35 191/27/35 190/28/35
f 23/29/35 25/30/35 194/31/35 193/32/35
f 7/33/35 9/34/35 186/35/35 185/36/35
f 29/37/35 31/38/35 197/39/35 196/40/35
f 13/22/35 15/41/35 189/42/35 188/23/35
f 19/26/35 21/43/35 192/44/35 191/27/35
f 3/45/35 5/46/35 184/47/35 183/48/35
f 25/30/35 27/49/35 195/50/35 194/31/35
f 9/34/35 11/21/35 187/24/35 186/35/35
f 31/38/35 1/51/35 182/52/35 197/39/35
f 1/51/35 3/45/35 183/48/35 182/52/35
f 15/41/35 17/25/35 190/28/35 189/42/35
f 21/43/35 23/29/35 193/32/35 192/44/35
f 5/46/35 7/33/35 185/36/35 184/47/35
f 27/49/35 29/37/35 196/40/35 195/50/35
f 198/53/35 199/54/35 213/53/35 212/55/35 211/56/35 210/57/35 209/58/35 208/59/35 207/60/35 206/61/35 205/60/35 204/59/35 203/58/35 202/57/35 201/56/35 51/55/35
f 28/7/27 26/9/25 61/62/36 62/63/37
f 12/11/11 10/9/9 53/62/38 54/64/39
f 2/2/2 32/3/34 64/19/40 49/65/41
f 4/3/3 2/2/2 49/65/41 50/19/31
f 18/17/17 16/15/15 56/66/42 57/67/43
f 24/11/23 22/13/21 59/68/44 60/64/45
f 8/7/7 6/5/5 200/20/32 52/63/46
f 30/5/29 28/7/27 62/63/37 63/20/47
f 14/13/13 12/11/11 54/64/39 55/68/48
f 20/15/19 18/17/17 57/67/43 58/66/49
f 26/9/25 24/11/23 60/64/45 61/62/36
f 10/9/9 8/7/7 52/63/46 53/62/38
f 32/3/34 30/5/29 63/20/47 64/19/40
f 16/15/15 14/13/13 55/68/48 56/66/42
f 22/13/21 20/15/19 58/66/49 59/68/44
f 34/69/50 35/70/51 216/71/51 215/72/50
f 45/73/52 46/74/53 235/75/53 234/76/52
f 43/77/54 44/78/55 233/79/55 232/80/54
f 41/81/56 42/82/57 229/83/57 226/84/56
f 39/77/58 40/85/59 221/86/59 220/80/58
f 37/73/60 38/78/61 219/79/61 218/76/60
f 48/69/62 33/87/63 214/88/63 237/72/62
f 35/70/51 36/74/64 217/75/64 216/71/51
f 46/74/53 47/70/65 236/71/65 235/75/53
f 33/87/63 34/69/50 215/72/50 214/88/63
f 44/78/55 45/73/52 234/76/52 233/79/55
f 42/85/57 43/77/54 232/80/54 229/86/57
f 40/89/59 41/81/56 226/84/56 221/90/59
f 38/78/61 39/77/58 220/80/58 219/79/61
f 36/74/64 37/73/60 218/76/60 217/75/64
f 47/70/65 48/69/62 237/72/62 236/71/65
f 68/91/66 69/92/67 85/93/68 84/94/69
f 79/95/70 80/96/71 96/97/72 95/98/73
f 66/96/74 67/95/75 83/98/76 82/97/77
f 77/92/78 78/91/79 94/94/80 93/93/81
f 75/99/82 76/100/83 92/101/84 91/102/85
f 227/103/86 230/104/87 90/105/88 89/106/89
f 71/99/90 223/104/91 88/105/92 87/102/93
f 69/92/67 70/100/94 86/101/95 85/93/68
f 80/96/71 65/107/96 81/108/97 96/97/72
f 67/95/75 68/91/66 84/94/69 83/98/76
f 78/91/79 79/95/70 95/98/73 94/94/80
f 65/107/96 66/96/74 82/97/77 81/108/97
f 76/100/83 77/92/78 93/93/81 92/101/84
f 230/104/87 75/99/82 91/102/85 90/105/88
f 223/104/91 227/103/86 89/106/89 88/105/92
f 70/100/94 71/99/90 87/102/93 86/101/95
f 85/109/68 86/110/95 243/111/98 242/109/98
f 96/112/72 81/113/97 238/114/98 253/115/98
f 83/116/76 84/117/69 241/118/98 240/119/98
f 94/117/80 95/116/73 252/119/98 251/118/98
f 81/113/97 82/112/77 239/115/98 238/114/98
f 92/110/84 93/109/81 250/109/98 249/111/98
f 90/120/88 91/121/85 248/122/98 247/123/98
f 88/120/92 89/124/89 246/125/98 245/123/98
f 86/110/95 87/121/93 244/122/98 243/111/98
f 84/117/69 85/109/68 242/109/98 241/118/98
f 95/116/73 96/112/72 253/115/98 252/119/98
f 82/112/77 83/116/76 240/119/98 239/115/98
f 93/109/81 94/117/80 251/118/98 250/109/98
f 91/121/85 92/110/84 249/111/98 248/122/98
f 89/124/89 90/120/88 247/123/98 246/125/98
f 87/121/93 88/120/92 245/123/98 244/122/98
f 102/126/61 103/127/58 260/128/58 259/129/61
f 100/130/64 101/131/60 258/132/60 257/133/64
f 111/134/65 112/135/62 269/136/62 268/137/65
f 98/135/50 99/134/51 256/137/51 255/136/50
f 109/131/52 110/130/53 267/133/53 266/132/52
f 107/127/99 108/126/55 265/129/55 264/128/99
f 105/138/56 106/139/57 263/140/57 262/141/56
f 103/127/58 104/139/59 261/140/59 260/128/58
f 101/131/60 102/126/61 259/129/61 258/132/60
f 112/135/62 97/142/63 254/143/63 269/136/62
f 99/134/51 100/130/64 257/133/64 256/137/51
f 110/130/53 111/134/65 268/137/65 267/133/53
f 97/142/63 98/135/50 255/136/50 254/143/63
f 108/126/55 109/131/52 266/132/52 265/129/55
f 106/139/57 107/127/99 264/128/99 263/140/57
f 104/139/59 105/138/56 262/141/56 261/140/59
f 119/128/100 120/140/101 277/144/101 276/145/100
f 117/132/102 118/129/103 275/146/103 274/147/102
f 128/136/104 113/143/105 270/148/105 285/149/104
f 115/137/106 116/133/107 273/150/107 272/151/106
f 126/133/108 127/137/109 284/151/109 283/150/108
f 113/143/105 114/136/110 271/149/110 270/148/105
f 124/129/111 125/132/112 282/147/112 281/146/111
f 122/140/113 123/128/114 280/145/114 279/144/113
f 120/140/101 121/141/115 278/152/115 277/144/101
f 118/129/103 119/128/100 276/145/100 275/146/103
f 116/133/107 117/132/102 274/147/102 273/150/107
f 127/137/109 128/136/104 285/149/104 284/151/109
f 114/136/110 115/137/106 272/151/106 271/149/110
f 125/132/112 126/133/108 283/150/108 282/147/112
f 123/128/114 124/129/111 281/146/111 280/145/114
f 121/141/115 122/140/113 279/144/113 278/152/115
f 129/153/98 130/154/98 131/155/98 132/156/98 133/157/98 134/158/98 135/159/98 136/160/98 137/161/98 138/162/98 139/163/98 140/164/98 141/165/98 142/166/98 143/167/98 144/168/98
f 228/169/116 286/170/117 146/171/118 225/84/56
f 225/84/56 146/171/118 287/172/119 222/173/120
f 146/171/118 286/170/117 288/174/121 149/175/122
f 287/172/119 146/171/118 149/175/122 289/176/123
f 149/175/122 288/174/121 293/177/124 292/178/125
f 289/176/123 149/175/122 292/178/125 290/179/126
f 296/180/127 295/181/63 156/182/128 298/183/129
f 295/181/63 299/184/130 301/185/131 156/182/128
f 156/182/128 160/186/132 302/187/133 298/183/129
f 301/185/131 303/188/134 160/186/132 156/182/128
f 160/186/132 304/189/135 305/190/136 302/187/133
f 303/188/134 307/191/137 304/189/135 160/186/132
f 291/192/138 152/193/139 163/194/139 308/195/138
f 148/196/140 151/197/141 165/198/141 162/199/142
f 294/197/143 150/196/144 161/199/145 306/198/143
f 152/193/139 153/192/146 164/195/146 163/194/139
f 145/200/147 148/196/140 162/199/142 159/201/147
f 150/196/144 147/200/148 157/201/148 161/199/145
f 224/202/149 145/200/147 159/201/147 300/203/149
f 73/204/35 72/205/35 158/206/35 155/207/35
f 147/200/148 231/202/150 297/203/150 157/201/148
f 74/205/35 73/204/35 155/207/35 154/206/35
