# Blender v2.76 (sub 0) OBJ File: 'v_rapier.blend'
# www.blender.org
v -0.163214 -0.357215 -0.291042
v -1.388234 0.231655 -0.083811
v -0.160981 -0.350317 -0.297342
v -1.387002 0.235460 -0.087287
v -0.157513 -0.341913 -0.300441
v -1.385089 0.240096 -0.088996
v -0.153339 -0.333282 -0.299866
v -1.382786 0.244858 -0.088679
v -0.149093 -0.325737 -0.295705
v -1.380444 0.249020 -0.086384
v -0.145423 -0.320428 -0.288592
v -1.378419 0.251949 -0.082460
v -0.142886 -0.318162 -0.279609
v -1.377020 0.253199 -0.077505
v -0.141870 -0.319286 -0.270125
v -1.376459 0.252579 -0.072272
v -0.142528 -0.323626 -0.261582
v -1.376822 0.250184 -0.067559
v -0.144761 -0.330524 -0.255281
v -1.378054 0.246379 -0.064083
v -0.148229 -0.338928 -0.252183
v -1.379967 0.241743 -0.062374
v -0.152403 -0.347560 -0.252757
v -1.382270 0.236981 -0.062691
v -0.156649 -0.355104 -0.256918
v -1.384612 0.232819 -0.064986
v -0.160319 -0.360413 -0.264031
v -1.386637 0.229890 -0.068910
v -0.162856 -0.362679 -0.273014
v -1.388036 0.228640 -0.073866
v -0.163872 -0.361556 -0.282499
v -1.388597 0.229260 -0.079098
v -0.181521 -0.386940 -0.317114
v -0.175336 -0.367834 -0.334566
v -0.165730 -0.344555 -0.343149
v -0.154167 -0.320646 -0.341557
v -0.142407 -0.299747 -0.330032
v -0.132240 -0.285041 -0.310329
v -0.125213 -0.278766 -0.285446
v -0.122397 -0.281877 -0.259174
v -0.124221 -0.293901 -0.235510
v -0.130406 -0.313007 -0.218058
v -0.140012 -0.336287 -0.209474
v -0.151575 -0.360195 -0.211066
v -0.163335 -0.381094 -0.222591
v -0.173503 -0.395800 -0.242295
v -0.180529 -0.402075 -0.267177
v -0.183345 -0.398964 -0.293450
v -1.416506 0.247293 -0.077478
v -1.415508 0.250376 -0.080293
v -1.413958 0.254131 -0.081678
v -1.412093 0.257988 -0.081421
v -1.410196 0.261359 -0.079562
v -1.408556 0.263732 -0.076383
v -1.407422 0.264744 -0.072369
v -1.406968 0.264242 -0.068131
v -1.407262 0.262302 -0.064313
v -1.408260 0.259220 -0.061498
v -1.409809 0.255465 -0.060113
v -1.411675 0.251608 -0.060370
v -1.413572 0.248236 -0.062229
v -1.415212 0.245864 -0.065408
v -1.416346 0.244852 -0.069422
v -1.416800 0.245354 -0.073660
v -0.165974 -0.394290 -0.319650
v -0.159789 -0.375184 -0.337102
v -0.150184 -0.351905 -0.345686
v -0.138621 -0.327996 -0.344094
v -0.126860 -0.307097 -0.332569
v -0.116693 -0.292391 -0.312865
v -0.109667 -0.286116 -0.287983
v -0.106851 -0.289227 -0.261710
v -0.108674 -0.301251 -0.238046
v -0.114860 -0.320357 -0.220594
v -0.124465 -0.343636 -0.212011
v -0.136028 -0.367545 -0.213603
v -0.147788 -0.388444 -0.225128
v -0.157956 -0.403150 -0.244831
v -0.164982 -0.409425 -0.269713
v -0.167798 -0.406314 -0.295986
v -0.147187 -0.378025 -0.303676
v -0.143591 -0.366918 -0.313821
v -0.138007 -0.353385 -0.318811
v -0.131285 -0.339486 -0.317886
v -0.124448 -0.327337 -0.311186
v -0.118538 -0.318788 -0.299732
v -0.114453 -0.315140 -0.285267
v -0.112816 -0.316949 -0.269994
v -0.113876 -0.323939 -0.256237
v -0.117472 -0.335046 -0.246092
v -0.123056 -0.348579 -0.241102
v -0.129778 -0.362478 -0.242027
v -0.136615 -0.374627 -0.248727
v -0.142525 -0.383176 -0.260181
v -0.146610 -0.386824 -0.274646
v -0.148247 -0.385015 -0.289920
v -0.142673 -0.370696 -0.297247
v -0.140051 -0.362599 -0.304643
v -0.135981 -0.352734 -0.308281
v -0.131081 -0.342602 -0.307606
v -0.126097 -0.333746 -0.302722
v -0.121788 -0.327513 -0.294372
v -0.118811 -0.324854 -0.283828
v -0.117617 -0.326173 -0.272694
v -0.118390 -0.331268 -0.262666
v -0.121011 -0.339365 -0.255270
v -0.125082 -0.349230 -0.251632
v -0.129982 -0.359362 -0.252307
v -0.134966 -0.368218 -0.257191
v -0.139275 -0.374451 -0.265541
v -0.142252 -0.377110 -0.276085
v -0.143445 -0.375791 -0.287219
v 0.001524 -0.438867 -0.320774
v 0.004145 -0.430771 -0.328170
v 0.008216 -0.420905 -0.331807
v 0.013116 -0.410773 -0.331133
v 0.018100 -0.401917 -0.326249
v 0.022408 -0.395685 -0.317899
v 0.025386 -0.393025 -0.307354
v 0.026579 -0.394344 -0.296220
v 0.025806 -0.399439 -0.286192
v 0.023185 -0.407536 -0.278796
v 0.019115 -0.417401 -0.275159
v 0.014215 -0.427533 -0.275834
v 0.009231 -0.436390 -0.280718
v 0.004922 -0.442622 -0.289068
v 0.001944 -0.445281 -0.299612
v 0.000751 -0.443963 -0.310746
v 0.014817 -0.437914 -0.317463
v 0.016693 -0.432119 -0.322755
v 0.019606 -0.425059 -0.325359
v 0.023112 -0.417808 -0.324876
v 0.026679 -0.411470 -0.321381
v 0.029763 -0.407010 -0.315405
v 0.031893 -0.405107 -0.307859
v 0.032747 -0.406051 -0.299891
v 0.032194 -0.409697 -0.292715
v 0.030318 -0.415492 -0.287422
v 0.027406 -0.422552 -0.284819
v 0.023899 -0.429803 -0.285302
v 0.020332 -0.436141 -0.288797
v 0.017249 -0.440601 -0.294772
v 0.015118 -0.442504 -0.302318
v 0.014264 -0.441560 -0.310286
v -0.021445 -0.329604 -0.275645
v -0.023269 -0.341628 -0.251981
v -0.029454 -0.360734 -0.234529
v 0.003273 -0.352679 -0.285221
v 0.001822 -0.363256 -0.263469
v -0.003991 -0.380915 -0.247928
v 0.024120 -0.393306 -0.305652
v 0.023427 -0.400938 -0.287790
v 0.018372 -0.415651 -0.276140
v -0.118773 -0.326017 -0.228178
v -0.113061 -0.308374 -0.244294
v -0.029200 -0.348020 -0.257976
v -0.034845 -0.365658 -0.241900
v -0.111377 -0.297271 -0.266146
v -0.027463 -0.336965 -0.279797
v -0.006666 -0.367412 -0.268269
v -0.011867 -0.383705 -0.254121
v -0.005219 -0.357863 -0.288254
v 0.014132 -0.403646 -0.291651
v 0.009691 -0.417129 -0.281368
v 0.014855 -0.397057 -0.307878
v -0.163214 -0.357215 -0.291042
v -0.160981 -0.350317 -0.297342
v -0.157513 -0.341913 -0.300441
v -0.153339 -0.333282 -0.299866
v -0.149093 -0.325737 -0.295705
v -0.145423 -0.320428 -0.288592
v -0.142886 -0.318162 -0.279609
v -0.141870 -0.319286 -0.270125
v -0.142528 -0.323626 -0.261582
v -0.144761 -0.330524 -0.255281
v -0.148229 -0.338928 -0.252183
v -0.152403 -0.347560 -0.252757
v -0.156649 -0.355104 -0.256918
v -0.160319 -0.360413 -0.264031
v -0.162856 -0.362679 -0.273014
v -0.163872 -0.361556 -0.282499
v -0.181521 -0.386940 -0.317114
v -0.175336 -0.367834 -0.334566
v -0.165730 -0.344555 -0.343149
v -0.154167 -0.320646 -0.341557
v -0.142407 -0.299747 -0.330032
v -0.132240 -0.285041 -0.310329
v -0.125213 -0.278766 -0.285446
v -0.122397 -0.281877 -0.259174
v -0.124221 -0.293901 -0.235510
v -0.130406 -0.313007 -0.218058
v -0.140012 -0.336287 -0.209474
v -0.151575 -0.360195 -0.211066
v -0.163335 -0.381094 -0.222591
v -0.173503 -0.395800 -0.242295
v -0.180529 -0.402075 -0.267177
v -0.183345 -0.398964 -0.293450
v -1.415508 0.250376 -0.080293
v -1.416506 0.247293 -0.077478
v -1.413958 0.254131 -0.081678
v -1.412093 0.257988 -0.081421
v -1.410196 0.261359 -0.079562
v -1.408556 0.263732 -0.076383
v -1.407422 0.264744 -0.072369
v -1.406968 0.264242 -0.068131
v -1.407262 0.262302 -0.064313
v -1.408260 0.259220 -0.061498
v -1.409809 0.255465 -0.060113
v -1.411675 0.251608 -0.060370
v -1.413572 0.248236 -0.062229
v -1.415212 0.245864 -0.065408
v -1.416346 0.244852 -0.069422
v -1.416800 0.245354 -0.073660
v -0.165974 -0.394290 -0.319650
v -0.159789 -0.375184 -0.337102
v -0.150184 -0.351905 -0.345686
v -0.138621 -0.327996 -0.344094
v -0.126860 -0.307097 -0.332569
v -0.116693 -0.292391 -0.312865
v -0.109667 -0.286116 -0.287983
v -0.106851 -0.289227 -0.261710
v -0.106851 -0.289227 -0.261710
v -0.106851 -0.289227 -0.261710
v -0.106851 -0.289227 -0.261710
v -0.108674 -0.301251 -0.238046
v -0.108674 -0.301251 -0.238046
v -0.108674 -0.301251 -0.238046
v -0.114860 -0.320357 -0.220594
v -0.114860 -0.320357 -0.220594
v -0.114860 -0.320357 -0.220594
v -0.114860 -0.320357 -0.220594
v -0.124465 -0.343636 -0.212011
v -0.136028 -0.367545 -0.213603
v -0.147788 -0.388444 -0.225128
v -0.157956 -0.403150 -0.244831
v -0.164982 -0.409425 -0.269713
v -0.167798 -0.406314 -0.295986
v -0.142673 -0.370696 -0.297247
v -0.140051 -0.362599 -0.304643
v -0.135981 -0.352734 -0.308281
v -0.131081 -0.342602 -0.307606
v -0.126097 -0.333746 -0.302722
v -0.121788 -0.327513 -0.294372
v -0.118811 -0.324854 -0.283828
v -0.117617 -0.326173 -0.272694
v -0.118390 -0.331268 -0.262666
v -0.121011 -0.339365 -0.255270
v -0.125082 -0.349230 -0.251632
v -0.129982 -0.359362 -0.252307
v -0.134966 -0.368218 -0.257191
v -0.139275 -0.374451 -0.265541
v -0.142252 -0.377110 -0.276085
v -0.143445 -0.375791 -0.287219
v 0.001524 -0.438867 -0.320774
v 0.004145 -0.430771 -0.328170
v 0.008216 -0.420905 -0.331807
v 0.013116 -0.410773 -0.331133
v 0.018100 -0.401917 -0.326249
v 0.022408 -0.395685 -0.317899
v 0.025386 -0.393025 -0.307354
v 0.026579 -0.394344 -0.296220
v 0.025806 -0.399439 -0.286192
v 0.023185 -0.407536 -0.278796
v 0.019115 -0.417401 -0.275159
v 0.014215 -0.427533 -0.275834
v 0.009231 -0.436390 -0.280718
v 0.004922 -0.442622 -0.289068
v 0.001944 -0.445281 -0.299612
v 0.000751 -0.443963 -0.310746
v 0.014817 -0.437914 -0.317463
v 0.016693 -0.432119 -0.322755
v 0.019606 -0.425059 -0.325359
v 0.023112 -0.417808 -0.324876
v 0.026679 -0.411470 -0.321381
v 0.029763 -0.407010 -0.315405
v 0.031893 -0.405107 -0.307859
v 0.032747 -0.406051 -0.299891
v 0.032194 -0.409697 -0.292715
v 0.030318 -0.415492 -0.287422
v 0.027406 -0.422552 -0.284819
v 0.023899 -0.429803 -0.285302
v 0.020332 -0.436141 -0.288797
v 0.017249 -0.440601 -0.294772
v 0.015118 -0.442504 -0.302318
v 0.014264 -0.441560 -0.310286
v -0.029454 -0.360734 -0.234529
v -0.021445 -0.329604 -0.275645
v -0.003991 -0.380915 -0.247928
v 0.003273 -0.352679 -0.285221
v 0.024120 -0.393306 -0.305652
v 0.024120 -0.393306 -0.305652
v 0.023427 -0.400938 -0.287790
v 0.018372 -0.415651 -0.276140
v 0.018372 -0.415651 -0.276140
v -0.113061 -0.308374 -0.244294
v -0.118773 -0.326017 -0.228178
v -0.118773 -0.326017 -0.228178
v -0.034845 -0.365658 -0.241900
v -0.111377 -0.297271 -0.266146
v -0.111377 -0.297271 -0.266146
v -0.027463 -0.336965 -0.279797
v -0.011867 -0.383705 -0.254121
v -0.005219 -0.357863 -0.288254
v 0.014132 -0.403646 -0.291651
v 0.009691 -0.417129 -0.281368
v 0.009691 -0.417129 -0.281368
v 0.014855 -0.397057 -0.307878
v 0.014855 -0.397057 -0.307878
vt 0.000279 0.693228
vt 0.878256 0.693114
vt 0.878256 0.699227
vt 0.000279 0.699332
vt 0.878256 0.716634
vt 0.000279 0.716715
vt 0.878256 0.742686
vt 0.000279 0.742730
vt 0.878256 0.773417
vt 0.000279 0.773418
vt 0.878256 0.804148
vt 0.000279 0.804105
vt 0.878256 0.830200
vt 0.000279 0.830121
vt 0.878256 0.847608
vt 0.000279 0.847503
vt 0.878256 0.853720
vt 0.000279 0.853607
vt 0.895358 0.713323
vt 0.895358 0.727423
vt 0.641239 0.514579
vt 0.628601 0.533492
vt 0.701564 0.606454
vt 0.736568 0.554066
vt 0.587379 0.550566
vt 0.565070 0.546129
vt 0.525583 0.641459
vt 0.587379 0.653751
vt 0.533520 0.514579
vt 0.529082 0.492270
vt 0.425898 0.492270
vt 0.438190 0.554066
vt 0.641239 0.469960
vt 0.645676 0.492270
vt 0.748860 0.492270
vt 0.736568 0.430474
vt 0.546157 0.451048
vt 0.565070 0.438410
vt 0.525583 0.343080
vt 0.473195 0.378085
vt 0.609689 0.546129
vt 0.649175 0.641459
vt 0.546157 0.533492
vt 0.473195 0.606454
vt 0.609689 0.438410
vt 0.628601 0.451048
vt 0.701564 0.378085
vt 0.649175 0.343081
vt 0.533520 0.469960
vt 0.438190 0.430474
vt 0.587379 0.433973
vt 0.587379 0.330789
vt 0.919436 0.768072
vt 0.919436 0.767591
vt 0.919436 0.769440
vt 0.919436 0.771489
vt 0.919436 0.773905
vt 0.919436 0.776322
vt 0.919436 0.778370
vt 0.919436 0.779739
vt 0.919436 0.780220
vt 0.895358 0.773417
vt 0.895358 0.748525
vt 0.895358 0.798310
vt 0.895358 0.708371
vt 0.895358 0.833512
vt 0.895358 0.838463
vt 0.895358 0.819412
vt 0.207072 0.653717
vt 0.183987 0.653717
vt 0.183987 0.596723
vt 0.207072 0.596723
vt 0.108685 0.653717
vt 0.149438 0.653717
vt 0.149438 0.596723
vt 0.108685 0.596723
vt 0.033383 0.653717
vt 0.067932 0.653717
vt 0.067932 0.596723
vt 0.033383 0.596723
vt 0.283493 0.644166
vt 0.240535 0.644166
vt 0.240535 0.615315
vt 0.283493 0.615315
vt 0.010298 0.653717
vt 0.010298 0.596723
vt 0.215179 0.653717
vt 0.215179 0.596723
vt 0.326451 0.644166
vt 0.326451 0.615315
vt 0.149327 0.635129
vt 0.108461 0.635129
vt 0.108461 0.623032
vt 0.149266 0.623032
vt 0.183972 0.635129
vt 0.207120 0.635129
vt 0.206973 0.623032
vt 0.183859 0.623032
vt 0.032951 0.635129
vt 0.067595 0.635129
vt 0.067656 0.623032
vt 0.033063 0.623032
vt 0.001674 0.635129
vt 0.009802 0.635129
vt 0.009949 0.623032
vt 0.001833 0.623032
vt 0.215249 0.635129
vt 0.215090 0.623032
vt 0.108912 0.631179
vt 0.067694 0.631179
vt 0.078865 0.631179
vt 0.208424 0.631179
vt 0.216623 0.631179
vt 0.187431 0.631179
vt 0.181454 0.631179
vt 0.185075 0.631179
vt 0.150131 0.631179
vt 0.138960 0.631179
vt 0.164433 0.631179
vt 0.009401 0.631179
vt 0.032750 0.631179
vt 0.053392 0.631179
vt 0.036371 0.631179
vt 0.001202 0.631179
vt 0.030394 0.631179
vt 0.070430 0.594531
vt 0.036388 0.594531
vt 0.036388 0.350440
vt 0.070430 0.350440
vt 0.150740 0.594531
vt 0.110585 0.594531
vt 0.110585 0.350440
vt 0.150740 0.350440
vt 0.184781 0.594531
vt 0.207527 0.594531
vt 0.207527 0.350440
vt 0.184781 0.350440
vt 0.005655 0.594531
vt 0.013642 0.594531
vt 0.013642 0.350440
vt 0.005655 0.350440
vt 0.215514 0.594531
vt 0.215514 0.350440
vt 0.041209 0.333782
vt 0.057487 0.333782
vt 0.081848 0.333782
vt 0.110585 0.333782
vt 0.185677 0.333782
vt 0.179960 0.333782
vt 0.139321 0.333782
vt 0.163683 0.333782
vt 0.035493 0.333782
vt 0.368010 0.500831
vt 0.376809 0.502581
vt 0.384269 0.507565
vt 0.389253 0.515025
vt 0.391004 0.523824
vt 0.389253 0.532623
vt 0.384269 0.540083
vt 0.376809 0.545067
vt 0.368010 0.546817
vt 0.359211 0.545067
vt 0.351751 0.540083
vt 0.346767 0.532623
vt 0.345017 0.523824
vt 0.346767 0.515025
vt 0.351751 0.507565
vt 0.359211 0.502581
vt 0.240743 0.615275
vt 0.240743 0.458903
vt 0.283475 0.458903
vt 0.326206 0.458903
vt 0.326206 0.615275
vt 0.244716 0.404435
vt 0.283475 0.404435
vt 0.322233 0.404435
vt 0.252802 0.340889
vt 0.283475 0.340889
vt 0.314147 0.340889
vt 0.330804 0.615275
vt 0.367960 0.615275
vt 0.367960 0.461732
vt 0.330874 0.461628
vt 0.405117 0.615275
vt 0.405047 0.461628
vt 0.367960 0.412842
vt 0.334557 0.412558
vt 0.401363 0.412558
vt 0.367960 0.351705
vt 0.342017 0.351330
vt 0.393904 0.351330
vt 0.080077 0.928920
vt 0.080077 0.931239
vt 0.083028 0.927636
vt 0.082926 0.925442
vt 0.127747 0.979814
vt 0.117618 0.971675
vt 0.119282 0.969643
vt 0.129041 0.977486
vt 0.136428 0.982708
vt 0.136863 0.980089
vt 0.161353 0.982708
vt 0.161353 0.980086
vt 0.154949 0.950127
vt 0.154949 0.947808
vt 0.154949 0.943320
vt 0.154949 0.945462
vn -0.427300 -0.678800 -0.597200
vn -0.458200 -0.663400 -0.591500
vn -0.367600 -0.383400 -0.847200
vn -0.336600 -0.398600 -0.853100
vn -0.226900 -0.042400 -0.973000
vn -0.195700 -0.057200 -0.979000
vn -0.057500 0.307900 -0.949600
vn -0.026200 0.293400 -0.955600
vn 0.114800 0.614100 -0.780800
vn 0.146200 0.599800 -0.786600
vn 0.263800 0.829600 -0.492100
vn 0.295400 0.815500 -0.497700
vn 0.366700 0.921500 -0.127500
vn 0.398400 0.907500 -0.132800
vn 0.408000 0.875900 0.257400
vn 0.439700 0.861900 0.252500
vn 0.381300 0.699800 0.604100
vn 0.412900 0.685600 0.599500
vn 0.290600 0.419800 0.859800
vn 0.322200 0.405400 0.855400
vn 0.149900 0.078700 0.985500
vn 0.181400 0.064000 0.981300
vn -0.019500 -0.271500 0.962200
vn 0.011800 -0.286600 0.958000
vn -0.191800 -0.577700 0.793400
vn -0.160600 -0.593000 0.789000
vn -0.340800 -0.793200 0.504700
vn -0.309700 -0.808700 0.500000
vn -0.443700 -0.885100 0.140100
vn -0.412800 -0.900800 0.135100
vn -0.398500 -0.367600 -0.840200
vn -0.258100 -0.027300 -0.965700
vn -0.454100 -0.855100 -0.250100
vn -0.485000 -0.839500 -0.244800
vn -0.894400 0.422800 0.145900
vn -0.223100 -0.561500 0.796800
vn -0.371700 -0.776500 0.508700
vn 0.082900 0.627800 -0.773900
vn 0.231500 0.842800 -0.485900
vn -0.515600 -0.822700 -0.239100
vn -0.488900 -0.647000 -0.585100
vn 0.375400 0.889000 0.262000
vn 0.348800 0.713200 0.608000
vn 0.117900 0.093600 0.988600
vn -0.051100 -0.256000 0.965300
vn -0.089000 0.322200 -0.942400
vn -0.474400 -0.868300 0.145000
vn 0.334200 0.934500 -0.122100
vn 0.258300 0.433900 0.863100
vn -0.329400 -0.402000 -0.854300
vn -0.188600 -0.060600 -0.980200
vn -0.153400 -0.596500 0.787800
vn -0.302600 -0.812100 0.498900
vn 0.188600 0.060600 0.980200
vn 0.019000 -0.290000 0.956800
vn 0.420100 0.682200 0.598300
vn 0.329400 0.402000 0.854300
vn 0.405600 0.904200 -0.133900
vn 0.446900 0.858500 0.251300
vn 0.153400 0.596500 -0.787800
vn 0.302600 0.812100 -0.498900
vn -0.446900 -0.858500 -0.251300
vn -0.420100 -0.682200 -0.598300
vn -0.019000 0.290000 -0.956800
vn -0.405600 -0.904200 0.133900
vn 0.859400 -0.334100 -0.387000
vn 0.903700 -0.255300 -0.343500
vn 0.907200 -0.331500 -0.259000
vn 0.882100 -0.376100 -0.283600
vn 0.760000 -0.641100 -0.106600
vn 0.749400 -0.629400 -0.205600
vn 0.819800 -0.543200 -0.180900
vn 0.825800 -0.549900 -0.124900
vn 0.779600 -0.512000 -0.360600
vn 0.815800 -0.424200 -0.393000
vn 0.857400 -0.427100 -0.287000
vn 0.836900 -0.476800 -0.268700
vn 0.824900 -0.562000 0.061500
vn 0.786500 -0.617400 -0.012800
vn 0.840800 -0.536500 -0.071800
vn 0.862500 -0.505100 -0.029700
vn 0.912800 -0.393000 0.111000
vn 0.869200 -0.483200 0.105000
vn 0.887600 -0.460500 -0.005100
vn 0.912300 -0.409500 -0.001700
vn 0.972300 -0.233200 0.012800
vn 0.949000 -0.305200 0.078600
vn 0.932800 -0.359800 -0.020100
vn 0.946000 -0.319000 -0.057300
vn 0.968600 -0.176100 -0.175500
vn 0.979200 -0.187900 -0.076400
vn 0.949900 -0.293400 -0.107800
vn 0.943900 -0.286800 -0.163900
vn 0.942100 -0.199800 -0.269300
vn 0.928900 -0.300100 -0.217000
vn 0.756300 -0.584000 -0.294800
vn 0.823700 -0.517600 -0.231400
vn 0.894400 -0.422800 -0.145900
vn 0.860100 0.471400 -0.194600
vn 0.893200 0.434900 0.114000
vn 0.658100 0.224900 -0.718500
vn 0.777600 0.397700 -0.487000
vn 0.177100 -0.940900 -0.288700
vn 0.198500 -0.799600 -0.566700
vn 0.384100 -0.301600 -0.872600
vn 0.519900 -0.020700 -0.853900
vn 0.292700 -0.903700 0.312400
vn 0.210200 -0.977400 0.020000
vn 0.271200 -0.575100 -0.771800
vn 0.550400 -0.485400 0.679300
vn 0.412200 -0.730900 0.543900
vn 0.799100 0.069100 0.597200
vn 0.686300 -0.204400 0.698000
vn 0.871800 0.293600 0.392100
vn 0.382100 0.552700 0.740600
vn 0.519300 0.474700 0.710600
vn 0.558100 0.605600 0.567200
vn 0.579800 0.709700 0.400300
vn 0.442000 0.785500 0.433100
vn 0.758400 0.266900 0.594500
vn 0.795000 0.399000 0.456900
vn 0.817700 0.496900 0.290700
vn 0.847600 0.144300 0.510500
vn 0.891800 0.259800 0.370400
vn 0.904800 0.366300 0.217300
vn -0.382100 -0.552700 -0.740600
vn -0.557800 -0.605800 -0.567300
vn -0.519200 -0.474700 -0.710600
vn -0.442000 -0.785500 -0.433100
vn -0.579600 -0.709800 -0.400300
vn -0.794400 -0.399700 -0.457400
vn -0.758700 -0.266600 -0.594300
vn -0.817900 -0.496600 -0.290600
vn -0.891800 -0.259800 -0.370400
vn -0.847700 -0.144400 -0.510500
vn -0.904700 -0.366300 -0.217400
vn 0.406100 -0.849200 -0.337400
vn 0.440600 -0.754900 -0.485700
vn 0.048200 0.449300 -0.892100
vn 0.030700 0.460800 -0.886900
vn 0.048100 0.449400 -0.892000
vn -0.269500 -0.706300 0.654600
vn -0.252000 -0.717600 0.649200
vn -0.252100 -0.717500 0.649300
vn 0.460900 -0.636300 -0.618500
vn 0.066600 0.443900 -0.893600
vn -0.233800 -0.724000 0.648900
vn 0.067700 0.450000 -0.890400
vn -0.233100 -0.719500 0.654200
s 1
f 166/1/1 2/2/2 4/3/3 167/4/4
f 167/4/4 4/3/3 6/5/5 168/6/6
f 168/6/6 6/5/5 8/7/7 169/8/8
f 169/8/8 8/7/7 10/9/9 170/10/10
f 170/10/10 10/9/9 12/11/11 171/12/12
f 171/12/12 12/11/11 14/13/13 172/14/14
f 172/14/14 14/13/13 16/15/15 173/16/16
f 173/16/16 16/15/15 18/17/17 174/18/18
f 174/18/18 18/17/17 20/15/19 175/16/20
f 175/16/20 20/15/19 22/13/21 176/14/22
f 176/14/22 22/13/21 24/11/23 177/12/24
f 177/12/24 24/11/23 26/9/25 178/10/26
f 178/10/26 26/9/25 28/7/27 179/8/28
f 179/8/28 28/7/27 30/5/29 180/6/30
f 6/5/5 4/3/3 50/19/31 200/20/32
f 181/4/33 32/3/34 2/2/2 166/1/1
f 180/6/30 30/5/29 32/3/34 181/4/33
f 11/21/35 13/22/35 188/23/35 187/24/35
f 17/25/35 19/26/35 191/27/35 190/28/35
f 23/29/35 25/30/35 194/31/35 193/32/35
f 7/33/35 9/34/35 186/35/35 185/36/35
f 29/37/35 31/38/35 197/39/35 196/40/35
f 13/22/35 15/41/35 189/42/35 188/23/35
f 19/26/35 21/43/35 192/44/35 191/27/35
f 3/45/35 5/46/35 184/47/35 183/48/35
f 25/30/35 27/49/35 195/50/35 194/31/35
f 9/34/35 11/21/35 187/24/35 186/35/35
f 31/38/35 1/51/35 182/52/35 197/39/35
f 1/51/35 3/45/35 183/48/35 182/52/35
f 15/41/35 17/25/35 190/28/35 189/42/35
f 21/43/35 23/29/35 193/32/35 192/44/35
f 5/46/35 7/33/35 185/36/35 184/47/35
f 27/49/35 29/37/35 196/40/35 195/50/35
f 198/53/35 199/54/35 213/53/35 212/55/35 211/56/35 210/57/35 209/58/35 208/59/35 207/60/35 206/61/35 205/60/35 204/59/35 203/58/35 202/57/35 201/56/35 51/55/35
f 28/7/27 26/9/25 61/62/36 62/63/37
f 12/11/11 10/9/9 53/62/38 54/64/39
f 2/2/2 32/3/34 64/19/40 49/65/41
f 4/3/3 2/2/2 49/65/41 50/19/31
f 18/17/17 16/15/15 56/66/42 57/67/43
f 24/11/23 22/13/21 59/68/44 60/64/45
f 8/7/7 6/5/5 200/20/32 52/63/46
f 30/5/29 28/7/27 62/63/37 63/20/47
f 14/13/13 12/11/11 54/64/39 55/68/48
f 20/15/19 18/17/17 57/67/43 58/66/49
f 26/9/25 24/11/23 60/64/45 61/62/36
f 10/9/9 8/7/7 52/63/46 53/62/38
f 32/3/34 30/5/29 63/20/47 64/19/40
f 16/15/15 14/13/13 55/68/48 56/66/42
f 22/13/21 20/15/19 58/66/49 59/68/44
f 34/69/50 35/70/51 216/71/51 215/72/50
f 45/73/52 46/74/53 235/75/53 234/76/52
f 43/77/54 44/78/55 233/79/55 232/80/54
f 41/81/56 42/82/57 229/83/57 226/84/56
f 39/77/58 40/85/59 221/86/59 220/80/58
f 37/73/60 38/78/61 219/79/61 218/76/60
f 48/69/62 33/87/63 214/88/63 237/72/62
f 35/70/51 36/74/64 217/75/64 216/71/51
f 46/74/53 47/70/65 236/71/65 235/75/53
f 33/87/63 34/69/50 215/72/50 214/88/63
f 44/78/55 45/73/52 234/76/52 233/79/55
f 42/85/57 43/77/54 232/80/54 229/86/57
f 40/89/59 41/81/56 226/84/56 221/90/59
f 38/78/61 39/77/58 220/80/58 219/79/61
f 36/74/64 37/73/60 218/76/60 217/75/64
f 47/70/65 48/69/62 237/72/62 236/71/65
f 68/91/66 69/92/67 85/93/68 84/94/69
f 79/95/70 80/96/71 96/97/72 95/98/73
f 66/96/74 67/95/75 83/98/76 82/97/77
f 77/92/78 78/91/79 94/94/80 93/93/81
f 75/99/82 76/100/83 92/101/84 91/102/85
f 227/103/86 230/104/87 90/105/88 89/106/89
f 71/99/90 223/104/91 88/105/92 87/102/93
f 69/92/67 70/100/94 86/101/95 85/93/68
f 80/96/71 65/107/96 81/108/97 96/97/72
f 67/95/75 68/91/66 84/94/69 83/98/76
f 78/91/79 79/95/70 95/98/73 94/94/80
f 65/107/96 66/96/74 82/97/77 81/108/97
f 76/100/83 77/92/78 93/93/81 92/101/84
f 230/104/87 75/99/82 91/102/85 90/105/88
f 223/104/91 227/103/86 89/106/89 88/105/92
f 70/100/94 71/99/90 87/102/93 86/101/95
f 85/109/68 86/110/95 243/111/98 242/109/98
f 96/112/72 81/113/97 238/114/98 253/115/98
f 83/116/76 84/117/69 241/118/98 240/119/98
f 94/117/80 95/116/73 252/119/98 251/118/98
f 81/113/97 82/112/77 239/115/98 238/114/98
f 92/110/84 93/109/81 250/109/98 249/111/98
f 90/120/88 91/121/85 248/122/98 247/123/98
f 88/120/92 89/124/89 246/125/98 245/123/98
f 86/110/95 87/121/93 244/122/98 243/111/98
f 84/117/69 85/109/68 242/109/98 241/118/98
f 95/116/73 96/112/72 253/115/98 252/119/98
f 82/112/77 83/116/76 240/119/98 239/115/98
f 93/109/81 94/117/80 251/118/98 250/109/98
f 91/121/85 92/110/84 249/111/98 248/122/98
f 89/124/89 90/120/88 247/123/98 246/125/98
f 87/121/93 88/120/92 245/123/98 244/122/98
f 102/126/61 103/127/58 260/128/58 259/129/61
f 100/130/64 101/131/60 258/132/60 257/133/64
f 111/134/65 112/135/62 269/136/62 268/137/65
f 98/135/50 99/134/51 256/137/51 255/136/50
f 109/131/52 110/130/53 267/133/53 266/132/52
f 107/127/54 108/126/55 265/129/55 264/128/54
f 105/138/56 106/139/57 263/140/57 262/141/56
f 103/127/58 104/139/59 261/140/59 260/128/58
f 101/131/60 102/126/61 259/129/61 258/132/60
f 112/135/62 97/142/63 254/143/63 269/136/62
f 99/134/51 100/130/64 257/133/64 256/137/51
f 110/130/53 111/134/65 268/137/65 267/133/53
f 97/142/63 98/135/50 255/136/50 254/143/63
f 108/126/55 109/131/52 266/132/52 265/129/55
f 106/139/57 107/127/54 264/128/54 263/140/57
f 104/139/59 105/138/56 262/141/56 261/140/59
f 119/128/99 120/140/100 277/144/100 276/145/99
f 117/132/101 118/129/102 275/146/102 274/147/101
f 128/136/103 113/143/104 270/148/104 285/149/103
f 115/137/105 116/133/106 273/150/106 272/151/105
f 126/133/107 127/137/108 284/151/108 283/150/107
f 113/143/104 114/136/109 271/149/109 270/148/104
f 124/129/110 125/132/111 282/147/111 281/146/110
f 122/140/112 123/128/113 280/145/113 279/144/112
f 120/140/100 121/141/114 278/152/114 277/144/100
f 118/129/102 119/128/99 276/145/99 275/146/102
f 116/133/106 117/132/101 274/147/101 273/150/106
f 127/137/108 128/136/103 285/149/103 284/151/108
f 114/136/109 115/137/105 272/151/105 271/149/109
f 125/132/111 126/133/107 283/150/107 282/147/111
f 123/128/113 124/129/110 281/146/110 280/145/113
f 121/141/114 122/140/112 279/144/112 278/152/114
f 129/153/98 130/154/98 131/155/98 132/156/98 133/157/98 134/158/98 135/159/98 136/160/98 137/161/98 138/162/98 139/163/98 140/164/98 141/165/98 142/166/98 143/167/98 144/168/98
f 228/169/115 286/170/116 146/171/117 225/84/56
f 225/84/56 146/171/117 287/172/118 222/173/119
f 146/171/117 286/170/116 288/174/120 149/175/121
f 287/172/118 146/171/117 149/175/121 289/176/122
f 149/175/121 288/174/120 293/177/123 292/178/124
f 289/176/122 149/175/121 292/178/124 290/179/125
f 296/180/126 295/181/63 156/182/127 298/183/128
f 295/181/63 299/184/129 301/185/130 156/182/127
f 156/182/127 160/186/131 302/187/132 298/183/128
f 301/185/130 303/188/133 160/186/131 156/182/127
f 160/186/131 304/189/134 305/190/135 302/187/132
f 303/188/133 307/191/136 304/189/134 160/186/131
f 291/192/137 152/193/138 163/194/138 308/195/137
f 148/196/139 151/197/140 165/198/140 162/199/141
f 294/197/142 150/196/143 161/199/144 306/198/142
f 152/193/138 153/192/145 164/195/145 163/194/138
f 145/200/146 148/196/139 162/199/141 159/201/146
f 150/196/143 147/200/147 157/201/147 161/199/144
f 224/202/148 145/200/146 159/201/146 300/203/148
f 73/204/35 72/205/35 158/206/35 155/207/35
f 147/200/147 231/202/149 297/203/149 157/201/147
f 74/205/35 73/204/35 155/207/35 154/206/35
