# Blender v2.76 (sub 0) OBJ File: 'v_rapier.blend'
# www.blender.org
v 0.059480 0.089314 -0.740276
v 0.047109 0.920660 -1.835309
v 0.068979 0.090502 -0.739501
v 0.052349 0.921315 -1.834881
v 0.077214 0.094510 -0.736605
v 0.056892 0.923526 -1.833283
v 0.082930 0.100727 -0.732030
v 0.060045 0.926956 -1.830760
v 0.085257 0.108207 -0.726472
v 0.061329 0.931082 -1.827694
v 0.083841 0.115812 -0.720778
v 0.060548 0.935277 -1.824552
v 0.078898 0.122383 -0.715814
v 0.057821 0.938902 -1.821814
v 0.071179 0.126920 -0.712336
v 0.053563 0.941405 -1.819895
v 0.061861 0.128732 -0.710873
v 0.048422 0.942405 -1.819088
v 0.052361 0.127544 -0.711649
v 0.043182 0.941750 -1.819516
v 0.044126 0.123537 -0.714545
v 0.038639 0.939539 -1.821114
v 0.038410 0.117319 -0.719120
v 0.035485 0.936109 -1.823638
v 0.036083 0.109839 -0.724678
v 0.034201 0.931983 -1.826704
v 0.037499 0.102235 -0.730372
v 0.034983 0.927787 -1.829845
v 0.042443 0.095664 -0.735336
v 0.037710 0.924162 -1.832584
v 0.050161 0.091127 -0.738814
v 0.041968 0.921660 -1.834502
v 0.057372 0.054430 -0.766298
v 0.083686 0.057720 -0.764149
v 0.106496 0.068821 -0.756128
v 0.122330 0.086043 -0.743455
v 0.128776 0.106763 -0.728060
v 0.124854 0.127827 -0.712287
v 0.111160 0.146029 -0.698537
v 0.089780 0.158596 -0.688903
v 0.063968 0.163617 -0.684852
v 0.037654 0.160326 -0.687001
v 0.014844 0.149225 -0.695022
v -0.000989 0.132004 -0.707695
v -0.007436 0.111284 -0.723089
v -0.003514 0.090219 -0.738863
v 0.010180 0.072018 -0.752613
v 0.031560 0.059450 -0.762247
v 0.046925 0.942361 -1.860067
v 0.051170 0.942892 -1.859721
v 0.054850 0.944683 -1.858427
v 0.057404 0.947461 -1.856382
v 0.058444 0.950804 -1.853899
v 0.057811 0.954202 -1.851354
v 0.055602 0.957138 -1.849136
v 0.052153 0.959166 -1.847582
v 0.047989 0.959976 -1.846929
v 0.043744 0.959445 -1.847275
v 0.040065 0.957654 -1.848569
v 0.037510 0.954876 -1.850614
v 0.036470 0.951533 -1.853097
v 0.037103 0.948135 -1.855642
v 0.039312 0.945199 -1.857860
v 0.042761 0.943171 -1.859414
v 0.057535 0.044031 -0.752370
v 0.083849 0.047321 -0.750221
v 0.106659 0.058422 -0.742200
v 0.122493 0.075644 -0.729527
v 0.128939 0.096364 -0.714132
v 0.125017 0.117428 -0.698359
v 0.111323 0.135629 -0.684609
v 0.089943 0.148197 -0.674975
v 0.064131 0.153218 -0.670924
v 0.037817 0.149927 -0.673073
v 0.015007 0.138826 -0.681094
v -0.000826 0.121605 -0.693767
v -0.007273 0.100885 -0.709162
v -0.003350 0.079820 -0.724935
v 0.010343 0.061619 -0.738685
v 0.031723 0.049051 -0.748319
v 0.058987 0.062343 -0.729235
v 0.074285 0.064256 -0.727986
v 0.087545 0.070710 -0.723323
v 0.096749 0.080721 -0.715956
v 0.100497 0.092766 -0.707006
v 0.098217 0.105012 -0.697837
v 0.090256 0.115593 -0.689843
v 0.077827 0.122899 -0.684243
v 0.062822 0.125817 -0.681888
v 0.047525 0.123904 -0.683137
v 0.034264 0.117451 -0.687800
v 0.025060 0.107440 -0.695167
v 0.021312 0.095394 -0.704116
v 0.023593 0.083149 -0.713286
v 0.031553 0.072568 -0.721279
v 0.043982 0.065262 -0.726880
v 0.059507 0.070945 -0.722819
v 0.070658 0.072339 -0.721908
v 0.080325 0.077044 -0.718509
v 0.087034 0.084342 -0.713139
v 0.089766 0.093123 -0.706615
v 0.088104 0.102049 -0.699930
v 0.082301 0.109762 -0.694103
v 0.073241 0.115088 -0.690021
v 0.062302 0.117216 -0.688304
v 0.051151 0.115821 -0.689214
v 0.041485 0.111117 -0.692614
v 0.034775 0.103819 -0.697984
v 0.032043 0.095038 -0.704508
v 0.033705 0.086112 -0.711192
v 0.039508 0.078398 -0.717019
v 0.048568 0.073073 -0.721102
v 0.061020 -0.025507 -0.593636
v 0.072172 -0.024113 -0.592725
v 0.081838 -0.019408 -0.589326
v 0.088548 -0.012110 -0.583956
v 0.091280 -0.003330 -0.577432
v 0.089617 0.005597 -0.570747
v 0.083814 0.013310 -0.564920
v 0.074754 0.018636 -0.560838
v 0.063815 0.020764 -0.559121
v 0.052664 0.019369 -0.560032
v 0.042998 0.014665 -0.563431
v 0.036288 0.007367 -0.568801
v 0.033556 -0.001414 -0.575325
v 0.035218 -0.010340 -0.582010
v 0.041021 -0.018054 -0.587837
v 0.050082 -0.023380 -0.591919
v 0.061521 -0.025511 -0.579913
v 0.069501 -0.024513 -0.579261
v 0.076419 -0.021146 -0.576829
v 0.081221 -0.015923 -0.572985
v 0.083176 -0.009639 -0.568317
v 0.081986 -0.003251 -0.563533
v 0.077833 0.002269 -0.559363
v 0.071349 0.006080 -0.556441
v 0.063521 0.007603 -0.555213
v 0.055541 0.006605 -0.555864
v 0.048623 0.003238 -0.558297
v 0.043822 -0.001985 -0.562140
v 0.041867 -0.008268 -0.566809
v 0.043056 -0.014657 -0.571593
v 0.047209 -0.020177 -0.575763
v 0.053693 -0.023988 -0.578684
v 0.090840 0.091070 -0.598462
v 0.065028 0.096090 -0.594411
v 0.038714 0.092800 -0.596560
v 0.088192 0.062375 -0.578344
v 0.064804 0.067315 -0.574381
v 0.040913 0.063944 -0.576618
v 0.082116 0.014357 -0.565693
v 0.063660 0.019134 -0.561911
v 0.044701 0.015599 -0.564328
v 0.039327 0.141819 -0.679144
v 0.063626 0.144858 -0.677160
v 0.064506 0.088765 -0.602030
v 0.040254 0.085693 -0.603960
v 0.087462 0.140222 -0.680901
v 0.088298 0.084099 -0.605713
v 0.064307 0.062961 -0.584033
v 0.042439 0.059704 -0.585992
v 0.085711 0.058268 -0.587571
v 0.063208 0.016630 -0.572018
v 0.046168 0.013118 -0.574154
v 0.079777 0.012003 -0.575381
v 0.059480 0.089314 -0.740276
v 0.068979 0.090502 -0.739501
v 0.077214 0.094510 -0.736605
v 0.082930 0.100727 -0.732030
v 0.085257 0.108207 -0.726472
v 0.083841 0.115812 -0.720778
v 0.078898 0.122383 -0.715814
v 0.071179 0.126920 -0.712336
v 0.061861 0.128732 -0.710873
v 0.052361 0.127544 -0.711649
v 0.044126 0.123537 -0.714545
v 0.038410 0.117319 -0.719120
v 0.036083 0.109839 -0.724678
v 0.037499 0.102235 -0.730372
v 0.042443 0.095664 -0.735336
v 0.050161 0.091127 -0.738814
v 0.057372 0.054430 -0.766298
v 0.083686 0.057720 -0.764149
v 0.106496 0.068821 -0.756128
v 0.122330 0.086043 -0.743455
v 0.128776 0.106763 -0.728060
v 0.124854 0.127827 -0.712287
v 0.111160 0.146029 -0.698537
v 0.089780 0.158596 -0.688903
v 0.063968 0.163617 -0.684852
v 0.037654 0.160326 -0.687001
v 0.014844 0.149225 -0.695022
v -0.000989 0.132004 -0.707695
v -0.007436 0.111284 -0.723089
v -0.003514 0.090219 -0.738863
v 0.010180 0.072018 -0.752613
v 0.031560 0.059450 -0.762247
v 0.051170 0.942892 -1.859721
v 0.046925 0.942361 -1.860067
v 0.054850 0.944683 -1.858427
v 0.057404 0.947461 -1.856382
v 0.058444 0.950804 -1.853899
v 0.057811 0.954202 -1.851354
v 0.055602 0.957138 -1.849136
v 0.052153 0.959166 -1.847582
v 0.047989 0.959976 -1.846929
v 0.043744 0.959445 -1.847275
v 0.040065 0.957654 -1.848569
v 0.037510 0.954876 -1.850614
v 0.036470 0.951533 -1.853097
v 0.037103 0.948135 -1.855642
v 0.039312 0.945199 -1.857860
v 0.042761 0.943171 -1.859414
v 0.057535 0.044031 -0.752370
v 0.083849 0.047321 -0.750221
v 0.106659 0.058422 -0.742200
v 0.122493 0.075644 -0.729527
v 0.128939 0.096364 -0.714132
v 0.125017 0.117428 -0.698359
v 0.111323 0.135629 -0.684609
v 0.089943 0.148197 -0.674975
v 0.089943 0.148197 -0.674975
v 0.089943 0.148197 -0.674975
v 0.089943 0.148197 -0.674975
v 0.064131 0.153218 -0.670924
v 0.064131 0.153218 -0.670924
v 0.064131 0.153218 -0.670924
v 0.037817 0.149927 -0.673073
v 0.037817 0.149927 -0.673073
v 0.037817 0.149927 -0.673073
v 0.037817 0.149927 -0.673073
v 0.015007 0.138826 -0.681094
v -0.000826 0.121605 -0.693767
v -0.007273 0.100885 -0.709162
v -0.003350 0.079820 -0.724935
v 0.010343 0.061619 -0.738685
v 0.031723 0.049051 -0.748319
v 0.059507 0.070945 -0.722819
v 0.070658 0.072339 -0.721908
v 0.080325 0.077044 -0.718509
v 0.087034 0.084342 -0.713139
v 0.089766 0.093123 -0.706615
v 0.088104 0.102049 -0.699930
v 0.082301 0.109762 -0.694103
v 0.073241 0.115088 -0.690021
v 0.062302 0.117216 -0.688304
v 0.051151 0.115821 -0.689214
v 0.041485 0.111117 -0.692614
v 0.034775 0.103819 -0.697984
v 0.032043 0.095038 -0.704508
v 0.033705 0.086112 -0.711192
v 0.039508 0.078398 -0.717019
v 0.048568 0.073073 -0.721102
v 0.061020 -0.025507 -0.593636
v 0.072172 -0.024113 -0.592725
v 0.081838 -0.019408 -0.589326
v 0.088548 -0.012110 -0.583956
v 0.091280 -0.003330 -0.577432
v 0.089617 0.005597 -0.570747
v 0.083814 0.013310 -0.564920
v 0.074754 0.018636 -0.560838
v 0.063815 0.020764 -0.559121
v 0.052664 0.019369 -0.560032
v 0.042998 0.014665 -0.563431
v 0.036288 0.007367 -0.568801
v 0.033556 -0.001414 -0.575325
v 0.035218 -0.010340 -0.582010
v 0.041021 -0.018054 -0.587837
v 0.050082 -0.023380 -0.591919
v 0.061521 -0.025511 -0.579913
v 0.069501 -0.024513 -0.579261
v 0.076419 -0.021146 -0.576829
v 0.081221 -0.015923 -0.572985
v 0.083176 -0.009639 -0.568317
v 0.081986 -0.003251 -0.563533
v 0.077833 0.002269 -0.559363
v 0.071349 0.006080 -0.556441
v 0.063521 0.007603 -0.555213
v 0.055541 0.006605 -0.555864
v 0.048623 0.003238 -0.558297
v 0.043822 -0.001985 -0.562140
v 0.041867 -0.008268 -0.566809
v 0.043056 -0.014657 -0.571593
v 0.047209 -0.020177 -0.575763
v 0.053693 -0.023988 -0.578684
v 0.038714 0.092800 -0.596560
v 0.090840 0.091070 -0.598462
v 0.040913 0.063944 -0.576618
v 0.088192 0.062375 -0.578344
v 0.082116 0.014357 -0.565693
v 0.082116 0.014357 -0.565693
v 0.063660 0.019134 -0.561911
v 0.044701 0.015599 -0.564328
v 0.044701 0.015599 -0.564328
v 0.063626 0.144858 -0.677160
v 0.039327 0.141819 -0.679144
v 0.039327 0.141819 -0.679144
v 0.040254 0.085693 -0.603960
v 0.087462 0.140222 -0.680901
v 0.087462 0.140222 -0.680901
v 0.088298 0.084099 -0.605713
v 0.042439 0.059704 -0.585992
v 0.085711 0.058268 -0.587571
v 0.063208 0.016630 -0.572018
v 0.046168 0.013118 -0.574154
v 0.046168 0.013118 -0.574154
v 0.079777 0.012003 -0.575381
v 0.079777 0.012003 -0.575381
vt 0.000279 0.693228
vt 0.878256 0.693114
vt 0.878256 0.699227
vt 0.000279 0.699332
vt 0.878256 0.716634
vt 0.000279 0.716715
vt 0.878256 0.742686
vt 0.000279 0.742730
vt 0.878256 0.773417
vt 0.000279 0.773418
vt 0.878256 0.804148
vt 0.000279 0.804105
vt 0.878256 0.830200
vt 0.000279 0.830121
vt 0.878256 0.847608
vt 0.000279 0.847503
vt 0.878256 0.853720
vt 0.000279 0.853607
vt 0.895358 0.713323
vt 0.895358 0.727423
vt 0.641239 0.514579
vt 0.628601 0.533492
vt 0.701564 0.606454
vt 0.736568 0.554066
vt 0.587379 0.550566
vt 0.565070 0.546129
vt 0.525583 0.641459
vt 0.587379 0.653751
vt 0.533520 0.514579
vt 0.529082 0.492270
vt 0.425898 0.492270
vt 0.438190 0.554066
vt 0.641239 0.469960
vt 0.645676 0.492270
vt 0.748860 0.492270
vt 0.736568 0.430474
vt 0.546157 0.451048
vt 0.565070 0.438410
vt 0.525583 0.343080
vt 0.473195 0.378085
vt 0.609689 0.546129
vt 0.649175 0.641459
vt 0.546157 0.533492
vt 0.473195 0.606454
vt 0.609689 0.438410
vt 0.628601 0.451048
vt 0.701564 0.378085
vt 0.649175 0.343081
vt 0.533520 0.469960
vt 0.438190 0.430474
vt 0.587379 0.433973
vt 0.587379 0.330789
vt 0.919436 0.768072
vt 0.919436 0.767591
vt 0.919436 0.769440
vt 0.919436 0.771489
vt 0.919436 0.773905
vt 0.919436 0.776322
vt 0.919436 0.778370
vt 0.919436 0.779739
vt 0.919436 0.780220
vt 0.895358 0.773417
vt 0.895358 0.748525
vt 0.895358 0.798310
vt 0.895358 0.708371
vt 0.895358 0.833512
vt 0.895358 0.838463
vt 0.895358 0.819412
vt 0.207072 0.653717
vt 0.183987 0.653717
vt 0.183987 0.596723
vt 0.207072 0.596723
vt 0.108685 0.653717
vt 0.149438 0.653717
vt 0.149438 0.596723
vt 0.108685 0.596723
vt 0.033383 0.653717
vt 0.067932 0.653717
vt 0.067932 0.596723
vt 0.033383 0.596723
vt 0.283493 0.644166
vt 0.240535 0.644166
vt 0.240535 0.615315
vt 0.283493 0.615315
vt 0.010298 0.653717
vt 0.010298 0.596723
vt 0.215179 0.653717
vt 0.215179 0.596723
vt 0.326451 0.644166
vt 0.326451 0.615315
vt 0.149327 0.635129
vt 0.108461 0.635129
vt 0.108461 0.623032
vt 0.149266 0.623032
vt 0.183972 0.635129
vt 0.207120 0.635129
vt 0.206973 0.623032
vt 0.183859 0.623032
vt 0.032951 0.635129
vt 0.067595 0.635129
vt 0.067656 0.623032
vt 0.033063 0.623032
vt 0.001674 0.635129
vt 0.009802 0.635129
vt 0.009949 0.623032
vt 0.001833 0.623032
vt 0.215249 0.635129
vt 0.215090 0.623032
vt 0.108912 0.631179
vt 0.067694 0.631179
vt 0.078865 0.631179
vt 0.208424 0.631179
vt 0.216623 0.631179
vt 0.187431 0.631179
vt 0.181454 0.631179
vt 0.185075 0.631179
vt 0.150131 0.631179
vt 0.138960 0.631179
vt 0.164433 0.631179
vt 0.009401 0.631179
vt 0.032750 0.631179
vt 0.053392 0.631179
vt 0.036371 0.631179
vt 0.001202 0.631179
vt 0.030394 0.631179
vt 0.070430 0.594531
vt 0.036388 0.594531
vt 0.036388 0.350440
vt 0.070430 0.350440
vt 0.150740 0.594531
vt 0.110585 0.594531
vt 0.110585 0.350440
vt 0.150740 0.350440
vt 0.184781 0.594531
vt 0.207527 0.594531
vt 0.207527 0.350440
vt 0.184781 0.350440
vt 0.005655 0.594531
vt 0.013642 0.594531
vt 0.013642 0.350440
vt 0.005655 0.350440
vt 0.215514 0.594531
vt 0.215514 0.350440
vt 0.041209 0.333782
vt 0.057487 0.333782
vt 0.081848 0.333782
vt 0.110585 0.333782
vt 0.185677 0.333782
vt 0.179960 0.333782
vt 0.139321 0.333782
vt 0.163683 0.333782
vt 0.035493 0.333782
vt 0.368010 0.500831
vt 0.376809 0.502581
vt 0.384269 0.507565
vt 0.389253 0.515025
vt 0.391004 0.523824
vt 0.389253 0.532623
vt 0.384269 0.540083
vt 0.376809 0.545067
vt 0.368010 0.546817
vt 0.359211 0.545067
vt 0.351751 0.540083
vt 0.346767 0.532623
vt 0.345017 0.523824
vt 0.346767 0.515025
vt 0.351751 0.507565
vt 0.359211 0.502581
vt 0.240743 0.615275
vt 0.240743 0.458903
vt 0.283475 0.458903
vt 0.326206 0.458903
vt 0.326206 0.615275
vt 0.244716 0.404435
vt 0.283475 0.404435
vt 0.322233 0.404435
vt 0.252802 0.340889
vt 0.283475 0.340889
vt 0.314147 0.340889
vt 0.330804 0.615275
vt 0.367960 0.615275
vt 0.367960 0.461732
vt 0.330874 0.461628
vt 0.405117 0.615275
vt 0.405047 0.461628
vt 0.367960 0.412842
vt 0.334557 0.412558
vt 0.401363 0.412558
vt 0.367960 0.351705
vt 0.342017 0.351330
vt 0.393904 0.351330
vt 0.080077 0.928920
vt 0.080077 0.931239
vt 0.083028 0.927636
vt 0.082926 0.925442
vt 0.127747 0.979814
vt 0.117618 0.971675
vt 0.119282 0.969643
vt 0.129041 0.977486
vt 0.136428 0.982708
vt 0.136863 0.980089
vt 0.161353 0.982708
vt 0.161353 0.980086
vt 0.154949 0.950127
vt 0.154949 0.947808
vt 0.154949 0.943320
vt 0.154949 0.945462
vn -0.048400 -0.795800 -0.603600
vn -0.048700 -0.774100 -0.631100
vn 0.336800 -0.725900 -0.599600
vn 0.337400 -0.747500 -0.572100
vn 0.671000 -0.563200 -0.482100
vn 0.672000 -0.584700 -0.454500
vn 0.903000 -0.311000 -0.296500
vn 0.904100 -0.332200 -0.268600
vn 0.997400 -0.007400 -0.070900
vn 0.998700 -0.028300 -0.042900
vn 0.940000 0.301200 0.160200
vn 0.941200 0.280500 0.188400
vn 0.739300 0.567900 0.361600
vn 0.740300 0.547500 0.390100
vn 0.426100 0.752100 0.502800
vn 0.426800 0.731800 0.531300
vn 0.047900 0.825600 0.562200
vn 0.048300 0.805400 0.590700
vn -0.337600 0.777400 0.530700
vn -0.337600 0.757100 0.559200
vn -0.671800 0.614800 0.413200
vn -0.672100 0.594300 0.441600
vn -0.903800 0.362400 0.227500
vn -0.904300 0.341800 0.255800
vn -0.998300 0.058800 0.001900
vn -0.998800 0.037900 0.030000
vn -0.940800 -0.249700 -0.229200
vn -0.941300 -0.270900 -0.201300
vn -0.740100 -0.516400 -0.430600
vn -0.740500 -0.537900 -0.402900
vn 0.335800 -0.703100 -0.626700
vn 0.669200 -0.540800 -0.509500
vn -0.427000 -0.722200 -0.544200
vn -0.426900 -0.700600 -0.571800
vn -0.009400 0.598200 -0.801200
vn -0.996400 0.079900 -0.026400
vn -0.939100 -0.228000 -0.257100
vn 0.995000 0.013800 -0.099100
vn 0.937600 0.321800 0.131500
vn -0.426300 -0.677900 -0.598900
vn -0.048900 -0.751300 -0.658200
vn 0.424800 0.771600 0.473300
vn 0.047500 0.845000 0.532600
vn -0.670700 0.634600 0.383900
vn -0.902200 0.382900 0.198600
vn 0.900700 -0.289100 -0.324200
vn -0.738900 -0.494100 -0.458100
vn 0.737400 0.587900 0.332500
vn -0.337200 0.796900 0.501100
vn 0.337500 -0.752300 -0.565700
vn 0.672000 -0.589600 -0.448000
vn -0.998800 0.033100 0.036400
vn -0.941300 -0.275700 -0.194900
vn -0.672000 0.589600 0.448000
vn -0.904200 0.337000 0.262200
vn 0.048300 0.800600 0.597200
vn -0.337500 0.752300 0.565700
vn 0.740400 0.542700 0.396500
vn 0.426900 0.727000 0.537800
vn 0.998800 -0.033100 -0.036400
vn 0.941300 0.275700 0.194900
vn -0.426900 -0.727000 -0.537800
vn -0.048300 -0.800600 -0.597200
vn 0.904200 -0.337000 -0.262200
vn -0.740400 -0.542700 -0.396500
vn 0.241600 -0.664800 0.706900
vn 0.265800 -0.586700 0.764900
vn 0.154600 -0.596700 0.787400
vn 0.140800 -0.640900 0.754600
vn -0.181300 -0.717600 0.672400
vn -0.100700 -0.765000 0.636000
vn -0.052800 -0.697700 0.714500
vn -0.098400 -0.670800 0.735000
vn 0.095800 -0.771600 0.628900
vn 0.181800 -0.729700 0.659100
vn 0.107100 -0.677700 0.727500
vn 0.058400 -0.701300 0.710400
vn -0.247700 -0.569600 0.783700
vn -0.232900 -0.649000 0.724200
vn -0.127700 -0.632000 0.764400
vn -0.136000 -0.587100 0.798000
vn -0.163700 -0.426500 0.889500
vn -0.223400 -0.491500 0.841700
vn -0.122300 -0.542800 0.830900
vn -0.088500 -0.506100 0.857900
vn 0.021500 -0.372300 0.927900
vn -0.077700 -0.384700 0.919700
vn -0.039800 -0.482400 0.875000
vn 0.016300 -0.475400 0.879600
vn 0.199400 -0.438600 0.876200
vn 0.118800 -0.391200 0.912600
vn 0.071400 -0.486100 0.871000
vn 0.117000 -0.512900 0.850400
vn 0.251000 -0.507200 0.824400
vn 0.146200 -0.551700 0.821100
vn -0.003400 -0.784000 0.620800
vn 0.002200 -0.708400 0.705800
vn 0.009400 -0.598200 0.801200
vn 0.598900 0.076800 0.797100
vn 0.347600 0.224500 0.910300
vn 0.805800 -0.384500 0.450200
vn 0.759800 -0.137000 0.635600
vn -0.336400 -0.940400 0.048600
vn -0.033100 -0.999400 0.000900
vn 0.544100 -0.830300 0.120500
vn 0.730100 -0.628000 0.269400
vn -0.748500 -0.578900 0.323300
vn -0.587600 -0.792800 0.161700
vn 0.276000 -0.960800 0.026200
vn -0.718900 -0.088000 0.689500
vn -0.794600 -0.331400 0.508700
vn -0.264800 0.244800 0.932700
vn -0.532800 0.114400 0.838400
vn 0.044300 0.283500 0.957900
vn -0.147400 0.791700 0.592800
vn -0.148400 0.685200 0.713100
vn 0.049200 0.694400 0.717900
vn 0.245000 0.672100 0.698700
vn 0.242300 0.778800 0.578600
vn -0.146600 0.405700 0.902100
vn 0.047000 0.419700 0.906400
vn 0.238500 0.392900 0.888100
vn -0.143300 0.242200 0.959600
vn 0.043300 0.240200 0.969700
vn 0.228500 0.229900 0.946000
vn 0.147400 -0.791700 -0.592800
vn -0.049200 -0.694600 -0.717700
vn 0.148500 -0.685300 -0.713000
vn -0.242300 -0.778800 -0.578600
vn -0.245000 -0.672200 -0.698600
vn -0.047000 -0.420700 -0.906000
vn 0.146600 -0.405300 -0.902300
vn -0.238500 -0.392500 -0.888300
vn -0.043300 -0.240300 -0.969700
vn 0.143100 -0.242300 -0.959600
vn -0.228400 -0.229900 -0.946000
vn -0.200500 -0.944500 0.260100
vn -0.022600 -0.965900 0.257700
vn 0.966800 -0.188100 -0.172600
vn 0.967000 -0.172600 -0.187500
vn 0.966900 -0.188000 -0.172700
vn -0.987400 -0.107700 -0.116200
vn -0.987200 -0.123300 -0.101300
vn -0.987200 -0.123100 -0.101400
vn 0.155900 -0.956400 0.247100
vn 0.968000 -0.197000 -0.155600
vn 0.968000 -0.197100 -0.155600
vn -0.987600 -0.132100 -0.084200
vn 0.969600 -0.190600 -0.153400
vn -0.988700 -0.125600 -0.081900
s 1
f 166/1/1 2/2/2 4/3/3 167/4/4
f 167/4/4 4/3/3 6/5/5 168/6/6
f 168/6/6 6/5/5 8/7/7 169/8/8
f 169/8/8 8/7/7 10/9/9 170/10/10
f 170/10/10 10/9/9 12/11/11 171/12/12
f 171/12/12 12/11/11 14/13/13 172/14/14
f 172/14/14 14/13/13 16/15/15 173/16/16
f 173/16/16 16/15/15 18/17/17 174/18/18
f 174/18/18 18/17/17 20/15/19 175/16/20
f 175/16/20 20/15/19 22/13/21 176/14/22
f 176/14/22 22/13/21 24/11/23 177/12/24
f 177/12/24 24/11/23 26/9/25 178/10/26
f 178/10/26 26/9/25 28/7/27 179/8/28
f 179/8/28 28/7/27 30/5/29 180/6/30
f 6/5/5 4/3/3 50/19/31 200/20/32
f 181/4/33 32/3/34 2/2/2 166/1/1
f 180/6/30 30/5/29 32/3/34 181/4/33
f 11/21/35 13/22/35 188/23/35 187/24/35
f 17/25/35 19/26/35 191/27/35 190/28/35
f 23/29/35 25/30/35 194/31/35 193/32/35
f 7/33/35 9/34/35 186/35/35 185/36/35
f 29/37/35 31/38/35 197/39/35 196/40/35
f 13/22/35 15/41/35 189/42/35 188/23/35
f 19/26/35 21/43/35 192/44/35 191/27/35
f 3/45/35 5/46/35 184/47/35 183/48/35
f 25/30/35 27/49/35 195/50/35 194/31/35
f 9/34/35 11/21/35 187/24/35 186/35/35
f 31/38/35 1/51/35 182/52/35 197/39/35
f 1/51/35 3/45/35 183/48/35 182/52/35
f 15/41/35 17/25/35 190/28/35 189/42/35
f 21/43/35 23/29/35 193/32/35 192/44/35
f 5/46/35 7/33/35 185/36/35 184/47/35
f 27/49/35 29/37/35 196/40/35 195/50/35
f 198/53/35 199/54/35 213/53/35 212/55/35 211/56/35 210/57/35 209/58/35 208/59/35 207/60/35 206/61/35 205/60/35 204/59/35 203/58/35 202/57/35 201/56/35 51/55/35
f 28/7/27 26/9/25 61/62/36 62/63/37
f 12/11/11 10/9/9 53/62/38 54/64/39
f 2/2/2 32/3/34 64/19/40 49/65/41
f 4/3/3 2/2/2 49/65/41 50/19/31
f 18/17/17 16/15/15 56/66/42 57/67/43
f 24/11/23 22/13/21 59/68/44 60/64/45
f 8/7/7 6/5/5 200/20/32 52/63/46
f 30/5/29 28/7/27 62/63/37 63/20/47
f 14/13/13 12/11/11 54/64/39 55/68/48
f 20/15/19 18/17/17 57/67/43 58/66/49
f 26/9/25 24/11/23 60/64/45 61/62/36
f 10/9/9 8/7/7 52/63/46 53/62/38
f 32/3/34 30/5/29 63/20/47 64/19/40
f 16/15/15 14/13/13 55/68/48 56/66/42
f 22/13/21 20/15/19 58/66/49 59/68/44
f 34/69/50 35/70/51 216/71/51 215/72/50
f 45/73/52 46/74/53 235/75/53 234/76/52
f 43/77/54 44/78/55 233/79/55 232/80/54
f 41/81/56 42/82/57 229/83/57 226/84/56
f 39/77/58 40/85/59 221/86/59 220/80/58
f 37/73/60 38/78/61 219/79/61 218/76/60
f 48/69/62 33/87/63 214/88/63 237/72/62
f 35/70/51 36/74/64 217/75/64 216/71/51
f 46/74/53 47/70/65 236/71/65 235/75/53
f 33/87/63 34/69/50 215/72/50 214/88/63
f 44/78/55 45/73/52 234/76/52 233/79/55
f 42/85/57 43/77/54 232/80/54 229/86/57
f 40/89/59 41/81/56 226/84/56 221/90/59
f 38/78/61 39/77/58 220/80/58 219/79/61
f 36/74/64 37/73/60 218/76/60 217/75/64
f 47/70/65 48/69/62 237/72/62 236/71/65
f 68/91/66 69/92/67 85/93/68 84/94/69
f 79/95/70 80/96/71 96/97/72 95/98/73
f 66/96/74 67/95/75 83/98/76 82/97/77
f 77/92/78 78/91/79 94/94/80 93/93/81
f 75/99/82 76/100/83 92/101/84 91/102/85
f 227/103/86 230/104/87 90/105/88 89/106/89
f 71/99/90 223/104/91 88/105/92 87/102/93
f 69/92/67 70/100/94 86/101/95 85/93/68
f 80/96/71 65/107/96 81/108/97 96/97/72
f 67/95/75 68/91/66 84/94/69 83/98/76
f 78/91/79 79/95/70 95/98/73 94/94/80
f 65/107/96 66/96/74 82/97/77 81/108/97
f 76/100/83 77/92/78 93/93/81 92/101/84
f 230/104/87 75/99/82 91/102/85 90/105/88
f 223/104/91 227/103/86 89/106/89 88/105/92
f 70/100/94 71/99/90 87/102/93 86/101/95
f 85/109/68 86/110/95 243/111/98 242/109/98
f 96/112/72 81/113/97 238/114/98 253/115/98
f 83/116/76 84/117/69 241/118/98 240/119/98
f 94/117/80 95/116/73 252/119/98 251/118/98
f 81/113/97 82/112/77 239/115/98 238/114/98
f 92/110/84 93/109/81 250/109/98 249/111/98
f 90/120/88 91/121/85 248/122/98 247/123/98
f 88/120/92 89/124/89 246/125/98 245/123/98
f 86/110/95 87/121/93 244/122/98 243/111/98
f 84/117/69 85/109/68 242/109/98 241/118/98
f 95/116/73 96/112/72 253/115/98 252/119/98
f 82/112/77 83/116/76 240/119/98 239/115/98
f 93/109/81 94/117/80 251/118/98 250/109/98
f 91/121/85 92/110/84 249/111/98 248/122/98
f 89/124/89 90/120/88 247/123/98 246/125/98
f 87/121/93 88/120/92 245/123/98 244/122/98
f 102/126/61 103/127/58 260/128/58 259/129/61
f 100/130/64 101/131/60 258/132/60 257/133/64
f 111/134/65 112/135/62 269/136/62 268/137/65
f 98/135/50 99/134/51 256/137/51 255/136/50
f 109/131/52 110/130/53 267/133/53 266/132/52
f 107/127/54 108/126/55 265/129/55 264/128/54
f 105/138/56 106/139/57 263/140/57 262/141/56
f 103/127/58 104/139/59 261/140/59 260/128/58
f 101/131/60 102/126/61 259/129/61 258/132/60
f 112/135/62 97/142/63 254/143/63 269/136/62
f 99/134/51 100/130/64 257/133/64 256/137/51
f 110/130/53 111/134/65 268/137/65 267/133/53
f 97/142/63 98/135/50 255/136/50 254/143/63
f 108/126/55 109/131/52 266/132/52 265/129/55
f 106/139/57 107/127/54 264/128/54 263/140/57
f 104/139/59 105/138/56 262/141/56 261/140/59
f 119/128/99 120/140/100 277/144/100 276/145/99
f 117/132/101 118/129/102 275/146/102 274/147/101
f 128/136/103 113/143/104 270/148/104 285/149/103
f 115/137/105 116/133/106 273/150/106 272/151/105
f 126/133/107 127/137/108 284/151/108 283/150/107
f 113/143/104 114/136/109 271/149/109 270/148/104
f 124/129/110 125/132/111 282/147/111 281/146/110
f 122/140/112 123/128/113 280/145/113 279/144/112
f 120/140/100 121/141/114 278/152/114 277/144/100
f 118/129/102 119/128/99 276/145/99 275/146/102
f 116/133/106 117/132/101 274/147/101 273/150/106
f 127/137/108 128/136/103 285/149/103 284/151/108
f 114/136/109 115/137/105 272/151/105 271/149/109
f 125/132/111 126/133/107 283/150/107 282/147/111
f 123/128/113 124/129/110 281/146/110 280/145/113
f 121/141/114 122/140/112 279/144/112 278/152/114
f 129/153/98 130/154/98 131/155/98 132/156/98 133/157/98 134/158/98 135/159/98 136/160/98 137/161/98 138/162/98 139/163/98 140/164/98 141/165/98 142/166/98 143/167/98 144/168/98
f 228/169/115 286/170/116 146/171/117 225/84/56
f 225/84/56 146/171/117 287/172/118 222/173/119
f 146/171/117 286/170/116 288/174/120 149/175/121
f 287/172/118 146/171/117 149/175/121 289/176/122
f 149/175/121 288/174/120 293/177/123 292/178/124
f 289/176/122 149/175/121 292/178/124 290/179/125
f 296/180/126 295/181/63 156/182/127 298/183/128
f 295/181/63 299/184/129 301/185/130 156/182/127
f 156/182/127 160/186/131 302/187/132 298/183/128
f 301/185/130 303/188/133 160/186/131 156/182/127
f 160/186/131 304/189/134 305/190/135 302/187/132
f 303/188/133 307/191/136 304/189/134 160/186/131
f 291/192/137 152/193/138 163/194/138 308/195/137
f 148/196/139 151/197/140 165/198/140 162/199/141
f 294/197/142 150/196/143 161/199/144 306/198/142
f 152/193/138 153/192/145 164/195/145 163/194/138
f 145/200/146 148/196/139 162/199/141 159/201/147
f 150/196/143 147/200/148 157/201/148 161/199/144
f 224/202/149 145/200/146 159/201/147 300/203/149
f 73/204/35 72/205/35 158/206/35 155/207/35
f 147/200/148 231/202/150 297/203/150 157/201/148
f 74/205/35 73/204/35 155/207/35 154/206/35
