# Blender v2.76 (sub 0) OBJ File: 'vending2_2.blend'
# www.blender.org
v 1.200000 0.320000 -1.280000
v 1.903655 0.320000 -1.280000
v 1.200000 0.320000 1.120000
v 1.903655 0.320000 1.120000
v 1.206164 -0.560000 1.106646
v 1.200000 -0.546646 1.120000
v 1.200000 -0.546646 -1.280000
v 1.206164 -0.560000 -1.263894
v 1.903655 -0.546646 -1.280000
v 1.890301 -0.560000 -1.263894
v 1.890301 -0.560000 1.106646
v 1.903655 -0.546646 1.120000
v 1.870825 -0.560001 1.057027
v 1.870825 -0.560001 0.173360
v 1.856339 -0.560001 0.161523
v 1.827367 -0.560001 0.153622
v 1.326922 -0.560000 0.153622
v 1.298588 -0.560000 0.159921
v 1.283981 -0.560000 0.168812
v 1.283981 -0.560001 1.052506
v 1.295418 -0.560001 1.069646
v 1.337333 -0.560001 1.086158
v 1.811744 -0.560000 1.086158
v 1.856200 -0.560001 1.074727
v 1.780372 -0.560001 -1.088073
v 1.780372 -0.560001 -0.726067
v 1.363107 -0.560001 -0.726067
v 1.363107 -0.560001 -1.087547
v 1.780372 -0.580001 -1.088073
v 1.780372 -0.580001 -0.726067
v 1.363107 -0.580001 -0.726067
v 1.363107 -0.580001 -1.087547
v 1.870825 -0.531696 1.057027
v 1.870825 -0.531696 0.173360
v 1.856339 -0.486040 0.161523
v 1.827367 -0.463185 0.153622
v 1.326922 -0.463185 0.153622
v 1.298588 -0.486040 0.159921
v 1.283981 -0.531696 0.168812
v 1.283981 -0.531696 1.052506
v 1.295418 -0.486040 1.069646
v 1.337333 -0.463185 1.086158
v 1.811744 -0.463185 1.086158
v 1.856200 -0.486040 1.074727
v 1.361067 -0.447369 0.153622
v 1.361067 -0.447369 1.086158
v 1.361067 0.319999 1.086158
v 1.474849 -0.434900 0.153622
v 1.474849 -0.434900 1.086158
v 1.789329 -0.447369 0.153622
v 1.789329 -0.447369 1.086158
v 1.653422 -0.434900 0.153622
v 1.653422 -0.434900 1.086158
vt 0.889662 0.761546
vt 0.889951 0.761546
vt 0.892433 0.761546
vt 0.893909 0.761546
vt 0.890917 0.761546
vt 0.710178 0.122324
vt 0.718292 0.122324
vt 0.718292 0.087312
vt 0.494033 0.238759
vt 0.494169 0.261413
vt 0.494221 0.261540
vt 0.494083 0.238604
vt 0.494032 0.238605
vt 0.494388 0.259007
vt 0.975267 0.597972
vt 0.778594 0.597972
vt 0.956798 0.226879
vt 0.761718 0.604380
vt 0.731136 0.000000
vt 0.792815 0.226881
vt 0.767459 0.600629
vt 0.986653 0.601305
vt 0.956798 0.074169
vt 0.792814 0.074390
vt 0.782685 0.991357
vt 0.969127 0.991357
vt 1.000000 1.000000
vt 0.894155 0.761618
vt 0.954856 0.075978
vt 0.794757 0.076194
vt 1.000000 0.000000
vt 0.794758 0.225072
vt 0.954855 0.225070
vt 0.969127 0.987368
vt 0.960318 0.987368
vt 0.960318 0.601961
vt 0.710178 0.087312
vt 0.891863 0.785422
vt 0.891863 0.793473
vt 0.865314 0.989967
vt 0.865691 0.989863
vt 0.896844 0.793515
vt 0.896844 0.785464
vt 0.858119 0.987057
vt 0.858022 0.986901
vt 0.889421 0.761604
vt 0.862879 0.987104
vt 0.863003 0.986942
vt 0.896722 0.785356
vt 0.861287 0.989967
vt 0.860932 0.989817
vt 0.891987 0.785341
vt 0.992346 0.606298
vt 0.767459 0.604564
vt 0.766213 0.980544
vt 0.761718 0.973460
vt 0.836729 0.987368
vt 0.792013 0.987368
vt 0.792012 0.601961
vt 0.893587 0.761546
vt 0.906908 0.987368
vt 0.906907 0.601961
vt 0.731136 1.000000
vt 0.761718 0.977162
vt 0.709225 0.209014
vt 0.706379 0.209014
vt 0.706379 0.219033
vt 0.836728 0.601961
vt 0.862455 0.989967
vt 0.863970 0.989967
vt 0.778594 0.601961
vt 0.782685 0.987368
vt 0.986599 0.982643
vt 0.975267 0.601961
vt 0.992346 0.975329
vt 0.986653 0.605227
vt 0.992346 0.979069
vt 0.766213 0.984392
vt 0.986599 0.986535
vt 0.761718 0.608239
vt 0.709225 0.219033
vt 0.865124 0.989967
vt 0.861489 0.989967
vt 0.992346 0.610119
vn 0.000000 0.000000 1.000000
vn -1.000000 0.000000 0.000000
vn -0.907900 -0.419100 0.000000
vn 0.000000 -0.769800 -0.638300
vn 0.000000 -0.707100 0.707100
vn -0.000000 -1.000000 0.000000
vn 0.707100 -0.707100 0.000000
vn -0.263100 0.000000 0.964800
vn -0.001300 0.000000 -1.000000
vn 1.000000 0.000000 0.000000
vn -0.576500 -0.817100 0.000000
vn -0.249000 0.000000 -0.968500
vn 0.831800 0.000000 -0.555000
vn 0.217000 0.000000 0.976200
vn -0.770900 0.000000 -0.637000
vn -0.632700 0.000000 0.774400
vn 0.366500 0.000000 -0.930400
vn 0.519900 0.000000 0.854200
vn 0.969700 -0.244200 0.003400
vn 0.000000 0.000000 -1.000000
vn 0.108900 -0.994000 -0.000000
vn -0.091400 -0.995800 0.000000
vn 0.000000 1.000000 0.000000
vn 0.480300 -0.877100 -0.005400
vn 0.554500 -0.832200 0.000000
vn -0.458800 -0.888500 -0.007700
vn -0.952400 -0.305000 -0.000100
vn -0.383900 -0.923300 -0.006400
vn 0.952400 -0.304700 -0.000000
vn 0.628100 -0.778100 0.002200
vn 0.420300 -0.907400 -0.004700
vn -0.619300 -0.785100 -0.000100
vn -0.953200 -0.302400 0.000000
s off
f 37/1/1 17/1/1 45/2/1
f 52/3/1 17/1/1 16/4/1
f 48/5/1 45/2/1 17/1/1
f 6/6/2 3/7/2 1/8/2
f 8/9/3 5/10/3 6/11/3
f 7/12/4 9/12/4 10/13/4
f 6/14/5 5/14/5 11/14/5
f 16/15/6 17/16/6 26/17/6
f 12/11/7 11/10/7 10/9/7
f 19/18/6 8/19/6 27/20/6
f 17/16/6 18/21/6 27/20/6
f 18/21/6 19/18/6 27/20/6
f 26/17/6 15/22/6 16/15/6
f 29/23/6 30/17/6 32/24/6
f 30/17/6 31/20/6 32/24/6
f 22/25/6 23/26/6 11/27/6
f 16/4/8 15/28/8 35/28/8
f 25/29/9 29/29/9 32/30/9
f 28/24/6 8/19/6 10/31/6
f 27/32/1 31/32/1 30/33/1
f 27/32/2 28/30/2 32/30/2
f 26/33/10 30/33/10 29/29/10
f 43/34/11 51/35/11 50/36/11
f 12/6/10 9/37/10 2/8/10
f 19/38/10 39/38/10 40/39/10
f 12/6/1 4/7/1 3/7/1
f 23/40/12 43/40/12 44/41/12
f 13/42/2 33/42/2 34/43/2
f 21/44/13 20/45/13 40/45/13
f 17/1/14 37/1/14 38/46/14
f 24/47/15 44/47/15 33/48/15
f 15/49/16 14/43/16 34/43/16
f 22/50/17 21/51/17 41/51/17
f 18/52/18 38/52/18 39/38/18
f 26/17/6 14/53/6 15/22/6
f 38/54/19 41/55/19 40/56/19
f 7/37/20 1/8/20 2/8/20
f 17/1/1 52/3/1 48/5/1
f 26/17/6 10/31/6 14/53/6
f 49/57/21 46/58/21 45/59/21
f 9/12/7 12/11/7 10/9/7
f 50/60/1 52/3/1 16/4/1
f 7/37/2 6/6/2 1/8/2
f 51/35/22 53/61/22 52/62/22
f 12/14/5 6/14/5 11/14/5
f 5/63/6 19/18/6 20/64/6
f 8/13/4 7/12/4 10/13/4
f 19/18/6 5/63/6 8/19/6
f 2/65/23 1/66/23 3/67/23
f 16/4/1 36/4/1 50/60/1
f 27/20/6 26/17/6 17/16/6
f 7/12/3 8/9/3 6/11/3
f 53/61/6 49/57/6 48/68/6
f 49/69/20 53/70/20 22/50/20
f 37/71/24 42/72/24 41/55/24
f 45/59/25 46/58/25 42/72/25
f 44/73/26 43/34/26 36/74/26
f 33/75/27 44/73/27 35/76/27
f 10/31/6 11/27/6 14/53/6
f 13/77/6 14/53/6 11/27/6
f 5/63/6 20/64/6 21/78/6
f 24/79/6 13/77/6 11/27/6
f 5/63/6 21/78/6 22/25/6
f 23/26/6 24/79/6 11/27/6
f 11/27/6 5/63/6 22/25/6
f 36/4/8 16/4/8 35/28/8
f 28/30/9 25/29/9 32/30/9
f 28/24/6 27/20/6 8/19/6
f 10/31/6 26/17/6 25/23/6
f 25/23/6 28/24/6 10/31/6
f 26/33/1 27/32/1 30/33/1
f 31/32/2 27/32/2 32/30/2
f 25/29/10 26/33/10 29/29/10
f 36/74/28 43/34/28 50/36/28
f 4/7/10 12/6/10 2/8/10
f 20/39/10 19/38/10 40/39/10
f 6/6/1 12/6/1 3/7/1
f 24/41/12 23/40/12 44/41/12
f 14/43/2 13/42/2 34/43/2
f 41/44/13 21/44/13 40/45/13
f 18/46/14 17/1/14 38/46/14
f 13/48/15 24/47/15 33/48/15
f 35/49/16 15/49/16 34/43/16
f 42/50/17 22/50/17 41/51/17
f 19/38/18 18/52/18 39/38/18
f 39/80/29 38/54/29 40/56/29
f 9/37/20 7/37/20 2/8/20
f 48/68/21 49/57/21 45/59/21
f 50/36/22 51/35/22 52/62/22
f 4/81/23 2/65/23 3/67/23
f 52/62/6 53/61/6 48/68/6
f 43/40/20 23/40/20 51/82/20
f 22/50/20 42/50/20 46/83/20
f 46/83/20 49/69/20 22/50/20
f 53/70/20 51/82/20 23/40/20
f 23/40/20 22/50/20 53/70/20
f 38/54/30 37/71/30 41/55/30
f 37/71/31 45/59/31 42/72/31
f 35/76/32 44/73/32 36/74/32
f 34/84/33 33/75/33 35/76/33
