v 0.000000 0.197182 -0.024617
v 0.000000 1.572050 -0.013580
v 0.009421 0.197182 -0.022743
v 0.005197 1.572050 -0.012547
v 0.017407 0.197182 -0.017407
v 0.009603 1.572050 -0.009603
v 0.022743 0.197182 -0.009420
v 0.012547 1.572050 -0.005197
v 0.024617 0.197182 0.000000
v 0.013581 1.572050 -0.000000
v 0.022743 0.197182 0.009421
v 0.012547 1.572050 0.005197
v 0.017407 0.197182 0.017407
v 0.009603 1.572050 0.009603
v 0.009421 0.197182 0.022743
v 0.005197 1.572050 0.012547
v 0.000000 0.197182 0.024617
v 0.000000 1.572050 0.013580
v -0.009420 0.197182 0.022743
v -0.005197 1.572050 0.012547
v -0.017407 0.197182 0.017407
v -0.009603 1.572050 0.009603
v -0.022743 0.197182 0.009421
v -0.012546 1.572050 0.005197
v -0.024617 0.197182 0.000000
v -0.013580 1.572050 -0.000000
v -0.022743 0.197182 -0.009420
v -0.012546 1.572050 -0.005197
v -0.017407 0.197182 -0.017407
v -0.009603 1.572050 -0.009603
v -0.009420 0.197182 -0.022743
v -0.005197 1.572050 -0.012547
v 0.000000 0.197182 -0.068189
v 0.026095 0.197182 -0.062998
v 0.048217 0.197182 -0.048217
v 0.062998 0.197182 -0.026095
v 0.068189 0.197182 0.000000
v 0.062998 0.197182 0.026095
v 0.048217 0.197182 0.048217
v 0.026095 0.197182 0.062998
v 0.000000 0.197182 0.068189
v -0.026095 0.197182 0.062998
v -0.048217 0.197182 0.048217
v -0.062998 0.197182 0.026095
v -0.068189 0.197182 0.000000
v -0.062998 0.197182 -0.026095
v -0.048217 0.197182 -0.048217
v -0.026095 0.197182 -0.062998
v 0.000000 1.604873 -0.011000
v 0.004210 1.604873 -0.010163
v 0.007778 1.604873 -0.007778
v 0.010163 1.604873 -0.004210
v 0.011000 1.604873 -0.000000
v 0.010163 1.604873 0.004210
v 0.007778 1.604873 0.007778
v 0.004210 1.604873 0.010163
v 0.000000 1.604873 0.011000
v -0.004209 1.604873 0.010163
v -0.007778 1.604873 0.007778
v -0.010163 1.604873 0.004210
v -0.011000 1.604873 -0.000000
v -0.010163 1.604873 -0.004210
v -0.007778 1.604873 -0.007778
v -0.004209 1.604873 -0.010163
v 0.000000 0.179799 -0.068189
v 0.026095 0.179799 -0.062998
v 0.048217 0.179799 -0.048217
v 0.062998 0.179799 -0.026095
v 0.068189 0.179799 0.000000
v 0.062998 0.179799 0.026095
v 0.048217 0.179799 0.048217
v 0.026095 0.179799 0.062998
v 0.000000 0.179799 0.068189
v -0.026095 0.179799 0.062998
v -0.048217 0.179799 0.048217
v -0.062998 0.179799 0.026095
v -0.068189 0.179799 0.000000
v -0.062998 0.179799 -0.026095
v -0.048217 0.179799 -0.048217
v -0.026095 0.179799 -0.062998
v 0.000000 0.172204 -0.039640
v 0.015170 0.172204 -0.036623
v 0.028030 0.172204 -0.028030
v 0.036623 0.172204 -0.015170
v 0.039640 0.172204 0.000000
v 0.036623 0.172204 0.015170
v 0.028030 0.172204 0.028030
v 0.015170 0.172204 0.036623
v 0.000000 0.172204 0.039640
v -0.015170 0.172204 0.036623
v -0.028030 0.172204 0.028030
v -0.036623 0.172204 0.015170
v -0.039640 0.172204 0.000000
v -0.036623 0.172204 -0.015170
v -0.028030 0.172204 -0.028030
v -0.015170 0.172204 -0.036623
v 0.000000 0.172204 -0.028897
v 0.011058 0.172204 -0.026697
v 0.020433 0.172204 -0.020433
v 0.026697 0.172204 -0.011058
v 0.028897 0.172204 0.000000
v 0.026697 0.172204 0.011058
v 0.020433 0.172204 0.020433
v 0.011058 0.172204 0.026697
v 0.000000 0.172204 0.028897
v -0.011058 0.172204 0.026697
v -0.020433 0.172204 0.020433
v -0.026697 0.172204 0.011058
v -0.028897 0.172204 0.000000
v -0.026697 0.172204 -0.011058
v -0.020433 0.172204 -0.020433
v -0.011058 0.172204 -0.026697
v 0.000000 0.010979 -0.028897
v 0.011058 0.010979 -0.026697
v 0.020433 0.010979 -0.020433
v 0.026697 0.010979 -0.011058
v 0.028897 0.010979 0.000000
v 0.026697 0.010979 0.011058
v 0.020433 0.010979 0.020433
v 0.011058 0.010979 0.026697
v 0.000000 0.010979 0.028897
v -0.011058 0.010979 0.026697
v -0.020433 0.010979 0.020433
v -0.026697 0.010979 0.011058
v -0.028897 0.010979 0.000000
v -0.026697 0.010979 -0.011058
v -0.020433 0.010979 -0.020433
v -0.011058 0.010979 -0.026697
v -0.000000 -0.000023 -0.020680
v 0.007914 -0.000023 -0.019106
v 0.014623 -0.000023 -0.014623
v 0.019106 -0.000023 -0.007914
v 0.020680 -0.000023 0.000000
v 0.019106 -0.000023 0.007914
v 0.014623 -0.000023 0.014623
v 0.007914 -0.000023 0.019106
v 0.000000 -0.000023 0.020680
v -0.007914 -0.000023 0.019106
v -0.014623 -0.000023 0.014623
v -0.019106 -0.000023 0.007914
v -0.020680 -0.000023 0.000000
v -0.019106 -0.000023 -0.007914
v -0.014623 -0.000023 -0.014623
v -0.007914 -0.000023 -0.019106
v 0.026095 0.084308 0.062998
v 0.000000 0.084308 0.068189
v -0.026095 0.084308 0.062998
v 0.023668 0.051046 0.051911
v 0.000000 0.051046 0.057101
v -0.023668 0.051046 0.051911
v 0.018731 0.012241 0.020728
v 0.000000 0.012241 0.025919
v -0.018731 0.012241 0.020728
v -0.024097 0.179799 0.052954
v 0.000000 0.179799 0.057747
v 0.000000 0.086035 0.057748
v -0.024051 0.085972 0.052963
v 0.024097 0.179799 0.052954
v 0.024051 0.085972 0.052963
v 0.000000 0.056180 0.047828
v -0.021662 0.056007 0.042992
v 0.021662 0.056007 0.042992
v 0.000000 0.018845 0.017856
v -0.016825 0.018617 0.012944
v 0.016825 0.018617 0.012944
v 0.000000 0.197182 -0.024617
v 0.009421 0.197182 -0.022743
v 0.017407 0.197182 -0.017407
v 0.022743 0.197182 -0.009420
v 0.024617 0.197182 0.000000
v 0.022743 0.197182 0.009421
v 0.017407 0.197182 0.017407
v 0.009421 0.197182 0.022743
v 0.000000 0.197182 0.024617
v -0.009420 0.197182 0.022743
v -0.017407 0.197182 0.017407
v -0.022743 0.197182 0.009421
v -0.024617 0.197182 0.000000
v -0.022743 0.197182 -0.009420
v -0.017407 0.197182 -0.017407
v -0.009420 0.197182 -0.022743
v 0.000000 0.197182 -0.068189
v 0.026095 0.197182 -0.062998
v 0.048217 0.197182 -0.048217
v 0.062998 0.197182 -0.026095
v 0.068189 0.197182 0.000000
v 0.062998 0.197182 0.026095
v 0.048217 0.197182 0.048217
v 0.026095 0.197182 0.062998
v 0.000000 0.197182 0.068189
v -0.026095 0.197182 0.062998
v -0.048217 0.197182 0.048217
v -0.062998 0.197182 0.026095
v -0.068189 0.197182 0.000000
v -0.062998 0.197182 -0.026095
v -0.048217 0.197182 -0.048217
v -0.026095 0.197182 -0.062998
v 0.004210 1.604873 -0.010163
v 0.000000 1.604873 -0.011000
v 0.007778 1.604873 -0.007778
v 0.010163 1.604873 -0.004210
v 0.011000 1.604873 -0.000000
v 0.010163 1.604873 0.004210
v 0.007778 1.604873 0.007778
v 0.004210 1.604873 0.010163
v 0.000000 1.604873 0.011000
v -0.004209 1.604873 0.010163
v -0.007778 1.604873 0.007778
v -0.010163 1.604873 0.004210
v -0.011000 1.604873 -0.000000
v -0.010163 1.604873 -0.004210
v -0.007778 1.604873 -0.007778
v -0.004209 1.604873 -0.010163
v 0.000000 0.179799 -0.068189
v 0.026095 0.179799 -0.062998
v 0.048217 0.179799 -0.048217
v 0.062998 0.179799 -0.026095
v 0.068189 0.179799 0.000000
v 0.062998 0.179799 0.026095
v 0.048217 0.179799 0.048217
v 0.026095 0.179799 0.062998
v 0.026095 0.179799 0.062998
v 0.026095 0.179799 0.062998
v 0.026095 0.179799 0.062998
v 0.000000 0.179799 0.068189
v 0.000000 0.179799 0.068189
v 0.000000 0.179799 0.068189
v -0.026095 0.179799 0.062998
v -0.026095 0.179799 0.062998
v -0.026095 0.179799 0.062998
v -0.026095 0.179799 0.062998
v -0.048217 0.179799 0.048217
v -0.062998 0.179799 0.026095
v -0.068189 0.179799 0.000000
v -0.062998 0.179799 -0.026095
v -0.048217 0.179799 -0.048217
v -0.026095 0.179799 -0.062998
v 0.000000 0.172204 -0.028897
v 0.011058 0.172204 -0.026697
v 0.020433 0.172204 -0.020433
v 0.026697 0.172204 -0.011058
v 0.028897 0.172204 0.000000
v 0.026697 0.172204 0.011058
v 0.020433 0.172204 0.020433
v 0.011058 0.172204 0.026697
v 0.000000 0.172204 0.028897
v -0.011058 0.172204 0.026697
v -0.020433 0.172204 0.020433
v -0.026697 0.172204 0.011058
v -0.028897 0.172204 0.000000
v -0.026697 0.172204 -0.011058
v -0.020433 0.172204 -0.020433
v -0.011058 0.172204 -0.026697
v 0.000000 0.010979 -0.028897
v 0.011058 0.010979 -0.026697
v 0.020433 0.010979 -0.020433
v 0.026697 0.010979 -0.011058
v 0.028897 0.010979 0.000000
v 0.026697 0.010979 0.011058
v 0.020433 0.010979 0.020433
v 0.011058 0.010979 0.026697
v 0.000000 0.010979 0.028897
v -0.011058 0.010979 0.026697
v -0.020433 0.010979 0.020433
v -0.026697 0.010979 0.011058
v -0.028897 0.010979 0.000000
v -0.026697 0.010979 -0.011058
v -0.020433 0.010979 -0.020433
v -0.011058 0.010979 -0.026697
v -0.000000 -0.000023 -0.020680
v 0.007914 -0.000023 -0.019106
v 0.014623 -0.000023 -0.014623
v 0.019106 -0.000023 -0.007914
v 0.020680 -0.000023 0.000000
v 0.019106 -0.000023 0.007914
v 0.014623 -0.000023 0.014623
v 0.007914 -0.000023 0.019106
v 0.000000 -0.000023 0.020680
v -0.007914 -0.000023 0.019106
v -0.014623 -0.000023 0.014623
v -0.019106 -0.000023 0.007914
v -0.020680 -0.000023 0.000000
v -0.019106 -0.000023 -0.007914
v -0.014623 -0.000023 -0.014623
v -0.007914 -0.000023 -0.019106
v -0.026095 0.084308 0.062998
v 0.026095 0.084308 0.062998
v -0.023668 0.051046 0.051911
v 0.023668 0.051046 0.051911
v 0.018731 0.012241 0.020728
v 0.018731 0.012241 0.020728
v 0.000000 0.012241 0.025919
v -0.018731 0.012241 0.020728
v -0.018731 0.012241 0.020728
v 0.000000 0.179799 0.057747
v -0.024097 0.179799 0.052954
v -0.024097 0.179799 0.052954
v -0.024051 0.085972 0.052963
v 0.024097 0.179799 0.052954
v 0.024097 0.179799 0.052954
v 0.024051 0.085972 0.052963
v -0.021662 0.056007 0.042992
v 0.021662 0.056007 0.042992
v 0.000000 0.018845 0.017856
v -0.016825 0.018617 0.012944
v -0.016825 0.018617 0.012944
v 0.016825 0.018617 0.012944
v 0.016825 0.018617 0.012944
vt 0.000279 0.693228
vt 0.878256 0.693114
vt 0.878256 0.699227
vt 0.000279 0.699332
vt 0.878256 0.716634
vt 0.000279 0.716715
vt 0.878256 0.742686
vt 0.000279 0.742730
vt 0.878256 0.773417
vt 0.000279 0.773418
vt 0.878256 0.804148
vt 0.000279 0.804105
vt 0.878256 0.830200
vt 0.000279 0.830121
vt 0.878256 0.847608
vt 0.000279 0.847503
vt 0.878256 0.853720
vt 0.000279 0.853607
vt 0.895358 0.713323
vt 0.895358 0.727423
vt 0.546157 0.533492
vt 0.533520 0.514579
vt 0.438190 0.554066
vt 0.473195 0.606454
vt 0.525583 0.641459
vt 0.565070 0.546129
vt 0.609689 0.546129
vt 0.587379 0.550566
vt 0.587379 0.653751
vt 0.649175 0.641459
vt 0.701564 0.606454
vt 0.736568 0.554066
vt 0.748860 0.492270
vt 0.736568 0.430474
vt 0.701564 0.378085
vt 0.649175 0.343081
vt 0.587379 0.330789
vt 0.525583 0.343080
vt 0.473195 0.378085
vt 0.438190 0.430474
vt 0.425898 0.492270
vt 0.529082 0.492270
vt 0.533520 0.469960
vt 0.546157 0.451048
vt 0.565070 0.438410
vt 0.587379 0.433973
vt 0.609689 0.438410
vt 0.628601 0.451048
vt 0.641239 0.469960
vt 0.645676 0.492270
vt 0.641239 0.514579
vt 0.628601 0.533492
vt 0.032750 0.631179
vt 0.009401 0.631179
vt 0.001202 0.631179
vt 0.067693 0.631179
vt 0.108912 0.631179
vt 0.078865 0.631179
vt 0.053392 0.631179
vt 0.036371 0.631179
vt 0.030394 0.631179
vt 0.138960 0.631179
vt 0.150131 0.631179
vt 0.919436 0.768072
vt 0.919436 0.767591
vt 0.919436 0.769440
vt 0.919436 0.771489
vt 0.919436 0.773905
vt 0.919436 0.776322
vt 0.919436 0.778370
vt 0.919436 0.779739
vt 0.919436 0.780220
vt 0.895358 0.773417
vt 0.895358 0.748525
vt 0.895358 0.798310
vt 0.895358 0.708371
vt 0.895358 0.833512
vt 0.895358 0.838463
vt 0.895358 0.819412
vt 0.207072 0.653717
vt 0.183987 0.653717
vt 0.183987 0.596723
vt 0.207072 0.596723
vt 0.108685 0.653717
vt 0.149438 0.653717
vt 0.149438 0.596723
vt 0.108685 0.596723
vt 0.033383 0.653717
vt 0.067932 0.653717
vt 0.067932 0.596723
vt 0.033383 0.596723
vt 0.283493 0.644166
vt 0.240535 0.644166
vt 0.240535 0.615315
vt 0.283493 0.615315
vt 0.010298 0.653717
vt 0.010298 0.596723
vt 0.215179 0.653717
vt 0.215179 0.596723
vt 0.326451 0.644166
vt 0.326451 0.615315
vt 0.149327 0.635129
vt 0.108461 0.635129
vt 0.108461 0.623032
vt 0.149266 0.623032
vt 0.183972 0.635129
vt 0.207120 0.635129
vt 0.206973 0.623032
vt 0.183859 0.623032
vt 0.032951 0.635129
vt 0.067595 0.635129
vt 0.067656 0.623032
vt 0.033063 0.623032
vt 0.001674 0.635129
vt 0.009802 0.635129
vt 0.009949 0.623032
vt 0.001833 0.623032
vt 0.215249 0.635129
vt 0.215090 0.623032
vt 0.216623 0.631179
vt 0.208424 0.631179
vt 0.185075 0.631179
vt 0.164433 0.631179
vt 0.181454 0.631179
vt 0.187431 0.631179
vt 0.070430 0.594531
vt 0.036388 0.594531
vt 0.036388 0.350440
vt 0.070430 0.350440
vt 0.150740 0.594531
vt 0.110585 0.594531
vt 0.110585 0.350440
vt 0.150740 0.350440
vt 0.184781 0.594531
vt 0.207527 0.594531
vt 0.207527 0.350440
vt 0.184781 0.350440
vt 0.005655 0.594531
vt 0.013642 0.594531
vt 0.013642 0.350440
vt 0.005655 0.350440
vt 0.215514 0.594531
vt 0.215514 0.350440
vt 0.041209 0.333782
vt 0.057487 0.333782
vt 0.081848 0.333782
vt 0.110585 0.333782
vt 0.185677 0.333782
vt 0.179960 0.333782
vt 0.139321 0.333782
vt 0.163683 0.333782
vt 0.035493 0.333782
vt 0.368010 0.500831
vt 0.376809 0.502581
vt 0.384269 0.507565
vt 0.389253 0.515025
vt 0.391004 0.523824
vt 0.389253 0.532623
vt 0.384269 0.540083
vt 0.376809 0.545067
vt 0.368010 0.546817
vt 0.359211 0.545067
vt 0.351751 0.540083
vt 0.346767 0.532623
vt 0.345017 0.523824
vt 0.346767 0.515025
vt 0.351751 0.507565
vt 0.359211 0.502581
vt 0.240743 0.615275
vt 0.240743 0.458903
vt 0.283475 0.458903
vt 0.326206 0.458903
vt 0.326206 0.615275
vt 0.244716 0.404435
vt 0.283475 0.404435
vt 0.322233 0.404435
vt 0.252802 0.340889
vt 0.283475 0.340889
vt 0.314147 0.340889
vt 0.330804 0.615275
vt 0.367960 0.615275
vt 0.367960 0.461732
vt 0.330874 0.461628
vt 0.405117 0.615275
vt 0.405047 0.461628
vt 0.367960 0.412842
vt 0.334557 0.412558
vt 0.401363 0.412558
vt 0.367960 0.351705
vt 0.342017 0.351330
vt 0.393904 0.351330
vt 0.080077 0.928920
vt 0.080077 0.931239
vt 0.083028 0.927636
vt 0.082926 0.925442
vt 0.127747 0.979814
vt 0.117618 0.971675
vt 0.119282 0.969643
vt 0.129041 0.977486
vt 0.136428 0.982708
vt 0.136863 0.980089
vt 0.161353 0.982708
vt 0.161353 0.980086
vt 0.154949 0.947808
vt 0.154949 0.950127
vt 0.154949 0.943320
vt 0.154949 0.945462
vn 0.000000 0.008000 -0.999900
vn 0.000000 0.043000 -0.999100
vn 0.382300 0.043000 -0.923000
vn 0.382600 0.008000 -0.923800
vn 0.706400 0.043000 -0.706400
vn 0.707100 0.008000 -0.707100
vn 0.923000 0.043000 -0.382300
vn 0.923800 0.008000 -0.382600
vn 0.999100 0.043000 0.000000
vn 0.999900 0.008000 0.000000
vn 0.923000 0.043000 0.382300
vn 0.923800 0.008000 0.382600
vn 0.706400 0.043000 0.706400
vn 0.707100 0.008000 0.707100
vn 0.382300 0.043000 0.923000
vn 0.382600 0.008000 0.923800
vn 0.000000 0.043000 0.999100
vn 0.000000 0.008000 0.999900
vn -0.382300 0.043000 0.923000
vn -0.382600 0.008000 0.923800
vn -0.706400 0.043000 0.706400
vn -0.707100 0.008000 0.707100
vn -0.923000 0.043000 0.382300
vn -0.923800 0.008000 0.382600
vn -0.999100 0.043000 0.000000
vn -0.999900 0.008000 0.000000
vn -0.923000 0.043000 -0.382300
vn -0.923800 0.008000 -0.382600
vn -0.706400 0.043000 -0.706400
vn -0.707100 0.008000 -0.707100
vn 0.381500 0.078300 -0.921000
vn 0.704900 0.078300 -0.704900
vn -0.382600 0.008000 -0.923800
vn -0.382300 0.043000 -0.923000
vn 0.000000 1.000000 0.000000
vn 0.102900 -0.989300 0.102900
vn 0.055700 -0.989300 0.134400
vn 0.000000 -0.989300 0.145500
vn -0.055700 -0.989300 0.134400
vn -0.102900 -0.989300 0.102900
vn -0.134400 -0.989300 0.055700
vn -0.145500 -0.989300 0.000000
vn 0.000000 -1.000000 0.000000
vn 0.134400 -0.989300 -0.055700
vn 0.145500 -0.989300 0.000000
vn 0.134400 -0.989300 0.055700
vn -0.996900 0.078300 0.000000
vn -0.921000 0.078300 -0.381500
vn 0.996900 0.078300 0.000000
vn 0.921000 0.078300 0.381500
vn -0.381500 0.078300 -0.921000
vn 0.000000 0.078300 -0.996900
vn 0.381500 0.078300 0.921000
vn 0.000000 0.078300 0.996900
vn -0.704900 0.078300 0.704900
vn -0.921000 0.078300 0.381500
vn 0.921000 0.078300 -0.381500
vn -0.704900 0.078300 -0.704900
vn 0.704900 0.078300 0.704900
vn -0.381500 0.078300 0.921000
vn 0.382700 0.000000 -0.923900
vn 0.707100 0.000000 -0.707100
vn -1.000000 0.000000 0.000000
vn -0.923900 0.000000 -0.382700
vn -0.707100 0.000000 0.707100
vn -0.923900 0.000000 0.382700
vn 0.000000 0.000000 1.000000
vn -0.382700 0.000000 0.923900
vn 0.707100 0.000000 0.707100
vn 0.382700 0.000000 0.923900
vn 1.000000 0.000000 0.000000
vn 0.923900 0.000000 0.382700
vn -0.382700 0.000000 -0.923900
vn 0.000000 0.000000 -1.000000
vn 0.923900 0.000000 -0.382700
vn -0.707100 0.000000 -0.707100
vn 0.237500 -0.966400 -0.098400
vn 0.257100 -0.966400 0.000000
vn -0.181800 -0.966400 -0.181800
vn -0.098400 -0.966400 -0.237500
vn -0.055700 -0.989300 -0.134400
vn -0.102900 -0.989300 -0.102900
vn 0.098400 -0.966400 -0.237500
vn 0.181800 -0.966400 -0.181800
vn 0.102900 -0.989300 -0.102900
vn 0.055700 -0.989300 -0.134400
vn -0.257100 -0.966400 0.000000
vn -0.237500 -0.966400 -0.098400
vn -0.134400 -0.989300 -0.055700
vn -0.181800 -0.966400 0.181800
vn -0.237500 -0.966400 0.098400
vn 0.000000 -0.966400 0.257100
vn -0.098400 -0.966400 0.237500
vn 0.181800 -0.966400 0.181800
vn 0.098400 -0.966400 0.237500
vn 0.237500 -0.966400 0.098400
vn 0.000000 -0.966400 -0.257100
vn 0.000000 -0.989300 -0.145500
vn 0.566500 -0.598400 0.566500
vn 0.306600 -0.598400 0.740200
vn 0.801200 -0.598400 0.000000
vn 0.740200 -0.598400 0.306600
vn -0.306600 -0.598400 -0.740200
vn 0.000000 -0.598400 -0.801200
vn 0.566500 -0.598400 -0.566500
vn 0.740200 -0.598400 -0.306600
vn -0.740200 -0.598400 -0.306600
vn -0.566500 -0.598400 -0.566500
vn 0.306600 -0.598400 -0.740200
vn -0.740200 -0.598400 0.306600
vn -0.801200 -0.598400 0.000000
vn -0.306600 -0.598400 0.740200
vn -0.566500 -0.598400 0.566500
vn 0.000000 -0.598400 0.801200
vn -0.195100 0.000000 0.980800
vn -0.196900 -0.160000 0.967300
vn 0.000000 -0.160300 0.987100
vn 0.196900 -0.160000 0.967300
vn 0.195100 0.000000 0.980800
vn -0.192800 -0.478700 0.856500
vn 0.000000 -0.475600 0.879600
vn 0.192800 -0.478700 0.856500
vn -0.186100 -0.622600 0.760100
vn 0.000000 -0.633700 0.773600
vn 0.186100 -0.622600 0.760100
vn 0.195100 0.000000 -0.980800
vn 0.000000 0.160000 -0.987100
vn 0.197000 0.159900 -0.967300
vn -0.195100 0.000000 -0.980800
vn -0.197000 0.159900 -0.967300
vn 0.000000 0.474700 -0.880100
vn 0.192800 0.479100 -0.856300
vn -0.192800 0.479100 -0.856300
vn 0.000000 0.633600 -0.773600
vn 0.186000 0.622600 -0.760100
vn -0.186000 0.622600 -0.760100
vn -0.178400 -0.771600 -0.610600
vn 0.000000 -0.784100 -0.620500
vn 0.978200 0.016600 -0.206900
vn 0.978300 0.037900 -0.203400
vn 0.978200 0.016900 -0.206900
vn -0.978300 0.037900 -0.203400
vn -0.978200 0.016600 -0.206900
vn -0.978200 0.016900 -0.206900
vn 0.178400 -0.771600 -0.610600
vn 0.979000 -0.002300 -0.203800
vn 0.979000 -0.002300 -0.203900
vn -0.979000 -0.002300 -0.203800
vn -0.979000 -0.002300 -0.203900
vn 0.980300 -0.000200 -0.197300
vn -0.980300 -0.000200 -0.197300
s 1
f 166/1/1 2/2/2 4/3/3 167/4/4
f 167/4/4 4/3/3 6/5/5 168/6/6
f 168/6/6 6/5/5 8/7/7 169/8/8
f 169/8/8 8/7/7 10/9/9 170/10/10
f 170/10/10 10/9/9 12/11/11 171/12/12
f 171/12/12 12/11/11 14/13/13 172/14/14
f 172/14/14 14/13/13 16/15/15 173/16/16
f 173/16/16 16/15/15 18/17/17 174/18/18
f 174/18/18 18/17/17 20/15/19 175/16/20
f 175/16/20 20/15/19 22/13/21 176/14/22
f 176/14/22 22/13/21 24/11/23 177/12/24
f 177/12/24 24/11/23 26/9/25 178/10/26
f 178/10/26 26/9/25 28/7/27 179/8/28
f 179/8/28 28/7/27 30/5/29 180/6/30
f 6/5/5 4/3/3 50/19/31 200/20/32
f 181/4/33 32/3/34 2/2/2 166/1/1
f 180/6/30 30/5/29 32/3/34 181/4/33
f 21/21/35 23/22/35 193/23/35 192/24/35 191/25/35 19/26/35
f 15/27/35 17/28/35 19/26/35 191/25/35 190/29/35 189/30/35 188/31/35 187/32/35 186/33/35 185/34/35 184/35/35 183/36/35 182/37/35 197/38/35 196/39/35 195/40/35 194/41/35 193/23/35 23/22/35 25/42/35 27/43/35 29/44/35 31/45/35 1/46/35 3/47/35 5/48/35 7/49/35 9/50/35 11/51/35 13/52/35
f 87/53/36 88/54/37 89/55/38 90/54/39 91/53/40 92/56/41 93/57/42 250/57/43 249/58/43 248/59/43 247/60/43 246/61/43 245/60/43 244/59/43 243/58/43 242/57/43 241/62/43 84/63/44 85/57/45 86/56/46
f 198/64/35 199/65/35 213/64/35 212/66/35 211/67/35 210/68/35 209/69/35 208/70/35 207/71/35 206/72/35 205/71/35 204/70/35 203/69/35 202/68/35 201/67/35 51/66/35
f 28/7/27 26/9/25 61/73/47 62/74/48
f 12/11/11 10/9/9 53/73/49 54/75/50
f 2/2/2 32/3/34 64/19/51 49/76/52
f 4/3/3 2/2/2 49/76/52 50/19/31
f 18/17/17 16/15/15 56/77/53 57/78/54
f 24/11/23 22/13/21 59/79/55 60/75/56
f 8/7/7 6/5/5 200/20/32 52/74/57
f 30/5/29 28/7/27 62/74/48 63/20/58
f 14/13/13 12/11/11 54/75/50 55/79/59
f 20/15/19 18/17/17 57/78/54 58/77/60
f 26/9/25 24/11/23 60/75/56 61/73/47
f 10/9/9 8/7/7 52/74/57 53/73/49
f 32/3/34 30/5/29 63/20/58 64/19/51
f 16/15/15 14/13/13 55/79/59 56/77/53
f 22/13/21 20/15/19 58/77/60 59/79/55
f 34/80/61 35/81/62 216/82/62 215/83/61
f 45/84/63 46/85/64 235/86/64 234/87/63
f 43/88/65 44/89/66 233/90/66 232/91/65
f 41/92/67 42/93/68 229/94/68 226/95/67
f 39/88/69 40/96/70 221/97/70 220/91/69
f 37/84/71 38/89/72 219/90/72 218/87/71
f 48/80/73 33/98/74 214/99/74 237/83/73
f 35/81/62 36/85/75 217/86/75 216/82/62
f 46/85/64 47/81/76 236/82/76 235/86/64
f 33/98/74 34/80/61 215/83/61 214/99/74
f 44/89/66 45/84/63 234/87/63 233/90/66
f 42/96/68 43/88/65 232/91/65 229/97/68
f 40/100/70 41/92/67 226/95/67 221/101/70
f 38/89/72 39/88/69 220/91/69 219/90/72
f 36/85/75 37/84/71 218/87/71 217/86/75
f 47/81/76 48/80/73 237/83/73 236/82/76
f 68/102/77 69/103/78 85/104/45 84/105/44
f 79/106/79 80/107/80 96/108/81 95/109/82
f 66/107/83 67/106/84 83/109/85 82/108/86
f 77/103/87 78/102/88 94/105/89 93/104/42
f 75/110/90 76/111/91 92/112/41 91/113/40
f 227/114/92 230/115/93 90/116/39 89/117/38
f 71/110/94 223/115/95 88/116/37 87/113/36
f 69/103/78 70/111/96 86/112/46 85/104/45
f 80/107/80 65/118/97 81/119/98 96/108/81
f 67/106/84 68/102/77 84/105/44 83/109/85
f 78/102/88 79/106/79 95/109/82 94/105/89
f 65/118/97 66/107/83 82/108/86 81/119/98
f 76/111/91 77/103/87 93/104/42 92/112/41
f 230/115/93 75/110/90 91/113/40 90/116/39
f 223/115/95 227/114/92 89/117/38 88/116/37
f 70/111/96 71/110/94 87/113/36 86/112/46
f 81/120/98 82/121/86 83/122/85 84/63/44 241/62/43 240/123/43 239/124/43 238/125/43 253/124/43 252/123/43 251/62/43 250/57/43 93/57/42 94/63/89 95/122/82 96/121/81
f 102/126/72 103/127/69 260/128/69 259/129/72
f 100/130/75 101/131/71 258/132/71 257/133/75
f 111/134/76 112/135/73 269/136/73 268/137/76
f 98/135/61 99/134/62 256/137/62 255/136/61
f 109/131/63 110/130/64 267/133/64 266/132/63
f 107/127/65 108/126/66 265/129/66 264/128/65
f 105/138/67 106/139/68 263/140/68 262/141/67
f 103/127/69 104/139/70 261/140/70 260/128/69
f 101/131/71 102/126/72 259/129/72 258/132/71
f 112/135/73 97/142/74 254/143/74 269/136/73
f 99/134/62 100/130/75 257/133/75 256/137/62
f 110/130/64 111/134/76 268/137/76 267/133/64
f 97/142/74 98/135/61 255/136/61 254/143/74
f 108/126/66 109/131/63 266/132/63 265/129/66
f 106/139/68 107/127/65 264/128/65 263/140/68
f 104/139/70 105/138/67 262/141/67 261/140/70
f 119/128/99 120/140/100 277/144/100 276/145/99
f 117/132/101 118/129/102 275/146/102 274/147/101
f 128/136/103 113/143/104 270/148/104 285/149/103
f 115/137/105 116/133/106 273/150/106 272/151/105
f 126/133/107 127/137/108 284/151/108 283/150/107
f 113/143/104 114/136/109 271/149/109 270/148/104
f 124/129/110 125/132/111 282/147/111 281/146/110
f 122/140/112 123/128/113 280/145/113 279/144/112
f 120/140/100 121/141/114 278/152/114 277/144/100
f 118/129/102 119/128/99 276/145/99 275/146/102
f 116/133/106 117/132/101 274/147/101 273/150/106
f 127/137/108 128/136/103 285/149/103 284/151/108
f 114/136/109 115/137/105 272/151/105 271/149/109
f 125/132/111 126/133/107 283/150/107 282/147/111
f 123/128/113 124/129/110 281/146/110 280/145/113
f 121/141/114 122/140/112 279/144/112 278/152/114
f 129/153/43 130/154/43 131/155/43 132/156/43 133/157/43 134/158/43 135/159/43 136/160/43 137/161/43 138/162/43 139/163/43 140/164/43 141/165/43 142/166/43 143/167/43 144/168/43
f 228/169/115 286/170/116 146/171/117 225/95/67
f 225/95/67 146/171/117 287/172/118 222/173/119
f 146/171/117 286/170/116 288/174/120 149/175/121
f 287/172/118 146/171/117 149/175/121 289/176/122
f 149/175/121 288/174/120 293/177/123 292/178/124
f 289/176/122 149/175/121 292/178/124 290/179/125
f 296/180/126 295/181/74 156/182/127 298/183/128
f 295/181/74 299/184/129 301/185/130 156/182/127
f 156/182/127 160/186/131 302/187/132 298/183/128
f 301/185/130 303/188/133 160/186/131 156/182/127
f 160/186/131 304/189/134 305/190/135 302/187/132
f 303/188/133 307/191/136 304/189/134 160/186/131
f 291/192/137 152/193/138 163/194/138 308/195/137
f 148/196/139 151/197/140 165/198/140 162/199/141
f 294/197/142 150/196/143 161/199/144 306/198/142
f 152/193/138 153/192/145 164/195/145 163/194/138
f 145/200/146 148/196/139 162/199/141 159/201/147
f 150/196/143 147/200/148 157/201/149 161/199/144
f 224/202/150 145/200/146 159/201/147 300/203/150
f 147/200/148 231/202/151 297/203/151 157/201/149
f 74/204/35 73/205/35 72/204/35 158/206/35 155/207/35 154/206/35
