# Blender v2.76 (sub 0) OBJ File: 'w_sparqbeam_collider.blend'
# www.blender.org
v -0.013900 0.042570 -0.038189
v -0.041686 -0.016912 -0.000691
v -0.000068 0.099115 0.024699
v 0.021386 0.092985 0.015027
v -0.021398 0.092985 0.015031
v 0.026751 -0.156137 0.023587
v 0.034925 -0.118395 0.009800
v -0.034888 -0.118395 0.009800
v -0.000000 -0.170327 0.026760
v -0.000000 -0.247808 -0.021332
v -0.017990 -0.256299 -0.046258
v 0.018500 -0.256225 -0.046428
v 0.027904 -0.243638 -0.030074
v 0.030350 -0.225168 -0.065193
v -0.008554 -0.233166 -0.075242
v -0.008887 -0.052834 0.052146
v 0.010436 -0.102371 0.051666
v 0.016931 0.099348 -0.006674
v 0.019076 -0.237810 -0.069559
v 0.006000 0.099210 -0.015422
v 0.012085 -0.218380 -0.077572
v -0.030364 -0.225138 -0.065257
v -0.021348 -0.239978 -0.066663
v -0.034821 0.036763 -0.023665
v 0.020837 0.099126 0.003474
v 0.039492 0.043734 0.009100
v 0.000036 0.056642 0.040765
v -0.026748 -0.156138 0.023588
v -0.027871 -0.243637 -0.030054
v 0.025017 0.056916 0.032521
v -0.016798 0.099165 -0.007434
v -0.020853 0.099125 0.003479
v 0.034581 0.037437 -0.023834
v 0.042549 0.030533 -0.001691
v 0.013900 0.042570 -0.038189
v -0.000000 -0.260286 -0.041263
v -0.012126 -0.218378 -0.077572
v -0.010765 -0.103223 0.051205
v 0.008608 -0.051734 0.052095
v 0.037626 0.027379 0.020666
v -0.037630 0.027345 0.020663
v -0.041724 0.032174 -0.004963
v -0.009813 0.099398 0.022306
v -0.008972 0.099422 -0.014034
v -0.039486 0.043748 0.009124
v -0.024874 0.056431 0.032901
v 0.009787 0.099387 0.022282
vt -0.000021 -0.000016
vt 0.688011 0.547302
vt 0.675565 0.568548
vt 0.053258 0.439352
vt 0.645294 0.609568
vt 0.187142 0.571883
vt 0.918533 0.547227
vt 0.132189 0.084350
vt 0.626619 0.378866
vt 0.691079 0.677133
vt 0.668403 0.648969
vt 0.143192 0.488641
vt 0.625607 0.521599
vt 0.688007 0.547141
vt 0.687133 0.510161
vt 0.255116 0.493876
vt 0.239896 0.225212
vt 0.690461 0.650937
vt 0.669328 0.632280
vt 0.862696 0.404329
vt 0.646478 0.612438
vt 0.347691 0.253483
vt 0.020817 0.011589
vt 0.084040 0.342562
vt 0.020953 0.012903
vt 0.407405 0.518657
vt 0.054361 0.486082
vt 0.687006 0.602257
vt 0.045399 0.042792
vt 0.308646 0.262717
vt 0.177952 0.231103
vt 0.423358 0.398516
vt 0.584836 0.134171
vt 0.224757 0.415534
vt 0.535436 0.594703
vt 0.455641 0.215233
vt 0.098295 0.252372
vt 0.612150 0.146151
vt 0.191941 0.693500
vt 0.716685 0.614230
vt 0.986617 0.701035
vt 0.153566 0.653873
vt 0.202933 0.282657
vt 0.093645 0.360107
vt 0.303569 0.426332
vt 0.072580 0.318592
vt 0.500426 0.212066
vt 0.706644 0.604764
vn 0.284000 -0.037600 -0.958100
vn 0.863600 -0.161600 -0.477600
vn 0.403400 -0.554000 -0.728200
vn 0.420300 -0.139500 0.896600
vn 0.367900 0.040700 0.929000
vn -0.375400 0.034900 0.926200
vn 0.763300 -0.526400 0.374500
vn -0.000900 -0.999700 0.024700
vn 0.468200 -0.868100 -0.164600
vn -0.249200 0.787500 -0.563700
vn -0.804700 0.213300 -0.554000
vn -0.530500 0.769600 -0.355300
vn 0.317500 0.269600 -0.909100
vn 0.191700 0.769200 -0.609500
vn 0.806800 0.218500 -0.548800
vn 0.000000 -0.695200 0.718700
vn -0.763100 -0.532500 0.366200
vn -0.635100 0.771900 -0.026300
vn -0.509400 -0.592300 -0.624300
vn -0.857000 -0.167700 -0.487200
vn -0.139000 -0.463900 -0.874800
vn -0.467200 -0.868900 -0.163300
vn -0.297000 -0.019000 -0.954700
vn -0.985500 0.125000 -0.114400
vn 0.000000 -0.468300 0.883500
vn -0.718300 -0.284000 0.635100
vn 0.992400 0.104500 -0.064700
vn 0.977200 -0.058800 0.203900
vn 0.640200 0.767800 -0.024400
vn 0.958100 0.231200 0.169100
vn 0.785100 0.474400 0.398100
vn 0.883100 0.038800 0.467600
vn 0.717900 -0.284000 0.635600
vn -0.628900 0.233700 0.741500
vn -0.962200 0.214500 0.167800
vn -0.889900 0.042400 0.454100
vn -0.305400 0.788100 0.534300
vn 0.305100 0.788000 0.534700
vn -0.973100 -0.063900 0.221500
vn -0.997600 -0.024600 0.065300
vn 0.507600 0.782700 -0.360100
vn 0.004100 0.230300 0.973100
vn 0.633600 0.235300 0.737000
vn -0.433600 -0.144900 0.889300
vn 0.000200 0.747700 0.664100
vn -0.318100 0.267400 -0.909500
vn -0.785700 0.473400 0.398000
s 1
f 21/1/1 14/2/2 19/3/3
f 17/1/4 39/1/5 16/1/6
f 13/4/7 36/1/8 12/5/9
f 44/1/10 24/1/11 31/6/12
f 35/7/13 20/8/14 33/9/15
f 13/4/7 10/10/16 36/11/8
f 10/10/16 29/1/17 36/11/8
f 32/12/18 31/6/12 24/1/11
f 23/13/19 22/14/20 15/1/21
f 11/1/22 23/13/19 36/11/8
f 22/14/20 37/15/23 15/1/21
f 19/3/3 36/11/8 23/13/19
f 42/1/24 24/1/11 22/14/20
f 33/9/15 14/2/2 21/1/1
f 9/16/25 28/17/26 29/18/17
f 29/18/17 23/13/19 11/19/22
f 34/20/27 7/1/28 13/21/7
f 25/22/29 26/1/30 34/23/27
f 4/24/31 26/1/30 25/22/29
f 40/25/32 7/1/28 34/20/27
f 26/1/30 40/25/32 34/20/27
f 7/1/28 6/26/33 13/4/7
f 9/16/25 10/27/16 13/4/7
f 9/16/25 29/1/17 10/10/16
f 37/15/23 22/14/20 24/1/11
f 21/15/1 19/3/3 15/28/21
f 46/29/34 45/1/35 41/1/36
f 44/30/10 43/31/37 47/32/38
f 28/17/26 8/1/39 29/18/17
f 29/18/17 22/14/20 23/13/19
f 29/18/17 2/1/40 22/14/20
f 44/30/10 47/33/38 18/34/41
f 2/35/40 45/1/35 42/1/24
f 9/1/25 13/4/7 6/26/33
f 25/22/29 34/36/27 33/1/15
f 42/1/24 32/12/18 24/1/11
f 40/1/32 17/1/4 6/26/33
f 27/1/42 30/1/43 47/32/38
f 40/25/32 39/1/5 17/1/4
f 44/37/10 31/1/12 32/12/18
f 47/33/38 25/38/29 18/34/41
f 38/1/44 17/1/4 16/1/6
f 16/1/6 41/1/36 38/1/44
f 41/1/36 28/17/26 38/1/44
f 27/1/42 47/32/38 3/39/45
f 8/40/39 28/17/26 41/1/36
f 24/1/11 44/37/10 1/41/46
f 47/32/38 4/42/31 25/38/29
f 44/37/10 20/43/14 1/41/46
f 30/1/43 26/1/30 4/42/31
f 2/1/40 42/1/24 22/14/20
f 21/15/1 37/1/23 1/1/46
f 35/1/13 21/15/1 1/1/46
f 4/42/31 47/32/38 30/1/43
f 43/44/37 46/29/34 27/1/42
f 38/1/44 28/17/26 9/16/25
f 8/1/39 2/35/40 29/18/17
f 20/43/14 35/1/13 1/41/46
f 39/1/5 40/25/32 30/1/43
f 18/45/41 20/8/14 44/30/10
f 30/1/43 27/1/42 39/1/5
f 41/1/36 2/35/40 8/1/39
f 27/1/42 16/1/6 39/1/5
f 45/1/35 32/1/18 42/1/24
f 27/1/42 46/1/34 16/1/6
f 41/1/36 45/1/35 2/35/40
f 45/1/35 5/42/47 32/12/18
f 46/29/34 5/46/47 45/1/35
f 46/29/34 41/1/36 16/1/6
f 6/26/33 17/1/4 9/1/25
f 43/44/37 27/1/42 3/39/45
f 20/8/14 18/45/41 33/9/15
f 37/15/23 21/15/1 15/28/21
f 17/1/4 38/1/44 9/1/25
f 18/45/41 25/22/29 33/1/15
f 43/44/37 5/46/47 46/29/34
f 35/1/13 33/9/15 21/15/1
f 43/44/37 32/12/18 5/46/47
f 30/1/43 40/25/32 26/1/30
f 12/5/9 19/1/3 14/2/2
f 33/1/15 34/36/27 14/2/2
f 43/31/37 44/37/10 32/12/18
f 47/32/38 43/47/37 3/39/45
f 11/1/22 36/11/8 29/18/17
f 15/1/21 19/3/3 23/13/19
f 40/1/32 6/26/33 7/48/28
f 24/1/11 1/41/46 37/1/23
f 13/21/7 12/5/9 14/2/2
f 34/20/27 13/21/7 14/2/2
f 12/5/9 36/1/8 19/3/3
