v -0.000000 -0.052819 0.220905
v 0.010193 -0.052819 0.219564
v 0.019691 -0.052819 0.215629
v 0.027847 0.198967 0.209371
v 0.027847 -0.052819 0.209371
v 0.034105 0.198967 0.201215
v 0.034105 -0.052819 0.201215
v 0.038040 0.198967 0.191717
v 0.038040 -0.052819 0.191717
v 0.039382 0.198967 0.181524
v 0.039381 -0.052819 0.181524
v 0.038040 0.198967 0.171331
v 0.038040 -0.052819 0.171331
v 0.034105 0.198967 0.161833
v 0.034105 -0.052819 0.161833
v 0.027847 -0.052819 0.153677
v 0.019691 -0.052819 0.147418
v 0.010193 -0.052819 0.143484
v -0.000000 -0.052819 0.142142
v -0.010193 -0.052819 0.143484
v -0.019691 -0.052819 0.147418
v -0.027847 -0.052819 0.153677
v -0.034105 0.198967 0.161833
v -0.034105 -0.052819 0.161833
v -0.038040 0.198967 0.171331
v -0.038040 -0.052819 0.171331
v -0.039382 0.198967 0.181524
v -0.039382 -0.052819 0.181524
v -0.038040 0.198967 0.191717
v -0.038040 -0.052819 0.191717
v -0.034105 0.198967 0.201215
v -0.034105 -0.052819 0.201215
v -0.027847 0.198967 0.209371
v -0.027847 -0.052819 0.209371
v -0.019691 -0.052819 0.215629
v -0.010193 -0.052819 0.219563
v -0.020279 0.198967 0.161833
v 0.027847 0.294002 0.153677
v 0.019691 0.294002 0.147419
v 0.010193 0.294002 0.143484
v 0.000000 0.294002 0.142142
v -0.010193 0.294002 0.143484
v -0.019691 0.294002 0.147419
v -0.027847 0.294002 0.153677
v 0.020353 0.198967 0.161833
v 0.000000 0.178757 0.220905
v 0.010193 0.178757 0.219564
v 0.019691 0.178757 0.215629
v 0.027847 0.178757 0.209371
v -0.027847 0.178757 0.209371
v -0.019691 0.178757 0.215629
v -0.010193 0.178757 0.219564
v 0.000000 0.198967 0.233322
v 0.010193 0.198967 0.231980
v 0.010193 0.182723 0.228642
v 0.019691 0.198967 0.228046
v 0.019691 0.182723 0.224708
v 0.027847 0.198967 0.221788
v 0.027847 0.182723 0.218449
v -0.027847 0.182723 0.218449
v -0.027847 0.198967 0.221788
v -0.019691 0.198967 0.228046
v -0.019691 0.182723 0.224708
v -0.010193 0.198967 0.231980
v -0.010193 0.182723 0.228642
v 0.000000 0.182723 0.229984
v 0.000000 0.212529 0.233075
v -0.010997 0.213106 0.231747
v 0.030044 0.217485 0.221660
v 0.010997 0.213106 0.231747
v 0.021244 0.214796 0.227854
v -0.030044 0.217485 0.221660
v -0.021244 0.214796 0.227854
v 0.029529 0.217225 0.209371
v 0.030044 0.220591 0.214502
v -0.030044 0.220591 0.214502
v -0.029529 0.217225 0.209371
v 0.029759 0.294002 0.156168
v 0.034105 0.288337 0.161833
v -0.034105 0.288337 0.161833
v -0.029759 0.294002 0.156168
v 0.020353 0.198967 0.209371
v -0.020279 0.198967 0.209371
v 0.020353 0.217225 0.209371
v -0.020279 0.217225 0.209371
v -0.020279 0.220591 0.214502
v 0.020353 0.220591 0.214502
v -0.020279 0.271376 0.161833
v 0.020353 0.271376 0.161833
v -0.030044 0.218210 0.220314
v -0.020279 0.216150 0.225344
v 0.030044 0.217927 0.220314
v 0.020353 0.215621 0.225344
v 0.010609 0.215753 0.228840
v 0.000012 0.215885 0.230600
v -0.010585 0.216018 0.228840
v 0.020353 0.271511 0.202091
v -0.020279 0.271511 0.202091
v 0.020353 0.275765 0.215671
v -0.020279 0.275765 0.215671
v 0.020353 0.283317 0.225949
v -0.020279 0.283317 0.225949
v -0.010509 0.285578 0.229027
v 0.010685 0.285578 0.229027
v 0.000088 0.286717 0.230577
v 0.017967 0.054401 0.149024
v 0.027486 -0.198774 0.149024
v -0.014431 0.054401 0.149024
v -0.023989 -0.198774 0.149024
v -0.013094 -0.198774 0.123146
v 0.016907 -0.198774 0.123146
v 0.027486 0.041521 0.149024
v -0.023989 0.041521 0.149024
v 0.027486 -0.208310 0.149024
v -0.023989 -0.208310 0.149024
v 0.020004 -0.216384 0.142307
v 0.019961 -0.216167 0.131544
v 0.013475 -0.218809 0.141852
v 0.013465 -0.218730 0.137913
v -0.016433 -0.216167 0.131544
v -0.016477 -0.216384 0.142307
v -0.009910 -0.218730 0.137913
v -0.009920 -0.218809 0.141852
v 0.013118 0.039154 0.149024
v 0.013118 -0.194794 0.149024
v -0.009607 -0.194794 0.149024
v -0.009607 0.039154 0.149024
v 0.016907 -0.177684 0.123146
v -0.023171 -0.181454 0.038289
v 0.016560 -0.191172 0.038289
v -0.012755 -0.191172 0.038289
v 0.026668 -0.181454 0.038289
v -0.012755 -0.099486 0.038289
v 0.016766 -0.099486 0.038289
v 0.013193 0.027381 0.123146
v 0.017967 0.045894 0.135053
v 0.016569 0.037789 0.126633
v -0.009670 0.027381 0.123146
v -0.014431 0.045894 0.135053
v -0.013037 0.037789 0.126633
v 0.027486 0.032480 0.135082
v 0.016731 0.022775 0.123146
v 0.024336 0.027632 0.126642
v -0.013234 0.022760 0.123146
v -0.023989 0.032480 0.135082
v -0.020839 0.027628 0.126642
v 0.016766 -0.078276 0.110817
v 0.016766 -0.062805 0.123146
v 0.027389 -0.085695 0.135082
v 0.016766 -0.072576 0.119535
v 0.023369 -0.075498 0.122948
v 0.024211 -0.074535 0.126648
v 0.024178 -0.079436 0.122347
v -0.013017 -0.078276 0.110817
v -0.023893 -0.085695 0.135082
v -0.013101 -0.062805 0.123146
v -0.020682 -0.079436 0.122347
v -0.019873 -0.075498 0.122948
v -0.020714 -0.074535 0.126648
v -0.013059 -0.072576 0.119535
v -0.023171 -0.112461 0.038289
v -0.020120 -0.103286 0.038289
v 0.026668 -0.112461 0.038289
v 0.023707 -0.103286 0.038289
v 0.006503 -0.012779 0.123146
v -0.013136 -0.012779 0.123146
v -0.013142 0.001293 0.123146
v 0.006505 0.001293 0.123146
v 0.003140 -0.009108 0.092285
v 0.003139 -0.017773 0.098430
v -0.009701 -0.017773 0.098430
v -0.009705 -0.009108 0.092285
v 0.003140 -0.044847 0.076305
v 0.003139 -0.048749 0.086185
v -0.009701 -0.048749 0.086185
v -0.009705 -0.044847 0.076305
v 0.003140 -0.089678 0.077018
v 0.003139 -0.089836 0.085730
v -0.009701 -0.089836 0.085730
v -0.009705 -0.089678 0.077018
v 0.027384 -0.198774 0.136053
v 0.027381 -0.202239 0.135580
v 0.024308 -0.209931 0.128584
v 0.024289 -0.198774 0.126926
v -0.023887 -0.198774 0.136053
v -0.020799 -0.209928 0.128582
v -0.023885 -0.202239 0.135580
v -0.020700 -0.198774 0.126926
v -0.013093 -0.180047 0.123146
v -0.023902 -0.150942 0.136053
v -0.012922 -0.170020 0.110563
v -0.020705 -0.165633 0.126925
v -0.019826 -0.166937 0.123326
v -0.020620 -0.163091 0.123888
v -0.012939 -0.171763 0.119460
v 0.016576 -0.170020 0.110563
v 0.027399 -0.150942 0.136053
v 0.016746 -0.171763 0.119460
v 0.023381 -0.166974 0.123326
v 0.024117 -0.163091 0.123888
v 0.024293 -0.165816 0.126923
v 0.016906 -0.180047 0.123146
v -0.013094 -0.177684 0.123146
v -0.020120 -0.188325 0.038289
v 0.023707 -0.188325 0.038289
v 0.015304 -0.194822 0.004596
v -0.011533 -0.194822 0.004596
v -0.013016 -0.175905 0.121303
v -0.020266 -0.166285 0.125125
v -0.022261 -0.157016 0.129971
v 0.023837 -0.166395 0.125125
v 0.025758 -0.157016 0.129971
v 0.025188 -0.184890 0.038289
v -0.021646 -0.184890 0.038289
v 0.025836 -0.198774 0.131490
v -0.022294 -0.198774 0.131490
v -0.022304 -0.158287 0.131489
v -0.020223 -0.165014 0.123607
v 0.016661 -0.170892 0.115012
v 0.023749 -0.165032 0.123607
v 0.025846 -0.158379 0.131488
v 0.024797 -0.161706 0.127548
v -0.021263 -0.161651 0.127548
v -0.012755 -0.198172 0.021637
v 0.016560 -0.198172 0.021637
v 0.026668 -0.187270 0.021637
v -0.023171 -0.187270 0.021637
v -0.012755 -0.095312 0.021637
v 0.016766 -0.095312 0.021637
v -0.020120 -0.099575 0.021637
v -0.023171 -0.109868 0.021637
v 0.026668 -0.109868 0.021637
v 0.023707 -0.099575 0.021637
v 0.025188 -0.191124 0.021637
v 0.023707 -0.194979 0.021637
v -0.021646 -0.191124 0.021637
v -0.020120 -0.194979 0.021637
v 0.021127 -0.187738 0.004596
v -0.017630 -0.187711 0.004596
v -0.011179 -0.100499 0.004596
v 0.015109 -0.100499 0.004596
v -0.015360 -0.103088 0.004596
v -0.017630 -0.111281 0.004596
v 0.021127 -0.111259 0.004596
v 0.018903 -0.102992 0.004596
v 0.019262 -0.192930 0.004596
v -0.015717 -0.192882 0.004596
v 0.016560 -0.200363 0.004596
v -0.012755 -0.200363 0.004596
v -0.012755 -0.094958 0.004596
v 0.016766 -0.094958 0.004596
v -0.020120 -0.099518 0.004596
v -0.023171 -0.110527 0.004596
v 0.026668 -0.110527 0.004596
v 0.023707 -0.099518 0.004596
v 0.026668 -0.188703 0.004596
v -0.023171 -0.188703 0.004596
v 0.023707 -0.196948 0.004596
v -0.020120 -0.196948 0.004596
v 0.015304 -0.194822 0.000076
v -0.011533 -0.194822 0.000076
v -0.011179 -0.100499 0.000076
v 0.015109 -0.100499 0.000076
v -0.015360 -0.103088 0.000076
v -0.017630 -0.111281 0.000076
v 0.021127 -0.111259 0.000076
v 0.018903 -0.102992 0.000076
v 0.021127 -0.187738 0.000076
v -0.017630 -0.187711 0.000076
v 0.019262 -0.192930 0.000076
v -0.015717 -0.192882 0.000076
v -0.054203 -0.194914 0.134431
v -0.041301 -0.196973 0.125534
v -0.036961 -0.225521 0.151409
v -0.028163 -0.234418 0.145857
v -0.036961 -0.225521 0.194218
v -0.028163 -0.234418 0.198422
v -0.054203 -0.193787 0.223671
v -0.041301 -0.196973 0.232568
v 0.036961 -0.225521 0.151409
v 0.028163 -0.234418 0.145857
v 0.054203 -0.194914 0.134431
v 0.041301 -0.196973 0.125534
v 0.054203 -0.193787 0.223671
v 0.041301 -0.196973 0.232568
v 0.036961 -0.225521 0.194218
v 0.028163 -0.234418 0.198422
v -0.054203 -0.062850 0.223671
v -0.041301 -0.059165 0.232568
v -0.054203 -0.061152 0.221972
v -0.041301 -0.052255 0.225658
v 0.054203 -0.061152 0.221972
v 0.041301 -0.052255 0.225658
v 0.054203 -0.062850 0.223671
v 0.041301 -0.059165 0.232568
v -0.054203 -0.061152 0.138935
v -0.041301 -0.052255 0.136765
v -0.054203 -0.063488 0.134431
v -0.041301 -0.058081 0.125534
v 0.054203 -0.063488 0.134431
v 0.041301 -0.058081 0.125534
v 0.054203 -0.061152 0.138935
v 0.041301 -0.052255 0.136765
v 0.000625 -0.058282 0.123146
v -0.008872 -0.058282 0.123146
v -0.008873 -0.042066 0.123146
v 0.000626 -0.042066 0.123146
v -0.000105 -0.046291 0.113998
v -0.000106 -0.053961 0.111860
v -0.008142 -0.053961 0.111860
v -0.008143 -0.046291 0.113998
v -0.000716 -0.041418 0.104326
v -0.000716 -0.046259 0.100763
v -0.007531 -0.046259 0.100763
v -0.007532 -0.041418 0.104326
v -0.000716 -0.033350 0.100899
v -0.000716 -0.033935 0.097716
v -0.007531 -0.033935 0.097716
v -0.007532 -0.033350 0.100899
v -0.030044 0.217485 0.221660
v -0.030044 0.217485 0.221660
v -0.027847 0.198967 0.221788
v 0.027847 0.178757 0.209371
v 0.027847 0.178757 0.209371
v 0.027847 0.198967 0.209371
v 0.027847 0.198967 0.209371
v 0.027847 0.198967 0.209371
v 0.034105 0.198967 0.201215
v 0.038040 0.198967 0.191717
v 0.039382 0.198967 0.181524
v 0.038040 0.198967 0.171331
v 0.034105 0.198967 0.161833
v 0.034105 0.198967 0.161833
v -0.034105 0.198967 0.161833
v -0.034105 0.198967 0.161833
v -0.038040 0.198967 0.171331
v -0.039382 0.198967 0.181524
v -0.038040 0.198967 0.191717
v -0.034105 0.198967 0.201215
v -0.027847 0.198967 0.209371
v -0.027847 0.198967 0.209371
v -0.027847 0.198967 0.209371
v -0.027847 0.178757 0.209371
v -0.027847 0.178757 0.209371
v 0.027847 0.182723 0.218449
v 0.027847 0.182723 0.218449
v 0.030044 0.217485 0.221660
v 0.030044 0.217485 0.221660
v 0.027847 0.198967 0.221788
v -0.020279 0.198967 0.161833
v -0.020279 0.198967 0.161833
v -0.034105 0.288337 0.161833
v -0.034105 0.288337 0.161833
v 0.027847 0.294002 0.153677
v 0.019691 0.294002 0.147419
v 0.010193 0.294002 0.143484
v 0.000000 0.294002 0.142142
v -0.010193 0.294002 0.143484
v -0.019691 0.294002 0.147419
v -0.027847 0.294002 0.153677
v 0.020353 0.198967 0.161833
v 0.020353 0.198967 0.161833
v 0.029759 0.294002 0.156168
v 0.029759 0.294002 0.156168
v -0.010193 0.178757 0.219564
v 0.000000 0.178757 0.220905
v -0.019691 0.178757 0.215629
v 0.019691 0.178757 0.215629
v 0.010193 0.178757 0.219564
v -0.027847 0.182723 0.218449
v -0.027847 0.182723 0.218449
v -0.010193 0.182723 0.228642
v 0.000000 0.182723 0.229984
v -0.019691 0.182723 0.224708
v 0.019691 0.182723 0.224708
v 0.010193 0.182723 0.228642
v -0.020279 0.198967 0.209371
v -0.020279 0.198967 0.209371
v 0.000000 0.212529 0.233075
v 0.010997 0.213106 0.231747
v 0.021244 0.214796 0.227854
v -0.021244 0.214796 0.227854
v -0.010997 0.213106 0.231747
v 0.030044 0.220591 0.214502
v 0.030044 0.220591 0.214502
v 0.029529 0.217225 0.209371
v 0.029529 0.217225 0.209371
v -0.020279 0.217225 0.209371
v -0.020279 0.217225 0.209371
v -0.029529 0.217225 0.209371
v -0.029529 0.217225 0.209371
v -0.030044 0.220591 0.214502
v -0.030044 0.220591 0.214502
v 0.020353 0.220591 0.214502
v 0.020353 0.220591 0.214502
v 0.030044 0.217927 0.220314
v -0.030044 0.218210 0.220314
v 0.034105 0.288337 0.161833
v 0.034105 0.288337 0.161833
v -0.029759 0.294002 0.156168
v -0.029759 0.294002 0.156168
v 0.020353 0.198967 0.209371
v 0.020353 0.198967 0.209371
v -0.020279 0.271376 0.161833
v -0.020279 0.271376 0.161833
v 0.020353 0.217225 0.209371
v 0.020353 0.217225 0.209371
v -0.020279 0.220591 0.214502
v -0.020279 0.220591 0.214502
v 0.020353 0.215621 0.225344
v 0.020353 0.215621 0.225344
v 0.020353 0.271376 0.161833
v 0.020353 0.271376 0.161833
v -0.020279 0.216150 0.225344
v -0.020279 0.216150 0.225344
v -0.010585 0.216018 0.228840
v 0.010609 0.215753 0.228840
v 0.000012 0.215885 0.230600
v 0.020353 0.271511 0.202091
v 0.020353 0.275765 0.215671
v -0.020279 0.271511 0.202091
v -0.020279 0.275765 0.215671
v 0.020353 0.283317 0.225949
v 0.020353 0.283317 0.225949
v -0.020279 0.283317 0.225949
v -0.020279 0.283317 0.225949
v -0.010509 0.285578 0.229027
v 0.010685 0.285578 0.229027
v 0.000088 0.286717 0.230577
v 0.027486 0.041521 0.149024
v 0.027486 0.041521 0.149024
v -0.023989 0.041521 0.149024
v -0.023989 0.041521 0.149024
v -0.016433 -0.216167 0.131544
v -0.016433 -0.216167 0.131544
v -0.016477 -0.216384 0.142307
v 0.020004 -0.216384 0.142307
v 0.019961 -0.216167 0.131544
v 0.019961 -0.216167 0.131544
v 0.016907 -0.177684 0.123146
v 0.016560 -0.200363 0.004596
v -0.012755 -0.200363 0.004596
v 0.023707 -0.099575 0.021637
v 0.023707 -0.103286 0.038289
v 0.016766 -0.072576 0.119535
v 0.016766 -0.072576 0.119535
v -0.013059 -0.072576 0.119535
v -0.013059 -0.072576 0.119535
v 0.016569 0.037789 0.126633
v 0.024336 0.027632 0.126642
v 0.024336 0.027632 0.126642
v 0.027486 0.032480 0.135082
v 0.017967 0.045894 0.135053
v -0.013037 0.037789 0.126633
v -0.014431 0.045894 0.135053
v -0.020839 0.027628 0.126642
v -0.020839 0.027628 0.126642
v -0.023989 0.032480 0.135082
v -0.020120 -0.103286 0.038289
v 0.017967 0.054401 0.149024
v -0.014431 0.054401 0.149024
v 0.006505 0.001293 0.123146
v 0.006505 0.001293 0.123146
v 0.006503 -0.012779 0.123146
v 0.006503 -0.012779 0.123146
v -0.013136 -0.012779 0.123146
v -0.013136 -0.012779 0.123146
v 0.003139 -0.017773 0.098430
v 0.003139 -0.017773 0.098430
v -0.013142 0.001293 0.123146
v -0.013142 0.001293 0.123146
v -0.009701 -0.017773 0.098430
v -0.009701 -0.017773 0.098430
v 0.003140 -0.009108 0.092285
v 0.003140 -0.009108 0.092285
v 0.003140 -0.044847 0.076305
v -0.009705 -0.009108 0.092285
v -0.009705 -0.009108 0.092285
v 0.003139 -0.048749 0.086185
v -0.009705 -0.044847 0.076305
v -0.009701 -0.048749 0.086185
v 0.003140 -0.089678 0.077018
v 0.003140 -0.089678 0.077018
v 0.003139 -0.089836 0.085730
v 0.003139 -0.089836 0.085730
v -0.009701 -0.089836 0.085730
v -0.009701 -0.089836 0.085730
v -0.009705 -0.089678 0.077018
v -0.009705 -0.089678 0.077018
v 0.027381 -0.202239 0.135580
v 0.024308 -0.209931 0.128584
v 0.024308 -0.209931 0.128584
v -0.023885 -0.202239 0.135580
v -0.020799 -0.209928 0.128582
v -0.020799 -0.209928 0.128582
v -0.013093 -0.180047 0.123146
v -0.013093 -0.180047 0.123146
v -0.013093 -0.180047 0.123146
v -0.020705 -0.165633 0.126925
v -0.020620 -0.163091 0.123888
v -0.012922 -0.170020 0.110563
v -0.012931 -0.170892 0.115012
v -0.012939 -0.171763 0.119460
v -0.012939 -0.171763 0.119460
v 0.016576 -0.170020 0.110563
v 0.024117 -0.163091 0.123888
v 0.024293 -0.165816 0.126923
v 0.016906 -0.180047 0.123146
v 0.016906 -0.180047 0.123146
v 0.016906 -0.180047 0.123146
v 0.023707 -0.188325 0.038289
v -0.020120 -0.188325 0.038289
v -0.013094 -0.177684 0.123146
v -0.020700 -0.177684 0.126926
v 0.016826 -0.175905 0.121303
v 0.016746 -0.171763 0.119460
v 0.016746 -0.171763 0.119460
v 0.023707 -0.194979 0.021637
v -0.020120 -0.099575 0.021637
v -0.020120 -0.194979 0.021637
v 0.023707 -0.099518 0.004596
v 0.023707 -0.099518 0.004596
v -0.020120 -0.196948 0.004596
v -0.020120 -0.196948 0.004596
v -0.020120 -0.099518 0.004596
v -0.020120 -0.099518 0.004596
v 0.023707 -0.196948 0.004596
v 0.023707 -0.196948 0.004596
v -0.012755 -0.094958 0.004596
v 0.016766 -0.094958 0.004596
v -0.023171 -0.110527 0.004596
v 0.026668 -0.110527 0.004596
v 0.026668 -0.188703 0.004596
v -0.023171 -0.188703 0.004596
v 0.025188 -0.192825 0.004596
v -0.021646 -0.192825 0.004596
v 0.015304 -0.194822 0.004596
v -0.011533 -0.194822 0.004596
v -0.011179 -0.100499 0.004596
v 0.015109 -0.100499 0.004596
v -0.015360 -0.103088 0.004596
v -0.015360 -0.103088 0.004596
v -0.017630 -0.111281 0.004596
v 0.021127 -0.111259 0.004596
v 0.018903 -0.102992 0.004596
v 0.018903 -0.102992 0.004596
v 0.021127 -0.187738 0.004596
v -0.017630 -0.187711 0.004596
v 0.019262 -0.192930 0.004596
v 0.019262 -0.192930 0.004596
v -0.015717 -0.192882 0.004596
v -0.015717 -0.192882 0.004596
v 0.015304 -0.194822 0.000076
v -0.011533 -0.194822 0.000076
v -0.011179 -0.100499 0.000076
v 0.015109 -0.100499 0.000076
v -0.015360 -0.103088 0.000076
v -0.015360 -0.103088 0.000076
v -0.017630 -0.111281 0.000076
v 0.021127 -0.111259 0.000076
v 0.018903 -0.102992 0.000076
v 0.018903 -0.102992 0.000076
v 0.021127 -0.187738 0.000076
v -0.017630 -0.187711 0.000076
v 0.019262 -0.192930 0.000076
v 0.019262 -0.192930 0.000076
v -0.015717 -0.192882 0.000076
v -0.015717 -0.192882 0.000076
v -0.054203 -0.194914 0.134431
v -0.041301 -0.196973 0.125534
v -0.028163 -0.234418 0.145857
v -0.028163 -0.234418 0.145857
v 0.041301 -0.196973 0.125534
v 0.054203 -0.194914 0.134431
v 0.028163 -0.234418 0.145857
v 0.028163 -0.234418 0.145857
v 0.054203 -0.193787 0.223671
v 0.041301 -0.196973 0.232568
v 0.041301 -0.196973 0.232568
v 0.028163 -0.234418 0.198422
v 0.028163 -0.234418 0.198422
v -0.041301 -0.196973 0.232568
v -0.041301 -0.196973 0.232568
v -0.054203 -0.193787 0.223671
v -0.028163 -0.234418 0.198422
v -0.028163 -0.234418 0.198422
v -0.041301 -0.052255 0.225658
v -0.054203 -0.061152 0.221972
v -0.054203 -0.061152 0.221972
v -0.054203 -0.062850 0.223671
v -0.054203 -0.062850 0.223671
v -0.041301 -0.059165 0.232568
v 0.041301 -0.059165 0.232568
v 0.054203 -0.062850 0.223671
v 0.054203 -0.062850 0.223671
v 0.054203 -0.061152 0.221972
v 0.054203 -0.061152 0.221972
v 0.041301 -0.052255 0.225658
v 0.054203 -0.061152 0.138935
v 0.054203 -0.063488 0.134431
v 0.054203 -0.063488 0.134431
v 0.041301 -0.058081 0.125534
v -0.041301 -0.058081 0.125534
v -0.054203 -0.063488 0.134431
v -0.054203 -0.063488 0.134431
v -0.054203 -0.061152 0.138935
v -0.008143 -0.046291 0.113998
v -0.008143 -0.046291 0.113998
v -0.000105 -0.046291 0.113998
v -0.000105 -0.046291 0.113998
v -0.008872 -0.058282 0.123146
v -0.008142 -0.053961 0.111860
v -0.000106 -0.053961 0.111860
v 0.000625 -0.058282 0.123146
v 0.000626 -0.042066 0.123146
v -0.008873 -0.042066 0.123146
v -0.007531 -0.046259 0.100763
v -0.007531 -0.046259 0.100763
v -0.000716 -0.046259 0.100763
v -0.000716 -0.046259 0.100763
v -0.007532 -0.041418 0.104326
v -0.007532 -0.041418 0.104326
v -0.000716 -0.041418 0.104326
v -0.000716 -0.041418 0.104326
v -0.000716 -0.033350 0.100899
v -0.000716 -0.033350 0.100899
v -0.000716 -0.033935 0.097716
v -0.000716 -0.033935 0.097716
v -0.007531 -0.033935 0.097716
v -0.007531 -0.033935 0.097716
v -0.007532 -0.033350 0.100899
v -0.007532 -0.033350 0.100899
vt 0.395719 0.008181
vt 0.394013 0.008181
vt 0.388356 0.008181
vt 0.434975 0.516727
vt 0.434975 0.501962
vt 0.631187 0.228570
vt 0.259944 0.110134
vt 0.266278 0.069459
vt 0.091423 0.110134
vt 0.058840 0.380610
vt 0.630275 0.380610
vt 0.636057 0.380610
vt 0.631187 0.301291
vt 0.631187 0.295621
vt 0.596854 0.296479
vt 0.381232 0.317402
vt 0.503426 0.317402
vt 0.590269 0.317402
vt 0.596854 0.290809
vt 0.631187 0.286601
vt 0.094676 0.561089
vt 0.362992 0.561089
vt 0.355817 0.543766
vt 0.262827 0.027836
vt 0.282840 0.027836
vt 0.262827 0.016794
vt 0.334438 0.218317
vt 0.334438 0.238532
vt 0.025826 0.380610
vt 0.325322 0.346557
vt 0.609657 0.023354
vt 0.696950 0.062386
vt 0.675786 0.077396
vt 0.313295 0.816744
vt 0.325198 0.793118
vt 0.847587 0.104252
vt 0.984837 0.104252
vt 0.993537 0.076559
vt 0.904260 0.557065
vt 0.434975 0.557065
vt 0.434975 0.551366
vt 0.904260 0.559009
vt 0.434975 0.559009
vt 0.322465 0.246697
vt 0.067688 0.110134
vt 0.050589 0.069459
vt 0.477282 0.055310
vt 0.477282 0.041952
vt 0.993537 0.041952
vt 0.588471 0.285329
vt 0.588471 0.283395
vt 0.000374 0.353471
vt 0.000181 0.363094
vt 0.315208 0.226011
vt 0.315594 0.204731
vt 0.930346 0.922045
vt 0.930076 0.840924
vt 0.820960 0.936713
vt 0.094861 0.317402
vt 0.115094 0.308400
vt 0.631187 0.303225
vt 0.659853 0.302870
vt 0.602122 0.325941
vt 0.352583 0.325955
vt 0.613973 0.346558
vt 0.049117 0.337783
vt 0.049117 0.326636
vt 0.129620 0.326629
vt 0.264668 0.027836
vt 0.077218 0.069459
vt 0.588471 0.277725
vt 0.165953 0.348930
vt 0.376446 0.374558
vt 0.376446 0.547635
vt 0.596854 0.281789
vt 0.596854 0.298413
vt 0.434975 0.530486
vt 0.631187 0.243261
vt 0.291637 0.110134
vt 0.301833 0.069459
vt 0.006105 0.364205
vt 0.477282 0.076559
vt 0.631187 0.268705
vt 0.588471 0.268705
vt 0.049117 0.380610
vt 0.284007 0.839088
vt 0.294560 0.811521
vt 0.302697 0.027836
vt 0.283073 0.027836
vt 0.289162 0.027836
vt 0.670326 0.286417
vt 0.664643 0.295344
vt 0.661071 0.300955
vt 0.063392 0.027836
vt 0.063392 0.016794
vt 0.076074 0.016794
vt 0.334438 0.220251
vt 0.671860 0.284478
vt 0.669777 0.268705
vt 0.993537 0.055310
vt 0.646812 0.354643
vt 0.685402 0.354643
vt 0.434975 0.487198
vt 0.434975 0.473439
vt 0.631187 0.200191
vt 0.013776 0.392261
vt 0.031098 0.403072
vt 0.013776 0.494606
vt 0.820078 0.200191
vt 0.784231 0.200191
vt 0.289162 0.016794
vt 0.631187 0.213880
vt 0.354575 0.370015
vt 0.365103 0.352693
vt 0.458932 0.459100
vt 0.458932 0.466524
vt 0.458932 0.444756
vt 0.359124 0.540460
vt 0.045237 0.027836
vt 0.291559 0.027836
vt 0.631187 0.256950
vt 0.667505 0.291727
vt 0.671261 0.284478
vt 0.666387 0.291727
vt 0.667225 0.296765
vt 0.666666 0.296765
vt 0.666946 0.299302
vt 0.827743 0.947053
vt 0.938919 0.949409
vt 0.818793 0.968900
vt 0.818527 0.975944
vt 0.958694 0.976321
vt 0.954136 0.970118
vt 0.817994 0.975944
vt 0.817727 0.968900
vt 0.331176 0.008181
vt 0.336023 0.008181
vt 0.818260 0.979491
vt 0.960988 0.979444
vt 0.282840 0.016794
vt 0.500153 0.025094
vt 0.499767 0.046374
vt 0.600125 0.047486
vt 0.049117 0.348930
vt 0.098685 0.370015
vt 0.100881 0.543766
vt 0.031098 0.486421
vt 0.076074 0.027836
vt 0.262879 0.016794
vt 0.676892 0.276101
vt 0.058772 0.027836
vt 0.058772 0.016794
vt 0.053579 0.027836
vt 0.458932 0.479384
vt 0.458932 0.473443
vt 0.073718 0.027836
vt 0.063510 0.027836
vt 0.359124 0.378784
vt 0.667518 0.380610
vt 0.644624 0.346486
vt 0.343476 0.776975
vt 0.344904 0.784747
vt 0.282355 0.110134
vt 0.340610 0.315452
vt 0.040656 0.347774
vt 0.784169 0.840924
vt 0.784169 0.936713
vt 0.332503 0.008181
vt 0.313374 0.784417
vt 0.021875 0.330681
vt 0.990272 0.980235
vt 0.990272 0.739032
vt 0.728520 0.739032
vt 0.477282 0.037396
vt 0.993537 0.037396
vt 0.262879 0.027836
vt 0.357368 0.308582
vt 0.343443 0.287288
vt 0.393948 0.008181
vt 0.388341 0.008181
vt 0.049117 0.317402
vt 0.100632 0.317402
vt 0.722357 0.137765
vt 0.434975 0.542300
vt 0.904260 0.551366
vt 0.993537 0.085018
vt 0.291419 0.069459
vt 0.083032 0.110134
vt 0.990272 0.657669
vt 0.728520 0.657669
vt 0.100632 0.326636
vt 0.058389 0.069459
vt 0.350229 0.316919
vt 0.601519 0.317402
vt 0.590233 0.317402
vt 0.626941 0.325920
vt 0.074640 0.110134
vt 0.136278 0.319214
vt 0.119352 0.286668
vt 0.130068 0.326633
vt 0.006634 0.337915
vt 0.323616 0.839088
vt 0.904260 0.542301
vt 0.728520 0.980235
vt 0.334438 0.225921
vt 0.687985 0.137765
vt 0.148010 0.337782
vt 0.094676 0.352693
vt 0.104977 0.312901
vt 0.128476 0.322238
vt 0.126883 0.317842
vt 0.131580 0.318528
vt 0.117223 0.297534
vt 0.126792 0.317842
vt 0.131535 0.318528
vt 0.128206 0.322236
vt 0.151115 0.334072
vt 0.139660 0.328154
vt 0.139795 0.328155
vt 0.067803 0.069459
vt 0.147786 0.337779
vt 0.927331 0.577650
vt 0.859064 0.568364
vt 0.063510 0.016794
vt 0.537798 0.317402
vt 0.063649 0.027836
vt 0.283073 0.016794
vt 0.144997 0.652068
vt 0.477282 0.104252
vt 0.728520 0.596092
vt 0.790797 0.577650
vt 0.334438 0.234941
vt 0.267191 0.652068
vt 0.458932 0.451675
vt 0.990272 0.596092
vn 0.000000 0.000000 -1.000000
vn 0.965900 0.000000 0.258800
vn 1.000000 0.000000 0.000000
vn -0.990300 0.138500 -0.011100
vn -0.988000 0.153300 0.015400
vn -0.977000 -0.203800 0.062300
vn 0.000000 0.000000 1.000000
vn -0.252000 -0.095000 0.963000
vn -0.488000 -0.103200 0.866700
vn -0.258100 -0.194500 0.946300
vn 0.268100 0.121100 -0.955700
vn 0.221600 0.059900 -0.973300
vn 0.488000 -0.103200 0.866700
vn 0.499600 -0.174400 0.848500
vn 0.601500 -0.108600 0.791400
vn -0.276900 0.000000 0.960900
vn -0.273600 0.000000 0.961800
vn -0.567700 0.000000 0.823200
vn -0.990900 0.134700 0.000000
vn -0.963700 0.267000 0.000000
vn 0.000000 1.000000 0.000000
vn -0.940500 -0.307000 -0.145900
vn -1.000000 -0.000700 -0.000300
vn -0.996600 0.046800 -0.066800
vn 1.000000 0.000000 0.000100
vn 0.998200 -0.034400 -0.048300
vn 0.998600 -0.023100 -0.047200
vn 0.000000 0.893000 0.449900
vn -0.843300 0.000000 -0.537500
vn -0.793300 0.000000 -0.608800
vn -0.707100 0.000000 -0.707100
vn 0.258800 0.000000 0.965900
vn 0.500000 0.000000 0.866000
vn 0.000000 0.707100 0.707100
vn -0.177500 -0.927900 0.328000
vn -0.196100 -0.948400 0.248900
vn 0.201200 -0.947400 0.248600
vn 0.567700 0.000000 0.823200
vn 0.273600 0.000000 0.961800
vn 0.276900 0.000000 0.960900
vn 0.500000 0.000000 -0.866000
vn 0.258800 0.000000 -0.965900
vn 0.000000 -0.916300 0.400300
vn 0.116100 -0.910200 0.397600
vn 0.099100 -0.911800 0.398400
vn 0.134100 -0.978400 -0.157000
vn 0.181000 -0.983200 -0.020200
vn -0.180300 -0.983400 -0.020200
vn 0.000000 -0.999800 -0.018100
vn -1.000000 0.000000 0.000000
vn 0.000000 -0.406500 -0.913600
vn 0.000000 -0.091300 0.995800
vn 0.000000 0.013000 0.999900
vn -0.937100 -0.001200 -0.349000
vn -0.884100 0.184900 -0.429100
vn -0.993000 -0.000900 -0.118000
vn 0.943400 -0.010400 -0.331300
vn 0.747600 -0.048700 -0.662400
vn 0.964000 -0.108400 -0.242600
vn -0.991300 0.131500 -0.005100
vn -0.978000 -0.202400 0.049500
vn 0.258100 -0.194500 0.946300
vn -0.247400 -0.887900 0.387900
vn -0.116100 -0.910200 0.397600
vn -0.207800 -0.896400 0.391600
vn 0.998900 -0.033100 -0.032300
vn 0.978200 -0.198600 0.060800
vn 0.990800 0.134800 -0.010700
vn -0.291200 0.929400 -0.226700
vn -0.273600 0.961800 0.000000
vn 0.291200 0.929400 -0.226700
vn 0.273600 0.680100 0.680100
vn -0.273600 0.680100 0.680100
vn -0.293600 -0.875900 0.382700
vn 0.000000 -0.201300 0.979500
vn 0.252000 -0.095000 0.963000
vn 0.866000 0.000000 0.500000
vn 0.262000 0.964700 -0.024600
vn 0.267600 0.955600 0.123200
vn -0.255400 0.958900 0.123800
vn -0.348300 -0.937200 -0.020100
vn -0.133500 -0.978500 -0.157100
vn 0.707100 0.000000 -0.707100
vn 0.843300 0.000000 -0.537500
vn -0.998900 -0.045900 0.000000
vn -0.099100 -0.911800 0.398400
vn 0.000000 -0.933900 -0.357500
vn 0.000000 -0.886000 -0.463700
vn 0.587400 -0.064100 0.806700
vn 0.501900 -0.045400 0.863700
vn -0.601500 -0.108600 0.791400
vn -0.501900 -0.045400 0.863700
vn 0.257800 -0.005400 0.966200
vn 0.941200 -0.337900 0.000000
vn 0.985200 -0.171500 0.000000
vn -0.257800 -0.005400 0.966200
vn -0.998500 -0.053900 -0.007900
vn -0.992500 -0.113200 -0.045700
vn -0.994200 -0.104300 -0.026700
vn 0.965900 0.000000 -0.258800
vn 0.866000 0.000000 -0.500000
vn 0.755900 -0.624000 -0.197900
vn 0.791700 -0.587300 -0.167900
vn 0.739100 -0.653100 0.164500
vn -0.998900 -0.033700 -0.032600
vn 0.286500 0.958000 0.000000
vn 0.549100 0.835700 0.000000
vn -0.866000 0.000000 -0.500000
vn -0.965900 0.000000 -0.258800
vn 0.567700 0.730700 -0.379100
vn 0.261900 0.856700 -0.444400
vn -0.600800 -0.160900 0.783000
vn -0.499600 -0.174400 0.848500
vn 0.567700 0.582100 0.582100
vn -0.210100 -0.969700 0.124700
vn -0.866000 0.000000 0.500000
vn -0.737400 0.000000 0.675400
vn -0.072100 0.900200 0.429400
vn -0.019900 0.911000 0.411900
vn -0.057800 0.879700 0.472000
vn -0.062900 0.947400 0.313700
vn -0.021500 0.923800 0.382200
vn 0.017300 0.943200 0.331700
vn -0.127300 0.728700 0.672900
vn -0.104300 0.872100 0.478100
vn 0.042500 0.935600 0.350400
vn 0.123100 0.764400 0.632900
vn 0.000900 0.624900 0.780700
vn -0.119000 0.695900 0.708100
vn 0.116400 0.724600 0.679300
vn -0.250100 -0.005200 0.968200
vn -0.215600 -0.000900 0.976400
vn -0.303400 -0.002700 0.952800
vn 0.247400 -0.887900 0.387900
vn 0.207800 -0.896400 0.391600
vn 0.250700 -0.005400 0.968000
vn 0.337600 -0.008400 0.941300
vn 0.305700 -0.003300 0.952100
vn 0.001100 -0.002400 1.000000
vn 0.216900 -0.001300 0.976200
vn 0.000100 0.000300 1.000000
vn -0.526400 0.850200 0.000000
vn -1.000000 0.000000 0.000400
vn -0.986400 0.010200 -0.164200
vn 0.896100 -0.383900 -0.222400
vn 0.882600 -0.423700 0.203400
vn 0.787500 -0.602900 0.127800
vn 0.991400 0.131000 0.000000
vn 0.000000 0.925400 0.379100
vn 0.221000 -0.975200 0.000000
vn 0.431100 -0.902300 0.000000
vn -0.758800 0.551500 -0.346500
vn -0.754900 0.560100 -0.341100
vn -0.733500 0.529100 -0.426600
vn 0.000000 0.983500 -0.180700
vn -0.739100 -0.653100 0.164500
vn -0.787500 -0.602900 0.127800
vn -0.791700 -0.587300 -0.167900
vn 0.953100 0.301800 -0.020900
vn 0.884800 0.373200 -0.278800
vn 0.967100 -0.251800 -0.035700
vn 0.940800 -0.306000 -0.145500
vn 0.848200 -0.521200 -0.094500
vn 0.349600 -0.936700 -0.020100
vn 0.000000 -0.821500 -0.570200
vn -0.215400 -0.976500 0.000000
vn -0.874400 -0.482900 0.048200
vn -0.847200 -0.522700 -0.094600
vn -0.966900 -0.252800 -0.035800
vn 0.000000 1.000000 -0.003300
vn 0.000000 0.988200 -0.152900
vn 0.988700 0.149100 0.015000
vn 0.567700 0.823200 0.000000
vn 0.578800 0.792200 -0.193200
vn -0.965900 0.000000 0.258800
vn 0.600800 -0.160900 0.783000
vn 0.000000 0.836900 -0.547300
vn 0.300100 0.881600 -0.364100
vn -0.293000 0.883300 -0.365900
vn -0.578800 0.792200 -0.193200
vn -0.567700 0.823200 0.000000
vn -0.984300 -0.176200 0.000000
vn 0.987100 0.009900 -0.159900
vn 0.344100 0.130300 -0.929800
vn 0.000000 -1.000000 0.000000
vn 0.191600 -0.176300 -0.965500
vn -0.185800 -0.176600 -0.966600
vn 0.000100 0.000200 -1.000000
vn 0.000000 0.947600 -0.319400
vn -0.000100 0.000100 -1.000000
vn -0.707100 0.000000 0.707100
vn -0.500000 0.000000 0.866000
vn 0.793300 0.000000 -0.608800
vn 0.293600 -0.875900 0.382700
vn -0.248900 0.968200 -0.025000
vn -0.492000 0.863700 0.109000
vn -0.907100 -0.400600 0.129200
vn 0.000000 0.892200 -0.451700
vn -0.445100 -0.000100 -0.895400
vn -0.258800 0.000000 0.965900
vn 0.182400 -0.926900 0.327800
vn 0.391300 -0.888400 0.240100
vn 0.693700 0.450400 -0.562000
vn 0.714800 0.466800 -0.520700
vn 0.886100 0.182600 -0.426000
vn -0.882300 0.376300 -0.282700
vn -0.708400 0.471100 -0.525500
vn -0.683800 0.454900 -0.570500
vn -0.100300 0.174000 -0.979600
vn -0.222200 0.059400 -0.973200
vn -0.343500 0.130000 -0.930100
vn 0.670200 0.487900 -0.559300
vn 0.734800 0.527900 -0.425800
vn 0.710200 0.516100 -0.478700
vn -0.258800 0.000000 -0.965900
vn -0.500000 0.000000 -0.866000
vn -0.668900 0.489000 -0.559800
vn -0.666400 0.511200 -0.542600
vn -0.708900 0.517300 -0.479300
vn 0.352700 -0.885600 0.302000
vn 0.359500 -0.895500 0.262300
vn 0.170100 -0.974200 0.148500
vn -0.460100 0.887400 -0.028100
vn 0.481500 0.876000 -0.026900
vn -0.282900 -0.000300 -0.959100
vn 0.760100 0.550200 -0.345700
vn 0.100600 0.174000 -0.979600
vn 0.075600 0.484600 -0.871400
vn 0.996600 0.046800 -0.066800
vn -0.965100 -0.117500 -0.234000
vn -0.740300 -0.046700 -0.670600
vn -0.940600 -0.008300 -0.339300
vn 0.002800 -0.434400 -0.900700
vn 0.000000 0.907800 -0.419400
vn 0.707100 0.000000 0.707100
vn 0.737400 0.000000 0.675400
vn -0.999700 0.015200 -0.020900
vn -1.000000 -0.000100 -0.000200
vn 0.000000 0.408200 -0.912900
vn 0.000000 0.200900 -0.979600
vn 0.998500 -0.053700 -0.006800
vn 0.998100 -0.061600 -0.000900
vn 0.992300 -0.016500 -0.122400
vn 0.990800 -0.000100 -0.134800
vn 0.000000 -0.367600 0.930000
vn 0.000000 -0.192500 0.981300
vn 0.000000 0.854100 -0.520100
vn 0.000000 0.794700 -0.607000
vn -0.992000 -0.017200 -0.124900
vn -0.998100 -0.035300 -0.049200
vn -0.998500 -0.023800 -0.048100
vn 0.000000 -0.980200 0.198000
vn -0.969200 -0.066100 -0.237300
vn -0.264000 0.121300 -0.956800
vn 1.000000 -0.000700 -0.000300
vn 1.000000 -0.000100 -0.000200
vn 0.999700 0.015200 -0.020900
vn 0.000000 -0.011100 0.999900
vn 0.000000 -0.981300 -0.192300
vn 0.000000 -0.015900 -0.999800
vn 0.204100 -0.151400 -0.967200
vn 0.000000 -0.477000 -0.878900
vn 0.935700 0.000600 -0.352800
vn 0.794800 -0.079400 -0.601600
vn -0.788200 -0.075500 -0.610800
vn -0.933100 0.003900 -0.359600
vn -0.696800 -0.302600 -0.650300
vn -0.938200 -0.323100 -0.124000
vn -0.873300 -0.368000 -0.319200
vn -0.935200 -0.158100 -0.316900
vn -0.701800 -0.693600 -0.162100
vn -0.668100 -0.579400 -0.466900
vn 0.706700 -0.297200 -0.642000
vn 0.680000 -0.568300 -0.463200
vn 0.876200 -0.347400 -0.334000
vn 0.717100 -0.675700 -0.170800
vn 0.935000 -0.140600 -0.325400
vn 0.940200 -0.305100 -0.151200
vn -0.937800 -0.347000 0.000000
vn -0.793400 0.000000 -0.608700
vn -0.455500 0.000100 0.890200
vn 0.455500 -0.000100 -0.890200
vn 0.000000 -0.673800 0.738900
vn 0.000000 0.391000 0.920400
vn 0.983100 -0.182000 0.017700
vn 0.991800 0.127800 -0.004900
vn 0.979200 -0.197100 0.048200
vn 0.911700 -0.390900 0.126400
vn 0.970700 -0.238900 -0.026600
vn 0.967300 -0.241600 -0.077100
vn -0.343700 -0.888900 0.302800
vn -0.167500 -0.974500 0.149400
vn -0.906800 -0.399400 0.135000
vn -0.965400 -0.251700 -0.068500
vn 0.445100 0.000200 0.895500
vn 0.000000 0.836100 -0.548500
vn 0.000000 0.909000 0.416700
vn -0.968500 -0.248400 -0.016600
vn 0.000000 -0.240000 -0.970800
vn 0.980500 -0.114800 -0.159100
vn 0.754900 -0.298600 -0.583800
vn -0.981000 -0.134300 -0.139600
vn -0.747400 -0.304600 -0.590400
vn 0.911400 -0.389600 0.132100
vn 0.931200 -0.355500 0.080700
vn 0.929900 -0.357600 0.086000
vn -0.950400 0.310100 -0.021900
vn -0.958300 0.284000 0.029800
vn -0.381400 -0.892500 0.240900
vn 0.968500 -0.056100 -0.242500
vn 0.000000 0.805800 -0.592100
vn -1.000000 -0.000100 0.000400
vn 0.182100 -0.962400 -0.201500
vn 0.767900 -0.612200 -0.188200
vn -0.753500 -0.632600 -0.179000
vn -0.281700 -0.000200 -0.959500
vn 0.995000 -0.091200 -0.041000
vn 0.995100 -0.089700 -0.041100
vn 0.993900 -0.105200 -0.032700
vn -0.075500 0.484600 -0.871500
vn -0.567700 0.000000 -0.823200
vn -0.261900 0.000000 -0.965100
vn -0.204100 -0.151400 -0.967200
vn -0.896100 -0.383900 -0.222400
vn 0.514500 0.850700 0.107700
vn 0.541800 0.840400 0.013200
vn -0.272700 0.961900 0.020000
vn -0.518900 0.854700 0.013300
vn 0.215600 -0.968500 0.124500
vn -0.411700 -0.904300 0.113000
vn 0.964000 0.265700 -0.006100
vn -0.927300 -0.364800 0.082900
vn -0.926000 -0.367000 0.088200
vn -0.936600 -0.348400 0.037200
vn -0.982200 -0.187000 0.018200
vn -0.961900 0.273200 -0.006300
vn 0.422200 -0.899500 0.112500
vn 0.940000 -0.339300 0.036300
vn 0.940400 -0.337700 0.039000
vn 0.000000 0.346700 -0.938000
vn -0.261900 0.856700 -0.444400
vn -0.420700 -0.907200 0.000000
vn 0.965700 0.259700 0.000000
vn -0.181900 -0.962500 -0.201000
vn 0.261900 0.000000 -0.965100
vn -0.567700 0.582100 0.582100
vn -0.560000 -0.601500 -0.569700
vn 0.560000 -0.601500 -0.569700
vn 0.547800 -0.699600 0.458800
vn -0.547800 -0.699600 0.458800
vn -0.882600 -0.423700 0.203400
vn -0.567700 0.730700 -0.379100
vn 0.567700 0.000000 -0.823200
vn -0.997500 0.007400 -0.069900
vn -0.996800 -0.000100 -0.079600
vn -0.998100 0.011600 -0.060100
vn 0.997500 0.007400 -0.069900
vn 0.998500 0.014700 -0.053200
vn 0.998100 0.011600 -0.060100
vn -0.999400 0.016300 -0.029500
vn 0.999400 0.016300 -0.029500
vn 0.285500 0.958200 0.019900
vn -0.587400 -0.064100 0.806700
vn 0.992200 -0.118000 -0.038800
vn -0.991000 -0.118000 -0.063700
vn -0.994800 -0.093700 -0.038400
vn 0.008500 -0.433600 -0.901100
vn -0.008300 -0.433500 -0.901100
vn -0.002800 -0.434400 -0.900700
vn 0.000000 0.794600 -0.607000
vn -0.000100 0.593600 0.804700
vn -0.339300 -0.008500 0.940600
vn 0.816900 -0.576500 -0.014900
vn 0.875100 -0.481400 0.048100
vn -0.815900 -0.578000 -0.014900
vn -0.793300 0.000000 0.608800
vn -0.353600 -0.897800 0.262600
vn 0.667700 0.510100 -0.542200
vn 0.993000 -0.000900 -0.118000
vn 0.937100 -0.001200 -0.349000
vn 0.756200 0.558800 -0.340300
vn -0.755900 -0.624000 -0.197900
vn 0.273600 0.961800 0.000000
vn -0.990500 -0.000400 -0.137500
vn -0.445100 -0.000300 -0.895400
vn 0.960600 0.276300 0.029000
vn -0.937100 -0.346700 0.040000
vn 0.793300 0.000000 0.608800
vn -0.998500 0.014700 -0.053200
vn 0.996800 -0.000100 -0.079600
s 1
f 556/1/1 561/2/1 560/3/1
f 9/4/2 11/5/3 10/6/3
f 161/7/4 231/8/5 129/9/6
f 126/10/7 127/11/7 432/12/7
f 64/13/8 62/14/9 372/15/10
f 148/16/11 464/17/1 142/18/12
f 56/14/13 57/19/14 349/20/15
f 279/21/16 289/22/17 591/23/18
f 243/24/19 542/25/20 265/26/19
f 41/27/21 81/28/21 364/28/21
f 115/29/22 113/12/23 155/30/24
f 173/31/25 474/32/26 468/33/27
f 608/34/28 610/34/28 622/35/28
f 334/36/29 353/37/30 360/38/31
f 369/39/32 2/40/32 3/41/33
f 366/42/7 1/43/7 2/40/32
f 400/28/34 352/44/34 398/44/34
f 131/45/35 224/46/36 225/46/37
f 595/23/38 295/22/39 285/21/40
f 17/47/41 18/48/42 356/49/42
f 46/50/43 47/51/44 55/15/45
f 119/52/46 118/53/47 123/53/48
f 486/54/49 180/55/49 482/55/49
f 421/56/50 405/57/50 85/58/50
f 510/59/51 496/59/51 198/60/51
f 64/13/8 53/61/52 379/62/53
f 146/63/54 159/64/55 145/65/56
f 215/66/57 184/67/58 507/68/59
f 231/8/5 531/69/60 227/70/61
f 376/15/62 57/19/14 56/14/13
f 51/71/63 52/51/64 63/19/65
f 197/72/66 132/9/67 163/7/68
f 297/73/69 291/74/70 303/73/71
f 593/22/72 598/74/72 587/74/73
f 51/71/63 63/19/65 60/75/74
f 64/13/8 372/15/10 373/76/75
f 373/76/75 376/15/62 54/13/76
f 7/77/77 9/4/2 8/78/2
f 134/79/78 229/80/79 228/80/80
f 123/53/48 436/81/81 122/52/82
f 16/82/83 354/38/83 333/36/84
f 341/83/85 343/84/50 370/75/50
f 109/85/7 126/10/7 432/12/7
f 46/50/43 66/76/43 65/15/86
f 611/86/87 612/87/88 309/87/88
f 251/88/1 545/89/1 540/90/1
f 349/20/15 347/91/89 381/92/90
f 322/20/91 62/14/9 382/92/92
f 54/13/76 380/93/93 379/62/53
f 246/94/94 270/95/94 268/96/95
f 62/14/9 64/13/8 383/93/96
f 81/28/21 41/27/21 42/97/21
f 56/14/13 381/92/90 380/93/93
f 61/20/97 397/98/98 391/99/99
f 16/82/83 17/47/41 355/100/41
f 4/101/1 403/101/1 406/102/1
f 13/103/100 15/104/101 333/105/84
f 575/106/102 280/107/103 580/108/104
f 80/109/7 23/105/7 404/110/7
f 155/30/24 161/7/4 190/72/105
f 241/90/106 245/89/107 263/111/106
f 334/105/29 24/104/108 336/112/109
f 600/113/110 602/114/111 303/73/71
f 27/115/21 29/116/21 350/117/21
f 322/20/91 371/75/112 374/19/113
f 594/23/114 596/118/114 598/74/72
f 224/46/36 442/119/115 225/46/37
f 541/25/1 253/69/1 252/120/1
f 32/77/116 344/84/117 339/121/116
f 414/122/118 90/98/119 72/91/120
f 69/91/121 92/123/122 410/124/123
f 416/125/124 414/122/118 73/92/125
f 71/92/126 410/124/123 417/126/127
f 418/127/128 416/125/124 68/93/129
f 70/93/130 417/126/127 418/127/128
f 87/128/3 97/56/3 99/129/3
f 86/128/50 91/130/50 100/129/50
f 96/131/131 427/132/132 426/133/133
f 47/51/44 368/71/134 375/19/135
f 94/134/136 93/135/137 424/133/138
f 553/136/1 554/136/1 563/137/1
f 95/138/139 94/134/136 428/132/140
f 95/138/139 429/139/141 427/132/132
f 240/90/70 262/111/70 264/140/142
f 488/141/143 487/142/143 175/143/143
f 190/72/105 185/144/144 115/29/22
f 574/145/145 577/146/146 286/147/147
f 238/148/95 268/96/95 266/149/148
f 409/150/149 76/150/149 90/98/119
f 206/151/150 260/152/150 565/95/151
f 258/153/1 248/119/1 550/94/1
f 402/154/21 326/154/21 328/155/21
f 242/25/142 240/90/70 264/140/142
f 259/153/1 257/156/1 551/157/1
f 290/118/50 296/158/50 288/23/50
f 433/12/152 461/159/153 139/160/154
f 630/161/155 631/162/155 625/162/155
f 585/108/156 276/147/157 274/107/158
f 444/163/159 153/164/160 163/7/68
f 490/165/161 114/29/162 116/81/163
f 80/109/7 404/110/7 399/109/7
f 437/81/164 118/53/47 119/52/46
f 351/166/50 378/167/50 85/58/50
f 554/136/1 567/168/1 564/137/1
f 612/87/88 314/169/165 313/169/165
f 206/151/150 207/151/166 260/152/150
f 342/101/1 77/102/1 389/102/1
f 431/12/7 124/11/7 125/10/7
f 91/130/50 425/133/50 100/129/50
f 494/170/167 121/81/168 493/165/169
f 88/171/170 98/172/171 419/173/171
f 284/146/38 595/23/38 285/21/40
f 232/8/172 163/7/68 132/9/67
f 18/48/42 19/174/1 357/175/1
f 597/118/173 599/158/174 303/73/71
f 362/117/21 402/154/21 329/116/21
f 30/4/175 32/77/116 339/121/116
f 57/19/14 59/75/176 349/20/15
f 244/176/148 238/148/95 266/149/148
f 87/128/3 84/58/3 97/56/3
f 150/177/177 147/178/178 154/178/179
f 297/73/69 606/158/180 589/118/181
f 557/179/1 555/1/1 559/180/1
f 243/24/19 265/26/19 269/96/182
f 329/116/21 330/115/21 362/117/21
f 114/29/162 181/144/183 197/72/66
f 148/16/11 142/18/12 450/63/184
f 287/108/185 277/108/185 275/106/185
f 336/112/109 26/103/109 337/6/50
f 111/181/186 110/181/187 203/182/188
f 355/100/41 17/47/41 356/49/42
f 478/32/189 471/183/189 168/183/189
f 440/182/190 111/181/186 203/182/188
f 34/184/191 35/41/192 367/185/192
f 78/186/193 79/37/193 354/38/83
f 368/71/134 324/84/194 345/75/194
f 133/79/195 228/80/80 519/187/196
f 214/188/197 129/9/6 227/70/61
f 98/172/171 422/189/198 420/190/198
f 85/58/50 86/128/50 421/56/50
f 498/59/7 508/59/7 128/182/7
f 203/182/188 110/181/187 514/191/199
f 36/40/200 1/43/7 366/42/7
f 130/45/201 225/46/37 518/192/202
f 423/133/3 411/135/3 99/129/3
f 445/177/203 151/193/204 153/164/160
f 152/64/205 151/193/204 445/177/203
f 153/164/160 151/193/204 152/64/205
f 157/164/206 158/193/207 447/177/208
f 159/64/55 158/193/207 157/164/206
f 447/177/208 158/193/207 159/64/55
f 138/194/209 144/195/210 456/63/211
f 137/196/212 453/160/213 452/65/214
f 20/48/215 21/47/216 359/100/216
f 369/39/32 366/42/7 2/40/32
f 140/196/217 457/63/218 458/65/219
f 130/45/201 131/45/35 225/46/37
f 205/197/220 506/198/221 505/199/222
f 161/7/4 155/30/24 157/164/206
f 162/163/223 157/164/206 154/178/179
f 147/178/178 153/164/160 164/163/224
f 122/52/82 119/52/46 123/53/48
f 419/173/171 98/172/171 420/190/198
f 249/119/1 538/151/1 537/151/1
f 207/151/166 261/152/166 260/152/150
f 6/121/77 7/77/77 8/78/2
f 62/14/9 322/20/91 374/19/113
f 466/17/225 159/64/55 456/63/211
f 593/22/72 594/23/114 598/74/72
f 430/12/226 452/65/214 453/160/213
f 135/194/227 449/196/228 450/63/184
f 153/164/160 149/30/229 163/7/68
f 192/200/230 188/67/231 216/66/232
f 551/157/1 538/151/1 249/119/1
f 361/166/3 413/57/3 84/58/3
f 117/201/233 110/181/187 111/181/186
f 599/158/174 600/113/110 303/73/71
f 306/202/234 307/202/234 311/34/234
f 289/22/17 279/21/16 285/21/40
f 547/148/1 254/69/1 256/156/1
f 3/41/33 5/184/235 323/203/236
f 35/41/192 36/40/200 365/39/200
f 154/178/179 147/178/178 133/79/195
f 89/204/170 88/171/170 419/173/171
f 152/64/205 148/16/11 450/63/184
f 621/35/237 632/162/238 318/161/238
f 550/94/1 256/156/1 258/153/1
f 544/176/1 545/89/1 254/69/1
f 172/32/239 475/32/239 176/31/240
f 39/205/21 40/97/21 364/28/21
f 66/76/43 46/50/43 55/15/45
f 484/54/49 486/54/49 482/55/49
f 11/5/3 13/103/100 12/112/100
f 40/97/21 41/27/21 364/28/21
f 327/83/241 58/20/242 346/75/3
f 463/183/243 465/206/244 468/33/27
f 413/57/3 97/56/3 84/58/3
f 257/156/1 548/148/1 551/157/1
f 469/33/245 171/33/245 481/143/246
f 106/159/247 136/160/248 108/159/247
f 167/183/249 477/32/250 473/33/251
f 165/206/252 166/206/252 472/33/252
f 217/207/253 192/200/230 185/144/144
f 412/110/7 14/105/7 399/109/7
f 466/17/225 156/16/254 159/64/55
f 149/30/229 112/12/255 114/29/162
f 110/181/187 188/67/231 514/191/199
f 626/162/256 623/35/257 317/161/256
f 481/143/246 179/142/258 178/142/258
f 505/199/222 517/60/259 504/60/259
f 489/141/260 176/31/240 476/31/240
f 283/208/261 576/106/262 572/106/262
f 215/66/57 182/165/263 183/170/264
f 216/66/232 186/170/265 187/165/266
f 208/209/267 209/210/268 193/211/269
f 218/212/270 193/211/269 209/210/268
f 502/213/271 503/60/272 193/211/269
f 515/209/273 516/60/274 199/214/275
f 219/213/276 220/215/277 199/214/275
f 211/216/278 199/214/275 220/215/277
f 239/148/182 269/96/182 552/157/279
f 401/186/280 360/38/31 353/37/30
f 440/182/190 509/59/281 201/68/282
f 375/19/135 368/71/134 345/75/194
f 190/72/105 115/29/22 155/30/24
f 583/21/283 586/108/283 581/108/283
f 312/35/284 316/162/284 319/162/284
f 533/156/285 532/69/286 226/70/287
f 337/6/50 28/5/50 338/78/175
f 213/188/288 212/217/289 200/198/290
f 204/197/291 131/45/35 501/199/292
f 214/188/197 512/197/293 500/198/294
f 197/72/66 163/7/68 149/30/229
f 497/59/295 203/182/188 514/191/199
f 216/66/232 185/144/144 192/200/230
f 390/99/296 393/150/296 408/150/296
f 92/123/122 385/150/297 394/150/297
f 22/82/31 334/36/29 360/38/31
f 250/88/1 540/90/1 539/90/1
f 333/36/84 354/38/83 79/37/193
f 315/35/284 312/35/284 319/162/284
f 129/9/6 214/188/197 210/217/298
f 132/9/67 197/72/66 212/217/289
f 24/104/108 26/103/109 336/112/109
f 620/169/299 617/169/299 628/161/299
f 507/68/59 211/216/278 222/218/300
f 202/59/301 515/209/273 211/216/278
f 223/219/302 209/210/268 192/200/230
f 189/59/303 192/200/230 209/210/268
f 511/197/304 235/192/305 234/220/306
f 75/150/296 74/99/296 395/150/296
f 459/163/307 230/187/308 231/8/5
f 213/188/288 234/220/306 226/70/287
f 131/45/35 204/197/291 520/192/309
f 210/217/298 223/219/302 217/207/253
f 221/221/310 222/218/300 212/217/289
f 300/113/3 302/158/3 574/145/145
f 103/222/311 105/223/311 422/189/198
f 269/96/182 568/224/279 552/157/279
f 175/143/143 480/31/312 488/141/143
f 507/68/59 221/221/310 181/144/183
f 438/201/313 437/81/164 119/52/46
f 175/143/143 473/33/251 480/31/312
f 222/218/300 220/215/277 200/198/290
f 196/199/314 200/198/290 220/215/277
f 191/199/315 502/213/271 218/212/270
f 500/198/294 218/212/270 223/219/302
f 190/72/105 210/217/298 217/207/253
f 197/72/66 221/221/310 212/217/289
f 181/144/183 215/66/57 507/68/59
f 365/39/200 36/40/200 366/42/7
f 142/18/12 135/194/227 450/63/184
f 295/22/39 289/22/17 285/21/40
f 456/63/211 470/225/316 466/17/225
f 462/225/1 470/225/316 144/195/210
f 386/99/317 384/150/318 396/123/319
f 159/64/55 155/30/24 145/65/56
f 291/74/70 297/73/69 589/118/181
f 549/94/151 206/151/150 565/95/151
f 454/196/320 138/194/209 456/63/211
f 328/155/21 329/116/21 402/154/21
f 479/143/25 485/142/25 483/141/25
f 53/61/52 64/13/8 373/76/75
f 21/47/216 22/82/31 360/38/31
f 605/113/321 299/114/322 273/208/323
f 298/113/50 569/145/324 296/158/50
f 229/80/79 233/187/325 521/120/326
f 438/201/313 119/52/46 122/52/82
f 228/80/80 529/88/327 525/120/328
f 442/119/115 441/119/329 225/46/37
f 412/110/7 45/105/7 14/105/7
f 224/46/36 520/192/309 523/153/330
f 232/8/172 532/69/286 522/120/331
f 237/192/332 236/220/333 536/226/334
f 236/220/333 227/70/61 534/156/335
f 231/8/5 230/187/308 526/120/336
f 225/46/37 441/119/329 527/153/337
f 444/163/159 163/7/68 232/8/172
f 512/197/293 214/188/197 236/220/333
f 134/79/78 164/163/224 233/187/325
f 234/220/306 535/226/338 533/156/285
f 273/208/323 299/114/322 283/208/261
f 235/192/305 528/153/339 535/226/338
f 148/16/11 446/177/340 448/177/340
f 541/25/1 252/120/1 250/88/1
f 603/114/341 297/73/69 303/73/71
f 358/49/215 357/175/1 20/48/215
f 247/157/342 271/224/342 261/152/166
f 62/14/9 374/19/113 372/15/10
f 244/176/148 266/149/148 562/227/343
f 505/199/222 501/199/292 131/45/35
f 434/201/344 438/201/313 122/52/82
f 299/114/322 301/114/345 283/208/261
f 592/22/73 587/74/73 590/23/346
f 274/107/158 569/145/324 570/208/347
f 280/107/103 575/106/102 573/208/348
f 286/147/147 577/146/146 578/21/349
f 276/147/157 585/108/156 582/21/350
f 280/107/103 286/147/147 580/108/104
f 412/110/7 399/109/7 404/110/7
f 587/74/73 588/118/346 590/23/346
f 584/146/351 296/158/50 569/145/324
f 604/113/352 606/158/180 297/73/69
f 359/100/216 21/47/216 360/38/31
f 601/113/353 282/145/353 283/208/261
f 241/90/106 263/111/106 262/111/70
f 569/145/324 274/107/158 276/147/157
f 307/202/234 308/34/234 311/34/234
f 185/144/144 493/165/169 115/29/22
f 305/86/354 616/202/355 607/34/356
f 614/86/357 613/87/358 609/34/359
f 201/68/282 184/67/58 440/182/190
f 607/34/356 621/35/237 618/169/360
f 609/34/359 613/87/358 619/169/361
f 623/35/257 619/169/361 317/161/256
f 550/94/1 547/148/1 256/156/1
f 610/34/28 624/35/28 622/35/28
f 147/178/178 134/79/78 133/79/195
f 420/190/198 422/189/198 105/223/311
f 559/180/1 555/1/1 560/3/1
f 449/196/228 135/194/227 454/196/320
f 148/16/11 156/228/254 464/17/1
f 577/146/146 302/158/3 294/23/3
f 26/103/109 28/5/50 337/6/50
f 32/77/116 34/184/191 344/84/117
f 383/93/96 64/13/8 379/62/53
f 231/8/5 227/70/61 129/9/6
f 229/80/79 530/88/362 529/88/327
f 28/5/50 30/4/175 338/78/175
f 357/175/1 19/174/1 20/48/215
f 144/195/210 138/194/209 462/225/1
f 292/118/3 294/23/3 302/158/3
f 173/31/25 468/33/27 479/143/25
f 564/137/1 559/180/1 560/3/1
f 56/14/13 349/20/15 381/92/90
f 320/91/363 322/20/91 382/92/92
f 53/61/52 54/13/76 379/62/53
f 541/25/1 543/24/1 253/69/1
f 382/92/92 62/14/9 383/93/96
f 348/91/364 58/20/242 396/123/319
f 387/102/1 4/101/1 406/102/1
f 396/123/319 58/20/242 327/83/241
f 54/13/76 56/14/13 380/93/93
f 391/99/99 341/83/85 61/20/97
f 61/20/97 321/91/365 397/98/98
f 397/98/98 392/150/366 391/99/99
f 603/114/341 604/113/352 297/73/69
f 111/181/186 492/170/367 117/201/233
f 240/90/70 241/90/106 262/111/70
f 74/99/296 407/99/296 395/150/296
f 7/77/77 6/121/77 323/203/236
f 100/129/50 421/56/50 86/128/50
f 495/170/368 110/181/187 120/201/369
f 197/72/66 181/144/183 221/221/310
f 8/78/2 9/4/2 10/6/3
f 496/59/51 195/60/51 198/60/51
f 449/196/228 454/196/320 455/160/370
f 577/146/146 574/145/145 302/158/3
f 543/24/1 548/148/1 253/69/1
f 73/92/125 414/122/118 72/91/120
f 71/92/126 69/91/121 410/124/123
f 68/93/129 416/125/124 73/92/125
f 70/93/130 71/92/126 417/126/127
f 67/62/371 418/127/128 68/93/129
f 67/62/371 70/93/130 418/127/128
f 52/51/64 65/15/86 63/19/65
f 415/130/372 96/131/131 426/133/133
f 85/58/50 405/57/50 351/166/50
f 428/132/140 94/134/136 424/133/138
f 429/139/141 95/138/139 428/132/140
f 136/160/248 449/196/228 455/160/370
f 96/131/131 95/138/139 427/132/132
f 272/145/321 605/113/321 273/208/323
f 333/36/84 15/229/101 16/82/83
f 101/230/311 420/190/198 104/231/311
f 156/16/254 148/16/11 448/177/340
f 280/107/103 574/145/145 286/147/147
f 338/78/175 30/4/175 339/121/116
f 545/89/1 255/120/1 254/69/1
f 547/148/1 544/176/1 254/69/1
f 560/3/1 563/137/1 564/137/1
f 99/129/3 411/135/3 87/128/3
f 458/65/219 433/12/152 139/160/154
f 22/82/31 24/229/108 334/36/29
f 116/81/163 439/201/373 491/170/374
f 491/170/374 490/165/161 116/81/163
f 539/90/1 541/25/1 250/88/1
f 259/153/1 551/157/1 249/119/1
f 135/194/227 142/18/12 462/225/1
f 475/32/239 476/31/240 176/31/240
f 115/29/22 493/165/169 121/81/168
f 494/170/167 435/201/375 121/81/168
f 44/232/21 81/28/21 43/205/21
f 135/194/227 138/194/209 454/196/320
f 340/83/376 339/121/116 344/84/117
f 245/89/107 267/227/107 263/111/106
f 156/228/254 466/233/225 464/17/1
f 12/112/100 13/103/100 333/105/84
f 136/160/248 455/160/370 108/159/247
f 304/86/87 611/86/87 309/87/88
f 177/141/260 489/141/260 476/31/240
f 358/49/215 20/48/215 359/100/216
f 194/198/377 204/197/291 501/199/292
f 462/225/1 138/194/209 135/194/227
f 117/201/233 120/201/369 110/181/187
f 414/122/118 409/150/149 90/98/119
f 332/117/21 362/117/21 331/234/21
f 388/99/296 390/99/296 408/150/296
f 479/143/25 483/141/25 173/31/25
f 579/21/283 583/21/283 581/108/283
f 162/163/223 133/79/195 519/187/196
f 236/220/333 214/188/197 227/70/61
f 239/148/182 243/24/19 269/96/182
f 618/169/360 621/35/237 318/161/238
f 205/197/220 130/45/201 518/192/202
f 556/1/1 560/3/1 555/1/1
f 147/178/178 445/177/203 153/164/160
f 148/16/11 152/64/205 445/177/203
f 149/30/229 153/164/160 152/64/205
f 154/178/179 157/164/206 447/177/208
f 155/30/24 159/64/55 157/164/206
f 156/16/254 447/177/208 159/64/55
f 350/117/21 335/117/21 25/234/21
f 451/63/378 137/196/212 452/65/214
f 33/154/21 83/154/21 31/155/21
f 139/160/154 140/196/217 458/65/219
f 52/51/64 46/50/43 65/15/86
f 356/49/42 18/48/42 357/175/1
f 459/163/307 161/7/4 157/164/206
f 133/79/195 162/163/223 154/178/179
f 134/79/78 147/178/178 164/163/224
f 54/13/76 376/15/62 56/14/13
f 354/38/83 16/82/83 355/100/41
f 132/9/67 226/70/287 232/8/172
f 149/30/229 152/64/205 141/65/379
f 84/58/3 82/167/3 361/166/3
f 377/101/1 342/101/1 389/102/1
f 592/22/73 593/22/72 587/74/73
f 152/64/205 143/63/380 141/65/379
f 460/159/381 430/12/226 453/160/213
f 25/234/21 27/115/21 350/117/21
f 281/106/185 287/108/185 275/106/185
f 107/85/7 431/12/7 125/10/7
f 571/106/382 585/108/156 274/107/158
f 55/15/45 47/51/44 375/19/135
f 38/232/21 39/205/21 364/28/21
f 291/74/70 293/74/383 303/73/71
f 133/79/195 134/79/78 228/80/80
f 185/144/144 190/72/105 217/207/253
f 545/89/1 251/88/1 255/120/1
f 184/67/58 111/181/186 440/182/190
f 344/203/117 34/184/191 367/185/192
f 436/81/81 434/201/344 122/52/82
f 238/148/95 246/94/94 268/96/95
f 53/61/52 373/76/75 54/13/76
f 29/116/21 31/155/21 83/154/21
f 542/25/20 558/140/20 265/26/19
f 627/161/155 630/161/155 625/162/155
f 288/23/50 296/158/50 584/146/351
f 474/32/26 463/183/243 468/33/27
f 293/74/383 597/118/173 303/73/71
f 170/33/252 165/206/252 472/33/252
f 467/206/384 167/183/249 473/33/251
f 501/199/292 505/199/222 504/60/259
f 174/143/246 481/143/246 178/142/258
f 532/69/286 232/8/172 226/70/287
f 464/17/1 462/225/1 142/18/12
f 410/124/123 92/123/122 394/150/297
f 183/170/264 111/181/186 184/67/58
f 184/67/58 215/66/57 183/170/264
f 181/144/183 182/165/263 215/66/57
f 187/165/266 185/144/144 216/66/232
f 216/66/232 188/67/231 186/170/265
f 110/181/187 186/170/265 188/67/231
f 503/60/272 208/209/267 193/211/269
f 223/219/302 218/212/270 209/210/268
f 218/212/270 502/213/271 193/211/269
f 211/216/278 515/209/273 199/214/275
f 516/60/274 219/213/276 199/214/275
f 222/218/300 211/216/278 220/215/277
f 207/151/166 247/157/342 261/152/166
f 477/32/250 480/31/312 473/33/251
f 248/119/1 249/119/1 537/151/1
f 513/182/7 498/59/7 128/182/7
f 511/197/304 213/188/288 200/198/290
f 61/20/97 341/83/85 370/75/50
f 210/217/298 214/188/197 500/198/294
f 42/97/21 43/205/21 81/28/21
f 499/200/385 497/59/295 514/191/199
f 48/185/33 3/41/33 323/203/236
f 301/114/345 601/113/353 283/208/261
f 105/223/311 104/231/311 420/190/198
f 102/235/311 103/222/311 422/189/198
f 141/65/379 112/12/255 149/30/229
f 327/83/241 386/99/317 396/123/319
f 228/80/80 229/80/79 529/88/327
f 190/72/105 129/9/6 210/217/298
f 213/188/288 132/9/67 212/217/289
f 221/221/310 507/68/59 222/218/300
f 507/68/59 202/59/301 211/216/278
f 217/207/253 223/219/302 192/200/230
f 208/209/267 189/59/303 209/210/268
f 213/188/288 511/197/304 234/220/306
f 161/7/4 459/163/307 231/8/5
f 132/9/67 213/188/288 226/70/287
f 224/46/36 131/45/35 520/192/309
f 273/208/323 283/208/261 572/106/262
f 602/114/111 603/114/341 303/73/71
f 251/88/1 540/90/1 250/88/1
f 309/87/88 612/87/88 313/169/165
f 169/32/189 478/32/189 168/183/189
f 149/30/229 114/29/162 197/72/66
f 212/217/289 222/218/300 200/198/290
f 219/213/276 196/199/314 220/215/277
f 500/198/294 191/199/315 218/212/270
f 210/217/298 500/198/294 223/219/302
f 257/156/1 253/69/1 548/148/1
f 130/45/201 205/197/220 505/199/222
f 160/177/177 150/177/177 154/178/179
f 330/115/21 331/234/21 362/117/21
f 367/185/192 35/41/192 365/39/200
f 83/154/21 350/117/21 29/116/21
f 537/151/1 550/94/1 248/119/1
f 363/28/34 400/28/34 398/44/34
f 174/143/246 469/33/245 481/143/246
f 114/29/162 490/165/161 181/144/183
f 50/84/74 51/71/63 60/75/74
f 530/88/362 229/80/79 521/120/326
f 519/187/196 228/80/80 525/120/328
f 23/105/7 37/105/7 404/110/7
f 278/146/18 279/21/16 591/23/18
f 161/7/4 129/9/6 190/72/105
f 442/119/115 224/46/36 523/153/330
f 443/187/386 232/8/172 522/120/331
f 524/153/387 237/192/332 536/226/334
f 536/226/334 236/220/333 534/156/335
f 531/69/60 231/8/5 526/120/336
f 518/192/202 225/46/37 527/153/337
f 443/187/386 444/163/159 232/8/172
f 237/192/332 512/197/293 236/220/333
f 229/80/79 134/79/78 233/187/325
f 226/70/287 234/220/306 533/156/285
f 234/220/306 235/192/305 535/226/338
f 531/69/60 534/156/335 227/70/61
f 566/168/1 553/136/1 563/137/1
f 563/137/1 554/136/1 564/137/1
f 113/12/23 145/65/56 155/30/24
f 571/106/382 274/107/158 570/208/347
f 574/145/145 280/107/103 573/208/348
f 580/108/104 286/147/147 578/21/349
f 584/146/351 276/147/157 582/21/350
f 546/89/343 244/176/148 562/227/343
f 130/45/201 505/199/222 131/45/35
f 5/184/235 7/77/77 323/203/236
f 325/83/388 323/203/236 6/121/77
f 584/146/351 569/145/324 276/147/157
f 48/185/33 369/39/32 3/41/33
f 310/87/389 305/86/354 607/34/356
f 615/202/390 614/86/357 609/34/359
f 310/87/389 607/34/356 618/169/360
f 623/35/257 609/34/359 619/169/361
f 49/84/3 327/83/241 346/75/3
f 10/6/3 11/5/3 12/112/100
f 456/63/211 144/195/210 470/225/316
f 617/169/299 629/161/299 628/161/299
